<?xml version="1.0" encoding="utf-8"?>
<!-- Generator: Adobe Illustrator 25.0.0, SVG Export Plug-In . SVG Version: 6.00 Build 0)  -->
<svg version="1.1" id="Layer_1" xmlns="http://www.w3.org/2000/svg" xmlns:xlink="http://www.w3.org/1999/xlink" x="0px" y="0px"
	 viewBox="0 0 183.9 150" style="enable-background:new 0 0 183.9 150;" xml:space="preserve">
<style type="text/css">
	.st0{fill:#A85120;}
	.st1{fill:#FFDC67;}
	.st2{fill:#C86D36;}
	.st3{fill:#7DA8FF;}
	.st4{fill:#88C116;}
	.st5{fill:#35414D;}
	.st6{fill:#07BEEF;}
	.st7{fill:#FC635B;}
	.st8{fill:#7EC927;}
	.st9{fill:#FFA733;}
	.st10{fill:#00B6E0;}
	.st11{fill:#F34234;}
	.st12{fill:#60A917;}
	.st13{fill:#FF9801;}
	.st14{fill:#EF6D7A;}
	.st15{fill:#3A312A;}
	.st16{fill:#D6DF58;}
	.st17{fill:#8AC5DC;}
	.st18{fill:#87796F;}
</style>
<g>
	<g>
		<g>
			<g>
				<path class="st0" d="M120.6,80.3c-3.3-1.8-7.1-2.9-11.1-2.9c-3.3,0-6.4,0.6-9.2,1.6c-0.6,0.2-1.1,0.4-1.7,0.7
					c-16,7.1-23.8,35.1-23.8,44.5c0,10.7,9.9,19.7,23.8,22.9c3.4,0.8,7.1,1.2,10.9,1.2c19.1,0,34.6-10.8,34.6-24.1
					C144.1,114.8,136.4,89.1,120.6,80.3L120.6,80.3z"/>
			</g>
			<g>
				<path class="st1" d="M110.6,100.6c-0.3,0-0.5,0-0.8,0c-8.1,0.4-14.5,7.1-14.5,15.3s6.5,14.9,14.5,15.3c0.2,0,0.5,0,0.8,0
					c8.5,0,15.3-6.9,15.3-15.3C125.9,107.4,119.1,100.6,110.6,100.6z"/>
			</g>
			<g>
				<path class="st2" d="M126.4,58.3l-5.8,22c-3.3-1.8-7.1-2.9-11.1-2.9c-3.3,0-6.4,0.6-9.2,1.6l-5.6-24.5c0,0,8.3,7.7,15.7,6.7
					c0.9-0.1,1.8-0.4,2.7-0.8C120.9,56.6,126.4,58.3,126.4,58.3L126.4,58.3z"/>
			</g>
			<g>
				<path class="st3" d="M170.2,83.5c3.8,0,6.8,3.1,6.8,6.8c0,3.8-3.1,6.8-6.8,6.8c-3.8,0-6.8-3.1-6.8-6.8
					C163.4,86.6,166.5,83.5,170.2,83.5z"/>
			</g>
			<g>
				<circle class="st3" cx="56.1" cy="51.1" r="10.2"/>
			</g>
			<g>
				<path class="st4" d="M119.9,42.9c-1.1-5.6,2.3-12.3,8.5-15.9c12.1-6.9,23.9-2.1,31.4-2.4c-11.3,5-9.8,18.2-20.1,24
					c-7.3,4.3-15.8,2.8-19-3.1C120.3,44.6,120,43.7,119.9,42.9L119.9,42.9z"/>
			</g>
			<g>
				<path class="st4" d="M105.3,35.7c-0.1,0.4-0.2,0.7-0.4,1c-2.1,3.9-7.7,4.9-12.5,2.1c-6.7-3.8-5.8-12.5-13.2-15.7
					c4.9,0.2,12.6-3,20.6,1.6C104.2,27.1,106.5,32,105.3,35.7L105.3,35.7z"/>
			</g>
			<g>
				<path class="st5" d="M183.7,34c0.6,1.3-0.1,2.8-1.4,3.3c-1.3,0.6-2.8-0.1-3.3-1.4c-0.6-1.3,0.1-2.8,1.4-3.3
					C181.7,32.1,183.2,32.7,183.7,34z"/>
			</g>
			<g>
				<path class="st5" d="M170.1,57.8c0.6,1.3-0.1,2.8-1.4,3.3c-1.3,0.6-2.8-0.1-3.3-1.4c-0.6-1.3,0.1-2.8,1.4-3.3
					C168,55.9,169.5,56.5,170.1,57.8z"/>
			</g>
			<g>
				<path class="st5" d="M159.8,126c0.6,1.3-0.1,2.8-1.4,3.3c-1.3,0.6-2.8-0.1-3.3-1.4c-0.6-1.3,0.1-2.8,1.4-3.3
					C157.8,124.1,159.3,124.7,159.8,126z"/>
			</g>
			<g>
				<path class="st5" d="M151.3,1.6c0.6,1.3-0.1,2.8-1.4,3.3s-2.8-0.1-3.3-1.4s0.1-2.8,1.4-3.3C149.3-0.3,150.8,0.3,151.3,1.6z"/>
			</g>
			<g>
				<path class="st5" d="M93.3,3.3c0.6,1.3-0.1,2.8-1.4,3.3c-1.3,0.6-2.8-0.1-3.3-1.4c-0.6-1.3,0.1-2.8,1.4-3.3
					C91.3,1.3,92.8,2,93.3,3.3z"/>
			</g>
			<g>
				<path class="st5" d="M62.5,23.9c0.6,1.3-0.1,2.8-1.4,3.3c-1.3,0.6-2.8-0.1-3.3-1.4s0.1-2.8,1.4-3.3C60.5,22,62,22.6,62.5,23.9z"
					/>
			</g>
			<g>
				<path class="st5" d="M120.6,82c-0.2,0-0.3,0-0.4-0.1c-0.9-0.2-1.5-1.2-1.2-2.1l5.3-20.2c-2-0.2-5.8,0-10.5,2.3
					c-1,0.5-2.1,0.8-3.2,0.9c-4.8,0.6-9.9-1.9-13.2-4.2l4.6,19.8c0.2,0.9-0.4,1.8-1.3,2.1s-1.8-0.4-2.1-1.3l-5.6-24.5
					c-0.2-0.7,0.2-1.5,0.8-1.9c0.6-0.4,1.5-0.3,2,0.2c0.1,0.1,7.8,7.1,14.3,6.3c0.8-0.1,1.5-0.3,2.2-0.6c8.4-4,14.4-2.3,14.6-2.2
					c0.9,0.3,1.4,1.2,1.2,2.1l-5.8,22C122.1,81.5,121.4,82,120.6,82z"/>
			</g>
			<g>
				<path class="st5" d="M127.3,82.3c-3.8,0-6.6-0.3-6.9-0.3c-0.8-0.1-1.4-0.7-1.5-1.5c-0.1-0.8,0.3-1.5,1-1.8
					c9.3-3.8,15.5-14.8,15.5-14.9c0.5-0.8,1.5-1.1,2.3-0.7c0.8,0.5,1.1,1.5,0.7,2.3c-0.2,0.4-4.6,8.3-11.9,13.4
					c6.8,0.1,16.3-0.9,19.8-5.4c0.6-0.7,1.7-0.9,2.4-0.3c0.7,0.6,0.9,1.7,0.3,2.4C144.6,81.3,134.3,82.3,127.3,82.3L127.3,82.3z"/>
			</g>
			<g>
				<path class="st5" d="M109.5,150c-3.9,0-7.6-0.4-11.3-1.3c-15-3.5-25.1-13.3-25.1-24.6c0-4.8,1.9-14.3,6-23.8
					c3.4-7.9,9.5-18.2,18.8-22.3c0.6-0.3,1.2-0.5,1.8-0.7c3.1-1.1,6.4-1.7,9.8-1.7c4.2,0,8.2,1.1,12,3.2c9.2,5.1,15.1,15,18.4,22.5
					c4.1,9.2,6,18.1,6,22.9c0,7-3.9,13.6-10.9,18.5C128.1,147.4,119.1,150,109.5,150z M109.5,79.1c-3,0-5.9,0.5-8.6,1.5
					c-0.5,0.2-1,0.4-1.6,0.6c-14.8,6.6-22.7,33.4-22.7,42.9c0,9.6,9,18.2,22.4,21.2c3.4,0.8,6.9,1.2,10.5,1.2
					c18.2,0,32.9-10,32.9-22.4c0-4.3-1.8-12.8-5.7-21.5c-3.1-7-8.6-16.3-16.9-20.9C116.5,80,113.1,79.1,109.5,79.1z"/>
			</g>
			<g>
				<path class="st5" d="M131,52.7c-5.2,0-9.6-2.4-11.8-6.5c-0.5-1-0.9-2-1.1-3c-1.3-6.4,2.6-13.9,9.4-17.7c4.7-2.7,9.9-4,15.8-4
					c3.5,0,6.7,0.4,9.6,0.8c2.5,0.3,4.8,0.6,6.7,0.6c0.8,0,1.5,0.5,1.7,1.3s-0.2,1.6-1,1.9c-5.4,2.4-7.6,6.8-9.9,11.5
					c-2.3,4.6-4.7,9.3-10,12.4C137.6,51.8,134.3,52.7,131,52.7L131,52.7z M143.4,24.9c-5.4,0-9.9,1.1-14.1,3.5
					c-5.5,3.1-8.8,9.1-7.7,14.1c0.2,0.7,0.4,1.5,0.7,2.1c1.6,2.9,4.8,4.7,8.8,4.7c2.6,0,5.3-0.8,7.8-2.2c4.4-2.5,6.5-6.6,8.6-10.9
					c1.8-3.6,3.7-7.3,7-10.2c-0.6-0.1-1.3-0.2-1.9-0.2C149.8,25.3,146.6,24.9,143.4,24.9L143.4,24.9z"/>
			</g>
			<g>
				<path class="st5" d="M98.2,42.1c-2.2,0-4.5-0.6-6.6-1.8c-3.6-2.1-5.3-5.4-6.8-8.4c-1.6-3.1-2.9-5.8-6.2-7.3
					c-0.7-0.3-1.2-1.1-1-1.9c0.2-0.8,0.9-1.3,1.7-1.3c1.2,0,2.7-0.2,4.3-0.4c1.9-0.2,4.1-0.5,6.4-0.5c4,0,7.5,0.9,10.7,2.7
					c5,2.8,7.7,8.5,6.2,13.1c-0.1,0.4-0.3,0.9-0.5,1.3C104.9,40.4,101.8,42.1,98.2,42.1z M84,24.4c1.7,1.8,2.8,4,3.8,6
					c1.4,2.8,2.7,5.4,5.4,6.9c1.6,0.9,3.2,1.4,4.9,1.4c2.4,0,4.3-1,5.3-2.8c0.1-0.2,0.2-0.5,0.3-0.7c0.9-3.1-1.1-7.1-4.7-9.1
					c-2.7-1.5-5.6-2.2-9-2.2C88,23.8,86,24.1,84,24.4C84,24.4,84,24.4,84,24.4z"/>
			</g>
			<g>
				<path class="st5" d="M110.4,54.6c-0.3,0-0.6-0.1-0.9-0.3c-0.8-0.5-1-1.6-0.5-2.4c2.7-4.3,6.1-7.7,9.9-10.5
					c6-4.2,11.2-4.9,11.4-5c0.9-0.1,1.8,0.5,1.9,1.5c0.1,0.9-0.5,1.8-1.5,1.9c0,0-4.6,0.7-9.9,4.4c-3.5,2.4-6.6,5.6-9,9.5
					C111.5,54.3,110.9,54.6,110.4,54.6L110.4,54.6z"/>
			</g>
			<g>
				<path class="st5" d="M110.4,44.3c-0.7,0-1.4-0.5-1.7-1.3c-0.6-2.2-2.1-4.3-4.4-6c-3.5-2.6-7.5-3.6-7.6-3.6
					c-0.9-0.2-1.5-1.2-1.3-2.1c0.2-0.9,1.2-1.5,2.1-1.3c0.2,0.1,4.8,1.2,8.8,4.2c2.9,2.2,4.8,4.8,5.7,7.8c0.2,0.9-0.3,1.8-1.2,2.1
					C110.7,44.3,110.5,44.3,110.4,44.3z"/>
			</g>
			<g>
				<path class="st5" d="M110.4,62.9c-0.9,0-1.7-0.8-1.7-1.7V22.2c0-0.9,0.8-1.7,1.7-1.7c0.9,0,1.7,0.8,1.7,1.7v39.1
					C112,62.2,111.3,62.9,110.4,62.9z"/>
			</g>
			<g>
				<path class="st5" d="M110.6,132.9c-0.3,0-0.6,0-0.9,0c-9.1-0.5-16.2-7.9-16.2-17s7.1-16.6,16.2-17c0.3,0,0.6,0,0.9,0
					c9.4,0,17.1,7.7,17.1,17.1S120,132.9,110.6,132.9z M110.6,102.3c-0.2,0-0.5,0-0.7,0c-7.3,0.4-12.9,6.3-12.9,13.6
					c0,7.3,5.7,13.3,12.9,13.6c0.2,0,0.5,0,0.7,0c7.5,0,13.6-6.1,13.6-13.6C124.2,108.4,118.1,102.3,110.6,102.3z"/>
			</g>
			<g>
				<path class="st5" d="M110.6,139.8c-0.9,0-1.7-0.8-1.7-1.7s0.8-1.7,1.7-1.7c11.3,0,20.4-9.2,20.4-20.4c0-0.9,0.8-1.7,1.7-1.7
					s1.7,0.8,1.7,1.7C134.5,129.1,123.7,139.8,110.6,139.8L110.6,139.8z"/>
			</g>
			<g>
				<path class="st5" d="M88.4,117.6c-0.9,0-1.7-0.8-1.7-1.7c0-13.2,10.7-23.9,23.9-23.9c0.9,0,1.7,0.8,1.7,1.7
					c0,0.9-0.8,1.7-1.7,1.7c-11.3,0-20.4,9.2-20.4,20.4C90.1,116.8,89.4,117.6,88.4,117.6L88.4,117.6z"/>
			</g>
			<g>
				<path class="st5" d="M56.1,63.1c-6.6,0-11.9-5.4-11.9-11.9s5.4-11.9,11.9-11.9S68,44.5,68,51.1S62.6,63.1,56.1,63.1z M56.1,42.6
					c-4.7,0-8.5,3.8-8.5,8.5s3.8,8.5,8.5,8.5s8.5-3.8,8.5-8.5S60.7,42.6,56.1,42.6z"/>
			</g>
			<g>
				<path class="st5" d="M170.2,98.9c-4.7,0-8.5-3.8-8.5-8.5c0-4.7,3.8-8.5,8.5-8.5c4.7,0,8.5,3.8,8.5,8.5
					C178.8,95.1,175,98.9,170.2,98.9z M170.2,85.2c-2.8,0-5.1,2.3-5.1,5.1s2.3,5.1,5.1,5.1c2.8,0,5.1-2.3,5.1-5.1
					C175.4,87.5,173.1,85.2,170.2,85.2z"/>
			</g>
			<g>
				<path class="st5" d="M163.4,150H79.9c-0.9,0-1.7-0.8-1.7-1.7s0.8-1.7,1.7-1.7h83.5c0.9,0,1.7,0.8,1.7,1.7S164.4,150,163.4,150z"
					/>
			</g>
		</g>
		<path class="st5" d="M112.7,114.7c-0.2-0.1-0.5-0.2-0.7-0.2v-4.3c0.5,0.2,0.8,0.4,0.9,0.4l0.9,0.9l1.7-1.8l-0.9-0.8
			c-0.1-0.1-1-0.9-2.5-1.2v-2h-2.5v2.1c-0.1,0-0.2,0-0.3,0.1c-1.5,0.4-2.7,1.7-2.9,3.4c-0.3,1.5,0.2,2.9,1.3,3.8
			c0.5,0.4,1.1,0.8,2,1.1v5.6c-0.6-0.1-1.1-0.3-1.8-0.8l-1-0.7l-1.3,2.1l1,0.7c1.2,0.8,2.1,1.1,3.2,1.2v2.1h2.5V124
			c2.1-0.6,3.6-2.4,3.9-4.2C116.2,117.5,115,115.5,112.7,114.7L112.7,114.7z M109,113c-0.3-0.2-0.5-0.8-0.3-1.3
			c0.1-0.4,0.3-1,0.8-1.3v3C109.4,113.2,109.2,113.1,109,113z M113.4,119.4c-0.1,0.8-0.6,1.6-1.4,2V117
			C113.5,117.6,113.5,119.1,113.4,119.4z"/>
	</g>
	<g>
		<g>
			<path class="st6" d="M8.7,104.3c0,2.1-1.7,3.7-3.7,3.7s-3.7-1.7-3.7-3.7c0-2,1.7-3.7,3.7-3.7S8.7,102.3,8.7,104.3L8.7,104.3z"/>
			<path class="st7" d="M28.7,87.1c0,2.1-1.7,3.7-3.7,3.7s-3.7-1.7-3.7-3.7c0-2,1.7-3.7,3.7-3.7S28.7,85,28.7,87.1z"/>
			<path class="st8" d="M48.8,99.3c0,2.1-1.7,3.7-3.7,3.7c-2,0-3.7-1.7-3.7-3.7c0-2,1.7-3.7,3.7-3.7S48.8,97.2,48.8,99.3L48.8,99.3z
				"/>
			<path class="st9" d="M68.8,79.9c0,2.1-1.7,3.7-3.7,3.7c-2,0-3.7-1.7-3.7-3.7c0-2,1.7-3.7,3.7-3.7C67.2,76.2,68.8,77.9,68.8,79.9z
				"/>
			<path class="st10" d="M8.7,104.2v0.1c0,2.1-1.7,3.7-3.7,3.7s-3.7-1.7-3.7-3.7c0-1.1,0.5-2.1,1.3-2.8c0.1,2,1.7,3.6,3.7,3.6
				C7.2,105.1,8,104.8,8.7,104.2z"/>
			<path class="st11" d="M28.7,86.9v0.1c0,2.1-1.7,3.7-3.7,3.7c-2.1,0-3.7-1.7-3.7-3.7c0-1.1,0.5-2.1,1.3-2.8c0.1,2,1.7,3.6,3.7,3.6
				C27.2,87.8,28.1,87.5,28.7,86.9L28.7,86.9z"/>
			<path class="st12" d="M48.8,99.1v0.2c0,2.1-1.7,3.7-3.7,3.7c-2.1,0-3.7-1.7-3.7-3.7c0-1.1,0.5-2.1,1.3-2.8c0.1,2,1.7,3.6,3.7,3.6
				C47.3,100.1,48.1,99.7,48.8,99.1L48.8,99.1z"/>
			<path class="st13" d="M68.8,79.8v0.1c0,2.1-1.6,3.7-3.7,3.7c-2,0-3.7-1.7-3.7-3.7c0-1.1,0.5-2.1,1.3-2.8c0.1,2,1.7,3.6,3.7,3.6
				C67.3,80.7,68.2,80.4,68.8,79.8z"/>
			<path class="st5" d="M5,109.3c2.7,0,4.9-2.2,4.9-5c0-0.8-0.2-1.6-0.6-2.2l12.6-11.2c0.9,0.7,1.9,1.2,3.1,1.2
				c1.4,0,2.7-0.6,3.6-1.6l11.6,7.8c-0.1,0.3-0.1,0.7-0.1,1.1c0,2.7,2.2,5,5,5c2.7,0,4.9-2.2,4.9-5c0-0.7-0.2-1.4-0.5-2.1l13-13.1
				c0.8,0.5,1.6,0.8,2.6,0.8c2.7,0,4.9-2.2,4.9-5c0-2.7-2.2-4.9-4.9-4.9c-2.7,0-5,2.2-5,4.9c0,0.9,0.2,1.7,0.7,2.4L48,95.3
				c-0.8-0.6-1.8-1-2.9-1c-1.5,0-2.8,0.7-3.7,1.7l-11.6-7.8c0.1-0.4,0.1-0.7,0.1-1.1c0-2.7-2.2-4.9-4.9-4.9c-2.7,0-5,2.2-5,4.9
				c0,0.6,0.1,1.3,0.4,1.8L7.7,100.3C6.9,99.7,6,99.4,5,99.4c-2.7,0-5,2.2-5,4.9C0,107.1,2.2,109.3,5,109.3z M65.1,77.5
				c1.4,0,2.5,1.1,2.5,2.5s-1.1,2.5-2.5,2.5c-1.4,0-2.5-1.1-2.5-2.5S63.7,77.5,65.1,77.5z M45.1,96.8c1.4,0,2.5,1.1,2.5,2.5
				s-1.1,2.5-2.5,2.5c-1.4,0-2.5-1.1-2.5-2.5C42.6,97.9,43.7,96.8,45.1,96.8L45.1,96.8z M25,84.6c1.4,0,2.5,1.1,2.5,2.5
				c0,1.4-1.1,2.5-2.5,2.5c-1.4,0-2.5-1.1-2.5-2.5C22.5,85.7,23.6,84.6,25,84.6L25,84.6z M5,101.9c1.4,0,2.5,1.1,2.5,2.5
				s-1.1,2.5-2.5,2.5s-2.5-1.1-2.5-2.5C2.5,103,3.6,101.9,5,101.9L5,101.9z"/>
		</g>
		<g>
			<path class="st14" d="M2.2,130.6h12.9V149H2.2L2.2,130.6z"/>
			<path class="st15" d="M15.1,150H2.2c-0.6,0-1-0.5-1-1v-18.4c0-0.6,0.5-1,1-1h12.9c0.6,0,1,0.5,1,1V149
				C16.1,149.5,15.7,150,15.1,150z M3.2,148h10.8v-16.4H3.2L3.2,148z"/>
			<path class="st16" d="M20.1,111.9H33V149H20.1V111.9z"/>
			<path class="st15" d="M33,150H20.1c-0.6,0-1-0.5-1-1v-37.1c0-0.6,0.5-1,1-1H33c0.6,0,1,0.5,1,1V149C34,149.5,33.5,150,33,150z
				 M21.1,148H32v-35.1H21.1V148z"/>
			<path class="st17" d="M38,121.3h12.9V149H38V121.3z"/>
			<path class="st15" d="M50.8,150H38c-0.6,0-1-0.5-1-1v-27.7c0-0.6,0.5-1,1-1h12.9c0.6,0,1,0.5,1,1V149
				C51.9,149.5,51.4,150,50.8,150z M39,148h10.8v-25.6H39V148z"/>
			<path class="st18" d="M55.8,104.6h12.9V149H55.8V104.6z"/>
			<path class="st15" d="M68.7,150H55.8c-0.6,0-1-0.5-1-1v-44.4c0-0.6,0.5-1,1-1h12.9c0.6,0,1,0.5,1,1V149
				C69.7,149.5,69.3,150,68.7,150L68.7,150z M56.9,148h10.8v-42.3H56.9V148z"/>
		</g>
	</g>
</g>
</svg>
