<svg width="399" height="432" viewBox="0 0 399 432" fill="none" xmlns="http://www.w3.org/2000/svg">
<path d="M91.5666 106.232C90.9757 106.201 90.3986 106.042 89.8751 105.766C89.3516 105.49 88.894 105.105 88.5339 104.635C73.5376 85.1507 55.5573 68.153 35.2568 54.2696C34.7677 53.9347 34.3572 53.4977 34.0535 52.9889C33.7499 52.4801 33.5603 51.9115 33.498 51.3223C33.4357 50.7332 33.502 50.1376 33.6924 49.5766C33.8829 49.0155 34.1929 48.5025 34.6011 48.0728L59.1905 22.1391C59.5734 21.7341 60.0351 21.4114 60.5471 21.1908C61.0592 20.9702 61.6109 20.8563 62.1686 20.8561C62.9981 20.8568 63.8079 21.1091 64.4909 21.5795C85.5066 35.9496 104.123 53.5412 119.653 73.7062C120.247 74.4789 120.546 75.4381 120.496 76.4113C120.446 77.3845 120.05 78.308 119.38 79.0157L94.7906 104.949C94.4092 105.353 93.9498 105.674 93.4402 105.895C92.9306 106.116 92.3815 106.23 91.8262 106.232H91.5666Z" fill="#7DDF96"/>
<path d="M62.2368 24.91C82.8712 39.0493 101.15 56.3453 116.402 76.1631L91.8125 102.097C76.5453 82.2945 58.258 65.013 37.6201 50.8846L62.2095 24.9509L62.2368 24.91ZM62.2095 16.7613C61.0965 16.7635 59.9957 16.9922 58.974 17.4334C57.9523 17.8745 57.0313 18.519 56.2671 19.3274L31.6776 45.2611C30.8664 46.1239 30.2521 47.1522 29.877 48.2752C29.5018 49.3981 29.3748 50.5889 29.5046 51.7656C29.6345 52.9423 30.0181 54.0769 30.6291 55.0912C31.2401 56.1055 32.0639 56.9754 33.0437 57.641C52.946 71.2999 70.5743 88.0014 85.2826 107.133C86.0057 108.071 86.9236 108.841 87.973 109.39C89.0225 109.939 90.1786 110.254 91.3617 110.314H91.7851C92.8922 110.322 93.9895 110.106 95.0108 109.679C96.0322 109.252 96.9563 108.623 97.7276 107.829L110.514 94.3439L122.344 81.8548C123.689 80.4384 124.483 78.5888 124.583 76.6392C124.683 74.6897 124.083 72.7686 122.891 71.222C107.134 50.7061 88.2418 32.7973 66.9088 18.1536C65.5383 17.2237 63.9208 16.7246 62.2642 16.7204L62.2095 16.7613Z" fill="#515979"/>
<path d="M68.753 52.2222C70.6739 50.0836 73.0821 48.4387 75.7738 47.4266C78.4655 46.4145 81.3616 46.065 84.217 46.4076C78.7527 41.5575 73.1154 36.9577 67.305 32.6082C66.1565 33.7504 64.6448 34.456 63.031 34.603C61.4172 34.75 59.8027 34.3293 58.4664 33.4135L46.5815 45.9435C47.2007 46.3568 47.7203 46.9024 48.1027 47.5409C48.4851 48.1793 48.7207 48.8946 48.7926 49.6352C48.8645 50.3757 48.7709 51.123 48.5184 51.823C48.266 52.523 47.861 53.1581 47.3329 53.6827C53.1797 58.0231 58.8171 62.6229 64.2449 67.4821C63.6365 64.7654 63.7311 61.9385 64.5199 59.2685C65.3087 56.5984 66.7656 54.1733 68.753 52.2222ZM57.2643 49.4923C56.7766 49.1051 56.3782 48.6173 56.0964 48.0622C55.8146 47.5072 55.656 46.8979 55.6313 46.2759C55.6067 45.654 55.7166 45.0341 55.9537 44.4585C56.1907 43.8829 56.5492 43.3652 57.0047 42.9407C57.914 41.9489 59.1504 41.3175 60.4875 41.1621C61.8247 41.0067 63.1731 41.3377 64.2859 42.0944C64.7716 42.4921 65.1665 42.9892 65.4439 43.5521C65.7213 44.115 65.8749 44.7307 65.8943 45.3578C65.9137 45.985 65.7985 46.609 65.5564 47.188C65.3144 47.7669 64.951 48.2874 64.4908 48.7143C63.5913 49.7068 62.3582 50.3345 61.0258 50.4779C59.6934 50.6213 58.3547 50.2706 57.2643 49.4923Z" fill="#00C853"/>
<path d="M108.41 71.5223C103.757 65.9261 98.8524 60.5528 93.6977 55.4025C94.1979 58.2307 94.0111 61.1375 93.1529 63.8785C92.2947 66.6196 90.7903 69.1146 88.7661 71.1537C86.9174 73.238 84.5674 74.8169 81.938 75.7412C79.3087 76.6655 76.4869 76.9046 73.7393 76.436C78.8939 81.5773 83.7982 86.9505 88.4519 92.5558C88.9486 92.0005 89.5624 91.5621 90.249 91.2723C90.9356 90.9824 91.6781 90.8483 92.4228 90.8796C93.1675 90.911 93.8961 91.1069 94.5559 91.4534C95.2157 91.7999 95.7904 92.2883 96.2386 92.8834L108.11 80.3534C107.129 79.0741 106.623 77.4945 106.678 75.8841C106.733 74.2736 107.345 72.732 108.41 71.5223ZM92.0994 82.4417C91.265 81.395 90.8444 80.0786 90.9174 78.7425C90.9905 77.4064 91.5521 76.1436 92.4955 75.1939C92.8983 74.712 93.4 74.3221 93.9667 74.0508C94.5334 73.7795 95.1519 73.6331 95.7802 73.6214C96.4085 73.6098 97.032 73.7332 97.6084 73.9833C98.1848 74.2334 98.7006 74.6044 99.121 75.0711C99.9365 76.1419 100.34 77.4699 100.257 78.8128C100.174 80.1558 99.611 81.4244 98.6702 82.3871C98.2686 82.8644 97.7685 83.2493 97.2042 83.5155C96.6398 83.7817 96.0245 83.9229 95.4005 83.9294C94.7764 83.9359 94.1583 83.8075 93.5886 83.5531C93.0188 83.2987 92.5108 82.9242 92.0994 82.4554V82.4417Z" fill="#00C853"/>
<path d="M79.2035 64.8614C79.8183 64.2062 79.3948 63.3873 78.2336 62.036C76.2391 59.6747 74.8184 57.5863 77.2227 54.7882C78.8347 53.0821 81.0751 52.9046 83.411 54.4879L84.5312 53.2322L86.9765 55.5526L85.788 56.7947C86.3136 57.4646 86.6596 58.2573 86.7935 59.0979C86.9273 59.9386 86.8446 60.7994 86.553 61.5992C86.5473 61.6678 86.5237 61.7336 86.4847 61.7903C86.4847 61.9678 86.3754 62.1452 86.3071 62.309L82.9602 61.0942L83.1652 60.3844C83.3265 59.9407 83.3406 59.4569 83.2053 59.0045C83.07 58.5522 82.7924 58.1554 82.4138 57.873C81.2526 56.781 80.5286 56.5763 79.8729 57.2724C79.2172 57.9685 79.7773 58.7329 80.9111 60.0023C82.8373 62.268 84.2853 64.6567 81.7718 67.3046C80.1325 69.0381 77.8784 69.12 75.5288 67.564L74.2993 68.9289L71.854 66.6085L73.0562 65.3391C72.4102 64.6409 71.977 63.7729 71.8076 62.8372C71.6382 61.9015 71.7396 60.937 72.0999 60.0569L72.3868 59.4017L75.6927 60.7666C75.5971 60.985 75.5151 61.2034 75.4331 61.4218C75.2519 61.9089 75.2395 62.4427 75.398 62.9377C75.5565 63.4327 75.8768 63.8602 76.3074 64.1516C77.5369 65.2982 78.4795 65.5166 79.2035 64.8614Z" fill="#00C853"/>
<path d="M28.8772 297.131H28.4674C27.8761 297.072 27.3046 296.886 26.7928 296.584C26.2809 296.282 25.8408 295.873 25.503 295.384L4.80691 265.574C4.25325 264.774 4.00281 263.803 4.10043 262.835C4.19806 261.867 4.63736 260.966 5.33968 260.292C23.9578 242.451 45.2755 227.655 68.5072 216.45C69.0661 216.185 69.678 216.05 70.2968 216.055C70.9575 216.056 71.6081 216.216 72.1933 216.523C72.7784 216.83 73.2807 217.273 73.6573 217.815L94.3671 247.612C94.7043 248.098 94.9321 248.651 95.0349 249.234C95.1376 249.816 95.1128 250.414 94.9623 250.986C94.8117 251.558 94.5388 252.091 94.1625 252.547C93.7862 253.004 93.3154 253.374 92.7824 253.631C70.3234 264.439 49.711 278.719 31.705 295.944C30.9518 296.691 29.9381 297.116 28.8772 297.131Z" fill="#7DDF96"/>
<path d="M70.2967 220.149L91.0064 249.946C68.1614 260.962 47.1949 275.504 28.8772 293.037C21.9648 283.109 15.0615 273.177 8.1674 263.24C26.4876 245.71 47.4536 231.169 70.2967 220.149ZM70.2967 211.96C69.063 211.959 67.8448 212.235 66.7312 212.765C43.1178 224.156 21.4498 239.195 2.52549 257.33C1.11735 258.678 0.236517 260.484 0.0412152 262.423C-0.154087 264.362 0.348947 266.307 1.45995 267.908L22.1697 297.705C22.8452 298.677 23.7238 299.492 24.745 300.093C25.7662 300.694 26.9057 301.067 28.0848 301.185C28.358 301.185 28.6313 301.185 28.9045 301.185C31.0063 301.181 33.0261 300.369 34.5464 298.919C52.238 281.98 72.4902 267.931 94.5582 257.289C95.6262 256.774 96.5698 256.035 97.3238 255.12C98.0778 254.206 98.6243 253.139 98.9256 251.993C99.2269 250.848 99.2758 249.65 99.069 248.484C98.8621 247.317 98.4045 246.209 97.7275 245.237L91.4026 236.133L77.0314 215.468C76.2754 214.383 75.268 213.498 74.0952 212.887C72.9225 212.276 71.6192 211.958 70.2967 211.96Z" fill="#515979"/>
<path d="M36.6365 262.435C34.9213 260.083 33.7976 257.354 33.3601 254.477C32.9227 251.6 33.1843 248.66 34.1229 245.906C28.1668 250.273 22.4247 254.91 16.8966 259.814C17.794 261.191 18.1827 262.837 17.9956 264.469C17.8086 266.101 17.0576 267.616 15.8721 268.755L25.8581 283.127C26.3967 282.597 27.0468 282.194 27.761 281.947C28.4753 281.7 29.2357 281.615 29.9869 281.699C30.7381 281.783 31.4612 282.033 32.1034 282.431C32.7456 282.829 33.2909 283.365 33.6994 284.001C39.2366 279.087 44.9741 274.446 50.912 270.079C48.0777 270.126 45.2782 269.449 42.7797 268.111C40.2811 266.773 38.1664 264.819 36.6365 262.435ZM31.5547 273.272C31.0679 273.676 30.4998 273.97 29.8891 274.134C29.2784 274.298 28.6394 274.329 28.0157 274.224C27.3921 274.119 26.7984 273.881 26.2752 273.526C25.7519 273.171 25.3115 272.707 24.9838 272.167C24.195 271.061 23.8287 269.71 23.9515 268.358C24.0744 267.005 24.6781 265.742 25.6532 264.796C26.1499 264.397 26.7263 264.109 27.3437 263.951C27.9611 263.793 28.6052 263.768 29.2328 263.879C29.8604 263.991 30.4569 264.235 30.9822 264.595C31.5076 264.956 31.9496 265.425 32.2787 265.97C33.0558 267.071 33.4103 268.415 33.2774 269.756C33.1444 271.097 32.5329 272.345 31.5547 273.272Z" fill="#00C853"/>
<path d="M64.0401 227.111C57.5102 230.577 51.1352 234.331 44.915 238.371C47.8314 238.459 50.6834 239.25 53.2284 240.676C55.7733 242.101 57.9358 244.12 59.532 246.561C61.2325 248.824 62.3259 251.485 62.7084 254.289C63.091 257.094 62.7499 259.949 61.7178 262.585C67.8924 258.545 74.2447 254.791 80.7746 251.324C80.325 250.718 80.016 250.019 79.87 249.279C79.7239 248.538 79.7445 247.774 79.9301 247.043C80.1158 246.311 80.4619 245.63 80.9435 245.049C81.425 244.467 82.0299 244 82.7144 243.681L72.783 229.308C71.2978 230.017 69.6113 230.186 68.015 229.784C66.4186 229.383 65.0127 228.437 64.0401 227.111ZM71.5262 245.537C70.3109 246.139 68.9181 246.28 67.6066 245.934C66.2951 245.587 65.154 244.777 64.3953 243.653C64 243.155 63.7159 242.578 63.5621 241.96C63.4083 241.343 63.3883 240.7 63.5034 240.075C63.6185 239.449 63.8661 238.855 64.2296 238.333C64.5931 237.811 65.0641 237.373 65.6111 237.047C66.8434 236.459 68.2465 236.334 69.5635 236.695C70.8805 237.056 72.0234 237.879 72.783 239.013C73.1775 239.506 73.4603 240.079 73.6117 240.692C73.7632 241.306 73.7798 241.944 73.6603 242.564C73.5408 243.185 73.2882 243.772 72.9197 244.285C72.5513 244.798 72.0759 245.225 71.5262 245.537Z" fill="#00C853"/>
<path d="M51.3492 254.764C50.8301 254.013 49.9831 254.273 48.3438 255.146C45.6116 256.62 43.2073 257.603 40.926 254.641C39.5599 252.689 39.8604 250.437 41.9096 248.431L40.9533 247.052C41.8822 246.397 42.8248 245.687 43.7674 245.114L44.7647 246.547C45.5387 246.162 46.3989 245.982 47.2626 246.025C48.1263 246.068 48.9643 246.333 49.6962 246.793L49.8738 246.888L50.3383 247.175C49.7099 248.185 49.0678 249.209 48.4394 250.246L47.7837 249.782C47.3765 249.531 46.8996 249.417 46.4227 249.456C45.9458 249.495 45.494 249.686 45.1335 250C43.7674 250.929 43.4532 251.611 43.9997 252.403C44.5461 253.194 45.3657 252.798 46.9777 251.952C49.6279 250.505 52.3054 249.564 54.4228 252.607C55.7889 254.6 55.4201 256.839 53.3846 258.859L54.4228 260.347C53.4802 260.988 52.5513 261.643 51.6907 262.298L50.5159 260.893C49.6859 261.392 48.7302 261.643 47.7617 261.617C46.7933 261.59 45.8527 261.287 45.0515 260.742L44.4641 260.319C45.1608 259.323 45.8302 258.326 46.5542 257.344L47.1416 257.726C47.5845 257.988 48.1002 258.101 48.6122 258.047C49.1242 257.992 49.605 257.775 49.9831 257.426C51.4585 256.429 51.8819 255.556 51.3492 254.764Z" fill="#00C853"/>
<path d="M113.888 361.215C113.184 361.216 112.491 361.033 111.88 360.682L80.2008 342.938C79.3478 342.462 78.6932 341.697 78.355 340.781C78.0169 339.865 78.0174 338.858 78.3566 337.943C87.2864 313.763 99.9684 291.138 115.937 270.897C116.542 270.129 117.402 269.602 118.361 269.412C119.321 269.222 120.317 269.381 121.169 269.86L152.835 287.604C153.353 287.893 153.802 288.291 154.151 288.771C154.5 289.25 154.741 289.8 154.856 290.381C154.972 290.963 154.96 291.562 154.821 292.138C154.682 292.715 154.419 293.254 154.051 293.719C138.611 313.281 126.353 335.151 117.727 358.526C117.522 359.083 117.198 359.588 116.779 360.008C116.359 360.427 115.853 360.751 115.295 360.955C114.845 361.124 114.369 361.211 113.888 361.215Z" fill="#7DDF96"/>
<path d="M119.161 273.45L150.841 291.194C135.152 311.1 122.705 333.353 113.956 357.134L82.2771 339.39C91.058 315.61 103.528 293.358 119.23 273.45H119.161ZM119.23 265.26C117.99 265.261 116.768 265.543 115.653 266.085C114.539 266.626 113.562 267.413 112.795 268.386C96.5329 288.954 83.6237 311.959 74.5451 336.551C73.8705 338.38 73.8714 340.39 74.5475 342.219C75.2236 344.048 76.5306 345.576 78.2335 346.528L109.899 364.272C111.126 364.961 112.509 365.323 113.916 365.323C115.585 365.311 117.211 364.789 118.576 363.828C119.94 362.867 120.979 361.512 121.552 359.945C130.036 336.951 142.091 315.436 157.275 296.19C158.008 295.26 158.532 294.182 158.808 293.031C159.085 291.88 159.109 290.683 158.877 289.522C158.646 288.36 158.166 287.263 157.47 286.305C156.773 285.348 155.877 284.552 154.843 283.974L137.781 274.419L123.164 266.229C121.943 265.539 120.564 265.177 119.161 265.178L119.23 265.26Z" fill="#515979"/>
<path d="M107.454 326.218C104.873 324.859 102.657 322.899 100.993 320.505C99.3283 318.11 98.2647 315.351 97.8916 312.46C94.4582 318.993 91.3344 325.677 88.5203 332.51C89.9247 333.358 90.9901 334.667 91.5336 336.214C92.077 337.761 92.0645 339.448 91.4983 340.987L106.785 349.531C107.037 348.819 107.445 348.173 107.978 347.638C108.511 347.103 109.157 346.693 109.868 346.438C110.58 346.184 111.339 346.09 112.091 346.165C112.843 346.239 113.569 346.48 114.216 346.869C117.039 340.045 120.168 333.366 123.601 326.832C121.078 328.105 118.273 328.717 115.448 328.609C112.624 328.502 109.873 327.679 107.454 326.218ZM107.618 338.175C107.36 338.752 106.981 339.266 106.506 339.683C106.03 340.099 105.471 340.408 104.865 340.588C104.259 340.769 103.621 340.816 102.995 340.727C102.369 340.637 101.77 340.414 101.238 340.072C100.038 339.422 99.1114 338.363 98.6252 337.089C98.139 335.814 98.1259 334.408 98.5883 333.125C98.8603 332.548 99.2523 332.037 99.738 331.624C100.224 331.211 100.792 330.907 101.405 330.731C102.018 330.555 102.661 330.512 103.292 330.605C103.923 330.698 104.527 330.924 105.063 331.268C106.252 331.913 107.167 332.968 107.636 334.235C108.106 335.503 108.1 336.898 107.618 338.161V338.175Z" fill="#00C853"/>
<path d="M116.593 282.458C112.24 288.428 108.169 294.579 104.38 300.912C107.039 299.719 109.946 299.181 112.856 299.345C115.766 299.509 118.594 300.37 121.101 301.854C123.618 303.149 125.764 305.062 127.337 307.414C128.909 309.766 129.857 312.48 130.09 315.299C133.879 308.929 137.945 302.773 142.289 296.831C141.618 296.485 141.033 295.993 140.576 295.393C140.119 294.792 139.802 294.097 139.647 293.358C139.493 292.62 139.505 291.856 139.683 291.123C139.862 290.389 140.201 289.705 140.677 289.119L125.391 280.561C124.376 281.852 122.941 282.749 121.334 283.095C119.728 283.442 118.051 283.216 116.593 282.458ZM131.401 295.753C130.564 296.813 129.372 297.536 128.044 297.786C126.716 298.037 125.341 297.8 124.175 297.118C123.611 296.843 123.112 296.452 122.71 295.971C122.308 295.49 122.013 294.93 121.842 294.327C121.672 293.724 121.631 293.092 121.723 292.472C121.814 291.852 122.035 291.258 122.372 290.73C123.227 289.648 124.447 288.914 125.803 288.663C127.16 288.412 128.562 288.661 129.748 289.365C130.306 289.647 130.797 290.044 131.188 290.531C131.58 291.017 131.863 291.581 132.02 292.186C132.176 292.79 132.202 293.421 132.095 294.036C131.989 294.651 131.752 295.236 131.401 295.753Z" fill="#00C853"/>
<path d="M117.304 312.869C116.511 312.419 115.815 313.046 114.776 314.521C112.932 317.059 111.238 318.984 107.946 317.25C105.87 316.09 105.214 313.934 106.102 311.245L104.585 310.385C105.132 309.388 105.692 308.406 106.252 307.409L107.768 308.269C108.297 307.583 108.993 307.044 109.789 306.702C110.585 306.361 111.456 306.228 112.317 306.317H112.522H113.069L112.7 309.907H111.962C111.486 309.861 111.008 309.969 110.597 310.215C110.186 310.46 109.865 310.831 109.681 311.272C108.889 312.637 108.861 313.442 109.681 313.92C110.501 314.398 111.143 313.647 112.167 312.214C113.916 309.743 115.91 307.737 119.134 309.484C121.252 310.671 121.866 312.855 120.951 315.558L122.536 316.445C121.976 317.428 121.416 318.424 120.869 319.421L119.325 318.561C118.793 319.369 118.041 320.008 117.158 320.405C116.275 320.801 115.297 320.938 114.339 320.799L113.629 320.69C113.82 319.489 113.998 318.288 114.203 317.1L114.899 317.182C115.413 317.228 115.927 317.104 116.363 316.831C116.8 316.557 117.135 316.148 117.317 315.667C118.137 314.316 118.164 313.347 117.304 312.869Z" fill="#00C853"/>
<path d="M276.206 90.9316C275.152 90.9311 274.14 90.5254 273.378 89.7987L247.422 65.1344C246.716 64.4642 246.271 63.5643 246.169 62.5963C246.066 61.6283 246.312 60.6554 246.862 59.8521C261.308 38.9161 278.964 20.3852 299.183 4.94105C299.904 4.38837 300.788 4.09068 301.697 4.0948C302.75 4.09532 303.763 4.50102 304.525 5.22769L330.48 29.892C330.908 30.2995 331.243 30.7947 331.461 31.3437C331.68 31.8928 331.777 32.4825 331.746 33.0725C331.715 33.6625 331.556 34.2388 331.281 34.7618C331.006 35.2848 330.621 35.7421 330.152 36.1024C310.619 51.0249 293.562 68.9294 279.607 89.1572C279.271 89.6441 278.833 90.0524 278.324 90.354C277.814 90.6556 277.245 90.8433 276.656 90.9043C276.507 90.9282 276.356 90.9374 276.206 90.9316Z" fill="#7DDF96"/>
<path d="M301.697 8.18957L327.652 32.8538C307.776 48.037 290.419 66.2547 276.219 86.8368L250.264 62.1725C264.468 41.5936 281.824 23.3765 301.697 8.18957ZM301.697 1.34232e-08C299.9 -0.000102744 298.153 0.589775 296.724 1.67886C276.162 17.3836 258.206 36.2278 243.516 57.5181C242.406 59.1255 241.908 61.0761 242.11 63.0183C242.313 64.9604 243.204 66.7662 244.622 68.11L270.578 92.7742C272.103 94.2226 274.128 95.029 276.233 95.0264H277.08C278.26 94.8911 279.397 94.5013 280.411 93.8838C281.425 93.2663 282.293 92.436 282.954 91.4502C296.663 71.5881 313.421 54.0103 332.611 39.3646C333.554 38.6452 334.329 37.73 334.884 36.6821C335.438 35.6341 335.758 34.4784 335.822 33.2949C335.885 32.1113 335.691 30.928 335.252 29.8267C334.814 28.7255 334.141 27.7325 333.281 26.9164L330.016 23.818L307.339 2.25213C305.816 0.807018 303.797 0.000872063 301.697 1.34232e-08V1.34232e-08Z" fill="#515979"/>
<path d="M277.613 55.7437C275.474 53.8182 273.831 51.4062 272.823 48.712C271.815 46.0178 271.471 43.1205 271.821 40.2654C266.948 45.6705 262.327 51.294 257.955 57.1359C259.099 58.2841 259.803 59.7968 259.946 61.4105C260.088 63.0243 259.659 64.6367 258.734 65.967L271.247 77.8692C271.661 77.2504 272.208 76.7316 272.849 76.3506C273.489 75.9696 274.206 75.736 274.948 75.6667C275.69 75.5974 276.438 75.6942 277.137 75.9501C277.837 76.2059 278.471 76.6144 278.993 77.1458C283.364 71.3039 287.986 65.6849 292.858 60.2889C290.14 60.879 287.316 60.7717 284.65 59.9769C281.984 59.1821 279.563 57.7258 277.613 55.7437ZM274.881 67.2091C274.494 67.6975 274.005 68.0963 273.449 68.378C272.893 68.6597 272.282 68.8176 271.659 68.841C271.036 68.8643 270.415 68.7525 269.839 68.5132C269.263 68.2739 268.746 67.9128 268.324 67.4548C267.335 66.5407 266.707 65.3024 266.554 63.9649C266.401 62.6274 266.733 61.2795 267.49 60.1661C267.89 59.6803 268.39 59.286 268.956 59.0098C269.522 58.7336 270.14 58.582 270.769 58.5651C271.399 58.5483 272.024 58.6667 272.604 58.9123C273.184 59.1579 273.704 59.5249 274.129 59.9886C275.114 60.8946 275.732 62.1303 275.866 63.4613C275.999 64.7923 275.639 66.1259 274.853 67.2091H274.881Z" fill="#00C853"/>
<path d="M297.039 16.1607C291.42 20.8015 286.028 25.6879 280.864 30.8201C283.697 30.3295 286.606 30.5259 289.347 31.3929C292.088 32.2599 294.581 33.772 296.615 35.8021C298.698 37.6517 300.278 39.9996 301.205 42.6257C302.132 45.2517 302.376 48.07 301.916 50.8163C307.07 45.6841 312.457 40.7932 318.076 36.1433C317.52 35.6477 317.081 35.0344 316.792 34.3481C316.503 33.6617 316.37 32.9196 316.404 32.1756C316.438 31.4317 316.638 30.7047 316.989 30.0476C317.339 29.3904 317.832 28.8197 318.431 28.3769L305.973 16.502C304.68 17.5012 303.077 18.0145 301.444 17.9521C299.811 17.8897 298.251 17.2556 297.039 16.1607ZM307.967 32.5399C306.92 33.3735 305.602 33.7938 304.265 33.7208C302.928 33.6478 301.664 33.0867 300.713 32.1441C300.23 31.7413 299.838 31.2396 299.566 30.6728C299.293 30.106 299.145 29.4872 299.132 28.8584C299.119 28.2295 299.241 27.6053 299.491 27.0277C299.74 26.4501 300.11 25.9327 300.577 25.5105C301.653 24.702 302.983 24.3056 304.327 24.3932C305.67 24.4809 306.937 25.0468 307.899 25.9882C308.363 26.3901 308.736 26.8863 308.993 27.4438C309.25 28.0012 309.385 28.607 309.389 29.2207C309.393 29.8343 309.265 30.4418 309.016 31.0024C308.766 31.563 308.399 32.0639 307.94 32.4716L307.967 32.5399Z" fill="#00C853"/>
<path d="M290.29 45.3975C289.648 44.7833 288.815 45.2064 287.462 46.3666C285.085 48.3458 282.995 49.7516 280.208 47.3494C278.501 45.7251 278.337 43.5003 279.921 41.1662L278.665 39.9787C279.443 39.1598 280.208 38.3408 280.987 37.5355L282.244 38.723C282.914 38.1966 283.708 37.8511 284.55 37.7197C285.392 37.5882 286.254 37.6752 287.052 37.9723C287.119 37.9868 287.183 38.0097 287.244 38.0405L287.763 38.218C287.339 39.3236 286.929 40.4428 286.533 41.5621L285.823 41.3573C285.38 41.1968 284.897 41.1818 284.445 41.3143C283.993 41.4469 283.595 41.7202 283.309 42.0944C282.216 43.2546 281.943 43.978 282.695 44.6468C283.446 45.3156 284.17 44.7287 285.427 43.6095C287.708 41.6849 290.099 40.2517 292.735 42.7632C294.484 44.4148 294.552 46.6532 292.995 49.0009L294.361 50.243C293.582 51.0483 292.803 51.8536 292.038 52.6726L290.768 51.4714C290.067 52.118 289.194 52.5492 288.254 52.7138C287.315 52.8784 286.347 52.7693 285.468 52.3996L284.812 52.1266L286.178 48.8235L286.847 49.1374C287.334 49.3175 287.866 49.3307 288.361 49.175C288.856 49.0193 289.284 48.7035 289.58 48.2775C290.727 46.9945 290.946 46.0527 290.29 45.3975Z" fill="#00C853"/>
<path d="M347.433 322.942C346.846 322.951 346.265 322.833 345.727 322.598C345.19 322.362 344.71 322.014 344.318 321.577C328.149 302.604 309.086 286.297 287.831 273.259C287.328 272.949 286.897 272.534 286.57 272.042C286.242 271.551 286.025 270.994 285.932 270.41C285.84 269.827 285.876 269.23 286.036 268.662C286.196 268.093 286.478 267.566 286.861 267.117L310.467 239.559C311.101 238.817 311.979 238.325 312.943 238.173C313.907 238.02 314.894 238.216 315.726 238.726C337.712 252.213 357.435 269.076 374.167 288.696C374.802 289.438 375.151 290.382 375.151 291.358C375.151 292.334 374.802 293.278 374.167 294.019L350.561 321.577C350.17 322.014 349.69 322.362 349.153 322.598C348.615 322.833 348.034 322.951 347.447 322.942H347.433Z" fill="#7DDF96"/>
<path d="M313.582 242.152C335.195 255.418 354.585 272 371.039 291.289L347.433 318.847C330.979 299.558 311.589 282.976 289.976 269.71L313.582 242.152ZM313.582 233.962C312.398 233.962 311.228 234.219 310.153 234.713C309.077 235.208 308.122 235.93 307.352 236.829L283.747 264.387C282.98 265.286 282.417 266.34 282.096 267.477C281.775 268.615 281.705 269.808 281.889 270.975C282.073 272.142 282.508 273.255 283.164 274.238C283.819 275.222 284.68 276.051 285.686 276.671C306.572 289.484 325.308 305.505 341.204 324.143C341.972 325.045 342.927 325.769 344.002 326.266C345.078 326.763 346.248 327.022 347.433 327.023C348.617 327.023 349.787 326.767 350.862 326.272C351.938 325.778 352.893 325.056 353.662 324.157L363.799 312.323L377.268 296.599C378.535 295.117 379.23 293.232 379.23 291.283C379.23 289.334 378.535 287.449 377.268 285.966C360.262 266.011 340.212 248.862 317.858 235.15C316.566 234.362 315.081 233.946 313.568 233.949L313.582 233.962Z" fill="#515979"/>
<path d="M321.573 269.464C323.413 267.207 325.771 265.425 328.446 264.27C331.121 263.116 334.035 262.622 336.942 262.831C331.204 258.19 325.257 253.818 319.101 249.714C317.995 250.927 316.5 251.716 314.874 251.946C313.248 252.175 311.592 251.83 310.194 250.97L298.801 264.264C299.45 264.651 300.005 265.178 300.425 265.806C300.845 266.434 301.12 267.148 301.23 267.895C301.34 268.643 301.282 269.405 301.06 270.128C300.838 270.85 300.459 271.514 299.948 272.071C306.096 276.166 312.015 280.538 317.707 285.188C316.96 282.455 316.922 279.577 317.599 276.825C318.275 274.074 319.643 271.54 321.573 269.464ZM309.798 267.294C309.283 266.928 308.854 266.455 308.54 265.907C308.225 265.36 308.033 264.751 307.976 264.122C307.919 263.493 307.998 262.86 308.209 262.265C308.42 261.67 308.757 261.127 309.197 260.674C310.069 259.625 311.289 258.923 312.634 258.695C313.98 258.468 315.363 258.729 316.532 259.432C317.045 259.811 317.471 260.295 317.781 260.851C318.091 261.408 318.278 262.024 318.33 262.659C318.381 263.294 318.297 263.932 318.081 264.532C317.865 265.131 317.523 265.677 317.079 266.134C316.211 267.175 314.995 267.867 313.656 268.08C312.317 268.293 310.946 268.014 309.798 267.294Z" fill="#00C853"/>
<path d="M362.72 287.004C357.702 281.544 352.46 276.353 346.996 271.43C347.651 274.262 347.616 277.21 346.896 280.027C346.176 282.843 344.791 285.446 342.857 287.618C341.086 289.841 338.776 291.574 336.146 292.654C333.516 293.734 330.653 294.124 327.83 293.787C333.294 298.728 338.536 303.92 343.554 309.361C344.026 308.772 344.625 308.295 345.305 307.965C345.985 307.635 346.73 307.461 347.485 307.454C348.241 307.448 348.989 307.609 349.675 307.927C350.36 308.245 350.967 308.712 351.45 309.293L362.843 295.998C361.773 294.75 361.175 293.167 361.153 291.523C361.13 289.88 361.685 288.281 362.72 287.004ZM346.764 298.919C345.87 297.899 345.378 296.59 345.378 295.234C345.378 293.878 345.87 292.569 346.764 291.549C347.148 291.04 347.637 290.619 348.197 290.314C348.758 290.01 349.377 289.828 350.013 289.781C350.649 289.735 351.288 289.824 351.887 290.045C352.486 290.265 353.031 290.61 353.485 291.057C354.364 292.1 354.838 293.424 354.82 294.788C354.803 296.151 354.295 297.463 353.389 298.483C353.01 298.985 352.527 299.4 351.972 299.7C351.418 299.999 350.806 300.175 350.177 300.217C349.548 300.258 348.918 300.164 348.329 299.94C347.74 299.716 347.206 299.368 346.764 298.919Z" fill="#00C853"/>
<path d="M332.734 281.735C333.322 281.052 332.843 280.234 331.6 279.005C329.469 276.698 327.912 274.665 330.234 271.703C331.778 269.901 334.032 269.614 336.491 271.089L337.625 269.724C338.499 270.447 339.36 271.198 340.22 271.935L339.086 273.3C339.656 273.951 340.048 274.737 340.225 275.583C340.402 276.43 340.358 277.307 340.097 278.132V278.336L339.933 278.855L336.477 277.79L336.641 277.067C336.782 276.612 336.773 276.124 336.616 275.674C336.459 275.224 336.161 274.837 335.767 274.569C334.537 273.518 333.786 273.341 333.158 274.078C332.529 274.815 333.158 275.579 334.346 276.808C336.423 279.005 338.007 281.353 335.603 284.165C334.018 286.007 331.751 286.212 329.278 284.751L328.103 286.116L325.508 283.892L326.655 282.527C325.966 281.85 325.485 280.991 325.269 280.05C325.054 279.109 325.113 278.126 325.439 277.217L325.685 276.535L329.1 277.79C329.1 278.022 328.95 278.241 328.882 278.473C328.74 278.966 328.762 279.492 328.944 279.972C329.126 280.451 329.459 280.859 329.893 281.134C331.136 282.267 332.092 282.54 332.734 281.735Z" fill="#00C853"/>
<path d="M386.243 225.418C385.86 225.418 385.478 225.363 385.11 225.254C363.576 219.005 341.265 215.834 318.841 215.836C316.355 215.836 313.828 215.836 311.341 215.959H311.205C310.621 215.964 310.044 215.843 309.51 215.607C308.977 215.37 308.5 215.023 308.112 214.587C307.724 214.152 307.434 213.638 307.26 213.082C307.087 212.525 307.035 211.938 307.107 211.359L311.642 175.366C311.765 174.4 312.229 173.509 312.95 172.854C313.671 172.198 314.602 171.821 315.576 171.79C318.158 171.708 320.767 171.667 323.336 171.667C346.535 171.667 369.618 174.943 391.899 181.399C392.837 181.671 393.647 182.269 394.183 183.085C394.719 183.9 394.946 184.881 394.822 185.849L390.273 221.842C390.146 222.836 389.659 223.749 388.904 224.408C388.149 225.067 387.178 225.426 386.175 225.418H386.243Z" fill="#7DDF96"/>
<path d="M323.377 175.762C346.187 175.752 368.885 178.969 390.793 185.316L386.244 221.296C364.34 214.948 341.648 211.731 318.841 211.741C316.3 211.741 313.746 211.741 311.205 211.864L315.754 175.871C318.295 175.871 320.836 175.762 323.377 175.762ZM323.377 167.572C320.754 167.572 318.09 167.572 315.481 167.695C313.532 167.758 311.67 168.512 310.227 169.823C308.785 171.133 307.858 172.915 307.612 174.847L303.063 210.841C302.917 211.999 303.02 213.175 303.366 214.29C303.712 215.405 304.293 216.433 305.069 217.305C305.845 218.178 306.799 218.874 307.867 219.348C308.935 219.823 310.091 220.063 311.26 220.054H311.437C313.882 219.972 316.369 219.931 318.814 219.931C340.849 219.93 362.774 223.046 383.935 229.185C385.079 229.523 386.282 229.608 387.462 229.434C388.642 229.259 389.769 228.83 390.765 228.175C391.754 227.521 392.59 226.662 393.217 225.656C393.844 224.651 394.247 223.522 394.399 222.347L398.115 192.905L398.935 186.367C399.181 184.431 398.728 182.471 397.656 180.839C396.584 179.207 394.964 178.012 393.088 177.468C370.447 170.904 346.992 167.572 323.418 167.572H323.377Z" fill="#515979"/>
<path d="M337.461 194.298C337.759 191.402 338.749 188.62 340.346 186.186C341.944 183.751 344.102 181.735 346.641 180.307C339.292 179.588 331.919 179.206 324.524 179.161C324.268 180.782 323.453 182.263 322.222 183.349C320.99 184.436 319.418 185.059 317.776 185.112L315.535 202.474C316.29 202.44 317.043 202.574 317.739 202.867C318.435 203.16 319.056 203.605 319.559 204.168C320.061 204.732 320.432 205.4 320.643 206.124C320.855 206.849 320.902 207.611 320.781 208.356C328.172 208.356 335.562 208.793 342.898 209.517C340.776 207.647 339.165 205.27 338.214 202.608C337.263 199.946 337.004 197.087 337.461 194.298ZM326.464 198.952C325.837 198.922 325.223 198.758 324.665 198.471C324.106 198.183 323.616 197.779 323.227 197.286C322.839 196.793 322.561 196.222 322.412 195.612C322.263 195.003 322.248 194.368 322.366 193.752C322.516 192.394 323.152 191.136 324.155 190.208C325.159 189.281 326.464 188.746 327.83 188.701C328.463 188.74 329.081 188.914 329.642 189.21C330.202 189.507 330.693 189.92 331.081 190.421C331.469 190.922 331.745 191.501 331.891 192.118C332.038 192.734 332.05 193.375 331.928 193.997C331.776 195.346 331.137 196.592 330.131 197.504C329.126 198.416 327.822 198.931 326.464 198.952Z" fill="#00C853"/>
<path d="M381.476 186.34C374.309 184.52 367.073 183.064 359.769 181.972C361.887 183.978 363.49 186.464 364.441 189.221C365.392 191.977 365.664 194.922 365.233 197.806C364.978 200.622 364.009 203.327 362.417 205.665C360.825 208.003 358.663 209.897 356.135 211.168C363.421 212.287 370.657 213.743 377.842 215.536C377.913 214.784 378.15 214.057 378.536 213.408C378.923 212.759 379.449 212.204 380.077 211.783C380.705 211.363 381.418 211.087 382.166 210.976C382.913 210.864 383.676 210.921 384.399 211.141L386.571 193.82C384.98 193.367 383.597 192.37 382.666 191.003C381.735 189.636 381.314 187.986 381.476 186.34ZM374.714 205.04C373.399 204.687 372.257 203.867 371.503 202.734C370.748 201.601 370.433 200.232 370.616 198.884C370.656 198.249 370.832 197.63 371.131 197.069C371.43 196.508 371.846 196.017 372.35 195.629C372.855 195.241 373.436 194.966 374.056 194.821C374.676 194.676 375.319 194.665 375.943 194.789C377.251 195.178 378.376 196.023 379.113 197.17C379.85 198.317 380.15 199.691 379.96 201.04C379.92 201.664 379.746 202.272 379.451 202.823C379.156 203.374 378.746 203.855 378.249 204.234C377.752 204.613 377.179 204.881 376.569 205.02C375.959 205.159 375.327 205.166 374.714 205.04Z" fill="#00C853"/>
<path d="M353.539 198.42C353.649 197.519 352.815 197.055 351.053 196.7C348.007 195.949 345.589 195.103 345.876 191.363C346.176 189.015 347.898 187.528 350.753 187.418L350.971 185.685L354.359 186.108L354.141 187.841C354.973 188.072 355.732 188.512 356.347 189.119C356.961 189.726 357.41 190.479 357.651 191.308C357.68 191.374 357.703 191.443 357.72 191.513L357.884 192.032L354.4 193.042C354.318 192.81 354.236 192.578 354.141 192.346C354.012 191.887 353.737 191.482 353.358 191.194C352.978 190.905 352.514 190.749 352.037 190.749C350.425 190.544 349.701 190.749 349.578 191.772C349.455 192.796 350.384 193.028 352.105 193.424C355.042 194.12 357.665 195.212 357.201 198.884C356.9 201.286 355.11 202.706 352.242 202.842L352.023 204.644L348.635 204.207L348.854 202.46C347.903 202.277 347.025 201.825 346.325 201.156C345.625 200.488 345.132 199.633 344.906 198.693L344.742 197.997L348.28 197.164C348.348 197.396 348.403 197.628 348.471 197.846C348.622 198.338 348.929 198.768 349.345 199.071C349.762 199.374 350.265 199.533 350.78 199.525C352.501 199.744 353.417 199.389 353.539 198.42Z" fill="#00C853"/>
<path d="M152.972 318.711C139.439 318.695 126.101 315.496 114.035 309.374C101.97 303.251 91.5163 294.377 83.5204 283.468C72.0405 281.075 61.7134 274.86 54.2289 265.839C46.7443 256.819 42.5455 245.527 42.3194 233.812C29.0827 218.274 21.8135 198.535 21.8135 178.13C21.8135 157.725 29.0827 137.986 42.3194 122.448C42.5606 109.32 47.2002 96.6526 55.4965 86.4704C63.7928 76.2882 75.2665 69.1795 88.0831 66.2809C93.4585 55.4094 101.074 45.7967 110.431 38.0739C119.787 30.351 130.672 24.6926 142.372 21.4702C154.072 18.2477 166.321 17.534 178.316 19.3759C190.312 21.2179 201.781 25.5738 211.973 32.1577C225.454 29.6048 239.35 30.3094 252.503 34.2129C265.656 38.1163 277.685 45.1053 287.585 54.5972C301.446 56.7452 314.082 63.7712 323.215 74.408C332.348 85.0447 337.376 98.5921 337.393 112.607C337.393 113.439 337.393 114.313 337.324 115.241C352.414 129.274 361.956 148.256 364.213 168.73C366.47 189.203 361.29 209.805 349.619 226.783C351.303 233.224 351.537 239.957 350.304 246.499C349.071 253.041 346.403 259.229 342.49 264.617C338.578 270.005 333.518 274.46 327.676 277.66C321.835 280.861 315.355 282.728 308.705 283.127C295.885 297.485 278.615 307.132 259.659 310.525C240.703 313.917 221.156 310.859 204.145 301.84C189.369 312.859 171.409 318.78 152.972 318.711Z" fill="#00C853"/>
<path d="M165.266 22.5213C181.634 22.4999 197.63 27.3932 211.18 36.5664C224.453 33.7704 238.213 34.3095 251.226 38.1353C264.24 41.9612 276.099 48.9541 285.741 58.4872C298.89 60.2064 310.965 66.6449 319.715 76.6022C328.464 86.5596 333.29 99.3563 333.294 112.607C333.294 114.067 333.226 115.514 333.103 116.947C348.274 130.41 357.902 149.02 360.124 169.171C362.345 189.322 357 209.58 345.124 226.019C347.011 232.083 347.461 238.504 346.436 244.772C345.412 251.04 342.943 256.985 339.223 262.135C335.503 267.285 330.636 271.5 325.005 274.447C319.374 277.394 313.134 278.992 306.779 279.114C294.375 293.606 277.299 303.319 258.496 306.578C239.692 309.837 220.34 306.438 203.776 296.968C195.026 303.885 184.955 308.944 174.179 311.836C163.403 314.728 152.15 315.391 141.109 313.784C130.067 312.178 119.471 308.336 109.968 302.495C100.464 296.653 92.2552 288.934 85.8426 279.81C74.7808 277.841 64.7665 272.042 57.5571 263.431C50.3477 254.82 46.4039 243.947 46.4176 232.72C46.4176 232.57 46.4176 232.434 46.4176 232.284C33.2046 217.333 25.9126 198.075 25.9126 178.13C25.9126 158.185 33.2046 138.927 46.4176 123.976C46.4176 123.826 46.4176 123.676 46.4176 123.526C46.4206 110.801 50.8725 98.4759 59.0039 88.6815C67.1353 78.8872 78.4354 72.2385 90.9518 69.8843C97.5365 55.7365 108.029 43.7626 121.195 35.3718C134.36 26.981 149.651 22.5226 165.266 22.5213ZM165.266 14.3317C148.783 14.3704 132.623 18.9034 118.528 27.4422C104.434 35.981 92.9386 48.2016 85.2826 62.7867C72.2394 66.1542 60.6245 73.6207 52.1511 84.085C43.6777 94.5492 38.7943 107.457 38.2211 120.905C24.9348 137.021 17.6695 157.251 17.6695 178.13C17.6695 199.009 24.9348 219.239 38.2211 235.355C38.7682 247.465 43.2457 259.068 50.977 268.411C58.7083 277.753 69.2732 284.328 81.075 287.14C89.4939 298.223 100.365 307.21 112.838 313.397C125.31 319.584 139.046 322.804 152.972 322.806C171.414 322.872 189.422 317.221 204.514 306.631C221.948 315.247 241.702 317.998 260.829 314.476C279.957 310.953 297.431 301.345 310.645 287.085C317.578 286.426 324.293 284.302 330.343 280.855C336.393 277.407 341.642 272.715 345.741 267.089C349.84 261.463 352.697 255.031 354.121 248.219C355.546 241.407 355.506 234.37 354.004 227.575C365.502 210.076 370.543 189.123 368.259 168.314C365.976 147.506 356.511 128.142 341.491 113.548V112.607C341.466 97.8561 336.254 83.5834 326.765 72.2835C317.276 60.9836 304.114 53.3754 289.58 50.789C279.428 41.3326 267.228 34.3477 253.929 30.3795C240.631 26.4114 226.594 25.5671 212.915 27.9128C198.626 19.0005 182.111 14.2935 165.266 14.3317Z" fill="#515979"/>
<path d="M94.9955 93.0882C108.028 65.1208 132.303 49.8199 165.267 49.8199C181.634 49.7986 197.63 54.6918 211.18 63.865C224.453 61.069 238.213 61.6081 251.227 65.434C264.24 69.2598 276.099 76.2528 285.741 85.7858C306.519 83.6155 323.691 95.2447 333.267 111.228C332.935 98.2207 327.964 85.7596 319.25 76.0899C310.537 66.4202 298.653 60.1777 285.741 58.4872C276.099 48.9542 264.24 41.9612 251.227 38.1354C238.213 34.3095 224.453 33.7705 211.18 36.5664C201.353 29.9305 190.201 25.5048 178.495 23.5949C166.788 21.685 154.807 22.3364 143.377 25.5042C131.947 28.672 121.342 34.2806 112.293 41.9429C103.244 49.6051 95.9675 59.1384 90.9655 69.8844C79.6193 72.0027 69.2358 77.6566 61.3041 86.0353C53.3723 94.414 48.2998 105.087 46.8138 116.524C58.7124 102.206 76.4714 91.6413 94.9955 93.0882Z" fill="#7DDF96"/>
<g style="mix-blend-mode:multiply" opacity="0.1">
<g style="mix-blend-mode:multiply" opacity="0.1">
<path d="M309.907 254.914C294.457 272.958 271.507 280.302 245.879 280.302C231.19 280.322 216.755 276.481 204.022 269.164C189.665 280.52 171.523 283.223 151.783 283.223C123.273 283.223 98.0691 277.244 82.8237 255.583C54.942 260.019 46.4176 232.72 46.4176 232.284C46.4176 232.434 46.4176 232.57 46.4176 232.72C46.4039 243.947 50.3478 254.82 57.5572 263.431C64.7665 272.042 74.7808 277.841 85.8427 279.81C92.251 288.93 100.454 296.646 109.951 302.488C119.447 308.33 130.037 312.174 141.072 313.786C152.107 315.397 163.354 314.741 174.127 311.859C184.899 308.976 194.97 303.928 203.722 297.022C220.286 306.493 239.638 309.892 258.441 306.633C277.245 303.373 294.321 293.66 306.724 279.169C317.453 278.958 327.671 274.551 335.183 266.895C342.696 259.238 346.903 248.943 346.9 238.221C346.901 236.234 346.755 234.249 346.463 232.284C342.966 238.988 337.725 244.628 331.293 248.61C324.86 252.592 317.473 254.77 309.907 254.914Z" fill="black"/>
</g>
</g>
<path d="M133.847 427.905C133.138 427.905 132.442 427.72 131.826 427.371C131.21 427.021 130.695 426.518 130.332 425.91C129.969 425.302 129.769 424.611 129.753 423.903C129.737 423.196 129.905 422.496 130.24 421.872C150.39 384.528 152.644 281.012 154.83 180.894C155.445 152.763 156.073 123.676 157.084 96.0773C157.123 95.0176 157.572 94.0142 158.336 93.2785C159.1 92.5427 160.121 92.132 161.182 92.1327H232.218C233.28 92.132 234.3 92.5427 235.064 93.2785C235.829 94.0142 236.278 95.0176 236.316 96.0773C237.327 123.676 237.969 152.763 238.57 180.894C240.743 281.012 242.997 384.528 263.16 421.872C263.496 422.498 263.664 423.2 263.647 423.91C263.63 424.62 263.428 425.313 263.061 425.922C262.695 426.53 262.176 427.033 261.556 427.381C260.937 427.729 260.237 427.909 259.526 427.905H133.847Z" fill="#9E8271"/>
<path d="M232.204 96.2275C236.89 223.657 233.215 375.055 259.526 423.81H133.847C160.157 375.055 156.483 223.657 161.168 96.2275H232.204ZM232.204 88.0379H161.168C159.046 88.0365 157.005 88.858 155.476 90.3295C153.947 91.8009 153.05 93.8076 152.972 95.9272C151.947 123.553 151.319 152.654 150.704 180.798C148.546 280.438 146.305 383.449 126.62 419.934C125.949 421.182 125.613 422.583 125.646 424C125.679 425.416 126.079 426.8 126.807 428.016C127.535 429.232 128.567 430.238 129.801 430.936C131.034 431.635 132.429 432.001 133.847 432H259.526C260.943 431.999 262.335 431.631 263.567 430.931C264.799 430.232 265.829 429.225 266.556 428.01C267.282 426.794 267.681 425.412 267.713 423.996C267.745 422.581 267.41 421.181 266.739 419.934C247.054 383.449 244.882 280.438 242.655 180.798C242.04 152.654 241.412 123.553 240.401 95.9272C240.323 93.8076 239.425 91.8009 237.896 90.3295C236.368 88.858 234.327 88.0365 232.204 88.0379Z" fill="#515979"/>
<g style="mix-blend-mode:multiply" opacity="0.1">
<g style="mix-blend-mode:multiply" opacity="0.1">
<path d="M158.778 184.962C158.778 184.962 157.33 250.191 156.045 280.507C156.838 280.507 157.63 280.507 158.436 280.507C165.86 280.513 173.183 278.789 179.823 275.472C186.463 272.155 192.237 267.335 196.686 261.398C201.14 267.331 206.915 272.146 213.554 275.463C220.193 278.78 227.514 280.507 234.936 280.507C235.742 280.507 236.548 280.507 237.341 280.507C235.975 250.26 234.609 184.962 234.609 184.962H158.778Z" fill="black"/>
</g>
</g>
<path d="M244.499 68.9289H148.874L94.2305 205.422C94.2289 217.526 98.2534 229.288 105.671 238.858C113.089 248.429 123.48 255.264 135.209 258.291C146.939 261.318 159.343 260.365 170.472 255.58C181.6 250.796 190.821 242.452 196.686 231.86C202.551 242.452 211.773 250.796 222.901 255.58C234.029 260.365 246.433 261.318 258.163 258.291C269.893 255.264 280.284 248.429 287.702 238.858C295.119 229.288 299.144 217.526 299.142 205.422L244.499 68.9289Z" fill="#00C853"/>
<path d="M244.499 264.114C235.149 264.11 225.934 261.88 217.619 257.607C209.304 253.334 202.128 247.142 196.686 239.545C189.347 249.804 178.9 257.433 166.888 261.304C154.876 265.176 141.937 265.084 129.981 261.043C129.462 260.877 128.981 260.61 128.567 260.257C128.152 259.904 127.813 259.472 127.567 258.986C127.322 258.5 127.176 257.97 127.138 257.427C127.1 256.884 127.171 256.339 127.346 255.824C127.521 255.309 127.797 254.834 128.158 254.426C128.52 254.019 128.958 253.688 129.449 253.452C129.94 253.216 130.473 253.08 131.017 253.052C131.561 253.024 132.105 253.105 132.617 253.29C143.846 257.08 156.05 256.814 167.103 252.539C178.156 248.264 187.358 240.251 193.107 229.895C193.462 229.255 193.981 228.721 194.612 228.35C195.242 227.979 195.961 227.783 196.693 227.783C197.425 227.783 198.144 227.979 198.775 228.35C199.405 228.721 199.925 229.255 200.279 229.895C206.717 241.532 217.489 250.163 230.256 253.914C243.023 257.666 256.756 256.235 268.474 249.932C269.43 249.416 270.553 249.301 271.594 249.612C272.636 249.923 273.511 250.635 274.027 251.591C274.543 252.546 274.658 253.668 274.347 254.708C274.036 255.749 273.324 256.623 272.367 257.139C263.797 261.728 254.223 264.124 244.499 264.114Z" fill="#515979"/>
<path d="M81.3756 188.074C80.5013 188.076 79.6493 187.798 78.944 187.282C59.1732 172.669 37.2192 161.264 13.8913 153.486C13.3295 153.299 12.815 152.991 12.3834 152.586C11.9518 152.18 11.6133 151.686 11.3913 151.137C11.1693 150.589 11.069 149.998 11.0973 149.407C11.1256 148.816 11.2819 148.238 11.5553 147.713L28.0849 116.019C28.4319 115.356 28.954 114.801 29.5946 114.413C30.2352 114.026 30.9698 113.821 31.7187 113.821C32.182 113.817 32.6432 113.886 33.0847 114.026C57.2208 122.081 79.9352 133.887 100.391 149.009C101.174 149.588 101.725 150.427 101.946 151.375C102.166 152.323 102.041 153.318 101.594 154.182L85.0094 185.876C84.7342 186.404 84.3472 186.865 83.8754 187.228C83.4035 187.591 82.8582 187.847 82.2773 187.978C81.9811 188.043 81.6788 188.075 81.3756 188.074Z" fill="#7DDF96"/>
<path d="M31.7186 117.862C55.4464 125.78 77.7777 137.383 97.8915 152.244L81.3756 183.979C61.2537 169.122 38.9187 157.52 15.1891 149.596L31.7186 117.862ZM31.7186 109.672C30.2173 109.67 28.7442 110.08 27.4602 110.858C26.1762 111.635 25.1306 112.75 24.4374 114.081L7.92153 145.815C7.37459 146.866 7.06204 148.022 7.0054 149.204C6.94877 150.387 7.1494 151.567 7.59347 152.665C8.03755 153.763 8.7145 154.751 9.5777 155.562C10.4409 156.373 11.4698 156.987 12.5935 157.363C35.5011 165.008 57.0586 176.215 76.4714 190.571C77.884 191.612 79.5935 192.171 81.3483 192.168C81.9687 192.168 82.5871 192.099 83.1925 191.964C84.3543 191.702 85.445 191.19 86.3887 190.464C87.3324 189.738 88.1064 188.815 88.6568 187.76L99.8177 166.33L105.159 156.025C106.059 154.296 106.313 152.304 105.875 150.405C105.437 148.506 104.335 146.825 102.768 145.665C81.9625 130.289 58.861 118.285 34.3142 110.095C33.4774 109.815 32.601 109.673 31.7186 109.672Z" fill="#515979"/>
<path d="M45.4888 142.321C46.7479 139.749 48.6057 137.515 50.9064 135.808C53.2071 134.1 55.8839 132.969 58.7124 132.507C52.1735 129.341 45.4888 126.47 38.6584 123.895C37.8671 125.307 36.6069 126.399 35.0954 126.983C33.5839 127.566 31.9161 127.603 30.3799 127.089L22.402 142.403C23.1113 142.63 23.7613 143.012 24.3049 143.52C24.8485 144.029 25.2723 144.652 25.5455 145.344C25.8187 146.036 25.9346 146.781 25.8847 147.523C25.8348 148.265 25.6205 148.988 25.2571 149.637C32.0784 152.221 38.7813 155.12 45.3658 158.332C44.0133 155.876 43.3144 153.114 43.3359 150.31C43.3574 147.507 44.0987 144.756 45.4888 142.321ZM33.6995 142.853C33.1222 142.618 32.6028 142.26 32.177 141.805C31.7513 141.35 31.4293 140.808 31.2333 140.216C31.0373 139.625 30.9718 138.998 31.0415 138.379C31.1111 137.759 31.3142 137.163 31.6367 136.629C32.2399 135.412 33.2647 134.455 34.5209 133.935C35.777 133.415 37.1792 133.369 38.4671 133.804C39.0439 134.054 39.5604 134.425 39.9822 134.891C40.404 135.357 40.7212 135.907 40.9127 136.506C41.1041 137.104 41.1654 137.736 41.0923 138.36C41.0192 138.984 40.8135 139.585 40.4889 140.124C39.8956 141.337 38.8731 142.288 37.6192 142.792C36.3652 143.296 34.9687 143.318 33.6995 142.853Z" fill="#00C853"/>
<path d="M88.9301 149.978C82.9011 145.884 76.7082 142.066 70.3514 138.527C71.6107 141.109 72.2308 143.956 72.1595 146.828C72.0882 149.699 71.3275 152.512 69.9416 155.029C68.7441 157.549 66.9223 159.722 64.6487 161.341C62.3751 162.961 59.7252 163.973 56.9501 164.283C63.3252 167.823 69.5181 171.64 75.5288 175.735C75.8514 175.063 76.3193 174.472 76.8987 174.004C77.478 173.536 78.1544 173.202 78.8787 173.027C79.6031 172.852 80.3573 172.84 81.0868 172.992C81.8164 173.144 82.5029 173.456 83.0969 173.906L91.0611 158.605C89.7577 157.639 88.8319 156.249 88.4429 154.674C88.054 153.1 88.2262 151.44 88.9301 149.978ZM76.2665 164.993C75.1726 164.217 74.4023 163.066 74.1026 161.76C73.8028 160.454 73.9944 159.083 74.6409 157.909C74.8946 157.333 75.2688 156.819 75.7382 156.401C76.2077 155.983 76.7614 155.67 77.3622 155.484C77.963 155.297 78.5967 155.242 79.2207 155.321C79.8447 155.4 80.4445 155.613 80.9795 155.943C82.0553 156.75 82.8056 157.915 83.0939 159.228C83.3822 160.54 83.1894 161.913 82.5505 163.095C82.2984 163.665 81.9259 164.173 81.4584 164.586C80.991 164.998 80.4397 165.304 79.8426 165.483C79.2454 165.662 78.6166 165.71 77.9993 165.623C77.3819 165.536 76.7908 165.316 76.2665 164.979V164.993Z" fill="#00C853"/>
<path d="M58.9583 151.616C59.3681 150.825 58.7261 150.156 57.237 149.173C54.6825 147.44 52.729 145.829 54.2726 142.471C55.3518 140.397 57.4556 139.619 60.1468 140.492L60.9391 138.963L63.9308 140.506L63.1248 142.035C63.8203 142.532 64.3756 143.201 64.737 143.975C65.0983 144.75 65.2535 145.605 65.1876 146.457V146.648V147.194C64.0128 147.098 62.8243 147.017 61.6358 146.948V146.211C61.6708 145.746 61.5575 145.281 61.3121 144.884C61.0668 144.487 60.7019 144.177 60.2697 144C58.9036 143.277 58.0977 143.263 57.6469 144.123C57.196 144.983 57.9747 145.488 59.4228 146.511C61.8954 148.163 63.9445 150.06 62.2642 153.336C61.1577 155.465 59.0266 156.162 56.3218 155.315L55.5021 156.899C54.5049 156.366 53.5076 155.861 52.5104 155.343L53.3164 153.8C52.5023 153.304 51.8472 152.585 51.4284 151.729C51.0097 150.873 50.8448 149.915 50.9531 148.968L51.035 148.259C52.2372 148.409 53.4257 148.545 54.6005 148.709C54.6005 148.941 54.6005 149.173 54.6005 149.405C54.4912 150.374 55.024 151.152 56.1715 151.739C57.5376 152.49 58.5075 152.476 58.9583 151.616Z" fill="#00C853"/>
<path d="M306.97 161.853C306.378 161.83 305.797 161.68 305.269 161.411C304.741 161.142 304.277 160.762 303.91 160.297L281.383 131.852C280.776 131.086 280.463 130.129 280.501 129.153C280.538 128.177 280.924 127.246 281.588 126.529C299.066 107.574 319.425 91.4886 341.914 78.8656C342.764 78.3884 343.756 78.2293 344.712 78.4169C345.669 78.6045 346.527 79.1265 347.133 79.8893L369.659 108.348C370.027 108.813 370.29 109.352 370.429 109.929C370.568 110.505 370.58 111.105 370.464 111.686C370.349 112.267 370.108 112.817 369.759 113.296C369.41 113.776 368.961 114.174 368.443 114.463C346.699 126.662 327.018 142.214 310.125 160.543C309.747 160.966 309.284 161.306 308.766 161.541C308.249 161.776 307.688 161.901 307.12 161.908L306.97 161.853Z" fill="#7DDF96"/>
<path d="M343.936 82.4417L366.449 110.887C344.341 123.308 324.325 139.125 307.134 157.758C299.62 148.286 292.111 138.804 284.607 129.313C301.796 110.672 321.818 94.8542 343.936 82.4417ZM343.936 74.2521C342.529 74.2523 341.146 74.6142 339.92 75.3031C317.08 88.145 296.405 104.497 278.651 123.758C277.329 125.193 276.562 127.052 276.489 129.001C276.417 130.951 277.043 132.862 278.255 134.391L300.768 162.85C301.503 163.777 302.431 164.535 303.488 165.069C304.544 165.604 305.704 165.904 306.888 165.948H307.202C308.334 165.948 309.453 165.714 310.49 165.261C311.527 164.808 312.459 164.145 313.227 163.314C329.827 145.301 349.167 130.017 370.534 118.025C371.577 117.447 372.481 116.648 373.184 115.684C373.886 114.72 374.369 113.614 374.599 112.445C374.83 111.275 374.801 110.069 374.517 108.911C374.232 107.753 373.698 106.671 372.951 105.741L360.22 89.6622L350.438 77.2823C349.671 76.3117 348.693 75.5275 347.579 74.9885C346.464 74.4495 345.242 74.1697 344.004 74.1702L343.936 74.2521Z" fill="#515979"/>
<path d="M312.981 126.747C311.113 124.504 309.813 121.845 309.193 118.993C308.572 116.142 308.648 113.184 309.415 110.368C303.76 115.091 298.323 120.096 293.104 125.382C294.082 126.701 294.57 128.32 294.483 129.959C294.395 131.598 293.739 133.156 292.626 134.364L303.555 148.095C304.058 147.531 304.681 147.087 305.378 146.794C306.075 146.502 306.828 146.368 307.584 146.404C308.339 146.439 309.077 146.642 309.743 146.999C310.41 147.355 310.988 147.855 311.437 148.463C316.655 143.222 322.12 138.217 327.83 133.449C324.987 133.697 322.129 133.21 319.529 132.037C316.929 130.863 314.674 129.042 312.981 126.747ZM308.582 137.858C308.123 138.293 307.575 138.624 306.976 138.828C306.377 139.032 305.741 139.104 305.112 139.04C304.482 138.975 303.874 138.775 303.33 138.453C302.785 138.131 302.317 137.695 301.956 137.175C301.089 136.121 300.633 134.789 300.671 133.424C300.708 132.06 301.238 130.756 302.161 129.75C302.63 129.319 303.187 128.994 303.792 128.796C304.398 128.599 305.039 128.533 305.672 128.605C306.306 128.676 306.916 128.882 307.463 129.209C308.01 129.536 308.48 129.977 308.841 130.501C309.696 131.551 310.14 132.875 310.093 134.228C310.045 135.581 309.508 136.87 308.582 137.858Z" fill="#00C853"/>
<path d="M338.116 89.7713C331.814 93.6295 325.708 97.7698 319.797 102.192C322.699 102.109 325.577 102.723 328.192 103.981C330.807 105.24 333.081 107.107 334.824 109.426C336.659 111.58 337.913 114.166 338.468 116.939C339.022 119.712 338.859 122.581 337.994 125.273C343.904 120.869 350.015 116.733 356.326 112.866C355.84 112.282 355.491 111.597 355.305 110.861C355.118 110.124 355.099 109.356 355.248 108.611C355.398 107.866 355.712 107.165 356.168 106.557C356.624 105.949 357.21 105.451 357.884 105.099L346.955 91.4502C345.517 92.2432 343.847 92.5094 342.233 92.2029C340.619 91.8963 339.163 91.0363 338.116 89.7713ZM346.736 107.707C345.571 108.391 344.196 108.631 342.867 108.38C341.538 108.129 340.345 107.404 339.51 106.342C339.084 105.868 338.764 105.309 338.571 104.702C338.379 104.095 338.319 103.454 338.396 102.821C338.472 102.189 338.683 101.581 339.014 101.037C339.345 100.492 339.789 100.026 340.316 99.6671C341.509 99.0032 342.902 98.791 344.239 99.0692C345.576 99.3474 346.768 100.098 347.597 101.182C348.007 101.651 348.313 102.202 348.493 102.798C348.674 103.394 348.725 104.021 348.644 104.639C348.562 105.256 348.35 105.849 348.021 106.378C347.692 106.907 347.254 107.36 346.736 107.707Z" fill="#00C853"/>
<path d="M327.174 118.162C326.614 117.452 325.726 117.752 324.21 118.735C321.478 120.387 319.237 121.465 316.778 118.735C315.303 116.879 315.412 114.64 317.366 112.497L316.287 111.132C317.175 110.423 318.062 109.768 319.019 109.017L320.098 110.382C320.853 109.959 321.705 109.736 322.571 109.736C323.436 109.736 324.288 109.959 325.043 110.382C325.106 110.401 325.166 110.428 325.221 110.464L325.713 110.723C325.139 111.774 324.565 112.839 324.005 113.903L323.322 113.603C322.903 113.373 322.42 113.286 321.946 113.355C321.473 113.424 321.035 113.645 320.699 113.985C319.429 114.982 319.114 115.678 319.715 116.442C320.317 117.206 321.177 116.756 322.666 115.814C325.221 114.204 327.83 113.084 330.125 115.992C331.628 117.903 331.395 120.168 329.483 122.298L330.617 123.663C329.715 124.359 328.827 125.027 327.885 125.778L326.778 124.413C325.981 124.965 325.041 125.275 324.072 125.306C323.103 125.338 322.145 125.089 321.314 124.591L320.699 124.222L322.584 121.11L323.213 121.451C323.67 121.689 324.192 121.771 324.7 121.685C325.208 121.599 325.674 121.349 326.027 120.974C327.393 119.827 327.83 118.926 327.174 118.162Z" fill="#00C853"/>
<path d="M47.4969 201.709C47.0993 196.681 47.9273 191.631 49.9099 186.992C51.8925 182.353 54.9707 178.263 58.8809 175.073C62.7912 171.882 67.417 169.686 72.3624 168.672C77.3077 167.658 82.4253 167.857 87.2771 169.251C86.0361 164.959 85.7315 160.45 86.3837 156.03C87.0359 151.61 88.6298 147.381 91.0578 143.629C93.4857 139.877 96.6912 136.689 100.458 134.28C104.224 131.872 108.464 130.299 112.891 129.668L124.352 195.308L47.4969 201.709Z" fill="#00C853"/>
<path d="M47.4832 205.804C46.4486 205.807 45.4511 205.419 44.691 204.718C43.9309 204.016 43.4643 203.054 43.385 202.023C42.9842 196.876 43.7178 191.704 45.5343 186.871C47.3507 182.038 50.2057 177.661 53.8982 174.05C57.5906 170.439 62.0307 167.68 66.9056 165.969C71.7806 164.258 76.9717 163.636 82.1133 164.146C81.2122 155.081 83.8514 146.018 89.4797 138.85C95.108 131.683 103.29 126.965 112.317 125.683C113.344 125.623 114.355 125.951 115.15 126.602C115.946 127.253 116.468 128.178 116.612 129.195C116.756 130.212 116.513 131.246 115.93 132.092C115.347 132.939 114.467 133.535 113.465 133.763C109.621 134.314 105.94 135.681 102.67 137.774C99.4001 139.867 96.6174 142.636 94.5096 145.895C92.4018 149.153 91.0179 152.826 90.4513 156.664C89.8847 160.503 90.1486 164.418 91.2251 168.146C91.4264 168.848 91.436 169.592 91.2528 170.299C91.0695 171.006 90.7002 171.652 90.1831 172.168C89.666 172.685 89.02 173.054 88.312 173.237C87.6041 173.42 86.86 173.411 86.1569 173.209C81.9434 172 77.4995 171.828 73.2048 172.707C68.9102 173.587 64.8925 175.492 61.495 178.26C58.0975 181.029 55.4213 184.578 53.6949 188.604C51.9686 192.63 51.2434 197.014 51.5815 201.382C51.6243 201.921 51.5598 202.463 51.3918 202.977C51.2237 203.491 50.9554 203.967 50.6023 204.377C50.2492 204.787 49.8183 205.123 49.3345 205.365C48.8508 205.608 48.3237 205.752 47.7838 205.79L47.4832 205.804Z" fill="#515979"/>
<path d="M342.857 167.586C343.253 162.554 342.423 157.501 340.438 152.859C338.452 148.218 335.37 144.126 331.455 140.936C327.54 137.745 322.91 135.55 317.96 134.538C313.011 133.527 307.89 133.729 303.036 135.128C304.277 130.835 304.581 126.327 303.929 121.907C303.277 117.486 301.683 113.257 299.255 109.505C296.827 105.753 293.621 102.566 289.855 100.157C286.088 97.7488 281.849 96.176 277.422 95.545L265.974 170.739L342.857 167.586Z" fill="#00C853"/>
<path d="M342.857 171.681H342.543C342.005 171.639 341.481 171.492 341 171.248C340.52 171.004 340.092 170.668 339.742 170.258C339.392 169.849 339.126 169.374 338.959 168.862C338.793 168.349 338.729 167.809 338.772 167.272C339.11 162.905 338.385 158.521 336.659 154.494C334.932 150.468 332.256 146.919 328.859 144.151C325.461 141.383 321.444 139.477 317.149 138.598C312.854 137.718 308.41 137.89 304.197 139.1C303.493 139.299 302.749 139.307 302.042 139.122C301.334 138.937 300.689 138.566 300.173 138.048C299.658 137.53 299.29 136.883 299.109 136.176C298.927 135.468 298.939 134.724 299.142 134.022C300.479 129.364 300.545 124.433 299.332 119.741C298.119 115.049 295.671 110.767 292.244 107.338C288.094 103.156 282.685 100.451 276.848 99.6398C275.772 99.486 274.801 98.9113 274.149 98.0423C273.497 97.1732 273.217 96.081 273.371 95.0059C273.525 93.9307 274.1 92.9607 274.97 92.3093C275.84 91.6578 276.933 91.3783 278.009 91.5321C287.032 92.8178 295.208 97.5378 300.829 104.706C306.45 111.874 309.081 120.935 308.172 129.996C313.319 129.477 318.518 130.093 323.401 131.801C328.283 133.509 332.731 136.267 336.43 139.881C340.129 143.495 342.989 147.876 344.807 152.715C346.626 157.554 347.359 162.733 346.955 167.886C346.879 168.919 346.414 169.885 345.653 170.589C344.893 171.294 343.894 171.684 342.857 171.681Z" fill="#515979"/>
<path d="M170.594 120.783C170.23 120.78 169.867 120.729 169.515 120.632C168.945 120.477 168.416 120.2 167.963 119.82C167.51 119.441 167.145 118.968 166.892 118.435C156.418 96.1978 142.5 75.7503 125.65 57.8457C125.246 57.4143 124.94 56.9006 124.753 56.3398C124.566 55.7791 124.503 55.1845 124.568 54.597C124.633 54.0096 124.824 53.4431 125.129 52.9366C125.434 52.43 125.844 51.9954 126.333 51.6625L155.977 31.5435C156.656 31.088 157.455 30.8455 158.272 30.8474C158.832 30.8457 159.387 30.9587 159.901 31.1793C160.416 31.4 160.879 31.7237 161.264 32.1304C178.69 50.6576 193.083 71.8145 203.913 94.8216C204.333 95.6997 204.426 96.6985 204.175 97.6389C203.925 98.5794 203.348 99.4 202.547 99.9537L172.903 120.114C172.218 120.562 171.413 120.795 170.594 120.783Z" fill="#7DDF96"/>
<path d="M158.272 34.9285C175.402 53.1493 189.555 73.9506 200.211 96.5687L170.594 116.688C159.943 94.0702 145.795 73.2689 128.669 55.0476L158.272 34.9285ZM158.272 26.7389C156.636 26.7245 155.032 27.1999 153.668 28.1039L124.052 48.2775C123.072 48.9431 122.248 49.8129 121.637 50.8272C121.026 51.8415 120.643 52.9761 120.513 54.1528C120.383 55.3295 120.51 56.5204 120.885 57.6433C121.26 58.7663 121.875 59.7946 122.686 60.6574C139.226 78.2302 152.894 98.2944 163.19 120.114C163.694 121.183 164.424 122.131 165.329 122.892C166.235 123.653 167.295 124.209 168.436 124.522C169.138 124.722 169.864 124.823 170.594 124.823C172.235 124.84 173.844 124.364 175.212 123.458L204.883 103.339C206.481 102.232 207.634 100.593 208.134 98.7151C208.635 96.8373 208.451 94.8428 207.615 93.0881C196.602 69.6901 181.964 48.1738 164.242 29.3323C163.475 28.5139 162.549 27.8615 161.519 27.4154C160.49 26.9693 159.38 26.7391 158.258 26.7389H158.272Z" fill="#515979"/>
<path d="M158.791 63.0051C161.132 61.3232 163.845 60.2314 166.7 59.8227C169.554 59.4139 172.465 59.7003 175.184 60.6574C170.895 54.7973 166.359 49.0965 161.578 43.5549C160.211 44.4261 158.582 44.7925 156.973 44.5906C155.364 44.3887 153.876 43.6312 152.767 42.4493L138.478 52.1539C138.995 52.6904 139.386 53.3351 139.623 54.0413C139.86 54.7474 139.936 55.4974 139.848 56.2369C139.759 56.9763 139.506 57.6868 139.109 58.3168C138.711 58.9467 138.178 59.4805 137.549 59.8794C142.33 65.3391 146.852 71.04 151.114 76.982C151.096 74.1918 151.792 71.4433 153.136 68.9972C154.479 66.5511 156.426 64.4885 158.791 63.0051ZM148.15 57.8866C147.758 57.4022 147.475 56.8394 147.319 56.2363C147.164 55.6332 147.14 55.0038 147.248 54.3906C147.357 53.7774 147.596 53.1946 147.95 52.6816C148.303 52.1686 148.763 51.7373 149.297 51.4169C150.399 50.643 151.742 50.2916 153.082 50.427C154.422 50.5624 155.668 51.1754 156.592 52.1539C156.984 52.6453 157.265 53.2151 157.417 53.8246C157.569 54.4342 157.587 55.0692 157.472 55.6867C157.357 56.3042 157.11 56.8897 156.748 57.4035C156.387 57.9173 155.919 58.3474 155.376 58.6646C154.286 59.4429 152.947 59.7937 151.615 59.6502C150.282 59.5068 149.049 58.8791 148.15 57.8866Z" fill="#00C853"/>
<path d="M193.394 90.331C190.043 83.8703 186.4 77.5734 182.465 71.4404C182.348 74.3105 181.542 77.1103 180.115 79.6044C178.689 82.0984 176.684 84.2137 174.269 85.7721C172.018 87.4243 169.382 88.4747 166.612 88.8234C163.841 89.1722 161.026 88.8078 158.436 87.7649C162.352 93.8798 165.995 100.177 169.365 106.656C169.969 106.218 170.662 105.92 171.395 105.783C172.128 105.646 172.882 105.673 173.604 105.862C174.325 106.051 174.995 106.398 175.566 106.878C176.137 107.357 176.595 107.957 176.905 108.635L191.222 98.93C190.53 97.4675 190.368 95.8099 190.764 94.2412C191.16 92.6724 192.09 91.2901 193.394 90.331ZM175.13 97.5378C174.535 96.3377 174.403 94.9614 174.759 93.6704C175.114 92.3795 175.931 91.2639 177.056 90.5357C177.552 90.149 178.125 89.8731 178.737 89.7267C179.349 89.5803 179.986 89.5668 180.603 89.6871C181.221 89.8074 181.806 90.0588 182.318 90.4241C182.83 90.7895 183.257 91.2605 183.572 91.8051C184.14 93.0243 184.25 94.407 183.881 95.7004C183.512 96.9937 182.69 98.1112 181.564 98.8481C181.071 99.2298 180.502 99.5007 179.894 99.6422C179.287 99.7837 178.657 99.7926 178.046 99.6682C177.435 99.5438 176.858 99.289 176.355 98.9213C175.851 98.5537 175.433 98.0817 175.13 97.5378Z" fill="#00C853"/>
<path d="M166.223 77.5689C166.974 77.0639 166.728 76.204 165.881 74.607C164.515 71.8772 163.504 69.5295 166.455 67.3047C168.395 65.9397 170.553 66.2946 172.561 68.3284L173.927 67.3593L175.826 70.0891L174.46 71.0582C174.83 71.8257 174.997 72.6747 174.947 73.5249C174.897 74.3752 174.631 75.1986 174.173 75.9174C174.145 75.9811 174.108 76.0408 174.064 76.0948L173.791 76.5589L170.731 74.7026C170.84 74.4842 170.963 74.2658 171.086 74.0611C171.335 73.6591 171.449 73.1884 171.412 72.7173C171.375 72.2461 171.189 71.7988 170.881 71.4404C169.993 70.0755 169.324 69.7752 168.531 70.3075C167.739 70.8398 168.121 71.6724 168.955 73.2557C170.321 75.8764 171.25 78.5244 168.231 80.5718C166.25 81.9367 164.037 81.5136 162.07 79.4935L160.594 80.5035L158.696 77.7737L160.144 76.7909C159.662 75.9679 159.426 75.0248 159.462 74.0722C159.498 73.1196 159.806 72.1971 160.349 71.4131L160.758 70.8398C161.742 71.5223 162.725 72.2047 163.682 72.9145C163.559 73.1193 163.436 73.3103 163.299 73.5014C163.055 73.9282 162.949 74.4207 162.998 74.9101C163.047 75.3995 163.248 75.8614 163.572 76.2313C164.57 77.6645 165.43 78.1149 166.223 77.5689Z" fill="#00C853"/>
<path d="M124.065 102.929C126.797 98.6919 130.515 95.1781 134.901 92.6881C139.287 90.1981 144.211 88.8057 149.252 88.63C154.294 88.4543 159.303 89.5005 163.852 91.6792C168.401 93.8579 172.355 97.1043 175.375 101.141C176.988 96.9786 179.475 93.2098 182.669 90.0889C185.863 86.9679 189.689 84.5672 193.89 83.0486C198.091 81.5301 202.569 80.929 207.022 81.2858C211.475 81.6425 215.8 82.949 219.705 85.117L189.118 144.314L124.065 102.929Z" fill="#00C853"/>
<path d="M124.066 107.024C123.279 107.028 122.51 106.8 121.853 106.369C120.941 105.781 120.299 104.857 120.069 103.797C119.838 102.738 120.038 101.631 120.623 100.718C123.413 96.3704 127.123 92.6874 131.492 89.9287C135.862 87.17 140.784 85.4029 145.912 84.7521C151.039 84.1013 156.247 84.5826 161.168 86.1621C166.089 87.7416 170.603 90.3808 174.392 93.8934C179.155 86.1295 186.735 80.5042 195.551 78.1922C204.366 75.8802 213.734 77.0604 221.699 81.4862C222.175 81.7479 222.594 82.1006 222.933 82.5242C223.272 82.9477 223.524 83.4338 223.675 83.9548C223.826 84.4757 223.873 85.0212 223.813 85.5602C223.753 86.0992 223.587 86.6211 223.325 87.0961C223.063 87.5711 222.71 87.9899 222.286 88.3286C221.862 88.6673 221.376 88.9192 220.854 89.0701C220.333 89.2209 219.787 89.2676 219.248 89.2076C218.708 89.1476 218.186 88.9821 217.71 88.7204C214.318 86.8356 210.561 85.6996 206.692 85.389C202.823 85.0784 198.932 85.6005 195.283 86.92C191.633 88.2395 188.309 90.3257 185.534 93.038C182.76 95.7503 180.6 99.0254 179.201 102.643C178.937 103.325 178.496 103.925 177.922 104.379C177.349 104.833 176.664 105.126 175.939 105.226C175.214 105.326 174.475 105.231 173.799 104.949C173.124 104.668 172.536 104.211 172.097 103.625C169.481 100.11 166.051 97.2793 162.101 95.3768C158.151 93.4743 153.799 92.5562 149.416 92.7011C145.034 92.846 140.752 94.0495 136.937 96.2087C133.121 98.3679 129.886 101.419 127.508 105.1C127.143 105.684 126.636 106.166 126.034 106.503C125.432 106.839 124.755 107.019 124.066 107.024Z" fill="#515979"/>
<path d="M228.871 212.451C228.178 212.449 227.496 212.27 226.89 211.933L195.115 194.393C194.261 193.922 193.602 193.161 193.259 192.247C192.916 191.334 192.911 190.328 193.244 189.411C202.023 165.174 214.577 142.473 230.442 122.147C230.824 121.656 231.313 121.258 231.871 120.984C232.43 120.71 233.044 120.566 233.666 120.564C234.361 120.559 235.044 120.738 235.647 121.083L267.436 138.622C267.954 138.909 268.403 139.305 268.753 139.782C269.104 140.259 269.346 140.807 269.464 141.387C269.582 141.966 269.573 142.565 269.438 143.141C269.302 143.717 269.043 144.257 268.679 144.723C253.351 164.378 241.217 186.322 232.723 209.749C232.442 210.545 231.92 211.235 231.23 211.724C230.541 212.212 229.717 212.476 228.871 212.478V212.451Z" fill="#7DDF96"/>
<path d="M233.666 124.659L265.441 142.198C249.856 162.199 237.515 184.525 228.871 208.356L197.096 190.817C205.74 166.985 218.081 144.66 233.666 124.659ZM233.666 116.469C232.417 116.469 231.184 116.754 230.061 117.303C228.939 117.852 227.957 118.65 227.191 119.636C211.063 140.3 198.302 163.378 189.378 188.019C188.712 189.853 188.723 191.865 189.409 193.691C190.095 195.518 191.411 197.04 193.121 197.983L224.896 215.522C226.11 216.188 227.472 216.54 228.858 216.546C230.549 216.541 232.197 216.014 233.576 215.037C234.956 214.059 235.999 212.679 236.562 211.086C244.908 188.061 256.835 166.494 271.903 147.18C272.631 146.247 273.148 145.166 273.419 144.013C273.689 142.861 273.706 141.663 273.468 140.503C273.23 139.343 272.744 138.249 272.042 137.295C271.34 136.341 270.44 135.551 269.403 134.978L257.245 128.303L237.669 117.493C236.46 116.825 235.102 116.473 233.721 116.469H233.666Z" fill="#515979"/>
<path d="M222.259 177.441C219.692 176.092 217.485 174.149 215.821 171.775C214.158 169.401 213.087 166.663 212.697 163.791C209.309 170.343 206.222 177.045 203.435 183.897C204.85 184.732 205.928 186.035 206.482 187.581C207.036 189.126 207.031 190.817 206.468 192.359L221.809 200.822C222.054 200.106 222.456 199.454 222.985 198.913C223.514 198.373 224.157 197.956 224.868 197.695C225.578 197.433 226.338 197.333 227.092 197.402C227.846 197.471 228.575 197.707 229.226 198.092C231.959 191.258 235.041 184.561 238.475 178C235.948 179.296 233.132 179.925 230.294 179.827C227.456 179.729 224.69 178.908 222.259 177.441ZM222.505 189.398C222.25 189.975 221.873 190.49 221.4 190.908C220.927 191.326 220.369 191.637 219.764 191.82C219.16 192.003 218.523 192.053 217.897 191.967C217.272 191.881 216.672 191.661 216.139 191.322C214.927 190.69 213.983 189.642 213.481 188.371C212.979 187.1 212.953 185.691 213.407 184.402C213.674 183.823 214.062 183.307 214.544 182.89C215.027 182.473 215.594 182.165 216.206 181.985C216.818 181.805 217.462 181.758 218.094 181.848C218.726 181.938 219.331 182.162 219.869 182.505C221.08 183.14 222.016 184.195 222.502 185.472C222.988 186.75 222.989 188.16 222.505 189.438V189.398Z" fill="#00C853"/>
<path d="M231.153 133.681C226.836 139.678 222.801 145.856 219.049 152.217C221.698 151.001 224.601 150.442 227.512 150.587C230.422 150.732 233.255 151.577 235.77 153.049C238.297 154.326 240.457 156.225 242.044 158.568C243.632 160.912 244.594 163.621 244.841 166.439C248.584 160.07 252.614 153.891 256.93 147.904C256.259 147.561 255.671 147.073 255.212 146.475C254.752 145.877 254.432 145.184 254.273 144.447C254.115 143.71 254.123 142.947 254.297 142.213C254.47 141.479 254.805 140.794 255.277 140.205L239.936 131.743C238.928 133.038 237.498 133.94 235.894 134.294C234.29 134.648 232.613 134.431 231.153 133.681ZM246.029 146.88C245.21 147.957 244.027 148.701 242.7 148.972C241.373 149.243 239.993 149.024 238.816 148.354C238.239 148.083 237.727 147.691 237.314 147.205C236.901 146.72 236.597 146.151 236.422 145.538C236.247 144.925 236.206 144.282 236.301 143.652C236.396 143.021 236.625 142.419 236.972 141.884C237.826 140.822 239.033 140.101 240.374 139.851C241.714 139.6 243.1 139.837 244.281 140.519C244.843 140.791 245.341 141.181 245.741 141.661C246.141 142.141 246.434 142.701 246.6 143.303C246.765 143.906 246.8 144.536 246.702 145.153C246.603 145.77 246.374 146.359 246.029 146.88Z" fill="#00C853"/>
<path d="M232.04 164.078C231.248 163.641 230.551 164.269 229.527 165.757C227.696 168.309 226.016 170.234 222.696 168.582C220.606 167.436 219.869 165.293 220.825 162.59L219.295 161.744C219.828 160.748 220.388 159.751 220.948 158.769L222.464 159.615C222.989 158.926 223.681 158.383 224.474 158.036C225.268 157.69 226.137 157.552 227 157.636H227.205H227.751C227.628 158.837 227.519 160.038 227.409 161.239H226.658C226.184 161.194 225.707 161.303 225.299 161.548C224.891 161.794 224.572 162.164 224.39 162.604C223.612 163.969 223.584 164.774 224.39 165.252C225.196 165.73 225.852 164.965 226.863 163.532C228.584 161.048 230.579 159.028 233.803 160.802C235.934 161.976 236.535 164.16 235.661 166.863L237.245 167.736C236.699 168.733 236.139 169.729 235.606 170.725L234.049 169.879C233.524 170.69 232.779 171.334 231.9 171.735C231.022 172.136 230.046 172.279 229.09 172.145L228.379 172.036L228.912 168.446H229.622C230.136 168.491 230.65 168.368 231.086 168.094C231.523 167.821 231.858 167.412 232.04 166.931C232.887 165.539 232.901 164.556 232.04 164.078Z" fill="#00C853"/>
<path d="M274.348 194.38C271.616 190.142 267.899 186.628 263.513 184.138C259.127 181.648 254.202 180.256 249.161 180.08C244.119 179.905 239.11 180.951 234.561 183.129C230.012 185.308 226.059 188.555 223.038 192.592C221.425 188.429 218.938 184.66 215.744 181.539C212.551 178.418 208.724 176.017 204.523 174.499C200.323 172.98 195.845 172.379 191.392 172.736C186.939 173.093 182.614 174.399 178.709 176.567L209.295 235.764L274.348 194.38Z" fill="#00C853"/>
<path d="M274.348 198.474C273.664 198.475 272.99 198.304 272.389 197.977C271.787 197.65 271.277 197.179 270.906 196.604C268.534 192.918 265.305 189.861 261.493 187.695C257.682 185.528 253.401 184.317 249.019 184.164C244.636 184.011 240.282 184.921 236.328 186.817C232.374 188.712 228.939 191.537 226.317 195.048C225.878 195.634 225.29 196.091 224.614 196.372C223.939 196.654 223.2 196.749 222.475 196.649C221.75 196.549 221.065 196.256 220.491 195.802C219.918 195.348 219.476 194.748 219.213 194.066C217.811 190.451 215.649 187.178 212.873 184.469C210.098 181.76 206.773 179.676 203.124 178.36C199.474 177.043 195.584 176.523 191.717 176.836C187.849 177.148 184.094 178.285 180.703 180.171C179.756 180.672 178.65 180.783 177.622 180.479C176.594 180.175 175.726 179.481 175.204 178.546C174.683 177.61 174.548 176.508 174.831 175.474C175.113 174.441 175.789 173.559 176.714 173.018C184.675 168.594 194.038 167.412 202.849 169.719C211.661 172.025 219.241 177.643 224.008 185.398C227.797 181.886 232.311 179.246 237.232 177.667C242.153 176.087 247.361 175.606 252.489 176.257C257.616 176.908 262.538 178.675 266.908 181.434C271.277 184.192 274.987 187.875 277.777 192.223C278.362 193.136 278.562 194.243 278.331 195.302C278.101 196.362 277.459 197.286 276.547 197.874C275.888 198.284 275.124 198.492 274.348 198.474Z" fill="#515979"/>
<path d="M208.148 298.469C209.574 297.686 211.128 297.164 212.738 296.927C214.324 296.708 215.933 296.708 217.519 296.927C219.189 297.129 220.811 297.618 222.314 298.373C223.993 299.178 225.412 300.435 226.412 302.004C226.681 302.456 226.818 302.974 226.809 303.499C226.8 304.025 226.646 304.538 226.362 304.981C226.079 305.424 225.679 305.779 225.205 306.008C224.731 306.237 224.203 306.33 223.68 306.276L222.901 306.208C221.777 306.104 220.66 305.936 219.555 305.703C218.462 305.498 217.328 305.253 216.167 304.966C215.006 304.679 213.749 304.379 212.492 304.024C211.155 303.674 209.849 303.218 208.585 302.659L208.298 302.523C207.77 302.262 207.367 301.802 207.177 301.244C206.988 300.686 207.027 300.076 207.287 299.547C207.45 299.104 207.752 298.726 208.148 298.469Z" fill="#515979"/>
<path d="M184.719 302.536C183.459 303.092 182.158 303.549 180.826 303.901C179.556 304.256 178.326 304.557 177.151 304.843C175.977 305.13 174.843 305.376 173.75 305.58C172.645 305.813 171.527 305.982 170.403 306.085L169.638 306.154C169.266 306.189 168.89 306.151 168.532 306.041C168.175 305.932 167.842 305.752 167.554 305.514C167.266 305.276 167.028 304.983 166.853 304.652C166.679 304.321 166.571 303.96 166.537 303.587C166.485 302.993 166.619 302.397 166.919 301.881C167.923 300.315 169.342 299.059 171.018 298.251C172.525 297.495 174.152 297.006 175.826 296.804C177.408 296.585 179.012 296.585 180.594 296.804C182.204 297.038 183.759 297.56 185.184 298.346C185.698 298.636 186.077 299.118 186.235 299.686C186.394 300.254 186.321 300.862 186.031 301.376C185.813 301.768 185.479 302.083 185.075 302.277L184.719 302.536Z" fill="#515979"/>
<path d="M196.686 375.246C191.614 375.246 186.75 373.233 183.163 369.649C179.576 366.066 177.561 361.205 177.561 356.137C177.561 355.413 177.849 354.719 178.362 354.207C178.874 353.695 179.569 353.407 180.293 353.407H213.079C213.804 353.407 214.499 353.695 215.011 354.207C215.524 354.719 215.812 355.413 215.812 356.137C215.812 361.205 213.797 366.066 210.21 369.649C206.623 373.233 201.759 375.246 196.686 375.246Z" fill="#515979"/>
<path d="M213.079 356.137C213.079 360.481 211.352 364.647 208.278 367.719C205.204 370.791 201.034 372.516 196.686 372.516C192.339 372.516 188.169 370.791 185.095 367.719C182.021 364.647 180.293 360.481 180.293 356.137H213.079ZM213.079 350.678H180.293C178.844 350.678 177.454 351.253 176.43 352.277C175.405 353.301 174.829 354.689 174.829 356.137C174.8 361.929 177.075 367.496 181.154 371.612C185.232 375.728 190.78 378.056 196.577 378.085C202.374 378.114 207.945 375.841 212.065 371.766C216.184 367.691 218.515 362.148 218.544 356.356V356.137C218.544 354.689 217.968 353.301 216.943 352.277C215.918 351.253 214.529 350.678 213.079 350.678Z" fill="#515979"/>
<path d="M196.632 372.516C203.369 372.516 208.831 370.072 208.831 367.057C208.831 364.041 203.369 361.597 196.632 361.597C189.894 361.597 184.433 364.041 184.433 367.057C184.433 370.072 189.894 372.516 196.632 372.516Z" fill="#EF7D7D"/>
<path d="M203.298 326.559C202.211 326.559 201.169 326.128 200.4 325.36C199.632 324.592 199.2 323.55 199.2 322.464C199.153 321.818 198.862 321.213 198.387 320.772C197.912 320.331 197.287 320.085 196.638 320.085C195.99 320.085 195.365 320.331 194.89 320.772C194.415 321.213 194.124 321.818 194.077 322.464C194.077 323.55 193.645 324.592 192.877 325.36C192.108 326.128 191.066 326.559 189.979 326.559C188.892 326.559 187.85 326.128 187.081 325.36C186.312 324.592 185.881 323.55 185.881 322.464C185.98 319.68 187.157 317.043 189.163 315.108C191.17 313.173 193.85 312.092 196.638 312.092C199.427 312.092 202.107 313.173 204.114 315.108C206.12 317.043 207.297 319.68 207.396 322.464C207.396 323.55 206.965 324.592 206.196 325.36C205.427 326.128 204.385 326.559 203.298 326.559Z" fill="#515979"/>
<path d="M228.816 309.156H246.575C247.753 309.156 248.882 309.624 249.715 310.456C250.547 311.288 251.015 312.416 251.015 313.592C251.015 314.769 250.547 315.897 249.715 316.729C248.882 317.561 247.753 318.028 246.575 318.028H228.816V309.156Z" fill="#515979"/>
<path d="M223.27 342.433C218.854 342.433 214.618 340.68 211.495 337.56C208.372 334.44 206.618 330.208 206.618 325.795V320.253C206.618 319.077 207.085 317.948 207.918 317.117C208.751 316.285 209.88 315.817 211.057 315.817H235.483C236.66 315.817 237.79 316.285 238.622 317.117C239.455 317.948 239.923 319.077 239.923 320.253V325.795C239.923 330.208 238.168 334.44 235.045 337.56C231.922 340.68 227.687 342.433 223.27 342.433Z" fill="#75A5C3"/>
<path d="M146.688 309.156H164.447V318.028H146.688C145.51 318.028 144.381 317.561 143.548 316.729C142.716 315.897 142.248 314.769 142.248 313.592C142.248 312.416 142.716 311.288 143.548 310.456C144.381 309.624 145.51 309.156 146.688 309.156Z" fill="#515979"/>
<path d="M169.993 342.433C165.577 342.433 161.341 340.68 158.218 337.56C155.095 334.44 153.341 330.208 153.341 325.795V320.253C153.341 319.077 153.808 317.948 154.641 317.117C155.474 316.285 156.603 315.817 157.78 315.817H182.206C183.383 315.817 184.513 316.285 185.345 317.117C186.178 317.948 186.646 319.077 186.646 320.253V325.795C186.646 330.208 184.891 334.44 181.768 337.56C178.645 340.68 174.41 342.433 169.993 342.433Z" fill="#75A5C3"/>
<g style="mix-blend-mode:overlay" opacity="0.5">
<g style="mix-blend-mode:overlay" opacity="0.5">
<path d="M211.057 344.645H217.724L228.816 313.592H222.164L211.057 344.645Z" fill="white"/>
</g>
</g>
<g style="mix-blend-mode:overlay" opacity="0.5">
<g style="mix-blend-mode:overlay" opacity="0.5">
<path d="M221.057 344.645H225.497L236.59 313.592H232.15L221.057 344.645Z" fill="white"/>
</g>
</g>
<g style="mix-blend-mode:overlay" opacity="0.5">
<g style="mix-blend-mode:overlay" opacity="0.5">
<path d="M157.781 344.645H164.447L175.54 313.592H168.887L157.781 344.645Z" fill="white"/>
</g>
</g>
<g style="mix-blend-mode:overlay" opacity="0.5">
<g style="mix-blend-mode:overlay" opacity="0.5">
<path d="M167.78 344.645H172.22L183.312 313.592H178.873L167.78 344.645Z" fill="white"/>
</g>
</g>
<path d="M235.483 315.817C236.66 315.817 237.79 316.285 238.622 317.117C239.455 317.948 239.923 319.077 239.923 320.253V325.795C239.923 330.208 238.168 334.44 235.045 337.56C231.922 340.68 227.687 342.433 223.27 342.433C218.854 342.433 214.618 340.68 211.495 337.56C208.372 334.44 206.618 330.208 206.618 325.795V320.253C206.618 319.077 207.085 317.948 207.918 317.117C208.751 316.285 209.88 315.817 211.057 315.817H235.483ZM235.483 307.628H211.057C207.707 307.631 204.495 308.963 202.126 311.33C199.757 313.697 198.425 316.906 198.421 320.253V325.795C198.421 332.38 201.039 338.695 205.699 343.351C210.359 348.007 216.68 350.623 223.27 350.623C229.86 350.623 236.181 348.007 240.841 343.351C245.501 338.695 248.119 332.38 248.119 325.795V320.253C248.115 316.906 246.783 313.697 244.414 311.33C242.045 308.963 238.833 307.631 235.483 307.628Z" fill="#515979"/>
<path d="M246.589 312.487H244.363C243.752 312.487 243.256 312.982 243.256 313.592V313.606C243.256 314.217 243.752 314.712 244.363 314.712H246.589C247.2 314.712 247.696 314.217 247.696 313.606V313.592C247.696 312.982 247.2 312.487 246.589 312.487Z" fill="#ACC9DB"/>
<path d="M182.206 315.817C183.383 315.817 184.513 316.285 185.345 317.117C186.178 317.948 186.646 319.077 186.646 320.253V325.795C186.646 330.208 184.891 334.44 181.768 337.56C178.645 340.68 174.41 342.433 169.993 342.433C165.577 342.433 161.341 340.68 158.218 337.56C155.095 334.44 153.341 330.208 153.341 325.795V320.253C153.341 319.077 153.808 317.948 154.641 317.117C155.474 316.285 156.603 315.817 157.78 315.817H182.206ZM182.206 307.628H157.78C154.43 307.631 151.218 308.963 148.849 311.33C146.48 313.697 145.148 316.906 145.144 320.253V325.795C145.144 332.38 147.762 338.695 152.422 343.351C157.082 348.007 163.403 350.623 169.993 350.623C176.583 350.623 182.904 348.007 187.564 343.351C192.224 338.695 194.842 332.38 194.842 325.795V320.253C194.838 316.906 193.506 313.697 191.137 311.33C188.768 308.963 185.556 307.631 182.206 307.628Z" fill="#515979"/>
<path d="M148.915 312.487H146.688C146.077 312.487 145.581 312.982 145.581 313.592V313.606C145.581 314.217 146.077 314.712 146.688 314.712H148.915C149.526 314.712 150.021 314.217 150.021 313.606V313.592C150.021 312.982 149.526 312.487 148.915 312.487Z" fill="#ACC9DB"/>
</svg>
