<svg width="399" height="432" viewBox="0 0 399 432" fill="none" xmlns="http://www.w3.org/2000/svg">
<path d="M91.5822 106.232C90.9912 106.201 90.414 106.042 89.8904 105.766C89.3668 105.49 88.9092 105.105 88.549 104.635C73.5501 85.1507 55.5668 68.153 35.2628 54.2696C34.7736 53.9347 34.363 53.4977 34.0593 52.9889C33.7556 52.4801 33.566 51.9115 33.5037 51.3223C33.4413 50.7332 33.5077 50.1376 33.6982 49.5766C33.8886 49.0155 34.1987 48.5025 34.607 48.0728L59.2006 22.1391C59.5836 21.7341 60.0453 21.4114 60.5574 21.1908C61.0696 20.9702 61.6214 20.8563 62.1792 20.8561C63.0089 20.8568 63.8188 21.1091 64.5019 21.5795C85.5212 35.9496 104.141 53.5412 119.674 73.7062C120.268 74.4789 120.567 75.4381 120.517 76.4113C120.467 77.3845 120.071 78.308 119.4 79.0157L94.8067 104.949C94.4253 105.353 93.9658 105.674 93.4562 105.895C92.9465 106.116 92.3973 106.23 91.8418 106.232H91.5822Z" fill="#7DDF96"/>
<path d="M62.2475 24.91C82.8853 39.0493 101.167 56.3453 116.422 76.1631L91.8282 102.097C76.5584 82.2945 58.268 65.013 37.6265 50.8846L62.2201 24.9509L62.2475 24.91ZM62.2201 16.7613C61.107 16.7635 60.0059 16.9922 58.9841 17.4334C57.9622 17.8745 57.0411 18.519 56.2767 19.3274L31.683 45.2611C30.8717 46.1239 30.2573 47.1522 29.882 48.2752C29.5068 49.3981 29.3798 50.5889 29.5097 51.7656C29.6395 52.9423 30.0232 54.0769 30.6343 55.0912C31.2454 56.1055 32.0693 56.9754 33.0494 57.641C52.955 71.2999 70.5864 88.0014 85.2972 107.133C86.0204 108.071 86.9384 108.841 87.9881 109.39C89.0377 109.939 90.194 110.254 91.3773 110.314H91.8008C92.9081 110.322 94.0056 110.106 95.0271 109.679C96.0486 109.252 96.9729 108.623 97.7443 107.829L109.003 95.9545L122.365 81.8548C123.71 80.4384 124.504 78.5888 124.604 76.6392C124.704 74.6897 124.104 72.7686 122.912 71.222C107.152 50.7061 88.2569 32.7973 66.9203 18.1536C65.5495 17.2237 63.9317 16.7246 62.2748 16.7204L62.2201 16.7613Z" fill="#515979"/>
<path d="M68.7648 52.2222C70.686 50.0836 73.0946 48.4387 75.7868 47.4266C78.4789 46.4145 81.3755 46.065 84.2314 46.4076C78.7662 41.5575 73.1279 36.9577 67.3165 32.6082C66.1678 33.7504 64.6559 34.456 63.0418 34.603C61.4278 34.75 59.813 34.3293 58.4764 33.4135L46.5895 45.9435C47.2088 46.3568 47.7285 46.9024 48.1109 47.5409C48.4934 48.1793 48.7291 48.8946 48.801 49.6352C48.8729 50.3757 48.7792 51.123 48.5267 51.823C48.2742 52.523 47.8692 53.1581 47.341 53.6827C53.1888 58.0231 58.8271 62.6229 64.2559 67.4821C63.6474 64.7654 63.742 61.9385 64.531 59.2685C65.3199 56.5984 66.777 54.1733 68.7648 52.2222ZM57.2741 49.4923C56.7863 49.1051 56.3879 48.6173 56.106 48.0622C55.8242 47.5072 55.6655 46.8979 55.6409 46.2759C55.6162 45.654 55.7262 45.0341 55.9632 44.4585C56.2003 43.8829 56.5589 43.3652 57.0145 42.9407C57.9239 41.9489 59.1605 41.3175 60.4979 41.1621C61.8352 41.0067 63.1839 41.3377 64.2969 42.0944C64.7827 42.4921 65.1776 42.9892 65.4551 43.5521C65.7326 44.115 65.8862 44.7307 65.9056 45.3578C65.925 45.985 65.8098 46.609 65.5676 47.188C65.3255 47.7669 64.9621 48.2874 64.5019 48.7143C63.6022 49.7068 62.3688 50.3345 61.0362 50.4779C59.7036 50.6213 58.3647 50.2706 57.2741 49.4923Z" fill="#00C853"/>
<path d="M108.429 71.5223C103.774 65.9261 98.8692 60.5528 93.7137 55.4025C94.214 58.2307 94.0272 61.1375 93.1688 63.8785C92.3105 66.6196 90.8058 69.1146 88.7813 71.1537C86.9323 73.238 84.5818 74.8169 81.952 75.7412C79.3222 76.6655 76.4999 76.9046 73.7518 76.436C78.9074 81.5773 83.8124 86.9505 88.467 92.5558C88.9638 92.0005 89.5776 91.5621 90.2644 91.2723C90.9511 90.9824 91.6937 90.8483 92.4386 90.8796C93.1834 90.911 93.9121 91.1069 94.572 91.4534C95.2319 91.7999 95.8067 92.2883 96.255 92.8834L108.128 80.3534C107.147 79.0741 106.641 77.4945 106.696 75.8841C106.751 74.2736 107.363 72.732 108.429 71.5223ZM92.1151 82.4417C91.2806 81.395 90.8599 80.0786 90.933 78.7425C91.006 77.4064 91.5677 76.1436 92.5113 75.1939C92.9141 74.712 93.416 74.3221 93.9828 74.0508C94.5496 73.7795 95.1681 73.6331 95.7965 73.6214C96.425 73.6098 97.0485 73.7332 97.625 73.9833C98.2015 74.2334 98.7175 74.6044 99.1379 75.0711C99.9535 76.1419 100.357 77.4699 100.274 78.8128C100.191 80.1558 99.628 81.4244 98.687 82.3871C98.2854 82.8644 97.7852 83.2493 97.2207 83.5155C96.6563 83.7817 96.0409 83.9229 95.4168 83.9294C94.7926 83.9359 94.1744 83.8075 93.6045 83.5531C93.0347 83.2987 92.5266 82.9242 92.1151 82.4554V82.4417Z" fill="#00C853"/>
<path d="M79.2171 64.8614C79.8319 64.2062 79.4084 63.3873 78.247 62.036C76.2522 59.6747 74.8312 57.5863 77.2359 54.7882C78.8482 53.0821 81.0889 52.9046 83.4253 54.4879L84.5457 53.2322L86.9914 55.5526L85.8027 56.7947C86.3284 57.4646 86.6745 58.2573 86.8083 59.0979C86.9422 59.9386 86.8594 60.7994 86.5678 61.5992C86.5621 61.6678 86.5385 61.7336 86.4995 61.7903C86.4995 61.9678 86.3902 62.1452 86.3219 62.309L82.9744 61.0942L83.1794 60.3844C83.3408 59.9407 83.3549 59.4569 83.2195 59.0045C83.0842 58.5522 82.8066 58.1554 82.4279 57.873C81.2666 56.781 80.5424 56.5763 79.8866 57.2724C79.2307 57.9685 79.7909 58.7329 80.925 60.0023C82.8515 62.268 84.2998 64.6567 81.7858 67.3046C80.1462 69.0381 77.8918 69.12 75.5417 67.564L74.312 68.9289L71.8663 66.6085L73.0687 65.3391C72.4226 64.6409 71.9893 63.7729 71.8199 62.8372C71.6505 61.9015 71.7519 60.937 72.1123 60.0569L72.3992 59.4017L75.7057 60.7666C75.61 60.985 75.528 61.2034 75.4461 61.4218C75.2647 61.9089 75.2524 62.4427 75.4109 62.9377C75.5695 63.4327 75.8898 63.8602 76.3205 64.1516C77.5502 65.2982 78.4929 65.5166 79.2171 64.8614Z" fill="#00C853"/>
<path d="M28.8827 297.131H28.4728C27.8813 297.072 27.3098 296.886 26.7979 296.584C26.2859 296.282 25.8457 295.873 25.5079 295.384L4.80824 265.574C4.2545 264.774 4.00401 263.803 4.10165 262.835C4.19929 261.867 4.63867 260.966 5.34111 260.292C23.9624 242.451 45.2838 227.655 68.5194 216.45C69.0785 216.185 69.6904 216.05 70.3093 216.055C70.9701 216.056 71.6209 216.216 72.2061 216.523C72.7914 216.83 73.2938 217.273 73.6704 217.815L94.3837 247.612C94.721 248.098 94.9489 248.651 95.0517 249.234C95.1544 249.816 95.1296 250.414 94.979 250.986C94.8284 251.558 94.5555 252.091 94.1792 252.547C93.8028 253.004 93.3319 253.374 92.7988 253.631C70.336 264.439 49.72 278.719 31.711 295.944C30.9576 296.691 29.9438 297.116 28.8827 297.131Z" fill="#7DDF96"/>
<path d="M70.3087 220.149L91.022 249.946C68.1731 260.962 47.203 275.504 28.8821 293.037C21.9686 283.109 15.0641 273.177 8.1688 263.24C26.4922 245.71 47.4618 231.169 70.3087 220.149ZM70.3087 211.96C69.0748 211.959 67.8564 212.235 66.7426 212.765C43.1252 224.156 21.4535 239.195 2.52592 257.33C1.11755 258.678 0.236557 260.484 0.0412223 262.423C-0.154113 264.362 0.349006 266.307 1.4602 267.908L22.1735 297.705C22.8491 298.677 23.7279 299.492 24.7493 300.093C25.7706 300.694 26.9103 301.067 28.0896 301.185C28.3629 301.185 28.6362 301.185 28.9094 301.185C31.0116 301.181 33.0317 300.369 34.5523 298.919C52.2469 281.98 72.5026 267.931 94.5744 257.289C95.6426 256.774 96.5863 256.035 97.3405 255.12C98.0946 254.206 98.6412 253.139 98.9425 251.993C99.2439 250.848 99.2928 249.65 99.0859 248.484C98.8791 247.317 98.4213 246.209 97.7443 245.237L91.4183 236.133L77.0446 215.468C76.2885 214.383 75.2809 213.498 74.1079 212.887C72.935 212.276 71.6315 211.958 70.3087 211.96Z" fill="#515979"/>
<path d="M36.6428 262.435C34.9273 260.083 33.8034 257.354 33.3659 254.477C32.9283 251.6 33.19 248.66 34.1287 245.906C28.1716 250.273 22.4286 254.91 16.8995 259.814C17.7971 261.191 18.1858 262.837 17.9987 264.469C17.8117 266.101 17.0605 267.616 15.8748 268.755L25.8626 283.127C26.4012 282.597 27.0514 282.194 27.7658 281.947C28.4802 281.7 29.2407 281.615 29.992 281.699C30.7434 281.783 31.4666 282.033 32.1089 282.431C32.7513 282.829 33.2966 283.365 33.7052 284.001C39.2433 279.087 44.9818 274.446 50.9207 270.079C48.0859 270.126 45.286 269.449 42.787 268.111C40.288 266.773 38.1729 264.819 36.6428 262.435ZM31.5601 273.272C31.0732 273.676 30.505 273.97 29.8942 274.134C29.2834 274.298 28.6443 274.329 28.0205 274.224C27.3968 274.119 26.803 273.881 26.2797 273.526C25.7564 273.171 25.3158 272.707 24.9881 272.167C24.1991 271.061 23.8328 269.71 23.9557 268.358C24.0785 267.005 24.6823 265.742 25.6576 264.796C26.1544 264.397 26.7308 264.109 27.3484 263.951C27.9659 263.793 28.6101 263.768 29.2378 263.879C29.8655 263.991 30.4621 264.235 30.9876 264.595C31.513 264.956 31.9551 265.425 32.2842 265.97C33.0615 267.071 33.4161 268.415 33.2831 269.756C33.1501 271.097 32.5385 272.345 31.5601 273.272Z" fill="#00C853"/>
<path d="M64.051 227.111C57.52 230.577 51.1439 234.331 44.9226 238.371C47.8396 238.459 50.6921 239.25 53.2374 240.676C55.7828 242.101 57.9457 244.12 59.5422 246.561C61.243 248.824 62.3365 251.485 62.7191 254.289C63.1017 257.094 62.7607 259.949 61.7283 262.585C67.904 258.545 74.2574 254.791 80.7884 251.324C80.3387 250.718 80.0297 250.019 79.8836 249.279C79.7375 248.538 79.7581 247.774 79.9438 247.043C80.1295 246.311 80.4757 245.63 80.9573 245.049C81.4389 244.467 82.0439 244 82.7285 243.681L72.7954 229.308C71.3099 230.017 69.6232 230.186 68.0266 229.784C66.43 229.383 65.0238 228.437 64.051 227.111ZM71.5384 245.537C70.3229 246.139 68.9299 246.28 67.6181 245.934C66.3064 245.587 65.1651 244.777 64.4063 243.653C64.0109 243.155 63.7268 242.578 63.5729 241.96C63.4191 241.343 63.3991 240.7 63.5142 240.075C63.6294 239.449 63.877 238.855 64.2406 238.333C64.6042 237.811 65.0752 237.373 65.6223 237.047C66.8548 236.459 68.2581 236.334 69.5754 236.695C70.8926 237.056 72.0357 237.879 72.7954 239.013C73.19 239.506 73.4728 240.079 73.6243 240.692C73.7758 241.306 73.7924 241.944 73.6729 242.564C73.5534 243.185 73.3007 243.772 72.9322 244.285C72.5637 244.798 72.0882 245.225 71.5384 245.537Z" fill="#00C853"/>
<path d="M51.3579 254.764C50.8387 254.013 49.9916 254.273 48.3521 255.146C45.6194 256.62 43.2147 257.603 40.933 254.641C39.5667 252.689 39.8673 250.437 41.9167 248.431L40.9603 247.052C41.8894 246.397 42.8322 245.687 43.7749 245.114L44.7723 246.547C45.5465 246.162 46.4069 245.982 47.2707 246.025C48.1345 246.068 48.9727 246.333 49.7047 246.793L49.8823 246.888L50.3469 247.175C49.7184 248.185 49.0762 249.209 48.4477 250.246L47.7919 249.782C47.3846 249.531 46.9076 249.417 46.4306 249.456C45.9536 249.495 45.5018 249.686 45.1412 250C43.7749 250.929 43.4607 251.611 44.0072 252.403C44.5537 253.194 45.3735 252.798 46.9857 251.952C49.6364 250.505 52.3144 249.564 54.4321 252.607C55.7985 254.6 55.4296 256.839 53.3937 258.859L54.4321 260.347C53.4894 260.988 52.5603 261.643 51.6995 262.298L50.5245 260.893C49.6944 261.392 48.7385 261.643 47.7699 261.617C46.8013 261.59 45.8606 261.287 45.0592 260.742L44.4717 260.319C45.1685 259.323 45.838 258.326 46.5622 257.344L47.1497 257.726C47.5926 257.988 48.1085 258.101 48.6205 258.047C49.1326 257.992 49.6134 257.775 49.9916 257.426C51.4672 256.429 51.8908 255.556 51.3579 254.764Z" fill="#00C853"/>
<path d="M113.908 361.215C113.203 361.216 112.51 361.033 111.899 360.682L80.2145 342.938C79.3614 342.462 78.7067 341.697 78.3685 340.781C78.0303 339.865 78.0308 338.858 78.37 337.943C87.3013 313.763 99.9855 291.138 115.957 270.897C116.562 270.129 117.422 269.602 118.382 269.412C119.341 269.222 120.338 269.381 121.19 269.86L152.861 287.604C153.379 287.893 153.828 288.291 154.177 288.771C154.526 289.25 154.767 289.8 154.883 290.381C154.998 290.963 154.986 291.562 154.847 292.138C154.708 292.715 154.446 293.254 154.077 293.719C138.637 313.282 126.377 335.152 117.747 358.526C117.542 359.083 117.218 359.588 116.799 360.008C116.379 360.427 115.872 360.751 115.315 360.955C114.865 361.124 114.388 361.211 113.908 361.215Z" fill="#7DDF96"/>
<path d="M119.182 273.45L150.867 291.194C135.176 311.099 122.726 333.353 113.976 357.134L82.2913 339.39C91.0683 315.607 103.541 293.355 119.25 273.45H119.182ZM119.25 265.26C118.011 265.261 116.788 265.543 115.673 266.085C114.558 266.626 113.581 267.413 112.815 268.386C96.5495 288.954 83.6382 311.959 74.558 336.551C73.8833 338.38 73.8841 340.39 74.5604 342.219C75.2366 344.048 76.5439 345.576 78.247 346.528L109.918 364.272C111.145 364.961 112.528 365.323 113.935 365.323C115.605 365.311 117.231 364.789 118.596 363.828C119.961 362.867 121 361.512 121.573 359.945C130.058 336.951 142.116 315.436 157.302 296.19C158.036 295.26 158.559 294.182 158.836 293.031C159.112 291.88 159.136 290.683 158.905 289.521C158.674 288.36 158.193 287.263 157.497 286.305C156.8 285.347 155.904 284.552 154.87 283.973L140.086 275.716L123.185 266.27C121.964 265.58 120.585 265.218 119.182 265.219L119.25 265.26Z" fill="#515979"/>
<path d="M107.472 326.218C104.891 324.859 102.674 322.899 101.01 320.505C99.3452 318.11 98.2815 315.351 97.9082 312.46C94.4742 318.993 91.3499 325.677 88.5353 332.51C89.94 333.358 91.0056 334.667 91.5491 336.214C92.0927 337.761 92.0802 339.448 91.5139 340.987L106.803 349.531C107.055 348.819 107.463 348.173 107.996 347.638C108.53 347.103 109.176 346.693 109.887 346.438C110.599 346.184 111.358 346.09 112.11 346.165C112.862 346.239 113.588 346.48 114.236 346.869C117.059 340.045 120.188 333.366 123.622 326.832C121.099 328.105 118.293 328.717 115.468 328.609C112.643 328.502 109.892 327.679 107.472 326.218ZM107.636 338.175C107.379 338.752 106.999 339.266 106.524 339.683C106.048 340.099 105.489 340.408 104.883 340.588C104.276 340.769 103.639 340.816 103.013 340.727C102.387 340.637 101.787 340.414 101.256 340.072C100.056 339.422 99.1283 338.363 98.642 337.089C98.1558 335.814 98.1426 334.408 98.6051 333.125C98.8771 332.548 99.2692 332.037 99.755 331.624C100.241 331.211 100.809 330.907 101.422 330.731C102.035 330.555 102.679 330.512 103.31 330.605C103.941 330.698 104.545 330.924 105.081 331.268C106.27 331.913 107.185 332.968 107.655 334.235C108.125 335.503 108.118 336.898 107.636 338.161V338.175Z" fill="#00C853"/>
<path d="M116.613 282.458C112.259 288.428 108.187 294.579 104.398 300.912C107.057 299.719 109.965 299.181 112.875 299.345C115.786 299.509 118.614 300.37 121.122 301.854C123.639 303.149 125.786 305.062 127.358 307.414C128.931 309.766 129.879 312.48 130.112 315.299C133.901 308.929 137.969 302.773 142.313 296.831C141.642 296.485 141.057 295.993 140.6 295.393C140.143 294.792 139.826 294.097 139.671 293.358C139.517 292.62 139.529 291.856 139.707 291.123C139.886 290.389 140.225 289.705 140.701 289.119L125.412 280.561C124.397 281.852 122.962 282.749 121.355 283.095C119.748 283.442 118.071 283.216 116.613 282.458ZM131.424 295.753C130.587 296.813 129.394 297.536 128.066 297.786C126.737 298.037 125.363 297.8 124.196 297.118C123.633 296.843 123.133 296.452 122.731 295.971C122.329 295.49 122.034 294.93 121.863 294.327C121.693 293.724 121.652 293.092 121.743 292.472C121.835 291.852 122.056 291.258 122.393 290.73C123.248 289.648 124.468 288.914 125.825 288.663C127.182 288.412 128.584 288.661 129.771 289.365C130.328 289.647 130.819 290.044 131.211 290.531C131.602 291.017 131.886 291.581 132.042 292.186C132.199 292.79 132.224 293.421 132.118 294.036C132.011 294.651 131.775 295.236 131.424 295.753Z" fill="#00C853"/>
<path d="M117.324 312.869C116.531 312.419 115.834 313.046 114.796 314.521C112.951 317.059 111.257 318.984 107.964 317.25C105.888 316.09 105.232 313.934 106.12 311.245L104.603 310.385C105.15 309.388 105.71 308.406 106.27 307.409L107.787 308.269C108.316 307.583 109.011 307.044 109.808 306.702C110.604 306.361 111.474 306.228 112.337 306.317H112.541H113.088L112.719 309.907H111.981C111.505 309.861 111.026 309.969 110.616 310.215C110.205 310.46 109.884 310.831 109.7 311.272C108.907 312.637 108.88 313.442 109.7 313.92C110.519 314.398 111.161 313.647 112.186 312.214C113.935 309.743 115.93 307.737 119.154 309.484C121.272 310.671 121.887 312.855 120.972 315.558L122.557 316.445C121.996 317.428 121.436 318.424 120.89 319.421L119.346 318.561C118.813 319.369 118.061 320.008 117.178 320.405C116.295 320.801 115.317 320.938 114.359 320.799L113.648 320.69C113.839 319.489 114.017 318.288 114.222 317.1L114.919 317.182C115.432 317.228 115.946 317.104 116.383 316.831C116.819 316.557 117.155 316.148 117.337 315.667C118.157 314.316 118.184 313.347 117.324 312.869Z" fill="#00C853"/>
<path d="M276.253 90.9316C275.2 90.9311 274.187 90.5254 273.425 89.7987L247.465 65.1344C246.758 64.4642 246.314 63.5643 246.211 62.5963C246.108 61.6283 246.354 60.6554 246.905 59.8521C261.352 38.9161 279.012 20.3852 299.235 4.94105C299.955 4.38837 300.84 4.09068 301.749 4.0948C302.802 4.09532 303.815 4.50102 304.577 5.22769L330.537 29.892C330.966 30.299 331.301 30.7941 331.521 31.343C331.74 31.892 331.838 32.4819 331.807 33.0722C331.776 33.6627 331.616 34.2392 331.341 34.7623C331.065 35.2854 330.678 35.7426 330.209 36.1024C310.673 51.0249 293.612 68.9294 279.655 89.1572C279.319 89.6441 278.881 90.0524 278.371 90.354C277.862 90.6556 277.293 90.8433 276.704 90.9043C276.555 90.9282 276.404 90.9374 276.253 90.9316Z" fill="#7DDF96"/>
<path d="M301.748 8.18957L327.708 32.8538C307.829 48.037 290.469 66.2547 276.267 86.8368L250.307 62.1725C264.513 41.5936 281.873 23.3765 301.748 8.18957ZM301.748 1.34232e-08C299.951 -0.000102744 298.204 0.589775 296.775 1.67886C276.21 17.3836 258.25 36.2278 243.557 57.5181C242.447 59.1255 241.949 61.0761 242.152 63.0183C242.355 64.9604 243.246 66.7662 244.664 68.11L270.624 92.7742C272.15 94.2226 274.175 95.029 276.28 95.0264H277.128C278.308 94.8911 279.444 94.5013 280.459 93.8838C281.473 93.2663 282.341 92.436 283.003 91.4502C296.714 71.5881 313.475 54.0103 332.668 39.3646C333.611 38.6452 334.387 37.73 334.941 36.6821C335.495 35.6341 335.816 34.4784 335.879 33.2949C335.943 32.1113 335.749 30.928 335.31 29.8267C334.871 28.7255 334.198 27.7325 333.338 26.9164L313.881 8.42161L307.391 2.25213C305.869 0.807018 303.849 0.000872063 301.748 1.34232e-08V1.34232e-08Z" fill="#515979"/>
<path d="M277.66 55.7437C275.521 53.8182 273.878 51.4062 272.87 48.712C271.861 46.0178 271.518 43.1205 271.867 40.2654C266.994 45.6705 262.371 51.294 257.999 57.1359C259.143 58.2841 259.848 59.7968 259.99 61.4105C260.132 63.0243 259.703 64.6367 258.778 65.967L271.293 77.8692C271.708 77.2504 272.255 76.7316 272.895 76.3506C273.535 75.9696 274.253 75.736 274.995 75.6667C275.737 75.5974 276.485 75.6942 277.185 75.9501C277.884 76.2059 278.518 76.6144 279.04 77.1458C283.413 71.3039 288.035 65.6849 292.908 60.2889C290.189 60.879 287.365 60.7717 284.699 59.9769C282.033 59.1821 279.611 57.7258 277.66 55.7437ZM274.928 67.2091C274.541 67.6975 274.052 68.0963 273.496 68.378C272.939 68.6597 272.329 68.8176 271.705 68.841C271.082 68.8643 270.461 68.7525 269.885 68.5132C269.309 68.2739 268.792 67.9128 268.369 67.4548C267.38 66.5407 266.752 65.3024 266.599 63.9649C266.446 62.6274 266.779 61.2795 267.536 60.1661C267.936 59.6803 268.436 59.286 269.002 59.0098C269.568 58.7336 270.186 58.582 270.816 58.5651C271.445 58.5483 272.071 58.6667 272.651 58.9123C273.231 59.1579 273.751 59.5249 274.176 59.9886C275.161 60.8946 275.779 62.1303 275.913 63.4613C276.046 64.7923 275.686 66.1259 274.9 67.2091H274.928Z" fill="#00C853"/>
<path d="M297.089 16.1607C291.469 20.8015 286.077 25.6879 280.912 30.8201C283.746 30.3295 286.655 30.5259 289.397 31.3929C292.138 32.2599 294.631 33.772 296.666 35.8021C298.749 37.6517 300.329 39.9996 301.256 42.6257C302.183 45.2517 302.428 48.07 301.967 50.8163C307.123 45.6841 312.51 40.7932 318.131 36.1433C317.574 35.6477 317.135 35.0344 316.846 34.3481C316.557 33.6617 316.424 32.9196 316.458 32.1756C316.492 31.4317 316.692 30.7047 317.043 30.0476C317.393 29.3904 317.886 28.8197 318.486 28.3769L306.025 16.502C304.732 17.5012 303.129 18.0145 301.495 17.9521C299.862 17.8897 298.302 17.2556 297.089 16.1607ZM308.02 32.5399C306.972 33.3735 305.654 33.7938 304.317 33.7208C302.979 33.6478 301.715 33.0867 300.765 32.1441C300.281 31.7413 299.89 31.2396 299.617 30.6728C299.344 30.106 299.196 29.4872 299.183 28.8584C299.17 28.2295 299.292 27.6053 299.542 27.0277C299.791 26.4501 300.161 25.9327 300.628 25.5105C301.704 24.702 303.035 24.3056 304.378 24.3932C305.722 24.4809 306.99 25.0468 307.952 25.9882C308.416 26.3901 308.789 26.8863 309.046 27.4438C309.303 28.0012 309.438 28.607 309.442 29.2207C309.445 29.8343 309.318 30.4418 309.068 31.0024C308.818 31.563 308.452 32.0639 307.993 32.4716L308.02 32.5399Z" fill="#00C853"/>
<path d="M290.34 45.3975C289.698 44.7833 288.864 45.2064 287.512 46.3666C285.134 48.3458 283.044 49.7516 280.256 47.3494C278.549 45.7251 278.385 43.5003 279.969 41.1662L278.712 39.9787C279.491 39.1598 280.256 38.3408 281.035 37.5355L282.292 38.723C282.962 38.1966 283.757 37.8511 284.599 37.7197C285.441 37.5882 286.303 37.6752 287.102 37.9723C287.168 37.9868 287.232 38.0097 287.293 38.0405L287.812 38.218C287.389 39.3236 286.979 40.4428 286.569 41.5621L285.872 41.3573C285.429 41.1968 284.946 41.1818 284.494 41.3143C284.042 41.4469 283.644 41.7202 283.358 42.0944C282.265 43.2546 281.992 43.978 282.743 44.6468C283.495 45.3156 284.219 44.7287 285.476 43.6095C287.757 41.6849 290.149 40.2517 292.785 42.7632C294.534 44.4148 294.603 46.6532 293.045 49.0009L294.411 50.243C293.633 51.0483 292.854 51.8536 292.089 52.6726L290.818 51.4714C290.117 52.118 289.244 52.5492 288.304 52.7138C287.364 52.8784 286.396 52.7693 285.517 52.3996L284.861 52.1266L286.227 48.8235L286.897 49.1374C287.383 49.3175 287.916 49.3307 288.41 49.175C288.905 49.0193 289.334 48.7035 289.629 48.2775C290.777 46.9945 290.996 46.0527 290.34 45.3975Z" fill="#00C853"/>
<path d="M347.493 322.942C346.906 322.951 346.324 322.833 345.787 322.598C345.249 322.362 344.769 322.014 344.377 321.577C328.205 302.604 309.139 286.297 287.88 273.259C287.377 272.949 286.947 272.534 286.619 272.042C286.291 271.551 286.074 270.994 285.981 270.41C285.889 269.827 285.925 269.23 286.085 268.662C286.245 268.093 286.527 267.566 286.91 267.117L310.52 239.559C311.154 238.817 312.032 238.325 312.997 238.173C313.961 238.02 314.948 238.216 315.781 238.726C337.77 252.213 357.496 269.076 374.231 288.696C374.866 289.438 375.215 290.382 375.215 291.358C375.215 292.334 374.866 293.278 374.231 294.019L350.622 321.577C350.23 322.014 349.75 322.362 349.212 322.598C348.675 322.833 348.093 322.951 347.506 322.942H347.493Z" fill="#7DDF96"/>
<path d="M313.635 242.152C335.253 255.419 354.645 272 371.103 291.29L347.493 318.847C331.036 299.558 311.643 282.976 290.026 269.71L313.635 242.152ZM313.635 233.963C312.451 233.962 311.281 234.219 310.206 234.713C309.13 235.208 308.175 235.93 307.405 236.829L283.795 264.387C283.028 265.286 282.465 266.34 282.144 267.478C281.824 268.615 281.753 269.808 281.937 270.975C282.122 272.142 282.556 273.255 283.212 274.238C283.868 275.222 284.728 276.052 285.735 276.671C306.625 289.484 325.363 305.505 341.262 324.143C342.031 325.045 342.986 325.769 344.061 326.266C345.137 326.763 346.307 327.022 347.493 327.023C348.677 327.023 349.847 326.767 350.922 326.272C351.998 325.778 352.953 325.056 353.723 324.157L367.236 308.474L377.333 296.681C378.599 295.199 379.295 293.314 379.295 291.365C379.295 289.416 378.599 287.531 377.333 286.048C360.324 266.093 340.271 248.944 317.912 235.232C316.62 234.444 315.135 234.028 313.622 234.031L313.635 233.963Z" fill="#515979"/>
<path d="M321.628 269.464C323.469 267.207 325.827 265.425 328.502 264.27C331.178 263.116 334.092 262.622 336.999 262.831C331.261 258.19 325.313 253.818 319.155 249.714C318.049 250.927 316.554 251.716 314.928 251.946C313.301 252.175 311.646 251.83 310.247 250.97L298.852 264.264C299.501 264.651 300.056 265.178 300.476 265.806C300.896 266.434 301.171 267.148 301.281 267.895C301.391 268.643 301.333 269.405 301.112 270.128C300.89 270.85 300.51 271.514 300 272.071C306.148 276.166 312.069 280.538 317.762 285.188C317.014 282.455 316.977 279.577 317.653 276.825C318.33 274.074 319.698 271.54 321.628 269.464ZM309.851 267.294C309.336 266.928 308.907 266.455 308.592 265.907C308.278 265.36 308.085 264.751 308.028 264.122C307.971 263.493 308.051 262.86 308.262 262.265C308.472 261.67 308.809 261.127 309.25 260.674C310.122 259.625 311.342 258.923 312.688 258.695C314.034 258.468 315.417 258.729 316.587 259.432C317.099 259.811 317.525 260.295 317.835 260.851C318.145 261.408 318.332 262.024 318.384 262.659C318.436 263.294 318.351 263.932 318.135 264.532C317.919 265.131 317.578 265.677 317.133 266.134C316.266 267.175 315.049 267.867 313.71 268.08C312.371 268.293 311 268.014 309.851 267.294Z" fill="#00C853"/>
<path d="M362.782 287.004C357.763 281.544 352.521 276.353 347.055 271.43C347.71 274.262 347.676 277.21 346.955 280.027C346.235 282.843 344.85 285.446 342.915 287.618C341.144 289.841 338.834 291.574 336.203 292.654C333.573 293.734 330.71 294.124 327.886 293.787C333.351 298.728 338.593 303.92 343.612 309.361C344.085 308.772 344.683 308.295 345.363 307.965C346.044 307.635 346.789 307.461 347.545 307.454C348.301 307.448 349.049 307.609 349.735 307.927C350.42 308.245 351.027 308.712 351.51 309.293L362.905 295.998C361.835 294.75 361.237 293.167 361.214 291.523C361.192 289.88 361.746 288.281 362.782 287.004ZM346.823 298.919C345.93 297.899 345.437 296.59 345.437 295.234C345.437 293.878 345.93 292.569 346.823 291.549C347.208 291.04 347.696 290.619 348.257 290.314C348.817 290.01 349.436 289.828 350.073 289.781C350.709 289.735 351.348 289.824 351.947 290.045C352.546 290.265 353.091 290.61 353.545 291.057C354.425 292.1 354.899 293.424 354.881 294.788C354.863 296.151 354.355 297.463 353.45 298.483C353.07 298.985 352.587 299.4 352.032 299.7C351.478 299.999 350.865 300.175 350.237 300.217C349.608 300.258 348.977 300.164 348.388 299.94C347.799 299.716 347.265 299.368 346.823 298.919Z" fill="#00C853"/>
<path d="M332.791 281.735C333.379 281.052 332.9 280.234 331.657 279.005C329.526 276.698 327.968 274.665 330.291 271.703C331.835 269.901 334.089 269.614 336.548 271.089L337.683 269.724C338.557 270.447 339.418 271.198 340.279 271.935L339.144 273.3C339.714 273.951 340.106 274.737 340.283 275.583C340.46 276.43 340.416 277.307 340.156 278.132V278.336L339.992 278.855L336.535 277.79L336.699 277.067C336.84 276.612 336.831 276.124 336.674 275.674C336.516 275.224 336.219 274.837 335.824 274.569C334.595 273.518 333.843 273.341 333.215 274.078C332.586 274.815 333.215 275.579 334.403 276.808C336.48 279.005 338.065 281.353 335.66 284.165C334.075 286.007 331.807 286.212 329.334 284.751L328.159 286.116L325.563 283.892L326.711 282.527C326.022 281.85 325.541 280.991 325.325 280.05C325.11 279.109 325.169 278.126 325.495 277.217L325.741 276.535L329.157 277.79C329.157 278.022 329.006 278.241 328.938 278.473C328.796 278.966 328.818 279.492 329 279.972C329.182 280.451 329.515 280.859 329.949 281.134C331.193 282.267 332.149 282.54 332.791 281.735Z" fill="#00C853"/>
<path d="M386.31 225.418C385.926 225.418 385.544 225.363 385.176 225.254C363.638 219.005 341.323 215.834 318.896 215.836C316.409 215.836 313.881 215.836 311.395 215.959H311.258C310.674 215.964 310.097 215.843 309.563 215.607C309.03 215.37 308.553 215.023 308.165 214.587C307.777 214.152 307.487 213.638 307.313 213.082C307.14 212.525 307.087 211.938 307.159 211.359L311.695 175.366C311.818 174.4 312.282 173.509 313.003 172.854C313.724 172.198 314.656 171.821 315.63 171.79C318.213 171.708 320.822 171.667 323.391 171.667C346.594 171.667 369.681 174.943 391.966 181.399C392.904 181.671 393.714 182.269 394.251 183.085C394.787 183.9 395.013 184.881 394.89 185.849L390.34 221.842C390.213 222.836 389.726 223.749 388.971 224.408C388.215 225.067 387.244 225.426 386.241 225.418H386.31Z" fill="#7DDF96"/>
<path d="M323.432 175.762C346.247 175.752 368.948 178.969 390.859 185.316L386.31 221.296C364.402 214.948 341.706 211.731 318.896 211.741C316.354 211.741 313.799 211.741 311.258 211.864L315.808 175.871C318.349 175.871 320.891 175.762 323.432 175.762ZM323.432 167.572C320.809 167.572 318.144 167.572 315.535 167.695C313.586 167.758 311.723 168.512 310.28 169.823C308.838 171.133 307.911 172.915 307.665 174.847L303.115 210.841C302.969 211.999 303.072 213.175 303.418 214.29C303.764 215.405 304.345 216.433 305.121 217.305C305.898 218.178 306.852 218.874 307.919 219.348C308.987 219.823 310.144 220.063 311.313 220.054H311.49C313.936 219.972 316.423 219.931 318.868 219.931C340.907 219.93 362.836 223.046 384.001 229.185C385.144 229.523 386.348 229.608 387.528 229.434C388.708 229.259 389.836 228.83 390.832 228.175C391.821 227.521 392.657 226.662 393.284 225.656C393.912 224.651 394.315 223.522 394.467 222.347L398.934 186.367C399.181 184.431 398.728 182.471 397.655 180.839C396.583 179.207 394.963 178.012 393.087 177.468C370.442 170.904 346.983 167.572 323.405 167.572H323.432Z" fill="#515979"/>
<path d="M337.519 194.298C337.817 191.402 338.807 188.62 340.404 186.186C342.002 183.751 344.161 181.735 346.7 180.307C339.349 179.588 331.976 179.206 324.58 179.161C324.323 180.782 323.509 182.263 322.277 183.349C321.045 184.436 319.472 185.059 317.83 185.112L315.589 202.474C316.344 202.44 317.097 202.574 317.793 202.867C318.489 203.16 319.111 203.605 319.613 204.168C320.116 204.732 320.486 205.4 320.698 206.124C320.909 206.849 320.956 207.611 320.836 208.356C328.228 208.356 335.619 208.793 342.956 209.517C340.834 207.647 339.222 205.27 338.271 202.608C337.32 199.946 337.061 197.087 337.519 194.298ZM326.52 198.952C325.892 198.922 325.278 198.758 324.72 198.471C324.161 198.183 323.671 197.779 323.283 197.286C322.894 196.793 322.616 196.222 322.467 195.612C322.318 195.003 322.303 194.368 322.421 193.752C322.571 192.394 323.207 191.136 324.211 190.208C325.214 189.281 326.519 188.746 327.886 188.701C328.519 188.74 329.137 188.914 329.698 189.21C330.259 189.507 330.749 189.92 331.137 190.421C331.526 190.922 331.802 191.501 331.948 192.118C332.094 192.734 332.107 193.375 331.985 193.997C331.832 195.346 331.193 196.592 330.188 197.504C329.182 198.416 327.878 198.931 326.52 198.952Z" fill="#00C853"/>
<path d="M381.541 186.34C374.373 184.52 367.136 183.064 359.831 181.972C361.949 183.978 363.552 186.464 364.503 189.221C365.455 191.977 365.727 194.922 365.296 197.806C365.041 200.622 364.071 203.327 362.479 205.665C360.887 208.003 358.725 209.897 356.196 211.168C363.483 212.287 370.72 213.743 377.907 215.536C377.977 214.784 378.215 214.057 378.601 213.408C378.988 212.759 379.514 212.204 380.142 211.783C380.77 211.363 381.483 211.087 382.231 210.976C382.979 210.864 383.742 210.921 384.465 211.141L386.638 193.82C385.045 193.367 383.663 192.37 382.731 191.003C381.8 189.636 381.379 187.986 381.541 186.34ZM374.778 205.04C373.462 204.687 372.32 203.867 371.566 202.734C370.812 201.601 370.496 200.232 370.679 198.884C370.719 198.249 370.895 197.63 371.194 197.069C371.493 196.508 371.909 196.017 372.414 195.629C372.918 195.241 373.5 194.966 374.12 194.821C374.74 194.676 375.383 194.665 376.008 194.789C377.316 195.178 378.441 196.023 379.178 197.17C379.915 198.317 380.215 199.691 380.025 201.04C379.985 201.664 379.811 202.272 379.516 202.823C379.221 203.374 378.811 203.855 378.314 204.234C377.816 204.613 377.243 204.881 376.633 205.02C376.023 205.159 375.391 205.166 374.778 205.04Z" fill="#00C853"/>
<path d="M353.6 198.42C353.709 197.519 352.876 197.055 351.113 196.7C348.067 195.949 345.648 195.103 345.935 191.363C346.236 189.015 347.957 187.528 350.813 187.418L351.031 185.685L354.42 186.108L354.201 187.841C355.034 188.072 355.793 188.512 356.408 189.119C357.023 189.726 357.472 190.479 357.713 191.308C357.742 191.374 357.764 191.443 357.781 191.513L357.945 192.032L354.461 193.042C354.379 192.81 354.297 192.578 354.201 192.346C354.073 191.887 353.798 191.482 353.418 191.194C353.038 190.905 352.574 190.749 352.097 190.749C350.485 190.544 349.761 190.749 349.638 191.772C349.515 192.796 350.444 193.028 352.165 193.424C355.103 194.12 357.726 195.212 357.262 198.884C356.961 201.286 355.171 202.706 352.302 202.842L352.083 204.644L348.695 204.207L348.914 202.46C347.963 202.277 347.085 201.825 346.385 201.156C345.684 200.488 345.192 199.633 344.965 198.693L344.801 197.997L348.34 197.164C348.408 197.396 348.463 197.628 348.531 197.846C348.682 198.338 348.989 198.768 349.405 199.071C349.822 199.374 350.325 199.533 350.84 199.525C352.562 199.744 353.477 199.389 353.6 198.42Z" fill="#00C853"/>
<path d="M152.998 318.711C139.463 318.695 126.122 315.496 114.055 309.374C101.987 303.251 91.5319 294.377 83.5346 283.468C72.0528 281.075 61.7239 274.86 54.2381 265.839C46.7523 256.819 42.5528 245.527 42.3266 233.812C29.0876 218.274 21.8172 198.535 21.8172 178.13C21.8172 157.725 29.0876 137.986 42.3266 122.448C42.5678 109.32 47.2083 96.6526 55.506 86.4704C63.8037 76.2882 75.2794 69.1795 88.0981 66.2809C93.4745 55.4094 101.092 45.7967 110.45 38.0739C119.808 30.351 130.695 24.6926 142.396 21.4702C154.098 18.2477 166.35 17.534 178.347 19.3759C190.344 21.2179 201.816 25.5738 212.009 32.1577C225.492 29.6048 239.391 30.3094 252.547 34.2129C265.702 38.1163 277.732 45.1053 287.634 54.5972C301.497 56.7452 314.136 63.7712 323.27 74.408C332.405 85.0447 337.434 98.5921 337.45 112.607C337.45 113.439 337.45 114.313 337.382 115.241C352.474 129.274 362.018 148.256 364.275 168.73C366.532 189.203 361.352 209.805 349.679 226.783C351.363 233.224 351.597 239.957 350.364 246.499C349.131 253.041 346.462 259.229 342.549 264.617C338.635 270.005 333.575 274.46 327.733 277.66C321.89 280.861 315.409 282.728 308.758 283.127C295.935 297.485 278.663 307.132 259.704 310.525C240.745 313.917 221.194 310.859 204.18 301.84C189.402 312.859 171.438 318.78 152.998 318.711Z" fill="#00C853"/>
<path d="M165.295 22.5213C181.665 22.4999 197.664 27.3932 211.217 36.5664C224.492 33.7704 238.254 34.3095 251.27 38.1353C264.285 41.9612 276.146 48.9541 285.79 58.4872C298.942 60.2064 311.019 66.6449 319.769 76.6022C328.52 86.5596 333.347 99.3563 333.351 112.607C333.351 114.067 333.283 115.514 333.16 116.947C348.333 130.41 357.964 149.02 360.185 169.171C362.407 189.322 357.061 209.58 345.184 226.019C347.071 232.083 347.52 238.504 346.496 244.772C345.471 251.04 343.001 256.985 339.281 262.135C335.561 267.285 330.692 271.5 325.06 274.447C319.429 277.394 313.188 278.992 306.831 279.114C294.426 293.606 277.347 303.319 258.54 306.578C239.734 309.837 220.378 306.438 203.811 296.968C195.06 303.885 184.986 308.944 174.209 311.836C163.431 314.728 152.176 315.391 141.133 313.784C130.09 312.178 119.491 308.336 109.986 302.495C100.482 296.653 92.271 288.934 85.8574 279.81C74.7936 277.841 64.7776 272.042 57.567 263.431C50.3564 254.82 46.4118 243.947 46.4256 232.72C46.4256 232.57 46.4256 232.434 46.4256 232.284C33.2103 217.333 25.9171 198.075 25.9171 178.13C25.9171 158.185 33.2103 138.927 46.4256 123.976C46.4256 123.826 46.4256 123.676 46.4256 123.526C46.4286 110.801 50.8812 98.4759 59.014 88.6815C67.1468 78.8872 78.4489 72.2385 90.9674 69.8843C97.5532 55.7365 108.048 43.7626 121.215 35.3718C134.383 26.981 149.676 22.5226 165.295 22.5213ZM165.295 14.3317C148.809 14.3704 132.646 18.9034 118.549 27.4422C104.451 35.981 92.9545 48.2016 85.2972 62.7867C72.2517 66.1542 60.6349 73.6207 52.1601 84.085C43.6852 94.5492 38.801 107.457 38.2277 120.905C24.9391 137.021 17.6725 157.251 17.6725 178.13C17.6725 199.009 24.9391 219.239 38.2277 235.355C38.7749 247.465 43.2531 259.068 50.9858 268.411C58.7184 277.753 69.2851 284.328 81.0889 287.14C89.5092 298.223 100.382 307.21 112.857 313.397C125.332 319.584 139.07 322.804 152.998 322.806C171.443 322.872 189.454 317.221 204.549 306.631C221.986 315.247 241.743 317.998 260.874 314.476C280.005 310.953 297.482 301.345 310.698 287.085C317.633 286.426 324.348 284.302 330.4 280.855C336.451 277.407 341.701 272.715 345.8 267.089C349.9 261.463 352.757 255.031 354.182 248.219C355.607 241.407 355.567 234.37 354.065 227.575C365.565 210.076 370.606 189.123 368.322 168.314C366.038 147.506 356.572 128.142 341.549 113.548V112.607C341.525 97.8561 336.312 83.5834 326.821 72.2835C317.33 60.9836 304.166 53.3754 289.629 50.789C279.476 41.3326 267.273 34.3477 253.973 30.3795C240.672 26.4114 226.633 25.5671 212.952 27.9128C198.66 19.0005 182.143 14.2935 165.295 14.3317Z" fill="#515979"/>
<path d="M95.0117 93.0882C108.046 65.1208 132.326 49.8199 165.295 49.8199C181.665 49.7986 197.664 54.6918 211.217 63.865C224.492 61.069 238.254 61.6081 251.27 65.434C264.285 69.2598 276.146 76.2528 285.79 85.7858C306.572 83.6155 323.746 95.2447 333.324 111.228C332.992 98.2207 328.02 85.7596 319.305 76.0899C310.59 66.4202 298.704 60.1777 285.79 58.4872C276.146 48.9542 264.285 41.9612 251.27 38.1354C238.254 34.3095 224.492 33.7705 211.217 36.5664C201.387 29.9305 190.234 25.5048 178.525 23.5949C166.817 21.685 154.833 22.3364 143.402 25.5042C131.97 28.672 121.363 34.2806 112.312 41.9429C103.262 49.6051 95.9839 59.1384 90.981 69.8844C79.6328 72.0027 69.2476 77.6566 61.3145 86.0353C53.3814 94.414 48.308 105.087 46.8218 116.524C58.7224 102.206 76.4844 91.6413 95.0117 93.0882Z" fill="#7DDF96"/>
<g style="mix-blend-mode:multiply" opacity="0.1">
<g style="mix-blend-mode:multiply" opacity="0.1">
<path d="M309.96 254.914C294.507 272.958 271.553 280.302 245.921 280.302C231.23 280.322 216.792 276.481 204.057 269.164C189.697 280.52 171.553 283.223 151.809 283.223C123.294 283.223 98.0859 277.244 82.8378 255.583C54.9514 260.019 46.4256 232.72 46.4256 232.284C46.4256 232.434 46.4256 232.57 46.4256 232.72C46.4118 243.947 50.3564 254.82 57.567 263.431C64.7776 272.042 74.7936 277.841 85.8574 279.81C92.2667 288.93 100.472 296.646 109.97 302.488C119.468 308.33 130.059 312.174 141.096 313.786C152.133 315.397 163.382 314.741 174.157 311.859C184.931 308.976 195.003 303.928 203.757 297.022C220.323 306.493 239.679 309.892 258.486 306.633C277.292 303.373 294.371 293.66 306.777 279.169C317.507 278.958 327.727 274.551 335.241 266.895C342.754 259.238 346.962 248.943 346.96 238.221C346.96 236.234 346.814 234.249 346.523 232.284C343.024 238.988 337.783 244.628 331.349 248.61C324.916 252.592 317.527 254.77 309.96 254.914Z" fill="black"/>
</g>
</g>
<path d="M133.87 427.905C133.161 427.905 132.465 427.72 131.849 427.371C131.232 427.021 130.718 426.518 130.354 425.91C129.991 425.302 129.791 424.611 129.775 423.903C129.759 423.196 129.927 422.496 130.263 421.872C150.416 384.528 152.67 281.012 154.856 180.894C155.471 152.763 156.1 123.663 157.111 96.0773C157.15 95.0176 157.598 94.0142 158.363 93.2785C159.128 92.5427 160.148 92.132 161.21 92.1327H232.258C233.319 92.132 234.34 92.5427 235.104 93.2785C235.869 94.0142 236.318 95.0176 236.357 96.0773C237.368 123.663 238.01 152.763 238.611 180.894C240.784 281.012 243.038 384.528 263.205 421.872C263.541 422.498 263.709 423.2 263.692 423.91C263.675 424.62 263.473 425.313 263.106 425.922C262.74 426.53 262.221 427.033 261.601 427.381C260.981 427.729 260.281 427.909 259.57 427.905H133.87Z" fill="#9E8271"/>
<path d="M232.244 96.2275C236.931 223.657 233.255 375.055 259.57 423.81H133.87C160.185 375.055 156.509 223.657 161.196 96.2275H232.244ZM232.244 88.0379H161.196C159.073 88.0365 157.032 88.858 155.503 90.3295C153.974 91.8009 153.076 93.8076 152.998 95.9272C151.973 123.553 151.345 152.654 150.73 180.798C148.571 280.438 146.33 383.449 126.642 419.934C125.97 421.182 125.635 422.583 125.667 424C125.7 425.416 126.1 426.8 126.829 428.016C127.557 429.232 128.589 430.238 129.823 430.936C131.057 431.635 132.451 432.001 133.87 432H259.57C260.988 431.999 262.38 431.631 263.613 430.931C264.845 430.232 265.874 429.225 266.601 428.01C267.328 426.794 267.727 425.412 267.759 423.996C267.791 422.581 267.455 421.181 266.785 419.934C247.096 383.449 244.924 280.438 242.696 180.798C242.082 152.654 241.453 123.553 240.442 95.9272C240.364 93.8076 239.466 91.8009 237.937 90.3295C236.408 88.858 234.367 88.0365 232.244 88.0379Z" fill="#515979"/>
<g style="mix-blend-mode:multiply" opacity="0.1">
<g style="mix-blend-mode:multiply" opacity="0.1">
<path d="M158.805 184.962C158.805 184.962 157.357 250.191 156.072 280.507C156.865 280.507 157.657 280.507 158.463 280.507C165.888 280.513 173.213 278.789 179.854 275.472C186.495 272.155 192.27 267.335 196.72 261.398C201.174 267.331 206.95 272.146 213.591 275.463C220.231 278.78 227.553 280.507 234.977 280.507C235.783 280.507 236.589 280.507 237.381 280.507C236.015 250.26 234.649 184.962 234.649 184.962H158.805Z" fill="black"/>
</g>
</g>
<path d="M244.541 68.9289H148.899L94.2465 205.422C94.245 217.526 98.2701 229.288 105.689 238.858C113.108 248.429 123.501 255.264 135.233 258.291C146.964 261.318 159.371 260.365 170.501 255.58C181.631 250.796 190.854 242.452 196.72 231.86C202.586 242.452 211.809 250.796 222.939 255.58C234.069 260.365 246.476 261.318 258.207 258.291C269.939 255.264 280.332 248.429 287.751 238.858C295.17 229.288 299.195 217.526 299.193 205.422L244.541 68.9289Z" fill="#00C853"/>
<path d="M244.541 264.114C235.189 264.11 225.973 261.879 217.656 257.607C209.34 253.334 202.163 247.142 196.72 239.545C189.38 249.804 178.93 257.433 166.916 261.304C154.903 265.175 141.961 265.084 130.003 261.043C129.484 260.877 129.003 260.61 128.589 260.257C128.174 259.904 127.834 259.472 127.589 258.986C127.344 258.5 127.198 257.97 127.16 257.427C127.122 256.884 127.192 256.339 127.368 255.824C127.543 255.309 127.819 254.834 128.18 254.426C128.542 254.019 128.98 253.688 129.471 253.452C129.962 253.216 130.495 253.08 131.039 253.052C131.583 253.024 132.128 253.105 132.64 253.29C143.871 257.079 156.077 256.814 167.132 252.539C178.187 248.264 187.39 240.251 193.14 229.895C193.496 229.258 194.015 228.728 194.644 228.359C195.274 227.989 195.99 227.795 196.72 227.795C197.45 227.795 198.166 227.989 198.796 228.359C199.425 228.728 199.944 229.258 200.3 229.895C206.739 241.536 217.515 250.169 230.287 253.921C243.06 257.672 256.799 256.239 268.52 249.932C269.476 249.416 270.599 249.301 271.641 249.612C272.682 249.923 273.557 250.635 274.074 251.59C274.59 252.546 274.705 253.668 274.394 254.708C274.083 255.749 273.37 256.623 272.414 257.139C263.842 261.728 254.266 264.124 244.541 264.114Z" fill="#515979"/>
<path d="M81.3895 188.074C80.5151 188.076 79.6629 187.798 78.9575 187.282C59.1833 172.669 37.2255 161.264 13.8937 153.486C13.3317 153.299 12.8172 152.991 12.3855 152.586C11.9538 152.18 11.6153 151.686 11.3932 151.137C11.1711 150.589 11.0708 149.998 11.0991 149.407C11.1274 148.816 11.2837 148.238 11.5573 147.713L28.076 116.019C28.4241 115.354 28.9484 114.797 29.5918 114.41C30.2352 114.022 30.9728 113.819 31.724 113.821C32.1875 113.817 32.6487 113.886 33.0904 114.026C57.2305 122.081 79.9488 133.887 100.409 149.009C101.192 149.588 101.743 150.427 101.963 151.375C102.183 152.323 102.059 153.318 101.611 154.182L85.0239 185.876C84.7487 186.404 84.3616 186.865 83.8897 187.228C83.4178 187.591 82.8723 187.847 82.2913 187.978C81.9951 188.043 81.6927 188.075 81.3895 188.074Z" fill="#7DDF96"/>
<path d="M31.724 117.862C55.4558 125.78 77.791 137.383 97.9082 152.244L81.3895 183.979C61.2642 169.122 38.9254 157.52 15.1916 149.596L31.724 117.862ZM31.724 109.672C30.2224 109.67 28.7491 110.08 27.4649 110.858C26.1806 111.635 25.1348 112.75 24.4416 114.081L7.92286 145.815C7.37583 146.866 7.06322 148.022 7.00658 149.204C6.94993 150.387 7.1506 151.567 7.59475 152.665C8.0389 153.763 8.71597 154.751 9.57932 155.562C10.4427 156.373 11.4717 156.987 12.5957 157.363C35.5072 165.008 57.0683 176.215 76.4845 190.571C77.8973 191.612 79.6071 192.171 81.3622 192.168C81.9827 192.168 82.6012 192.099 83.2067 191.964C84.3687 191.702 85.4596 191.19 86.4035 190.464C87.3473 189.738 88.1215 188.815 88.672 187.76L97.2524 171.285L105.177 156.025C106.077 154.296 106.331 152.304 105.893 150.405C105.455 148.506 104.353 146.825 102.786 145.665C81.9765 130.289 58.871 118.285 34.32 110.095C33.4831 109.815 32.6065 109.673 31.724 109.672Z" fill="#515979"/>
<path d="M45.4965 142.321C46.7558 139.749 48.6139 137.515 50.915 135.808C53.2162 134.1 55.8934 132.969 58.7224 132.507C52.1823 129.341 45.4965 126.47 38.6649 123.895C37.8735 125.307 36.613 126.399 35.1013 126.983C33.5896 127.566 31.9215 127.603 30.385 127.089L22.4058 142.403C23.1152 142.63 23.7652 143.012 24.309 143.52C24.8527 144.029 25.2765 144.652 25.5498 145.344C25.823 146.036 25.9389 146.781 25.889 147.523C25.8392 148.265 25.6248 148.988 25.2614 149.637C32.0838 152.221 38.7879 155.12 45.3735 158.332C44.0207 155.876 43.3217 153.114 43.3432 150.31C43.3647 147.507 44.1061 144.756 45.4965 142.321ZM33.7052 142.853C33.1278 142.618 32.6083 142.26 32.1824 141.805C31.7566 141.35 31.4346 140.808 31.2385 140.216C31.0425 139.625 30.977 138.998 31.0467 138.379C31.1163 137.759 31.3195 137.163 31.6421 136.629C32.2453 135.412 33.2703 134.455 34.5267 133.935C35.7831 133.415 37.1855 133.369 38.4736 133.804C39.0505 134.054 39.5671 134.425 39.989 134.891C40.4108 135.357 40.7281 135.907 40.9196 136.506C41.1111 137.104 41.1723 137.736 41.0992 138.36C41.0261 138.984 40.8204 139.585 40.4958 140.124C39.9023 141.337 38.8797 142.288 37.6255 142.792C36.3713 143.296 34.9746 143.318 33.7052 142.853Z" fill="#00C853"/>
<path d="M88.9452 149.978C82.9153 145.884 76.7213 142.066 70.3634 138.527C71.6229 141.109 72.2431 143.956 72.1718 146.828C72.1005 149.699 71.3397 152.512 69.9535 155.029C68.7559 157.549 66.9337 159.722 64.6597 161.341C62.3857 162.961 59.7353 163.973 56.9599 164.283C63.336 167.823 69.5299 171.64 75.5417 175.735C75.8644 175.063 76.3323 174.472 76.9118 174.004C77.4913 173.536 78.1677 173.202 78.8922 173.027C79.6167 172.852 80.371 172.84 81.1007 172.992C81.8303 173.144 82.517 173.456 83.1111 173.906L91.0767 158.605C89.773 157.639 88.847 156.249 88.458 154.674C88.069 153.1 88.2413 151.44 88.9452 149.978ZM76.2795 164.993C75.1854 164.217 74.415 163.066 74.1152 161.76C73.8154 160.454 74.007 159.083 74.6536 157.909C74.9074 157.333 75.2816 156.819 75.7511 156.401C76.2207 155.983 76.7746 155.67 77.3754 155.484C77.9763 155.297 78.6102 155.242 79.2343 155.321C79.8584 155.4 80.4582 155.613 80.9933 155.943C82.0693 156.75 82.8198 157.915 83.1081 159.228C83.3965 160.54 83.2036 161.913 82.5646 163.095C82.3125 163.665 81.9399 164.173 81.4723 164.586C81.0048 164.998 80.4535 165.304 79.8562 165.483C79.259 165.662 78.63 165.71 78.0126 165.623C77.3951 165.536 76.8039 165.316 76.2795 164.979V164.993Z" fill="#00C853"/>
<path d="M58.9683 151.616C59.3782 150.825 58.736 150.156 57.2467 149.173C54.6917 147.44 52.7379 145.829 54.2818 142.471C55.3612 140.397 57.4654 139.619 60.157 140.492L60.9495 138.963L63.9417 140.506L63.1356 142.035C63.8312 142.532 64.3865 143.201 64.748 143.975C65.1094 144.75 65.2646 145.605 65.1987 146.457V146.648V147.194C64.0237 147.098 62.835 147.017 61.6463 146.948V146.211C61.6813 145.746 61.568 145.281 61.3226 144.884C61.0771 144.487 60.7122 144.177 60.28 144C58.9136 143.277 58.1075 143.263 57.6566 144.123C57.2058 144.983 57.9846 145.488 59.4328 146.511C61.9059 148.163 63.9553 150.06 62.2748 153.336C61.1681 155.465 59.0366 156.162 56.3313 155.315L55.5115 156.899C54.5141 156.366 53.5167 155.861 52.5193 155.343L53.3254 153.8C52.5112 153.304 51.856 152.585 51.4372 151.729C51.0184 150.873 50.8534 149.915 50.9617 148.968L51.0437 148.259C52.246 148.409 53.4347 148.545 54.6098 148.709C54.6098 148.941 54.6098 149.173 54.6098 149.405C54.5005 150.374 55.0333 151.152 56.181 151.739C57.5473 152.49 58.5174 152.476 58.9683 151.616Z" fill="#00C853"/>
<path d="M307.022 161.853C306.43 161.83 305.85 161.68 305.321 161.411C304.793 161.142 304.329 160.762 303.962 160.297L281.431 131.852C280.824 131.086 280.511 130.129 280.549 129.153C280.587 128.177 280.972 127.246 281.636 126.529C299.117 107.574 319.479 91.4886 341.973 78.8656C342.822 78.3884 343.815 78.2293 344.771 78.4169C345.728 78.6045 346.586 79.1265 347.192 79.8893L369.723 108.348C370.091 108.813 370.353 109.352 370.492 109.929C370.631 110.505 370.644 111.105 370.528 111.686C370.412 112.267 370.172 112.817 369.823 113.296C369.474 113.776 369.025 114.174 368.507 114.463C346.759 126.662 327.074 142.214 310.179 160.543C309.8 160.966 309.337 161.306 308.819 161.541C308.302 161.776 307.741 161.901 307.173 161.908L307.022 161.853Z" fill="#7DDF96"/>
<path d="M343.995 82.4417L366.512 110.887C344.4 123.308 324.381 139.125 307.186 157.758C299.672 148.286 292.162 138.804 284.656 129.313C301.848 110.672 321.873 94.8542 343.995 82.4417ZM343.995 74.2521C342.588 74.2523 341.204 74.6142 339.978 75.3031C317.135 88.145 296.456 104.497 278.699 123.758C277.376 125.193 276.609 127.052 276.537 129.001C276.464 130.951 277.09 132.862 278.303 134.391L300.819 162.85C301.555 163.777 302.483 164.535 303.54 165.069C304.597 165.604 305.757 165.904 306.94 165.948H307.255C308.387 165.948 309.507 165.714 310.544 165.261C311.581 164.808 312.512 164.145 313.28 163.314C329.884 145.301 349.227 130.017 370.597 118.025C371.641 117.447 372.545 116.648 373.248 115.684C373.95 114.72 374.433 113.614 374.663 112.445C374.894 111.275 374.866 110.069 374.581 108.911C374.296 107.753 373.762 106.671 373.015 105.741L353.477 81.0495L350.499 77.2823C349.731 76.3117 348.753 75.5275 347.638 74.9885C346.524 74.4495 345.302 74.1697 344.063 74.1702L343.995 74.2521Z" fill="#515979"/>
<path d="M313.034 126.747C311.166 124.504 309.866 121.845 309.246 118.993C308.625 116.142 308.701 113.184 309.468 110.368C303.812 115.091 298.374 120.096 293.154 125.382C294.133 126.701 294.62 128.32 294.533 129.959C294.446 131.598 293.789 133.156 292.676 134.364L303.607 148.095C304.11 147.531 304.733 147.087 305.43 146.794C306.127 146.502 306.881 146.368 307.636 146.404C308.392 146.439 309.13 146.642 309.796 146.999C310.463 147.355 311.042 147.855 311.49 148.463C316.71 143.222 322.175 138.217 327.886 133.449C325.043 133.698 322.184 133.212 319.583 132.039C316.982 130.865 314.727 129.043 313.034 126.747ZM308.635 137.858C308.176 138.293 307.628 138.624 307.029 138.828C306.43 139.032 305.794 139.104 305.164 139.04C304.535 138.975 303.927 138.775 303.382 138.453C302.837 138.131 302.368 137.695 302.008 137.175C301.141 136.121 300.685 134.789 300.722 133.424C300.76 132.06 301.289 130.756 302.213 129.75C302.682 129.319 303.239 128.994 303.845 128.796C304.45 128.599 305.092 128.533 305.725 128.605C306.358 128.676 306.969 128.882 307.516 129.209C308.062 129.536 308.533 129.977 308.894 130.501C309.749 131.551 310.194 132.875 310.146 134.228C310.098 135.581 309.561 136.87 308.635 137.858Z" fill="#00C853"/>
<path d="M338.174 89.7713C331.871 93.6295 325.764 97.7698 319.852 102.192C322.754 102.109 325.633 102.723 328.248 103.981C330.864 105.24 333.138 107.107 334.882 109.426C336.717 111.58 337.971 114.166 338.526 116.939C339.08 119.712 338.917 122.581 338.051 125.273C343.963 120.869 350.075 116.733 356.387 112.866C355.901 112.282 355.552 111.597 355.366 110.861C355.179 110.124 355.16 109.356 355.309 108.611C355.459 107.866 355.773 107.165 356.229 106.557C356.685 105.949 357.271 105.451 357.945 105.099L347.014 91.4502C345.576 92.2432 343.905 92.5094 342.291 92.2029C340.677 91.8963 339.221 91.0363 338.174 89.7713ZM346.796 107.707C345.63 108.391 344.255 108.631 342.925 108.38C341.596 108.129 340.403 107.404 339.568 106.342C339.142 105.868 338.822 105.309 338.629 104.702C338.437 104.095 338.377 103.454 338.454 102.821C338.53 102.189 338.741 101.581 339.072 101.037C339.403 100.492 339.847 100.026 340.374 99.6671C341.568 99.0032 342.961 98.791 344.298 99.0692C345.635 99.3474 346.828 100.098 347.657 101.182C348.067 101.651 348.373 102.202 348.553 102.798C348.733 103.394 348.785 104.021 348.703 104.639C348.622 105.256 348.41 105.849 348.081 106.378C347.752 106.907 347.314 107.36 346.796 107.707Z" fill="#00C853"/>
<path d="M327.23 118.162C326.67 117.452 325.782 117.752 324.265 118.735C321.533 120.387 319.292 121.465 316.833 118.735C315.357 116.879 315.466 114.64 317.42 112.497L316.341 111.132C317.229 110.423 318.117 109.768 319.073 109.017L320.153 110.382C320.908 109.959 321.76 109.736 322.626 109.736C323.492 109.736 324.343 109.959 325.099 110.382C325.161 110.401 325.221 110.428 325.276 110.464L325.768 110.723C325.194 111.774 324.621 112.839 324.06 113.903L323.377 113.603C322.958 113.373 322.475 113.286 322.001 113.355C321.528 113.424 321.09 113.645 320.754 113.985C319.483 114.982 319.169 115.678 319.77 116.442C320.371 117.206 321.232 116.756 322.721 115.814C325.276 114.204 327.886 113.084 330.181 115.992C331.684 117.903 331.452 120.168 329.539 122.298L330.673 123.663C329.772 124.359 328.883 125.027 327.941 125.778L326.834 124.413C326.037 124.965 325.097 125.275 324.128 125.306C323.158 125.338 322.2 125.089 321.369 124.591L320.754 124.222L322.639 121.11L323.268 121.451C323.725 121.689 324.247 121.771 324.756 121.685C325.264 121.599 325.73 121.349 326.083 120.974C327.449 119.827 327.886 118.926 327.23 118.162Z" fill="#00C853"/>
<path d="M47.505 201.709C47.1074 196.681 47.9355 191.631 49.9184 186.992C51.9014 182.353 54.9801 178.263 58.891 175.073C62.8019 171.882 67.4285 169.686 72.3747 168.672C77.3209 167.658 82.4394 167.857 87.292 169.251C86.0508 164.959 85.7461 160.45 86.3985 156.03C87.0508 151.61 88.645 147.381 91.0733 143.629C93.5017 139.877 96.7077 136.689 100.475 134.28C104.242 131.872 108.483 130.299 112.91 129.668L124.374 195.308L47.505 201.709Z" fill="#00C853"/>
<path d="M47.4913 205.804C46.4565 205.807 45.4588 205.419 44.6986 204.718C43.9383 204.016 43.4717 203.054 43.3923 202.023C42.9915 196.876 43.7252 191.704 45.542 186.871C47.3587 182.038 50.2142 177.661 53.9073 174.05C57.6004 170.439 62.0413 167.68 66.917 165.969C71.7928 164.258 76.9848 163.636 82.1273 164.146C81.226 155.081 83.8657 146.018 89.495 138.85C95.1242 131.683 103.308 126.965 112.336 125.683C113.363 125.623 114.374 125.951 115.17 126.602C115.966 127.253 116.487 128.178 116.632 129.195C116.776 130.212 116.533 131.246 115.95 132.092C115.367 132.939 114.487 133.535 113.484 133.763C109.639 134.311 105.956 135.678 102.684 137.77C99.4123 139.862 96.6282 142.632 94.5197 145.891C92.4111 149.15 91.0273 152.823 90.4616 156.663C89.8959 160.502 90.1616 164.418 91.2406 168.146C91.442 168.848 91.4515 169.592 91.2683 170.299C91.085 171.006 90.7157 171.652 90.1985 172.168C89.6813 172.685 89.0351 173.054 88.327 173.237C87.619 173.42 86.8747 173.411 86.1716 173.209C81.9574 172 77.5127 171.828 73.2173 172.707C68.9219 173.587 64.9035 175.492 61.5054 178.26C58.1074 181.029 55.4307 184.578 53.704 188.604C51.9774 192.63 51.2521 197.014 51.5902 201.382C51.6331 201.921 51.5686 202.463 51.4005 202.977C51.2324 203.491 50.964 203.967 50.6108 204.377C50.2577 204.787 49.8267 205.123 49.3429 205.365C48.8591 205.608 48.3319 205.752 47.7919 205.79L47.4913 205.804Z" fill="#515979"/>
<path d="M342.916 167.586C343.312 162.554 342.482 157.501 340.496 152.859C338.51 148.218 335.427 144.126 331.512 140.936C327.596 137.745 322.965 135.55 318.015 134.538C313.065 133.527 307.942 133.729 303.088 135.128C304.329 130.835 304.633 126.327 303.981 121.907C303.329 117.486 301.735 113.257 299.306 109.505C296.878 105.753 293.672 102.566 289.905 100.157C286.137 97.7488 281.897 96.176 277.469 95.545L266.019 170.739L342.916 167.586Z" fill="#00C853"/>
<path d="M342.915 171.681H342.601C342.064 171.639 341.539 171.492 341.059 171.248C340.578 171.004 340.15 170.668 339.8 170.258C339.45 169.849 339.184 169.374 339.017 168.862C338.851 168.349 338.787 167.809 338.83 167.272C339.168 162.905 338.443 158.521 336.716 154.494C334.99 150.468 332.313 146.919 328.915 144.151C325.517 141.383 321.499 139.477 317.203 138.598C312.908 137.718 308.463 137.89 304.249 139.1C303.545 139.299 302.801 139.307 302.093 139.122C301.386 138.937 300.741 138.566 300.225 138.048C299.709 137.53 299.341 136.883 299.16 136.176C298.979 135.468 298.99 134.724 299.193 134.022C300.27 130.291 300.532 126.371 299.962 122.529C299.392 118.688 298.004 115.013 295.89 111.753C293.776 108.494 290.986 105.726 287.709 103.636C284.432 101.546 280.745 100.183 276.895 99.6398C276.362 99.5636 275.85 99.3834 275.387 99.1092C274.923 98.8351 274.519 98.4726 274.196 98.0423C273.873 97.612 273.638 97.1224 273.505 96.6014C273.371 96.0804 273.342 95.5382 273.418 95.0059C273.494 94.4735 273.675 93.9614 273.949 93.4987C274.223 93.036 274.586 92.6319 275.017 92.3093C275.448 91.9867 275.938 91.7521 276.459 91.6187C276.981 91.4854 277.524 91.456 278.057 91.5321C287.081 92.8178 295.258 97.5378 300.88 104.706C306.502 111.874 309.134 120.935 308.225 129.996C313.373 129.477 318.572 130.093 323.456 131.801C328.339 133.509 332.788 136.267 336.488 139.881C340.187 143.495 343.047 147.876 344.866 152.715C346.685 157.554 347.419 162.733 347.014 167.886C346.938 168.919 346.473 169.885 345.713 170.589C344.952 171.294 343.952 171.684 342.915 171.681Z" fill="#515979"/>
<path d="M215.848 328.538C215.621 328.537 215.395 328.5 215.179 328.429C212.497 327.684 209.663 327.684 206.981 328.429C206.466 328.61 205.901 328.58 205.409 328.344C204.917 328.109 204.539 327.688 204.358 327.173C204.177 326.659 204.207 326.095 204.443 325.603C204.679 325.112 205.1 324.734 205.615 324.553C209.181 323.496 212.978 323.496 216.545 324.553C217.006 324.709 217.395 325.024 217.645 325.441C217.894 325.859 217.987 326.351 217.906 326.83C217.826 327.309 217.577 327.744 217.205 328.057C216.833 328.37 216.362 328.541 215.876 328.538H215.848Z" fill="#515979"/>
<path d="M211.053 325.549C215.58 325.549 219.251 321.883 219.251 317.36C219.251 312.837 215.58 309.17 211.053 309.17C206.525 309.17 202.855 312.837 202.855 317.36C202.855 321.883 206.525 325.549 211.053 325.549Z" fill="#515979"/>
<path d="M213.102 319.407C214.234 319.407 215.152 318.49 215.152 317.36C215.152 316.229 214.234 315.312 213.102 315.312C211.97 315.312 211.053 316.229 211.053 317.36C211.053 318.49 211.97 319.407 213.102 319.407Z" fill="white"/>
<path d="M206.79 298.469C208.116 297.685 209.583 297.165 211.107 296.94C212.602 296.715 214.122 296.715 215.616 296.94C217.184 297.176 218.697 297.689 220.084 298.455C221.572 299.27 222.806 300.479 223.65 301.95C224.016 302.622 224.1 303.411 223.885 304.145C223.67 304.879 223.173 305.498 222.502 305.867C222.018 306.131 221.468 306.25 220.917 306.208H220.166C219.108 306.125 218.058 305.966 217.023 305.73C216.026 305.539 215.056 305.28 214.004 304.98C212.952 304.679 211.872 304.393 210.738 304.024C209.536 303.668 208.366 303.211 207.241 302.659L206.858 302.455C206.521 302.257 206.241 301.975 206.047 301.636C205.852 301.297 205.75 300.914 205.75 300.523C205.75 300.133 205.852 299.749 206.047 299.41C206.241 299.071 206.521 298.789 206.858 298.592L206.79 298.469Z" fill="#515979"/>
<path d="M177.51 328.538C177.023 328.541 176.552 328.37 176.18 328.057C175.808 327.744 175.56 327.309 175.479 326.83C175.399 326.351 175.491 325.859 175.741 325.441C175.99 325.024 176.38 324.709 176.84 324.553C180.407 323.496 184.204 323.496 187.771 324.553C188.285 324.734 188.707 325.112 188.942 325.603C189.178 326.095 189.209 326.659 189.028 327.173C188.846 327.688 188.468 328.109 187.976 328.344C187.484 328.58 186.919 328.61 186.404 328.429C183.723 327.684 180.888 327.684 178.206 328.429C177.981 328.5 177.746 328.537 177.51 328.538Z" fill="#515979"/>
<path d="M182.292 325.549C186.819 325.549 190.49 321.883 190.49 317.36C190.49 312.837 186.819 309.17 182.292 309.17C177.764 309.17 174.094 312.837 174.094 317.36C174.094 321.883 177.764 325.549 182.292 325.549Z" fill="#515979"/>
<path d="M184.341 319.407C185.474 319.407 186.391 318.49 186.391 317.36C186.391 316.229 185.474 315.312 184.341 315.312C183.209 315.312 182.292 316.229 182.292 317.36C182.292 318.49 183.209 319.407 184.341 319.407Z" fill="white"/>
<path d="M186.09 302.537C184.964 303.089 183.794 303.545 182.592 303.902C181.458 304.27 180.379 304.584 179.327 304.857C178.275 305.13 177.305 305.417 176.307 305.608C175.273 305.843 174.222 306.003 173.165 306.085H172.413C172.031 306.111 171.648 306.061 171.286 305.937C170.923 305.813 170.589 305.619 170.303 305.365C170.017 305.11 169.784 304.802 169.619 304.457C169.453 304.112 169.358 303.738 169.339 303.356C169.296 302.806 169.415 302.255 169.681 301.772C170.526 300.298 171.766 299.089 173.26 298.278C174.642 297.51 176.151 296.996 177.715 296.763C179.209 296.538 180.729 296.538 182.223 296.763C183.748 296.988 185.215 297.507 186.541 298.292C187.046 298.598 187.41 299.09 187.553 299.663C187.697 300.236 187.608 300.842 187.306 301.349C187.108 301.681 186.825 301.954 186.486 302.141L186.09 302.537Z" fill="#515979"/>
<path d="M196.72 356.137C191.647 356.137 186.781 354.124 183.194 350.54C179.607 346.957 177.592 342.096 177.592 337.028C177.592 336.304 177.879 335.61 178.392 335.098C178.904 334.586 179.599 334.298 180.324 334.298H213.116C213.84 334.298 214.536 334.586 215.048 335.098C215.56 335.61 215.848 336.304 215.848 337.028C215.848 342.096 213.833 346.957 210.246 350.54C206.659 354.124 201.793 356.137 196.72 356.137Z" fill="#515979"/>
<path d="M213.116 337.028C213.116 341.372 211.388 345.538 208.314 348.61C205.239 351.682 201.068 353.407 196.72 353.407C192.372 353.407 188.201 351.682 185.126 348.61C182.052 345.538 180.324 341.372 180.324 337.028H213.116ZM213.116 331.568H180.324C178.875 331.568 177.485 332.144 176.46 333.168C175.435 334.191 174.859 335.58 174.859 337.028C174.83 342.82 177.105 348.387 181.185 352.503C185.264 356.619 190.813 358.947 196.611 358.976C202.409 359.005 207.981 356.732 212.101 352.657C216.221 348.582 218.552 343.039 218.581 337.247V337.028C218.581 335.58 218.005 334.191 216.98 333.168C215.955 332.144 214.565 331.568 213.116 331.568Z" fill="#515979"/>
<path d="M196.665 353.407C203.404 353.407 208.867 350.963 208.867 347.948C208.867 344.932 203.404 342.488 196.665 342.488C189.927 342.488 184.464 344.932 184.464 347.948C184.464 350.963 189.927 353.407 196.665 353.407Z" fill="#EF7D7D"/>
<path d="M170.623 120.783C170.259 120.78 169.896 120.729 169.544 120.632C168.974 120.477 168.444 120.2 167.992 119.82C167.539 119.441 167.174 118.968 166.921 118.435C156.445 96.1978 142.524 75.7503 125.672 57.8457C125.267 57.4143 124.961 56.9006 124.774 56.3398C124.587 55.7791 124.524 55.1845 124.589 54.597C124.654 54.0096 124.845 53.4431 125.15 52.9366C125.455 52.43 125.866 51.9954 126.355 51.6625L156.004 31.5435C156.682 31.088 157.482 30.8455 158.299 30.8474C158.859 30.8457 159.414 30.9587 159.928 31.1793C160.443 31.4 160.907 31.7237 161.291 32.1304C178.721 50.6576 193.116 71.8145 203.948 94.8216C204.368 95.6997 204.461 96.6985 204.21 97.6389C203.96 98.5794 203.383 99.4 202.581 99.9537L172.932 120.114C172.247 120.562 171.443 120.795 170.623 120.783Z" fill="#7DDF96"/>
<path d="M158.299 34.9285C175.432 53.1493 189.587 73.9506 200.245 96.5687L170.623 116.688C159.97 94.0702 145.82 73.2689 128.691 55.0476L158.299 34.9285ZM158.299 26.7389C156.662 26.7245 155.059 27.1999 153.695 28.1039L124.073 48.2775C123.093 48.9431 122.269 49.8129 121.658 50.8272C121.047 51.8415 120.663 52.9761 120.533 54.1528C120.404 55.3295 120.531 56.5204 120.906 57.6433C121.281 58.7663 121.895 59.7946 122.707 60.6574C139.249 78.2302 152.92 98.2944 163.218 120.114C163.722 121.183 164.452 122.131 165.358 122.892C166.264 123.653 167.323 124.209 168.465 124.522C169.167 124.722 169.893 124.823 170.623 124.823C172.265 124.84 173.874 124.364 175.242 123.458L184.123 117.425L204.918 103.339C206.517 102.232 207.669 100.593 208.17 98.7151C208.671 96.8373 208.487 94.8428 207.651 93.0881C196.635 69.6901 181.995 48.1738 164.27 29.3323C163.503 28.5139 162.577 27.8615 161.547 27.4154C160.518 26.9693 159.408 26.7391 158.286 26.7389H158.299Z" fill="#515979"/>
<path d="M158.819 63.0051C161.16 61.3232 163.873 60.2314 166.728 59.8227C169.583 59.4139 172.494 59.7003 175.214 60.6574C170.924 54.7973 166.388 49.0965 161.606 43.5549C160.238 44.4261 158.609 44.7925 157 44.5906C155.39 44.3887 153.902 43.6312 152.793 42.4493L138.501 52.1539C139.018 52.6904 139.41 53.3351 139.647 54.0413C139.884 54.7474 139.96 55.4974 139.871 56.2369C139.783 56.9763 139.53 57.6868 139.132 58.3168C138.735 58.9467 138.202 59.4805 137.572 59.8794C142.354 65.3391 146.877 71.04 151.14 76.982C151.122 74.1918 151.818 71.4433 153.162 68.9972C154.506 66.5511 156.453 64.4885 158.819 63.0051ZM148.175 57.8866C147.783 57.4022 147.5 56.8394 147.344 56.2363C147.189 55.6332 147.165 55.0038 147.274 54.3906C147.382 53.7774 147.622 53.1946 147.975 52.6816C148.329 52.1686 148.788 51.7373 149.323 51.4169C150.424 50.643 151.768 50.2916 153.108 50.427C154.448 50.5624 155.694 51.1754 156.619 52.1539C157.01 52.6453 157.292 53.2151 157.444 53.8246C157.595 54.4342 157.614 55.0692 157.499 55.6867C157.384 56.3042 157.137 56.8897 156.775 57.4035C156.413 57.9173 155.945 58.3474 155.403 58.6646C154.312 59.4429 152.973 59.7937 151.641 59.6502C150.308 59.5068 149.075 58.8791 148.175 57.8866Z" fill="#00C853"/>
<path d="M193.427 90.331C190.075 83.8703 186.432 77.5734 182.497 71.4404C182.379 74.3105 181.573 77.1103 180.146 79.6044C178.72 82.0984 176.714 84.2137 174.299 85.7721C172.048 87.4243 169.412 88.4747 166.64 88.8234C163.869 89.1722 161.054 88.8078 158.463 87.7649C162.38 93.8798 166.023 100.177 169.394 106.656C169.998 106.218 170.691 105.92 171.424 105.783C172.158 105.646 172.912 105.673 173.634 105.862C174.355 106.051 175.025 106.398 175.596 106.878C176.168 107.357 176.625 107.957 176.936 108.635L191.255 98.93C190.562 97.4675 190.4 95.8099 190.797 94.2412C191.193 92.6724 192.123 91.2901 193.427 90.331ZM175.16 97.5378C174.565 96.3377 174.433 94.9614 174.789 93.6704C175.144 92.3795 175.961 91.2639 177.086 90.5357C177.582 90.149 178.156 89.8731 178.768 89.7267C179.38 89.5803 180.016 89.5668 180.634 89.6871C181.252 89.8074 181.837 90.0588 182.349 90.4241C182.861 90.7895 183.289 91.2605 183.603 91.8051C184.172 93.0243 184.281 94.407 183.912 95.7004C183.544 96.9937 182.721 98.1112 181.595 98.8481C181.102 99.2298 180.533 99.5007 179.925 99.6422C179.318 99.7837 178.687 99.7926 178.076 99.6682C177.465 99.5438 176.888 99.289 176.385 98.9213C175.882 98.5537 175.464 98.0817 175.16 97.5378Z" fill="#00C853"/>
<path d="M166.251 77.5689C167.003 77.0639 166.757 76.204 165.91 74.607C164.543 71.8772 163.532 69.5295 166.483 67.3047C168.424 65.9397 170.582 66.2946 172.591 68.3284L173.957 67.3593L175.856 70.0891L174.49 71.0582C174.86 71.8257 175.027 72.6747 174.977 73.5249C174.927 74.3752 174.661 75.1986 174.203 75.9174C174.175 75.9811 174.138 76.0408 174.094 76.0948L173.821 76.5589L170.76 74.7026C170.869 74.4842 170.992 74.2658 171.115 74.0611C171.364 73.6591 171.479 73.1884 171.442 72.7173C171.405 72.2461 171.219 71.7988 170.91 71.4404C170.022 70.0755 169.353 69.7752 168.56 70.3075C167.768 70.8398 168.15 71.6724 168.984 73.2557C170.35 75.8764 171.279 78.5244 168.26 80.5718C166.279 81.9367 164.065 81.5136 162.098 79.4935L160.622 80.5035L158.723 77.7737L160.171 76.7909C159.69 75.9679 159.453 75.0248 159.489 74.0722C159.526 73.1196 159.833 72.1971 160.376 71.4131L160.786 70.8398C161.77 71.5223 162.753 72.2047 163.71 72.9145C163.587 73.1193 163.464 73.3103 163.327 73.5014C163.083 73.9282 162.977 74.4207 163.026 74.9101C163.075 75.3995 163.276 75.8614 163.601 76.2313C164.598 77.6645 165.459 78.1149 166.251 77.5689Z" fill="#00C853"/>
<path d="M124.087 102.929C126.819 98.6919 130.537 95.1781 134.924 92.6881C139.311 90.1981 144.236 88.8057 149.278 88.63C154.321 88.4543 159.331 89.5005 163.88 91.6792C168.43 93.8579 172.384 97.1043 175.406 101.141C177.019 96.9786 179.506 93.2098 182.7 90.0889C185.895 86.9679 189.722 84.5672 193.923 83.0486C198.125 81.5301 202.604 80.929 207.057 81.2858C211.511 81.6425 215.837 82.949 219.742 85.117L189.151 144.314L124.087 102.929Z" fill="#00C853"/>
<path d="M124.087 107.024C123.3 107.028 122.53 106.8 121.873 106.369C120.961 105.781 120.32 104.857 120.089 103.797C119.859 102.738 120.058 101.631 120.644 100.718C123.434 96.3704 127.145 92.6874 131.515 89.9287C135.885 87.17 140.808 85.4029 145.936 84.7521C151.065 84.1013 156.274 84.5826 161.195 86.1621C166.117 87.7416 170.632 90.3808 174.422 93.8934C179.185 86.1295 186.767 80.5042 195.584 78.1922C204.401 75.8802 213.771 77.0604 221.737 81.4862C222.213 81.7479 222.632 82.1006 222.971 82.5242C223.31 82.9477 223.562 83.4338 223.713 83.9548C223.864 84.4757 223.911 85.0212 223.851 85.5602C223.791 86.0992 223.625 86.6211 223.363 87.0961C223.101 87.5711 222.748 87.9899 222.324 88.3286C221.9 88.6673 221.414 88.9192 220.892 89.0701C220.371 89.2209 219.825 89.2676 219.285 89.2076C218.745 89.1476 218.223 88.9821 217.748 88.7204C214.355 86.8356 210.597 85.6996 206.727 85.389C202.858 85.0784 198.966 85.6005 195.316 86.92C191.666 88.2395 188.341 90.3257 185.566 93.038C182.791 95.7503 180.631 99.0254 179.231 102.643C178.968 103.325 178.526 103.925 177.953 104.379C177.379 104.833 176.694 105.126 175.969 105.226C175.244 105.326 174.505 105.231 173.829 104.949C173.153 104.668 172.565 104.211 172.126 103.625C169.51 100.11 166.079 97.2793 162.129 95.3768C158.178 93.4743 153.825 92.5562 149.442 92.7011C145.059 92.846 140.776 94.0495 136.96 96.2087C133.144 98.3679 129.908 101.419 127.53 105.1C127.164 105.684 126.657 106.166 126.055 106.503C125.454 106.839 124.776 107.019 124.087 107.024Z" fill="#515979"/>
<path d="M228.91 212.451C228.217 212.449 227.535 212.27 226.929 211.933L195.149 194.393C194.294 193.922 193.636 193.161 193.292 192.247C192.949 191.334 192.944 190.328 193.277 189.411C202.058 165.174 214.614 142.473 230.482 122.147C230.863 121.656 231.352 121.258 231.911 120.984C232.47 120.71 233.084 120.566 233.706 120.564C234.401 120.559 235.084 120.738 235.687 121.083L267.468 138.622C267.983 138.905 268.432 139.295 268.783 139.766C269.134 140.237 269.38 140.778 269.504 141.352C269.624 141.933 269.616 142.532 269.482 143.11C269.347 143.687 269.089 144.228 268.725 144.696C253.394 164.35 241.258 186.294 232.763 209.721C232.481 210.518 231.96 211.208 231.27 211.696C230.58 212.185 229.756 212.449 228.91 212.451Z" fill="#7DDF96"/>
<path d="M233.706 124.659L265.487 142.198C249.898 162.199 237.555 184.525 228.91 208.356L197.13 190.817C205.775 166.985 218.118 144.66 233.706 124.659ZM233.706 116.469C232.456 116.469 231.223 116.754 230.101 117.303C228.978 117.852 227.996 118.65 227.23 119.636C211.099 140.3 198.336 163.378 189.41 188.019C188.744 189.853 188.755 191.865 189.441 193.691C190.127 195.518 191.444 197.04 193.154 197.983L224.934 215.522C226.149 216.188 227.511 216.54 228.897 216.546C230.588 216.541 232.236 216.014 233.616 215.037C234.996 214.059 236.039 212.679 236.603 211.086C244.95 188.061 256.879 166.494 271.949 147.18C272.678 146.247 273.195 145.166 273.465 144.013C273.736 142.861 273.752 141.663 273.515 140.503C273.277 139.343 272.791 138.249 272.089 137.295C271.387 136.341 270.486 135.551 269.449 134.978L260.704 130.16L237.709 117.493C236.501 116.825 235.142 116.473 233.761 116.469H233.706Z" fill="#515979"/>
<path d="M222.297 177.441C219.73 176.092 217.522 174.149 215.858 171.775C214.194 169.401 213.123 166.663 212.733 163.791C209.345 170.343 206.257 177.045 203.47 183.897C204.885 184.732 205.963 186.035 206.517 187.581C207.071 189.126 207.066 190.817 206.503 192.359L221.847 200.822C222.092 200.106 222.494 199.454 223.023 198.913C223.552 198.373 224.196 197.956 224.906 197.695C225.617 197.433 226.377 197.333 227.131 197.402C227.885 197.471 228.614 197.707 229.266 198.092C231.998 191.258 235.082 184.561 238.516 178C235.989 179.296 233.172 179.925 230.334 179.827C227.495 179.729 224.729 178.908 222.297 177.441ZM222.543 189.398C222.288 189.975 221.911 190.49 221.438 190.908C220.965 191.326 220.407 191.637 219.802 191.82C219.197 192.003 218.561 192.053 217.935 191.967C217.309 191.881 216.709 191.661 216.176 191.322C214.964 190.69 214.02 189.642 213.518 188.371C213.016 187.1 212.989 185.691 213.444 184.402C213.71 183.823 214.098 183.307 214.581 182.89C215.064 182.473 215.631 182.165 216.243 181.985C216.855 181.805 217.499 181.758 218.131 181.848C218.763 181.938 219.368 182.162 219.906 182.505C221.117 183.14 222.054 184.195 222.54 185.472C223.026 186.75 223.027 188.16 222.543 189.438V189.398Z" fill="#00C853"/>
<path d="M231.192 133.681C226.875 139.678 222.839 145.856 219.087 152.217C221.736 151.001 224.639 150.442 227.55 150.587C230.462 150.732 233.295 151.577 235.81 153.049C238.338 154.326 240.498 156.225 242.086 158.568C243.673 160.912 244.636 163.621 244.883 166.439C248.626 160.07 252.657 153.891 256.974 147.904C256.302 147.561 255.715 147.073 255.255 146.475C254.796 145.877 254.475 145.184 254.317 144.447C254.159 143.71 254.167 142.947 254.34 142.213C254.514 141.479 254.849 140.794 255.321 140.205L239.977 131.743C238.968 133.038 237.539 133.94 235.935 134.294C234.331 134.648 232.653 134.431 231.192 133.681ZM246.071 146.88C245.252 147.957 244.069 148.701 242.742 148.972C241.415 149.243 240.034 149.024 238.857 148.354C238.28 148.083 237.767 147.691 237.354 147.205C236.941 146.72 236.637 146.151 236.462 145.538C236.288 144.925 236.246 144.282 236.341 143.652C236.436 143.021 236.665 142.419 237.013 141.884C237.867 140.822 239.074 140.101 240.415 139.851C241.755 139.6 243.142 139.837 244.322 140.519C244.885 140.791 245.383 141.181 245.784 141.661C246.184 142.141 246.476 142.701 246.642 143.303C246.807 143.906 246.842 144.536 246.744 145.153C246.645 145.77 246.416 146.359 246.071 146.88Z" fill="#00C853"/>
<path d="M232.08 164.078C231.288 163.641 230.591 164.269 229.566 165.757C227.735 168.309 226.055 170.234 222.735 168.582C220.644 167.436 219.906 165.293 220.863 162.59L219.333 161.744C219.865 160.748 220.426 159.751 220.986 158.769L222.502 159.615C223.027 158.926 223.719 158.383 224.513 158.036C225.307 157.69 226.176 157.552 227.039 157.636H227.243H227.79C227.667 158.837 227.558 160.038 227.448 161.239H226.697C226.222 161.194 225.746 161.303 225.338 161.548C224.93 161.794 224.611 162.164 224.429 162.604C223.65 163.969 223.623 164.774 224.429 165.252C225.235 165.73 225.891 164.965 226.888 163.532C228.623 161.048 230.618 159.028 233.843 160.802C235.974 161.976 236.575 164.16 235.701 166.863L237.286 167.736C236.739 168.733 236.179 169.729 235.646 170.725L234.089 169.879C233.564 170.69 232.819 171.334 231.94 171.735C231.061 172.136 230.086 172.279 229.129 172.145L228.418 172.036L228.951 168.446H229.662C230.175 168.491 230.689 168.368 231.126 168.094C231.562 167.821 231.898 167.412 232.08 166.931C232.927 165.539 232.941 164.556 232.08 164.078Z" fill="#00C853"/>
<path d="M274.395 194.38C271.663 190.142 267.944 186.628 263.558 184.138C259.171 181.648 254.246 180.256 249.204 180.08C244.161 179.905 239.151 180.951 234.601 183.129C230.052 185.308 226.097 188.555 223.076 192.592C221.463 188.429 218.976 184.66 215.781 181.539C212.587 178.418 208.76 176.017 204.558 174.499C200.357 172.98 195.878 172.379 191.424 172.736C186.971 173.093 182.645 174.399 178.739 176.567L209.331 235.764L274.395 194.38Z" fill="#00C853"/>
<path d="M274.395 198.474C273.71 198.475 273.037 198.304 272.435 197.977C271.834 197.65 271.324 197.179 270.952 196.604C268.58 192.918 265.35 189.861 261.538 187.695C257.726 185.528 253.445 184.317 249.061 184.164C244.678 184.011 240.323 184.921 236.368 186.817C232.414 188.712 228.978 191.537 226.355 195.048C225.916 195.634 225.328 196.091 224.653 196.372C223.977 196.654 223.238 196.749 222.513 196.649C221.788 196.549 221.103 196.256 220.529 195.802C219.955 195.348 219.514 194.748 219.251 194.066C217.848 190.451 215.686 187.178 212.91 184.469C210.134 181.76 206.809 179.676 203.158 178.36C199.508 177.043 195.618 176.523 191.75 176.836C187.881 177.148 184.125 178.285 180.734 180.171C179.787 180.672 178.68 180.783 177.652 180.479C176.624 180.175 175.756 179.481 175.234 178.546C174.712 177.61 174.578 176.508 174.861 175.474C175.143 174.441 175.819 173.559 176.745 173.018C184.706 168.594 194.071 167.412 202.884 169.719C211.697 172.025 219.279 177.643 224.046 185.398C227.836 181.886 232.351 179.246 237.273 177.667C242.194 176.087 247.403 175.606 252.532 176.257C257.66 176.908 262.583 178.675 266.953 181.434C271.323 184.192 275.034 187.875 277.824 192.223C278.41 193.136 278.609 194.243 278.379 195.302C278.148 196.362 277.507 197.286 276.595 197.874C275.936 198.284 275.171 198.492 274.395 198.474Z" fill="#515979"/>
</svg>
