<?xml version="1.0" encoding="utf-8"?>
<!-- Generator: Adobe Illustrator 25.0.0, SVG Export Plug-In . SVG Version: 6.00 Build 0)  -->
<svg version="1.1" id="Layer_1" xmlns="http://www.w3.org/2000/svg" xmlns:xlink="http://www.w3.org/1999/xlink" x="0px" y="0px"
	 viewBox="0 0 420 430" style="enable-background:new 0 0 420 430;" xml:space="preserve">
<style type="text/css">
	.st0{fill:#C17D4F;}
	.st1{fill:#CE9875;}
	.st2{fill:#C6865C;}
	.st3{fill:#A4E276;}
	.st4{fill:#66B49D;}
	.st5{fill:#64C37D;}
	.st6{fill:#35414D;}
	.st7{fill:#FFB700;}
	.st8{fill:#F5B000;}
	.st9{fill:#FFE563;}
</style>
<g>
	<g>
		<path class="st0" d="M262.1,301.1l2,33.2l81.1-10.5c0.2,0,0.4-0.2,0.4-0.3v-22c0-0.2-0.2-0.3-0.4-0.3L262.1,301.1L262.1,301.1z"/>
		<path class="st1" d="M311,419.8c-24.9-8.5-41.5-13.2-42.7-34.7l-9.9-146c-2.2,0.3-4.5,0.4-6.8,0.4c-8.7,0-16.9-2.1-23.7-5.6
			c-9.5,13.4-27.6,22.5-48.3,22.5c-2.7,0-5.4-0.2-8-0.5l-9.5,129.3c-1.4,21.4-17.9,26.1-42.7,34.6l-10.2,3.5h211.8L311,419.8z"/>
		<path class="st2" d="M311,419.8c-24.9-8.5-41.5-13.2-42.7-34.7l-9.9-146c-2.2,0.3-4.5,0.4-6.8,0.4c-8.7,0-16.9-2.1-23.7-5.6
			c-3.5,4.9-8.1,9.2-13.5,12.7l8.4,139.9c0.2,3.2,0.7-13.3,1.4-10.5c5.6,22.5-16.6,41.5-45.4,41.5h-33.9c-6.8,6.2-15.4-1.2-25.4,2.2
			l-10.2,3.5h211.8L311,419.8z"/>
		<path class="st3" d="M412.8,117.4c0-32.8-33.5-59.5-74.8-59.5c-1.7,0-3.4,0-5,0.1C320.3,28.2,284.8,6.8,243,6.8
			c-26.2,0-49.8,8.4-67,22c-7.6-3.4-16.4-5.3-25.7-5.3c-26.3,0-48.1,15.2-52.3,35.2C57.4,63.6,26.4,91.4,26.4,125
			c0,10.4,3,20.3,8.3,29.1c-15.9,9-26.2,23.8-26.2,40.5c0,27.5,28,49.8,62.6,49.8c1,0,2.1,0,3.1-0.1c1.7,6.9,9.4,12,18.5,12
			c3.9,0,7.5-0.9,10.4-2.5c16,15.1,40.1,24.6,67,24.2l1.4-22.1c2.6,0.3,5.3,0.5,8,0.5c20.7,0,38.8-9.1,48.3-22.5
			c6.8,3.5,15,5.6,23.7,5.6c2.3,0,4.6-0.1,6.8-0.4l2.3,38.3c2,0.4,4.1,0.6,6.3,0.6c12.4,0,22.8-7.1,24.9-16.5
			c2.5,0.2,4.9,0.3,7.5,0.3c41.3,0,74.8-26.6,74.8-59.5c0-0.5,0-1,0-1.5c18.9-1,33.9-13.6,33.9-28.9c0-7.5-3.6-14.3-9.5-19.5
			C407.5,142.6,412.8,130.5,412.8,117.4L412.8,117.4z"/>
		<path class="st4" d="M160.9,253.2c-17.8,6.3-35.5,7.9-51.7,5.8c15.7,12.1,37.2,19.4,60.9,18.9l1.4-22.1c2.6,0.3,5.3,0.5,8,0.5
			c2.2,0,4.5-0.1,6.6-0.3L160.9,253.2z"/>
		<path class="st5" d="M412.8,117.4c0-30.5-28.9-55.7-66.1-59.1c12.7,10.7,20.5,25.1,20.5,40.9c0,13.1-5.3,25.2-14.4,35.1
			c5.9,5.1,9.5,12,9.5,19.5c0,15.3-15,27.9-33.9,28.9c0,0.5,0,1,0,1.5c0,31.5-30.9,57.3-69.9,59.3l2,33.9c2,0.4,4.1,0.6,6.3,0.6
			c12.4,0,22.8-7.1,24.9-16.5c2.5,0.2,4.9,0.3,7.5,0.3c41.3,0,74.8-26.6,74.8-59.5c0-0.5,0-1,0-1.5c18.9-1,33.9-13.6,33.9-28.9
			c0-7.5-3.6-14.3-9.5-19.5C407.5,142.6,412.8,130.5,412.8,117.4L412.8,117.4z"/>
		<path class="st6" d="M207.6,380.9c3,0,6-0.8,7.5-2.3c5.5-5.3,8.5-24.3,8.5-30.4v-28.5c0-2.5-3.8-4.5-8.5-4.5s-8.5,2-8.5,4.5v28.5
			c0,4.6-2.2,22.1-6.4,26.1c-2.3,2.2-0.7,4.9,3.4,6.1C204.9,380.7,206.3,380.9,207.6,380.9L207.6,380.9z"/>
		<path class="st6" d="M413.1,122.2c-4.6-0.7-9.1,1.7-10,5.4c-1.9,7.6-5.7,14.6-11.5,20.9c-2.4,2.6-2.2,6.2,0.6,8.6
			c4.7,4.1,7.3,9.4,7.3,14.9c0,11.6-11.4,21.3-25.9,22.1c-4.6,0.3-8.1,3.3-8,6.9c1,29.5-29,54-66.2,54c-2.2,0-4.4-0.1-6.6-0.3
			c-4.4-0.4-8.5,2.1-9.2,5.5c-1.3,5.8-7.3,10.2-14.6,10.9l-1.6-26.8c4.4-1.1,8.7-2.7,12.7-4.8c4-2,5.1-6.3,2.5-9.4
			c-2.6-3.1-7.9-4-11.8-2c-11.5,6-26.5,6-38.1,0c-2-1-4.4-1.3-6.7-0.9c-2.3,0.4-4.2,1.6-5.4,3.3c-15.3,21.6-52.4,25.5-74.2,7.9
			c-3.3-2.7-8.7-2.7-12.1-0.1c-3.4,2.6-3.4,6.9-0.1,9.6c8.1,6.5,17.9,11.1,28.7,13.4L162,271c-20.3-1.3-39.1-8.9-52.4-21.5
			c-2.8-2.7-7.7-3.2-11.3-1.3c-1.7,0.9-3.7,1.4-5.7,1.4c-4.9,0-9.2-2.8-10.1-6.6c-0.8-3.3-4.6-5.6-8.8-5.4c-0.9,0-1.8,0.1-2.7,0.1
			c-29.8,0-54-19.3-54-43c0-13.8,8.5-26.9,22.6-35c3.4-1.9,4.5-5.5,2.7-8.5c-5-8.2-7.5-17-7.5-26.1c0-29.5,27.6-55.1,64.2-59.6
			c3.6-0.4,6.5-2.7,7.1-5.6c3.6-17.1,22-29.5,43.9-29.5c7.6,0,15,1.5,21.6,4.4c3.3,1.5,7.5,1,10.2-1.1c16.3-12.9,38-20,61-20
			c37.1,0,70,18.7,82,46.7c1.2,2.9,4.8,4.8,8.7,4.6c1.5-0.1,3-0.1,4.5-0.1c27.7,0,52.7,13.9,62.2,34.6c1.6,3.5,6.5,5.3,11,4.1
			c4.4-1.3,6.7-5.2,5.1-8.7c-11.9-25.8-42.9-43.2-77.5-43.5C323,20.3,285.3,0,243,0c-25.5,0-49.6,7.3-68.6,20.6
			c-7.6-2.6-15.8-3.9-24.2-3.9c-28.2,0-52.3,14.9-59.4,36.1c-19.4,3.4-37.1,11.7-50.2,23.8C25.9,90.1,17.9,107.3,17.9,125
			c0,9.4,2.2,18.4,6.4,27C9,162.7,0,178.3,0,194.6c0,30.4,30.3,55.3,68.2,56.5c4.6,7.2,14,12,24.5,12c2.9,0,5.7-0.3,8.3-1
			c16,13.2,37.3,21.1,60.2,22.5l-1.4,21.7c-0.2,3.7,3.4,6.9,8.1,7.1c0.1,0,0.3,0,0.4,0c4.5,0,8.3-2.8,8.5-6.4
			c0.4-6.9,2.4-38.3,2.8-43.9c9.4,0,18.6-1.7,26.9-4.8v34.9c0,3.8,3.8,6.8,8.5,6.8c4.7,0,8.5-3,8.5-6.8v-44.2c2.6-1.9,4.9-4,7.1-6.3
			c6.1,2.1,12.8,3.3,19.6,3.4c1.9,31.7,7.6,107.9,9.5,139.1c1.1,17.7,11.6,19.9,28.3,31H142.2c16.6-11.1,27.2-13.2,28.4-30.9
			l4.2-46.5c0.2-3.7-3.4-6.9-8.1-7.1c-4.7-0.2-8.7,2.7-9,6.4l-4.2,46.5c-1.2,18.7-15.9,21.3-37.6,28.7l-10.2,3.5
			c-3.7,1.3-5.8,4.5-5,7.6s4.3,5.4,8.4,5.4h211.8c4.1,0,7.6-2.3,8.4-5.4c0.8-3.2-1.3-6.3-5-7.6l-10-3.4
			c-21.7-7.4-36.4-10.1-37.6-28.8l-3.8-44.7l51.8-6.7v5.6c0,3.6,17.4,5.8,17.1,0v-7.8l4.7-0.6c4.4-0.6,7.5-3.5,7.5-7v-22
			c0-3.9-4-7.1-9-7.1h-24.2c-4.7,0-8.5,3-8.5,6.8s3.8,6.8,8.5,6.8h16V318c-32.5,4.2-42.4,5.5-64.9,8.4l-1.1-18.5h10.1
			c4.7,0,8.5-3,8.5-6.8s-3.8-6.8-8.5-6.8h-10.9l-0.6-9.6c12.6-0.8,23.5-7.1,28.4-16.2c0.4,0,0.9,0,1.3,0c44.1,0,80.3-27.4,83.1-61.9
			c19.6-3.9,34-18.1,34-34.7c0-7.1-2.6-13.9-7.5-19.8c5.3-6.8,8.9-14.2,10.9-22C420.7,126.5,417.7,122.9,413.1,122.2L413.1,122.2z"
			/>
	</g>
	<g>
		<g>
			<g>
				<path class="st7" d="M226.2,111.9c-3.6,1-7.3,1.5-11,1.6c-22.1,0-40.1-17.9-40.1-40c0-17.8,11.9-33.7,29-38.6
					c3.6-1,7.3-1.5,11-1.6c10.7,0,20.8,4.1,28.3,11.7c7.6,7.6,11.8,17.6,11.8,28.3C255.2,91.1,243.3,107,226.2,111.9L226.2,111.9z"
					/>
				<path class="st8" d="M243.4,45c-7.6-7.6-17.6-11.7-28.3-11.7c-3.7,0-7.4,0.5-11,1.6c-2.7,0.8-5.2,1.8-7.6,3.1
					c1.9-0.3,3.8-0.4,5.8-0.4c10.7,0,20.8,4.1,28.3,11.7c7.6,7.6,11.8,17.6,11.8,28.3c0,15-8.5,28.7-21.4,35.5
					c1.8-0.3,3.5-0.6,5.2-1.1c17.1-4.9,29-20.8,29-38.6C255.2,62.6,251,52.6,243.4,45L243.4,45z"/>
				
					<ellipse transform="matrix(0.9829 -0.1844 0.1844 0.9829 -9.8379 40.9448)" class="st9" cx="215.2" cy="73.4" rx="29.2" ry="29.2"/>
			</g>
		</g>
		<path class="st6" d="M251.6,51.5c-1.8-3-3.9-5.7-6.4-8.2c-8.1-8-18.8-12.5-30.1-12.4c-4,0-7.9,0.6-11.7,1.6
			c-6.5,1.9-12.3,5.2-17,9.6c-5.8,5.4-9.9,12.4-12,20.1c-0.2,0.9-0.5,1.8-0.6,2.7c-1.9,9.2-0.9,18.9,3.3,27.4
			c7,14.1,21.5,23.8,38.2,23.8c8.6,0,17.2-2.7,24.3-7.7c1-0.7,1.4-2,0.9-3.1c-0.7-1.5-2.5-2-3.8-1.1c-6.2,4.4-13.8,6.8-21.4,6.8
			c-20.7,0-37.5-16.8-37.6-37.5c0-16.7,11.1-31.5,27.1-36.1c3.3-1,6.8-1.4,10.3-1.5c10.9,0,21.1,4.6,28.3,12.9
			c4.8,5.5,7.9,12.3,8.9,19.5c1.3,9.7-1.1,19.2-6.8,27.1c-0.8,1.1-0.7,2.7,0.4,3.5c1.1,0.9,2.8,0.7,3.7-0.5c0.3-0.4,0.5-0.7,0.8-1.1
			c5.1-7.4,7.3-16.4,7.1-25.4C257.2,65.2,255.9,59.1,251.6,51.5z"/>
		<path class="st6" d="M246.9,73.3c0-17.5-14.3-31.7-31.8-31.7C198,41.3,183,56.4,183.4,73.4c0,17.5,14.3,31.7,31.8,31.7
			C232.4,105.4,247.1,90.6,246.9,73.3z M234,92.2c-5,5-11.7,7.8-18.8,7.8c-23.6,0.1-35.6-28.9-18.9-45.5c5-5.1,11.7-7.8,18.8-7.8
			C238.7,46.6,250.7,75.6,234,92.2z"/>
		<path class="st6" d="M217.5,57.7l0-1.3c0-1.4-1.1-2.5-2.5-2.5c-1.4,0-2.5,1.1-2.5,2.5l0,1.4c-6,1.5-8.4,9.9-3.6,13.8
			c1.7,1.3,4.1,2.5,8.2,3.9c5.1,1.8,2.3,8.5-2,8.3c-2.7,0-3.5-0.1-5.5-1.5c-1.2-0.8-2.7-0.4-3.5,0.7c-0.8,1.2-0.4,2.7,0.7,3.5
			c2.2,1.4,3.8,2,5.8,2.2l0,1.4c0,1.4,1.1,2.5,2.5,2.5c1.3,0,2.5-1.2,2.5-2.5l0-1.7c3.6-1,6.5-4.2,7.1-7.9c0.7-4.4-1.7-8.4-6-9.9
			c-2.5-0.9-5.2-1.9-6.7-3.1c-1.7-1.3-0.1-4.3,1.5-4.9c1.7-0.6,3.9-0.2,5.2,0.8c0,0,1.9,2.1,3.8,0.3c1.9-1.8-0.4-4-0.4-4
			C221.2,59.1,219.6,58.1,217.5,57.7L217.5,57.7z"/>
	</g>
	<g>
		<g>
			<g>
				<path class="st7" d="M100.8,210.9c-3.6,1-7.3,1.5-11,1.6c-22.1,0-40.1-17.9-40.1-40c0-17.8,11.9-33.7,29-38.6
					c3.6-1,7.3-1.5,11-1.6c10.7,0,20.8,4.1,28.3,11.7c7.6,7.6,11.8,17.6,11.8,28.3C129.8,190.2,117.9,206,100.8,210.9L100.8,210.9z"
					/>
				<path class="st8" d="M118,144.1c-7.6-7.6-17.6-11.7-28.3-11.7c-3.7,0-7.4,0.5-11,1.6c-2.7,0.8-5.2,1.8-7.6,3.1
					c1.9-0.3,3.8-0.4,5.8-0.4c10.7,0,20.8,4.1,28.3,11.7c7.6,7.6,11.8,17.6,11.8,28.3c0,15-8.5,28.7-21.4,35.5
					c1.8-0.3,3.5-0.6,5.2-1.1c17.1-4.9,29-20.8,29-38.6C129.7,161.7,125.5,151.6,118,144.1L118,144.1z"/>
				
					<ellipse transform="matrix(0.9829 -0.1844 0.1844 0.9829 -30.2518 19.5146)" class="st9" cx="89.8" cy="172.4" rx="29.2" ry="29.2"/>
			</g>
		</g>
		<path class="st6" d="M126.2,150.5c-1.8-3-3.9-5.7-6.4-8.2c-8.1-8-18.8-12.5-30.1-12.4c-4,0-7.9,0.6-11.7,1.6
			c-6.5,1.9-12.3,5.2-17,9.6c-5.8,5.4-9.9,12.4-12,20.1c-0.2,0.9-0.5,1.8-0.6,2.7c-1.9,9.2-0.9,18.9,3.3,27.4
			c7,14.1,21.5,23.8,38.2,23.8c8.6,0,17.2-2.7,24.3-7.7c1-0.7,1.4-2,0.9-3.1c-0.7-1.5-2.5-2-3.8-1.1c-6.2,4.4-13.8,6.8-21.4,6.8
			c-20.7,0-37.5-16.8-37.6-37.5c0-16.7,11.1-31.5,27.1-36.1c3.3-1,6.8-1.4,10.3-1.5c10.9,0,21.1,4.6,28.3,12.9
			c4.8,5.5,7.9,12.3,8.9,19.5c1.3,9.7-1.1,19.2-6.8,27.1c-0.8,1.1-0.7,2.7,0.4,3.5c1.1,0.9,2.8,0.7,3.7-0.5c0.3-0.4,0.5-0.7,0.8-1.1
			c5.1-7.4,7.3-16.4,7.1-25.4C131.7,164.2,130.5,158.1,126.2,150.5z"/>
		<path class="st6" d="M121.4,172.4c0-17.5-14.3-31.7-31.8-31.7c-17.1-0.3-32.1,14.7-31.7,31.8c0,17.5,14.3,31.7,31.8,31.7
			C106.9,204.4,121.7,189.6,121.4,172.4z M108.6,191.3c-5,5-11.7,7.8-18.8,7.8c-23.6,0.1-35.6-28.9-18.9-45.5
			c5-5.1,11.7-7.8,18.8-7.8C113.2,145.6,125.3,174.6,108.6,191.3z"/>
		<path class="st6" d="M92,156.7l0-1.3c0-1.4-1.1-2.5-2.5-2.5c-1.4,0-2.5,1.1-2.5,2.5l0,1.4c-6,1.5-8.4,9.9-3.6,13.8
			c1.7,1.3,4.1,2.5,8.2,3.9c5.1,1.8,2.3,8.5-2,8.3c-2.7,0-3.5-0.1-5.5-1.5c-1.2-0.8-2.7-0.4-3.5,0.7c-0.8,1.2-0.4,2.7,0.7,3.5
			c2.2,1.4,3.8,2,5.8,2.2l0,1.4c0,1.4,1.1,2.5,2.5,2.5c1.3,0,2.5-1.2,2.5-2.5l0-1.7c3.6-1,6.5-4.2,7.1-7.9c0.7-4.4-1.7-8.4-6-9.9
			c-2.5-0.9-5.2-1.9-6.7-3.1c-1.7-1.3-0.1-4.3,1.5-4.9c1.7-0.6,3.9-0.2,5.2,0.8c0,0,1.9,2.1,3.8,0.3c1.9-1.8-0.4-4-0.4-4
			C95.8,158.1,94.1,157.2,92,156.7L92,156.7z"/>
	</g>
	<g>
		<g>
			<g>
				<path class="st7" d="M332.1,219.7c-3.6,1-7.3,1.5-11,1.6c-22.1,0-40.1-17.9-40.1-40c0-17.8,11.9-33.7,29-38.6
					c3.6-1,7.3-1.5,11-1.6c10.7,0,20.8,4.1,28.3,11.7c7.6,7.6,11.8,17.6,11.8,28.3C361.1,198.9,349.2,214.7,332.1,219.7L332.1,219.7
					z"/>
				<path class="st8" d="M349.3,152.8c-7.6-7.6-17.6-11.7-28.3-11.7c-3.7,0-7.4,0.5-11,1.6c-2.7,0.8-5.2,1.8-7.6,3.1
					c1.9-0.3,3.8-0.4,5.8-0.4c10.7,0,20.8,4.1,28.3,11.7c7.6,7.6,11.8,17.6,11.8,28.3c0,15-8.5,28.7-21.4,35.5
					c1.8-0.3,3.5-0.6,5.2-1.1c17.1-4.9,29-20.8,29-38.6C361,170.4,356.9,160.3,349.3,152.8L349.3,152.8z"/>
				
					<ellipse transform="matrix(0.9829 -0.1844 0.1844 0.9829 -27.894 62.3187)" class="st9" cx="321.1" cy="181.1" rx="29.2" ry="29.2"/>
			</g>
		</g>
		<path class="st6" d="M357.5,159.2c-1.8-3-3.9-5.7-6.4-8.2c-8.1-8-18.8-12.5-30.1-12.4c-4,0-7.9,0.6-11.7,1.6
			c-6.5,1.9-12.3,5.2-17,9.6c-5.8,5.4-9.9,12.4-12,20.1c-0.2,0.9-0.5,1.8-0.6,2.7c-1.9,9.2-0.9,18.9,3.3,27.4
			c7,14.1,21.5,23.8,38.2,23.8c8.6,0,17.2-2.7,24.3-7.7c1-0.7,1.4-2,0.9-3.1c-0.7-1.5-2.5-2-3.8-1.1c-6.2,4.4-13.8,6.8-21.4,6.8
			c-20.7,0-37.5-16.8-37.6-37.5c0-16.7,11.1-31.5,27.1-36.1c3.3-1,6.8-1.4,10.3-1.5c10.9,0,21.1,4.6,28.3,12.9
			c4.8,5.5,7.9,12.3,8.9,19.5c1.3,9.7-1.1,19.2-6.8,27.1c-0.8,1.1-0.7,2.7,0.4,3.5c1.1,0.9,2.8,0.7,3.7-0.5c0.3-0.4,0.5-0.7,0.8-1.1
			c5.1-7.4,7.3-16.4,7.1-25.4C363.1,172.9,361.8,166.8,357.5,159.2z"/>
		<path class="st6" d="M352.8,181.1c0-17.5-14.3-31.7-31.8-31.7c-17.1-0.3-32.1,14.7-31.7,31.8c0,17.5,14.3,31.7,31.8,31.7
			C338.3,213.1,353,198.3,352.8,181.1z M339.9,200c-5,5-11.7,7.8-18.8,7.8c-23.6,0.1-35.6-28.9-18.9-45.5c5-5.1,11.7-7.8,18.8-7.8
			C344.6,154.4,356.6,183.4,339.9,200z"/>
		<path class="st6" d="M323.4,165.5l0-1.3c0-1.4-1.1-2.5-2.5-2.5c-1.4,0-2.5,1.1-2.5,2.5l0,1.4c-6,1.5-8.4,9.9-3.6,13.8
			c1.7,1.3,4.1,2.5,8.2,3.9c5.1,1.8,2.3,8.5-2,8.3c-2.7,0-3.5-0.1-5.5-1.5c-1.2-0.8-2.7-0.4-3.5,0.7c-0.8,1.2-0.4,2.7,0.7,3.5
			c2.2,1.4,3.8,2,5.8,2.2l0,1.4c0,1.4,1.1,2.5,2.5,2.5c1.3,0,2.5-1.2,2.5-2.5l0-1.7c3.6-1,6.5-4.2,7.1-7.9c0.7-4.4-1.7-8.4-6-9.9
			c-2.5-0.9-5.2-1.9-6.7-3.1c-1.7-1.3-0.1-4.3,1.5-4.9c1.7-0.6,3.9-0.2,5.2,0.8c0,0,1.9,2.1,3.8,0.3c1.9-1.8-0.4-4-0.4-4
			C327.1,166.9,325.5,165.9,323.4,165.5L323.4,165.5z"/>
	</g>
	<g>
		<g>
			<g>
				<path class="st7" d="M343.2,396.7c-2.7,0.8-5.5,1.2-8.4,1.2c-16.8,0-30.4-13.6-30.4-30.4c0-13.5,9-25.5,22-29.3
					c2.7-0.8,5.5-1.2,8.4-1.2c8.1,0,15.8,3.1,21.5,8.9c5.7,5.7,8.9,13.4,8.9,21.5C365.2,381,356.1,393,343.2,396.7L343.2,396.7z"/>
				<path class="st8" d="M356.2,346c-5.8-5.7-13.4-8.9-21.5-8.9c-2.8,0-5.6,0.4-8.4,1.2c-2,0.6-4,1.4-5.8,2.3
					c1.4-0.2,2.9-0.3,4.4-0.3c8.1,0,15.8,3.1,21.5,8.9c5.7,5.7,8.9,13.4,8.9,21.5c0,11.4-6.4,21.8-16.2,26.9c1.3-0.2,2.7-0.5,4-0.9
					c13-3.7,22-15.8,22-29.3C365.1,359.3,362,351.7,356.2,346L356.2,346z"/>
				
					<ellipse transform="matrix(0.9829 -0.1844 0.1844 0.9829 -62.0185 68.0424)" class="st9" cx="334.8" cy="367.5" rx="22.2" ry="22.2"/>
			</g>
		</g>
		<path class="st6" d="M362.5,350.8c-1.4-2.2-3-4.3-4.9-6.2c-6.1-6.1-14.2-9.5-22.9-9.4c-3,0-6,0.4-8.9,1.3c-4.9,1.4-9.3,4-12.9,7.3
			c-4.4,4.1-7.5,9.4-9.1,15.2c-0.2,0.7-0.4,1.4-0.5,2c-1.5,7-0.7,14.4,2.5,20.8c5.3,10.7,16.3,18.1,29,18c6.6,0,13.1-2.1,18.4-5.8
			c0.7-0.5,1-1.5,0.7-2.3c-0.5-1.1-1.9-1.5-2.9-0.8c-4.7,3.3-10.5,5.1-16.3,5.1c-15.7,0-28.5-12.7-28.5-28.4
			c0-12.7,8.5-23.9,20.6-27.4c2.5-0.7,5.2-1.1,7.8-1.1c8.3,0,16,3.5,21.5,9.8c3.6,4.2,6,9.3,6.7,14.8c1,7.4-0.8,14.6-5.2,20.6
			c-0.6,0.8-0.5,2,0.3,2.7c0.9,0.7,2.1,0.5,2.8-0.4c0.2-0.3,0.4-0.5,0.6-0.8c3.8-5.6,5.6-12.4,5.4-19.3
			C366.7,361.2,365.7,356.6,362.5,350.8z"/>
		<path class="st6" d="M358.8,367.5c0-13.3-10.8-24.1-24.1-24.1c-13-0.2-24.3,11.2-24,24.1c0,13.3,10.8,24.1,24.1,24.1
			C347.8,391.8,359.1,380.5,358.8,367.5z M349.1,381.8c-3.8,3.8-8.9,5.9-14.3,6c-17.9,0.1-27.1-22-14.4-34.6c3.8-3.8,8.9-5.9,14.3-6
			C352.6,347.2,361.8,369.2,349.1,381.8z"/>
		<path class="st6" d="M336.5,355.6l0-1c0-1.1-0.9-1.9-1.9-1.9c-1.1,0-1.9,0.9-1.9,1.9l0,1.1c-4.5,1.1-6.4,7.5-2.7,10.5
			c1.3,1,3.1,1.9,6.2,3c3.8,1.4,1.8,6.4-1.6,6.3c-2,0-2.7-0.1-4.2-1.1c-0.9-0.6-2.1-0.3-2.7,0.6c-0.6,0.9-0.3,2.1,0.6,2.7
			c1.7,1.1,2.9,1.5,4.4,1.7l0,1.1c0,1.1,0.9,1.9,1.9,1.9c1,0,1.9-0.9,1.9-1.9l0-1.3c2.8-0.7,4.9-3.2,5.4-6c0.6-3.4-1.3-6.4-4.5-7.5
			c-1.9-0.7-3.9-1.5-5.1-2.4c-1.3-1-0.1-3.3,1.1-3.7c1.3-0.4,2.9-0.2,3.9,0.6c0,0,1.4,1.6,2.9,0.2c1.5-1.4-0.3-3.1-0.3-3.1
			C339.4,356.6,338.1,355.9,336.5,355.6L336.5,355.6z"/>
	</g>
</g>
</svg>
