<?xml version="1.0" encoding="utf-8"?>
<!-- Generator: Adobe Illustrator 25.0.0, SVG Export Plug-In . SVG Version: 6.00 Build 0)  -->
<svg version="1.1" id="Layer_1" xmlns="http://www.w3.org/2000/svg" xmlns:xlink="http://www.w3.org/1999/xlink" x="0px" y="0px"
	 viewBox="0 0 130 535.6" style="enable-background:new 0 0 130 535.6;" xml:space="preserve">
<style type="text/css">
	.st0{fill:#87796F;}
	.st1{fill:#35414D;}
	.st2{fill-rule:evenodd;clip-rule:evenodd;fill:#FFF2E8;}
	.st3{fill-rule:evenodd;clip-rule:evenodd;fill:#FFE4CF;}
	.st4{fill-rule:evenodd;clip-rule:evenodd;fill:#CECECE;}
	.st5{fill-rule:evenodd;clip-rule:evenodd;fill:#838383;}
	.st6{fill-rule:evenodd;clip-rule:evenodd;fill:#FE9737;}
	.st7{fill-rule:evenodd;clip-rule:evenodd;fill:#B5ADB6;}
	.st8{fill-rule:evenodd;clip-rule:evenodd;fill:#F36B37;}
	.st9{fill-rule:evenodd;clip-rule:evenodd;fill:#595959;}
	.st10{fill:#60A917;}
	.st11{fill:#FE9737;}
	.st12{fill:#D8D8D8;}
	.st13{fill-rule:evenodd;clip-rule:evenodd;fill:#35414D;}
	.st14{fill-rule:evenodd;clip-rule:evenodd;fill:#99DD58;}
	.st15{fill:#FF5A5A;}
	.st16{fill-rule:evenodd;clip-rule:evenodd;fill:#97DA7B;}
	.st17{fill-rule:evenodd;clip-rule:evenodd;fill:#68CA44;}
	.st18{fill:#6F909E;}
	.st19{fill:#EC5664;}
	.st20{fill:#DB4554;}
	.st21{fill:#F5F5FA;}
	.st22{fill:#E5E8EC;}
	.st23{fill:#FFCD57;}
	.st24{fill:#F2BB45;}
	.st25{fill:#F4BA43;}
	.st26{fill:#F1E8DC;}
	.st27{fill:#9A99A1;}
	.st28{fill:#54C1ED;}
	.st29{fill:#F4644D;}
	.st30{fill:#8BC932;}
	.st31{fill:#F9D36B;}
	.st32{fill:#EFDBC6;}
	.st33{fill:#E5CFBD;}
	.st34{fill:#46BEE8;}
	.st35{fill:#17AFDE;}
	.st36{fill:#FFB155;}
	.st37{fill-rule:evenodd;clip-rule:evenodd;fill:#F4644D;}
	.st38{fill:#E6F0F6;}
	.st39{fill:#AACFE2;}
	.st40{fill:#F19B40;}
	.st41{fill-rule:evenodd;clip-rule:evenodd;fill:#E8533A;}
</style>
<g>
	<g>
		<g>
			<g>
				<path class="st0" d="M59.6,534.5c-4.2,0-8.1-2.2-10.2-5.9L2.7,448.9c-1.6-2.7-2-5.9-1.2-9c0.8-3.1,2.7-5.6,5.5-7.2l57.5-33.6
					c1.8-1.1,3.9-1.6,6-1.6c4.2,0,8.1,2.2,10.2,5.9l46.6,79.7c1.6,2.7,2,5.9,1.2,9c-0.8,3.1-2.7,5.6-5.5,7.2l-57.5,33.6
					C63.7,533.9,61.7,534.5,59.6,534.5L59.6,534.5z"/>
			</g>
			<g>
				<path class="st1" d="M70.4,398.6c3.7,0,7.3,1.9,9.3,5.3l46.6,79.7c3,5.1,1.3,11.7-3.8,14.7L65,531.9c-1.7,1-3.6,1.5-5.4,1.5
					c-3.7,0-7.3-1.9-9.3-5.3L3.7,448.4c-3-5.1-1.3-11.7,3.8-14.7L65,400C66.7,399.1,68.6,398.6,70.4,398.6 M70.4,396.4
					c-2.3,0-4.5,0.6-6.5,1.8L6.4,431.8c-6.2,3.6-8.2,11.5-4.6,17.7l46.6,79.7c2.3,4,6.6,6.4,11.2,6.4c2.3,0,4.5-0.6,6.5-1.8
					l57.5-33.6c3-1.7,5.1-4.5,6-7.9c0.9-3.3,0.4-6.8-1.3-9.8l-46.6-79.7C79.3,398.8,75,396.4,70.4,396.4L70.4,396.4z"/>
			</g>
		</g>
		<g id="g7750_10_" transform="translate(18.5,457.4355)">
			<g id="path7752_10_">
				<path class="st2" d="M-8.6-8.2l47.2,80.6c0.4,0.7,1.2,0.9,1.9,0.6l18.3-10.7l39.1-22.9l7.8-4.5c0.6-0.4,0.8-1.2,0.4-1.9L62.8-41
					l-0.4-0.8c-0.1-0.1-0.1-0.2-0.2-0.2l-9.3,5.4c-2.5,1.5-5.9,0.5-7.5-2.2L40-48c-0.1,0-0.2,0-0.3,0.1l-0.9,0.5l-51.2,30
					c-0.6,0.4-0.8,1.2-0.4,1.9L-8.6-8.2z"/>
			</g>
		</g>
		<g id="g7754_10_" transform="translate(257.3203,504.5)">
			<g id="path7756_10_">
				<path class="st3" d="M-211.6-87.7c14.5,4.5,29.4,16.9,39.8,34.7c2.3,3.9,4.2,7.8,5.8,11.7c0.5,1.3,1,2.5,1.4,3.8
					c0.5,1.5,1,3,1.5,4.5c4.2,14.1,4.1,27.8,0,38.3l22-12.9l7.8-4.5c0.6-0.4,0.8-1.2,0.4-1.9l-8-13.7l-10.6-18.1L-176-88.1l-0.4-0.8
					c-0.1-0.1-0.1-0.2-0.2-0.2l-22.2-6c-0.1,0-0.2,0-0.3,0.1l-0.9,0.5L-211.6-87.7z"/>
			</g>
		</g>
		<g id="g7758_10_" transform="translate(331.5508,504.1592)">
			<g id="path7760_10_">
				<path class="st4" d="M-273.1-94.7l5.4,9.2c1.6,2.7,4.9,3.7,7.5,2.2l9.3-5.4c-0.2-0.1-0.4-0.2-1-0.3l-20-5.4
					C-272.6-94.6-272.8-94.7-273.1-94.7"/>
			</g>
		</g>
		<g id="g7762_10_" transform="translate(331.5508,504.1592)">
			<g id="path7764_10_">
				<path class="st1" d="M-262.8-81.5c-2.3,0-4.6-1.2-5.9-3.5l-5.4-9.2c-0.3-0.5-0.1-1.2,0.4-1.5c0.5-0.3,1.2-0.1,1.5,0.4l5.4,9.2
					c1.3,2.2,3.9,3,6,1.8l8.4-4.9c0.5-0.3,1.2-0.1,1.5,0.4c0.3,0.5,0.1,1.2-0.4,1.5l-8.4,4.9C-260.6-81.8-261.7-81.5-262.8-81.5z"/>
			</g>
		</g>
		<g id="g7766_10_" transform="translate(413.1929,241.0635)">
			<g id="path7768_10_">
				<path class="st1" d="M-354.9,290.7c-0.9,0-1.7-0.5-2.2-1.3l-29.4-50.3c0,0,0,0,0,0l-22-37.7c-0.3-0.6-0.4-1.2-0.3-1.9
					c0.2-0.7,0.6-1.2,1.1-1.5l52.1-30.5c0.7-0.4,1.3-0.3,2-0.1l0.3,0.1l20.9,5.6c0.3,0.1,0.5,0.3,0.7,0.5c0.2,0.1,0.3,0.2,0.4,0.4
					l43.7,74.7c0.3,0.6,0.4,1.3,0.3,1.9c-0.2,0.6-0.6,1.2-1.1,1.5l-65.2,38.1C-354.1,290.6-354.5,290.7-354.9,290.7z M-383.8,239.4
					l28.6,48.9c0.1,0.1,0.3,0.2,0.3,0.2l65.2-38.1c0,0,0.1-0.1,0.1-0.1c0,0,0-0.1,0-0.3l-43.7-74.7l-20.9-5.6
					c-0.2,0-0.3-0.1-0.4-0.1l-52,30.4c0,0-0.1,0.1-0.1,0.1c0,0,0,0.1,0,0.2L-383.8,239.4C-383.8,239.3-383.8,239.3-383.8,239.4z"/>
			</g>
		</g>
		<g>
			<g id="g7770_10_" transform="translate(330.2446,64.9756)">
				<g id="path7772_10_">
					<path class="st1" d="M-237.9,437.7c-0.2,0-0.5,0-0.7-0.1c-0.3-0.1-0.4-0.3-0.4-0.6c0.1-0.3,0.3-0.4,0.6-0.4
						c1.1,0.2,1.3-0.2,1.5-0.9c0.2-0.7,0.6-1.8,2.2-1.3c0.4,0.1,1,0.2,1.2,0c0.2-0.1,0.3-0.3,0.3-0.7c0.1-0.4,0.1-0.9,0-1.2
						c0-0.7,0-1.3,0.4-1.7c0.5-0.4,1.1-0.1,1.7,0.2c0.8,0.4,1.6,0.8,2.5,0.1c0.2-0.2,0.5-0.1,0.7,0.1c0.2,0.2,0.1,0.5-0.1,0.7
						c-1.4,1.1-2.8,0.4-3.5-0.1c-0.2-0.1-0.6-0.3-0.7-0.3c-0.1,0.1-0.1,0.5-0.1,1c0,0.4,0,0.9-0.1,1.4c-0.1,0.7-0.3,1.1-0.7,1.4
						c-0.6,0.4-1.3,0.3-2,0.1c-0.8-0.2-0.9,0-1.1,0.7C-236.2,436.7-236.6,437.7-237.9,437.7z"/>
				</g>
			</g>
			<g id="g7774_10_" transform="translate(423.1602,447.0527)">
				<g id="path7776_10_">
					<path class="st4" d="M-333.6,7.5l4.4-1.1l-0.9-3.8c-0.3-1.2-1.5-2-2.7-1.7c-1.2,0.3-2,1.5-1.7,2.7L-333.6,7.5z"/>
				</g>
			</g>
			<g id="g7778_10_" transform="translate(325.644,101.1182)">
				<g id="path7780_10_">
					<path class="st5" d="M-226,392.2l2.3,3.1c0.2,0.2,0.2,0.2,0.2-0.1l0.6-3.8l0.7-4.1l-3.7-1.4l-2.6,2.9L-226,392.2z"/>
				</g>
			</g>
			<g id="g7782_10_" transform="translate(412.0854,441.0947)">
				<g id="path7784_10_">
					<path class="st6" d="M-323.3,14.6l8.3,34.3l3.2-0.8l3.2-0.8l-7.7-31.7l-0.6-2.5c-0.1-0.5-0.7-0.9-1.2-0.7l-4.4,1.1
						C-323.1,13.6-323.4,14.1-323.3,14.6"/>
				</g>
			</g>
			<g id="g7786_10_" transform="translate(452.5229,474.4854)">
				<g id="path7788_10_">
					<path class="st7" d="M-361.7-24.2l0.9,3.8l2.2-0.5l-0.9-3.8c-0.3-1.2-1.5-2-2.7-1.7c-0.4,0.1-0.8,0.3-1,0.6
						C-362.5-25.7-361.9-25.1-361.7-24.2"/>
				</g>
			</g>
			<g id="g7790_10_" transform="translate(441.9307,407.96)">
				<g id="path7792_10_">
					<path class="st8" d="M-348.4,49.3l7.4,30.3l0.4,1.5l2.2-0.5l-7.7-31.7l-0.6-2.5c-0.1-0.5-0.7-0.9-1.2-0.7l-2.2,0.5
						c0.5-0.1,1.1,0.2,1.2,0.7L-348.4,49.3z"/>
				</g>
			</g>
			<g id="g7794_10_" transform="translate(357.9888,127.2178)">
				<g id="path7796_10_">
					<path class="st9" d="M-256.7,361.8l-0.7,4.1l-0.2,1.3l1.5,2.1c0.2,0.2,0.2,0.2,0.2-0.1l0.6-3.8l0.7-4.1L-256.7,361.8z"/>
				</g>
			</g>
			<g id="g7798_10_" transform="translate(461.3545,402.1719)">
				<g id="path7800_10_">
					<path class="st1" d="M-359,66.5c-0.2,0-0.4-0.1-0.5-0.4l-2.9-11.9l-3.2,0.8c-0.3,0.1-0.5-0.1-0.6-0.3c-0.1-0.3,0.1-0.5,0.3-0.6
						l3.6-0.9c0.1,0,0.3,0,0.4,0.1c0.1,0.1,0.2,0.2,0.2,0.3l3,12.3c0.1,0.3-0.1,0.5-0.3,0.6C-358.9,66.4-359,66.5-359,66.5z"/>
				</g>
			</g>
			<g id="g7802_10_" transform="translate(374.0615,313.9443)">
				<g id="path7804_10_">
					<path class="st1" d="M-276.9,176.5c-0.1,0-0.2,0-0.2-0.1c-0.1-0.1-0.2-0.2-0.2-0.3l-3.9-16.1c-0.1-0.3,0.1-0.5,0.3-0.6
						c0.3-0.1,0.5,0.1,0.6,0.3l3.8,15.7l5.4-1.3l-8.2-33.8c0-0.1-0.1-0.2-0.2-0.3c-0.1-0.1-0.3-0.1-0.4-0.1l-4.4,1.1
						c-0.3,0.1-0.4,0.3-0.4,0.6l3.5,14.4c0.1,0.3-0.1,0.5-0.3,0.6c-0.3,0.1-0.5-0.1-0.6-0.3l-3.5-14.4c-0.2-0.8,0.3-1.6,1.1-1.8
						l4.4-1.1c0.4-0.1,0.8,0,1.1,0.2s0.6,0.5,0.7,0.9l8.3,34.2c0.1,0.3-0.1,0.5-0.3,0.6l-6.3,1.5
						C-276.9,176.5-276.9,176.5-276.9,176.5z"/>
				</g>
			</g>
			<g id="g7806_10_" transform="translate(331.5225,66.168)">
				<g id="path7808_10_">
					<path class="st1" d="M-229.5,430.8c-0.2,0-0.4-0.2-0.5-0.3l-4.8-6.4c-0.1-0.1-0.1-0.3-0.1-0.4c0.1-0.2,0.2-0.3,0.3-0.3l6.3-1.5
						c0.2,0,0.3,0,0.4,0.1c0.1,0.1,0.2,0.3,0.1,0.4l-1.3,7.9c0,0,0,0,0,0c0,0.2-0.1,0.5-0.4,0.6
						C-229.4,430.8-229.4,430.8-229.5,430.8z M-229.4,430.2L-229.4,430.2L-229.4,430.2z M-233.6,424.1l3.9,5.2l1.1-6.4L-233.6,424.1
						z"/>
				</g>
			</g>
			<g id="g7810_10_" transform="translate(423.1602,447.0527)">
				<g id="path7812_10_">
					<path class="st1" d="M-333.6,8c-0.1,0-0.2,0-0.2-0.1c-0.1-0.1-0.2-0.2-0.2-0.3l-0.9-3.8c-0.2-0.7-0.1-1.4,0.3-2.1
						c0.4-0.6,1-1.1,1.7-1.2c1.5-0.4,2.9,0.5,3.3,2l0.9,3.8c0.1,0.3-0.1,0.5-0.3,0.6l-4.4,1.1C-333.6,8-333.6,8-333.6,8z
						 M-332.4,1.4c-0.1,0-0.3,0-0.4,0.1c-0.5,0.1-0.9,0.4-1.1,0.8c-0.2,0.4-0.3,0.9-0.2,1.3l0.8,3.3l3.5-0.8l-0.8-3.3
						C-330.8,2-331.6,1.4-332.4,1.4z"/>
				</g>
			</g>
		</g>
		<g>
			<g>
				<path class="st1" d="M68.9,438.7c-0.3-0.1-0.6-0.1-0.8,0.1c-0.1,0.1-0.2,0.2-0.3,0.3l-3.5,4.1c-0.4,0.5-0.3,1.1,0.1,1.5
					c0.5,0.4,1.1,0.3,1.5-0.1l1.8-2.1l0.7,8.5l-5,0.4c-0.6,0-1,0.6-1,1.2c0,0,0,0,0,0l0.8,9.1c0,0.6,0.6,1,1.2,1c0,0,0,0,0,0
					c0.6,0,1-0.6,1-1.2c0,0,0,0,0,0l-0.7-8.1l5-0.4c0.6,0,1-0.6,1-1.2c0,0,0,0,0,0l-0.8-9.6L72,444c0.5,0.4,1.1,0.3,1.5-0.1
					c0.4-0.5,0.3-1.1-0.1-1.5l-4.1-3.5C69.2,438.8,69.1,438.7,68.9,438.7L68.9,438.7z"/>
			</g>
			<g>
				<path class="st10" d="M68.3,438.6c-0.3-0.1-0.6-0.1-0.8,0.1c-0.1,0.1-0.2,0.2-0.3,0.3l-3.5,4.1c-0.4,0.5-0.3,1.1,0.1,1.5
					s1.1,0.3,1.5-0.1l1.8-2.1l0.7,8.5l-5,0.4c-0.6,0-1,0.6-1,1.2c0,0,0,0,0,0l0.8,9.1c0,0.6,0.6,1,1.2,1c0,0,0,0,0,0
					c0.6,0,1-0.6,1-1.2c0,0,0,0,0,0l-0.7-8.1l5-0.4c0.6,0,1-0.6,1-1.2c0,0,0,0,0,0l-0.8-9.6l2.1,1.8c0.5,0.4,1.1,0.3,1.5-0.1
					c0.4-0.5,0.3-1.1-0.1-1.5l-4.1-3.5C68.5,438.7,68.4,438.6,68.3,438.6L68.3,438.6z"/>
			</g>
		</g>
		<g>
			<g>
				<g>
					<path class="st1" d="M45.8,459.3l-2.3-2.4c-0.4-0.4-0.4-1.1,0-1.6c0.4-0.4,1.1-0.4,1.6,0l1.5,1.6l4.1-3.8
						c0.4-0.4,1.1-0.4,1.6,0c0.4,0.4,0.4,1.1,0,1.6l-4.9,4.6C46.9,459.8,46.2,459.8,45.8,459.3L45.8,459.3z M39.4,455.5l-7.8-0.2
						c-0.6,0-1.1,0.5-1.1,1.1c0,0.6,0.5,1.1,1.1,1.1l7.8,0.2c0.6,0,1.1-0.5,1.1-1.1C40.5,456,40,455.5,39.4,455.5z M50.6,462.2
						c-0.4-0.4-1.1-0.5-1.6,0l-2.2,2l-2-2.2c-0.4-0.4-1.1-0.5-1.6,0s-0.5,1.1,0,1.6l2,2.2l-2.2,2c-0.4,0.4-0.5,1.1,0,1.6
						s1.1,0.5,1.6,0l2.2-2l2,2.2c0.4,0.4,1.1,0.5,1.6,0s0.5-1.1,0-1.6l-2-2.2l2.2-2C51,463.3,51.1,462.6,50.6,462.2L50.6,462.2z
						 M39.1,464.4l-7.8-0.2c-0.6,0-1.1,0.5-1.1,1.1c0,0.6,0.5,1.1,1.1,1.1l7.8,0.2c0.6,0,1.1-0.5,1.1-1.1
						C40.2,464.9,39.7,464.4,39.1,464.4z"/>
				</g>
			</g>
			<g>
				<g>
					<path class="st11" d="M45.8,458.7l-2.3-2.4c-0.4-0.4-0.4-1.1,0-1.6c0.4-0.4,1.1-0.4,1.6,0l1.5,1.6l4.1-3.8
						c0.4-0.4,1.1-0.4,1.6,0c0.4,0.4,0.4,1.1,0,1.6l-4.9,4.6C46.9,459.1,46.2,459.1,45.8,458.7L45.8,458.7z M39.4,454.8l-7.8-0.2
						c-0.6,0-1.1,0.5-1.1,1.1c0,0.6,0.5,1.1,1.1,1.1l7.8,0.2c0.6,0,1.1-0.5,1.1-1.1C40.5,455.3,40,454.8,39.4,454.8z M50.7,461.5
						c-0.4-0.4-1.1-0.5-1.6,0l-2.2,2l-2-2.2c-0.4-0.4-1.1-0.5-1.6,0s-0.5,1.1,0,1.6l2,2.2l-2.2,2c-0.4,0.4-0.5,1.1,0,1.6
						s1.1,0.5,1.6,0l2.2-2l2,2.2c0.4,0.4,1.1,0.5,1.6,0c0.4-0.4,0.5-1.1,0-1.6l-2-2.2l2.2-2C51.1,462.7,51.1,462,50.7,461.5
						L50.7,461.5z M39.1,463.7l-7.8-0.2c-0.6,0-1.1,0.5-1.1,1.1c0,0.6,0.5,1.1,1.1,1.1l7.8,0.2c0.6,0,1.1-0.5,1.1-1.1
						C40.2,464.2,39.7,463.7,39.1,463.7z"/>
				</g>
			</g>
		</g>
		<g>
			<g>
				<path class="st1" d="M70.3,472l-2.1-0.6c-0.2-0.1-0.4,0.1-0.5,0.3c-0.1,0.2,0.1,0.4,0.3,0.5l2.1,0.6c0.1,0,0.2,0,0.3,0
					c0.1,0,0.1-0.1,0.2-0.2C70.6,472.2,70.5,472,70.3,472z M72.1,465.9c-0.2,0.1-0.2,0.3-0.1,0.5l1.1,1.9c0.1,0.2,0.3,0.2,0.5,0.1
					c0.2-0.1,0.2-0.3,0.1-0.5l-1.1-1.9C72.5,465.9,72.3,465.8,72.1,465.9z M79.4,464.9c-0.2-0.1-0.4,0.1-0.5,0.3l-0.6,2.1
					c-0.1,0.2,0.1,0.4,0.3,0.5c0.1,0,0.2,0,0.3,0c0.1,0,0.1-0.1,0.2-0.2l0.6-2.1C79.7,465.2,79.6,465,79.4,464.9L79.4,464.9z
					 M84.7,469.2l-1.9,1.1c-0.2,0.1-0.2,0.3-0.1,0.5c0.1,0.2,0.3,0.2,0.5,0.1l1.9-1.1c0.2-0.1,0.2-0.3,0.1-0.5
					C85.1,469.1,84.8,469.1,84.7,469.2z M70.7,477.3l-1.9,1.1c-0.2,0.1-0.2,0.3-0.1,0.5c0.1,0.2,0.3,0.2,0.5,0.1l1.9-1.1
					c0.2-0.1,0.2-0.3,0.1-0.5C71.2,477.3,70.9,477.2,70.7,477.3z M82.1,471.1c-1.7-2.8-5.3-3.8-8.1-2.1c-2.8,1.7-3.8,5.3-2.1,8.1
					c0.6,1,1.4,1.8,2.4,2.3l4.3,2.6l-0.2,0.1c-0.6,0.4-0.8,1.2-0.5,1.8c0.2,0.3,0.5,0.5,0.8,0.6c-0.1,0.3-0.1,0.7,0.1,1
					c0.4,0.6,1.2,0.8,1.8,0.5l0.9-0.5c0.6,0.6,1.5,0.8,2.3,0.3c0.8-0.4,1.1-1.3,0.8-2.1l0.9-0.5c0.6-0.4,0.8-1.2,0.5-1.8
					c-0.2-0.3-0.5-0.5-0.8-0.6c0.1-0.3,0.1-0.7-0.1-1c-0.4-0.6-1.2-0.8-1.8-0.5l-0.2,0.1l-0.2-5C83,473.2,82.7,472.1,82.1,471.1z
					 M83.4,485.2c-0.4,0.2-0.9,0.2-1.2-0.1l1.7-1C84,484.5,83.8,484.9,83.4,485.2z M85.1,482.5l-4.9,2.9c-0.3,0.2-0.6,0.1-0.8-0.2
					c-0.2-0.3-0.1-0.6,0.2-0.8l4.9-2.9c0.3-0.2,0.6-0.1,0.8,0.2C85.5,482,85.4,482.3,85.1,482.5z M83.6,479.9
					c0.3-0.2,0.6-0.1,0.8,0.2c0.2,0.3,0.1,0.6-0.2,0.8l-4.9,2.9c-0.3,0.2-0.6,0.1-0.8-0.2c-0.2-0.3-0.1-0.6,0.2-0.8L83.6,479.9z
					 M77.9,478l0.6-1.2l1.4,0l1.3,3.6l-0.8,0.5L77.9,478z M82.2,474.4l0.2,5.4l-0.5,0.3l-1.3-3.5l0.8-1.5c0.1-0.2,0-0.4-0.2-0.5
					c-0.2-0.1-0.4,0-0.5,0.2l-0.8,1.4l-1.6,0c-0.1,0-0.3,0.1-0.3,0.2l-0.8,1.4l-1.6,0c-0.2,0-0.4,0.2-0.4,0.4c0,0.2,0.2,0.4,0.4,0.4
					l1.7,0l2.5,2.8l-0.5,0.3l-4.6-2.8c0,0,0,0,0,0c-0.9-0.5-1.6-1.1-2.1-2c-1.5-2.5-0.6-5.7,1.9-7.1c2.5-1.5,5.7-0.6,7.1,1.9
					C82,472.4,82.2,473.3,82.2,474.4C82.2,474.3,82.2,474.4,82.2,474.4L82.2,474.4z"/>
			</g>
			<g>
				<path class="st12" d="M79.9,476.9l1.3,3.6l-0.8,0.5l-2.5-2.9l0.6-1.2L79.9,476.9z"/>
			</g>
			<g>
				<path class="st11" d="M81.5,471.5c0.5,0.9,0.8,1.9,0.7,2.8c0,0,0,0,0,0l0.2,5.4l-0.5,0.3l-1.3-3.5l0.8-1.5
					c0.1-0.2,0-0.4-0.2-0.5c-0.2-0.1-0.4,0-0.5,0.2l-0.8,1.4l-1.6,0c-0.1,0-0.3,0.1-0.3,0.2l-0.8,1.4l-1.6,0c-0.2,0-0.4,0.2-0.4,0.4
					c0,0.2,0.2,0.4,0.4,0.4l1.7,0l2.5,2.8l-0.5,0.3l-4.6-2.8c0,0,0,0,0,0c-0.9-0.5-1.6-1.1-2.1-2c-1.5-2.5-0.6-5.7,1.9-7.1
					C76.8,468.2,80,469,81.5,471.5L81.5,471.5z"/>
			</g>
			<g>
				<g>
					<path class="st12" d="M84.4,480.1c0.2,0.3,0.1,0.6-0.2,0.8l-4.9,2.9c-0.3,0.2-0.6,0.1-0.8-0.2c-0.2-0.3-0.1-0.6,0.2-0.8
						l4.9-2.9C83.9,479.7,84.3,479.8,84.4,480.1z"/>
				</g>
				<g>
					<path class="st12" d="M85.4,481.7c0.2,0.3,0.1,0.6-0.2,0.8l-4.9,2.9c-0.3,0.2-0.6,0.1-0.8-0.2c-0.2-0.3-0.1-0.6,0.2-0.8
						l4.9-2.9C84.9,481.4,85.2,481.4,85.4,481.7z"/>
				</g>
				<g>
					<path class="st12" d="M83.9,484.1c0.1,0.4-0.1,0.9-0.5,1.1c-0.4,0.2-0.9,0.2-1.2-0.1L83.9,484.1z"/>
				</g>
			</g>
		</g>
		<g>
			<g>
				<g>
					<path class="st13" d="M41.9,483c-0.4,0.2-0.7,0.6-0.5,1.1l3.4,9.7c0.2,0.4,0.6,0.7,1.1,0.5l9.7-3.4c0.4-0.2,0.7-0.6,0.5-1.1
						l-1.7-4.9c-0.2-0.4,0.1-0.9,0.5-1.1c0.4-0.2,0.9,0.1,1.1,0.5l1.7,4.9c0.5,1.3-0.2,2.8-1.6,3.3l-9.7,3.4
						c-1.3,0.5-2.8-0.2-3.3-1.6l-3.4-9.7c-0.5-1.3,0.2-2.8,1.6-3.3l8.1-2.8c0.4-0.2,0.9,0.1,1.1,0.5c0.2,0.4-0.1,0.9-0.5,1.1
						L41.9,483z M53.2,478.3c0.2-0.4,0.7-0.6,1.1-0.4s0.6,0.7,0.4,1.1l-4.7,9.8c-0.2,0.4-0.7,0.6-1.1,0.4l-3.3-1.6
						c-0.4-0.2-0.6-0.7-0.4-1.1c0.2-0.4,0.7-0.6,1.1-0.4l2.5,1.2L53.2,478.3z"/>
				</g>
			</g>
			<g>
				<g>
					<path class="st14" d="M41.1,482.6c-0.4,0.2-0.7,0.6-0.5,1.1l3.4,9.7c0.2,0.4,0.6,0.7,1.1,0.5l9.7-3.4c0.4-0.2,0.7-0.6,0.5-1.1
						l-1.7-4.9c-0.2-0.4,0.1-0.9,0.5-1.1c0.4-0.2,0.9,0.1,1.1,0.5l1.7,4.9c0.5,1.3-0.2,2.8-1.6,3.3l-9.7,3.4
						c-1.3,0.5-2.8-0.2-3.3-1.6l-3.4-9.7c-0.5-1.3,0.2-2.8,1.6-3.3l8.1-2.8c0.4-0.2,0.9,0.1,1.1,0.5s-0.1,0.9-0.5,1.1L41.1,482.6z
						 M52.4,478c0.2-0.4,0.7-0.6,1.1-0.4c0.4,0.2,0.6,0.7,0.4,1.1l-4.7,9.8c-0.2,0.4-0.7,0.6-1.1,0.4l-3.3-1.6
						c-0.4-0.2-0.6-0.7-0.4-1.1c0.2-0.4,0.7-0.6,1.1-0.4l2.5,1.2L52.4,478z"/>
				</g>
			</g>
		</g>
		<g>
			<g>
				<path class="st1" d="M78,509.2c0,0-0.1,0-0.1,0.1c-0.3,0.2-0.6,0.2-0.9,0.1l-7.4-1.9l-2,7.5c-0.1,0.2-0.3,0.5-0.5,0.6l-0.1,0
					c0,0-0.1,0-0.1,0c-0.2,0.1-0.5,0.2-0.8,0.1c-0.6-0.2-1-0.8-0.8-1.4l2-7.5l-7.5-2c-0.6-0.2-0.9-0.9-0.7-1.5
					c0.1-0.3,0.3-0.5,0.5-0.6c0.2-0.1,0.5-0.2,0.8-0.1l7.5,1.9l1.9-7.4c0.1-0.3,0.3-0.5,0.5-0.7c0.3-0.2,0.6-0.2,0.9-0.1
					c0.6,0.2,0.9,0.7,0.8,1.3l-2,7.5l7.5,1.9c0.6,0.1,1,0.8,0.9,1.4c0,0,0,0,0,0C78.4,508.8,78.2,509.1,78,509.2z"/>
			</g>
			<g>
				<path class="st15" d="M77.8,508.6c0,0-0.1,0-0.1,0.1c-0.3,0.2-0.6,0.2-0.9,0.1l-7.4-1.9l-2,7.5c-0.1,0.2-0.3,0.5-0.5,0.6l-0.1,0
					c0,0-0.1,0-0.1,0c-0.2,0.1-0.5,0.2-0.8,0.1c-0.6-0.2-1-0.8-0.8-1.4l2-7.5l-7.5-2c-0.6-0.2-0.9-0.9-0.7-1.5
					c0.1-0.3,0.3-0.5,0.5-0.6c0.2-0.1,0.5-0.2,0.8-0.1l7.5,1.9l1.9-7.4c0.1-0.3,0.3-0.5,0.5-0.7c0.3-0.2,0.6-0.2,0.9-0.1
					c0.6,0.2,0.9,0.7,0.8,1.3l-2,7.5l7.5,1.9c0.6,0.1,1,0.8,0.9,1.4c0,0,0,0,0,0C78.3,508.2,78.1,508.4,77.8,508.6z"/>
			</g>
		</g>
		<g>
			<g id="g7830_9_" transform="translate(293.2144,407.6475)">
				<g id="path7832_9_">
					<path class="st16" d="M-235.6,18.8l-23.5,13.7c-0.4,0.2-0.5,0.8-0.3,1.2l2.5,4.3c0.2,0.4,0.8,0.5,1.2,0.3l23.5-13.7
						c0.4-0.2,0.5-0.8,0.3-1.2l-2.5-4.3C-234.7,18.7-235.2,18.5-235.6,18.8"/>
				</g>
			</g>
			<g id="g7834_9_" transform="translate(293.2144,407.6475)">
				<g id="path7836_9_">
					<path class="st17" d="M-235.6,18.8l-6.7,3.9c0.4-0.2,0.9-0.1,1.2,0.3l2.5,4.3c0.2,0.4,0.1,0.9-0.3,1.2l6.7-3.9
						c0.4-0.2,0.5-0.8,0.3-1.2l-2.5-4.3C-234.7,18.7-235.2,18.5-235.6,18.8"/>
				</g>
			</g>
			<g id="g7838_9_" transform="translate(128.1699,407.6475)">
				<g id="path7840_9_">
					<path class="st1" d="M-91.1,39.2c-0.6,0-1.1-0.3-1.4-0.8l-2.5-4.3c-0.2-0.4-0.3-0.8-0.2-1.2c0.1-0.4,0.4-0.8,0.7-1h0l23.5-13.7
						c0.4-0.2,0.8-0.3,1.2-0.2c0.4,0.1,0.8,0.4,1,0.7l2.5,4.3c0.4,0.8,0.2,1.8-0.6,2.2l-23.5,13.7C-90.5,39.1-90.8,39.2-91.1,39.2z
						 M-93.7,33.2C-93.7,33.2-93.7,33.3-93.7,33.2l2.5,4.4c0,0,0.1,0,0.1,0l23.5-13.7c0,0,0-0.1,0-0.1l-2.5-4.3c0,0-0.1,0-0.1,0
						L-93.7,33.2L-93.7,33.2z"/>
				</g>
			</g>
		</g>
		<g>
			<g>
				<path class="st18" d="M38.4,408.8c-1.7-2.8-5.3-3.8-8.1-2.1c-2.8,1.7-3.8,5.3-2.1,8.1l-10.3,6l6,10.3c0.8,1.4,2.6,1.8,3.9,1
					L53.7,417c1.4-0.8,1.8-2.6,1-3.9l-6-10.3L38.4,408.8z"/>
			</g>
			<g>
				<path class="st1" d="M26.4,433.9c-0.4,0-0.7,0-1.1-0.1c-1.1-0.3-2-1-2.6-2l-6-10.3c-0.2-0.3-0.2-0.7-0.1-1.1s0.3-0.7,0.7-0.9
					l9.2-5.4c-1.1-3.3,0.2-7,3.3-8.8c1.7-1,3.7-1.3,5.6-0.8c1.4,0.4,2.7,1.2,3.7,2.2l9.2-5.4c0.3-0.2,0.7-0.2,1.1-0.1
					c0.4,0.1,0.7,0.3,0.9,0.7l6,10.3c1.2,2.1,0.5,4.7-1.5,5.9l-24.1,14.1c0,0,0,0,0,0l-1.7,1C27.9,433.7,27.1,433.9,26.4,433.9z
					 M19.8,421.3l5.3,9c0.2,0.3,0.5,0.6,0.9,0.7c0.4,0.1,0.8,0,1.1-0.1l3.6-2.1c0,0,0,0,0,0l22.2-13c0.7-0.4,0.9-1.3,0.5-2l-5.3-9
					l-9,5.3c-0.3,0.2-0.7,0.2-1.1,0.1c-0.4-0.1-0.7-0.3-0.9-0.7c-0.6-1-1.6-1.8-2.8-2.1c-1.2-0.3-2.4-0.1-3.4,0.5
					c-2.1,1.3-2.9,4-1.6,6.2c0.2,0.3,0.2,0.7,0.1,1.1c-0.1,0.4-0.3,0.7-0.7,0.9L19.8,421.3z"/>
			</g>
			<g>
				<path class="st1" d="M27.5,426.9c-0.5,0-1-0.3-1.2-0.7c-0.4-0.7-0.2-1.6,0.5-2l20.5-12c0.7-0.4,1.6-0.2,2,0.5
					c0.4,0.7,0.2,1.6-0.5,2l-20.5,12C28,426.9,27.8,426.9,27.5,426.9z"/>
			</g>
			<g>
				<g>
					<g>
						<path class="st1" d="M33.3,413.2c-0.2,0-0.4,0-0.5-0.1c-0.2-0.1-0.3-0.2-0.5-0.3c-0.3-0.3-0.4-0.6-0.4-1c0-0.4,0.2-0.8,0.4-1
							c0.1-0.1,0.1-0.1,0.2-0.2c0.1,0,0.2-0.1,0.2-0.1c0.1,0,0.2-0.1,0.3-0.1c0.5-0.1,1,0.1,1.3,0.4c0.1,0.1,0.1,0.1,0.2,0.2
							c0,0.1,0.1,0.2,0.1,0.3c0,0.1,0.1,0.2,0.1,0.3s0,0.2,0,0.3c0,0.4-0.1,0.7-0.4,1c-0.1,0.1-0.3,0.2-0.5,0.3
							C33.7,413.2,33.5,413.2,33.3,413.2z"/>
					</g>
				</g>
			</g>
		</g>
	</g>
	<g>
		<g>
			<g>
				<path class="st19" d="M67.1,260.9l-1.7,1.7l-7.8-7.8l1.7-1.7c2.2-2.2,5.7-2.2,7.8,0S69.3,258.7,67.1,260.9L67.1,260.9z"/>
			</g>
			<g>
				<path class="st19" d="M76.2,287.8l-18.9,18.9c-12.1,12.1-31.8,12.1-43.9,0c-12.1-12.1-12.1-31.8,0-43.9L32.3,244
					c4-4,10.5-4,14.5,0l29.4,29.4C80.2,277.3,80.2,283.8,76.2,287.8z"/>
			</g>
			<g>
				<path class="st20" d="M49,312.7c-11.6,5.7-25.9,3.7-35.6-5.9c-6-6-9.1-14-9.1-21.9c0-7.9,3-15.9,9.1-21.9L32.3,244
					c1.8-1.8,4.1-2.8,6.4-3c-3.1,1.7-6,3.9-8.7,6.5c-15.1,15.1-15.1,39.6,0,54.7C35.4,307.6,42,311.1,49,312.7L49,312.7z"/>
			</g>
			<g>
				<path class="st1" d="M35.4,317.2c-8.3,0-16.6-3.2-23-9.5c-12.7-12.7-12.7-33.3,0-45.9l18.9-18.9c2.2-2.2,5.2-3.4,8.3-3.4
					s6.1,1.2,8.3,3.4l29.4,29.4c2.2,2.2,3.4,5.2,3.4,8.3s-1.2,6.1-3.4,8.3l-18.9,18.9C52,314.1,43.7,317.2,35.4,317.2L35.4,317.2z
					 M39.6,242.4c-2.3,0-4.6,0.9-6.2,2.6l-18.9,18.9c-11.5,11.5-11.5,30.3,0,41.8c11.5,11.5,30.3,11.5,41.8,0l18.9-18.9
					c1.7-1.7,2.6-3.9,2.6-6.2c0-2.3-0.9-4.6-2.6-6.2L45.8,245C44.1,243.4,41.9,242.4,39.6,242.4L39.6,242.4z"/>
			</g>
			<g>
				<g>
					<path class="st21" d="M69.5,274.6L54,290.2c-6.6,6.6-17.4,6.6-24,0c-6.6-6.6-6.6-17.4,0-24l15.5-15.5c2.2-2.2,5.7-2.2,7.9,0
						l16.1,16.1C71.7,268.9,71.7,272.4,69.5,274.6z"/>
				</g>
				<g>
					<path class="st22" d="M46.2,294.6c-5.6,1.4-11.8-0.1-16.2-4.4c-3.3-3.3-5-7.6-5-12c0-4.3,1.7-8.7,5-12l15.5-15.5
						c2.1-2.1,5.5-2.2,7.7-0.2c-1.4,0.9-2.6,1.9-3.8,3.1c-9.4,9.4-14.6,29.9-5.2,39.3C44.9,293.5,45.5,294.1,46.2,294.6L46.2,294.6z
						"/>
				</g>
				<g>
					<path class="st1" d="M42,296.6c-4.7,0-9.4-1.8-13-5.4c-7.2-7.2-7.2-18.9,0-26.1l15.5-15.5c2.8-2.8,7.3-2.8,10,0l16.1,16.1
						c2.8,2.8,2.8,7.3,0,10L55,291.2C51.4,294.8,46.7,296.6,42,296.6L42,296.6z M49.5,250.5c-1.1,0-2.1,0.4-2.9,1.2L31,267.2
						c-6,6-6,15.9,0,21.9c6,6,15.9,6,21.9,0l15.5-15.5c1.6-1.6,1.6-4.2,0-5.8l-16.1-16.1C51.6,250.9,50.5,250.5,49.5,250.5
						L49.5,250.5z"/>
				</g>
			</g>
			<g>
				<path class="st1" d="M65.4,264.1c-0.4,0-0.7-0.1-1-0.4l-7.8-7.8c-0.6-0.6-0.6-1.5,0-2.1l1.7-1.7c2.7-2.7,7.2-2.7,9.9,0
					c2.7,2.7,2.7,7.2,0,9.9l-1.7,1.7C66.2,263.9,65.8,264.1,65.4,264.1L65.4,264.1z M59.7,254.7l5.8,5.8l0.6-0.6
					c1.6-1.6,1.6-4.2,0-5.8c-1.6-1.6-4.2-1.6-5.8,0L59.7,254.7z"/>
			</g>
		</g>
		<g>
			<path class="st23" d="M54.6,271.6l-5.2,5.2c-1.8,1.8-4.6,1.8-6.4,0s-1.8-4.6,0-6.4l5.2-5.2c1.8-1.8,4.6-1.8,6.4,0
				C56.3,266.9,56.3,269.8,54.6,271.6z"/>
		</g>
		<g>
			<path class="st24" d="M49.8,276.3l-0.5,0.5c-1.7,1.7-4.6,1.8-6.4,0c-0.9-0.9-1.3-2-1.3-3.2c0-1.1,0.4-2.3,1.3-3.2l5.2-5.2
				c1.6-1.6,4.1-1.7,5.8-0.5c-4.4,4.8-6.7,9.6-5.2,11.1C49.1,276.1,49.4,276.3,49.8,276.3z"/>
		</g>
		<g>
			<path class="st1" d="M46.1,279.6c-1.6,0-3.1-0.6-4.2-1.7c-2.3-2.3-2.3-6.1,0-8.5l5.2-5.2c2.3-2.3,6.1-2.3,8.5,0s2.3,6.1,0,8.5
				l-5.2,5.2C49.2,279,47.7,279.6,46.1,279.6L46.1,279.6z M51.4,265.3c-0.8,0-1.6,0.3-2.1,0.9l-5.2,5.2c-1.2,1.2-1.2,3.1,0,4.3
				c1.1,1.1,3.1,1.1,4.3,0l5.2-5.2c1.2-1.2,1.2-3.1,0-4.3C52.9,265.6,52.1,265.3,51.4,265.3L51.4,265.3z"/>
		</g>
		<g>
			<ellipse class="st21" cx="99.4" cy="220.7" rx="28.8" ry="28.8"/>
		</g>
		<g>
			<path class="st22" d="M127.3,227.7c-3.1,12.5-14.5,21.8-27.9,21.8c-15.9,0-28.8-12.9-28.8-28.8c0-10,5.1-18.8,12.8-23.9
				c-0.6,2.2-0.9,4.6-0.9,7c0,15.9,12.9,28.8,28.8,28.8C117.3,232.5,122.8,230.7,127.3,227.7L127.3,227.7z"/>
		</g>
		<g>
			<ellipse class="st23" cx="99.4" cy="220.7" rx="18.9" ry="18.9"/>
		</g>
		<g>
			<path class="st25" d="M118,224.1c-1.6,8.9-9.4,15.6-18.6,15.6c-10.5,0-18.9-8.5-18.9-18.9c0-8.4,5.5-15.6,13.2-18
				c-0.2,1.1-0.3,2.2-0.3,3.3c0,10.5,8.5,18.9,18.9,18.9C114.3,225,116.2,224.6,118,224.1L118,224.1z"/>
		</g>
		<g>
			<path class="st1" d="M99.4,241.1c-11.2,0-20.4-9.1-20.4-20.4s9.1-20.4,20.4-20.4s20.4,9.1,20.4,20.4S110.6,241.1,99.4,241.1
				L99.4,241.1z M99.4,203.3c-9.6,0-17.5,7.8-17.5,17.5s7.8,17.5,17.5,17.5s17.5-7.8,17.5-17.5C116.8,211.1,109,203.3,99.4,203.3
				L99.4,203.3z"/>
		</g>
		<g>
			<path class="st1" d="M99.4,251c-16.7,0-30.2-13.6-30.2-30.2s13.6-30.2,30.2-30.2c16.7,0,30.2,13.6,30.2,30.2S116.1,251,99.4,251z
				 M99.4,193.4c-15,0-27.3,12.2-27.3,27.3c0,15.1,12.2,27.3,27.3,27.3c15,0,27.3-12.2,27.3-27.3S114.4,193.4,99.4,193.4z"/>
		</g>
		<g>
			<g>
				<path class="st1" d="M99.4,222.2c-3.1,0-5.7-2.5-5.7-5.7s2.5-5.7,5.7-5.7c3.1,0,5.7,2.5,5.7,5.7c0,0.8-0.7,1.5-1.5,1.5
					c-0.8,0-1.5-0.7-1.5-1.5c0-1.5-1.2-2.7-2.7-2.7c-1.5,0-2.7,1.2-2.7,2.7s1.2,2.7,2.7,2.7c0.8,0,1.5,0.7,1.5,1.5
					C100.9,221.5,100.2,222.2,99.4,222.2L99.4,222.2z"/>
			</g>
			<g>
				<path class="st1" d="M99.4,230.6c-3.1,0-5.7-2.5-5.7-5.7c0-0.8,0.7-1.5,1.5-1.5c0.8,0,1.5,0.7,1.5,1.5c0,1.5,1.2,2.7,2.7,2.7
					c1.5,0,2.7-1.2,2.7-2.7s-1.2-2.7-2.7-2.7c-0.8,0-1.5-0.7-1.5-1.5s0.7-1.5,1.5-1.5c3.1,0,5.7,2.5,5.7,5.7
					C105.1,228.1,102.5,230.6,99.4,230.6L99.4,230.6z"/>
			</g>
			<g>
				<path class="st1" d="M99.4,213.8c-0.8,0-1.5-0.7-1.5-1.5v-2.7c0-0.8,0.7-1.5,1.5-1.5c0.8,0,1.5,0.7,1.5,1.5v2.7
					C100.9,213.1,100.2,213.8,99.4,213.8z"/>
			</g>
			<g>
				<path class="st1" d="M99.4,233.1c-0.8,0-1.5-0.7-1.5-1.5v-2.5c0-0.8,0.7-1.5,1.5-1.5c0.8,0,1.5,0.7,1.5,1.5v2.5
					C100.9,232.4,100.2,233.1,99.4,233.1z"/>
			</g>
		</g>
		<g>
			<path class="st1" d="M94.7,273.1c-1.7,0-3.3-0.7-4.5-1.9l-17-17c-1.4-1.4-3.6-1.4-5,0c-0.6,0.6-1.5,0.6-2.1,0
				c-0.6-0.6-0.6-1.5,0-2.1c2.5-2.5,6.6-2.5,9.1,0l17,17c1.2,1.2,2.8,1.2,3.8,0.8c1.1-0.4,2.2-1.5,2.2-3.3v-17.1
				c0-0.8,0.7-1.5,1.5-1.5c0.8,0,1.5,0.7,1.5,1.5v17.1c0,2.7-1.5,5-4,6C96.4,272.9,95.5,273.1,94.7,273.1L94.7,273.1z"/>
		</g>
		<g>
			<path class="st1" d="M61.5,211c-0.3,0-0.6-0.1-0.9-0.3L50.5,203c-0.6-0.5-0.8-1.4-0.3-2.1c0.5-0.6,1.4-0.8,2.1-0.3l10.1,7.7
				c0.6,0.5,0.8,1.4,0.3,2.1C62.4,210.8,61.9,211,61.5,211z"/>
		</g>
		<g>
			<path class="st1" d="M51.4,230c-0.4,0-0.9-0.2-1.2-0.6c-0.5-0.6-0.4-1.6,0.3-2.1l10.1-7.7c0.6-0.5,1.6-0.4,2.1,0.3
				c0.5,0.6,0.4,1.6-0.3,2.1l-10.1,7.7C52,229.9,51.7,230,51.4,230L51.4,230z"/>
		</g>
		<g>
			<path class="st1" d="M61.5,216.7H51.4c-0.8,0-1.5-0.7-1.5-1.5s0.7-1.5,1.5-1.5h10.1c0.8,0,1.5,0.7,1.5,1.5S62.3,216.7,61.5,216.7
				z"/>
		</g>
	</g>
	<g>
		<path class="st26" d="M10.8,79.5l78.4,26.1c2.4,0.8,4.9-0.5,5.7-2.9l26.4-79.1L53.6,1.1l-20.1,10L10.8,79.5z"/>
		<circle class="st27" cx="108.5" cy="25.8" r="1.7"/>
		<circle class="st27" cx="91.5" cy="20.2" r="1.7"/>
		<circle class="st27" cx="74.6" cy="14.5" r="1.7"/>
		<circle class="st27" cx="57.6" cy="8.9" r="1.7"/>
		<path class="st28" d="M75.4,46.7l-3.7,11.2l0,0l-6.4-2.1c-0.6-0.2-0.9-0.8-0.7-1.4l3-9c0.2-0.6,0.8-0.9,1.4-0.7L75.4,46.7
			L75.4,46.7z"/>
		<path class="st29" d="M103.3,38.3l-8.7,26c-0.2,0.6-0.8,0.9-1.4,0.7l-6.4-2.1l0,0l9-27.1c0.2-0.6,0.8-0.9,1.4-0.7l5.4,1.8
			C103.2,37.1,103.5,37.8,103.3,38.3z"/>
		<path class="st30" d="M84.8,43.6l-5.6,16.8l0,0l-7.5-2.5l0,0l5.2-15.7c0.2-0.6,0.8-0.9,1.4-0.7L84.8,43.6L84.8,43.6z"/>
		<path class="st31" d="M94.3,40.4l-7.5,22.6l0,0l-7.5-2.5l0,0l7.2-21.5c0.2-0.6,0.8-0.9,1.4-0.7L94.3,40.4L94.3,40.4z"/>
		<path class="st32" d="M21.5,83l-10.7-3.6l22.8-68.3l8.6-4.3L18.7,77.3C17.9,79.7,19.2,82.2,21.5,83z"/>
		<path class="st33" d="M33.6,11.1l10.7,3.6c2.4,0.8,4.9-0.5,5.7-2.9v0l3.6-10.7L33.6,11.1z"/>
		<path class="st27" d="M61.5,39.1l-23.6-7.9c-0.9-0.3-1.4-1.3-1.1-2.1s1.3-1.4,2.1-1.1l23.6,7.9c0.9,0.3,1.4,1.3,1.1,2.1
			S62.4,39.4,61.5,39.1z"/>
		<path class="st27" d="M52.6,44.2l-8.4-2.8c-0.9-0.3-1.4-1.3-1.1-2.1c0.3-0.9,1.3-1.4,2.1-1.1l8.4,2.8c0.9,0.3,1.4,1.3,1.1,2.1
			C54.5,44,53.5,44.5,52.6,44.2z"/>
		<path class="st27" d="M39.2,39.7l-3.8-1.3c-0.9-0.3-1.4-1.3-1.1-2.1c0.3-0.9,1.3-1.4,2.1-1.1l3.8,1.3c0.9,0.3,1.4,1.3,1.1,2.1
			C41.1,39.6,40.1,40,39.2,39.7z"/>
		<path class="st27" d="M64,31.8l-17.6-5.9c-0.9-0.3-1.4-1.3-1.1-2.1c0.3-0.9,1.3-1.4,2.1-1.1l17.6,5.9c0.9,0.3,1.4,1.3,1.1,2.1
			S64.9,32.1,64,31.8z"/>
		<circle class="st27" cx="42.5" cy="22.8" r="1.7"/>
		<circle class="st27" cx="58" cy="44.2" r="1.7"/>
		<path class="st27" d="M85.3,85.2l-23.6-7.9c-0.9-0.3-1.4-1.3-1.1-2.1c0.3-0.9,1.3-1.4,2.1-1.1l23.6,7.9c0.9,0.3,1.4,1.3,1.1,2.1
			S86.2,85.4,85.3,85.2z"/>
		<path class="st27" d="M76.4,90.3L68,87.5c-0.9-0.3-1.4-1.3-1.1-2.1s1.3-1.4,2.1-1.1l8.4,2.8c0.9,0.3,1.4,1.3,1.1,2.1
			C78.3,90.1,77.3,90.6,76.4,90.3z"/>
		<path class="st27" d="M63,85.8l-3.8-1.3c-0.9-0.3-1.4-1.3-1.1-2.1c0.3-0.9,1.3-1.4,2.1-1.1l3.8,1.3c0.9,0.3,1.4,1.3,1.1,2.1
			C64.9,85.6,63.9,86.1,63,85.8z"/>
		<path class="st27" d="M87.8,77.8L70.1,72c-0.9-0.3-1.4-1.3-1.1-2.1c0.3-0.9,1.3-1.4,2.1-1.1l17.6,5.9c0.9,0.3,1.4,1.3,1.1,2.1
			S88.6,78.1,87.8,77.8z"/>
		<circle class="st27" cx="66.3" cy="68.9" r="1.7"/>
		<circle class="st27" cx="81.8" cy="90.3" r="1.7"/>
		<path class="st34" d="M53.9,81.6l2.1-6.4c0.4-1.1-0.2-2.3-1.2-2.8l-4.6-2c0-1.3-0.1-2.5-0.3-3.8l4.3-2.6c1-0.6,1.4-1.9,0.8-2.9
			l-3-6c-0.5-1-1.8-1.5-2.9-1.1l-4.7,1.8c-0.9-0.9-1.8-1.7-2.8-2.5l1.1-4.9c0.3-1.1-0.4-2.3-1.5-2.7L35,43.7
			c-1.1-0.4-2.3,0.2-2.8,1.2l-2,4.6c-1.3,0-2.5,0.1-3.8,0.3l-2.6-4.3c-0.6-1-1.9-1.4-2.9-0.8l-6,3c-1,0.5-1.5,1.8-1.1,2.9l1.8,4.7
			c-0.9,0.9-1.7,1.8-2.5,2.8l-4.9-1.1c-1.1-0.3-2.3,0.4-2.7,1.5l-2.1,6.4c-0.4,1.1,0.2,2.3,1.2,2.8l4.6,2c0,1.3,0.1,2.5,0.3,3.8
			l-4.3,2.6c-1,0.6-1.4,1.9-0.8,2.9l3,6c0.5,1,1.8,1.5,2.9,1.1l4.7-1.8c0.9,0.9,1.8,1.7,2.8,2.5l-1.1,4.9c-0.3,1.1,0.4,2.3,1.5,2.7
			l6.4,2.1c1.1,0.4,2.3-0.2,2.8-1.2l2-4.6c1.3,0,2.5-0.1,3.8-0.3l2.6,4.3c0.6,1,1.9,1.4,2.9,0.8l6-3c1-0.5,1.5-1.8,1.1-2.9l-1.8-4.7
			c0.9-0.9,1.7-1.8,2.5-2.8l4.9,1.1C52.4,83.3,53.6,82.7,53.9,81.6L53.9,81.6z M26.7,79.1c-5-1.7-7.8-7.1-6.1-12.2
			c1.7-5,7.1-7.8,12.2-6.1S40.6,68,38.9,73l0,0C37.2,78.1,31.8,80.8,26.7,79.1z"/>
		<path class="st35" d="M20.8,44.7l-6,3c-1,0.5-1.5,1.8-1.1,2.9l1.8,4.7c3-2.9,6.8-4.7,10.8-5.4l-2.6-4.3
			C23.2,44.5,21.9,44.1,20.8,44.7L20.8,44.7z"/>
		<path class="st35" d="M9.6,73.3l-4.3,2.6c-1,0.6-1.4,1.9-0.8,2.9l3,6c0.5,1,1.8,1.5,2.9,1.1l4.7-1.8C12.1,81.2,10.2,77.4,9.6,73.3
			z"/>
		<path class="st35" d="M10.3,63.5c0.6-2,1.6-3.8,2.8-5.5l-4.9-1.1c-1.1-0.3-2.3,0.4-2.7,1.5l-2.1,6.4c-0.4,1.1,0.2,2.3,1.2,2.8
			l4.6,2C9.3,67.5,9.7,65.5,10.3,63.5L10.3,63.5z"/>
		<path class="st35" d="M33.7,58.2C27.2,56,20.1,59.5,17.9,66s1.4,13.6,7.9,15.8s13.6-1.4,15.8-7.9l0,0
			C43.7,67.4,40.2,60.3,33.7,58.2z M28,75.3c-3-1-4.6-4.2-3.6-7.2c1-3,4.2-4.6,7.2-3.6c3,1,4.6,4.2,3.6,7.2
			C34.1,74.7,30.9,76.3,28,75.3z"/>
		<path class="st36" d="M112.1,33.3L97.3,77.6l1.2,10.9c0.1,0.6,0.6,1.1,1.3,1c0.3,0,0.5-0.2,0.7-0.3l7.5-8l14.8-44.3L112.1,33.3z"
			/>
		<path class="st37" d="M124.9,30.4l-10.7-3.6l1.4-4.3c1-3,4.2-4.6,7.2-3.6c3,1,4.6,4.2,3.6,7.2L124.9,30.4z"/>
		<path class="st38" d="M114.2,26.8l10.7,3.6l-2.1,6.4l-10.7-3.6L114.2,26.8z"/>
		<path class="st39" d="M114.2,26.8l4.3,1.4l-2.1,6.4l-4.3-1.4L114.2,26.8z"/>
		<path class="st40" d="M102.5,87.1l-2,2.1c-0.4,0.5-1.1,0.5-1.6,0c-0.2-0.2-0.3-0.4-0.3-0.7l-1.3-10.9l14.8-44.3l4.3,1.4
			l-14.8,44.3L102.5,87.1z"/>
		<path class="st41" d="M121.7,18.7l-3.2,9.6l-4.3-1.4l1.4-4.3C116.5,20,119,18.4,121.7,18.7z"/>
		<g>
			<path class="st1" d="M29.7,56.4c1.5,0,2.9,0.2,4.3,0.7c2.6,0.9,4.9,2.5,6.6,4.7c0.2,0.2,0.2,0.5,0.2,0.8c0,0.3-0.2,0.5-0.4,0.7
				c-0.2,0.2-0.5,0.2-0.7,0.2c-0.3,0-0.7-0.2-0.9-0.4c-2.2-2.9-5.5-4.5-9.1-4.5c-2.5,0-4.8,0.8-6.8,2.3c-2.4,1.8-4,4.5-4.4,7.5
				c-0.4,3,0.3,6,2.2,8.4c2.2,2.9,5.5,4.5,9.1,4.5c2.5,0,4.8-0.8,6.8-2.3c3.6-2.7,5.3-7.3,4.2-11.7c-0.1-0.3,0-0.6,0.1-0.8
				c0.2-0.2,0.4-0.4,0.7-0.5c0.6-0.1,1.2,0.2,1.3,0.8c1.7,7.3-2.8,14.6-10.1,16.3c-1,0.2-2.1,0.4-3.1,0.4c-1.5,0-2.9-0.2-4.3-0.7
				c-3.4-1.1-6.2-3.6-7.8-6.8c-1.6-3.2-1.9-6.9-0.7-10.3C18.7,60.2,23.9,56.4,29.7,56.4z"/>
			<path class="st1" d="M36.2,72.1c0.6-1.7,0.4-3.5-0.4-5.2c-0.8-1.6-2.2-2.8-3.9-3.4c-0.7-0.2-1.4-0.3-2.1-0.3
				c-2.9,0-5.5,1.9-6.4,4.6c-0.6,1.7-0.4,3.5,0.4,5.2c0.8,1.6,2.2,2.8,3.9,3.4c0.7,0.2,1.4,0.3,2.1,0.3
				C32.7,76.7,35.2,74.9,36.2,72.1z M31.2,65.6c2.4,0.8,3.7,3.4,2.9,5.8c-0.6,1.9-2.4,3.1-4.3,3.1c-0.5,0-1-0.1-1.4-0.2
				c-1.2-0.4-2.1-1.2-2.6-2.3c-0.5-1.1-0.6-2.3-0.2-3.5c0.6-1.9,2.4-3.1,4.3-3.1C30.2,65.4,30.7,65.5,31.2,65.6z"/>
			<path class="st1" d="M3.5,79.4l3,6c0.6,1.1,1.7,1.9,3,1.9c0.4,0,0.8-0.1,1.2-0.2l4-1.6l0.3,0.3c0.4,0.4,0.9,0.8,1.3,1.1l0.3,0.2
				l-1,4.2c-0.4,1.7,0.6,3.4,2.2,3.9l6.4,2.1c0.3,0.1,0.7,0.2,1.1,0.2c1.3,0,2.5-0.8,3.1-2l1.7-3.9l0.4,0c0.6,0,1.2-0.1,1.7-0.1
				l0.4,0l2.3,3.7c0.6,1,1.7,1.6,2.8,1.6c0.5,0,1-0.1,1.5-0.4l6-3c0.3-0.2,0.6-0.4,0.8-0.6l0.3-0.3l42.6,14.2
				c0.6,0.2,1.2,0.3,1.8,0.3c2.4,0,4.6-1.5,5.3-3.8l2.7-8.1c0.1-0.3,0.1-0.6-0.1-0.8c-0.1-0.3-0.4-0.5-0.6-0.5
				c-0.6-0.2-1.2,0.1-1.4,0.7l-2.7,8.1c-0.5,1.4-1.8,2.4-3.3,2.4c-0.4,0-0.7-0.1-1.1-0.2L47,90.4l0-0.4c0-0.3-0.1-0.6-0.2-0.9
				l-1.6-4l0.3-0.3c0.4-0.4,0.8-0.9,1.1-1.3l0.2-0.3l4.2,1c0.3,0.1,0.5,0.1,0.8,0.1c1.4,0,2.7-0.9,3.2-2.3l2.1-6.4
				c0.6-1.6-0.3-3.4-1.8-4.1l-3.9-1.7l0-0.4c0-0.6-0.1-1.2-0.1-1.7l0-0.4l3.7-2.3c1.5-0.9,2-2.8,1.2-4.4l-3-6
				c-0.6-1.1-1.7-1.9-3-1.9c-0.4,0-0.8,0.1-1.2,0.2l-4,1.6l-0.3-0.3c-0.4-0.4-0.9-0.8-1.3-1.1l-0.3-0.2l1-4.2
				c0.4-1.7-0.6-3.4-2.2-3.9l-6.4-2.1c-0.3-0.1-0.7-0.2-1.1-0.2c-1.3,0-2.5,0.8-3.1,2l-1.7,3.9l-0.4,0c-0.6,0-1.2,0.1-1.7,0.1
				l-0.4,0l-2.3-3.7c-0.6-1-1.7-1.6-2.8-1.6c-0.5,0-1,0.1-1.5,0.4l-6,3c-1.5,0.8-2.3,2.6-1.6,4.2l1.6,4L14,55.2
				c-0.4,0.4-0.8,0.9-1.1,1.3l-0.2,0.3l-4.2-1c-0.3-0.1-0.5-0.1-0.8-0.1c-1.4,0-2.7,0.9-3.2,2.3l-2.1,6.4c-0.6,1.6,0.3,3.4,1.8,4.1
				l3.9,1.7l0,0.4c0,0.6,0.1,1.2,0.1,1.7l0,0.4L4.7,75C3.2,75.9,2.7,77.8,3.5,79.4z M15.8,83.4c-0.2-0.2-0.5-0.3-0.8-0.3
				c-0.1,0-0.3,0-0.4,0.1L9.9,85c-0.6,0.2-1.2,0-1.5-0.6l-3-6c-0.3-0.5-0.1-1.2,0.4-1.5l4.3-2.6c0.4-0.2,0.6-0.7,0.5-1.1
				c-0.2-1.2-0.3-2.4-0.3-3.6c0-0.4-0.2-0.8-0.7-1l-4.6-2c-0.6-0.2-0.8-0.9-0.6-1.5l2.1-6.4C6.8,58.2,7.4,57.8,8,58l4.9,1.1
				c0.4,0.1,0.9-0.1,1.1-0.4c0.7-1,1.5-1.9,2.3-2.7c0.3-0.3,0.4-0.8,0.3-1.2l-1.8-4.7c-0.2-0.6,0-1.2,0.6-1.5l6-3
				c0.5-0.3,1.2-0.1,1.5,0.4l2.6,4.3c0.2,0.4,0.7,0.6,1.1,0.5c1-0.2,2.1-0.3,3.2-0.3l0.4,0c0.4,0,0.8-0.3,1-0.7l2-4.6
				c0.2-0.5,0.9-0.8,1.5-0.6l6.4,2.1c0.6,0.2,0.9,0.8,0.8,1.4l-1.1,4.9c-0.1,0.4,0.1,0.9,0.4,1.1c1,0.7,1.9,1.5,2.7,2.3
				c0.3,0.3,0.8,0.4,1.2,0.3l4.7-1.8c0.6-0.2,1.2,0,1.5,0.6l3,6c0.3,0.5,0.1,1.2-0.4,1.5l-4.3,2.6c-0.4,0.2-0.6,0.7-0.5,1.1
				c0.2,1.2,0.3,2.4,0.3,3.6c0,0.4,0.2,0.8,0.7,1l4.6,2c0.6,0.2,0.8,0.9,0.6,1.5l-2.1,6.4c-0.2,0.6-0.8,0.9-1.4,0.8l-4.9-1.1
				c-0.4-0.1-0.9,0.1-1.1,0.4c-0.7,1-1.5,1.9-2.3,2.7c-0.3,0.3-0.4,0.8-0.3,1.2l1.8,4.7c0.2,0.6,0,1.2-0.6,1.5l-6,3
				c-0.5,0.3-1.2,0.1-1.5-0.4L34,89.6c-0.2-0.4-0.7-0.6-1.1-0.5c-1,0.2-2.1,0.3-3.2,0.3l-0.4,0c-0.4,0-0.8,0.3-1,0.7l-2,4.6
				c-0.2,0.5-0.9,0.8-1.4,0.6l-6.4-2.1c-0.6-0.2-0.9-0.8-0.8-1.4l1.1-4.9c0.1-0.4-0.1-0.9-0.4-1.1C17.5,85,16.6,84.2,15.8,83.4z"/>
			<path class="st1" d="M93.6,39l-5.4-1.8c-1.2-0.4-2.4,0.3-2.8,1.4l-1.2,3.7l-5.4-1.8c-0.2-0.1-0.5-0.1-0.7-0.1
				c-1,0-1.8,0.6-2.1,1.5l-1.2,3.5l-5.4-1.8c-0.2-0.1-0.5-0.1-0.7-0.1c-1,0-1.8,0.6-2.1,1.5l-3,9c-0.4,1.2,0.2,2.4,1.4,2.8l27.9,9.3
				c0.2,0.1,0.5,0.1,0.7,0.1c1,0,1.8-0.6,2.1-1.5l8.7-26c0.4-1.2-0.2-2.4-1.4-2.8l-5.4-1.8c-1.2-0.4-2.4,0.3-2.8,1.4L93.6,39z
				 M71,56.5l-5.5-1.8l3-9.1l5.5,1.8L71,56.5z M78.5,59l-5.5-1.8L78,42.5l5.5,1.8L78.5,59z M102.3,38L93.6,64l-5.5-1.8l8.7-26.1
				L102.3,38z M86.1,61.5l-5.5-1.8l6.8-20.5l5.5,1.8L86.1,61.5z"/>
			<path class="st1" d="M108.9,24.8c0.3,0.1,0.5,0.3,0.6,0.5c0.1,0.3,0.2,0.6,0.1,0.8c-0.1,0.4-0.6,0.7-1,0.7c-0.1,0-0.2,0-0.3-0.1
				c-0.3-0.1-0.5-0.3-0.6-0.5c-0.1-0.3-0.2-0.6-0.1-0.8C107.7,24.9,108.3,24.6,108.9,24.8z"/>
			<path class="st1" d="M91.5,21.3c-0.1,0-0.2,0-0.3-0.1c-0.3-0.1-0.5-0.3-0.6-0.5c-0.1-0.3-0.2-0.6-0.1-0.8
				c0.2-0.6,0.8-0.9,1.4-0.7c0.3,0.1,0.5,0.3,0.6,0.5c0.1,0.3,0.2,0.6,0.1,0.8C92.4,21,92,21.3,91.5,21.3z"/>
			<path class="st1" d="M74.6,15.6c-0.1,0-0.2,0-0.3-0.1c-0.3-0.1-0.5-0.3-0.6-0.5c-0.1-0.3-0.2-0.6-0.1-0.8
				c0.2-0.6,0.8-0.9,1.4-0.7c0.3,0.1,0.5,0.3,0.6,0.5c0.1,0.3,0.2,0.6,0.1,0.8C75.4,15.3,75,15.6,74.6,15.6z"/>
			<path class="st1" d="M57.6,9.9c-0.1,0-0.2,0-0.3-0.1c-0.3-0.1-0.5-0.3-0.6-0.5c-0.1-0.3-0.2-0.6-0.1-0.8c0.2-0.6,0.8-0.9,1.4-0.7
				c0.3,0.1,0.5,0.3,0.6,0.5c0.1,0.3,0.2,0.6,0.1,0.8C58.5,9.6,58.1,9.9,57.6,9.9z"/>
			<path class="st1" d="M37.4,29.2c0.2-0.6,0.8-0.9,1.4-0.7l23.6,7.9c0.6,0.2,0.9,0.8,0.7,1.4c-0.1,0.4-0.6,0.7-1,0.7
				c-0.1,0-0.2,0-0.3-0.1l-23.6-7.9C37.5,30.4,37.2,29.8,37.4,29.2z"/>
			<path class="st1" d="M45.1,38.8l8.4,2.8c0.3,0.1,0.5,0.3,0.6,0.5c0.1,0.3,0.2,0.6,0.1,0.8c-0.1,0.4-0.6,0.7-1,0.7
				c-0.1,0-0.2,0-0.3-0.1l-8.4-2.8c-0.6-0.2-0.9-0.8-0.7-1.4C43.9,38.9,44.5,38.6,45.1,38.8z"/>
			<path class="st1" d="M39.8,39.2c-0.1,0-0.2,0-0.3-0.1l-3.8-1.3c-0.6-0.2-0.9-0.8-0.7-1.4c0.2-0.6,0.8-0.9,1.4-0.7l3.8,1.3
				c0.6,0.2,0.9,0.8,0.7,1.4C40.7,38.9,40.2,39.2,39.8,39.2z"/>
			<path class="st1" d="M65.6,30.5c-0.1,0.4-0.6,0.7-1,0.7c-0.1,0-0.2,0-0.3-0.1l-17.6-5.9c-0.6-0.2-0.9-0.8-0.7-1.4
				c0.2-0.6,0.8-0.9,1.4-0.7l17.6,5.9C65.4,29.3,65.7,29.9,65.6,30.5z"/>
			<path class="st1" d="M42.5,23.9c-0.1,0-0.2,0-0.3-0.1c-0.6-0.2-0.9-0.8-0.7-1.4c0.2-0.6,0.8-0.9,1.4-0.7c0.3,0.1,0.5,0.3,0.6,0.5
				c0.1,0.3,0.2,0.6,0.1,0.8C43.4,23.6,43,23.9,42.5,23.9z"/>
			<path class="st1" d="M57.7,45.3c-0.3-0.1-0.5-0.3-0.6-0.5c-0.1-0.3-0.2-0.6-0.1-0.8c0.2-0.6,0.8-0.9,1.4-0.7
				c0.3,0.1,0.5,0.3,0.6,0.5c0.1,0.3,0.2,0.6,0.1,0.8c-0.1,0.4-0.6,0.7-1,0.7C57.9,45.3,57.8,45.3,57.7,45.3z"/>
			<path class="st1" d="M61.2,76.1c-0.1-0.3-0.2-0.6-0.1-0.8c0.2-0.6,0.8-0.9,1.4-0.7l23.6,7.9c0.6,0.2,0.9,0.8,0.7,1.4
				c-0.1,0.4-0.6,0.7-1,0.7c-0.1,0-0.2,0-0.3-0.1l-23.6-7.9C61.6,76.6,61.4,76.4,61.2,76.1z"/>
			<path class="st1" d="M68.9,84.9l8.4,2.8c0.3,0.1,0.5,0.3,0.6,0.5c0.1,0.3,0.2,0.6,0.1,0.8c-0.1,0.4-0.6,0.7-1,0.7
				c-0.1,0-0.2,0-0.3-0.1l-8.4-2.8c-0.3-0.1-0.5-0.3-0.6-0.5c-0.1-0.3-0.2-0.6-0.1-0.8C67.7,85,68.3,84.7,68.9,84.9z"/>
			<path class="st1" d="M63.5,85.3c-0.1,0-0.2,0-0.3-0.1L59.4,84c-0.3-0.1-0.5-0.3-0.6-0.5c-0.1-0.3-0.2-0.6-0.1-0.8
				c0.2-0.6,0.8-0.9,1.4-0.7l3.8,1.3c0.3,0.1,0.5,0.3,0.6,0.5c0.1,0.3,0.2,0.6,0.1,0.8C64.4,85,64,85.3,63.5,85.3z"/>
			<path class="st1" d="M88.3,77.3c-0.1,0-0.2,0-0.3-0.1l-17.6-5.9c-0.3-0.1-0.5-0.3-0.6-0.5c-0.1-0.3-0.2-0.6-0.1-0.8
				c0.2-0.6,0.8-0.9,1.4-0.7l17.6,5.9c0.6,0.2,0.9,0.8,0.7,1.4C89.2,77,88.8,77.3,88.3,77.3z"/>
			<path class="st1" d="M66.6,67.9c0.3,0.1,0.5,0.3,0.6,0.5c0.1,0.3,0.2,0.6,0.1,0.8c-0.1,0.4-0.6,0.7-1,0.7c-0.1,0-0.2,0-0.3-0.1
				c-0.3-0.1-0.5-0.3-0.6-0.5c-0.1-0.3-0.2-0.6-0.1-0.8C65.4,68,66,67.7,66.6,67.9z"/>
			<path class="st1" d="M82.2,89.3c0.3,0.1,0.5,0.3,0.6,0.5c0.1,0.3,0.2,0.6,0.1,0.8c-0.1,0.4-0.6,0.7-1,0.7c-0.1,0-0.2,0-0.3-0.1
				c-0.3-0.1-0.5-0.3-0.6-0.5c-0.1-0.3-0.2-0.6-0.1-0.8C81,89.4,81.6,89.1,82.2,89.3z"/>
			<path class="st1" d="M99.7,90.6c0.1,0,0.2,0,0.3,0c0.5-0.1,1-0.3,1.4-0.7l7.5-8c0.1-0.1,0.2-0.2,0.2-0.4l18.4-55.1
				c1.2-3.5-0.7-7.4-4.3-8.5c-0.7-0.2-1.4-0.3-2.1-0.3c-2.1,0-4,0.9-5.3,2.6l-0.3,0.3L54,0.1C53.7,0,53.4,0,53.1,0.1l-20.1,10
				c-0.3,0.1-0.5,0.4-0.5,0.6L23,39.4c-0.1,0.3-0.1,0.6,0.1,0.8c0.1,0.3,0.4,0.5,0.6,0.5c0.6,0.2,1.2-0.1,1.4-0.7l9.2-27.6l9.7,3.2
				c0.6,0.2,1.2,0.3,1.8,0.3c2.4,0,4.6-1.5,5.3-3.8l3.2-9.7l60.2,20.1L96.2,77.3c-0.1,0.1-0.1,0.3-0.1,0.5l1.3,10.9
				C97.6,89.8,98.5,90.6,99.7,90.6z M99.6,88.5l-1.2-10.8l14.4-43.1l8.7,2.9l-14.4,43.1L99.6,88.5z M123.6,31.1l-1.5,4.4l-8.7-2.9
				l1.5-4.4L123.6,31.1z M116.7,22.9c0.6-1.9,2.4-3.1,4.3-3.1c0.5,0,1,0.1,1.4,0.2c2.4,0.8,3.7,3.4,2.9,5.8l-1.1,3.3l-8.7-2.9
				L116.7,22.9z M49,11.5c-0.5,1.4-1.8,2.4-3.3,2.4c-0.4,0-0.7-0.1-1.1-0.2l-8.2-2.7l15.4-7.7L49,11.5z"/>
		</g>
	</g>
</g>
</svg>
