<?xml version="1.0" encoding="utf-8"?>
<!-- Generator: Adobe Illustrator 25.0.0, SVG Export Plug-In . SVG Version: 6.00 Build 0)  -->
<svg version="1.1" id="Layer_1" xmlns="http://www.w3.org/2000/svg" xmlns:xlink="http://www.w3.org/1999/xlink" x="0px" y="0px"
	 viewBox="0 0 461.4 430" style="enable-background:new 0 0 461.4 430;" xml:space="preserve">
<style type="text/css">
	.st0{fill:#BFE8F7;}
	.st1{fill:#CB9AED;}
	.st2{fill:#EFEFEF;}
	.st3{fill:#FFDC8D;}
	.st4{fill:#E8C57E;}
	.st5{fill:#CCCCCC;}
	.st6{fill:#78CAEF;}
	.st7{fill:#35414D;}
	.st8{fill:#4CAF50;}
	.st9{fill:#F44336;}
	.st10{fill:#2196F3;}
	.st11{fill:#FFC107;}
	.st12{fill:#167EE6;}
	.st13{fill:#12B347;}
	.st14{fill:#0F993E;}
	.st15{fill:#FFD500;}
	.st16{fill:#FF4B26;}
	.st17{fill:#D93F21;}
	.st18{fill:#1976D2;stroke:#35414D;stroke-width:3;stroke-miterlimit:10;}
	.st19{fill:#FAFAFA;stroke:#35414D;stroke-width:3;stroke-miterlimit:10;}
	.st20{fill:url(#SVGID_1_);}
	.st21{fill:#FFFFFF;}
	.st22{fill:#FF0000;stroke:#35414D;stroke-width:3;stroke-miterlimit:10;}
	.st23{fill:#FFC107;stroke:#35414D;stroke-width:3;stroke-miterlimit:10;}
	.st24{fill:#FFA000;stroke:#35414D;stroke-width:3;stroke-miterlimit:10;}
</style>
<g>
	<g>
		<g>
			<path class="st0" d="M386.9,316.7c-3.7-21-20-36.6-39.8-40.3l-8.2-46.3l-35.1,6.2l8.2,46.3c-17.2,10.3-27.2,30.5-23.5,51.5
				c4.8,27.2,30.7,45.3,57.8,40.5C373.6,369.8,391.7,343.9,386.9,316.7z"/>
			<path class="st1" d="M346.4,374.6c-27.2,4.8-53.1-13.3-57.8-40.5c-1.3-7.3-0.9-14.4,0.8-21.2c46.8,33.9,55.7-22.5,97.5,3.8
				C391.7,343.9,373.6,369.8,346.4,374.6z"/>
			<path class="st2" d="M168.9,38.4h16.3c8,0,14.5,6.5,14.5,14.5c0,4-1.6,7.6-4.3,10.3c-2.6,2.6-6.3,4.3-10.3,4.3H174"/>
			<path class="st2" d="M174,67.5h11.2c8,0,14.5,6.5,14.5,14.5c0,4-1.6,7.6-4.3,10.3c-2.6,2.6-6.3,4.3-10.3,4.3h-9"/>
			<path class="st3" d="M63.4,133.5V61.7c0-30.5,24.8-55.3,55.3-55.3l0,0c30.5,0,55.3,24.8,55.3,55.3v28.1l26.8,83.2H174v15.2
				c0,29.6-24,53.5-53.5,53.5h-1.8c-30.5,0-55.3-24.8-55.3-55.3v-13.5"/>
			<path class="st4" d="M80.9,186.3v-13.5v-39.3V61.7c0-27.6,20.2-50.4,46.6-54.6c-2.8-0.5-5.8-0.7-8.7-0.7l0,0
				c-30.5,0-55.3,24.8-55.3,55.3v71.8v39.3v13.5c0,30.5,24.8,55.3,55.3,55.3h1.8c2.6,0,5.2-0.2,7.8-0.6
				C101.5,237.2,80.9,214.1,80.9,186.3z"/>
			<path class="st4" d="M75.8,139.2c-7.7-7.7-20.2-7.7-27.9,0s-7.7,20.2,0,27.9s20.2,7.7,27.9,0"/>
			<path class="st2" d="M200.4,323.3c0,11.6-2.4,34.7-6.8,62.7c-1.7,13.8-2.8,26.4-3.3,37.6H48.2c-1-12.5-2.4-25.6-4.4-37.6
				c-4.4-28-6.8-51.2-6.8-62.7c0-45.1,36.6-81.7,81.7-81.7C163.9,241.6,200.4,278.2,200.4,323.3z"/>
			<path class="st5" d="M70.3,323.3c0,11.6,1.4,34.7,4,62.7c1.2,12,2,25,2.6,37.6H48.2c-1-12.5-2.4-25.6-4.4-37.6
				c-4.4-28-6.8-51.2-6.8-62.7c0-45.1,36.6-81.7,81.7-81.7C92,241.6,70.3,278.2,70.3,323.3z"/>
			<circle class="st6" cx="139.9" cy="131.4" r="22.7"/>
			<circle class="st6" cx="211.7" cy="131.4" r="22.7"/>
			<path class="st2" d="M94.1,38.4H37.8c-8,0-14.5,6.5-14.5,14.5l0,0c0,8,6.5,14.5,14.5,14.5h56.2"/>
			<g>
				<path class="st2" d="M94.1,67.5H46.4c-8,0-14.5,6.5-14.5,14.5l0,0c0,8,6.5,14.5,14.5,14.5h47.7"/>
			</g>
			<path class="st0" d="M338.2,230.2l-33.6,5.9c-7.4,1.3-14.5-3.6-15.8-11.1l0,0c-1.3-7.4,3.6-14.5,11.1-15.8l33.6-5.9
				c7.4-1.3,14.5,3.6,15.8,11.1l0,0C350.6,221.8,345.6,228.9,338.2,230.2z"/>
		</g>
		<g>
			<path class="st7" d="M143.3,327.1c0,3.5,2.9,6.4,6.4,6.4h26.2c3.5,0,6.4-2.9,6.4-6.4c0-3.5-2.9-6.4-6.4-6.4h-26.2
				C146.2,320.8,143.3,323.6,143.3,327.1z"/>
			<path class="st7" d="M393.2,315.6c-1.6-9.2-5.5-17.9-11.3-25.2c-2.2-2.8-6.2-3.2-9-1c-2.8,2.2-3.2,6.2-1,9c1.6,2,3,4.1,4.2,6.3
				c-15.3-4.4-26.6,1.2-36.9,6.3c-12.9,6.4-23.2,11.6-42.2-0.6c3.4-9.1,9.8-17.1,18.4-22.3c2.3-1.4,3.5-4,3-6.6l-7.1-40l22.5-4
				l7.1,40c0.5,2.6,2.5,4.7,5.1,5.2c3.3,0.6,6.5,1.6,9.5,3c3.2,1.4,7,0,8.4-3.2c1.4-3.2,0-7-3.2-8.4c-2.6-1.2-5.3-2.1-8-2.9
				l-6.6-37.2c2.4-1.4,4.5-3.3,6.1-5.7c3.1-4.4,4.2-9.7,3.3-15c-0.9-5.3-3.9-9.9-8.2-12.9c-4.4-3.1-9.7-4.2-15-3.3l-33.6,5.9
				c-5.3,0.9-9.9,3.9-12.9,8.2c-3.1,4.4-4.2,9.7-3.3,15c0.9,5.3,3.9,9.9,8.2,12.9c2.3,1.6,5,2.7,7.7,3.3l1.9,10.6
				c-25.9,6.5-34.2,24.7-40.4,38.3c-0.7,1.6-1.5,3.2-2.2,4.7c-7.7,16-15.6,24.6-22.7,24.9c-12.9,0.6-29.2-23.6-42-44.8
				c-0.2-0.3-0.3-0.5-0.5-0.7c-5.5-8.4-12.4-15.9-20.4-22c-0.1-0.1-0.2-0.2-0.3-0.3c-0.3-0.2-0.5-0.4-0.8-0.6
				c-6.6-4.9-14-8.9-21.9-11.9c18.6-10.2,31.2-29.9,31.2-52.6v-8.8h20.4c2,0,4-1,5.2-2.6c1.2-1.7,1.5-3.8,0.9-5.7l-3.8-11.7
				c2.7,0.8,5.6,1.3,8.5,1.3c16,0,29.1-13,29.1-29.1s-13-29.1-29.1-29.1c-9.4,0-17.9,4.5-23.2,11.5l-3.5-10.9h0.2
				c5.6,0,10.9-2.2,14.8-6.1c4-3.9,6.1-9.2,6.1-14.8c0-5.6-2.3-10.8-5.9-14.5c3.8-3.9,5.9-9.1,5.9-14.5c0-11.5-9.4-20.9-20.9-20.9
				h-12.4c-2.8-5.1-6.3-9.7-10.5-13.9C150.7,6.4,135.2,0,118.7,0C96.2,0,75.4,12.4,64.7,32H37.8c-11.5,0-20.9,9.4-20.9,20.9
				c0,8.1,4.6,15.1,11.3,18.6c-1.8,3.1-2.8,6.7-2.8,10.5c0,11.5,9.4,20.9,20.9,20.9h47.7c3.5,0,6.4-2.9,6.4-6.4s-2.9-6.4-6.4-6.4
				H46.4c-4.5,0-8.2-3.7-8.2-8.2s3.7-8.2,8.2-8.2h47.7c3.5,0,6.4-2.9,6.4-6.4c0-3.5-2.9-6.4-6.4-6.4H46.4h-8.5
				c-4.5,0-8.2-3.7-8.2-8.2s3.7-8.2,8.2-8.2h56.2c3.5,0,6.4-2.9,6.4-6.4c0-3.5-2.9-6.4-6.4-6.4H79.9c9.1-11.9,23.5-19.2,38.9-19.2
				c13.1,0,25.3,5.1,34.6,14.3c9.2,9.2,14.3,21.5,14.3,34.6v28.1c0,0.7,0.1,1.3,0.3,2l10.7,33.3h-10.4c-2.9-13-14.5-22.7-28.4-22.7
				s-25.4,9.7-28.4,22.7h-17c-3.5,0-6.4,2.9-6.4,6.4s2.9,6.4,6.4,6.4h17c2.9,13,14.5,22.7,28.4,22.7c13.8,0,25.4-9.7,28.4-22.7h14.5
				l9.3,28.7h-18c-3.5,0-6.4,2.9-6.4,6.4v12.2c-2.4,1.3-8.1,2.7-18.9-2.7c-3.1-1.6-7-0.3-8.6,2.8c-1.6,3.1-0.3,7,2.8,8.6
				c7.7,3.9,14.1,5.3,19.2,5.3c1.5,0,2.9-0.1,4.2-0.3c-4.8,20.9-23.6,36.5-45.9,36.5h-1.8c-27,0-48.9-21.9-48.9-48.9V178
				c3.9-1.2,7.5-3.4,10.5-6.4c2.5-2.5,2.5-6.5,0-9c-2.5-2.5-6.5-2.5-9,0c-2.5,2.5-5.9,3.9-9.4,3.9c-3.6,0-6.9-1.4-9.4-3.9
				c-5.2-5.2-5.2-13.6,0-18.8c5.2-5.2,13.6-5.2,18.8,0c2.5,2.5,6.5,2.5,9,0c2.5-2.5,2.5-6.5,0-9c-3-3-6.6-5.2-10.5-6.4v-11.7
				c0-3.5-2.9-6.4-6.4-6.4c-3.5,0-6.4,2.9-6.4,6.4v10.9c-5,0.9-9.8,3.3-13.6,7.2c-10.2,10.2-10.2,26.7,0,36.9
				c3.8,3.8,8.5,6.2,13.6,7.2v7.5c0,23.3,12.9,43.5,32,54c-8.2,2.9-15.8,7-22.7,12.1c-0.1,0.1-0.2,0.1-0.3,0.2
				c-6,1.8-18.8,6.7-31.6,17.6C18.8,283.7,0,309.2,0,354.6c0,19.3,2.4,42.8,7.3,70.1c0.5,3.1,3.2,5.3,6.3,5.3c0.4,0,0.7,0,1.1-0.1
				c3.5-0.6,5.8-3.9,5.2-7.4c-4.7-26.5-7.1-49.3-7.1-67.8c0-31.7,9.6-56.4,28.5-73.3c-6.8,12.5-10.7,26.8-10.7,42
				c0,10.3,1.8,29,5,51.2c0.5,3.5,3.7,5.9,7.2,5.4c3.5-0.5,5.9-3.7,5.4-7.2c-3.1-21.6-4.8-39.6-4.8-49.4c0-22.4,9.8-42.5,25.4-56.3
				l19.6,23.6c1.3,1.6,3.4,2.5,5.5,2.3c2.1-0.2,4-1.4,5-3.2l13.4-23.8v151.3H54.1c-0.7-7.7-1.5-14.9-2.4-21.5
				c-0.5-3.5-3.7-5.9-7.2-5.5c-3.5,0.5-5.9,3.7-5.5,7.2c1.1,8.1,2,17.1,2.8,26.7c0.3,3.3,3,5.9,6.4,5.9h142.1c3.4,0,6.2-2.7,6.4-6.1
				c0.6-12,1.7-24.5,3.3-37c4.3-27.5,6.8-51.3,6.8-63.6c0-1.9-0.1-3.8-0.2-5.7c9.2,10.2,18.3,16.1,27.9,16.1c0.4,0,0.7,0,1.1,0
				c12.5-0.6,23.5-11.1,33.7-32.1c0.8-1.6,1.5-3.2,2.3-4.9c5.8-12.7,11.8-25.8,31-31l2.5,14c-17.5,12.5-26.6,34.3-22.8,55.7
				c4.8,27.3,28.6,46.5,55.4,46.5c3.2,0,6.5-0.3,9.8-0.9C378.1,375.5,398.6,346.2,393.2,315.6z M139.9,147.7
				c-9,0-16.3-7.3-16.3-16.3c0-9,7.3-16.3,16.3-16.3c9,0,16.3,7.3,16.3,16.3C156.2,140.4,148.9,147.7,139.9,147.7z M211.7,115.1
				c9,0,16.3,7.3,16.3,16.3s-7.3,16.3-16.3,16.3c-9,0-16.3-7.3-16.3-16.3S202.7,115.1,211.7,115.1z M191,87.8
				c-1.5,1.5-3.6,2.4-5.8,2.4h-4.3l-0.5-1.4V73.9h4.8c4.5,0,8.2,3.7,8.2,8.2C193.4,84.2,192.5,86.2,191,87.8z M185.2,44.8
				c4.5,0,8.2,3.7,8.2,8.2c0,2.2-0.8,4.2-2.4,5.8c-1.5,1.5-3.6,2.4-5.8,2.4h-4.8c-0.1-5.6-0.8-11.1-2.3-16.3L185.2,44.8L185.2,44.8z
				 M158.4,259.3l-13.3,16l-15-26.5C140.4,250.4,150,254,158.4,259.3z M92.3,275.3l-13.3-16c8.4-5.3,18-8.9,28.2-10.5L92.3,275.3z
				 M187.4,385.1c0,0.1,0,0.1,0,0.2c-1.3,10.8-2.4,21.5-3,32h-59.2V265.9l13.4,23.8c1,1.8,2.9,3,5,3.2c0.2,0,0.4,0,0.6,0
				c1.9,0,3.7-0.8,4.9-2.3l19.6-23.6c15.6,13.8,25.4,33.9,25.4,56.3C194,334.9,191.5,358.6,187.4,385.1z M295.1,224
				c-0.3-1.9,0.1-3.8,1.2-5.4c1.1-1.6,2.8-2.6,4.7-3l33.6-5.9c0.4-0.1,0.9-0.1,1.3-0.1c1.5,0,2.9,0.4,4.1,1.3c1.6,1.1,2.6,2.8,3,4.7
				c0.3,1.9-0.1,3.8-1.2,5.4c-1.1,1.6-2.8,2.6-4.7,3l-33.6,5.9c-1.9,0.3-3.8-0.1-5.4-1.2C296.5,227.5,295.5,225.9,295.1,224z
				 M345.3,368.3c-23.6,4.2-46.3-11.7-50.4-35.3c-0.6-3.1-0.7-6.3-0.6-9.4c9,5,16.9,6.9,23.8,6.9c10.6,0,19.2-4.3,26.7-8.1
				c11.6-5.8,20.8-10.4,36.2-1.8C383.5,343.2,368,364.3,345.3,368.3z"/>
			<path class="st7" d="M368.5,335c-0.5-2.7-2.8-4.8-5.5-5.1c-2.5-0.3-5,1-6.3,3.2c-2.9,5.2,2.5,11.3,8,9.1
				C367.4,341,369.1,337.9,368.5,335z"/>
			<path class="st7" d="M333.7,347.8c-2.7,0.5-4.8,2.9-5.1,5.6c-0.3,2.7,1.3,5.4,3.8,6.5c5.4,2.4,11-3.5,8.3-8.8
				C339.3,348.7,336.5,347.3,333.7,347.8z"/>
			<path class="st7" d="M291.3,56.2c18.1,9.4,40.6,21.1,40.6,32.1c0,10.2-12.7,17.6-26.8,25c-3.1,1.6-4.3,5.5-2.7,8.6
				c1.1,2.2,3.4,3.4,5.7,3.4c1,0,2-0.2,2.9-0.7c13.4-7,33.7-17.6,33.7-36.3c0-18.8-24.2-31.3-47.5-43.4c-9.4-4.9-18.3-9.5-24.8-14.1
				c-7.8-5.5-8.6-8.7-8.6-9.8c0-3.5-2.9-6.4-6.4-6.4c-3.5,0-6.4,2.9-6.4,6.4C251,35.3,269.7,45,291.3,56.2z"/>
			<path class="st7" d="M296.2,132.6c3-1.8,4.1-5.7,2.3-8.8c-1.8-3-5.7-4-8.8-2.3c-8.5,5-18.2,12.1-18.2,22.9
				c0,15.3,13.4,22.2,24.1,27.8c6.6,3.4,13.4,6.9,13.4,10.6c0,3.5,2.9,6.4,6.4,6.4c3.5,0,6.4-2.9,6.4-6.4c0-11.4-10.8-17-20.3-21.9
				c-10.4-5.4-17.2-9.4-17.2-16.4C284.3,141.2,288.1,137.3,296.2,132.6z"/>
		</g>
	</g>
	<g>
		<g>
			<g>
				<path class="st8" d="M433.5,300.4V274h23.4c1.7,0,3.1,1.4,3.1,3.1v23.4H433.5z"/>
				<path class="st7" d="M456.9,275.5c0.9,0,1.6,0.7,1.6,1.6v21.9H435v-23.4H456.9 M456.9,272.5H435h-3v3v23.4v3h3h23.4h3v-3v-21.9
					C461.4,274.5,459.4,272.5,456.9,272.5L456.9,272.5z"/>
			</g>
			<g>
				<path class="st9" d="M406.9,300.4v-23.4c0-1.7,1.4-3.1,3.1-3.1h23.4v26.4H406.9z"/>
				<path class="st7" d="M431.9,275.5v23.4h-23.4v-21.9c0-0.9,0.7-1.6,1.6-1.6H431.9 M434.9,272.5h-3H410c-2.5,0-4.6,2-4.6,4.6v21.9
					v3h3h23.4h3v-3v-23.4V272.5L434.9,272.5z"/>
			</g>
			<g>
				<path class="st10" d="M410,327c-1.7,0-3.1-1.4-3.1-3.1v-23.4h26.4V327H410z"/>
				<path class="st7" d="M431.9,302.1v23.4H410c-0.9,0-1.6-0.7-1.6-1.6v-21.9H431.9 M434.9,299.1h-3h-23.4h-3v3v21.9
					c0,2.5,2,4.6,4.6,4.6h21.9h3v-3v-23.4V299.1L434.9,299.1z"/>
			</g>
			<g>
				<path class="st11" d="M433.5,327v-26.4h26.4v23.4c0,1.7-1.4,3.1-3.1,3.1H433.5z"/>
				<path class="st7" d="M458.4,302.1v21.9c0,0.9-0.7,1.6-1.6,1.6H435v-23.4H458.4 M461.4,299.1h-3H435h-3v3v23.4v3h3h21.9
					c2.5,0,4.6-2,4.6-4.6v-21.9V299.1L461.4,299.1z"/>
			</g>
		</g>
		<g>
			<g>
				<path class="st12" d="M362.1,160.5l0.9-0.5c2.4-1.4,4.3-3.4,5.6-5.9h-9.9c-1.5,0-2.6-1.2-2.6-2.6V145c0-1.5,1.2-2.6,2.6-2.6
					l20.4,0c1.3,0,2.4,0.9,2.6,2.2c0.2,1.2,0.3,2.1,0.3,3.4c0,9.3-4.9,17.6-13,22.3l-0.9,0.5L362.1,160.5z"/>
				<path class="st7" d="M358.5,143.4l20.4,0c0.8,0,1.5,0.6,1.6,1.3c0.2,1,0.3,1.9,0.3,3.2c0,8.9-4.6,16.9-12.5,21.4l-4.9-8.5
					c3-1.7,5.3-4.5,6.6-7.7h-11.5c-0.9,0-1.6-0.7-1.6-1.6V145C356.9,144.1,357.6,143.4,358.5,143.4 M358.5,141.4L358.5,141.4
					c-2,0-3.6,1.6-3.6,3.6v6.5c0,2,1.6,3.6,3.6,3.6h8.2c-1.1,1.6-2.6,3-4.3,4l-1.7,1l1,1.7l4.9,8.5l1,1.7l1.7-1
					c8.5-4.9,13.5-13.6,13.5-23.2c0-1.3-0.1-2.3-0.3-3.6c-0.3-1.7-1.8-3-3.6-3L358.5,141.4L358.5,141.4z"/>
			</g>
			<g>
				<path class="st13" d="M355.8,173.7c-9.3,0-17.9-5-22.5-13l-0.5-0.9l10.2-5.9l0.5,0.9c2.5,4.4,7.3,7.1,12.3,7.1
					c2.5,0,4.9-0.7,7.1-1.9l0.9-0.5l5.5,9.6v0.8l-0.5,0.3C364.9,172.5,360.4,173.7,355.8,173.7z"/>
				<path class="st7" d="M342.7,155.3c2.6,4.5,7.5,7.6,13.2,7.6c2.8,0,5.4-0.8,7.6-2.1l4.9,8.5v0c-3.7,2.1-8,3.3-12.5,3.3
					c-9.2,0-17.3-5-21.6-12.5L342.7,155.3 M343.4,152.6l-1.7,1l-8.5,4.9l-1.7,1l1,1.7c4.8,8.3,13.8,13.5,23.4,13.5
					c4.7,0,9.4-1.3,13.5-3.6l1-0.6v-1.2v-0.5l-0.3-0.5l-4.9-8.5l-1-1.7l-1.7,1c-2,1.2-4.3,1.8-6.6,1.8c-4.7,0-9.1-2.5-11.4-6.6
					L343.4,152.6L343.4,152.6z"/>
			</g>
			<g>
				<path class="st14" d="M354.8,173.7v-11.8h1c2.5,0,4.9-0.7,7.1-1.9l0.9-0.5l5.5,9.6v0.8l-0.5,0.3c-3.9,2.3-8.4,3.5-13,3.5H354.8z
					"/>
				<path class="st7" d="M363.4,160.9l4.9,8.5v0c-3.7,2.1-8,3.3-12.5,3.3v-9.8C358.6,162.9,361.2,162.2,363.4,160.9 M364.2,158.1
					l-1.7,1c-2,1.2-4.3,1.8-6.6,1.8h-2v2v9.8v2h2c4.7,0,9.4-1.3,13.5-3.6l1-0.6v-1.2v-0.5l-0.3-0.5l-4.9-8.5L364.2,158.1
					L364.2,158.1z"/>
			</g>
			<g>
				<path class="st15" d="M333.3,160.7c-2.3-3.9-3.5-8.4-3.5-13s1.2-9.1,3.5-13l0.5-0.9l10.2,5.9l-0.5,0.9c-1.3,2.2-1.9,4.6-1.9,7.1
					c0,2.5,0.7,4.9,1.9,7.1l0.5,0.9l-10.2,5.9L333.3,160.7z"/>
				<path class="st7" d="M334.2,135.2l8.5,4.9c-1.3,2.2-2.1,4.8-2.1,7.6s0.8,5.4,2.1,7.6l-8.5,4.9c-2.1-3.7-3.4-7.9-3.4-12.5
					S332.1,138.9,334.2,135.2 M333.5,132.5l-1,1.7c-2.4,4.1-3.6,8.7-3.6,13.5s1.3,9.4,3.6,13.5l1,1.7l1.7-1l8.5-4.9l1.7-1l-1-1.7
					c-1.2-2-1.8-4.3-1.8-6.6s0.6-4.6,1.8-6.6l1-1.7l-1.7-1l-8.5-4.9L333.5,132.5L333.5,132.5z"/>
			</g>
			<g>
				<path class="st16" d="M332.8,135.6l0.5-0.9c4.6-8,13.3-13,22.5-13c6.2,0,12.3,2.3,17,6.4c0.6,0.5,0.9,1.2,0.9,1.9
					c0,0.7-0.3,1.4-0.8,2l-4.6,4.6c-0.5,0.5-1.2,0.8-1.9,0.8c-0.6,0-1.2-0.2-1.7-0.6c-2.5-2.1-5.7-3.2-9-3.2c-5,0-9.8,2.7-12.3,7.1
					l-0.5,0.9L332.8,135.6z"/>
				<path class="st7" d="M355.8,122.7c6.2,0,12,2.3,16.4,6.1c0.7,0.6,0.8,1.7,0.1,2.4l-4.6,4.6c-0.3,0.3-0.7,0.5-1.1,0.5
					c-0.4,0-0.7-0.1-1-0.4c-2.6-2.2-6-3.5-9.7-3.5c-5.6,0-10.5,3.1-13.2,7.6l-8.5-4.9C338.5,127.7,346.6,122.7,355.8,122.7
					 M355.8,120.7c-9.6,0-18.6,5.2-23.4,13.5l-1,1.7l1.7,1l8.5,4.9l1.7,1l1-1.7c2.4-4.1,6.7-6.6,11.4-6.6c3.1,0,6,1.1,8.4,3
					c0.7,0.5,1.5,0.8,2.3,0.8c1,0,1.9-0.4,2.6-1.1l4.6-4.6c0.7-0.7,1.1-1.7,1.1-2.7c0-1-0.5-2-1.3-2.6
					C368.6,123.1,362.3,120.7,355.8,120.7L355.8,120.7z"/>
			</g>
			<g>
				<path class="st17" d="M366.5,137.3c-0.6,0-1.2-0.2-1.7-0.6c-2.5-2.1-5.7-3.2-9-3.2h-1v-11.8h1c6.2,0,12.3,2.3,17,6.4
					c0.6,0.5,0.9,1.2,0.9,1.9c0,0.7-0.3,1.4-0.8,2l-4.6,4.6C367.9,137.1,367.2,137.3,366.5,137.3L366.5,137.3z"/>
				<path class="st7" d="M355.8,122.7c6.2,0,12,2.3,16.4,6.1c0.7,0.6,0.8,1.7,0.1,2.4l-4.6,4.6c-0.3,0.3-0.7,0.5-1.1,0.5
					c-0.4,0-0.7-0.1-1-0.4c-2.6-2.2-6-3.5-9.7-3.5V122.7 M355.8,120.7h-2v2v9.8v2h2c3.1,0,6,1.1,8.4,3c0.7,0.5,1.5,0.8,2.3,0.8
					c1,0,1.9-0.4,2.6-1.1l4.6-4.6c0.7-0.7,1.1-1.7,1.1-2.7c0-1-0.5-2-1.3-2.6C368.6,123.1,362.3,120.7,355.8,120.7L355.8,120.7z"/>
			</g>
		</g>
		<g>
			<path class="st18" d="M424.8,195.8h-37.5c-3.4,0-6.2,2.8-6.2,6.2v37.5c0,3.4,2.8,6.2,6.2,6.2h37.5c3.4,0,6.2-2.8,6.2-6.2V202
				C431,198.6,428.2,195.8,424.8,195.8z"/>
			<path class="st19" d="M423.2,220.8h-7.8v-6.2c0-1.7,1.4-1.6,3.1-1.6h3.1v-7.8h-6.2l0,0c-5.2,0-9.4,4.2-9.4,9.4v6.2h-6.2v7.8h6.2
				v17.2h9.4v-17.2h4.7L423.2,220.8z"/>
		</g>
		<g>
			<g>
				
					<linearGradient id="SVGID_1_" gradientUnits="userSpaceOnUse" x1="51.9642" y1="365.2247" x2="53.0255" y2="366.3655" gradientTransform="matrix(0 -42.2827 39.3387 0 -14154.8418 2454.4546)">
					<stop  offset="0" style="stop-color:#FFDD55"/>
					<stop  offset="0.5" style="stop-color:#FF543E"/>
					<stop  offset="1" style="stop-color:#C837AB"/>
				</linearGradient>
				<path class="st20" d="M235,260.8c-6.8,0-15.3-0.2-17.1-0.6c-9.3-2.4-9.1-11.4-8.9-20.8c0-1.5,0.1-3,0.1-4.5c0-2.1,0-4,0-5.6
					c-0.1-9.1-0.1-12.9,3.4-16.6c3.3-3.4,7.1-3.8,15.6-3.8c1.6,0,3.5,0,5.5,0c2.6,0,5.7,0,9.1,0h0.3c5.9,0,6.3,0.1,7.4,0.2
					c6,0.9,9.8,5.2,10.3,11.5c0.1,0.9,0.1,27.4,0,28.4c-0.5,5.8-3.6,9.9-8.7,11.2C250.4,260.6,241.8,260.8,235,260.8z"/>
				<path class="st7" d="M228.2,209.8c3.7,0,8.5,0.1,14.7,0.1c0.1,0,0.2,0,0.4,0c6,0,6.2,0.1,7.4,0.2c5.1,0.7,8.9,4.3,9.4,10.6
					c0.1,0.8,0.1,27.4,0,28.2c-0.5,5.9-3.8,9.2-8,10.3c-1.6,0.4-9.2,0.6-16.9,0.6c-7.7,0-15.3-0.2-16.9-0.6
					c-10-2.6-8.1-13.5-8.1-24.4c0-13.1-0.8-17.5,3.1-21.5h0C216.2,210.2,219.3,209.8,228.2,209.8 M228.2,207.8
					c-8.8,0-12.8,0.4-16.4,4.1c-3.9,4-3.8,8.2-3.7,17.3c0,1.7,0,3.5,0,5.6c0,1.5,0,3-0.1,4.5c-0.2,9.4-0.5,19.2,9.6,21.8
					c2.4,0.6,13.9,0.7,17.4,0.7c3.5,0,15,0,17.4-0.7c5.4-1.4,9-5.9,9.5-12.1c0.1-0.9,0.1-27.6,0-28.5c-0.5-6.7-4.8-11.5-11.1-12.4
					l-0.1,0c-1.3-0.2-1.8-0.2-7.6-0.2l-0.4,0c-3.5,0-6.5,0-9.1,0C231.6,207.8,229.8,207.8,228.2,207.8L228.2,207.8z"/>
			</g>
			<g>
				<path class="st21" d="M238.8,254.2c-0.6,0-1.3,0-1.9,0c-0.6,0-1.3,0-1.9,0c-0.6,0-3,0-3.6,0c-6.4,0-12.3-0.5-14.8-7
					c-1.1-2.7-1.1-6.7-1-10.9l0-1.5l0-1.8c0-4.6,0-7.9,1-10.6c2.5-6.5,8.4-7,14.8-7c0.6,0,3,0,3.6,0c0.7,0,1.4,0,2.1,0
					c0.6,0,1.3,0,1.9,0c4.9,0,8.9,0.2,12.1,3.4c3.4,3.4,3.4,7.9,3.4,14c0,0.6,0,1.3,0,2l0,1.8c0,4.5,0,7.8-1,10.6
					C250.9,253.7,244.8,254.2,238.8,254.2z M233.3,220.7c-11.9,0-12.3,0-12.3,14.1c0,14.1,0,14.1,14.1,14.1c0.7,0,1.5,0,2.2,0
					c0.7,0,1.3,0,2,0c6.6,0,9.5-1,9.8-6.7c0.5-11.5,0.4-17.4-1.8-19.8c-1.4-1.5-3.9-1.8-8.3-1.8c-0.8,0-1.6,0-2.5,0
					C235.4,220.7,234.5,220.7,233.3,220.7C233.4,220.7,233.4,220.7,233.3,220.7z M235.1,245.2c-5.8,0-10.4-4.7-10.4-10.4
					c0-5.8,4.7-10.5,10.4-10.5c5.8,0,10.4,4.7,10.4,10.5C245.5,240.6,240.8,245.2,235.1,245.2z M235.1,229.7c-1.6,0-2.9,0.5-3.8,1.6
					c-0.8,0.9-1.3,2.2-1.3,3.6c0,2.5,1.6,5.1,5.1,5.1c3.5,0,5.1-2.7,5.1-5.1C240.1,232.3,238.6,229.7,235.1,229.7z M244.9,228.2
					c-1.8,0-3.2-1.4-3.2-3.2s1.4-3.2,3.2-3.2s3.2,1.4,3.2,3.2S246.7,228.2,244.9,228.2z"/>
				<path class="st7" d="M239,216.4c4.9,0,8.5,0.3,11.4,3.1c3.5,3.5,3.1,8.1,3.1,15.3c0,5.4,0.2,9.1-1,12.1
					c-2.3,5.9-7.8,6.4-13.7,6.4c-1.2,0-2.5,0-3.8,0c-1.2,0-2.4,0-3.6,0c-6.1,0-11.6-0.5-13.9-6.4c-1.1-2.9-1-7.3-1-12.1
					c0-5.4-0.2-9.2,1-12.1c2.3-5.9,7.7-6.4,13.9-6.4c1.2,0,2.4,0,3.6,0c0,0,0,0,0,0h0c0,0,0,0,0,0
					C236.5,216.4,237.8,216.4,239,216.4 M233.4,219.7L233.4,219.7c-12.3,0-13.4,0.2-13.4,15.1c0,14.7,0.4,15.1,15.1,15.1
					c1.4,0,2.8,0,4.2,0c6,0,10.5-0.6,10.8-7.7c1-21.1-0.4-22.6-11.1-22.6C237.3,219.7,235.5,219.7,233.4,219.7 M244.9,222.8
					c1.2,0,2.2,1,2.2,2.2s-1,2.2-2.2,2.2s-2.2-1-2.2-2.2S243.7,222.8,244.9,222.8 M235.1,225.3c5.2,0,9.4,4.2,9.4,9.5
					s-4.2,9.5-9.4,9.5s-9.5-4.2-9.5-9.5S229.8,225.3,235.1,225.3 M235.1,240.9c8.1,0,8.1-12.3,0-12.3
					C226.9,228.7,226.9,240.9,235.1,240.9 M239,214.4c-0.6,0-1.2,0-1.9,0c-0.7,0-1.4,0-2.1,0c-0.6,0-1.2,0-1.8,0c-0.6,0-1.2,0-1.8,0
					c-5.1,0-12.7,0-15.7,7.6c-1.1,2.9-1.1,6.3-1.1,11c0,0.6,0,1.2,0,1.8c0,0.5,0,1,0,1.5c0,4.3,0,8.3,1.1,11.3
					c3,7.6,10.6,7.6,15.7,7.6c0.6,0,1.2,0,1.8,0c0.6,0,1.2,0,1.8,0c0.6,0,1.3,0,1.9,0c0.6,0,1.3,0,1.9,0c4.7,0,12.5,0,15.5-7.6
					c1.1-2.9,1.1-6.3,1.1-10.9c0-0.6,0-1.2,0-1.8c0-0.7,0-1.3,0-2c0-6.4,0.1-11-3.7-14.7C248.4,214.7,244,214.4,239,214.4L239,214.4
					z M233.4,221.7C233.4,221.7,233.4,221.7,233.4,221.7c1.1,0,2,0,3,0c0.9,0,1.7,0,2.5,0c1.2,0,2.3,0,3.3,0.1
					c-0.9,0.7-1.5,1.8-1.5,3.1c-1.7-0.9-3.6-1.5-5.6-1.5c-6.3,0-11.5,5.1-11.5,11.5c0,6.3,5.1,11.5,11.5,11.5
					c6.3,0,11.4-5.1,11.4-11.5c0-2-0.5-4-1.5-5.6c1.2,0,2.3-0.6,3-1.4c0.4,3.3,0.3,8,0,14.4c-0.2,4.9-2.4,5.8-8.8,5.8
					c-0.6,0-1.3,0-2,0c-0.7,0-1.5,0-2.2,0c-6.3,0-10.2-0.1-11.6-1.5c-1.4-1.4-1.5-5.3-1.5-11.6c0-6.7,0.2-10.3,1.6-11.7
					c1.2-1.3,4.3-1.4,9.7-1.4C233.3,221.7,233.4,221.7,233.4,221.7L233.4,221.7z M235.1,238.9c-3.2,0-4.1-2.6-4.1-4.1
					c0-1.1,0.4-2.2,1-2.9c0.7-0.8,1.8-1.2,3.1-1.2c3.2,0,4.1,2.6,4.1,4.1C239.1,236.7,238.1,238.9,235.1,238.9L235.1,238.9z"/>
			</g>
		</g>
		<g>
			<path class="st22" d="M284.5,372.3c-0.8-3.1-3.2-5.5-6.3-6.3c-5.6-1.5-27.9-1.5-27.9-1.5s-22.4,0-27.9,1.5
				c-3,0.8-5.5,3.3-6.3,6.4c-1.5,5.6-1.5,17.2-1.5,17.2s0,11.6,1.5,17.2c0.8,3.1,3.2,5.5,6.3,6.3c5.6,1.5,27.9,1.5,27.9,1.5
				s22.4,0,27.9-1.5c3.1-0.8,5.5-3.2,6.3-6.3c1.5-5.6,1.5-17.2,1.5-17.2S286.1,377.9,284.5,372.3z"/>
			<g>
				<path class="st21" d="M243.2,401.2c-0.2,0-0.3,0-0.5-0.1c-0.3-0.2-0.5-0.5-0.5-0.9v-21.4c0-0.4,0.2-0.7,0.5-0.9
					c0.2-0.1,0.3-0.1,0.5-0.1c0.2,0,0.3,0,0.5,0.1l18.6,10.7c0.3,0.2,0.5,0.5,0.5,0.9s-0.2,0.7-0.5,0.9L243.7,401
					C243.5,401.1,243.3,401.2,243.2,401.2z"/>
				<path class="st7" d="M243.2,378.7l18.6,10.7l-18.6,10.7V378.7 M243.2,376.7c-0.3,0-0.7,0.1-1,0.3c-0.6,0.4-1,1-1,1.7v21.4
					c0,0.7,0.4,1.4,1,1.7c0.3,0.2,0.7,0.3,1,0.3c0.3,0,0.7-0.1,1-0.3l18.6-10.7c0.6-0.4,1-1,1-1.7s-0.4-1.4-1-1.7L244.2,377
					C243.9,376.8,243.5,376.7,243.2,376.7L243.2,376.7z"/>
			</g>
		</g>
		<g>
			<g>
				<path class="st23" d="M430.9,357.2h-15.6c-0.9,0-1.6,0.7-1.6,1.6V390c0,0.9,0.7,1.6,1.6,1.6h15.6c0.9,0,1.6-0.7,1.6-1.6v-31.2
					C432.5,357.9,431.8,357.2,430.9,357.2z"/>
				<path class="st23" d="M415.3,372.8h-15.6c-0.9,0-1.6,0.7-1.6,1.6V390c0,0.9,0.7,1.6,1.6,1.6h15.6c0.9,0,1.6-0.7,1.6-1.6v-15.6
					C416.9,373.5,416.2,372.8,415.3,372.8z"/>
			</g>
			<path class="st24" d="M446.6,341.6h-15.6c-0.9,0-1.6,0.7-1.6,1.6V390c0,0.9,0.7,1.6,1.6,1.6h15.6c0.9,0,1.6-0.7,1.6-1.6v-46.9
				C448.1,342.3,447.4,341.6,446.6,341.6z"/>
		</g>
	</g>
</g>
</svg>
