<?xml version="1.0" encoding="utf-8"?>
<!-- Generator: Adobe Illustrator 25.0.0, SVG Export Plug-In . SVG Version: 6.00 Build 0)  -->
<svg version="1.1" id="Layer_1" xmlns="http://www.w3.org/2000/svg" xmlns:xlink="http://www.w3.org/1999/xlink" x="0px" y="0px"
	 viewBox="0 0 130 535.6" style="enable-background:new 0 0 130 535.6;" xml:space="preserve">
<style type="text/css">
	.st0{fill:#87796F;}
	.st1{fill:#35414D;}
	.st2{fill-rule:evenodd;clip-rule:evenodd;fill:#FFF2E8;}
	.st3{fill-rule:evenodd;clip-rule:evenodd;fill:#FFE4CF;}
	.st4{fill-rule:evenodd;clip-rule:evenodd;fill:#CECECE;}
	.st5{fill-rule:evenodd;clip-rule:evenodd;fill:#838383;}
	.st6{fill-rule:evenodd;clip-rule:evenodd;fill:#FE9737;}
	.st7{fill-rule:evenodd;clip-rule:evenodd;fill:#B5ADB6;}
	.st8{fill-rule:evenodd;clip-rule:evenodd;fill:#F36B37;}
	.st9{fill-rule:evenodd;clip-rule:evenodd;fill:#595959;}
	.st10{fill:#60A917;}
	.st11{fill:#FE9737;}
	.st12{fill:#D8D8D8;}
	.st13{fill-rule:evenodd;clip-rule:evenodd;fill:#35414D;}
	.st14{fill-rule:evenodd;clip-rule:evenodd;fill:#99DD58;}
	.st15{fill:#FF5A5A;}
	.st16{fill-rule:evenodd;clip-rule:evenodd;fill:#97DA7B;}
	.st17{fill-rule:evenodd;clip-rule:evenodd;fill:#68CA44;}
	.st18{fill:#6F909E;}
	.st19{fill:#EC5664;}
	.st20{fill:#DB4554;}
	.st21{fill:#F5F5FA;}
	.st22{fill:#E5E8EC;}
	.st23{fill:#FFCD57;}
	.st24{fill:#F2BB45;}
	.st25{fill:#F4BA43;}
	.st26{fill:#F1E8DC;}
	.st27{fill:#9A99A1;}
	.st28{fill:#54C1ED;}
	.st29{fill:#F4644D;}
	.st30{fill:#8BC932;}
	.st31{fill:#F9D36B;}
	.st32{fill:#EFDBC6;}
	.st33{fill:#E5CFBD;}
	.st34{fill:#46BEE8;}
	.st35{fill:#17AFDE;}
	.st36{fill:#FFB155;}
	.st37{fill-rule:evenodd;clip-rule:evenodd;fill:#F4644D;}
	.st38{fill:#E6F0F6;}
	.st39{fill:#AACFE2;}
	.st40{fill:#F19B40;}
	.st41{fill-rule:evenodd;clip-rule:evenodd;fill:#E8533A;}
</style>
<g>
	<g>
		<g>
			<g>
				<path class="st0" d="M70.4,534.5c4.2,0,8.1-2.2,10.2-5.9l46.6-79.7c1.6-2.7,2-5.9,1.2-9c-0.8-3.1-2.7-5.6-5.5-7.2l-57.5-33.6
					c-1.8-1.1-3.9-1.6-6-1.6c-4.2,0-8.1,2.2-10.2,5.9L2.7,483.1c-1.6,2.7-2,5.9-1.2,9c0.8,3.1,2.7,5.6,5.5,7.2l57.5,33.6
					C66.3,533.9,68.3,534.5,70.4,534.5L70.4,534.5z"/>
			</g>
			<g>
				<path class="st1" d="M59.6,398.6c1.8,0,3.7,0.5,5.4,1.5l57.5,33.6c5.1,3,6.8,9.6,3.8,14.7l-46.6,79.7c-2,3.4-5.6,5.3-9.3,5.3
					c-1.8,0-3.7-0.5-5.4-1.5L7.5,498.3c-5.1-3-6.8-9.6-3.8-14.7l46.6-79.7C52.3,400.5,55.9,398.6,59.6,398.6 M59.6,396.4
					c-4.6,0-8.9,2.5-11.2,6.4L1.8,482.5c-1.7,3-2.2,6.5-1.3,9.8c0.9,3.3,3,6.1,6,7.9l57.5,33.6c2,1.2,4.2,1.8,6.5,1.8
					c4.6,0,8.9-2.5,11.2-6.4l46.6-79.7c3.6-6.2,1.5-14.1-4.6-17.7l-57.5-33.6C64.1,397,61.9,396.4,59.6,396.4L59.6,396.4z"/>
			</g>
		</g>
		<g id="g7750_10_" transform="translate(18.5,457.4355)">
			<g id="path7752_10_">
				<path class="st2" d="M101.6-8.2L54.4,72.4c-0.4,0.7-1.2,0.9-1.9,0.6L34.3,62.3L-4.9,39.4l-7.8-4.5c-0.6-0.4-0.8-1.2-0.4-1.9
					l43.3-74l0.4-0.8c0.1-0.1,0.1-0.2,0.2-0.2l9.3,5.4c2.5,1.5,5.9,0.5,7.5-2.2L53-48c0.1,0,0.2,0,0.3,0.1l0.9,0.5l51.2,30
					c0.6,0.4,0.8,1.2,0.4,1.9L101.6-8.2z"/>
			</g>
		</g>
		<g id="g7754_10_" transform="translate(257.3203,504.5)">
			<g id="path7756_10_">
				<path class="st3" d="M-173.1-87.7c-14.5,4.5-29.4,16.9-39.8,34.7c-2.3,3.9-4.2,7.8-5.8,11.7c-0.5,1.3-1,2.5-1.4,3.8
					c-0.5,1.5-1,3-1.5,4.5c-4.2,14.1-4.1,27.8,0,38.3l-22-12.9l-7.8-4.5c-0.6-0.4-0.8-1.2-0.4-1.9l8-13.7l10.6-18.1l24.7-42.2
					l0.4-0.8c0.1-0.1,0.1-0.2,0.2-0.2l22.2-6c0.1,0,0.2,0,0.3,0.1l0.9,0.5L-173.1-87.7z"/>
			</g>
		</g>
		<g id="g7758_10_" transform="translate(331.5508,504.1592)">
			<g id="path7760_10_">
				<path class="st4" d="M-260-94.7l-5.4,9.2c-1.6,2.7-4.9,3.7-7.5,2.2l-9.3-5.4c0.2-0.1,0.4-0.2,1-0.3l20-5.4
					C-260.5-94.6-260.3-94.7-260-94.7"/>
			</g>
		</g>
		<g id="g7762_10_" transform="translate(331.5508,504.1592)">
			<g id="path7764_10_">
				<path class="st1" d="M-270.3-81.5c2.3,0,4.6-1.2,5.9-3.5l5.4-9.2c0.3-0.5,0.1-1.2-0.4-1.5c-0.5-0.3-1.2-0.1-1.5,0.4l-5.4,9.2
					c-1.3,2.2-3.9,3-6,1.8l-8.4-4.9c-0.5-0.3-1.2-0.1-1.5,0.4c-0.3,0.5-0.1,1.2,0.4,1.5l8.4,4.9C-272.5-81.8-271.4-81.5-270.3-81.5z
					"/>
			</g>
		</g>
		<g id="g7766_10_" transform="translate(413.1929,241.0635)">
			<g id="path7768_10_">
				<path class="st1" d="M-342.7,290.3l-65.2-38.1c-0.5-0.3-0.9-0.8-1.1-1.5c-0.2-0.7-0.1-1.4,0.3-1.9l43.7-74.7
					c0.1-0.2,0.2-0.3,0.4-0.4c0.1-0.2,0.4-0.4,0.7-0.5l20.9-5.6l0.3-0.1c0.8-0.2,1.3-0.4,2,0.1l52.1,30.5c0.6,0.3,1,0.9,1.1,1.5
					c0.1,0.6,0,1.3-0.3,1.9l-22,37.7c0,0,0,0,0,0l-29.4,50.3c-0.5,0.8-1.3,1.3-2.2,1.3C-341.9,290.7-342.3,290.6-342.7,290.3z
					 M-312.6,239.3l22.8-39c0.1-0.1,0.1-0.2,0-0.2c0,0,0-0.1-0.1-0.1l-52-30.4c-0.1,0-0.2,0.1-0.4,0.1l-20.9,5.6l-43.7,74.7
					c-0.1,0.1,0,0.2,0,0.3c0,0,0,0.1,0.1,0.1l65.2,38.1c0.1,0,0.3,0,0.3-0.2L-312.6,239.3C-312.6,239.3-312.6,239.3-312.6,239.3z"/>
			</g>
		</g>
		<g>
			<g id="g7770_10_" transform="translate(330.2446,64.9756)">
				<g id="path7772_10_">
					<path class="st1" d="M-292.6,437.7c0.2,0,0.5,0,0.7-0.1c0.3-0.1,0.4-0.3,0.4-0.6c-0.1-0.3-0.3-0.4-0.6-0.4
						c-1.1,0.2-1.3-0.2-1.5-0.9c-0.2-0.7-0.6-1.8-2.2-1.3c-0.4,0.1-1,0.2-1.2,0c-0.2-0.1-0.3-0.3-0.3-0.7c-0.1-0.4-0.1-0.9,0-1.2
						c0-0.7,0-1.3-0.4-1.7c-0.5-0.4-1.1-0.1-1.7,0.2c-0.8,0.4-1.6,0.8-2.5,0.1c-0.2-0.2-0.5-0.1-0.7,0.1c-0.2,0.2-0.1,0.5,0.1,0.7
						c1.4,1.1,2.8,0.4,3.5-0.1c0.2-0.1,0.6-0.3,0.7-0.3c0.1,0.1,0.1,0.5,0.1,1c0,0.4,0,0.9,0.1,1.4c0.1,0.7,0.3,1.1,0.7,1.4
						c0.6,0.4,1.3,0.3,2,0.1c0.8-0.2,0.9,0,1.1,0.7C-294.2,436.7-293.9,437.7-292.6,437.7z"/>
				</g>
			</g>
			<g id="g7774_10_" transform="translate(423.1602,447.0527)">
				<g id="path7776_10_">
					<path class="st4" d="M-382.7,7.5l-4.4-1.1l0.9-3.8c0.3-1.2,1.5-2,2.7-1.7c1.2,0.3,2,1.5,1.7,2.7L-382.7,7.5z"/>
				</g>
			</g>
			<g id="g7778_10_" transform="translate(325.644,101.1182)">
				<g id="path7780_10_">
					<path class="st5" d="M-295.3,392.2l-2.3,3.1c-0.2,0.2-0.2,0.2-0.2-0.1l-0.6-3.8l-0.7-4.1l3.7-1.4l2.6,2.9L-295.3,392.2z"/>
				</g>
			</g>
			<g id="g7782_10_" transform="translate(412.0854,441.0947)">
				<g id="path7784_10_">
					<path class="st6" d="M-370.9,14.6l-8.3,34.3l-3.2-0.8l-3.2-0.8l7.7-31.7l0.6-2.5c0.1-0.5,0.7-0.9,1.2-0.7l4.4,1.1
						C-371.1,13.6-370.7,14.1-370.9,14.6"/>
				</g>
			</g>
			<g id="g7786_10_" transform="translate(452.5229,474.4854)">
				<g id="path7788_10_">
					<path class="st7" d="M-413.3-24.2l-0.9,3.8l-2.2-0.5l0.9-3.8c0.3-1.2,1.5-2,2.7-1.7c0.4,0.1,0.8,0.3,1,0.6
						C-412.5-25.7-413.1-25.1-413.3-24.2"/>
				</g>
			</g>
			<g id="g7790_10_" transform="translate(441.9307,407.96)">
				<g id="path7792_10_">
					<path class="st8" d="M-405.5,49.3l-7.4,30.3l-0.4,1.5l-2.2-0.5l7.7-31.7l0.6-2.5c0.1-0.5,0.7-0.9,1.2-0.7l2.2,0.5
						c-0.5-0.1-1.1,0.2-1.2,0.7L-405.5,49.3z"/>
				</g>
			</g>
			<g id="g7794_10_" transform="translate(357.9888,127.2178)">
				<g id="path7796_10_">
					<path class="st9" d="M-329.2,361.8l0.7,4.1l0.2,1.3l-1.5,2.1c-0.2,0.2-0.2,0.2-0.2-0.1l-0.6-3.8l-0.7-4.1L-329.2,361.8z"/>
				</g>
			</g>
			<g id="g7798_10_" transform="translate(461.3545,402.1719)">
				<g id="path7800_10_">
					<path class="st1" d="M-433.7,66.5c0.2,0,0.4-0.1,0.5-0.4l2.9-11.9l3.2,0.8c0.3,0.1,0.5-0.1,0.6-0.3c0.1-0.3-0.1-0.5-0.3-0.6
						l-3.6-0.9c-0.1,0-0.3,0-0.4,0.1c-0.1,0.1-0.2,0.2-0.2,0.3l-3,12.3c-0.1,0.3,0.1,0.5,0.3,0.6C-433.8,66.4-433.8,66.5-433.7,66.5
						z"/>
				</g>
			</g>
			<g id="g7802_10_" transform="translate(374.0615,313.9443)">
				<g id="path7804_10_">
					<path class="st1" d="M-341.2,176.5c0.1,0,0.2,0,0.2-0.1c0.1-0.1,0.2-0.2,0.2-0.3l3.9-16.1c0.1-0.3-0.1-0.5-0.3-0.6
						c-0.3-0.1-0.5,0.1-0.6,0.3l-3.8,15.7l-5.4-1.3l8.2-33.8c0-0.1,0.1-0.2,0.2-0.3c0.1-0.1,0.3-0.1,0.4-0.1l4.4,1.1
						c0.3,0.1,0.4,0.3,0.4,0.6l-3.5,14.4c-0.1,0.3,0.1,0.5,0.3,0.6c0.3,0.1,0.5-0.1,0.6-0.3l3.5-14.4c0.2-0.8-0.3-1.6-1.1-1.8
						l-4.4-1.1c-0.4-0.1-0.8,0-1.1,0.2s-0.6,0.5-0.7,0.9l-8.3,34.2c-0.1,0.3,0.1,0.5,0.3,0.6l6.3,1.5
						C-341.3,176.5-341.2,176.5-341.2,176.5z"/>
				</g>
			</g>
			<g id="g7806_10_" transform="translate(331.5225,66.168)">
				<g id="path7808_10_">
					<path class="st1" d="M-303.7,430.8c-0.3-0.1-0.4-0.4-0.4-0.6c0,0,0,0,0,0l-1.3-7.9c0-0.2,0-0.3,0.1-0.4
						c0.1-0.1,0.3-0.2,0.4-0.1l6.3,1.5c0.2,0,0.3,0.2,0.3,0.3c0.1,0.2,0,0.3-0.1,0.4l-4.8,6.4c-0.1,0.1-0.3,0.3-0.5,0.3
						C-303.6,430.8-303.7,430.8-303.7,430.8z M-303.7,430.2L-303.7,430.2L-303.7,430.2z M-304.4,422.9l1.1,6.4l3.9-5.2L-304.4,422.9
						z"/>
				</g>
			</g>
			<g id="g7810_10_" transform="translate(423.1602,447.0527)">
				<g id="path7812_10_">
					<path class="st1" d="M-382.8,7.9l-4.4-1.1c-0.3-0.1-0.4-0.3-0.3-0.6l0.9-3.8c0.4-1.5,1.8-2.4,3.3-2c0.7,0.2,1.3,0.6,1.7,1.2
						c0.4,0.6,0.5,1.4,0.3,2.1l-0.9,3.8c0,0.1-0.1,0.2-0.2,0.3c-0.1,0-0.2,0.1-0.2,0.1C-382.7,8-382.8,8-382.8,7.9z M-385.7,2.8
						l-0.8,3.3l3.5,0.8l0.8-3.3c0.1-0.5,0-0.9-0.2-1.3c-0.2-0.4-0.6-0.7-1.1-0.8c-0.1,0-0.3-0.1-0.4-0.1
						C-384.8,1.4-385.5,2-385.7,2.8z"/>
				</g>
			</g>
		</g>
		<g>
			<g>
				<path class="st1" d="M61.1,438.7c0.3-0.1,0.6-0.1,0.8,0.1c0.1,0.1,0.2,0.2,0.3,0.3l3.5,4.1c0.4,0.5,0.3,1.1-0.1,1.5
					c-0.5,0.4-1.1,0.3-1.5-0.1l-1.8-2.1l-0.7,8.5l5,0.4c0.6,0,1,0.6,1,1.2c0,0,0,0,0,0l-0.8,9.1c0,0.6-0.6,1-1.2,1c0,0,0,0,0,0
					c-0.6,0-1-0.6-1-1.2c0,0,0,0,0,0l0.7-8.1l-5-0.4c-0.6,0-1-0.6-1-1.2c0,0,0,0,0,0l0.8-9.6L58,444c-0.5,0.4-1.1,0.3-1.5-0.1
					c-0.4-0.5-0.3-1.1,0.1-1.5l4.1-3.5C60.8,438.8,60.9,438.7,61.1,438.7L61.1,438.7z"/>
			</g>
			<g>
				<path class="st10" d="M61.7,438.6c0.3-0.1,0.6-0.1,0.8,0.1c0.1,0.1,0.2,0.2,0.3,0.3l3.5,4.1c0.4,0.5,0.3,1.1-0.1,1.5
					s-1.1,0.3-1.5-0.1l-1.8-2.1l-0.7,8.5l5,0.4c0.6,0,1,0.6,1,1.2c0,0,0,0,0,0l-0.8,9.1c0,0.6-0.6,1-1.2,1c0,0,0,0,0,0
					c-0.6,0-1-0.6-1-1.2c0,0,0,0,0,0l0.7-8.1l-5-0.4c-0.6,0-1-0.6-1-1.2c0,0,0,0,0,0l0.8-9.6l-2.1,1.8c-0.5,0.4-1.1,0.3-1.5-0.1
					c-0.4-0.5-0.3-1.1,0.1-1.5l4.1-3.5C61.5,438.7,61.6,438.6,61.7,438.6L61.7,438.6z"/>
			</g>
		</g>
		<g>
			<g>
				<g>
					<path class="st1" d="M93,459.3l-2.3-2.4c-0.4-0.4-0.4-1.1,0-1.6c0.4-0.4,1.1-0.4,1.6,0l1.5,1.6l4.1-3.8c0.4-0.4,1.1-0.4,1.6,0
						s0.4,1.1,0,1.6l-4.9,4.6C94.1,459.8,93.4,459.8,93,459.3L93,459.3z M86.6,455.5l-7.8-0.2c-0.6,0-1.1,0.5-1.1,1.1
						c0,0.6,0.5,1.1,1.1,1.1l7.8,0.2c0.6,0,1.1-0.5,1.1-1.1C87.7,456,87.3,455.5,86.6,455.5z M97.9,462.2c-0.4-0.4-1.1-0.5-1.6,0
						l-2.2,2l-2-2.2c-0.4-0.4-1.1-0.5-1.6,0c-0.4,0.4-0.5,1.1,0,1.6l2,2.2l-2.2,2c-0.4,0.4-0.5,1.1,0,1.6s1.1,0.5,1.6,0l2.2-2l2,2.2
						c0.4,0.4,1.1,0.5,1.6,0c0.4-0.4,0.5-1.1,0-1.6l-2-2.2l2.2-2C98.3,463.3,98.3,462.6,97.9,462.2L97.9,462.2z M86.4,464.4
						l-7.8-0.2c-0.6,0-1.1,0.5-1.1,1.1c0,0.6,0.5,1.1,1.1,1.1l7.8,0.2c0.6,0,1.1-0.5,1.1-1.1C87.5,464.9,87,464.4,86.4,464.4z"/>
				</g>
			</g>
			<g>
				<g>
					<path class="st11" d="M93,458.7l-2.3-2.4c-0.4-0.4-0.4-1.1,0-1.6s1.1-0.4,1.6,0l1.5,1.6l4.1-3.8c0.4-0.4,1.1-0.4,1.6,0
						s0.4,1.1,0,1.6l-4.9,4.6C94.2,459.1,93.5,459.1,93,458.7L93,458.7z M86.7,454.8l-7.8-0.2c-0.6,0-1.1,0.5-1.1,1.1
						c0,0.6,0.5,1.1,1.1,1.1l7.8,0.2c0.6,0,1.1-0.5,1.1-1.1C87.8,455.3,87.3,454.8,86.7,454.8z M97.9,461.5c-0.4-0.4-1.1-0.5-1.6,0
						l-2.2,2l-2-2.2c-0.4-0.4-1.1-0.5-1.6,0s-0.5,1.1,0,1.6l2,2.2l-2.2,2c-0.4,0.4-0.5,1.1,0,1.6s1.1,0.5,1.6,0l2.2-2l2,2.2
						c0.4,0.4,1.1,0.5,1.6,0c0.4-0.4,0.5-1.1,0-1.6l-2-2.2l2.2-2C98.3,462.7,98.3,462,97.9,461.5L97.9,461.5z M86.4,463.7l-7.8-0.2
						c-0.6,0-1.1,0.5-1.1,1.1c0,0.6,0.5,1.1,1.1,1.1l7.8,0.2c0.6,0,1.1-0.5,1.1-1.1C87.5,464.2,87,463.7,86.4,463.7z"/>
				</g>
			</g>
		</g>
		<g>
			<g>
				<path class="st1" d="M59.4,472.4c0,0.1,0.1,0.2,0.2,0.2s0.2,0.1,0.3,0l2.1-0.6c0.2-0.1,0.3-0.3,0.3-0.5
					c-0.1-0.2-0.3-0.3-0.5-0.3l-2.1,0.6C59.5,472,59.4,472.2,59.4,472.4z M57.3,466l-1.1,1.9c-0.1,0.2,0,0.4,0.1,0.5
					c0.2,0.1,0.4,0,0.5-0.1l1.1-1.9c0.1-0.2,0-0.4-0.1-0.5C57.7,465.8,57.5,465.9,57.3,466z M50.6,464.9c-0.2,0.1-0.3,0.3-0.3,0.5
					l0.6,2.1c0,0.1,0.1,0.2,0.2,0.2c0.1,0,0.2,0.1,0.3,0c0.2-0.1,0.3-0.3,0.3-0.5l-0.6-2.1C51,465,50.8,464.9,50.6,464.9L50.6,464.9
					z M44.8,469.3c-0.1,0.2,0,0.4,0.1,0.5l1.9,1.1c0.2,0.1,0.4,0,0.5-0.1c0.1-0.2,0-0.4-0.1-0.5l-1.9-1.1
					C45.2,469.1,44.9,469.1,44.8,469.3z M58.7,477.5c-0.1,0.2,0,0.4,0.1,0.5l1.9,1.1c0.2,0.1,0.4,0,0.5-0.1c0.1-0.2,0-0.4-0.1-0.5
					l-1.9-1.1C59.1,477.2,58.8,477.3,58.7,477.5z M47.1,474.4l-0.2,5l-0.2-0.1c-0.6-0.4-1.4-0.2-1.8,0.5c-0.2,0.3-0.2,0.7-0.1,1
					c-0.3,0.1-0.6,0.3-0.8,0.6c-0.4,0.6-0.2,1.4,0.5,1.8l0.9,0.5c-0.3,0.8,0.1,1.7,0.8,2.1c0.8,0.4,1.7,0.3,2.3-0.3l0.9,0.5
					c0.6,0.4,1.4,0.2,1.8-0.5c0.2-0.3,0.2-0.7,0.1-1c0.3-0.1,0.6-0.3,0.8-0.6c0.4-0.6,0.2-1.4-0.5-1.8l-0.2-0.1l4.3-2.6
					c1-0.5,1.8-1.3,2.4-2.3c1.7-2.8,0.7-6.5-2.1-8.1c-2.8-1.7-6.5-0.7-8.1,2.1C47.3,472.1,47,473.2,47.1,474.4z M46.1,484.1l1.7,1
					c-0.3,0.3-0.8,0.3-1.2,0.1C46.2,484.9,46,484.5,46.1,484.1z M44.6,481.7c0.2-0.3,0.5-0.4,0.8-0.2l4.9,2.9
					c0.3,0.2,0.4,0.5,0.2,0.8c-0.2,0.3-0.5,0.4-0.8,0.2l-4.9-2.9C44.6,482.3,44.5,482,44.6,481.7z M51.3,482.8
					c0.3,0.2,0.4,0.5,0.2,0.8c-0.2,0.3-0.5,0.4-0.8,0.2l-4.9-2.9c-0.3-0.2-0.4-0.5-0.2-0.8c0.2-0.3,0.5-0.4,0.8-0.2L51.3,482.8z
					 M49.6,480.9l-0.8-0.5l1.3-3.6l1.4,0l0.6,1.2L49.6,480.9z M47.8,474.4C47.8,474.4,47.8,474.3,47.8,474.4c0-1,0.2-2,0.7-2.9
					c1.5-2.5,4.7-3.3,7.1-1.9c2.5,1.5,3.3,4.7,1.9,7.1c-0.5,0.9-1.2,1.6-2.1,2c0,0,0,0,0,0l-4.6,2.8l-0.5-0.3l2.5-2.8l1.7,0
					c0.2,0,0.4-0.2,0.4-0.4c0-0.2-0.2-0.4-0.4-0.4l-1.6,0l-0.8-1.4c-0.1-0.1-0.2-0.2-0.3-0.2l-1.6,0l-0.8-1.4
					c-0.1-0.2-0.3-0.3-0.5-0.2c-0.2,0.1-0.3,0.3-0.2,0.5l0.8,1.5l-1.3,3.5l-0.5-0.3L47.8,474.4L47.8,474.4z"/>
			</g>
			<g>
				<path class="st12" d="M50.1,476.9l-1.3,3.6l0.8,0.5l2.5-2.9l-0.6-1.2L50.1,476.9z"/>
			</g>
			<g>
				<path class="st11" d="M48.5,471.5c-0.5,0.9-0.8,1.9-0.7,2.8c0,0,0,0,0,0l-0.2,5.4l0.5,0.3l1.3-3.5l-0.8-1.5
					c-0.1-0.2,0-0.4,0.2-0.5c0.2-0.1,0.4,0,0.5,0.2l0.8,1.4l1.6,0c0.1,0,0.3,0.1,0.3,0.2l0.8,1.4l1.6,0c0.2,0,0.4,0.2,0.4,0.4
					c0,0.2-0.2,0.4-0.4,0.4l-1.7,0l-2.5,2.8l0.5,0.3l4.6-2.8c0,0,0,0,0,0c0.9-0.5,1.6-1.1,2.1-2c1.5-2.5,0.6-5.7-1.9-7.1
					C53.2,468.2,50,469,48.5,471.5L48.5,471.5z"/>
			</g>
			<g>
				<g>
					<path class="st12" d="M45.6,480.1c-0.2,0.3-0.1,0.6,0.2,0.8l4.9,2.9c0.3,0.2,0.6,0.1,0.8-0.2c0.2-0.3,0.1-0.6-0.2-0.8l-4.9-2.9
						C46.1,479.7,45.7,479.8,45.6,480.1z"/>
				</g>
				<g>
					<path class="st12" d="M44.6,481.7c-0.2,0.3-0.1,0.6,0.2,0.8l4.9,2.9c0.3,0.2,0.6,0.1,0.8-0.2c0.2-0.3,0.1-0.6-0.2-0.8l-4.9-2.9
						C45.1,481.4,44.8,481.4,44.6,481.7z"/>
				</g>
				<g>
					<path class="st12" d="M46.1,484.1c-0.1,0.4,0.1,0.9,0.5,1.1c0.4,0.2,0.9,0.2,1.2-0.1L46.1,484.1z"/>
				</g>
			</g>
		</g>
		<g>
			<g>
				<g>
					<path class="st13" d="M78.7,479.2c-0.4-0.2-0.9,0-1.1,0.4l-4.3,9.3c-0.2,0.4,0,0.9,0.4,1.1l9.3,4.3c0.4,0.2,0.9,0,1.1-0.4
						l2.2-4.7c0.2-0.4,0.7-0.6,1.1-0.4c0.4,0.2,0.6,0.7,0.4,1.1l-2.2,4.7c-0.6,1.3-2.1,1.9-3.4,1.3l-9.3-4.3
						c-1.3-0.6-1.9-2.1-1.3-3.4l4.3-9.3c0.6-1.3,2.1-1.9,3.4-1.3l7.8,3.6c0.4,0.2,0.6,0.7,0.4,1.1c-0.2,0.4-0.7,0.6-1.1,0.4
						L78.7,479.2z M90.1,483.8c0.4-0.2,0.9,0.1,1.1,0.5c0.2,0.4-0.1,0.9-0.5,1.1l-10.2,3.8c-0.4,0.2-0.9-0.1-1.1-0.5l-1.3-3.4
						c-0.2-0.4,0.1-0.9,0.5-1.1c0.4-0.2,0.9,0.1,1.1,0.5l1,2.6L90.1,483.8z"/>
				</g>
			</g>
			<g>
				<g>
					<path class="st14" d="M78.4,478.4c-0.4-0.2-0.9,0-1.1,0.4l-4.3,9.3c-0.2,0.4,0,0.9,0.4,1.1l9.3,4.3c0.4,0.2,0.9,0,1.1-0.4
						l2.2-4.7c0.2-0.4,0.7-0.6,1.1-0.4c0.4,0.2,0.6,0.7,0.4,1.1l-2.2,4.7c-0.6,1.3-2.1,1.9-3.4,1.3l-9.3-4.3
						c-1.3-0.6-1.9-2.1-1.3-3.4l4.3-9.3c0.6-1.3,2.1-1.9,3.4-1.3l7.8,3.6c0.4,0.2,0.6,0.7,0.4,1.1c-0.2,0.4-0.7,0.6-1.1,0.4
						L78.4,478.4z M89.8,483c0.4-0.2,0.9,0.1,1.1,0.5c0.2,0.4-0.1,0.9-0.5,1.1l-10.2,3.8c-0.4,0.2-0.9-0.1-1.1-0.5l-1.3-3.4
						c-0.2-0.4,0.1-0.9,0.5-1.1c0.4-0.2,0.9,0.1,1.1,0.5l1,2.6L89.8,483z"/>
				</g>
			</g>
		</g>
		<g>
			<g>
				<path class="st1" d="M52,509.2c0,0,0.1,0,0.1,0.1c0.3,0.2,0.6,0.2,0.9,0.1l7.4-1.9l2,7.5c0.1,0.2,0.3,0.5,0.5,0.6l0.1,0
					c0,0,0.1,0,0.1,0c0.2,0.1,0.5,0.2,0.8,0.1c0.6-0.2,1-0.8,0.8-1.4l-2-7.5l7.5-2c0.6-0.2,0.9-0.9,0.7-1.5
					c-0.1-0.3-0.3-0.5-0.5-0.6c-0.2-0.1-0.5-0.2-0.8-0.1l-7.5,1.9l-1.9-7.4c-0.1-0.3-0.3-0.5-0.5-0.7c-0.3-0.2-0.6-0.2-0.9-0.1
					c-0.6,0.2-0.9,0.7-0.8,1.3l2,7.5l-7.5,1.9c-0.6,0.1-1,0.8-0.9,1.4c0,0,0,0,0,0C51.6,508.8,51.8,509.1,52,509.2z"/>
			</g>
			<g>
				<path class="st15" d="M52.2,508.6c0,0,0.1,0,0.1,0.1c0.3,0.2,0.6,0.2,0.9,0.1l7.4-1.9l2,7.5c0.1,0.2,0.3,0.5,0.5,0.6l0.1,0
					c0,0,0.1,0,0.1,0c0.2,0.1,0.5,0.2,0.8,0.1c0.6-0.2,1-0.8,0.8-1.4l-2-7.5l7.5-2c0.6-0.2,0.9-0.9,0.7-1.5
					c-0.1-0.3-0.3-0.5-0.5-0.6c-0.2-0.1-0.5-0.2-0.8-0.1l-7.5,1.9l-1.9-7.4c-0.1-0.3-0.3-0.5-0.5-0.7c-0.3-0.2-0.6-0.2-0.9-0.1
					c-0.6,0.2-0.9,0.7-0.8,1.3l2,7.5l-7.5,1.9c-0.6,0.1-1,0.8-0.9,1.4c0,0,0,0,0,0C51.7,508.2,51.9,508.4,52.2,508.6z"/>
			</g>
		</g>
		<g>
			<g id="g7830_9_" transform="translate(293.2144,407.6475)">
				<g id="path7832_9_">
					<path class="st16" d="M-220.8,18.8l23.5,13.7c0.4,0.2,0.5,0.8,0.3,1.2l-2.5,4.3c-0.2,0.4-0.8,0.5-1.2,0.3l-23.5-13.7
						c-0.4-0.2-0.5-0.8-0.3-1.2l2.5-4.3C-221.8,18.7-221.2,18.5-220.8,18.8"/>
				</g>
			</g>
			<g id="g7834_9_" transform="translate(293.2144,407.6475)">
				<g id="path7836_9_">
					<path class="st17" d="M-220.8,18.8l6.7,3.9c-0.4-0.2-0.9-0.1-1.2,0.3l-2.5,4.3c-0.2,0.4-0.1,0.9,0.3,1.2l-6.7-3.9
						c-0.4-0.2-0.5-0.8-0.3-1.2l2.5-4.3C-221.8,18.7-221.2,18.5-220.8,18.8"/>
				</g>
			</g>
			<g id="g7838_9_" transform="translate(128.1699,407.6475)">
				<g id="path7840_9_">
					<path class="st1" d="M-36.1,38.9l-23.5-13.7c-0.8-0.4-1-1.4-0.6-2.2l2.5-4.3c0.2-0.4,0.6-0.6,1-0.7c0.4-0.1,0.9,0,1.2,0.2
						l23.5,13.7h0c0.4,0.2,0.6,0.6,0.7,1c0.1,0.4,0,0.9-0.2,1.2l-2.5,4.3c-0.3,0.5-0.8,0.8-1.4,0.8C-35.5,39.2-35.8,39.1-36.1,38.9z
						 M-32.7,33.2l-23.5-13.7c0,0-0.1,0-0.1,0l-2.5,4.3c0,0,0,0.1,0,0.1l23.5,13.7c0,0,0.1,0,0.1,0L-32.7,33.2
						C-32.6,33.3-32.7,33.2-32.7,33.2L-32.7,33.2z"/>
				</g>
			</g>
		</g>
		<g>
			<g>
				<path class="st18" d="M91.6,408.8c1.7-2.8,5.3-3.8,8.1-2.1c2.8,1.7,3.8,5.3,2.1,8.1l10.3,6l-6,10.3c-0.8,1.4-2.6,1.8-3.9,1
					L76.3,417c-1.4-0.8-1.8-2.6-1-3.9l6-10.3L91.6,408.8z"/>
			</g>
			<g>
				<path class="st1" d="M101.5,433.3l-1.7-1c0,0,0,0,0,0l-24.1-14.1c-2.1-1.2-2.7-3.8-1.5-5.9l6-10.3c0.2-0.3,0.5-0.6,0.9-0.7
					c0.4-0.1,0.8,0,1.1,0.1l9.2,5.4c1-1.1,2.2-1.9,3.7-2.2c1.9-0.5,3.9-0.2,5.6,0.8c3.1,1.8,4.4,5.5,3.3,8.8l9.2,5.4
					c0.3,0.2,0.6,0.5,0.7,0.9s0,0.8-0.1,1.1l-6,10.3c-0.6,1-1.5,1.7-2.6,2c-0.4,0.1-0.7,0.1-1.1,0.1
					C102.9,433.9,102.1,433.7,101.5,433.3z M101.1,416c-0.3-0.2-0.6-0.5-0.7-0.9s0-0.8,0.1-1.1c1.3-2.1,0.5-4.9-1.6-6.2
					c-1-0.6-2.3-0.8-3.4-0.5c-1.2,0.3-2.1,1-2.8,2.1c-0.2,0.3-0.5,0.6-0.9,0.7c-0.4,0.1-0.8,0-1.1-0.1l-9-5.3l-5.3,9
					c-0.4,0.7-0.2,1.6,0.5,2l22.2,13c0,0,0,0,0,0l3.6,2.1c0.3,0.2,0.7,0.2,1.1,0.1c0.4-0.1,0.7-0.3,0.9-0.7l5.3-9L101.1,416z"/>
			</g>
			<g>
				<path class="st1" d="M102.5,426.9c0.5,0,1-0.3,1.2-0.7c0.4-0.7,0.2-1.6-0.5-2l-20.5-12c-0.7-0.4-1.6-0.2-2,0.5
					c-0.4,0.7-0.2,1.6,0.5,2l20.5,12C102,426.9,102.2,426.9,102.5,426.9z"/>
			</g>
			<g>
				<g>
					<g>
						<path class="st1" d="M96.7,413.2c0.2,0,0.4,0,0.5-0.1c0.2-0.1,0.3-0.2,0.5-0.3c0.3-0.3,0.4-0.6,0.4-1c0-0.4-0.2-0.8-0.4-1
							c-0.1-0.1-0.1-0.1-0.2-0.2c-0.1,0-0.2-0.1-0.2-0.1c-0.1,0-0.2-0.1-0.3-0.1c-0.5-0.1-1,0.1-1.3,0.4c-0.1,0.1-0.1,0.1-0.2,0.2
							c0,0.1-0.1,0.2-0.1,0.3c0,0.1-0.1,0.2-0.1,0.3c0,0.1,0,0.2,0,0.3c0,0.4,0.1,0.7,0.4,1c0.1,0.1,0.3,0.2,0.5,0.3
							C96.3,413.2,96.5,413.2,96.7,413.2z"/>
					</g>
				</g>
			</g>
		</g>
	</g>
	<g>
		<g>
			<g>
				<path class="st19" d="M65.4,260.9l1.7,1.7l7.8-7.8l-1.7-1.7c-2.2-2.2-5.7-2.2-7.8,0C63.3,255.2,63.3,258.7,65.4,260.9
					L65.4,260.9z"/>
			</g>
			<g>
				<path class="st19" d="M56.4,287.8l18.9,18.9c12.1,12.1,31.8,12.1,43.9,0c12.1-12.1,12.1-31.8,0-43.9L100.2,244
					c-4-4-10.5-4-14.5,0l-29.4,29.4C52.4,277.3,52.4,283.8,56.4,287.8z"/>
			</g>
			<g>
				<path class="st20" d="M83.5,312.7c11.6,5.7,25.9,3.7,35.6-5.9c6-6,9.1-14,9.1-21.9c0-7.9-3-15.9-9.1-21.9L100.2,244
					c-1.8-1.8-4.1-2.8-6.4-3c3.1,1.7,6,3.9,8.7,6.5c15.1,15.1,15.1,39.6,0,54.7C97.1,307.6,90.5,311.1,83.5,312.7L83.5,312.7z"/>
			</g>
			<g>
				<path class="st1" d="M97.2,317.2c-8.3,0-16.6-3.2-23-9.5l-18.9-18.9c-2.2-2.2-3.4-5.2-3.4-8.3s1.2-6.1,3.4-8.3l29.4-29.4
					c2.2-2.2,5.2-3.4,8.3-3.4s6.1,1.2,8.3,3.4l18.9,18.9c12.7,12.7,12.7,33.3,0,45.9C113.8,314.1,105.5,317.2,97.2,317.2L97.2,317.2
					z M93,242.4c-2.3,0-4.6,0.9-6.2,2.6l-29.4,29.4c-1.7,1.7-2.6,3.9-2.6,6.2c0,2.3,0.9,4.6,2.6,6.2l18.9,18.9
					c11.5,11.5,30.3,11.5,41.8,0c11.5-11.5,11.5-30.3,0-41.8L99.2,245C97.5,243.4,95.3,242.4,93,242.4L93,242.4z"/>
			</g>
			<g>
				<g>
					<path class="st21" d="M63,274.6l15.5,15.5c6.6,6.6,17.4,6.6,24,0c6.6-6.6,6.6-17.4,0-24L87,250.6c-2.2-2.2-5.7-2.2-7.9,0
						L63,266.7C60.8,268.9,60.8,272.4,63,274.6z"/>
				</g>
				<g>
					<path class="st22" d="M86.4,294.6c5.6,1.4,11.8-0.1,16.2-4.4c3.3-3.3,5-7.6,5-12c0-4.3-1.7-8.7-5-12L87,250.6
						c-2.1-2.1-5.5-2.2-7.7-0.2c1.4,0.9,2.6,1.9,3.8,3.1c9.4,9.4,14.6,29.9,5.2,39.3C87.7,293.5,87,294.1,86.4,294.6L86.4,294.6z"/>
				</g>
				<g>
					<path class="st1" d="M90.5,296.6c-4.7,0-9.4-1.8-13.1-5.4l-15.5-15.5c-2.8-2.8-2.8-7.3,0-10L78,249.6c2.8-2.8,7.3-2.8,10,0
						l15.5,15.5c7.2,7.2,7.2,18.9,0,26.1C100,294.8,95.3,296.6,90.5,296.6L90.5,296.6z M83,250.5c-1.1,0-2.1,0.4-2.9,1.2l-16.1,16.1
						c-1.6,1.6-1.6,4.2,0,5.8l15.5,15.5c6,6,15.9,6,21.9,0c6-6,6-15.9,0-21.9L86,251.7C85.2,250.9,84.1,250.5,83,250.5L83,250.5z"/>
				</g>
			</g>
			<g>
				<path class="st1" d="M67.1,264.1c-0.4,0-0.7-0.1-1-0.4l-1.7-1.7c-2.7-2.7-2.7-7.2,0-9.9c2.7-2.7,7.2-2.7,9.9,0l1.7,1.7
					c0.6,0.6,0.6,1.5,0,2.1l-7.8,7.8C67.9,263.9,67.5,264.1,67.1,264.1L67.1,264.1z M72.2,254.1c-1.6-1.6-4.2-1.6-5.8,0
					c-1.6,1.6-1.6,4.2,0,5.8l0.6,0.6l5.8-5.8L72.2,254.1z"/>
			</g>
		</g>
		<g>
			<path class="st23" d="M78,271.6l5.2,5.2c1.8,1.8,4.6,1.8,6.4,0c1.8-1.8,1.8-4.6,0-6.4l-5.2-5.2c-1.8-1.8-4.6-1.8-6.4,0
				C76.2,266.9,76.2,269.8,78,271.6z"/>
		</g>
		<g>
			<path class="st24" d="M82.7,276.3l0.5,0.5c1.7,1.7,4.6,1.8,6.4,0c0.9-0.9,1.3-2,1.3-3.2c0-1.1-0.4-2.3-1.3-3.2l-5.2-5.2
				c-1.6-1.6-4.1-1.7-5.8-0.5c4.4,4.8,6.7,9.6,5.2,11.1C83.4,276.1,83.1,276.3,82.7,276.3z"/>
		</g>
		<g>
			<path class="st1" d="M86.4,279.6c-1.6,0-3.1-0.6-4.2-1.7l-5.2-5.2c-2.3-2.3-2.3-6.1,0-8.5s6.1-2.3,8.5,0l5.2,5.2
				c2.3,2.3,2.3,6.1,0,8.5C89.5,279,88,279.6,86.4,279.6L86.4,279.6z M81.2,265.3c-0.8,0-1.6,0.3-2.2,0.9c-1.2,1.2-1.2,3.1,0,4.3
				l5.2,5.2c1.2,1.1,3.2,1.1,4.3,0c1.2-1.2,1.2-3.1,0-4.3l-5.2-5.2C82.7,265.6,81.9,265.3,81.2,265.3L81.2,265.3z"/>
		</g>
		<g>
			<ellipse class="st21" cx="33.1" cy="220.7" rx="28.8" ry="28.8"/>
		</g>
		<g>
			<path class="st22" d="M5.2,227.7c3.1,12.5,14.5,21.8,27.9,21.8c15.9,0,28.8-12.9,28.8-28.8c0-10-5.1-18.8-12.8-23.9
				c0.6,2.2,0.9,4.6,0.9,7c0,15.9-12.9,28.8-28.8,28.8C15.3,232.5,9.8,230.7,5.2,227.7L5.2,227.7z"/>
		</g>
		<g>
			<ellipse class="st23" cx="33.1" cy="220.7" rx="18.9" ry="18.9"/>
		</g>
		<g>
			<path class="st25" d="M14.5,224.1c1.6,8.9,9.4,15.6,18.6,15.6c10.5,0,18.9-8.5,18.9-18.9c0-8.4-5.5-15.6-13.2-18
				c0.2,1.1,0.3,2.2,0.3,3.3c0,10.5-8.5,18.9-18.9,18.9C18.3,225,16.3,224.6,14.5,224.1L14.5,224.1z"/>
		</g>
		<g>
			<path class="st1" d="M33.1,241.1c-11.2,0-20.4-9.1-20.4-20.4s9.1-20.4,20.4-20.4s20.4,9.1,20.4,20.4S44.4,241.1,33.1,241.1
				L33.1,241.1z M33.1,203.3c-9.6,0-17.4,7.8-17.5,17.5c0,9.6,7.8,17.5,17.5,17.5s17.5-7.8,17.5-17.5S42.8,203.3,33.1,203.3
				L33.1,203.3z"/>
		</g>
		<g>
			<path class="st1" d="M2.9,220.7c0-16.7,13.6-30.2,30.2-30.2c16.7,0,30.2,13.6,30.2,30.2S49.8,251,33.1,251S2.9,237.4,2.9,220.7z
				 M5.8,220.7c0,15.1,12.3,27.3,27.3,27.3c15.1,0,27.3-12.2,27.3-27.3c0-15.1-12.3-27.3-27.3-27.3C18.1,193.4,5.8,205.7,5.8,220.7z
				"/>
		</g>
		<g>
			<g>
				<path class="st1" d="M33.1,222.2c-3.1,0-5.7-2.5-5.7-5.7s2.5-5.7,5.7-5.7s5.7,2.5,5.7,5.7c0,0.8-0.7,1.5-1.5,1.5
					s-1.5-0.7-1.5-1.5c0-1.5-1.2-2.7-2.7-2.7s-2.7,1.2-2.7,2.7s1.2,2.7,2.7,2.7c0.8,0,1.5,0.7,1.5,1.5
					C34.6,221.5,33.9,222.2,33.1,222.2L33.1,222.2z"/>
			</g>
			<g>
				<path class="st1" d="M33.1,230.6c-3.1,0-5.7-2.5-5.7-5.7c0-0.8,0.7-1.5,1.5-1.5c0.8,0,1.5,0.7,1.5,1.5c0,1.5,1.2,2.7,2.7,2.7
					s2.7-1.2,2.7-2.7s-1.2-2.7-2.7-2.7c-0.8,0-1.5-0.7-1.5-1.5s0.7-1.5,1.5-1.5c3.1,0,5.7,2.5,5.7,5.7
					C38.8,228.1,36.3,230.6,33.1,230.6L33.1,230.6z"/>
			</g>
			<g>
				<path class="st1" d="M33.1,213.8c-0.8,0-1.5-0.7-1.5-1.5v-2.7c0-0.8,0.7-1.5,1.5-1.5s1.5,0.7,1.5,1.5v2.7
					C34.6,213.1,33.9,213.8,33.1,213.8z"/>
			</g>
			<g>
				<path class="st1" d="M33.1,233.1c-0.8,0-1.5-0.7-1.5-1.5v-2.5c0-0.8,0.7-1.5,1.5-1.5s1.5,0.7,1.5,1.5v2.5
					C34.6,232.4,33.9,233.1,33.1,233.1z"/>
			</g>
		</g>
		<g>
			<path class="st1" d="M37.8,273.1c1.7,0,3.3-0.7,4.5-1.9l17-17c1.4-1.4,3.6-1.4,5,0c0.6,0.6,1.5,0.6,2.1,0s0.6-1.5,0-2.1
				c-2.5-2.5-6.6-2.5-9.1,0l-17,17c-1.2,1.2-2.8,1.2-3.8,0.8c-1.1-0.4-2.2-1.5-2.2-3.3v-17.1c0-0.8-0.7-1.5-1.5-1.5
				s-1.5,0.7-1.5,1.5v17.1c0,2.7,1.5,5,4,6C36.1,272.9,37,273.1,37.8,273.1L37.8,273.1z"/>
		</g>
		<g>
			<path class="st1" d="M71,211c0.3,0,0.6-0.1,0.9-0.3L82,203c0.6-0.5,0.8-1.4,0.3-2.1c-0.5-0.6-1.4-0.8-2.1-0.3l-10.1,7.7
				c-0.6,0.5-0.8,1.4-0.3,2.1C70.2,210.8,70.6,211,71,211z"/>
		</g>
		<g>
			<path class="st1" d="M81.1,230c0.4,0,0.9-0.2,1.2-0.6c0.5-0.6,0.4-1.6-0.3-2.1l-10.1-7.7c-0.6-0.5-1.6-0.4-2.1,0.3
				c-0.5,0.6-0.4,1.6,0.3,2.1l10.1,7.7C80.5,229.9,80.8,230,81.1,230L81.1,230z"/>
		</g>
		<g>
			<path class="st1" d="M71,216.7h10.1c0.8,0,1.5-0.7,1.5-1.5s-0.7-1.5-1.5-1.5H71c-0.8,0-1.5,0.7-1.5,1.5S70.2,216.7,71,216.7z"/>
		</g>
	</g>
	<g>
		<path class="st26" d="M119.2,79.5l-78.4,26.1c-2.4,0.8-4.9-0.5-5.7-2.9L8.7,23.6L76.4,1.1l20.1,10L119.2,79.5z"/>
		<circle class="st27" cx="21.5" cy="25.8" r="1.7"/>
		<circle class="st27" cx="38.5" cy="20.2" r="1.7"/>
		<circle class="st27" cx="55.4" cy="14.5" r="1.7"/>
		<circle class="st27" cx="72.4" cy="8.9" r="1.7"/>
		<path class="st28" d="M54.6,46.7l3.7,11.2l0,0l6.4-2.1c0.6-0.2,0.9-0.8,0.7-1.4l-3-9c-0.2-0.6-0.8-0.9-1.4-0.7L54.6,46.7
			L54.6,46.7z"/>
		<path class="st29" d="M26.7,38.3l8.7,26c0.2,0.6,0.8,0.9,1.4,0.7l6.4-2.1l0,0l-9-27.1c-0.2-0.6-0.8-0.9-1.4-0.7l-5.4,1.8
			C26.8,37.1,26.5,37.8,26.7,38.3z"/>
		<path class="st30" d="M45.2,43.6l5.6,16.8l0,0l7.5-2.5l0,0L53,42.2c-0.2-0.6-0.8-0.9-1.4-0.7L45.2,43.6L45.2,43.6z"/>
		<path class="st31" d="M35.7,40.4l7.5,22.6l0,0l7.5-2.5l0,0l-7.2-21.5c-0.2-0.6-0.8-0.9-1.4-0.7L35.7,40.4L35.7,40.4z"/>
		<path class="st32" d="M108.5,83l10.7-3.6L96.4,11.1l-8.6-4.3l23.5,70.5C112.1,79.7,110.8,82.2,108.5,83z"/>
		<path class="st33" d="M96.4,11.1l-10.7,3.6c-2.4,0.8-4.9-0.5-5.7-2.9v0L76.4,1.1L96.4,11.1z"/>
		<path class="st27" d="M68.4,39.1l23.6-7.9c0.9-0.3,1.4-1.3,1.1-2.1S91.9,27.7,91,28l-23.6,7.9c-0.9,0.3-1.4,1.3-1.1,2.1
			S67.6,39.4,68.4,39.1z"/>
		<path class="st27" d="M77.4,44.2l8.4-2.8c0.9-0.3,1.4-1.3,1.1-2.1c-0.3-0.9-1.3-1.4-2.1-1.1L76.3,41c-0.9,0.3-1.4,1.3-1.1,2.1
			C75.5,44,76.5,44.5,77.4,44.2z"/>
		<path class="st27" d="M90.8,39.7l3.8-1.3c0.9-0.3,1.4-1.3,1.1-2.1c-0.3-0.9-1.3-1.4-2.1-1.1l-3.8,1.3c-0.9,0.3-1.4,1.3-1.1,2.1
			C88.9,39.6,89.9,40,90.8,39.7z"/>
		<path class="st27" d="M66,31.8l17.6-5.9c0.9-0.3,1.4-1.3,1.1-2.1c-0.3-0.9-1.3-1.4-2.1-1.1l-17.6,5.9c-0.9,0.3-1.4,1.3-1.1,2.1
			S65.1,32.1,66,31.8z"/>
		<circle class="st27" cx="87.5" cy="22.8" r="1.7"/>
		<circle class="st27" cx="72" cy="44.2" r="1.7"/>
		<path class="st27" d="M44.7,85.2l23.6-7.9c0.9-0.3,1.4-1.3,1.1-2.1c-0.3-0.9-1.3-1.4-2.1-1.1l-23.6,7.9c-0.9,0.3-1.4,1.3-1.1,2.1
			C42.8,85,43.8,85.4,44.7,85.2z"/>
		<path class="st27" d="M53.6,90.3l8.4-2.8c0.9-0.3,1.4-1.3,1.1-2.1c-0.3-0.9-1.3-1.4-2.1-1.1l-8.4,2.8c-0.9,0.3-1.4,1.3-1.1,2.1
			S52.7,90.6,53.6,90.3z"/>
		<path class="st27" d="M67,85.8l3.8-1.3c0.9-0.3,1.4-1.3,1.1-2.1s-1.3-1.4-2.1-1.1l-3.8,1.3c-0.9,0.3-1.4,1.3-1.1,2.1
			S66.1,86.1,67,85.8z"/>
		<path class="st27" d="M42.2,77.8L59.9,72c0.9-0.3,1.4-1.3,1.1-2.1c-0.3-0.9-1.3-1.4-2.1-1.1l-17.6,5.9c-0.9,0.3-1.4,1.3-1.1,2.1
			C40.4,77.7,41.3,78.1,42.2,77.8z"/>
		<circle class="st27" cx="63.7" cy="68.9" r="1.7"/>
		<circle class="st27" cx="48.2" cy="90.3" r="1.7"/>
		<path class="st34" d="M76,81.6c0.4,1.1,1.5,1.8,2.7,1.5l4.9-1.1c0.7,1,1.6,2,2.5,2.8l-1.8,4.7c-0.4,1.1,0,2.3,1.1,2.9l6,3
			c1,0.5,2.3,0.2,2.9-0.8l2.6-4.3c1.2,0.2,2.5,0.3,3.8,0.3l2,4.6c0.5,1.1,1.7,1.6,2.8,1.2l6.4-2.1c1.1-0.4,1.8-1.5,1.5-2.7l-1.1-4.9
			c1-0.7,2-1.6,2.8-2.5l4.7,1.8c1.1,0.4,2.3,0,2.9-1.1l3-6c0.5-1,0.2-2.3-0.8-2.9l-4.3-2.6c0.2-1.2,0.3-2.5,0.3-3.8l4.6-2
			c1.1-0.5,1.6-1.7,1.2-2.8l-2.1-6.4c-0.4-1.1-1.5-1.8-2.7-1.5l-4.9,1.1c-0.7-1-1.6-2-2.5-2.8l1.8-4.7c0.4-1.1,0-2.3-1.1-2.9l-6-3
			c-1-0.5-2.3-0.2-2.9,0.8l-2.6,4.3c-1.2-0.2-2.5-0.3-3.8-0.3l-2-4.6c-0.5-1.1-1.7-1.6-2.8-1.2l-6.4,2.1c-1.1,0.4-1.8,1.5-1.5,2.7
			l1.1,4.9c-1,0.7-2,1.6-2.8,2.5L80.8,54c-1.1-0.4-2.3,0-2.9,1.1l-3,6c-0.5,1-0.2,2.3,0.8,2.9l4.3,2.6c-0.2,1.2-0.3,2.5-0.3,3.8
			l-4.6,2c-1.1,0.5-1.6,1.7-1.2,2.8L76,81.6L76,81.6z M91.1,73L91.1,73c-1.7-5,1-10.5,6.1-12.2s10.5,1,12.2,6.1
			c1.7,5-1,10.5-6.1,12.2C98.2,80.8,92.8,78.1,91.1,73z"/>
		<path class="st35" d="M109.1,44.7l6,3c1,0.5,1.5,1.8,1.1,2.9l-1.8,4.7c-3-2.9-6.8-4.7-10.8-5.4l2.6-4.3
			C106.8,44.5,108.1,44.1,109.1,44.7L109.1,44.7z"/>
		<path class="st35" d="M120.4,73.3l4.3,2.6c1,0.6,1.4,1.9,0.8,2.9l-3,6c-0.5,1-1.8,1.5-2.9,1.1l-4.7-1.8
			C117.9,81.2,119.8,77.4,120.4,73.3z"/>
		<path class="st35" d="M119.7,63.5c-0.6-2-1.6-3.8-2.8-5.5l4.9-1.1c1.1-0.3,2.3,0.4,2.7,1.5l2.1,6.4c0.4,1.1-0.2,2.3-1.2,2.8
			l-4.6,2C120.7,67.5,120.3,65.5,119.7,63.5L119.7,63.5z"/>
		<path class="st35" d="M88.4,73.9L88.4,73.9c2.2,6.5,9.2,10.1,15.8,7.9c6.5-2.2,10.1-9.2,7.9-15.8s-9.2-10.1-15.8-7.9
			C89.8,60.3,86.3,67.4,88.4,73.9z M94.9,71.8c-1-3,0.6-6.2,3.6-7.2c3-1,6.2,0.6,7.2,3.6c1,3-0.6,6.2-3.6,7.2
			C99.1,76.3,95.9,74.7,94.9,71.8z"/>
		<path class="st36" d="M17.9,33.3l14.8,44.3l-1.2,10.9c-0.1,0.6-0.6,1.1-1.3,1c-0.3,0-0.5-0.2-0.7-0.3l-7.5-8L7.2,36.9L17.9,33.3z"
			/>
		<path class="st37" d="M5,30.4l10.7-3.6l-1.4-4.3c-1-3-4.2-4.6-7.2-3.6s-4.6,4.2-3.6,7.2L5,30.4z"/>
		<path class="st38" d="M15.8,26.8L5,30.4l2.1,6.4l10.7-3.6L15.8,26.8z"/>
		<path class="st39" d="M15.8,26.8l-4.3,1.4l2.1,6.4l4.3-1.4L15.8,26.8z"/>
		<path class="st40" d="M27.5,87.1l2,2.1c0.4,0.5,1.1,0.5,1.6,0c0.2-0.2,0.3-0.4,0.3-0.7l1.3-10.9L17.9,33.3l-4.3,1.4l14.8,44.3
			L27.5,87.1z"/>
		<path class="st41" d="M8.3,18.7l3.2,9.6l4.3-1.4l-1.4-4.3C13.5,20,11,18.4,8.3,18.7z"/>
		<g>
			<path class="st1" d="M100.2,56.4c-1.5,0-2.9,0.2-4.3,0.7c-2.6,0.9-4.9,2.5-6.6,4.7c-0.2,0.2-0.2,0.5-0.2,0.8
				c0,0.3,0.2,0.5,0.4,0.7c0.2,0.2,0.5,0.2,0.7,0.2c0.3,0,0.7-0.2,0.9-0.4c2.2-2.9,5.5-4.5,9.1-4.5c2.5,0,4.8,0.8,6.8,2.3
				c2.4,1.8,4,4.5,4.4,7.5c0.4,3-0.3,6-2.2,8.4c-2.2,2.9-5.5,4.5-9.1,4.5c-2.5,0-4.8-0.8-6.8-2.3c-3.6-2.7-5.3-7.3-4.2-11.7
				c0.1-0.3,0-0.6-0.1-0.8c-0.2-0.2-0.4-0.4-0.7-0.5c-0.6-0.1-1.2,0.2-1.3,0.8c-1.7,7.3,2.8,14.6,10.1,16.3c1,0.2,2.1,0.4,3.1,0.4
				c1.5,0,2.9-0.2,4.3-0.7c3.4-1.1,6.2-3.6,7.8-6.8c1.6-3.2,1.9-6.9,0.7-10.3C111.3,60.2,106.1,56.4,100.2,56.4z"/>
			<path class="st1" d="M100.2,76.7c0.7,0,1.4-0.1,2.1-0.3c1.7-0.6,3.1-1.8,3.9-3.4c0.8-1.6,0.9-3.4,0.4-5.2
				c-0.9-2.8-3.5-4.6-6.4-4.6c-0.7,0-1.4,0.1-2.1,0.3c-1.7,0.6-3.1,1.8-3.9,3.4c-0.8,1.6-0.9,3.4-0.4,5.2
				C94.8,74.9,97.3,76.7,100.2,76.7z M100.2,65.4c2,0,3.7,1.3,4.3,3.1c0.4,1.2,0.3,2.4-0.2,3.5c-0.5,1.1-1.5,1.9-2.6,2.3
				c-0.5,0.2-1,0.2-1.4,0.2c-2,0-3.7-1.3-4.3-3.1c-0.8-2.4,0.5-5,2.9-5.8C99.3,65.5,99.7,65.4,100.2,65.4z"/>
			<path class="st1" d="M125.3,75l-3.7-2.3l0-0.4c0.1-0.6,0.1-1.1,0.1-1.7l0-0.4l3.9-1.7c1.6-0.7,2.4-2.5,1.8-4.1l-2.1-6.4
				c-0.5-1.4-1.7-2.3-3.2-2.3c-0.3,0-0.5,0-0.8,0.1l-4.2,1l-0.2-0.3c-0.4-0.4-0.7-0.9-1.1-1.3l-0.3-0.3l1.6-4
				c0.6-1.6-0.1-3.5-1.6-4.2l-6-3c-0.5-0.2-1-0.4-1.5-0.4c-1.2,0-2.2,0.6-2.8,1.6l-2.3,3.7l-0.4,0c-0.6-0.1-1.1-0.1-1.7-0.1l-0.4,0
				l-1.7-3.9c-0.5-1.2-1.7-2-3.1-2c-0.4,0-0.7,0.1-1.1,0.2l-6.4,2.1c-1.6,0.5-2.6,2.3-2.2,3.9l1,4.2l-0.3,0.2
				c-0.4,0.4-0.9,0.7-1.3,1.1l-0.3,0.3l-4-1.6c-0.4-0.2-0.8-0.2-1.2-0.2c-1.3,0-2.4,0.7-3,1.9l-3,6c-0.8,1.5-0.2,3.5,1.2,4.4
				l3.7,2.3l0,0.4c-0.1,0.6-0.1,1.2-0.1,1.7l0,0.4l-3.9,1.7c-1.6,0.7-2.4,2.5-1.8,4.1l2.1,6.4c0.5,1.4,1.7,2.3,3.2,2.3
				c0.3,0,0.5,0,0.8-0.1l4.2-1l0.2,0.3c0.4,0.4,0.7,0.9,1.1,1.3l0.3,0.3l-1.6,4C83.1,89.3,83,89.7,83,90l0,0.4l-42.5,14.2
				c-0.4,0.1-0.7,0.2-1.1,0.2c-1.5,0-2.8-0.9-3.3-2.4l-2.7-8.1c-0.2-0.6-0.8-0.9-1.4-0.7c-0.3,0.1-0.5,0.3-0.6,0.5
				c-0.1,0.3-0.2,0.6-0.1,0.8l2.7,8.1c0.8,2.3,2.9,3.8,5.3,3.8c0.6,0,1.2-0.1,1.8-0.3l42.6-14.2l0.3,0.3c0.2,0.2,0.5,0.4,0.8,0.6
				l6,3c0.5,0.2,1,0.4,1.5,0.4c1.2,0,2.2-0.6,2.8-1.6l2.3-3.7l0.4,0c0.6,0.1,1.1,0.1,1.7,0.1l0.4,0l1.7,3.9c0.5,1.2,1.7,2,3.1,2
				c0.4,0,0.7-0.1,1.1-0.2l6.4-2.1c1.6-0.5,2.6-2.3,2.2-3.9l-1-4.2l0.3-0.2c0.4-0.4,0.9-0.7,1.3-1.1l0.3-0.3l4,1.6
				c0.4,0.2,0.8,0.2,1.2,0.2c1.3,0,2.4-0.7,3-1.9l3-6C127.3,77.8,126.8,75.9,125.3,75z M111.5,85.7c-0.4,0.3-0.5,0.7-0.4,1.1
				l1.1,4.9c0.1,0.6-0.2,1.2-0.8,1.4l-6.4,2.1c-0.5,0.2-1.2-0.1-1.4-0.6l-2-4.6c-0.2-0.4-0.6-0.7-1-0.7l-0.4,0
				c-1.1,0-2.1-0.1-3.2-0.3c-0.4-0.1-0.9,0.1-1.1,0.5l-2.6,4.3c-0.3,0.5-1,0.7-1.5,0.4l-6-3c-0.5-0.3-0.8-0.9-0.6-1.5l1.8-4.7
				c0.2-0.4,0.1-0.9-0.3-1.2c-0.9-0.8-1.6-1.7-2.3-2.7c-0.3-0.4-0.7-0.5-1.1-0.4L78.5,82c-0.6,0.1-1.2-0.2-1.4-0.8L75,74.9
				c-0.2-0.6,0.1-1.2,0.6-1.5l4.6-2c0.4-0.2,0.7-0.6,0.7-1c0-1.2,0.1-2.4,0.3-3.6c0.1-0.4-0.1-0.9-0.5-1.1l-4.3-2.6
				c-0.5-0.3-0.7-1-0.4-1.5l3-6c0.3-0.5,0.9-0.8,1.5-0.6l4.7,1.8c0.4,0.2,0.9,0.1,1.2-0.3c0.8-0.9,1.7-1.6,2.7-2.3
				c0.4-0.3,0.5-0.7,0.4-1.1l-1.1-4.9c-0.1-0.6,0.2-1.2,0.8-1.4l6.4-2.1c0.6-0.2,1.2,0.1,1.5,0.6l2,4.6c0.2,0.4,0.6,0.7,1,0.7l0.4,0
				c1.1,0,2.1,0.1,3.2,0.3c0.4,0.1,0.9-0.1,1.1-0.5l2.6-4.3c0.3-0.5,1-0.7,1.5-0.4l6,3c0.5,0.3,0.8,0.9,0.6,1.5l-1.8,4.7
				c-0.2,0.4-0.1,0.9,0.3,1.2c0.9,0.8,1.6,1.7,2.3,2.7c0.3,0.4,0.7,0.5,1.1,0.4L122,58c0.6-0.1,1.2,0.2,1.4,0.8l2.1,6.4
				c0.2,0.6-0.1,1.2-0.6,1.5l-4.6,2c-0.4,0.2-0.7,0.6-0.7,1c0,1.2-0.1,2.4-0.3,3.6c-0.1,0.4,0.1,0.9,0.5,1.1l4.3,2.6
				c0.5,0.3,0.7,1,0.4,1.5l-3,6c-0.3,0.5-0.9,0.8-1.5,0.6l-4.7-1.8c-0.1,0-0.3-0.1-0.4-0.1c-0.3,0-0.6,0.1-0.8,0.3
				C113.4,84.2,112.5,85,111.5,85.7z"/>
			<path class="st1" d="M35.2,35.5c-0.4-1.1-1.7-1.8-2.8-1.4l-5.4,1.8c-1.2,0.4-1.8,1.6-1.4,2.8l8.7,26c0.3,0.9,1.2,1.5,2.1,1.5
				c0.2,0,0.5,0,0.7-0.1l27.9-9.3c1.2-0.4,1.8-1.7,1.4-2.8l-3-9c-0.3-0.9-1.2-1.5-2.1-1.5c-0.2,0-0.5,0-0.7,0.1l-5.4,1.8l-1.2-3.5
				c-0.3-0.9-1.2-1.5-2.1-1.5c-0.2,0-0.5,0-0.7,0.1l-5.4,1.8l-1.2-3.7c-0.4-1.1-1.7-1.8-2.8-1.4L36.4,39L35.2,35.5z M55.9,47.4
				l5.5-1.8l3,9.1L59,56.5L55.9,47.4z M46.5,44.3l5.5-1.8l4.9,14.7L51.4,59L46.5,44.3z M33.2,36.1l8.7,26.1L36.4,64L27.7,38
				L33.2,36.1z M37.1,41l5.5-1.8l6.8,20.5l-5.5,1.8L37.1,41z"/>
			<path class="st1" d="M21.1,24.8c-0.3,0.1-0.5,0.3-0.6,0.5c-0.1,0.3-0.2,0.6-0.1,0.8c0.1,0.4,0.6,0.7,1,0.7c0.1,0,0.2,0,0.3-0.1
				c0.3-0.1,0.5-0.3,0.6-0.5c0.1-0.3,0.2-0.6,0.1-0.8C22.3,24.9,21.7,24.6,21.1,24.8z"/>
			<path class="st1" d="M38.5,21.3c0.1,0,0.2,0,0.3-0.1c0.3-0.1,0.5-0.3,0.6-0.5c0.1-0.3,0.2-0.6,0.1-0.8c-0.2-0.6-0.8-0.9-1.4-0.7
				c-0.3,0.1-0.5,0.3-0.6,0.5c-0.1,0.3-0.2,0.6-0.1,0.8C37.6,21,38,21.3,38.5,21.3z"/>
			<path class="st1" d="M55.4,15.6c0.1,0,0.2,0,0.3-0.1c0.3-0.1,0.5-0.3,0.6-0.5c0.1-0.3,0.2-0.6,0.1-0.8c-0.2-0.6-0.8-0.9-1.4-0.7
				c-0.3,0.1-0.5,0.3-0.6,0.5c-0.1,0.3-0.2,0.6-0.1,0.8C54.5,15.3,55,15.6,55.4,15.6z"/>
			<path class="st1" d="M72.4,9.9c0.1,0,0.2,0,0.3-0.1c0.3-0.1,0.5-0.3,0.6-0.5c0.1-0.3,0.2-0.6,0.1-0.8c-0.2-0.6-0.8-0.9-1.4-0.7
				c-0.3,0.1-0.5,0.3-0.6,0.5c-0.1,0.3-0.2,0.6-0.1,0.8C71.5,9.6,71.9,9.9,72.4,9.9z"/>
			<path class="st1" d="M92.6,29.2c-0.2-0.6-0.8-0.9-1.4-0.7l-23.6,7.9c-0.6,0.2-0.9,0.8-0.7,1.4c0.1,0.4,0.6,0.7,1,0.7
				c0.1,0,0.2,0,0.3-0.1l23.6-7.9C92.5,30.4,92.8,29.8,92.6,29.2z"/>
			<path class="st1" d="M84.9,38.8l-8.4,2.8c-0.3,0.1-0.5,0.3-0.6,0.5c-0.1,0.3-0.2,0.6-0.1,0.8c0.1,0.4,0.6,0.7,1,0.7
				c0.1,0,0.2,0,0.3-0.1l8.4-2.8c0.6-0.2,0.9-0.8,0.7-1.4C86.1,38.9,85.5,38.6,84.9,38.8z"/>
			<path class="st1" d="M90.2,39.2c0.1,0,0.2,0,0.3-0.1l3.8-1.3c0.6-0.2,0.9-0.8,0.7-1.4c-0.2-0.6-0.8-0.9-1.4-0.7l-3.8,1.3
				c-0.6,0.2-0.9,0.8-0.7,1.4C89.3,38.9,89.7,39.2,90.2,39.2z"/>
			<path class="st1" d="M64.4,30.5c0.1,0.4,0.6,0.7,1,0.7c0.1,0,0.2,0,0.3-0.1l17.6-5.9c0.6-0.2,0.9-0.8,0.7-1.4
				c-0.2-0.6-0.8-0.9-1.4-0.7l-17.6,5.9C64.6,29.3,64.2,29.9,64.4,30.5z"/>
			<path class="st1" d="M87.5,23.9c0.1,0,0.2,0,0.3-0.1c0.6-0.2,0.9-0.8,0.7-1.4c-0.2-0.6-0.8-0.9-1.4-0.7c-0.3,0.1-0.5,0.3-0.6,0.5
				c-0.1,0.3-0.2,0.6-0.1,0.8C86.6,23.6,87,23.9,87.5,23.9z"/>
			<path class="st1" d="M72.3,45.3c0.3-0.1,0.5-0.3,0.6-0.5c0.1-0.3,0.2-0.6,0.1-0.8c-0.2-0.6-0.8-0.9-1.4-0.7
				c-0.3,0.1-0.5,0.3-0.6,0.5c-0.1,0.3-0.2,0.6-0.1,0.8c0.1,0.4,0.6,0.7,1,0.7C72.1,45.3,72.2,45.3,72.3,45.3z"/>
			<path class="st1" d="M68.7,76.1c0.1-0.3,0.2-0.6,0.1-0.8c-0.2-0.6-0.8-0.9-1.4-0.7l-23.6,7.9c-0.6,0.2-0.9,0.8-0.7,1.4
				c0.1,0.4,0.6,0.7,1,0.7c0.1,0,0.2,0,0.3-0.1l23.6-7.9C68.4,76.6,68.6,76.4,68.7,76.1z"/>
			<path class="st1" d="M61.1,84.9l-8.4,2.8c-0.3,0.1-0.5,0.3-0.6,0.5c-0.1,0.3-0.2,0.6-0.1,0.8c0.1,0.4,0.6,0.7,1,0.7
				c0.1,0,0.2,0,0.3-0.1l8.4-2.8c0.3-0.1,0.5-0.3,0.6-0.5c0.1-0.3,0.2-0.6,0.1-0.8C62.3,85,61.7,84.7,61.1,84.9z"/>
			<path class="st1" d="M66.4,85.3c0.1,0,0.2,0,0.3-0.1l3.8-1.3c0.3-0.1,0.5-0.3,0.6-0.5c0.1-0.3,0.2-0.6,0.1-0.8
				c-0.2-0.6-0.8-0.9-1.4-0.7l-3.8,1.3c-0.3,0.1-0.5,0.3-0.6,0.5c-0.1,0.3-0.2,0.6-0.1,0.8C65.6,85,66,85.3,66.4,85.3z"/>
			<path class="st1" d="M41.7,77.3c0.1,0,0.2,0,0.3-0.1l17.6-5.9c0.3-0.1,0.5-0.3,0.6-0.5c0.1-0.3,0.2-0.6,0.1-0.8
				c-0.2-0.6-0.8-0.9-1.4-0.7l-17.6,5.9c-0.6,0.2-0.9,0.8-0.7,1.4C40.8,77,41.2,77.3,41.7,77.3z"/>
			<path class="st1" d="M63.4,67.9c-0.3,0.1-0.5,0.3-0.6,0.5c-0.1,0.3-0.2,0.6-0.1,0.8c0.1,0.4,0.6,0.7,1,0.7c0.1,0,0.2,0,0.3-0.1
				c0.3-0.1,0.5-0.3,0.6-0.5c0.1-0.3,0.2-0.6,0.1-0.8C64.6,68,63.9,67.7,63.4,67.9z"/>
			<path class="st1" d="M47.8,89.3c-0.3,0.1-0.5,0.3-0.6,0.5c-0.1,0.3-0.2,0.6-0.1,0.8c0.1,0.4,0.6,0.7,1,0.7c0.1,0,0.2,0,0.3-0.1
				c0.3-0.1,0.5-0.3,0.6-0.5c0.1-0.3,0.2-0.6,0.1-0.8C49,89.4,48.4,89.1,47.8,89.3z"/>
			<path class="st1" d="M32.5,88.7l1.3-10.9c0-0.2,0-0.3-0.1-0.5L15.5,22.5L75.7,2.5l3.2,9.7c0.8,2.3,2.9,3.8,5.3,3.8
				c0.6,0,1.2-0.1,1.8-0.3l9.7-3.2l9.2,27.6c0.2,0.6,0.8,0.9,1.4,0.7c0.3-0.1,0.5-0.3,0.6-0.5c0.1-0.3,0.2-0.6,0.1-0.8l-9.6-28.7
				c-0.1-0.3-0.3-0.5-0.5-0.6l-20.1-10C76.6,0,76.3,0,76,0.1L14.6,20.5l-0.3-0.3c-1.3-1.7-3.2-2.6-5.3-2.6c-0.7,0-1.4,0.1-2.1,0.3
				c-3.5,1.2-5.4,5-4.3,8.5l18.4,55.1c0.1,0.2,0.1,0.3,0.2,0.4l7.5,8c0.4,0.4,0.8,0.6,1.4,0.7c0.1,0,0.2,0,0.3,0
				C31.5,90.6,32.4,89.8,32.5,88.7z M22.9,80.6L8.6,37.6l8.7-2.9l14.4,43.1l-1.2,10.8L22.9,80.6z M15.1,28.2l1.5,4.4l-8.7,2.9
				l-1.5-4.4L15.1,28.2z M14.4,26.2L5.7,29l-1.1-3.3c-0.8-2.4,0.5-5,2.9-5.8c0.5-0.2,1-0.2,1.4-0.2c2,0,3.7,1.3,4.3,3.1L14.4,26.2z
				 M78.2,3.2l15.4,7.7l-8.2,2.7c-0.4,0.1-0.7,0.2-1.1,0.2c-1.5,0-2.8-0.9-3.3-2.4L78.2,3.2z"/>
		</g>
	</g>
</g>
</svg>
