<?xml version="1.0" encoding="utf-8"?>
<!-- Generator: Adobe Illustrator 25.0.0, SVG Export Plug-In . SVG Version: 6.00 Build 0)  -->
<svg version="1.1" id="Layer_1" xmlns="http://www.w3.org/2000/svg" xmlns:xlink="http://www.w3.org/1999/xlink" x="0px" y="0px"
	 viewBox="0 0 192.4 110" style="enable-background:new 0 0 192.4 110;" xml:space="preserve">
<style type="text/css">
	.st0{fill:#F6C560;}
	.st1{opacity:4.000000e-02;}
	.st2{fill:#35414D;}
	.st3{fill:#FF6666;}
	.st4{fill:#A3BECC;}
	.st5{fill:#6CD8D5;}
	.st6{fill:#91DC5A;}
	.st7{fill:#29589F;}
	.st8{fill:#FC657E;}
	.st9{fill:#DAE6F1;}
	.st10{fill:#5290DB;}
	.st11{fill:#70D6F9;}
	.st12{fill:#F5C84C;}
	.st13{fill:#87D147;}
</style>
<g>
	<g>
		<g>
			<g>
				<g>
					<path class="st0" d="M163.7,8.4v90.5c0,3.6-2.7,6.4-5.7,6.4H8c-3.4,0-5.7-2.9-5.7-6.4V8.4c0-3.6,2.7-6.1,5.7-6.1h149.7
						C161,2.4,163.7,5.2,163.7,8.4L163.7,8.4z"/>
				</g>
				<g class="st1">
					<path d="M163.7,8.4v90.5c0,3.6-2.7,6.4-5.7,6.4H8c-3,0-5.7-2.9-5.7-6.4v-7.1h57.5c48.1,0,87.8-39.5,91.1-89.8h7.1
						C161,2.4,163.7,5.2,163.7,8.4L163.7,8.4z"/>
				</g>
			</g>
			<path class="st2" d="M8,107.7c-4.5,0-8-3.9-8-8.8V8.4C0,3.8,3.6,0,8,0h149.7c2.4,0,4.8,1,5.9,2.4c1.3,1.7,2.1,4,2.1,6v90.5
				c0,4.9-3.5,8.8-8,8.8H8z M4.5,98.9c0,2,1.4,4,3.5,4h149.7c2.3,0,3.8-1.6,3.8-4V7.6L90,60.5c-2.3,1.8-4.8,2.6-7.4,2.6
				c-2.5,0-5.2-1-7.4-2.6L4.5,7.6V98.9z M77.7,56.8c1.5,1,3.2,1.5,5,1.5c1.8,0,3.5-0.5,5-1.5l69.9-52.1h-17.8l-0.1,0.1
				c-1.1,0.1-5.8,0.2-23.1,0.2c0,0,0,0,0,0C90.1,5.1,50.4,4.8,50,4.8H7.8L77.7,56.8z"/>
		</g>
		<polygon class="st0" points="53,48 60.5,39.3 74.1,49.8 79.8,53.7 106.5,40.4 111.8,49.3 102.3,56.7 87.1,69.5 63.2,56.7 		"/>
		<g>
			<g>
				<path class="st2" d="M111.1,50.9c-0.5-1.2-1.1-2.3-1.8-3.4c-0.5-0.8-1.1-1.5-1.8-2.2c-0.5-0.5-1-0.9-1.6-1.3
					c-0.5-0.4-1.1-0.8-1.7-1.1c-0.6-0.3-1.2-0.6-1.8-0.8c-0.3-0.1-0.6-0.2-0.8-0.3c-0.3-0.1-0.6-0.1-0.9-0.2c-0.3-0.1-0.7-0.1-1-0.1
					c-0.1,0-0.1,0-0.2,0c-0.1,0-0.1,0-0.2,0c-0.2,0-0.4,0-0.6,0c0,0,0,0,0,0c0,0-0.1,0-0.2,0c-0.9,0-4.8,0.1-7.7,2.7
					c-0.2,0.2-0.5,0.5-0.7,0.7c-0.8,0.8-1.7,1.8-2.6,2.9c-2.4,3-4.2,5.9-4.2,5.9c0,0,0,0,0,0c-1.9-2.8-4.1-6-6.9-8.8
					c-0.3-0.3-0.6-0.6-0.9-0.9c-0.5-0.4-1.1-0.8-1.8-1.1c-0.1,0-0.2-0.1-0.3-0.1c-0.6-0.3-1.2-0.5-1.9-0.7c-0.5-0.2-1.1-0.3-1.6-0.4
					c-0.4-0.1-0.8-0.1-1.3-0.1c-0.2,0-0.5,0-0.7,0c-0.1,0-0.1,0-0.2,0c-0.4,0-0.9,0-1.3,0.1c-0.4,0.1-0.9,0.1-1.3,0.3
					c-0.4,0.1-0.9,0.2-1.3,0.4c-0.4,0.2-0.8,0.3-1.2,0.5c-0.4,0.2-0.8,0.4-1.2,0.7c-0.4,0.2-0.7,0.5-1.1,0.8c-0.4,0.3-0.7,0.6-1,0.9
					c-0.2,0.2-0.3,0.3-0.5,0.5c-0.2,0.2-0.4,0.5-0.6,0.7c-0.1,0.1-0.2,0.2-0.3,0.3c0,0.1-0.1,0.1-0.1,0.2c0,0,0,0.1-0.1,0.1
					c0,0-0.1,0.1-0.1,0.1c-0.1,0.2-0.3,0.3-0.4,0.5c-0.2,0.3-0.5,0.7-0.7,1.1c-0.2,0.4-0.5,0.9-0.7,1.3c-0.1,0.2-0.2,0.5-0.3,0.7
					c0,0,0,0,0,0.1c-0.1,0.2-0.2,0.4-0.3,0.7c0,0,0,0.1,0,0.1c-0.1,0.2-0.2,0.4-0.2,0.7c0,0,0,0.1,0,0.1c-0.1,0.3-0.2,0.6-0.3,0.9
					c-0.1,0.2-0.1,0.4-0.2,0.7c0,0,0,0,0,0c-0.1,0.2-0.1,0.4-0.1,0.7c0,0,0,0.1,0,0.1c-1.1,5.3-0.9,12.8,5.9,18.9
					c0.2,0.2,0.5,0.4,0.8,0.6c0.3,0.2,0.5,0.4,0.8,0.5c0.3,0.2,0.5,0.3,0.8,0.4c0.3,0.1,0.5,0.2,0.8,0.3c0.3,0.1,0.5,0.2,0.8,0.3
					c0.2,0.1,0.5,0.1,0.7,0.2c0.7,0.2,1.4,0.3,2.1,0.3c0.7,0,1.4,0,2.1-0.1c0.6-0.1,1.2-0.2,1.8-0.3c0.2-0.1,0.5-0.1,0.7-0.2
					c0.2-0.1,0.5-0.1,0.7-0.2c0.2-0.1,0.5-0.2,0.7-0.3c0.2-0.1,0.5-0.2,0.7-0.3c0.2-0.1,0.5-0.3,0.7-0.4c0.2-0.1,0.5-0.3,0.7-0.5
					c0.2-0.2,0.5-0.4,0.7-0.6c0.1-0.1,0.2-0.2,0.3-0.2c0.1-0.1,0.2-0.2,0.2-0.3c1.6-1.5,4.8-5.8,6.9-8.9c0,0.1,0.7,1,0.7,1.1
					c0.3,0.4,0.6,0.8,0.8,1.2c0.4,0.7,1,1.3,1.4,2c1,1.3,2,2.7,3.2,3.9c0.8,0.8,1.7,1.5,2.6,2.1c2.9,1.8,6.5,2.3,9.7,1.5
					c0.7-0.2,1.3-0.4,2-0.7c2.1-0.9,3.9-2.6,5.3-4.5c3.2-4.5,4.3-10.2,3.2-15.7C112,53.5,111.6,52.2,111.1,50.9z M73.1,67.6
					c-0.2,0.1-0.3,0.3-0.5,0.4c-0.1,0.1-0.2,0.2-0.4,0.3c-1.1,0.7-2.4,1.1-3.7,1.2c-1,0.1-2,0-2.9-0.2c-0.1,0-0.3-0.1-0.4-0.1
					c-0.1,0-0.2-0.1-0.3-0.1c-0.2-0.1-0.3-0.2-0.5-0.2c-0.2-0.1-0.3-0.2-0.5-0.3c-0.2-0.1-0.3-0.2-0.5-0.3c-0.2-0.1-0.3-0.2-0.4-0.3
					c-0.1-0.1-0.3-0.2-0.4-0.4c-0.1-0.1-0.3-0.3-0.4-0.4c-0.1-0.1-0.3-0.3-0.4-0.4c-0.1-0.1-0.2-0.3-0.4-0.5
					c-0.1-0.2-0.2-0.3-0.3-0.5c-0.1-0.2-0.2-0.3-0.3-0.5c-0.1-0.2-0.2-0.4-0.3-0.5c-0.1-0.2-0.2-0.4-0.3-0.6
					c-0.1-0.2-0.2-0.4-0.2-0.6c-0.1-0.2-0.1-0.4-0.2-0.6c-0.1-0.2-0.1-0.4-0.2-0.6c-0.1-0.2-0.1-0.4-0.2-0.6c0-0.2-0.1-0.4-0.1-0.6
					c0-0.2-0.1-0.4-0.1-0.7c0-0.2,0-0.4-0.1-0.7c0-0.2,0-0.5,0-0.7c0-0.1,0-0.2,0-0.3c0-6.8,6.1-13.9,13-9.5c1.1,0.7,2,1.6,2.8,2.6
					c1.7,2.2,3.4,4.5,4.9,6.9c-0.8,1.2-1.6,2.4-2.4,3.5c-0.7,1-1.4,1.9-2.1,2.8C74.6,66,73.9,66.9,73.1,67.6z M102.6,68.4
					c-1.2,0.7-2.4,1-3.3,1.1c-0.8,0.1-1.7,0.1-2.5-0.1c-0.8-0.2-1.6-0.5-2.3-0.9c-0.7-0.5-1.4-1.1-2-1.7c-0.5-0.5-0.9-1.1-1.4-1.6
					c-0.5-0.6-1-1.3-1.5-1.9c-0.5-0.8-1.1-1.5-1.6-2.3c-0.1-0.2-0.2-0.3-0.3-0.5c-0.3-0.5-0.7-1-1-1.6c1.9-2.9,3.9-5.9,6.3-8.4
					c0.9-0.9,1.9-1.6,3.1-1.9l0,0c1.7-0.5,3.7-0.6,5.4,0.2c1.2,0.5,2.2,1.3,3.1,2.3c1.8,2.1,2.7,5,2.7,7.9
					C107.3,63,105.4,66.7,102.6,68.4z"/>
			</g>
			<path class="st3" d="M110.3,48.8c-0.5-1.2-1.1-2.3-1.8-3.4c-0.5-0.8-1.1-1.5-1.8-2.2c-0.5-0.5-1-0.9-1.6-1.3
				c-0.5-0.4-1.1-0.8-1.7-1.1c-0.6-0.3-1.2-0.6-1.8-0.8c-0.3-0.1-0.6-0.2-0.8-0.3c-0.3-0.1-0.6-0.1-0.9-0.2c-0.3-0.1-0.7-0.1-1-0.1
				c-0.1,0-0.1,0-0.2,0c-0.1,0-0.1,0-0.2,0c-0.2,0-0.4,0-0.6,0c0,0,0,0,0,0c0,0-0.1,0-0.2,0c-0.9,0-4.8,0.1-7.7,2.7
				c-0.2,0.2-0.5,0.5-0.7,0.7c-0.8,0.8-1.7,1.8-2.6,2.9c-2.4,3-4.2,5.9-4.2,5.9c0,0,0,0,0,0c-1.9-2.8-4.1-6-6.9-8.8
				c-0.3-0.3-0.6-0.6-0.9-0.9c-0.5-0.4-1.1-0.8-1.8-1.1c-0.1,0-0.2-0.1-0.3-0.1c-0.6-0.3-1.2-0.5-1.9-0.7c-0.5-0.2-1.1-0.3-1.6-0.4
				c-0.4-0.1-0.8-0.1-1.3-0.1c-0.2,0-0.5,0-0.7,0c-0.1,0-0.1,0-0.2,0c-0.4,0-0.9,0-1.3,0.1c-0.4,0.1-0.9,0.1-1.3,0.3
				c-0.4,0.1-0.9,0.2-1.3,0.4c-0.4,0.2-0.8,0.3-1.2,0.5c-0.4,0.2-0.8,0.4-1.2,0.7c-0.4,0.2-0.7,0.5-1.1,0.8c-0.4,0.3-0.7,0.6-1,0.9
				c-0.2,0.2-0.3,0.3-0.5,0.5c-0.2,0.2-0.4,0.5-0.6,0.7c-0.1,0.1-0.2,0.2-0.3,0.3c0,0.1-0.1,0.1-0.1,0.2c0,0,0,0.1-0.1,0.1
				c0,0-0.1,0.1-0.1,0.1c-0.1,0.2-0.3,0.3-0.4,0.5c-0.2,0.3-0.5,0.7-0.7,1.1c-0.2,0.4-0.5,0.9-0.7,1.3c-0.1,0.2-0.2,0.5-0.3,0.7
				c0,0,0,0,0,0.1c-0.1,0.2-0.2,0.4-0.3,0.7c0,0,0,0.1,0,0.1c-0.1,0.2-0.2,0.4-0.2,0.7c0,0,0,0.1,0,0.1c-0.1,0.3-0.2,0.6-0.3,0.9
				c-0.1,0.2-0.1,0.4-0.2,0.7c0,0,0,0,0,0c-0.1,0.2-0.1,0.4-0.1,0.7c0,0,0,0.1,0,0.1c-1.1,5.3-0.9,12.8,5.9,18.9
				c0.2,0.2,0.5,0.4,0.8,0.6c0.3,0.2,0.5,0.4,0.8,0.5c0.3,0.2,0.5,0.3,0.8,0.4c0.3,0.1,0.5,0.2,0.8,0.3c0.3,0.1,0.5,0.2,0.8,0.3
				c0.2,0.1,0.5,0.1,0.7,0.2c0.7,0.2,1.4,0.3,2.1,0.3c0.7,0,1.4,0,2.1-0.1c0.6-0.1,1.2-0.2,1.8-0.3c0.2-0.1,0.5-0.1,0.7-0.2
				c0.2-0.1,0.5-0.1,0.7-0.2c0.2-0.1,0.5-0.2,0.7-0.3c0.2-0.1,0.5-0.2,0.7-0.3c0.2-0.1,0.5-0.3,0.7-0.4c0.2-0.1,0.5-0.3,0.7-0.5
				c0.2-0.2,0.5-0.4,0.7-0.6c0.1-0.1,0.2-0.2,0.3-0.2c0.1-0.1,0.2-0.2,0.2-0.3c1.6-1.5,4.8-5.8,6.9-8.9c0,0.1,0.7,1,0.7,1.1
				c0.3,0.4,0.6,0.8,0.8,1.2c0.4,0.7,1,1.3,1.4,2c1,1.3,2,2.7,3.2,3.9c0.8,0.8,1.7,1.5,2.6,2.1c2.9,1.8,6.5,2.3,9.7,1.5
				c0.7-0.2,1.3-0.4,2-0.7c2.1-0.9,3.9-2.6,5.3-4.5c3.2-4.5,4.3-10.2,3.2-15.7C111.2,51.3,110.8,50,110.3,48.8z M72.4,65.4
				c-0.2,0.1-0.3,0.3-0.5,0.4c-0.1,0.1-0.2,0.2-0.4,0.3c-1.1,0.7-2.4,1.1-3.7,1.2c-1,0.1-2,0-2.9-0.2c-0.1,0-0.3-0.1-0.4-0.1
				c-0.1,0-0.2-0.1-0.3-0.1c-0.2-0.1-0.3-0.2-0.5-0.2c-0.2-0.1-0.3-0.2-0.5-0.3c-0.2-0.1-0.3-0.2-0.5-0.3c-0.2-0.1-0.3-0.2-0.4-0.3
				c-0.1-0.1-0.3-0.2-0.4-0.4c-0.1-0.1-0.3-0.3-0.4-0.4c-0.1-0.1-0.3-0.3-0.4-0.4c-0.1-0.1-0.2-0.3-0.4-0.5
				c-0.1-0.2-0.2-0.3-0.3-0.5c-0.1-0.2-0.2-0.3-0.3-0.5c-0.1-0.2-0.2-0.4-0.3-0.5c-0.1-0.2-0.2-0.4-0.3-0.6
				c-0.1-0.2-0.2-0.4-0.2-0.6c-0.1-0.2-0.1-0.4-0.2-0.6c-0.1-0.2-0.1-0.4-0.2-0.6c-0.1-0.2-0.1-0.4-0.2-0.6c0-0.2-0.1-0.4-0.1-0.6
				c0-0.2-0.1-0.4-0.1-0.7c0-0.2,0-0.4-0.1-0.7c0-0.2,0-0.5,0-0.7c0-0.1,0-0.2,0-0.3c0-6.8,6.1-13.9,13-9.5c1.1,0.7,2,1.6,2.8,2.6
				c1.7,2.2,3.4,4.5,4.9,6.9c-0.8,1.2-1.6,2.4-2.4,3.5c-0.7,1-1.4,1.9-2.1,2.8C73.8,63.9,73.2,64.7,72.4,65.4z M101.8,66.3
				c-1.2,0.7-2.4,1-3.3,1.1c-0.8,0.1-1.7,0.1-2.5-0.1c-0.8-0.2-1.6-0.5-2.3-0.9c-0.7-0.5-1.4-1.1-2-1.7c-0.5-0.5-0.9-1.1-1.4-1.6
				c-0.5-0.6-1-1.3-1.5-1.9c-0.5-0.8-1.1-1.5-1.6-2.3c-0.1-0.2-0.2-0.3-0.3-0.5c-0.3-0.5-0.7-1-1-1.6c1.9-2.9,3.9-5.9,6.3-8.4
				c0.9-0.9,1.9-1.6,3.1-1.9l0,0c1.7-0.5,3.7-0.6,5.4,0.2c1.2,0.5,2.2,1.3,3.1,2.3c1.8,2.1,2.7,5,2.7,7.9
				C106.5,60.9,104.6,64.5,101.8,66.3z"/>
		</g>
	</g>
	<g>
		<path class="st4" d="M176.6,57.6l-54.5-1.7c0,0-1.9,0-2.1,1.7c-0.2,1.6,0,18.3,0,18.3s-0.5,2.2,4.9,3.2c5.4,1,34.3,5.5,34.3,5.5
			s5.4,1.7,7.6-2.6L176.6,57.6z"/>
		<g>
			<path class="st5" d="M122.2,74.6c-0.1,0.7,0.4,1.3,1,1.4l20.9,3.3h0.2c0.7,0,1.3-0.5,1.3-1.2l1.5-23.3c0-0.3-0.2-0.6-0.5-0.6
				l-18-2.8c-0.3-0.1-0.6,0.2-0.7,0.5l-5.6,22.6C122.2,74.5,122.2,74.6,122.2,74.6z"/>
			<path class="st6" d="M145.6,78.2c-0.1,0.7-0.8,1.1-1.4,1l17.5,2.7c0.1,0,0.1,0,0.2,0c0.9,0,1.7-0.7,1.7-1.6l2-30.6
				c0-0.4-0.3-0.8-0.7-0.9l-23.7-3.7c-0.4-0.1-0.8,0.2-0.9,0.6l-1.8,7.1l8.1,1.3c0.3,0,0.5,0.3,0.5,0.6l-1.5,23.3
				C145.6,78.2,145.6,78.2,145.6,78.2z"/>
			<circle class="st7" cx="159.3" cy="104" r="5.3"/>
			<circle class="st7" cx="133.3" cy="104" r="5.3"/>
			<path class="st8" d="M178.8,49.2c-0.1-1.1,0.7-2,1.7-2.1l9-0.9c1.1-0.1,2,0.7,2.1,1.8c0.1,1.1-0.7,2-1.8,2.1l-9,0.9
				c-0.1,0-0.1,0-0.2,0C179.7,50.9,178.9,50.1,178.8,49.2z"/>
			<path class="st9" d="M124.9,96.9c0,1,0.8,1.8,1.8,1.8h38.2c0.5,0,1.1-0.2,1.6-0.5c1.2-0.9,1.6-2.6,0.7-3.8l-4.2-6.1
				c-1.6-2.2-3.9-3.8-6.5-4.4l-25.3-4.1c-0.9,0-1.7,0.7-1.8,1.6c-0.2,1,0.5,1.9,1.5,2.1l24.3,4c2,0.3,3.7,1.4,4.8,3.1l3.2,4.6h-36.4
				C125.7,95.1,124.9,95.9,124.9,96.9z"/>
			<circle class="st10" cx="159.3" cy="104" r="1.9"/>
			<circle class="st10" cx="133.3" cy="104" r="1.9"/>
			<path class="st11" d="M114.6,83.4c0,0.5,0.4,0.9,0.9,0.9h0.6v0.6c0,0.5,0.4,0.9,0.9,0.9s0.9-0.4,0.9-0.9v-0.6h0.6
				c0.5,0,0.9-0.4,0.9-0.9s-0.4-0.9-0.9-0.9h-0.6v-0.6c0-0.5-0.4-0.9-0.9-0.9s-0.9,0.4-0.9,0.9v0.6h-0.6
				C114.9,82.5,114.6,82.9,114.6,83.4z"/>
			<path class="st12" d="M165.5,43.6C165.5,43.6,165.5,43.7,165.5,43.6c1.2,0.3,2.2,1.2,2.4,2.4c0,0,0,0,0,0c0,0,0.1,0,0.1,0
				c0.2-1.2,1.2-2.1,2.4-2.3c0,0,0,0,0,0c0,0,0-0.1,0-0.1c-1.2-0.2-2.2-1.1-2.4-2.3c0,0,0,0,0,0c0,0-0.1,0-0.1,0
				C167.7,42.4,166.7,43.4,165.5,43.6C165.5,43.6,165.5,43.6,165.5,43.6z"/>
			<circle class="st8" cx="172.9" cy="50.4" r="0.9"/>
			<circle class="st13" cx="175" cy="76.8" r="0.9"/>
			<circle class="st12" cx="120" cy="89.3" r="0.9"/>
			<path class="st2" d="M189.9,50.8c1.5-0.1,2.6-1.4,2.4-2.9s-1.5-2.6-2.9-2.4l-9,0.9c-0.8,0.1-1.4,0.5-1.9,1
				c-0.9,1.2-0.7,2.9,0.5,3.8l-2.5,5.6l-10.8-0.3l0.4-6.6c0.1-0.8-0.5-1.5-1.3-1.6l-2.8-0.4l0.1-0.8c0.8-5-2.7-9.7-7.7-10.5
				s-9.8,2.6-10.5,7.7l-0.1,0.8l-2.7-0.4c-0.4-0.1-0.9,0.1-1.2,0.3c-0.4-0.1-0.8-0.2-1.2-0.3c-3.9-0.6-7.6,2.1-8.2,6l-0.1,0.4
				l-1.9-0.3c-0.7-0.1-1.4,0.3-1.6,1l-0.9,3.7l-4.3-0.1c0,0,0,0-0.1,0c-1.4,0-2.6,1.1-2.6,2.6v18.1c0,1.6,1.2,3,2.7,3.2l7.1,1.2
				c-0.2,0.3-0.3,0.6-0.4,1c-0.2,1.4,0.7,2.7,2.1,3l24.3,4c1.7,0.3,3.3,1.3,4.3,2.7l2.3,3.4h-35c-1.4,0-2.6,1.2-2.6,2.6
				s1.2,2.6,2.6,2.6h2.6c-0.2,0.2-0.4,0.3-0.5,0.5c-2.2,2.5-2,6.3,0.5,8.5c2.5,2.2,6.3,2,8.5-0.5c2.2-2.5,2-6.3-0.5-8.5h18
				c-0.2,0.2-0.4,0.3-0.5,0.5c-2.2,2.5-2,6.3,0.5,8.5s6.3,2,8.5-0.5c2.2-2.5,2-6.3-0.5-8.5h1.7c0.7,0,1.4-0.2,2-0.6
				c1.6-1.1,2-3.3,0.9-4.9l-4.2-6c-0.6-0.9-1.4-1.8-2.3-2.5c2.4,0.3,4.8-1.1,5.7-3.3l13.3-30.6c0.2,0,0.3,0,0.5,0L189.9,50.8
				L189.9,50.8z M159.4,80.9l-4.3-0.7l9-20.6l-0.8,12.2L159.4,80.9z M163,76.3l-0.3,4.1c0,0,0,0.1,0,0.1c-0.1,0.5-0.5,0.8-1,0.7
				l-0.8-0.1L163,76.3z M143.2,52.9l-3.9-0.6l1.4-5.5c1.9,1.2,2.9,3.4,2.6,5.7L143.2,52.9z M132.6,57l-8,18.4l-1.2-0.2
				c0,0,0,0-0.1,0c-0.2-0.1-0.4-0.3-0.3-0.6v0l3.5-14l1.6-3.8L132.6,57z M138.7,57.3l-8.4,19.1l-4.3-0.7l8.1-18.6L138.7,57.3z
				 M125.1,78.1l0.4-0.9l4.3,0.7l-0.4,1L125.1,78.1z M136.6,80l0.5-1l4.3,0.7l-0.5,1.1L136.6,80z M137.7,77.6l8.4-19.3l-0.8,12.2
				l-3.3,7.7L137.7,77.6z M143.5,78.4l1.5-3.5l-0.2,3.1c0,0,0,0,0,0.1c0,0.3-0.3,0.5-0.5,0.4L143.5,78.4z M147.1,80.5l-0.5,1.1
				l-4.2-0.7l0.5-1.1L147.1,80.5z M148.7,80.7l4.3,0.7l-0.5,1.2l-4.2-0.7L148.7,80.7z M130.8,79l0.4-1l4.3,0.7l-0.5,1L130.8,79z
				 M144.8,57.4l-8.7,19.9l-4.3-0.7l8.4-19.4L144.8,57.4z M144.3,55.9l0.2-1.2l1.8,0.3l-0.1,1L144.3,55.9z M147.7,57.5l3.3,0.1
				l-3.8,8.8L147.7,57.5z M157.1,57.7l-9.3,21.4l-1.6-0.2c0.1-0.2,0.2-0.5,0.2-0.7l0.5-7.3l5.8-13.3L157.1,57.7z M163.2,57.9
				L153.6,80l-4.3-0.7l9.4-21.5L163.2,57.9z M158.7,82.3l-0.5,1.2l-4.2-0.7l0.5-1.2L158.7,82.3z M159.3,99.5c2.5,0,4.5,2,4.5,4.5
				c0,2.5-2,4.5-4.5,4.5s-4.5-2-4.5-4.5C154.8,101.5,156.8,99.5,159.3,99.5z M133.3,99.5c2.5,0,4.5,2,4.5,4.5c0,2.5-2,4.5-4.5,4.5
				c-2.5,0-4.5-2-4.5-4.5C128.8,101.5,130.8,99.5,133.3,99.5z M130.1,81.5c0.1-0.5,0.5-0.9,0.9-0.9l25.2,4.1c2.5,0.6,4.6,2.1,6,4.1
				l4.2,6c0.2,0.3,0.4,0.7,0.4,1.1c0,1.1-0.9,2-2,2h-38.2c-0.6,0-1.1-0.5-1.1-1.1s0.5-1.1,1.1-1.1h36.4c0.2,0,0.3,0,0.4-0.1
				c0.3-0.2,0.4-0.7,0.2-1.1l-3.2-4.6c-1.2-1.8-3.2-3-5.3-3.4l-24.3-4C130.4,82.6,130.1,82.1,130.1,81.5L130.1,81.5z M122.2,77.6
				c-0.9-0.1-1.5-0.9-1.5-1.7v-2.2l2-4.7l-1.3,5.2c0,0.1,0,0.2,0,0.2c-0.2,1.1,0.6,2.1,1.7,2.3l0.8,0.1l-0.4,0.9L122.2,77.6
				L122.2,77.6z M125.8,56.9l-0.8,3.3l-4.2,9.7V57.8v0c0-0.6,0.5-1,1.1-1L125.8,56.9z M130.3,52.4L130,54c-0.1,0.4,0.2,0.8,0.6,0.9
				s0.8-0.2,0.9-0.6l0.2-1.6l11.2,1.7l-0.2,1.4l-15-0.4l0.8-3.2L130.3,52.4z M139.3,46.2l-1.5,5.9l-5.8-0.9l0.1-0.4
				c0.5-3.1,3.4-5.2,6.5-4.7C138.8,46.1,139.1,46.1,139.3,46.2z M143.7,46.5l-0.2,0.9c-0.3-0.4-0.7-0.8-1-1.1L143.7,46.5z
				 M160.6,47.6l-15.3-2.4l0.1-0.8v-0.1c0.7-4.2,4.6-7.1,8.8-6.4c4.2,0.7,7.1,4.7,6.4,8.8L160.6,47.6z M164.7,49.7
				C164.7,49.7,164.7,49.8,164.7,49.7l-0.4,6.7L147.8,56l0.1-1c0-0.7-0.5-1.3-1.2-1.5l-1.9-0.3l0.1-0.4c0.2-1.1,0.1-2.3-0.3-3.3
				c0.2-0.1,0.2-0.3,0.3-0.5l0.4-2.3l15.3,2.4l-0.4,2.3c-0.2,1,1.3,1.2,1.5,0.2l0.4-2.3L164.7,49.7L164.7,49.7z M165.7,57.9l3.6,0.1
				l-4.2,9.7L165.7,57.9z M175.9,58.2l-10.2,23.5c-0.8,1.7-2.6,2.7-4.4,2.4l-1.6-0.3l0.5-1.2l1.2,0.2c0.1,0,0.2,0,0.3,0
				c1.3,0.1,2.5-1,2.5-2.3l0.5-8.3l6.1-14.1L175.9,58.2z M190.8,48c0.1,0.7-0.4,1.2-1.1,1.3l-9,0.8c-0.6,0.1-1.2-0.4-1.3-1.1
				c-0.1-0.6,0.4-1.2,1.1-1.3l9-0.9C190.2,46.9,190.8,47.3,190.8,48z"/>
			<path class="st2" d="M161.9,104c0-1.5-1.2-2.6-2.6-2.6c-1.5,0-2.6,1.2-2.6,2.6s1.2,2.6,2.6,2.6
				C160.7,106.7,161.9,105.5,161.9,104z M160.4,104c0,0.6-0.5,1.1-1.1,1.1c-0.6,0-1.1-0.5-1.1-1.1s0.5-1.1,1.1-1.1
				C159.9,102.9,160.4,103.4,160.4,104z"/>
			<path class="st2" d="M136,104c0-1.5-1.2-2.6-2.6-2.6c-1.5,0-2.6,1.2-2.6,2.6s1.2,2.6,2.6,2.6C134.8,106.7,136,105.5,136,104z
				 M134.4,104c0,0.6-0.5,1.1-1.1,1.1c-0.6,0-1.1-0.5-1.1-1.1c0-0.6,0.5-1.1,1.1-1.1C133.9,102.9,134.4,103.4,134.4,104z"/>
		</g>
	</g>
</g>
</svg>
