<?xml version="1.0" encoding="utf-8"?>
<!-- Generator: Adobe Illustrator 25.0.0, SVG Export Plug-In . SVG Version: 6.00 Build 0)  -->
<svg version="1.1" id="Layer_1" xmlns="http://www.w3.org/2000/svg" xmlns:xlink="http://www.w3.org/1999/xlink" x="0px" y="0px"
	 viewBox="0 0 232.5 160" style="enable-background:new 0 0 232.5 160;" xml:space="preserve">
<style type="text/css">
	.st0{fill:#F6C560;}
	.st1{opacity:4.000000e-02;}
	.st2{fill:#35414D;}
	.st3{fill:#FF6666;}
	.st4{fill:#00C853;}
	.st5{fill:#009B3F;}
	.st6{fill:#FFDF7D;}
	.st7{fill:#FFCF64;}
	.st8{fill:#FF3B65;}
	.st9{opacity:0.75;fill:#D82B50;enable-background:new    ;}
	.st10{fill:#FF8098;}
</style>
<g>
	<g>
		<g>
			<g>
				<g>
					<path class="st0" d="M198.3,39.7v109.7c0,4.3-3.3,7.8-6.9,7.8H9.6c-4.1,0-6.9-3.5-6.9-7.8V39.7c0-4.3,3.3-7.3,6.9-7.3H191
						C195,32.4,198.3,35.8,198.3,39.7L198.3,39.7z"/>
				</g>
				<g class="st1">
					<path d="M198.3,39.7v109.7c0,4.3-3.3,7.8-6.9,7.8H9.6c-3.7,0-6.9-3.5-6.9-7.8v-8.6h69.7c58.3,0,106.4-47.9,110.4-108.8h8.6
						C195,32.4,198.3,35.8,198.3,39.7L198.3,39.7z"/>
				</g>
			</g>
			<path class="st2" d="M9.6,160c-5.4,0-9.6-4.7-9.6-10.6V39.7c0-5.6,4.3-10.2,9.6-10.2H191c2.9,0,5.8,1.2,7.1,2.9
				c1.6,2.1,2.6,4.8,2.6,7.3v109.7c0,6-4.2,10.6-9.6,10.6H9.6z M5.4,149.4c0,2.4,1.7,4.9,4.2,4.9H191c2.8,0,4.6-1.9,4.6-4.9V38.7
				l-86.5,64.2c-2.8,2.1-5.8,3.2-9,3.2c-3,0-6.4-1.2-9-3.2L5.4,38.6V149.4z M94.1,98.3c1.8,1.2,3.9,1.8,6,1.8c2.1,0,4.2-0.6,6-1.8
				l84.7-63.1h-21.6l-0.1,0.1c-1.3,0.1-7,0.3-28,0.3c0,0,0,0,0,0c-32,0-80-0.4-80.5-0.4H9.4L94.1,98.3z"/>
		</g>
		<polygon class="st0" points="64.2,87.6 73.3,77.1 89.8,89.8 96.7,94.5 129.1,78.5 135.5,89.2 123.9,98.1 105.6,113.7 76.5,98.1 		
			"/>
		<g>
			<g>
				<path class="st2" d="M134.6,91.2c-0.6-1.4-1.3-2.8-2.1-4.1c-0.6-1-1.4-1.8-2.2-2.6c-0.6-0.6-1.2-1.1-1.9-1.6
					c-0.7-0.5-1.3-0.9-2.1-1.3c-0.7-0.4-1.5-0.7-2.2-1c-0.3-0.1-0.7-0.2-1-0.3c-0.4-0.1-0.7-0.1-1.1-0.2c-0.4-0.1-0.8-0.1-1.2-0.2
					c-0.1,0-0.2,0-0.3,0c-0.1,0-0.2,0-0.2,0c-0.3,0-0.5,0-0.8,0c0,0,0,0,0,0c0,0-0.1,0-0.2,0c-1.2,0-5.8,0.2-9.3,3.2
					c-0.3,0.3-0.6,0.6-0.9,0.9c-1,0.9-2.1,2.2-3.1,3.5c-2.9,3.6-5.1,7.1-5.1,7.1c0,0,0,0,0,0c-2.2-3.4-5-7.2-8.4-10.7
					c-0.4-0.4-0.7-0.7-1.1-1c-0.7-0.5-1.4-1-2.1-1.3c-0.1-0.1-0.2-0.1-0.3-0.2c-0.7-0.4-1.5-0.6-2.3-0.9c-0.7-0.2-1.3-0.3-2-0.4
					c-0.5-0.1-1-0.1-1.5-0.1c-0.3,0-0.6,0-0.9,0c-0.1,0-0.2,0-0.2,0c-0.5,0-1.1,0-1.6,0.1c-0.5,0.1-1.1,0.2-1.6,0.3
					c-0.5,0.1-1,0.3-1.5,0.5c-0.5,0.2-1,0.4-1.5,0.7c-0.5,0.2-1,0.5-1.4,0.8c-0.5,0.3-0.9,0.6-1.3,1c-0.4,0.3-0.8,0.7-1.2,1.1
					c-0.2,0.2-0.4,0.4-0.6,0.6c-0.3,0.3-0.5,0.6-0.8,0.8c-0.1,0.1-0.2,0.3-0.3,0.4c-0.1,0.1-0.1,0.1-0.2,0.2c0,0,0,0.1-0.1,0.1
					c0,0-0.1,0.1-0.1,0.1c-0.2,0.2-0.3,0.4-0.4,0.6c-0.3,0.4-0.6,0.9-0.8,1.3c-0.3,0.5-0.6,1-0.8,1.6c-0.1,0.3-0.3,0.6-0.4,0.9
					c0,0,0,0.1,0,0.1c-0.1,0.3-0.2,0.5-0.3,0.8c0,0,0,0.1,0,0.1c-0.1,0.3-0.2,0.5-0.3,0.8c0,0,0,0.1,0,0.1c-0.1,0.3-0.2,0.7-0.3,1.1
					c-0.1,0.3-0.2,0.5-0.2,0.8c0,0,0,0,0,0c-0.1,0.3-0.1,0.5-0.2,0.8c0,0.1,0,0.1,0,0.2c-1.3,6.5-1,15.5,7.1,22.9
					c0.3,0.3,0.6,0.5,0.9,0.7c0.3,0.2,0.6,0.4,1,0.6c0.3,0.2,0.6,0.4,1,0.5c0.3,0.1,0.6,0.3,1,0.4c0.3,0.1,0.6,0.2,0.9,0.3
					c0.3,0.1,0.6,0.2,0.9,0.2c0.8,0.2,1.7,0.3,2.5,0.4c0.9,0,1.7,0,2.6-0.1c0.7-0.1,1.4-0.2,2.1-0.4c0.3-0.1,0.6-0.1,0.8-0.2
					c0.3-0.1,0.6-0.2,0.9-0.3c0.3-0.1,0.6-0.2,0.9-0.3c0.3-0.1,0.6-0.3,0.9-0.4c0.3-0.2,0.6-0.3,0.9-0.5c0.3-0.2,0.6-0.4,0.9-0.6
					c0.3-0.2,0.6-0.4,0.8-0.7c0.1-0.1,0.2-0.2,0.3-0.3c0.1-0.1,0.2-0.2,0.3-0.3c2-1.8,5.8-7,8.4-10.8c0.1,0.1,0.8,1.2,0.9,1.4
					c0.3,0.5,0.7,1,1,1.5c0.5,0.8,1.2,1.6,1.8,2.4c1.2,1.6,2.4,3.2,3.8,4.7c1,1,2,1.9,3.2,2.6c3.5,2.2,7.9,2.8,11.8,1.8
					c0.8-0.2,1.6-0.5,2.4-0.8c2.5-1.2,4.7-3.1,6.4-5.5c3.8-5.4,5.2-12.4,3.9-19C135.6,94.3,135.2,92.7,134.6,91.2z M88.6,111.4
					c-0.2,0.2-0.4,0.3-0.6,0.5c-0.1,0.1-0.3,0.2-0.4,0.3c-1.4,0.9-2.9,1.4-4.5,1.5c-1.2,0.1-2.4,0-3.6-0.3c-0.2,0-0.3-0.1-0.5-0.1
					c-0.1,0-0.3-0.1-0.4-0.1c-0.2-0.1-0.4-0.2-0.6-0.3c-0.2-0.1-0.4-0.2-0.6-0.3c-0.2-0.1-0.4-0.2-0.6-0.4c-0.2-0.1-0.4-0.3-0.5-0.4
					c-0.2-0.1-0.3-0.3-0.5-0.4c-0.2-0.2-0.3-0.3-0.5-0.5c-0.2-0.2-0.3-0.3-0.5-0.5c-0.2-0.2-0.3-0.4-0.4-0.6
					c-0.1-0.2-0.3-0.4-0.4-0.6c-0.1-0.2-0.3-0.4-0.4-0.6c-0.1-0.2-0.2-0.4-0.4-0.6c-0.1-0.2-0.2-0.4-0.3-0.7
					c-0.1-0.2-0.2-0.5-0.3-0.7c-0.1-0.2-0.2-0.5-0.3-0.7c-0.1-0.2-0.2-0.5-0.2-0.7c-0.1-0.3-0.1-0.5-0.2-0.8
					c-0.1-0.3-0.1-0.5-0.2-0.8c0-0.3-0.1-0.5-0.1-0.8c0-0.3-0.1-0.5-0.1-0.8c0-0.3,0-0.6,0-0.8c0-0.1,0-0.2,0-0.3
					c0-8.2,7.4-16.8,15.7-11.5c1.3,0.8,2.4,1.9,3.4,3.2c2.1,2.7,4.1,5.5,6,8.3c-0.9,1.4-1.9,2.9-2.9,4.3c-0.8,1.2-1.7,2.3-2.6,3.4
					C90.4,109.5,89.6,110.5,88.6,111.4z M124.3,112.4c-1.4,0.8-2.9,1.2-4,1.3c-1,0.1-2,0.1-3-0.1c-1-0.2-2-0.6-2.8-1.1
					c-0.9-0.6-1.7-1.3-2.4-2.1c-0.6-0.6-1.1-1.3-1.7-2c-0.6-0.8-1.2-1.5-1.8-2.3c-0.7-0.9-1.3-1.8-2-2.8c-0.1-0.2-0.3-0.4-0.4-0.6
					c-0.4-0.7-0.8-1.3-1.3-2c2.3-3.5,4.7-7.2,7.6-10.2c1.1-1.1,2.4-1.9,3.8-2.3l0,0c2.1-0.6,4.5-0.7,6.6,0.2
					c1.4,0.6,2.7,1.6,3.8,2.8c2.2,2.6,3.3,6.1,3.3,9.5C130,105.8,127.7,110.2,124.3,112.4z"/>
			</g>
			<path class="st3" d="M133.7,88.6c-0.6-1.4-1.3-2.8-2.1-4.1c-0.6-1-1.4-1.8-2.2-2.6c-0.6-0.6-1.2-1.1-1.9-1.6
				c-0.7-0.5-1.3-0.9-2.1-1.3c-0.7-0.4-1.5-0.7-2.2-1c-0.3-0.1-0.7-0.2-1-0.3c-0.4-0.1-0.7-0.1-1.1-0.2c-0.4-0.1-0.8-0.1-1.2-0.2
				c-0.1,0-0.2,0-0.3,0c-0.1,0-0.2,0-0.2,0c-0.3,0-0.5,0-0.8,0c0,0,0,0,0,0c0,0-0.1,0-0.2,0c-1.2,0-5.8,0.2-9.3,3.2
				c-0.3,0.3-0.6,0.6-0.9,0.9c-1,0.9-2.1,2.2-3.1,3.5c-2.9,3.6-5.1,7.1-5.1,7.1c0,0,0,0,0,0c-2.2-3.4-5-7.2-8.4-10.7
				c-0.4-0.4-0.7-0.7-1.1-1c-0.7-0.5-1.4-1-2.1-1.3c-0.1-0.1-0.2-0.1-0.3-0.2c-0.7-0.4-1.5-0.6-2.3-0.9c-0.7-0.2-1.3-0.3-2-0.4
				c-0.5-0.1-1-0.1-1.5-0.1c-0.3,0-0.6,0-0.9,0c-0.1,0-0.2,0-0.2,0c-0.5,0-1.1,0-1.6,0.1c-0.5,0.1-1.1,0.2-1.6,0.3
				c-0.5,0.1-1,0.3-1.5,0.5c-0.5,0.2-1,0.4-1.5,0.7c-0.5,0.2-1,0.5-1.4,0.8c-0.5,0.3-0.9,0.6-1.3,1c-0.4,0.3-0.8,0.7-1.2,1.1
				c-0.2,0.2-0.4,0.4-0.6,0.6c-0.3,0.3-0.5,0.6-0.8,0.8c-0.1,0.1-0.2,0.3-0.3,0.4c-0.1,0.1-0.1,0.1-0.2,0.2c0,0,0,0.1-0.1,0.1
				c0,0-0.1,0.1-0.1,0.1c-0.2,0.2-0.3,0.4-0.4,0.6c-0.3,0.4-0.6,0.9-0.8,1.3c-0.3,0.5-0.6,1-0.8,1.6c-0.1,0.3-0.3,0.6-0.4,0.9
				c0,0,0,0.1,0,0.1c-0.1,0.3-0.2,0.5-0.3,0.8c0,0,0,0.1,0,0.1c-0.1,0.3-0.2,0.5-0.3,0.8c0,0,0,0.1,0,0.1c-0.1,0.3-0.2,0.7-0.3,1.1
				c-0.1,0.3-0.2,0.5-0.2,0.8c0,0,0,0,0,0c-0.1,0.3-0.1,0.5-0.2,0.8c0,0.1,0,0.1,0,0.2c-1.3,6.5-1,15.5,7.1,22.9
				c0.3,0.3,0.6,0.5,0.9,0.7c0.3,0.2,0.6,0.4,1,0.6c0.3,0.2,0.6,0.4,1,0.5c0.3,0.1,0.6,0.3,1,0.4c0.3,0.1,0.6,0.2,0.9,0.3
				c0.3,0.1,0.6,0.2,0.9,0.2c0.8,0.2,1.7,0.3,2.5,0.4c0.9,0,1.7,0,2.6-0.1c0.7-0.1,1.4-0.2,2.1-0.4c0.3-0.1,0.6-0.1,0.8-0.2
				c0.3-0.1,0.6-0.2,0.9-0.3c0.3-0.1,0.6-0.2,0.9-0.3c0.3-0.1,0.6-0.3,0.9-0.4c0.3-0.2,0.6-0.3,0.9-0.5c0.3-0.2,0.6-0.4,0.9-0.6
				c0.3-0.2,0.6-0.4,0.8-0.7c0.1-0.1,0.2-0.2,0.3-0.3c0.1-0.1,0.2-0.2,0.3-0.3c2-1.8,5.8-7,8.4-10.8c0.1,0.1,0.8,1.2,0.9,1.4
				c0.3,0.5,0.7,1,1,1.5c0.5,0.8,1.2,1.6,1.8,2.4c1.2,1.6,2.4,3.2,3.8,4.7c1,1,2,1.9,3.2,2.6c3.5,2.2,7.9,2.8,11.8,1.8
				c0.8-0.2,1.6-0.5,2.4-0.8c2.5-1.2,4.7-3.1,6.4-5.5c3.8-5.4,5.2-12.4,3.9-19C134.7,91.6,134.2,90.1,133.7,88.6z M87.7,108.7
				c-0.2,0.2-0.4,0.3-0.6,0.5c-0.1,0.1-0.3,0.2-0.4,0.3c-1.4,0.9-2.9,1.4-4.5,1.5c-1.2,0.1-2.4,0-3.6-0.3c-0.2,0-0.3-0.1-0.5-0.1
				c-0.1,0-0.3-0.1-0.4-0.1c-0.2-0.1-0.4-0.2-0.6-0.3c-0.2-0.1-0.4-0.2-0.6-0.3c-0.2-0.1-0.4-0.2-0.6-0.4c-0.2-0.1-0.4-0.3-0.5-0.4
				c-0.2-0.1-0.3-0.3-0.5-0.4c-0.2-0.2-0.3-0.3-0.5-0.5c-0.2-0.2-0.3-0.3-0.5-0.5c-0.2-0.2-0.3-0.4-0.4-0.6
				c-0.1-0.2-0.3-0.4-0.4-0.6c-0.1-0.2-0.3-0.4-0.4-0.6c-0.1-0.2-0.2-0.4-0.4-0.6c-0.1-0.2-0.2-0.4-0.3-0.7
				c-0.1-0.2-0.2-0.5-0.3-0.7c-0.1-0.2-0.2-0.5-0.3-0.7c-0.1-0.2-0.2-0.5-0.2-0.7c-0.1-0.3-0.1-0.5-0.2-0.8
				c-0.1-0.3-0.1-0.5-0.2-0.8c0-0.3-0.1-0.5-0.1-0.8c0-0.3-0.1-0.5-0.1-0.8c0-0.3,0-0.6,0-0.8c0-0.1,0-0.2,0-0.3
				c0-8.2,7.4-16.8,15.7-11.5c1.3,0.8,2.4,1.9,3.4,3.2c2.1,2.7,4.1,5.5,6,8.3c-0.9,1.4-1.9,2.9-2.9,4.3c-0.8,1.2-1.7,2.3-2.6,3.4
				C89.5,106.9,88.6,107.9,87.7,108.7z M123.3,109.8c-1.4,0.8-2.9,1.2-4,1.3c-1,0.1-2,0.1-3-0.1c-1-0.2-2-0.6-2.8-1.1
				c-0.9-0.6-1.7-1.3-2.4-2.1c-0.6-0.6-1.1-1.3-1.7-2c-0.6-0.8-1.2-1.5-1.8-2.3c-0.7-0.9-1.3-1.8-2-2.8c-0.1-0.2-0.3-0.4-0.4-0.6
				c-0.4-0.7-0.8-1.3-1.3-2c2.3-3.5,4.7-7.2,7.6-10.2c1.1-1.1,2.4-1.9,3.8-2.3l0,0c2.1-0.6,4.5-0.7,6.6,0.2c1.4,0.6,2.7,1.6,3.8,2.8
				c2.2,2.6,3.3,6.1,3.3,9.5C129.1,103.2,126.7,107.6,123.3,109.8z"/>
		</g>
	</g>
	<g id="g2287_2_">
		<g id="g2293_2_" transform="translate(233.9614,426.5913)">
			<g id="path2295_2_">
				<path class="st4" d="M-207.4-326.2l11.7-10.2c1-0.8,2.4-0.8,3.4,0l11.7,10.2c1.8,1.6,0.7,4.5-1.7,4.5h-1.7v36.2l-15-4
					c-2.8,0-5.1-2.3-5.1-5.1v-27.1h-1.7C-208.1-321.7-209.2-324.7-207.4-326.2"/>
			</g>
		</g>
		<g id="g2297_2_" transform="translate(348.0371,495.1826)">
			<g id="path2299_2_">
				<path class="st5" d="M-305.7-404.4l-0.8-0.7c-1-0.8-2.4-0.8-3.4,0l-11.7,10.2c-1.8,1.6-0.7,4.5,1.7,4.5h1.7v27.1
					c0,2.8,2.3,5.1,5.1,5.1h4.9c-2.8,0-5.1-2.3-5.1-5.1v-27.1h-1.7c-2.4,0-3.5-2.9-1.7-4.5L-305.7-404.4z"/>
			</g>
		</g>
		<g id="g2301_2_" transform="translate(258.0547,350.1738)">
			<g id="path2303_2_">
				<path class="st2" d="M-208.1-211.6c-0.8,0-1.4-0.6-1.4-1.4v-32.2c0-0.8,0.6-1.4,1.4-1.4h1.7c0.7,0,1-0.6,1.1-0.7
					c0.1-0.2,0.2-0.8-0.3-1.3l-11.7-10.2c-0.4-0.4-1.1-0.4-1.5,0l-11.7,10.2c-0.6,0.5-0.4,1.1-0.3,1.3c0.1,0.2,0.3,0.7,1.1,0.7h1.7
					c0.8,0,1.4,0.6,1.4,1.4v6.1c0,0.8-0.6,1.4-1.4,1.4c-0.8,0-1.4-0.6-1.4-1.4v-4.7h-0.2c-1.7,0-3.2-1-3.7-2.6
					c-0.6-1.6-0.1-3.3,1.1-4.4l11.7-10.2c1.5-1.3,3.7-1.3,5.2,0l11.7,10.2c1.3,1.1,1.7,2.8,1.1,4.4c-0.6,1.6-2.1,2.6-3.7,2.6h-0.2
					v30.8C-206.7-212.3-207.3-211.6-208.1-211.6z"/>
			</g>
		</g>
		<g id="g2305_2_" transform="translate(59.6851,276.6201)">
			<g id="path2307_2_">
				<path class="st4" d="M-57.4-155.4l11.7-10.2c1-0.8,2.4-0.8,3.4,0l11.7,10.2c1.8,1.6,0.7,4.5-1.7,4.5h-1.7v27.8
					c0,2.8-2.3,5.1-5.1,5.1h-9.9c-2.8,0-5.1-2.3-5.1-5.1v-27.8h-1.7C-58.1-150.9-59.2-153.9-57.4-155.4"/>
			</g>
		</g>
		<g id="g2309_2_" transform="translate(173.7603,345.2114)">
			<g id="path2311_2_">
				<path class="st5" d="M-155.6-233.5l-0.8-0.7c-1-0.8-2.4-0.8-3.4,0l-11.7,10.2c-1.8,1.6-0.7,4.5,1.7,4.5h1.7v27.8
					c0,2.8,2.3,5.1,5.1,5.1h4.9c-2.8,0-5.1-2.3-5.1-5.1v-27.8h-1.7c-2.4,0-3.5-2.9-1.7-4.5L-155.6-233.5z"/>
			</g>
		</g>
		<g id="g2313_2_" transform="translate(108.2598,318.8901)">
			<g id="path2315_2_">
				<path class="st2" d="M-99.2-202.1c-0.4,0-0.8-0.2-1.1-0.5c-0.5-0.6-0.5-1.5,0.1-2l5-4.3c1.5-1.3,3.8-1.3,5.2,0l4.9,4.2
					c0.6,0.5,0.7,1.4,0.1,2c-0.5,0.6-1.4,0.7-2,0.1l-4.9-4.2c-0.4-0.4-1.1-0.4-1.5,0l-5,4.3C-98.5-202.3-98.9-202.1-99.2-202.1z"/>
			</g>
		</g>
		<g id="g2317_2_" transform="translate(228.4902,163.1699)">
			<g id="path2319_2_">
				<path class="st2" d="M-207.8-3.2h-9.9c-3.6,0-6.5-2.9-6.5-6.5V-36h-0.2c-1.7,0-3.2-1-3.7-2.6c-0.6-1.6-0.1-3.3,1.1-4.4l3.6-3.1
					c0.6-0.5,1.5-0.5,2,0.1c0.5,0.6,0.5,1.5-0.1,2l-3.6,3.1c-0.6,0.5-0.4,1.1-0.3,1.3c0.1,0.2,0.3,0.7,1.1,0.7h1.7
					c0.8,0,1.4,0.6,1.4,1.4v27.8c0,2,1.6,3.7,3.7,3.7h9.9c2,0,3.7-1.6,3.7-3.7v-16.5c0-0.8,0.6-1.4,1.4-1.4c0.8,0,1.4,0.6,1.4,1.4
					v16.5C-201.3-6.1-204.2-3.2-207.8-3.2z"/>
			</g>
		</g>
		<g id="g2321_2_" transform="translate(377.9424,251.3062)">
			<g id="path2323_2_">
				<path class="st6" d="M-331.4-126.6c0,7.7-6.3,14-14,14c-7.7,0-14-6.3-14-14c0-7.7,6.3-14,14-14
					C-337.7-140.6-331.4-134.3-331.4-126.6"/>
			</g>
		</g>
		<g id="g2325_2_" transform="translate(289.3384,151.3237)">
			<g id="path2327_2_">
				<path class="st7" d="M-255.1-12.7c-0.6,0.1-1.1,0.1-1.7,0.1c-7.7,0-14-6.3-14-14s6.3-14,14-14c0.6,0,1.1,0,1.7,0.1
					c-6.9,0.8-12.3,6.7-12.3,13.9S-262.1-13.6-255.1-12.7"/>
			</g>
		</g>
		<g id="g2329_2_" transform="translate(361.4146,196.0283)">
			<g id="path2331_2_">
				<path class="st2" d="M-328.9-55.9c-8.5,0-15.4-6.9-15.4-15.4c0-8.5,6.9-15.4,15.4-15.4c8.5,0,15.4,6.9,15.4,15.4
					c0,3-0.9,5.9-2.5,8.5c-0.4,0.7-1.3,0.8-2,0.4c-0.7-0.4-0.8-1.3-0.4-2c1.3-2,2.1-4.4,2.1-6.9c0-6.9-5.6-12.6-12.6-12.6
					c-6.9,0-12.6,5.6-12.6,12.6s5.6,12.6,12.6,12.6c0.9,0,1.8-0.1,2.6-0.3c0.8-0.2,1.5,0.3,1.7,1.1c0.2,0.8-0.3,1.5-1.1,1.7
					C-326.7-56-327.8-55.9-328.9-55.9z"/>
			</g>
		</g>
		<g id="g2333_2_" transform="translate(293.8291,288.8667)">
			<g id="path2335_2_">
				<path class="st2" d="M-261.5-156.9c-1.5,0-2.4-0.2-3.7-1.1c-0.7-0.4-0.8-1.3-0.4-2c0.4-0.7,1.3-0.8,2-0.4
					c0.9,0.6,1.2,0.6,2.3,0.6c1.1,0,1.7-0.8,1.8-1.5c0.1-0.4,0-1.2-1-1.6c-1.4-0.5-2.8-1-3.7-1.8c-1-0.8-1.5-2.1-1.2-3.5
					c0.3-1.5,1.3-2.7,2.7-3.1c2-0.6,3.7,0,4.7,0.8c0.6,0.5,0.7,1.4,0.2,2c-0.5,0.6-1.4,0.7-2,0.2c-0.1-0.1-0.9-0.7-2-0.3
					c-0.6,0.2-0.7,0.7-0.8,0.9c-0.1,0.3,0,0.6,0.2,0.8c0.7,0.5,1.8,1,2.9,1.4c2.1,0.7,3.2,2.6,2.9,4.8c-0.3,1.9-2,3.9-4.6,3.9
					C-261.4-156.9-261.5-156.9-261.5-156.9z"/>
			</g>
		</g>
		<g id="g2337_2_" transform="translate(276.6963,196.8765)">
			<g id="path2339_2_">
				<path class="st2" d="M-244.2-63.2c-0.8,0-1.4-0.6-1.4-1.4v-1.7c0-0.8,0.6-1.4,1.4-1.4s1.4,0.6,1.4,1.4v1.7
					C-242.8-63.8-243.5-63.2-244.2-63.2z"/>
			</g>
		</g>
		<g id="g2341_2_" transform="translate(276.6963,294.2573)">
			<g id="path2343_2_">
				<path class="st2" d="M-244.2-174.1c-0.8,0-1.4-0.6-1.4-1.4v-1.6c0-0.8,0.6-1.4,1.4-1.4s1.4,0.6,1.4,1.4v1.6
					C-242.8-174.7-243.5-174.1-244.2-174.1z"/>
			</g>
		</g>
		<g id="g2345_2_" transform="translate(259.4268,118.9678)">
			<g id="path2347_2_">
				<path class="st4" d="M-229.4,24.1l11.7-10.2c1-0.8,2.4-0.8,3.4,0l11.7,10.2c1.8,1.6,0.7,4.5-1.7,4.5h-1.7v5.9
					c0,2.8-2.3,5.1-5.1,5.1h-9.9c-2.8,0-5.1-2.3-5.1-5.1v-5.9h-1.7C-230.1,28.6-231.2,25.7-229.4,24.1"/>
			</g>
		</g>
		<g id="g2349_2_" transform="translate(373.502,187.5591)">
			<g id="path2351_2_">
				<path class="st5" d="M-327.6-54l-0.8-0.7c-1-0.8-2.4-0.8-3.4,0l-11.7,10.2c-1.8,1.6-0.7,4.5,1.7,4.5h1.7v5.9
					c0,2.8,2.3,5.1,5.1,5.1h4.9c-2.8,0-5.1-2.3-5.1-5.1V-40h-1.7c-2.4,0-3.5-2.9-1.7-4.5L-327.6-54z"/>
			</g>
		</g>
		<g id="g2353_2_" transform="translate(428.2202,59.2002)">
			<g id="path2355_2_">
				<path class="st2" d="M-379.8,100.8h-9.9c-3.6,0-6.5-2.9-6.5-6.5v-4.5h-0.2c-1.7,0-3.2-1-3.7-2.6c-0.6-1.6-0.2-3.3,1.1-4.4
					l11.7-10.2c1.5-1.3,3.7-1.3,5.2,0l11.7,10.2c1.3,1.1,1.7,2.8,1.1,4.4c-0.6,1.6-2.1,2.6-3.7,2.6h-0.2v2.4c0,0.8-0.6,1.4-1.4,1.4
					s-1.4-0.6-1.4-1.4v-3.8c0-0.8,0.6-1.4,1.4-1.4h1.7c0.7,0,1-0.6,1.1-0.7c0.1-0.2,0.2-0.8-0.3-1.3L-384,74.8
					c-0.4-0.4-1.1-0.4-1.5,0L-397.2,85c-0.6,0.5-0.4,1.1-0.3,1.3c0.1,0.2,0.3,0.7,1.1,0.7h1.7c0.8,0,1.4,0.6,1.4,1.4v5.9
					c0,2,1.6,3.7,3.7,3.7h9.9c1.5,0,2.8-0.9,3.4-2.2c0.3-0.7,1.2-1,1.9-0.7c0.7,0.3,1,1.2,0.7,1.9
					C-374.9,99.3-377.2,100.8-379.8,100.8z"/>
			</g>
		</g>
	</g>
	<g>
		<path class="st8" d="M209.9,52l14.7-14.7c8.1-8.1,8.1-21.3,0-29.4c-8.1-8.1-21.3-8.1-29.4,0c-8.1,8.1,0,0,0,0
			c-8.1-8.1-21.3-8.1-29.4,0c-8.1,8.1-8.1,21.3,0,29.4c8.1,8.1,14.7,14.7,14.7,14.7l7.5,7.5c4,4,10.4,4,14.4,0L209.9,52L209.9,52z"
			/>
		<path class="st9" d="M224.7,7.8c-0.8-0.8-1.6-1.4-2.4-2c-1.2,23.7-19.7,42.8-43.1,44.8l1.4,1.4l7.5,7.5c4,4,10.4,4,14.4,0l7.5-7.5
			l14.7-14.7C232.8,29.1,232.8,15.9,224.7,7.8L224.7,7.8z"/>
		<path class="st10" d="M170.7,23.7c-0.9,0-1.7-0.8-1.7-1.7c0-6.1,4.9-11,11-11c0.9,0,1.7,0.8,1.7,1.7s-0.8,1.7-1.7,1.7
			c-4.2,0-7.6,3.4-7.6,7.6C172.4,22.9,171.6,23.7,170.7,23.7z"/>
		<path class="st2" d="M195.2,64.2c-3,0-6.1-1.2-8.4-3.5l-22.3-22.3c-8.8-8.8-8.8-23.1,0-31.8c8.4-8.4,21.8-8.8,30.6-1.1
			c8.8-7.6,22.3-7.3,30.6,1.1c8.8,8.8,8.8,23.1,0,31.8l-22.3,22.3C201.3,63,198.3,64.2,195.2,64.2z M180.5,3.4
			c-4.9,0-9.8,1.9-13.5,5.6c-7.5,7.5-7.5,19.6,0,27.1l22.3,22.3c3.3,3.3,8.7,3.3,12,0l7.5-7.5L223.5,36c7.5-7.5,7.5-19.6,0-27.1
			c-7.5-7.5-19.6-7.5-27.1,0c-0.7,0.7-1.7,0.7-2.4,0C190.3,5.2,185.4,3.4,180.5,3.4L180.5,3.4z"/>
	</g>
</g>
</svg>
