<?xml version="1.0" encoding="utf-8"?>
<!-- Generator: Adobe Illustrator 25.0.0, SVG Export Plug-In . SVG Version: 6.00 Build 0)  -->
<svg version="1.1" id="Layer_1" xmlns="http://www.w3.org/2000/svg" xmlns:xlink="http://www.w3.org/1999/xlink" x="0px" y="0px"
	 viewBox="0 0 251.2 110" style="enable-background:new 0 0 251.2 110;" xml:space="preserve">
<style type="text/css">
	.st0{fill:#99E6FC;}
	.st1{fill:#62DBFB;}
	.st2{fill:#35414D;}
	.st3{fill:#F6C560;}
	.st4{opacity:4.000000e-02;}
	.st5{fill:#FF6666;}
	.st6{fill:#FFFFFF;}
	.st7{fill:#302D3D;}
	.st8{fill:#A3F0F6;}
	.st9{fill:#16C8F6;}
	.st10{fill:#D0FAF6;}
</style>
<g>
	<g>
		<g>
			<g>
				<circle class="st0" cx="9.6" cy="76.7" r="7.1"/>
			</g>
		</g>
		<g>
			<g>
				<path class="st1" d="M9.6,69.6c-1,0-1.9,0.2-2.7,0.5c2.6,1.1,4.4,3.6,4.4,6.6c0,3-1.8,5.5-4.4,6.6c0.8,0.4,1.8,0.5,2.7,0.5
					c3.9,0,7.1-3.2,7.1-7.1C16.7,72.8,13.5,69.6,9.6,69.6z"/>
			</g>
		</g>
		<path class="st2" d="M9.6,85.2c4.7,0,8.5-3.8,8.5-8.5c0-4.7-3.8-8.5-8.5-8.5s-8.5,3.8-8.5,8.5C1.2,81.4,5,85.2,9.6,85.2z M9.6,71
			c3.2,0,5.7,2.6,5.7,5.7c0,3.2-2.6,5.7-5.7,5.7s-5.7-2.6-5.7-5.7C3.9,73.6,6.5,71,9.6,71z"/>
	</g>
	<g>
		<g>
			<g>
				<circle class="st0" cx="16.7" cy="35.1" r="3.6"/>
			</g>
		</g>
		<path class="st2" d="M16.7,30.1c-2.7,0-5,2.2-5,5s2.2,5,5,5s5-2.2,5-5C21.7,32.3,19.5,30.1,16.7,30.1z M16.7,37.3
			c-1.2,0-2.2-1-2.2-2.2c0-1.2,1-2.2,2.2-2.2s2.2,1,2.2,2.2C19,36.3,18,37.3,16.7,37.3z"/>
	</g>
	<g>
		<g>
			<g>
				<g>
					<path class="st3" d="M201.7,8.4v90.2c0,3.5-2.7,6.4-5.7,6.4H46.5c-3.4,0-5.7-2.8-5.7-6.4V8.4c0-3.5,2.7-6,5.7-6h149.1
						C199,2.4,201.7,5.2,201.7,8.4L201.7,8.4z"/>
				</g>
				<g class="st4">
					<path d="M201.7,8.4v90.2c0,3.5-2.7,6.4-5.7,6.4H46.5c-3,0-5.7-2.8-5.7-6.4v-7.1h57.3c47.9,0,87.5-39.4,90.8-89.5h7
						C199,2.4,201.7,5.2,201.7,8.4L201.7,8.4z"/>
				</g>
			</g>
			<path class="st2" d="M46.5,107.3c-4.4,0-7.9-3.8-7.9-8.8V8.4c0-4.6,3.6-8.4,7.9-8.4h149.1c2.4,0,4.7,1,5.8,2.4
				c1.3,1.7,2.1,4,2.1,6v90.2c0,4.9-3.5,8.8-7.9,8.8H46.5z M43.1,98.6c0,1.9,1.4,4,3.5,4h149.1c2.3,0,3.8-1.6,3.8-4v-91l-71.1,52.8
				c-2.3,1.7-4.8,2.6-7.4,2.6c-2.5,0-5.2-1-7.4-2.6L43.1,7.5V98.6z M116,56.6c1.5,1,3.2,1.5,4.9,1.5s3.5-0.5,4.9-1.5l69.6-51.9
				h-17.7l-0.1,0.1c-1.1,0.1-5.8,0.2-23,0.2c0,0,0,0,0,0c-26.3,0-65.8-0.3-66.2-0.3H46.4L116,56.6z"/>
		</g>
		<polygon class="st3" points="91.4,47.8 98.9,39.2 112.5,49.6 118.1,53.5 144.8,40.3 150,49.1 140.5,56.4 125.4,69.2 101.6,56.4 		
			"/>
		<g>
			<g>
				<path class="st2" d="M149.3,50.7c-0.5-1.2-1.1-2.3-1.8-3.4c-0.5-0.8-1.1-1.5-1.8-2.2c-0.5-0.5-1-0.9-1.6-1.3
					c-0.5-0.4-1.1-0.8-1.7-1.1c-0.6-0.3-1.2-0.6-1.8-0.8c-0.3-0.1-0.6-0.2-0.8-0.3c-0.3-0.1-0.6-0.1-0.9-0.2c-0.3-0.1-0.7-0.1-1-0.1
					c-0.1,0-0.1,0-0.2,0c-0.1,0-0.1,0-0.2,0c-0.2,0-0.4,0-0.6,0c0,0,0,0,0,0c0,0-0.1,0-0.2,0c-0.9,0-4.8,0.1-7.7,2.7
					c-0.2,0.2-0.5,0.5-0.7,0.7c-0.8,0.8-1.7,1.8-2.6,2.9c-2.4,3-4.2,5.8-4.2,5.8c0,0,0,0,0,0c-1.8-2.8-4.1-5.9-6.9-8.8
					c-0.3-0.3-0.6-0.6-0.9-0.9c-0.5-0.4-1.1-0.8-1.7-1.1c-0.1,0-0.2-0.1-0.3-0.1c-0.6-0.3-1.2-0.5-1.9-0.7c-0.5-0.2-1.1-0.3-1.6-0.4
					c-0.4-0.1-0.8-0.1-1.3-0.1c-0.2,0-0.5,0-0.7,0c-0.1,0-0.1,0-0.2,0c-0.4,0-0.9,0-1.3,0.1c-0.4,0.1-0.9,0.1-1.3,0.3
					c-0.4,0.1-0.9,0.2-1.3,0.4c-0.4,0.2-0.8,0.3-1.2,0.5c-0.4,0.2-0.8,0.4-1.2,0.7c-0.4,0.2-0.7,0.5-1.1,0.8c-0.4,0.3-0.7,0.6-1,0.9
					c-0.2,0.2-0.3,0.3-0.5,0.5c-0.2,0.2-0.4,0.5-0.6,0.7c-0.1,0.1-0.2,0.2-0.3,0.3c0,0.1-0.1,0.1-0.1,0.2c0,0,0,0.1-0.1,0.1
					c0,0-0.1,0.1-0.1,0.1c-0.1,0.2-0.2,0.3-0.4,0.5c-0.2,0.3-0.5,0.7-0.7,1.1c-0.2,0.4-0.5,0.9-0.7,1.3c-0.1,0.2-0.2,0.5-0.3,0.7
					c0,0,0,0,0,0.1c-0.1,0.2-0.2,0.4-0.3,0.7c0,0,0,0.1,0,0.1c-0.1,0.2-0.2,0.4-0.2,0.7c0,0,0,0.1,0,0.1c-0.1,0.3-0.2,0.6-0.3,0.9
					c-0.1,0.2-0.1,0.4-0.2,0.7c0,0,0,0,0,0c-0.1,0.2-0.1,0.4-0.1,0.7c0,0,0,0.1,0,0.1c-1.1,5.3-0.9,12.7,5.8,18.8
					c0.2,0.2,0.5,0.4,0.8,0.6c0.3,0.2,0.5,0.4,0.8,0.5c0.3,0.2,0.5,0.3,0.8,0.4c0.3,0.1,0.5,0.2,0.8,0.3c0.3,0.1,0.5,0.2,0.8,0.3
					c0.2,0.1,0.5,0.1,0.7,0.2c0.7,0.2,1.4,0.3,2.1,0.3c0.7,0,1.4,0,2.1-0.1c0.6-0.1,1.2-0.2,1.8-0.3c0.2-0.1,0.5-0.1,0.7-0.2
					c0.2-0.1,0.5-0.1,0.7-0.2c0.2-0.1,0.5-0.2,0.7-0.3c0.2-0.1,0.5-0.2,0.7-0.3c0.2-0.1,0.5-0.3,0.7-0.4c0.2-0.1,0.5-0.3,0.7-0.5
					c0.2-0.2,0.5-0.4,0.7-0.6c0.1-0.1,0.2-0.2,0.3-0.2c0.1-0.1,0.2-0.2,0.2-0.3c1.6-1.4,4.7-5.7,6.9-8.9c0,0.1,0.7,1,0.7,1.1
					c0.3,0.4,0.6,0.8,0.8,1.2c0.4,0.7,1,1.3,1.4,2c1,1.3,2,2.7,3.2,3.8c0.8,0.8,1.6,1.5,2.6,2.1c2.9,1.8,6.5,2.3,9.7,1.5
					c0.7-0.2,1.3-0.4,1.9-0.7c2.1-0.9,3.9-2.6,5.3-4.5c3.1-4.5,4.3-10.2,3.2-15.7C150.1,53.3,149.8,52,149.3,50.7z M111.5,67.3
					c-0.2,0.1-0.3,0.3-0.5,0.4c-0.1,0.1-0.2,0.2-0.4,0.3c-1.1,0.7-2.4,1.1-3.7,1.2c-1,0.1-2,0-2.9-0.2c-0.1,0-0.3-0.1-0.4-0.1
					c-0.1,0-0.2-0.1-0.3-0.1c-0.2-0.1-0.3-0.2-0.5-0.2c-0.2-0.1-0.3-0.2-0.5-0.3c-0.2-0.1-0.3-0.2-0.5-0.3c-0.2-0.1-0.3-0.2-0.4-0.3
					c-0.1-0.1-0.3-0.2-0.4-0.4c-0.1-0.1-0.3-0.3-0.4-0.4c-0.1-0.1-0.3-0.3-0.4-0.4c-0.1-0.1-0.2-0.3-0.4-0.5
					c-0.1-0.2-0.2-0.3-0.3-0.5c-0.1-0.2-0.2-0.3-0.3-0.5c-0.1-0.2-0.2-0.3-0.3-0.5c-0.1-0.2-0.2-0.4-0.3-0.6
					c-0.1-0.2-0.2-0.4-0.2-0.6c-0.1-0.2-0.1-0.4-0.2-0.6c-0.1-0.2-0.1-0.4-0.2-0.6c-0.1-0.2-0.1-0.4-0.2-0.6c0-0.2-0.1-0.4-0.1-0.6
					c0-0.2-0.1-0.4-0.1-0.7c0-0.2,0-0.4-0.1-0.7c0-0.2,0-0.5,0-0.7c0-0.1,0-0.2,0-0.3c0-6.8,6.1-13.8,12.9-9.5
					c1.1,0.7,2,1.6,2.8,2.6c1.7,2.2,3.4,4.5,4.9,6.8c-0.8,1.2-1.6,2.4-2.4,3.5c-0.7,1-1.4,1.9-2.1,2.8
					C113,65.8,112.3,66.6,111.5,67.3z M140.8,68.2c-1.2,0.7-2.4,0.9-3.3,1.1c-0.8,0.1-1.7,0.1-2.5-0.1c-0.8-0.2-1.6-0.5-2.3-0.9
					c-0.7-0.5-1.4-1.1-2-1.7c-0.5-0.5-0.9-1.1-1.4-1.6c-0.5-0.6-1-1.3-1.5-1.9c-0.5-0.8-1.1-1.5-1.6-2.3c-0.1-0.2-0.2-0.3-0.3-0.5
					c-0.3-0.5-0.7-1-1-1.6c1.9-2.9,3.9-5.9,6.3-8.4c0.9-0.9,1.9-1.6,3.1-1.9l0,0c1.7-0.5,3.7-0.6,5.4,0.2c1.2,0.5,2.2,1.3,3.1,2.3
					c1.8,2.1,2.7,5,2.7,7.8C145.5,62.8,143.6,66.4,140.8,68.2z"/>
			</g>
			<path class="st5" d="M148.5,48.6c-0.5-1.2-1.1-2.3-1.8-3.4c-0.5-0.8-1.1-1.5-1.8-2.2c-0.5-0.5-1-0.9-1.6-1.3
				c-0.5-0.4-1.1-0.8-1.7-1.1c-0.6-0.3-1.2-0.6-1.8-0.8c-0.3-0.1-0.6-0.2-0.8-0.3c-0.3-0.1-0.6-0.1-0.9-0.2c-0.3-0.1-0.7-0.1-1-0.1
				c-0.1,0-0.1,0-0.2,0c-0.1,0-0.1,0-0.2,0c-0.2,0-0.4,0-0.6,0c0,0,0,0,0,0c0,0-0.1,0-0.2,0c-0.9,0-4.8,0.1-7.7,2.7
				c-0.2,0.2-0.5,0.5-0.7,0.7c-0.8,0.8-1.7,1.8-2.6,2.9c-2.4,3-4.2,5.8-4.2,5.8c0,0,0,0,0,0c-1.8-2.8-4.1-5.9-6.9-8.8
				c-0.3-0.3-0.6-0.6-0.9-0.9c-0.5-0.4-1.1-0.8-1.7-1.1c-0.1,0-0.2-0.1-0.3-0.1c-0.6-0.3-1.2-0.5-1.9-0.7c-0.5-0.2-1.1-0.3-1.6-0.4
				c-0.4-0.1-0.8-0.1-1.3-0.1c-0.2,0-0.5,0-0.7,0c-0.1,0-0.1,0-0.2,0c-0.4,0-0.9,0-1.3,0.1c-0.4,0.1-0.9,0.1-1.3,0.3
				c-0.4,0.1-0.9,0.2-1.3,0.4c-0.4,0.2-0.8,0.3-1.2,0.5c-0.4,0.2-0.8,0.4-1.2,0.7c-0.4,0.2-0.7,0.5-1.1,0.8c-0.4,0.3-0.7,0.6-1,0.9
				c-0.2,0.2-0.3,0.3-0.5,0.5c-0.2,0.2-0.4,0.5-0.6,0.7c-0.1,0.1-0.2,0.2-0.3,0.3c0,0.1-0.1,0.1-0.1,0.2c0,0,0,0.1-0.1,0.1
				c0,0-0.1,0.1-0.1,0.1c-0.1,0.2-0.2,0.3-0.4,0.5c-0.2,0.3-0.5,0.7-0.7,1.1c-0.2,0.4-0.5,0.9-0.7,1.3c-0.1,0.2-0.2,0.5-0.3,0.7
				c0,0,0,0,0,0.1c-0.1,0.2-0.2,0.4-0.3,0.7c0,0,0,0.1,0,0.1c-0.1,0.2-0.2,0.4-0.2,0.7c0,0,0,0.1,0,0.1c-0.1,0.3-0.2,0.6-0.3,0.9
				c-0.1,0.2-0.1,0.4-0.2,0.7c0,0,0,0,0,0c-0.1,0.2-0.1,0.4-0.1,0.7c0,0,0,0.1,0,0.1C90.8,57.5,91,64.9,97.7,71
				c0.2,0.2,0.5,0.4,0.8,0.6c0.3,0.2,0.5,0.4,0.8,0.5c0.3,0.2,0.5,0.3,0.8,0.4c0.3,0.1,0.5,0.2,0.8,0.3c0.3,0.1,0.5,0.2,0.8,0.3
				c0.2,0.1,0.5,0.1,0.7,0.2c0.7,0.2,1.4,0.3,2.1,0.3c0.7,0,1.4,0,2.1-0.1c0.6-0.1,1.2-0.2,1.8-0.3c0.2-0.1,0.5-0.1,0.7-0.2
				c0.2-0.1,0.5-0.1,0.7-0.2c0.2-0.1,0.5-0.2,0.7-0.3c0.2-0.1,0.5-0.2,0.7-0.3c0.2-0.1,0.5-0.3,0.7-0.4c0.2-0.1,0.5-0.3,0.7-0.5
				c0.2-0.2,0.5-0.4,0.7-0.6c0.1-0.1,0.2-0.2,0.3-0.2c0.1-0.1,0.2-0.2,0.2-0.3c1.6-1.4,4.7-5.7,6.9-8.9c0,0.1,0.7,1,0.7,1.1
				c0.3,0.4,0.6,0.8,0.8,1.2c0.4,0.7,1,1.3,1.4,2c1,1.3,2,2.7,3.2,3.8c0.8,0.8,1.6,1.5,2.6,2.1c2.9,1.8,6.5,2.3,9.7,1.5
				c0.7-0.2,1.3-0.4,1.9-0.7c2.1-0.9,3.9-2.6,5.3-4.5c3.1-4.5,4.3-10.2,3.2-15.7C149.4,51.1,149,49.8,148.5,48.6z M110.7,65.2
				c-0.2,0.1-0.3,0.3-0.5,0.4c-0.1,0.1-0.2,0.2-0.4,0.3c-1.1,0.7-2.4,1.1-3.7,1.2c-1,0.1-2,0-2.9-0.2c-0.1,0-0.3-0.1-0.4-0.1
				c-0.1,0-0.2-0.1-0.3-0.1c-0.2-0.1-0.3-0.2-0.5-0.2c-0.2-0.1-0.3-0.2-0.5-0.3c-0.2-0.1-0.3-0.2-0.5-0.3c-0.2-0.1-0.3-0.2-0.4-0.3
				c-0.1-0.1-0.3-0.2-0.4-0.4c-0.1-0.1-0.3-0.3-0.4-0.4c-0.1-0.1-0.3-0.3-0.4-0.4c-0.1-0.1-0.2-0.3-0.4-0.5
				c-0.1-0.2-0.2-0.3-0.3-0.5c-0.1-0.2-0.2-0.3-0.3-0.5c-0.1-0.2-0.2-0.3-0.3-0.5c-0.1-0.2-0.2-0.4-0.3-0.6
				c-0.1-0.2-0.2-0.4-0.2-0.6c-0.1-0.2-0.1-0.4-0.2-0.6c-0.1-0.2-0.1-0.4-0.2-0.6c-0.1-0.2-0.1-0.4-0.2-0.6c0-0.2-0.1-0.4-0.1-0.6
				c0-0.2-0.1-0.4-0.1-0.7c0-0.2,0-0.4-0.1-0.7c0-0.2,0-0.5,0-0.7c0-0.1,0-0.2,0-0.3c0-6.8,6.1-13.8,12.9-9.5c1.1,0.7,2,1.6,2.8,2.6
				c1.7,2.2,3.4,4.5,4.9,6.8c-0.8,1.2-1.6,2.4-2.4,3.5c-0.7,1-1.4,1.9-2.1,2.8C112.2,63.6,111.5,64.5,110.7,65.2z M140,66
				c-1.2,0.7-2.4,0.9-3.3,1.1c-0.8,0.1-1.7,0.1-2.5-0.1c-0.8-0.2-1.6-0.5-2.3-0.9c-0.7-0.5-1.4-1.1-2-1.7c-0.5-0.5-0.9-1.1-1.4-1.6
				c-0.5-0.6-1-1.3-1.5-1.9c-0.5-0.8-1.1-1.5-1.6-2.3c-0.1-0.2-0.2-0.3-0.3-0.5c-0.3-0.5-0.7-1-1-1.6c1.9-2.9,3.9-5.9,6.3-8.4
				c0.9-0.9,1.9-1.6,3.1-1.9l0,0c1.7-0.5,3.7-0.6,5.4,0.2c1.2,0.5,2.2,1.3,3.1,2.3c1.8,2.1,2.7,5,2.7,7.8
				C144.8,60.6,142.8,64.3,140,66z"/>
		</g>
	</g>
	<g>
		<path class="st6" d="M61.3,9.9h88.5c3,0,5.4,1.2,5.4,2.7v14.1H41.3l14.3-15.1C56.7,10.6,58.9,9.9,61.3,9.9z"/>
		<path class="st7" d="M155.3,28H41.3c-1.4,0-2.5-0.6-2.5-1.3c0-0.2,0.1-0.4,0.2-0.5l14.3-15.1c1.5-1.5,4.5-2.5,7.9-2.5h88.5
			c4.4,0,7.9,1.8,8,4v14.2C157.8,27.4,156.6,28,155.3,28L155.3,28z M45.3,25.5h107.4V12.6c0-0.8-1.3-1.5-2.9-1.5H61.3
			c-1.4,0-2.8,0.4-3.4,1.1L45.3,25.5z"/>
		<g>
			<path class="st8" d="M204.7,26v15.1c0,1-0.7,2-2.2,2.7c-3,1.5-7.9,1.5-10.9,0c-1.4-0.7-2.2-1.7-2.2-2.7v-2.8
				c0-1.6-2.6-2.9-5.7-2.9c-3.2,0-5.7-1.3-5.7-2.9V26L204.7,26z"/>
			<path class="st9" d="M204.7,26V33c-0.7,0-1.3-0.1-2-0.2c-5.3,2-12.6,2.3-18.4,0.6c-1.7,0.4-3.5,0.8-5.4,0.9
				c-0.7-0.5-1.1-1.1-1.1-1.7V26H204.7z"/>
			<path class="st2" d="M197,46.2c-5.6,0-10.2-2.3-10.2-5.1v0v-2.8c0-0.9-1.4-1.6-3.2-1.6c-4.6,0-8.3-1.8-8.3-4.1V26
				c0-0.7,1.1-1.3,2.5-1.3h26.9c1.4,0,2.5,0.6,2.5,1.3v15.1C207.2,44,202.6,46.2,197,46.2L197,46.2L197,46.2z M180.3,27.3v5.4
				c0,0.9,1.4,1.6,3.2,1.6c4.6,0,8.3,1.8,8.3,4.1v2.8c0,1.4,2.3,2.6,5.2,2.6c2.9,0,5.2-1.2,5.2-2.6V27.3L180.3,27.3z"/>
		</g>
		<path class="st9" d="M218,25.2c-1.8,3.8-9.3,6.2-16.9,5.3c-2.9-0.3-5.5-1.1-7.5-2.3c-2.6,3.2-9.9,4.8-16.3,3.5
			c-3.4-0.7-6-2.1-7.2-3.8h-1.7c-3.9,1.7-9.6,1.7-13.7,0.2c-2.2,2.3-7.7,3.2-12.3,2.1c-1.7-0.4-3-1-3.9-1.8c-3.3,2.3-9.5,3-14.4,1.7
			c-2.6,4.8-12.4,7.6-22.1,6.4c-7.4-1-12.8-4.2-13.3-8.1c-3.2,2.9-10.4,3.9-16.1,2.3c-2-0.5-3.6-1.3-4.7-2.3
			c-3.2,3.7-11.8,5.4-19.2,3.8c-3.1-0.7-5.6-1.9-7.2-3.3c-0.8-0.8-1.9-1.4-3.3-1.9c-5.5-1.8-7.6-5.3-5-8.3L42.6,7
			c2.9-3.5,9.7-5.8,17.3-5.8h124.5c7.7,0,14.6,2.3,17.4,5.9l7.9,10C216,18.6,219.5,21.9,218,25.2L218,25.2z"/>
		<path class="st8" d="M218,25.2c-1.8,3.8-9.3,6.2-16.9,5.3c-2.9-0.3-5.5-1.1-7.5-2.3c-2.6,3.2-9.9,4.8-16.3,3.5
			c-3.4-0.7-6-2.1-7.2-3.8h-1.7c-3.9,1.7-9.6,1.7-13.7,0.2c-2.2,2.3-7.7,3.2-12.3,2.1c-1.7-0.4-3-1-3.9-1.8c-3.3,2.3-9.5,3-14.4,1.7
			c-2.6,4.8-12.4,7.6-22.1,6.4c-7.4-1-12.8-4.2-13.3-8.1c-3.2,2.9-10.4,3.9-16.1,2.3c-2-0.5-3.6-1.3-4.7-2.3c-1.1,1.3-3,2.4-5.3,3.2
			c-5-1.6-4.4-3.4-8.3-4.6c-5.5-1.8-7.7-5.3-5.2-8.3l9.5-11.5c2.9-3.5,9.7-5.8,17.4-5.9h108.5c7.7,0,14.6,2.3,17.4,5.9l7.9,10
			C216,18.6,219.5,21.9,218,25.2L218,25.2z"/>
		<path class="st10" d="M201.5,16.6c-0.9,1.8-4.5,3-8.2,2.5c-0.4,0-0.7-0.1-1.1-0.2c-1.5-0.3-3.1-0.2-4.3,0.4
			c-2.5,1.1-6.3,0.9-8.4-0.4c-0.5-0.3-0.9-0.7-1.1-1h-0.8c-1.2,0.5-2.9,0.7-4.5,0.6c-3.2-0.4-3.2,0.8-6,0.8c-0.7,0-1.4-0.1-2-0.2
			c-1.2-0.3-2.6-0.3-3.8,0c-0.8,0.2-1.6,0.3-2.5,0.3c-1.5,0-2.9,0.3-3.6,1c-2.7,2-8.1,2.5-12,1.2c-0.9-0.3-1.7-0.7-2.4-1.2
			c-1-0.8-2.9-1.1-4.7-0.8c-2.4,0.4-5.1-0.1-6.5-1.1c-0.1-0.1-0.3-0.1-0.4-0.1c0,0-0.1,0-0.1,0.1c-0.5,0.6-2,0.9-3.3,0.7
			c-0.6-0.1-1.1-0.4-1.3-0.7c-0.4-0.4-0.9-0.7-1.7-0.9c-2.7-0.9-3.7-2.6-2.5-4l4.6-5.5c1.4-1.7,4.7-2.8,8.4-2.8h52.3
			c3.7,0,7,1.1,8.4,2.9l3.8,4.8C200.6,13.3,202.2,15,201.5,16.6z"/>
		<path class="st10" d="M146.9,18.1c-2.6-2-7.4-2.9-12-2.4c-1.5-0.8-3.5-1.2-5.7-1.3c-1.9,0-1.3,0.2-1.8,0l4.3-5.2
			c0.2-0.3,0.8-0.5,1.4-0.5h52.3c0.6,0,1.1,0.2,1.4,0.5l4.6,5.8c-2.2-0.1-4.4,0.2-6.3,0.7l-1.1-1.6h-9.1l-1.3,0.6
			c-2.3-0.1-4.7,0.1-6.8,0.6c-2.8-0.5-5.8-0.4-8.5,0.2c-3.8,0.1-7.3,1.1-9.4,2.7c-0.3,0.3-1,0.4-1.5,0.2
			C147.2,18.3,147,18.2,146.9,18.1L146.9,18.1z"/>
		<path class="st6" d="M193.7,7.9c-1.4-1.7-4.7-2.8-8.4-2.9h-25.5c-2.1,0-3.8,0.8-3.8,1.9s1.7,1.9,3.8,1.9h25.5
			c0.6,0,1.1,0.2,1.4,0.5l1.6,2.1c0.8,1,3,1.4,4.9,1.1c1.9-0.4,2.9-1.5,2.1-2.4l0,0L193.7,7.9z"/>
		<path class="st2" d="M106.6,38c-8.8,0-16.5-2.8-19.4-6.9c-5.7,2.3-13.9,2-19-0.5c-5.6,3.8-16.4,4.6-23.9,1.7
			c-2.1-0.8-3.8-1.8-4.9-2.9c-0.6-0.6-1.4-1.1-2.5-1.5c-6.5-2.1-9.1-6.3-6.2-9.9L40,6.6C43.3,2.6,51.1,0,59.7,0h124.7
			c8.7,0,16.6,2.7,19.8,6.7l7.5,9.5c8.1,2.1,11.3,7.2,7,11.2c-4.3,4.1-14.3,5.6-22.5,3.5c-0.7-0.2-1.5-0.4-2.1-0.7
			c-4.6,3.4-13.9,4.3-20.7,2c-2.1-0.7-3.9-1.7-5-2.9c-3.9,1.3-8.9,1.4-13.1,0.4c-4.1,2.5-11.4,2.8-16.4,0.8
			c-0.3-0.1-0.5-0.2-0.7-0.3c-3.5,1.5-8.3,2-12.7,1.4C122.3,35.5,114.9,37.9,106.6,38L106.6,38z M91.2,28.3
			c0.6,4.3,7.9,7.5,16.5,7.2c6.6-0.2,12.3-2.5,14-5.7c0.3-0.7,1.7-1.1,3.1-0.9c0.2,0,0.4,0.1,0.5,0.1c3.8,1,8.6,0.5,11.2-1.3
			c0.8-0.6,2.4-0.7,3.5-0.3c0.3,0.1,0.5,0.2,0.7,0.4c1.9,1.6,5.9,2.1,9.1,1.2c1.2-0.3,2.1-0.9,2.7-1.5c0.3-0.3,1-0.6,1.7-0.7
			c2.3-0.3,2.8,1.1,7.2,1.1c2,0,3.9-0.4,5.4-1c0.8-0.3,1.4-0.3,3.3-0.3c1.1,0,2.2,0.3,2.5,0.9c1.8,2.6,7.6,4,12.8,3.1
			c2.7-0.5,4.9-1.5,6-2.8c0.5-0.6,1.9-1,3.2-0.7c0.4,0.1,0.7,0.2,1,0.4c4.2,2.4,11.5,2.7,16.3,0.6c4.8-2.1,5.4-5.7,1.2-8.1
			c-1.1-0.7-2.6-1.2-4.2-1.5c-0.6-0.1-1.1-0.4-1.3-0.7l-8-10c-2.4-3.1-8.4-5.1-15.1-5.1H59.7c-6.6,0-12.6,2-15.1,5L35.2,19
			c-2,2.5-0.3,5.3,4.2,6.8c1.8,0.6,3.3,1.4,4.3,2.4c3.1,3,10.4,4.1,16.3,2.5c2.5-0.6,4.4-1.7,5.5-3c0.6-0.6,2-0.9,3.3-0.7
			c0.5,0.1,0.9,0.3,1.2,0.5c2.5,2.3,8.1,3.1,12.6,1.9c1.6-0.4,2.9-1.1,3.7-1.9c0.7-0.6,2.2-0.8,3.4-0.5
			C90.6,27.4,91.1,27.8,91.2,28.3L91.2,28.3z"/>
	</g>
	<g>
		<path class="st9" d="M224.5,89.6c-4,0-4.7,3.5-9.7,3.5c-5,0-5.8-3.5-9.7-3.5h-0.8c-3.8,0-6.9,3-6.9,6.8c0,2,0.9,3.9,2.4,5.3
			c8.7,7.6,21.7,7.6,30.5,0c2.9-2.5,3.1-6.9,0.6-9.8c-1.3-1.5-3.2-2.3-5.2-2.3H224.5z"/>
		<path class="st9" d="M49.4,89.6c-3.9,0-4.7,3.5-9.7,3.5s-5.8-3.5-9.7-3.5h-1c-3.8,0-6.9,3-6.9,6.8c0,2,0.9,3.9,2.4,5.3
			c8.7,7.6,21.7,7.6,30.5,0c2.9-2.5,3.1-6.9,0.6-9.8c-1.3-1.5-3.2-2.3-5.2-2.3H49.4z"/>
		<path class="st8" d="M2.4,107.4l2.6-5.1c2.3-4.2,6.4-6.9,11.2-7.4l16.9-1.6c3.4-0.3,6.9,0.6,9.7,2.6l15.5,11.2L2.4,107.4z"/>
		<path class="st8" d="M74.5,107.4l8.7-7.7c11.8-10.3,24.3-3.7,34.9-5.1c26-3.3,28.5-4.2,35.3-2.8c18.3,3.4,20,4.1,25.2,3.8
			c26.2-1.4,18.6-2.6,53.1,11.8L74.5,107.4z"/>
		<path class="st2" d="M58.7,110h-56c-1.4,0-2.6-1.2-2.6-2.6c0-0.4,0.1-0.9,0.3-1.3l2.6-5c2.7-4.9,7.7-8.2,13.3-8.7l16.9-1.6
			c4.1-0.3,8.1,0.8,11.4,3.1l15.5,11.2c1.2,0.8,1.4,2.5,0.6,3.7C60.2,109.6,59.5,110,58.7,110L58.7,110z M7.1,104.8h43.5l-9-6.5
			c-2.3-1.6-5.1-2.4-7.9-2.1l-16.9,1.6c-3.8,0.4-7.3,2.6-9.1,6L7.1,104.8z"/>
		<path class="st2" d="M231.9,110H74.7c-1.4,0-2.6-1.2-2.6-2.6c0-0.8,0.3-1.5,0.9-2l8.7-7.6c5.4-4.7,12.6-7.1,19.7-6.5
			c17.9,1.4,9.3,1.8,41.7-2.4c7.3-1,11.2,0.3,28.5,3.6c4.8,0.9,7.3,0.5,22-0.3c5.3-0.3,10.6,0.6,15.5,2.6l24,10.1
			c1.3,0.5,2,2,1.5,3.4C234.1,109.4,233.1,110.1,231.9,110z M81.7,104.8H219c-11.4-4.8-16.6-7.9-25.1-7.3
			c-22.7,1.2-15.7,1.7-40.6-3.1c-3.1-0.6-6.3-0.7-9.4-0.3c-32.9,4.3-24.1,3.9-42.8,2.4c-5.7-0.4-11.4,1.5-15.7,5.2L81.7,104.8z"/>
		<path class="st2" d="M248.6,110H58.7c-1.4,0-2.6-1.2-2.6-2.6c0-1.4,1.2-2.6,2.6-2.6h189.9c1.4,0,2.6,1.2,2.6,2.6
			C251.2,108.8,250,110,248.6,110z"/>
	</g>
	<circle class="st2" cx="28.8" cy="58.1" r="1.4"/>
	<circle class="st2" cx="211.6" cy="45.6" r="1.4"/>
	<g>
		<g>
			<g>
				<circle class="st0" cx="64.8" cy="8.8" r="7.1"/>
			</g>
		</g>
		<g>
			<g>
				<path class="st1" d="M64.8,1.8c-1,0-1.9,0.2-2.7,0.5c2.5,1.1,4.3,3.6,4.3,6.5s-1.8,5.5-4.3,6.5c0.8,0.3,1.8,0.5,2.7,0.5
					c3.9,0,7.1-3.2,7.1-7.1S68.7,1.8,64.8,1.8z"/>
			</g>
		</g>
		<path class="st2" d="M73.2,8.8c0-4.6-3.8-8.4-8.4-8.4c-4.6,0-8.4,3.8-8.4,8.4s3.8,8.4,8.4,8.4C69.5,17.2,73.2,13.5,73.2,8.8z
			 M59.1,8.8c0-3.1,2.6-5.7,5.7-5.7c3.1,0,5.7,2.6,5.7,5.7s-2.6,5.7-5.7,5.7C61.7,14.5,59.1,12,59.1,8.8z"/>
	</g>
	<g>
		<g>
			<g>
				<circle class="st0" cx="219" cy="69.5" r="6"/>
			</g>
		</g>
		<g>
			<g>
				<path class="st1" d="M219,63.5c-1,0-1.9,0.2-2.7,0.6c2,1,3.3,3,3.3,5.4c0,2.3-1.3,4.4-3.3,5.4c0.8,0.4,1.7,0.6,2.7,0.6
					c3.3,0,6-2.7,6-6C225,66.2,222.3,63.5,219,63.5L219,63.5z"/>
			</g>
		</g>
		<path class="st2" d="M219,76.9c4.1,0,7.4-3.3,7.4-7.4c0-4.1-3.3-7.4-7.4-7.4c-0.8,0-1.4,0.6-1.4,1.4c0,0.8,0.6,1.4,1.4,1.4
			c2.6,0,4.7,2.1,4.7,4.7c0,2.6-2.1,4.7-4.7,4.7c-2.6,0-4.7-2.1-4.7-4.7c0-0.9,0.2-1.7,0.7-2.5c0.4-0.6,0.2-1.5-0.4-1.9
			c-0.6-0.4-1.5-0.2-1.9,0.4c-0.7,1.2-1.1,2.5-1.1,3.9C211.6,73.6,214.9,76.9,219,76.9L219,76.9z"/>
	</g>
	<g>
		<g>
			<g>
				<circle class="st0" cx="197.3" cy="94.5" r="6"/>
			</g>
		</g>
		<g>
			<g>
				<path class="st1" d="M197.3,88.5c-1,0-1.9,0.2-2.7,0.6c2,1,3.3,3,3.3,5.4c0,2.3-1.3,4.4-3.3,5.4c0.8,0.4,1.7,0.6,2.7,0.6
					c3.3,0,6-2.7,6-6C203.3,91.2,200.6,88.5,197.3,88.5L197.3,88.5z"/>
			</g>
		</g>
		<path class="st2" d="M197.3,101.9c4.1,0,7.4-3.3,7.4-7.4c0-4.1-3.3-7.4-7.4-7.4c-0.8,0-1.4,0.6-1.4,1.4c0,0.8,0.6,1.4,1.4,1.4
			c2.6,0,4.7,2.1,4.7,4.7c0,2.6-2.1,4.7-4.7,4.7c-2.6,0-4.7-2.1-4.7-4.7c0-0.9,0.2-1.7,0.7-2.5c0.4-0.6,0.2-1.5-0.4-1.9
			c-0.6-0.4-1.5-0.2-1.9,0.4c-0.7,1.2-1.1,2.5-1.1,3.9C189.9,98.6,193.2,101.9,197.3,101.9L197.3,101.9z"/>
	</g>
	<g>
		<g>
			<g>
				<circle class="st0" cx="218.3" cy="16.9" r="4.6"/>
			</g>
		</g>
		<g>
			<g>
				<path class="st1" d="M218.3,12.3c-1,0-2,0.3-2.7,0.9c1.1,0.8,1.8,2.2,1.8,3.7c0,1.5-0.7,2.8-1.8,3.7c0.8,0.6,1.7,0.9,2.7,0.9
					c2.5,0,4.6-2,4.6-4.6C222.9,14.3,220.9,12.3,218.3,12.3z"/>
			</g>
		</g>
		<path class="st2" d="M221.8,13.6c-0.7,0.3-0.9,1.2-0.6,1.8c0.2,0.4,0.3,0.9,0.3,1.4c0,1.8-1.4,3.2-3.2,3.2c-1.8,0-3.2-1.4-3.2-3.2
			c0-1.8,1.4-3.2,3.2-3.2c0.8,0,1.4-0.6,1.4-1.4s-0.6-1.4-1.4-1.4c-3.3,0-5.9,2.7-5.9,5.9s2.7,5.9,5.9,5.9c3.3,0,5.9-2.7,5.9-5.9
			c0-0.9-0.2-1.8-0.6-2.7C223.3,13.5,222.5,13.3,221.8,13.6z"/>
	</g>
	<g>
		<g>
			<g>
				<circle class="st0" cx="197.6" cy="4.9" r="3.6"/>
			</g>
		</g>
		<path class="st2" d="M197.6,0c-2.7,0-4.9,2.2-4.9,4.9s2.2,4.9,4.9,4.9s4.9-2.2,4.9-4.9S200.4,0,197.6,0z M197.6,7.2
			c-1.2,0-2.2-1-2.2-2.2s1-2.2,2.2-2.2c1.2,0,2.2,1,2.2,2.2S198.9,7.2,197.6,7.2z"/>
	</g>
	<g>
		<g>
			<g>
				<ellipse class="st0" cx="228.4" cy="43.8" rx="4.2" ry="4.2"/>
			</g>
		</g>
		<path class="st2" d="M234,43.8c0-3.1-2.5-5.6-5.6-5.6c-3.1,0-5.6,2.5-5.6,5.6s2.5,5.6,5.6,5.6C231.5,49.4,234,46.9,234,43.8z
			 M228.5,46.7c-1.6,0-2.8-1.3-2.8-2.8c0-1.6,1.3-2.8,2.8-2.8s2.8,1.3,2.8,2.8C231.3,45.4,230,46.7,228.5,46.7z"/>
	</g>
	<g>
		<g>
			<g>
				<circle class="st0" cx="45.3" cy="5.7" r="4.2"/>
			</g>
		</g>
		<path class="st2" d="M45.3,0.2c-3.1,0-5.6,2.5-5.6,5.6c0,3.1,2.5,5.6,5.6,5.6s5.6-2.5,5.6-5.6C50.9,2.7,48.4,0.2,45.3,0.2
			L45.3,0.2z M45.3,8.6c-1.6,0-2.8-1.3-2.8-2.8s1.3-2.8,2.8-2.8c1.6,0,2.8,1.3,2.8,2.8C48.2,7.3,46.9,8.6,45.3,8.6L45.3,8.6z"/>
	</g>
	<g>
		<g>
			<g>
				<circle class="st0" cx="38.8" cy="8" r="2.8"/>
			</g>
		</g>
		<path class="st2" d="M38.8,4.3c-2,0-3.7,1.6-3.7,3.7c0,2,1.6,3.7,3.7,3.7S42.5,10,42.5,8C42.5,5.9,40.8,4.3,38.8,4.3L38.8,4.3z
			 M38.8,9.8c-1,0-1.9-0.8-1.9-1.9s0.8-1.9,1.9-1.9s1.9,0.8,1.9,1.9C40.7,9,39.8,9.8,38.8,9.8L38.8,9.8z"/>
	</g>
	<g>
		<g>
			<g>
				<circle class="st0" cx="150" cy="5.7" r="3.6"/>
			</g>
		</g>
		<path class="st2" d="M150,0.8c-2.7,0-4.9,2.2-4.9,4.9s2.2,4.9,4.9,4.9c2.7,0,4.9-2.2,4.9-4.9C154.9,3,152.7,0.8,150,0.8z M150,8
			c-1.2,0-2.2-1-2.2-2.2s1-2.2,2.2-2.2c1.2,0,2.2,1,2.2,2.2S151.2,8,150,8z"/>
	</g>
</g>
</svg>
