<?xml version="1.0" encoding="utf-8"?>
<!-- Generator: Adobe Illustrator 25.0.0, SVG Export Plug-In . SVG Version: 6.00 Build 0)  -->
<svg version="1.1" id="Layer_1" xmlns="http://www.w3.org/2000/svg" xmlns:xlink="http://www.w3.org/1999/xlink" x="0px" y="0px"
	 viewBox="0 0 186.6 110" style="enable-background:new 0 0 186.6 110;" xml:space="preserve">
<style type="text/css">
	.st0{fill:#F6C560;}
	.st1{opacity:4.000000e-02;}
	.st2{fill:#35414D;}
	.st3{fill:#FF6666;}
	.st4{fill:#F4F4F4;}
	.st5{fill:#E8E8E8;}
	.st6{fill:#5994CE;}
	.st7{fill:#4C7EB0;}
	.st8{fill:#FA5D72;}
	.st9{fill:#F6D867;}
	.st10{fill:#2CAB72;}
	.st11{fill:#FF7D97;}
	.st12{fill:#009B3F;}
	.st13{fill:#8AA8BD;}
</style>
<g>
	<g>
		<g>
			<g>
				<g>
					<path class="st0" d="M152.8,7.9v84.5c0,3.3-2.5,6-5.3,6H7.4c-3.1,0-5.3-2.7-5.3-6V7.9c0-3.3,2.5-5.7,5.3-5.7h139.7
						C150.3,2.2,152.8,4.9,152.8,7.9L152.8,7.9z"/>
				</g>
				<g class="st1">
					<path d="M152.8,7.9v84.5c0,3.3-2.5,6-5.3,6H7.4c-2.8,0-5.3-2.7-5.3-6v-6.7h53.7c44.9,0,81.9-36.9,85.1-83.8h6.6
						C150.3,2.2,152.8,4.9,152.8,7.9L152.8,7.9z"/>
				</g>
			</g>
			<path class="st2" d="M7.4,100.5c-4.2,0-7.4-3.6-7.4-8.2V7.9C0,3.5,3.3,0,7.4,0h139.7c2.3,0,4.4,0.9,5.5,2.2c1.2,1.6,2,3.7,2,5.6
				v84.5c0,4.6-3.3,8.2-7.4,8.2H7.4z M4.2,92.3c0,1.8,1.3,3.8,3.2,3.8h139.7c2.2,0,3.6-1.5,3.6-3.8V7.1L84.1,56.5
				c-2.2,1.6-4.5,2.5-6.9,2.5c-2.3,0-4.9-0.9-6.9-2.5L4.2,7.1V92.3z M72.5,53c1.4,0.9,3,1.4,4.6,1.4c1.6,0,3.2-0.5,4.6-1.4L147,4.4
				h-16.6l-0.1,0.1c-1,0.1-5.4,0.2-21.6,0.2c0,0,0,0,0,0c-24.6,0-61.7-0.3-62-0.3H7.3L72.5,53z"/>
		</g>
		<polygon class="st0" points="49.5,44.8 56.5,36.7 69.2,46.5 74.5,50.1 99.4,37.8 104.4,46 95.5,52.9 81.3,64.8 59,52.9 		"/>
		<g>
			<g>
				<path class="st2" d="M103.7,47.5c-0.4-1.1-1-2.2-1.7-3.2c-0.5-0.7-1.1-1.4-1.7-2c-0.5-0.5-1-0.9-1.5-1.2c-0.5-0.4-1-0.7-1.6-1
					c-0.5-0.3-1.1-0.6-1.7-0.8c-0.3-0.1-0.5-0.2-0.8-0.2C94.5,39,94.3,39,94,38.9c-0.3-0.1-0.6-0.1-0.9-0.1c-0.1,0-0.1,0-0.2,0
					c-0.1,0-0.1,0-0.2,0c-0.2,0-0.4,0-0.6,0c0,0,0,0,0,0c0,0-0.1,0-0.2,0c-0.9,0-4.5,0.1-7.2,2.5c-0.2,0.2-0.5,0.4-0.7,0.7
					c-0.8,0.7-1.6,1.7-2.4,2.7c-2.3,2.8-3.9,5.5-3.9,5.5c0,0,0,0,0,0c-1.7-2.6-3.8-5.6-6.5-8.3c-0.3-0.3-0.6-0.6-0.9-0.8
					c-0.5-0.4-1.1-0.7-1.6-1c-0.1,0-0.2-0.1-0.2-0.1c-0.6-0.3-1.2-0.5-1.8-0.7c-0.5-0.1-1-0.3-1.5-0.3c-0.4-0.1-0.8-0.1-1.2-0.1
					c-0.2,0-0.5,0-0.7,0c-0.1,0-0.1,0-0.1,0c-0.4,0-0.8,0-1.3,0.1c-0.4,0.1-0.8,0.1-1.2,0.2c-0.4,0.1-0.8,0.2-1.2,0.4
					c-0.4,0.1-0.8,0.3-1.1,0.5c-0.4,0.2-0.7,0.4-1.1,0.6c-0.4,0.2-0.7,0.5-1,0.8c-0.3,0.3-0.7,0.6-1,0.9c-0.1,0.1-0.3,0.3-0.4,0.4
					c-0.2,0.2-0.4,0.4-0.6,0.7c-0.1,0.1-0.2,0.2-0.2,0.3c0,0.1-0.1,0.1-0.1,0.2c0,0,0,0-0.1,0.1c0,0-0.1,0.1-0.1,0.1
					c-0.1,0.2-0.2,0.3-0.3,0.5c-0.2,0.3-0.4,0.7-0.6,1c-0.2,0.4-0.5,0.8-0.7,1.2c-0.1,0.2-0.2,0.4-0.3,0.7c0,0,0,0,0,0.1
					c-0.1,0.2-0.2,0.4-0.3,0.6c0,0,0,0.1,0,0.1c-0.1,0.2-0.2,0.4-0.2,0.6c0,0,0,0.1,0,0.1c-0.1,0.3-0.2,0.5-0.3,0.8
					c-0.1,0.2-0.1,0.4-0.2,0.6c0,0,0,0,0,0c0,0.2-0.1,0.4-0.1,0.6c0,0,0,0.1,0,0.1c-1,5-0.8,11.9,5.5,17.6c0.2,0.2,0.5,0.4,0.7,0.6
					c0.2,0.2,0.5,0.3,0.7,0.5c0.2,0.1,0.5,0.3,0.7,0.4c0.2,0.1,0.5,0.2,0.7,0.3c0.2,0.1,0.5,0.2,0.7,0.2c0.2,0.1,0.5,0.1,0.7,0.2
					c0.6,0.2,1.3,0.2,1.9,0.3c0.7,0,1.3,0,2,0c0.6-0.1,1.1-0.2,1.6-0.3c0.2,0,0.4-0.1,0.6-0.2c0.2-0.1,0.4-0.1,0.7-0.2
					c0.2-0.1,0.5-0.2,0.7-0.3c0.2-0.1,0.5-0.2,0.7-0.3c0.2-0.1,0.5-0.2,0.7-0.4c0.2-0.1,0.4-0.3,0.7-0.4c0.2-0.2,0.4-0.3,0.6-0.5
					c0.1-0.1,0.2-0.1,0.2-0.2c0.1-0.1,0.1-0.2,0.2-0.2c1.5-1.4,4.4-5.4,6.5-8.3c0,0.1,0.6,1,0.7,1.1c0.3,0.4,0.5,0.7,0.8,1.1
					c0.4,0.6,0.9,1.2,1.4,1.8c0.9,1.3,1.9,2.5,3,3.6c0.7,0.8,1.5,1.4,2.4,2c2.7,1.7,6.1,2.2,9.1,1.4c0.6-0.2,1.2-0.4,1.8-0.7
					c2-0.9,3.7-2.4,4.9-4.2c2.9-4.2,4-9.6,3-14.7C104.5,49.9,104.2,48.7,103.7,47.5z M68.3,63.1c-0.1,0.1-0.3,0.2-0.4,0.4
					c-0.1,0.1-0.2,0.2-0.3,0.2c-1,0.7-2.3,1.1-3.5,1.1c-0.9,0.1-1.9,0-2.7-0.2c-0.1,0-0.2-0.1-0.4-0.1c-0.1,0-0.2-0.1-0.3-0.1
					c-0.2-0.1-0.3-0.1-0.5-0.2c-0.2-0.1-0.3-0.2-0.4-0.3c-0.1-0.1-0.3-0.2-0.4-0.3c-0.1-0.1-0.3-0.2-0.4-0.3
					c-0.1-0.1-0.3-0.2-0.4-0.3c-0.1-0.1-0.3-0.2-0.4-0.4c-0.1-0.1-0.2-0.3-0.4-0.4c-0.1-0.1-0.2-0.3-0.3-0.4
					c-0.1-0.1-0.2-0.3-0.3-0.4c-0.1-0.2-0.2-0.3-0.3-0.5c-0.1-0.2-0.2-0.3-0.3-0.5c-0.1-0.2-0.2-0.3-0.3-0.5
					c-0.1-0.2-0.2-0.4-0.2-0.5c-0.1-0.2-0.1-0.4-0.2-0.6c-0.1-0.2-0.1-0.4-0.2-0.6c-0.1-0.2-0.1-0.4-0.1-0.6c0-0.2-0.1-0.4-0.1-0.6
					c0-0.2-0.1-0.4-0.1-0.6c0-0.2,0-0.4-0.1-0.6c0-0.2,0-0.4,0-0.6c0-0.1,0-0.2,0-0.2c0-6.3,5.7-12.9,12.1-8.9
					c1,0.6,1.9,1.5,2.6,2.5c1.6,2.1,3.2,4.2,4.6,6.4c-0.7,1.1-1.5,2.2-2.2,3.3c-0.6,0.9-1.3,1.8-2,2.7C69.7,61.6,69,62.4,68.3,63.1z
					 M95.7,63.9c-1.1,0.6-2.3,0.9-3.1,1c-0.8,0.1-1.6,0.1-2.3-0.1c-0.8-0.2-1.5-0.4-2.2-0.9c-0.7-0.4-1.3-1-1.9-1.6
					c-0.4-0.5-0.9-1-1.3-1.5c-0.5-0.6-0.9-1.2-1.4-1.8c-0.5-0.7-1-1.4-1.5-2.1c-0.1-0.1-0.2-0.3-0.3-0.5c-0.3-0.5-0.6-1-1-1.5
					c1.8-2.7,3.6-5.5,5.9-7.9c0.8-0.8,1.8-1.5,2.9-1.8l0,0c1.6-0.5,3.5-0.5,5.1,0.2c1.1,0.5,2.1,1.2,2.9,2.2c1.7,2,2.6,4.7,2.6,7.3
					C100.2,58.8,98.4,62.2,95.7,63.9z"/>
			</g>
			<path class="st3" d="M103,45.5c-0.4-1.1-1-2.2-1.7-3.2c-0.5-0.7-1.1-1.4-1.7-2c-0.5-0.5-1-0.9-1.5-1.2c-0.5-0.4-1-0.7-1.6-1
				c-0.5-0.3-1.1-0.6-1.7-0.8c-0.3-0.1-0.5-0.2-0.8-0.2c-0.3-0.1-0.5-0.1-0.8-0.2c-0.3-0.1-0.6-0.1-0.9-0.1c-0.1,0-0.1,0-0.2,0
				c-0.1,0-0.1,0-0.2,0c-0.2,0-0.4,0-0.6,0c0,0,0,0,0,0c0,0-0.1,0-0.2,0c-0.9,0-4.5,0.1-7.2,2.5c-0.2,0.2-0.5,0.4-0.7,0.7
				c-0.8,0.7-1.6,1.7-2.4,2.7c-2.3,2.8-3.9,5.5-3.9,5.5c0,0,0,0,0,0c-1.7-2.6-3.8-5.6-6.5-8.3c-0.3-0.3-0.6-0.6-0.9-0.8
				c-0.5-0.4-1.1-0.7-1.6-1c-0.1,0-0.2-0.1-0.2-0.1c-0.6-0.3-1.2-0.5-1.8-0.7c-0.5-0.1-1-0.3-1.5-0.3c-0.4-0.1-0.8-0.1-1.2-0.1
				c-0.2,0-0.5,0-0.7,0c-0.1,0-0.1,0-0.1,0c-0.4,0-0.8,0-1.3,0.1c-0.4,0.1-0.8,0.1-1.2,0.2c-0.4,0.1-0.8,0.2-1.2,0.4
				c-0.4,0.1-0.8,0.3-1.1,0.5c-0.4,0.2-0.7,0.4-1.1,0.6c-0.4,0.2-0.7,0.5-1,0.8c-0.3,0.3-0.7,0.6-1,0.9c-0.1,0.1-0.3,0.3-0.4,0.4
				c-0.2,0.2-0.4,0.4-0.6,0.7c-0.1,0.1-0.2,0.2-0.2,0.3c0,0.1-0.1,0.1-0.1,0.2c0,0,0,0-0.1,0.1c0,0-0.1,0.1-0.1,0.1
				c-0.1,0.2-0.2,0.3-0.3,0.5c-0.2,0.3-0.4,0.7-0.6,1c-0.2,0.4-0.5,0.8-0.7,1.2c-0.1,0.2-0.2,0.4-0.3,0.7c0,0,0,0,0,0.1
				c-0.1,0.2-0.2,0.4-0.3,0.6c0,0,0,0.1,0,0.1c-0.1,0.2-0.2,0.4-0.2,0.6c0,0,0,0.1,0,0.1c-0.1,0.3-0.2,0.5-0.3,0.8
				c-0.1,0.2-0.1,0.4-0.2,0.6c0,0,0,0,0,0c0,0.2-0.1,0.4-0.1,0.6c0,0,0,0.1,0,0.1c-1,5-0.8,11.9,5.5,17.6c0.2,0.2,0.5,0.4,0.7,0.6
				c0.2,0.2,0.5,0.3,0.7,0.5c0.2,0.1,0.5,0.3,0.7,0.4c0.2,0.1,0.5,0.2,0.7,0.3c0.2,0.1,0.5,0.2,0.7,0.2c0.2,0.1,0.5,0.1,0.7,0.2
				c0.6,0.2,1.3,0.2,1.9,0.3c0.7,0,1.3,0,2,0c0.6-0.1,1.1-0.2,1.6-0.3c0.2,0,0.4-0.1,0.6-0.2c0.2-0.1,0.4-0.1,0.7-0.2
				c0.2-0.1,0.5-0.2,0.7-0.3c0.2-0.1,0.5-0.2,0.7-0.3c0.2-0.1,0.5-0.2,0.7-0.4c0.2-0.1,0.4-0.3,0.7-0.4c0.2-0.2,0.4-0.3,0.6-0.5
				c0.1-0.1,0.2-0.1,0.2-0.2c0.1-0.1,0.1-0.2,0.2-0.2c1.5-1.4,4.4-5.4,6.5-8.3c0,0.1,0.6,1,0.7,1.1c0.3,0.4,0.5,0.7,0.8,1.1
				c0.4,0.6,0.9,1.2,1.4,1.8c0.9,1.3,1.9,2.5,3,3.6c0.7,0.8,1.5,1.4,2.4,2c2.7,1.7,6.1,2.2,9.1,1.4c0.6-0.2,1.2-0.4,1.8-0.7
				c2-0.9,3.7-2.4,4.9-4.2c2.9-4.2,4-9.6,3-14.7C103.8,47.9,103.4,46.7,103,45.5z M67.5,61.1c-0.1,0.1-0.3,0.2-0.4,0.4
				c-0.1,0.1-0.2,0.2-0.3,0.2c-1,0.7-2.3,1.1-3.5,1.1c-0.9,0.1-1.9,0-2.7-0.2c-0.1,0-0.2-0.1-0.4-0.1c-0.1,0-0.2-0.1-0.3-0.1
				c-0.2-0.1-0.3-0.1-0.5-0.2c-0.2-0.1-0.3-0.2-0.4-0.3c-0.1-0.1-0.3-0.2-0.4-0.3c-0.1-0.1-0.3-0.2-0.4-0.3
				c-0.1-0.1-0.3-0.2-0.4-0.3c-0.1-0.1-0.3-0.2-0.4-0.4c-0.1-0.1-0.2-0.3-0.4-0.4c-0.1-0.1-0.2-0.3-0.3-0.4
				c-0.1-0.1-0.2-0.3-0.3-0.4c-0.1-0.2-0.2-0.3-0.3-0.5c-0.1-0.2-0.2-0.3-0.3-0.5c-0.1-0.2-0.2-0.3-0.3-0.5
				c-0.1-0.2-0.2-0.4-0.2-0.5c-0.1-0.2-0.1-0.4-0.2-0.6c-0.1-0.2-0.1-0.4-0.2-0.6c-0.1-0.2-0.1-0.4-0.1-0.6c0-0.2-0.1-0.4-0.1-0.6
				c0-0.2-0.1-0.4-0.1-0.6c0-0.2,0-0.4-0.1-0.6c0-0.2,0-0.4,0-0.6c0-0.1,0-0.2,0-0.2c0-6.3,5.7-12.9,12.1-8.9c1,0.6,1.9,1.5,2.6,2.5
				c1.6,2.1,3.2,4.2,4.6,6.4c-0.7,1.1-1.5,2.2-2.2,3.3c-0.6,0.9-1.3,1.8-2,2.7C68.9,59.6,68.3,60.4,67.5,61.1z M95,61.9
				c-1.1,0.6-2.3,0.9-3.1,1c-0.8,0.1-1.6,0.1-2.3-0.1c-0.8-0.2-1.5-0.4-2.2-0.9c-0.7-0.4-1.3-1-1.9-1.6c-0.4-0.5-0.9-1-1.3-1.5
				c-0.5-0.6-0.9-1.2-1.4-1.8c-0.5-0.7-1-1.4-1.5-2.1c-0.1-0.1-0.2-0.3-0.3-0.5c-0.3-0.5-0.6-1-1-1.5c1.8-2.7,3.6-5.5,5.9-7.9
				c0.8-0.8,1.8-1.5,2.9-1.8l0,0c1.6-0.5,3.5-0.5,5.1,0.2c1.1,0.5,2.1,1.2,2.9,2.2c1.7,2,2.6,4.7,2.6,7.3
				C99.4,56.8,97.6,60.2,95,61.9z"/>
		</g>
	</g>
	<g>
		<g>
			<path class="st4" d="M118.9,105.8l0-55.9c0-1.8,1.4-3.2,3.2-3.2l60.3,0c1.8,0,3.2,1.4,3.2,3.2l0,55.9c0,1.8-1.4,3.2-3.2,3.2
				l-60.3,0C120.3,109,118.9,107.5,118.9,105.8z"/>
			<path class="st5" d="M118.9,49.8l0,55.9c0,1.8,1.4,3.2,3.2,3.2l4.7,0c-1.8,0-3.2-1.4-3.2-3.2l0-55.9c0-1.8,1.4-3.2,3.2-3.2
				l-4.7,0C120.4,46.6,118.9,48,118.9,49.8z"/>
			<path class="st6" d="M185.6,49.9c0-1.8-1.4-3.2-3.2-3.2l-60.3,0c-1.8,0-3.2,1.4-3.2,3.2l0,8.8l66.6,0L185.6,49.9z"/>
			<path class="st7" d="M118.9,49.8l0,8.8l4.7,0l0-8.8c0-1.8,1.4-3.2,3.2-3.2l-4.7,0C120.4,46.6,118.9,48,118.9,49.8z"/>
			<path class="st8" d="M177.6,50.3c1.3,0,2.4,1.1,2.4,2.4c0,1.3-1.1,2.4-2.4,2.4c-1.3,0-2.4-1.1-2.4-2.4S176.3,50.3,177.6,50.3z"/>
			<path class="st9" d="M169.6,50.3c1.3,0,2.4,1.1,2.4,2.4s-1.1,2.4-2.4,2.4s-2.4-1.1-2.4-2.4C167.2,51.3,168.3,50.3,169.6,50.3z"/>
			<path class="st10" d="M161.5,50.3c1.3,0,2.4,1.1,2.4,2.4s-1.1,2.4-2.4,2.4c-1.3,0-2.4-1.1-2.4-2.4S160.2,50.3,161.5,50.3z"/>
			<path class="st2" d="M174.6,52.7c0-1.6,1.3-2.9,2.9-2.9c1.6,0,2.9,1.3,2.9,2.9c0,1.6-1.3,2.9-2.9,2.9
				C175.9,55.6,174.6,54.3,174.6,52.7z M175.8,52.7c0,1,0.8,1.8,1.8,1.8c1,0,1.8-0.8,1.8-1.8c0-1-0.8-1.8-1.8-1.8
				S175.8,51.7,175.8,52.7z"/>
			<path class="st2" d="M166.6,52.6c0-1.6,1.3-2.9,2.9-2.9c1.6,0,2.9,1.3,2.9,2.9c0,1.6-1.3,2.9-2.9,2.9
				C167.9,55.6,166.6,54.3,166.6,52.6z M167.8,52.6c0,1,0.8,1.8,1.8,1.8c1,0,1.8-0.8,1.8-1.8c0-1-0.8-1.8-1.8-1.8
				C168.6,50.9,167.8,51.7,167.8,52.6z"/>
			<path class="st2" d="M158.6,52.6c0-1.6,1.3-2.9,2.9-2.9c1.6,0,2.9,1.3,2.9,2.9c0,1.6-1.3,2.9-2.9,2.9
				C159.9,55.6,158.6,54.3,158.6,52.6z M159.8,52.6c0,1,0.8,1.8,1.8,1.8c1,0,1.8-0.8,1.8-1.8c0-1-0.8-1.8-1.8-1.8
				S159.8,51.7,159.8,52.6z"/>
			<path class="st2" d="M151.4,52.6c0-0.6-0.4-1-1-1l-24.5,0c-0.6,0-1,0.4-1,1c0,0.6,0.4,1,1,1l24.5,0
				C151,53.6,151.4,53.2,151.4,52.6z"/>
			<path class="st2" d="M117.9,49.8l0,55.9c0,2.3,1.9,4.2,4.2,4.2l60.3,0c2.3,0,4.2-1.9,4.2-4.2l0-55.9c0-2.3-1.9-4.2-4.2-4.2
				l-60.3,0C119.8,45.6,117.9,47.5,117.9,49.8z M119.9,105.8l0-46.1l55.3,0c0.6,0,1-0.4,1-1c0-0.6-0.4-1-1-1l-55.3,0l0-7.8
				c0-1.2,1-2.2,2.2-2.2l60.3,0c1.2,0,2.2,1,2.2,2.2l0,7.8l-5.6,0c-0.6,0-1,0.4-1,1c0,0.6,0.4,1,1,1l5.6,0l0,46.1
				c0,1.2-1,2.2-2.2,2.2l-60.3,0C120.9,108,119.9,107,119.9,105.8z"/>
		</g>
		<g>
			<path class="st11" d="M163.3,83.8h-2.5l4.9,4.9l4.9-4.9h-2.5v-1.2c0-8.9-7.2-16-16.1-16.1v4.9c6.1,0,11.1,5,11.1,11.1V83.8z"/>
			<path class="st2" d="M165.8,89.5c-0.2,0-0.4-0.1-0.5-0.2l-4.9-4.9c-0.3-0.3-0.3-0.8,0-1c0.1-0.1,0.3-0.2,0.5-0.2h1.7v-0.5
				c0-5.7-4.7-10.4-10.4-10.4c-0.4,0-0.7-0.3-0.7-0.7v-4.9c0-0.4,0.3-0.7,0.7-0.7c9.3,0,16.8,7.5,16.8,16.8l0,0.5h1.7
				c0.4,0,0.7,0.3,0.7,0.7c0,0.2-0.1,0.4-0.2,0.5l-4.9,4.9C166.2,89.4,166,89.5,165.8,89.5L165.8,89.5z M153,70.7l0.4,0
				c6.1,0.6,10.7,5.7,10.7,11.8v1.2c0,0.3-0.2,0.6-0.5,0.7l-0.7,0.3l2.9,2.9l2.9-2.9l-0.7-0.3c-0.3-0.1-0.5-0.4-0.5-0.7v-1.2
				c0-8-6-14.6-14-15.3l-0.5,0V70.7z"/>
			<path class="st12" d="M145.3,72.9l1.2,2.1l1.8-6.8l-6.7-1.8l1.2,2.1l-1.1,0.6c-7.7,4.4-10.3,14.3-5.9,21.9l4.3-2.5
				c-3.1-5.3-1.2-12.1,4.1-15.2L145.3,72.9z"/>
			<path class="st2" d="M135.8,92c-0.1,0-0.1,0-0.2,0c-0.2-0.1-0.3-0.2-0.4-0.3c-4.6-8-1.9-18.3,6.1-23l0.4-0.2l-0.9-1.5
				c-0.2-0.4-0.1-0.8,0.3-1c0.1-0.1,0.2-0.1,0.4-0.1c0.1,0,0.1,0,0.2,0l6.7,1.8c0.2,0.1,0.4,0.2,0.5,0.3c0.1,0.2,0.1,0.4,0.1,0.6
				l-1.8,6.8c-0.1,0.3-0.3,0.5-0.6,0.5c0,0-0.1,0-0.1,0c-0.3,0-0.5-0.1-0.6-0.4L145,74l-0.4,0.3c-4.9,2.9-6.6,9.2-3.8,14.2
				c0.2,0.4,0.1,0.8-0.3,1l-4.3,2.5C136.1,91.9,136,92,135.8,92L135.8,92z M143.5,68.5c0,0.3-0.1,0.6-0.4,0.8l-1.1,0.6
				c-6.9,4-9.6,12.5-6.2,19.8l0.2,0.5l3-1.7l-0.2-0.4c-2.5-5.6-0.4-12.1,4.9-15.1l1.1-0.6c0.1-0.1,0.2-0.1,0.4-0.1
				c0.1,0,0.1,0,0.2,0c0.1,0,0.2,0.1,0.3,0.2l0.6,0.5l1.1-4l-4-1.1L143.5,68.5z"/>
			<path class="st13" d="M145.3,94.1l1.2-2.1l-6.7,1.8l1.8,6.7l1.2-2.1l1.1,0.6c7.7,4.4,17.5,1.8,21.9-5.9l-4.3-2.5
				c-3.1,5.3-9.9,7.1-15.2,4.1L145.3,94.1z"/>
			<path class="st2" d="M151.9,101.9c-2.9,0-5.8-0.8-8.4-2.2l-0.4-0.2l-0.9,1.5c-0.1,0.2-0.4,0.4-0.6,0.4c0,0-0.1,0-0.1,0
				c-0.3,0-0.5-0.3-0.6-0.5l-1.8-6.7c-0.1-0.4,0.1-0.8,0.5-0.9l6.8-1.8c0.1,0,0.1,0,0.2,0c0.3,0,0.6,0.2,0.7,0.6
				c0,0.2,0,0.4-0.1,0.6l-0.9,1.5l0.4,0.2c1.6,0.9,3.4,1.4,5.2,1.4c3.7,0,7.1-2,9-5.2c0.1-0.2,0.4-0.4,0.6-0.4c0.1,0,0.3,0,0.4,0.1
				l4.3,2.5c0.4,0.2,0.5,0.7,0.3,1C163.5,98.6,157.9,101.9,151.9,101.9L151.9,101.9z M142.8,97.6c0.1,0,0.3,0,0.4,0.1l1.1,0.6
				c2.3,1.3,5,2,7.6,2c5,0,9.7-2.5,12.6-6.6l0.3-0.4l-3-1.7l-0.3,0.4c-2.2,3.1-5.8,4.9-9.6,4.9c0,0,0,0,0,0c-2.1,0-4.1-0.5-5.9-1.6
				l-1.1-0.6c-0.2-0.1-0.3-0.3-0.3-0.4c0-0.1,0-0.2,0-0.3l0.1-0.7l-4,1.1l1.1,4l0.6-0.5C142.5,97.7,142.6,97.6,142.8,97.6z"/>
		</g>
	</g>
</g>
</svg>
