<?xml version="1.0" encoding="utf-8"?>
<!-- Generator: Adobe Illustrator 25.0.0, SVG Export Plug-In . SVG Version: 6.00 Build 0)  -->
<svg version="1.1" id="Layer_1" xmlns="http://www.w3.org/2000/svg" xmlns:xlink="http://www.w3.org/1999/xlink" x="0px" y="0px"
	 viewBox="0 0 437.8 430" style="enable-background:new 0 0 437.8 430;" xml:space="preserve">
<style type="text/css">
	.st0{fill:#CC9E83;}
	.st1{fill:#B8866B;}
	.st2{fill:#66AA66;}
	.st3{fill:#508950;}
	.st4{fill:#96BC5E;}
	.st5{fill:#85993D;}
	.st6{fill:#92D37A;}
	.st7{fill:#70BA4D;}
	.st8{fill:#35414D;}
	.st9{fill:#F6C560;}
	.st10{opacity:4.000000e-02;}
	.st11{fill:#5F995F;}
</style>
<g>
	<g id="g11173_1_" transform="translate(233.499,214.5)">
		<path id="path11175_1_" class="st0" d="M-34.3,69c0,0-20.8-25.6-65.4-46.2c0,0-15.3-7-16.5-7.2c-1.2-0.2-5.5,23.4-5.5,23.4
			c7.4,4.2,21,11.1,21,11.1c42.3,21.7,66.4,63.1,66.4,63.1S-19.2,98.6-34.3,69"/>
	</g>
	<g id="g11177_1_" transform="translate(278.497,164)">
		<path id="path11179_1_" class="st0" d="M-39.9,163.8c0,0,24-41.4,66.4-63.1c0,0,18.7-10.4,35.2-16c0,0-7.3-21.5-13.4-20.3
			s-22.8,8.9-22.8,8.9c-44.6,20.6-65.4,46.2-65.4,46.2S-65.3,147.8-39.9,163.8"/>
	</g>
	<g id="g11181_1_" transform="translate(233.497,292.333)">
		<path id="path11183_1_" class="st1" d="M-34.3-77V80.6c0,16.9-13.7,30.7-30.7,30.7h-20v21.9H45.3v-21.9h-9.5
			c-16.9,0-30.7-13.7-30.7-30.7V-78.2L-34.3-77z"/>
	</g>
	<g id="g11185_1_" transform="translate(133.748,309.5)">
		<path id="path11187_1_" class="st2" d="M-22-109.2c-12.9,6.6-49.5-37.2-49.5-37.2c-3.1-4.7-4.9-10.3-4.9-16.4
			c0-13.4,8.9-24.8,21.2-28.4c-2.3-4.2-3.6-9.1-3.6-14.2c0-16.4,13.3-29.6,29.6-29.6c2.8,0,5.5,0.4,8.1,1.1c0-0.4,0-0.8,0-1.3
			c0-14.9,12.1-27,27-27c7.5,0,14.3,3.1,19.2,8c3.6-14.8,16.9-25.8,32.8-25.8c11.2,0,21.2,5.5,27.3,13.9
			c6.1-8.4,16.1-13.9,27.3-13.9c15.9,0,29.2,11,32.8,25.8c4.9-4.9,11.7-8,19.2-8c14.9,0,27,12.1,27,27c0,0.4,0,0.8,0,1.3
			c2.6-0.7,5.3-1.1,8.1-1.1c16.4,0,29.6,13.3,29.6,29.6c0,5.2-1.3,10-3.6,14.2c12.2,3.6,21.2,15,21.2,28.4c0,6.8-2.3,13.1-6.2,18.1
			c0,0-29.4,40.5-55.4,36.6h-0.7c-5,3.3-17.2,8.1-17.2,8.1c-3.3,1.4-6.9,2.2-10.7,2.2c-5.3,0-10.3-1.5-14.5-4.1
			c-3.1,13.8-15.4,24.1-30.2,24.1c-11.3,0-21.2-6-26.6-15.1c-5.4,9-15.3,15.1-26.6,15.1c-14.7,0-27.1-10.3-30.2-24.1
			c-4.2,2.6-9.2,4.1-14.5,4.1c-3.8,0-7.4-0.8-10.7-2.2C3.1-100-11.9-104.2-22-109.2"/>
	</g>
	<g id="g11189_1_" transform="translate(367.4076,310.1557)">
		<path id="path11191_1_" class="st3" d="M-50.9-110.4c22.8-13.2,31.4-34.9,31.4-34.9c3.9-5,6.2-11.3,6.2-18.1
			c0-13.4-8.9-24.8-21.2-28.4c2.3-4.2,3.6-9.1,3.6-14.2c0-16.4-13.3-29.7-29.6-29.7c-2.8,0-5.5,0.4-8.1,1.1c0-0.4,0-0.8,0-1.3
			c0-10.1-5.6-19-13.9-23.6c3.9-2.2,8.4-3.4,13.1-3.4c14.9,0,27,12.1,27,27c0,0.4,0,0.8,0,1.3c2.6-0.7,5.3-1.1,8.1-1.1
			c16.4,0,29.6,13.3,29.6,29.7c0,5.2-1.3,10-3.6,14.2c12.2,3.7,21.2,15,21.2,28.4c0,6.8-2.3,13.1-6.2,18.1c0,0-29.4,40.5-55.4,36.6
			L-50.9-110.4z"/>
	</g>
	<g id="g11193_1_" transform="translate(354.4959,32.4991)">
		<path id="path11195_1_" class="st4" d="M-49.3,397v-20.1c0-3.2-3.9-5.7-8.8-5.7h-155.1c-4.8,0-8.8,2.6-8.8,5.7V397H-49.3z"/>
	</g>
	<g id="g11197_1_" transform="translate(354.498,67.5)">
		<path id="path11199_1_" class="st5" d="M-49.3,341.8V362h-26.3v-20.1c0-3.2-3.9-5.7-8.8-5.7H-58
			C-53.2,336.1-49.3,338.7-49.3,341.8"/>
	</g>
	<g id="g11209_1_" transform="translate(492.2505,277.6641)">
		<path id="path11211_1_" class="st6" d="M-66.3-49.5c4.5-4.1,7.4-10.1,7.4-16.7c0-12.4-10.1-22.5-22.5-22.5c-5.9,0-11.3,2.3-15.3,6
			c0.1-0.8,0.1-1.7,0.1-2.5c0-15.2-12.3-27.5-27.5-27.5c-15.2,0-27.5,12.3-27.5,27.5c0,0.8,0,1.7,0.1,2.5c-4-3.7-9.4-6-15.3-6
			c-12.4,0-22.5,10.1-22.5,22.5c0,6.6,2.8,12.5,7.4,16.7c-4.5,4.1-7.4,10.1-7.4,16.7c0,12.4,10.1,22.5,22.5,22.5
			c5.9,0,11.3-2.3,15.3-6c-0.1,0.8-0.1,1.7-0.1,2.5c0,15.2,12.3,27.5,27.5,27.5c15.2,0,27.5-12.3,27.5-27.5c0-0.8,0-1.7-0.1-2.5
			c4,3.7,9.4,6,15.3,6c12.4,0,22.5-10.1,22.5-22.5C-58.9-39.4-61.8-45.4-66.3-49.5"/>
	</g>
	<g id="g11213_1_" transform="translate(457.658,236.34)">
		<path id="path11215_1_" class="st7" d="M-62,28.1C-62.3,43-74.5,54.9-89.5,54.9c-4.8,0-9.2-1.2-13.1-3.3
			c8.5-4.7,14.3-13.7,14.3-24.1c0-0.9,0-1.7-0.1-2.5c4,3.7,9.4,6,15.3,6C-69.1,31-65.3,29.9-62,28.1"/>
	</g>
	<g id="g11217_1_" transform="translate(457.658,318.98)">
		<path id="path11219_1_" class="st7" d="M-62-127c-3.3-1.9-7.1-2.9-11.1-2.9c-5.9,0-11.3,2.3-15.3,6c0.1-0.8,0.1-1.7,0.1-2.5
			c0-10.4-5.8-19.5-14.3-24.1c3.9-2.1,8.4-3.3,13.1-3.3C-74.5-153.9-62.3-141.9-62-127"/>
	</g>
	<g id="g11221_1_" transform="translate(500.668,258.66)">
		<path id="path11223_1_" class="st7" d="M-67.4-13.8c0,12.4-10.1,22.5-22.5,22.5c-4.9,0-9.4-1.6-13.1-4.2
			c5.7-4.1,9.4-10.7,9.4-18.3c0-6.6-2.8-12.5-7.4-16.7c4.5-4.1,7.4-10.1,7.4-16.7c0-7.5-3.7-14.2-9.4-18.2c3.7-2.7,8.2-4.2,13.1-4.2
			c12.4,0,22.5,10.1,22.5,22.5c0,6.6-2.8,12.5-7.4,16.7C-70.2-26.4-67.4-20.4-67.4-13.8"/>
	</g>
	<g id="g11229_1_" transform="translate(11.3323,258.6616)">
		<path id="path11231_1_" class="st6" d="M-6.8-13.8C-6.8-1.4,3.2,8.7,15.7,8.7c5.9,0,11.3-2.3,15.3-6c-0.1,0.8-0.1,1.7-0.1,2.5
			c0,15.2,12.3,27.5,27.5,27.5S85.8,20.3,85.8,5.2c0-0.8,0-1.7-0.1-2.5c4,3.7,9.4,6,15.3,6c12.4,0,22.5-10.1,22.5-22.5
			c0-6.6-2.8-12.5-7.4-16.7c4.5-4.1,7.4-10.1,7.4-16.7c0-12.4-10.1-22.5-22.5-22.5c-5.9,0-11.3,2.3-15.3,6c0.1-0.8,0.1-1.7,0.1-2.5
			c0-15.2-12.3-27.5-27.5-27.5c-15.2,0-27.5,12.3-27.5,27.5c0,0.8,0,1.7,0.1,2.5c-4-3.7-9.4-6-15.3-6C3.2-69.6-6.8-59.5-6.8-47.1
			c0,6.6,2.8,12.5,7.4,16.7C-4-26.4-6.8-20.4-6.8-13.8"/>
	</g>
	<g id="g11233_1_" transform="translate(116.988,318.99)">
		<path id="path11235_1_" class="st7" d="M-19.9-127c-3.3-1.9-7.1-2.9-11.1-2.9c-5.9,0-11.3,2.3-15.3,6c0.1-0.8,0.1-1.7,0.1-2.5
			c0-10.4-5.8-19.5-14.3-24.1c3.9-2.1,8.4-3.3,13.1-3.3C-32.4-153.9-20.2-141.9-19.9-127"/>
	</g>
	<g id="g11237_1_" transform="translate(159.998,258.66)">
		<path id="path11239_1_" class="st7" d="M-25.2-13.8c0,12.4-10.1,22.5-22.5,22.5c-4.9,0-9.4-1.6-13.1-4.3
			c5.7-4.1,9.4-10.7,9.4-18.2c0-6.6-2.8-12.5-7.4-16.7c4.5-4.1,7.4-10.1,7.4-16.7c0-7.5-3.7-14.2-9.4-18.2c3.7-2.7,8.2-4.3,13.1-4.3
			c12.4,0,22.5,10.1,22.5,22.5c0,6.6-2.8,12.5-7.4,16.7C-28.1-26.4-25.2-20.4-25.2-13.8"/>
	</g>
	<g id="g11241_1_" transform="translate(116.988,236.33)">
		<path id="path11243_1_" class="st7" d="M-19.9,28.1C-20.2,43-32.4,55-47.4,55c-4.8,0-9.2-1.2-13.1-3.3
			c8.5-4.7,14.3-13.7,14.3-24.1c0-0.9,0-1.7-0.1-2.5c4,3.7,9.4,6,15.3,6C-27,31-23.2,29.9-19.9,28.1"/>
	</g>
	<g id="g11261_1_" transform="translate(321.298,483.79)">
		<path id="path11263_1_" class="st3" d="M-45.2-436.2c-1.4-0.2-2.8-0.3-4.2-0.3c-7.5,0-14.3,3.1-19.2,8c-2.5-10.5-9.9-19-19.7-23.2
			c4-1.7,8.5-2.7,13.2-2.7C-62.1-454.4-50.8-447-45.2-436.2"/>
	</g>
	<g id="g11265_1_" transform="translate(192.5018,52.4991)">
		<g id="path11267_1_">
			<path class="st8" d="M111.7,377.5H-58.5c-2.5,0-4.5-2-4.5-4.5c0-2.5,2-4.5,4.5-4.5h170.2c2.5,0,4.5,2,4.5,4.5
				C116.2,375.5,114.2,377.5,111.7,377.5z"/>
		</g>
	</g>
	<g id="g11273_1_" transform="translate(354.498,52.4991)">
		<g id="path11275_1_">
			<path class="st8" d="M-49.3,377.5c-2.5,0-4.5-2-4.5-4.5v-13.1c0-2.4-1.9-4.3-4.3-4.3h-155.1c-2.4,0-4.3,1.9-4.3,4.3V373
				c0,2.5-2,4.5-4.5,4.5s-4.5-2-4.5-4.5v-13.1c0-7.3,5.9-13.3,13.3-13.3H-58c7.3,0,13.3,5.9,13.3,13.3V373
				C-44.8,375.5-46.8,377.5-49.3,377.5z"/>
		</g>
	</g>
	<g id="g11277_1_" transform="translate(233.4991,272.333)">
		<g id="path11279_1_">
			<path class="st8" d="M-65,135.8h-20c-2.5,0-4.5-2-4.5-4.5s2-4.5,4.5-4.5h20c14.4,0,26.2-11.7,26.2-26.2V-39.5
				c0-2.5,2-4.5,4.5-4.5c2.5,0,4.5,2,4.5,4.5v140.1C-29.8,120-45.6,135.8-65,135.8z"/>
		</g>
	</g>
	<g id="g11281_1_" transform="translate(324.3325,77.5)">
		<g id="path11283_1_">
			<path class="st8" d="M-45.6,330.6H-55c-19.4,0-35.2-15.8-35.2-35.2V154.2c0-2.5,2-4.5,4.5-4.5s4.5,2,4.5,4.5v141.2
				c0,14.4,11.7,26.2,26.2,26.2h9.5c2.5,0,4.5,2,4.5,4.5C-41.1,328.6-43.1,330.6-45.6,330.6z"/>
		</g>
	</g>
	<g id="g11285_1_" transform="translate(278.4991,214.5)">
		<g id="path11287_1_">
			<path class="st8" d="M-39.9,73.5c-1,0-2-0.3-2.8-1c-1.9-1.6-2.2-4.4-0.7-6.3c0.9-1.1,22-26.6,67-47.4c2.3-1,4.9-0.1,6,2.2
				c1,2.3,0.1,4.9-2.2,6c-43.2,20-63.6,44.7-63.8,45C-37.3,73-38.6,73.5-39.9,73.5z"/>
		</g>
	</g>
	<g id="g11289_1_" transform="translate(278.4991,164)">
		<g id="path11291_1_">
			<path class="st8" d="M-39.9,168.3c-0.8,0-1.5-0.2-2.3-0.6c-2.1-1.2-2.9-4-1.6-6.1c1-1.7,25.2-42.8,68.2-64.9c2.2-1.1,4.9-0.3,6,2
				c1.1,2.2,0.3,4.9-2,6c-40.6,20.8-64.3,61-64.5,61.4C-36.8,167.5-38.3,168.3-39.9,168.3z"/>
		</g>
	</g>
	<g id="g11293_1_" transform="translate(492.2527,277.6641)">
		<g id="path11295_1_">
			<path class="st8" d="M-124.1,18.1c-15.7,0-28.8-11.4-31.5-26.4c-3.5,1.6-7.3,2.4-11.2,2.4c-14.9,0-27-12.1-27-27
				c0-6.1,2.1-11.9,5.8-16.7c-3.7-4.7-5.8-10.6-5.8-16.7c0-14.9,12.1-27,27-27c3.9,0,7.7,0.8,11.2,2.4c2.6-15,15.7-26.4,31.5-26.4
				c15.7,0,28.8,11.4,31.5,26.4c3.5-1.6,7.3-2.4,11.2-2.4c14.9,0,27,12.1,27,27c0,6.1-2.1,11.9-5.8,16.7c3.7,4.7,5.8,10.6,5.8,16.7
				c0,14.9-12.1,27-27,27c-3.9,0-7.7-0.8-11.2-2.4C-95.3,6.7-108.4,18.1-124.1,18.1z M-151.4-20.8c0.7,0,1.3,0.2,2,0.5
				c1.7,0.8,2.7,2.6,2.5,4.4c-0.1,0.7-0.1,1.4-0.1,2.1c0,12.7,10.3,23,23,23c12.7,0,23-10.3,23-23c0-0.7,0-1.4-0.1-2.1
				c-0.2-1.9,0.8-3.6,2.5-4.4c1.7-0.8,3.7-0.5,5,0.7c3.3,3.1,7.7,4.8,12.2,4.8c9.9,0,18-8.1,18-18c0-5.1-2.2-9.9-5.9-13.3
				c-0.9-0.9-1.5-2.1-1.5-3.3c0-1.3,0.5-2.5,1.5-3.3c3.7-3.4,5.9-8.3,5.9-13.3c0-9.9-8.1-18-18-18c-4.6,0-8.9,1.7-12.2,4.8
				c-1.4,1.3-3.4,1.6-5,0.7c-1.7-0.8-2.7-2.6-2.5-4.4c0.1-0.7,0.1-1.4,0.1-2.1c0-12.7-10.3-23-23-23c-12.7,0-23,10.3-23,23
				c0,0.7,0,1.4,0.1,2.1c0.2,1.9-0.8,3.6-2.5,4.4c-1.7,0.8-3.7,0.5-5-0.7c-3.3-3.1-7.7-4.8-12.2-4.8c-9.9,0-18,8.1-18,18
				c0,5.1,2.2,9.9,5.9,13.3c0.9,0.9,1.5,2.1,1.5,3.3c0,1.3-0.5,2.5-1.5,3.3c-3.8,3.4-5.9,8.3-5.9,13.3c0,9.9,8.1,18,18,18
				c4.6,0,8.9-1.7,12.2-4.8C-153.6-20.4-152.5-20.8-151.4-20.8z"/>
		</g>
	</g>
	<g id="g11301_1_" transform="translate(426.3325,185)">
		<g id="path11303_1_">
			<path class="st8" d="M-58.2,128.9c-2.5,0-4.5-2-4.5-4.5v-18.1c0-2.5,2-4.5,4.5-4.5s4.5,2,4.5,4.5v18.1
				C-53.7,126.9-55.7,128.9-58.2,128.9z"/>
		</g>
	</g>
	<g id="g11305_1_" transform="translate(233.5011,214.5)">
		<g id="path11307_1_">
			<path class="st8" d="M-34.3,73.5c-1.3,0-2.6-0.6-3.5-1.7c-0.2-0.3-20.8-25.1-63.8-45c-2.3-1-3.2-3.7-2.2-6c1-2.3,3.7-3.2,6-2.2
				c45,20.8,66.1,46.4,67,47.4c1.6,1.9,1.3,4.8-0.7,6.3C-32.3,73.2-33.3,73.5-34.3,73.5z"/>
		</g>
	</g>
	<g id="g11309_1_" transform="translate(233.5011,164)">
		<g id="path11311_1_">
			<path class="st8" d="M-34.3,168.3c-1.5,0-3.1-0.8-3.9-2.2l0,0c-0.2-0.4-23.9-40.6-64.5-61.4c-2.2-1.1-3.1-3.8-2-6
				c1.1-2.2,3.8-3.1,6-2c43,22,67.2,63.1,68.2,64.9c1.2,2.1,0.5,4.9-1.6,6.1C-32.8,168.1-33.5,168.3-34.3,168.3z"/>
		</g>
	</g>
	<g id="g11321_1_" transform="translate(85.6678,186)">
		<g id="path11323_1_">
			<path class="st8" d="M-16,127c-2.5,0-4.5-2-4.5-4.5v-17.2c0-2.5,2-4.5,4.5-4.5s4.5,2,4.5,4.5v17.2C-11.5,125-13.6,127-16,127z"/>
		</g>
	</g>
	<g>
		<g>
			<g>
				<g>
					<path class="st9" d="M109,312.6v43.8c0,1.7-1.3,3.1-2.8,3.1H33.7c-1.6,0-2.8-1.4-2.8-3.1v-43.8c0-1.7,1.3-2.9,2.8-2.9h72.4
						C107.7,309.7,109,311.1,109,312.6L109,312.6z"/>
				</g>
				<g class="st10">
					<path d="M109,312.6v43.8c0,1.7-1.3,3.1-2.8,3.1H33.7c-1.5,0-2.8-1.4-2.8-3.1V353h27.8c23.3,0,42.5-19.1,44.1-43.4h3.4
						C107.7,309.7,109,311.1,109,312.6L109,312.6z"/>
				</g>
			</g>
			<path class="st8" d="M33.7,361.7c-2.7,0-4.9-2.3-4.9-5.3v-43.8c0-2.8,2.2-5.1,4.9-5.1h72.4c1.5,0,2.9,0.6,3.7,1.6
				c0.8,1,1.2,2.3,1.2,3.5v43.8c0,3-2.1,5.3-4.9,5.3H33.7z M33.1,356.4c0,0.4,0.3,0.9,0.6,0.9h72.4c0.2,0,0.8,0,0.8-0.9v-42.1
				L74,338.7c-1.3,1-2.7,1.5-4.2,1.5c-1.4,0-3-0.6-4.2-1.5l-32.5-24.4V356.4z M68,335.2c0.5,0.3,1.1,0.5,1.8,0.5
				c0.6,0,1.3-0.2,1.8-0.6l31.2-23.3h-5.2l-0.2,0c-1.1,0.1-6.7,0.1-11.3,0.1c-12.7,0-32-0.2-32.2-0.2H36.8L68,335.2z"/>
			<path class="st8" d="M33.7,360.7c-2.2,0-3.9-1.9-3.9-4.3v-43.8c0-2.2,1.7-4.1,3.9-4.1h72.4c1.2,0,2.3,0.5,2.8,1.2
				c0.6,0.8,1,1.9,1,2.9v43.8c0,2.4-1.7,4.3-3.9,4.3H33.7z M32,356.4c0,0.9,0.7,2,1.7,2h72.4c1.1,0,1.8-0.8,1.8-2v-44.2l-34.5,25.6
				c-1.1,0.8-2.3,1.3-3.6,1.3c-1.2,0-2.5-0.5-3.6-1.3L32,312.2V356.4z M67.4,336c0.7,0.5,1.6,0.7,2.4,0.7s1.7-0.3,2.4-0.7l33.8-25.2
				h-8.6l0,0c-0.5,0-2.8,0.1-11.2,0.1c0,0,0,0,0,0c-12.8,0-32-0.2-32.2-0.2H33.6L67.4,336z"/>
		</g>
		<g>
			<path class="st6" d="M70.2,346.7v1.8h-2.6v-1.9c-2.5-0.3-4.8-1.3-6.6-3l2-2.5c1.3,1.2,2.8,2,4.5,2.4V338
				c-3.5-0.9-5.8-2.1-5.8-5.5c0-3,2.3-5.4,5.8-5.8V325h2.6v1.7c2.2,0.2,4.3,1.1,5.9,2.6l-1.9,2.6c-1.1-1-2.5-1.8-4-2.1v5.3
				c3.9,0.9,6.4,2.2,6.4,5.6C76.6,344.1,74.3,346.4,70.2,346.7z M67.6,334.5v-4.7c-1.4,0.3-2.3,1.3-2.3,2.4
				C65.4,333.4,66.1,334,67.6,334.5z M73.1,341.2c0-1.3-0.9-1.9-2.9-2.5v5C72.1,343.5,73.1,342.4,73.1,341.2L73.1,341.2z"/>
			<g>
				<g>
					<path class="st8" d="M65,327.9c0.8-0.4,1.7-0.7,2.7-0.8c0.2,0,0.3-0.2,0.3-0.4v-1.4h1.9v1.4c0,0.2,0.1,0.3,0.3,0.4
						c2,0.2,3.9,1,5.5,2.3l-1.5,2c-1.1-0.9-2.4-1.6-3.9-1.9c-0.2,0-0.4,0.1-0.4,0.3c0,0,0,0.1,0,0.1v5.3c0,0.2,0.1,0.3,0.3,0.3
						c0.9,0.2,1.8,0.4,2.6,0.8c0,0,0.1,0,0.1,0c0.2,0,0.4-0.2,0.4-0.4c0-0.1-0.1-0.3-0.2-0.3c-0.8-0.3-1.6-0.5-2.4-0.7v-4.6
						c1.3,0.4,2.4,1,3.4,1.9c0.1,0.1,0.4,0.1,0.5,0c0,0,0,0,0,0l1.9-2.6c0.1-0.2,0.1-0.4-0.1-0.5c-1.6-1.5-3.6-2.4-5.8-2.7V325
						c0-0.2-0.2-0.4-0.4-0.4h-2.6c-0.2,0-0.4,0.2-0.4,0.4v1.4c-0.9,0.1-1.8,0.4-2.6,0.9c-0.2,0.1-0.2,0.3-0.2,0.5
						C64.6,328,64.8,328,65,327.9C65,327.9,65,327.9,65,327.9L65,327.9z"/>
					<path class="st8" d="M72.8,336.5c-0.1,0-0.1,0-0.2,0c-0.8-0.3-1.7-0.6-2.6-0.8c-0.3-0.1-0.4-0.3-0.4-0.6v-5.3c0,0,0-0.1,0-0.1
						c0-0.1,0.1-0.3,0.2-0.4c0.1-0.1,0.3-0.1,0.4-0.1c1.4,0.3,2.7,1,3.8,1.9l1.2-1.7c-1.5-1.2-3.3-2-5.2-2.2c-0.3,0-0.5-0.3-0.5-0.6
						v-1.2h-1.4v1.2c0,0.3-0.2,0.5-0.5,0.6c-0.9,0.1-1.8,0.4-2.6,0.8l0,0c-0.3,0.1-0.6,0-0.8-0.2c-0.1-0.1-0.1-0.3,0-0.4
						c0-0.1,0.1-0.3,0.3-0.3c0.8-0.4,1.6-0.7,2.5-0.9V325c0-0.3,0.3-0.6,0.6-0.6h2.6c0.3,0,0.6,0.3,0.6,0.6v1.3
						c2.1,0.3,4.1,1.3,5.7,2.7c0.2,0.2,0.3,0.5,0.1,0.8l-1.9,2.6c-0.2,0.3-0.6,0.3-0.8,0.1c-0.9-0.8-1.9-1.4-3.1-1.8v4.1
						c0.8,0.2,1.5,0.4,2.3,0.7c0.2,0.1,0.4,0.3,0.4,0.5C73.4,336.3,73.2,336.5,72.8,336.5z M70.2,329.7
						C70.2,329.7,70.1,329.7,70.2,329.7c-0.1,0-0.1,0.1-0.1,0.1l0,5.3c0,0.1,0,0.1,0.1,0.1c0.9,0.2,1.8,0.5,2.6,0.8
						c0.1,0,0.2,0,0.2-0.1c0-0.1,0-0.1-0.1-0.1c-0.8-0.3-1.6-0.5-2.4-0.7l-0.2,0v-5l0.3,0.1c1.3,0.4,2.5,1.1,3.5,2
						c0.1,0,0.2,0,0.2,0l1.9-2.6c0-0.1,0-0.1,0-0.2c-1.6-1.4-3.6-2.3-5.7-2.6l-0.2,0V325c0-0.1-0.1-0.1-0.1-0.1h-2.6
						c-0.1,0-0.1,0.1-0.1,0.1v1.6l-0.2,0c-0.9,0.1-1.8,0.4-2.5,0.9c0,0-0.1,0.1-0.1,0.1c0,0,0,0.1,0,0.1c0,0.1,0.1,0.1,0.2,0.1
						l0.1,0.2l-0.1-0.2c0.9-0.5,1.8-0.7,2.8-0.9c0.1,0,0.1-0.1,0.1-0.1v-1.6H70v1.6c0,0.1,0.1,0.1,0.1,0.1c2.1,0.2,4,1,5.6,2.4
						l0.2,0.1l-1.7,2.4l-0.2-0.1C72.9,330.7,71.6,330.1,70.2,329.7C70.2,329.7,70.2,329.7,70.2,329.7z"/>
				</g>
				<g>
					<path class="st8" d="M70.3,338.3c-0.2-0.1-0.4,0.1-0.4,0.2c0,0,0,0.1,0,0.1v5c0,0.2,0.2,0.4,0.4,0.4c0,0,0,0,0,0
						c2-0.2,3.2-1.4,3.2-2.9C73.4,339.6,72.3,338.9,70.3,338.3z M70.5,343.3v-4.1c1.6,0.5,2.2,1.1,2.2,2
						C72.7,342.2,71.9,343,70.5,343.3L70.5,343.3z"/>
					<path class="st8" d="M70.2,344.3c-0.3,0-0.6-0.3-0.6-0.6v-5c0-0.1,0-0.1,0-0.2c0.1-0.3,0.4-0.5,0.7-0.4l0,0
						c2,0.6,3.3,1.3,3.3,3C73.7,342.8,72.3,344,70.2,344.3L70.2,344.3z M70.2,338.5c-0.1,0-0.1,0-0.1,0.1l0,5.1
						c0,0.1,0.1,0.1,0.1,0.1c1.9-0.2,3.1-1.3,3.1-2.7C73.2,339.7,72.2,339.1,70.2,338.5L70.2,338.5
						C70.2,338.5,70.2,338.5,70.2,338.5z M70.3,343.5v-4.7l0.3,0.1c1.7,0.6,2.3,1.1,2.3,2.2c0,1.2-0.9,2-2.4,2.3L70.3,343.5z
						 M70.8,339.5v3.6c1.1-0.3,1.8-1,1.8-1.9C72.5,340.5,72.2,340,70.8,339.5z"/>
				</g>
				<g>
					<path class="st8" d="M74.3,336.2c-0.2-0.1-0.4,0-0.5,0.1c-0.1,0.2,0,0.4,0.1,0.5c0.2,0.1,0.3,0.2,0.5,0.3
						c0.2,0.1,0.4,0.1,0.5-0.1s0.1-0.4-0.1-0.5C74.7,336.5,74.5,336.3,74.3,336.2L74.3,336.2z"/>
					<path class="st8" d="M74.6,337.4c-0.1,0-0.2,0-0.3-0.1c-0.2-0.1-0.3-0.2-0.5-0.3c-0.3-0.2-0.4-0.5-0.2-0.8
						c0.2-0.3,0.5-0.4,0.8-0.2l0,0c0.2,0.1,0.4,0.2,0.6,0.4c0.1,0.1,0.2,0.2,0.2,0.4c0,0.1,0,0.3-0.1,0.4
						C75,337.3,74.9,337.4,74.6,337.4C74.7,337.4,74.7,337.4,74.6,337.4z M74.1,336.4c-0.1,0-0.1,0-0.1,0.1c0,0.1,0,0.2,0.1,0.2
						c0.2,0.1,0.4,0.2,0.5,0.3c0,0,0.1,0,0.1,0c0,0,0.1,0,0.1-0.1c0,0,0-0.1,0-0.1c0,0,0-0.1-0.1-0.1
						C74.5,336.6,74.4,336.5,74.1,336.4L74.1,336.4C74.2,336.4,74.1,336.4,74.1,336.4z"/>
				</g>
				<g>
					<path class="st8" d="M75.9,337.6c-0.1-0.2-0.3-0.2-0.5-0.1c-0.2,0.1-0.2,0.3-0.1,0.5c0,0,0,0,0,0c0.6,0.7,0.9,1.7,0.9,2.8
						c0,3.2-2.3,5.3-6.1,5.5c-0.2,0-0.3,0.2-0.3,0.4v1.4H68v-1.5c0-0.2-0.1-0.3-0.3-0.4c-2.3-0.3-4.4-1.2-6.1-2.7l1.6-2
						c1.3,1.1,2.8,1.9,4.4,2.3c0.2,0,0.4-0.1,0.4-0.3c0,0,0,0,0-0.1v-2c0-0.2-0.2-0.4-0.4-0.4c-0.2,0-0.4,0.2-0.4,0.4v1.6
						c-1.5-0.4-2.8-1.2-3.9-2.2c-0.1-0.1-0.4-0.1-0.5,0c0,0,0,0,0,0l-2,2.5c-0.1,0.1-0.1,0.4,0,0.5c1.8,1.7,4,2.7,6.5,3.1v1.6
						c0,0.2,0.2,0.4,0.4,0.4h2.6c0.2,0,0.4-0.2,0.4-0.4V347c4-0.4,6.4-2.8,6.4-6.2C77,339.5,76.6,338.4,75.9,337.6L75.9,337.6z"/>
					<path class="st8" d="M70.2,349.1h-2.6c-0.3,0-0.6-0.3-0.6-0.6v-1.4c-2.4-0.4-4.6-1.4-6.4-3.1c-0.2-0.2-0.2-0.5-0.1-0.8l2-2.5
						c0.1-0.1,0.3-0.2,0.4-0.2c0.2,0,0.3,0,0.4,0.1c1,1,2.3,1.7,3.6,2.1v-1.3c0-0.3,0.3-0.6,0.6-0.6c0.3,0,0.6,0.3,0.6,0.6v2
						c0,0,0,0.1,0,0.1c0,0.1-0.1,0.3-0.2,0.4c-0.1,0.1-0.3,0.1-0.4,0.1c-1.6-0.4-3.1-1.1-4.4-2.2l-1.3,1.6c1.7,1.4,3.7,2.3,5.9,2.5
						c0.3,0,0.5,0.3,0.5,0.6v1.3h1.4v-1.2c0-0.3,0.2-0.5,0.5-0.6c3.6-0.3,5.9-2.3,5.9-5.3c0-1.1-0.3-2-0.9-2.7
						c-0.1-0.1-0.2-0.3-0.1-0.4c0-0.2,0.1-0.3,0.2-0.4c0.2-0.2,0.6-0.1,0.8,0.1c0.8,0.9,1.1,2,1.1,3.4c0,3.5-2.5,6-6.4,6.4v1.3
						C70.8,348.8,70.5,349.1,70.2,349.1z M63.1,341C63.1,341,63.1,341,63.1,341c0,0-0.1,0-0.1,0l-2,2.5c0,0.1,0,0.1,0,0.2
						c1.8,1.6,4,2.7,6.3,3l0.2,0v1.8c0,0.1,0.1,0.1,0.1,0.1h2.6c0.1,0,0.1-0.1,0.1-0.1v-1.7l0.2,0c3.9-0.4,6.2-2.7,6.2-6
						c0-1.3-0.3-2.3-1-3.1l0,0c0-0.1-0.1-0.1-0.2,0c0,0-0.1,0.1-0.1,0.1c0,0,0,0.1,0,0.1c0.7,0.8,1,1.8,1,3c0,3.3-2.4,5.5-6.3,5.8
						c-0.1,0-0.1,0.1-0.1,0.1v1.7h-2.3v-1.7c0-0.1-0.1-0.1-0.1-0.1c-2.3-0.3-4.5-1.2-6.2-2.8l-0.2-0.1l1.8-2.3l0.2,0.1
						c1.2,1.1,2.7,1.9,4.3,2.2c0.1,0,0.2,0,0.2-0.1l0-2c0-0.1-0.1-0.1-0.1-0.1s-0.1,0.1-0.1,0.1v1.8l-0.3-0.1
						C65.7,342.9,64.3,342.1,63.1,341C63.1,341,63.1,341,63.1,341z"/>
				</g>
				<g>
					<path class="st8" d="M67.3,338.3v1.6c0,0.2,0.2,0.4,0.4,0.4c0.2,0,0.4-0.2,0.4-0.4V338c0-0.2-0.1-0.3-0.3-0.3
						c-3.4-0.9-5.5-2.1-5.5-5.1c0-1.4,0.6-2.8,1.6-3.7c0.1-0.1,0.1-0.4,0-0.5c-0.1-0.1-0.4-0.1-0.5,0c-1.2,1.1-1.8,2.6-1.8,4.3
						C61.4,336,63.8,337.4,67.3,338.3L67.3,338.3z"/>
					<path class="st8" d="M67.6,340.5c-0.3,0-0.6-0.3-0.6-0.6v-1.4c-3-0.8-5.8-2.2-5.8-5.9c0-1.7,0.7-3.3,1.9-4.4
						c0.2-0.2,0.6-0.2,0.8,0c0.2,0.2,0.2,0.6,0,0.8c-1,0.9-1.5,2.2-1.5,3.6c0,2.9,2.1,4.1,5.4,4.9c0.3,0.1,0.4,0.3,0.4,0.6v1.9
						C68.2,340.2,67.9,340.5,67.6,340.5z M63.5,328.4C63.5,328.4,63.4,328.4,63.5,328.4c-1.2,1.1-1.9,2.6-1.9,4.1
						c0,3.3,2.3,4.6,5.7,5.5l0.2,0v1.8c0,0.1,0.1,0.1,0.1,0.1s0.1-0.1,0.1-0.1V338c0-0.1,0-0.1-0.1-0.1c-3.5-0.9-5.7-2.1-5.7-5.3
						c0-1.5,0.6-2.9,1.7-3.9c0,0,0-0.1,0-0.1c0,0,0-0.1,0-0.1C63.6,328.4,63.5,328.4,63.5,328.4z"/>
				</g>
				<g>
					<path class="st8" d="M67.5,329.5c-1.5,0.4-2.5,1.5-2.5,2.8c0,1.5,1.2,2.1,2.5,2.6c0.1,0,0.2,0,0.3,0c0.1-0.1,0.2-0.2,0.2-0.3
						v-4.7C68,329.6,67.8,329.5,67.5,329.5C67.6,329.5,67.6,329.5,67.5,329.5L67.5,329.5z M67.3,334c-1.1-0.5-1.5-0.9-1.5-1.7
						c0-0.8,0.6-1.6,1.5-1.9V334z"/>
					<path class="st8" d="M67.6,335.1c-0.1,0-0.1,0-0.2,0c-1.3-0.5-2.6-1.1-2.6-2.8c0-1.4,1.1-2.6,2.7-3h0c0.3-0.1,0.7,0.2,0.7,0.6
						v4.7c0,0.2-0.1,0.4-0.2,0.5C67.8,335,67.7,335.1,67.6,335.1z M67.5,329.5l0.1,0.2c-1.4,0.3-2.4,1.4-2.4,2.6
						c0,1.3,0.9,1.9,2.4,2.4c0,0,0.1,0,0.1,0c0,0,0.1-0.1,0.1-0.1v-4.7c0-0.1-0.1-0.1-0.1-0.1L67.5,329.5z M67.5,334.3l-0.3-0.1
						c-1.2-0.5-1.7-1-1.7-1.9c0-0.9,0.6-1.7,1.7-2.1l0.3-0.1V334.3z M67,330.6c-0.7,0.4-1.1,1-1.1,1.6c0,0.5,0.2,1,1.1,1.4V330.6z"
						/>
				</g>
			</g>
		</g>
	</g>
	<g>
		<g>
			<g>
				<g>
					<path class="st9" d="M407.3,312.6v43.8c0,1.7-1.3,3.1-2.8,3.1H332c-1.6,0-2.8-1.4-2.8-3.1v-43.8c0-1.7,1.3-2.9,2.8-2.9h72.4
						C406,309.7,407.3,311.1,407.3,312.6L407.3,312.6z"/>
				</g>
				<g class="st10">
					<path d="M407.3,312.6v43.8c0,1.7-1.3,3.1-2.8,3.1H332c-1.5,0-2.8-1.4-2.8-3.1V353h27.8c23.3,0,42.5-19.1,44.1-43.4h3.4
						C406,309.7,407.3,311.1,407.3,312.6L407.3,312.6z"/>
				</g>
			</g>
			<path class="st8" d="M408.1,309.1c-0.7-1-2.2-1.6-3.7-1.6H332c-2.7,0-4.9,2.3-4.9,5.1v43.8c0,3,2.1,5.3,4.9,5.3h72.4
				c2.7,0,4.9-2.3,4.9-5.3v-43.8C409.3,311.4,408.8,310.1,408.1,309.1z M384.5,312c4.5,0,10.2,0,11.3-0.1l0.2,0h5.2l-31.2,23.3
				c-0.6,0.4-1.2,0.6-1.8,0.6c-0.6,0-1.3-0.2-1.8-0.5l-31.3-23.3h17.3C352.5,311.9,371.8,312,384.5,312z M331.4,314.3l32.5,24.4
				c1.2,0.9,2.8,1.5,4.2,1.5c1.5,0,2.9-0.5,4.2-1.5l32.9-24.4v42.1c0,0.9-0.6,0.9-0.8,0.9H332c-0.4,0-0.6-0.5-0.6-0.9V314.3z"/>
		</g>
		<g>
			<path class="st6" d="M368.5,346.7v1.8h-2.6v-1.9c-2.5-0.3-4.8-1.3-6.6-3l2-2.5c1.3,1.2,2.8,2,4.5,2.4V338
				c-3.5-0.9-5.8-2.1-5.8-5.5c0-3,2.3-5.4,5.8-5.8V325h2.6v1.7c2.2,0.2,4.3,1.1,5.9,2.6l-1.9,2.6c-1.1-1-2.5-1.8-4-2.1v5.3
				c3.9,0.9,6.4,2.2,6.4,5.6C374.9,344.1,372.6,346.4,368.5,346.7z M365.9,334.5v-4.7c-1.4,0.3-2.3,1.3-2.3,2.4
				C363.6,333.4,364.4,334,365.9,334.5z M371.4,341.2c0-1.3-0.9-1.9-2.9-2.5v5C370.4,343.5,371.4,342.4,371.4,341.2L371.4,341.2z"/>
			<g>
				<path class="st8" d="M363.4,328.1L363.4,328.1c0.8-0.4,1.7-0.7,2.6-0.8c0.3,0,0.5-0.3,0.5-0.6v-1.2h1.4v1.2
					c0,0.3,0.2,0.5,0.5,0.6c1.9,0.2,3.7,0.9,5.2,2.2l-1.2,1.7c-1.1-0.9-2.4-1.5-3.8-1.9c-0.1,0-0.3,0-0.4,0.1
					c-0.1,0.1-0.2,0.2-0.2,0.4c0,0,0,0.1,0,0.1v5.3c0,0.3,0.2,0.5,0.4,0.6c0.9,0.2,1.7,0.4,2.6,0.8c0.1,0,0.1,0,0.2,0
					c0.3,0,0.6-0.3,0.6-0.6c0-0.2-0.1-0.4-0.4-0.5c-0.8-0.3-1.5-0.5-2.3-0.7v-4.1c1.1,0.4,2.2,1,3.1,1.8c0.2,0.2,0.6,0.2,0.8-0.1
					l1.9-2.6c0.2-0.2,0.1-0.6-0.1-0.8c-1.6-1.4-3.6-2.4-5.7-2.7V325c0-0.3-0.3-0.6-0.6-0.6h-2.6c-0.3,0-0.6,0.3-0.6,0.6v1.2
					c-0.9,0.2-1.7,0.4-2.5,0.9c-0.1,0.1-0.2,0.2-0.3,0.3c0,0.1,0,0.3,0,0.4C362.7,328.2,363.1,328.3,363.4,328.1z"/>
				<path class="st8" d="M368.6,338.1c-0.3-0.1-0.6,0.1-0.7,0.4c0,0.1,0,0.1,0,0.2v5c0,0.3,0.3,0.6,0.6,0.6l0.1,0
					c2.1-0.2,3.4-1.5,3.4-3.1C371.9,339.5,370.7,338.7,368.6,338.1z M370.8,341.2c0,0.9-0.7,1.6-1.8,1.9v-3.6
					C370.5,340,370.8,340.5,370.8,341.2z"/>
				<path class="st8" d="M372.6,337.3c0.1,0.1,0.2,0.1,0.3,0.1c0,0,0.1,0,0.1,0c0.1,0,0.3-0.1,0.4-0.2c0.1-0.1,0.1-0.3,0.1-0.4
					c0-0.1-0.1-0.3-0.2-0.4c-0.2-0.1-0.4-0.3-0.6-0.4l0,0c-0.3-0.2-0.6-0.1-0.8,0.2c-0.2,0.3-0.1,0.6,0.2,0.8
					C372.3,337.1,372.4,337.2,372.6,337.3z"/>
				<path class="st8" d="M374.4,337.4c-0.2-0.2-0.5-0.3-0.8-0.1c-0.1,0.1-0.2,0.2-0.2,0.4c0,0.2,0,0.3,0.1,0.4
					c0.6,0.7,0.9,1.6,0.9,2.7c0,3-2.3,5.1-5.9,5.3c-0.3,0-0.5,0.3-0.5,0.6v1.2h-1.4v-1.3c0-0.3-0.2-0.5-0.5-0.6
					c-2.2-0.2-4.2-1.1-5.9-2.5l1.3-1.6c1.3,1.1,2.8,1.8,4.4,2.2c0.1,0,0.3,0,0.4-0.1c0.1-0.1,0.2-0.2,0.2-0.4c0,0,0-0.1,0-0.1v-2
					c0-0.3-0.3-0.6-0.6-0.6c-0.3,0-0.6,0.3-0.6,0.6v1.3c-1.3-0.4-2.6-1.1-3.6-2.1c-0.1-0.1-0.3-0.2-0.4-0.1c-0.2,0-0.3,0.1-0.4,0.2
					l-2,2.5c-0.2,0.2-0.2,0.6,0.1,0.8c1.8,1.7,4,2.7,6.4,3.1v1.4c0,0.3,0.3,0.6,0.6,0.6h2.6c0.3,0,0.6-0.3,0.6-0.6v-1.3
					c4-0.5,6.4-2.9,6.4-6.4C375.5,339.5,375.1,338.3,374.4,337.4z"/>
				<path class="st8" d="M365.3,338.5v1.4c0,0.3,0.3,0.6,0.6,0.6c0.3,0,0.6-0.3,0.6-0.6V338c0-0.3-0.2-0.5-0.4-0.6
					c-3.3-0.9-5.4-2-5.4-4.9c0-1.4,0.5-2.7,1.5-3.6c0.2-0.2,0.2-0.6,0-0.8c-0.2-0.2-0.6-0.2-0.8,0c-1.2,1.1-1.9,2.7-1.9,4.4
					C359.5,336.3,362.3,337.6,365.3,338.5z"/>
				<path class="st8" d="M365.8,329.3L365.8,329.3c-1.6,0.4-2.7,1.6-2.7,3c0,1.6,1.3,2.3,2.6,2.8c0.1,0,0.1,0,0.2,0
					c0.1,0,0.2,0,0.3-0.1c0.2-0.1,0.2-0.3,0.2-0.5v-4.7C366.5,329.5,366.1,329.2,365.8,329.3z M365.3,330.6v3
					c-0.9-0.4-1.1-0.9-1.1-1.4C364.2,331.6,364.6,331,365.3,330.6z"/>
			</g>
		</g>
	</g>
	<g>
		<g>
			<g>
				<g>
					<path class="st9" d="M109,312.6v43.8c0,1.7-1.3,3.1-2.8,3.1H33.7c-1.6,0-2.8-1.4-2.8-3.1v-43.8c0-1.7,1.3-2.9,2.8-2.9h72.4
						C107.7,309.7,109,311.1,109,312.6L109,312.6z"/>
				</g>
				<g class="st10">
					<path d="M109,312.6v43.8c0,1.7-1.3,3.1-2.8,3.1H33.7c-1.5,0-2.8-1.4-2.8-3.1V353h27.8c23.3,0,42.5-19.1,44.1-43.4h3.4
						C107.7,309.7,109,311.1,109,312.6L109,312.6z"/>
				</g>
			</g>
			<path class="st8" d="M109.8,309.1c-0.7-1-2.2-1.6-3.7-1.6H33.7c-2.7,0-4.9,2.3-4.9,5.1v43.8c0,3,2.1,5.3,4.9,5.3h72.4
				c2.7,0,4.9-2.3,4.9-5.3v-43.8C111,311.4,110.5,310.1,109.8,309.1z M86.2,312c4.5,0,10.2,0,11.3-0.1l0.2,0h5.2l-31.2,23.3
				c-0.6,0.4-1.2,0.6-1.8,0.6c-0.6,0-1.3-0.2-1.8-0.5l-31.3-23.3H54C54.2,311.9,73.5,312,86.2,312z M33.1,314.3l32.5,24.4
				c1.2,0.9,2.8,1.5,4.2,1.5c1.5,0,2.9-0.5,4.2-1.5l32.9-24.4v42.1c0,0.9-0.6,0.9-0.8,0.9H33.7c-0.4,0-0.6-0.5-0.6-0.9V314.3z"/>
		</g>
		<g>
			<path class="st6" d="M70.2,346.7v1.8h-2.6v-1.9c-2.5-0.3-4.8-1.3-6.6-3l2-2.5c1.3,1.2,2.8,2,4.5,2.4V338
				c-3.5-0.9-5.8-2.1-5.8-5.5c0-3,2.3-5.4,5.8-5.8V325h2.6v1.7c2.2,0.2,4.3,1.1,5.9,2.6l-1.9,2.6c-1.1-1-2.5-1.8-4-2.1v5.3
				c3.9,0.9,6.4,2.2,6.4,5.6C76.6,344.1,74.3,346.4,70.2,346.7z M67.6,334.5v-4.7c-1.4,0.3-2.3,1.3-2.3,2.4
				C65.4,333.4,66.1,334,67.6,334.5z M73.1,341.2c0-1.3-0.9-1.9-2.9-2.5v5C72.1,343.5,73.1,342.4,73.1,341.2L73.1,341.2z"/>
			<g>
				<path class="st8" d="M65.1,328.1L65.1,328.1c0.8-0.4,1.7-0.7,2.6-0.8c0.3,0,0.5-0.3,0.5-0.6v-1.2h1.4v1.2c0,0.3,0.2,0.5,0.5,0.6
					c1.9,0.2,3.7,0.9,5.2,2.2l-1.2,1.7c-1.1-0.9-2.4-1.5-3.8-1.9c-0.1,0-0.3,0-0.4,0.1c-0.1,0.1-0.2,0.2-0.2,0.4c0,0,0,0.1,0,0.1
					v5.3c0,0.3,0.2,0.5,0.4,0.6c0.9,0.2,1.7,0.4,2.6,0.8c0.1,0,0.1,0,0.2,0c0.3,0,0.6-0.3,0.6-0.6c0-0.2-0.1-0.4-0.4-0.5
					c-0.8-0.3-1.5-0.5-2.3-0.7v-4.1c1.1,0.4,2.2,1,3.1,1.8c0.2,0.2,0.6,0.2,0.8-0.1l1.9-2.6c0.2-0.2,0.1-0.6-0.1-0.8
					c-1.6-1.4-3.6-2.4-5.7-2.7V325c0-0.3-0.3-0.6-0.6-0.6h-2.6c-0.3,0-0.6,0.3-0.6,0.6v1.2c-0.9,0.2-1.7,0.4-2.5,0.9
					c-0.1,0.1-0.2,0.2-0.3,0.3c0,0.1,0,0.3,0,0.4C64.4,328.2,64.8,328.3,65.1,328.1z"/>
				<path class="st8" d="M70.3,338.1c-0.3-0.1-0.6,0.1-0.7,0.4c0,0.1,0,0.1,0,0.2v5c0,0.3,0.3,0.6,0.6,0.6l0.1,0
					c2.1-0.2,3.4-1.5,3.4-3.1C73.7,339.5,72.4,338.7,70.3,338.1z M72.5,341.2c0,0.9-0.7,1.6-1.8,1.9v-3.6
					C72.2,340,72.5,340.5,72.5,341.2z"/>
				<path class="st8" d="M74.3,337.3c0.1,0.1,0.2,0.1,0.3,0.1c0,0,0.1,0,0.1,0c0.1,0,0.3-0.1,0.4-0.2c0.1-0.1,0.1-0.3,0.1-0.4
					c0-0.1-0.1-0.3-0.2-0.4c-0.2-0.1-0.4-0.3-0.6-0.4l0,0c-0.3-0.2-0.6-0.1-0.8,0.2c-0.2,0.3-0.1,0.6,0.2,0.8
					C74,337.1,74.2,337.2,74.3,337.3z"/>
				<path class="st8" d="M76.1,337.4c-0.2-0.2-0.5-0.3-0.8-0.1c-0.1,0.1-0.2,0.2-0.2,0.4c0,0.2,0,0.3,0.1,0.4
					c0.6,0.7,0.9,1.6,0.9,2.7c0,3-2.3,5.1-5.9,5.3c-0.3,0-0.5,0.3-0.5,0.6v1.2h-1.4v-1.3c0-0.3-0.2-0.5-0.5-0.6
					c-2.2-0.2-4.2-1.1-5.9-2.5l1.3-1.6c1.3,1.1,2.8,1.8,4.4,2.2c0.1,0,0.3,0,0.4-0.1c0.1-0.1,0.2-0.2,0.2-0.4c0,0,0-0.1,0-0.1v-2
					c0-0.3-0.3-0.6-0.6-0.6c-0.3,0-0.6,0.3-0.6,0.6v1.3c-1.3-0.4-2.6-1.1-3.6-2.1c-0.1-0.1-0.3-0.2-0.4-0.1c-0.2,0-0.3,0.1-0.4,0.2
					l-2,2.5c-0.2,0.2-0.2,0.6,0.1,0.8c1.8,1.7,4,2.7,6.4,3.1v1.4c0,0.3,0.3,0.6,0.6,0.6h2.6c0.3,0,0.6-0.3,0.6-0.6v-1.3
					c4-0.5,6.4-2.9,6.4-6.4C77.2,339.5,76.8,338.3,76.1,337.4z"/>
				<path class="st8" d="M67,338.5v1.4c0,0.3,0.3,0.6,0.6,0.6c0.3,0,0.6-0.3,0.6-0.6V338c0-0.3-0.2-0.5-0.4-0.6
					c-3.3-0.9-5.4-2-5.4-4.9c0-1.4,0.5-2.7,1.5-3.6c0.2-0.2,0.2-0.6,0-0.8c-0.2-0.2-0.6-0.2-0.8,0c-1.2,1.1-1.9,2.7-1.9,4.4
					C61.2,336.3,64,337.6,67,338.5z"/>
				<path class="st8" d="M67.5,329.3L67.5,329.3c-1.6,0.4-2.7,1.6-2.7,3c0,1.6,1.3,2.3,2.6,2.8c0.1,0,0.1,0,0.2,0
					c0.1,0,0.2,0,0.3-0.1c0.2-0.1,0.2-0.3,0.2-0.5v-4.7C68.2,329.5,67.8,329.2,67.5,329.3z M67,330.6v3c-0.9-0.4-1.1-0.9-1.1-1.4
					C65.9,331.6,66.3,331,67,330.6z"/>
			</g>
		</g>
	</g>
	<path class="st6" d="M218.9,219.6c0,0-37.6,32-56.8-12.1c0,0-21.6,10.7-29.7-2.6c-8.2-13.3-11.4-19.6-33.3-13.7
		c0,0-4.7-23.9-29.4-26.6c0,0-30.3-15.8,6.8-45.5c0,0-11.6-47.9,36-43.7c0,0,6.8-45.6,46.2-20.3c0,0,17.9-42.8,60.1-11.9
		c0,0-39.2,60.2-8.6,88.8S238.9,202.2,218.9,219.6z"/>
	<g>
		<g>
			<g>
				<g>
					<g>
						<path class="st9" d="M229.9,147.6l38,21.8c1.5,0.9,3.3,0.4,4.1-0.9l36.1-62.9c0.8-1.4,0.2-3.1-1.3-3.9l-38-21.8
							c-1.5-0.9-3.2-0.3-3.9,0.9l-36,62.8C228,145,228.5,146.8,229.9,147.6L229.9,147.6z"/>
					</g>
					<g class="st10">
						<path d="M229.9,147.6l38,21.8c1.5,0.9,3.3,0.4,4.1-0.9l36.1-62.9c0.7-1.3,0.2-3.1-1.3-3.9l-3-1.7L289.9,124
							c-11.6,20.2-37.7,27.3-59.6,16.6l-1.7,3C228,145,228.5,146.8,229.9,147.6L229.9,147.6z"/>
					</g>
				</g>
				<path class="st8" d="M307.8,99.8l-38-21.8c-2.4-1.4-5.5-0.6-6.9,1.7l-36,62.8c-0.7,1.3-0.9,2.9-0.5,4c0.5,1.2,1.4,2.2,2.5,2.8
					l38,21.8c2.6,1.5,5.7,0.8,7-1.6l36-62.8C311.3,104.3,310.4,101.3,307.8,99.8z M268.9,167.5l-36.5-21l37.5-16.4
					c1.5-0.6,2.6-1.6,3.4-2.9c0.7-1.2,1-2.9,0.8-4.4l-4.9-40.4l36.5,21c0.4,0.2,0.6,0.7,0.5,1l-36,62.8
					C270,167.5,269.7,168,268.9,167.5z M234.9,137.4l0.1-0.2c0.6-0.9,3.5-5.8,5.7-9.7c6.3-11,15.8-27.8,15.9-28l8.6-15l4.6,38.7
					c0,0.6-0.1,1.2-0.4,1.8s-0.8,1-1.4,1.3l-35.7,15.5L234.9,137.4z"/>
			</g>
			<g>
				<path class="st6" d="M261.3,121.4l-1.6-0.8l1.2-2.3l1.7,0.9c1.4-2.1,3.3-3.6,5.7-4.5l1.3,2.9c-1.6,0.6-3.1,1.6-4.2,3l4.9,2.5
					c2.4-2.7,4.5-4.2,7.5-2.7c2.7,1.4,3.7,4.5,2.6,7.8l1.5,0.8l-1.2,2.3l-1.6-0.8c-1.2,1.9-3,3.3-5,4.1l-1.4-2.9
					c1.4-0.5,2.7-1.4,3.7-2.6l-4.7-2.4c-2.5,3.1-4.9,4.7-7.9,3.2C260.7,128.4,259.7,125.2,261.3,121.4z M273.3,124.7l4.2,2.1
					c0.3-1.4-0.2-2.6-1.1-3.1C275.4,123.2,274.5,123.5,273.3,124.7z M264.9,126.5c1.2,0.6,2.1,0.1,3.5-1.5l-4.5-2.3
					C263.3,124.6,263.8,126,264.9,126.5L264.9,126.5z"/>
				<g>
					<path class="st8" d="M282.1,128.5l-1.1-0.6c0.3-0.9,0.4-1.7,0.4-2.6c0-0.2-0.1-0.3-0.2-0.4c-0.1-0.1-0.3-0.2-0.4-0.2
						c-0.3,0-0.6,0.3-0.6,0.6l0,0c0,0.9-0.1,1.8-0.5,2.7c-0.1,0.3,0,0.6,0.3,0.7l1,0.5l-0.6,1.3l-1.1-0.5c-0.3-0.1-0.6,0-0.7,0.2
						c-1,1.6-2.5,2.9-4.3,3.7l-0.9-1.9c1.3-0.6,2.4-1.5,3.4-2.5c0.1-0.1,0.1-0.3,0.1-0.4c0-0.2-0.1-0.3-0.2-0.4c0,0-0.1,0-0.1-0.1
						l-4.7-2.4c-0.2-0.1-0.5-0.1-0.7,0.1c-0.6,0.7-1.2,1.4-1.8,2c-0.1,0-0.1,0.1-0.1,0.2c-0.1,0.3,0,0.6,0.2,0.8
						c0.2,0.1,0.5,0.1,0.6-0.1c0.6-0.5,1.2-1.1,1.7-1.7l3.7,1.9c-0.9,0.8-1.9,1.5-3,1.9c-0.3,0.1-0.4,0.5-0.3,0.8l1.4,2.9
						c0.1,0.3,0.5,0.4,0.7,0.3c2-0.8,3.7-2.1,5-3.9l1.1,0.6c0.3,0.1,0.6,0,0.8-0.2l1.2-2.3C282.4,128.9,282.3,128.6,282.1,128.5z"/>
					<path class="st8" d="M264.2,122.3c-0.3-0.1-0.6,0-0.8,0.2l0,0.1c-0.7,2-0.2,3.7,1.2,4.4c1.5,0.8,2.7,0,4.2-1.6
						c0.2-0.2,0.2-0.6,0-0.8c0,0-0.1-0.1-0.1-0.1L264.2,122.3z M267.5,125.2c-1.1,1.1-1.7,1.1-2.3,0.8c-0.8-0.4-1.1-1.3-0.9-2.4
						L267.5,125.2z"/>
					<path class="st8" d="M268.3,129c-0.2,0.1-0.3,0.2-0.5,0.3c-0.1,0.1-0.2,0.1-0.2,0.2c0,0,0,0.1,0,0.1c0,0.1,0,0.3,0,0.4
						c0.1,0.1,0.2,0.2,0.3,0.3c0.1,0,0.3,0,0.4,0c0.2-0.1,0.4-0.2,0.6-0.4l0,0c0.3-0.2,0.3-0.5,0.2-0.8
						C268.9,129,268.5,128.9,268.3,129z"/>
					<path class="st8" d="M266.7,129.8c-0.9,0.2-1.8,0.1-2.8-0.4c-2.7-1.4-3.5-4.3-2.1-7.7c0.1-0.3,0-0.6-0.3-0.7l-1.1-0.6l0.6-1.3
						l1.2,0.6c0.3,0.1,0.6,0,0.7-0.2c1.2-1.8,2.9-3.2,4.9-4.1l0.9,1.9c-1.5,0.6-2.9,1.6-3.9,2.9c-0.1,0.1-0.1,0.3-0.1,0.4
						c0,0.2,0.1,0.3,0.2,0.4c0,0,0.1,0,0.1,0.1l1.8,0.9c0.3,0.1,0.6,0,0.8-0.2c0.1-0.3,0-0.6-0.2-0.8l-1.1-0.6c1-1,2.2-1.8,3.5-2.2
						c0.1-0.1,0.3-0.2,0.3-0.3c0.1-0.1,0.1-0.3,0-0.5l-1.3-2.9c-0.1-0.3-0.4-0.4-0.7-0.3c-2.3,0.8-4.2,2.3-5.7,4.3l-1.2-0.6
						c-0.3-0.1-0.6,0-0.8,0.2l-1.2,2.3c-0.1,0.3,0,0.6,0.2,0.8l1.1,0.6c-1.4,3.8-0.3,7.1,2.8,8.6c1.2,0.6,2.4,0.8,3.5,0.5
						c0.3-0.1,0.5-0.4,0.4-0.7c0-0.1-0.1-0.3-0.2-0.4C267,129.8,266.8,129.7,266.7,129.8z"/>
					<path class="st8" d="M268.8,121.7c-0.3-0.1-0.6,0-0.8,0.2c-0.1,0.3,0,0.6,0.2,0.8l1.7,0.8c0.2,0.1,0.5,0.1,0.7-0.1
						c2.3-2.6,4.2-3.9,6.8-2.6c1.2,0.6,2.1,1.7,2.5,3c0.1,0.3,0.4,0.5,0.7,0.4c0.3-0.1,0.5-0.4,0.4-0.7c-0.5-1.6-1.6-2.9-3.1-3.7
						c-3.3-1.7-5.8,0.2-7.9,2.5L268.8,121.7z"/>
					<path class="st8" d="M276.6,123.2c-1.5-0.7-2.7,0.1-3.7,1.1c0,0-0.1,0.1-0.1,0.2c-0.1,0.1-0.1,0.2-0.1,0.3
						c0,0.2,0.1,0.3,0.3,0.4l4.2,2.1c0.3,0.2,0.7,0,0.8-0.4l0,0C278.5,125.3,277.9,123.8,276.6,123.2z M277.1,125.9l-2.7-1.4
						c0.8-0.6,1.3-0.6,1.8-0.4C276.7,124.5,277,125.1,277.1,125.9z"/>
				</g>
			</g>
		</g>
		<g>
			<path class="st11" d="M222.6,138.7c0,0,106.5-11.9,65.7,35.5l-54.2-4.9L222.6,138.7z"/>
			<path class="st2" d="M221.5,137.3c0,0,107.7-6.3,66.9,41.1l-54.2-9L221.5,137.3z"/>
		</g>
	</g>
	<g id="g11329_1_" transform="translate(162.4046,298.9754)">
		<g id="path11331_1_">
			<path class="st8" d="M29.9-62.8C15.1-62.8,2.3-71.7-3-85c-3.7,1.5-7.7,2.2-11.8,2.2c-4.3,0-8.5-0.8-12.5-2.5
				c-2.3-1-3.4-3.6-2.4-5.9c1-2.3,3.6-3.4,5.9-2.4c2.8,1.2,5.9,1.8,9,1.8c4.3,0,8.5-1.2,12.1-3.4c1.2-0.8,2.8-0.9,4.1-0.3
				c1.3,0.6,2.3,1.7,2.6,3.2c2.7,11.9,13.6,20.6,25.8,20.6c9.4,0,17.9-4.8,22.7-12.9c0.8-1.4,2.3-2.2,3.9-2.2c1.6,0,3,0.8,3.9,2.2
				c4.8,8.1,13.3,12.9,22.7,12.9c12.3,0,23.1-8.7,25.8-20.6c0.3-1.4,1.3-2.6,2.6-3.2c1.3-0.6,2.9-0.4,4.1,0.3
				c3.6,2.3,7.8,3.4,12.1,3.4c3.1,0,6.1-0.6,9-1.8c2.3-1,4.9,0.1,5.9,2.4c1,2.3-0.1,4.9-2.4,5.9c-4,1.7-8.2,2.5-12.5,2.5
				c-4.1,0-8-0.8-11.8-2.2c-5.3,13.3-18.1,22.2-32.9,22.2c-10.2,0-19.9-4.5-26.6-12C49.8-67.3,40.1-62.8,29.9-62.8z"/>
		</g>
	</g>
	<g id="g11313_1_" transform="translate(11.3344,258.6616)">
		<g id="path11315_1_">
			<path class="st8" d="M58.3,37.1c-15.7,0-28.8-11.4-31.5-26.4c-3.5,1.6-7.3,2.4-11.2,2.4c-14.9,0-27-12.1-27-27
				c0-6.1,2.1-11.9,5.8-16.7c-3.7-4.7-5.8-10.6-5.8-16.7c0-14.9,12.1-27,27-27c3.9,0,7.7,0.8,11.2,2.4c2.6-15,15.7-26.4,31.5-26.4
				c15.7,0,28.8,11.4,31.5,26.4c3.5-1.6,7.3-2.4,11.2-2.4c14.9,0,27,12.1,27,27c0,6.1-2.1,11.9-5.8,16.7c3.7,4.7,5.8,10.6,5.8,16.7
				c0,14.9-12.1,27-27,27c-3.9,0-7.7-0.8-11.2-2.4C87.1,25.7,74,37.1,58.3,37.1z M31-1.8c0.7,0,1.3,0.2,2,0.5
				c1.7,0.8,2.7,2.6,2.5,4.4c-0.1,0.7-0.1,1.4-0.1,2.1c0,12.7,10.3,23,23,23c12.7,0,23-10.3,23-23c0-0.7,0-1.4-0.1-2.1
				C81,1.2,82-0.6,83.7-1.4c1.7-0.8,3.7-0.5,5,0.7c3.3,3.1,7.7,4.8,12.2,4.8c9.9,0,18-8.1,18-18c0-5.1-2.2-9.9-5.9-13.3
				c-0.9-0.9-1.5-2.1-1.5-3.3s0.5-2.5,1.5-3.3c3.7-3.4,5.9-8.3,5.9-13.3c0-9.9-8.1-18-18-18c-4.6,0-8.9,1.7-12.2,4.8
				c-1.4,1.3-3.4,1.6-5,0.7C82-60.4,81-62.1,81.2-64c0.1-0.8,0.1-1.4,0.1-2.1c0-12.7-10.3-23-23-23c-12.7,0-23,10.3-23,23
				c0,0.7,0,1.4,0.1,2.1c0.2,1.9-0.8,3.6-2.5,4.4c-1.7,0.8-3.7,0.5-5-0.7c-3.3-3.1-7.7-4.8-12.2-4.8c-9.9,0-18,8.1-18,18
				c0,5.1,2.2,9.9,5.9,13.3C4.5-32.9,5-31.7,5-30.5S4.5-28,3.6-27.1c-3.7,3.4-5.9,8.3-5.9,13.3c0,9.9,8.1,18,18,18
				c4.6,0,8.9-1.7,12.2-4.8C28.8-1.4,29.8-1.8,31-1.8z"/>
		</g>
	</g>
	<g id="g11325_1_" transform="translate(433.2618,349.9637)">
		<g id="path11327_1_">
			<path class="st8" d="M-59-180.6c-1,0-1.9-0.3-2.7-0.9c-2-1.5-2.3-4.3-0.8-6.3c3.4-4.4,5.3-9.8,5.3-15.4c0-11-7.4-21-18-24.1
				c-1.3-0.4-2.4-1.3-2.9-2.6c-0.5-1.3-0.4-2.7,0.2-3.9c2-3.7,3.1-7.9,3.1-12.1c0-13.9-11.3-25.2-25.2-25.2c-2.3,0-4.6,0.3-6.8,0.9
				c-1.4,0.4-2.9,0.1-4-0.8c-1.1-0.9-1.8-2.3-1.7-3.7c0-0.4,0-0.7,0-1.1c0-12.4-10.1-22.5-22.5-22.5c-6.1,0-11.7,2.4-16,6.7
				c-1.1,1.2-2.8,1.6-4.4,1.2c-1.6-0.4-2.8-1.7-3.2-3.3c-3.2-13.2-14.9-22.4-28.4-22.4c-9.3,0-18.2,4.5-23.7,12.1
				c-0.8,1.2-2.2,1.9-3.6,1.9l0,0c-1.4,0-2.8-0.7-3.6-1.9c-5.5-7.6-14.3-12.1-23.7-12.1c-13.6,0-25.3,9.2-28.4,22.4
				c-0.4,1.6-1.6,2.8-3.2,3.3c-1.6,0.4-3.3,0-4.4-1.2c-4.3-4.3-9.9-6.7-16-6.7c-12.4,0-22.5,10.1-22.5,22.5c0,0.4,0,0.7,0,1.1
				c0.1,1.4-0.6,2.8-1.7,3.7c-1.1,0.9-2.6,1.2-4,0.8c-2.2-0.6-4.5-1-6.8-1c-13.9,0-25.2,11.3-25.2,25.2c0,4.2,1.1,8.4,3.1,12.1
				c0.7,1.2,0.7,2.6,0.2,3.9c-0.5,1.3-1.6,2.2-2.9,2.6c-10.6,3.2-18,13.1-18,24.1c0,5,1.4,9.8,4.2,13.9c1.4,2.1,0.8,4.9-1.3,6.2
				c-2.1,1.4-4.9,0.8-6.2-1.3c-3.7-5.6-5.7-12.1-5.7-18.9c0-13.3,7.9-25.3,19.6-30.9c-1.4-3.7-2.1-7.7-2.1-11.8
				c0-18.8,15.3-34.1,34.1-34.1c1.3,0,2.5,0.1,3.8,0.2c2-15.4,15.3-27.4,31.2-27.4c6.1,0,12,1.7,17,5c6-13.7,19.6-22.8,35-22.8
				c10.3,0,20.2,4.2,27.3,11.5c7.1-7.3,17-11.5,27.3-11.5c15.4,0,29,9.1,35,22.8c5-3.2,10.9-5,17-5c16,0,29.2,11.9,31.2,27.4
				c1.3-0.1,2.5-0.2,3.8-0.2c18.8,0,34.1,15.3,34.1,34.1c0,4-0.7,8-2.1,11.8c11.8,5.6,19.6,17.6,19.6,30.9c0,7.6-2.5,14.9-7.1,20.9
				C-56.4-181.2-57.7-180.6-59-180.6z"/>
		</g>
	</g>
	<g>
		<g>
			<g>
				<g>
					<g>
						<path class="st9" d="M110.9,144.5l-38,21.8c-1.5,0.9-3.3,0.4-4.1-0.9l-36.1-62.9c-0.8-1.4-0.2-3.1,1.3-3.9l38-21.8
							c1.5-0.9,3.2-0.3,3.9,0.9l36,62.8C112.8,141.9,112.2,143.7,110.9,144.5L110.9,144.5z"/>
					</g>
					<g class="st10">
						<path d="M110.9,144.5l-38,21.8c-1.5,0.9-3.3,0.4-4.1-0.9l-36.1-62.9c-0.7-1.3-0.2-3.1,1.3-3.9l3-1.7l13.9,24.1
							c11.6,20.2,37.7,27.3,59.6,16.6l1.7,3C112.8,141.9,112.2,143.7,110.9,144.5L110.9,144.5z"/>
					</g>
				</g>
				<path class="st8" d="M113.9,139.4l-36-62.8c-1.3-2.3-4.4-3.1-6.9-1.7L33,96.7c-2.6,1.5-3.5,4.5-2.2,6.9l36,62.8
					c1.4,2.4,4.5,3.1,7,1.6l38-21.8c1-0.6,2-1.7,2.5-2.8C114.8,142.2,114.6,140.7,113.9,139.4z M70.7,164.2l-36-62.8
					c-0.2-0.3,0.1-0.8,0.5-1l36.5-21l-4.9,40.4c-0.2,1.5,0.1,3.2,0.8,4.4c0.7,1.3,1.9,2.3,3.4,2.9l37.5,16.4l-36.5,21
					C71.1,164.9,70.8,164.3,70.7,164.2z M72.7,123.3c-0.6-0.3-1.1-0.7-1.4-1.3c-0.3-0.6-0.5-1.2-0.4-1.8l4.6-38.7l8.6,15
					c0.1,0.1,9.5,16.9,15.9,28c2.3,3.9,5.1,8.8,5.7,9.7l0.1,0.2l2.6,4.5L72.7,123.3z"/>
			</g>
			<g>
				<path class="st6" d="M62,127.7l-1.6,0.9l-1.3-2.2l1.6-0.9c-1-2.3-1.2-4.8-0.7-7.2l3.2,0.5c-0.4,1.7-0.4,3.5,0.2,5.1l4.8-2.7
					c-0.9-3.5-1-6.1,1.9-7.8c2.6-1.5,5.8-0.7,7.9,2.1l1.5-0.9l1.3,2.2l-1.5,0.9c0.9,2,1.1,4.3,0.7,6.4l-3.2-0.4
					c0.3-1.5,0.3-3.1-0.2-4.5L72,122c1.2,3.8,1.3,6.7-1.7,8.4C67.5,132,64.3,131.1,62,127.7z M71.3,119.4l4.1-2.3
					c-1-1-2.3-1.3-3.2-0.8C71.2,116.9,71,117.8,71.3,119.4z M68.3,127.5c1.1-0.6,1.2-1.7,0.7-3.8l-4.4,2.5
					C65.8,127.8,67.2,128.1,68.3,127.5L68.3,127.5z"/>
				<g>
					<path class="st8" d="M81.3,116.6l-1.3-2.2c-0.2-0.3-0.5-0.4-0.8-0.2l-1.1,0.6c-0.6-0.7-1.2-1.3-2-1.7c-0.1-0.1-0.3-0.1-0.4-0.1
						c-0.1,0-0.3,0.1-0.4,0.2c-0.2,0.3-0.1,0.6,0.2,0.8l0,0c0.8,0.5,1.5,1.1,2,1.9c0.2,0.2,0.5,0.3,0.7,0.2l1-0.6l0.7,1.2l-1,0.6
						c-0.3,0.1-0.4,0.5-0.2,0.7c0.8,1.8,1,3.7,0.7,5.6l-2.1-0.2c0.2-1.4,0.1-2.8-0.3-4.2c0-0.1-0.1-0.3-0.3-0.3
						c-0.1-0.1-0.3-0.1-0.4,0c0,0-0.1,0-0.1,0l-4.6,2.6c-0.2,0.1-0.3,0.4-0.3,0.7c0.3,0.9,0.5,1.7,0.6,2.6c0,0.1,0,0.1,0.1,0.2
						c0.2,0.3,0.5,0.4,0.8,0.2c0.2-0.1,0.3-0.3,0.3-0.6c-0.1-0.8-0.3-1.6-0.5-2.3l3.6-2c0.2,1.2,0.2,2.4,0,3.6
						c-0.1,0.3,0.1,0.6,0.5,0.7l3.2,0.4c0.3,0,0.6-0.2,0.6-0.5c0.4-2.1,0.3-4.3-0.5-6.3l1.1-0.6C81.4,117.3,81.5,116.9,81.3,116.6z"
						/>
					<path class="st8" d="M68.8,123.2c-0.1,0-0.1,0-0.2,0.1l-4.4,2.5c-0.3,0.2-0.4,0.5-0.2,0.8l0,0.1c1.2,1.7,3,2.2,4.4,1.4
						c1.5-0.8,1.5-2.3,1-4.4C69.4,123.3,69.1,123.1,68.8,123.2z M65.5,126.4l3.1-1.8c0.3,1.5,0,2-0.6,2.4
						C67.2,127.4,66.3,127.2,65.5,126.4z"/>
					<path class="st8" d="M72.8,125.5c-0.3,0-0.6,0.3-0.6,0.6c0,0.2,0,0.4,0,0.6c0,0.1,0,0.2,0.1,0.3c0,0,0,0.1,0.1,0.1
						c0.1,0.1,0.2,0.2,0.4,0.2c0.2,0,0.3,0,0.4-0.1c0.1-0.1,0.2-0.2,0.2-0.4c0-0.2,0-0.5,0-0.7l0,0
						C73.3,125.7,73.1,125.5,72.8,125.5z"/>
					<path class="st8" d="M72.7,127.5c-0.1-0.1-0.3-0.1-0.4,0c-0.1,0.1-0.2,0.2-0.3,0.3c-0.3,0.9-0.9,1.5-1.9,2.1
						c-2.6,1.5-5.5,0.6-7.6-2.5c-0.2-0.2-0.5-0.3-0.8-0.2l-1.1,0.6l-0.7-1.2l1.1-0.7c0.2-0.1,0.4-0.5,0.2-0.7
						c-0.9-2-1.1-4.2-0.7-6.3l2.1,0.3c-0.3,1.6-0.2,3.3,0.3,4.9c0,0.1,0.1,0.3,0.3,0.3c0.1,0.1,0.3,0.1,0.4,0c0,0,0.1,0,0.1,0l1.7-1
						c0.3-0.2,0.4-0.5,0.2-0.8c-0.2-0.3-0.5-0.4-0.8-0.2l-1.1,0.6c-0.3-1.4-0.3-2.8,0-4.2c0-0.1,0-0.3-0.1-0.4
						c-0.1-0.1-0.2-0.2-0.4-0.3l-3.2-0.5c-0.3,0-0.6,0.1-0.6,0.4c-0.6,2.4-0.4,4.8,0.5,7.1l-1.2,0.7c-0.3,0.2-0.4,0.5-0.2,0.8
						l1.3,2.2c0.2,0.3,0.5,0.4,0.8,0.2l1.1-0.6c2.4,3.2,5.7,4.1,8.8,2.4c1.2-0.7,2-1.6,2.4-2.7C73.1,127.9,73,127.6,72.7,127.5z"/>
					<path class="st8" d="M66.9,122.6l1.6-0.9c0.2-0.1,0.3-0.4,0.3-0.6c-0.9-3.3-1-5.7,1.6-7.1c1.2-0.7,2.6-0.9,3.9-0.5
						c0.3,0.1,0.6-0.1,0.7-0.4c0.1-0.3-0.1-0.6-0.4-0.7c-1.6-0.5-3.3-0.3-4.8,0.6c-3.3,1.9-3,4.9-2.2,8l-1.2,0.7
						c-0.3,0.2-0.4,0.5-0.2,0.8C66.3,122.7,66.6,122.8,66.9,122.6z"/>
					<path class="st8" d="M71.9,115.8c-1.4,0.8-1.4,2.3-1.1,3.7c0,0.1,0,0.1,0.1,0.2c0.1,0.1,0.1,0.2,0.3,0.2c0.2,0.1,0.4,0.1,0.5,0
						l4.1-2.3c0.3-0.2,0.4-0.6,0.1-0.9l0,0C74.6,115.5,73.1,115.2,71.9,115.8z M72.4,116.8c0.6-0.3,1.3-0.3,2,0.2l-2.6,1.5
						C71.7,117.5,72,117.1,72.4,116.8z"/>
				</g>
			</g>
		</g>
		<g>
			<path class="st11" d="M90.4,163.6c0,0-19.8-60.3,15.9-66c35.7-5.7,19.2,59.2,19.2,59.2S117.4,176.7,90.4,163.6z"/>
			<path class="st6" d="M90.9,164.4c0,0-17.7-63,18-68.8s17.1,61.7,17.1,61.7S117.8,178.1,90.9,164.4z"/>
		</g>
	</g>
	<g>
		<g>
			<g>
				<g>
					<g>
						<path class="st9" d="M135.6,70.3l38,21.8c1.5,0.9,3.3,0.4,4.1-0.9l36.1-62.9c0.8-1.4,0.2-3.1-1.3-3.9l-38-21.8
							c-1.5-0.9-3.2-0.3-3.9,0.9l-36,62.8C133.7,67.7,134.2,69.5,135.6,70.3L135.6,70.3z"/>
					</g>
					<g class="st10">
						<path d="M135.6,70.3l38,21.8c1.5,0.9,3.3,0.4,4.1-0.9l36.1-62.9c0.7-1.3,0.2-3.1-1.3-3.9l-3-1.7l-13.9,24.1
							c-11.6,20.2-37.7,27.3-59.6,16.6l-1.7,3C133.7,67.7,134.2,69.5,135.6,70.3L135.6,70.3z"/>
					</g>
				</g>
				<path class="st8" d="M213.5,22.5l-38-21.8c-2.4-1.4-5.5-0.6-6.9,1.7l-36,62.8c-0.7,1.3-0.9,2.9-0.5,4c0.5,1.2,1.4,2.2,2.5,2.8
					l38,21.8c2.6,1.5,5.7,0.8,7-1.6l36-62.8C217,27,216,24,213.5,22.5z M174.6,90.2l-36.5-21l37.5-16.4c1.5-0.6,2.6-1.6,3.4-2.9
					c0.7-1.2,1-2.9,0.8-4.4l-4.9-40.4l36.5,21c0.4,0.2,0.6,0.7,0.5,1l-36,62.8C175.7,90.2,175.4,90.7,174.6,90.2z M140.6,60.1
					l0.1-0.2c0.6-0.9,3.5-5.8,5.7-9.7c6.3-11,15.8-27.8,15.9-28l8.6-15l4.6,38.7c0,0.6-0.1,1.2-0.4,1.8c-0.3,0.6-0.8,1-1.4,1.3
					L138,64.6L140.6,60.1z"/>
			</g>
			<g>
				<path class="st6" d="M167,44.1l-1.6-0.8l1.2-2.3l1.7,0.9c1.4-2.1,3.3-3.6,5.7-4.5l1.3,2.9c-1.6,0.6-3.1,1.6-4.2,3l4.9,2.5
					c2.4-2.7,4.5-4.2,7.5-2.7c2.7,1.4,3.7,4.5,2.6,7.8l1.5,0.8l-1.2,2.3l-1.6-0.8c-1.2,1.9-3,3.3-5,4.1l-1.4-2.9
					c1.4-0.5,2.7-1.4,3.7-2.6l-4.7-2.4c-2.5,3.1-4.9,4.7-7.9,3.2C166.4,51.1,165.4,47.9,167,44.1z M179,47.4l4.2,2.1
					c0.3-1.4-0.2-2.6-1.1-3.1C181,45.9,180.2,46.3,179,47.4z M170.6,49.2c1.2,0.6,2.1,0.1,3.5-1.5l-4.5-2.3
					C169,47.3,169.5,48.7,170.6,49.2L170.6,49.2z"/>
				<g>
					<path class="st8" d="M187.7,51.2l-1.1-0.6c0.3-0.9,0.4-1.7,0.4-2.6c0-0.2-0.1-0.3-0.2-0.4c-0.1-0.1-0.3-0.2-0.4-0.2
						c-0.3,0-0.6,0.3-0.6,0.6l0,0c0,0.9-0.1,1.8-0.5,2.7c-0.1,0.3,0,0.6,0.3,0.7l1,0.5l-0.6,1.3l-1.1-0.5c-0.3-0.1-0.6,0-0.7,0.2
						c-1,1.6-2.5,2.9-4.3,3.7l-0.9-1.9c1.3-0.6,2.4-1.5,3.4-2.5c0.1-0.1,0.1-0.3,0.1-0.4c0-0.2-0.1-0.3-0.2-0.4c0,0-0.1,0-0.1-0.1
						l-4.7-2.4c-0.2-0.1-0.5-0.1-0.7,0.1c-0.6,0.7-1.2,1.4-1.8,2c-0.1,0-0.1,0.1-0.1,0.2c-0.1,0.3,0,0.6,0.2,0.8
						c0.2,0.1,0.5,0.1,0.6-0.1c0.6-0.5,1.2-1.1,1.7-1.7l3.7,1.9c-0.9,0.8-1.9,1.5-3,1.9c-0.3,0.1-0.4,0.5-0.3,0.8l1.4,2.9
						c0.1,0.3,0.5,0.4,0.7,0.3c2-0.8,3.7-2.1,5-3.9l1.1,0.6c0.3,0.1,0.6,0,0.8-0.2l1.2-2.3C188.1,51.7,188,51.3,187.7,51.2z"/>
					<path class="st8" d="M169.9,45c-0.3-0.1-0.6,0-0.8,0.2l0,0.1c-0.7,2-0.2,3.7,1.2,4.4c1.5,0.8,2.7,0,4.2-1.6
						c0.2-0.2,0.2-0.6,0-0.8c0,0-0.1-0.1-0.1-0.1L169.9,45z M173.2,47.9c-1.1,1.1-1.7,1.1-2.3,0.8c-0.8-0.4-1.1-1.3-0.9-2.4
						L173.2,47.9z"/>
					<path class="st8" d="M174,51.8c-0.2,0.1-0.3,0.2-0.5,0.3c-0.1,0.1-0.2,0.1-0.2,0.2c0,0,0,0.1,0,0.1c0,0.1,0,0.3,0,0.4
						c0.1,0.1,0.2,0.2,0.3,0.3c0.1,0,0.3,0,0.4,0c0.2-0.1,0.4-0.2,0.6-0.4l0,0c0.3-0.2,0.3-0.5,0.2-0.8
						C174.6,51.7,174.2,51.6,174,51.8z"/>
					<path class="st8" d="M172.3,52.5c-0.9,0.2-1.8,0.1-2.8-0.4c-2.7-1.4-3.5-4.3-2.1-7.7c0.1-0.3,0-0.6-0.3-0.7l-1.1-0.6l0.6-1.3
						l1.2,0.6c0.3,0.1,0.6,0,0.7-0.2c1.2-1.8,2.9-3.2,4.9-4.1l0.9,1.9c-1.5,0.6-2.9,1.6-3.9,2.9c-0.1,0.1-0.1,0.3-0.1,0.4
						c0,0.2,0.1,0.3,0.2,0.4c0,0,0.1,0,0.1,0.1l1.8,0.9c0.3,0.1,0.6,0,0.8-0.2c0.1-0.3,0-0.6-0.2-0.8l-1.1-0.6c1-1,2.2-1.8,3.5-2.2
						c0.1-0.1,0.3-0.2,0.3-0.3c0.1-0.1,0.1-0.3,0-0.5l-1.3-2.9c-0.1-0.3-0.4-0.4-0.7-0.3c-2.3,0.8-4.2,2.3-5.7,4.3l-1.2-0.6
						c-0.3-0.1-0.6,0-0.8,0.2l-1.2,2.3c-0.1,0.3,0,0.6,0.2,0.8l1.1,0.6c-1.4,3.8-0.3,7.1,2.8,8.6c1.2,0.6,2.4,0.8,3.5,0.5
						c0.3-0.1,0.5-0.4,0.4-0.7c0-0.1-0.1-0.3-0.2-0.4C172.7,52.5,172.5,52.4,172.3,52.5z"/>
					<path class="st8" d="M174.5,44.4c-0.3-0.1-0.6,0-0.8,0.2c-0.1,0.3,0,0.6,0.2,0.8l1.7,0.8c0.2,0.1,0.5,0.1,0.7-0.1
						c2.3-2.6,4.2-3.9,6.8-2.6c1.2,0.6,2.1,1.7,2.5,3c0.1,0.3,0.4,0.5,0.7,0.4c0.3-0.1,0.5-0.4,0.4-0.7c-0.5-1.6-1.6-2.9-3.1-3.7
						c-3.3-1.7-5.8,0.2-7.9,2.5L174.5,44.4z"/>
					<path class="st8" d="M182.3,45.9c-1.5-0.7-2.7,0.1-3.7,1.1c0,0-0.1,0.1-0.1,0.2c-0.1,0.1-0.1,0.2-0.1,0.3
						c0,0.2,0.1,0.3,0.3,0.4l4.2,2.1c0.3,0.2,0.7,0,0.8-0.4l0,0C184.1,48,183.5,46.5,182.3,45.9z M182.7,48.6l-2.7-1.4
						c0.8-0.6,1.3-0.6,1.8-0.4C182.4,47.2,182.7,47.8,182.7,48.6z"/>
				</g>
			</g>
		</g>
		<g>
			<path class="st11" d="M123.9,62.9c0,0,98.1-10.4,58.6,28.6l-25.5,9.6l-32.5-32L123.9,62.9z"/>
			<path class="st6" d="M121.8,62.6c0,0,98.6-7.5,59.1,31.5l-24.9,9l-32.5-32L121.8,62.6z"/>
		</g>
	</g>
	<g>
		<g>
			<g>
				<g>
					<g>
						<path class="st9" d="M326.5,142.2l38,21.8c1.5,0.9,3.3,0.4,4.1-0.9l36.1-62.9c0.8-1.4,0.2-3.1-1.3-3.9l-38-21.8
							c-1.5-0.9-3.2-0.3-3.9,0.9l-36,62.8C324.6,139.6,325.2,141.5,326.5,142.2L326.5,142.2z"/>
					</g>
					<g class="st10">
						<path d="M326.5,142.2l38,21.8c1.5,0.9,3.3,0.4,4.1-0.9l36.1-62.9c0.7-1.3,0.2-3.1-1.3-3.9l-3-1.7l-13.9,24.1
							c-11.6,20.2-37.7,27.3-59.6,16.6l-1.7,3C324.6,139.6,325.2,141.5,326.5,142.2L326.5,142.2z"/>
					</g>
				</g>
				<path class="st8" d="M404.4,94.4l-38-21.8c-2.4-1.4-5.5-0.6-6.9,1.7l-36,62.8c-0.7,1.3-0.9,2.9-0.5,4c0.5,1.2,1.4,2.2,2.5,2.8
					l38,21.8c2.6,1.5,5.7,0.8,7-1.6l36-62.8C407.9,98.9,407,95.9,404.4,94.4z M365.5,162.2l-36.5-21l37.5-16.4
					c1.5-0.6,2.6-1.6,3.4-2.9c0.7-1.2,1-2.9,0.8-4.4l-4.9-40.4l36.5,21c0.4,0.2,0.6,0.7,0.5,1l-36,62.8
					C366.6,162.1,366.3,162.6,365.5,162.2z M331.5,132l0.1-0.2c0.6-0.9,3.5-5.8,5.7-9.7c6.3-11,15.8-27.8,15.9-28l8.6-15l4.6,38.7
					c0,0.6-0.1,1.2-0.4,1.8c-0.3,0.6-0.8,1-1.4,1.3l-35.7,15.5L331.5,132z"/>
			</g>
			<g>
				<path class="st6" d="M357.9,116.1l-1.6-0.8l1.2-2.3l1.7,0.9c1.4-2.1,3.3-3.6,5.7-4.5l1.3,2.9c-1.6,0.6-3.1,1.6-4.2,3l4.9,2.5
					c2.4-2.7,4.5-4.2,7.5-2.7c2.7,1.4,3.7,4.5,2.6,7.8l1.5,0.8l-1.2,2.3l-1.6-0.8c-1.2,1.9-3,3.3-5,4.1l-1.4-2.9
					c1.4-0.5,2.7-1.4,3.7-2.6l-4.7-2.4c-2.5,3.1-4.9,4.7-7.9,3.2C357.4,123,356.3,119.9,357.9,116.1z M370,119.3l4.2,2.1
					c0.3-1.4-0.2-2.6-1.1-3.1C372,117.8,371.1,118.2,370,119.3z M361.6,121.2c1.2,0.6,2.1,0.1,3.5-1.5l-4.5-2.3
					C359.9,119.3,360.4,120.6,361.6,121.2L361.6,121.2z"/>
				<g>
					<path class="st8" d="M378.7,123.1l-1.1-0.6c0.3-0.9,0.4-1.7,0.4-2.6c0-0.2-0.1-0.3-0.2-0.4c-0.1-0.1-0.3-0.2-0.4-0.2
						c-0.3,0-0.6,0.3-0.6,0.6l0,0c0,0.9-0.1,1.8-0.5,2.7c-0.1,0.3,0,0.6,0.3,0.7l1,0.5l-0.6,1.3l-1.1-0.5c-0.3-0.1-0.6,0-0.7,0.2
						c-1,1.6-2.5,2.9-4.3,3.7l-0.9-1.9c1.3-0.6,2.4-1.5,3.4-2.5c0.1-0.1,0.1-0.3,0.1-0.4c0-0.2-0.1-0.3-0.2-0.4c0,0-0.1,0-0.1-0.1
						l-4.7-2.4c-0.2-0.1-0.5-0.1-0.7,0.1c-0.6,0.7-1.2,1.4-1.8,2c-0.1,0-0.1,0.1-0.1,0.2c-0.1,0.3,0,0.6,0.2,0.8
						c0.2,0.1,0.5,0.1,0.6-0.1c0.6-0.5,1.2-1.1,1.7-1.7l3.7,1.9c-0.9,0.8-1.9,1.5-3,1.9c-0.3,0.1-0.4,0.5-0.3,0.8l1.4,2.9
						c0.1,0.3,0.5,0.4,0.7,0.3c2-0.8,3.7-2.1,5-3.9l1.1,0.6c0.3,0.1,0.6,0,0.8-0.2l1.2-2.3C379.1,123.6,379,123.3,378.7,123.1z"/>
					<path class="st8" d="M360.9,116.9c-0.3-0.1-0.6,0-0.8,0.2l0,0.1c-0.7,2-0.2,3.7,1.2,4.4c1.5,0.8,2.7,0,4.2-1.6
						c0.2-0.2,0.2-0.6,0-0.8c0,0-0.1-0.1-0.1-0.1L360.9,116.9z M364.1,119.9c-1.1,1.1-1.7,1.1-2.3,0.8c-0.8-0.4-1.1-1.3-0.9-2.4
						L364.1,119.9z"/>
					<path class="st8" d="M364.9,123.7c-0.2,0.1-0.3,0.2-0.5,0.3c-0.1,0.1-0.2,0.1-0.2,0.2c0,0,0,0.1,0,0.1c0,0.1,0,0.3,0,0.4
						c0.1,0.1,0.2,0.2,0.3,0.3c0.1,0,0.3,0,0.4,0c0.2-0.1,0.4-0.2,0.6-0.4l0,0c0.3-0.2,0.3-0.5,0.2-0.8
						C365.5,123.6,365.2,123.5,364.9,123.7z"/>
					<path class="st8" d="M363.3,124.4c-0.9,0.2-1.8,0.1-2.8-0.4c-2.7-1.4-3.5-4.3-2.1-7.7c0.1-0.3,0-0.6-0.3-0.7l-1.1-0.6l0.6-1.3
						l1.2,0.6c0.3,0.1,0.6,0,0.7-0.2c1.2-1.8,2.9-3.2,4.9-4.1l0.9,1.9c-1.5,0.6-2.9,1.6-3.9,2.9c-0.1,0.1-0.1,0.3-0.1,0.4
						c0,0.2,0.1,0.3,0.2,0.4c0,0,0.1,0,0.1,0.1l1.8,0.9c0.3,0.1,0.6,0,0.8-0.2c0.1-0.3,0-0.6-0.2-0.8l-1.1-0.6c1-1,2.2-1.8,3.5-2.2
						c0.1-0.1,0.3-0.2,0.3-0.3c0.1-0.1,0.1-0.3,0-0.5l-1.3-2.9c-0.1-0.3-0.4-0.4-0.7-0.3c-2.3,0.8-4.2,2.3-5.7,4.3l-1.2-0.6
						c-0.3-0.1-0.6,0-0.8,0.2l-1.2,2.3c-0.1,0.3,0,0.6,0.2,0.8l1.1,0.6c-1.4,3.8-0.3,7.1,2.8,8.6c1.2,0.6,2.4,0.8,3.5,0.5
						c0.3-0.1,0.5-0.4,0.4-0.7c0-0.1-0.1-0.3-0.2-0.4C363.6,124.4,363.5,124.4,363.3,124.4z"/>
					<path class="st8" d="M365.4,116.4c-0.3-0.1-0.6,0-0.8,0.2c-0.1,0.3,0,0.6,0.2,0.8l1.7,0.8c0.2,0.1,0.5,0.1,0.7-0.1
						c2.3-2.6,4.2-3.9,6.8-2.6c1.2,0.6,2.1,1.7,2.5,3c0.1,0.3,0.4,0.5,0.7,0.4c0.3-0.1,0.5-0.4,0.4-0.7c-0.5-1.6-1.6-2.9-3.1-3.7
						c-3.3-1.7-5.8,0.2-7.9,2.5L365.4,116.4z"/>
					<path class="st8" d="M373.3,117.8c-1.5-0.7-2.7,0.1-3.7,1.1c0,0-0.1,0.1-0.1,0.2c-0.1,0.1-0.1,0.2-0.1,0.3
						c0,0.2,0.1,0.3,0.3,0.4l4.2,2.1c0.3,0.2,0.7,0,0.8-0.4l0,0C375.1,120,374.5,118.5,373.3,117.8z M373.7,120.6l-2.7-1.4
						c0.8-0.6,1.3-0.6,1.8-0.4C373.3,119.1,373.7,119.8,373.7,120.6z"/>
				</g>
			</g>
		</g>
		<g>
			<path class="st11" d="M320,107.9c0,0,51.5,35.8,27,55.4l-18.1,3.4l-21.1-32.4L320,107.9z"/>
			<path class="st2" d="M318.3,107.9c0,0,51.5,35.8,27,55.4l-18.1,3.4L306,134.3L318.3,107.9z"/>
		</g>
	</g>
</g>
</svg>
