<?xml version="1.0" encoding="utf-8"?>
<!-- Generator: Adobe Illustrator 25.0.0, SVG Export Plug-In . SVG Version: 6.00 Build 0)  -->
<svg version="1.1" id="Layer_1" xmlns="http://www.w3.org/2000/svg" xmlns:xlink="http://www.w3.org/1999/xlink" x="0px" y="0px"
	 viewBox="0 0 385.8 430" style="enable-background:new 0 0 385.8 430;" xml:space="preserve">
<style type="text/css">
	.st0{fill:#F9D0B4;}
	.st1{fill:#DAE6F1;}
	.st2{fill:#818182;}
	.st3{fill:#3A70BF;}
	.st4{fill:#5290DB;}
	.st5{fill:#F5C84C;}
	.st6{fill:#EDF4FC;}
	.st7{fill:#FC657E;}
	.st8{fill:#35414D;}
	.st9{fill:#F6C560;}
	.st10{opacity:4.000000e-02;}
	.st11{fill:#92D37A;}
	.st12{fill:#FCD770;}
	.st13{fill:#FF826E;}
	.st14{fill:#57B7EB;}
	.st15{fill:#4891D3;}
	.st16{fill:#AAE1F9;}
	.st17{fill:#F8664F;}
	.st18{fill:#CC5144;}
	.st19{fill:#F89C8D;}
</style>
<g>
	<g>
		<g>
			<g>
				<g>
					<g>
						<path class="st0" d="M72.9,131.2v40c0,34.4,28.1,62.5,62.5,62.5s62.5-28.1,62.5-62.5v-39.1C161.1,149.2,109.1,149,72.9,131.2
							L72.9,131.2z"/>
					</g>
				</g>
			</g>
			<g>
				<g>
					<path class="st0" d="M210.5,125.1c-4,2.6-8.2,4.9-12.6,7v39.1c0,1.4-0.1,2.8-0.2,4.2c1.4,0.2,2.7,0.4,4.2,0.4
						c14.4,0,26.1-11.7,26.1-26.1C228,138.3,220.7,128.6,210.5,125.1z"/>
				</g>
			</g>
			<g>
				<g>
					<path class="st0" d="M72.9,131.2c-4-2-7.9-4.2-11.5-6.6c-10.8,3.2-18.7,13.2-18.7,25c0,14.4,11.7,26.1,26.1,26.1
						c1.4,0,2.8-0.1,4.2-0.4v0c-0.1-1.4-0.2-2.8-0.2-4.2C72.9,165.8,72.9,145.3,72.9,131.2L72.9,131.2z"/>
				</g>
			</g>
			<g>
				<g>
					<g>
						<path class="st1" d="M135.1,363.9c0.2,0.8,0.4,1.6,0.6,2.4c0,0.2,0.1,0.3,0.1,0.5c0.1,0.8,0.3,1.6,0.3,2.4v0
							c0.1,0.7,0.1,1.4,0.1,2c0-0.7,0-1.4,0.1-2c0.1-0.8,0.2-1.6,0.3-2.4c0-0.2,0.1-0.3,0.1-0.5c0.2-0.8,0.4-1.6,0.6-2.4l35.3-110.6
							c-4.8-4-7.7-10-7.7-16.5v-10.6c-8.8,4.8-19,7.6-29.7,7.6c-10,0-19.5-2.4-27.9-6.6v9.7c0,6.4-2.9,12.4-7.7,16.5L135.1,363.9z"
							/>
					</g>
				</g>
			</g>
			<g>
				<g>
					<path class="st2" d="M56.2,111.3v4.7c0,3.2,1.6,6.2,4.2,8c40.3,27.6,111.3,27.6,151.6,0c2.7-1.8,4.2-4.8,4.2-8v-4.7
						C170.6,96.9,107.1,95.3,56.2,111.3L56.2,111.3z"/>
				</g>
			</g>
			<g>
				<g>
					<path class="st3" d="M217.5,85.2c-20.7-9.5-44.4-15.3-69-16.8c0.7,2.2,1.2,4.6,1.2,7.2c0,9.7-6,17.6-13.4,17.6
						c-7.4,0-13.4-7.9-13.4-17.6c0-2.6,0.4-5,1.2-7.2c-23.6,1.4-47.3,6.8-69,16.8c-2.6,1.2-3.9,4.1-3.3,6.9l4.5,19.1
						c50.9-16,114.4-14.3,160.1,0l4.5-19.1C221.5,89.3,220.1,86.4,217.5,85.2L217.5,85.2z"/>
				</g>
			</g>
			<g>
				<g>
					<path class="st4" d="M238.7,67.7c-9.5-16.6-45.6-56.9-102.5-56.9c-56.9,0-93,40.3-102.5,56.9c-7,12.3,9.4,22,18.3,26.2
						l-0.4-1.7c-0.7-2.8,0.7-5.7,3.3-6.9c21.7-10,45.3-15.5,69-16.8c2.1-6.2,6.8-10.4,12.3-10.4c5.5,0,10.2,4.3,12.3,10.5
						c24.5,1.5,48.3,7.3,69,16.8c2.6,1.2,4,4.1,3.3,6.9l-0.4,1.7C229.4,89.7,245.8,80,238.7,67.7L238.7,67.7z"/>
				</g>
			</g>
			<g>
				<g>
					<ellipse class="st5" cx="136.3" cy="75.6" rx="13.4" ry="17.6"/>
				</g>
			</g>
			<g>
				<g>
					<path class="st3" d="M199.3,419v-38.2h-17.4c-3.8,0-6.8-3.1-6.8-6.8v-79v-0.8c0-3.8,3.1-6.8,6.8-6.8h75.6
						c-3.3-5.1-8.5-9-14.7-10.6l-48.5-12.2l-17.2-8.5c-1.6-0.8-3-1.8-4.4-2.9l-35.3,110.6c-0.8,2.4-1.1,4.8-1.1,7.3v54.6h69.8
						C202.3,425.8,199.3,422.8,199.3,419L199.3,419z"/>
				</g>
			</g>
			<g>
				<g>
					<path class="st3" d="M136.3,371.2c0-2.5-0.4-4.9-1.1-7.3L99.8,253.3c-1.3,1.1-2.8,2.1-4.4,2.9l-17.2,8.5l-48.5,12.2
						c-10.5,2.6-18,11.8-18.6,22.5L4.2,418.6c-0.2,3.9,2.9,7.2,6.8,7.2h125.2L136.3,371.2L136.3,371.2z"/>
				</g>
			</g>
			<g>
				<g>
					<path class="st4" d="M175.1,295v-0.8c0-3.8,3.1-6.8,6.8-6.8h15.5c0.8-0.7,1.2-1.8,1-2.9l-3.6-19.8l-0.6-0.1l-17.2-8.5
						c-1.6-0.8-3-1.8-4.4-2.9l-35.3,110.6c-0.5,1.7-0.9,3.5-1,5.3l38.7-38.7L175.1,295L175.1,295z"/>
				</g>
			</g>
			<g>
				<g>
					<path class="st4" d="M76,287.9l12.3,4.9c1.7,0.7,2.5,2.7,1.6,4.4l-7.9,14.6c-0.7,1.2-0.4,2.7,0.5,3.7l53.7,53.7
						c-0.2-1.8-0.5-3.5-1-5.3L99.8,253.3c-1.3,1.1-2.8,2.1-4.4,2.9l-17.2,8.5l-0.6,0.1l-3.6,19.8C73.9,286,74.7,287.4,76,287.9
						L76,287.9z"/>
				</g>
			</g>
			<g>
				<g>
					<g>
						<path class="st0" d="M143.3,271.1l23.8-25.1c-1.4-2.8-2.1-6-2.1-9.3v-10.6c-8.8,4.8-19,7.6-29.7,7.6c-10,0-19.5-2.4-27.9-6.6
							v9.7c0,3.3-0.8,6.4-2.1,9.3l23.8,25.1c0.7,0.7,1,1.7,1,2.6c1.7,0.1,3.4,0.2,5.2,0.2c2.4,0,4.7-0.2,7-0.4
							C142.4,272.7,142.7,271.8,143.3,271.1L143.3,271.1z"/>
					</g>
				</g>
			</g>
			<g>
				<g>
					<path class="st6" d="M167.2,246.1l-23.8,25.1c-1.3,1.4-1.3,3.5,0,4.9l13.7,14.8c0.9,1,2.2,1.3,3.4,1.2l12.4-38.7
						C170.4,251.3,168.5,248.8,167.2,246.1L167.2,246.1z"/>
				</g>
			</g>
			<g>
				<g>
					<path class="st6" d="M105.4,246.1c-1.3,2.8-3.2,5.2-5.6,7.2l12.4,38.7c1.2,0.2,2.5-0.2,3.4-1.2l13.7-14.8
						c1.3-1.4,1.3-3.5,0-4.9L105.4,246.1z"/>
				</g>
			</g>
			<g>
				<g>
					<path class="st7" d="M136.8,366.3c0.2-0.8,0.4-1.6,0.6-2.4l13.8-43.1l-6.5-33.3c-2.5,1.5-5.3,2.4-8.4,2.4c-3.1,0-6-0.9-8.4-2.4
						l-6.5,33.3l13.8,43.1c0.2,0.8,0.4,1.6,0.6,2.4c0,0.2,0.1,0.3,0.1,0.5c0.1,0.8,0.3,1.6,0.3,2.4v0c0.1,0.7,0.1,1.4,0.1,2
						c0-0.7,0-1.4,0.1-2c0.1-0.8,0.2-1.6,0.3-2.4C136.7,366.6,136.8,366.4,136.8,366.3L136.8,366.3z"/>
				</g>
			</g>
			<g>
				<g>
					<g>
						<path class="st7" d="M143.3,276c-0.6-0.7-0.9-1.6-0.9-2.4c-2.3,0.3-4.6,0.4-7,0.4c-1.8,0-3.5-0.1-5.2-0.2
							c0,0.8-0.3,1.6-0.9,2.2l-6.4,6.9c3,4.2,7.8,7,13.4,7c5.5,0,10.4-2.8,13.4-7L143.3,276z"/>
					</g>
				</g>
			</g>
			<g>
				<g>
					<path class="st8" d="M136.3,199.2c-8,0-15.6-3.3-20.2-8.8c-1.5-1.8-1.3-4.4,0.5-5.9c1.8-1.5,4.4-1.3,5.9,0.5
						c3,3.6,8.1,5.8,13.7,5.8c5.6,0,10.7-2.2,13.7-5.8c1.5-1.8,4.1-2,5.9-0.5c1.8,1.5,2,4.1,0.5,5.9
						C151.8,195.9,144.3,199.2,136.3,199.2z"/>
				</g>
			</g>
			<g>
				<g>
					
						<ellipse transform="matrix(0.1602 -0.9871 0.9871 0.1602 -12.4438 290.4591)" class="st8" cx="164.5" cy="152.5" rx="8.4" ry="8.4"/>
				</g>
			</g>
			<g>
				<g>
					<circle class="st8" cx="108.1" cy="152.5" r="8.4"/>
				</g>
			</g>
			<g>
				<g>
					<g>
						<path class="st8" d="M135.4,237.9c-36.8,0-66.7-29.9-66.7-66.7v-40c0-1.4,0.7-2.8,2-3.6c1.2-0.8,2.8-0.8,4.1-0.2
							c34.8,17.1,85.9,17.4,121.4,0.8c1.3-0.6,2.8-0.5,4,0.3c1.2,0.8,1.9,2.1,1.9,3.5v39.1C202.1,208,172.1,237.9,135.4,237.9
							L135.4,237.9z M77.1,137.7v33.5c0,32.2,26.2,58.3,58.3,58.3s58.3-26.2,58.3-58.3v-32.7C158.1,152.8,112.1,152.5,77.1,137.7
							L77.1,137.7z"/>
					</g>
				</g>
			</g>
			<g>
				<g>
					<path class="st8" d="M201.9,180c-1,0-1.9-0.1-3-0.2c-2.3-0.2-4-2.3-3.7-4.6c0.2-2.3,2.3-4,4.6-3.7c0.7,0.1,1.4,0.1,2.1,0.1
						c12.1,0,21.9-9.8,21.9-21.9c0-8.9-5.3-16.8-13.6-20.2c-2.1-0.9-3.2-3.3-2.3-5.5c0.9-2.1,3.3-3.2,5.5-2.3
						c11.4,4.7,18.8,15.7,18.8,28C232.2,166.4,218.6,180,201.9,180z"/>
				</g>
			</g>
			<g>
				<g>
					<path class="st8" d="M68.8,180c-16.7,0-30.3-13.6-30.3-30.3c0-12.6,7.9-24,19.8-28.4c2.2-0.8,4.6,0.3,5.4,2.5
						c0.8,2.2-0.3,4.6-2.5,5.4c-8.5,3.2-14.3,11.4-14.3,20.5c0,12.1,9.8,21.9,21.9,21.9c0.6,0,1.2,0,1.7-0.1
						c2.3-0.2,4.4,1.5,4.6,3.8c0.2,2.3-1.5,4.4-3.8,4.6C70.5,179.9,69.6,180,68.8,180z"/>
				</g>
			</g>
			<g>
				<g>
					<path class="st8" d="M49.7,428.4c-2.3,0-4.2-1.9-4.2-4.2V329c0-2.3,1.9-4.2,4.2-4.2s4.2,1.9,4.2,4.2v95.1
						C53.9,426.5,52,428.4,49.7,428.4z"/>
				</g>
			</g>
			<g>
				<g>
					<g>
						<path class="st8" d="M136.3,375.4c-2.3,0-4.2-1.9-4.2-4.2c0-0.6,0-1.1-0.1-1.7c-0.1-0.6-0.1-1.2-0.3-2l-0.1-0.4
							c-0.2-0.8-0.3-1.4-0.5-2c0,0,0,0,0,0L95.8,254.6c-0.5-1.6,0-3.4,1.3-4.5c3.9-3.3,6.2-8.2,6.2-13.3v-9.7c0-1.5,0.8-2.8,2-3.6
							c1.2-0.8,2.8-0.8,4.1-0.2c8.2,4.1,16.9,6.2,26,6.2c9.6,0,19.2-2.4,27.7-7c1.3-0.7,2.9-0.7,4.2,0.1c1.3,0.8,2.1,2.1,2.1,3.6
							v10.6c0,5.1,2.3,10,6.2,13.3c1.3,1.1,1.8,2.9,1.3,4.5l-35.3,110.6c-0.2,0.5-0.3,1.2-0.5,2l-0.1,0.4c-0.1,0.7-0.2,1.4-0.3,2
							c0,0.6-0.1,1.1-0.1,1.7C140.5,373.5,138.6,375.4,136.3,375.4L136.3,375.4z M104.6,254.5l31.7,99.2l31.7-99.2
							c-4.5-4.8-7.1-11.1-7.1-17.7v-4c-8.1,3.4-16.8,5.1-25.5,5.1c-8.2,0-16.1-1.5-23.7-4.4v3.3
							C111.7,243.4,109.1,249.8,104.6,254.5L104.6,254.5z"/>
					</g>
				</g>
			</g>
			<g>
				<g>
					<path class="st8" d="M102.3,359.5H67.8c-2.3,0-4.2-1.9-4.2-4.2s1.9-4.2,4.2-4.2h34.6c2.3,0,4.2,1.9,4.2,4.2
						S104.6,359.5,102.3,359.5z"/>
				</g>
			</g>
			<g>
				<g>
					<path class="st8" d="M136.3,148.9c-28.7,0-57.4-7.1-78.2-21.4c-3.8-2.6-6.1-6.9-6.1-11.5v-4.4c0-2.3,1.9-4.2,4.2-4.2
						s4.2,1.9,4.2,4.2v4.4c0,1.8,0.9,3.5,2.4,4.6c39.1,26.8,107.8,26.8,146.9,0c1.5-1,2.4-2.8,2.4-4.6v-4.3c0-2.3,1.9-4.2,4.2-4.2
						c2.3,0,4.2,1.9,4.2,4.2v4.3c0,4.6-2.3,8.9-6.1,11.5C193.6,141.8,165,148.9,136.3,148.9L136.3,148.9z"/>
				</g>
			</g>
			<g>
				<g>
					<path class="st8" d="M56.2,115.5c-0.7,0-1.4-0.2-2.1-0.6c-1-0.6-1.7-1.6-2-2.7l-4.5-19.1c-1.1-4.7,1.3-9.6,5.6-11.7
						c21.2-9.8,44.5-15.6,69.3-17.2c2.3-0.1,4.3,1.6,4.5,3.9c0.1,2.3-1.6,4.3-3.9,4.5c-23.7,1.5-46.1,7-66.3,16.4
						c-0.8,0.4-1.2,1.2-1,2.1l3.5,14.8c47.3-13.7,106.7-13.7,154,0l3.4-14.8c0.2-0.9-0.2-1.8-1-2.1c-19.8-9.2-42.8-14.8-66.3-16.4
						c-2.3-0.2-4.1-2.2-3.9-4.5c0.2-2.3,2.1-4.1,4.5-3.9c24.6,1.6,48.5,7.5,69.3,17.1c4.4,2,6.7,6.9,5.6,11.7l-4.5,19.1
						c-0.3,1.1-1,2.1-2,2.7c-1,0.6-2.2,0.7-3.3,0.4c-47.9-15-109.7-15-157.6,0C57.1,115.4,56.6,115.5,56.2,115.5L56.2,115.5z"/>
				</g>
			</g>
			<g>
				<g>
					<path class="st8" d="M51.8,97.9c-0.6,0-1.2-0.1-1.8-0.4c-8.2-3.9-18.6-10.4-21.4-19.2c-1.3-4.2-0.8-8.6,1.5-12.7
						c9.4-16.4,46.7-59,106.1-59c59.4,0,96.7,42.6,106.1,59c2.3,4.1,2.9,8.4,1.5,12.6c-2.8,8.8-13,15.3-21.2,19.1
						c-2.1,1-4.6,0.1-5.6-2c-1-2.1-0.1-4.6,2-5.6c9.2-4.4,15.3-9.5,16.8-14.1c0.6-2,0.4-3.9-0.8-6C226.4,54.5,191.7,15,136.3,15
						c-55.4,0-90.1,39.5-98.8,54.7c-1.2,2.1-1.4,4-0.8,6c1.4,4.6,7.6,9.7,16.9,14.2c2.1,1,3,3.5,2,5.6C54.9,97,53.3,97.9,51.8,97.9
						L51.8,97.9z"/>
				</g>
			</g>
			<g>
				<g>
					<path class="st8" d="M136.3,97.4c-9.7,0-17.6-9.8-17.6-21.8s7.9-21.8,17.6-21.8c9.7,0,17.6,9.8,17.6,21.8S146,97.4,136.3,97.4z
						 M136.3,62.1c-5,0-9.2,6.2-9.2,13.4s4.2,13.4,9.2,13.4c5,0,9.2-6.2,9.2-13.4S141.3,62.1,136.3,62.1z"/>
				</g>
			</g>
			<g>
				<g>
					<path class="st5" d="M235.3,29.1c7.6-1.4,13.5-7.2,14.9-14.6c0.1-0.4,0.6-0.4,0.7,0c1.4,7.4,7.4,13.2,14.9,14.6
						c0.4,0.1,0.4,0.6,0,0.7c-7.6,1.4-13.5,7.2-14.9,14.6c-0.1,0.4-0.6,0.4-0.7,0c-1.4-7.4-7.4-13.2-14.9-14.6
						C235,29.7,235,29.2,235.3,29.1z"/>
				</g>
			</g>
			<g>
				<g>
					<path class="st5" d="M17.5,193.3c4.8-0.9,8.6-4.6,9.5-9.3c0-0.2,0.4-0.2,0.4,0c0.9,4.7,4.7,8.4,9.5,9.3c0.2,0,0.2,0.4,0,0.4
						c-4.8,0.9-8.6,4.6-9.5,9.3c0,0.2-0.4,0.2-0.4,0c-0.9-4.7-4.7-8.4-9.5-9.3C17.3,193.7,17.3,193.4,17.5,193.3z"/>
				</g>
			</g>
			<g>
				<g>
					<circle class="st7" cx="52.4" cy="5.7" r="5.7"/>
				</g>
			</g>
			<g>
				<g>
					<path class="st8" d="M206.1,430h-69.8c-2.3,0-4.2-1.9-4.2-4.2v-54.6c0-2.9,0.5-5.8,1.3-8.6L168.8,252c0.4-1.3,1.5-2.4,2.8-2.8
						c1.3-0.4,2.8-0.1,3.9,0.8c1.1,0.9,2.3,1.7,3.5,2.3l16.8,8.3l48.1,12.1c6.8,1.7,12.8,5.9,16.8,11.7c1.3,1.9,0.8,4.5-1.1,5.8
						c-1.9,1.3-4.5,0.8-5.8-1.1c-2.8-4.1-7-7.1-11.9-8.3l-48.5-12.2c-0.3-0.1-0.6-0.2-0.8-0.3l-17.2-8.5c-0.1,0-0.1-0.1-0.2-0.1
						l-33.7,105.4c-0.6,2-0.9,4-0.9,6v50.4h65.6c2.3,0,4.2,1.9,4.2,4.2S208.4,430,206.1,430L206.1,430z"/>
				</g>
			</g>
			<g>
				<g>
					<path class="st8" d="M198.2,290.5c-0.6,0-1.2-0.1-1.7-0.4c-2-0.9-2.9-3.2-2.2-5.2l-3.3-18.4c-0.4-2.3,1.1-4.5,3.4-4.9
						c2.3-0.4,4.5,1.1,4.9,3.4l3.4,18.7c0.3,1.5,0.1,3-0.5,4.3C201.3,289.6,199.8,290.5,198.2,290.5z"/>
				</g>
			</g>
			<g>
				<g>
					<path class="st8" d="M137,372.8c-1.1,0-2.1-0.4-3-1.2c-1.6-1.6-1.6-4.3,0-5.9l37.7-37.7c1.6-1.6,4.3-1.6,5.9,0
						c1.6,1.6,1.6,4.3,0,5.9l-37.7,37.7C139.1,372.4,138,372.8,137,372.8L137,372.8z"/>
				</g>
			</g>
			<g>
				<g>
					<g>
						<path class="st8" d="M167.2,250.3c-1.6,0-3.1-0.9-3.8-2.4c-1.7-3.5-2.5-7.2-2.5-11.1v-9.1c0-2.3,1.9-4.2,4.2-4.2
							s4.2,1.9,4.2,4.2v9.1c0,2.6,0.6,5.1,1.7,7.5c1,2.1,0.1,4.6-2,5.6C168.4,250.1,167.8,250.3,167.2,250.3L167.2,250.3z"/>
					</g>
				</g>
				<g>
					<g>
						<path class="st8" d="M135.4,278.2c-1.5,0-3.1-0.1-4.9-0.2c-2.3-0.2-4-2.2-3.9-4.5c0.2-2.3,2.2-4,4.5-3.9
							c1.6,0.1,3,0.2,4.3,0.2c1.8,0,3.8-0.1,5.9-0.3c2.3-0.2,4.4,1.4,4.6,3.7s-1.4,4.4-3.7,4.6C139.7,278.1,137.5,278.2,135.4,278.2
							z"/>
					</g>
				</g>
				<g>
					<g>
						<path class="st8" d="M105.4,250.3c-0.6,0-1.2-0.1-1.8-0.4c-2.1-1-3-3.5-2-5.6c1.1-2.4,1.7-4.9,1.7-7.5v-8.7
							c0-2.3,1.9-4.2,4.2-4.2c2.3,0,4.2,1.9,4.2,4.2v8.7c0,3.9-0.8,7.6-2.5,11.1C108.4,249.4,106.9,250.3,105.4,250.3z"/>
					</g>
				</g>
			</g>
			<g>
				<g>
					<path class="st8" d="M159.2,296.2c-0.2,0-0.5,0-0.7-0.1c-1.8-0.3-3.3-1.1-4.6-2.5l-13.7-14.8c-2.8-3-2.7-7.7,0.1-10.6
						l23.8-25.1c1-1,2.3-1.5,3.7-1.3c1.4,0.2,2.5,1.1,3.1,2.3c1,2.2,2.5,4,4.2,5.6c1.7,1.5,1.9,4.2,0.4,5.9
						c-1.5,1.7-4.2,1.9-5.9,0.4c-1.2-1-2.2-2.1-3.2-3.3l-19.7,20.7l13.2,14.3c2.2,0.4,3.7,2.6,3.3,4.8
						C163,294.8,161.2,296.2,159.2,296.2z"/>
				</g>
			</g>
			<g>
				<g>
					<path class="st8" d="M113.8,296.1c-1.9,0-3.5-1.2-4.1-3.1c-0.6-2.2,0.7-4.5,2.8-5.1l13.2-14.3L106,252.9c-0.8,1-1.8,2-2.7,2.9
						c-1.7,1.6-4.4,1.4-5.9-0.3c-1.6-1.7-1.4-4.4,0.3-5.9c1.7-1.5,3-3.3,4-5.4c0.6-1.2,1.8-2.1,3.1-2.3c1.4-0.2,2.7,0.3,3.7,1.3
						l23.8,25.1c2.8,3,2.8,7.6,0.1,10.6l-13.7,14.8c-1,1.1-2.3,1.9-3.8,2.3C114.5,296.1,114.1,296.1,113.8,296.1L113.8,296.1z"/>
				</g>
			</g>
			<g>
				<g>
					<path class="st8" d="M151.1,324.6c-2,0-3.7-1.4-4.1-3.4l-6.2-32.1c-0.4-2.3,1-4.5,3.3-4.9c2.3-0.4,4.5,1,4.9,3.3l6.2,32.1
						c0.4,2.3-1,4.5-3.3,4.9C151.7,324.6,151.4,324.6,151.1,324.6z"/>
				</g>
			</g>
			<g>
				<g>
					<path class="st8" d="M121.5,324.3c-0.3,0-0.5,0-0.8-0.1c-2.3-0.4-3.8-2.6-3.3-4.9l6.2-31.8c0.4-2.3,2.7-3.8,4.9-3.3
						c2.3,0.4,3.8,2.6,3.3,4.9l-6.2,31.8C125.2,322.9,123.5,324.3,121.5,324.3L121.5,324.3z"/>
				</g>
			</g>
			<g>
				<g>
					<g>
						<path class="st8" d="M136.3,294.1c-6.4,0-12.4-2.9-16.3-8.1c-1.4-1.8-1.1-4.5,0.8-5.9c1.8-1.4,4.5-1.1,5.9,0.8
							c2.3,3,5.8,4.8,9.6,4.8c3.7,0,7.2-1.7,9.5-4.7c1.4-1.8,4.1-2.1,5.9-0.7c1.8,1.4,2.1,4.1,0.7,5.9
							C148.5,291.2,142.6,294.1,136.3,294.1z"/>
					</g>
				</g>
			</g>
			<g>
				<g>
					<path class="st8" d="M136.3,430H11.1c-3,0-6-1.3-8-3.5c-2.1-2.2-3.2-5.2-3-8.2l6.9-119.2c0.7-12.7,9.5-23.3,21.8-26.4
						l48.1-12.1l16.8-8.3c1.2-0.6,2.4-1.4,3.5-2.3c1.1-0.9,2.5-1.2,3.9-0.8c1.3,0.4,2.4,1.4,2.8,2.8l35.3,110.6
						c0.9,2.8,1.3,5.7,1.3,8.6v54.6C140.5,428.1,138.6,430,136.3,430L136.3,430z M97.5,259.8c-0.1,0-0.1,0.1-0.2,0.1l-17.2,8.5
						c-0.3,0.1-0.5,0.2-0.8,0.3l-48.5,12.2c-8.7,2.2-14.9,9.7-15.4,18.7L8.4,418.8c0,0.7,0.2,1.4,0.7,2c0.5,0.5,1.2,0.8,1.9,0.8h121
						v-50.4c0-2.1-0.3-4.1-0.9-6L97.5,259.8z"/>
				</g>
			</g>
			<g>
				<g>
					<path class="st8" d="M135.7,372.9c-1.1,0-2.1-0.4-3-1.2l-53.3-53.3c-2.3-2.3-2.8-5.8-1.2-8.7l7.4-13.5l-11.1-4.5
						c-3.2-1.3-5.1-4.7-4.5-8.1l3.4-18.6c0.4-2.3,2.6-3.8,4.9-3.4c2.3,0.4,3.8,2.6,3.4,4.9l-3.2,17.7l11.5,4.6
						c1.9,0.8,3.5,2.3,4.2,4.3c0.7,2,0.5,4.1-0.5,6L86,313.1l52.7,52.7c1.6,1.6,1.6,4.3,0,5.9C137.9,372.5,136.8,372.9,135.7,372.9
						L135.7,372.9z"/>
				</g>
			</g>
			<g>
				<g>
					<g>
						<g>
							<path class="st9" d="M312.9,295.6v76.7c0,3-2.3,5.4-4.8,5.4H180.9c-2.9,0-4.8-2.4-4.8-5.4v-76.7c0-3,2.3-5.1,4.8-5.1h126.8
								C310.6,290.5,312.9,292.9,312.9,295.6L312.9,295.6z"/>
						</g>
						<g class="st10">
							<path d="M312.9,295.6v76.7c0,3-2.3,5.4-4.8,5.4H180.9c-2.6,0-4.8-2.4-4.8-5.4v-6h48.7c40.8,0,74.4-33.5,77.2-76.1h6
								C310.6,290.5,312.9,292.9,312.9,295.6L312.9,295.6z"/>
						</g>
					</g>
					<path class="st8" d="M314.2,289.4c-1.3-1.7-3.8-2.8-6.4-2.8H180.9c-4.7,0-8.6,4-8.6,9v76.7c0,5.2,3.8,9.3,8.6,9.3h126.8
						c4.8,0,8.6-4.1,8.6-9.3v-76.7C316.3,293.5,315.5,291.2,314.2,289.4z M272.9,294.6c8,0,17.8,0,19.8-0.2l0.4-0.1h9.1l-54.7,40.8
						c-1,0.6-2.1,1-3.2,1c-1.1,0-2.2-0.3-3.1-0.9l-54.8-40.8h30.3C216.8,294.3,250.6,294.6,272.9,294.6z M179.8,298.5l57,42.7
						c2.2,1.6,4.9,2.6,7.4,2.6c2.6,0,5.1-0.9,7.4-2.6l57.6-42.7v73.8c0,1.6-1.1,1.6-1.4,1.6H180.9c-0.6,0-1.1-0.9-1.1-1.6V298.5z"/>
				</g>
				<g>
					<path class="st11" d="M244.8,355.3v3.2h-4.5v-3.3c-4.3-0.5-8.3-2.3-11.5-5.3l3.6-4.4c2.2,2.1,5,3.6,8,4.3v-9.6
						c-6.1-1.6-10.2-3.8-10.2-9.6c0-5.3,4.1-9.4,10.2-10.2v-3h4.5v3.1c3.9,0.4,7.5,2,10.4,4.6l-3.4,4.5c-2-1.8-4.4-3.1-7-3.7v9.3
						c6.8,1.5,11.3,3.9,11.3,9.9C256.1,350.7,252,354.8,244.8,355.3z M240.3,333.9v-8.2c-2.4,0.6-4,2.3-4,4.3
						C236.4,331.9,237.7,333,240.3,333.9z M249.9,345.6c0-2.3-1.6-3.3-5.1-4.4v8.8C248.2,349.6,249.9,347.8,249.9,345.6L249.9,345.6
						z"/>
					<g>
						<g>
							<path class="st8" d="M235.7,322.4c1.5-0.8,3-1.3,4.7-1.5c0.3,0,0.6-0.3,0.6-0.6v-2.4h3.2v2.4c0,0.3,0.2,0.6,0.6,0.6
								c3.5,0.4,6.9,1.8,9.6,4.1l-2.6,3.5c-2-1.7-4.3-2.8-6.8-3.4c-0.3-0.1-0.7,0.1-0.7,0.5c0,0,0,0.1,0,0.1v9.3
								c0,0.3,0.2,0.5,0.5,0.6c1.6,0.3,3.1,0.8,4.6,1.3c0.1,0,0.1,0,0.2,0c0.3,0,0.6-0.3,0.6-0.6c0-0.3-0.2-0.5-0.4-0.6
								c-1.4-0.5-2.8-0.9-4.3-1.3v-8c2.2,0.7,4.3,1.8,6,3.4c0.3,0.2,0.7,0.2,0.9-0.1c0,0,0,0,0,0l3.4-4.5c0.2-0.3,0.2-0.6-0.1-0.8
								c-2.8-2.5-6.4-4.2-10.2-4.7v-2.5c0-0.3-0.3-0.6-0.6-0.6h-4.5c-0.3,0-0.6,0.3-0.6,0.6v2.5c-1.6,0.2-3.2,0.8-4.6,1.5
								c-0.3,0.2-0.4,0.5-0.3,0.8C235,322.5,235.4,322.6,235.7,322.4C235.7,322.4,235.7,322.4,235.7,322.4L235.7,322.4z"/>
							<path class="st8" d="M249.5,337.5c-0.1,0-0.2,0-0.4-0.1c-1.5-0.5-3-1-4.5-1.3c-0.5-0.1-0.8-0.5-0.8-1v-9.3c0-0.1,0-0.1,0-0.2
								c0.1-0.3,0.2-0.5,0.4-0.6c0.2-0.1,0.5-0.2,0.8-0.1c2.4,0.6,4.7,1.7,6.6,3.2l2.2-2.9c-2.6-2.1-5.8-3.4-9.1-3.8
								c-0.5-0.1-0.9-0.5-0.9-1v-2.1h-2.5v2c0,0.5-0.4,0.9-0.9,1c-1.6,0.2-3.1,0.7-4.6,1.4l0,0c-0.5,0.3-1.1,0.1-1.4-0.4
								c-0.1-0.2-0.1-0.5-0.1-0.8c0.1-0.3,0.3-0.5,0.5-0.6c1.4-0.7,2.8-1.3,4.4-1.5v-2.2c0-0.5,0.4-1,1-1h4.5c0.5,0,1,0.4,1,1v2.2
								c3.7,0.6,7.2,2.2,10,4.7c0.4,0.3,0.5,0.9,0.1,1.3l-3.4,4.5c-0.4,0.5-1,0.5-1.5,0.2c-1.6-1.4-3.4-2.5-5.4-3.2v7.2
								c1.4,0.3,2.7,0.7,4,1.2c0.4,0.1,0.6,0.5,0.6,0.9C250.5,337,250,337.5,249.5,337.5z M244.8,325.6c0,0-0.1,0-0.1,0
								c-0.1,0-0.1,0.1-0.1,0.2l0,9.3c0,0.1,0.1,0.2,0.2,0.3c1.6,0.3,3.1,0.8,4.6,1.4c0.2,0.1,0.4-0.1,0.4-0.2
								c0-0.1-0.1-0.2-0.2-0.2c-1.4-0.5-2.8-0.9-4.2-1.3l-0.3-0.1v-8.8l0.5,0.1c2.3,0.7,4.4,1.9,6.1,3.5c0.1,0.1,0.3,0.1,0.4,0
								l3.4-4.6c0.1-0.1,0.1-0.3,0-0.3c-2.8-2.5-6.3-4.1-10-4.6l-0.3,0v-2.8c0-0.1-0.1-0.3-0.3-0.3h-4.5c-0.1,0-0.3,0.1-0.3,0.3v2.8
								l-0.3,0c-1.6,0.2-3.1,0.7-4.5,1.5c-0.1,0-0.1,0.1-0.1,0.2c0,0.1,0,0.1,0,0.2c0.1,0.1,0.2,0.2,0.3,0.1l0.2,0.3l-0.2-0.3
								c1.5-0.8,3.1-1.3,4.8-1.5c0.1,0,0.2-0.1,0.2-0.3v-2.8h4v2.8c0,0.1,0.1,0.2,0.2,0.3c3.6,0.4,7,1.8,9.8,4.2l0.3,0.2l-3.1,4.1
								l-0.3-0.3C249.6,327.3,247.3,326.1,244.8,325.6C244.9,325.6,244.8,325.6,244.8,325.6z"/>
						</g>
						<g>
							<path class="st8" d="M245,340.6c-0.3-0.1-0.7,0.1-0.8,0.4c0,0.1,0,0.1,0,0.2v8.8c0,0.3,0.3,0.6,0.6,0.6c0,0,0,0,0.1,0
								c3.4-0.4,5.6-2.4,5.6-5.1C250.5,342.8,248.5,341.7,245,340.6z M245.5,349.3v-7.2c2.9,0.9,3.8,1.8,3.8,3.5
								C249.3,347.4,247.8,348.8,245.5,349.3L245.5,349.3z"/>
							<path class="st8" d="M244.8,351c-0.5,0-1-0.4-1-1v-8.8c0-0.1,0-0.2,0-0.3c0.2-0.5,0.7-0.8,1.2-0.7l0,0
								c3.6,1.1,5.8,2.3,5.8,5.3c0,2.9-2.3,5-6,5.4L244.8,351z M244.8,341c-0.1,0-0.2,0.1-0.2,0.2l0,8.9c0,0.1,0.1,0.3,0.3,0.3
								c3.3-0.4,5.3-2.2,5.3-4.7C250.2,343,248.3,342,244.8,341L244.8,341C244.9,341,244.9,341,244.8,341z M245.1,349.8v-8.2
								l0.5,0.2c3,1,4.1,2,4.1,3.9c0,2-1.5,3.6-4.1,4.1L245.1,349.8z M245.8,342.6v6.2c2-0.5,3.1-1.7,3.1-3.3
								C248.9,344.4,248.4,343.5,245.8,342.6z"/>
						</g>
						<g>
							<path class="st8" d="M252,337c-0.3-0.2-0.7-0.1-0.9,0.2c-0.2,0.3-0.1,0.7,0.2,0.8c0.3,0.2,0.6,0.4,0.9,0.6
								c0.3,0.2,0.7,0.1,0.9-0.2c0.2-0.3,0.1-0.7-0.2-0.9C252.7,337.4,252.3,337.1,252,337L252,337z"/>
							<path class="st8" d="M252.6,339.1c-0.2,0-0.4-0.1-0.6-0.2c-0.3-0.2-0.6-0.4-0.9-0.5c-0.5-0.3-0.6-0.9-0.4-1.3
								c0.3-0.5,0.9-0.7,1.4-0.4l0,0c0.4,0.2,0.7,0.4,1,0.6c0.2,0.2,0.4,0.4,0.4,0.6c0,0.3,0,0.5-0.2,0.7c-0.2,0.2-0.4,0.4-0.6,0.4
								C252.7,339.1,252.7,339.1,252.6,339.1z M251.7,337.2c-0.1,0-0.2,0-0.2,0.1c-0.1,0.1,0,0.3,0.1,0.3c0.3,0.2,0.6,0.4,0.9,0.6
								c0.1,0,0.1,0.1,0.2,0c0.1,0,0.1,0,0.2-0.1c0-0.1,0.1-0.1,0-0.2c0-0.1,0-0.1-0.1-0.2c-0.3-0.2-0.6-0.4-1-0.6l0,0
								C251.8,337.3,251.7,337.2,251.7,337.2z"/>
						</g>
						<g>
							<path class="st8" d="M254.8,339.3c-0.2-0.3-0.6-0.3-0.9-0.1c-0.3,0.2-0.3,0.6-0.1,0.9c0,0,0,0,0,0c1.1,1.3,1.6,2.9,1.6,4.9
								c0,5.5-4.1,9.3-10.7,9.7c-0.3,0-0.6,0.3-0.6,0.6v2.5H241v-2.7c0-0.3-0.2-0.6-0.6-0.6c-4-0.4-7.7-2.1-10.7-4.7l2.8-3.4
								c2.2,2,4.9,3.3,7.8,4c0.3,0.1,0.7-0.1,0.7-0.5c0,0,0-0.1,0-0.1v-3.5c0-0.3-0.3-0.6-0.6-0.6c-0.3,0-0.6,0.3-0.6,0.6v2.7
								c-2.6-0.7-5-2.1-6.9-3.9c-0.3-0.2-0.7-0.2-0.9,0c0,0,0,0,0,0l-3.6,4.4c-0.2,0.3-0.2,0.6,0.1,0.9c3.1,2.9,7.1,4.8,11.3,5.4
								v2.8c0,0.3,0.3,0.6,0.6,0.6h4.5c0.3,0,0.6-0.3,0.6-0.6v-2.6c7-0.7,11.3-4.8,11.3-10.9C256.7,342.7,256.1,340.8,254.8,339.3
								L254.8,339.3z"/>
							<path class="st8" d="M244.8,359.5h-4.5c-0.5,0-1-0.4-1-1V356c-4.2-0.6-8.1-2.5-11.2-5.4c-0.4-0.4-0.4-0.9-0.1-1.4l3.6-4.4
								c0.2-0.2,0.5-0.4,0.7-0.4c0.3,0,0.5,0.1,0.7,0.3c1.8,1.7,3.9,3,6.3,3.7v-2.2c0-0.5,0.4-1,1-1c0.5,0,1,0.4,1,1v3.5
								c0,0.1,0,0.1,0,0.2c-0.1,0.3-0.2,0.5-0.4,0.6c-0.2,0.1-0.5,0.2-0.7,0.1c-2.8-0.6-5.4-1.9-7.6-3.8l-2.3,2.9
								c2.9,2.5,6.5,4,10.3,4.4c0.5,0.1,0.9,0.5,0.9,1v2.3h2.5v-2.2c0-0.5,0.4-1,0.9-1c6.4-0.4,10.3-4,10.3-9.3
								c0-1.9-0.5-3.5-1.5-4.7c-0.2-0.2-0.3-0.5-0.2-0.8s0.2-0.5,0.4-0.7c0.4-0.3,1.1-0.3,1.4,0.2c1.3,1.6,2,3.6,2,6
								c0,6.2-4.3,10.4-11.3,11.2v2.3C245.8,359,245.4,359.5,244.8,359.5z M232.4,345.2C232.4,345.2,232.4,345.2,232.4,345.2
								c-0.1,0-0.1,0-0.2,0.1l-3.6,4.4c-0.1,0.1-0.1,0.3,0,0.4c3.1,2.9,6.9,4.7,11.1,5.3l0.3,0v3.1c0,0.1,0.1,0.3,0.3,0.3h4.5
								c0.1,0,0.3-0.1,0.3-0.3v-2.9l0.3,0c6.7-0.7,10.9-4.7,10.9-10.5c0-2.2-0.6-4-1.8-5.5l0,0c-0.1-0.1-0.2-0.1-0.4,0
								c-0.1,0-0.1,0.1-0.1,0.2c0,0.1,0,0.1,0.1,0.2c1.2,1.4,1.7,3.1,1.7,5.2c0,5.7-4.2,9.6-11,10.1c-0.1,0-0.2,0.1-0.2,0.3v2.9h-4
								v-3.1c0-0.1-0.1-0.2-0.2-0.3c-4.1-0.5-7.9-2.1-10.9-4.8l-0.3-0.2l3.2-4l0.3,0.3c2.2,1.9,4.8,3.2,7.6,3.9
								c0.1,0,0.3-0.1,0.3-0.2l0-3.6c0-0.1-0.1-0.3-0.3-0.3s-0.3,0.1-0.3,0.3v3.2l-0.5-0.1c-2.6-0.7-5.1-2.1-7.1-4
								C232.5,345.3,232.4,345.2,232.4,345.2z"/>
						</g>
						<g>
							<path class="st8" d="M239.7,340.6v2.8c0,0.3,0.3,0.6,0.6,0.6c0.3,0,0.6-0.3,0.6-0.6v-3.3c0-0.3-0.2-0.5-0.5-0.6
								c-6-1.6-9.7-3.6-9.7-9c0-2.5,1-4.8,2.8-6.5c0.2-0.2,0.3-0.6,0-0.9c-0.2-0.2-0.6-0.3-0.9,0c-2,1.9-3.2,4.6-3.2,7.4
								C229.5,336.5,233.6,338.9,239.7,340.6L239.7,340.6z"/>
							<path class="st8" d="M240.3,344.4c-0.5,0-1-0.4-1-1v-2.5c-5.3-1.5-10.2-3.8-10.2-10.4c0-2.9,1.2-5.7,3.3-7.7
								c0.4-0.4,1-0.4,1.4,0c0.4,0.4,0.4,1,0,1.4c-1.7,1.6-2.7,3.9-2.7,6.3c0,5.1,3.6,7.1,9.4,8.6c0.4,0.1,0.7,0.5,0.7,1v3.3
								C241.3,343.9,240.9,344.4,240.3,344.4z M233.1,323.3c-0.1,0-0.1,0-0.2,0.1c-2,1.9-3.1,4.5-3.1,7.2c0,5.8,4,8.1,9.9,9.7
								l0.3,0.1v3.1c0,0.1,0.1,0.3,0.3,0.3s0.3-0.1,0.3-0.3v-3.3c0-0.1-0.1-0.2-0.2-0.2c-6.2-1.6-10-3.7-10-9.3c0-2.6,1-5.1,2.9-6.8
								c0,0,0.1-0.1,0.1-0.2c0-0.1,0-0.1-0.1-0.2C233.3,323.3,233.2,323.3,233.1,323.3z"/>
						</g>
						<g>
							<path class="st8" d="M240.2,325.1c-2.7,0.6-4.4,2.6-4.4,4.9c0,2.6,2.1,3.7,4.4,4.5c0.2,0.1,0.4,0,0.6-0.1
								c0.2-0.1,0.3-0.3,0.3-0.5v-8.2c0-0.3-0.3-0.6-0.6-0.6C240.3,325.1,240.2,325.1,240.2,325.1L240.2,325.1z M239.7,333
								c-2-0.8-2.7-1.7-2.7-3c0-1.5,1.1-2.8,2.7-3.4V333z"/>
							<path class="st8" d="M240.3,334.9c-0.1,0-0.2,0-0.3-0.1c-2.3-0.8-4.6-2-4.6-4.9c0-2.4,1.9-4.5,4.7-5.2h0
								c0.6-0.1,1.2,0.3,1.2,1v8.2c0,0.3-0.2,0.6-0.4,0.8C240.7,334.9,240.5,334.9,240.3,334.9z M240.2,325.1l0.1,0.4
								c-2.5,0.6-4.2,2.4-4.2,4.5c0,2.3,1.6,3.3,4.1,4.2c0.1,0,0.2,0,0.2,0c0.1,0,0.1-0.1,0.1-0.2v-8.2c0-0.1-0.1-0.3-0.3-0.3
								L240.2,325.1z M240.1,333.6l-0.5-0.2c-2.1-0.9-2.9-1.8-2.9-3.4c0-1.6,1.1-3,2.9-3.7l0.5-0.2V333.6z M239.3,327.1
								c-1.2,0.6-2,1.7-2,2.8c0,0.9,0.3,1.7,2,2.5V327.1z"/>
						</g>
					</g>
				</g>
			</g>
			<g>
				<g>
					<g>
						<g>
							<path class="st9" d="M335,343.8v76.7c0,3-2.3,5.4-4.8,5.4H203c-2.9,0-4.8-2.4-4.8-5.4v-76.7c0-3,2.3-5.1,4.8-5.1h126.8
								C332.7,338.7,335,341.1,335,343.8L335,343.8z"/>
						</g>
						<g class="st10">
							<path d="M335,343.8v76.7c0,3-2.3,5.4-4.8,5.4H203c-2.6,0-4.8-2.4-4.8-5.4v-6h48.7c40.8,0,74.4-33.5,77.2-76.1h6
								C332.7,338.7,335,341.1,335,343.8L335,343.8z"/>
						</g>
					</g>
					<path class="st8" d="M336.3,337.6c-1.3-1.7-3.8-2.8-6.4-2.8H203c-4.7,0-8.6,4-8.6,9v76.7c0,5.2,3.8,9.3,8.6,9.3h126.8
						c4.8,0,8.6-4.1,8.6-9.3v-76.7C338.5,341.7,337.6,339.4,336.3,337.6z M295,342.8c8,0,17.8,0,19.8-0.2l0.4-0.1h9.1l-54.7,40.8
						c-1,0.6-2.1,1-3.2,1c-1.1,0-2.2-0.3-3.1-0.9l-54.8-40.8h30.3C238.9,342.5,272.7,342.8,295,342.8z M201.9,346.7l57,42.7
						c2.2,1.6,4.9,2.6,7.4,2.6c2.6,0,5.1-0.9,7.4-2.6l57.6-42.7v73.8c0,1.6-1.1,1.6-1.4,1.6H203c-0.6,0-1.1-0.9-1.1-1.6V346.7z"/>
				</g>
				<g>
					<path class="st11" d="M266.9,403.6v3.2h-4.5v-3.3c-4.3-0.5-8.3-2.3-11.5-5.3l3.6-4.4c2.2,2.1,5,3.6,8,4.3v-9.6
						c-6.1-1.6-10.2-3.8-10.2-9.6c0-5.3,4.1-9.4,10.2-10.2v-3h4.5v3.1c3.9,0.4,7.5,2,10.4,4.6l-3.4,4.5c-2-1.8-4.4-3.1-7-3.7v9.3
						c6.8,1.5,11.3,3.9,11.3,9.9C278.2,398.9,274.1,403.1,266.9,403.6z M262.4,382.2v-8.2c-2.4,0.6-4,2.3-4,4.3
						C258.5,380.2,259.8,381.2,262.4,382.2z M272,393.8c0-2.3-1.6-3.3-5.1-4.4v8.8C270.3,397.9,272,396,272,393.8L272,393.8z"/>
					<g>
						<g>
							<path class="st8" d="M257.8,370.6c1.5-0.8,3-1.3,4.7-1.5c0.3,0,0.6-0.3,0.6-0.6v-2.4h3.2v2.4c0,0.3,0.2,0.6,0.6,0.6
								c3.5,0.4,6.9,1.8,9.6,4.1l-2.6,3.5c-2-1.7-4.3-2.8-6.8-3.4c-0.3-0.1-0.7,0.1-0.7,0.5c0,0,0,0.1,0,0.1v9.3
								c0,0.3,0.2,0.5,0.5,0.6c1.6,0.3,3.1,0.8,4.6,1.3c0.1,0,0.1,0,0.2,0c0.3,0,0.6-0.3,0.6-0.6c0-0.3-0.2-0.5-0.4-0.6
								c-1.4-0.5-2.8-0.9-4.3-1.3v-8c2.2,0.7,4.3,1.8,6,3.4c0.3,0.2,0.7,0.2,0.9-0.1c0,0,0,0,0,0l3.4-4.5c0.2-0.3,0.2-0.6-0.1-0.8
								c-2.8-2.5-6.4-4.2-10.2-4.7v-2.5c0-0.3-0.3-0.6-0.6-0.6h-4.5c-0.3,0-0.6,0.3-0.6,0.6v2.5c-1.6,0.2-3.2,0.8-4.6,1.5
								c-0.3,0.2-0.4,0.5-0.3,0.8C257.1,370.7,257.5,370.8,257.8,370.6C257.8,370.6,257.8,370.6,257.8,370.6L257.8,370.6z"/>
							<path class="st8" d="M271.6,385.7c-0.1,0-0.2,0-0.4-0.1c-1.5-0.5-3-1-4.5-1.3c-0.5-0.1-0.8-0.5-0.8-1V374c0-0.1,0-0.1,0-0.2
								c0.1-0.3,0.2-0.5,0.4-0.6c0.2-0.1,0.5-0.2,0.8-0.1c2.4,0.6,4.7,1.7,6.6,3.2l2.2-2.9c-2.6-2.1-5.8-3.4-9.1-3.8
								c-0.5-0.1-0.9-0.5-0.9-1v-2.1h-2.5v2c0,0.5-0.4,0.9-0.9,1c-1.6,0.2-3.1,0.7-4.6,1.4l0,0c-0.5,0.3-1.1,0.1-1.4-0.4
								c-0.1-0.2-0.1-0.5-0.1-0.8c0.1-0.3,0.3-0.5,0.5-0.6c1.4-0.7,2.8-1.3,4.4-1.5v-2.2c0-0.5,0.4-1,1-1h4.5c0.5,0,1,0.4,1,1v2.2
								c3.7,0.6,7.2,2.2,10,4.7c0.4,0.3,0.5,0.9,0.1,1.3l-3.4,4.5c-0.4,0.5-1,0.5-1.5,0.2c-1.6-1.4-3.4-2.5-5.4-3.2v7.2
								c1.4,0.3,2.7,0.7,4,1.2c0.4,0.1,0.6,0.5,0.6,0.9C272.6,385.3,272.2,385.7,271.6,385.7z M266.9,373.8c0,0-0.1,0-0.1,0
								c-0.1,0-0.1,0.1-0.1,0.2l0,9.3c0,0.1,0.1,0.2,0.2,0.3c1.6,0.3,3.1,0.8,4.6,1.4c0.2,0.1,0.4-0.1,0.4-0.2
								c0-0.1-0.1-0.2-0.2-0.2c-1.4-0.5-2.8-0.9-4.2-1.3l-0.3-0.1v-8.8l0.5,0.1c2.3,0.7,4.4,1.9,6.1,3.5c0.1,0.1,0.3,0.1,0.4,0
								l3.4-4.6c0.1-0.1,0.1-0.3,0-0.3c-2.8-2.5-6.3-4.1-10-4.6l-0.3,0v-2.8c0-0.1-0.1-0.3-0.3-0.3h-4.5c-0.1,0-0.3,0.1-0.3,0.3v2.8
								l-0.3,0c-1.6,0.2-3.1,0.7-4.5,1.5c-0.1,0-0.1,0.1-0.1,0.2c0,0.1,0,0.1,0,0.2c0.1,0.1,0.2,0.2,0.3,0.1l0.2,0.3l-0.2-0.3
								c1.5-0.8,3.1-1.3,4.8-1.5c0.1,0,0.2-0.1,0.2-0.3v-2.8h4v2.8c0,0.1,0.1,0.2,0.2,0.3c3.6,0.4,7,1.8,9.8,4.2l0.3,0.2l-3.1,4.1
								l-0.3-0.3C271.7,375.5,269.4,374.4,266.9,373.8C267,373.8,267,373.8,266.9,373.8z"/>
						</g>
						<g>
							<path class="st8" d="M267.1,388.9c-0.3-0.1-0.7,0.1-0.8,0.4c0,0.1,0,0.1,0,0.2v8.8c0,0.3,0.3,0.6,0.6,0.6c0,0,0,0,0.1,0
								c3.4-0.4,5.6-2.4,5.6-5.1C272.7,391,270.6,389.9,267.1,388.9z M267.6,397.5v-7.2c2.9,0.9,3.8,1.8,3.8,3.5
								C271.4,395.7,270,397.1,267.6,397.5L267.6,397.5z"/>
							<path class="st8" d="M266.9,399.3c-0.5,0-1-0.4-1-1v-8.8c0-0.1,0-0.2,0-0.3c0.2-0.5,0.7-0.8,1.2-0.7l0,0
								c3.6,1.1,5.8,2.3,5.8,5.3c0,2.9-2.3,5-6,5.4L266.9,399.3z M266.9,389.2c-0.1,0-0.2,0.1-0.2,0.2l0,8.9c0,0.1,0.1,0.3,0.3,0.3
								c3.3-0.4,5.3-2.2,5.3-4.7C272.3,391.3,270.4,390.2,266.9,389.2L266.9,389.2C267,389.2,267,389.2,266.9,389.2z M267.2,398
								v-8.2l0.5,0.2c3,1,4.1,2,4.1,3.9c0,2-1.5,3.6-4.1,4.1L267.2,398z M267.9,390.8v6.2c2-0.5,3.1-1.7,3.1-3.3
								C271,392.6,270.5,391.8,267.9,390.8z"/>
						</g>
						<g>
							<path class="st8" d="M274.1,385.2c-0.3-0.2-0.7-0.1-0.9,0.2c-0.2,0.3-0.1,0.7,0.2,0.8c0.3,0.2,0.6,0.4,0.9,0.6
								c0.3,0.2,0.7,0.1,0.9-0.2c0.2-0.3,0.1-0.7-0.2-0.9C274.8,385.6,274.5,385.4,274.1,385.2L274.1,385.2z"/>
							<path class="st8" d="M274.7,387.3c-0.2,0-0.4-0.1-0.6-0.2c-0.3-0.2-0.6-0.4-0.9-0.5c-0.5-0.3-0.6-0.9-0.4-1.3
								c0.3-0.5,0.9-0.7,1.4-0.4l0,0c0.4,0.2,0.7,0.4,1,0.6c0.2,0.2,0.4,0.4,0.4,0.6c0,0.3,0,0.5-0.2,0.7c-0.2,0.2-0.4,0.4-0.6,0.4
								C274.9,387.3,274.8,387.3,274.7,387.3z M273.8,385.5c-0.1,0-0.2,0-0.2,0.1c-0.1,0.1,0,0.3,0.1,0.3c0.3,0.2,0.6,0.4,0.9,0.6
								c0.1,0,0.1,0.1,0.2,0c0.1,0,0.1,0,0.2-0.1c0-0.1,0.1-0.1,0-0.2c0-0.1,0-0.1-0.1-0.2c-0.3-0.2-0.6-0.4-1-0.6l0,0
								C273.9,385.5,273.9,385.5,273.8,385.5z"/>
						</g>
						<g>
							<path class="st8" d="M277,387.5c-0.2-0.3-0.6-0.3-0.9-0.1c-0.3,0.2-0.3,0.6-0.1,0.9c0,0,0,0,0,0c1.1,1.3,1.6,2.9,1.6,4.9
								c0,5.5-4.1,9.3-10.7,9.7c-0.3,0-0.6,0.3-0.6,0.6v2.5h-3.2v-2.7c0-0.3-0.2-0.6-0.6-0.6c-4-0.4-7.7-2.1-10.7-4.7l2.8-3.4
								c2.2,2,4.9,3.3,7.8,4c0.3,0.1,0.7-0.1,0.7-0.5c0,0,0-0.1,0-0.1v-3.5c0-0.3-0.3-0.6-0.6-0.6s-0.6,0.3-0.6,0.6v2.7
								c-2.6-0.7-5-2.1-6.9-3.9c-0.3-0.2-0.7-0.2-0.9,0c0,0,0,0,0,0l-3.6,4.4c-0.2,0.3-0.2,0.6,0.1,0.9c3.1,2.9,7.1,4.8,11.3,5.4
								v2.8c0,0.3,0.3,0.6,0.6,0.6h4.5c0.3,0,0.6-0.3,0.6-0.6v-2.6c7-0.7,11.3-4.8,11.3-10.9C278.8,390.9,278.2,389,277,387.5
								L277,387.5z"/>
							<path class="st8" d="M266.9,407.7h-4.5c-0.5,0-1-0.4-1-1v-2.4c-4.2-0.6-8.1-2.5-11.2-5.4c-0.4-0.4-0.4-0.9-0.1-1.4l3.6-4.4
								c0.2-0.2,0.5-0.4,0.7-0.4c0.3,0,0.5,0.1,0.7,0.3c1.8,1.7,3.9,3,6.3,3.7v-2.2c0-0.5,0.4-1,1-1c0.5,0,1,0.4,1,1v3.5
								c0,0.1,0,0.1,0,0.2c-0.1,0.3-0.2,0.5-0.4,0.6c-0.2,0.1-0.5,0.2-0.7,0.1c-2.8-0.6-5.4-1.9-7.6-3.8l-2.3,2.9
								c2.9,2.5,6.5,4,10.3,4.4c0.5,0.1,0.9,0.5,0.9,1v2.3h2.5v-2.2c0-0.5,0.4-1,0.9-1c6.4-0.4,10.3-4,10.3-9.3
								c0-1.9-0.5-3.5-1.5-4.7c-0.2-0.2-0.3-0.5-0.2-0.8c0-0.3,0.2-0.5,0.4-0.7c0.4-0.3,1.1-0.3,1.4,0.2c1.3,1.6,2,3.6,2,6
								c0,6.2-4.3,10.4-11.3,11.2v2.3C267.9,407.3,267.5,407.7,266.9,407.7z M254.5,393.5C254.5,393.5,254.5,393.5,254.5,393.5
								c-0.1,0-0.1,0-0.2,0.1l-3.6,4.4c-0.1,0.1-0.1,0.3,0,0.4c3.1,2.9,6.9,4.7,11.1,5.3l0.3,0v3.1c0,0.1,0.1,0.3,0.3,0.3h4.5
								c0.1,0,0.3-0.1,0.3-0.3v-2.9l0.3,0c6.7-0.7,10.9-4.7,10.9-10.5c0-2.2-0.6-4-1.8-5.5l0,0c-0.1-0.1-0.2-0.1-0.4,0
								c-0.1,0-0.1,0.1-0.1,0.2c0,0.1,0,0.1,0.1,0.2c1.2,1.4,1.7,3.1,1.7,5.2c0,5.7-4.2,9.6-11,10.1c-0.1,0-0.2,0.1-0.2,0.3v2.9h-4
								v-3.1c0-0.1-0.1-0.2-0.2-0.3c-4.1-0.5-7.9-2.1-10.9-4.8l-0.3-0.2l3.2-4l0.3,0.3c2.2,1.9,4.8,3.2,7.6,3.9
								c0.1,0,0.3-0.1,0.3-0.2l0-3.6c0-0.1-0.1-0.3-0.3-0.3s-0.3,0.1-0.3,0.3v3.2l-0.5-0.1c-2.6-0.7-5.1-2.1-7.1-4
								C254.6,393.5,254.6,393.5,254.5,393.5z"/>
						</g>
						<g>
							<path class="st8" d="M261.8,388.8v2.8c0,0.3,0.3,0.6,0.6,0.6s0.6-0.3,0.6-0.6v-3.3c0-0.3-0.2-0.5-0.5-0.6
								c-6-1.6-9.7-3.6-9.7-9c0-2.5,1-4.8,2.8-6.5c0.2-0.2,0.3-0.6,0-0.9c-0.2-0.2-0.6-0.3-0.9,0c-2,1.9-3.2,4.6-3.2,7.4
								C251.6,384.8,255.7,387.2,261.8,388.8L261.8,388.8z"/>
							<path class="st8" d="M262.4,392.6c-0.5,0-1-0.4-1-1v-2.5c-5.3-1.5-10.2-3.8-10.2-10.4c0-2.9,1.2-5.7,3.3-7.7
								c0.4-0.4,1-0.4,1.4,0c0.4,0.4,0.4,1,0,1.4c-1.7,1.6-2.7,3.9-2.7,6.3c0,5.1,3.6,7.1,9.4,8.6c0.4,0.1,0.7,0.5,0.7,1v3.3
								C263.4,392.2,263,392.6,262.4,392.6z M255.2,371.5c-0.1,0-0.1,0-0.2,0.1c-2,1.9-3.1,4.5-3.1,7.2c0,5.8,4,8.1,9.9,9.7l0.3,0.1
								v3.1c0,0.1,0.1,0.3,0.3,0.3s0.3-0.1,0.3-0.3v-3.3c0-0.1-0.1-0.2-0.2-0.2c-6.2-1.6-10-3.7-10-9.3c0-2.6,1-5.1,2.9-6.8
								c0,0,0.1-0.1,0.1-0.2c0-0.1,0-0.1-0.1-0.2C255.4,371.5,255.3,371.5,255.2,371.5z"/>
						</g>
						<g>
							<path class="st8" d="M262.3,373.3c-2.7,0.6-4.4,2.6-4.4,4.9c0,2.6,2.1,3.7,4.4,4.5c0.2,0.1,0.4,0,0.6-0.1
								c0.2-0.1,0.3-0.3,0.3-0.5v-8.2c0-0.3-0.3-0.6-0.6-0.6C262.4,373.3,262.3,373.3,262.3,373.3L262.3,373.3z M261.8,381.2
								c-2-0.8-2.7-1.7-2.7-3c0-1.5,1.1-2.8,2.7-3.4V381.2z"/>
							<path class="st8" d="M262.4,383.1c-0.1,0-0.2,0-0.3-0.1c-2.3-0.8-4.6-2-4.6-4.9c0-2.4,1.9-4.5,4.7-5.2h0
								c0.6-0.1,1.2,0.3,1.2,1v8.2c0,0.3-0.2,0.6-0.4,0.8C262.9,383.1,262.6,383.1,262.4,383.1z M262.3,373.3l0.1,0.4
								c-2.5,0.6-4.2,2.4-4.2,4.5c0,2.3,1.6,3.3,4.1,4.2c0.1,0,0.2,0,0.2,0c0.1,0,0.1-0.1,0.1-0.2v-8.2c0-0.1-0.1-0.3-0.3-0.3
								L262.3,373.3z M262.2,381.8l-0.5-0.2c-2.1-0.9-2.9-1.8-2.9-3.4c0-1.6,1.1-3,2.9-3.7l0.5-0.2V381.8z M261.5,375.4
								c-1.2,0.6-2,1.7-2,2.8c0,0.9,0.3,1.7,2,2.5V375.4z"/>
						</g>
					</g>
				</g>
			</g>
		</g>
		<g>
			<g>
				<path class="st12" d="M375.5,319.1l-4,4l-0.7-0.7c-1.5-1.5-3.7-1.9-5.6-1.1c0,0,0,0-0.1,0c-1.9,0.8-3.1,2.6-3.1,4.6v1.1h-5.3
					h-4.5h-2v-1.1c0-2-1.2-3.8-3.1-4.6c0,0,0,0-0.1,0c-1.9-0.8-4.1-0.3-5.6,1.1l-0.7,0.7l-8.4-8.4l0.8-0.8c1.4-1.4,1.8-3.6,1-5.5
					c0,0,0,0,0-0.1c-0.8-1.9-2.6-3.1-4.6-3.1h-1.1v-11.9h1.1c2,0,3.8-1.2,4.6-3.1c0,0,0,0,0-0.1c0.8-1.9,0.4-4-1-5.5l-0.8-0.8
					l8.4-8.4l0.8,0.8c1.4,1.4,3.6,1.8,5.5,1c0,0,0,0,0.1,0c1.9-0.8,3.1-2.6,3.1-4.6v-1.1h11.9v1.1c0,2,1.2,3.8,3.1,4.6
					c0,0,0,0,0.1,0c1.9,0.8,4,0.4,5.5-1l0.8-0.8l8.4,8.4l-0.8,0.8c-1.4,1.4-1.8,3.6-1,5.5c0,0,0,0,0,0.1c0.8,1.9,2.6,3.1,4.6,3.1
					h1.1v11.9h-1.1c-2,0-3.8,1.2-4.6,3.1c0,0,0,0,0,0.1c-0.8,1.9-0.4,4,1,5.5l0.8,0.8L375.5,319.1z"/>
			</g>
			<g>
				<path class="st13" d="M359.3,296.2v6.2c0,1.7-1.4,3.1-3.1,3.1c-0.9,0-1.6-0.3-2.2-0.9c-0.6-0.6-0.9-1.3-0.9-2.2v-6.2
					c0-1.7,1.4-3.1,3.1-3.1c0.9,0,1.6,0.3,2.2,0.9C358.9,294.5,359.3,295.3,359.3,296.2z"/>
			</g>
			<path class="st8" d="M358,316.1v-3.7h-1.9c-5.1,0-9.3-4.2-9.3-9.3v-7.5c0-5.1,4.2-9.3,9.3-9.3c5.1,0,9.3,4.2,9.3,9.3v7.5
				c0,1-0.8,1.9-1.9,1.9c-1,0-1.9-0.8-1.9-1.9v-7.5c0-3.1-2.5-5.6-5.6-5.6c-3.1,0-5.6,2.5-5.6,5.6v7.5c0,3.1,2.5,5.6,5.6,5.6
				c1.4,0,2.7-0.5,3.7-1.4c1,0.9,2.3,1.4,3.7,1.4c3.1,0,5.6-2.5,5.6-5.6v-7.5c0-7.2-5.9-13.1-13.1-13.1c-7.2,0-13.1,5.9-13.1,13.1
				v7.5c0,7.2,5.9,13.1,13.1,13.1H358z M358,303c0,1-0.8,1.9-1.9,1.9c-1,0-1.9-0.8-1.9-1.9v-7.5c0-1,0.8-1.9,1.9-1.9
				c1,0,1.9,0.8,1.9,1.9V303z"/>
			<g>
				<path class="st8" d="M379.9,309.1c0.5-1.1,1.6-1.9,2.8-1.9h3.1v-15.8h-3.1c-1.2,0-2.3-0.7-2.8-1.9l0-0.1
					c-0.5-1.2-0.2-2.5,0.6-3.3l2.2-2.2l-11.2-11.2l-2.2,2.2c-0.9,0.9-2.2,1.1-3.3,0.6l-0.1,0c-1.1-0.5-1.9-1.6-1.9-2.8v-3.1h-15.8
					v3.1c0,1.2-0.7,2.3-1.9,2.8l-0.1,0c-1.2,0.5-2.5,0.2-3.3-0.6l-2.2-2.2l-11.2,11.2l2.2,2.2c0.9,0.9,1.1,2.2,0.6,3.3l0,0.1
					c-0.5,1.1-1.6,1.9-2.8,1.9h-3.1v15.8h3.1c1.2,0,2.3,0.7,2.8,1.9l0,0.1c0.5,1.2,0.2,2.5-0.6,3.3l-2.2,2.2l11.2,11.2l2.1-2.1
					c0.9-0.9,2.3-1.2,3.4-0.7l0.1,0c1.1,0.5,1.9,1.6,1.9,2.8v3.1h15.8v-3.1c0-1.2,0.7-2.3,1.9-2.8l0.1,0c1.2-0.5,2.5-0.2,3.4,0.7
					l2.1,2.1l4.8-4.8l4-4l2.4-2.4l-2.2-2.2C379.7,311.6,379.4,310.3,379.9,309.1L379.9,309.1z M376.3,307.6L376.3,307.6
					c-1,2.4-0.6,5.1,0.9,7.1l-5.7,5.7c-2-1.5-4.6-1.9-7-0.9l-0.1,0c-2.4,1-4,3.1-4.3,5.6h-8c-0.3-2.5-1.9-4.6-4.3-5.6l-0.1,0
					c-2.3-1-5-0.6-7,0.9l-5.7-5.7c1.5-2,1.9-4.6,0.9-7l0,0c-1-2.4-3.1-4-5.6-4.3v-8c2.5-0.3,4.6-1.9,5.6-4.3l0-0.1
					c1-2.4,0.6-5-0.9-7l5.7-5.7c2,1.5,4.6,1.9,7,0.9l0,0c2.4-1,4-3.1,4.3-5.6h8c0.3,2.5,1.9,4.6,4.3,5.6l0.1,0c2.4,1,5,0.6,7-0.9
					l5.7,5.7c-1.5,2-1.9,4.6-0.9,7l0,0c1,2.4,3.1,4,5.6,4.3v8C379.4,303.6,377.3,305.2,376.3,307.6z"/>
			</g>
		</g>
	</g>
	<g id="Fill_Outline_1_">
		<g id="Color_2_">
			<g>
				<path class="st14" d="M251.5,242.4l1.5-22.7l66.7-19.7L251.5,242.4z"/>
				<path class="st15" d="M251.5,242.4l68.2-42.5l-62.2,30.3L251.5,242.4z"/>
				<path class="st16" d="M243.9,204.5l75.8-4.5L253,219.7L243.9,204.5z"/>
				<path class="st16" d="M319.7,200l-62.2,30.3l16.7,13.6L319.7,200z"/>
				<path class="st17" d="M295.9,174c-3.6-4.6-10.2-5.7-15.2-2.5c-3.1,2-5,5.4-5,9.1c0-3.7-1.9-7.1-5-9.1
					c-4.9-3.2-11.5-2.1-15.2,2.5c-4.2,5.4-3.2,13.1,2.1,17.4l18,14.7l18-14.7C299.1,187.1,300,179.4,295.9,174L295.9,174z"/>
				<path class="st18" d="M295.9,174c-1.3-1.7-3.1-3-5.2-3.7c-1.7,13.8-12.6,24.7-26.4,26.4l11.5,9.3l18-14.7
					C299.1,187.1,300,179.4,295.9,174L295.9,174z"/>
				<path class="st19" d="M318.8,166.5c-1.2-1.5-3.4-1.9-5-0.8c-1,0.7-1.7,1.8-1.7,3c0-1.2-0.6-2.4-1.7-3c-1.6-1.1-3.8-0.7-5.1,0.8
					c-1.4,1.8-1.1,4.4,0.7,5.8l6,4.9l6-4.9C319.9,170.9,320.2,168.3,318.8,166.5L318.8,166.5z"/>
				<path class="st17" d="M318.8,166.5c-0.6-0.7-1.4-1.2-2.3-1.4c-0.7,4.4-4,7.9-8.4,8.8l4,3.2l6-4.9
					C319.9,170.9,320.2,168.3,318.8,166.5L318.8,166.5z"/>
				<path class="st19" d="M246.1,187.8c-1.2-1.5-3.4-1.9-5-0.8c-1,0.7-1.7,1.8-1.7,3c0-1.2-0.6-2.4-1.7-3c-1.6-1.1-3.8-0.7-5.1,0.8
					c-1.4,1.8-1.1,4.4,0.7,5.8l6,4.9l6-4.9C247.1,192.2,247.4,189.6,246.1,187.8z"/>
				<path class="st17" d="M246.1,187.8c-0.6-0.7-1.4-1.2-2.3-1.4c-0.7,4.4-4,7.9-8.4,8.8l4,3.2l6-4.9
					C247.1,192.2,247.4,189.6,246.1,187.8z"/>
				<path class="st19" d="M317.3,236.3c-1.2-1.5-3.4-1.9-5-0.8c-1,0.7-1.7,1.8-1.7,3c0-1.2-0.6-2.4-1.7-3c-1.6-1.1-3.8-0.7-5.1,0.8
					c-1.4,1.8-1.1,4.4,0.7,5.8l6,4.9l6-4.9C318.4,240.7,318.7,238.1,317.3,236.3L317.3,236.3z"/>
				<path class="st17" d="M317.3,236.3c-0.6-0.7-1.4-1.2-2.3-1.4c-0.7,4.4-4,7.9-8.4,8.8l4,3.2l6-4.9
					C318.4,240.7,318.7,238.1,317.3,236.3L317.3,236.3z"/>
			</g>
		</g>
		<g id="Outline_copy_1_">
			<g>
				<path class="st8" d="M243.1,244.2l-12.1,7.6c-0.7,0.4-0.9,1.4-0.5,2.1c0.4,0.7,1.4,0.9,2.1,0.5l12.1-7.6
					c0.7-0.4,0.9-1.4,0.5-2.1S243.8,243.7,243.1,244.2z"/>
				<path class="st8" d="M264.4,242.6l-10.6,6.1c-0.7,0.4-1,1.3-0.6,2.1c0.3,0.5,0.8,0.8,1.3,0.8c0.3,0,0.5-0.1,0.8-0.2l10.6-6.1
					c0.7-0.4,0.9-1.4,0.5-2.1C266,242.5,265.1,242.3,264.4,242.6L264.4,242.6z"/>
				<path class="st8" d="M246.2,227.4l-9.1,4.5c-0.7,0.4-1.1,1.3-0.7,2s1.3,1.1,2,0.7l0,0l9.1-4.5c0.7-0.4,1.1-1.3,0.7-2
					S247,227.1,246.2,227.4z"/>
				<path class="st8" d="M234.8,220c0.1,0.7,0.8,1.2,1.5,1.2c0.1,0,0.2,0,0.3,0l7.6-1.5c0.8-0.1,1.4-0.9,1.3-1.7s-0.9-1.4-1.7-1.3
					c0,0-0.1,0-0.1,0l-7.6,1.5C235.2,218.4,234.7,219.2,234.8,220C234.8,220,234.8,220,234.8,220z"/>
				<path class="st8" d="M304,224.6c-0.6-0.6-1.6-0.5-2.1,0.1l-12.1,13.6c-0.6,0.6-0.5,1.6,0.1,2.1c0.6,0.6,1.6,0.5,2.1-0.1
					l12.1-13.6C304.7,226.1,304.7,225.2,304,224.6C304,224.6,304,224.6,304,224.6L304,224.6z"/>
				<path class="st8" d="M239.3,207.6h-6.1c-0.8,0-1.5,0.7-1.5,1.5s0.7,1.5,1.5,1.5h6.1c0.8,0,1.5-0.7,1.5-1.5
					S240.2,207.6,239.3,207.6z"/>
				<path class="st8" d="M305.2,173.5l6,4.9c0.6,0.5,1.4,0.5,1.9,0l6-4.9c2.4-1.9,2.8-5.5,0.9-7.9c-1.7-2.2-4.8-2.7-7.1-1.2
					c-0.3,0.2-0.6,0.4-0.8,0.7c-0.3-0.3-0.5-0.5-0.8-0.7c-2.3-1.5-5.4-1-7.1,1.2C302.3,168.1,302.7,171.6,305.2,173.5z M306.6,167.5
					c0.4-0.5,1.1-0.9,1.8-0.9c0.4,0,0.9,0.1,1.2,0.4c0.6,0.4,1,1,1,1.8c0,0.8,0.7,1.5,1.5,1.5c0.8,0,1.5-0.7,1.5-1.5
					c0-0.7,0.4-1.4,1-1.8c1-0.6,2.3-0.4,3,0.5c0.9,1.1,0.7,2.8-0.5,3.7l-5.1,4.1l-5.1-4.1C305.9,170.3,305.7,168.6,306.6,167.5
					L306.6,167.5z"/>
				<path class="st8" d="M232.4,194.7l6,4.9c0.6,0.5,1.4,0.5,1.9,0l6-4.9c2.4-1.9,2.8-5.5,0.9-7.9c-1.7-2.2-4.8-2.7-7.1-1.2
					c-0.3,0.2-0.6,0.4-0.8,0.7c-0.3-0.3-0.5-0.5-0.8-0.7c-2.3-1.5-5.4-1-7.1,1.2C229.5,189.3,229.9,192.8,232.4,194.7z M233.8,188.7
					c0.4-0.5,1.1-0.9,1.8-0.9c0.4,0,0.9,0.1,1.2,0.4c0.6,0.4,1,1,1,1.8c0,0.8,0.7,1.5,1.5,1.5s1.5-0.7,1.5-1.5c0-0.7,0.4-1.4,1-1.8
					c1-0.6,2.3-0.4,3,0.5c0.9,1.1,0.7,2.8-0.5,3.7l-5.1,4.1l-5.1-4.1C233.1,191.5,232.9,189.8,233.8,188.7L233.8,188.7z"/>
				<path class="st8" d="M318.5,235.4c-1.7-2.2-4.8-2.7-7.1-1.2c-0.3,0.2-0.6,0.4-0.8,0.7c-0.3-0.3-0.5-0.5-0.8-0.7
					c-2.3-1.5-5.4-1-7.1,1.2c-1.9,2.4-1.5,6,0.9,7.9l6,4.9c0.6,0.5,1.4,0.5,1.9,0l6-4.9C320,241.3,320.4,237.8,318.5,235.4
					L318.5,235.4z M315.7,240.9l-5.1,4.1l-5.1-4.1c-1.1-0.9-1.3-2.5-0.5-3.7c0.4-0.5,1.1-0.9,1.8-0.9c0.4,0,0.9,0.1,1.2,0.4
					c0.6,0.4,1,1,1,1.8c0,0.8,0.7,1.5,1.5,1.5c0.8,0,1.5-0.7,1.5-1.5c0-0.7,0.4-1.4,1-1.8c1-0.6,2.3-0.4,3,0.5
					C317,238.4,316.8,240,315.7,240.9L315.7,240.9z"/>
				<path class="st8" d="M321.1,199.4c-0.2-0.6-0.8-1-1.5-0.9l-29.6,1.8c-0.8,0-1.5,0.8-1.4,1.6s0.8,1.5,1.6,1.4l22-1.3l-55.3,27
					c-0.2,0.1-0.4,0.2-0.5,0.4c-0.1,0.1-0.1,0.2-0.2,0.3l-2.7,5.4l0.9-14.2L298,208c0.8-0.2,1.2-1.1,1-1.9c-0.2-0.8-1.1-1.2-1.9-1
					l-43.5,12.9l-7.2-12l17.2-1c0.8,0,1.5-0.8,1.4-1.6s-0.8-1.5-1.6-1.4l-19.7,1.2c-0.8,0-1.5,0.8-1.4,1.6c0,0.2,0.1,0.5,0.2,0.7
					l8.9,14.8l-1.5,22.3c-0.1,0.8,0.6,1.6,1.4,1.6c0.3,0,0.6-0.1,0.9-0.2l10.9-6.8l10,8.2c0.6,0.5,1.5,0.5,2-0.1l7.1-6.8
					c0.6-0.6,0.7-1.5,0.1-2.1c-0.6-0.6-1.5-0.7-2.1-0.1c0,0,0,0-0.1,0.1l-6.1,5.9l-9.8-8l0,0l-4-3.2l51.5-25.1l-27.2,26.3
					c-0.6,0.6-0.6,1.6,0,2.1c0.6,0.6,1.5,0.6,2.1,0l34.1-32.9C321.2,200.6,321.4,199.9,321.1,199.4L321.1,199.4z M260.7,234.9
					l-5.5,3.4l2.8-5.6L260.7,234.9z"/>
				<path class="st8" d="M264.8,175.4c-3.4,0-6.1,2.7-6.1,6.1c0,0.8,0.7,1.5,1.5,1.5c0.8,0,1.5-0.7,1.5-1.5c0-1.7,1.4-3,3-3
					c0.8,0,1.5-0.7,1.5-1.5S265.7,175.4,264.8,175.4z"/>
				<path class="st8" d="M256.7,192.6l5.4,4.4c0.7,0.5,1.6,0.4,2.1-0.3c0.5-0.6,0.4-1.5-0.2-2.1l-5.4-4.4
					c-4.7-3.7-5.5-10.5-1.8-15.3c3.2-4,8.8-5,13.1-2.2c2.7,1.7,4.3,4.6,4.3,7.8c0,0.8,0.7,1.5,1.5,1.5c0.8,0,1.5-0.7,1.5-1.5
					c0-3.2,1.6-6.1,4.3-7.8c4.3-2.8,10-1.8,13.1,2.2c3.7,4.7,2.8,11.5-1.8,15.3l-17.1,13.9l-7-5.6c-0.7-0.5-1.6-0.4-2.1,0.3
					c-0.5,0.6-0.4,1.5,0.2,2.1l7.9,6.4c0.6,0.5,1.4,0.5,1.9,0l18-14.7c6-4.8,7-13.4,2.3-19.5c-4.1-5.3-11.6-6.5-17.2-2.9
					c-1.7,1.1-3.2,2.6-4.2,4.5c-1-1.8-2.4-3.3-4.2-4.4c-5.6-3.6-13.1-2.4-17.2,2.9C249.7,179.1,250.8,187.8,256.7,192.6L256.7,192.6
					z"/>
			</g>
		</g>
	</g>
</g>
</svg>
