<?xml version="1.0" encoding="utf-8"?>
<!-- Generator: Adobe Illustrator 25.0.0, SVG Export Plug-In . SVG Version: 6.00 Build 0)  -->
<svg version="1.1" id="Layer_1" xmlns="http://www.w3.org/2000/svg" xmlns:xlink="http://www.w3.org/1999/xlink" x="0px" y="0px"
	 viewBox="0 0 130 535.6" style="enable-background:new 0 0 130 535.6;" xml:space="preserve">
<style type="text/css">
	.st0{fill:#87796F;}
	.st1{fill:#FFF2E8;}
	.st2{fill:#FEDA9B;}
	.st3{fill:#FFB954;}
	.st4{fill:#FF5D5D;}
	.st5{fill:#FF5A5A;}
	.st6{fill:#C1A897;}
	.st7{fill:#FFFFFF;}
	.st8{fill:#35414D;}
	.st9{fill:#F0FCFF;}
	.st10{fill:#D7ECFE;}
	.st11{fill:#FFBD63;}
	.st12{fill:#EAC892;}
	.st13{fill:#FF7E8E;}
	.st14{fill:#F45175;}
	.st15{fill:#EAEBEC;}
</style>
<g>
	<g>
		<path class="st0" d="M40,227.5l-18.4,6.1L2.1,286c-1.8,4.8,0.7,10.2,5.5,12.1l87.8,32.7c4.8,1.8,10.2-0.7,12.1-5.5l19.6-52.4
			l-10-16.3"/>
	</g>
	<g>
		
			<rect x="32" y="209.6" transform="matrix(0.3494 -0.937 0.937 0.3494 -184.9526 233.3355)" class="st1" width="87.1" height="80.4"/>
	</g>
	<g>
		<path class="st2" d="M74.3,297l-29.9-11.1l-22.8-52.3L2.1,286c-1.8,4.8,0.7,10.2,5.5,12.1l87.8,32.7c4.8,1.8,10.2-0.7,12.1-5.5
			l19.6-52.4L74.3,297z"/>
	</g>
	<g>
		<path class="st3" d="M6.7,296l41.6-16.6c10.9-4.4,23.3,0.3,28.7,10.7l20.5,39.8L6.7,296z"/>
	</g>
	<g>
		<g>
			<path class="st4" d="M103,242.9c3.7-1.7,5.4-6.1,3.7-9.8c-1.7-3.7-6.1-5.4-9.8-3.7L103,242.9z"/>
		</g>
		<g>
			<path class="st5" d="M70.5,260.6l-11.1,5.1c-5,2.3-11,0.1-13.3-5l0,0c-2.3-5-0.1-11,5-13.3l11.1-5.1L70.5,260.6z"/>
		</g>
	</g>
	<g>
		<polygon class="st0" points="70.5,260.6 76.4,273.6 68.6,277.1 62.6,264.2 		"/>
	</g>
	<g>
		<polygon class="st6" points="70.5,260.6 62.2,242.3 89.5,213.5 110.2,258.8 		"/>
	</g>
	<g>
		<polygon class="st7" points="100,259.2 110.2,258.8 89.5,213.5 82.5,220.9 		"/>
	</g>
	<g>
		<path class="st8" d="M73.4,217.8c-0.4-0.1-0.7-0.4-0.8-0.8s-0.2-0.8,0-1.2s0.4-0.7,0.8-0.8c0.4-0.2,0.8-0.2,1.2,0
			c0.4,0.1,0.7,0.4,0.8,0.8c0.2,0.4,0.2,0.8,0,1.2c-0.1,0.4-0.4,0.7-0.8,0.8C74.1,218,73.7,218,73.4,217.8z"/>
	</g>
	<g>
		<path class="st8" d="M56.8,211.7c-0.8-0.3-1.2-1.2-0.9-1.9s1.2-1.2,1.9-0.9l8.6,3.2c0.8,0.3,1.2,1.2,0.9,1.9
			c-0.3,0.8-1.2,1.2-1.9,0.9L56.8,211.7z"/>
	</g>
	<g>
		<path class="st8" d="M52.4,223.7c-0.8-0.3-1.2-1.2-0.9-1.9s1.2-1.2,1.9-0.9l10.3,3.8c0.8,0.3,1.2,1.2,0.9,1.9
			c-0.3,0.8-1.2,1.2-1.9,0.9L52.4,223.7z"/>
	</g>
	<g>
		<path class="st8" d="M7.1,299.4c-5.6-2.1-8.5-8.4-6.4-14L20.2,233c0.2-0.4,0.5-0.8,0.9-0.9l18.4-6.1l0,0l0.4-0.1l11.7-31.4
			c0.3-0.8,1.2-1.2,1.9-0.9l26.1,9.7c0.8,0.3,1.2,1.2,0.9,1.9c-0.3,0.8-1.2,1.2-1.9,0.9L54,197l-21.2,56.7c0,0,0,0,0,0c0,0,0,0,0,0
			l-0.1,0.3l11.6,25.3l3.4-1.4c5.6-2.2,11.8-2.3,17.5-0.2c0.2,0.1,0.4,0.2,0.7,0.3l1.8,0.7l-5.7-12.6l-1.8,0.8
			c-2.8,1.3-5.9,1.4-8.8,0.3s-5.2-3.2-6.5-6c-1.3-2.8-1.4-5.9-0.3-8.8c1.1-2.9,3.2-5.2,6-6.5l10.8-4.9l27.2-28.6
			c0.3-0.4,0.8-0.5,1.3-0.4c0.1,0,0.2,0,0.3,0.1c0.4,0.1,0.7,0.4,0.8,0.8l6.7,14.6l0.6-0.1c1.6-0.3,3.3-0.2,4.8,0.4
			c2.2,0.8,4,2.5,5,4.7c1,2.2,1.1,4.6,0.2,6.8c-0.6,1.5-1.6,2.9-2.8,3.9l-0.5,0.4l6.7,14.6c0.2,0.5,0.2,1-0.1,1.4
			c-0.3,0.4-0.7,0.7-1.2,0.7L72.8,262l5,10.9c0.3,0.8,0,1.6-0.7,2l-9,4.1l1.3,0.8c3.8,2.3,6.9,5.6,8.9,9.6l1.7,3.3l25.3-11.6
			l0.1-0.3l0,0l10.8-29c0.3-0.8,1.2-1.2,1.9-0.9c0.8,0.3,1.2,1.2,0.9,1.9l-1,2.6l0.2,0.3l0,0l9.6,15.7l0.4,0.6
			c0.2,0.4,0.3,0.9,0.1,1.3l-19.6,52.4c-2.1,5.6-8.4,8.5-14,6.4L7.1,299.4z M8.6,296.8l86.7,32.4l-19.8-38.4
			c-2.4-4.7-6.5-8.3-11.4-10.2c-4.9-1.8-10.4-1.8-15.3,0.2l-24.4,9.7l12.9,4.8c0.8,0.3,1.2,1.2,0.9,1.9s-1.2,1.2-1.9,0.9l-16-6
			L8.6,296.8z M81.3,295.3l17.4,33.8c0,0.1,0,0.1,0.1,0.2l0.2,0.6l0.6-0.1c2.9-0.4,5.3-2.3,6.4-5l18.3-49L81.3,295.3z M3.5,286.5
			c-1,2.7-0.4,5.8,1.5,8l0.4,0.5l0.5-0.3c0,0,0.1-0.1,0.2-0.1l35.3-14.1l-19.6-43L3.5,286.5z M64.6,264.9l4.7,10.2l5.1-2.3
			l-4.7-10.2L64.6,264.9z M51.7,248.7c-2.1,0.9-3.7,2.6-4.5,4.8c-0.8,2.1-0.7,4.5,0.2,6.5c0.9,2.1,2.6,3.7,4.8,4.5
			c2.1,0.8,4.5,0.7,6.5-0.2l9.7-4.4l-7.1-15.5L51.7,248.7z M109.1,279.3l15.7-7.2l-8.1-13.2L109.1,279.3z M23.7,234.4l7.2,15.7
			l7.7-20.7L23.7,234.4z M64,242.6l7.5,16.4l26.3-1.2l-15.7-34.3L64,242.6z M84.3,221.2l16.7,36.5l6.9-0.3l-18.8-41.2L84.3,221.2z
			 M101.9,230.6c-0.6-0.2-1.2-0.3-1.9-0.4l-1.3,0l4.9,10.7l0.8-1c0.4-0.5,0.7-1.1,1-1.7c0.6-1.5,0.5-3.1-0.2-4.5
			C104.6,232.2,103.4,231.1,101.9,230.6z"/>
	</g>
	<g>
		<path class="st5" d="M116.1,230.1c-0.4-0.1-0.7-0.4-0.8-0.8c-0.3-0.8,0-1.6,0.7-2l11.9-5.4c0.4-0.2,0.8-0.2,1.2,0
			c0.4,0.1,0.7,0.4,0.8,0.8c0.3,0.8,0,1.6-0.7,2l-11.9,5.4C116.9,230.2,116.5,230.2,116.1,230.1z"/>
	</g>
	<g>
		<path class="st5" d="M109.7,222.6c-0.8-0.3-1.2-1.2-0.9-1.9l1.6-4.3c0.3-0.8,1.2-1.2,1.9-0.9s1.2,1.2,0.9,1.9l-1.6,4.3
			C111.3,222.5,110.5,222.9,109.7,222.6z"/>
	</g>
	<g>
		<path class="st5" d="M117.4,239.5c-0.8-0.3-1.2-1.2-0.9-1.9c0.3-0.8,1.2-1.2,1.9-0.9l4.4,1.7c0.8,0.3,1.2,1.2,0.9,1.9
			c-0.3,0.8-1.2,1.2-1.9,0.9L117.4,239.5z"/>
	</g>
	<g>
		<path class="st8" d="M44.9,301.8c-0.5-0.2-0.9-0.5-1.1-1c-0.2-0.5-0.2-1,0-1.4c0.2-0.5,0.5-0.9,1-1.1c0.5-0.2,1-0.2,1.5-0.1
			c0.5,0.2,0.9,0.5,1.1,1c0.2,0.5,0.2,1,0.1,1.4c-0.2,0.5-0.5,0.9-1,1.1C45.9,301.9,45.4,301.9,44.9,301.8z"/>
	</g>
</g>
<g>
	<g>
		<path class="st0" d="M106.2,32l4.5,29L19.3,99.5L1.7,76l33.7-57.6c1.2-2.1,3.7-3.1,6.1-2.5L106.2,32z"/>
	</g>
	<g>
		<path class="st9" d="M105.2,79.9l-72.5,30.5c-2.3,1-5-0.1-6-2.4l-22-52.3l5.6-5.5l0-8.5l66.9-28.2c2.3-1,5,0.1,6,2.4L107.6,74
			C108.6,76.3,107.5,79,105.2,79.9z"/>
	</g>
	<g>
		<path class="st10" d="M81.3,11.9L75,14.6c2.3-1,5,0.1,6,2.4l24.4,57.9c1,2.3-0.1,5-2.4,6l6.3-2.7c2.3-1,3.4-3.7,2.4-6L87.3,14.3
			C86.3,12,83.6,10.9,81.3,11.9z"/>
	</g>
	<g>
		<polygon class="st2" points="20.9,121.5 1.8,76.1 45.6,79.2 37.6,101.1 		"/>
	</g>
	<g>
		<polygon class="st2" points="125.4,77.5 106.3,32.1 77.8,65.6 100.9,76.3 		"/>
	</g>
	<g>
		<path class="st11" d="M128.3,84.4l-104.5,44l33.7-57.6c1.2-2.1,3.7-3.1,6.1-2.5L128.3,84.4z"/>
	</g>
	<g>
		<path class="st11" d="M128.3,84.4l-104.5,44l33.7-57.6c1.2-2.1,3.7-3.1,6.1-2.5L128.3,84.4z"/>
	</g>
	<g>
		<polygon class="st12" points="45.6,79.2 20.9,121.5 23.8,128.4 65.1,80.5 		"/>
	</g>
	<g>
		<polygon class="st12" points="77.8,65.6 125.4,77.5 128.3,84.4 65.1,80.5 		"/>
	</g>
	<g>
		<path class="st13" d="M93.9,14.3c1.8,4.3,2.4,20.2-8.6,22.5c-8.1,1.7-16.6-2.5-19.9-10.5c-3.3-7.9-0.5-16.8,6.3-21.5
			C80.9-1.5,93.2,12.6,93.9,14.3z"/>
	</g>
	<g>
		<path class="st14" d="M71.8,4.7C79.9,3,88.4,7.3,91.7,15.2c3.3,7.9,0.5,16.9-6.4,21.6c11-2.3,17-14,12.7-24.2
			C93.7,2.3,81.1-1.5,71.8,4.7z"/>
	</g>
	<g>
		<path class="st10" d="M4.7,55.8l8.3-3.5c0.8-0.3,1.2-1.3,0.9-2.1l-3.5-8.4L4.7,55.8z"/>
	</g>
	<g>
		<path class="st3" d="M128.3,84.4l-104.5,44l33.7-57.6c1.2-2.1,3.7-3.1,6.1-2.5L128.3,84.4z"/>
	</g>
	<g>
		<g>
			<path class="st8" d="M2.4,77.6c-0.5,0.2-1,0.2-1.5-0.1C0,77-0.2,75.9,0.2,75.1L7,63.6c0.5-0.8,1.5-1.1,2.3-0.6
				c0.8,0.5,1.1,1.5,0.6,2.3L3.2,76.8C3,77.2,2.7,77.4,2.4,77.6z"/>
		</g>
		<g>
			<path class="st8" d="M106.9,33.6c-0.3,0.1-0.7,0.2-1.1,0.1l-9.6-2.4c-0.9-0.2-1.5-1.2-1.2-2.1c0.2-0.9,1.2-1.5,2.1-1.2l9.6,2.4
				c0.9,0.2,1.5,1.2,1.2,2.1C107.7,32.9,107.4,33.4,106.9,33.6z"/>
		</g>
		<g>
			<path class="st8" d="M61.3,22.2c-0.3,0.1-0.7,0.2-1.1,0.1L41,17.4c-1.6-0.4-3.3,0.3-4.2,1.8l-10,17.1c-0.5,0.8-1.5,1.1-2.3,0.6
				c-0.8-0.5-1.1-1.5-0.6-2.3l10-17.1c1.6-2.7,4.9-4.1,7.9-3.3l19.2,4.8c0.9,0.2,1.5,1.2,1.2,2.1C62.2,21.6,61.8,22,61.3,22.2z"/>
		</g>
		<g>
			<path class="st8" d="M14.1,77.9c-0.9,0.4-1.9,0-2.2-0.9L3.2,56.4C3,56,3,55.5,3.1,55.1l5.6-14c0.2-0.4,0.5-0.8,0.9-0.9l52.9-22.3
				c0.9-0.4,1.9,0,2.2,0.9c0.4,0.9,0,1.9-0.9,2.2l-52.3,22L6.6,55.7L15,75.7C15.3,76.5,14.9,77.5,14.1,77.9z"/>
		</g>
		<g>
			<path class="st8" d="M99,42.3c-0.9,0.4-1.9,0-2.2-0.9L93,32.3c-0.4-0.9,0-1.9,0.9-2.2c0.9-0.4,1.9,0,2.2,0.9l3.8,9.1
				C100.3,40.9,99.9,41.9,99,42.3z"/>
		</g>
		<g>
			<path class="st8" d="M51.9,81.1c-0.2,0.1-0.5,0.1-0.8,0.1L4.4,78l6,14.3c0.4,0.9,0,1.9-0.9,2.2c-0.9,0.4-1.9,0-2.2-0.9L0.2,76.8
				C0,76.3,0,75.6,0.4,75.2c0.3-0.5,0.9-0.8,1.5-0.7l49.5,3.4c0.9,0.1,1.7,0.9,1.6,1.8C52.9,80.4,52.5,80.9,51.9,81.1z"/>
		</g>
		<g>
			<path class="st8" d="M24.4,130c-0.9,0.4-1.9,0-2.2-0.9l-11.9-28.3c-0.4-0.9,0-1.9,0.9-2.2c0.9-0.4,1.9,0,2.2,0.9l11.9,28.3
				C25.7,128.6,25.3,129.6,24.4,130z"/>
		</g>
		<g>
			<path class="st8" d="M129,86c-0.9,0.4-1.9,0-2.2-0.9l-20.9-49.7l-31,36.4c-0.6,0.7-1.7,0.8-2.4,0.2c-0.7-0.6-0.8-1.7-0.2-2.4
				L105,31c0.4-0.5,1-0.7,1.6-0.6c0.6,0.1,1.1,0.5,1.3,1l22,52.3C130.2,84.6,129.8,85.6,129,86z"/>
		</g>
		<g>
			<path class="st8" d="M129,86L24.4,130c-0.7,0.3-1.5,0.1-2-0.4c-0.5-0.6-0.6-1.4-0.2-2L56,69.9c1.6-2.7,4.9-4.1,7.9-3.3l42.4,10.6
				c0.9,0.2,1.5,1.2,1.2,2.1c-0.2,0.9-1.2,1.5-2.1,1.2L63.1,69.9c-1.6-0.4-3.3,0.3-4.2,1.8l-31.1,53.2l95-40l-10.1-2.5
				c-0.9-0.2-1.5-1.2-1.2-2.1s1.2-1.5,2.1-1.2l15.1,3.8c0.7,0.2,1.2,0.8,1.3,1.5C130.1,85,129.6,85.7,129,86z"/>
		</g>
		<g>
			<path class="st8" d="M89.2,37.3C79.4,41.5,68,36.8,63.8,27S64.3,5.7,74.2,1.5c2.2-0.9,4.6-1.4,7-1.5c0.9,0,1.7,0.7,1.8,1.7
				c0,0.9-0.7,1.7-1.7,1.8c-2,0.1-3.9,0.5-5.7,1.3c-8.1,3.4-12,12.8-8.5,21c3.4,8.1,12.8,12,21,8.5c8.1-3.4,12-12.8,8.5-21
				c-1.6-3.9-4.7-6.9-8.6-8.6C87,4.3,86.6,3.3,87,2.4c0.4-0.9,1.4-1.3,2.2-0.9c4.7,2,8.4,5.7,10.4,10.4
				C103.8,21.8,99.1,33.2,89.2,37.3z"/>
		</g>
		<g>
			<g>
				<g>
					<path class="st8" d="M84.3,25c-2.7,1.1-6-0.5-7.3-3.7c-1.3-3.1-0.2-6.5,2.6-7.7c2.7-1.1,5.7,0.3,7,3.5C88,20.4,87,23.8,84.3,25
						z M81,16.8c-0.9,0.4-1.4,1.7-0.8,3.2c0.6,1.5,2,2.2,2.8,1.8c0.8-0.3,1.2-1.7,0.6-3.3C82.9,17.1,81.9,16.4,81,16.8z"/>
				</g>
			</g>
			<g>
				<g>
					<path class="st8" d="M86.3,31C86.3,31,86.3,31,86.3,31c-5.1,2-11,0.4-14.4-4c-4-5.2-3.2-12.7,1.8-17c2.5-2.2,5.8-3.2,9.1-2.9
						c3.3,0.3,6.4,1.9,8.5,4.5c1.6,2,2.3,4.2,2.3,7.1c0,2-0.8,4.4-3.4,5.5c-0.9,0.4-2,0.4-3,0c-1.1-0.4-2-1.3-2.4-2.4l-1.3-3.1
						c-0.4-0.9,0.1-1.9,0.9-2.2c0,0,0,0,0,0c0.9-0.4,1.9,0.1,2.2,0.9l1.3,3.1c0.1,0.2,0.3,0.5,0.6,0.6c0.1,0,0.2,0.1,0.4,0
						c1.2-0.5,1.4-1.8,1.3-2.3c0-2.1-0.5-3.6-1.6-5c-1.5-1.8-3.7-3-6.1-3.2c-2.4-0.2-4.8,0.5-6.6,2.1c-3.6,3.1-4.2,8.5-1.3,12.3
						c2.4,3.2,6.7,4.3,10.4,2.9c0.9-0.3,1.9,0.1,2.2,1C87.6,29.6,87.2,30.6,86.3,31z"/>
				</g>
				<g>
					<path class="st8" d="M92.6,20.2c-0.2,0.1-0.4,0.1-0.6,0.1c-0.9,0-1.7-0.7-1.7-1.7c0-2.1-0.5-3.6-1.6-5
						c-0.6-0.7-0.4-1.8,0.3-2.4c0.7-0.6,1.8-0.4,2.4,0.3c1.5,2,2.2,4.1,2.3,7C93.7,19.3,93.3,19.9,92.6,20.2z"/>
				</g>
			</g>
		</g>
		<g>
			<path class="st8" d="M13.7,53.8l-8.3,3.5c-0.9,0.4-1.9,0-2.2-0.9s0-1.9,0.9-2.2l8.2-3.5l-3.5-8.3c-0.4-0.9,0-1.9,0.9-2.2
				c0.9-0.4,1.9,0,2.2,0.9l3.5,8.4C16.2,51.2,15.4,53.1,13.7,53.8z"/>
		</g>
		<g>
			<g>
				<path class="st8" d="M60.8,38.4L38,48c-0.9,0.4-1.9,0-2.2-0.9c-0.4-0.9,0-1.9,0.9-2.2l22.9-9.6c0.9-0.4,1.9,0,2.2,0.9
					C62.1,37,61.7,38,60.8,38.4z"/>
			</g>
			<g>
				<path class="st8" d="M79.6,45.2L42.9,60.7c-0.9,0.4-1.9,0-2.2-0.9s0-1.9,0.9-2.2l36.7-15.5c0.9-0.4,1.9,0,2.2,0.9
					C80.9,43.9,80.5,44.9,79.6,45.2z"/>
			</g>
			<g>
				<path class="st8" d="M64,59.5L32.5,72.7c-0.9,0.4-1.9,0-2.2-0.9c-0.4-0.9,0-1.9,0.9-2.2l31.4-13.2c0.9-0.4,1.9,0,2.2,0.9
					C65.3,58.1,64.9,59.1,64,59.5z"/>
			</g>
			<g>
				<path class="st8" d="M36.3,63.5l-6.5,2.8c-0.9,0.4-1.9,0-2.2-0.9s0-1.9,0.9-2.2l6.5-2.8c0.9-0.4,1.9,0,2.2,0.9
					S37.2,63.1,36.3,63.5z"/>
			</g>
			<g>
				<path class="st8" d="M82.4,51.8l-11.8,5c-0.9,0.4-1.9,0-2.2-0.9c-0.4-0.9,0-1.9,0.9-2.2l11.8-5c0.9-0.4,1.9,0,2.2,0.9
					C83.6,50.4,83.2,51.4,82.4,51.8z"/>
			</g>
		</g>
	</g>
</g>
<g>
	<g>
		<path class="st0" d="M116.2,487.2L99.7,508L18,471l4.8-26.1l59-13.1c2.1-0.5,4.4,0.5,5.4,2.5L116.2,487.2z"/>
	</g>
	<g>
		<polygon class="st2" points="4.3,485.6 22.7,445 47.6,476 28.1,484.1 		"/>
	</g>
	<g>
		<polygon class="st2" points="97.8,527.9 116.1,487.3 76.4,489 83.6,510.9 		"/>
	</g>
	<g>
		<path class="st11" d="M95,534.1L1.5,491.7l59-13.1c2.1-0.5,4.4,0.5,5.4,2.5L95,534.1z"/>
	</g>
	<g>
		<path class="st11" d="M95,534.1L1.5,491.7l59-13.1c2.1-0.5,4.4,0.5,5.4,2.5L95,534.1z"/>
	</g>
	<g>
		<polygon class="st12" points="47.6,476 4.3,485.6 1.5,491.7 58.7,489.8 		"/>
	</g>
	<g>
		<polygon class="st12" points="76.4,489 97.8,527.9 95,534.1 58.7,489.8 		"/>
	</g>
	<g>
		<path class="st3" d="M95,534.1L1.5,491.7l59-13.1c2.1-0.5,4.4,0.5,5.4,2.5L95,534.1z"/>
	</g>
	<g>
		<path class="st8" d="M22.1,446.3c-0.4-0.2-0.8-0.6-0.9-1.1c-0.2-0.8,0.3-1.7,1.2-1.8l11.8-2.6c0.8-0.2,1.7,0.3,1.8,1.2
			c0.2,0.8-0.3,1.7-1.2,1.8l-11.8,2.6C22.8,446.5,22.4,446.4,22.1,446.3z"/>
	</g>
	<g>
		<path class="st8" d="M115.6,488.6c-0.3-0.1-0.5-0.4-0.7-0.7l-4.3-7.9c-0.4-0.7-0.1-1.7,0.6-2.1c0.7-0.4,1.7-0.1,2.1,0.6l4.3,7.9
			c0.4,0.7,0.1,1.7-0.6,2.1C116.5,488.8,116,488.8,115.6,488.6z"/>
	</g>
	<g>
		<path class="st8" d="M63.6,437.1c-0.4-0.2-0.8-0.6-0.9-1.1c-0.2-0.8,0.3-1.7,1.2-1.8l17.5-3.9c2.8-0.6,5.7,0.7,7.1,3.2l8.6,15.7
			c0.4,0.7,0.1,1.7-0.6,2.1c-0.7,0.4-1.7,0.1-2.1-0.6L85.8,435c-0.7-1.3-2.3-2-3.7-1.7l-17.5,3.9C64.2,437.3,63.9,437.2,63.6,437.1z
			"/>
	</g>
	<g>
		<path class="st8" d="M50.2,481.4c-0.2-0.1-0.4-0.2-0.6-0.4l-26.6-33l-5.8,12.8c-0.4,0.8-1.3,1.1-2,0.8c-0.8-0.4-1.1-1.3-0.8-2
			l6.8-15.1c0.2-0.5,0.7-0.8,1.2-0.9c0.5-0.1,1.1,0.1,1.4,0.6l28.1,35c0.5,0.7,0.4,1.6-0.2,2.2C51.4,481.6,50.7,481.6,50.2,481.4z"
			/>
	</g>
	<g>
		<path class="st8" d="M0.9,493.1c-0.8-0.4-1.1-1.3-0.8-2l11.5-25.3c0.4-0.8,1.3-1.1,2-0.8s1.1,1.3,0.8,2L3,492.4
			C2.6,493.1,1.7,493.5,0.9,493.1z"/>
	</g>
	<g>
		<path class="st8" d="M94.3,535.5c-0.8-0.4-1.1-1.3-0.8-2l20.1-44.4l-43.2,1.8c-0.9,0-1.6-0.6-1.6-1.5c0-0.9,0.6-1.6,1.5-1.6
			l45.7-1.9c0.5,0,1,0.2,1.3,0.7c0.3,0.4,0.3,1,0.1,1.5l-21.2,46.7C96,535.5,95.1,535.8,94.3,535.5z"/>
	</g>
	<g>
		<path class="st8" d="M94.3,535.5L0.9,493.1c-0.6-0.3-1-0.9-0.9-1.6c0.1-0.7,0.6-1.2,1.2-1.4l59-13.1c2.8-0.6,5.7,0.7,7.1,3.2
			l19,34.6c0.4,0.7,0.1,1.7-0.6,2.1c-0.8,0.4-1.7,0.1-2.1-0.6l-19-34.6c-0.7-1.3-2.3-2-3.7-1.7L6.4,492.2l85,38.5l-4.5-8.3
			c-0.4-0.7-0.1-1.7,0.6-2.1c0.7-0.4,1.7-0.1,2.1,0.6l6.8,12.3c0.3,0.6,0.2,1.3-0.2,1.8C95.6,535.6,94.9,535.7,94.3,535.5z"/>
	</g>
	<g>
		<g>
			<g>
				<path class="st7" d="M118.6,455.8L104,488.1l-45.5,7.7c-1.6,0.3-3.2-0.5-4-1.8l-24.2-39.3l14.6-32.2c2.1-4.5,7.6-6.5,12.3-4.4
					l56.6,25.7C118.5,445.9,120.6,451.3,118.6,455.8z"/>
			</g>
		</g>
		<g>
			<g>
				<path class="st15" d="M106.3,483l-2.3,5.1l-45.5,7.7c-1.6,0.3-3.2-0.5-4-1.8l-24.2-39.3l14.6-32.2c2.1-4.5,7.6-6.5,12.3-4.4
					l30,17c-12.4-1.7-22.2,0.5-25,6.8c-4.5,10,10.3,26.6,33.2,36.9C99,480.5,102.7,481.9,106.3,483z"/>
			</g>
		</g>
		<g>
			<g>
				<path class="st13" d="M114.5,464.9l4.1-9c2.1-4.5-0.1-10-4.8-12.1l-56.6-25.7c-4.7-2.1-10.2-0.2-12.3,4.4l-4.1,9L114.5,464.9z"
					/>
			</g>
		</g>
		<g>
			<g>
				<path class="st14" d="M117.5,458.2l-3,6.7l-73.8-33.4l4.1-9c2.1-4.5,7.6-6.5,12.3-4.4l3.2,1.5c-0.8,7.2,16.2,24.2,41.1,35.5
					C106.5,457.3,112.8,456.5,117.5,458.2z"/>
			</g>
		</g>
		<g>
			<g>
				<path class="st8" d="M55.7,496.5c-0.9-0.4-1.7-1.1-2.3-2l-24.2-39.3c-0.2-0.3-0.2-0.7-0.1-1.1l14.6-32.2
					c2.3-5.1,8.6-7.3,13.9-4.9l56.6,25.7c5.3,2.4,7.8,8.6,5.5,13.7l-14.6,32.2c-0.2,0.3-0.5,0.6-0.9,0.7l-45.5,7.7
					C57.7,497.1,56.6,496.9,55.7,496.5L55.7,496.5z M31.6,454.6l23.9,38.7c0.6,0.9,1.7,1.4,2.7,1.2l44.9-7.6l14.4-31.7
					c1.8-3.9-0.1-8.7-4.2-10.5l-56.6-25.7c-4.1-1.9-8.9-0.2-10.7,3.8L31.6,454.6z"/>
			</g>
		</g>
		<g>
			<g>
				<path class="st8" d="M114,465.9l-73.8-33.4c-0.6-0.3-0.9-1-0.6-1.6l4.1-9c2.3-5.1,8.6-7.3,13.9-4.9l56.6,25.7
					c5.3,2.4,7.8,8.6,5.5,13.7l-4.1,9C115.3,466,114.6,466.2,114,465.9z M42.3,430.9l71.5,32.4l3.6-8c1.8-3.9-0.1-8.7-4.2-10.5
					l-56.6-25.7c-4.1-1.9-8.9-0.2-10.7,3.8L42.3,430.9z"/>
			</g>
		</g>
		<g>
			<g>
				<path class="st8" d="M75.4,457.7l-27.9-12.6c-0.6-0.3-0.9-1-0.6-1.6c0.3-0.6,1-0.8,1.6-0.6l27.9,12.6c0.6,0.3,0.9,1,0.6,1.6
					C76.7,457.7,76,458,75.4,457.7z"/>
			</g>
		</g>
		<g>
			<g>
				<path class="st8" d="M83,469.3l-38.6-17.5c-0.6-0.3-0.9-1-0.6-1.6c0.3-0.6,1-0.8,1.6-0.6L84,467.2c0.6,0.3,0.9,1,0.6,1.6
					C84.3,469.4,83.6,469.6,83,469.3z"/>
			</g>
		</g>
		<g>
			<g>
				<path class="st8" d="M69.2,471.3l-27.9-12.6c-0.6-0.3-0.9-1-0.6-1.6c0.3-0.6,1-0.8,1.6-0.6l27.9,12.6c0.6,0.3,0.9,1,0.6,1.6
					C70.5,471.3,69.8,471.5,69.2,471.3z"/>
			</g>
		</g>
		<g>
			<g>
				<g>
					<path class="st7" d="M59.8,429.7c-0.9,2-3.4,2.9-5.5,1.9c-2.1-1-3.1-3.4-2.2-5.4c0.9-2,3.4-2.9,5.5-1.9
						C59.7,425.2,60.7,427.6,59.8,429.7z"/>
				</g>
			</g>
			<g>
				<g>
					<path class="st15" d="M59.6,430c-1,1.8-3.3,2.5-5.3,1.6c-2.1-1-3.1-3.4-2.2-5.4c0.9-1.9,3.1-2.8,5.1-2.1
						c-0.1,0.1-0.1,0.2-0.2,0.3c-0.9,2,0.1,4.5,2.2,5.4C59.4,429.9,59.5,430,59.6,430L59.6,430z"/>
				</g>
			</g>
			<g>
				<g>
					<path class="st8" d="M53.8,432.7c-2.7-1.2-4-4.4-2.8-7c1.2-2.6,4.4-3.7,7.1-2.5s4,4.4,2.8,7C59.7,432.8,56.5,433.9,53.8,432.7z
						 M57.1,425.3c-1.5-0.7-3.2-0.1-3.9,1.4c-0.6,1.4,0,3.2,1.5,3.8c1.5,0.7,3.3,0.1,3.9-1.4C59.3,427.7,58.6,426,57.1,425.3z"/>
				</g>
			</g>
		</g>
		<g>
			<g>
				<g>
					<path class="st7" d="M72.8,435.6c-0.9,2-3.4,2.9-5.5,1.9c-2.1-1-3.1-3.4-2.2-5.4c0.9-2,3.4-2.9,5.5-1.9
						C72.7,431.1,73.7,433.5,72.8,435.6z"/>
				</g>
			</g>
			<g>
				<g>
					<path class="st15" d="M72.6,435.9c-1,1.8-3.3,2.5-5.3,1.6c-2.1-1-3.1-3.4-2.2-5.4c0.9-1.9,3.1-2.8,5.1-2.1
						c-0.1,0.1-0.1,0.2-0.2,0.3c-0.9,2,0.1,4.5,2.2,5.4C72.4,435.8,72.5,435.8,72.6,435.9z"/>
				</g>
			</g>
			<g>
				<g>
					<path class="st8" d="M66.8,438.6c-2.7-1.2-4-4.4-2.8-7c1.2-2.6,4.4-3.7,7.1-2.5c2.7,1.2,4,4.4,2.8,7
						C72.7,438.7,69.5,439.8,66.8,438.6z M70.1,431.2c-1.5-0.7-3.2-0.1-3.9,1.4c-0.6,1.4,0,3.2,1.5,3.8c1.5,0.7,3.3,0.1,3.9-1.4
						C72.3,433.6,71.6,431.9,70.1,431.2z"/>
				</g>
			</g>
		</g>
		<g>
			<g>
				<g>
					<path class="st7" d="M85.8,441.5c-0.9,2-3.4,2.9-5.5,1.9c-2.1-1-3.1-3.4-2.2-5.4c0.9-2,3.4-2.9,5.5-1.9
						C85.8,437,86.7,439.4,85.8,441.5z"/>
				</g>
			</g>
			<g>
				<g>
					<path class="st15" d="M85.6,441.8c-1,1.8-3.3,2.5-5.3,1.6c-2.1-1-3.1-3.4-2.2-5.4c0.9-1.9,3.1-2.8,5.1-2.1
						c-0.1,0.1-0.1,0.2-0.2,0.3c-0.9,2,0.1,4.5,2.2,5.4C85.4,441.7,85.5,441.7,85.6,441.8L85.6,441.8z"/>
				</g>
			</g>
			<g>
				<g>
					<path class="st8" d="M79.8,444.5c-2.7-1.2-4-4.4-2.8-7c1.2-2.6,4.4-3.7,7.1-2.5c2.7,1.2,4,4.4,2.8,7
						C85.7,444.6,82.5,445.7,79.8,444.5z M83.1,437.1c-1.5-0.7-3.2-0.1-3.9,1.4c-0.6,1.4,0,3.2,1.5,3.8s3.3,0.1,3.9-1.4
						C85.3,439.5,84.6,437.8,83.1,437.1z"/>
				</g>
			</g>
		</g>
	</g>
	<g>
		<g>
			<g>
				<g>
					<circle class="st9" cx="114.8" cy="461.2" r="13.7"/>
				</g>
			</g>
		</g>
		<g>
			<g>
				<g>
					<g>
						<path class="st8" d="M107.4,463.9c-0.4-0.2-0.7-0.5-0.8-0.9l-1.6-5c-0.2-0.7,0.1-1.5,0.8-1.8l4.8-2.1c0.7-0.3,1.6,0,1.9,0.7
							c0.3,0.7,0,1.6-0.7,1.9l-3.6,1.6l1.2,3.8c0.2,0.8-0.2,1.6-1,1.8C108.1,464,107.7,464,107.4,463.9z"/>
					</g>
				</g>
			</g>
			<g>
				<g>
					<g>
						<path class="st8" d="M117.7,468.5c-0.3-0.1-0.6-0.4-0.7-0.7c-0.3-0.7,0-1.6,0.7-1.9l3.6-1.6l-1.2-3.8c-0.2-0.8,0.2-1.6,1-1.8
							c0.8-0.2,1.6,0.2,1.8,1l1.6,5c0.2,0.7-0.1,1.5-0.8,1.8l-4.8,2.1C118.5,468.7,118.1,468.7,117.7,468.5z"/>
					</g>
				</g>
			</g>
			<g>
				<g>
					<g>
						<path class="st8" d="M111.1,465.4c-0.2-0.1-0.3-0.2-0.5-0.4c-0.5-0.6-0.5-1.5,0.1-2.1l6.3-5.7c0.6-0.5,1.5-0.5,2.1,0.1
							c0.5,0.6,0.5,1.5-0.1,2.1l-6.3,5.7C112.2,465.5,111.6,465.6,111.1,465.4L111.1,465.4z"/>
					</g>
				</g>
			</g>
		</g>
		<g>
			<g>
				<g>
					<path class="st8" d="M108.5,475.1c-7.6-3.5-11-12.5-7.6-20.1c3.5-7.6,12.5-11,20.1-7.6c7.6,3.5,11,12.5,7.6,20.1
						C125.2,475.2,116.2,478.6,108.5,475.1z M119.9,450.1c-6.2-2.8-13.5-0.1-16.2,6.1c-2.8,6.2-0.1,13.5,6.1,16.2
						c6.2,2.8,13.5,0.1,16.2-6.1C128.8,460.1,126,452.9,119.9,450.1z"/>
				</g>
			</g>
		</g>
	</g>
</g>
</svg>
