<?xml version="1.0" encoding="utf-8"?>
<!-- Generator: Adobe Illustrator 25.0.0, SVG Export Plug-In . SVG Version: 6.00 Build 0)  -->
<svg version="1.1" id="Layer_1" xmlns="http://www.w3.org/2000/svg" xmlns:xlink="http://www.w3.org/1999/xlink" x="0px" y="0px"
	 viewBox="0 0 130 535.6" style="enable-background:new 0 0 130 535.6;" xml:space="preserve">
<style type="text/css">
	.st0{fill:#87796F;}
	.st1{fill:#FFF2E8;}
	.st2{fill:#FEDA9B;}
	.st3{fill:#FFB954;}
	.st4{fill:#FF5D5D;}
	.st5{fill:#FF5A5A;}
	.st6{fill:#C1A897;}
	.st7{fill:#FFFFFF;}
	.st8{fill:#35414D;}
	.st9{fill:#F0FCFF;}
	.st10{fill:#D7ECFE;}
	.st11{fill:#FFBD63;}
	.st12{fill:#EAC892;}
	.st13{fill:#FF7E8E;}
	.st14{fill:#F45175;}
	.st15{fill:#EAEBEC;}
</style>
<g>
	<g>
		<g>
			<path class="st0" d="M90,227.5l18.4,6.1l19.6,52.4c1.8,4.8-0.7,10.2-5.5,12.1l-87.8,32.7c-4.8,1.8-10.2-0.7-12.1-5.5L3,272.8
				l10-16.3"/>
		</g>
		<g>
			
				<rect x="14.2" y="206.3" transform="matrix(0.937 -0.3494 0.3494 0.937 -83.8784 34.7777)" class="st1" width="80.4" height="87.1"/>
		</g>
		<g>
			<path class="st2" d="M55.7,297l29.9-11.1l22.8-52.3l19.6,52.4c1.8,4.8-0.7,10.2-5.5,12.1l-87.8,32.7c-4.8,1.8-10.2-0.7-12.1-5.5
				L3,272.8L55.7,297z"/>
		</g>
		<g>
			<path class="st3" d="M123.3,296l-41.6-16.6c-10.9-4.4-23.3,0.3-28.7,10.7l-20.5,39.8L123.3,296z"/>
		</g>
		<g>
			<g>
				<path class="st4" d="M27,242.9c-3.7-1.7-5.4-6.1-3.7-9.8c1.7-3.7,6.1-5.4,9.8-3.7L27,242.9z"/>
			</g>
			<g>
				<path class="st5" d="M59.5,260.6l11.1,5.1c5,2.3,11,0.1,13.3-5l0,0c2.3-5,0.1-11-5-13.3l-11.1-5.1L59.5,260.6z"/>
			</g>
		</g>
		<g>
			<polygon class="st0" points="59.5,260.6 53.6,273.6 61.4,277.1 67.4,264.2 			"/>
		</g>
		<g>
			<polygon class="st6" points="59.5,260.6 67.8,242.3 40.5,213.5 19.8,258.8 			"/>
		</g>
		<g>
			<polygon class="st7" points="30,259.2 19.8,258.8 40.5,213.5 47.5,220.9 			"/>
		</g>
		<g>
			<path class="st8" d="M56.6,217.8c0.4-0.1,0.7-0.4,0.8-0.8c0.2-0.4,0.2-0.8,0-1.2s-0.4-0.7-0.8-0.8c-0.4-0.2-0.8-0.2-1.2,0
				c-0.4,0.1-0.7,0.4-0.8,0.8s-0.2,0.8,0,1.2c0.1,0.4,0.4,0.7,0.8,0.8S56.3,218,56.6,217.8z"/>
		</g>
		<g>
			<path class="st8" d="M73.2,211.7c0.8-0.3,1.2-1.2,0.9-1.9c-0.3-0.8-1.2-1.2-1.9-0.9l-8.6,3.2c-0.8,0.3-1.2,1.2-0.9,1.9
				c0.3,0.8,1.2,1.2,1.9,0.9L73.2,211.7z"/>
		</g>
		<g>
			<path class="st8" d="M77.6,223.7c0.8-0.3,1.2-1.2,0.9-1.9c-0.3-0.8-1.2-1.2-1.9-0.9l-10.3,3.8c-0.8,0.3-1.2,1.2-0.9,1.9
				c0.3,0.8,1.2,1.2,1.9,0.9L77.6,223.7z"/>
		</g>
		<g>
			<path class="st8" d="M35.2,332.2c-5.6,2.1-11.9-0.8-14-6.4L1.6,273.3c-0.2-0.4-0.1-0.9,0.1-1.3l0.4-0.6l9.6-15.7l0,0l0.2-0.3
				l-1-2.6c-0.3-0.8,0.1-1.6,0.9-1.9c0.8-0.3,1.6,0.1,1.9,0.9l10.8,29l0,0l0.1,0.3l25.3,11.6l1.7-3.3c2-3.9,5.1-7.3,8.9-9.6l1.3-0.8
				l-9-4.1c-0.8-0.3-1.1-1.2-0.7-2l5-10.9l-37.5-1.7c-0.5,0-1-0.3-1.2-0.7c-0.3-0.4-0.3-1-0.1-1.4l6.7-14.6l-0.5-0.4
				c-1.3-1-2.3-2.4-2.8-3.9c-0.8-2.2-0.7-4.7,0.2-6.8c1-2.2,2.8-3.8,5-4.7c1.5-0.6,3.2-0.7,4.8-0.4l0.6,0.1l6.7-14.6
				c0.2-0.4,0.5-0.6,0.8-0.8c0.1,0,0.2-0.1,0.3-0.1c0.5-0.1,1,0.1,1.3,0.4l27.2,28.6l10.8,4.9c2.8,1.3,4.9,3.6,6,6.5
				c1.1,2.9,1,6-0.3,8.8s-3.6,4.9-6.5,6s-6,1-8.8-0.3l-1.8-0.8l-5.7,12.6l1.8-0.7c0.2-0.1,0.4-0.2,0.7-0.3c5.7-2.1,11.9-2,17.5,0.2
				l3.4,1.4L97.3,254l-0.1-0.3c0,0,0,0,0,0c0,0,0,0,0,0L76,197l-24.7,9.2c-0.8,0.3-1.6-0.1-1.9-0.9s0.1-1.6,0.9-1.9l26.1-9.7
				c0.8-0.3,1.6,0.1,1.9,0.9L90,225.9l0.4,0.1l0,0l18.4,6.1c0.4,0.1,0.8,0.5,0.9,0.9l19.6,52.4c2.1,5.6-0.8,11.9-6.4,14L35.2,332.2z
				 M109.7,292.2l-16,6c-0.8,0.3-1.6-0.1-1.9-0.9c-0.3-0.8,0.1-1.6,0.9-1.9l12.9-4.8l-24.4-9.7c-4.9-2-10.4-2-15.3-0.2
				c-4.9,1.8-9,5.5-11.4,10.2l-19.8,38.4l86.7-32.4L109.7,292.2z M5.7,275.7l18.3,49c1,2.7,3.5,4.7,6.4,5l0.6,0.1l0.2-0.6
				c0-0.1,0-0.1,0.1-0.2l17.4-33.8L5.7,275.7z M108.2,237.5l-19.6,43l35.3,14.1c0.1,0,0.1,0,0.2,0.1l0.5,0.3l0.4-0.5
				c1.9-2.2,2.5-5.2,1.5-8L108.2,237.5z M60.2,262.6l-4.7,10.2l5.1,2.3l4.7-10.2L60.2,262.6z M68.6,244.3l-7.1,15.5l9.7,4.4
				c2.1,0.9,4.4,1,6.5,0.2c2.1-0.8,3.8-2.4,4.8-4.5c0.9-2.1,1-4.4,0.2-6.5c-0.8-2.1-2.4-3.8-4.5-4.8L68.6,244.3z M13.3,259
				l-8.1,13.2l15.7,7.2L13.3,259z M91.4,229.5l7.7,20.7l7.2-15.7L91.4,229.5z M47.9,223.6l-15.7,34.3l26.3,1.2l7.5-16.4L47.9,223.6z
				 M40.9,216.2l-18.8,41.2l6.9,0.3l16.7-36.5L40.9,216.2z M24.7,233.7c-0.7,1.4-0.7,3-0.2,4.5c0.2,0.6,0.5,1.2,1,1.7l0.8,1
				l4.9-10.7l-1.3,0c-0.6,0-1.3,0.1-1.9,0.4C26.6,231.1,25.4,232.2,24.7,233.7z"/>
		</g>
		<g>
			<path class="st5" d="M13.9,230.1c0.4-0.1,0.7-0.4,0.8-0.8c0.3-0.8,0-1.6-0.7-2l-11.9-5.4c-0.4-0.2-0.8-0.2-1.2,0
				c-0.4,0.1-0.7,0.4-0.8,0.8c-0.3,0.8,0,1.6,0.7,2l11.9,5.4C13.1,230.2,13.5,230.2,13.9,230.1z"/>
		</g>
		<g>
			<path class="st5" d="M20.3,222.6c0.8-0.3,1.2-1.2,0.9-1.9l-1.6-4.3c-0.3-0.8-1.2-1.2-1.9-0.9c-0.8,0.3-1.2,1.2-0.9,1.9l1.6,4.3
				C18.7,222.5,19.5,222.9,20.3,222.6z"/>
		</g>
		<g>
			<path class="st5" d="M12.6,239.5c0.8-0.3,1.2-1.2,0.9-1.9c-0.3-0.8-1.2-1.2-1.9-0.9l-4.4,1.7c-0.8,0.3-1.2,1.2-0.9,1.9
				c0.3,0.8,1.2,1.2,1.9,0.9L12.6,239.5z"/>
		</g>
		<g>
			<path class="st8" d="M85.1,301.8c0.5-0.2,0.9-0.5,1.1-1c0.2-0.5,0.2-1,0-1.4c-0.2-0.5-0.5-0.9-1-1.1c-0.5-0.2-1-0.2-1.5-0.1
				c-0.5,0.2-0.9,0.5-1.1,1c-0.2,0.5-0.2,1-0.1,1.4c0.2,0.5,0.5,0.9,1,1.1C84.1,301.9,84.6,301.9,85.1,301.8z"/>
		</g>
	</g>
	<g>
		<g>
			<path class="st0" d="M23.8,32l-4.5,29l91.4,38.5L128.3,76L94.6,18.3c-1.2-2.1-3.7-3.1-6.1-2.5L23.8,32z"/>
		</g>
		<g>
			<path class="st9" d="M24.8,79.9l72.5,30.5c2.3,1,5-0.1,6-2.4l22-52.3l-5.6-5.5l0-8.5L52.7,13.6c-2.3-1-5,0.1-6,2.4L22.4,74
				C21.4,76.3,22.5,79,24.8,79.9z"/>
		</g>
		<g>
			<path class="st10" d="M48.7,11.9l6.3,2.7c-2.3-1-5,0.1-6,2.4L24.7,74.9c-1,2.3,0.1,5,2.4,6l-6.3-2.7c-2.3-1-3.4-3.7-2.4-6
				l24.4-57.9C43.7,12,46.4,10.9,48.7,11.9z"/>
		</g>
		<g>
			<polygon class="st2" points="109.1,121.5 128.2,76.1 84.4,79.2 92.4,101.1 			"/>
		</g>
		<g>
			<polygon class="st2" points="4.6,77.5 23.7,32.1 52.2,65.6 29.1,76.3 			"/>
		</g>
		<g>
			<path class="st11" d="M1.7,84.4l104.5,44L72.5,70.8c-1.2-2.1-3.7-3.1-6.1-2.5L1.7,84.4z"/>
		</g>
		<g>
			<path class="st11" d="M1.7,84.4l104.5,44L72.5,70.8c-1.2-2.1-3.7-3.1-6.1-2.5L1.7,84.4z"/>
		</g>
		<g>
			<polygon class="st12" points="84.4,79.2 109.1,121.5 106.2,128.4 64.9,80.5 			"/>
		</g>
		<g>
			<polygon class="st12" points="52.2,65.6 4.6,77.5 1.7,84.4 64.9,80.5 			"/>
		</g>
		<g>
			<path class="st10" d="M125.3,55.8l-8.3-3.5c-0.8-0.3-1.2-1.3-0.9-2.1l3.5-8.4L125.3,55.8z"/>
		</g>
		<g>
			<path class="st3" d="M1.7,84.4l104.5,44L72.5,70.8c-1.2-2.1-3.7-3.1-6.1-2.5L1.7,84.4z"/>
		</g>
		<g>
			<path class="st8" d="M127.6,77.6c0.5,0.2,1,0.2,1.5-0.1c0.8-0.5,1.1-1.5,0.6-2.3L123,63.6c-0.5-0.8-1.5-1.1-2.3-0.6
				c-0.8,0.5-1.1,1.5-0.6,2.3l6.8,11.6C127,77.2,127.3,77.4,127.6,77.6z"/>
		</g>
		<g>
			<path class="st8" d="M23.1,33.6c0.3,0.1,0.7,0.2,1.1,0.1l9.6-2.4c0.9-0.2,1.5-1.2,1.2-2.1c-0.2-0.9-1.2-1.5-2.1-1.2l-9.6,2.4
				c-0.9,0.2-1.5,1.2-1.2,2.1C22.3,32.9,22.6,33.4,23.1,33.6z"/>
		</g>
		<g>
			<path class="st8" d="M68.7,22.2c0.3,0.1,0.7,0.2,1.1,0.1L89,17.4c1.6-0.4,3.3,0.3,4.2,1.8l10,17.1c0.5,0.8,1.5,1.1,2.3,0.6
				c0.8-0.5,1.1-1.5,0.6-2.3l-10-17.1c-1.6-2.7-4.9-4.1-7.9-3.3l-19.2,4.8c-0.9,0.2-1.5,1.2-1.2,2.1C67.8,21.6,68.2,22,68.7,22.2z"
				/>
		</g>
		<g>
			<path class="st8" d="M115.9,77.9c0.9,0.4,1.9,0,2.2-0.9l8.7-20.6c0.2-0.4,0.2-0.9,0-1.3l-5.6-14c-0.2-0.4-0.5-0.8-0.9-0.9
				L67.4,17.9c-0.9-0.4-1.9,0-2.2,0.9c-0.4,0.9,0,1.9,0.9,2.2l52.3,22l5.1,12.7L115,75.7C114.7,76.5,115.1,77.5,115.9,77.9z"/>
		</g>
		<g>
			<path class="st8" d="M31,42.3c0.9,0.4,1.9,0,2.2-0.9l3.8-9.1c0.4-0.9,0-1.9-0.9-2.2c-0.9-0.4-1.9,0-2.2,0.9L30.1,40
				C29.7,40.9,30.1,41.9,31,42.3z"/>
		</g>
		<g>
			<path class="st8" d="M78.1,81.1c0.2,0.1,0.5,0.1,0.8,0.1l46.7-3.2l-6,14.3c-0.4,0.9,0,1.9,0.9,2.2c0.9,0.4,1.9,0,2.2-0.9
				l7.1-16.9c0.2-0.5,0.2-1.2-0.2-1.7c-0.3-0.5-0.9-0.8-1.5-0.7l-49.5,3.4c-0.9,0.1-1.7,0.9-1.6,1.8C77.1,80.4,77.5,80.9,78.1,81.1z
				"/>
		</g>
		<g>
			<path class="st8" d="M105.6,130c0.9,0.4,1.9,0,2.2-0.9l11.9-28.3c0.4-0.9,0-1.9-0.9-2.2c-0.9-0.4-1.9,0-2.2,0.9l-11.9,28.3
				C104.3,128.6,104.7,129.6,105.6,130z"/>
		</g>
		<g>
			<path class="st8" d="M1,86c0.9,0.4,1.9,0,2.2-0.9l20.9-49.7l31,36.4c0.6,0.7,1.7,0.8,2.4,0.2c0.7-0.6,0.8-1.7,0.2-2.4L25,31
				c-0.4-0.5-1-0.7-1.6-0.6c-0.6,0.1-1.1,0.5-1.3,1l-22,52.3C-0.2,84.6,0.2,85.6,1,86z"/>
		</g>
		<g>
			<path class="st8" d="M1,86l104.5,44c0.7,0.3,1.5,0.1,2-0.4c0.5-0.6,0.6-1.4,0.2-2L74,69.9c-1.6-2.7-4.9-4.1-7.9-3.3L23.7,77.1
				c-0.9,0.2-1.5,1.2-1.2,2.1c0.2,0.9,1.2,1.5,2.1,1.2l42.4-10.6c1.6-0.4,3.3,0.3,4.2,1.8l31.1,53.2l-95-40l10.1-2.5
				c0.9-0.2,1.5-1.2,1.2-2.1c-0.2-0.9-1.2-1.5-2.1-1.2L1.3,82.7c-0.7,0.2-1.2,0.8-1.3,1.5C-0.1,85,0.4,85.7,1,86z"/>
		</g>
		<g>
			<g>
				<path class="st13" d="M60.5,14.3c1.8,4.3,2.4,20.2-8.6,22.5c-8.1,1.7-16.6-2.5-19.9-10.5c-3.3-7.9-0.5-16.8,6.3-21.5
					C47.5-1.5,59.7,12.6,60.5,14.3z"/>
			</g>
			<g>
				<path class="st14" d="M38.4,4.7C46.5,3,55,7.3,58.3,15.2c3.3,7.9,0.5,16.9-6.4,21.6c11-2.3,17-14,12.7-24.2
					C60.3,2.3,47.7-1.5,38.4,4.7z"/>
			</g>
			<g>
				<g>
					<path class="st8" d="M55.8,37.3C46,41.5,34.5,36.8,30.4,27S30.9,5.7,40.8,1.5c2.2-0.9,4.6-1.4,7-1.5c0.9,0,1.7,0.7,1.8,1.7
						c0,0.9-0.7,1.7-1.7,1.8c-2,0.1-3.9,0.5-5.7,1.3c-8.1,3.4-12,12.8-8.5,21c3.4,8.1,12.8,12,21,8.5c8.1-3.4,12-12.8,8.5-21
						c-1.6-3.9-4.7-6.9-8.6-8.6c-0.9-0.4-1.3-1.4-0.9-2.2c0.4-0.9,1.4-1.3,2.2-0.9c4.7,2,8.4,5.7,10.4,10.4
						C70.4,21.8,65.7,33.2,55.8,37.3z"/>
				</g>
				<g>
					<g>
						<g>
							<path class="st8" d="M50.9,25c-2.7,1.1-6-0.5-7.3-3.7c-1.3-3.1-0.2-6.5,2.6-7.7c2.7-1.1,5.7,0.3,7,3.5
								C54.6,20.4,53.6,23.8,50.9,25z M47.6,16.8c-0.9,0.4-1.4,1.7-0.8,3.2c0.6,1.5,2,2.2,2.8,1.8c0.8-0.3,1.2-1.7,0.6-3.3
								C49.5,17.1,48.5,16.4,47.6,16.8z"/>
						</g>
					</g>
					<g>
						<g>
							<path class="st8" d="M52.9,31C52.9,31,52.9,31,52.9,31c-5.1,2-11,0.4-14.4-4c-4-5.2-3.2-12.7,1.8-17c2.5-2.2,5.8-3.2,9.1-2.9
								c3.3,0.3,6.4,1.9,8.5,4.5c1.6,2,2.3,4.2,2.3,7.1c0,2-0.8,4.4-3.4,5.5c-0.9,0.4-2,0.4-3,0c-1.1-0.4-2-1.3-2.4-2.4l-1.3-3.1
								c-0.4-0.9,0.1-1.9,0.9-2.2c0,0,0,0,0,0c0.9-0.4,1.9,0.1,2.2,0.9l1.3,3.1c0.1,0.2,0.3,0.5,0.6,0.6c0.1,0,0.2,0.1,0.4,0
								c1.2-0.5,1.4-1.8,1.3-2.3c0-2.1-0.5-3.6-1.6-5c-1.5-1.8-3.7-3-6.1-3.2c-2.4-0.2-4.8,0.5-6.6,2.1c-3.6,3.1-4.2,8.5-1.3,12.3
								c2.4,3.2,6.7,4.3,10.4,2.9c0.9-0.3,1.9,0.1,2.2,1C54.2,29.6,53.8,30.6,52.9,31z"/>
						</g>
						<g>
							<path class="st8" d="M59.2,20.2c-0.2,0.1-0.4,0.1-0.6,0.1c-0.9,0-1.7-0.7-1.7-1.7c0-2.1-0.5-3.6-1.6-5
								c-0.6-0.7-0.4-1.8,0.3-2.4c0.7-0.6,1.8-0.4,2.4,0.3c1.5,2,2.2,4.1,2.3,7C60.3,19.3,59.8,19.9,59.2,20.2z"/>
						</g>
					</g>
				</g>
			</g>
		</g>
		<g>
			<path class="st8" d="M116.3,53.8l8.3,3.5c0.9,0.4,1.9,0,2.2-0.9c0.4-0.9,0-1.9-0.9-2.2l-8.2-3.5l3.5-8.3c0.4-0.9,0-1.9-0.9-2.2
				c-0.9-0.4-1.9,0-2.2,0.9l-3.5,8.4C113.8,51.2,114.6,53.1,116.3,53.8z"/>
		</g>
		<g>
			<g>
				<path class="st8" d="M69.2,38.4L92,48c0.9,0.4,1.9,0,2.2-0.9c0.4-0.9,0-1.9-0.9-2.2l-22.9-9.6c-0.9-0.4-1.9,0-2.2,0.9
					C67.9,37,68.3,38,69.2,38.4z"/>
			</g>
			<g>
				<path class="st8" d="M50.4,45.2l36.7,15.5c0.9,0.4,1.9,0,2.2-0.9c0.4-0.9,0-1.9-0.9-2.2L51.7,42.1c-0.9-0.4-1.9,0-2.2,0.9
					S49.5,44.9,50.4,45.2z"/>
			</g>
			<g>
				<path class="st8" d="M66,59.5l31.4,13.2c0.9,0.4,1.9,0,2.2-0.9c0.4-0.9,0-1.9-0.9-2.2L67.3,56.4c-0.9-0.4-1.9,0-2.2,0.9
					C64.7,58.1,65.1,59.1,66,59.5z"/>
			</g>
			<g>
				<path class="st8" d="M93.7,63.5l6.5,2.8c0.9,0.4,1.9,0,2.2-0.9c0.4-0.9,0-1.9-0.9-2.2L95,60.3c-0.9-0.4-1.9,0-2.2,0.9
					C92.4,62.1,92.8,63.1,93.7,63.5z"/>
			</g>
			<g>
				<path class="st8" d="M47.6,51.8l11.8,5c0.9,0.4,1.9,0,2.2-0.9s0-1.9-0.9-2.2l-11.8-5c-0.9-0.4-1.9,0-2.2,0.9
					S46.8,51.4,47.6,51.8z"/>
			</g>
		</g>
	</g>
	<g>
		<g>
			<path class="st0" d="M13.8,487.2L30.3,508l81.7-37l-4.8-26.1l-59-13.1c-2.1-0.5-4.4,0.5-5.4,2.5L13.8,487.2z"/>
		</g>
		<g>
			<polygon class="st2" points="125.7,485.6 107.3,445 82.4,476 101.9,484.1 			"/>
		</g>
		<g>
			<polygon class="st2" points="32.2,527.9 13.9,487.3 53.6,489 46.4,510.9 			"/>
		</g>
		<g>
			<path class="st11" d="M35,534.1l93.4-42.3l-59-13.1c-2.1-0.5-4.4,0.5-5.4,2.5L35,534.1z"/>
		</g>
		<g>
			<path class="st11" d="M35,534.1l93.4-42.3l-59-13.1c-2.1-0.5-4.4,0.5-5.4,2.5L35,534.1z"/>
		</g>
		<g>
			<polygon class="st12" points="82.4,476 125.7,485.6 128.5,491.7 71.3,489.8 			"/>
		</g>
		<g>
			<polygon class="st12" points="53.6,489 32.2,527.9 35,534.1 71.3,489.8 			"/>
		</g>
		<g>
			<path class="st3" d="M35,534.1l93.4-42.3l-59-13.1c-2.1-0.5-4.4,0.5-5.4,2.5L35,534.1z"/>
		</g>
		<g>
			<path class="st8" d="M107.9,446.3c0.4-0.2,0.8-0.6,0.9-1.1c0.2-0.8-0.3-1.7-1.2-1.8l-11.8-2.6c-0.8-0.2-1.7,0.3-1.8,1.2
				c-0.2,0.8,0.3,1.7,1.2,1.8l11.8,2.6C107.2,446.5,107.6,446.4,107.9,446.3z"/>
		</g>
		<g>
			<path class="st8" d="M14.4,488.6c0.3-0.1,0.5-0.4,0.7-0.7l4.3-7.9c0.4-0.7,0.1-1.7-0.6-2.1c-0.7-0.4-1.7-0.1-2.1,0.6l-4.3,7.9
				c-0.4,0.7-0.1,1.7,0.6,2.1C13.5,488.8,14,488.8,14.4,488.6z"/>
		</g>
		<g>
			<path class="st8" d="M66.4,437.1c0.4-0.2,0.8-0.6,0.9-1.1c0.2-0.8-0.3-1.7-1.2-1.8l-17.5-3.9c-2.8-0.6-5.7,0.7-7.1,3.2l-8.6,15.7
				c-0.4,0.7-0.1,1.7,0.6,2.1c0.7,0.4,1.7,0.1,2.1-0.6l8.6-15.7c0.7-1.3,2.3-2,3.7-1.7l17.5,3.9C65.8,437.3,66.1,437.2,66.4,437.1z"
				/>
		</g>
		<g>
			<path class="st8" d="M79.8,481.4c0.2-0.1,0.4-0.2,0.6-0.4l26.6-33l5.8,12.8c0.4,0.8,1.3,1.1,2,0.8s1.1-1.3,0.8-2l-6.8-15.1
				c-0.2-0.5-0.7-0.8-1.2-0.9c-0.5-0.1-1.1,0.1-1.4,0.6l-28.1,35c-0.5,0.7-0.4,1.6,0.2,2.2C78.6,481.6,79.3,481.6,79.8,481.4z"/>
		</g>
		<g>
			<path class="st8" d="M129.1,493.1c0.8-0.4,1.1-1.3,0.8-2l-11.5-25.3c-0.4-0.8-1.3-1.1-2-0.8c-0.8,0.4-1.1,1.3-0.8,2l11.5,25.3
				C127.4,493.1,128.3,493.5,129.1,493.1z"/>
		</g>
		<g>
			<path class="st8" d="M35.7,535.5c0.8-0.4,1.1-1.3,0.8-2L16.3,489l43.2,1.8c0.9,0,1.6-0.6,1.6-1.5c0-0.9-0.6-1.6-1.5-1.6
				l-45.7-1.9c-0.5,0-1,0.2-1.3,0.7c-0.3,0.4-0.3,1-0.1,1.5l21.2,46.7C34,535.5,34.9,535.8,35.7,535.5z"/>
		</g>
		<g>
			<path class="st8" d="M35.7,535.5l93.4-42.3c0.6-0.3,1-0.9,0.9-1.6c-0.1-0.7-0.6-1.2-1.2-1.4l-59-13.1c-2.8-0.6-5.7,0.7-7.1,3.2
				l-19,34.6c-0.4,0.7-0.1,1.7,0.6,2.1c0.8,0.4,1.7,0.1,2.1-0.6l19-34.6c0.7-1.3,2.3-2,3.7-1.7l54.4,12.1l-85,38.5l4.5-8.3
				c0.4-0.7,0.1-1.7-0.6-2.1c-0.7-0.4-1.7-0.1-2.1,0.6l-6.8,12.3c-0.3,0.6-0.2,1.3,0.2,1.8C34.4,535.6,35.1,535.7,35.7,535.5z"/>
		</g>
		<g>
			<g>
				<g>
					<path class="st7" d="M11.4,455.8L26,488.1l45.5,7.7c1.6,0.3,3.2-0.5,4-1.8l24.2-39.3l-14.6-32.2c-2.1-4.5-7.6-6.5-12.3-4.4
						l-56.6,25.7C11.5,445.9,9.4,451.3,11.4,455.8z"/>
				</g>
			</g>
			<g>
				<g>
					<path class="st15" d="M23.7,483l2.3,5.1l45.5,7.7c1.6,0.3,3.2-0.5,4-1.8l24.2-39.3l-14.6-32.2c-2.1-4.5-7.6-6.5-12.3-4.4
						l-30,17c12.4-1.7,22.2,0.5,25,6.8c4.5,10-10.3,26.6-33.2,36.9C31,480.5,27.3,481.9,23.7,483z"/>
				</g>
			</g>
			<g>
				<g>
					<path class="st13" d="M15.5,464.9l-4.1-9c-2.1-4.5,0.1-10,4.8-12.1l56.6-25.7c4.7-2.1,10.2-0.2,12.3,4.4l4.1,9L15.5,464.9z"/>
				</g>
			</g>
			<g>
				<g>
					<path class="st14" d="M12.5,458.2l3,6.7l73.8-33.4l-4.1-9c-2.1-4.5-7.6-6.5-12.3-4.4l-3.2,1.5c0.8,7.2-16.2,24.2-41.1,35.5
						C23.5,457.3,17.2,456.5,12.5,458.2z"/>
				</g>
			</g>
			<g>
				<g>
					<path class="st8" d="M74.3,496.5c-0.9,0.4-2,0.6-3,0.4l-45.5-7.7c-0.4-0.1-0.7-0.3-0.9-0.7l-14.6-32.2
						c-2.3-5.1,0.1-11.3,5.5-13.7L72.4,417c5.3-2.4,11.6-0.2,13.9,4.9l14.6,32.2c0.2,0.4,0.1,0.8-0.1,1.1l-24.2,39.3
						C76,495.4,75.2,496.1,74.3,496.5L74.3,496.5z M84.1,422.9c-1.8-3.9-6.6-5.6-10.7-3.8l-56.6,25.7c-4.1,1.9-6,6.6-4.2,10.5
						L26.9,487l44.9,7.6c1.1,0.2,2.2-0.3,2.7-1.2l23.9-38.7L84.1,422.9z"/>
				</g>
			</g>
			<g>
				<g>
					<path class="st8" d="M14.4,465.4l-4.1-9c-2.3-5.1,0.1-11.3,5.5-13.7L72.4,417c5.3-2.4,11.6-0.2,13.9,4.9l4.1,9
						c0.3,0.6,0,1.3-0.6,1.6L16,465.9C15.4,466.2,14.7,466,14.4,465.4z M84.1,422.9c-1.8-3.9-6.6-5.6-10.7-3.8l-56.6,25.7
						c-4.1,1.9-6,6.6-4.2,10.5l3.6,8l71.5-32.4L84.1,422.9z"/>
				</g>
			</g>
			<g>
				<g>
					<path class="st8" d="M54.6,457.7l27.9-12.6c0.6-0.3,0.9-1,0.6-1.6c-0.3-0.6-1-0.8-1.6-0.6l-27.9,12.6c-0.6,0.3-0.9,1-0.6,1.6
						C53.3,457.7,54,458,54.6,457.7z"/>
				</g>
			</g>
			<g>
				<g>
					<path class="st8" d="M47,469.3l38.6-17.5c0.6-0.3,0.9-1,0.6-1.6c-0.3-0.6-1-0.8-1.6-0.6L46,467.2c-0.6,0.3-0.9,1-0.6,1.6
						C45.7,469.4,46.4,469.6,47,469.3z"/>
				</g>
			</g>
			<g>
				<g>
					<path class="st8" d="M60.8,471.3l27.9-12.6c0.6-0.3,0.9-1,0.6-1.6c-0.3-0.6-1-0.8-1.6-0.6l-27.9,12.6c-0.6,0.3-0.9,1-0.6,1.6
						C59.5,471.3,60.2,471.5,60.8,471.3z"/>
				</g>
			</g>
			<g>
				<g>
					<g>
						<path class="st7" d="M70.2,429.7c0.9,2,3.4,2.9,5.5,1.9c2.1-1,3.1-3.4,2.2-5.4c-0.9-2-3.4-2.9-5.5-1.9
							C70.3,425.2,69.3,427.6,70.2,429.7z"/>
					</g>
				</g>
				<g>
					<g>
						<path class="st15" d="M70.4,430c1,1.8,3.3,2.5,5.3,1.6c2.1-1,3.1-3.4,2.2-5.4c-0.9-1.9-3.1-2.8-5.1-2.1
							c0.1,0.1,0.1,0.2,0.2,0.3c0.9,2-0.1,4.5-2.2,5.4C70.6,429.9,70.5,430,70.4,430L70.4,430z"/>
					</g>
				</g>
				<g>
					<g>
						<path class="st8" d="M69.1,430.2c-1.2-2.6,0.1-5.8,2.8-7c2.7-1.2,5.9-0.1,7.1,2.5c1.2,2.6-0.1,5.8-2.8,7
							C73.5,433.9,70.3,432.8,69.1,430.2z M71.3,429.2c0.7,1.4,2.4,2.1,3.9,1.4c1.5-0.7,2.2-2.4,1.5-3.8c-0.7-1.4-2.4-2.1-3.9-1.4
							C71.4,426,70.7,427.7,71.3,429.2z"/>
					</g>
				</g>
			</g>
			<g>
				<g>
					<g>
						<path class="st7" d="M57.2,435.6c0.9,2,3.4,2.9,5.5,1.9c2.1-1,3.1-3.4,2.2-5.4c-0.9-2-3.4-2.9-5.5-1.9
							C57.3,431.1,56.3,433.5,57.2,435.6z"/>
					</g>
				</g>
				<g>
					<g>
						<path class="st15" d="M57.4,435.9c1,1.8,3.3,2.5,5.3,1.6c2.1-1,3.1-3.4,2.2-5.4c-0.9-1.9-3.1-2.8-5.1-2.1
							c0.1,0.1,0.1,0.2,0.2,0.3c0.9,2-0.1,4.5-2.2,5.4C57.6,435.8,57.5,435.8,57.4,435.9z"/>
					</g>
				</g>
				<g>
					<g>
						<path class="st8" d="M56.1,436.1c-1.2-2.6,0.1-5.8,2.8-7s5.9-0.1,7.1,2.5s-0.1,5.8-2.8,7C60.5,439.8,57.3,438.7,56.1,436.1z
							 M58.3,435.1c0.7,1.4,2.4,2.1,3.9,1.4c1.5-0.7,2.2-2.4,1.5-3.8c-0.7-1.4-2.4-2.1-3.9-1.4C58.4,431.9,57.7,433.6,58.3,435.1z"
							/>
					</g>
				</g>
			</g>
			<g>
				<g>
					<g>
						<path class="st7" d="M44.2,441.5c0.9,2,3.4,2.9,5.5,1.9c2.1-1,3.1-3.4,2.2-5.4c-0.9-2-3.4-2.9-5.5-1.9
							C44.2,437,43.3,439.4,44.2,441.5z"/>
					</g>
				</g>
				<g>
					<g>
						<path class="st15" d="M44.4,441.8c1,1.8,3.3,2.5,5.3,1.6c2.1-1,3.1-3.4,2.2-5.4c-0.9-1.9-3.1-2.8-5.1-2.1
							c0.1,0.1,0.1,0.2,0.2,0.3c0.9,2-0.1,4.5-2.2,5.4C44.6,441.7,44.5,441.7,44.4,441.8L44.4,441.8z"/>
					</g>
				</g>
				<g>
					<g>
						<path class="st8" d="M43.1,442c-1.2-2.6,0.1-5.8,2.8-7c2.7-1.2,5.9-0.1,7.1,2.5c1.2,2.6-0.1,5.8-2.8,7
							C47.5,445.7,44.3,444.6,43.1,442z M45.3,441c0.7,1.4,2.4,2.1,3.9,1.4c1.5-0.7,2.2-2.4,1.5-3.8c-0.7-1.4-2.4-2.1-3.9-1.4
							C45.4,437.8,44.7,439.5,45.3,441z"/>
					</g>
				</g>
			</g>
		</g>
		<g>
			<g>
				<g>
					<g>
						<circle class="st9" cx="15.2" cy="461.2" r="13.7"/>
					</g>
				</g>
			</g>
			<g>
				<g>
					<g>
						<g>
							<path class="st8" d="M11.8,468.3c-0.4,0.1-0.8,0.1-1.2-0.1L6,465.8c-0.7-0.3-1-1.1-0.7-1.8l1.9-4.9c0.3-0.8,1.1-1.1,1.9-0.8
								c0.8,0.3,1.1,1.1,0.8,1.9l-1.4,3.7l3.5,1.8c0.7,0.4,1,1.3,0.6,2C12.4,468,12.2,468.2,11.8,468.3z"/>
						</g>
					</g>
				</g>
				<g>
					<g>
						<g>
							<path class="st8" d="M22.4,464.3c-0.3,0.1-0.7,0.1-1,0c-0.8-0.3-1.1-1.1-0.8-1.9l1.4-3.7l-3.5-1.8c-0.7-0.4-1-1.3-0.6-2
								c0.4-0.7,1.3-1,2-0.6l4.7,2.4c0.7,0.3,1,1.1,0.7,1.8l-1.9,4.9C23.1,463.9,22.8,464.2,22.4,464.3z"/>
						</g>
					</g>
				</g>
				<g>
					<g>
						<g>
							<path class="st8" d="M15.5,466.8c-0.2,0.1-0.4,0.1-0.6,0.1c-0.8,0-1.4-0.7-1.4-1.5l0.5-8.5c0-0.8,0.7-1.4,1.5-1.4
								c0.8,0,1.4,0.7,1.4,1.5l-0.5,8.5C16.4,466.1,16,466.6,15.5,466.8L15.5,466.8z"/>
						</g>
					</g>
				</g>
			</g>
			<g>
				<g>
					<g>
						<path class="st8" d="M20.6,475.5c-7.8,3-16.6-1-19.6-8.9S2,450,9.8,447c7.8-3,16.6,1,19.6,8.9S28.4,472.5,20.6,475.5z
							 M10.9,449.8c-6.3,2.4-9.5,9.5-7.2,15.8c2.4,6.3,9.5,9.5,15.8,7.2c6.3-2.4,9.5-9.5,7.2-15.8S17.2,447.4,10.9,449.8z"/>
					</g>
				</g>
			</g>
		</g>
	</g>
</g>
</svg>
