<?xml version="1.0" encoding="utf-8"?>
<!-- Generator: Adobe Illustrator 25.0.0, SVG Export Plug-In . SVG Version: 6.00 Build 0)  -->
<svg version="1.1" id="Layer_1" xmlns="http://www.w3.org/2000/svg" xmlns:xlink="http://www.w3.org/1999/xlink" x="0px" y="0px"
	 viewBox="0 0 170.6 150" style="enable-background:new 0 0 170.6 150;" xml:space="preserve">
<style type="text/css">
	.st0{fill:#6CD8D5;}
	.st1{fill:#35414D;}
	.st2{opacity:0.2;}
	.st3{fill:#FFFFFF;}
	.st4{fill:#F6C560;}
	.st5{opacity:4.000000e-02;}
	.st6{fill:#425060;}
	.st7{fill:#FA4968;}
</style>
<g>
	<g>
		<path class="st0" d="M127.3,36.6V48h-24.2c0.4-1.4,0.7-3.2,0.7-5c0-10-7.8-17.8-17.8-17.8S68.3,33.4,68.3,43c0,1.8,0.4,3.2,0.7,5
			H44.8V36.6h9.2c0.7-4.3,2.5-8.2,4.6-11.4l-6.4-6.8l9.2-9.2l6.8,6.8c3.6-2.1,7.5-3.9,11.4-4.6V1.8h12.8V11c4.3,1.1,8.2,2.8,11.4,5
			l6.8-6.8l9.2,9.2l-6.4,6.8c2.1,3.2,3.9,7.1,4.6,11.4H127.3z"/>
		<path class="st1" d="M127.3,49.8h-24.2c-0.5,0-1.1-0.3-1.4-0.7c-0.3-0.4-0.5-1-0.3-1.5c0.4-1.8,0.7-3.3,0.7-4.5c0-9-7-16-16-16
			c-8.8,0-16,7.2-16,16c0,1.3,0.2,2.5,0.5,3.9l0.2,0.8c0.1,0.5,0,1.1-0.4,1.5c-0.3,0.4-0.8,0.7-1.4,0.7H44.8c-1,0-1.8-0.8-1.8-1.8
			V36.6c0-1,0.8-1.8,1.8-1.8h7.8c0.7-3.2,2-6.4,3.8-9.4L51,19.7c-0.7-0.7-0.6-1.8,0-2.5L60.3,8c0.7-0.7,1.8-0.7,2.5,0l5.8,5.8
			c3.3-1.8,6.4-3.1,9.3-3.8V1.8c0-1,0.8-1.8,1.8-1.8h12.8c1,0,1.8,0.8,1.8,1.8v7.9c3.3,1,6.5,2.3,9.3,4.1l5.7-5.7
			c0.7-0.7,1.8-0.7,2.5,0l9.2,9.2c0.7,0.7,0.7,1.8,0,2.5l-5.4,5.7c1.8,3,3.1,6.2,3.8,9.4h7.8c1,0,1.8,0.8,1.8,1.8V48
			C129.1,49,128.3,49.8,127.3,49.8z M105.3,46.2h20.2v-7.8H118c-0.9,0-1.6-0.6-1.8-1.5c-0.8-4.6-2.8-8.3-4.3-10.7
			c-0.5-0.7-0.4-1.6,0.2-2.2l5.2-5.5l-6.8-6.8l-5.5,5.5c-0.6,0.6-1.5,0.7-2.2,0.2c-3.2-2.1-6.9-3.8-10.8-4.7
			c-0.8-0.2-1.3-0.9-1.3-1.7V3.6h-9.2v7.8c0,0.9-0.6,1.6-1.5,1.7c-3.3,0.6-6.9,2.1-10.8,4.4c-0.7,0.4-1.6,0.3-2.2-0.3l-5.5-5.5
			l-6.8,6.8L60,24c0.6,0.6,0.6,1.5,0.2,2.2c-1.6,2.3-3.6,6.1-4.3,10.7c-0.1,0.9-0.9,1.5-1.8,1.5h-7.5v7.8h20.2c-0.2-1-0.3-2-0.3-3.2
			c0-10.8,8.8-19.6,19.5-19.6c11,0,19.5,8.6,19.5,19.6C105.6,44,105.5,45.1,105.3,46.2z"/>
	</g>
	<g class="st2">
		<g>
			<path class="st3" d="M24.9,146.4h-3.2c-1,0-1.8-0.8-1.8-1.8s0.8-1.8,1.8-1.8h3.2c1,0,1.8,0.8,1.8,1.8S25.9,146.4,24.9,146.4z"/>
		</g>
		<g>
			<path class="st3" d="M43.4,146.4H31.6c-1,0-1.8-0.8-1.8-1.8s0.8-1.8,1.8-1.8h11.7c1,0,1.8,0.8,1.8,1.8S44.3,146.4,43.4,146.4z"/>
		</g>
	</g>
	<g>
		<g>
			<g>
				<g>
					<g>
						<g>
							<path class="st4" d="M161.5,51.4v76.7c0,3-2.5,5.4-5.3,5.4H16.3c-3.1,0-5.3-2.4-5.3-5.4V51.4c0-3,2.5-5.1,5.3-5.1h139.6
								C159,46.3,161.5,48.7,161.5,51.4L161.5,51.4z"/>
						</g>
					</g>
					<g class="st5">
						<g>
							<path d="M161.5,51.4v76.7c0,3-2.5,5.4-5.3,5.4H16.3c-2.8,0-5.3-2.4-5.3-5.4v-6h53.6c44.9,0,81.9-33.5,85-76.1h6.6
								C159,46.3,161.5,48.7,161.5,51.4L161.5,51.4z"/>
						</g>
					</g>
				</g>
				<g>
					<path class="st1" d="M16.3,135.6c-4.2,0-7.4-3.3-7.4-7.4V51.4c0-3.9,3.3-7.1,7.4-7.1h139.6c2.3,0,4.4,0.8,5.5,2
						c1.2,1.5,2,3.4,2,5.1v76.7c0,4.2-3.3,7.4-7.4,7.4H16.3z M13,128.1c0,1.7,1.3,3.4,3.2,3.4h139.6c2.2,0,3.6-1.3,3.6-3.4V50.7
						L92.8,95.6c-2.2,1.5-4.5,2.2-6.9,2.2c-2.3,0-4.9-0.8-6.9-2.2L13,50.7V128.1z M81.3,92.4c1.4,0.8,3,1.3,4.6,1.3
						c1.6,0,3.2-0.4,4.6-1.3l65.2-44.1h-16.6l-0.1,0.1c-1,0.1-5.4,0.2-21.6,0.2c0,0,0,0,0,0c-24.6,0-61.6-0.3-62-0.3H16.1L81.3,92.4
						z"/>
				</g>
			</g>
		</g>
	</g>
	<g>
		<path class="st6" d="M1.8,135.8c1.1,7.1,5.7,12.4,11.4,12.4h144.3c5.7,0,10.7-5.3,11.4-12.4H1.8z"/>
		<path class="st1" d="M157.5,150H13.2c-6.5,0-11.9-5.7-13.1-14c-0.1-0.5,0.1-1,0.4-1.4c0.3-0.4,0.8-0.6,1.3-0.6h167.1
			c0.5,0,1,0.2,1.3,0.6s0.5,0.9,0.5,1.4C169.8,144,164.2,150,157.5,150z M4,137.6c1.4,5.3,5.1,8.9,9.2,8.9h144.3
			c4.3,0,8.1-3.8,9.3-8.9H4z"/>
	</g>
	<g>
		<path class="st1" d="M127.6,143.6h-1.4c-1,0-1.8-0.8-1.8-1.8s0.8-1.8,1.8-1.8h1.4c1,0,1.8,0.8,1.8,1.8S128.6,143.6,127.6,143.6z"
			/>
	</g>
	<g>
		<path class="st1" d="M144,143.6h-1.1c-1,0-1.8-0.8-1.8-1.8s0.8-1.8,1.8-1.8h1.1c1,0,1.8,0.8,1.8,1.8S144.9,143.6,144,143.6z"/>
	</g>
	<g>
		<path class="st1" d="M135.8,143.6h-1.1c-1,0-1.8-0.8-1.8-1.8s0.8-1.8,1.8-1.8h1.1c1,0,1.8,0.8,1.8,1.8S136.8,143.6,135.8,143.6z"
			/>
	</g>
	<g>
		<polygon class="st4" points="52.9,81 61.3,74.8 83.2,62.2 91.3,59.9 111.7,74.8 111.7,76.3 118.7,81.8 98.9,97.3 84.4,101.2 
			70.6,97.7 		"/>
	</g>
	<g>
		<g>
			<path class="st7" d="M121.3,86.3l-13.6-10.6c-2.1-1.5-4.8-1.2-6.3,0.9c-1.5,2.1-1.2,4.8,0.9,6.3l9.1,6.9l-9.1,6.9
				c-2.1,1.5-2.4,4.2-0.9,6.3c0.9,1.2,2.1,1.8,3.6,1.8c0.9,0,1.8-0.3,2.7-0.9l13.6-10.6c1.2-0.9,1.8-2.1,1.8-3.6
				C123.1,88.7,122.5,87.2,121.3,86.3L121.3,86.3z"/>
			<path class="st1" d="M105,106.5c-2,0-3.6-0.8-4.8-2.4c-1-1.4-1.4-3-1.2-4.5c0.2-1.6,1.1-3,2.4-4l7.5-5.7l-7.5-5.7
				c-1.3-0.9-2.2-2.3-2.4-3.9c-0.2-1.5,0.2-3.1,1.2-4.5c1-1.4,2.4-2.2,4-2.4c1.5-0.2,3.1,0.2,4.5,1.2l13.6,10.6
				c1.5,1.1,2.4,3,2.4,4.8c0,2-0.8,3.6-2.4,4.8l-13.6,10.6c0,0-0.1,0-0.1,0.1C107.4,106.2,106.2,106.5,105,106.5z M107.7,104.1
				L107.7,104.1L107.7,104.1z M104.9,76.3c-0.1,0-0.3,0-0.4,0c-0.8,0.1-1.4,0.5-1.9,1.2c-0.5,0.7-0.7,1.5-0.6,2.3
				c0.1,0.8,0.5,1.4,1.2,1.9l9.1,7c0.4,0.3,0.6,0.7,0.6,1.2s-0.2,0.9-0.6,1.2l-9.1,6.9c-0.7,0.5-1.1,1.2-1.2,1.9
				c-0.1,0.8,0.1,1.6,0.6,2.3c0.6,0.8,1.4,1.2,2.4,1.2c0.6,0,1.2-0.2,1.8-0.6l13.5-10.5c0.8-0.6,1.2-1.4,1.2-2.4
				c0-0.7-0.4-1.8-1.2-2.4c0,0,0,0,0,0l-13.6-10.6C106.2,76.5,105.5,76.3,104.9,76.3z"/>
		</g>
		<g>
			<path class="st7" d="M68.7,96.9l-9.1-6.9l9.1-6.9c2.1-1.5,2.4-4.2,0.9-6.3c-1.5-2.1-4.2-2.4-6.3-0.9L49.7,86.3
				c-1.2,0.9-1.8,2.1-1.8,3.6s0.6,2.7,1.8,3.6l13.6,10.6c0.9,0.6,1.8,0.9,2.7,0.9c1.5,0,2.7-0.6,3.6-1.8
				C70.8,101.1,70.5,98.4,68.7,96.9L68.7,96.9z"/>
			<path class="st1" d="M66,106.5c-1.2,0-2.4-0.4-3.6-1.2c0,0-0.1,0-0.1-0.1L48.8,94.7c-1.6-1.2-2.4-2.8-2.4-4.8
				c0-2,0.8-3.6,2.4-4.8l13.6-10.6c1.4-1,3-1.4,4.5-1.2c1.6,0.2,3,1.1,4,2.4c2,2.9,1.5,6.5-1.3,8.4l-7.5,5.7l7.5,5.7c0,0,0,0,0,0
				c2.3,2,2.9,5.4,1.3,8.3c0,0.1-0.1,0.1-0.1,0.2C69.7,105.7,68,106.5,66,106.5z M64.2,102.9c0.6,0.4,1.2,0.6,1.8,0.6
				c1,0,1.8-0.4,2.4-1.1c0.8-1.5,0.6-3.4-0.6-4.3l-9-6.9c-0.4-0.3-0.6-0.7-0.6-1.2s0.2-0.9,0.6-1.2l9.1-6.9c1.4-1,1.7-2.8,0.6-4.3
				c-0.5-0.7-1.1-1.1-1.9-1.2c-0.8-0.1-1.6,0.1-2.3,0.6L50.6,87.5c-0.8,0.6-1.2,1.4-1.2,2.4s0.4,1.8,1.2,2.4L64.2,102.9z"/>
		</g>
		<g>
			<path class="st7" d="M94.4,66.1c-2.4-0.9-4.8,0.3-5.7,2.7l-14.8,39.3c-0.9,2.4,0.3,4.8,2.7,5.7c0.6,0.3,1.2,0.3,1.5,0.3
				c1.8,0,3.6-1.2,4.2-3l14.8-39.3C97.7,69.7,96.8,67,94.4,66.1L94.4,66.1z"/>
			<path class="st1" d="M78.1,115.6c-0.4,0-1.2,0-2.1-0.4c-3.2-1.2-4.7-4.5-3.5-7.7l14.8-39.3c0.6-1.5,1.7-2.8,3.1-3.4
				c1.4-0.7,3.1-0.7,4.6-0.2c3.3,1.2,4.4,4.8,3.6,7.6c0,0,0,0.1,0,0.1l-14.8,39.3C83,113.9,80.6,115.6,78.1,115.6z M92.8,67.3
				c-0.4,0-0.8,0.1-1.2,0.3c-0.7,0.3-1.2,1-1.5,1.8l-14.8,39.3c-0.6,1.6,0.2,3.2,1.8,3.8c0,0,0.1,0,0.1,0.1c0.3,0.1,0.6,0.1,0.8,0.1
				c1.2,0,2.4-0.9,2.8-2l14.8-39.3c0.4-1.4-0.2-3.3-1.8-3.9C93.5,67.3,93.1,67.3,92.8,67.3z M97.1,71.8L97.1,71.8L97.1,71.8z"/>
		</g>
	</g>
</g>
</svg>
