<svg id="Layer_1" data-name="Layer 1" xmlns="http://www.w3.org/2000/svg" viewBox="0 0 344 208"><defs><style>.cls-1{fill:#ffd886;}.cls-2{fill:#515979;}.cls-3{fill:#ef7d7d;}.cls-4{fill:#9e8271;}.cls-5{fill:#b29d90;}.cls-6{fill:#d1c4bc;}.cls-7{fill:#fff;}</style></defs><path class="cls-1" d="M104.12,77.4a2.15,2.15,0,0,1-.61-.09C103,77.15,90.75,73.17,86.76,61c-3.47-10.57.45-23.68,11.64-39a2.06,2.06,0,0,1,1.65-.83,2,2,0,0,1,.63.1,2,2,0,0,1,1.41,1.94,24.85,24.85,0,0,0,2.83,10.17A61.44,61.44,0,0,1,117.82,6.7a2.06,2.06,0,0,1,1.59-.76,2.1,2.1,0,0,1,.73.14,2,2,0,0,1,1.3,2c0,.12-.53,11.86,7.66,27.4A59.15,59.15,0,0,1,139,21.22a2,2,0,0,1,1.52-.67,2,2,0,0,1,.72.13,2,2,0,0,1,1.32,1.88c0,4.21,2.5,9.66,5.1,15.43,5.49,12.18,12.32,27.34-2.25,37.58a2,2,0,0,1-1.1.37Z"/><path class="cls-2" d="M119.41,8h0m0,0s-.83,14.18,10.12,32.43c0,0,1-6.71,10.95-17.83.17,14.11,23.36,37.52,3.72,51.32l-40.08,1.47s-34.33-10.81-4.07-52.12a27.07,27.07,0,0,0,6.2,15.83s.22-15.17,13.16-31.1m0-4.08a4.09,4.09,0,0,0-3.06,1.38,1.07,1.07,0,0,0-.14.16A65.53,65.53,0,0,0,104.6,26.61a18.74,18.74,0,0,1-.48-3.39,4.06,4.06,0,0,0-2.8-3.86,4.25,4.25,0,0,0-1.26-.2,4.09,4.09,0,0,0-3.3,1.68c-11.6,15.85-15.62,29.57-11.94,40.8,4.31,13.15,17.52,17.44,18.08,17.61a3.93,3.93,0,0,0,1.22.19h.15L144.35,78a4.11,4.11,0,0,0,2.19-.74c7.09-5,10.29-11.77,9.51-20.15-.64-6.76-3.65-13.46-6.57-19.94-2.51-5.57-4.88-10.83-4.92-14.61a4.07,4.07,0,0,0-2.64-3.77,4.09,4.09,0,0,0-4.47,1.09A69.37,69.37,0,0,0,129.15,31a65.83,65.83,0,0,1-4.72-14.11,39.93,39.93,0,0,1-1-8.62,2.81,2.81,0,0,0,0-.29V7.81a4.07,4.07,0,0,0-2.6-3.64,4.14,4.14,0,0,0-1.46-.27Zm0,8.16Z"/><path class="cls-3" d="M98.91,69s-12-13.27-.74-31.69c0,0,1.2,5.73,11.39,12.45a73.94,73.94,0,0,1,6-26.75S120.52,40,131.3,50c0,0,1.48-9,7.21-15.77-.34,10.87,14.89,20.49,6.37,34.84S98.91,69,98.91,69Z"/><path class="cls-1" d="M222.23,85.08c-13.07,0-20.61-7.1-22.1-8.65A22,22,0,0,1,189.38,63.1c-4.74-16,6.36-36.64,6.84-37.51A2,2,0,0,1,198,24.53a1.23,1.23,0,0,1,.27,0A2,2,0,0,1,200,26.11c1.08,4.67,4.24,10.08,6.72,13.83C209.18,21.85,223.84,8.62,224.53,8a2,2,0,0,1,1.35-.52A2,2,0,0,1,227,7.8a2,2,0,0,1,.9,2.26c-2.62,9.7.53,19.74,3.2,25.82,2.83-10.09,12.06-16.44,12.53-16.76a2.05,2.05,0,0,1,1.14-.34,2.1,2.1,0,0,1,1.11.32,2.05,2.05,0,0,1,.9,2.07c-1.21,6.76,2.32,13.95,5.73,20.9,5.8,11.8,12.37,25.18-6.73,36.05-8.13,4.62-16,7-23.5,7Z"/><path class="cls-2" d="M225.88,9.53c-4.42,16.37,6.42,33.19,6.42,33.19-.66-13.06,12.42-21.91,12.42-21.91-3.52,19.66,28,39.61,0,55.54C236,81.33,228.43,83,222.23,83c-13.6,0-20.83-8.24-20.83-8.24C178.46,62.41,198,26.57,198,26.57c2,8.62,10.39,19.24,10.39,19.24C208,25.46,225.88,9.53,225.88,9.53m0-4.08a4.05,4.05,0,0,0-2.7,1c-.65.58-13.17,11.88-17.44,28A34.9,34.9,0,0,1,202,25.65a4.07,4.07,0,0,0-3.42-3.12,3.52,3.52,0,0,0-.56,0,4.07,4.07,0,0,0-3.57,2.12c-.49.91-12,22.27-7,39.07a23.88,23.88,0,0,0,11.47,14.38,33.31,33.31,0,0,0,23.34,9.06c7.82,0,16.07-2.43,24.51-7.23,9.21-5.24,13.71-11.6,13.76-19.43,0-6.57-3.14-13-6.21-19.29-3.42-7-6.65-13.53-5.56-19.64a4.07,4.07,0,0,0-6.29-4.09,38.13,38.13,0,0,0-11.35,12.88c-1.85-5.59-3.15-12.78-1.27-19.73A4.08,4.08,0,0,0,228,6.06a4.17,4.17,0,0,0-2.15-.61Zm0,8.15h0Z"/><path class="cls-3" d="M244,70.51C261.1,56,241.85,47,241.33,31.66c0,0-6.82,9.57-4.78,25.32C237.1,61.2,239.62,68.25,244,70.51Z"/><path class="cls-3" d="M199.21,67.38s-8.88-10.59-1.31-28c0,0,2.67,10.46,16.26,18Z"/><path class="cls-3" d="M235.19,57S220.83,38.66,221,25.49a48.29,48.29,0,0,0-7.47,31.22Z"/><rect class="cls-4" x="108.2" y="55.35" width="38.04" height="146.71" rx="2.04"/><path class="cls-2" d="M144.2,57.39V200h-34V57.39h34m0-4.07h-34a4.08,4.08,0,0,0-4.08,4.07V200a4.08,4.08,0,0,0,4.08,4.07h34a4.07,4.07,0,0,0,4.07-4.07V57.39a4.07,4.07,0,0,0-4.07-4.07Z"/><rect class="cls-5" x="98.01" y="55.35" width="24.45" height="146.71" rx="2.04"/><path class="cls-2" d="M120.43,57.39V200H100.05V57.39h20.38m0-4.07H100.05A4.08,4.08,0,0,0,96,57.39V200a4.08,4.08,0,0,0,4.08,4.07h20.38A4.07,4.07,0,0,0,124.5,200V57.39a4.07,4.07,0,0,0-4.07-4.07Z"/><path class="cls-5" d="M144.88,113.77a15.63,15.63,0,1,1,0-31.25h81.5a15.63,15.63,0,0,1,0,31.25Z"/><path class="cls-2" d="M226.38,84.56A13.58,13.58,0,0,1,240,98.14h0a13.58,13.58,0,0,1-13.59,13.59h-81.5a13.58,13.58,0,0,1-13.59-13.59h0a13.58,13.58,0,0,1,13.59-13.58h81.5m0-4.08h-81.5a17.66,17.66,0,0,0,0,35.32h81.5a17.66,17.66,0,0,0,0-35.32Z"/><path class="cls-6" d="M226.38,84.56h-81.5a13.56,13.56,0,0,0-9.7,4.07h100.9A13.56,13.56,0,0,0,226.38,84.56Z"/><path class="cls-5" d="M144.88,174.9a15.63,15.63,0,1,1,0-31.25h81.5a15.63,15.63,0,0,1,0,31.25Z"/><path class="cls-2" d="M226.38,145.69A13.58,13.58,0,0,1,240,159.27h0a13.58,13.58,0,0,1-13.59,13.59h-81.5a13.58,13.58,0,0,1-13.59-13.59h0a13.58,13.58,0,0,1,13.59-13.58h81.5m0-4.08h-81.5a17.66,17.66,0,0,0,0,35.32h81.5a17.66,17.66,0,0,0,0-35.32Z"/><path class="cls-6" d="M226.38,145.69h-81.5a13.56,13.56,0,0,0-9.7,4.07h100.9A13.56,13.56,0,0,0,226.38,145.69Z"/><rect class="cls-4" x="208.72" y="55.35" width="38.04" height="146.71" rx="2.04"/><path class="cls-2" d="M244.72,57.39V200h-34V57.39h34m0-4.07h-34a4.07,4.07,0,0,0-4.07,4.07V200a4.07,4.07,0,0,0,4.07,4.07h34A4.08,4.08,0,0,0,248.8,200V57.39a4.08,4.08,0,0,0-4.08-4.07Z"/><rect class="cls-5" x="198.54" y="55.35" width="24.45" height="146.71" rx="2.04"/><path class="cls-2" d="M221,57.39V200H200.57V57.39H221m0-4.07H200.57a4.07,4.07,0,0,0-4.07,4.07V200a4.07,4.07,0,0,0,4.07,4.07H221A4.07,4.07,0,0,0,225,200V57.39A4.07,4.07,0,0,0,221,53.32Z"/><path class="cls-2" d="M174.67,99.86a1.36,1.36,0,0,1-1.36-1.36,2,2,0,0,0-4.08,0,1.36,1.36,0,1,1-2.71,0,4.76,4.76,0,0,1,9.51,0A1.36,1.36,0,0,1,174.67,99.86Z"/><path class="cls-2" d="M169.62,87.68a5.49,5.49,0,0,1,1.95-.76,6.64,6.64,0,0,1,2.09-.09,5.91,5.91,0,0,1,2.09.65A4.35,4.35,0,0,1,177.39,89a1.17,1.17,0,0,1-1.17,1.79l-.27-.05c-.53-.09-.94-.21-1.39-.29s-.86-.17-1.33-.22L171.8,90c-.49,0-1.05-.08-1.53-.18l-.28-.07a1.15,1.15,0,0,1-.37-2.1Z"/><path class="cls-2" d="M160.37,99.86A1.36,1.36,0,0,1,159,98.5a2,2,0,0,0-4.07,0,1.36,1.36,0,1,1-2.72,0,4.76,4.76,0,0,1,9.51,0A1.36,1.36,0,0,1,160.37,99.86Z"/><path class="cls-2" d="M158,89.85c-.47.1-1,.13-1.52.18L155,90.2c-.46,0-.89.15-1.33.22s-.85.2-1.38.29l-.27.05a1.17,1.17,0,0,1-1.35-1,1.19,1.19,0,0,1,.17-.83,4.46,4.46,0,0,1,1.65-1.49,5.79,5.79,0,0,1,2.08-.65,6.63,6.63,0,0,1,2.09.09,5.42,5.42,0,0,1,2,.76,1.15,1.15,0,0,1-.36,2.1Z"/><path class="cls-2" d="M164.31,107.49a16.69,16.69,0,0,1-8.34-2.21,1.36,1.36,0,0,1,1.36-2.35c4.19,2.43,9.88,2.44,13.51,0a1.36,1.36,0,1,1,1.51,2.26A14.6,14.6,0,0,1,164.31,107.49Z"/><path class="cls-2" d="M164.3,170.19a14.41,14.41,0,0,1-7.7-2.24,1.36,1.36,0,1,1,1.46-2.29c3.74,2.38,8.81,2.39,12.05,0a1.36,1.36,0,0,1,1.61,2.2A12.56,12.56,0,0,1,164.3,170.19Z"/><path class="cls-2" d="M173.29,163.21a1,1,0,0,1-.33-.05,7.48,7.48,0,0,0-4.09,0,1,1,0,1,1-.66-1.93,9.58,9.58,0,0,1,5.41,0,1,1,0,0,1-.33,2Z"/><circle class="cls-2" cx="170.91" cy="157.64" r="4.08"/><circle class="cls-7" cx="171.93" cy="157.64" r="1.02"/><path class="cls-2" d="M159.71,163.21a1,1,0,0,1-.33-.05,7.48,7.48,0,0,0-4.09,0,1,1,0,1,1-.67-1.93,9.61,9.61,0,0,1,5.42,0,1,1,0,0,1,.63,1.3A1,1,0,0,1,159.71,163.21Z"/><circle class="cls-2" cx="157.33" cy="157.64" r="4.08"/><circle class="cls-7" cx="158.35" cy="157.64" r="1.02"/><path class="cls-2" d="M167.66,149.24a5.6,5.6,0,0,1,1.88-.93,6.83,6.83,0,0,1,2.08-.27,5.72,5.72,0,0,1,2.13.47,4.33,4.33,0,0,1,1.77,1.34,1.17,1.17,0,0,1-.2,1.64,1.21,1.21,0,0,1-.81.24l-.28,0c-.53,0-1-.13-1.4-.17s-.88-.09-1.35-.11l-1.44,0c-.49,0-1,0-1.54,0l-.29,0a1.16,1.16,0,0,1-1-1.29A1.21,1.21,0,0,1,167.66,149.24Z"/><path class="cls-2" d="M159.74,151.34c-.48.06-1.05,0-1.54,0l-1.44,0c-.47,0-.9.08-1.34.11s-.87.13-1.41.17l-.27,0a1.17,1.17,0,0,1-1.26-1.07,1.16,1.16,0,0,1,.25-.81,4.26,4.26,0,0,1,1.77-1.34,5.72,5.72,0,0,1,2.13-.47,6.81,6.81,0,0,1,2.07.27,5.6,5.6,0,0,1,1.88.93,1.14,1.14,0,0,1,.22,1.61,1.13,1.13,0,0,1-.76.45Z"/></svg>