<svg width="1315" height="470" viewBox="0 0 1315 470" fill="none" xmlns="http://www.w3.org/2000/svg">
<path d="M668.907 356.76C687.272 356.118 701.638 340.685 700.996 322.289C700.353 303.893 684.945 289.5 666.581 290.141C648.217 290.782 633.851 306.215 634.493 324.612C635.135 343.008 650.543 357.401 668.907 356.76Z" fill="#FDE4DD"/>
<path d="M666.7 293.54C672.605 293.334 678.439 294.886 683.464 298.002C688.489 301.117 692.479 305.654 694.93 311.041C697.381 316.427 698.182 322.421 697.233 328.263C696.283 334.105 693.626 339.534 689.596 343.863C685.566 348.192 680.345 351.226 674.594 352.583C668.842 353.939 662.818 353.556 657.283 351.483C651.748 349.41 646.951 345.739 643.498 340.935C640.046 336.131 638.093 330.409 637.886 324.493C637.609 316.56 640.489 308.843 645.893 303.038C651.296 297.233 658.781 293.817 666.7 293.54ZM666.462 286.742C659.215 286.995 652.205 289.396 646.32 293.64C640.435 297.884 635.938 303.781 633.399 310.585C630.86 317.389 630.392 324.796 632.054 331.867C633.717 338.938 637.435 345.357 642.739 350.312C648.043 355.267 654.695 358.535 661.853 359.703C669.01 360.871 676.353 359.887 682.952 356.875C689.551 353.863 695.109 348.958 698.925 342.78C702.741 336.603 704.642 329.431 704.389 322.171C704.049 312.435 699.862 303.233 692.749 296.589C685.637 289.945 676.181 286.403 666.462 286.742Z" fill="#515979"/>
<path d="M756.596 182.864L569.303 189.405C562.557 189.64 557.279 195.31 557.515 202.067L561.693 321.709C561.929 328.467 567.589 333.754 574.335 333.518L761.628 326.978C768.374 326.742 773.652 321.073 773.416 314.315L769.238 194.674C769.002 187.916 763.342 182.629 756.596 182.864Z" fill="white"/>
<path d="M756.738 186.943C758.898 186.868 760.999 187.655 762.58 189.131C764.16 190.608 765.091 192.652 765.166 194.816L769.344 314.458C769.42 316.621 768.634 318.726 767.161 320.309C765.687 321.892 763.646 322.824 761.486 322.899L574.193 329.44C572.033 329.515 569.932 328.728 568.351 327.252C566.771 325.775 565.84 323.73 565.765 321.567L561.587 201.925C561.511 199.762 562.297 197.657 563.77 196.074C565.244 194.491 567.285 193.559 569.445 193.483L756.738 186.943ZM756.453 178.786L569.16 185.326C564.841 185.477 560.758 187.34 557.811 190.507C554.863 193.673 553.292 197.883 553.443 202.209L557.621 321.851C557.773 326.178 559.633 330.268 562.794 333.221C565.956 336.174 570.158 337.748 574.478 337.597L761.771 331.057C766.09 330.906 770.173 329.042 773.12 325.876C776.068 322.71 777.639 318.5 777.487 314.173L773.309 194.532C773.158 190.205 771.298 186.115 768.136 183.162C764.975 180.209 760.773 178.635 756.453 178.786V178.786Z" fill="#515979"/>
<path d="M657.942 289.054L561.302 193.768L562.075 215.901L646.953 300.464C648.27 301.776 649.841 302.803 651.57 303.483C653.298 304.162 655.148 304.479 657.004 304.415C658.86 304.35 660.682 303.904 662.359 303.106C664.037 302.308 665.532 301.173 666.754 299.772L674.202 291.25C671.624 292.71 668.64 293.286 665.704 292.89C662.768 292.494 660.042 291.147 657.942 289.054V289.054Z" fill="#ECE6E3"/>
<path d="M769.771 326.694C769.2 326.712 768.631 326.61 768.101 326.394C767.572 326.178 767.093 325.853 766.697 325.44L703.25 259.594C702.844 259.216 702.52 258.759 702.297 258.251C702.074 257.743 701.957 257.195 701.952 256.641C701.948 256.086 702.056 255.536 702.271 255.025C702.486 254.513 702.803 254.051 703.202 253.667C703.601 253.282 704.074 252.983 704.593 252.788C705.111 252.593 705.664 252.505 706.217 252.531C706.77 252.557 707.312 252.696 707.81 252.939C708.308 253.182 708.751 253.524 709.113 253.945L772.561 319.79C773.105 320.358 773.473 321.072 773.622 321.845C773.77 322.618 773.692 323.417 773.397 324.147C773.103 324.876 772.603 325.505 771.96 325.957C771.317 326.409 770.557 326.665 769.771 326.694V326.694Z" fill="#515979"/>
<path d="M688.483 236.357C688.01 236.389 687.537 236.292 687.114 236.078C685.575 235.452 683.921 235.159 682.26 235.216C680.6 235.274 678.97 235.683 677.478 236.414C676.857 236.779 676.116 236.881 675.419 236.699C674.722 236.516 674.126 236.064 673.762 235.441C673.398 234.819 673.295 234.077 673.477 233.379C673.659 232.68 674.111 232.083 674.732 231.719C677.005 230.537 679.512 229.878 682.071 229.788C684.63 229.699 687.176 230.182 689.526 231.202C690.073 231.473 690.513 231.921 690.775 232.474C691.037 233.027 691.106 233.652 690.969 234.248C690.833 234.844 690.5 235.377 690.024 235.761C689.549 236.144 688.958 236.356 688.347 236.361L688.483 236.357Z" fill="#515979"/>
<path d="M682.292 234.191C687.539 234.007 691.644 229.598 691.46 224.342C691.277 219.086 686.875 214.974 681.628 215.157C676.381 215.34 672.276 219.749 672.46 225.006C672.643 230.262 677.045 234.374 682.292 234.191Z" fill="#515979"/>
<path d="M684.418 226.97C685.73 226.924 686.756 225.822 686.71 224.508C686.664 223.194 685.564 222.166 684.252 222.212C682.94 222.257 681.914 223.36 681.96 224.674C682.006 225.988 683.106 227.016 684.418 226.97Z" fill="white"/>
<path d="M676.847 201.984C677.694 201.516 678.593 201.151 679.526 200.897C680.409 200.647 681.313 200.483 682.227 200.407C684.182 200.265 686.145 200.535 687.989 201.2C689.952 201.88 691.7 203.068 693.055 204.644C694.387 206.152 695.258 208.011 695.566 210.001C695.636 210.363 695.632 210.735 695.554 211.095C695.476 211.455 695.326 211.795 695.113 212.096C694.9 212.396 694.628 212.649 694.314 212.841C694 213.033 693.651 213.159 693.287 213.212C692.925 213.276 692.554 213.266 692.196 213.183C691.838 213.099 691.501 212.944 691.204 212.726L690.661 212.337C689.767 211.591 688.835 210.893 687.87 210.243C687.035 209.699 686.145 209.246 685.214 208.892C684.173 208.506 683.104 208.202 682.016 207.983C681.428 207.868 680.811 207.726 680.183 207.639C679.555 207.552 678.818 207.455 678.322 207.282L677.264 206.938C676.594 206.702 676.043 206.213 675.729 205.575C675.414 204.937 675.362 204.201 675.582 203.525C675.794 202.87 676.245 202.319 676.847 201.984Z" fill="#515979"/>
<path d="M653.196 237.589C652.723 237.622 652.25 237.526 651.827 237.31C650.288 236.684 648.634 236.391 646.973 236.449C645.313 236.507 643.683 236.915 642.191 237.647C641.569 238.011 640.829 238.114 640.132 237.931C639.435 237.749 638.839 237.296 638.475 236.674C638.11 236.051 638.008 235.309 638.19 234.611C638.372 233.913 638.824 233.316 639.445 232.951C641.718 231.769 644.225 231.11 646.784 231.02C649.343 230.931 651.889 231.414 654.239 232.434C654.786 232.706 655.226 233.154 655.488 233.706C655.75 234.259 655.819 234.884 655.682 235.48C655.546 236.077 655.213 236.61 654.737 236.993C654.262 237.376 653.671 237.588 653.06 237.594L653.196 237.589Z" fill="#515979"/>
<path d="M647.005 235.423C652.252 235.24 656.357 230.83 656.173 225.574C655.99 220.318 651.588 216.206 646.341 216.389C641.094 216.572 636.989 220.982 637.173 226.238C637.356 231.494 641.758 235.606 647.005 235.423Z" fill="#515979"/>
<path d="M649.131 228.202C650.443 228.157 651.469 227.054 651.423 225.74C651.377 224.426 650.277 223.398 648.965 223.444C647.653 223.49 646.627 224.592 646.673 225.906C646.719 227.22 647.819 228.248 649.131 228.202Z" fill="white"/>
<path d="M649.115 208.288C648.62 208.496 647.876 208.604 647.284 208.774C646.692 208.945 646.058 209.089 645.48 209.246C644.409 209.539 643.364 209.917 642.353 210.376C641.449 210.794 640.592 211.307 639.797 211.908C638.88 212.623 637.999 213.386 637.16 214.191L636.658 214.617C636.38 214.871 636.053 215.063 635.698 215.184C635.342 215.304 634.965 215.349 634.591 215.316C634.217 215.283 633.854 215.173 633.525 214.992C633.195 214.811 632.907 214.564 632.678 214.266C632.203 213.69 631.972 212.951 632.035 212.206C632.203 210.2 632.943 208.284 634.166 206.687C635.442 205.025 637.137 203.735 639.077 202.949C640.848 202.162 642.764 201.752 644.701 201.745C645.618 201.757 646.532 201.857 647.43 202.045C648.378 202.234 649.301 202.535 650.179 202.942C650.648 203.165 651.043 203.519 651.319 203.96C651.594 204.401 651.736 204.913 651.73 205.433C651.724 205.953 651.569 206.461 651.284 206.895C650.998 207.33 650.595 207.674 650.12 207.886L649.115 208.288Z" fill="#515979"/>
<path d="M665.694 264.731C660.654 264.907 655.752 263.07 652.064 259.625C648.376 256.18 646.205 251.409 646.028 246.36C646.003 245.639 646.265 244.938 646.756 244.41C647.247 243.882 647.928 243.572 648.648 243.547L681.221 242.409C681.94 242.384 682.641 242.646 683.168 243.138C683.695 243.631 684.005 244.312 684.03 245.033C684.117 247.533 683.712 250.025 682.838 252.368C681.964 254.711 680.637 256.858 678.935 258.687C677.232 260.516 675.186 261.991 672.914 263.028C670.643 264.065 668.189 264.644 665.694 264.731V264.731Z" fill="#515979"/>
<path d="M681.315 245.128C681.467 249.455 679.896 253.665 676.948 256.831C674.001 259.997 669.918 261.861 665.599 262.012C661.279 262.163 657.077 260.588 653.916 257.635C650.755 254.682 648.894 250.593 648.743 246.266L681.315 245.128ZM681.126 239.69L648.553 240.827C647.113 240.878 645.752 241.499 644.77 242.554C643.787 243.61 643.264 245.013 643.314 246.455C643.397 249.313 644.041 252.125 645.209 254.734C646.377 257.342 648.046 259.694 650.121 261.656C654.313 265.618 659.904 267.75 665.664 267.584C671.425 267.417 676.883 264.964 680.838 260.766C684.793 256.568 686.921 250.967 686.753 245.197L686.746 244.979C686.695 243.537 686.075 242.174 685.021 241.19C683.968 240.205 682.567 239.68 681.127 239.731L681.126 239.69Z" fill="#515979"/>
<path d="M665.599 262.012C672.292 261.778 677.634 259.154 677.529 256.15C677.424 253.147 671.913 250.901 665.219 251.135C658.525 251.369 653.184 253.993 653.289 256.997C653.394 260 658.905 262.245 665.599 262.012Z" fill="#EF7D7D"/>
<path d="M765.953 217.344C765.953 217.344 741.302 227.434 742.566 251.157C743.829 274.879 768.087 278.456 768.087 278.456L765.953 217.344Z" fill="#9E8271"/>
<path d="M606.829 213.386C621.568 205.085 622.376 191.635 622.376 191.635L569.445 193.483C568.221 193.528 567.022 193.849 565.939 194.422C564.856 194.994 563.915 195.805 563.187 196.792L597.666 230C597.563 226.661 598.36 223.356 599.972 220.433C601.584 217.51 603.953 215.075 606.829 213.386V213.386Z" fill="#9E8271"/>
<path d="M564.6 288.217L565.765 321.567C565.84 323.73 566.771 325.775 568.351 327.252C569.932 328.728 572.033 329.515 574.193 329.44L611.068 328.152C611.057 328.03 611.052 327.907 611.055 327.785C611.055 327.785 607.404 294.045 564.6 288.217Z" fill="#9E8271"/>
<path d="M566.192 333.803C565.407 333.829 564.63 333.626 563.957 333.221C563.284 332.815 562.742 332.222 562.397 331.515C562.052 330.808 561.919 330.016 562.013 329.234C562.107 328.453 562.425 327.715 562.928 327.111L621.628 257C622.339 256.237 623.315 255.776 624.354 255.712C625.394 255.647 626.419 255.984 627.219 256.654C628.018 257.323 628.531 258.274 628.653 259.31C628.774 260.347 628.494 261.39 627.871 262.227L569.171 332.338C568.805 332.778 568.35 333.135 567.837 333.388C567.324 333.64 566.763 333.782 566.192 333.803V333.803Z" fill="#515979"/>
<path d="M713.964 290.528C713.964 290.528 704.114 284.352 692.076 300.726C680.038 317.1 711.852 315.662 711.852 315.662C711.852 315.662 750.622 313.75 713.964 290.528Z" fill="#9E8271"/>
<path d="M756.738 186.943L727.64 187.959C727.64 187.959 731.212 204.264 750.105 203.605C754.434 203.453 759.776 203.103 765.44 202.661L765.166 194.816C765.091 192.652 764.16 190.608 762.58 189.131C760.999 187.655 758.898 186.867 756.738 186.943Z" fill="#9E8271"/>
<path d="M666.813 296.776C664.401 296.859 661.997 296.446 659.751 295.562C657.504 294.678 655.462 293.343 653.751 291.637L558.427 196.659C557.8 195.872 557.485 194.881 557.543 193.876C557.601 192.871 558.028 191.923 558.741 191.214C559.455 190.505 560.405 190.086 561.409 190.036C562.412 189.986 563.399 190.31 564.179 190.945L659.49 285.924C660.412 286.844 661.513 287.564 662.724 288.041C663.935 288.517 665.23 288.74 666.531 288.694C667.831 288.649 669.108 288.337 670.283 287.777C671.458 287.217 672.505 286.421 673.361 285.44L761.814 184.043C762.529 183.243 763.529 182.758 764.599 182.692C765.669 182.625 766.721 182.984 767.529 183.69C768.336 184.396 768.834 185.392 768.913 186.463C768.993 187.533 768.648 188.592 767.953 189.41L679.484 290.739C677.896 292.559 675.952 294.034 673.773 295.073C671.594 296.111 669.225 296.691 666.813 296.776V296.776Z" fill="#515979"/>
<path d="M685.373 344.206L686.703 355.049C686.866 356.476 686.459 357.908 685.572 359.036C684.685 360.163 683.389 360.894 681.967 361.068V361.068C680.537 361.242 679.096 360.841 677.962 359.951C676.827 359.061 676.092 357.757 675.918 356.324L674.588 345.481" fill="#FDE4DD"/>
<path d="M681.598 364.497C679.394 364.572 677.243 363.818 675.568 362.382C673.893 360.946 672.815 358.934 672.549 356.741L671.219 345.898C671.11 344.999 671.362 344.094 671.919 343.382C672.477 342.669 673.294 342.208 674.191 342.099C675.088 341.99 675.992 342.242 676.703 342.801C677.415 343.359 677.875 344.178 677.984 345.077L679.314 355.92C679.345 356.183 679.429 356.436 679.561 356.666C679.693 356.895 679.87 357.095 680.081 357.254C680.29 357.421 680.53 357.544 680.786 357.617C681.043 357.69 681.312 357.711 681.577 357.678C682.115 357.611 682.604 357.334 682.938 356.906C683.272 356.479 683.423 355.936 683.359 355.397L682.029 344.554C681.92 343.655 682.172 342.75 682.73 342.038C683.287 341.325 684.104 340.864 685.001 340.755C685.899 340.646 686.802 340.898 687.514 341.457C688.225 342.015 688.686 342.834 688.795 343.733L690.124 354.576C690.39 356.894 689.732 359.224 688.292 361.059C686.852 362.893 684.748 364.084 682.436 364.373C682.159 364.43 681.879 364.471 681.598 364.497V364.497Z" fill="#515979"/>
<path d="M662.456 345.946L661.886 356.855C661.801 358.289 661.154 359.632 660.085 360.59C659.016 361.548 657.613 362.043 656.18 361.968C654.742 361.894 653.391 361.25 652.426 360.179C651.461 359.107 650.961 357.695 651.035 356.254L651.605 345.344" fill="#FDE4DD"/>
<path d="M656.789 365.377L656.001 365.405C653.675 365.278 651.493 364.237 649.928 362.507C648.364 360.778 647.545 358.5 647.648 356.168L648.218 345.258C648.266 344.354 648.67 343.506 649.342 342.901C650.014 342.295 650.899 341.982 651.802 342.03C652.704 342.078 653.551 342.483 654.155 343.156C654.76 343.829 655.073 344.715 655.025 345.62L654.455 356.529C654.44 356.798 654.478 357.067 654.568 357.321C654.657 357.575 654.796 357.809 654.976 358.009C655.156 358.209 655.374 358.371 655.617 358.486C655.86 358.602 656.123 358.668 656.392 358.681C656.928 358.703 657.452 358.515 657.852 358.155C658.251 357.794 658.493 357.292 658.526 356.755L659.096 345.845C659.119 345.397 659.229 344.959 659.421 344.554C659.613 344.149 659.883 343.786 660.215 343.485C660.547 343.185 660.935 342.953 661.357 342.803C661.778 342.653 662.225 342.587 662.672 342.61C663.119 342.633 663.557 342.743 663.961 342.936C664.366 343.128 664.728 343.398 665.028 343.731C665.328 344.064 665.559 344.453 665.709 344.875C665.86 345.297 665.925 345.745 665.902 346.193L665.332 357.102C665.216 359.308 664.281 361.39 662.711 362.941C661.142 364.492 659.05 365.399 656.847 365.484L656.789 365.377Z" fill="#515979"/>
<path d="M163.62 207.569C180.887 201.285 189.782 182.168 183.486 164.87C177.19 147.573 158.089 138.645 140.821 144.93C123.554 151.215 114.66 170.332 120.956 187.629C127.251 204.927 146.353 213.854 163.62 207.569Z" fill="#FDE4DD"/>
<path d="M141.985 148.126C147.537 146.105 153.566 145.779 159.307 147.189C165.049 148.599 170.246 151.681 174.241 156.047C178.237 160.412 180.851 165.865 181.753 171.714C182.655 177.564 181.805 183.549 179.311 188.911C176.816 194.273 172.788 198.772 167.737 201.84C162.686 204.907 156.839 206.405 150.934 206.143C145.029 205.882 139.333 203.873 134.564 200.371C129.796 196.869 126.171 192.031 124.146 186.468C121.431 179.009 121.785 170.779 125.131 163.589C128.476 156.398 134.539 150.836 141.985 148.126ZM139.658 141.734C132.844 144.215 126.919 148.664 122.633 154.519C118.347 160.373 115.893 167.371 115.581 174.627C115.268 181.884 117.112 189.072 120.878 195.283C124.645 201.495 130.165 206.45 136.74 209.524C143.316 212.597 150.652 213.65 157.82 212.549C164.988 211.448 171.668 208.243 177.013 203.339C182.358 198.435 186.129 192.052 187.849 184.998C189.569 177.944 189.161 170.536 186.676 163.709C183.344 154.555 176.519 147.097 167.701 142.976C158.884 138.855 148.796 138.408 139.658 141.734Z" fill="#515979"/>
<path d="M193.28 15.0878L17.1746 79.185C10.8315 81.4936 7.5643 88.5162 9.87701 94.8704L50.8218 207.365C53.1345 213.719 60.1514 216.999 66.4945 214.69L242.6 150.593C248.943 148.284 252.21 141.262 249.897 134.908L208.953 22.4128C206.64 16.0586 199.623 12.7792 193.28 15.0878Z" fill="white"/>
<path d="M194.676 18.9229C196.707 18.1838 198.948 18.283 200.908 19.1988C202.867 20.1146 204.384 21.7719 205.124 23.8062L246.069 136.301C246.809 138.335 246.713 140.58 245.8 142.541C244.888 144.502 243.235 146.019 241.204 146.758L65.0986 210.855C63.0679 211.594 60.8263 211.495 58.8668 210.579C56.9073 209.663 55.3906 208.006 54.6502 205.972L13.7054 93.4769C12.965 91.4427 13.0616 89.1982 13.974 87.2371C14.8864 85.276 16.5398 83.7591 18.5705 83.02L194.676 18.9229ZM191.884 11.2528L15.7788 75.3499C11.7174 76.8281 8.41057 79.862 6.58581 83.7841C4.76106 87.7062 4.56783 92.1953 6.04864 96.2638L46.9934 208.759C48.4742 212.827 51.5078 216.142 55.4267 217.973C59.3456 219.805 63.8289 220.003 67.8903 218.525L243.996 154.428C248.057 152.95 251.364 149.916 253.189 145.994C255.013 142.072 255.207 137.583 253.726 133.514L212.781 21.0193C211.3 16.9509 208.267 13.6362 204.348 11.8047C200.429 9.97307 195.946 9.77455 191.884 11.2528V11.2528Z" fill="#515979"/>
<path d="M132.269 146.566L10.9137 85.8068L18.4885 106.618L125.344 160.813C127.001 161.654 128.813 162.146 130.667 162.258C132.522 162.37 134.378 162.1 136.123 161.465C137.868 160.83 139.464 159.843 140.813 158.565C142.161 157.288 143.233 155.746 143.962 154.037L148.412 143.63C146.411 145.815 143.751 147.285 140.836 147.816C137.922 148.346 134.913 147.907 132.269 146.566V146.566Z" fill="#ECE6E3"/>
<path d="M250.257 147.806C249.719 148.001 249.146 148.08 248.576 148.038C248.005 147.996 247.45 147.834 246.946 147.564L166.256 104.547C165.753 104.313 165.304 103.978 164.935 103.564C164.566 103.15 164.285 102.665 164.109 102.139C163.934 101.613 163.867 101.056 163.913 100.504C163.959 99.951 164.118 99.4136 164.378 98.9245C164.639 98.4354 164.997 98.0048 165.43 97.659C165.862 97.3131 166.361 97.0594 166.895 96.9131C167.429 96.7669 167.988 96.7314 168.537 96.8086C169.085 96.8858 169.612 97.0742 170.086 97.3623L250.776 140.379C251.469 140.751 252.04 141.316 252.42 142.005C252.8 142.694 252.973 143.478 252.918 144.263C252.863 145.048 252.583 145.801 252.11 146.429C251.638 147.058 250.994 147.536 250.257 147.806V147.806Z" fill="#515979"/>
<path d="M145.031 87.0102C144.591 87.1868 144.111 87.2413 143.643 87.1679C141.985 87.0485 140.322 87.2805 138.76 87.8487C137.199 88.417 135.776 89.3087 134.583 90.4656C134.104 91.0045 133.431 91.3308 132.712 91.3726C131.993 91.4145 131.286 91.1685 130.747 90.6889C130.209 90.2092 129.882 89.5351 129.839 88.8148C129.797 88.0946 130.042 87.3872 130.52 86.8483C132.316 85.0223 134.497 83.6204 136.903 82.7447C139.309 81.8689 141.88 81.5413 144.43 81.7856C145.034 81.8744 145.591 82.1646 146.011 82.6092C146.431 83.0539 146.689 83.6271 146.744 84.2364C146.799 84.8456 146.647 85.4553 146.313 85.967C145.979 86.4787 145.482 86.8626 144.903 87.0566L145.031 87.0102Z" fill="#515979"/>
<path d="M138.474 86.8632C143.407 85.0676 145.949 79.6055 144.15 74.6634C142.351 69.7213 136.894 67.1706 131.96 68.9663C127.027 70.7619 124.485 76.224 126.284 81.166C128.083 86.1081 133.541 88.6588 138.474 86.8632Z" fill="#515979"/>
<path d="M138.265 79.339C139.498 78.8901 140.133 77.5246 139.683 76.2891C139.234 75.0536 137.869 74.4159 136.636 74.8648C135.403 75.3137 134.767 76.6792 135.217 77.9148C135.667 79.1503 137.031 79.788 138.265 79.339Z" fill="white"/>
<path d="M123.342 57.9155C124.003 57.2092 124.746 56.5841 125.555 56.0533C126.317 55.543 127.126 55.1078 127.972 54.7537C129.787 54.0138 131.738 53.664 133.697 53.7268C135.774 53.7668 137.803 54.3567 139.58 55.4365C141.312 56.4595 142.716 57.9585 143.623 59.7557C143.801 60.078 143.913 60.4332 143.95 60.7997C143.987 61.1662 143.949 61.5363 143.839 61.8877C143.73 62.239 143.549 62.5643 143.31 62.8437C143.071 63.1232 142.777 63.351 142.447 63.5134C142.123 63.6864 141.767 63.7918 141.401 63.8231C141.035 63.8543 140.666 63.8108 140.317 63.6952L139.68 63.4929C138.599 63.0604 137.497 62.6835 136.378 62.3637C135.416 62.1046 134.43 61.9493 133.435 61.9004C132.326 61.8542 131.215 61.8955 130.112 62.0239C129.517 62.0958 128.887 62.1514 128.263 62.2628C127.639 62.3741 126.908 62.5099 126.383 62.4982L125.27 62.4979C124.56 62.4807 123.885 62.1858 123.389 61.6763C122.893 61.1669 122.615 60.4833 122.616 59.7722C122.615 59.0833 122.874 58.4197 123.342 57.9155Z" fill="#515979"/>
<path d="M111.852 99.0865C111.412 99.2644 110.932 99.3189 110.464 99.2441C108.806 99.1247 107.142 99.3567 105.581 99.925C104.02 100.493 102.596 101.385 101.403 102.542C100.925 103.081 100.252 103.407 99.5327 103.449C98.8135 103.491 98.1068 103.245 97.5681 102.765C97.0294 102.285 96.7028 101.611 96.6601 100.891C96.6175 100.171 96.8624 99.4635 97.3408 98.9246C99.137 97.0985 101.317 95.6967 103.723 94.8209C106.13 93.9452 108.701 93.6175 111.251 93.8618C111.855 93.9507 112.412 94.2408 112.832 94.6855C113.252 95.1302 113.51 95.7034 113.565 96.3126C113.619 96.9219 113.468 97.5315 113.134 98.0433C112.8 98.555 112.303 98.9388 111.724 99.1329L111.852 99.0865Z" fill="#515979"/>
<path d="M105.295 98.9395C110.228 97.1438 112.769 91.6818 110.971 86.7397C109.172 81.7976 103.714 79.2469 98.7808 81.0426C93.8473 82.8382 91.3061 88.3002 93.1049 93.2423C94.9037 98.1844 100.361 100.735 105.295 98.9395Z" fill="#515979"/>
<path d="M105.085 91.4153C106.319 90.9664 106.954 89.6009 106.504 88.3654C106.055 87.1298 104.69 86.4922 103.457 86.9411C102.223 87.39 101.588 88.7555 102.038 89.991C102.487 91.2265 103.852 91.8642 105.085 91.4153Z" fill="white"/>
<path d="M98.9162 72.4808C98.5092 72.8316 97.8352 73.1638 97.3249 73.5088C96.8146 73.8538 96.2567 74.1871 95.7545 74.5147C94.8275 75.1249 93.95 75.8074 93.1301 76.5557C92.3995 77.2325 91.7435 77.9857 91.1731 78.8025C90.5216 79.7667 89.9197 80.7637 89.37 81.7896L89.0246 82.3496C88.8389 82.6762 88.5875 82.9606 88.2863 83.1849C87.9852 83.4092 87.6408 83.5684 87.2749 83.6526C86.909 83.7368 86.5295 83.7441 86.1605 83.6741C85.7915 83.604 85.4409 83.4582 85.1308 83.2457C84.5011 82.8444 84.0532 82.2123 83.883 81.4849C83.423 79.5248 83.5344 77.4744 84.204 75.5772C84.9039 73.6028 86.1175 71.8518 87.7194 70.5047C89.161 69.209 90.8558 68.2274 92.6966 67.6219C93.5721 67.3495 94.472 67.1625 95.3837 67.0637C96.3444 66.9505 97.3151 66.952 98.2757 67.0679C98.7909 67.1351 99.2763 67.3487 99.6743 67.6836C100.072 68.0184 100.366 68.4604 100.521 68.9571C100.676 69.4538 100.685 69.9845 100.548 70.4861C100.411 70.9877 100.133 71.4393 99.7477 71.7873L98.9162 72.4808Z" fill="#515979"/>
<path d="M132.125 121.038C127.387 122.762 122.156 122.531 117.584 120.394C113.012 118.257 109.473 114.39 107.746 109.644C107.499 108.965 107.531 108.217 107.835 107.564C108.139 106.91 108.69 106.404 109.367 106.158L139.994 95.0106C140.671 94.7642 141.418 94.7973 142.071 95.1026C142.725 95.4078 143.23 95.9603 143.477 96.6383C144.332 98.9886 144.717 101.484 144.61 103.982C144.502 106.48 143.904 108.932 142.85 111.198C141.796 113.464 140.307 115.499 138.466 117.187C136.626 118.875 134.471 120.184 132.125 121.038V121.038Z" fill="#515979"/>
<path d="M140.925 97.5673C142.406 101.636 142.212 106.125 140.388 110.047C138.563 113.969 135.256 117.003 131.195 118.481C127.133 119.959 122.65 119.761 118.731 117.929C114.812 116.098 111.779 112.783 110.298 108.715L140.925 97.5673ZM139.064 92.4539L108.437 103.601C107.083 104.094 105.981 105.105 105.372 106.413C104.764 107.72 104.7 109.216 105.193 110.573C106.155 113.264 107.637 115.741 109.553 117.86C111.47 119.98 113.785 121.701 116.365 122.926C121.576 125.399 127.552 125.699 132.979 123.76C138.406 121.821 142.839 117.802 145.303 112.587C147.767 107.372 148.06 101.389 146.118 95.9523L146.043 95.7478C145.55 94.3916 144.538 93.2867 143.232 92.6762C141.926 92.0657 140.431 91.9995 139.078 92.4922L139.064 92.4539Z" fill="#515979"/>
<path d="M131.195 118.481C137.488 116.19 141.757 112.044 140.729 109.22C139.701 106.396 133.766 105.964 127.472 108.254C121.179 110.545 116.91 114.691 117.938 117.515C118.966 120.34 124.901 120.772 131.195 118.481Z" fill="#EF7D7D"/>
<path d="M212.834 44.9884C212.834 44.9884 192.508 62.2019 201.04 84.3733C209.572 106.545 233.748 102.45 233.748 102.45L212.834 44.9884Z" fill="#9E8271"/>
<path d="M60.2749 90.396C71.7275 77.9467 68.3394 64.9056 68.3394 64.9056L18.5705 83.02C17.4199 83.4409 16.3793 84.1162 15.5259 84.9958C14.6726 85.8753 14.0285 86.9365 13.6416 88.1002L56.6945 109.028C55.565 105.885 55.3013 102.496 55.9314 99.2173C56.5614 95.9387 58.0618 92.8916 60.2749 90.396V90.396Z" fill="#9E8271"/>
<path d="M43.2368 174.614L54.6502 205.972C55.3906 208.006 56.9073 209.663 58.8668 210.579C60.8263 211.495 63.0679 211.594 65.0986 210.855L99.771 198.235C99.7227 198.123 99.6807 198.008 99.6453 197.89C99.6453 197.89 85.7466 166.93 43.2368 174.614Z" fill="#9E8271"/>
<path d="M58.8377 217.477C58.0988 217.744 57.2982 217.792 56.5324 217.614C55.7667 217.436 55.0684 217.04 54.5218 216.474C53.9751 215.908 53.6035 215.196 53.4515 214.423C53.2996 213.651 53.3739 212.851 53.6655 212.121L87.8271 127.302C88.2675 126.357 89.053 125.617 90.022 125.235C90.991 124.852 92.07 124.856 93.0372 125.245C94.0043 125.635 94.7861 126.381 95.2218 127.329C95.6575 128.277 95.714 129.356 95.3798 130.344L61.2182 215.163C61.006 215.694 60.6844 216.175 60.2742 216.574C59.8641 216.973 59.3746 217.28 58.8377 217.477V217.477Z" fill="#515979"/>
<path d="M186.005 130.656C186.005 130.656 174.729 127.826 168.339 147.119C161.95 166.411 191.763 155.213 191.763 155.213C191.763 155.213 228.044 141.414 186.005 130.656Z" fill="#9E8271"/>
<path d="M194.676 18.9229L167.316 28.8812C167.316 28.8812 175.752 43.2844 193.516 36.8189C197.586 35.3373 202.558 33.3538 207.809 31.1822L205.124 23.8062C204.384 21.7719 202.867 20.1146 200.908 19.1988C198.948 18.283 196.707 18.1838 194.676 18.9229Z" fill="#9E8271"/>
<path d="M143.092 151.169C140.824 151.993 138.41 152.343 136.001 152.197C133.591 152.05 131.236 151.411 129.082 150.318L9.0728 89.4447C8.23326 88.8903 7.62762 88.0449 7.37228 87.0712C7.11695 86.0974 7.22995 85.0639 7.68955 84.1693C8.14916 83.2747 8.92294 82.5821 9.86218 82.2247C10.8014 81.8673 11.8398 81.8702 12.7778 82.2329L132.774 143.111C133.935 143.701 135.204 144.046 136.504 144.125C137.803 144.204 139.104 144.015 140.326 143.57C141.549 143.125 142.667 142.433 143.611 141.538C144.556 140.642 145.306 139.562 145.816 138.364L198.607 14.5966C199.04 13.6149 199.841 12.8438 200.838 12.4504C201.835 12.057 202.947 12.0729 203.933 12.4947C204.919 12.9166 205.7 13.7103 206.107 14.704C206.513 15.6977 206.512 16.8112 206.104 17.8034L153.277 141.511C152.33 143.733 150.937 145.737 149.185 147.398C147.433 149.059 145.359 150.342 143.092 151.169V151.169Z" fill="#515979"/>
<path d="M175.401 190.542L180.016 200.444C180.612 201.75 180.668 203.238 180.173 204.584C179.677 205.931 178.671 207.026 177.372 207.631V207.631C176.066 208.239 174.571 208.302 173.217 207.807C171.864 207.311 170.761 206.298 170.153 204.989L165.537 195.087" fill="#FDE4DD"/>
<path d="M178.08 211.007C176.008 211.759 173.729 211.706 171.692 210.858C169.655 210.01 168.009 208.429 167.077 206.427L162.462 196.525C162.081 195.704 162.04 194.765 162.35 193.915C162.66 193.065 163.295 192.374 164.115 191.993C164.934 191.612 165.872 191.573 166.721 191.885C167.57 192.196 168.261 192.832 168.642 193.653L173.258 203.555C173.369 203.795 173.527 204.01 173.723 204.188C173.92 204.365 174.15 204.501 174.4 204.587C174.65 204.681 174.916 204.724 175.183 204.714C175.449 204.704 175.711 204.641 175.953 204.528C176.444 204.298 176.823 203.883 177.009 203.373C177.194 202.864 177.171 202.301 176.943 201.808L172.328 191.906C171.946 191.085 171.906 190.147 172.216 189.297C172.526 188.447 173.161 187.755 173.98 187.374C174.8 186.994 175.738 186.954 176.587 187.266C177.436 187.577 178.127 188.213 178.508 189.034L183.124 198.936C184.093 201.059 184.187 203.478 183.384 205.668C182.582 207.858 180.948 209.641 178.839 210.63C178.593 210.769 178.34 210.895 178.08 211.007V211.007Z" fill="#515979"/>
<path d="M154.142 199.278L156.971 209.83C157.334 211.22 157.134 212.697 156.413 213.938C155.693 215.18 154.511 216.085 153.125 216.456C151.734 216.83 150.251 216.635 149.002 215.914C147.753 215.193 146.841 214.005 146.466 212.612L143.637 202.06" fill="#FDE4DD"/>
<path d="M154.757 219.51L154.017 219.78C151.766 220.378 149.368 220.062 147.346 218.901C145.324 217.739 143.841 215.826 143.218 213.576L140.389 203.024C140.155 202.15 140.278 201.218 140.73 200.435C141.182 199.651 141.926 199.08 142.8 198.846C143.673 198.613 144.603 198.737 145.386 199.19C146.169 199.644 146.741 200.39 146.975 201.265L149.804 211.816C149.873 212.077 149.992 212.321 150.156 212.535C150.319 212.749 150.524 212.928 150.757 213.062C150.99 213.197 151.247 213.284 151.514 213.319C151.78 213.353 152.051 213.335 152.31 213.264C152.828 213.12 153.268 212.778 153.536 212.312C153.805 211.847 153.879 211.294 153.745 210.773L150.916 200.221C150.799 199.788 150.769 199.337 150.826 198.892C150.884 198.448 151.028 198.019 151.251 197.631C151.474 197.243 151.771 196.902 152.126 196.629C152.48 196.356 152.885 196.155 153.317 196.039C153.75 195.922 154.2 195.892 154.644 195.951C155.088 196.009 155.516 196.154 155.904 196.377C156.292 196.601 156.633 196.899 156.906 197.255C157.179 197.61 157.38 198.015 157.497 198.448L160.326 209C160.897 211.134 160.651 213.403 159.637 215.363C158.624 217.323 156.915 218.832 154.846 219.594L154.757 219.51Z" fill="#515979"/>
<path d="M324.194 402.649C342.291 405.84 359.552 393.731 362.748 375.603C365.945 357.475 353.866 340.193 335.77 337.002C317.673 333.812 300.412 345.92 297.216 364.048C294.019 382.176 306.098 399.458 324.194 402.649Z" fill="#FDE4DD"/>
<path d="M335.179 340.352C340.998 341.378 346.382 344.109 350.649 348.201C354.917 352.293 357.876 357.561 359.154 363.34C360.431 369.118 359.969 375.147 357.825 380.664C355.682 386.181 351.954 390.939 347.112 394.335C342.27 397.732 336.533 399.615 330.625 399.745C324.717 399.876 318.904 398.25 313.921 395.071C308.938 391.892 305.009 387.304 302.631 381.887C300.252 376.47 299.531 370.467 300.559 364.638C301.938 356.821 306.359 349.87 312.852 345.316C319.344 340.761 327.376 338.976 335.179 340.352ZM336.36 333.653C329.218 332.394 321.863 333.284 315.224 336.212C308.585 339.14 302.96 343.973 299.062 350.101C295.163 356.228 293.166 363.375 293.322 370.638C293.478 377.9 295.781 384.952 299.939 390.901C304.097 396.851 309.923 401.43 316.682 404.061C323.44 406.692 330.827 407.256 337.908 405.681C344.989 404.107 351.446 400.465 356.462 395.216C361.479 389.967 364.83 383.347 366.092 376.193C367.783 366.599 365.601 356.728 360.025 348.75C354.45 340.772 345.937 335.342 336.36 333.653Z" fill="#515979"/>
<path d="M446.121 250.785L261.561 218.242C254.913 217.07 248.573 221.518 247.398 228.177L226.61 346.073C225.436 352.732 229.873 359.081 236.521 360.253L421.081 392.796C427.729 393.968 434.069 389.52 435.244 382.861L456.032 264.965C457.206 258.306 452.769 251.957 446.121 250.785Z" fill="white"/>
<path d="M445.413 254.804C447.541 255.179 449.433 256.386 450.672 258.159C451.911 259.932 452.396 262.125 452.02 264.257L431.231 382.153C430.855 384.285 429.65 386.181 427.879 387.423C426.108 388.665 423.918 389.152 421.79 388.777L237.229 356.234C235.101 355.858 233.209 354.652 231.97 352.879C230.731 351.106 230.246 348.912 230.622 346.78L251.411 228.885C251.786 226.753 252.992 224.857 254.763 223.615C256.534 222.373 258.724 221.886 260.852 222.261L445.413 254.804ZM446.83 246.766L262.27 214.223C258.013 213.472 253.633 214.446 250.091 216.931C246.55 219.415 244.138 223.206 243.386 227.47L222.598 345.365C221.846 349.629 222.816 354.017 225.294 357.562C227.772 361.108 231.556 363.521 235.812 364.272L420.372 396.815C424.629 397.565 429.009 396.591 432.551 394.107C436.092 391.623 438.504 387.832 439.256 383.568L460.044 265.672C460.796 261.408 459.826 257.021 457.348 253.475C454.87 249.93 451.086 247.516 446.83 246.766V246.766Z" fill="#515979"/>
<path d="M327.545 334.143L252.828 220.846L248.982 242.657L314.424 343.019C315.439 344.576 316.763 345.907 318.312 346.932C319.862 347.956 321.605 348.65 323.434 348.973C325.263 349.295 327.138 349.239 328.945 348.806C330.751 348.374 332.45 347.575 333.937 346.459L342.994 339.671C340.168 340.564 337.129 340.507 334.34 339.509C331.551 338.511 329.165 336.626 327.545 334.143V334.143Z" fill="#ECE6E3"/>
<path d="M429.105 394.211C428.542 394.11 428.007 393.892 427.534 393.571C427.061 393.249 426.66 392.832 426.359 392.345L377.988 314.747C377.67 314.293 377.448 313.778 377.336 313.235C377.223 312.692 377.222 312.132 377.333 311.588C377.444 311.045 377.664 310.529 377.981 310.074C378.297 309.618 378.703 309.232 379.174 308.939C379.644 308.646 380.169 308.452 380.717 308.368C381.264 308.285 381.823 308.315 382.359 308.455C382.895 308.596 383.396 308.844 383.832 309.185C384.269 309.527 384.631 309.954 384.898 310.44L433.269 388.038C433.683 388.707 433.895 389.481 433.879 390.268C433.864 391.055 433.622 391.821 433.181 392.473C432.741 393.126 432.123 393.637 431.399 393.945C430.676 394.253 429.879 394.346 429.105 394.211V394.211Z" fill="#515979"/>
<path d="M368.375 288.947C367.906 288.88 367.463 288.687 367.094 288.39C365.719 287.457 364.162 286.826 362.526 286.538C360.889 286.249 359.211 286.31 357.599 286.715C356.915 286.943 356.169 286.889 355.525 286.566C354.882 286.242 354.393 285.676 354.166 284.991C353.939 284.306 353.993 283.559 354.317 282.914C354.64 282.269 355.206 281.779 355.889 281.551C358.358 280.868 360.947 280.744 363.469 281.189C365.99 281.633 368.381 282.635 370.467 284.122C370.946 284.501 371.283 285.031 371.425 285.626C371.566 286.221 371.503 286.846 371.246 287.401C370.988 287.956 370.552 288.408 370.007 288.684C369.462 288.961 368.84 289.045 368.241 288.923L368.375 288.947Z" fill="#515979"/>
<path d="M362.77 285.541C367.941 286.453 372.872 282.993 373.786 277.814C374.699 272.635 371.248 267.697 366.077 266.785C360.907 265.873 355.975 269.333 355.062 274.512C354.149 279.692 357.6 284.63 362.77 285.541Z" fill="#515979"/>
<path d="M366.351 278.92C367.643 279.148 368.876 278.283 369.105 276.988C369.333 275.694 368.47 274.459 367.178 274.231C365.885 274.003 364.652 274.868 364.424 276.163C364.196 277.458 365.058 278.692 366.351 278.92Z" fill="white"/>
<path d="M364.14 252.906C365.065 252.625 366.021 252.455 366.987 252.4C367.902 252.339 368.821 252.366 369.73 252.483C371.672 252.749 373.536 253.422 375.202 254.456C376.98 255.529 378.443 257.055 379.441 258.878C380.43 260.63 380.896 262.63 380.783 264.64C380.777 265.008 380.695 265.371 380.544 265.707C380.393 266.043 380.176 266.345 379.905 266.595C379.634 266.844 379.315 267.035 378.968 267.158C378.621 267.28 378.253 267.331 377.886 267.306C377.519 267.294 377.158 267.207 376.825 267.051C376.492 266.895 376.195 266.673 375.95 266.399L375.499 265.905C374.78 264.99 374.014 264.113 373.205 263.276C372.501 262.571 371.725 261.943 370.888 261.403C369.95 260.809 368.968 260.289 367.949 259.849C367.397 259.614 366.824 259.347 366.227 259.131C365.631 258.915 364.93 258.667 364.482 258.395L363.518 257.838C362.912 257.468 362.474 256.875 362.299 256.186C362.125 255.497 362.226 254.766 362.582 254.151C362.926 253.553 363.482 253.109 364.14 252.906Z" fill="#515979"/>
<path d="M333.603 282.816C333.133 282.75 332.69 282.557 332.322 282.258C330.946 281.326 329.389 280.695 327.753 280.407C326.117 280.118 324.438 280.179 322.827 280.584C322.143 280.811 321.397 280.758 320.753 280.434C320.109 280.111 319.62 279.544 319.394 278.86C319.167 278.175 319.221 277.428 319.544 276.783C319.868 276.138 320.433 275.648 321.117 275.42C323.586 274.737 326.175 274.613 328.696 275.058C331.218 275.502 333.609 276.504 335.695 277.991C336.174 278.37 336.511 278.9 336.652 279.495C336.794 280.09 336.731 280.715 336.473 281.27C336.216 281.825 335.78 282.277 335.235 282.553C334.69 282.829 334.068 282.914 333.469 282.792L333.603 282.816Z" fill="#515979"/>
<path d="M327.998 279.41C333.168 280.322 338.1 276.862 339.013 271.683C339.927 266.503 336.476 261.565 331.305 260.654C326.135 259.742 321.203 263.202 320.29 268.381C319.377 273.56 322.828 278.498 327.998 279.41Z" fill="#515979"/>
<path d="M331.579 272.789C332.871 273.017 334.104 272.152 334.333 270.857C334.561 269.562 333.698 268.328 332.405 268.1C331.113 267.872 329.88 268.737 329.652 270.032C329.423 271.327 330.286 272.561 331.579 272.789Z" fill="white"/>
<path d="M335.703 253.307C335.175 253.407 334.426 253.358 333.811 253.401C333.197 253.445 332.547 253.455 331.948 253.487C330.84 253.552 329.739 253.705 328.655 253.943C327.684 254.164 326.739 254.488 325.837 254.91C324.79 255.419 323.771 255.982 322.782 256.595L322.203 256.908C321.878 257.098 321.519 257.218 321.146 257.262C320.773 257.306 320.395 257.271 320.036 257.161C319.677 257.051 319.345 256.868 319.06 256.623C318.775 256.377 318.545 256.076 318.382 255.737C318.038 255.074 317.966 254.303 318.182 253.588C318.764 251.661 319.886 249.941 321.414 248.632C323.007 247.272 324.934 246.363 326.995 245.997C328.891 245.596 330.85 245.593 332.746 245.989C333.641 246.191 334.514 246.479 335.353 246.849C336.241 247.232 337.081 247.718 337.855 248.299C338.268 248.615 338.581 249.042 338.759 249.531C338.936 250.02 338.969 250.55 338.855 251.058C338.741 251.565 338.484 252.03 338.114 252.395C337.745 252.761 337.278 253.013 336.77 253.122L335.703 253.307Z" fill="#515979"/>
<path d="M340.185 311.963C335.219 311.087 330.805 308.272 327.914 304.135C325.023 299.998 323.891 294.88 324.768 289.905C324.894 289.195 325.296 288.563 325.886 288.149C326.476 287.735 327.206 287.572 327.916 287.698L360.013 293.357C360.722 293.482 361.353 293.885 361.766 294.475C362.179 295.066 362.341 295.798 362.215 296.508C361.781 298.971 360.867 301.325 359.525 303.435C358.182 305.544 356.439 307.369 354.393 308.804C352.347 310.239 350.039 311.257 347.602 311.799C345.164 312.341 342.644 312.397 340.185 311.963V311.963Z" fill="#515979"/>
<path d="M359.541 296.037C358.789 300.3 356.377 304.091 352.836 306.576C349.294 309.06 344.914 310.034 340.657 309.283C336.401 308.533 332.617 306.119 330.139 302.574C327.661 299.028 326.691 294.641 327.443 290.377L359.541 296.037ZM360.486 290.678L328.388 285.018C326.969 284.768 325.509 285.093 324.329 285.921C323.148 286.749 322.344 288.012 322.094 289.434C321.581 292.246 321.625 295.131 322.226 297.925C322.826 300.719 323.97 303.367 325.592 305.717C328.868 310.465 333.894 313.713 339.563 314.747C345.232 315.782 351.081 314.518 355.822 311.233C360.563 307.949 363.809 302.914 364.845 297.234L364.883 297.02C365.134 295.599 364.81 294.136 363.984 292.954C363.158 291.773 361.897 290.968 360.478 290.718L360.486 290.678Z" fill="#515979"/>
<path d="M340.657 309.284C347.253 310.447 353.023 308.99 353.545 306.03C354.067 303.071 349.143 299.729 342.547 298.566C335.951 297.403 330.181 298.859 329.659 301.819C329.137 304.778 334.061 308.12 340.657 309.284Z" fill="#EF7D7D"/>
<path d="M448.105 286.457C448.105 286.457 421.896 291.201 418.199 314.668C414.502 338.135 437.487 346.677 437.487 346.677L448.105 286.457Z" fill="#9E8271"/>
<path d="M293.281 249.501C309.424 244.446 313.011 231.458 313.011 231.458L260.852 222.261C259.646 222.05 258.407 222.115 257.228 222.45C256.049 222.785 254.961 223.382 254.044 224.196L280.865 263.847C281.458 260.56 282.924 257.493 285.109 254.969C287.294 252.445 290.117 250.556 293.281 249.501V249.501Z" fill="#9E8271"/>
<path d="M236.417 313.917L230.622 346.78C230.246 348.912 230.731 351.106 231.97 352.879C233.209 354.652 235.101 355.858 237.229 356.234L273.566 362.641C273.581 362.519 273.602 362.398 273.63 362.279C273.63 362.279 277.073 328.518 236.417 313.917Z" fill="#9E8271"/>
<path d="M228.496 358.838C227.723 358.7 227.006 358.341 226.431 357.804C225.857 357.267 225.451 356.575 225.26 355.811C225.07 355.048 225.104 354.245 225.359 353.5C225.613 352.755 226.077 352.1 226.695 351.613L298.689 295.239C299.543 294.641 300.593 294.393 301.624 294.546C302.654 294.699 303.587 295.242 304.23 296.063C304.872 296.884 305.177 297.92 305.08 298.959C304.983 299.998 304.493 300.961 303.709 301.65L231.715 358.024C231.265 358.378 230.746 358.634 230.192 358.774C229.637 358.914 229.06 358.936 228.496 358.838V358.838Z" fill="#515979"/>
<path d="M382.037 347.233C382.037 347.233 373.686 339.143 358.507 352.657C343.327 366.17 374.746 371.378 374.746 371.378C374.746 371.378 413.065 377.569 382.037 347.233Z" fill="#9E8271"/>
<path d="M445.413 254.804L416.739 249.748C416.739 249.748 416.843 266.44 435.46 269.722C439.726 270.475 445.024 271.243 450.657 271.988L452.02 264.257C452.396 262.125 451.911 259.932 450.672 258.159C449.433 256.386 447.541 255.179 445.413 254.804Z" fill="#9E8271"/>
<path d="M334.617 343.54C332.24 343.12 329.975 342.217 327.961 340.885C325.948 339.553 324.228 337.822 322.909 335.798L249.415 223.076C248.965 222.176 248.863 221.141 249.129 220.17C249.395 219.199 250.009 218.361 250.855 217.816C251.7 217.271 252.716 217.058 253.708 217.218C254.7 217.378 255.598 217.9 256.229 218.683L329.71 331.403C330.421 332.494 331.347 333.428 332.433 334.146C333.518 334.864 334.74 335.351 336.021 335.577C337.302 335.803 338.616 335.763 339.882 335.459C341.147 335.156 342.338 334.596 343.378 333.813L450.981 253.023C451.846 252.389 452.926 252.122 453.986 252.28C455.046 252.438 456.001 253.007 456.644 253.866C457.287 254.724 457.566 255.802 457.421 256.866C457.277 257.93 456.719 258.894 455.87 259.549L348.266 340.27C346.334 341.72 344.127 342.759 341.779 343.321C339.431 343.884 336.994 343.958 334.617 343.54V343.54Z" fill="#515979"/>
<path d="M342.91 393.793L341.957 404.676C341.819 406.105 341.124 407.422 340.022 408.34C338.92 409.258 337.5 409.703 336.073 409.578V409.578C334.638 409.452 333.312 408.759 332.387 407.653C331.462 406.547 331.014 405.118 331.142 403.681L332.095 392.798" fill="#FDE4DD"/>
<path d="M334.998 412.856C332.828 412.471 330.88 411.286 329.54 409.533C328.2 407.78 327.565 405.588 327.76 403.388L328.713 392.505C328.794 391.603 329.228 390.77 329.922 390.189C330.615 389.608 331.51 389.327 332.411 389.407C333.311 389.487 334.142 389.922 334.722 390.616C335.302 391.31 335.582 392.206 335.502 393.108L334.548 403.991C334.524 404.255 334.554 404.52 334.635 404.772C334.716 405.024 334.847 405.256 335.021 405.456C335.19 405.662 335.399 405.833 335.635 405.957C335.871 406.082 336.13 406.158 336.396 406.182C336.936 406.228 337.472 406.058 337.887 405.709C338.303 405.361 338.564 404.862 338.613 404.321L339.567 393.438C339.647 392.536 340.082 391.703 340.775 391.122C341.469 390.541 342.364 390.26 343.264 390.34C344.164 390.42 344.996 390.855 345.575 391.549C346.155 392.243 346.436 393.139 346.355 394.041L345.402 404.924C345.18 407.247 344.051 409.389 342.261 410.884C340.471 412.379 338.165 413.107 335.844 412.908C335.561 412.906 335.279 412.889 334.998 412.856V412.856Z" fill="#515979"/>
<path d="M320.132 390.73L317.306 401.282C316.925 402.668 316.013 403.846 314.768 404.561C313.524 405.276 312.048 405.469 310.662 405.098C309.27 404.726 308.083 403.815 307.362 402.566C306.641 401.318 306.445 399.833 306.817 398.438L309.643 387.886" fill="#FDE4DD"/>
<path d="M310.548 408.559L309.773 408.422C307.524 407.814 305.605 406.342 304.435 404.325C303.265 402.308 302.937 399.909 303.522 397.65L306.348 387.097C306.583 386.223 307.155 385.477 307.938 385.025C308.721 384.572 309.652 384.45 310.525 384.684C311.398 384.919 312.142 385.491 312.593 386.275C313.044 387.06 313.166 387.991 312.931 388.866L310.105 399.419C310.035 399.679 310.017 399.95 310.051 400.217C310.086 400.484 310.173 400.741 310.308 400.974C310.442 401.207 310.621 401.411 310.835 401.575C311.049 401.738 311.293 401.857 311.553 401.926C312.073 402.06 312.625 401.984 313.09 401.715C313.555 401.445 313.896 401.004 314.04 400.486L316.866 389.933C316.982 389.5 317.181 389.093 317.453 388.737C317.725 388.381 318.064 388.082 318.452 387.857C318.839 387.633 319.267 387.486 319.71 387.427C320.154 387.368 320.605 387.397 321.037 387.512C321.47 387.627 321.875 387.826 322.23 388.099C322.586 388.371 322.884 388.711 323.108 389.098C323.333 389.486 323.478 389.915 323.537 390.359C323.596 390.803 323.567 391.255 323.452 391.688L320.626 402.241C320.054 404.374 318.706 406.217 316.848 407.407C314.99 408.597 312.756 409.05 310.583 408.675L310.548 408.559Z" fill="#515979"/>
<path d="M962.724 424.497C979.991 430.782 999.093 421.855 1005.39 404.557C1011.68 387.26 1002.79 368.143 985.523 361.858C968.255 355.573 949.154 364.501 942.858 381.798C936.563 399.096 945.457 418.213 962.724 424.497Z" fill="#FDE4DD"/>
<path d="M984.36 365.054C989.912 367.075 994.74 370.7 998.232 375.471C1001.72 380.241 1003.72 385.943 1003.98 391.856C1004.23 397.768 1002.73 403.625 999.662 408.686C996.593 413.748 992.095 417.786 986.737 420.29C981.379 422.794 975.402 423.652 969.561 422.755C963.72 421.858 958.278 419.246 953.923 415.25C949.567 411.254 946.495 406.054 945.093 400.306C943.692 394.558 944.024 388.522 946.049 382.959C948.763 375.5 954.325 369.424 961.51 366.066C968.694 362.708 976.914 362.344 984.36 365.054ZM986.686 358.662C979.871 356.182 972.473 355.782 965.426 357.512C958.38 359.242 952.002 363.025 947.098 368.383C942.195 373.741 938.987 380.432 937.879 387.612C936.772 394.791 937.815 402.135 940.877 408.716C943.938 415.297 948.881 420.819 955.08 424.583C961.279 428.348 968.456 430.186 975.703 429.865C982.949 429.544 989.941 427.079 995.793 422.781C1001.64 418.483 1006.09 412.545 1008.58 405.718C1011.91 396.564 1011.48 386.464 1007.37 377.639C1003.26 368.815 995.824 361.988 986.686 358.662Z" fill="#515979"/>
<path d="M1109.17 296.113L933.064 232.016C926.721 229.707 919.704 232.987 917.391 239.341L876.447 351.836C874.134 358.19 877.401 365.212 883.744 367.521L1059.85 431.618C1066.19 433.927 1073.21 430.647 1075.52 424.293L1116.47 311.798C1118.78 305.444 1115.51 298.422 1109.17 296.113Z" fill="white"/>
<path d="M1107.77 299.948C1109.8 300.687 1111.46 302.204 1112.37 304.165C1113.28 306.126 1113.38 308.371 1112.64 310.405L1071.69 422.9C1070.95 424.934 1069.44 426.591 1067.48 427.507C1065.52 428.423 1063.28 428.522 1061.25 427.783L885.14 363.686C883.109 362.947 881.456 361.43 880.544 359.469C879.631 357.508 879.535 355.263 880.275 353.229L921.22 240.734C921.96 238.7 923.477 237.043 925.436 236.127C927.396 235.211 929.638 235.112 931.668 235.851L1107.77 299.948ZM1110.57 292.278L934.46 228.181C930.399 226.702 925.915 226.901 921.996 228.733C918.077 230.564 915.044 233.879 913.563 237.947L872.618 350.442C871.137 354.511 871.331 359 873.155 362.922C874.98 366.844 878.287 369.878 882.348 371.356L1058.45 435.453C1062.52 436.931 1067 436.733 1070.92 434.901C1074.84 433.07 1077.87 429.755 1079.35 425.687L1120.3 313.192C1121.78 309.123 1121.58 304.634 1119.76 300.712C1117.93 296.79 1114.63 293.756 1110.57 292.278V292.278Z" fill="#515979"/>
<path d="M977.919 357.614L924.011 233.064L916.437 253.876L963.457 364.076C964.186 365.786 965.258 367.327 966.606 368.605C967.955 369.883 969.551 370.87 971.296 371.505C973.041 372.14 974.898 372.41 976.752 372.298C978.606 372.186 980.418 371.694 982.075 370.853L992.174 365.741C989.236 366.129 986.253 365.546 983.68 364.078C981.106 362.611 979.083 360.341 977.919 357.614V357.614Z" fill="#ECE6E3"/>
<path d="M1067.51 434.405C1066.97 434.208 1066.48 433.901 1066.07 433.502C1065.66 433.103 1065.34 432.622 1065.13 432.091L1030.96 347.272C1030.73 346.77 1030.6 346.224 1030.58 345.67C1030.57 345.116 1030.66 344.563 1030.87 344.047C1031.07 343.531 1031.38 343.062 1031.77 342.669C1032.16 342.275 1032.63 341.965 1033.14 341.758C1033.65 341.551 1034.21 341.451 1034.76 341.464C1035.31 341.477 1035.86 341.604 1036.36 341.835C1036.86 342.066 1037.32 342.398 1037.69 342.81C1038.06 343.222 1038.34 343.705 1038.52 344.23L1072.68 429.049C1072.97 429.779 1073.04 430.579 1072.89 431.351C1072.74 432.124 1072.37 432.836 1071.82 433.402C1071.28 433.968 1070.58 434.364 1069.81 434.542C1069.05 434.72 1068.25 434.672 1067.51 434.405V434.405Z" fill="#515979"/>
<path d="M1025.98 320.195C1025.53 320.047 1025.12 319.781 1024.81 319.423C1023.62 318.266 1022.2 317.375 1020.64 316.806C1019.07 316.238 1017.41 316.006 1015.75 316.126C1015.04 316.231 1014.31 316.048 1013.74 315.618C1013.16 315.188 1012.78 314.545 1012.67 313.831C1012.57 313.118 1012.75 312.391 1013.18 311.812C1013.61 311.233 1014.25 310.849 1014.97 310.743C1017.52 310.499 1020.09 310.827 1022.49 311.702C1024.9 312.578 1027.08 313.98 1028.88 315.806C1029.28 316.263 1029.52 316.843 1029.56 317.454C1029.59 318.064 1029.42 318.669 1029.07 319.171C1028.72 319.673 1028.22 320.042 1027.63 320.22C1027.05 320.397 1026.42 320.372 1025.85 320.148L1025.98 320.195Z" fill="#515979"/>
<path d="M1021.05 315.867C1025.98 317.663 1031.44 315.112 1033.24 310.17C1035.04 305.228 1032.5 299.766 1027.56 297.97C1022.63 296.175 1017.17 298.726 1015.37 303.668C1013.57 308.61 1016.12 314.072 1021.05 315.867Z" fill="#515979"/>
<path d="M1025.73 309.969C1026.96 310.418 1028.32 309.78 1028.77 308.545C1029.22 307.309 1028.59 305.944 1027.35 305.495C1026.12 305.046 1024.76 305.683 1024.31 306.919C1023.86 308.154 1024.49 309.52 1025.73 309.969Z" fill="white"/>
<path d="M1028.06 283.966C1029.03 283.85 1030 283.848 1030.96 283.961C1031.87 284.06 1032.77 284.247 1033.64 284.52C1035.51 285.12 1037.23 286.105 1038.69 287.413C1040.25 288.778 1041.43 290.535 1042.1 292.504C1042.77 294.401 1042.88 296.452 1042.42 298.412C1042.35 298.773 1042.2 299.117 1042 299.421C1041.79 299.726 1041.52 299.985 1041.21 300.184C1040.9 300.382 1040.56 300.516 1040.19 300.576C1039.83 300.636 1039.46 300.622 1039.1 300.534C1038.74 300.459 1038.4 300.31 1038.1 300.099C1037.8 299.888 1037.55 299.617 1037.35 299.304L1036.99 298.74C1036.45 297.714 1035.84 296.717 1035.19 295.753C1034.62 294.936 1033.97 294.183 1033.23 293.506C1032.41 292.757 1031.54 292.075 1030.61 291.465C1030.11 291.137 1029.59 290.775 1029.04 290.459C1028.49 290.143 1027.84 289.777 1027.45 289.431L1026.6 288.715C1026.06 288.246 1025.74 287.586 1025.68 286.877C1025.63 286.167 1025.86 285.466 1026.32 284.921C1026.76 284.393 1027.38 284.051 1028.06 283.966Z" fill="#515979"/>
<path d="M992.798 308.118C992.347 307.972 991.945 307.706 991.634 307.347C990.441 306.19 989.017 305.298 987.456 304.73C985.895 304.162 984.231 303.93 982.573 304.049C981.86 304.155 981.135 303.972 980.557 303.542C979.98 303.112 979.596 302.469 979.492 301.755C979.388 301.041 979.571 300.315 980.001 299.736C980.431 299.157 981.074 298.772 981.787 298.667C984.336 298.423 986.908 298.75 989.314 299.626C991.72 300.502 993.9 301.904 995.696 303.73C996.102 304.186 996.343 304.767 996.378 305.377C996.414 305.988 996.243 306.593 995.894 307.095C995.544 307.597 995.036 307.966 994.451 308.143C993.866 308.321 993.239 308.295 992.671 308.072L992.798 308.118Z" fill="#515979"/>
<path d="M987.87 303.791C992.804 305.587 998.261 303.036 1000.06 298.094C1001.86 293.152 999.318 287.69 994.384 285.894C989.451 284.099 983.993 286.649 982.194 291.591C980.395 296.533 982.937 301.996 987.87 303.791Z" fill="#515979"/>
<path d="M992.546 297.893C993.779 298.342 995.144 297.704 995.593 296.468C996.043 295.233 995.408 293.867 994.175 293.418C992.941 292.97 991.577 293.607 991.127 294.843C990.677 296.078 991.313 297.444 992.546 297.893Z" fill="white"/>
<path d="M999.991 279.423C999.454 279.43 998.724 279.251 998.111 279.187C997.499 279.123 996.857 279.02 996.262 278.948C995.159 278.82 994.048 278.779 992.939 278.825C991.945 278.874 990.958 279.029 989.996 279.288C988.877 279.608 987.775 279.985 986.695 280.417L986.07 280.624C985.718 280.755 985.343 280.811 984.968 280.79C984.593 280.768 984.227 280.668 983.892 280.498C983.558 280.327 983.262 280.089 983.025 279.798C982.787 279.507 982.612 279.17 982.511 278.808C982.287 278.096 982.35 277.324 982.687 276.657C983.595 274.86 984.998 273.361 986.731 272.338C988.536 271.275 990.591 270.714 992.684 270.712C994.621 270.646 996.55 270.983 998.35 271.703C999.196 272.057 1000.01 272.492 1000.77 273.002C1001.58 273.533 1002.32 274.158 1002.98 274.864C1003.33 275.247 1003.57 275.723 1003.66 276.235C1003.75 276.747 1003.69 277.275 1003.49 277.755C1003.28 278.235 1002.95 278.648 1002.52 278.944C1002.1 279.24 1001.59 279.407 1001.07 279.426L999.991 279.423Z" fill="#515979"/>
<path d="M994.219 337.966C989.481 336.241 985.623 332.702 983.494 328.126C981.365 323.55 981.139 318.313 982.867 313.566C983.114 312.888 983.619 312.336 984.273 312.031C984.926 311.725 985.673 311.692 986.35 311.939L1016.98 323.086C1017.65 323.332 1018.2 323.838 1018.51 324.492C1018.81 325.145 1018.85 325.893 1018.6 326.571C1017.74 328.922 1016.43 331.081 1014.75 332.925C1013.06 334.77 1011.02 336.264 1008.76 337.322C1006.5 338.38 1004.05 338.981 1001.55 339.092C999.057 339.202 996.565 338.82 994.219 337.966V337.966Z" fill="#515979"/>
<path d="M1016.05 325.643C1014.57 329.711 1011.53 333.026 1007.61 334.857C1003.69 336.689 999.211 336.887 995.149 335.409C991.088 333.931 987.781 330.897 985.956 326.975C984.132 323.053 983.938 318.564 985.419 314.495L1016.05 325.643ZM1017.91 320.529L987.28 309.382C985.927 308.889 984.432 308.955 983.126 309.566C981.82 310.176 980.808 311.281 980.315 312.637C979.321 315.318 978.864 318.167 978.97 321.023C979.076 323.878 979.743 326.685 980.932 329.281C983.334 334.525 987.719 338.597 993.123 340.6C998.526 342.603 1004.51 342.374 1009.75 339.963C1014.98 337.552 1019.06 333.156 1021.06 327.743L1021.14 327.539C1021.63 326.183 1021.57 324.686 1020.96 323.379C1020.35 322.072 1019.25 321.06 1017.89 320.567L1017.91 320.529Z" fill="#515979"/>
<path d="M995.149 335.409C1001.44 337.7 1007.38 337.267 1008.41 334.443C1009.43 331.619 1005.17 327.473 998.872 325.182C992.578 322.892 986.643 323.324 985.615 326.148C984.587 328.972 988.856 333.118 995.149 335.409Z" fill="#EF7D7D"/>
<path d="M1104.93 331.587C1104.93 331.587 1078.29 331.708 1070.58 354.177C1062.86 376.645 1084.01 389.049 1084.01 389.049L1104.93 331.587Z" fill="#9E8271"/>
<path d="M958.875 268.308C975.65 266.133 981.437 253.965 981.437 253.965L931.668 235.851C930.516 235.434 929.285 235.282 928.066 235.407C926.847 235.533 925.671 235.931 924.627 236.574L944.155 280.28C945.31 277.146 947.287 274.38 949.877 272.274C952.467 270.167 955.575 268.797 958.875 268.308V268.308Z" fill="#9E8271"/>
<path d="M891.688 321.871L880.275 353.229C879.535 355.263 879.631 357.508 880.544 359.469C881.456 361.43 883.109 362.947 885.14 363.686L919.812 376.306C919.848 376.188 919.89 376.073 919.938 375.96C919.938 375.96 929.192 343.31 891.688 321.871Z" fill="#9E8271"/>
<path d="M876.087 364.734C875.35 364.464 874.706 363.986 874.234 363.357C873.761 362.729 873.481 361.976 873.426 361.191C873.371 360.406 873.544 359.622 873.924 358.933C874.304 358.243 874.875 357.679 875.568 357.307L956.258 314.29C957.203 313.849 958.28 313.787 959.268 314.117C960.256 314.447 961.081 315.144 961.571 316.064C962.061 316.984 962.181 318.057 961.905 319.064C961.63 320.07 960.979 320.933 960.088 321.475L879.398 364.492C878.894 364.762 878.339 364.924 877.768 364.966C877.198 365.008 876.625 364.929 876.087 364.734V364.734Z" fill="#515979"/>
<path d="M1029.31 379.967C1029.31 379.967 1022.49 370.551 1005.2 381.223C987.9 391.895 1017.94 402.48 1017.94 402.48C1017.94 402.48 1054.6 415.23 1029.31 379.967Z" fill="#9E8271"/>
<path d="M1107.77 299.948L1080.41 289.99C1080.41 289.99 1077.62 306.446 1095.38 312.911C1099.45 314.393 1104.54 316.07 1109.95 317.781L1112.64 310.405C1113.38 308.371 1113.28 306.126 1112.37 304.165C1111.46 302.204 1109.8 300.687 1107.77 299.948Z" fill="#9E8271"/>
<path d="M983.252 368.097C980.985 367.27 978.911 365.987 977.159 364.326C975.407 362.665 974.014 360.661 973.067 358.439L920.263 234.667C919.976 233.703 920.056 232.666 920.486 231.756C920.916 230.846 921.667 230.127 922.594 229.737C923.521 229.347 924.559 229.314 925.509 229.644C926.458 229.974 927.251 230.644 927.737 231.524L980.528 355.292C981.038 356.49 981.789 357.57 982.733 358.466C983.677 359.361 984.795 360.053 986.018 360.498C987.24 360.943 988.542 361.132 989.841 361.053C991.14 360.974 992.409 360.629 993.57 360.039L1113.57 299.161C1114.53 298.687 1115.64 298.611 1116.65 298.951C1117.67 299.29 1118.51 300.017 1119 300.974C1119.48 301.931 1119.57 303.041 1119.24 304.064C1118.91 305.086 1118.2 305.939 1117.25 306.437L997.262 367.246C995.108 368.339 992.753 368.978 990.344 369.125C987.934 369.271 985.52 368.921 983.252 368.097V368.097Z" fill="#515979"/>
<path d="M982.693 419.026L979.864 429.578C979.481 430.961 978.568 432.137 977.323 432.85C976.078 433.563 974.603 433.755 973.219 433.384V433.384C971.827 433.01 970.642 432.098 969.923 430.848C969.205 429.598 969.012 428.113 969.387 426.72L972.216 416.168" fill="#FDE4DD"/>
<path d="M971.591 436.425C969.52 435.67 967.808 434.164 966.793 432.205C965.778 430.246 965.533 427.977 966.107 425.844L968.936 415.292C969.171 414.418 969.744 413.673 970.528 413.222C971.312 412.77 972.242 412.648 973.115 412.883C973.987 413.118 974.731 413.691 975.181 414.475C975.631 415.259 975.752 416.191 975.516 417.065L972.687 427.617C972.618 427.872 972.601 428.139 972.637 428.401C972.673 428.663 972.762 428.915 972.898 429.142C973.03 429.374 973.206 429.579 973.417 429.742C973.627 429.906 973.869 430.026 974.127 430.095C974.65 430.234 975.208 430.16 975.677 429.889C976.147 429.618 976.491 429.172 976.633 428.648L979.462 418.096C979.698 417.222 980.271 416.477 981.054 416.025C981.838 415.573 982.769 415.451 983.641 415.687C984.514 415.922 985.257 416.494 985.708 417.279C986.158 418.063 986.279 418.995 986.043 419.869L983.214 430.421C982.592 432.67 981.108 434.583 979.086 435.745C977.064 436.906 974.667 437.222 972.415 436.624C972.137 436.573 971.862 436.507 971.591 436.425V436.425Z" fill="#515979"/>
<path d="M960.793 412.054L956.178 421.955C955.562 423.254 954.459 424.256 953.109 424.744C951.759 425.231 950.272 425.165 948.972 424.559C947.666 423.951 946.655 422.848 946.162 421.493C945.669 420.138 945.733 418.642 946.342 417.333L950.957 407.431" fill="#FDE4DD"/>
<path d="M948.259 427.948L947.519 427.678C945.41 426.689 943.776 424.906 942.974 422.717C942.171 420.527 942.265 418.108 943.234 415.985L947.85 406.083C948.233 405.263 948.925 404.628 949.775 404.318C950.625 404.008 951.562 404.049 952.381 404.432C953.2 404.814 953.834 405.507 954.142 406.358C954.45 407.209 954.408 408.148 954.025 408.968L949.41 418.87C949.295 419.113 949.23 419.377 949.218 419.646C949.206 419.915 949.247 420.184 949.339 420.437C949.431 420.69 949.572 420.922 949.754 421.12C949.936 421.317 950.156 421.477 950.4 421.59C950.889 421.812 951.446 421.833 951.95 421.649C952.455 421.465 952.868 421.089 953.1 420.604L957.715 410.702C957.904 410.295 958.171 409.93 958.501 409.626C958.831 409.323 959.217 409.087 959.637 408.933C960.058 408.779 960.504 408.709 960.951 408.728C961.398 408.747 961.837 408.853 962.243 409.042C962.649 409.231 963.014 409.497 963.316 409.827C963.619 410.157 963.854 410.543 964.007 410.964C964.161 411.385 964.23 411.832 964.211 412.28C964.192 412.728 964.085 413.167 963.896 413.574L959.28 423.476C958.347 425.477 956.7 427.058 954.663 427.908C952.627 428.757 950.348 428.815 948.273 428.069L948.259 427.948Z" fill="#515979"/>
<path d="M1189.3 183.732C1207.6 185.334 1223.74 171.767 1225.34 153.429C1226.95 135.092 1213.41 118.928 1195.1 117.327C1176.8 115.725 1160.66 129.292 1159.05 147.63C1157.45 165.967 1170.99 182.131 1189.3 183.732Z" fill="#FDE4DD"/>
<path d="M1194.81 120.715C1200.7 121.23 1206.3 123.482 1210.9 127.186C1215.51 130.89 1218.92 135.881 1220.7 141.526C1222.47 147.171 1222.54 153.217 1220.88 158.9C1219.23 164.583 1215.93 169.648 1211.4 173.453C1206.87 177.259 1201.32 179.634 1195.45 180.279C1189.57 180.925 1183.64 179.811 1178.4 177.078C1173.16 174.346 1168.85 170.118 1166 164.929C1163.16 159.74 1161.92 153.822 1162.44 147.926C1163.13 140.018 1166.93 132.709 1173 127.606C1179.07 122.503 1186.91 120.024 1194.81 120.715ZM1195.4 113.939C1188.18 113.307 1180.93 114.835 1174.57 118.33C1168.21 121.825 1163.03 127.13 1159.68 133.574C1156.33 140.019 1154.96 147.313 1155.75 154.534C1156.54 161.755 1159.45 168.579 1164.11 174.143C1168.77 179.708 1174.97 183.762 1181.93 185.794C1188.9 187.826 1196.3 187.744 1203.22 185.558C1210.14 183.373 1216.25 179.182 1220.79 173.515C1225.33 167.849 1228.09 160.962 1228.73 153.725C1229.58 144.021 1226.54 134.377 1220.29 126.916C1214.04 119.454 1205.09 114.786 1195.4 113.939Z" fill="#515979"/>
<path d="M1297.52 21.8196L1110.83 5.48595C1104.1 4.89764 1098.17 9.88147 1097.59 16.6177L1087.15 135.877C1086.56 142.613 1091.54 148.551 1098.26 149.139L1284.95 165.472C1291.68 166.061 1297.61 161.077 1298.2 154.341L1308.63 35.0818C1309.22 28.3456 1304.25 22.4079 1297.52 21.8196Z" fill="white"/>
<path d="M1297.17 25.8852C1299.32 26.0736 1301.31 27.1109 1302.7 28.769C1304.09 30.4271 1304.76 32.5701 1304.57 34.7267L1294.14 153.986C1293.95 156.142 1292.91 158.136 1291.26 159.527C1289.6 160.919 1287.46 161.595 1285.31 161.407L1098.62 145.073C1096.46 144.885 1094.47 143.848 1093.08 142.189C1091.7 140.531 1091.02 138.388 1091.21 136.232L1101.64 16.9727C1101.83 14.8162 1102.87 12.8228 1104.52 11.4311C1106.18 10.0393 1108.32 9.36326 1110.47 9.55161L1297.17 25.8852ZM1297.88 17.7539L1111.18 1.42032C1106.88 1.04362 1102.6 2.39574 1099.29 5.1792C1095.98 7.96267 1093.9 11.9495 1093.53 16.2626L1083.09 135.522C1082.72 139.835 1084.06 144.121 1086.84 147.437C1089.62 150.753 1093.6 152.828 1097.9 153.204L1284.6 169.538C1288.9 169.915 1293.18 168.563 1296.49 165.779C1299.81 162.996 1301.88 159.009 1302.26 154.696L1312.69 35.4369C1313.07 31.1237 1311.72 26.8377 1308.94 23.5215C1306.16 20.2053 1302.18 18.1306 1297.88 17.7539V17.7539Z" fill="#515979"/>
<path d="M1186.66 115.195L1102.36 8.84146L1100.42 30.9044L1174.36 125.181C1175.51 126.643 1176.95 127.855 1178.58 128.74C1180.21 129.625 1182.01 130.165 1183.86 130.327C1185.71 130.489 1187.57 130.269 1189.33 129.681C1191.1 129.093 1192.72 128.149 1194.1 126.908L1202.53 119.356C1199.8 120.491 1196.76 120.7 1193.9 119.948C1191.03 119.197 1188.49 117.528 1186.66 115.195V115.195Z" fill="#ECE6E3"/>
<path d="M1293.07 166.183C1292.5 166.132 1291.95 165.961 1291.45 165.682C1290.95 165.403 1290.52 165.022 1290.17 164.563L1235.22 91.4765C1234.87 91.0517 1234.6 90.5587 1234.44 90.0274C1234.28 89.4962 1234.23 88.9379 1234.3 88.3867C1234.36 87.8355 1234.53 87.303 1234.81 86.8216C1235.08 86.3403 1235.45 85.9202 1235.9 85.5871C1236.34 85.254 1236.85 85.0149 1237.39 84.8844C1237.92 84.7538 1238.48 84.7346 1239.03 84.8278C1239.57 84.9211 1240.1 85.1249 1240.56 85.4267C1241.03 85.7286 1241.42 86.1222 1241.73 86.5835L1296.68 159.67C1297.15 160.301 1297.43 161.054 1297.48 161.839C1297.54 162.624 1297.36 163.408 1296.98 164.097C1296.6 164.785 1296.03 165.348 1295.33 165.718C1294.64 166.088 1293.85 166.25 1293.07 166.183V166.183Z" fill="#515979"/>
<path d="M1223.4 66.6124C1222.92 66.5866 1222.47 66.4333 1222.07 66.1688C1220.62 65.3601 1219.02 64.8672 1217.36 64.7224C1215.71 64.5776 1214.04 64.7841 1212.47 65.3284C1211.81 65.6146 1211.06 65.626 1210.39 65.36C1209.72 65.0939 1209.18 64.5724 1208.9 63.91C1208.61 63.2475 1208.6 62.4986 1208.87 61.8278C1209.13 61.157 1209.65 60.6194 1210.32 60.3332C1212.71 59.4373 1215.28 59.0883 1217.83 59.3115C1220.38 59.5346 1222.85 60.3244 1225.06 61.6233C1225.57 61.9593 1225.95 62.4577 1226.15 63.0382C1226.34 63.6186 1226.33 64.2472 1226.12 64.8225C1225.92 65.3978 1225.52 65.8861 1225 66.2087C1224.48 66.5314 1223.87 66.6694 1223.26 66.6006L1223.4 66.6124Z" fill="#515979"/>
<path d="M1217.52 63.7082C1222.75 64.1658 1227.36 60.2894 1227.82 55.0502C1228.28 49.8109 1224.41 45.1927 1219.18 44.7352C1213.95 44.2776 1209.34 48.1539 1208.88 53.3932C1208.42 58.6324 1212.29 63.2506 1217.52 63.7082Z" fill="#515979"/>
<path d="M1220.51 56.8004C1221.82 56.9148 1222.97 55.9457 1223.08 54.6359C1223.2 53.3261 1222.23 52.1716 1220.92 52.0572C1219.62 51.9428 1218.46 52.9119 1218.35 54.2217C1218.23 55.5315 1219.2 56.686 1220.51 56.8004Z" fill="white"/>
<path d="M1216.04 31.0777C1216.94 30.717 1217.87 30.4644 1218.83 30.3251C1219.74 30.1846 1220.65 30.1322 1221.57 30.1688C1223.53 30.2653 1225.44 30.7725 1227.19 31.6576C1229.06 32.5715 1230.65 33.9639 1231.8 35.6933C1232.94 37.3525 1233.58 39.3042 1233.64 41.3165C1233.67 41.684 1233.62 42.0529 1233.5 42.4008C1233.37 42.7486 1233.18 43.0682 1232.94 43.3402C1232.69 43.6122 1232.39 43.8308 1232.05 43.983C1231.72 44.1351 1231.35 44.2175 1230.99 44.2252C1230.62 44.2451 1230.25 44.1901 1229.91 44.0637C1229.56 43.9372 1229.25 43.742 1228.98 43.4897L1228.49 43.0369C1227.69 42.1883 1226.85 41.381 1225.97 40.6183C1225.21 39.977 1224.38 39.4192 1223.5 38.9545C1222.51 38.4439 1221.49 38.0119 1220.44 37.6624C1219.87 37.4759 1219.27 37.26 1218.66 37.0972C1218.05 36.9343 1217.33 36.7484 1216.86 36.5161L1215.85 36.0455C1215.21 35.7299 1214.72 35.1772 1214.49 34.5058C1214.26 33.8344 1214.29 33.0977 1214.59 32.4536C1214.88 31.8285 1215.4 31.3368 1216.04 31.0777Z" fill="#515979"/>
<path d="M1188.22 63.5351C1187.75 63.5106 1187.29 63.3572 1186.9 63.0915C1185.45 62.2827 1183.84 61.7899 1182.19 61.6451C1180.53 61.5003 1178.86 61.7068 1177.29 62.2511C1176.63 62.5373 1175.88 62.5487 1175.22 62.2826C1174.55 62.0166 1174.01 61.495 1173.72 60.8326C1173.44 60.1702 1173.43 59.4212 1173.69 58.7505C1173.96 58.0797 1174.48 57.5421 1175.14 57.2559C1177.54 56.36 1180.11 56.011 1182.66 56.2341C1185.21 56.4573 1187.68 57.247 1189.89 58.546C1190.4 58.8819 1190.78 59.3804 1190.97 59.9608C1191.16 60.5413 1191.16 61.1699 1190.95 61.7452C1190.74 62.3204 1190.35 62.8088 1189.83 63.1314C1189.31 63.454 1188.7 63.5921 1188.09 63.5232L1188.22 63.5351Z" fill="#515979"/>
<path d="M1182.34 60.6308C1187.57 61.0884 1192.18 57.2121 1192.64 51.9728C1193.1 46.7336 1189.23 42.1154 1184 41.6578C1178.77 41.2002 1174.16 45.0765 1173.7 50.3158C1173.24 55.555 1177.11 60.1732 1182.34 60.6308Z" fill="#515979"/>
<path d="M1185.33 53.7231C1186.64 53.8375 1187.79 52.8684 1187.91 51.5586C1188.02 50.2487 1187.06 49.0942 1185.75 48.9798C1184.44 48.8654 1183.29 49.8345 1183.17 51.1443C1183.06 52.4541 1184.03 53.6087 1185.33 53.7231Z" fill="white"/>
<path d="M1187.74 33.9555C1187.23 34.1014 1186.48 34.1176 1185.87 34.2146C1185.26 34.3116 1184.61 34.378 1184.02 34.4626C1182.92 34.6239 1181.84 34.8715 1180.78 35.2032C1179.83 35.5079 1178.92 35.9133 1178.06 36.4125C1177.06 37.011 1176.09 37.6602 1175.16 38.3577L1174.61 38.7193C1174.3 38.9368 1173.95 39.0883 1173.59 39.1643C1173.22 39.2403 1172.84 39.2391 1172.47 39.1607C1172.11 39.0824 1171.76 38.9287 1171.45 38.7092C1171.15 38.4898 1170.89 38.2094 1170.7 37.8858C1170.3 37.256 1170.16 36.4938 1170.31 35.7626C1170.73 33.7918 1171.69 31.9806 1173.1 30.5441C1174.57 29.0505 1176.41 27.9764 1178.43 27.4326C1180.29 26.8675 1182.24 26.6941 1184.16 26.9233C1185.07 27.0464 1185.96 27.2573 1186.83 27.553C1187.75 27.8564 1188.63 28.268 1189.45 28.779C1189.89 29.0576 1190.24 29.4564 1190.46 29.928C1190.68 30.3997 1190.76 30.9245 1190.69 31.4401C1190.62 31.9558 1190.4 32.4407 1190.07 32.8374C1189.73 33.2341 1189.29 33.526 1188.79 33.6783L1187.74 33.9555Z" fill="#515979"/>
<path d="M1197.32 91.9978C1192.3 91.5583 1187.66 89.1379 1184.41 85.269C1181.17 81.4001 1179.6 76.3997 1180.04 71.3677C1180.1 70.6489 1180.45 69.9844 1181 69.5205C1181.55 69.0566 1182.27 68.8313 1182.98 68.894L1215.45 71.7347C1216.17 71.7975 1216.83 72.1432 1217.3 72.6959C1217.76 73.2486 1217.98 73.963 1217.92 74.6818C1217.7 77.1734 1217 79.5977 1215.84 81.8163C1214.69 84.035 1213.11 86.0045 1211.2 87.6124C1209.29 89.2204 1207.08 90.4352 1204.7 91.1877C1202.31 91.9401 1199.81 92.2154 1197.32 91.9978V91.9978Z" fill="#515979"/>
<path d="M1215.22 74.4451C1214.84 78.7582 1212.77 82.745 1209.45 85.5285C1206.14 88.312 1201.86 89.6641 1197.56 89.2874C1193.25 88.9107 1189.27 86.8361 1186.5 83.5199C1183.72 80.2037 1182.37 75.9176 1182.75 71.6045L1215.22 74.4451ZM1215.69 69.0242L1183.22 66.1836C1181.79 66.0581 1180.36 66.5088 1179.26 67.4366C1178.15 68.3644 1177.46 69.6933 1177.34 71.131C1177.07 73.9771 1177.37 76.8476 1178.21 79.5786C1179.05 82.3096 1180.42 84.8477 1182.24 87.048C1185.92 91.4916 1191.21 94.2893 1196.94 94.8257C1202.68 95.3621 1208.4 93.5933 1212.84 89.9082C1217.27 86.2232 1220.07 80.9239 1220.6 75.176L1220.62 74.9592C1220.75 73.5215 1220.3 72.0928 1219.37 70.9874C1218.45 69.882 1217.12 69.1905 1215.69 69.0649L1215.69 69.0242Z" fill="#515979"/>
<path d="M1197.56 89.2874C1204.23 89.8711 1209.85 87.9173 1210.11 84.9235C1210.38 81.9296 1205.18 79.0294 1198.51 78.4457C1191.83 77.8619 1186.21 79.8157 1185.95 82.8096C1185.69 85.8034 1190.89 88.7037 1197.56 89.2874Z" fill="#EF7D7D"/>
<path d="M1302.61 57.1826C1302.61 57.1826 1276.91 64.1932 1275.27 87.8931C1273.64 111.593 1297.28 118.1 1297.28 118.1L1302.61 57.1826Z" fill="#9E8271"/>
<path d="M1145.15 33.8616C1160.79 27.4188 1163.23 14.1676 1163.23 14.1676L1110.47 9.5516C1109.25 9.4468 1108.02 9.61907 1106.88 10.0556C1105.73 10.4921 1104.7 11.1816 1103.86 12.0728L1134.03 49.2349C1134.34 45.9087 1135.53 42.7259 1137.49 40.0207C1139.44 37.3156 1142.09 35.188 1145.15 33.8616V33.8616Z" fill="#9E8271"/>
<path d="M1094.12 102.988L1091.21 136.232C1091.02 138.388 1091.7 140.531 1093.08 142.189C1094.47 143.848 1096.46 144.885 1098.62 145.073L1135.37 148.289C1135.38 148.167 1135.39 148.044 1135.4 147.923C1135.4 147.923 1135.89 113.99 1094.12 102.988Z" fill="#9E8271"/>
<path d="M1090.14 148.429C1089.36 148.359 1088.61 148.063 1088 147.578C1087.38 147.093 1086.91 146.44 1086.66 145.696C1086.4 144.951 1086.36 144.149 1086.55 143.385C1086.74 142.621 1087.15 141.927 1087.72 141.389L1154.53 78.9541C1155.32 78.2836 1156.35 77.945 1157.39 78.0078C1158.43 78.0706 1159.4 78.5302 1160.12 79.2919C1160.83 80.0536 1161.22 81.0597 1161.22 82.1033C1161.21 83.1469 1160.81 84.1487 1160.09 84.9028L1093.28 147.337C1092.86 147.73 1092.37 148.029 1091.83 148.217C1091.29 148.405 1090.71 148.477 1090.14 148.429V148.429Z" fill="#515979"/>
<path d="M1242.09 123.486C1242.09 123.486 1233.06 116.155 1219.12 130.94C1205.18 145.724 1236.93 148.175 1236.93 148.175C1236.93 148.175 1275.64 151.002 1242.09 123.486Z" fill="#9E8271"/>
<path d="M1297.17 25.8853L1268.16 23.3476C1268.16 23.3476 1269.72 39.9667 1288.55 41.6142C1292.87 41.9918 1298.21 42.2955 1303.89 42.5463L1304.57 34.7267C1304.76 32.5702 1304.09 30.4271 1302.7 28.769C1301.31 27.1109 1299.32 26.0736 1297.17 25.8853Z" fill="#9E8271"/>
<path d="M1194.53 123.94C1192.12 123.729 1189.79 123.026 1187.66 121.875C1185.54 120.724 1183.68 119.149 1182.19 117.248L1099.15 11.3604C1098.62 10.5032 1098.43 9.48111 1098.61 8.49067C1098.79 7.50023 1099.33 6.61131 1100.13 5.99476C1100.92 5.37822 1101.91 5.07755 1102.92 5.15055C1103.92 5.22355 1104.86 5.66506 1105.56 6.39023L1188.58 112.277C1189.38 113.302 1190.39 114.151 1191.53 114.772C1192.68 115.393 1193.93 115.771 1195.23 115.885C1196.53 115.998 1197.83 115.844 1199.07 115.431C1200.3 115.019 1201.44 114.357 1202.41 113.487L1302.56 23.6258C1303.36 22.9188 1304.42 22.5587 1305.49 22.6235C1306.56 22.6882 1307.56 23.1726 1308.27 23.9717C1308.99 24.7707 1309.36 25.8201 1309.31 26.8925C1309.26 27.9648 1308.79 28.9737 1308 29.7006L1207.84 119.492C1206.04 121.106 1203.93 122.333 1201.64 123.098C1199.35 123.863 1196.93 124.15 1194.53 123.94V123.94Z" fill="#515979"/>
<path d="M1207.17 173.279L1207.17 184.203C1207.15 185.639 1206.58 187.011 1205.56 188.022C1204.54 189.033 1203.17 189.6 1201.73 189.6V189.6C1200.29 189.599 1198.91 189.025 1197.89 188.003C1196.88 186.982 1196.3 185.598 1196.31 184.155L1196.31 173.23" fill="#FDE4DD"/>
<path d="M1200.95 192.959C1198.75 192.765 1196.71 191.753 1195.22 190.124C1193.73 188.495 1192.91 186.366 1192.91 184.158L1192.91 173.233C1192.91 172.328 1193.27 171.46 1193.91 170.821C1194.55 170.182 1195.42 169.823 1196.33 169.824C1197.23 169.826 1198.1 170.186 1198.73 170.827C1199.37 171.468 1199.73 172.337 1199.73 173.242L1199.73 184.167C1199.73 184.432 1199.78 184.694 1199.88 184.937C1199.98 185.181 1200.13 185.401 1200.32 185.585C1200.51 185.776 1200.73 185.928 1200.98 186.031C1201.23 186.135 1201.49 186.188 1201.76 186.188C1202.3 186.187 1202.82 185.971 1203.2 185.588C1203.59 185.204 1203.8 184.684 1203.8 184.141L1203.81 173.217C1203.81 172.312 1204.17 171.444 1204.81 170.805C1205.45 170.165 1206.32 169.807 1207.22 169.808C1208.12 169.809 1208.99 170.17 1209.63 170.811C1210.27 171.452 1210.62 172.321 1210.62 173.226L1210.62 184.151C1210.6 186.484 1209.66 188.716 1208.01 190.362C1206.36 192.007 1204.12 192.933 1201.79 192.938C1201.51 192.96 1201.23 192.967 1200.95 192.959V192.959Z" fill="#515979"/>
<path d="M1184.21 172.213L1182.31 182.971C1182.06 184.385 1181.25 185.638 1180.07 186.459C1178.89 187.279 1177.44 187.6 1176.03 187.351C1174.61 187.102 1173.35 186.298 1172.52 185.117C1171.69 183.936 1171.37 182.474 1171.62 181.052L1173.51 170.293" fill="#FDE4DD"/>
<path d="M1176.22 190.809L1175.43 190.74C1173.14 190.331 1171.1 189.032 1169.76 187.124C1168.42 185.217 1167.88 182.856 1168.27 180.554L1170.16 169.795C1170.32 168.904 1170.82 168.111 1171.56 167.592C1172.31 167.073 1173.22 166.87 1174.11 167.027C1175 167.185 1175.79 167.69 1176.31 168.432C1176.83 169.174 1177.03 170.092 1176.87 170.983L1174.98 181.742C1174.93 182.007 1174.94 182.279 1174.99 182.542C1175.05 182.805 1175.16 183.054 1175.32 183.274C1175.47 183.495 1175.67 183.682 1175.89 183.826C1176.12 183.97 1176.37 184.068 1176.64 184.114C1177.17 184.202 1177.71 184.078 1178.15 183.769C1178.59 183.461 1178.89 182.991 1178.99 182.462L1180.89 171.703C1180.96 171.262 1181.13 170.84 1181.37 170.461C1181.61 170.083 1181.92 169.755 1182.29 169.498C1182.65 169.24 1183.06 169.057 1183.5 168.959C1183.94 168.861 1184.39 168.851 1184.83 168.928C1185.27 169.005 1185.69 169.168 1186.07 169.409C1186.45 169.649 1186.78 169.961 1187.03 170.328C1187.29 170.695 1187.47 171.109 1187.57 171.546C1187.67 171.984 1187.68 172.436 1187.6 172.878L1185.7 183.637C1185.32 185.812 1184.14 187.765 1182.39 189.113C1180.64 190.46 1178.46 191.106 1176.26 190.922L1176.22 190.809Z" fill="#515979"/>
</svg>
