<?xml version="1.0" encoding="utf-8"?>
<!-- Generator: Adobe Illustrator 25.0.0, SVG Export Plug-In . SVG Version: 6.00 Build 0)  -->
<svg version="1.1" id="Layer_1" xmlns="http://www.w3.org/2000/svg" xmlns:xlink="http://www.w3.org/1999/xlink" x="0px" y="0px"
	 viewBox="0 0 184.7 110" style="enable-background:new 0 0 184.7 110;" xml:space="preserve">
<style type="text/css">
	.st0{clip-path:url(#SVGID_2_);}
	.st1{fill:#F6C560;}
	.st2{opacity:4.000000e-02;}
	.st3{fill:#35414D;}
	.st4{fill:#FF6666;}
	.st5{fill:#8AA8BD;}
	.st6{fill:#99EBFA;}
	.st7{fill:#FF7D97;}
</style>
<g>
	<g>
		<defs>
			<polygon id="SVGID_1_" points="0,100.4 133.7,100.4 134.1,73 143.6,62.8 150.8,61.1 153.9,62.1 154.7,0 0,0 			"/>
		</defs>
		<clipPath id="SVGID_2_">
			<use xlink:href="#SVGID_1_"  style="overflow:visible;"/>
		</clipPath>
		<g class="st0">
			<g>
				<g>
					<g>
						<path class="st1" d="M152.5,7.9v84.3c0,3.3-2.5,6-5.3,6H7.4c-3.1,0-5.3-2.7-5.3-6V7.9c0-3.3,2.5-5.6,5.3-5.6h139.4
							C150,2.2,152.5,4.9,152.5,7.9L152.5,7.9z"/>
					</g>
					<g class="st2">
						<path d="M152.5,7.9v84.3c0,3.3-2.5,6-5.3,6H7.4c-2.8,0-5.3-2.7-5.3-6v-6.6h53.6c44.8,0,81.8-36.8,84.9-83.6h6.6
							C150,2.2,152.5,4.9,152.5,7.9L152.5,7.9z"/>
					</g>
				</g>
				<path class="st3" d="M7.4,100.4c-4.2,0-7.4-3.6-7.4-8.2V7.9C0,3.5,3.3,0,7.4,0h139.4c2.2,0,4.4,0.9,5.5,2.2c1.2,1.6,2,3.7,2,5.6
					v84.3c0,4.6-3.3,8.2-7.4,8.2H7.4z M4.2,92.2c0,1.8,1.3,3.8,3.2,3.8h139.4c2.2,0,3.6-1.5,3.6-3.8V7.1L83.9,56.4
					c-2.2,1.6-4.5,2.5-6.9,2.5c-2.3,0-4.9-0.9-6.9-2.4L4.2,7V92.2z M72.3,52.9c1.4,0.9,3,1.4,4.6,1.4c1.6,0,3.2-0.5,4.6-1.4
					l65.1-48.5h-16.6L130,4.5c-1,0.1-5.4,0.2-21.5,0.2c0,0,0,0,0,0C83.9,4.7,47,4.4,46.6,4.4H7.2L72.3,52.9z"/>
			</g>
			<polygon class="st1" points="49.4,44.7 56.4,36.6 69,46.4 74.4,50 99.3,37.7 104.2,46 95.3,52.8 81.2,64.7 58.9,52.8 			"/>
			<g>
				<g>
					<path class="st3" d="M103.5,47.4c-0.4-1.1-1-2.2-1.7-3.1c-0.5-0.7-1.1-1.4-1.7-2c-0.5-0.5-1-0.9-1.5-1.2c-0.5-0.4-1-0.7-1.6-1
						c-0.5-0.3-1.1-0.6-1.7-0.8c-0.3-0.1-0.5-0.2-0.8-0.2c-0.3-0.1-0.5-0.1-0.8-0.2c-0.3-0.1-0.6-0.1-0.9-0.1c-0.1,0-0.1,0-0.2,0
						c-0.1,0-0.1,0-0.2,0c-0.2,0-0.4,0-0.6,0c0,0,0,0,0,0c0,0-0.1,0-0.2,0c-0.9,0-4.5,0.1-7.2,2.5c-0.2,0.2-0.5,0.4-0.7,0.7
						c-0.8,0.7-1.6,1.7-2.4,2.7c-2.3,2.8-3.9,5.5-3.9,5.5c0,0,0,0,0,0c-1.7-2.6-3.8-5.6-6.5-8.2c-0.3-0.3-0.6-0.6-0.9-0.8
						c-0.5-0.4-1.1-0.7-1.6-1c-0.1,0-0.2-0.1-0.2-0.1c-0.6-0.3-1.1-0.5-1.7-0.7c-0.5-0.1-1-0.3-1.5-0.3c-0.4-0.1-0.8-0.1-1.2-0.1
						c-0.2,0-0.5,0-0.7,0c-0.1,0-0.1,0-0.1,0c-0.4,0-0.8,0-1.3,0.1c-0.4,0.1-0.8,0.1-1.2,0.2c-0.4,0.1-0.8,0.2-1.2,0.4
						c-0.4,0.1-0.8,0.3-1.1,0.5c-0.4,0.2-0.7,0.4-1.1,0.6c-0.4,0.2-0.7,0.5-1,0.7c-0.3,0.3-0.7,0.6-1,0.9c-0.1,0.1-0.3,0.3-0.4,0.4
						c-0.2,0.2-0.4,0.4-0.6,0.6c-0.1,0.1-0.2,0.2-0.2,0.3c0,0.1-0.1,0.1-0.1,0.2c0,0,0,0-0.1,0.1c0,0-0.1,0.1-0.1,0.1
						c-0.1,0.2-0.2,0.3-0.3,0.5c-0.2,0.3-0.4,0.7-0.6,1c-0.2,0.4-0.4,0.8-0.7,1.2c-0.1,0.2-0.2,0.4-0.3,0.7c0,0,0,0,0,0.1
						c-0.1,0.2-0.2,0.4-0.3,0.6c0,0,0,0.1,0,0.1c-0.1,0.2-0.2,0.4-0.2,0.6c0,0,0,0.1,0,0.1c-0.1,0.3-0.2,0.5-0.3,0.8
						c-0.1,0.2-0.1,0.4-0.2,0.6c0,0,0,0,0,0c0,0.2-0.1,0.4-0.1,0.6c0,0,0,0.1,0,0.1c-1,5-0.8,11.9,5.5,17.6c0.2,0.2,0.5,0.4,0.7,0.6
						c0.2,0.2,0.5,0.3,0.7,0.5c0.2,0.1,0.5,0.3,0.7,0.4c0.2,0.1,0.5,0.2,0.7,0.3c0.2,0.1,0.5,0.2,0.7,0.2c0.2,0.1,0.5,0.1,0.7,0.2
						c0.6,0.2,1.3,0.2,1.9,0.3c0.7,0,1.3,0,2,0c0.6-0.1,1.1-0.2,1.6-0.3c0.2,0,0.4-0.1,0.6-0.2c0.2-0.1,0.4-0.1,0.7-0.2
						c0.2-0.1,0.5-0.2,0.7-0.3c0.2-0.1,0.5-0.2,0.7-0.3c0.2-0.1,0.5-0.2,0.7-0.4c0.2-0.1,0.4-0.3,0.7-0.4c0.2-0.2,0.4-0.3,0.6-0.5
						c0.1-0.1,0.2-0.1,0.2-0.2c0.1-0.1,0.1-0.2,0.2-0.2c1.5-1.4,4.4-5.4,6.5-8.3c0,0.1,0.6,1,0.7,1.1c0.3,0.4,0.5,0.7,0.8,1.1
						c0.4,0.6,0.9,1.2,1.3,1.8c0.9,1.2,1.9,2.5,3,3.6c0.7,0.8,1.5,1.4,2.4,2c2.7,1.7,6,2.2,9.1,1.4c0.6-0.2,1.2-0.4,1.8-0.7
						c2-0.9,3.6-2.4,4.9-4.2c2.9-4.2,4-9.5,3-14.6C104.3,49.8,103.9,48.6,103.5,47.4z M68.1,62.9c-0.1,0.1-0.3,0.2-0.4,0.4
						c-0.1,0.1-0.2,0.2-0.3,0.2c-1,0.7-2.3,1-3.5,1.1c-0.9,0.1-1.8,0-2.7-0.2c-0.1,0-0.2-0.1-0.4-0.1c-0.1,0-0.2-0.1-0.3-0.1
						c-0.2-0.1-0.3-0.1-0.5-0.2c-0.2-0.1-0.3-0.2-0.4-0.3c-0.1-0.1-0.3-0.2-0.4-0.3c-0.1-0.1-0.3-0.2-0.4-0.3
						c-0.1-0.1-0.3-0.2-0.4-0.3c-0.1-0.1-0.3-0.2-0.4-0.4c-0.1-0.1-0.2-0.3-0.4-0.4c-0.1-0.1-0.2-0.3-0.3-0.4
						c-0.1-0.1-0.2-0.3-0.3-0.4c-0.1-0.2-0.2-0.3-0.3-0.5c-0.1-0.2-0.2-0.3-0.3-0.5c-0.1-0.2-0.2-0.3-0.3-0.5
						c-0.1-0.2-0.2-0.4-0.2-0.5c-0.1-0.2-0.1-0.4-0.2-0.6c-0.1-0.2-0.1-0.4-0.2-0.6c-0.1-0.2-0.1-0.4-0.1-0.6c0-0.2-0.1-0.4-0.1-0.6
						c0-0.2-0.1-0.4-0.1-0.6c0-0.2,0-0.4-0.1-0.6c0-0.2,0-0.4,0-0.6c0-0.1,0-0.2,0-0.2c0-6.3,5.7-12.9,12.1-8.9
						c1,0.6,1.9,1.5,2.6,2.5c1.6,2.1,3.2,4.2,4.6,6.4c-0.7,1.1-1.5,2.2-2.2,3.3c-0.6,0.9-1.3,1.8-2,2.7
						C69.5,61.5,68.9,62.3,68.1,62.9z M95.6,63.8c-1.1,0.6-2.3,0.9-3.1,1c-0.8,0.1-1.6,0.1-2.3-0.1c-0.8-0.2-1.5-0.4-2.2-0.9
						c-0.7-0.4-1.3-1-1.9-1.6c-0.4-0.5-0.9-1-1.3-1.5c-0.5-0.6-0.9-1.2-1.4-1.8c-0.5-0.7-1-1.4-1.5-2.1c-0.1-0.1-0.2-0.3-0.3-0.5
						c-0.3-0.5-0.6-1-1-1.5c1.8-2.7,3.6-5.5,5.9-7.9c0.8-0.8,1.8-1.5,2.9-1.8l0,0c1.6-0.5,3.5-0.5,5.1,0.2c1.1,0.5,2.1,1.2,2.9,2.2
						c1.7,2,2.6,4.7,2.6,7.3C100,58.7,98.2,62.1,95.6,63.8z"/>
				</g>
				<path class="st4" d="M102.8,45.4c-0.4-1.1-1-2.2-1.7-3.1c-0.5-0.7-1.1-1.4-1.7-2c-0.5-0.5-1-0.9-1.5-1.2c-0.5-0.4-1-0.7-1.6-1
					c-0.5-0.3-1.1-0.6-1.7-0.8c-0.3-0.1-0.5-0.2-0.8-0.2c-0.3-0.1-0.5-0.1-0.8-0.2c-0.3-0.1-0.6-0.1-0.9-0.1c-0.1,0-0.1,0-0.2,0
					c-0.1,0-0.1,0-0.2,0c-0.2,0-0.4,0-0.6,0c0,0,0,0,0,0c0,0-0.1,0-0.2,0c-0.9,0-4.5,0.1-7.2,2.5c-0.2,0.2-0.5,0.4-0.7,0.7
					c-0.8,0.7-1.6,1.7-2.4,2.7c-2.3,2.8-3.9,5.5-3.9,5.5c0,0,0,0,0,0c-1.7-2.6-3.8-5.6-6.5-8.2c-0.3-0.3-0.6-0.6-0.9-0.8
					c-0.5-0.4-1.1-0.7-1.6-1c-0.1,0-0.2-0.1-0.2-0.1c-0.6-0.3-1.1-0.5-1.7-0.7c-0.5-0.1-1-0.3-1.5-0.3c-0.4-0.1-0.8-0.1-1.2-0.1
					c-0.2,0-0.5,0-0.7,0c-0.1,0-0.1,0-0.1,0c-0.4,0-0.8,0-1.3,0.1c-0.4,0.1-0.8,0.1-1.2,0.2c-0.4,0.1-0.8,0.2-1.2,0.4
					c-0.4,0.1-0.8,0.3-1.1,0.5c-0.4,0.2-0.7,0.4-1.1,0.6c-0.4,0.2-0.7,0.5-1,0.7c-0.3,0.3-0.7,0.6-1,0.9c-0.1,0.1-0.3,0.3-0.4,0.4
					c-0.2,0.2-0.4,0.4-0.6,0.6c-0.1,0.1-0.2,0.2-0.2,0.3c0,0.1-0.1,0.1-0.1,0.2c0,0,0,0-0.1,0.1c0,0-0.1,0.1-0.1,0.1
					c-0.1,0.2-0.2,0.3-0.3,0.5c-0.2,0.3-0.4,0.7-0.6,1c-0.2,0.4-0.4,0.8-0.7,1.2c-0.1,0.2-0.2,0.4-0.3,0.7c0,0,0,0,0,0.1
					c-0.1,0.2-0.2,0.4-0.3,0.6c0,0,0,0.1,0,0.1c-0.1,0.2-0.2,0.4-0.2,0.6c0,0,0,0.1,0,0.1c-0.1,0.3-0.2,0.5-0.3,0.8
					c-0.1,0.2-0.1,0.4-0.2,0.6c0,0,0,0,0,0c0,0.2-0.1,0.4-0.1,0.6c0,0,0,0.1,0,0.1c-1,5-0.8,11.9,5.5,17.6c0.2,0.2,0.5,0.4,0.7,0.6
					c0.2,0.2,0.5,0.3,0.7,0.5c0.2,0.1,0.5,0.3,0.7,0.4c0.2,0.1,0.5,0.2,0.7,0.3c0.2,0.1,0.5,0.2,0.7,0.2c0.2,0.1,0.5,0.1,0.7,0.2
					c0.6,0.2,1.3,0.2,1.9,0.3c0.7,0,1.3,0,2,0c0.6-0.1,1.1-0.2,1.6-0.3c0.2,0,0.4-0.1,0.6-0.2c0.2-0.1,0.4-0.1,0.7-0.2
					c0.2-0.1,0.5-0.2,0.7-0.3c0.2-0.1,0.5-0.2,0.7-0.3c0.2-0.1,0.5-0.2,0.7-0.4c0.2-0.1,0.4-0.3,0.7-0.4c0.2-0.2,0.4-0.3,0.6-0.5
					c0.1-0.1,0.2-0.1,0.2-0.2c0.1-0.1,0.1-0.2,0.2-0.2c1.5-1.4,4.4-5.4,6.5-8.3c0,0.1,0.6,1,0.7,1.1c0.3,0.4,0.5,0.7,0.8,1.1
					c0.4,0.6,0.9,1.2,1.3,1.8c0.9,1.2,1.9,2.5,3,3.6c0.7,0.8,1.5,1.4,2.4,2c2.7,1.7,6,2.2,9.1,1.4c0.6-0.2,1.2-0.4,1.8-0.7
					c2-0.9,3.6-2.4,4.9-4.2c2.9-4.2,4-9.5,3-14.6C103.6,47.8,103.2,46.6,102.8,45.4z M67.4,60.9c-0.1,0.1-0.3,0.2-0.4,0.4
					c-0.1,0.1-0.2,0.2-0.3,0.2c-1,0.7-2.3,1-3.5,1.1c-0.9,0.1-1.8,0-2.7-0.2c-0.1,0-0.2-0.1-0.4-0.1c-0.1,0-0.2-0.1-0.3-0.1
					c-0.2-0.1-0.3-0.1-0.5-0.2c-0.2-0.1-0.3-0.2-0.4-0.3c-0.1-0.1-0.3-0.2-0.4-0.3c-0.1-0.1-0.3-0.2-0.4-0.3
					c-0.1-0.1-0.3-0.2-0.4-0.3c-0.1-0.1-0.3-0.2-0.4-0.4c-0.1-0.1-0.2-0.3-0.4-0.4c-0.1-0.1-0.2-0.3-0.3-0.4
					c-0.1-0.1-0.2-0.3-0.3-0.4c-0.1-0.2-0.2-0.3-0.3-0.5c-0.1-0.2-0.2-0.3-0.3-0.5c-0.1-0.2-0.2-0.3-0.3-0.5
					c-0.1-0.2-0.2-0.4-0.2-0.5c-0.1-0.2-0.1-0.4-0.2-0.6c-0.1-0.2-0.1-0.4-0.2-0.6c-0.1-0.2-0.1-0.4-0.1-0.6c0-0.2-0.1-0.4-0.1-0.6
					c0-0.2-0.1-0.4-0.1-0.6c0-0.2,0-0.4-0.1-0.6c0-0.2,0-0.4,0-0.6c0-0.1,0-0.2,0-0.2c0-6.3,5.7-12.9,12.1-8.9
					c1,0.6,1.9,1.5,2.6,2.5c1.6,2.1,3.2,4.2,4.6,6.4c-0.7,1.1-1.5,2.2-2.2,3.3c-0.6,0.9-1.3,1.8-2,2.7
					C68.8,59.5,68.1,60.3,67.4,60.9z M94.8,61.7c-1.1,0.6-2.3,0.9-3.1,1c-0.8,0.1-1.6,0.1-2.3-0.1c-0.8-0.2-1.5-0.4-2.2-0.9
					c-0.7-0.4-1.3-1-1.9-1.6c-0.4-0.5-0.9-1-1.3-1.5c-0.5-0.6-0.9-1.2-1.4-1.8c-0.5-0.7-1-1.4-1.5-2.1c-0.1-0.1-0.2-0.3-0.3-0.5
					c-0.3-0.5-0.6-1-1-1.5c1.8-2.7,3.6-5.5,5.9-7.9c0.8-0.8,1.8-1.5,2.9-1.8l0,0c1.6-0.5,3.5-0.5,5.1,0.2c1.1,0.5,2.1,1.2,2.9,2.2
					c1.7,2,2.6,4.7,2.6,7.3C99.3,56.7,97.4,60.1,94.8,61.7z"/>
			</g>
		</g>
	</g>
	<g>
		<g>
			<g>
				<path class="st5" d="M150.8,45.3c17.9,0,32.5,14.6,32.5,32.5v30.7h-15.8V77.8c0-9.2-7.5-16.7-16.7-16.7s-16.7,7.5-16.7,16.7
					v30.7h-15.8V77.8C118.3,59.9,132.9,45.3,150.8,45.3z"/>
			</g>
		</g>
		<g>
			<g>
				<path class="st6" d="M134.1,108.6h-15.8V92.8h15.8V108.6z"/>
			</g>
			<g>
				<path class="st7" d="M183.3,108.6h-15.8V92.8h15.8V108.6z"/>
			</g>
		</g>
		<g>
			<path class="st3" d="M150.8,43.9c-4.6,0-9.1,0.9-13.3,2.7c-0.4,0.2-0.6,0.4-0.8,0.8c-0.1,0.4-0.1,0.7,0,1.1
				c0.3,0.7,1.2,1.1,1.9,0.8c3.9-1.7,8-2.5,12.2-2.5c17.1,0,31,13.9,31,31v13.5h-12.9V77.8c0-10-8.1-18.1-18.1-18.1
				c-10,0-18.1,8.1-18.1,18.1v13.5h-12.9V77.8c0-5.8,1.6-11.5,4.7-16.4c0.4-0.7,0.2-1.6-0.5-2c-0.7-0.4-1.6-0.2-2,0.5
				c-3.4,5.4-5.1,11.6-5.1,17.9v30.7c0,0.8,0.6,1.4,1.4,1.4h15.8c0.8,0,1.4-0.6,1.4-1.4V77.8c0-8.4,6.8-15.2,15.2-15.2
				S166,69.4,166,77.8v30.7c0,0.8,0.6,1.4,1.4,1.4h15.8c0.8,0,1.4-0.6,1.4-1.4V77.8C184.7,59.1,169.5,43.9,150.8,43.9z M168.9,107.1
				V94.2h12.9l0,12.9h0H168.9z M119.8,94.2h12.9l0,12.9h0h-12.9V94.2z"/>
			<path class="st3" d="M129.7,54.5c0.8,0,1.4-0.6,1.4-1.4s-0.6-1.4-1.4-1.4c-0.8,0-1.4,0.6-1.4,1.4S128.9,54.5,129.7,54.5z"/>
		</g>
	</g>
</g>
</svg>
