<?xml version="1.0" encoding="utf-8"?>
<!-- Generator: Adobe Illustrator 25.0.0, SVG Export Plug-In . SVG Version: 6.00 Build 0)  -->
<svg version="1.1" id="Layer_1" xmlns="http://www.w3.org/2000/svg" xmlns:xlink="http://www.w3.org/1999/xlink" x="0px" y="0px"
	 viewBox="0 0 246.3 150" style="enable-background:new 0 0 246.3 150;" xml:space="preserve">
<style type="text/css">
	.st0{fill:#F6C560;}
	.st1{opacity:4.000000e-02;}
	.st2{fill:#35414D;}
	.st3{fill:#92D37A;}
	.st4{fill:#FCD770;}
	.st5{fill:#FF826E;}
	.st6{fill:#57B7EB;}
	.st7{fill:#4891D3;}
	.st8{fill:#AAE1F9;}
	.st9{fill:#F8664F;}
	.st10{fill:#CC5144;}
	.st11{fill:#F89C8D;}
</style>
<g>
	<g>
		<g>
			<g>
				<g>
					<path class="st0" d="M164,46.2v60.2c0,2.4-1.8,4.3-3.8,4.3H60.5c-2.2,0-3.8-1.9-3.8-4.3V46.2c0-2.4,1.8-4,3.8-4H160
						C162.2,42.1,164,44,164,46.2L164,46.2z"/>
				</g>
				<g class="st1">
					<path d="M164,46.2v60.2c0,2.4-1.8,4.3-3.8,4.3H60.5c-2,0-3.8-1.9-3.8-4.3v-4.7h38.2c32,0,58.4-26.3,60.6-59.7h4.7
						C162.2,42.1,164,44,164,46.2L164,46.2z"/>
				</g>
			</g>
			<path class="st2" d="M60.5,112.2c-3,0-5.3-2.6-5.3-5.8V46.2c0-3.1,2.4-5.6,5.3-5.6H160c1.6,0,3.2,0.6,3.9,1.6
				c0.9,1.2,1.4,2.7,1.4,4v60.2c0,3.3-2.3,5.8-5.3,5.8H60.5z M58.2,106.3c0,1.3,0.9,2.7,2.3,2.7H160c1.5,0,2.5-1.1,2.5-2.7V45.6
				l-47.5,35.2c-1.5,1.2-3.2,1.8-4.9,1.8c-1.6,0-3.5-0.7-4.9-1.7l-47-35.2V106.3z M106.8,78.3c1,0.7,2.1,1,3.3,1
				c1.2,0,2.3-0.3,3.3-1l46.5-34.6h-11.8l-0.1,0.1c-0.7,0.1-3.9,0.2-15.4,0.2c0,0,0,0,0,0c-17.5,0-43.9-0.2-44.2-0.2H60.4
				L106.8,78.3z"/>
		</g>
		<g>
			<path class="st3" d="M110.6,93v2.5h-3.5v-2.6c-3.4-0.4-6.5-1.8-9-4.1l2.8-3.5c1.7,1.7,3.9,2.8,6.2,3.3v-7.6c-4.8-1.2-8-2.9-8-7.5
				c0-4.2,3.2-7.4,8-8v-2.4h3.5v2.4c3,0.3,5.9,1.6,8.1,3.6l-2.6,3.6c-1.6-1.4-3.5-2.4-5.5-2.9v7.3c5.3,1.2,8.8,3,8.8,7.8
				C119.5,89.4,116.2,92.6,110.6,93z M107.1,76.2v-6.4c-1.9,0.5-3.1,1.8-3.1,3.3C104,74.7,105,75.5,107.1,76.2z M114.6,85.4
				c0-1.8-1.2-2.6-4-3.4v6.9C113.3,88.5,114.6,87.1,114.6,85.4L114.6,85.4z"/>
			<g>
				<g>
					<path class="st2" d="M103.5,67.2c1.1-0.6,2.4-1,3.7-1.1c0.2,0,0.4-0.2,0.4-0.5v-1.9h2.5v1.9c0,0.3,0.2,0.5,0.4,0.5
						c2.8,0.3,5.4,1.4,7.5,3.2l-2.1,2.8c-1.5-1.3-3.4-2.2-5.3-2.7c-0.3-0.1-0.5,0.1-0.6,0.4c0,0,0,0.1,0,0.1v7.3
						c0,0.2,0.2,0.4,0.4,0.5c1.2,0.3,2.4,0.6,3.6,1c0.1,0,0.1,0,0.2,0c0.3,0,0.5-0.2,0.5-0.5c0-0.2-0.1-0.4-0.3-0.5
						c-1.1-0.4-2.2-0.7-3.3-1v-6.3c1.7,0.5,3.3,1.4,4.7,2.6c0.2,0.2,0.5,0.2,0.7-0.1c0,0,0,0,0,0l2.6-3.6c0.2-0.2,0.1-0.5-0.1-0.7
						c-2.2-2-5-3.3-8-3.7v-2c0-0.3-0.2-0.5-0.5-0.5h-3.5c-0.3,0-0.5,0.2-0.5,0.5v1.9c-1.3,0.2-2.5,0.6-3.6,1.2
						c-0.2,0.1-0.3,0.4-0.2,0.7C102.9,67.2,103.2,67.3,103.5,67.2C103.5,67.2,103.5,67.2,103.5,67.2L103.5,67.2z"/>
					<path class="st2" d="M114.3,79c-0.1,0-0.2,0-0.3-0.1c-1.1-0.4-2.3-0.8-3.6-1c-0.4-0.1-0.6-0.4-0.6-0.8v-7.3c0-0.1,0-0.1,0-0.2
						c0-0.2,0.2-0.4,0.3-0.5c0.2-0.1,0.4-0.1,0.6-0.1c1.9,0.4,3.7,1.3,5.2,2.5l1.7-2.3c-2.1-1.7-4.5-2.7-7.2-3
						c-0.4,0-0.7-0.4-0.7-0.8V64h-2v1.6c0,0.4-0.3,0.7-0.7,0.8c-1.3,0.1-2.5,0.5-3.6,1.1l0,0c-0.4,0.2-0.9,0.1-1.1-0.3
						c-0.1-0.2-0.1-0.4-0.1-0.6c0.1-0.2,0.2-0.4,0.4-0.5c1.1-0.6,2.2-1,3.4-1.2v-1.7c0-0.4,0.4-0.8,0.8-0.8h3.5
						c0.4,0,0.8,0.4,0.8,0.8v1.7c2.9,0.4,5.7,1.7,7.9,3.7c0.3,0.3,0.4,0.7,0.1,1.1l-2.6,3.6c-0.3,0.4-0.8,0.4-1.1,0.1
						c-1.2-1.1-2.7-1.9-4.2-2.5v5.6c1.1,0.3,2.1,0.6,3.2,1c0.3,0.1,0.5,0.4,0.5,0.7C115.1,78.6,114.7,79,114.3,79z M110.6,69.7
						c0,0-0.1,0-0.1,0c0,0-0.1,0.1-0.1,0.1l0,7.3c0,0.1,0.1,0.2,0.2,0.2c1.2,0.3,2.5,0.6,3.6,1.1c0.1,0.1,0.3-0.1,0.3-0.2
						c0-0.1-0.1-0.2-0.1-0.2c-1.1-0.4-2.2-0.7-3.3-1l-0.2-0.1v-6.9l0.4,0.1c1.8,0.5,3.4,1.5,4.8,2.7c0.1,0.1,0.2,0.1,0.3,0l2.6-3.6
						c0.1-0.1,0-0.2,0-0.3c-2.2-2-4.9-3.2-7.8-3.6l-0.3,0v-2.2c0-0.1-0.1-0.2-0.2-0.2h-3.5c-0.1,0-0.2,0.1-0.2,0.2v2.2l-0.2,0
						c-1.2,0.2-2.4,0.6-3.5,1.2c-0.1,0-0.1,0.1-0.1,0.1c0,0.1,0,0.1,0,0.2c0.1,0.1,0.2,0.1,0.3,0.1l0.2,0.2l-0.1-0.3
						c1.2-0.6,2.4-1,3.8-1.2c0.1,0,0.2-0.1,0.2-0.2v-2.2h3.1v2.2c0,0.1,0.1,0.2,0.2,0.2c2.8,0.3,5.5,1.4,7.7,3.3l0.2,0.2l-2.4,3.2
						l-0.2-0.2C114.4,71,112.6,70.1,110.6,69.7C110.6,69.7,110.6,69.7,110.6,69.7z"/>
				</g>
				<g>
					<path class="st2" d="M110.8,81.5c-0.3-0.1-0.5,0.1-0.6,0.3c0,0,0,0.1,0,0.1v6.9c0,0.3,0.2,0.5,0.5,0.5c0,0,0,0,0.1,0
						c2.7-0.3,4.4-1.9,4.4-4C115.1,83.2,113.5,82.3,110.8,81.5z M111.1,88.3v-5.7c2.3,0.7,3,1.4,3,2.7
						C114.1,86.8,113,87.9,111.1,88.3L111.1,88.3z"/>
					<path class="st2" d="M110.6,89.6c-0.4,0-0.8-0.4-0.8-0.8V82c0-0.1,0-0.1,0-0.2c0.1-0.4,0.6-0.7,1-0.5l0,0
						c2.8,0.8,4.6,1.8,4.6,4.2C115.4,87.6,113.6,89.3,110.6,89.6L110.6,89.6z M110.6,81.8c-0.1,0-0.2,0.1-0.2,0.1l0,7
						c0,0.1,0.1,0.2,0.2,0.2c2.6-0.3,4.2-1.7,4.2-3.7C114.8,83.4,113.4,82.6,110.6,81.8L110.6,81.8
						C110.7,81.8,110.6,81.8,110.6,81.8z M110.8,88.6v-6.4l0.4,0.1c2.4,0.8,3.2,1.6,3.2,3c0,1.6-1.2,2.8-3.2,3.2L110.8,88.6z
						 M111.4,83v4.9c1.5-0.4,2.4-1.3,2.4-2.6C113.8,84.4,113.4,83.7,111.4,83z"/>
				</g>
				<g>
					<path class="st2" d="M116.2,78.6c-0.2-0.1-0.5,0-0.7,0.2c-0.1,0.2,0,0.5,0.2,0.7c0.2,0.1,0.5,0.3,0.7,0.4
						c0.2,0.2,0.5,0.1,0.7-0.1s0.1-0.5-0.1-0.7C116.8,78.9,116.5,78.7,116.2,78.6L116.2,78.6z"/>
					<path class="st2" d="M116.7,80.3c-0.2,0-0.3,0-0.4-0.1c-0.2-0.1-0.4-0.3-0.7-0.4c-0.4-0.2-0.5-0.7-0.3-1.1
						c0.2-0.4,0.7-0.5,1.1-0.3l0,0c0.3,0.2,0.5,0.3,0.8,0.5c0.2,0.1,0.3,0.3,0.3,0.5c0,0.2,0,0.4-0.1,0.6c-0.1,0.2-0.3,0.3-0.5,0.3
						C116.8,80.3,116.8,80.3,116.7,80.3z M116,78.8c-0.1,0-0.1,0-0.2,0.1c-0.1,0.1,0,0.2,0.1,0.3c0.3,0.1,0.5,0.3,0.7,0.5
						c0,0,0.1,0,0.2,0c0.1,0,0.1,0,0.1-0.1c0,0,0-0.1,0-0.2c0-0.1,0-0.1-0.1-0.1C116.6,79.2,116.4,79,116,78.8L116,78.8
						C116.1,78.8,116,78.8,116,78.8z"/>
				</g>
				<g>
					<path class="st2" d="M118.5,80.4c-0.2-0.2-0.5-0.3-0.7-0.1c-0.2,0.2-0.3,0.5-0.1,0.7c0,0,0,0,0,0c0.8,1,1.3,2.3,1.3,3.9
						c0,4.3-3.2,7.3-8.4,7.6c-0.3,0-0.5,0.2-0.5,0.5v2h-2.5v-2.1c0-0.2-0.2-0.5-0.4-0.5c-3.1-0.3-6.1-1.6-8.4-3.7l2.2-2.7
						c1.7,1.5,3.8,2.6,6.1,3.1c0.3,0.1,0.5-0.1,0.6-0.4c0,0,0-0.1,0-0.1v-2.8c0-0.3-0.2-0.5-0.5-0.5s-0.5,0.2-0.5,0.5V88
						c-2-0.6-3.9-1.6-5.4-3.1c-0.2-0.2-0.5-0.2-0.7,0c0,0,0,0,0,0l-2.8,3.5c-0.2,0.2-0.1,0.5,0,0.7c2.5,2.3,5.6,3.8,8.9,4.2v2.2
						c0,0.3,0.2,0.5,0.5,0.5h3.5c0.3,0,0.5-0.2,0.5-0.5v-2c5.5-0.5,8.8-3.8,8.8-8.6C120,83.1,119.5,81.6,118.5,80.4L118.5,80.4z"/>
					<path class="st2" d="M110.6,96.3h-3.5c-0.4,0-0.8-0.4-0.8-0.8v-1.9c-3.3-0.5-6.3-2-8.8-4.3c-0.3-0.3-0.3-0.7-0.1-1.1l2.8-3.5
						c0.2-0.2,0.4-0.3,0.6-0.3c0.2,0,0.4,0.1,0.6,0.2c1.4,1.3,3.1,2.3,4.9,2.9v-1.8c0-0.4,0.4-0.8,0.8-0.8c0.4,0,0.8,0.4,0.8,0.8
						v2.8c0,0.1,0,0.1,0,0.2c0,0.2-0.2,0.4-0.3,0.5c-0.2,0.1-0.4,0.2-0.6,0.1c-2.2-0.5-4.3-1.5-6-3l-1.8,2.2c2.3,1.9,5.1,3.1,8,3.5
						c0.4,0,0.7,0.4,0.7,0.8v1.8h2V93c0-0.4,0.3-0.8,0.7-0.8c5-0.3,8.1-3.2,8.1-7.3c0-1.5-0.4-2.7-1.2-3.7c-0.2-0.2-0.2-0.4-0.2-0.6
						c0-0.2,0.1-0.4,0.3-0.5c0.3-0.3,0.8-0.2,1.1,0.1c1,1.3,1.5,2.8,1.5,4.7c0,4.8-3.4,8.2-8.8,8.8v1.8
						C111.4,95.9,111,96.3,110.6,96.3z M100.8,85.1C100.8,85.1,100.8,85.1,100.8,85.1c-0.1,0-0.1,0-0.1,0.1l-2.8,3.5
						c-0.1,0.1-0.1,0.2,0,0.3c2.4,2.3,5.4,3.7,8.7,4.1l0.3,0v2.4c0,0.1,0.1,0.2,0.2,0.2h3.5c0.1,0,0.2-0.1,0.2-0.2v-2.3l0.3,0
						c5.3-0.5,8.6-3.7,8.6-8.3c0-1.7-0.5-3.2-1.4-4.3l0,0c-0.1-0.1-0.2-0.1-0.3,0c0,0-0.1,0.1-0.1,0.1c0,0.1,0,0.1,0,0.1
						c0.9,1.1,1.3,2.4,1.3,4.1c0,4.5-3.3,7.5-8.7,7.9c-0.1,0-0.2,0.1-0.2,0.2v2.3h-3.1v-2.4c0-0.1-0.1-0.2-0.2-0.2
						c-3.2-0.4-6.2-1.7-8.6-3.8l-0.2-0.2l2.5-3.1l0.2,0.2c1.7,1.5,3.7,2.5,6,3c0.1,0,0.2,0,0.2-0.2l0-2.8c0-0.1-0.1-0.2-0.2-0.2
						s-0.2,0.1-0.2,0.2v2.5l-0.4-0.1c-2.1-0.6-4-1.7-5.5-3.1C100.9,85.1,100.9,85.1,100.8,85.1z"/>
				</g>
				<g>
					<path class="st2" d="M106.6,81.4v2.2c0,0.3,0.2,0.5,0.5,0.5s0.5-0.2,0.5-0.5v-2.6c0-0.2-0.2-0.4-0.4-0.5
						c-4.7-1.2-7.6-2.8-7.6-7c0-1.9,0.8-3.8,2.2-5.1c0.2-0.2,0.2-0.5,0-0.7c-0.2-0.2-0.5-0.2-0.7,0c-1.6,1.5-2.5,3.6-2.5,5.8
						C98.6,78.3,101.8,80.1,106.6,81.4L106.6,81.4z"/>
					<path class="st2" d="M107.1,84.4c-0.4,0-0.8-0.4-0.8-0.8v-2c-4.2-1.2-8-3-8-8.1c0-2.3,0.9-4.5,2.6-6.1c0.3-0.3,0.8-0.3,1.1,0
						c0.3,0.3,0.3,0.8,0,1.1c-1.4,1.3-2.1,3.1-2.1,4.9c0,4,2.8,5.6,7.4,6.8c0.3,0.1,0.6,0.4,0.6,0.8v2.6
						C107.9,84.1,107.5,84.4,107.1,84.4z M101.4,67.9c0,0-0.1,0-0.1,0.1c-1.5,1.5-2.4,3.5-2.4,5.6c0,4.6,3.1,6.4,7.8,7.6l0.2,0.1
						v2.4c0,0.1,0.1,0.2,0.2,0.2s0.2-0.1,0.2-0.2v-2.6c0-0.1-0.1-0.2-0.2-0.2c-4.8-1.3-7.8-2.9-7.8-7.3c0-2,0.8-4,2.3-5.3
						c0,0,0.1-0.1,0.1-0.1c0-0.1,0-0.1-0.1-0.1C101.5,67.9,101.5,67.9,101.4,67.9z"/>
				</g>
				<g>
					<path class="st2" d="M107,69.3c-2.1,0.5-3.5,2-3.5,3.8c0,2.1,1.6,2.9,3.4,3.6c0.2,0.1,0.3,0,0.4-0.1c0.1-0.1,0.2-0.2,0.2-0.4
						v-6.4c0-0.3-0.2-0.5-0.5-0.5C107.1,69.3,107,69.3,107,69.3L107,69.3z M106.6,75.5c-1.6-0.6-2.1-1.3-2.1-2.4
						c0-1.1,0.8-2.2,2.1-2.7V75.5z"/>
					<path class="st2" d="M107.1,77c-0.1,0-0.2,0-0.3,0c-1.8-0.6-3.6-1.6-3.6-3.8c0-1.9,1.5-3.6,3.7-4.1h0c0.5-0.1,1,0.3,1,0.8v6.4
						c0,0.3-0.1,0.5-0.3,0.6C107.4,76.9,107.3,77,107.1,77z M107,69.3l0.1,0.3c-1.9,0.5-3.3,1.9-3.3,3.5c0,1.8,1.3,2.6,3.2,3.3
						c0.1,0,0.1,0,0.2,0c0.1,0,0.1-0.1,0.1-0.2v-6.4c0-0.1-0.1-0.2-0.2-0.2L107,69.3z M106.9,75.9l-0.4-0.2
						c-1.7-0.7-2.3-1.4-2.3-2.7c0-1.3,0.9-2.4,2.3-2.9l0.4-0.2V75.9z M106.3,70.9c-1,0.5-1.5,1.3-1.5,2.2c0,0.7,0.3,1.3,1.5,1.9
						V70.9z"/>
				</g>
			</g>
		</g>
	</g>
	<g>
		<g>
			<g>
				<g>
					<path class="st0" d="M181.4,84v60.2c0,2.4-1.8,4.3-3.8,4.3H77.8c-2.2,0-3.8-1.9-3.8-4.3V84c0-2.4,1.8-4,3.8-4h99.5
						C179.6,80,181.4,81.9,181.4,84L181.4,84z"/>
				</g>
				<g class="st1">
					<path d="M181.4,84v60.2c0,2.4-1.8,4.3-3.8,4.3H77.8c-2,0-3.8-1.9-3.8-4.3v-4.7h38.2c32,0,58.4-26.3,60.6-59.7h4.7
						C179.6,80,181.4,81.9,181.4,84L181.4,84z"/>
				</g>
			</g>
			<path class="st2" d="M77.8,150c-3,0-5.3-2.6-5.3-5.8V84c0-3.1,2.4-5.6,5.3-5.6h99.5c1.6,0,3.2,0.6,3.9,1.6c0.9,1.2,1.4,2.7,1.4,4
				v60.2c0,3.3-2.3,5.8-5.3,5.8H77.8z M75.5,144.2c0,1.3,0.9,2.7,2.3,2.7h99.5c1.5,0,2.5-1.1,2.5-2.7V83.4l-47.5,35.2
				c-1.5,1.2-3.2,1.8-4.9,1.8c-1.6,0-3.5-0.7-4.9-1.7l-47-35.2V144.2z M124.2,116.2c1,0.7,2.1,1,3.3,1c1.2,0,2.3-0.3,3.3-1
				l46.5-34.6h-11.8l-0.1,0.1c-0.7,0.1-3.9,0.2-15.4,0.2c0,0,0,0,0,0c-17.5,0-43.9-0.2-44.2-0.2H77.7L124.2,116.2z"/>
		</g>
		<g>
			<path class="st3" d="M128,130.8v2.5h-3.5v-2.6c-3.4-0.4-6.5-1.8-9-4.1l2.8-3.5c1.7,1.7,3.9,2.8,6.2,3.3v-7.6
				c-4.8-1.2-8-2.9-8-7.5c0-4.2,3.2-7.4,8-8V101h3.5v2.4c3,0.3,5.9,1.6,8.1,3.6l-2.6,3.6c-1.6-1.4-3.5-2.4-5.5-2.9v7.3
				c5.3,1.2,8.8,3,8.8,7.8C136.8,127.2,133.6,130.5,128,130.8z M124.4,114v-6.4c-1.9,0.5-3.1,1.8-3.1,3.3
				C121.3,112.5,122.3,113.3,124.4,114z M132,123.2c0-1.8-1.2-2.6-4-3.4v6.9C130.6,126.4,132,124.9,132,123.2L132,123.2z"/>
			<g>
				<g>
					<path class="st2" d="M120.8,105c1.1-0.6,2.4-1,3.7-1.1c0.2,0,0.4-0.2,0.4-0.5v-1.9h2.5v1.9c0,0.3,0.2,0.5,0.4,0.5
						c2.8,0.3,5.4,1.4,7.5,3.2l-2.1,2.8c-1.5-1.3-3.4-2.2-5.3-2.7c-0.3-0.1-0.5,0.1-0.6,0.4c0,0,0,0.1,0,0.1v7.3
						c0,0.2,0.2,0.4,0.4,0.5c1.2,0.3,2.4,0.6,3.6,1c0.1,0,0.1,0,0.2,0c0.3,0,0.5-0.2,0.5-0.5c0-0.2-0.1-0.4-0.3-0.5
						c-1.1-0.4-2.2-0.7-3.3-1v-6.3c1.7,0.5,3.3,1.4,4.7,2.6c0.2,0.2,0.5,0.2,0.7-0.1c0,0,0,0,0,0l2.6-3.6c0.2-0.2,0.1-0.5-0.1-0.7
						c-2.2-2-5-3.3-8-3.7v-2c0-0.3-0.2-0.5-0.5-0.5h-3.5c-0.3,0-0.5,0.2-0.5,0.5v1.9c-1.3,0.2-2.5,0.6-3.6,1.2
						c-0.2,0.1-0.3,0.4-0.2,0.7C120.3,105.1,120.6,105.2,120.8,105C120.8,105,120.8,105,120.8,105L120.8,105z"/>
					<path class="st2" d="M131.6,116.8c-0.1,0-0.2,0-0.3-0.1c-1.1-0.4-2.3-0.8-3.6-1c-0.4-0.1-0.6-0.4-0.6-0.8v-7.3
						c0-0.1,0-0.1,0-0.2c0-0.2,0.2-0.4,0.3-0.5c0.2-0.1,0.4-0.1,0.6-0.1c1.9,0.4,3.7,1.3,5.2,2.5l1.7-2.3c-2.1-1.7-4.5-2.7-7.2-3
						c-0.4,0-0.7-0.4-0.7-0.8v-1.6h-2v1.6c0,0.4-0.3,0.7-0.7,0.8c-1.3,0.1-2.5,0.5-3.6,1.1l0,0c-0.4,0.2-0.9,0.1-1.1-0.3
						c-0.1-0.2-0.1-0.4-0.1-0.6c0.1-0.2,0.2-0.4,0.4-0.5c1.1-0.6,2.2-1,3.4-1.2V101c0-0.4,0.4-0.8,0.8-0.8h3.5
						c0.4,0,0.8,0.4,0.8,0.8v1.7c2.9,0.4,5.7,1.7,7.9,3.7c0.3,0.3,0.4,0.7,0.1,1.1l-2.6,3.6c-0.3,0.4-0.8,0.4-1.1,0.1
						c-1.2-1.1-2.7-1.9-4.2-2.5v5.6c1.1,0.3,2.1,0.6,3.2,1c0.3,0.1,0.5,0.4,0.5,0.7C132.4,116.5,132.1,116.8,131.6,116.8z
						 M128,107.5c0,0-0.1,0-0.1,0c0,0-0.1,0.1-0.1,0.1l0,7.3c0,0.1,0.1,0.2,0.2,0.2c1.2,0.3,2.5,0.6,3.6,1.1
						c0.1,0.1,0.3-0.1,0.3-0.2c0-0.1-0.1-0.2-0.1-0.2c-1.1-0.4-2.2-0.7-3.3-1l-0.2-0.1v-6.9l0.4,0.1c1.8,0.5,3.4,1.5,4.8,2.7
						c0.1,0.1,0.2,0.1,0.3,0l2.6-3.6c0.1-0.1,0-0.2,0-0.3c-2.2-2-4.9-3.2-7.8-3.6l-0.3,0V101c0-0.1-0.1-0.2-0.2-0.2h-3.5
						c-0.1,0-0.2,0.1-0.2,0.2v2.2l-0.2,0c-1.2,0.2-2.4,0.6-3.5,1.2c-0.1,0-0.1,0.1-0.1,0.1c0,0.1,0,0.1,0,0.2
						c0.1,0.1,0.2,0.1,0.3,0.1l0.2,0.2l-0.1-0.3c1.2-0.6,2.4-1,3.8-1.2c0.1,0,0.2-0.1,0.2-0.2v-2.2h3.1v2.2c0,0.1,0.1,0.2,0.2,0.2
						c2.8,0.3,5.5,1.4,7.7,3.3l0.2,0.2l-2.4,3.2l-0.2-0.2C131.7,108.8,129.9,107.9,128,107.5C128,107.5,128,107.5,128,107.5z"/>
				</g>
				<g>
					<path class="st2" d="M128.1,119.3c-0.3-0.1-0.5,0.1-0.6,0.3c0,0,0,0.1,0,0.1v6.9c0,0.3,0.2,0.5,0.5,0.5c0,0,0,0,0.1,0
						c2.7-0.3,4.4-1.9,4.4-4C132.5,121,130.9,120.1,128.1,119.3z M128.5,126.1v-5.7c2.3,0.7,3,1.4,3,2.7
						C131.5,124.7,130.3,125.7,128.5,126.1L128.5,126.1z"/>
					<path class="st2" d="M128,127.5c-0.4,0-0.8-0.4-0.8-0.8v-6.9c0-0.1,0-0.1,0-0.2c0.1-0.4,0.6-0.7,1-0.5l0,0
						c2.8,0.8,4.6,1.8,4.6,4.2C132.7,125.5,130.9,127.1,128,127.5L128,127.5z M128,119.6c-0.1,0-0.2,0.1-0.2,0.1l0,7
						c0,0.1,0.1,0.2,0.2,0.2c2.6-0.3,4.2-1.7,4.2-3.7C132.2,121.2,130.7,120.4,128,119.6L128,119.6C128,119.6,128,119.6,128,119.6z
						 M128.2,126.5v-6.4l0.4,0.1c2.4,0.8,3.2,1.6,3.2,3c0,1.6-1.2,2.8-3.2,3.2L128.2,126.5z M128.8,120.9v4.9
						c1.5-0.4,2.4-1.3,2.4-2.6C131.2,122.3,130.8,121.6,128.8,120.9z"/>
				</g>
				<g>
					<path class="st2" d="M133.6,116.4c-0.2-0.1-0.5,0-0.7,0.2c-0.1,0.2,0,0.5,0.2,0.7c0.2,0.1,0.5,0.3,0.7,0.4
						c0.2,0.2,0.5,0.1,0.7-0.1s0.1-0.5-0.1-0.7C134.1,116.7,133.9,116.6,133.6,116.4L133.6,116.4z"/>
					<path class="st2" d="M134.1,118.1c-0.2,0-0.3,0-0.4-0.1c-0.2-0.1-0.4-0.3-0.7-0.4c-0.4-0.2-0.5-0.7-0.3-1.1
						c0.2-0.4,0.7-0.5,1.1-0.3l0,0c0.3,0.2,0.5,0.3,0.8,0.5c0.2,0.1,0.3,0.3,0.3,0.5c0,0.2,0,0.4-0.1,0.6c-0.1,0.2-0.3,0.3-0.5,0.3
						C134.2,118.1,134.1,118.1,134.1,118.1z M133.4,116.7c-0.1,0-0.1,0-0.2,0.1c-0.1,0.1,0,0.2,0.1,0.3c0.3,0.1,0.5,0.3,0.7,0.5
						c0,0,0.1,0,0.2,0c0.1,0,0.1,0,0.1-0.1c0,0,0-0.1,0-0.2c0-0.1,0-0.1-0.1-0.1C134,117,133.7,116.8,133.4,116.7L133.4,116.7
						C133.4,116.7,133.4,116.7,133.4,116.7z"/>
				</g>
				<g>
					<path class="st2" d="M135.8,118.2c-0.2-0.2-0.5-0.3-0.7-0.1c-0.2,0.2-0.3,0.5-0.1,0.7c0,0,0,0,0,0c0.8,1,1.3,2.3,1.3,3.9
						c0,4.3-3.2,7.3-8.4,7.6c-0.3,0-0.5,0.2-0.5,0.5v2h-2.5v-2.1c0-0.2-0.2-0.5-0.4-0.5c-3.1-0.3-6.1-1.6-8.4-3.7l2.2-2.7
						c1.7,1.5,3.8,2.6,6.1,3.1c0.3,0.1,0.5-0.1,0.6-0.4c0,0,0-0.1,0-0.1v-2.8c0-0.3-0.2-0.5-0.5-0.5s-0.5,0.2-0.5,0.5v2.1
						c-2-0.6-3.9-1.6-5.4-3.1c-0.2-0.2-0.5-0.2-0.7,0c0,0,0,0,0,0l-2.8,3.5c-0.2,0.2-0.1,0.5,0,0.7c2.5,2.3,5.6,3.8,8.9,4.2v2.2
						c0,0.3,0.2,0.5,0.5,0.5h3.5c0.3,0,0.5-0.2,0.5-0.5v-2c5.5-0.5,8.8-3.8,8.8-8.6C137.3,120.9,136.8,119.5,135.8,118.2
						L135.8,118.2z"/>
					<path class="st2" d="M128,134.1h-3.5c-0.4,0-0.8-0.4-0.8-0.8v-1.9c-3.3-0.5-6.3-2-8.8-4.3c-0.3-0.3-0.3-0.7-0.1-1.1l2.8-3.5
						c0.2-0.2,0.4-0.3,0.6-0.3c0.2,0,0.4,0.1,0.6,0.2c1.4,1.3,3.1,2.3,4.9,2.9v-1.8c0-0.4,0.4-0.8,0.8-0.8c0.4,0,0.8,0.4,0.8,0.8
						v2.8c0,0.1,0,0.1,0,0.2c0,0.2-0.2,0.4-0.3,0.5c-0.2,0.1-0.4,0.2-0.6,0.1c-2.2-0.5-4.3-1.5-6-3l-1.8,2.2c2.3,1.9,5.1,3.1,8,3.5
						c0.4,0,0.7,0.4,0.7,0.8v1.8h2v-1.7c0-0.4,0.3-0.8,0.7-0.8c5-0.3,8.1-3.2,8.1-7.3c0-1.5-0.4-2.7-1.2-3.7
						c-0.2-0.2-0.2-0.4-0.2-0.6s0.1-0.4,0.3-0.5c0.3-0.3,0.8-0.2,1.1,0.1c1,1.3,1.5,2.8,1.5,4.7c0,4.8-3.4,8.2-8.8,8.8v1.8
						C128.8,133.8,128.4,134.1,128,134.1z M118.2,122.9C118.2,122.9,118.2,122.9,118.2,122.9c-0.1,0-0.1,0-0.1,0.1l-2.8,3.5
						c-0.1,0.1-0.1,0.2,0,0.3c2.4,2.3,5.4,3.7,8.7,4.1l0.3,0v2.4c0,0.1,0.1,0.2,0.2,0.2h3.5c0.1,0,0.2-0.1,0.2-0.2V131l0.3,0
						c5.3-0.5,8.6-3.7,8.6-8.3c0-1.7-0.5-3.2-1.4-4.3l0,0c-0.1-0.1-0.2-0.1-0.3,0c0,0-0.1,0.1-0.1,0.1c0,0.1,0,0.1,0,0.1
						c0.9,1.1,1.3,2.4,1.3,4.1c0,4.5-3.3,7.5-8.7,7.9c-0.1,0-0.2,0.1-0.2,0.2v2.3h-3.1v-2.4c0-0.1-0.1-0.2-0.2-0.2
						c-3.2-0.4-6.2-1.7-8.6-3.8l-0.2-0.2l2.5-3.1l0.2,0.2c1.7,1.5,3.7,2.5,6,3c0.1,0,0.2,0,0.2-0.2l0-2.8c0-0.1-0.1-0.2-0.2-0.2
						s-0.2,0.1-0.2,0.2v2.5l-0.4-0.1c-2.1-0.6-4-1.7-5.5-3.1C118.3,122.9,118.2,122.9,118.2,122.9z"/>
				</g>
				<g>
					<path class="st2" d="M123.9,119.3v2.2c0,0.3,0.2,0.5,0.5,0.5s0.5-0.2,0.5-0.5v-2.6c0-0.2-0.2-0.4-0.4-0.5
						c-4.7-1.2-7.6-2.8-7.6-7c0-1.9,0.8-3.8,2.2-5.1c0.2-0.2,0.2-0.5,0-0.7c-0.2-0.2-0.5-0.2-0.7,0c-1.6,1.5-2.5,3.6-2.5,5.8
						C116,116.1,119.1,118,123.9,119.3L123.9,119.3z"/>
					<path class="st2" d="M124.4,122.3c-0.4,0-0.8-0.4-0.8-0.8v-2c-4.2-1.2-8-3-8-8.1c0-2.3,0.9-4.5,2.6-6.1c0.3-0.3,0.8-0.3,1.1,0
						c0.3,0.3,0.3,0.8,0,1.1c-1.4,1.3-2.1,3.1-2.1,4.9c0,4,2.8,5.6,7.4,6.8c0.3,0.1,0.6,0.4,0.6,0.8v2.6
						C125.2,121.9,124.9,122.3,124.4,122.3z M118.8,105.7c0,0-0.1,0-0.1,0.1c-1.5,1.5-2.4,3.5-2.4,5.6c0,4.6,3.1,6.4,7.8,7.6
						l0.2,0.1v2.4c0,0.1,0.1,0.2,0.2,0.2s0.2-0.1,0.2-0.2v-2.6c0-0.1-0.1-0.2-0.2-0.2c-4.8-1.3-7.8-2.9-7.8-7.3c0-2,0.8-4,2.3-5.3
						c0,0,0.1-0.1,0.1-0.1c0-0.1,0-0.1-0.1-0.1C118.9,105.7,118.8,105.7,118.8,105.7z"/>
				</g>
				<g>
					<path class="st2" d="M124.3,107.1c-2.1,0.5-3.5,2-3.5,3.8c0,2.1,1.6,2.9,3.4,3.6c0.2,0.1,0.3,0,0.4-0.1
						c0.1-0.1,0.2-0.2,0.2-0.4v-6.4c0-0.3-0.2-0.5-0.5-0.5C124.4,107.1,124.4,107.1,124.3,107.1L124.3,107.1z M123.9,113.3
						c-1.6-0.6-2.1-1.3-2.1-2.4c0-1.1,0.8-2.2,2.1-2.7V113.3z"/>
					<path class="st2" d="M124.4,114.8c-0.1,0-0.2,0-0.3,0c-1.8-0.6-3.6-1.6-3.6-3.8c0-1.9,1.5-3.6,3.7-4.1h0c0.5-0.1,1,0.3,1,0.8
						v6.4c0,0.3-0.1,0.5-0.3,0.6C124.8,114.8,124.6,114.8,124.4,114.8z M124.3,107.1l0.1,0.3c-1.9,0.5-3.3,1.9-3.3,3.5
						c0,1.8,1.3,2.6,3.2,3.3c0.1,0,0.1,0,0.2,0c0.1,0,0.1-0.1,0.1-0.2v-6.4c0-0.1-0.1-0.2-0.2-0.2L124.3,107.1z M124.2,113.8
						l-0.4-0.2c-1.7-0.7-2.3-1.4-2.3-2.7c0-1.3,0.9-2.4,2.3-2.9l0.4-0.2V113.8z M123.7,108.7c-1,0.5-1.5,1.3-1.5,2.2
						c0,0.7,0.3,1.3,1.5,1.9V108.7z"/>
				</g>
			</g>
		</g>
	</g>
	<g>
		<g>
			<path class="st4" d="M38.5,100.1l-3.1,3.1l-0.6-0.6c-1.1-1.1-2.9-1.5-4.4-0.9c0,0,0,0,0,0c-1.5,0.6-2.4,2-2.4,3.6v0.9h-4.2h-3.6
				h-1.6v-0.9c0-1.6-1-3-2.4-3.6c0,0,0,0,0,0c-1.5-0.6-3.2-0.3-4.4,0.9l-0.6,0.6l-6.6-6.6l0.6-0.6c1.1-1.1,1.4-2.8,0.8-4.3
				c0,0,0,0,0,0c-0.6-1.5-2-2.4-3.6-2.4H1.6V80h0.9c1.6,0,3-1,3.6-2.4c0,0,0,0,0,0c0.6-1.5,0.3-3.2-0.8-4.3l-0.6-0.6l6.6-6.6
				l0.6,0.6c1.1,1.1,2.8,1.4,4.3,0.8c0,0,0,0,0,0c1.5-0.6,2.4-2,2.4-3.6v-0.9h9.3v0.9c0,1.6,1,3,2.4,3.6c0,0,0,0,0,0
				c1.5,0.6,3.2,0.3,4.3-0.8l0.6-0.6l6.6,6.6l-0.6,0.6c-1.1,1.1-1.4,2.8-0.8,4.3c0,0,0,0,0,0c0.6,1.5,2,2.4,3.6,2.4H45v9.3h-0.9
				c-1.6,0-3,1-3.6,2.4c0,0,0,0,0,0c-0.6,1.5-0.3,3.2,0.8,4.3l0.6,0.6L38.5,100.1z"/>
		</g>
		<g>
			<path class="st5" d="M25.7,82.2v4.9c0,1.4-1.1,2.4-2.4,2.4c-0.7,0-1.3-0.3-1.7-0.7c-0.4-0.4-0.7-1.1-0.7-1.7v-4.9
				c0-1.4,1.1-2.4,2.4-2.4c0.7,0,1.3,0.3,1.7,0.7C25.5,80.9,25.7,81.5,25.7,82.2z"/>
		</g>
		<path class="st2" d="M24.7,97.8v-2.9h-1.5c-4,0-7.3-3.3-7.3-7.3v-5.9c0-4,3.3-7.3,7.3-7.3s7.3,3.3,7.3,7.3v5.9
			c0,0.8-0.7,1.5-1.5,1.5s-1.5-0.7-1.5-1.5v-5.9c0-2.4-2-4.4-4.4-4.4s-4.4,2-4.4,4.4v5.9c0,2.4,2,4.4,4.4,4.4c1.1,0,2.2-0.4,2.9-1.1
			c0.8,0.7,1.8,1.1,2.9,1.1c2.4,0,4.4-2,4.4-4.4v-5.9c0-5.7-4.6-10.3-10.3-10.3S13,76,13,81.7v5.9c0,5.7,4.6,10.3,10.3,10.3H24.7z
			 M24.7,87.5c0,0.8-0.7,1.5-1.5,1.5c-0.8,0-1.5-0.7-1.5-1.5v-5.9c0-0.8,0.7-1.5,1.5-1.5c0.8,0,1.5,0.7,1.5,1.5V87.5z"/>
		<g>
			<path class="st2" d="M41.9,92.3c0.4-0.9,1.2-1.5,2.2-1.5h2.4V78.4h-2.4c-1,0-1.8-0.6-2.2-1.5l0-0.1c-0.4-0.9-0.2-1.9,0.5-2.6
				l1.7-1.7l-8.8-8.8l-1.7,1.7c-0.7,0.7-1.7,0.9-2.6,0.5L31,66c-0.9-0.4-1.5-1.2-1.5-2.2v-2.4H17.1v2.4c0,0.9-0.6,1.8-1.5,2.2
				l-0.1,0c-0.9,0.4-1.9,0.2-2.6-0.5l-1.7-1.7l-8.8,8.8l1.7,1.7C4.8,74.9,5,76,4.6,76.9l0,0.1c-0.4,0.9-1.2,1.5-2.2,1.5H0v12.4h2.4
				c1,0,1.8,0.6,2.2,1.5l0,0.1C5,93.3,4.8,94.3,4.2,95l-1.7,1.7l8.8,8.8l1.7-1.7c0.7-0.7,1.8-0.9,2.7-0.6l0.1,0
				c0.9,0.4,1.5,1.2,1.5,2.2v2.4h12.4v-2.4c0-0.9,0.6-1.8,1.5-2.2l0.1,0c0.9-0.4,2-0.2,2.7,0.6l1.7,1.7l3.8-3.8l3.1-3.1l1.9-1.9
				L42.4,95C41.7,94.3,41.5,93.3,41.9,92.3L41.9,92.3z M39.1,91.1L39.1,91.1c-0.8,1.9-0.5,4,0.7,5.5l-4.5,4.5
				c-1.6-1.2-3.6-1.5-5.5-0.7l-0.1,0c-1.9,0.8-3.1,2.4-3.4,4.4h-6.3c-0.2-1.9-1.5-3.6-3.4-4.4l0,0c-1.8-0.8-3.9-0.5-5.5,0.7
				l-4.5-4.5C8,95.1,8.3,93,7.5,91.2l0,0C6.7,89.3,5,88,3.1,87.8v-6.3C5,81.2,6.7,80,7.5,78.1l0,0c0.8-1.9,0.5-4-0.7-5.5l4.4-4.4
				c1.5,1.2,3.6,1.5,5.5,0.7l0,0c1.9-0.8,3.1-2.4,3.4-4.4h6.3c0.2,1.9,1.5,3.6,3.4,4.4l0,0c1.9,0.8,4,0.5,5.5-0.7l4.4,4.4
				c-1.2,1.5-1.5,3.6-0.7,5.5l0,0c0.8,1.9,2.4,3.1,4.4,3.4v6.3C41.5,88,39.8,89.3,39.1,91.1z"/>
		</g>
	</g>
	<g id="Fill_Outline_6_">
		<g id="Color_5_">
			<g>
				<path class="st6" d="M191.6,61.9l1.2-17.8l52.3-15.5L191.6,61.9z"/>
				<path class="st7" d="M191.6,61.9l53.5-33.3l-48.8,23.8L191.6,61.9z"/>
				<path class="st8" d="M185.7,32.1l59.5-3.6L192.8,44L185.7,32.1z"/>
				<path class="st8" d="M245.1,28.6l-48.8,23.8l13.1,10.7L245.1,28.6z"/>
				<path class="st9" d="M226.4,8.2c-2.9-3.6-8-4.5-11.9-2c-2.4,1.6-3.9,4.2-3.9,7.1c0-2.9-1.5-5.6-3.9-7.1c-3.9-2.5-9-1.7-11.9,2
					c-3.3,4.2-2.5,10.3,1.6,13.6l14.2,11.5l14.2-11.5C229,18.5,229.7,12.4,226.4,8.2L226.4,8.2z"/>
				<path class="st10" d="M226.4,8.2c-1-1.4-2.5-2.4-4.1-2.9c-1.3,10.9-9.9,19.4-20.7,20.7l9,7.3l14.2-11.5
					C229,18.5,229.7,12.4,226.4,8.2L226.4,8.2z"/>
				<path class="st11" d="M244.5,2.3c-0.9-1.2-2.7-1.5-4-0.7c-0.8,0.5-1.3,1.4-1.3,2.4c0-1-0.5-1.9-1.3-2.4c-1.3-0.8-3-0.6-4,0.7
					c-1.1,1.4-0.8,3.4,0.5,4.5l4.7,3.8l4.7-3.8C245.3,5.8,245.5,3.7,244.5,2.3L244.5,2.3z"/>
				<path class="st9" d="M244.5,2.3c-0.4-0.6-1.1-1-1.8-1.1c-0.5,3.5-3.2,6.2-6.6,6.9l3.1,2.5l4.7-3.8
					C245.3,5.8,245.5,3.7,244.5,2.3L244.5,2.3z"/>
				<path class="st11" d="M187.3,19c-0.9-1.2-2.7-1.5-4-0.7c-0.8,0.5-1.3,1.4-1.3,2.4c0-1-0.5-1.9-1.3-2.4c-1.3-0.8-3-0.6-4,0.7
					c-1.1,1.4-0.8,3.4,0.5,4.5l4.7,3.8l4.7-3.8C188.2,22.4,188.4,20.4,187.3,19z"/>
				<path class="st9" d="M187.3,19c-0.4-0.6-1.1-1-1.8-1.1c-0.5,3.5-3.2,6.2-6.6,6.9l3.1,2.5l4.7-3.8
					C188.2,22.4,188.4,20.4,187.3,19z"/>
				<path class="st11" d="M243.3,57.1c-0.9-1.2-2.7-1.5-4-0.7c-0.8,0.5-1.3,1.4-1.3,2.4c0-1-0.5-1.9-1.3-2.4c-1.3-0.8-3-0.6-4,0.7
					c-1.1,1.4-0.8,3.4,0.5,4.5l4.7,3.8l4.7-3.8C244.1,60.5,244.4,58.5,243.3,57.1L243.3,57.1z"/>
				<path class="st9" d="M243.3,57.1c-0.4-0.6-1.1-1-1.8-1.1c-0.5,3.5-3.2,6.2-6.6,6.9l3.1,2.5l4.7-3.8
					C244.1,60.5,244.4,58.5,243.3,57.1L243.3,57.1z"/>
			</g>
		</g>
		<g id="Outline_copy_5_">
			<g>
				<path class="st2" d="M185,63.2l-9.5,5.9c-0.6,0.3-0.7,1.1-0.4,1.6s1.1,0.7,1.6,0.4l9.5-5.9c0.6-0.3,0.7-1.1,0.4-1.6
					C186.3,63.1,185.6,62.9,185,63.2z"/>
				<path class="st2" d="M201.7,62l-8.3,4.8c-0.6,0.3-0.8,1.1-0.4,1.6c0.2,0.4,0.6,0.6,1,0.6c0.2,0,0.4-0.1,0.6-0.2l8.3-4.8
					c0.6-0.3,0.7-1.1,0.4-1.6C203,61.9,202.3,61.7,201.7,62L201.7,62z"/>
				<path class="st2" d="M187.5,50.1l-7.1,3.6c-0.6,0.3-0.8,1-0.5,1.6c0.3,0.6,1,0.8,1.6,0.5l0,0l7.1-3.6c0.6-0.3,0.8-1,0.5-1.6
					S188.1,49.8,187.5,50.1z"/>
				<path class="st2" d="M178.5,44.3c0.1,0.6,0.6,1,1.2,1c0.1,0,0.2,0,0.2,0l5.9-1.2c0.6-0.1,1.1-0.7,1-1.4c-0.1-0.6-0.7-1.1-1.4-1
					c0,0-0.1,0-0.1,0l-5.9,1.2C178.8,43,178.4,43.6,178.5,44.3C178.5,44.3,178.5,44.3,178.5,44.3z"/>
				<path class="st2" d="M232.8,47.9c-0.5-0.4-1.2-0.4-1.7,0.1l-9.5,10.7c-0.4,0.5-0.4,1.2,0.1,1.7c0.5,0.4,1.2,0.4,1.7-0.1
					l9.5-10.7C233.4,49.1,233.3,48.3,232.8,47.9C232.8,47.9,232.8,47.9,232.8,47.9L232.8,47.9z"/>
				<path class="st2" d="M182.1,34.5h-4.8c-0.7,0-1.2,0.5-1.2,1.2c0,0.7,0.5,1.2,1.2,1.2h4.8c0.7,0,1.2-0.5,1.2-1.2
					C183.3,35,182.7,34.5,182.1,34.5z"/>
				<path class="st2" d="M233.7,7.8l4.7,3.8c0.4,0.4,1.1,0.4,1.5,0l4.7-3.8c1.9-1.5,2.2-4.3,0.7-6.2c-1.3-1.7-3.7-2.1-5.6-0.9
					c-0.2,0.2-0.5,0.3-0.7,0.5c-0.2-0.2-0.4-0.4-0.7-0.5c-1.8-1.2-4.2-0.8-5.6,0.9C231.5,3.5,231.8,6.3,233.7,7.8z M234.9,3.1
					c0.3-0.4,0.9-0.7,1.4-0.7c0.3,0,0.7,0.1,1,0.3C237.7,3,238,3.5,238,4c0,0.7,0.5,1.2,1.2,1.2s1.2-0.5,1.2-1.2
					c0-0.6,0.3-1.1,0.8-1.4c0.8-0.5,1.8-0.3,2.4,0.4c0.7,0.9,0.5,2.2-0.4,2.9l-4,3.2l-4-3.2C234.3,5.2,234.2,4,234.9,3.1L234.9,3.1z
					"/>
				<path class="st2" d="M176.6,24.5l4.7,3.8c0.4,0.4,1.1,0.4,1.5,0l4.7-3.8c1.9-1.5,2.2-4.3,0.7-6.2c-1.3-1.7-3.7-2.1-5.6-0.9
					c-0.2,0.2-0.5,0.3-0.7,0.5c-0.2-0.2-0.4-0.4-0.7-0.5c-1.8-1.2-4.2-0.8-5.6,0.9C174.4,20.2,174.7,22.9,176.6,24.5z M177.8,19.7
					c0.3-0.4,0.9-0.7,1.4-0.7c0.3,0,0.7,0.1,1,0.3c0.5,0.3,0.8,0.8,0.8,1.4c0,0.7,0.5,1.2,1.2,1.2s1.2-0.5,1.2-1.2
					c0-0.6,0.3-1.1,0.8-1.4c0.8-0.5,1.8-0.3,2.4,0.4c0.7,0.9,0.5,2.2-0.4,2.9l-4,3.2l-4-3.2C177.2,21.9,177.1,20.6,177.8,19.7
					L177.8,19.7z"/>
				<path class="st2" d="M244.2,56.3c-1.3-1.7-3.7-2.1-5.6-0.9c-0.2,0.2-0.5,0.3-0.7,0.5c-0.2-0.2-0.4-0.4-0.7-0.5
					c-1.8-1.2-4.2-0.8-5.6,0.9c-1.5,1.9-1.2,4.7,0.7,6.2l4.7,3.8c0.4,0.4,1.1,0.4,1.5,0l4.7-3.8C245.4,61,245.7,58.3,244.2,56.3
					L244.2,56.3z M242,60.7l-4,3.2l-4-3.2c-0.9-0.7-1-2-0.4-2.9c0.3-0.4,0.9-0.7,1.4-0.7c0.3,0,0.7,0.1,1,0.3
					c0.5,0.3,0.8,0.8,0.8,1.4c0,0.7,0.5,1.2,1.2,1.2s1.2-0.5,1.2-1.2c0-0.6,0.3-1.1,0.8-1.4c0.8-0.5,1.8-0.3,2.4,0.4
					C243,58.7,242.9,60,242,60.7L242,60.7z"/>
				<path class="st2" d="M246.2,28.1c-0.2-0.5-0.7-0.7-1.2-0.7l-23.2,1.4c-0.7,0-1.2,0.6-1.1,1.3c0,0.7,0.6,1.2,1.3,1.1l17.3-1
					l-43.4,21.2c-0.2,0.1-0.3,0.2-0.4,0.3c0,0.1-0.1,0.1-0.1,0.2l-2.1,4.2l0.7-11.1l34.2-10.1c0.6-0.2,1-0.9,0.8-1.5
					c-0.2-0.6-0.8-1-1.5-0.8l-34.1,10.1l-5.7-9.4l13.5-0.8c0.7,0,1.2-0.6,1.1-1.3c0-0.7-0.6-1.2-1.3-1.1l-15.4,0.9
					c-0.7,0-1.2,0.6-1.1,1.3c0,0.2,0.1,0.4,0.2,0.5l6.9,11.6l-1.2,17.5c0,0.7,0.5,1.2,1.1,1.3c0.2,0,0.5,0,0.7-0.2l8.6-5.3l7.9,6.4
					c0.5,0.4,1.1,0.4,1.6-0.1l5.5-5.4c0.5-0.4,0.5-1.2,0.1-1.7c-0.4-0.5-1.2-0.5-1.7-0.1c0,0,0,0,0,0l-4.8,4.6l-7.7-6.3l0,0
					l-3.1-2.5l40.4-19.7l-21.3,20.6c-0.5,0.5-0.5,1.2,0,1.7c0.5,0.4,1.2,0.5,1.6,0L246,29.4C246.3,29.1,246.4,28.5,246.2,28.1
					L246.2,28.1z M198.9,55.9l-4.3,2.7l2.2-4.4L198.9,55.9z"/>
				<path class="st2" d="M202.1,9.3c-2.6,0-4.8,2.1-4.8,4.8c0,0.7,0.5,1.2,1.2,1.2s1.2-0.5,1.2-1.2c0-1.3,1.1-2.4,2.4-2.4
					c0.7,0,1.2-0.5,1.2-1.2C203.3,9.8,202.7,9.3,202.1,9.3z"/>
				<path class="st2" d="M195.7,22.7l4.3,3.5c0.5,0.4,1.3,0.3,1.7-0.2c0.4-0.5,0.3-1.2-0.2-1.6l-4.3-3.5c-3.7-2.9-4.3-8.3-1.4-12
					c2.5-3.2,6.9-3.9,10.3-1.7c2.1,1.3,3.4,3.6,3.4,6.1c0,0.7,0.5,1.2,1.2,1.2s1.2-0.5,1.2-1.2c0-2.5,1.3-4.8,3.4-6.1
					c3.4-2.2,7.8-1.4,10.3,1.7c2.9,3.7,2.2,9.1-1.4,12l-13.4,10.9l-5.5-4.4c-0.5-0.4-1.3-0.3-1.7,0.2c-0.4,0.5-0.3,1.2,0.2,1.6
					l6.2,5c0.4,0.4,1.1,0.4,1.5,0l14.2-11.5c4.7-3.7,5.5-10.5,1.8-15.3c-3.2-4.1-9.1-5.1-13.5-2.3c-1.4,0.9-2.5,2.1-3.3,3.5
					c-0.8-1.4-1.9-2.6-3.3-3.5c-4.4-2.8-10.2-1.9-13.5,2.3C190.2,12.2,191,19,195.7,22.7L195.7,22.7z"/>
			</g>
		</g>
	</g>
</g>
</svg>
