<?xml version="1.0" encoding="utf-8"?>
<!-- Generator: Adobe Illustrator 25.0.0, SVG Export Plug-In . SVG Version: 6.00 Build 0)  -->
<svg version="1.1" id="Layer_1" xmlns="http://www.w3.org/2000/svg" xmlns:xlink="http://www.w3.org/1999/xlink" x="0px" y="0px"
	 viewBox="0 0 218.3 150" style="enable-background:new 0 0 218.3 150;" xml:space="preserve">
<style type="text/css">
	.st0{fill:#F6C560;}
	.st1{opacity:4.000000e-02;}
	.st2{fill:#35414D;}
	.st3{fill:#92D37A;}
	.st4{fill:#FED402;}
	.st5{fill:#FAC600;}
	.st6{fill:#87796F;}
	.st7{fill:#685E68;}
	.st8{fill:#4F4742;}
	.st9{fill:#FF492C;}
	.st10{fill:#FF4755;}
	.st11{fill:#FC2B3A;}
	.st12{fill:#FFE27A;}
	.st13{fill:#F9CF58;}
	.st14{fill:#FFBA57;}
	.st15{fill:#FFAC3E;}
	.st16{fill:#0D9353;}
	.st17{fill:#7DDF96;}
</style>
<g>
	<g>
		<g>
			<g>
				<g>
					<g>
						<path class="st0" d="M94.1,91.6v52c0,2-1.5,3.7-3.3,3.7H4.6c-1.9,0-3.3-1.6-3.3-3.7v-52c0-2,1.5-3.5,3.3-3.5h86.1
							C92.6,88.2,94.1,89.8,94.1,91.6L94.1,91.6z"/>
					</g>
				</g>
				<g class="st1">
					<g>
						<path d="M94.1,91.6v52c0,2-1.5,3.7-3.3,3.7H4.6c-1.7,0-3.3-1.6-3.3-3.7v-4.1h33.1c27.7,0,50.5-22.7,52.4-51.6h4.1
							C92.6,88.2,94.1,89.8,94.1,91.6L94.1,91.6z"/>
					</g>
				</g>
			</g>
			<g>
				<path class="st2" d="M4.6,148.7c-2.6,0-4.6-2.2-4.6-5.1v-52c0-2.7,2.1-4.8,4.6-4.8h86.1c1.4,0,2.7,0.6,3.4,1.4
					c0.8,1,1.2,2.3,1.2,3.5v52c0,2.8-2,5.1-4.6,5.1H4.6z M2.6,143.7c0,1.1,0.8,2.3,2,2.3h86.1c1.3,0,2.2-0.9,2.2-2.3V91.1l-41,30.5
					c-1.3,1-2.8,1.5-4.3,1.5c-1.4,0-3-0.6-4.3-1.5L2.6,91.1V143.7z M44.7,119.5c0.9,0.6,1.8,0.9,2.9,0.9s2-0.3,2.9-0.9l40.2-29.9
					H80.3l0,0c-0.6,0.1-3.3,0.1-13.3,0.1c0,0,0,0,0,0c-15.2,0-38-0.2-38.2-0.2H4.5L44.7,119.5z"/>
			</g>
		</g>
		<g>
			<g>
				<path class="st3" d="M47.9,132.2v2.1h-3.1v-2.2c-2.9-0.3-5.7-1.6-7.8-3.6l2.4-3c1.5,1.4,3.4,2.4,5.4,2.9v-6.5
					c-4.1-1.1-6.9-2.5-6.9-6.5c0-3.6,2.8-6.4,6.9-6.9v-2h3.1v2.1c2.6,0.3,5.1,1.4,7,3.1l-2.3,3.1c-1.4-1.2-3-2.1-4.8-2.5v6.3
					c4.6,1,7.6,2.6,7.6,6.7C55.6,129,52.8,131.8,47.9,132.2z M44.9,117.6v-5.6c-1.6,0.4-2.7,1.6-2.7,2.9
					C42.2,116.3,43.1,117,44.9,117.6z M51.4,125.6c0-1.5-1.1-2.2-3.5-3v6C50.2,128.3,51.4,127,51.4,125.6L51.4,125.6z"/>
			</g>
			<g>
				<g>
					<g>
						<path class="st2" d="M41.8,109.8c1-0.5,2.1-0.9,3.2-1c0.2,0,0.4-0.2,0.4-0.4v-1.6h2.2v1.7c0,0.2,0.2,0.4,0.4,0.4
							c2.4,0.2,4.7,1.2,6.5,2.8l-1.8,2.4c-1.3-1.1-2.9-1.9-4.6-2.3c-0.2-0.1-0.5,0.1-0.5,0.3c0,0,0,0.1,0,0.1v6.3
							c0,0.2,0.1,0.4,0.3,0.4c1.1,0.2,2.1,0.5,3.1,0.9c0,0,0.1,0,0.2,0c0.2,0,0.4-0.2,0.4-0.4c0-0.2-0.1-0.3-0.3-0.4
							c-0.9-0.4-1.9-0.6-2.9-0.9v-5.4c1.5,0.5,2.9,1.2,4.1,2.3c0.2,0.2,0.4,0.1,0.6,0c0,0,0,0,0,0l2.3-3.1c0.1-0.2,0.1-0.4-0.1-0.6
							c-1.9-1.7-4.3-2.8-6.9-3.2v-1.7c0-0.2-0.2-0.4-0.4-0.4h-3.1c-0.2,0-0.4,0.2-0.4,0.4v1.7c-1.1,0.2-2.1,0.5-3.1,1
							c-0.2,0.1-0.3,0.4-0.2,0.6C41.3,109.9,41.5,109.9,41.8,109.8C41.7,109.8,41.7,109.8,41.8,109.8L41.8,109.8z"/>
					</g>
					<g>
						<path class="st2" d="M51.1,120c-0.1,0-0.2,0-0.2,0c-1-0.4-2-0.7-3.1-0.9c-0.3-0.1-0.5-0.3-0.5-0.7v-6.3c0-0.1,0-0.1,0-0.1
							c0-0.2,0.1-0.3,0.3-0.4c0.2-0.1,0.3-0.1,0.5-0.1c1.6,0.4,3.2,1.1,4.5,2.2l1.5-2c-1.8-1.4-3.9-2.3-6.2-2.6
							c-0.3,0-0.6-0.3-0.6-0.7V107h-1.7v1.4c0,0.3-0.3,0.6-0.6,0.7c-1.1,0.1-2.1,0.4-3.1,1l0,0c-0.3,0.2-0.8,0-0.9-0.3
							c-0.1-0.2-0.1-0.3,0-0.5c0.1-0.2,0.2-0.3,0.3-0.4c0.9-0.5,1.9-0.9,3-1v-1.5c0-0.4,0.3-0.7,0.7-0.7h3.1c0.4,0,0.7,0.3,0.7,0.7
							v1.5c2.5,0.4,4.9,1.5,6.8,3.2c0.3,0.2,0.3,0.6,0.1,0.9l-2.3,3.1c-0.3,0.3-0.7,0.4-1,0.1c-1.1-0.9-2.3-1.7-3.6-2.1v4.9
							c0.9,0.2,1.8,0.5,2.7,0.8c0.3,0.1,0.4,0.4,0.4,0.6C51.8,119.7,51.5,120,51.1,120z M47.9,112C47.9,112,47.9,112,47.9,112
							c-0.1,0.1-0.2,0.1-0.2,0.1l0,6.3c0,0.1,0.1,0.2,0.1,0.2c1.1,0.2,2.1,0.5,3.1,0.9c0.1,0,0.2,0,0.2-0.2c0-0.1,0-0.1-0.1-0.2
							c-0.9-0.3-1.9-0.6-2.9-0.9l-0.2,0v-6l0.3,0.1c1.5,0.5,3,1.3,4.2,2.3c0.1,0.1,0.2,0.1,0.2,0l2.3-3.1c0.1-0.1,0-0.2,0-0.2
							c-1.9-1.7-4.2-2.8-6.8-3.1l-0.2,0v-1.9c0-0.1-0.1-0.2-0.2-0.2h-3.1c-0.1,0-0.2,0.1-0.2,0.2v1.9l-0.2,0c-1.1,0.2-2.1,0.5-3,1
							c0,0-0.1,0.1-0.1,0.1c0,0,0,0.1,0,0.1c0,0.1,0.1,0.1,0.2,0.1l0.1,0.2l-0.1-0.2c1-0.5,2.1-0.9,3.3-1c0.1,0,0.2-0.1,0.2-0.2
							v-1.9h2.7v1.9c0,0.1,0.1,0.2,0.2,0.2c2.5,0.3,4.8,1.2,6.6,2.8l0.2,0.2l-2.1,2.8l-0.2-0.2C51.2,113.1,49.6,112.4,47.9,112
							C48,112,47.9,112,47.9,112z"/>
					</g>
				</g>
				<g>
					<g>
						<path class="st2" d="M48.1,122.2c-0.2-0.1-0.5,0.1-0.5,0.3c0,0,0,0.1,0,0.1v6c0,0.2,0.2,0.4,0.4,0.4c0,0,0,0,0,0
							c2.3-0.3,3.8-1.6,3.8-3.4C51.8,123.7,50.4,122.9,48.1,122.2z M48.4,128.1v-4.9c2,0.6,2.6,1.3,2.6,2.4
							C51,126.8,50,127.7,48.4,128.1L48.4,128.1z"/>
					</g>
					<g>
						<path class="st2" d="M47.9,129.2c-0.4,0-0.7-0.3-0.7-0.7v-6c0-0.1,0-0.1,0-0.2c0.1-0.4,0.5-0.6,0.8-0.5l0,0
							c2.4,0.7,3.9,1.6,3.9,3.6C52.1,127.5,50.5,129,47.9,129.2L47.9,129.2z M47.9,122.4c-0.1,0-0.1,0-0.2,0.1l0,6
							c0,0.1,0.1,0.2,0.2,0.2c2.2-0.3,3.6-1.5,3.6-3.2C51.6,123.8,50.3,123.1,47.9,122.4L47.9,122.4C48,122.4,47.9,122.4,47.9,122.4
							z M48.1,128.4v-5.5l0.3,0.1c2.1,0.7,2.8,1.4,2.8,2.6c0,1.4-1,2.4-2.8,2.8L48.1,128.4z M48.6,123.5v4.2
							c1.3-0.3,2.1-1.2,2.1-2.2C50.7,124.7,50.4,124.1,48.6,123.5z"/>
					</g>
				</g>
				<g>
					<g>
						<path class="st2" d="M52.8,119.7c-0.2-0.1-0.5,0-0.6,0.2c-0.1,0.2,0,0.5,0.2,0.6c0.2,0.1,0.4,0.2,0.6,0.4
							c0.2,0.1,0.5,0.1,0.6-0.1s0.1-0.5-0.1-0.6C53.3,120,53,119.8,52.8,119.7L52.8,119.7z"/>
					</g>
					<g>
						<path class="st2" d="M53.2,121.1c-0.1,0-0.3,0-0.4-0.1c-0.2-0.1-0.4-0.2-0.6-0.4c-0.3-0.2-0.4-0.6-0.3-0.9
							c0.2-0.3,0.6-0.4,0.9-0.3l0,0c0.2,0.1,0.5,0.3,0.7,0.4c0.1,0.1,0.2,0.3,0.3,0.4c0,0.2,0,0.4-0.1,0.5c-0.1,0.1-0.3,0.2-0.4,0.3
							C53.3,121.1,53.3,121.1,53.2,121.1z M52.6,119.9c-0.1,0-0.1,0-0.2,0.1c0,0.1,0,0.2,0.1,0.2c0.2,0.1,0.4,0.3,0.6,0.4
							c0,0,0.1,0,0.1,0c0,0,0.1,0,0.1-0.1c0,0,0-0.1,0-0.1c0,0,0-0.1-0.1-0.1C53.1,120.2,52.9,120,52.6,119.9L52.6,119.9
							C52.6,119.9,52.6,119.9,52.6,119.9z"/>
					</g>
				</g>
				<g>
					<g>
						<path class="st2" d="M54.7,121.3c-0.1-0.2-0.4-0.2-0.6-0.1c-0.2,0.1-0.2,0.4-0.1,0.6c0,0,0,0,0,0c0.7,0.9,1.1,2,1.1,3.3
							c0,3.8-2.8,6.3-7.3,6.6c-0.2,0-0.4,0.2-0.4,0.4v1.7h-2.2v-1.8c0-0.2-0.2-0.4-0.4-0.4c-2.7-0.3-5.2-1.4-7.3-3.2l1.9-2.3
							c1.5,1.3,3.3,2.3,5.3,2.7c0.2,0,0.5-0.1,0.5-0.3c0,0,0-0.1,0-0.1V126c0-0.2-0.2-0.4-0.4-0.4s-0.4,0.2-0.4,0.4v1.9
							c-1.8-0.5-3.4-1.4-4.7-2.7c-0.2-0.2-0.4-0.1-0.6,0c0,0,0,0,0,0l-2.4,3c-0.1,0.2-0.1,0.4,0,0.6c2.1,2,4.8,3.3,7.7,3.6v1.9
							c0,0.2,0.2,0.4,0.4,0.4h3.1c0.2,0,0.4-0.2,0.4-0.4v-1.8c4.7-0.5,7.6-3.3,7.6-7.4C56,123.6,55.6,122.3,54.7,121.3L54.7,121.3z"
							/>
					</g>
					<g>
						<path class="st2" d="M47.9,135h-3.1c-0.4,0-0.7-0.3-0.7-0.7v-1.7c-2.9-0.4-5.5-1.7-7.6-3.7c-0.3-0.2-0.3-0.6-0.1-0.9l2.4-3
							c0.1-0.2,0.3-0.2,0.5-0.2c0.2,0,0.4,0.1,0.5,0.2c1.2,1.2,2.7,2,4.3,2.5V126c0-0.4,0.3-0.7,0.7-0.7c0.4,0,0.7,0.3,0.7,0.7v2.4
							c0,0,0,0.1,0,0.1c0,0.2-0.1,0.3-0.3,0.4c-0.2,0.1-0.3,0.1-0.5,0.1c-1.9-0.4-3.7-1.3-5.2-2.6l-1.6,1.9c2,1.7,4.4,2.7,7,3
							c0.3,0,0.6,0.3,0.6,0.7v1.6h1.7v-1.5c0-0.4,0.3-0.7,0.6-0.7c4.3-0.3,7-2.7,7-6.3c0-1.3-0.3-2.3-1-3.2
							c-0.1-0.2-0.2-0.3-0.2-0.5c0-0.2,0.1-0.3,0.3-0.4c0.3-0.2,0.7-0.2,0.9,0.1c0.9,1.1,1.3,2.4,1.3,4c0,4.2-2.9,7.1-7.6,7.6v1.5
							C48.6,134.7,48.3,135,47.9,135z M39.5,125.3C39.5,125.3,39.5,125.3,39.5,125.3c-0.1,0-0.1,0-0.1,0.1l-2.4,3
							c-0.1,0.1,0,0.2,0,0.2c2.1,2,4.7,3.2,7.5,3.6l0.2,0v2.1c0,0.1,0.1,0.2,0.2,0.2h3.1c0.1,0,0.2-0.1,0.2-0.2v-2l0.2,0
							c4.6-0.4,7.4-3.2,7.4-7.2c0-1.5-0.4-2.7-1.2-3.7l0,0c-0.1-0.1-0.2-0.1-0.2,0c0,0-0.1,0.1-0.1,0.1c0,0,0,0.1,0,0.1
							c0.8,0.9,1.2,2.1,1.2,3.5c0,3.9-2.9,6.5-7.5,6.8c-0.1,0-0.2,0.1-0.2,0.2v2h-2.7v-2.1c0-0.1-0.1-0.2-0.2-0.2
							c-2.8-0.3-5.3-1.4-7.4-3.3l-0.2-0.2l2.2-2.7l0.2,0.2c1.5,1.3,3.2,2.2,5.1,2.6c0.1,0,0.2,0,0.2-0.1l0-2.4
							c0-0.1-0.1-0.2-0.2-0.2s-0.2,0.1-0.2,0.2v2.2l-0.3-0.1c-1.8-0.5-3.4-1.4-4.8-2.7C39.6,125.3,39.5,125.3,39.5,125.3z"/>
					</g>
				</g>
				<g>
					<g>
						<path class="st2" d="M44.5,122.2v1.9c0,0.2,0.2,0.4,0.4,0.4c0.2,0,0.4-0.2,0.4-0.4v-2.2c0-0.2-0.1-0.4-0.3-0.4
							c-4.1-1.1-6.6-2.4-6.6-6.1c0-1.7,0.7-3.3,1.9-4.4c0.2-0.2,0.2-0.4,0-0.6c-0.2-0.2-0.4-0.2-0.6,0c-1.4,1.3-2.2,3.1-2.2,5.1
							C37.5,119.4,40.3,121,44.5,122.2L44.5,122.2z"/>
					</g>
					<g>
						<path class="st2" d="M44.9,124.7c-0.4,0-0.7-0.3-0.7-0.7v-1.7c-3.6-1-6.9-2.6-6.9-7c0-2,0.8-3.9,2.2-5.2
							c0.3-0.3,0.7-0.2,0.9,0c0.3,0.3,0.3,0.7,0,1c-1.2,1.1-1.8,2.6-1.8,4.3c0,3.5,2.5,4.8,6.4,5.9c0.3,0.1,0.5,0.3,0.5,0.7v2.2
							C45.6,124.4,45.3,124.7,44.9,124.7z M40,110.4c0,0-0.1,0-0.1,0c-1.3,1.3-2.1,3-2.1,4.9c0,4,2.7,5.5,6.7,6.6l0.2,0v2.1
							c0,0.1,0.1,0.2,0.2,0.2s0.2-0.1,0.2-0.2v-2.2c0-0.1-0.1-0.1-0.1-0.2c-4.2-1.1-6.8-2.5-6.8-6.3c0-1.7,0.7-3.4,2-4.6
							c0,0,0-0.1,0-0.1c0,0,0-0.1,0-0.1C40.1,110.4,40,110.4,40,110.4z"/>
					</g>
				</g>
				<g>
					<g>
						<path class="st2" d="M44.8,111.7c-1.8,0.4-3,1.8-3,3.3c0,1.8,1.4,2.5,3,3.1c0.1,0,0.3,0,0.4-0.1c0.1-0.1,0.2-0.2,0.2-0.3v-5.6
							c0-0.2-0.2-0.4-0.4-0.4C44.8,111.6,44.8,111.6,44.8,111.7L44.8,111.7z M44.5,117c-1.3-0.6-1.8-1.1-1.8-2.1
							c0-1,0.7-1.9,1.8-2.3V117z"/>
					</g>
					<g>
						<path class="st2" d="M44.9,118.3c-0.1,0-0.2,0-0.2,0c-1.5-0.5-3.1-1.4-3.1-3.3c0-1.6,1.3-3.1,3.2-3.5h0
							c0.4-0.1,0.8,0.2,0.8,0.7v5.6c0,0.2-0.1,0.4-0.3,0.6C45.2,118.3,45,118.3,44.9,118.3z M44.8,111.7l0.1,0.2
							c-1.7,0.4-2.8,1.6-2.8,3.1c0,1.5,1.1,2.3,2.8,2.8c0.1,0,0.1,0,0.2,0c0,0,0.1-0.1,0.1-0.1v-5.6c0-0.1-0.1-0.2-0.2-0.2
							L44.8,111.7z M44.7,117.4l-0.3-0.1c-1.4-0.6-2-1.2-2-2.3c0-1.1,0.8-2.1,2-2.5l0.3-0.1V117.4z M44.2,113
							c-0.8,0.4-1.3,1.1-1.3,1.9c0,0.6,0.2,1.2,1.3,1.7V113z"/>
					</g>
				</g>
			</g>
		</g>
	</g>
	<g>
		<g>
			<g id="g3574_4_" transform="translate(290.7158,255.6587)">
				<g id="path3576_4_">
					<path class="st4" d="M-154.8-181.3c-1.6,0-3.2-0.9-4-2.5c-1-2.2-0.1-4.8,2.1-5.8l26.7-12.7c9.8-4.7,16.2-14.7,16.2-25.6v-9.1
						h-27.7c-2.4,0-4.4-2-4.4-4.4c0-2.4,2-4.4,4.4-4.4h32c2.4,0,4.4,2,4.4,4.4v13.5c0,7-2,13.9-5.7,19.8
						c-3.8,5.9-9.1,10.7-15.4,13.7l-26.7,12.7C-153.6-181.4-154.2-181.3-154.8-181.3"/>
				</g>
			</g>
			<g id="g3578_4_" transform="translate(221.2842,255.6587)">
				<g id="path3580_4_">
					<path class="st4" d="M-105.7-181.3c1.6,0,3.2-0.9,4-2.5c1-2.2,0.1-4.8-2.1-5.8l-26.7-12.7c-9.8-4.7-16.2-14.7-16.2-25.6v-9.1
						h27.7c2.4,0,4.4-2,4.4-4.4c0-2.4-2-4.4-4.4-4.4h-32c-2.4,0-4.4,2-4.4,4.4v13.5c0,7,2,13.9,5.7,19.8c3.8,5.9,9.1,10.7,15.4,13.7
						l26.7,12.7C-106.9-181.4-106.3-181.3-105.7-181.3"/>
				</g>
			</g>
			<g id="g3582_4_" transform="translate(227.7305,284.2109)">
				<g id="path3584_4_">
					<path class="st5" d="M-110.2-218.2l-26.7-12.7c-2.5-1.2-4.8-2.8-6.8-4.6c0.3,0.8,0.6,1.5,0.9,2.3c1.7,4.2,3.8,8.2,6,12.1
						l22.8,10.9c0.6,0.3,1.2,0.4,1.9,0.4c1.6,0,3.2-0.9,4-2.5C-107.1-214.5-108-217.1-110.2-218.2"/>
				</g>
			</g>
			<g id="g3586_4_" transform="translate(190.4648,461.6216)">
				<g id="path3588_4_">
					<path class="st5" d="M-83.8-447.4c0-2.4-2-4.4-4.4-4.4h-25v3.3c0,1.8,0.1,3.6,0.2,5.5h24.8C-85.8-443-83.8-444.9-83.8-447.4"/>
				</g>
			</g>
			<g id="g3590_4_" transform="translate(391.5,7.5)">
				<g id="path3592_4_">
					<path class="st6" d="M-226.2,139.3h-79.1c-1.6,0-2.9-1.3-2.9-2.9v-8.2c0-1.6,1.3-2.9,2.9-2.9h79.1c1.6,0,2.9,1.3,2.9,2.9v8.2
						C-223.3,138-224.6,139.3-226.2,139.3"/>
				</g>
			</g>
			<g id="g3594_4_" transform="translate(391.5,55.5)">
				<g id="path3596_4_">
					<path class="st7" d="M-226.2,77.3h-8.8c1.6,0,2.9,1.3,2.9,2.9v8.2c0,1.6-1.3,2.9-2.9,2.9h8.8c1.6,0,2.9-1.3,2.9-2.9v-8.2
						C-223.3,78.6-224.6,77.3-226.2,77.3"/>
				</g>
			</g>
			<g id="path3598_4_">
				<path class="st4" d="M134.9,105.7h-18.4V90h18.4V105.7z"/>
			</g>
			<g id="g3600_4_" transform="translate(257.5,202.2646)">
				<g id="path3602_4_">
					<path class="st5" d="M-131.3-112.3v1.7c0,5.3-4.3,9.6-9.6,9.6v4.4h18.4v-15.7H-131.3z"/>
				</g>
			</g>
			<g id="g3604_4_" transform="translate(371.5,55.5)">
				<g id="path3606_4_">
					<path class="st6" d="M-212,77.3h-67.4V58.9c0-4.8,3.9-8.8,8.8-8.8h49.9c4.8,0,8.8,3.9,8.8,8.8V77.3z"/>
				</g>
			</g>
			<g id="g3608_4_" transform="translate(341.5,148.5)">
				<g id="path3610_4_">
					<path class="st8" d="M-190.8-42.8h-1.2c0.7,1.3,1.2,2.8,1.2,4.4c0,10.2-8.2,18.4-18.4,18.4h-40.3v4.4h67.4v-18.4
						C-182-38.9-186-42.8-190.8-42.8"/>
				</g>
			</g>
			<g id="g3612_4_" transform="translate(301,247.2646)">
				<g id="path3614_4_">
					<path class="st4" d="M-162.1-170.4L-162.1-170.4h-26.3c-17-16.8-26.6-39.7-26.6-63.7v-8.5c0-1.6,1.3-2.9,2.9-2.9h73.6
						c1.6,0,2.9,1.3,2.9,2.9v8.5C-135.5-210.2-145.1-187.2-162.1-170.4"/>
				</g>
			</g>
			<g id="g3616_4_" transform="translate(382.1172,504.5)">
				<g id="path3618_4_">
					<path class="st5" d="M-219.6-502.8h-5.8v7.1c0.2,15.4-5.9,30.6-12.3,42.3c-7.2,13.1-21,21.3-35.9,21.3c1.3,1.5,2.7,3,4.1,4.4
						h26.3c17-16.8,26.6-39.7,26.6-63.7v-8.5C-216.6-501.4-217.9-502.8-219.6-502.8"/>
				</g>
			</g>
			<g id="g3620_4_" transform="translate(206,202.2646)">
				<g id="path3622_4_">
					<path class="st4" d="M-94.8-112.3h29.2c1.6,0,2.9-1.3,2.9-2.9v-7.3c0-1.6-1.3-2.9-2.9-2.9h-29.2c-1.6,0-2.9,1.3-2.9,2.9v7.3
						C-97.8-113.6-96.5-112.3-94.8-112.3"/>
				</g>
			</g>
			<g id="g3624_4_" transform="translate(306,247.2646)">
				<g id="path3626_4_">
					<path class="st5" d="M-165.7-170.4h-5.8c0,4.8-3.9,8.8-8.8,8.8h-17.5v1.5c0,1.6,1.3,2.9,2.9,2.9h29.2c1.6,0,2.9-1.3,2.9-2.9
						v-7.3C-162.7-169.1-164-170.4-165.7-170.4"/>
				</g>
			</g>
			<g id="g3628_4_" transform="translate(263.6084,444.707)">
				<g id="path3630_4_">
					<path class="st9" d="M-135.6-425.5l2.7,8.2c0.3,1,1.2,1.6,2.2,1.6h8.6c2.3,0,3.2,2.9,1.4,4.2l-7,5.1c-0.8,0.6-1.2,1.6-0.8,2.6
						l2.7,8.2c0.7,2.2-1.8,3.9-3.6,2.6l-7-5.1c-0.8-0.6-1.9-0.6-2.7,0l-7,5.1c-1.8,1.3-4.3-0.5-3.6-2.6l2.7-8.2c0.3-1,0-2-0.8-2.6
						l-7-5.1c-1.8-1.3-0.9-4.2,1.4-4.2h8.6c1,0,1.9-0.7,2.2-1.6l2.7-8.2C-139.4-427.7-136.3-427.7-135.6-425.5"/>
				</g>
			</g>
			<g id="g3632_4_" transform="translate(391.54,446.6201)">
				<g id="path3634_4_">
					<path class="st2" d="M-237.2-388.5c-0.7,0-1.3-0.4-1.6-1c-0.4-0.9,0-1.9,0.8-2.3l6.4-3c9.2-4.4,15.2-13.8,15.2-24v-7.4h-9.9
						c-1,0-1.7-0.8-1.7-1.7s0.8-1.7,1.7-1.7h11.6c1,0,1.7,0.8,1.7,1.7v9.1c0,11.6-6.7,22.2-17.2,27.2l-6.4,3
						C-236.7-388.6-236.9-388.5-237.2-388.5z"/>
				</g>
			</g>
			<g id="g3636_4_" transform="translate(392.1201,476.6201)">
				<g id="path3638_4_">
					<path class="st2" d="M-247.6-404.1c-0.7,0-1.3-0.4-1.6-1c-0.4-0.9,0-1.9,0.8-2.3l20-9.5c6-2.9,11.1-7.4,14.7-13
						c3.6-5.7,5.5-12.2,5.5-18.9v-13.5c0-1.5-1.2-2.6-2.6-2.6h-15.8c-1,0-1.7-0.8-1.7-1.7s0.8-1.7,1.7-1.7h15.8
						c3.4,0,6.1,2.7,6.1,6.1v13.5c0,7.4-2.1,14.5-6,20.8c-3.9,6.2-9.5,11.2-16.2,14.3l-20,9.5C-247.1-404.2-247.4-404.1-247.6-404.1
						z"/>
				</g>
			</g>
			<g id="g3640_4_" transform="translate(120.46,446.6201)">
				<g id="path3642_4_">
					<path class="st2" d="M-34.4-394.4c-0.4,0-0.7-0.1-1-0.3c-7.6-5.7-12.1-14.7-12.1-24.1v-9.1c0-1,0.8-1.7,1.7-1.7h11.6
						c1,0,1.7,0.8,1.7,1.7s-0.8,1.7-1.7,1.7h-9.9v7.4c0,8.3,4,16.3,10.7,21.3c0.8,0.6,0.9,1.7,0.4,2.4
						C-33.4-394.6-33.9-394.4-34.4-394.4z"/>
				</g>
			</g>
			<g id="g3644_4_" transform="translate(119.8799,476.6201)">
				<g id="path3646_4_">
					<path class="st2" d="M-12.9-404.1c-0.3,0-0.5-0.1-0.7-0.2l-20-9.5c-6.6-3.2-12.2-8.1-16.2-14.3c-3.9-6.2-6-13.4-6-20.8v-13.5
						c0-3.4,2.7-6.1,6.1-6.1h15.8c1,0,1.7,0.8,1.7,1.7s-0.8,1.7-1.7,1.7h-15.8c-1.5,0-2.6,1.2-2.6,2.6v13.5c0,6.7,1.9,13.2,5.5,18.9
						c3.6,5.7,8.7,10.2,14.7,13l20,9.5c0.9,0.4,1.2,1.5,0.8,2.3C-11.6-404.5-12.2-404.1-12.9-404.1z"/>
				</g>
			</g>
			<g id="g3648_4_" transform="translate(391.5,7.5)">
				<g id="path3650_4_">
					<path class="st2" d="M-226.2,141.1h-79.1c-2.6,0-4.7-2.1-4.7-4.7v-8.2c0-2.6,2.1-4.7,4.7-4.7h79.1c2.6,0,4.7,2.1,4.7,4.7v8.2
						C-221.5,139-223.6,141.1-226.2,141.1z M-305.3,127.1c-0.6,0-1.2,0.5-1.2,1.2v8.2c0,0.6,0.5,1.2,1.2,1.2h79.1
						c0.6,0,1.2-0.5,1.2-1.2v-8.2c0-0.6-0.5-1.2-1.2-1.2H-305.3z"/>
				</g>
			</g>
			<g id="g3652_4_" transform="translate(224.5,148.5)">
				<g id="path3654_4_">
					<path class="st2" d="M-107.9-41.1c-1,0-1.7-0.8-1.7-1.7v-15.7c0-1,0.8-1.7,1.7-1.7s1.7,0.8,1.7,1.7v15.7
						C-106.2-41.9-107-41.1-107.9-41.1z"/>
				</g>
			</g>
			<g id="g3656_4_" transform="translate(287.5,202.2646)">
				<g id="path3658_4_">
					<path class="st2" d="M-152.6-94.9c-1,0-1.7-0.8-1.7-1.7v-15.7c0-1,0.8-1.7,1.7-1.7s1.7,0.8,1.7,1.7v15.7
						C-150.8-95.6-151.6-94.9-152.6-94.9z"/>
				</g>
			</g>
			<g id="g3660_4_" transform="translate(140.5,55.5)">
				<g id="path3662_4_">
					<path class="st2" d="M-48.5,79.1c-1,0-1.7-0.8-1.7-1.7V58.9c0-5.8,4.7-10.5,10.5-10.5h49.9c5.8,0,10.5,4.7,10.5,10.5v9.6
						c0,1-0.8,1.7-1.7,1.7c-1,0-1.7-0.8-1.7-1.7v-9.6c0-3.9-3.1-7-7-7h-49.9c-3.9,0-7,3.1-7,7v18.4C-46.7,78.3-47.5,79.1-48.5,79.1z
						"/>
				</g>
			</g>
			<g id="g3664_4_" transform="translate(211,247.2646)">
				<g id="path3666_4_">
					<path class="st2" d="M-72.1-168.7c-0.4,0-0.9-0.2-1.2-0.5c-0.7-0.7-0.7-1.8,0-2.5c16.6-16.4,26.1-39.1,26.1-62.4v-8.5
						c0-0.6-0.5-1.2-1.2-1.2h-73.6c-0.6,0-1.2,0.5-1.2,1.2v8.5c0,23.3,9.5,46,26.1,62.4c0.7,0.7,0.7,1.8,0,2.5
						c-0.7,0.7-1.8,0.7-2.5,0c-17.2-17-27.1-40.7-27.1-64.9v-8.5c0-2.6,2.1-4.7,4.7-4.7h73.6c2.6,0,4.7,2.1,4.7,4.7v8.5
						c0,24.2-9.9,47.9-27.1,64.9C-71.2-168.9-71.7-168.7-72.1-168.7z"/>
				</g>
			</g>
			<g id="g3668_4_" transform="translate(206,202.2646)">
				<g id="path3670_4_">
					<path class="st2" d="M-65.7-110.5h-29.2c-2.6,0-4.7-2.1-4.7-4.7v-7.3c0-2.6,2.1-4.7,4.7-4.7h29.2c2.6,0,4.7,2.1,4.7,4.7v7.3
						C-61-112.6-63.1-110.5-65.7-110.5z M-94.8-123.7c-0.6,0-1.2,0.5-1.2,1.2v7.3c0,0.6,0.5,1.2,1.2,1.2h29.2c0.6,0,1.2-0.5,1.2-1.2
						v-7.3c0-0.6-0.5-1.2-1.2-1.2H-94.8z"/>
				</g>
			</g>
			<g id="g3672_4_" transform="translate(263.6084,444.707)">
				<g id="path3674_4_">
					<path class="st2" d="M-147.6-391.2c-0.7,0-1.5-0.2-2.1-0.7c-1.3-0.9-1.8-2.5-1.3-4l2.7-8.2c0.1-0.5,0-0.9-0.4-1.2l-7-5.1
						c-1.3-0.9-1.8-2.5-1.3-4c0.5-1.5,1.8-2.5,3.4-2.5h8.6c0.5,0,0.9-0.3,1-0.8l2.7-8.2c0.5-1.5,1.8-2.5,3.4-2.5
						c1.6,0,2.9,1,3.4,2.5l2.7,8.2c0.1,0.4,0.6,0.8,1,0.8h8.6c1.6,0,2.9,1,3.4,2.5c0.5,1.5,0,3.1-1.3,4l-7,5.1
						c-0.4,0.3-0.5,0.8-0.4,1.2l2.7,8.2c0.5,1.5,0,3.1-1.3,4c-1.3,0.9-2.9,0.9-4.2,0l-7-5.1c-0.4-0.3-0.9-0.3-1.3,0l-7,5.1
						C-146.1-391.5-146.9-391.2-147.6-391.2z M-153.6-414.4c-0.7,0-1,0.6-1,0.8c-0.1,0.2-0.2,0.8,0.4,1.2l7,5.1
						c1.3,0.9,1.8,2.5,1.3,4l-2.7,8.2c-0.2,0.7,0.2,1.1,0.4,1.2s0.7,0.4,1.3,0l7-5.1c1.3-0.9,3-0.9,4.2,0l7,5.1
						c0.6,0.4,1.1,0.1,1.3,0s0.6-0.5,0.4-1.2l-2.7-8.2c-0.5-1.5,0-3.1,1.3-4l7-5.1c0.6-0.4,0.5-1,0.4-1.2c-0.1-0.2-0.3-0.8-1-0.8
						h-8.6c-1.6,0-2.9-1-3.4-2.5l-2.7-8.2l0,0c-0.2-0.7-0.9-0.8-1-0.8s-0.8,0.1-1,0.8l-2.7,8.2c-0.5,1.5-1.8,2.5-3.4,2.5H-153.6z"/>
				</g>
			</g>
			<g>
				<g>
					<path class="st10" d="M169.3,130l6.6,18.9l6.2-6l8.6,0.9l-6.5-18.8C180,128.2,174.9,130,169.3,130z"/>
				</g>
				<g>
					<path class="st10" d="M169.3,130c-5.6,0-10.7-1.9-14.8-5l-6.5,18.8l8.6-0.9l6.2,6L169.3,130z"/>
				</g>
				<g>
					<path class="st11" d="M185.1,128l-1-3c-4.1,3.2-9.2,5-14.8,5l1,3C175.8,132.8,180.9,131,185.1,128z"/>
				</g>
				<g>
					<path class="st11" d="M168.2,133l1-3c-5.6,0-10.7-1.9-14.8-5l-1,3C157.6,131,162.7,132.8,168.2,133L168.2,133z"/>
				</g>
				<g>
					<ellipse class="st12" cx="169.3" cy="105.7" rx="24.3" ry="24.3"/>
				</g>
				<g>
					<path class="st13" d="M169.3,127.6c-13,0-23.6-10.2-24.3-23.1c0,0.4,0,0.8,0,1.2c0,13.4,10.9,24.3,24.3,24.3
						c13.4,0,24.3-10.9,24.3-24.3c0-0.4,0-0.8,0-1.2C192.9,117.4,182.3,127.6,169.3,127.6L169.3,127.6z"/>
				</g>
				<g>
					<ellipse class="st14" cx="169.3" cy="105.7" rx="19.1" ry="19.1"/>
				</g>
				<g>
					<path class="st15" d="M169.3,122.4c-10.2,0-18.5-7.9-19.1-17.9c0,0.4,0,0.8,0,1.2c0,10.6,8.6,19.1,19.1,19.1
						c10.6,0,19.1-8.6,19.1-19.1c0-0.4,0-0.8,0-1.2C187.7,114.5,179.4,122.4,169.3,122.4z"/>
				</g>
				<g>
					<path class="st12" d="M170.4,118.3c-1.3,0-2.4-1.1-2.4-2.4v-14.7l-0.4,0.6c-0.7,1.1-2.2,1.5-3.3,0.8c-1.1-0.7-1.5-2.2-0.8-3.3
						l3-5c0.4-0.7,1.2-1.2,2.1-1.2h1.9c1.3,0,2.4,1.1,2.4,2.4v20.3C172.8,117.2,171.7,118.3,170.4,118.3L170.4,118.3z"/>
				</g>
				<g>
					<g>
						<path class="st13" d="M167.6,99.3c-0.6,1.1-2,1.5-3.1,1c-0.5-0.2-0.8-0.6-1-1c-0.7,1.1-0.3,2.6,0.8,3.3
							c1.1,0.7,2.7,0.3,3.4-0.9l0.3-0.6v-1.8C168,99.2,167.7,99.2,167.6,99.3z"/>
					</g>
					<g>
						<path class="st13" d="M170.4,115.8c-1.3,0-2.4-1.1-2.4-2.4v2.4c0,1.3,1.1,2.4,2.4,2.4s2.4-1.1,2.4-2.4v-2.4
							C172.8,114.8,171.7,115.8,170.4,115.8L170.4,115.8z"/>
					</g>
				</g>
			</g>
			<g>
				<g>
					<path class="st2" d="M172.8,106.2c0.6,0,1-0.5,1-1v-9.6c0-1.9-1.5-3.4-3.4-3.4h-1.9c-1.2,0-2.3,0.6-3,1.7l-3,5
						c-1,1.6-0.4,3.7,1.2,4.7c1,0.6,2.2,0.6,3.2,0.2v12.2c0,1.9,1.5,3.4,3.4,3.4c1.9,0,3.4-1.5,3.4-3.4v-6.6c0-0.6-0.5-1-1-1
						s-1,0.5-1,1v6.6c0,0.8-0.6,1.4-1.4,1.4c-0.8,0-1.4-0.6-1.4-1.4v-14.7c0-0.5-0.3-0.9-0.8-1c-0.4-0.1-0.9,0.1-1.1,0.5l-0.4,0.6
						c-0.4,0.7-1.2,0.9-1.9,0.5c-0.7-0.4-0.9-1.2-0.5-1.9l3-5c0.2-0.4,0.7-0.7,1.2-0.7h1.9c0.8,0,1.4,0.6,1.4,1.4v9.6
						C171.8,105.7,172.2,106.2,172.8,106.2L172.8,106.2z"/>
				</g>
				<g>
					<path class="st2" d="M189.5,105.7c0-11.1-9.1-20.2-20.2-20.2s-20.2,9.1-20.2,20.2c0,0.6,0.5,1,1,1s1-0.5,1-1
						c0-10,8.1-18.1,18.1-18.1c10,0,18.1,8.1,18.1,18.1c0,10-8.1,18.1-18.1,18.1c-4.2,0-8.2-1.4-11.5-4.1c-3.2-2.6-5.4-6.2-6.3-10.2
						c-0.1-0.6-0.7-0.9-1.2-0.8c-0.6,0.1-0.9,0.7-0.8,1.2c1,4.4,3.4,8.5,7,11.4c3.6,2.9,8.1,4.5,12.8,4.5
						C180.4,125.9,189.5,116.9,189.5,105.7z"/>
				</g>
				<g>
					<path class="st2" d="M188.5,134.6c-0.2-0.5-0.8-0.8-1.3-0.6c-0.5,0.2-0.8,0.8-0.6,1.3l2.6,7.4l-7-0.7c-0.3,0-0.6,0.1-0.8,0.3
						l-5,4.9l-5.6-16.1c4.8-0.3,9.2-1.9,12.9-4.4l1.7,4.8c0.5,1.3,2.3,0.6,1.9-0.7l-1.9-5.4c5.7-4.7,9.3-11.7,9.3-19.6
						c0-14-11.4-25.4-25.4-25.4c-14,0-25.4,11.4-25.4,25.4c0,7.9,3.6,15,9.3,19.6l-6.3,18.1c-0.2,0.6,0.3,1.4,1.1,1.4l8.1-0.9
						l5.8,5.7c0.4,0.5,1.4,0.3,1.7-0.4l5.6-16.2l5.6,16.2c0.2,0.6,1.1,0.9,1.7,0.4l5.8-5.7l8.1,0.9c0.7,0.1,1.3-0.6,1.1-1.4
						L188.5,134.6z M146,105.7c0-12.9,10.5-23.3,23.3-23.3s23.3,10.5,23.3,23.3c0,12.9-10.5,23.3-23.3,23.3S146,118.6,146,105.7
						L146,105.7z M162.3,147.1l-5-4.9c-0.2-0.2-0.5-0.3-0.8-0.3l-7,0.7l5.6-16c3.7,2.5,8.1,4.1,12.9,4.4L162.3,147.1z"/>
				</g>
			</g>
		</g>
		<g>
			<g>
				<path class="st16" d="M210.7,26.2c0.9,2-0.1,4.4-2.1,5.2c-2,0.9-4.4-0.1-5.2-2.1c-0.9-2,0.1-4.3,2.1-5.2
					C207.5,23.2,209.8,24.2,210.7,26.2z"/>
			</g>
		</g>
		<g>
			<g>
				<g>
					<circle class="st17" cx="33.2" cy="15.8" r="6.8"/>
				</g>
			</g>
			<g>
				<path class="st2" d="M33.2,23.1c-4,0-7.3-3.3-7.3-7.3s3.3-7.3,7.3-7.3s7.3,3.3,7.3,7.3S37.3,23.1,33.2,23.1z M33.2,9.5
					c-3.5,0-6.3,2.8-6.3,6.3s2.8,6.3,6.3,6.3c3.5,0,6.3-2.8,6.3-6.3S36.7,9.5,33.2,9.5z"/>
			</g>
		</g>
		<g>
			<g>
				<g>
					<path class="st17" d="M211,70.3c3.6,0,6.6,2.9,6.6,6.6s-2.9,6.6-6.6,6.6c-3.6,0-6.6-2.9-6.6-6.6
						C204.4,73.2,207.3,70.3,211,70.3z"/>
				</g>
			</g>
			<g>
				<path class="st2" d="M211,84.2c-4,0-7.3-3.3-7.3-7.3s3.3-7.3,7.3-7.3s7.3,3.3,7.3,7.3S215,84.2,211,84.2z M211,71
					c-3.2,0-5.8,2.6-5.8,5.8s2.6,5.8,5.8,5.8s5.8-2.6,5.8-5.8c0-1.5-0.6-3-1.7-4.1C214,71.6,212.5,71,211,71z"/>
			</g>
		</g>
	</g>
</g>
</svg>
