<?xml version="1.0" encoding="utf-8"?>
<!-- Generator: Adobe Illustrator 25.0.0, SVG Export Plug-In . SVG Version: 6.00 Build 0)  -->
<svg version="1.1" id="Layer_1" xmlns="http://www.w3.org/2000/svg" xmlns:xlink="http://www.w3.org/1999/xlink" x="0px" y="0px"
	 viewBox="0 0 191.8 110" style="enable-background:new 0 0 191.8 110;" xml:space="preserve">
<style type="text/css">
	.st0{fill:#F6C560;}
	.st1{opacity:4.000000e-02;}
	.st2{fill:#35414D;}
	.st3{fill:#FF6666;}
	.st4{fill:#CBCBD1;}
	.st5{fill:#BBBBBF;}
	.st6{fill:#ECECF6;}
	.st7{fill:#D9D9DD;}
	.st8{fill:#83DEFF;}
	.st9{fill:#6CCFEA;}
</style>
<g>
	<g>
		<g>
			<g>
				<g>
					<path class="st0" d="M152.5,7.9v84.3c0,3.3-2.5,6-5.3,6H7.4c-3.1,0-5.3-2.7-5.3-6V7.9c0-3.3,2.5-5.6,5.3-5.6h139.4
						C150,2.2,152.5,4.9,152.5,7.9L152.5,7.9z"/>
				</g>
				<g class="st1">
					<path d="M152.5,7.9v84.3c0,3.3-2.5,6-5.3,6H7.4c-2.8,0-5.3-2.7-5.3-6v-6.6h53.6c44.8,0,81.8-36.8,84.9-83.6h6.6
						C150,2.2,152.5,4.9,152.5,7.9L152.5,7.9z"/>
				</g>
			</g>
			<path class="st2" d="M7.4,100.4c-4.2,0-7.4-3.6-7.4-8.2V7.9C0,3.5,3.3,0,7.4,0h139.4c2.2,0,4.4,0.9,5.5,2.2c1.2,1.6,2,3.7,2,5.6
				v84.3c0,4.6-3.3,8.2-7.4,8.2H7.4z M4.2,92.2c0,1.8,1.3,3.8,3.2,3.8h139.4c2.2,0,3.6-1.5,3.6-3.8V7.1L83.9,56.4
				c-2.2,1.6-4.5,2.5-6.9,2.5c-2.3,0-4.9-0.9-6.9-2.4L4.2,7V92.2z M72.3,52.9c1.4,0.9,3,1.4,4.6,1.4s3.2-0.5,4.6-1.4l65.1-48.5
				h-16.6L130,4.5c-1,0.1-5.4,0.2-21.5,0.2c0,0,0,0,0,0C83.9,4.7,47,4.4,46.6,4.4H7.2L72.3,52.9z"/>
		</g>
		<polygon class="st0" points="49.4,44.7 56.4,36.6 69,46.4 74.4,50 99.3,37.7 104.2,46 95.3,52.8 81.2,64.7 58.9,52.8 		"/>
		<g>
			<g>
				<path class="st2" d="M103.5,47.4c-0.4-1.1-1-2.2-1.7-3.1c-0.5-0.7-1.1-1.4-1.7-2c-0.5-0.5-1-0.9-1.5-1.2c-0.5-0.4-1-0.7-1.6-1
					c-0.5-0.3-1.1-0.6-1.7-0.8c-0.3-0.1-0.5-0.2-0.8-0.2c-0.3-0.1-0.5-0.1-0.8-0.2c-0.3-0.1-0.6-0.1-0.9-0.1c-0.1,0-0.1,0-0.2,0
					c-0.1,0-0.1,0-0.2,0c-0.2,0-0.4,0-0.6,0c0,0,0,0,0,0c0,0-0.1,0-0.2,0c-0.9,0-4.5,0.1-7.2,2.5c-0.2,0.2-0.5,0.4-0.7,0.7
					c-0.8,0.7-1.6,1.7-2.4,2.7c-2.3,2.8-3.9,5.5-3.9,5.5c0,0,0,0,0,0c-1.7-2.6-3.8-5.6-6.5-8.2c-0.3-0.3-0.6-0.6-0.9-0.8
					c-0.5-0.4-1.1-0.7-1.6-1c-0.1,0-0.2-0.1-0.2-0.1c-0.6-0.3-1.1-0.5-1.7-0.7c-0.5-0.1-1-0.3-1.5-0.3c-0.4-0.1-0.8-0.1-1.2-0.1
					c-0.2,0-0.5,0-0.7,0c-0.1,0-0.1,0-0.1,0c-0.4,0-0.8,0-1.3,0.1c-0.4,0.1-0.8,0.1-1.2,0.2c-0.4,0.1-0.8,0.2-1.2,0.4
					c-0.4,0.1-0.8,0.3-1.1,0.5c-0.4,0.2-0.7,0.4-1.1,0.6c-0.4,0.2-0.7,0.5-1,0.7c-0.3,0.3-0.7,0.6-1,0.9c-0.1,0.1-0.3,0.3-0.4,0.4
					c-0.2,0.2-0.4,0.4-0.6,0.6c-0.1,0.1-0.2,0.2-0.2,0.3c0,0.1-0.1,0.1-0.1,0.2c0,0,0,0-0.1,0.1c0,0-0.1,0.1-0.1,0.1
					c-0.1,0.2-0.2,0.3-0.3,0.5c-0.2,0.3-0.4,0.7-0.6,1c-0.2,0.4-0.4,0.8-0.7,1.2c-0.1,0.2-0.2,0.4-0.3,0.7c0,0,0,0,0,0.1
					c-0.1,0.2-0.2,0.4-0.3,0.6c0,0,0,0.1,0,0.1c-0.1,0.2-0.2,0.4-0.2,0.6c0,0,0,0.1,0,0.1c-0.1,0.3-0.2,0.5-0.3,0.8
					c-0.1,0.2-0.1,0.4-0.2,0.6c0,0,0,0,0,0c0,0.2-0.1,0.4-0.1,0.6c0,0,0,0.1,0,0.1c-1,5-0.8,11.9,5.5,17.6c0.2,0.2,0.5,0.4,0.7,0.6
					c0.2,0.2,0.5,0.3,0.7,0.5c0.2,0.1,0.5,0.3,0.7,0.4c0.2,0.1,0.5,0.2,0.7,0.3c0.2,0.1,0.5,0.2,0.7,0.2c0.2,0.1,0.5,0.1,0.7,0.2
					c0.6,0.2,1.3,0.2,1.9,0.3c0.7,0,1.3,0,2,0c0.6-0.1,1.1-0.2,1.6-0.3c0.2,0,0.4-0.1,0.6-0.2c0.2-0.1,0.4-0.1,0.7-0.2
					c0.2-0.1,0.5-0.2,0.7-0.3c0.2-0.1,0.5-0.2,0.7-0.3c0.2-0.1,0.5-0.2,0.7-0.4c0.2-0.1,0.4-0.3,0.7-0.4c0.2-0.2,0.4-0.3,0.6-0.5
					c0.1-0.1,0.2-0.1,0.2-0.2c0.1-0.1,0.1-0.2,0.2-0.2c1.5-1.4,4.4-5.4,6.5-8.3c0,0.1,0.6,1,0.7,1.1c0.3,0.4,0.5,0.7,0.8,1.1
					c0.4,0.6,0.9,1.2,1.3,1.8c0.9,1.2,1.9,2.5,3,3.6c0.7,0.8,1.5,1.4,2.4,2c2.7,1.7,6,2.2,9.1,1.4c0.6-0.2,1.2-0.4,1.8-0.7
					c2-0.9,3.6-2.4,4.9-4.2c2.9-4.2,4-9.5,3-14.6C104.3,49.8,104,48.6,103.5,47.4z M68.1,63c-0.1,0.1-0.3,0.2-0.4,0.4
					c-0.1,0.1-0.2,0.2-0.3,0.2c-1,0.7-2.3,1-3.5,1.1c-0.9,0.1-1.8,0-2.7-0.2c-0.1,0-0.2-0.1-0.4-0.1c-0.1,0-0.2-0.1-0.3-0.1
					c-0.2-0.1-0.3-0.1-0.5-0.2c-0.2-0.1-0.3-0.2-0.4-0.3c-0.1-0.1-0.3-0.2-0.4-0.3c-0.1-0.1-0.3-0.2-0.4-0.3
					c-0.1-0.1-0.3-0.2-0.4-0.3c-0.1-0.1-0.3-0.2-0.4-0.4c-0.1-0.1-0.2-0.3-0.4-0.4c-0.1-0.1-0.2-0.3-0.3-0.4
					c-0.1-0.1-0.2-0.3-0.3-0.4c-0.1-0.2-0.2-0.3-0.3-0.5c-0.1-0.2-0.2-0.3-0.3-0.5c-0.1-0.2-0.2-0.3-0.3-0.5
					c-0.1-0.2-0.2-0.4-0.2-0.5c-0.1-0.2-0.1-0.4-0.2-0.6c-0.1-0.2-0.1-0.4-0.2-0.6c-0.1-0.2-0.1-0.4-0.1-0.6c0-0.2-0.1-0.4-0.1-0.6
					c0-0.2-0.1-0.4-0.1-0.6c0-0.2,0-0.4-0.1-0.6c0-0.2,0-0.4,0-0.6c0-0.1,0-0.2,0-0.2c0-6.3,5.7-12.9,12.1-8.9
					c1,0.6,1.9,1.5,2.6,2.5c1.6,2.1,3.2,4.2,4.6,6.4c-0.7,1.1-1.5,2.2-2.2,3.3c-0.6,0.9-1.3,1.8-2,2.7C69.5,61.5,68.9,62.3,68.1,63z
					 M95.6,63.8c-1.1,0.6-2.3,0.9-3.1,1c-0.8,0.1-1.6,0.1-2.3-0.1c-0.8-0.2-1.5-0.4-2.2-0.9c-0.7-0.4-1.3-1-1.9-1.6
					c-0.4-0.5-0.9-1-1.3-1.5c-0.5-0.6-0.9-1.2-1.4-1.8c-0.5-0.7-1-1.4-1.5-2.1c-0.1-0.1-0.2-0.3-0.3-0.5c-0.3-0.5-0.6-1-1-1.5
					c1.8-2.7,3.6-5.5,5.9-7.9c0.8-0.8,1.8-1.5,2.9-1.8l0,0c1.6-0.5,3.5-0.5,5.1,0.2c1.1,0.5,2.1,1.2,2.9,2.2c1.7,2,2.6,4.7,2.6,7.3
					C100,58.7,98.2,62.1,95.6,63.8z"/>
			</g>
			<path class="st3" d="M102.8,45.4c-0.4-1.1-1-2.2-1.7-3.1c-0.5-0.7-1.1-1.4-1.7-2c-0.5-0.5-1-0.9-1.5-1.2c-0.5-0.4-1-0.7-1.6-1
				c-0.5-0.3-1.1-0.6-1.7-0.8c-0.3-0.1-0.5-0.2-0.8-0.2c-0.3-0.1-0.5-0.1-0.8-0.2c-0.3-0.1-0.6-0.1-0.9-0.1c-0.1,0-0.1,0-0.2,0
				c-0.1,0-0.1,0-0.2,0c-0.2,0-0.4,0-0.6,0c0,0,0,0,0,0c0,0-0.1,0-0.2,0c-0.9,0-4.5,0.1-7.2,2.5c-0.2,0.2-0.5,0.4-0.7,0.7
				c-0.8,0.7-1.6,1.7-2.4,2.7c-2.3,2.8-3.9,5.5-3.9,5.5c0,0,0,0,0,0c-1.7-2.6-3.8-5.6-6.5-8.2c-0.3-0.3-0.6-0.6-0.9-0.8
				c-0.5-0.4-1.1-0.7-1.6-1c-0.1,0-0.2-0.1-0.2-0.1c-0.6-0.3-1.1-0.5-1.7-0.7c-0.5-0.1-1-0.3-1.5-0.3c-0.4-0.1-0.8-0.1-1.2-0.1
				c-0.2,0-0.5,0-0.7,0c-0.1,0-0.1,0-0.1,0c-0.4,0-0.8,0-1.3,0.1c-0.4,0.1-0.8,0.1-1.2,0.2c-0.4,0.1-0.8,0.2-1.2,0.4
				c-0.4,0.1-0.8,0.3-1.1,0.5c-0.4,0.2-0.7,0.4-1.1,0.6c-0.4,0.2-0.7,0.5-1,0.7c-0.3,0.3-0.7,0.6-1,0.9c-0.1,0.1-0.3,0.3-0.4,0.4
				c-0.2,0.2-0.4,0.4-0.6,0.6c-0.1,0.1-0.2,0.2-0.2,0.3c0,0.1-0.1,0.1-0.1,0.2c0,0,0,0-0.1,0.1c0,0-0.1,0.1-0.1,0.1
				c-0.1,0.2-0.2,0.3-0.3,0.5c-0.2,0.3-0.4,0.7-0.6,1c-0.2,0.4-0.4,0.8-0.7,1.2c-0.1,0.2-0.2,0.4-0.3,0.7c0,0,0,0,0,0.1
				c-0.1,0.2-0.2,0.4-0.3,0.6c0,0,0,0.1,0,0.1c-0.1,0.2-0.2,0.4-0.2,0.6c0,0,0,0.1,0,0.1c-0.1,0.3-0.2,0.5-0.3,0.8
				c-0.1,0.2-0.1,0.4-0.2,0.6c0,0,0,0,0,0c0,0.2-0.1,0.4-0.1,0.6c0,0,0,0.1,0,0.1c-1,5-0.8,11.9,5.5,17.6c0.2,0.2,0.5,0.4,0.7,0.6
				c0.2,0.2,0.5,0.3,0.7,0.5c0.2,0.1,0.5,0.3,0.7,0.4c0.2,0.1,0.5,0.2,0.7,0.3c0.2,0.1,0.5,0.2,0.7,0.2c0.2,0.1,0.5,0.1,0.7,0.2
				c0.6,0.2,1.3,0.2,1.9,0.3c0.7,0,1.3,0,2,0c0.6-0.1,1.1-0.2,1.6-0.3c0.2,0,0.4-0.1,0.6-0.2c0.2-0.1,0.4-0.1,0.7-0.2
				c0.2-0.1,0.5-0.2,0.7-0.3c0.2-0.1,0.5-0.2,0.7-0.3c0.2-0.1,0.5-0.2,0.7-0.4c0.2-0.1,0.4-0.3,0.7-0.4c0.2-0.2,0.4-0.3,0.6-0.5
				c0.1-0.1,0.2-0.1,0.2-0.2c0.1-0.1,0.1-0.2,0.2-0.2c1.5-1.4,4.4-5.4,6.5-8.3c0,0.1,0.6,1,0.7,1.1c0.3,0.4,0.5,0.7,0.8,1.1
				c0.4,0.6,0.9,1.2,1.3,1.8c0.9,1.2,1.9,2.5,3,3.6c0.7,0.8,1.5,1.4,2.4,2c2.7,1.7,6,2.2,9.1,1.4c0.6-0.2,1.2-0.4,1.8-0.7
				c2-0.9,3.6-2.4,4.9-4.2c2.9-4.2,4-9.5,3-14.6C103.6,47.8,103.2,46.6,102.8,45.4z M67.4,60.9c-0.1,0.1-0.3,0.2-0.4,0.4
				c-0.1,0.1-0.2,0.2-0.3,0.2c-1,0.7-2.3,1-3.5,1.1c-0.9,0.1-1.8,0-2.7-0.2c-0.1,0-0.2-0.1-0.4-0.1c-0.1,0-0.2-0.1-0.3-0.1
				c-0.2-0.1-0.3-0.1-0.5-0.2c-0.2-0.1-0.3-0.2-0.4-0.3c-0.1-0.1-0.3-0.2-0.4-0.3c-0.1-0.1-0.3-0.2-0.4-0.3
				c-0.1-0.1-0.3-0.2-0.4-0.3c-0.1-0.1-0.3-0.2-0.4-0.4c-0.1-0.1-0.2-0.3-0.4-0.4c-0.1-0.1-0.2-0.3-0.3-0.4
				c-0.1-0.1-0.2-0.3-0.3-0.4c-0.1-0.2-0.2-0.3-0.3-0.5c-0.1-0.2-0.2-0.3-0.3-0.5c-0.1-0.2-0.2-0.3-0.3-0.5
				c-0.1-0.2-0.2-0.4-0.2-0.5C55.1,57,55,56.8,55,56.7c-0.1-0.2-0.1-0.4-0.2-0.6c-0.1-0.2-0.1-0.4-0.1-0.6c0-0.2-0.1-0.4-0.1-0.6
				c0-0.2-0.1-0.4-0.1-0.6c0-0.2,0-0.4-0.1-0.6c0-0.2,0-0.4,0-0.6c0-0.1,0-0.2,0-0.2c0-6.3,5.7-12.9,12.1-8.9c1,0.6,1.9,1.5,2.6,2.5
				c1.6,2.1,3.2,4.2,4.6,6.4c-0.7,1.1-1.5,2.2-2.2,3.3c-0.6,0.9-1.3,1.8-2,2.7C68.8,59.5,68.2,60.3,67.4,60.9z M94.8,61.7
				c-1.1,0.6-2.3,0.9-3.1,1c-0.8,0.1-1.6,0.1-2.3-0.1c-0.8-0.2-1.5-0.4-2.2-0.9c-0.7-0.4-1.3-1-1.9-1.6c-0.4-0.5-0.9-1-1.3-1.5
				c-0.5-0.6-0.9-1.2-1.4-1.8c-0.5-0.7-1-1.4-1.5-2.1c-0.1-0.1-0.2-0.3-0.3-0.5c-0.3-0.5-0.6-1-1-1.5c1.8-2.7,3.6-5.5,5.9-7.9
				c0.8-0.8,1.8-1.5,2.9-1.8l0,0c1.6-0.5,3.5-0.5,5.1,0.2c1.1,0.5,2.1,1.2,2.9,2.2c1.7,2,2.6,4.7,2.6,7.3
				C99.3,56.7,97.5,60.1,94.8,61.7z"/>
		</g>
	</g>
	<g>
		<g>
			<path class="st4" d="M136,56.7l2.5,6.2L136,97.6c0,2.1-1.7,3.7-3.7,3.7c-1,0-2-0.4-2.6-1.1c-0.7-0.7-1.1-1.6-1.1-2.6V57.9
				c0-0.7,0.6-1.2,1.2-1.2H136z"/>
			<path class="st5" d="M134.8,100.1c-1,0-2-0.4-2.6-1.1c-0.7-0.7-1.1-1.6-1.1-2.6V56.7h-1.2c-0.7,0-1.2,0.6-1.2,1.2v39.7
				c0,1,0.4,2,1.1,2.6c0.7,0.7,1.6,1.1,2.6,1.1c1.1,0,2.1-0.5,2.8-1.3C135,100.1,134.9,100.1,134.8,100.1z"/>
			<path class="st6" d="M190.6,41.7v62.1c0,2.7-2.2,5-5,5h-53.3c6,0,11.2-5.1,11.2-11.2V41.7l1.9-1.3c1-0.7,2.1-1,3.3-1
				c1,0,2.1,0.3,3,0.8c1.8,1.1,4.2,1.1,6,0l0.2-0.1c1.8-1.1,4.2-1.1,6,0l0.2,0.1c1.8,1.1,4.2,1.1,6,0l0.2-0.1c1.8-1.1,4.2-1.1,6,0
				l0.2,0.1c0.9,0.6,2,0.8,3,0.8s2.1-0.3,3-0.8c1.9-1.2,4.4-1.1,6.3,0.1L190.6,41.7z"/>
			<path class="st7" d="M190.6,101.3v2.5c0,2.7-2.2,5-5,5h-45.8c-1.8,0-7.5,0-7.5,0c6,0,11.2-5.2,11.2-11.2c0,0,0-55.9,0-55.9
				l1.9-1.3c0.2-0.1,0.4-0.2,0.6-0.4v58.8c0,2.8-1.1,5.5-3,7.4h42.6C188.3,106.3,190.6,104.1,190.6,101.3z"/>
			<path class="st4" d="M143.5,51.8v45.9c0,6-5.1,11.2-11.2,11.2c-6.2,0-11.2-5-11.2-11.2V62.9c0-0.7,0.6-1.2,1.2-1.2h6.2v35.9
				c0,1,0.4,2,1.1,2.6c0.7,0.7,1.6,1.1,2.6,1.1c2.1,0,3.7-1.7,3.7-3.7V53c0-0.7,0.6-1.2,1.2-1.2H143.5z"/>
			<g>
				<path class="st5" d="M138.5,96.4V51.8h-1.2c-0.7,0-1.2,0.6-1.2,1.2v44.6c0,0.9-0.4,1.8-0.9,2.4C137,99.9,138.5,98.3,138.5,96.4z
					"/>
				<path class="st5" d="M134.8,107.5c-6.2,0-11.2-5-11.2-11.2V61.7h-1.2c-0.7,0-1.2,0.6-1.2,1.2v34.7c0,6.2,5,11.2,11.2,11.2
					c2.2,0,4.3-0.7,6.1-1.9C137.2,107.3,136,107.5,134.8,107.5z"/>
			</g>
			<g>
				<path class="st8" d="M149.7,48h34.7v17.4h-34.7V48z"/>
			</g>
			<path class="st9" d="M152.8,61V48h-3.1v17.4h34.7v-3.1H154C153.3,62.3,152.8,61.7,152.8,61z"/>
			<g>
				<path class="st8" d="M149.7,84H167v18.6h-17.4V84z"/>
			</g>
			<path class="st9" d="M152.8,98.2V84h-3.1v18.6H167v-3.1h-13C153.3,99.5,152.8,98.9,152.8,98.2z"/>
		</g>
		<g>
			<path class="st2" d="M180.7,64.1c-0.7,0-1.2,0.6-1.2,1.2s0.6,1.2,1.2,1.2h3.7c0.7,0,1.2-0.6,1.2-1.2V48c0-0.7-0.6-1.2-1.2-1.2
				h-34.7c-0.7,0-1.2,0.6-1.2,1.2v17.4c0,0.7,0.6,1.2,1.2,1.2h26c0.7,0,1.2-0.6,1.2-1.2s-0.6-1.2-1.2-1.2h-24.8V49.3h32.2v14.9
				H180.7z"/>
			<path class="st2" d="M167,103.8c0.7,0,1.2-0.6,1.2-1.2V84c0-0.7-0.6-1.2-1.2-1.2h-17.4c-0.7,0-1.2,0.6-1.2,1.2v18.6
				c0,0.7,0.6,1.2,1.2,1.2H167z M150.9,85.2h14.9v16.1h-14.9V85.2z"/>
			<path class="st2" d="M149.7,72.8h34.7c0.7,0,1.2-0.6,1.2-1.2s-0.6-1.2-1.2-1.2h-34.7c-0.7,0-1.2,0.6-1.2,1.2S149,72.8,149.7,72.8
				z"/>
			<path class="st2" d="M149.7,79h34.7c0.7,0,1.2-0.6,1.2-1.2s-0.6-1.2-1.2-1.2h-34.7c-0.7,0-1.2,0.6-1.2,1.2S149,79,149.7,79z"/>
			<path class="st2" d="M184.4,82.7h-11.2c-0.7,0-1.2,0.6-1.2,1.2s0.6,1.2,1.2,1.2h11.2c0.7,0,1.2-0.6,1.2-1.2
				S185.1,82.7,184.4,82.7z"/>
			<path class="st2" d="M184.4,88.9h-11.2c-0.7,0-1.2,0.6-1.2,1.2s0.6,1.2,1.2,1.2h11.2c0.7,0,1.2-0.6,1.2-1.2
				S185.1,88.9,184.4,88.9z"/>
			<path class="st2" d="M184.4,95.1h-11.2c-0.7,0-1.2,0.6-1.2,1.2s0.6,1.2,1.2,1.2h11.2c0.7,0,1.2-0.6,1.2-1.2
				S185.1,95.1,184.4,95.1z"/>
			<path class="st2" d="M184.4,101.3h-11.2c-0.7,0-1.2,0.6-1.2,1.2s0.6,1.2,1.2,1.2h11.2c0.7,0,1.2-0.6,1.2-1.2
				S185.1,101.3,184.4,101.3z"/>
			<path class="st2" d="M191.8,41.6c0-0.3-0.3-0.7-0.5-0.9l-1.9-1.3c-2.3-1.5-5.3-1.6-7.6-0.2c-1.4,0.9-3.3,0.9-4.8,0l-0.1-0.1
				c-2.2-1.3-5-1.3-7.3,0l-0.2,0.1c-1.5,0.9-3.3,0.9-4.8,0l-0.1-0.1c-2.2-1.3-5-1.3-7.3,0l-0.2,0.1c-1.5,0.9-3.3,0.9-4.7,0
				c-2.3-1.4-5.4-1.3-7.6,0.2c0,0-1.9,1.3-1.9,1.3c-0.3,0.2-0.6,0.6-0.6,1v8.8h-5c-1.4,0-2.5,1.1-2.5,2.5v2.5h-5
				c-1.4,0-2.5,1.1-2.5,2.5v2.5h-5c-1.4,0-2.5,1.1-2.5,2.5v34.7c0,6.8,5.6,12.4,12.4,12.4H146c0.7,0,1.2-0.6,1.2-1.2
				s-0.6-1.2-1.2-1.2h-6.2c0.2-0.2,0.4-0.3,0.6-0.5c2.7-2.3,4.3-5.8,4.3-9.4V42.3l1.3-0.9c1.4-1,3.4-1,4.9-0.1
				c2.3,1.4,5.1,1.4,7.3,0l0.2-0.1c1.5-0.9,3.3-0.9,4.8,0l0.1,0.1c2.3,1.4,5.1,1.4,7.3,0l0.2-0.1c1.5-0.9,3.3-0.9,4.8,0l0.1,0.1
				c2.2,1.3,5.1,1.3,7.3,0c1.5-0.9,3.5-0.9,4.9,0.1l1.3,0.9v61.5c0,2.1-1.7,3.7-3.7,3.7h-34.7c-0.7,0-1.2,0.6-1.2,1.2
				s0.6,1.2,1.2,1.2h34.7c3.4,0,6.2-2.8,6.2-6.2c0,0,0-62.1,0-62.1C191.8,41.6,191.8,41.6,191.8,41.6L191.8,41.6z M122.4,97.6V62.9
				h5v34.7c0,2.7,2.3,5,5,5c2.7,0,5-2.2,5-5V65.4c0-0.7-0.6-1.2-1.2-1.2c-0.7,0-1.2,0.6-1.2,1.2v32.2c0,1.4-1.1,2.5-2.5,2.5
				c-1.3,0-2.5-1.1-2.5-2.5V57.9h5v2.5c0,0.7,0.6,1.2,1.2,1.2c0.7,0,1.2-0.6,1.2-1.2V53h5c0,0,0,44.6,0,44.6
				c-0.1,5.3-4.6,9.9-9.9,9.9C126.8,107.5,122.4,103.1,122.4,97.6L122.4,97.6z"/>
		</g>
	</g>
</g>
</svg>
