<?xml version="1.0" encoding="utf-8"?>
<!-- Generator: Adobe Illustrator 25.0.0, SVG Export Plug-In . SVG Version: 6.00 Build 0)  -->
<svg version="1.1" id="Layer_1" xmlns="http://www.w3.org/2000/svg" xmlns:xlink="http://www.w3.org/1999/xlink" x="0px" y="0px"
	 viewBox="0 0 251.2 110" style="enable-background:new 0 0 251.2 110;" xml:space="preserve">
<style type="text/css">
	.st0{fill:#F6C560;}
	.st1{opacity:4.000000e-02;}
	.st2{fill:#35414D;}
	.st3{fill:#FF6666;}
	.st4{fill:#6DC82A;}
	.st5{fill:#5EAC24;}
	.st6{fill:#91DC5A;}
	.st7{fill:#CC7400;}
	.st8{fill:#AA6100;}
	.st9{fill:none;}
</style>
<g>
	<g>
		<g>
			<g>
				<g>
					<path class="st0" d="M202.4,8.4v90.2c0,3.5-2.7,6.4-5.7,6.4H47.2c-3.4,0-5.7-2.8-5.7-6.4V8.4c0-3.5,2.7-6,5.7-6h149.1
						C199.7,2.4,202.4,5.2,202.4,8.4L202.4,8.4z"/>
				</g>
				<g class="st1">
					<path d="M202.4,8.4v90.2c0,3.5-2.7,6.4-5.7,6.4H47.2c-3,0-5.7-2.8-5.7-6.4v-7.1h57.3c47.9,0,87.5-39.4,90.8-89.5h7
						C199.7,2.4,202.4,5.2,202.4,8.4L202.4,8.4z"/>
				</g>
			</g>
			<path class="st2" d="M47.2,107.3c-4.4,0-7.9-3.8-7.9-8.8V8.4c0-4.6,3.6-8.4,7.9-8.4h149.1c2.4,0,4.7,1,5.8,2.4
				c1.3,1.7,2.1,4,2.1,6v90.2c0,4.9-3.5,8.8-7.9,8.8H47.2z M43.8,98.6c0,1.9,1.4,4,3.5,4h149.1c2.3,0,3.8-1.6,3.8-4v-91L129,60.3
				c-2.3,1.7-4.8,2.6-7.4,2.6c-2.5,0-5.2-1-7.4-2.6L43.8,7.5V98.6z M116.7,56.6c1.5,1,3.2,1.5,4.9,1.5s3.5-0.5,4.9-1.5l69.6-51.9
				h-17.7l-0.1,0.1c-1.1,0.1-5.8,0.2-23,0.2c0,0,0,0,0,0C129,5,89.5,4.7,89.1,4.7H47.1L116.7,56.6z"/>
		</g>
		<polygon class="st0" points="92.1,47.8 99.6,39.2 113.2,49.6 118.8,53.5 145.5,40.3 150.7,49.1 141.2,56.4 126.1,69.2 102.3,56.4 
					"/>
		<g>
			<g>
				<path class="st2" d="M150,50.7c-0.5-1.2-1.1-2.3-1.8-3.4c-0.5-0.8-1.1-1.5-1.8-2.2c-0.5-0.5-1-0.9-1.6-1.3
					c-0.5-0.4-1.1-0.8-1.7-1.1c-0.6-0.3-1.2-0.6-1.8-0.8c-0.3-0.1-0.6-0.2-0.8-0.3c-0.3-0.1-0.6-0.1-0.9-0.2c-0.3-0.1-0.7-0.1-1-0.1
					c-0.1,0-0.1,0-0.2,0c-0.1,0-0.1,0-0.2,0c-0.2,0-0.4,0-0.6,0c0,0,0,0,0,0c0,0-0.1,0-0.2,0c-0.9,0-4.8,0.1-7.7,2.7
					c-0.2,0.2-0.5,0.5-0.7,0.7c-0.8,0.8-1.7,1.8-2.6,2.9c-2.4,3-4.2,5.8-4.2,5.8c0,0,0,0,0,0c-1.8-2.8-4.1-5.9-6.9-8.8
					c-0.3-0.3-0.6-0.6-0.9-0.9c-0.5-0.4-1.1-0.8-1.7-1.1c-0.1,0-0.2-0.1-0.3-0.1c-0.6-0.3-1.2-0.5-1.9-0.7c-0.5-0.2-1.1-0.3-1.6-0.4
					c-0.4-0.1-0.8-0.1-1.3-0.1c-0.2,0-0.5,0-0.7,0c-0.1,0-0.1,0-0.2,0c-0.4,0-0.9,0-1.3,0.1c-0.4,0.1-0.9,0.1-1.3,0.3
					c-0.4,0.1-0.9,0.2-1.3,0.4c-0.4,0.2-0.8,0.3-1.2,0.5c-0.4,0.2-0.8,0.4-1.2,0.7c-0.4,0.2-0.7,0.5-1.1,0.8c-0.4,0.3-0.7,0.6-1,0.9
					c-0.2,0.2-0.3,0.3-0.5,0.5c-0.2,0.2-0.4,0.5-0.6,0.7c-0.1,0.1-0.2,0.2-0.3,0.3c0,0.1-0.1,0.1-0.1,0.2c0,0,0,0.1-0.1,0.1
					c0,0-0.1,0.1-0.1,0.1c-0.1,0.2-0.2,0.3-0.4,0.5c-0.2,0.3-0.5,0.7-0.7,1.1c-0.2,0.4-0.5,0.9-0.7,1.3c-0.1,0.2-0.2,0.5-0.3,0.7
					c0,0,0,0,0,0.1c-0.1,0.2-0.2,0.4-0.3,0.7c0,0,0,0.1,0,0.1c-0.1,0.2-0.2,0.4-0.2,0.7c0,0,0,0.1,0,0.1c-0.1,0.3-0.2,0.6-0.3,0.9
					c-0.1,0.2-0.1,0.4-0.2,0.7c0,0,0,0,0,0c-0.1,0.2-0.1,0.4-0.1,0.7c0,0,0,0.1,0,0.1c-1.1,5.3-0.9,12.7,5.8,18.8
					c0.2,0.2,0.5,0.4,0.8,0.6c0.3,0.2,0.5,0.4,0.8,0.5c0.3,0.2,0.5,0.3,0.8,0.4c0.3,0.1,0.5,0.2,0.8,0.3c0.3,0.1,0.5,0.2,0.8,0.3
					c0.2,0.1,0.5,0.1,0.7,0.2c0.7,0.2,1.4,0.3,2.1,0.3c0.7,0,1.4,0,2.1-0.1c0.6-0.1,1.2-0.2,1.8-0.3c0.2-0.1,0.5-0.1,0.7-0.2
					c0.2-0.1,0.5-0.1,0.7-0.2c0.2-0.1,0.5-0.2,0.7-0.3c0.2-0.1,0.5-0.2,0.7-0.3c0.2-0.1,0.5-0.3,0.7-0.4c0.2-0.1,0.5-0.3,0.7-0.5
					c0.2-0.2,0.5-0.4,0.7-0.6c0.1-0.1,0.2-0.2,0.3-0.2c0.1-0.1,0.2-0.2,0.2-0.3c1.6-1.4,4.7-5.7,6.9-8.9c0,0.1,0.7,1,0.7,1.1
					c0.3,0.4,0.6,0.8,0.8,1.2c0.4,0.7,1,1.3,1.4,2c1,1.3,2,2.7,3.2,3.8c0.8,0.8,1.6,1.5,2.6,2.1c2.9,1.8,6.5,2.3,9.7,1.5
					c0.7-0.2,1.3-0.4,1.9-0.7c2.1-0.9,3.9-2.6,5.3-4.5c3.1-4.5,4.3-10.2,3.2-15.7C150.8,53.3,150.5,52,150,50.7z M112.2,67.3
					c-0.2,0.1-0.3,0.3-0.5,0.4c-0.1,0.1-0.2,0.2-0.4,0.3c-1.1,0.7-2.4,1.1-3.7,1.2c-1,0.1-2,0-2.9-0.2c-0.1,0-0.3-0.1-0.4-0.1
					c-0.1,0-0.2-0.1-0.3-0.1c-0.2-0.1-0.3-0.2-0.5-0.2c-0.2-0.1-0.3-0.2-0.5-0.3c-0.2-0.1-0.3-0.2-0.5-0.3c-0.2-0.1-0.3-0.2-0.4-0.3
					c-0.1-0.1-0.3-0.2-0.4-0.4c-0.1-0.1-0.3-0.3-0.4-0.4c-0.1-0.1-0.3-0.3-0.4-0.4c-0.1-0.1-0.2-0.3-0.4-0.5
					c-0.1-0.2-0.2-0.3-0.3-0.5c-0.1-0.2-0.2-0.3-0.3-0.5c-0.1-0.2-0.2-0.3-0.3-0.5c-0.1-0.2-0.2-0.4-0.3-0.6
					c-0.1-0.2-0.2-0.4-0.2-0.6c-0.1-0.2-0.1-0.4-0.2-0.6c-0.1-0.2-0.1-0.4-0.2-0.6c-0.1-0.2-0.1-0.4-0.2-0.6c0-0.2-0.1-0.4-0.1-0.6
					c0-0.2-0.1-0.4-0.1-0.7c0-0.2,0-0.4-0.1-0.7c0-0.2,0-0.5,0-0.7c0-0.1,0-0.2,0-0.3c0-6.8,6.1-13.8,12.9-9.5
					c1.1,0.7,2,1.6,2.8,2.6c1.7,2.2,3.4,4.5,4.9,6.8c-0.8,1.2-1.6,2.4-2.4,3.5c-0.7,1-1.4,1.9-2.1,2.8
					C113.7,65.8,113,66.6,112.2,67.3z M141.5,68.2c-1.2,0.7-2.4,0.9-3.3,1.1c-0.8,0.1-1.7,0.1-2.5-0.1c-0.8-0.2-1.6-0.5-2.3-0.9
					c-0.7-0.5-1.4-1.1-2-1.7c-0.5-0.5-0.9-1.1-1.4-1.6c-0.5-0.6-1-1.3-1.5-1.9c-0.5-0.8-1.1-1.5-1.6-2.3c-0.1-0.2-0.2-0.3-0.3-0.5
					c-0.3-0.5-0.7-1-1-1.6c1.9-2.9,3.9-5.9,6.3-8.4c0.9-0.9,1.9-1.6,3.1-1.9l0,0c1.7-0.5,3.7-0.6,5.4,0.2c1.2,0.5,2.2,1.3,3.1,2.3
					c1.8,2.1,2.7,5,2.7,7.8C146.2,62.8,144.3,66.4,141.5,68.2z"/>
			</g>
			<path class="st3" d="M149.2,48.6c-0.5-1.2-1.1-2.3-1.8-3.4c-0.5-0.8-1.1-1.5-1.8-2.2c-0.5-0.5-1-0.9-1.6-1.3
				c-0.5-0.4-1.1-0.8-1.7-1.1c-0.6-0.3-1.2-0.6-1.8-0.8c-0.3-0.1-0.6-0.2-0.8-0.3c-0.3-0.1-0.6-0.1-0.9-0.2c-0.3-0.1-0.7-0.1-1-0.1
				c-0.1,0-0.1,0-0.2,0c-0.1,0-0.1,0-0.2,0c-0.2,0-0.4,0-0.6,0c0,0,0,0,0,0c0,0-0.1,0-0.2,0c-0.9,0-4.8,0.1-7.7,2.7
				c-0.2,0.2-0.5,0.5-0.7,0.7c-0.8,0.8-1.7,1.8-2.6,2.9c-2.4,3-4.2,5.8-4.2,5.8c0,0,0,0,0,0c-1.8-2.8-4.1-5.9-6.9-8.8
				c-0.3-0.3-0.6-0.6-0.9-0.9c-0.5-0.4-1.1-0.8-1.7-1.1c-0.1,0-0.2-0.1-0.3-0.1c-0.6-0.3-1.2-0.5-1.9-0.7c-0.5-0.2-1.1-0.3-1.6-0.4
				c-0.4-0.1-0.8-0.1-1.3-0.1c-0.2,0-0.5,0-0.7,0c-0.1,0-0.1,0-0.2,0c-0.4,0-0.9,0-1.3,0.1c-0.4,0.1-0.9,0.1-1.3,0.3
				c-0.4,0.1-0.9,0.2-1.3,0.4c-0.4,0.2-0.8,0.3-1.2,0.5c-0.4,0.2-0.8,0.4-1.2,0.7c-0.4,0.2-0.7,0.5-1.1,0.8c-0.4,0.3-0.7,0.6-1,0.9
				c-0.2,0.2-0.3,0.3-0.5,0.5c-0.2,0.2-0.4,0.5-0.6,0.7c-0.1,0.1-0.2,0.2-0.3,0.3c0,0.1-0.1,0.1-0.1,0.2c0,0,0,0.1-0.1,0.1
				c0,0-0.1,0.1-0.1,0.1c-0.1,0.2-0.2,0.3-0.4,0.5c-0.2,0.3-0.5,0.7-0.7,1.1c-0.2,0.4-0.5,0.9-0.7,1.3c-0.1,0.2-0.2,0.5-0.3,0.7
				c0,0,0,0,0,0.1c-0.1,0.2-0.2,0.4-0.3,0.7c0,0,0,0.1,0,0.1c-0.1,0.2-0.2,0.4-0.2,0.7c0,0,0,0.1,0,0.1c-0.1,0.3-0.2,0.6-0.3,0.9
				c-0.1,0.2-0.1,0.4-0.2,0.7c0,0,0,0,0,0c-0.1,0.2-0.1,0.4-0.1,0.7c0,0,0,0.1,0,0.1c-1.1,5.3-0.9,12.7,5.8,18.8
				c0.2,0.2,0.5,0.4,0.8,0.6c0.3,0.2,0.5,0.4,0.8,0.5c0.3,0.2,0.5,0.3,0.8,0.4c0.3,0.1,0.5,0.2,0.8,0.3c0.3,0.1,0.5,0.2,0.8,0.3
				c0.2,0.1,0.5,0.1,0.7,0.2c0.7,0.2,1.4,0.3,2.1,0.3c0.7,0,1.4,0,2.1-0.1c0.6-0.1,1.2-0.2,1.8-0.3c0.2-0.1,0.5-0.1,0.7-0.2
				c0.2-0.1,0.5-0.1,0.7-0.2c0.2-0.1,0.5-0.2,0.7-0.3c0.2-0.1,0.5-0.2,0.7-0.3c0.2-0.1,0.5-0.3,0.7-0.4c0.2-0.1,0.5-0.3,0.7-0.5
				c0.2-0.2,0.5-0.4,0.7-0.6c0.1-0.1,0.2-0.2,0.3-0.2c0.1-0.1,0.2-0.2,0.2-0.3c1.6-1.4,4.7-5.7,6.9-8.9c0,0.1,0.7,1,0.7,1.1
				c0.3,0.4,0.6,0.8,0.8,1.2c0.4,0.7,1,1.3,1.4,2c1,1.3,2,2.7,3.2,3.8c0.8,0.8,1.6,1.5,2.6,2.1c2.9,1.8,6.5,2.3,9.7,1.5
				c0.7-0.2,1.3-0.4,1.9-0.7c2.1-0.9,3.9-2.6,5.3-4.5c3.1-4.5,4.3-10.2,3.2-15.7C150.1,51.1,149.7,49.8,149.2,48.6z M111.4,65.2
				c-0.2,0.1-0.3,0.3-0.5,0.4c-0.1,0.1-0.2,0.2-0.4,0.3c-1.1,0.7-2.4,1.1-3.7,1.2c-1,0.1-2,0-2.9-0.2c-0.1,0-0.3-0.1-0.4-0.1
				c-0.1,0-0.2-0.1-0.3-0.1c-0.2-0.1-0.3-0.2-0.5-0.2c-0.2-0.1-0.3-0.2-0.5-0.3c-0.2-0.1-0.3-0.2-0.5-0.3c-0.2-0.1-0.3-0.2-0.4-0.3
				c-0.1-0.1-0.3-0.2-0.4-0.4c-0.1-0.1-0.3-0.3-0.4-0.4c-0.1-0.1-0.3-0.3-0.4-0.4c-0.1-0.1-0.2-0.3-0.4-0.5
				c-0.1-0.2-0.2-0.3-0.3-0.5c-0.1-0.2-0.2-0.3-0.3-0.5c-0.1-0.2-0.2-0.3-0.3-0.5c-0.1-0.2-0.2-0.4-0.3-0.6
				c-0.1-0.2-0.2-0.4-0.2-0.6c-0.1-0.2-0.1-0.4-0.2-0.6c-0.1-0.2-0.1-0.4-0.2-0.6c-0.1-0.2-0.1-0.4-0.2-0.6c0-0.2-0.1-0.4-0.1-0.6
				c0-0.2-0.1-0.4-0.1-0.7c0-0.2,0-0.4-0.1-0.7c0-0.2,0-0.5,0-0.7c0-0.1,0-0.2,0-0.3c0-6.8,6.1-13.8,12.9-9.5c1.1,0.7,2,1.6,2.8,2.6
				c1.7,2.2,3.4,4.5,4.9,6.8c-0.8,1.2-1.6,2.4-2.4,3.5c-0.7,1-1.4,1.9-2.1,2.8C112.9,63.6,112.2,64.5,111.4,65.2z M140.7,66
				c-1.2,0.7-2.4,0.9-3.3,1.1c-0.8,0.1-1.7,0.1-2.5-0.1c-0.8-0.2-1.6-0.5-2.3-0.9c-0.7-0.5-1.4-1.1-2-1.7c-0.5-0.5-0.9-1.1-1.4-1.6
				c-0.5-0.6-1-1.3-1.5-1.9c-0.5-0.8-1.1-1.5-1.6-2.3c-0.1-0.2-0.2-0.3-0.3-0.5c-0.3-0.5-0.7-1-1-1.6c1.9-2.9,3.9-5.9,6.3-8.4
				c0.9-0.9,1.9-1.6,3.1-1.9l0,0c1.7-0.5,3.7-0.6,5.4,0.2c1.2,0.5,2.2,1.3,3.1,2.3c1.8,2.1,2.7,5,2.7,7.8
				C145.5,60.6,143.5,64.3,140.7,66z"/>
		</g>
	</g>
	<g>
		<path class="st4" d="M205,65.1c-0.6,0.6-1.3,0.9-2.1,0.8c-0.3,0-6.9-0.5-13.7-4.1c-6.4-3.5-14.2-10.5-14.6-24.3
			c0-0.8,0.3-1.5,0.8-2c0.8-0.8,1.8-0.8,2.2-0.8c0,0,0,0,0,0c0.3,0,7.1,0,14,4.2c3.6,2.2,6.6,5.1,8.9,8.6c2.8,4.3,4.6,9.4,5.3,15.4
			C205.9,63.7,205.6,64.5,205,65.1z"/>
		<path class="st5" d="M200.6,47.7c-1.1,2.1-2.1,4.5-2.8,7.2c-0.6,1.9-1.6,5.1-2.4,9.6c4.1,1.3,7.3,1.5,7.5,1.5
			c0.8,0.1,1.6-0.3,2.1-0.8c0.6-0.6,0.8-1.4,0.7-2.2C205.1,57,203.3,51.9,200.6,47.7z"/>
		<path class="st6" d="M231.6,35.6c-0.6-0.6-1.3-0.9-2.1-0.8c-0.3,0-6.9,0.5-13.7,4.1c-5.2,2.8-11.3,8-13.7,17.2
			c-1.3,3.8-4.1,14-3.4,29.3c0.1,1.3,1.2,2.4,2.5,2.4c0,0,0.1,0,0.1,0c1.4-0.1,2.4-1.2,2.4-2.6c-0.3-8,0.3-14.5,1.2-19.3
			c1.9-0.1,7.6-0.7,13.4-4.2c3.6-2.2,6.6-5.1,8.9-8.6c2.8-4.3,4.6-9.4,5.3-15.4C232.5,37,232.2,36.2,231.6,35.6z"/>
		<path class="st7" d="M228.9,93.7c-1.1,0-2.2,0.3-3.1,0.9c-1.3-4.4-5.4-7.5-10.2-7.5c-0.5,0-1.1,0-1.6,0.1c-2.2-5-7.1-8.5-12.9-8.5
			c-5.8,0-10.7,3.5-12.9,8.5c-0.5-0.1-1-0.1-1.6-0.1c-4.8,0-8.9,3.2-10.2,7.5c-0.9-0.6-2-0.9-3.1-0.9c-3.3,0-5.9,2.7-5.9,5.9
			s2.7,5.9,5.9,5.9c1.8,0,3.3-0.8,4.4-2c1.9,2.9,5.2,4.8,8.9,4.8c3,0,5.7-1.2,7.6-3.2c2,1.1,4.4,1.8,6.8,1.8c2.5,0,4.8-0.6,6.8-1.8
			c1.9,2,4.6,3.2,7.6,3.2c3.7,0,7-1.9,8.9-4.8c1.1,1.2,2.7,2,4.4,2c3.3,0,5.9-2.7,5.9-5.9C234.9,96.4,232.2,93.7,228.9,93.7z"/>
		<g>
			<path class="st8" d="M208.9,84.5c1.4,0,2.8,0.2,4,0.6c-2.5-3.8-6.9-6.4-11.8-6.4c-5.8,0-10.7,3.5-12.9,8.5
				c-0.5-0.1-1-0.1-1.6-0.1c-4.8,0-8.9,3.2-10.2,7.5c-0.9-0.6-2-0.9-3.1-0.9c-3.3,0-5.9,2.7-5.9,5.9c0,3.3,2.7,5.9,5.9,5.9
				c1.8,0,3.3-0.8,4.4-2c1.9,2.9,5.2,4.8,8.9,4.8c3,0,5.7-1.2,7.6-3.2c0.9,0.5,1.8,0.9,2.8,1.2c-1.5-2.2-2.3-4.9-2.3-7.7
				C194.8,90.8,201.1,84.5,208.9,84.5z"/>
			<circle class="st8" cx="206.8" cy="95.3" r="2.6"/>
			<circle class="st8" cx="217.1" cy="101.3" r="2.6"/>
			<circle class="st8" cx="215.5" cy="92.6" r="1"/>
			<circle class="st8" cx="201.2" cy="102.3" r="1"/>
			<circle class="st8" cx="204.2" cy="88.9" r="1"/>
			<circle class="st8" cx="225.4" cy="97.8" r="1"/>
		</g>
		<g>
			<circle class="st7" cx="219.6" cy="80.4" r="2.6"/>
			<circle class="st7" cx="225.4" cy="86.1" r="1"/>
			<circle class="st7" cx="225.4" cy="81.3" r="1"/>
		</g>
		<g>
			<circle class="st8" cx="180.5" cy="79.4" r="2.6"/>
			<circle class="st8" cx="176.3" cy="85.1" r="1"/>
		</g>
		<path class="st2" d="M205,62.4c0.3,0,0.6-0.1,0.8-0.3l5.5-5.4l8.3-0.1c0.6,0,1.1-0.5,1.1-1.1c0-0.6-0.5-1.1-1.1-1.1c0,0,0,0,0,0
			l-5.9,0.1l3.9-3.8l8.2-0.1c0.6,0,1.1-0.5,1.1-1.1c0-0.6-0.5-1.1-1.1-1.1c0,0,0,0,0,0l-5.8,0.1l8.3-8.1c0.4-0.4,0.5-1.1,0-1.6
			c-0.4-0.4-1.1-0.5-1.6,0l-7.5,7.4l0.9-4.6c0.1-0.6-0.3-1.2-0.9-1.3c-0.6-0.1-1.2,0.3-1.3,0.9l-1.6,7.8l-3.2,3.2l0.9-4.5
			c0.1-0.6-0.3-1.2-0.9-1.3c-0.6-0.1-1.2,0.3-1.3,0.9l-1.5,7.7l-5.9,5.7c-0.4,0.4-0.5,1.1,0,1.6C204.5,62.3,204.8,62.4,205,62.4z"/>
		<path class="st2" d="M182.1,56.5c0.4-0.4,0.5-1.1,0.1-1.6c-0.4-0.4-0.7-0.8-1-1.3c-0.4-0.5-1.1-0.6-1.6-0.2
			c-0.5,0.4-0.6,1.1-0.2,1.6c0.4,0.5,0.7,0.9,1.1,1.4C180.8,56.6,181.6,57,182.1,56.5z"/>
		<path class="st2" d="M206.9,91.6c-2,0-3.7,1.7-3.7,3.7c0,2,1.7,3.7,3.7,3.7c2,0,3.7-1.7,3.7-3.7S208.9,91.6,206.9,91.6z
			 M206.9,96.7c-0.8,0-1.4-0.6-1.4-1.4s0.6-1.4,1.4-1.4s1.4,0.6,1.4,1.4S207.7,96.7,206.9,96.7z"/>
		<path class="st2" d="M217.2,97.6c-0.6,0-1.1,0.5-1.1,1.1c0,0.6,0.5,1.1,1.1,1.1c0.8,0,1.4,0.6,1.4,1.4s-0.6,1.4-1.4,1.4
			c-0.8,0-1.4-0.6-1.4-1.4c0-0.6-0.5-1.1-1.1-1.1s-1.1,0.5-1.1,1.1c0,2,1.7,3.7,3.7,3.7c2,0,3.7-1.7,3.7-3.7
			C220.9,99.3,219.3,97.6,217.2,97.6z"/>
		<path class="st2" d="M216.1,80.4c0,2,1.7,3.7,3.7,3.7c2,0,3.7-1.7,3.7-3.7c0-2-1.7-3.7-3.7-3.7C217.7,76.7,216.1,78.3,216.1,80.4z
			 M221.2,80.4c0,0.8-0.6,1.4-1.4,1.4s-1.4-0.6-1.4-1.4s0.6-1.4,1.4-1.4S221.2,79.6,221.2,80.4z"/>
		<path class="st2" d="M177,79.4c0,2,1.7,3.7,3.7,3.7c0.6,0,1.1-0.5,1.1-1.1c0-0.6-0.5-1.1-1.1-1.1c-0.8,0-1.4-0.6-1.4-1.4
			s0.6-1.4,1.4-1.4s1.4,0.6,1.4,1.4c0,0.6,0.5,1.1,1.1,1.1s1.1-0.5,1.1-1.1c0-2-1.7-3.7-3.7-3.7C178.6,75.8,177,77.4,177,79.4z"/>
		<path class="st2" d="M229.2,92.6c-0.9,0-1.7,0.2-2.5,0.4c-3.1-7.6-11.4-7.1-11.7-7.1c-2-4-5.7-6.9-10.1-8c0.1-3.8,0.5-7.5,1-11
			c2.6-0.3,7.7-1.1,13-4.3c3.8-2.3,6.9-5.3,9.3-8.9c2.9-4.4,4.7-9.7,5.5-15.9c0.1-1.1-0.2-2.3-1-3.1c-0.8-0.8-1.9-1.3-3-1.2
			c-0.3,0-7.2,0.5-14.2,4.3c-4.9,2.6-9,6.9-11.9,12.5c-0.6-1.2-1.2-2.3-1.9-3.4c-2.4-3.7-5.5-6.7-9.3-8.9
			c-7.2-4.3-14.3-4.4-14.6-4.4c-0.5,0-1.8,0-3,1.1c-0.7,0.8-1.2,1.8-1.1,2.8c0.2,5.1,1.3,9.7,3.4,13.7c0.3,0.5,1,0.8,1.5,0.5
			c0.5-0.3,0.8-1,0.5-1.5c-2-3.7-3-7.9-3.2-12.7c0-0.4,0.2-0.9,0.5-1.2c0.5-0.5,1-0.5,1.4-0.5c0.3,0,6.7,0,13.4,4.1
			c3.5,2.1,6.4,4.9,8.6,8.2c1,1.5,1.8,3.1,2.6,4.8c-0.4,0.9-0.7,1.8-1.1,2.7c-0.2,0.7-0.5,1.4-0.7,2.4l-3.5-3.4l-1.5-7.7
			c-0.1-0.6-0.7-1-1.3-0.9c-0.6,0.1-1,0.7-0.9,1.3l0.9,4.5l-3.2-3.2l-1.6-7.8c-0.1-0.6-0.7-1-1.3-0.9c-0.6,0.1-1,0.7-0.9,1.3
			l0.9,4.6l-7.6-7.4c-0.4-0.4-1.2-0.4-1.6,0c-0.4,0.4-0.4,1.2,0,1.6l8.3,8.1l-5.8-0.1c-0.6,0-1.1,0.5-1.1,1.1c0,0.6,0.5,1.1,1.1,1.1
			l8.2,0.1l3.9,3.8l-5.9-0.1c-0.6,0-1.1,0.5-1.1,1.1c0,0.6,0.5,1.1,1.1,1.1l8.3,0.1l4,3.9c-0.3,1.1-0.5,2.3-0.8,3.6
			c-2.4-0.5-5.8-1.5-9.2-3.4c-1.7-0.9-3.3-2-4.7-3.2c-0.5-0.4-1.2-0.3-1.6,0.1c-0.4,0.5-0.3,1.2,0.1,1.6c1.5,1.3,3.3,2.4,5.1,3.4
			c3.7,2,7.3,3,9.9,3.6c-0.5,3.3-0.9,7.2-1,11.6c-4.3,1.1-7.9,3.9-9.9,7.9c-0.3,0-8.2-0.9-11.7,7.1c-0.8-0.3-1.6-0.4-2.5-0.4
			c-3.9,0-7.1,3.2-7.1,7.1c0,3.9,3.2,7.1,7.1,7.1c1.5,0,3-0.5,4.3-1.4c2.2,2.7,5.5,4.2,9,4.2c2.9,0,5.7-1.1,7.8-3
			c2.1,1,4.3,1.5,6.7,1.5s4.6-0.5,6.7-1.5c2.2,1.9,4.9,3,7.8,3c3.5,0,6.8-1.6,9-4.2c1.2,0.9,2.7,1.4,4.3,1.4c3.9,0,7.1-3.2,7.1-7.1
			C236.3,95.8,233.1,92.6,229.2,92.6z M203.5,56.5c2.6-7.6,7.3-13.5,13.1-16.6c6.6-3.5,13-4,13.3-4c0.5,0,0.9,0.2,1.3,0.5
			c0.3,0.3,0.5,0.8,0.4,1.3c-0.7,5.8-2.4,10.8-5.1,14.9c-2.2,3.4-5.1,6.1-8.6,8.2c-5.7,3.4-11.3,4-12.9,4c-0.5,0-1,0.4-1,0.9
			c-0.7,3.8-1.1,7.8-1.2,11.9c-0.4,0-0.9-0.1-1.3-0.1c-0.5,0-0.9,0-1.4,0.1C200.4,66.6,202.5,59.2,203.5,56.5z M229.2,104.5
			c-1.4,0-2.7-0.6-3.6-1.6c-0.2-0.3-0.6-0.4-0.9-0.4c-0.3,0-0.7,0.2-0.9,0.5c-1.8,2.7-4.7,4.3-7.9,4.3c-2.6,0-5-1-6.8-2.9
			c-0.2-0.2-0.5-0.3-0.8-0.3c-0.2,0-0.4,0-0.5,0.1c-1.9,1.1-4.1,1.6-6.3,1.6c-2.2,0-4.4-0.6-6.3-1.6c-0.4-0.2-1-0.2-1.4,0.2
			c-1.8,1.9-4.2,2.9-6.8,2.9c-3.2,0-6.2-1.6-7.9-4.3c-0.2-0.3-0.5-0.5-0.9-0.5c-0.3,0-0.7,0.1-0.9,0.4c-0.9,1-2.2,1.6-3.6,1.6
			c-2.7,0-4.8-2.2-4.8-4.8s2.2-4.8,4.8-4.8c0.9,0,1.8,0.2,2.5,0.7c0.3,0.2,0.7,0.2,1,0.1c0.3-0.1,0.6-0.4,0.7-0.7
			c1.2-4,4.9-6.7,9.1-6.7c0.5,0,0.9,0,1.4,0.1c0.5,0.1,1-0.2,1.2-0.7c2.1-4.7,6.7-7.8,11.9-7.8s9.8,3.1,11.9,7.8
			c0.2,0.5,0.7,0.7,1.2,0.7c0.5-0.1,0.9-0.1,1.4-0.1c4.2,0,7.9,2.7,9.1,6.7c0.1,0.3,0.4,0.6,0.7,0.7c0.3,0.1,0.7,0.1,1-0.1
			c0.8-0.5,1.6-0.7,2.5-0.7c2.7,0,4.8,2.2,4.8,4.8C234.1,102.3,231.9,104.5,229.2,104.5z"/>
	</g>
	<path class="st8" d="M49.4,89.6c-3.9,0-4.7,3.5-9.7,3.5s-5.8-3.5-9.7-3.5h-1c-3.8,0-6.9,3-6.9,6.8c0,2,0.9,3.9,2.4,5.3
		c8.7,7.6,21.7,7.6,30.5,0c2.9-2.5,3.1-6.9,0.6-9.8c-1.3-1.5-3.2-2.3-5.2-2.3H49.4z"/>
	<path class="st7" d="M2.4,107.4l2.6-5.1c2.3-4.2,6.4-6.9,11.2-7.4l16.9-1.6c3.4-0.3,6.9,0.6,9.7,2.6l15.5,11.2L2.4,107.4z"/>
	<path class="st8" d="M74.5,107.4l8.7-7.7c11.8-10.3,24.3-3.7,34.9-5.1c26-3.3,28.5-4.2,35.3-2.8c18.3,3.4,20,4.1,25.2,3.8
		c26.2-1.4-11.2-0.8,4.2,11.1L74.5,107.4z"/>
	<path class="st2" d="M58.7,110h-56c-1.4,0-2.6-1.2-2.6-2.6c0-0.4,0.1-0.9,0.3-1.3l2.6-5c2.7-4.9,7.7-8.2,13.3-8.7l16.9-1.6
		c4.1-0.3,8.1,0.8,11.4,3.1l15.5,11.2c1.2,0.8,1.4,2.5,0.6,3.7C60.2,109.6,59.5,110,58.7,110L58.7,110z M7.1,104.8h43.5l-9-6.5
		c-2.3-1.6-5.1-2.4-7.9-2.1l-16.9,1.6c-3.8,0.4-7.3,2.6-9.1,6L7.1,104.8z"/>
	<path class="st2" d="M248.6,110H58.7c-1.4,0-2.6-1.2-2.6-2.6c0-1.4,1.2-2.6,2.6-2.6h189.9c1.4,0,2.6,1.2,2.6,2.6
		C251.2,108.8,250,110,248.6,110z"/>
	<path class="st9" d="M143.8,94.1c-32.9,4.3-24.1,3.9-42.8,2.4c-5.7-0.4-11.4,1.5-15.7,5.2l-3.6,3H219c0,0,0,0,0,0l-46-3.4l1.4-3.2
		c-4.2-0.3-8.7-1.4-21.1-3.8C150.1,93.8,146.9,93.7,143.8,94.1z"/>
	<path class="st2" d="M218.9,104.7C218.9,104.7,218.9,104.7,218.9,104.7l-137.2,0l3.6-3c4.3-3.8,10-5.7,15.7-5.2
		c18.7,1.5,9.8,1.8,42.8-2.4c3.1-0.4,6.3-0.3,9.4,0.3c12.4,2.4,19.2,1,23.4,1.4l-0.6-2.7c-1.8-0.6-2.6-0.6-4.3-0.5
		c-17.5,1.5-21.2-4.6-28.5-3.6c-32.3,4.2-23.7,3.8-41.7,2.4c-7.2-0.6-14.3,1.8-19.7,6.5l-8.7,7.6c-0.6,0.5-0.9,1.2-0.9,2
		c0,1.4,1.2,2.6,2.6,2.6h157.2c1.1,0.1,2.2-0.6,2.6-1.7c0.5-1.3-0.1-2.9-1.5-3.4l-0.2-0.1l-10.6,0.2L218.9,104.7z"/>
</g>
</svg>
