<?xml version="1.0" encoding="utf-8"?>
<!-- Generator: Adobe Illustrator 25.0.0, SVG Export Plug-In . SVG Version: 6.00 Build 0)  -->
<svg version="1.1" id="Layer_1" xmlns="http://www.w3.org/2000/svg" xmlns:xlink="http://www.w3.org/1999/xlink" x="0px" y="0px"
	 viewBox="0 0 208.7 110" style="enable-background:new 0 0 208.7 110;" xml:space="preserve">
<style type="text/css">
	.st0{fill:#F6C560;}
	.st1{opacity:4.000000e-02;}
	.st2{fill:#35414D;}
	.st3{fill:#FF6666;}
	.st4{fill:#FF7D97;}
	.st5{fill:#495D85;}
	.st6{fill:#E9EEF0;}
	.st7{fill:#ADF3FF;}
</style>
<g>
	<g>
		<g>
			<g>
				<g>
					<path class="st0" d="M152.5,7.9v84.3c0,3.3-2.5,6-5.3,6H7.4c-3.1,0-5.3-2.7-5.3-6V7.9c0-3.3,2.5-5.6,5.3-5.6h139.4
						C150,2.2,152.5,4.9,152.5,7.9L152.5,7.9z"/>
				</g>
				<g class="st1">
					<path d="M152.5,7.9v84.3c0,3.3-2.5,6-5.3,6H7.4c-2.8,0-5.3-2.7-5.3-6v-6.6h53.6c44.8,0,81.8-36.8,84.9-83.6h6.6
						C150,2.2,152.5,4.9,152.5,7.9L152.5,7.9z"/>
				</g>
			</g>
			<path class="st2" d="M7.4,100.4c-4.2,0-7.4-3.6-7.4-8.2V7.9C0,3.5,3.3,0,7.4,0h139.4c2.2,0,4.4,0.9,5.5,2.2c1.2,1.6,2,3.7,2,5.6
				v84.3c0,4.6-3.3,8.2-7.4,8.2H7.4z M4.2,92.2c0,1.8,1.3,3.8,3.2,3.8h139.4c2.2,0,3.6-1.5,3.6-3.8V7.1L83.9,56.4
				c-2.2,1.6-4.5,2.5-6.9,2.5c-2.3,0-4.9-0.9-6.9-2.4L4.2,7V92.2z M72.3,52.9c1.4,0.9,3,1.4,4.6,1.4c1.6,0,3.2-0.5,4.6-1.4
				l65.1-48.5h-16.6L130,4.5c-1,0.1-5.4,0.2-21.5,0.2c0,0,0,0,0,0C83.9,4.7,47,4.4,46.6,4.4H7.2L72.3,52.9z"/>
		</g>
		<polygon class="st0" points="49.4,44.7 56.4,36.6 69,46.4 74.4,50 99.3,37.7 104.2,46 95.3,52.8 81.2,64.7 58.9,52.8 		"/>
		<g>
			<g>
				<path class="st2" d="M103.5,47.4c-0.4-1.1-1-2.2-1.7-3.1c-0.5-0.7-1.1-1.4-1.7-2c-0.5-0.5-1-0.9-1.5-1.2c-0.5-0.4-1-0.7-1.6-1
					c-0.5-0.3-1.1-0.6-1.7-0.8c-0.3-0.1-0.5-0.2-0.8-0.2c-0.3-0.1-0.5-0.1-0.8-0.2c-0.3-0.1-0.6-0.1-0.9-0.1c-0.1,0-0.1,0-0.2,0
					c-0.1,0-0.1,0-0.2,0c-0.2,0-0.4,0-0.6,0c0,0,0,0,0,0c0,0-0.1,0-0.2,0c-0.9,0-4.5,0.1-7.2,2.5c-0.2,0.2-0.5,0.4-0.7,0.7
					c-0.8,0.7-1.6,1.7-2.4,2.7c-2.3,2.8-3.9,5.5-3.9,5.5c0,0,0,0,0,0c-1.7-2.6-3.8-5.6-6.5-8.2c-0.3-0.3-0.6-0.6-0.9-0.8
					c-0.5-0.4-1.1-0.7-1.6-1c-0.1,0-0.2-0.1-0.2-0.1c-0.6-0.3-1.1-0.5-1.7-0.7c-0.5-0.1-1-0.3-1.5-0.3c-0.4-0.1-0.8-0.1-1.2-0.1
					c-0.2,0-0.5,0-0.7,0c-0.1,0-0.1,0-0.1,0c-0.4,0-0.8,0-1.3,0.1c-0.4,0.1-0.8,0.1-1.2,0.2c-0.4,0.1-0.8,0.2-1.2,0.4
					c-0.4,0.1-0.8,0.3-1.1,0.5c-0.4,0.2-0.7,0.4-1.1,0.6c-0.4,0.2-0.7,0.5-1,0.7c-0.3,0.3-0.7,0.6-1,0.9c-0.1,0.1-0.3,0.3-0.4,0.4
					c-0.2,0.2-0.4,0.4-0.6,0.6c-0.1,0.1-0.2,0.2-0.2,0.3c0,0.1-0.1,0.1-0.1,0.2c0,0,0,0-0.1,0.1c0,0-0.1,0.1-0.1,0.1
					c-0.1,0.2-0.2,0.3-0.3,0.5c-0.2,0.3-0.4,0.7-0.6,1c-0.2,0.4-0.4,0.8-0.7,1.2c-0.1,0.2-0.2,0.4-0.3,0.7c0,0,0,0,0,0.1
					c-0.1,0.2-0.2,0.4-0.3,0.6c0,0,0,0.1,0,0.1c-0.1,0.2-0.2,0.4-0.2,0.6c0,0,0,0.1,0,0.1c-0.1,0.3-0.2,0.5-0.3,0.8
					c-0.1,0.2-0.1,0.4-0.2,0.6c0,0,0,0,0,0c0,0.2-0.1,0.4-0.1,0.6c0,0,0,0.1,0,0.1c-1,5-0.8,11.9,5.5,17.6c0.2,0.2,0.5,0.4,0.7,0.6
					c0.2,0.2,0.5,0.3,0.7,0.5c0.2,0.1,0.5,0.3,0.7,0.4c0.2,0.1,0.5,0.2,0.7,0.3c0.2,0.1,0.5,0.2,0.7,0.2c0.2,0.1,0.5,0.1,0.7,0.2
					c0.6,0.2,1.3,0.2,1.9,0.3c0.7,0,1.3,0,2,0c0.6-0.1,1.1-0.2,1.6-0.3c0.2,0,0.4-0.1,0.6-0.2c0.2-0.1,0.4-0.1,0.7-0.2
					c0.2-0.1,0.5-0.2,0.7-0.3c0.2-0.1,0.5-0.2,0.7-0.3c0.2-0.1,0.5-0.2,0.7-0.4c0.2-0.1,0.4-0.3,0.7-0.4c0.2-0.2,0.4-0.3,0.6-0.5
					c0.1-0.1,0.2-0.1,0.2-0.2c0.1-0.1,0.1-0.2,0.2-0.2c1.5-1.4,4.4-5.4,6.5-8.3c0,0.1,0.6,1,0.7,1.1c0.3,0.4,0.5,0.7,0.8,1.1
					c0.4,0.6,0.9,1.2,1.3,1.8c0.9,1.2,1.9,2.5,3,3.6c0.7,0.8,1.5,1.4,2.4,2c2.7,1.7,6,2.2,9.1,1.4c0.6-0.2,1.2-0.4,1.8-0.7
					c2-0.9,3.6-2.4,4.9-4.2c2.9-4.2,4-9.5,3-14.6C104.3,49.8,103.9,48.6,103.5,47.4z M68.1,62.9c-0.1,0.1-0.3,0.2-0.4,0.4
					c-0.1,0.1-0.2,0.2-0.3,0.2c-1,0.7-2.3,1-3.5,1.1c-0.9,0.1-1.8,0-2.7-0.2c-0.1,0-0.2-0.1-0.4-0.1c-0.1,0-0.2-0.1-0.3-0.1
					c-0.2-0.1-0.3-0.1-0.5-0.2c-0.2-0.1-0.3-0.2-0.4-0.3c-0.1-0.1-0.3-0.2-0.4-0.3c-0.1-0.1-0.3-0.2-0.4-0.3
					c-0.1-0.1-0.3-0.2-0.4-0.3c-0.1-0.1-0.3-0.2-0.4-0.4c-0.1-0.1-0.2-0.3-0.4-0.4c-0.1-0.1-0.2-0.3-0.3-0.4
					c-0.1-0.1-0.2-0.3-0.3-0.4c-0.1-0.2-0.2-0.3-0.3-0.5c-0.1-0.2-0.2-0.3-0.3-0.5c-0.1-0.2-0.2-0.3-0.3-0.5
					c-0.1-0.2-0.2-0.4-0.2-0.5c-0.1-0.2-0.1-0.4-0.2-0.6c-0.1-0.2-0.1-0.4-0.2-0.6c-0.1-0.2-0.1-0.4-0.1-0.6c0-0.2-0.1-0.4-0.1-0.6
					c0-0.2-0.1-0.4-0.1-0.6c0-0.2,0-0.4-0.1-0.6c0-0.2,0-0.4,0-0.6c0-0.1,0-0.2,0-0.2c0-6.3,5.7-12.9,12.1-8.9
					c1,0.6,1.9,1.5,2.6,2.5c1.6,2.1,3.2,4.2,4.6,6.4c-0.7,1.1-1.5,2.2-2.2,3.3c-0.6,0.9-1.3,1.8-2,2.7
					C69.5,61.5,68.9,62.3,68.1,62.9z M95.6,63.8c-1.1,0.6-2.3,0.9-3.1,1c-0.8,0.1-1.6,0.1-2.3-0.1c-0.8-0.2-1.5-0.4-2.2-0.9
					c-0.7-0.4-1.3-1-1.9-1.6c-0.4-0.5-0.9-1-1.3-1.5c-0.5-0.6-0.9-1.2-1.4-1.8c-0.5-0.7-1-1.4-1.5-2.1c-0.1-0.1-0.2-0.3-0.3-0.5
					c-0.3-0.5-0.6-1-1-1.5c1.8-2.7,3.6-5.5,5.9-7.9c0.8-0.8,1.8-1.5,2.9-1.8l0,0c1.6-0.5,3.5-0.5,5.1,0.2c1.1,0.5,2.1,1.2,2.9,2.2
					c1.7,2,2.6,4.7,2.6,7.3C100,58.7,98.2,62.1,95.6,63.8z"/>
			</g>
			<path class="st3" d="M102.8,45.4c-0.4-1.1-1-2.2-1.7-3.1c-0.5-0.7-1.1-1.4-1.7-2c-0.5-0.5-1-0.9-1.5-1.2c-0.5-0.4-1-0.7-1.6-1
				c-0.5-0.3-1.1-0.6-1.7-0.8c-0.3-0.1-0.5-0.2-0.8-0.2c-0.3-0.1-0.5-0.1-0.8-0.2c-0.3-0.1-0.6-0.1-0.9-0.1c-0.1,0-0.1,0-0.2,0
				c-0.1,0-0.1,0-0.2,0c-0.2,0-0.4,0-0.6,0c0,0,0,0,0,0c0,0-0.1,0-0.2,0c-0.9,0-4.5,0.1-7.2,2.5c-0.2,0.2-0.5,0.4-0.7,0.7
				c-0.8,0.7-1.6,1.7-2.4,2.7c-2.3,2.8-3.9,5.5-3.9,5.5c0,0,0,0,0,0c-1.7-2.6-3.8-5.6-6.5-8.2c-0.3-0.3-0.6-0.6-0.9-0.8
				c-0.5-0.4-1.1-0.7-1.6-1c-0.1,0-0.2-0.1-0.2-0.1c-0.6-0.3-1.1-0.5-1.7-0.7c-0.5-0.1-1-0.3-1.5-0.3c-0.4-0.1-0.8-0.1-1.2-0.1
				c-0.2,0-0.5,0-0.7,0c-0.1,0-0.1,0-0.1,0c-0.4,0-0.8,0-1.3,0.1c-0.4,0.1-0.8,0.1-1.2,0.2c-0.4,0.1-0.8,0.2-1.2,0.4
				c-0.4,0.1-0.8,0.3-1.1,0.5c-0.4,0.2-0.7,0.4-1.1,0.6c-0.4,0.2-0.7,0.5-1,0.7c-0.3,0.3-0.7,0.6-1,0.9c-0.1,0.1-0.3,0.3-0.4,0.4
				c-0.2,0.2-0.4,0.4-0.6,0.6c-0.1,0.1-0.2,0.2-0.2,0.3c0,0.1-0.1,0.1-0.1,0.2c0,0,0,0-0.1,0.1c0,0-0.1,0.1-0.1,0.1
				c-0.1,0.2-0.2,0.3-0.3,0.5c-0.2,0.3-0.4,0.7-0.6,1c-0.2,0.4-0.4,0.8-0.7,1.2c-0.1,0.2-0.2,0.4-0.3,0.7c0,0,0,0,0,0.1
				c-0.1,0.2-0.2,0.4-0.3,0.6c0,0,0,0.1,0,0.1c-0.1,0.2-0.2,0.4-0.2,0.6c0,0,0,0.1,0,0.1c-0.1,0.3-0.2,0.5-0.3,0.8
				c-0.1,0.2-0.1,0.4-0.2,0.6c0,0,0,0,0,0c0,0.2-0.1,0.4-0.1,0.6c0,0,0,0.1,0,0.1c-1,5-0.8,11.9,5.5,17.6c0.2,0.2,0.5,0.4,0.7,0.6
				c0.2,0.2,0.5,0.3,0.7,0.5c0.2,0.1,0.5,0.3,0.7,0.4c0.2,0.1,0.5,0.2,0.7,0.3c0.2,0.1,0.5,0.2,0.7,0.2c0.2,0.1,0.5,0.1,0.7,0.2
				c0.6,0.2,1.3,0.2,1.9,0.3c0.7,0,1.3,0,2,0c0.6-0.1,1.1-0.2,1.6-0.3c0.2,0,0.4-0.1,0.6-0.2c0.2-0.1,0.4-0.1,0.7-0.2
				c0.2-0.1,0.5-0.2,0.7-0.3c0.2-0.1,0.5-0.2,0.7-0.3c0.2-0.1,0.5-0.2,0.7-0.4c0.2-0.1,0.4-0.3,0.7-0.4c0.2-0.2,0.4-0.3,0.6-0.5
				c0.1-0.1,0.2-0.1,0.2-0.2c0.1-0.1,0.1-0.2,0.2-0.2c1.5-1.4,4.4-5.4,6.5-8.3c0,0.1,0.6,1,0.7,1.1c0.3,0.4,0.5,0.7,0.8,1.1
				c0.4,0.6,0.9,1.2,1.3,1.8c0.9,1.2,1.9,2.5,3,3.6c0.7,0.8,1.5,1.4,2.4,2c2.7,1.7,6,2.2,9.1,1.4c0.6-0.2,1.2-0.4,1.8-0.7
				c2-0.9,3.6-2.4,4.9-4.2c2.9-4.2,4-9.5,3-14.6C103.6,47.8,103.2,46.6,102.8,45.4z M67.4,60.9c-0.1,0.1-0.3,0.2-0.4,0.4
				c-0.1,0.1-0.2,0.2-0.3,0.2c-1,0.7-2.3,1-3.5,1.1c-0.9,0.1-1.8,0-2.7-0.2c-0.1,0-0.2-0.1-0.4-0.1c-0.1,0-0.2-0.1-0.3-0.1
				c-0.2-0.1-0.3-0.1-0.5-0.2c-0.2-0.1-0.3-0.2-0.4-0.3c-0.1-0.1-0.3-0.2-0.4-0.3c-0.1-0.1-0.3-0.2-0.4-0.3
				c-0.1-0.1-0.3-0.2-0.4-0.3c-0.1-0.1-0.3-0.2-0.4-0.4c-0.1-0.1-0.2-0.3-0.4-0.4c-0.1-0.1-0.2-0.3-0.3-0.4
				c-0.1-0.1-0.2-0.3-0.3-0.4c-0.1-0.2-0.2-0.3-0.3-0.5c-0.1-0.2-0.2-0.3-0.3-0.5c-0.1-0.2-0.2-0.3-0.3-0.5
				c-0.1-0.2-0.2-0.4-0.2-0.5c-0.1-0.2-0.1-0.4-0.2-0.6c-0.1-0.2-0.1-0.4-0.2-0.6c-0.1-0.2-0.1-0.4-0.1-0.6c0-0.2-0.1-0.4-0.1-0.6
				c0-0.2-0.1-0.4-0.1-0.6c0-0.2,0-0.4-0.1-0.6c0-0.2,0-0.4,0-0.6c0-0.1,0-0.2,0-0.2c0-6.3,5.7-12.9,12.1-8.9c1,0.6,1.9,1.5,2.6,2.5
				c1.6,2.1,3.2,4.2,4.6,6.4c-0.7,1.1-1.5,2.2-2.2,3.3c-0.6,0.9-1.3,1.8-2,2.7C68.8,59.5,68.1,60.3,67.4,60.9z M94.8,61.7
				c-1.1,0.6-2.3,0.9-3.1,1c-0.8,0.1-1.6,0.1-2.3-0.1c-0.8-0.2-1.5-0.4-2.2-0.9c-0.7-0.4-1.3-1-1.9-1.6c-0.4-0.5-0.9-1-1.3-1.5
				c-0.5-0.6-0.9-1.2-1.4-1.8c-0.5-0.7-1-1.4-1.5-2.1c-0.1-0.1-0.2-0.3-0.3-0.5c-0.3-0.5-0.6-1-1-1.5c1.8-2.7,3.6-5.5,5.9-7.9
				c0.8-0.8,1.8-1.5,2.9-1.8l0,0c1.6-0.5,3.5-0.5,5.1,0.2c1.1,0.5,2.1,1.2,2.9,2.2c1.7,2,2.6,4.7,2.6,7.3
				C99.3,56.7,97.4,60.1,94.8,61.7z"/>
		</g>
	</g>
	<g>
		<path class="st4" d="M144.6,64.4l10,17.3c-4.5,2.6-9.8,5.7-14.4,8.3c-4.8,2.8-10.9,1.1-13.6-3.7c-2.7-4.7-1.2-10.9,3.7-13.6
			L144.6,64.4z"/>
		<path class="st4" d="M191.7,70c1.3,2.2-0.3,4.9-2.8,5l-1.9,0.4l0-0.2L165.5,38l-0.1-0.1l1.2-1.5c1.3-2.2,4.5-2.1,5.7,0.1
			C205.5,94,163.6,21.4,191.7,70z"/>
		<path class="st5" d="M158,100.8c1.4,2.4,0.6,5.4-1.8,6.8c-2.4,1.4-5.4,0.6-6.8-1.8L140.2,90l8.6-5C148.9,85.1,158,100.8,158,100.8
			z"/>
		<path class="st6" d="M186.4,47.5l3.3,5.8l-4.1,6.2L179,48L186.4,47.5z"/>
		<path class="st7" d="M186.9,75.1l0,0.2l-32.4,6.4l-10-17.3l20.8-26.5l0.1,0.1L186.9,75.1z"/>
		<path class="st2" d="M146.3,80.7c0.8-0.5,1.1-1.5,0.6-2.3c-0.5-0.8-1.5-1.1-2.3-0.6c-0.8,0.5-1.1,1.5-0.6,2.3
			C144.5,80.9,145.5,81.1,146.3,80.7z"/>
		<path class="st2" d="M139.5,92.2l8.4,14.5c1.8,3.1,5.9,4.3,9.1,2.4c3.2-1.8,4.3-5.9,2.4-9.1l-5-8.6l4.3-2.5
			c0.8-0.5,1.1-1.5,0.6-2.3l-2.2-3.7c0.3-0.1,2-0.4,31.9-6.3c3.7-0.2,5.9-4.2,4-7.5l-5.5-9.6l3.5-5.4c0.3-0.5,0.4-1.2,0.1-1.7
			l-3.3-5.8c-0.3-0.5-0.9-0.9-1.5-0.8l-6.4,0.4l-6.1-10.6c-0.9-1.5-2.5-2.5-4.3-2.5c0,0,0,0-0.1,0c-1.7,0-3.3,0.9-4.2,2.3
			l-21.7,27.7l-14.1,8.2c-5.6,3.2-7.5,10.3-4.3,15.9C128,92.3,134.2,94.3,139.5,92.2z M156.5,101.7c0.9,1.6,0.4,3.6-1.2,4.5
			c-1.6,0.9-3.6,0.4-4.5-1.2l-8.3-14.4l5.8-3.3C157.8,103.9,156.4,101.4,156.5,101.7z M152.8,88.5l-1.7-2.9l2.9-1.7l1.7,2.9
			L152.8,88.5z M185.5,49.2l2.3,4l-2.1,3.1l-4-6.9L185.5,49.2z M168,37.2c0.4-0.7,1.2-0.8,1.4-0.8c0.3,0,1,0.1,1.4,0.8l19.4,33.5
			c0.6,1.1-0.1,2.5-1.4,2.5c-0.2,0-0.3,0-0.9,0.2L167.4,38C167.9,37.4,167.9,37.4,168,37.2z M165.2,40.8l19.2,33.3l-29,5.7
			l-8.8-15.3L165.2,40.8z M128,85.5c-0.7-1.3-1.1-2.7-1.1-4.2c0-3,1.6-5.7,4.2-7.2l13-7.5l8.3,14.4l-13,7.5
			C135.4,90.8,130.3,89.5,128,85.5z"/>
		<path class="st2" d="M141.2,81.7c-0.5-0.8-1.5-1.1-2.3-0.6l-2.9,1.7c-0.8,0.5-1.8,0.2-2.3-0.6c-0.5-0.8-1.5-1.1-2.3-0.6
			c-0.8,0.5-1.1,1.5-0.6,2.3c1.4,2.4,4.4,3.2,6.8,1.8l2.9-1.7C141.4,83.5,141.6,82.5,141.2,81.7z"/>
		<path class="st2" d="M206.2,36.7l-9.3,5.2c-0.8,0.4-1.1,1.5-0.6,2.3c0.4,0.8,1.5,1.1,2.3,0.6l9.3-5.2c0.8-0.4,1.1-1.5,0.6-2.3
			C208.1,36.5,207,36.2,206.2,36.7z"/>
		<path class="st2" d="M205.3,53.9l-6.4-1.7c-0.9-0.2-1.8,0.3-2,1.2s0.3,1.8,1.2,2l6.4,1.7c0.9,0.2,1.8-0.3,2-1.2
			C206.7,55.1,206.2,54.1,205.3,53.9z"/>
		<path class="st2" d="M189.1,30.6l-1.7,6.4c-0.2,0.9,0.3,1.8,1.2,2c0.9,0.2,1.8-0.3,2-1.2l1.7-6.4c0.2-0.9-0.3-1.8-1.2-2
			C190.3,29.2,189.4,29.7,189.1,30.6z"/>
	</g>
</g>
</svg>
