<?xml version="1.0" encoding="utf-8"?>
<!-- Generator: Adobe Illustrator 25.0.0, SVG Export Plug-In . SVG Version: 6.00 Build 0)  -->
<svg version="1.1" id="Layer_1" xmlns="http://www.w3.org/2000/svg" xmlns:xlink="http://www.w3.org/1999/xlink" x="0px" y="0px"
	 viewBox="0 0 395.9 200" style="enable-background:new 0 0 395.9 200;" xml:space="preserve">
<style type="text/css">
	.st0{fill:#F6C560;}
	.st1{opacity:4.000000e-02;}
	.st2{fill:#35414D;}
	.st3{fill:#FF7043;}
	.st4{fill:none;stroke:#35414D;stroke-width:8;stroke-miterlimit:10;}
	.st5{fill:#FF3B65;}
	.st6{opacity:0.75;fill:#D82B50;enable-background:new    ;}
	.st7{fill:#FF8098;}
	.st8{fill:#35414D;stroke:#35414D;stroke-width:1.0967;stroke-miterlimit:10;}
	.st9{fill:#FF7E8E;}
	.st10{fill:#F45175;}
	.st11{fill-rule:evenodd;clip-rule:evenodd;fill:#FFFFFF;}
	.st12{fill-rule:evenodd;clip-rule:evenodd;fill:#FF5D7D;}
</style>
<g>
	<g>
		<g>
			<g>
				<path class="st0" d="M367.2,15.7v168c0,6.6-5,11.9-10.6,11.9H78.1c-6.2,0-10.6-5.3-10.6-11.9v-168c0-6.6,5-11.2,10.6-11.2h277.9
					C362.2,4.4,367.2,9.7,367.2,15.7L367.2,15.7z"/>
			</g>
			<g class="st1">
				<path d="M367.2,15.7v168c0,6.6-5,11.9-10.6,11.9H78.1c-5.6,0-10.6-5.3-10.6-11.9v-13.2h106.8c89.3,0,163-73.4,169.2-166.7h13.1
					C362.2,4.4,367.2,9.7,367.2,15.7L367.2,15.7z"/>
			</g>
		</g>
		<path class="st2" d="M78.1,200c-8.3,0-14.8-7.2-14.8-16.3v-168C63.3,7,69.9,0,78.1,0h277.9c4.5,0,8.8,1.8,10.9,4.5
			c2.5,3.2,3.9,7.4,3.9,11.2v168c0,9.1-6.5,16.3-14.8,16.3H78.1z M71.6,183.7c0,3.6,2.6,7.5,6.5,7.5h277.9c4.3,0,7.1-2.9,7.1-7.5
			V14.1l-132.5,98.4c-4.3,3.3-8.9,4.9-13.8,4.9c-4.6,0-9.7-1.8-13.8-4.9L71.6,14V183.7z M207.5,105.5c2.8,1.8,6,2.8,9.2,2.8
			s6.4-1,9.2-2.8L355.6,8.8h-33L322.4,9c-2.1,0.2-10.8,0.4-42.9,0.4c0,0,0,0,0,0c-49,0-122.6-0.6-123.4-0.6H77.7L207.5,105.5z"/>
	</g>
	<g>
		<path class="st3" d="M49.8,158v17.7c0,0.6-0.2,1.1-0.6,1.5l-12.8,12.8c-0.4,0.4-1,0.6-1.5,0.6H17.1c-0.6,0-1.1-0.2-1.5-0.6
			L2.8,177.2c-0.4-0.4-0.6-1-0.6-1.5c0-3.2,0-14.5,0-17.7c0-0.6,0.2-1.1,0.6-1.5l12.8-12.8c0.4-0.4,1-0.6,1.5-0.6h17.7
			c0.6,0,1.1,0.2,1.5,0.6l12.8,12.8C49.6,156.9,49.8,157.4,49.8,158z M27.9,153.8c0-0.1,0-0.2,0-0.2c0-1-0.8-1.9-1.9-1.9
			c-1.1,0-2,1-1.9,2.1l1.9,17.4L27.9,153.8z M27.1,180.9c0-0.6-0.5-1.1-1.1-1.1c-0.6,0-1.1,0.5-1.1,1.1s0.5,1.1,1.1,1.1
			C26.6,182,27.1,181.5,27.1,180.9z"/>
		<g>
			<path class="st2" d="M37.9,142.1c-0.8-0.8-1.9-1.3-3.1-1.3H17.1c-1.2,0-2.2,0.5-3.1,1.3L1.3,154.9C0.5,155.8,0,156.8,0,158
				c0,3.3,0,14.5,0,17.7c0,1.1,0.5,2.3,1.3,3.1l12.8,12.8c0.8,0.8,1.9,1.3,3.1,1.3h17.7c1.2,0,2.2-0.5,3.1-1.3l12.8-12.8
				c0.8-0.8,1.3-1.9,1.3-3.1V158c0-1.2-0.5-2.2-1.3-3.1L37.9,142.1z M47.7,175.7l-12.8,12.8l-17.7,0L4.3,175.7c0-3.3,0-14.5,0-17.7
				l12.8-12.8l17.7,0L47.7,158L47.7,175.7z"/>
			<path class="st2" d="M26,149.5c-1.2,0-2.3,0.5-3.1,1.4c-0.8,0.9-1.1,2-1,3.2l1.9,17.4c0.1,1.1,1,1.9,2.2,1.9s2-0.8,2.2-1.9
				l1.9-17.3c0-0.2,0-0.4,0-0.5C30.1,151.4,28.2,149.5,26,149.5z"/>
			<path class="st2" d="M26,177.7c-1.8,0-3.2,1.5-3.2,3.2s1.5,3.2,3.2,3.2s3.2-1.5,3.2-3.2S27.8,177.7,26,177.7z"/>
		</g>
	</g>
	<line class="st4" x1="182.4" y1="92.6" x2="69.9" y2="191.2"/>
	<line class="st4" x1="249.8" y1="92.6" x2="362.3" y2="191.2"/>
	<g>
		<path class="st5" d="M374.4,188.3l14.1-14.1c7.8-7.8,7.8-20.4,0-28.2c-7.8-7.8-20.4-7.8-28.2,0s0,0,0,0c-7.8-7.8-20.4-7.8-28.2,0
			s-7.8,20.4,0,28.2s14.1,14.1,14.1,14.1l7.2,7.2c3.8,3.8,10,3.8,13.8,0L374.4,188.3L374.4,188.3z"/>
		<path class="st6" d="M388.5,146c-0.7-0.7-1.5-1.4-2.3-2c-1.1,22.7-18.9,41-41.3,42.9l1.3,1.3l7.2,7.2c3.8,3.8,10,3.8,13.8,0
			l7.2-7.2l14.1-14.1C396.2,166.4,396.2,153.8,388.5,146L388.5,146z"/>
		<path class="st7" d="M336.8,161.3c-0.9,0-1.6-0.7-1.6-1.6c0-5.8,4.7-10.5,10.5-10.5c0.9,0,1.6,0.7,1.6,1.6c0,0.9-0.7,1.6-1.6,1.6
			c-4,0-7.3,3.3-7.3,7.3C338.4,160.5,337.7,161.3,336.8,161.3z"/>
		<path class="st8" d="M360.3,200c-2.9,0-5.8-1.1-8-3.3l-21.3-21.3c-8.4-8.4-8.4-22.1,0-30.5c8-8,20.9-8.4,29.3-1.1
			c8.5-7.3,21.3-7,29.3,1.1c8.4,8.4,8.4,22.1,0,30.5l-21.3,21.3C366.1,198.9,363.2,200,360.3,200z M346.2,141.8
			c-4.7,0-9.4,1.8-13,5.4c-7.1,7.1-7.1,18.8,0,25.9l21.3,21.3c3.2,3.2,8.3,3.2,11.5,0l7.2-7.2l14.1-14.1c7.1-7.1,7.1-18.8,0-25.9
			c-7.1-7.1-18.8-7.1-25.9,0c-0.6,0.6-1.7,0.6-2.3,0C355.6,143.6,350.9,141.8,346.2,141.8L346.2,141.8z"/>
	</g>
	<g>
		<g>
			<path class="st9" d="M43.8,33.1c0,6.3-7.6,26.4-22.4,23.4c-11-2.2-19.3-11.8-19.3-23.4c0-11.5,8.2-21.2,19.1-23.4
				C36,6.7,43.8,30.6,43.8,33.1z"/>
		</g>
		<g>
			<path class="st10" d="M21.4,9.7c11,2.2,19.3,11.8,19.3,23.4c0,11.6-8.3,21.3-19.3,23.4c14.8,2.9,28.5-8.5,28.5-23.4
				C49.9,18.2,36.2,6.8,21.4,9.7z"/>
		</g>
		<g>
			<path class="st2" d="M26,59.1c-14.3,0-26-11.7-26-26s11.7-26,26-26c3.2,0,6.4,0.6,9.4,1.7c1.1,0.4,1.6,1.6,1.2,2.7
				c-0.4,1.1-1.6,1.6-2.7,1.2c-2.5-1-5.2-1.5-7.9-1.5c-12,0-21.8,9.8-21.8,21.8S14,54.9,26,54.9c12,0,21.8-9.8,21.8-21.8
				c0-5.7-2.2-11.2-6.2-15.3c-0.8-0.8-0.8-2.2,0-3c0.8-0.8,2.2-0.8,3,0c4.8,4.9,7.5,11.4,7.5,18.2C52,47.5,40.3,59.1,26,59.1z"/>
		</g>
		<g>
			<g>
				<g>
					<path class="st2" d="M26.3,41.2c-3.8,0-6.9-3.7-6.9-8.2c0-4.4,3.1-7.9,7.1-7.9c3.9,0,6.7,3.3,6.7,7.9
						C33.1,37.6,30.2,41.2,26.3,41.2z M26.5,29.3c-1.4,0-2.9,1.4-2.9,3.7c0,2.4,1.4,4,2.7,4c1.3,0,2.6-1.6,2.6-4
						C28.9,30.8,27.9,29.3,26.5,29.3z"/>
				</g>
			</g>
			<g>
				<g>
					<path class="st2" d="M25.7,49.7C25.7,49.7,25.7,49.7,25.7,49.7c-7.4-0.2-13.7-5.3-15.6-12.3c-2.2-8.5,2.6-17.3,11-20
						c4.3-1.4,8.8-1,12.7,1.1c4,2.1,6.8,5.6,8.1,9.9c0.9,3.3,0.6,6.3-0.8,9.9c-1,2.4-3.3,5-7,5c-1.3,0-2.6-0.5-3.6-1.5
						c-1.1-1.1-1.7-2.6-1.7-4.2l0.1-4.6c0-1.2,1-2.1,2.1-2.1c1.2,0,2.1,1,2.1,2.1l-0.1,4.6c0,0.4,0.2,0.9,0.5,1.1
						c0.1,0.1,0.3,0.3,0.6,0.3c1.9,0,2.8-1.6,3.1-2.3c1.1-2.7,1.3-4.9,0.7-7.2c-0.9-3.1-3.1-5.7-6-7.3c-2.9-1.6-6.3-1.8-9.5-0.8
						c-6.3,2-9.9,8.5-8.2,14.9c1.4,5.3,6.2,9.1,11.6,9.2c1.2,0,2.1,1,2,2.2C27.8,48.8,26.8,49.7,25.7,49.7z"/>
				</g>
				<g>
					<path class="st2" d="M39.2,39.6c-0.3,0-0.5,0-0.8-0.1c-1.1-0.4-1.6-1.7-1.2-2.7c1.1-2.7,1.3-4.9,0.7-7.2
						c-0.3-1.1,0.4-2.3,1.5-2.6c1.1-0.3,2.3,0.4,2.6,1.5c0.9,3.2,0.6,6.2-0.8,9.8C40.8,39.1,40,39.6,39.2,39.6z"/>
				</g>
			</g>
		</g>
	</g>
	<g>
		<g id="g2359_2_" transform="translate(339.4995,332.001)">
			<g id="path2361_2_">
				<path class="st11" d="M-316.3-218.8h5.5c1.2,0,2.2-1,2.2-2.2v-6.1h6.1c1.2,0,2.2-1,2.2-2.2v-5.5c0-1.2-1-2.2-2.2-2.2h-6.1v-6.1
					c0-1.2-1-2.2-2.2-2.2h-5.5c-1.2,0-2.2,1-2.2,2.2v6.1h-6.1c-1.2,0-2.2,1-2.2,2.2v5.5c0,1.2,1,2.2,2.2,2.2h6.1v6.1
					C-318.5-219.8-317.5-218.8-316.3-218.8"/>
			</g>
		</g>
		<g id="g2363_2_" transform="translate(461.9995,392.001)">
			<g id="path2365_2_">
				<path class="st12" d="M-411.7-292c0-2.9-0.5-5.8-1.5-8.4c-3.4-9.3-12.3-15.9-22.8-15.9s-19.4,6.6-22.8,15.9
					c-1,2.6-1.5,5.4-1.5,8.4c0,13.4,10.9,24.3,24.3,24.3C-422.6-267.7-411.7-278.6-411.7-292 M-433.2-278.8h-5.5
					c-1.2,0-2.2-1-2.2-2.2v-6.1h-6.1c-1.2,0-2.2-1-2.2-2.2v-5.5c0-1.2,1-2.2,2.2-2.2h6.1v-6.1c0-1.2,1-2.2,2.2-2.2h5.5
					c1.2,0,2.2,1,2.2,2.2v6.1h6.1c1.2,0,2.2,1,2.2,2.2v5.5c0,1.2-1,2.2-2.2,2.2h-6.1v6.1C-431-279.8-432-278.8-433.2-278.8"/>
			</g>
		</g>
		<g id="g2411_2_" transform="translate(291.9995,379.5005)">
			<g id="path2413_2_">
				<path class="st2" d="M-263.2-264.5h-5.5c-2.2,0-3.9-1.8-3.9-3.9v-4.3h-4.3c-2.2,0-3.9-1.8-3.9-3.9v-5.5c0-2.2,1.8-3.9,3.9-3.9
					h4.3v-4.3c0-2.2,1.8-3.9,3.9-3.9h5.5c2.2,0,3.9,1.8,3.9,3.9v4.3h4.3c2.2,0,3.9,1.8,3.9,3.9v5.5c0,2.2-1.8,3.9-3.9,3.9h-4.3v4.3
					C-259.3-266.3-261.1-264.5-263.2-264.5z M-277-282.7c-0.3,0-0.5,0.2-0.5,0.5v5.5c0,0.3,0.2,0.5,0.5,0.5h6.1c1,0,1.7,0.8,1.7,1.7
					v6.1c0,0.3,0.2,0.5,0.5,0.5h5.5c0.3,0,0.5-0.2,0.5-0.5v-6.1c0-1,0.8-1.7,1.7-1.7h6.1c0.3,0,0.5-0.2,0.5-0.5v-5.5
					c0-0.3-0.2-0.5-0.5-0.5h-6.1c-1,0-1.7-0.8-1.7-1.7v-6.1c0-0.3-0.2-0.5-0.5-0.5h-5.5c-0.3,0-0.5,0.2-0.5,0.5v6.1
					c0,1-0.8,1.7-1.7,1.7H-277z"/>
			</g>
		</g>
		<g id="g2415_2_" transform="translate(352,282.001)">
			<g id="path2417_2_">
				<path class="st2" d="M-326-156c-14.3,0-26-11.7-26-26c0-14.3,11.7-26,26-26c14.3,0,26,11.7,26,26C-300-167.7-311.7-156-326-156z
					 M-326-204.5c-12.4,0-22.5,10.1-22.5,22.5c0,12.4,10.1,22.5,22.5,22.5s22.5-10.1,22.5-22.5C-303.5-194.4-313.6-204.5-326-204.5z
					"/>
			</g>
		</g>
	</g>
</g>
</svg>
