<?xml version="1.0" encoding="utf-8"?>
<!-- Generator: Adobe Illustrator 25.0.0, SVG Export Plug-In . SVG Version: 6.00 Build 0)  -->
<svg version="1.1" id="Layer_1" xmlns="http://www.w3.org/2000/svg" xmlns:xlink="http://www.w3.org/1999/xlink" x="0px" y="0px"
	 viewBox="0 0 233.3 160" style="enable-background:new 0 0 233.3 160;" xml:space="preserve">
<style type="text/css">
	.st0{fill:#F6C560;}
	.st1{opacity:4.000000e-02;}
	.st2{fill:#35414D;}
	.st3{fill:#FF6666;}
	.st4{fill:#57B7EB;}
	.st5{fill:#4891D3;}
	.st6{fill:#AAE1F9;}
	.st7{fill:#F8664F;}
	.st8{fill:#CC5144;}
	.st9{fill:#F89C8D;}
</style>
<g>
	<g>
		<g>
			<g>
				<g>
					<path class="st0" d="M198.3,39.7v109.7c0,4.3-3.3,7.8-6.9,7.8H9.6c-4.1,0-6.9-3.5-6.9-7.8V39.7c0-4.3,3.3-7.3,6.9-7.3H191
						C195,32.4,198.3,35.8,198.3,39.7L198.3,39.7z"/>
				</g>
				<g class="st1">
					<path d="M198.3,39.7v109.7c0,4.3-3.3,7.8-6.9,7.8H9.6c-3.7,0-6.9-3.5-6.9-7.8v-8.6h69.7c58.3,0,106.4-47.9,110.4-108.8h8.6
						C195,32.4,198.3,35.8,198.3,39.7L198.3,39.7z"/>
				</g>
			</g>
			<path class="st2" d="M9.6,160c-5.4,0-9.6-4.7-9.6-10.6V39.7c0-5.6,4.3-10.2,9.6-10.2H191c2.9,0,5.8,1.2,7.1,2.9
				c1.6,2.1,2.6,4.8,2.6,7.3v109.7c0,6-4.2,10.6-9.6,10.6H9.6z M5.4,149.4c0,2.4,1.7,4.9,4.2,4.9H191c2.8,0,4.6-1.9,4.6-4.9V38.7
				l-86.5,64.2c-2.8,2.1-5.8,3.2-9,3.2c-3,0-6.4-1.2-9-3.2L5.4,38.6V149.4z M94.1,98.3c1.8,1.2,3.9,1.8,6,1.8c2.1,0,4.2-0.6,6-1.8
				l84.7-63.1h-21.6l-0.1,0.1c-1.3,0.1-7,0.3-28,0.3c0,0,0,0,0,0c-32,0-80-0.4-80.5-0.4H9.4L94.1,98.3z"/>
		</g>
		<polygon class="st0" points="64.2,87.6 73.3,77.1 89.8,89.8 96.7,94.5 129.1,78.5 135.5,89.2 123.9,98.1 105.6,113.7 76.5,98.1 		
			"/>
		<g>
			<g>
				<path class="st2" d="M134.6,91.2c-0.6-1.4-1.3-2.8-2.1-4.1c-0.6-1-1.4-1.8-2.2-2.6c-0.6-0.6-1.2-1.1-1.9-1.6
					c-0.7-0.5-1.3-0.9-2.1-1.3c-0.7-0.4-1.5-0.7-2.2-1c-0.3-0.1-0.7-0.2-1-0.3c-0.4-0.1-0.7-0.1-1.1-0.2c-0.4-0.1-0.8-0.1-1.2-0.2
					c-0.1,0-0.2,0-0.3,0c-0.1,0-0.2,0-0.2,0c-0.3,0-0.5,0-0.8,0c0,0,0,0,0,0c0,0-0.1,0-0.2,0c-1.2,0-5.8,0.2-9.3,3.2
					c-0.3,0.3-0.6,0.6-0.9,0.9c-1,0.9-2.1,2.2-3.1,3.5c-2.9,3.6-5.1,7.1-5.1,7.1c0,0,0,0,0,0c-2.2-3.4-5-7.2-8.4-10.7
					c-0.4-0.4-0.7-0.7-1.1-1c-0.7-0.5-1.4-1-2.1-1.3c-0.1-0.1-0.2-0.1-0.3-0.2c-0.7-0.4-1.5-0.6-2.3-0.9c-0.7-0.2-1.3-0.3-2-0.4
					c-0.5-0.1-1-0.1-1.5-0.1c-0.3,0-0.6,0-0.9,0c-0.1,0-0.2,0-0.2,0c-0.5,0-1.1,0-1.6,0.1c-0.5,0.1-1.1,0.2-1.6,0.3
					c-0.5,0.1-1,0.3-1.5,0.5c-0.5,0.2-1,0.4-1.5,0.7c-0.5,0.2-1,0.5-1.4,0.8c-0.5,0.3-0.9,0.6-1.3,1c-0.4,0.3-0.8,0.7-1.2,1.1
					c-0.2,0.2-0.4,0.4-0.6,0.6c-0.3,0.3-0.5,0.6-0.8,0.8c-0.1,0.1-0.2,0.3-0.3,0.4c-0.1,0.1-0.1,0.1-0.2,0.2c0,0,0,0.1-0.1,0.1
					c0,0-0.1,0.1-0.1,0.1c-0.2,0.2-0.3,0.4-0.4,0.6c-0.3,0.4-0.6,0.9-0.8,1.3c-0.3,0.5-0.6,1-0.8,1.6c-0.1,0.3-0.3,0.6-0.4,0.9
					c0,0,0,0.1,0,0.1c-0.1,0.3-0.2,0.5-0.3,0.8c0,0,0,0.1,0,0.1c-0.1,0.3-0.2,0.5-0.3,0.8c0,0,0,0.1,0,0.1c-0.1,0.3-0.2,0.7-0.3,1.1
					c-0.1,0.3-0.2,0.5-0.2,0.8c0,0,0,0,0,0c-0.1,0.3-0.1,0.5-0.2,0.8c0,0.1,0,0.1,0,0.2c-1.3,6.5-1,15.5,7.1,22.9
					c0.3,0.3,0.6,0.5,0.9,0.7c0.3,0.2,0.6,0.4,1,0.6c0.3,0.2,0.6,0.4,1,0.5c0.3,0.1,0.6,0.3,1,0.4c0.3,0.1,0.6,0.2,0.9,0.3
					c0.3,0.1,0.6,0.2,0.9,0.2c0.8,0.2,1.7,0.3,2.5,0.4c0.9,0,1.7,0,2.6-0.1c0.7-0.1,1.4-0.2,2.1-0.4c0.3-0.1,0.6-0.1,0.8-0.2
					c0.3-0.1,0.6-0.2,0.9-0.3c0.3-0.1,0.6-0.2,0.9-0.3c0.3-0.1,0.6-0.3,0.9-0.4c0.3-0.2,0.6-0.3,0.9-0.5c0.3-0.2,0.6-0.4,0.9-0.6
					c0.3-0.2,0.6-0.4,0.8-0.7c0.1-0.1,0.2-0.2,0.3-0.3c0.1-0.1,0.2-0.2,0.3-0.3c2-1.8,5.8-7,8.4-10.8c0.1,0.1,0.8,1.2,0.9,1.4
					c0.3,0.5,0.7,1,1,1.5c0.5,0.8,1.2,1.6,1.8,2.4c1.2,1.6,2.4,3.2,3.8,4.7c1,1,2,1.9,3.2,2.6c3.5,2.2,7.9,2.8,11.8,1.8
					c0.8-0.2,1.6-0.5,2.4-0.8c2.5-1.2,4.7-3.1,6.4-5.5c3.8-5.4,5.2-12.4,3.9-19C135.6,94.3,135.2,92.7,134.6,91.2z M88.6,111.4
					c-0.2,0.2-0.4,0.3-0.6,0.5c-0.1,0.1-0.3,0.2-0.4,0.3c-1.4,0.9-2.9,1.4-4.5,1.5c-1.2,0.1-2.4,0-3.6-0.3c-0.2,0-0.3-0.1-0.5-0.1
					c-0.1,0-0.3-0.1-0.4-0.1c-0.2-0.1-0.4-0.2-0.6-0.3c-0.2-0.1-0.4-0.2-0.6-0.3c-0.2-0.1-0.4-0.2-0.6-0.4c-0.2-0.1-0.4-0.3-0.5-0.4
					c-0.2-0.1-0.3-0.3-0.5-0.4c-0.2-0.2-0.3-0.3-0.5-0.5c-0.2-0.2-0.3-0.3-0.5-0.5c-0.2-0.2-0.3-0.4-0.4-0.6
					c-0.1-0.2-0.3-0.4-0.4-0.6c-0.1-0.2-0.3-0.4-0.4-0.6c-0.1-0.2-0.2-0.4-0.4-0.6c-0.1-0.2-0.2-0.4-0.3-0.7
					c-0.1-0.2-0.2-0.5-0.3-0.7c-0.1-0.2-0.2-0.5-0.3-0.7c-0.1-0.2-0.2-0.5-0.2-0.7c-0.1-0.3-0.1-0.5-0.2-0.8
					c-0.1-0.3-0.1-0.5-0.2-0.8c0-0.3-0.1-0.5-0.1-0.8c0-0.3-0.1-0.5-0.1-0.8c0-0.3,0-0.6,0-0.8c0-0.1,0-0.2,0-0.3
					c0-8.2,7.4-16.8,15.7-11.5c1.3,0.8,2.4,1.9,3.4,3.2c2.1,2.7,4.1,5.5,6,8.3c-0.9,1.4-1.9,2.9-2.9,4.3c-0.8,1.2-1.7,2.3-2.6,3.4
					C90.4,109.5,89.6,110.5,88.6,111.4z M124.3,112.4c-1.4,0.8-2.9,1.2-4,1.3c-1,0.1-2,0.1-3-0.1c-1-0.2-2-0.6-2.8-1.1
					c-0.9-0.6-1.7-1.3-2.4-2.1c-0.6-0.6-1.1-1.3-1.7-2c-0.6-0.8-1.2-1.5-1.8-2.3c-0.7-0.9-1.3-1.8-2-2.8c-0.1-0.2-0.3-0.4-0.4-0.6
					c-0.4-0.7-0.8-1.3-1.3-2c2.3-3.5,4.7-7.2,7.6-10.2c1.1-1.1,2.4-1.9,3.8-2.3l0,0c2.1-0.6,4.5-0.7,6.6,0.2
					c1.4,0.6,2.7,1.6,3.8,2.8c2.2,2.6,3.3,6.1,3.3,9.5C130,105.8,127.7,110.2,124.3,112.4z"/>
			</g>
			<path class="st3" d="M133.7,88.6c-0.6-1.4-1.3-2.8-2.1-4.1c-0.6-1-1.4-1.8-2.2-2.6c-0.6-0.6-1.2-1.1-1.9-1.6
				c-0.7-0.5-1.3-0.9-2.1-1.3c-0.7-0.4-1.5-0.7-2.2-1c-0.3-0.1-0.7-0.2-1-0.3c-0.4-0.1-0.7-0.1-1.1-0.2c-0.4-0.1-0.8-0.1-1.2-0.2
				c-0.1,0-0.2,0-0.3,0c-0.1,0-0.2,0-0.2,0c-0.3,0-0.5,0-0.8,0c0,0,0,0,0,0c0,0-0.1,0-0.2,0c-1.2,0-5.8,0.2-9.3,3.2
				c-0.3,0.3-0.6,0.6-0.9,0.9c-1,0.9-2.1,2.2-3.1,3.5c-2.9,3.6-5.1,7.1-5.1,7.1c0,0,0,0,0,0c-2.2-3.4-5-7.2-8.4-10.7
				c-0.4-0.4-0.7-0.7-1.1-1c-0.7-0.5-1.4-1-2.1-1.3c-0.1-0.1-0.2-0.1-0.3-0.2c-0.7-0.4-1.5-0.6-2.3-0.9c-0.7-0.2-1.3-0.3-2-0.4
				c-0.5-0.1-1-0.1-1.5-0.1c-0.3,0-0.6,0-0.9,0c-0.1,0-0.2,0-0.2,0c-0.5,0-1.1,0-1.6,0.1c-0.5,0.1-1.1,0.2-1.6,0.3
				c-0.5,0.1-1,0.3-1.5,0.5c-0.5,0.2-1,0.4-1.5,0.7c-0.5,0.2-1,0.5-1.4,0.8c-0.5,0.3-0.9,0.6-1.3,1c-0.4,0.3-0.8,0.7-1.2,1.1
				c-0.2,0.2-0.4,0.4-0.6,0.6c-0.3,0.3-0.5,0.6-0.8,0.8c-0.1,0.1-0.2,0.3-0.3,0.4c-0.1,0.1-0.1,0.1-0.2,0.2c0,0,0,0.1-0.1,0.1
				c0,0-0.1,0.1-0.1,0.1c-0.2,0.2-0.3,0.4-0.4,0.6c-0.3,0.4-0.6,0.9-0.8,1.3c-0.3,0.5-0.6,1-0.8,1.6c-0.1,0.3-0.3,0.6-0.4,0.9
				c0,0,0,0.1,0,0.1c-0.1,0.3-0.2,0.5-0.3,0.8c0,0,0,0.1,0,0.1c-0.1,0.3-0.2,0.5-0.3,0.8c0,0,0,0.1,0,0.1c-0.1,0.3-0.2,0.7-0.3,1.1
				c-0.1,0.3-0.2,0.5-0.2,0.8c0,0,0,0,0,0c-0.1,0.3-0.1,0.5-0.2,0.8c0,0.1,0,0.1,0,0.2c-1.3,6.5-1,15.5,7.1,22.9
				c0.3,0.3,0.6,0.5,0.9,0.7c0.3,0.2,0.6,0.4,1,0.6c0.3,0.2,0.6,0.4,1,0.5c0.3,0.1,0.6,0.3,1,0.4c0.3,0.1,0.6,0.2,0.9,0.3
				c0.3,0.1,0.6,0.2,0.9,0.2c0.8,0.2,1.7,0.3,2.5,0.4c0.9,0,1.7,0,2.6-0.1c0.7-0.1,1.4-0.2,2.1-0.4c0.3-0.1,0.6-0.1,0.8-0.2
				c0.3-0.1,0.6-0.2,0.9-0.3c0.3-0.1,0.6-0.2,0.9-0.3c0.3-0.1,0.6-0.3,0.9-0.4c0.3-0.2,0.6-0.3,0.9-0.5c0.3-0.2,0.6-0.4,0.9-0.6
				c0.3-0.2,0.6-0.4,0.8-0.7c0.1-0.1,0.2-0.2,0.3-0.3c0.1-0.1,0.2-0.2,0.3-0.3c2-1.8,5.8-7,8.4-10.8c0.1,0.1,0.8,1.2,0.9,1.4
				c0.3,0.5,0.7,1,1,1.5c0.5,0.8,1.2,1.6,1.8,2.4c1.2,1.6,2.4,3.2,3.8,4.7c1,1,2,1.9,3.2,2.6c3.5,2.2,7.9,2.8,11.8,1.8
				c0.8-0.2,1.6-0.5,2.4-0.8c2.5-1.2,4.7-3.1,6.4-5.5c3.8-5.4,5.2-12.4,3.9-19C134.7,91.6,134.2,90.1,133.7,88.6z M87.7,108.7
				c-0.2,0.2-0.4,0.3-0.6,0.5c-0.1,0.1-0.3,0.2-0.4,0.3c-1.4,0.9-2.9,1.4-4.5,1.5c-1.2,0.1-2.4,0-3.6-0.3c-0.2,0-0.3-0.1-0.5-0.1
				c-0.1,0-0.3-0.1-0.4-0.1c-0.2-0.1-0.4-0.2-0.6-0.3c-0.2-0.1-0.4-0.2-0.6-0.3c-0.2-0.1-0.4-0.2-0.6-0.4c-0.2-0.1-0.4-0.3-0.5-0.4
				c-0.2-0.1-0.3-0.3-0.5-0.4c-0.2-0.2-0.3-0.3-0.5-0.5c-0.2-0.2-0.3-0.3-0.5-0.5c-0.2-0.2-0.3-0.4-0.4-0.6
				c-0.1-0.2-0.3-0.4-0.4-0.6c-0.1-0.2-0.3-0.4-0.4-0.6c-0.1-0.2-0.2-0.4-0.4-0.6c-0.1-0.2-0.2-0.4-0.3-0.7
				c-0.1-0.2-0.2-0.5-0.3-0.7c-0.1-0.2-0.2-0.5-0.3-0.7c-0.1-0.2-0.2-0.5-0.2-0.7c-0.1-0.3-0.1-0.5-0.2-0.8
				c-0.1-0.3-0.1-0.5-0.2-0.8c0-0.3-0.1-0.5-0.1-0.8c0-0.3-0.1-0.5-0.1-0.8c0-0.3,0-0.6,0-0.8c0-0.1,0-0.2,0-0.3
				c0-8.2,7.4-16.8,15.7-11.5c1.3,0.8,2.4,1.9,3.4,3.2c2.1,2.7,4.1,5.5,6,8.3c-0.9,1.4-1.9,2.9-2.9,4.3c-0.8,1.2-1.7,2.3-2.6,3.4
				C89.5,106.9,88.6,107.9,87.7,108.7z M123.3,109.8c-1.4,0.8-2.9,1.2-4,1.3c-1,0.1-2,0.1-3-0.1c-1-0.2-2-0.6-2.8-1.1
				c-0.9-0.6-1.7-1.3-2.4-2.1c-0.6-0.6-1.1-1.3-1.7-2c-0.6-0.8-1.2-1.5-1.8-2.3c-0.7-0.9-1.3-1.8-2-2.8c-0.1-0.2-0.3-0.4-0.4-0.6
				c-0.4-0.7-0.8-1.3-1.3-2c2.3-3.5,4.7-7.2,7.6-10.2c1.1-1.1,2.4-1.9,3.8-2.3l0,0c2.1-0.6,4.5-0.7,6.6,0.2c1.4,0.6,2.7,1.6,3.8,2.8
				c2.2,2.6,3.3,6.1,3.3,9.5C129.1,103.2,126.7,107.6,123.3,109.8z"/>
		</g>
	</g>
	<g id="Fill_Outline_5_">
		<g id="Color_4_">
			<g>
				<path class="st4" d="M173.3,63.9l1.3-19.6l57.4-17L173.3,63.9z"/>
				<path class="st5" d="M173.3,63.9L232,27.4l-53.5,26.1L173.3,63.9z"/>
				<path class="st6" d="M166.8,31.3l65.2-3.9l-57.4,17L166.8,31.3z"/>
				<path class="st6" d="M232,27.4l-53.5,26.1l14.3,11.7L232,27.4z"/>
				<path class="st7" d="M211.5,5.1c-3.1-4-8.8-4.9-13-2.2c-2.7,1.7-4.3,4.6-4.3,7.8c0-3.2-1.6-6.1-4.3-7.8c-4.3-2.8-9.9-1.8-13,2.2
					c-3.6,4.6-2.8,11.3,1.8,15l15.5,12.6L209.7,20C214.3,16.4,215.1,9.7,211.5,5.1L211.5,5.1z"/>
				<path class="st8" d="M211.5,5.1c-1.1-1.5-2.7-2.6-4.5-3.2c-1.5,11.9-10.8,21.3-22.7,22.7l9.9,8L209.7,20
					C214.3,16.4,215.1,9.7,211.5,5.1L211.5,5.1z"/>
				<path class="st9" d="M231.2,3.6c-1-1.3-2.9-1.6-4.3-0.7c-0.9,0.6-1.4,1.6-1.4,2.6c0-1.1-0.5-2-1.4-2.6c-1.4-0.9-3.3-0.6-4.3,0.7
					c-1.2,1.5-0.9,3.8,0.6,5l5.2,4.2l5.2-4.2C232.2,7.3,232.4,5.1,231.2,3.6L231.2,3.6z"/>
				<path class="st7" d="M231.2,3.6c-0.5-0.6-1.2-1.1-2-1.2c-0.6,3.8-3.5,6.8-7.2,7.6l3.4,2.8l5.2-4.2
					C232.2,7.3,232.4,5.1,231.2,3.6L231.2,3.6z"/>
				<path class="st9" d="M168.6,16.9c-1-1.3-2.9-1.6-4.3-0.7c-0.9,0.6-1.4,1.6-1.4,2.6c0-1.1-0.5-2-1.4-2.6
					c-1.4-0.9-3.3-0.6-4.3,0.7c-1.2,1.5-0.9,3.8,0.6,5l5.2,4.2l5.2-4.2C169.6,20.7,169.8,18.5,168.6,16.9z"/>
				<path class="st7" d="M168.6,16.9c-0.5-0.6-1.2-1.1-2-1.2c-0.6,3.8-3.5,6.8-7.2,7.6l3.4,2.8l5.2-4.2
					C169.6,20.7,169.8,18.5,168.6,16.9z"/>
				<path class="st9" d="M229.9,58.6c-1-1.3-2.9-1.6-4.3-0.7c-0.9,0.6-1.4,1.6-1.4,2.6c0-1.1-0.5-2-1.4-2.6
					c-1.4-0.9-3.3-0.6-4.3,0.7c-1.2,1.5-0.9,3.8,0.6,5l5.2,4.2l5.2-4.2C230.9,62.4,231.1,60.2,229.9,58.6L229.9,58.6z"/>
				<path class="st7" d="M229.9,58.6c-0.5-0.6-1.2-1.1-2-1.2c-0.6,3.8-3.5,6.8-7.2,7.6l3.4,2.8l5.2-4.2
					C230.9,62.4,231.1,60.2,229.9,58.6L229.9,58.6z"/>
			</g>
		</g>
		<g id="Outline_copy_4_">
			<g>
				<path class="st2" d="M166.1,65.4l-10.4,6.5c-0.6,0.4-0.8,1.2-0.4,1.8s1.2,0.8,1.8,0.4l10.4-6.5c0.6-0.4,0.8-1.2,0.4-1.8
					S166.7,65,166.1,65.4z"/>
				<path class="st2" d="M184.4,64.1l-9.1,5.2c-0.6,0.4-0.8,1.2-0.5,1.8c0.2,0.4,0.7,0.7,1.1,0.7c0.2,0,0.4-0.1,0.6-0.2l9.1-5.2
					c0.6-0.4,0.8-1.2,0.4-1.8C185.8,64,185,63.8,184.4,64.1L184.4,64.1z"/>
				<path class="st2" d="M168.8,51l-7.8,3.9c-0.6,0.3-0.9,1.1-0.6,1.8c0.3,0.6,1.1,0.9,1.8,0.6l0,0l7.8-3.9c0.6-0.3,0.9-1.1,0.6-1.8
					C170.2,51,169.4,50.7,168.8,51z"/>
				<path class="st2" d="M159,44.6c0.1,0.6,0.7,1,1.3,1c0.1,0,0.2,0,0.3,0l6.5-1.3c0.7-0.1,1.2-0.8,1.1-1.5
					c-0.1-0.7-0.8-1.2-1.5-1.1c0,0-0.1,0-0.1,0l-6.5,1.3C159.3,43.2,158.8,43.9,159,44.6C159,44.6,159,44.6,159,44.6z"/>
				<path class="st2" d="M218.5,48.6c-0.5-0.5-1.4-0.4-1.8,0.1l-10.4,11.7c-0.5,0.5-0.4,1.4,0.1,1.8c0.5,0.5,1.4,0.4,1.8-0.1
					l10.4-11.7C219.1,49.9,219,49.1,218.5,48.6C218.5,48.6,218.5,48.6,218.5,48.6L218.5,48.6z"/>
				<path class="st2" d="M162.9,33.9h-5.2c-0.7,0-1.3,0.6-1.3,1.3s0.6,1.3,1.3,1.3h5.2c0.7,0,1.3-0.6,1.3-1.3S163.6,33.9,162.9,33.9
					z"/>
				<path class="st2" d="M219.5,9.6l5.2,4.2c0.5,0.4,1.2,0.4,1.6,0l5.2-4.2c2.1-1.7,2.4-4.7,0.8-6.8c-1.5-1.9-4.1-2.3-6.1-1
					c-0.3,0.2-0.5,0.4-0.7,0.6c-0.2-0.2-0.5-0.4-0.7-0.6c-2-1.3-4.6-0.8-6.1,1C217,4.9,217.4,7.9,219.5,9.6z M220.7,4.3
					c0.4-0.5,0.9-0.7,1.5-0.7c0.4,0,0.8,0.1,1.1,0.3c0.5,0.3,0.8,0.9,0.8,1.5c0,0.7,0.6,1.3,1.3,1.3s1.3-0.6,1.3-1.3
					c0-0.6,0.3-1.2,0.8-1.5c0.8-0.6,2-0.4,2.6,0.4c0.8,1,0.6,2.4-0.4,3.2l-4.4,3.5l-4.4-3.5C220.1,6.7,220,5.3,220.7,4.3L220.7,4.3z
					"/>
				<path class="st2" d="M156.9,22.9l5.2,4.2c0.5,0.4,1.2,0.4,1.6,0l5.2-4.2c2.1-1.7,2.4-4.7,0.8-6.8c-1.5-1.9-4.1-2.3-6.1-1
					c-0.3,0.2-0.5,0.4-0.7,0.6c-0.2-0.2-0.5-0.4-0.7-0.6c-2-1.3-4.6-0.8-6.1,1C154.4,18.2,154.8,21.2,156.9,22.9z M158.1,17.7
					c0.4-0.5,0.9-0.7,1.5-0.7c0.4,0,0.8,0.1,1.1,0.3c0.5,0.3,0.8,0.9,0.8,1.5c0,0.7,0.6,1.3,1.3,1.3c0.7,0,1.3-0.6,1.3-1.3
					c0-0.6,0.3-1.2,0.8-1.5c0.8-0.6,2-0.4,2.6,0.4c0.8,1,0.6,2.4-0.4,3.2l-4.4,3.5l-4.4-3.5C157.5,20.1,157.4,18.7,158.1,17.7
					L158.1,17.7z"/>
				<path class="st2" d="M231,57.9c-1.5-1.9-4.1-2.3-6.1-1c-0.3,0.2-0.5,0.4-0.7,0.6c-0.2-0.2-0.5-0.4-0.7-0.6c-2-1.3-4.6-0.8-6.1,1
					c-1.6,2.1-1.3,5.1,0.8,6.8l5.2,4.2c0.5,0.4,1.2,0.4,1.6,0l5.2-4.2C232.2,63,232.6,60,231,57.9L231,57.9z M228.5,62.6l-4.4,3.5
					l-4.4-3.5c-1-0.8-1.2-2.2-0.4-3.2c0.4-0.5,0.9-0.7,1.5-0.7c0.4,0,0.8,0.1,1.1,0.3c0.5,0.3,0.8,0.9,0.8,1.5
					c0,0.7,0.6,1.3,1.3,1.3c0.7,0,1.3-0.6,1.3-1.3c0-0.6,0.3-1.2,0.8-1.5c0.8-0.6,2-0.4,2.6,0.4C229.7,60.4,229.5,61.8,228.5,62.6
					L228.5,62.6z"/>
				<path class="st2" d="M233.2,26.9c-0.2-0.5-0.7-0.8-1.3-0.8l-25.4,1.5c-0.7,0-1.3,0.7-1.2,1.4s0.7,1.3,1.4,1.2l18.9-1.1
					l-47.6,23.2c-0.2,0.1-0.3,0.2-0.4,0.3c-0.1,0.1-0.1,0.2-0.1,0.2l-2.3,4.6l0.8-12.2l37.5-11.1c0.7-0.2,1.1-0.9,0.9-1.6
					c-0.2-0.7-0.9-1.1-1.6-0.9l-37.4,11.1L169,32.5l14.8-0.9c0.7,0,1.3-0.7,1.2-1.4s-0.7-1.3-1.4-1.2l-16.9,1
					c-0.7,0-1.3,0.7-1.2,1.4c0,0.2,0.1,0.4,0.2,0.6l7.6,12.7L172,63.8c0,0.7,0.5,1.3,1.2,1.4c0.3,0,0.5,0,0.8-0.2l9.4-5.9l8.6,7.1
					c0.5,0.4,1.3,0.4,1.7-0.1l6.1-5.9c0.5-0.5,0.6-1.3,0.1-1.8c-0.5-0.5-1.3-0.6-1.8-0.1c0,0,0,0-0.1,0l-5.2,5.1l-8.4-6.9l0,0
					l-3.4-2.8l44.3-21.6l-23.4,22.6c-0.5,0.5-0.5,1.3,0,1.8c0.5,0.5,1.3,0.5,1.8,0l29.3-28.3C233.3,28,233.4,27.4,233.2,26.9
					L233.2,26.9z M181.3,57.4l-4.7,2.9l2.4-4.8L181.3,57.4z"/>
				<path class="st2" d="M184.8,6.3c-2.9,0-5.2,2.3-5.2,5.2c0,0.7,0.6,1.3,1.3,1.3s1.3-0.6,1.3-1.3c0-1.4,1.2-2.6,2.6-2.6
					c0.7,0,1.3-0.6,1.3-1.3S185.5,6.3,184.8,6.3z"/>
				<path class="st2" d="M177.8,21l4.7,3.8c0.6,0.4,1.4,0.3,1.8-0.2c0.4-0.5,0.3-1.3-0.2-1.8l-4.7-3.8c-4-3.2-4.7-9.1-1.6-13.1
					c2.7-3.5,7.6-4.3,11.3-1.9c2.3,1.5,3.7,4,3.7,6.7c0,0.7,0.6,1.3,1.3,1.3s1.3-0.6,1.3-1.3c0-2.7,1.4-5.2,3.7-6.7
					c3.7-2.4,8.6-1.6,11.3,1.9c3.2,4.1,2.4,9.9-1.6,13.1l-14.7,11.9l-6-4.9c-0.6-0.4-1.4-0.3-1.8,0.2c-0.4,0.5-0.3,1.3,0.2,1.8
					l6.8,5.5c0.5,0.4,1.2,0.4,1.6,0L210.5,21c5.1-4.1,6-11.6,2-16.8c-3.5-4.5-10-5.6-14.8-2.5c-1.5,1-2.7,2.3-3.6,3.8
					c-0.9-1.6-2.1-2.9-3.6-3.8c-4.8-3.1-11.2-2-14.8,2.5C171.8,9.5,172.7,16.9,177.8,21L177.8,21z"/>
			</g>
		</g>
	</g>
</g>
</svg>
