<svg id="Layer_1" data-name="Layer 1" xmlns="http://www.w3.org/2000/svg" viewBox="0 0 344 208"><defs><style>.cls-1{fill:#d8ebfb;}.cls-2{fill:#515979;}.cls-3{fill:#acc9db;}.cls-4{fill:#6adaf7;}.cls-5{fill:#b4ecfb;}.cls-6{fill:#ef7d7d;}</style></defs><path class="cls-1" d="M114,188.87a9,9,0,0,1-8.69-6.68l-22.77-85a9,9,0,0,1,6.36-11l133.3-35.72a9.21,9.21,0,0,1,2.33-.31,9,9,0,0,1,8.69,6.68l22.78,85a9,9,0,0,1-6.37,11L116.29,188.56A9.28,9.28,0,0,1,114,188.87Z"/><path class="cls-2" d="M224.48,53.14a6,6,0,0,1,5.79,4.45l22.78,85a6,6,0,0,1-4.24,7.35l-133.3,35.72a6,6,0,0,1-7.35-4.24l-22.77-85a6,6,0,0,1,4.24-7.35l133.3-35.72a6,6,0,0,1,1.55-.21m0-6h0a12.13,12.13,0,0,0-3.11.41L88.07,83.27A12,12,0,0,0,79.59,98l22.78,85a12,12,0,0,0,14.69,8.49l133.3-35.72a12,12,0,0,0,8.49-14.7L236.07,56a12,12,0,0,0-11.59-8.9Z"/><path class="cls-3" d="M168.92,142.85,83.83,90.62l4.22,15.72,74.87,46.51a10,10,0,0,0,14.1-3.77l3.93-7.35A10,10,0,0,1,168.92,142.85Z"/><path class="cls-3" d="M222.93,53.35l-31.19,8.36a30,30,0,0,0,46.89,27.07l-8.36-31.19A6,6,0,0,0,222.93,53.35Z"/><path class="cls-2" d="M173.21,147.36a13,13,0,0,1-6.87-2L82.25,93.17a3,3,0,1,1,3.17-5.1l84.08,52.24a7,7,0,0,0,9.87-2.65l46.71-87.28a3,3,0,1,1,5.29,2.83l-46.71,87.28a13,13,0,0,1-11.45,6.87Z"/><path class="cls-2" d="M254.6,151.39a3,3,0,0,1-1.63-.48l-56.41-36.65a3,3,0,0,1,3.27-5l56.41,36.65a3,3,0,0,1-1.64,5.52Z"/><path class="cls-2" d="M109.71,190.21a3,3,0,0,1-2.67-4.36l30.53-59.94a3,3,0,0,1,5.34,2.72l-30.52,59.94A3,3,0,0,1,109.71,190.21Z"/><path class="cls-2" d="M168.56,86.05A9,9,0,0,1,170,84.22a11,11,0,0,1,1.75-1.41,10,10,0,0,1,4.45-1.54,9.37,9.37,0,0,1,6.75,2,10.42,10.42,0,0,1,1.52,1.6,2,2,0,0,1-.34,2.85,2.08,2.08,0,0,1-1.54.41L182,88c-.57-.08-1-.28-1.53-.39s-.92-.24-1.35-.27a9,9,0,0,0-2.41-.11,10.54,10.54,0,0,0-2.5.5c-.43.15-.9.29-1.35.49s-1,.43-1.37.53l-.8.2a2,2,0,0,1-2.36-1.44A1.93,1.93,0,0,1,168.56,86.05Z"/><path class="cls-2" d="M151.87,94c-.39.11-1,.13-1.45.23s-1,.16-1.42.25a11,11,0,0,0-2.41.81,8.77,8.77,0,0,0-2,1.31,11.87,11.87,0,0,0-1,.91c-.36.33-.67.74-1.12,1.1L142,99a2,2,0,0,1-3.26-1.87,10.36,10.36,0,0,1,.52-2.15,8.82,8.82,0,0,1,1.12-2,9,9,0,0,1,3.74-3,10.26,10.26,0,0,1,4.63-.9,10.94,10.94,0,0,1,2.22.36,8.6,8.6,0,0,1,2.13.88,1.95,1.95,0,0,1-.4,3.58Z"/><path class="cls-2" d="M147.45,110.24a2.5,2.5,0,0,1-2.41-1.86,7.5,7.5,0,0,1,14.49-3.88,2.5,2.5,0,0,1-4.83,1.3,2.5,2.5,0,0,0-3.06-1.77,2.48,2.48,0,0,0-1.52,1.16,2.44,2.44,0,0,0-.25,1.9,2.51,2.51,0,0,1-1.77,3.06A2.43,2.43,0,0,1,147.45,110.24Z"/><path class="cls-2" d="M172.52,103.52a2.51,2.51,0,0,1-2.41-1.85,7.5,7.5,0,0,1,14.49-3.89,2.5,2.5,0,1,1-4.83,1.3,2.5,2.5,0,0,0-3.06-1.77,2.5,2.5,0,0,0-1.77,3.06,2.49,2.49,0,0,1-1.77,3.06A2.43,2.43,0,0,1,172.52,103.52Z"/><path class="cls-2" d="M160.87,117a29.31,29.31,0,0,1-8.19-1.16,2,2,0,1,1,1.11-3.84c9,2.62,19.48-.18,25-6.66A2,2,0,0,1,181.8,108C176.91,113.74,169,117,160.87,117Z"/><path class="cls-2" d="M165.07,120.18a15.22,15.22,0,0,0,4.2-.48,13.89,13.89,0,0,0,2-.69,10.64,10.64,0,0,0,1.86-1,1.32,1.32,0,0,1,1.84.36,1.31,1.31,0,0,1,.07,1.37l-.5.92a5.47,5.47,0,0,1-1.87,1.92,7.88,7.88,0,0,1-2.37,1,9.2,9.2,0,0,1-1.26.21,7.94,7.94,0,0,1-1.29,0,6.48,6.48,0,0,1-2.54-.61l-.8-.39a1.38,1.38,0,0,1,.66-2.61Z"/><circle class="cls-4" cx="228.82" cy="52.13" r="33"/><path class="cls-2" d="M228.82,22.13a30,30,0,1,1-30,30,30,30,0,0,1,30-30m0-6a36,36,0,1,0,36,36,35.77,35.77,0,0,0-36-36Z"/><path class="cls-5" d="M228.82,26.13a30,30,0,0,1,29.93,28c0-.66.07-1.32.07-2a30,30,0,0,0-60,0c0,.68,0,1.34.08,2A30,30,0,0,1,228.82,26.13Z"/><path class="cls-6" d="M228.82,68.63a3,3,0,0,1-1.2-.25c-.68-.3-16.8-7.46-16.8-19.41a11.36,11.36,0,0,1,11.34-11.34,11.22,11.22,0,0,1,6.66,2.17,11.33,11.33,0,0,1,18,9.17c0,12-16.11,19.11-16.8,19.41A2.93,2.93,0,0,1,228.82,68.63Z"/><path class="cls-2" d="M235.49,40.63A8.33,8.33,0,0,1,243.82,49c0,10.12-15,16.66-15,16.66s-15-6.54-15-16.66a8.33,8.33,0,0,1,15-5,8.32,8.32,0,0,1,6.67-3.35m0-6a14.39,14.39,0,0,0-6.67,1.66,14.31,14.31,0,0,0-21,12.68c0,13.66,16.7,21.33,18.61,22.16a6,6,0,0,0,4.79,0c1.91-.83,18.6-8.5,18.6-22.16a14.35,14.35,0,0,0-14.33-14.34Z"/></svg>