<?xml version="1.0" encoding="utf-8"?>
<!-- Generator: Adobe Illustrator 25.0.0, SVG Export Plug-In . SVG Version: 6.00 Build 0)  -->
<svg version="1.1" id="Layer_1" xmlns="http://www.w3.org/2000/svg" xmlns:xlink="http://www.w3.org/1999/xlink" x="0px" y="0px"
	 viewBox="0 0 186.5 110" style="enable-background:new 0 0 186.5 110;" xml:space="preserve">
<style type="text/css">
	.st0{fill:#F6C560;}
	.st1{opacity:4.000000e-02;}
	.st2{fill:#35414D;}
	.st3{fill:#FF6666;}
	.st4{fill:#00C853;}
	.st5{fill:#009B3F;}
	.st6{fill:#FFDF7D;}
	.st7{fill:#FFCF64;}
</style>
<g>
	<g>
		<g>
			<g>
				<g>
					<path class="st0" d="M152.8,7.9v84.5c0,3.3-2.5,6-5.3,6H7.4c-3.1,0-5.3-2.7-5.3-6V7.9c0-3.3,2.5-5.7,5.3-5.7h139.7
						C150.3,2.2,152.8,4.9,152.8,7.9L152.8,7.9z"/>
				</g>
				<g class="st1">
					<path d="M152.8,7.9v84.5c0,3.3-2.5,6-5.3,6H7.4c-2.8,0-5.3-2.7-5.3-6v-6.7h53.7c44.9,0,81.9-36.9,85.1-83.8h6.6
						C150.3,2.2,152.8,4.9,152.8,7.9L152.8,7.9z"/>
				</g>
			</g>
			<path class="st2" d="M7.4,100.5c-4.2,0-7.4-3.6-7.4-8.2V7.9C0,3.5,3.3,0,7.4,0h139.7c2.3,0,4.4,0.9,5.5,2.2c1.2,1.6,2,3.7,2,5.6
				v84.5c0,4.6-3.3,8.2-7.4,8.2H7.4z M4.2,92.3c0,1.8,1.3,3.8,3.2,3.8h139.7c2.2,0,3.6-1.5,3.6-3.8V7.1L84.1,56.5
				c-2.2,1.6-4.5,2.5-6.9,2.5c-2.3,0-4.9-0.9-6.9-2.5L4.2,7.1V92.3z M72.5,53c1.4,0.9,3,1.4,4.6,1.4c1.6,0,3.2-0.5,4.6-1.4L147,4.4
				h-16.6l-0.1,0.1c-1,0.1-5.4,0.2-21.6,0.2c0,0,0,0,0,0c-24.6,0-61.7-0.3-62-0.3H7.3L72.5,53z"/>
		</g>
		<polygon class="st0" points="49.5,44.8 56.5,36.7 69.2,46.5 74.5,50.1 99.4,37.8 104.4,46 95.5,52.9 81.3,64.8 59,52.9 		"/>
		<g>
			<g>
				<path class="st2" d="M103.7,47.5c-0.4-1.1-1-2.2-1.7-3.2c-0.5-0.7-1.1-1.4-1.7-2c-0.5-0.5-1-0.9-1.5-1.2c-0.5-0.4-1-0.7-1.6-1
					c-0.5-0.3-1.1-0.6-1.7-0.8c-0.3-0.1-0.5-0.2-0.8-0.2C94.5,39,94.3,39,94,38.9c-0.3-0.1-0.6-0.1-0.9-0.1c-0.1,0-0.1,0-0.2,0
					c-0.1,0-0.1,0-0.2,0c-0.2,0-0.4,0-0.6,0c0,0,0,0,0,0c0,0-0.1,0-0.2,0c-0.9,0-4.5,0.1-7.2,2.5c-0.2,0.2-0.5,0.4-0.7,0.7
					c-0.8,0.7-1.6,1.7-2.4,2.7c-2.3,2.8-3.9,5.5-3.9,5.5c0,0,0,0,0,0c-1.7-2.6-3.8-5.6-6.5-8.3c-0.3-0.3-0.6-0.6-0.9-0.8
					c-0.5-0.4-1.1-0.7-1.6-1c-0.1,0-0.2-0.1-0.2-0.1c-0.6-0.3-1.2-0.5-1.8-0.7c-0.5-0.1-1-0.3-1.5-0.3c-0.4-0.1-0.8-0.1-1.2-0.1
					c-0.2,0-0.5,0-0.7,0c-0.1,0-0.1,0-0.1,0c-0.4,0-0.8,0-1.3,0.1c-0.4,0.1-0.8,0.1-1.2,0.2c-0.4,0.1-0.8,0.2-1.2,0.4
					c-0.4,0.1-0.8,0.3-1.1,0.5c-0.4,0.2-0.7,0.4-1.1,0.6c-0.4,0.2-0.7,0.5-1,0.8c-0.3,0.3-0.7,0.6-1,0.9c-0.1,0.1-0.3,0.3-0.4,0.4
					c-0.2,0.2-0.4,0.4-0.6,0.7c-0.1,0.1-0.2,0.2-0.2,0.3c0,0.1-0.1,0.1-0.1,0.2c0,0,0,0-0.1,0.1c0,0-0.1,0.1-0.1,0.1
					c-0.1,0.2-0.2,0.3-0.3,0.5c-0.2,0.3-0.4,0.7-0.6,1c-0.2,0.4-0.5,0.8-0.7,1.2c-0.1,0.2-0.2,0.4-0.3,0.7c0,0,0,0,0,0.1
					c-0.1,0.2-0.2,0.4-0.3,0.6c0,0,0,0.1,0,0.1c-0.1,0.2-0.2,0.4-0.2,0.6c0,0,0,0.1,0,0.1c-0.1,0.3-0.2,0.5-0.3,0.8
					c-0.1,0.2-0.1,0.4-0.2,0.6c0,0,0,0,0,0c0,0.2-0.1,0.4-0.1,0.6c0,0,0,0.1,0,0.1c-1,5-0.8,11.9,5.5,17.6c0.2,0.2,0.5,0.4,0.7,0.6
					c0.2,0.2,0.5,0.3,0.7,0.5c0.2,0.1,0.5,0.3,0.7,0.4c0.2,0.1,0.5,0.2,0.7,0.3c0.2,0.1,0.5,0.2,0.7,0.2c0.2,0.1,0.5,0.1,0.7,0.2
					c0.6,0.2,1.3,0.2,1.9,0.3c0.7,0,1.3,0,2,0c0.6-0.1,1.1-0.2,1.6-0.3c0.2,0,0.4-0.1,0.6-0.2c0.2-0.1,0.4-0.1,0.7-0.2
					c0.2-0.1,0.5-0.2,0.7-0.3c0.2-0.1,0.5-0.2,0.7-0.3c0.2-0.1,0.5-0.2,0.7-0.4c0.2-0.1,0.4-0.3,0.7-0.4c0.2-0.2,0.4-0.3,0.6-0.5
					c0.1-0.1,0.2-0.1,0.2-0.2c0.1-0.1,0.1-0.2,0.2-0.2c1.5-1.4,4.4-5.4,6.5-8.3c0,0.1,0.6,1,0.7,1.1c0.3,0.4,0.5,0.7,0.8,1.1
					c0.4,0.6,0.9,1.2,1.4,1.8c0.9,1.3,1.9,2.5,3,3.6c0.7,0.8,1.5,1.4,2.4,2c2.7,1.7,6.1,2.2,9.1,1.4c0.6-0.2,1.2-0.4,1.8-0.7
					c2-0.9,3.7-2.4,4.9-4.2c2.9-4.2,4-9.6,3-14.7C104.5,49.9,104.2,48.7,103.7,47.5z M68.3,63.1c-0.1,0.1-0.3,0.2-0.4,0.4
					c-0.1,0.1-0.2,0.2-0.3,0.2c-1,0.7-2.3,1.1-3.5,1.1c-0.9,0.1-1.9,0-2.7-0.2c-0.1,0-0.2-0.1-0.4-0.1c-0.1,0-0.2-0.1-0.3-0.1
					c-0.2-0.1-0.3-0.1-0.5-0.2c-0.2-0.1-0.3-0.2-0.4-0.3c-0.1-0.1-0.3-0.2-0.4-0.3c-0.1-0.1-0.3-0.2-0.4-0.3
					c-0.1-0.1-0.3-0.2-0.4-0.3c-0.1-0.1-0.3-0.2-0.4-0.4c-0.1-0.1-0.2-0.3-0.4-0.4c-0.1-0.1-0.2-0.3-0.3-0.4
					c-0.1-0.1-0.2-0.3-0.3-0.4c-0.1-0.2-0.2-0.3-0.3-0.5c-0.1-0.2-0.2-0.3-0.3-0.5c-0.1-0.2-0.2-0.3-0.3-0.5
					c-0.1-0.2-0.2-0.4-0.2-0.5c-0.1-0.2-0.1-0.4-0.2-0.6c-0.1-0.2-0.1-0.4-0.2-0.6c-0.1-0.2-0.1-0.4-0.1-0.6c0-0.2-0.1-0.4-0.1-0.6
					c0-0.2-0.1-0.4-0.1-0.6c0-0.2,0-0.4-0.1-0.6c0-0.2,0-0.4,0-0.6c0-0.1,0-0.2,0-0.2c0-6.3,5.7-12.9,12.1-8.9
					c1,0.6,1.9,1.5,2.6,2.5c1.6,2.1,3.2,4.2,4.6,6.4c-0.7,1.1-1.5,2.2-2.2,3.3c-0.6,0.9-1.3,1.8-2,2.7C69.7,61.6,69,62.4,68.3,63.1z
					 M95.7,63.9c-1.1,0.6-2.3,0.9-3.1,1c-0.8,0.1-1.6,0.1-2.3-0.1c-0.8-0.2-1.5-0.4-2.2-0.9c-0.7-0.4-1.3-1-1.9-1.6
					c-0.4-0.5-0.9-1-1.3-1.5c-0.5-0.6-0.9-1.2-1.4-1.8c-0.5-0.7-1-1.4-1.5-2.1c-0.1-0.1-0.2-0.3-0.3-0.5c-0.3-0.5-0.6-1-1-1.5
					c1.8-2.7,3.6-5.5,5.9-7.9c0.8-0.8,1.8-1.5,2.9-1.8l0,0c1.6-0.5,3.5-0.5,5.1,0.2c1.1,0.5,2.1,1.2,2.9,2.2c1.7,2,2.6,4.7,2.6,7.3
					C100.2,58.8,98.4,62.2,95.7,63.9z"/>
			</g>
			<path class="st3" d="M103,45.5c-0.4-1.1-1-2.2-1.7-3.2c-0.5-0.7-1.1-1.4-1.7-2c-0.5-0.5-1-0.9-1.5-1.2c-0.5-0.4-1-0.7-1.6-1
				c-0.5-0.3-1.1-0.6-1.7-0.8c-0.3-0.1-0.5-0.2-0.8-0.2c-0.3-0.1-0.5-0.1-0.8-0.2c-0.3-0.1-0.6-0.1-0.9-0.1c-0.1,0-0.1,0-0.2,0
				c-0.1,0-0.1,0-0.2,0c-0.2,0-0.4,0-0.6,0c0,0,0,0,0,0c0,0-0.1,0-0.2,0c-0.9,0-4.5,0.1-7.2,2.5c-0.2,0.2-0.5,0.4-0.7,0.7
				c-0.8,0.7-1.6,1.7-2.4,2.7c-2.3,2.8-3.9,5.5-3.9,5.5c0,0,0,0,0,0c-1.7-2.6-3.8-5.6-6.5-8.3c-0.3-0.3-0.6-0.6-0.9-0.8
				c-0.5-0.4-1.1-0.7-1.6-1c-0.1,0-0.2-0.1-0.2-0.1c-0.6-0.3-1.2-0.5-1.8-0.7c-0.5-0.1-1-0.3-1.5-0.3c-0.4-0.1-0.8-0.1-1.2-0.1
				c-0.2,0-0.5,0-0.7,0c-0.1,0-0.1,0-0.1,0c-0.4,0-0.8,0-1.3,0.1c-0.4,0.1-0.8,0.1-1.2,0.2c-0.4,0.1-0.8,0.2-1.2,0.4
				c-0.4,0.1-0.8,0.3-1.1,0.5c-0.4,0.2-0.7,0.4-1.1,0.6c-0.4,0.2-0.7,0.5-1,0.8c-0.3,0.3-0.7,0.6-1,0.9c-0.1,0.1-0.3,0.3-0.4,0.4
				c-0.2,0.2-0.4,0.4-0.6,0.7c-0.1,0.1-0.2,0.2-0.2,0.3c0,0.1-0.1,0.1-0.1,0.2c0,0,0,0-0.1,0.1c0,0-0.1,0.1-0.1,0.1
				c-0.1,0.2-0.2,0.3-0.3,0.5c-0.2,0.3-0.4,0.7-0.6,1c-0.2,0.4-0.5,0.8-0.7,1.2c-0.1,0.2-0.2,0.4-0.3,0.7c0,0,0,0,0,0.1
				c-0.1,0.2-0.2,0.4-0.3,0.6c0,0,0,0.1,0,0.1c-0.1,0.2-0.2,0.4-0.2,0.6c0,0,0,0.1,0,0.1c-0.1,0.3-0.2,0.5-0.3,0.8
				c-0.1,0.2-0.1,0.4-0.2,0.6c0,0,0,0,0,0c0,0.2-0.1,0.4-0.1,0.6c0,0,0,0.1,0,0.1c-1,5-0.8,11.9,5.5,17.6c0.2,0.2,0.5,0.4,0.7,0.6
				c0.2,0.2,0.5,0.3,0.7,0.5c0.2,0.1,0.5,0.3,0.7,0.4c0.2,0.1,0.5,0.2,0.7,0.3c0.2,0.1,0.5,0.2,0.7,0.2c0.2,0.1,0.5,0.1,0.7,0.2
				c0.6,0.2,1.3,0.2,1.9,0.3c0.7,0,1.3,0,2,0c0.6-0.1,1.1-0.2,1.6-0.3c0.2,0,0.4-0.1,0.6-0.2c0.2-0.1,0.4-0.1,0.7-0.2
				c0.2-0.1,0.5-0.2,0.7-0.3c0.2-0.1,0.5-0.2,0.7-0.3c0.2-0.1,0.5-0.2,0.7-0.4c0.2-0.1,0.4-0.3,0.7-0.4c0.2-0.2,0.4-0.3,0.6-0.5
				c0.1-0.1,0.2-0.1,0.2-0.2c0.1-0.1,0.1-0.2,0.2-0.2c1.5-1.4,4.4-5.4,6.5-8.3c0,0.1,0.6,1,0.7,1.1c0.3,0.4,0.5,0.7,0.8,1.1
				c0.4,0.6,0.9,1.2,1.4,1.8c0.9,1.3,1.9,2.5,3,3.6c0.7,0.8,1.5,1.4,2.4,2c2.7,1.7,6.1,2.2,9.1,1.4c0.6-0.2,1.2-0.4,1.8-0.7
				c2-0.9,3.7-2.4,4.9-4.2c2.9-4.2,4-9.6,3-14.7C103.8,47.9,103.4,46.7,103,45.5z M67.5,61.1c-0.1,0.1-0.3,0.2-0.4,0.4
				c-0.1,0.1-0.2,0.2-0.3,0.2c-1,0.7-2.3,1.1-3.5,1.1c-0.9,0.1-1.9,0-2.7-0.2c-0.1,0-0.2-0.1-0.4-0.1c-0.1,0-0.2-0.1-0.3-0.1
				c-0.2-0.1-0.3-0.1-0.5-0.2c-0.2-0.1-0.3-0.2-0.4-0.3c-0.1-0.1-0.3-0.2-0.4-0.3c-0.1-0.1-0.3-0.2-0.4-0.3
				c-0.1-0.1-0.3-0.2-0.4-0.3c-0.1-0.1-0.3-0.2-0.4-0.4c-0.1-0.1-0.2-0.3-0.4-0.4c-0.1-0.1-0.2-0.3-0.3-0.4
				c-0.1-0.1-0.2-0.3-0.3-0.4c-0.1-0.2-0.2-0.3-0.3-0.5c-0.1-0.2-0.2-0.3-0.3-0.5c-0.1-0.2-0.2-0.3-0.3-0.5
				c-0.1-0.2-0.2-0.4-0.2-0.5c-0.1-0.2-0.1-0.4-0.2-0.6c-0.1-0.2-0.1-0.4-0.2-0.6c-0.1-0.2-0.1-0.4-0.1-0.6c0-0.2-0.1-0.4-0.1-0.6
				c0-0.2-0.1-0.4-0.1-0.6c0-0.2,0-0.4-0.1-0.6c0-0.2,0-0.4,0-0.6c0-0.1,0-0.2,0-0.2c0-6.3,5.7-12.9,12.1-8.9c1,0.6,1.9,1.5,2.6,2.5
				c1.6,2.1,3.2,4.2,4.6,6.4c-0.7,1.1-1.5,2.2-2.2,3.3c-0.6,0.9-1.3,1.8-2,2.7C68.9,59.6,68.3,60.4,67.5,61.1z M95,61.9
				c-1.1,0.6-2.3,0.9-3.1,1c-0.8,0.1-1.6,0.1-2.3-0.1c-0.8-0.2-1.5-0.4-2.2-0.9c-0.7-0.4-1.3-1-1.9-1.6c-0.4-0.5-0.9-1-1.3-1.5
				c-0.5-0.6-0.9-1.2-1.4-1.8c-0.5-0.7-1-1.4-1.5-2.1c-0.1-0.1-0.2-0.3-0.3-0.5c-0.3-0.5-0.6-1-1-1.5c1.8-2.7,3.6-5.5,5.9-7.9
				c0.8-0.8,1.8-1.5,2.9-1.8l0,0c1.6-0.5,3.5-0.5,5.1,0.2c1.1,0.5,2.1,1.2,2.9,2.2c1.7,2,2.6,4.7,2.6,7.3
				C99.4,56.8,97.6,60.2,95,61.9z"/>
		</g>
	</g>
	<g id="g2287_3_">
		<g id="g2293_3_" transform="translate(233.9614,426.5913)">
			<g id="path2295_3_">
				<path class="st4" d="M-83-381.6l12.8-11.1c1.1-0.9,2.6-0.9,3.7,0l12.8,11.1c2,1.7,0.8,4.9-1.8,4.9h-1.8v39.5l-16.4-4.4
					c-3.1,0-5.6-2.5-5.6-5.6v-29.5h-1.8C-83.8-376.7-85-379.9-83-381.6"/>
			</g>
		</g>
		<g id="g2297_3_" transform="translate(348.0371,495.1826)">
			<g id="path2299_3_">
				<path class="st5" d="M-179.8-460.6l-0.8-0.7c-1.1-0.9-2.6-0.9-3.7,0l-12.8,11.1c-2,1.7-0.8,4.9,1.8,4.9h1.8v29.5
					c0,3.1,2.5,5.6,5.6,5.6h5.3c-3.1,0-5.6-2.5-5.6-5.6v-29.5h-1.8c-2.6,0-3.8-3.2-1.8-4.9L-179.8-460.6z"/>
			</g>
		</g>
		<g id="g2301_3_" transform="translate(258.0547,350.1738)">
			<g id="path2303_3_">
				<path class="st2" d="M-81.5-263.6c-0.9,0-1.6-0.7-1.6-1.6v-35.1c0-0.9,0.7-1.6,1.6-1.6h1.8c0.8,0,1.1-0.6,1.2-0.8
					c0.1-0.2,0.3-0.9-0.4-1.4l-12.8-11.1c-0.5-0.4-1.2-0.4-1.6,0l-12.8,11.1c-0.6,0.5-0.4,1.2-0.4,1.4c0.1,0.2,0.4,0.8,1.2,0.8h1.8
					c0.9,0,1.6,0.7,1.6,1.6v6.7c0,0.9-0.7,1.6-1.6,1.6s-1.6-0.7-1.6-1.6v-5.1h-0.3c-1.8,0-3.4-1.1-4.1-2.8c-0.6-1.7-0.2-3.6,1.2-4.8
					l12.8-11.1c1.6-1.4,4.1-1.4,5.7,0l12.8,11.1c1.4,1.2,1.9,3.1,1.2,4.8c-0.6,1.7-2.2,2.8-4.1,2.8H-80v33.6
					C-80-264.3-80.7-263.6-81.5-263.6z"/>
			</g>
		</g>
		<g id="g2305_3_" transform="translate(59.6851,276.6201)">
			<g id="path2307_3_">
				<path class="st4" d="M64.9-208.9L77.6-220c1.1-0.9,2.6-0.9,3.7,0l12.8,11.1c2,1.7,0.8,4.9-1.8,4.9h-1.8v30.3
					c0,3.1-2.5,5.6-5.6,5.6H74.1c-3.1,0-5.6-2.5-5.6-5.6V-204h-1.8C64.1-204,62.9-207.2,64.9-208.9"/>
			</g>
		</g>
		<g id="g2309_3_" transform="translate(173.7603,345.2114)">
			<g id="path2311_3_">
				<path class="st5" d="M-31.9-287.9l-0.8-0.7c-1.1-0.9-2.6-0.9-3.7,0l-12.8,11.1c-2,1.7-0.8,4.9,1.8,4.9h1.8v30.3
					c0,3.1,2.5,5.6,5.6,5.6h5.3c-3.1,0-5.6-2.5-5.6-5.6v-30.3H-42c-2.6,0-3.8-3.2-1.8-4.9L-31.9-287.9z"/>
			</g>
		</g>
		<g id="g2313_3_" transform="translate(108.2598,318.8901)">
			<g id="path2315_3_">
				<path class="st2" d="M23.7-256c-0.4,0-0.9-0.2-1.2-0.5c-0.6-0.6-0.5-1.6,0.2-2.2l5.4-4.7c1.6-1.4,4.1-1.4,5.7,0l5.3,4.6
					c0.6,0.6,0.7,1.5,0.2,2.2c-0.6,0.6-1.5,0.7-2.2,0.2l-5.3-4.6c-0.5-0.4-1.2-0.4-1.6,0l-5.4,4.7C24.4-256.2,24-256,23.7-256z"/>
			</g>
		</g>
		<g id="g2317_3_" transform="translate(228.4902,163.1699)">
			<g id="path2319_3_">
				<path class="st2" d="M-83.9-53.2h-10.8c-3.9,0-7.1-3.2-7.1-7.1V-89h-0.3c-1.8,0-3.4-1.1-4.1-2.8c-0.6-1.7-0.2-3.6,1.2-4.8
					l3.9-3.4c0.6-0.6,1.6-0.5,2.2,0.2c0.6,0.6,0.5,1.6-0.2,2.2l-3.9,3.4c-0.6,0.5-0.4,1.2-0.4,1.4c0.1,0.2,0.4,0.8,1.2,0.8h1.8
					c0.9,0,1.6,0.7,1.6,1.6v30.3c0,2.2,1.8,4,4,4h10.8c2.2,0,4-1.8,4-4v-18c0-0.9,0.7-1.6,1.6-1.6c0.9,0,1.6,0.7,1.6,1.6v18
					C-76.8-56.4-80-53.2-83.9-53.2z"/>
			</g>
		</g>
		<g id="g2321_3_" transform="translate(377.9424,251.3062)">
			<g id="path2323_3_">
				<path class="st6" d="M-205.2-179.8c0,8.4-6.8,15.2-15.2,15.2c-8.4,0-15.2-6.8-15.2-15.2c0-8.4,6.8-15.2,15.2-15.2
					C-212-195-205.2-188.2-205.2-179.8"/>
			</g>
		</g>
		<g id="g2325_3_" transform="translate(289.3384,151.3237)">
			<g id="path2327_3_">
				<path class="st7" d="M-130-64.6c-0.6,0.1-1.2,0.1-1.8,0.1c-8.4,0-15.2-6.8-15.2-15.2s6.8-15.2,15.2-15.2c0.6,0,1.2,0,1.8,0.1
					c-7.6,0.9-13.4,7.3-13.4,15.1S-137.6-65.6-130-64.6"/>
			</g>
		</g>
		<g id="g2329_3_" transform="translate(361.4146,196.0283)">
			<g id="path2331_3_">
				<path class="st2" d="M-203.9-107.7c-9.3,0-16.8-7.5-16.8-16.8c0-9.3,7.5-16.8,16.8-16.8c9.3,0,16.8,7.5,16.8,16.8
					c0,3.3-1,6.5-2.8,9.2c-0.5,0.7-1.4,0.9-2.1,0.4c-0.7-0.5-0.9-1.4-0.4-2.1c1.5-2.2,2.2-4.8,2.2-7.5c0-7.6-6.1-13.7-13.7-13.7
					c-7.6,0-13.7,6.1-13.7,13.7s6.1,13.7,13.7,13.7c1,0,1.9-0.1,2.9-0.3c0.8-0.2,1.7,0.4,1.8,1.2c0.2,0.8-0.4,1.7-1.2,1.8
					C-201.5-107.8-202.7-107.7-203.9-107.7z"/>
			</g>
		</g>
		<g id="g2333_3_" transform="translate(293.8291,288.8667)">
			<g id="path2335_3_">
				<path class="st2" d="M-136.6-209.4c-1.6,0-2.6-0.2-4.1-1.2c-0.7-0.5-0.9-1.4-0.4-2.1c0.5-0.7,1.4-0.9,2.1-0.4
					c0.9,0.6,1.3,0.7,2.5,0.7c1.2,0,1.8-0.9,2-1.7c0.1-0.5,0-1.3-1.1-1.7c-1.5-0.5-3-1.1-4.1-2c-1.1-0.9-1.6-2.3-1.3-3.8
					c0.3-1.6,1.4-2.9,3-3.4c2.1-0.7,4,0.1,5.1,0.9c0.7,0.5,0.7,1.5,0.2,2.2c-0.5,0.7-1.5,0.8-2.2,0.2c-0.1-0.1-0.9-0.7-2.2-0.3
					c-0.6,0.2-0.8,0.8-0.8,1c-0.1,0.4,0,0.7,0.2,0.8c0.7,0.6,2,1.1,3.2,1.5c2.2,0.8,3.5,2.9,3.1,5.2c-0.4,2.1-2.2,4.3-5,4.3
					C-136.4-209.4-136.5-209.4-136.6-209.4z"/>
			</g>
		</g>
		<g id="g2337_3_" transform="translate(276.6963,196.8765)">
			<g id="path2339_3_">
				<path class="st2" d="M-119.3-115.5c-0.9,0-1.6-0.7-1.6-1.6v-1.9c0-0.9,0.7-1.6,1.6-1.6s1.6,0.7,1.6,1.6v1.9
					C-117.7-116.2-118.4-115.5-119.3-115.5z"/>
			</g>
		</g>
		<g id="g2341_3_" transform="translate(276.6963,294.2573)">
			<g id="path2343_3_">
				<path class="st2" d="M-119.3-227.7c-0.9,0-1.6-0.7-1.6-1.6v-1.7c0-0.9,0.7-1.6,1.6-1.6s1.6,0.7,1.6,1.6v1.7
					C-117.7-228.4-118.4-227.7-119.3-227.7z"/>
			</g>
		</g>
		<g id="g2345_3_" transform="translate(259.4268,118.9678)">
			<g id="path2347_3_">
				<path class="st4" d="M-104.6-27.4l12.8-11.1c1.1-0.9,2.6-0.9,3.7,0l12.8,11.1c2,1.7,0.8,4.9-1.8,4.9h-1.8v6.4
					c0,3.1-2.5,5.6-5.6,5.6h-10.8c-3.1,0-5.6-2.5-5.6-5.6v-6.4h-1.8C-105.4-22.5-106.6-25.7-104.6-27.4"/>
			</g>
		</g>
		<g id="g2349_3_" transform="translate(373.502,187.5591)">
			<g id="path2351_3_">
				<path class="st5" d="M-201.4-106.4l-0.8-0.7c-1.1-0.9-2.6-0.9-3.7,0L-218.7-96c-2,1.7-0.8,4.9,1.8,4.9h1.8v6.4
					c0,3.1,2.5,5.6,5.6,5.6h5.3c-3.1,0-5.6-2.5-5.6-5.6v-6.4h-1.8c-2.6,0-3.8-3.2-1.8-4.9L-201.4-106.4z"/>
			</g>
		</g>
		<g id="g2353_3_" transform="translate(428.2202,59.2002)">
			<g id="path2355_3_">
				<path class="st2" d="M-253.4,50.8h-10.8c-3.9,0-7.1-3.2-7.1-7.1v-4.9h-0.3c-1.8,0-3.4-1.1-4.1-2.8c-0.6-1.7-0.2-3.6,1.2-4.8
					l12.8-11.1c1.6-1.4,4.1-1.4,5.7,0l12.8,11.1c1.4,1.2,1.9,3.1,1.2,4.8c-0.6,1.7-2.2,2.8-4.1,2.8h-0.3v2.6c0,0.9-0.7,1.6-1.6,1.6
					c-0.9,0-1.6-0.7-1.6-1.6v-4.1c0-0.9,0.7-1.6,1.6-1.6h1.8c0.8,0,1.1-0.6,1.2-0.8c0.1-0.2,0.3-0.9-0.4-1.4L-258,22.4
					c-0.5-0.4-1.2-0.4-1.6,0l-12.8,11.1c-0.6,0.5-0.4,1.2-0.4,1.4c0.1,0.2,0.4,0.8,1.2,0.8h1.8c0.9,0,1.6,0.7,1.6,1.6v6.4
					c0,2.2,1.8,4,4,4h10.8c1.6,0,3-0.9,3.7-2.4c0.3-0.8,1.3-1.1,2-0.8c0.8,0.3,1.1,1.3,0.8,2C-248,49.1-250.6,50.8-253.4,50.8z"/>
			</g>
		</g>
	</g>
</g>
</svg>
