<?xml version="1.0" encoding="utf-8"?>
<!-- Generator: Adobe Illustrator 25.0.0, SVG Export Plug-In . SVG Version: 6.00 Build 0)  -->
<svg version="1.1" id="Layer_1" xmlns="http://www.w3.org/2000/svg" xmlns:xlink="http://www.w3.org/1999/xlink" x="0px" y="0px"
	 viewBox="0 0 130.6 150" style="enable-background:new 0 0 130.6 150;" xml:space="preserve">
<style type="text/css">
	.st0{fill:#FED402;}
	.st1{fill:#FAC600;}
	.st2{fill:#87796F;}
	.st3{fill:#685E68;}
	.st4{fill:#4F4742;}
	.st5{fill:#FF492C;}
	.st6{fill:#35414D;}
	.st7{fill:#FF4755;}
	.st8{fill:#FC2B3A;}
	.st9{fill:#FFE27A;}
	.st10{fill:#F9CF58;}
	.st11{fill:#FFBA57;}
	.st12{fill:#FFAC3E;}
</style>
<g>
	<g id="g3574_1_" transform="translate(290.7158,255.6587)">
		<g id="path3576_1_">
			<path class="st0" d="M-218.9-181.3c-1.6,0-3.2-0.9-4-2.5c-1-2.2-0.1-4.8,2.1-5.8l26.7-12.7c9.8-4.7,16.2-14.7,16.2-25.6v-9.1
				h-27.7c-2.4,0-4.4-2-4.4-4.4s2-4.4,4.4-4.4h32c2.4,0,4.4,2,4.4,4.4v13.5c0,7-2,13.9-5.7,19.8c-3.8,5.9-9.1,10.7-15.4,13.7
				l-26.7,12.7C-217.6-181.4-218.3-181.3-218.9-181.3"/>
		</g>
	</g>
	<g id="g3578_1_" transform="translate(221.2842,255.6587)">
		<g id="path3580_1_">
			<path class="st0" d="M-169.7-181.3c1.6,0,3.2-0.9,4-2.5c1-2.2,0.1-4.8-2.1-5.8l-26.7-12.7c-9.8-4.7-16.2-14.7-16.2-25.6v-9.1
				h27.7c2.4,0,4.4-2,4.4-4.4s-2-4.4-4.4-4.4h-32c-2.4,0-4.4,2-4.4,4.4v13.5c0,7,2,13.9,5.7,19.8c3.8,5.9,9.1,10.7,15.4,13.7
				l26.7,12.7C-171-181.4-170.4-181.3-169.7-181.3"/>
		</g>
	</g>
	<g id="g3582_1_" transform="translate(227.7305,284.2109)">
		<g id="path3584_1_">
			<path class="st1" d="M-174.3-218.2l-26.7-12.7c-2.5-1.2-4.8-2.8-6.8-4.6c0.3,0.8,0.6,1.5,0.9,2.3c1.7,4.2,3.8,8.2,6,12.1
				l22.8,10.9c0.6,0.3,1.2,0.4,1.9,0.4c1.6,0,3.2-0.9,4-2.5C-171.2-214.5-172.1-217.1-174.3-218.2"/>
		</g>
	</g>
	<g id="g3586_1_" transform="translate(190.4648,461.6216)">
		<g id="path3588_1_">
			<path class="st1" d="M-147.9-447.4c0-2.4-2-4.4-4.4-4.4h-25v3.3c0,1.8,0.1,3.6,0.2,5.5h24.8C-149.9-443-147.9-444.9-147.9-447.4"
				/>
		</g>
	</g>
	<g id="g3590_1_" transform="translate(391.5,7.5)">
		<g id="path3592_1_">
			<path class="st2" d="M-290.3,139.3h-79.1c-1.6,0-2.9-1.3-2.9-2.9v-8.2c0-1.6,1.3-2.9,2.9-2.9h79.1c1.6,0,2.9,1.3,2.9,2.9v8.2
				C-287.3,138-288.7,139.3-290.3,139.3"/>
		</g>
	</g>
	<g id="g3594_1_" transform="translate(391.5,55.5)">
		<g id="path3596_1_">
			<path class="st3" d="M-290.3,77.3h-8.8c1.6,0,2.9,1.3,2.9,2.9v8.2c0,1.6-1.3,2.9-2.9,2.9h8.8c1.6,0,2.9-1.3,2.9-2.9v-8.2
				C-287.3,78.6-288.7,77.3-290.3,77.3"/>
		</g>
	</g>
	<g id="path3598_1_">
		<path class="st0" d="M70.9,105.7H52.5V90h18.4V105.7z"/>
	</g>
	<g id="g3600_1_" transform="translate(257.5,202.2646)">
		<g id="path3602_1_">
			<path class="st1" d="M-195.4-112.3v1.7c0,5.3-4.3,9.6-9.6,9.6v4.4h18.4v-15.7H-195.4z"/>
		</g>
	</g>
	<g id="g3604_1_" transform="translate(371.5,55.5)">
		<g id="path3606_1_">
			<path class="st2" d="M-276.1,77.3h-67.4V58.9c0-4.8,3.9-8.8,8.8-8.8h49.9c4.8,0,8.8,3.9,8.8,8.8V77.3z"/>
		</g>
	</g>
	<g id="g3608_1_" transform="translate(341.5,148.5)">
		<g id="path3610_1_">
			<path class="st4" d="M-254.9-42.8h-1.2c0.7,1.3,1.2,2.8,1.2,4.4c0,10.2-8.2,18.4-18.4,18.4h-40.3v4.4h67.4v-18.4
				C-246.1-38.9-250-42.8-254.9-42.8"/>
		</g>
	</g>
	<g id="g3612_1_" transform="translate(301,247.2646)">
		<g id="path3614_1_">
			<path class="st0" d="M-226.2-170.4L-226.2-170.4h-26.3c-17-16.8-26.6-39.7-26.6-63.7v-8.5c0-1.6,1.3-2.9,2.9-2.9h73.6
				c1.6,0,2.9,1.3,2.9,2.9v8.5C-199.6-210.2-209.2-187.2-226.2-170.4"/>
		</g>
	</g>
	<g id="g3616_1_" transform="translate(382.1172,504.5)">
		<g id="path3618_1_">
			<path class="st1" d="M-283.6-502.8h-5.8v7.1c0.2,15.4-5.9,30.6-12.3,42.3c-7.2,13.1-21,21.3-35.9,21.3c1.3,1.5,2.7,3,4.1,4.4
				h26.3c17-16.8,26.6-39.7,26.6-63.7v-8.5C-280.7-501.4-282-502.8-283.6-502.8"/>
		</g>
	</g>
	<g id="g3620_1_" transform="translate(206,202.2646)">
		<g id="path3622_1_">
			<path class="st0" d="M-158.9-112.3h29.2c1.6,0,2.9-1.3,2.9-2.9v-7.3c0-1.6-1.3-2.9-2.9-2.9h-29.2c-1.6,0-2.9,1.3-2.9,2.9v7.3
				C-161.8-113.6-160.5-112.3-158.9-112.3"/>
		</g>
	</g>
	<g id="g3624_1_" transform="translate(306,247.2646)">
		<g id="path3626_1_">
			<path class="st1" d="M-229.7-170.4h-5.8c0,4.8-3.9,8.8-8.8,8.8h-17.5v1.5c0,1.6,1.3,2.9,2.9,2.9h29.2c1.6,0,2.9-1.3,2.9-2.9v-7.3
				C-226.8-169.1-228.1-170.4-229.7-170.4"/>
		</g>
	</g>
	<g id="g3628_1_" transform="translate(263.6084,444.707)">
		<g id="path3630_1_">
			<path class="st5" d="M-199.7-425.5l2.7,8.2c0.3,1,1.2,1.6,2.2,1.6h8.6c2.3,0,3.2,2.9,1.4,4.2l-7,5.1c-0.8,0.6-1.2,1.6-0.8,2.6
				l2.7,8.2c0.7,2.2-1.8,3.9-3.6,2.6l-7-5.1c-0.8-0.6-1.9-0.6-2.7,0l-7,5.1c-1.8,1.3-4.3-0.5-3.6-2.6l2.7-8.2c0.3-1,0-2-0.8-2.6
				l-7-5.1c-1.8-1.3-0.9-4.2,1.4-4.2h8.6c1,0,1.9-0.7,2.2-1.6l2.7-8.2C-203.5-427.7-200.4-427.7-199.7-425.5"/>
		</g>
	</g>
	<g id="g3632_1_" transform="translate(391.54,446.6201)">
		<g id="path3634_1_">
			<path class="st6" d="M-301.2-388.5c-0.7,0-1.3-0.4-1.6-1c-0.4-0.9,0-1.9,0.8-2.3l6.4-3c9.2-4.4,15.2-13.8,15.2-24v-7.4h-9.9
				c-1,0-1.7-0.8-1.7-1.7c0-1,0.8-1.7,1.7-1.7h11.6c1,0,1.7,0.8,1.7,1.7v9.1c0,11.6-6.7,22.2-17.2,27.2l-6.4,3
				C-300.7-388.6-301-388.5-301.2-388.5z"/>
		</g>
	</g>
	<g id="g3636_1_" transform="translate(392.1201,476.6201)">
		<g id="path3638_1_">
			<path class="st6" d="M-311.7-404.1c-0.7,0-1.3-0.4-1.6-1c-0.4-0.9,0-1.9,0.8-2.3l20-9.5c6-2.9,11.1-7.4,14.7-13
				c3.6-5.7,5.5-12.2,5.5-18.9v-13.5c0-1.5-1.2-2.6-2.6-2.6h-15.8c-1,0-1.7-0.8-1.7-1.7c0-1,0.8-1.7,1.7-1.7h15.8
				c3.4,0,6.1,2.7,6.1,6.1v13.5c0,7.4-2.1,14.5-6,20.8c-3.9,6.2-9.5,11.2-16.2,14.3l-20,9.5C-311.2-404.2-311.5-404.1-311.7-404.1z"
				/>
		</g>
	</g>
	<g id="g3640_1_" transform="translate(120.46,446.6201)">
		<g id="path3642_1_">
			<path class="st6" d="M-98.5-394.4c-0.4,0-0.7-0.1-1-0.3c-7.6-5.7-12.1-14.7-12.1-24.1v-9.1c0-1,0.8-1.7,1.7-1.7h11.6
				c1,0,1.7,0.8,1.7,1.7c0,1-0.8,1.7-1.7,1.7h-9.9v7.4c0,8.3,4,16.3,10.7,21.3c0.8,0.6,0.9,1.7,0.4,2.4
				C-97.5-394.6-98-394.4-98.5-394.4z"/>
		</g>
	</g>
	<g id="g3644_1_" transform="translate(119.8799,476.6201)">
		<g id="path3646_1_">
			<path class="st6" d="M-76.9-404.1c-0.3,0-0.5-0.1-0.7-0.2l-20-9.5c-6.6-3.2-12.2-8.1-16.2-14.3c-3.9-6.2-6-13.4-6-20.8v-13.5
				c0-3.4,2.7-6.1,6.1-6.1h15.8c1,0,1.7,0.8,1.7,1.7c0,1-0.8,1.7-1.7,1.7h-15.8c-1.5,0-2.6,1.2-2.6,2.6v13.5
				c0,6.7,1.9,13.2,5.5,18.9c3.6,5.7,8.7,10.2,14.7,13l20,9.5c0.9,0.4,1.2,1.5,0.8,2.3C-75.7-404.5-76.3-404.1-76.9-404.1z"/>
		</g>
	</g>
	<g id="g3648_1_" transform="translate(391.5,7.5)">
		<g id="path3650_1_">
			<path class="st6" d="M-290.3,141.1h-79.1c-2.6,0-4.7-2.1-4.7-4.7v-8.2c0-2.6,2.1-4.7,4.7-4.7h79.1c2.6,0,4.7,2.1,4.7,4.7v8.2
				C-285.6,139-287.7,141.1-290.3,141.1z M-369.4,127.1c-0.6,0-1.2,0.5-1.2,1.2v8.2c0,0.6,0.5,1.2,1.2,1.2h79.1
				c0.6,0,1.2-0.5,1.2-1.2v-8.2c0-0.6-0.5-1.2-1.2-1.2H-369.4z"/>
		</g>
	</g>
	<g id="g3652_1_" transform="translate(224.5,148.5)">
		<g id="path3654_1_">
			<path class="st6" d="M-172-41.1c-1,0-1.7-0.8-1.7-1.7v-15.7c0-1,0.8-1.7,1.7-1.7s1.7,0.8,1.7,1.7v15.7
				C-170.3-41.9-171.1-41.1-172-41.1z"/>
		</g>
	</g>
	<g id="g3656_1_" transform="translate(287.5,202.2646)">
		<g id="path3658_1_">
			<path class="st6" d="M-216.6-94.9c-1,0-1.7-0.8-1.7-1.7v-15.7c0-1,0.8-1.7,1.7-1.7c1,0,1.7,0.8,1.7,1.7v15.7
				C-214.9-95.6-215.7-94.9-216.6-94.9z"/>
		</g>
	</g>
	<g id="g3660_1_" transform="translate(140.5,55.5)">
		<g id="path3662_1_">
			<path class="st6" d="M-112.5,79.1c-1,0-1.7-0.8-1.7-1.7V58.9c0-5.8,4.7-10.5,10.5-10.5h49.9c5.8,0,10.5,4.7,10.5,10.5v9.6
				c0,1-0.8,1.7-1.7,1.7s-1.7-0.8-1.7-1.7v-9.6c0-3.9-3.1-7-7-7h-49.9c-3.9,0-7,3.1-7,7v18.4C-110.8,78.3-111.6,79.1-112.5,79.1z"/>
		</g>
	</g>
	<g id="g3664_1_" transform="translate(211,247.2646)">
		<g id="path3666_1_">
			<path class="st6" d="M-162.5-168.7c-0.4,0-0.9-0.2-1.2-0.5c-17.2-17-27.1-40.7-27.1-64.9v-8.5c0-2.6,2.1-4.7,4.7-4.7h73.6
				c2.6,0,4.7,2.1,4.7,4.7v8.5c0,24.2-9.9,47.9-27.1,64.9c-0.7,0.7-1.8,0.7-2.5,0c-0.7-0.7-0.7-1.8,0-2.5
				c16.6-16.4,26.1-39.1,26.1-62.4v-8.5c0-0.6-0.5-1.2-1.2-1.2h-73.6c-0.6,0-1.2,0.5-1.2,1.2v8.5c0,23.3,9.5,46,26.1,62.4
				c0.7,0.7,0.7,1.8,0,2.5C-161.6-168.9-162-168.7-162.5-168.7z"/>
		</g>
	</g>
	<g id="g3668_1_" transform="translate(206,202.2646)">
		<g id="path3670_1_">
			<path class="st6" d="M-129.7-110.5h-29.2c-2.6,0-4.7-2.1-4.7-4.7v-7.3c0-2.6,2.1-4.7,4.7-4.7h29.2c2.6,0,4.7,2.1,4.7,4.7v7.3
				C-125.1-112.6-127.2-110.5-129.7-110.5z M-158.9-123.7c-0.6,0-1.2,0.5-1.2,1.2v7.3c0,0.6,0.5,1.2,1.2,1.2h29.2
				c0.6,0,1.2-0.5,1.2-1.2v-7.3c0-0.6-0.5-1.2-1.2-1.2H-158.9z"/>
		</g>
	</g>
	<g id="g3672_1_" transform="translate(263.6084,444.707)">
		<g id="path3674_1_">
			<path class="st6" d="M-192.2-391.2c-0.7,0-1.5-0.2-2.1-0.7l-7-5.1c-0.4-0.3-0.9-0.3-1.3,0l-7,5.1c-1.3,0.9-2.9,0.9-4.2,0
				c-1.3-0.9-1.8-2.5-1.3-4l2.7-8.2c0.1-0.5,0-0.9-0.4-1.2l-7-5.1c-1.3-0.9-1.8-2.5-1.3-4c0.5-1.5,1.8-2.5,3.4-2.5h8.6
				c0.5,0,0.9-0.3,1-0.8l2.7-8.2c0.5-1.5,1.8-2.5,3.4-2.5c0,0,0,0,0,0c1.6,0,2.9,1,3.4,2.5l2.7,8.2c0.1,0.5,0.6,0.8,1,0.8h8.6
				c1.6,0,2.9,1,3.4,2.5c0.5,1.5,0,3.1-1.3,4l-7,5.1c-0.4,0.3-0.5,0.8-0.4,1.2l2.7,8.2c0.5,1.5,0,3.1-1.3,4
				C-190.7-391.5-191.5-391.2-192.2-391.2z M-201.9-399.7c0.7,0,1.5,0.2,2.1,0.7l7,5.1c0.6,0.4,1.1,0.1,1.3,0
				c0.2-0.1,0.6-0.5,0.4-1.2l-2.7-8.2c-0.5-1.5,0-3.1,1.3-4l7-5.1c0.6-0.4,0.5-1,0.4-1.2c-0.1-0.2-0.3-0.8-1-0.8h-8.6
				c-1.6,0-2.9-1-3.4-2.5l-2.7-8.2c0,0,0,0,0,0c-0.2-0.7-0.9-0.8-1-0.8h0c-0.2,0-0.8,0.1-1,0.8l-2.7,8.2c-0.5,1.5-1.9,2.5-3.4,2.5
				h-8.6c-0.7,0-1,0.6-1,0.8c-0.1,0.2-0.2,0.8,0.4,1.2l7,5.1c1.3,0.9,1.8,2.5,1.3,4l-2.7,8.2c-0.2,0.7,0.2,1.1,0.4,1.2
				c0.2,0.1,0.7,0.4,1.3,0l7-5.1C-203.4-399.5-202.7-399.7-201.9-399.7z"/>
		</g>
	</g>
	<g>
		<g>
			<path class="st7" d="M105.2,130l6.6,18.9l6.2-6l8.6,0.9L120,125C115.9,128.2,110.8,130,105.2,130z"/>
		</g>
		<g>
			<path class="st7" d="M105.2,130c-5.6,0-10.7-1.9-14.8-5l-6.5,18.8l8.6-0.9l6.2,6L105.2,130z"/>
		</g>
		<g>
			<path class="st8" d="M121.1,128l-1-3c-4.1,3.2-9.2,5-14.8,5l1,3C111.8,132.8,116.9,131,121.1,128z"/>
		</g>
		<g>
			<path class="st8" d="M104.2,133l1-3c-5.6,0-10.7-1.9-14.8-5l-1,3C93.6,131,98.7,132.8,104.2,133L104.2,133z"/>
		</g>
		<g>
			<ellipse class="st9" cx="105.2" cy="105.7" rx="24.3" ry="24.3"/>
		</g>
		<g>
			<path class="st10" d="M105.2,127.6c-13,0-23.6-10.2-24.3-23.1c0,0.4,0,0.8,0,1.2c0,13.4,10.9,24.3,24.3,24.3s24.3-10.9,24.3-24.3
				c0-0.4,0-0.8,0-1.2C128.8,117.4,118.2,127.6,105.2,127.6L105.2,127.6z"/>
		</g>
		<g>
			<ellipse class="st11" cx="105.2" cy="105.7" rx="19.1" ry="19.1"/>
		</g>
		<g>
			<path class="st12" d="M105.2,122.4c-10.2,0-18.5-7.9-19.1-17.9c0,0.4,0,0.8,0,1.2c0,10.6,8.6,19.1,19.1,19.1s19.1-8.6,19.1-19.1
				c0-0.4,0-0.8,0-1.2C123.7,114.5,115.4,122.4,105.2,122.4z"/>
		</g>
		<g>
			<path class="st9" d="M106.3,118.3c-1.3,0-2.4-1.1-2.4-2.4v-14.7l-0.4,0.6c-0.7,1.1-2.2,1.5-3.3,0.8c-1.1-0.7-1.5-2.2-0.8-3.3l3-5
				c0.4-0.7,1.2-1.2,2.1-1.2h1.9c1.3,0,2.4,1.1,2.4,2.4v20.3C108.7,117.2,107.6,118.3,106.3,118.3L106.3,118.3z"/>
		</g>
		<g>
			<g>
				<path class="st10" d="M103.6,99.3c-0.6,1.1-2,1.5-3.1,1c-0.5-0.2-0.8-0.6-1-1c-0.7,1.1-0.3,2.6,0.8,3.3c1.1,0.7,2.7,0.3,3.4-0.9
					l0.3-0.6v-1.8C103.9,99.2,103.7,99.2,103.6,99.3z"/>
			</g>
			<g>
				<path class="st10" d="M106.3,115.8c-1.3,0-2.4-1.1-2.4-2.4v2.4c0,1.3,1.1,2.4,2.4,2.4c1.3,0,2.4-1.1,2.4-2.4v-2.4
					C108.7,114.8,107.6,115.8,106.3,115.8L106.3,115.8z"/>
			</g>
		</g>
	</g>
	<g>
		<g>
			<path class="st6" d="M108.7,106.2c0.6,0,1-0.5,1-1v-9.6c0-1.9-1.5-3.4-3.4-3.4h-1.9c-1.2,0-2.3,0.6-3,1.7l-3,5
				c-1,1.6-0.4,3.7,1.2,4.7c1,0.6,2.2,0.6,3.2,0.2v12.2c0,1.9,1.5,3.4,3.4,3.4c1.9,0,3.4-1.5,3.4-3.4v-6.6c0-0.6-0.5-1-1-1
				c-0.6,0-1,0.5-1,1v6.6c0,0.8-0.6,1.4-1.4,1.4s-1.4-0.6-1.4-1.4v-14.7c0-0.5-0.3-0.9-0.8-1c-0.4-0.1-0.9,0.1-1.1,0.5l-0.4,0.6
				c-0.4,0.7-1.2,0.9-1.9,0.5c-0.7-0.4-0.9-1.2-0.5-1.9l3-5c0.2-0.4,0.7-0.7,1.2-0.7h1.9c0.8,0,1.4,0.6,1.4,1.4v9.6
				C107.7,105.7,108.1,106.2,108.7,106.2L108.7,106.2z"/>
		</g>
		<g>
			<path class="st6" d="M125.4,105.7c0-11.1-9.1-20.2-20.2-20.2S85,94.6,85,105.7c0,0.6,0.5,1,1,1c0.6,0,1-0.5,1-1
				c0-10,8.1-18.1,18.1-18.1s18.1,8.1,18.1,18.1c0,10-8.1,18.1-18.1,18.1c-4.2,0-8.2-1.4-11.5-4.1c-3.2-2.6-5.4-6.2-6.3-10.2
				c-0.1-0.6-0.7-0.9-1.2-0.8c-0.6,0.1-0.9,0.7-0.8,1.2c1,4.4,3.4,8.5,7,11.4c3.6,2.9,8.1,4.5,12.8,4.5
				C116.3,125.9,125.4,116.9,125.4,105.7z"/>
		</g>
		<g>
			<path class="st6" d="M124.5,134.6c-0.2-0.5-0.8-0.8-1.3-0.6c-0.5,0.2-0.8,0.8-0.6,1.3l2.6,7.4l-7-0.7c-0.3,0-0.6,0.1-0.8,0.3
				l-5,4.9l-5.6-16.1c4.8-0.3,9.2-1.9,12.9-4.4l1.7,4.8c0.5,1.3,2.3,0.6,1.9-0.7l-1.9-5.4c5.7-4.7,9.3-11.7,9.3-19.6
				c0-14-11.4-25.4-25.4-25.4s-25.4,11.4-25.4,25.4c0,7.9,3.6,15,9.3,19.6l-6.3,18.1c-0.2,0.6,0.3,1.4,1.1,1.4l8.1-0.9l5.8,5.7
				c0.4,0.5,1.4,0.3,1.7-0.4l5.6-16.2l5.6,16.2c0.2,0.6,1.1,0.9,1.7,0.4l5.8-5.7l8.1,0.9c0.7,0.1,1.3-0.6,1.1-1.4L124.5,134.6z
				 M81.9,105.7c0-12.9,10.5-23.3,23.3-23.3s23.3,10.5,23.3,23.3c0,12.9-10.5,23.3-23.3,23.3S81.9,118.6,81.9,105.7L81.9,105.7z
				 M98.2,147.1l-5-4.9c-0.2-0.2-0.5-0.3-0.8-0.3l-7,0.7l5.6-16c3.7,2.5,8.1,4.1,12.9,4.4L98.2,147.1z"/>
		</g>
	</g>
</g>
</svg>
