<?xml version="1.0" encoding="utf-8"?>
<!-- Generator: Adobe Illustrator 25.0.0, SVG Export Plug-In . SVG Version: 6.00 Build 0)  -->
<svg version="1.1" id="Layer_1" xmlns="http://www.w3.org/2000/svg" xmlns:xlink="http://www.w3.org/1999/xlink" x="0px" y="0px"
	 viewBox="0 0 173 150" style="enable-background:new 0 0 173 150;" xml:space="preserve">
<style type="text/css">
	.st0{fill:#FFF2E8;}
	.st1{fill:#87796F;}
	.st2{fill:#F16C7A;}
	.st3{fill:#3A312A;}
	.st4{fill:#D7E057;}
	.st5{fill:#8AC6DD;}
	.st6{fill:#EF6D7A;}
	.st7{fill:#D6DF58;}
	.st8{fill:#8AC5DC;}
	.st9{fill:#35414D;}
	.st10{fill:#FFA733;}
	.st11{fill:#FF5A5A;}
	.st12{fill:#FDF6EC;stroke:#35414D;stroke-width:2.0076;stroke-miterlimit:10;}
	.st13{fill:none;}
	.st14{fill:#FFFFFF;}
	.st15{fill:#5D6D7E;}
	.st16{fill:#FF8E31;}
	.st17{fill:#FECE59;}
	.st18{fill:#34495E;}
	.st19{opacity:0.3;fill:#34495E;}
	.st20{opacity:0.2;fill:#FFFFFF;}
</style>
<g>
	<path class="st0" d="M99.8,106.3c0-16.7,13.6-30.3,30.3-30.3c8.4,0,16,3.4,21.4,8.9V16.5c0-2.1-0.5-4-1.4-5.7H5.3
		c-0.9,1.7-1.4,3.7-1.4,5.7V116c0,7,5.6,12.6,12.6,12.6h93.1C103.6,123.1,99.8,115.2,99.8,106.3z"/>
	<path class="st1" d="M83.2,3.9H13.8C8.2,3.9,3.6,8.4,3.6,14v9.4H152V14c0-5.6-4.6-10.1-10.2-10.1H91.7H83.2z"/>
	<g>
		<circle class="st2" cx="19.9" cy="13.6" r="4.3"/>
		<path class="st3" d="M19.9,18.9c-2.9,0-5.3-2.4-5.3-5.3s2.4-5.3,5.3-5.3s5.3,2.4,5.3,5.3S22.8,18.9,19.9,18.9z M19.9,10.2
			c-1.9,0-3.4,1.5-3.4,3.4S18,17,19.9,17c1.9,0,3.4-1.5,3.4-3.4C23.3,11.8,21.7,10.2,19.9,10.2z"/>
		<circle class="st4" cx="38" cy="13.6" r="4.3"/>
		<path class="st3" d="M38,18.9c-2.9,0-5.3-2.4-5.3-5.3s2.4-5.3,5.3-5.3s5.3,2.4,5.3,5.3S41,18.9,38,18.9z M38,10.2
			c-1.9,0-3.4,1.5-3.4,3.4S36.2,17,38,17c1.9,0,3.4-1.5,3.4-3.4C41.4,11.8,39.9,10.2,38,10.2z"/>
		<circle class="st5" cx="56.2" cy="13.6" r="4.3"/>
		<path class="st3" d="M56.2,18.9c-2.9,0-5.3-2.4-5.3-5.3s2.4-5.3,5.3-5.3c2.9,0,5.3,2.4,5.3,5.3S59.1,18.9,56.2,18.9z M56.2,10.2
			c-1.9,0-3.4,1.5-3.4,3.4s1.5,3.4,3.4,3.4c1.9,0,3.4-1.5,3.4-3.4C59.6,11.8,58.1,10.2,56.2,10.2z"/>
	</g>
	<g>
		<path class="st6" d="M19.7,100.7h12.2v17.4H19.7L19.7,100.7z"/>
		<path class="st3" d="M31.9,119.1H19.7c-0.5,0-1-0.4-1-1v-17.4c0-0.5,0.4-1,1-1h12.2c0.5,0,1,0.4,1,1v17.4
			C32.9,118.7,32.5,119.1,31.9,119.1z M20.7,117.2H31v-15.5H20.7L20.7,117.2z"/>
		<path class="st7" d="M36.7,83h12.2v35.1H36.7V83z"/>
		<path class="st3" d="M48.9,119.1H36.7c-0.5,0-1-0.4-1-1V83c0-0.5,0.4-1,1-1h12.2c0.5,0,1,0.4,1,1v35.1
			C49.8,118.7,49.4,119.1,48.9,119.1z M37.6,117.2h10.3V84H37.6V117.2z"/>
		<path class="st8" d="M53.6,92h12.2v26.2H53.6V92z"/>
		<path class="st3" d="M65.8,119.1H53.6c-0.5,0-1-0.4-1-1V92c0-0.5,0.4-1,1-1h12.2c0.5,0,1,0.4,1,1v26.2
			C66.7,118.7,66.3,119.1,65.8,119.1z M54.6,117.2h10.3V92.9H54.6V117.2z"/>
		<path class="st1" d="M70.5,76.1h12.2v42H70.5V76.1z"/>
		<path class="st3" d="M82.7,119.1H70.5c-0.5,0-1-0.4-1-1v-42c0-0.5,0.4-1,1-1h12.2c0.5,0,1,0.4,1,1v42
			C83.7,118.7,83.2,119.1,82.7,119.1L82.7,119.1z M71.5,117.2h10.3V77.1H71.5V117.2z"/>
	</g>
	<g>
		<path class="st9" d="M116.5,54.9h21.1c1.1,0,2-0.9,2-2c0-1.1-0.9-2-2-2h-21.1c-1.1,0-2,0.9-2,2C114.5,54.1,115.4,54.9,116.5,54.9z
			"/>
		<path class="st9" d="M116.5,35.6h21.1c1.1,0,2-0.9,2-2c0-1.1-0.9-2-2-2h-21.1c-1.1,0-2,0.9-2,2C114.5,34.7,115.4,35.6,116.5,35.6z
			"/>
		<path class="st9" d="M116.5,45.3h21.1c1.1,0,2-0.9,2-2c0-1.1-0.9-2-2-2h-21.1c-1.1,0-2,0.9-2,2C114.5,44.4,115.4,45.3,116.5,45.3z
			"/>
		<path class="st10" d="M104.6,35.6h3.1c1.1,0,2-0.9,2-2c0-1.1-0.9-2-2-2h-3.1c-1.1,0-2,0.9-2,2C102.6,34.7,103.5,35.6,104.6,35.6z"
			/>
		<path class="st11" d="M104.6,45.3h3.1c1.1,0,2-0.9,2-2c0-1.1-0.9-2-2-2h-3.1c-1.1,0-2,0.9-2,2C102.6,44.4,103.5,45.3,104.6,45.3z"
			/>
		<path class="st9" d="M104.6,54.9h3.1c1.1,0,2-0.9,2-2c0-1.1-0.9-2-2-2h-3.1c-1.1,0-2,0.9-2,2C102.6,54.1,103.5,54.9,104.6,54.9z"
			/>
	</g>
	<path class="st12" d="M135.9,17.3H79.5c-2,0-3.6-1.6-3.6-3.6v0c0-2,1.6-3.6,3.6-3.6h56.4c2,0,3.6,1.6,3.6,3.6v0
		C139.6,15.6,137.9,17.3,135.9,17.3z"/>
	<g>
		<path class="st9" d="M37.9,61.3c-3,0-4.7-0.3-5-0.8l-4.5-7.2l-0.1-0.1c-0.2-0.5-0.7-0.7-1.2-0.7c-0.1,0-0.2,0-0.3,0
			c-0.6,0.1-1,0.6-1.1,1.2c0,0.4-0.3,5.2-0.3,5.6c0,0.7-0.2,1.3-0.4,1.5c0,0,0,0,0,0h-4.8c-0.4,0-1.3-0.2-1.3-0.8
			c-0.1-10.4-0.1-23.8-0.2-28.8c0,0,0,0,0,0c2.6-0.4,3.3-0.5,3.5-0.5c0.1,0,0.2,0,0.4,0c0.4,0,1,0,1.3,0c0.1,0,0.5,0,0.9,0
			c0.3,0,0.6,0,0.8,0c0.2,0,0.3,0.1,0.3,0.6c0,1.1-0.1,2.3-0.1,3.4c-0.1,1.2-0.1,2.4-0.1,3.6l0,0.6c0,0.6,0.3,1.1,0.8,1.3
			c0.2,0.1,0.4,0.1,0.5,0.1c0.5,0,1-0.3,1.2-0.8l3.4-7c1-2.1,2.1-2.3,2.9-2.3h0.5c0,0,0,0,0,0c0.5,0.1,1.9,0.4,2.3,0.4
			c0.1,0,0.1,0,0.2,0c0.2,0,0.8,0.2,1.1,0.3c0.4,0.1,0.8,0.2,1,0.2c0.2,0.1,0.3,0.1,0.4,0.2c0,0.2,0,0.2,0,0.3l-7.8,13.8
			C32.1,45.8,32,46,32,46.3v0.2c0,0.3,0.1,0.6,0.3,0.9c0.8,0.9,4.1,5.2,4.7,6c0.2,0.3,1.3,2,1.6,2.5c0,0,0,0,0,0
			c0.2,0.5,1.3,2.7,1.6,3.3c0,0,0,0.1,0,0.1c0.1,0.2,0.3,0.7,0.3,1c0,0.5-0.3,0.9-0.8,1.1c0,0,0,0,0,0H37.9z"/>
		<path class="st9" d="M54.2,60.5c-2.5,0-3.2-0.4-3.7-2.4c-0.1-0.7-0.5-2.6-0.6-3.1c0,0,0,0,0,0L47,31.6v-0.3
			c0.2-0.1,0.7-0.3,2.1-0.3c0.3,0,0.7,0,0.9,0c0.2,0,0.4,0,0.6,0c4.1,0,4.2,1.8,4.2,2.6L55.5,48c0,0.6,0.5,1.2,1.1,1.3
			c0.1,0,0.1,0,0.2,0c0.6,0,1.1-0.4,1.3-0.9c0.2-0.6,1.3-3.1,1.9-4.3l0.3-0.7c1.2-2.7,1.9-3.3,4.7-3.3h1.2c0,0,0,0,0,0
			c0.7,0.2,1.4,0.6,1.9,2.1c0.1,0.3,0.4,1.2,0.7,2.1c0.4,1.4,0.9,3,1.1,3.6c0.1,0.2,0.2,0.5,0.4,0.9c0.2,0.5,0.7,0.8,1.3,0.8
			c0,0,0,0,0,0c0.5,0,1-0.4,1.2-0.9l0.1-0.4c0-0.1,0-0.1,0.1-0.2c2.9-12.9,4.1-17.4,6.2-17.4c0.8,0,4.5,0.1,4.5,2.4
			c0,0.7,0,1-0.2,1.8l-5.8,21l-0.1,0.6l0,0.1c-0.6,2.1-1.1,3.8-2.3,3.8c-1.4,0-2.8,0-4-0.1c-1.3-0.1-1.6-0.3-1.6-0.4c0,0,0,0,0,0
			l-4.6-6.7c-0.1-0.1-0.1-0.2-0.2-0.3l-0.3-0.3c-0.2-0.2-0.6-0.3-0.9-0.3c-0.1,0-0.2,0-0.4,0c-0.4,0.1-0.7,0.4-0.9,0.8
			c-0.1,0.2-0.4,0.7-0.5,0.9c0,0,0,0.1-0.1,0.1c-0.4,0.8-2.1,3.9-2.5,4.5C58.1,60.2,56.5,60.5,54.2,60.5z"/>
	</g>
	<path class="st13" d="M139,3.9H16.5c-4.9,0-9.1,2.8-11.2,6.9h144.9C148.1,6.7,143.9,3.9,139,3.9z"/>
	<path class="st0" d="M3.9,126.6v2h2C5.2,128,4.5,127.4,3.9,126.6z"/>
	<path class="st0" d="M151.6,128.6v-0.9c-0.3,0.3-0.6,0.6-0.9,0.9H151.6z"/>
	<path class="st9" d="M5.9,128.6c2.9,2.4,6.6,3.9,10.6,3.9h98.4c-1.9-1.1-3.7-2.4-5.3-3.9H5.9z"/>
	<path class="st9" d="M155.4,16.5v73.1c-1.1-1.7-2.4-3.3-3.9-4.8V10.8h-1.4c-2.1-4.1-6.3-6.9-11.2-6.9H16.5c-4.9,0-9.1,2.8-11.2,6.9
		c-0.9,1.7-1.4,3.7-1.4,5.7v110.2C1.5,123.8,0,120.1,0,116V16.5C0,7.4,7.4,0,16.5,0H139C148.1,0,155.4,7.4,155.4,16.5z"/>
	<path class="st9" d="M151.6,84.9C151.6,84.9,151.6,84.9,151.6,84.9l0-74.1h-1.4c0.9,1.7,1.4,3.7,1.4,5.7V84.9z"/>
	<path class="st9" d="M109.6,128.6H16.5c-7,0-12.6-5.6-12.6-12.6v10.6c0.6,0.7,1.3,1.4,2,2H109.6L109.6,128.6z"/>
	<path class="st14" d="M149.6,128.6h1.1c0.3-0.3,0.6-0.6,0.9-0.9v-1.1C151,127.4,150.3,128,149.6,128.6z"/>
	<g>
		<polygon class="st15" points="143.7,127.4 146.5,130.2 149.8,133.4 161.5,145.1 165.1,135.6 150.3,121 		"/>
		<g>
			<path class="st16" d="M158,127.1l13.4,13.4c1,1,1.6,2.4,1.6,3.9c0,1.5-0.6,2.9-1.6,3.9c-1,1-2.4,1.6-3.9,1.6
				c-1.5,0-2.9-0.6-3.9-1.6L150.1,135L158,127.1z"/>
			<path class="st17" d="M156.2,128.9L156.2,128.9l1.1-1.1l13.4,13.4c0.8,0.8,1.3,2,1.3,3.2c0,1.2-0.5,2.3-1.3,3.2
				c-0.2,0.1-0.4,0.2-0.5,0.2c-0.2,0-0.4-0.1-0.5-0.2c-0.3-0.3-0.3-0.8,0-1.1c0.6-0.6,0.9-1.3,0.9-2.1c0-0.8-0.3-1.5-0.9-2.1
				L156.2,128.9z"/>
			<path class="st18" d="M150.1,135l7.9-7.9l-0.6-0.6c-0.4-0.4-0.8-0.6-1.4-0.6c-0.5,0-1,0.2-1.4,0.6l-5.1,5.1
				c-0.4,0.3-0.6,0.8-0.6,1.4c0,0.5,0.2,1,0.6,1.4L150.1,135z"/>
		</g>
		<path class="st19" d="M130.1,86.5c-11.4,0-20.6,9.2-20.6,20.6c0,11.4,9.2,20.7,20.6,20.7c11.4,0,20.6-9.2,20.6-20.7
			C150.8,95.7,141.5,86.5,130.1,86.5z"/>
		<path class="st18" d="M130.1,82c-13.9,0-25.2,11.3-25.2,25.2c0,13.9,11.3,25.2,25.2,25.2c13.9,0,25.2-11.3,25.2-25.2
			C155.3,93.3,144,82,130.1,82z M130.1,129.6c-12.4,0-22.4-10-22.4-22.4c0-12.4,10.1-22.4,22.4-22.4c12.4,0,22.4,10.1,22.4,22.4
			C152.6,119.5,142.5,129.6,130.1,129.6z"/>
		<path class="st15" d="M130.1,84.7c-12.4,0-22.4,10.1-22.4,22.4c0,12.4,10.1,22.4,22.4,22.4c12.4,0,22.4-10,22.4-22.4
			C152.6,94.8,142.5,84.7,130.1,84.7z M130.1,127.8c-11.4,0-20.6-9.2-20.6-20.7c0-11.4,9.2-20.6,20.6-20.6
			c11.4,0,20.6,9.2,20.6,20.6C150.8,118.6,141.5,127.8,130.1,127.8z"/>
		<g>
			<path class="st20" d="M130.7,89.9c-0.4-0.5-1-0.8-1.6-0.8c-2.9,0.2-5.5,1-8,2.4c-0.9,0.5-1.2,1.6-0.7,2.5
				c0.5,0.9,1.6,1.2,2.5,0.7c2-1.1,4.1-1.8,6.4-1.9c1-0.1,1.8-0.9,1.7-1.9C131,90.5,130.8,90.1,130.7,89.9z"/>
			<path class="st20" d="M119,95.9c-0.1-0.1-0.2-0.3-0.4-0.4c-0.8-0.6-1.9-0.5-2.6,0.3c-1.9,2.3-3.1,5-3.7,7.9
				c-0.7,3.5-0.3,7,1,10.3c0.4,0.9,1.5,1.4,2.4,1c0.9-0.4,1.4-1.4,1-2.4c-1.1-2.6-1.3-5.4-0.8-8.2c0.4-2.3,1.5-4.5,2.9-6.3
				C119.4,97.4,119.4,96.5,119,95.9z"/>
		</g>
	</g>
</g>
</svg>
