<?xml version="1.0" encoding="utf-8"?>
<!-- Generator: Adobe Illustrator 26.0.2, SVG Export Plug-In . SVG Version: 6.00 Build 0)  -->
<svg version="1.1" id="Keyword-Research-Ad-Copy-Tools"
	 xmlns="http://www.w3.org/2000/svg" xmlns:xlink="http://www.w3.org/1999/xlink" x="0px" y="0px" viewBox="0 0 400 400"
	 style="enable-background:new 0 0 400 400;" xml:space="preserve">
<style type="text/css">
	.st0{fill:none;}
	.st1{fill:#D8EBFB;}
	.st2{fill:#515979;}
	.st3{fill:#F7FBFE;}
	.st4{fill:#F89D81;}
	.st5{fill:#FFFFFF;}
	.st6{fill:#EF7D7D;}
	.st7{fill:#9DC8FA;}
	.st8{fill:#75A5C3;}
	.st9{fill:#508CB4;}
	.st10{fill:#2DA0D2;}
	.st11{fill:#6ADAF7;}
	.st12{fill:#FFD886;}
</style>
<g>
	<g>
		<rect class="st0" width="400" height="400"/>
	</g>
	<g>
		<g>
			<g>
				<path class="st1" d="M177.35,362.81c-0.57,0-1.15-0.12-1.69-0.38l-14.74-6.89l-18.19,2.17c-0.16,0.02-0.32,0.03-0.47,0.03
					c-1.02,0-2-0.39-2.75-1.09c-0.86-0.82-1.32-1.97-1.24-3.16l4.51-70.89c0.13-1.97,1.67-3.56,3.64-3.73l220.17-19.26
					c0.12-0.01,0.24-0.02,0.35-0.02c2.05,0,3.8,1.57,3.98,3.65l4.68,53.53c0.11,1.31-0.42,2.59-1.43,3.43
					c-0.73,0.6-1.63,0.92-2.55,0.92c-0.36,0-0.72-0.05-1.08-0.15L354,316.35l-9.87,11.16c-0.78,0.88-1.88,1.35-3,1.35
					c-0.57,0-1.15-0.12-1.69-0.38l-13.05-6.11l-9.55,10.79c-0.78,0.88-1.88,1.35-3,1.35c-0.57,0-1.15-0.12-1.69-0.38l-13.05-6.11
					l-9.55,10.8c-0.78,0.88-1.88,1.35-3,1.35c-0.57,0-1.15-0.12-1.69-0.38l-13.05-6.11l-9.55,10.8c-0.78,0.88-1.88,1.35-3,1.35
					c-0.57,0-1.15-0.12-1.69-0.38l-13.05-6.11l-9.55,10.79c-0.78,0.88-1.88,1.35-3,1.35c-0.57,0-1.15-0.12-1.69-0.38l-13.05-6.11
					l-9.55,10.8c-0.78,0.88-1.88,1.35-3,1.35c-0.57,0-1.15-0.12-1.69-0.38l-13.06-6.11l-9.55,10.8
					C179.57,362.34,178.47,362.81,177.35,362.81z"/>
			</g>
			<g>
				<path class="st2" d="M366.93,263.59l4.68,53.53l-18.95-5.29l-11.53,13.03l-15.76-7.38l-11.53,13.03l-15.76-7.38l-11.53,13.04
					l-15.77-7.38l-11.53,13.04l-15.76-7.38l-11.53,13.03l-15.76-7.38l-11.53,13.04l-15.77-7.38l-11.53,13.04l-15.77-7.38
					l-19.33,2.31l4.51-70.89L366.93,263.59 M366.94,255.59c-0.23,0-0.47,0.01-0.71,0.03l-220.17,19.26
					c-3.94,0.34-7.04,3.52-7.29,7.46l-4.51,70.89c-0.15,2.37,0.76,4.69,2.49,6.32c1.49,1.41,3.47,2.19,5.5,2.19
					c0.32,0,0.63-0.02,0.95-0.06l17.06-2.04l13.71,6.41c1.09,0.51,2.24,0.75,3.39,0.75c2.24,0,4.44-0.94,5.99-2.7l7.57-8.56
					l10.35,4.84c1.09,0.51,2.24,0.75,3.39,0.75c2.24,0,4.44-0.94,5.99-2.7l7.57-8.55l10.34,4.84c1.09,0.51,2.24,0.75,3.39,0.75
					c2.24,0,4.44-0.94,5.99-2.7l7.57-8.55l10.35,4.84c1.09,0.51,2.24,0.75,3.39,0.75c2.24,0,4.44-0.94,5.99-2.7l7.57-8.55
					l10.35,4.84c1.09,0.51,2.24,0.75,3.39,0.75c2.24,0,4.44-0.94,5.99-2.7l7.57-8.55l10.34,4.84c1.09,0.51,2.24,0.75,3.39,0.75
					c2.24,0,4.44-0.94,5.99-2.7l7.57-8.55l10.34,4.84c1.09,0.51,2.24,0.75,3.39,0.75c2.24,0,4.44-0.94,5.99-2.7l8.21-9.28
					l14.13,3.94c0.71,0.2,1.43,0.29,2.15,0.29c1.84,0,3.66-0.64,5.11-1.85c2.02-1.68,3.09-4.24,2.86-6.85l-4.68-53.53
					C374.54,258.73,371.04,255.59,366.94,255.59L366.94,255.59z"/>
			</g>
		</g>
		<g>
			<g>
				<polygon class="st3" points="366.93,263.59 146.76,282.85 146.09,290.94 367.63,271.56 				"/>
			</g>
		</g>
		<g>
			<g>
				<g>
					<path class="st4" d="M94.2,371.73c-6.26,0-11.4-4.71-11.95-10.95c-0.28-3.19,0.7-6.3,2.76-8.76c2.06-2.46,4.95-3.96,8.15-4.24
						l1.88-0.17l2.82-45.75l-0.69,0.06c-0.35,0.03-0.71,0.05-1.05,0.05h0c-6.26,0-11.4-4.71-11.94-10.95
						c-0.28-3.19,0.7-6.3,2.76-8.76c2.06-2.46,4.95-3.96,8.15-4.24l63.75-5.58c0.12-0.01,0.23-0.02,0.35-0.02
						c1.04,0,2.05,0.41,2.8,1.14c0.83,0.82,1.27,1.96,1.19,3.13l-5.85,86.17c-0.13,1.97-1.68,3.54-3.64,3.71l-58.44,5.11
						C94.9,371.71,94.55,371.73,94.2,371.73z M117.79,345.62l18.49-1.62l2.69-45.74l-18.48,1.62L117.79,345.62z"/>
				</g>
			</g>
			<g>
				<g>
					<path class="st2" d="M159.19,276.41L159.19,276.41 M159.19,276.41l-5.85,86.17l-58.44,5.11c-0.24,0.02-0.47,0.03-0.71,0.03
						c-4.1,0-7.6-3.14-7.96-7.3c-0.39-4.4,2.87-8.28,7.27-8.67l5.31-0.46l3.32-53.83l-5.31,0.46c-0.24,0.02-0.47,0.03-0.71,0.03
						c-4.1,0-7.6-3.14-7.96-7.3c-0.39-4.4,2.87-8.28,7.27-8.67L159.19,276.41 M116.36,349.74c0.08,0,0.16,0,0.24-0.01l21.17-1.85
						c1.29-0.11,2.31-1.13,2.42-2.42l2.85-48.43c0.14-1.57-1.11-2.9-2.65-2.9c-0.08,0-0.16,0-0.24,0.01l-21.17,1.85
						c-1.29,0.11-2.31,1.13-2.42,2.42l-2.85,48.43C113.57,348.42,114.82,349.74,116.36,349.74 M159.19,268.41c-0.04,0-0.09,0-0.13,0
						c-0.22,0-0.44,0.02-0.66,0.04l-63.66,5.57c-4.26,0.37-8.12,2.38-10.86,5.65c-2.75,3.27-4.05,7.42-3.68,11.68
						c0.65,7.48,6.24,13.3,13.42,14.41L91.26,344c-3.64,0.68-6.9,2.57-9.31,5.44c-2.75,3.27-4.05,7.42-3.68,11.68
						c0.73,8.33,7.58,14.61,15.93,14.61c0.47,0,0.94-0.02,1.4-0.06l58.44-5.11c3.93-0.34,7.02-3.5,7.28-7.43l5.83-85.92
						c0.03-0.26,0.04-0.52,0.04-0.79c0-4.41-3.56-7.98-7.96-8C159.22,268.41,159.21,268.41,159.19,268.41L159.19,268.41z
						 M159.19,284.41L159.19,284.41L159.19,284.41L159.19,284.41z M124.27,303.56l10.43-0.91l-2.22,37.67l-10.43,0.91L124.27,303.56
						L124.27,303.56z"/>
				</g>
			</g>
		</g>
		<g>
			<circle class="st2" cx="149.87" cy="284.59" r="3.33"/>
		</g>
		<g>
			<circle class="st2" cx="145.4" cy="355.91" r="3.33"/>
		</g>
		<g>
			<g>
				<g>
					<path class="st2" d="M220.92,310.23c-0.77,0-1.5-0.44-1.83-1.19c-0.45-1.01,0-2.19,1.01-2.64c2.6-1.16,6.64-1.51,9.4-0.82
						c1.07,0.27,1.72,1.35,1.46,2.42c-0.27,1.07-1.35,1.72-2.42,1.46c-1.87-0.47-5.05-0.19-6.81,0.6
						C221.47,310.17,221.19,310.23,220.92,310.23z"/>
				</g>
				<g>
					<g>
						<circle class="st2" cx="224.29" cy="300.11" r="6.97"/>
					</g>
					<g>
						<circle class="st5" cx="226.03" cy="299.96" r="1.74"/>
					</g>
				</g>
				<g>
					<path class="st2" d="M197.76,312.25c-0.77,0-1.5-0.44-1.83-1.19c-0.45-1.01,0-2.19,1.01-2.64c2.6-1.16,6.64-1.51,9.4-0.82
						c1.07,0.27,1.72,1.35,1.46,2.42c-0.27,1.07-1.35,1.72-2.42,1.46c-1.87-0.47-5.05-0.19-6.81,0.6
						C198.31,312.2,198.03,312.25,197.76,312.25z"/>
				</g>
				<g>
					<g>
						<circle class="st2" cx="201.13" cy="302.14" r="6.97"/>
					</g>
					<g>
						<circle class="st5" cx="202.87" cy="301.98" r="1.74"/>
					</g>
				</g>
				<g>
					<path class="st2" d="M219.41,285.51c4.42-2.4,10.92-1.24,13.31,3.44c0.86,1.64-0.71,3.66-2.49,3.28
						c-1.69-0.29-3.46-0.83-5.07-1.18c-1.71-0.43-3.91-0.72-5.51-1.45C217.9,288.95,217.77,286.35,219.41,285.51L219.41,285.51z"/>
				</g>
				<g>
					<path class="st2" d="M203.27,291.36c-1.26,0.74-3.22,1.4-4.57,2.01c-1.34,0.56-2.77,1.26-4.19,1.82
						c-1.34,0.69-3,0.37-3.57-1.14c-0.52-1.78,0.82-3.57,2-4.77c2.8-2.62,6.8-3.54,10.46-2.35c1.78,0.54,2.06,3.13,0.47,4.06
						C203.88,290.97,203.27,291.36,203.27,291.36L203.27,291.36z"/>
				</g>
			</g>
		</g>
		<g>
			<g>
				<g>
					<path class="st2" d="M214.27,331.04c-6.26,0-11.4-4.71-11.94-10.96c-0.06-0.7,0.16-1.4,0.61-1.95
						c0.45-0.54,1.11-0.88,1.81-0.94l18.6-1.63c0.08-0.01,0.16-0.01,0.23-0.01c1.37,0,2.53,1.05,2.65,2.43
						c0.58,6.59-4.32,12.42-10.91,13C214.97,331.03,214.62,331.04,214.27,331.04z"/>
				</g>
				<g>
					<path class="st2" d="M223.58,318.23c0.45,5.14-3.35,9.66-8.48,10.11c-0.28,0.02-0.55,0.04-0.82,0.04
						c-4.79,0-8.86-3.66-9.29-8.52L223.58,318.23 M223.58,312.89c-0.15,0-0.31,0.01-0.46,0.02l-18.6,1.63
						c-2.93,0.26-5.1,2.84-4.85,5.78c0.67,7.63,6.94,13.39,14.6,13.39c0.43,0,0.86-0.02,1.29-0.06c8.06-0.7,14.04-7.83,13.33-15.89
						c-0.12-1.41-0.8-2.71-1.88-3.62C226.04,313.33,224.83,312.89,223.58,312.89L223.58,312.89z"/>
				</g>
			</g>
			<g>
				
					<ellipse transform="matrix(0.9962 -0.0872 0.0872 0.9962 -27.529 19.9605)" class="st6" cx="214.82" cy="325.24" rx="6.94" ry="3.11"/>
			</g>
		</g>
		<g>
			<g>
				<g>
					<circle class="st7" cx="185.63" cy="312.85" r="2"/>
				</g>
			</g>
			<g>
				<g>
					<circle class="st7" cx="181.56" cy="319.9" r="2"/>
				</g>
			</g>
			<g>
				<g>
					<circle class="st7" cx="190.86" cy="319.08" r="2"/>
				</g>
			</g>
		</g>
		<g>
			<circle class="st7" cx="241.42" cy="307.97" r="2"/>
		</g>
		<g>
			<circle class="st7" cx="237.35" cy="315.02" r="2"/>
		</g>
		<g>
			<circle class="st7" cx="246.65" cy="314.2" r="2"/>
		</g>
	</g>
	<g>
		<g>
			<g>
				<path class="st8" d="M52.05,257.2c-0.34,0-0.69-0.04-1.04-0.14l-10.3-2.76c-1.84-0.49-3.08-2.22-2.96-4.12l1.75-27.14
					c0.06-0.89,0.41-1.73,1-2.4l7.29-8.22l16.32-60.91c0.27-1.02,0.95-1.9,1.86-2.43c0.61-0.35,1.3-0.54,2-0.54
					c0.35,0,0.69,0.04,1.04,0.14l10.3,2.76c2.13,0.57,3.4,2.77,2.83,4.9l-16.32,60.91l2.2,10.76c0.18,0.87,0.06,1.78-0.33,2.58
					l-12.05,24.38C54.95,256.36,53.54,257.2,52.05,257.2z"/>
			</g>
			<g>
				<path class="st2" d="M67.98,152.55l10.3,2.76l-16.56,61.82l2.39,11.68l-12.05,24.38l-10.3-2.76l1.75-27.14l7.91-8.92
					L67.98,152.55 M67.97,144.55c-3.53,0-6.76,2.36-7.72,5.93l-16.08,60l-6.66,7.51c-1.18,1.33-1.88,3.02-2,4.79l-1.75,27.14
					c-0.25,3.81,2.23,7.26,5.91,8.24l10.3,2.76c0.69,0.18,1.39,0.27,2.07,0.27c2.98,0,5.8-1.68,7.17-4.46l12.05-24.38
					c0.79-1.59,1.02-3.41,0.67-5.15l-2.01-9.83l16.08-60c1.14-4.27-1.39-8.65-5.66-9.8l-10.3-2.76
					C69.35,144.64,68.66,144.55,67.97,144.55L67.97,144.55z"/>
			</g>
		</g>
		<g>
			<g>
				<path class="st4" d="M108.39,119.07c-0.34,0-0.69-0.04-1.04-0.14l-46.36-12.42c-1.02-0.27-1.9-0.95-2.43-1.86
					c-0.53-0.92-0.67-2.01-0.4-3.04l17.25-64.4c3.28-12.22,14.39-20.76,27.03-20.76c2.44,0,4.88,0.32,7.26,0.96
					c14.91,4,23.79,19.38,19.8,34.29l-17.25,64.4C111.77,117.89,110.16,119.07,108.39,119.07z"/>
			</g>
			<g>
				<g>
					<path class="st2" d="M102.44,20.46c2.06,0,4.15,0.27,6.23,0.82v0c12.8,3.43,20.4,16.59,16.97,29.39l-17.25,64.4l-46.36-12.42
						l17.25-64.4C82.15,27.53,91.85,20.46,102.44,20.46 M102.45,12.46C102.45,12.46,102.45,12.46,102.45,12.46
						c-14.45,0-27.15,9.76-30.9,23.72l-17.25,64.4c-1.14,4.27,1.39,8.65,5.66,9.8l46.36,12.42c0.68,0.18,1.38,0.27,2.07,0.27
						c1.39,0,2.77-0.36,4-1.07c1.84-1.06,3.18-2.81,3.73-4.86l17.25-64.4c2.21-8.26,1.08-16.88-3.2-24.28
						c-4.27-7.4-11.17-12.7-19.43-14.91C108.03,12.83,105.24,12.46,102.45,12.46L102.45,12.46z"/>
				</g>
			</g>
		</g>
		<g>
			<g>
				<g>
					<g>
						<g>
							<path class="st2" d="M110.15,80.25c-0.23,0-0.46-0.03-0.69-0.09c-1.42-0.38-2.27-1.84-1.89-3.27
								c0.38-1.42-0.47-2.89-1.89-3.27c-1.42-0.38-2.89,0.47-3.27,1.89c-0.38,1.42-1.85,2.27-3.27,1.89
								c-1.42-0.38-2.27-1.84-1.89-3.27c0.55-2.06,1.88-3.79,3.73-4.86c1.85-1.07,4.01-1.35,6.07-0.8c4.26,1.14,6.8,5.54,5.66,9.8
								C112.41,79.46,111.33,80.25,110.15,80.25z"/>
						</g>
					</g>
					<g>
						<g>
							<path class="st2" d="M89.55,74.72c-0.23,0-0.46-0.03-0.69-0.09c-1.42-0.38-2.27-1.84-1.89-3.27
								c0.38-1.42-0.47-2.89-1.89-3.27c-1.42-0.38-2.89,0.47-3.27,1.89c-0.38,1.42-1.85,2.27-3.27,1.89
								c-1.42-0.38-2.27-1.84-1.89-3.27c0.55-2.06,1.88-3.79,3.73-4.86c1.85-1.07,4.01-1.35,6.07-0.8c2.06,0.55,3.79,1.88,4.86,3.73
								c1.07,1.85,1.35,4.01,0.8,6.07C91.8,73.94,90.72,74.72,89.55,74.72z"/>
						</g>
					</g>
					<g>
						<path class="st2" d="M104.8,58.05c5.55-0.63,11.84,2.98,12.76,8.74c0.34,1.92-2.02,3.35-3.57,2.21
							c-1.75-1.21-3.1-2.38-4.85-3.47c-1.64-1.08-3.91-2.23-5.43-3.44C102.08,60.95,102.85,58.23,104.8,58.05L104.8,58.05z"/>
					</g>
					<g>
						<path class="st2" d="M91.99,59.19c-1.69,0.17-4.13,0.09-5.85,0.18c-2.06,0.08-3.81,0.41-5.93,0.59
							c-1.26,0.1-2.37-0.84-2.47-2.11c-0.05-0.6,0.14-1.16,0.48-1.6c2.69-3.46,7.75-4.21,11.73-3.02c1.32,0.39,2.47,0.9,3.69,1.82
							C95.49,56.57,94.28,59.23,91.99,59.19L91.99,59.19z"/>
					</g>
				</g>
			</g>
		</g>
		<g>
			<g>
				<path class="st2" d="M96.55,87.72c-5.83,0-11.39-2.52-16.15-7.43c-1.03-1.06-1-2.75,0.06-3.77c1.06-1.03,2.74-1,3.77,0.06
					c3.66,3.78,9.73,7.68,17.82,4.83c1.39-0.49,2.91,0.24,3.4,1.63c0.49,1.39-0.24,2.91-1.63,3.4
					C101.38,87.3,98.94,87.72,96.55,87.72z"/>
			</g>
			<g>
				<path class="st2" d="M86.08,88.4c2.71,1.24,5.62,2.04,8.58,2.3c1.16,0.06,1.5,1.74,0.48,2.26c0,0-0.72,0.39-0.72,0.39
					c-3.22,1.58-7.46,0.45-9.45-2.53c0,0-0.42-0.7-0.42-0.7C83.91,89.15,85.06,87.89,86.08,88.4L86.08,88.4z"/>
			</g>
		</g>
		<g>
			<g>
				
					<rect x="74.1" y="100.45" transform="matrix(0.2588 -0.9659 0.9659 0.2588 -55.4918 168.582)" class="st6" width="16" height="40"/>
			</g>
			<g>
				<g>
					<path class="st2" d="M67.68,112.44l30.91,8.28l-2.07,7.73l-30.91-8.28L67.68,112.44 M62.02,102.65l-2.07,7.73l-2.07,7.73
						l-2.07,7.73l7.73,2.07l30.91,8.28l7.73,2.07l2.07-7.73l2.07-7.73l2.07-7.73l-7.73-2.07l-30.91-8.28L62.02,102.65L62.02,102.65z
						"/>
				</g>
			</g>
		</g>
		<g>
			<g>
				<path class="st4" d="M101.3,155.82c-0.35,0-0.69-0.04-1.04-0.14l-51.52-13.8c-2.13-0.57-3.4-2.76-2.83-4.9l3.45-12.88
					c0.27-1.02,0.95-1.9,1.86-2.43c0.61-0.35,1.3-0.54,2-0.54c0.35,0,0.69,0.04,1.04,0.14l51.52,13.8c2.13,0.57,3.4,2.76,2.83,4.9
					l-3.45,12.88c-0.27,1.02-0.95,1.9-1.86,2.43C102.69,155.64,102,155.82,101.3,155.82z"/>
			</g>
			<g>
				<g>
					<path class="st2" d="M53.24,125.14l51.52,13.8l-3.45,12.88l-51.52-13.8L53.24,125.14 M53.23,117.14
						c-3.53,0-6.76,2.36-7.72,5.93l-3.45,12.88c-1.14,4.27,1.39,8.65,5.66,9.8l51.52,13.8c0.68,0.18,1.38,0.27,2.07,0.27
						c1.39,0,2.77-0.36,4-1.07c1.84-1.06,3.18-2.81,3.73-4.86l3.45-12.88c1.14-4.27-1.39-8.65-5.66-9.8l-51.52-13.8
						C54.61,117.22,53.92,117.14,53.23,117.14L53.23,117.14z"/>
				</g>
			</g>
		</g>
		<g>
			
				<rect x="64.73" y="155.04" transform="matrix(0.2588 -0.9659 0.9659 0.2588 -101.9875 187.8341)" class="st9" width="13.33" height="10.67"/>
		</g>
	</g>
	<g>
		<g>
			<g>
				<path class="st10" d="M173.33,203.8c-6.62,0-12-5.38-12-12v-70.67c0-6.62,5.38-12,12-12H368c6.62,0,12,5.38,12,12v70.67
					c0,6.62-5.38,12-12,12H173.33z"/>
			</g>
			<g>
				<g>
					<path class="st2" d="M368,113.13c4.42,0,8,3.58,8,8v70.67c0,4.42-3.58,8-8,8H173.33c-4.42,0-8-3.58-8-8v-70.67
						c0-4.42,3.58-8,8-8H368 M368,105.13H173.33c-8.82,0-16,7.18-16,16v70.67c0,8.82,7.18,16,16,16H368c8.82,0,16-7.18,16-16v-70.67
						C384,112.31,376.82,105.13,368,105.13L368,105.13z"/>
				</g>
			</g>
		</g>
		<g>
			<g>
				<path class="st11" d="M149.33,203.8c-6.62,0-12-5.38-12-12v-70.67c0-6.62,5.38-12,12-12H344c6.62,0,12,5.38,12,12v70.67
					c0,6.62-5.38,12-12,12H149.33z"/>
			</g>
			<g>
				<g>
					<path class="st2" d="M344,113.13c4.42,0,8,3.58,8,8v70.67c0,4.42-3.58,8-8,8H149.33c-4.42,0-8-3.58-8-8v-70.67
						c0-4.42,3.58-8,8-8H344 M344,105.13H149.33c-8.82,0-16,7.18-16,16v70.67c0,8.82,7.18,16,16,16H344c8.82,0,16-7.18,16-16v-70.67
						C360,112.31,352.82,105.13,344,105.13L344,105.13z"/>
				</g>
			</g>
		</g>
		<g>
			<g>
				<g>
					<path class="st2" d="M272.66,139.26c-0.43,0-0.86-0.1-1.26-0.32c-2.53-1.35-6.95-1.35-9.48,0c-1.3,0.7-2.91,0.21-3.61-1.09
						c-0.7-1.3-0.21-2.91,1.09-3.61c4.07-2.18,10.45-2.18,14.52,0c1.3,0.7,1.79,2.31,1.09,3.61
						C274.54,138.75,273.62,139.26,272.66,139.26z"/>
				</g>
				<g>
					<g>
						<circle class="st2" cx="266.67" cy="126.26" r="9.33"/>
					</g>
					<g>
						<circle class="st5" cx="269" cy="126.26" r="2.33"/>
					</g>
				</g>
				<g>
					<g>
						<path class="st2" d="M247.15,154.29c-7.05,0-14.28-1.89-20.53-5.69c-1.26-0.76-1.66-2.4-0.9-3.66c0.76-1.26,2.4-1.66,3.66-0.9
							c10.67,6.48,25.15,6.49,34.43,0.03c1.21-0.84,2.87-0.54,3.71,0.67c0.84,1.21,0.54,2.87-0.67,3.71
							C261.27,152.34,254.3,154.29,247.15,154.29z"/>
					</g>
					<g>
						<path class="st2" d="M241.1,158.44c3.6,1.05,7.54,1.15,11.13,0c1.71-0.62,3.12,1.61,1.85,2.89c0,0-0.96,1.01-0.96,1.01
							c-3.78,3.57-10.24,2.73-13.77-0.78C237.84,160.29,239.27,157.82,241.1,158.44L241.1,158.44z"/>
					</g>
				</g>
				<g>
					<path class="st2" d="M260.04,95.58c4.32-3.87,11.33-4.55,16.1-1.04c2.42,1.7,5.8,6.15,2.09,8.08
						c-0.93,0.42-1.87,0.16-2.71-0.26c-2.22-1.03-3.73-1.78-6-2.08c-2.12-0.35-4.75-0.05-6.94-0.01c0,0-1.04-0.1-1.04-0.1
						C259.29,100.02,258.34,96.99,260.04,95.58L260.04,95.58z"/>
				</g>
				<g>
					<path class="st2" d="M232.66,139.26c-0.43,0-0.86-0.1-1.26-0.32c-2.53-1.35-6.95-1.35-9.48,0c-1.3,0.7-2.91,0.21-3.61-1.09
						c-0.7-1.3-0.21-2.91,1.09-3.61c4.07-2.18,10.45-2.18,14.52,0c1.3,0.7,1.79,2.31,1.09,3.61
						C234.54,138.75,233.62,139.26,232.66,139.26z"/>
				</g>
				<g>
					<g>
						<circle class="st2" cx="226.67" cy="126.26" r="9.33"/>
					</g>
					<g>
						<circle class="st5" cx="229" cy="126.26" r="2.33"/>
					</g>
				</g>
				<g>
					<path class="st2" d="M230.76,100.27c-2.19-0.04-4.82-0.34-6.94,0.01c-2.28,0.29-3.78,1.05-6,2.08c-1.5,0.87-3.47,0.49-4.17-1.2
						c-0.3-0.7-0.27-1.46,0-2.12c0.71-1.71,1.88-3.35,3.56-4.51c3.95-2.95,9.64-2.9,13.8-0.59c1.93,0.99,4.44,3.04,2.51,5.35
						C232.83,100.13,231.72,100.2,230.76,100.27L230.76,100.27z"/>
				</g>
			</g>
		</g>
		<g>
			<g>
				<path class="st5" d="M186.07,180.37h0.65c0.6,0,1.03-0.19,1.3-0.56l3.94-5.71c0.23-0.3,0.48-0.51,0.75-0.63s0.6-0.17,1-0.17
					h3.53l-5.18,7.07c-0.37,0.49-0.76,0.84-1.19,1.06c0.3,0.11,0.58,0.27,0.83,0.47c0.25,0.2,0.48,0.46,0.7,0.78l5.28,8.11h-3.62
					c-0.23,0-0.43-0.02-0.59-0.05c-0.16-0.03-0.31-0.08-0.43-0.14c-0.12-0.07-0.23-0.14-0.31-0.23c-0.09-0.09-0.17-0.2-0.25-0.32
					l-3.96-6.08c-0.14-0.22-0.33-0.38-0.55-0.47c-0.22-0.09-0.52-0.14-0.89-0.14h-0.98v7.44h-4.06v-17.48h4.06V180.37z"/>
			</g>
			<g>
				<path class="st5" d="M204.25,176.41v4.08h5.5v3h-5.5v4.16h7.18v3.12h-11.26v-17.48h11.26v3.12H204.25z"/>
			</g>
			<g>
				<path class="st5" d="M223.49,184.13v6.65h-4.06v-6.65l-6.34-10.84h3.58c0.35,0,0.63,0.08,0.83,0.25s0.37,0.37,0.51,0.63
					l2.47,5.09c0.21,0.4,0.4,0.77,0.56,1.12c0.17,0.35,0.32,0.69,0.44,1.03c0.12-0.34,0.26-0.69,0.41-1.04
					c0.16-0.35,0.34-0.72,0.55-1.11l2.45-5.09c0.06-0.1,0.12-0.21,0.2-0.31c0.08-0.1,0.17-0.2,0.28-0.28
					c0.11-0.08,0.23-0.15,0.37-0.2c0.14-0.05,0.29-0.08,0.46-0.08h3.6L223.49,184.13z"/>
			</g>
			<g>
				<path class="st5" d="M256.22,173.29l-5.4,17.48h-3.67l-3.29-10.84c-0.07-0.17-0.12-0.35-0.18-0.56
					c-0.06-0.2-0.11-0.42-0.17-0.64c-0.06,0.22-0.11,0.44-0.17,0.64c-0.06,0.2-0.12,0.39-0.18,0.56l-3.34,10.84h-3.67l-5.4-17.48
					h3.41c0.35,0,0.65,0.08,0.88,0.24c0.24,0.16,0.39,0.37,0.46,0.64l2.4,9.12c0.07,0.29,0.14,0.6,0.21,0.94
					c0.07,0.34,0.14,0.69,0.22,1.06c0.14-0.75,0.32-1.42,0.53-2l2.83-9.12c0.07-0.22,0.23-0.43,0.46-0.61
					c0.24-0.18,0.52-0.27,0.86-0.27h1.2c0.35,0,0.64,0.08,0.85,0.25c0.21,0.16,0.38,0.37,0.49,0.63l2.81,9.12
					c0.21,0.56,0.38,1.2,0.53,1.91c0.07-0.36,0.13-0.7,0.2-1.01c0.07-0.32,0.14-0.61,0.21-0.89l2.4-9.12
					c0.06-0.23,0.22-0.44,0.46-0.61c0.24-0.18,0.53-0.26,0.86-0.26H256.22z"/>
			</g>
			<g>
				<path class="st5" d="M275.87,182.03c0,1.26-0.22,2.44-0.65,3.53c-0.44,1.09-1.05,2.03-1.84,2.84c-0.79,0.8-1.75,1.43-2.86,1.89
					c-1.12,0.46-2.35,0.68-3.71,0.68c-1.36,0-2.6-0.23-3.72-0.68c-1.12-0.46-2.08-1.09-2.87-1.89c-0.8-0.8-1.41-1.75-1.85-2.84
					c-0.44-1.09-0.65-2.26-0.65-3.53c0-1.26,0.22-2.44,0.65-3.53c0.43-1.09,1.05-2.03,1.85-2.83c0.8-0.8,1.75-1.43,2.87-1.88
					c1.12-0.46,2.36-0.68,3.72-0.68c1.36,0,2.6,0.23,3.71,0.69c1.12,0.46,2.07,1.09,2.86,1.89c0.79,0.8,1.41,1.74,1.84,2.83
					C275.65,179.6,275.87,180.77,275.87,182.03z M271.72,182.03c0-0.86-0.11-1.64-0.34-2.33c-0.23-0.69-0.55-1.28-0.97-1.76
					c-0.42-0.48-0.93-0.85-1.54-1.1c-0.61-0.26-1.3-0.38-2.08-0.38c-0.78,0-1.48,0.13-2.09,0.38c-0.61,0.26-1.13,0.62-1.55,1.1
					c-0.42,0.48-0.74,1.07-0.97,1.76c-0.22,0.69-0.34,1.47-0.34,2.33c0,0.87,0.11,1.65,0.34,2.35c0.22,0.69,0.55,1.28,0.97,1.76
					c0.42,0.48,0.94,0.85,1.55,1.1c0.61,0.25,1.31,0.38,2.09,0.38c0.78,0,1.47-0.13,2.08-0.38c0.61-0.25,1.12-0.62,1.54-1.1
					c0.42-0.48,0.74-1.07,0.97-1.76C271.61,183.68,271.72,182.9,271.72,182.03z"/>
			</g>
			<g>
				<path class="st5" d="M293.77,190.77h-3.67c-0.68,0-1.17-0.26-1.46-0.77l-2.9-5.08c-0.14-0.22-0.29-0.37-0.46-0.47
					s-0.41-0.15-0.72-0.15h-1.03v6.47h-4.06v-17.48h5.69c1.26,0,2.34,0.13,3.23,0.39c0.89,0.26,1.62,0.62,2.18,1.09
					c0.56,0.46,0.97,1.01,1.23,1.64c0.26,0.63,0.38,1.32,0.38,2.07c0,0.57-0.08,1.1-0.23,1.61c-0.15,0.5-0.38,0.97-0.67,1.4
					c-0.3,0.43-0.66,0.81-1.1,1.15s-0.94,0.61-1.51,0.83c0.26,0.14,0.51,0.31,0.74,0.51c0.23,0.2,0.44,0.45,0.62,0.73L293.77,190.77
					z M285.15,181.51c0.55,0,1.02-0.07,1.41-0.21c0.39-0.14,0.71-0.33,0.95-0.58c0.25-0.25,0.43-0.54,0.54-0.87
					c0.11-0.33,0.17-0.69,0.17-1.07c0-0.77-0.25-1.37-0.75-1.8c-0.5-0.43-1.27-0.65-2.32-0.65h-1.63v5.18H285.15z"/>
			</g>
			<g>
				<path class="st5" d="M312.3,182.03c0,1.26-0.22,2.43-0.65,3.5c-0.44,1.07-1.05,1.99-1.84,2.77s-1.75,1.39-2.86,1.82
					c-1.12,0.44-2.35,0.65-3.71,0.65h-6.79v-17.48h6.79c1.36,0,2.6,0.22,3.71,0.66c1.12,0.44,2.07,1.05,2.86,1.82
					c0.79,0.78,1.41,1.7,1.84,2.77C312.09,179.61,312.3,180.77,312.3,182.03z M308.15,182.03c0-0.86-0.11-1.64-0.34-2.34
					c-0.22-0.7-0.55-1.29-0.97-1.77c-0.42-0.48-0.93-0.86-1.54-1.12s-1.3-0.39-2.08-0.39h-2.71v11.24h2.71
					c0.78,0,1.47-0.13,2.08-0.39c0.61-0.26,1.12-0.63,1.54-1.12c0.42-0.48,0.74-1.07,0.97-1.77
					C308.04,183.68,308.15,182.9,308.15,182.03z"/>
			</g>
		</g>
	</g>
	<g>
		<path class="st12" d="M187.87,65.87c-3.53,0-6.4-2.87-6.4-6.4c0-1.18-0.96-2.13-2.13-2.13c-1.18,0-2.13,0.96-2.13,2.13
			c0,3.53-2.87,6.4-6.4,6.4c-1.18,0-2.13,0.96-2.13,2.13s0.96,2.13,2.13,2.13c3.53,0,6.4,2.87,6.4,6.4c0,1.18,0.96,2.13,2.13,2.13
			c1.18,0,2.13-0.96,2.13-2.13c0-3.53,2.87-6.4,6.4-6.4c1.18,0,2.13-0.96,2.13-2.13S189.04,65.87,187.87,65.87z"/>
	</g>
	<g>
		<path class="st12" d="M272.93,229.6c-3.97,0-7.2-3.23-7.2-7.2c0-1.33-1.07-2.4-2.4-2.4c-1.33,0-2.4,1.07-2.4,2.4
			c0,3.97-3.23,7.2-7.2,7.2c-1.33,0-2.4,1.07-2.4,2.4s1.07,2.4,2.4,2.4c3.97,0,7.2,3.23,7.2,7.2c0,1.33,1.07,2.4,2.4,2.4
			c1.33,0,2.4-1.07,2.4-2.4c0-3.97,3.23-7.2,7.2-7.2c1.33,0,2.4-1.07,2.4-2.4S274.26,229.6,272.93,229.6z"/>
	</g>
	<g>
		<path class="st12" d="M63.6,294.93c-3.97,0-7.2-3.23-7.2-7.2c0-1.33-1.07-2.4-2.4-2.4c-1.33,0-2.4,1.07-2.4,2.4
			c0,3.97-3.23,7.2-7.2,7.2c-1.33,0-2.4,1.07-2.4,2.4c0,1.33,1.07,2.4,2.4,2.4c3.97,0,7.2,3.23,7.2,7.2c0,1.33,1.07,2.4,2.4,2.4
			c1.33,0,2.4-1.07,2.4-2.4c0-3.97,3.23-7.2,7.2-7.2c1.33,0,2.4-1.07,2.4-2.4C66,296.01,64.93,294.93,63.6,294.93z"/>
	</g>
	<g>
		<circle class="st12" cx="110" cy="210.67" r="4"/>
	</g>
	<g>
		<circle class="st12" cx="332" cy="360.67" r="3.33"/>
	</g>
	<g>
		<circle class="st12" cx="361.33" cy="240.67" r="3.33"/>
	</g>
	<g>
		<circle class="st12" cx="180" cy="235.33" r="6"/>
	</g>
	<g>
		<circle class="st12" cx="14" cy="184" r="5.33"/>
	</g>
	<g>
		<circle class="st12" cx="37.33" cy="90" r="3.33"/>
	</g>
	<g>
		<g>
			<path class="st12" d="M332.67,88c-2.21,0-4-1.79-4-4V57.33c0-2.21,1.79-4,4-4c2.21,0,4,1.79,4,4V84
				C336.67,86.21,334.88,88,332.67,88z"/>
		</g>
		<g>
			<path class="st12" d="M346,74.67h-26.67c-2.21,0-4-1.79-4-4s1.79-4,4-4H346c2.21,0,4,1.79,4,4S348.21,74.67,346,74.67z"/>
		</g>
	</g>
</g>
</svg>
