<svg id="Layer_1" data-name="Layer 1" xmlns="http://www.w3.org/2000/svg" viewBox="0 0 88 88"><defs><style>.cls-1{fill:#ff4500;}.cls-2{fill:#fff;}</style></defs><circle class="cls-1" cx="44" cy="44" r="30"/><path class="cls-2" d="M64,44a4.39,4.39,0,0,0-7.41-3A21.41,21.41,0,0,0,45,37.3l2-9.36,6.42,1.35a3,3,0,1,0,.4-1.83L46.45,26a.93.93,0,0,0-1.11.71h0L43.13,37.12a21.44,21.44,0,0,0-11.7,3.7,4.38,4.38,0,1,0-6,6.38,4.14,4.14,0,0,0,1.18.79,9.69,9.69,0,0,0,0,1.32c0,6.72,7.83,12.18,17.49,12.18S61.58,56,61.58,49.31a9.69,9.69,0,0,0,0-1.32A4.37,4.37,0,0,0,64,44ZM34,47.16a3.08,3.08,0,0,1,3.05-3,3,3,0,0,1,3,3,3,3,0,0,1-3,3A3,3,0,0,1,34,47.16Zm17.48,8.08c-1.56,1.55-4,2.3-7.43,2.3h0c-3.45,0-5.88-.75-7.43-2.3a.86.86,0,0,1,0-1.22.88.88,0,0,1,1.22,0c1.21,1.21,3.24,1.8,6.21,1.8s5-.59,6.21-1.8a.86.86,0,0,1,1.22,1.22Zm-.54-5.08a3,3,0,0,1-3-3,3.08,3.08,0,0,1,3-3,3,3,0,0,1,3,3A3,3,0,0,1,50.92,50.16Z"/></svg>