<svg id="Layer_1" data-name="Layer 1" xmlns="http://www.w3.org/2000/svg" viewBox="0 0 88 88"><defs><style>.cls-1{fill:#b92b27;}</style></defs><path id="Fill-1" class="cls-1" d="M45.89,61.29c-2.14-4.22-4.65-8.47-9.55-8.47a6.59,6.59,0,0,0-2.73.54L32,50a14.58,14.58,0,0,1,9.52-3.12c6.55,0,9.91,3.16,12.58,7.19,1.59-3.44,2.34-8.09,2.34-13.85,0-14.38-4.5-21.76-15-21.76S26.56,25.87,26.56,40.25,31,61.87,41.39,61.87a16,16,0,0,0,4.5-.58Zm2.57,5a27.88,27.88,0,0,1-7.07.94c-13.79,0-27.28-11-27.28-27S27.6,13.1,41.39,13.1c14,0,27.38,10.93,27.38,27.15A26.29,26.29,0,0,1,58.44,61.36c2,3,4,4.93,6.85,4.93A4.48,4.48,0,0,0,69.84,62h4c.23,2.5-1,12.88-12.28,12.88-6.82,0-10.43-4-13.13-8.59Z"/></svg>