<svg id="Layer_1" data-name="Layer 1" xmlns="http://www.w3.org/2000/svg" viewBox="0 0 88 88"><defs><style>.cls-1{fill:#00acee;}</style></defs><path class="cls-1" d="M32.13,70c24.15,0,37.36-20,37.36-37.36,0-.57,0-1.13,0-1.7A26.76,26.76,0,0,0,76,24.15a26.06,26.06,0,0,1-7.54,2.06A13.17,13.17,0,0,0,74.23,19a26.35,26.35,0,0,1-8.34,3.19,13.14,13.14,0,0,0-22.37,12A37.28,37.28,0,0,1,16.45,20.39a13.15,13.15,0,0,0,4.07,17.53,13,13,0,0,1-6-1.64v.17A13.14,13.14,0,0,0,25.09,49.32a13.16,13.16,0,0,1-5.92.22,13.14,13.14,0,0,0,12.26,9.12,26.27,26.27,0,0,1-16.3,5.63A25.17,25.17,0,0,1,12,64.1,37.1,37.1,0,0,0,32.13,70"/></svg>