<svg xmlns="http://www.w3.org/2000/svg" xmlns:xlink="http://www.w3.org/1999/xlink" viewBox="0 0 88 88"><defs><style>.cls-1{clip-path:url(#clip-path);filter:url(#luminosity-invert);}.cls-2{fill:none;}.cls-3{isolation:isolate;}.cls-4{clip-path:url(#clip-path-2);}.cls-5{fill:url(#linear-gradient);}.cls-6{mix-blend-mode:multiply;}.cls-7{clip-path:url(#clip-path-3);}.cls-8{fill:#ededee;}.cls-9{clip-path:url(#clip-path-5);}.cls-10{clip-path:url(#clip-path-6);}.cls-11{fill:url(#linear-gradient-2);}.cls-12{mask:url(#mask);}.cls-13{opacity:0.9;}.cls-14{clip-path:url(#clip-path-7);}.cls-15{fill:#fff;}.cls-16{clip-path:url(#clip-path-9);}.cls-17{clip-path:url(#clip-path-10);}.cls-18{fill:url(#linear-gradient-3);}</style><clipPath id="clip-path"><rect class="cls-2" x="38.43" y="29.57" width="26.63" height="18.26"/></clipPath><clipPath id="clip-path-2"><path class="cls-2" d="M39.32,32.37C36.68,36,40.11,41.79,47,45.28s14.57,3.39,17.2-.24-.8-9.42-7.66-12.92a22.53,22.53,0,0,0-9.94-2.55c-3.22,0-5.9.94-7.25,2.8"/></clipPath><linearGradient id="linear-gradient" x1="-567.26" y1="299.14" x2="-565.25" y2="299.14" gradientTransform="matrix(4.04, 0, 0, -4.04, 2344.26, 1247.47)" gradientUnits="userSpaceOnUse"><stop offset="0" stop-color="#fff"/><stop offset="0.11" stop-color="#fafafa"/><stop offset="0.24" stop-color="#ebebeb"/><stop offset="0.39" stop-color="#d2d2d2"/><stop offset="0.55" stop-color="#b0afaf"/><stop offset="0.71" stop-color="#848282"/><stop offset="0.88" stop-color="#4f4b4c"/><stop offset="1" stop-color="#231f20"/></linearGradient><clipPath id="clip-path-3"><rect class="cls-2" x="19.15" y="29.45" width="48.17" height="31.32"/></clipPath><clipPath id="clip-path-5"><rect class="cls-2" x="14" y="28.41" width="53.39" height="44.65"/></clipPath><clipPath id="clip-path-6"><path class="cls-2" d="M31.1,64.21c-5.46-2.44-7.36-9-4.25-14.69s10-8.3,15.5-5.87,7.36,9,4.25,14.69a13,13,0,0,1-11.16,6.78,10.57,10.57,0,0,1-4.34-.91m13-35.8a33.53,33.53,0,0,0-18.39,5.74c-12.19,8.26-15.33,22.38-7,31.54C23,70.53,29.74,73,36.9,73.07h.4a33.45,33.45,0,0,0,18.42-5.75C63.27,62.2,67.35,54.84,67.39,47.8v-.21a17.55,17.55,0,0,0-4.63-11.8c-4.39-4.83-11.1-7.32-18.25-7.38Z"/></clipPath><linearGradient id="linear-gradient-2" x1="-569.76" y1="400.95" x2="-567.75" y2="400.95" gradientTransform="matrix(-26.52, 0, 0, 26.52, -15042.67, -10582.56)" gradientUnits="userSpaceOnUse"><stop offset="0" stop-color="#ed2924"/><stop offset="0.25" stop-color="#e52825"/><stop offset="0.64" stop-color="#cf2429"/><stop offset="1" stop-color="#b4202d"/></linearGradient><filter id="luminosity-invert" filterUnits="userSpaceOnUse" color-interpolation-filters="sRGB"><feColorMatrix values="-1 0 0 0 1 0 -1 0 0 1 0 0 -1 0 1 0 0 0 1 0"/></filter><mask id="mask" x="28.31" y="16.45" width="46.86" height="45.46" maskUnits="userSpaceOnUse"><g class="cls-1"><g class="cls-3"><g class="cls-4"><rect class="cls-5" x="35.85" y="21.33" width="31.78" height="35.7" transform="translate(-8.19 64.07) rotate(-59.69)"/></g></g></g></mask><clipPath id="clip-path-7"><rect class="cls-2" x="38.43" y="29.57" width="26.63" height="18.26"/></clipPath><clipPath id="clip-path-9"><rect class="cls-2" x="18.81" y="14.93" width="55.19" height="45.83"/></clipPath><clipPath id="clip-path-10"><path class="cls-2" d="M31.53,43.31C29.32,34.59,36,26.46,46.33,25.13s20.59,4.67,22.8,13.38-4.42,16.86-14.8,18.18a23.36,23.36,0,0,1-2.89.18c-9.32,0-17.9-5.66-19.91-13.56M44.8,14.94a32.18,32.18,0,0,0-4.14.26c-14.9,1.9-24.41,13.58-21.24,26.09S37.25,62.4,52.15,60.5,76.57,46.92,73.39,34.41c-2.88-11.34-15.2-19.47-28.58-19.47Z"/></clipPath><linearGradient id="linear-gradient-3" x1="-562.29" y1="374.77" x2="-560.28" y2="374.77" gradientTransform="matrix(25.87, 0, 0, -25.87, 14569.8, 9734.48)" gradientUnits="userSpaceOnUse"><stop offset="0" stop-color="#b4202d"/><stop offset="0.99" stop-color="#ed2924"/><stop offset="1" stop-color="#ed2924"/></linearGradient></defs><g class="cls-3"><g id="Layer_1" data-name="Layer 1"><g class="cls-6"><g class="cls-7"><g class="cls-7"><path class="cls-8" d="M54.34,56.69a22.93,22.93,0,0,1-6.93-.18,11.61,11.61,0,0,1-.82,1.85A13.08,13.08,0,0,1,45,60.64a32.67,32.67,0,0,0,7.12-.13A28.32,28.32,0,0,0,66,54.9a20.73,20.73,0,0,0,1.3-5.69c-2.57,3.87-7.18,6.74-13,7.48M19.15,40.11c.08.44.17.88.29,1.32a22.74,22.74,0,0,0,6.38,10.63,12.42,12.42,0,0,1,1-2.54,13.12,13.12,0,0,1,5-5.1c-.12-.33-.22-.67-.31-1a13.63,13.63,0,0,1,4.61-13.95,33.43,33.43,0,0,0-10.54,4.73,29.26,29.26,0,0,0-6.49,5.93"/></g></g></g><g class="cls-6"><g class="cls-9"><g class="cls-10"><rect class="cls-11" x="2.64" y="15.62" width="72.45" height="70.24" transform="translate(-22.94 34.44) rotate(-37.78)"/></g></g></g><g class="cls-12"><g class="cls-13"><g class="cls-14"><g class="cls-14"><path class="cls-15" d="M64.17,45c-2.63,3.63-10.33,3.74-17.2.24S36.68,36,39.32,32.37s10.33-3.74,17.19-.25S66.8,41.4,64.17,45"/></g></g></g></g><g class="cls-6"><g class="cls-16"><g class="cls-17"><rect class="cls-18" x="8.3" y="0.56" width="76.21" height="76.21" transform="translate(-13.75 44.14) rotate(-45)"/></g></g></g></g></g></svg>