<svg id="Layer_1" data-name="Layer 1" xmlns="http://www.w3.org/2000/svg" viewBox="0 0 88 88"><defs><style>.cls-1{fill:#f18421;}.cls-2{fill:#fff;}</style></defs><path class="cls-1" d="M71.71,32.28a28.73,28.73,0,0,0-6.36-9.39,29.67,29.67,0,0,0-9.5-6.23A30.8,30.8,0,0,0,44,14.41a30.8,30.8,0,0,0-11.85,2.25,29.67,29.67,0,0,0-9.5,6.23,28.58,28.58,0,0,0-6.36,9.39A29.7,29.7,0,0,0,14,44a29.7,29.7,0,0,0,2.29,11.72,28.58,28.58,0,0,0,6.36,9.39,29.67,29.67,0,0,0,9.5,6.23A30.8,30.8,0,0,0,44,73.59a30.8,30.8,0,0,0,11.85-2.25,29.67,29.67,0,0,0,9.5-6.23,28.73,28.73,0,0,0,6.36-9.39A29.87,29.87,0,0,0,74,44a29.87,29.87,0,0,0-2.29-11.72"/><path class="cls-2" d="M26.1,41.83c3.34-1.1,7.77-2.5,7.77-2.5,9.76-3.11,11.06-6.78,11.06-6.78s2.06,3.67,9.14,6.09c0,0,3.91,1.29,7.55,2.6.18.37.37.73.53,1.11a18.75,18.75,0,0,1,1.31,4.76h-5l0-.08a7,7,0,0,0-1.51-2.24,7.13,7.13,0,0,0-2.27-1.48,7.74,7.74,0,0,0-5.63,0,7,7,0,0,0-2.26,1.48A6.66,6.66,0,0,0,45.24,47a4.8,4.8,0,0,0-.29.83h-1.9a4.8,4.8,0,0,0-.29-.83,6.66,6.66,0,0,0-1.51-2.24A7,7,0,0,0,39,43.31a7.74,7.74,0,0,0-5.63,0,7.13,7.13,0,0,0-2.27,1.48A7,7,0,0,0,29.58,47l0,.08h-5a18.75,18.75,0,0,1,1.31-4.76c.07-.18.17-.34.25-.52"/><path class="cls-2" d="M56.06,49.81a4.13,4.13,0,0,1-.32,1.66,3.91,3.91,0,0,1-.9,1.33,4.35,4.35,0,0,1-6,0,4.22,4.22,0,0,1-.9-1.33,4.44,4.44,0,0,1,0-3.31A4.09,4.09,0,0,1,50.15,46a4.54,4.54,0,0,1,3.35,0,4.21,4.21,0,0,1,1.34.88,3.91,3.91,0,0,1,.9,1.33,4.11,4.11,0,0,1,.32,1.65"/><path class="cls-2" d="M40.41,49.81a4.31,4.31,0,0,1-.32,1.66,4.22,4.22,0,0,1-.9,1.33,4.35,4.35,0,0,1-6,0,3.91,3.91,0,0,1-.9-1.33,4.44,4.44,0,0,1,0-3.31,3.91,3.91,0,0,1,.9-1.33A4.21,4.21,0,0,1,34.5,46a4.54,4.54,0,0,1,3.35,0,4.09,4.09,0,0,1,2.24,2.21,4.29,4.29,0,0,1,.32,1.65"/><path class="cls-2" d="M58,63.86a19.57,19.57,0,0,1-6.23,4.08,21.08,21.08,0,0,1-15.52,0A19.57,19.57,0,0,1,30,63.86a18.84,18.84,0,0,1-4.16-6.15,19.28,19.28,0,0,1-1.5-7.4h4.71a6.72,6.72,0,0,0,.52,2.29,6.82,6.82,0,0,0,1.51,2.23,7,7,0,0,0,2.27,1.48,7.48,7.48,0,0,0,5.63,0,6.82,6.82,0,0,0,2.26-1.48,7,7,0,0,0,2-4h1.5a6.85,6.85,0,0,0,.49,1.8,6.52,6.52,0,0,0,1.51,2.23A6.82,6.82,0,0,0,49,56.31a7.48,7.48,0,0,0,5.63,0,7,7,0,0,0,2.27-1.48,6.82,6.82,0,0,0,1.51-2.23A7,7,0,0,0,59,50.31h4.7a19.28,19.28,0,0,1-1.5,7.4A18.84,18.84,0,0,1,58,63.86"/></svg>