<svg id="Layer_1" data-name="Layer 1" xmlns="http://www.w3.org/2000/svg" viewBox="0 0 88 88"><defs><style>.cls-1{fill:#00f7ef;}.cls-1,.cls-2,.cls-3{fill-rule:evenodd;}.cls-3{fill:#ff004f;}</style></defs><path class="cls-1" d="M20.93,70.83c-14.47-12.55-5.11-40.51,17.14-37v2.59C19.28,35.56,11,58,20.93,70.83ZM61.51,22.34a16.76,16.76,0,0,0,9.78,3.43v2.54A14.82,14.82,0,0,1,61.51,22.34ZM55.47,9a17.21,17.21,0,0,0,.28,2.86H46.88V56a21.4,21.4,0,0,1-.63,5.44c-3.61,8-13.83,6.91-16.66,1.45a9.64,9.64,0,0,0,14-4.31,21.4,21.4,0,0,0,.63-5.44V9Z"/><path class="cls-2" d="M58.18,11.85v.05c0,1,.3,15.81,15.81,16.73,0,13.75,0,0,0,11.42-1.17.07-10.21-.58-15.84-5.6l0,22.23c.14,10.07-5.46,19.94-16,21.93a22.71,22.71,0,0,1-10-.35C6.56,70.6,15.06,32.64,40.77,36.7V49C30.16,47.39,26.6,56.23,29.42,62.55c2.57,5.76,13.14,7,16.83-1.11A21.4,21.4,0,0,0,46.88,56V11.85Z"/><path class="cls-3" d="M38.07,36.43a23.73,23.73,0,0,1,2.7.27V49C30.16,47.39,26.6,56.23,29.42,62.55l.17.34a7.33,7.33,0,0,1-2.87-3.2c-2.82-6.32.73-15.16,11.35-13.59Zm33.22-8.12a24.37,24.37,0,0,0,2.7.32c0,13.75,0,0,0,11.42-1.17.07-10.21-.58-15.84-5.6l0,22.23c.14,10.07-5.46,19.94-16,21.93a22.71,22.71,0,0,1-10-.35,21.65,21.65,0,0,1-11.23-7.43,22.72,22.72,0,0,0,8.53,4.57,22.67,22.67,0,0,0,10,.35c10.49-2,16.1-11.86,16-21.93l0-22.23c5.63,5,14.67,5.67,15.84,5.6C71.3,26.58,71.29,37.68,71.29,28.31ZM58.18,11.85v.05a19.5,19.5,0,0,0,3.33,10.44,16.92,16.92,0,0,1-5.76-10.49Z"/></svg>