<svg id="Layer_1" data-name="Layer 1" xmlns="http://www.w3.org/2000/svg" viewBox="0 0 88 88"><defs><style>.cls-1{fill:#0072b1;}</style></defs><path class="cls-1" d="M68.56,15H19.44a4.21,4.21,0,0,0-4.26,4.15v49.7A4.21,4.21,0,0,0,19.44,73H68.56a4.21,4.21,0,0,0,4.26-4.15V19.15A4.21,4.21,0,0,0,68.56,15ZM24,63.55V37.36h8.7V63.55H24ZM28.3,33.79h-.05a4.5,4.5,0,0,1-4.81-4.53c0-2.57,1.94-4.52,4.92-4.52a4.52,4.52,0,0,1,4.87,4.52C33.23,31.78,31.34,33.79,28.3,33.79ZM64,63.55h-8.7v-14c0-3.52-1.26-5.92-4.41-5.92a4.77,4.77,0,0,0-4.47,3.18,6,6,0,0,0-.28,2.13V63.55H37.47s.12-23.73,0-26.19h8.71v3.71A8.63,8.63,0,0,1,54,36.75c5.73,0,10,3.74,10,11.79Z"/></svg>