<svg id="Layer_1" data-name="Layer 1" xmlns="http://www.w3.org/2000/svg" viewBox="0 0 88 88"><defs><style>.cls-1{fill:#c8232c;}</style></defs><path class="cls-1" d="M44,14A30,30,0,0,0,14,44c0,.35,0,.71,0,1.06,0,.08,0,.16,0,.25,0,.34,0,.69.06,1,0,0,0,.07,0,.11l.09.93,0,.26c0,.33.08.66.13,1,0,.07,0,.14,0,.21,0,.27.09.54.14.81l.06.29c.06.3.12.61.19.91,0,.1.05.2.08.3s.11.46.17.68l.09.33c.08.28.16.57.25.85l.12.36.19.57.14.38c.09.26.19.51.29.77l.18.43c.06.15.12.3.19.45l.3.68.21.44.24.48.17.32c.15.3.31.59.48.88L18,59c.11.18.21.36.32.53l.1.17c.22.35.43.69.66,1l.07.11c.39.58.81,1.15,1.24,1.7l0,0A30,30,0,0,0,33.08,72a28.71,28.71,0,0,1,.1-8.62c.54-2.35,3.51-14.93,3.51-14.93A10.89,10.89,0,0,1,35.8,44c0-4.18,2.42-7.29,5.43-7.29,2.57,0,3.81,1.92,3.81,4.22,0,2.57-1.63,6.43-2.5,10A4.37,4.37,0,0,0,47,56.36c5.34,0,9.44-5.64,9.44-13.74,0-7.19-5.16-12.21-12.55-12.21-8.55,0-13.57,6.4-13.57,13a11.78,11.78,0,0,0,2.22,6.85.87.87,0,0,1,.2.86c-.22.94-.74,3-.84,3.41s-.44.67-1,.4c-3.76-1.76-6.11-7.22-6.11-11.64,0-9.47,6.87-18.16,19.85-18.16,10.4,0,18.51,7.41,18.51,17.34,0,10.36-6.53,18.68-15.57,18.68-3,0-5.91-1.58-6.87-3.46l-1.88,7.15a32.79,32.79,0,0,1-3.69,7.82A30,30,0,1,0,44,14Z"/></svg>