<svg id="Layer_1" data-name="Layer 1" xmlns="http://www.w3.org/2000/svg" viewBox="0 0 88 88"><defs><style>.cls-1{fill:#81c995;}.cls-2{fill:#34a853;}.cls-3{fill:#5bb974;}.cls-4{fill:#1e8e3e;}</style></defs><path class="cls-1" d="M58.46,38A6.88,6.88,0,0,1,65.6,49.73l-.26.15L29.49,70.52a6.88,6.88,0,1,1-7.14-11.76l.26-.16Z"/><path class="cls-2" d="M32.7,23.24a6.85,6.85,0,0,0-6.83-6.89,6.51,6.51,0,0,0-1.46.14,7.11,7.11,0,0,0-5.41,7v41l13.69.25Z"/><path class="cls-3" d="M58.62,49.9A7.2,7.2,0,0,0,68,47.37,6.83,6.83,0,0,0,65.63,38l-.07,0L29.47,17.3a6.8,6.8,0,0,0-9.33,2.3l-.15.25a6.85,6.85,0,0,0,2.46,9.36l.07,0Z"/><path class="cls-1" d="M65.32,50,32.69,68.18V52.52L58.58,38.08a7.1,7.1,0,0,1,9.66,2.78,7.4,7.4,0,0,1,.46,1A6.87,6.87,0,0,1,65.32,50Z"/><circle class="cls-4" cx="25.86" cy="64.84" r="6.85"/></svg>