<?xml version="1.0" encoding="utf-8"?>
<!-- Generator: Adobe Illustrator 25.0.0, SVG Export Plug-In . SVG Version: 6.00 Build 0)  -->
<svg version="1.1" id="Layer_1" xmlns="http://www.w3.org/2000/svg" xmlns:xlink="http://www.w3.org/1999/xlink" x="0px" y="0px"
	 viewBox="0 0 130 535.6" style="enable-background:new 0 0 130 535.6;" xml:space="preserve">
<style type="text/css">
	.st0{fill:#87796F;}
	.st1{fill:#35414D;}
	.st2{fill-rule:evenodd;clip-rule:evenodd;fill:#FFF2E8;}
	.st3{fill-rule:evenodd;clip-rule:evenodd;fill:#FFE4CF;}
	.st4{fill-rule:evenodd;clip-rule:evenodd;fill:#CECECE;}
	.st5{fill:none;stroke:#35414D;stroke-width:2.221;stroke-linecap:round;stroke-linejoin:round;stroke-miterlimit:13.3333;}
	.st6{fill:none;stroke:#35414D;stroke-width:0.9519;stroke-linecap:round;stroke-linejoin:round;stroke-miterlimit:13.3333;}
	.st7{fill-rule:evenodd;clip-rule:evenodd;fill:#838383;}
	.st8{fill-rule:evenodd;clip-rule:evenodd;fill:#FE9737;}
	.st9{fill-rule:evenodd;clip-rule:evenodd;fill:#B5ADB6;}
	.st10{fill-rule:evenodd;clip-rule:evenodd;fill:#F36B37;}
	.st11{fill-rule:evenodd;clip-rule:evenodd;fill:#595959;}
	.st12{fill-rule:evenodd;clip-rule:evenodd;fill:#35414D;}
	.st13{fill:#60A917;}
	.st14{fill:#FE9737;}
	.st15{fill:#D8D8D8;}
	.st16{fill-rule:evenodd;clip-rule:evenodd;fill:#99DD58;}
	.st17{fill:#FF5A5A;}
	.st18{fill-rule:evenodd;clip-rule:evenodd;fill:#97DA7B;}
	.st19{fill-rule:evenodd;clip-rule:evenodd;fill:#68CA44;}
	.st20{fill:none;stroke:#35414D;stroke-width:1.5409;stroke-linecap:round;stroke-linejoin:round;stroke-miterlimit:13.3333;}
	.st21{fill:#6F909E;}
	.st22{fill:none;stroke:#35414D;stroke-width:2.8728;stroke-linecap:round;stroke-linejoin:round;stroke-miterlimit:10;}
	.st23{fill:#E8EDF2;}
	.st24{fill:#C5D3DD;}
	.st25{fill:#90D8F9;}
	.st26{fill:#75CEF9;}
	.st27{fill:#FFD064;}
	.st28{fill:#EBB044;}
	.st29{fill:#DD636E;}
	.st30{fill:#C63D4F;}
	.st31{fill-rule:evenodd;clip-rule:evenodd;fill:#FFFFFF;}
	.st32{fill-rule:evenodd;clip-rule:evenodd;fill:#76D6B2;}
	.st33{fill-rule:evenodd;clip-rule:evenodd;fill:#A2E4CA;}
	.st34{fill-rule:evenodd;clip-rule:evenodd;fill:#FCEEBA;}
	.st35{fill-rule:evenodd;clip-rule:evenodd;fill:#FFCD57;}
</style>
<g>
	<g>
		<g>
			<path class="st0" d="M59.6,534.5c-4.2,0-8.1-2.2-10.2-5.8L2.7,448.9c-3.3-5.6-1.4-12.8,4.2-16.1l57.6-33.7
				c1.8-1.1,3.9-1.6,5.9-1.6c4.2,0,8.1,2.2,10.2,5.8l46.7,79.8c1.6,2.7,2,5.9,1.2,8.9c-0.8,3-2.7,5.6-5.4,7.2l-57.6,33.7
				C63.7,533.9,61.6,534.5,59.6,534.5C59.6,534.5,59.6,534.5,59.6,534.5z"/>
			<path class="st1" d="M70.4,398.6c3.7,0,7.2,1.9,9.2,5.3l46.7,79.8c3,5.1,1.3,11.6-3.8,14.6l-57.6,33.7c-1.7,1-3.5,1.5-5.4,1.5
				c-3.7,0-7.2-1.9-9.2-5.3L3.7,448.3c-3-5.1-1.3-11.6,3.8-14.6l57.6-33.7C66.8,399.1,68.6,398.6,70.4,398.6 M70.4,396.4
				c-2.3,0-4.5,0.6-6.5,1.8L6.4,431.8c-3,1.7-5.1,4.5-6,7.8c-0.9,3.3-0.4,6.8,1.3,9.8l46.7,79.8c2.3,3.9,6.6,6.4,11.1,6.4
				c2.3,0,4.5-0.6,6.5-1.8l57.6-33.7c3-1.7,5.1-4.5,6-7.8c0.9-3.3,0.4-6.8-1.3-9.8l-46.7-79.8C79.3,398.8,75,396.4,70.4,396.4
				L70.4,396.4z"/>
		</g>
		<g id="g7750_8_" transform="translate(18.5,457.4355)">
			<path id="path7752_8_" class="st2" d="M-8.6-8.2l47.1,80.6c0.4,0.7,1.2,0.9,1.9,0.6l18.3-10.7l39.1-22.9l7.8-4.5
				c0.6-0.4,0.8-1.2,0.4-1.9L62.8-41l-0.4-0.8c-0.1-0.1-0.1-0.2-0.2-0.2l-9.3,5.4c-2.5,1.5-5.9,0.5-7.5-2.2L40-48
				c-0.1,0-0.2,0-0.3,0.1l-0.9,0.5l-51.2,30c-0.6,0.4-0.8,1.2-0.4,1.9L-8.6-8.2z"/>
		</g>
		<g id="g7754_8_" transform="translate(257.3203,504.5)">
			<path id="path7756_8_" class="st3" d="M-211.6-87.7c14.5,4.5,29.4,16.9,39.8,34.7c2.3,3.9,4.2,7.8,5.8,11.7
				c0.5,1.3,1,2.5,1.4,3.8c0.5,1.5,1,3,1.5,4.5c4.2,14.1,4.1,27.8,0,38.3l22-12.9l7.8-4.5c0.6-0.4,0.8-1.2,0.4-1.9l-8-13.7
				l-10.6-18.1L-176-88.1l-0.4-0.8c-0.1-0.1-0.1-0.2-0.2-0.2l-22.1-6c-0.1,0-0.2,0-0.3,0.1l-0.9,0.5L-211.6-87.7z"/>
		</g>
		<g id="g7758_8_" transform="translate(331.5508,504.1592)">
			<path id="path7760_8_" class="st4" d="M-273.1-94.7l5.4,9.2c1.6,2.7,4.9,3.7,7.5,2.2l9.3-5.4c-0.2-0.1-0.4-0.2-1-0.3l-20-5.4
				C-272.6-94.6-272.8-94.7-273.1-94.7"/>
		</g>
		<g id="g7762_8_" transform="translate(331.5508,504.1592)">
			<path id="path7764_8_" class="st5" d="M-273.1-94.7l5.4,9.2c1.6,2.7,4.9,3.7,7.5,2.2l8.4-4.9"/>
		</g>
		<g id="g7766_8_" transform="translate(413.1929,241.0635)">
			<path id="path7768_8_" class="st5" d="M-332.3,174.7l30.4,51.9l13.3,22.7c0.4,0.7,0.2,1.5-0.4,1.9l-46.9,27.4l-18.3,10.7
				c-0.6,0.4-1.5,0.1-1.9-0.6l-29.4-50.3 M-384.7,239.9l-22.8-39c-0.4-0.7-0.2-1.5,0.4-1.9l51.2-30l0.9-0.5c0.3-0.2,0.5-0.1,1.5,0.1
				l20.8,5.6"/>
		</g>
		<g>
			<g id="g7770_9_" transform="translate(330.2446,64.9756)">
				<path id="path7772_9_" class="st6" d="M-228.2,431.5c-1.9,1.4-3.5-0.9-4.2-0.3c-0.5,0.4-0.2,1.4-0.3,2.6c-0.2,1.3-1,1.4-2.1,1.1
					c-2.5-0.6-0.7,2.9-3.7,2.2"/>
			</g>
			<g id="g7774_9_" transform="translate(423.1602,447.0527)">
				<path id="path7776_9_" class="st4" d="M-333.6,7.5l4.4-1.1l-0.9-3.8c-0.3-1.2-1.5-2-2.7-1.7c-1.2,0.3-2,1.5-1.7,2.7L-333.6,7.5z
					"/>
			</g>
			<g id="g7778_9_" transform="translate(325.644,101.1182)">
				<path id="path7780_9_" class="st7" d="M-226,392.2l2.3,3.1c0.2,0.2,0.2,0.2,0.2-0.1l0.6-3.8l0.7-4.1l-3.7-1.4l-2.6,2.9
					L-226,392.2z"/>
			</g>
			<g id="g7782_9_" transform="translate(412.0854,441.0947)">
				<path id="path7784_9_" class="st8" d="M-323.3,14.6l8.3,34.2l3.2-0.8l3.2-0.8l-7.7-31.7l-0.6-2.5c-0.1-0.5-0.7-0.9-1.2-0.7
					l-4.4,1.1C-323.1,13.6-323.4,14.1-323.3,14.6"/>
			</g>
			<g id="g7786_9_" transform="translate(452.5229,474.4854)">
				<path id="path7788_9_" class="st9" d="M-361.7-24.2l0.9,3.8l2.2-0.5l-0.9-3.8c-0.3-1.2-1.5-2-2.7-1.7c-0.4,0.1-0.8,0.3-1,0.6
					C-362.5-25.6-361.9-25-361.7-24.2"/>
			</g>
			<g id="g7790_9_" transform="translate(441.9307,407.96)">
				<path id="path7792_9_" class="st10" d="M-348.4,49.3l7.4,30.3l0.4,1.5l2.2-0.5l-7.7-31.7l-0.6-2.5c-0.1-0.5-0.7-0.9-1.2-0.7
					l-2.2,0.5c0.5-0.1,1.1,0.2,1.2,0.7L-348.4,49.3z"/>
			</g>
			<g id="g7794_9_" transform="translate(357.9888,127.2178)">
				<path id="path7796_9_" class="st11" d="M-256.7,361.8l-0.7,4.1l-0.2,1.2l1.5,2.1c0.2,0.2,0.2,0.2,0.2-0.1l0.6-3.8l0.7-4.1
					L-256.7,361.8z"/>
			</g>
			<g id="g7798_9_" transform="translate(461.3545,402.1719)">
				<path id="path7800_9_" class="st6" d="M-365.6,54.5l3.6-0.9l3,12.3"/>
			</g>
			<g id="g7802_9_" transform="translate(374.0615,313.9443)">
				<path id="path7804_9_" class="st6" d="M-281.8,156.2l-3.5-14.4c-0.1-0.5,0.2-1.1,0.7-1.2l4.4-1.1c0.5-0.1,1.1,0.2,1.2,0.7
					l8.3,34.2l-6.3,1.5l-3.9-16.1"/>
			</g>
			<g id="g7806_9_" transform="translate(331.5225,66.168)">
				<path id="path7808_9_" class="st6" d="M-229.4,430.2l0.6-3.8l0.7-4.1l-3.2,0.8l-3.2,0.8l2.5,3.3l2.3,3.1
					C-229.4,430.4-229.4,430.4-229.4,430.2z"/>
			</g>
			<g id="g7810_9_" transform="translate(423.1602,447.0527)">
				<path id="path7812_9_" class="st6" d="M-333.6,7.5l4.4-1.1l-0.9-3.8c-0.3-1.2-1.5-2-2.7-1.7c-1.2,0.3-2,1.5-1.7,2.7L-333.6,7.5z
					"/>
			</g>
		</g>
		<g>
			<path class="st12" d="M42.3,484.3c-0.4,0.2-0.5,0.8-0.3,1.2l5.2,8.9c0.2,0.4,0.8,0.5,1.2,0.3l8.9-5.2c0.4-0.2,0.5-0.8,0.3-1.2
				l-2.6-4.4c-0.2-0.4-0.1-0.9,0.3-1.2c0.4-0.2,0.9-0.1,1.2,0.3l2.6,4.4c0.7,1.2,0.3,2.8-0.9,3.5l-8.9,5.2c-1.2,0.7-2.8,0.3-3.5-0.9
				l-5.2-8.9c-0.7-1.2-0.3-2.8,0.9-3.5l7.4-4.3c0.4-0.2,0.9-0.1,1.2,0.3c0.2,0.4,0.1,0.9-0.3,1.2L42.3,484.3z M52.5,477.6
				c0.1-0.5,0.6-0.7,1-0.6c0.5,0.1,0.7,0.6,0.6,1l-2.8,10.5c-0.1,0.5-0.6,0.7-1,0.6l-3.5-0.9c-0.5-0.1-0.7-0.6-0.6-1
				c0.1-0.5,0.6-0.7,1-0.6l2.7,0.7L52.5,477.6z"/>
		</g>
		<g>
			<path class="st1" d="M68.9,438.7c-0.3-0.1-0.6-0.1-0.8,0.1c-0.1,0.1-0.2,0.2-0.3,0.3l-3.5,4.1c-0.4,0.5-0.3,1.1,0.1,1.5
				c0.5,0.4,1.1,0.3,1.5-0.1l1.8-2.1l0.7,8.5l-5,0.4c-0.6,0-1,0.6-1,1.2c0,0,0,0,0,0l0.8,9.1c0,0.6,0.6,1,1.2,1c0,0,0,0,0,0
				c0.6,0,1-0.6,1-1.2c0,0,0,0,0,0l-0.7-8.1l5-0.4c0.6,0,1-0.6,1-1.2c0,0,0,0,0,0l-0.8-9.6L72,444c0.5,0.4,1.1,0.3,1.5-0.1
				c0.4-0.5,0.3-1.1-0.1-1.5l-4.1-3.5C69.2,438.8,69.1,438.7,68.9,438.7L68.9,438.7z"/>
			<path class="st13" d="M68.3,438.6c-0.3-0.1-0.6-0.1-0.8,0.1c-0.1,0.1-0.2,0.2-0.3,0.3l-3.5,4.1c-0.4,0.5-0.3,1.1,0.1,1.5
				c0.5,0.4,1.1,0.3,1.5-0.1l1.8-2.1l0.7,8.5l-5,0.4c-0.6,0-1,0.6-1,1.2c0,0,0,0,0,0l0.8,9.1c0,0.6,0.6,1,1.2,1c0,0,0,0,0,0
				c0.6,0,1-0.6,1-1.2c0,0,0,0,0,0l-0.7-8.1l5-0.4c0.6,0,1-0.6,1-1.2c0,0,0,0,0,0l-0.8-9.6l2.1,1.8c0.5,0.4,1.1,0.3,1.5-0.1
				c0.4-0.5,0.3-1.1-0.1-1.5l-4.1-3.5C68.5,438.7,68.4,438.6,68.3,438.6L68.3,438.6z"/>
		</g>
		<g>
			<g>
				<path class="st1" d="M46.1,458.3l-2.8-1.8c-0.5-0.3-0.7-1-0.3-1.5c0.3-0.5,1-0.7,1.5-0.3l1.9,1.2l3-4.7c0.3-0.5,1-0.7,1.5-0.3
					c0.5,0.3,0.7,1,0.3,1.5l-3.6,5.6C47.3,458.5,46.6,458.6,46.1,458.3L46.1,458.3z M39,456.1l-7.6,1.6c-0.6,0.1-1,0.7-0.9,1.3
					c0.1,0.6,0.7,1,1.3,0.9l7.6-1.6c0.6-0.1,1-0.7,0.9-1.3C40.2,456.4,39.6,456,39,456.1z M51.5,459.9c-0.5-0.3-1.2-0.2-1.5,0.3
					l-1.6,2.5l-2.5-1.6c-0.5-0.3-1.2-0.2-1.5,0.3c-0.3,0.5-0.2,1.2,0.3,1.5l2.5,1.6l-1.6,2.5c-0.3,0.5-0.2,1.2,0.3,1.5
					c0.5,0.3,1.2,0.2,1.5-0.3l1.6-2.5l2.5,1.6c0.5,0.3,1.2,0.2,1.5-0.3c0.3-0.5,0.2-1.2-0.3-1.5l-2.5-1.6l1.6-2.5
					C52.2,460.9,52,460.2,51.5,459.9L51.5,459.9z M40.8,464.8l-7.6,1.6c-0.6,0.1-1,0.7-0.9,1.3c0.1,0.6,0.7,1,1.3,0.9l7.6-1.6
					c0.6-0.1,1-0.7,0.9-1.3C42,465.1,41.4,464.7,40.8,464.8z"/>
			</g>
			<g>
				<path class="st14" d="M45.9,457.7l-2.8-1.8c-0.5-0.3-0.7-1-0.3-1.5c0.3-0.5,1-0.7,1.5-0.3l1.9,1.2l3-4.7c0.3-0.5,1-0.7,1.5-0.3
					s0.7,1,0.3,1.5l-3.6,5.6C47.1,457.9,46.5,458,45.9,457.7L45.9,457.7z M38.8,455.5l-7.6,1.6c-0.6,0.1-1,0.7-0.9,1.3
					c0.1,0.6,0.7,1,1.3,0.9l7.6-1.6c0.6-0.1,1-0.7,0.9-1.3S39.4,455.3,38.8,455.5z M51.4,459.3c-0.5-0.3-1.2-0.2-1.5,0.3l-1.6,2.5
					l-2.5-1.6c-0.5-0.3-1.2-0.2-1.5,0.3c-0.3,0.5-0.2,1.2,0.3,1.5l2.5,1.6l-1.6,2.5c-0.3,0.5-0.2,1.2,0.3,1.5
					c0.5,0.3,1.2,0.2,1.5-0.3l1.6-2.5l2.5,1.6c0.5,0.3,1.2,0.2,1.5-0.3c0.3-0.5,0.2-1.2-0.3-1.5l-2.5-1.6l1.6-2.5
					C52,460.3,51.9,459.6,51.4,459.3L51.4,459.3z M40.7,464.2l-7.6,1.6c-0.6,0.1-1,0.7-0.9,1.3c0.1,0.6,0.7,1,1.3,0.9l7.6-1.6
					c0.6-0.1,1-0.7,0.9-1.3C41.9,464.4,41.3,464,40.7,464.2z"/>
			</g>
		</g>
		<g>
			<path class="st1" d="M70.3,472l-2.1-0.6c-0.2-0.1-0.4,0.1-0.5,0.3c-0.1,0.2,0.1,0.4,0.3,0.5l2.1,0.6c0.1,0,0.2,0,0.3,0
				c0.1,0,0.1-0.1,0.2-0.2C70.6,472.3,70.5,472,70.3,472z M72.1,465.9c-0.2,0.1-0.2,0.3-0.1,0.5l1.1,1.9c0.1,0.2,0.3,0.2,0.5,0.1
				c0.2-0.1,0.2-0.3,0.1-0.5l-1.1-1.9C72.6,465.9,72.3,465.8,72.1,465.9z M79.4,464.9c-0.2-0.1-0.4,0.1-0.5,0.3l-0.6,2.1
				c-0.1,0.2,0.1,0.4,0.3,0.5c0.1,0,0.2,0,0.3,0c0.1,0,0.1-0.1,0.2-0.2l0.6-2.1C79.7,465.2,79.6,465,79.4,464.9L79.4,464.9z
				 M84.7,469.2l-1.9,1.1c-0.2,0.1-0.2,0.3-0.1,0.5c0.1,0.2,0.3,0.2,0.5,0.1l1.9-1.1c0.2-0.1,0.2-0.3,0.1-0.5
				C85.1,469.1,84.8,469.1,84.7,469.2z M70.7,477.3l-1.9,1.1c-0.2,0.1-0.2,0.3-0.1,0.5c0.1,0.2,0.3,0.2,0.5,0.1l1.9-1.1
				c0.2-0.1,0.2-0.3,0.1-0.5C71.2,477.3,70.9,477.2,70.7,477.3z M82.1,471.1c-1.7-2.8-5.3-3.8-8.1-2.1c-2.8,1.7-3.8,5.3-2.1,8.1
				c0.6,1,1.4,1.8,2.4,2.3l4.3,2.6l-0.2,0.1c-0.6,0.4-0.8,1.2-0.5,1.8c0.2,0.3,0.5,0.5,0.8,0.6c-0.1,0.3-0.1,0.7,0.1,1
				c0.4,0.6,1.2,0.8,1.8,0.5l0.9-0.5c0.6,0.6,1.5,0.8,2.3,0.3c0.8-0.4,1.1-1.3,0.8-2.1l0.9-0.5c0.6-0.4,0.8-1.2,0.5-1.8
				c-0.2-0.3-0.5-0.5-0.8-0.6c0.1-0.3,0.1-0.7-0.1-1c-0.4-0.6-1.2-0.8-1.8-0.5l-0.2,0.1l-0.2-5C82.9,473.2,82.7,472.1,82.1,471.1z
				 M83.4,485.2c-0.4,0.2-0.9,0.2-1.2-0.1l1.7-1C84,484.5,83.8,484.9,83.4,485.2z M85.1,482.5l-4.9,2.9c-0.3,0.2-0.6,0.1-0.8-0.2
				c-0.2-0.3-0.1-0.6,0.2-0.8l4.9-2.9c0.3-0.2,0.6-0.1,0.8,0.2C85.5,482,85.4,482.3,85.1,482.5z M83.6,479.9
				c0.3-0.2,0.6-0.1,0.8,0.2c0.2,0.3,0.1,0.6-0.2,0.8l-4.9,2.9c-0.3,0.2-0.6,0.1-0.8-0.2s-0.1-0.6,0.2-0.8L83.6,479.9z M77.9,478
				l0.6-1.2l1.4,0l1.3,3.6l-0.8,0.5L77.9,478z M82.2,474.4l0.2,5.4l-0.5,0.3l-1.3-3.5l0.8-1.5c0.1-0.2,0-0.4-0.2-0.5
				c-0.2-0.1-0.4,0-0.5,0.2l-0.8,1.4l-1.6,0c-0.1,0-0.3,0.1-0.3,0.2l-0.8,1.4l-1.6,0c-0.2,0-0.4,0.2-0.4,0.4c0,0.2,0.2,0.4,0.4,0.4
				l1.7,0l2.5,2.8l-0.5,0.3l-4.6-2.8c0,0,0,0,0,0c-0.9-0.5-1.6-1.1-2.1-2c-1.5-2.5-0.6-5.7,1.9-7.1c2.5-1.5,5.7-0.6,7.1,1.9
				C82,472.4,82.2,473.3,82.2,474.4C82.2,474.3,82.2,474.4,82.2,474.4L82.2,474.4z"/>
			<path class="st15" d="M79.9,476.9l1.3,3.6l-0.8,0.5l-2.5-2.9l0.6-1.2L79.9,476.9z"/>
			<path class="st14" d="M81.5,471.5c0.5,0.9,0.8,1.8,0.7,2.8c0,0,0,0,0,0l0.2,5.4l-0.5,0.3l-1.3-3.5l0.8-1.5c0.1-0.2,0-0.4-0.2-0.5
				c-0.2-0.1-0.4,0-0.5,0.2l-0.8,1.4l-1.6,0c-0.1,0-0.3,0.1-0.3,0.2l-0.8,1.4l-1.6,0c-0.2,0-0.4,0.2-0.4,0.4c0,0.2,0.2,0.4,0.4,0.4
				l1.7,0l2.5,2.8l-0.5,0.3l-4.6-2.8c0,0,0,0,0,0c-0.9-0.5-1.6-1.1-2.1-2c-1.5-2.5-0.6-5.7,1.9-7.1C76.8,468.2,80,469,81.5,471.5
				L81.5,471.5z"/>
			<g>
				<path class="st15" d="M84.4,480.1c0.2,0.3,0.1,0.6-0.2,0.8l-4.9,2.9c-0.3,0.2-0.6,0.1-0.8-0.2c-0.2-0.3-0.1-0.6,0.2-0.8l4.9-2.9
					C83.9,479.7,84.3,479.8,84.4,480.1z"/>
				<path class="st15" d="M85.3,481.7c0.2,0.3,0.1,0.6-0.2,0.8l-4.9,2.9c-0.3,0.2-0.6,0.1-0.8-0.2c-0.2-0.3-0.1-0.6,0.2-0.8l4.9-2.9
					C84.8,481.4,85.2,481.4,85.3,481.7z"/>
				<path class="st15" d="M83.9,484.1c0.1,0.4-0.1,0.9-0.5,1.1c-0.4,0.2-0.9,0.2-1.2-0.1L83.9,484.1z"/>
			</g>
		</g>
		<g>
			<path class="st16" d="M41.4,484.1c-0.4,0.2-0.5,0.8-0.3,1.2l5.2,8.9c0.2,0.4,0.8,0.5,1.2,0.3l8.9-5.2c0.4-0.2,0.5-0.8,0.3-1.2
				l-2.6-4.4c-0.2-0.4-0.1-0.9,0.3-1.2c0.4-0.2,0.9-0.1,1.2,0.3l2.6,4.4c0.7,1.2,0.3,2.8-0.9,3.5l-8.9,5.2c-1.2,0.7-2.8,0.3-3.5-0.9
				l-5.2-8.9c-0.7-1.2-0.3-2.8,0.9-3.5l7.4-4.3c0.4-0.2,0.9-0.1,1.2,0.3c0.2,0.4,0.1,0.9-0.3,1.2L41.4,484.1z M51.7,477.4
				c0.1-0.5,0.6-0.7,1-0.6c0.5,0.1,0.7,0.6,0.6,1l-2.8,10.5c-0.1,0.5-0.6,0.7-1,0.6l-3.5-0.9c-0.5-0.1-0.7-0.6-0.6-1
				c0.1-0.5,0.6-0.7,1-0.6l2.7,0.7L51.7,477.4z"/>
		</g>
		<g>
			<path class="st1" d="M78,509.2c0,0-0.1,0-0.1,0.1c-0.3,0.2-0.6,0.2-0.9,0.1l-7.4-1.9l-2,7.5c-0.1,0.2-0.3,0.5-0.5,0.6l-0.1,0
				c0,0-0.1,0-0.1,0c-0.2,0.1-0.5,0.2-0.8,0.1c-0.6-0.2-1-0.8-0.8-1.4l2-7.5l-7.5-2c-0.6-0.2-0.9-0.9-0.7-1.5
				c0.1-0.3,0.3-0.5,0.5-0.6c0.2-0.1,0.5-0.2,0.8-0.1l7.5,1.9l1.9-7.4c0.1-0.3,0.3-0.5,0.5-0.7c0.3-0.2,0.6-0.2,0.9-0.1
				c0.6,0.2,0.9,0.7,0.8,1.3l-2,7.5l7.5,1.9c0.6,0.1,1,0.8,0.9,1.4c0,0,0,0,0,0C78.4,508.8,78.2,509.1,78,509.2z"/>
			<path class="st17" d="M77.8,508.6c0,0-0.1,0-0.1,0.1c-0.3,0.2-0.6,0.2-0.9,0.1l-7.4-1.9l-2,7.5c-0.1,0.2-0.3,0.5-0.5,0.6l-0.1,0
				c0,0-0.1,0-0.1,0c-0.2,0.1-0.5,0.2-0.8,0.1c-0.6-0.2-1-0.8-0.8-1.4l2-7.5l-7.5-2c-0.6-0.2-0.9-0.9-0.7-1.5
				c0.1-0.3,0.3-0.5,0.5-0.6c0.2-0.1,0.5-0.2,0.8-0.1l7.5,1.9l1.9-7.4c0.1-0.3,0.3-0.5,0.5-0.7c0.3-0.2,0.6-0.2,0.9-0.1
				c0.6,0.2,0.9,0.7,0.8,1.3l-2,7.5l7.5,1.9c0.6,0.1,1,0.8,0.9,1.4c0,0,0,0,0,0C78.3,508.2,78.1,508.4,77.8,508.6z"/>
		</g>
		<g>
			<g id="g7830_8_" transform="translate(293.2144,407.6475)">
				<path id="path7832_8_" class="st18" d="M-235.6,18.8l-23.5,13.7c-0.4,0.2-0.5,0.8-0.3,1.2l2.5,4.3c0.2,0.4,0.8,0.5,1.2,0.3
					l23.5-13.7c0.4-0.2,0.5-0.8,0.3-1.2l-2.5-4.3C-234.7,18.7-235.2,18.6-235.6,18.8"/>
			</g>
			<g id="g7834_8_" transform="translate(293.2144,407.6475)">
				<path id="path7836_8_" class="st19" d="M-235.6,18.8l-6.7,3.9c0.4-0.2,0.9-0.1,1.2,0.3l2.5,4.3c0.2,0.4,0.1,0.9-0.3,1.2l6.7-3.9
					c0.4-0.2,0.5-0.8,0.3-1.2l-2.5-4.3C-234.7,18.7-235.2,18.6-235.6,18.8"/>
			</g>
			<g id="g7838_8_" transform="translate(128.1699,407.6475)">
				<path id="path7840_8_" class="st20" d="M-94,32.5l23.5-13.7c0.4-0.2,0.9-0.1,1.2,0.3l2.5,4.3c0.2,0.4,0.1,0.9-0.3,1.2
					l-23.5,13.7c-0.4,0.2-0.9,0.1-1.2-0.3l-2.5-4.3C-94.6,33.3-94.4,32.8-94,32.5z"/>
			</g>
		</g>
		<g>
			<path class="st21" d="M38.4,408.8c-1.7-2.8-5.3-3.8-8.1-2.1c-2.8,1.7-3.8,5.3-2.1,8.1l-10.3,6l6,10.3c0.8,1.4,2.6,1.8,3.9,1
				L53.7,417c1.4-0.8,1.8-2.6,1-3.9l-6-10.3L38.4,408.8z"/>
			<path class="st22" d="M29.6,431.1L53.7,417c1.4-0.8,1.8-2.6,1-3.9l-6-10.3l-10.3,6c-1.7-2.8-5.3-3.8-8.1-2.1
				c-2.8,1.7-3.8,5.3-2.1,8.1l-10.3,6l6,10.3c0.8,1.4,2.6,1.8,3.9,1l3.6-2.1"/>
			<line class="st22" x1="27.5" y1="425.5" x2="48.1" y2="413.5"/>
			<g>
				<g>
					<line class="st22" x1="33.3" y1="411.8" x2="33.3" y2="411.8"/>
				</g>
			</g>
		</g>
	</g>
	<g>
		<g>
			<g>
				<path class="st23" d="M76.9,110L4.2,79.8C2,78.9,1,76.5,1.9,74.3l26-62.7L108.4,45l-26,62.7C81.5,109.9,79,110.9,76.9,110z"/>
			</g>
			<g>
				<path class="st24" d="M102.3,59.6C102.3,59.6,102.4,59.6,102.3,59.6l6.1-14.6l-20-8.3C87.6,46.3,93,55.8,102.3,59.6z"/>
			</g>
			<g>
				<path class="st24" d="M7,76.4l26-62.7l-5.1-2.1l-26,62.7C1,76.5,2,78.9,4.2,79.8l5.1,2.1C7.1,81,6.1,78.6,7,76.4z"/>
			</g>
			<g>
				<g>
					<g>
						<path class="st25" d="M109.3,32.1L36.5,1.9C34.4,1,31.9,2,31,4.2l-4.1,9.9l80.5,33.4l4.1-9.9C112.4,35.5,111.4,33,109.3,32.1z
							"/>
					</g>
				</g>
			</g>
			<g>
				<g>
					<g>
						<path class="st26" d="M109.3,32.1l-16.5-6.8c-1.1,1.4-2,3-2.7,4.8c-1.3,3.1-1.8,6.4-1.7,9.6l19,7.9l4.1-9.9
							C112.4,35.5,111.4,33,109.3,32.1L109.3,32.1z"/>
					</g>
				</g>
			</g>
			<g>
				<g>
					<g>
						<path class="st26" d="M41.6,4l-5.1-2.1C34.4,1,31.9,2,31,4.2l-4.1,9.9l5.1,2.1l4.1-9.9C37,4.1,39.5,3.1,41.6,4z"/>
					</g>
				</g>
			</g>
			<g>
				<g>
					<circle class="st27" cx="111" cy="38.7" r="17.4"/>
				</g>
			</g>
			<g>
				<g>
					<path class="st28" d="M98.2,33.4c3.5-8.3,12.6-12.5,21.1-10c-0.5-0.3-1-0.5-1.6-0.8C108.8,19,98.6,23.2,95,32
						c-3.7,8.9,0.5,19.1,9.4,22.7c0.5,0.2,1.1,0.4,1.7,0.6C98.2,51.2,94.8,41.7,98.2,33.4z"/>
				</g>
			</g>
			<g>
				<g>
					<g>
						<path class="st29" d="M81.7,87.5L52.5,67.1c-1.1-0.8-2.6-0.1-2.8,1.2l-6.3,35c-0.3,1.4,1.2,2.6,2.5,2l7.8-3.2
							c0.9-0.4,2,0.1,2.4,1l3.2,7.8c0.4,0.9,1.5,1.4,2.4,1l13.2-5.4c0.9-0.4,1.4-1.5,1-2.4l-3.2-7.8c-0.4-0.9,0.1-2,1-2.4l7.8-3.2
							C82.7,90.2,82.9,88.4,81.7,87.5L81.7,87.5z"/>
					</g>
				</g>
			</g>
			<g>
				<g>
					<g>
						<g>
							<path class="st30" d="M49.5,100.8L55.2,69l-2.7-1.9c-1.1-0.8-2.6-0.1-2.8,1.2l-6.3,35c-0.3,1.4,1.2,2.6,2.5,2l6.1-2.5
								C50.7,103.4,49.2,102.3,49.5,100.8z"/>
						</g>
					</g>
					<g>
						<g>
							<path class="st30" d="M65.4,108.5l-3.2-7.8c-0.4-0.9-1.5-1.4-2.4-1l-6.1,2.5c0.9-0.4,2,0.1,2.4,1l3.2,7.8
								c0.4,0.9,1.5,1.4,2.4,1l6.1-2.5C66.8,109.8,65.8,109.4,65.4,108.5z"/>
						</g>
					</g>
				</g>
			</g>
		</g>
		<g>
			<path class="st1" d="M21.4,27.3c0.8,0.3,1.7,0,2.1-0.9l4.3-10.3l58.1,24.1c0.8,0.3,1.7,0,2.1-0.9c0.3-0.8,0-1.7-0.9-2.1L29,13.2
				l3.5-8.4c0.6-1.3,2.1-2,3.4-1.4L90.4,26c0.8,0.3,1.7,0,2.1-0.9c0.3-0.8,0-1.7-0.9-2.1L37.1,0.4c-2.9-1.2-6.3,0.2-7.6,3.1l-9,21.7
				C20.2,26,20.6,26.9,21.4,27.3L21.4,27.3z"/>
			<path class="st1" d="M37.8,92.1l-33-13.7c-1.3-0.6-2-2.1-1.4-3.4l17.1-41.2c0.3-0.8,0-1.7-0.9-2.1c-0.8-0.3-1.7,0-2.1,0.9
				L0.4,73.7c-1.2,2.9,0.2,6.3,3.1,7.6l33,13.7c0.8,0.3,1.7,0,2.1-0.9S38.6,92.4,37.8,92.1z"/>
			<path class="st1" d="M102.3,59.9c-0.8-0.3-1.7,0-2.1,0.9l-18.6,44.9c-0.3,0.8,0,1.7,0.9,2.1c0.8,0.3,1.7,0,2.1-0.9L103.1,62
				C103.4,61.2,103.1,60.2,102.3,59.9z"/>
			<path class="st1" d="M37.5,9.2c-0.8-0.3-1.7,0-2.1,0.9s0,1.7,0.9,2.1l1.5,0.6c0.8,0.3,1.7,0,2.1-0.9s0-1.7-0.9-2.1L37.5,9.2z"/>
			<path class="st1" d="M44.8,12.2c-0.8-0.3-1.7,0-2.1,0.9s0,1.7,0.9,2.1l1.5,0.6c0.8,0.3,1.7,0,2.1-0.9s0-1.7-0.9-2.1L44.8,12.2z"
				/>
			<path class="st1" d="M52.1,15.2c-0.8-0.3-1.7,0-2.1,0.9s0,1.7,0.9,2.1l1.5,0.6c0.8,0.3,1.7,0,2.1-0.9s0-1.7-0.9-2.1L52.1,15.2z"
				/>
			<path class="st1" d="M118.3,21.2c-9.7-4-20.8,0.6-24.8,10.2c-4,9.7,0.6,20.8,10.2,24.8s20.8-0.6,24.8-10.2
				C132.6,36.3,128,25.2,118.3,21.2z M105,53.3c-8.1-3.3-11.9-12.6-8.5-20.7c3.3-8.1,12.6-11.9,20.7-8.5s11.9,12.6,8.5,20.7
				S113,56.7,105,53.3z"/>
			<path class="st1" d="M113.4,33c1.2,0.5,1.7,1.8,1.2,3c-0.3,0.8,0,1.7,0.9,2.1c0.8,0.3,1.7,0,2.1-0.9c0.9-2.3,0.2-4.8-1.6-6.3
				l0.8-2c0.3-0.8,0-1.7-0.9-2.1s-1.7,0-2.1,0.9l-0.8,2c-2.3-0.2-4.6,1.1-5.6,3.3c-1.2,2.8,0.2,6,2.9,7.1c0,0,0.1,0,0.1,0
				c1.1,0.5,1.6,1.8,1.1,3c-0.5,1.2-1.8,1.7-3,1.2s-1.7-1.8-1.2-3c0.3-0.8,0-1.7-0.9-2.1c-0.8-0.3-1.7,0-2.1,0.9
				c-0.9,2.3-0.2,4.8,1.6,6.3l-0.8,2c-0.3,0.8,0,1.7,0.9,2.1s1.7,0,2.1-0.9l0.8-2c2.3,0.2,4.6-1.1,5.6-3.3c1.2-2.8-0.2-6-2.9-7.1
				c0,0-0.1,0-0.1,0c-1.1-0.5-1.6-1.8-1.1-3C110.9,33.1,112.2,32.5,113.4,33L113.4,33z"/>
			<path class="st1" d="M53.7,60c2.3,1,4,3,4.5,5.5c0.2,0.9,1,1.4,1.9,1.2c0.9-0.2,1.4-1,1.2-1.9c-0.7-3.5-3.1-6.4-6.4-7.7
				c-2.6-1.1-5.5-1.1-8.2,0c-2.6,1.1-4.7,3.1-5.8,5.8c-1.3,3.1-1,6.7,0.7,9.5c0.2,0.3,0.4,0.5,0.7,0.6c0.4,0.2,1,0.2,1.4-0.1
				c0.7-0.4,1-1.4,0.5-2.2c-1.2-2.1-1.4-4.5-0.5-6.7c0.8-1.9,2.2-3.3,4.1-4.1C49.8,59.3,51.8,59.3,53.7,60L53.7,60z"/>
			<path class="st1" d="M65,69.3c-0.1,0.9,0.4,1.7,1.3,1.8c0.9,0.1,1.7-0.4,1.8-1.3c1.3-8.1-3.1-15.9-10.6-19.1
				c-9-3.7-19.3,0.5-23,9.5c-1.5,3.7-1.8,7.9-0.6,11.7c1.1,3.8,3.5,7.1,6.7,9.4c0.1,0.1,0.2,0.1,0.3,0.2c0.7,0.3,1.5,0.1,1.9-0.5
				c0.5-0.7,0.3-1.7-0.4-2.2c-5.5-3.9-7.6-11.2-5-17.3c3.1-7.4,11.5-10.9,18.9-7.8C62.5,56.2,66.1,62.6,65,69.3z"/>
			<path class="st1" d="M74.1,95.7c0-0.1,0-0.1,0-0.2c0,0,0.1-0.1,0.1-0.1l7.8-3.2c1.2-0.5,1.9-1.5,2.1-2.8c0.1-1.2-0.4-2.4-1.4-3.2
				L53.4,65.9c-1-0.7-2.2-0.8-3.3-0.4c-1.1,0.4-1.8,1.4-2.1,2.5l-6.3,35c-0.2,1.2,0.2,2.5,1.2,3.3c1,0.8,2.3,1,3.4,0.5l7.8-3.2
				c0.1-0.1,0.3,0,0.3,0.1l3.2,7.8c0.4,0.9,1,1.5,1.8,1.8c0.8,0.3,1.7,0.4,2.6,0l13.2-5.4c0.8-0.3,1.5-1,1.8-1.8
				c0.3-0.8,0.3-1.8,0-2.6L74.1,95.7z M74.2,105.1l-13.2,5.4c-0.1,0.1-0.3,0-0.3-0.1l-3.2-7.8c-0.4-0.9-1-1.5-1.8-1.8
				c-0.8-0.3-1.7-0.4-2.6,0l-7.8,3.2c0,0-0.1,0.1-0.3,0c-0.1-0.1-0.1-0.2-0.1-0.2l6.3-35c0-0.1,0.1-0.2,0.2-0.2s0.2,0,0.2,0
				l29.2,20.4c0,0,0.1,0.1,0.1,0.2c0,0.1-0.1,0.2-0.2,0.2L73,92.5c-0.8,0.3-1.5,1-1.8,1.8c-0.3,0.8-0.3,1.8,0,2.6l3.2,7.8
				c0,0.1,0,0.1,0,0.2S74.3,105,74.2,105.1L74.2,105.1z"/>
		</g>
	</g>
	<g id="Layer_35">
		<g>
			<g>
				<path class="st31" d="M67.6,277.2l-0.9,10.1L65.5,302l9.9-9.9l4.9,11.3l11.1-4.7l-4.8-11.4l14-0.2l-11.5-9.3l-7.9-6.4l-7.9-6.4
					l-4.6-3.6l-0.4,5.7L67.6,277.2z"/>
			</g>
			<g>
				<path class="st32" d="M64.3,250.6c-4.4,1.9-6.4,6.9-4.5,11.3c1.5,3.5,5,5.5,8.7,5.2l0.4-5.7l4.5,3.7c2.7-2.4,3.8-6.4,2.2-9.8
					C73.8,250.9,68.7,248.8,64.3,250.6L64.3,250.6z"/>
			</g>
			<g>
				<path class="st33" d="M60.4,241.5c-9.5,4-13.9,15-9.9,24.5c3,7.1,9.9,11.3,17,11.4l0.9-10.1c-3.6,0.3-7.2-1.7-8.7-5.2
					c-1.9-4.4,0.2-9.4,4.5-11.3c4.4-1.9,9.4,0.2,11.3,4.5c1.5,3.5,0.5,7.4-2.2,9.8l7.9,6.4c4.2-4.5,6.1-10.8,4.7-16.9
					c-2.7-2.8-4.6-6.1-5.8-9.8C75,240,67.3,238.5,60.4,241.5L60.4,241.5z"/>
			</g>
			<g>
				<path class="st32" d="M56.4,232.1c-11.4,4.8-18,16.1-17.5,27.7c2.5,3.7,3.9,8.2,3.7,12.7c4.9,8.9,14.3,14.3,24.1,14.7l0.9-10.1
					c-7.2-0.1-14-4.3-17-11.4c-4-9.5,0.4-20.4,9.9-24.5c6.9-2.9,14.6-1.3,19.8,3.3c-1.2-4-1.4-8.1-0.5-12.2
					C72.5,229.2,64.1,228.8,56.4,232.1L56.4,232.1z"/>
			</g>
			<g>
				<path class="st34" d="M43.1,296.4c-1.2,3,0.2,6.4,3.2,7.7c3,1.2,6.4-0.2,7.6-3.3c1.2-3-0.2-6.5-3.3-7.7
					C47.9,292,44.4,293.4,43.1,296.4L43.1,296.4z"/>
			</g>
			<g>
				<path class="st35" d="M3.2,263.8c-4.2,10.5,0.9,22.4,11.3,26.6c10.5,4.2,22.4-0.9,26.6-11.3c0.9-2.2,1.4-4.4,1.5-6.6
					c0.2-4.6-1-9.1-3.7-12.7c-2.2-3.2-5.3-5.7-9.1-7.3C19.3,248.4,7.4,253.5,3.2,263.8z"/>
			</g>
			<g>
				<path class="st34" d="M25,224.1c-1.3,3.3,0.2,7,3.6,8.4s7-0.2,8.4-3.6s-0.2-7-3.6-8.4S26.3,220.9,25,224.1z"/>
			</g>
			<g>
				<path class="st34" d="M57.3,205c-1.9,4.7,0.4,10.2,5.1,12.1c4.8,1.9,10.2-0.4,12.1-5.1c1.9-4.7-0.4-10.2-5.1-12.1
					C64.7,197.9,59.2,200.2,57.3,205z"/>
			</g>
			<g>
				<path class="st35" d="M79.6,232.5c-0.9,4.2-0.7,8.3,0.5,12.2c1.1,3.6,3.1,7,5.8,9.8c2.4,2.4,5.2,4.4,8.5,5.7
					c0.7,0.3,1.3,0.5,1.9,0.6c12.1,3.8,25.1-2.3,29.9-14.3c5.1-12.5-1.1-26.8-13.6-31.8s-26.8,0.9-31.9,13.5
					C80.3,229.7,79.9,231.2,79.6,232.5L79.6,232.5z"/>
			</g>
			<g>
				<path class="st32" d="M85.9,254.6c1.4,6.2-0.5,12.5-4.7,16.9l7.9,6.4c4.2-4.7,6.7-10.7,7.2-16.9c-0.6-0.2-1.3-0.4-1.9-0.6
					C91.1,258.9,88.3,257,85.9,254.6L85.9,254.6z"/>
			</g>
			<g>
				<path class="st1" d="M128.1,247.4c5.4-13.4-1.2-28.8-14.7-34.2c-13.4-5.4-28.9,1-34.3,14.5c-0.3,0.7-0.6,1.5-0.8,2.2
					c-7.3-2.7-15.5-2.6-22.6,0.5c-10.2,4.3-17.2,13.9-18.4,24.8c-2-1.7-4.2-3.3-6.7-4.3c-11.4-4.6-24.4,1-29,12.3
					c-4.6,11.4,1,24.4,12.3,29c11.4,4.6,24.4-1,29-12.3c0.3-0.8,0.6-1.6,0.8-2.3c3.4,4.2,7.7,7.5,12.6,9.5c2.6,1.1,5.4,1.8,8.4,2
					l-1.1,12.8c0,0.8,0.3,1.5,1.1,1.9l0.1,0c0.7,0.3,1.4,0.1,2-0.4l8-8l3.8,8.9c0.4,1,1.4,1.4,2.4,1l11.2-4.7c0.5-0.2,0.8-0.6,1-1.1
					s0.1-1,0.1-1.4l-3.8-8.9l11.3-0.2c0.8,0,1.4-0.5,1.7-1.3c0.3-0.7,0-1.6-0.6-2.1l-10.1-8.1c3.3-4.2,5.4-9.1,6.1-14.2
					C110.3,266,123.2,259.6,128.1,247.4L128.1,247.4z M84.2,255.3c1,4.8-0.2,9.7-3.2,13.5l-4.9-4c2.3-3,2.8-6.9,1.2-10.3
					c-2.3-5.3-8.5-7.8-13.8-5.6c-2.6,1.1-4.6,3.1-5.7,5.7c-1.1,2.6-1,5.5,0.1,8.1c1.1,2.6,3.2,4.6,5.7,5.7c0.8,0.3,1.7,0.5,2.7,0.7
					l-0.5,6.3c-6-0.7-11.3-4.5-13.7-10.2c-1.8-4.2-1.8-8.7-0.1-12.9s4.9-7.4,9-9.2c5.8-2.5,12.7-1.4,17.5,2.7
					C79.8,249.3,81.7,252.6,84.2,255.3L84.2,255.3z M70.1,260c-0.5-0.5-1.3-0.5-1.9-0.2s-1,0.9-1.2,1.5l-0.4,4
					c-2.3-0.4-4.3-1.9-5.2-4c-0.7-1.6-0.7-3.5,0-5.2c0.7-1.7,2-2.9,3.6-3.6c3.4-1.4,7.4,0.2,8.8,3.6c1,2.3,0.7,4.7-0.8,6.5L70.1,260
					z M15.2,288.7c-9.5-3.8-14.1-14.7-10.3-24.2c3.8-9.5,14.7-14.1,24.2-10.3s14.1,14.7,10.3,24.2C35.6,288,24.8,292.6,15.2,288.7z
					 M44.5,272.1c0.1-4.5-1.2-9-3.6-12.8c-0.3-10.9,6.1-21.2,16.3-25.5c6.5-2.7,13.8-2.8,20.4-0.2c-0.4,2.3-0.4,4.6-0.1,6.9
					c-5.4-2.8-12-3.3-17.8-0.9c-5,2.1-9,6.1-11.1,11.2c-2,5.1-2,10.7,0.2,15.7c2.2,5.2,6.2,9.1,11.2,11.1c1.7,0.7,3.5,1.2,5.4,1.4
					l-0.5,6.3C56.5,284.4,48.7,279.5,44.5,272.1L44.5,272.1z M86.5,285.6c-0.7,0-1.2,0.3-1.5,0.8c-0.3,0.5-0.3,1.2-0.1,1.7l4.1,9.7
					l-7.7,3.3l-4.1-9.7c-0.3-0.6-0.8-1-1.3-1.1c-0.6-0.1-1.2,0-1.7,0.5l-6.4,6.2l0.8-9.7l1.9-22.3l1.8,1.4L88,279l7.6,6.1
					L86.5,285.6z M88.9,275.1l-4.9-4c2.8-3.6,4.3-7.9,4.3-12.3c1.7,1.2,3.5,2.2,5.5,3l0.6,0.2C93.8,267,91.8,271.4,88.9,275.1z
					 M95.1,258.6c-11.6-4.7-17.2-17.9-12.6-29.4c4.7-11.6,17.9-17.1,29.5-12.4c11.7,4.6,17.3,17.8,12.6,29.3
					C120,257.6,106.8,263.2,95.1,258.6L95.1,258.6z"/>
				<path class="st1" d="M104.8,236l-0.9-0.4c-1.5-0.6-2.2-2.4-1.6-3.9c0.3-0.7,0.9-1.2,1.6-1.6c0.8-0.3,1.6-0.3,2.3,0l0.6,0.2
					l4.7,1.9c0.9,0.4,2-0.1,2.4-1s-0.1-2-1.1-2.5l-2.9-1.2l1.1-2.6c0.4-0.9-0.1-2-1-2.4c-0.9-0.4-2,0.1-2.4,1l-1.1,2.8
					c-1.4-0.3-2.6-0.1-3.9,0.4c-1.6,0.7-3,2-3.6,3.6c-1.4,3.4,0.3,7.3,3.7,8.7l0.9,0.4c1.5,0.6,2.2,2.4,1.6,3.9
					c-0.6,1.5-2.4,2.2-3.9,1.6l-5.4-2.2c-0.9-0.4-2,0.1-2.4,1s0.1,2,1,2.4l3.3,1.3l-1.1,2.8c-0.4,0.9,0.1,2,1,2.4
					c0.9,0.4,2-0.1,2.4-1l1.1-2.8c3,0.5,6.1-1.2,7.3-4.1C109.8,241.4,108.2,237.4,104.8,236L104.8,236z"/>
				<path class="st1" d="M61.9,218.8c5.7,2.3,12.2-0.4,14.5-6.2c2.3-5.7-0.4-12.2-6.2-14.5c-5.7-2.3-12.2,0.4-14.5,6.2
					C53.4,210,56.1,216.5,61.9,218.8z M68.8,201.6c3.8,1.5,5.6,5.9,4.1,9.7c-1.5,3.8-5.9,5.6-9.7,4.1c-3.8-1.5-5.6-5.9-4.1-9.7
					C60.7,201.9,64.9,200,68.8,201.6z"/>
				<path class="st1" d="M27.7,234.2c4.3,1.7,9.1-0.3,10.8-4.6s-0.3-9.1-4.6-10.8s-9.1,0.3-10.8,4.6
					C21.5,227.7,23.5,232.5,27.7,234.2z M32.6,222.2c2.3,0.9,3.5,3.6,2.5,6c-0.9,2.3-3.6,3.5-6,2.5s-3.3-3.6-2.4-5.9
					C27.6,222.5,30.3,221.3,32.6,222.2z"/>
				<path class="st1" d="M23.3,270l-0.8-0.3c-1.1-0.5-1.7-1.8-1.2-2.9c0.5-1.1,1.8-1.7,2.9-1.2l0.5,0.2l3.9,1.6c0.9,0.4,2-0.1,2.4-1
					c0.4-0.9-0.1-2-1-2.4l-2.2-0.9l0.8-2c0.4-0.9-0.1-2-1-2.4c-0.9-0.4-2,0.1-2.4,1l-0.8,2.1c-2.6-0.4-5.4,1-6.4,3.6
					c-1.2,3,0.2,6.5,3.3,7.7l0.8,0.3c1.1,0.5,1.7,1.8,1.2,2.9c-0.5,1.1-1.8,1.7-2.9,1.2l-4.5-1.8c-0.9-0.4-2,0.1-2.4,1
					c-0.4,0.9,0.1,2,1,2.4l2.5,1l-0.8,2c-0.4,0.9,0.1,2,1,2.4c0.9,0.4,2-0.1,2.4-1l0.8-2.1c2.6,0.2,5.1-1.1,6.2-3.7
					C27.7,274.7,26.3,271.2,23.3,270z"/>
				<path class="st1" d="M51.5,291.5c-4-1.6-8.5,0.3-10.2,4.3c-1.6,4,0.3,8.5,4.3,10.2c4,1.6,8.5-0.3,10.2-4.3
					S55.4,293.1,51.5,291.5z M47.1,302.4c-2.1-0.8-3.1-3.3-2.3-5.3s3.3-3.1,5.3-2.3s3.1,3.3,2.3,5.3S49.2,303.2,47.1,302.4z"/>
			</g>
		</g>
	</g>
</g>
</svg>
