<?xml version="1.0" encoding="utf-8"?>
<!-- Generator: Adobe Illustrator 26.0.2, SVG Export Plug-In . SVG Version: 6.00 Build 0)  -->
<svg version="1.1" id="ppc-agency-illustration-01" xmlns="http://www.w3.org/2000/svg" xmlns:xlink="http://www.w3.org/1999/xlink"
	 x="0px" y="0px" viewBox="0 0 400 400" style="enable-background:new 0 0 400 400;" xml:space="preserve">
<style type="text/css">
	.st0{fill:none;}
	.st1{fill:#FFD886;}
	.st2{fill:#515979;}
	.st3{fill:#FBB040;}
	.st4{fill:#9E8271;}
	.st5{fill:#FFE8B6;}
	.st6{fill:#EF7D7D;}
	.st7{fill:#FFC369;}
</style>
<g>
	<rect class="st0" width="400" height="400"/>
	<g>
		<g>
			<g>
				<path class="st1" d="M120,180c-16.91,0-30.67-13.76-30.67-30.67v-38.67c0-2.21,1.79-4,4-4h40c2.21,0,4,1.79,4,4v8
					c0,2.21-1.79,4-4,4h-28V148c0,8.82,7.18,16,16,16h12c2.21,0,4,1.79,4,4v8c0,2.21-1.79,4-4,4H120z"/>
			</g>
			<g>
				<path class="st2" d="M133.33,110.67v8h-32V148c0,11.05,8.95,20,20,20h12v8H120c-14.73,0-26.67-11.94-26.67-26.67v-38.67H133.33
					 M133.33,102.67h-40c-4.42,0-8,3.58-8,8v38.67c0,19.12,15.55,34.67,34.67,34.67h13.33c4.42,0,8-3.58,8-8v-8c0-4.42-3.58-8-8-8
					h-12c-6.62,0-12-5.38-12-12v-21.33h24c4.42,0,8-3.58,8-8v-8C141.33,106.25,137.75,102.67,133.33,102.67L133.33,102.67z"/>
			</g>
		</g>
		<g>
			<g>
				<rect x="117.33" y="110.67" class="st3" width="16" height="8"/>
			</g>
			<g>
				<path class="st3" d="M133.33,168h-12c-0.43,0-0.85-0.04-1.28-0.06c0.76,2.76,1.68,5.45,2.74,8.06h10.53V168z"/>
			</g>
		</g>
		<g>
			<g>
				<path class="st1" d="M266.67,180c-2.21,0-4-1.79-4-4v-8c0-2.21,1.79-4,4-4h12c8.82,0,16-7.18,16-16v-25.33h-28
					c-2.21,0-4-1.79-4-4v-8c0-2.21,1.79-4,4-4h40c2.21,0,4,1.79,4,4v38.67c0,16.91-13.76,30.67-30.67,30.67H266.67z"/>
			</g>
			<g>
				<path class="st2" d="M306.67,110.67v38.67c0,14.73-11.94,26.67-26.67,26.67h-13.33v-8h12c11.05,0,20-8.95,20-20v-29.33h-32v-8
					H306.67 M306.67,102.67h-40c-4.42,0-8,3.58-8,8v8c0,4.42,3.58,8,8,8h24V148c0,6.62-5.38,12-12,12h-12c-4.42,0-8,3.58-8,8v8
					c0,4.42,3.58,8,8,8H280c19.12,0,34.67-15.55,34.67-34.67v-38.67C314.67,106.25,311.08,102.67,306.67,102.67L306.67,102.67z"/>
			</g>
		</g>
		<g>
			<g>
				<rect x="266.67" y="110.67" class="st3" width="16" height="8"/>
			</g>
			<g>
				<path class="st3" d="M266.67,168h12c0.43,0,0.85-0.04,1.28-0.06c-0.76,2.76-1.68,5.45-2.74,8.06h-10.53V168z"/>
			</g>
		</g>
		<g>
			<g>
				<path class="st1" d="M192,264c-2.21,0-4-1.79-4-4v-37.33c0-2.21,1.79-4,4-4h16c2.21,0,4,1.79,4,4V260c0,2.21-1.79,4-4,4H192z"/>
			</g>
			<g>
				<g>
					<path class="st2" d="M208,222.67V260h-16v-37.33H208 M208,214.67h-16c-4.42,0-8,3.58-8,8V260c0,4.42,3.58,8,8,8h16
						c4.42,0,8-3.58,8-8v-37.33C216,218.25,212.42,214.67,208,214.67L208,214.67z"/>
				</g>
			</g>
		</g>
		<g>
			<rect x="192" y="214.67" class="st3" width="16" height="21.33"/>
		</g>
		<g>
			<g>
				<path class="st4" d="M150.67,322.67c-2.21,0-4-1.79-4-4v-56c0-2.21,1.79-4,4-4h98.67c2.21,0,4,1.79,4,4v56c0,2.21-1.79,4-4,4
					H150.67z"/>
			</g>
			<g>
				<g>
					<path class="st2" d="M249.33,262.67v56h-98.67v-56H249.33 M249.33,254.67h-98.67c-4.42,0-8,3.58-8,8v56c0,4.42,3.58,8,8,8
						h98.67c4.42,0,8-3.58,8-8v-56C257.33,258.25,253.75,254.67,249.33,254.67L249.33,254.67z"/>
				</g>
			</g>
		</g>
		<g>
			<g>
				<path class="st1" d="M164,308c-1.47,0-2.67-1.19-2.67-2.67V276c0-1.47,1.19-2.67,2.67-2.67h72c1.47,0,2.67,1.19,2.67,2.67v29.33
					c0,1.47-1.19,2.67-2.67,2.67H164z"/>
			</g>
			<g>
				<g>
					<path class="st2" d="M236,276v29.33h-72V276H236 M236,270.67h-72c-2.95,0-5.33,2.39-5.33,5.33v29.33
						c0,2.95,2.39,5.33,5.33,5.33h72c2.95,0,5.33-2.39,5.33-5.33V276C241.33,273.05,238.95,270.67,236,270.67L236,270.67z"/>
				</g>
			</g>
		</g>
		<g>
			<g>
				<path class="st1" d="M200,218.67c-38.97,0-70.67-31.7-70.67-70.67V81.33c0-2.21,1.79-4,4-4h133.33c2.21,0,4,1.79,4,4V148
					C270.67,186.97,238.97,218.67,200,218.67z"/>
			</g>
			<g>
				<path class="st2" d="M266.67,81.33V148c0,36.82-29.85,66.67-66.67,66.67h0c-36.82,0-66.67-29.85-66.67-66.67V81.33H266.67
					 M266.67,73.33H133.33c-4.42,0-8,3.58-8,8V148c0,41.17,33.5,74.67,74.67,74.67c41.17,0,74.67-33.5,74.67-74.67V81.33
					C274.67,76.92,271.08,73.33,266.67,73.33L266.67,73.33z"/>
			</g>
		</g>
		<g>
			<g>
				<path class="st2" d="M182.81,285.91l-3,9.71h-2.04l-1.83-6.02c-0.04-0.09-0.07-0.2-0.1-0.31s-0.06-0.23-0.09-0.36
					c-0.03,0.12-0.06,0.24-0.09,0.36s-0.06,0.22-0.1,0.31l-1.85,6.02h-2.04l-3-9.71h1.89c0.2,0,0.36,0.05,0.49,0.13
					c0.13,0.09,0.22,0.21,0.26,0.35l1.33,5.07c0.04,0.16,0.08,0.33,0.12,0.52c0.04,0.19,0.08,0.39,0.12,0.59
					c0.08-0.42,0.18-0.79,0.29-1.11l1.57-5.07c0.04-0.12,0.12-0.24,0.26-0.34c0.13-0.1,0.29-0.15,0.48-0.15h0.67
					c0.2,0,0.35,0.05,0.47,0.14c0.12,0.09,0.21,0.21,0.27,0.35l1.56,5.07c0.11,0.31,0.21,0.67,0.29,1.06
					c0.04-0.2,0.07-0.39,0.11-0.56c0.04-0.18,0.08-0.34,0.12-0.5l1.33-5.07c0.04-0.13,0.12-0.24,0.25-0.34
					c0.13-0.1,0.29-0.15,0.48-0.15H182.81z"/>
			</g>
			<g>
				<path class="st2" d="M186.05,295.62h-2.27v-9.71h2.27V295.62z"/>
			</g>
			<g>
				<path class="st2" d="M196.41,285.91v9.71h-1.17c-0.17,0-0.32-0.03-0.44-0.08c-0.12-0.05-0.23-0.15-0.35-0.29l-4.58-5.79
					c0.02,0.17,0.03,0.34,0.04,0.5c0.01,0.16,0.01,0.31,0.01,0.46v5.21h-1.99v-9.71h1.19c0.1,0,0.18,0.01,0.25,0.01
					c0.07,0.01,0.13,0.02,0.18,0.05c0.05,0.02,0.1,0.06,0.15,0.1c0.05,0.05,0.1,0.11,0.17,0.18l4.62,5.83
					c-0.02-0.19-0.04-0.37-0.05-0.54c-0.01-0.17-0.01-0.34-0.01-0.5v-5.14H196.41z"/>
			</g>
			<g>
				<path class="st2" d="M208.11,288.53l-0.16,0.84c-0.04,0.21-0.13,0.36-0.26,0.46c-0.14,0.1-0.35,0.14-0.64,0.14h-0.42l-0.27,1.57
					h0.72c0.21,0,0.36,0.06,0.45,0.18c0.09,0.12,0.11,0.33,0.06,0.62l-0.11,0.64h-1.32l-0.47,2.63h-0.96
					c-0.09,0-0.18-0.02-0.26-0.07c-0.08-0.04-0.15-0.1-0.21-0.18c-0.05-0.08-0.09-0.16-0.12-0.26s-0.02-0.2,0-0.31l0.32-1.81h-1.1
					l-0.33,1.91c-0.02,0.13-0.06,0.24-0.12,0.33s-0.13,0.17-0.21,0.22c-0.08,0.06-0.17,0.1-0.27,0.13c-0.1,0.03-0.2,0.04-0.31,0.04
					h-0.92l0.47-2.63h-0.59c-0.21,0-0.36-0.06-0.45-0.18c-0.09-0.12-0.11-0.33-0.06-0.62l0.11-0.64h1.19l0.27-1.57h-1.33l0.16-0.84
					c0.04-0.2,0.13-0.36,0.26-0.45s0.35-0.15,0.64-0.15h0.45l0.35-1.95c0.04-0.21,0.14-0.37,0.3-0.49c0.16-0.12,0.35-0.18,0.56-0.18
					h0.95l-0.47,2.62h1.11l0.47-2.62h0.92c0.11,0,0.2,0.02,0.29,0.05c0.09,0.04,0.16,0.08,0.22,0.14c0.06,0.06,0.1,0.13,0.13,0.21
					c0.03,0.08,0.03,0.17,0.01,0.27l-0.35,1.94H208.11z M204.93,289.97h-1.11l-0.27,1.57h1.11L204.93,289.97z"/>
			</g>
			<g>
				<path class="st2" d="M212.3,291.94c0.06-0.08,0.12-0.15,0.18-0.22c0.06-0.07,0.11-0.14,0.16-0.21
					c-0.41,0.22-0.87,0.33-1.39,0.33c-0.32,0-0.63-0.06-0.95-0.17c-0.32-0.11-0.6-0.29-0.86-0.52c-0.26-0.23-0.46-0.52-0.62-0.87
					s-0.24-0.77-0.24-1.25c0-0.44,0.08-0.86,0.24-1.25c0.16-0.39,0.39-0.73,0.69-1.03c0.3-0.29,0.66-0.53,1.08-0.7
					c0.42-0.17,0.88-0.26,1.4-0.26c0.52,0,0.99,0.08,1.41,0.24c0.41,0.16,0.76,0.38,1.05,0.67c0.29,0.29,0.51,0.63,0.66,1.03
					c0.15,0.4,0.23,0.84,0.23,1.32c0,0.64-0.1,1.2-0.29,1.71c-0.19,0.5-0.45,0.98-0.77,1.42l-2.09,2.97
					c-0.09,0.13-0.23,0.24-0.42,0.33c-0.19,0.09-0.4,0.13-0.64,0.13h-1.91L212.3,291.94z M210.65,288.88c0,0.97,0.45,1.45,1.35,1.45
					c0.44,0,0.78-0.13,1.02-0.4c0.24-0.26,0.36-0.62,0.36-1.06c0-0.24-0.04-0.44-0.1-0.62c-0.07-0.18-0.16-0.33-0.29-0.45
					c-0.12-0.12-0.27-0.21-0.44-0.27c-0.17-0.06-0.36-0.09-0.57-0.09c-0.21,0-0.39,0.04-0.56,0.11c-0.16,0.07-0.3,0.17-0.41,0.3
					s-0.2,0.28-0.26,0.46C210.68,288.48,210.65,288.67,210.65,288.88z"/>
			</g>
			<g>
				<path class="st2" d="M216.48,288.68c0.07-0.48,0.21-0.91,0.41-1.27c0.2-0.36,0.45-0.66,0.75-0.9c0.3-0.24,0.64-0.42,1.03-0.54
					c0.39-0.12,0.8-0.18,1.25-0.18c0.48,0,0.91,0.07,1.28,0.2c0.37,0.14,0.69,0.32,0.95,0.55c0.26,0.23,0.45,0.5,0.59,0.8
					c0.13,0.3,0.2,0.62,0.2,0.96c0,0.31-0.03,0.58-0.09,0.81c-0.06,0.23-0.15,0.43-0.28,0.61c-0.12,0.17-0.27,0.32-0.45,0.43
					c-0.18,0.12-0.39,0.22-0.62,0.3c1.08,0.38,1.61,1.11,1.61,2.2c0,0.52-0.09,0.96-0.28,1.35c-0.19,0.38-0.44,0.7-0.75,0.95
					c-0.31,0.25-0.68,0.44-1.09,0.57c-0.41,0.13-0.85,0.19-1.29,0.19c-0.46,0-0.87-0.05-1.23-0.15c-0.36-0.1-0.68-0.26-0.96-0.47
					c-0.28-0.21-0.53-0.48-0.74-0.81c-0.21-0.33-0.39-0.72-0.55-1.17l0.92-0.37c0.24-0.09,0.46-0.12,0.67-0.07
					c0.2,0.04,0.35,0.15,0.44,0.31c0.2,0.37,0.41,0.64,0.64,0.8c0.23,0.17,0.49,0.25,0.79,0.25c0.23,0,0.43-0.04,0.6-0.12
					c0.17-0.08,0.31-0.18,0.43-0.3c0.11-0.12,0.2-0.26,0.26-0.42c0.06-0.16,0.09-0.31,0.09-0.47c0-0.21-0.01-0.4-0.04-0.56
					c-0.03-0.17-0.11-0.31-0.24-0.43c-0.13-0.12-0.33-0.21-0.6-0.28c-0.27-0.07-0.64-0.1-1.12-0.1v-1.43c0.4,0,0.73-0.03,0.98-0.09
					c0.25-0.06,0.44-0.15,0.58-0.26c0.14-0.11,0.23-0.24,0.27-0.4c0.04-0.16,0.07-0.33,0.07-0.51c0-0.38-0.09-0.68-0.28-0.88
					c-0.18-0.21-0.47-0.31-0.84-0.31c-0.31,0-0.57,0.08-0.78,0.24c-0.21,0.16-0.36,0.36-0.44,0.6c-0.09,0.24-0.21,0.41-0.37,0.49
					c-0.15,0.08-0.37,0.1-0.65,0.05L216.48,288.68z"/>
			</g>
			<g>
				<path class="st2" d="M230.98,285.91v0.87c0,0.26-0.03,0.47-0.09,0.62c-0.06,0.16-0.11,0.29-0.17,0.4l-3.37,7.15
					c-0.09,0.19-0.23,0.35-0.4,0.48c-0.17,0.13-0.4,0.2-0.68,0.2h-1.51l3.47-6.95c0.1-0.19,0.21-0.36,0.31-0.51
					c0.1-0.15,0.22-0.3,0.35-0.44h-4.27c-0.06,0-0.12-0.01-0.18-0.04c-0.06-0.02-0.1-0.06-0.15-0.1c-0.04-0.04-0.08-0.09-0.1-0.15
					c-0.03-0.05-0.04-0.11-0.04-0.17v-1.36H230.98z"/>
			</g>
		</g>
		<g>
			<path class="st3" d="M200,208c-36.82,0-66.67-29.85-66.67-66.67V148c0,36.82,29.85,66.67,66.67,66.67s66.67-29.85,66.67-66.67
				v-6.67C266.67,178.15,236.82,208,200,208z"/>
		</g>
		<g>
			<rect x="133.33" y="81.33" class="st5" width="133.33" height="5.33"/>
		</g>
		<g>
			<g>
				<g>
					<g>
						<path class="st2" d="M200,180.91c-15.07,0-27.33-12.26-27.33-27.33c0-1.84,1.49-3.33,3.33-3.33h48c1.84,0,3.33,1.49,3.33,3.33
							C227.33,168.65,215.07,180.91,200,180.91z"/>
					</g>
					<g>
						<path class="st2" d="M224,153.58L224,153.58 M224,153.58c0,13.25-10.75,24-24,24s-24-10.75-24-24H224 M224.01,146.91
							L224.01,146.91H176c-3.68,0-6.67,2.98-6.67,6.67c0,16.91,13.76,30.67,30.67,30.67c16.83,0,30.54-13.63,30.67-30.43
							c0-0.08,0-0.16,0-0.24C230.67,149.9,227.69,146.91,224.01,146.91L224.01,146.91z M224,160.25L224,160.25L224,160.25
							L224,160.25z"/>
					</g>
				</g>
				<g>
					<g>
						<ellipse class="st6" cx="200" cy="169.58" rx="17.85" ry="8"/>
					</g>
				</g>
			</g>
			<g>
				<path class="st2" d="M212.19,108.96c4.9-4.15,12.66-4.91,17.98-1.06c2.44,1.74,6.53,6.37,2.72,8.53
					c-0.98,0.47-1.99,0.22-2.85-0.28c-4.15-2.57-8.35-3.34-13.15-2.69c-1.03,0.09-2.01,0.24-2.98,0.19
					C211.47,113.69,210.33,110.47,212.19,108.96L212.19,108.96z"/>
			</g>
			<g>
				<path class="st2" d="M185.28,113.65c-3.87-0.37-8.02-0.86-11.66,0.68c-1.27,0.43-2.68,1.36-4.16,2.06
					c-2.24,1.17-4.76-1.33-3.67-3.57c2.54-6.18,10.5-8.8,16.6-6.76c2.6,0.86,8.26,3.12,5.73,6.65
					C187.4,113.6,186.3,113.7,185.28,113.65L185.28,113.65z"/>
			</g>
			<g>
				<g>
					<path class="st2" d="M189.36,138.25c-1.84,0-3.33-1.49-3.33-3.33c0-3.31-2.69-6-6-6s-6,2.69-6,6c0,1.84-1.49,3.33-3.33,3.33
						s-3.33-1.49-3.33-3.33c0-6.98,5.68-12.67,12.67-12.67s12.67,5.68,12.67,12.67C192.7,136.76,191.2,138.25,189.36,138.25z"/>
				</g>
			</g>
			<g>
				<g>
					<path class="st2" d="M229.3,138.25c-1.84,0-3.33-1.49-3.33-3.33c0-3.31-2.69-6-6-6s-6,2.69-6,6c0,1.84-1.49,3.33-3.33,3.33
						s-3.33-1.49-3.33-3.33c0-6.98,5.68-12.67,12.67-12.67s12.67,5.68,12.67,12.67C232.64,136.76,231.14,138.25,229.3,138.25z"/>
				</g>
			</g>
		</g>
		<g>
			<g>
				<g>
					<circle class="st7" cx="242.67" cy="154.67" r="2.67"/>
				</g>
			</g>
			<g>
				<g>
					<circle class="st7" cx="253.33" cy="154.67" r="2.67"/>
				</g>
			</g>
			<g>
				<g>
					<circle class="st7" cx="248" cy="144" r="2.67"/>
				</g>
			</g>
		</g>
		<g>
			<g>
				<g>
					<circle class="st7" cx="146.67" cy="154.67" r="2.67"/>
				</g>
			</g>
			<g>
				<g>
					<circle class="st7" cx="157.33" cy="154.67" r="2.67"/>
				</g>
			</g>
			<g>
				<g>
					<circle class="st7" cx="152" cy="144" r="2.67"/>
				</g>
			</g>
		</g>
	</g>
	<g>
		<g>
			<path class="st1" d="M202.53,33.87c-3.53,0-6.4-2.87-6.4-6.4c0-1.18-0.96-2.13-2.13-2.13c-1.18,0-2.13,0.96-2.13,2.13
				c0,3.53-2.87,6.4-6.4,6.4c-1.18,0-2.13,0.96-2.13,2.13s0.96,2.13,2.13,2.13c3.53,0,6.4,2.87,6.4,6.4c0,1.18,0.96,2.13,2.13,2.13
				c1.18,0,2.13-0.96,2.13-2.13c0-3.53,2.87-6.4,6.4-6.4c1.18,0,2.13-0.96,2.13-2.13S203.71,33.87,202.53,33.87z"/>
		</g>
		<g>
			<path class="st1" d="M319.6,246.93c-3.97,0-7.2-3.23-7.2-7.2c0-1.33-1.07-2.4-2.4-2.4c-1.33,0-2.4,1.07-2.4,2.4
				c0,3.97-3.23,7.2-7.2,7.2c-1.33,0-2.4,1.07-2.4,2.4s1.07,2.4,2.4,2.4c3.97,0,7.2,3.23,7.2,7.2c0,1.33,1.07,2.4,2.4,2.4
				c1.33,0,2.4-1.07,2.4-2.4c0-3.97,3.23-7.2,7.2-7.2c1.33,0,2.4-1.07,2.4-2.4S320.93,246.93,319.6,246.93z"/>
		</g>
		<g>
			<path class="st1" d="M78.27,288.27c-3.97,0-7.2-3.23-7.2-7.2c0-1.33-1.07-2.4-2.4-2.4c-1.33,0-2.4,1.07-2.4,2.4
				c0,3.97-3.23,7.2-7.2,7.2c-1.33,0-2.4,1.07-2.4,2.4c0,1.33,1.07,2.4,2.4,2.4c3.97,0,7.2,3.23,7.2,7.2c0,1.33,1.07,2.4,2.4,2.4
				c1.33,0,2.4-1.07,2.4-2.4c0-3.97,3.23-7.2,7.2-7.2c1.33,0,2.4-1.07,2.4-2.4C80.67,289.34,79.59,288.27,78.27,288.27z"/>
		</g>
		<g>
			<circle class="st1" cx="62" cy="217.33" r="4"/>
		</g>
		<g>
			<circle class="st1" cx="305.33" cy="319.33" r="3.33"/>
		</g>
		<g>
			<circle class="st1" cx="362.67" cy="260.67" r="3.33"/>
		</g>
		<g>
			<circle class="st1" cx="114.67" cy="335.33" r="6"/>
		</g>
		<g>
			<circle class="st1" cx="82" cy="69.33" r="5.33"/>
		</g>
		<g>
			<circle class="st1" cx="42.67" cy="136.67" r="3.33"/>
		</g>
		<g>
			<circle class="st1" cx="338" cy="185.33" r="4"/>
		</g>
		<g>
			<g>
				<path class="st1" d="M347.33,148c-2.21,0-4-1.79-4-4v-26.67c0-2.21,1.79-4,4-4c2.21,0,4,1.79,4,4V144
					C351.33,146.21,349.54,148,347.33,148z"/>
			</g>
			<g>
				<path class="st1" d="M360.67,134.67H334c-2.21,0-4-1.79-4-4s1.79-4,4-4h26.67c2.21,0,4,1.79,4,4S362.88,134.67,360.67,134.67z"
					/>
			</g>
		</g>
	</g>
</g>
</svg>
