<?xml version="1.0" encoding="utf-8"?>
<!-- Generator: Adobe Illustrator 25.0.0, SVG Export Plug-In . SVG Version: 6.00 Build 0)  -->
<svg version="1.1" id="Layer_1" xmlns="http://www.w3.org/2000/svg" xmlns:xlink="http://www.w3.org/1999/xlink" x="0px" y="0px"
	 viewBox="0 0 130 535.6" style="enable-background:new 0 0 130 535.6;" xml:space="preserve">
<style type="text/css">
	.st0{fill:#87796F;}
	.st1{fill:#35414D;}
	.st2{fill-rule:evenodd;clip-rule:evenodd;fill:#FFF2E8;}
	.st3{fill-rule:evenodd;clip-rule:evenodd;fill:#FFE4CF;}
	.st4{fill-rule:evenodd;clip-rule:evenodd;fill:#CECECE;}
	.st5{fill:none;stroke:#35414D;stroke-width:2.221;stroke-linecap:round;stroke-linejoin:round;stroke-miterlimit:13.3333;}
	.st6{fill:none;stroke:#35414D;stroke-width:0.9519;stroke-linecap:round;stroke-linejoin:round;stroke-miterlimit:13.3333;}
	.st7{fill-rule:evenodd;clip-rule:evenodd;fill:#838383;}
	.st8{fill-rule:evenodd;clip-rule:evenodd;fill:#FE9737;}
	.st9{fill-rule:evenodd;clip-rule:evenodd;fill:#B5ADB6;}
	.st10{fill-rule:evenodd;clip-rule:evenodd;fill:#F36B37;}
	.st11{fill-rule:evenodd;clip-rule:evenodd;fill:#595959;}
	.st12{fill:#60A917;}
	.st13{fill:#FE9737;}
	.st14{fill:#D8D8D8;}
	.st15{fill-rule:evenodd;clip-rule:evenodd;fill:#35414D;}
	.st16{fill-rule:evenodd;clip-rule:evenodd;fill:#99DD58;}
	.st17{fill:#FF5A5A;}
	.st18{fill-rule:evenodd;clip-rule:evenodd;fill:#97DA7B;}
	.st19{fill-rule:evenodd;clip-rule:evenodd;fill:#68CA44;}
	.st20{fill:none;stroke:#35414D;stroke-width:1.5409;stroke-linecap:round;stroke-linejoin:round;stroke-miterlimit:13.3333;}
	.st21{fill:#6F909E;}
	.st22{fill:none;stroke:#35414D;stroke-width:2.8728;stroke-linecap:round;stroke-linejoin:round;stroke-miterlimit:10;}
	.st23{fill:#E8EDF2;}
	.st24{fill:#C5D3DD;}
	.st25{fill:#90D8F9;}
	.st26{fill:#75CEF9;}
	.st27{fill:#FFD064;}
	.st28{fill:#EBB044;}
	.st29{fill:#DD636E;}
	.st30{fill:#C63D4F;}
	.st31{fill-rule:evenodd;clip-rule:evenodd;fill:#FFFFFF;}
	.st32{fill-rule:evenodd;clip-rule:evenodd;fill:#76D6B2;}
	.st33{fill-rule:evenodd;clip-rule:evenodd;fill:#A2E4CA;}
	.st34{fill-rule:evenodd;clip-rule:evenodd;fill:#FCEEBA;}
	.st35{fill-rule:evenodd;clip-rule:evenodd;fill:#FFCD57;}
</style>
<g>
	<g>
		<g>
			<path class="st0" d="M70.4,534.5c4.2,0,8.1-2.2,10.2-5.8l46.7-79.8c3.3-5.6,1.4-12.8-4.2-16.1l-57.6-33.7
				c-1.8-1.1-3.9-1.6-5.9-1.6c-4.2,0-8.1,2.2-10.2,5.8L2.7,483.1c-1.6,2.7-2,5.9-1.2,8.9c0.8,3,2.7,5.6,5.4,7.2l57.6,33.7
				C66.3,533.9,68.4,534.5,70.4,534.5C70.4,534.5,70.4,534.5,70.4,534.5z"/>
			<path class="st1" d="M59.6,398.6c1.8,0,3.7,0.5,5.4,1.5l57.6,33.7c5.1,3,6.8,9.5,3.8,14.6l-46.7,79.8c-2,3.4-5.6,5.3-9.2,5.3
				c-1.8,0-3.7-0.5-5.4-1.5L7.5,498.3c-5.1-3-6.8-9.5-3.8-14.6l46.7-79.8C52.3,400.5,55.9,398.6,59.6,398.6 M59.6,396.4
				c-4.6,0-8.8,2.4-11.1,6.4L1.8,482.5c-1.7,3-2.2,6.4-1.3,9.8c0.9,3.3,3,6.1,6,7.8L64,533.8c2,1.2,4.2,1.8,6.5,1.8
				c4.6,0,8.8-2.4,11.1-6.4l46.7-79.8c1.7-3,2.2-6.4,1.3-9.8c-0.9-3.3-3-6.1-6-7.8L66,398.2C64.1,397,61.8,396.4,59.6,396.4
				L59.6,396.4z"/>
		</g>
		<g id="g7750_9_" transform="translate(18.5,457.4355)">
			<path id="path7752_9_" class="st2" d="M101.6-8.2L54.4,72.4c-0.4,0.7-1.2,0.9-1.9,0.6L34.3,62.3L-4.9,39.4l-7.8-4.5
				c-0.6-0.4-0.8-1.2-0.4-1.9l43.3-74l0.4-0.8c0.1-0.1,0.1-0.2,0.2-0.2l9.3,5.4c2.5,1.5,5.9,0.5,7.5-2.2L53-48c0.1,0,0.2,0,0.3,0.1
				l0.9,0.5l51.2,30c0.6,0.4,0.8,1.2,0.4,1.9L101.6-8.2z"/>
		</g>
		<g id="g7754_9_" transform="translate(257.3203,504.5)">
			<path id="path7756_9_" class="st3" d="M-173.1-87.7c-14.5,4.5-29.4,16.9-39.8,34.7c-2.3,3.9-4.2,7.8-5.8,11.7
				c-0.5,1.3-1,2.5-1.4,3.8c-0.5,1.5-1,3-1.5,4.5c-4.2,14.1-4.1,27.8,0,38.3l-22-12.9l-7.8-4.5c-0.6-0.4-0.8-1.2-0.4-1.9l8-13.7
				l10.6-18.1l24.7-42.2l0.4-0.8c0.1-0.1,0.1-0.2,0.2-0.2l22.1-6c0.1,0,0.2,0,0.3,0.1l0.9,0.5L-173.1-87.7z"/>
		</g>
		<g id="g7758_9_" transform="translate(331.5508,504.1592)">
			<path id="path7760_9_" class="st4" d="M-260-94.7l-5.4,9.2c-1.6,2.7-4.9,3.7-7.5,2.2l-9.3-5.4c0.2-0.1,0.4-0.2,1-0.3l20-5.4
				C-260.5-94.6-260.3-94.7-260-94.7"/>
		</g>
		<g id="g7762_9_" transform="translate(331.5508,504.1592)">
			<path id="path7764_9_" class="st5" d="M-260-94.7l-5.4,9.2c-1.6,2.7-4.9,3.7-7.5,2.2l-8.4-4.9"/>
		</g>
		<g id="g7766_9_" transform="translate(413.1929,241.0635)">
			<path id="path7768_9_" class="st5" d="M-310.9,238.5l-29.4,50.3c-0.4,0.7-1.2,0.9-1.9,0.6l-18.3-10.7l-46.9-27.4
				c-0.6-0.4-0.8-1.2-0.4-1.9l13.3-22.7l30.4-51.9 M-363.7,174.3l20.8-5.6c0.9-0.3,1.1-0.3,1.5-0.1l0.9,0.5l51.2,30
				c0.6,0.4,0.8,1.2,0.4,1.9l-22.8,39"/>
		</g>
		<g>
			<g id="g7770_13_" transform="translate(330.2446,64.9756)">
				<path id="path7772_13_" class="st6" d="M-302.3,431.5c1.9,1.4,3.5-0.9,4.2-0.3c0.5,0.4,0.2,1.4,0.3,2.6c0.2,1.3,1,1.4,2.1,1.1
					c2.5-0.6,0.7,2.9,3.7,2.2"/>
			</g>
			<g id="g7774_13_" transform="translate(423.1602,447.0527)">
				<path id="path7776_13_" class="st4" d="M-382.7,7.5l-4.4-1.1l0.9-3.8c0.3-1.2,1.5-2,2.7-1.7c1.2,0.3,2,1.5,1.7,2.7L-382.7,7.5z"
					/>
			</g>
			<g id="g7778_13_" transform="translate(325.644,101.1182)">
				<path id="path7780_13_" class="st7" d="M-295.2,392.2l-2.3,3.1c-0.2,0.2-0.2,0.2-0.2-0.1l-0.6-3.8l-0.7-4.1l3.7-1.4l2.6,2.9
					L-295.2,392.2z"/>
			</g>
			<g id="g7782_13_" transform="translate(412.0854,441.0947)">
				<path id="path7784_13_" class="st8" d="M-370.9,14.6l-8.3,34.2l-3.2-0.8l-3.2-0.8l7.7-31.7l0.6-2.5c0.1-0.5,0.7-0.9,1.2-0.7
					l4.4,1.1C-371.1,13.6-370.7,14.1-370.9,14.6"/>
			</g>
			<g id="g7786_13_" transform="translate(452.5229,474.4854)">
				<path id="path7788_13_" class="st9" d="M-413.3-24.2l-0.9,3.8l-2.2-0.5l0.9-3.8c0.3-1.2,1.5-2,2.7-1.7c0.4,0.1,0.8,0.3,1,0.6
					C-412.5-25.6-413.1-25-413.3-24.2"/>
			</g>
			<g id="g7790_13_" transform="translate(441.9307,407.96)">
				<path id="path7792_13_" class="st10" d="M-405.5,49.3l-7.4,30.3l-0.4,1.5l-2.2-0.5l7.7-31.7l0.6-2.5c0.1-0.5,0.7-0.9,1.2-0.7
					l2.2,0.5c-0.5-0.1-1.1,0.2-1.2,0.7L-405.5,49.3z"/>
			</g>
			<g id="g7794_13_" transform="translate(357.9888,127.2178)">
				<path id="path7796_13_" class="st11" d="M-329.2,361.8l0.7,4.1l0.2,1.2l-1.5,2.1c-0.2,0.2-0.2,0.2-0.2-0.1l-0.6-3.8l-0.7-4.1
					L-329.2,361.8z"/>
			</g>
			<g id="g7798_13_" transform="translate(461.3545,402.1719)">
				<path id="path7800_13_" class="st6" d="M-427.1,54.5l-3.6-0.9l-3,12.3"/>
			</g>
			<g id="g7802_13_" transform="translate(374.0615,313.9443)">
				<path id="path7804_13_" class="st6" d="M-336.3,156.2l3.5-14.4c0.1-0.5-0.2-1.1-0.7-1.2l-4.4-1.1c-0.5-0.1-1.1,0.2-1.2,0.7
					l-8.3,34.2l6.3,1.5l3.9-16.1"/>
			</g>
			<g id="g7806_13_" transform="translate(331.5225,66.168)">
				<path id="path7808_13_" class="st6" d="M-303.7,430.2l-0.6-3.8l-0.7-4.1l3.2,0.8l3.2,0.8l-2.5,3.3l-2.3,3.1
					C-303.6,430.4-303.6,430.4-303.7,430.2z"/>
			</g>
			<g id="g7810_13_" transform="translate(423.1602,447.0527)">
				<path id="path7812_13_" class="st6" d="M-382.7,7.5l-4.4-1.1l0.9-3.8c0.3-1.2,1.5-2,2.7-1.7c1.2,0.3,2,1.5,1.7,2.7L-382.7,7.5z"
					/>
			</g>
		</g>
		<g>
			<path class="st1" d="M63.4,438.7c-0.3-0.1-0.6-0.1-0.8,0.1c-0.1,0.1-0.2,0.2-0.3,0.3l-3.5,4.1c-0.4,0.5-0.3,1.1,0.1,1.5
				c0.5,0.4,1.1,0.3,1.5-0.1l1.8-2.1l0.7,8.5l-5,0.4c-0.6,0-1,0.6-1,1.2c0,0,0,0,0,0l0.8,9.1c0,0.6,0.6,1,1.2,1c0,0,0,0,0,0
				c0.6,0,1-0.6,1-1.2c0,0,0,0,0,0l-0.7-8.1l5-0.4c0.6,0,1-0.6,1-1.2c0,0,0,0,0,0l-0.8-9.6l2.1,1.8c0.5,0.4,1.1,0.3,1.5-0.1
				c0.4-0.5,0.3-1.1-0.1-1.5l-4.1-3.5C63.6,438.8,63.5,438.7,63.4,438.7L63.4,438.7z"/>
			<path class="st12" d="M62.7,438.6c-0.3-0.1-0.6-0.1-0.8,0.1c-0.1,0.1-0.2,0.2-0.3,0.3l-3.5,4.1c-0.4,0.5-0.3,1.1,0.1,1.5
				c0.5,0.4,1.1,0.3,1.5-0.1l1.8-2.1l0.7,8.5l-5,0.4c-0.6,0-1,0.6-1,1.2c0,0,0,0,0,0l0.8,9.1c0,0.6,0.6,1,1.2,1c0,0,0,0,0,0
				c0.6,0,1-0.6,1-1.2c0,0,0,0,0,0l-0.7-8.1l5-0.4c0.6,0,1-0.6,1-1.2c0,0,0,0,0,0l-0.8-9.6l2.1,1.8c0.5,0.4,1.1,0.3,1.5-0.1
				c0.4-0.5,0.3-1.1-0.1-1.5l-4.1-3.5C63,438.7,62.8,438.6,62.7,438.6L62.7,438.6z"/>
		</g>
		<g>
			<g>
				<path class="st1" d="M93,459.5l-2.2-2.5c-0.4-0.5-0.4-1.2,0.1-1.6c0.5-0.4,1.2-0.4,1.6,0.1l1.5,1.7l4.2-3.7
					c0.5-0.4,1.2-0.4,1.6,0.1c0.4,0.5,0.4,1.2-0.1,1.6l-5,4.4C94.1,460,93.4,459.9,93,459.5L93,459.5z M86.8,455.4l-7.8-0.5
					c-0.6,0-1.1,0.4-1.2,1c0,0.6,0.4,1.1,1,1.2l7.8,0.5c0.6,0,1.1-0.4,1.2-1C87.9,456,87.4,455.5,86.8,455.4z M97.8,462.5
					c-0.4-0.5-1.1-0.5-1.6-0.1l-2.2,2l-2-2.2c-0.4-0.5-1.1-0.5-1.6-0.1c-0.5,0.4-0.5,1.1-0.1,1.6l2,2.2l-2.2,2
					c-0.5,0.4-0.5,1.1-0.1,1.6c0.4,0.5,1.1,0.5,1.6,0.1l2.2-2l2,2.2c0.4,0.5,1.1,0.5,1.6,0.1c0.5-0.4,0.5-1.1,0.1-1.6l-2-2.2l2.2-2
					C98.2,463.6,98.2,462.9,97.8,462.5L97.8,462.5z M86.2,464.3l-7.8-0.5c-0.6,0-1.1,0.4-1.2,1c0,0.6,0.4,1.1,1,1.2l7.8,0.5
					c0.6,0,1.1-0.4,1.2-1C87.3,464.9,86.8,464.3,86.2,464.3z"/>
			</g>
			<g>
				<path class="st13" d="M93.1,458.8l-2.2-2.5c-0.4-0.5-0.4-1.2,0.1-1.6c0.5-0.4,1.2-0.4,1.6,0.1l1.5,1.7l4.2-3.7
					c0.5-0.4,1.2-0.4,1.6,0.1c0.4,0.5,0.4,1.2-0.1,1.6l-5,4.4C94.2,459.3,93.5,459.3,93.1,458.8L93.1,458.8z M86.8,454.8l-7.8-0.5
					c-0.6,0-1.1,0.4-1.2,1c0,0.6,0.4,1.1,1,1.2l7.8,0.5c0.6,0,1.1-0.4,1.2-1C87.9,455.3,87.5,454.8,86.8,454.8z M97.9,461.8
					c-0.4-0.5-1.1-0.5-1.6-0.1l-2.2,2l-2-2.2c-0.4-0.5-1.1-0.5-1.6-0.1s-0.5,1.1-0.1,1.6l2,2.2l-2.2,2c-0.5,0.4-0.5,1.1-0.1,1.6
					c0.4,0.5,1.1,0.5,1.6,0.1l2.2-2l2,2.2c0.4,0.5,1.1,0.5,1.6,0.1c0.5-0.4,0.5-1.1,0.1-1.6l-2-2.2l2.2-2
					C98.2,463,98.3,462.3,97.9,461.8L97.9,461.8z M86.3,463.6l-7.8-0.5c-0.6,0-1.1,0.4-1.2,1c0,0.6,0.4,1.1,1,1.2l7.8,0.5
					c0.6,0,1.1-0.4,1.2-1C87.4,464.2,86.9,463.7,86.3,463.6z"/>
			</g>
		</g>
		<g>
			<path class="st1" d="M59.4,472.5c0,0.1,0.1,0.2,0.2,0.2c0.1,0,0.2,0.1,0.3,0l2.1-0.6c0.2-0.1,0.3-0.3,0.3-0.5
				c-0.1-0.2-0.3-0.3-0.5-0.3l-2.1,0.6C59.5,472,59.4,472.3,59.4,472.5z M57.3,466l-1.1,1.9c-0.1,0.2,0,0.4,0.1,0.5
				c0.2,0.1,0.4,0,0.5-0.1l1.1-1.9c0.1-0.2,0-0.4-0.1-0.5C57.7,465.8,57.4,465.9,57.3,466z M50.6,464.9c-0.2,0.1-0.3,0.3-0.3,0.5
				l0.6,2.1c0,0.1,0.1,0.2,0.2,0.2c0.1,0,0.2,0.1,0.3,0c0.2-0.1,0.3-0.3,0.3-0.5l-0.6-2.1C51,465,50.8,464.9,50.6,464.9L50.6,464.9z
				 M44.8,469.3c-0.1,0.2,0,0.4,0.1,0.5l1.9,1.1c0.2,0.1,0.4,0,0.5-0.1c0.1-0.2,0-0.4-0.1-0.5l-1.9-1.1
				C45.2,469.1,44.9,469.1,44.8,469.3z M58.7,477.5c-0.1,0.2,0,0.4,0.1,0.5l1.9,1.1c0.2,0.1,0.4,0,0.5-0.1c0.1-0.2,0-0.4-0.1-0.5
				l-1.9-1.1C59.1,477.2,58.8,477.3,58.7,477.5z M47.1,474.4l-0.2,5l-0.2-0.1c-0.6-0.4-1.4-0.2-1.8,0.5c-0.2,0.3-0.2,0.7-0.1,1
				c-0.3,0.1-0.6,0.3-0.8,0.6c-0.4,0.6-0.2,1.4,0.5,1.8l0.9,0.5c-0.3,0.8,0.1,1.7,0.8,2.1c0.8,0.4,1.7,0.3,2.3-0.3l0.9,0.5
				c0.6,0.4,1.4,0.2,1.8-0.5c0.2-0.3,0.2-0.7,0.1-1c0.3-0.1,0.6-0.3,0.8-0.6c0.4-0.6,0.2-1.4-0.5-1.8l-0.2-0.1l4.3-2.6
				c1-0.5,1.8-1.3,2.4-2.3c1.7-2.8,0.7-6.5-2.1-8.1c-2.8-1.7-6.5-0.7-8.1,2.1C47.3,472.1,47.1,473.2,47.1,474.4z M46.1,484.1l1.7,1
				c-0.3,0.3-0.8,0.3-1.2,0.1C46.2,484.9,46,484.5,46.1,484.1z M44.7,481.7c0.2-0.3,0.5-0.4,0.8-0.2l4.9,2.9
				c0.3,0.2,0.4,0.5,0.2,0.8c-0.2,0.3-0.5,0.4-0.8,0.2l-4.9-2.9C44.6,482.3,44.5,482,44.7,481.7z M51.3,482.8
				c0.3,0.2,0.4,0.5,0.2,0.8c-0.2,0.3-0.5,0.4-0.8,0.2l-4.9-2.9c-0.3-0.2-0.4-0.5-0.2-0.8s0.5-0.4,0.8-0.2L51.3,482.8z M49.6,480.9
				l-0.8-0.5l1.3-3.6l1.4,0l0.6,1.2L49.6,480.9z M47.8,474.4C47.8,474.4,47.8,474.3,47.8,474.4c0-1,0.2-2,0.7-2.9
				c1.5-2.5,4.6-3.3,7.1-1.9c2.5,1.5,3.3,4.6,1.9,7.1c-0.5,0.9-1.2,1.6-2.1,2c0,0,0,0,0,0l-4.6,2.8l-0.5-0.3l2.5-2.8l1.7,0
				c0.2,0,0.4-0.2,0.4-0.4c0-0.2-0.2-0.4-0.4-0.4l-1.6,0l-0.8-1.4c-0.1-0.1-0.2-0.2-0.3-0.2l-1.6,0l-0.8-1.4
				c-0.1-0.2-0.3-0.3-0.5-0.2c-0.2,0.1-0.3,0.3-0.2,0.5l0.8,1.5l-1.3,3.5l-0.5-0.3L47.8,474.4L47.8,474.4z"/>
			<path class="st14" d="M50.1,476.9l-1.3,3.6l0.8,0.5l2.5-2.9l-0.6-1.2L50.1,476.9z"/>
			<path class="st13" d="M48.5,471.5c-0.5,0.9-0.8,1.8-0.7,2.8c0,0,0,0,0,0l-0.2,5.4l0.5,0.3l1.3-3.5l-0.8-1.5
				c-0.1-0.2,0-0.4,0.2-0.5c0.2-0.1,0.4,0,0.5,0.2l0.8,1.4l1.6,0c0.1,0,0.3,0.1,0.3,0.2l0.8,1.4l1.6,0c0.2,0,0.4,0.2,0.4,0.4
				c0,0.2-0.2,0.4-0.4,0.4l-1.7,0l-2.5,2.8l0.5,0.3l4.6-2.8c0,0,0,0,0,0c0.9-0.5,1.6-1.1,2.1-2c1.5-2.5,0.6-5.7-1.9-7.1
				C53.2,468.2,50,469,48.5,471.5L48.5,471.5z"/>
			<g>
				<path class="st14" d="M45.6,480.1c-0.2,0.3-0.1,0.6,0.2,0.8l4.9,2.9c0.3,0.2,0.6,0.1,0.8-0.2s0.1-0.6-0.2-0.8l-4.9-2.9
					C46.1,479.7,45.7,479.8,45.6,480.1z"/>
				<path class="st14" d="M44.7,481.7c-0.2,0.3-0.1,0.6,0.2,0.8l4.9,2.9c0.3,0.2,0.6,0.1,0.8-0.2c0.2-0.3,0.1-0.6-0.2-0.8l-4.9-2.9
					C45.2,481.4,44.8,481.4,44.7,481.7z"/>
				<path class="st14" d="M46.1,484.1c-0.1,0.4,0.1,0.9,0.5,1.1c0.4,0.2,0.9,0.2,1.2-0.1L46.1,484.1z"/>
			</g>
		</g>
		<g>
			<g>
				<path class="st15" d="M79.4,479c-0.4-0.2-0.9-0.1-1.2,0.3l-5.2,8.9c-0.2,0.4-0.1,0.9,0.3,1.2l8.9,5.2c0.4,0.2,0.9,0.1,1.2-0.3
					l2.6-4.4c0.2-0.4,0.8-0.5,1.2-0.3s0.5,0.8,0.3,1.2l-2.6,4.4c-0.7,1.2-2.3,1.6-3.5,0.9l-8.9-5.2c-1.2-0.7-1.6-2.3-0.9-3.5
					l5.2-8.9c0.7-1.2,2.3-1.6,3.5-0.9l7.4,4.3c0.4,0.2,0.5,0.8,0.3,1.2c-0.2,0.4-0.8,0.5-1.2,0.3L79.4,479z M90.3,484.7
					c0.5-0.1,0.9,0.2,1,0.6c0.1,0.5-0.2,0.9-0.6,1l-10.5,2.8c-0.5,0.1-0.9-0.2-1-0.6l-0.9-3.5c-0.1-0.5,0.2-0.9,0.6-1
					c0.5-0.1,0.9,0.2,1,0.6l0.7,2.7L90.3,484.7z"/>
			</g>
			<g>
				<path class="st16" d="M79.2,478.2c-0.4-0.2-0.9-0.1-1.2,0.3l-5.2,8.9c-0.2,0.4-0.1,0.9,0.3,1.2l8.9,5.2c0.4,0.2,0.9,0.1,1.2-0.3
					l2.6-4.4c0.2-0.4,0.8-0.5,1.2-0.3s0.5,0.8,0.3,1.2l-2.6,4.4c-0.7,1.2-2.3,1.6-3.5,0.9l-8.9-5.2c-1.2-0.7-1.6-2.3-0.9-3.5
					l5.2-8.9c0.7-1.2,2.3-1.6,3.5-0.9l7.4,4.3c0.4,0.2,0.5,0.8,0.3,1.2c-0.2,0.4-0.8,0.5-1.2,0.3L79.2,478.2z M90.1,483.8
					c0.5-0.1,0.9,0.2,1,0.6c0.1,0.5-0.2,0.9-0.6,1L80,488.3c-0.5,0.1-0.9-0.2-1-0.6l-0.9-3.5c-0.1-0.5,0.2-0.9,0.6-1
					c0.5-0.1,0.9,0.2,1,0.6l0.7,2.7L90.1,483.8z"/>
			</g>
		</g>
		<g>
			<path class="st1" d="M52,509.2c0,0,0.1,0,0.1,0.1c0.3,0.2,0.6,0.2,0.9,0.1l7.4-1.9l2,7.5c0.1,0.2,0.3,0.5,0.5,0.6l0.1,0
				c0,0,0.1,0,0.1,0c0.2,0.1,0.5,0.2,0.8,0.1c0.6-0.2,1-0.8,0.8-1.4l-2-7.5l7.5-2c0.6-0.2,0.9-0.9,0.7-1.5c-0.1-0.3-0.3-0.5-0.5-0.6
				c-0.2-0.1-0.5-0.2-0.8-0.1l-7.5,1.9l-1.9-7.4c-0.1-0.3-0.3-0.5-0.5-0.7c-0.3-0.2-0.6-0.2-0.9-0.1c-0.6,0.2-0.9,0.7-0.8,1.3l2,7.5
				l-7.5,1.9c-0.6,0.1-1,0.8-0.9,1.4c0,0,0,0,0,0C51.6,508.8,51.8,509.1,52,509.2z"/>
			<path class="st17" d="M52.2,508.6c0,0,0.1,0,0.1,0.1c0.3,0.2,0.6,0.2,0.9,0.1l7.4-1.9l2,7.5c0.1,0.2,0.3,0.5,0.5,0.6l0.1,0
				c0,0,0.1,0,0.1,0c0.2,0.1,0.5,0.2,0.8,0.1c0.6-0.2,1-0.8,0.8-1.4l-2-7.5l7.5-2c0.6-0.2,0.9-0.9,0.7-1.5c-0.1-0.3-0.3-0.5-0.5-0.6
				c-0.2-0.1-0.5-0.2-0.8-0.1l-7.5,1.9l-1.9-7.4c-0.1-0.3-0.3-0.5-0.5-0.7c-0.3-0.2-0.6-0.2-0.9-0.1c-0.6,0.2-0.9,0.7-0.8,1.3l2,7.5
				l-7.5,1.9c-0.6,0.1-1,0.8-0.9,1.4c0,0,0,0,0,0C51.7,508.2,51.9,508.4,52.2,508.6z"/>
		</g>
		<g>
			<g id="g7830_11_" transform="translate(293.2144,407.6475)">
				<path id="path7832_11_" class="st18" d="M-220.8,18.8l23.5,13.7c0.4,0.2,0.5,0.8,0.3,1.2l-2.5,4.3c-0.2,0.4-0.8,0.5-1.2,0.3
					l-23.5-13.7c-0.4-0.2-0.5-0.8-0.3-1.2l2.5-4.3C-221.8,18.7-221.2,18.6-220.8,18.8"/>
			</g>
			<g id="g7834_11_" transform="translate(293.2144,407.6475)">
				<path id="path7836_11_" class="st19" d="M-220.8,18.8l6.7,3.9c-0.4-0.2-0.9-0.1-1.2,0.3l-2.5,4.3c-0.2,0.4-0.1,0.9,0.3,1.2
					l-6.7-3.9c-0.4-0.2-0.5-0.8-0.3-1.2l2.5-4.3C-221.8,18.7-221.2,18.6-220.8,18.8"/>
			</g>
			<g id="g7838_11_" transform="translate(128.1699,407.6475)">
				<path id="path7840_11_" class="st20" d="M-32.3,32.5l-23.5-13.7c-0.4-0.2-0.9-0.1-1.2,0.3l-2.5,4.3c-0.2,0.4-0.1,0.9,0.3,1.2
					l23.5,13.7c0.4,0.2,0.9,0.1,1.2-0.3l2.5-4.3C-31.8,33.3-31.9,32.8-32.3,32.5z"/>
			</g>
		</g>
		<g>
			<path class="st21" d="M91.6,408.8c1.7-2.8,5.3-3.8,8.1-2.1c2.8,1.7,3.8,5.3,2.1,8.1l10.3,6l-6,10.3c-0.8,1.4-2.6,1.8-3.9,1
				L76.3,417c-1.4-0.8-1.8-2.6-1-3.9l6-10.3L91.6,408.8z"/>
			<path class="st22" d="M100.4,431.1L76.3,417c-1.4-0.8-1.8-2.6-1-3.9l6-10.3l10.3,6c1.7-2.8,5.3-3.8,8.1-2.1
				c2.8,1.7,3.8,5.3,2.1,8.1l10.3,6l-6,10.3c-0.8,1.4-2.6,1.8-3.9,1l-3.6-2.1"/>
			<line class="st22" x1="102.5" y1="425.5" x2="81.9" y2="413.5"/>
			<g>
				<g>
					<line class="st22" x1="96.7" y1="411.8" x2="96.7" y2="411.8"/>
				</g>
			</g>
		</g>
	</g>
	<g>
		<g>
			<g>
				<path class="st23" d="M47.6,107.7L21.6,45l80.5-33.4l26,62.7c0.9,2.1-0.1,4.6-2.3,5.5L53.1,110C51,110.9,48.5,109.9,47.6,107.7z
					"/>
			</g>
			<g>
				<path class="st24" d="M41.5,36.8l-20,8.3l6.1,14.6c0,0,0,0,0,0C37,55.8,42.4,46.3,41.5,36.8z"/>
			</g>
			<g>
				<path class="st24" d="M120.7,81.9l5.1-2.1c2.1-0.9,3.2-3.4,2.3-5.5l-26-62.7L97,13.7l26,62.7C123.9,78.6,122.9,81,120.7,81.9z"
					/>
			</g>
			<g>
				<g>
					<g>
						<path class="st25" d="M18.5,37.6l4.1,9.9l80.5-33.4L99,4.2C98.1,2,95.6,1,93.5,1.9L20.7,32.1C18.6,33,17.6,35.5,18.5,37.6z"/>
					</g>
				</g>
			</g>
			<g>
				<g>
					<g>
						<path class="st26" d="M20.7,32.1c-2.1,0.9-3.2,3.4-2.3,5.5l4.1,9.9l19-7.9c0.1-3.2-0.4-6.4-1.7-9.6c-0.7-1.7-1.6-3.3-2.7-4.8
							L20.7,32.1L20.7,32.1z"/>
					</g>
				</g>
			</g>
			<g>
				<g>
					<g>
						<path class="st26" d="M93.9,6.3l4.1,9.9l5.1-2.1L99,4.2C98.1,2,95.6,1,93.5,1.9L88.4,4C90.5,3.1,93,4.1,93.9,6.3z"/>
					</g>
				</g>
			</g>
			<g>
				<g>
					<circle class="st27" cx="19" cy="38.7" r="17.4"/>
				</g>
			</g>
			<g>
				<g>
					<path class="st28" d="M24,55.4c0.6-0.2,1.1-0.4,1.7-0.6C34.5,51.1,38.7,40.9,35,32S21.2,19,12.3,22.6c-0.5,0.2-1.1,0.5-1.6,0.8
						c8.4-2.6,17.6,1.7,21.1,10S31.8,51.2,24,55.4z"/>
				</g>
			</g>
			<g>
				<g>
					<g>
						<path class="st29" d="M48.3,87.5c-1.2,0.8-1,2.6,0.3,3.2l7.8,3.2c0.9,0.4,1.4,1.5,1,2.4l-3.2,7.8c-0.4,0.9,0.1,2,1,2.4
							l13.2,5.4c0.9,0.4,2-0.1,2.4-1l3.2-7.8c0.4-0.9,1.5-1.4,2.4-1l7.8,3.2c1.3,0.6,2.8-0.6,2.5-2l-6.3-35
							c-0.2-1.3-1.8-1.9-2.8-1.2L48.3,87.5L48.3,87.5z"/>
					</g>
				</g>
			</g>
			<g>
				<g>
					<g>
						<g>
							<path class="st30" d="M78,102.9l6.1,2.5c1.3,0.6,2.8-0.6,2.5-2l-6.3-35c-0.2-1.3-1.8-1.9-2.8-1.2L74.8,69l5.7,31.8
								C80.8,102.3,79.3,103.4,78,102.9z"/>
						</g>
					</g>
					<g>
						<g>
							<path class="st30" d="M62.2,109.5l6.1,2.5c0.9,0.4,2-0.1,2.4-1l3.2-7.8c0.4-0.9,1.5-1.4,2.4-1l-6.1-2.5c-0.9-0.4-2,0.1-2.4,1
								l-3.2,7.8C64.2,109.4,63.2,109.8,62.2,109.5z"/>
						</g>
					</g>
				</g>
			</g>
		</g>
		<g>
			<path class="st1" d="M108.6,27.3c0.8-0.3,1.2-1.3,0.9-2.1l-9-21.7c-1.2-2.9-4.6-4.3-7.6-3.1L38.4,23.1c-0.8,0.3-1.2,1.3-0.9,2.1
				s1.3,1.2,2.1,0.9L94.1,3.4c1.3-0.6,2.9,0.1,3.4,1.4l3.5,8.4L42.9,37.3c-0.8,0.3-1.2,1.3-0.9,2.1c0.3,0.8,1.3,1.2,2.1,0.9
				l58.1-24.1l4.3,10.3C106.8,27.2,107.8,27.6,108.6,27.3L108.6,27.3z"/>
			<path class="st1" d="M91.4,94.1c0.3,0.8,1.3,1.2,2.1,0.9l33-13.7c2.9-1.2,4.3-4.6,3.1-7.6l-17.1-41.2c-0.3-0.8-1.3-1.2-2.1-0.9
				c-0.8,0.3-1.2,1.3-0.9,2.1l17.1,41.2c0.6,1.3-0.1,2.9-1.4,3.4l-33,13.7C91.4,92.4,91,93.3,91.4,94.1z"/>
			<path class="st1" d="M26.9,62l18.6,44.9c0.3,0.8,1.3,1.2,2.1,0.9c0.8-0.3,1.2-1.3,0.9-2.1L29.8,60.7c-0.3-0.8-1.3-1.2-2.1-0.9
				C26.9,60.2,26.6,61.2,26.9,62z"/>
			<path class="st1" d="M91,9.8c-0.8,0.3-1.2,1.3-0.9,2.1c0.3,0.8,1.3,1.2,2.1,0.9l1.5-0.6c0.8-0.3,1.2-1.3,0.9-2.1
				c-0.3-0.8-1.3-1.2-2.1-0.9L91,9.8z"/>
			<path class="st1" d="M83.7,12.8c-0.8,0.3-1.2,1.3-0.9,2.1c0.3,0.8,1.3,1.2,2.1,0.9l1.5-0.6c0.8-0.3,1.2-1.3,0.9-2.1
				c-0.3-0.8-1.3-1.2-2.1-0.9L83.7,12.8z"/>
			<path class="st1" d="M76.4,15.8c-0.8,0.3-1.2,1.3-0.9,2.1c0.3,0.8,1.3,1.2,2.1,0.9l1.5-0.6c0.8-0.3,1.2-1.3,0.9-2.1
				s-1.3-1.2-2.1-0.9L76.4,15.8z"/>
			<path class="st1" d="M1.5,46c4,9.7,15.1,14.3,24.8,10.2s14.3-15.1,10.2-24.8S21.4,17.2,11.7,21.2C2,25.2-2.6,36.3,1.5,46z
				 M4.4,44.8C1,36.7,4.9,27.4,12.9,24.1s17.3,0.5,20.7,8.5c3.3,8.1-0.5,17.3-8.5,20.7C17,56.7,7.7,52.8,4.4,44.8z"/>
			<path class="st1" d="M21.8,44.2c-1.1,0.6-2.5,0.1-3.1-1c-0.4-0.8-1.4-1.1-2.1-0.7c-0.8,0.4-1.1,1.4-0.7,2.1
				c1.1,2.2,3.5,3.3,5.8,2.8l1,1.9c0.4,0.8,1.4,1.1,2.1,0.7c0.8-0.4,1.1-1.4,0.7-2.1l-1-1.9c1.7-1.6,2.2-4.2,1-6.4
				c-1.4-2.7-4.7-3.7-7.4-2.3c0,0-0.1,0-0.1,0.1c-1.1,0.5-2.4,0.1-3-1c-0.6-1.1-0.1-2.5,1-3.1c1.1-0.6,2.5-0.1,3.1,1
				c0.4,0.8,1.4,1.1,2.1,0.7c0.8-0.4,1.1-1.4,0.7-2.1c-1.1-2.2-3.5-3.3-5.8-2.8l-1-1.9c-0.4-0.8-1.4-1.1-2.1-0.7
				c-0.8,0.4-1.1,1.4-0.7,2.1l1,1.9c-1.7,1.6-2.2,4.2-1,6.4c1.4,2.7,4.7,3.7,7.4,2.3c0,0,0.1,0,0.1-0.1c1.1-0.5,2.4-0.1,3,1
				C23.4,42.2,22.9,43.6,21.8,44.2L21.8,44.2z"/>
			<path class="st1" d="M76.3,60c1.9-0.8,3.9-0.8,5.7,0c1.9,0.8,3.3,2.2,4.1,4.1c0.9,2.2,0.7,4.7-0.5,6.7c-0.4,0.7-0.2,1.7,0.5,2.2
				c0.4,0.3,1,0.3,1.4,0.1c0.3-0.1,0.6-0.3,0.7-0.6c1.7-2.9,2-6.5,0.7-9.5c-1.1-2.6-3.1-4.7-5.8-5.8c-2.6-1.1-5.5-1.1-8.2,0
				c-3.3,1.4-5.7,4.3-6.4,7.7c-0.2,0.9,0.4,1.7,1.2,1.9c0.9,0.2,1.7-0.4,1.9-1.2C72.4,63,74,61,76.3,60L76.3,60z"/>
			<path class="st1" d="M73.7,53.6c7.4-3.1,15.8,0.4,18.9,7.8c2.6,6.2,0.5,13.5-5,17.3c-0.7,0.5-0.9,1.5-0.4,2.2
				c0.4,0.6,1.2,0.8,1.9,0.5c0.1,0,0.2-0.1,0.3-0.2c3.2-2.3,5.6-5.6,6.7-9.4c1.1-3.9,0.9-8-0.6-11.7c-3.7-9-14.1-13.2-23-9.5
				c-7.6,3.1-11.9,11-10.6,19.1c0.1,0.9,1,1.4,1.8,1.3c0.9-0.1,1.4-1,1.3-1.8C63.9,62.6,67.5,56.2,73.7,53.6z"/>
			<path class="st1" d="M52.7,103.5c-0.3,0.8-0.3,1.8,0,2.6c0.3,0.8,1,1.5,1.8,1.8l13.2,5.4c0.9,0.4,1.8,0.3,2.6,0
				c0.8-0.3,1.5-1,1.8-1.8l3.2-7.8c0.1-0.1,0.2-0.2,0.3-0.1l7.8,3.2c1.2,0.5,2.5,0.3,3.4-0.5c1-0.8,1.4-2,1.2-3.3l-6.3-35
				c-0.2-1.1-1-2.1-2.1-2.5c-1.1-0.4-2.3-0.3-3.3,0.4L47.4,86.2c-1,0.7-1.6,1.9-1.4,3.2c0.1,1.2,0.9,2.3,2.1,2.8l7.8,3.2
				c0.1,0,0.1,0.1,0.1,0.1c0,0,0,0.1,0,0.2L52.7,103.5z M55.8,105.1c-0.1,0-0.1-0.1-0.1-0.1s0-0.1,0-0.2l3.2-7.8
				c0.3-0.8,0.3-1.8,0-2.6c-0.3-0.8-1-1.5-1.8-1.8l-7.8-3.2c0,0-0.1-0.1-0.2-0.2s0.1-0.2,0.1-0.2l29.2-20.4c0.1-0.1,0.2-0.1,0.2,0
				c0.1,0,0.1,0.1,0.2,0.2l6.3,35c0,0,0,0.1-0.1,0.2c-0.1,0.1-0.2,0.1-0.3,0l-7.8-3.2c-0.9-0.4-1.8-0.3-2.6,0
				c-0.8,0.3-1.5,1-1.8,1.8l-3.2,7.8c-0.1,0.1-0.2,0.2-0.3,0.1L55.8,105.1L55.8,105.1z"/>
		</g>
	</g>
	<g id="Layer_35_1_">
		<g>
			<g>
				<path class="st31" d="M61.6,267.2l-0.4-5.7l-4.6,3.6l-7.9,6.4l-7.9,6.4l-11.5,9.3l14,0.2l-4.8,11.4l11.1,4.7l4.9-11.3l9.9,9.9
					l-1.3-14.7l-0.9-10.1L61.6,267.2z"/>
			</g>
			<g>
				<path class="st32" d="M65.7,250.6c-4.5-1.8-9.5,0.2-11.3,4.7c-1.6,3.4-0.5,7.4,2.2,9.8l4.5-3.7l0.4,5.7c3.7,0.2,7.2-1.7,8.7-5.2
					C72.1,257.6,70.1,252.5,65.7,250.6L65.7,250.6z"/>
			</g>
			<g>
				<path class="st33" d="M69.6,241.5c-6.9-2.9-14.6-1.5-19.7,3.3c-1.2,3.7-3.1,7-5.8,9.8c-1.4,6.2,0.5,12.5,4.7,16.9l7.9-6.4
					c-2.7-2.4-3.7-6.2-2.2-9.8c1.9-4.4,6.9-6.4,11.3-4.5c4.4,1.9,6.4,6.9,4.5,11.3c-1.5,3.5-5.1,5.5-8.7,5.2l0.9,10.1
					c7.2-0.1,14-4.3,17-11.4C83.6,256.4,79.2,245.5,69.6,241.5L69.6,241.5z"/>
			</g>
			<g>
				<path class="st32" d="M73.6,232.1c-7.7-3.3-16.1-2.9-23.3,0.2c0.9,4.2,0.7,8.3-0.5,12.2c5.2-4.6,12.8-6.2,19.8-3.3
					c9.5,4,13.9,15,9.9,24.5c-3,7.1-9.9,11.3-17,11.4l0.9,10.1c9.9-0.4,19.2-5.7,24.1-14.7c-0.2-4.5,1.2-9,3.7-12.7
					C91.6,248.2,85,236.9,73.6,232.1L73.6,232.1z"/>
			</g>
			<g>
				<path class="st34" d="M86.9,296.4c-1.2-3-4.7-4.4-7.5-3.4c-3.1,1.3-4.5,4.8-3.3,7.7c1.3,3.1,4.6,4.5,7.6,3.3
					C86.6,302.8,88.1,299.4,86.9,296.4L86.9,296.4z"/>
			</g>
			<g>
				<path class="st35" d="M100.2,252.5c-3.8,1.5-6.9,4.1-9.1,7.3c-2.7,3.6-3.9,8.1-3.7,12.7c0.1,2.2,0.6,4.4,1.5,6.6
					c4.2,10.5,16.2,15.5,26.6,11.3c10.5-4.2,15.5-16.2,11.3-26.6C122.6,253.5,110.7,248.4,100.2,252.5z"/>
			</g>
			<g>
				<path class="st34" d="M96.6,220.6c-3.3,1.3-4.9,5.1-3.6,8.4c1.3,3.3,5.1,4.9,8.4,3.6s4.9-5.1,3.6-8.4
					C103.7,220.9,100,219.2,96.6,220.6z"/>
			</g>
			<g>
				<path class="st34" d="M60.6,199.8c-4.7,1.9-7,7.4-5.1,12.1c1.9,4.7,7.3,7.1,12.1,5.1c4.7-1.9,7-7.4,5.1-12.1
					C70.8,200.2,65.3,197.9,60.6,199.8z"/>
			</g>
			<g>
				<path class="st35" d="M50.4,232.5c-0.3-1.4-0.7-2.8-1.2-4.2c-5.1-12.5-19.4-18.5-31.9-13.5s-18.7,19.3-13.6,31.8
					c4.8,12,17.8,18.1,29.9,14.3c0.6-0.1,1.2-0.3,1.9-0.6c3.3-1.3,6.2-3.3,8.5-5.7c2.7-2.8,4.7-6.2,5.8-9.8
					C51.1,240.8,51.3,236.7,50.4,232.5L50.4,232.5z"/>
			</g>
			<g>
				<path class="st32" d="M44.1,254.6c-2.4,2.4-5.2,4.4-8.5,5.8c-0.6,0.2-1.3,0.4-1.9,0.6c0.5,6.2,3,12.1,7.2,16.9l7.9-6.4
					C44.6,267.1,42.7,260.7,44.1,254.6L44.1,254.6z"/>
			</g>
			<g>
				<path class="st1" d="M1.9,247.4c4.9,12.2,17.8,18.6,30,15.8c0.8,5.2,2.9,10.1,6.1,14.2L28,285.5c-0.6,0.5-0.9,1.4-0.6,2.1
					c0.3,0.8,0.9,1.4,1.7,1.3l11.3,0.2l-3.8,8.9c-0.1,0.4-0.1,1,0.1,1.4c0.2,0.5,0.5,0.9,1,1.1l11.2,4.7c1,0.4,2,0,2.4-1l3.8-8.9
					l8,8c0.6,0.4,1.3,0.7,2,0.4l0.1,0c0.8-0.4,1.1-1.1,1.1-1.9l-1.1-12.8c3-0.3,5.8-1,8.4-2c4.9-2,9.2-5.3,12.6-9.5
					c0.2,0.7,0.5,1.5,0.8,2.3c4.6,11.4,17.7,16.9,29,12.3c11.4-4.6,16.9-17.7,12.3-29c-4.6-11.4-17.7-16.9-29-12.3
					c-2.5,1-4.7,2.6-6.7,4.3c-1.2-10.9-8.3-20.5-18.4-24.8c-7.1-3.1-15.3-3.2-22.6-0.5c-0.2-0.7-0.5-1.5-0.8-2.2
					c-5.4-13.4-20.9-19.9-34.3-14.5C3.1,218.6-3.5,234,1.9,247.4L1.9,247.4z M45.8,255.3c2.5-2.7,4.4-6,5.7-9.5
					c4.8-4.1,11.7-5.1,17.5-2.7c4.2,1.8,7.4,5,9,9.2s1.6,8.7-0.1,12.9c-2.4,5.6-7.7,9.5-13.7,10.2l-0.5-6.3c1-0.1,1.9-0.4,2.7-0.7
					c2.5-1,4.6-3.1,5.7-5.7c1.1-2.6,1.2-5.4,0.1-8.1c-1.1-2.6-3.1-4.6-5.7-5.7c-5.3-2.3-11.5,0.2-13.8,5.6c-1.6,3.4-1,7.4,1.2,10.3
					l-4.9,4C46,265,44.8,260.1,45.8,255.3L45.8,255.3z M56.9,262.5c-1.4-1.8-1.7-4.3-0.8-6.5c1.4-3.4,5.5-5,8.8-3.6
					c1.6,0.7,2.9,1.9,3.6,3.6c0.7,1.7,0.7,3.6,0,5.2c-0.9,2.1-3,3.6-5.2,4l-0.4-4c-0.1-0.6-0.5-1.3-1.2-1.5
					c-0.6-0.3-1.4-0.2-1.9,0.2L56.9,262.5z M90.6,278.4c-3.8-9.5,0.7-20.3,10.3-24.2s20.3,0.7,24.2,10.3c3.8,9.5-0.7,20.3-10.3,24.2
					C105.2,292.6,94.4,288,90.6,278.4z M85.5,272.1c-4.2,7.4-12,12.3-20.4,13.2l-0.5-6.3c1.9-0.2,3.7-0.7,5.4-1.4
					c4.9-2,9-5.9,11.2-11.1c2.2-5,2.2-10.7,0.2-15.7s-6.1-9-11.1-11.2c-5.8-2.4-12.4-1.9-17.8,0.9c0.3-2.3,0.3-4.6-0.1-6.9
					c6.6-2.6,13.9-2.5,20.4,0.2c10.2,4.3,16.6,14.6,16.3,25.5C86.6,263.1,85.4,267.6,85.5,272.1L85.5,272.1z M34.5,285.2L42,279
					l15.6-12.6l1.8-1.4l1.9,22.3l0.8,9.7l-6.4-6.2c-0.5-0.5-1.1-0.6-1.7-0.5c-0.5,0.1-1,0.4-1.3,1.1l-4.1,9.7l-7.7-3.3l4.1-9.7
					c0.2-0.5,0.2-1.2-0.1-1.7c-0.3-0.5-0.9-0.8-1.5-0.8L34.5,285.2z M35.7,262.1l0.6-0.2c2-0.8,3.8-1.8,5.5-3
					c0,4.4,1.5,8.7,4.3,12.3l-4.9,4C38.2,271.4,36.2,267,35.7,262.1z M34.9,258.6C23.2,263.2,10,257.6,5.3,246
					c-4.6-11.5,1-24.7,12.6-29.3c11.6-4.7,24.8,0.8,29.5,12.4C52.1,240.7,46.5,253.9,34.9,258.6L34.9,258.6z"/>
				<path class="st1" d="M26.9,239.6l0.9-0.5c1.4-0.8,3.3-0.2,4,1.2c0.3,0.7,0.4,1.5,0.2,2.3c-0.3,0.8-0.8,1.4-1.5,1.8l-0.5,0.3
					l-4.5,2.4c-0.9,0.5-1.2,1.6-0.8,2.5c0.5,0.9,1.6,1.2,2.6,0.7l2.7-1.5l1.3,2.5c0.5,0.9,1.6,1.2,2.5,0.8c0.9-0.5,1.2-1.6,0.8-2.5
					l-1.4-2.6c1.1-0.9,1.8-1.9,2.2-3.3c0.5-1.7,0.4-3.6-0.5-5.1c-1.7-3.3-5.8-4.5-9.1-2.8l-0.9,0.5c-1.4,0.8-3.3,0.2-4-1.2
					c-0.8-1.4-0.2-3.3,1.2-4l5.1-2.7c0.9-0.5,1.2-1.6,0.8-2.5c-0.5-0.9-1.6-1.2-2.5-0.8l-3.2,1.7l-1.4-2.6c-0.5-0.9-1.6-1.2-2.5-0.8
					c-0.9,0.5-1.2,1.6-0.8,2.5l1.4,2.6c-2.3,1.9-3,5.4-1.5,8.2C19.5,240,23.6,241.4,26.9,239.6L26.9,239.6z"/>
				<path class="st1" d="M74.3,204.3c-2.3-5.7-8.8-8.5-14.5-6.2s-8.5,8.8-6.2,14.5c2.3,5.7,8.8,8.5,14.5,6.2
					C73.9,216.5,76.6,210,74.3,204.3z M70.9,205.7c1.5,3.8-0.3,8.1-4.1,9.7c-3.8,1.5-8.1-0.3-9.7-4.1c-1.5-3.8,0.3-8.1,4.1-9.7
					C65.1,200,69.3,201.9,70.9,205.7z"/>
				<path class="st1" d="M106.9,223.4c-1.7-4.3-6.6-6.3-10.8-4.6s-6.3,6.6-4.6,10.8c1.7,4.3,6.6,6.3,10.8,4.6
					C106.5,232.5,108.5,227.7,106.9,223.4z M103.3,224.8c0.9,2.3,0,4.9-2.4,5.9c-2.4,1-5-0.2-6-2.5c-1-2.4,0.2-5,2.5-6
					C99.7,221.3,102.4,222.5,103.3,224.8z"/>
				<path class="st1" d="M108.3,273.4l0.8-0.4c1.1-0.6,2.4-0.2,3,0.9c0.6,1.1,0.2,2.4-0.9,3l-0.4,0.2l-3.7,2
					c-0.9,0.5-1.2,1.6-0.8,2.5c0.5,0.9,1.6,1.2,2.5,0.8l2.1-1.1l1,1.9c0.5,0.9,1.6,1.2,2.5,0.8c0.9-0.5,1.2-1.6,0.8-2.5l-1-2
					c2-1.8,2.6-4.8,1.4-7.2c-1.5-2.8-5.1-4-8-2.5l-0.8,0.4c-1.1,0.6-2.4,0.2-3-0.9c-0.6-1.1-0.2-2.4,0.9-3l4.3-2.3
					c0.9-0.5,1.2-1.6,0.8-2.5c-0.5-0.9-1.6-1.2-2.5-0.8l-2.4,1.3l-1-1.9c-0.5-0.9-1.6-1.2-2.5-0.8c-0.9,0.5-1.2,1.6-0.8,2.5l1,2
					c-1.8,1.8-2.4,4.7-1.1,7.1C101.8,273.7,105.4,274.9,108.3,273.4z"/>
				<path class="st1" d="M74.1,301.6c1.6,4,6.1,5.9,10.2,4.3c4-1.6,5.9-6.1,4.3-10.2s-6.1-5.9-10.2-4.3
					C74.6,293.1,72.5,297.6,74.1,301.6z M77.5,300.1c-0.8-2.1,0.2-4.5,2.3-5.3s4.5,0.2,5.3,2.3s-0.2,4.5-2.3,5.3
					C80.8,303.2,78.4,302.2,77.5,300.1z"/>
			</g>
		</g>
	</g>
</g>
</svg>
