<?xml version="1.0" encoding="utf-8"?>
<!-- Generator: Adobe Illustrator 25.0.0, SVG Export Plug-In . SVG Version: 6.00 Build 0)  -->
<svg version="1.1" id="Layer_1" xmlns="http://www.w3.org/2000/svg" xmlns:xlink="http://www.w3.org/1999/xlink" x="0px" y="0px"
	 viewBox="0 0 167.6 150" style="enable-background:new 0 0 167.6 150;" xml:space="preserve">
<style type="text/css">
	.st0{fill:#99A2B9;}
	.st1{fill:#35414D;}
	.st2{fill:#B7C0D7;}
	.st3{fill:#E0E0E0;}
	.st4{fill:#005B8A;}
	.st5{fill:#0079A8;}
	.st6{fill:#A0B570;}
	.st7{fill:#BED38E;}
	.st8{fill:#C2C2C2;}
	.st9{fill:#FFE4CF;}
	.st10{fill:#FF5A5A;}
	.st11{fill-rule:evenodd;clip-rule:evenodd;fill:#FFF2E8;}
	.st12{fill-rule:evenodd;clip-rule:evenodd;fill:#D32E5E;}
	.st13{fill:#FFFFFF;}
	.st14{opacity:4.000000e-02;}
	.st15{fill:#35414D;stroke:#35414D;stroke-width:1.0071;stroke-miterlimit:10;}
</style>
<g>
	<g>
		<g>
			<path class="st0" d="M154.4,60.3H95.6c-1.6,0-2.9-1.3-2.9-2.9V4.4c0-1.6,1.3-2.9,2.9-2.9h58.8c1.6,0,2.9,1.3,2.9,2.9v52.9
				C157.4,59,156,60.3,154.4,60.3z"/>
			<path class="st1" d="M154.4,61.8H95.6c-2.4,0-4.4-2-4.4-4.4V4.4c0-2.4,2-4.4,4.4-4.4h58.8c2.4,0,4.4,2,4.4,4.4v52.9
				C158.8,59.8,156.8,61.8,154.4,61.8z M95.6,2.9c-0.8,0-1.5,0.7-1.5,1.5v52.9c0,0.8,0.7,1.5,1.5,1.5h58.8c0.8,0,1.5-0.7,1.5-1.5
				V4.4c0-0.8-0.7-1.5-1.5-1.5H95.6z"/>
		</g>
		<g>
			<path class="st2" d="M163.2,60.3h-58.8c-1.6,0-2.9-1.3-2.9-2.9V4.4c0-1.6,1.3-2.9,2.9-2.9h58.8c1.6,0,2.9,1.3,2.9,2.9v52.9
				C166.2,59,164.9,60.3,163.2,60.3z"/>
			<path class="st1" d="M163.2,61.8h-58.8c-2.4,0-4.4-2-4.4-4.4V4.4c0-2.4,2-4.4,4.4-4.4h58.8c2.4,0,4.4,2,4.4,4.4v52.9
				C167.6,59.8,165.7,61.8,163.2,61.8z M104.4,2.9c-0.8,0-1.5,0.7-1.5,1.5v52.9c0,0.8,0.7,1.5,1.5,1.5h58.8c0.8,0,1.5-0.7,1.5-1.5
				V4.4c0-0.8-0.7-1.5-1.5-1.5H104.4z"/>
		</g>
		<g>
			<g>
				<path class="st3" d="M146,43.1h-24.4c-2.7,0-4.9-2.2-4.9-4.9V23.6c0-2.7,2.2-4.9,4.9-4.9H146c2.7,0,4.9,2.2,4.9,4.9v14.6
					C150.9,40.9,148.7,43.1,146,43.1z"/>
				<path class="st1" d="M146,44.3h-24.4c-3.4,0-6.1-2.7-6.1-6.1V23.6c0-3.4,2.7-6.1,6.1-6.1H146c3.4,0,6.1,2.7,6.1,6.1v14.6
					C152.1,41.5,149.4,44.3,146,44.3z M121.6,19.9c-2,0-3.7,1.6-3.7,3.7v14.6c0,2,1.6,3.7,3.7,3.7H146c2,0,3.7-1.6,3.7-3.7V23.6
					c0-2-1.6-3.7-3.7-3.7H121.6z"/>
			</g>
			<g>
				<circle class="st3" cx="133.8" cy="30.9" r="7.3"/>
				<path class="st1" d="M133.8,39.4c-4.7,0-8.5-3.8-8.5-8.5s3.8-8.5,8.5-8.5s8.5,3.8,8.5,8.5S138.5,39.4,133.8,39.4z M133.8,24.8
					c-3.4,0-6.1,2.7-6.1,6.1s2.7,6.1,6.1,6.1s6.1-2.7,6.1-6.1S137.2,24.8,133.8,24.8z"/>
			</g>
			<g>
				<path class="st1" d="M146,24.8h-2.4c-0.7,0-1.2-0.5-1.2-1.2c0-0.7,0.5-1.2,1.2-1.2h2.4c0.7,0,1.2,0.5,1.2,1.2
					C147.2,24.2,146.7,24.8,146,24.8z"/>
			</g>
		</g>
	</g>
	<g>
		<path class="st4" d="M63.2,60.3H4.4c-1.6,0-2.9-1.3-2.9-2.9V4.4c0-1.6,1.3-2.9,2.9-2.9h58.8c1.6,0,2.9,1.3,2.9,2.9v52.9
			C66.2,59,64.9,60.3,63.2,60.3z"/>
		<path class="st1" d="M63.2,61.8H4.4c-2.4,0-4.4-2-4.4-4.4V4.4C0,2,2,0,4.4,0h58.8c2.4,0,4.4,2,4.4,4.4v52.9
			C67.6,59.8,65.7,61.8,63.2,61.8z M4.4,2.9c-0.8,0-1.5,0.7-1.5,1.5v52.9c0,0.8,0.7,1.5,1.5,1.5h58.8c0.8,0,1.5-0.7,1.5-1.5V4.4
			c0-0.8-0.7-1.5-1.5-1.5H4.4z"/>
	</g>
	<g>
		<path class="st5" d="M72.1,60.3H13.2c-1.6,0-2.9-1.3-2.9-2.9V4.4c0-1.6,1.3-2.9,2.9-2.9h58.8c1.6,0,2.9,1.3,2.9,2.9v52.9
			C75,59,73.7,60.3,72.1,60.3z"/>
		<path class="st1" d="M72.1,61.8H13.2c-2.4,0-4.4-2-4.4-4.4V4.4c0-2.4,2-4.4,4.4-4.4h58.8c2.4,0,4.4,2,4.4,4.4v52.9
			C76.5,59.8,74.5,61.8,72.1,61.8z M13.2,2.9c-0.8,0-1.5,0.7-1.5,1.5v52.9c0,0.8,0.7,1.5,1.5,1.5h58.8c0.8,0,1.5-0.7,1.5-1.5V4.4
			c0-0.8-0.7-1.5-1.5-1.5H13.2z"/>
	</g>
	<g>
		<path class="st6" d="M154.4,148.5H95.6c-1.6,0-2.9-1.3-2.9-2.9V92.6c0-1.6,1.3-2.9,2.9-2.9h58.8c1.6,0,2.9,1.3,2.9,2.9v52.9
			C157.4,147.2,156,148.5,154.4,148.5z"/>
		<path class="st1" d="M154.4,150H95.6c-2.4,0-4.4-2-4.4-4.4V92.6c0-2.4,2-4.4,4.4-4.4h58.8c2.4,0,4.4,2,4.4,4.4v52.9
			C158.8,148,156.8,150,154.4,150z M95.6,91.2c-0.8,0-1.5,0.7-1.5,1.5v52.9c0,0.8,0.7,1.5,1.5,1.5h58.8c0.8,0,1.5-0.7,1.5-1.5V92.6
			c0-0.8-0.7-1.5-1.5-1.5H95.6z"/>
	</g>
	<g>
		<path class="st7" d="M163.2,148.5h-58.8c-1.6,0-2.9-1.3-2.9-2.9V92.6c0-1.6,1.3-2.9,2.9-2.9h58.8c1.6,0,2.9,1.3,2.9,2.9v52.9
			C166.2,147.2,164.9,148.5,163.2,148.5z"/>
		<path class="st1" d="M163.2,150h-58.8c-2.4,0-4.4-2-4.4-4.4V92.6c0-2.4,2-4.4,4.4-4.4h58.8c2.4,0,4.4,2,4.4,4.4v52.9
			C167.6,148,165.7,150,163.2,150z M104.4,91.2c-0.8,0-1.5,0.7-1.5,1.5v52.9c0,0.8,0.7,1.5,1.5,1.5h58.8c0.8,0,1.5-0.7,1.5-1.5V92.6
			c0-0.8-0.7-1.5-1.5-1.5H104.4z"/>
	</g>
	<g>
		<path class="st8" d="M63.2,148.5H4.4c-1.6,0-2.9-1.3-2.9-2.9V92.6c0-1.6,1.3-2.9,2.9-2.9h58.8c1.6,0,2.9,1.3,2.9,2.9v52.9
			C66.2,147.2,64.9,148.5,63.2,148.5z"/>
		<path class="st1" d="M63.2,150H4.4C2,150,0,148,0,145.6V92.6c0-2.4,2-4.4,4.4-4.4h58.8c2.4,0,4.4,2,4.4,4.4v52.9
			C67.6,148,65.7,150,63.2,150z M4.4,91.2c-0.8,0-1.5,0.7-1.5,1.5v52.9c0,0.8,0.7,1.5,1.5,1.5h58.8c0.8,0,1.5-0.7,1.5-1.5V92.6
			c0-0.8-0.7-1.5-1.5-1.5H4.4z"/>
	</g>
	<g>
		<path class="st9" d="M72.1,148.5H13.2c-1.6,0-2.9-1.3-2.9-2.9V92.6c0-1.6,1.3-2.9,2.9-2.9h58.8c1.6,0,2.9,1.3,2.9,2.9v52.9
			C75,147.2,73.7,148.5,72.1,148.5z"/>
		<path class="st1" d="M72.1,150H13.2c-2.4,0-4.4-2-4.4-4.4V92.6c0-2.4,2-4.4,4.4-4.4h58.8c2.4,0,4.4,2,4.4,4.4v52.9
			C76.5,148,74.5,150,72.1,150z M13.2,91.2c-0.8,0-1.5,0.7-1.5,1.5v52.9c0,0.8,0.7,1.5,1.5,1.5h58.8c0.8,0,1.5-0.7,1.5-1.5V92.6
			c0-0.8-0.7-1.5-1.5-1.5H13.2z"/>
	</g>
	<g>
		<circle class="st10" cx="92.6" cy="76.5" r="32.4"/>
		<path class="st1" d="M92.6,110.3c-18.7,0-33.8-15.2-33.8-33.8S74,42.6,92.6,42.6s33.8,15.2,33.8,33.8S111.3,110.3,92.6,110.3z
			 M92.6,45.6c-17,0-30.9,13.9-30.9,30.9s13.9,30.9,30.9,30.9s30.9-13.9,30.9-30.9S109.7,45.6,92.6,45.6z"/>
	</g>
	<g>
		<path class="st3" d="M95.6,67.6H75c-1.6,0-2.9,1.3-2.9,2.9v8.8c0,1.6,1.3,2.9,2.9,2.9h20.6l14.7,5.9V61.8L95.6,67.6z"/>
		<path class="st1" d="M110.3,89.7c-0.2,0-0.4,0-0.5-0.1l-14.4-5.8H75c-2.4,0-4.4-2-4.4-4.4v-8.8c0-2.4,2-4.4,4.4-4.4h20.3l14.4-5.8
			c0.4-0.2,1-0.1,1.4,0.1c0.4,0.3,0.6,0.7,0.6,1.2v26.5c0,0.5-0.2,0.9-0.6,1.2C110.9,89.6,110.6,89.7,110.3,89.7z M75,69.1
			c-0.8,0-1.5,0.7-1.5,1.5v8.8c0,0.8,0.7,1.5,1.5,1.5h20.6c0.2,0,0.4,0,0.5,0.1l12.7,5.1V63.9L96.1,69c-0.2,0.1-0.4,0.1-0.5,0.1
			L75,69.1z"/>
	</g>
	<g>
		<path class="st5" d="M83.8,97.1h-2.9c-1.6,0-2.9-1.3-2.9-2.9V82.4h8.8v11.8C86.8,95.7,85.5,97.1,83.8,97.1z"/>
		<path class="st1" d="M83.8,98.5h-2.9c-2.4,0-4.4-2-4.4-4.4V82.4c0-0.8,0.7-1.5,1.5-1.5h8.8c0.8,0,1.5,0.7,1.5,1.5v11.8
			C88.2,96.5,86.3,98.5,83.8,98.5z M79.4,83.8v10.3c0,0.8,0.7,1.5,1.5,1.5h2.9c0.8,0,1.5-0.7,1.5-1.5V83.8H79.4z"/>
	</g>
	<g>
		<path class="st1" d="M95.6,83.8c-0.8,0-1.5-0.7-1.5-1.5V67.6c0-0.8,0.7-1.5,1.5-1.5s1.5,0.7,1.5,1.5v14.7
			C97.1,83.2,96.4,83.8,95.6,83.8z"/>
	</g>
	<g>
		<g>
			<path class="st11" d="M42.6,131.4c-0.3,0-8.4-0.1-11-0.3c-0.2,0-0.3,0-0.5-0.1c-0.9-0.1-2.4-0.3-3.7-1.6
				c-1.1-1.2-1.5-3.5-1.5-3.7c0-0.1-0.3-2.7-0.3-5.3v-2.4c0-2.6,0.3-5.2,0.3-5.3c0-0.3,0.4-2.6,1.5-3.8c1.3-1.4,2.9-1.6,3.6-1.6
				l0.2,0c4.5-0.3,11.3-0.3,11.4-0.3c0.1,0,6.8,0,11.3,0.3l0.2,0c0.7,0.1,2.3,0.2,3.6,1.6c1.1,1.2,1.5,3.5,1.5,3.7
				c0,0.1,0.3,2.7,0.3,5.3v2.4c0,2.6-0.3,5.2-0.3,5.3c0,0.3-0.4,2.6-1.5,3.7c-1.3,1.4-2.9,1.6-3.6,1.6l-0.2,0
				C49.5,131.4,42.7,131.4,42.6,131.4L42.6,131.4L42.6,131.4z"/>
			<path class="st1" d="M42.7,107.8c0,0,6.7,0,11.2,0.3c0.6,0.1,2,0.1,3.2,1.4c1,1,1.3,3.2,1.3,3.2s0.3,2.6,0.3,5.2v2.4
				c0,2.6-0.3,5.2-0.3,5.2s-0.3,2.2-1.3,3.2c-1.2,1.3-2.6,1.3-3.2,1.4c-4.5,0.3-11.3,0.3-11.3,0.3s-8.4-0.1-10.9-0.3
				c-0.7-0.1-2.3-0.1-3.5-1.4c-1-1-1.3-3.2-1.3-3.2s-0.3-2.6-0.3-5.2v-2.4c0-2.6,0.3-5.2,0.3-5.2s0.3-2.2,1.3-3.2
				c1.2-1.3,2.6-1.3,3.2-1.4C35.9,107.8,42.6,107.8,42.7,107.8L42.7,107.8 M42.7,105.9L42.7,105.9c-0.3,0-6.9,0-11.4,0.3l0,0l0,0
				l-0.2,0c-0.8,0.1-2.6,0.3-4.2,1.9c-1.3,1.3-1.7,3.8-1.8,4.3c0,0.1-0.3,2.8-0.3,5.5v2.4c0,2.7,0.3,5.3,0.3,5.4
				c0.1,0.5,0.5,2.9,1.8,4.3c1.5,1.5,3.3,1.8,4.2,1.9c0.1,0,0.2,0,0.3,0l0.1,0l0.1,0c2.6,0.3,10.7,0.3,11.1,0.3
				c0.3,0,6.9,0,11.4-0.3l0,0l0,0l0.2,0c0.8-0.1,2.6-0.3,4.2-1.9c1.3-1.3,1.7-3.8,1.8-4.3c0-0.1,0.3-2.8,0.3-5.5v-2.4
				c0-2.7-0.3-5.3-0.3-5.4c-0.1-0.5-0.5-2.9-1.8-4.3c-1.6-1.6-3.4-1.8-4.2-1.9l-0.2,0l0,0l0,0C49.5,105.9,42.9,105.9,42.7,105.9
				L42.7,105.9z"/>
		</g>
		<g id="Fill-208_2_">
			<path class="st12" d="M39.3,123.9c-0.1,0-0.2,0-0.3-0.1c-0.2-0.1-0.3-0.3-0.3-0.5l0-9c0-0.2,0.1-0.4,0.3-0.5
				c0.1-0.1,0.2-0.1,0.3-0.1c0.1,0,0.2,0,0.3,0.1l8.7,4.5c0.2,0.1,0.3,0.3,0.3,0.6c0,0.2-0.1,0.5-0.3,0.6l-8.7,4.5
				C39.5,123.9,39.4,123.9,39.3,123.9z"/>
			<path class="st1" d="M39.3,114.3l8.7,4.5l-8.7,4.5L39.3,114.3 M39.3,113c-0.2,0-0.5,0.1-0.7,0.2c-0.4,0.2-0.6,0.7-0.6,1.1l0,9
				c0,0.4,0.2,0.9,0.6,1.1c0.2,0.1,0.4,0.2,0.7,0.2c0.2,0,0.4,0,0.6-0.1l8.7-4.5c0.4-0.2,0.7-0.7,0.7-1.1c0-0.5-0.3-0.9-0.7-1.1
				l-8.7-4.5C39.7,113,39.5,113,39.3,113L39.3,113z"/>
		</g>
	</g>
	<g>
		<path class="st13" d="M36.5,45.1c-0.4,0-0.8-0.4-0.8-0.8V31.7h-1.8c-0.4,0-0.8-0.4-0.8-0.8v-4.7c0-0.4,0.4-0.8,0.8-0.8h1.8v-2.2
			c0-3,1.7-6.4,6.4-6.4l4.1,0c0.4,0,0.8,0.4,0.8,0.8v4.6c0,0.4-0.4,0.8-0.8,0.8h-3c-0.2,0-0.4,0.1-0.4,0.5v2h3.3
			c0.2,0,0.4,0.1,0.6,0.3c0.2,0.2,0.2,0.4,0.2,0.6l-0.5,4.7c0,0.4-0.4,0.7-0.8,0.7h-2.9v12.6c0,0.4-0.4,0.8-0.8,0.8H36.5z"/>
		<path class="st1" d="M42.1,17.5l4.1,0v4.6h-3c-0.5,0-1.2,0.2-1.2,1.3v2.8h4.1l-0.5,4.7H42v13.4h-5.5V30.9h-2.6v-4.7h2.6v-3.1
			C36.5,20.9,37.5,17.5,42.1,17.5 M42.1,15.9c-5.3,0-7.2,3.9-7.2,7.2v1.4h-1c-0.9,0-1.6,0.7-1.6,1.6v4.7c0,0.9,0.7,1.6,1.6,1.6h1
			v11.8c0,0.9,0.7,1.6,1.6,1.6H42c0.9,0,1.6-0.7,1.6-1.6V32.5h2.1c0.8,0,1.5-0.6,1.6-1.4l0.5-4.7c0-0.5-0.1-0.9-0.4-1.2
			c-0.3-0.3-0.7-0.5-1.2-0.5h-2.5v-0.8h2.6c0.9,0,1.6-0.7,1.6-1.6v-4.6c0-0.9-0.7-1.6-1.6-1.6L42.1,15.9
			C42.1,15.9,42.1,15.9,42.1,15.9L42.1,15.9z"/>
	</g>
	<g>
		<g>
			<g>
				<path class="st3" d="M152,108.5v21.2c0,0.8-0.6,1.5-1.2,1.5h-31.1c-0.7,0-1.2-0.7-1.2-1.5v-21.2c0-0.8,0.6-1.4,1.2-1.4h31
					C151.5,107.1,152,107.7,152,108.5L152,108.5z"/>
			</g>
			<g class="st14">
				<path d="M152,108.5v21.2c0,0.8-0.6,1.5-1.2,1.5h-31.1c-0.6,0-1.2-0.7-1.2-1.5V128h11.9c10,0,18.2-9.2,18.9-21h1.5
					C151.5,107.1,152,107.7,152,108.5L152,108.5z"/>
			</g>
		</g>
		<path class="st15" d="M119.8,131.7c-0.9,0-1.6-0.9-1.6-2.1v-21.2c0-1.1,0.7-2,1.6-2h31c0.5,0,1,0.2,1.2,0.6
			c0.3,0.4,0.4,0.9,0.4,1.4v21.2c0,1.2-0.7,2.1-1.6,2.1H119.8z M119.1,129.7c0,0.5,0.3,0.9,0.7,0.9h31c0.5,0,0.8-0.4,0.8-0.9v-21.4
			l-14.8,12.4c-0.5,0.4-1,0.6-1.5,0.6c-0.5,0-1.1-0.2-1.5-0.6l-14.6-12.4V129.7z M134.2,119.8c0.3,0.2,0.7,0.4,1,0.4s0.7-0.1,1-0.4
			l14.5-12.2h-3.7l0,0c-0.2,0-1.2,0.1-4.8,0.1c0,0,0,0,0,0c-5.5,0-13.7-0.1-13.8-0.1h-8.7L134.2,119.8z"/>
	</g>
</g>
</svg>
