<?xml version="1.0" encoding="utf-8"?>
<!-- Generator: Adobe Illustrator 26.0.2, SVG Export Plug-In . SVG Version: 6.00 Build 0)  -->
<svg version="1.1" id="Social-Media-eCommerce-Growth"
	 xmlns="http://www.w3.org/2000/svg" xmlns:xlink="http://www.w3.org/1999/xlink" x="0px" y="0px" viewBox="0 0 400 400"
	 style="enable-background:new 0 0 400 400;" xml:space="preserve">
<style type="text/css">
	.st0{fill:none;}
	.st1{fill:#1877F2;}
	.st2{fill:#0072B1;}
	.st3{fill:#515979;}
	.st4{fill:#FFD886;}
	.st5{fill:#7DDF96;}
	.st6{fill:#3CB48C;}
	.st7{fill:#FFFFFF;}
</style>
<g>
	<g>
		<rect x="0.5" class="st0" width="400" height="400"/>
	</g>
	<g>
		<path class="st1" d="M96.5,37.33c-33.14,0-60,26.86-60,60c0,29.95,21.94,54.77,50.62,59.27v-41.93H71.89V97.33h15.23V84.11
			c0-15.04,8.96-23.34,22.66-23.34c6.56,0,13.43,1.17,13.43,1.17v14.77h-7.57c-7.45,0-9.78,4.62-9.78,9.37v11.26h16.64l-2.66,17.34
			h-13.98v41.93c28.68-4.5,50.63-29.32,50.63-59.27C156.5,64.2,129.64,37.33,96.5,37.33z"/>
	</g>
	<g>
		<path class="st2" d="M345.11,240h-85.22c-4.08,0-7.39,3.23-7.39,7.21v86.22c0,3.98,3.31,7.21,7.39,7.21h85.22
			c4.08,0,7.39-3.23,7.39-7.21v-86.22C352.5,243.23,349.19,240,345.11,240z M267.71,324.24V278.8h15.1v45.44h0H267.71z
			 M275.26,272.6h-0.1c-5.07,0-8.35-3.49-8.35-7.85c0-4.46,3.38-7.85,8.55-7.85c5.17,0,8.35,3.39,8.44,7.85
			C283.81,269.11,280.53,272.6,275.26,272.6z M337.28,324.24h-15.1v-24.31c0-6.11-2.19-10.28-7.65-10.28
			c-4.17,0-6.66,2.81-7.75,5.52c-0.4,0.97-0.5,2.33-0.5,3.68v25.37h-15.1v0c0,0,0.2-41.18,0-45.44h15.1v6.43
			c2.01-3.1,5.6-7.5,13.61-7.5c9.94,0,17.39,6.49,17.39,20.45V324.24z"/>
	</g>
	<g>
		<g>
			<path class="st3" d="M294.5,68.88c15.13,0,16.92,0.06,22.9,0.33c5.52,0.25,8.53,1.18,10.52,1.95c2.65,1.03,4.53,2.26,6.52,4.24
				c1.98,1.98,3.21,3.87,4.24,6.52c0.78,2,1.7,5,1.95,10.52c0.27,5.98,0.33,7.77,0.33,22.9s-0.06,16.92-0.33,22.9
				c-0.25,5.52-1.18,8.53-1.95,10.52c-1.03,2.65-2.26,4.53-4.24,6.52c-1.98,1.98-3.87,3.21-6.52,4.24c-2,0.78-5,1.7-10.52,1.95
				c-5.97,0.27-7.77,0.33-22.9,0.33c-15.13,0-16.92-0.06-22.9-0.33c-5.52-0.25-8.53-1.18-10.52-1.95c-2.65-1.03-4.53-2.26-6.52-4.24
				c-1.98-1.98-3.21-3.87-4.24-6.52c-0.78-2-1.7-5-1.95-10.52c-0.27-5.98-0.33-7.77-0.33-22.9c0-15.13,0.06-16.92,0.33-22.9
				c0.25-5.52,1.18-8.53,1.95-10.52c1.03-2.65,2.26-4.53,4.24-6.52c1.98-1.98,3.87-3.21,6.52-4.24c2-0.78,5-1.7,10.52-1.95
				C277.58,68.93,279.37,68.88,294.5,68.88 M294.5,58.67c-15.39,0-17.32,0.07-23.36,0.34c-6.03,0.28-10.15,1.23-13.76,2.63
				c-3.73,1.45-6.89,3.39-10.04,6.54c-3.15,3.15-5.09,6.31-6.54,10.04c-1.4,3.6-2.36,7.72-2.63,13.76
				c-0.28,6.04-0.34,7.97-0.34,23.36c0,15.39,0.07,17.32,0.34,23.36c0.28,6.03,1.23,10.15,2.63,13.76
				c1.45,3.73,3.39,6.89,6.54,10.04c3.15,3.15,6.31,5.09,10.04,6.54c3.6,1.4,7.72,2.36,13.76,2.63c6.04,0.28,7.97,0.34,23.36,0.34
				s17.32-0.07,23.36-0.34c6.03-0.28,10.15-1.23,13.76-2.63c3.73-1.45,6.89-3.39,10.04-6.54c3.15-3.15,5.09-6.31,6.54-10.04
				c1.4-3.6,2.36-7.72,2.63-13.76c0.28-6.04,0.34-7.97,0.34-23.36s-0.07-17.32-0.34-23.36c-0.28-6.03-1.23-10.15-2.63-13.76
				c-1.45-3.73-3.39-6.89-6.54-10.04c-3.15-3.15-6.31-5.09-10.04-6.54c-3.6-1.4-7.72-2.36-13.76-2.63
				C311.82,58.73,309.89,58.67,294.5,58.67L294.5,58.67z"/>
		</g>
		<g>
			<path class="st3" d="M294.5,86.23c-16.07,0-29.1,13.03-29.1,29.1s13.03,29.1,29.1,29.1s29.1-13.03,29.1-29.1
				S310.57,86.23,294.5,86.23z M294.5,134.22c-10.43,0-18.89-8.46-18.89-18.89c0-10.43,8.46-18.89,18.89-18.89
				s18.89,8.46,18.89,18.89S304.93,134.22,294.5,134.22z"/>
		</g>
		<g>
			<circle class="st3" cx="324.75" cy="85.08" r="6.8"/>
		</g>
	</g>
	<g>
		<path class="st4" d="M195.03,95.2c-3.53,0-6.4-2.87-6.4-6.4c0-1.18-0.96-2.13-2.13-2.13c-1.18,0-2.13,0.96-2.13,2.13
			c0,3.53-2.87,6.4-6.4,6.4c-1.18,0-2.13,0.96-2.13,2.13s0.96,2.13,2.13,2.13c3.53,0,6.4,2.87,6.4,6.4c0,1.18,0.96,2.13,2.13,2.13
			c1.18,0,2.13-0.96,2.13-2.13c0-3.53,2.87-6.4,6.4-6.4c1.18,0,2.13-0.96,2.13-2.13S196.21,95.2,195.03,95.2z"/>
	</g>
	<g>
		<path class="st4" d="M258.77,205.6c-3.97,0-7.2-3.23-7.2-7.2c0-1.33-1.07-2.4-2.4-2.4c-1.33,0-2.4,1.07-2.4,2.4
			c0,3.97-3.23,7.2-7.2,7.2c-1.33,0-2.4,1.07-2.4,2.4s1.07,2.4,2.4,2.4c3.97,0,7.2,3.23,7.2,7.2c0,1.33,1.07,2.4,2.4,2.4
			c1.33,0,2.4-1.07,2.4-2.4c0-3.97,3.23-7.2,7.2-7.2c1.33,0,2.4-1.07,2.4-2.4S260.09,205.6,258.77,205.6z"/>
	</g>
	<g>
		<path class="st4" d="M57.43,217.6c-3.97,0-7.2-3.23-7.2-7.2c0-1.33-1.07-2.4-2.4-2.4c-1.33,0-2.4,1.07-2.4,2.4
			c0,3.97-3.23,7.2-7.2,7.2c-1.33,0-2.4,1.07-2.4,2.4s1.07,2.4,2.4,2.4c3.97,0,7.2,3.23,7.2,7.2c0,1.33,1.07,2.4,2.4,2.4
			c1.33,0,2.4-1.07,2.4-2.4c0-3.97,3.23-7.2,7.2-7.2c1.33,0,2.4-1.07,2.4-2.4S58.76,217.6,57.43,217.6z"/>
	</g>
	<g>
		<circle class="st4" cx="113.17" cy="184" r="4"/>
	</g>
	<g>
		<circle class="st4" cx="325.83" cy="363.33" r="3.33"/>
	</g>
	<g>
		<circle class="st4" cx="368.5" cy="230" r="3.33"/>
	</g>
	<g>
		<circle class="st4" cx="203.17" cy="318" r="6"/>
	</g>
	<g>
		<circle class="st4" cx="43.83" cy="160" r="5.33"/>
	</g>
	<g>
		<circle class="st4" cx="31.17" cy="39.33" r="3.33"/>
	</g>
	<g>
		<circle class="st4" cx="309.17" cy="208" r="4"/>
	</g>
	<g>
		<g>
			<path class="st4" d="M366.5,72c-2.21,0-4-1.79-4-4V41.33c0-2.21,1.79-4,4-4s4,1.79,4,4V68C370.5,70.21,368.71,72,366.5,72z"/>
		</g>
		<g>
			<path class="st4" d="M379.83,58.67h-26.67c-2.21,0-4-1.79-4-4s1.79-4,4-4h26.67c2.21,0,4,1.79,4,4S382.04,58.67,379.83,58.67z"/>
		</g>
	</g>
	<g>
		<g>
			<g>
				<g>
					<path class="st5" d="M80.09,366.1c-0.94,0-1.85-0.33-2.57-0.94L24.41,320.6c-3.94-3.31-4.46-9.21-1.15-13.15l80.56-96.01
						c1.78-2.12,4.38-3.33,7.15-3.33c0.17,0,0.34,0,0.51,0.01l63.9,3.49c1.78,0.1,3.27,1.35,3.68,3.08l14.54,62.33
						c0.66,2.85-0.06,5.88-1.94,8.12l-63.42,75.58c-0.68,0.81-1.66,1.32-2.72,1.41l-45.08,3.94C80.32,366.1,80.21,366.1,80.09,366.1
						z M154.6,228.12c-3.56,0-6.91,1.56-9.2,4.29c-2.06,2.45-3.04,5.57-2.76,8.76s1.79,6.09,4.24,8.15
						c2.16,1.81,4.89,2.81,7.71,2.81c3.56,0,6.91-1.56,9.2-4.29c2.06-2.45,3.04-5.57,2.76-8.76c-0.28-3.19-1.79-6.09-4.24-8.15
						C160.15,229.12,157.41,228.12,154.6,228.12z"/>
				</g>
			</g>
			<g>
				<g>
					<path class="st3" d="M110.97,212.11c0.1,0,0.19,0,0.29,0.01l63.9,3.49l14.54,62.33c0.38,1.64-0.03,3.35-1.11,4.64l-63.42,75.58
						l-45.08,3.94l-53.11-44.57c-2.26-1.89-2.55-5.26-0.66-7.51l80.56-96.01C107.9,212.8,109.4,212.11,110.97,212.11 M154.59,256.12
						c4.57,0,9.1-1.94,12.27-5.72c5.68-6.77,4.8-16.86-1.97-22.54c-3-2.52-6.65-3.74-10.28-3.74c-4.57,0-9.1,1.94-12.26,5.72
						c-5.68,6.77-4.8,16.86,1.97,22.54C147.31,254.89,150.96,256.12,154.59,256.12 M110.97,204.11c-3.95,0-7.67,1.74-10.21,4.76
						l-80.56,96.01c-2.29,2.73-3.38,6.18-3.07,9.73c0.31,3.55,1.98,6.76,4.71,9.05l53.11,44.57c1.45,1.21,3.27,1.87,5.14,1.87
						c0.23,0,0.46-0.01,0.7-0.03l45.08-3.94c2.11-0.18,4.07-1.2,5.43-2.83l63.42-75.58c2.68-3.2,3.72-7.53,2.77-11.6l-14.54-62.33
						c-0.81-3.46-3.8-5.98-7.35-6.17l-63.9-3.49C111.45,204.11,111.21,204.11,110.97,204.11L110.97,204.11z M154.59,248.12
						c-1.32,0-3.29-0.32-5.13-1.87c-3.38-2.84-3.82-7.89-0.99-11.27c1.52-1.82,3.76-2.86,6.14-2.86c1.32,0,3.29,0.32,5.13,1.87
						c1.64,1.37,2.64,3.3,2.83,5.43c0.19,2.13-0.47,4.2-1.84,5.84C159.2,247.08,156.96,248.12,154.59,248.12L154.59,248.12z"/>
				</g>
			</g>
		</g>
		<g>
			<g>
				<path class="st6" d="M80.09,366.1c-1.48,0-2.85-0.82-3.55-2.15c-0.75-1.44-0.56-3.18,0.48-4.42l17.14-20.43
					c1.78-2.12,4.39-3.33,7.15-3.33c2.19,0,4.32,0.78,6,2.18l20.43,17.14c1.24,1.04,1.73,2.72,1.24,4.27
					c-0.49,1.54-1.85,2.64-3.47,2.78l-45.08,3.94C80.32,366.1,80.2,366.1,80.09,366.1z"/>
			</g>
			<g>
				<g>
					<path class="st3" d="M101.32,339.77c1.21,0,2.43,0.41,3.43,1.25l20.43,17.14l-45.08,3.94l17.14-20.43
						C98.29,340.42,99.8,339.77,101.32,339.77 M101.32,331.77C101.32,331.77,101.32,331.77,101.32,331.77
						c-3.95,0-7.68,1.74-10.22,4.76l-17.14,20.43c-2.08,2.48-2.46,5.97-0.97,8.84c1.39,2.66,4.13,4.31,7.09,4.31
						c0.23,0,0.47-0.01,0.7-0.03l45.08-3.94c3.22-0.28,5.96-2.48,6.93-5.56c0.97-3.09-0.01-6.45-2.49-8.53l-20.43-17.14
						C107.49,332.88,104.45,331.77,101.32,331.77L101.32,331.77z"/>
				</g>
			</g>
		</g>
		<g>
			<path class="st3" d="M162.87,248.45c-0.42,0-0.84-0.07-1.26-0.21c-3.91-1.3-7.48-3.29-10.61-5.91
				c-7.75-6.5-11.99-16.16-11.95-27.2c0.04-10.77,4.17-21.6,11.64-30.5c7.47-8.9,17.42-14.85,28.02-16.76
				c10.87-1.96,21.12,0.55,28.87,7.05c15.77,13.23,15.91,39.12,0.32,57.7c-5.44,6.48-12.28,11.47-19.79,14.42
				c-2.06,0.8-4.38-0.21-5.18-2.26c-0.81-2.06,0.21-4.38,2.26-5.18c6.27-2.46,12-6.65,16.59-12.11
				c12.76-15.21,13.06-36.04,0.67-46.43c-5.89-4.95-13.82-6.83-22.31-5.3c-8.76,1.57-17.04,6.56-23.3,14.03
				c-6.27,7.47-9.74,16.48-9.77,25.39c-0.03,8.63,3.2,16.1,9.1,21.05c2.35,1.97,5.04,3.47,7.99,4.45c2.1,0.7,3.23,2.96,2.53,5.06
				C166.11,247.39,164.55,248.45,162.87,248.45z"/>
		</g>
		<g>
			<g>
				<g>
					<path class="st3" d="M132.4,305.54c-1.06,0-2.06-0.64-2.48-1.68c-1.06-2.66-4.46-5.51-7.26-6.09c-1.44-0.3-2.37-1.71-2.07-3.15
						c0.3-1.44,1.71-2.36,3.16-2.07c4.52,0.94,9.41,5.04,11.12,9.33c0.55,1.37-0.12,2.92-1.49,3.47
						C133.07,305.48,132.73,305.54,132.4,305.54z"/>
				</g>
				<g>
					<g>
						<circle class="st3" cx="134.45" cy="291.1" r="9.33"/>
					</g>
					<g>
						<circle class="st7" cx="136.24" cy="292.6" r="2.33"/>
					</g>
				</g>
				<g>
					<g>
						<path class="st3" d="M122.42,310.17c-0.08,0-0.16,0-0.24-0.01c-13.47-1.22-26.19-11.81-30.92-25.75
							c-0.47-1.39,0.27-2.91,1.67-3.38c1.4-0.47,2.91,0.27,3.38,1.67c4.01,11.82,15.09,21.14,26.35,22.15
							c1.47,0.13,2.55,1.43,2.42,2.9C124.95,309.13,123.79,310.17,122.42,310.17z"/>
					</g>
					<g>
						<path class="st3" d="M96.03,301.25c1.54,2.37,3.63,4.38,6.03,5.86c1.32,1.05,4.32,1.33,3.5,3.64
							c-0.44,1.21-1.78,1.16-2.83,1.21c-1.26,0.08-2.41-0.2-3.48-0.64c-3.17-1.35-5.86-4.12-6.39-7.64c0,0-0.15-1.26-0.15-1.26
							C92.46,300.55,95.06,299.66,96.03,301.25L96.03,301.25z"/>
					</g>
				</g>
				<g>
					<path class="st3" d="M141.19,272.75c5.8-0.18,11.6,3.79,13.01,9.55c0.76,2.86,0.49,8.44-3.59,7.54
						c-0.98-0.28-1.54-1.08-1.92-1.94c-1.41-3.26-2.86-5.51-5.65-7.67c-1.17-0.99-2.66-1.85-3.65-3
						C137.76,275.68,138.98,272.74,141.19,272.75L141.19,272.75z"/>
				</g>
				<g>
					<path class="st3" d="M105.85,283.26c-1.06,0-2.06-0.64-2.48-1.68c-1.06-2.66-4.46-5.51-7.26-6.09
						c-1.44-0.3-2.37-1.71-2.07-3.15c0.3-1.44,1.72-2.36,3.16-2.07c4.52,0.94,9.41,5.04,11.12,9.33c0.55,1.37-0.12,2.92-1.49,3.47
						C106.51,283.19,106.18,283.26,105.85,283.26z"/>
				</g>
				<g>
					<g>
						<circle class="st3" cx="107.89" cy="268.81" r="9.33"/>
					</g>
					<g>
						<circle class="st7" cx="109.68" cy="270.31" r="2.33"/>
					</g>
				</g>
				<g>
					<path class="st3" d="M119.83,260.96c-1.65-1.44-3.48-3.36-5.33-4.45c-1.93-1.24-3.57-1.63-5.93-2.27
						c-1.71-0.3-2.97-1.86-2.43-3.6c0.22-0.73,0.73-1.3,1.36-1.62c1.64-0.85,3.6-1.36,5.62-1.17c4.93,0.28,9.25,3.98,10.95,8.42
						c0.83,2.02,1.46,5.16-1.52,5.71C121.51,262.18,120.61,261.52,119.83,260.96L119.83,260.96z"/>
				</g>
			</g>
		</g>
	</g>
</g>
</svg>
