<?xml version="1.0" encoding="utf-8"?>
<!-- Generator: Adobe Illustrator 25.0.0, SVG Export Plug-In . SVG Version: 6.00 Build 0)  -->
<svg version="1.1" id="Layer_1" xmlns="http://www.w3.org/2000/svg" xmlns:xlink="http://www.w3.org/1999/xlink" x="0px" y="0px"
	 viewBox="0 0 180.3 150" style="enable-background:new 0 0 180.3 150;" xml:space="preserve">
<style type="text/css">
	.st0{fill:#87796F;}
	.st1{fill:#35414D;}
	.st2{fill-rule:evenodd;clip-rule:evenodd;fill:#FFF2E8;}
	.st3{fill-rule:evenodd;clip-rule:evenodd;fill:#FFE4CF;}
	.st4{fill-rule:evenodd;clip-rule:evenodd;fill:#CECECE;}
	.st5{fill-rule:evenodd;clip-rule:evenodd;fill:#838383;}
	.st6{fill-rule:evenodd;clip-rule:evenodd;fill:#FE9737;}
	.st7{fill-rule:evenodd;clip-rule:evenodd;fill:#B5ADB6;}
	.st8{fill-rule:evenodd;clip-rule:evenodd;fill:#F36B37;}
	.st9{fill-rule:evenodd;clip-rule:evenodd;fill:#595959;}
	.st10{fill:#60A917;}
	.st11{fill:#FE9737;}
	.st12{fill:#D8D8D8;}
	.st13{fill-rule:evenodd;clip-rule:evenodd;fill:#35414D;}
	.st14{fill-rule:evenodd;clip-rule:evenodd;fill:#99DD58;}
	.st15{fill:#FF5A5A;}
	.st16{fill-rule:evenodd;clip-rule:evenodd;fill:#97DA7B;}
	.st17{fill-rule:evenodd;clip-rule:evenodd;fill:#68CA44;}
	.st18{fill:#6F909E;}
	.st19{fill:#C81E1E;}
	.st20{fill:#F44335;}
	.st21{fill:#0377BC;}
	.st22{fill:#02A9F4;}
	.st23{fill:#DFC49C;}
	.st24{fill:#FFE0B2;}
	.st25{fill:#FEC108;}
	.st26{fill:#FFDC00;}
	.st27{fill:#CFD8DC;}
	.st28{fill:#F5F5F5;}
	.st29{fill:#37474F;}
	.st30{fill:#707070;}
	.st31{fill:#9E9E9E;}
	.st32{fill:#624421;}
	.st33{fill:#825A2C;}
	.st34{fill:#35414D;stroke:#35414D;stroke-width:0.739;stroke-miterlimit:10;}
</style>
<g>
	<g>
		<g>
			<g>
				<path class="st0" d="M69,148.7c-6.7,0-12.1-5.4-12.1-12.1V26.2c0-6.7,5.4-12.1,12.1-12.1h80.5c6.7,0,12.1,5.4,12.1,12.1v110.4
					c0,6.7-5.4,12.1-12.1,12.1H69z"/>
			</g>
			<g>
				<path class="st1" d="M149.6,15.4c6,0,10.8,4.8,10.8,10.8v110.4c0,6-4.8,10.8-10.8,10.8H69c-6,0-10.8-4.8-10.8-10.8V26.2
					c0-6,4.8-10.8,10.8-10.8H149.6 M149.6,12.9H69c-7.4,0-13.4,6-13.4,13.4v110.4c0,7.4,6,13.4,13.4,13.4h80.5
					c7.4,0,13.4-6,13.4-13.4V26.2C162.9,18.9,156.9,12.9,149.6,12.9L149.6,12.9z"/>
			</g>
		</g>
		<g id="g7750_11_" transform="translate(18.5,457.4355)">
			<g id="path7752_11_">
				<path class="st2" d="M45.4-425v108.4c0,0.9,0.7,1.6,1.5,1.6h24.6h52.6h10.4c0.8,0,1.5-0.7,1.5-1.6v-99.5l0-1
					c0-0.1,0-0.3-0.1-0.4h-12.5c-3.4,0-6.2-3-6.2-6.6l0-12.3c-0.1-0.1-0.2-0.1-0.4-0.1h-1.2H47c-0.8,0-1.5,0.7-1.5,1.6V-425z"/>
			</g>
		</g>
		<g id="g7754_11_" transform="translate(257.3203,504.5)">
			<g id="path7756_11_">
				<path class="st3" d="M-138.5-483.6c11.9,13,19.6,34.1,19.6,58c0,5.2-0.4,10.2-1.1,15.1c-0.2,1.6-0.5,3.1-0.8,4.6
					c-0.3,1.8-0.7,3.6-1.2,5.4c-4.1,16.6-12.1,30.2-22.4,38.3h29.6h10.4c0.8,0,1.5-0.7,1.5-1.6v-18.4v-24.3v-56.8l0-1
					c0-0.1,0-0.3-0.1-0.4l-18.7-18.9c-0.1-0.1-0.2-0.1-0.4-0.1h-1.2H-138.5z"/>
			</g>
		</g>
		<g id="g7758_11_" transform="translate(331.5508,504.1592)">
			<g id="path7760_11_">
				<path class="st4" d="M-195.7-483.2l0,12.3c0,3.6,2.8,6.6,6.2,6.6h12.5c-0.1-0.2-0.3-0.4-0.8-0.9l-16.9-17.1
					C-195.2-482.8-195.4-483-195.7-483.2"/>
			</g>
		</g>
		<g id="g7762_11_" transform="translate(331.5508,504.1592)">
			<g id="path7764_11_">
				<path class="st1" d="M-178.1-462.9h-11.3c-4.1,0-7.5-3.5-7.5-7.9l0-12.3c0-0.7,0.6-1.3,1.3-1.3c0,0,0,0,0,0
					c0.7,0,1.3,0.6,1.3,1.3l0,12.3c0,2.9,2.2,5.3,4.9,5.3h11.3c0.7,0,1.3,0.6,1.3,1.3S-177.4-462.9-178.1-462.9z"/>
			</g>
		</g>
		<g id="g7766_11_" transform="translate(413.1929,241.0635)">
			<g id="path7768_11_">
				<path class="st1" d="M-260.1-97.4h-87.6c-1.6,0-2.8-1.3-2.8-2.9v-118.2c0-1.6,1.3-2.9,2.8-2.9h70c1,0,1.4,0.5,2.1,1.1l0.3,0.3
					l17.6,17.8c0.3,0.3,0.4,0.6,0.4,0.9c0.1,0.2,0.2,0.4,0.2,0.6v100.4C-257.2-98.7-258.5-97.4-260.1-97.4z M-348-167.9v67.6
					c0,0.2,0.1,0.4,0.3,0.4h87.6c0.1,0,0.3-0.2,0.3-0.4v-100.3l-17.7-17.9c-0.1-0.1-0.3-0.3-0.3-0.3h-69.9c-0.1,0-0.3,0.1-0.3,0.3
					V-167.9z"/>
			</g>
		</g>
		<g>
			<g id="g7770_11_" transform="translate(330.2446,64.9756)">
				<g id="path7772_11_">
					<path class="st1" d="M-203.1,70.2c-1.4,0-2.6-1-3.6-2c-1.2-1.2-1.6-0.9-2.8,0.2c-1.2,1.1-3.3,2.9-6.5,0c-0.4-0.4-0.4-1-0.1-1.4
						c0.4-0.4,1-0.4,1.4-0.1c1.8,1.7,2.5,1.1,3.8,0c1.1-1,3-2.6,5.6-0.1c0.6,0.6,1.6,1.5,2.3,1.4c0.4,0,0.9-0.4,1.4-1
						c0.6-0.8,1-1.5,1.4-2.2c0.7-1.2,1.4-2.4,2.7-2.7c1.5-0.3,2.3,1,3,2.2c1,1.6,2,3.3,4.5,3c0.6-0.1,1.1,0.3,1.1,0.9
						s-0.3,1.1-0.9,1.1c-3.8,0.4-5.5-2.3-6.5-3.9c-0.3-0.5-0.7-1.2-0.9-1.3c-0.3,0.1-0.7,0.8-1.2,1.7c-0.4,0.7-0.9,1.6-1.6,2.5
						c-0.9,1.1-1.8,1.7-2.8,1.8C-203,70.2-203.1,70.2-203.1,70.2z"/>
				</g>
			</g>
			<g id="g7774_11_" transform="translate(423.1602,447.0527)">
				<g id="path7776_11_">
					<path class="st4" d="M-260.7-405.2l9.3,2.8l2.4-8c0.8-2.6-0.7-5.3-3.3-6c-2.6-0.8-5.3,0.7-6,3.3L-260.7-405.2z"/>
				</g>
			</g>
			<g id="g7778_11_" transform="translate(325.644,101.1182)">
				<g id="path7780_11_">
					<path class="st5" d="M-186.5,23.6l0.9,8.2c0.1,0.5,0.1,0.6,0.5,0.1l5.3-6.4l5.7-6.9l-5.4-6.5l-8,2.5L-186.5,23.6z"/>
				</g>
			</g>
			<g id="g7782_11_" transform="translate(412.0854,441.0947)">
				<g id="path7784_11_">
					<path class="st6" d="M-252.3-397.8l-21.7,72.6l6.7,2l6.7,2l20.1-67.3l1.6-5.3c0.3-1.1-0.3-2.3-1.4-2.7l-9.3-2.8
						C-250.7-399.6-251.9-398.9-252.3-397.8"/>
				</g>
			</g>
			<g id="g7786_11_" transform="translate(452.5229,474.4854)">
				<g id="path7788_11_">
					<path class="st7" d="M-283-439.2l-2.4,8l4.7,1.4l2.4-8c0.8-2.6-0.7-5.3-3.3-6c-0.9-0.3-1.7-0.3-2.5-0.1
						C-283-442.7-282.5-440.9-283-439.2"/>
				</g>
			</g>
			<g id="g7790_11_" transform="translate(441.9307,407.96)">
				<g id="path7792_11_">
					<path class="st8" d="M-275-356.7l-19.2,64.1l-0.9,3.1l4.7,1.4l20.1-67.3l1.6-5.3c0.3-1.1-0.3-2.3-1.4-2.7l-4.7-1.4
						c1.1,0.3,1.8,1.5,1.4,2.7L-275-356.7z"/>
				</g>
			</g>
			<g id="g7794_11_" transform="translate(357.9888,127.2178)">
				<g id="path7796_11_">
					<path class="st9" d="M-211.1-8.7l-5.7,6.9l-1.7,2.1l0.6,5.5c0.1,0.5,0.1,0.6,0.5,0.1l5.3-6.4l5.7-6.9L-211.1-8.7z"/>
				</g>
			</g>
			<g id="g7798_11_" transform="translate(461.3545,402.1719)">
				<g id="path7800_11_">
					<path class="st1" d="M-289.9-320.1c-0.1,0-0.2,0-0.3,0c-0.5-0.2-0.8-0.7-0.7-1.3l7.5-25.2l-6.7-2c-0.5-0.2-0.8-0.7-0.7-1.3
						c0.2-0.5,0.7-0.9,1.3-0.7l7.7,2.3c0.3,0.1,0.5,0.3,0.6,0.5c0.1,0.2,0.2,0.5,0.1,0.8l-7.8,26.1
						C-289-320.4-289.4-320.1-289.9-320.1z"/>
				</g>
			</g>
			<g id="g7802_11_" transform="translate(374.0615,313.9443)">
				<g id="path7804_11_">
					<path class="st1" d="M-222.6-193c-0.1,0-0.2,0-0.3,0l-13.4-4c-0.3-0.1-0.5-0.3-0.6-0.5c-0.1-0.2-0.2-0.5-0.1-0.8l10.2-34.2
						c0.2-0.5,0.7-0.8,1.3-0.7c0.5,0.2,0.8,0.7,0.7,1.3l-9.9,33.2l11.4,3.4l21.4-71.6c0.1-0.3,0.1-0.6-0.1-0.8
						c-0.1-0.3-0.4-0.5-0.7-0.5l-9.3-2.8c-0.6-0.2-1.2,0.2-1.4,0.7l-9.1,30.5c-0.2,0.5-0.7,0.9-1.3,0.7c-0.5-0.2-0.8-0.7-0.7-1.3
						l9.1-30.5c0.5-1.7,2.3-2.6,3.9-2.1l9.3,2.8c0.8,0.2,1.5,0.8,1.9,1.5c0.4,0.7,0.5,1.6,0.2,2.4l-21.7,72.6
						C-221.7-193.3-222.1-193-222.6-193z"/>
				</g>
			</g>
			<g id="g7806_11_" transform="translate(331.5225,66.168)">
				<g id="path7808_11_">
					<path class="st1" d="M-191.3,68.3c-0.1,0-0.2,0-0.3,0c-0.7-0.2-0.8-0.8-0.8-1.2c0,0,0-0.1,0-0.1l-1.9-17.1
						c0-0.3,0.1-0.7,0.4-0.9c0.3-0.2,0.6-0.3,0.9-0.2l13.4,4c0.3,0.1,0.6,0.4,0.7,0.7s0,0.7-0.2,0.9l-11,13.2c0,0,0,0,0,0
						C-190.5,67.9-190.8,68.3-191.3,68.3z M-191,66.9L-191,66.9L-191,66.9z M-192.2,51.1l1.6,13.8l8.9-10.7L-192.2,51.1z"/>
				</g>
			</g>
			<g id="g7810_11_" transform="translate(423.1602,447.0527)">
				<g id="path7812_11_">
					<path class="st1" d="M-251.4-401.4c-0.1,0-0.2,0-0.3,0l-9.3-2.8c-0.3-0.1-0.5-0.3-0.6-0.5c-0.1-0.2-0.2-0.5-0.1-0.8l2.4-8
						c0.4-1.5,1.5-2.7,2.8-3.5c1.4-0.7,3-0.9,4.5-0.5c3.1,0.9,4.9,4.2,4,7.3l-2.4,8C-250.5-401.7-250.9-401.4-251.4-401.4z
						 M-259.4-405.9l7.4,2.2l2.1-7c0.6-2-0.6-4.2-2.6-4.8c-1-0.3-2-0.2-2.9,0.3c-0.9,0.5-1.6,1.3-1.8,2.3L-259.4-405.9z"/>
				</g>
			</g>
		</g>
		<g>
			<g>
				<path class="st1" d="M129.2,56.4c-0.2-0.2-0.5-0.4-0.9-0.4c-0.2,0-0.3,0-0.5,0.1l-5.9,2.1c-0.7,0.2-1,0.9-0.8,1.6
					c0.2,0.7,0.9,1,1.6,0.8l3.1-1.1l-4.3,8.9l-5.3-2.5c-0.6-0.3-1.4,0-1.7,0.6c0,0,0,0,0,0L110,76c-0.3,0.6,0,1.4,0.6,1.7
					c0,0,0,0,0,0c0.6,0.3,1.4,0,1.7-0.6c0,0,0,0,0,0l4.1-8.5l5.3,2.5c0.6,0.3,1.4,0,1.7-0.6c0,0,0,0,0,0l4.8-10.1l1.1,3.1
					c0.2,0.7,0.9,1,1.6,0.8s1-0.9,0.8-1.6l-2.1-5.9C129.4,56.6,129.3,56.5,129.2,56.4L129.2,56.4z"/>
			</g>
			<g>
				<path class="st10" d="M128.6,55.9c-0.2-0.2-0.5-0.4-0.9-0.4c-0.2,0-0.3,0-0.5,0.1l-5.9,2.1c-0.7,0.2-1,0.9-0.8,1.6
					c0.2,0.7,0.9,1,1.6,0.8l3.1-1.1l-4.3,8.9l-5.3-2.5c-0.6-0.3-1.4,0-1.7,0.6c0,0,0,0,0,0l-4.6,9.6c-0.3,0.6,0,1.4,0.6,1.7
					c0,0,0,0,0,0c0.6,0.3,1.4,0,1.7-0.6c0,0,0,0,0,0l4.1-8.5l5.3,2.5c0.6,0.3,1.4,0,1.7-0.6c0,0,0,0,0,0l4.8-10.1l1.1,3.1
					c0.2,0.7,0.9,1,1.6,0.8c0.7-0.2,1-0.9,0.8-1.6l-2.1-5.9C128.8,56.2,128.7,56,128.6,55.9L128.6,55.9z"/>
			</g>
		</g>
		<g>
			<g>
				<g>
					<path class="st1" d="M94.8,62.6l-1.7-3.5c-0.3-0.6-0.1-1.4,0.6-1.7c0.6-0.3,1.4-0.1,1.7,0.6l1.2,2.3l5.8-2.9
						c0.6-0.3,1.4-0.1,1.7,0.6s0.1,1.4-0.6,1.7l-6.9,3.5C95.9,63.5,95.2,63.3,94.8,62.6L94.8,62.6z M89,56.3l-8.6-2.8
						c-0.7-0.2-1.4,0.1-1.6,0.8c-0.2,0.7,0.1,1.4,0.8,1.6l8.6,2.8c0.7,0.2,1.4-0.1,1.6-0.8C90.1,57.2,89.7,56.5,89,56.3z M99.3,67.4
						c-0.3-0.6-1.1-0.9-1.7-0.6l-3.1,1.5L93,65.3c-0.3-0.6-1.1-0.9-1.7-0.6c-0.6,0.3-0.9,1.1-0.6,1.7l1.5,3.1l-3.1,1.5
						c-0.6,0.3-0.9,1.1-0.6,1.7c0.3,0.6,1.1,0.9,1.7,0.6l3.1-1.5l1.5,3.1c0.3,0.6,1.1,0.9,1.7,0.6c0.6-0.3,0.9-1.1,0.6-1.7l-1.5-3.1
						l3.1-1.5C99.4,68.8,99.7,68,99.3,67.4L99.3,67.4z M85.8,66.1l-8.6-2.8c-0.7-0.2-1.4,0.1-1.6,0.8c-0.2,0.7,0.1,1.4,0.8,1.6
						l8.6,2.8c0.7,0.2,1.4-0.1,1.6-0.8C86.8,67,86.5,66.3,85.8,66.1z"/>
				</g>
			</g>
			<g>
				<g>
					<path class="st11" d="M95.1,61.9l-1.7-3.5c-0.3-0.6-0.1-1.4,0.6-1.7c0.6-0.3,1.4-0.1,1.7,0.6l1.2,2.3l5.8-2.9
						c0.6-0.3,1.4-0.1,1.7,0.6s0.1,1.4-0.6,1.7l-6.9,3.5C96.2,62.8,95.4,62.6,95.1,61.9L95.1,61.9z M89.3,55.5l-8.6-2.8
						c-0.7-0.2-1.4,0.1-1.6,0.8c-0.2,0.7,0.1,1.4,0.8,1.6l8.6,2.8c0.7,0.2,1.4-0.1,1.6-0.8C90.3,56.5,89.9,55.8,89.3,55.5z
						 M99.6,66.7c-0.3-0.6-1.1-0.9-1.7-0.6l-3.1,1.5l-1.5-3.1c-0.3-0.6-1.1-0.9-1.7-0.6c-0.6,0.3-0.9,1.1-0.6,1.7l1.5,3.1l-3.1,1.5
						c-0.6,0.3-0.9,1.1-0.6,1.7s1.1,0.9,1.7,0.6l3.1-1.5l1.5,3.1c0.3,0.6,1.1,0.9,1.7,0.6c0.6-0.3,0.9-1.1,0.6-1.7L95.9,70l3.1-1.5
						C99.6,68.1,99.9,67.3,99.6,66.7L99.6,66.7z M86,65.3l-8.6-2.8c-0.7-0.2-1.4,0.1-1.6,0.8C75.6,64,76,64.8,76.6,65l8.6,2.8
						c0.7,0.2,1.4-0.1,1.6-0.8C87.1,66.3,86.7,65.6,86,65.3z"/>
				</g>
			</g>
		</g>
		<g>
			<g>
				<path class="st1" d="M117.7,90.6l-1.8-1.8c-0.2-0.2-0.4-0.2-0.6,0c-0.2,0.2-0.2,0.4,0,0.6l1.8,1.8c0.1,0.1,0.2,0.1,0.3,0.1
					c0.1,0,0.2,0,0.3-0.1C117.9,91,117.9,90.7,117.7,90.6z M123.1,85.5c-0.2,0-0.4,0.2-0.4,0.4v2.5c0,0.2,0.2,0.4,0.4,0.4
					c0.2,0,0.4-0.2,0.4-0.4V86C123.5,85.7,123.3,85.5,123.1,85.5z M130.9,88.8c-0.2-0.2-0.4-0.2-0.6,0l-1.8,1.8
					c-0.2,0.2-0.2,0.4,0,0.6c0.1,0.1,0.2,0.1,0.3,0.1c0.1,0,0.2,0,0.3-0.1l1.8-1.8C131.1,89.2,131.1,88.9,130.9,88.8L130.9,88.8z
					 M133.7,96.1h-2.5c-0.2,0-0.4,0.2-0.4,0.4c0,0.2,0.2,0.4,0.4,0.4h2.5c0.2,0,0.4-0.2,0.4-0.4C134.2,96.3,134,96.1,133.7,96.1z
					 M115,96.1h-2.5c-0.2,0-0.4,0.2-0.4,0.4c0,0.2,0.2,0.4,0.4,0.4h2.5c0.2,0,0.4-0.2,0.4-0.4C115.4,96.3,115.3,96.1,115,96.1z
					 M130,96.6c0-3.8-3.1-6.9-6.9-6.9c-3.8,0-6.9,3.1-6.9,6.9c0,1.3,0.4,2.6,1.1,3.7l2.7,5.1h-0.2c-0.8,0-1.5,0.7-1.5,1.5
					c0,0.4,0.2,0.8,0.5,1.1c-0.3,0.3-0.5,0.7-0.5,1.1c0,0.8,0.7,1.5,1.5,1.5h1.3c0.2,1,1,1.7,2.1,1.7c1,0,1.9-0.7,2.1-1.7h1.3
					c0.8,0,1.5-0.7,1.5-1.5c0-0.4-0.2-0.8-0.5-1.1c0.3-0.3,0.5-0.7,0.5-1.1c0-0.8-0.7-1.5-1.5-1.5h-0.2l2.7-5.1
					C129.6,99.2,130,97.9,130,96.6z M123.1,111.4c-0.5,0-1-0.3-1.2-0.8h2.3C124.1,111.1,123.6,111.4,123.1,111.4z M126.4,109.7h-6.6
					c-0.4,0-0.6-0.3-0.6-0.6c0-0.4,0.3-0.6,0.6-0.6h6.6c0.4,0,0.6,0.3,0.6,0.6C127.1,109.4,126.8,109.7,126.4,109.7z M126.4,106.3
					c0.4,0,0.6,0.3,0.6,0.6s-0.3,0.6-0.6,0.6h-6.6c-0.4,0-0.6-0.3-0.6-0.6s0.3-0.6,0.6-0.6H126.4z M121.8,101.1l1.3-0.8l1.3,0.8
					l-0.8,4.4h-1L121.8,101.1z M128.2,99.9l-3,5.5h-0.7l0.8-4.3l1.7-1c0.2-0.1,0.3-0.4,0.1-0.6c-0.1-0.2-0.4-0.3-0.6-0.1l-1.6,1
					l-1.6-1c-0.1-0.1-0.3-0.1-0.5,0l-1.6,1l-1.6-1c-0.2-0.1-0.5-0.1-0.6,0.1c-0.1,0.2-0.1,0.5,0.1,0.6l1.7,1l0.8,4.3H121l-3-5.5
					c0,0,0,0,0,0c-0.6-1-1-2.1-1-3.3c0-3.3,2.7-6,6-6c3.3,0,6,2.7,6,6C129.2,97.7,128.8,98.9,128.2,99.9
					C128.2,99.9,128.2,99.9,128.2,99.9L128.2,99.9z"/>
			</g>
			<g>
				<path class="st12" d="M124.4,101.1l-0.8,4.4h-1l-0.8-4.4l1.3-0.8L124.4,101.1z"/>
			</g>
			<g>
				<path class="st11" d="M129.2,96.6c0,1.2-0.3,2.3-1,3.3c0,0,0,0,0,0l-3,5.5h-0.7l0.8-4.3l1.7-1c0.2-0.1,0.3-0.4,0.1-0.6
					c-0.1-0.2-0.4-0.3-0.6-0.1l-1.6,1l-1.6-1c-0.1-0.1-0.3-0.1-0.5,0l-1.6,1l-1.6-1c-0.2-0.1-0.5-0.1-0.6,0.1
					c-0.1,0.2-0.1,0.5,0.1,0.6l1.7,1l0.8,4.3H121l-3-5.5c0,0,0,0,0,0c-0.6-1-1-2.1-1-3.3c0-3.3,2.7-6,6-6
					C126.4,90.5,129.2,93.2,129.2,96.6L129.2,96.6z"/>
			</g>
			<g>
				<g>
					<path class="st12" d="M127.1,106.9c0,0.4-0.3,0.6-0.6,0.6h-6.6c-0.4,0-0.6-0.3-0.6-0.6c0-0.4,0.3-0.6,0.6-0.6h6.6
						C126.8,106.3,127.1,106.6,127.1,106.9z"/>
				</g>
				<g>
					<path class="st12" d="M127.1,109.1c0,0.4-0.3,0.6-0.6,0.6h-6.6c-0.4,0-0.6-0.3-0.6-0.6c0-0.4,0.3-0.6,0.6-0.6h6.6
						C126.8,108.4,127.1,108.7,127.1,109.1z"/>
				</g>
				<g>
					<path class="st12" d="M124.3,110.6c-0.2,0.5-0.6,0.8-1.2,0.8c-0.5,0-1-0.3-1.2-0.8H124.3z"/>
				</g>
			</g>
		</g>
		<g>
			<g>
				<g>
					<path class="st13" d="M89.4,86.5c-0.5,0-1,0.4-1,1v11.9c0,0.5,0.4,1,1,1h11.9c0.5,0,1-0.4,1-1v-6c0-0.5,0.4-1,1-1s1,0.4,1,1v6
						c0,1.6-1.3,3-3,3H89.4c-1.6,0-3-1.3-3-3V87.5c0-1.6,1.3-3,3-3h9.9c0.5,0,1,0.4,1,1c0,0.5-0.4,1-1,1H89.4z M103.6,85.8
						c0.4-0.4,1-0.4,1.4,0c0.4,0.4,0.4,1,0,1.4L96,96.1c-0.4,0.4-1,0.4-1.4,0l-3-3c-0.4-0.4-0.4-1,0-1.4c0.4-0.4,1-0.4,1.4,0
						l2.3,2.3L103.6,85.8z"/>
				</g>
			</g>
			<g>
				<g>
					<path class="st14" d="M88.7,85.8c-0.5,0-1,0.4-1,1v11.9c0,0.5,0.4,1,1,1h11.9c0.5,0,1-0.4,1-1v-6c0-0.5,0.4-1,1-1s1,0.4,1,1v6
						c0,1.6-1.3,3-3,3H88.7c-1.6,0-3-1.3-3-3V86.7c0-1.6,1.3-3,3-3h9.9c0.5,0,1,0.4,1,1s-0.4,1-1,1H88.7z M102.9,85
						c0.4-0.4,1-0.4,1.4,0c0.4,0.4,0.4,1,0,1.4l-8.9,8.9c-0.4,0.4-1,0.4-1.4,0l-3-3c-0.4-0.4-0.4-1,0-1.4c0.4-0.4,1-0.4,1.4,0
						l2.3,2.3L102.9,85z"/>
				</g>
			</g>
		</g>
		<g>
			<g>
				<path class="st1" d="M99.8,135.3c0,0-0.1,0-0.1,0c-0.4,0-0.7-0.1-1-0.4l-6.3-6.3L86,135c-0.2,0.2-0.5,0.3-0.9,0.3l-0.1,0
					c0,0-0.1,0-0.1,0c-0.3,0-0.6-0.1-0.9-0.3c-0.5-0.5-0.5-1.4,0-1.9l6.4-6.4l-6.4-6.4c-0.5-0.5-0.4-1.4,0.2-1.9
					c0.2-0.2,0.6-0.3,0.9-0.3c0.3,0,0.6,0.1,0.9,0.3l6.4,6.3l6.3-6.3c0.2-0.2,0.6-0.4,0.9-0.4c0.4,0,0.7,0.2,1,0.4
					c0.5,0.5,0.5,1.2,0.1,1.8l-6.3,6.3l6.3,6.3c0.5,0.5,0.6,1.4,0.1,1.9c0,0,0,0,0,0C100.4,135.2,100.1,135.3,99.8,135.3z"/>
			</g>
			<g>
				<path class="st15" d="M100,134.6c0,0-0.1,0-0.1,0c-0.4,0-0.7-0.1-1-0.4l-6.3-6.3l-6.4,6.4c-0.2,0.2-0.5,0.3-0.9,0.3l-0.1,0
					c0,0-0.1,0-0.1,0c-0.3,0-0.6-0.1-0.9-0.3c-0.5-0.5-0.5-1.4,0-1.9l6.4-6.4l-6.4-6.4c-0.5-0.5-0.4-1.4,0.2-1.9
					c0.2-0.2,0.6-0.3,0.9-0.3c0.3,0,0.6,0.1,0.9,0.3l6.4,6.3l6.3-6.3c0.2-0.2,0.6-0.4,0.9-0.4c0.4,0,0.7,0.2,1,0.4
					c0.5,0.5,0.5,1.2,0.1,1.8l-6.3,6.3l6.3,6.3c0.5,0.5,0.6,1.4,0.1,1.9c0,0,0,0,0,0C100.7,134.5,100.4,134.6,100,134.6z"/>
			</g>
		</g>
		<g>
			<g id="g7830_10_" transform="translate(293.2144,407.6475)">
				<g id="path7832_10_">
					<path class="st16" d="M-168.1-370.2h-31.6c-0.5,0-1,0.4-1,1v5.8c0,0.5,0.4,1,1,1h31.6c0.5,0,1-0.4,1-1v-5.8
						C-167.1-369.7-167.6-370.2-168.1-370.2"/>
				</g>
			</g>
			<g id="g7834_10_" transform="translate(293.2144,407.6475)">
				<g id="path7836_10_">
					<path class="st17" d="M-168.1-370.2h-9c0.5,0,1,0.4,1,1v5.8c0,0.5-0.4,1-1,1h9c0.5,0,1-0.4,1-1v-5.8
						C-167.1-369.7-167.6-370.2-168.1-370.2"/>
				</g>
			</g>
			<g id="g7838_10_" transform="translate(128.1699,407.6475)">
				<g id="path7840_10_">
					<path class="st1" d="M-3.1-361.5h-31.6c-1,0-1.9-0.8-1.9-1.9v-5.8c0-1,0.8-1.9,1.9-1.9h31.6c1,0,1.9,0.8,1.9,1.9v5.8
						C-1.2-362.4-2.1-361.5-3.1-361.5z M-34.7-369.3C-34.7-369.3-34.7-369.2-34.7-369.3l-0.1,5.9c0,0,0,0.1,0.1,0.1h31.6
						c0,0,0.1,0,0.1-0.1v-5.8c0,0,0-0.1-0.1-0.1H-34.7z"/>
				</g>
			</g>
		</g>
		<g>
			<g>
				<path class="st18" d="M116.2,8.6c0-3.8-3.1-6.9-6.9-6.9c-3.8,0-6.9,3.1-6.9,6.9H88.6v13.8c0,1.8,1.5,3.3,3.3,3.3h34.8
					c1.8,0,3.3-1.5,3.3-3.3V8.6H116.2z"/>
			</g>
			<g>
				<path class="st1" d="M126.7,27.4H94.3c0,0,0,0,0,0h-2.3c-2.8,0-5-2.2-5-5V8.6c0-0.9,0.7-1.7,1.7-1.7h12.3
					c0.8-3.9,4.3-6.9,8.4-6.9s7.6,3,8.4,6.9H130c0.9,0,1.7,0.7,1.7,1.7v13.8C131.7,25.1,129.4,27.4,126.7,27.4z M96.8,24h29.8
					c0.9,0,1.7-0.7,1.7-1.7V10.2h-12.1c-0.9,0-1.7-0.7-1.7-1.7c0-2.9-2.3-5.2-5.2-5.2s-5.2,2.3-5.2,5.2c0,0.9-0.7,1.7-1.7,1.7H90.3
					v12.1c0,0.9,0.7,1.7,1.7,1.7L96.8,24C96.8,24,96.8,24,96.8,24z"/>
			</g>
			<g>
				<path class="st1" d="M123.1,20.6H95.5c-0.9,0-1.7-0.7-1.7-1.7c0-0.9,0.7-1.7,1.7-1.7h27.6c0.9,0,1.7,0.7,1.7,1.7
					C124.8,19.8,124,20.6,123.1,20.6z"/>
			</g>
			<g>
				<g>
					<g>
						<path class="st1" d="M109.3,10.2c-0.2,0-0.4,0-0.6-0.1c-0.2-0.1-0.4-0.2-0.5-0.4c-0.3-0.3-0.5-0.7-0.5-1.2c0-0.1,0-0.2,0-0.3
							c0-0.1,0-0.2,0.1-0.3c0-0.1,0.1-0.2,0.2-0.3c0.1-0.1,0.1-0.2,0.2-0.2s0.2-0.1,0.3-0.2c0.1-0.1,0.2-0.1,0.3-0.2
							c0.1,0,0.2-0.1,0.3-0.1c0.2,0,0.4,0,0.7,0c0.1,0,0.2,0,0.3,0.1c0.1,0,0.2,0.1,0.3,0.2s0.2,0.1,0.2,0.2
							c0.1,0.1,0.1,0.2,0.2,0.2c0.1,0.1,0.1,0.2,0.2,0.3c0,0.1,0.1,0.2,0.1,0.3c0,0.1,0,0.2,0,0.3c0,0.4-0.2,0.9-0.5,1.2
							C110.2,10.1,109.7,10.2,109.3,10.2z"/>
					</g>
				</g>
			</g>
		</g>
	</g>
	<g id="_x30_35---Creative-Thinking_1_" transform="translate(0.000000, -1.000000)">
		<path id="Shape_37_" class="st19" d="M72.7,107.6c-0.2,0.4-0.3,0.8-0.5,1.2l-6.2,14.9l-2-2.8l-5.1-7.4l3.6-8.7
			c0.2-0.4,0.3-0.8,0.4-1.1l7.1,2.9L72.7,107.6z"/>
		<path id="Shape_36_" class="st20" d="M70,106.5c-0.1,0.3-0.3,0.6-0.4,1l-5.5,13.3l-5.1-7.4l3.6-8.7c0.2-0.4,0.3-0.8,0.4-1.1
			L70,106.5z"/>
		<path id="Shape_35_" class="st21" d="M52.9,103c-0.1,2.6-0.4,5.3-0.8,7.9l-9.2,1.5c0-0.1,0-0.3,0-0.4c-0.2-3.1-0.1-6.3,0.2-9.4
			c0-0.1,0-0.1,0-0.2v0L52.9,103z"/>
		<path id="Shape_34_" class="st22" d="M50.3,103c-0.1,2.6-0.4,5.3-0.8,7.9l-6.6,1.1c-0.2-3.1-0.1-6.3,0.2-9.4L50.3,103z"/>
		<path id="Shape_33_" class="st23" d="M28,98c-0.3,0.1-0.5,0.1-0.8,0c-3.5-0.4-6.8-8.7-6.8-8.7l0.2-6.7c0.6,0.2,0.9-0.9,1.2-2.1
			c0.3-1.1,0.6-2.1,1.2-2.3c1.2-0.3,3.5,3.7,4.3,2.8l3.2,5.9C30.7,86.9,31.9,97.1,28,98z"/>
		<path id="Shape_32_" class="st24" d="M27.2,98.1c-3.5-0.4-6.8-8.7-6.8-8.7l0.2-6.7c0.6,0.2,0.9-0.9,1.2-2.1c1.1,1,2.4,2.7,3,2.1
			l3.2,5.9C28.1,88.5,28.9,95,27.2,98.1z"/>
		<path id="Shape_31_" class="st19" d="M37.6,116.4l-2.7,8.7l-0.7-0.6l-2.4-2.1l-4.5-3.9l-6.2-26.6l-0.6-2.8c0.7,1,1.7,1.9,2.8,2.4
			c1,0.4,2.1,0.5,3.2,0.2c0.5-0.1,0.9-0.3,1.3-0.5c1.6-1,2.7-2.7,2.9-4.5L37.6,116.4z"/>
		<path id="Shape_30_" class="st20" d="M33.7,116.4l-1.9,6.1l-4.5-3.9l-6.2-26.6c0.5,0,1,0,1.4-0.1c0.3-0.1,0.5-0.1,0.8-0.2
			c1,0.4,2.1,0.5,3.2,0.2c0.5-0.1,0.9-0.3,1.3-0.5L33.7,116.4z"/>
		<path id="Shape_29_" class="st25" d="M21.9,119.4l-0.1,16.3l-3.9-1.5l-6.4-2.4L1,106.6c-0.1-0.3-0.1-0.7,0-1
			c0.1-0.3,0.4-0.6,0.7-0.7l7.9-3.3l3.1-1.3c0.7-0.3,1.4,0,1.7,0.7l1,2.4l0.5,1.2l0.5,1.2l1,2.4l0.5,1.2l0.5,1.2l1,2.4l0.5,1.2
			l0.5,1.2l1.5,3.7L21.9,119.4z"/>
		<path id="Shape_28_" class="st26" d="M18,120.7l-0.1,13.6l-6.4-2.4L1,106.6c-0.1-0.3-0.1-0.7,0-1c0.1-0.3,0.4-0.6,0.7-0.7l7.9-3.3
			c0.4,0.1,0.7,0.4,0.8,0.8l1,2.4l0.5,1.2l0.5,1.2l1,2.4l0.5,1.2l0.5,1.2l1,2.4l0.5,1.2l0.5,1.2l1.5,3.7L18,120.7z"/>
		<path id="Shape_27_" class="st27" d="M77,141c0,2.4-1,4.8-2.7,6.5c-1.7,1.7-4.1,2.7-6.5,2.7H10c-4.7,0-8.6-3.5-9.1-8.2
			c-0.5-4.7,2.6-9,7.2-10h0c0.2-0.1,0.4-0.1,0.6-0.1c0.4-0.1,0.9-0.1,1.3-0.1c0.9,0,1.8,0.1,2.6,0.4c0.1-6.7,5.1-12.4,11.8-13.4
			c0.7-0.1,1.3-0.1,2-0.1c1.8,0,3.5,0.3,5.1,1c1.1,0.4,2.2,1,3.1,1.8c2.2-5.7,7.3-9.8,13.4-10.5c0.6-0.1,1.3-0.1,1.9-0.1
			c5.2,0,10.1,2.5,13.2,6.7c3.1,4.2,4,9.6,2.5,14.6c0,0,0,0,0,0c0,0,0,0,0.1,0c0.6-0.1,1.3-0.2,2-0.2c2.4,0,4.8,1,6.5,2.7
			C76,136.2,77,138.5,77,141z"/>
		<path id="Shape_26_" class="st28" d="M73,141c0,2.4-1,4.8-2.7,6.5c-1.7,1.7-4.1,2.7-6.5,2.7H10c-4.7,0-8.6-3.5-9.1-8.2
			c-0.5-4.7,2.6-9,7.2-10h0c0.2,0.1,0.4,0.1,0.6,0.2c0-0.1,0-0.2,0-0.3c0.4-0.1,0.9-0.1,1.3-0.1c0.9,0,1.8,0.1,2.6,0.4
			c0.1-6.7,5.1-12.4,11.8-13.4c2.4,0.3,4.5-0.2,6.3,1.1c0.2-0.6,0.5,0.3,0.8-0.2c1.1,0.4,2.2,1,3.1,1.8c2.2-5.7,7.3-9.8,13.4-10.5
			c8.2,1,14.4,8,14.4,16.3c0,1.6-0.2,3.3-0.7,4.8c0.7-0.1,1.4-0.2,2-0.2c0.6,0,1.3,0.1,1.9,0.2c0,0,0,0,0.1,0
			C70,132.9,73,136.6,73,141z"/>
		<path id="Shape_25_" class="st29" d="M27.5,81c-0.8,0.9-1.9,1.6-3.1,2c-1.2,0.2-2.5,0.1-3.7-0.4l0.2-6.9c0-0.8,0.6-1.4,1.3-1.6
			c0.1,0,0.3,0,0.4,0c0.6,0,1.2,0.3,1.5,0.9L27.5,81z"/>
		<path id="Shape_24_" class="st30" d="M52.9,103c-1.2,0.1-2.4,0.1-3.6,0.1c-2.2-0.1-4.2-0.4-6.2-0.7c0.2-2.1,0.5-4.2,0.8-6.2
			c0-0.1,0-0.1,0-0.2c3,0.2,5.9,0.4,9,0.6C53.1,98.7,53.1,100.8,52.9,103z"/>
		<path id="Shape_23_" class="st31" d="M50.3,103c-0.3,0-0.7,0.1-1,0.1c-2.2-0.1-4.2-0.4-6.2-0.7c0.2-2.1,0.5-4.2,0.8-6.2
			c2.1,0.1,4.2,0.3,6.4,0.4C50.4,98.7,50.4,100.8,50.3,103z"/>
		<path id="Shape_22_" class="st32" d="M52.9,96.5l-3.8-0.2L44,96c0,0-5.3-4.8-0.5-10.1c2.9-3.2,4.5-5.7,5.1-7.9
			c0.2-0.8,0.3-1.6,0.3-2.4c0-0.3,0.1-0.5,0.4-0.6c0.2-0.1,0.5-0.1,0.7,0.1C53.3,78.4,60.6,87.2,52.9,96.5z"/>
		<path id="Shape_21_" class="st33" d="M49.1,96.3L44,96c0,0-5.3-4.8-0.5-10.1c2.9-3.2,4.5-5.7,5.1-7.9
			C51.8,82.2,54.9,89.1,49.1,96.3z"/>
		<path id="Shape_20_" class="st25" d="M76.9,100.4c0,0.2,0,0.4-0.2,0.6c-1.7,2-3,4.2-4,6.6c-0.5,0.3-1,0.6-1.5,0.7
			c-1.1,0.3-2.3,0.3-3.3,0c-0.3-0.1-0.6-0.2-1-0.3c0,0,0,0,0,0c-1.4-0.5-2.6-1.5-3.3-2.8c-0.3-0.5-0.5-1-0.6-1.5
			c1-2.4,1.6-4.9,1.9-7.5c0-0.2,0.1-0.4,0.3-0.5l6.3-3.9l1.1-0.7l1.9-1.2l0.5,2.2L76.9,100.4z"/>
		<path id="Shape_19_" class="st26" d="M73.4,100.4c0,0.2,0,0.4-0.2,0.6c-1.7,2-3,4.2-4,6.6c-0.4,0.3-0.9,0.6-1.4,0.7
			c-0.3-0.1-0.6-0.2-1-0.3c0,0,0,0,0,0c-1.4-0.5-2.6-1.5-3.3-2.8c-0.3-0.5-0.5-1-0.6-1.5c1-2.4,1.6-4.9,1.9-7.5
			c0-0.2,0.1-0.4,0.3-0.5l6.3-3.9l0.1,0.3L73.4,100.4z"/>
		<g>
			<path class="st34" d="M10,150.9c-3.7,0-7.1-2.1-8.9-5.4c-1.7-3.3-1.4-7.3,0.7-10.3c1.9-2.6,4.9-4.2,8.2-4.2c0.4,0,0.9,0,1.3,0.1
				c0,0,0,0,0.1,0c0.1,0,0.2,0,0.3-0.1c0.1-0.1,0.2-0.2,0.2-0.3c0.9-7.2,7.2-12.7,14.5-12.8c2.6,0,5.2,0.7,7.4,2
				c0.1,0,0.2,0.1,0.3,0.1c0.1,0,0.1,0,0.2,0c0.1,0,0.3-0.1,0.3-0.3c2.9-5.9,8.9-9.7,15.5-9.7c1.8,0,3.6,0.3,5.4,0.9
				c8.2,2.7,13.1,11.1,11.5,19.5c0,0.2,0,0.3,0.1,0.4c0.1,0.1,0.2,0.2,0.4,0.2c0,0,0.2,0,0.2,0c3.5,0,6.8,1.9,8.6,4.9
				c1.8,3.1,1.9,6.9,0.1,10c-1.7,3.1-5,5.1-8.6,5.1H10z M10,132.5c-4.6,0-8.4,3.8-8.4,8.4c0,4.6,3.8,8.4,8.4,8.4h57.8
				c4.6,0,8.4-3.8,8.4-8.4c0-4.6-3.8-8.4-8.4-8.4c-0.6,0-1.3,0.1-1.9,0.2c-0.1,0-0.1,0-0.2,0c-0.2,0-0.4-0.1-0.6-0.3
				c-0.2-0.2-0.3-0.5-0.2-0.8c0.5-1.5,0.7-3,0.7-4.6c0-7.6-5.4-14-12.8-15.4c-0.9-0.2-1.9-0.3-2.8-0.3c-6.5,0-12.3,4.1-14.6,10.1
				c-0.1,0.2-0.3,0.4-0.5,0.5c-0.1,0-0.1,0-0.2,0c-0.2,0-0.3-0.1-0.5-0.2c-2.2-1.7-5-2.6-7.8-2.6c-2,0-3.9,0.5-5.7,1.3
				c-4.4,2.1-7.2,6.5-7.3,11.4c0,0.2-0.1,0.5-0.3,0.6c-0.1,0.1-0.3,0.2-0.5,0.2c-0.1,0-0.2,0-0.2,0C11.6,132.7,10.8,132.5,10,132.5
				C10,132.5,10,132.5,10,132.5z"/>
			<path class="st34" d="M11.4,132.7c-0.3,0-0.6-0.2-0.7-0.5L0.2,106.9c-0.4-1.1,0.1-2.3,1.1-2.7l10.9-4.5c0.3-0.1,0.5-0.2,0.8-0.2
				c0.8,0,1.6,0.5,2,1.3l7.5,18.2c0.2,0.4,0,0.9-0.4,1.1c-0.1,0-0.2,0.1-0.3,0.1c-0.1,0-0.2,0-0.2,0c-0.2-0.1-0.3-0.2-0.4-0.4
				l-0.1-0.1l-7.5-18.2c-0.1-0.2-0.3-0.3-0.5-0.3c-0.1,0-0.1,0-0.2,0L2,105.6c-0.1,0.1-0.2,0.2-0.3,0.3c-0.1,0.1-0.1,0.3,0,0.4
				l10.5,25.3c0.1,0.2,0.1,0.5-0.1,0.7C12,132.5,11.7,132.6,11.4,132.7C11.5,132.7,11.5,132.7,11.4,132.7z"/>
			<path class="st34" d="M9.7,108c-0.4,0-0.7-0.3-0.8-0.6c-0.1-0.4,0.1-0.7,0.5-0.9l6.1-2.5c0.1,0,0.2-0.1,0.3-0.1
				c0.3,0,0.6,0.2,0.7,0.5c0.2,0.4,0,0.9-0.4,1l-6.1,2.5C10,108,9.9,108,9.7,108L9.7,108z"/>
			<path class="st34" d="M14.2,111.8c-0.4,0-0.7-0.3-0.8-0.6c-0.1-0.4,0.1-0.7,0.5-0.9l3.6-1.5c0.1,0,0.2-0.1,0.3-0.1
				c0.3,0,0.6,0.2,0.7,0.5c0.1,0.2,0.1,0.4,0,0.6c-0.1,0.2-0.2,0.3-0.4,0.4l-3.6,1.5C14.4,111.8,14.3,111.8,14.2,111.8L14.2,111.8z"
				/>
			<path class="st34" d="M13.8,117.7c-0.4,0-0.7-0.3-0.8-0.6c-0.1-0.4,0.1-0.7,0.5-0.9l6.1-2.5c0.1,0,0.2-0.1,0.3-0.1
				c0.3,0,0.6,0.2,0.7,0.5c0.1,0.2,0.1,0.4,0,0.6c-0.1,0.2-0.2,0.3-0.4,0.4l-6.1,2.5C14,117.7,13.9,117.7,13.8,117.7L13.8,117.7z"/>
			<path class="st34" d="M27.4,119.4c-0.4,0-0.7-0.3-0.8-0.6l-6.9-29.3c-0.1-0.4,0.2-0.8,0.6-0.9c0.1,0,0.1,0,0.2,0
				c0.4,0,0.7,0.2,0.8,0.6l6.9,29.3c0.1,0.2,0,0.5-0.2,0.7C27.8,119.3,27.6,119.4,27.4,119.4L27.4,119.4z"/>
			<path class="st34" d="M37.6,117.2c-0.4,0-0.7-0.3-0.8-0.6l-6.9-29.5c-0.1-0.3,0-0.6,0.2-0.8c0.1-0.1,0.3-0.2,0.5-0.2
				c0.1,0,0.2,0,0.2,0c0.3,0.1,0.5,0.3,0.5,0.6l6.9,29.5c0.1,0.4-0.2,0.8-0.6,0.9C37.7,117.2,37.7,117.2,37.6,117.2z"/>
			<path class="st34" d="M25.2,92.9c-2.2-0.1-4.2-1.3-5.4-3.2c-0.1-0.1-0.1-0.3-0.1-0.4l0.5-13.6c0-1.1,0.8-2.1,1.9-2.4
				c0.2,0,0.4-0.1,0.6-0.1c0.9,0,1.8,0.5,2.2,1.3l6.5,12c0.1,0.1,0.1,0.3,0.1,0.4c0,0.2-0.5,4.7-4.8,5.7
				C26.2,92.8,25.7,92.9,25.2,92.9z M22.7,74.8c-0.1,0-0.1,0-0.2,0c-0.4,0.1-0.7,0.5-0.7,0.9l-0.5,13.2c0,0.1,0,0.2,0.1,0.3
				c0.9,1.3,2.4,2.1,4,2.1l0,0c0.3,0,0.6,0,0.9-0.1c1.9-0.5,3.3-2.1,3.6-4c0-0.1,0-0.2-0.1-0.3l-6.3-11.6C23.4,75,23,74.8,22.7,74.8
				z"/>
			<path class="st34" d="M69.6,109.3c-1,0-2.1-0.2-3-0.6c-2.3-0.8-4-2.8-4.3-5.2c0-0.3,0.1-0.5,0.3-0.7c0.1-0.1,0.3-0.1,0.4-0.1
				c0.1,0,0.2,0,0.4,0.1c0.3,0.1,0.4,0.4,0.4,0.7c0,0,0,0.1,0,0.1c0.4,1.7,1.7,3.1,3.4,3.7c0.7,0.4,1.5,0.6,2.3,0.6
				c1,0,1.9-0.3,2.7-0.8c0,0,0,0,0,0c0.1-0.1,0.3-0.2,0.5-0.2c0.2,0,0.5,0.1,0.6,0.3c0.3,0.3,0.2,0.8-0.1,1.1
				c-1,0.8-2.3,1.2-3.5,1.2L69.6,109.3z"/>
			<path class="st34" d="M23.4,83.9c-1,0-2-0.2-2.9-0.6c-0.2-0.1-0.4-0.2-0.5-0.4c-0.1-0.2-0.1-0.4,0-0.6c0.1-0.3,0.4-0.5,0.7-0.5
				c0.1,0,0.2,0,0.3,0c0.7,0.3,1.5,0.5,2.3,0.5c0.3,0,0.6,0,0.9-0.1c0,0,0.1,0,0.1,0c1-0.3,2-0.9,2.7-1.8c0.1-0.1,0.3-0.2,0.5-0.2
				c0.2,0,0.4,0.1,0.5,0.2c0.2,0.1,0.2,0.3,0.2,0.6c0,0.2-0.1,0.4-0.2,0.6c-0.9,1.1-2.2,1.8-3.5,2.2C24.2,83.9,23.8,83.9,23.4,83.9
				L23.4,83.9z"/>
			<path class="st34" d="M33,120.7c-0.4,0-0.7-0.3-0.8-0.6l-3.8-16.4c-0.1-0.4,0.2-0.8,0.6-0.9c0.1,0,0.1,0,0.2,0
				c0.4,0,0.7,0.2,0.8,0.6l3.8,16.4c0.1,0.2,0,0.5-0.1,0.7C33.5,120.6,33.3,120.7,33,120.7L33,120.7z"/>
			<path class="st34" d="M27.7,97.8c-0.4,0-0.7-0.3-0.8-0.6l-1.2-5.1c0-0.2,0-0.4,0.1-0.6c0.1-0.2,0.3-0.3,0.5-0.4
				c0.1,0,0.1,0,0.2,0c0.4,0,0.7,0.3,0.8,0.6l1.2,5.1c0.1,0.2,0,0.5-0.1,0.7C28.2,97.7,27.9,97.8,27.7,97.8L27.7,97.8z"/>
			<path class="st34" d="M58.9,114.2c-0.3,0-0.5-0.1-0.7-0.3c-0.1-0.2-0.2-0.5-0.1-0.7l3.6-8.7c0.1-0.3,0.3-0.5,0.6-0.5
				c0,0,0.1,0,0.1,0c0.2,0,0.5,0.1,0.6,0.3c0.2,0.2,0.2,0.5,0.1,0.8l-3.6,8.7C59.5,114,59.3,114.2,58.9,114.2L58.9,114.2z"/>
			<path class="st34" d="M66.1,124.4c-0.3,0-0.5-0.1-0.7-0.4c-0.1-0.2-0.2-0.5-0.1-0.7l6.2-14.9c0.1-0.3,0.3-0.5,0.6-0.5
				c0,0,0.1,0,0.1,0c0.2,0,0.5,0.1,0.6,0.3c0.2,0.2,0.2,0.5,0.1,0.8l-6.2,14.9C66.7,124.2,66.4,124.4,66.1,124.4L66.1,124.4z"/>
			<path class="st34" d="M72.2,109.5c-0.1,0-0.2,0-0.3-0.1c-0.2-0.1-0.3-0.2-0.4-0.4c-0.1-0.2-0.1-0.4,0-0.6
				c1.1-2.8,2.5-5.4,4.4-7.8c0.1-0.1,0.1-0.3,0.1-0.4l-1.5-6.3c-0.1-0.2-0.2-0.4-0.5-0.4c0,0,0,0,0,0c-0.2,0-0.4,0.1-0.5,0.3l-2,4.7
				c-0.1,0.3-0.4,0.5-0.7,0.5c-0.1,0-0.2,0-0.3-0.1c-0.4-0.2-0.6-0.6-0.4-1l3.5-8.5c0.1-0.3,0.4-0.5,0.7-0.5c0,0,0,0,0.1,0
				c0.3,0,0.6,0.3,0.7,0.6l2.5,10.7c0.1,0.5,0,1-0.4,1.3c-1.9,2.3-3.3,4.8-4.3,7.5C72.8,109.3,72.5,109.5,72.2,109.5z"/>
			<path class="st34" d="M62.5,105.5c-0.1,0-0.2,0-0.3-0.1c-0.2-0.1-0.3-0.2-0.4-0.4c-0.1-0.2-0.1-0.4,0-0.6c1.2-2.6,2-5.4,2.2-8.3
				c0-0.5,0.3-1,0.7-1.2l9.3-5.8c0.1-0.1,0.3-0.1,0.4-0.1c0.2,0,0.4,0.1,0.5,0.2c0.3,0.2,0.3,0.6,0.2,0.9l-3.5,8.5
				c-0.1,0.3-0.4,0.5-0.7,0.5c-0.1,0-0.2,0-0.3-0.1c-0.4-0.2-0.6-0.6-0.4-1l1.9-4.7c0.1-0.2,0-0.5-0.1-0.6c-0.1-0.1-0.2-0.1-0.3-0.1
				c-0.1,0-0.2,0-0.3,0.1L65.8,96c-0.1,0.1-0.2,0.2-0.2,0.4c-0.3,3-1.1,5.9-2.3,8.6C63.1,105.3,62.8,105.5,62.5,105.5L62.5,105.5z"
				/>
			<path class="st34" d="M43,113.1c-0.4,0-0.8-0.3-0.8-0.7c-0.2-3.4-0.1-6.7,0.2-10.1c0.2-2.1,0.5-4.2,0.8-6.4
				c0.1-0.4,0.4-0.7,0.8-0.7l0.1,0c3,0.2,5.9,0.4,9,0.5c0.4,0,0.7,0.3,0.7,0.7c0.2,4.8-0.1,9.7-0.8,14.5c0,0.3-0.2,0.5-0.5,0.6
				c-0.1,0-0.2,0.1-0.3,0.1c-0.2,0-0.4-0.1-0.5-0.2c-0.2-0.2-0.3-0.5-0.3-0.7c0.7-4.3,1-8.6,0.9-13c0-0.3-0.2-0.5-0.5-0.5
				c0,0-6.6-0.4-6.6-0.4c-0.3,0-0.5,0.2-0.5,0.4c-0.3,1.9-0.5,3.6-0.6,5.1c-0.3,3.3-0.4,6.6-0.2,9.8c0,0.2-0.1,0.4-0.2,0.6
				C43.4,113,43.2,113.1,43,113.1L43,113.1z"/>
			<path class="st34" d="M52.9,97.3c-0.3,0-0.6-0.2-0.7-0.5c-0.1-0.3-0.1-0.6,0.1-0.8c2.3-2.5,3.5-6,3.2-9.5
				c-0.6-3.7-2.3-7.1-4.9-9.7c-0.1-0.1-0.2-0.2-0.4-0.2c-0.1,0-0.1,0-0.2,0c-0.2,0.1-0.3,0.2-0.4,0.4c-0.4,2.6-2.1,5.5-5.6,9.3
				c-1.2,1.2-1.8,2.9-1.7,4.6c0.1,1.7,0.9,3.3,2.2,4.4c0.1,0.1,0.2,0.3,0.2,0.5s-0.1,0.4-0.2,0.6c-0.2,0.2-0.4,0.3-0.6,0.3
				c-0.2,0-0.4-0.1-0.5-0.2c-1-0.9-1.7-2.1-2.2-3.4c-1.1-2.7-0.4-5.8,1.7-7.8c5.2-5.7,5.8-8.5,5-11.2c-0.1-0.3,0-0.7,0.3-0.9
				c0.1-0.1,0.3-0.1,0.4-0.1c0.2,0,0.4,0.1,0.5,0.2c0.3,0.2,7,5.6,7.8,13.1c0.4,3.9-0.9,7.7-3.5,10.6C53.3,97.2,53.1,97.3,52.9,97.3
				L52.9,97.3z"/>
			<path class="st34" d="M50.3,92.8c-0.3,0-0.6-0.2-0.7-0.4c-0.1-0.3-0.1-0.6,0.1-0.8c1.2-1.7,1.7-3.8,1.4-5.9c0,0,0,0,0-0.1
				c-0.1-0.3,0-0.6,0.2-0.8c0.1-0.1,0.4-0.2,0.6-0.2c0.1,0,0.1,0,0.2,0c0.3,0.1,0.5,0.3,0.6,0.6c0.5,2.5-0.1,5.2-1.7,7.3
				C50.8,92.6,50.5,92.8,50.3,92.8z"/>
			<path class="st34" d="M49.9,103.8c-1.7,0-3.4-0.2-5-0.4l-0.2,0c-0.4-0.1-0.8-0.1-1.1-0.1c-0.4-0.1-0.7-0.4-0.7-0.9
				c0-0.4,0.4-0.7,0.8-0.7c0,0,0.1,0,0.1,0c0.4,0.1,0.9,0.1,1.3,0.2c1.5,0.3,3.1,0.4,4.7,0.4c0.7,0,1.5,0,2.2-0.1l0.1,0
				c0.4,0,0.7,0.3,0.8,0.7c0,0.4-0.3,0.8-0.7,0.9C51.4,103.7,50.6,103.8,49.9,103.8L49.9,103.8z"/>
			<path class="st34" d="M33.3,141.7c-0.3,0-0.6-0.2-0.7-0.5c-0.4-0.9-0.6-1.9-0.6-2.9c0-3.5,2.4-6.4,5.7-7.2
				c0.5-0.1,1.1-0.2,1.6-0.2c2.8,0,5.4,1.7,6.7,4.2c0.2,0.4,0,0.9-0.4,1c-0.1,0.1-0.2,0.1-0.3,0.1c-0.3,0-0.6-0.2-0.7-0.5
				c-0.9-2-3-3.3-5.2-3.3c-3.2,0-5.8,2.6-5.8,5.8c0,0.8,0.2,1.6,0.5,2.3c0.1,0.2,0.1,0.4,0,0.6c-0.1,0.2-0.2,0.3-0.4,0.4
				C33.5,141.7,33.4,141.7,33.3,141.7L33.3,141.7z"/>
			<path class="st34" d="M53.3,138.2c-0.3,0-0.6-0.2-0.7-0.5c-0.7-1.6-2.3-2.6-4-2.6c-1,0-2,0.3-2.8,1c-0.1,0.1-0.3,0.2-0.5,0.2
				c-0.2,0-0.5-0.1-0.6-0.3c-0.1-0.2-0.2-0.4-0.2-0.6c0-0.2,0.1-0.4,0.3-0.5c1.1-0.8,2.4-1.3,3.7-1.3c2.4,0,4.5,1.4,5.5,3.5
				c0.1,0.2,0.1,0.5-0.1,0.8C53.8,138.1,53.6,138.2,53.3,138.2z"/>
			<path class="st34" d="M19.2,131.2c-0.4,0-0.8-0.4-0.8-0.8c0-4.5,4.4-6,4.5-6c0.1,0,0.2,0,0.3,0c0.3,0,0.6,0.2,0.7,0.5
				c0.1,0.2,0.1,0.4,0,0.6c-0.1,0.2-0.3,0.3-0.5,0.4c-1.9,0.7-3.3,2.4-3.4,4.5C20,130.9,19.6,131.2,19.2,131.2z"/>
			<path class="st34" d="M41.5,122c-0.1,0-0.1,0-0.2,0c-0.4-0.1-0.7-0.5-0.6-1c0.8-3.4,3.8-5.8,7.3-5.8c0.4,0,0.8,0.4,0.8,0.8
				c0,0.4-0.4,0.8-0.8,0.8c-2.8,0.1-5.1,2-5.8,4.7C42.2,121.8,41.9,122,41.5,122L41.5,122z"/>
		</g>
	</g>
</g>
</svg>
