<svg width="975" height="328" viewBox="0 0 975 328" fill="none" xmlns="http://www.w3.org/2000/svg">
<path d="M92.3425 283.715C88.6943 283.721 85.1094 282.762 81.9509 280.936L14.5723 242.037C12.1984 240.671 10.1169 238.851 8.44714 236.68C6.77735 234.508 5.55194 232.029 4.84099 229.384C4.13005 226.739 3.94751 223.98 4.30383 221.264C4.66015 218.549 5.54834 215.93 6.91759 213.558L69.4338 105.28C76.9887 92.2013 89.4286 82.659 104.018 78.7512C118.607 74.8433 134.151 76.8899 147.232 84.4409L152.052 87.2194C165.131 94.7743 174.673 107.214 178.581 121.803C182.489 136.393 180.442 151.937 172.891 165.017L110.375 273.295C108.54 276.455 105.91 279.079 102.746 280.906C99.5828 282.734 95.9961 283.702 92.3425 283.715Z" fill="#D8EBFB"/>
<path d="M118.835 80.9539C128.105 80.9472 137.211 83.3915 145.231 88.0391L150.052 90.8176C156.056 94.2838 161.319 98.8987 165.539 104.399C169.76 109.899 172.856 116.177 174.65 122.873C176.445 129.57 176.903 136.554 175.998 143.428C175.093 150.301 172.843 156.929 169.376 162.933L106.86 271.212C105.395 273.749 103.287 275.856 100.748 277.32C98.2085 278.783 95.3286 279.551 92.3981 279.547C89.47 279.557 86.5925 278.785 84.0626 277.31L16.684 238.411C12.8564 236.2 10.0636 232.559 8.91994 228.289C7.77625 224.019 8.37525 219.47 10.5852 215.642L73.1014 107.364C77.7385 99.3319 84.4096 92.6635 92.4431 88.0297C100.477 83.3959 109.589 80.9602 118.863 80.9678L118.835 80.9539ZM118.863 72.6323C108.13 72.6476 97.5881 75.4781 88.2905 80.8412C78.9929 86.2042 71.2647 93.9123 65.8773 103.196L3.36111 211.474C0.0410756 217.213 -0.863941 224.035 0.845047 230.442C2.55403 236.848 6.73712 242.313 12.4746 245.635L79.8532 284.534C85.596 287.847 92.419 288.743 98.8223 287.026C105.226 285.309 110.685 281.12 114.001 275.379L176.517 167.101C184.624 153.066 186.824 136.386 182.635 120.729C178.446 105.072 168.21 91.7191 154.178 83.6074L149.357 80.8289C140.07 75.4492 129.527 72.6169 118.794 72.6184L118.863 72.6323Z" fill="#515979"/>
<path d="M52.7628 164.656L22.894 216.392C22.1639 217.656 21.6901 219.052 21.4996 220.499C21.309 221.946 21.4055 223.417 21.7835 224.827C22.1615 226.237 22.8136 227.559 23.7026 228.717C24.5916 229.875 25.6999 230.847 26.9645 231.576L84.7155 264.918C85.9839 265.664 87.3875 266.15 88.8451 266.348C90.3027 266.547 91.7853 266.454 93.2068 266.076C94.6284 265.697 95.9606 265.04 97.1262 264.143C98.2919 263.245 99.2677 262.125 99.9973 260.848L129.866 209.112C114.571 176.242 68.0446 197.526 52.7628 164.656Z" fill="white"/>
<g style="mix-blend-mode:soft-light" opacity="0.8">
<g style="mix-blend-mode:soft-light" opacity="0.8">
<path d="M150.01 90.8176L145.19 88.0391C137.893 83.8203 129.691 81.4129 121.271 81.0189C112.852 80.6249 104.461 82.2557 96.802 85.7746L176.142 131.62C175.368 123.224 172.591 115.137 168.044 108.037C163.497 100.937 157.313 95.032 150.01 90.8176Z" fill="black"/>
</g>
</g>
<path d="M187.159 8.33784C189.953 8.2835 192.684 9.16664 194.917 10.8463C197.151 12.526 198.757 14.9053 199.48 17.6046C200.202 20.3039 200 23.1676 198.905 25.7385C197.81 28.3093 195.885 30.4393 193.438 31.7884C169.585 46.5422 198.37 66.1167 189.465 81.5235L133.492 49.2096C142.217 34.0945 173.78 48.9317 174.586 20.9105C174.578 18.7051 175.158 16.5374 176.267 14.6311C177.365 12.7133 178.951 11.1205 180.864 10.015C182.777 8.90955 184.949 8.33084 187.159 8.33784ZM187.159 0.00234516C181.668 -0.0164459 176.391 2.13277 172.476 5.98286C168.561 9.83294 166.324 15.0727 166.251 20.5632V20.6466C165.973 29.7323 162.347 30.7048 150.969 32.4413C142.481 33.7333 131.908 35.331 126.296 45.0418C125.748 45.9903 125.392 47.0376 125.249 48.1236C125.106 49.2096 125.179 50.3132 125.463 51.3712C125.747 52.4292 126.236 53.4209 126.904 54.2895C127.571 55.1582 128.403 55.8868 129.352 56.4336L185.297 88.7476C186.566 89.4743 188.003 89.8574 189.465 89.859C190.929 89.8599 192.368 89.4752 193.636 88.7436C194.904 88.0119 195.957 86.9592 196.689 85.6912C202.399 75.8137 198.453 65.8111 195.3 57.7673C190.785 46.306 190.507 43.4164 197.842 38.8735H197.912C201.903 36.5629 205.015 32.9934 206.76 28.7244C208.506 24.4553 208.785 19.7279 207.556 15.2829C206.326 10.8378 203.657 6.9262 199.966 4.16099C196.274 1.39578 191.77 -0.0668232 187.159 0.00234516Z" fill="#515979"/>
<path d="M187.798 122.59C186.334 122.587 184.896 122.199 183.63 121.464L101.817 74.2299C99.9064 73.1232 98.5129 71.3035 97.9425 69.1703C97.372 67.0371 97.6714 64.7647 98.7747 62.852L111.278 41.1936C112.009 39.9277 113.06 38.8762 114.325 38.1447C115.591 37.4132 117.026 37.0273 118.488 37.0258C119.95 37.0287 121.386 37.4117 122.656 38.1372L204.469 85.3717C205.418 85.9186 206.25 86.6471 206.917 87.5158C207.585 88.3844 208.074 89.3761 208.358 90.4341C208.642 91.4921 208.715 92.5957 208.572 93.6817C208.429 94.7678 208.073 95.815 207.525 96.7635L195.022 118.422C194.29 119.69 193.237 120.743 191.969 121.474C190.7 122.206 189.262 122.591 187.798 122.59Z" fill="#F89D81"/>
<path d="M118.488 41.1936C119.22 41.1927 119.938 41.3844 120.572 41.7493L202.385 88.9837C202.86 89.2572 203.276 89.6215 203.609 90.0558C203.943 90.4901 204.188 90.9859 204.33 91.5149C204.472 92.0439 204.508 92.5957 204.436 93.1387C204.365 93.6818 204.187 94.2054 203.913 94.6796L191.41 116.338C191.136 116.813 190.772 117.229 190.338 117.562C189.903 117.896 189.408 118.141 188.879 118.283C188.35 118.425 187.798 118.461 187.255 118.389C186.712 118.318 186.188 118.14 185.714 117.866L103.901 70.6317C103.426 70.3583 103.01 69.994 102.677 69.5597C102.343 69.1254 102.098 68.6295 101.956 68.1005C101.814 67.5715 101.778 67.0197 101.85 66.4767C101.921 65.9337 102.099 65.4101 102.373 64.9358L114.876 43.2774C115.242 42.6435 115.769 42.1171 116.403 41.7513C117.037 41.3854 117.756 41.1931 118.488 41.1936ZM118.488 32.8581C116.294 32.8591 114.14 33.4373 112.24 34.5346C110.34 35.632 108.763 37.2098 107.666 39.1097L95.1627 60.7681C93.5192 63.6349 93.0774 67.0357 93.9339 70.2272C94.7903 73.4187 96.8754 76.1415 99.7333 77.8003L181.546 125.035C184.413 126.699 187.823 127.157 191.028 126.308C194.232 125.459 196.968 123.372 198.634 120.506L211.137 98.8474C211.959 97.4246 212.493 95.8538 212.707 94.2247C212.921 92.5956 212.812 90.9403 212.387 89.3533C211.961 87.7663 211.227 86.2788 210.225 84.9758C209.224 83.6728 207.976 82.5799 206.553 81.7596L124.74 34.5252C122.836 33.4366 120.681 32.8621 118.488 32.8581Z" fill="#515979"/>
<path d="M148.968 89.8034C148.481 89.8029 148.002 89.6742 147.58 89.4301C147.158 89.1861 146.808 88.8353 146.564 88.413C146.321 87.9907 146.193 87.5117 146.193 87.0242C146.193 86.5367 146.321 86.0579 146.565 85.6357L154.9 71.2014C155.083 70.8849 155.326 70.6074 155.616 70.3847C155.905 70.1621 156.236 69.9987 156.589 69.9039C156.942 69.8091 157.31 69.7847 157.672 69.8321C158.034 69.8795 158.383 69.9979 158.7 70.1803C159.017 70.3627 159.294 70.6057 159.517 70.8954C159.739 71.1851 159.903 71.5158 159.997 71.8686C160.092 72.2214 160.117 72.5895 160.069 72.9517C160.022 73.314 159.904 73.6634 159.721 73.9799L151.386 88.4142C151.141 88.8382 150.788 89.19 150.364 89.434C149.939 89.6779 149.458 89.8054 148.968 89.8034Z" fill="#EF7D7D"/>
<path d="M164.611 98.8336C164.123 98.8327 163.644 98.7033 163.222 98.4585C162.905 98.277 162.628 98.0349 162.405 97.746C162.182 97.4572 162.018 97.1272 161.922 96.7751C161.827 96.4229 161.802 96.0553 161.848 95.6934C161.895 95.3315 162.012 94.9823 162.194 94.6658L170.529 80.2315C170.898 79.5923 171.505 79.1255 172.218 78.934C172.93 78.7426 173.69 78.842 174.329 79.2104C174.968 79.5789 175.435 80.1862 175.627 80.8987C175.818 81.6113 175.719 82.3708 175.35 83.01L167.015 97.4443C166.771 97.8663 166.421 98.2168 165.999 98.4606C165.577 98.7044 165.099 98.8331 164.611 98.8336Z" fill="#EF7D7D"/>
<path d="M180.254 107.864C179.766 107.863 179.287 107.733 178.865 107.489C178.228 107.12 177.764 106.513 177.573 105.802C177.383 105.091 177.483 104.334 177.851 103.696L186.186 89.2616C186.555 88.6224 187.162 88.1557 187.875 87.9642C188.587 87.7727 189.347 87.8721 189.986 88.2405C190.625 88.609 191.092 89.2163 191.283 89.9289C191.475 90.6414 191.375 91.4009 191.007 92.0401L182.671 106.474C182.427 106.898 182.074 107.25 181.65 107.494C181.225 107.738 180.744 107.866 180.254 107.864Z" fill="#EF7D7D"/>
<path d="M117.696 71.7432C117.209 71.7427 116.73 71.6139 116.308 71.3699C115.886 71.1258 115.536 70.775 115.292 70.3527C115.049 69.9304 114.921 69.4515 114.921 68.964C114.921 68.4765 115.049 67.9976 115.293 67.5754L123.628 53.1411C123.802 52.8091 124.041 52.5156 124.331 52.2784C124.621 52.0411 124.956 51.865 125.316 51.7606C125.676 51.6562 126.053 51.6256 126.425 51.6708C126.797 51.716 127.156 51.836 127.481 52.0235C127.805 52.211 128.088 52.4623 128.313 52.7621C128.538 53.0619 128.7 53.404 128.789 53.768C128.878 54.132 128.893 54.5102 128.832 54.88C128.771 55.2498 128.636 55.6034 128.435 55.9196L120.1 70.3539C119.856 70.7759 119.506 71.1264 119.084 71.3702C118.662 71.6141 118.184 71.7427 117.696 71.7432Z" fill="#EF7D7D"/>
<path d="M133.339 80.7733C132.852 80.7728 132.373 80.6441 131.951 80.4C131.529 80.1559 131.179 79.8051 130.935 79.3828C130.692 78.9605 130.564 78.4816 130.564 77.9941C130.564 77.5066 130.692 77.0277 130.936 76.6056L139.271 62.1713C139.656 61.5665 140.259 61.1336 140.955 60.9631C141.651 60.7927 142.386 60.8977 143.007 61.2563C143.627 61.615 144.085 62.1995 144.285 62.8877C144.484 63.576 144.41 64.3148 144.078 64.9498L135.743 79.3841C135.499 79.806 135.149 80.1565 134.727 80.4004C134.305 80.6442 133.827 80.7728 133.339 80.7733Z" fill="#EF7D7D"/>
<path d="M109.472 174.867C106.06 174.864 102.708 173.962 99.7542 172.254C96.8003 170.545 94.3478 168.09 92.6431 165.134C90.9385 162.178 90.0415 158.825 90.0424 155.413C90.0433 152 90.9419 148.648 92.6481 145.693C93.0157 145.057 93.62 144.592 94.3291 144.401C94.5641 144.335 94.8074 144.302 95.0515 144.304C95.5395 144.305 96.0187 144.434 96.4408 144.679L125.323 161.35C125.96 161.719 126.425 162.325 126.615 163.036C126.805 163.747 126.705 164.505 126.337 165.142C124.623 168.098 122.163 170.551 119.204 172.258C116.244 173.964 112.888 174.864 109.472 174.867Z" fill="#515979"/>
<path d="M95.0516 147.082L123.934 163.753C122.839 165.65 121.382 167.312 119.645 168.645C117.908 169.978 115.925 170.956 113.81 171.523C111.695 172.09 109.489 172.235 107.318 171.949C105.147 171.664 103.054 170.954 101.157 169.859C99.2609 168.764 97.5986 167.307 96.2654 165.57C94.9322 163.833 93.9542 161.85 93.3872 159.735C92.2422 155.464 92.8408 150.912 95.0516 147.082ZM95.0516 141.525C94.0747 141.524 93.1147 141.78 92.2684 142.268C91.4221 142.755 90.7193 143.458 90.2309 144.304C88.2809 147.681 87.2539 151.512 87.2529 155.412C87.2519 159.312 88.2769 163.143 90.2252 166.522C92.1734 169.9 94.9762 172.707 98.3521 174.659C101.728 176.612 105.558 177.642 109.458 177.646C113.361 177.641 117.195 176.611 120.576 174.661C123.958 172.711 126.768 169.908 128.727 166.532C129.451 165.269 129.65 163.772 129.283 162.364C128.903 160.941 127.973 159.726 126.699 158.988L97.8162 142.317C96.9706 141.832 96.0124 141.578 95.0377 141.581L95.0516 141.525Z" fill="#515979"/>
<path d="M114.685 171.255C116.22 168.598 112.653 163.666 106.72 160.24C100.786 156.814 94.7317 156.192 93.1972 158.849C91.6627 161.507 95.2289 166.439 101.163 169.865C107.096 173.291 113.15 173.913 114.685 171.255Z" fill="#EF7D7D"/>
<path d="M138.66 127.674C139.217 127.592 139.778 127.546 140.341 127.535C140.861 127.535 141.38 127.563 141.897 127.619C142.935 127.74 143.959 127.963 144.953 128.286C147.038 128.987 148.938 130.151 150.51 131.689C152.1 133.234 153.291 135.141 153.984 137.246C154.319 138.242 154.543 139.271 154.65 140.316C154.718 141.327 154.681 142.342 154.539 143.345C154.498 143.716 154.383 144.076 154.2 144.401C154.017 144.727 153.771 145.013 153.475 145.241C153.179 145.469 152.841 145.635 152.479 145.73C152.118 145.824 151.741 145.845 151.372 145.79C150.99 145.741 150.622 145.614 150.292 145.415C149.962 145.217 149.677 144.952 149.455 144.637L149.038 144.067C148.565 143.415 148.288 142.678 147.926 142.136C147.565 141.595 147.26 140.942 146.871 140.455C146.227 139.455 145.482 138.524 144.648 137.677C143.81 136.807 142.878 136.034 141.869 135.371C141.327 135.023 140.772 134.648 140.16 134.315C139.549 133.982 138.855 133.648 138.438 133.301L137.424 132.495C137.01 132.165 136.704 131.719 136.545 131.214C136.385 130.709 136.38 130.168 136.529 129.66C136.678 129.152 136.974 128.7 137.381 128.361C137.788 128.022 138.286 127.812 138.813 127.758L138.66 127.674Z" fill="#515979"/>
<path d="M114.293 119.353C113.793 119.144 113.14 118.658 112.556 118.352C111.973 118.047 111.361 117.7 110.792 117.408C109.702 116.855 108.557 116.422 107.374 116.116C106.219 115.821 105.037 115.644 103.846 115.588C103.22 115.505 102.554 115.588 101.859 115.588C101.164 115.588 100.47 115.671 99.6222 115.588H98.9415C98.3632 115.552 97.8107 115.336 97.3613 114.97C96.9118 114.605 96.5879 114.108 96.4348 113.549C96.2817 112.99 96.3071 112.398 96.5075 111.854C96.7078 111.31 97.0731 110.843 97.5522 110.517C98.3518 109.898 99.2131 109.362 100.122 108.919C103.109 107.579 106.472 107.328 109.625 108.211C111.704 108.755 113.636 109.757 115.279 111.142C116.061 111.835 116.769 112.608 117.391 113.448C117.705 113.892 117.988 114.356 118.238 114.838C118.505 115.334 118.747 115.844 118.961 116.366C119.165 116.848 119.223 117.38 119.127 117.895C119.031 118.41 118.785 118.886 118.421 119.262C118.056 119.639 117.589 119.899 117.077 120.012C116.565 120.124 116.032 120.083 115.543 119.895L114.293 119.353Z" fill="#515979"/>
<path d="M107.68 139.872C107.069 139.873 106.469 139.71 105.943 139.4C105.547 139.172 105.199 138.869 104.92 138.506C104.641 138.144 104.437 137.731 104.318 137.289C104.199 136.848 104.169 136.387 104.228 135.934C104.288 135.481 104.436 135.044 104.665 134.648C104.904 134.252 105.059 133.81 105.118 133.351C105.178 132.892 105.142 132.425 105.012 131.981C104.9 131.539 104.699 131.124 104.422 130.761C104.145 130.398 103.798 130.095 103.401 129.869C102.603 129.41 101.655 129.285 100.765 129.522C99.8744 129.758 99.1141 130.338 98.6497 131.134C98.4233 131.532 98.1204 131.881 97.7584 132.162C97.3964 132.442 96.9825 132.649 96.5405 132.769C96.0984 132.889 95.637 132.92 95.1828 132.861C94.7286 132.802 94.2905 132.654 93.8939 132.425C93.4972 132.196 93.1498 131.89 92.8715 131.527C92.5933 131.163 92.3898 130.747 92.2727 130.305C92.1556 129.862 92.1273 129.4 92.1894 128.946C92.2514 128.493 92.4026 128.056 92.6343 127.66C93.6647 125.876 95.2013 124.436 97.0497 123.525C98.8981 122.614 100.975 122.271 103.019 122.54C105.062 122.809 106.979 123.678 108.529 125.037C110.078 126.396 111.189 128.184 111.723 130.175C112.084 131.496 112.178 132.875 111.999 134.232C111.82 135.59 111.372 136.898 110.681 138.08C110.386 138.619 109.952 139.07 109.424 139.385C108.897 139.7 108.294 139.868 107.68 139.872Z" fill="#515979"/>
<path d="M138.896 157.891C138.291 157.895 137.696 157.736 137.174 157.432C136.777 157.205 136.429 156.901 136.151 156.539C135.872 156.177 135.667 155.763 135.548 155.322C135.429 154.88 135.399 154.42 135.459 153.967C135.518 153.514 135.667 153.077 135.895 152.681C136.354 151.885 136.479 150.939 136.242 150.051C136.005 149.163 135.426 148.405 134.631 147.944C133.833 147.484 132.885 147.359 131.995 147.596C131.105 147.833 130.344 148.412 129.88 149.208C129.654 149.606 129.351 149.955 128.989 150.236C128.627 150.517 128.213 150.723 127.771 150.843C127.329 150.963 126.867 150.994 126.413 150.935C125.959 150.876 125.521 150.728 125.124 150.499C124.728 150.27 124.38 149.965 124.102 149.601C123.824 149.237 123.62 148.822 123.503 148.379C123.386 147.936 123.358 147.474 123.42 147.021C123.482 146.567 123.633 146.13 123.865 145.735C125.246 143.34 127.523 141.592 130.193 140.875C132.864 140.159 135.709 140.532 138.104 141.914C140.499 143.296 142.247 145.572 142.964 148.243C143.68 150.913 143.307 153.759 141.925 156.154C141.618 156.685 141.177 157.125 140.645 157.43C140.113 157.735 139.509 157.894 138.896 157.891Z" fill="#515979"/>
<g style="mix-blend-mode:overlay">
<g style="mix-blend-mode:overlay">
<path d="M137.563 176.256C139.097 176.256 140.341 175.012 140.341 173.478C140.341 171.943 139.097 170.699 137.563 170.699C136.028 170.699 134.784 171.943 134.784 173.478C134.784 175.012 136.028 176.256 137.563 176.256Z" fill="black"/>
</g>
</g>
<g style="mix-blend-mode:overlay">
<g style="mix-blend-mode:overlay">
<path d="M147.19 181.813C148.725 181.813 149.969 180.569 149.969 179.035C149.969 177.5 148.725 176.256 147.19 176.256C145.656 176.256 144.412 177.5 144.412 179.035C144.412 180.569 145.656 181.813 147.19 181.813Z" fill="black"/>
</g>
</g>
<g style="mix-blend-mode:overlay">
<g style="mix-blend-mode:overlay">
<path d="M147.94 169.407C149.475 169.407 150.719 168.163 150.719 166.629C150.719 165.094 149.475 163.85 147.94 163.85C146.406 163.85 145.162 165.094 145.162 166.629C145.162 168.163 146.406 169.407 147.94 169.407Z" fill="black"/>
</g>
</g>
<g style="mix-blend-mode:overlay">
<g style="mix-blend-mode:overlay">
<path d="M70.184 137.357C71.7185 137.357 72.9625 136.113 72.9625 134.579C72.9625 133.044 71.7185 131.8 70.184 131.8C68.6495 131.8 67.4055 133.044 67.4055 134.579C67.4055 136.113 68.6495 137.357 70.184 137.357Z" fill="black"/>
</g>
</g>
<g style="mix-blend-mode:overlay">
<g style="mix-blend-mode:overlay">
<path d="M79.8115 142.914C81.346 142.914 82.59 141.67 82.59 140.136C82.59 138.601 81.346 137.357 79.8115 137.357C78.277 137.357 77.033 138.601 77.033 140.136C77.033 141.67 78.277 142.914 79.8115 142.914Z" fill="black"/>
</g>
</g>
<g style="mix-blend-mode:overlay">
<g style="mix-blend-mode:overlay">
<path d="M80.5617 130.508C82.0962 130.508 83.3402 129.264 83.3402 127.73C83.3402 126.195 82.0962 124.951 80.5617 124.951C79.0271 124.951 77.7832 126.195 77.7832 127.73C77.7832 129.264 79.0271 130.508 80.5617 130.508Z" fill="black"/>
</g>
</g>
<path d="M40.6764 224.588C40.1884 224.587 39.7092 224.458 39.2871 224.213L27.2562 217.267C26.9242 217.093 26.6307 216.854 26.3934 216.564C26.1562 216.274 25.9801 215.939 25.8757 215.579C25.7712 215.219 25.7407 214.842 25.7859 214.47C25.8311 214.098 25.9511 213.739 26.1386 213.415C26.3261 213.09 26.5773 212.807 26.8771 212.582C27.1769 212.357 27.5191 212.195 27.8831 212.106C28.2471 212.017 28.6253 212.003 28.9951 212.063C29.3648 212.124 29.7185 212.259 30.0347 212.46L42.0656 219.406C42.5939 219.713 43.0065 220.185 43.2396 220.749C43.4727 221.314 43.5133 221.939 43.3552 222.529C43.197 223.119 42.8489 223.641 42.3647 224.013C41.8805 224.385 41.2871 224.587 40.6764 224.588Z" fill="#515979"/>
<path d="M42.8158 209.779C42.3278 209.778 41.8487 209.649 41.4265 209.404L34.2024 205.236C33.8704 205.062 33.5769 204.823 33.3397 204.533C33.1024 204.243 32.9263 203.908 32.8219 203.548C32.7175 203.188 32.6869 202.811 32.7321 202.439C32.7773 202.067 32.8973 201.708 33.0848 201.384C33.2723 201.059 33.5236 200.776 33.8234 200.551C34.1232 200.326 34.4653 200.165 34.8293 200.075C35.1933 199.986 35.5715 199.972 35.9413 200.033C36.3111 200.093 36.6647 200.228 36.9809 200.429L44.205 204.597C44.7333 204.904 45.1459 205.376 45.379 205.94C45.6121 206.505 45.6528 207.13 45.4946 207.72C45.3365 208.31 44.9883 208.831 44.5041 209.203C44.0199 209.576 43.4265 209.778 42.8158 209.779Z" fill="#515979"/>
<path d="M54.5689 200.527C54.0809 200.526 53.6017 200.396 53.1796 200.152L41.1487 193.205C40.8167 193.032 40.5232 192.793 40.2859 192.502C40.0487 192.212 39.8725 191.877 39.7681 191.517C39.6637 191.158 39.6332 190.78 39.6784 190.408C39.7236 190.036 39.8435 189.677 40.0311 189.353C40.2186 189.028 40.4698 188.745 40.7696 188.52C41.0694 188.296 41.4116 188.134 41.7756 188.045C42.1395 187.955 42.5178 187.941 42.8876 188.002C43.2573 188.062 43.611 188.197 43.9272 188.398L55.9581 195.345C56.4864 195.651 56.899 196.123 57.1321 196.688C57.3652 197.252 57.4058 197.878 57.2477 198.468C57.0895 199.058 56.7414 199.579 56.2572 199.951C55.773 200.323 55.1796 200.526 54.5689 200.527Z" fill="#515979"/>
<path d="M56.7083 185.717C56.2203 185.716 55.7411 185.587 55.319 185.342L48.0949 181.174C47.4901 180.79 47.0573 180.187 46.8868 179.491C46.7163 178.794 46.8213 178.059 47.18 177.439C47.5386 176.819 48.1231 176.361 48.8114 176.161C49.4996 175.961 50.2384 176.035 50.8734 176.368L58.0975 180.535C58.6258 180.842 59.0384 181.314 59.2715 181.878C59.5046 182.443 59.5452 183.068 59.3871 183.658C59.2289 184.248 58.8808 184.769 58.3966 185.142C57.9124 185.514 57.319 185.716 56.7083 185.717Z" fill="#515979"/>
<path d="M68.4613 176.437C67.9734 176.436 67.4942 176.307 67.0721 176.062L55.0412 169.116C54.7091 168.942 54.4157 168.703 54.1784 168.413C53.9412 168.123 53.765 167.788 53.6606 167.428C53.5562 167.068 53.5257 166.691 53.5709 166.319C53.6161 165.947 53.736 165.588 53.9236 165.263C54.1111 164.939 54.3623 164.656 54.6621 164.431C54.9619 164.206 55.3041 164.044 55.6681 163.955C56.032 163.866 56.4103 163.851 56.78 163.912C57.1498 163.973 57.5034 164.108 57.8197 164.309L69.8506 171.255C70.3789 171.562 70.7915 172.034 71.0246 172.598C71.2577 173.163 71.2983 173.788 71.1401 174.378C70.982 174.968 70.6339 175.489 70.1497 175.861C69.6654 176.234 69.0721 176.436 68.4613 176.437Z" fill="#515979"/>
<path d="M23.269 224.172C22.7811 224.171 22.3019 224.041 21.8798 223.797C21.5632 223.615 21.2856 223.373 21.0626 223.084C20.8396 222.795 20.6757 222.465 20.5802 222.113C20.4848 221.761 20.4596 221.393 20.5062 221.031C20.5528 220.67 20.6702 220.32 20.8517 220.004L56.9722 157.488C57.3407 156.848 57.948 156.382 58.6605 156.19C59.3731 155.999 60.1325 156.098 60.7718 156.467C61.4111 156.835 61.8778 157.442 62.0693 158.155C62.2608 158.867 62.1614 159.627 61.7929 160.266L25.6724 222.782C25.4288 223.204 25.0785 223.555 24.6567 223.799C24.2348 224.042 23.7563 224.171 23.269 224.172Z" fill="#515979"/>
<path d="M858.688 264.733C838.607 267.533 818.236 262.252 802.044 250.051C785.852 237.849 775.161 219.723 772.318 199.649L759.31 107.093C759.175 106.136 759.426 105.166 760.007 104.394C760.589 103.623 761.453 103.114 762.409 102.98L942.712 77.6399C943.669 77.5055 944.639 77.7565 945.411 78.3377C946.182 78.9189 946.691 79.7828 946.825 80.7392L959.833 173.295C962.633 193.375 957.352 213.746 945.151 229.938C932.949 246.131 914.823 256.821 894.749 259.665L858.688 264.733Z" fill="#F3F9FE"/>
<path d="M943.219 81.246L956.227 173.802C958.915 192.93 953.895 212.342 942.271 227.768C930.646 243.194 913.37 253.371 894.242 256.059L858.181 261.127C839.053 263.815 819.641 258.795 804.215 247.171C788.788 235.546 778.612 218.27 775.924 199.142L762.916 106.586L943.219 81.246ZM942.206 74.0338L761.902 99.3739C759.989 99.6427 758.262 100.66 757.099 102.203C755.937 103.746 755.435 105.687 755.704 107.6L768.711 200.155C771.693 221.185 782.893 240.173 799.856 252.955C816.818 265.737 838.158 271.27 859.195 268.339L895.255 263.271C916.284 260.29 935.273 249.09 948.055 232.127C960.837 215.164 966.37 193.825 963.439 172.788L950.431 80.2324C950.163 78.3196 949.145 76.592 947.602 75.4295C946.06 74.2671 944.118 73.765 942.206 74.0338Z" fill="#515979"/>
<path d="M855.264 109.542C831.031 112.948 808.047 114.952 790.533 114.962C764.127 115.205 759.904 111.324 759.31 107.093C758.715 102.862 761.704 97.9675 787.154 90.9219C804.002 86.1639 826.639 81.6954 850.871 78.2897C875.104 74.884 898.087 72.8797 915.602 72.8697C942.008 72.6275 946.231 76.5081 946.825 80.7392C947.42 84.9703 944.43 89.8645 918.981 96.9101C902.142 101.728 879.496 106.137 855.264 109.542Z" fill="#D8EBFB"/>
<path d="M851.378 81.8958C901.166 74.8986 942.287 74.6108 943.219 81.246C944.152 87.8812 904.545 98.939 854.757 105.936C804.969 112.933 763.848 113.221 762.916 106.586C761.983 99.9509 801.59 88.893 851.378 81.8958ZM850.364 74.6836C825.975 78.1113 803.172 82.6155 786.166 87.3834C779.335 89.1553 772.66 91.4831 766.208 94.3436C763.038 95.8557 754.617 99.8706 755.703 107.6C756.79 115.329 765.991 116.867 769.455 117.447C776.446 118.418 783.504 118.816 790.559 118.636C808.22 118.532 831.381 116.576 855.77 113.148C880.159 109.721 902.963 105.217 919.968 100.449C926.799 98.6688 933.473 96.3329 939.923 93.4644C943.097 91.9764 951.518 87.9614 950.431 80.2324C949.345 72.5034 940.144 70.965 936.679 70.3855C929.689 69.4141 922.631 69.0163 915.576 69.196C897.915 69.3001 874.754 71.256 850.364 74.6836Z" fill="#515979"/>
<path d="M801.562 172.249C801.274 172.289 800.973 172.332 800.685 172.372C779.157 173.044 770.269 171.29 768.163 170.091L763.533 137.143C769.439 138.52 779.697 139.297 797.614 138.482C799.735 138.383 801.816 139.082 803.447 140.441C805.079 141.8 806.143 143.72 806.429 145.824L808.777 162.532C809.091 164.764 808.505 167.028 807.149 168.828C805.793 170.628 803.777 171.815 801.546 172.129L801.562 172.249Z" fill="#D8EBFB"/>
<path d="M767.844 141.649C774.701 142.561 784.321 142.802 797.782 142.21C798.983 142.15 800.164 142.539 801.096 143.3C802.027 144.061 802.642 145.141 802.823 146.331L805.171 163.039C805.35 164.314 805.016 165.608 804.241 166.637C803.466 167.665 802.314 168.343 801.039 168.523C800.872 168.558 800.704 168.582 800.534 168.594C783.818 169.227 775.017 168.27 771.462 167.396L767.844 141.649ZM758.913 130.438L764.657 171.307C765.199 175.165 779.312 176.675 800.849 175.892C801.256 175.902 801.663 175.89 802.069 175.855C805.257 175.407 808.137 173.711 810.074 171.14C812.011 168.569 812.848 165.333 812.4 162.145L810.035 145.317C809.613 142.326 808.091 139.6 805.766 137.671C803.442 135.743 800.481 134.75 797.464 134.888C774.625 135.915 759.476 134.441 758.913 130.438Z" fill="#515979"/>
<path d="M924.169 155.018C921.937 155.331 919.673 154.746 917.873 153.389C916.073 152.033 914.886 150.018 914.572 147.786L912.207 130.958C911.903 128.856 912.396 126.717 913.59 124.961C914.783 123.206 916.591 121.96 918.657 121.471C936.098 117.267 945.757 113.691 951.049 110.79L955.679 143.737C953.986 145.471 945.926 149.607 925.019 154.788C924.731 154.828 924.43 154.871 924.142 154.911L924.169 155.018Z" fill="#D8EBFB"/>
<path d="M948.147 116.309L951.765 142.056C948.589 143.876 940.393 147.222 924.141 151.246C923.975 151.282 923.806 151.305 923.636 151.317C922.361 151.496 921.067 151.162 920.039 150.387C919.01 149.612 918.332 148.46 918.153 147.185L915.801 130.453C915.627 129.25 915.91 128.025 916.595 127.021C917.28 126.017 918.317 125.306 919.501 125.03C932.626 121.959 941.806 119.076 948.147 116.309ZM953.641 103.071C954.204 107.074 940.048 112.667 917.817 118.022C914.887 118.72 912.321 120.482 910.617 122.966C908.914 125.451 908.195 128.48 908.601 131.465L910.949 148.173C911.397 151.361 913.093 154.24 915.664 156.178C918.235 158.115 921.471 158.952 924.659 158.504C925.06 158.445 925.458 158.365 925.85 158.263C946.733 153.085 959.919 147.738 959.376 143.88L953.641 103.071Z" fill="#515979"/>
<g style="mix-blend-mode:overlay">
<g style="mix-blend-mode:overlay">
<path d="M854.757 105.936C900.391 99.5229 936.93 91.0948 936.37 87.1116C935.811 83.1285 898.363 85.0986 852.73 91.512C807.096 97.9254 770.556 106.353 771.116 110.337C771.676 114.32 809.123 112.35 854.757 105.936Z" fill="black"/>
</g>
</g>
<path d="M846.524 265.401C846.327 265.447 846.125 265.475 845.923 265.485C828.031 265.006 810.876 258.259 797.451 246.422C784.026 234.585 775.184 218.409 772.468 200.718C772.333 199.762 772.585 198.791 773.166 198.02C773.747 197.249 774.611 196.74 775.567 196.606C775.765 196.56 775.966 196.531 776.168 196.521C794.052 197 811.2 203.741 824.622 215.568C838.045 227.396 846.89 243.559 849.617 261.24C849.751 262.196 849.5 263.167 848.919 263.938C848.337 264.71 847.474 265.218 846.517 265.353L846.524 265.401Z" fill="#D8EBFB"/>
<path d="M776.067 200.163C793.093 200.636 809.416 207.06 822.196 218.32C834.976 229.58 843.405 244.964 846.017 261.795C828.991 261.323 812.669 254.898 799.889 243.638C787.109 232.378 778.68 216.995 776.067 200.163ZM775.054 192.951C774.098 193.086 773.179 193.408 772.35 193.9C771.52 194.393 770.797 195.045 770.221 195.819C769.646 196.593 769.23 197.474 768.998 198.41C768.765 199.347 768.722 200.32 768.869 201.273C771.724 219.797 780.991 236.731 795.053 249.122C809.114 261.514 827.079 268.577 845.815 269.08C846.222 269.086 846.628 269.061 847.031 269.007C847.986 268.873 848.905 268.55 849.735 268.058C850.564 267.566 851.288 266.913 851.863 266.139C852.439 265.365 852.855 264.484 853.087 263.548C853.319 262.611 853.363 261.638 853.216 260.685C850.36 242.161 841.094 225.227 827.032 212.836C812.97 200.444 795.005 193.381 776.269 192.879C775.863 192.873 775.456 192.897 775.054 192.951Z" fill="#515979"/>
<path d="M906.625 256.954C905.669 257.089 904.698 256.838 903.927 256.256C903.156 255.675 902.647 254.811 902.512 253.855C900.258 236.115 904.3 218.146 913.933 203.079C923.566 188.013 938.18 176.804 955.228 171.405C955.426 171.359 955.627 171.331 955.829 171.32C956.786 171.186 957.756 171.437 958.528 172.018C959.299 172.599 959.808 173.463 959.942 174.42C962.196 192.16 958.155 210.129 948.521 225.195C938.888 240.262 924.275 251.471 907.226 256.87C907.029 256.916 906.828 256.944 906.625 256.954Z" fill="#D8EBFB"/>
<path d="M956.371 174.823C958.499 191.723 954.636 208.833 945.455 223.18C936.274 237.527 922.355 248.201 906.118 253.348C903.99 236.449 907.853 219.338 917.034 204.992C926.215 190.645 940.134 179.97 956.371 174.823ZM955.357 167.611L955.153 167.64C954.775 167.702 954.402 167.796 954.04 167.919C936.2 173.59 920.913 185.335 910.838 201.111C900.762 216.887 896.535 235.696 898.893 254.266C899.014 255.223 899.325 256.146 899.806 256.982C900.287 257.818 900.93 258.55 901.696 259.136C902.463 259.721 903.338 260.149 904.271 260.393C905.204 260.638 906.177 260.695 907.132 260.56C907.534 260.502 907.931 260.413 908.32 260.295C926.155 254.66 941.452 242.956 951.556 227.217C961.659 211.477 965.931 192.696 963.628 174.134L963.583 173.81C963.315 171.907 962.307 170.188 960.778 169.025C959.249 167.863 957.322 167.351 955.417 167.603L955.357 167.611Z" fill="#515979"/>
<g style="mix-blend-mode:overlay">
<g style="mix-blend-mode:overlay">
<path d="M844.79 261.783L846.024 261.843C843.421 245.002 834.996 229.606 822.213 218.337C809.431 207.067 793.102 200.636 776.067 200.164C776.696 204.25 777.672 208.275 778.984 212.195C793.677 212.85 807.828 217.937 819.574 226.788C831.32 235.64 840.111 247.84 844.79 261.783Z" fill="black"/>
</g>
</g>
<g style="mix-blend-mode:overlay">
<g style="mix-blend-mode:overlay">
<path d="M956.883 187.193C957.064 183.047 956.891 178.892 956.364 174.775C940.127 179.922 926.208 190.597 917.027 204.944C907.846 219.29 903.984 236.401 906.112 253.3L907.282 252.903C907.956 238.225 913.054 224.094 921.907 212.367C930.759 200.639 942.952 191.864 956.883 187.193Z" fill="black"/>
</g>
</g>
<path d="M890.262 171.048C889.844 171.114 889.416 171.073 889.019 170.928C887.592 170.517 886.094 170.411 884.624 170.618C883.153 170.824 881.743 171.339 880.485 172.128C879.966 172.509 879.317 172.67 878.681 172.573C878.044 172.476 877.472 172.13 877.09 171.612C876.709 171.093 876.549 170.444 876.645 169.808C876.742 169.171 877.088 168.599 877.606 168.218C879.516 166.957 881.683 166.137 883.949 165.818C886.216 165.5 888.525 165.69 890.708 166.376C891.22 166.566 891.653 166.922 891.938 167.388C892.222 167.854 892.341 168.402 892.275 168.944C892.21 169.486 891.964 169.99 891.576 170.375C891.189 170.76 890.684 171.003 890.141 171.065L890.262 171.048Z" fill="#515979"/>
<path d="M884.388 168.502C889.699 167.756 893.399 162.846 892.653 157.535C891.906 152.224 886.996 148.524 881.685 149.27C876.374 150.017 872.674 154.927 873.42 160.238C874.167 165.549 879.077 169.249 884.388 168.502Z" fill="#515979"/>
<path d="M885.778 160.953C887.106 160.766 888.031 159.538 887.845 158.211C887.658 156.883 886.43 155.958 885.103 156.144C883.775 156.331 882.85 157.559 883.036 158.886C883.223 160.214 884.451 161.139 885.778 160.953Z" fill="white"/>
<path d="M873.237 140.271C873.882 139.542 874.615 138.896 875.418 138.347C876.156 137.829 876.944 137.386 877.77 137.023C879.541 136.21 881.461 135.77 883.41 135.728C883.915 135.713 884.421 135.728 884.924 135.773C885.435 135.836 885.938 135.924 886.441 136.013C886.944 136.102 887.427 136.316 887.915 136.468C888.406 136.615 888.876 136.825 889.314 137.093C891.054 137.994 892.516 139.352 893.543 141.021C893.852 141.446 894.015 141.96 894.007 142.485C893.999 143.01 893.821 143.519 893.499 143.934C893.178 144.349 892.73 144.649 892.224 144.789C891.717 144.928 891.179 144.899 890.691 144.707L890.202 144.543C889.05 144.081 887.87 143.694 886.668 143.385C885.618 143.113 884.536 142.985 883.452 143.003C882.263 143.012 881.077 143.134 879.911 143.366C879.286 143.454 878.647 143.617 877.998 143.794C877.349 143.971 876.641 144.169 876.074 144.236L875.341 144.339C874.853 144.403 874.357 144.316 873.919 144.091C873.481 143.865 873.122 143.512 872.889 143.078C872.657 142.644 872.561 142.15 872.617 141.66C872.672 141.171 872.874 140.71 873.198 140.338L873.237 140.271Z" fill="#515979"/>
<path d="M849.393 176.792C848.975 176.857 848.548 176.816 848.15 176.672C846.723 176.261 845.226 176.155 843.755 176.362C842.285 176.568 840.874 177.083 839.616 177.871C839.097 178.253 838.448 178.413 837.812 178.317C837.175 178.22 836.603 177.874 836.222 177.356C835.84 176.837 835.68 176.188 835.776 175.552C835.873 174.915 836.219 174.343 836.737 173.961C838.647 172.7 840.814 171.881 843.081 171.562C845.347 171.244 847.656 171.434 849.839 172.12C850.351 172.309 850.784 172.666 851.069 173.132C851.353 173.598 851.472 174.146 851.407 174.688C851.341 175.23 851.095 175.734 850.708 176.119C850.32 176.503 849.815 176.746 849.273 176.809L849.393 176.792Z" fill="#515979"/>
<path d="M843.519 174.246C848.83 173.5 852.53 168.589 851.784 163.279C851.038 157.968 846.127 154.267 840.816 155.014C835.505 155.76 831.805 160.671 832.552 165.982C833.298 171.292 838.208 174.993 843.519 174.246Z" fill="#515979"/>
<path d="M844.91 166.696C846.237 166.51 847.162 165.282 846.976 163.954C846.789 162.627 845.562 161.702 844.234 161.888C842.906 162.075 841.981 163.302 842.168 164.63C842.354 165.958 843.582 166.883 844.91 166.696Z" fill="white"/>
<path d="M844.813 148.568C844.248 148.648 843.485 148.62 842.843 148.674C842.2 148.727 841.517 148.75 840.885 148.789C839.7 148.887 838.527 149.097 837.382 149.417C836.335 149.698 835.33 150.12 834.396 150.67C833.326 151.299 832.298 151.996 831.318 152.757L830.905 153.048C830.491 153.403 829.969 153.607 829.424 153.629C828.879 153.651 828.343 153.489 827.901 153.169C827.46 152.848 827.139 152.389 826.991 151.864C826.842 151.339 826.875 150.78 827.084 150.276C827.607 148.386 828.639 146.677 830.066 145.333C830.413 144.956 830.808 144.624 831.239 144.347C831.666 144.067 832.075 143.752 832.53 143.504C832.986 143.256 833.448 143.056 833.922 142.855C834.396 142.681 834.878 142.535 835.369 142.419C837.254 141.921 839.22 141.816 841.148 142.109C842.066 142.242 842.969 142.468 843.841 142.785C844.765 143.091 845.647 143.51 846.468 144.033C847.007 144.38 847.388 144.925 847.526 145.551C847.665 146.177 847.55 146.832 847.207 147.374C847.021 147.666 846.774 147.915 846.484 148.104C846.193 148.293 845.865 148.417 845.523 148.469L844.813 148.568Z" fill="#515979"/>
<path d="M815.034 180.885C816.693 180.652 817.85 179.117 817.617 177.458C817.383 175.798 815.849 174.642 814.189 174.875C812.529 175.108 811.373 176.643 811.606 178.302C811.84 179.962 813.374 181.118 815.034 180.885Z" fill="#D8EBFB"/>
<path d="M823.503 193.178C825.163 192.945 826.319 191.41 826.086 189.751C825.853 188.091 824.318 186.935 822.659 187.168C820.999 187.401 819.843 188.936 820.076 190.595C820.309 192.255 821.844 193.411 823.503 193.178Z" fill="#D8EBFB"/>
<path d="M810.281 195.036C811.941 194.803 813.097 193.269 812.864 191.609C812.63 189.949 811.096 188.793 809.436 189.026C807.777 189.259 806.62 190.794 806.853 192.454C807.087 194.113 808.621 195.27 810.281 195.036Z" fill="#D8EBFB"/>
<path d="M913.6 167.032C915.259 166.799 916.416 165.265 916.182 163.605C915.949 161.945 914.415 160.789 912.755 161.022C911.095 161.256 909.939 162.79 910.172 164.45C910.405 166.109 911.94 167.266 913.6 167.032Z" fill="#D8EBFB"/>
<path d="M922.069 179.326C923.729 179.092 924.885 177.558 924.652 175.898C924.419 174.239 922.884 173.082 921.224 173.315C919.565 173.549 918.408 175.083 918.642 176.743C918.875 178.402 920.409 179.559 922.069 179.326Z" fill="#D8EBFB"/>
<path d="M908.847 181.184C910.506 180.951 911.663 179.416 911.43 177.756C911.196 176.097 909.662 174.94 908.002 175.174C906.342 175.407 905.186 176.941 905.419 178.601C905.653 180.261 907.187 181.417 908.847 181.184Z" fill="#D8EBFB"/>
<path d="M869.3 209.418C862.766 210.33 856.137 208.612 850.868 204.642C845.599 200.671 842.12 194.773 841.196 188.24C841.084 187.443 841.293 186.634 841.777 185.991C842.262 185.349 842.981 184.925 843.778 184.813L887.051 178.731C887.848 178.619 888.657 178.828 889.3 179.313C889.943 179.797 890.367 180.517 890.479 181.314C891.39 187.848 889.673 194.477 885.702 199.746C881.732 205.015 875.833 208.494 869.3 209.418Z" fill="#515979"/>
<path d="M887.474 181.736C888.28 187.474 886.774 193.298 883.287 197.926C879.799 202.554 874.616 205.607 868.878 206.413C863.14 207.22 857.316 205.714 852.688 202.226C848.06 198.739 845.007 193.556 844.201 187.818L887.474 181.736ZM886.629 175.726L843.356 181.808C841.762 182.032 840.322 182.88 839.354 184.165C838.385 185.451 837.967 187.068 838.191 188.662C838.687 192.295 839.893 195.794 841.742 198.961C843.59 202.127 846.044 204.898 848.963 207.116C854.859 211.595 862.293 213.549 869.63 212.547C876.966 211.545 883.604 207.67 888.083 201.774C892.562 195.878 894.516 188.444 893.514 181.108L893.484 180.891C893.26 179.297 892.412 177.858 891.126 176.889C889.841 175.92 888.223 175.502 886.629 175.726Z" fill="#515979"/>
<path d="M868.878 206.413C877.767 205.164 884.519 200.922 883.959 196.939C883.4 192.956 875.74 190.74 866.851 191.989C857.962 193.238 851.209 197.48 851.769 201.463C852.329 205.446 859.989 207.663 868.878 206.413Z" fill="#EF7D7D"/>
<path d="M936.189 153.328C935.233 153.463 934.262 153.212 933.491 152.631C932.719 152.049 932.211 151.186 932.076 150.229L928.022 121.381C927.887 120.424 928.138 119.454 928.72 118.682C929.301 117.911 930.165 117.402 931.121 117.268C932.077 117.133 933.048 117.384 933.819 117.966C934.591 118.547 935.099 119.411 935.234 120.367L939.288 149.216C939.423 150.172 939.172 151.143 938.59 151.914C938.009 152.685 937.145 153.194 936.189 153.328Z" fill="#515979"/>
<path d="M789.542 173.938C788.586 174.073 787.615 173.822 786.844 173.24C786.073 172.659 785.564 171.795 785.429 170.839L781.375 141.99C781.24 141.034 781.492 140.063 782.073 139.292C782.654 138.521 783.518 138.012 784.474 137.878C785.431 137.743 786.401 137.994 787.172 138.575C787.944 139.157 788.453 140.02 788.587 140.977L792.641 169.825C792.776 170.782 792.525 171.752 791.944 172.524C791.362 173.295 790.499 173.804 789.542 173.938Z" fill="#515979"/>
<path d="M929.938 108.854C929.301 108.943 928.654 108.776 928.14 108.388C927.625 108.001 927.286 107.425 927.197 106.787L925.845 97.1712C925.755 96.5336 925.923 95.8865 926.31 95.3723C926.698 94.8581 927.274 94.5189 927.911 94.4293C928.549 94.3397 929.196 94.507 929.71 94.8945C930.224 95.282 930.564 95.8579 930.653 96.4955L932.005 106.112C932.094 106.749 931.927 107.396 931.539 107.911C931.152 108.425 930.576 108.764 929.938 108.854Z" fill="#515979"/>
<path d="M920.491 111.407C919.854 111.497 919.207 111.329 918.692 110.942C918.178 110.554 917.839 109.978 917.749 109.341L916.398 99.7247C916.308 99.0871 916.476 98.44 916.863 97.9258C917.251 97.4116 917.826 97.0724 918.464 96.9828C919.102 96.8931 919.749 97.0605 920.263 97.448C920.777 97.8355 921.116 98.4113 921.206 99.0489L922.557 108.665C922.647 109.303 922.48 109.95 922.092 110.464C921.705 110.978 921.129 111.317 920.491 111.407Z" fill="#515979"/>
<path d="M911.044 113.961C910.406 114.05 909.759 113.883 909.245 113.495C908.731 113.108 908.392 112.532 908.302 111.894L906.951 102.278C906.861 101.641 907.028 100.994 907.416 100.479C907.803 99.9651 908.379 99.6259 909.017 99.5363C909.654 99.4467 910.301 99.614 910.816 100.002C911.33 100.389 911.669 100.965 911.759 101.602L913.11 111.219C913.2 111.856 913.032 112.503 912.645 113.018C912.257 113.532 911.682 113.871 911.044 113.961Z" fill="#515979"/>
<path d="M939.386 106.3C938.748 106.39 938.101 106.222 937.587 105.835C937.073 105.447 936.733 104.871 936.644 104.234L935.292 94.6177C935.203 93.9801 935.37 93.333 935.758 92.8188C936.145 92.3046 936.721 91.9654 937.359 91.8758C937.996 91.7861 938.643 91.9535 939.157 92.341C939.672 92.7285 940.011 93.3043 940.1 93.9419L941.452 103.558C941.542 104.196 941.374 104.843 940.987 105.357C940.599 105.871 940.023 106.21 939.386 106.3Z" fill="#515979"/>
<path d="M783.292 129.463C782.654 129.553 782.007 129.386 781.493 128.998C780.979 128.611 780.639 128.035 780.55 127.397L779.198 117.781C779.109 117.143 779.276 116.496 779.664 115.982C780.051 115.468 780.627 115.129 781.264 115.039C781.902 114.95 782.549 115.117 783.063 115.504C783.578 115.892 783.917 116.468 784.006 117.105L785.358 126.722C785.447 127.359 785.28 128.006 784.893 128.52C784.505 129.035 783.929 129.374 783.292 129.463Z" fill="#515979"/>
<path d="M793.077 129.314C792.439 129.404 791.792 129.236 791.278 128.849C790.764 128.461 790.425 127.885 790.335 127.248L788.983 117.632C788.894 116.994 789.061 116.347 789.449 115.833C789.836 115.319 790.412 114.979 791.05 114.89C791.687 114.8 792.334 114.967 792.848 115.355C793.363 115.742 793.702 116.318 793.792 116.956L795.143 126.572C795.233 127.21 795.065 127.857 794.678 128.371C794.29 128.885 793.714 129.224 793.077 129.314Z" fill="#515979"/>
<path d="M802.862 129.165C802.224 129.254 801.577 129.087 801.063 128.699C800.549 128.312 800.21 127.736 800.12 127.098L798.769 117.482C798.679 116.845 798.846 116.198 799.234 115.683C799.621 115.169 800.197 114.83 800.835 114.74C801.472 114.651 802.119 114.818 802.634 115.205C803.148 115.593 803.487 116.169 803.577 116.806L804.928 126.423C805.018 127.06 804.85 127.707 804.463 128.222C804.075 128.736 803.5 129.075 802.862 129.165Z" fill="#515979"/>
<path d="M773.507 129.613C772.869 129.702 772.222 129.535 771.708 129.148C771.193 128.76 770.854 128.184 770.765 127.547L769.413 117.93C769.324 117.293 769.491 116.646 769.878 116.132C770.266 115.617 770.842 115.278 771.479 115.189C772.117 115.099 772.764 115.266 773.278 115.654C773.792 116.041 774.132 116.617 774.221 117.255L775.573 126.871C775.662 127.509 775.495 128.156 775.108 128.67C774.72 129.184 774.144 129.523 773.507 129.613Z" fill="#515979"/>
<path d="M473.178 309.912C465.108 312.835 456.299 313.014 448.116 310.422C439.934 307.83 432.836 302.61 427.921 295.573C423.007 288.536 420.551 280.075 420.935 271.5C421.319 262.926 424.52 254.717 430.043 248.147C435.567 241.577 443.103 237.013 451.484 235.161C459.865 233.31 468.623 234.275 476.4 237.908C484.176 241.54 490.538 247.636 494.498 255.251C498.457 262.866 499.794 271.575 498.301 280.027C497.114 286.779 494.166 293.097 489.754 298.345C485.343 303.592 479.625 307.582 473.178 309.912ZM450.366 246.915C445.742 248.6 441.641 251.47 438.474 255.237C435.307 259.005 433.185 263.537 432.319 268.382C431.467 273.217 431.901 278.192 433.578 282.807C435.254 287.422 438.115 291.514 441.873 294.675C445.631 297.835 450.154 299.951 454.988 300.811C459.823 301.671 464.798 301.245 469.415 299.576C476.399 297.049 482.092 291.853 485.244 285.129C488.396 278.404 488.747 270.704 486.221 263.721C483.695 256.737 478.498 251.044 471.774 247.892C465.05 244.74 457.349 244.389 450.366 246.915Z" fill="#6ADAF7"/>
<path d="M447.599 239.43C455.048 236.734 463.178 236.57 470.73 238.963C478.282 241.357 484.833 246.175 489.369 252.671C493.904 259.166 496.17 266.976 495.816 274.89C495.462 282.804 492.507 290.381 487.41 296.445C482.312 302.509 475.356 306.723 467.621 308.432C459.885 310.142 451.802 309.252 444.624 305.901C437.445 302.55 431.573 296.924 427.916 289.897C424.26 282.869 423.023 274.831 424.399 267.029C425.484 260.79 428.202 254.949 432.277 250.101C436.352 245.253 441.639 241.571 447.599 239.43ZM470.401 302.431C477.476 299.87 483.377 294.824 487.006 288.233C490.635 281.643 491.743 273.957 490.124 266.61C488.505 259.263 484.269 252.755 478.206 248.3C472.143 243.846 464.667 241.747 457.172 242.397C449.677 243.047 442.674 246.401 437.468 251.833C432.263 257.265 429.21 264.404 428.88 271.92C428.549 279.437 430.964 286.816 435.673 292.684C440.382 298.552 447.064 302.507 454.473 303.812C459.828 304.751 465.336 304.266 470.445 302.404L470.401 302.431ZM445.59 233.765C439.524 235.957 434.045 239.516 429.576 244.167C425.108 248.818 421.77 254.436 419.823 260.584C417.875 266.733 417.37 273.248 418.346 279.623C419.323 285.998 421.754 292.063 425.452 297.348C430.753 304.919 438.404 310.53 447.218 313.311C456.032 316.092 465.517 315.888 474.204 312.731C481.135 310.201 487.281 305.896 492.028 300.247C496.775 294.597 499.956 287.802 501.254 280.538C502.534 273.283 501.882 265.819 499.365 258.895C496.848 251.971 492.554 245.831 486.914 241.091C481.274 236.351 474.486 233.178 467.232 231.891C459.978 230.604 452.513 231.247 445.587 233.756L445.59 233.765ZM468.393 296.766C463.219 298.635 457.574 298.746 452.331 297.081C447.088 295.416 442.541 292.068 439.394 287.556C436.247 283.045 434.675 277.621 434.923 272.126C435.172 266.631 437.225 261.371 440.766 257.161C444.307 252.951 449.137 250.027 454.509 248.841C459.88 247.655 465.493 248.274 470.477 250.602C475.461 252.93 479.538 256.836 482.077 261.716C484.615 266.596 485.473 272.177 484.518 277.594C483.767 281.931 481.879 285.991 479.046 289.359C476.213 292.727 472.537 295.283 468.393 296.766Z" fill="#515979"/>
<path d="M470.698 162.756C473.501 161.738 476.524 161.475 479.461 161.995C482.399 162.514 485.148 163.798 487.432 165.716C489.717 167.634 491.456 170.12 492.476 172.923C493.496 175.727 493.76 178.749 493.242 181.687C492.643 184.511 491.431 187.168 489.69 189.471C483.441 198.556 480.307 209.274 477.729 223.622L460.02 220.49C462.551 206.16 463.218 195.009 460.455 184.319C459.605 181.558 459.369 178.644 459.763 175.781C460.281 172.841 461.565 170.089 463.484 167.803C465.404 165.516 467.892 163.776 470.698 162.756ZM468.645 157.118C464.857 158.506 461.499 160.863 458.906 163.954C456.314 167.045 454.577 170.762 453.869 174.734C453.334 178.428 453.615 182.194 454.693 185.768C456.989 194.68 456.846 204.139 454.18 219.444C453.906 221.01 454.264 222.621 455.177 223.923C456.09 225.225 457.482 226.111 459.048 226.388L476.758 229.52C477.795 229.699 478.861 229.604 479.85 229.245C480.839 228.884 481.715 228.27 482.391 227.464C483.067 226.657 483.518 225.687 483.701 224.651C486.433 209.322 489.517 200.399 494.704 192.839C496.942 189.829 498.486 186.359 499.223 182.681C500.283 176.674 498.915 170.492 495.417 165.495C491.92 160.497 486.58 157.093 480.574 156.033C476.571 155.34 472.457 155.714 468.645 157.118Z" fill="#515979"/>
<path d="M473.473 256.458C472.321 256.878 471.078 256.985 469.872 256.768L456.079 254.339C454.252 254.016 452.627 252.98 451.563 251.46C450.499 249.939 450.082 248.059 450.404 246.231L453.529 228.503C453.597 228.115 453.741 227.744 453.952 227.411C454.163 227.079 454.438 226.791 454.76 226.565C454.979 226.418 455.213 226.297 455.459 226.204C455.954 226.026 456.487 225.979 457.006 226.067L478.669 229.888C479.057 229.956 479.428 230.1 479.761 230.312C480.094 230.523 480.381 230.799 480.607 231.121C480.834 231.444 480.994 231.809 481.079 232.193C481.165 232.578 481.173 232.976 481.105 233.365L477.98 251.093C477.766 252.304 477.237 253.438 476.446 254.38C475.655 255.321 474.629 256.038 473.473 256.458Z" fill="#F89D81"/>
<path d="M456.501 229.007L478.117 232.845L474.995 250.583C474.873 251.275 474.571 251.923 474.118 252.461C473.666 253 473.08 253.409 472.419 253.649C471.759 253.892 471.046 253.953 470.355 253.825L456.562 251.396C455.525 251.198 454.608 250.598 454.012 249.726C453.416 248.855 453.188 247.783 453.379 246.744L456.501 229.007ZM454.449 223.369C453.956 223.548 453.491 223.793 453.064 224.096C452.417 224.547 451.866 225.121 451.441 225.785C451.016 226.449 450.726 227.19 450.588 227.966L447.448 245.711C446.987 248.322 447.583 251.01 449.104 253.183C450.625 255.355 452.947 256.834 455.559 257.295L469.352 259.724C471.963 260.185 474.651 259.589 476.824 258.068C478.996 256.546 480.475 254.225 480.936 251.613L484.061 233.885C484.196 233.107 484.177 232.31 484.004 231.54C483.831 230.77 483.507 230.041 483.052 229.397C482.597 228.752 482.019 228.203 481.351 227.782C480.683 227.36 479.939 227.075 479.161 226.942L457.545 223.104C456.507 222.915 455.439 223.007 454.449 223.369Z" fill="#515979"/>
<path d="M466.942 232.901C463.343 232.252 459.755 231.536 456.178 230.752L454.274 241.513C458.851 242.539 462.776 243.324 465.049 243.721C467.321 244.117 471.281 244.645 475.941 245.258L477.817 234.593C474.187 234.095 470.56 233.542 466.942 232.901Z" fill="#EF7D7D"/>
<path d="M511.258 236.799C511.07 236.867 510.882 236.935 510.694 237.004C502.898 239.15 471.082 234.597 466.789 233.882C460.82 232.862 430.778 226.546 424.399 221.855C422.914 220.764 421.857 219.189 421.41 217.402C420.962 215.615 421.152 213.728 421.948 212.067C422.743 210.405 424.093 209.073 425.765 208.3C427.438 207.528 429.327 207.363 431.108 207.835C433.181 208.386 435.231 208.949 437.256 209.524C441.206 210.609 444.932 211.636 448.738 212.592C456.122 214.459 462.957 215.93 469.682 217.154C476.406 218.378 483.438 219.309 490.956 220.052C495.093 220.484 499.17 220.809 503.475 221.147C505.362 221.301 507.254 221.442 509.166 221.608C510.95 221.755 512.631 222.507 513.929 223.739C515.228 224.971 516.068 226.609 516.309 228.383C516.55 230.157 516.178 231.96 515.255 233.494C514.332 235.028 512.913 236.2 511.233 236.818L511.258 236.799Z" fill="#F89D81"/>
<path d="M427.435 210.842C428.377 210.499 429.403 210.456 430.371 210.721C436.388 212.341 442.21 214.01 448.064 215.476C455.101 217.268 462.152 218.862 469.227 220.086C476.302 221.31 483.46 222.291 490.724 223.01C496.707 223.631 502.801 224.031 508.965 224.565C510.069 224.653 511.11 225.116 511.915 225.876C512.721 226.637 513.242 227.65 513.393 228.747C513.544 229.844 513.316 230.96 512.746 231.91C512.176 232.859 511.299 233.586 510.26 233.969L509.912 234.096C503.592 235.853 475.292 232.277 467.363 230.928C459.433 229.578 431.509 223.322 426.204 219.389C425.26 218.704 424.594 217.704 424.326 216.569C424.057 215.435 424.205 214.241 424.741 213.206L424.777 213.129C425.34 212.054 426.284 211.228 427.425 210.814L427.435 210.842ZM425.373 205.176C422.821 206.102 420.71 207.952 419.46 210.361L419.403 210.382C418.195 212.686 417.856 215.348 418.448 217.881C419.04 220.415 420.523 222.651 422.627 224.181C429.891 229.519 462.211 236.07 466.301 236.752C466.641 236.809 502.189 242.377 511.463 239.789C511.728 239.708 511.988 239.613 512.243 239.505C514.541 238.679 516.49 237.099 517.774 235.022C519.057 232.944 519.598 230.493 519.308 228.069C518.997 225.599 517.852 223.31 516.061 221.58C514.27 219.851 511.942 218.787 509.463 218.563L503.772 218.102C499.479 217.77 495.424 217.447 491.341 217.018C483.809 216.322 476.963 215.376 470.262 214.187C463.561 212.997 456.839 211.516 449.534 209.663C445.754 208.719 442.037 207.688 438.11 206.606C436.072 206.035 434.019 205.473 431.952 204.92C429.792 204.328 427.502 204.418 425.395 205.179L425.373 205.176Z" fill="#515979"/>
</svg>
