<?xml version="1.0" encoding="utf-8"?>
<!-- Generator: Adobe Illustrator 25.0.0, SVG Export Plug-In . SVG Version: 6.00 Build 0)  -->
<svg version="1.1" id="Layer_1" xmlns="http://www.w3.org/2000/svg" xmlns:xlink="http://www.w3.org/1999/xlink" x="0px" y="0px"
	 viewBox="0 0 130 535.6" style="enable-background:new 0 0 130 535.6;" xml:space="preserve">
<style type="text/css">
	.st0{fill:#FD646F;}
	.st1{fill:#FC4755;}
	.st2{fill:#F5F5F5;}
	.st3{fill:#E6E6E6;}
	.st4{fill:#50758D;}
	.st5{fill:#2B597F;}
	.st6{fill:#918291;}
	.st7{fill:#7A6E79;}
	.st8{fill:#35414D;}
	.st9{fill:#EC5664;}
	.st10{fill:#87828E;}
	.st11{fill:#A4A4A5;}
	.st12{fill:#C63D4F;}
	.st13{fill:#FFCF66;}
	.st14{fill:#E8BA5D;}
	.st15{fill:#EFBC62;}
	.st16{fill:#35414D;stroke:#35414D;stroke-miterlimit:10;}
	.st17{fill:#E8EDF2;}
	.st18{fill:#C5D3DD;}
	.st19{fill:#DD636E;}
	.st20{fill:#90D8F9;}
	.st21{fill:#75CEF9;}
	.st22{fill:#FFD064;}
	.st23{fill:#EBB044;}
</style>
<g id="g367_3_">
	<g id="g373_3_" transform="translate(439.5,223.5)">
		<g id="path375_3_">
			<path class="st0" d="M-343-159.9c-8.6,24-35.1,36.5-59.1,27.9s-36.5-35.1-27.9-59.1s35.1-36.5,59.1-27.9
				C-346.9-210.3-334.4-183.9-343-159.9"/>
		</g>
	</g>
	<g id="g377_3_" transform="translate(439.5,223.5)">
		<g id="path379_3_">
			<path class="st1" d="M-343-159.9c-8.6,24-35.1,36.5-59.1,27.9c-13.1-4.7-22.7-14.7-27.5-26.6c5.2,9.5,13.8,17.1,24.9,21.1
				c24,8.6,50.5-3.9,59.1-27.9c3.9-10.9,3.5-22.4-0.4-32.6C-339.9-186.6-338.3-172.8-343-159.9"/>
		</g>
	</g>
	<g id="g381_3_" transform="translate(386.5,223.5)">
		<g id="path383_3_">
			<path class="st2" d="M-300.7-163.6c6.5-18.1-2.9-38.1-21-44.6s-38.1,2.9-44.6,21s2.9,38.1,21,44.6S-307.1-145.5-300.7-163.6"/>
		</g>
	</g>
	<g id="g385_3_" transform="translate(386.5,223.5)">
		<g id="path387_3_">
			<path class="st3" d="M-300.7-163.6c-6.5,18.1-26.5,27.6-44.6,21c-10.1-3.6-17.5-11.4-21-20.7c4,6.9,10.4,12.4,18.4,15.2
				c18.1,6.5,38.1-2.9,44.6-21c2.9-8.1,2.6-16.4-0.1-23.9C-298.4-184.4-297.1-173.7-300.7-163.6"/>
		</g>
	</g>
	<g id="g389_3_" transform="translate(333.5,223.5)">
		<g id="path391_3_">
			<path class="st0" d="M-258.3-167.5c4.5-12.2-2-25.7-14.2-30c-12.2-4.5-25.7,2-30,14.2c-4.3,12.2,2,25.7,14.2,30
				C-276.3-148.9-262.8-155.3-258.3-167.5"/>
		</g>
	</g>
	<g id="g393_3_" transform="translate(333.5,223.5)">
		<g id="path395_3_">
			<path class="st1" d="M-258.3-167.5c-4.5,12.2-17.8,18.5-30,14.2c-7.2-2.6-12.2-8.2-14.5-15c2.7,4.2,6.8,7.6,11.9,9.5
				c12.2,4.5,25.7-2,30-14.2c1.9-5,1.7-10.4,0.3-15.2C-256.9-182.1-255.7-174.7-258.3-167.5"/>
		</g>
	</g>
	<g id="g397_3_" transform="translate(167.5,223.5)">
		<g id="path399_3_">
			<path class="st2" d="M-125.8-179.4c2.3-6.2,9.1-9.5,15.4-7.2c6.3,2.3,9.5,9.1,7.2,15.4c-2.3,6.2-9.1,9.5-15.4,7.2
				C-124.8-166.3-128-173.2-125.8-179.4"/>
		</g>
	</g>
	<g id="g401_3_" transform="translate(427.8701,153.4102)">
		<g id="path403_3_">
			<path class="st1" d="M-338.8-76.4c-1.7,2.2-3.7,4.2-5.8,6l-8.1-8.1c2.2-1.7,4-3.7,5.8-6L-338.8-76.4z"/>
		</g>
	</g>
	<g id="g405_3_" transform="translate(379.46,175.98)">
		<g id="path407_3_">
			<path class="st3" d="M-298.4-107c-1.7,2.3-3.6,4.3-5.8,6l-8.1-8.1c2.2-1.7,4.2-3.7,5.8-6L-298.4-107z"/>
		</g>
	</g>
	<g id="g409_3_" transform="translate(330.6895,198.7202)">
		<g id="path411_3_">
			<path class="st1" d="M-258-137.8c-1.6,2.4-3.5,4.5-5.8,6l-8.3-8.3c2.4-1.3,4.5-3.5,5.5-6.3L-258-137.8z"/>
		</g>
	</g>
	<g id="g413_3_" transform="translate(279.4902,222.6001)">
		<g id="path415_3_">
			<path class="st3" d="M-215.2-170.3c-1,2.7-3,5-5.5,6.3l-7.9-7.8c-1.6-1.6-1.6-3.9-0.3-5.6c0.1-0.1,0.1-0.1,0.3-0.3
				c0.9-0.9,1.9-1.3,2.9-1.3c1,0,2.2,0.4,3,1.2L-215.2-170.3z"/>
		</g>
	</g>
	<g id="g417_3_" transform="translate(500.6787,412.1377)">
		<g id="path419_3_">
			<path class="st4" d="M-378.2-382c0.3,0.1,0.3,0.6,0,0.7l-5.8,2.7l-3.6,1.7l-9.8,4.6c-0.6,0.3-1.3,0.3-2,0l-10.1-5.6l10.8-5
				l3.6-1.7l6.6-3L-378.2-382z"/>
		</g>
	</g>
	<g id="g421_3_" transform="translate(480.6104,387.5)">
		<g id="path423_3_">
			<path class="st5" d="M-364-353.9l-3.6,1.7l-10.9-6l3.6-1.7L-364-353.9z"/>
		</g>
	</g>
	<g id="g425_3_" transform="translate(422.1299,444.1099)">
		<g id="path427_3_">
			<path class="st4" d="M-313.1-426.1l-6.5,3l-3.6,1.6l-10.8,4.9l2.2-11.5c0.1-0.7,0.6-1.3,1.2-1.6l9.8-4.6l3.6-1.7l5.9-2.7
				c0.3-0.1,0.7,0.1,0.6,0.4L-313.1-426.1z"/>
		</g>
	</g>
	<g id="g429_4_" transform="translate(398.0996,420.6001)">
		<g id="path431_4_">
			<path class="st5" d="M-295.7-399.7l-3.6,1.6l2.3-12.7l3.6-1.7L-295.7-399.7z"/>
		</g>
	</g>
	<g id="g433_4_" transform="translate(467.8398,447.3398)">
		<g id="path435_4_">
			<path class="st6" d="M-349.5-426.7c-0.4,1-1.2,1.9-2.2,2.3l-60.7,28.6c-2,0.9-4.3,0.1-5.3-1.6c0-0.1-0.1-0.3-0.1-0.4
				c-0.4-1-0.6-2.2-0.1-3.2c0.4-1,1.2-1.9,2.2-2.3l60.7-28.6c2-1,4.6-0.1,5.6,2c0,0.1,0.1,0.3,0.1,0.4
				C-349-428.6-349.2-427.6-349.5-426.7"/>
		</g>
	</g>
	<g id="g437_3_" transform="translate(467.8398,447.3398)">
		<g id="path439_3_">
			<path class="st7" d="M-349.5-426.7c-0.4,1-1.2,1.9-2.2,2.3l-60.7,28.6c-2,0.9-4.3,0.1-5.3-1.6l68.2-32.2
				C-349-428.6-349.2-427.6-349.5-426.7"/>
		</g>
	</g>
	<g id="g441_3_" transform="translate(381.9443,261.9277)">
		<g id="path443_3_">
			<path class="st8" d="M-294.2-208.3c-0.1,0-0.1,0-0.2,0c-1-0.1-1.7-1-1.6-2c0.5-4.7,0-9.3-1.5-13.7c-0.3-0.9,0.2-2,1.1-2.3
				c0.9-0.3,2,0.2,2.3,1.1c1.7,4.9,2.3,10.1,1.7,15.3C-292.5-209-293.3-208.3-294.2-208.3z"/>
		</g>
	</g>
	<g id="g445_3_" transform="translate(324.7061,351.2832)">
		<g id="path447_3_">
			<path class="st8" d="M-271.6-266.6c-4.2,0-8.4-0.7-12.4-2.2c-9.2-3.3-16.6-10-20.7-18.8c-4.2-8.8-4.6-18.8-1.3-28
				c3.3-9.2,10-16.6,18.8-20.7c8.8-4.2,18.8-4.6,28-1.3c7.8,2.8,14.4,8.1,18.7,15.1c0.5,0.8,0.3,2-0.6,2.5c-0.8,0.5-2,0.3-2.5-0.6
				c-3.9-6.3-9.9-11.1-16.9-13.6c-17.2-6.1-36.2,2.8-42.3,19.9c-3,8.3-2.5,17.3,1.2,25.3c3.8,8,10.4,14,18.7,17
				c8.3,3,17.3,2.5,25.3-1.2c8-3.8,14-10.4,17-18.7c0-0.1,0.1-0.1,0.1-0.2c0-0.1,0.1-0.1,0.1-0.2c0.1-0.9,0.8-1.6,1.8-1.6
				c1,0,1.8,0.8,1.8,1.8c0,0.7-0.2,1.2-0.4,1.6c-3.3,9.2-10,16.5-18.8,20.6C-261-267.8-266.3-266.6-271.6-266.6z M-240.4-292.4
				C-240.4-292.4-240.4-292.4-240.4-292.4C-240.4-292.4-240.4-292.4-240.4-292.4z M-240.3-292.6L-240.3-292.6L-240.3-292.6z"/>
		</g>
	</g>
	<g id="g449_3_" transform="translate(314.7051,285.0156)">
		<g id="path451_3_">
			<path class="st8" d="M-261.9-211.5c-2.8,0-5.6-0.5-8.4-1.4c-8.7-3-15-10.6-16.4-19.7c-0.2-1,0.5-1.9,1.5-2.1
				c1-0.2,1.9,0.5,2.1,1.5c1.2,7.8,6.6,14.2,14.1,16.8c11.2,4,23.7-1.9,27.8-13.2c1.5-4.1,1.8-8.5,0.7-12.7c-0.2-1,0.3-1.9,1.3-2.2
				c1-0.3,1.9,0.3,2.2,1.3c1.3,5,1,10.1-0.8,14.9C-241.7-218-251.5-211.5-261.9-211.5z"/>
		</g>
	</g>
	<g id="g453_3_" transform="translate(115.627,201.8657)">
		<g id="path455_3_">
			<path class="st8" d="M-86-155.5c-0.1,0-0.2,0-0.3,0c-1-0.2-1.6-1.1-1.4-2.1c0.3-1.6,0.6-3.2,1.2-4.8c4.7-13,19.2-19.9,32.3-15.3
				c5,1.8,9.2,5,12.2,9.3c0.6,0.8,0.4,1.9-0.4,2.5c-0.8,0.6-1.9,0.4-2.5-0.4c-2.6-3.7-6.2-6.4-10.5-8c-11.2-4-23.7,1.9-27.7,13.2
				c-0.5,1.3-0.8,2.7-1.1,4.2C-84.4-156.1-85.1-155.5-86-155.5z"/>
		</g>
	</g>
	<g id="g457_3_" transform="translate(105.9727,404.7573)">
		<g id="path459_3_">
			<path class="st8" d="M-16.4-383.3c-0.5,0-1.1-0.2-1.4-0.7c-5.4-6.9-12.4-11.9-20.2-14.7c-8.3-2.9-17-3.3-25.2-1.4
				c-1,0.2-1.9-0.4-2.2-1.3c-0.2-1,0.4-1.9,1.3-2.2c8.8-2.1,18.2-1.6,27.2,1.5c8.5,3,16,8.4,21.8,15.8c0.6,0.8,0.5,1.9-0.3,2.5
				C-15.7-383.4-16-383.3-16.4-383.3z"/>
		</g>
	</g>
	<g id="g461_3_" transform="translate(406.1338,338.8818)">
		<g id="path463_3_">
			<path class="st8" d="M-353.1-242.8c-5.4,0-10.8-0.9-16.2-2.8c-12.1-4.3-21.7-13.1-27.2-24.7c-5.5-11.6-6.1-24.6-1.8-36.7
				c4.6-12.8,14.5-23.1,27-28.2c0.9-0.4,2,0.1,2.3,1c0.4,0.9-0.1,2-1,2.3c-11.6,4.7-20.7,14.3-25,26.1c-4,11.2-3.4,23.2,1.6,33.9
				c5.1,10.7,14,18.8,25.2,22.9c11.2,4,23.2,3.4,33.9-1.6c10.7-5.1,18.8-14,22.9-25.2c2.8-8,3.4-16.5,1.5-24.6
				c-0.2-1,0.4-1.9,1.4-2.2c1-0.2,1.9,0.4,2.2,1.4c2,8.8,1.4,18-1.6,26.6C-315-255-333.5-242.8-353.1-242.8z"/>
		</g>
	</g>
	<g id="g465_3_" transform="translate(274.7295,246.1509)">
		<g id="path467_3_">
			<path class="st8" d="M-221.8-184.4c-1.6,0-3.2-0.3-4.8-0.9c-7.3-2.7-10.9-10.5-8.3-17.7c2.7-7.3,10.5-10.9,17.7-8.3
				c1.8,0.6,3.5,1.7,5.1,3.3c0.7,0.7,0.7,1.8,0,2.5c-0.7,0.7-1.8,0.7-2.5,0c-1.2-1.2-2.4-2-3.8-2.4c-5.4-2-11.1,0.7-13.1,6.1
				c-1.9,5.3,0.8,11.1,6.1,13.1c5.3,1.9,11.1-0.8,13.1-6.1c0.5-1.4,0.7-2.9,0.6-4.1c-0.1-1,0.6-1.9,1.6-2c1-0.1,1.9,0.6,2,1.6
				c0.2,1.8-0.1,3.7-0.8,5.7C-211-187.8-216.2-184.4-221.8-184.4z"/>
		</g>
	</g>
	<g id="g469_3_" transform="translate(212.8672,239.4443)">
		<g id="path471_3_">
			<path class="st8" d="M-159.1-185.4c-0.7,0-1.3-0.1-2-0.3c-1.5-0.5-2.7-1.6-3.4-3.1c-0.7-1.5-0.7-3.2-0.2-4.7
				c0.6-1.5,1.7-2.7,3.1-3.3l60.6-28.6c1.5-0.7,3.1-0.8,4.6-0.2c1.5,0.5,2.7,1.6,3.4,3.1c1.4,3.1,0.2,6.6-2.9,8l-60.7,28.6
				C-157.3-185.6-158.2-185.4-159.1-185.4z M-98.3-222.5c-0.4,0-0.7,0.1-1.1,0.2l-60.7,28.6c0,0,0,0-0.1,0c-0.5,0.2-0.9,0.7-1.1,1.3
				c-0.2,0.6-0.2,1.3,0.1,1.9c0.3,0.6,0.8,1.1,1.3,1.3c0.6,0.2,1.3,0.2,1.9-0.1l60.7-28.6c1.2-0.6,1.7-2,1.2-3.2
				c-0.3-0.6-0.8-1-1.3-1.3C-97.8-222.5-98.1-222.5-98.3-222.5z M-160.9-195.3L-160.9-195.3L-160.9-195.3z"/>
		</g>
	</g>
	<g id="g473_3_" transform="translate(390.6611,419.603)">
		<g id="path475_3_">
			<path class="st8" d="M-289.8-397.2c-0.1,0-0.2,0-0.3,0c-1-0.2-1.6-1.1-1.5-2.1l2-11.2c0.2-1,1.1-1.6,2.1-1.5
				c1,0.2,1.6,1.1,1.5,2.1l-2,11.2C-288.2-397.8-288.9-397.2-289.8-397.2z"/>
		</g>
	</g>
	<g id="g477_3_" transform="translate(421.46,448.3306)">
		<g id="path479_3_">
			<path class="st8" d="M-333.1-419.5c-0.1,0-0.2,0-0.3,0c-1-0.2-1.6-1.1-1.4-2.1l2.2-11.9c0.1-0.6,0.5-1.1,1-1.3l21-9.9
				c0.6-0.3,1.3-0.2,1.9,0.2c0.5,0.4,0.8,1.1,0.7,1.8l-2.3,11.9c-0.2,1-1.1,1.6-2.1,1.4c-1-0.2-1.6-1.1-1.4-2.1l1.6-8.5l-17,8l-2,11
				C-331.5-420.1-332.2-419.5-333.1-419.5z"/>
		</g>
	</g>
	<g id="g481_3_" transform="translate(420.3096,389.9541)">
		<g id="path483_3_">
			<path class="st8" d="M-305.6-353.8c-0.3,0-0.6-0.1-0.9-0.2l-10.1-5.6c-0.9-0.5-1.2-1.6-0.7-2.4c0.5-0.9,1.6-1.2,2.4-0.7l10.1,5.6
				c0.9,0.5,1.2,1.6,0.7,2.4C-304.3-354.1-304.9-353.8-305.6-353.8z"/>
		</g>
	</g>
	<g id="g485_3_" transform="translate(449.2891,420.7114)">
		<g id="path487_3_">
			<path class="st8" d="M-346.9-378.4c-0.3,0-0.6-0.1-0.9-0.2l-10.5-5.9c-0.9-0.5-1.2-1.6-0.7-2.4c0.5-0.9,1.6-1.2,2.4-0.7l9.7,5.4
				l16.9-8l-7.5-4.2c-0.9-0.5-1.2-1.6-0.7-2.4c0.5-0.9,1.6-1.2,2.4-0.7l10.5,5.9c0.6,0.3,0.9,1,0.9,1.6c0,0.7-0.4,1.3-1,1.6
				l-20.8,9.9C-346.4-378.5-346.7-378.4-346.9-378.4z"/>
		</g>
	</g>
</g>
<g>
	<g>
		<g>
			<g>
				<g>
					<g>
						<path class="st9" d="M23.9,517.4l15.8,15.9c1.8,1.8,4.7,1.8,6.6,0c1.8-1.8,1.8-4.7,0-6.6l-15.8-15.9L23.9,517.4z"/>
						<path class="st10" d="M38.4,509.5l-6.6,6.6c-4.2,4.2-11,4.2-15.2,0s-4.2-11,0-15.2l6.6-6.6L38.4,509.5z"/>
						<path class="st9" d="M43.9,455.9l33,33.1c1.2,1.2,0.5,3.3-1.2,3.6c-15.1,2.1-23.4,3.2-34.4,14.1l-3,3l-15.2-15.2l3-3
							c10.9-10.9,12.1-19.2,14.2-34.3C40.6,455.3,42.7,454.6,43.9,455.9L43.9,455.9z"/>
						<path class="st11" d="M36.2,511.7l-4.4,4.4c-4.2,4.2-11,4.2-15.2,0c-2.1-2.1-3.1-4.9-3.1-7.6c0-2.8,1.1-5.5,3.2-7.6l4.4-4.4
							c-2.1,2.1-3.2,4.8-3.2,7.6c0,2.8,1,5.5,3.1,7.6C25.2,515.9,32,515.9,36.2,511.7z"/>
						<path class="st12" d="M43.9,455.9l33,33.1c1.2,1.2,0.5,3.3-1.2,3.6c-1.2,0.2-2.4,0.3-3.6,0.5l-32.3-32.4
							c0.2-1.1,0.3-2.3,0.5-3.5C40.6,455.3,42.7,454.6,43.9,455.9L43.9,455.9z"/>
					</g>
				</g>
			</g>
		</g>
	</g>
	<g>
		<g>
			<circle class="st13" cx="93.2" cy="503.9" r="23.4"/>
			<path class="st14" d="M103.2,525c-1.1,0.5-2.3,1-3.5,1.3c-12.4,3.6-25.4-3.6-29-16c-3.6-12.4,3.6-25.4,16-29
				c1.2-0.4,2.5-0.6,3.7-0.8c-10.2,4.8-15.7,16.5-12.5,27.6C81.1,519.5,92,526.4,103.2,525L103.2,525z"/>
			<path class="st14" d="M115.7,497.4c3.6,12.4-3.6,25.4-16,29c-1.2,0.4-2.5,0.6-3.7,0.8c10.2-4.8,15.7-16.5,12.5-27.7
				s-14.1-18.1-25.3-16.8c1.1-0.5,2.3-1,3.5-1.3C99.1,477.8,112.1,484.9,115.7,497.4z"/>
		</g>
	</g>
	<g>
		<g>
			<circle class="st13" cx="93.7" cy="427.7" r="19.2"/>
			<path class="st15" d="M101.9,445.1c-0.9,0.4-1.9,0.8-2.9,1.1c-10.2,2.9-20.8-2.9-23.7-13.1c-2.9-10.2,2.9-20.8,13.1-23.7
				c1-0.3,2-0.5,3-0.6c-8.4,3.9-12.9,13.5-10.2,22.6C83.8,440.5,92.7,446.2,101.9,445.1L101.9,445.1z"/>
			<path class="st14" d="M112.1,422.4c2.9,10.2-2.9,20.8-13.1,23.7c-1,0.3-2,0.5-3,0.6c8.4-3.9,12.9-13.5,10.2-22.7
				c-2.6-9.2-11.5-14.8-20.7-13.7c0.9-0.4,1.9-0.8,2.9-1.1C98.5,406.4,109.2,412.3,112.1,422.4L112.1,422.4z"/>
		</g>
	</g>
	<path class="st16" d="M71.3,462.5c-0.3,0-0.5-0.1-0.7-0.3c-0.4-0.4-0.4-1,0-1.4l8.6-8.5c0.2-0.2,0.4-0.3,0.7-0.3s0.5,0.1,0.7,0.3
		c0.4,0.4,0.4,1,0,1.4l-8.6,8.5C71.8,462.4,71.5,462.5,71.3,462.5L71.3,462.5z"/>
	<path class="st16" d="M63.3,454.5c-0.1,0-0.2,0-0.3-0.1c-0.5-0.2-0.8-0.7-0.6-1.2l4.5-12.7c0.1-0.4,0.5-0.7,0.9-0.7
		c0.1,0,0.2,0,0.3,0.1c0.2,0.1,0.4,0.3,0.6,0.5c0.1,0.2,0.1,0.5,0,0.7l-4.5,12.7C64.1,454.3,63.7,454.5,63.3,454.5L63.3,454.5z"/>
	<path class="st16" d="M79.3,470.5c-0.4,0-0.8-0.3-0.9-0.7c-0.2-0.5,0.1-1.1,0.6-1.2l12.7-4.4c0.1,0,0.2-0.1,0.3-0.1
		c0.4,0,0.8,0.3,0.9,0.7c0.2,0.5-0.1,1.1-0.6,1.2c-0.1,0-12.4,4.3-12.8,4.4C79.5,470.5,79.4,470.5,79.3,470.5L79.3,470.5z"/>
	<path class="st8" d="M45.2,492.4c-5.2,3.1-8.5,6.6-8.6,6.7c-0.7,0.8-0.7,2.1,0.1,2.8c0.8,0.7,2,0.7,2.8-0.1c0,0,3-3.2,7.7-6
		c0.9-0.5,1.3-1.8,0.7-2.7C47.4,492.2,46.2,491.9,45.2,492.4L45.2,492.4z"/>
	<path class="st8" d="M53.1,489c-0.2,0.1-0.5,0.1-0.7,0.2c-1,0.3-1.6,1.4-1.3,2.5c0.3,1,1.4,1.6,2.4,1.3c0,0,0.2-0.1,0.7-0.2
		c1-0.3,1.6-1.4,1.4-2.4C55.2,489.3,54.2,488.7,53.1,489L53.1,489z"/>
	<path class="st16" d="M43,535.6c-1.5,0-2.9-0.6-4-1.6l-13.8-13.8l-0.6,0.2c0,0-0.2,0.1-0.6,0.1c-1.6,0-5.4-0.7-8.2-3.5
		c-4.6-4.6-4.6-12,0-16.6l2.6-2.6c16-15.9,17.7-17.6,20.9-40.7c0.2-1.8,1.7-2.7,3.1-2.7c0.8,0,1.6,0.3,2.2,0.9l31.3,31.4l0.7-0.7
		c2.8-2.6,6.1-4.5,9.8-5.5c2.2-0.6,4.5-1,6.7-1c10.8,0,20.4,7.2,23.4,17.6c3.7,12.9-3.8,26.5-16.7,30.2c-2.2,0.6-4.5,1-6.7,1l0,0
		c-10.8,0-20.4-7.2-23.4-17.6c-1.4-4.9-1.3-10,0.4-14.9l0.6-1.6l-1.7,0.3c-16.9,2.6-22.1,7.9-27.5,13.4c-1.3,1.3-2.6,2.7-4.1,4
		l-1.7,1.5l2.3,0.2c0.8,0.1,1.5,0.2,2.1,0.2c1.4,0.2,2.5,0.3,3.4,0.3c1.7,0,2.8-0.4,3.9-1.5c0.2-0.2,0.4-0.3,0.7-0.3
		s0.5,0.1,0.7,0.3c0.4,0.4,0.4,1,0,1.4c-1.5,1.5-3.1,2.1-5.3,2.1c-1,0-2.1-0.1-3.1-0.3c-0.4,0-0.8-0.1-1.2-0.1l-2.8-0.3L47,526
		c2.2,2.2,2.2,5.8,0,7.9C45.9,535,44.5,535.6,43,535.6z M33,516.2c-1.4,1.4-1.9,1.9-4.1,3l-1.2,0.6l12.7,12.7
		c0.7,0.7,1.6,1.1,2.6,1.1s1.9-0.4,2.6-1.1c0.7-0.7,1.1-1.6,1.1-2.6s-0.4-1.9-1.1-2.6l-11.8-11.9L33,516.2z M93.2,481.4
		c-2.1,0-4.2,0.3-6.2,0.9c-5.8,1.7-10.5,5.5-13.4,10.7s-3.6,11.3-1.9,17c2.8,9.5,11.6,16.2,21.6,16.2c2.1,0,4.2-0.3,6.2-0.9
		c11.9-3.4,18.8-15.9,15.3-27.8C112,488.1,103.1,481.4,93.2,481.4z M17.3,501.6c-1.8,1.8-2.9,4.3-2.9,6.9s1,5.1,2.9,6.9
		c1.8,1.9,4.3,2.9,6.9,2.9s5-1,6.9-2.9l5.9-5.9l-13.8-13.8L17.3,501.6z M42.1,456.3c-0.5,0.2-0.8,0.5-0.8,1
		c-2.5,18-3.9,24.3-16,36.3l-0.7,0.7l13.8,13.9l0.7-0.7c10.9-10.9,17-13.1,32.3-15.3l0.5-0.1l0.2-0.4c0.6-1,1.2-2,2-2.9l0.5-0.7
		l-31.7-31.8h-0.5h-0.1H42.1z"/>
	<path class="st16" d="M93.7,447.9c-8.9,0-16.9-6-19.4-14.6c-3.1-10.7,3.1-21.9,13.8-24.9c1.8-0.5,3.7-0.8,5.6-0.8
		c8.9,0,16.9,6,19.4,14.6c1.5,5.2,0.9,10.6-1.7,15.3c-2.6,4.7-6.9,8.1-12,9.6C97.4,447.6,95.6,447.9,93.7,447.9L93.7,447.9z
		 M93.7,409.5c-1.7,0-3.4,0.2-5,0.7c-4.7,1.3-8.5,4.4-10.9,8.7s-2.9,9.2-1.6,13.8c2.2,7.7,9.4,13.2,17.5,13.2c1.7,0,3.4-0.2,5-0.7
		c4.7-1.3,8.5-4.4,10.9-8.7c2.4-4.3,2.9-9.2,1.6-13.8C108.9,415,101.7,409.5,93.7,409.5z"/>
	<g>
		<g>
			<path class="st8" d="M94.2,505.7c-3.4,1.1-7-0.8-8-4.2c-1.1-3.4,0.8-7,4.2-8c3.4-1.1,7,0.8,8,4.2c0.3,0.9-0.2,1.8-1.1,2.1
				s-1.8-0.2-2.1-1.1c-0.5-1.6-2.2-2.5-3.9-2c-1.6,0.5-2.5,2.2-2,3.9c0.5,1.6,2.2,2.5,3.9,2c0.9-0.3,1.8,0.2,2.1,1.1
				C95.5,504.5,95.1,505.4,94.2,505.7L94.2,505.7z"/>
		</g>
		<g>
			<path class="st8" d="M97,514.7c-3.4,1.1-7-0.8-8-4.2c-0.3-0.9,0.2-1.8,1.1-2.1c0.9-0.3,1.8,0.2,2.1,1.1c0.5,1.6,2.2,2.5,3.9,2
				c1.6-0.5,2.5-2.2,2-3.9c-0.5-1.6-2.2-2.5-3.9-2c-0.9,0.3-1.8-0.2-2.1-1.1c-0.3-0.9,0.2-1.8,1.1-2.1c3.4-1.1,7,0.8,8,4.2
				C102.3,510.1,100.4,513.7,97,514.7L97,514.7z"/>
		</g>
		<g>
			<path class="st8" d="M91.3,496.6c-0.9,0.3-1.8-0.2-2.1-1.1l-0.9-2.9c-0.3-0.9,0.2-1.8,1.1-2.1s1.8,0.2,2.1,1.1l0.9,2.9
				C92.7,495.4,92.2,496.3,91.3,496.6z"/>
		</g>
		<g>
			<path class="st8" d="M97.8,517.4c-0.9,0.3-1.8-0.2-2.1-1.1l-0.8-2.7c-0.3-0.9,0.2-1.8,1.1-2.1c0.9-0.3,1.8,0.2,2.1,1.1l0.8,2.7
				C99.2,516.2,98.7,517.1,97.8,517.4z"/>
		</g>
	</g>
	<g>
		<g>
			<path class="st8" d="M94.1,429.3c-3.1,1-6.3-0.8-7.3-3.8c-1-3.1,0.8-6.3,3.8-7.3s6.3,0.8,7.3,3.8c0.2,0.8-0.2,1.7-1,1.9
				c-0.8,0.2-1.7-0.2-1.9-1c-0.5-1.5-2-2.3-3.5-1.8s-2.3,2-1.8,3.5s2,2.3,3.5,1.8c0.8-0.2,1.7,0.2,1.9,1
				C95.3,428.2,94.9,429.1,94.1,429.3L94.1,429.3z"/>
		</g>
		<g>
			<path class="st8" d="M96.7,437.5c-3.1,1-6.3-0.8-7.3-3.8c-0.2-0.8,0.2-1.7,1-1.9c0.8-0.2,1.7,0.2,1.9,1c0.5,1.5,2,2.3,3.5,1.8
				s2.3-2,1.8-3.5s-2-2.3-3.5-1.8c-0.8,0.2-1.7-0.2-1.9-1c-0.2-0.8,0.2-1.7,1-1.9c3.1-1,6.3,0.8,7.3,3.8
				C101.5,433.3,99.7,436.6,96.7,437.5L96.7,437.5z"/>
		</g>
		<g>
			<path class="st8" d="M91.6,421c-0.8,0.2-1.7-0.2-1.9-1l-0.8-2.6c-0.2-0.8,0.2-1.7,1-1.9c0.8-0.2,1.7,0.2,1.9,1l0.8,2.6
				C92.8,419.9,92.4,420.8,91.6,421z"/>
		</g>
		<g>
			<path class="st8" d="M97.4,440c-0.8,0.2-1.7-0.2-1.9-1l-0.7-2.4c-0.2-0.8,0.2-1.7,1-1.9c0.8-0.2,1.7,0.2,1.9,1l0.7,2.4
				C98.7,438.9,98.2,439.7,97.4,440z"/>
		</g>
	</g>
</g>
<g>
	<g>
		<g>
			<path class="st17" d="M103.5,272.8l-61.6,36c-1.8,1.1-4.2,0.5-5.2-1.4L5.6,254.3l68.2-39.9l31.1,53.1
				C106,269.4,105.3,271.7,103.5,272.8z"/>
		</g>
		<g>
			<path class="st18" d="M104.9,267.6l-14.6-25l-8,4.7l5.3,9.1c0.5,0.9,0.2,2.1-0.7,2.6l-21.6,12.7l10.3,17.6l28-16.4
				C105.3,271.7,106,269.4,104.9,267.6z"/>
		</g>
		<g>
			<g>
				<g>
					<path class="st19" d="M86.9,259L38,287.5c-0.9,0.5-2.1,0.2-2.6-0.7L20,260.5c-0.5-0.9-0.2-2.1,0.7-2.6l48.8-28.6
						c0.9-0.5,2.1-0.2,2.6,0.7l15.4,26.4C88.1,257.3,87.8,258.4,86.9,259z"/>
				</g>
			</g>
		</g>
		<g>
			<g>
				<g>
					<path class="st12" d="M38.9,284.8l-15.4-26.4c-0.5-0.9-0.2-2.1,0.7-2.6l-3.5,2.1c-0.9,0.5-1.2,1.7-0.7,2.6l15.4,26.4
						c0.5,0.9,1.7,1.2,2.6,0.7l3.5-2.1C40.6,286,39.5,285.7,38.9,284.8z"/>
				</g>
			</g>
		</g>
		<g>
			<path class="st18" d="M41,304.9l-31-53.1l-4.3,2.5l31.1,53.1c1.1,1.8,3.4,2.4,5.2,1.4l4.3-2.5C44.4,307.3,42.1,306.7,41,304.9z"
				/>
		</g>
		<g>
			<g>
				<g>
					<path class="st20" d="M64.9,206.8l-61.6,36c-1.8,1.1-2.4,3.4-1.4,5.2l4.9,8.4L75,216.5l-4.9-8.4
						C69.1,206.3,66.7,205.7,64.9,206.8z"/>
				</g>
			</g>
		</g>
		<g>
			<g>
				<g>
					<path class="st21" d="M7.6,240.3l-4.3,2.5c-1.8,1.1-2.4,3.4-1.4,5.2l4.9,8.4l4.3-2.5l-4.9-8.4C5.2,243.7,5.8,241.4,7.6,240.3z"
						/>
				</g>
			</g>
		</g>
		<g>
			<g>
				<g>
					<path class="st12" d="M62.8,267.5l2.4,4.1L86.9,259c0.9-0.5,1.2-1.7,0.7-2.6l-5.3-9.1l-16.7,9.8
						C61.9,259.2,60.7,263.9,62.8,267.5z"/>
				</g>
			</g>
		</g>
		<g>
			<g>
				<g>
					<path class="st19" d="M59.5,290.6l-3.3-5.6c-0.4-0.6,0.1-1.4,0.8-1.4l9.2-0.6l-5,7.7C60.7,291.2,59.8,291.2,59.5,290.6
						L59.5,290.6z"/>
				</g>
			</g>
		</g>
		<g>
			<path class="st17" d="M54,267.1l7.1-12.1c0.4-0.6-0.1-1.5-0.8-1.4l-14,0.3c-0.7,0-1.2,0.8-0.8,1.4l6.9,11.8
				C52.7,267.8,53.6,267.8,54,267.1L54,267.1z"/>
		</g>
		<g>
			<g>
				<path class="st22" d="M127.2,280.1l-35.8,21c-1.4,0.8-3.1,0.3-3.9-1l-20.5-35c-0.8-1.4-0.3-3.1,1-3.9l35.8-21
					c1.4-0.8,3.1-0.3,3.9,1l20.5,35C129,277.6,128.5,279.3,127.2,280.1z"/>
			</g>
		</g>
		<g>
			<g>
				<path class="st23" d="M91,298l-20.5-35c-0.8-1.4-0.3-3.1,1-3.9l-3.6,2.1c-1.4,0.8-1.8,2.5-1,3.9l20.5,35c0.8,1.4,2.5,1.8,3.9,1
					l3.6-2.1C93.5,299.8,91.8,299.3,91,298z"/>
			</g>
		</g>
		<g>
			<g>
				<g>
					<path class="st19" d="M112.5,249.3l-8.1,4.7c-1.4,0.8-3.1,0.3-3.9-1l-4.7-8.1l8.1-4.7c1.4-0.8,3.1-0.3,3.9,1L112.5,249.3z"/>
				</g>
			</g>
		</g>
	</g>
	<g>
		<path class="st8" d="M73.2,288.8l-32,18.7c-1.1,0.7-2.6,0.3-3.3-0.9l-13.5-23.1c-0.4-0.7-1.3-0.9-2-0.5s-0.9,1.3-0.5,2l13.5,23.1
			c1.5,2.5,4.7,3.3,7.2,1.9l32-18.7c0.7-0.4,0.9-1.3,0.5-2C74.8,288.7,73.9,288.4,73.2,288.8z"/>
		<path class="st8" d="M20,278.8c0.7-0.4,0.9-1.3,0.5-2l-11.7-20l47.1-27.6c0.7-0.4,0.9-1.3,0.5-2s-1.3-0.9-2-0.5l-47,27.8l-4.2-7.1
			c-0.7-1.1-0.3-2.6,0.9-3.3l61.6-36c1.1-0.7,2.6-0.3,3.3,0.9l4.2,7.1l-12.3,7.2c-0.7,0.4-0.9,1.3-0.5,2s1.3,0.9,2,0.5l12.3-7.2
			l13.6,23.3c0.4,0.7,1.3,0.9,2,0.5s0.9-1.3,0.5-2l-19.2-32.9c-1.5-2.5-4.7-3.3-7.2-1.9l-61.6,36c-2.5,1.5-3.3,4.7-1.9,7.2L18,278.3
			C18.4,279,19.3,279.2,20,278.8L20,278.8z"/>
		<path class="st8" d="M9.1,246.1c-0.7,0.4-0.9,1.3-0.5,2s1.3,0.9,2,0.5l1.3-0.7c0.7-0.4,0.9-1.3,0.5-2c-0.4-0.7-1.3-0.9-2-0.5
			L9.1,246.1z"/>
		<path class="st8" d="M15.3,242.5c-0.7,0.4-0.9,1.3-0.5,2s1.3,0.9,2,0.5l1.3-0.7c0.7-0.4,0.9-1.3,0.5-2s-1.3-0.9-2-0.5L15.3,242.5z
			"/>
		<path class="st8" d="M21.4,238.9c-0.7,0.4-0.9,1.3-0.5,2s1.3,0.9,2,0.5l1.3-0.7c0.7-0.4,0.9-1.3,0.5-2s-1.3-0.9-2-0.5L21.4,238.9z
			"/>
		<g>
			<path class="st8" d="M60.3,291.5c-0.5,0-0.9-0.3-1.2-0.7l-1.4-2.5l-5.1,3c-0.1,0-0.1,0.1-0.2,0.1c-0.2,0-0.3-0.1-0.4-0.2
				c-0.1-0.1-0.1-0.3,0-0.3s0.1-0.2,0.2-0.3l5.1-3l-1.4-2.5c-0.2-0.4-0.3-0.9,0-1.3c0.2-0.4,0.6-0.7,1.1-0.7l9.1-0.6l3.1-1.8
				c0.1,0,0.1-0.1,0.2-0.1c0.2,0,0.3,0.1,0.4,0.2s0.1,0.3,0,0.3c0,0.1-0.1,0.2-0.2,0.3l-3.1,1.8l-5,7.6c-0.1,0.2-0.3,0.3-0.5,0.4
				C60.8,291.4,60.5,291.5,60.3,291.5L60.3,291.5z M56.1,284l4.2,7.1l5-7.7L56.1,284z"/>
			<path class="st8" d="M60.3,291.8L60.3,291.8c-0.7,0-1.2-0.3-1.5-0.9l-1.2-2.1l-4.8,2.8c-0.4,0.2-0.9,0.1-1.1-0.3
				c-0.1-0.2-0.1-0.4-0.1-0.6c0-0.1,0.1-0.3,0.4-0.5l4.8-2.8l-1.2-2.1c-0.3-0.5-0.3-1.2,0-1.7s0.8-0.9,1.4-0.9l9-0.6l3-1.7
				c0.4-0.2,0.9-0.1,1.1,0.3c0.1,0.2,0.1,0.4,0.1,0.6c-0.1,0.2-0.2,0.4-0.4,0.5l-3,1.7l-4.9,7.6c-0.2,0.2-0.4,0.4-0.6,0.6
				C60.9,291.7,60.6,291.8,60.3,291.8z M56,284.5c0,0.2,0.1,0.3,0.1,0.4l1.6,2.8l-5.5,3.2v0.1l5.5-3.2l1.6,2.8
				c0.1,0.1,0.2,0.3,0.3,0.3L56,284.5z M66,282.9l-5.2,8l0,0c0.1-0.1,0.2-0.2,0.3-0.3l5.1-7.7l3.1-1.8V281l-3.2,1.8l-9.1,0.6
				c-0.2,0-0.3,0.1-0.5,0.1L66,282.9z M56.7,284.3l3.5,6.1l4.3-6.6L56.7,284.3z"/>
		</g>
		<path class="st8" d="M43.2,300.1c0.7-0.4,0.9-1.3,0.5-2l-1.9-3.3c-0.4-0.7-1.3-0.9-2-0.5s-0.9,1.3-0.5,2l1.9,3.3
			C41.6,300.3,42.5,300.5,43.2,300.1z"/>
		<path class="st8" d="M48.5,295.4l-1.9-3.3c-0.4-0.7-1.3-0.9-2-0.5s-0.9,1.3-0.5,2l1.9,3.3c0.4,0.7,1.3,0.9,2,0.5
			S48.9,296.1,48.5,295.4z"/>
		<path class="st8" d="M60.2,252.2l-14,0.3c-0.9,0-1.6,0.5-2,1.2s-0.4,1.6,0,2.4l6.9,11.8c0.4,0.7,1.2,1.2,2.1,1.2
			c0.4,0,0.8-0.1,1.2-0.3c0.3-0.2,0.6-0.5,0.8-0.9l7.1-12.1c0.4-0.7,0.4-1.7,0-2.4C61.9,252.6,61.1,252.2,60.2,252.2L60.2,252.2z
			 M53.2,265.7l-6.1-10.4l12.3-0.2L53.2,265.7z"/>
		<path class="st8" d="M103.6,249.6L103.6,249.6c-0.2,0-0.3-0.1-0.4-0.2c0-0.1-0.1-0.2,0-0.3l0.4-1.6L102,247
			c-0.2,0-0.2-0.1-0.3-0.2c0-0.1-0.1-0.2,0-0.3c0-0.2,0.2-0.3,0.4-0.3h0.1l1.6,0.4l0.4-1.6c0-0.2,0.2-0.3,0.4-0.3h0.1
			c0.1,0,0.2,0.1,0.3,0.2c0,0.1,0.1,0.2,0,0.3l-0.4,1.6l1.6,0.4c0.2,0.1,0.4,0.3,0.3,0.5c0,0.1-0.1,0.2-0.2,0.3
			c-0.1,0-0.1,0.1-0.2,0.1H106l-1.6-0.4l-0.4,1.6c0,0.2-0.1,0.2-0.2,0.3C103.7,249.5,103.6,249.6,103.6,249.6z"/>
		<path class="st8" d="M86,285.4c0.2,0,0.3-0.1,0.5-0.2c0.5-0.3,0.8-0.9,0.7-1.5l-0.3-1.9l4.1-2.4l1.5,1.2c0.6,0.5,1.5,0.4,2-0.2
			s0.4-1.5-0.2-2l-9.2-7.4l0,0c-0.5-0.4-1.3-0.5-1.9-0.1l0,0c-0.6,0.3-0.9,1-0.8,1.7l0,0l1.9,11.6C84.5,285,85.2,285.5,86,285.4
			L86,285.4z M85.7,275.2l2.9,2.3l-2.2,1.3L85.7,275.2z"/>
		<path class="st8" d="M96.9,277.4c0.2,0.3,0.5,0.5,0.8,0.6c0.4,0.1,0.8,0,1.1-0.2l0,0c0.1,0,2-1.2,2.7-1.6c2.8-1.7,3.4-5.4,1.5-8.8
			c-2.1-3.5-5.5-4.7-8.5-3l-2.7,1.6c-0.3,0.2-0.6,0.5-0.7,0.9s0,0.8,0.2,1.1C91.4,267.9,96.8,277.3,96.9,277.4z M96,266.9
			c2.4-1.4,4.1,1.1,4.6,2c1,1.7,1.2,3.8-0.5,4.9c-0.3,0.2-0.9,0.5-1.5,0.9c-0.6-1.1-3.4-5.7-4-6.9L96,266.9z"/>
		<path class="st8" d="M111.4,267.3c-1,0.6-2.1,0.7-3,0.4c-0.8-0.2-1.6,0.2-1.8,0.9c-0.2,0.8,0.2,1.6,0.9,1.8
			c1.7,0.5,3.7,0.3,5.4-0.7c2-1.2,3-3.5,2.3-5.5c-0.6-1.5-2.2-2.9-5.2-2.4c-1.4,0.3-2.8,0.4-3.2,0.5c-0.4-0.1-0.5-0.3-0.6-0.5
			s-0.2-0.7,0.3-1.2c1.1-1.2,2.9-0.9,3-0.9c0.8,0.1,1.5-0.4,1.6-1.2c0.1-0.8-0.4-1.5-1.2-1.7c-0.1,0-3.4-0.5-5.6,1.8
			c-1.1,1.2-1.4,2.8-0.9,4.2c0.5,1.3,1.8,2.2,3.2,2.3c0.1,0,0.2,0,0.2,0c0.1,0,1.7-0.2,3.6-0.5c0.5-0.1,1.7-0.2,2,0.6
			C112.6,265.9,112.3,266.8,111.4,267.3L111.4,267.3z"/>
		<path class="st8" d="M103.1,239l-8.1,4.7l-9.8,5.7l-11.8-20.2c-0.9-1.6-3-2.1-4.6-1.2L20,256.6c-1.6,0.9-2.1,3-1.2,4.6l15.4,26.4
			c0.9,1.6,3,2.1,4.6,1.2l30.1-17.6l17.3,29.6c1.2,2,3.8,2.7,5.9,1.5l35.8-21c2-1.2,2.7-3.8,1.5-5.9l-8.8-15.1
			c-0.4-0.7-1.3-0.9-2-0.5s-0.9,1.3-0.5,2l8.8,15.1c0.4,0.7,0.2,1.6-0.5,2l-35.8,21c-0.7,0.4-1.6,0.2-2-0.5l-20.5-35
			c-0.4-0.7-0.2-1.6,0.5-2l26.5-15.5l4,6.9c1.2,2,3.8,2.7,5.9,1.5l6.9-4l2.7,4.7c0.4,0.7,1.3,0.9,2,0.5s0.9-1.3,0.5-2l-3.5-5.9
			l-4.7-8.1C107.8,238.5,105.1,237.8,103.1,239z M65.7,265.8l1.7,2.9l-30.1,17.6c-0.2,0.1-0.5,0.1-0.7-0.2l-15.4-26.4
			c-0.1-0.2-0.1-0.5,0.2-0.7l48.8-28.6c0.2-0.1,0.5-0.1,0.7,0.2l11.8,20.2l-15.5,9C65.2,261.1,64.5,263.8,65.7,265.8z M103.6,252.9
			c-0.7,0.4-1.6,0.2-2-0.5l-4-6.9l6.9-4c0.7-0.4,1.6-0.2,2,0.5l4,6.9L103.6,252.9z"/>
		<path class="st8" d="M117.1,270.4l-29.3,17.1c-0.7,0.4-0.9,1.3-0.5,2s1.3,0.9,2,0.5l29.3-17.1c0.7-0.4,0.9-1.3,0.5-2
			C118.6,270.2,117.8,270,117.1,270.4z"/>
		<path class="st8" d="M120.1,275.5l-29.3,17.1c-0.7,0.4-0.9,1.3-0.5,2s1.3,0.9,2,0.5l29.3-17.1c0.7-0.4,0.9-1.3,0.5-2
			S120.7,275.1,120.1,275.5z"/>
	</g>
</g>
</svg>
