<?xml version="1.0" encoding="utf-8"?>
<!-- Generator: Adobe Illustrator 25.0.0, SVG Export Plug-In . SVG Version: 6.00 Build 0)  -->
<svg version="1.1" id="Layer_1" xmlns="http://www.w3.org/2000/svg" xmlns:xlink="http://www.w3.org/1999/xlink" x="0px" y="0px"
	 viewBox="0 0 433.9 430" style="enable-background:new 0 0 433.9 430;" xml:space="preserve">
<style type="text/css">
	.st0{fill:#FFEAA7;}
	.st1{fill:#FCD770;}
	.st2{fill:#B4DD7F;}
	.st3{fill:#A0D468;}
	.st4{fill:#E6E9ED;}
	.st5{fill:#CCD1D9;}
	.st6{fill:#69D6F4;}
	.st7{fill:#656D78;}
	.st8{fill:#F0D0B4;}
	.st9{fill:#35414D;}
	.st10{clip-path:url(#SVGID_2_);}
	.st11{fill:#C7F0FE;}
	.st12{fill:#9AE6FB;}
	.st13{fill:#6CF5C2;}
	.st14{fill:#00F2A6;}
	.st15{fill:#05E29C;}
	.st16{fill:#DFF6FE;}
	.st17{fill:#FE9A9F;}
	.st18{fill:#FD8087;}
	.st19{fill:#FE646E;}
	.st20{fill:#9CF8D3;}
	.st21{fill:none;stroke:#35414D;stroke-width:7.2515;stroke-linecap:round;stroke-linejoin:round;stroke-miterlimit:13.3333;}
	.st22{fill:#FFCC66;}
	.st23{fill:#6FABE6;}
	.st24{fill:#82BCF4;}
	.st25{fill:#FFDE76;}
	.st26{fill:#9DCC6B;}
	.st27{fill:#B5E08C;}
</style>
<g>
	<g>
		<g>
			<path class="st0" d="M137.7,284.4l12.1,84.5v0.1c-1.3-0.5-2.7-0.7-4.1-0.7c-5,0-9.4,2.8-11.6,7.1l-3.4,6.8h-21l14-97.8H137.7z"/>
		</g>
		<g>
			<path class="st1" d="M149.9,266l-12.2,18.4h-14l-12.2-18.3l19.2-9.6L149.9,266z"/>
		</g>
		<g>
			<path class="st2" d="M172.6,347.3v36.1v0.1c-2.2-0.8-4.5-1.3-7-1.3h-7v-1c0-5.7-3.7-10.5-8.9-12.2v-0.1l-12.1-84.5l12.2-18.4
				l22.7,11.4V347.3z"/>
		</g>
		<g>
			<path class="st2" d="M111.5,266.1l12.2,18.3l-14,97.8h-21V277.4L111.5,266.1z"/>
		</g>
		<g>
			<path class="st3" d="M172.6,228.5v48.9L149.9,266l-19.2-9.6l27.9-27.9H172.6z"/>
		</g>
		<g>
			<path class="st3" d="M130.7,256.5l-19.2,9.6l-22.7,11.3v-46.9c4.5-1,9.2-1.6,14-2L130.7,256.5z"/>
		</g>
		<g>
			<path class="st4" d="M200.6,228.5c61.8,0,111.8-50,111.8-111.8v21c0,3.8,1.5,7.3,4.1,9.9c2.5,2.6,6,4.1,9.9,4.1
				c7.7,0,14-6.3,14-14v-14c0,3.8,1.5,7.3,4.1,9.9c2.5,2.6,6,4.1,9.9,4.1v19.4c0,46.2-21.5,88.2-55.9,115.3l-1-0.5
				c0-3.8-0.2,1.8-4,1.8l-5.6,3.7c-3.8,0-7.9,2.7-7.9,6.6l-9.4,5.7c-10.7,5-22.1,8.9-34.1,11.3l-21.8,4.3v34.9h-34.9
				c-3.8,0-7,3.1-7,7v-69.9v-48.9L200.6,228.5z"/>
		</g>
		<g>
			<path class="st4" d="M88.8,382.2h21h21v41.9H74.8C36.3,424.2,5,392.9,5,354.3v-20.7c0-50.5,35.6-93.2,83.8-103.1v46.9V382.2z"/>
		</g>
		<g>
			<path class="st5" d="M340.3,46.9v34.9h-27.9V46.9c0-7.7,6.3-14,14-14c3.8,0,7.3,1.5,9.9,4.1C338.8,39.6,340.3,43,340.3,46.9z"/>
		</g>
		<g>
			<path class="st6" d="M340.3,123.7v14c0,7.7-6.3,14-14,14c-3.8,0-7.3-1.5-9.9-4.1c-2.6-2.5-4.1-6-4.1-9.9v-21v-21v-14h27.9v14
				V123.7z"/>
		</g>
		<g>
			<path class="st7" d="M242.5,116.8c0,23.1-18.8,41.9-41.9,41.9c-0.1,0-0.3,0-0.4,0h-0.1c0.3-2,0.5-4.1,0.5-6.1v-23v-0.1
				c8.2-2.8,14-10.5,14-19.7s-5.8-16.9-14-19.7V90V74.8c0-7.7-6.3-14-14-14h-27.9h-27.9c-15.4,0-27.9,12.5-27.9,27.9v14H92.1
				c-9.5,0-17.3,7.8-17.3,17.3c0,6.6,3.7,12.5,9.6,15.4l18.4,9.2v52.1c-4.1,2.4-8.9,3.8-14,3.8c-15.4,0-27.9-12.5-27.9-27.9
				c-15.4,0-27.9-12.5-27.9-27.9c0-7.5,2.9-14.2,7.7-19.2c-12.9-7.1-21.7-20.9-21.7-36.7c0-23.1,18.8-41.9,41.9-41.9
				C60.9,23.8,79.7,5,102.8,5c10.8,0,20.5,4.1,27.9,10.8C138.1,9,147.9,5,158.7,5c13,0,24.5,5.9,32.3,15.2c3.1-0.8,6.3-1.2,9.6-1.2
				c23.1,0,41.9,18.8,41.9,41.9c0,10.8-4.1,20.5-10.8,27.9C238.5,96.2,242.5,106,242.5,116.8z"/>
		</g>
		<g>
			<path class="st8" d="M200.6,90L200.6,90c-2.2-0.8-4.5-1.2-7-1.2c-9.2,0-16.9,5.8-19.7,14h-0.1h-30.3l-0.1,0.1
				c-2.8-8.2-10.5-14-19.7-14c-9.3,0-17.1,6-19.8,14.4l-1.1-0.4v-14c0-15.4,12.5-27.9,27.9-27.9h27.9h27.9c7.7,0,14,6.3,14,14V90z"
				/>
		</g>
		<g>
			<path class="st8" d="M200.6,129.5v23c0,2.1-0.1,4.1-0.5,6.1c-2.9,23.4-22.6,41.5-46.7,41.8v0.1l5.3,27.9l-27.9,27.9l-27.9-27.9
				v-31.7v-52.1l-18.4-9.2c-5.9-2.9-9.6-8.9-9.6-15.4c0-9.5,7.8-17.3,17.3-17.3h10.7l1.1,0.4c-0.8,2-1.1,4.3-1.1,6.6
				c0,11.6,9.4,21,21,21s21-9.4,21-21c0-2.4-0.4-4.8-1.3-6.9l0.1-0.1h30.3h0.1c-0.8,2.2-1.3,4.5-1.3,7c0,11.6,9.4,21,21,21
				C196,130.7,198.4,130.3,200.6,129.5L200.6,129.5z"/>
		</g>
		<g>
			<path class="st6" d="M193.6,88.8c2.4,0,4.8,0.4,7,1.3c8.2,2.8,14,10.5,14,19.7s-5.8,16.9-14,19.7c-2.2,0.8-4.5,1.3-7,1.3
				c-11.6,0-21-9.4-21-21c0-2.4,0.4-4.8,1.3-7C176.7,94.6,184.4,88.8,193.6,88.8z"/>
		</g>
		<g>
			<path class="st6" d="M143.4,102.8c0.8,2.2,1.3,4.5,1.3,6.9c0,11.6-9.4,21-21,21s-21-9.4-21-21c0-2.3,0.3-4.5,1.1-6.6
				c2.7-8.4,10.5-14.4,19.8-14.4C132.9,88.8,140.6,94.7,143.4,102.8z"/>
		</g>
		<g>
			<path class="st8" d="M368.3,123.7c0,7.7-6.3,14-14,14c-3.8,0-7.3-1.5-9.9-4.1c-2.6-2.5-4.1-6-4.1-9.9V95.8c0-7.7,6.3-14,14-14
				c3.8,0,7.3,1.5,9.9,4.1c2.6,2.5,4.1,6,4.1,9.9V123.7z"/>
		</g>
		<g>
			<path class="st8" d="M308.2,85.9c2.6,2.5,4.1,6,4.1,9.9c0,3.8-1.5,7.3-4.1,9.9c-2.5,2.6-6,4.1-9.9,4.1c-7.7,0-14-6.3-14-14
				c0-3.8,1.5-7.3,4.1-9.9c2.5-2.6,6-4.1,9.9-4.1C302.2,81.8,305.7,83.4,308.2,85.9z"/>
		</g>
		<g>
			<path class="st8" d="M186.6,403.2c0,7.3-3.6,13.6-9.2,17.4h-0.1c-3.4,2.2-7.3,3.6-11.7,3.6h-34.9v-41.9l3.4-6.8
				c2.2-4.3,6.6-7.1,11.6-7.1c1.4,0,2.8,0.2,4.1,0.7c5.2,1.7,8.9,6.5,8.9,12.2v1h7c2.4,0,4.8,0.4,7,1.3c3,1,5.7,2.7,7.8,4.9
				C184.2,392.2,186.6,397.4,186.6,403.2z"/>
		</g>
	</g>
	<path class="st9" d="M151.7,177.6c-10.4,0-19.7-5.7-24.5-14.9l8.9-4.4c3.1,5.8,9,9.4,15.6,9.4c6.6,0,12.6-3.6,15.6-9.4l8.9,4.4
		C171.4,171.9,162.1,177.6,151.7,177.6z"/>
	<g>
		<g>
			<path class="st9" d="M74.8,429.1C33.6,429.1,0,395.6,0,354.3v-20.7c0-55.1,41.3-102.1,96.1-109.2l1.8-0.2v-19.8l-2.4,0.5
				c-2.4,0.5-4.6,0.7-6.6,0.7c-15.9,0-29.5-11.3-32.4-26.9l-0.3-1.4l-1.4-0.3c-15.6-2.9-26.9-16.5-26.9-32.4
				c0-5.8,1.5-11.5,4.4-16.4l0.9-1.5l-1.4-1.1C20.5,116.7,14,103.3,14,88.8c0-23.4,17.5-43.3,40.6-46.5l1.5-0.2l0.2-1.5
				C59.4,17.5,79.4,0,102.8,0c9.6,0,18.9,2.9,26.8,8.5l1.2,0.8l1.2-0.8C139.8,2.9,149,0,158.7,0c12.6,0,24.5,4.9,33.3,13.9l0.7,0.7
				l1-0.2c2.4-0.4,4.8-0.5,7.1-0.5c25.7,0,46.6,21,46.6,46.9c0,9.6-2.9,18.9-8.5,26.8l-0.8,1.2L239,90c5.5,7.9,8.5,17.2,8.5,26.8
				c0,23.9-17.9,43.9-41.7,46.6l-1.4,0.2l-0.3,1.4c-5,20.7-21.7,36.3-42.7,39.9l-2,0.3l3.5,18.4h37.8c58.9,0,106.8-47.9,106.8-106.8
				v-4.1l-2.7,1c-2.2,0.8-4.3,1.2-6.3,1.2c-10.4,0-18.9-8.5-18.9-19s8.5-18.9,18.9-18.9c2,0,4.1,0.4,6.3,1.2l2.7,1V46.9
				c0-10.3,8.4-18.8,18.6-18.9l0.3,0c10.3,0,19,8.9,19,19.5V79l2.7-1c2.2-0.8,4.3-1.2,6.3-1.2c10.4,0,19,8.5,19,19v27.9
				c0,7.9-5.1,15.1-12.6,17.8l-1.3,0.5v15.2c0,38.3-12,72.2-34.8,98.1c-8.3,9.4-18.4,17.7-30.1,24.6l-19.9,11.7
				c-14.7,7.5-24.4,11.8-36.8,14.3c-0.1,0-18.1,3.6-18.1,3.6v35.8h-41.9v35l1,0.6c8,4.7,13,13.2,13,22.3c0,0.5,0,0.9,0,1.4
				c-0.3,5.5-2.8,10.9-7,15.1c-1,1.1-2,2-3,2.9c-4.5,4.2-10.2,6.5-15.8,6.5H74.8z M145.7,373.2c-3,0-5.8,1.7-7.1,4.4l-2.9,5.8v35.8
				h30c8.8,0,16-7.2,16-16c0-8.8-7.2-16-16-16h-12v-6C153.7,376.8,150.1,373.2,145.7,373.2z M81.2,237.6
				c-42,12.8-71.3,52.2-71.3,95.9v20.7c0,35.8,29.1,64.9,64.9,64.9h50.9v-32H74.8c-18.1,0-32.9-14.8-32.9-32.9v-46.9h9.9v46.9
				c0,12.7,10.3,23,23,23h9V236.9L81.2,237.6z M142.9,285.6l11.4,79.9l0.8,0.5c3.7,2.3,6.4,5.8,7.7,9.8l0.4,1.4h4.4v-96.8l-16-8
				L142.9,285.6z M115.5,377.3h12.2l2-4.1c2.4-4.9,7-8.3,12.4-9.4l1.9-0.4l-10.6-74H128L115.5,377.3z M93.8,280.5v96.8h11.7
				l13.1-91.7l-8.7-13.1L93.8,280.5z M177.6,335.3h32v-55.9h9.9v19.9l15.8-3.2c9.7-2,19.4-5,28.8-9.1c1.5-0.5,16.5-5.9,41.4-27.5
				c28.2-27,43.7-63.3,43.7-102.3V142l-1.3-0.5c-0.2-0.1-0.3-0.1-0.5-0.2c-0.1,0-0.1,0-0.2-0.1l-2.1-0.8l-0.6,2.2
				c-2.2,8.3-9.7,14-18.2,14c-4.2,0-8.3-1.5-11.8-4.2l-2.3-1.8l-0.9,2.7c-15.9,47.9-60.4,80.2-110.8,80.2h-23V335.3z M118.8,268
				l7.6,11.4h8.7l7.6-11.4l-12-6L118.8,268z M100,233.9c-1.7,0.2-3.1,0.3-4.5,0.5l-1.7,0.3v34.7l28.6-14.3L101,233.8L100,233.9z
				 M139.1,255.1l28.6,14.3v-35.9h-6.9L139.1,255.1z M107.7,226.5l23,23l22.6-22.6l-4.1-21.6l-1.5-0.1c-4.7-0.4-8.5-1.2-12-2.3
				l-11.6-3.9l3.1-9.4l11.6,3.9c4.4,1.5,9,2.2,13.6,2.2c23.8,0,43.1-19.3,43.1-43.1v-16.8h-2c-14.3,0-25.9-11.6-25.9-25.9v-2h-18v2
				c0,14.3-11.6,25.9-25.9,25.9s-25.9-11.6-25.9-25.9v-2h-5.7c-6.8,0-12.3,5.5-12.3,12.3c0,4.7,2.6,8.9,6.8,11l21.1,10.6V226.5z
				 M65.8,172.6c0,12.7,10.3,23,23,23c2.4,0,4.9-0.5,7.7-1.5l1.3-0.5v-45.9l-15.7-7.8c-7.6-3.8-12.3-11.4-12.3-19.9
				c0-12.3,10-22.2,22.2-22.2h5.7v-9c0-18.1,14.8-32.9,32.9-32.9h11.1l-1-2.7c-0.8-2.2-1.2-4.3-1.2-6.3c0-10.4,8.5-18.9,19-18.9h5
				v9.9h-5c-5,0-9,4-9,9c0,5,4,9,9,9h27.9c10.4,0,18.9,8.5,18.9,18.9v12l1,0.6c8.1,4.7,13,13.1,13,22.3s-4.8,17.6-13,22.3l-1,0.6
				v20.8l2.4-0.5c17.1-3.5,29.6-18.7,29.6-36.2c0-9.1-3.4-17.8-9.5-24.6l-3-3.3l3-3.3c6.1-6.8,9.5-15.5,9.5-24.6
				c0-20.4-16.4-37-36.6-37c-2.9,0-5.9,0.4-8.9,1l-3,0.7l-2-2.4c-7.1-8.5-17.4-13.3-28.4-13.3c-9.1,0-17.8,3.4-24.6,9.5l-3.3,3
				l-3.3-3c-6.8-6.1-15.6-9.5-24.6-9.5c-20.4,0-36.9,16.6-36.9,36.9v5h-5c-20.4,0-36.9,16.6-36.9,36.9c0,13.5,7.3,25.9,19.1,32.4
				l5.6,3.1l-4.4,4.7c-4.1,4.3-6.3,9.9-6.3,15.8c0,12.7,10.3,23,23,23h5V172.6z M317.3,137.7c0,5,4,9,9,9c5,0,9-4,9-9V86.8h-18
				V137.7z M354.3,86.8c-5,0-9,4-9,9v27.9c0,5,4,9,9,9c5,0,9-4,9-9V95.8C363.3,90.8,359.3,86.8,354.3,86.8z M193.6,93.8
				c-8.8,0-16,7.2-16,16s7.2,16,16,16s16-7.2,16-16S202.4,93.8,193.6,93.8z M123.7,93.8c-8.8,0-16,7.2-16,16s7.2,16,16,16
				s16-7.2,16-16S132.6,93.8,123.7,93.8z M298.4,86.8c-5,0-9,4-9,9c0,5,4,9,9,9c5,0,9-4,9-9C307.4,90.8,303.4,86.8,298.4,86.8z
				 M123.7,83.8c9.2,0,17.6,4.8,22.3,13l0.6,1h24.1l0.6-1c4.7-8.1,13.1-13,22.3-13h2v-9c0-5-4-9-9-9h-55.9
				c-11.3,0-20.8,8.2-22.6,19.4l-0.7,4.1l3.6-2.1C115.1,85,119.4,83.8,123.7,83.8z M326.3,37.9c-5,0-9,4-9,9v30h18v-30
				C335.3,41.9,331.3,37.9,326.3,37.9z"/>
		</g>
	</g>
	<g id="g1931_2_">
		<g>
			<defs>
				<rect id="SVGID_1_" x="186.4" y="158.6" width="247.5" height="271.4"/>
			</defs>
			<clipPath id="SVGID_2_">
				<use xlink:href="#SVGID_1_"  style="overflow:visible;"/>
			</clipPath>
			<g id="g1933_2_" class="st10">
				<g id="g1939_2_" transform="translate(410.5654,284.6162)">
					<path id="path1941_2_" class="st11" d="M-25.7,7.8c-0.4-0.1-0.7-0.5-0.7-1l0-0.3V-8.7l2.9-12.2c0.6-2.3-1.2-4.6-3.6-4.6h-45.4
						c-2.4,0-4.2,2.2-3.6,4.6l2.9,12.2V6.6c0,0.4-0.3,0.8-0.7,1c-27,9.8-46.3,35.7-46.3,66.1c0.1,38.6,31.4,69.8,70,69.8
						c38.7,0,70-31.4,70-70C19.9,43.4,0.9,17.7-25.7,7.8"/>
				</g>
				<g id="g1943_2_" transform="translate(243.1699,128.1421)">
					<path id="path1945_2_" class="st12" d="M60.7,239.9c-0.1-28.5,16.9-53.1,41.3-64.1c3.4-1.5,5.7-4.9,5.7-8.7v-6.6
						c0-2-0.2-3.9-0.7-5.8l-0.1-0.5c-1.6-6.8,3.6-13.4,10.6-13.4h25.2l1.2-5.2c0.6-2.3-1.2-4.6-3.6-4.6H94.9c-2.4,0-4.2,2.2-3.6,4.6
						l2.9,12.2V163c0,0.4-0.3,0.8-0.7,1c-27,9.8-46.3,35.7-46.3,66.1c0.1,26.3,14.6,49.2,36.1,61.1
						C69.5,278.5,60.8,260.2,60.7,239.9"/>
				</g>
				<g id="g1947_2_" transform="translate(305.2617,161.3232)">
					<path id="path1949_2_" class="st13" d="M28.7,190.7l11.4-5.7c12.8-6.3,27.8-6.6,40.8-0.7c7,3.2,14.7,4.6,22.2,4.1l3.7-0.5
						c1.8-0.2,3.3,1.1,3.5,2.8c0.1,1.5,0.2,3,0.2,4.6c0,28.9-22.4,52.7-50.7,54.8H15.8v-58.5L28.7,190.7z"/>
				</g>
				<g id="g1951_2_" transform="translate(385.2588,40.6255)">
					<path id="path1953_2_" class="st14" d="M-12.7,369.7c0.8-6.1-0.5-12.4-4-17.8l-28.1-43.8l-6.5,3.2l-12.8,1v58.5h43.9
						C-17.7,370.7-15.1,370.3-12.7,369.7"/>
				</g>
				<g id="g1955_2_" transform="translate(383.3164,19.1528)">
					<path id="path1957_2_" class="st12" d="M-11.7,401.6c5.2-9.4,4.8-20.5-1-29.5l-55.6-86.5C-83.4,298.4-93,317.7-93,339.1
						c0.1,38.6,31.4,69.8,70,69.8c2,0,3.9-0.1,5.9-0.2C-14.9,406.7-13.1,404.3-11.7,401.6"/>
				</g>
				<g id="g1959_2_" transform="translate(390.457,41.9033)">
					<path id="path1961_2_" class="st15" d="M-15.3,367.8c0.7-6.4-0.9-12.8-4.5-18.5l-28-43.5l-8.7,4.3l-12.8,1v58.5h43.9
						C-22,369.3-18.6,368.7-15.3,367.8"/>
				</g>
				<g id="g1963_2_" transform="translate(364.3203,69.3599)">
					<path id="path1965_2_" class="st16" d="M-1.8,327.1c8.2,12.8-1,29.7-16.2,29.7h-137c-15.2,0-24.4-16.8-16.2-29.7l56.6-88.1
						c1-1.6,1.6-3.5,1.6-5.4V184h53v49.6c0,1.9,0.6,3.8,1.6,5.4L-1.8,327.1z"/>
				</g>
				<g id="g1967_2_" transform="translate(206.377,350.9639)">
					<path id="path1969_2_" class="st11" d="M79.7-90.6v-3.2H44.9V-48c0,1.9-0.6,3.8-1.6,5.4l-56.6,88.1c-8.2,12.8,1,29.7,16.2,29.7
						h23.2c-7.5-5.7-10.4-16.8-4.6-25.8l56.6-88.1c1-1.6,1.6-3.5,1.6-5.4L79.7-90.6L79.7-90.6z"/>
				</g>
				<g id="g1971_2_" transform="translate(339.0801,53.1499)">
					<path id="path1973_2_" class="st17" d="M11.2,351.2c1.3,2.1,0.7,3.9,0.2,4.8c-0.5,0.9-1.7,2.5-4.2,2.5h-137
						c-2.5,0-3.7-1.6-4.2-2.5c-0.5-0.9-1.2-2.8,0.2-4.8l42.7-66.4c1-1.5,2.7-2.5,4.5-2.4c6,0,11.9,0.9,17.6,2.8v0
						c10.9,3.6,22.6,3.7,33.5,0.6c2.3-0.7,4.7,0.2,6,2.2L11.2,351.2z"/>
				</g>
				<g id="g1975_2_" transform="translate(339.0801,53.1499)">
					<path id="path1977_2_" class="st17" d="M11.2,351.2c1.3,2.1,0.7,3.9,0.2,4.8c-0.5,0.9-1.7,2.5-4.2,2.5h-137
						c-2.5,0-3.7-1.6-4.2-2.5c-0.5-0.9-1.2-2.8,0.2-4.8l42.7-66.4c1-1.5,2.7-2.5,4.5-2.4c6,0,11.9,0.9,17.6,2.8v0
						c10.9,3.6,22.6,3.7,33.5,0.6c2.3-0.7,4.7,0.2,6,2.2L11.2,351.2z"/>
				</g>
				<g id="g1979_2_" transform="translate(86.0264,61.3584)">
					<path id="path1981_2_" class="st18" d="M141.9,339l40.3-62.7c-5.1-1.5-10.4-2.2-15.7-2.2c-1.8,0-3.5,0.9-4.5,2.4l-42.7,66.4
						c-1.3,2.1-0.7,3.9-0.2,4.8c0.5,0.9,1.7,2.5,4.2,2.5h15.6C138.7,346.5,139.6,342.6,141.9,339"/>
				</g>
				<g id="g1983_2_" transform="translate(339.0801,53.1499)">
					<path id="path1985_2_" class="st18" d="M11.2,351.2c1.3,2.1,0.7,3.9,0.2,4.8c-0.5,0.9-1.7,2.5-4.2,2.5h-137
						c-2.5,0-3.7-1.6-4.2-2.5c-0.5-0.9-1.2-2.8,0.2-4.8l12.5-19.5l21.3-5.1c10.2-2.4,20.9-2,30.9,1.3c5.8,1.9,11.8,2.8,17.7,2.8
						c8.2,0,16.3-1.7,23.8-5.2l16.7-7.6l0.4-0.2L11.2,351.2z"/>
				</g>
				<g id="g1987_2_" transform="translate(86.0264,61.3584)">
					<path id="path1989_2_" class="st19" d="M141.9,339l13.6-21.1c-0.8,0.1-1.5,0.3-2.3,0.5l-21.3,5.1l-12.5,19.5
						c-1.3,2.1-0.7,3.9-0.2,4.8c0.5,0.9,1.7,2.5,4.2,2.5h15.6C138.7,346.5,139.6,342.6,141.9,339"/>
				</g>
				<g id="g1991_2_" transform="translate(241.75,351.3848)">
					<path id="path1993_2_" class="st12" d="M61.5-91.3H10.6c-3.8,0-6.9-3.1-6.9-6.9c0-3.8,3.1-6.9,6.9-6.9h50.9
						c3.8,0,6.9,3.1,6.9,6.9S65.3-91.3,61.5-91.3"/>
				</g>
				<g id="g1995_2_" transform="translate(422.5625,116.8135)">
					<path id="path1997_2_" class="st15" d="M-31.9,256.7c0,5.8-4.7,10.5-10.5,10.5c-5.8,0-10.5-4.7-10.5-10.5
						c0-5.8,4.7-10.5,10.5-10.5C-36.6,246.2-31.9,250.9-31.9,256.7"/>
				</g>
				<g id="g2003_2_" transform="translate(212.9639,436.9307)">
					<path id="path2005_2_" class="st17" d="M96.9-218.6c0,6.4-5.2,11.5-11.5,11.5c-6.4,0-11.5-5.2-11.5-11.5
						c0-6.4,5.2-11.5,11.5-11.5C91.8-230.2,96.9-225,96.9-218.6"/>
				</g>
				<g id="g2007_2_" transform="translate(384.7354,414.1245)">
					<path id="path2009_2_" class="st20" d="M-6.2-184.3c0,6.4-5.2,11.5-11.5,11.5c-6.4,0-11.5-5.2-11.5-11.5
						c0-6.4,5.2-11.5,11.5-11.5C-11.4-195.8-6.2-190.7-6.2-184.3"/>
				</g>
				<g id="g2011_2_" transform="translate(144.7207,487.7964)">
					<path id="path2013_2_" class="st17" d="M237.9-308.2c0,4.3-3.5,7.8-7.8,7.8c-4.3,0-7.8-3.5-7.8-7.8c0-4.3,3.5-7.8,7.8-7.8
						C234.4-316,237.9-312.5,237.9-308.2"/>
				</g>
				<g id="g2015_2_" transform="translate(134.334,286.1938)">
					<path id="path2017_2_" class="st21" d="M117,5.5v14.2l-58.2,90.6c-8.2,12.8,1,29.7,16.2,29.7h137c15.2,0,24.4-16.8,16.2-29.7
						l-36.5-56.9"/>
				</g>
				<g id="g2019_2_" transform="translate(271.4863,213.9141)">
					<path id="path2021_2_" class="st21" d="M46.1,112.7L32.8,92V46.2h-53v16.1"/>
				</g>
				<g id="g2023_2_" transform="translate(339.082,53.147)">
					<path id="path2025_2_" class="st21" d="M11.2,351.2l-42.8-66.7c-12,4.4-25.1,4.6-37.3,0.6h0c-6.7-2.2-13.7-3.1-20.6-2.7
						l-44.2,68.8c-1.3,2.1-0.7,3.9-0.2,4.8c0.5,0.9,1.7,2.5,4.2,2.5h137c2.5,0,3.7-1.6,4.2-2.5C11.9,355.1,12.5,353.2,11.2,351.2z"
						/>
				</g>
				<g id="g2031_2_" transform="translate(341.002,9.3032)">
					<path id="path2033_2_" class="st21" d="M10.2,416.2c3.1,0.4,6.3,0.7,9.5,0.7c38.4,0,69.5-31.1,69.5-69.5
						c0-30.2-19.2-55.8-46.1-65.5v-15.3l2.9-12.2c0.6-2.3-1.2-4.6-3.6-4.6H-3c-2.4,0-4.2,2.2-3.6,4.6l2.9,12.2v15.3
						c-11.5,4.1-21.6,11.2-29.4,20.3"/>
				</g>
				<g id="g2035_2_" transform="translate(241.75,351.3848)">
					<path id="path2037_2_" class="st21" d="M61.5-91.3H10.6c-3.8,0-6.9-3.1-6.9-6.9c0-3.8,3.1-6.9,6.9-6.9h50.9
						c3.8,0,6.9,3.1,6.9,6.9S65.3-91.3,61.5-91.3z"/>
				</g>
				<g id="g2039_2_" transform="translate(369.5078,38.291)">
					<path id="path2041_2_" class="st21" d="M-4.5,373.2c9.7-0.7,18.7-4,26.4-9.2"/>
				</g>
				<g id="g2043_2_" transform="translate(448.0918,78.9561)">
					<path id="path2045_2_" class="st21" d="M-45.1,312.9c8-9.5,12.8-21.8,12.8-35.2c0-1.5-0.1-3.1-0.2-4.6c-0.1-1.8-1.7-3-3.5-2.8
						l-3.7,0.5c-7.6,0.4-15.2-1-22.2-4.1h0c-13-5.9-28-5.6-40.8,0.7l-11.4,5.7"/>
				</g>
				<g id="g2047_2_" transform="translate(422.5625,116.8135)">
					<path id="path2049_2_" class="st21" d="M-31.9,256.7c0,5.8-4.7,10.5-10.5,10.5c-5.8,0-10.5-4.7-10.5-10.5
						c0-5.8,4.7-10.5,10.5-10.5C-36.6,246.2-31.9,250.9-31.9,256.7z"/>
				</g>
				<g id="g2055_2_" transform="translate(212.9639,436.9307)">
					<path id="path2057_2_" class="st21" d="M96.9-218.6c0,6.4-5.2,11.5-11.5,11.5c-6.4,0-11.5-5.2-11.5-11.5
						c0-6.4,5.2-11.5,11.5-11.5C91.8-230.2,96.9-225,96.9-218.6z"/>
				</g>
				<g id="g2059_2_" transform="translate(384.7354,414.1245)">
					<path id="path2061_2_" class="st21" d="M-6.2-184.3c0,6.4-5.2,11.5-11.5,11.5c-6.4,0-11.5-5.2-11.5-11.5
						c0-6.4,5.2-11.5,11.5-11.5C-11.4-195.8-6.2-190.7-6.2-184.3z"/>
				</g>
				<g id="g2063_2_" transform="translate(144.7207,487.7964)">
					<path id="path2065_2_" class="st21" d="M237.9-308.2c0,4.3-3.5,7.8-7.8,7.8c-4.3,0-7.8-3.5-7.8-7.8c0-4.3,3.5-7.8,7.8-7.8
						C234.4-316,237.9-312.5,237.9-308.2z"/>
				</g>
				<g id="_18._google_ads_logo_2_">
					<path class="st22" d="M268.5,397.8c3-5,1.3-11.6-3.7-14.5s-11.6-1.3-14.5,3.7l19.7-34.1c-1.8,3.3-1.7,7.4,0.2,10.6
						c-0.1,0,0.2,0.4,9.1,15.8L268.5,397.8z"/>
					<path class="st23" d="M309.8,392.5c0,10.9-14.4,14.6-19.8,5.3c-20.4-35.4-19.9-34.3-19.8-34.3c-3.2-4.9-1.9-11.5,3-14.7
						c4.9-3.2,11.5-1.9,14.7,3c0.2,0.4,0.5,0.7,0.7,1.1C309.8,389.6,309.8,388.5,309.8,392.5z"/>
					<path class="st24" d="M309.8,392.5c0,1.3-0.2,2.6-0.7,3.8c-4.3,4-11,3.8-15-0.5c-0.6-0.6-1.1-1.3-1.5-2
						c-20.4-35.4-19.9-34.3-19.8-34.3c-1.7-2.8-2-6.2-0.8-9.3c4.3-4,11-3.7,15,0.6c0.6,0.7,1.1,1.4,1.6,2.2
						C309.8,389.6,309.8,388.5,309.8,392.5z"/>
					<path class="st25" d="M277.7,376.5c-4.7,8.1-13.8,12.5-23,11.1l-4.5-0.7l19.7-34.1c-1.8,3.3-1.7,7.4,0.2,10.6
						C270,363.4,270.1,363.3,277.7,376.5L277.7,376.5z"/>
					<path class="st26" d="M270,392.5c0,1.9-0.5,3.7-1.4,5.3c-5.4,9.4-19.8,5.5-19.8-5.3c0-5.9,4.8-10.6,10.6-10.6
						C265.2,381.8,270,386.6,270,392.5z"/>
					<path class="st27" d="M268.6,397.8c-9.4,5.3-19.9-5.3-14.5-14.5C263.3,377.9,273.9,388.5,268.6,397.8z"/>
					<path class="st9" d="M309.5,386.5c-15.4-26.7-21.5-37.1-24-38.7c-5.6-3.4-13-1.6-16.4,4c-0.1,0.2-0.2,0.3-0.3,0.5
						c-2,3.5,7.2-12.6-19.7,34.1c-1.1,1.9-1.7,4-1.7,6.2c0,12.2,16.2,16.5,22.3,6c0.9-1.6-3.4,5.9,9.6-16.6l9.6,16.6
						c3.3,5.7,10.6,7.7,16.3,4.4S312.8,392.2,309.5,386.5L309.5,386.5z M259.3,401.8c-5.1,0-9.3-4.1-9.3-9.3c0-1.6,0.4-3.2,1.2-4.7
						c0-0.1,0.1-0.1,0.1-0.2c5.6-9.2,20.1-2.9,16.8,7.6C266.9,399.1,263.4,401.7,259.3,401.8z M271.1,390.6c-1-6.5-7.1-11-13.7-9.9
						c-0.8,0.1-1.6,0.3-2.4,0.7l12.4-21.5c0.5,3.1,1.4,4.1,10.3,19.4L271.1,390.6z M299.2,401.8c-3.3,0-6.4-1.8-8-4.6
						C269.1,359,270,361.3,270,358c0-5.1,4.2-9.3,9.3-9.3c1.6,0,3.1,0.4,4.5,1.2c2.8,1.2,2.4,1.5,23.4,37.8
						c2.7,4.4,1.3,10.1-3.1,12.8C302.5,401.3,300.9,401.8,299.2,401.8z"/>
					<path class="st9" d="M309.5,386.5c-15.4-26.7-21.5-37.1-24-38.7c-5.6-3.4-13-1.6-16.4,4c-0.1,0.2-0.2,0.3-0.3,0.5
						c-2,3.5,7.2-12.6-19.7,34.1c-1.1,1.9-1.7,4-1.7,6.2c0,12.2,16.2,16.5,22.3,6c0.9-1.6-3.4,5.9,9.6-16.6l9.6,16.6
						c3.3,5.7,10.6,7.7,16.3,4.4S312.8,392.2,309.5,386.5L309.5,386.5z M259.3,401.8c-5.1,0-9.3-4.1-9.3-9.3c0-1.6,0.4-3.2,1.2-4.7
						c0-0.1,0.1-0.1,0.1-0.2c5.6-9.2,20.1-2.9,16.8,7.6C266.9,399.1,263.4,401.7,259.3,401.8z M271.1,390.6c-1-6.5-7.1-11-13.7-9.9
						c-0.8,0.1-1.6,0.3-2.4,0.7l12.4-21.5c0.5,3.1,1.4,4.1,10.3,19.4L271.1,390.6z M299.2,401.8c-3.3,0-6.4-1.8-8-4.6
						C269.1,359,270,361.3,270,358c0-5.1,4.2-9.3,9.3-9.3c1.6,0,3.1,0.4,4.5,1.2c2.8,1.2,2.4,1.5,23.4,37.8
						c2.7,4.4,1.3,10.1-3.1,12.8C302.5,401.3,300.9,401.8,299.2,401.8z"/>
				</g>
			</g>
		</g>
	</g>
</g>
</svg>
