<?xml version="1.0" encoding="utf-8"?>
<!-- Generator: Adobe Illustrator 25.0.0, SVG Export Plug-In . SVG Version: 6.00 Build 0)  -->
<svg version="1.1" id="Layer_1" xmlns="http://www.w3.org/2000/svg" xmlns:xlink="http://www.w3.org/1999/xlink" x="0px" y="0px"
	 viewBox="0 0 130 535.6" style="enable-background:new 0 0 130 535.6;" xml:space="preserve">
<style type="text/css">
	.st0{fill:#FD646F;}
	.st1{fill:#FC4755;}
	.st2{fill:#F5F5F5;}
	.st3{fill:#E6E6E6;}
	.st4{fill:#50758D;}
	.st5{fill:#2B597F;}
	.st6{fill:#918291;}
	.st7{fill:#7A6E79;}
	.st8{fill:#35414D;}
	.st9{fill:#EC5664;}
	.st10{fill:#87828E;}
	.st11{fill:#A4A4A5;}
	.st12{fill:#C63D4F;}
	.st13{fill:#FFCF66;}
	.st14{fill:#E8BA5D;}
	.st15{fill:#EFBC62;}
	.st16{fill:#35414D;stroke:#35414D;stroke-miterlimit:10;}
	.st17{fill:#E8EDF2;}
	.st18{fill:#C5D3DD;}
	.st19{fill:#DD636E;}
	.st20{fill:#90D8F9;}
	.st21{fill:#75CEF9;}
	.st22{fill:#FFD064;}
	.st23{fill:#EBB044;}
</style>
<g id="g367_2_">
	<g id="g373_2_" transform="translate(439.5,223.5)">
		<g id="path375_2_">
			<path class="st0" d="M-406-159.9c-8.6-24,3.9-50.4,27.9-59c24-8.6,50.4,3.9,59,27.9s-3.9,50.4-27.9,59S-397.4-135.8-406-159.9"/>
		</g>
	</g>
	<g id="g377_2_" transform="translate(439.5,223.5)">
		<g id="path379_2_">
			<path class="st1" d="M-406-159.9c-4.7-13.1-3.2-26.7,3-38.1c-4,10.1-4.5,21.5-0.4,32.6c8.6,24,35,36.5,59,27.9
				c10.9-3.9,19.5-11.6,24.8-21.1c-4.7,11.9-14.4,21.8-27.4,26.6C-370.9-123.4-397.4-135.8-406-159.9"/>
		</g>
	</g>
	<g id="g381_2_" transform="translate(386.5,223.5)">
		<g id="path383_2_">
			<path class="st2" d="M-342.3-163.6c6.5,18.1,26.4,27.6,44.5,21c18.1-6.5,27.6-26.4,21-44.5c-6.5-18.1-26.4-27.6-44.5-21
				C-339.5-201.7-348.8-181.7-342.3-163.6"/>
		</g>
	</g>
	<g id="g385_2_" transform="translate(386.5,223.5)">
		<g id="path387_2_">
			<path class="st3" d="M-342.3-163.6c-3.6-10.1-2.3-20.7,2.7-29.3c-2.7,7.5-3,15.8-0.1,23.8c6.5,18.1,26.4,27.6,44.5,21
				c8-2.9,14.4-8.5,18.4-15.2c-3.4,9.3-10.8,17.1-21,20.7C-315.9-136.2-335.9-145.5-342.3-163.6"/>
		</g>
	</g>
	<g id="g389_2_" transform="translate(333.5,223.5)">
		<g id="path391_2_">
			<path class="st0" d="M-278.7-167.5c4.5,12.2,17.8,18.5,30,14.2c12.2-4.5,18.5-17.8,14.2-30c-4.3-12.2-17.8-18.5-30-14.2
				C-276.7-193.2-283-179.7-278.7-167.5"/>
		</g>
	</g>
	<g id="g393_2_" transform="translate(333.5,223.5)">
		<g id="path395_2_">
			<path class="st1" d="M-278.7-167.5c-2.6-7.2-1.4-14.6,2.3-20.7c-1.6,4.7-1.6,10.1,0.3,15.2c4.5,12.2,17.8,18.5,30,14.2
				c5-1.9,9.2-5.2,11.9-9.5c-2.2,6.8-7.3,12.4-14.5,14.9C-260.8-149-274.3-155.3-278.7-167.5"/>
		</g>
	</g>
	<g id="g397_2_" transform="translate(167.5,223.5)">
		<g id="path399_2_">
			<path class="st2" d="M-79.2-179.4c2.3,6.2-1,13.1-7.2,15.4c-6.2,2.3-13.1-1-15.4-7.2c-2.3-6.2,1-13.1,7.2-15.4
				C-88.4-188.9-81.5-185.7-79.2-179.4"/>
		</g>
	</g>
	<g id="g401_2_" transform="translate(427.8701,153.4102)">
		<g id="path403_2_">
			<path class="st1" d="M-378.9-84.5c1.7,2.3,3.6,4.3,5.7,6l-8,8c-2.2-1.9-4-3.9-5.7-6L-378.9-84.5z"/>
		</g>
	</g>
	<g id="g405_2_" transform="translate(379.46,175.98)">
		<g id="path407_2_">
			<path class="st3" d="M-322.3-115.2c1.6,2.4,3.4,4.5,5.7,6l-8,8c-2.2-1.7-4-3.7-5.7-6L-322.3-115.2z"/>
		</g>
	</g>
	<g id="g409_2_" transform="translate(330.6895,198.7202)">
		<g id="path411_2_">
			<path class="st1" d="M-265-146.5c1,2.7,3,5,5.5,6.3l-8.3,8.3c-2.2-1.7-4.2-3.7-5.7-6L-265-146.5z"/>
		</g>
	</g>
	<g id="g413_2_" transform="translate(279.4902,222.6001)">
		<g id="path415_2_">
			<path class="st3" d="M-206.2-177.7c0.9-0.9,1.9-1.1,3-1.1c1,0,2.2,0.4,2.9,1.3c0.1,0.1,0.1,0.1,0.3,0.3c1.3,1.6,1.3,4-0.3,5.6
				l-7.9,7.8c-2.4-1.3-4.5-3.4-5.5-6.3L-206.2-177.7z"/>
		</g>
	</g>
	<g id="g417_2_" transform="translate(500.6787,412.1377)">
		<g id="path419_2_">
			<path class="st4" d="M-483.1-387.6l6.6,3l3.6,1.7l10.8,5l-10.1,5.6c-0.6,0.3-1.3,0.4-2,0l-9.8-4.6l-3.6-1.7l-5.7-2.7
				c-0.3-0.1-0.3-0.6,0-0.7L-483.1-387.6z"/>
		</g>
	</g>
	<g id="g421_2_" transform="translate(480.6104,387.5)">
		<g id="path423_2_">
			<path class="st5" d="M-456.4-359.9l3.6,1.7l-10.9,6l-3.6-1.7L-456.4-359.9z"/>
		</g>
	</g>
	<g id="g425_2_" transform="translate(422.1299,444.1099)">
		<g id="path427_2_">
			<path class="st4" d="M-403.3-438.1c0-0.3,0.3-0.6,0.6-0.4l5.9,2.7l3.6,1.7l9.8,4.6c0.6,0.3,1,0.9,1.1,1.6l2.2,11.5l-10.8-4.9
				l-3.6-1.6l-6.5-3L-403.3-438.1z"/>
		</g>
	</g>
	<g id="g429_3_" transform="translate(398.0996,420.6001)">
		<g id="path431_3_">
			<path class="st5" d="M-372.8-412.3l3.6,1.7l2.3,12.6l-3.6-1.6L-372.8-412.3z"/>
		</g>
	</g>
	<g id="g433_3_" transform="translate(467.8398,447.3398)">
		<g id="path435_3_">
			<path class="st6" d="M-456.2-426.7c-0.3-0.9-0.3-1.9,0-2.7c0-0.1,0.1-0.3,0.1-0.4c1-2.2,3.4-3,5.6-2l60.6,28.6
				c1,0.4,1.7,1.3,2.2,2.3c0.4,1,0.3,2.2-0.1,3.2c0,0.1-0.1,0.3-0.1,0.4c-1.1,1.9-3.4,2.6-5.3,1.6l-60.6-28.6
				C-455.1-424.9-455.8-425.7-456.2-426.7"/>
		</g>
	</g>
	<g id="g437_2_" transform="translate(467.8398,447.3398)">
		<g id="path439_2_">
			<path class="st7" d="M-456.2-426.7c-0.3-0.9-0.3-1.9,0-2.7l68.1,32.2c-1.1,1.9-3.4,2.6-5.3,1.6l-60.6-28.6
				C-455.1-424.9-455.8-425.7-456.2-426.7"/>
		</g>
	</g>
	<g id="g441_2_" transform="translate(381.9443,261.9277)">
		<g id="path443_2_">
			<path class="st8" d="M-339.7-208.5c-0.9,0-1.7-0.7-1.8-1.6c-0.5-5.4,0.1-10.7,1.7-15.2c0.3-0.9,1.3-1.4,2.3-1.1
				c0.9,0.3,1.4,1.3,1.1,2.3c-1.4,4.1-1.9,8.9-1.5,13.8c0.1,1-0.6,1.9-1.6,1.9C-339.6-208.5-339.7-208.5-339.7-208.5z"/>
		</g>
	</g>
	<g id="g445_2_" transform="translate(324.7061,351.2832)">
		<g id="path447_2_">
			<path class="st8" d="M-247.9-266.6c-5.3,0-10.5-1.2-15.4-3.5c-8.9-4.2-15.6-11.5-18.9-20.7c-0.1-0.3-0.2-0.5-0.2-0.7l0-0.1
				c-0.4-0.9-0.1-1.9,0.8-2.4c0.9-0.4,2-0.1,2.4,0.8c0.2,0.3,0.2,0.6,0.3,0.8l0,0.1c0,0.1,0,0.1,0.1,0.1c3,8.3,9,15,17,18.8
				c8,3.7,16.9,4.1,25.2,1.1c8.3-3,15-9,18.8-17c3.7-8,4.1-16.9,1.1-25.2c-3-8.3-9-15-17-18.8c-8-3.7-16.9-4.1-25.2-1.1
				c-7.1,2.5-12.9,7.2-16.9,13.6c-0.5,0.8-1.6,1.1-2.5,0.6c-0.8-0.5-1.1-1.6-0.6-2.5c4.4-7.1,10.9-12.4,18.7-15.1
				c9.1-3.3,19.1-2.9,27.9,1.3c8.9,4.2,15.6,11.6,18.9,20.8c3.3,9.2,2.9,19.1-1.3,27.9c-4.2,8.9-11.6,15.6-20.8,18.9
				C-239.5-267.4-243.7-266.6-247.9-266.6z"/>
		</g>
	</g>
	<g id="g449_2_" transform="translate(314.7051,285.0156)">
		<g id="path451_2_">
			<path class="st8" d="M-237.7-211.6c-3.7,0-7.3-0.8-10.7-2.4c-6.1-2.9-10.8-8-13-14.4c-1.6-4.7-1.9-9.8-0.8-14.8
				c0.2-1,1.2-1.6,2.1-1.4c1,0.2,1.6,1.2,1.4,2.1c-1,4.3-0.7,8.7,0.7,12.8c1.9,5.5,5.9,9.9,11.2,12.3c5.2,2.5,11.1,2.7,16.5,0.8
				c7.3-2.7,12.7-9.2,14.1-16.9c0.2-1,1.1-1.6,2.1-1.5c1,0.2,1.6,1.1,1.5,2.1c-1.6,8.9-7.8,16.4-16.4,19.6
				C-231.9-212.1-234.8-211.6-237.7-211.6z"/>
		</g>
	</g>
	<g id="g453_2_" transform="translate(115.627,201.8657)">
		<g id="path455_2_">
			<path class="st8" d="M-15.4-155.5c-0.8,0-1.6-0.6-1.8-1.4l-0.1-0.4c-0.3-1.3-0.5-2.6-1-3.8c-2-5.6-5.9-9.9-11.2-12.4
				c-5.2-2.5-11.1-2.7-16.5-0.8c-4.3,1.6-7.9,4.3-10.5,8c-0.6,0.8-1.7,1-2.5,0.4c-0.8-0.6-1-1.7-0.4-2.5c3-4.3,7.2-7.5,12.2-9.3
				c6.3-2.3,13.2-2,19.3,0.9c6.1,2.9,10.8,8,13,14.4c0.6,1.4,0.9,3,1.1,4.3l0.1,0.4c0.2,1-0.4,1.9-1.4,2.1
				C-15.2-155.5-15.3-155.5-15.4-155.5z"/>
		</g>
	</g>
	<g id="g457_2_" transform="translate(105.9727,404.7573)">
		<g id="path459_2_">
			<path class="st8" d="M-65.6-383.2c-0.4,0-0.8-0.1-1.1-0.4c-0.8-0.6-0.9-1.7-0.3-2.5c5.5-7.1,13-12.6,21.8-15.8
				c8.8-3.2,18.2-3.7,27.2-1.5c1,0.2,1.6,1.2,1.3,2.2c-0.2,1-1.2,1.6-2.2,1.3c-8.3-2-17-1.5-25.1,1.4c-8.1,3-15.1,8-20.2,14.6
				C-64.5-383.5-65-383.2-65.6-383.2z"/>
		</g>
	</g>
	<g id="g461_2_" transform="translate(406.1338,338.8818)">
		<g id="path463_2_">
			<path class="st8" d="M-329.1-242.8c-7,0-13.9-1.5-20.4-4.6c-11.6-5.5-20.3-15.1-24.7-27.2c-3.1-8.6-3.6-17.8-1.6-26.6
				c0.2-1,1.2-1.6,2.1-1.4c1,0.2,1.6,1.2,1.4,2.1c-1.8,8.1-1.3,16.6,1.5,24.6c4,11.1,12.1,20.1,22.8,25.1
				c10.7,5.1,22.8,5.6,33.9,1.6c11.2-4,20.1-12.1,25.1-22.8c5.1-10.7,5.6-22.8,1.6-33.9c-4.3-11.8-13.4-21.4-25-26.1
				c-0.9-0.4-1.4-1.4-1-2.3c0.4-0.9,1.4-1.4,2.3-1c12.6,5.1,22.4,15.4,27,28.2c4.3,12,3.7,25.1-1.8,36.7
				c-5.5,11.6-15.1,20.3-27.2,24.7C-318.2-243.8-323.7-242.8-329.1-242.8z"/>
		</g>
	</g>
	<g id="g465_2_" transform="translate(274.7295,246.1509)">
		<g id="path467_2_">
			<path class="st8" d="M-197.7-184.4c-5.6,0-10.9-3.5-13-9.1c-0.7-1.9-1-3.9-0.8-5.7c0.1-1,1-1.7,2-1.6c1,0.1,1.7,1,1.6,2
				c-0.1,1.2,0.1,2.7,0.6,4.1c2,5.3,7.8,8.1,13.1,6.1c2.6-1,4.6-2.8,5.8-5.3c1.2-2.5,1.3-5.2,0.4-7.7c-2-5.3-7.8-8.1-13.1-6.1
				c-1.5,0.6-2.8,1.5-3.8,2.5c-0.7,0.7-1.8,0.7-2.5,0c-0.7-0.7-0.7-1.8,0-2.5c1.3-1.3,3-2.4,5-3.3c7.1-2.7,15.1,1,17.7,8.2
				c1.3,3.4,1.1,7.2-0.5,10.5c-1.6,3.3-4.3,5.9-7.8,7.1C-194.5-184.7-196.1-184.4-197.7-184.4z"/>
		</g>
	</g>
	<g id="g469_2_" transform="translate(212.8672,239.4443)">
		<g id="path471_2_">
			<path class="st8" d="M-136.7-185.6c-0.9,0-1.8-0.2-2.6-0.6l-60.6-28.6c-1.5-0.7-2.6-1.9-3.1-3.4c-0.5-1.5-0.4-3.1,0.2-4.6
				c0.7-1.5,1.9-2.6,3.4-3.1c1.5-0.5,3.1-0.4,4.6,0.2l60.6,28.6c1.5,0.7,2.6,1.9,3.1,3.5c0.5,1.5,0.4,3.1-0.3,4.5
				c-0.7,1.5-1.9,2.6-3.4,3.1C-135.4-185.7-136.1-185.6-136.7-185.6z M-197.5-222.6c-0.3,0-0.5,0-0.8,0.1c-0.6,0.2-1.1,0.7-1.3,1.3
				c-0.3,0.6-0.3,1.3-0.1,1.9c0.2,0.6,0.7,1.1,1.3,1.3l60.6,28.6c0.6,0.3,1.3,0.3,1.9,0.1c0.6-0.2,1.1-0.7,1.3-1.3c0,0,0,0,0,0
				c0.3-0.5,0.3-1.2,0.1-1.8c-0.2-0.6-0.7-1.1-1.3-1.4l-60.6-28.6C-196.7-222.5-197.1-222.6-197.5-222.6z"/>
		</g>
	</g>
	<g id="g473_2_" transform="translate(390.6611,419.603)">
		<g id="path475_2_">
			<path class="st8" d="M-361.5-397.1c-0.9,0-1.6-0.6-1.8-1.5l-2-11.2c-0.2-1,0.5-1.9,1.5-2.1c1-0.2,1.9,0.5,2.1,1.5l2,11.2
				c0.2,1-0.5,1.9-1.5,2.1C-361.3-397.1-361.4-397.1-361.5-397.1z"/>
		</g>
	</g>
	<g id="g477_2_" transform="translate(421.46,448.3306)">
		<g id="path479_2_">
			<path class="st8" d="M-379.7-419.6c-0.9,0-1.6-0.6-1.8-1.5l-2-11l-16.9-8l1.6,8.4c0.2,1-0.4,1.9-1.4,2.1c-1,0.2-1.9-0.4-2.1-1.4
				l-2.3-11.9c-0.1-0.7,0.1-1.3,0.7-1.8c0.5-0.4,1.3-0.5,1.9-0.2l21,9.9c0.5,0.2,0.9,0.7,1,1.3l2.2,11.9c0.2,1-0.5,1.9-1.4,2.1
				C-379.4-419.6-379.6-419.6-379.7-419.6z"/>
		</g>
	</g>
	<g id="g481_2_" transform="translate(420.3096,389.9541)">
		<g id="path483_2_">
			<path class="st8" d="M-405-353.8c-0.6,0-1.2-0.3-1.6-0.9c-0.5-0.9-0.2-2,0.7-2.4l10.1-5.6c0.9-0.5,2-0.2,2.4,0.7
				c0.5,0.9,0.2,2-0.7,2.4l-10.1,5.6C-404.4-353.8-404.7-353.8-405-353.8z"/>
		</g>
	</g>
	<g id="g485_2_" transform="translate(449.2891,420.7114)">
		<g id="path487_2_">
			<path class="st8" d="M-421.7-378.4c-0.3,0-0.5-0.1-0.8-0.2l-20.8-9.9c-0.6-0.3-1-0.9-1-1.6c0-0.7,0.3-1.3,0.9-1.6l10.5-5.9
				c0.9-0.5,2-0.2,2.4,0.7c0.5,0.9,0.2,2-0.7,2.4l-7.5,4.2l16.9,8l9.7-5.4c0.9-0.5,2-0.2,2.4,0.7c0.5,0.9,0.2,2-0.7,2.4l-10.5,5.9
				C-421.1-378.5-421.4-378.4-421.7-378.4z"/>
		</g>
	</g>
</g>
<g>
	<g>
		<g>
			<g>
				<g>
					<g>
						<path class="st9" d="M99.5,510.8l-15.8,15.9c-1.8,1.8-1.8,4.8,0,6.6s4.8,1.8,6.6,0l15.8-15.9L99.5,510.8z"/>
						<path class="st10" d="M106.8,494.3l6.6,6.6c4.2,4.2,4.2,11,0,15.2c-4.2,4.2-11,4.2-15.2,0l-6.6-6.6L106.8,494.3z"/>
						<path class="st9" d="M86.1,455.9c1.2-1.2,3.3-0.5,3.6,1.2c2.1,15.1,3.3,23.4,14.2,34.3l3,3l-15.2,15.2l-3-3
							c-10.9-10.9-19.2-12-34.4-14.1c-1.7-0.2-2.4-2.3-1.2-3.6L86.1,455.9L86.1,455.9z"/>
						<path class="st11" d="M109,511.7c2.1-2.1,3.1-4.9,3.1-7.6c0-2.8-1.1-5.5-3.2-7.6l4.4,4.4c2.1,2.1,3.2,4.8,3.2,7.6
							c0,2.8-1,5.5-3.1,7.6c-4.2,4.2-11,4.2-15.2,0l-4.4-4.4C98,515.9,104.8,515.9,109,511.7z"/>
						<path class="st12" d="M86.1,455.9c1.2-1.2,3.3-0.5,3.6,1.2c0.2,1.2,0.3,2.4,0.5,3.5L57.9,493c-1.1-0.2-2.3-0.3-3.6-0.5
							c-1.7-0.2-2.4-2.3-1.2-3.6L86.1,455.9L86.1,455.9z"/>
					</g>
				</g>
			</g>
		</g>
	</g>
	<g>
		<g>
			<circle class="st13" cx="36.8" cy="503.9" r="23.4"/>
			<path class="st14" d="M26.8,525c11.2,1.4,22.1-5.6,25.3-16.8c3.2-11.2-2.3-22.8-12.5-27.6c1.2,0.2,2.5,0.4,3.7,0.8
				c12.4,3.6,19.6,16.6,16,29c-3.6,12.4-16.6,19.6-29,16C29.1,526,27.9,525.5,26.8,525L26.8,525z"/>
			<path class="st14" d="M43.3,481.4c1.2,0.4,2.4,0.8,3.5,1.3c-11.2-1.4-22.1,5.6-25.3,16.8c-3.2,11.2,2.3,22.8,12.5,27.7
				c-1.2-0.2-2.5-0.4-3.7-0.8c-12.4-3.6-19.6-16.6-16-29C17.9,484.9,30.9,477.8,43.3,481.4z"/>
		</g>
	</g>
	<g>
		<g>
			<circle class="st13" cx="36.3" cy="427.7" r="19.2"/>
			<path class="st15" d="M28.1,445.1c9.2,1.1,18.1-4.6,20.7-13.7c2.6-9.2-1.9-18.7-10.2-22.6c1,0.1,2,0.3,3,0.6
				c10.2,2.9,16,13.6,13.1,23.7c-2.9,10.2-13.6,16-23.7,13.1C30,445.9,29,445.5,28.1,445.1L28.1,445.1z"/>
			<path class="st14" d="M17.9,422.4c2.9-10.2,13.6-16,23.7-13.1c1,0.3,2,0.7,2.9,1.1c-9.2-1.1-18.1,4.6-20.7,13.7
				c-2.6,9.2,1.9,18.7,10.2,22.7c-1-0.1-2-0.3-3-0.6C20.8,443.2,15,432.6,17.9,422.4L17.9,422.4z"/>
		</g>
	</g>
	<path class="st16" d="M58.7,462.5c0.3,0,0.5-0.1,0.7-0.3c0.4-0.4,0.4-1,0-1.4l-8.6-8.5c-0.2-0.2-0.4-0.3-0.7-0.3s-0.5,0.1-0.7,0.3
		c-0.4,0.4-0.4,1,0,1.4l8.6,8.5C58.2,462.4,58.5,462.5,58.7,462.5L58.7,462.5z"/>
	<path class="st16" d="M66.7,454.5c0.1,0,0.2,0,0.3-0.1c0.5-0.2,0.8-0.7,0.6-1.2l-4.5-12.7c-0.1-0.4-0.5-0.7-0.9-0.7
		c-0.1,0-0.2,0-0.3,0.1c-0.2,0.1-0.4,0.3-0.6,0.5c-0.1,0.2-0.1,0.5,0,0.7l4.5,12.7C65.9,454.3,66.3,454.5,66.7,454.5L66.7,454.5z"/>
	<path class="st16" d="M50.7,470.5c0.4,0,0.8-0.3,0.9-0.7c0.2-0.5-0.1-1.1-0.6-1.2l-12.7-4.4c-0.1,0-0.2-0.1-0.3-0.1
		c-0.4,0-0.8,0.3-0.9,0.7c-0.2,0.5,0.1,1.1,0.6,1.2c0.1,0,12.4,4.3,12.8,4.4C50.5,470.5,50.6,470.5,50.7,470.5L50.7,470.5z"/>
	<path class="st8" d="M84.8,492.4c-0.9-0.5-2.2-0.2-2.7,0.7c-0.5,0.9-0.2,2.2,0.7,2.7c4.7,2.8,7.7,5.9,7.7,6c0.7,0.8,2,0.9,2.8,0.1
		c0.8-0.7,0.9-2,0.1-2.8C93.3,499,90,495.5,84.8,492.4L84.8,492.4z"/>
	<path class="st8" d="M76.9,489c-1.1-0.3-2.1,0.3-2.4,1.4c-0.3,1,0.3,2.1,1.4,2.4c0.5,0.1,0.7,0.2,0.7,0.2c1,0.3,2.1-0.3,2.4-1.3
		s-0.3-2.1-1.3-2.5C77.4,489.1,77.1,489.1,76.9,489L76.9,489z"/>
	<path class="st16" d="M83.1,534c-2.2-2.2-2.2-5.7,0-7.9l10.6-10.6l-2.8,0.3c-0.4,0-0.8,0.1-1.2,0.1c-1,0.1-2.1,0.3-3.1,0.3
		c-2.2,0-3.8-0.6-5.3-2.1c-0.4-0.4-0.4-1,0-1.4c0.2-0.2,0.4-0.3,0.7-0.3s0.5,0.1,0.7,0.3c1.1,1.1,2.2,1.5,3.9,1.5
		c0.9,0,2-0.1,3.4-0.3c0.6-0.1,1.3-0.2,2.1-0.2l2.3-0.2l-1.7-1.5c-1.5-1.3-2.8-2.7-4.1-4c-5.5-5.6-10.6-10.8-27.5-13.4l-1.7-0.3
		l0.6,1.6c1.7,4.8,1.9,9.9,0.4,14.9c-3,10.4-12.6,17.6-23.4,17.6l0,0c-2.3,0-4.5-0.3-6.7-1c-12.9-3.7-20.4-17.3-16.7-30.2
		c3-10.4,12.6-17.6,23.4-17.6c2.3,0,4.5,0.3,6.7,1c3.7,1.1,7,2.9,9.8,5.5l0.7,0.7l31.3-31.4c0.6-0.6,1.4-0.9,2.2-0.9
		c1.3,0,2.8,0.9,3.1,2.7c3.2,23.1,4.9,24.8,20.9,40.7l2.6,2.6c4.6,4.6,4.6,12,0,16.6c-2.8,2.8-6.6,3.5-8.2,3.5c-0.4,0-0.6,0-0.6-0.1
		l-0.6-0.2L91,533.9c-1.1,1.1-2.5,1.6-4,1.6C85.5,535.6,84.1,535,83.1,534z M96.3,515.5l-11.8,11.9c-0.7,0.7-1.1,1.6-1.1,2.6
		s0.4,1.9,1.1,2.6c0.7,0.7,1.6,1.1,2.6,1.1s1.9-0.4,2.6-1.1l12.7-12.7l-1.2-0.6c-2.2-1.1-2.7-1.6-4.1-3L96.3,515.5z M15.3,497.6
		c-3.4,11.9,3.4,24.3,15.3,27.8c2,0.6,4.1,0.9,6.2,0.9c9.9,0,18.8-6.7,21.6-16.2c1.7-5.7,1-11.8-1.9-17c-2.9-5.3-7.7-9.1-13.4-10.7
		c-2-0.6-4.1-0.9-6.2-0.9C26.9,481.4,18,488.1,15.3,497.6z M106.8,495.7L93,509.5l5.9,5.9c1.8,1.8,4.3,2.9,6.9,2.9s5.1-1,6.9-2.9
		c1.8-1.8,2.9-4.3,2.9-6.9s-1-5.1-2.9-6.9L106.8,495.7z M87.7,456.2L87.7,456.2h-0.6L55.4,488l0.5,0.7c0.7,0.9,1.4,1.9,2,2.9
		l0.2,0.4l0.5,0.1c15.3,2.2,21.4,4.5,32.3,15.3l0.7,0.7l13.8-13.9l-0.7-0.7c-12.1-12.1-13.5-18.4-16-36.3c0-0.4-0.3-0.8-0.8-1H87.7z
		"/>
	<path class="st16" d="M36.3,447.9c-1.9,0-3.8-0.3-5.6-0.8c-5.2-1.5-9.4-4.9-12-9.6s-3.2-10.2-1.7-15.3c2.5-8.6,10.4-14.6,19.4-14.6
		c1.9,0,3.8,0.3,5.6,0.8c10.7,3.1,16.9,14.3,13.8,24.9C53.2,441.9,45.3,447.9,36.3,447.9L36.3,447.9z M18.8,422.7
		c-1.3,4.7-0.8,9.6,1.6,13.8c2.4,4.3,6.2,7.3,10.9,8.7c1.6,0.5,3.3,0.7,5,0.7c8.1,0,15.3-5.4,17.5-13.2c1.3-4.7,0.8-9.6-1.6-13.8
		s-6.2-7.3-10.9-8.7c-1.6-0.5-3.3-0.7-5-0.7C28.3,409.5,21.1,415,18.8,422.7z"/>
	<g>
		<g>
			<path class="st8" d="M35.7,505.7c-3.4-1.1-5.2-4.7-4.1-8.1s4.7-5.2,8.1-4.1s5.2,4.7,4.1,8.1c-0.3,0.9-1.2,1.4-2.1,1.1
				c-0.9-0.3-1.4-1.2-1.1-2.1c0.5-1.6-0.4-3.4-2-3.9s-3.4,0.4-3.9,2s0.4,3.4,2,3.9c0.9,0.3,1.4,1.2,1.1,2.1
				C37.5,505.4,36.6,505.9,35.7,505.7L35.7,505.7z"/>
		</g>
		<g>
			<path class="st8" d="M32.8,514.7c-3.4-1.1-5.2-4.7-4.1-8.1c0.3-0.9,1.2-1.4,2.1-1.1s1.4,1.2,1.1,2.1c-0.5,1.6,0.4,3.4,2,3.9
				c1.6,0.5,3.4-0.4,3.9-2s-0.4-3.4-2-3.9c-0.9-0.3-1.4-1.2-1.1-2.1s1.2-1.4,2.1-1.1c3.4,1.1,5.2,4.7,4.1,8.1
				C39.8,513.9,36.1,515.8,32.8,514.7L32.8,514.7z"/>
		</g>
		<g>
			<path class="st8" d="M38.7,496.6c-0.9-0.3-1.4-1.2-1.1-2.1l0.9-2.9c0.3-0.9,1.2-1.4,2.1-1.1c0.9,0.3,1.4,1.2,1.1,2.1l-0.9,2.9
				C40.5,496.4,39.6,496.9,38.7,496.6z"/>
		</g>
		<g>
			<path class="st8" d="M31.9,517.3c-0.9-0.3-1.4-1.2-1.1-2.1l0.9-2.6c0.3-0.9,1.2-1.4,2.1-1.1s1.4,1.2,1.1,2.1l-0.9,2.6
				C33.7,517.1,32.8,517.6,31.9,517.3z"/>
		</g>
	</g>
	<g>
		<g>
			<path class="st8" d="M35.8,429.3c-3.1-1-4.7-4.3-3.7-7.4s4.3-4.7,7.4-3.7c3.1,1,4.7,4.3,3.7,7.4c-0.3,0.8-1.1,1.2-1.9,1
				c-0.8-0.3-1.2-1.1-1-1.9c0.5-1.5-0.3-3.1-1.8-3.5c-1.5-0.5-3.1,0.3-3.5,1.8c-0.5,1.5,0.3,3.1,1.8,3.5c0.8,0.3,1.2,1.1,1,1.9
				C37.4,429.1,36.6,429.6,35.8,429.3L35.8,429.3z"/>
		</g>
		<g>
			<path class="st8" d="M33.1,437.5c-3.1-1-4.7-4.3-3.7-7.4c0.3-0.8,1.1-1.2,1.9-1c0.8,0.3,1.2,1.1,1,1.9c-0.5,1.5,0.3,3.1,1.8,3.5
				c1.5,0.5,3.1-0.3,3.5-1.8c0.5-1.5-0.3-3.1-1.8-3.5c-0.8-0.3-1.2-1.1-1-1.9c0.3-0.8,1.1-1.2,1.9-1c3.1,1,4.7,4.3,3.7,7.4
				C39.5,436.8,36.2,438.5,33.1,437.5L33.1,437.5z"/>
		</g>
		<g>
			<path class="st8" d="M38.5,421.1c-0.8-0.3-1.2-1.1-1-1.9l0.8-2.6c0.3-0.8,1.1-1.2,1.9-1c0.8,0.3,1.2,1.1,1,1.9l-0.8,2.6
				C40.1,420.9,39.3,421.3,38.5,421.1z"/>
		</g>
		<g>
			<path class="st8" d="M32.3,439.9c-0.8-0.3-1.2-1.1-1-1.9l0.8-2.4c0.3-0.8,1.1-1.2,1.9-1c0.8,0.3,1.2,1.1,1,1.9l-0.8,2.4
				C34,439.7,33.1,440.2,32.3,439.9z"/>
		</g>
	</g>
</g>
<g>
	<g>
		<g>
			<path class="st17" d="M103.5,272.8l-61.6,36c-1.8,1.1-4.2,0.5-5.2-1.4L5.6,254.3l68.2-39.9l31.1,53.1
				C106,269.4,105.3,271.7,103.5,272.8z"/>
		</g>
		<g>
			<path class="st18" d="M104.9,267.6l-14.6-25l-8,4.7l5.3,9.1c0.5,0.9,0.2,2.1-0.7,2.6l-21.6,12.7l10.3,17.6l28-16.4
				C105.3,271.7,106,269.4,104.9,267.6z"/>
		</g>
		<g>
			<g>
				<g>
					<path class="st19" d="M86.9,259L38,287.5c-0.9,0.5-2.1,0.2-2.6-0.7L20,260.5c-0.5-0.9-0.2-2.1,0.7-2.6l48.8-28.6
						c0.9-0.5,2.1-0.2,2.6,0.7l15.4,26.4C88.1,257.3,87.8,258.4,86.9,259z"/>
				</g>
			</g>
		</g>
		<g>
			<g>
				<g>
					<path class="st12" d="M38.9,284.8l-15.4-26.4c-0.5-0.9-0.2-2.1,0.7-2.6l-3.5,2.1c-0.9,0.5-1.2,1.7-0.7,2.6l15.4,26.4
						c0.5,0.9,1.7,1.2,2.6,0.7l3.5-2.1C40.6,286,39.5,285.7,38.9,284.8z"/>
				</g>
			</g>
		</g>
		<g>
			<path class="st18" d="M41,304.9l-31-53.1l-4.3,2.5l31.1,53.1c1.1,1.8,3.4,2.4,5.2,1.4l4.3-2.5C44.4,307.3,42.1,306.7,41,304.9z"
				/>
		</g>
		<g>
			<g>
				<g>
					<path class="st20" d="M64.9,206.8l-61.6,36c-1.8,1.1-2.4,3.4-1.4,5.2l4.9,8.4L75,216.5l-4.9-8.4
						C69.1,206.3,66.7,205.7,64.9,206.8z"/>
				</g>
			</g>
		</g>
		<g>
			<g>
				<g>
					<path class="st21" d="M7.6,240.3l-4.3,2.5c-1.8,1.1-2.4,3.4-1.4,5.2l4.9,8.4l4.3-2.5l-4.9-8.4C5.2,243.7,5.8,241.4,7.6,240.3z"
						/>
				</g>
			</g>
		</g>
		<g>
			<g>
				<g>
					<path class="st12" d="M62.8,267.5l2.4,4.1L86.9,259c0.9-0.5,1.2-1.7,0.7-2.6l-5.3-9.1l-16.7,9.8
						C61.9,259.2,60.7,263.9,62.8,267.5z"/>
				</g>
			</g>
		</g>
		<g>
			<g>
				<g>
					<path class="st19" d="M59.5,290.6l-3.3-5.6c-0.4-0.6,0.1-1.4,0.8-1.4l9.2-0.6l-5,7.7C60.7,291.2,59.8,291.2,59.5,290.6
						L59.5,290.6z"/>
				</g>
			</g>
		</g>
		<g>
			<path class="st17" d="M54,267.1l7.1-12.1c0.4-0.6-0.1-1.5-0.8-1.4l-14,0.3c-0.7,0-1.2,0.8-0.8,1.4l6.9,11.8
				C52.7,267.8,53.6,267.8,54,267.1L54,267.1z"/>
		</g>
		<g>
			<g>
				<path class="st22" d="M127.2,280.1l-35.8,21c-1.4,0.8-3.1,0.3-3.9-1l-20.5-35c-0.8-1.4-0.3-3.1,1-3.9l35.8-21
					c1.4-0.8,3.1-0.3,3.9,1l20.5,35C129,277.6,128.5,279.3,127.2,280.1z"/>
			</g>
		</g>
		<g>
			<g>
				<path class="st23" d="M91,298l-20.5-35c-0.8-1.4-0.3-3.1,1-3.9l-3.6,2.1c-1.4,0.8-1.8,2.5-1,3.9l20.5,35c0.8,1.4,2.5,1.8,3.9,1
					l3.6-2.1C93.5,299.8,91.8,299.3,91,298z"/>
			</g>
		</g>
		<g>
			<g>
				<g>
					<path class="st19" d="M112.5,249.3l-8.1,4.7c-1.4,0.8-3.1,0.3-3.9-1l-4.7-8.1l8.1-4.7c1.4-0.8,3.1-0.3,3.9,1L112.5,249.3z"/>
				</g>
			</g>
		</g>
	</g>
	<g>
		<path class="st8" d="M73.2,288.8l-32,18.7c-1.1,0.7-2.6,0.3-3.3-0.9l-13.5-23.1c-0.4-0.7-1.3-0.9-2-0.5s-0.9,1.3-0.5,2l13.5,23.1
			c1.5,2.5,4.7,3.3,7.2,1.9l32-18.7c0.7-0.4,0.9-1.3,0.5-2C74.8,288.7,73.9,288.4,73.2,288.8z"/>
		<path class="st8" d="M20,278.8c0.7-0.4,0.9-1.3,0.5-2l-11.7-20l47.1-27.6c0.7-0.4,0.9-1.3,0.5-2s-1.3-0.9-2-0.5l-47,27.8l-4.2-7.1
			c-0.7-1.1-0.3-2.6,0.9-3.3l61.6-36c1.1-0.7,2.6-0.3,3.3,0.9l4.2,7.1l-12.3,7.2c-0.7,0.4-0.9,1.3-0.5,2s1.3,0.9,2,0.5l12.3-7.2
			l13.6,23.3c0.4,0.7,1.3,0.9,2,0.5s0.9-1.3,0.5-2l-19.2-32.9c-1.5-2.5-4.7-3.3-7.2-1.9l-61.6,36c-2.5,1.5-3.3,4.7-1.9,7.2L18,278.3
			C18.4,279,19.3,279.2,20,278.8L20,278.8z"/>
		<path class="st8" d="M9.1,246.1c-0.7,0.4-0.9,1.3-0.5,2s1.3,0.9,2,0.5l1.3-0.7c0.7-0.4,0.9-1.3,0.5-2c-0.4-0.7-1.3-0.9-2-0.5
			L9.1,246.1z"/>
		<path class="st8" d="M15.3,242.5c-0.7,0.4-0.9,1.3-0.5,2s1.3,0.9,2,0.5l1.3-0.7c0.7-0.4,0.9-1.3,0.5-2s-1.3-0.9-2-0.5L15.3,242.5z
			"/>
		<path class="st8" d="M21.4,238.9c-0.7,0.4-0.9,1.3-0.5,2s1.3,0.9,2,0.5l1.3-0.7c0.7-0.4,0.9-1.3,0.5-2s-1.3-0.9-2-0.5L21.4,238.9z
			"/>
		<g>
			<path class="st8" d="M60.3,291.5c-0.5,0-0.9-0.3-1.2-0.7l-1.4-2.5l-5.1,3c-0.1,0-0.1,0.1-0.2,0.1c-0.2,0-0.3-0.1-0.4-0.2
				c-0.1-0.1-0.1-0.3,0-0.3s0.1-0.2,0.2-0.3l5.1-3l-1.4-2.5c-0.2-0.4-0.3-0.9,0-1.3c0.2-0.4,0.6-0.7,1.1-0.7l9.1-0.6l3.1-1.8
				c0.1,0,0.1-0.1,0.2-0.1c0.2,0,0.3,0.1,0.4,0.2s0.1,0.3,0,0.3c0,0.1-0.1,0.2-0.2,0.3l-3.1,1.8l-5,7.6c-0.1,0.2-0.3,0.3-0.5,0.4
				C60.8,291.4,60.5,291.5,60.3,291.5L60.3,291.5z M56.1,284l4.2,7.1l5-7.7L56.1,284z"/>
			<path class="st8" d="M60.3,291.8L60.3,291.8c-0.7,0-1.2-0.3-1.5-0.9l-1.2-2.1l-4.8,2.8c-0.4,0.2-0.9,0.1-1.1-0.3
				c-0.1-0.2-0.1-0.4-0.1-0.6c0-0.1,0.1-0.3,0.4-0.5l4.8-2.8l-1.2-2.1c-0.3-0.5-0.3-1.2,0-1.7s0.8-0.9,1.4-0.9l9-0.6l3-1.7
				c0.4-0.2,0.9-0.1,1.1,0.3c0.1,0.2,0.1,0.4,0.1,0.6c-0.1,0.2-0.2,0.4-0.4,0.5l-3,1.7l-4.9,7.6c-0.2,0.2-0.4,0.4-0.6,0.6
				C60.9,291.7,60.6,291.8,60.3,291.8z M56,284.5c0,0.2,0.1,0.3,0.1,0.4l1.6,2.8l-5.5,3.2v0.1l5.5-3.2l1.6,2.8
				c0.1,0.1,0.2,0.3,0.3,0.3L56,284.5z M66,282.9l-5.2,8l0,0c0.1-0.1,0.2-0.2,0.3-0.3l5.1-7.7l3.1-1.8V281l-3.2,1.8l-9.1,0.6
				c-0.2,0-0.3,0.1-0.5,0.1L66,282.9z M56.7,284.3l3.5,6.1l4.3-6.6L56.7,284.3z"/>
		</g>
		<path class="st8" d="M43.2,300.1c0.7-0.4,0.9-1.3,0.5-2l-1.9-3.3c-0.4-0.7-1.3-0.9-2-0.5s-0.9,1.3-0.5,2l1.9,3.3
			C41.6,300.3,42.5,300.5,43.2,300.1z"/>
		<path class="st8" d="M48.5,295.4l-1.9-3.3c-0.4-0.7-1.3-0.9-2-0.5s-0.9,1.3-0.5,2l1.9,3.3c0.4,0.7,1.3,0.9,2,0.5
			S48.9,296.1,48.5,295.4z"/>
		<path class="st8" d="M60.2,252.2l-14,0.3c-0.9,0-1.6,0.5-2,1.2s-0.4,1.6,0,2.4l6.9,11.8c0.4,0.7,1.2,1.2,2.1,1.2
			c0.4,0,0.8-0.1,1.2-0.3c0.3-0.2,0.6-0.5,0.8-0.9l7.1-12.1c0.4-0.7,0.4-1.7,0-2.4C61.9,252.6,61.1,252.2,60.2,252.2L60.2,252.2z
			 M53.2,265.7l-6.1-10.4l12.3-0.2L53.2,265.7z"/>
		<path class="st8" d="M103.6,249.6L103.6,249.6c-0.2,0-0.3-0.1-0.4-0.2c0-0.1-0.1-0.2,0-0.3l0.4-1.6L102,247
			c-0.2,0-0.2-0.1-0.3-0.2c0-0.1-0.1-0.2,0-0.3c0-0.2,0.2-0.3,0.4-0.3h0.1l1.6,0.4l0.4-1.6c0-0.2,0.2-0.3,0.4-0.3h0.1
			c0.1,0,0.2,0.1,0.3,0.2c0,0.1,0.1,0.2,0,0.3l-0.4,1.6l1.6,0.4c0.2,0.1,0.4,0.3,0.3,0.5c0,0.1-0.1,0.2-0.2,0.3
			c-0.1,0-0.1,0.1-0.2,0.1H106l-1.6-0.4l-0.4,1.6c0,0.2-0.1,0.2-0.2,0.3C103.7,249.5,103.6,249.6,103.6,249.6z"/>
		<path class="st8" d="M86,285.4c0.2,0,0.3-0.1,0.5-0.2c0.5-0.3,0.8-0.9,0.7-1.5l-0.3-1.9l4.1-2.4l1.5,1.2c0.6,0.5,1.5,0.4,2-0.2
			s0.4-1.5-0.2-2l-9.2-7.4l0,0c-0.5-0.4-1.3-0.5-1.9-0.1l0,0c-0.6,0.3-0.9,1-0.8,1.7l0,0l1.9,11.6C84.5,285,85.2,285.5,86,285.4
			L86,285.4z M85.7,275.2l2.9,2.3l-2.2,1.3L85.7,275.2z"/>
		<path class="st8" d="M96.9,277.4c0.2,0.3,0.5,0.5,0.8,0.6c0.4,0.1,0.8,0,1.1-0.2l0,0c0.1,0,2-1.2,2.7-1.6c2.8-1.7,3.4-5.4,1.5-8.8
			c-2.1-3.5-5.5-4.7-8.5-3l-2.7,1.6c-0.3,0.2-0.6,0.5-0.7,0.9s0,0.8,0.2,1.1C91.4,267.9,96.8,277.3,96.9,277.4z M96,266.9
			c2.4-1.4,4.1,1.1,4.6,2c1,1.7,1.2,3.8-0.5,4.9c-0.3,0.2-0.9,0.5-1.5,0.9c-0.6-1.1-3.4-5.7-4-6.9L96,266.9z"/>
		<path class="st8" d="M111.4,267.3c-1,0.6-2.1,0.7-3,0.4c-0.8-0.2-1.6,0.2-1.8,0.9c-0.2,0.8,0.2,1.6,0.9,1.8
			c1.7,0.5,3.7,0.3,5.4-0.7c2-1.2,3-3.5,2.3-5.5c-0.6-1.5-2.2-2.9-5.2-2.4c-1.4,0.3-2.8,0.4-3.2,0.5c-0.4-0.1-0.5-0.3-0.6-0.5
			s-0.2-0.7,0.3-1.2c1.1-1.2,2.9-0.9,3-0.9c0.8,0.1,1.5-0.4,1.6-1.2c0.1-0.8-0.4-1.5-1.2-1.7c-0.1,0-3.4-0.5-5.6,1.8
			c-1.1,1.2-1.4,2.8-0.9,4.2c0.5,1.3,1.8,2.2,3.2,2.3c0.1,0,0.2,0,0.2,0c0.1,0,1.7-0.2,3.6-0.5c0.5-0.1,1.7-0.2,2,0.6
			C112.6,265.9,112.3,266.8,111.4,267.3L111.4,267.3z"/>
		<path class="st8" d="M103.1,239l-8.1,4.7l-9.8,5.7l-11.8-20.2c-0.9-1.6-3-2.1-4.6-1.2L20,256.6c-1.6,0.9-2.1,3-1.2,4.6l15.4,26.4
			c0.9,1.6,3,2.1,4.6,1.2l30.1-17.6l17.3,29.6c1.2,2,3.8,2.7,5.9,1.5l35.8-21c2-1.2,2.7-3.8,1.5-5.9l-8.8-15.1
			c-0.4-0.7-1.3-0.9-2-0.5s-0.9,1.3-0.5,2l8.8,15.1c0.4,0.7,0.2,1.6-0.5,2l-35.8,21c-0.7,0.4-1.6,0.2-2-0.5l-20.5-35
			c-0.4-0.7-0.2-1.6,0.5-2l26.5-15.5l4,6.9c1.2,2,3.8,2.7,5.9,1.5l6.9-4l2.7,4.7c0.4,0.7,1.3,0.9,2,0.5s0.9-1.3,0.5-2l-3.5-5.9
			l-4.7-8.1C107.8,238.5,105.1,237.8,103.1,239z M65.7,265.8l1.7,2.9l-30.1,17.6c-0.2,0.1-0.5,0.1-0.7-0.2l-15.4-26.4
			c-0.1-0.2-0.1-0.5,0.2-0.7l48.8-28.6c0.2-0.1,0.5-0.1,0.7,0.2l11.8,20.2l-15.5,9C65.2,261.1,64.5,263.8,65.7,265.8z M103.6,252.9
			c-0.7,0.4-1.6,0.2-2-0.5l-4-6.9l6.9-4c0.7-0.4,1.6-0.2,2,0.5l4,6.9L103.6,252.9z"/>
		<path class="st8" d="M117.1,270.4l-29.3,17.1c-0.7,0.4-0.9,1.3-0.5,2s1.3,0.9,2,0.5l29.3-17.1c0.7-0.4,0.9-1.3,0.5-2
			C118.6,270.2,117.8,270,117.1,270.4z"/>
		<path class="st8" d="M120.1,275.5l-29.3,17.1c-0.7,0.4-0.9,1.3-0.5,2s1.3,0.9,2,0.5l29.3-17.1c0.7-0.4,0.9-1.3,0.5-2
			S120.7,275.1,120.1,275.5z"/>
	</g>
</g>
</svg>
