<?xml version="1.0" encoding="utf-8"?>
<!-- Generator: Adobe Illustrator 25.0.0, SVG Export Plug-In . SVG Version: 6.00 Build 0)  -->
<svg version="1.1" id="Layer_1" xmlns="http://www.w3.org/2000/svg" xmlns:xlink="http://www.w3.org/1999/xlink" x="0px" y="0px"
	 viewBox="0 0 420 430" style="enable-background:new 0 0 420 430;" xml:space="preserve">
<style type="text/css">
	.st0{fill:#6F6571;stroke:#35414D;stroke-width:4.1493;stroke-miterlimit:10;}
	.st1{fill:#D7FFDF;}
	.st2{fill-rule:evenodd;clip-rule:evenodd;fill:#7DDF96;}
	.st3{fill:#0D9353;}
	.st4{fill:#35414D;}
	.st5{fill-rule:evenodd;clip-rule:evenodd;fill:#0D9353;}
	.st6{fill:#87D147;}
	.st7{fill:#FC657E;}
	.st8{fill:#70D6F9;}
	.st9{fill:#EAF6FF;}
	.st10{fill:#D8ECFE;}
	.st11{fill:#D0D8DD;}
	.st12{fill:#BAC2C6;}
	.st13{fill:#FD8087;}
	.st14{fill:#FE646F;}
	.st15{fill:#99E6FC;}
	.st16{fill:#62DBFB;}
	.st17{fill:#918291;}
	.st18{fill:#7A6D79;}
	.st19{fill:none;stroke:#35414D;stroke-width:10.4597;stroke-linecap:round;stroke-linejoin:round;stroke-miterlimit:13.3333;}
	.st20{fill-rule:evenodd;clip-rule:evenodd;fill:#3E5959;}
	.st21{fill-rule:evenodd;clip-rule:evenodd;fill:#0D9353;stroke:#0C9353;stroke-width:1.8898;stroke-miterlimit:10;}
	.st22{fill-rule:evenodd;clip-rule:evenodd;fill:#0C9353;stroke:#0C9353;stroke-width:1.8898;stroke-miterlimit:10;}
	.st23{fill:#0C9353;}
</style>
<g>
	<ellipse class="st0" cx="210" cy="411.3" rx="207.5" ry="18.7"/>
	<g>
		<ellipse class="st1" cx="208" cy="163.8" rx="158.5" ry="158.5"/>
		<g>
			<path id="_409268072_35_" class="st2" d="M102.2,201.2c4.7,3.6,10.1,8.3,14.1,12.8c0.5,0.5,0.5,1.4,0,2l-29.2,38.1
				c-1.5,2-3.3-0.8-5.3-2.8c-8.8-8.6-19.6-16-30.9-22.5c-14.2-8.1-30.5-19.6-43.6-30.9c-0.6-0.5-0.6-1.4-0.1-2.1l29.3-38.3
				c0.6-0.7,1.5-0.9,2.2-0.4c13.3,11.5,29.7,23,44.6,31.5C90.3,192.8,96.7,197,102.2,201.2L102.2,201.2z"/>
			<path id="_409267760_70_" class="st3" d="M21.7,206.9c-5.3-4.1-10.1-8-13.9-11.4l28.9-37.7c3.9,3.5,8.7,7.4,14,11.5
				c9.9,7.6,20.9,15.1,30.3,20.7c6.5,3.9,12.4,7.9,17.7,11.9c9.4,7.2,14.3,12.7,16.1,15L86,254.4c-4.2-5.1-10.7-10.6-15.8-14.5
				c-5.8-4.5-12.4-8.9-18.4-12.5C42.5,221.9,31.5,214.4,21.7,206.9 M19.8,209.5c9.6,7.4,20.6,14.9,30.3,20.7
				c5.9,3.5,12.3,7.9,18.1,12.3c7.3,5.6,13.7,11.4,16.7,15.9c0.1,0.1,0.2,0.2,0.3,0.3c0.6,0.4,1.4,0.4,1.8-0.2l31.3-40.8
				c0.3-0.4,0.3-1,0-1.5c-0.2-0.3-4.9-7-17.6-16.8l0,0c-5.4-4.1-11.5-8.2-18-12.1c-9.6-5.7-20.5-13.2-29.9-20.4
				c-5.8-4.5-11.2-8.9-15.3-12.7c0,0-0.1-0.1-0.1-0.1c-0.6-0.4-1.4-0.3-1.8,0.2L4.2,194.9c-0.4,0.5-0.3,1.3,0.2,1.7
				C8.5,200.5,13.9,204.9,19.8,209.5L19.8,209.5z M100.7,199.3L100.7,199.3C100.7,199.3,100.7,199.3,100.7,199.3L100.7,199.3z"/>
			<path id="_409267760_69_" class="st4" d="M18.8,207.8c-5.6-4.3-10.6-8.5-14.6-12.1l31.9-41.6c4.1,3.7,9.1,7.9,14.7,12.1
				c10.4,8,22,15.9,31.9,21.7c6.9,4,13.2,8.2,18.7,12.5c9.9,7.6,15,13.5,16.9,15.8l-31.8,41.5c-4.3-5.4-11.3-11.2-16.6-15.3
				c-6.1-4.7-13-9.4-19.5-13.1C40.7,223.6,29.2,215.8,18.8,207.8 M16.7,210.7c10.1,7.8,21.8,15.7,32,21.7c6.2,3.7,13,8.2,19.1,12.9
				c7.7,5.9,14.4,12,17.6,16.8c0.1,0.1,0.2,0.2,0.3,0.3c0.6,0.4,1.5,0.4,2-0.3l34.5-45c0.4-0.5,0.4-1.1,0.1-1.6
				c-0.2-0.3-5.1-7.5-18.5-17.8l0,0c-5.7-4.4-12.1-8.6-19.1-12.7C74.5,179,63,171.1,53,163.5c-6.2-4.7-11.8-9.4-16.1-13.5
				c0,0-0.1-0.1-0.1-0.1c-0.6-0.5-1.5-0.3-2,0.3l-34.5,45c-0.4,0.6-0.4,1.4,0.1,1.9C4.8,201.2,10.4,205.9,16.7,210.7L16.7,210.7z
				 M103.7,197.7L103.7,197.7C103.7,197.7,103.7,197.7,103.7,197.7L103.7,197.7z"/>
			<g>
				<path id="_409267496_35_" class="st5" d="M14.5,201.5c-2.1-1.7-4.2-3.4-6.2-5.1c-0.5-0.4-0.6-1.1-0.2-1.6l4.8-6.3
					C17.7,192.5,16.5,199.1,14.5,201.5L14.5,201.5z"/>
				<path id="_409268120_35_" class="st5" d="M31.7,164.1l4.9-6.3c0.4-0.5,1.2-0.6,1.7-0.2c2,1.7,4.1,3.4,6.2,5.1
					C42.7,165.1,36.6,167.5,31.7,164.1L31.7,164.1z"/>
				<path id="_409267040_35_" class="st5" d="M109.8,210.2c2,1.7,3.9,3.5,5.5,5.3c0.4,0.4,0.4,1,0.1,1.4l-4.6,6
					C108.3,221.1,105.8,214.8,109.8,210.2L109.8,210.2z"/>
				<path id="_409266752_35_" class="st5" d="M91.7,247.7l-4.8,6.2c-1.1,1.5-2.7-0.8-4.3-2.4c-1-0.9-2-1.8-3-2.7
					C82.8,245.5,87.9,245.1,91.7,247.7L91.7,247.7z"/>
			</g>
			<path id="_409266968_35_" class="st5" d="M75.5,187.2c9.9,7.6,11.8,21.8,4.2,31.7S57.9,230.6,48,223c-9.9-7.6-11.8-21.8-4.2-31.7
				C51.4,181.5,65.6,179.6,75.5,187.2L75.5,187.2z"/>
			
				<ellipse transform="matrix(0.5987 -0.801 0.801 0.5987 -144.9211 162.1849)" class="st3" cx="89.4" cy="225.7" rx="5.4" ry="5.4"/>
			
				<ellipse transform="matrix(0.5987 -0.801 0.801 0.5987 -133.2399 101.3576)" class="st3" cx="34.5" cy="183.6" rx="5.4" ry="5.4"/>
			<g>
				<path id="_409266824_36_" class="st2" d="M68.1,196.8c4.4,3.4,1.6,10.5-0.9,8.6c-0.6-0.5-0.7-1.4-0.3-2c2.5-3.3-2.5-7.1-5-3.8
					c-3.2,4.2,6.6,6.3,1.7,12.7c-4.8,6.2-14.2-1-9.5-7.2c1.1-1.5,3.4,0.2,2.2,1.7c-2.5,3.3,2.5,7.1,5,3.8c3.2-4.2-6.6-6.3-1.7-12.7
					C61.8,195.3,65.5,194.8,68.1,196.8L68.1,196.8z"/>
				<path id="_409267328_36_" class="st2" d="M57.1,211.2c1.4,1.1-0.2,2.6-1.2,3.9c-1.1,1.5-3.4-0.2-2.2-1.7
					C54.6,212.1,55.6,210.1,57.1,211.2z"/>
				<path id="_409266872_36_" class="st2" d="M69.6,194.9c1.4,1.1-0.2,2.6-1.2,3.9c-1.1,1.5-3.4-0.2-2.2-1.7
					C67.1,195.8,68.2,193.8,69.6,194.9z"/>
			</g>
		</g>
		<g>
			<path id="_409268072_11_" class="st2" d="M317.7,198.2c-4.7,3.5-10.2,8.2-14.3,12.7c-0.5,0.5-0.5,1.3,0,2l28.8,38.5
				c1.5,2,3.3-0.8,5.3-2.7c8.9-8.5,19.7-15.8,31.2-22.2c14.3-8,30.8-19.2,43.9-30.4c0.6-0.5,0.6-1.4,0.1-2.1l-28.9-38.6
				c-0.5-0.7-1.5-0.9-2.1-0.4c-13.5,11.3-30,22.7-45,31C329.7,190,323.3,194.1,317.7,198.2L317.7,198.2z"/>
			<path id="_409267760_22_" class="st3" d="M398.2,204.8c-9.9,7.4-20.9,14.7-30.2,20.1c-6.1,3.6-12.7,7.9-18.6,12.3
				c-5.1,3.8-11.8,9.2-16,14.3L305,213.6c1.8-2.2,6.8-7.7,16.2-14.8c5.3-4,11.3-7.9,17.9-11.7c9.4-5.5,20.5-12.9,30.5-20.3
				c5.3-4,10.2-7.9,14.1-11.3l28.5,38.1C408.3,196.9,403.5,200.8,398.2,204.8 M400.1,207.4c6-4.5,11.4-8.8,15.6-12.7
				c0.5-0.5,0.6-1.2,0.2-1.7L385,151.8c-0.4-0.6-1.2-0.7-1.8-0.2c0,0-0.1,0.1-0.1,0.1c-4.2,3.8-9.6,8.2-15.5,12.6
				c-9.5,7.2-20.5,14.5-30.2,20.1c-6.6,3.8-12.8,7.9-18.2,11.9l0,0c-12.9,9.6-17.6,16.3-17.8,16.6c-0.3,0.5-0.3,1.1,0,1.5l30.8,41.1
				c0.4,0.6,1.3,0.7,1.8,0.2c0.1-0.1,0.2-0.2,0.3-0.3c3.1-4.4,9.5-10.2,16.9-15.7c5.8-4.4,12.3-8.6,18.3-12.1
				C379.3,222.1,390.4,214.6,400.1,207.4L400.1,207.4z M319.3,196.3C319.3,196.3,319.3,196.3,319.3,196.3L319.3,196.3L319.3,196.3z"
				/>
			<path id="_409267760_21_" class="st4" d="M401,205.8c-10.4,7.8-22,15.5-31.9,21.1c-6.5,3.7-13.4,8.3-19.6,12.9
				c-5.4,4.1-12.4,9.8-16.8,15.2l-31.4-41.9c1.9-2.4,7.1-8.2,17.1-15.7c5.6-4.2,12-8.3,18.9-12.3c10-5.7,21.7-13.5,32.2-21.3
				c5.6-4.2,10.7-8.3,14.9-12l31.5,42C411.8,197.5,406.7,201.5,401,205.8 M403.2,208.6c6.3-4.7,12-9.3,16.4-13.4
				c0.5-0.5,0.6-1.3,0.2-1.9l-34-45.4c-0.5-0.6-1.4-0.8-2-0.3c0,0-0.1,0.1-0.1,0.1c-4.4,4-10.1,8.6-16.3,13.3
				c-10.1,7.5-21.6,15.3-31.8,21.1c-7,4-13.5,8.2-19.2,12.5l0,0c-13.5,10.1-18.5,17.3-18.7,17.6c-0.3,0.5-0.3,1.2,0.1,1.6l34,45.4
				c0.5,0.6,1.4,0.7,2,0.3c0.1-0.1,0.2-0.2,0.3-0.3c3.2-4.8,10-10.8,17.7-16.6c6.2-4.6,13-9.1,19.3-12.7
				C381.2,224.1,393,216.3,403.2,208.6L403.2,208.6z M316.3,194.7C316.3,194.7,316.3,194.7,316.3,194.7L316.3,194.7L316.3,194.7z"/>
			<g>
				<path id="_409267496_11_" class="st5" d="M405.5,199.5c2.2-1.7,4.2-3.4,6.3-5c0.5-0.4,0.6-1.1,0.2-1.6l-4.7-6.3
					C402.4,190.4,403.4,197.1,405.5,199.5L405.5,199.5z"/>
				<path id="_409268120_11_" class="st5" d="M388.7,161.9l-4.8-6.4c-0.4-0.5-1.2-0.6-1.7-0.2c-2,1.7-4.1,3.3-6.3,5
					C377.7,162.7,383.7,165.2,388.7,161.9L388.7,161.9z"/>
				<path id="_409267040_11_" class="st5" d="M310.1,207.1c-2,1.7-3.9,3.5-5.6,5.2c-0.4,0.4-0.4,1-0.1,1.4l4.5,6
					C311.4,218,314,211.8,310.1,207.1L310.1,207.1z"/>
				<path id="_409266752_11_" class="st5" d="M327.8,244.8l4.7,6.3c1.1,1.5,2.7-0.8,4.4-2.3c1-0.9,2-1.8,3-2.7
					C336.7,242.8,331.6,242.3,327.8,244.8L327.8,244.8z"/>
			</g>
			<path id="_409266968_11_" class="st5" d="M344.6,184.5c-10,7.5-12,21.7-4.6,31.6c7.5,10,21.7,12,31.6,4.5
				c10-7.5,12-21.7,4.6-31.6C368.8,179.1,354.6,177.1,344.6,184.5L344.6,184.5z"/>
			
				<ellipse transform="matrix(0.8077 -0.5897 0.5897 0.8077 -67.8824 237.6158)" class="st3" cx="330.3" cy="222.9" rx="5.4" ry="5.4"/>
			
				<ellipse transform="matrix(0.8076 -0.5897 0.5897 0.8076 -32.8001 262.277)" class="st3" cx="385.6" cy="181.4" rx="5.4" ry="5.4"/>
			<g>
				<path id="_409266824_35_" class="st2" d="M352.1,194.1c4.5-3.2,10.5,1.6,8,3.3c-0.6,0.4-1.5,0.3-2-0.3c-2.4-3.4-7.5,0.3-5.1,3.7
					c3.1,4.3,8-4.5,12.7,2.1c4.5,6.4-5.2,13.3-9.7,6.9c-1.1-1.5,1.2-3.1,2.3-1.6c2.4,3.4,7.5-0.3,5.1-3.7c-3.1-4.3-8,4.5-12.7-2.1
					C348.8,199.7,349.4,196,352.1,194.1L352.1,194.1z"/>
				<path id="_409267328_35_" class="st2" d="M362.6,208.9c1.5-1,2.4,1,3.4,2.3c1.1,1.5-1.2,3.1-2.3,1.6
					C362.8,211.5,361.2,209.9,362.6,208.9z"/>
				<path id="_409266872_35_" class="st2" d="M350.7,192.1c1.5-1,2.4,1,3.4,2.3c1.1,1.5-1.2,3.1-2.3,1.6
					C350.8,194.7,349.2,193.2,350.7,192.1z"/>
			</g>
		</g>
		<g>
			<g>
				<path class="st6" d="M293.5,5.2c-2.7-0.5-4.7-2.5-5.3-5.1c0-0.1-0.2-0.1-0.2,0c-0.5,2.6-2.6,4.7-5.3,5.1c-0.1,0-0.1,0.2,0,0.2
					c2.7,0.5,4.7,2.5,5.3,5.1c0,0.1,0.2,0.1,0.2,0c0.5-2.6,2.6-4.7,5.3-5.1C293.6,5.4,293.6,5.2,293.5,5.2z"/>
			</g>
		</g>
		<g>
			<g>
				<path class="st7" d="M226.4,22.6c-1.6,0-2.9,1.3-2.9,2.9c0,1.6,1.3,2.9,2.9,2.9s2.9-1.3,2.9-2.9C229.3,23.8,228,22.6,226.4,22.6
					z"/>
			</g>
		</g>
		<g>
			<g>
				<path class="st8" d="M128,13H126V11c0-1.4-1.2-2.7-2.7-2.7c-1.5,0-2.7,1.2-2.7,2.7V13h-1.9c-1.4,0-2.7,1.2-2.7,2.7
					s1.2,2.7,2.7,2.7h1.9v1.9c0,1.4,1.2,2.7,2.7,2.7c1.5,0,2.7-1.2,2.7-2.7v-1.9h1.9c1.4,0,2.7-1.2,2.7-2.7S129.5,13,128,13z"/>
			</g>
		</g>
		<g>
			<path id="_409268072_6_" class="st2" d="M111.4,88c3.6,4.6,7.7,10.6,10.5,16c0.3,0.6,0.1,1.4-0.5,1.9l-37.9,29.6
				c-2,1.6-3-1.6-4.4-4c-6.4-10.5-14.9-20.4-24.3-29.5C43,90.5,30.1,75.3,20.3,61.1c-0.4-0.6-0.2-1.5,0.4-2l38-29.7
				c0.7-0.6,1.7-0.5,2.2,0.2c10,14.4,23,29.7,35.3,41.7C102,76.9,107.1,82.6,111.4,88L111.4,88z"/>
			<path id="_409267760_12_" class="st3" d="M32,73.4c-4.1-5.3-7.8-10.3-10.6-14.6l37.5-29.3c2.9,4.4,6.5,9.4,10.7,14.6
				C77.2,54,86,64,93.7,71.8c5.3,5.4,10.1,10.7,14.2,16c7.3,9.3,10.6,15.9,11.8,18.5l-37.4,29.2c-2.8-6-7.8-12.9-11.7-18
				c-4.5-5.8-9.7-11.7-14.7-16.7C48.4,93.1,39.7,83.1,32,73.4 M29.5,75.4C37,84.9,45.7,95,53.6,103c4.8,4.9,10,10.7,14.5,16.4
				c5.7,7.3,10.4,14.4,12.2,19.6c0,0.1,0.1,0.3,0.2,0.4c0.4,0.5,1.2,0.7,1.8,0.2l40.5-31.7c0.4-0.3,0.6-0.9,0.4-1.5
				c-0.1-0.3-3-8-12.9-20.7l0,0c-4.2-5.3-9-10.8-14.4-16.3c-7.9-7.9-16.5-17.9-23.9-27.3c-4.5-5.8-8.6-11.4-11.7-16.2
				c0,0,0-0.1-0.1-0.1c-0.4-0.6-1.3-0.7-1.8-0.2L18.1,57.3c-0.5,0.4-0.6,1.2-0.3,1.7C20.9,63.8,24.9,69.5,29.5,75.4L29.5,75.4z
				 M110.4,85.8L110.4,85.8C110.4,85.8,110.4,85.8,110.4,85.8L110.4,85.8z"/>
			<path id="_409267760_11_" class="st4" d="M29,73.6c-4.4-5.6-8.2-10.8-11.1-15.4l41.3-32.3c3,4.6,6.9,9.9,11.2,15.4
				c8.1,10.3,17.4,20.9,25.5,29c5.6,5.6,10.7,11.3,15,16.8c7.7,9.8,11.1,16.8,12.4,19.6l-41.2,32.2c-2.8-6.4-8.1-13.7-12.3-19
				c-4.8-6.1-10.3-12.3-15.6-17.6C46.2,94.3,37,83.8,29,73.6 M26.2,75.7c7.8,10,17.1,20.7,25.5,29c5.1,5.1,10.5,11.2,15.3,17.3
				c6,7.7,10.9,15.2,12.8,20.7c0.1,0.1,0.1,0.3,0.2,0.4c0.5,0.6,1.3,0.7,2,0.2l44.7-34.9c0.5-0.4,0.7-1,0.5-1.6
				c-0.1-0.3-3-8.6-13.4-21.9l0,0c-4.4-5.6-9.5-11.4-15.3-17.1C90.1,59.5,81,49.1,73.2,39.2c-4.8-6.1-9-12-12.2-17.1
				c0,0,0-0.1-0.1-0.1c-0.5-0.6-1.3-0.7-2-0.2L14.2,56.7c-0.6,0.5-0.7,1.3-0.3,1.9C17.1,63.6,21.4,69.6,26.2,75.7L26.2,75.7z
				 M113.7,85L113.7,85C113.7,85,113.7,85,113.7,85L113.7,85z"/>
			<g>
				<path id="_409267496_6_" class="st5" d="M26.4,66.3c-1.6-2.2-3.2-4.4-4.7-6.5c-0.4-0.5-0.3-1.2,0.2-1.6l6.2-4.9
					C31.7,58.4,29,64.5,26.4,66.3L26.4,66.3z"/>
				<path id="_409268120_6_" class="st5" d="M52.4,34.4l6.3-4.9c0.5-0.4,1.3-0.3,1.7,0.3c1.5,2.1,3.1,4.3,4.7,6.5
					C62.8,38.1,56.3,38.9,52.4,34.4L52.4,34.4z"/>
				<path id="_409267040_6_" class="st5" d="M116.5,98.6c1.5,2.2,2.9,4.4,4,6.5c0.3,0.5,0.1,1.1-0.3,1.4l-5.9,4.6
					C112.3,108.8,111.4,102.1,116.5,98.6L116.5,98.6z"/>
				<path id="_409266752_6_" class="st5" d="M89.5,130.4l-6.2,4.8c-1.5,1.1-2.4-1.5-3.6-3.4c-0.7-1.1-1.5-2.3-2.2-3.4
					C81.5,126.1,86.5,126.9,89.5,130.4L89.5,130.4z"/>
			</g>
			<path id="_409266968_6_" class="st5" d="M89,67.8c7.7,9.8,6,24.1-3.8,31.7s-24,5.9-31.7-3.9c-7.7-9.8-6-24.1,3.8-31.7
				C67.1,56.2,81.3,58,89,67.8L89,67.8z"/>
			
				<ellipse transform="matrix(0.7801 -0.6256 0.6256 0.7801 -47.4888 81.9535)" class="st3" cx="92.8" cy="108.5" rx="5.4" ry="5.4"/>
			
				<ellipse transform="matrix(0.7801 -0.6256 0.6256 0.7801 -22.7717 43.3405)" class="st3" cx="50.3" cy="54.1" rx="5.4" ry="5.4"/>
			<g>
				<path id="_409266824_11_" class="st2" d="M79.5,75.2c3.4,4.4-1.1,10.5-3,8.1c-0.5-0.6-0.4-1.5,0.2-2c3.3-2.5-0.6-7.5-3.9-5
					c-4.2,3.3,4.8,7.8-1.5,12.8c-6.2,4.8-13.5-4.6-7.3-9.4c1.5-1.1,3.2,1.1,1.7,2.2c-3.3,2.5,0.6,7.5,3.9,5
					c4.2-3.3-4.8-7.8,1.5-12.8C73.7,72.2,77.5,72.7,79.5,75.2L79.5,75.2z"/>
				<path id="_409267328_11_" class="st2" d="M65.2,86.4c1.1,1.4-0.9,2.5-2.1,3.5c-1.5,1.1-3.2-1.1-1.7-2.2
					C62.6,86.7,64.1,85,65.2,86.4z"/>
				<path id="_409266872_11_" class="st2" d="M81.4,73.8c1.1,1.4-0.9,2.5-2.1,3.5c-1.5,1.1-3.2-1.1-1.7-2.2
					C78.8,74,80.3,72.3,81.4,73.8z"/>
			</g>
		</g>
		<g>
			<path id="_409268072_5_" class="st2" d="M302,89.3c-3.6,4.6-7.7,10.6-10.5,16c-0.3,0.6-0.1,1.4,0.5,1.9l37.9,29.6
				c2,1.6,3-1.6,4.4-4c6.4-10.5,14.9-20.4,24.3-29.5c11.7-11.4,24.7-26.6,34.5-40.8c0.4-0.6,0.2-1.5-0.4-2l-38-29.7
				c-0.7-0.6-1.7-0.5-2.2,0.2c-10,14.4-23,29.7-35.3,41.7C311.4,78.2,306.3,83.9,302,89.3L302,89.3z"/>
			<path id="_409267760_10_" class="st3" d="M381.3,74.7c-7.6,9.7-16.3,19.7-23.9,27.3c-5,5-10.2,11-14.7,16.7
				c-4,5.1-8.9,12-11.7,18l-37.4-29.2c1.2-2.6,4.5-9.2,11.8-18.5c4.1-5.2,8.9-10.6,14.2-16c7.7-7.7,16.5-17.8,24.1-27.6
				c4.1-5.3,7.8-10.3,10.7-14.6l37.5,29.3C389.1,64.4,385.5,69.4,381.3,74.7 M383.9,76.7c4.6-5.9,8.7-11.5,11.7-16.3
				c0.4-0.6,0.2-1.3-0.3-1.7L354.8,27c-0.6-0.4-1.4-0.3-1.8,0.2c0,0,0,0.1-0.1,0.1c-3.1,4.8-7.1,10.4-11.7,16.2
				c-7.3,9.4-16,19.4-23.9,27.3c-5.4,5.4-10.3,10.9-14.4,16.3l0,0c-9.9,12.7-12.7,20.4-12.9,20.7c-0.2,0.5,0,1.1,0.4,1.5l40.5,31.7
				c0.6,0.5,1.4,0.3,1.8-0.2c0.1-0.1,0.2-0.2,0.2-0.4c1.9-5.1,6.5-12.3,12.2-19.6c4.5-5.8,9.6-11.6,14.5-16.4
				C367.6,96.3,376.4,86.2,383.9,76.7L383.9,76.7z M303,87.1C303,87.1,303,87.1,303,87.1L303,87.1L303,87.1z"/>
			<path id="_409267760_9_" class="st4" d="M384.4,74.9c-8,10.3-17.2,20.7-25.2,28.7c-5.3,5.3-10.8,11.5-15.6,17.6
				c-4.2,5.3-9.4,12.7-12.3,19L290.1,108c1.2-2.8,4.7-9.7,12.4-19.6c4.3-5.5,9.4-11.2,15-16.8c8.1-8.1,17.4-18.7,25.5-29
				c4.3-5.5,8.2-10.8,11.2-15.4l41.3,32.3C392.5,64,388.7,69.3,384.4,74.9 M387.2,77c4.8-6.2,9.1-12.1,12.3-17.2
				c0.4-0.6,0.2-1.4-0.3-1.9l-44.7-34.9c-0.6-0.5-1.5-0.4-2,0.2c0,0-0.1,0.1-0.1,0.1c-3.2,5.1-7.5,11-12.2,17.1
				c-7.7,9.9-16.9,20.4-25.2,28.7c-5.7,5.7-10.9,11.5-15.3,17.1l0,0c-10.4,13.3-13.3,21.6-13.4,21.9c-0.2,0.6,0,1.2,0.5,1.6
				l44.7,34.9c0.6,0.5,1.5,0.4,2-0.2c0.1-0.1,0.2-0.2,0.2-0.4c1.9-5.4,6.8-13,12.8-20.7c4.7-6.1,10.2-12.2,15.3-17.3
				C370,97.7,379.3,87.1,387.2,77L387.2,77z M299.7,86.3C299.7,86.3,299.7,86.3,299.7,86.3L299.7,86.3L299.7,86.3z"/>
			<g>
				<path id="_409267496_5_" class="st5" d="M387,67.6c1.6-2.2,3.2-4.4,4.7-6.5c0.4-0.5,0.3-1.2-0.2-1.6l-6.2-4.9
					C381.7,59.7,384.4,65.8,387,67.6L387,67.6z"/>
				<path id="_409268120_5_" class="st5" d="M361,35.7l-6.3-4.9c-0.5-0.4-1.3-0.3-1.7,0.3c-1.5,2.1-3.1,4.3-4.7,6.5
					C350.6,39.4,357.1,40.2,361,35.7L361,35.7z"/>
				<path id="_409267040_5_" class="st5" d="M296.9,99.9c-1.5,2.2-2.9,4.4-4,6.5c-0.3,0.5-0.1,1.1,0.3,1.4l5.9,4.6
					C301,110.1,302,103.4,296.9,99.9L296.9,99.9z"/>
				<path id="_409266752_5_" class="st5" d="M323.8,131.7l6.2,4.8c1.5,1.1,2.4-1.5,3.6-3.4c0.7-1.1,1.5-2.3,2.2-3.4
					C331.9,127.4,326.8,128.2,323.8,131.7L323.8,131.7z"/>
			</g>
			<path id="_409266968_5_" class="st5" d="M324.4,69.1c-7.7,9.8-6,24.1,3.8,31.7c9.8,7.7,24,5.9,31.7-3.9c7.7-9.8,6-24.1-3.8-31.7
				C346.3,57.5,332,59.3,324.4,69.1L324.4,69.1z"/>
			
				<ellipse transform="matrix(0.6256 -0.7801 0.7801 0.6256 34.3027 291.1689)" class="st3" cx="320.5" cy="109.8" rx="5.4" ry="5.4"/>
			
				<ellipse transform="matrix(0.6256 -0.7801 0.7801 0.6256 92.7344 303.9927)" class="st3" cx="363.1" cy="55.4" rx="5.4" ry="5.4"/>
			<g>
				<path id="_409266824_7_" class="st2" d="M334.1,76.4c3.5-4.3,10.5-1.2,8.6,1.1c-0.5,0.6-1.4,0.7-2,0.2c-3.2-2.6-7.2,2.2-4,4.9
					c4.1,3.4,6.5-6.4,12.8-1.3c6,5-1.5,14.2-7.6,9.2c-1.4-1.2,0.4-3.3,1.8-2.2c3.2,2.6,7.2-2.2,4-4.9c-4.1-3.4-6.5,6.4-12.8,1.3
					C332.3,82.7,332,78.9,334.1,76.4L334.1,76.4z"/>
				<path id="_409267328_7_" class="st2" d="M348.1,87.9c1.1-1.4,2.6,0.3,3.8,1.3c1.4,1.2-0.4,3.3-1.8,2.2
					C348.9,90.4,346.9,89.3,348.1,87.9z"/>
				<path id="_409266872_7_" class="st2" d="M332.2,74.8c1.1-1.4,2.6,0.3,3.8,1.3c1.4,1.2-0.4,3.3-1.8,2.2
					C333,77.3,331.1,76.2,332.2,74.8z"/>
			</g>
		</g>
	</g>
	<g>
		<path id="path2828" class="st9" d="M311.9,141.9H108.1v267.7h203.8V141.9z"/>
		<path id="path2830" class="st10" d="M125.5,409.6h-17.4V141.9h17.4V409.6z"/>
		<g id="g2834">
			<g id="g2840" transform="translate(154.8818,63.2397)">
				<path id="path2842" class="st11" d="M-15.4,312.2v-93.6c0-1.5,1.2-2.8,2.8-2.8h135.5c1.5,0,2.8,1.2,2.8,2.8v93.6
					c0,1.5-1.2,2.8-2.8,2.8H-12.6C-14.1,315-15.4,313.7-15.4,312.2"/>
			</g>
			<g id="g2844" transform="translate(183.8794,59.2388)">
				<path id="path2846" class="st12" d="M-24.2,319h-17.4c-1.5,0-2.8-1.2-2.8-2.8v-93.6c0-1.5,1.2-2.8,2.8-2.8h17.4
					c-1.5,0-2.8,1.2-2.8,2.8v93.6C-27,317.8-25.7,319-24.2,319"/>
			</g>
			<g id="g2848" transform="translate(415.501,388.6328)">
				<path id="path2850" class="st13" d="M-94.3-240.1h-222.5c-3.1,0-5.6-2.5-5.6-5.6v-64.9c0-3.1,2.5-5.6,5.6-5.6h222.5
					c3.1,0,5.6,2.5,5.6,5.6v64.9C-88.7-242.6-91.2-240.1-94.3-240.1"/>
			</g>
			<g id="g2852" transform="translate(121.499,388.6289)">
				<path id="path2854" class="st14" d="M-5.3-240.1h-17.4c-3.1,0-5.6-2.5-5.6-5.6v-64.9c0-3.1,2.5-5.6,5.6-5.6h17.4
					c-3.1,0-5.6,2.5-5.6,5.6v64.9C-10.9-242.6-8.4-240.1-5.3-240.1"/>
			</g>
			<g id="g2856" transform="translate(357.123,339.6318)">
				<path id="path2858" class="st15" d="M-76.6-156.9v67.4c0,1.5-1.2,2.8-2.8,2.8h-135.5c-1.5,0-2.8-1.2-2.8-2.8v-67.4
					c0-1.5,1.2-2.8,2.8-2.8h135.5C-77.9-159.7-76.6-158.4-76.6-156.9"/>
			</g>
			<g id="g2860" transform="translate(183.8794,238.979)">
				<path id="path2862" class="st16" d="M-24.2,13.9h-17.4c-1.5,0-2.8-1.2-2.8-2.8v-67.4c0-1.5,1.2-2.8,2.8-2.8h17.4
					c-1.5,0-2.8,1.2-2.8,2.8v67.4C-27,12.7-25.7,13.9-24.2,13.9"/>
			</g>
			<g id="g2864" transform="translate(357.123,270.1118)">
				<path id="path2866" class="st17" d="M-76.6-38.9V-20c0,1.5-1.2,2.8-2.8,2.8h-135.5c-1.5,0-2.8-1.2-2.8-2.8v-18.9H-76.6z"/>
			</g>
			<g id="g2868" transform="translate(183.8794,238.979)">
				<path id="path2870" class="st18" d="M-24.2,13.9h-17.4c-1.5,0-2.8-1.2-2.8-2.8V-7.8H-27v18.9C-27,12.7-25.7,13.9-24.2,13.9"/>
			</g>
			<g id="g2872" transform="translate(319.7109,201.438)">
				<path id="path2874" class="st13" d="M-65.3,77.6v22c0,1.5-1.2,2.8-2.8,2.8h-83.3c-1.5,0-2.8-1.2-2.8-2.8v-22H-65.3z"/>
			</g>
			<g id="g2876" transform="translate(221.2891,165.939)">
				<path id="path2878" class="st14" d="M-35.5,137.9h-17.4c-1.5,0-2.8-1.2-2.8-2.8v-22h17.4v22C-38.3,136.7-37,137.9-35.5,137.9"/>
			</g>
			<g id="g2884" transform="translate(7.5,14.2397)">
				<path id="path2886" class="st19" d="M101.6,395.4h201.7"/>
			</g>
			<g id="g2888" transform="translate(109.8799,14.2402)">
				<path id="path2890" class="st19" d="M-1.8,395.4V134.3"/>
			</g>
			<g id="g2892" transform="translate(402.1201,85.6807)">
				<path id="path2894" class="st19" d="M-90.2,274.1V62.9"/>
			</g>
			<g id="g2896" transform="translate(402.1201,14.2402)">
				<path id="path2898" class="st19" d="M-90.2,395.4V370"/>
			</g>
			<g id="g2900" transform="translate(154.8809,63.2397)">
				<path id="path2902" class="st19" d="M-15.4,312.2v-93.6c0-1.5,1.2-2.8,2.8-2.8h135.5c1.5,0,2.8,1.2,2.8,2.8v93.6
					c0,1.5-1.2,2.8-2.8,2.8H-12.6C-14.1,315-15.4,313.7-15.4,312.2z"/>
			</g>
			<g id="g2904" transform="translate(148.23,497.7603)">
				<path id="path2906" class="st19" d="M-13.4-425.3H173c3.1,0,5.6,2.5,5.6,5.6v64.9c0,3.1-2.5,5.6-5.6,5.6H-49.5
					c-3.1,0-5.6-2.5-5.6-5.6v-64.9c0-3.1,2.5-5.6,5.6-5.6h11.7"/>
			</g>
			<g id="g2908" transform="translate(167.833,414.9844)">
				<path id="path2910" class="st19" d="M-19.3-284.8l14.8-38.8c0.3-0.7,1.3-0.7,1.7,0l14.6,38.8"/>
			</g>
			<g id="g2912" transform="translate(174.4404,428.8394)">
				<path id="path2914" class="st19" d="M-21.3-308.3H0.6"/>
			</g>
			<g id="g2916" transform="translate(284.687,415.4248)">
				<path id="path2918" class="st19" d="M-54.7-285.5l6.9-38.3c0.2-0.9,1.4-1,1.7-0.1l11.3,38.1c0.3,0.8,1.4,0.8,1.7,0l10.9-38.1
					c0.3-0.9,1.5-0.8,1.7,0.1l7.3,38.3"/>
			</g>
			<g id="g2920" transform="translate(232.9541,471.4097)">
				<path id="path2922" class="st19" d="M-39-380.6h21.7"/>
			</g>
			<g id="g2924" transform="translate(248.4717,469.6079)">
				<path id="path2926" class="st19" d="M-43.7-377.5v38.1"/>
			</g>
			<g id="g2928" transform="translate(154.8809,242.9785)">
				<path id="path2930" class="st19" d="M-15.4,7.1v-67.4c0-1.5,1.2-2.8,2.8-2.8h135.5c1.5,0,2.8,1.2,2.8,2.8V7.1
					c0,1.5-1.2,2.8-2.8,2.8H-12.6C-14.1,9.9-15.4,8.7-15.4,7.1z"/>
			</g>
			<g id="g2932" transform="translate(357.1201,270.1079)">
				<path id="path2934" class="st19" d="M-76.6-38.9h-141"/>
			</g>
			<g id="g2936" transform="translate(319.71,201.438)">
				<path id="path2938" class="st19" d="M-65.3,77.6v22c0,1.5-1.2,2.8-2.8,2.8h-83.3c-1.5,0-2.8-1.2-2.8-2.8v-22"/>
			</g>
		</g>
	</g>
	<g>
		<path class="st20" d="M170.5,276.3h79c4.4,0,8,3.6,8,8v18.8c0,4.4-3.6,8-8,8h-79c-4.4,0-8-3.6-8-8v-18.8
			C162.5,279.9,166.1,276.3,170.5,276.3z"/>
		<path class="st5" d="M239.7,293.7v65.4c0,1.3-1.1,2.4-2.4,2.4h-54.5c-1.3,0-2.4-1.1-2.4-2.4v-65.4H239.7z"/>
		<path class="st2" d="M188,293.7H232v49.5c-5.9,0-10.6,4.8-10.6,10.6h-22.6c0-5.9-4.8-10.6-10.6-10.6V293.7z"/>
		<path class="st21" d="M210,336.6c2.9,0,5.3,2.4,5.3,5.3c0,2.9-2.4,5.3-5.3,5.3s-5.3-2.4-5.3-5.3C204.7,339,207.1,336.6,210,336.6z
			"/>
		<path class="st22" d="M214.6,293.7c0.5,0.8,0.7,1.7,0.7,2.7c0,2.9-2.4,5.3-5.3,5.3c-2.9,0-5.3-2.4-5.3-5.3c0-1,0.3-1.9,0.7-2.7
			H214.6z"/>
		<g>
			<circle class="st5" cx="210" cy="319.2" r="12.3"/>
			<path class="st23" d="M210,308.2c6.1,0,11,4.9,11,11c0,6.1-4.9,11-11,11c-6.1,0-11-4.9-11-11C199,313.1,203.9,308.2,210,308.2
				 M210,305.6c-7.5,0-13.5,6.1-13.5,13.5s6.1,13.5,13.5,13.5s13.5-6.1,13.5-13.5S217.5,305.6,210,305.6L210,305.6z"/>
		</g>
		<g>
			<path id="_409266824_6_" class="st2" d="M202.5,319.2c0-4,5.2-5.4,5.2-3.2c0,0.6-0.5,1-1,1c-2.9,0-3,4.5,0,4.5
				c3.8,0,0.7-6.5,6.5-6.5c5.6,0,5.5,8.5,0,8.5c-1.3,0-1.3-2,0-2c2.9,0,3-4.5,0-4.5c-3.8,0-0.7,6.5-6.5,6.5
				C204.4,323.4,202.5,321.5,202.5,319.2L202.5,319.2z"/>
			<path id="_409267328_6_" class="st2" d="M215.5,319.2c0-1.3,1.6-1,2.7-1c1.3,0,1.3,2,0,2C217,320.2,215.5,320.5,215.5,319.2z"/>
			<path id="_409266872_6_" class="st2" d="M200.8,319.1c0-1.3,1.6-1,2.7-1c1.3,0,1.3,2,0,2C202.4,320.2,200.8,320.4,200.8,319.1z"
				/>
		</g>
		<path class="st4" d="M250.1,274h-80.3c-5.3,0-9.7,4.4-9.7,9.7v19.1c0,5.3,4.3,9.7,9.7,9.7h8.4v47.2c0,2.2,1.8,4,4,4h55.4
			c2.2,0,4-1.8,4-4v-47.2h8.4c5.3,0,9.7-4.4,9.7-9.7v-19.1C259.8,278.4,255.5,274,250.1,274z M238.6,359.8c0,0.5-0.4,0.9-0.9,0.9
			h-55.4c-0.5,0-0.9-0.4-0.9-0.9v-64.9h57.2V359.8z M256.7,302.9c0,3.6-3,6.6-6.6,6.6h-8.4v-14.6h5.4c0.9,0,1.6-0.7,1.6-1.6
			c0-0.9-0.7-1.6-1.6-1.6h-74.3c-0.9,0-1.6,0.7-1.6,1.6c0,0.9,0.7,1.6,1.6,1.6h5.4v14.6h-8.4c-3.6,0-6.6-3-6.6-6.6v-19.1
			c0-3.6,3-6.6,6.6-6.6h80.3c3.6,0,6.6,3,6.6,6.6V302.9z"/>
		<path class="st4" d="M231.1,294.9v46.7c-5.6,0.7-10,5.1-10.7,10.7h-20.1c-0.7-5.6-5.1-10-10.7-10.7v-46.7h-3.1v48.2
			c0,0.9,0.7,1.6,1.5,1.6c5.1,0,9.3,4.2,9.3,9.3c0,0.9,0.7,1.6,1.6,1.6h23c0.9,0,1.6-0.7,1.6-1.6c0-5.1,4.2-9.3,9.3-9.3
			c0.9,0,1.6-0.7,1.6-1.6v-48.2H231.1z"/>
	</g>
</g>
</svg>
