<?xml version="1.0" encoding="utf-8"?>
<!-- Generator: Adobe Illustrator 25.0.0, SVG Export Plug-In . SVG Version: 6.00 Build 0)  -->
<svg version="1.1" id="Layer_1" xmlns="http://www.w3.org/2000/svg" xmlns:xlink="http://www.w3.org/1999/xlink" x="0px" y="0px"
	 viewBox="0 0 130 535.6" style="enable-background:new 0 0 130 535.6;" xml:space="preserve">
<style type="text/css">
	.st0{fill-rule:evenodd;clip-rule:evenodd;fill:#F4F6F8;}
	.st1{fill-rule:evenodd;clip-rule:evenodd;fill:#E0E1E2;}
	.st2{fill-rule:evenodd;clip-rule:evenodd;fill:#CECECE;}
	.st3{fill:#35414D;}
	.st4{fill:#B3A4EE;}
	.st5{fill:#AC92EA;}
	.st6{fill:#FBD277;}
	.st7{fill:#B4DF80;}
	.st8{fill:#9ED26A;}
	.st9{fill:#FDCD56;}
	.st10{fill:#434A54;}
	.st11{fill:#FFA733;}
	.st12{fill:#FF5A5A;}
	.st13{fill:#D6DF58;}
	.st14{fill:#87796F;}
	.st15{fill-rule:evenodd;clip-rule:evenodd;fill:#FFF2E8;}
	.st16{fill-rule:evenodd;clip-rule:evenodd;fill:#FFE4CF;}
	.st17{fill:none;stroke:#35414D;stroke-width:2.221;stroke-linecap:round;stroke-linejoin:round;stroke-miterlimit:13.3333;}
	.st18{fill:none;stroke:#35414D;stroke-width:0.9519;stroke-linecap:round;stroke-linejoin:round;stroke-miterlimit:13.3333;}
	.st19{fill-rule:evenodd;clip-rule:evenodd;fill:#838383;}
	.st20{fill-rule:evenodd;clip-rule:evenodd;fill:#FE9737;}
	.st21{fill-rule:evenodd;clip-rule:evenodd;fill:#B5ADB6;}
	.st22{fill-rule:evenodd;clip-rule:evenodd;fill:#F36B37;}
	.st23{fill-rule:evenodd;clip-rule:evenodd;fill:#595959;}
	.st24{fill:#60A917;}
	.st25{fill:#FE9737;}
	.st26{fill:#D8D8D8;}
	.st27{fill-rule:evenodd;clip-rule:evenodd;fill:#35414D;}
	.st28{fill-rule:evenodd;clip-rule:evenodd;fill:#99DD58;}
	.st29{fill-rule:evenodd;clip-rule:evenodd;fill:#97DA7B;}
	.st30{fill-rule:evenodd;clip-rule:evenodd;fill:#68CA44;}
	.st31{fill:none;stroke:#35414D;stroke-width:1.5409;stroke-linecap:round;stroke-linejoin:round;stroke-miterlimit:13.3333;}
	.st32{fill:#6F909E;}
	.st33{fill:none;stroke:#35414D;stroke-width:2.8728;stroke-linecap:round;stroke-linejoin:round;stroke-miterlimit:10;}
	.st34{fill:#F1E8DC;}
	.st35{fill:#9A99A1;}
	.st36{fill:#54C1ED;}
	.st37{fill:#F4644D;}
	.st38{fill:#8BC932;}
	.st39{fill:#F9D36B;}
	.st40{fill:#EFDBC6;}
	.st41{fill:#E5CFBD;}
	.st42{fill:#46BEE8;}
	.st43{fill:#17AFDE;}
	.st44{fill:#FFB155;}
	.st45{fill-rule:evenodd;clip-rule:evenodd;fill:#F4644D;}
	.st46{fill:#E6F0F6;}
	.st47{fill:#AACFE2;}
	.st48{fill:#F19B40;}
	.st49{fill-rule:evenodd;clip-rule:evenodd;fill:#E8533A;}
</style>
<g>
	<g>
		<g id="g7750_23_" transform="translate(18.5,457.4355)">
			<g id="path7752_23_">
				<path class="st0" d="M64.9-445.3l43.6,100c0.4,0.8,0,1.8-0.8,2.1l-22.7,9.9l-48.5,21.2l-9.6,4.2c-0.8,0.3-1.7-0.1-2.1-0.9
					l-40-91.8l-0.4-0.9c-0.1-0.1-0.1-0.2-0.1-0.4l11.5-5c3.1-1.4,4.5-5.2,3.1-8.6l-5-11.4c0.1-0.1,0.2-0.2,0.3-0.2l1.1-0.5
					l63.5-27.7c0.8-0.3,1.7,0.1,2.1,0.9L64.9-445.3z"/>
			</g>
		</g>
		<g id="g7754_24_" transform="translate(257.3203,504.5)">
			<g id="path7756_24_">
				<path class="st1" d="M-229.2-480.9c-5.7,16.7-4.3,39.4,5.3,61.4c2.1,4.8,4.5,9.3,7,13.5c0.8,1.4,1.7,2.7,2.6,4
					c1.1,1.6,2.1,3.1,3.3,4.5c10.5,13.7,23.4,23,36.1,26.4l-27.3,11.9l-9.6,4.2c-0.8,0.3-1.7-0.1-2.1-0.9l-7.4-17l-9.8-22.5
					l-22.8-52.4l-0.4-0.9c-0.1-0.1-0.1-0.2-0.1-0.4l9.6-25c0.1-0.1,0.2-0.2,0.3-0.2l1.1-0.5L-229.2-480.9z"/>
			</g>
		</g>
		<g id="g7758_23_" transform="translate(331.5508,504.1592)">
			<g id="path7760_23_">
				<path class="st2" d="M-319.1-473.6l5,11.4c1.5,3.3,0.1,7.2-3.1,8.6l-11.5,5c0-0.2,0.1-0.5,0.4-1.2l8.7-22.6
					C-319.4-473.1-319.3-473.4-319.1-473.6"/>
			</g>
		</g>
		<g id="g7762_23_" transform="translate(331.5508,504.1592)">
			<g id="path7764_23_">
				<path class="st3" d="M-326.9-447.4l10.5-4.6c4.1-1.8,5.9-6.7,4-11l-5-11.4c-0.4-0.9-1.5-1.4-2.4-0.9c0,0,0,0,0,0
					c-0.9,0.4-1.4,1.5-0.9,2.4l5,11.4c1.1,2.4,0.1,5.2-2.1,6.2l-10.5,4.6c-0.9,0.4-1.4,1.5-0.9,2.4S-327.9-447-326.9-447.4z"/>
			</g>
		</g>
		<g id="g7766_23_" transform="translate(413.1929,241.0635)">
			<g id="path7768_23_">
				<path class="st3" d="M-371.6-91.7l-40.4-92.6c-0.1-0.3-0.2-0.5-0.2-0.8c-0.1-0.4-0.1-0.8,0-1.3l9.1-23.5l0.1-0.3
					c0.3-0.9,0.6-1.7,1.7-2.2l64.6-28.2c1.7-0.7,3.7,0.1,4.5,1.8l47.6,109.1c0.8,1.8,0,3.8-1.7,4.6l-80.9,35.2
					C-368.8-89.2-370.8-90-371.6-91.7z M-335.3-237.2l-64,27.9c0,0.1-0.1,0.2-0.1,0.2l-9,23.4l40.2,92.2l80.3-35L-335.3-237.2z"/>
			</g>
		</g>
		<g>
			<g>
				<g>
					<g>
						<path class="st4" d="M105.8,89.3L87,97.5l2.3,5.2l18.9-8.2L105.8,89.3z"/>
					</g>
					<g>
						<path class="st5" d="M87,97.5l2.3,5.2l18.9-8.2l-0.7-1.6l-2.3,1c-5.4,2.4-10.9,3-13.5,1.6L87,97.5z"/>
					</g>
					<g>
						<path class="st6" d="M82.9,99.3l-18.9,8.2l2.3,5.2l18.9-8.2L82.9,99.3z"/>
					</g>
					<g>
						<path class="st7" d="M60,109.3l-18.9,8.2l2.3,5.2l18.9-8.2L60,109.3z"/>
					</g>
					<g>
						<path class="st8" d="M41.2,117.5l2.3,5.2l18.9-8.2l-0.7-1.6l-2.3,1c-5.4,2.4-10.9,3-13.5,1.6L41.2,117.5z"/>
					</g>
					<g>
						<path class="st9" d="M64.1,107.5l2.3,5.2l18.9-8.2l-0.7-1.6l-2.3,1c-5.4,2.4-10.9,3-13.5,1.6L64.1,107.5z"/>
					</g>
				</g>
				<g>
					<g>
						<path class="st10" d="M92.3,109.7l12.1-5.3c0.5-0.2,0.6-0.8,0.4-1.3c-0.2-0.5-0.8-0.8-1.2-0.6l-12.1,5.3
							c-0.5,0.2-0.6,0.8-0.4,1.3C91.3,109.7,91.9,109.9,92.3,109.7z"/>
					</g>
					<g>
						<path class="st11" d="M107.7,103.1l3.5-1.5c0.5-0.2,0.6-0.8,0.4-1.3c-0.2-0.5-0.8-0.8-1.2-0.6l-3.5,1.5
							c-0.5,0.2-0.6,0.8-0.4,1.3C106.7,103,107.2,103.3,107.7,103.1z"/>
					</g>
					<g>
						<path class="st10" d="M95,115.9l18.9-8.2c0.5-0.2,0.6-0.8,0.4-1.3c-0.2-0.5-0.8-0.8-1.2-0.6L94.2,114
							c-0.5,0.2-0.6,0.8-0.4,1.3C94,115.8,94.6,116.1,95,115.9z"/>
					</g>
					<g>
						<path class="st10" d="M69.4,119.7l12.1-5.3c0.5-0.2,0.6-0.8,0.4-1.3c-0.2-0.5-0.8-0.8-1.2-0.6l-12.1,5.3
							c-0.5,0.2-0.6,0.8-0.4,1.3C68.4,119.6,69,119.9,69.4,119.7z"/>
					</g>
					<g>
						<path class="st12" d="M84.8,113l3.5-1.5c0.5-0.2,0.6-0.8,0.4-1.3c-0.2-0.5-0.8-0.8-1.2-0.6l-3.5,1.5c-0.5,0.2-0.6,0.8-0.4,1.3
							S84.3,113.2,84.8,113z"/>
					</g>
					<g>
						<path class="st10" d="M72.1,125.9l18.9-8.2c0.5-0.2,0.6-0.8,0.4-1.3c-0.2-0.5-0.8-0.8-1.2-0.6l-18.9,8.2
							c-0.5,0.2-0.6,0.8-0.4,1.3C71.1,125.8,71.7,126.1,72.1,125.9z"/>
					</g>
					<g>
						<path class="st10" d="M46.5,129.7l12.1-5.3c0.5-0.2,0.6-0.8,0.4-1.3s-0.8-0.8-1.2-0.6l-12.1,5.3c-0.5,0.2-0.6,0.8-0.4,1.3
							S46.1,129.9,46.5,129.7z"/>
					</g>
					<g>
						<path class="st13" d="M61.9,123l3.5-1.5c0.5-0.2,0.6-0.8,0.4-1.3c-0.2-0.5-0.8-0.8-1.2-0.6l-3.5,1.5c-0.5,0.2-0.6,0.8-0.4,1.3
							S61.4,123.2,61.9,123z"/>
					</g>
					<g>
						<path class="st10" d="M49.2,135.9l18.9-8.2c0.5-0.2,0.6-0.8,0.4-1.3c-0.2-0.5-0.8-0.8-1.2-0.6l-18.9,8.2
							c-0.5,0.2-0.6,0.8-0.4,1.3S48.8,136.1,49.2,135.9z"/>
					</g>
				</g>
				<g>
					<g>
						<g>
							<path class="st3" d="M27.2,81.7l61.9-27c0.7-0.3,1-1.1,0.7-1.8c-0.3-0.7-1.1-1-1.8-0.7l-61.9,27c-0.7,0.3-1,1.1-0.7,1.8
								C25.8,81.7,26.6,82,27.2,81.7L27.2,81.7z"/>
						</g>
						<g>
							<path class="st3" d="M41.7,80.9l49.4-21.5c0.7-0.3,1-1.1,0.7-1.8s-1.1-1-1.8-0.7L40.6,78.4c-0.7,0.3-1,1.1-0.7,1.8
								C40.2,80.9,41,81.2,41.7,80.9z"/>
						</g>
						<g>
							<path class="st3" d="M32.5,93.8l61.9-27c0.7-0.3,1-1.1,0.7-1.8c-0.3-0.7-1.1-1-1.8-0.7l-61.9,27c-0.7,0.3-1,1.1-0.7,1.8
								C31.1,93.8,31.8,94.1,32.5,93.8L32.5,93.8z"/>
						</g>
						<g>
							<path class="st3" d="M40.4,95.9l56-24.4c0.7-0.3,1-1.1,0.7-1.8c-0.3-0.7-1.1-1-1.8-0.7l-56,24.4c-0.7,0.3-1,1.1-0.7,1.8
								C38.9,95.9,39.7,96.2,40.4,95.9z"/>
						</g>
						<g>
							<path class="st3" d="M37.8,105.9l61.9-27c0.7-0.3,1-1.1,0.7-1.8c-0.3-0.7-1.1-1-1.8-0.7l-61.9,27c-0.7,0.3-1,1.1-0.7,1.8
								S37.1,106.2,37.8,105.9L37.8,105.9z"/>
						</g>
						<g>
							<path class="st3" d="M58,102.6l43.7-19c0.7-0.3,1-1.1,0.7-1.8c-0.3-0.7-1.1-1-1.8-0.7l-43.7,19c-0.7,0.3-1,1.1-0.7,1.8
								S57.3,102.9,58,102.6z"/>
						</g>
					</g>
					<g>
						<path class="st3" d="M22.3,73.7L20,68.5c-0.3-0.7,0-1.5,0.7-1.8l61.9-27c0.7-0.3,1.5,0,1.8,0.7l2.3,5.2c0.3,0.7,0,1.5-0.7,1.8
							l-61.9,27C23.4,74.7,22.6,74.4,22.3,73.7z M82.4,42.8L23,68.7l1.2,2.7l59.4-25.9L82.4,42.8z"/>
					</g>
				</g>
			</g>
		</g>
		<g>
			<g>
				<g>
					<path class="st6" d="M74,17.4L45.5,29.9L52,44.8l28.5-12.4L74,17.4z"/>
				</g>
				<g>
					<path class="st3" d="M44.3,30.4l6.5,14.9c0.3,0.7,1.1,1,1.8,0.7l28.5-12.4c0.7-0.3,1-1.1,0.7-1.8l-6.5-14.9
						c-0.3-0.7-1.1-1-1.8-0.7L45,28.6C44.3,28.9,44,29.7,44.3,30.4z M47.3,30.6l26.1-11.4l5.4,12.5L52.7,43L47.3,30.6z"/>
				</g>
			</g>
			<g>
				<g>
					<path class="st3" d="M24.4,38l15.2-6.6c0.4-0.2,1,0.2,1.3,0.9c0.3,0.7,0.2,1.4-0.3,1.6l-15.2,6.6c-0.4,0.2-1-0.2-1.3-0.9
						C23.9,38.9,24,38.2,24.4,38z"/>
				</g>
				<g>
					<path class="st3" d="M26.2,45.7l16.4-7.2c0.5-0.2,1.1,0.2,1.4,0.9c0.3,0.7,0.1,1.4-0.3,1.6l-16.4,7.2c-0.5,0.2-1.1-0.2-1.4-0.9
						S25.8,45.9,26.2,45.7z"/>
				</g>
			</g>
		</g>
	</g>
	<g>
		<g>
			<path class="st14" d="M70.4,534.3c4.2,0,8.1-2.2,10.2-5.8l46.7-79.8c3.3-5.6,1.4-12.8-4.2-16.1l-57.6-33.7
				c-1.8-1.1-3.9-1.6-5.9-1.6c-4.2,0-8.1,2.2-10.2,5.8L2.7,482.9c-1.6,2.7-2,5.9-1.2,8.9c0.8,3,2.7,5.6,5.4,7.2l57.6,33.7
				C66.3,533.8,68.4,534.3,70.4,534.3L70.4,534.3z"/>
			<path class="st3" d="M59.6,398.4c1.8,0,3.7,0.5,5.4,1.5l57.6,33.7c5.1,3,6.8,9.5,3.8,14.6L79.7,528c-2,3.4-5.6,5.3-9.2,5.3
				c-1.8,0-3.7-0.5-5.4-1.5L7.5,498.1c-5.1-3-6.8-9.5-3.8-14.6l46.7-79.8C52.3,400.3,55.9,398.4,59.6,398.4 M59.6,396.2
				c-4.6,0-8.8,2.4-11.1,6.4L1.8,482.4c-1.7,3-2.2,6.4-1.3,9.8c0.9,3.3,3,6.1,6,7.8L64,533.7c2,1.2,4.2,1.8,6.5,1.8
				c4.6,0,8.8-2.4,11.1-6.4l46.7-79.8c1.7-3,2.2-6.4,1.3-9.8c-0.9-3.3-3-6.1-6-7.8L66,398C64.1,396.8,61.8,396.2,59.6,396.2
				L59.6,396.2z"/>
		</g>
		<g id="g7750_22_" transform="translate(18.5,457.4355)">
			<path id="path7752_22_" class="st15" d="M101.6-8.3L54.4,72.3c-0.4,0.7-1.2,0.9-1.9,0.6L34.3,62.1L-4.9,39.2l-7.8-4.5
				c-0.6-0.4-0.8-1.2-0.4-1.9l43.3-74l0.4-0.8c0.1-0.1,0.1-0.2,0.2-0.2l9.3,5.4c2.5,1.5,5.9,0.5,7.5-2.2l5.4-9.2
				c0.1,0,0.2,0,0.3,0.1l0.9,0.5l51.2,30c0.6,0.4,0.8,1.2,0.4,1.9L101.6-8.3z"/>
		</g>
		<g id="g7754_23_" transform="translate(257.3203,504.5)">
			<path id="path7756_23_" class="st16" d="M-173.1-87.8c-14.5,4.5-29.4,16.9-39.8,34.7c-2.3,3.9-4.2,7.8-5.8,11.7
				c-0.5,1.3-1,2.5-1.4,3.8c-0.5,1.5-1,3-1.5,4.5c-4.2,14.1-4.1,27.8,0,38.3l-22-12.9l-7.8-4.5c-0.6-0.4-0.8-1.2-0.4-1.9l8-13.7
				l10.6-18.1l24.7-42.2l0.4-0.8c0.1-0.1,0.1-0.2,0.2-0.2l22.1-6c0.1,0,0.2,0,0.3,0.1l0.9,0.5L-173.1-87.8z"/>
		</g>
		<g id="g7758_22_" transform="translate(331.5508,504.1592)">
			<path id="path7760_22_" class="st2" d="M-260-94.9l-5.4,9.2c-1.6,2.7-4.9,3.7-7.5,2.2l-9.3-5.4c0.2-0.1,0.4-0.2,1-0.3l20-5.4
				C-260.5-94.8-260.3-94.9-260-94.9"/>
		</g>
		<g id="g7762_22_" transform="translate(331.5508,504.1592)">
			<path id="path7764_22_" class="st17" d="M-260-94.9l-5.4,9.2c-1.6,2.7-4.9,3.7-7.5,2.2l-8.4-4.9"/>
		</g>
		<g id="g7766_22_" transform="translate(413.1929,241.0635)">
			<path id="path7768_22_" class="st17" d="M-310.9,238.4l-29.4,50.3c-0.4,0.7-1.2,0.9-1.9,0.6l-18.3-10.7l-46.9-27.4
				c-0.6-0.4-0.8-1.2-0.4-1.9l13.3-22.7l30.4-51.9 M-363.7,174.1l20.8-5.6c0.9-0.3,1.1-0.3,1.5-0.1l0.9,0.5l51.2,30
				c0.6,0.4,0.8,1.2,0.4,1.9l-22.8,39"/>
		</g>
		<g>
			<g id="g7770_18_" transform="translate(330.2446,64.9756)">
				<path id="path7772_18_" class="st18" d="M-302.3,431.4c1.9,1.4,3.5-0.9,4.2-0.3c0.5,0.4,0.2,1.4,0.3,2.6c0.2,1.3,1,1.4,2.1,1.1
					c2.5-0.6,0.7,2.9,3.7,2.2"/>
			</g>
			<g id="g7774_18_" transform="translate(423.1602,447.0527)">
				<path id="path7776_18_" class="st2" d="M-382.7,7.3l-4.4-1.1l0.9-3.8c0.3-1.2,1.5-2,2.7-1.7c1.2,0.3,2,1.5,1.7,2.7L-382.7,7.3z"
					/>
			</g>
			<g id="g7778_18_" transform="translate(325.644,101.1182)">
				<path id="path7780_18_" class="st19" d="M-295.2,392l-2.3,3.1c-0.2,0.2-0.2,0.2-0.2-0.1l-0.6-3.8l-0.7-4.1l3.7-1.4l2.6,2.9
					L-295.2,392z"/>
			</g>
			<g id="g7782_18_" transform="translate(412.0854,441.0947)">
				<path id="path7784_18_" class="st20" d="M-370.9,14.5l-8.3,34.2l-3.2-0.8l-3.2-0.8l7.7-31.7l0.6-2.5c0.1-0.5,0.7-0.9,1.2-0.7
					l4.4,1.1C-371.1,13.4-370.7,14-370.9,14.5"/>
			</g>
			<g id="g7786_18_" transform="translate(452.5229,474.4854)">
				<path id="path7788_18_" class="st21" d="M-413.3-24.4l-0.9,3.8l-2.2-0.5l0.9-3.8c0.3-1.2,1.5-2,2.7-1.7c0.4,0.1,0.8,0.3,1,0.6
					C-412.5-25.8-413.1-25.2-413.3-24.4"/>
			</g>
			<g id="g7790_18_" transform="translate(441.9307,407.96)">
				<path id="path7792_18_" class="st22" d="M-405.5,49.1l-7.4,30.3l-0.4,1.5l-2.2-0.5l7.7-31.7l0.6-2.5c0.1-0.5,0.7-0.9,1.2-0.7
					l2.2,0.5c-0.5-0.1-1.1,0.2-1.2,0.7L-405.5,49.1z"/>
			</g>
			<g id="g7794_18_" transform="translate(357.9888,127.2178)">
				<path id="path7796_18_" class="st23" d="M-329.2,361.6l0.7,4.1l0.2,1.2l-1.5,2.1c-0.2,0.2-0.2,0.2-0.2-0.1l-0.6-3.8l-0.7-4.1
					L-329.2,361.6z"/>
			</g>
			<g id="g7798_18_" transform="translate(461.3545,402.1719)">
				<path id="path7800_18_" class="st18" d="M-427.1,54.4l-3.6-0.9l-3,12.3"/>
			</g>
			<g id="g7802_18_" transform="translate(374.0615,313.9443)">
				<path id="path7804_18_" class="st18" d="M-336.3,156l3.5-14.4c0.1-0.5-0.2-1.1-0.7-1.2l-4.4-1.1c-0.5-0.1-1.1,0.2-1.2,0.7
					l-8.3,34.2l6.3,1.5l3.9-16.1"/>
			</g>
			<g id="g7806_18_" transform="translate(331.5225,66.168)">
				<path id="path7808_18_" class="st18" d="M-303.7,430l-0.6-3.8l-0.7-4.1l3.2,0.8l3.2,0.8l-2.5,3.3l-2.3,3.1
					C-303.6,430.3-303.6,430.3-303.7,430z"/>
			</g>
			<g id="g7810_18_" transform="translate(423.1602,447.0527)">
				<path id="path7812_18_" class="st18" d="M-382.7,7.3l-4.4-1.1l0.9-3.8c0.3-1.2,1.5-2,2.7-1.7c1.2,0.3,2,1.5,1.7,2.7L-382.7,7.3z
					"/>
			</g>
		</g>
		<g>
			<path class="st3" d="M61.1,438.5c0.3-0.1,0.6-0.1,0.8,0.1c0.1,0.1,0.2,0.2,0.3,0.3l3.5,4.1c0.4,0.5,0.3,1.1-0.1,1.5
				s-1.1,0.3-1.5-0.1l-1.8-2.1l-0.7,8.5l5,0.4c0.6,0,1,0.6,1,1.2c0,0,0,0,0,0l-0.8,9.1c0,0.6-0.6,1-1.2,1c0,0,0,0,0,0
				c-0.6,0-1-0.6-1-1.2c0,0,0,0,0,0l0.7-8.1l-5-0.4c-0.6,0-1-0.6-1-1.2c0,0,0,0,0,0l0.8-9.6l-2.1,1.8c-0.5,0.4-1.1,0.3-1.5-0.1
				c-0.4-0.5-0.3-1.1,0.1-1.5l4.1-3.5C60.8,438.6,60.9,438.6,61.1,438.5L61.1,438.5z"/>
			<path class="st24" d="M61.7,438.4c0.3-0.1,0.6-0.1,0.8,0.1c0.1,0.1,0.2,0.2,0.3,0.3l3.5,4.1c0.4,0.5,0.3,1.1-0.1,1.5
				c-0.5,0.4-1.1,0.3-1.5-0.1l-1.8-2.1l-0.7,8.5l5,0.4c0.6,0,1,0.6,1,1.2c0,0,0,0,0,0l-0.8,9.1c0,0.6-0.6,1-1.2,1c0,0,0,0,0,0
				c-0.6,0-1-0.6-1-1.2c0,0,0,0,0,0l0.7-8.1l-5-0.4c-0.6,0-1-0.6-1-1.2c0,0,0,0,0,0l0.8-9.6l-2.1,1.8c-0.5,0.4-1.1,0.3-1.5-0.1
				s-0.3-1.1,0.1-1.5l4.1-3.5C61.5,438.5,61.6,438.5,61.7,438.4L61.7,438.4z"/>
		</g>
		<g>
			<g>
				<path class="st3" d="M93.2,460.2l-1.7-2.9c-0.3-0.5-0.1-1.2,0.4-1.5c0.5-0.3,1.2-0.1,1.5,0.4l1.1,1.9l4.8-2.8
					c0.5-0.3,1.2-0.1,1.5,0.4s0.1,1.2-0.4,1.5l-5.8,3.3C94.2,461,93.5,460.8,93.2,460.2L93.2,460.2z M87.9,455l-7.5-2
					c-0.6-0.2-1.2,0.2-1.4,0.8c-0.2,0.6,0.2,1.2,0.8,1.4l7.5,2c0.6,0.2,1.2-0.2,1.4-0.8S88.5,455.2,87.9,455z M97.3,464.1
					c-0.3-0.5-1-0.7-1.5-0.4l-2.6,1.5l-1.5-2.6c-0.3-0.5-1-0.7-1.5-0.4c-0.5,0.3-0.7,1-0.4,1.5l1.5,2.6l-2.6,1.5
					c-0.5,0.3-0.7,1-0.4,1.5c0.3,0.5,1,0.7,1.5,0.4l2.6-1.5l1.5,2.6c0.3,0.5,1,0.7,1.5,0.4c0.5-0.3,0.7-1,0.4-1.5l-1.5-2.6l2.6-1.5
					C97.4,465.4,97.6,464.7,97.3,464.1L97.3,464.1z M85.6,463.6l-7.5-2c-0.6-0.2-1.2,0.2-1.4,0.8s0.2,1.2,0.8,1.4l7.5,2
					c0.6,0.2,1.2-0.2,1.4-0.8C86.5,464.4,86.2,463.8,85.6,463.6z"/>
			</g>
			<g>
				<path class="st25" d="M93.4,459.6l-1.7-2.9c-0.3-0.5-0.1-1.2,0.4-1.5c0.5-0.3,1.2-0.1,1.5,0.4l1.1,1.9l4.8-2.8
					c0.5-0.3,1.2-0.1,1.5,0.4s0.1,1.2-0.4,1.5l-5.8,3.3C94.4,460.3,93.7,460.1,93.4,459.6L93.4,459.6z M88.1,454.4l-7.5-2
					c-0.6-0.2-1.2,0.2-1.4,0.8c-0.2,0.6,0.2,1.2,0.8,1.4l7.5,2c0.6,0.2,1.2-0.2,1.4-0.8S88.7,454.5,88.1,454.4z M97.5,463.5
					c-0.3-0.5-1-0.7-1.5-0.4l-2.6,1.5l-1.5-2.6c-0.3-0.5-1-0.7-1.5-0.4s-0.7,1-0.4,1.5l1.5,2.6l-2.6,1.5c-0.5,0.3-0.7,1-0.4,1.5
					c0.3,0.5,1,0.7,1.5,0.4l2.6-1.5l1.5,2.6c0.3,0.5,1,0.7,1.5,0.4c0.5-0.3,0.7-1,0.4-1.5l-1.5-2.6L97,465
					C97.6,464.7,97.8,464,97.5,463.5L97.5,463.5z M85.7,463l-7.5-2c-0.6-0.2-1.2,0.2-1.4,0.8s0.2,1.2,0.8,1.4l7.5,2
					c0.6,0.2,1.2-0.2,1.4-0.8C86.7,463.7,86.3,463.1,85.7,463z"/>
			</g>
		</g>
		<g>
			<path class="st3" d="M59.4,472.3c0,0.1,0.1,0.2,0.2,0.2c0.1,0,0.2,0.1,0.3,0L62,472c0.2-0.1,0.3-0.3,0.3-0.5
				c-0.1-0.2-0.3-0.3-0.5-0.3l-2.1,0.6C59.5,471.9,59.4,472.1,59.4,472.3z M57.3,465.9l-1.1,1.9c-0.1,0.2,0,0.4,0.1,0.5
				c0.2,0.1,0.4,0,0.5-0.1l1.1-1.9c0.1-0.2,0-0.4-0.1-0.5C57.7,465.6,57.4,465.7,57.3,465.9z M50.6,464.8c-0.2,0.1-0.3,0.3-0.3,0.5
				l0.6,2.1c0,0.1,0.1,0.2,0.2,0.2c0.1,0,0.2,0.1,0.3,0c0.2-0.1,0.3-0.3,0.3-0.5l-0.6-2.1C51,464.8,50.8,464.7,50.6,464.8
				L50.6,464.8z M44.8,469.2c-0.1,0.2,0,0.4,0.1,0.5l1.9,1.1c0.2,0.1,0.4,0,0.5-0.1c0.1-0.2,0-0.4-0.1-0.5l-1.9-1.1
				C45.2,468.9,44.9,469,44.8,469.2z M58.7,477.3c-0.1,0.2,0,0.4,0.1,0.5l1.9,1.1c0.2,0.1,0.4,0,0.5-0.1c0.1-0.2,0-0.4-0.1-0.5
				l-1.9-1.1C59.1,477.1,58.8,477.1,58.7,477.3z M47.1,474.2l-0.2,5l-0.2-0.1c-0.6-0.4-1.4-0.2-1.8,0.5c-0.2,0.3-0.2,0.7-0.1,1
				c-0.3,0.1-0.6,0.3-0.8,0.6c-0.4,0.6-0.2,1.4,0.5,1.8l0.9,0.5c-0.3,0.8,0.1,1.7,0.8,2.1c0.8,0.4,1.7,0.3,2.3-0.3l0.9,0.5
				c0.6,0.4,1.4,0.2,1.8-0.5c0.2-0.3,0.2-0.7,0.1-1c0.3-0.1,0.6-0.3,0.8-0.6c0.4-0.6,0.2-1.4-0.5-1.8l-0.2-0.1l4.3-2.6
				c1-0.5,1.8-1.3,2.4-2.3c1.7-2.8,0.7-6.5-2.1-8.1c-2.8-1.7-6.5-0.7-8.1,2.1C47.3,471.9,47.1,473.1,47.1,474.2z M46.1,483.9l1.7,1
				c-0.3,0.3-0.8,0.3-1.2,0.1C46.2,484.8,46,484.3,46.1,483.9z M44.7,481.5c0.2-0.3,0.5-0.4,0.8-0.2l4.9,2.9
				c0.3,0.2,0.4,0.5,0.2,0.8c-0.2,0.3-0.5,0.4-0.8,0.2l-4.9-2.9C44.6,482.2,44.5,481.8,44.7,481.5z M51.3,482.6
				c0.3,0.2,0.4,0.5,0.2,0.8c-0.2,0.3-0.5,0.4-0.8,0.2l-4.9-2.9c-0.3-0.2-0.4-0.5-0.2-0.8s0.5-0.4,0.8-0.2L51.3,482.6z M49.6,480.8
				l-0.8-0.5l1.3-3.6l1.4,0l0.6,1.2L49.6,480.8z M47.8,474.2C47.8,474.2,47.8,474.2,47.8,474.2c0-1,0.2-2,0.7-2.9
				c1.5-2.5,4.6-3.3,7.1-1.9c2.5,1.5,3.3,4.6,1.9,7.1c-0.5,0.9-1.2,1.6-2.1,2c0,0,0,0,0,0l-4.6,2.8l-0.5-0.3l2.5-2.8l1.7,0
				c0.2,0,0.4-0.2,0.4-0.4c0-0.2-0.2-0.4-0.4-0.4l-1.6,0l-0.8-1.4c-0.1-0.1-0.2-0.2-0.3-0.2l-1.6,0l-0.8-1.4
				c-0.1-0.2-0.3-0.3-0.5-0.2c-0.2,0.1-0.3,0.3-0.2,0.5l0.8,1.5l-1.3,3.5l-0.5-0.3L47.8,474.2L47.8,474.2z"/>
			<path class="st26" d="M50.1,476.7l-1.3,3.6l0.8,0.5l2.5-2.9l-0.6-1.2L50.1,476.7z"/>
			<path class="st25" d="M48.5,471.3c-0.5,0.9-0.8,1.8-0.7,2.8c0,0,0,0,0,0l-0.2,5.4l0.5,0.3l1.3-3.5l-0.8-1.5
				c-0.1-0.2,0-0.4,0.2-0.5c0.2-0.1,0.4,0,0.5,0.2l0.8,1.4l1.6,0c0.1,0,0.3,0.1,0.3,0.2l0.8,1.4l1.6,0c0.2,0,0.4,0.2,0.4,0.4
				c0,0.2-0.2,0.4-0.4,0.4l-1.7,0l-2.5,2.8l0.5,0.3l4.6-2.8c0,0,0,0,0,0c0.9-0.5,1.6-1.1,2.1-2c1.5-2.5,0.6-5.7-1.9-7.1
				C53.2,468,50,468.9,48.5,471.3L48.5,471.3z"/>
			<g>
				<path class="st26" d="M45.6,479.9c-0.2,0.3-0.1,0.6,0.2,0.8l4.9,2.9c0.3,0.2,0.6,0.1,0.8-0.2s0.1-0.6-0.2-0.8l-4.9-2.9
					C46.1,479.6,45.7,479.7,45.6,479.9z"/>
				<path class="st26" d="M44.7,481.5c-0.2,0.3-0.1,0.6,0.2,0.8l4.9,2.9c0.3,0.2,0.6,0.1,0.8-0.2c0.2-0.3,0.1-0.6-0.2-0.8l-4.9-2.9
					C45.2,481.2,44.8,481.3,44.7,481.5z"/>
				<path class="st26" d="M46.1,483.9c-0.1,0.4,0.1,0.9,0.5,1.1c0.4,0.2,0.9,0.2,1.2-0.1L46.1,483.9z"/>
			</g>
		</g>
		<g>
			<g>
				<path class="st27" d="M79.5,478.8c-0.4-0.2-0.9-0.1-1.2,0.3l-5.4,8.8c-0.2,0.4-0.1,0.9,0.3,1.2l8.8,5.4c0.4,0.2,0.9,0.1,1.2-0.3
					l2.7-4.4c0.2-0.4,0.8-0.5,1.2-0.3c0.4,0.2,0.5,0.8,0.3,1.2l-2.7,4.4c-0.7,1.2-2.3,1.6-3.5,0.9l-8.8-5.4
					c-1.2-0.7-1.6-2.3-0.9-3.5l5.4-8.8c0.7-1.2,2.3-1.6,3.5-0.9l7.3,4.5c0.4,0.2,0.5,0.8,0.3,1.2c-0.2,0.4-0.8,0.5-1.2,0.3
					L79.5,478.8z M90.3,484.7c0.5-0.1,0.9,0.2,1,0.6c0.1,0.5-0.2,0.9-0.6,1l-10.6,2.6c-0.5,0.1-0.9-0.2-1-0.6l-0.9-3.5
					c-0.1-0.5,0.2-0.9,0.6-1c0.5-0.1,0.9,0.2,1,0.6l0.7,2.7L90.3,484.7z"/>
			</g>
			<g>
				<path class="st28" d="M79.4,478c-0.4-0.2-0.9-0.1-1.2,0.3l-5.4,8.8c-0.2,0.4-0.1,0.9,0.3,1.2l8.8,5.4c0.4,0.2,0.9,0.1,1.2-0.3
					l2.7-4.4c0.2-0.4,0.8-0.5,1.2-0.3s0.5,0.8,0.3,1.2l-2.7,4.4c-0.7,1.2-2.3,1.6-3.5,0.9l-8.8-5.4c-1.2-0.7-1.6-2.3-0.9-3.5
					l5.4-8.8c0.7-1.2,2.3-1.6,3.5-0.9l7.3,4.5c0.4,0.2,0.5,0.8,0.3,1.2c-0.2,0.4-0.8,0.5-1.2,0.3L79.4,478z M90.1,483.8
					c0.5-0.1,0.9,0.2,1,0.6c0.1,0.5-0.2,0.9-0.6,1l-10.6,2.6c-0.5,0.1-0.9-0.2-1-0.6l-0.9-3.5c-0.1-0.5,0.2-0.9,0.6-1
					c0.5-0.1,0.9,0.2,1,0.6l0.7,2.7L90.1,483.8z"/>
			</g>
		</g>
		<g>
			<path class="st3" d="M52,509c0,0,0.1,0,0.1,0.1c0.3,0.2,0.6,0.2,0.9,0.1l7.4-1.9l2,7.5c0.1,0.2,0.3,0.5,0.5,0.6l0.1,0
				c0,0,0.1,0,0.1,0c0.2,0.1,0.5,0.2,0.8,0.1c0.6-0.2,1-0.8,0.8-1.4l-2-7.5l7.5-2c0.6-0.2,0.9-0.9,0.7-1.5c-0.1-0.3-0.3-0.5-0.5-0.6
				c-0.2-0.1-0.5-0.2-0.8-0.1l-7.5,1.9l-1.9-7.4c-0.1-0.3-0.3-0.5-0.5-0.7c-0.3-0.2-0.6-0.2-0.9-0.1c-0.6,0.2-0.9,0.7-0.8,1.3l2,7.5
				l-7.5,1.9c-0.6,0.1-1,0.8-0.9,1.4c0,0,0,0,0,0C51.6,508.7,51.8,508.9,52,509z"/>
			<path class="st12" d="M52.2,508.4c0,0,0.1,0,0.1,0.1c0.3,0.2,0.6,0.2,0.9,0.1l7.4-1.9l2,7.5c0.1,0.2,0.3,0.5,0.5,0.6l0.1,0
				c0,0,0.1,0,0.1,0c0.2,0.1,0.5,0.2,0.8,0.1c0.6-0.2,1-0.8,0.8-1.4l-2-7.5l7.5-2c0.6-0.2,0.9-0.9,0.7-1.5c-0.1-0.3-0.3-0.5-0.5-0.6
				c-0.2-0.1-0.5-0.2-0.8-0.1l-7.5,1.9l-1.9-7.4c-0.1-0.3-0.3-0.5-0.5-0.7c-0.3-0.2-0.6-0.2-0.9-0.1c-0.6,0.2-0.9,0.7-0.8,1.3l2,7.5
				l-7.5,1.9c-0.6,0.1-1,0.8-0.9,1.4c0,0,0,0,0,0C51.7,508,51.9,508.3,52.2,508.4z"/>
		</g>
		<g>
			<g id="g7830_13_" transform="translate(293.2144,407.6475)">
				<path id="path7832_13_" class="st29" d="M-220.8,18.6l23.5,13.7c0.4,0.2,0.5,0.8,0.3,1.2l-2.5,4.3c-0.2,0.4-0.8,0.5-1.2,0.3
					l-23.5-13.7c-0.4-0.2-0.5-0.8-0.3-1.2l2.5-4.3C-221.8,18.5-221.2,18.4-220.8,18.6"/>
			</g>
			<g id="g7834_13_" transform="translate(293.2144,407.6475)">
				<path id="path7836_13_" class="st30" d="M-220.8,18.6l6.7,3.9c-0.4-0.2-0.9-0.1-1.2,0.3l-2.5,4.3c-0.2,0.4-0.1,0.9,0.3,1.2
					l-6.7-3.9c-0.4-0.2-0.5-0.8-0.3-1.2l2.5-4.3C-221.8,18.5-221.2,18.4-220.8,18.6"/>
			</g>
			<g id="g7838_13_" transform="translate(128.1699,407.6475)">
				<path id="path7840_13_" class="st31" d="M-32.3,32.4l-23.5-13.7c-0.4-0.2-0.9-0.1-1.2,0.3l-2.5,4.3c-0.2,0.4-0.1,0.9,0.3,1.2
					l23.5,13.7c0.4,0.2,0.9,0.1,1.2-0.3l2.5-4.3C-31.8,33.1-31.9,32.6-32.3,32.4z"/>
			</g>
		</g>
		<g>
			<path class="st32" d="M91.6,408.6c1.7-2.8,5.3-3.8,8.1-2.1c2.8,1.7,3.8,5.3,2.1,8.1l10.3,6l-6,10.3c-0.8,1.4-2.6,1.8-3.9,1
				l-25.9-15.1c-1.4-0.8-1.8-2.6-1-3.9l6-10.3L91.6,408.6z"/>
			<path class="st33" d="M100.4,430.9l-24.1-14.1c-1.4-0.8-1.8-2.6-1-3.9l6-10.3l10.3,6c1.7-2.8,5.3-3.8,8.1-2.1
				c2.8,1.7,3.8,5.3,2.1,8.1l10.3,6l-6,10.3c-0.8,1.4-2.6,1.8-3.9,1l-3.6-2.1"/>
			<line class="st33" x1="102.5" y1="425.4" x2="81.9" y2="413.3"/>
			<g>
				<g>
					<line class="st33" x1="96.7" y1="411.6" x2="96.7" y2="411.6"/>
				</g>
			</g>
		</g>
	</g>
	<g>
		<path class="st34" d="M120.6,297.6l-80.4,26.8c-2.4,0.8-5.1-0.5-5.9-2.9l-27-81.1l69.4-23.1l20.6,10.3L120.6,297.6z"/>
		<circle class="st35" cx="20.4" cy="242.6" r="1.7"/>
		<circle class="st35" cx="37.8" cy="236.7" r="1.7"/>
		<circle class="st35" cx="55.2" cy="230.9" r="1.7"/>
		<circle class="st35" cx="72.6" cy="225.1" r="1.7"/>
		<path class="st36" d="M54.3,264l3.8,11.5l0,0l6.6-2.2c0.6-0.2,0.9-0.9,0.7-1.5l-3.1-9.3c-0.2-0.6-0.9-0.9-1.5-0.7L54.3,264
			L54.3,264z"/>
		<path class="st37" d="M25.7,255.4l8.9,26.7c0.2,0.6,0.9,0.9,1.5,0.7l6.6-2.2l0,0l-9.3-27.8c-0.2-0.6-0.9-0.9-1.5-0.7l-5.5,1.8
			C25.8,254.1,25.5,254.8,25.7,255.4z"/>
		<path class="st38" d="M44.7,260.8l5.7,17.2l0,0l7.7-2.6l0,0l-5.4-16.1c-0.2-0.6-0.9-0.9-1.5-0.7L44.7,260.8L44.7,260.8z"/>
		<path class="st39" d="M35,257.4l7.7,23.1l0,0l7.7-2.6l0,0L43,256c-0.2-0.6-0.9-0.9-1.5-0.7L35,257.4L35,257.4z"/>
		<path class="st40" d="M109.6,301.2l11-3.7l-23.4-70.1l-8.8-4.4l24.1,72.3C113.3,297.8,112,300.4,109.6,301.2z"/>
		<path class="st41" d="M97.2,227.5l-11,3.7c-2.4,0.8-5.1-0.5-5.9-2.9l0,0l-3.7-11L97.2,227.5z"/>
		<path class="st35" d="M68.5,256.1l24.2-8.1c0.9-0.3,1.4-1.3,1.1-2.2c-0.3-0.9-1.3-1.4-2.2-1.1l-24.2,8.1c-0.9,0.3-1.4,1.3-1.1,2.2
			S67.6,256.4,68.5,256.1z"/>
		<path class="st35" d="M77.7,261.4l8.6-2.9c0.9-0.3,1.4-1.3,1.1-2.2c-0.3-0.9-1.3-1.4-2.2-1.1l-8.6,2.9c-0.9,0.3-1.4,1.3-1.1,2.2
			S76.8,261.7,77.7,261.4z"/>
		<path class="st35" d="M91.4,256.8l3.9-1.3c0.9-0.3,1.4-1.3,1.1-2.2c-0.3-0.9-1.3-1.4-2.2-1.1l-3.9,1.3c-0.9,0.3-1.4,1.3-1.1,2.2
			S90.5,257.1,91.4,256.8z"/>
		<path class="st35" d="M66,248.6l18.1-6c0.9-0.3,1.4-1.3,1.1-2.2c-0.3-0.9-1.3-1.4-2.2-1.1l-18.1,6c-0.9,0.3-1.4,1.3-1.1,2.2
			C64.1,248.4,65.1,248.9,66,248.6z"/>
		<circle class="st35" cx="88.1" cy="239.5" r="1.7"/>
		<circle class="st35" cx="72.1" cy="261.4" r="1.7"/>
		<path class="st35" d="M44.2,303.4l24.2-8.1c0.9-0.3,1.4-1.3,1.1-2.2s-1.3-1.4-2.2-1.1l-24.2,8.1c-0.9,0.3-1.4,1.3-1.1,2.2
			C42.3,303.2,43.2,303.7,44.2,303.4z"/>
		<path class="st35" d="M53.3,308.7l8.6-2.9c0.9-0.3,1.4-1.3,1.1-2.2c-0.3-0.9-1.3-1.4-2.2-1.1l-8.6,2.9c-0.9,0.3-1.4,1.3-1.1,2.2
			C51.4,308.5,52.4,309,53.3,308.7z"/>
		<path class="st35" d="M67,304.1l3.9-1.3c0.9-0.3,1.4-1.3,1.1-2.2s-1.3-1.4-2.2-1.1l-3.9,1.3c-0.9,0.3-1.4,1.3-1.1,2.2
			S66.1,304.4,67,304.1z"/>
		<path class="st35" d="M41.7,295.9l18.1-6c0.9-0.3,1.4-1.3,1.1-2.2c-0.3-0.9-1.3-1.4-2.2-1.1l-18.1,6c-0.9,0.3-1.4,1.3-1.1,2.2
			C39.8,295.7,40.7,296.2,41.7,295.9z"/>
		<circle class="st35" cx="63.7" cy="286.7" r="1.7"/>
		<circle class="st35" cx="47.8" cy="308.7" r="1.7"/>
		<path class="st42" d="M76.3,299.7c0.4,1.1,1.6,1.8,2.7,1.5l5-1.2c0.8,1,1.6,2,2.5,2.9l-1.9,4.8c-0.4,1.1,0,2.4,1.1,2.9l6.1,3.1
			c1.1,0.5,2.4,0.2,3-0.9l2.7-4.4c1.3,0.2,2.6,0.3,3.9,0.3l2.1,4.7c0.5,1.1,1.7,1.7,2.9,1.3l6.5-2.2c1.1-0.4,1.8-1.6,1.5-2.7l-1.2-5
			c1-0.8,2-1.6,2.9-2.5l4.8,1.9c1.1,0.4,2.4,0,2.9-1.1l3.1-6.1c0.5-1.1,0.2-2.4-0.9-3l-4.4-2.7c0.2-1.3,0.3-2.6,0.3-3.9l4.7-2.1
			c1.1-0.5,1.7-1.7,1.3-2.9l-2.2-6.5c-0.4-1.1-1.6-1.8-2.7-1.5l-5,1.2c-0.8-1-1.6-2-2.5-2.9l1.9-4.8c0.4-1.1,0-2.4-1.1-2.9l-6.1-3.1
			c-1.1-0.5-2.4-0.2-3,0.9l-2.7,4.4c-1.3-0.2-2.6-0.3-3.9-0.3l-2.1-4.7c-0.5-1.1-1.7-1.7-2.9-1.3l-6.5,2.2c-1.1,0.4-1.8,1.6-1.5,2.7
			l1.2,5c-1,0.8-2,1.6-2.9,2.5l-4.8-1.9c-1.1-0.4-2.4,0-2.9,1.1l-3.1,6.1c-0.5,1.1-0.2,2.4,0.9,3l4.4,2.7c-0.2,1.3-0.3,2.6-0.3,3.9
			l-4.7,2.1c-1.1,0.5-1.7,1.7-1.3,2.9L76.3,299.7L76.3,299.7z M91.8,291L91.8,291c-1.7-5.2,1.1-10.8,6.3-12.5
			c5.2-1.7,10.8,1.1,12.5,6.3s-1.1,10.8-6.3,12.5C99.1,298.9,93.5,296.1,91.8,291z"/>
		<path class="st43" d="M110.3,261.9l6.2,3.1c1.1,0.5,1.6,1.8,1.1,2.9l-1.9,4.8c-3.1-2.9-6.9-4.9-11.1-5.6l2.7-4.4
			C107.9,261.7,109.2,261.3,110.3,261.9L110.3,261.9z"/>
		<path class="st43" d="M121.9,291.2l4.4,2.7c1,0.6,1.4,1.9,0.9,3l-3.1,6.1c-0.5,1.1-1.8,1.6-2.9,1.1l-4.8-1.9
			C119.2,299.3,121.2,295.4,121.9,291.2z"/>
		<path class="st43" d="M121.1,281.2c-0.7-2-1.6-3.9-2.9-5.6l5-1.2c1.2-0.3,2.4,0.4,2.7,1.5l2.2,6.5c0.4,1.1-0.2,2.4-1.3,2.9
			l-4.7,2.1C122.1,285.3,121.7,283.2,121.1,281.2L121.1,281.2z"/>
		<path class="st43" d="M89,291.9L89,291.9c2.2,6.7,9.5,10.3,16.2,8.1c6.7-2.2,10.3-9.5,8.1-16.2c-2.2-6.7-9.5-10.3-16.2-8.1
			C90.4,277.9,86.8,285.2,89,291.9z M95.6,289.7c-1-3,0.6-6.3,3.7-7.3c3-1,6.3,0.6,7.3,3.7c1,3-0.6,6.3-3.7,7.3
			C99.9,294.4,96.7,292.7,95.6,289.7z"/>
		<path class="st44" d="M16.7,250.2l15.2,45.5l-1.3,11.2c-0.1,0.6-0.6,1.1-1.3,1c-0.3,0-0.5-0.2-0.7-0.4l-7.7-8.2L5.7,253.9
			L16.7,250.2z"/>
		<path class="st45" d="M3.5,247.3l11-3.7l-1.5-4.4c-1-3-4.3-4.7-7.3-3.7S1,239.8,2,242.9L3.5,247.3z"/>
		<path class="st46" d="M14.5,243.6l-11,3.7l2.2,6.6l11-3.7L14.5,243.6z"/>
		<path class="st47" d="M14.5,243.6l-4.4,1.5l2.2,6.6l4.4-1.5L14.5,243.6z"/>
		<path class="st48" d="M26.5,305.4l2.1,2.2c0.4,0.5,1.2,0.5,1.6,0c0.2-0.2,0.3-0.4,0.4-0.7l1.3-11.2l-15.2-45.5l-4.4,1.5l15.2,45.5
			L26.5,305.4z"/>
		<path class="st49" d="M6.9,235.3l3.3,9.8l4.4-1.5l-1.5-4.4C12.2,236.6,9.6,234.9,6.9,235.3z"/>
		<g>
			<path class="st3" d="M95,284.7c-0.8,1.7-1,3.5-0.4,5.3c0.9,2.8,3.6,4.7,6.6,4.7c0.7,0,1.5-0.1,2.2-0.4c1.8-0.6,3.2-1.8,4-3.5
				c0.8-1.7,1-3.5,0.4-5.3c-0.9-2.8-3.6-4.7-6.6-4.7c-0.7,0-1.5,0.1-2.2,0.4C97.2,281.8,95.8,283.1,95,284.7z M96.7,289.3
				c-0.8-2.5,0.5-5.1,3-5.9c0.5-0.2,1-0.2,1.5-0.2c2,0,3.8,1.3,4.4,3.2c0.4,1.2,0.3,2.5-0.3,3.6c-0.6,1.1-1.5,2-2.7,2.4
				c-0.5,0.2-1,0.2-1.5,0.2C99.1,292.5,97.3,291.2,96.7,289.3z"/>
			<path class="st3" d="M105.5,301c-1.4,0.5-2.9,0.7-4.4,0.7c-1.1,0-2.1-0.1-3.2-0.4c-7.5-1.8-12.1-9.2-10.3-16.7
				c0.1-0.6,0.7-1,1.3-0.8c0.3,0.1,0.5,0.2,0.7,0.5c0.2,0.3,0.2,0.6,0.1,0.8c-1.1,4.5,0.7,9.2,4.3,12c2,1.5,4.5,2.3,7,2.3
				c3.7,0,7.1-1.7,9.3-4.7c1.9-2.5,2.7-5.6,2.2-8.6c-0.4-3.1-2-5.8-4.5-7.7c-2-1.5-4.5-2.3-7-2.3c-3.7,0-7.1,1.7-9.3,4.7
				c-0.2,0.3-0.5,0.4-0.9,0.4c-0.2,0-0.4,0-0.7-0.2c-0.2-0.2-0.4-0.4-0.4-0.7c0-0.3,0-0.6,0.2-0.8c1.7-2.3,4-3.9,6.7-4.8
				c1.4-0.5,2.9-0.7,4.4-0.7c6,0,11.3,3.8,13.2,9.5c1.2,3.5,0.9,7.3-0.8,10.6C111.9,297.4,109.1,299.8,105.5,301z"/>
			<path class="st3" d="M30.6,312.6c-0.1,0.3-0.2,0.6-0.1,0.9l2.8,8.3c0.8,2.4,3,3.9,5.5,3.9c0.6,0,1.2-0.1,1.8-0.3l43.7-14.6
				l0.3,0.3c0.3,0.2,0.5,0.4,0.8,0.6l6.1,3.1c0.5,0.2,1,0.4,1.5,0.4c1.2,0,2.3-0.6,2.9-1.6l2.3-3.8l0.4,0c0.6,0.1,1.2,0.1,1.8,0.1
				l0.4,0l1.8,4c0.5,1.3,1.8,2.1,3.1,2.1c0.4,0,0.7-0.1,1.1-0.2l6.5-2.2c1.7-0.6,2.7-2.3,2.3-4l-1-4.3l0.3-0.2
				c0.5-0.4,0.9-0.8,1.3-1.2l0.3-0.3l4.1,1.6c0.4,0.2,0.8,0.2,1.3,0.2c1.3,0,2.5-0.7,3.1-1.9l3.1-6.1c0.8-1.6,0.2-3.5-1.3-4.5
				l-3.8-2.3l0-0.4c0.1-0.6,0.1-1.2,0.1-1.8l0-0.4l4-1.8c1.6-0.7,2.5-2.6,1.9-4.2l-2.2-6.5c-0.5-1.4-1.8-2.4-3.2-2.4
				c-0.3,0-0.5,0-0.8,0.1l-4.3,1l-0.2-0.3c-0.4-0.5-0.8-0.9-1.2-1.3l-0.3-0.3l1.6-4.1c0.7-1.6-0.1-3.5-1.7-4.3l-6.1-3.1
				c-0.5-0.2-1-0.4-1.5-0.4c-1.2,0-2.3,0.6-2.9,1.6l-2.3,3.8l-0.4,0c-0.6-0.1-1.2-0.1-1.8-0.1l-0.4,0l-1.8-4
				c-0.5-1.3-1.8-2.1-3.1-2.1c-0.4,0-0.7,0.1-1.1,0.2l-6.5,2.2c-1.7,0.6-2.7,2.3-2.3,4l1,4.3l-0.3,0.2c-0.5,0.4-0.9,0.8-1.3,1.2
				l-0.3,0.3l-4.1-1.6c-0.4-0.2-0.8-0.2-1.3-0.2c-1.3,0-2.5,0.7-3.1,1.9l-3.1,6.1c-0.8,1.6-0.2,3.5,1.3,4.5l3.8,2.3l0,0.4
				c-0.1,0.6-0.1,1.2-0.1,1.8l0,0.4l-4,1.8c-1.6,0.7-2.5,2.6-1.9,4.2l2.2,6.5c0.5,1.4,1.8,2.4,3.2,2.4c0.3,0,0.5,0,0.8-0.1l4.3-1
				l0.2,0.3c0.4,0.5,0.8,0.9,1.2,1.3l0.3,0.3l-1.6,4.1c-0.1,0.3-0.2,0.6-0.2,1l0,0.4l-43.6,14.5c-0.4,0.1-0.7,0.2-1.1,0.2
				c-1.5,0-2.9-1-3.4-2.4l-2.8-8.3c-0.2-0.6-0.8-0.9-1.4-0.7C30.9,312.1,30.7,312.3,30.6,312.6z M112.7,311.6l-6.5,2.2
				c-0.6,0.2-1.2-0.1-1.5-0.7l-2.1-4.7c-0.2-0.4-0.6-0.7-1-0.7l-0.4,0c-1.1,0-2.2-0.1-3.2-0.3c-0.4-0.1-0.9,0.1-1.1,0.5l-2.7,4.4
				c-0.3,0.5-1,0.7-1.6,0.4l-6.1-3.1c-0.6-0.3-0.8-0.9-0.6-1.5l1.9-4.8c0.2-0.4,0.1-0.9-0.3-1.2c-0.9-0.8-1.7-1.8-2.4-2.8
				c-0.3-0.4-0.7-0.5-1.2-0.4l-5,1.2c-0.6,0.1-1.2-0.2-1.4-0.8l-2.2-6.5c-0.2-0.6,0.1-1.2,0.7-1.5l4.7-2.1c0.4-0.2,0.7-0.6,0.7-1
				c0-1.2,0.1-2.4,0.3-3.6c0.1-0.4-0.1-0.9-0.5-1.1l-4.4-2.7c-0.5-0.3-0.7-1-0.4-1.6l3.1-6.1c0.3-0.5,0.9-0.8,1.5-0.6l4.8,1.9
				c0.4,0.2,0.9,0.1,1.2-0.3c0.8-0.9,1.8-1.7,2.8-2.4c0.4-0.3,0.5-0.7,0.4-1.2l-1.2-5c-0.1-0.6,0.2-1.2,0.8-1.4l6.5-2.2
				c0.6-0.2,1.2,0.1,1.5,0.7l2.1,4.7c0.2,0.4,0.6,0.7,1,0.7l0.4,0c1.1,0,2.2,0.1,3.2,0.3c0.4,0.1,0.9-0.1,1.1-0.5l2.7-4.4
				c0.3-0.5,1-0.7,1.6-0.4l6.1,3.1c0.6,0.3,0.8,0.9,0.6,1.5l-1.9,4.8c-0.2,0.4-0.1,0.9,0.3,1.2c0.9,0.8,1.7,1.8,2.4,2.8
				c0.3,0.4,0.7,0.5,1.2,0.4l5-1.2c0.6-0.1,1.2,0.2,1.4,0.8l2.2,6.5c0.2,0.6-0.1,1.2-0.7,1.5l-4.7,2.1c-0.4,0.2-0.7,0.6-0.7,1
				c0,1.2-0.1,2.4-0.3,3.6c-0.1,0.4,0.1,0.9,0.5,1.1l4.4,2.7c0.5,0.3,0.7,1,0.4,1.6l-3.1,6.1c-0.3,0.5-0.9,0.8-1.5,0.6l-4.8-1.9
				c-0.1-0.1-0.3-0.1-0.4-0.1c-0.3,0-0.6,0.1-0.8,0.3c-0.8,0.9-1.8,1.7-2.8,2.4c-0.4,0.3-0.5,0.7-0.4,1.2l1.2,5
				C113.6,310.8,113.3,311.4,112.7,311.6z"/>
			<path class="st3" d="M60.5,260.7l-5.6,1.8l-1.2-3.6c-0.3-0.9-1.2-1.6-2.2-1.6c-0.2,0-0.5,0-0.7,0.1l-5.6,1.8l-1.3-3.8
				c-0.4-1.2-1.7-1.8-2.9-1.4l-5.6,1.8l-1.2-3.6c-0.4-1.2-1.7-1.8-2.9-1.4l-5.5,1.8c-1.2,0.4-1.8,1.7-1.4,2.9l8.9,26.7
				c0.3,0.9,1.2,1.6,2.2,1.6c0.2,0,0.5,0,0.7-0.1l28.7-9.5c1.2-0.4,1.8-1.7,1.4-2.9l-3.1-9.3c-0.3-0.9-1.2-1.6-2.2-1.6
				C61,260.6,60.8,260.6,60.5,260.7z M43.4,279.2l-7-21l5.6-1.9l7,21L43.4,279.2z M35.7,281.8L26.8,255l5.6-1.9l8.9,26.8L35.7,281.8
				z M51.1,276.6l-5-15.1l5.6-1.9l5,15.1L51.1,276.6z M58.8,274l-3.1-9.3l5.6-1.9l3.1,9.3L58.8,274z"/>
			<path class="st3" d="M20.7,243.6c-0.1,0-0.2,0.1-0.4,0.1c-0.5,0-0.9-0.3-1.1-0.8c-0.1-0.3-0.1-0.6,0.1-0.9
				c0.1-0.3,0.4-0.5,0.6-0.6c0.6-0.2,1.2,0.1,1.4,0.7c0.1,0.3,0.1,0.6-0.1,0.9C21.2,243.3,21,243.5,20.7,243.6z"/>
			<path class="st3" d="M38.1,237.8c-0.1,0-0.2,0.1-0.4,0.1c-0.5,0-0.9-0.3-1.1-0.8c-0.1-0.3-0.1-0.6,0.1-0.9s0.4-0.5,0.6-0.6
				c0.6-0.2,1.2,0.1,1.4,0.7c0.1,0.3,0.1,0.6-0.1,0.9S38.4,237.7,38.1,237.8z"/>
			<path class="st3" d="M55.5,232c-0.1,0-0.2,0.1-0.4,0.1c-0.5,0-0.9-0.3-1.1-0.8c-0.1-0.3-0.1-0.6,0.1-0.9s0.4-0.5,0.6-0.6
				c0.6-0.2,1.2,0.1,1.4,0.7c0.1,0.3,0.1,0.6-0.1,0.9S55.8,231.9,55.5,232z"/>
			<path class="st3" d="M73,226.2c-0.1,0-0.2,0.1-0.4,0.1c-0.5,0-0.9-0.3-1.1-0.8c-0.1-0.3-0.1-0.6,0.1-0.9c0.1-0.3,0.4-0.5,0.6-0.6
				c0.6-0.2,1.2,0.1,1.4,0.7c0.1,0.3,0.1,0.6-0.1,0.9C73.5,225.9,73.2,226.1,73,226.2z"/>
			<path class="st3" d="M93.3,246c0.2,0.6-0.1,1.2-0.7,1.4l-24.2,8.1c-0.1,0-0.2,0.1-0.4,0.1c-0.5,0-0.9-0.3-1.1-0.8
				c-0.2-0.6,0.1-1.2,0.7-1.4l24.2-8.1C92.5,245.1,93.1,245.5,93.3,246z"/>
			<path class="st3" d="M76.8,258.7l8.6-2.9c0.6-0.2,1.2,0.1,1.4,0.7c0.2,0.6-0.1,1.2-0.7,1.4l-8.6,2.9c-0.1,0-0.2,0.1-0.4,0.1
				c-0.5,0-0.9-0.3-1.1-0.8c-0.1-0.3-0.1-0.6,0.1-0.9C76.3,259,76.5,258.8,76.8,258.7z"/>
			<path class="st3" d="M95.8,253.5c0.2,0.6-0.1,1.2-0.7,1.4l-3.9,1.3c-0.1,0-0.2,0.1-0.4,0.1c-0.5,0-0.9-0.3-1.1-0.8
				c-0.2-0.6,0.1-1.2,0.7-1.4l3.9-1.3C94.9,252.6,95.6,253,95.8,253.5z"/>
			<path class="st3" d="M84.6,240.6c0.2,0.6-0.1,1.2-0.7,1.4l-18.1,6c-0.1,0-0.2,0.1-0.4,0.1c-0.5,0-0.9-0.3-1.1-0.8
				c-0.2-0.6,0.1-1.2,0.7-1.4l18.1-6C83.8,239.7,84.4,240,84.6,240.6z"/>
			<path class="st3" d="M88.1,240.6c-0.5,0-0.9-0.3-1.1-0.8c-0.1-0.3-0.1-0.6,0.1-0.9c0.1-0.3,0.4-0.5,0.6-0.6
				c0.6-0.2,1.2,0.1,1.4,0.7c0.2,0.6-0.1,1.2-0.7,1.4C88.3,240.6,88.2,240.6,88.1,240.6z"/>
			<path class="st3" d="M71.1,261.8c-0.1-0.3-0.1-0.6,0.1-0.9c0.1-0.3,0.4-0.5,0.6-0.6c0.6-0.2,1.2,0.1,1.4,0.7
				c0.1,0.3,0.1,0.6-0.1,0.9c-0.1,0.3-0.4,0.5-0.6,0.6c-0.1,0-0.2,0.1-0.4,0.1C71.7,262.5,71.2,262.2,71.1,261.8z"/>
			<path class="st3" d="M43.6,302.9c-0.5,0-0.9-0.3-1.1-0.8c-0.2-0.6,0.1-1.2,0.7-1.4l24.2-8.1c0.6-0.2,1.2,0.1,1.4,0.7
				c0.1,0.3,0.1,0.6-0.1,0.9c-0.1,0.3-0.4,0.5-0.6,0.6L44,302.8C43.8,302.8,43.7,302.9,43.6,302.9z"/>
			<path class="st3" d="M52.4,306l8.6-2.9c0.6-0.2,1.2,0.1,1.4,0.7c0.1,0.3,0.1,0.6-0.1,0.9c-0.1,0.3-0.4,0.5-0.6,0.6l-8.6,2.9
				c-0.1,0-0.2,0.1-0.4,0.1c-0.5,0-0.9-0.3-1.1-0.8c-0.1-0.3-0.1-0.6,0.1-0.9C51.9,306.3,52.1,306.1,52.4,306z"/>
			<path class="st3" d="M70.7,302.2l-3.9,1.3c-0.1,0-0.2,0.1-0.4,0.1c-0.5,0-0.9-0.3-1.1-0.8c-0.1-0.3-0.1-0.6,0.1-0.9
				s0.4-0.5,0.6-0.6l3.9-1.3c0.6-0.2,1.2,0.1,1.4,0.7c0.1,0.3,0.1,0.6-0.1,0.9C71.2,301.9,71,302.1,70.7,302.2z"/>
			<path class="st3" d="M41.1,295.4c-0.5,0-0.9-0.3-1.1-0.8c-0.2-0.6,0.1-1.2,0.7-1.4l18.1-6c0.6-0.2,1.2,0.1,1.4,0.7
				c0.1,0.3,0.1,0.6-0.1,0.9c-0.1,0.3-0.4,0.5-0.6,0.6l-18.1,6C41.3,295.3,41.2,295.4,41.1,295.4z"/>
			<path class="st3" d="M64.1,287.8c-0.1,0-0.2,0.1-0.4,0.1c-0.5,0-0.9-0.3-1.1-0.8c-0.1-0.3-0.1-0.6,0.1-0.9
				c0.1-0.3,0.4-0.5,0.6-0.6c0.6-0.2,1.2,0.1,1.4,0.7c0.1,0.3,0.1,0.6-0.1,0.9C64.6,287.5,64.3,287.7,64.1,287.8z"/>
			<path class="st3" d="M47.4,307.6c0.6-0.2,1.2,0.1,1.4,0.7c0.1,0.3,0.1,0.6-0.1,0.9s-0.4,0.5-0.6,0.6c-0.1,0-0.2,0.1-0.4,0.1
				c-0.5,0-0.9-0.3-1.1-0.8c-0.1-0.3-0.1-0.6,0.1-0.9C46.9,307.9,47.1,307.7,47.4,307.6z"/>
			<path class="st3" d="M1,243.2l18.8,56.5c0.1,0.2,0.1,0.3,0.2,0.4l7.7,8.2c0.4,0.4,0.9,0.6,1.4,0.7c0.1,0,0.2,0,0.3,0
				c1.2,0,2.1-0.9,2.3-2l1.3-11.2c0-0.2,0-0.3-0.1-0.5l-18.7-56.2L76,218.6l3.3,10c0.8,2.4,3,3.9,5.5,3.9c0.6,0,1.2-0.1,1.8-0.3
				l10-3.3l9.4,28.3c0.2,0.6,0.8,0.9,1.4,0.7c0.3-0.1,0.5-0.3,0.6-0.6c0.1-0.3,0.2-0.6,0.1-0.9l-9.8-29.4c-0.1-0.3-0.3-0.5-0.6-0.6
				l-20.6-10.3c-0.3-0.1-0.6-0.2-0.9-0.1l-63,21l-0.3-0.3c-1.3-1.7-3.3-2.7-5.5-2.7c-0.7,0-1.5,0.1-2.2,0.4
				C1.7,235.7-0.2,239.6,1,243.2z M12,239.5l1.1,3.3l-8.9,3l-1.1-3.3c-0.8-2.5,0.5-5.1,3-5.9c0.5-0.2,1-0.2,1.5-0.2
				C9.6,236.3,11.4,237.6,12,239.5z M13.8,245l1.5,4.5l-8.9,3L4.9,248L13.8,245z M30.7,295.8l-1.3,11l-7.6-8.1L7.1,254.6l8.9-3
				L30.7,295.8z M81.4,227.8l-2.8-8.5l15.7,7.9l-8.5,2.8c-0.4,0.1-0.7,0.2-1.1,0.2C83.2,230.3,81.9,229.3,81.4,227.8z"/>
		</g>
	</g>
</g>
</svg>
