<?xml version="1.0" encoding="utf-8"?>
<!-- Generator: Adobe Illustrator 25.0.0, SVG Export Plug-In . SVG Version: 6.00 Build 0)  -->
<svg version="1.1" id="Layer_1" xmlns="http://www.w3.org/2000/svg" xmlns:xlink="http://www.w3.org/1999/xlink" x="0px" y="0px"
	 viewBox="0 0 391.9 430" style="enable-background:new 0 0 391.9 430;" xml:space="preserve">
<style type="text/css">
	.st0{fill:#EE8700;}
	.st1{fill:#AA6100;}
	.st2{fill:#A4E276;}
	.st3{fill:#64C37D;}
	.st4{fill:#35414D;}
	.st5{fill:#FFFFFF;}
	.st6{fill:#FFB700;}
	.st7{fill:#F5B000;}
	.st8{fill:#FFE563;}
</style>
<g>
	<g>
		<g>
			<path class="st0" d="M256.5,399.6h-14.8c-2.9-2.9-4.5-4.5-7.4-7.4v-111c-20.7-1.3-38.1-14.8-45.1-33.4
				c-6.9,10.9-18.4,18.7-31.7,20.7v123.7c-2.9,2.9-4.5,4.5-7.4,7.4h-14.8c-4.2,4.2-6.6,6.6-10.8,10.8v13.8h142.6v-13.8
				C263.1,406.2,260.7,403.8,256.5,399.6z"/>
			<rect x="234.4" y="318.6" class="st0" width="81.2" height="21.7"/>
		</g>
		<g>
			<path class="st1" d="M158.9,399.6h14.8l7.4-7.4V268.5c6-0.9,11.7-3,16.7-6c-3.6-4.3-6.5-9.3-8.5-14.6
				c-6.9,10.9-18.4,18.7-31.7,20.7v123.7l-7.4,7.4h-14.8l-10.8,10.8v13.8h23.5v-13.8L158.9,399.6z"/>
			<rect x="234.4" y="319.4" class="st1" width="23.5" height="21.7"/>
		</g>
		<g>
			<path class="st2" d="M383.5,146.9L383.5,146.9c0-33.6-30.9-61.2-70.6-64.5c0-0.1,0-0.2,0-0.3c0-41.4-40.7-75-91-75
				c-39.1,0-72.5,20.4-85.3,49c-5.4-2.5-11.6-4-18.2-4C98.3,51.9,82,65.4,82,82c0,0,0,0.1,0,0.1c-41.1,2.2-73.5,30.3-73.5,64.7l0,0
				c0,29.3,23.6,54.1,56,62.1c-17.8,1.8-31.6,14.2-31.6,29.4c0,16.4,16.1,29.6,35.9,29.6c4.3,0,8.4-0.6,12.3-1.8
				c12,11.6,29.9,18.9,49.9,18.9c23.3,0,43.7-10,55.4-25.1c10.6,23.2,37.8,39.8,69.7,39.8c37.4,0,68.4-22.8,73.7-52.4
				c2.8,0.6,5.6,0.9,8.6,0.9c19.8,0,35.9-13.3,35.9-29.6c0-10.2-6.2-19.2-15.7-24.5C373.9,182.4,383.5,165.5,383.5,146.9z"/>
			<g>
				<path class="st3" d="M126.2,266.2c-3.8,1.1-8,1.8-12.3,1.8C94.1,268,78,254.8,78,238.4c0-15.1,13.8-27.6,31.6-29.4
					c-32.4-8-56-32.8-56-62.1l0,0c0-34.4,32.5-62.6,73.5-64.7c0,0,0-0.1,0-0.1c0-16.6,16.3-30,36.4-30c6.6,0,12.8,1.5,18.2,4
					C192,33,215.5,15.4,244.5,9.3C237.3,7.8,229.8,7,222,7c-39.1,0-72.5,20.4-85.3,49c-5.4-2.5-11.6-4-18.2-4
					C98.3,51.9,82,65.4,82,82c0,0,0,0.1,0,0.1c-41.1,2.2-73.5,30.3-73.5,64.7l0,0c0,29.3,23.6,54.1,56,62.1
					c-17.8,1.8-31.6,14.2-31.6,29.4c0,16.4,16.1,29.6,35.9,29.6c4.3,0,8.4-0.6,12.3-1.8c12,11.6,29.9,18.9,49.9,18.9
					c7.9,0,15.5-1.2,22.6-3.3C142.9,278.7,133.5,273.2,126.2,266.2z"/>
				<path class="st3" d="M231.5,260.1c-7,9.1-17.2,16.3-29.4,20.7c13.6,11.8,32.7,19.1,54,19.1c7.9,0,15.4-1,22.5-2.9
					C256.9,291.3,239.5,277.6,231.5,260.1z"/>
			</g>
			<path class="st4" d="M391.9,146.9c0-34.9-30-64.3-70.8-70.6C317.6,33.7,274.4,0,222,0c-38.4,0-73.4,18.5-89.8,46.7
				c-4.4-1.2-9.1-1.8-13.7-1.8c-22.2,0-40.7,13.4-44.3,30.8C32,81,0,111.1,0,146.9c0,15.8,6.1,30.7,17.6,43.3
				c6.9,7.5,15.5,13.8,25.3,18.6c-11.2,6.7-18.4,17.6-18.4,29.7c0,20.2,19.9,36.6,44.4,36.6c3.3,0,6.5-0.3,9.6-0.9
				c13.9,11.5,32.7,18,52.5,18c20.6,0,39.8-6.9,53.7-19c14.8,20.5,42,33.7,71.5,33.7c20,0,39.4-6,54.5-16.8
				c12.8-9.2,21.8-21.4,26-34.8c0.6,0,1.3,0,1.9,0c24.5,0,44.4-16.4,44.4-36.6c0-9.4-4.3-18.3-12-25
				C384.3,180.7,391.9,164.1,391.9,146.9z M352.8,189.1l0,0.4c-13.1,10.2-30.2,15.8-48.3,15.8v14c19.9,0,38.9-5.5,54.3-15.6
				c4.5,4.1,7,9.5,7,15.1c0,12.3-12,22.4-26.9,22.6c0.1-1,0.1-2,0.1-2.9c0-6.7-1.2-13.4-3.5-19.7l-16.2,4c1.9,5.1,2.8,10.4,2.8,15.7
				c0,2.7-0.2,5.4-0.7,8l0,0c-4.7,26.5-32.8,46.4-65.3,46.4c-27.3,0-52.2-14.2-61.8-35.3l0,0c-2.8-6.1-4.2-12.6-4.2-19.2
				c0-14,6.4-27.3,18.1-37.4l-12.3-9.6c-14.6,12.8-22.7,29.5-22.7,47c0,7.1,1.3,14,3.9,20.6c-10.8,12.1-27.7,19.2-46,19.2
				c-16.7,0-32.5-6-43.4-16.5l0,0c-7.2-6.9-11.7-15.3-13.2-24.2l-16.8,1.9c1.3,7.6,4.3,15,8.8,21.6c-14-1-25-10.8-25-22.5
				c0-11.4,10.4-21.1,24.1-22.5l0,0c1.1-0.1,2.2-0.2,3.3-0.2c7.7,0,15,2.7,20.2,7.3l12.5-9.4c-8.4-7.5-20.3-11.9-32.7-11.9
				c-1.1,0-2.3,0-3.4,0.1c-28.6-7.7-48.5-30.1-48.5-55.1c0-30.4,28.8-55.8,65.6-57.8l0,0l0,0.1c1.6-0.1,3.2-0.1,4.8-0.1
				c9.3,0,18.4,1.5,27,4.4l6.5-12.9c-9.3-3.2-19-5-29.1-5.4c3.5-9.4,14.2-16.3,26.7-16.3c2.6,0,5.2,0.3,7.7,0.9
				c-2.4,7.1-3.6,14.5-3.6,22c0,36,28,67.4,69.6,78.2l5.1-13.3c-34.5-8.9-57.7-35-57.7-64.9c0-8.1,1.7-16,5-23.5l0.1,0
				C156.5,31.8,187.6,14,222,14c42.7,0,77.9,26.8,82.1,61.2c-15.5,0.1-30.7,3.5-44,10l8.6,12c10.8-5.3,23.2-8.1,35.9-8.1
				c2.5,0,5,0.1,7.4,0.3l0-0.1l0,0c35.9,3,63,27.8,63,57.6C375,163,367.1,178,352.8,189.1z"/>
		</g>
		<polygon class="st4" points="227.7,131.2 227.7,124 238.3,124 238.3,91 217.1,91 217.1,81.6 238.3,81.6 238.3,69.9 227.7,69.9 
			227.7,62.6 216,62.6 216,69.9 205.4,69.9 205.4,102.8 226.6,102.8 226.6,112.2 205.4,112.2 205.4,124 216,124 216,131.2 		"/>
		<polygon class="st4" points="290.4,119.1 278.6,119.1 278.6,126.4 268.1,126.4 268.1,159.3 289.2,159.3 289.2,168.7 268.1,168.7 
			268.1,180.5 278.6,180.5 278.6,187.7 290.4,187.7 290.4,180.5 301,180.5 301,147.5 279.8,147.5 279.8,138.1 301,138.1 301,126.4 
			290.4,126.4 		"/>
		<polygon class="st4" points="125.9,155.3 104.8,155.3 104.8,145.9 125.9,145.9 125.9,134.1 115.4,134.1 115.4,126.9 103.6,126.9 
			103.6,134.1 93,134.1 93,167.1 114.2,167.1 114.2,176.5 93,176.5 93,188.2 103.6,188.2 103.6,195.5 115.4,195.5 115.4,188.2 
			125.9,188.2 		"/>
		<polygon class="st4" points="149.4,202.7 137.6,202.7 137.6,208.2 128.4,208.2 128.4,238.3 146.8,238.3 146.8,244.9 128.4,244.9 
			128.4,256.7 137.6,256.7 137.6,262.2 149.4,262.2 149.4,256.7 158.6,256.7 158.6,226.6 140.2,226.6 140.2,220 158.6,220 
			158.6,208.2 149.4,208.2 		"/>
		<polygon class="st4" points="263.8,203.7 252,203.7 252,210.2 242.1,210.2 242.1,241.9 261.9,241.9 261.9,250 242.1,250 
			242.1,261.7 252,261.7 252,268.2 263.8,268.2 263.8,261.7 273.7,261.7 273.7,230.1 253.8,230.1 253.8,222 273.7,222 273.7,210.2 
			263.8,210.2 		"/>
		<path class="st4" d="M233.2,202.9c-2.2-2.7-4.1-5.7-5.6-8.8l-10.5,5.2c1.9,3.9,4.3,7.6,7,10.9L233.2,202.9z"/>
		<path class="st4" d="M222.7,177.4l-11.7,1.2c0.4,4.3,1.4,8.6,2.7,12.7l11.2-3.7C223.8,184.3,223.1,180.9,222.7,177.4z"/>
		<path class="st4" d="M153.6,196.6l1.8-11.6c-4.3-0.7-8.8-0.8-13.2-0.3l1.2,11.7C146.7,196,150.2,196.1,153.6,196.6z"/>
		<path class="st4" d="M160.2,198.2c3.2,1.1,6.3,2.6,9.2,4.5l6.5-9.8c-3.7-2.5-7.7-4.4-11.9-5.8L160.2,198.2z"/>
		<g>
			<path class="st5" d="M231.8,30.4c-4.3-1.1-8.7-1.6-13.1-1.6v11.8c3.4,0,6.9,0.4,10.2,1.3L231.8,30.4z"/>
			<path class="st5" d="M251.4,40.1c-3.5-2.7-7.3-5-11.3-6.8L235.3,44c3.1,1.4,6.1,3.2,8.8,5.3L251.4,40.1z"/>
			<path class="st5" d="M258.9,72.8l11.5-2.5c-2-9-6.3-17.4-12.5-24.3l-8.7,7.9C254,59.3,257.4,65.8,258.9,72.8z"/>
			<path class="st5" d="M67.9,125.6l10.5,5.3c2.5-4.9,6.2-9.2,10.7-12.3l-6.7-9.6C76.3,113.2,71.3,119,67.9,125.6z"/>
			<path class="st5" d="M74.8,146c0-3,0.4-6,1.2-8.9L64.7,134c-1.1,3.9-1.6,8-1.6,12.1c0,0.4,0,0.9,0,1.3l11.8-0.3
				C74.8,146.7,74.8,146.4,74.8,146z"/>
			<path class="st5" d="M64.2,156.2c1,4.4,2.7,8.6,5,12.5l10.2-5.9c-1.7-2.9-2.9-6-3.7-9.2L64.2,156.2z"/>
		</g>
		<rect x="174.9" y="358.4" class="st4" width="11.8" height="11.8"/>
		<rect x="174.9" y="378" class="st4" width="11.8" height="11.8"/>
		<rect x="174.9" y="338.8" class="st4" width="11.8" height="11.8"/>
		<rect x="174.9" y="281.4" class="st4" width="11.8" height="45.7"/>
		<g>
			<rect x="205.2" y="347.2" class="st5" width="11.8" height="11.8"/>
			<rect x="205.2" y="327.6" class="st5" width="11.8" height="11.8"/>
			<rect x="205.2" y="302.7" class="st5" width="11.8" height="17"/>
		</g>
		<path class="st4" d="M240.2,296.9h-11.8v97.7l10.8,10.8h14.8l7.3,7.3v5.5H217v-50.5h-11.8v50.5h-18.5v-17h-11.8v17h-44.4v-5.4
			l7.3-7.3h14.8l10.8-10.8V284.2h-11.8v38.4l-24.4-12.2l-5.3,10.5l29.7,14.8v54l-4,4H133l-14.2,14.2V430h154.4v-22.1L259,393.7
			h-14.8l-4-4v-46.6h84.7v-33.4h-84.7V296.9z M313.2,321.5v9.9h-72.9v-9.9H313.2z"/>
	</g>
	<rect x="281.6" y="340" class="st4" width="16.9" height="16.9"/>
	<g>
		<g>
			<g>
				<path class="st6" d="M296.7,396.1c-2.1,0.6-4.3,0.9-6.6,0.9c-13.2,0-24-10.7-24-23.9c0-10.6,7.1-20.1,17.3-23.1
					c2.1-0.6,4.3-0.9,6.6-0.9c6.4,0,12.4,2.5,16.9,7c4.5,4.5,7,10.5,7,16.9C314,383.7,306.9,393.2,296.7,396.1L296.7,396.1z"/>
				<path class="st7" d="M307,356.1c-4.5-4.5-10.5-7-16.9-7c-2.2,0-4.5,0.3-6.6,0.9c-1.6,0.5-3.1,1.1-4.5,1.8
					c1.1-0.2,2.3-0.3,3.5-0.3c6.4,0,12.4,2.5,16.9,7c4.5,4.5,7,10.5,7,16.9c0,9-5.1,17.1-12.8,21.2c1.1-0.2,2.1-0.4,3.1-0.7
					c10.2-2.9,17.3-12.4,17.3-23.1C314,366.7,311.5,360.7,307,356.1L307,356.1z"/>
				
					<ellipse transform="matrix(0.9829 -0.1844 0.1844 0.9829 -63.8192 59.8961)" class="st8" cx="290.1" cy="373.1" rx="17.5" ry="17.5"/>
			</g>
		</g>
		<path class="st4" d="M311.9,360c-1.1-1.8-2.4-3.4-3.9-4.9c-4.8-4.8-11.2-7.4-18-7.4c-2.4,0-4.7,0.3-7,1c-3.9,1.1-7.3,3.1-10.2,5.7
			c-3.5,3.2-5.9,7.4-7.2,12c-0.1,0.5-0.3,1.1-0.4,1.6c-1.1,5.5-0.5,11.3,2,16.4c4.2,8.4,12.9,14.2,22.9,14.2
			c5.2,0,10.3-1.6,14.5-4.6c0.6-0.4,0.8-1.2,0.5-1.8c-0.4-0.9-1.5-1.2-2.3-0.6c-3.7,2.6-8.2,4-12.8,4c-12.4,0-22.5-10-22.5-22.4
			c0-10,6.7-18.9,16.2-21.6c2-0.6,4.1-0.9,6.2-0.9c6.5,0,12.6,2.7,17,7.7c2.9,3.3,4.7,7.4,5.3,11.7c0.8,5.8-0.7,11.5-4.1,16.2
			c-0.5,0.7-0.4,1.6,0.2,2.1c0.7,0.6,1.7,0.4,2.2-0.3c0.2-0.2,0.3-0.4,0.5-0.7c3-4.4,4.4-9.8,4.2-15.2
			C315.2,368.2,314.5,364.5,311.9,360z"/>
		<path class="st4" d="M309,373.1c0-10.5-8.5-19-19-19c-10.2-0.2-19.2,8.8-18.9,19c0,10.5,8.5,19,19,19
			C300.4,392.2,309.2,383.4,309,373.1z M301.4,384.4c-3,3-7,4.7-11.3,4.7c-14.1,0.1-21.3-17.3-11.3-27.2c3-3,7-4.7,11.3-4.7
			C304.2,357.1,311.4,374.4,301.4,384.4z"/>
		<path class="st4" d="M291.5,363.7l0-0.7c0-0.8-0.7-1.5-1.5-1.5c-0.8,0-1.5,0.7-1.5,1.5l0,0.9c-3.6,0.9-5,5.9-2.1,8.3
			c1,0.8,2.4,1.5,4.9,2.3c3,1.1,1.4,5.1-1.2,5c-1.6,0-2.1-0.1-3.3-0.9c-0.7-0.5-1.6-0.3-2.1,0.4c-0.5,0.7-0.3,1.6,0.4,2.1
			c1.3,0.9,2.3,1.2,3.5,1.3l0,0.8c0,0.8,0.7,1.5,1.5,1.5c0.8,0,1.5-0.7,1.5-1.5l0-1c2.2-0.6,3.9-2.5,4.3-4.7c0.4-2.6-1-5-3.6-5.9
			c-1.5-0.5-3.1-1.1-4-1.9c-1-0.8-0.1-2.6,0.9-2.9c1-0.3,2.3-0.1,3.1,0.5c0,0,1.1,1.3,2.3,0.2c1.2-1.1-0.2-2.4-0.2-2.4
			C293.7,364.6,292.7,364,291.5,363.7L291.5,363.7z"/>
	</g>
</g>
</svg>
