<?xml version="1.0" encoding="utf-8"?>
<!-- Generator: Adobe Illustrator 25.0.0, SVG Export Plug-In . SVG Version: 6.00 Build 0)  -->
<svg version="1.1" id="Layer_1" xmlns="http://www.w3.org/2000/svg" xmlns:xlink="http://www.w3.org/1999/xlink" x="0px" y="0px"
	 viewBox="0 0 130 535.6" style="enable-background:new 0 0 130 535.6;" xml:space="preserve">
<style type="text/css">
	.st0{fill-rule:evenodd;clip-rule:evenodd;fill:#F4F6F8;}
	.st1{fill-rule:evenodd;clip-rule:evenodd;fill:#E0E1E2;}
	.st2{fill-rule:evenodd;clip-rule:evenodd;fill:#CECECE;}
	.st3{fill:#35414D;}
	.st4{fill:#B3A4EE;}
	.st5{fill:#AC92EA;}
	.st6{fill:#FBD277;}
	.st7{fill:#B4DF80;}
	.st8{fill:#9ED26A;}
	.st9{fill:#FDCD56;}
	.st10{fill:#434A54;}
	.st11{fill:#FFA733;}
	.st12{fill:#FF5A5A;}
	.st13{fill:#D6DF58;}
	.st14{fill:#87796F;}
	.st15{fill-rule:evenodd;clip-rule:evenodd;fill:#FFF2E8;}
	.st16{fill-rule:evenodd;clip-rule:evenodd;fill:#FFE4CF;}
	.st17{fill:none;stroke:#35414D;stroke-width:2.221;stroke-linecap:round;stroke-linejoin:round;stroke-miterlimit:13.3333;}
	.st18{fill:none;stroke:#35414D;stroke-width:0.9519;stroke-linecap:round;stroke-linejoin:round;stroke-miterlimit:13.3333;}
	.st19{fill-rule:evenodd;clip-rule:evenodd;fill:#838383;}
	.st20{fill-rule:evenodd;clip-rule:evenodd;fill:#FE9737;}
	.st21{fill-rule:evenodd;clip-rule:evenodd;fill:#B5ADB6;}
	.st22{fill-rule:evenodd;clip-rule:evenodd;fill:#F36B37;}
	.st23{fill-rule:evenodd;clip-rule:evenodd;fill:#595959;}
	.st24{fill-rule:evenodd;clip-rule:evenodd;fill:#35414D;}
	.st25{fill:#60A917;}
	.st26{fill:#FE9737;}
	.st27{fill:#D8D8D8;}
	.st28{fill-rule:evenodd;clip-rule:evenodd;fill:#99DD58;}
	.st29{fill-rule:evenodd;clip-rule:evenodd;fill:#97DA7B;}
	.st30{fill-rule:evenodd;clip-rule:evenodd;fill:#68CA44;}
	.st31{fill:none;stroke:#35414D;stroke-width:1.5409;stroke-linecap:round;stroke-linejoin:round;stroke-miterlimit:13.3333;}
	.st32{fill:#6F909E;}
	.st33{fill:none;stroke:#35414D;stroke-width:2.8728;stroke-linecap:round;stroke-linejoin:round;stroke-miterlimit:10;}
	.st34{fill:#F1E8DC;}
	.st35{fill:#9A99A1;}
	.st36{fill:#54C1ED;}
	.st37{fill:#F4644D;}
	.st38{fill:#8BC932;}
	.st39{fill:#F9D36B;}
	.st40{fill:#EFDBC6;}
	.st41{fill:#E5CFBD;}
	.st42{fill:#46BEE8;}
	.st43{fill:#17AFDE;}
	.st44{fill:#FFB155;}
	.st45{fill-rule:evenodd;clip-rule:evenodd;fill:#F4644D;}
	.st46{fill:#E6F0F6;}
	.st47{fill:#AACFE2;}
	.st48{fill:#F19B40;}
	.st49{fill-rule:evenodd;clip-rule:evenodd;fill:#E8533A;}
</style>
<g>
	<g>
		<g id="g7750_23_" transform="translate(18.5,457.4355)">
			<g id="path7752_23_">
				<path class="st0" d="M28.1-445.3l-43.6,100c-0.4,0.8,0,1.8,0.8,2.1l22.7,9.9l48.5,21.2l9.6,4.2c0.8,0.3,1.7-0.1,2.1-0.9l40-91.8
					l0.4-0.9c0.1-0.1,0.1-0.2,0.1-0.4l-11.5-5c-3.1-1.4-4.5-5.2-3.1-8.6l5-11.4c-0.1-0.1-0.2-0.2-0.3-0.2l-1.1-0.5l-63.5-27.7
					c-0.8-0.3-1.7,0.1-2.1,0.9L28.1-445.3z"/>
			</g>
		</g>
		<g id="g7754_24_" transform="translate(257.3203,504.5)">
			<g id="path7756_24_">
				<path class="st1" d="M-155.5-480.9c5.7,16.7,4.3,39.4-5.3,61.4c-2.1,4.8-4.5,9.3-7,13.5c-0.8,1.4-1.7,2.7-2.6,4
					c-1.1,1.6-2.1,3.1-3.3,4.5c-10.5,13.7-23.4,23-36.1,26.4l27.3,11.9l9.6,4.2c0.8,0.3,1.7-0.1,2.1-0.9l7.4-17l9.8-22.5l22.8-52.4
					l0.4-0.9c0.1-0.1,0.1-0.2,0.1-0.4l-9.6-25c-0.1-0.1-0.2-0.2-0.3-0.2l-1.1-0.5L-155.5-480.9z"/>
			</g>
		</g>
		<g id="g7758_23_" transform="translate(331.5508,504.1592)">
			<g id="path7760_23_">
				<path class="st2" d="M-214-473.6l-5,11.4c-1.5,3.3-0.1,7.2,3.1,8.6l11.5,5c0-0.2-0.1-0.5-0.4-1.2l-8.7-22.6
					C-213.7-473.1-213.8-473.4-214-473.6"/>
			</g>
		</g>
		<g id="g7762_23_" transform="translate(331.5508,504.1592)">
			<g id="path7764_23_">
				<path class="st3" d="M-206.2-447.4l-10.5-4.6c-4.1-1.8-5.9-6.7-4-11l5-11.4c0.4-0.9,1.5-1.4,2.4-0.9c0,0,0,0,0,0
					c0.9,0.4,1.4,1.5,0.9,2.4l-5,11.4c-1.1,2.4-0.1,5.2,2.1,6.2l10.5,4.6c0.9,0.4,1.4,1.5,0.9,2.4
					C-204.2-447.5-205.3-447-206.2-447.4z"/>
			</g>
		</g>
		<g id="g7766_23_" transform="translate(413.1929,241.0635)">
			<g id="path7768_23_">
				<path class="st3" d="M-329.3-89.9l-80.9-35.2c-1.7-0.7-2.5-2.8-1.7-4.6l47.6-109.1c0.8-1.8,2.8-2.6,4.5-1.8l64.6,28.2
					c1.1,0.5,1.4,1.3,1.7,2.2l0.1,0.3l9.1,23.5c0.2,0.4,0.2,0.9,0,1.3c0,0.3,0,0.5-0.2,0.8l-40.4,92.6
					C-325.6-90-327.6-89.2-329.3-89.9z M-408.5-128.4l80.3,35l40.2-92.2l-9-23.4c0-0.1-0.1-0.2-0.1-0.2l-64-27.9L-408.5-128.4z"/>
			</g>
		</g>
		<g>
			<g>
				<g>
					<g>
						<path class="st4" d="M24.2,89.3L43,97.5l-2.3,5.2l-18.9-8.2L24.2,89.3z"/>
					</g>
					<g>
						<path class="st5" d="M43,97.5l-2.3,5.2l-18.9-8.2l0.7-1.6l2.3,1c5.4,2.4,10.9,3,13.5,1.6L43,97.5z"/>
					</g>
					<g>
						<path class="st6" d="M47.1,99.3l18.9,8.2l-2.3,5.2l-18.9-8.2L47.1,99.3z"/>
					</g>
					<g>
						<path class="st7" d="M70,109.3l18.9,8.2l-2.3,5.2l-18.9-8.2L70,109.3z"/>
					</g>
					<g>
						<path class="st8" d="M88.8,117.5l-2.3,5.2l-18.9-8.2l0.7-1.6l2.3,1c5.4,2.4,10.9,3,13.5,1.6L88.8,117.5z"/>
					</g>
					<g>
						<path class="st9" d="M65.9,107.5l-2.3,5.2l-18.9-8.2l0.7-1.6l2.3,1c5.4,2.4,10.9,3,13.5,1.6L65.9,107.5z"/>
					</g>
				</g>
				<g>
					<g>
						<path class="st10" d="M37.7,109.7l-12.1-5.3c-0.5-0.2-0.6-0.8-0.4-1.3s0.8-0.8,1.2-0.6l12.1,5.3c0.5,0.2,0.6,0.8,0.4,1.3
							S38.1,109.9,37.7,109.7z"/>
					</g>
					<g>
						<path class="st11" d="M22.3,103.1l-3.5-1.5c-0.5-0.2-0.6-0.8-0.4-1.3c0.2-0.5,0.8-0.8,1.2-0.6l3.5,1.5
							c0.5,0.2,0.6,0.8,0.4,1.3S22.8,103.3,22.3,103.1z"/>
					</g>
					<g>
						<path class="st10" d="M35,115.9l-18.9-8.2c-0.5-0.2-0.6-0.8-0.4-1.3c0.2-0.5,0.8-0.8,1.2-0.6l18.9,8.2
							c0.5,0.2,0.6,0.8,0.4,1.3C36,115.8,35.4,116.1,35,115.9z"/>
					</g>
					<g>
						<path class="st10" d="M60.6,119.7l-12.1-5.3c-0.5-0.2-0.6-0.8-0.4-1.3c0.2-0.5,0.8-0.8,1.2-0.6l12.1,5.3
							c0.5,0.2,0.6,0.8,0.4,1.3C61.6,119.6,61,119.9,60.6,119.7z"/>
					</g>
					<g>
						<path class="st12" d="M45.2,113l-3.5-1.5c-0.5-0.2-0.6-0.8-0.4-1.3s0.8-0.8,1.2-0.6l3.5,1.5c0.5,0.2,0.6,0.8,0.4,1.3
							S45.7,113.2,45.2,113z"/>
					</g>
					<g>
						<path class="st10" d="M57.9,125.9L39,117.7c-0.5-0.2-0.6-0.8-0.4-1.3c0.2-0.5,0.8-0.8,1.2-0.6l18.9,8.2
							c0.5,0.2,0.6,0.8,0.4,1.3C58.9,125.8,58.3,126.1,57.9,125.9z"/>
					</g>
					<g>
						<path class="st10" d="M83.5,129.7l-12.1-5.3c-0.5-0.2-0.6-0.8-0.4-1.3c0.2-0.5,0.8-0.8,1.2-0.6l12.1,5.3
							c0.5,0.2,0.6,0.8,0.4,1.3C84.5,129.6,83.9,129.9,83.5,129.7z"/>
					</g>
					<g>
						<path class="st13" d="M68.1,123l-3.5-1.5c-0.5-0.2-0.6-0.8-0.4-1.3c0.2-0.5,0.8-0.8,1.2-0.6l3.5,1.5c0.5,0.2,0.6,0.8,0.4,1.3
							C69.2,122.9,68.6,123.2,68.1,123z"/>
					</g>
					<g>
						<path class="st10" d="M80.8,135.9l-18.9-8.2c-0.5-0.2-0.6-0.8-0.4-1.3s0.8-0.8,1.2-0.6l18.9,8.2c0.5,0.2,0.6,0.8,0.4,1.3
							C81.8,135.8,81.2,136.1,80.8,135.9z"/>
					</g>
				</g>
				<g>
					<g>
						<g>
							<path class="st3" d="M102.8,81.7l-61.9-27c-0.7-0.3-1-1.1-0.7-1.8c0.3-0.7,1.1-1,1.8-0.7l61.9,27c0.7,0.3,1,1.1,0.7,1.8
								C104.2,81.7,103.4,82,102.8,81.7L102.8,81.7z"/>
						</g>
						<g>
							<path class="st3" d="M88.3,80.9L38.9,59.3c-0.7-0.3-1-1.1-0.7-1.8s1.1-1,1.8-0.7l49.4,21.5c0.7,0.3,1,1.1,0.7,1.8
								C89.8,80.9,89,81.2,88.3,80.9z"/>
						</g>
						<g>
							<path class="st3" d="M97.5,93.8l-61.9-27c-0.7-0.3-1-1.1-0.7-1.8c0.3-0.7,1.1-1,1.8-0.7l61.9,27c0.7,0.3,1,1.1,0.7,1.8
								C98.9,93.8,98.2,94.1,97.5,93.8L97.5,93.8z"/>
						</g>
						<g>
							<path class="st3" d="M89.6,95.9l-56-24.4c-0.7-0.3-1-1.1-0.7-1.8s1.1-1,1.8-0.7l56,24.4c0.7,0.3,1,1.1,0.7,1.8
								C91.1,95.9,90.3,96.2,89.6,95.9z"/>
						</g>
						<g>
							<path class="st3" d="M92.2,105.9l-61.9-27c-0.7-0.3-1-1.1-0.7-1.8s1.1-1,1.8-0.7l61.9,27c0.7,0.3,1,1.1,0.7,1.8
								C93.7,105.9,92.9,106.2,92.2,105.9L92.2,105.9z"/>
						</g>
						<g>
							<path class="st3" d="M72,102.6l-43.7-19c-0.7-0.3-1-1.1-0.7-1.8c0.3-0.7,1.1-1,1.8-0.7l43.7,19c0.7,0.3,1,1.1,0.7,1.8
								C73.5,102.6,72.7,102.9,72,102.6z"/>
						</g>
					</g>
					<g>
						<path class="st3" d="M105.9,74.4l-61.9-27c-0.7-0.3-1-1.1-0.7-1.8l2.3-5.2c0.3-0.7,1.1-1,1.8-0.7l61.9,27
							c0.7,0.3,1,1.1,0.7,1.8l-2.3,5.2C107.4,74.4,106.6,74.7,105.9,74.4z M46.4,45.5l59.4,25.9l1.2-2.7L47.6,42.8L46.4,45.5z"/>
					</g>
				</g>
			</g>
		</g>
		<g>
			<g>
				<g>
					<path class="st6" d="M56,17.4l28.5,12.4L78,44.8L49.5,32.4L56,17.4z"/>
				</g>
				<g>
					<path class="st3" d="M85,28.6L56.5,16.2c-0.7-0.3-1.5,0-1.8,0.7l-6.5,14.9c-0.3,0.7,0,1.5,0.7,1.8L77.5,46
						c0.7,0.3,1.5,0,1.8-0.7l6.5-14.9C86,29.7,85.7,28.9,85,28.6z M77.3,43L51.2,31.7l5.4-12.5l26.1,11.4L77.3,43z"/>
				</g>
			</g>
			<g>
				<g>
					<path class="st3" d="M105.6,38l-15.2-6.6c-0.4-0.2-1,0.2-1.3,0.9s-0.2,1.4,0.3,1.6l15.2,6.6c0.4,0.2,1-0.2,1.3-0.9
						C106.1,38.9,106,38.2,105.6,38z"/>
				</g>
				<g>
					<path class="st3" d="M103.8,45.7l-16.4-7.2c-0.5-0.2-1.1,0.2-1.4,0.9c-0.3,0.7-0.1,1.4,0.3,1.6l16.4,7.2
						c0.5,0.2,1.1-0.2,1.4-0.9C104.4,46.6,104.2,45.9,103.8,45.7z"/>
				</g>
			</g>
		</g>
	</g>
	<g>
		<g>
			<path class="st14" d="M59.6,534.3c-4.2,0-8.1-2.2-10.2-5.8L2.7,448.7c-3.3-5.6-1.4-12.8,4.2-16.1l57.6-33.7
				c1.8-1.1,3.9-1.6,5.9-1.6c4.2,0,8.1,2.2,10.2,5.8l46.7,79.8c1.6,2.7,2,5.9,1.2,8.9c-0.8,3-2.7,5.6-5.4,7.2l-57.6,33.7
				C63.7,533.8,61.6,534.3,59.6,534.3L59.6,534.3z"/>
			<path class="st3" d="M70.4,398.4c3.7,0,7.2,1.9,9.2,5.3l46.7,79.8c3,5.1,1.3,11.6-3.8,14.6l-57.6,33.7c-1.7,1-3.5,1.5-5.4,1.5
				c-3.7,0-7.2-1.9-9.2-5.3L3.7,448.2c-3-5.1-1.3-11.6,3.8-14.6l57.6-33.7C66.8,398.9,68.6,398.4,70.4,398.4 M70.4,396.2
				c-2.3,0-4.5,0.6-6.5,1.8L6.4,431.7c-3,1.7-5.1,4.5-6,7.8c-0.9,3.3-0.4,6.8,1.3,9.8l46.7,79.8c2.3,3.9,6.6,6.4,11.1,6.4
				c2.3,0,4.5-0.6,6.5-1.8l57.6-33.7c3-1.7,5.1-4.5,6-7.8c0.9-3.3,0.4-6.8-1.3-9.8l-46.7-79.8C79.3,398.7,75,396.2,70.4,396.2
				L70.4,396.2z"/>
		</g>
		<g id="g7750_22_" transform="translate(18.5,457.4355)">
			<path id="path7752_22_" class="st15" d="M-8.6-8.3l47.1,80.6c0.4,0.7,1.2,0.9,1.9,0.6l18.3-10.7l39.1-22.9l7.8-4.5
				c0.6-0.4,0.8-1.2,0.4-1.9l-43.3-74l-0.4-0.8c-0.1-0.1-0.1-0.2-0.2-0.2l-9.3,5.4c-2.5,1.5-5.9,0.5-7.5-2.2L40-48.1
				c-0.1,0-0.2,0-0.3,0.1l-0.9,0.5l-51.2,30c-0.6,0.4-0.8,1.2-0.4,1.9L-8.6-8.3z"/>
		</g>
		<g id="g7754_23_" transform="translate(257.3203,504.5)">
			<path id="path7756_23_" class="st16" d="M-211.6-87.8c14.5,4.5,29.4,16.9,39.8,34.7c2.3,3.9,4.2,7.8,5.8,11.7
				c0.5,1.3,1,2.5,1.4,3.8c0.5,1.5,1,3,1.5,4.5c4.2,14.1,4.1,27.8,0,38.3l22-12.9l7.8-4.5c0.6-0.4,0.8-1.2,0.4-1.9l-8-13.7
				L-151.3-46L-176-88.2l-0.4-0.8c-0.1-0.1-0.1-0.2-0.2-0.2l-22.1-6c-0.1,0-0.2,0-0.3,0.1l-0.9,0.5L-211.6-87.8z"/>
		</g>
		<g id="g7758_22_" transform="translate(331.5508,504.1592)">
			<path id="path7760_22_" class="st2" d="M-273.1-94.9l5.4,9.2c1.6,2.7,4.9,3.7,7.5,2.2l9.3-5.4c-0.2-0.1-0.4-0.2-1-0.3l-20-5.4
				C-272.6-94.8-272.8-94.9-273.1-94.9"/>
		</g>
		<g id="g7762_22_" transform="translate(331.5508,504.1592)">
			<path id="path7764_22_" class="st17" d="M-273.1-94.9l5.4,9.2c1.6,2.7,4.9,3.7,7.5,2.2l8.4-4.9"/>
		</g>
		<g id="g7766_22_" transform="translate(413.1929,241.0635)">
			<path id="path7768_22_" class="st17" d="M-332.3,174.5l30.4,51.9l13.3,22.7c0.4,0.7,0.2,1.5-0.4,1.9l-46.9,27.4l-18.3,10.7
				c-0.6,0.4-1.5,0.1-1.9-0.6l-29.4-50.3 M-384.7,239.7l-22.8-39c-0.4-0.7-0.2-1.5,0.4-1.9l51.2-30l0.9-0.5c0.3-0.2,0.5-0.1,1.5,0.1
				l20.8,5.6"/>
		</g>
		<g>
			<g id="g7770_18_" transform="translate(330.2446,64.9756)">
				<path id="path7772_18_" class="st18" d="M-228.2,431.4c-1.9,1.4-3.5-0.9-4.2-0.3c-0.5,0.4-0.2,1.4-0.3,2.6
					c-0.2,1.3-1,1.4-2.1,1.1c-2.5-0.6-0.7,2.9-3.7,2.2"/>
			</g>
			<g id="g7774_18_" transform="translate(423.1602,447.0527)">
				<path id="path7776_18_" class="st2" d="M-333.6,7.3l4.4-1.1l-0.9-3.8c-0.3-1.2-1.5-2-2.7-1.7c-1.2,0.3-2,1.5-1.7,2.7L-333.6,7.3
					z"/>
			</g>
			<g id="g7778_18_" transform="translate(325.644,101.1182)">
				<path id="path7780_18_" class="st19" d="M-226,392l2.3,3.1c0.2,0.2,0.2,0.2,0.2-0.1l0.6-3.8l0.7-4.1l-3.7-1.4l-2.6,2.9L-226,392
					z"/>
			</g>
			<g id="g7782_18_" transform="translate(412.0854,441.0947)">
				<path id="path7784_18_" class="st20" d="M-323.3,14.5l8.3,34.2l3.2-0.8l3.2-0.8l-7.7-31.7l-0.6-2.5c-0.1-0.5-0.7-0.9-1.2-0.7
					l-4.4,1.1C-323.1,13.4-323.4,14-323.3,14.5"/>
			</g>
			<g id="g7786_18_" transform="translate(452.5229,474.4854)">
				<path id="path7788_18_" class="st21" d="M-361.7-24.4l0.9,3.8l2.2-0.5l-0.9-3.8c-0.3-1.2-1.5-2-2.7-1.7c-0.4,0.1-0.8,0.3-1,0.6
					C-362.5-25.8-361.9-25.2-361.7-24.4"/>
			</g>
			<g id="g7790_18_" transform="translate(441.9307,407.96)">
				<path id="path7792_18_" class="st22" d="M-348.4,49.1l7.4,30.3l0.4,1.5l2.2-0.5l-7.7-31.7l-0.6-2.5c-0.1-0.5-0.7-0.9-1.2-0.7
					l-2.2,0.5c0.5-0.1,1.1,0.2,1.2,0.7L-348.4,49.1z"/>
			</g>
			<g id="g7794_18_" transform="translate(357.9888,127.2178)">
				<path id="path7796_18_" class="st23" d="M-256.7,361.6l-0.7,4.1l-0.2,1.2l1.5,2.1c0.2,0.2,0.2,0.2,0.2-0.1l0.6-3.8l0.7-4.1
					L-256.7,361.6z"/>
			</g>
			<g id="g7798_18_" transform="translate(461.3545,402.1719)">
				<path id="path7800_18_" class="st18" d="M-365.6,54.4l3.6-0.9l3,12.3"/>
			</g>
			<g id="g7802_18_" transform="translate(374.0615,313.9443)">
				<path id="path7804_18_" class="st18" d="M-281.8,156l-3.5-14.4c-0.1-0.5,0.2-1.1,0.7-1.2l4.4-1.1c0.5-0.1,1.1,0.2,1.2,0.7
					l8.3,34.2l-6.3,1.5l-3.9-16.1"/>
			</g>
			<g id="g7806_18_" transform="translate(331.5225,66.168)">
				<path id="path7808_18_" class="st18" d="M-229.4,430l0.6-3.8l0.7-4.1l-3.2,0.8l-3.2,0.8l2.5,3.3l2.3,3.1
					C-229.4,430.3-229.4,430.3-229.4,430z"/>
			</g>
			<g id="g7810_18_" transform="translate(423.1602,447.0527)">
				<path id="path7812_18_" class="st18" d="M-333.6,7.3l4.4-1.1l-0.9-3.8c-0.3-1.2-1.5-2-2.7-1.7c-1.2,0.3-2,1.5-1.7,2.7
					L-333.6,7.3z"/>
			</g>
		</g>
		<g>
			<path class="st24" d="M42.3,484.2c-0.4,0.2-0.5,0.8-0.3,1.2l5.2,8.9c0.2,0.4,0.8,0.5,1.2,0.3l8.9-5.2c0.4-0.2,0.5-0.8,0.3-1.2
				l-2.6-4.4c-0.2-0.4-0.1-0.9,0.3-1.2c0.4-0.2,0.9-0.1,1.2,0.3l2.6,4.4c0.7,1.2,0.3,2.8-0.9,3.5l-8.9,5.2c-1.2,0.7-2.8,0.3-3.5-0.9
				l-5.2-8.9c-0.7-1.2-0.3-2.8,0.9-3.5l7.4-4.3c0.4-0.2,0.9-0.1,1.2,0.3c0.2,0.4,0.1,0.9-0.3,1.2L42.3,484.2z M52.5,477.5
				c0.1-0.5,0.6-0.7,1-0.6c0.5,0.1,0.7,0.6,0.6,1l-2.8,10.5c-0.1,0.5-0.6,0.7-1,0.6l-3.5-0.9c-0.5-0.1-0.7-0.6-0.6-1
				c0.1-0.5,0.6-0.7,1-0.6l2.7,0.7L52.5,477.5z"/>
		</g>
		<g>
			<path class="st3" d="M68.9,438.5c-0.3-0.1-0.6-0.1-0.8,0.1c-0.1,0.1-0.2,0.2-0.3,0.3l-3.5,4.1c-0.4,0.5-0.3,1.1,0.1,1.5
				c0.5,0.4,1.1,0.3,1.5-0.1l1.8-2.1l0.7,8.5l-5,0.4c-0.6,0-1,0.6-1,1.2c0,0,0,0,0,0l0.8,9.1c0,0.6,0.6,1,1.2,1c0,0,0,0,0,0
				c0.6,0,1-0.6,1-1.2c0,0,0,0,0,0l-0.7-8.1l5-0.4c0.6,0,1-0.6,1-1.2c0,0,0,0,0,0l-0.8-9.6l2.1,1.8c0.5,0.4,1.1,0.3,1.5-0.1
				c0.4-0.5,0.3-1.1-0.1-1.5l-4.1-3.5C69.2,438.6,69.1,438.6,68.9,438.5L68.9,438.5z"/>
			<path class="st25" d="M68.3,438.4c-0.3-0.1-0.6-0.1-0.8,0.1c-0.1,0.1-0.2,0.2-0.3,0.3l-3.5,4.1c-0.4,0.5-0.3,1.1,0.1,1.5
				c0.5,0.4,1.1,0.3,1.5-0.1l1.8-2.1l0.7,8.5l-5,0.4c-0.6,0-1,0.6-1,1.2c0,0,0,0,0,0l0.8,9.1c0,0.6,0.6,1,1.2,1c0,0,0,0,0,0
				c0.6,0,1-0.6,1-1.2c0,0,0,0,0,0l-0.7-8.1l5-0.4c0.6,0,1-0.6,1-1.2c0,0,0,0,0,0l-0.8-9.6l2.1,1.8c0.5,0.4,1.1,0.3,1.5-0.1
				c0.4-0.5,0.3-1.1-0.1-1.5l-4.1-3.5C68.5,438.5,68.4,438.5,68.3,438.4L68.3,438.4z"/>
		</g>
		<g>
			<g>
				<path class="st3" d="M46.1,458.2l-2.8-1.8c-0.5-0.3-0.7-1-0.3-1.5c0.3-0.5,1-0.7,1.5-0.3l1.9,1.2l3-4.7c0.3-0.5,1-0.7,1.5-0.3
					c0.5,0.3,0.7,1,0.3,1.5l-3.6,5.6C47.3,458.3,46.6,458.5,46.1,458.2L46.1,458.2z M39,455.9l-7.6,1.6c-0.6,0.1-1,0.7-0.9,1.3
					c0.1,0.6,0.7,1,1.3,0.9l7.6-1.6c0.6-0.1,1-0.7,0.9-1.3C40.2,456.2,39.6,455.8,39,455.9z M51.5,459.7c-0.5-0.3-1.2-0.2-1.5,0.3
					l-1.6,2.5l-2.5-1.6c-0.5-0.3-1.2-0.2-1.5,0.3c-0.3,0.5-0.2,1.2,0.3,1.5l2.5,1.6l-1.6,2.5c-0.3,0.5-0.2,1.2,0.3,1.5
					c0.5,0.3,1.2,0.2,1.5-0.3l1.6-2.5l2.5,1.6c0.5,0.3,1.2,0.2,1.5-0.3c0.3-0.5,0.2-1.2-0.3-1.5l-2.5-1.6l1.6-2.5
					C52.2,460.8,52,460.1,51.5,459.7L51.5,459.7z M40.8,464.6l-7.6,1.6c-0.6,0.1-1,0.7-0.9,1.3s0.7,1,1.3,0.9l7.6-1.6
					c0.6-0.1,1-0.7,0.9-1.3S41.4,464.5,40.8,464.6z"/>
			</g>
			<g>
				<path class="st26" d="M45.9,457.5l-2.8-1.8c-0.5-0.3-0.7-1-0.3-1.5c0.3-0.5,1-0.7,1.5-0.3l1.9,1.2l3-4.7c0.3-0.5,1-0.7,1.5-0.3
					c0.5,0.3,0.7,1,0.3,1.5l-3.6,5.6C47.1,457.7,46.5,457.8,45.9,457.5L45.9,457.5z M38.8,455.3l-7.6,1.6c-0.6,0.1-1,0.7-0.9,1.3
					s0.7,1,1.3,0.9l7.6-1.6c0.6-0.1,1-0.7,0.9-1.3S39.4,455.2,38.8,455.3z M51.4,459.1c-0.5-0.3-1.2-0.2-1.5,0.3l-1.6,2.5l-2.5-1.6
					c-0.5-0.3-1.2-0.2-1.5,0.3c-0.3,0.5-0.2,1.2,0.3,1.5l2.5,1.6l-1.6,2.5c-0.3,0.5-0.2,1.2,0.3,1.5c0.5,0.3,1.2,0.2,1.5-0.3
					l1.6-2.5l2.5,1.6c0.5,0.3,1.2,0.2,1.5-0.3c0.3-0.5,0.2-1.2-0.3-1.5l-2.5-1.6l1.6-2.5C52,460.1,51.9,459.4,51.4,459.1L51.4,459.1
					z M40.7,464l-7.6,1.6c-0.6,0.1-1,0.7-0.9,1.3c0.1,0.6,0.7,1,1.3,0.9l7.6-1.6c0.6-0.1,1-0.7,0.9-1.3
					C41.9,464.3,41.3,463.9,40.7,464z"/>
			</g>
		</g>
		<g>
			<path class="st3" d="M70.3,471.8l-2.1-0.6c-0.2-0.1-0.4,0.1-0.5,0.3c-0.1,0.2,0.1,0.4,0.3,0.5l2.1,0.6c0.1,0,0.2,0,0.3,0
				c0.1,0,0.1-0.1,0.2-0.2C70.6,472.1,70.5,471.9,70.3,471.8z M72.1,465.7c-0.2,0.1-0.2,0.3-0.1,0.5l1.1,1.9
				c0.1,0.2,0.3,0.2,0.5,0.1c0.2-0.1,0.2-0.3,0.1-0.5l-1.1-1.9C72.6,465.7,72.3,465.6,72.1,465.7z M79.4,464.8
				c-0.2-0.1-0.4,0.1-0.5,0.3l-0.6,2.1c-0.1,0.2,0.1,0.4,0.3,0.5c0.1,0,0.2,0,0.3,0c0.1,0,0.1-0.1,0.2-0.2l0.6-2.1
				C79.7,465,79.6,464.8,79.4,464.8L79.4,464.8z M84.7,469l-1.9,1.1c-0.2,0.1-0.2,0.3-0.1,0.5c0.1,0.2,0.3,0.2,0.5,0.1l1.9-1.1
				c0.2-0.1,0.2-0.3,0.1-0.5C85.1,469,84.8,468.9,84.7,469z M70.7,477.2l-1.9,1.1c-0.2,0.1-0.2,0.3-0.1,0.5c0.1,0.2,0.3,0.2,0.5,0.1
				l1.9-1.1c0.2-0.1,0.2-0.3,0.1-0.5C71.2,477.1,70.9,477.1,70.7,477.2z M82.1,471c-1.7-2.8-5.3-3.8-8.1-2.1
				c-2.8,1.7-3.8,5.3-2.1,8.1c0.6,1,1.4,1.8,2.4,2.3l4.3,2.6l-0.2,0.1c-0.6,0.4-0.8,1.2-0.5,1.8c0.2,0.3,0.5,0.5,0.8,0.6
				c-0.1,0.3-0.1,0.7,0.1,1c0.4,0.6,1.2,0.8,1.8,0.5l0.9-0.5c0.6,0.6,1.5,0.8,2.3,0.3c0.8-0.4,1.1-1.3,0.8-2.1l0.9-0.5
				c0.6-0.4,0.8-1.2,0.5-1.8c-0.2-0.3-0.5-0.5-0.8-0.6c0.1-0.3,0.1-0.7-0.1-1c-0.4-0.6-1.2-0.8-1.8-0.5l-0.2,0.1l-0.2-5
				C82.9,473.1,82.7,471.9,82.1,471z M83.4,485c-0.4,0.2-0.9,0.2-1.2-0.1l1.7-1C84,484.3,83.8,484.8,83.4,485z M85.1,482.3l-4.9,2.9
				c-0.3,0.2-0.6,0.1-0.8-0.2c-0.2-0.3-0.1-0.6,0.2-0.8l4.9-2.9c0.3-0.2,0.6-0.1,0.8,0.2C85.5,481.8,85.4,482.2,85.1,482.3z
				 M83.6,479.7c0.3-0.2,0.6-0.1,0.8,0.2s0.1,0.6-0.2,0.8l-4.9,2.9c-0.3,0.2-0.6,0.1-0.8-0.2s-0.1-0.6,0.2-0.8L83.6,479.7z
				 M77.9,477.9l0.6-1.2l1.4,0l1.3,3.6l-0.8,0.5L77.9,477.9z M82.2,474.2l0.2,5.4l-0.5,0.3l-1.3-3.5l0.8-1.5c0.1-0.2,0-0.4-0.2-0.5
				c-0.2-0.1-0.4,0-0.5,0.2l-0.8,1.4l-1.6,0c-0.1,0-0.3,0.1-0.3,0.2l-0.8,1.4l-1.6,0c-0.2,0-0.4,0.2-0.4,0.4c0,0.2,0.2,0.4,0.4,0.4
				l1.7,0l2.5,2.8l-0.5,0.3l-4.6-2.8c0,0,0,0,0,0c-0.9-0.5-1.6-1.1-2.1-2c-1.5-2.5-0.6-5.7,1.9-7.1c2.5-1.5,5.7-0.6,7.1,1.9
				C82,472.2,82.2,473.2,82.2,474.2C82.2,474.2,82.2,474.2,82.2,474.2L82.2,474.2z"/>
			<path class="st27" d="M79.9,476.7l1.3,3.6l-0.8,0.5l-2.5-2.9l0.6-1.2L79.9,476.7z"/>
			<path class="st26" d="M81.5,471.3c0.5,0.9,0.8,1.8,0.7,2.8c0,0,0,0,0,0l0.2,5.4l-0.5,0.3l-1.3-3.5l0.8-1.5c0.1-0.2,0-0.4-0.2-0.5
				c-0.2-0.1-0.4,0-0.5,0.2l-0.8,1.4l-1.6,0c-0.1,0-0.3,0.1-0.3,0.2l-0.8,1.4l-1.6,0c-0.2,0-0.4,0.2-0.4,0.4c0,0.2,0.2,0.4,0.4,0.4
				l1.7,0l2.5,2.8l-0.5,0.3l-4.6-2.8c0,0,0,0,0,0c-0.9-0.5-1.6-1.1-2.1-2c-1.5-2.5-0.6-5.7,1.9-7.1C76.8,468,80,468.9,81.5,471.3
				L81.5,471.3z"/>
			<g>
				<path class="st27" d="M84.4,479.9c0.2,0.3,0.1,0.6-0.2,0.8l-4.9,2.9c-0.3,0.2-0.6,0.1-0.8-0.2s-0.1-0.6,0.2-0.8l4.9-2.9
					C83.9,479.6,84.3,479.7,84.4,479.9z"/>
				<path class="st27" d="M85.3,481.5c0.2,0.3,0.1,0.6-0.2,0.8l-4.9,2.9c-0.3,0.2-0.6,0.1-0.8-0.2c-0.2-0.3-0.1-0.6,0.2-0.8l4.9-2.9
					C84.8,481.2,85.2,481.3,85.3,481.5z"/>
				<path class="st27" d="M83.9,483.9c0.1,0.4-0.1,0.9-0.5,1.1c-0.4,0.2-0.9,0.2-1.2-0.1L83.9,483.9z"/>
			</g>
		</g>
		<g>
			<path class="st28" d="M41.4,483.9c-0.4,0.2-0.5,0.8-0.3,1.2l5.2,8.9c0.2,0.4,0.8,0.5,1.2,0.3l8.9-5.2c0.4-0.2,0.5-0.8,0.3-1.2
				l-2.6-4.4c-0.2-0.4-0.1-0.9,0.3-1.2c0.4-0.2,0.9-0.1,1.2,0.3l2.6,4.4c0.7,1.2,0.3,2.8-0.9,3.5l-8.9,5.2c-1.2,0.7-2.8,0.3-3.5-0.9
				l-5.2-8.9c-0.7-1.2-0.3-2.8,0.9-3.5l7.4-4.3c0.4-0.2,0.9-0.1,1.2,0.3c0.2,0.4,0.1,0.9-0.3,1.2L41.4,483.9z M51.7,477.2
				c0.1-0.5,0.6-0.7,1-0.6c0.5,0.1,0.7,0.6,0.6,1l-2.8,10.5c-0.1,0.5-0.6,0.7-1,0.6l-3.5-0.9c-0.5-0.1-0.7-0.6-0.6-1
				c0.1-0.5,0.6-0.7,1-0.6l2.7,0.7L51.7,477.2z"/>
		</g>
		<g>
			<path class="st3" d="M78,509c0,0-0.1,0-0.1,0.1c-0.3,0.2-0.6,0.2-0.9,0.1l-7.4-1.9l-2,7.5c-0.1,0.2-0.3,0.5-0.5,0.6l-0.1,0
				c0,0-0.1,0-0.1,0c-0.2,0.1-0.5,0.2-0.8,0.1c-0.6-0.2-1-0.8-0.8-1.4l2-7.5l-7.5-2c-0.6-0.2-0.9-0.9-0.7-1.5
				c0.1-0.3,0.3-0.5,0.5-0.6c0.2-0.1,0.5-0.2,0.8-0.1l7.5,1.9l1.9-7.4c0.1-0.3,0.3-0.5,0.5-0.7c0.3-0.2,0.6-0.2,0.9-0.1
				c0.6,0.2,0.9,0.7,0.8,1.3l-2,7.5l7.5,1.9c0.6,0.1,1,0.8,0.9,1.4c0,0,0,0,0,0C78.4,508.7,78.2,508.9,78,509z"/>
			<path class="st12" d="M77.8,508.4c0,0-0.1,0-0.1,0.1c-0.3,0.2-0.6,0.2-0.9,0.1l-7.4-1.9l-2,7.5c-0.1,0.2-0.3,0.5-0.5,0.6l-0.1,0
				c0,0-0.1,0-0.1,0c-0.2,0.1-0.5,0.2-0.8,0.1c-0.6-0.2-1-0.8-0.8-1.4l2-7.5l-7.5-2c-0.6-0.2-0.9-0.9-0.7-1.5
				c0.1-0.3,0.3-0.5,0.5-0.6c0.2-0.1,0.5-0.2,0.8-0.1l7.5,1.9l1.9-7.4c0.1-0.3,0.3-0.5,0.5-0.7c0.3-0.2,0.6-0.2,0.9-0.1
				c0.6,0.2,0.9,0.7,0.8,1.3l-2,7.5l7.5,1.9c0.6,0.1,1,0.8,0.9,1.4c0,0,0,0,0,0C78.3,508,78.1,508.3,77.8,508.4z"/>
		</g>
		<g>
			<g id="g7830_13_" transform="translate(293.2144,407.6475)">
				<path id="path7832_13_" class="st29" d="M-235.6,18.6l-23.5,13.7c-0.4,0.2-0.5,0.8-0.3,1.2l2.5,4.3c0.2,0.4,0.8,0.5,1.2,0.3
					l23.5-13.7c0.4-0.2,0.5-0.8,0.3-1.2l-2.5-4.3C-234.7,18.5-235.2,18.4-235.6,18.6"/>
			</g>
			<g id="g7834_13_" transform="translate(293.2144,407.6475)">
				<path id="path7836_13_" class="st30" d="M-235.6,18.6l-6.7,3.9c0.4-0.2,0.9-0.1,1.2,0.3l2.5,4.3c0.2,0.4,0.1,0.9-0.3,1.2
					l6.7-3.9c0.4-0.2,0.5-0.8,0.3-1.2l-2.5-4.3C-234.7,18.5-235.2,18.4-235.6,18.6"/>
			</g>
			<g id="g7838_13_" transform="translate(128.1699,407.6475)">
				<path id="path7840_13_" class="st31" d="M-94,32.4l23.5-13.7c0.4-0.2,0.9-0.1,1.2,0.3l2.5,4.3c0.2,0.4,0.1,0.9-0.3,1.2
					l-23.5,13.7c-0.4,0.2-0.9,0.1-1.2-0.3l-2.5-4.3C-94.6,33.1-94.4,32.6-94,32.4z"/>
			</g>
		</g>
		<g>
			<path class="st32" d="M38.4,408.6c-1.7-2.8-5.3-3.8-8.1-2.1c-2.8,1.7-3.8,5.3-2.1,8.1l-10.3,6l6,10.3c0.8,1.4,2.6,1.8,3.9,1
				l25.9-15.1c1.4-0.8,1.8-2.6,1-3.9l-6-10.3L38.4,408.6z"/>
			<path class="st33" d="M29.6,430.9l24.1-14.1c1.4-0.8,1.8-2.6,1-3.9l-6-10.3l-10.3,6c-1.7-2.8-5.3-3.8-8.1-2.1
				c-2.8,1.7-3.8,5.3-2.1,8.1l-10.3,6l6,10.3c0.8,1.4,2.6,1.8,3.9,1l3.6-2.1"/>
			<line class="st33" x1="27.5" y1="425.4" x2="48.1" y2="413.3"/>
			<g>
				<g>
					<line class="st33" x1="33.3" y1="411.6" x2="33.3" y2="411.6"/>
				</g>
			</g>
		</g>
	</g>
	<g>
		<path class="st34" d="M9.4,297.6l80.4,26.8c2.4,0.8,5.1-0.5,5.9-2.9l27-81.1l-69.4-23.1l-20.6,10.3L9.4,297.6z"/>
		<circle class="st35" cx="109.6" cy="242.6" r="1.7"/>
		<circle class="st35" cx="92.2" cy="236.7" r="1.7"/>
		<circle class="st35" cx="74.8" cy="230.9" r="1.7"/>
		<circle class="st35" cx="57.4" cy="225.1" r="1.7"/>
		<path class="st36" d="M75.7,264l-3.8,11.5l0,0l-6.6-2.2c-0.6-0.2-0.9-0.9-0.7-1.5l3.1-9.3c0.2-0.6,0.9-0.9,1.5-0.7L75.7,264
			L75.7,264z"/>
		<path class="st37" d="M104.3,255.4l-8.9,26.7c-0.2,0.6-0.9,0.9-1.5,0.7l-6.6-2.2l0,0l9.3-27.8c0.2-0.6,0.9-0.9,1.5-0.7l5.5,1.8
			C104.2,254.1,104.5,254.8,104.3,255.4z"/>
		<path class="st38" d="M85.3,260.8L79.6,278l0,0l-7.7-2.6l0,0l5.4-16.1c0.2-0.6,0.9-0.9,1.5-0.7L85.3,260.8L85.3,260.8z"/>
		<path class="st39" d="M95,257.4l-7.7,23.1l0,0l-7.7-2.6l0,0l7.3-22c0.2-0.6,0.9-0.9,1.5-0.7L95,257.4L95,257.4z"/>
		<path class="st40" d="M20.4,301.2l-11-3.7l23.4-70.1l8.8-4.4l-24.1,72.3C16.7,297.8,18,300.4,20.4,301.2z"/>
		<path class="st41" d="M32.8,227.5l11,3.7c2.4,0.8,5.1-0.5,5.9-2.9l0,0l3.7-11L32.8,227.5z"/>
		<path class="st35" d="M61.5,256.1l-24.2-8.1c-0.9-0.3-1.4-1.3-1.1-2.2c0.3-0.9,1.3-1.4,2.2-1.1l24.2,8.1c0.9,0.3,1.4,1.3,1.1,2.2
			S62.4,256.4,61.5,256.1z"/>
		<path class="st35" d="M52.3,261.4l-8.6-2.9c-0.9-0.3-1.4-1.3-1.1-2.2c0.3-0.9,1.3-1.4,2.2-1.1l8.6,2.9c0.9,0.3,1.4,1.3,1.1,2.2
			S53.2,261.7,52.3,261.4z"/>
		<path class="st35" d="M38.6,256.8l-3.9-1.3c-0.9-0.3-1.4-1.3-1.1-2.2c0.3-0.9,1.3-1.4,2.2-1.1l3.9,1.3c0.9,0.3,1.4,1.3,1.1,2.2
			S39.5,257.1,38.6,256.8z"/>
		<path class="st35" d="M64,248.6l-18.1-6c-0.9-0.3-1.4-1.3-1.1-2.2c0.3-0.9,1.3-1.4,2.2-1.1l18.1,6c0.9,0.3,1.4,1.3,1.1,2.2
			C65.9,248.4,64.9,248.9,64,248.6z"/>
		<circle class="st35" cx="41.9" cy="239.5" r="1.7"/>
		<circle class="st35" cx="57.9" cy="261.4" r="1.7"/>
		<path class="st35" d="M85.8,303.4l-24.2-8.1c-0.9-0.3-1.4-1.3-1.1-2.2s1.3-1.4,2.2-1.1l24.2,8.1c0.9,0.3,1.4,1.3,1.1,2.2
			C87.7,303.2,86.8,303.7,85.8,303.4z"/>
		<path class="st35" d="M76.7,308.7l-8.6-2.9c-0.9-0.3-1.4-1.3-1.1-2.2c0.3-0.9,1.3-1.4,2.2-1.1l8.6,2.9c0.9,0.3,1.4,1.3,1.1,2.2
			S77.6,309,76.7,308.7z"/>
		<path class="st35" d="M63,304.1l-3.9-1.3c-0.9-0.3-1.4-1.3-1.1-2.2c0.3-0.9,1.3-1.4,2.2-1.1l3.9,1.3c0.9,0.3,1.4,1.3,1.1,2.2
			S63.9,304.4,63,304.1z"/>
		<path class="st35" d="M88.3,295.9l-18.1-6c-0.9-0.3-1.4-1.3-1.1-2.2s1.3-1.4,2.2-1.1l18.1,6c0.9,0.3,1.4,1.3,1.1,2.2
			S89.3,296.2,88.3,295.9z"/>
		<circle class="st35" cx="66.3" cy="286.7" r="1.7"/>
		<circle class="st35" cx="82.2" cy="308.7" r="1.7"/>
		<path class="st42" d="M53.7,299.7l2.2-6.5c0.4-1.1-0.2-2.4-1.3-2.9l-4.7-2.1c0-1.3-0.1-2.6-0.3-3.9l4.4-2.7c1-0.6,1.4-1.9,0.9-3
			l-3.1-6.1c-0.5-1.1-1.8-1.6-2.9-1.1l-4.8,1.9c-0.9-0.9-1.9-1.8-2.9-2.5l1.2-5c0.3-1.2-0.4-2.4-1.5-2.7l-6.5-2.2
			c-1.1-0.4-2.4,0.2-2.9,1.3l-2.1,4.7c-1.3,0-2.6,0.1-3.9,0.3l-2.7-4.4c-0.6-1-1.9-1.4-3-0.9l-6.1,3.1c-1.1,0.5-1.6,1.8-1.1,2.9
			l1.9,4.8c-0.9,0.9-1.8,1.9-2.5,2.9l-5-1.2c-1.2-0.3-2.4,0.4-2.7,1.5l-2.2,6.5c-0.4,1.1,0.2,2.4,1.3,2.9l4.7,2.1
			c0,1.3,0.1,2.6,0.3,3.9L3.8,294c-1,0.6-1.4,1.9-0.9,3l3.1,6.1c0.5,1.1,1.8,1.6,2.9,1.1l4.8-1.9c0.9,0.9,1.9,1.8,2.9,2.5l-1.2,5
			c-0.3,1.2,0.4,2.4,1.5,2.7l6.5,2.2c1.1,0.4,2.4-0.2,2.9-1.3l2.1-4.7c1.3,0,2.6-0.1,3.9-0.3l2.7,4.4c0.6,1,1.9,1.4,3,0.9l6.1-3.1
			c1.1-0.5,1.6-1.8,1.1-2.9l-1.9-4.8c0.9-0.9,1.8-1.9,2.5-2.9l5,1.2C52.1,301.5,53.3,300.9,53.7,299.7L53.7,299.7z M25.7,297.2
			c-5.2-1.7-8-7.3-6.3-12.5s7.3-8,12.5-6.3c5.2,1.7,8,7.3,6.3,12.5l0,0C36.5,296.1,30.9,298.9,25.7,297.2z"/>
		<path class="st43" d="M19.7,261.9l-6.2,3.1c-1.1,0.5-1.6,1.8-1.1,2.9l1.9,4.8c3.1-2.9,6.9-4.9,11.1-5.6l-2.7-4.4
			C22.1,261.7,20.8,261.3,19.7,261.9L19.7,261.9z"/>
		<path class="st43" d="M8.1,291.2L3.8,294c-1,0.6-1.4,1.9-0.9,3l3.1,6.1c0.5,1.1,1.8,1.6,2.9,1.1l4.8-1.9
			C10.8,299.3,8.8,295.4,8.1,291.2z"/>
		<path class="st43" d="M8.9,281.2c0.7-2,1.6-3.9,2.9-5.6l-5-1.2c-1.2-0.3-2.4,0.4-2.7,1.5l-2.2,6.5c-0.4,1.1,0.2,2.4,1.3,2.9
			l4.7,2.1C7.9,285.3,8.3,283.2,8.9,281.2L8.9,281.2z"/>
		<path class="st43" d="M32.9,275.7c-6.7-2.2-13.9,1.4-16.2,8.1c-2.2,6.7,1.4,13.9,8.1,16.2s13.9-1.4,16.2-8.1l0,0
			C43.2,285.2,39.6,277.9,32.9,275.7z M27,293.3c-3-1-4.7-4.3-3.7-7.3s4.3-4.7,7.3-3.7c3,1,4.7,4.3,3.7,7.3
			C33.3,292.7,30.1,294.4,27,293.3z"/>
		<path class="st44" d="M113.3,250.2l-15.2,45.5l1.3,11.2c0.1,0.6,0.6,1.1,1.3,1c0.3,0,0.5-0.2,0.7-0.4l7.7-8.2l15.2-45.5
			L113.3,250.2z"/>
		<path class="st45" d="M126.5,247.3l-11-3.7l1.5-4.4c1-3,4.3-4.7,7.3-3.7s4.7,4.3,3.7,7.3L126.5,247.3z"/>
		<path class="st46" d="M115.5,243.6l11,3.7l-2.2,6.6l-11-3.7L115.5,243.6z"/>
		<path class="st47" d="M115.5,243.6l4.4,1.5l-2.2,6.6l-4.4-1.5L115.5,243.6z"/>
		<path class="st48" d="M103.5,305.4l-2.1,2.2c-0.4,0.5-1.2,0.5-1.6,0c-0.2-0.2-0.3-0.4-0.4-0.7l-1.3-11.2l15.2-45.5l4.4,1.5
			l-15.2,45.5L103.5,305.4z"/>
		<path class="st49" d="M123.1,235.3l-3.3,9.8l-4.4-1.5l1.5-4.4C117.8,236.6,120.4,234.9,123.1,235.3z"/>
		<g>
			<path class="st3" d="M31,281.3c-0.7-0.2-1.4-0.4-2.2-0.4c-3,0-5.6,1.9-6.6,4.7c-0.6,1.8-0.5,3.6,0.4,5.3c0.8,1.7,2.2,2.9,4,3.5
				c0.7,0.2,1.4,0.4,2.2,0.4c3,0,5.6-1.9,6.6-4.7c0.6-1.8,0.5-3.6-0.4-5.3C34.2,283.1,32.8,281.8,31,281.3z M28.9,292.5
				c-0.5,0-1-0.1-1.5-0.2c-1.2-0.4-2.2-1.2-2.7-2.4c-0.6-1.1-0.7-2.4-0.3-3.6c0.6-1.9,2.4-3.2,4.4-3.2c0.5,0,1,0.1,1.5,0.2
				c2.4,0.8,3.8,3.5,3,5.9C32.7,291.2,30.9,292.5,28.9,292.5z"/>
			<path class="st3" d="M24.5,301c1.4,0.5,2.9,0.7,4.4,0.7c1.1,0,2.1-0.1,3.2-0.4c7.5-1.8,12.1-9.2,10.3-16.7
				c-0.1-0.6-0.7-1-1.3-0.8c-0.3,0.1-0.5,0.2-0.7,0.5c-0.2,0.3-0.2,0.6-0.1,0.8c1.1,4.5-0.7,9.2-4.3,12c-2,1.5-4.5,2.3-7,2.3
				c-3.7,0-7.1-1.7-9.3-4.7c-1.9-2.5-2.7-5.6-2.2-8.6c0.4-3.1,2-5.8,4.5-7.7c2-1.5,4.5-2.3,7-2.3c3.7,0,7.1,1.7,9.3,4.7
				c0.2,0.3,0.5,0.4,0.9,0.4c0.2,0,0.4,0,0.7-0.2c0.2-0.2,0.4-0.4,0.4-0.7c0-0.3,0-0.6-0.2-0.8c-1.7-2.3-4-3.9-6.7-4.8
				c-1.4-0.5-2.9-0.7-4.4-0.7c-6,0-11.3,3.8-13.2,9.5c-1.2,3.5-0.9,7.3,0.8,10.6C18.1,297.4,20.9,299.8,24.5,301z"/>
			<path class="st3" d="M98.8,312c-0.6-0.2-1.2,0.1-1.4,0.7l-2.8,8.3c-0.5,1.4-1.8,2.4-3.4,2.4c-0.4,0-0.8-0.1-1.1-0.2l-43.6-14.5
				l0-0.4c0-0.3-0.1-0.7-0.2-1l-1.6-4.1L45,303c0.4-0.4,0.8-0.9,1.2-1.3l0.2-0.3l4.3,1c0.3,0.1,0.5,0.1,0.8,0.1
				c1.5,0,2.8-0.9,3.2-2.4l2.2-6.5c0.6-1.7-0.3-3.5-1.9-4.2l-4-1.8l0-0.4c0-0.6-0.1-1.2-0.1-1.8l0-0.4l3.8-2.3
				c1.5-0.9,2.1-2.9,1.3-4.5l-3.1-6.1c-0.6-1.2-1.8-1.9-3.1-1.9c-0.4,0-0.9,0.1-1.3,0.2l-4.1,1.6l-0.3-0.3c-0.4-0.4-0.9-0.8-1.3-1.2
				l-0.3-0.2l1-4.3c0.4-1.7-0.6-3.5-2.3-4l-6.5-2.2c-0.4-0.1-0.7-0.2-1.1-0.2c-1.4,0-2.6,0.8-3.1,2.1l-1.8,4l-0.4,0
				c-0.6,0-1.2,0.1-1.8,0.1l-0.4,0l-2.3-3.8c-0.6-1-1.7-1.6-2.9-1.6c-0.5,0-1.1,0.1-1.5,0.4l-6.1,3.1c-1.6,0.8-2.3,2.7-1.7,4.3
				l1.6,4.1l-0.3,0.3c-0.4,0.4-0.8,0.9-1.2,1.3l-0.2,0.3l-4.3-1c-0.3-0.1-0.5-0.1-0.8-0.1c-1.5,0-2.8,0.9-3.2,2.4l-2.2,6.5
				c-0.6,1.7,0.3,3.5,1.9,4.2l4,1.8l0,0.4c0,0.6,0.1,1.2,0.1,1.8l0,0.4L3.2,293c-1.5,0.9-2.1,2.9-1.3,4.5l3.1,6.1
				c0.6,1.2,1.8,1.9,3.1,1.9c0.4,0,0.9-0.1,1.3-0.2l4.1-1.6l0.3,0.3c0.4,0.4,0.9,0.8,1.3,1.2l0.3,0.2l-1,4.3c-0.4,1.7,0.6,3.5,2.3,4
				l6.5,2.2c0.4,0.1,0.7,0.2,1.1,0.2c1.4,0,2.6-0.8,3.1-2.1l1.8-4l0.4,0c0.6,0,1.2-0.1,1.8-0.1l0.4,0l2.3,3.8c0.6,1,1.7,1.6,2.9,1.6
				c0.5,0,1.1-0.1,1.5-0.4l6.1-3.1c0.3-0.2,0.6-0.4,0.8-0.6l0.3-0.3l43.7,14.6c0.6,0.2,1.2,0.3,1.8,0.3c2.5,0,4.7-1.6,5.5-3.9
				l2.8-8.3c0.1-0.3,0.1-0.6-0.1-0.9C99.3,312.3,99.1,312.1,98.8,312z M16.5,310.2l1.2-5c0.1-0.4-0.1-0.9-0.4-1.2
				c-1-0.7-1.9-1.5-2.8-2.4c-0.2-0.2-0.5-0.3-0.8-0.3c-0.1,0-0.3,0-0.4,0.1l-4.8,1.9c-0.6,0.2-1.2,0-1.5-0.6l-3.1-6.1
				c-0.3-0.6-0.1-1.2,0.4-1.6l4.4-2.7c0.4-0.2,0.6-0.7,0.5-1.1c-0.2-1.2-0.3-2.4-0.3-3.6c0-0.5-0.3-0.9-0.7-1l-4.7-2.1
				c-0.6-0.3-0.9-0.9-0.7-1.5l2.2-6.5c0.2-0.6,0.8-0.9,1.4-0.8l5,1.2c0.4,0.1,0.9-0.1,1.2-0.4c0.7-1,1.5-1.9,2.4-2.8
				c0.3-0.3,0.4-0.8,0.3-1.2l-1.9-4.8c-0.2-0.6,0-1.2,0.6-1.5l6.1-3.1c0.5-0.3,1.2-0.1,1.6,0.4l2.7,4.4c0.2,0.4,0.7,0.6,1.1,0.5
				c1.1-0.2,2.2-0.3,3.2-0.3l0.4,0c0.4,0,0.8-0.3,1-0.7l2.1-4.7c0.2-0.6,0.9-0.9,1.5-0.7l6.5,2.2c0.6,0.2,0.9,0.8,0.8,1.4l-1.2,5
				c-0.1,0.4,0.1,0.9,0.4,1.2c1,0.7,1.9,1.5,2.8,2.4c0.3,0.3,0.8,0.4,1.2,0.3l4.8-1.9c0.6-0.2,1.3,0,1.5,0.6l3.1,6.1
				c0.3,0.6,0.1,1.2-0.4,1.6l-4.4,2.7c-0.4,0.2-0.6,0.7-0.5,1.1c0.2,1.2,0.3,2.4,0.3,3.6c0,0.5,0.3,0.9,0.7,1l4.7,2.1
				c0.6,0.2,0.9,0.9,0.7,1.5l-2.2,6.5c-0.2,0.6-0.8,0.9-1.4,0.8l-5-1.2c-0.4-0.1-0.9,0.1-1.2,0.4c-0.7,1-1.5,1.9-2.4,2.8
				c-0.3,0.3-0.4,0.8-0.3,1.2l1.9,4.8c0.2,0.6,0,1.2-0.6,1.5l-6.1,3.1c-0.5,0.3-1.3,0.1-1.6-0.4l-2.7-4.4c-0.2-0.4-0.7-0.6-1.1-0.5
				c-1.1,0.2-2.2,0.3-3.2,0.3l-0.4,0c-0.4,0-0.8,0.3-1,0.7l-2.1,4.7c-0.2,0.6-0.9,0.9-1.5,0.7l-6.5-2.2
				C16.7,311.4,16.4,310.8,16.5,310.2z"/>
			<path class="st3" d="M68.7,260.6c-1,0-1.9,0.6-2.2,1.6l-3.1,9.3c-0.4,1.2,0.2,2.5,1.4,2.9l28.7,9.5c0.2,0.1,0.5,0.1,0.7,0.1
				c1,0,1.9-0.6,2.2-1.6l8.9-26.7c0.4-1.2-0.3-2.5-1.4-2.9l-5.5-1.8c-1.2-0.4-2.5,0.3-2.9,1.4l-1.2,3.6l-5.6-1.8
				c-1.2-0.4-2.5,0.3-2.9,1.4l-1.3,3.8l-5.6-1.8c-0.2-0.1-0.5-0.1-0.7-0.1c-1,0-1.9,0.6-2.2,1.6l-1.2,3.6l-5.6-1.8
				C69.2,260.6,69,260.6,68.7,260.6z M81,277.3l7-21l5.6,1.9l-7,21L81,277.3z M88.7,279.9l8.9-26.8l5.6,1.9l-8.9,26.8L88.7,279.9z
				 M73.3,274.7l5-15.1l5.6,1.9l-5,15.1L73.3,274.7z M65.6,272.2l3.1-9.3l5.6,1.9l-3.1,9.3L65.6,272.2z"/>
			<path class="st3" d="M109.3,243.6c0.1,0,0.2,0.1,0.4,0.1c0.5,0,0.9-0.3,1.1-0.8c0.1-0.3,0.1-0.6-0.1-0.9
				c-0.1-0.3-0.4-0.5-0.6-0.6c-0.6-0.2-1.2,0.1-1.4,0.7c-0.1,0.3-0.1,0.6,0.1,0.9C108.8,243.3,109,243.5,109.3,243.6z"/>
			<path class="st3" d="M91.9,237.8c0.1,0,0.2,0.1,0.4,0.1c0.5,0,0.9-0.3,1.1-0.8c0.1-0.3,0.1-0.6-0.1-0.9s-0.4-0.5-0.6-0.6
				c-0.6-0.2-1.2,0.1-1.4,0.7c-0.1,0.3-0.1,0.6,0.1,0.9S91.6,237.7,91.9,237.8z"/>
			<path class="st3" d="M74.5,232c0.1,0,0.2,0.1,0.4,0.1c0.5,0,0.9-0.3,1.1-0.8c0.1-0.3,0.1-0.6-0.1-0.9s-0.4-0.5-0.6-0.6
				c-0.6-0.2-1.2,0.1-1.4,0.7c-0.1,0.3-0.1,0.6,0.1,0.9S74.2,231.9,74.5,232z"/>
			<path class="st3" d="M57,226.2c0.1,0,0.2,0.1,0.4,0.1c0.5,0,0.9-0.3,1.1-0.8c0.1-0.3,0.1-0.6-0.1-0.9c-0.1-0.3-0.4-0.5-0.6-0.6
				c-0.6-0.2-1.2,0.1-1.4,0.7c-0.1,0.3-0.1,0.6,0.1,0.9C56.5,225.9,56.8,226.1,57,226.2z"/>
			<path class="st3" d="M36.7,246c-0.2,0.6,0.1,1.2,0.7,1.4l24.2,8.1c0.1,0,0.2,0.1,0.4,0.1c0.5,0,0.9-0.3,1.1-0.8
				c0.2-0.6-0.1-1.2-0.7-1.4l-24.2-8.1C37.5,245.1,36.9,245.5,36.7,246z"/>
			<path class="st3" d="M53.2,258.7l-8.6-2.9c-0.6-0.2-1.2,0.1-1.4,0.7c-0.2,0.6,0.1,1.2,0.7,1.4l8.6,2.9c0.1,0,0.2,0.1,0.4,0.1
				c0.5,0,0.9-0.3,1.1-0.8c0.1-0.3,0.1-0.6-0.1-0.9C53.7,259,53.5,258.8,53.2,258.7z"/>
			<path class="st3" d="M34.2,253.5c-0.2,0.6,0.1,1.2,0.7,1.4l3.9,1.3c0.1,0,0.2,0.1,0.4,0.1c0.5,0,0.9-0.3,1.1-0.8
				c0.2-0.6-0.1-1.2-0.7-1.4l-3.9-1.3C35.1,252.6,34.4,253,34.2,253.5z"/>
			<path class="st3" d="M45.4,240.6c-0.2,0.6,0.1,1.2,0.7,1.4l18.1,6c0.1,0,0.2,0.1,0.4,0.1c0.5,0,0.9-0.3,1.1-0.8
				c0.2-0.6-0.1-1.2-0.7-1.4l-18.1-6C46.2,239.7,45.6,240,45.4,240.6z"/>
			<path class="st3" d="M41.9,240.6c0.5,0,0.9-0.3,1.1-0.8c0.1-0.3,0.1-0.6-0.1-0.9c-0.1-0.3-0.4-0.5-0.6-0.6
				c-0.6-0.2-1.2,0.1-1.4,0.7c-0.2,0.6,0.1,1.2,0.7,1.4C41.7,240.6,41.8,240.6,41.9,240.6z"/>
			<path class="st3" d="M58.9,261.8c0.1-0.3,0.1-0.6-0.1-0.9c-0.1-0.3-0.4-0.5-0.6-0.6c-0.6-0.2-1.2,0.1-1.4,0.7
				c-0.1,0.3-0.1,0.6,0.1,0.9c0.1,0.3,0.4,0.5,0.6,0.6c0.1,0,0.2,0.1,0.4,0.1C58.3,262.5,58.8,262.2,58.9,261.8z"/>
			<path class="st3" d="M86.4,302.9c0.5,0,0.9-0.3,1.1-0.8c0.2-0.6-0.1-1.2-0.7-1.4l-24.2-8.1c-0.6-0.2-1.2,0.1-1.4,0.7
				c-0.1,0.3-0.1,0.6,0.1,0.9c0.1,0.3,0.4,0.5,0.6,0.6l24.2,8.1C86.2,302.8,86.3,302.9,86.4,302.9z"/>
			<path class="st3" d="M77.6,306l-8.6-2.9c-0.6-0.2-1.2,0.1-1.4,0.7c-0.1,0.3-0.1,0.6,0.1,0.9c0.1,0.3,0.4,0.5,0.6,0.6l8.6,2.9
				c0.1,0,0.2,0.1,0.4,0.1c0.5,0,0.9-0.3,1.1-0.8c0.1-0.3,0.1-0.6-0.1-0.9C78.1,306.3,77.9,306.1,77.6,306z"/>
			<path class="st3" d="M59.3,302.2l3.9,1.3c0.1,0,0.2,0.1,0.4,0.1c0.5,0,0.9-0.3,1.1-0.8c0.1-0.3,0.1-0.6-0.1-0.9s-0.4-0.5-0.6-0.6
				l-3.9-1.3c-0.6-0.2-1.2,0.1-1.4,0.7c-0.1,0.3-0.1,0.6,0.1,0.9C58.8,301.9,59,302.1,59.3,302.2z"/>
			<path class="st3" d="M88.9,295.4c0.5,0,0.9-0.3,1.1-0.8c0.2-0.6-0.1-1.2-0.7-1.4l-18.1-6c-0.6-0.2-1.2,0.1-1.4,0.7
				c-0.1,0.3-0.1,0.6,0.1,0.9c0.1,0.3,0.4,0.5,0.6,0.6l18.1,6C88.7,295.3,88.8,295.4,88.9,295.4z"/>
			<path class="st3" d="M65.9,287.8c0.1,0,0.2,0.1,0.4,0.1c0.5,0,0.9-0.3,1.1-0.8c0.1-0.3,0.1-0.6-0.1-0.9c-0.1-0.3-0.4-0.5-0.6-0.6
				c-0.6-0.2-1.2,0.1-1.4,0.7c-0.1,0.3-0.1,0.6,0.1,0.9C65.4,287.5,65.7,287.7,65.9,287.8z"/>
			<path class="st3" d="M82.6,307.6c-0.6-0.2-1.2,0.1-1.4,0.7c-0.1,0.3-0.1,0.6,0.1,0.9s0.4,0.5,0.6,0.6c0.1,0,0.2,0.1,0.4,0.1
				c0.5,0,0.9-0.3,1.1-0.8c0.1-0.3,0.1-0.6-0.1-0.9C83.1,307.9,82.9,307.7,82.6,307.6z"/>
			<path class="st3" d="M124.6,234.5c-0.7-0.2-1.4-0.4-2.2-0.4c-2.2,0-4.1,1-5.5,2.7l-0.3,0.3l-63-21c-0.3-0.1-0.6-0.1-0.9,0.1
				l-20.6,10.3c-0.3,0.1-0.5,0.4-0.6,0.6l-9.8,29.4c-0.1,0.3-0.1,0.6,0.1,0.9c0.1,0.3,0.4,0.5,0.6,0.6c0.6,0.2,1.2-0.1,1.4-0.7
				l9.4-28.3l10,3.3c0.6,0.2,1.2,0.3,1.8,0.3c2.5,0,4.7-1.6,5.5-3.9l3.3-10l61.7,20.6l-18.7,56.2c-0.1,0.2-0.1,0.3-0.1,0.5l1.3,11.2
				c0.1,1.2,1.1,2,2.3,2c0.1,0,0.2,0,0.3,0c0.5-0.1,1-0.3,1.4-0.7l7.7-8.2c0.1-0.1,0.2-0.3,0.2-0.4l18.8-56.5
				C130.2,239.6,128.3,235.7,124.6,234.5z M122.4,236.3c0.5,0,1,0.1,1.5,0.2c2.5,0.8,3.8,3.5,3,5.9l-1.1,3.3l-8.9-3l1.1-3.3
				C118.6,237.6,120.4,236.3,122.4,236.3z M125.1,248l-1.5,4.5l-8.9-3l1.5-4.5L125.1,248z M114,251.6l8.9,3l-14.7,44.2l-7.6,8.1
				l-1.3-11L114,251.6z M45.3,230.3c-0.4,0-0.8-0.1-1.1-0.2l-8.5-2.8l15.7-7.9l-2.8,8.5C48.1,229.3,46.8,230.3,45.3,230.3z"/>
		</g>
	</g>
</g>
</svg>
