<?xml version="1.0" encoding="utf-8"?>
<!-- Generator: Adobe Illustrator 25.0.0, SVG Export Plug-In . SVG Version: 6.00 Build 0)  -->
<svg version="1.1" id="Layer_1" xmlns="http://www.w3.org/2000/svg" xmlns:xlink="http://www.w3.org/1999/xlink" x="0px" y="0px"
	 viewBox="0 0 432 430" style="enable-background:new 0 0 432 430;" xml:space="preserve">
<style type="text/css">
	.st0{fill:#35414D;}
	.st1{fill:#FEC9A3;}
	.st2{fill:#F35244;}
	.st3{fill:#EA4A3B;}
	.st4{fill:#E0E0DE;}
	.st5{fill:#D6D6D4;}
	.st6{fill:#FFB531;}
	.st7{fill:#FFDC8D;}
	.st8{fill:#FFA912;}
	.st9{fill:#374559;}
	.st10{fill:#FEB784;}
	.st11{fill:#7A432A;}
	.st12{fill:#743B20;}
	.st13{fill:#FEC093;}
</style>
<g>
	<g>
		<path class="st0" d="M22.1,216.5C9.9,216.5,0,206.6,0,194.4c0-12.2,9.9-22.1,22.1-22.1c12.2,0,22.1,9.9,22.1,22.1
			C44.2,206.6,34.3,216.5,22.1,216.5z M22.1,182.1c-6.8,0-12.4,5.5-12.4,12.4s5.5,12.4,12.4,12.4s12.4-5.5,12.4-12.4
			S28.9,182.1,22.1,182.1z"/>
		<ellipse transform="matrix(0.3827 -0.9239 0.9239 0.3827 171.2913 452.4252)" class="st0" cx="424.2" cy="98" rx="7.8" ry="7.8"/>
		<circle class="st0" cx="122.7" cy="62.5" r="7.8"/>
		<circle class="st0" cx="93.6" cy="13.6" r="7.8"/>
		<path class="st0" d="M380.5,60.4c-1.3,0-2.5-0.5-3.4-1.4c-1.9-1.9-1.9-5,0-6.9l25.3-25.3c0.9-0.9,2.1-1.4,3.4-1.4
			c1.3,0,2.5,0.5,3.4,1.4c0.9,0.9,1.4,2.1,1.4,3.4c0,1.3-0.5,2.5-1.4,3.4L384,59C383.1,59.9,381.8,60.4,380.5,60.4z"/>
		<path class="st0" d="M405.8,60.4c-1.3,0-2.5-0.5-3.4-1.4l-25.3-25.3c-0.9-0.9-1.4-2.1-1.4-3.4c0-1.3,0.5-2.5,1.4-3.4
			c0.9-0.9,2.1-1.4,3.4-1.4c1.3,0,2.5,0.5,3.4,1.4l25.3,25.3c0.9,0.9,1.4,2.1,1.4,3.4c0,1.3-0.5,2.5-1.4,3.4
			C408.4,59.9,407.1,60.4,405.8,60.4z"/>
		<path class="st0" d="M345.1,222.4c-1.3,0-2.5-0.5-3.4-1.4c-0.9-0.9-1.4-2.1-1.4-3.4c0-1.3,0.5-2.5,1.4-3.4l25.3-25.3
			c0.9-0.9,2.1-1.4,3.4-1.4c1.3,0,2.5,0.5,3.4,1.4c1.9,1.9,1.9,5,0,6.9l-25.3,25.3C347.6,221.9,346.4,222.4,345.1,222.4z"/>
		<path class="st0" d="M370.4,222.4c-1.3,0-2.5-0.5-3.4-1.4l-25.3-25.3c-1.9-1.9-1.9-5,0-6.9c0.9-0.9,2.1-1.4,3.4-1.4
			c1.3,0,2.5,0.5,3.4,1.4l25.3,25.3c0.9,0.9,1.4,2.1,1.4,3.4c0,1.3-0.5,2.5-1.4,3.4C372.9,221.9,371.7,222.4,370.4,222.4z"/>
	</g>
	<g id="Filled_outline_1_">
		<path class="st1" d="M373.9,258.8l-65.1-8.1c-7.2-0.9-12.7-7.1-12.7-14.4v-35.8h-72.3v35.8c0,7.3-5.4,13.4-12.7,14.3
			c-15.5,1.9-42.6,5.3-65.1,8.1c-21.7,2.7-38,21.2-38,43v101.2c0,12,9.7,21.7,21.7,21.7l0,0h260.4c12,0,21.7-9.7,21.7-21.7l0,0
			V301.9C411.9,280,395.6,261.5,373.9,258.8z"/>
		<path class="st2" d="M373.9,258.8l-63.7-8c-14.6,27-48.3,37.2-75.3,22.6c-9.7-5.2-17.6-13.2-22.8-23c-0.3,0.1-0.6,0.2-0.9,0.2
			c-15.5,1.9-42.6,5.3-65.1,8.1c-21.7,2.7-38,21.2-38,43v101.2c0,12,9.7,21.7,21.7,21.7h260.4c12,0,21.7-9.7,21.7-21.7V301.9
			C411.9,280,395.6,261.5,373.9,258.8L373.9,258.8z"/>
		<path class="st3" d="M411.9,301.9c0-18.8-12.1-35.4-29.9-41.2c-60.3,88.6-155,138.8-219.1,164.1h227.3c12,0,21.7-9.7,21.7-21.7
			l0,0V301.9z"/>
		<path class="st4" d="M123.9,181.5l-41.1,16.5L63.3,172l-34.8-46.2l18.7-70l54.3,31.7l9.3,5.4L123.9,181.5z"/>
		<path class="st5" d="M123.9,181.5l-41.1,16.5L63.3,172c13.9-22.2,27.4-50,38.2-84.5l9.3,5.4L123.9,181.5z"/>
		<path class="st6" d="M137.6,176l-68.6,27.4l11.2,26.8l68.6-27.4L137.6,176z"/>
		<path class="st7" d="M229,390.7c-6.6-21.9-13.8-43.6-21.9-65c-16-42.5-35.2-83.8-58.3-123l-68.6,27.4
			c18.9,70.3,41.7,131.6,78.8,194.6h79.2C236.9,414.8,232.3,401.7,229,390.7L229,390.7z"/>
		<path class="st8" d="M137.6,176l-25.4,10.2l11.4,26.7l25.2-10.1L137.6,176z"/>
		<path class="st9" d="M229,390.7c-6.6-21.9-13.8-43.6-21.9-65c-16-42.5-35.2-83.8-58.3-123l-20.7,8.3c47,77.9,75,165.6,87.6,213.7
			h22.6C236.9,414.8,232.3,401.7,229,390.7L229,390.7z"/>
		<path class="st10" d="M325.1,338l-217,21.7v43.4c0,12,9.7,21.7,21.7,21.7l0,0h40c2.2,0,4.5-0.3,6.6-1l148.7-47.3l50.6-9.5
			l36.2,14.5v-57.9l-43.4-7.2L325.1,338z"/>
		<path class="st1" d="M194.9,338l217,21.7v43.4c0,12-9.7,21.7-21.7,21.7l0,0h-40c-2.2,0-4.5-0.3-6.6-1l-148.7-47.3l-50.6-9.5
			l-36.2,14.5v-57.9l43.4-7.2L194.9,338z"/>
		<path class="st10" d="M262,243.9c12.5,0,24.5-4.3,34.2-12.1v-31.3h-72.3v31.3c9.7,7.8,21.8,12.1,34.2,12.1H262z"/>
		<path class="st11" d="M339.6,109.7l-21.8,76.3H202.1c-13.3-21.8-16.3-28.5-20.9-45.5c-6.6-24.8-15.6-50.1-14.3-76.1
			c1-20.3,11.3-42.9,35.2-42.9l26.5-10.4c3.9-1.5,7.9-2.8,12-3.7c25.3-5.9,51.8,0,72.3,15.9c1.5,1.2,3,2.4,4.4,3.7
			C340.2,47.6,348.1,80.2,339.6,109.7L339.6,109.7z"/>
		<path class="st12" d="M339.6,109.7l-21.8,76.3h-30.5c1.1-4.7,1.6-9.6,1.6-14.5V70.3c0-29.5-19.8-55.3-48.2-62.9
			c25.3-5.9,51.8,0,72.3,15.9c1.5,1.2,3,2.4,4.4,3.7C340.2,47.6,348.1,80.2,339.6,109.7L339.6,109.7z"/>
		<path class="st10" d="M332.3,106.5h-7.2v43.4h7.2c12,0,21.7-9.7,21.7-21.7C354,116.2,344.3,106.5,332.3,106.5z"/>
		<path class="st10" d="M188,106.5h-0.4c-12,0-21.7,9.7-21.7,21.7c0,12,9.7,21.7,21.7,21.7h7.2v-43.4H188z"/>
		<path class="st1" d="M325.1,77.5v79c0,23.3-10.3,45.4-28.2,60.3c-9.8,8.2-22.2,12.6-34.9,12.6H258c-1.4,0-2.7-0.1-4.1-0.2
			c-11.3-0.8-22.1-5.2-30.8-12.5c-17.9-14.9-28.2-37-28.2-60.3v-50c9.4-14.2,14.5-30.8,14.5-47.8V41.4h15.1
			c27.6,0,42.8,36.2,64.5,36.2H325.1z"/>
		<path class="st13" d="M325.1,77.5v79c0,23.3-10.3,45.4-28.2,60.3c-9.8,8.2-22.2,12.6-34.9,12.6H258c-1.4,0-2.7-0.1-4.1-0.2
			c21.5-11.2,35-33.5,35-57.7v-94L325.1,77.5z"/>
		<path class="st4" d="M283.1,106.5h33.3c4.8,0,8.7,3.9,8.7,8.7v11.6c0,4.8-3.9,8.7-8.7,8.7h-33.3c-4.8,0-8.7-3.9-8.7-8.7v-11.6
			C274.5,110.4,278.4,106.5,283.1,106.5z"/>
		<path class="st4" d="M203.6,106.5h33.3c4.8,0,8.7,3.9,8.7,8.7v11.6c0,4.8-3.9,8.7-8.7,8.7h-33.3c-4.8,0-8.7-3.9-8.7-8.7v-11.6
			C194.9,110.4,198.8,106.5,203.6,106.5z"/>
		<path class="st0" d="M350.2,430c-2.8,0-5.5-0.4-8.2-1.3l-82-26.1l-20,6.3l0.5,1.9c1.2,4.3,2.2,8.8,2.9,13.2c0,0.2,0,0.5,0,0.7
			c0,2.9-2.3,5.2-5.2,5.2H129.8c-14.8,0-26.9-12.1-26.9-26.9v-84.3l-0.1-0.3c-10-26.8-19-55.1-27.4-86.6l0-0.1l-11-26.3
			c-1.1-2.7,0.2-5.8,2.9-6.9l7.4-3L24.3,129c-1-1.3-1.3-2.9-0.9-4.5l18.7-70c0.1-0.4,0.3-0.9,0.5-1.3c0.9-1.6,2.7-2.6,4.5-2.6
			c0.9,0,1.8,0.2,2.6,0.7l63.6,37.1c1.4,0.8,2.3,2.2,2.5,3.7l12.2,82l7.6-3c0.6-0.2,1.3-0.4,1.9-0.4c2.1,0,4,1.3,4.8,3.2l11.1,26.5
			l0.1,0.1c8.8,14.9,17.4,30.9,25.6,47.5l0.6,1.3l1.4-0.2c9.1-1.2,26.7-3.4,29.1-3.7h0.1l0.3,0c0.1,0,0.3-0.1,0.5-0.1l0.1,0l0.1,0
			c4.2-0.9,7.2-4.7,7.2-9v-16.5l-0.7-0.6c-11.2-9.9-19.5-22.6-24.1-36.8l-0.1-0.2l-0.1-0.2c-6.3-10.7-10.3-18.3-13.5-27.2l-0.3-0.9
			l-0.9-0.3c-3-1-5.8-2.6-8.3-4.6c-5.6-4.6-9-11-9.7-18.1c-0.7-7.1,1.4-14.1,6-19.7l0.6-0.8l-0.2-1c-3-12.2-6.4-28.3-5.5-45.2
			c1.2-23.2,13.7-47,39-47.8l0.3,0l25.7-10.1C237.4,2.1,248.6,0,260,0c20.2,0,40.1,6.8,56.1,19.2c1.4,1.1,3,2.4,4.7,3.9
			c11.7,10.6,20.1,24.3,24.2,39.6c3.6,13.3,4.1,27.5,1.3,41l-0.3,1.3l1.1,0.8c7.1,4.7,11.6,12.6,12,21.2
			c0.7,14.8-10.8,27.4-25.7,28.1l-1.4,0.1l-2,6.9l0,0.2c-1.5,22.1-11.5,42.3-28.1,57l-0.7,0.6v16.5c0,4.6,3.4,8.6,8.1,9.1l65.1,8.2
			c24.3,3,42.6,23.8,42.6,48.2v101.2c0,14.8-12.1,26.9-26.9,26.9H350.2z M144.3,361.7c0.3,0,0.6,0,1,0.1l50.6,9.5
			c0.2,0,0.4,0.1,0.6,0.2l148.7,47.3c1.6,0.5,3.3,0.8,5,0.8h40c9.1,0,16.5-7.4,16.5-16.5v-38.7l-212.3-21.2
			c-0.6-0.1-1.2-0.2-1.8-0.5l-41.9-20.9l-37.4,6.2v45.8l29-11.6C142.9,361.8,143.6,361.7,144.3,361.7z M219.1,415.6l0.6,3.9H232
			l-0.6-2.5c-0.2-1-0.5-1.9-0.8-2.9l-0.6-2L219.1,415.6z M113.3,384.9v18.2c0,9.1,7.4,16.5,16.5,16.5h40c1.7,0,3.4-0.3,5-0.8
			l67.9-21.6l-49.2-15.6l-48.8-9.2L113.3,384.9z M321.9,345.4l84.8,8.5v-26l-37.4-6.2L321.9,345.4z M184.6,259.3l1.2,2.5
			c9.5,20.3,18.4,41.2,26.2,62.2l0.1,0.4c1.1,3.1,2.3,6.2,3.5,9.4l0.4,1.2l43.9,4.4l63.6-6.4l42.5-21.3c0.7-0.4,1.5-0.6,2.3-0.6
			c0.3,0,0.6,0,0.9,0.1l37.3,6.2v-15.5c0-19.2-14.4-35.5-33.5-37.9l-60.2-7.6l-0.7,1.1c-4.8,7.4-11,13.5-18.4,18.3
			c-9.8,6.2-21.1,9.5-32.6,9.5c-20.9,0-40.1-10.5-51.3-28.1l-0.7-1.1L184.6,259.3z M151.5,311.1c0.8,0,1.6,0.2,2.3,0.6l42.5,21.3
			l8.2,0.8l-2.3-6.1c-8.9-23.9-19-47.5-30.1-70.3c-7.8-16.1-16.1-31.8-24.6-46.5l-0.9-1.5l-60.1,24.1l0.5,1.7
			c8,29.2,16.4,55.6,25.8,80.7l0.6,1.6l20.5-3.4l-0.9-2.3c-3.4-8.5-6.7-17.3-9.9-26.2l9.8-3.5c3.5,9.8,7.2,19.5,11,28.7l0.6,1.5
			l6.1-1C150.9,311.1,151.2,311.1,151.5,311.1z M229,236.3c0,6.1-2.9,11.9-7.7,15.6l-1.6,1.2l1.2,1.6c2.6,3.4,5.6,6.5,8.9,9.2
			c9,7.2,19.8,11,31.3,11c15.4,0,29.8-6.9,39.4-19l1.4-1.8l-1.9-1.2c-5.7-3.6-9.1-9.8-9.2-16.6v-9.1l-2.9,1.4
			c-8.1,3.9-17.1,6-26.1,6H258c-9,0-18-2.1-26.1-6l-2.9-1.4V236.3z M200.1,142.6v13.9c0,21.8,9.6,42.3,26.4,56.3
			c8.8,7.4,20.1,11.4,31.6,11.4h3.9c11.5,0,22.7-4.1,31.6-11.4c15.5-12.9,25.1-31.9,26.2-52l0-0.1l0-0.2c0.1-1.5,0.1-16.3,0.1-18
			l0-2.2l-2.2,0.2c-0.9,0-25.2,0.1-34.5,0.1c-7.7,0-13.9-6.2-13.9-13.9v-7.8h-18.5v7.8c0,7.7-6.2,13.9-13.9,13.9
			c-9.3,0-33.6,0-34.6-0.1l-2.2-0.2L200.1,142.6z M75.9,206.3l7.2,17.1l58.9-23.5l-7.2-17.2L75.9,206.3z M34.2,124.7l50.4,66.9
			l33.6-13.5l-12.2-82l-48-28l23.3,55.5l1.2,0.1c4.5,0.5,8.3,3.4,10.1,7.6c1.3,3,1.3,6.5,0,9.5c-1.3,3.1-3.8,5.6-6.9,6.8
			c-1.5,0.6-3.1,0.9-4.7,0.9c-5.1,0-9.7-3-11.7-7.7c-1.3-3-1.3-6.5,0-9.5c0.4-1,1-2,1.7-2.9l0.7-0.9L48.3,71.9L34.2,124.7z
			 M330.3,144.7h2c9.1,0,16.5-7.4,16.5-16.5s-7.4-16.5-16.5-16.5h-2V144.7z M187.7,111.7c-9.1,0-16.5,7.4-16.5,16.5
			s7.4,16.5,16.5,16.5h2v-33H187.7z M283.1,111.7c-1.9,0-3.5,1.6-3.5,3.5v11.6c0,1.9,1.6,3.5,3.5,3.5h33.3c1.9,0,3.5-1.6,3.5-3.5
			v-11.6c0-1.9-1.6-3.5-3.5-3.5H283.1z M203.6,111.7c-1.9,0-3.5,1.6-3.5,3.5v11.6c0,1.9,1.6,3.5,3.5,3.5h33.3c1.9,0,3.5-1.6,3.5-3.5
			v-11.6c0-1.9-1.6-3.5-3.5-3.5H203.6z M214.6,58.7c0,13.7-3.1,27.4-9.1,39.7l-1.4,2.9h32.7c4.7,0,9.1,2.4,11.6,6.3l0.6,0.9h21.8
			l0.6-0.9c2.6-4,6.9-6.3,11.6-6.3h33.3c0.4,0,0.8,0,1.3,0.1l2.2,0.2V82.8h-31c-12.2,0-22.1-9.1-31.7-17.8
			c-10.4-9.4-20.1-18.4-32.8-18.4h-9.9V58.7z M202.1,26.8c-20.7,0-29.1,20.4-29.9,37.9c-0.6,10.8,0.6,22.4,3.9,36.6l0.5,2.2l2.1-0.8
			c2.9-1,5.9-1.5,9-1.5h4.4l0.6-1c7.5-12.6,11.5-26.9,11.5-41.6V41.4c0-2.9,2.3-5.2,5.2-5.2h15.1c16.7,0,29,11.2,39.8,21.1
			c8.5,7.8,16.5,15.1,24.7,15.1h36.2c2.9,0,5.2,2.3,5.2,5.2v23.7h2c0.7,0,1.3,0,2.1,0.1l1.8,0.1l0.3-1.8
			c4.5-25.9-4.2-52.2-22.7-68.8c-1.5-1.4-2.9-2.5-4.1-3.4c-14.2-11-31.8-17.1-49.7-17.1c-10.1,0-20,1.9-29.5,5.6L204,26.4
			C203.4,26.6,202.8,26.8,202.1,26.8L202.1,26.8z"/>
		<path class="st0" d="M246.1,184c-4.6,0-9.2-0.3-13.8-0.8l1.6-10.3c4.1,0.5,8.2,0.7,12.2,0.7c1.9,0,3.9-0.1,5.8-0.2
			c0.9,0,4.2-0.1,8.1-0.1c3.9,0,7.2,0,8.1,0.1c1.9,0.1,3.9,0.2,5.8,0.2c4.1,0,8.2-0.2,12.2-0.7l1.6,10.3c-4.3,0.5-8.6,0.8-12.9,0.8
			l-0.8,0c-2.2,0-4.4-0.1-6.5-0.2c-1.1-0.1-4.7-0.1-7.6-0.1c-2.8,0-6.5,0-7.6,0.1C250.3,184,248.2,184,246.1,184L246.1,184z"/>
		<path class="st0" d="M117,267.8c-1.1-3.4-2.2-6.7-3.3-10.1l10-3.1c1,3.3,2.1,6.6,3.2,9.9L117,267.8z"/>
	</g>
</g>
</svg>
