<svg width="1305" height="401" viewBox="0 0 1305 401" fill="none" xmlns="http://www.w3.org/2000/svg">
<path d="M6.4501 232.182C5.63452 231.89 4.93182 231.348 4.44189 230.633C3.95196 229.919 3.69974 229.068 3.72109 228.202L9.30161 148.397C9.31104 148.028 9.41084 147.668 9.59223 147.347C9.77363 147.026 10.0311 146.755 10.3419 146.557C10.6527 146.359 11.0075 146.24 11.3749 146.211C11.7423 146.182 12.1112 146.244 12.4492 146.391C67.6466 164.125 125.965 137.077 181.161 154.841C181.975 155.135 182.676 155.678 183.165 156.392C183.655 157.106 183.908 157.955 183.89 158.821L178.309 238.626C178.3 238.994 178.2 239.355 178.019 239.676C177.837 239.996 177.58 240.268 177.269 240.466C176.958 240.664 176.603 240.783 176.236 240.811C175.868 240.84 175.5 240.778 175.162 240.631C119.966 222.868 61.6475 249.915 6.4501 232.182Z" fill="#7DDF96"/>
<path d="M180.951 157.833L175.371 237.638C120.176 219.875 61.8568 246.923 6.65937 229.189L12.2399 149.384C67.4373 167.118 125.756 140.07 180.951 157.833ZM181.37 151.848C126.175 134.084 67.8559 161.132 12.6584 143.399C9.413 142.36 6.60329 143.978 6.36961 147.32L0.789088 227.125C0.74657 228.867 1.24903 230.579 2.22635 232.022C3.20368 233.465 4.60711 234.567 6.24083 235.175C61.4355 252.948 119.754 225.9 174.95 243.664C178.195 244.703 181.005 243.085 181.238 239.743L186.819 159.938C186.861 158.195 186.359 156.483 185.382 155.04C184.404 153.597 183.001 152.495 181.367 151.888L181.37 151.848Z" fill="#515979"/>
<path d="M169.811 215.226L172.539 176.211C165.28 174.36 159.765 167.649 160.278 160.317C117.95 154.079 74.2489 167.333 31.9095 161.115C31.3975 168.437 25.0173 173.664 17.8007 171.786L15.0774 210.731C22.326 212.582 27.8413 219.293 27.3286 226.625C69.6666 232.863 113.368 219.609 155.697 225.827C156.203 218.595 162.552 213.375 169.811 215.226Z" fill="#00C853"/>
<path d="M125.138 191.492C123.704 211.992 108.538 229.186 91.1978 230.73C73.8579 232.274 61.0328 216.13 62.4753 195.501C63.9179 174.871 79.0759 157.797 96.4044 156.272C113.733 154.747 126.581 170.852 125.138 191.492Z" fill="#7DDF96"/>
<path d="M50.0015 195.551C49.5571 201.905 44.4086 207.008 38.5378 206.528C32.667 206.047 28.3 200.118 28.7443 193.763C29.1887 187.409 34.2784 183.003 40.1499 183.474C46.0213 183.945 50.4493 189.146 50.0015 195.551Z" fill="#7DDF96"/>
<path d="M158.869 193.229C158.424 199.594 153.335 203.989 147.463 203.519C141.592 203.048 137.166 197.816 137.611 191.442C138.057 185.068 143.204 179.984 149.075 180.465C154.946 180.946 159.314 186.865 158.869 193.229Z" fill="#7DDF96"/>
<path d="M143.959 183.088C143.127 183.331 142.24 183.305 141.424 183.015C140.608 182.725 139.904 182.185 139.412 181.472L97.0182 113.628C96.8093 113.324 96.6781 112.974 96.6363 112.608C96.5945 112.242 96.6432 111.871 96.7783 111.528C96.9134 111.185 97.1306 110.881 97.4109 110.641C97.6913 110.402 98.0261 110.235 98.386 110.156C153.465 92.0581 184.742 35.8886 239.843 17.8251C240.675 17.5836 241.561 17.6098 242.377 17.8997C243.193 18.1897 243.897 18.7288 244.39 19.4409L286.784 87.2848C286.993 87.5884 287.124 87.9387 287.166 88.3049C287.207 88.6711 287.159 89.0419 287.024 89.3848C286.888 89.7278 286.671 90.0323 286.391 90.2716C286.111 90.5108 285.776 90.6776 285.416 90.7572C230.316 108.821 199.038 164.99 143.959 183.088Z" fill="#7DDF96"/>
<path d="M241.433 20.3692L283.826 88.2131C228.731 106.285 197.448 162.446 142.369 180.544L99.9757 112.7C155.055 94.6023 186.338 38.4412 241.433 20.3692ZM238.253 15.2809C183.158 33.3529 151.875 89.514 96.7962 107.611C93.5599 108.679 92.2378 111.639 94.0131 114.48L136.407 182.324C137.396 183.758 138.809 184.848 140.448 185.441C142.087 186.034 143.87 186.101 145.549 185.632C200.649 167.568 231.932 111.407 287.027 93.3353C290.263 92.2681 291.585 89.3077 289.81 86.4667L247.416 18.6229C246.427 17.1883 245.014 16.0984 243.375 15.5054C241.736 14.9124 239.953 14.8458 238.274 15.3148L238.253 15.2809Z" fill="#515979"/>
<path d="M266.154 73.3492L245.429 40.182C238.469 42.9511 230.062 40.7636 226.167 34.5304C188.257 54.3637 160.692 90.7731 122.784 110.629C126.673 116.853 124.585 124.833 117.642 127.555L138.33 160.663C145.282 157.899 153.689 160.087 157.584 166.32C195.503 146.481 223.067 110.072 260.967 90.2217C257.125 84.0734 259.194 76.1183 266.154 73.3492Z" fill="#00C853"/>
<path d="M216.062 80.4062C226.952 97.8336 224.789 120.658 211.668 132.1C198.547 143.541 178.682 138.019 167.724 120.481C156.765 102.944 158.992 80.2206 172.115 68.8014C185.238 57.3822 205.098 62.8601 216.062 80.4062Z" fill="#7DDF96"/>
<path d="M157.661 127.854C161.037 133.256 159.871 140.411 154.839 143.472C149.807 146.534 142.789 144.304 139.414 138.902C136.038 133.5 137.566 126.944 142.593 123.874C147.62 120.804 154.259 122.409 157.661 127.854Z" fill="#7DDF96"/>
<path d="M244.372 61.985C247.753 67.3955 246.22 73.943 241.193 77.0134C236.166 80.0837 229.511 78.4528 226.124 73.0338C222.738 67.6147 223.915 60.4768 228.947 57.415C233.979 54.3531 240.991 56.5745 244.372 61.985Z" fill="#7DDF96"/>
<path d="M198.17 100.006C197.875 100.192 197.525 100.269 197.179 100.225C196.833 100.181 196.514 100.017 196.275 99.7632C196.037 99.509 195.895 99.1797 195.873 98.8318C195.851 98.484 195.95 98.1394 196.155 97.8572C197.85 95.7214 200.13 94.1248 202.717 93.2616C202.907 93.2073 203.105 93.1909 203.301 93.2133C203.498 93.2357 203.687 93.2966 203.86 93.3924C204.033 93.4882 204.185 93.617 204.308 93.7716C204.43 93.9261 204.522 94.1034 204.576 94.2932C204.63 94.483 204.647 94.6816 204.624 94.8778C204.602 95.0739 204.541 95.2638 204.445 95.4364C204.349 95.609 204.221 95.7611 204.066 95.884C203.911 96.0068 203.734 96.098 203.544 96.1523C201.619 96.8281 199.916 98.0187 198.62 99.5947C198.501 99.7626 198.348 99.9029 198.17 100.006Z" fill="#515979"/>
<path d="M199.563 96.329C202.373 94.573 203.228 90.8714 201.472 88.0612C199.716 85.251 196.014 84.3964 193.204 86.1524C190.394 87.9084 189.539 91.61 191.295 94.4202C193.051 97.2304 196.753 98.085 199.563 96.329Z" fill="#515979"/>
<path d="M198.413 91.6585C199.116 91.2195 199.33 90.2941 198.891 89.5916C198.452 88.889 197.526 88.6754 196.824 89.1144C196.121 89.5534 195.907 90.4788 196.346 91.1813C196.785 91.8839 197.711 92.0975 198.413 91.6585Z" fill="white"/>
<path d="M181.765 111.495C181.47 111.678 181.12 111.753 180.776 111.708C180.431 111.662 180.113 111.497 179.876 111.243C179.639 110.989 179.498 110.66 179.476 110.313C179.455 109.966 179.555 109.622 179.759 109.341C181.454 107.205 183.734 105.608 186.321 104.745C186.697 104.655 187.093 104.714 187.427 104.909C187.761 105.104 188.006 105.421 188.112 105.792C188.218 106.164 188.177 106.563 187.996 106.905C187.815 107.246 187.51 107.505 187.143 107.627C185.22 108.309 183.519 109.502 182.224 111.078C182.101 111.247 181.945 111.388 181.765 111.495Z" fill="#515979"/>
<path d="M183.184 107.802C185.994 106.046 186.849 102.344 185.093 99.5341C183.337 96.7239 179.635 95.8693 176.825 97.6253C174.015 99.3813 173.16 103.083 174.916 105.893C176.672 108.703 180.374 109.558 183.184 107.802Z" fill="#515979"/>
<path d="M182.02 103.128C182.723 102.689 182.937 101.764 182.498 101.061C182.059 100.359 181.133 100.145 180.431 100.584C179.728 101.023 179.514 101.949 179.953 102.651C180.392 103.354 181.318 103.567 182.02 103.128Z" fill="white"/>
<path d="M185.529 81.9276C185.938 80.9787 186.523 80.1165 187.255 79.3869C187.967 78.6417 188.793 78.0142 189.701 77.5279C190.649 77.0023 191.69 76.6682 192.766 76.5445C193.862 76.4025 194.976 76.5424 196.003 76.9508C196.216 77.035 196.41 77.1604 196.574 77.32C196.738 77.4796 196.868 77.67 196.958 77.8804C197.048 78.0908 197.095 78.3169 197.097 78.5456C197.099 78.7743 197.055 79.0011 196.969 79.2129C196.807 79.6092 196.503 79.9302 196.115 80.1117L195.768 80.329C195.058 80.666 194.453 80.8674 193.851 81.1493C193.249 81.4312 192.665 81.6664 192.033 82.014L190.166 83.0272C189.515 83.3817 188.845 83.7018 188.16 83.9863L187.766 84.1495C187.557 84.2381 187.331 84.2836 187.103 84.2833C186.876 84.2831 186.65 84.2371 186.441 84.1481C186.231 84.0591 186.042 83.9289 185.883 83.7652C185.725 83.6016 185.601 83.4078 185.519 83.1953C185.356 82.7879 185.359 82.3325 185.529 81.9276Z" fill="#515979"/>
<path d="M176 92.4927C175.515 93.0195 174.867 93.5304 174.32 94.0137L172.733 95.418C172.22 95.8801 171.793 96.3476 171.316 96.8107C170.839 97.2739 170.461 97.7816 169.906 98.3285L169.615 98.6168C169.288 98.9338 168.849 99.109 168.393 99.1043C167.938 99.0997 167.503 98.9157 167.182 98.5922C166.877 98.2848 166.699 97.873 166.686 97.4399C166.66 96.3259 166.922 95.224 167.446 94.2409C167.928 93.2795 168.595 92.4223 169.408 91.7183C170.185 91.0381 171.067 90.487 172.02 90.0862C172.97 89.6611 173.994 89.4219 175.034 89.3816C175.347 89.3963 175.649 89.4971 175.908 89.6728C176.167 89.8485 176.373 90.0922 176.502 90.3773C176.632 90.6623 176.68 90.9775 176.641 91.2881C176.603 91.5987 176.48 91.8927 176.285 92.1377L176 92.4927Z" fill="#515979"/>
<path d="M197.882 112.944C194.413 115.138 190.509 116.552 186.439 117.088C185.912 117.153 185.381 117.006 184.962 116.679C184.544 116.353 184.272 115.873 184.207 115.346C184.142 114.819 184.289 114.288 184.616 113.869C184.942 113.451 185.422 113.179 185.949 113.114C193.618 112.178 201.217 106.863 204.012 100.506C204.229 100.026 204.626 99.6513 205.117 99.4622C205.608 99.2732 206.154 99.2853 206.636 99.4959C207.118 99.7065 207.498 100.099 207.693 100.587C207.888 101.076 207.882 101.622 207.678 102.107C205.557 106.609 202.148 110.38 197.882 112.944Z" fill="#515979"/>
<path d="M197.614 117.723C198.954 117.266 200.227 116.63 201.396 115.831C201.975 115.432 202.521 114.988 203.031 114.503C203.546 114.035 204.012 113.515 204.419 112.951C204.596 112.713 204.847 112.54 205.133 112.461C205.419 112.381 205.723 112.4 205.997 112.513C206.271 112.626 206.499 112.828 206.646 113.086C206.792 113.344 206.848 113.644 206.804 113.937L206.646 114.968C206.49 115.859 206.114 116.698 205.553 117.408C205.019 118.08 204.377 118.66 203.655 119.125C203.297 119.36 202.924 119.569 202.537 119.752C202.138 119.908 201.728 120.034 201.311 120.129C200.473 120.402 199.588 120.501 198.711 120.422L197.817 120.331C197.455 120.291 197.124 120.108 196.896 119.825C196.668 119.541 196.561 119.179 196.599 118.817C196.647 118.557 196.768 118.316 196.947 118.122C197.127 117.928 197.358 117.79 197.614 117.723Z" fill="#515979"/>
<path d="M589.355 358.203C588.622 358.666 587.762 358.886 586.898 358.832C586.033 358.778 585.207 358.453 584.538 357.903L525.086 304.373C524.802 304.139 524.579 303.838 524.438 303.498C524.297 303.157 524.242 302.787 524.277 302.42C524.312 302.053 524.437 301.701 524.641 301.394C524.844 301.086 525.12 300.834 525.444 300.658C573.401 268.08 587.992 205.472 635.971 172.913C636.705 172.454 637.564 172.235 638.428 172.289C639.292 172.343 640.117 172.666 640.788 173.213L700.24 226.744C700.524 226.978 700.747 227.279 700.888 227.619C701.029 227.959 701.084 228.329 701.049 228.696C701.014 229.063 700.889 229.416 700.685 229.723C700.482 230.03 700.206 230.283 699.882 230.459C651.902 263.017 637.312 325.625 589.355 358.203Z" fill="#7DDF96"/>
<path d="M638.201 174.921L697.652 228.451C649.673 261.009 635.082 323.617 587.125 356.196L527.674 302.665C575.631 270.087 590.221 207.479 638.201 174.921ZM633.742 170.906C585.763 203.464 571.172 266.072 523.215 298.651C520.398 300.568 519.943 303.779 522.433 306.02L581.884 359.551C583.231 360.657 584.89 361.315 586.628 361.433C588.367 361.552 590.1 361.124 591.584 360.211C639.571 327.659 654.162 265.051 702.141 232.493C704.958 230.575 705.413 227.365 702.923 225.123L643.472 171.593C642.125 170.486 640.466 169.828 638.727 169.71C636.988 169.592 635.256 170.019 633.772 170.933L633.742 170.906Z" fill="#515979"/>
<path d="M676.568 219.034L647.504 192.864C641.576 197.445 632.892 197.659 627.43 192.741C596.455 222.256 579.994 264.852 549.027 294.388C554.482 299.299 554.673 307.545 548.75 312.076L577.763 338.199C583.683 333.626 592.367 333.411 597.83 338.329C628.811 308.807 645.272 266.211 676.233 236.683C670.845 231.832 670.641 223.614 676.568 219.034Z" fill="#00C853"/>
<path d="M630.362 239.625C645.633 253.376 649.845 275.912 640.386 290.527C630.928 305.142 610.31 305.309 594.942 291.471C579.574 277.634 575.451 255.177 584.918 240.583C594.385 225.989 614.986 225.781 630.362 239.625Z" fill="#7DDF96"/>
<path d="M587.302 301.332C592.035 305.594 592.887 312.793 588.894 317.123C584.901 321.454 577.54 321.245 572.806 316.982C568.072 312.72 567.734 305.997 571.72 301.66C575.706 297.323 582.531 297.036 587.302 301.332Z" fill="#7DDF96"/>
<path d="M652.498 214.114C657.239 218.383 657.57 225.1 653.584 229.437C649.598 233.774 642.751 234.04 638.002 229.765C633.253 225.489 632.417 218.303 636.41 213.973C640.403 209.643 647.756 209.845 652.498 214.114Z" fill="#7DDF96"/>
<path d="M1063.45 292.182C1062.63 291.89 1061.93 291.348 1061.44 290.633C1060.95 289.919 1060.7 289.068 1060.72 288.202L1066.3 208.397C1066.31 208.028 1066.41 207.668 1066.59 207.347C1066.77 207.026 1067.03 206.755 1067.34 206.557C1067.65 206.359 1068.01 206.24 1068.37 206.211C1068.74 206.182 1069.11 206.244 1069.45 206.391C1124.65 224.125 1182.97 197.077 1238.16 214.841C1238.97 215.135 1239.68 215.678 1240.17 216.392C1240.65 217.106 1240.91 217.955 1240.89 218.821L1235.31 298.626C1235.3 298.994 1235.2 299.355 1235.02 299.676C1234.84 299.996 1234.58 300.268 1234.27 300.466C1233.96 300.664 1233.6 300.782 1233.24 300.811C1232.87 300.84 1232.5 300.778 1232.16 300.631C1176.97 282.868 1118.65 309.915 1063.45 292.182Z" fill="#7DDF96"/>
<path d="M1237.95 217.833L1232.37 297.638C1177.18 279.875 1118.86 306.923 1063.66 289.189L1069.24 209.384C1124.44 227.118 1182.76 200.07 1237.95 217.833ZM1238.37 211.848C1183.17 194.084 1124.86 221.132 1069.66 203.399C1066.41 202.36 1063.6 203.978 1063.37 207.319L1057.79 287.125C1057.75 288.867 1058.25 290.579 1059.23 292.022C1060.2 293.465 1061.61 294.567 1063.24 295.174C1118.44 312.948 1176.75 285.9 1231.95 303.664C1235.2 304.703 1238 303.085 1238.24 299.743L1243.82 219.938C1243.86 218.195 1243.36 216.483 1242.38 215.04C1241.4 213.597 1240 212.495 1238.37 211.888L1238.37 211.848Z" fill="#515979"/>
<path d="M1226.81 275.226L1229.54 236.211C1222.28 234.36 1216.77 227.649 1217.28 220.317C1174.95 214.079 1131.25 227.333 1088.91 221.115C1088.4 228.437 1082.02 233.664 1074.8 231.786L1072.08 270.731C1079.33 272.581 1084.84 279.293 1084.33 286.625C1126.67 292.863 1170.37 279.609 1212.7 285.827C1213.2 278.595 1219.55 273.375 1226.81 275.226Z" fill="#00C853"/>
<path d="M1182.14 251.492C1180.7 271.992 1165.54 289.186 1148.2 290.73C1130.86 292.274 1118.03 276.13 1119.48 255.501C1120.92 234.871 1136.08 217.797 1153.4 216.272C1170.73 214.747 1183.58 230.852 1182.14 251.492Z" fill="#7DDF96"/>
<path d="M1107 255.551C1106.56 261.905 1101.41 267.008 1095.54 266.528C1089.67 266.047 1085.3 260.118 1085.74 253.763C1086.19 247.409 1091.28 243.003 1097.15 243.474C1103.02 243.945 1107.45 249.146 1107 255.551Z" fill="#7DDF96"/>
<path d="M1215.87 253.229C1215.42 259.594 1210.33 263.989 1204.46 263.519C1198.59 263.048 1194.17 257.816 1194.61 251.442C1195.06 245.068 1200.2 239.984 1206.08 240.465C1211.95 240.946 1216.31 246.865 1215.87 253.229Z" fill="#7DDF96"/>
<path d="M1113.16 357.547C1112.39 357.144 1111.77 356.509 1111.38 355.734C1111 354.958 1110.87 354.08 1111.01 353.226L1127.64 274.974C1127.7 274.61 1127.85 274.267 1128.07 273.975C1128.3 273.682 1128.59 273.449 1128.93 273.296C1129.26 273.144 1129.63 273.075 1130 273.098C1130.37 273.121 1130.72 273.233 1131.04 273.426C1183.23 298.669 1244.75 279.991 1296.93 305.273C1297.7 305.677 1298.32 306.312 1298.7 307.087C1299.09 307.863 1299.22 308.74 1299.08 309.594L1282.45 387.846C1282.39 388.21 1282.24 388.553 1282.01 388.845C1281.79 389.138 1281.5 389.371 1281.16 389.523C1280.82 389.676 1280.46 389.744 1280.09 389.722C1279.72 389.699 1279.36 389.587 1279.05 389.394C1226.87 364.112 1165.35 382.79 1113.16 357.547Z" fill="#7DDF96"/>
<path d="M1296.31 308.208L1279.67 386.459C1227.49 361.187 1165.97 379.855 1113.78 354.612L1130.41 276.36C1182.61 301.603 1244.12 282.935 1296.31 308.208ZM1297.55 302.339C1245.37 277.066 1183.85 295.734 1131.66 270.491C1128.59 269.011 1125.58 270.222 1124.89 273.499L1108.25 351.751C1107.97 353.47 1108.23 355.236 1109 356.801C1109.76 358.366 1111 359.652 1112.53 360.481C1164.72 385.763 1226.23 367.095 1278.42 392.367C1281.49 393.848 1284.49 392.637 1285.19 389.36L1301.82 311.108C1302.11 309.389 1301.85 307.623 1301.08 306.058C1300.32 304.493 1299.08 303.206 1297.55 302.378L1297.55 302.339Z" fill="#515979"/>
<path d="M1277.29 363.491L1285.42 325.236C1278.49 322.393 1273.96 314.979 1275.49 307.79C1234.44 295.722 1189.32 302.765 1148.26 290.714C1146.73 297.894 1139.69 302.183 1132.8 299.319L1124.68 337.506C1131.61 340.347 1136.13 347.76 1134.6 354.949C1175.66 367.019 1220.78 359.977 1261.84 372.025C1263.34 364.933 1270.36 360.648 1277.29 363.491Z" fill="#00C853"/>
<path d="M1236.35 333.771C1232.08 353.872 1214.67 368.788 1197.28 367.904C1179.9 367.019 1169.44 349.248 1173.74 329.02C1178.04 308.791 1195.43 293.993 1212.8 294.895C1230.17 295.796 1240.65 313.533 1236.35 333.771Z" fill="#7DDF96"/>
<path d="M1161.38 327.333C1160.06 333.564 1154.25 337.901 1148.5 336.608C1142.76 335.315 1139.26 328.836 1140.58 322.605C1141.9 316.374 1147.56 312.72 1153.31 314.003C1159.06 315.286 1162.72 321.053 1161.38 327.333Z" fill="#7DDF96"/>
<path d="M1269.51 340.186C1268.19 346.426 1262.53 350.071 1256.79 348.788C1251.04 347.504 1247.38 341.708 1248.71 335.457C1250.04 329.207 1255.84 324.889 1261.59 326.183C1267.34 327.476 1270.84 333.945 1269.51 340.186Z" fill="#7DDF96"/>
<path d="M1209.87 335.441C1209.52 335.37 1209.22 335.182 1209 334.91C1208.78 334.638 1208.67 334.299 1208.67 333.95C1208.68 333.602 1208.8 333.266 1209.03 333C1209.25 332.735 1209.57 332.556 1209.91 332.495C1212.61 332.137 1215.36 332.572 1217.82 333.748C1218 333.84 1218.15 333.967 1218.28 334.119C1218.4 334.271 1218.5 334.447 1218.55 334.636C1218.61 334.825 1218.63 335.023 1218.61 335.22C1218.59 335.416 1218.54 335.607 1218.44 335.781C1218.35 335.955 1218.22 336.11 1218.07 336.235C1217.92 336.361 1217.74 336.455 1217.55 336.513C1217.37 336.57 1217.17 336.59 1216.97 336.571C1216.77 336.552 1216.58 336.495 1216.41 336.402C1214.55 335.551 1212.5 335.224 1210.48 335.458C1210.27 335.496 1210.07 335.49 1209.87 335.441Z" fill="#515979"/>
<path d="M1213.42 333.763C1216.66 334.452 1219.85 332.383 1220.54 329.142C1221.23 325.901 1219.16 322.715 1215.92 322.026C1212.68 321.337 1209.49 323.406 1208.8 326.647C1208.11 329.888 1210.18 333.074 1213.42 333.763Z" fill="#515979"/>
<path d="M1215.84 329.605C1216.65 329.777 1217.45 329.26 1217.62 328.45C1217.79 327.639 1217.27 326.843 1216.46 326.671C1215.65 326.498 1214.86 327.016 1214.68 327.826C1214.51 328.636 1215.03 329.433 1215.84 329.605Z" fill="white"/>
<path d="M1190.08 332.309C1189.74 332.236 1189.44 332.047 1189.22 331.775C1189.01 331.502 1188.89 331.164 1188.9 330.816C1188.91 330.468 1189.03 330.134 1189.26 329.869C1189.48 329.605 1189.8 329.427 1190.14 329.366C1192.84 329.007 1195.59 329.442 1198.05 330.619C1198.38 330.815 1198.63 331.133 1198.73 331.505C1198.84 331.877 1198.79 332.275 1198.61 332.616C1198.43 332.958 1198.12 333.215 1197.76 333.336C1197.39 333.456 1196.99 333.43 1196.64 333.263C1194.78 332.417 1192.73 332.094 1190.7 332.329C1190.5 332.364 1190.29 332.357 1190.08 332.309Z" fill="#515979"/>
<path d="M1193.67 330.638C1196.91 331.327 1200.1 329.258 1200.79 326.017C1201.48 322.776 1199.41 319.59 1196.17 318.901C1192.92 318.212 1189.74 320.281 1189.05 323.522C1188.36 326.763 1190.43 329.949 1193.67 330.638Z" fill="#515979"/>
<path d="M1196.08 326.468C1196.89 326.641 1197.69 326.123 1197.86 325.313C1198.03 324.503 1197.51 323.706 1196.7 323.534C1195.89 323.362 1195.1 323.879 1194.92 324.689C1194.75 325.5 1195.27 326.296 1196.08 326.468Z" fill="white"/>
<path d="M1213.33 313.655C1214.28 313.256 1215.3 313.043 1216.34 313.026C1217.37 312.985 1218.4 313.107 1219.39 313.389C1220.44 313.669 1221.42 314.151 1222.28 314.81C1223.16 315.469 1223.87 316.344 1224.32 317.351C1224.42 317.559 1224.47 317.784 1224.48 318.013C1224.48 318.242 1224.45 318.469 1224.36 318.683C1224.28 318.897 1224.16 319.092 1224 319.258C1223.84 319.424 1223.66 319.557 1223.45 319.649C1223.05 319.822 1222.61 319.841 1222.21 319.703L1221.81 319.617C1221.06 319.367 1220.49 319.092 1219.86 318.876C1219.23 318.661 1218.65 318.424 1217.95 318.235L1215.9 317.667C1215.19 317.47 1214.48 317.235 1213.79 316.963L1213.4 316.808C1213.18 316.726 1212.99 316.602 1212.83 316.443C1212.66 316.285 1212.53 316.095 1212.44 315.886C1212.36 315.676 1212.31 315.451 1212.31 315.223C1212.31 314.995 1212.35 314.77 1212.44 314.56C1212.61 314.154 1212.93 313.828 1213.33 313.655Z" fill="#515979"/>
<path d="M1199.14 314.635C1198.42 314.678 1197.6 314.595 1196.87 314.563L1194.76 314.471C1194.07 314.447 1193.43 314.486 1192.77 314.488C1192.1 314.49 1191.48 314.592 1190.7 314.6L1190.29 314.605C1189.83 314.606 1189.4 314.427 1189.07 314.107C1188.75 313.788 1188.56 313.353 1188.56 312.898C1188.55 312.464 1188.71 312.045 1189 311.724C1189.76 310.905 1190.71 310.294 1191.77 309.951C1192.78 309.594 1193.86 309.441 1194.93 309.499C1195.97 309.55 1196.98 309.766 1197.95 310.139C1198.92 310.494 1199.83 311.033 1200.6 311.727C1200.82 311.954 1200.97 312.237 1201.03 312.543C1201.09 312.85 1201.07 313.168 1200.97 313.463C1200.86 313.758 1200.68 314.018 1200.44 314.214C1200.19 314.411 1199.9 314.537 1199.59 314.578L1199.14 314.635Z" fill="#515979"/>
<path d="M1200.67 344.548C1196.65 343.716 1192.86 342.021 1189.56 339.58C1189.14 339.26 1188.86 338.785 1188.78 338.26C1188.71 337.734 1188.85 337.2 1189.17 336.776C1189.49 336.352 1189.96 336.072 1190.49 335.997C1191.01 335.923 1191.55 336.061 1191.97 336.38C1198.14 341.034 1207.29 342.49 1213.72 339.859C1214.21 339.664 1214.76 339.67 1215.24 339.875C1215.73 340.08 1216.11 340.468 1216.31 340.955C1216.51 341.441 1216.51 341.987 1216.31 342.474C1216.11 342.961 1215.73 343.35 1215.25 343.557C1210.59 345.322 1205.52 345.667 1200.67 344.548Z" fill="#515979"/>
<path d="M1197.16 347.799C1198.44 348.401 1199.8 348.827 1201.19 349.065C1201.89 349.18 1202.59 349.24 1203.29 349.245C1203.99 349.267 1204.68 349.217 1205.37 349.094C1205.66 349.045 1205.96 349.095 1206.22 349.237C1206.48 349.378 1206.69 349.603 1206.81 349.875C1206.93 350.147 1206.95 350.45 1206.88 350.738C1206.8 351.025 1206.63 351.279 1206.4 351.46L1205.57 352.091C1204.84 352.624 1203.99 352.966 1203.09 353.087C1202.24 353.2 1201.37 353.171 1200.53 353.003C1200.11 352.924 1199.7 352.816 1199.29 352.679C1198.9 352.513 1198.51 352.319 1198.15 352.098C1197.35 351.712 1196.65 351.169 1196.07 350.502L1195.49 349.816C1195.26 349.536 1195.15 349.175 1195.18 348.812C1195.22 348.45 1195.39 348.115 1195.67 347.881C1195.88 347.727 1196.14 347.637 1196.4 347.623C1196.67 347.608 1196.93 347.669 1197.16 347.799Z" fill="#515979"/>
<path d="M763.471 317.024C762.607 317.088 761.745 316.879 761.007 316.426C760.268 315.972 759.692 315.298 759.359 314.498L731.998 239.322C731.856 238.982 731.801 238.612 731.836 238.245C731.871 237.878 731.996 237.526 732.2 237.218C732.403 236.911 732.679 236.658 733.003 236.482C733.327 236.307 733.689 236.213 734.057 236.21C791.696 229.96 833.971 181.53 891.62 175.308C892.483 175.246 893.344 175.457 894.082 175.91C894.819 176.363 895.396 177.036 895.732 177.834L923.093 253.009C923.234 253.35 923.29 253.72 923.255 254.086C923.22 254.453 923.095 254.806 922.891 255.113C922.688 255.421 922.412 255.673 922.088 255.849C921.764 256.025 921.402 256.118 921.033 256.121C863.385 262.344 821.109 310.773 763.471 317.024Z" fill="#7DDF96"/>
<path d="M892.646 178.127L920.007 253.302C862.359 259.524 820.083 307.954 762.445 314.205L735.083 239.029C792.722 232.779 834.997 184.349 892.646 178.127ZM890.594 172.489C832.945 178.711 790.67 227.141 733.031 233.391C729.644 233.762 727.735 236.383 728.881 239.531L756.243 314.706C756.912 316.315 758.068 317.675 759.548 318.596C761.027 319.517 762.758 319.953 764.497 319.843C822.149 313.63 864.425 265.2 922.073 258.978C925.461 258.607 927.369 255.986 926.224 252.838L898.862 177.663C898.192 176.054 897.037 174.694 895.557 173.773C894.077 172.852 892.347 172.416 890.607 172.526L890.594 172.489Z" fill="#515979"/>
<path d="M905.812 235.089L892.436 198.338C885.052 199.599 877.284 195.712 874.77 188.805C833.564 200.323 799.032 230.205 757.824 241.745C760.334 248.643 756.632 256.013 749.275 257.233L762.628 293.919C770.002 292.661 777.77 296.548 780.284 303.455C821.499 291.934 856.031 262.051 897.23 250.514C894.751 243.702 898.428 236.351 905.812 235.089Z" fill="#00C853"/>
<path d="M855.347 231.577C862.376 250.888 855.514 272.764 840.301 281.227C825.089 289.691 806.806 280.159 799.733 260.726C792.66 241.293 799.563 219.53 814.773 211.089C829.983 202.647 848.271 212.135 855.347 231.577Z" fill="#7DDF96"/>
<path d="M788.358 265.845C790.537 271.831 787.909 278.587 782.35 280.536C776.791 282.485 770.39 278.845 768.212 272.859C766.033 266.873 768.891 260.778 774.446 258.82C780.001 256.862 786.162 259.813 788.358 265.845Z" fill="#7DDF96"/>
<path d="M886.869 219.444C889.051 225.44 886.19 231.525 880.634 233.483C875.079 235.442 868.908 232.462 866.723 226.458C864.537 220.453 867.172 213.716 872.73 211.767C878.289 209.818 884.687 213.449 886.869 219.444Z" fill="#7DDF96"/>
<path d="M831.501 243.481C831.018 243.657 830.487 243.641 830.016 243.436C829.545 243.231 829.171 242.853 828.971 242.38C828.349 240.913 828.334 239.259 828.931 237.781C829.528 236.304 830.687 235.124 832.154 234.501C833.621 233.878 835.275 233.864 836.752 234.461C838.23 235.057 839.41 236.217 840.032 237.683C840.135 237.925 840.189 238.185 840.192 238.448C840.194 238.711 840.144 238.972 840.046 239.216C839.947 239.46 839.802 239.682 839.617 239.87C839.433 240.057 839.214 240.207 838.972 240.31C838.729 240.412 838.47 240.466 838.207 240.469C837.944 240.471 837.683 240.422 837.439 240.323C837.195 240.225 836.973 240.079 836.785 239.895C836.598 239.71 836.448 239.491 836.345 239.249C836.13 238.778 835.741 238.408 835.259 238.218C834.777 238.029 834.24 238.033 833.761 238.231C833.274 238.439 832.889 238.832 832.69 239.323C832.591 239.566 832.539 239.827 832.54 240.089C832.541 240.352 832.593 240.612 832.694 240.854C832.901 241.342 832.905 241.892 832.707 242.383C832.509 242.874 832.124 243.267 831.637 243.474L831.501 243.481Z" fill="#515979"/>
<path d="M813.091 251.288C812.61 251.464 812.08 251.449 811.61 251.246C811.14 251.043 810.766 250.667 810.565 250.196C810.256 249.47 810.094 248.69 810.087 247.901C810.08 247.111 810.229 246.329 810.525 245.597C810.821 244.865 811.259 244.2 811.813 243.637C812.367 243.075 813.026 242.628 813.754 242.321C814.479 242.012 815.259 241.85 816.047 241.843C816.835 241.835 817.618 241.984 818.349 242.279C819.08 242.574 819.746 243.011 820.308 243.563C820.87 244.116 821.318 244.774 821.626 245.5C821.833 245.989 821.838 246.541 821.639 247.033C821.44 247.526 821.054 247.919 820.565 248.126C820.076 248.334 819.525 248.339 819.032 248.14C818.54 247.941 818.146 247.555 817.939 247.066C817.836 246.824 817.686 246.604 817.498 246.42C817.31 246.236 817.087 246.091 816.843 245.993C816.599 245.895 816.338 245.846 816.075 245.849C815.811 245.852 815.551 245.907 815.31 246.011C815.066 246.113 814.846 246.263 814.66 246.451C814.475 246.639 814.328 246.861 814.23 247.106C814.131 247.351 814.081 247.613 814.084 247.877C814.087 248.141 814.142 248.401 814.246 248.644C814.452 249.132 814.457 249.681 814.259 250.172C814.06 250.664 813.675 251.056 813.188 251.264L813.091 251.288Z" fill="#515979"/>
<path d="M825.82 228.107C826.486 227.314 827.298 226.657 828.212 226.172C829.116 225.672 830.093 225.317 831.107 225.118C832.156 224.907 833.235 224.897 834.288 225.088C835.383 225.269 836.413 225.73 837.276 226.427C837.536 226.637 837.728 226.919 837.83 227.237C837.933 227.554 837.94 227.895 837.852 228.217C837.764 228.539 837.584 228.829 837.334 229.05C837.084 229.272 836.775 229.416 836.445 229.465L836.042 229.526C835.263 229.639 834.628 229.647 833.991 229.741C833.355 229.834 832.699 229.902 832.032 230.028L829.939 230.449C829.205 230.625 828.463 230.76 827.714 230.855L827.282 230.895C826.944 230.932 826.602 230.867 826.302 230.707C826.002 230.548 825.757 230.301 825.599 230C825.441 229.699 825.377 229.357 825.417 229.019C825.456 228.682 825.597 228.364 825.82 228.107Z" fill="#515979"/>
<path d="M814.198 236.583C813.604 237.047 812.988 237.481 812.351 237.883L810.597 239.086C810.038 239.48 809.553 239.902 809.026 240.296C808.499 240.69 808.05 241.151 807.389 241.647L807.073 241.89C806.894 242.028 806.69 242.129 806.472 242.188C806.254 242.247 806.026 242.262 805.802 242.233C805.578 242.204 805.362 242.131 805.166 242.018C804.97 241.905 804.798 241.755 804.661 241.576C804.393 241.236 804.266 240.805 804.308 240.374C804.407 239.272 804.788 238.213 805.414 237.301C806.019 236.404 806.788 235.63 807.68 235.018C808.527 234.43 809.463 233.982 810.452 233.689C811.44 233.374 812.48 233.252 813.514 233.331C813.85 233.355 814.17 233.478 814.436 233.685C814.701 233.891 814.899 234.172 815.005 234.491C815.111 234.81 815.12 235.153 815.031 235.477C814.941 235.802 814.758 236.092 814.504 236.312L814.198 236.583Z" fill="#515979"/>
<path d="M833.617 264.675C830.368 265.86 826.787 265.75 823.617 264.369C820.446 262.988 817.927 260.44 816.582 257.254C816.503 257.073 816.461 256.878 816.458 256.68C816.455 256.482 816.492 256.286 816.566 256.103C816.64 255.919 816.749 255.752 816.888 255.612C817.028 255.471 817.193 255.36 817.376 255.284L839.497 245.891C839.858 245.759 840.256 245.771 840.609 245.924C840.962 246.077 841.242 246.359 841.393 246.713C842.794 250.004 842.831 253.716 841.497 257.035C840.163 260.354 837.567 263.008 834.278 264.414C834.052 264.496 833.827 264.578 833.61 264.657L833.617 264.675Z" fill="#515979"/>
<path d="M840.051 247.297C840.668 248.747 840.993 250.305 841.008 251.881C841.023 253.457 840.727 255.021 840.138 256.482C839.548 257.944 838.676 259.275 837.572 260.4C836.468 261.525 835.153 262.421 833.702 263.037L833.101 263.256C830.211 264.313 827.027 264.219 824.205 262.994C821.382 261.77 819.138 259.508 817.936 256.676L840.057 247.284L840.051 247.297ZM839.031 244.465L838.881 244.519L816.756 253.903C816.023 254.221 815.445 254.814 815.143 255.554C814.997 255.92 814.924 256.311 814.928 256.706C814.933 257.101 815.016 257.49 815.171 257.853C816.675 261.392 819.48 264.218 823.008 265.748C826.535 267.278 830.515 267.396 834.127 266.075L834.869 265.805C836.683 265.036 838.327 263.917 839.708 262.513C841.089 261.108 842.18 259.446 842.919 257.619C843.658 255.793 844.029 253.839 844.013 251.87C843.996 249.9 843.592 247.953 842.823 246.139C842.523 245.429 841.962 244.862 841.256 244.554C840.55 244.247 839.752 244.223 839.029 244.487L839.031 244.465Z" fill="#515979"/>
<path d="M833.771 263.329C838.321 261.411 841.313 258.203 840.453 256.165C839.594 254.127 835.209 254.03 830.659 255.948C826.108 257.867 823.116 261.075 823.976 263.113C824.835 265.151 829.22 265.248 833.771 263.329Z" fill="#EF7D7D"/>
<path d="M1010.06 238.957C1008.23 239.482 1006.27 239.258 1004.6 238.336C1002.94 237.413 1001.71 235.868 1001.19 234.039L949.78 54.7588C949.255 52.93 949.479 50.9679 950.401 49.3039C951.323 47.64 952.869 46.4107 954.697 45.8863L1074.87 11.4282C1075.65 11.2043 1076.49 11.3007 1077.2 11.6963L1107.62 28.559C1108.34 28.9537 1108.86 29.6155 1109.09 30.3988L1154.85 189.978C1155.37 191.806 1155.15 193.769 1154.23 195.433C1153.3 197.096 1151.76 198.326 1149.93 198.85L1010.06 238.957Z" fill="white"/>
<path d="M1075.71 14.3836L1106.13 31.2463L1151.89 190.825C1152.19 191.87 1152.06 192.992 1151.54 193.942C1151.01 194.893 1150.13 195.596 1149.08 195.895L1009.21 236.002C1008.17 236.302 1007.05 236.174 1006.1 235.647C1005.14 235.12 1004.44 234.237 1004.14 233.192L952.735 53.9117C952.435 52.8667 952.563 51.7454 953.09 50.7946C953.617 49.8438 954.5 49.1413 955.545 48.8417L1075.71 14.3836ZM1074.02 8.47329L953.85 42.9314C951.238 43.6805 949.03 45.4367 947.712 47.8137C946.395 50.1907 946.075 52.9938 946.825 55.6064L998.232 234.886C998.981 237.499 1000.74 239.707 1003.11 241.025C1005.49 242.342 1008.29 242.662 1010.91 241.913L1150.78 201.806C1153.39 201.057 1155.6 199.3 1156.91 196.923C1158.23 194.546 1158.55 191.743 1157.8 189.131L1112.04 29.5517C1111.59 27.9851 1110.54 26.6616 1109.11 25.8721L1078.69 9.00943C1077.27 8.21822 1075.59 8.02537 1074.02 8.47329V8.47329Z" fill="#515979"/>
<path d="M1088.07 39.6241C1086.03 40.2056 1083.85 39.9552 1081.99 38.9278C1080.14 37.9004 1078.77 36.18 1078.18 34.1438L1072.76 15.2307C1072.59 14.6467 1072.6 14.0262 1072.79 13.4475C1072.97 12.8689 1073.32 12.3581 1073.8 11.9796C1074.11 11.7245 1074.48 11.5368 1074.87 11.4282C1075.65 11.2042 1076.49 11.3007 1077.2 11.6963L1107.62 28.559C1108.15 28.8539 1108.59 29.2996 1108.86 29.8399C1109.14 30.3802 1109.25 30.9907 1109.18 31.5945C1109.12 32.1982 1108.87 32.768 1108.48 33.232C1108.09 33.696 1107.56 34.0332 1106.98 34.2012L1088.07 39.6241Z" fill="#D8EBFB"/>
<path d="M1075.71 14.3836L1106.13 31.2463L1087.22 36.6692C1086.6 36.8472 1085.95 36.9012 1085.31 36.8281C1084.67 36.7549 1084.05 36.5561 1083.48 36.2429C1082.92 35.9298 1082.42 35.5084 1082.02 35.0029C1081.61 34.4973 1081.32 33.9176 1081.14 33.2966L1075.71 14.3836ZM1074.02 8.47325C1072.45 8.9227 1071.13 9.97644 1070.34 11.4026C1069.55 12.8289 1069.35 14.5107 1069.8 16.0782L1075.23 34.9913C1076.04 37.8113 1077.94 40.1941 1080.5 41.6168C1083.07 43.0394 1086.09 43.3857 1088.92 42.5795L1107.83 37.1566C1109 36.8206 1110.04 36.1461 1110.82 35.2182C1111.61 34.2902 1112.1 33.1506 1112.24 31.9431C1112.37 30.7356 1112.15 29.5145 1111.59 28.434C1111.04 27.3534 1110.17 26.4619 1109.11 25.8721L1078.69 9.00938C1077.27 8.21817 1075.59 8.02533 1074.02 8.47325V8.47325Z" fill="#515979"/>
<path d="M1113.67 113.302L995.473 147.195C993.841 147.663 992.897 149.366 993.365 150.998C993.833 152.63 995.536 153.573 997.168 153.105L1115.37 119.212C1117 118.744 1117.94 117.042 1117.47 115.41C1117.01 113.778 1115.3 112.834 1113.67 113.302Z" fill="#515979"/>
<path d="M1101.3 129.642L998.863 159.016C997.231 159.484 996.287 161.186 996.755 162.818C997.223 164.45 998.925 165.394 1000.56 164.926L1103 135.552C1104.63 135.084 1105.57 133.382 1105.1 131.75C1104.64 130.118 1102.93 129.174 1101.3 129.642Z" fill="#7DDF96"/>
<path d="M1075.14 149.936L1002.25 170.837C1000.62 171.305 999.676 173.007 1000.14 174.639C1000.61 176.271 1002.31 177.215 1003.95 176.747L1076.84 155.846C1078.47 155.378 1079.41 153.676 1078.94 152.044C1078.48 150.412 1076.77 149.468 1075.14 149.936Z" fill="#FFD886"/>
<path d="M1124.97 152.704L1006.77 186.598C1005.14 187.066 1004.2 188.768 1004.66 190.4C1005.13 192.032 1006.83 192.976 1008.47 192.508L1126.67 158.614C1128.3 158.147 1129.24 156.444 1128.77 154.812C1128.31 153.18 1126.6 152.237 1124.97 152.704Z" fill="#515979"/>
<path d="M1114.57 168.479L1010.16 198.418C1008.53 198.886 1007.59 200.589 1008.05 202.221C1008.52 203.853 1010.22 204.796 1011.86 204.328L1116.27 174.389C1117.9 173.921 1118.84 172.219 1118.37 170.587C1117.9 168.955 1116.2 168.011 1114.57 168.479Z" fill="#7DDF96"/>
<path d="M1102.2 184.819L1013.55 210.239C1011.92 210.707 1010.97 212.409 1011.44 214.041C1011.91 215.673 1013.61 216.617 1015.25 216.149L1103.89 190.729C1105.53 190.261 1106.47 188.559 1106 186.927C1105.53 185.295 1103.83 184.351 1102.2 184.819Z" fill="#515979"/>
<path d="M1060.53 76.6764C1059.88 76.8637 1059.18 76.7838 1058.58 76.4544C1057.99 76.1251 1057.55 75.5731 1057.36 74.92C1057.1 74.0057 1056.49 73.2329 1055.65 72.7718C1054.82 72.3107 1053.84 72.1989 1052.93 72.4611C1052.01 72.7233 1051.24 73.3379 1050.78 74.1698C1050.32 75.0018 1050.21 75.9828 1050.47 76.8971C1050.65 77.5502 1050.57 78.2509 1050.25 78.8452C1049.92 79.4394 1049.36 79.8784 1048.71 80.0657C1048.06 80.253 1047.36 80.1731 1046.76 79.8438C1046.17 79.5144 1045.73 78.9624 1045.54 78.3093C1044.91 76.0888 1045.18 73.7063 1046.3 71.6859C1047.42 69.6656 1049.29 68.1728 1051.51 67.5361C1053.73 66.8994 1056.12 67.1708 1058.14 68.2907C1060.16 69.4106 1061.65 71.2873 1062.29 73.5078C1062.47 74.1609 1062.39 74.8616 1062.07 75.4559C1061.74 76.0501 1061.18 76.4891 1060.53 76.6764Z" fill="#515979"/>
<path d="M1042.97 59.5178C1043.43 58.8382 1043.96 58.2154 1044.57 57.6626C1045.13 57.119 1045.75 56.6345 1046.41 56.2167C1047.8 55.3324 1049.34 54.7364 1050.96 54.4642C1051.39 54.3956 1051.81 54.352 1052.24 54.3335C1052.67 54.3261 1053.1 54.3412 1053.53 54.3562C1053.97 54.4025 1054.39 54.4716 1054.82 54.5633C1055.24 54.6298 1055.66 54.7465 1056.06 54.9112C1057.62 55.461 1059.01 56.4283 1060.06 57.7084C1060.37 58.0273 1060.56 58.4376 1060.62 58.8776C1060.67 59.3175 1060.58 59.7635 1060.36 60.1485C1060.14 60.5335 1059.81 60.8368 1059.4 61.0128C1058.99 61.1889 1058.54 61.2282 1058.11 61.1249L1057.68 61.0451C1056.66 60.796 1055.63 60.608 1054.59 60.4822C1053.68 60.387 1052.76 60.4101 1051.86 60.5509C1050.86 60.698 1049.89 60.9388 1048.94 61.2701C1048.43 61.417 1047.91 61.6286 1047.39 61.8431C1046.86 62.0575 1046.3 62.3156 1045.83 62.4484L1045.23 62.6207C1044.71 62.7705 1044.15 62.7066 1043.67 62.4431C1043.2 62.1796 1042.85 61.738 1042.7 61.2156C1042.62 60.9299 1042.6 60.6302 1042.65 60.337C1042.69 60.0439 1042.8 59.7644 1042.97 59.5178Z" fill="#515979"/>
<path d="M1032.95 84.5848C1032.3 84.7721 1031.6 84.6922 1031 84.3629C1030.41 84.0335 1029.97 83.4815 1029.78 82.8284C1029.52 81.9141 1028.91 81.1414 1028.07 80.6802C1027.24 80.2191 1026.26 80.1073 1025.35 80.3695C1024.43 80.6317 1023.66 81.2463 1023.2 82.0783C1022.74 82.9102 1022.63 83.8912 1022.89 84.8055C1023.07 85.4586 1022.99 86.1594 1022.67 86.7536C1022.34 87.3478 1021.78 87.7869 1021.13 87.9741C1020.48 88.1614 1019.78 88.0816 1019.18 87.7522C1018.59 87.4228 1018.15 86.8708 1017.96 86.2177C1017.33 83.9972 1017.6 81.6147 1018.72 79.5943C1019.84 77.574 1021.71 76.0812 1023.93 75.4445C1026.15 74.8078 1028.54 75.0792 1030.56 76.1992C1032.58 77.3191 1034.07 79.1957 1034.71 81.4162C1034.89 82.0693 1034.81 82.77 1034.49 83.3643C1034.16 83.9585 1033.6 84.3975 1032.95 84.5848Z" fill="#515979"/>
<path d="M1026.09 68.1085C1025.63 68.2413 1024.99 68.308 1024.46 68.4183C1023.92 68.5286 1023.36 68.6375 1022.84 68.7549C1021.86 68.9759 1020.9 69.2893 1019.98 69.6908C1019.14 70.0455 1018.35 70.5126 1017.63 71.0794C1016.81 71.7379 1016.04 72.4446 1015.31 73.1957L1014.99 73.4874C1014.68 73.8077 1014.28 74.0183 1013.84 74.0872C1013.4 74.1561 1012.95 74.0796 1012.55 73.8693C1012.16 73.659 1011.85 73.3263 1011.66 72.9217C1011.47 72.5171 1011.42 72.0626 1011.52 71.6271C1011.73 69.9836 1012.39 68.4302 1013.43 67.1353C1013.68 66.7846 1013.97 66.465 1014.3 66.183C1014.61 65.8803 1014.93 65.5944 1015.28 65.3263C1015.63 65.0853 1015.99 64.8442 1016.36 64.6201C1016.72 64.4148 1017.09 64.2302 1017.47 64.0673C1018.99 63.4377 1020.63 63.1221 1022.27 63.1394C1023.05 63.1424 1023.84 63.2256 1024.6 63.3877C1025.41 63.5359 1026.19 63.7794 1026.94 64.1132C1027.32 64.2864 1027.64 64.5713 1027.85 64.9299C1028.07 65.2885 1028.16 65.7037 1028.14 66.1199C1028.11 66.5361 1027.95 66.9336 1027.69 67.2592C1027.43 67.5847 1027.08 67.8229 1026.68 67.9419L1026.09 68.1085Z" fill="#515979"/>
<path d="M1001.19 96.5162C1002.55 96.1262 1003.34 94.7076 1002.95 93.3476C1002.56 91.9876 1001.14 91.2013 999.783 91.5912C998.423 91.9812 997.636 93.3998 998.026 94.7598C998.416 96.1198 999.835 96.9062 1001.19 96.5162Z" fill="#FDE1D9"/>
<path d="M1009.72 105.798C1011.08 105.408 1011.87 103.99 1011.48 102.63C1011.09 101.27 1009.67 100.483 1008.31 100.873C1006.95 101.263 1006.16 102.682 1006.55 104.042C1006.94 105.402 1008.36 106.188 1009.72 105.798Z" fill="#FDE1D9"/>
<path d="M998.884 108.905C1000.24 108.515 1001.03 107.097 1000.64 105.737C1000.25 104.377 998.832 103.59 997.472 103.98C996.112 104.37 995.326 105.789 995.716 107.149C996.106 108.509 997.524 109.295 998.884 108.905Z" fill="#FDE1D9"/>
<path d="M1081.96 73.3559C1083.32 72.9659 1084.11 71.5473 1083.72 70.1873C1083.33 68.8273 1081.91 68.0409 1080.55 68.4309C1079.19 68.8209 1078.41 70.2395 1078.8 71.5995C1079.19 72.9595 1080.6 73.7458 1081.96 73.3559Z" fill="#FDE1D9"/>
<path d="M1090.49 82.638C1091.85 82.2481 1092.64 80.8294 1092.25 79.4694C1091.86 78.1094 1090.44 77.3231 1089.08 77.7131C1087.72 78.103 1086.93 79.5217 1087.32 80.8817C1087.71 82.2416 1089.13 83.028 1090.49 82.638Z" fill="#FDE1D9"/>
<path d="M1079.65 85.7449C1081.01 85.3549 1081.8 83.9363 1081.41 82.5763C1081.02 81.2163 1079.6 80.43 1078.24 80.8199C1076.88 81.2099 1076.1 82.6285 1076.49 83.9885C1076.88 85.3485 1078.29 86.1349 1079.65 85.7449Z" fill="#FDE1D9"/>
<path d="M1049.91 113.995C1044.56 115.523 1038.81 114.864 1033.94 112.164C1029.07 109.464 1025.47 104.943 1023.93 99.5919C1023.74 98.9388 1023.82 98.238 1024.15 97.6437C1024.48 97.0495 1025.03 96.6104 1025.69 96.4232L1061.15 86.2552C1061.8 86.0679 1062.5 86.1478 1063.09 86.4772C1063.69 86.8066 1064.13 87.3586 1064.31 88.0117C1065.84 93.3673 1065.18 99.1098 1062.48 103.981C1059.78 108.851 1055.26 112.453 1049.91 113.995Z" fill="#515979"/>
<path d="M1061.85 88.7179C1063.2 93.4204 1062.63 98.466 1060.25 102.745C1057.88 107.023 1053.91 110.184 1049.21 111.533C1044.5 112.881 1039.46 112.306 1035.18 109.934C1030.9 107.563 1027.74 103.588 1026.39 98.8858L1061.85 88.7179ZM1060.44 83.7926L1024.98 93.9605C1023.67 94.3351 1022.57 95.2132 1021.91 96.4017C1021.25 97.5902 1021.09 98.9918 1021.47 100.298C1022.31 103.277 1023.73 106.06 1025.65 108.49C1027.56 110.92 1029.94 112.948 1032.64 114.46C1038.1 117.512 1044.54 118.272 1050.56 116.572C1056.57 114.873 1061.66 110.853 1064.72 105.398C1067.77 99.9428 1068.53 93.4985 1066.83 87.483L1066.78 87.3056C1066.4 85.9994 1065.52 84.8954 1064.34 84.2366C1063.15 83.5777 1061.75 83.418 1060.44 83.7926Z" fill="#515979"/>
<path d="M1049.21 111.532C1056.49 109.443 1061.64 105.104 1060.7 101.84C1059.76 98.5762 1053.1 97.6235 1045.82 99.7122C1038.53 101.801 1033.39 106.14 1034.32 109.404C1035.26 112.668 1041.92 113.621 1049.21 111.532Z" fill="#EF7D7D"/>
<path d="M229.332 292.925C227.491 292.533 225.881 291.427 224.856 289.848C223.831 288.27 223.475 286.349 223.866 284.508L262.225 104.044C262.617 102.203 263.723 100.593 265.302 99.5679C266.88 98.5429 268.801 98.1869 270.642 98.5782L391.612 124.291C392.401 124.46 393.09 124.934 393.529 125.611L412.268 154.467C412.708 155.143 412.861 155.965 412.694 156.754L378.55 317.387C378.159 319.228 377.053 320.838 375.474 321.863C373.896 322.888 371.975 323.244 370.134 322.853L229.332 292.925Z" fill="white"/>
<path d="M390.98 127.266L409.719 156.122L375.576 316.755C375.352 317.807 374.72 318.727 373.818 319.313C372.916 319.899 371.818 320.102 370.766 319.878L229.964 289.95C228.912 289.726 227.992 289.094 227.407 288.192C226.821 287.29 226.617 286.193 226.841 285.141L265.2 104.676C265.424 103.624 266.056 102.704 266.958 102.118C267.86 101.533 268.957 101.329 270.009 101.553L390.98 127.266ZM392.245 121.317L271.274 95.6035C268.644 95.0445 265.9 95.5531 263.645 97.0174C261.39 98.4817 259.81 100.782 259.251 103.412L220.892 283.876C220.333 286.506 220.841 289.25 222.306 291.505C223.77 293.76 226.07 295.34 228.7 295.899L369.502 325.828C372.132 326.387 374.876 325.878 377.13 324.414C379.385 322.95 380.966 320.65 381.525 318.02L415.669 157.386C416.003 155.809 415.696 154.163 414.817 152.811L396.078 123.955C395.201 122.602 393.822 121.653 392.245 121.317V121.317Z" fill="#515979"/>
<path d="M390.049 155.05C387.999 154.611 386.207 153.378 385.065 151.62C383.923 149.862 383.526 147.723 383.959 145.672L388.005 126.634C388.131 126.046 388.427 125.508 388.857 125.089C389.288 124.669 389.833 124.387 390.424 124.277C390.817 124.2 391.221 124.205 391.612 124.291C392.401 124.46 393.09 124.934 393.529 125.611L412.268 154.467C412.595 154.971 412.766 155.561 412.758 156.162C412.75 156.763 412.564 157.348 412.223 157.843C411.883 158.339 411.403 158.722 410.845 158.945C410.287 159.168 409.675 159.221 409.087 159.097L390.049 155.05Z" fill="#D8EBFB"/>
<path d="M390.98 127.266L409.719 156.122L390.681 152.075C390.056 151.942 389.463 151.688 388.937 151.326C388.41 150.964 387.96 150.502 387.612 149.966C387.264 149.43 387.025 148.831 386.909 148.202C386.792 147.574 386.801 146.929 386.933 146.304L390.98 127.266ZM392.245 121.317C390.667 120.981 389.02 121.286 387.667 122.165C386.315 123.044 385.366 124.424 385.031 126.001L380.984 145.04C380.383 147.879 380.934 150.842 382.515 153.276C384.096 155.711 386.578 157.418 389.417 158.025L408.455 162.071C409.631 162.32 410.854 162.215 411.971 161.769C413.087 161.323 414.046 160.556 414.727 159.565C415.408 158.574 415.78 157.404 415.796 156.202C415.812 155 415.471 153.82 414.817 152.811L396.078 123.955C395.2 122.602 393.822 121.653 392.245 121.317V121.317Z" fill="#515979"/>
<path d="M350.221 175.188C349.875 175.12 349.551 174.966 349.28 174.739C348.278 174.009 347.133 173.498 345.92 173.24C344.707 172.982 343.453 172.983 342.24 173.243C341.724 173.394 341.169 173.334 340.697 173.077C340.225 172.819 339.875 172.384 339.724 171.868C339.572 171.352 339.632 170.797 339.89 170.326C340.148 169.854 340.582 169.503 341.098 169.352C342.957 168.908 344.892 168.884 346.761 169.281C348.631 169.678 350.388 170.487 351.906 171.649C352.254 171.944 352.492 172.348 352.582 172.795C352.672 173.241 352.609 173.706 352.403 174.112C352.196 174.519 351.859 174.844 351.445 175.035C351.032 175.227 350.565 175.273 350.122 175.167L350.221 175.188Z" fill="#515979"/>
<path d="M346.339 171.513C350.72 172.444 355.026 169.647 355.957 165.266C356.889 160.885 354.092 156.579 349.711 155.648C345.33 154.716 341.024 157.513 340.092 161.894C339.161 166.275 341.958 170.581 346.339 171.513Z" fill="#515979"/>
<path d="M349.587 165.985C350.682 166.218 351.758 165.518 351.991 164.423C352.224 163.328 351.525 162.251 350.43 162.019C349.334 161.786 348.258 162.485 348.025 163.58C347.792 164.675 348.491 165.752 349.587 165.985Z" fill="white"/>
<path d="M346.919 140.213C347.634 139.832 348.393 139.538 349.178 139.336C349.923 139.123 350.688 138.987 351.461 138.93C353.084 138.799 354.716 138.998 356.26 139.515C356.66 139.651 357.052 139.81 357.433 139.992C357.816 140.188 358.186 140.401 358.555 140.614C358.91 140.855 359.253 141.115 359.581 141.392C359.922 141.648 360.232 141.943 360.503 142.272C361.614 143.478 362.373 144.966 362.698 146.573C362.819 146.994 362.8 147.444 362.643 147.854C362.487 148.264 362.202 148.612 361.831 148.846C361.46 149.08 361.023 149.188 360.586 149.152C360.149 149.117 359.735 148.941 359.406 148.651L359.07 148.382C358.295 147.691 357.48 147.047 356.629 146.454C355.882 145.944 355.069 145.538 354.212 145.246C353.277 144.913 352.312 144.67 351.33 144.519C350.815 144.41 350.267 144.355 349.709 144.299C349.151 144.242 348.537 144.205 348.071 144.106L347.466 143.978C346.94 143.866 346.48 143.55 346.187 143.099C345.894 142.648 345.792 142.099 345.904 141.573C345.965 141.287 346.087 141.017 346.262 140.782C346.437 140.547 346.661 140.353 346.919 140.213Z" fill="#515979"/>
<path d="M316.508 168.022C316.161 167.957 315.836 167.802 315.567 167.573C314.563 166.842 313.417 166.331 312.202 166.073C310.987 165.815 309.732 165.815 308.517 166.075C308.011 166.196 307.477 166.118 307.027 165.856C306.577 165.594 306.244 165.17 306.099 164.67C305.953 164.17 306.006 163.633 306.245 163.171C306.484 162.708 306.893 162.356 307.385 162.186C309.242 161.742 311.175 161.717 313.043 162.114C314.911 162.511 316.667 163.32 318.183 164.481C318.526 164.773 318.763 165.171 318.855 165.611C318.947 166.052 318.89 166.511 318.692 166.916C318.494 167.321 318.167 167.648 317.763 167.847C317.359 168.045 316.9 168.103 316.459 168.011L316.508 168.022Z" fill="#515979"/>
<path d="M312.626 164.347C317.007 165.278 321.313 162.481 322.244 158.1C323.175 153.719 320.379 149.413 315.998 148.482C311.617 147.55 307.31 150.347 306.379 154.728C305.448 159.109 308.245 163.415 312.626 164.347Z" fill="#515979"/>
<path d="M315.873 158.819C316.969 159.052 318.045 158.352 318.278 157.257C318.511 156.162 317.812 155.085 316.716 154.853C315.621 154.62 314.545 155.319 314.312 156.414C314.079 157.509 314.778 158.586 315.873 158.819Z" fill="white"/>
<path d="M322.24 138.616C321.774 138.517 321.183 138.277 320.666 138.126C320.149 137.974 319.604 137.807 319.095 137.667C318.137 137.406 317.156 137.235 316.166 137.159C315.265 137.077 314.357 137.118 313.467 137.279C312.448 137.475 311.441 137.732 310.453 138.048L310.046 138.159C309.783 138.231 309.509 138.25 309.239 138.214C308.968 138.178 308.708 138.088 308.473 137.949C308.239 137.81 308.035 137.626 307.873 137.406C307.712 137.186 307.596 136.936 307.533 136.671C307.464 136.371 307.462 136.059 307.526 135.758C307.59 135.456 307.719 135.172 307.904 134.926C308.855 133.59 310.153 132.54 311.659 131.89C312.04 131.7 312.443 131.556 312.859 131.461C313.271 131.341 313.69 131.243 314.113 131.168C314.537 131.123 314.961 131.078 315.391 131.056C315.79 131.042 316.189 131.051 316.587 131.082C318.207 131.238 319.779 131.72 321.209 132.5C321.892 132.866 322.535 133.302 323.129 133.799C323.765 134.303 324.338 134.881 324.837 135.52C325.088 135.847 325.233 136.244 325.252 136.656C325.272 137.068 325.166 137.477 324.947 137.827C324.728 138.177 324.408 138.452 324.029 138.615C323.65 138.778 323.23 138.822 322.825 138.74L322.24 138.616Z" fill="#515979"/>
<path d="M318.596 219.144C313.209 217.991 308.499 214.749 305.499 210.128C302.498 205.508 301.452 199.887 302.59 194.496C302.73 193.839 303.125 193.264 303.689 192.898C304.252 192.532 304.938 192.404 305.596 192.544L341.292 200.132C341.949 200.271 342.524 200.667 342.891 201.23C343.257 201.794 343.384 202.48 343.244 203.138C342.091 208.525 338.849 213.234 334.228 216.235C329.608 219.235 323.987 220.281 318.596 219.144Z" fill="#515979"/>
<path d="M340.765 202.611C339.759 207.344 336.914 211.484 332.855 214.12C328.796 216.756 323.857 217.671 319.123 216.665C314.39 215.659 310.25 212.813 307.614 208.755C304.978 204.696 304.063 199.757 305.069 195.023L340.765 202.611ZM341.819 197.653L306.123 190.065C304.808 189.786 303.436 190.04 302.308 190.772C301.181 191.504 300.391 192.654 300.111 193.969C299.463 196.962 299.41 200.053 299.956 203.065C300.503 206.078 301.637 208.954 303.294 211.528C306.642 216.727 311.918 220.384 317.961 221.693C324.005 223.002 330.321 221.857 335.52 218.51C340.719 215.162 344.376 209.886 345.685 203.843L345.723 203.664C346.002 202.35 345.748 200.977 345.016 199.85C344.284 198.723 343.134 197.932 341.819 197.653Z" fill="#515979"/>
<path d="M319.123 216.665C326.456 218.224 332.966 216.824 333.665 213.538C334.363 210.252 328.985 206.325 321.652 204.766C314.32 203.208 307.809 204.608 307.111 207.894C306.412 211.179 311.791 215.106 319.123 216.665Z" fill="#EF7D7D"/>
<path d="M354.436 206.553C353.018 206.25 351.726 205.52 350.736 204.46C349.399 205.023 347.923 205.164 346.505 204.862C345.087 204.561 343.795 203.832 342.803 202.774C341.467 203.337 339.99 203.478 338.572 203.176C337.154 202.875 335.862 202.146 334.871 201.088C333.534 201.651 332.058 201.792 330.64 201.49C329.221 201.189 327.93 200.46 326.938 199.402C325.602 199.965 324.125 200.105 322.707 199.804C321.289 199.502 319.997 198.774 319.006 197.716C317.669 198.279 316.193 198.419 314.775 198.118C313.356 197.816 312.065 197.088 311.073 196.03C309.737 196.593 308.26 196.733 306.842 196.432C305.424 196.13 304.132 195.402 303.141 194.344C301.804 194.907 300.328 195.047 298.91 194.746C297.491 194.444 296.2 193.716 295.208 192.658C294.014 193.161 292.704 193.328 291.422 193.139C290.139 192.951 288.933 192.415 287.933 191.59C286.934 190.764 286.18 189.681 285.753 188.457C285.326 187.233 285.242 185.916 285.511 184.648C286.461 180.177 289.148 176.267 292.981 173.778C296.814 171.288 301.48 170.424 305.95 171.374L321.815 174.746C323.929 175.195 325.866 176.251 327.387 177.786C329.401 177.003 331.6 176.826 333.714 177.276L349.579 180.648C354.05 181.598 357.96 184.285 360.449 188.118C362.938 191.952 363.803 196.617 362.853 201.087C362.461 202.928 361.355 204.538 359.776 205.563C358.198 206.588 356.277 206.944 354.436 206.553Z" fill="#9E8271"/>
<path d="M348.947 183.622C352.628 184.405 355.848 186.618 357.898 189.775C359.948 192.932 360.66 196.773 359.878 200.455C359.654 201.507 359.022 202.427 358.12 203.013C357.218 203.598 356.12 203.802 355.069 203.578C354.017 203.355 353.097 202.722 352.511 201.82C351.925 200.918 351.722 199.821 351.945 198.769C351.722 199.821 351.089 200.741 350.188 201.327C349.286 201.912 348.188 202.116 347.136 201.892C346.084 201.669 345.164 201.036 344.578 200.134C343.993 199.232 343.789 198.135 344.013 197.083C343.789 198.135 343.157 199.055 342.255 199.64C341.353 200.226 340.255 200.43 339.204 200.206C338.152 199.982 337.232 199.35 336.646 198.448C336.06 197.546 335.857 196.449 336.08 195.397C335.857 196.449 335.224 197.369 334.323 197.954C333.421 198.54 332.323 198.743 331.271 198.52C330.219 198.296 329.299 197.664 328.713 196.762C328.128 195.86 327.924 194.763 328.148 193.711C327.924 194.763 327.292 195.683 326.39 196.268C325.488 196.854 324.39 197.057 323.339 196.834C322.287 196.61 321.367 195.978 320.781 195.076C320.195 194.174 319.992 193.076 320.215 192.024C319.992 193.076 319.359 193.996 318.458 194.582C317.556 195.168 316.458 195.371 315.406 195.148C314.354 194.924 313.434 194.292 312.848 193.39C312.263 192.488 312.059 191.39 312.283 190.338C312.059 191.39 311.427 192.31 310.525 192.896C309.623 193.482 308.525 193.685 307.473 193.462C306.422 193.238 305.502 192.606 304.916 191.704C304.33 190.802 304.127 189.704 304.35 188.652C304.127 189.704 303.494 190.624 302.592 191.21C301.691 191.796 300.593 191.999 299.541 191.775C298.489 191.552 297.569 190.92 296.983 190.018C296.398 189.116 296.194 188.018 296.418 186.966C296.194 188.018 295.562 188.938 294.66 189.524C293.758 190.11 292.66 190.313 291.608 190.089C290.557 189.866 289.637 189.233 289.051 188.332C288.465 187.43 288.262 186.332 288.485 185.28C289.268 181.598 291.481 178.378 294.638 176.328C297.794 174.278 301.636 173.566 305.318 174.349L321.183 177.721C322.309 177.962 323.371 178.44 324.298 179.123C325.225 179.806 325.995 180.679 326.559 181.683C327.482 180.995 328.541 180.511 329.666 180.264C330.791 180.017 331.955 180.012 333.082 180.25L348.947 183.622ZM350.211 177.673L334.346 174.301C332.287 173.862 330.156 173.89 328.11 174.385C326.442 173.101 324.507 172.208 322.447 171.772L306.582 168.399C301.323 167.282 295.835 168.299 291.325 171.227C286.815 174.156 283.654 178.756 282.536 184.015C282.185 185.662 282.25 187.37 282.724 188.986C283.199 190.601 284.069 192.073 285.254 193.268C286.44 194.463 287.905 195.344 289.517 195.831C291.128 196.319 292.836 196.397 294.485 196.059C295.621 196.868 296.912 197.435 298.276 197.725C299.641 198.015 301.05 198.022 302.418 197.745C303.554 198.554 304.844 199.121 306.209 199.411C307.573 199.701 308.983 199.708 310.35 199.431C311.486 200.24 312.777 200.807 314.141 201.097C315.506 201.387 316.915 201.394 318.283 201.117C319.419 201.926 320.709 202.493 322.074 202.783C323.438 203.074 324.848 203.08 326.215 202.803C327.351 203.612 328.642 204.18 330.006 204.47C331.371 204.76 332.78 204.766 334.148 204.489C335.284 205.299 336.574 205.866 337.939 206.156C339.303 206.446 340.713 206.452 342.08 206.175C343.216 206.985 344.507 207.552 345.871 207.842C347.236 208.132 348.645 208.139 350.013 207.862C351.382 208.841 352.974 209.464 354.644 209.675C356.315 209.885 358.011 209.676 359.581 209.066C361.15 208.457 362.543 207.466 363.633 206.183C364.724 204.901 365.478 203.367 365.827 201.72C366.945 196.46 365.928 190.972 362.999 186.462C360.071 181.953 355.471 178.791 350.211 177.673Z" fill="#515979"/>
<path d="M337.086 161.41C336.297 161.243 335.607 160.769 335.168 160.092C334.729 159.416 334.576 158.592 334.744 157.803C334.911 157.015 334.759 156.191 334.32 155.515C333.88 154.838 333.19 154.364 332.401 154.197C331.612 154.029 330.789 154.181 330.113 154.621C329.436 155.06 328.962 155.75 328.794 156.539C328.627 157.328 328.152 158.018 327.476 158.457C326.8 158.896 325.976 159.049 325.187 158.881C324.398 158.714 323.708 158.239 323.269 157.563C322.83 156.886 322.677 156.063 322.845 155.274C323.348 152.908 324.771 150.837 326.8 149.52C328.829 148.202 331.299 147.744 333.666 148.247C336.033 148.75 338.103 150.173 339.421 152.202C340.739 154.232 341.196 156.701 340.693 159.068C340.525 159.857 340.051 160.547 339.375 160.986C338.698 161.426 337.875 161.578 337.086 161.41Z" fill="#515979"/>
<path d="M363.054 151.385L378.919 154.757C379.971 154.98 380.891 155.613 381.476 156.515C382.062 157.417 382.265 158.514 382.042 159.566C381.818 160.618 381.186 161.538 380.284 162.124C379.382 162.71 378.284 162.913 377.233 162.689L361.367 159.317L363.054 151.385Z" fill="#515979"/>
<path d="M351.773 180.078C347.828 179.239 344.378 176.868 342.182 173.486C339.985 170.104 339.222 165.987 340.061 162.043L341.115 157.085C341.338 156.033 341.971 155.113 342.872 154.527C343.774 153.942 344.872 153.738 345.924 153.962L367.738 158.599C368.79 158.822 369.71 159.454 370.296 160.356C370.882 161.258 371.085 162.356 370.862 163.408L369.808 168.366C368.969 172.31 366.598 175.76 363.216 177.957C359.834 180.153 355.718 180.916 351.773 180.078Z" fill="#75A5C3"/>
<path d="M289.678 135.788L305.543 139.16L303.857 147.093L287.992 143.721C286.94 143.497 286.02 142.865 285.434 141.963C284.848 141.061 284.645 139.963 284.869 138.911C285.092 137.859 285.724 136.939 286.626 136.354C287.528 135.768 288.626 135.565 289.678 135.788Z" fill="#515979"/>
<path d="M304.178 169.961C300.233 169.123 296.783 166.751 294.587 163.369C292.39 159.987 291.627 155.871 292.466 151.926L293.52 146.968C293.743 145.916 294.375 144.996 295.277 144.411C296.179 143.825 297.277 143.622 298.329 143.845L320.143 148.482C321.195 148.706 322.115 149.338 322.701 150.24C323.287 151.142 323.49 152.239 323.267 153.291L322.213 158.249C321.374 162.194 319.003 165.644 315.621 167.84C312.239 170.037 308.122 170.8 304.178 169.961Z" fill="#75A5C3"/>
<g style="mix-blend-mode:overlay" opacity="0.5">
<g style="mix-blend-mode:overlay" opacity="0.5">
<path d="M340.444 179.742L346.394 181.007L362.211 155.351L356.261 154.086L340.444 179.742Z" fill="white"/>
</g>
</g>
<g style="mix-blend-mode:overlay" opacity="0.5">
<g style="mix-blend-mode:overlay" opacity="0.5">
<path d="M349.368 181.639L353.334 182.482L369.151 156.826L365.185 155.983L349.368 181.639Z" fill="white"/>
</g>
</g>
<g style="mix-blend-mode:overlay" opacity="0.5">
<g style="mix-blend-mode:overlay" opacity="0.5">
<path d="M292.849 169.626L298.798 170.89L314.615 145.234L308.666 143.97L292.849 169.626Z" fill="white"/>
</g>
</g>
<g style="mix-blend-mode:overlay" opacity="0.5">
<g style="mix-blend-mode:overlay" opacity="0.5">
<path d="M301.773 171.523L305.739 172.366L321.556 146.71L317.59 145.866L301.773 171.523Z" fill="white"/>
</g>
</g>
<path d="M367.738 158.599C368.79 158.822 369.71 159.454 370.296 160.356C370.882 161.258 371.085 162.356 370.862 163.408L369.808 168.366C368.969 172.31 366.598 175.76 363.216 177.957C359.834 180.153 355.718 180.916 351.773 180.078C347.828 179.239 344.378 176.868 342.182 173.486C339.985 170.104 339.222 165.988 340.061 162.043L341.115 157.085C341.338 156.033 341.971 155.113 342.873 154.527C343.774 153.942 344.872 153.738 345.924 153.962L367.738 158.599ZM369.003 152.649L347.189 148.012C344.559 147.453 341.815 147.962 339.56 149.426C337.305 150.891 335.724 153.191 335.165 155.82L334.111 160.778C332.938 166.301 334.006 172.063 337.081 176.799C340.156 181.534 344.986 184.853 350.508 186.027C356.031 187.201 361.794 186.133 366.529 183.058C371.264 179.983 374.583 175.153 375.757 169.63L376.811 164.672C377.37 162.043 376.861 159.299 375.397 157.044C373.933 154.789 371.633 153.208 369.003 152.649Z" fill="#515979"/>
<path d="M378.286 157.731L376.303 157.31C375.756 157.194 375.217 157.543 375.101 158.091C374.984 158.638 375.334 159.177 375.882 159.293L377.865 159.715C378.412 159.831 378.951 159.481 379.067 158.934C379.184 158.386 378.834 157.848 378.286 157.731Z" fill="#ACC9DB"/>
<path d="M320.143 148.482C321.195 148.705 322.115 149.338 322.701 150.24C323.287 151.142 323.49 152.239 323.267 153.291L322.213 158.249C321.374 162.194 319.003 165.644 315.621 167.84C312.239 170.037 308.122 170.799 304.178 169.961C300.233 169.123 296.783 166.751 294.587 163.369C292.39 159.987 291.627 155.871 292.466 151.926L293.52 146.968C293.743 145.916 294.376 144.996 295.277 144.411C296.179 143.825 297.277 143.621 298.329 143.845L320.143 148.482ZM321.408 142.532L299.593 137.896C296.964 137.337 294.22 137.845 291.965 139.31C289.71 140.774 288.129 143.074 287.57 145.704L286.516 150.662C285.343 156.184 286.411 161.947 289.486 166.682C292.561 171.417 297.391 174.737 302.913 175.91C308.436 177.084 314.198 176.016 318.934 172.941C323.669 169.866 326.988 165.036 328.162 159.514L329.216 154.556C329.775 151.926 329.266 149.182 327.802 146.927C326.338 144.672 324.038 143.091 321.408 142.532Z" fill="#515979"/>
<path d="M291.029 139.184L289.046 138.763C288.498 138.646 287.96 138.996 287.843 139.544C287.727 140.091 288.076 140.63 288.624 140.746L290.607 141.167C291.155 141.284 291.693 140.934 291.81 140.387C291.926 139.839 291.576 139.301 291.029 139.184Z" fill="#ACC9DB"/>
<path d="M375.456 244.184L256.468 218.893C254.825 218.543 253.21 219.592 252.861 221.235C252.512 222.878 253.561 224.493 255.203 224.842L374.191 250.134C375.834 250.483 377.449 249.434 377.798 247.791C378.147 246.148 377.099 244.533 375.456 244.184Z" fill="#515979"/>
<path d="M335.247 248.074L253.939 230.791C252.296 230.442 250.681 231.491 250.332 233.134C249.983 234.777 251.031 236.392 252.674 236.741L333.982 254.023C335.625 254.373 337.24 253.324 337.589 251.681C337.939 250.038 336.89 248.423 335.247 248.074Z" fill="#F89D81"/>
<path d="M369.554 271.948L250.567 246.656C248.924 246.307 247.309 247.356 246.96 248.999C246.61 250.642 247.659 252.257 249.302 252.606L368.29 277.897C369.933 278.247 371.547 277.198 371.897 275.555C372.246 273.912 371.197 272.297 369.554 271.948Z" fill="#515979"/>
<path d="M353.143 280.896L248.037 258.555C246.395 258.206 244.78 259.255 244.43 260.898C244.081 262.54 245.13 264.155 246.773 264.505L351.879 286.846C353.521 287.195 355.136 286.146 355.486 284.503C355.835 282.86 354.786 281.245 353.143 280.896Z" fill="#75A5C3"/>
<path d="M334.749 289.423L245.508 270.454C243.865 270.105 242.25 271.153 241.901 272.796C241.552 274.439 242.601 276.054 244.244 276.403L333.484 295.372C335.127 295.721 336.742 294.673 337.091 293.03C337.441 291.387 336.392 289.772 334.749 289.423Z" fill="#515979"/>
<path d="M264.416 336.119C263.679 335.664 263.105 334.988 262.774 334.187C262.443 333.386 262.374 332.502 262.575 331.659L284.626 254.758C284.711 254.4 284.884 254.068 285.128 253.792C285.372 253.515 285.68 253.304 286.026 253.174C286.371 253.045 286.743 253.003 287.108 253.051C287.473 253.1 287.821 253.237 288.121 253.451C338.426 282.273 401.093 267.942 451.389 296.793C452.124 297.25 452.697 297.927 453.027 298.727C453.358 299.527 453.429 300.41 453.231 301.253L431.18 378.154C431.094 378.513 430.922 378.844 430.678 379.121C430.434 379.397 430.125 379.609 429.78 379.738C429.435 379.867 429.063 379.909 428.698 379.861C428.332 379.813 427.985 379.675 427.685 379.461C377.391 350.601 314.721 364.942 264.416 336.119Z" fill="#7DDF96"/>
<path d="M450.563 299.676L428.512 376.577C378.216 347.726 315.548 362.058 265.243 333.236L287.294 256.335C337.599 285.157 400.267 270.825 450.563 299.676ZM452.216 293.909C401.92 265.058 339.252 279.389 288.948 250.567C285.99 248.876 282.905 249.875 281.982 253.095L259.931 329.996C259.527 331.691 259.662 333.47 260.318 335.085C260.974 336.7 262.118 338.07 263.59 339.003C313.883 367.864 376.551 353.532 426.847 382.383C429.805 384.074 432.89 383.076 433.813 379.856L455.864 302.955C456.268 301.259 456.133 299.48 455.477 297.865C454.821 296.251 453.677 294.881 452.205 293.947L452.216 293.909Z" fill="#515979"/>
<path d="M427.733 353.499L438.513 315.904C431.798 312.584 427.798 304.873 429.824 297.808C389.718 282.906 344.216 286.784 304.095 271.899C302.072 278.954 294.744 282.741 288.076 279.404L277.315 316.931C284.021 320.248 288.02 327.959 285.994 335.025C326.11 349.929 371.611 346.051 411.726 360.924C413.721 353.965 421.018 350.179 427.733 353.499Z" fill="#00C853"/>
<path d="M388.97 320.995C383.306 340.749 364.896 354.414 347.614 352.319C330.332 350.225 321.144 331.767 326.844 311.888C332.544 292.009 350.921 278.46 368.188 280.571C385.455 282.682 394.673 301.107 388.97 320.995Z" fill="#7DDF96"/>
<path d="M314.632 309.344C312.876 315.467 306.779 319.388 301.137 317.697C295.494 316.006 292.455 309.299 294.211 303.176C295.967 297.053 301.861 293.801 307.507 295.483C313.152 297.164 316.402 303.172 314.632 309.344Z" fill="#7DDF96"/>
<path d="M421.603 329.708C419.844 335.84 413.953 339.082 408.307 337.401C402.662 335.72 399.421 329.682 401.182 323.54C402.943 317.397 409.035 313.495 414.677 315.186C420.32 316.877 423.362 323.575 421.603 329.708Z" fill="#7DDF96"/>
<path d="M362.375 320.797C362.041 320.7 361.751 320.49 361.554 320.204C361.358 319.917 361.267 319.571 361.298 319.224C361.328 318.878 361.478 318.553 361.722 318.305C361.965 318.057 362.287 317.901 362.633 317.864C365.354 317.7 368.065 318.325 370.439 319.666C370.771 319.881 371.004 320.219 371.088 320.605C371.172 320.992 371.1 321.396 370.887 321.729C370.674 322.061 370.339 322.295 369.954 322.379C369.569 322.464 369.166 322.392 368.833 322.181C367.042 321.205 365.018 320.736 362.98 320.825C362.779 320.861 362.572 320.852 362.375 320.797Z" fill="#515979"/>
<path d="M366.059 319.377C369.244 320.291 372.567 318.449 373.48 315.264C374.393 312.078 372.552 308.755 369.366 307.842C366.181 306.929 362.858 308.771 361.945 311.956C361.032 315.141 362.873 318.464 366.059 319.377Z" fill="#515979"/>
<path d="M368.751 315.395C369.547 315.623 370.378 315.163 370.606 314.367C370.834 313.57 370.374 312.74 369.578 312.511C368.781 312.283 367.951 312.743 367.722 313.54C367.494 314.336 367.954 315.167 368.751 315.395Z" fill="white"/>
<path d="M342.918 316.31C342.584 316.213 342.294 316.004 342.097 315.717C341.901 315.43 341.81 315.084 341.841 314.737C341.871 314.391 342.021 314.066 342.265 313.818C342.508 313.57 342.83 313.414 343.176 313.377C345.898 313.205 348.611 313.831 350.982 315.179C351.32 315.389 351.561 315.725 351.652 316.113C351.743 316.501 351.676 316.909 351.465 317.247C351.255 317.586 350.919 317.827 350.531 317.917C350.144 318.008 349.735 317.941 349.397 317.731C347.608 316.749 345.583 316.28 343.544 316.375C343.333 316.396 343.12 316.374 342.918 316.31Z" fill="#515979"/>
<path d="M346.563 314.879C349.749 315.793 353.071 313.951 353.985 310.766C354.898 307.58 353.056 304.258 349.871 303.344C346.686 302.431 343.363 304.273 342.45 307.458C341.536 310.643 343.378 313.966 346.563 314.879Z" fill="#515979"/>
<path d="M349.268 310.89C350.064 311.119 350.895 310.658 351.123 309.862C351.351 309.065 350.891 308.235 350.095 308.006C349.298 307.778 348.468 308.239 348.239 309.035C348.011 309.831 348.471 310.662 349.268 310.89Z" fill="white"/>
<path d="M367.361 299.309C368.343 298.98 369.379 298.84 370.413 298.894C371.443 298.929 372.461 299.123 373.432 299.468C374.449 299.829 375.389 300.377 376.204 301.085C377.048 301.803 377.693 302.726 378.078 303.765C378.16 303.978 378.2 304.205 378.194 304.433C378.189 304.661 378.138 304.885 378.045 305.094C377.953 305.302 377.82 305.49 377.654 305.647C377.489 305.804 377.294 305.926 377.081 306.007C376.675 306.151 376.23 306.142 375.83 305.982L375.459 305.823C374.724 305.519 374.179 305.207 373.567 304.948C372.954 304.689 372.386 304.422 371.708 304.175L369.706 303.466C368.983 303.245 368.272 302.986 367.577 302.689L367.183 302.504C366.977 302.407 366.792 302.27 366.64 302.1C366.488 301.931 366.371 301.733 366.297 301.518C366.223 301.302 366.193 301.074 366.209 300.847C366.225 300.62 366.286 300.398 366.389 300.195C366.583 299.783 366.933 299.465 367.361 299.309Z" fill="#515979"/>
<path d="M353.14 299.309C352.424 299.301 351.604 299.149 350.889 299.069L348.774 298.827C348.096 298.757 347.451 298.76 346.8 298.708C346.149 298.657 345.506 298.722 344.728 298.676L344.329 298.655C343.885 298.615 343.473 298.403 343.182 298.065C342.891 297.727 342.742 297.29 342.767 296.844C342.789 296.415 342.976 296.01 343.289 295.714C344.085 294.944 345.067 294.394 346.139 294.118C347.177 293.832 348.26 293.751 349.329 293.878C350.333 294.009 351.311 294.293 352.229 294.72C353.182 295.141 354.045 295.742 354.77 296.489C354.929 296.646 355.055 296.834 355.141 297.04C355.226 297.246 355.271 297.467 355.27 297.691C355.27 297.914 355.226 298.135 355.139 298.341C355.053 298.548 354.927 298.734 354.768 298.891C354.453 299.206 354.028 299.386 353.583 299.394L353.14 299.309Z" fill="#515979"/>
<path d="M351.109 337.883C347.783 336.932 344.951 334.739 343.198 331.757C341.445 328.776 340.904 325.235 341.689 321.866C341.731 321.674 341.811 321.492 341.924 321.331C342.038 321.17 342.182 321.033 342.348 320.928C342.515 320.823 342.701 320.752 342.895 320.719C343.089 320.686 343.288 320.692 343.479 320.736L366.897 326.14C367.264 326.25 367.576 326.494 367.771 326.824C367.966 327.153 368.029 327.545 367.948 327.919C367.147 331.403 364.997 334.428 361.969 336.329C358.941 338.23 355.283 338.853 351.797 338.06C351.566 337.994 351.345 337.93 351.114 337.864L351.109 337.883Z" fill="#515979"/>
<path d="M366.529 327.606C366.175 329.142 365.523 330.593 364.608 331.877C363.694 333.161 362.536 334.252 361.199 335.088C359.863 335.924 358.375 336.488 356.821 336.749C355.267 337.01 353.676 336.962 352.14 336.608L351.525 336.432C348.566 335.588 346.045 333.64 344.482 330.991C342.918 328.341 342.432 325.192 343.124 322.195L366.541 327.599L366.529 327.606ZM367.368 324.715L367.214 324.671L343.8 319.257C343.02 319.085 342.203 319.224 341.524 319.645C341.19 319.855 340.901 320.129 340.673 320.451C340.445 320.773 340.283 321.137 340.196 321.522C339.332 325.268 339.94 329.204 341.895 332.515C343.849 335.826 347 338.261 350.698 339.316L351.457 339.533C353.377 339.977 355.364 340.039 357.307 339.714C359.25 339.39 361.11 338.686 362.781 337.642C364.452 336.599 365.901 335.237 367.046 333.634C368.19 332.03 369.008 330.217 369.451 328.298C369.626 327.548 369.506 326.759 369.115 326.095C368.725 325.431 368.094 324.943 367.353 324.731L367.368 324.715Z" fill="#515979"/>
<path d="M352.012 336.891C356.82 338.014 361.126 337.177 361.629 335.023C362.132 332.869 358.641 330.213 353.832 329.091C349.023 327.969 344.717 328.805 344.215 330.959C343.712 333.113 347.203 335.769 352.012 336.891Z" fill="#EF7D7D"/>
</svg>
