<?xml version="1.0" encoding="utf-8"?>
<!-- Generator: Adobe Illustrator 25.0.1, SVG Export Plug-In . SVG Version: 6.00 Build 0)  -->
<svg version="1.1" id="Layer_1" xmlns="http://www.w3.org/2000/svg" xmlns:xlink="http://www.w3.org/1999/xlink" x="0px" y="0px"
	 viewBox="0 0 609 237.3" style="enable-background:new 0 0 609 237.3;" xml:space="preserve">
<style type="text/css">
	.st0{fill:#F89D81;}
	.st1{fill:#515979;}
	.st2{fill:#75A5C3;}
	.st3{opacity:0.6;}
	.st4{fill:#D8EBFB;}
	.st5{fill:#F7FBFE;}
	.st6{fill:#FFFFFF;}
	.st7{fill:#EF7D7D;}
	.st8{fill:#97E5F9;}
	.st9{opacity:0.7;}
	.st10{fill:#FCC066;}
	.st11{fill:#FDDFB3;}
	.st12{fill:#ACC9DB;}
	.st13{fill:#3E83AB;}
	.st14{fill:#667683;}
	.st15{fill:#A5CEE1;}
</style>
<g>
	<g id="Layer_2_1_">
		<g id="Layer_1-2">
			<g>
				<path class="st0" d="M141.4,161.3c-1,0.1-1.8-0.7-1.9-1.7l-0.5-8.7c-0.2-3.2,1.7-6.2,4.6-7.5c24.5-10.4,21.4-20.7,18.5-30.6
					c-0.8-2.8-1.6-5.4-1.8-8c-0.9-14.3,6.7-21,7.1-21.3c0.6-0.5,1.5-0.6,2.1-0.1c0.4,0.2,8.7,5.9,9.6,20.2c0.2,2.6-0.3,5.3-0.8,8.2
					c-1.7,10.2-3.5,20.8,22,28.2c3.1,0.9,5.3,3.6,5.5,6.8l0.5,8.7c0.1,1-0.7,1.8-1.7,1.9L141.4,161.3z"/>
			</g>
			<g>
				<path class="st1" d="M168.5,84.9c0,0,8,5.3,8.8,18.9c0.7,11.3-11.8,28,22.5,37.9c2.4,0.7,4.1,2.8,4.2,5.3l0.5,8.7l-63.3,3.8
					l-0.5-8.7c-0.2-2.5,1.3-4.8,3.6-5.8c32.9-14,18.4-29.1,17.8-40.4C161.2,91.1,168.5,84.9,168.5,84.9 M168.3,81.4
					c-0.8,0-1.5,0.3-2.1,0.8c-0.4,0.3-8.6,7.5-7.7,22.7c0.2,2.8,1,5.7,1.9,8.4c1.4,4.8,2.8,9.3,1.2,13.8c-1.9,5.4-8,10.2-18.6,14.7
					c-3.7,1.6-6,5.3-5.7,9.2l0.5,8.7c0.1,1.9,1.8,3.4,3.7,3.3l63.3-3.8c1.9-0.1,3.4-1.8,3.3-3.7l-0.5-8.7c-0.2-4-3-7.4-6.8-8.5
					c-11.1-3.2-17.7-7.2-20.3-12.3c-2.1-4.2-1.3-8.9-0.5-13.8c0.5-2.9,1-5.8,0.8-8.6c-0.9-15.2-10-21.4-10.4-21.6
					C169.8,81.5,169.1,81.3,168.3,81.4z"/>
			</g>
			<g>
				<path class="st2" d="M143.4,185.3l62.1-3.8c1-0.1,1.8,0.7,1.9,1.7l2.2,36.3c0.1,1-0.7,1.8-1.7,1.9l-62.1,3.8
					c-1,0.1-1.8-0.7-1.9-1.7l-2.2-36.3C141.7,186.2,142.5,185.3,143.4,185.3z"/>
			</g>
			<g>
				<path class="st1" d="M205.7,183.2l2.2,36.3l-62.1,3.8l-2.2-36.3L205.7,183.2 M205.5,179.7l-62.1,3.8c-1.9,0.1-3.4,1.8-3.3,3.7
					l2.2,36.3c0.1,1.9,1.8,3.4,3.7,3.3l62.1-3.8c1.9-0.1,3.4-1.8,3.3-3.7l-2.2-36.3C209.1,181.1,207.4,179.6,205.5,179.7z"/>
			</g>
			<g class="st3">
				<g>
					
						<rect x="143.6" y="185.1" transform="matrix(0.9982 -6.063642e-02 6.063642e-02 0.9982 -11.0465 10.9409)" width="62.3" height="4.7"/>
				</g>
			</g>
			<g>
				<path class="st1" d="M176.9,222.7c-0.6,0-1.2-0.5-1.2-1.1l-2.2-36.3c0-0.6,0.5-1.2,1.1-1.2c0.6,0,1.2,0.5,1.2,1.1l2.2,36.3
					C178,222.1,177.5,222.6,176.9,222.7z"/>
			</g>
			<g>
				<path class="st1" d="M170.4,223c-0.6,0-1.2-0.5-1.2-1.1l-2.2-36.3c0-0.6,0.5-1.2,1.1-1.2s1.2,0.5,1.2,1.1l2.2,36.3
					C171.6,222.4,171.1,223,170.4,223z"/>
			</g>
			<g>
				<path class="st1" d="M164,223.4c-0.6,0-1.2-0.5-1.2-1.1l-2.2-36.3c0-0.6,0.5-1.2,1.1-1.2c0.6,0,1.2,0.5,1.2,1.1l2.2,36.3
					C165.1,222.8,164.6,223.4,164,223.4z"/>
			</g>
			<g>
				<path class="st1" d="M157.5,223.8c-0.6,0-1.2-0.5-1.2-1.1l-2.2-36.3c0-0.6,0.5-1.2,1.1-1.2s1.2,0.5,1.2,1.1l2.2,36.3
					C158.7,223.2,158.2,223.8,157.5,223.8z"/>
			</g>
			<g>
				<path class="st1" d="M151.1,224.2c-0.6,0-1.2-0.5-1.2-1.1l-2.2-36.3c0-0.6,0.5-1.2,1.1-1.2c0.6,0,1.2,0.5,1.2,1.1l2.2,36.3
					C152.2,223.6,151.7,224.2,151.1,224.2z"/>
			</g>
			<g>
				<path class="st1" d="M183.3,222.3c-0.6,0-1.2-0.5-1.2-1.1l-2.2-36.3c0-0.6,0.5-1.2,1.1-1.2s1.2,0.5,1.2,1.1l2.2,36.3
					C184.5,221.7,184,222.2,183.3,222.3z"/>
			</g>
			<g>
				<path class="st1" d="M189.8,221.9c-0.6,0-1.2-0.5-1.2-1.1l-2.2-36.3c0-0.6,0.5-1.2,1.1-1.2c0.6,0,1.2,0.5,1.2,1.1l2.2,36.3
					C190.9,221.3,190.4,221.8,189.8,221.9z"/>
			</g>
			<g>
				<path class="st1" d="M196.2,221.5c-0.6,0-1.2-0.5-1.2-1.1l-2.2-36.3c0-0.6,0.5-1.2,1.1-1.2s1.2,0.5,1.2,1.1l2.2,36.3
					C197.4,220.9,196.9,221.4,196.2,221.5z"/>
			</g>
			<g>
				<path class="st1" d="M202.7,221.1c-0.6,0-1.2-0.5-1.2-1.1l-2.2-36.3c0-0.6,0.5-1.2,1.1-1.2c0.6,0,1.2,0.5,1.2,1.1l2.2,36.3
					C203.8,220.5,203.3,221,202.7,221.1z"/>
			</g>
			<g>
				<path class="st4" d="M138.9,150.2l66.8-4.1c1-0.1,1.8,0.7,1.9,1.7l1.9,31.7c0.1,1-0.7,1.8-1.7,1.9l-66.8,4.1
					c-1,0.1-1.8-0.7-1.9-1.7l-1.9-31.7C137.2,151.1,138,150.3,138.9,150.2z"/>
			</g>
			<g>
				<path class="st1" d="M205.9,147.9l1.9,31.7l-66.8,4.1l-1.9-31.7L205.9,147.9 M205.7,144.4l-66.8,4.1c-1.9,0.1-3.4,1.8-3.3,3.7
					l0,0l1.9,31.7c0.1,1.9,1.8,3.4,3.7,3.3l66.8-4.1c1.9-0.1,3.4-1.8,3.3-3.7l-1.9-31.7C209.3,145.8,207.6,144.3,205.7,144.4
					L205.7,144.4z"/>
			</g>
			<g>
				
					<rect x="139.1" y="150" transform="matrix(0.9982 -6.063642e-02 6.063642e-02 0.9982 -8.8822 10.7434)" class="st5" width="67" height="3.5"/>
			</g>
			<g>
				<path class="st1" d="M200.9,152.9l-56.3,3.4c-0.6,0-1.2-0.5-1.2-1.1s0.5-1.2,1.1-1.2l56.3-3.4c0.6,0,1.2,0.5,1.2,1.1
					C202,152.3,201.5,152.9,200.9,152.9z"/>
			</g>
			<g>
				<path class="st1" d="M202.4,177.6l-56.3,3.4c-0.6,0-1.2-0.5-1.2-1.1c0-0.6,0.5-1.2,1.1-1.2l56.3-3.4c0.6,0,1.2,0.5,1.2,1.1
					S203,177.5,202.4,177.6z"/>
			</g>
			<g>
				<circle class="st6" cx="169.5" cy="101.9" r="2.9"/>
			</g>
			<g>
				<path class="st1" d="M169.4,100.1c1-0.1,1.8,0.7,1.9,1.7s-0.7,1.8-1.7,1.9c-1,0.1-1.8-0.7-1.9-1.7S168.5,100.2,169.4,100.1
					 M169.3,97.8c-2.3,0.1-4,2.1-3.9,4.4c0.1,2.3,2.1,4,4.4,3.9c2.3-0.1,4-2.1,3.9-4.4C173.5,99.4,171.6,97.6,169.3,97.8z"/>
			</g>
			<g>
				<path class="st1" d="M181.3,165c-0.6,0-1.2-0.5-1.2-1.1c0-0.8-0.7-1.4-1.6-1.4s-1.4,0.7-1.4,1.6c0,0.6-0.5,1.2-1.1,1.2
					c-0.6,0-1.2-0.5-1.2-1.1c-0.1-2.1,1.5-3.9,3.6-4c2.1-0.1,3.9,1.5,4,3.6C182.5,164.4,182,165,181.3,165z"/>
			</g>
			<g>
				<path class="st1" d="M170.8,165.7c-0.6,0-1.2-0.5-1.2-1.1c0-0.8-0.7-1.4-1.6-1.4s-1.4,0.7-1.4,1.6c0,0.6-0.5,1.2-1.1,1.2
					s-1.2-0.5-1.2-1.1c-0.1-2.1,1.5-3.9,3.6-4c2.1-0.1,3.9,1.5,4,3.6C171.9,165.1,171.4,165.6,170.8,165.7z"/>
			</g>
			<g>
				<path class="st1" d="M176.6,157c0.5-0.3,1.1-0.4,1.7-0.5c0.6,0,1.2,0,1.8,0.1c0.6,0.1,1.2,0.4,1.7,0.8c0.5,0.4,1,0.9,1.3,1.4
					c0.3,0.5,0.1,1.1-0.4,1.4c-0.2,0.1-0.5,0.1-0.7,0.1l-0.2-0.1c-0.4-0.1-0.8-0.3-1.2-0.4s-0.7-0.2-1.1-0.3l-1.2-0.3
					c-0.4-0.1-0.9-0.2-1.3-0.3l-0.2-0.1c-0.5-0.2-0.8-0.7-0.6-1.3C176.2,157.3,176.4,157.1,176.6,157z"/>
			</g>
			<g>
				<path class="st1" d="M169.1,159.4c-0.4,0.2-0.8,0.3-1.2,0.5l-1.2,0.4c-0.4,0.1-0.7,0.3-1.1,0.5c-0.4,0.1-0.7,0.3-1.1,0.5
					l-0.2,0.1c-0.5,0.2-1.1,0-1.3-0.5c-0.1-0.2-0.1-0.5,0-0.7c0.2-0.6,0.6-1.2,1.1-1.6c0.5-0.4,1-0.7,1.6-1c0.6-0.2,1.1-0.3,1.7-0.3
					c0.6,0,1.2,0.1,1.8,0.2c0.5,0.2,0.8,0.7,0.6,1.3c0,0,0,0,0,0c-0.1,0.3-0.3,0.5-0.5,0.6L169.1,159.4z"/>
			</g>
			<g>
				<path class="st1" d="M177.7,168.4c0.1,2.3-1.6,4.2-3.9,4.4c-2.3,0.1-4.2-1.6-4.4-3.9L177.7,168.4z"/>
				<path class="st1" d="M174,174.5c-3.2,0.2-6-2.3-6.2-5.5c-0.1-1,0.7-1.8,1.7-1.9l8.2-0.5c1-0.1,1.8,0.7,1.9,1.7
					C179.7,171.5,177.2,174.3,174,174.5z M172.2,170.5c0.4,0.3,1,0.5,1.6,0.5c0.6,0,1.1-0.3,1.5-0.7L172.2,170.5z"/>
			</g>
			<g>
				<path class="st7" d="M176.9,171.1c-1.9-1.3-4.5-1.2-6.2,0.4c1.5,1.6,4.1,1.7,5.7,0.2C176.6,171.5,176.7,171.3,176.9,171.1z"/>
			</g>
		</g>
	</g>
</g>
<g>
	<g id="Layer_2_2_">
		<g id="Layer_1-2_1_">
			<g>
				<path class="st1" d="M367.2,29.5l12.8-6c3.5-1.7,7.7-0.2,9.4,3.4l0,0c1.7,3.5,0.2,7.7-3.4,9.4l-12.8,6l0,0L367.2,29.5
					L367.2,29.5z"/>
			</g>
			<g>
				<path class="st1" d="M261.3,79.4l12.8-6l0,0l6,12.8l0,0l-12.8,6c-3.5,1.7-7.7,0.2-9.4-3.4l0,0C256.3,85.3,257.8,81.1,261.3,79.4
					z"/>
			</g>
			<g>
				<path class="st4" d="M307.5,102.9l-3.8,1.8c-8.8,4.2-19.3,0.4-23.5-8.4l-3.9-8.3c-1-2.1-0.1-4.6,2-5.6l28.1-13.2
					c2.1-1,4.6-0.1,5.6,2l3.9,8.3C320.1,88.2,316.3,98.7,307.5,102.9z"/>
			</g>
			<g>
				<path class="st8" d="M372.6,72.2l-3.8,1.8c-8.8,4.2-19.3,0.4-23.5-8.4l-3.9-8.3c-1-2.1-0.1-4.6,2-5.6l28.1-13.2
					c2.1-1,4.6-0.1,5.6,2l3.9,8.3C385.1,57.6,381.4,68.1,372.6,72.2z"/>
			</g>
			<g>
				<path class="st8" d="M305.8,109.2c-11.3,5.3-24.7,0.5-30-10.8l-3.9-8.3c-2.2-4.6-0.2-10,4.4-12.2l28.1-13.2
					c4.6-2.2,10-0.2,12.2,4.4l3.9,8.3c5.3,11.3,0.5,24.7-10.8,30L305.8,109.2z"/>
			</g>
			<g>
				<path class="st1" d="M306.4,69.1c2.1-1,4.6-0.1,5.6,2l3.9,8.3c4.2,8.8,0.4,19.3-8.4,23.5l-3.8,1.8c-8.8,4.2-19.3,0.4-23.5-8.4
					l-3.9-8.3c-1-2.1-0.1-4.6,2-5.6L306.4,69.1 M302.2,60.2l-28.1,13.2c-7,3.3-10.1,11.7-6.7,18.8l3.9,8.3
					c6.5,13.7,22.9,19.6,36.6,13.2l3.8-1.8c13.7-6.5,19.6-22.9,13.2-36.6l-3.9-8.3C317.6,59.9,309.2,56.9,302.2,60.2z"/>
			</g>
			<g class="st9">
				<g>
					<polygon class="st6" points="363.3,78.2 355.6,81.8 352.7,45.7 360.3,42.1 					"/>
				</g>
				<g>
					<polygon class="st6" points="372.8,73.6 367.1,76.4 364.1,40.3 369.9,37.6 					"/>
				</g>
			</g>
			<g class="st9">
				<g>
					<polygon class="st6" points="298.2,108.8 290.5,112.4 287.6,76.4 295.2,72.8 					"/>
				</g>
				<g>
					<polygon class="st6" points="307.8,104.3 302,107 299.1,71 304.8,68.3 					"/>
				</g>
			</g>
			<g>
				<path class="st1" d="M341.1,68.3c-2.1,1-4.6,0.1-5.6-2c-1.6-3.6-5.7-5.2-9.3-3.6c-3.6,1.6-5.2,5.7-3.6,9.3
					c0.1,0.1,0.1,0.3,0.2,0.4c1,2.1,0.1,4.6-2,5.6c-2.1,1-4.6,0.1-5.6-2c-3.8-7.7-0.7-17,7-20.8c7.7-3.8,17-0.7,20.8,7
					c0.1,0.2,0.2,0.4,0.3,0.6C344.1,64.8,343.2,67.3,341.1,68.3z"/>
			</g>
			<g>
				<path class="st1" d="M371.4,38.4c2.1-1,4.6-0.1,5.6,2l3.9,8.3c4.2,8.8,0.4,19.3-8.4,23.5l-3.8,1.8c-8.8,4.2-19.3,0.4-23.5-8.4
					l-3.9-8.3c-1-2.1-0.1-4.6,2-5.6L371.4,38.4 M367.2,29.5l-28.1,13.2c-7,3.3-10.1,11.7-6.7,18.8l3.9,8.3
					c6.5,13.7,22.9,19.6,36.6,13.2l3.8-1.8c13.7-6.5,19.6-22.9,13.2-36.6l-3.9-8.3C382.7,29.2,374.3,26.2,367.2,29.5z"/>
			</g>
			<g>
				<path class="st1" d="M306.4,69.1c2.1-1,4.6-0.1,5.6,2l3.9,8.3c4.2,8.8,0.4,19.3-8.4,23.5l-3.8,1.8c-8.8,4.2-19.3,0.4-23.5-8.4
					l-3.9-8.3c-1-2.1-0.1-4.6,2-5.6L306.4,69.1 M302.2,60.2l-28.1,13.2c-7,3.3-10.1,11.7-6.7,18.8l3.9,8.3
					c6.5,13.7,22.9,19.6,36.6,13.2l3.8-1.8c13.7-6.5,19.6-22.9,13.2-36.6l-3.9-8.3C317.6,59.9,309.2,56.9,302.2,60.2z"/>
			</g>
			<g>
				<path class="st10" d="M331.3,64.5c-2.7,0.5-5.2,1.7-7.4,3.5c-0.3,0.2-0.7,0.2-1-0.1c0-0.1-0.1-0.1-0.1-0.2l-4.7-10
					c-0.3-0.6-0.1-1.3,0.4-1.7c2-1.7,4.4-2.8,7-3.3c0.6-0.1,1.3,0.2,1.6,0.8l4.7,10c0.2,0.3,0.1,0.8-0.3,0.9
					C331.4,64.4,331.4,64.5,331.3,64.5z"/>
			</g>
			<g>
				<path class="st11" d="M325.5,52.7c-2.6,0.5-5,1.6-7,3.3c-0.5,0.4-0.7,1.1-0.4,1.7l1.2,2.6c-0.3-0.6-0.1-1.3,0.4-1.7
					c2-1.7,4.4-2.8,7-3.3c0.6-0.1,1.3,0.2,1.6,0.8l-1.2-2.6C326.8,52.9,326.2,52.6,325.5,52.7z"/>
			</g>
			<g>
				<path class="st12" d="M263.1,84.8l2.6-1.2c0.7-0.3,1.5,0,1.9,0.7l0,0c0.3,0.7,0,1.5-0.7,1.9l-2.6,1.2c-0.7,0.3-1.5,0-1.9-0.7
					l0,0C262.1,86,262.4,85.1,263.1,84.8z"/>
			</g>
			<g>
				<path class="st12" d="M380.5,29.5l2.6-1.2c0.7-0.3,1.5,0,1.9,0.7l0,0c0.3,0.7,0,1.5-0.7,1.9l-2.6,1.2c-0.7,0.3-1.5,0-1.9-0.7
					l0,0C379.5,30.7,379.8,29.8,380.5,29.5z"/>
			</g>
		</g>
	</g>
</g>
<g>
	<g id="Layer_2_3_">
		<g id="Layer_1-2_2_">
			<path class="st1" d="M94,142.9l5.4,13c1.5,3.6-0.2,7.7-3.8,9.2l0,0c-3.6,1.5-7.7-0.2-9.2-3.8l-5.4-13l0,0L94,142.9L94,142.9z"/>
			<path class="st1" d="M49.3,34.7l5.4,13l0,0l-13,5.4l0,0l-5.4-13c-1.5-3.6,0.2-7.7,3.8-9.2l0,0C43.7,29.3,47.9,31.1,49.3,34.7z"/>
			<path class="st4" d="M23.7,79.6L22,75.7c-3.7-9,0.6-19.3,9.6-23l8.5-3.5c2.2-0.9,4.6,0.1,5.5,2.3l11.8,28.7
				c0.9,2.2-0.1,4.6-2.3,5.5l-8.5,3.5C37.7,92.9,27.4,88.6,23.7,79.6z"/>
			<path class="st8" d="M51.1,146.1l-1.6-3.9c-3.7-9,0.6-19.3,9.6-23l8.5-3.5c2.2-0.9,4.6,0.1,5.5,2.3l11.8,28.7
				c0.9,2.2-0.1,4.6-2.3,5.5l-8.5,3.5C65.1,159.4,54.8,155.1,51.1,146.1z"/>
			<path class="st8" d="M17.5,77.6c-4.7-11.5,0.7-24.7,12.2-29.5l8.5-3.5c4.7-1.9,10,0.3,12,5L62,78.3c1.9,4.7-0.3,10-5,12l-8.5,3.5
				C37,98.5,23.9,93,19.1,81.5L17.5,77.6z"/>
			<path class="st1" d="M57.5,80.1c0.9,2.2-0.1,4.6-2.3,5.5l-8.5,3.5c-9,3.7-19.3-0.6-23-9.6L22,75.7c-3.7-9,0.6-19.3,9.6-23
				l8.5-3.5c2.2-0.9,4.6,0.1,5.5,2.3L57.5,80.1 M66.6,76.4L54.7,47.7c-3-7.2-11.2-10.6-18.4-7.7l-8.5,3.5
				c-14,5.8-20.7,21.9-14.9,35.9l1.6,3.9c5.8,14,21.9,20.7,35.9,14.9l8.5-3.5C66.1,91.8,69.5,83.6,66.6,76.4z"/>
			<g class="st9">
				<polygon class="st6" points="45.6,136.5 42.4,128.7 78.5,127.5 81.8,135.3 				"/>
				<polygon class="st6" points="49.7,146.3 47.3,140.4 83.4,139.2 85.8,145.1 				"/>
			</g>
			<g class="st9">
				<polygon class="st6" points="18.2,70 14.9,62.2 51.1,61 54.3,68.8 				"/>
				<polygon class="st6" points="22.2,79.8 19.8,73.9 55.9,72.8 58.4,78.6 				"/>
			</g>
			<path class="st1" d="M56.5,114.9c-0.9-2.2,0.1-4.6,2.3-5.5c3.6-1.4,5.5-5.5,4.1-9.1c-1.4-3.6-5.5-5.5-9.1-4.1
				c-0.1,0-0.3,0.1-0.4,0.2c-2.2,0.9-4.6-0.1-5.5-2.3s0.1-4.6,2.3-5.5c7.9-3.4,17,0.2,20.4,8s-0.2,17-8,20.4
				c-0.2,0.1-0.4,0.2-0.6,0.2C59.9,118,57.4,117,56.5,114.9z"/>
			<path class="st1" d="M84.9,146.6c0.9,2.2-0.1,4.6-2.3,5.5l-8.5,3.5c-9,3.7-19.3-0.6-23-9.6l-1.6-3.9c-3.7-9,0.6-19.3,9.6-23
				l8.5-3.5c2.2-0.9,4.6,0.1,5.5,2.3L84.9,146.6 M94,142.9l-11.8-28.7c-3-7.2-11.2-10.6-18.4-7.7l-8.5,3.5
				c-14,5.8-20.7,21.9-14.9,35.9l1.6,3.9c5.8,14,21.9,20.7,35.9,14.9l8.5-3.5C93.6,158.3,97,150.1,94,142.9z"/>
			<path class="st1" d="M57.5,80.1c0.9,2.2-0.1,4.6-2.3,5.5l-8.5,3.5c-9,3.7-19.3-0.6-23-9.6L22,75.7c-3.7-9,0.6-19.3,9.6-23
				l8.5-3.5c2.2-0.9,4.6,0.1,5.5,2.3L57.5,80.1 M66.6,76.4L54.7,47.7c-3-7.2-11.2-10.6-18.4-7.7l-8.5,3.5
				c-14,5.8-20.7,21.9-14.9,35.9l1.6,3.9c5.8,14,21.9,20.7,35.9,14.9l8.5-3.5C66.1,91.8,69.5,83.6,66.6,76.4z"/>
			<path class="st10" d="M60.9,105.3c-0.4-2.7-1.5-5.3-3.1-7.5c-0.2-0.3-0.2-0.8,0.2-1c0.1,0,0.1-0.1,0.2-0.1l10.2-4.2
				c0.6-0.2,1.3-0.1,1.7,0.5c1.6,2.1,2.6,4.5,2.9,7.1c0.1,0.6-0.3,1.3-0.9,1.5l-10.2,4.2c-0.3,0.2-0.8,0-0.9-0.3
				C60.9,105.4,60.9,105.3,60.9,105.3z"/>
			<path class="st11" d="M72.9,100.1c-0.4-2.6-1.4-5-2.9-7.1c-0.4-0.5-1.1-0.7-1.7-0.5l-2.6,1.1c0.6-0.2,1.3-0.1,1.7,0.5
				c1.6,2.1,2.6,4.5,2.9,7.1c0.1,0.6-0.3,1.3-0.9,1.5l2.6-1.1C72.6,101.3,73,100.7,72.9,100.1z"/>
			<path class="st12" d="M43.9,36.2l1.1,2.6c0.3,0.7,0,1.5-0.8,1.8l0,0c-0.7,0.3-1.5,0-1.8-0.8l-1.1-2.6c-0.3-0.7,0-1.5,0.8-1.8l0,0
				C42.7,35.1,43.6,35.4,43.9,36.2z"/>
			<path class="st12" d="M93.4,156.1l1.1,2.6c0.3,0.7,0,1.5-0.8,1.8l0,0c-0.7,0.3-1.5,0-1.8-0.8l-1.1-2.6c-0.3-0.7,0-1.5,0.8-1.8
				l0,0C92.3,155,93.1,155.4,93.4,156.1z"/>
		</g>
	</g>
</g>
<g>
	<g id="Layer_2_4_">
		<g id="Layer_1-2_3_">
			<path class="st1" d="M558,105.1l8.3-11.4c2.3-3.1,6.7-3.8,9.9-1.5l0,0c3.1,2.3,3.8,6.7,1.5,9.9l-8.3,11.4l0,0L558,105.1
				L558,105.1z"/>
			<path class="st1" d="M489,199.7l8.3-11.4l0,0l11.4,8.3l0,0l-8.3,11.4c-2.3,3.1-6.7,3.8-9.9,1.5l0,0
				C487.4,207.2,486.7,202.8,489,199.7z"/>
			<path class="st4" d="M540.7,198.2l-2.5,3.4c-5.7,7.9-16.8,9.6-24.6,3.8l-7.4-5.4c-1.9-1.4-2.3-4-0.9-5.9l18.3-25.1
				c1.4-1.9,4-2.3,5.9-0.9l7.4,5.4C544.7,179.3,546.5,190.3,540.7,198.2z"/>
			<path class="st8" d="M583.2,140.1l-2.5,3.4c-5.7,7.9-16.8,9.6-24.6,3.8l-7.4-5.4c-1.9-1.4-2.3-4-0.9-5.9l18.3-25.1
				c1.4-1.9,4-2.3,5.9-0.9l7.4,5.4C587.2,121.2,588.9,132.2,583.2,140.1z"/>
			<path class="st8" d="M542.2,204.5c-7.4,10.1-21.5,12.3-31.5,4.9l-7.4-5.4c-4.1-3-5-8.7-2-12.8l18.3-25.1c3-4.1,8.7-5,12.8-2
				l7.4,5.4c10.1,7.4,12.3,21.5,4.9,31.5L542.2,204.5z"/>
			<path class="st1" d="M523.6,169c1.4-1.9,4-2.3,5.9-0.9l7.4,5.4c7.9,5.7,9.6,16.8,3.8,24.6l-2.5,3.4c-5.7,7.9-16.8,9.6-24.6,3.8
				l-7.4-5.4c-1.9-1.4-2.3-4-0.9-5.9L523.6,169 M515.6,163.2l-18.3,25.1c-4.6,6.3-3.2,15.1,3.1,19.7l7.4,5.4
				c12.3,8.9,29.5,6.3,38.4-6l2.5-3.4c8.9-12.3,6.3-29.5-6-38.4l-7.4-5.4C529,155.6,520.2,156.9,515.6,163.2z"/>
			<g class="st9">
				<polygon class="st6" points="577.8,149.7 572.9,156.6 553,126.4 558,119.5 				"/>
				<polygon class="st6" points="584.1,141.2 580.3,146.3 560.5,116.1 564.2,111 				"/>
			</g>
			<g class="st9">
				<polygon class="st6" points="535.4,207.8 530.4,214.7 510.6,184.4 515.6,177.6 				"/>
				<polygon class="st6" points="541.7,199.3 537.9,204.4 518.1,174.2 521.8,169.1 				"/>
			</g>
			<path class="st1" d="M553.7,151.7c-1.4,1.9-4,2.3-5.9,0.9c-3.1-2.4-7.5-1.8-9.9,1.2c-2.4,3.1-1.8,7.5,1.2,9.9
				c0.1,0.1,0.2,0.2,0.3,0.2c1.9,1.4,2.3,4,0.9,5.9c-1.4,1.9-4,2.3-5.9,0.9c-7-4.9-8.7-14.6-3.8-21.6c4.9-7,14.6-8.7,21.6-3.8
				c0.2,0.1,0.3,0.2,0.5,0.4C554.6,147.2,555.1,149.8,553.7,151.7z"/>
			<path class="st1" d="M566,110.9c1.4-1.9,4-2.3,5.9-0.9l7.4,5.4c7.9,5.7,9.6,16.8,3.8,24.6l-2.5,3.4c-5.7,7.9-16.8,9.6-24.6,3.8
				l-7.4-5.4c-1.9-1.4-2.3-4-0.9-5.9L566,110.9 M558,105.1l-18.3,25.1c-4.6,6.3-3.2,15.1,3.1,19.7l7.4,5.4c12.3,8.9,29.5,6.3,38.4-6
				l2.5-3.4c8.9-12.3,6.3-29.5-6-38.4l-7.4-5.4C571.4,97.5,562.6,98.8,558,105.1z"/>
			<path class="st1" d="M523.6,169c1.4-1.9,4-2.3,5.9-0.9l7.4,5.4c7.9,5.7,9.6,16.8,3.8,24.6l-2.5,3.4c-5.7,7.9-16.8,9.6-24.6,3.8
				l-7.4-5.4c-1.9-1.4-2.3-4-0.9-5.9L523.6,169 M515.6,163.2l-18.3,25.1c-4.6,6.3-3.2,15.1,3.1,19.7l7.4,5.4
				c12.3,8.9,29.5,6.3,38.4-6l2.5-3.4c8.9-12.3,6.3-29.5-6-38.4l-7.4-5.4C529,155.6,520.2,156.9,515.6,163.2z"/>
			<path class="st10" d="M543.2,153c-2.1,1.8-3.8,4-4.8,6.6c-0.2,0.4-0.6,0.5-0.9,0.4c-0.1,0-0.1-0.1-0.2-0.1l-8.9-6.5
				c-0.5-0.4-0.7-1.1-0.5-1.7c1-2.4,2.5-4.6,4.6-6.2c0.5-0.4,1.2-0.4,1.7-0.1l8.9,6.5c0.3,0.2,0.4,0.6,0.2,1
				C543.3,152.9,543.3,153,543.2,153z"/>
			<path class="st11" d="M532.5,145.5c-2,1.7-3.6,3.8-4.6,6.2c-0.2,0.6,0,1.3,0.5,1.7l2.3,1.7c-0.5-0.4-0.7-1.1-0.5-1.7
				c1-2.4,2.5-4.6,4.6-6.2c0.5-0.4,1.2-0.4,1.7-0.1l-2.3-1.7C533.8,145,533,145.1,532.5,145.5z"/>
			<path class="st12" d="M493.1,203.6l1.7-2.3c0.5-0.6,1.3-0.8,2-0.3l0,0c0.6,0.5,0.8,1.3,0.3,2l-1.7,2.3c-0.5,0.6-1.3,0.8-2,0.3
				l0,0C492.8,205.1,492.7,204.2,493.1,203.6z"/>
			<path class="st12" d="M569.6,98.8l1.7-2.3c0.5-0.6,1.3-0.8,2-0.3l0,0c0.6,0.5,0.8,1.3,0.3,2l-1.7,2.3c-0.5,0.6-1.3,0.8-2,0.3l0,0
				C569.3,100.3,569.2,99.4,569.6,98.8z"/>
		</g>
	</g>
</g>
<g>
	<g id="Layer_2_5_">
		<g id="Layer_1-2_4_">
			<g>
				<path class="st6" d="M193.2,21.1l22-8l-1-2.8l-23.4,8.5c-12.9,4.7-19.6,19-14.9,31.9l1.5-0.6C174.6,37.9,181.4,25.4,193.2,21.1z
					"/>
			</g>
			<g>
				<path class="st2" d="M205.7,40.6l6.7-2.4c0.9-0.3,1.9,0.1,2.3,1.1l11.9,32.9c0.3,0.9-0.1,1.9-1.1,2.3l-6.7,2.4
					c-0.9,0.3-1.9-0.1-2.3-1.1l-11.9-32.9C204.3,41.9,204.7,40.9,205.7,40.6z"/>
			</g>
			<g>
				<path class="st1" d="M213,39.8l11.9,32.9l-6.7,2.4l-11.9-32.9L213,39.8 M211.7,36.5l-6.7,2.4c-1.8,0.7-2.8,2.7-2.1,4.6
					l11.9,32.9c0.7,1.8,2.7,2.8,4.6,2.1l6.7-2.4c1.8-0.7,2.8-2.7,2.1-4.6l-11.9-32.9C215.6,36.8,213.6,35.8,211.7,36.5z"/>
			</g>
			<g>
				<g>
					<rect x="207" y="40.9" transform="matrix(0.94 -0.3413 0.3413 0.94 -2.2178 74.4616)" class="st13" width="7.1" height="5.3"/>
				</g>
			</g>
			<g>
				<path class="st2" d="M199,43c-0.9,0.3-1.9-0.1-2.3-1.1c-1.6-4.7-6.7-7.3-11.4-5.7c-4.7,1.6-7.3,6.7-5.7,11.4
					c0,0.1,0.1,0.3,0.2,0.4c0.3,0.9-0.1,1.9-1.1,2.3l-4.4,1.6c-0.9,0.3-1.9-0.1-2.3-1.1c-4.6-12.6,1.9-26.5,14.5-31.1l23.6-8.6
					c0.9-0.3,1.9,0.1,2.3,1.1l7.7,21.2c0.3,0.9-0.1,1.9-1.1,2.3L199,43z"/>
			</g>
			<g>
				<path class="st1" d="M210.7,12.9l7.7,21.2l-20,7.3c-1.9-5.6-8-8.7-13.7-6.8c-5.6,1.9-8.7,8-6.8,13.7c0.1,0.2,0.1,0.3,0.2,0.5
					l-4.4,1.6c-4.2-11.7,1.8-24.6,13.5-28.8L210.7,12.9 M209.5,9.5L186,18.1C172.4,23,165.5,38,170.3,51.5c0.7,1.8,2.7,2.8,4.6,2.1
					l4.4-1.6c1.8-0.7,2.8-2.7,2.1-4.6c-1.5-3.7,0.3-7.9,4.1-9.4s7.9,0.3,9.4,4.1c0.1,0.1,0.1,0.3,0.1,0.4c0.7,1.8,2.7,2.8,4.6,2.1
					l20-7.3c1.8-0.7,2.8-2.7,2.1-4.6l-7.7-21.2C213.4,9.8,211.4,8.9,209.5,9.5z"/>
			</g>
			<g>
				<path class="st6" d="M188.1,24.1l23.6-8.6l-1-2.6l-23.6,8.6c-11.7,4.2-17.7,17.2-13.5,28.8l1.9-0.7
					C171.8,39,177.3,28,188.1,24.1z"/>
			</g>
			<g>
				<path class="st14" d="M230.3,120.5c-0.9,0.3-1.9-0.1-2.3-1.1l-14.2-39c-1-2.8,0.4-5.8,3.2-6.8l7.8-2.8c2.8-1,5.8,0.4,6.8,3.2
					l14.2,39c0.3,0.9-0.1,1.9-1.1,2.3L230.3,120.5z"/>
			</g>
			<g>
				<path class="st1" d="M225.4,72.5c1.8-0.7,3.9,0.3,4.6,2.1l14.2,39l-14.5,5.3l-14.2-39c-0.7-1.8,0.3-3.9,2.1-4.6L225.4,72.5
					 M224.2,69.1l-7.8,2.8c-3.7,1.3-5.6,5.4-4.3,9.1l14.2,39c0.7,1.8,2.7,2.8,4.6,2.1l14.5-5.3c1.8-0.7,2.8-2.7,2.1-4.6l-14.2-39
					C232,69.7,227.9,67.8,224.2,69.1z"/>
			</g>
			<g>
				<path class="st2" d="M222.2,8.1l8.9-3.2c0.9-0.3,1.9,0.1,2.3,1.1l6.5,17.8c0.3,0.9-0.1,1.9-1.1,2.3l-8.9,3.2
					c-0.9,0.3-1.9-0.1-2.3-1.1l-6.5-17.8C220.8,9.4,221.3,8.4,222.2,8.1z"/>
			</g>
			<g>
				<path class="st1" d="M231.7,6.5l6.5,17.8l-8.9,3.2l-6.5-17.8L231.7,6.5 M230.5,3.2l-8.9,3.2c-1.8,0.7-2.8,2.7-2.1,4.6l6.5,17.8
					c0.7,1.8,2.7,2.8,4.6,2.1l8.9-3.2c1.8-0.7,2.8-2.7,2.1-4.6l-6.5-17.8C234.4,3.5,232.4,2.5,230.5,3.2z"/>
			</g>
			<g>
				<rect x="223.1" y="8" transform="matrix(0.94 -0.3413 0.3413 0.94 10.4252 78.3162)" class="st6" width="9.5" height="3"/>
			</g>
			<g>
				<path class="st2" d="M215.8,16.4l5-1.8c0.9-0.3,1.9,0.1,2.3,1.1l3,8.4c0.3,0.9-0.1,1.9-1.1,2.3l-5,1.8c-0.9,0.3-1.9-0.1-2.3-1.1
					l-3-8.4C214.4,17.8,214.9,16.7,215.8,16.4z"/>
			</g>
			<g>
				<path class="st1" d="M221.4,16.3l3,8.4l-5,1.8l-3-8.4L221.4,16.3 M220.2,12.9l-5,1.8c-1.8,0.7-2.8,2.7-2.1,4.6l3,8.4
					c0.7,1.8,2.7,2.8,4.6,2.1l5-1.8c1.8-0.7,2.8-2.7,2.1-4.6l-3-8.4C224.1,13.2,222,12.2,220.2,12.9z"/>
			</g>
			<g>
				<g>
					
						<rect x="218.3" y="19.8" transform="matrix(0.94 -0.3413 0.3413 0.94 5.5055 76.7662)" class="st13" width="5.3" height="5.9"/>
				</g>
			</g>
			<g>
				<path class="st1" d="M210.2,25.4c-0.6,0.2-1.3-0.1-1.5-0.7c-0.2-0.6-0.9-0.9-1.5-0.7c-0.6,0.2-0.9,0.9-0.7,1.5
					c0.2,0.6-0.1,1.3-0.7,1.5c-0.6,0.2-1.3-0.1-1.5-0.7c-0.7-1.8,0.3-3.9,2.1-4.6c1.8-0.7,3.9,0.3,4.6,2.1
					C211.2,24.5,210.8,25.1,210.2,25.4z"/>
			</g>
			<g>
				<path class="st1" d="M201.3,28.6c-0.6,0.2-1.3-0.1-1.5-0.7c-0.2-0.6-0.9-0.9-1.5-0.7c-0.6,0.2-0.9,0.9-0.7,1.5
					c0.2,0.6-0.1,1.3-0.7,1.5c-0.6,0.2-1.3-0.1-1.5-0.7c-0.7-1.8,0.3-3.9,2.1-4.6c1.8-0.7,3.9,0.3,4.6,2.1
					C202.2,27.7,201.9,28.4,201.3,28.6z"/>
			</g>
			<g>
				<path class="st1" d="M202.9,18.5c0.5-0.4,1-0.7,1.5-0.9c0.6-0.2,1.2-0.3,1.8-0.4c0.6,0,1.3,0,1.9,0.2c0.6,0.2,1.2,0.6,1.6,1
					c0.4,0.4,0.4,1.1,0,1.4c-0.2,0.2-0.4,0.3-0.7,0.3l-0.2,0c-0.5,0-0.8,0-1.2,0c-0.4,0-0.8,0-1.2,0l-1.2,0.1
					c-0.4,0.1-0.9,0.1-1.3,0.1l-0.3,0c-0.6,0-1-0.5-1-1C202.6,18.9,202.7,18.7,202.9,18.5z"/>
			</g>
			<g>
				<path class="st1" d="M198.5,22.2c-0.3,0.3-0.7,0.6-1.1,0.8l-1,0.7c-0.3,0.2-0.6,0.5-0.9,0.7c-0.3,0.2-0.6,0.5-0.9,0.8l-0.2,0.2
					c-0.4,0.4-1.1,0.3-1.4-0.1c0,0,0,0,0,0c-0.2-0.2-0.3-0.4-0.3-0.7c0-0.7,0.2-1.3,0.6-1.8c0.3-0.5,0.8-1,1.3-1.4
					c0.5-0.4,1-0.6,1.6-0.8c0.6-0.2,1.2-0.3,1.8-0.3c0.6,0,1,0.5,1,1c0,0.3-0.1,0.5-0.3,0.7L198.5,22.2z"/>
			</g>
			<g>
				<path class="st1" d="M205.4,32.5c-1.7,0.6-3.6,0.7-5.7,0.3c-0.6-0.1-1.1-0.7-0.9-1.4c0.1-0.6,0.7-1.1,1.4-0.9
					c2.3,0.4,5.5,0.3,7.7-2.8c0.4-0.5,1.1-0.7,1.7-0.3c0.5,0.4,0.7,1.1,0.3,1.7C208.6,30.7,207.1,31.8,205.4,32.5z"/>
			</g>
			<g>
				<path class="st1" d="M203.8,34.3c1.3-0.2,2.6-0.7,3.7-1.3c0.3-0.1,0.6,0,0.7,0.2c0.1,0.2,0.1,0.3,0,0.5l-0.1,0.3
					c-0.2,0.4-0.5,0.7-0.8,0.9c-0.3,0.2-0.6,0.4-1,0.6c-0.4,0.1-0.7,0.2-1.1,0.2c-0.4,0-0.8,0-1.2-0.2l-0.3-0.1
					c-0.3-0.1-0.4-0.4-0.3-0.7C203.5,34.5,203.6,34.4,203.8,34.3z"/>
			</g>
		</g>
	</g>
</g>
<g>
	<g id="Layer_2_6_">
		<g id="Layer_1-2_5_">
			<g>
				<path class="st4" d="M337.6,205c-0.2,0.2-0.5,0.4-0.8,0.5l-6.9,2.3l-5.3,6.3c-0.6,0.7-1.8,0.8-2.5,0.2c-0.1-0.1-0.1-0.1-0.2-0.2
					l-20.2-24.3c-0.6-0.7-0.5-1.7,0.1-2.3l65.4-73.4c0.7-0.7,1.8-0.8,2.5-0.1l17.8,15.9c0.7,0.7,0.8,1.8,0.1,2.5
					c-0.1,0.2-0.3,0.3-0.5,0.4l-6.8,3.5l0.2,6.6c0,0.5-0.1,0.9-0.5,1.2c-0.2,0.2-0.5,0.4-0.8,0.5l-6.1,2l0.2,6.4
					c0,0.5-0.1,0.9-0.4,1.2c-0.2,0.2-0.5,0.4-0.8,0.5l-6.1,2l0.2,6.4c0,0.8-0.5,1.5-1.2,1.7l-6.1,2l0.2,6.4c0,0.5-0.1,0.9-0.5,1.2
					c-0.2,0.2-0.5,0.4-0.8,0.5l-6.1,2l0.2,6.4c0,0.8-0.5,1.5-1.2,1.7l-6.1,2l0.2,6.4c0,0.5-0.1,0.9-0.4,1.2
					c-0.2,0.2-0.5,0.4-0.8,0.5l-6.1,2l0.2,6.4C338,204.3,337.9,204.7,337.6,205z"/>
			</g>
			<g>
				<path class="st1" d="M368.6,115.2l17.8,15.9l-7.7,4.1l0.2,7.7l-7.4,2.4l0.2,7.7l-7.4,2.4l0.2,7.7l-7.3,2.4l0.2,7.7l-7.4,2.4
					l0.2,7.7l-7.4,2.4l0.2,7.7l-7.4,2.4l0.2,7.7l-7.4,2.4l-5.6,6.6l-20.2-24.3L368.6,115.2 M366,112.9l-65.4,73.4
					c-1.2,1.3-1.2,3.3-0.1,4.6l20.2,24.3c1.3,1.5,3.5,1.7,5,0.5c0.1-0.1,0.3-0.2,0.4-0.4l0.1-0.1l4.9-5.9l6.4-2.1
					c0.6-0.2,1.1-0.5,1.5-1c0.6-0.7,0.9-1.6,0.9-2.5l-0.2-5.1l4.8-1.6c1.5-0.5,2.5-1.9,2.4-3.5l-0.2-5.1l4.8-1.6
					c1.5-0.5,2.5-1.9,2.4-3.5l-0.2-5.1l4.8-1.6c1.5-0.5,2.5-1.9,2.4-3.5l-0.2-5.1l4.8-1.6c1.5-0.5,2.5-1.9,2.4-3.5l-0.2-5.1l4.8-1.6
					c1.5-0.5,2.5-1.9,2.4-3.5l-0.2-5.1l4.8-1.6c1.5-0.5,2.5-1.9,2.4-3.5l-0.2-5.5l5.8-3c0.4-0.2,0.7-0.5,1-0.8
					c1.3-1.5,1.2-3.7-0.3-5l-17.8-15.9C369.5,111.3,367.2,111.4,366,112.9L366,112.9z"/>
			</g>
			<g>
				<polygon class="st5" points="368.6,115.2 303.2,188.6 305.4,191.4 371.2,117.6 				"/>
			</g>
			<g>
				<path class="st0" d="M313.6,233.1c-2,2.2-5.3,2.4-7.5,0.4c-2.2-2-2.4-5.3-0.4-7.5l0.6-0.6l-13-15.7l-0.2,0.2
					c-2,2.2-5.3,2.4-7.5,0.4c-2.2-2-2.4-5.3-0.4-7.5l18.9-21.2c0.6-0.7,1.8-0.8,2.5-0.2c0.1,0.1,0.1,0.1,0.2,0.2l24.4,29.7
					c0.6,0.7,0.5,1.7-0.1,2.3L313.6,233.1z M318.4,211.6L305.3,196l-5.5,6.2l13.1,15.6L318.4,211.6z"/>
			</g>
			<g>
				<path class="st1" d="M305.2,182.7L305.2,182.7 M305.2,182.7l24.4,29.7l-17.4,19.5c-1.3,1.5-3.6,1.6-5,0.3
					c-1.5-1.3-1.6-3.6-0.3-5l1.6-1.8l-15.3-18.4l-1.6,1.8c-1.3,1.5-3.6,1.6-5,0.3c-1.5-1.3-1.6-3.6-0.3-5L305.2,182.7 M313.8,219.4
					l6.3-7.1c0.4-0.4,0.4-1.1,0.1-1.5l-13.8-16.6c-0.4-0.5-1.2-0.6-1.7-0.2c-0.1,0-0.1,0.1-0.2,0.2l-6.3,7.1
					c-0.4,0.4-0.4,1.1-0.1,1.5l13.8,16.6c0.4,0.5,1.2,0.6,1.7,0.2C313.7,219.6,313.7,219.5,313.8,219.4 M302.6,180.3l-18.9,21.2
					c-2.6,2.9-2.4,7.4,0.6,10c2.4,2.2,6,2.4,8.7,0.6l10.9,13.1c-2.3,3.2-1.6,7.6,1.6,9.9c3,2.1,7.1,1.7,9.5-1l17.4-19.5
					c1.2-1.3,1.2-3.3,0.1-4.6l-24.3-29.6c-1.2-1.6-3.4-1.9-5-0.7C302.9,180,302.7,180.2,302.6,180.3z M307.9,185.1L307.9,185.1z
					 M302.2,202.2l3.1-3.5l10.8,12.9L313,215L302.2,202.2L302.2,202.2z"/>
			</g>
			<g>
				<circle class="st1" cx="304.7" cy="188.2" r="1.5"/>
			</g>
			<g>
				<circle class="st1" cx="325" cy="212.7" r="1.5"/>
			</g>
			<g>
				<path class="st1" d="M338,172.1c-0.1,0.1-0.1,0.1-0.2,0.2c-0.9,0.6-1.6,1.4-2.1,2.3c-0.2,0.4-0.7,0.6-1.2,0.4
					c-0.4-0.2-0.6-0.7-0.4-1.2c0.6-1.3,1.6-2.3,2.7-3.1c0.4-0.3,1-0.1,1.2,0.3C338.3,171.4,338.2,171.8,338,172.1z"/>
			</g>
			<g>
				<circle class="st1" cx="333.5" cy="170.5" r="3.1"/>
			</g>
			<g>
				<circle class="st6" cx="334" cy="170" r="0.8"/>
			</g>
			<g>
				<path class="st1" d="M331.1,179.8c-0.1,0.1-0.1,0.1-0.2,0.2c-0.9,0.6-1.6,1.4-2.1,2.3c-0.2,0.4-0.7,0.6-1.2,0.4
					c-0.4-0.2-0.6-0.7-0.4-1.2c0.6-1.3,1.6-2.3,2.7-3.1c0.4-0.3,1-0.1,1.2,0.3C331.4,179.1,331.4,179.5,331.1,179.8z"/>
			</g>
			<g>
				<circle class="st1" cx="326.6" cy="178.3" r="3.1"/>
			</g>
			<g>
				<circle class="st6" cx="327.2" cy="177.7" r="0.8"/>
			</g>
			<g>
				<path class="st1" d="M327.5,167.3c0.2-0.5,0.4-1,0.8-1.4c0.3-0.4,0.8-0.8,1.2-1.1c0.5-0.3,1-0.5,1.6-0.6
					c0.6-0.1,1.2-0.1,1.7,0.2c0.5,0.2,0.8,0.8,0.6,1.3c-0.1,0.2-0.2,0.4-0.4,0.5l-0.2,0.2c-0.3,0.2-0.6,0.4-0.9,0.5l-0.8,0.5
					l-0.9,0.5c-0.3,0.2-0.7,0.4-1,0.5l-0.3,0.1c-0.5,0.2-1.1,0-1.3-0.6C327.4,167.8,327.4,167.5,327.5,167.3z"/>
			</g>
			<g>
				<path class="st1" d="M324.1,174.1c-0.1,0.4-0.3,0.7-0.4,1.1l-0.4,1l-0.4,0.9c-0.1,0.3-0.2,0.6-0.4,1l-0.1,0.3
					c-0.3,0.5-0.9,0.7-1.4,0.5c0,0,0,0,0,0c-0.2-0.1-0.4-0.3-0.5-0.4c-0.3-0.5-0.4-1.1-0.4-1.7c0-0.6,0.2-1.1,0.4-1.7
					c0.2-0.5,0.5-0.9,0.9-1.3c0.4-0.4,0.8-0.7,1.3-1c0.5-0.2,1.1,0,1.3,0.5c0.1,0.2,0.1,0.4,0.1,0.7L324.1,174.1z"/>
			</g>
			<g class="st9">
				<g>
					<circle class="st1" cx="341.5" cy="167.9" r="0.9"/>
				</g>
				<g>
					<circle class="st1" cx="342.3" cy="171.4" r="0.9"/>
				</g>
				<g>
					<circle class="st1" cx="345.1" cy="168.3" r="0.9"/>
				</g>
				<g>
					<circle class="st1" cx="324.9" cy="186.5" r="0.9"/>
				</g>
				<g>
					<circle class="st1" cx="325.7" cy="190" r="0.9"/>
				</g>
				<g>
					<circle class="st1" cx="328.5" cy="186.9" r="0.9"/>
				</g>
			</g>
			<g>
				<path class="st1" d="M340,183.3c-2,2.2-5.3,2.4-7.5,0.4c-0.5-0.4-0.5-1.2-0.1-1.7l5.5-6.2c0.4-0.5,1.2-0.5,1.7-0.1
					C341.8,177.7,342,181.1,340,183.3z"/>
			</g>
			<g>
				<path class="st1" d="M338.8,176.6L338.8,176.6 M338.8,176.6c1.7,1.5,1.9,4.1,0.3,5.9c-1.5,1.7-4.1,1.9-5.9,0.3L338.8,176.6
					 M337.1,175l-5.5,6.2c-0.9,1-0.8,2.5,0.2,3.3c2.7,2.4,6.8,2.2,9.2-0.5c2.4-2.7,2.2-6.8-0.5-9.2l-0.1-0.1
					C339.4,174,337.9,174.1,337.1,175z M340.6,178.2L340.6,178.2z"/>
			</g>
			<g>
				
					<ellipse transform="matrix(0.6655 -0.7464 0.7464 0.6655 -22.4269 313.0902)" class="st7" cx="338.1" cy="181.6" rx="3.1" ry="1.4"/>
			</g>
		</g>
	</g>
</g>
<g>
	<g id="Layer_2_7_">
		<g id="Layer_1-2_6_">
			<g>
				<path class="st2" d="M444.7,132.2c-0.8-0.2-1.4-0.9-1.4-1.7l-0.2-11.9c0-0.4,0.1-0.8,0.4-1.1l2.9-3.8l7.6-41
					c0.2-1,1.1-1.6,2-1.4l4.6,0.9c1,0.2,1.6,1.1,1.4,2l-7.6,41l1.3,4.6c0.1,0.4,0.1,0.8-0.1,1.1l-4.4,11.1c-0.3,0.8-1.1,1.2-1.9,1.1
					L444.7,132.2z"/>
			</g>
			<g>
				<path class="st1" d="M460.3,73.8l-7.7,41.4l1.4,5l-4.4,11.1l-4.6-0.9l-0.2-11.9l3.2-4.2l7.7-41.4L460.3,73.8 M461,70.4l-4.6-0.9
					c-1.9-0.4-3.7,0.9-4.1,2.8l-7.6,40.6l-2.7,3.5c-0.5,0.6-0.7,1.4-0.7,2.2l0.2,11.9c0,1.7,1.2,3.1,2.9,3.4l4.6,0.9
					c1.6,0.3,3.3-0.6,3.9-2.1l4.4-11.1c0.3-0.7,0.3-1.5,0.1-2.3l-1.2-4.2l7.6-40.6C464.2,72.5,462.9,70.7,461,70.4z"/>
			</g>
			<g>
				<path class="st0" d="M451.1,53.1c-1-0.2-1.6-1.1-1.4-2l6.7-35.6c1.2-6.7,7.7-11.1,14.3-9.8c6.7,1.2,11.1,7.7,9.8,14.3l-6.7,35.6
					c-0.2,1-1.1,1.6-2,1.4L451.1,53.1z"/>
			</g>
			<g>
				<path class="st1" d="M470.4,7.3c5.7,1.1,9.5,6.6,8.4,12.3l-6.7,35.6l-20.7-3.9l6.7-35.6C459.2,10,464.7,6.2,470.4,7.3L470.4,7.3
					 M471,3.8L471,3.8c-7.6-1.4-14.9,3.6-16.4,11.2L448,50.7c-0.4,1.9,0.9,3.7,2.8,4.1l20.7,3.9c1.9,0.4,3.7-0.9,4.1-2.8l6.7-35.6
					C483.7,12.6,478.7,5.3,471,3.8z"/>
			</g>
			<g>
				<path class="st1" d="M472.1,36.4c-0.6-0.1-1.1-0.7-0.9-1.4c0.1-0.6-0.3-1.2-0.9-1.4c-0.6-0.1-1.2,0.3-1.4,0.9
					c-0.1,0.6-0.7,1.1-1.4,0.9c-0.6-0.1-1.1-0.7-0.9-1.4c0.4-1.9,2.2-3.2,4.1-2.8c1.9,0.4,3.2,2.2,2.8,4.1
					C473.3,36.1,472.7,36.6,472.1,36.4z"/>
			</g>
			<g>
				<path class="st1" d="M462.9,34.7c-0.6-0.1-1.1-0.7-0.9-1.4c0.1-0.6-0.3-1.2-0.9-1.4c-0.6-0.1-1.2,0.3-1.4,0.9
					c-0.1,0.6-0.7,1.1-1.4,0.9c-0.6-0.1-1.1-0.7-0.9-1.4c0.4-1.9,2.2-3.2,4.1-2.8s3.2,2.2,2.8,4.1C464.1,34.4,463.5,34.8,462.9,34.7
					z"/>
			</g>
			<g>
				<path class="st1" d="M469.3,26.9c0.6-0.1,1.2-0.1,1.8,0c0.6,0.1,1.2,0.3,1.7,0.6c0.6,0.3,1.1,0.7,1.5,1.2
					c0.4,0.5,0.7,1.1,0.9,1.7c0.1,0.5-0.2,1.1-0.8,1.2c-0.2,0.1-0.5,0-0.7-0.1l-0.2-0.1c-0.4-0.2-0.7-0.5-1-0.7
					c-0.3-0.2-0.6-0.4-1-0.6l-1.1-0.6c-0.4-0.2-0.8-0.4-1.2-0.6l-0.2-0.1c-0.5-0.3-0.6-0.9-0.3-1.4C468.8,27.1,469,27,469.3,26.9z"
					/>
			</g>
			<g>
				<path class="st1" d="M463.7,27.9c-0.4,0.1-0.9,0.1-1.3,0.1l-1.2,0.1c-0.4,0-0.8,0.1-1.1,0.2c-0.4,0.1-0.7,0.2-1.2,0.2l-0.2,0
					c-0.5,0.1-1.1-0.3-1.2-0.8c0-0.3,0-0.5,0.2-0.7c0.4-0.5,0.8-1,1.4-1.3c0.6-0.3,1.2-0.5,1.8-0.5c0.6-0.1,1.2,0,1.8,0.1
					c0.6,0.1,1.2,0.3,1.7,0.7c0.5,0.3,0.6,0.9,0.3,1.4c0,0,0,0,0,0c-0.1,0.2-0.4,0.4-0.6,0.4L463.7,27.9z"/>
			</g>
			<g>
				<path class="st1" d="M464.4,40.1c-1.8-0.3-3.5-1.2-5-2.6c-0.5-0.4-0.5-1.2-0.1-1.7c0.4-0.5,1.2-0.5,1.7-0.1
					c1.7,1.5,4.5,3,7.9,1.5c0.6-0.3,1.3,0,1.5,0.6c0.3,0.6,0,1.3-0.6,1.5C468,40.2,466.2,40.4,464.4,40.1z"/>
			</g>
			<g>
				<path class="st1" d="M462.1,40.8c1.2,0.5,2.5,0.7,3.8,0.7c0.3,0,0.5,0.2,0.5,0.5c0,0.2-0.1,0.3-0.2,0.4l-0.3,0.2
					c-0.3,0.2-0.7,0.3-1.1,0.4c-0.4,0-0.8,0-1.1,0c-0.4-0.1-0.7-0.2-1.1-0.4c-0.4-0.2-0.7-0.4-0.9-0.8l-0.2-0.3
					c-0.2-0.2-0.1-0.6,0.1-0.7C461.8,40.8,462,40.8,462.1,40.8z"/>
			</g>
			<g>
				<path class="st0" d="M454.6,53.7l13.8,2.6c1,0.2,1.6,1.1,1.4,2l-0.6,3.4c-0.2,1-1.1,1.6-2,1.4l-13.8-2.6c-1-0.2-1.6-1.1-1.4-2
					l0.6-3.4C452.7,54.2,453.6,53.5,454.6,53.7z"/>
			</g>
			<g>
				<path class="st1" d="M468.1,58l-0.6,3.4l-13.8-2.6l0.6-3.4L468.1,58 M468.7,54.6L454.9,52c-1.9-0.4-3.7,0.9-4.1,2.8l-0.6,3.4
					c-0.4,1.9,0.9,3.7,2.8,4.1l13.8,2.6c1.9,0.4,3.7-0.9,4.1-2.8l0.6-3.4C471.9,56.7,470.6,54.9,468.7,54.6z"/>
			</g>
			<g>
				
					<rect x="459.1" y="51.4" transform="matrix(0.1835 -0.983 0.983 0.1835 318.8221 500.7254)" class="st1" width="3.5" height="14"/>
			</g>
			<g>
				<path class="st0" d="M448.7,59.7l23,4.3c1,0.2,1.6,1.1,1.4,2l-1.1,5.7c-0.2,1-1.1,1.6-2,1.4l-23-4.3c-1-0.2-1.6-1.1-1.4-2
					l1.1-5.7C446.8,60.2,447.7,59.6,448.7,59.7z"/>
			</g>
			<g>
				<path class="st1" d="M471.4,65.8l-1.1,5.7l-23-4.3l1.1-5.7L471.4,65.8 M472,62.3L449,58c-1.9-0.4-3.7,0.9-4.1,2.8l-1.1,5.7
					c-0.4,1.9,0.9,3.7,2.8,4.1l23,4.3c1.9,0.4,3.7-0.9,4.1-2.8l1.1-5.7C475.2,64.5,473.9,62.7,472,62.3z"/>
			</g>
			<g class="st3">
				<g>
					
						<rect x="454.6" y="73.9" transform="matrix(0.1835 -0.983 0.983 0.1835 298.5906 512.0035)" class="st13" width="5.8" height="4.7"/>
				</g>
			</g>
			<g>
				<path class="st2" d="M476.4,147c-1-0.2-1.6-1.1-1.4-2l10.7-57.5c0.2-1,1.1-1.6,2-1.4l5.2,1l1.3-6.9c0.2-1,1.1-1.6,2-1.4l4.6,0.9
					c1,0.2,1.6,1.1,1.4,2l-1.3,6.9l5.2,1c1,0.2,1.6,1.1,1.4,2L496.9,149c-0.2,1-1.1,1.6-2,1.4L476.4,147z"/>
			</g>
			<g>
				<path class="st1" d="M500.6,81.3l-1.6,8.6l6.9,1.3l-10.7,57.5l-18.4-3.4l10.7-57.5l6.9,1.3l1.6-8.6L500.6,81.3 M501.2,77.9
					l-4.6-0.9c-1.9-0.4-3.7,0.9-4.1,2.8l-1,5.2l-3.4-0.6c-1.9-0.4-3.7,0.9-4.1,2.8l-10.7,57.5c-0.4,1.9,0.9,3.7,2.8,4.1l18.4,3.4
					c1.9,0.4,3.7-0.9,4.1-2.8l10.7-57.5c0.4-1.9-0.9-3.7-2.8-4.1l-3.4-0.6l1-5.2C504.4,80.1,503.1,78.2,501.2,77.9z"/>
			</g>
			<g>
				<path class="st0" d="M491.4,60.6c-1-0.2-1.6-1.1-1.4-2l6.7-35.6c1.2-6.7,7.7-11.1,14.3-9.8c6.7,1.2,11.1,7.7,9.8,14.3L514.1,63
					c-0.2,1-1.1,1.6-2,1.4L491.4,60.6z"/>
			</g>
			<g>
				<path class="st1" d="M510.6,14.8c5.7,1.1,9.5,6.6,8.4,12.3l-6.7,35.6l-20.7-3.9l6.7-35.6C499.4,17.5,504.9,13.7,510.6,14.8
					L510.6,14.8 M511.3,11.3L511.3,11.3c-7.6-1.4-14.9,3.6-16.4,11.2l-6.7,35.6c-0.4,1.9,0.9,3.7,2.8,4.1l20.7,3.9
					c1.9,0.4,3.7-0.9,4.1-2.8l6.7-35.6C523.9,20.1,518.9,12.8,511.3,11.3z"/>
			</g>
			<g>
				<path class="st1" d="M504.2,49.9c-1.8-0.3-3.5-1.2-5-2.6c-0.5-0.4-0.5-1.2-0.1-1.7c0.4-0.5,1.2-0.5,1.7-0.1
					c1.7,1.5,4.5,3,7.9,1.5c0.6-0.3,1.3,0,1.5,0.6c0.3,0.6,0,1.3-0.6,1.5C507.8,50,506,50.2,504.2,49.9z"/>
			</g>
			<g>
				<path class="st1" d="M501.9,50.6c1.2,0.5,2.5,0.7,3.8,0.7c0.3,0,0.5,0.3,0.5,0.5c0,0.2-0.1,0.3-0.2,0.4l-0.3,0.2
					c-0.3,0.2-0.7,0.3-1.1,0.4c-0.4,0-0.8,0-1.1,0c-0.4-0.1-0.7-0.2-1-0.4c-0.4-0.2-0.7-0.4-0.9-0.8l-0.2-0.3
					c-0.2-0.2-0.1-0.6,0.1-0.7C501.6,50.6,501.8,50.6,501.9,50.6z"/>
			</g>
			<g>
				<path class="st0" d="M494.8,61.2l13.8,2.6c1,0.2,1.6,1.1,1.4,2l-0.6,3.4c-0.2,1-1.1,1.6-2,1.4l-13.8-2.6c-1-0.2-1.6-1.1-1.4-2
					l0.6-3.4C493,61.7,493.9,61,494.8,61.2z"/>
			</g>
			<g>
				<path class="st1" d="M508.3,65.5l-0.6,3.4l-13.8-2.6l0.6-3.4L508.3,65.5 M508.9,62.1l-13.8-2.6c-1.9-0.4-3.7,0.9-4.1,2.8
					l-0.6,3.4c-0.4,1.9,0.9,3.7,2.8,4.1l13.8,2.6c1.9,0.4,3.7-0.9,4.1-2.8l0.6-3.4C512.1,64.3,510.8,62.4,508.9,62.1z"/>
			</g>
			<g>
				
					<rect x="499.3" y="58.9" transform="matrix(0.1835 -0.983 0.983 0.1835 344.2889 546.4093)" class="st1" width="3.5" height="14"/>
			</g>
			<g>
				<path class="st0" d="M488.9,67.3l23,4.3c1,0.2,1.6,1.1,1.4,2l-1.1,5.7c-0.2,1-1.1,1.6-2,1.4l-23-4.3c-1-0.2-1.6-1.1-1.4-2
					l1.1-5.7C487.1,67.7,488,67.1,488.9,67.3z"/>
			</g>
			<g>
				<path class="st1" d="M511.6,73.3l-1.1,5.7l-23-4.3l1.1-5.7L511.6,73.3 M512.2,69.8l-23-4.3c-1.9-0.4-3.7,0.9-4.1,2.8l-1.1,5.7
					c-0.4,1.9,0.9,3.7,2.8,4.1l23,4.3c1.9,0.4,3.7-0.9,4.1-2.8l1.1-5.7C515.4,72,514.2,70.2,512.2,69.8z"/>
			</g>
			<g class="st3">
				<g>
					
						<rect x="494.8" y="81.4" transform="matrix(0.1835 -0.983 0.983 0.1835 324.0574 557.6875)" class="st13" width="5.8" height="4.7"/>
				</g>
			</g>
			<g>
				
					<rect x="454.6" y="115.1" transform="matrix(0.1835 -0.983 0.983 0.1835 280.1702 571.032)" class="st15" width="58.5" height="3.5"/>
			</g>
			<g>
				<path class="st1" d="M511.2,46c-0.1,0-0.2,0-0.2-0.1c-0.9-0.5-2-0.7-3-0.6c-0.5,0-0.9-0.3-1-0.8c0-0.5,0.3-0.9,0.8-1
					c1.4-0.1,2.8,0.1,4,0.7c0.4,0.2,0.6,0.7,0.4,1.2C512,45.9,511.6,46,511.2,46z"/>
			</g>
			<g>
				<circle class="st1" cx="510.2" cy="41.4" r="3.1"/>
			</g>
			<g>
				<circle class="st6" cx="511" cy="41.6" r="0.8"/>
			</g>
			<g>
				<path class="st1" d="M502.3,44.3c-0.1,0-0.2,0-0.2-0.1c-0.9-0.5-2-0.7-3-0.6c-0.5,0-0.9-0.3-1-0.8c0-0.5,0.3-0.9,0.8-1
					c1.4-0.1,2.8,0.1,4,0.7c0.4,0.2,0.6,0.7,0.4,1.2C503.1,44.2,502.7,44.4,502.3,44.3z"/>
			</g>
			<g>
				<circle class="st1" cx="501.4" cy="39.8" r="3.1"/>
			</g>
			<g>
				<circle class="st6" cx="502.1" cy="39.9" r="0.8"/>
			</g>
			<g>
				<path class="st1" d="M509.9,34.7c0.5-0.1,1.1-0.1,1.6-0.1c0.5,0.1,1,0.2,1.5,0.5c0.5,0.3,1,0.6,1.3,1c0.4,0.4,0.7,1,0.8,1.5
					c0.1,0.6-0.3,1.1-0.8,1.2c-0.2,0-0.4,0-0.6-0.1l-0.3-0.1c-0.4-0.2-0.6-0.4-0.9-0.5l-0.8-0.4l-0.9-0.5c-0.3-0.2-0.7-0.4-1-0.6
					l-0.2-0.2c-0.4-0.3-0.5-0.9-0.2-1.4C509.5,34.9,509.7,34.7,509.9,34.7L509.9,34.7z"/>
			</g>
			<g>
				<path class="st1" d="M503.5,35.5c-0.4,0.1-0.7,0.1-1.1,0.2l-1.1,0.1l-1,0.1c-0.3,0-0.6,0.1-1,0.1l-0.3,0c-0.6,0-1-0.4-1.1-0.9
					c0-0.2,0-0.4,0.1-0.6c0.3-0.5,0.8-0.9,1.3-1.2c0.5-0.3,1-0.4,1.6-0.5c0.5-0.1,1.1,0,1.6,0.1c0.5,0.1,1,0.3,1.5,0.6
					c0.5,0.3,0.6,0.9,0.3,1.4c-0.1,0.2-0.3,0.3-0.5,0.4L503.5,35.5z"/>
			</g>
			<g>
				<path class="st1" d="M499.3,97.7c-1-0.2-1.6-1.1-1.4-2l1.1-5.7c0.2-1,1.1-1.6,2-1.4c1,0.2,1.6,1.1,1.4,2l-1.1,5.7
					C501.2,97.3,500.3,97.9,499.3,97.7z"/>
			</g>
			<g>
				<path class="st1" d="M491.3,96.2c-1-0.2-1.6-1.1-1.4-2l1.1-5.7c0.2-1,1.1-1.6,2-1.4c1,0.2,1.6,1.1,1.4,2l-1.1,5.7
					C493.1,95.8,492.2,96.4,491.3,96.2z"/>
			</g>
		</g>
	</g>
</g>
</svg>
