<?xml version="1.0" encoding="utf-8"?>
<!-- Generator: Adobe Illustrator 25.0.0, SVG Export Plug-In . SVG Version: 6.00 Build 0)  -->
<svg version="1.1" id="Layer_1" xmlns="http://www.w3.org/2000/svg" xmlns:xlink="http://www.w3.org/1999/xlink" x="0px" y="0px"
	 viewBox="0 0 170.2 150" style="enable-background:new 0 0 170.2 150;" xml:space="preserve">
<style type="text/css">
	.st0{fill-rule:evenodd;clip-rule:evenodd;fill:#FDF6EC;}
	.st1{fill:#35414D;}
	.st2{fill:#FFDAAA;}
	.st3{fill:#FFB680;}
	.st4{fill:#4CAF50;}
	.st5{fill:#F44336;}
	.st6{fill:#2196F3;}
	.st7{fill:#FFC107;}
	.st8{fill:#167EE6;}
	.st9{fill:#12B347;}
	.st10{fill:#0F993E;}
	.st11{fill:#FFD500;}
	.st12{fill:#FF4B26;}
	.st13{fill:#D93F21;}
	.st14{fill:#1976D2;}
	.st15{fill:#FAFAFA;}
	.st16{clip-path:url(#SVGID_2_);}
	.st17{fill:#FFDD55;}
	.st18{fill:#FFDC55;}
	.st19{fill:#FFDB55;}
	.st20{fill:#FFDA54;}
	.st21{fill:#FFD954;}
	.st22{fill:#FFD854;}
	.st23{fill:#FFD754;}
	.st24{fill:#FFD654;}
	.st25{fill:#FFD554;}
	.st26{fill:#FFD453;}
	.st27{fill:#FFD353;}
	.st28{fill:#FFD253;}
	.st29{fill:#FFD153;}
	.st30{fill:#FFD053;}
	.st31{fill:#FFCF53;}
	.st32{fill:#FFCE52;}
	.st33{fill:#FFCD52;}
	.st34{fill:#FFCC52;}
	.st35{fill:#FFCB52;}
	.st36{fill:#FFCA52;}
	.st37{fill:#FFC952;}
	.st38{fill:#FFC851;}
	.st39{fill:#FFC751;}
	.st40{fill:#FFC651;}
	.st41{fill:#FFC551;}
	.st42{fill:#FFC451;}
	.st43{fill:#FFC351;}
	.st44{fill:#FFC250;}
	.st45{fill:#FFC150;}
	.st46{fill:#FFC050;}
	.st47{fill:#FFBF50;}
	.st48{fill:#FFBE50;}
	.st49{fill:#FFBD50;}
	.st50{fill:#FFBC4F;}
	.st51{fill:#FFBB4F;}
	.st52{fill:#FFBA4F;}
	.st53{fill:#FFB94F;}
	.st54{fill:#FFB84F;}
	.st55{fill:#FFB74F;}
	.st56{fill:#FFB64E;}
	.st57{fill:#FFB54E;}
	.st58{fill:#FFB44E;}
	.st59{fill:#FFB34E;}
	.st60{fill:#FFB24E;}
	.st61{fill:#FFB14E;}
	.st62{fill:#FFB04D;}
	.st63{fill:#FFAF4D;}
	.st64{fill:#FFAE4D;}
	.st65{fill:#FFAD4D;}
	.st66{fill:#FFAC4D;}
	.st67{fill:#FFAB4D;}
	.st68{fill:#FFAA4C;}
	.st69{fill:#FFA94C;}
	.st70{fill:#FFA84C;}
	.st71{fill:#FFA74C;}
	.st72{fill:#FFA64C;}
	.st73{fill:#FFA54C;}
	.st74{fill:#FFA44B;}
	.st75{fill:#FFA34B;}
	.st76{fill:#FFA24B;}
	.st77{fill:#FFA14B;}
	.st78{fill:#FFA04B;}
	.st79{fill:#FF9F4B;}
	.st80{fill:#FF9E4A;}
	.st81{fill:#FF9D4A;}
	.st82{fill:#FF9C4A;}
	.st83{fill:#FF9B4A;}
	.st84{fill:#FF9A4A;}
	.st85{fill:#FF994A;}
	.st86{fill:#FF9749;}
	.st87{fill:#FF9649;}
	.st88{fill:#FF9549;}
	.st89{fill:#FF9449;}
	.st90{fill:#FF9349;}
	.st91{fill:#FF9248;}
	.st92{fill:#FF9148;}
	.st93{fill:#FF9048;}
	.st94{fill:#FF8F48;}
	.st95{fill:#FF8E48;}
	.st96{fill:#FF8D48;}
	.st97{fill:#FF8C47;}
	.st98{fill:#FF8B47;}
	.st99{fill:#FF8A47;}
	.st100{fill:#FF8947;}
	.st101{fill:#FF8847;}
	.st102{fill:#FF8747;}
	.st103{fill:#FF8646;}
	.st104{fill:#FF8546;}
	.st105{fill:#FF8446;}
	.st106{fill:#FF8346;}
	.st107{fill:#FF8246;}
	.st108{fill:#FF8146;}
	.st109{fill:#FF8045;}
	.st110{fill:#FF7F45;}
	.st111{fill:#FF7E45;}
	.st112{fill:#FF7D45;}
	.st113{fill:#FF7C45;}
	.st114{fill:#FF7B45;}
	.st115{fill:#FF7A44;}
	.st116{fill:#FF7944;}
	.st117{fill:#FF7844;}
	.st118{fill:#FF7744;}
	.st119{fill:#FF7644;}
	.st120{fill:#FF7544;}
	.st121{fill:#FF7443;}
	.st122{fill:#FF7343;}
	.st123{fill:#FF7243;}
	.st124{fill:#FF7143;}
	.st125{fill:#FF7043;}
	.st126{fill:#FF6F43;}
	.st127{fill:#FF6E42;}
	.st128{fill:#FF6D42;}
	.st129{fill:#FF6C42;}
	.st130{fill:#FF6B42;}
	.st131{fill:#FF6A42;}
	.st132{fill:#FF6942;}
	.st133{fill:#FF6841;}
	.st134{fill:#FF6741;}
	.st135{fill:#FF6641;}
	.st136{fill:#FF6541;}
	.st137{fill:#FF6441;}
	.st138{fill:#FF6341;}
	.st139{fill:#FF6240;}
	.st140{fill:#FF6140;}
	.st141{fill:#FF6040;}
	.st142{fill:#FF5F40;}
	.st143{fill:#FF5E40;}
	.st144{fill:#FF5D40;}
	.st145{fill:#FF5C3F;}
	.st146{fill:#FF5B3F;}
	.st147{fill:#FF5A3F;}
	.st148{fill:#FF593F;}
	.st149{fill:#FF583F;}
	.st150{fill:#FF573F;}
	.st151{fill:#FF563E;}
	.st152{fill:#FF553E;}
	.st153{fill:#FF543E;}
	.st154{fill:#FE543F;}
	.st155{fill:#FE5340;}
	.st156{fill:#FD5341;}
	.st157{fill:#FD5342;}
	.st158{fill:#FC5343;}
	.st159{fill:#FC5244;}
	.st160{fill:#FB5245;}
	.st161{fill:#FB5246;}
	.st162{fill:#FA5247;}
	.st163{fill:#FA5148;}
	.st164{fill:#F95149;}
	.st165{fill:#F9514A;}
	.st166{fill:#F8514B;}
	.st167{fill:#F8504C;}
	.st168{fill:#F7504D;}
	.st169{fill:#F7504E;}
	.st170{fill:#F64F4F;}
	.st171{fill:#F64F50;}
	.st172{fill:#F54F51;}
	.st173{fill:#F54F52;}
	.st174{fill:#F44E53;}
	.st175{fill:#F44E54;}
	.st176{fill:#F34E55;}
	.st177{fill:#F34E56;}
	.st178{fill:#F24D57;}
	.st179{fill:#F24D58;}
	.st180{fill:#F14D59;}
	.st181{fill:#F14C5A;}
	.st182{fill:#F04C5B;}
	.st183{fill:#F04C5C;}
	.st184{fill:#EF4C5D;}
	.st185{fill:#EF4B5E;}
	.st186{fill:#EE4B5F;}
	.st187{fill:#EE4B60;}
	.st188{fill:#ED4B61;}
	.st189{fill:#ED4A62;}
	.st190{fill:#EC4A63;}
	.st191{fill:#EC4A64;}
	.st192{fill:#EB4A65;}
	.st193{fill:#EB4966;}
	.st194{fill:#EA4967;}
	.st195{fill:#EA4968;}
	.st196{fill:#E94869;}
	.st197{fill:#E9486A;}
	.st198{fill:#E8486B;}
	.st199{fill:#E8486C;}
	.st200{fill:#E7476D;}
	.st201{fill:#E7476E;}
	.st202{fill:#E6476F;}
	.st203{fill:#E64770;}
	.st204{fill:#E54671;}
	.st205{fill:#E54672;}
	.st206{fill:#E44673;}
	.st207{fill:#E44675;}
	.st208{fill:#E34576;}
	.st209{fill:#E24577;}
	.st210{fill:#E24578;}
	.st211{fill:#E14479;}
	.st212{fill:#E1447A;}
	.st213{fill:#E0447B;}
	.st214{fill:#E0447C;}
	.st215{fill:#DF437D;}
	.st216{fill:#DF437E;}
	.st217{fill:#DE437F;}
	.st218{fill:#DE4380;}
	.st219{fill:#DD4281;}
	.st220{fill:#DD4282;}
	.st221{fill:#DC4283;}
	.st222{fill:#DC4184;}
	.st223{fill:#DB4185;}
	.st224{fill:#DB4186;}
	.st225{fill:#DA4187;}
	.st226{fill:#DA4088;}
	.st227{fill:#D94089;}
	.st228{fill:#D9408A;}
	.st229{fill:#D8408B;}
	.st230{fill:#D83F8C;}
	.st231{fill:#D73F8D;}
	.st232{fill:#D73F8E;}
	.st233{fill:#D63F8F;}
	.st234{fill:#D63E90;}
	.st235{fill:#D53E91;}
	.st236{fill:#D53E92;}
	.st237{fill:#D43D93;}
	.st238{fill:#D43D94;}
	.st239{fill:#D33D95;}
	.st240{fill:#D33D96;}
	.st241{fill:#D23C97;}
	.st242{fill:#D23C98;}
	.st243{fill:#D13C99;}
	.st244{fill:#D13C9A;}
	.st245{fill:#D03B9B;}
	.st246{fill:#D03B9C;}
	.st247{fill:#CF3B9D;}
	.st248{fill:#CF3A9E;}
	.st249{fill:#CE3A9F;}
	.st250{fill:#CE3AA0;}
	.st251{fill:#CD3AA1;}
	.st252{fill:#CD39A2;}
	.st253{fill:#CC39A3;}
	.st254{fill:#CC39A4;}
	.st255{fill:#CB39A5;}
	.st256{fill:#CB38A6;}
	.st257{fill:#CA38A7;}
	.st258{fill:#CA38A8;}
	.st259{fill:#C938A9;}
	.st260{fill:#C937AA;}
	.st261{fill:#C837AB;}
	.st262{fill:#FFFFFF;}
	.st263{fill:#FF0000;}
	.st264{fill:#FFA000;}
</style>
<g>
	<g>
		<path class="st0" d="M16.2,14.3h119.3v95.2H16.2L16.2,14.3z"/>
	</g>
	<g>
		<path class="st1" d="M14.2,111.2h122.3c1.1,0,2-0.8,2-1.9V41.8v-5.5v-3.7v-3.3V14.9c0-1-0.9-1.9-2-1.9H14.2c-1.1,0-2,0.8-2,1.9
			v16.9v0.7v3.7v3.5v69.6C12.2,110.3,13.1,111.2,14.2,111.2z M16.2,16.8h118.3v90.7H16.2V16.8z"/>
	</g>
	<g id="_18-Muscle_2_">
		<g>
			<path class="st2" d="M154.9,142.5v6c-19.4,0-28.3-4.5-28.3-4.5s-4.5,3-22.4,3s-37.3-14.9-37.3-14.9h-4.5v-4.5l14.9-58.1
				l25.3-13.4l10.4,13.4l-4.7,4.2l-4.7,4.2l-4,3.6l-3-4.5c0,3-7.5,3-7.5,3l3.8,26.3c12.8-7.7,21.3-3.5,26.2,1.7
				c14.9-20.5,35.6-2.7,35.6-2.7V142.5z"/>
		</g>
		<g>
			<path class="st3" d="M95.3,63.6l10.1,12.9l3.1-2.8l4.7-4.2l-10.4-13.4L77.4,69.5l-1,4.1L95.3,63.6z"/>
		</g>
		<g>
			<path class="st3" d="M119.3,108c-5-5.2-13.4-9.4-26.2-1.7l-3-20.7L89.3,80c0,3-7.5,7.5-7.5,7.5l3.8,26.3
				c12.8-7.7,21.3-3.5,26.2,1.7c14.9-20.5,35.6-2.7,35.6-2.7v35.5c2.3,0.1,4.8,0.2,7.5,0.2v-43.2C154.9,105.3,134.2,87.6,119.3,108
				L119.3,108z"/>
		</g>
		<g>
			<path class="st1" d="M155.8,104.2c-0.4-0.4-10.3-8.7-21.6-7.3c-5.7,0.7-10.8,3.7-15,9c-5.1-4.6-13.2-8-24.9-1.8L91,81.4
				c2-0.1,4-0.6,5.8-1.7l1.7,2.6c0.5,0.7,1.4,0.9,2.1,0.4c0.1,0,0.1-0.1,0.2-0.1l13.4-11.9c0.6-0.5,0.7-1.4,0.2-2l-10.4-13.4
				c-0.4-0.6-1.2-0.7-1.9-0.4L76.7,68.2c-0.4,0.2-0.6,0.5-0.7,0.9L61,127.3c0,0.1-0.1,0.2-0.1,0.4v4.5c0,0.8,0.7,1.5,1.5,1.5h4
				c3,2.2,20.8,14.9,37.8,14.9c14.5,0,20.4-1.9,22.4-2.8c2.5,1.1,11.6,4.3,28.3,4.3c0.8,0,1.5-0.7,1.5-1.5v-43.2
				C156.4,104.9,156.2,104.4,155.8,104.2L155.8,104.2z M127.2,142.7c-0.5-0.2-1-0.2-1.5,0.1c-0.1,0-4.7,2.7-21.6,2.7
				c-17.2,0-36.2-14.4-36.3-14.6c-0.3-0.2-0.6-0.3-0.9-0.3h-3v-2.8l14.7-57.3L102.3,58l8.8,11.3l-2.5,2.2l-4.2-5.2l1.1-2.1l-2.7-1.3
				l-1.5,3c-0.3,0.5-0.2,1.1,0.2,1.6l4.8,6.1l-2.5,2.2l-3.9-4.9l1.1-2.1l-2.7-1.3l-1.5,3c-0.3,0.5-0.2,1.1,0.2,1.6l4.6,5.8l-1.7,1.5
				l-2-3c-0.5-0.7-1.4-0.9-2.1-0.4c-0.4,0.3-0.7,0.7-0.7,1.3c0,0.6-2.9,1.5-6,1.5c-0.8,0-1.5,0.7-1.5,1.5c0,0.1,0,0.1,0,0.2
				l4.3,30.2l-5,2.5l1.3,2.7l6-3c0.6-0.3,0.9-0.9,0.8-1.5l-0.6-3.9c9.4-5.3,17.3-4.7,23.5,1.9c2.3,2.5,4.2,5.5,5.4,8.7l2.8-1
				c-1.2-3.2-3-6.2-5.2-8.8c3.8-4.8,8.2-7.6,13.3-8.2c8.7-1,16.8,4.6,18.9,6.2v35c-6.5-0.2-12.8-1.7-18.7-4.3l-1.3,2.7
				c6.3,2.8,13.1,4.4,20,4.6v3C135.7,146.8,127.3,142.7,127.2,142.7L127.2,142.7z"/>
		</g>
		<g>
			<path class="st1" d="M104.2,139.6c-9.7,0-18.3-7-18.4-7.1l-1.9,2.3c0.4,0.3,9.5,7.8,20.3,7.8c6.3,0.1,12.5-1,18.4-3.1l-1.1-2.8
				C116,138.6,110.1,139.6,104.2,139.6L104.2,139.6z"/>
		</g>
		<g>
			<path class="st1" d="M141.9,109.3l2.1-2.1c-2.3-2.1-5.3-3.4-8.5-3.4c-5.1,0-9.6,5.9-10.1,6.6l2.4,1.8c1.1-1.5,4.7-5.4,7.7-5.4
				C137.9,106.8,140.1,107.7,141.9,109.3L141.9,109.3z"/>
		</g>
		<g>
			<path class="st1" d="M117.6,90.4h3v-3h3v-3h-3v-3h-3v3h-3v3h3V90.4z"/>
		</g>
	</g>
	<g>
		<g>
			<g>
				<g>
					<path class="st4" d="M136.3,14.6V0.8h12.2c0.9,0,1.6,0.7,1.6,1.6v12.2H136.3z"/>
				</g>
			</g>
			<g>
				<g>
					<path class="st1" d="M148.5,1.6c0.4,0,0.8,0.4,0.8,0.8v11.4h-12.2V1.6H148.5 M148.5,0h-11.4h-1.6v1.6v12.2v1.6h1.6h12.2h1.6
						v-1.6V2.4C150.9,1.1,149.8,0,148.5,0L148.5,0z"/>
				</g>
			</g>
		</g>
		<g>
			<g>
				<g>
					<path class="st5" d="M122.4,14.6V2.4c0-0.9,0.7-1.6,1.6-1.6h12.2v13.8H122.4z"/>
				</g>
			</g>
			<g>
				<g>
					<path class="st1" d="M135.5,1.6v12.2h-12.2V2.4c0-0.4,0.4-0.8,0.8-0.8H135.5 M137,0h-1.6H124c-1.3,0-2.4,1.1-2.4,2.4v11.4v1.6
						h1.6h12.2h1.6v-1.6V1.6V0L137,0z"/>
				</g>
			</g>
		</g>
		<g>
			<g>
				<g>
					<path class="st6" d="M124,28.4c-0.9,0-1.6-0.7-1.6-1.6V14.6h13.8v13.8H124z"/>
				</g>
			</g>
			<g>
				<g>
					<path class="st1" d="M135.5,15.4v12.2H124c-0.4,0-0.8-0.4-0.8-0.8V15.4H135.5 M137,13.9h-1.6h-12.2h-1.6v1.6v11.4
						c0,1.3,1.1,2.4,2.4,2.4h11.4h1.6v-1.6V15.4V13.9L137,13.9z"/>
				</g>
			</g>
		</g>
		<g>
			<g>
				<g>
					<path class="st7" d="M136.3,28.4V14.6h13.8v12.2c0,0.9-0.7,1.6-1.6,1.6H136.3z"/>
				</g>
			</g>
			<g>
				<g>
					<path class="st1" d="M149.3,15.4v11.4c0,0.4-0.4,0.8-0.8,0.8h-11.4V15.4H149.3 M150.9,13.9h-1.6h-12.2h-1.6v1.6v12.2v1.6h1.6
						h11.4c1.3,0,2.4-1.1,2.4-2.4V15.4V13.9L150.9,13.9z"/>
				</g>
			</g>
		</g>
	</g>
	<g>
		<g>
			<g>
				<g>
					<path class="st8" d="M102.5,42.5l0.5-0.3c1.2-0.7,2.2-1.8,2.9-3.1h-5.2c-0.8,0-1.4-0.6-1.4-1.4v-3.4c0-0.8,0.6-1.4,1.4-1.4
						h10.6c0.7,0,1.2,0.5,1.4,1.1c0.1,0.6,0.2,1.1,0.2,1.8c0,4.8-2.5,9.2-6.8,11.6l-0.5,0.3L102.5,42.5z"/>
				</g>
			</g>
			<g>
				<g>
					<path class="st1" d="M100.7,33.6l10.6,0c0.4,0,0.8,0.3,0.8,0.7c0.1,0.5,0.1,1,0.1,1.7c0,4.7-2.4,8.8-6.5,11.2l-2.6-4.4
						c1.6-0.9,2.8-2.3,3.4-4h-6c-0.5,0-0.9-0.4-0.9-0.9v-3.4C99.9,34,100.2,33.6,100.7,33.6 M100.7,32.5L100.7,32.5
						c-1,0-1.9,0.8-1.9,1.9v3.4c0,1,0.8,1.9,1.9,1.9h4.3c-0.6,0.8-1.3,1.6-2.2,2.1l-0.9,0.5l0.5,0.9l2.6,4.4l0.5,0.9l0.9-0.5
						c4.4-2.5,7-7.1,7-12.1c0-0.7,0-1.2-0.2-1.9c-0.2-0.9-0.9-1.6-1.9-1.6L100.7,32.5L100.7,32.5z"/>
				</g>
			</g>
		</g>
		<g>
			<g>
				<g>
					<path class="st9" d="M99.3,49.4c-4.8,0-9.3-2.6-11.7-6.8l-0.3-0.5l5.3-3.1l0.3,0.5c1.3,2.3,3.8,3.7,6.4,3.7
						c1.3,0,2.6-0.3,3.7-1l0.5-0.3l2.9,5v0.4l-0.3,0.2C104,48.8,101.7,49.4,99.3,49.4z"/>
				</g>
			</g>
			<g>
				<g>
					<path class="st1" d="M92.4,39.8c1.4,2.4,3.9,4,6.9,4c1.4,0,2.8-0.4,4-1.1l2.6,4.4v0c-1.9,1.1-4.2,1.7-6.5,1.7
						c-4.8,0-9-2.6-11.3-6.5L92.4,39.8 M92.8,38.4l-0.9,0.5l-4.4,2.5L86.6,42l0.5,0.9c2.5,4.3,7.2,7,12.2,7c2.5,0,4.9-0.7,7-1.9
						l0.5-0.3v-0.6v-0.3l-0.1-0.2l-2.6-4.4l-0.5-0.9l-0.9,0.5c-1.1,0.6-2.2,0.9-3.4,0.9c-2.4,0-4.7-1.3-6-3.5L92.8,38.4L92.8,38.4z"
						/>
				</g>
			</g>
		</g>
		<g>
			<g>
				<g>
					<path class="st10" d="M98.8,49.4v-6.1h0.5c1.3,0,2.6-0.3,3.7-1l0.5-0.3l2.9,5v0.4l-0.3,0.2c-2.1,1.2-4.4,1.8-6.8,1.8H98.8z"/>
				</g>
			</g>
			<g>
				<g>
					<path class="st1" d="M103.3,42.7l2.6,4.4v0c-1.9,1.1-4.2,1.7-6.5,1.7v-5.1C100.7,43.8,102.1,43.4,103.3,42.7 M103.6,41.3
						l-0.9,0.5c-1.1,0.6-2.2,0.9-3.4,0.9h-1v1v5.1v1h1c2.5,0,4.9-0.7,7-1.9l0.5-0.3v-0.6v-0.3l-0.1-0.2l-2.6-4.4L103.6,41.3
						L103.6,41.3z"/>
				</g>
			</g>
		</g>
		<g>
			<g>
				<g>
					<path class="st11" d="M87.6,42.6c-1.2-2-1.8-4.4-1.8-6.8c0-2.4,0.6-4.7,1.8-6.8l0.3-0.4l5.3,3.1l-0.3,0.5c-0.7,1.1-1,2.4-1,3.7
						c0,1.3,0.3,2.6,1,3.7l0.3,0.5l-5.3,3.1L87.6,42.6z"/>
				</g>
			</g>
			<g>
				<g>
					<path class="st1" d="M88,29.3l4.4,2.5c-0.7,1.2-1.1,2.5-1.1,4c0,1.4,0.4,2.8,1.1,4L88,42.4c-1.1-1.9-1.8-4.1-1.8-6.5
						C86.3,33.5,86.9,31.3,88,29.3 M87.6,27.9l-0.5,0.9c-1.2,2.1-1.9,4.6-1.9,7c0,2.5,0.7,4.9,1.9,7l0.5,0.9l0.9-0.5l4.4-2.5
						l0.9-0.5l-0.5-0.9c-0.6-1.1-0.9-2.2-0.9-3.4c0-1.2,0.3-2.4,0.9-3.4l0.5-0.9L92.9,31l-4.4-2.5L87.6,27.9L87.6,27.9z"/>
				</g>
			</g>
		</g>
		<g>
			<g>
				<g>
					<path class="st12" d="M87.3,29.5l0.3-0.5c2.4-4.2,6.9-6.8,11.7-6.8c3.3,0,6.4,1.2,8.9,3.3c0.3,0.3,0.5,0.6,0.5,1
						c0,0.4-0.1,0.8-0.4,1l-2.4,2.4c-0.3,0.3-0.6,0.4-1,0.4c-0.3,0-0.6-0.1-0.9-0.3c-1.3-1.1-3-1.7-4.7-1.7c-2.6,0-5.1,1.4-6.4,3.7
						l-0.3,0.5L87.3,29.5z"/>
				</g>
			</g>
			<g>
				<g>
					<path class="st1" d="M99.3,22.8c3.2,0,6.2,1.2,8.5,3.2c0.4,0.3,0.4,0.9,0,1.3l-2.4,2.4c-0.2,0.2-0.4,0.2-0.6,0.2
						c-0.2,0-0.4-0.1-0.5-0.2c-1.4-1.1-3.1-1.8-5-1.8c-2.9,0-5.5,1.6-6.9,4L88,29.3C90.3,25.4,94.5,22.8,99.3,22.8 M99.3,21.8
						c-5,0-9.7,2.7-12.2,7l-0.5,0.9l0.9,0.5l4.4,2.5l0.9,0.5l0.5-0.9c1.2-2.1,3.5-3.5,6-3.5c1.6,0,3.1,0.6,4.4,1.6
						c0.3,0.3,0.8,0.4,1.2,0.4c0.5,0,1-0.2,1.3-0.6l2.4-2.4c0.4-0.4,0.6-0.9,0.6-1.4c0-0.5-0.3-1-0.7-1.4
						C105.9,23,102.7,21.8,99.3,21.8L99.3,21.8z"/>
				</g>
			</g>
		</g>
		<g>
			<g>
				<g>
					<path class="st13" d="M104.9,30.4c-0.3,0-0.6-0.1-0.9-0.3c-1.3-1.1-3-1.7-4.7-1.7h-0.5v-6.1h0.5c3.3,0,6.4,1.2,8.9,3.3
						c0.3,0.3,0.5,0.6,0.5,1c0,0.4-0.1,0.8-0.4,1l-2.4,2.4C105.6,30.3,105.2,30.4,104.9,30.4L104.9,30.4z"/>
				</g>
			</g>
			<g>
				<g>
					<path class="st1" d="M99.3,22.8c3.2,0,6.2,1.2,8.5,3.2c0.4,0.3,0.4,0.9,0,1.3l-2.4,2.4c-0.2,0.2-0.4,0.2-0.6,0.2
						c-0.2,0-0.4-0.1-0.5-0.2c-1.4-1.1-3.1-1.8-5-1.8V22.8 M99.3,21.8h-1v1v5.1v1h1c1.6,0,3.1,0.6,4.4,1.6c0.3,0.3,0.8,0.4,1.2,0.4
						c0.5,0,1-0.2,1.3-0.6l2.4-2.4c0.4-0.4,0.6-0.9,0.6-1.4c0-0.5-0.3-1-0.7-1.4C105.9,23,102.7,21.8,99.3,21.8L99.3,21.8z"/>
				</g>
			</g>
		</g>
	</g>
	<g>
		<g>
			<path class="st14" d="M23.6,94.4H4c-1.8,0-3.3,1.5-3.3,3.3v19.6c0,1.8,1.5,3.3,3.3,3.3h19.6c1.8,0,3.3-1.5,3.3-3.3V97.7
				C26.9,95.9,25.4,94.4,23.6,94.4z"/>
			<path class="st1" d="M23.6,121.3H4c-2.2,0-4-1.8-4-4V97.7c0-2.2,1.8-4,4-4h19.6c2.2,0,4,1.8,4,4v19.6
				C27.6,119.5,25.8,121.3,23.6,121.3z M4,95.2c-1.4,0-2.5,1.1-2.5,2.5v19.6c0,1.4,1.1,2.5,2.5,2.5h19.6c1.4,0,2.5-1.1,2.5-2.5V97.7
				c0-1.4-1.1-2.5-2.5-2.5H4z"/>
		</g>
		<g>
			<path class="st15" d="M22.8,107.5h-4.1v-3.3c0-0.9,0.7-0.8,1.6-0.8H22v-4.1h-3.3l0,0c-2.7,0-4.9,2.2-4.9,4.9v3.3h-3.3v4.1h3.3v9
				h4.9v-9h2.4L22.8,107.5z"/>
			<path class="st1" d="M19.5,121.3H13v-9H9.8v-5.6H13v-2.5c0-3.1,2.5-5.7,5.7-5.7h4v5.6l-2.6,0c-0.2,0-0.5,0-0.6,0l0,2.5h4.4
				l-2.3,5.6h-2.2V121.3z M14.6,119.7h3.3v-9h2.7l1-2.5h-3.7v-4c0-0.5,0.1-0.9,0.4-1.1c0.5-0.5,1.1-0.5,1.8-0.5l1.1,0v-2.5h-2.5
				c-2.3,0-4.1,1.8-4.1,4.1v4h-3.3v2.5h3.3V119.7z"/>
		</g>
	</g>
	<g>
		<g>
			<g>
				<g>
					<defs>
						<path id="SVGID_1_" d="M39.7,49.4c-3.5,0-8-0.1-8.9-0.3c-4.9-1.3-4.8-5.9-4.6-10.9c0-0.8,0-1.6,0-2.4c0-1.1,0-2.1,0-2.9
							c-0.1-4.7-0.1-6.7,1.8-8.6c1.7-1.8,3.7-2,8.2-2c0.9,0,1.8,0,2.9,0c1.4,0,3,0,4.8,0h0.2c3.1,0,3.3,0,3.9,0.1
							c3.1,0.4,5.1,2.7,5.4,6c0,0.5,0,14.3,0,14.8c-0.2,3-1.9,5.1-4.6,5.8C47.7,49.3,43.2,49.4,39.7,49.4z"/>
					</defs>
					<clipPath id="SVGID_2_">
						<use xlink:href="#SVGID_1_"  style="overflow:visible;"/>
					</clipPath>
					<g class="st16">
						<polygon class="st17" points="25.9,45.2 29.6,49.4 25.9,49.4 						"/>
					</g>
					<g class="st16">
						<polygon class="st17" points="25.9,45 29.7,49.4 29.6,49.4 25.9,45.2 						"/>
					</g>
					<g class="st16">
						<polygon class="st18" points="25.9,44.8 29.9,49.4 29.7,49.4 25.9,45 						"/>
					</g>
					<g class="st16">
						<polygon class="st19" points="25.9,44.6 30,49.4 29.9,49.4 25.9,44.8 						"/>
					</g>
					<g class="st16">
						<polygon class="st20" points="25.9,44.4 30.2,49.4 30,49.4 25.9,44.6 						"/>
					</g>
					<g class="st16">
						<polygon class="st21" points="25.9,44.2 30.4,49.4 30.2,49.4 25.9,44.4 						"/>
					</g>
					<g class="st16">
						<polygon class="st22" points="25.9,44.1 30.5,49.4 30.4,49.4 25.9,44.2 						"/>
					</g>
					<g class="st16">
						<polygon class="st23" points="25.9,43.9 30.7,49.4 30.5,49.4 25.9,44.1 						"/>
					</g>
					<g class="st16">
						<polygon class="st24" points="25.9,43.7 30.8,49.4 30.7,49.4 25.9,43.9 						"/>
					</g>
					<g class="st16">
						<polygon class="st25" points="25.9,43.5 31,49.4 30.8,49.4 25.9,43.7 						"/>
					</g>
					<g class="st16">
						<polygon class="st26" points="25.9,43.3 31.1,49.4 31,49.4 25.9,43.5 						"/>
					</g>
					<g class="st16">
						<polygon class="st27" points="25.9,43.1 31.3,49.4 31.1,49.4 25.9,43.3 						"/>
					</g>
					<g class="st16">
						<polygon class="st28" points="25.9,43 31.5,49.4 31.3,49.4 25.9,43.1 						"/>
					</g>
					<g class="st16">
						<polygon class="st29" points="25.9,42.8 31.6,49.4 31.5,49.4 25.9,43 						"/>
					</g>
					<g class="st16">
						<polygon class="st30" points="25.9,42.6 31.8,49.4 31.6,49.4 25.9,42.8 						"/>
					</g>
					<g class="st16">
						<polygon class="st31" points="25.9,42.4 31.9,49.4 31.8,49.4 25.9,42.6 						"/>
					</g>
					<g class="st16">
						<polygon class="st32" points="25.9,42.2 32.1,49.4 31.9,49.4 25.9,42.4 						"/>
					</g>
					<g class="st16">
						<polygon class="st33" points="25.9,42 32.3,49.4 32.1,49.4 25.9,42.2 						"/>
					</g>
					<g class="st16">
						<polygon class="st34" points="25.9,41.8 32.4,49.4 32.3,49.4 25.9,42 						"/>
					</g>
					<g class="st16">
						<polygon class="st35" points="25.9,41.7 32.6,49.4 32.4,49.4 25.9,41.8 						"/>
					</g>
					<g class="st16">
						<polygon class="st36" points="25.9,41.5 32.7,49.4 32.6,49.4 25.9,41.7 						"/>
					</g>
					<g class="st16">
						<polygon class="st37" points="25.9,41.3 32.9,49.4 32.7,49.4 25.9,41.5 						"/>
					</g>
					<g class="st16">
						<polygon class="st38" points="25.9,41.1 33.1,49.4 32.9,49.4 25.9,41.3 						"/>
					</g>
					<g class="st16">
						<polygon class="st39" points="25.9,40.9 33.2,49.4 33.1,49.4 25.9,41.1 						"/>
					</g>
					<g class="st16">
						<polygon class="st40" points="25.9,40.7 33.4,49.4 33.2,49.4 25.9,40.9 						"/>
					</g>
					<g class="st16">
						<polygon class="st41" points="25.9,40.6 33.5,49.4 33.4,49.4 25.9,40.7 						"/>
					</g>
					<g class="st16">
						<polygon class="st42" points="25.9,40.4 33.7,49.4 33.5,49.4 25.9,40.6 						"/>
					</g>
					<g class="st16">
						<polygon class="st43" points="25.9,40.2 33.9,49.4 33.7,49.4 25.9,40.4 						"/>
					</g>
					<g class="st16">
						<polygon class="st44" points="25.9,40 34,49.4 33.9,49.4 25.9,40.2 						"/>
					</g>
					<g class="st16">
						<polygon class="st45" points="25.9,39.8 34.2,49.4 34,49.4 25.9,40 						"/>
					</g>
					<g class="st16">
						<polygon class="st46" points="25.9,39.6 34.3,49.4 34.2,49.4 25.9,39.8 						"/>
					</g>
					<g class="st16">
						<polygon class="st47" points="25.9,39.5 34.5,49.4 34.3,49.4 25.9,39.6 						"/>
					</g>
					<g class="st16">
						<polygon class="st48" points="25.9,39.3 34.7,49.4 34.5,49.4 25.9,39.5 						"/>
					</g>
					<g class="st16">
						<polygon class="st49" points="25.9,39.1 34.8,49.4 34.7,49.4 25.9,39.3 						"/>
					</g>
					<g class="st16">
						<polygon class="st50" points="25.9,38.9 35,49.4 34.8,49.4 25.9,39.1 						"/>
					</g>
					<g class="st16">
						<polygon class="st51" points="25.9,38.7 35.1,49.4 35,49.4 25.9,38.9 						"/>
					</g>
					<g class="st16">
						<polygon class="st52" points="25.9,38.5 35.3,49.4 35.1,49.4 25.9,38.7 						"/>
					</g>
					<g class="st16">
						<polygon class="st53" points="25.9,38.4 35.5,49.4 35.3,49.4 25.9,38.5 						"/>
					</g>
					<g class="st16">
						<polygon class="st54" points="25.9,38.2 35.6,49.4 35.5,49.4 25.9,38.4 						"/>
					</g>
					<g class="st16">
						<polygon class="st55" points="25.9,38 35.8,49.4 35.6,49.4 25.9,38.2 						"/>
					</g>
					<g class="st16">
						<polygon class="st56" points="25.9,37.8 35.9,49.4 35.8,49.4 25.9,38 						"/>
					</g>
					<g class="st16">
						<polygon class="st57" points="25.9,37.6 36.1,49.4 35.9,49.4 25.9,37.8 						"/>
					</g>
					<g class="st16">
						<polygon class="st58" points="25.9,37.4 36.2,49.4 36.1,49.4 25.9,37.6 						"/>
					</g>
					<g class="st16">
						<polygon class="st59" points="25.9,37.2 36.4,49.4 36.2,49.4 25.9,37.4 						"/>
					</g>
					<g class="st16">
						<polygon class="st60" points="25.9,37.1 36.6,49.4 36.4,49.4 25.9,37.2 						"/>
					</g>
					<g class="st16">
						<polygon class="st61" points="25.9,36.9 36.7,49.4 36.6,49.4 25.9,37.1 						"/>
					</g>
					<g class="st16">
						<polygon class="st62" points="25.9,36.7 36.9,49.4 36.7,49.4 25.9,36.9 						"/>
					</g>
					<g class="st16">
						<polygon class="st63" points="25.9,36.5 37,49.4 36.9,49.4 25.9,36.7 						"/>
					</g>
					<g class="st16">
						<polygon class="st64" points="25.9,36.3 37.2,49.4 37,49.4 25.9,36.5 						"/>
					</g>
					<g class="st16">
						<polygon class="st65" points="25.9,36.1 37.4,49.4 37.2,49.4 25.9,36.3 						"/>
					</g>
					<g class="st16">
						<polygon class="st66" points="25.9,36 37.5,49.4 37.4,49.4 25.9,36.1 						"/>
					</g>
					<g class="st16">
						<polygon class="st67" points="25.9,35.8 37.7,49.4 37.5,49.4 25.9,36 						"/>
					</g>
					<g class="st16">
						<polygon class="st68" points="25.9,35.6 37.8,49.4 37.7,49.4 25.9,35.8 						"/>
					</g>
					<g class="st16">
						<polygon class="st69" points="25.9,35.4 38,49.4 37.8,49.4 25.9,35.6 						"/>
					</g>
					<g class="st16">
						<polygon class="st70" points="25.9,35.2 38.2,49.4 38,49.4 25.9,35.4 						"/>
					</g>
					<g class="st16">
						<polygon class="st71" points="25.9,35 38.3,49.4 38.2,49.4 25.9,35.2 						"/>
					</g>
					<g class="st16">
						<polygon class="st72" points="25.9,34.9 38.5,49.4 38.3,49.4 25.9,35 						"/>
					</g>
					<g class="st16">
						<polygon class="st73" points="25.9,34.7 38.6,49.4 38.5,49.4 25.9,34.9 						"/>
					</g>
					<g class="st16">
						<polygon class="st74" points="25.9,34.5 38.8,49.4 38.6,49.4 25.9,34.7 						"/>
					</g>
					<g class="st16">
						<polygon class="st75" points="25.9,34.3 39,49.4 38.8,49.4 25.9,34.5 						"/>
					</g>
					<g class="st16">
						<polygon class="st76" points="25.9,34.1 39.1,49.4 39,49.4 25.9,34.3 						"/>
					</g>
					<g class="st16">
						<polygon class="st77" points="25.9,33.9 39.3,49.4 39.1,49.4 25.9,34.1 						"/>
					</g>
					<g class="st16">
						<polygon class="st78" points="25.9,33.7 39.4,49.4 39.3,49.4 25.9,33.9 						"/>
					</g>
					<g class="st16">
						<polygon class="st79" points="25.9,33.6 39.6,49.4 39.4,49.4 25.9,33.7 						"/>
					</g>
					<g class="st16">
						<polygon class="st80" points="25.9,33.4 39.8,49.4 39.6,49.4 25.9,33.6 						"/>
					</g>
					<g class="st16">
						<polygon class="st81" points="25.9,33.2 39.9,49.4 39.8,49.4 25.9,33.4 						"/>
					</g>
					<g class="st16">
						<polygon class="st82" points="25.9,33 40.1,49.4 39.9,49.4 25.9,33.2 						"/>
					</g>
					<g class="st16">
						<polygon class="st83" points="25.9,32.8 40.2,49.4 40.1,49.4 25.9,33 						"/>
					</g>
					<g class="st16">
						<polygon class="st84" points="25.9,32.6 40.4,49.4 40.2,49.4 25.9,32.8 						"/>
					</g>
					<g class="st16">
						<polygon class="st85" points="25.9,32.5 40.6,49.4 40.4,49.4 25.9,32.6 						"/>
					</g>
					<g class="st16">
						<polygon class="st86" points="25.9,32.3 40.7,49.4 40.6,49.4 25.9,32.5 						"/>
					</g>
					<g class="st16">
						<polygon class="st87" points="25.9,32.1 40.9,49.4 40.7,49.4 25.9,32.3 						"/>
					</g>
					<g class="st16">
						<polygon class="st88" points="25.9,31.9 41,49.4 40.9,49.4 25.9,32.1 						"/>
					</g>
					<g class="st16">
						<polygon class="st89" points="25.9,31.7 41.2,49.4 41,49.4 25.9,31.9 						"/>
					</g>
					<g class="st16">
						<polygon class="st90" points="25.9,31.5 41.3,49.4 41.2,49.4 25.9,31.7 						"/>
					</g>
					<g class="st16">
						<polygon class="st91" points="25.9,31.4 41.5,49.4 41.3,49.4 25.9,31.5 						"/>
					</g>
					<g class="st16">
						<polygon class="st92" points="25.9,31.2 41.7,49.4 41.5,49.4 25.9,31.4 						"/>
					</g>
					<g class="st16">
						<polygon class="st93" points="25.9,31 41.8,49.4 41.7,49.4 25.9,31.2 						"/>
					</g>
					<g class="st16">
						<polygon class="st94" points="25.9,30.8 42,49.4 41.8,49.4 25.9,31 						"/>
					</g>
					<g class="st16">
						<polygon class="st95" points="25.9,30.6 42.1,49.4 42,49.4 25.9,30.8 						"/>
					</g>
					<g class="st16">
						<polygon class="st96" points="25.9,30.4 42.3,49.4 42.1,49.4 25.9,30.6 						"/>
					</g>
					<g class="st16">
						<polygon class="st97" points="25.9,30.3 42.5,49.4 42.3,49.4 25.9,30.4 						"/>
					</g>
					<g class="st16">
						<polygon class="st98" points="25.9,30.1 42.6,49.4 42.5,49.4 25.9,30.3 						"/>
					</g>
					<g class="st16">
						<polygon class="st99" points="25.9,29.9 42.8,49.4 42.6,49.4 25.9,30.1 						"/>
					</g>
					<g class="st16">
						<polygon class="st100" points="25.9,29.7 42.9,49.4 42.8,49.4 25.9,29.9 						"/>
					</g>
					<g class="st16">
						<polygon class="st101" points="25.9,29.5 43.1,49.4 42.9,49.4 25.9,29.7 						"/>
					</g>
					<g class="st16">
						<polygon class="st102" points="25.9,29.3 43.3,49.4 43.1,49.4 25.9,29.5 						"/>
					</g>
					<g class="st16">
						<polygon class="st103" points="25.9,29.1 43.4,49.4 43.3,49.4 25.9,29.3 						"/>
					</g>
					<g class="st16">
						<polygon class="st104" points="25.9,29 43.6,49.4 43.4,49.4 25.9,29.1 						"/>
					</g>
					<g class="st16">
						<polygon class="st105" points="25.9,28.8 43.7,49.4 43.6,49.4 25.9,29 						"/>
					</g>
					<g class="st16">
						<polygon class="st106" points="25.9,28.6 43.9,49.4 43.7,49.4 25.9,28.8 						"/>
					</g>
					<g class="st16">
						<polygon class="st107" points="25.9,28.4 44.1,49.4 43.9,49.4 25.9,28.6 						"/>
					</g>
					<g class="st16">
						<polygon class="st108" points="25.9,28.2 44.2,49.4 44.1,49.4 25.9,28.4 						"/>
					</g>
					<g class="st16">
						<polygon class="st109" points="25.9,28 44.4,49.4 44.2,49.4 25.9,28.2 						"/>
					</g>
					<g class="st16">
						<polygon class="st110" points="25.9,27.9 44.5,49.4 44.4,49.4 25.9,28 						"/>
					</g>
					<g class="st16">
						<polygon class="st111" points="25.9,27.7 44.7,49.4 44.5,49.4 25.9,27.9 						"/>
					</g>
					<g class="st16">
						<polygon class="st112" points="25.9,27.5 44.9,49.4 44.7,49.4 25.9,27.7 						"/>
					</g>
					<g class="st16">
						<polygon class="st113" points="25.9,27.3 45,49.4 44.9,49.4 25.9,27.5 						"/>
					</g>
					<g class="st16">
						<polygon class="st114" points="25.9,27.1 45.2,49.4 45,49.4 25.9,27.3 						"/>
					</g>
					<g class="st16">
						<polygon class="st115" points="25.9,26.9 45.3,49.4 45.2,49.4 25.9,27.1 						"/>
					</g>
					<g class="st16">
						<polygon class="st116" points="25.9,26.8 45.5,49.4 45.3,49.4 25.9,26.9 						"/>
					</g>
					<g class="st16">
						<polygon class="st117" points="25.9,26.6 45.7,49.4 45.5,49.4 25.9,26.8 						"/>
					</g>
					<g class="st16">
						<polygon class="st118" points="25.9,26.4 45.8,49.4 45.7,49.4 25.9,26.6 						"/>
					</g>
					<g class="st16">
						<polygon class="st119" points="25.9,26.2 46,49.4 45.8,49.4 25.9,26.4 						"/>
					</g>
					<g class="st16">
						<polygon class="st120" points="25.9,26 46.1,49.4 46,49.4 25.9,26.2 						"/>
					</g>
					<g class="st16">
						<polygon class="st121" points="25.9,25.8 46.3,49.4 46.1,49.4 25.9,26 						"/>
					</g>
					<g class="st16">
						<polygon class="st122" points="25.9,25.6 46.4,49.4 46.3,49.4 25.9,25.8 						"/>
					</g>
					<g class="st16">
						<polygon class="st123" points="25.9,25.5 46.6,49.4 46.4,49.4 25.9,25.6 						"/>
					</g>
					<g class="st16">
						<polygon class="st124" points="25.9,25.3 46.8,49.4 46.6,49.4 25.9,25.5 						"/>
					</g>
					<g class="st16">
						<polygon class="st125" points="25.9,25.1 46.9,49.4 46.8,49.4 25.9,25.3 						"/>
					</g>
					<g class="st16">
						<polygon class="st126" points="25.9,24.9 47.1,49.4 46.9,49.4 25.9,25.1 						"/>
					</g>
					<g class="st16">
						<polygon class="st127" points="25.9,24.7 47.2,49.4 47.1,49.4 25.9,24.9 						"/>
					</g>
					<g class="st16">
						<polygon class="st128" points="25.9,24.5 47.4,49.4 47.2,49.4 25.9,24.7 						"/>
					</g>
					<g class="st16">
						<polygon class="st129" points="25.9,24.4 47.6,49.4 47.4,49.4 25.9,24.5 						"/>
					</g>
					<g class="st16">
						<polygon class="st130" points="25.9,24.2 47.7,49.4 47.6,49.4 25.9,24.4 						"/>
					</g>
					<g class="st16">
						<polygon class="st131" points="25.9,24 47.9,49.4 47.7,49.4 25.9,24.2 						"/>
					</g>
					<g class="st16">
						<polygon class="st132" points="25.9,23.8 48,49.4 47.9,49.4 25.9,24 						"/>
					</g>
					<g class="st16">
						<polygon class="st133" points="25.9,23.6 48.2,49.4 48,49.4 25.9,23.8 						"/>
					</g>
					<g class="st16">
						<polygon class="st134" points="25.9,23.4 48.4,49.4 48.2,49.4 25.9,23.6 						"/>
					</g>
					<g class="st16">
						<polygon class="st135" points="25.9,23.3 48.5,49.4 48.4,49.4 25.9,23.4 						"/>
					</g>
					<g class="st16">
						<polygon class="st136" points="25.9,23.1 48.7,49.4 48.5,49.4 25.9,23.3 						"/>
					</g>
					<g class="st16">
						<polygon class="st137" points="25.9,22.9 48.8,49.4 48.7,49.4 25.9,23.1 						"/>
					</g>
					<g class="st16">
						<polygon class="st138" points="25.9,22.7 49,49.4 48.8,49.4 25.9,22.9 						"/>
					</g>
					<g class="st16">
						<polygon class="st139" points="25.9,22.5 49.2,49.4 49,49.4 25.9,22.7 						"/>
					</g>
					<g class="st16">
						<polygon class="st140" points="25.9,22.3 49.3,49.4 49.2,49.4 25.9,22.5 						"/>
					</g>
					<g class="st16">
						<polygon class="st141" points="26,22.3 49.5,49.4 49.3,49.4 25.9,22.3 25.9,22.3 						"/>
					</g>
					<g class="st16">
						<polygon class="st142" points="26.2,22.3 49.6,49.4 49.5,49.4 26,22.3 						"/>
					</g>
					<g class="st16">
						<polygon class="st143" points="26.3,22.3 49.8,49.4 49.6,49.4 26.2,22.3 						"/>
					</g>
					<g class="st16">
						<polygon class="st144" points="26.5,22.3 50,49.4 49.8,49.4 26.3,22.3 						"/>
					</g>
					<g class="st16">
						<polygon class="st145" points="26.6,22.3 50.1,49.4 50,49.4 26.5,22.3 						"/>
					</g>
					<g class="st16">
						<polygon class="st146" points="26.8,22.3 50.3,49.4 50.1,49.4 26.6,22.3 						"/>
					</g>
					<g class="st16">
						<polygon class="st147" points="27,22.3 50.4,49.4 50.3,49.4 26.8,22.3 						"/>
					</g>
					<g class="st16">
						<polygon class="st148" points="27.1,22.3 50.6,49.4 50.4,49.4 27,22.3 						"/>
					</g>
					<g class="st16">
						<polygon class="st149" points="27.3,22.3 50.8,49.4 50.6,49.4 27.1,22.3 						"/>
					</g>
					<g class="st16">
						<polygon class="st150" points="27.4,22.3 50.9,49.4 50.8,49.4 27.3,22.3 						"/>
					</g>
					<g class="st16">
						<polygon class="st151" points="27.6,22.3 51.1,49.4 50.9,49.4 27.4,22.3 						"/>
					</g>
					<g class="st16">
						<polygon class="st152" points="27.8,22.3 51.2,49.4 51.1,49.4 27.6,22.3 						"/>
					</g>
					<g class="st16">
						<polygon class="st153" points="27.9,22.3 51.4,49.4 51.2,49.4 27.8,22.3 						"/>
					</g>
					<g class="st16">
						<polygon class="st153" points="28.1,22.3 51.6,49.4 51.4,49.4 27.9,22.3 						"/>
					</g>
					<g class="st16">
						<polygon class="st154" points="28.3,22.3 51.8,49.4 51.6,49.4 28.1,22.3 						"/>
					</g>
					<g class="st16">
						<polygon class="st155" points="28.5,22.3 52,49.4 51.8,49.4 28.3,22.3 						"/>
					</g>
					<g class="st16">
						<polygon class="st156" points="28.7,22.3 52.2,49.4 52,49.4 28.5,22.3 						"/>
					</g>
					<g class="st16">
						<polygon class="st157" points="28.9,22.3 52.4,49.4 52.2,49.4 28.7,22.3 						"/>
					</g>
					<g class="st16">
						<polygon class="st158" points="29.1,22.3 52.6,49.4 52.4,49.4 28.9,22.3 						"/>
					</g>
					<g class="st16">
						<polygon class="st159" points="29.3,22.3 52.8,49.4 52.6,49.4 29.1,22.3 						"/>
					</g>
					<g class="st16">
						<polygon class="st160" points="29.5,22.3 53,49.4 52.8,49.4 29.3,22.3 						"/>
					</g>
					<g class="st16">
						<polygon class="st161" points="29.7,22.3 53.2,49.4 53,49.4 29.5,22.3 						"/>
					</g>
					<g class="st16">
						<polygon class="st162" points="29.9,22.3 53.2,49.2 53.2,49.4 53.2,49.4 29.7,22.3 						"/>
					</g>
					<g class="st16">
						<polygon class="st163" points="30.1,22.3 53.2,49 53.2,49.2 29.9,22.3 						"/>
					</g>
					<g class="st16">
						<polygon class="st164" points="30.3,22.3 53.2,48.7 53.2,49 30.1,22.3 						"/>
					</g>
					<g class="st16">
						<polygon class="st165" points="30.5,22.3 53.2,48.5 53.2,48.7 30.3,22.3 						"/>
					</g>
					<g class="st16">
						<polygon class="st166" points="30.7,22.3 53.2,48.3 53.2,48.5 30.5,22.3 						"/>
					</g>
					<g class="st16">
						<polygon class="st167" points="30.9,22.3 53.2,48 53.2,48.3 30.7,22.3 						"/>
					</g>
					<g class="st16">
						<polygon class="st168" points="31.1,22.3 53.2,47.8 53.2,48 30.9,22.3 						"/>
					</g>
					<g class="st16">
						<polygon class="st169" points="31.3,22.3 53.2,47.6 53.2,47.8 31.1,22.3 						"/>
					</g>
					<g class="st16">
						<polygon class="st170" points="31.5,22.3 53.2,47.3 53.2,47.6 31.3,22.3 						"/>
					</g>
					<g class="st16">
						<polygon class="st171" points="31.7,22.3 53.2,47.1 53.2,47.3 31.5,22.3 						"/>
					</g>
					<g class="st16">
						<polygon class="st172" points="31.9,22.3 53.2,46.9 53.2,47.1 31.7,22.3 						"/>
					</g>
					<g class="st16">
						<polygon class="st173" points="32.1,22.3 53.2,46.7 53.2,46.9 31.9,22.3 						"/>
					</g>
					<g class="st16">
						<polygon class="st174" points="32.3,22.3 53.2,46.4 53.2,46.7 32.1,22.3 						"/>
					</g>
					<g class="st16">
						<polygon class="st175" points="32.5,22.3 53.2,46.2 53.2,46.4 32.3,22.3 						"/>
					</g>
					<g class="st16">
						<polygon class="st176" points="32.7,22.3 53.2,46 53.2,46.2 32.5,22.3 						"/>
					</g>
					<g class="st16">
						<polygon class="st177" points="32.9,22.3 53.2,45.7 53.2,46 32.7,22.3 						"/>
					</g>
					<g class="st16">
						<polygon class="st178" points="33.1,22.3 53.2,45.5 53.2,45.7 32.9,22.3 						"/>
					</g>
					<g class="st16">
						<polygon class="st179" points="33.3,22.3 53.2,45.3 53.2,45.5 33.1,22.3 						"/>
					</g>
					<g class="st16">
						<polygon class="st180" points="33.5,22.3 53.2,45 53.2,45.3 33.3,22.3 						"/>
					</g>
					<g class="st16">
						<polygon class="st181" points="33.7,22.3 53.2,44.8 53.2,45 33.5,22.3 						"/>
					</g>
					<g class="st16">
						<polygon class="st182" points="33.9,22.3 53.2,44.6 53.2,44.8 33.7,22.3 						"/>
					</g>
					<g class="st16">
						<polygon class="st183" points="34.1,22.3 53.2,44.3 53.2,44.6 33.9,22.3 						"/>
					</g>
					<g class="st16">
						<polygon class="st184" points="34.3,22.3 53.2,44.1 53.2,44.3 34.1,22.3 						"/>
					</g>
					<g class="st16">
						<polygon class="st185" points="34.5,22.3 53.2,43.9 53.2,44.1 34.3,22.3 						"/>
					</g>
					<g class="st16">
						<polygon class="st186" points="34.7,22.3 53.2,43.6 53.2,43.9 34.5,22.3 						"/>
					</g>
					<g class="st16">
						<polygon class="st187" points="34.9,22.3 53.2,43.4 53.2,43.6 34.7,22.3 						"/>
					</g>
					<g class="st16">
						<polygon class="st188" points="35.1,22.3 53.2,43.2 53.2,43.4 34.9,22.3 						"/>
					</g>
					<g class="st16">
						<polygon class="st189" points="35.3,22.3 53.2,42.9 53.2,43.2 35.1,22.3 						"/>
					</g>
					<g class="st16">
						<polygon class="st190" points="35.5,22.3 53.2,42.7 53.2,42.9 35.3,22.3 						"/>
					</g>
					<g class="st16">
						<polygon class="st191" points="35.7,22.3 53.2,42.5 53.2,42.7 35.5,22.3 						"/>
					</g>
					<g class="st16">
						<polygon class="st192" points="35.9,22.3 53.2,42.3 53.2,42.5 35.7,22.3 						"/>
					</g>
					<g class="st16">
						<polygon class="st193" points="36.1,22.3 53.2,42 53.2,42.3 35.9,22.3 						"/>
					</g>
					<g class="st16">
						<polygon class="st194" points="36.3,22.3 53.2,41.8 53.2,42 36.1,22.3 						"/>
					</g>
					<g class="st16">
						<polygon class="st195" points="36.5,22.3 53.2,41.6 53.2,41.8 36.3,22.3 						"/>
					</g>
					<g class="st16">
						<polygon class="st196" points="36.7,22.3 53.2,41.3 53.2,41.6 36.5,22.3 						"/>
					</g>
					<g class="st16">
						<polygon class="st197" points="36.9,22.3 53.2,41.1 53.2,41.3 36.7,22.3 						"/>
					</g>
					<g class="st16">
						<polygon class="st198" points="37.1,22.3 53.2,40.9 53.2,41.1 36.9,22.3 						"/>
					</g>
					<g class="st16">
						<polygon class="st199" points="37.3,22.3 53.2,40.6 53.2,40.9 37.1,22.3 						"/>
					</g>
					<g class="st16">
						<polygon class="st200" points="37.5,22.3 53.2,40.4 53.2,40.6 37.3,22.3 						"/>
					</g>
					<g class="st16">
						<polygon class="st201" points="37.7,22.3 53.2,40.2 53.2,40.4 37.5,22.3 						"/>
					</g>
					<g class="st16">
						<polygon class="st202" points="37.9,22.3 53.2,39.9 53.2,40.2 37.7,22.3 						"/>
					</g>
					<g class="st16">
						<polygon class="st203" points="38.1,22.3 53.2,39.7 53.2,39.9 37.9,22.3 						"/>
					</g>
					<g class="st16">
						<polygon class="st204" points="38.3,22.3 53.2,39.5 53.2,39.7 38.1,22.3 						"/>
					</g>
					<g class="st16">
						<polygon class="st205" points="38.5,22.3 53.2,39.2 53.2,39.5 38.3,22.3 						"/>
					</g>
					<g class="st16">
						<polygon class="st206" points="38.7,22.3 53.2,39 53.2,39.2 38.5,22.3 						"/>
					</g>
					<g class="st16">
						<polygon class="st207" points="38.9,22.3 53.2,38.8 53.2,39 38.7,22.3 						"/>
					</g>
					<g class="st16">
						<polygon class="st208" points="39.1,22.3 53.2,38.6 53.2,38.8 38.9,22.3 						"/>
					</g>
					<g class="st16">
						<polygon class="st209" points="39.3,22.3 53.2,38.3 53.2,38.6 39.1,22.3 						"/>
					</g>
					<g class="st16">
						<polygon class="st210" points="39.5,22.3 53.2,38.1 53.2,38.3 39.3,22.3 						"/>
					</g>
					<g class="st16">
						<polygon class="st211" points="39.7,22.3 53.2,37.9 53.2,38.1 39.5,22.3 						"/>
					</g>
					<g class="st16">
						<polygon class="st212" points="39.9,22.3 53.2,37.6 53.2,37.9 39.7,22.3 						"/>
					</g>
					<g class="st16">
						<polygon class="st213" points="40.1,22.3 53.2,37.4 53.2,37.6 39.9,22.3 						"/>
					</g>
					<g class="st16">
						<polygon class="st214" points="40.3,22.3 53.2,37.2 53.2,37.4 40.1,22.3 						"/>
					</g>
					<g class="st16">
						<polygon class="st215" points="40.5,22.3 53.2,36.9 53.2,37.2 40.3,22.3 						"/>
					</g>
					<g class="st16">
						<polygon class="st216" points="40.7,22.3 53.2,36.7 53.2,36.9 40.5,22.3 						"/>
					</g>
					<g class="st16">
						<polygon class="st217" points="40.9,22.3 53.2,36.5 53.2,36.7 40.7,22.3 						"/>
					</g>
					<g class="st16">
						<polygon class="st218" points="41.1,22.3 53.2,36.2 53.2,36.5 40.9,22.3 						"/>
					</g>
					<g class="st16">
						<polygon class="st219" points="41.3,22.3 53.2,36 53.2,36.2 41.1,22.3 						"/>
					</g>
					<g class="st16">
						<polygon class="st220" points="41.5,22.3 53.2,35.8 53.2,36 41.3,22.3 						"/>
					</g>
					<g class="st16">
						<polygon class="st221" points="41.7,22.3 53.2,35.5 53.2,35.8 41.5,22.3 						"/>
					</g>
					<g class="st16">
						<polygon class="st222" points="41.9,22.3 53.2,35.3 53.2,35.5 41.7,22.3 						"/>
					</g>
					<g class="st16">
						<polygon class="st223" points="42.1,22.3 53.2,35.1 53.2,35.3 41.9,22.3 						"/>
					</g>
					<g class="st16">
						<polygon class="st224" points="42.3,22.3 53.2,34.8 53.2,35.1 42.1,22.3 						"/>
					</g>
					<g class="st16">
						<polygon class="st225" points="42.5,22.3 53.2,34.6 53.2,34.8 42.3,22.3 						"/>
					</g>
					<g class="st16">
						<polygon class="st226" points="42.7,22.3 53.2,34.4 53.2,34.6 42.5,22.3 						"/>
					</g>
					<g class="st16">
						<polygon class="st227" points="42.9,22.3 53.2,34.2 53.2,34.4 42.7,22.3 						"/>
					</g>
					<g class="st16">
						<polygon class="st228" points="43.1,22.3 53.2,33.9 53.2,34.2 42.9,22.3 						"/>
					</g>
					<g class="st16">
						<polygon class="st229" points="43.3,22.3 53.2,33.7 53.2,33.9 43.1,22.3 						"/>
					</g>
					<g class="st16">
						<polygon class="st230" points="43.5,22.3 53.2,33.5 53.2,33.7 43.3,22.3 						"/>
					</g>
					<g class="st16">
						<polygon class="st231" points="43.7,22.3 53.2,33.2 53.2,33.5 43.5,22.3 						"/>
					</g>
					<g class="st16">
						<polygon class="st232" points="43.9,22.3 53.2,33 53.2,33.2 43.7,22.3 						"/>
					</g>
					<g class="st16">
						<polygon class="st233" points="44.1,22.3 53.2,32.8 53.2,33 43.9,22.3 						"/>
					</g>
					<g class="st16">
						<polygon class="st234" points="44.3,22.3 53.2,32.5 53.2,32.8 44.1,22.3 						"/>
					</g>
					<g class="st16">
						<polygon class="st235" points="44.5,22.3 53.2,32.3 53.2,32.5 44.3,22.3 						"/>
					</g>
					<g class="st16">
						<polygon class="st236" points="44.7,22.3 53.2,32.1 53.2,32.3 44.5,22.3 						"/>
					</g>
					<g class="st16">
						<polygon class="st237" points="44.9,22.3 53.2,31.8 53.2,32.1 44.7,22.3 						"/>
					</g>
					<g class="st16">
						<polygon class="st238" points="45.1,22.3 53.2,31.6 53.2,31.8 44.9,22.3 						"/>
					</g>
					<g class="st16">
						<polygon class="st239" points="45.3,22.3 53.2,31.4 53.2,31.6 45.1,22.3 						"/>
					</g>
					<g class="st16">
						<polygon class="st240" points="45.5,22.3 53.2,31.1 53.2,31.4 45.3,22.3 						"/>
					</g>
					<g class="st16">
						<polygon class="st241" points="45.7,22.3 53.2,30.9 53.2,31.1 45.5,22.3 						"/>
					</g>
					<g class="st16">
						<polygon class="st242" points="45.9,22.3 53.2,30.7 53.2,30.9 45.7,22.3 						"/>
					</g>
					<g class="st16">
						<polygon class="st243" points="46.1,22.3 53.2,30.5 53.2,30.7 45.9,22.3 						"/>
					</g>
					<g class="st16">
						<polygon class="st244" points="46.3,22.3 53.2,30.2 53.2,30.5 46.1,22.3 						"/>
					</g>
					<g class="st16">
						<polygon class="st245" points="46.5,22.3 53.2,30 53.2,30.2 46.3,22.3 						"/>
					</g>
					<g class="st16">
						<polygon class="st246" points="46.7,22.3 53.2,29.8 53.2,30 46.5,22.3 						"/>
					</g>
					<g class="st16">
						<polygon class="st247" points="46.9,22.3 53.2,29.5 53.2,29.8 46.7,22.3 						"/>
					</g>
					<g class="st16">
						<polygon class="st248" points="47.1,22.3 53.2,29.3 53.2,29.5 46.9,22.3 						"/>
					</g>
					<g class="st16">
						<polygon class="st249" points="47.3,22.3 53.2,29.1 53.2,29.3 47.1,22.3 						"/>
					</g>
					<g class="st16">
						<polygon class="st250" points="47.5,22.3 53.2,28.8 53.2,29.1 47.3,22.3 						"/>
					</g>
					<g class="st16">
						<polygon class="st251" points="47.7,22.3 53.2,28.6 53.2,28.8 47.5,22.3 						"/>
					</g>
					<g class="st16">
						<polygon class="st252" points="47.9,22.3 53.2,28.4 53.2,28.6 47.7,22.3 						"/>
					</g>
					<g class="st16">
						<polygon class="st253" points="48.1,22.3 53.2,28.1 53.2,28.4 47.9,22.3 						"/>
					</g>
					<g class="st16">
						<polygon class="st254" points="48.3,22.3 53.2,27.9 53.2,28.1 48.1,22.3 						"/>
					</g>
					<g class="st16">
						<polygon class="st255" points="48.5,22.3 53.2,27.7 53.2,27.9 48.3,22.3 						"/>
					</g>
					<g class="st16">
						<polygon class="st256" points="48.7,22.3 53.2,27.4 53.2,27.7 48.5,22.3 						"/>
					</g>
					<g class="st16">
						<polygon class="st257" points="48.9,22.3 53.2,27.2 53.2,27.4 48.7,22.3 						"/>
					</g>
					<g class="st16">
						<polygon class="st258" points="49.1,22.3 53.2,27 53.2,27.2 48.9,22.3 						"/>
					</g>
					<g class="st16">
						<polygon class="st259" points="49.3,22.3 53.2,26.7 53.2,27 49.1,22.3 						"/>
					</g>
					<g class="st16">
						<polygon class="st260" points="49.5,22.3 53.2,26.5 53.2,26.7 49.3,22.3 						"/>
					</g>
					<g class="st16">
						<polygon class="st261" points="49.7,22.3 53.2,26.3 53.2,26.5 49.5,22.3 						"/>
					</g>
					<g class="st16">
						<polygon class="st261" points="53.2,26.3 49.7,22.3 53.2,22.3 						"/>
					</g>
				</g>
			</g>
			<g>
				<g>
					<path class="st1" d="M36.1,22.8c1.9,0,4.4,0,7.7,0c0.1,0,0.1,0,0.2,0c3.1,0,3.2,0,3.8,0.1c2.6,0.4,4.6,2.3,4.9,5.5
						c0,0.4,0,14.3,0,14.7c-0.2,3.1-2,4.8-4.2,5.4c-0.8,0.2-4.8,0.3-8.8,0.3c-4,0-8-0.1-8.8-0.3c-5.2-1.3-4.2-7-4.2-12.7
						c0-6.8-0.4-9.1,1.6-11.2h0C29.8,23,31.5,22.8,36.1,22.8 M36.1,21.8c-4.6,0-6.7,0.2-8.5,2.1c-2,2.1-2,4.3-1.9,9
						c0,0.9,0,1.8,0,2.9c0,0.8,0,1.6,0,2.4c-0.1,4.9-0.2,10,5,11.4c1.2,0.3,7.2,0.3,9.1,0.3c1.8,0,7.8,0,9.1-0.3
						c2.8-0.7,4.7-3.1,4.9-6.3c0-0.5,0-14.4,0-14.9c-0.3-3.5-2.5-6-5.8-6.5c-0.7-0.1-1-0.1-4-0.1h-0.2c-1.8,0-3.4,0-4.8,0
						C37.9,21.8,36.9,21.8,36.1,21.8L36.1,21.8z"/>
				</g>
			</g>
		</g>
		<g>
			<g>
				<g>
					<path class="st262" d="M39.7,46l-1.9,0c-3.3,0-6.4-0.3-7.7-3.7c-0.6-1.4-0.5-3.5-0.5-5.7l0-1.7c0-2.4,0-4.1,0.5-5.5
						c1.3-3.4,4.4-3.7,7.7-3.7l1.9,0l2.1,0c2.6,0,4.7,0.1,6.3,1.8c1.8,1.8,1.8,4.1,1.8,7.3l0,1l0,1c0,2.4,0,4.1-0.5,5.5
						c-1.3,3.4-4.5,3.7-7.6,3.7C41.3,46,40,46,39.7,46z M38.8,28.5c-6.2,0-6.4,0-6.4,7.3c0,7.3,0,7.3,7.3,7.3c0.4,0,0.8,0,1.1,0
						c0.4,0,0.7,0,1,0c3.4,0,5-0.5,5.1-3.5c0.3-6,0.2-9.1-1-10.3c-0.7-0.8-2-0.9-4.3-0.9c-0.4,0-0.9,0-1.3,0
						C39.9,28.5,39.4,28.5,38.8,28.5C38.8,28.5,38.8,28.5,38.8,28.5z M39.7,41.3c-3,0-5.5-2.4-5.5-5.5c0-3,2.4-5.5,5.5-5.5
						s5.4,2.4,5.4,5.5C45.1,38.9,42.7,41.3,39.7,41.3z M39.7,33.2c-0.8,0-1.5,0.3-2,0.8c-0.4,0.5-0.7,1.1-0.7,1.9
						c0,1.3,0.8,2.7,2.7,2.7c0.8,0,1.5-0.3,2-0.8c0.4-0.5,0.7-1.1,0.7-1.9C42.3,34.6,41.5,33.2,39.7,33.2z M44.8,32.4
						c-0.9,0-1.7-0.8-1.7-1.7c0-0.9,0.8-1.7,1.7-1.7c0.9,0,1.7,0.8,1.7,1.7C46.5,31.6,45.7,32.4,44.8,32.4z"/>
				</g>
			</g>
			<g>
				<g>
					<path class="st1" d="M41.7,26.2c2.6,0,4.5,0.1,5.9,1.6c1.8,1.8,1.6,4.2,1.6,8c0,2.8,0.1,4.8-0.5,6.3c-1.2,3.1-4,3.3-7.1,3.3
						c-0.7,0-1.3,0-2,0c-0.6,0-1.3,0-1.9,0c-3.2,0-6-0.2-7.2-3.3c-0.6-1.5-0.5-3.8-0.5-6.3c0-2.8-0.1-4.8,0.5-6.3
						c1.2-3.1,4-3.3,7.2-3.3c0.6,0,1.2,0,1.9,0c0,0,0,0,0,0h0c0,0,0,0,0,0C40.4,26.3,41.1,26.2,41.7,26.2 M38.8,28L38.8,28
						c-6.4,0-7,0.1-7,7.9c0,7.7,0.2,7.9,7.9,7.9c0.8,0,1.5,0,2.2,0c3.1,0,5.5-0.3,5.6-4C48,28.7,47.3,28,41.7,28
						C40.8,28,39.9,28,38.8,28 M44.8,29.6c0.6,0,1.2,0.5,1.2,1.2s-0.5,1.2-1.2,1.2c-0.6,0-1.2-0.5-1.2-1.2S44.2,29.6,44.8,29.6
						 M39.7,30.9c2.7,0,4.9,2.2,4.9,4.9s-2.2,4.9-4.9,4.9s-4.9-2.2-4.9-4.9S37,30.9,39.7,30.9 M39.7,39.1c4.2,0,4.2-6.4,0-6.4
						C35.4,32.7,35.4,39.1,39.7,39.1 M41.7,25.2c-0.3,0-0.6,0-1,0c-0.4,0-0.7,0-1.1,0c-0.3,0-0.6,0-0.9,0c-0.3,0-0.6,0-0.9,0
						c-2.6,0-6.6,0-8.2,4C29,30.7,29,32.5,29,34.9l0,0.9l0,0.8c0,2.2,0,4.4,0.6,5.9c1.5,4,5.6,4,8.2,4c0.3,0,0.6,0,0.9,0
						c0.3,0,0.6,0,0.9,0c0.3,0,0.7,0,1,0c0.3,0,0.7,0,1,0c2.4,0,6.5,0,8.1-4c0.6-1.5,0.6-3.3,0.6-5.7l0-1c0-0.4,0-0.7,0-1
						c0-3.3,0-5.7-1.9-7.7C46.6,25.3,44.3,25.2,41.7,25.2L41.7,25.2z M38.8,29C38.8,29,38.8,29,38.8,29c0.5,0,1.1,0,1.6,0
						c0.5,0,0.9,0,1.3,0c0.7,0,1.2,0,1.7,0c-0.5,0.4-0.8,1-0.8,1.6c-0.9-0.5-1.9-0.8-2.9-0.8c-3.3,0-6,2.7-6,6c0,3.3,2.7,6,6,6
						c3.3,0,6-2.7,6-6c0-1.1-0.3-2.1-0.8-2.9c0.6,0,1.2-0.3,1.6-0.7c0.2,1.7,0.2,4.2,0,7.5c-0.1,2.6-1.3,3-4.6,3c-0.3,0-0.7,0-1,0
						c-0.4,0-0.8,0-1.1,0c-3.3,0-5.3,0-6.1-0.8c-0.7-0.7-0.8-2.8-0.8-6.1c0-3.5,0.1-5.4,0.8-6.1C34.3,29.1,35.9,29,38.8,29
						C38.8,29,38.8,29,38.8,29L38.8,29z M39.7,38c-0.7,0-1.2-0.2-1.6-0.6c-0.3-0.4-0.5-0.9-0.5-1.5c0-1,0.6-2.2,2.1-2.2
						c0.7,0,1.2,0.2,1.6,0.6c0.3,0.4,0.5,0.9,0.5,1.5C41.8,36.8,41.2,38,39.7,38L39.7,38z"/>
				</g>
			</g>
		</g>
	</g>
	<g>
		<g>
			<g>
				<path class="st263" d="M55.3,67.9c-0.4-1.4-1.5-2.5-2.9-2.9c-2.6-0.7-12.8-0.7-12.8-0.7s-10.2,0-12.8,0.7
					c-1.4,0.4-2.5,1.5-2.9,2.9c-0.7,2.6-0.7,7.8-0.7,7.8s0,5.3,0.7,7.8c0.4,1.4,1.5,2.5,2.9,2.9c2.6,0.7,12.8,0.7,12.8,0.7
					s10.2,0,12.8-0.7c1.4-0.4,2.5-1.5,2.9-2.9c0.7-2.6,0.7-7.8,0.7-7.8S56,70.4,55.3,67.9z"/>
			</g>
			<g>
				<path class="st1" d="M39.6,87.8c-0.4,0-10.3,0-12.9-0.7c-1.6-0.4-2.9-1.7-3.4-3.4c-0.7-2.6-0.7-7.8-0.7-8c0-0.2,0-5.4,0.7-8
					c0.4-1.6,1.8-2.9,3.4-3.4c2.6-0.7,12.5-0.7,12.9-0.7s10.3,0,12.9,0.7c1.6,0.4,2.9,1.7,3.4,3.4c0.7,2.6,0.7,7.8,0.7,8.1
					c0,0.2,0,5.4-0.7,8c-0.4,1.6-1.7,2.9-3.4,3.4C50,87.8,40.1,87.8,39.6,87.8z M39.6,65c-0.1,0-10.1,0-12.6,0.6
					c-1.1,0.3-2.1,1.3-2.4,2.4C24,70.5,24,75.7,24,75.7s0,5.3,0.6,7.7c0.3,1.2,1.2,2.1,2.4,2.4c2.5,0.7,12.5,0.7,12.6,0.7
					s10.1,0,12.6-0.6c1.2-0.3,2.1-1.2,2.4-2.4c0.6-2.4,0.6-7.6,0.6-7.7c0-0.1,0-5.3-0.6-7.7l0,0c-0.3-1.2-1.2-2.1-2.4-2.4
					C49.8,65,39.7,65,39.6,65z"/>
			</g>
		</g>
		<g>
			<g>
				<g>
					<path class="st262" d="M36.4,81.1c-0.1,0-0.2,0-0.2-0.1c-0.1-0.1-0.2-0.2-0.2-0.4v-9.8c0-0.2,0.1-0.3,0.2-0.4
						c0.1,0,0.1-0.1,0.2-0.1c0.1,0,0.2,0,0.2,0.1l8.5,4.9c0.1,0.1,0.2,0.2,0.2,0.4s-0.1,0.3-0.2,0.4L36.6,81
						C36.5,81,36.5,81.1,36.4,81.1z"/>
				</g>
			</g>
			<g>
				<g>
					<path class="st1" d="M36.4,70.8l8.5,4.9l-8.5,4.9V70.8 M36.4,69.9c-0.2,0-0.3,0-0.5,0.1c-0.3,0.2-0.5,0.5-0.5,0.8v9.8
						c0,0.3,0.2,0.6,0.5,0.8c0.1,0.1,0.3,0.1,0.5,0.1c0.2,0,0.3,0,0.5-0.1l8.5-4.9c0.3-0.2,0.5-0.5,0.5-0.8s-0.2-0.6-0.5-0.8
						L36.8,70C36.7,70,36.5,69.9,36.4,69.9L36.4,69.9z"/>
				</g>
			</g>
		</g>
	</g>
	<g>
		<g>
			<g>
				<path class="st7" d="M160.5,75.2h-8.1c-0.4,0-0.8,0.4-0.8,0.8v16.3c0,0.4,0.4,0.8,0.8,0.8h8.1c0.4,0,0.8-0.4,0.8-0.8V76.1
					C161.3,75.6,160.9,75.2,160.5,75.2z"/>
				<path class="st1" d="M160.5,94h-8.1c-0.9,0-1.6-0.7-1.6-1.6V76.1c0-0.9,0.7-1.6,1.6-1.6h8.1c0.9,0,1.6,0.7,1.6,1.6v16.3
					C162.1,93.2,161.3,94,160.5,94z M152.3,76l0,16.3l8.2,0l0-16.3l0,0H152.3z"/>
			</g>
			<g>
				<path class="st7" d="M152.3,83.4h-8.1c-0.4,0-0.8,0.4-0.8,0.8v8.1c0,0.4,0.4,0.8,0.8,0.8h8.1c0.4,0,0.8-0.4,0.8-0.8v-8.1
					C153.1,83.8,152.8,83.4,152.3,83.4z"/>
				<path class="st1" d="M152.3,94h-8.1c-0.9,0-1.6-0.7-1.6-1.6v-8.1c0-0.9,0.7-1.6,1.6-1.6h8.1c0.9,0,1.6,0.7,1.6,1.6v8.1
					C153.9,93.2,153.2,94,152.3,94z M144.2,84.2l0,8.2l8.2,0l0-8.2l0,0H144.2z"/>
			</g>
		</g>
		<g>
			<path class="st264" d="M168.6,67.1h-8.1c-0.4,0-0.8,0.4-0.8,0.8v24.4c0,0.4,0.4,0.8,0.8,0.8h8.1c0.4,0,0.8-0.4,0.8-0.8V67.9
				C169.4,67.5,169.1,67.1,168.6,67.1z"/>
			<path class="st1" d="M168.6,94h-8.1c-0.9,0-1.6-0.7-1.6-1.6V67.9c0-0.9,0.7-1.6,1.6-1.6h8.1c0.9,0,1.6,0.7,1.6,1.6v24.4
				C170.2,93.2,169.5,94,168.6,94z M160.5,67.9l0,24.5l8.2,0l0-24.5l0,0H160.5z"/>
		</g>
	</g>
</g>
</svg>
