<?xml version="1.0" encoding="utf-8"?>
<!-- Generator: Adobe Illustrator 25.0.0, SVG Export Plug-In . SVG Version: 6.00 Build 0)  -->
<svg version="1.1" id="Layer_1" xmlns="http://www.w3.org/2000/svg" xmlns:xlink="http://www.w3.org/1999/xlink" x="0px" y="0px"
	 viewBox="0 0 272.2 150" style="enable-background:new 0 0 272.2 150;" xml:space="preserve">
<style type="text/css">
	.st0{fill:#F4EAE6;}
	.st1{fill:#BECAF5;}
	.st2{fill:#3C58A0;}
	.st3{fill:#DEEEFF;}
	.st4{fill:#2A428C;}
	.st5{fill:#1C2E7A;}
	.st6{fill:#FF4155;}
	.st7{fill:#FFDD40;}
	.st8{fill:#88CE65;}
	.st9{fill:#6289CC;}
	.st10{fill:#4369FD;}
	.st11{fill:#B5A7A3;}
	.st12{fill:#748FA5;}
	.st13{fill:#6A8291;}
	.st14{fill:#70D6F9;}
	.st15{fill:#67CAE5;}
	.st16{fill:#35414D;}
	.st17{fill:#656D78;}
	.st18{fill:#F4F6F8;}
	.st19{fill:#E4E8EB;}
	.st20{fill:#B3A4EE;}
	.st21{fill:#AC92EA;}
	.st22{fill:#FBD277;}
	.st23{fill:#F76C82;}
	.st24{fill:#EB5463;}
	.st25{fill:#FDCD56;}
	.st26{fill:#434A54;}
	.st27{fill:#FFA733;}
	.st28{fill:#FF5A5A;}
	.st29{fill:#D6DF58;}
	.st30{fill:#F16C7A;}
	.st31{fill:#3A312A;}
	.st32{fill:#D7E057;}
	.st33{fill:#8AC6DD;}
	.st34{fill:#FDF6EC;}
	.st35{fill:#EFD299;}
	.st36{fill:#DEC089;}
	.st37{fill:#ECECEC;}
	.st38{fill:#FFDC7C;}
	.st39{fill:#EAC05C;}
	.st40{fill-rule:evenodd;clip-rule:evenodd;fill:#FFB54C;}
	.st41{fill-rule:evenodd;clip-rule:evenodd;fill:#35414D;}
	.st42{fill-rule:evenodd;clip-rule:evenodd;fill:#FFA733;}
	.st43{fill-rule:evenodd;clip-rule:evenodd;fill:#2FB1D4;}
	.st44{fill-rule:evenodd;clip-rule:evenodd;fill:#FF5A5A;}
</style>
<g>
	<g>
		<g>
			<g>
				<path class="st0" d="M179.1,146.2H86.6c-3.3,0-5.9-2.7-5.9-5.9V82.4c0-3.3,2.7-5.9,5.9-5.9h92.6c3.3,0,5.9,2.7,5.9,5.9v57.9
					C185.1,143.6,182.4,146.2,179.1,146.2z"/>
			</g>
			<g>
				<g>
					<path class="st1" d="M110.8,29.1c0,4.7-3.8,8.4-8.4,8.4H185v-8.4H110.8z"/>
				</g>
				<g>
					<path class="st2" d="M80.6,29.1v8.4h22.3c4.7,0,8.4-3.8,8.4-8.4H80.6z"/>
				</g>
				<g>
					<path class="st0" d="M185,37v81.5c-11.4,16.7-30.5,27.7-52.2,27.7c-3.1,0-6.2-0.2-9.2-0.7c-0.2,0-0.4-0.1-0.5-0.1
						c-17.6-2.7-32.8-12.8-42.5-26.9V37H185z"/>
				</g>
				<g>
					<path class="st3" d="M123.6,145.6c-0.2,0-0.4-0.1-0.5-0.1C123.3,145.5,123.5,145.5,123.6,145.6L123.6,145.6z"/>
				</g>
				<g>
					<path class="st4" d="M177.9,14.4h-68.5c0,0-2.5,2.6,0,5.1l0.3,4.9c0,0-2.2,3.2,1.2,5.3h76.5v-6.1
						C187.3,18.5,183.1,14.4,177.9,14.4z"/>
				</g>
				<g>
					<path class="st5" d="M88.9,14.1c-5.3,0-9.6,4.2-9.6,9.4v6.2h32c-3.4-2.1-1.2-5.4-1.2-5.4l-0.4-5c-2.6-2.5,0-5.2,0-5.2
						L88.9,14.1L88.9,14.1z"/>
				</g>
				<g>
					<path class="st6" d="M94.9,22c0,1.6-1.3,3-3,3s-3-1.3-3-3c0-1.6,1.3-3,3-3S94.9,20.4,94.9,22z"/>
				</g>
				<g>
					<path class="st7" d="M103.1,22c0,1.6-1.3,3-3,3s-3-1.3-3-3c0-1.6,1.3-3,3-3S103.1,20.4,103.1,22z"/>
				</g>
				<g>
					<path class="st8" d="M111.3,22c0,1.6-1.3,3-3,3s-3-1.3-3-3c0-1.6,1.3-3,3-3C110,19,111.3,20.4,111.3,22L111.3,22z"/>
				</g>
				<g>
					<path class="st2" d="M136.7,22c0-1.1,0.9-2,2-2h-17.6c-1.1,0-2,0.9-2,2c0,1.1,0.9,2,2,2h17.6C137.6,24,136.7,23.1,136.7,22z"/>
				</g>
				<g>
					<path class="st9" d="M153,22c0-1.1-0.9-2-2-2h-12.9c-1.1,0-2,0.9-2,2c0,1.1,0.9,2,2,2h12.9C152.2,24,153,23.1,153,22z"/>
				</g>
				<g>
					<g>
						<path class="st9" d="M175,24h-2.6c-1.1,0-2-0.9-2-2c0-1.1,0.9-2,2-2h2.6c1.1,0,2,0.9,2,2C176.9,23.1,176.1,24,175,24z"/>
					</g>
				</g>
				<g>
					<g>
						<path class="st2" d="M166,24h-2.6c-1.1,0-2-0.9-2-2c0-1.1,0.9-2,2-2h2.6c1.1,0,2,0.9,2,2C168,23.1,167.1,24,166,24z"/>
					</g>
				</g>
				<g id="g9219_1_" transform="translate(244.6719,249.1592)">
					<g id="path9221_1_">
						<path class="st10" d="M-114.2-174.5c0,1-0.8,1.8-1.8,1.8c-1,0-1.8-0.8-1.8-1.8c0-1,0.8-1.8,1.8-1.8
							C-115-176.3-114.2-175.5-114.2-174.5"/>
					</g>
				</g>
				<g id="g9223_1_" transform="translate(261.5937,249.1592)">
					<g id="path9225_1_">
						<path class="st11" d="M-125.7-174.5c0,1-0.8,1.8-1.8,1.8c-1,0-1.8-0.8-1.8-1.8c0-1,0.8-1.8,1.8-1.8
							C-126.5-176.3-125.7-175.5-125.7-174.5"/>
					</g>
				</g>
				<g id="g9227_1_" transform="translate(278.5156,249.1592)">
					<g id="path9229_1_">
						<path class="st11" d="M-137.2-174.5c0,1-0.8,1.8-1.8,1.8c-1,0-1.8-0.8-1.8-1.8c0-1,0.8-1.8,1.8-1.8
							C-138-176.3-137.2-175.5-137.2-174.5"/>
					</g>
				</g>
				<g>
					<g id="g9231_1_" transform="translate(199.4058,152.8955)">
						<g id="path9233_1_">
							<path class="st12" d="M-84.3-50.1h-20.2c-0.5,0-1-0.4-1-1v-14.4c0-0.5,0.4-1,1-1h20.2c0.5,0,1,0.4,1,1v14.4
								C-83.4-50.6-83.8-50.1-84.3-50.1"/>
						</g>
					</g>
					<g id="g9235_1_" transform="translate(188.9829,152.8975)">
						<g id="path9237_1_">
							<path class="st13" d="M-77.3-50.1H-85v-9.5c0-0.5,0.4-1,1-1h5.8c0.5,0,1,0.4,1,1V-50.1z"/>
						</g>
					</g>
					<g id="g9239_1_" transform="translate(185.4336,127.335)">
						<g id="path9241_1_">
							<path class="st11" d="M-74.9-16.3H-86c-0.9,0-1.6-0.7-1.6-1.6c0-0.9,0.7-1.6,1.6-1.6h11.2c0.9,0,1.6,0.7,1.6,1.6
								C-73.2-17.1-74-16.3-74.9-16.3"/>
						</g>
					</g>
					<g id="g9251_1_" transform="translate(286.1025,152.8955)">
						<g id="path9253_1_">
							<path class="st12" d="M-143.1-50.1h-20.2c-0.5,0-1-0.4-1-1v-14.4c0-0.5,0.4-1,1-1h20.2c0.5,0,1,0.4,1,1v14.4
								C-142.2-50.6-142.6-50.1-143.1-50.1"/>
						</g>
					</g>
					<g id="g9255_1_" transform="translate(275.6797,152.8975)">
						<g id="path9257_1_">
							<path class="st13" d="M-136.1-50.1h-7.7v-9.5c0-0.5,0.4-1,1-1h5.8c0.5,0,1,0.4,1,1V-50.1z"/>
						</g>
					</g>
					<g id="g9259_1_" transform="translate(272.1304,127.335)">
						<g id="path9261_1_">
							<path class="st11" d="M-133.6-16.3h-11.2c-0.9,0-1.6-0.7-1.6-1.6c0-0.9,0.7-1.6,1.6-1.6h11.2c0.9,0,1.6,0.7,1.6,1.6
								C-132-17.1-132.8-16.3-133.6-16.3"/>
						</g>
					</g>
					<g id="g9271_1_" transform="translate(372.7988,152.8955)">
						<g id="path9273_1_">
							<path class="st12" d="M-201.9-50.1h-20.2c-0.5,0-1-0.4-1-1v-14.4c0-0.5,0.4-1,1-1h20.2c0.5,0,1,0.4,1,1v14.4
								C-200.9-50.6-201.4-50.1-201.9-50.1"/>
						</g>
					</g>
					<g id="g9275_1_" transform="translate(362.3765,152.8975)">
						<g id="path9277_1_">
							<path class="st13" d="M-194.8-50.1h-7.7v-9.5c0-0.5,0.4-1,1-1h5.8c0.5,0,1,0.4,1,1V-50.1z"/>
						</g>
					</g>
					<g id="g9279_1_" transform="translate(358.8271,127.335)">
						<g id="path9281_1_">
							<path class="st11" d="M-192.4-16.3h-11.2c-0.9,0-1.6-0.7-1.6-1.6c0-0.9,0.7-1.6,1.6-1.6h11.2c0.9,0,1.6,0.7,1.6,1.6
								C-190.8-17.1-191.5-16.3-192.4-16.3"/>
						</g>
					</g>
				</g>
				<g>
					<g id="g9243_1_" transform="translate(199.9019,91.3535)">
						<g id="path9245_1_">
							<path class="st12" d="M-82.7,31.4h-17.1c-0.8,0-1.4-0.6-1.4-1.4c0-0.8,0.6-1.4,1.4-1.4h17.1c0.8,0,1.4,0.6,1.4,1.4
								C-81.3,30.8-81.9,31.4-82.7,31.4"/>
						</g>
					</g>
					<g id="g9247_1_" transform="translate(199.9019,71.8398)">
						<g id="path9249_1_">
							<path class="st12" d="M-82.7,56.4h-17.1c-0.8,0-1.4-0.6-1.4-1.4c0-0.8,0.6-1.4,1.4-1.4h17.1c0.8,0,1.4,0.6,1.4,1.4
								C-81.3,55.7-81.9,56.4-82.7,56.4"/>
						</g>
					</g>
					<g id="g9263_1_" transform="translate(286.5986,91.3535)">
						<g id="path9265_1_">
							<path class="st12" d="M-145.2,31.4h-17.1c-0.8,0-1.4-0.6-1.4-1.4c0-0.8,0.6-1.4,1.4-1.4h17.1c0.8,0,1.4,0.6,1.4,1.4
								C-143.8,30.8-144.4,31.4-145.2,31.4"/>
						</g>
					</g>
					<g id="g9267_1_" transform="translate(286.5986,71.8398)">
						<g id="path9269_1_">
							<path class="st12" d="M-145.2,56.4h-17.1c-0.8,0-1.4-0.6-1.4-1.4c0-0.8,0.6-1.4,1.4-1.4h17.1c0.8,0,1.4,0.6,1.4,1.4
								C-143.8,55.7-144.4,56.4-145.2,56.4"/>
						</g>
					</g>
					<g id="g9283_1_" transform="translate(373.2954,91.3535)">
						<g id="path9285_1_">
							<path class="st12" d="M-207.6,31.4h-17.1c-0.8,0-1.4-0.6-1.4-1.4c0-0.8,0.6-1.4,1.4-1.4h17.1c0.8,0,1.4,0.6,1.4,1.4
								C-206.2,30.8-206.9,31.4-207.6,31.4"/>
						</g>
					</g>
					<g id="g9287_1_" transform="translate(373.2954,71.8398)">
						<g id="path9289_1_">
							<path class="st12" d="M-207.6,56.4h-17.1c-0.8,0-1.4-0.6-1.4-1.4c0-0.8,0.6-1.4,1.4-1.4h17.1c0.8,0,1.4,0.6,1.4,1.4
								C-206.2,55.7-206.9,56.4-207.6,56.4"/>
						</g>
					</g>
				</g>
				<g>
					<rect x="93.9" y="115.5" class="st2" width="77.9" height="0.2"/>
				</g>
				<g>
					<g>
						<path class="st14" d="M87.6,40.7h90.5v40.6H87.6L87.6,40.7z"/>
					</g>
					<g>
						<path class="st15" d="M178.1,40.7v40.6H87.6v-8.7h57.6c14.2,0,25.7-13.9,25.7-31v-0.9L178.1,40.7z"/>
					</g>
				</g>
			</g>
			<g>
				<path class="st16" d="M173.3,14.6c6.4,0,11.6,5.2,11.6,11.6v108.2c0,6.4-5.2,11.6-11.6,11.6H92.4c-6.4,0-11.6-5.2-11.6-11.6
					V26.2c0-6.4,5.2-11.6,11.6-11.6H173.3 M173.3,10.6H92.4c-8.6,0-15.6,7-15.6,15.6v108.2c0,8.6,7,15.6,15.6,15.6h80.9
					c8.6,0,15.6-7,15.6-15.6V26.2C188.9,17.6,181.9,10.6,173.3,10.6L173.3,10.6z"/>
			</g>
		</g>
		<g>
			<g>
				<polygon class="st17" points="268.9,15.1 268.4,15.1 268.4,26.5 159.9,26.5 159.9,13.9 158.4,12.1 159.2,5 162.6,2.7 169.6,3.8 
					257.1,3.8 257.1,2.7 268.4,3.8 				"/>
			</g>
			<g>
				<path class="st18" d="M268.4,26.5v93.9c0,6.5-4.4,11.8-9.8,11.8h-89c-7,2.3-13.4,0-9.8-11.8l0,0V26.5L268.4,26.5z"/>
			</g>
			<g>
				<path class="st19" d="M268.4,26.5v93.9c0.5,6.3,3.7,14-9.8,11.8h-89c-11.8,1.4-11.8-4.5-10.5-9.1c0.7,0.2,2.5,0.3,3.2,0.3h11.1
					c45.6,0,83.5-42.1,87.3-96.9L268.4,26.5z"/>
			</g>
			<g>
				<path class="st20" d="M168.9,85.8h26.4V107h-26.4V85.8z"/>
			</g>
			<g>
				<path class="st21" d="M195.3,85.8V107h-26.4v-6.6h3.3c7.6,0,14.4-5.9,16.7-14.6L195.3,85.8z"/>
			</g>
			<g>
				<path class="st22" d="M200.9,85.8h26.4V107h-26.4V85.8z"/>
			</g>
			<g>
				<g>
					<path class="st23" d="M168.9,36.5h90.5v40.6h-90.5V36.5z"/>
				</g>
				<g>
					<path class="st24" d="M259.4,36.5v40.6h-90.5v-8.7h57.6c14.2,0,25.7-13.9,25.7-31v-0.9L259.4,36.5z"/>
				</g>
			</g>
			<g>
				<path class="st14" d="M233,85.8h26.4V107H233V85.8z"/>
			</g>
			<g>
				<path class="st15" d="M259.4,85.8V107H233v-6.6h3.3c7.6,0,14.4-5.9,16.7-14.6L259.4,85.8z"/>
			</g>
			<g>
				<path class="st25" d="M227.3,85.8V107h-26.4v-6.6h3.3c7.6,0,14.4-5.9,16.8-14.6L227.3,85.8z"/>
			</g>
			<g>
				<g>
					<path class="st26" d="M195.3,116.9h-16.9c-0.6,0-1.1-0.6-1.1-1.4c0-0.8,0.5-1.4,1.1-1.4h16.9c0.6,0,1.1,0.6,1.1,1.4
						C196.4,116.3,195.9,116.9,195.3,116.9z"/>
				</g>
				<g>
					<path class="st27" d="M173.8,116.9h-4.9c-0.6,0-1.1-0.6-1.1-1.4c0-0.8,0.5-1.4,1.1-1.4h4.9c0.6,0,1.1,0.6,1.1,1.4
						C174.9,116.3,174.4,116.9,173.8,116.9z"/>
				</g>
				<g>
					<path class="st26" d="M195.3,125.5h-26.4c-0.6,0-1.1-0.6-1.1-1.4c0-0.8,0.5-1.4,1.1-1.4h26.4c0.6,0,1.1,0.6,1.1,1.4
						C196.4,124.9,195.9,125.5,195.3,125.5z"/>
				</g>
				<g>
					<path class="st26" d="M227.3,116.9h-16.9c-0.6,0-1.1-0.6-1.1-1.4c0-0.8,0.5-1.4,1.1-1.4h16.9c0.6,0,1.1,0.6,1.1,1.4
						C228.5,116.3,228,116.9,227.3,116.9z"/>
				</g>
				<g>
					<path class="st28" d="M205.9,116.9h-4.9c-0.6,0-1.1-0.6-1.1-1.4c0-0.8,0.5-1.4,1.1-1.4h4.9c0.6,0,1.1,0.6,1.1,1.4
						C207,116.3,206.5,116.9,205.9,116.9z"/>
				</g>
				<g>
					<path class="st26" d="M227.3,125.5h-26.4c-0.6,0-1.1-0.6-1.1-1.4c0-0.8,0.5-1.4,1.1-1.4h26.4c0.6,0,1.1,0.6,1.1,1.4
						C228.5,124.9,228,125.5,227.3,125.5z"/>
				</g>
				<g>
					<path class="st26" d="M259.4,116.9h-16.9c-0.6,0-1.1-0.6-1.1-1.4c0-0.8,0.5-1.4,1.1-1.4h16.9c0.6,0,1.1,0.6,1.1,1.4
						C260.5,116.3,260,116.9,259.4,116.9z"/>
				</g>
				<g>
					<path class="st29" d="M237.9,116.9H233c-0.6,0-1.1-0.6-1.1-1.4c0-0.8,0.5-1.4,1.1-1.4h4.9c0.6,0,1.1,0.6,1.1,1.4
						C239.1,116.3,238.5,116.9,237.9,116.9z"/>
				</g>
				<g>
					<path class="st26" d="M259.4,125.5H233c-0.6,0-1.1-0.6-1.1-1.4c0-0.8,0.5-1.4,1.1-1.4h26.4c0.6,0,1.1,0.6,1.1,1.4
						C260.5,124.9,260,125.5,259.4,125.5z"/>
				</g>
			</g>
			<g>
				<g>
					<g>
						<circle class="st30" cx="173.7" cy="15.1" r="3.9"/>
					</g>
					<g>
						<path class="st31" d="M173.7,19.9c-2.6,0-4.8-2.1-4.8-4.8s2.1-4.8,4.8-4.8c2.6,0,4.8,2.1,4.8,4.8S176.3,19.9,173.7,19.9z
							 M173.7,12.1c-1.7,0-3,1.4-3,3s1.4,3,3,3c1.7,0,3-1.4,3-3C176.7,13.5,175.4,12.1,173.7,12.1z"/>
					</g>
				</g>
				<g>
					<g>
						<circle class="st32" cx="185.8" cy="15.1" r="3.9"/>
					</g>
					<g>
						<path class="st31" d="M185.8,19.9c-2.6,0-4.8-2.1-4.8-4.8s2.1-4.8,4.8-4.8s4.8,2.1,4.8,4.8S188.5,19.9,185.8,19.9z
							 M185.8,12.1c-1.7,0-3,1.4-3,3s1.4,3,3,3s3-1.4,3-3C188.9,13.5,187.5,12.1,185.8,12.1z"/>
					</g>
				</g>
				<g>
					<g>
						<circle class="st33" cx="198" cy="15.1" r="3.9"/>
					</g>
					<g>
						<path class="st31" d="M198,19.9c-2.6,0-4.8-2.1-4.8-4.8s2.1-4.8,4.8-4.8c2.6,0,4.8,2.1,4.8,4.8S200.6,19.9,198,19.9z
							 M198,12.1c-1.7,0-3,1.4-3,3s1.4,3,3,3s3-1.4,3-3C201.1,13.5,199.7,12.1,198,12.1z"/>
					</g>
				</g>
				<g>
					<path class="st34" d="M256.1,18.4h-37.3c-1.8,0-3.3-1.5-3.3-3.3v0c0-1.8,1.5-3.3,3.3-3.3h37.3c1.8,0,3.3,1.5,3.3,3.3v0
						C259.4,16.9,257.9,18.4,256.1,18.4z"/>
					<path class="st16" d="M256.1,19.2h-37.3c-2.2,0-4.1-1.8-4.1-4.1s1.8-4.1,4.1-4.1h37.3c2.2,0,4.1,1.8,4.1,4.1
						S258.4,19.2,256.1,19.2z M218.8,12.7c-1.4,0-2.5,1.1-2.5,2.5s1.1,2.5,2.5,2.5h37.3c1.4,0,2.5-1.1,2.5-2.5s-1.1-2.5-2.5-2.5
						H218.8z"/>
				</g>
			</g>
			<g>
				<path class="st16" d="M258.9,3.8c5.3,0,9.6,4.3,9.6,9.6v109.3c0,5.3-4.3,9.6-9.6,9.6h-89.4c-5.3,0-9.6-4.3-9.6-9.6V13.3
					c0-5.3,4.3-9.6,9.6-9.6H258.9 M258.9,0h-89.4c-7.4,0-13.3,6-13.3,13.3v109.3c0,7.4,6,13.3,13.3,13.3h89.4
					c7.4,0,13.3-6,13.3-13.3V13.3C272.2,6,266.2,0,258.9,0L258.9,0z"/>
			</g>
		</g>
	</g>
	<g>
		<g>
			<path class="st16" d="M62.1,96.3c0-2.5-1.2-4.9-3.2-6.4c0.5-0.9,0.7-1.9,0.7-3c0-3.6-3-6.6-6.8-6.6h0v0c0-2.8-2.3-5-5.1-5
				c-0.6,0-1.2,0.1-1.8,0.3c-0.2-0.8-0.6-1.5-1.1-2.1c-0.8-0.7-1.8-1.2-2.9-1.2c-2.3,0-4.1,1.9-4.1,4.1V101h-3.4V76.4
				c0-2.3-1.9-4.1-4.1-4.1c-1.1,0-2.1,0.4-2.9,1.2c-0.6,0.6-1,1.3-1.1,2.1c-0.6-0.2-1.2-0.3-1.8-0.3c-2.8,0-5.1,2.3-5.1,5v0h0
				c-3.7,0-6.8,2.9-6.8,6.6c0,1.1,0.2,2.1,0.7,3c-2,1.5-3.2,3.9-3.2,6.4c0,2,0.7,3.9,2,5.3c-0.2,0.3-0.3,0.6-0.2,0.9
				c0.7,5,2.6,9.7,5.3,13c4.6,5.6,6.8,9.5,7,15.4c-0.4,0.2-0.7,0.6-0.7,1.1v8.7c0,1.7,1.3,3.1,2.9,3.3c0.7,2.9,3.8,5,7.5,5h4.5
				c3.7,0,6.8-2.2,7.5-5c1.6-0.2,2.9-1.6,2.9-3.3v-3.3c0,0,0,0,0,0v-5.4c0-0.5-0.3-0.9-0.7-1.1c0.1-6,2.4-9.8,7-15.4
				c2.7-3.3,4.6-8,5.3-13c0-0.3-0.1-0.6-0.2-0.9C61.4,100.1,62.1,98.3,62.1,96.3L62.1,96.3z M12.7,96.3c0-1.8,0.9-3.4,2.3-4.4
				c0.5,0.4,1.2,0.8,2.3,1.3c0.2,0.1,0.3,0.1,0.5,0.1c0.5,0,1-0.3,1.2-0.8c0.3-0.7,0-1.5-0.7-1.8c-1.5-0.7-2.2-1.3-2.2-1.4
				c-0.6-0.7-1-1.6-1-2.5c0-2.1,1.8-3.9,4.1-3.9c0.5,0,0.9,0.1,1.3,0.2c0.5,0.2,1.1,0,1.4-0.4c0.4-0.4,0.5-1,0.2-1.5
				C22.1,81,22,80.6,22,80.3c0-1.3,1.1-2.4,2.4-2.4c0.8,0,1.5,0.4,1.9,1c0.3,0.5,1,0.7,1.5,0.5c0.6-0.2,0.9-0.7,0.9-1.3v-1.7
				c0-0.4,0.2-0.8,0.4-1c0.3-0.3,0.7-0.4,1.1-0.4c0.8,0,1.5,0.7,1.5,1.5v3.9c-1,0.3-2.4,1-3.3,2.5c-0.4,0.6-0.2,1.5,0.5,1.8
				c0.2,0.1,0.4,0.2,0.7,0.2c0.5,0,0.9-0.2,1.2-0.7c0.2-0.4,0.6-0.7,1-1v7.4c-1.5,0.2-3.7,1.1-5.2,3.9c-0.4,0.6-0.1,1.5,0.5,1.8
				c0.2,0.1,0.4,0.2,0.6,0.2c0.5,0,0.9-0.2,1.2-0.7c0.9-1.5,2-2.2,2.9-2.4v7.5H18.4c0.2-0.2,0.5-0.4,0.7-0.6
				c0.6-0.4,0.7-1.3,0.3-1.9c-0.5-0.6-1.3-0.7-1.9-0.2c-1.3,1-2.1,1.8-2.7,2.3C13.5,99.6,12.7,98,12.7,96.3L12.7,96.3z M38.3,146.5
				h-4.5c-2,0-3.9-1-4.6-2.3h13.7C42.2,145.5,40.4,146.5,38.3,146.5z M46,140.8c0,0.4-0.3,0.7-0.7,0.7H26.8c-0.4,0-0.7-0.3-0.7-0.7
				v-2h20L46,140.8L46,140.8z M46,136.1H26.1v-2.7h20L46,136.1L46,136.1z M53,113.8c-4.2,5.1-7.4,9.6-7.6,17H26.8
				c-0.2-7.3-3.4-11.9-7.6-17c-2.1-2.5-3.7-6.2-4.5-10.1h42.7C56.6,107.5,55,111.3,53,113.8L53,113.8z M57.3,100.6
				c-0.5-0.6-1.4-1.3-2.7-2.3c-0.6-0.4-1.4-0.3-1.9,0.2c-0.4,0.6-0.3,1.4,0.3,1.9c0.3,0.2,0.5,0.4,0.8,0.6H40.5v-7.5
				c0.9,0.2,2,0.9,2.9,2.4c0.2,0.4,0.7,0.7,1.2,0.7c0.2,0,0.4-0.1,0.6-0.2c0.7-0.4,0.9-1.2,0.5-1.8c-1.5-2.8-3.8-3.6-5.2-3.9v-7.4
				c0.4,0.2,0.7,0.5,1,0.9s0.7,0.7,1.2,0.7c0.2,0,0.5-0.1,0.7-0.2c0.6-0.4,0.9-1.2,0.5-1.8c-0.9-1.5-2.3-2.2-3.3-2.5v-3.9
				c0-0.8,0.7-1.5,1.5-1.5c0.5,0,0.9,0.2,1.1,0.4c0.3,0.3,0.4,0.6,0.4,1v1.7c0,0.6,0.4,1.1,0.9,1.3c0.6,0.2,1.2,0,1.5-0.5
				c0.4-0.6,1.1-1,1.9-1c1.3,0,2.4,1.1,2.4,2.4c0,0.4-0.1,0.7-0.2,1.1c-0.2,0.5-0.1,1.1,0.2,1.5s0.9,0.6,1.5,0.4
				c0.4-0.2,0.8-0.2,1.3-0.2c2.3,0,4.1,1.7,4.1,3.9c0,0.9-0.3,1.8-1,2.5c-0.1,0.1-0.7,0.7-2.2,1.4c-0.7,0.3-1,1.1-0.7,1.8
				c0.2,0.5,0.7,0.8,1.2,0.8c0.2,0,0.4,0,0.6-0.1c1-0.5,1.8-0.9,2.3-1.3c1.4,1,2.3,2.6,2.3,4.4C59.4,98,58.6,99.6,57.3,100.6
				L57.3,100.6z"/>
		</g>
		<g>
			<path class="st35" d="M31.7,80.4v-3.9c0-0.8-0.7-1.5-1.5-1.5c-0.4,0-0.8,0.2-1.1,0.4c-0.3,0.3-0.4,0.6-0.4,1v1.7
				c0,0.6-0.4,1.1-0.9,1.3c-0.6,0.2-1.2,0-1.5-0.5c-0.4-0.6-1.1-1-1.9-1c-1.3,0-2.4,1.1-2.4,2.4c0,0.3,0.1,0.7,0.3,1.1
				c0.2,0.5,0.1,1.1-0.2,1.5c-0.4,0.4-0.9,0.6-1.4,0.4C20.2,83,19.8,83,19.3,83c-2.3,0-4.1,1.7-4.1,3.9c0,0.9,0.3,1.8,1,2.5
				c0,0.1,0.7,0.7,2.2,1.4c0.7,0.3,1,1.1,0.7,1.8c-0.2,0.5-0.7,0.8-1.2,0.8c-0.2,0-0.4,0-0.5-0.1c-1-0.5-1.8-0.9-2.3-1.3
				c-1.4,1-2.3,2.6-2.3,4.4c0,1.7,0.8,3.3,2.2,4.3c0.5-0.6,1.4-1.3,2.7-2.3c0.6-0.4,1.4-0.3,1.9,0.2c0.4,0.6,0.3,1.4-0.3,1.9
				c-0.3,0.2-0.5,0.4-0.7,0.6h13.3v-7.5c-0.9,0.2-2,0.9-2.9,2.4c-0.2,0.4-0.7,0.7-1.2,0.7c-0.2,0-0.4-0.1-0.6-0.2
				c-0.6-0.4-0.9-1.2-0.5-1.8c1.5-2.8,3.8-3.6,5.2-3.9v-7.4c-0.4,0.2-0.7,0.5-1,1c-0.2,0.4-0.7,0.7-1.2,0.7c-0.2,0-0.5-0.1-0.7-0.2
				c-0.6-0.4-0.9-1.2-0.5-1.8C29.3,81.4,30.7,80.7,31.7,80.4L31.7,80.4z M28.3,87.5c0,0.7-0.6,1.3-1.3,1.3c0,0,0,0,0,0
				c-0.1,0-3.3,0-3.9,2c-0.2,0.6-0.7,1-1.3,1c-0.1,0-0.2,0-0.4-0.1c-0.7-0.2-1.1-1-0.9-1.7c1.2-4,6.3-4,6.5-3.9
				C27.7,86.1,28.3,86.8,28.3,87.5L28.3,87.5z"/>
		</g>
		<g>
			<path class="st35" d="M57.1,91.9c-0.5,0.4-1.2,0.8-2.3,1.3c-0.2,0.1-0.4,0.1-0.6,0.1c-0.5,0-1-0.3-1.2-0.8
				c-0.3-0.7,0-1.5,0.7-1.8c1.5-0.7,2.2-1.3,2.2-1.4c0.6-0.7,1-1.6,1-2.5c0-2.1-1.8-3.9-4.1-3.9c-0.5,0-0.9,0.1-1.3,0.2
				c-0.5,0.2-1.1,0-1.5-0.4c-0.4-0.4-0.5-1-0.2-1.5c0.2-0.3,0.2-0.7,0.2-1.1c0-1.3-1.1-2.4-2.4-2.4c-0.8,0-1.5,0.4-1.9,1
				c-0.3,0.5-1,0.7-1.5,0.5c-0.6-0.2-0.9-0.7-0.9-1.3v-1.7c0-0.4-0.2-0.8-0.4-1c-0.2-0.2-0.6-0.4-1.1-0.4c-0.8,0-1.5,0.7-1.5,1.5
				v3.9c1,0.3,2.4,1,3.3,2.5c0.4,0.6,0.2,1.5-0.5,1.8c-0.2,0.1-0.4,0.2-0.7,0.2c-0.5,0-0.9-0.2-1.2-0.7c-0.2-0.4-0.6-0.7-1-0.9v7.4
				c1.5,0.3,3.7,1.1,5.2,3.9c0.3,0.6,0.1,1.5-0.5,1.8c-0.2,0.1-0.4,0.2-0.6,0.2c-0.5,0-0.9-0.2-1.2-0.7c-0.9-1.6-2-2.2-2.9-2.4v7.5
				h13.3c-0.2-0.2-0.5-0.4-0.8-0.6c-0.6-0.4-0.7-1.3-0.3-1.9c0.5-0.6,1.3-0.7,1.9-0.2c1.3,1,2.1,1.8,2.7,2.3c1.4-1,2.2-2.5,2.2-4.3
				C59.4,94.5,58.5,92.9,57.1,91.9L57.1,91.9z M50.8,91.8c-0.1,0-0.2,0.1-0.4,0.1c-0.6,0-1.1-0.4-1.3-1c-0.3-1-1.3-1.5-2.2-1.8
				c-0.9-0.2-1.7-0.2-1.8-0.2c-0.7,0-1.3-0.6-1.3-1.3c0-0.7,0.6-1.3,1.3-1.3c0.2,0,5.4,0,6.5,3.9C51.9,90.8,51.5,91.6,50.8,91.8z"/>
		</g>
		<g>
			<path class="st36" d="M21.3,100.4c-0.3,0.2-0.5,0.4-0.7,0.6h-2.1c0.2-0.2,0.5-0.4,0.7-0.6c0.6-0.4,0.7-1.3,0.3-1.9c0,0,0,0,0,0
				c0.1-0.1,0.2-0.2,0.3-0.2c0.6-0.4,1.4-0.3,1.9,0.2C22,99.1,21.9,99.9,21.3,100.4L21.3,100.4z"/>
		</g>
		<g>
			<path class="st36" d="M31.3,75.4c-0.2,0.3-0.4,0.6-0.4,1v1.7c0,0.6-0.4,1.1-0.9,1.3c-0.5,0.2-1.1,0-1.5-0.5
				c0.2-0.2,0.3-0.5,0.3-0.8v-1.7c0-0.4,0.2-0.8,0.4-1c0.3-0.3,0.7-0.4,1.1-0.4C30.6,75,31,75.1,31.3,75.4z"/>
		</g>
		<g>
			<path class="st36" d="M24.2,80.3c0,0.3,0.1,0.7,0.3,1.1c0.2,0.5,0.1,1.1-0.2,1.5s-0.9,0.6-1.4,0.4c-0.3-0.1-0.6-0.2-0.9-0.2
				c0.1-0.1,0.2-0.1,0.2-0.2c0.4-0.4,0.5-1,0.2-1.5C22.1,81,22,80.6,22,80.3c0-1.3,1.1-2.4,2.4-2.4c0.4,0,0.7,0.1,1.1,0.2
				C24.7,78.6,24.2,79.3,24.2,80.3L24.2,80.3z"/>
		</g>
		<g>
			<path class="st36" d="M21.3,91.7c0,0.2,0,0.5-0.1,0.7C21,93,20.5,93.3,20,93.3c-0.2,0-0.4,0-0.5-0.1c-0.2-0.1-0.4-0.2-0.6-0.3
				c0.1-0.1,0.2-0.2,0.3-0.4c0.3-0.7,0-1.5-0.7-1.8c-1.5-0.7-2.2-1.3-2.2-1.4c-0.6-0.7-1-1.6-1-2.5c0-2.1,1.8-3.9,4.1-3.9
				c0.4,0,0.7,0,1.1,0.1c-1.7,0.4-3,2-3,3.7c0,0.9,0.3,1.8,1,2.5c0,0.1,0.7,0.7,2.1,1.3C20.5,91.1,20.8,91.6,21.3,91.7L21.3,91.7z"
				/>
		</g>
		<g>
			<path class="st36" d="M14.9,96.3c0,1.2,0.4,2.4,1.1,3.2c-0.5,0.4-0.8,0.7-1.1,1c-1.4-1-2.2-2.5-2.2-4.3c0-1.8,0.9-3.4,2.3-4.4
				c0.3,0.2,0.7,0.5,1.2,0.8C15.4,93.6,14.9,94.9,14.9,96.3L14.9,96.3z"/>
		</g>
		<g>
			<path class="st36" d="M53.7,101h-2.1c-0.2-0.2-0.5-0.4-0.8-0.6c-0.6-0.4-0.7-1.3-0.3-1.9c0.5-0.6,1.3-0.7,1.9-0.2
				c0.1,0.1,0.2,0.2,0.3,0.2c0,0,0,0,0,0c-0.4,0.6-0.3,1.4,0.3,1.9C53.3,100.6,53.5,100.8,53.7,101z"/>
		</g>
		<g>
			<path class="st36" d="M59.4,96.3c0,1.7-0.8,3.3-2.2,4.3c-0.3-0.3-0.6-0.6-1.1-1c0.7-0.9,1.1-2,1.1-3.2c0-1.4-0.5-2.7-1.4-3.6
				c0.5-0.3,0.9-0.5,1.2-0.8C58.5,92.9,59.4,94.5,59.4,96.3z"/>
		</g>
		<g>
			<path class="st36" d="M43.7,79c-0.3,0.5-0.9,0.6-1.5,0.5c-0.6-0.2-0.9-0.7-0.9-1.3v-1.7c0-0.4-0.1-0.7-0.4-1
				c0.2-0.3,0.6-0.5,1.1-0.5c0.5,0,0.9,0.2,1.1,0.4c0.3,0.3,0.4,0.6,0.4,1v1.7C43.4,78.4,43.5,78.7,43.7,79L43.7,79z"/>
		</g>
		<g>
			<path class="st36" d="M50.3,83c-0.3,0-0.6,0.1-0.9,0.2c-0.5,0.2-1.1,0-1.5-0.4c-0.4-0.4-0.5-1-0.2-1.5c0.2-0.3,0.2-0.7,0.2-1.1
				c0-0.9-0.5-1.7-1.3-2.1c0.3-0.2,0.7-0.2,1.1-0.2c1.3,0,2.4,1.1,2.4,2.4c0,0.4-0.1,0.7-0.2,1.1c-0.2,0.5-0.1,1.1,0.2,1.5
				C50.2,82.9,50.2,82.9,50.3,83z"/>
		</g>
		<g>
			<path class="st36" d="M56.9,86.8c0,0.9-0.3,1.8-1,2.5c-0.1,0.1-0.7,0.7-2.2,1.4c-0.7,0.3-1,1.1-0.7,1.8c0.1,0.2,0.2,0.3,0.3,0.4
				c-0.2,0.1-0.4,0.2-0.6,0.3c-0.2,0.1-0.4,0.1-0.6,0.1c-0.5,0-1-0.3-1.2-0.8c-0.1-0.2-0.1-0.5-0.1-0.7c0.5-0.2,0.9-0.6,0.9-1.1
				c1.4-0.6,2-1.2,2.1-1.3c0.6-0.7,1-1.6,1-2.5c0-1.8-1.3-3.3-3-3.7c0.3-0.1,0.7-0.1,1.1-0.1C55.1,83,56.9,84.7,56.9,86.8L56.9,86.8
				z"/>
		</g>
		<g>
			<path class="st28" d="M42.9,144.2c-0.7,1.3-2.6,2.3-4.6,2.3h-4.5c-2,0-3.9-1-4.6-2.3H42.9z"/>
		</g>
		<g>
			<path class="st37" d="M26.1,133.4h20v2.7h-20V133.4z"/>
		</g>
		<g>
			<path class="st37" d="M46,138.8v2c0,0.4-0.3,0.7-0.7,0.7H26.8c-0.4,0-0.7-0.3-0.7-0.7v-2H46z"/>
		</g>
		<g>
			<path class="st38" d="M57.4,103.7c-0.8,3.9-2.4,7.6-4.5,10.1c-4.2,5.1-7.4,9.6-7.6,17H26.8c-0.2-7.3-3.4-11.9-7.6-17
				c-2.1-2.5-3.7-6.2-4.5-10.1L57.4,103.7z"/>
		</g>
		<g>
			<path class="st39" d="M57.4,103.7c-0.8,3.9-2.4,7.6-4.5,10.1c-4.2,5.1-7.4,9.6-7.6,17H26.8c-0.2-7.3-3.4-11.9-7.6-17
				c-2.1-2.5-3.7-6.2-4.5-10.1h3.1c1.1,3.4,2.4,6.7,4.2,8.9c3.5,4.5,6.1,8.4,6.3,14.9h15.5c0.2-6.4,2.8-10.4,6.3-14.9
				c1.7-2.2,3.1-5.5,4.2-8.9L57.4,103.7z"/>
		</g>
		<g>
			<g>
				<path class="st16" d="M50.8,91.8c-0.1,0-0.2,0.1-0.4,0.1c-0.6,0-1.1-0.4-1.3-1c-0.3-1-1.3-1.5-2.2-1.8c-0.9-0.2-1.7-0.2-1.8-0.2
					c-0.7,0-1.3-0.6-1.3-1.3c0-0.7,0.6-1.3,1.3-1.3c0.2,0,5.4,0,6.5,3.9C51.9,90.8,51.5,91.6,50.8,91.8z"/>
			</g>
			<g>
				<path class="st16" d="M28.3,87.5c0,0.7-0.6,1.3-1.3,1.3c0,0,0,0,0,0c-0.1,0-3.3,0-3.9,2c-0.2,0.6-0.7,1-1.3,1
					c-0.1,0-0.2,0-0.4-0.1c-0.7-0.2-1.1-1-0.9-1.7c1.2-4,6.3-4,6.5-3.9C27.7,86.1,28.3,86.8,28.3,87.5L28.3,87.5z"/>
			</g>
			<g>
				<path class="st16" d="M36.1,66.8c0.7,0,1.3-0.6,1.3-1.3V62c0-0.7-0.6-1.3-1.3-1.3s-1.3,0.6-1.3,1.3v3.5
					C34.7,66.2,35.3,66.8,36.1,66.8z"/>
			</g>
			<g>
				<path class="st16" d="M19.5,70c0.2,0.4,0.7,0.6,1.1,0.6c0.2,0,0.5-0.1,0.7-0.2c0.6-0.4,0.8-1.2,0.4-1.9l-1.9-3
					c-0.4-0.6-1.2-0.8-1.9-0.4c-0.6,0.4-0.8,1.2-0.4,1.9L19.5,70z"/>
			</g>
			<g>
				<path class="st16" d="M5.4,79.2l3.3,1.7c0.2,0.1,0.4,0.2,0.6,0.2c0.5,0,0.9-0.3,1.2-0.7c0.3-0.6,0.1-1.5-0.6-1.8l-3.3-1.7
					c-0.6-0.3-1.5-0.1-1.8,0.6C4.5,78,4.7,78.9,5.4,79.2L5.4,79.2z"/>
			</g>
			<g>
				<path class="st16" d="M6.5,94c0-0.7-0.6-1.3-1.3-1.3H1.3C0.6,92.7,0,93.3,0,94s0.6,1.3,1.3,1.3h3.8C5.9,95.4,6.5,94.8,6.5,94z"
					/>
			</g>
			<g>
				<path class="st16" d="M8.6,107.1l-3.3,1.7c-0.6,0.3-0.9,1.2-0.6,1.8c0.2,0.5,0.7,0.7,1.2,0.7c0.2,0,0.4-0.1,0.6-0.2l3.3-1.7
					c0.6-0.3,0.9-1.2,0.6-1.8C10.1,107,9.3,106.8,8.6,107.1L8.6,107.1z"/>
			</g>
			<g>
				<path class="st16" d="M66.8,108.9l-3.3-1.7c-0.6-0.3-1.5-0.1-1.8,0.6c-0.3,0.6-0.1,1.5,0.6,1.8l3.3,1.7c0.2,0.1,0.4,0.2,0.6,0.2
					c0.5,0,0.9-0.3,1.2-0.7C67.7,110,67.4,109.2,66.8,108.9L66.8,108.9z"/>
			</g>
			<g>
				<path class="st16" d="M70.8,92.7H67c-0.7,0-1.3,0.6-1.3,1.3s0.6,1.3,1.3,1.3h3.8c0.7,0,1.3-0.6,1.3-1.3
					C72.2,93.3,71.5,92.7,70.8,92.7z"/>
			</g>
			<g>
				<path class="st16" d="M62.9,81.1c0.2,0,0.4-0.1,0.6-0.2l3.3-1.7c0.6-0.3,0.9-1.2,0.6-1.8s-1.2-0.9-1.8-0.6l-3.3,1.7
					c-0.6,0.3-0.9,1.2-0.6,1.8C61.9,80.8,62.4,81.1,62.9,81.1z"/>
			</g>
			<g>
				<path class="st16" d="M50.8,70.5c0.2,0.1,0.5,0.2,0.7,0.2c0.4,0,0.9-0.2,1.1-0.6l1.9-3c0.4-0.6,0.2-1.5-0.4-1.9
					c-0.6-0.4-1.5-0.2-1.9,0.4l-1.9,3C50,69.2,50.2,70.1,50.8,70.5L50.8,70.5z"/>
			</g>
		</g>
	</g>
	<g>
		<g>
			<path class="st40" d="M203.7,121c0,8.4-3.9,16.7-11.3,22l-15.9-22h4.6H203.7z"/>
		</g>
		<g>
			<circle class="st41" cx="176.6" cy="121.1" r="28.1"/>
		</g>
		<g>
			<circle class="st41" cx="176.6" cy="121" r="27.1"/>
		</g>
		<g>
			<path class="st41" d="M176.6,93.9c15,0,27.1,12.1,27.1,27.1h-27.1V93.9z"/>
		</g>
		<g>
			<path class="st42" d="M193,139.2l-11.2-15.5h19.1C200.2,129.8,197.3,135.2,193,139.2L193,139.2z"/>
		</g>
		<g>
			<path class="st43" d="M152.1,121c0,13.5,11,24.5,24.5,24.5c4.4,0,8.5-1.2,12.1-3.2l-14.2-19.7l0,0c-0.3-0.4-0.5-1-0.5-1.6V96.7
				C161.7,98,152.1,108.4,152.1,121z"/>
		</g>
		<g>
			<path class="st44" d="M200.9,118.3h-21.7V96.7C190.6,97.9,199.7,107,200.9,118.3z"/>
		</g>
	</g>
</g>
</svg>
