<?xml version="1.0" encoding="UTF-8"?>
<svg enable-background="new 0 0 450 850" version="1.1" viewBox="0 0 450 850" xml:space="preserve" xmlns="http://www.w3.org/2000/svg" xmlns:xlink="http://www.w3.org/1999/xlink">

	<defs>
		<path id="b" d="M450,0.4V0H0v850h450v-1.6c-25.6-115.5-41-263.1-41-424S424.4,115.9,450,0.4z"/>
	</defs>
	<clipPath id="a">
		<use overflow="visible" xlink:href="#b"/>
	</clipPath>
	<g clip-path="url(#a)">
		<polyline points="279.6 739.2 287.8 744.5 290 746 290 774 233.3 774 233.3 746 261 727.1 271.3 733.8" fill="#ACD4F7"/>
		
			
				<path d="m290 774.5h-56.8c-0.3 0-0.5-0.2-0.5-0.5v-28c0-0.2 0.1-0.3 0.2-0.4l27.7-18.9c0.2-0.1 0.4-0.1 0.6 0l10.3 6.7c0.2 0.2 0.3 0.5 0.1 0.7s-0.5 0.3-0.7 0.1l-10-6.5-27.2 18.5v27.3h55.8v-27.3l-10.2-6.7c-0.2-0.2-0.3-0.5-0.1-0.7s0.5-0.3 0.7-0.1l10.5 6.8c0.1 0.1 0.2 0.2 0.2 0.4v28c-0.1 0.4-0.3 0.6-0.6 0.6z"/>
			
		
		<polygon points="271.7 754.6 290.4 774.2 290.4 746.1" fill="#F2F0E8"/>
		<polygon points="251.4 754.6 233.5 746.1 233.5 774.2" fill="#F2F0E8"/>
		<polygon points="271.6 754.6 251.4 754.6 233.5 774.2 290.3 774.2" fill="#F2F0E8"/>
		
			
				
					<path d="m290.3 774.4c-0.1 0-0.1 0-0.2-0.1l-18.7-19.6c-0.1-0.1-0.1-0.1-0.1-0.2s0.1-0.1 0.1-0.2l18.7-8.5h0.2c0.1 0 0.1 0.1 0.1 0.2v28c0.1 0.3 0.1 0.4-0.1 0.4zm-18.3-19.7 18 18.9v-27l-18 8.1z"/>
				
			
			
				
					<path d="m233.5 774.4c-0.2-0.1-0.2-0.1-0.2-0.2v-28c0-0.1 0-0.2 0.1-0.2s0.2-0.1 0.2 0l17.9 8.5c0.1 0 0.1 0.1 0.1 0.2s0 0.2-0.1 0.2l-17.9 19.6c0.1-0.1 0-0.1-0.1-0.1zm0.3-27.9v27l17.3-18.9-17.3-8.1z"/>
				
			
			
				
					<path d="m290.3 774.4h-56.8c-0.1 0-0.2-0.1-0.2-0.1v-0.3l17.9-19.6c0-0.1 0.1-0.1 0.2-0.1h20.1c0.1 0 0.1 0 0.2 0.1l18.7 19.6c0.1 0.1 0.1 0.2 0 0.3 0.1 0.1 0 0.1-0.1 0.1zm-56.2-0.5h55.6l-18.2-19.1h-19.9l-17.5 19.1z"/>
				
			
		
		<polygon points="239.8 773.5 233.3 774.2 233.3 746.1 239.8 740.9" fill="#A0A0A0" opacity=".2"/>
		<path d="m243 810.6c4.1-2 7-6.3 7-11.2 0-6.9-5.6-12.5-12.5-12.5s-12.5 5.6-12.5 12.5c0 4.9 2.9 9.2 7 11.2-6 2.2-10.3 8-10.3 14.8v10.8h31.6v-10.8c0-6.8-4.3-12.6-10.3-14.8z" fill="#ACD4F7"/>
		
			<path d="m253.3 836.6h-5.7c-0.3 0-0.5-0.2-0.5-0.5s0.2-0.5 0.5-0.5h5.2v-10.3c0-6.3-4-12.1-10-14.3-0.2-0.1-0.3-0.2-0.3-0.4s0.1-0.4 0.3-0.5c4.1-2 6.7-6.2 6.7-10.8 0-6.6-5.4-12-12-12s-12 5.4-12 12c0 4.6 2.6 8.7 6.7 10.8 0.2 0.1 0.3 0.3 0.3 0.5s-0.1 0.4-0.3 0.4c-6 2.2-10 8-10 14.3v10.3h18.3c0.3 0 0.5 0.2 0.5 0.5s-0.2 0.5-0.5 0.5h-18.8c-0.3 0-0.5-0.2-0.5-0.5v-10.8c0-6.4 3.8-12.2 9.6-14.8-3.9-2.3-6.3-6.5-6.3-11.2 0-7.2 5.8-13 13-13s13 5.8 13 13c0 4.6-2.4 8.8-6.3 11.2 5.8 2.6 9.6 8.4 9.6 14.8v10.8c0 0.3-0.2 0.5-0.5 0.5z"/>
		
		<polygon points="34 488.2 41.3 503 57.7 505.4 45.8 516.9 48.6 533.2 34 525.5 19.4 533.2 22.2 516.9 10.3 505.4 26.7 503" fill="#ACD4F7"/>
		<polygon points="30 488.5 37.3 503.3 53.7 505.7 41.9 517.2 44.6 533.5 30 525.8 15.4 533.5 18.2 517.2 6.3 505.7 22.7 503.3" fill="#ACD4F7"/>
		
			<path d="m44.6 534.1c-0.1 0-0.2 0-0.2-0.1l-14.4-7.5-14.4 7.6c-0.2 0.1-0.4 0.1-0.5 0-0.2-0.1-0.2-0.3-0.2-0.5l2.8-16-11.7-11.4c-0.1-0.1-0.2-0.3-0.1-0.5s0.2-0.3 0.4-0.3l16.1-2.3 7.2-14.6c0.2-0.3 0.7-0.3 0.9 0l7.2 14.6 16.1 2.3c0.2 0 0.3 0.2 0.4 0.3 0.1 0.2 0 0.4-0.1 0.5l-11.6 11.4 2.8 16c0 0.2 0 0.4-0.2 0.5h-0.5zm-37.2-27.9 11.1 10.8c0.1 0.1 0.2 0.3 0.1 0.4l-2.6 15.3 13.7-7.2c0.1-0.1 0.3-0.1 0.5 0l13.7 7.2-2.6-15.3c0-0.2 0-0.3 0.1-0.4l11.1-10.8-15.4-2.2c-0.2 0-0.3-0.1-0.4-0.3l-6.7-14-6.9 13.9c-0.1 0.1-0.2 0.2-0.4 0.3l-15.3 2.3z"/>
		
		<polyline points="329 815.3 321.6 808.2 328 801.5 314.1 798.4 300.3 795.3 303.9 809 307.6 822.8 314 816.1 334.7 835.8 342.2 828" fill="#ACD4F7"/>
		<path d="m342.6 828.4-7.6 7.9c-0.2 0.2-0.6 0.3-0.8 0l-20.2-19.4-6 6.3c-0.1 0.2-0.4 0.2-0.6 0.2s-0.4-0.2-0.4-0.4l-7.3-27.5c-0.1-0.4 0.3-0.8 0.7-0.7l27.8 6.2c0.2 0 0.4 0.2 0.4 0.4 0.1 0.2 0 0.4-0.2 0.6l-6 6.3 7 6.7c0.2 0.2 0.2 0.6 0 0.8s-0.6 0.3-0.8 0l-7.4-7.1c-0.2-0.2-0.2-0.6 0-0.8l5.7-6-25.9-5.8 6.8 25.6 5.7-6c0.2-0.2 0.6-0.3 0.8 0l20.2 19.4 7.1-7.4c0.2-0.2 0.6-0.3 0.8 0 0.4 0.1 0.4 0.4 0.2 0.7z"/>
		<polyline points="329.9 793.2 337.3 800.3 330.8 807.1 344.7 810.1 358.6 813.2 354.9 799.5 351.3 785.7 344.8 792.5 324.2 772.7 316.7 780.5" fill="#ACD4F7"/>
		
			<path d="m316.3 780.2 7.6-7.9c0.2-0.2 0.6-0.3 0.8 0l20.2 19.4 6-6.3c0.1-0.2 0.4-0.2 0.6-0.2s0.4 0.2 0.4 0.4l7.3 27.5c0.1 0.4-0.3 0.8-0.7 0.7l-27.8-6.2c-0.2 0-0.4-0.2-0.4-0.4-0.1-0.2 0-0.4 0.2-0.6l6-6.3-7-6.7c-0.2-0.2-0.2-0.6 0-0.8s0.6-0.3 0.8 0l7.4 7.1c0.2 0.2 0.2 0.6 0 0.8l-5.7 6 25.9 5.8-6.8-25.6-5.7 6c-0.2 0.2-0.6 0.3-0.8 0l-20.2-19.4-7.1 7.4c-0.2 0.2-0.6 0.3-0.8 0-0.5-0.1-0.5-0.5-0.2-0.7z"/>
		
		<polyline points="331.6 53.6 325.4 47.7 330.8 42 319.1 39.4 307.5 36.8 310.5 48.4 313.6 59.9 319.1 54.3 336.4 70.9 342.7 64.3" fill="#ACD4F7"/>
		
			<path d="m343.1 64.6-6.3 6.6c-0.2 0.2-0.5 0.2-0.7 0l-17.1-16.2-5.1 5.3c-0.1 0.1-0.3 0.2-0.5 0.1-0.2 0-0.3-0.2-0.3-0.3l-6.1-23.1c-0.1-0.3 0.3-0.7 0.6-0.6l23.3 5.2c0.2 0 0.3 0.2 0.3 0.3 0 0.2 0 0.3-0.1 0.5l-5.1 5.3 5.9 5.6c0.2 0.2 0.2 0.5 0 0.7s-0.5 0.2-0.7 0l-6.2-6c-0.2-0.2-0.2-0.5 0-0.7l4.8-5-21.7-4.8 5.7 21.5 4.8-5c0.2-0.2 0.5-0.2 0.7 0l17 16.3 6-6.3c0.2-0.2 0.5-0.2 0.7 0 0.2 0.1 0.2 0.4 0.1 0.6z"/>
		
		<polyline points="332.3 35.1 338.6 41.1 333.1 46.7 344.8 49.3 356.5 51.9 353.4 40.4 350.3 28.8 344.9 34.4 327.6 17.8 321.2 24.4" fill="#ACD4F7"/>
		
			<path d="m320.9 24.1 6.3-6.6c0.2-0.2 0.5-0.2 0.7 0l17 16.3 5.1-5.3c0.1-0.1 0.3-0.2 0.5-0.1 0.2 0 0.3 0.2 0.3 0.3l6.2 23.1c0.1 0.3-0.3 0.7-0.6 0.6l-23.4-5.2c-0.2 0-0.3-0.2-0.3-0.3 0-0.2 0-0.3 0.1-0.5l5.1-5.3-5.9-5.6c-0.2-0.2-0.2-0.5 0-0.7s0.5-0.2 0.7 0l6.2 6c0.2 0.2 0.2 0.5 0 0.7l-4.8 5 21.7 4.8-5.7-21.5-4.8 5c-0.2 0.2-0.5 0.2-0.7 0l-17-16.3-6 6.3c-0.2 0.2-0.5 0.2-0.7 0s-0.2-0.5 0-0.7z"/>
		
		<polyline points="413 755.2 413 781.6 370.6 781.6 370.6 726.9 413 726.9 413 742.2" fill="#F2F0E8"/>
		
			
				<path d="m413.3 782.1h-42.3c-0.3 0-0.5-0.2-0.5-0.5v-54.8c0-0.3 0.2-0.5 0.5-0.5h42.3c0.3 0 0.5 0.2 0.5 0.5v15.3c0 0.3-0.2 0.5-0.5 0.5s-0.5-0.2-0.5-0.5v-14.8h-41.3v53.8h41.3v-25.9c0-0.3 0.2-0.5 0.5-0.5s0.5 0.2 0.5 0.5v26.4c0 0.3-0.2 0.5-0.5 0.5z"/>
			
		
		
			
				<rect x="381.2" y="736.1" width="3.9" height="19.1" fill="#7ACBF5"/>
			
			
				
					<rect x="387.9" y="739.1" width="3.9" height="16" fill="#ACD4F7"/>
				
			
			
				<rect x="394.4" y="742.2" width="3.9" height="13" fill="#ACD4F7"/>
			
			
				<rect x="401.2" y="748.7" width="3.9" height="6.5" fill="#ACD4F7"/>
			
		
		
			
				<path d="m408.5 761.6h-31.5c-0.1 0-0.2-0.1-0.2-0.2s0.1-0.2 0.2-0.2h31.5c0.1 0 0.2 0.1 0.2 0.2s-0.1 0.2-0.2 0.2z"/>
			
		
		
			
				<path d="m408.5 765.9h-31.5c-0.1 0-0.2-0.1-0.2-0.2s0.1-0.2 0.2-0.2h31.5c0.1 0 0.2 0.1 0.2 0.2s-0.1 0.2-0.2 0.2z"/>
			
		
		
			
				<path d="m393.7 774.6h-16.7c-0.1 0-0.2-0.1-0.2-0.2s0.1-0.2 0.2-0.2h16.6c0.1 0 0.2 0.1 0.2 0.2s0 0.2-0.1 0.2z"/>
			
		
		
			
				<path d="m408.5 770.3h-31.5c-0.1 0-0.2-0.1-0.2-0.2s0.1-0.2 0.2-0.2h31.5c0.1 0 0.2 0.1 0.2 0.2s-0.1 0.2-0.2 0.2z"/>
			
		
		<rect x="370.5" y="726.9" width="4.7" height="54.8" fill="#A0A0A0" opacity=".2"/>
		<rect x="314.4" y="668.6" width="55.6" height="37.8" fill="#F2F0E8"/>
		
			
				<path d="m370.5 707.2h-55.6c-0.3 0-0.5-0.2-0.5-0.5v-38.3c0-0.3 0.2-0.5 0.5-0.5h55.6c0.3 0 0.5 0.2 0.5 0.5v38.3c0 0.3-0.2 0.5-0.5 0.5zm-55.1-1h54.6v-37.3h-54.6v37.3z"/>
			
		
		
			
				<path d="m360.6 676.2h-45.4c-0.1 0-0.2-0.1-0.2-0.2s0.1-0.2 0.2-0.2h45.4c0.1 0 0.2 0.1 0.2 0.2s0 0.2-0.2 0.2z"/>
			
		
		
			
				<path d="m321.2 672.8c-0.3 0-0.6-0.3-0.6-0.6s0.3-0.6 0.6-0.6 0.6 0.3 0.6 0.6-0.3 0.6-0.6 0.6z"/>
			
		
		
			
				<path d="m317.4 672.8c-0.3 0-0.6-0.3-0.6-0.6s0.3-0.6 0.6-0.6 0.6 0.3 0.6 0.6-0.2 0.6-0.6 0.6z"/>
			
		
		
			
				<path d="m325 672.8c-0.3 0-0.6-0.3-0.6-0.6s0.3-0.6 0.6-0.6 0.6 0.3 0.6 0.6-0.3 0.6-0.6 0.6z"/>
			
		
		<rect x="315.6" y="668.7" width="55.4" height="7" fill="#A0A0A0" opacity=".2"/>
		<rect x="314.9" y="667.8" width="3.2" height="38.8" fill="#A0A0A0" opacity=".2"/>
		<path d="m351.4 691.3-0.6-0.1c-0.1-1.3-0.4-2.5-1-3.5l0.7-0.4c0.5-0.3 0.6-1 0.3-1.5l-0.5-0.9c-0.3-0.5-1-0.6-1.5-0.3l-0.9 0.5-0.1 0.1c-0.8-0.7-1.7-1.2-2.7-1.6l0.1-0.8c0.1-0.6-0.4-1.1-1-1.2l-1-0.1c-0.6-0.1-1.1 0.4-1.2 1l-0.1 0.6c-1.3 0-2.5 0.4-3.6 0.9l-0.2-0.3c-0.3-0.5-1-0.6-1.5-0.3l-0.9 0.5c-0.5 0.3-0.6 1-0.3 1.5l0.4 0.6c-0.9 1-1.6 2.2-1.9 3.6l-0.6-0.1c-0.6-0.1-1.1 0.4-1.2 1l-0.1 1c-0.1 0.6 0.4 1.1 1 1.2l0.7 0.1c0.1 1.3 0.6 2.6 1.3 3.7l-0.5 0.5c-0.4 0.4-0.5 1.1-0.1 1.5l0.7 0.8c0.4 0.4 1.1 0.5 1.5 0.1l0.6-0.5c0.9 0.7 2 1.2 3.2 1.4l-0.1 0.7c-0.1 0.6 0.4 1.1 1 1.2l1 0.1c0.6 0.1 1.1-0.4 1.2-1l0.1-0.9c1.2-0.2 2.3-0.6 3.3-1.2l0.3 0.5c0.3 0.5 1 0.6 1.5 0.3l0.9-0.5c0.5-0.3 0.6-1 0.3-1.5l-0.5-0.9-0.1-0.1c0.6-0.8 1-1.6 1.3-2.6l0.7 0.1c0.6 0.1 1.1-0.4 1.2-1l0.1-1c-0.2-0.6-0.6-1.1-1.2-1.2zm-9.5 4c-1.8-0.2-3.2-1.8-3-3.6s1.8-3.2 3.6-3 3.2 1.8 3 3.6-1.8 3.1-3.6 3z" fill="#ACD4F7"/>
		
			
				<rect x="87.1" y="13.2" width="55.6" height="37.8" fill="#F2F0E8"/>
				
					
						<path d="m143.2 52h-55.6c-0.3 0-0.5-0.2-0.5-0.5v-38.3c0-0.3 0.2-0.5 0.5-0.5h55.6c0.3 0 0.5 0.2 0.5 0.5v38.3c0 0.3-0.2 0.5-0.5 0.5zm-55.1-1h54.6v-37.3h-54.6v37.3z"/>
					
				
				
					
						<path d="m133.3 21h-45.4c-0.1 0-0.2-0.1-0.2-0.2s0.1-0.2 0.2-0.2h45.4c0.1 0 0.2 0.1 0.2 0.2 0.1 0.1-0.1 0.2-0.2 0.2z"/>
					
				
				
					
						<path d="m93.9 17.6c-0.3 0-0.6-0.3-0.6-0.6s0.3-0.6 0.6-0.6 0.6 0.3 0.6 0.6-0.3 0.6-0.6 0.6z"/>
					
				
				
					
						<path d="m90.1 17.6c-0.3 0-0.6-0.3-0.6-0.6s0.3-0.6 0.6-0.6 0.6 0.3 0.6 0.6-0.3 0.6-0.6 0.6z"/>
					
				
				
					
						<path d="m97.7 17.6c-0.3 0-0.6-0.3-0.6-0.6s0.3-0.6 0.6-0.6 0.6 0.3 0.6 0.6-0.3 0.6-0.6 0.6z"/>
					
				
				<rect x="88.3" y="13.5" width="55.4" height="7" fill="#A0A0A0" opacity=".2"/>
				<rect x="87.6" y="12.7" width="3.2" height="38.8" fill="#A0A0A0" opacity=".2"/>
			
			<path d="m113.3 35c0 1.7-1.4 3.1-3.1 3.1s-3.1-1.4-3.1-3.1 1.4-3.1 3.1-3.1 3.1 1.4 3.1 3.1z" fill="#ACD4F7"/>
			<path d="m123.6 28.8c0 1.7-1.4 3.1-3.1 3.1s-3.1-1.4-3.1-3.1 1.4-3.1 3.1-3.1c1.7-0.1 3.1 1.3 3.1 3.1z" fill="#ACD4F7"/>
			<path d="m123.6 41.2c0 1.7-1.4 3.1-3.1 3.1s-3.1-1.4-3.1-3.1 1.4-3.1 3.1-3.1 3.1 1.4 3.1 3.1z" fill="#ACD4F7"/>
			<polyline points="119.5 28.8 110.2 35 119.5 41.2" fill="none" stroke="#ACD4F7" stroke-miterlimit="10" stroke-width=".5"/>
		
		
			<polygon points="393.4 260.9 374.4 248.2 393.4 235.5 393.7 235.9 375.3 248.2 393.7 260.5"/>
		
		<path d="m381.1 248.2c0 3.4-2.8 6.2-6.2 6.2s-6.2-2.8-6.2-6.2 2.8-6.2 6.2-6.2c3.4-0.1 6.2 2.7 6.2 6.2z" fill="#7ACBF5"/>
		<path d="m399.8 235.7c0 3.4-2.8 6.2-6.2 6.2s-6.2-2.8-6.2-6.2 2.8-6.2 6.2-6.2 6.2 2.8 6.2 6.2z" fill="#7ACBF5"/>
		<path d="m399.8 260.7c0 3.4-2.8 6.2-6.2 6.2s-6.2-2.8-6.2-6.2 2.8-6.2 6.2-6.2c3.4-0.1 6.2 2.7 6.2 6.2z" fill="#7ACBF5"/>
		
			<path d="m374.8 254.9c-3.7 0-6.7-3-6.7-6.7s3-6.7 6.7-6.7 6.7 3 6.7 6.7c0.1 3.7-2.9 6.7-6.7 6.7zm0-12.5c-3.2 0-5.7 2.6-5.7 5.7 0 3.2 2.6 5.7 5.7 5.7 3.2 0 5.7-2.6 5.7-5.7 0.1-3.1-2.5-5.7-5.7-5.7z"/>
		
		
			<path d="m393.6 242.4c-3.7 0-6.7-3-6.7-6.7s3-6.7 6.7-6.7 6.7 3 6.7 6.7-3 6.7-6.7 6.7zm0-12.4c-3.2 0-5.7 2.6-5.7 5.7 0 3.2 2.6 5.7 5.7 5.7 3.2 0 5.7-2.6 5.7-5.7 0-3.2-2.6-5.7-5.7-5.7z"/>
		
		
			<path d="m393.6 267.4c-3.7 0-6.7-3-6.7-6.7s3-6.7 6.7-6.7 6.7 3 6.7 6.7-3 6.7-6.7 6.7zm0-12.5c-3.2 0-5.7 2.6-5.7 5.7 0 3.2 2.6 5.7 5.7 5.7 3.2 0 5.7-2.6 5.7-5.7s-2.6-5.7-5.7-5.7z"/>
		
		
			<polygon points="287.9 404.1 268.9 391.4 287.9 378.7 288.2 379.2 269.8 391.4 288.2 403.7"/>
		
		<path d="m275.6 391.4c0 3.4-2.8 6.2-6.2 6.2s-6.2-2.8-6.2-6.2 2.8-6.2 6.2-6.2 6.2 2.8 6.2 6.2z" fill="#ACD4F7"/>
		<path d="m294.3 378.9c0 3.4-2.8 6.2-6.2 6.2s-6.2-2.8-6.2-6.2 2.8-6.2 6.2-6.2 6.2 2.8 6.2 6.2z" fill="#ACD4F7"/>
		<path d="m294.3 403.9c0 3.4-2.8 6.2-6.2 6.2s-6.2-2.8-6.2-6.2 2.8-6.2 6.2-6.2 6.2 2.8 6.2 6.2z" fill="#ACD4F7"/>
		
			<path d="m269.3 398.2c-3.7 0-6.7-3-6.7-6.7s3-6.7 6.7-6.7 6.7 3 6.7 6.7c0.1 3.6-2.9 6.7-6.7 6.7zm0-12.5c-3.2 0-5.7 2.6-5.7 5.7 0 3.2 2.6 5.7 5.7 5.7 3.2 0 5.7-2.6 5.7-5.7 0.1-3.1-2.5-5.7-5.7-5.7z"/>
		
		
			<path d="m288.1 385.7c-3.7 0-6.7-3-6.7-6.7s3-6.7 6.7-6.7 6.7 3 6.7 6.7-3 6.7-6.7 6.7zm0-12.5c-3.2 0-5.7 2.6-5.7 5.7 0 3.2 2.6 5.7 5.7 5.7 3.2 0 5.7-2.6 5.7-5.7s-2.6-5.7-5.7-5.7z"/>
		
		
			<path d="m288.1 410.6c-3.7 0-6.7-3-6.7-6.7s3-6.7 6.7-6.7 6.7 3 6.7 6.7-3 6.7-6.7 6.7zm0-12.4c-3.2 0-5.7 2.6-5.7 5.7 0 3.2 2.6 5.7 5.7 5.7 3.2 0 5.7-2.6 5.7-5.7 0-3.2-2.6-5.7-5.7-5.7z"/>
		
		<g opacity=".2">
			
				
					<rect transform="matrix(.7466 -.6652 .6652 .7466 -369.61 192.63)" x="64.7" y="568.8" width="6.7" height="25.6" fill="#A0A0A0"/>
			
		</g>
		
			
				<path d="m61.2 556.3c0.8 4.3-0.8 9-4.3 12.1-5.5 4.9-14 4.4-19-1.1-4.9-5.5-4.4-14 1.1-19 5.5-4.9 14-4.4 19 1.1 0 0.1 2.3 1.6 3.2 6.9z" fill="#6AB3D9"/>
			
		
		
			
				<rect transform="matrix(.7466 -.6652 .6652 .7466 -371.01 191.7)" x="62.8" y="570.1" width="6.7" height="25.6" fill="#F2F0E8"/>
		
		
			<path d="m58.9 557.1c0.8 4.3-0.8 9-4.3 12.1-5.5 4.9-14 4.4-19-1.1s-4.4-14 1.1-19c5.5-4.9 14-4.4 19 1.1-0.1 0 2.2 1.5 3.2 6.9z" fill="#7ACBF5"/>
		
		<g opacity=".2">
			
				<path d="m40.5 546.8c0.5-0.1-14.8 11.9 2 25.2 0 0-8.3 0.5-10.9-12.6 0-4.6 2.9-11.5 8.9-12.6z" fill="#A0A0A0"/>
			
		</g>
		<g opacity=".25">
			
				<path d="m45 545.7-1.2 26.8s3.3 1.3 5.1-0.5v-25.9l-3.9-0.4z" fill="#F4F4F4"/>
			
		</g>
		
			<path d="m45 573.1c-3.8 0-7.7-1.6-10.4-4.7-2.5-2.8-3.7-6.4-3.5-10.1s1.9-7.1 4.6-9.6c5.7-5.1 14.6-4.6 19.7 1.1 0.2 0.2 0.2 0.5 0 0.7s-0.5 0.2-0.7 0c-4.7-5.3-12.9-5.8-18.3-1.1-5.3 4.7-5.8 12.9-1.1 18.3 4.7 5.3 12.9 5.8 18.3 1.1 3.3-2.9 4.9-7.3 4.2-11.7 0-0.3 0.1-0.5 0.4-0.6 0.3 0 0.5 0.1 0.6 0.4 0.7 4.7-0.9 9.4-4.5 12.6-2.7 2.4-6 3.6-9.3 3.6z"/>
		
		
			<path d="m57.7 573.9c-0.1 0-0.3-0.1-0.4-0.2l-3.7-4.2c-0.2-0.2-0.2-0.5 0-0.7s0.5-0.2 0.7 0l3.7 4.2c0.2 0.2 0.2 0.5 0 0.7-0.1 0.1-0.2 0.2-0.3 0.2z"/>
		
		
			<path d="m72.2 595.2c-0.2 0-0.3-0.1-0.4-0.2l-17-19.1c-0.1-0.1-0.1-0.2-0.1-0.4 0-0.1 0.1-0.3 0.2-0.3l5-4.4c0.2-0.2 0.5-0.2 0.7 0l17 19.1c0.2 0.2 0.2 0.5 0 0.7l-5 4.4c-0.2 0.1-0.3 0.2-0.4 0.2zm-16.3-19.6 16.3 18.4 4.2-3.8-16.3-18.3-4.2 3.7z"/>
		
		<g opacity=".2">
			
				
					<rect transform="matrix(.7466 -.6652 .6652 .7466 -390.5 346.98)" x="256.9" y="673.4" width="6.7" height="25.6" fill="#A0A0A0"/>
			
		</g>
		
			
				<path d="m253.4 660.9c0.8 4.3-0.8 9-4.3 12.1-5.5 4.9-14 4.4-19-1.1-4.9-5.5-4.4-14 1.1-19 5.5-4.9 14-4.4 19 1.1 0 0.1 2.3 1.6 3.2 6.9z" fill="#6AB3D9"/>
			
		
		
			
				<rect transform="matrix(.7466 -.6652 .6652 .7466 -391.9 346.07)" x="255" y="674.7" width="6.7" height="25.6" fill="#F2F0E8"/>
		
		
			<path d="m251.1 661.7c0.8 4.3-0.8 9-4.3 12.1-5.5 4.9-14 4.4-19-1.1-4.9-5.5-4.4-14 1.1-19 5.5-4.9 14-4.4 19 1.1-0.1 0 2.2 1.5 3.2 6.9z" fill="#7ACBF5"/>
		
		<g opacity=".2">
			
				<path d="m232.7 651.5c0.5-0.1-14.8 11.9 2 25.2 0 0-8.3 0.5-10.9-12.6 0-4.7 2.9-11.6 8.9-12.6z" fill="#A0A0A0"/>
			
		</g>
		<g opacity=".25">
			
				<path d="m237.2 650.3-1.2 26.8s3.3 1.3 5.1-0.5v-25.9l-3.9-0.4z" fill="#F4F4F4"/>
			
		</g>
		
			<path d="m237.2 677.7c-3.8 0-7.7-1.6-10.4-4.7-2.5-2.8-3.7-6.4-3.5-10.1s1.9-7.1 4.6-9.6c5.7-5.1 14.6-4.6 19.7 1.1 0.2 0.2 0.2 0.5 0 0.7s-0.5 0.2-0.7 0c-4.7-5.3-12.9-5.8-18.3-1.1-5.3 4.7-5.8 12.9-1.1 18.3 4.7 5.3 12.9 5.8 18.3 1.1 3.3-2.9 4.9-7.3 4.2-11.7 0-0.3 0.1-0.5 0.4-0.6 0.3 0 0.5 0.1 0.6 0.4 0.7 4.7-0.9 9.4-4.5 12.6-2.7 2.4-6 3.6-9.3 3.6z"/>
		
		
			<path d="m249.9 678.5c-0.1 0-0.3-0.1-0.4-0.2l-3.7-4.2c-0.2-0.2-0.2-0.5 0-0.7s0.5-0.2 0.7 0l3.7 4.2c0.2 0.2 0.2 0.5 0 0.7-0.1 0.1-0.2 0.2-0.3 0.2z"/>
		
		
			<path d="m264.4 699.8c-0.2 0-0.3-0.1-0.4-0.2l-17-19.1c-0.1-0.1-0.1-0.2-0.1-0.4 0-0.1 0.1-0.3 0.2-0.3l5-4.4c0.2-0.2 0.5-0.2 0.7 0l17 19.1c0.2 0.2 0.2 0.5 0 0.7l-5 4.4c-0.2 0.1-0.3 0.2-0.4 0.2zm-16.3-19.6 16.3 18.3 4.2-3.8-16.3-18.3-4.2 3.8z"/>
		
		<g opacity=".2">
			
				
					<rect transform="matrix(.7466 -.6652 .6652 .7466 -41.942 119.47)" x="132.5" y="102" width="6.7" height="25.6" fill="#A0A0A0"/>
			
		</g>
		
			
				<path d="m129 89.6c0.8 4.3-0.8 9-4.3 12.1-5.5 4.9-14 4.4-19-1.1-4.9-5.5-4.4-14 1.1-19 5.5-4.9 14-4.4 19 1.1 0 0 2.3 1.5 3.2 6.9z" fill="#6AB3D9"/>
			
		
		
			
				<rect transform="matrix(.7466 -.6652 .6652 .7466 -43.343 118.55)" x="130.6" y="103.4" width="6.7" height="25.6" fill="#F2F0E8"/>
		
		
			<path d="m126.6 90.3c0.8 4.3-0.8 9-4.3 12.1-5.5 4.9-14 4.4-19-1.1-4.9-5.5-4.4-14 1.1-19 5.5-4.9 14-4.4 19 1.1 0 0.1 2.3 1.6 3.2 6.9z" fill="#7ACBF5"/>
		
		<g opacity=".2">
			
				<path d="m108.3 80.1c0.5-0.1-14.8 11.9 2 25.2 0 0-8.3 0.5-10.9-12.6-0.1-4.6 2.9-11.5 8.9-12.6z" fill="#A0A0A0"/>
			
		</g>
		<g opacity=".25">
			
				<path d="m112.8 79-1.2 26.8s3.3 1.3 5.1-0.5v-25.9l-3.9-0.4z" fill="#F4F4F4"/>
			
		</g>
		
			<path d="m112.8 106.4c-3.8 0-7.7-1.6-10.4-4.7-2.5-2.8-3.7-6.4-3.5-10.1s1.9-7.1 4.6-9.6c5.7-5.1 14.6-4.6 19.7 1.1 0.2 0.2 0.2 0.5 0 0.7s-0.5 0.2-0.7 0c-4.7-5.3-12.9-5.8-18.3-1.1-5.3 4.7-5.8 12.9-1.1 18.3 4.7 5.3 12.9 5.8 18.3 1.1 3.3-2.9 4.9-7.3 4.2-11.7 0-0.3 0.1-0.5 0.4-0.6 0.3 0 0.5 0.1 0.6 0.4 0.7 4.7-0.9 9.4-4.5 12.6-2.7 2.4-6 3.6-9.3 3.6z"/>
		
		
			<path d="m125.5 107.1c-0.1 0-0.3-0.1-0.4-0.2l-3.7-4.2c-0.2-0.2-0.2-0.5 0-0.7s0.5-0.2 0.7 0l3.7 4.2c0.2 0.2 0.2 0.5 0 0.7-0.1 0.2-0.2 0.2-0.3 0.2z"/>
		
		
			<path d="m140 128.4c-0.2 0-0.3-0.1-0.4-0.2l-17-19.1c-0.1-0.1-0.1-0.2-0.1-0.4 0-0.1 0.1-0.3 0.2-0.3l5-4.4c0.2-0.2 0.5-0.2 0.7 0l17 19.1c0.2 0.2 0.2 0.5 0 0.7l-5 4.4c-0.2 0.2-0.3 0.2-0.4 0.2zm-16.3-19.5 16.3 18.3 4.2-3.8-16.3-18.3-4.2 3.8z"/>
		
		<polyline points="102.2 248.2 110.4 253.5 112.7 255 112.7 283.1 55.9 283.1 55.9 255 83.7 236.1 94 242.9" fill="#ACD4F7"/>
		
			
				<path d="m112.7 283.6h-56.8c-0.3 0-0.5-0.2-0.5-0.5v-28c0-0.2 0.1-0.3 0.2-0.4l27.7-18.9c0.2-0.1 0.4-0.1 0.6 0l10.3 6.7c0.2 0.2 0.3 0.5 0.1 0.7s-0.5 0.3-0.7 0.1l-10-6.5-27.2 18.5v27.3h55.8v-27.3l-10.2-6.7c-0.2-0.2-0.3-0.5-0.1-0.7s0.5-0.3 0.7-0.1l10.5 6.8c0.1 0.1 0.2 0.2 0.2 0.4v28c-0.1 0.3-0.3 0.6-0.6 0.6z"/>
			
		
		
			<polygon points="94.3 263.6 113 283.2 113 255.2" fill="#F2F0E8"/>
			<polygon points="74.1 263.6 56.2 255.2 56.2 283.2" fill="#F2F0E8"/>
			<polygon points="94.2 263.6 74.1 263.6 56.2 283.2 112.9 283.2" fill="#F2F0E8"/>
			
				
					
						<path d="m112.9 283.4c-0.1 0-0.1 0-0.2-0.1l-18.7-19.5c-0.1-0.1-0.1-0.1-0.1-0.2s0.1-0.1 0.1-0.2l18.7-8.5h0.2c0.1 0 0.1 0.1 0.1 0.2v28c0.2 0.2 0.1 0.3-0.1 0.3 0.1 0 0 0 0 0zm-18.3-19.7 18 18.9v-27l-18 8.1z"/>
					
				
				
					
						<path d="m56.2 283.4c-0.1 0-0.1 0 0 0-0.2-0.1-0.2-0.1-0.2-0.2v-28c0-0.1 0-0.2 0.1-0.2s0.2-0.1 0.2 0l17.9 8.5c0.1 0 0.1 0.1 0.1 0.2s0 0.2-0.1 0.2l-17.9 19.6c0-0.1-0.1-0.1-0.1-0.1zm0.2-27.9v27l17.3-18.9-17.3-8.1z"/>
					
				
				
					
						<path d="m112.9 283.4h-56.7c-0.1 0-0.2-0.1-0.2-0.1v-0.3l17.9-19.6c0-0.1 0.1-0.1 0.2-0.1h20.1c0.1 0 0.1 0 0.2 0.1l18.7 19.6c0.1 0.1 0.1 0.2 0 0.3 0 0.1-0.1 0.1-0.2 0.1zm-56.2-0.5h55.6l-18.2-19.1h-19.9l-17.5 19.1z"/>
					
				
			
		
		<polygon points="62.5 282.6 55.9 283.2 55.9 255.2 62.5 250" fill="#A0A0A0" opacity=".2"/>
		<path d="m390.7 458.7c4.1-2.1 7-6.3 7-11.3 0-6.9-5.7-12.5-12.6-12.5s-12.5 5.7-12.5 12.6c0 4.9 2.9 9.2 7.1 11.2-6 2.3-10.2 8.1-10.2 14.8v10.8l31.6-0.1v-10.8c-0.1-6.7-4.4-12.5-10.4-14.7z" fill="#ACD4F7"/>
		
			<path d="m401.1 483.7h-5.7c-0.3 0-0.5-0.2-0.5-0.5s0.2-0.5 0.5-0.5h5.2v-10.3c0-6.3-4.1-12.1-10-14.3-0.2-0.1-0.3-0.2-0.3-0.4s0.1-0.4 0.3-0.5c4.1-2.1 6.7-6.2 6.7-10.8 0-6.6-5.4-12-12.1-12-6.6 0-12 5.4-12 12.1 0 4.6 2.6 8.7 6.8 10.7 0.2 0.1 0.3 0.3 0.3 0.5s-0.1 0.4-0.3 0.4c-5.9 2.3-9.9 8-9.9 14.4v10.3l18.3-0.1c0.3 0 0.5 0.2 0.5 0.5s-0.2 0.5-0.5 0.5l-18.8 0.1c-0.3 0-0.5-0.2-0.5-0.5v-10.8c0-6.4 3.8-12.3 9.5-14.9-3.9-2.3-6.4-6.5-6.4-11.1 0-7.2 5.8-13 13-13.1 7.2 0 13 5.8 13.1 13 0 4.6-2.4 8.8-6.3 11.2 5.8 2.6 9.7 8.4 9.7 14.8v10.8c-0.1 0.3-0.4 0.5-0.6 0.5z"/>
		
		<polygon points="400.4 152.7 407.7 167.5 424.1 169.9 412.2 181.4 415 197.7 400.4 190 385.8 197.7 388.6 181.4 376.7 169.9 393.1 167.5" fill="#ACD4F7"/>
		<path d="m400.2 192.8s2.5 1.5 3.5-0.3l-5.1-3.1 1.6 3.4z" fill="#EFBE70"/>
		<polygon points="396.4 152.9 403.7 167.7 420.1 170.1 408.3 181.7 411.1 197.9 396.4 190.3 381.8 197.9 384.6 181.7 372.8 170.1 389.1 167.7" fill="#ACD4F7"/>
		<path d="m411.1 198.6c-0.1 0-0.2 0-0.2-0.1l-14.4-7.6-14.4 7.6c-0.2 0.1-0.4 0.1-0.5 0-0.2-0.1-0.2-0.3-0.2-0.5l2.8-16-11.6-11.4c-0.1-0.1-0.2-0.3-0.1-0.5s0.2-0.3 0.4-0.3l16.1-2.3 7.2-14.6c0.2-0.3 0.7-0.3 0.9 0l7.2 14.6 16.1 2.3c0.2 0 0.3 0.2 0.4 0.3 0.1 0.2 0 0.4-0.1 0.5l-11.9 11.4 2.8 16c0 0.2 0 0.4-0.2 0.5-0.1 0.1-0.2 0.1-0.3 0.1zm-37.3-28 11.1 10.8c0.1 0.1 0.2 0.3 0.1 0.4l-2.6 15.3 13.7-7.2c0.1-0.1 0.3-0.1 0.5 0l13.7 7.2-2.6-15.3c0-0.2 0-0.3 0.1-0.4l11.1-10.8-15.4-2.2c-0.2 0-0.3-0.1-0.4-0.3l-6.9-13.9-6.9 13.9c-0.1 0.1-0.2 0.2-0.4 0.3l-15.1 2.2z"/>
		<polygon points="44.4 38.7 51.7 53.5 68.1 55.9 56.2 67.4 59 83.7 44.4 76 29.8 83.7 32.6 67.4 20.7 55.9 37.1 53.5" fill="#ACD4F7"/>
		<path d="m44.2 78.8s2.5 1.5 3.5-0.3l-5.1-3.1 1.6 3.4z" fill="#EFBE70"/>
		<polygon points="40.4 38.9 47.7 53.7 64.1 56.1 52.3 67.7 55.1 83.9 40.4 76.3 25.8 83.9 28.6 67.7 16.8 56.1 33.1 53.7" fill="#ACD4F7"/>
		
			<path d="m55.1 84.6c-0.1 0-0.2 0-0.2-0.1l-14.5-7.5-14.4 7.5c-0.2 0.1-0.4 0.1-0.5 0-0.2-0.1-0.2-0.3-0.2-0.5l2.8-16-11.7-11.4c-0.1-0.1-0.2-0.3-0.1-0.5s0.2-0.3 0.4-0.3l16.1-2.3 7.2-14.6c0.2-0.3 0.7-0.3 0.9 0l7.2 14.6 16.1 2.3c0.2 0 0.3 0.2 0.4 0.3 0.1 0.2 0 0.4-0.1 0.5l-11.7 11.4 2.8 16c0 0.2 0 0.4-0.2 0.5-0.1 0.1-0.2 0.1-0.3 0.1zm-37.3-28 11.1 10.8c0.1 0.1 0.2 0.3 0.1 0.4l-2.6 15.3 13.8-7.1c0.1-0.1 0.3-0.1 0.5 0l13.7 7.2-2.6-15.3c0-0.2 0-0.3 0.1-0.4l11.1-10.9-15.4-2.2c-0.2 0-0.3-0.1-0.4-0.3l-6.9-13.9-6.9 13.9c-0.1 0.1-0.2 0.2-0.4 0.3l-15.2 2.2z"/>
		
		<path d="m163.8 379.4s-0.5-7.5-7.5-8.2c-4.8-0.5-9.3-0.4-11.4-0.4h-2.2c-2.7-0.1-10.6 0.4-11 8.8-0.4 9.6 2.4 13.6 11.7 13.7 0.9 0 1.8 0.5 2.3 1.3 0.9 1.4 2.6 3.4 5.1 3.4 0 0-3.5-4.7 0-4.7s11.3-0.8 12.5-4.3c1.2-3.7 0.5-9.6 0.5-9.6z" fill="#6AB3D9"/>
		
			<path d="m150.2 397.9c-2.8 0-4.7-2.3-5.6-3.6-0.4-0.6-1.1-1-1.9-1-4.5 0-7.5-1-9.5-3-2.1-2.2-2.9-5.7-2.7-11.2 0.4-8.9 8.9-9.3 11.5-9.2h2.2c2.3-0.1 6.8-0.2 11.5 0.4 7.2 0.8 8 8.3 8 8.7 0 0.3 0.6 6.1-0.6 9.8-1.6 4.6-12.5 4.6-13 4.6s-0.9 0.1-1 0.4c-0.3 0.7 0.6 2.5 1.4 3.5 0.1 0.2 0.1 0.4 0 0.5 0.1 0-0.1 0.1-0.3 0.1zm-8.5-27.1c-3.2 0-9.7 0.9-10 8.3-0.2 5.2 0.5 8.4 2.4 10.4 1.7 1.8 4.5 2.7 8.8 2.7 1.1 0 2.1 0.6 2.7 1.5 0.8 1.2 2 2.6 3.7 3-0.6-1-1.4-2.6-0.9-3.6 0.3-0.6 0.9-0.9 1.9-0.9 4.3 0 11-1.1 12-4 1.2-3.5 0.6-9.3 0.6-9.3 0-0.3-0.6-7.1-7.1-7.8-4.7-0.5-9.1-0.4-11.4-0.4h-2.2c-0.2 0.1-0.4 0.1-0.5 0.1z"/>
		
		<path d="m58.4 707.2s-0.5-7.5-7.5-8.2c-4.8-0.5-9.3-0.4-11.4-0.4h-2.2c-2.7-0.1-10.6 0.4-11 8.8-0.5 9.6 2.3 13.6 11.6 13.6 0.9 0 1.8 0.5 2.3 1.3 0.9 1.4 2.6 3.4 5.1 3.4 0 0-3.5-4.7 0-4.7s11.3-0.8 12.5-4.3c1.2-3.6 0.6-9.5 0.6-9.5z" fill="#ACD4F7"/>
		
			<path d="m45.3 726.2c-2.8 0-4.7-2.3-5.6-3.6-0.4-0.6-1.1-1-1.9-1-4.5 0-7.5-1-9.5-3-2.1-2.2-2.9-5.7-2.7-11.2 0.4-8.9 8.9-9.3 11.5-9.2h2.2c2.3-0.1 6.8-0.2 11.5 0.4 7.2 0.8 8 8.3 8 8.7 0 0.3 0.6 6.1-0.6 9.8-1.6 4.6-12.5 4.6-13 4.6s-0.9 0.1-1 0.4c-0.3 0.7 0.6 2.5 1.4 3.5 0.1 0.2 0.1 0.4 0 0.5 0.1 0-0.1 0.1-0.3 0.1zm-8.6-27.1c-3.2 0-9.7 0.9-10 8.3-0.2 5.2 0.5 8.4 2.4 10.4 1.7 1.8 4.5 2.7 8.8 2.7 1.1 0 2.1 0.6 2.7 1.5 0.8 1.2 2 2.6 3.7 3-0.6-1-1.4-2.6-0.9-3.6 0.3-0.6 0.9-0.9 1.9-0.9 4.3 0 11-1.1 12-4 1.2-3.5 0.6-9.3 0.6-9.3 0-0.3-0.6-7.1-7.1-7.8-4.7-0.5-9.1-0.4-11.4-0.4h-2.2c-0.2 0.1-0.3 0.1-0.5 0.1z"/>
		
		<path d="m283.5 587.2s-0.5-7.5-7.5-8.2c-4.8-0.5-9.3-0.4-11.4-0.4h-2.2c-2.7-0.1-10.6 0.4-11 8.8-0.4 9.6 2.4 13.6 11.7 13.7 0.9 0 1.8 0.5 2.3 1.3 0.9 1.4 2.6 3.4 5.1 3.4 0 0-3.5-4.7 0-4.7s11.3-0.8 12.5-4.3c1.1-3.7 0.5-9.6 0.5-9.6z" fill="#ACD4F7"/>
		<path d="m270.4 606.3c-2.8 0-4.7-2.3-5.6-3.6-0.4-0.6-1.1-1-1.9-1-4.5 0-7.5-1-9.5-3-2.1-2.2-2.9-5.7-2.7-11.2 0.4-8.9 8.9-9.3 11.5-9.2h2.2c2.3-0.1 6.8-0.2 11.5 0.4 7.2 0.8 8 8.3 8 8.7 0 0.3 0.6 6.1-0.6 9.8-1.6 4.6-12.5 4.6-13 4.6s-0.9 0.1-1 0.4c-0.3 0.7 0.6 2.5 1.4 3.5 0.1 0.2 0.1 0.4 0 0.5 0.1-0.1-0.1 0.1-0.3 0.1zm-8.6-27.2c-3.2 0-9.7 0.9-10 8.3-0.2 5.2 0.5 8.4 2.4 10.4 1.7 1.8 4.5 2.7 8.8 2.7 1.1 0 2.1 0.6 2.7 1.5 0.8 1.2 2 2.6 3.7 3-0.6-1-1.4-2.6-0.9-3.6 0.3-0.6 0.9-0.9 1.9-0.9 4.3 0 11-1.1 12-4 1.2-3.5 0.6-9.3 0.6-9.3 0-0.3-0.6-7.1-7.1-7.8-4.7-0.5-9.1-0.4-11.4-0.4h-2.2c-0.2 0.1-0.3 0.1-0.5 0.1z"/>
		<path d="m108.5 659.1c4.1-2 7-6.3 7-11.2 0-6.9-5.6-12.5-12.5-12.5s-12.5 5.6-12.5 12.5c0 4.9 2.9 9.2 7 11.2-6 2.2-10.3 8-10.3 14.8v10.8h31.6v-10.8c0-6.8-4.3-12.6-10.3-14.8z" fill="#ACD4F7"/>
		
			<path d="m118.8 685.2h-5.7c-0.3 0-0.5-0.2-0.5-0.5s0.2-0.5 0.5-0.5h5.2v-10.3c0-6.3-4-12.1-10-14.3-0.2-0.1-0.3-0.2-0.3-0.4s0.1-0.4 0.3-0.5c4.1-2 6.7-6.2 6.7-10.8 0-6.6-5.4-12-12-12s-12 5.4-12 12c0 4.6 2.6 8.7 6.7 10.8 0.2 0.1 0.3 0.3 0.3 0.5s-0.1 0.4-0.3 0.4c-6 2.2-10 8-10 14.3v10.3h18.3c0.3 0 0.5 0.2 0.5 0.5s-0.2 0.5-0.5 0.5h-18.8c-0.3 0-0.5-0.2-0.5-0.5v-10.8c0-6.4 3.8-12.2 9.6-14.8-3.9-2.3-6.3-6.5-6.3-11.2 0-7.2 5.8-13 13-13s13 5.8 13 13c0 4.6-2.4 8.8-6.3 11.2 5.8 2.6 9.6 8.4 9.6 14.8v10.8c0 0.2-0.3 0.5-0.5 0.5z"/>
		
		<path d="m80.3 647.7c4.1-2 7-6.3 7-11.2 0-6.9-5.6-12.5-12.5-12.5s-12.5 5.6-12.5 12.5c0 4.9 2.9 9.2 7 11.2-6 2.2-10.3 8-10.3 14.8v10.8h31.6v-10.8c0-6.8-4.3-12.6-10.3-14.8z" fill="#ACD4F7"/>
		
			<path d="m90.6 673.7h-5.7c-0.3 0-0.5-0.2-0.5-0.5s0.2-0.5 0.5-0.5h5.2v-10.3c0-6.3-4-12.1-10-14.3-0.2-0.1-0.3-0.2-0.3-0.4s0.1-0.4 0.3-0.5c4.1-2 6.7-6.2 6.7-10.8 0-6.6-5.4-12-12-12s-12 5.4-12 12c0 4.6 2.6 8.7 6.7 10.8 0.2 0.1 0.3 0.3 0.3 0.5s-0.1 0.4-0.3 0.4c-6 2.2-10 8-10 14.3v10.3h18.3c0.3 0 0.5 0.2 0.5 0.5s-0.2 0.5-0.5 0.5h-18.8c-0.3 0-0.5-0.2-0.5-0.5v-10.8c0-6.4 3.8-12.2 9.6-14.8-3.9-2.3-6.3-6.5-6.3-11.2 0-7.2 5.8-13 13-13s13 5.8 13 13c0 4.6-2.4 8.8-6.3 11.2 5.8 2.6 9.6 8.4 9.6 14.8v10.8c0 0.3-0.3 0.5-0.5 0.5z"/>
		
		
			
				<path d="m158.6 675c-0.9 0.1-1.8 0.1-2.7-0.1-2-0.5-3.8-1.8-5-3.8-2.4-4-1.4-9.2 2.1-11.7l15.4-10.8c1.2-0.8 2.7-1.1 4.1-0.8 1.6 0.4 3 1.5 3.8 3 1.6 2.9 0.8 6.7-1.8 8.5l-8.7 5.8c-0.6 0.4-1.3 0.5-1.9 0.4-0.7-0.2-1.4-0.6-1.8-1.3-0.8-1.3-0.5-3.1 0.6-4l5.2-4.1c0.2-0.2 0.5-0.1 0.7 0.1s0.1 0.5-0.1 0.7l-5.2 4.1c-0.7 0.6-0.9 1.8-0.4 2.7 0.3 0.5 0.7 0.8 1.1 0.9s0.8 0 1.1-0.2l8.7-5.8c2.2-1.4 2.8-4.6 1.5-7.1-0.7-1.3-1.8-2.2-3.1-2.5-1.2-0.3-2.3 0-3.3 0.6l-15.4 10.8c-3.1 2.2-3.9 6.8-1.8 10.3 1 1.7 2.6 2.9 4.3 3.3 1.6 0.4 3.2 0.1 4.5-0.8l10-6.4c0.2-0.1 0.5-0.1 0.7 0.2 0.1 0.2 0.1 0.5-0.2 0.7l-10 6.4c-0.6 0.4-1.5 0.7-2.4 0.9z"/>
			
		
		
			
				<path d="m201.1 385.9c-0.9 0.1-1.8 0.1-2.7-0.1-2-0.5-3.8-1.8-5-3.8-2.4-4-1.4-9.2 2.1-11.7l15.4-10.8c1.2-0.8 2.7-1.1 4.1-0.8 1.6 0.4 3 1.5 3.8 3 1.6 2.9 0.8 6.7-1.8 8.5l-8.7 5.8c-0.6 0.4-1.3 0.5-1.9 0.4-0.7-0.2-1.4-0.6-1.8-1.3-0.8-1.3-0.5-3.1 0.6-4l5.2-4.1c0.2-0.2 0.5-0.1 0.7 0.1s0.1 0.5-0.1 0.7l-5.2 4.1c-0.7 0.6-0.9 1.8-0.4 2.7 0.3 0.5 0.7 0.8 1.1 0.9s0.8 0 1.1-0.2l8.7-5.8c2.2-1.4 2.8-4.6 1.5-7.1-0.7-1.3-1.8-2.2-3.1-2.5-1.2-0.3-2.3 0-3.3 0.6l-15.4 10.8c-3.1 2.2-3.9 6.8-1.8 10.3 1 1.7 2.6 2.9 4.3 3.3 1.6 0.4 3.2 0.1 4.5-0.8l10-6.4c0.2-0.1 0.5-0.1 0.7 0.2 0.1 0.2 0.1 0.5-0.2 0.7l-10 6.4c-0.5 0.4-1.4 0.8-2.4 0.9z"/>
			
		
		
			<path d="m264.7 55.6s-4 2.9-1 12.2l13.1-8.8c-5.8-4.9-10.2-5.3-12.1-3.4z" fill="#ACD4F7"/>
			<path d="m276.8 59.1-13.1 8.8c1.6 5 5.3 12 12.6 21.3 0 0 12 12.3 17 8.7s2.4-15.3-7.7-29.1c-3.2-4.3-6.1-7.5-8.8-9.7z" fill="#F2F0E8"/>
		
		
			<path d="m266.1 54.6s-4 2.9-1 12.2l13.1-8.8c-5.8-4.9-10.2-5.4-12.1-3.4z" fill="#ACD4F7"/>
			<path d="m278.2 58-13.1 8.8c1.6 5 5.3 12 12.6 21.3 0 0 12 12.3 17 8.7 4.9-3.6 2.4-15.3-7.7-29.1-3.2-4.3-6.1-7.5-8.8-9.7z" fill="#F2F0E8"/>
		
		
			<path d="m293.3 98.5c-5.3 3.5-17-8.4-17.5-8.9-12.6-16.1-14.5-25.1-13.8-29.8 0.4-3 1.9-4.3 2.2-4.5 0.9-0.9 2.2-1.3 3.8-1.2 4.9 0.4 11.4 5.6 17.9 14.5 4.9 6.7 8.2 13.1 9.5 18.6 1.3 5.4 0.6 9.4-2 11.3 0-0.1-0.1 0-0.1 0zm-28.5-42.4s-1.4 1.1-1.8 3.9c-0.6 4.5 1.2 13.2 13.6 28.9 3.2 3.3 12.6 11.4 16.3 8.7 2.3-1.7 2.8-5.3 1.6-10.2-1.3-5.3-4.6-11.6-9.4-18.2-6.2-8.5-12.6-13.7-17.2-14.1-1.3-0.1-2.3 0.2-3.1 1z"/>
		
		
			<rect transform="matrix(.8309 -.5564 .5564 .8309 10.367 161.04)" x="262.2" y="63.2" width="15.8" height=".5"/>
		
		<path d="m277.5 90.4-4.7 10.5 7.5 11.1 0.7-7.8 8.1-5.4c-3.6-1.7-7.4-4.4-11.6-8.4z" fill="#ACD4F7"/>
		<path d="m292.3 80.2 11.6 0.1 7.5 11.1-7.4-2.4-8.1 5.4c-0.4-3.8-0.6-7.3-3.6-14.2z" fill="#ACD4F7"/>
		<path d="m281 69.8c1.7 2.5 1 5.9-1.5 7.6s-5.9 1-7.6-1.5-1-5.9 1.5-7.6 5.9-1.1 7.6 1.5z" fill="#fff"/>
		
			<path d="m279.7 77.8c-2.7 1.8-6.5 1.1-8.3-1.6s-1.1-6.5 1.6-8.3c0.2-0.2 0.5-0.1 0.7 0.1s0.1 0.5-0.1 0.7c-2.3 1.5-2.9 4.6-1.4 6.9s4.6 2.9 6.9 1.4 2.9-4.6 1.4-6.9c-0.2-0.2-0.1-0.5 0.1-0.7s0.5-0.1 0.7 0.1c1.9 2.7 1.2 6.4-1.6 8.3z"/>
		
		
			<path d="m297.9 104.5c-0.2 0.2-0.5 0.1-0.7-0.1l-8.8-13.2c-0.2-0.2-0.1-0.5 0.1-0.7s0.5-0.1 0.7 0.1l8.8 13.2c0.2 0.3 0.1 0.6-0.1 0.7z"/>
		
		
			<path d="m280.2 112.7s-0.1 0.1-0.2 0.1c-0.2 0.1-0.4 0-0.5-0.2l-7.5-11.1c-0.1-0.1-0.1-0.3 0-0.5l4.7-10.5c0.1-0.1 0.2-0.3 0.4-0.3s0.3 0 0.4 0.1c4.3 4 8.9 6.4 12 8 0.2 0.1 0.3 0.2 0.3 0.4s-0.1 0.3-0.2 0.4l-8.5 5.7-0.6 7.5c-0.1 0.1-0.2 0.3-0.3 0.4zm-7.2-11.6 6.5 9.7 0.5-6.4c0-0.2 0.1-0.3 0.2-0.4l8-5.3c-3-1.5-7-3.7-10.9-7.3l-4.3 9.7z"/>
		
		
			<path d="m280.7 104.7c-0.1 0.1-0.3 0-0.3-0.1l-6-8.2c-0.1-0.1-0.1-0.3 0.1-0.3 0.1-0.1 0.3-0.1 0.3 0.1l6 8.2c0.1 0 0 0.2-0.1 0.3z"/>
		
		
			<path d="m311.7 91.5c-0.1 0.1-0.3 0.1-0.4 0.1l-7.2-2.3-8.4 5.6c-0.2 0.1-0.4 0.1-0.5 0-0.2-0.1-0.3-0.3-0.2-0.5 0.3-3.9-0.1-7.7-3-14.4-0.1-0.2-0.1-0.3 0-0.5 0.1-0.1 0.3-0.2 0.4-0.2l11.6 0.1c0.2 0 0.3 0.1 0.4 0.2l7.5 11.1c0.1 0.2 0.1 0.4 0 0.6s-0.1 0.2-0.2 0.2zm-15.7 2 7.7-5.2c0.1-0.1 0.3-0.1 0.4-0.1l6.1 1.9-6.5-9.7-10.6-0.1c2.5 6 3.1 9.7 2.9 13.2z"/>
		
		
			<path d="m304.2 89c-0.1 0.1-0.3 0-0.4-0.1l-5.3-8.7c-0.1-0.1 0-0.3 0.1-0.3 0.1-0.1 0.3 0 0.3 0.1l5.3 8.7c0.1 0.1 0.1 0.2 0 0.3z"/>
		
		<path d="m265.8 54.6c0 0.4-1.8 7.3 2.2 15.4s13.1 23.2 22.5 24.3l2.9 3.7s-6.6 3.4-17-8.7c-12-14-16.8-29.5-12.3-33.2l1.7-1.5z" fill="#A0A0A0" opacity=".2"/>
		
			<path d="m256.2 443.9s-4 2.9-1 12.2l13.1-8.8c-5.8-4.9-10.2-5.4-12.1-3.4z" fill="#ACD4F7"/>
			<path d="m268.3 447.3-13.1 8.8c1.6 5 5.3 12 12.6 21.3 0 0 12 12.3 17 8.7s2.4-15.3-7.7-29.1c-3.1-4.2-6.1-7.4-8.8-9.7z" fill="#F2F0E8"/>
		
		
			<path d="m257.6 442.8s-4 2.9-1 12.2l13.1-8.8c-5.8-4.9-10.2-5.4-12.1-3.4z" fill="#ACD4F7"/>
			<path d="m269.7 446.2-13.1 8.8c1.6 5 5.3 12 12.6 21.3 0 0 12 12.3 17 8.7s2.4-15.3-7.7-29.1c-3.2-4.2-6.1-7.4-8.8-9.7z" fill="#F2F0E8"/>
		
		
			<path d="m284.8 486.7c-5.3 3.5-17-8.4-17.5-8.9-12.6-16.1-14.5-25.1-13.8-29.8 0.4-3 1.9-4.3 2.2-4.5 0.9-0.9 2.2-1.3 3.8-1.2 4.9 0.4 11.4 5.6 17.9 14.5 4.9 6.7 8.2 13.1 9.5 18.6 1.3 5.4 0.6 9.4-2 11.3h-0.1zm-28.5-42.4s-1.4 1.1-1.8 3.9c-0.6 4.5 1.2 13.2 13.6 28.9 3.2 3.3 12.6 11.4 16.3 8.7 2.3-1.7 2.8-5.3 1.6-10.2-1.3-5.3-4.6-11.6-9.4-18.2-6.2-8.5-12.6-13.7-17.2-14.1-1.3 0-2.3 0.3-3.1 1z"/>
		
		
			<rect transform="matrix(.8309 -.5564 .5564 .8309 -207.07 221.95)" x="253.7" y="451.4" width="15.8" height=".5"/>
		
		<path d="m269 478.7-4.7 10.5 7.5 11.1 0.7-7.8 8.1-5.4c-3.6-1.8-7.4-4.5-11.6-8.4z" fill="#ACD4F7"/>
		<path d="m283.8 468.5 11.6 0.1 7.5 11.1-7.4-2.4-8.1 5.4c-0.4-3.8-0.6-7.4-3.6-14.2z" fill="#ACD4F7"/>
		<path d="m272.5 458c1.7 2.5 1 5.9-1.5 7.6s-5.9 1-7.6-1.5-1-5.9 1.5-7.6 5.9-1 7.6 1.5z" fill="#fff"/>
		
			<path d="m271.3 466c-2.7 1.8-6.5 1.1-8.3-1.6s-1.1-6.5 1.6-8.3c0.2-0.2 0.5-0.1 0.7 0.1s0.1 0.5-0.1 0.7c-2.3 1.5-2.9 4.6-1.4 6.9s4.6 2.9 6.9 1.4 2.9-4.6 1.4-6.9c-0.2-0.2-0.1-0.5 0.1-0.7s0.5-0.1 0.7 0.1c1.8 2.8 1.1 6.5-1.6 8.3z"/>
		
		
			<path d="m289.4 492.8c-0.2 0.2-0.5 0.1-0.7-0.1l-8.8-13.2c-0.2-0.2-0.1-0.5 0.1-0.7s0.5-0.1 0.7 0.1l8.8 13.2c0.2 0.2 0.1 0.5-0.1 0.7z"/>
		
		
			<path d="m271.7 500.9s-0.1 0.1-0.2 0.1c-0.2 0.1-0.4 0-0.5-0.2l-7.5-11.1c-0.1-0.1-0.1-0.3 0-0.5l4.7-10.5c0.1-0.1 0.2-0.3 0.4-0.3s0.3 0 0.4 0.1c4.3 4 8.9 6.4 12 8 0.2 0.1 0.3 0.2 0.3 0.4s-0.1 0.3-0.2 0.4l-8.5 5.7-0.6 7.5c-0.1 0.2-0.2 0.3-0.3 0.4zm-7.2-11.6 6.5 9.7 0.5-6.4c0-0.2 0.1-0.3 0.2-0.4l8-5.3c-3-1.5-7-3.7-10.9-7.3l-4.3 9.7z"/>
		
		
			<path d="m272.2 492.9c-0.1 0.1-0.3 0-0.3-0.1l-6-8.2c-0.1-0.1-0.1-0.3 0.1-0.3 0.1-0.1 0.3-0.1 0.3 0.1l6 8.2c0.1 0.1 0.1 0.2-0.1 0.3z"/>
		
		
			<path d="m303.3 479.8c-0.1 0.1-0.3 0.1-0.4 0.1l-7.2-2.3-8.4 5.6c-0.2 0.1-0.4 0.1-0.5 0-0.2-0.1-0.3-0.3-0.2-0.5 0.3-3.9-0.1-7.7-3-14.4-0.1-0.2-0.1-0.3 0-0.5 0.1-0.1 0.3-0.2 0.4-0.2l11.6 0.1c0.2 0 0.3 0.1 0.4 0.2l7.5 11.1c0.1 0.2 0.1 0.4 0 0.6-0.2 0.1-0.2 0.2-0.2 0.2zm-15.8 2 7.7-5.2c0.1-0.1 0.3-0.1 0.4-0.1l6.1 1.9-6.5-9.7-10.6-0.1c2.5 5.9 3.1 9.6 2.9 13.2z"/>
		
		
			<path d="m295.7 477.2c-0.1 0.1-0.3 0-0.4-0.1l-5.3-8.7c-0.1-0.1 0-0.3 0.1-0.3 0.1-0.1 0.3 0 0.3 0.1l5.3 8.7c0.1 0.1 0.1 0.2 0 0.3z"/>
		
		<path d="m257.3 442.8c0 0.4-1.8 7.3 2.2 15.4s13.1 23.2 22.5 24.3l2.9 3.7s-6.6 3.4-17-8.7c-12-14-16.8-29.5-12.3-33.2l1.7-1.5z" fill="#A0A0A0" opacity=".2"/>
		
			<ellipse transform="matrix(.9263 -.3768 .3768 .9263 -30.829 87.059)" cx="207.1" cy="122.3" rx="25.4" ry="25.4" fill="#A0A0A0" opacity=".18"/>
		<circle cx="203.2" cy="123.5" r="25.4" fill="#F2F0E8"/>
		<path d="m207.1 124.1c0 1.8-1.5 3.3-3.3 3.3s-3.3-1.5-3.3-3.3 1.5-3.3 3.3-3.3 3.3 1.5 3.3 3.3z" fill="#ACD4F7"/>
		<path d="m204.8 104.8c0 0.9-0.7 1.6-1.6 1.6s-1.6-0.7-1.6-1.6 0.7-1.6 1.6-1.6c0.9-0.1 1.6 0.7 1.6 1.6z" fill="#ACD4F7"/>
		<path d="m223.9 123.2c0 0.9-0.7 1.6-1.6 1.6s-1.6-0.7-1.6-1.6 0.7-1.6 1.6-1.6c0.8 0 1.6 0.7 1.6 1.6z" fill="#ACD4F7"/>
		<path d="m204.8 141.8c0 0.9-0.7 1.6-1.6 1.6s-1.6-0.7-1.6-1.6 0.7-1.6 1.6-1.6 1.6 0.7 1.6 1.6z" fill="#ACD4F7"/>
		<path d="m186.2 123.2c0 0.9-0.7 1.6-1.6 1.6s-1.6-0.7-1.6-1.6 0.7-1.6 1.6-1.6 1.6 0.7 1.6 1.6z" fill="#ACD4F7"/>
		
			
				<path d="m203.2 149.5c-14.3 0-25.9-11.6-25.9-25.9s11.6-25.9 25.9-25.9c6.8 0 13.1 2.6 18 7.3 0.2 0.2 0.2 0.5 0 0.7s-0.5 0.2-0.7 0c-4.7-4.5-10.8-7-17.3-7-13.7 0-24.9 11.2-24.9 24.9s11.2 24.9 24.9 24.9 24.9-11.2 24.9-24.9c0-0.3 0.2-0.5 0.5-0.5s0.5 0.2 0.5 0.5c0 14.2-11.6 25.9-25.9 25.9z"/>
			
		
		
			
				<path d="m203.8 127.1c-1.6 0-2.9-1.3-2.9-2.9s1.3-2.9 2.9-2.9 2.9 1.3 2.9 2.9-1.3 2.9-2.9 2.9zm0-4.9c-1.1 0-1.9 0.9-1.9 1.9 0 1.1 0.9 1.9 1.9 1.9 1.1 0 1.9-0.9 1.9-1.9s-0.9-1.9-1.9-1.9z"/>
			
		
		
			
				<path d="m203.2 143.9c-1.2 0-2.1-0.9-2.1-2.1s0.9-2.1 2.1-2.1 2.1 0.9 2.1 2.1-1 2.1-2.1 2.1zm0-3.2c-0.6 0-1.1 0.5-1.1 1.1s0.5 1.1 1.1 1.1 1.1-0.5 1.1-1.1-0.5-1.1-1.1-1.1z"/>
			
		
		
			
				<path d="m222.3 125.3c-1.2 0-2.1-0.9-2.1-2.1s0.9-2.1 2.1-2.1 2.1 0.9 2.1 2.1-1 2.1-2.1 2.1zm0-3.2c-0.6 0-1.1 0.5-1.1 1.1s0.5 1.1 1.1 1.1 1.1-0.5 1.1-1.1-0.5-1.1-1.1-1.1z"/>
			
		
		
			
				<path d="m220.6 116.8c-0.8 0-1.4-0.6-1.4-1.4s0.6-1.4 1.4-1.4 1.4 0.6 1.4 1.4-0.6 1.4-1.4 1.4zm0-2.2c-0.5 0-0.9 0.4-0.9 0.9s0.4 0.9 0.9 0.9 0.9-0.4 0.9-0.9-0.4-0.9-0.9-0.9z"/>
			
		
		
			
				<path d="m220.2 134.9c-0.8 0-1.4-0.6-1.4-1.4s0.6-1.4 1.4-1.4 1.4 0.6 1.4 1.4c-0.1 0.7-0.7 1.4-1.4 1.4zm0-2.3c-0.5 0-0.9 0.4-0.9 0.9s0.4 0.9 0.9 0.9 0.9-0.4 0.9-0.9c-0.1-0.5-0.5-0.9-0.9-0.9z"/>
			
		
		
			
				<path d="m214.1 141.6c-0.8 0-1.4-0.6-1.4-1.4s0.6-1.4 1.4-1.4 1.4 0.6 1.4 1.4-0.7 1.4-1.4 1.4zm0-2.3c-0.5 0-0.9 0.4-0.9 0.9s0.4 0.9 0.9 0.9 0.9-0.4 0.9-0.9-0.4-0.9-0.9-0.9z"/>
			
		
		
			
				<path d="m187.4 134.9c-0.8 0-1.4-0.6-1.4-1.4s0.6-1.4 1.4-1.4 1.4 0.6 1.4 1.4c-0.1 0.7-0.7 1.4-1.4 1.4zm0-2.3c-0.5 0-0.9 0.4-0.9 0.9s0.4 0.9 0.9 0.9 0.9-0.4 0.9-0.9c-0.1-0.5-0.4-0.9-0.9-0.9z"/>
			
		
		
			
				<path d="m193.3 141.6c-0.8 0-1.4-0.6-1.4-1.4s0.6-1.4 1.4-1.4 1.4 0.6 1.4 1.4-0.6 1.4-1.4 1.4zm0-2.3c-0.5 0-0.9 0.4-0.9 0.9s0.4 0.9 0.9 0.9 0.9-0.4 0.9-0.9-0.4-0.9-0.9-0.9z"/>
			
		
		
			
				<path d="m215.1 110.6c-0.8 0-1.4-0.6-1.4-1.4s0.6-1.4 1.4-1.4 1.4 0.6 1.4 1.4-0.6 1.4-1.4 1.4zm0-2.2c-0.5 0-0.9 0.4-0.9 0.9s0.4 0.9 0.9 0.9 0.9-0.4 0.9-0.9-0.4-0.9-0.9-0.9z"/>
			
		
		
			
				<path d="m187.4 116.8c-0.8 0-1.4-0.6-1.4-1.4s0.6-1.4 1.4-1.4 1.4 0.6 1.4 1.4-0.7 1.4-1.4 1.4zm0-2.2c-0.5 0-0.9 0.4-0.9 0.9s0.4 0.9 0.9 0.9 0.9-0.4 0.9-0.9c-0.1-0.5-0.4-0.9-0.9-0.9z"/>
			
		
		
			
				<path d="m192.2 111.1c-0.8 0-1.4-0.6-1.4-1.4s0.6-1.4 1.4-1.4 1.4 0.6 1.4 1.4-0.6 1.4-1.4 1.4zm0-2.2c-0.5 0-0.9 0.4-0.9 0.9s0.4 0.9 0.9 0.9 0.9-0.4 0.9-0.9-0.4-0.9-0.9-0.9z"/>
			
		
		
			
				<path d="m184.6 125.3c-1.2 0-2.1-0.9-2.1-2.1s0.9-2.1 2.1-2.1 2.1 0.9 2.1 2.1-0.9 2.1-2.1 2.1zm0-3.2c-0.6 0-1.1 0.5-1.1 1.1s0.5 1.1 1.1 1.1 1.1-0.5 1.1-1.1-0.5-1.1-1.1-1.1z"/>
			
		
		
			
				<path d="m203.2 106.9c-1.2 0-2.1-0.9-2.1-2.1s0.9-2.1 2.1-2.1 2.1 0.9 2.1 2.1c0 1.1-1 2.1-2.1 2.1zm0-3.2c-0.6 0-1.1 0.5-1.1 1.1s0.5 1.1 1.1 1.1 1.1-0.5 1.1-1.1-0.5-1.1-1.1-1.1z"/>
			
		
		
			
				<path d="m202 123c-0.2 0-0.4-0.1-0.5-0.3l-6.7-17.7c-0.1-0.3 0-0.5 0.3-0.6s0.5 0 0.6 0.3l6.7 17.7c0.1 0.3 0 0.5-0.3 0.6h-0.1z"/>
			
		
		
			
				<path d="m206 123.7c-0.2 0-0.4-0.1-0.5-0.3-0.1-0.3 0-0.5 0.3-0.6l10.2-4.1c0.3-0.1 0.5 0 0.6 0.3s0 0.5-0.3 0.6l-10.2 4.1h-0.1z"/>
			
		
		
			
				<path d="m197.5 138.4h-0.1c-0.1-0.1-0.2-0.2-0.1-0.3l5.2-11.6c0.1-0.1 0.2-0.2 0.3-0.1s0.2 0.2 0.1 0.3l-5.2 11.6s-0.1 0.1-0.2 0.1z"/>
			
		
		<path d="m204.4 97.6c-1.2 0.5-19.5 9.5-18.4 27.2s17.2 24.2 17.2 24.2-25.4-0.1-25.4-25.4c-0.1-25.5 26.6-26 26.6-26z" fill="#A0A0A0" opacity=".2"/>
		
			<ellipse transform="matrix(.9263 -.3768 .3768 .9263 -296.02 75.716)" cx="45.5" cy="794.5" rx="25.4" ry="25.4" fill="#A0A0A0" opacity=".18"/>
		<circle cx="41.6" cy="795.7" r="25.4" fill="#F2F0E8"/>
		<path d="m45.5 796.3c0 1.8-1.5 3.3-3.3 3.3s-3.3-1.5-3.3-3.3 1.5-3.3 3.3-3.3 3.3 1.5 3.3 3.3z" fill="#ACD4F7"/>
		<path d="m43.2 776.9c0 0.9-0.7 1.6-1.6 1.6s-1.6-0.7-1.6-1.6 0.7-1.6 1.6-1.6 1.6 0.7 1.6 1.6z" fill="#ACD4F7"/>
		<path d="m62.3 795.3c0 0.9-0.7 1.6-1.6 1.6s-1.6-0.7-1.6-1.6 0.7-1.6 1.6-1.6 1.6 0.7 1.6 1.6z" fill="#ACD4F7"/>
		<path d="m43.2 814c0 0.9-0.7 1.6-1.6 1.6s-1.6-0.7-1.6-1.6 0.7-1.6 1.6-1.6 1.6 0.7 1.6 1.6z" fill="#ACD4F7"/>
		<path d="m24.6 795.3c0 0.9-0.7 1.6-1.6 1.6s-1.6-0.7-1.6-1.6 0.7-1.6 1.6-1.6 1.6 0.7 1.6 1.6z" fill="#ACD4F7"/>
		
			
				<path d="m41.6 821.6c-14.3 0-25.9-11.6-25.9-25.9s11.6-25.9 25.9-25.9c6.8 0 13.1 2.6 18 7.3 0.2 0.2 0.2 0.5 0 0.7s-0.5 0.2-0.7 0c-4.7-4.5-10.8-7-17.3-7-13.7 0-24.9 11.2-24.9 24.9s11.2 24.9 24.9 24.9 24.9-11.2 24.9-24.9c0-0.3 0.2-0.5 0.5-0.5s0.5 0.2 0.5 0.5c0 14.3-11.6 25.9-25.9 25.9z"/>
			
		
		
			
				<path d="m42.2 799.2c-1.6 0-2.9-1.3-2.9-2.9s1.3-2.9 2.9-2.9 2.9 1.3 2.9 2.9-1.3 2.9-2.9 2.9zm0-4.8c-1.1 0-1.9 0.9-1.9 1.9 0 1.1 0.9 1.9 1.9 1.9 1.1 0 1.9-0.9 1.9-1.9 0-1.1-0.8-1.9-1.9-1.9z"/>
			
		
		
			
				<path d="m41.6 816.1c-1.2 0-2.1-0.9-2.1-2.1s0.9-2.1 2.1-2.1 2.1 0.9 2.1 2.1c0 1.1-0.9 2.1-2.1 2.1zm0-3.2c-0.6 0-1.1 0.5-1.1 1.1s0.5 1.1 1.1 1.1 1.1-0.5 1.1-1.1-0.5-1.1-1.1-1.1z"/>
			
		
		
			
				<path d="m60.7 797.5c-1.2 0-2.1-0.9-2.1-2.1s0.9-2.1 2.1-2.1 2.1 0.9 2.1 2.1-1 2.1-2.1 2.1zm0-3.3c-0.6 0-1.1 0.5-1.1 1.1s0.5 1.1 1.1 1.1 1.1-0.5 1.1-1.1-0.5-1.1-1.1-1.1z"/>
			
		
		
			
				<path d="m59 789c-0.8 0-1.4-0.6-1.4-1.4s0.6-1.4 1.4-1.4 1.4 0.6 1.4 1.4-0.6 1.4-1.4 1.4zm0-2.3c-0.5 0-0.9 0.4-0.9 0.9s0.4 0.9 0.9 0.9 0.9-0.4 0.9-0.9-0.4-0.9-0.9-0.9z"/>
			
		
		
			
				<path d="m58.6 807c-0.8 0-1.4-0.6-1.4-1.4s0.6-1.4 1.4-1.4 1.4 0.6 1.4 1.4c-0.1 0.8-0.7 1.4-1.4 1.4zm0-2.2c-0.5 0-0.9 0.4-0.9 0.9s0.4 0.9 0.9 0.9 0.9-0.4 0.9-0.9c-0.1-0.5-0.4-0.9-0.9-0.9z"/>
			
		
		
			
				<path d="m52.5 813.7c-0.8 0-1.4-0.6-1.4-1.4s0.6-1.4 1.4-1.4 1.4 0.6 1.4 1.4-0.6 1.4-1.4 1.4zm0-2.2c-0.5 0-0.9 0.4-0.9 0.9s0.4 0.9 0.9 0.9 0.9-0.4 0.9-0.9-0.4-0.9-0.9-0.9z"/>
			
		
		
			
				<path d="m25.8 807c-0.8 0-1.4-0.6-1.4-1.4s0.6-1.4 1.4-1.4 1.4 0.6 1.4 1.4-0.7 1.4-1.4 1.4zm0-2.2c-0.5 0-0.9 0.4-0.9 0.9s0.4 0.9 0.9 0.9 0.9-0.4 0.9-0.9-0.4-0.9-0.9-0.9z"/>
			
		
		
			
				<path d="m31.8 813.7c-0.8 0-1.4-0.6-1.4-1.4s0.6-1.4 1.4-1.4 1.4 0.6 1.4 1.4c-0.1 0.8-0.7 1.4-1.4 1.4zm0-2.2c-0.5 0-0.9 0.4-0.9 0.9s0.4 0.9 0.9 0.9 0.9-0.4 0.9-0.9c-0.1-0.5-0.5-0.9-0.9-0.9z"/>
			
		
		
			
				<path d="m53.5 782.8c-0.8 0-1.4-0.6-1.4-1.4s0.6-1.4 1.4-1.4 1.4 0.6 1.4 1.4-0.6 1.4-1.4 1.4zm0-2.3c-0.5 0-0.9 0.4-0.9 0.9s0.4 0.9 0.9 0.9 0.9-0.4 0.9-0.9-0.4-0.9-0.9-0.9z"/>
			
		
		
			
				<path d="m25.8 789c-0.8 0-1.4-0.6-1.4-1.4s0.6-1.4 1.4-1.4 1.4 0.6 1.4 1.4-0.7 1.4-1.4 1.4zm0-2.3c-0.5 0-0.9 0.4-0.9 0.9s0.4 0.9 0.9 0.9 0.9-0.4 0.9-0.9-0.4-0.9-0.9-0.9z"/>
			
		
		
			
				<path d="m30.6 783.3c-0.8 0-1.4-0.6-1.4-1.4s0.6-1.4 1.4-1.4 1.4 0.6 1.4 1.4-0.6 1.4-1.4 1.4zm0-2.3c-0.5 0-0.9 0.4-0.9 0.9s0.4 0.9 0.9 0.9 0.9-0.4 0.9-0.9-0.4-0.9-0.9-0.9z"/>
			
		
		
			
				<path d="m23 797.5c-1.2 0-2.1-0.9-2.1-2.1s0.9-2.1 2.1-2.1 2.1 0.9 2.1 2.1-0.9 2.1-2.1 2.1zm0-3.3c-0.6 0-1.1 0.5-1.1 1.1s0.5 1.1 1.1 1.1 1.1-0.5 1.1-1.1-0.5-1.1-1.1-1.1z"/>
			
		
		
			
				<path d="m41.6 779c-1.2 0-2.1-0.9-2.1-2.1s0.9-2.1 2.1-2.1 2.1 0.9 2.1 2.1-0.9 2.1-2.1 2.1zm0-3.2c-0.6 0-1.1 0.5-1.1 1.1s0.5 1.1 1.1 1.1 1.1-0.5 1.1-1.1-0.5-1.1-1.1-1.1z"/>
			
		
		
			
				<path d="m40.4 795.1c-0.2 0-0.4-0.1-0.5-0.3l-6.7-17.7c-0.1-0.3 0-0.5 0.3-0.6s0.5 0 0.6 0.3l6.7 17.7c0.1 0.3 0 0.5-0.3 0.6h-0.1z"/>
			
		
		
			
				<path d="m44.4 795.8c-0.2 0-0.4-0.1-0.5-0.3-0.1-0.3 0-0.5 0.3-0.6l10.2-4.1c0.3-0.1 0.5 0 0.6 0.3s0 0.5-0.3 0.6l-10.2 4.1h-0.1z"/>
			
		
		
			
				<path d="m35.9 810.5h-0.1c-0.1-0.1-0.2-0.2-0.1-0.3l5.2-11.6c0.1-0.1 0.2-0.2 0.3-0.1s0.2 0.2 0.1 0.3l-5.2 11.6c0 0.1-0.1 0.1-0.2 0.1z"/>
			
		
		<path d="m42.8 769.8c-1.2 0.5-19.5 9.5-18.4 27.2s17.2 24.2 17.2 24.2-25.4-0.1-25.4-25.4c0-25.5 26.6-26 26.6-26z" fill="#A0A0A0" opacity=".2"/>
		
			<rect x="346.2" y="83.5" width="55" height="37.8" fill="#F2F0E8"/>
		
		
			<rect x="343.2" y="83.6" width="55" height="37.8" fill="#ACD4F7"/>
		
		<polygon points="373.9 112.9 391.3 83.9 383.9 83.6 364.8 112.9" fill="#F4F4F4" opacity=".25"/>
		<rect x="364" y="121.4" width="13.6" height="4" fill="#A0A0A0" opacity=".2"/>
		<rect x="365.3" y="121.6" width="13.6" height="4" fill="#A0A0A0" opacity=".2"/>
		<rect x="358" y="126.3" width="24.6" height="2" fill="#F2F0E8"/>
		<rect x="360.2" y="125.4" width="24.6" height="3.9" fill="#F2F0E8"/>
		
			<rect x="343.8" y="112.8" width="55" height="8.7" fill="#F2F0E8"/>
		
		
			
				<path d="m398.3 121.9h-55c-0.3 0-0.5-0.2-0.5-0.5v-37.8c0-0.3 0.2-0.5 0.5-0.5h55c0.3 0 0.5 0.2 0.5 0.5v37.8c0 0.3-0.3 0.5-0.5 0.5zm-54.6-1h54v-36.8h-54v36.8z"/>
			
		
		
			
				<path d="m377.2 125.9h-13c-0.1 0-0.2-0.1-0.2-0.2v-4.3c0-0.1 0.1-0.2 0.2-0.2h13c0.1 0 0.2 0.1 0.2 0.2v4.3c0.1 0.1 0 0.2-0.2 0.2zm-12.7-0.5h12.5v-3.8h-12.5v3.8z"/>
			
		
		
			
				<path d="m382.1 129.4h-24.8c-0.3 0-0.5-0.2-0.5-0.5v-3.2c0-0.3 0.2-0.5 0.5-0.5h24.8c0.3 0 0.5 0.2 0.5 0.5v3.2c0 0.3-0.3 0.5-0.5 0.5zm-24.4-1h23.8v-2.2h-23.8v2.2z"/>
			
		
		
			
				<path d="m386.6 112.9h-43.7c-0.1 0-0.2-0.1-0.2-0.2s0.1-0.2 0.2-0.2h43.7c0.1 0 0.2 0.1 0.2 0.2s0 0.2-0.2 0.2z"/>
			
		
		
			<path d="m370.7 116.8c-0.7 0-1.3-0.6-1.3-1.3s0.6-1.3 1.3-1.3 1.3 0.6 1.3 1.3c0.1 0.7-0.5 1.3-1.3 1.3zm0-2.2c-0.5 0-0.8 0.4-0.8 0.8 0 0.5 0.4 0.8 0.8 0.8 0.5 0 0.8-0.4 0.8-0.8 0.1-0.4-0.3-0.8-0.8-0.8z"/>
		
		<rect x="342.7" y="83.6" width="4.6" height="37.5" fill="#A0A0A0" opacity=".2"/>
		<polygon points="358.2 113.3 378 83.2 374.2 83.2 354.8 113.8" fill="#F4F4F4" opacity=".25"/>
		
			<rect x="185.9" y="507.7" width="55" height="37.8" fill="#F2F0E8"/>
		
		
			<rect x="182.9" y="507.9" width="55" height="37.8" fill="#ACD4F7"/>
		
		<polygon points="213.6 537.1 231 508.2 223.6 507.9 204.5 537.1" fill="#F4F4F4" opacity=".25"/>
		<rect x="203.7" y="545.6" width="13.6" height="4" fill="#A0A0A0" opacity=".2"/>
		<rect x="205" y="545.8" width="13.6" height="4" fill="#A0A0A0" opacity=".2"/>
		<rect x="197.7" y="550.6" width="24.6" height="2" fill="#F2F0E8"/>
		<rect x="199.9" y="549.6" width="24.6" height="3.9" fill="#F2F0E8"/>
		
			<rect x="183.5" y="537.1" width="55" height="8.7" fill="#F2F0E8"/>
		
		<path d="m238 546.1h-55c-0.3 0-0.5-0.2-0.5-0.5v-37.8c0-0.3 0.2-0.5 0.5-0.5h55c0.3 0 0.5 0.2 0.5 0.5v37.8c0 0.3-0.2 0.5-0.5 0.5zm-54.6-1h54v-36.8h-54v36.8z"/>
		
			
				<path d="m216.9 550.2h-13c-0.1 0-0.2-0.1-0.2-0.2v-4.3c0-0.1 0.1-0.2 0.2-0.2h13c0.1 0 0.2 0.1 0.2 0.2v4.3c0.1 0.1 0 0.2-0.2 0.2zm-12.7-0.5h12.5v-3.8h-12.5v3.8z"/>
			
		
		
			
				<path d="m221.8 553.7h-24.8c-0.3 0-0.5-0.2-0.5-0.5v-3.2c0-0.3 0.2-0.5 0.5-0.5h24.8c0.3 0 0.5 0.2 0.5 0.5v3.2c0 0.3-0.2 0.5-0.5 0.5zm-24.3-1h23.8v-2.2h-23.8v2.2z"/>
			
		
		
			
				<path d="m226.4 537.2h-43.7c-0.1 0-0.2-0.1-0.2-0.2s0.1-0.2 0.2-0.2h43.7c0.1 0 0.2 0.1 0.2 0.2s-0.1 0.2-0.2 0.2z"/>
			
		
		
			<path d="m210.5 541c-0.7 0-1.3-0.6-1.3-1.3s0.6-1.3 1.3-1.3 1.3 0.6 1.3 1.3-0.6 1.3-1.3 1.3zm0-2.1c-0.5 0-0.8 0.4-0.8 0.8 0 0.5 0.4 0.8 0.8 0.8s0.8-0.4 0.8-0.8c0-0.5-0.4-0.8-0.8-0.8z"/>
		
		<polygon points="197.9 537.6 217.7 507.5 213.9 507.5 194.6 538.1" fill="#F4F4F4" opacity=".25"/>
		<rect x="217.8" y="194.5" width="5" height="46" fill="#F2F0E8"/>
		
			<rect x="196.4" y="194.8" width="23.6" height="45.5" fill="#7ACBF5"/>
			<polygon points="209.8 230.4 227.2 201.5 219.8 201.1 200.6 230.4" fill="#F4F4F4" opacity=".25"/>
			<polygon points="194.1 230.8 213.9 200.8 210.1 200.8 190.7 231.4" fill="#F4F4F4" opacity=".25"/>
		
		<rect x="196.4" y="194.8" width="23.6" height="8.2" fill="#F2F0E8"/>
		<rect x="196.4" y="231" width="23.6" height="9.2" fill="#F2F0E8"/>
		
			<path d="m219.8 240.8h-23.6c-0.3 0-0.5-0.2-0.5-0.5v-45.5c0-0.3 0.2-0.5 0.5-0.5h23.6c0.3 0 0.5 0.2 0.5 0.5v18.6c0 0.3-0.2 0.5-0.5 0.5s-0.5-0.2-0.5-0.5v-18.1h-22.6v44.5h22.6v-15.8c0-0.3 0.2-0.5 0.5-0.5s0.5 0.2 0.5 0.5v16.2c0 0.4-0.2 0.6-0.5 0.6z"/>
		
		
			
				<rect x="196.2" y="230.6" width="23.6" height=".5"/>
			
		
		
			
				<rect x="196.2" y="202.5" width="23.6" height=".5"/>
			
		
		
			
				<path d="m208 237.5c-1 0-1.8-0.8-1.8-1.8s0.8-1.8 1.8-1.8 1.8 0.8 1.8 1.8-0.8 1.8-1.8 1.8zm0-2.6c-0.4 0-0.8 0.4-0.8 0.8s0.4 0.8 0.8 0.8 0.8-0.4 0.8-0.8-0.4-0.8-0.8-0.8z"/>
			
		
		<rect x="196.2" y="194.3" width="5" height="46" fill="#A0A0A0" opacity=".2"/>
		<rect x="354.3" y="389.7" width="5" height="46" fill="#F2F0E8"/>
		
			<rect x="332.9" y="390" width="23.6" height="45.5" fill="#7ACBF5"/>
			<polygon points="346.3 425.6 363.7 396.7 356.3 396.4 337.1 425.6" fill="#F4F4F4" opacity=".25"/>
			<polygon points="330.6 426.1 350.4 396 346.6 396 327.2 426.6" fill="#F4F4F4" opacity=".25"/>
		
		<rect x="332.9" y="390" width="23.6" height="8.2" fill="#F2F0E8"/>
		<rect x="332.9" y="426.3" width="23.6" height="9.2" fill="#F2F0E8"/>
		
			<path d="m356.3 436h-23.6c-0.3 0-0.5-0.2-0.5-0.5v-45.5c0-0.3 0.2-0.5 0.5-0.5h23.6c0.3 0 0.5 0.2 0.5 0.5v18.6c0 0.3-0.2 0.5-0.5 0.5s-0.5-0.2-0.5-0.5v-18.1h-22.6v44.5h22.6v-15.7c0-0.3 0.2-0.5 0.5-0.5s0.5 0.2 0.5 0.5v16.2c0 0.3-0.2 0.5-0.5 0.5z"/>
		
		
			
				<rect x="332.7" y="425.8" width="23.6" height=".5"/>
			
		
		
			
				<rect x="332.7" y="397.8" width="23.6" height=".5"/>
			
		
		
			
				<path d="m344.5 432.8c-1 0-1.8-0.8-1.8-1.8s0.8-1.8 1.8-1.8 1.8 0.8 1.8 1.8-0.8 1.8-1.8 1.8zm0-2.6c-0.4 0-0.8 0.4-0.8 0.8s0.4 0.8 0.8 0.8 0.8-0.4 0.8-0.8-0.4-0.8-0.8-0.8z"/>
			
		
		<rect x="332.7" y="389.5" width="5" height="46" fill="#A0A0A0" opacity=".2"/>
		
			<rect x="403.7" y="514.5" width="5" height="46" fill="#F2F0E8"/>
			
				<rect x="382.4" y="514.7" width="23.6" height="45.5" fill="#7ACBF5"/>
				<polygon points="395.7 550.4 413.2 521.4 405.7 521.1 386.6 550.4" fill="#F4F4F4" opacity=".25"/>
				<polygon points="380 550.8 399.8 520.7 396 520.7 376.7 551.3" fill="#F4F4F4" opacity=".25"/>
			
			<rect x="382.4" y="514.7" width="23.6" height="8.2" fill="#F2F0E8"/>
			<rect x="382.4" y="551" width="23.6" height="9.2" fill="#F2F0E8"/>
			
				<path d="m405.7 560.7h-23.6c-0.3 0-0.5-0.2-0.5-0.5v-45.5c0-0.3 0.2-0.5 0.5-0.5h23.6c0.3 0 0.5 0.2 0.5 0.5v18.6c0 0.3-0.2 0.5-0.5 0.5s-0.5-0.2-0.5-0.5v-18.1h-22.6v44.5h22.6v-15.7c0-0.3 0.2-0.5 0.5-0.5s0.5 0.2 0.5 0.5v16.2c0 0.3-0.2 0.5-0.5 0.5z"/>
			
			
				
					<rect x="382.2" y="550.5" width="23.6" height=".5"/>
				
			
			
				
					<rect x="382.2" y="522.5" width="23.6" height=".5"/>
				
			
			
				
					<path d="m393.9 557.5c-1 0-1.8-0.8-1.8-1.8s0.8-1.8 1.8-1.8 1.8 0.8 1.8 1.8-0.8 1.8-1.8 1.8zm0-2.6c-0.4 0-0.8 0.4-0.8 0.8s0.4 0.8 0.8 0.8 0.8-0.4 0.8-0.8-0.3-0.8-0.8-0.8z"/>
				
			
			<rect x="382.2" y="514.2" width="5" height="46" fill="#A0A0A0" opacity=".2"/>
		
		<rect x="261.7" y="143.1" width="55.6" height="37.8" fill="#F2F0E8"/>
		
			
				<path d="m317.8 182h-55.6c-0.3 0-0.5-0.2-0.5-0.5v-38.3c0-0.3 0.2-0.5 0.5-0.5h55.6c0.3 0 0.5 0.2 0.5 0.5v38.3c0 0.3-0.2 0.5-0.5 0.5zm-55.1-1h54.6v-37.3h-54.6v37.3z"/>
			
		
		
			
				<path d="m307.9 151h-45.4c-0.1 0-0.2-0.1-0.2-0.2s0.1-0.2 0.2-0.2h45.4c0.1 0 0.2 0.1 0.2 0.2 0.1 0.1 0 0.2-0.2 0.2z"/>
			
		
		
			
				<path d="m268.5 147.6c-0.3 0-0.6-0.3-0.6-0.6s0.3-0.6 0.6-0.6 0.6 0.3 0.6 0.6-0.2 0.6-0.6 0.6z"/>
			
		
		
			
				<path d="m264.7 147.6c-0.3 0-0.6-0.3-0.6-0.6s0.3-0.6 0.6-0.6 0.6 0.3 0.6 0.6-0.2 0.6-0.6 0.6z"/>
			
		
		
			
				<path d="m272.3 147.6c-0.3 0-0.6-0.3-0.6-0.6s0.3-0.6 0.6-0.6 0.6 0.3 0.6 0.6-0.3 0.6-0.6 0.6z"/>
			
		
		
			
				<path d="m301.6 175.6h-22c-0.2 0-0.3-0.2-0.3-0.3v-20.1c0-0.2 0.2-0.3 0.3-0.3s0.3 0.2 0.3 0.3v19.8h21.6c0.2 0 0.4 0.2 0.4 0.3 0.1 0.1-0.1 0.3-0.3 0.3z"/>
			
			<rect x="281.7" y="157.6" width="4.2" height="15.7" fill="#ACD4F7"/>
			<rect x="287.6" y="160.6" width="4.2" height="12.8" fill="#ACD4F7"/>
			<rect x="293.9" y="165.5" width="4.2" height="8" fill="#ACD4F7"/>
		
		<rect x="262.9" y="143.5" width="55.4" height="7" fill="#A0A0A0" opacity=".2"/>
		<rect x="262.2" y="142.6" width="3.2" height="38.8" fill="#A0A0A0" opacity=".2"/>
		<rect x="269" y="218.9" width="49.8" height="29.9" fill="#F2F0E8"/>
		
			
				<path d="m318.9 249.3h-49.9c-0.3 0-0.5-0.2-0.5-0.5v-29.9c0-0.3 0.2-0.5 0.5-0.5h49.8c0.3 0 0.5 0.2 0.5 0.5v10.4c0 0.3-0.2 0.5-0.5 0.5s-0.5-0.2-0.5-0.5v-9.9h-48.8v28.9h48.8v-8.5c0-0.3 0.2-0.5 0.5-0.5s0.5 0.2 0.5 0.5v9c0.1 0.3-0.2 0.5-0.4 0.5z"/>
			
		
		
			
				<path d="m295.4 240.3c-0.1 0-0.2 0-0.3-0.1l-26.4-20.9c-0.2-0.1-0.2-0.4-0.2-0.6 0.1-0.2 0.3-0.3 0.5-0.3h49.8c0.2 0 0.4 0.1 0.5 0.3s0 0.4-0.1 0.6l-23.5 20.9c-0.1 0-0.2 0.1-0.3 0.1zm-24.9-20.9 24.9 19.7 22.2-19.7h-47.1z"/>
			
		
		
			
				<path d="m318.9 248.9c-0.1 0-0.1 0-0.2-0.1l-15.9-15.4c-0.1-0.1-0.1-0.3 0-0.4s0.3-0.1 0.4 0l15.9 15.4c0.1 0.1 0.1 0.3 0 0.4s-0.2 0.1-0.2 0.1z"/>
			
		
		
			
				<path d="m269 248.9c-0.1 0-0.1 0-0.2-0.1s-0.1-0.3 0-0.4l17.7-15.4c0.1-0.1 0.3-0.1 0.4 0s0.1 0.3 0 0.4l-17.7 15.4c-0.1 0.1-0.1 0.1-0.2 0.1z"/>
			
		
		<rect x="269.1" y="219.3" width="5.6" height="29" fill="#A0A0A0" opacity=".2"/>
		
			<polyline points="96.8 446.4 47 447.3 73.6 468.1" fill="#ACD4F7"/>
			
				
					<path d="m96.8 477.3h-49.9c-0.3 0-0.5-0.2-0.5-0.5v-29.9c0-0.3 0.2-0.5 0.5-0.5h49.8c0.3 0 0.5 0.2 0.5 0.5v10.4c0 0.3-0.2 0.5-0.5 0.5s-0.5-0.2-0.5-0.5v-9.9h-48.8v28.9h48.8v-8.5c0-0.3 0.2-0.5 0.5-0.5s0.5 0.2 0.5 0.5v9c0.1 0.3-0.1 0.5-0.4 0.5z"/>
				
			
			
				
					<path d="m73.3 468.3c-0.1 0-0.2 0-0.3-0.1l-26.4-20.9c-0.2-0.1-0.2-0.4-0.2-0.6 0.1-0.2 0.3-0.3 0.5-0.3h49.8c0.2 0 0.4 0.1 0.5 0.3s0 0.4-0.1 0.6l-23.5 20.9c-0.1 0-0.2 0.1-0.3 0.1zm-24.9-20.9 24.9 19.7 22.2-19.7h-47.1z"/>
				
			
			
				
					<path d="m96.8 476.9c-0.1 0-0.1 0-0.2-0.1l-15.9-15.4c-0.1-0.1-0.1-0.3 0-0.4s0.3-0.1 0.4 0l15.9 15.5c0.1 0.1 0.1 0.3 0 0.4h-0.2z"/>
				
			
			
				
					<path d="m46.9 476.9c-0.1 0-0.1 0-0.2-0.1s-0.1-0.3 0-0.4l17.7-15.4c0.1-0.1 0.3-0.1 0.4 0s0.1 0.3 0 0.4l-17.7 15.4c0 0.1-0.1 0.1-0.2 0.1z"/>
				
			
			<rect x="47" y="447.3" width="5.6" height="29" fill="#A0A0A0" opacity=".2"/>
			<line x1="73.6" x2="96.8" y1="468.1" y2="446.4" fill="#7ACBF5"/>
		
		
			<path d="m266.4 325.3h-0.1c-0.1-0.1-0.2-0.2-0.1-0.3l10.2-20.6c0.1-0.1 0.2-0.2 0.3-0.1l20.3 9 9-20.9c0.1-0.1 0.2-0.2 0.3-0.1s0.2 0.2 0.1 0.3l-9 21.1c0 0.1-0.1 0.1-0.1 0.1h-0.2l-20.4-9-10.1 20.4c0 0.1-0.1 0.1-0.2 0.1z"/>
		
		<path d="m268.5 322.5c0.7 1.9-0.3 3.9-2.2 4.6s-3.9-0.3-4.6-2.2 0.3-3.9 2.2-4.6c1.8-0.7 3.9 0.3 4.6 2.2z" fill="#ACD4F7"/>
		<path d="m280 302c0.8 2.2-0.4 4.7-2.6 5.5s-4.7-0.4-5.5-2.6 0.4-4.7 2.6-5.5c2.3-0.8 4.7 0.4 5.5 2.6z" fill="#ACD4F7"/>
		<path d="m299.7 309.2c1.7 1.7 1.7 4.4 0 6-1.7 1.7-4.4 1.7-6 0-1.7-1.7-1.7-4.4 0-6 1.6-1.7 4.3-1.7 6 0z" fill="#ACD4F7"/>
		<path d="m309.5 289.7c0.8 2.1-0.4 4.5-2.5 5.2-2.1 0.8-4.5-0.4-5.2-2.5-0.8-2.1 0.4-4.5 2.5-5.2s4.5 0.4 5.2 2.5z" fill="#ACD4F7"/>
		
			<path d="m265.9 327.8c-0.5 0-1.1-0.1-1.6-0.3-1-0.4-1.8-1.2-2.2-2.2-0.8-2.1 0.2-4.5 2.3-5.3s4.5 0.2 5.3 2.3-0.2 4.5-2.3 5.3c-0.5 0.2-1 0.2-1.5 0.2zm0-7.1c-0.4 0-0.8 0.1-1.1 0.2-1.6 0.6-2.4 2.4-1.7 4 0.3 0.8 0.9 1.4 1.7 1.7s1.6 0.3 2.4 0c1.6-0.6 2.4-2.4 1.7-4-0.6-1.2-1.8-1.9-3-1.9z"/>
		
		
			<path d="m276.1 307.9c-1.9 0-3.7-1.1-4.4-3-1-2.4 0.2-5.2 2.7-6.2 1.2-0.5 2.5-0.5 3.7 0s2.1 1.4 2.6 2.6c1 2.4-0.2 5.2-2.7 6.2-0.7 0.3-1.3 0.4-1.9 0.4zm0-8.6c-0.5 0-0.9 0.1-1.4 0.3-0.9 0.4-1.7 1.1-2.1 2s-0.4 2 0 2.9c0.8 1.9 3 2.9 4.9 2.1s2.9-3 2.1-4.9c-0.6-1.5-2-2.4-3.5-2.4z"/>
		
		
			<path d="m296.6 317c-1.9 0-3.7-1.1-4.4-3-0.5-1.2-0.5-2.5 0-3.7s1.4-2.1 2.6-2.6c2.4-1 5.2 0.2 6.2 2.7 1 2.4-0.2 5.2-2.7 6.2-0.5 0.3-1.1 0.4-1.7 0.4zm0-8.6c-0.5 0-0.9 0.1-1.4 0.3-1.9 0.8-2.9 3-2.1 4.9s3 2.9 4.9 2.1 2.9-3 2.1-4.9c-0.6-1.5-2-2.4-3.5-2.4z"/>
		
		
			<path d="m305.7 295.7c-0.6 0-1.2-0.1-1.8-0.4-1.1-0.5-2-1.4-2.5-2.5s-0.4-2.4 0-3.5c0.5-1.1 1.4-2 2.5-2.5 2.4-0.9 5 0.2 6 2.6 0.5 1.1 0.4 2.4 0 3.5-0.5 1.1-1.4 2-2.5 2.5-0.6 0.2-1.1 0.3-1.7 0.3zm0-8.2c-0.4 0-0.9 0.1-1.3 0.3-1.8 0.7-2.7 2.8-2 4.7 0.7 1.8 2.8 2.7 4.7 2 0.9-0.4 1.6-1 2-1.9s0.4-1.9 0-2.8c-0.6-1.5-2-2.3-3.4-2.3z"/>
		
		
			<path d="m389.5 65.5h-0.1c-0.1-0.1-0.2-0.2-0.1-0.3l10.2-20.6c0.1-0.1 0.2-0.2 0.3-0.1l20.3 9 9-20.9c0.1-0.1 0.2-0.2 0.3-0.1s0.2 0.2 0.1 0.3l-9 21.1c0 0.1-0.1 0.1-0.1 0.1h-0.2l-20.4-9-10.1 20.4c0 0.1-0.1 0.1-0.2 0.1z"/>
		
		<path d="m391.6 62.7c0.7 1.9-0.3 3.9-2.2 4.6s-3.9-0.3-4.6-2.2 0.3-3.9 2.2-4.6c1.8-0.7 3.9 0.3 4.6 2.2z" fill="#ACD4F7"/>
		<path d="m403.1 42.2c0.8 2.2-0.4 4.7-2.6 5.5s-4.7-0.4-5.5-2.6 0.4-4.7 2.6-5.5c2.3-0.8 4.7 0.4 5.5 2.6z" fill="#ACD4F7"/>
		<path d="m422.8 49.4c1.7 1.7 1.7 4.4 0 6-1.7 1.7-4.4 1.7-6 0-1.7-1.7-1.7-4.4 0-6 1.6-1.7 4.3-1.7 6 0z" fill="#ACD4F7"/>
		<path d="m432.6 29.9c0.8 2.1-0.4 4.5-2.5 5.2-2.1 0.8-4.5-0.4-5.2-2.5-0.8-2.1 0.4-4.5 2.5-5.2s4.5 0.4 5.2 2.5z" fill="#ACD4F7"/>
		
			<path d="m389 68c-0.5 0-1.1-0.1-1.6-0.3-1-0.4-1.8-1.2-2.2-2.2-0.8-2.1 0.2-4.5 2.3-5.3s4.5 0.2 5.3 2.3-0.2 4.5-2.3 5.3c-0.5 0.1-1 0.2-1.5 0.2zm0-7.1c-0.4 0-0.8 0.1-1.1 0.2-1.6 0.6-2.4 2.4-1.7 4 0.3 0.8 0.9 1.4 1.7 1.7s1.6 0.3 2.4 0c1.6-0.6 2.4-2.4 1.7-4-0.6-1.2-1.8-1.9-3-1.9z"/>
		
		
			<path d="m399.2 48.1c-1.9 0-3.7-1.1-4.4-3-1-2.4 0.2-5.2 2.7-6.2 1.2-0.5 2.5-0.5 3.7 0s2.1 1.4 2.6 2.6c1 2.4-0.2 5.2-2.7 6.2-0.7 0.3-1.3 0.4-1.9 0.4zm0-8.6c-0.5 0-0.9 0.1-1.4 0.3-0.9 0.4-1.7 1.1-2.1 2s-0.4 2 0 2.9c0.8 1.9 3 2.9 4.9 2.1s2.9-3 2.1-4.9c-0.6-1.5-2-2.4-3.5-2.4z"/>
		
		
			<path d="m419.7 57.2c-1.9 0-3.7-1.1-4.4-3-0.5-1.2-0.5-2.5 0-3.7s1.4-2.1 2.6-2.6c2.4-1 5.2 0.2 6.2 2.7 1 2.4-0.2 5.2-2.7 6.2-0.5 0.3-1.1 0.4-1.7 0.4zm0-8.6c-0.5 0-0.9 0.1-1.4 0.3-1.9 0.8-2.9 3-2.1 4.9s3 2.9 4.9 2.1 2.9-3 2.1-4.9c-0.6-1.5-2-2.4-3.5-2.4z"/>
		
		
			<path d="m428.8 35.9c-0.6 0-1.2-0.1-1.8-0.4-1.1-0.5-2-1.4-2.5-2.5s-0.4-2.4 0-3.5c0.5-1.1 1.4-2 2.5-2.5 2.4-0.9 5 0.2 6 2.6 0.5 1.1 0.4 2.4 0 3.5-0.5 1.1-1.4 2-2.5 2.5-0.6 0.2-1.1 0.3-1.7 0.3zm0-8.2c-0.4 0-0.9 0.1-1.3 0.3-1.8 0.7-2.7 2.8-2 4.7 0.7 1.8 2.8 2.7 4.7 2 0.9-0.4 1.6-1 2-1.9s0.4-1.9 0-2.8c-0.6-1.5-2-2.3-3.4-2.3z"/>
		
		<path d="m138 830.5s-7.8-2.6-6.5-10.4 10.4-6.5 10.4-6.5-2.6-18.3 14.3-18.3 17 15.6 17 15.6 14.3-2.6 14.3 9.1-11.7 10.4-11.7 10.4h-37.8z" fill="#6AB3D9"/>
		<path d="m132.3 830.4s-7.8-2.6-6.5-10.4 10.4-6.5 10.4-6.5-2.6-18.3 14.3-18.3 17 15.6 17 15.6 14.3-2.6 14.3 9.1-11.7 10.4-11.7 10.4h-37.8z" fill="#ACD4F7"/>
		
			
				<path d="m171.2 831h-1.1-37.8-0.1c-0.1 0-8.2-2.8-6.9-11 1.2-7 8.2-7.1 10.4-7-0.2-2.1-0.5-9 3.6-13.7 2.6-3 6.4-4.5 11.3-4.5 15.4 0 17.2 12.7 17.4 15.6 1.8-0.2 7.6-0.7 11.3 2.4 2 1.7 3 4.2 3 7.3 0 3.6-1.1 6.4-3.2 8.3-2.5 2.3-6.1 2.6-7.9 2.6zm-38.8-1.1h37.7c0.1 0 5.1 0.5 8.4-2.4 1.9-1.7 2.8-4.2 2.8-7.5 0-2.9-0.9-5.1-2.7-6.6-4-3.3-11-2.1-11.1-2.1l-0.6 0.1v-0.6c0-0.6-0.2-15.1-16.5-15.1-4.6 0-8.1 1.4-10.5 4.1-4.5 5.2-3.4 13.5-3.3 13.6l0.1 0.7-0.7-0.1c-0.4-0.1-8.7-1.1-9.9 6.1-0.9 6.9 5.6 9.6 6.3 9.8z"/>
			
		
		<path d="m145.4 795s-8.6 10-5.7 21.3c0 0-8.5-1.5-9.7 4.7-1.2 6.3 1.5 9.7 1.5 9.7s-8.2-4.1-6.6-11.8c0.4-1.8 1.5-3.4 3.1-4.2 3.3-1.7 7.9-1.5 7.9-1.5s-3.4-12.4 9.5-18.2z" fill="#A0A0A0" opacity=".2"/>
		
			<path d="m179 57.4s-7.8-2.6-6.5-10.4 10.4-6.5 10.4-6.5-2.6-18.3 14.3-18.3c17 0 17 15.6 17 15.6s14.3-2.6 14.3 9.1-11.7 10.4-11.7 10.4h-37.8z" fill="#6AB3D9"/>
			<path d="m173.4 57.4s-7.8-2.6-6.5-10.4 10.4-6.5 10.4-6.5-2.6-18.3 14.3-18.3c17 0 17 15.6 17 15.6s14.4-2.6 14.4 9.2c0 11.7-11.7 10.4-11.7 10.4h-37.9z" fill="#ACD4F7"/>
			
				
					<path d="m212.3 57.9h-1.1-37.8-0.1c-0.1 0-8.2-2.8-6.9-11 1.2-7 8.2-7.1 10.4-7-0.2-2.1-0.5-9 3.6-13.7 2.6-3 6.4-4.5 11.3-4.5 15.4 0 17.2 12.7 17.4 15.6 1.8-0.2 7.6-0.7 11.3 2.4 2 1.7 3 4.2 3 7.3 0 3.6-1.1 6.4-3.2 8.3-2.6 2.3-6.1 2.6-7.9 2.6zm-38.8-1h37.7c0.1 0 5.1 0.5 8.4-2.4 1.9-1.7 2.8-4.2 2.8-7.5 0-2.9-0.9-5.1-2.7-6.6-4-3.3-11-2.1-11.1-2.1l-0.6 0.1v-0.6c0-0.6-0.2-15.1-16.5-15.1-4.6 0-8.1 1.4-10.5 4.1-4.5 5.2-3.4 13.5-3.3 13.6l0.1 0.7-0.7-0.1c-0.4-0.1-8.7-1.1-9.9 6.1-1 6.9 5.5 9.5 6.3 9.8z"/>
				
			
		
		<path d="m186.5 22s-8.6 10-5.7 21.3c0 0-8.5-1.5-9.7 4.7-1.2 6.3 1.5 9.7 1.5 9.7s-8.2-4.1-6.6-11.8c0.4-1.8 1.5-3.4 3.1-4.2 3.3-1.7 7.9-1.5 7.9-1.5s-3.4-12.5 9.5-18.2z" fill="#A0A0A0" opacity=".2"/>
		<path d="m33.6 412.6s-7.8-2.6-6.5-10.4 10.4-6.5 10.4-6.5-2.6-18.3 14.3-18.3c17 0 17 15.6 17 15.6s14.3-2.6 14.3 9.1-11.7 10.4-11.7 10.4h-37.8z" fill="#A0A0A0" opacity=".2"/>
		<path d="m27.2 411.8s-7.8-2.6-6.5-10.4 10.4-6.5 10.4-6.5-2.6-18.3 14.3-18.3c17 0 17 15.6 17 15.6s14.3-2.6 14.3 9.1-11.7 10.4-11.7 10.4h-37.8z" fill="#F2F0E8"/>
		
			
				<path d="m66 412.3h-1.1-37.8-0.1c-0.1 0-8.2-2.8-6.9-11 1.2-7 8.2-7.1 10.4-7-0.2-2.1-0.5-9 3.6-13.7 2.6-3 6.4-4.5 11.3-4.5 15.4 0 17.2 12.7 17.4 15.6 1.8-0.2 7.6-0.7 11.3 2.4 2 1.7 3 4.2 3 7.3 0 3.6-1.1 6.4-3.2 8.3-2.5 2.3-6.1 2.6-7.9 2.6zm-38.7-1h37.7c0.1 0 5.1 0.5 8.4-2.4 1.9-1.7 2.8-4.2 2.8-7.5 0-2.9-0.9-5.1-2.7-6.6-4-3.3-11-2.1-11.1-2.1l-0.6 0.1v-0.6c0-0.6-0.2-15.1-16.5-15.1-4.6 0-8.1 1.4-10.5 4.1-4.5 5.2-3.4 13.5-3.3 13.6l0.1 0.7-0.7-0.1c-0.4-0.1-8.7-1.1-9.9 6.1-1 6.9 5.5 9.5 6.3 9.8z"/>
			
		
		<path d="m41.1 376.3s-8.6 10-5.7 21.3c0 0-8.5-1.5-9.7 4.7-1.2 6.3 1.5 9.7 1.5 9.7s-8.2-4.1-6.6-11.8c0.4-1.8 1.5-3.4 3.1-4.2 3.3-1.7 7.9-1.5 7.9-1.5s-3.4-12.4 9.5-18.2z" fill="#A0A0A0" opacity=".2"/>
		<path d="m199.1 584.9s-8.6 10-5.7 21.3c0 0-8.5-1.5-9.7 4.7-1.2 6.3 1.5 9.7 1.5 9.7s-8.2-4.1-6.6-11.8c0.4-1.8 1.5-3.4 3.1-4.2 3.3-1.7 7.9-1.5 7.9-1.5s-3.4-12.4 9.5-18.2z" fill="#A0A0A0" opacity=".2"/>
		<path d="m191 620.1s-7.8-2.6-6.5-10.4 10.4-6.5 10.4-6.5-2.6-18.3 14.3-18.3 17 15.6 17 15.6 14.3-2.6 14.3 9.1-11.7 10.4-11.7 10.4h-37.8z" fill="#A0A0A0" opacity=".2"/>
		<path d="m185.4 620.1s-7.8-2.6-6.5-10.4 10.4-6.5 10.4-6.5-2.6-18.3 14.3-18.3 17 15.6 17 15.6 14.3-2.6 14.3 9.1-11.7 10.4-11.7 10.4h-37.8z" fill="#F2F0E8"/>
		
			
				<path d="m224.3 620.7h-1.1-37.8-0.1c-0.1 0-8.2-2.8-6.9-11 1.2-7 8.2-7.1 10.4-7-0.2-2.1-0.5-9 3.6-13.7 2.6-3 6.4-4.5 11.3-4.5 15.4 0 17.2 12.7 17.4 15.6 1.8-0.2 7.6-0.7 11.3 2.4 2 1.7 3 4.2 3 7.3 0 3.6-1.1 6.4-3.2 8.3-2.6 2.2-6.2 2.6-7.9 2.6zm-38.8-1.1h37.7c0.1 0 5.1 0.5 8.4-2.4 1.9-1.7 2.8-4.2 2.8-7.5 0-2.9-0.9-5.1-2.7-6.6-4-3.3-11-2.1-11.1-2.1l-0.6 0.1v-0.6c0-0.6-0.2-15.1-16.5-15.1-4.6 0-8.1 1.4-10.5 4.1-4.5 5.2-3.4 13.5-3.3 13.6l0.1 0.7-0.7-0.1c-0.4-0.1-8.7-1.1-9.9 6.1-1 6.9 5.5 9.6 6.3 9.8z"/>
			
		
		<polyline points="204 621.5 204 626.1 200.1 626.1 203.2 631.5 206.3 636.9 209.4 631.5 212.5 626.1 208.6 626.1 208.6 613.4 204 613.4" fill="#7ACBF5"/>
		
			<path d="m204 613.1h4.6c0.1 0 0.2 0.1 0.2 0.2v12.4h3.7c0.1 0 0.2 0 0.2 0.1v0.2l-6.2 10.8c-0.1 0.2-0.3 0.2-0.4 0l-6.2-10.8v-0.2c0-0.1 0.1-0.1 0.2-0.1h3.7v-4.3c0-0.1 0.1-0.2 0.2-0.2s0.2 0.1 0.2 0.2v4.6c0 0.1-0.1 0.2-0.2 0.2h-3.5l5.8 10.1 5.8-10.1h-3.5c-0.1 0-0.2-0.1-0.2-0.2v-12.4h-4.4c-0.1 0-0.2-0.1-0.2-0.2 0-0.2 0.1-0.3 0.2-0.3z"/>
		
		<path d="m346.9 316.8s-7.8-2.6-6.5-10.4 10.4-6.5 10.4-6.5-2.6-18.3 14.3-18.3 17 15.6 17 15.6 14.3-2.6 14.3 9.1-11.7 10.4-11.7 10.4h-37.8z" fill="#A0A0A0" opacity=".2"/>
		<path d="m341.3 316.7s-7.8-2.6-6.5-10.4 10.4-6.5 10.4-6.5-2.6-18.3 14.3-18.3c17 0 17 15.6 17 15.6s14.3-2.6 14.3 9.1-11.7 10.4-11.7 10.4h-37.8z" fill="#F2F0E8"/>
		
			
				<path d="m380.1 317.3h-1.1-37.8-0.1c-0.1 0-8.2-2.8-6.9-11 1.2-7 8.2-7.1 10.4-7-0.2-2.1-0.5-9 3.6-13.7 2.6-3 6.4-4.5 11.3-4.5 15.4 0 17.2 12.7 17.4 15.6 1.8-0.2 7.6-0.7 11.3 2.4 2 1.7 3 4.2 3 7.3 0 3.6-1.1 6.4-3.2 8.3-2.5 2.3-6.1 2.6-7.9 2.6zm-38.8-1.1h37.7c0.1 0 5.1 0.5 8.4-2.4 1.9-1.7 2.8-4.2 2.8-7.5 0-2.9-0.9-5.1-2.7-6.6-4-3.3-11-2.1-11.1-2.1l-0.6 0.1v-0.6c0-0.6-0.2-15.1-16.5-15.1-4.6 0-8.1 1.4-10.5 4.1-4.5 5.2-3.4 13.5-3.3 13.6l0.1 0.7-0.7-0.1c-0.4-0.1-8.7-1.1-9.9 6.1-0.9 6.9 5.6 9.6 6.3 9.8z"/>
			
		
		<polyline points="19.6 652.2 19.6 656.8 15.7 656.8 18.8 662.2 21.9 667.6 25 662.2 28.1 656.8 24.2 656.8 24.2 644.1 19.6 644.1" fill="#7ACBF5"/>
		
			<path d="m19.6 643.8h4.6c0.1 0 0.2 0.1 0.2 0.2v12.4h3.7c0.1 0 0.2 0 0.2 0.1v0.2l-6.2 10.8c-0.1 0.2-0.3 0.2-0.4 0l-6.2-10.8v-0.2c0-0.1 0.1-0.1 0.2-0.1h3.7v-4.3c0-0.1 0.1-0.2 0.2-0.2s0.2 0.1 0.2 0.2v4.6c0 0.1-0.1 0.2-0.2 0.2h-3.5l5.8 10.1 5.8-10.1h-3.5c-0.1 0-0.2-0.1-0.2-0.2v-12.4h-4.3c-0.1 0-0.2-0.1-0.2-0.2-0.1-0.2 0-0.3 0.1-0.3z"/>
		
		<path d="m64.5 309.3s-0.5-7.5-7.5-8.2c-4.8-0.5-9.3-0.4-11.4-0.4h-2.2c-2.7-0.1-10.6 0.4-11 8.8-0.4 9.6 2.4 13.6 11.7 13.7 0.9 0 1.8 0.5 2.3 1.3 0.9 1.4 2.6 3.4 5.1 3.4 0 0-3.5-4.7 0-4.7s11.3-0.8 12.5-4.3c1.1-3.7 0.5-9.6 0.5-9.6z" fill="#6AB3D9"/>
		
			<path d="m50.9 327.8c-2.8 0-4.7-2.3-5.6-3.6-0.4-0.6-1.1-1-1.9-1-4.5 0-7.5-1-9.5-3-2.1-2.2-2.9-5.7-2.7-11.2 0.4-8.9 8.9-9.3 11.5-9.2h2.2c2.3-0.1 6.8-0.2 11.5 0.4 7.2 0.8 8 8.3 8 8.7 0 0.3 0.6 6.1-0.6 9.8-1.6 4.6-12.5 4.6-13 4.6s-0.9 0.1-1 0.4c-0.3 0.7 0.6 2.5 1.4 3.5 0.1 0.2 0.1 0.4 0 0.5 0.1 0-0.1 0.1-0.3 0.1zm-8.6-27.1c-3.2 0-9.7 0.9-10 8.3-0.2 5.2 0.5 8.4 2.4 10.4 1.7 1.8 4.5 2.7 8.8 2.7 1.1 0 2.1 0.6 2.7 1.5 0.8 1.2 2 2.6 3.7 3-0.6-1-1.4-2.6-0.9-3.6 0.3-0.6 0.9-0.9 1.9-0.9 4.3 0 11-1.1 12-4 1.2-3.5 0.6-9.3 0.6-9.3 0-0.3-0.6-7.1-7.1-7.8-4.7-0.5-9.1-0.4-11.4-0.4h-2.2c-0.2 0.1-0.3 0.1-0.5 0.1z"/>
		
		<path d="m54.5 310.4h-0.4c-0.1-0.8-0.4-1.5-0.8-2.1l0.4-0.3c0.3-0.2 0.3-0.6 0.1-0.9l-0.4-0.5c-0.2-0.3-0.6-0.3-0.9-0.1l-0.5 0.4-0.1 0.1c-0.5-0.4-1.1-0.6-1.8-0.8v-0.5c0-0.4-0.3-0.7-0.7-0.7h-0.6c-0.4 0-0.7 0.3-0.7 0.7v0.4c-0.8 0.1-1.5 0.4-2.1 0.8l-0.1-0.2c-0.2-0.3-0.6-0.3-0.9-0.1l-0.5 0.4c-0.3 0.2-0.3 0.6-0.1 0.9l0.2 0.3c-0.5 0.7-0.8 1.4-1 2.3h-0.4c-0.4 0-0.7 0.3-0.7 0.7v0.6c0 0.4 0.3 0.7 0.7 0.7h0.4c0.2 0.8 0.5 1.6 1 2.2l-0.3 0.3c-0.2 0.3-0.2 0.7 0 0.9l0.5 0.4c0.3 0.2 0.7 0.2 0.9 0l0.3-0.4c0.6 0.4 1.3 0.6 2 0.7v0.5c0 0.4 0.3 0.7 0.7 0.7h0.6c0.4 0 0.7-0.3 0.7-0.7v-0.6c0.7-0.2 1.4-0.5 2-1l0.2 0.3c0.2 0.3 0.6 0.3 0.9 0.1l0.5-0.4c0.3-0.2 0.3-0.6 0.1-0.9l-0.4-0.5s0-0.1-0.1-0.1c0.3-0.5 0.5-1.1 0.7-1.6h0.4c0.4 0 0.7-0.3 0.7-0.7v-0.7c0.1-0.3-0.2-0.6-0.5-0.6zm-5.7 2.9c-1.1 0-2.1-0.9-2.1-2.1 0-1.1 0.9-2.1 2.1-2.1 1.1 0 2.1 0.9 2.1 2.1s-0.9 2.1-2.1 2.1z" fill="#F2F0E8"/>
		
			
				<path d="m120.6 790.2h-1.2c-1 0-1.7-0.8-1.7-1.7v-0.4c-1.1-0.2-2.2-0.6-3.2-1.1l-0.4 0.4c-0.6 0.7-1.7 0.8-2.5 0.1l-0.9-0.8c-0.3-0.3-0.5-0.7-0.6-1.2 0-0.5 0.1-0.9 0.5-1.2l0.3-0.3c-0.8-1.1-1.4-2.3-1.7-3.6h-0.4c-1 0-1.7-0.8-1.7-1.7v-1.2c0-1 0.8-1.7 1.7-1.7h0.3c0.3-1.3 0.8-2.6 1.6-3.8l-0.2-0.3c-0.3-0.4-0.4-0.8-0.3-1.3s0.3-0.9 0.7-1.2l0.9-0.7c0.8-0.6 1.8-0.4 2.4 0.3 1.1-0.6 2.2-1 3.4-1.2v-0.3c0-1 0.8-1.7 1.7-1.7h1.2c1 0 1.7 0.8 1.7 1.7v0.5c1 0.3 1.9 0.7 2.8 1.2l0.8-0.6c0.8-0.6 1.8-0.4 2.4 0.3l0.7 0.9c0.3 0.4 0.4 0.8 0.3 1.3s-0.3 0.9-0.7 1.2l-0.4 0.3c0.6 1 1.1 2.1 1.3 3.3h0.3c1 0 1.7 0.8 1.7 1.7v1.2c0 1-0.8 1.7-1.7 1.7h-0.4c-0.2 0.9-0.6 1.7-1 2.5l0.6 0.8c0.3 0.4 0.4 0.8 0.3 1.3s-0.3 0.9-0.7 1.2l-0.9 0.7c-0.8 0.6-1.8 0.4-2.4-0.3l-0.1-0.2c-0.9 0.7-2 1.2-3.1 1.5v0.7c0.3 0.9-0.5 1.7-1.4 1.7zm-6.3-4.5 0.4 0.2c1.1 0.7 2.3 1.1 3.6 1.2l0.4 0.1v1.3c0 0.4 0.3 0.7 0.7 0.7h1.2c0.4 0 0.7-0.3 0.7-0.7v-1.5l0.4-0.1c1.3-0.3 2.5-0.9 3.5-1.7l0.4-0.3 0.7 0.9c0.2 0.3 0.7 0.4 1 0.1l0.9-0.7c0.2-0.1 0.3-0.3 0.3-0.5s0-0.4-0.1-0.5l-0.7-0.9-0.4-0.4 0.2-0.3c0.6-0.9 0.9-1.9 1.2-2.9l0.1-0.4h1.2c0.4 0 0.7-0.3 0.7-0.7v-1.2c0-0.4-0.3-0.7-0.7-0.7h-1.2l-0.1-0.4c-0.2-1.4-0.7-2.6-1.5-3.7l-0.3-0.4 1.1-0.8c0.2-0.1 0.3-0.3 0.3-0.5s0-0.4-0.1-0.5l-0.7-0.9c-0.2-0.3-0.7-0.4-1-0.1l-1 0.8-0.3 0.3-0.3-0.2c-0.9-0.7-2-1.1-3.1-1.4l-0.4-0.1v-1.3c0-0.4-0.3-0.7-0.7-0.7h-1.2c-0.4 0-0.7 0.3-0.7 0.7v1.1l-0.4 0.1c-1.4 0.2-2.6 0.6-3.8 1.4l-0.6-0.1-0.5-0.7c-0.2-0.3-0.7-0.4-1-0.1l-0.9 0.7c-0.2 0.1-0.3 0.3-0.3 0.5s0 0.4 0.1 0.5l0.7 0.9-0.2 0.3c-0.9 1.2-1.5 2.6-1.7 4.1l-0.1 0.4h-1.2c-0.4 0-0.7 0.3-0.7 0.7v1.2c0 0.4 0.3 0.7 0.7 0.7h1.2l0.1 0.4c0.3 1.4 0.9 2.8 1.8 3.9l0.3 0.3-0.9 0.9c-0.1 0.1-0.2 0.3-0.2 0.5s0.1 0.4 0.2 0.5l0.9 0.8c0.3 0.3 0.8 0.3 1 0l1-0.8z"/>
			
		
		
			
				<path d="m119.5 781.9c-2.3 0-4.1-1.8-4.1-4.1s1.8-4.1 4.1-4.1 4.1 1.8 4.1 4.1-1.9 4.1-4.1 4.1zm0-7.6c-2 0-3.6 1.6-3.6 3.6s1.6 3.6 3.6 3.6 3.6-1.6 3.6-3.6c-0.1-2-1.7-3.6-3.6-3.6z"/>
			
		
		
			<path d="m116.2 753.4h-0.7c-0.2-1.5-0.8-2.8-1.6-4l0.7-0.6c0.6-0.4 0.7-1.2 0.2-1.8l-0.7-1c-0.4-0.6-1.2-0.7-1.8-0.2l-1 0.7c-0.1 0-0.1 0.1-0.1 0.1-1-0.7-2.1-1.2-3.4-1.5v-0.9c0-0.7-0.6-1.3-1.3-1.3h-1.2c-0.7 0-1.3 0.6-1.3 1.3v0.7c-1.5 0.2-2.9 0.7-4.1 1.5l-0.3-0.3c-0.4-0.6-1.2-0.7-1.8-0.2l-1 0.7c-0.6 0.4-0.7 1.2-0.2 1.8l0.5 0.6c-0.9 1.3-1.6 2.8-1.9 4.4h-0.8c-0.7 0-1.3 0.6-1.3 1.3v1.2c0 0.7 0.6 1.3 1.3 1.3h0.8c0.3 1.6 1 3 2 4.2l-0.6 0.6c-0.5 0.5-0.4 1.3 0.1 1.8l0.9 0.8c0.5 0.5 1.3 0.4 1.8-0.1l0.6-0.7c1.2 0.7 2.5 1.2 3.9 1.3v0.9c0 0.7 0.6 1.3 1.3 1.3h1.2c0.7 0 1.3-0.6 1.3-1.3v-1.1c1.4-0.3 2.7-1 3.8-1.8l0.4 0.6c0.4 0.6 1.2 0.7 1.8 0.2l1-0.7c0.6-0.4 0.7-1.2 0.2-1.8l-0.7-1c0-0.1-0.1-0.1-0.1-0.1 0.6-1 1-2 1.2-3.1h0.8c0.7 0 1.3-0.6 1.3-1.3v-1.2c0.1-0.7-0.5-1.3-1.2-1.3zm-10.7 5.7c-2.2 0-3.9-1.8-3.9-3.9 0-2.2 1.8-3.9 3.9-3.9 2.2 0 3.9 1.8 3.9 3.9s-1.8 3.9-3.9 3.9z" fill="#F2F0E8"/>
			
				
					<path d="m106.4 768.2h-1.2c-1 0-1.7-0.8-1.7-1.7v-0.4c-1.1-0.2-2.2-0.6-3.2-1.1l-0.4 0.4c-0.6 0.7-1.7 0.8-2.5 0.1l-0.9-0.8c-0.3-0.3-0.5-0.7-0.6-1.2 0-0.5 0.1-0.9 0.5-1.2l0.3-0.3c-0.8-1.1-1.4-2.3-1.7-3.6h-0.4c-1 0-1.7-0.8-1.7-1.7v-1.2c0-1 0.8-1.7 1.7-1.7h0.3c0.3-1.3 0.8-2.6 1.6-3.8l-0.2-0.3c-0.3-0.4-0.4-0.8-0.3-1.3s0.3-0.9 0.7-1.2l0.9-0.7c0.8-0.6 1.8-0.4 2.4 0.3 1.1-0.6 2.2-1 3.4-1.2v-0.3c0-1 0.8-1.7 1.7-1.7h1.2c1 0 1.7 0.8 1.7 1.7v0.5c1 0.3 1.9 0.7 2.8 1.2l0.8-0.6c0.8-0.6 1.8-0.4 2.4 0.3l0.7 0.9c0.3 0.4 0.4 0.8 0.3 1.3s-0.3 0.9-0.7 1.2l-0.4 0.3c0.6 1 1.1 2.1 1.3 3.3h0.3c1 0 1.7 0.8 1.7 1.7v1.2c0 1-0.8 1.7-1.7 1.7h-0.4c-0.2 0.9-0.6 1.7-1 2.5l0.6 0.8c0.3 0.4 0.4 0.8 0.3 1.3s-0.3 0.9-0.7 1.2l-0.9 0.7c-0.4 0.3-0.8 0.4-1.3 0.3s-0.9-0.3-1.2-0.7l-0.1-0.2c-0.9 0.7-2 1.2-3.1 1.5v0.7c0.4 1-0.3 1.8-1.3 1.8zm-6.3-4.5 0.4 0.2c1.1 0.7 2.3 1.1 3.6 1.2l0.4 0.1v1.3c0 0.4 0.3 0.7 0.7 0.7h1.2c0.4 0 0.7-0.3 0.7-0.7v-1.5l0.4-0.1c1.3-0.3 2.5-0.9 3.5-1.7l0.4-0.3 0.7 0.9c0.1 0.2 0.3 0.3 0.5 0.3s0.4 0 0.5-0.1l0.9-0.7c0.2-0.1 0.3-0.3 0.3-0.5s0-0.4-0.1-0.5l-0.7-0.9-0.4-0.4 0.2-0.3c0.6-0.9 0.9-1.9 1.2-2.9l0.1-0.4h1.2c0.4 0 0.7-0.3 0.7-0.7v-1.2c0-0.4-0.3-0.7-0.7-0.7h-1.2l-0.1-0.4c-0.2-1.4-0.7-2.6-1.5-3.7l-0.3-0.4 1.1-0.8c0.2-0.1 0.3-0.3 0.3-0.5s0-0.4-0.1-0.5l-0.7-0.9c-0.2-0.3-0.7-0.4-1-0.1l-0.9 0.7s-0.1 0-0.1 0.1l-0.3 0.3-0.4-0.2c-0.9-0.7-2-1.1-3.1-1.4l-0.4-0.1v-1.3c0-0.4-0.3-0.7-0.7-0.7h-1.2c-0.4 0-0.7 0.3-0.7 0.7v1.1l-0.4 0.1c-1.4 0.2-2.6 0.6-3.8 1.4l-0.4 0.2-0.5-0.7c-0.2-0.3-0.7-0.4-1-0.1l-0.9 0.7c-0.2 0.1-0.3 0.3-0.3 0.5s0 0.4 0.1 0.5l0.7 0.9-0.2 0.3c-0.9 1.2-1.5 2.6-1.7 4.1l-0.1 0.4h-1.2c-0.4 0-0.7 0.3-0.7 0.7v1.2c0 0.4 0.3 0.7 0.7 0.7h1.2l0.1 0.4c0.3 1.4 0.9 2.8 1.8 3.9l0.3 0.3-0.9 0.9c-0.1 0.1-0.2 0.3-0.2 0.5s0.1 0.4 0.2 0.5l0.9 0.8c0.3 0.3 0.8 0.3 1 0l0.9-1.2z"/>
				
			
			
				
					<path d="m105.3 759.9c-2.3 0-4.1-1.8-4.1-4.1s1.8-4.1 4.1-4.1 4.1 1.8 4.1 4.1-1.9 4.1-4.1 4.1zm0-7.6c-2 0-3.6 1.6-3.6 3.6s1.6 3.6 3.6 3.6 3.6-1.6 3.6-3.6-1.6-3.6-3.6-3.6z"/>
				
			
		
		
			<path d="m354.6 345.3h-0.7c-0.2-1.5-0.8-2.8-1.6-4l0.7-0.6c0.6-0.4 0.7-1.2 0.2-1.8l-0.7-1c-0.4-0.6-1.2-0.7-1.8-0.2l-1 0.7c-0.1 0-0.1 0.1-0.1 0.1-1-0.7-2.1-1.2-3.4-1.5v-0.9c0-0.7-0.6-1.3-1.3-1.3h-1.2c-0.7 0-1.3 0.6-1.3 1.3v0.7c-1.5 0.2-2.9 0.7-4.1 1.5l-0.3-0.3c-0.4-0.6-1.2-0.7-1.8-0.2l-1 0.7c-0.6 0.4-0.7 1.2-0.2 1.8l0.5 0.6c-0.9 1.3-1.6 2.8-1.9 4.4h-0.8c-0.7 0-1.3 0.6-1.3 1.3v1.2c0 0.7 0.6 1.3 1.3 1.3h0.8c0.3 1.6 1 3 2 4.2l-0.6 0.6c-0.5 0.5-0.4 1.3 0.1 1.8l0.9 0.8c0.5 0.5 1.3 0.4 1.8-0.1l0.6-0.7c1.2 0.7 2.5 1.2 3.9 1.3v0.9c0 0.7 0.6 1.3 1.3 1.3h1.2c0.7 0 1.3-0.6 1.3-1.3v-1.1c1.4-0.3 2.7-1 3.8-1.8l0.4 0.6c0.4 0.6 1.2 0.7 1.8 0.2l1-0.7c0.6-0.4 0.7-1.2 0.2-1.8l-0.7-1c0-0.1-0.1-0.1-0.1-0.1 0.6-1 1-2 1.2-3.1h0.8c0.7 0 1.3-0.6 1.3-1.3v-1.2c0.1-0.7-0.5-1.3-1.2-1.3zm-10.7 5.7c-2.2 0-3.9-1.8-3.9-3.9 0-2.2 1.8-3.9 3.9-3.9 2.2 0 3.9 1.8 3.9 3.9s-1.8 3.9-3.9 3.9z" fill="#F2F0E8"/>
			
				
					<path d="m344.8 360.1h-1.2c-1 0-1.7-0.8-1.7-1.7v-0.4c-1.1-0.2-2.2-0.6-3.2-1.1l-0.4 0.4c-0.6 0.7-1.7 0.8-2.5 0.1l-0.9-0.8c-0.3-0.3-0.5-0.7-0.6-1.2 0-0.5 0.1-0.9 0.5-1.2l0.3-0.3c-0.8-1.1-1.4-2.3-1.7-3.6h-0.4c-1 0-1.7-0.8-1.7-1.7v-1.2c0-1 0.8-1.7 1.7-1.7h0.3c0.3-1.3 0.8-2.6 1.6-3.8l-0.2-0.3c-0.3-0.4-0.4-0.8-0.3-1.3s0.3-0.9 0.7-1.2l0.9-0.7c0.8-0.6 1.8-0.4 2.4 0.3 1.1-0.6 2.2-1 3.4-1.2v-0.3c0-1 0.8-1.7 1.7-1.7h1.2c1 0 1.7 0.8 1.7 1.7v0.5c1 0.3 1.9 0.7 2.8 1.2l0.8-0.6c0.8-0.6 1.8-0.4 2.4 0.3l0.7 0.9c0.3 0.4 0.4 0.8 0.3 1.3s-0.3 0.9-0.7 1.2l-0.4 0.3c0.6 1 1.1 2.1 1.3 3.3h0.3c1 0 1.7 0.8 1.7 1.7v1.2c0 1-0.8 1.7-1.7 1.7h-0.4c-0.2 0.9-0.6 1.7-1 2.5l0.6 0.8c0.3 0.4 0.4 0.8 0.3 1.3s-0.3 0.9-0.7 1.2l-0.9 0.7c-0.4 0.3-0.8 0.4-1.3 0.3s-0.9-0.3-1.2-0.7l-0.1-0.2c-0.9 0.7-2 1.2-3.1 1.5v0.7c0.5 1.1-0.3 1.8-1.3 1.8zm-6.3-4.5 0.4 0.2c1.1 0.7 2.3 1.1 3.6 1.2l0.4 0.1v1.3c0 0.4 0.3 0.7 0.7 0.7h1.2c0.4 0 0.7-0.3 0.7-0.7v-1.5l0.4-0.1c1.3-0.3 2.5-0.9 3.5-1.7l0.4-0.3 0.7 0.9c0.1 0.2 0.3 0.3 0.5 0.3s0.4 0 0.5-0.1l0.9-0.7c0.2-0.1 0.3-0.3 0.3-0.5s0-0.4-0.1-0.5l-0.7-0.9-0.4-0.4 0.2-0.3c0.6-0.9 0.9-1.9 1.2-2.9l0.1-0.4h1.2c0.4 0 0.7-0.3 0.7-0.7v-1.2c0-0.4-0.3-0.7-0.7-0.7h-1.2l-0.1-0.4c-0.2-1.4-0.7-2.6-1.5-3.7l-0.3-0.4 1.1-0.8c0.2-0.1 0.3-0.3 0.3-0.5s0-0.4-0.1-0.5l-0.7-0.9c-0.2-0.3-0.7-0.4-1-0.1l-0.9 0.7s-0.1 0-0.1 0.1l-0.3 0.3-0.4-0.2c-0.9-0.7-2-1.1-3.1-1.4l-0.4-0.1v-1.3c0-0.4-0.3-0.7-0.7-0.7h-1.2c-0.4 0-0.7 0.3-0.7 0.7v1.1l-0.4 0.1c-1.4 0.2-2.6 0.6-3.8 1.4l-0.4 0.2-0.5-0.7c-0.2-0.3-0.7-0.4-1-0.1l-0.9 0.7c-0.2 0.1-0.3 0.3-0.3 0.5s0 0.4 0.1 0.5l0.7 0.9-0.2 0.3c-0.9 1.2-1.5 2.6-1.7 4.1l-0.1 0.4h-1.2c-0.4 0-0.7 0.3-0.7 0.7v1.2c0 0.4 0.3 0.7 0.7 0.7h1.2l0.1 0.4c0.3 1.4 0.9 2.8 1.8 3.9l0.3 0.3-0.9 0.9c-0.1 0.1-0.2 0.3-0.2 0.5s0.1 0.4 0.2 0.5l0.9 0.8c0.3 0.3 0.8 0.3 1 0l0.9-1.2z"/>
				
			
			
				
					<path d="m343.7 351.9c-2.3 0-4.1-1.8-4.1-4.1s1.8-4.1 4.1-4.1 4.1 1.8 4.1 4.1c0 2.2-1.9 4.1-4.1 4.1zm0-7.7c-2 0-3.6 1.6-3.6 3.6s1.6 3.6 3.6 3.6 3.6-1.6 3.6-3.6-1.6-3.6-3.6-3.6z"/>
				
			
		
		<path d="m162.7 194.5h-0.7c-0.2-1.5-0.8-2.8-1.6-4l0.7-0.6c0.6-0.4 0.7-1.2 0.2-1.8l-0.7-1c-0.4-0.6-1.2-0.7-1.8-0.2l-1 0.7c-0.1 0-0.1 0.1-0.1 0.1-1-0.7-2.1-1.2-3.4-1.5v-0.9c0-0.7-0.6-1.3-1.3-1.3h-1.2c-0.7 0-1.3 0.6-1.3 1.3v0.7c-1.5 0.2-2.9 0.7-4.1 1.5l-0.3-0.3c-0.4-0.6-1.2-0.7-1.8-0.2l-1 0.7c-0.6 0.4-0.7 1.2-0.2 1.8l0.5 0.6c-0.9 1.3-1.6 2.8-1.9 4.4h-0.8c-0.7 0-1.3 0.6-1.3 1.3v1.2c0 0.7 0.6 1.3 1.3 1.3h0.8c0.3 1.6 1 3 2 4.2l-0.6 0.6c-0.5 0.5-0.4 1.3 0.1 1.8l0.9 0.8c0.5 0.5 1.3 0.4 1.8-0.1l0.6-0.7c1.2 0.7 2.5 1.2 3.9 1.3v0.9c0 0.7 0.6 1.3 1.3 1.3h1.2c0.7 0 1.3-0.6 1.3-1.3v-1.1c1.4-0.3 2.7-1 3.8-1.8l0.4 0.6c0.4 0.6 1.2 0.7 1.8 0.2l1-0.7c0.6-0.4 0.7-1.2 0.2-1.8l-0.7-1c0-0.1-0.1-0.1-0.1-0.1 0.6-1 1-2 1.2-3.1h0.8c0.7 0 1.3-0.6 1.3-1.3v-1.2c0-0.7-0.5-1.3-1.2-1.3zm-10.8 5.7c-2.2 0-3.9-1.8-3.9-3.9 0-2.2 1.8-3.9 3.9-3.9 2.2 0 3.9 1.8 3.9 3.9 0.1 2.1-1.7 3.9-3.9 3.9z" fill="#F2F0E8"/>
		
			
				<path d="m152.9 209.3h-1.2c-1 0-1.7-0.8-1.7-1.7v-0.4c-1.1-0.2-2.2-0.6-3.2-1.1l-0.4 0.4c-0.6 0.7-1.7 0.8-2.5 0.1l-0.9-0.8c-0.3-0.3-0.5-0.7-0.6-1.2 0-0.5 0.1-0.9 0.5-1.2l0.3-0.3c-0.8-1.1-1.4-2.3-1.7-3.6h-0.4c-1 0-1.7-0.8-1.7-1.7v-1.2c0-1 0.8-1.7 1.7-1.7h0.3c0.3-1.3 0.8-2.6 1.6-3.8l-0.2-0.3c-0.3-0.4-0.4-0.8-0.3-1.3s0.3-0.9 0.7-1.2l0.9-0.7c0.8-0.6 1.8-0.4 2.4 0.3 1.1-0.6 2.2-1 3.4-1.2v-0.3c0-1 0.8-1.7 1.7-1.7h1.2c1 0 1.7 0.8 1.7 1.7v0.5c1 0.3 1.9 0.7 2.8 1.2l0.8-0.6c0.8-0.6 1.8-0.4 2.4 0.3l0.7 0.9c0.3 0.4 0.4 0.8 0.3 1.3s-0.3 0.9-0.7 1.2l-0.4 0.3c0.6 1 1.1 2.1 1.3 3.3h0.3c1 0 1.7 0.8 1.7 1.7v1.2c0 1-0.8 1.7-1.7 1.7h-0.4c-0.2 0.9-0.6 1.7-1 2.5l0.6 0.8c0.3 0.4 0.4 0.8 0.3 1.3s-0.3 0.9-0.7 1.2l-0.9 0.7c-0.4 0.3-0.8 0.4-1.3 0.3s-0.9-0.3-1.2-0.7l-0.1-0.2c-0.9 0.7-2 1.2-3.1 1.5v0.7c0.4 1-0.4 1.8-1.3 1.8zm-6.3-4.5 0.4 0.2c1.1 0.7 2.3 1.1 3.6 1.2l0.4 0.1v1.3c0 0.4 0.3 0.7 0.7 0.7h1.2c0.4 0 0.7-0.3 0.7-0.7v-1.5l0.4-0.1c1.3-0.3 2.5-0.9 3.5-1.7l0.4-0.3 0.7 0.9c0.1 0.2 0.3 0.3 0.5 0.3s0.4 0 0.5-0.1l0.9-0.7c0.2-0.1 0.3-0.3 0.3-0.5s0-0.4-0.1-0.5l-0.7-0.9-0.4-0.4 0.2-0.3c0.6-0.9 0.9-1.9 1.2-2.9l0.1-0.4h1.2c0.4 0 0.7-0.3 0.7-0.7v-1.2c0-0.4-0.3-0.7-0.7-0.7h-1.2l-0.1-0.4c-0.2-1.4-0.7-2.6-1.5-3.7l-0.3-0.4 1.1-0.8c0.2-0.1 0.3-0.3 0.3-0.5s0-0.4-0.1-0.5l-0.7-0.9c-0.2-0.3-0.7-0.4-1-0.1l-0.9 0.7s-0.1 0-0.1 0.1l-0.3 0.3-0.4-0.2c-0.9-0.7-2-1.1-3.1-1.4l-0.4-0.1v-1.3c0-0.4-0.3-0.7-0.7-0.7h-1.2c-0.4 0-0.7 0.3-0.7 0.7v1.1l-0.4 0.1c-1.4 0.2-2.6 0.6-3.8 1.4l-0.4 0.2-0.5-0.7c-0.2-0.3-0.7-0.4-1-0.1l-0.9 0.7c-0.2 0.1-0.3 0.3-0.3 0.5s0 0.4 0.1 0.5l0.7 0.9-0.2 0.3c-0.9 1.2-1.5 2.6-1.7 4.1l-0.1 0.4h-1.2c-0.4 0-0.7 0.3-0.7 0.7v1.2c0 0.4 0.3 0.7 0.7 0.7h1.2l0.1 0.4c0.3 1.4 0.9 2.8 1.8 3.9l0.3 0.3-0.9 0.9c-0.1 0.1-0.2 0.3-0.2 0.5s0.1 0.4 0.2 0.5l0.9 0.8c0.3 0.3 0.8 0.3 1 0l0.9-1.2z"/>
			
		
		
			
				<path d="m151.7 201c-2.3 0-4.1-1.8-4.1-4.1s1.8-4.1 4.1-4.1 4.1 1.8 4.1 4.1-1.8 4.1-4.1 4.1zm0-7.7c-2 0-3.6 1.6-3.6 3.6s1.6 3.6 3.6 3.6 3.6-1.6 3.6-3.6c0-1.9-1.6-3.6-3.6-3.6z"/>
			
		
		
			<path d="m131.8 757.9h-0.4c-0.1-0.8-0.4-1.5-0.8-2.1l0.4-0.3c0.3-0.2 0.3-0.6 0.1-0.9l-0.4-0.5c-0.2-0.3-0.6-0.3-0.9-0.1l-0.5 0.4-0.1 0.1c-0.5-0.4-1.1-0.6-1.8-0.8v-0.5c0-0.4-0.3-0.7-0.7-0.7h-0.6c-0.4 0-0.7 0.3-0.7 0.7v0.4c-0.8 0.1-1.5 0.4-2.1 0.8l-0.1-0.2c-0.2-0.3-0.6-0.3-0.9-0.1l-0.5 0.4c-0.3 0.2-0.3 0.6-0.1 0.9l0.2 0.3c-0.5 0.7-0.8 1.4-1 2.3h-0.4c-0.4 0-0.7 0.3-0.7 0.7v0.6c0 0.4 0.3 0.7 0.7 0.7h0.4c0.2 0.8 0.5 1.6 1 2.2l-0.3 0.3c-0.2 0.3-0.2 0.7 0 0.9l0.5 0.4c0.3 0.2 0.7 0.2 0.9 0l0.3-0.4c0.6 0.4 1.3 0.6 2 0.7v0.5c0 0.4 0.3 0.7 0.7 0.7h0.6c0.4 0 0.7-0.3 0.7-0.7v-0.6c0.7-0.2 1.4-0.5 2-1l0.2 0.3c0.2 0.3 0.6 0.3 0.9 0.1l0.5-0.4c0.3-0.2 0.3-0.6 0.1-0.9l-0.4-0.5s0-0.1-0.1-0.1c0.3-0.5 0.5-1.1 0.7-1.6h0.4c0.4 0 0.7-0.3 0.7-0.7v-0.6c0.2-0.4-0.1-0.7-0.5-0.7zm-5.6 3c-1.1 0-2.1-0.9-2.1-2.1s0.9-2.1 2.1-2.1c1.1 0 2.1 0.9 2.1 2.1s-1 2.1-2.1 2.1z" fill="#F2F0E8"/>
			
				
					<path d="m126.8 765.8h-0.7c-0.5 0-1-0.4-1-1v-0.3c-0.7-0.1-1.3-0.3-1.9-0.6l-0.2 0.2c-0.4 0.4-1 0.4-1.4 0.1l-0.5-0.5c-0.4-0.4-0.4-1-0.1-1.3l0.2-0.2c-0.5-0.6-0.8-1.3-1-2.1h-0.3c-0.5 0-1-0.4-1-1v-0.7c0-0.5 0.4-1 1-1h0.2c0.2-0.8 0.5-1.5 0.9-2.2l-0.2-0.2c-0.2-0.2-0.2-0.5-0.2-0.7 0-0.3 0.2-0.5 0.4-0.6l0.5-0.4c0.2-0.2 0.5-0.2 0.7-0.2 0.3 0 0.5 0.2 0.6 0.4 0.6-0.4 1.3-0.6 2-0.7v-0.2c0-0.5 0.4-1 1-1h0.7c0.5 0 1 0.4 1 1v0.3c0.6 0.2 1.1 0.4 1.6 0.7l0.5-0.4c0.2-0.2 0.5-0.2 0.7-0.2 0.3 0 0.5 0.2 0.6 0.4l0.4 0.5c0.2 0.2 0.2 0.5 0.2 0.7 0 0.3-0.2 0.5-0.4 0.6l-0.2 0.2c0.4 0.6 0.6 1.2 0.8 1.9h0.2c0.5 0 1 0.4 1 1v0.7c0 0.5-0.4 1-1 1h-0.3c-0.1 0.5-0.3 1-0.6 1.5l0.4 0.5c0.2 0.2 0.2 0.5 0.2 0.7 0 0.3-0.2 0.5-0.4 0.6l-0.5 0.4c-0.2 0.2-0.5 0.2-0.7 0.2-0.3 0-0.5-0.2-0.6-0.4l-0.1-0.1c-0.6 0.4-1.2 0.7-1.8 0.9v0.4c0.3 0.7-0.1 1.1-0.7 1.1zm-3.6-2.5 0.2 0.1c0.6 0.4 1.3 0.6 2.1 0.7h0.2v0.7c0 0.3 0.2 0.5 0.5 0.5h0.7c0.3 0 0.5-0.2 0.5-0.5v-0.8h0.2c0.7-0.2 1.4-0.5 2-1l0.2-0.2 0.4 0.5c0.1 0.1 0.2 0.2 0.3 0.2s0.2 0 0.3-0.1l0.5-0.4c0.1-0.1 0.2-0.2 0.2-0.3s0-0.2-0.1-0.3l-0.4-0.5-0.2-0.2 0.1-0.2c0.3-0.5 0.5-1.1 0.7-1.7v-0.2h0.7c0.3 0 0.5-0.2 0.5-0.5v-0.7c0-0.3-0.2-0.5-0.5-0.5h-0.6v-0.2c-0.1-0.8-0.4-1.5-0.9-2.2l-0.1-0.2 0.6-0.5c0.1-0.1 0.2-0.2 0.2-0.3s0-0.2-0.1-0.3l-0.4-0.5c-0.1-0.1-0.2-0.2-0.3-0.2s-0.2 0-0.3 0.1l-0.6 0.5-0.1 0.2-0.2-0.1c-0.5-0.4-1.2-0.7-1.8-0.8h-0.2v-0.7c0-0.3-0.2-0.5-0.5-0.5h-0.7c-0.3 0-0.5 0.2-0.5 0.5v0.6h-0.2c-0.8 0.1-1.5 0.4-2.2 0.8l-0.2 0.1-0.3-0.4c-0.1-0.1-0.2-0.2-0.3-0.2s-0.2 0-0.3 0.1l-0.5 0.4c-0.1 0.1-0.2 0.2-0.2 0.3s0 0.2 0.1 0.3l0.4 0.5-0.1 0.2c-0.5 0.7-0.9 1.5-1 2.3v0.2h-0.6c-0.3 0-0.5 0.2-0.5 0.5v0.7c0 0.3 0.2 0.5 0.5 0.5h0.7v0.2c0.2 0.8 0.5 1.6 1.1 2.2l0.1 0.2-0.5 0.5c-0.2 0.2-0.2 0.5 0 0.6l0.5 0.5c0.2 0.2 0.5 0.2 0.6 0l0.3-0.5z"/>
				
			
			
				
					<path d="m126.2 761.2c-1.3 0-2.4-1.1-2.4-2.4s1.1-2.4 2.4-2.4 2.4 1.1 2.4 2.4c0 1.4-1.1 2.4-2.4 2.4zm0-4.3c-1.1 0-1.9 0.9-1.9 1.9 0 1.1 0.9 1.9 1.9 1.9s1.9-0.9 1.9-1.9c0-1.1-0.8-1.9-1.9-1.9z"/>
				
			
		
		<path d="m113.6 522.3-0.7-0.1c-0.1-1.5-0.5-2.9-1.2-4.2l0.8-0.5c0.6-0.4 0.8-1.1 0.4-1.7l-0.6-1c-0.4-0.6-1.1-0.8-1.7-0.4l-1 0.6c-0.1 0-0.1 0.1-0.1 0.1-0.9-0.8-2-1.4-3.2-1.8l0.1-0.9c0.1-0.7-0.4-1.3-1.1-1.4l-1.2-0.1c-0.7-0.1-1.3 0.4-1.4 1.1l-0.1 0.7c-1.5 0.1-2.9 0.4-4.2 1.1l-0.2-0.4c-0.4-0.6-1.1-0.8-1.7-0.4l-1 0.6c-0.6 0.4-0.8 1.1-0.4 1.7l0.4 0.7c-1.1 1.2-1.8 2.6-2.3 4.2l-0.7-0.1c-0.7-0.1-1.3 0.4-1.4 1.1l-0.1 1.2c-0.1 0.7 0.4 1.3 1.1 1.4l0.8 0.1c0.2 1.6 0.7 3.1 1.6 4.4l-0.6 0.6c-0.5 0.5-0.6 1.3-0.1 1.8l0.8 0.9c0.5 0.5 1.3 0.6 1.8 0.1l0.7-0.6c1.1 0.8 2.3 1.4 3.7 1.7l-0.1 0.9c-0.1 0.7 0.4 1.3 1.1 1.4l1.2 0.1c0.7 0.1 1.3-0.4 1.4-1.1l0.1-1.1c1.4-0.2 2.8-0.7 3.9-1.5l0.4 0.6c0.4 0.6 1.1 0.8 1.7 0.4l1-0.6c0.6-0.4 0.8-1.1 0.4-1.7l-0.6-1c0-0.1-0.1-0.1-0.1-0.2 0.7-0.9 1.2-1.9 1.5-3l0.8 0.1c0.7 0.1 1.3-0.4 1.4-1.1l0.1-1.2c-0.2-0.8-0.7-1.4-1.4-1.5zm-11.3 4.6c-2.2-0.2-3.7-2.1-3.5-4.3s2.1-3.7 4.3-3.5 3.7 2.1 3.5 4.3-2.1 3.7-4.3 3.5z" fill="#7ACBF5"/>
		<path d="m126 519.4-0.3-0.3c0.5-0.6 0.9-1.3 1.1-2l0.5 0.1c0.4 0.1 0.7-0.1 0.8-0.5l0.1-0.6c0.1-0.4-0.1-0.7-0.5-0.8l-0.6-0.1h-0.1c-0.1-0.6-0.2-1.3-0.5-1.9l0.4-0.3c0.3-0.2 0.3-0.7 0.1-0.9l-0.4-0.5c-0.2-0.3-0.7-0.3-0.9-0.1l-0.3 0.2c-0.6-0.5-1.3-0.9-2-1.1v-0.2c0.1-0.4-0.1-0.7-0.5-0.8l-0.6-0.1c-0.4-0.1-0.7 0.1-0.8 0.5l-0.1 0.4c-0.8 0.1-1.6 0.3-2.4 0.7l-0.3-0.3c-0.2-0.3-0.7-0.3-0.9-0.1l-0.5 0.4c-0.3 0.2-0.3 0.7-0.1 0.9l0.3 0.3c-0.5 0.7-0.9 1.4-1 2.2h-0.5c-0.4 0-0.7 0.3-0.7 0.6v0.6c0 0.4 0.3 0.7 0.6 0.7h0.5c0.1 0.7 0.4 1.4 0.8 2l-0.4 0.3c-0.3 0.2-0.3 0.7-0.1 0.9l0.4 0.5c0.2 0.3 0.7 0.3 0.9 0.1l0.4-0.4c0.6 0.4 1.3 0.7 2 0.9l-0.1 0.4c-0.1 0.4 0.1 0.7 0.5 0.8l0.6 0.1c0.4 0.1 0.7-0.1 0.8-0.5l0.1-0.6v-0.1c0.6-0.1 1.1-0.3 1.7-0.6l0.3 0.3c0.2 0.3 0.7 0.3 0.9 0.1l0.5-0.4c0.5-0.1 0.5-0.5 0.3-0.8zm-5.9-2.4c-0.7-0.9-0.6-2.2 0.3-2.9s2.2-0.6 2.9 0.3 0.6 2.2-0.3 2.9-2.2 0.6-2.9-0.3z" fill="#7ACBF5"/>
		
			
				<path d="m94 531.7-0.8-0.9c-0.6-0.7-0.5-1.8 0.2-2.4l0.3-0.3c-0.6-1-1-2-1.2-3.1h-0.5c-1 0-1.7-0.8-1.7-1.8v-1.2c0-0.5 0.2-0.9 0.6-1.2 0.3-0.3 0.8-0.5 1.2-0.5h0.4c0.3-1.3 0.9-2.5 1.7-3.6l-0.3-0.3c-0.6-0.7-0.5-1.8 0.2-2.4l0.9-0.8c0.7-0.6 1.8-0.5 2.4 0.2l0.2 0.2c1.2-0.7 2.6-1.1 3.9-1.2l0.1-0.4c0.1-0.5 0.4-0.8 0.8-1.1s0.9-0.3 1.3-0.2l1.2 0.3c0.9 0.2 1.5 1.1 1.3 2 1.1 0.4 2.2 1 3.1 1.8l0.2-0.2c0.7-0.6 1.8-0.5 2.4 0.2l0.8 0.9c0.6 0.7 0.5 1.8-0.2 2.4l-0.4 0.3c0.4 0.9 0.7 1.9 0.8 2.9l1 0.2c0.9 0.2 1.5 1.1 1.3 2.1l-0.3 1.2c-0.1 0.5-0.4 0.8-0.8 1.1s-0.9 0.3-1.3 0.2l-0.4-0.1c-0.4 1.1-1 2.2-1.7 3.1l0.2 0.2c0.6 0.7 0.5 1.8-0.2 2.4l-0.9 0.8c-0.7 0.6-1.8 0.5-2.4-0.2l-0.3-0.3c-0.8 0.4-1.7 0.7-2.6 0.9l-0.2 1c-0.1 0.5-0.4 0.8-0.8 1.1s-0.9 0.3-1.3 0.2l-1.2-0.3c-0.9-0.2-1.5-1.1-1.3-2.1v-0.2c-1.1-0.3-2.2-0.8-3.1-1.4l-0.5 0.4c-0.4 0.9-1.5 0.8-2.1 0.1zm-0.6-7.8 0.1 0.4c0.2 1.3 0.7 2.5 1.4 3.6l0.2 0.4-1 0.8c-0.3 0.3-0.4 0.7-0.1 1l0.8 0.9c0.3 0.3 0.7 0.4 1 0.1l1.1-0.9 0.3 0.2c1.1 0.8 2.3 1.3 3.6 1.6l0.5 0.1-0.3 1.2c-0.1 0.4 0.2 0.8 0.6 0.9l1.2 0.3c0.2 0 0.4 0 0.6-0.1s0.3-0.3 0.3-0.5l0.3-1.2v-0.1-0.4l0.4-0.1c1.1-0.2 2.1-0.5 3-1l0.4-0.2 0.8 0.9c0.3 0.3 0.7 0.3 1 0.1l0.9-0.8c0.3-0.3 0.4-0.7 0.1-1l-0.7-0.9 0.3-0.3c0.9-1.1 1.5-2.2 1.9-3.5l0.1-0.5 1.4 0.3c0.2 0 0.4 0 0.6-0.1s0.3-0.3 0.3-0.5l0.3-1.2c0.1-0.4-0.2-0.8-0.6-0.9l-1.3-0.3h-0.4v-0.4c-0.1-1.1-0.4-2.3-0.9-3.3l-0.2-0.4 1-0.8c0.3-0.3 0.4-0.7 0.1-1l-0.8-0.9c-0.3-0.3-0.7-0.4-1-0.1l-0.9 0.7-0.3-0.3c-1-0.9-2.2-1.6-3.5-2l-0.4-0.1 0.2-0.9c0.1-0.4-0.2-0.8-0.6-0.9l-1.2-0.3c-0.2 0-0.4 0-0.6 0.1s-0.3 0.3-0.3 0.5l-0.2 1.1h-0.4c-1.5 0.1-2.9 0.5-4.2 1.3l-0.4 0.2-0.7-0.9c-0.3-0.3-0.7-0.4-1-0.1l-0.9 0.8c-0.3 0.3-0.4 0.7-0.1 1l0.8 0.9-0.3 0.3c-0.9 1.1-1.5 2.5-1.8 3.9l-0.1 0.4-1.3-0.1c-0.2 0-0.4 0.1-0.5 0.2s-0.2 0.3-0.2 0.5v1.2c0 0.4 0.3 0.7 0.7 0.8l0.9 0.3z"/>
			
		
		
			
				<path d="m99.6 525.5c-1.5-1.7-1.2-4.3 0.5-5.8s4.3-1.2 5.8 0.5c1.4 1.7 1.2 4.3-0.5 5.8-1.8 1.4-4.4 1.2-5.8-0.5zm5.9-5c-1.3-1.5-3.5-1.7-5.1-0.4-1.5 1.3-1.7 3.5-0.4 5.1 1.3 1.5 3.5 1.7 5.1 0.4 1.4-1.3 1.6-3.6 0.4-5.1z"/>
			
		
		
			
				<path d="m116.7 520.7-0.4-0.5c-0.3-0.4-0.3-1 0.1-1.3l0.2-0.2c-0.3-0.6-0.6-1.2-0.7-1.8h-0.3c-0.5 0-0.9-0.5-0.9-1v-0.7c0-0.5 0.5-0.9 1-0.9h0.3c0.2-0.8 0.5-1.5 1-2.1l-0.2-0.2c-0.3-0.4-0.3-1 0.1-1.3l0.5-0.4c0.4-0.3 1-0.3 1.3 0.1l0.1 0.2c0.7-0.4 1.5-0.6 2.3-0.7l0.1-0.2c0.1-0.2 0.2-0.5 0.4-0.6s0.5-0.2 0.7-0.1l0.7 0.1c0.2 0.1 0.5 0.2 0.6 0.4s0.2 0.5 0.1 0.7c0.7 0.2 1.3 0.6 1.8 1.1l0.1-0.1c0.4-0.3 1-0.3 1.3 0.1l0.4 0.5c0.3 0.4 0.3 1-0.1 1.3l-0.2 0.2c0.2 0.5 0.4 1.1 0.5 1.7l0.6 0.1c0.2 0.1 0.5 0.2 0.6 0.4s0.2 0.5 0.1 0.7l-0.1 0.7c-0.1 0.2-0.2 0.5-0.4 0.6s-0.5 0.2-0.7 0.1l-0.3-0.1c-0.2 0.7-0.6 1.3-1 1.8l0.1 0.2c0.3 0.4 0.3 1-0.1 1.3l-0.5 0.4c-0.4 0.3-1 0.3-1.3-0.1l-0.2-0.2c-0.5 0.2-1 0.4-1.5 0.5l-0.1 0.6c-0.1 0.3-0.2 0.5-0.4 0.6s-0.5 0.2-0.7 0.1l-0.7-0.1c-0.2-0.1-0.5-0.2-0.6-0.4s-0.2-0.5-0.1-0.7v-0.1c-0.7-0.2-1.3-0.5-1.8-0.8l-0.3 0.3c-0.5 0.3-1.1 0.2-1.4-0.2zm-0.4-4.3v0.2c0.1 0.7 0.4 1.4 0.8 2l0.1 0.2-0.5 0.5c-0.2 0.2-0.2 0.4-0.1 0.6l0.4 0.5c0.2 0.2 0.4 0.2 0.6 0.1l0.6-0.5 0.2 0.1c0.6 0.4 1.3 0.8 2 0.9l0.2 0.1-0.1 0.6c0 0.1 0 0.2 0.1 0.3s0.2 0.2 0.3 0.2l0.7 0.1c0.1 0 0.2 0 0.3-0.1s0.2-0.2 0.2-0.3l0.1-0.7v-0.1-0.2h0.2c0.6-0.1 1.2-0.3 1.7-0.6l0.2-0.1 0.4 0.5c0.2 0.2 0.4 0.2 0.6 0.1l0.5-0.4c0.2-0.2 0.2-0.5 0.1-0.6l-0.4-0.5 0.1-0.2c0.5-0.6 0.9-1.3 1.1-2l0.1-0.2 0.7 0.2c0.1 0 0.2 0 0.3-0.1s0.2-0.2 0.2-0.3l0.1-0.7c0-0.1 0-0.2-0.1-0.3s-0.2-0.2-0.3-0.2l-0.7-0.2h-0.2v-0.2c-0.1-0.7-0.2-1.3-0.5-1.9l-0.1-0.2 0.5-0.5c0.2-0.2 0.2-0.4 0.1-0.6l-0.4-0.5c-0.2-0.2-0.4-0.2-0.6-0.1l-0.5 0.4-0.2-0.1c-0.6-0.5-1.3-0.9-2-1.2l-0.2-0.1 0.1-0.5c0-0.1 0-0.2-0.1-0.3s-0.2-0.2-0.3-0.2l-0.7-0.1c-0.1 0-0.2 0-0.3 0.1s-0.2 0.2-0.2 0.3l-0.1 0.6h-0.2c-0.9 0.1-1.7 0.3-2.4 0.7l-0.2 0.1-0.4-0.5c-0.2-0.2-0.4-0.2-0.6-0.1l-0.5 0.4c-0.2 0.2-0.2 0.4-0.1 0.6l0.4 0.5-0.1 0.2c-0.5 0.6-0.9 1.4-1 2.3v0.2h-0.7c-0.3 0-0.5 0.2-0.5 0.4v0.7c0 0.3 0.2 0.5 0.4 0.5l0.9 0.2z"/>
			
		
		
			
				<path d="m119.8 517.3c-0.9-1-0.7-2.6 0.3-3.4 1-0.9 2.6-0.7 3.4 0.3 0.9 1 0.7 2.6-0.3 3.4-1 0.9-2.6 0.7-3.4-0.3zm3.3-2.8c-0.7-0.8-1.9-0.9-2.7-0.2s-0.9 1.9-0.2 2.7 1.9 0.9 2.7 0.2 0.9-1.9 0.2-2.7z"/>
			
		
		<path d="m104.9 366.7s0.7-9.9 10-11c6.4-0.7 12.4-0.6 15.2-0.5h2.9c3.7-0.1 14.1 0.6 14.6 11.7 0.6 12.8-3.2 18.1-15.5 18.2-1.2 0-2.4 0.7-3.1 1.7-1.2 1.8-3.5 4.5-6.8 4.5 0 0 4.7-6.2 0-6.2s-15-1.1-16.6-5.7c-1.6-4.8-0.7-12.7-0.7-12.7z" fill="#ACD4F7"/>
		<path d="m118.9 370.8c0 1.2-0.9 2.1-2.1 2.1s-2.1-0.9-2.1-2.1 0.9-2.1 2.1-2.1 2.1 0.9 2.1 2.1z" fill="#F2F0E8"/>
		<circle cx="126.2" cy="370.8" r="2.1" fill="#F2F0E8"/>
		<path d="m137.9 370.8c0 1.2-0.9 2.1-2.1 2.1s-2.1-0.9-2.1-2.1 0.9-2.1 2.1-2.1 2.1 0.9 2.1 2.1z" fill="#F2F0E8"/>
		
			<path d="m121.8 391.3c-0.2 0-0.4-0.1-0.4-0.3-0.1-0.2-0.1-0.4 0-0.5 1-1.3 2.4-3.8 1.9-4.9-0.2-0.4-0.7-0.6-1.5-0.6-0.6 0-15-0.1-17.1-6-1.7-4.9-0.8-12.6-0.8-12.9 0-0.1 0.8-10.3 10.5-11.4 0.3 0 0.5 0.2 0.6 0.4 0 0.3-0.2 0.5-0.4 0.6-8.9 1-9.6 10.4-9.6 10.5s-0.8 7.8 0.8 12.5c1.5 4.2 11.2 5.4 16.1 5.4 1.2 0 2 0.4 2.4 1.1 0.7 1.4-0.5 3.7-1.4 5 2.5-0.4 4.3-2.5 5.4-4.2 0.8-1.2 2.1-1.9 3.5-1.9 5.7 0 9.4-1.2 11.8-3.7 2.6-2.7 3.6-7 3.2-14-0.5-10.4-10-11.3-14.1-11.2-0.2 0-0.5-0.2-0.5-0.5s0.2-0.5 0.5-0.5c3.4-0.1 14.6 0.5 15.1 12.2 0.3 7.3-0.8 11.8-3.5 14.8-2.5 2.7-6.5 3.9-12.5 4-1.1 0-2.1 0.6-2.6 1.5-1.3 1.7-3.7 4.6-7.4 4.6z"/>
		
		<path d="m377.8 619.4s-0.5-7.5-7.5-8.2c-4.8-0.5-9.3-0.4-11.4-0.4h-2.2c-2.7-0.1-10.6 0.4-11 8.8-0.4 9.6 2.4 13.6 11.7 13.7 0.9 0 1.8 0.5 2.3 1.3 0.9 1.4 2.6 3.4 5.1 3.4 0 0-3.5-4.7 0-4.7s11.3-0.8 12.5-4.3c1.2-3.7 0.5-9.6 0.5-9.6z" fill="#6AB3D9"/>
		<path d="m364.2 637.9c-2.8 0-4.7-2.3-5.6-3.6-0.4-0.6-1.1-1-1.9-1-4.5 0-7.5-1-9.5-3-2.1-2.2-2.9-5.7-2.7-11.2 0.4-8.9 8.9-9.3 11.5-9.2h2.2c2.3-0.1 6.8-0.2 11.5 0.4 7.2 0.8 8 8.3 8 8.7 0 0.3 0.6 6.1-0.6 9.8-1.6 4.6-12.5 4.6-13 4.6s-0.9 0.1-1 0.4c-0.3 0.7 0.6 2.5 1.4 3.5 0.1 0.2 0.1 0.4 0 0.5 0.1 0-0.1 0.1-0.3 0.1zm-8.5-27.1c-3.2 0-9.7 0.9-10 8.3-0.2 5.2 0.5 8.4 2.4 10.4 1.7 1.8 4.5 2.7 8.8 2.7 1.1 0 2.1 0.6 2.7 1.5 0.8 1.2 2 2.6 3.7 3-0.6-1-1.4-2.6-0.9-3.6 0.3-0.6 0.9-0.9 1.9-0.9 4.3 0 11-1.1 12-4 1.2-3.5 0.6-9.3 0.6-9.3 0-0.3-0.6-7.1-7.1-7.8-4.7-0.5-9.1-0.4-11.4-0.4h-2.2c-0.2 0.1-0.4 0.1-0.5 0.1z"/>
		<path d="m318.9 606.7s0.7-9.9 10-11c6.4-0.7 12.4-0.6 15.2-0.5h2.9c3.7-0.1 14.1 0.6 14.6 11.7 0.6 12.8-3.2 18.1-15.5 18.2-1.2 0-2.4 0.7-3.1 1.7-1.2 1.8-3.5 4.5-6.8 4.5 0 0 4.7-6.2 0-6.2s-15-1.1-16.6-5.7c-1.6-4.8-0.7-12.7-0.7-12.7z" fill="#ACD4F7"/>
		<path d="m332.9 610.8c0 1.2-0.9 2.1-2.1 2.1s-2.1-0.9-2.1-2.1 0.9-2.1 2.1-2.1 2.1 0.9 2.1 2.1z" fill="#F2F0E8"/>
		<circle cx="340.2" cy="610.8" r="2.1" fill="#F2F0E8"/>
		<path d="m351.9 610.8c0 1.2-0.9 2.1-2.1 2.1s-2.1-0.9-2.1-2.1 0.9-2.1 2.1-2.1 2.1 0.9 2.1 2.1z" fill="#F2F0E8"/>
		
			<path d="m335.8 631.3c-0.2 0-0.4-0.1-0.4-0.3-0.1-0.2-0.1-0.4 0-0.5 1-1.3 2.4-3.8 1.9-4.9-0.2-0.4-0.7-0.6-1.5-0.6-0.6 0-15-0.1-17.1-6-1.7-4.9-0.8-12.6-0.8-12.9 0-0.1 0.8-10.3 10.5-11.4 0.3 0 0.5 0.2 0.6 0.4 0 0.3-0.2 0.5-0.4 0.6-8.9 1-9.6 10.4-9.6 10.5s-0.8 7.8 0.8 12.5c1.5 4.2 11.2 5.4 16.1 5.4 1.2 0 2 0.4 2.4 1.1 0.7 1.4-0.5 3.7-1.4 5 2.5-0.4 4.3-2.5 5.4-4.2 0.8-1.2 2.1-1.9 3.5-1.9 5.7 0 9.4-1.2 11.8-3.7 2.6-2.7 3.6-7 3.2-14-0.5-10.4-10-11.3-14.1-11.2-0.2 0-0.5-0.2-0.5-0.5s0.2-0.5 0.5-0.5c3.4-0.1 14.6 0.5 15.1 12.2 0.3 7.3-0.8 11.8-3.5 14.8-2.5 2.7-6.5 3.9-12.5 4-1.1 0-2.1 0.6-2.6 1.5-1.3 1.7-3.7 4.6-7.4 4.6z"/>
		
		<path d="m162.5 713.8s8.5-10 23-6.1 23-0.8 25.7-4.7l2.6 25.9s-4.1 11.2-31 5.4c0 0-9.8-2.9-17.3 6.9l-3-27.4z" fill="#ACD4F7"/>
		
			<path d="m165.6 741.7h-0.2c-0.2-0.1-0.3-0.2-0.4-0.4l-3-27.5c0-0.1 0-0.3 0.1-0.4s8.8-10.2 23.5-6.2c14.5 3.9 22.7-1 25.2-4.5 0.1-0.2 0.3-0.2 0.5-0.2 0.2 0.1 0.3 0.2 0.4 0.4l1 10.4c0 0.3-0.2 0.5-0.4 0.5-0.3 0-0.5-0.2-0.5-0.4l-0.9-9.2c-3.3 3.6-11.7 7.7-25.5 3.9-13.1-3.5-21.2 4.5-22.4 5.7l2.9 26.1c7.6-8.9 17-6.2 17.1-6.2 24.8 5.4 29.8-4 30.3-5l-0.6-5.8c0-0.3 0.2-0.5 0.4-0.5 0.3 0 0.5 0.2 0.5 0.4l0.6 5.9v0.2c-0.2 0.5-4.5 11.6-31.6 5.7-0.4-0.1-9.6-2.7-16.8 6.7 0 0.3-0.1 0.4-0.2 0.4z"/>
		
		
			<path d="m187.8 726.6c-1.4-0.1-2.8-0.6-3.9-1.4l1.2-1.9c0.9 0.6 1.7 1 2.7 1.2l-0.1-2.5c-2.3-0.5-3.5-1.4-3.6-3.3-0.1-1.8 1.2-3 3.3-3.3v-0.9l1.7-0.1v1c1.1 0.1 2.1 0.5 3 1.1l-1 1.9c-0.7-0.4-1.4-0.7-2-0.9l0.1 2.4c2.5 0.6 3.6 1.5 3.6 3.3 0.1 1.8-1.3 3-3.3 3.3l0.1 1.6-1.7 0.1-0.1-1.6zm-0.2-7-0.1-2.2c-0.8 0.1-1.1 0.5-1.1 1 0.1 0.6 0.3 1 1.2 1.2zm1.6 2.8 0.1 2.2c0.8-0.1 1.1-0.5 1.1-1.1 0-0.5-0.3-0.9-1.2-1.1z" fill="#fff"/>
		
		<polygon points="171 736.8 165.9 741.5 163 713.9 168.7 709.2" fill="#A0A0A0" opacity=".2"/>
		<path d="m144.6 716.2s4.3-12.4 19.2-14c15-1.6 21.1-9.1 22.3-13.7l11.8 23.2s0.3 12-26.9 16.3c0 0-10.1 0.8-13.6 12.7l-12.8-24.5z" fill="#ACD4F7"/>
		
			<path d="m157.6 741.2h-0.2c-0.2 0-0.4-0.1-0.5-0.3l-12.8-24.5c-0.1-0.1-0.1-0.3 0-0.4 0-0.1 4.5-12.7 19.7-14.3 15-1.6 20.8-9.1 21.8-13.3 0.1-0.2 0.2-0.4 0.4-0.4s0.4 0.1 0.5 0.3l4.8 9.3c0.1 0.2 0 0.5-0.2 0.7-0.2 0.1-0.5 0-0.7-0.2l-4.2-8.3c-1.8 4.5-8.1 11.4-22.3 12.9-13.5 1.4-18.1 11.9-18.8 13.5l12.1 23.2c3.8-11 13.6-11.9 13.7-11.9 25.1-4 26.4-14.5 26.4-15.7l-2.6-5.2c-0.1-0.2 0-0.5 0.2-0.7 0.2-0.1 0.5 0 0.7 0.2l2.7 5.3c0 0.1 0.1 0.1 0.1 0.2 0 0.5 0 12.4-27.3 16.8-0.4 0-9.9 0.9-13.2 12.4 0 0.2-0.1 0.3-0.3 0.4z"/>
		
		
			<path d="m172.9 719c-1.3 0.4-2.8 0.4-4.1 0.1l0.4-2.2c1.1 0.3 2 0.3 2.9 0.1l-1-2.3c-2.4 0.4-3.8 0-4.5-1.7-0.7-1.6 0.1-3.2 1.9-4.2l-0.4-0.9 1.5-0.7 0.4 0.9c1.1-0.3 2.2-0.3 3.2-0.1l-0.2 2.1c-0.8-0.1-1.5-0.2-2.2-0.1l1 2.2c2.5-0.4 3.9 0.1 4.6 1.8 0.7 1.6-0.1 3.3-1.9 4.3l0.6 1.5-1.5 0.7-0.7-1.5zm-2.7-6.4-0.9-2c-0.7 0.4-0.8 0.9-0.6 1.4 0.2 0.4 0.5 0.6 1.5 0.6zm2.5 1.9 0.9 2.1c0.7-0.4 0.9-0.9 0.6-1.4-0.2-0.5-0.6-0.7-1.5-0.7z" fill="#fff"/>
		
		<polygon points="160.9 734.6 157.9 740.9 145.2 716.2 148.8 709.7" fill="#A0A0A0" opacity=".2"/>
		<path d="m57.4 162.5s8.5-10 23-6.1c14.6 3.9 23-0.8 25.7-4.7l2.6 25.9s-4.1 11.2-31 5.4c0 0-9.8-2.9-17.3 6.9l-3-27.4z" fill="#ACD4F7"/>
		
			<path d="m60.5 190.4h-0.2c-0.2-0.1-0.3-0.2-0.4-0.4l-3-27.5c0-0.1 0-0.3 0.1-0.4s8.8-10.2 23.5-6.2c14.5 3.9 22.7-1 25.2-4.5 0.1-0.2 0.3-0.2 0.5-0.2 0.2 0.1 0.3 0.2 0.4 0.4l1 10.4c0 0.3-0.2 0.5-0.4 0.5-0.3 0-0.5-0.2-0.5-0.4l-0.9-9.2c-3.3 3.6-11.7 7.7-25.5 3.9-13.1-3.5-21.2 4.5-22.4 5.7l2.9 26.1c7.6-8.9 17-6.2 17.1-6.2 24.8 5.4 29.8-4 30.3-5l-0.6-5.8c0-0.3 0.2-0.5 0.4-0.5 0.3 0 0.5 0.2 0.5 0.4l0.6 5.9v0.2c-0.2 0.5-4.5 11.6-31.6 5.7-0.4-0.1-9.6-2.7-16.8 6.7 0 0.4-0.1 0.4-0.2 0.4z"/>
		
		
			<path d="m82.7 175.3c-1.4-0.1-2.8-0.6-3.9-1.4l1.2-1.9c0.9 0.6 1.7 1 2.7 1.2l-0.1-2.5c-2.3-0.5-3.5-1.4-3.6-3.3-0.1-1.8 1.2-3 3.3-3.3v-0.9l1.7-0.1v1c1.1 0.1 2.1 0.5 3 1.1l-1 1.9c-0.7-0.4-1.4-0.7-2-0.9l0.1 2.4c2.5 0.6 3.6 1.5 3.6 3.3 0.1 1.8-1.3 3-3.3 3.3l0.1 1.6-1.7 0.1-0.1-1.6zm-0.2-6.9-0.1-2.2c-0.8 0.1-1.1 0.5-1.1 1 0.1 0.6 0.3 0.9 1.2 1.2zm1.6 2.7 0.1 2.2c0.8-0.1 1.1-0.5 1.1-1.1 0-0.5-0.3-0.8-1.2-1.1z" fill="#fff"/>
		
		<polygon points="65.9 185.5 60.8 190.3 57.9 162.6 63.6 157.9" fill="#A0A0A0" opacity=".2"/>
		<path d="m39.5 164.9s4.3-12.4 19.2-14 21.1-9.1 22.3-13.7l11.8 23.2s0.3 12-26.9 16.3c0 0-10.1 0.8-13.6 12.7l-12.8-24.5z" fill="#ACD4F7"/>
		
			<path d="m52.5 189.9h-0.2c-0.2 0-0.4-0.1-0.5-0.3l-12.8-24.5c-0.1-0.1-0.1-0.3 0-0.4 0-0.1 4.5-12.7 19.7-14.3 15-1.6 20.8-9.1 21.8-13.3 0.1-0.2 0.2-0.4 0.4-0.4s0.4 0.1 0.5 0.3l4.8 9.3c0.1 0.2 0 0.5-0.2 0.7-0.2 0.1-0.5 0-0.7-0.2l-4.2-8.3c-1.8 4.5-8.1 11.4-22.3 12.9-13.5 1.4-18.1 11.9-18.8 13.5l12.1 23.2c3.8-11 13.6-11.9 13.7-11.9 25.1-4 26.4-14.5 26.4-15.7l-2.6-5.2c-0.1-0.2 0-0.5 0.2-0.7 0.2-0.1 0.5 0 0.7 0.2l2.7 5.3c0 0.1 0.1 0.1 0.1 0.2 0 0.5 0 12.4-27.3 16.8-0.4 0-9.9 0.9-13.2 12.4 0 0.2-0.1 0.3-0.3 0.4z"/>
		
		
			<path d="m67.8 167.7c-1.3 0.4-2.8 0.4-4.1 0.1l0.4-2.2c1.1 0.3 2 0.3 2.9 0.1l-1-2.3c-2.4 0.4-3.8 0-4.5-1.7-0.7-1.6 0.1-3.2 1.9-4.2l-0.4-0.9 1.5-0.7 0.4 0.9c1.1-0.3 2.2-0.3 3.2-0.1l-0.2 2.1c-0.8-0.1-1.5-0.2-2.2-0.1l1 2.2c2.5-0.4 3.9 0.1 4.6 1.8 0.7 1.6-0.1 3.3-1.9 4.3l0.6 1.5-1.5 0.7-0.7-1.5zm-2.7-6.4-0.9-2c-0.7 0.4-0.8 0.9-0.6 1.4s0.5 0.7 1.5 0.6zm2.5 1.9 0.9 2.1c0.7-0.4 0.9-0.9 0.6-1.4-0.2-0.5-0.6-0.7-1.5-0.7z" fill="#fff"/>
		
		<polygon points="55.8 183.3 52.8 189.6 40.1 164.9 43.7 158.4" fill="#A0A0A0" opacity=".2"/>
		<rect x="103.6" y="560.5" width="55.6" height="37.8" fill="#F2F0E8"/>
		
			
				<path d="m159.7 599.1h-55.6c-0.3 0-0.5-0.2-0.5-0.5v-38.3c0-0.3 0.2-0.5 0.5-0.5h55.6c0.3 0 0.5 0.2 0.5 0.5v38.3c0 0.3-0.2 0.5-0.5 0.5zm-55.1-1h54.6v-37.3h-54.6v37.3z"/>
			
		
		
			
				<path d="m149.9 568.1h-45.4c-0.1 0-0.2-0.1-0.2-0.2s0.1-0.2 0.2-0.2h45.4c0.1 0 0.2 0.1 0.2 0.2s-0.1 0.2-0.2 0.2z"/>
			
		
		
			
				<path d="m113.1 573.9c-0.3 0-0.6-0.3-0.6-0.6s0.3-0.6 0.6-0.6 0.6 0.3 0.6 0.6c0.1 0.3-0.2 0.6-0.6 0.6z"/>
			
		
		
			
				<path d="m109.3 573.9c-0.3 0-0.6-0.3-0.6-0.6s0.3-0.6 0.6-0.6 0.6 0.3 0.6 0.6c0.1 0.3-0.2 0.6-0.6 0.6z"/>
			
		
		
			
				<path d="m116.9 573.9c-0.3 0-0.6-0.3-0.6-0.6s0.3-0.6 0.6-0.6 0.6 0.3 0.6 0.6c0.1 0.3-0.2 0.6-0.6 0.6z"/>
			
		
		<rect x="104.9" y="560.6" width="55.4" height="7" fill="#A0A0A0" opacity=".2"/>
		<rect x="104.6" y="560" width="3.2" height="38.8" fill="#A0A0A0" opacity=".2"/>
		<path d="m144.2 580.3s-0.4-5.8-5.8-6.4c-3.7-0.4-7.2-0.3-8.8-0.3h-1.7c-2.1-0.1-8.2 0.3-8.5 6.8-0.3 7.4 1.9 10.5 9 10.5 0.7 0 1.4 0.4 1.8 1 0.7 1.1 2 2.6 4 2.6 0 0-2.7-3.6 0-3.6s8.7-0.6 9.6-3.3 0.4-7.3 0.4-7.3z" fill="#ACD4F7"/>
		
			<g fill="#F2F0E8">
				<path d="m127.1 582.3c0 0.7-0.6 1.3-1.3 1.3s-1.3-0.6-1.3-1.3 0.6-1.3 1.3-1.3c0.8 0 1.3 0.6 1.3 1.3z"/>
				<path d="m133.1 582.3c0 0.7-0.6 1.3-1.3 1.3s-1.3-0.6-1.3-1.3 0.6-1.3 1.3-1.3 1.3 0.6 1.3 1.3z"/>
				<path d="m139.2 582.3c0 0.7-0.6 1.3-1.3 1.3s-1.3-0.6-1.3-1.3 0.6-1.3 1.3-1.3 1.3 0.6 1.3 1.3z"/>
			</g>
		
		<polyline points="188.7 446.5 196.9 451.9 199.1 453.4 198.8 481.5 142 480.8 142.4 452.8 170.3 434.2 180.6 441" fill="#7ACBF5"/>
		
			
				<path d="m198.8 482-56.8-0.7c-0.3 0-0.5-0.2-0.5-0.5l0.3-28c0-0.2 0.1-0.3 0.2-0.4l28-18.6c0.2-0.1 0.4-0.1 0.6 0l10.2 6.8c0.2 0.2 0.3 0.5 0.1 0.7s-0.5 0.3-0.7 0.1l-10-6.7-27.3 18.3-0.3 27.3 55.8 0.7 0.3-27.3-10.2-6.8c-0.2-0.2-0.3-0.5-0.1-0.7s0.5-0.3 0.7-0.1l10.4 6.9c0.1 0.1 0.2 0.3 0.2 0.4l-0.3 28c-0.1 0.4-0.3 0.6-0.6 0.6z"/>
			
		
		<polyline points="193.6 450.7 193.4 468.4 149.3 467.9 149.8 424.9 193.9 425.5 193.7 435.7" fill="#F2F0E8"/>
		
			
				<path d="m193.3 468.9-44.1-0.5c-0.3 0-0.5-0.2-0.5-0.5l0.5-43c0-0.3 0.2-0.5 0.5-0.5l44.1 0.5c0.3 0 0.5 0.2 0.5 0.5l-0.1 10.2c0 0.3-0.2 0.5-0.5 0.5s-0.5-0.2-0.5-0.5l0.1-9.7-43.1-0.5-0.5 42 43.1 0.5 0.2-17.2c0-0.3 0.2-0.5 0.5-0.5s0.5 0.2 0.5 0.5l-0.2 17.7c0.1 0.3-0.2 0.5-0.5 0.5z"/>
			
		
		<polygon points="180.6 461.8 199.1 481.6 199.4 453.6" fill="#F2F0E8"/>
		<polygon points="160.4 461.6 142.6 452.9 142.3 480.9" fill="#F2F0E8"/>
		<polygon points="180.6 461.8 160.4 461.6 142.3 480.9 199 481.6" fill="#F2F0E8"/>
		
			
				
					<path d="m199 481.8c-0.1 0-0.1 0-0.2-0.1l-18.4-19.7c-0.1-0.1-0.1-0.1-0.1-0.2s0.1-0.1 0.1-0.2l18.8-8.2h0.2c0.1 0 0.1 0.1 0.1 0.2l-0.3 28c0.1 0.1 0 0.2-0.2 0.2 0.1 0 0.1 0 0 0zm-18-19.9 17.8 19.1 0.3-27-18.1 7.9z"/>
				
			
			
				
					<path d="m142.3 481.2s-0.1 0 0 0c-0.2-0.1-0.2-0.1-0.2-0.3l0.3-28c0-0.1 0-0.2 0.1-0.2h0.2l17.8 8.7c0.1 0 0.1 0.1 0.1 0.2s0 0.2-0.1 0.2l-18.2 19.4c0.1-0.1 0.1 0 0 0zm0.6-27.9-0.3 27 17.5-18.7-17.2-8.3z"/>
				
			
			
				
					<path d="m199 481.8-56.8-0.7c-0.1 0-0.2-0.1-0.2-0.2v-0.3l18.2-19.4c0-0.1 0.1-0.1 0.2-0.1l20.1 0.2c0.1 0 0.1 0 0.2 0.1l18.5 19.8c0.1 0.1 0.1 0.2 0 0.3 0 0.3-0.1 0.3-0.2 0.3zm-56.1-1.1 55.6 0.7-18-19.3-19.9-0.2-17.7 18.8z"/>
				
			
		
		<polygon points="148.6 480.4 142 480.9 142.4 452.9 149 447.8" fill="#A0A0A0" opacity=".2"/>
		
			<path d="m175.2 439.3-18.8-0.2c-0.1 0-0.2-0.1-0.2-0.3l0.1-8.9c0-0.1 0.1-0.2 0.3-0.2l18.8 0.2c0.1 0 0.2 0.1 0.2 0.3l-0.1 8.9c-0.1 0.1-0.2 0.2-0.3 0.2zm-18.5-0.7 18.3 0.2 0.1-8.4-18.3-0.2-0.1 8.4z"/>
		
		
			<path d="m188.5 447.1-32.2-0.4c-0.1 0-0.2-0.1-0.2-0.3 0-0.1 0.1-0.2 0.3-0.2l32.2 0.4c0.1 0 0.2 0.1 0.2 0.3-0.1 0.1-0.2 0.2-0.3 0.2z"/>
		
		
			<path d="m188.4 452.2-32.2-0.4c-0.1 0-0.2-0.1-0.2-0.3 0-0.1 0.1-0.2 0.3-0.2l32.2 0.4c0.1 0 0.2 0.1 0.2 0.3 0 0-0.2 0.2-0.3 0.2z"/>
		
		
			<polyline points="206.8 303 206.8 329.4 164.5 329.4 164.5 274.6 206.8 274.6 206.8 289.9" fill="#F2F0E8"/>
			
				
					<path d="m207.2 329.9h-42.3c-0.3 0-0.5-0.2-0.5-0.5v-54.8c0-0.3 0.2-0.5 0.5-0.5h42.3c0.3 0 0.5 0.2 0.5 0.5v15.3c0 0.3-0.2 0.5-0.5 0.5s-0.5-0.2-0.5-0.5v-14.8h-41.3v53.8h41.3v-25.9c0-0.3 0.2-0.5 0.5-0.5s0.5 0.2 0.5 0.5v26.4c0 0.3-0.3 0.5-0.5 0.5z"/>
				
			
			
				
					<path d="m203.5 300.2h-31.5c-0.1 0-0.2-0.1-0.2-0.2s0.1-0.2 0.2-0.2h31.5c0.1 0 0.2 0.1 0.2 0.2s-0.1 0.2-0.2 0.2z"/>
				
			
			
				
					<path d="m203.5 304.6h-31.5c-0.1 0-0.2-0.1-0.2-0.2s0.1-0.2 0.2-0.2h31.5c0.1 0 0.2 0.1 0.2 0.2s-0.1 0.2-0.2 0.2z"/>
				
			
			
				
					<path d="m188.7 313.2h-16.7c-0.1 0-0.2-0.1-0.2-0.2s0.1-0.2 0.2-0.2h16.6c0.1 0 0.2 0.1 0.2 0.2 0.1 0.1 0 0.2-0.1 0.2z"/>
				
			
			
				
					<path d="m203.5 308.9h-31.5c-0.1 0-0.2-0.1-0.2-0.2s0.1-0.2 0.2-0.2h31.5c0.1 0 0.2 0.1 0.2 0.2s-0.1 0.2-0.2 0.2z"/>
				
			
			<rect x="164.3" y="274.6" width="4.7" height="54.8" fill="#A0A0A0" opacity=".2"/>
			
				<path d="m191.4 292.3h-18.8c-0.1 0-0.2-0.1-0.2-0.2v-8.9c0-0.1 0.1-0.2 0.2-0.2h18.8c0.1 0 0.2 0.1 0.2 0.2v8.9c0.1 0 0 0.2-0.2 0.2zm-18.5-0.5h18.3v-8.4h-18.3v8.4z"/>
			
		
		
			<polyline points="347.3 531.2 347.3 557.6 305 557.6 305 502.9 347.3 502.9 347.3 518.2" fill="#F2F0E8"/>
			
				
					<path d="m347.7 558.1h-42.3c-0.3 0-0.5-0.2-0.5-0.5v-54.8c0-0.3 0.2-0.5 0.5-0.5h42.3c0.3 0 0.5 0.2 0.5 0.5v15.3c0 0.3-0.2 0.5-0.5 0.5s-0.5-0.2-0.5-0.5v-14.8h-41.3v53.8h41.3v-25.9c0-0.3 0.2-0.5 0.5-0.5s0.5 0.2 0.5 0.5v26.4c0 0.3-0.3 0.5-0.5 0.5z"/>
				
			
			
				
					<path d="m344 528.5h-31.5c-0.1 0-0.2-0.1-0.2-0.2s0.1-0.2 0.2-0.2h31.5c0.1 0 0.2 0.1 0.2 0.2s-0.1 0.2-0.2 0.2z"/>
				
			
			
				
					<path d="m344 532.8h-31.5c-0.1 0-0.2-0.1-0.2-0.2s0.1-0.2 0.2-0.2h31.5c0.1 0 0.2 0.1 0.2 0.2s-0.1 0.2-0.2 0.2z"/>
				
			
			
				
					<path d="m329.2 541.5h-16.6c-0.1 0-0.2-0.1-0.2-0.2s0.1-0.2 0.2-0.2h16.6c0.1 0 0.2 0.1 0.2 0.2s-0.1 0.2-0.2 0.2z"/>
				
			
			
				
					<path d="m344 537.1h-31.5c-0.1 0-0.2-0.1-0.2-0.2s0.1-0.2 0.2-0.2h31.5c0.1 0 0.2 0.1 0.2 0.2s-0.1 0.2-0.2 0.2z"/>
				
			
			<rect x="304.8" y="502.9" width="4.7" height="54.8" fill="#A0A0A0" opacity=".2"/>
			
				<path d="m331.9 520.5h-18.8c-0.1 0-0.2-0.1-0.2-0.2v-8.9c0-0.1 0.1-0.2 0.2-0.2h18.8c0.1 0 0.2 0.1 0.2 0.2v8.9c0.1 0.1 0 0.2-0.2 0.2zm-18.5-0.5h18.3v-8.4h-18.3v8.4z"/>
			
		
	</g>

</svg>
