<?xml version="1.0" encoding="UTF-8"?>
<svg enable-background="new 0 0 450 850" version="1.1" viewBox="0 0 450 850" xml:space="preserve" xmlns="http://www.w3.org/2000/svg" xmlns:xlink="http://www.w3.org/1999/xlink">

	<defs>
		<path id="b" d="M0,0.4L0,0l450,0v850H0l0-1.6c25.6-115.5,41-263.1,41-424S25.6,115.9,0,0.4z"/>
	</defs>
	<clipPath id="a">
		<use overflow="visible" xlink:href="#b"/>
	</clipPath>
	<g clip-path="url(#a)">
		<polyline points="170.4 739.2 162.2 744.5 160 746 160 774 216.7 774 216.7 746 189 727.1 178.7 733.8" fill="#ACD4F7"/>
		
			
				<path d="m160 774.5h56.8c0.3 0 0.5-0.2 0.5-0.5v-28c0-0.2-0.1-0.3-0.2-0.4l-27.7-18.9c-0.2-0.1-0.4-0.1-0.6 0l-10.3 6.7c-0.2 0.2-0.3 0.5-0.1 0.7s0.5 0.3 0.7 0.1l10-6.5 27.2 18.5v27.3h-55.8v-27.3l10.2-6.7c0.2-0.2 0.3-0.5 0.1-0.7s-0.5-0.3-0.7-0.1l-10.5 6.8c-0.1 0.1-0.2 0.2-0.2 0.4v28c0.1 0.4 0.3 0.6 0.6 0.6z"/>
			
		
		<polygon points="178.3 754.6 159.6 774.2 159.6 746.1" fill="#F2F0E8"/>
		<polygon points="198.6 754.6 216.5 746.1 216.5 774.2" fill="#F2F0E8"/>
		<polygon points="178.4 754.6 198.6 754.6 216.5 774.2 159.7 774.2" fill="#F2F0E8"/>
		
			
				
					<path d="m159.6 774.4c-0.1 0-0.2-0.1-0.2-0.2v-28c0-0.1 0-0.2 0.1-0.2s0.2-0.1 0.2 0l18.7 8.5c0.1 0 0.1 0.1 0.1 0.2s0 0.2-0.1 0.2l-18.7 19.6c0.2-0.1 0.1-0.1-0.1-0.1 0.1 0 0.1 0 0 0zm0.4-27.9v27l18-18.9-18-8.1z"/>
				
			
			
				
					<path d="m216.3 774.3-17.9-19.6c-0.1-0.1-0.1-0.1-0.1-0.2s0.1-0.1 0.1-0.2l17.9-8.5h0.2c0.1 0 0.1 0.1 0.1 0.2v28c0 0.1-0.1 0.2-0.2 0.2h-0.1c0.1 0.2 0 0.2 0 0.1zm-17.3-19.6 17.3 18.9v-27l-17.3 8.1z"/>
				
			
			
				
					<path d="m159.5 774.3v-0.3l18.7-19.6s0.1-0.1 0.2-0.1h20.1c0.1 0 0.1 0 0.2 0.1l17.9 19.6c0.1 0.1 0.1 0.2 0 0.3 0 0.1-0.1 0.1-0.2 0.1h-56.8s-0.1 0-0.1-0.1zm38.9-19.5h-19.9l-18.2 19.1h55.6l-17.5-19.1z"/>
				
			
		
		<polygon points="210.2 773.5 216.7 774.2 216.7 746.1 210.2 740.9" fill="#A0A0A0" opacity=".2"/>
		<path d="m207 810.6c-4.1-2-7-6.3-7-11.2 0-6.9 5.6-12.5 12.5-12.5s12.5 5.6 12.5 12.5c0 4.9-2.9 9.2-7 11.2 6 2.2 10.3 8 10.3 14.8v10.8h-31.6v-10.8c0-6.8 4.3-12.6 10.3-14.8z" fill="#ACD4F7"/>
		
			<path d="m196.7 836.6h5.7c0.3 0 0.5-0.2 0.5-0.5s-0.2-0.5-0.5-0.5h-5.2v-10.3c0-6.3 4-12.1 10-14.3 0.2-0.1 0.3-0.2 0.3-0.4s-0.1-0.4-0.3-0.5c-4.1-2-6.7-6.2-6.7-10.8 0-6.6 5.4-12 12-12s12 5.4 12 12c0 4.6-2.6 8.7-6.7 10.8-0.2 0.1-0.3 0.3-0.3 0.5s0.1 0.4 0.3 0.4c6 2.2 10 8 10 14.3v10.3h-18.3c-0.3 0-0.5 0.2-0.5 0.5s0.2 0.5 0.5 0.5h18.8c0.3 0 0.5-0.2 0.5-0.5v-10.8c0-6.4-3.8-12.2-9.6-14.8 3.9-2.3 6.3-6.5 6.3-11.2 0-7.2-5.8-13-13-13s-13 5.8-13 13c0 4.6 2.4 8.8 6.3 11.2-5.8 2.6-9.6 8.4-9.6 14.8v10.8c0 0.3 0.2 0.5 0.5 0.5z"/>
		
		<polygon points="416 488.2 408.7 503 392.3 505.4 404.2 516.9 401.4 533.2 416 525.5 430.6 533.2 427.8 516.9 439.7 505.4 423.3 503" fill="#ACD4F7"/>
		<polygon points="420 488.5 412.7 503.3 396.3 505.7 408.1 517.2 405.4 533.5 420 525.8 434.6 533.5 431.8 517.2 443.7 505.7 427.3 503.3" fill="#ACD4F7"/>
		
			<path d="m405.1 534c-0.2-0.1-0.2-0.3-0.2-0.5l2.8-16-11.7-11.3c-0.1-0.1-0.2-0.3-0.1-0.5s0.2-0.3 0.4-0.3l16.1-2.3 7.2-14.6c0.2-0.3 0.7-0.3 0.9 0l7.2 14.6 16.1 2.3c0.2 0 0.3 0.2 0.4 0.3 0.1 0.2 0 0.4-0.1 0.5l-11.6 11.4 2.8 16c0 0.2 0 0.4-0.2 0.5s-0.4 0.1-0.5 0l-14.4-7.6-14.4 7.6c-0.1 0-0.2 0.1-0.2 0.1-0.3-0.1-0.5-0.1-0.5-0.2zm22.1-30.1c-0.2 0-0.3-0.1-0.4-0.3l-6.9-13.9-6.9 13.9c-0.1 0.1-0.2 0.2-0.4 0.3l-15.4 2.2 11.1 10.8c0.1 0.1 0.2 0.3 0.1 0.4l-2.6 15.3 13.7-7.2c0.1-0.1 0.3-0.1 0.5 0l13.7 7.2-2.6-15.3c0-0.2 0-0.3 0.1-0.4l11.1-10.8-15.1-2.2z"/>
		
		<polyline points="121 815.3 128.4 808.2 122 801.5 135.9 798.4 149.7 795.3 146.1 809 142.4 822.8 136 816.1 115.3 835.8 107.8 828" fill="#ACD4F7"/>
		<path d="m107.4 828.4 7.6 7.9c0.2 0.2 0.6 0.3 0.8 0l20.2-19.4 6 6.3c0.1 0.2 0.4 0.2 0.6 0.2s0.4-0.2 0.4-0.4l7.3-27.5c0.1-0.4-0.3-0.8-0.7-0.7l-27.8 6.2c-0.2 0-0.4 0.2-0.4 0.4-0.1 0.2 0 0.4 0.2 0.6l6 6.3-7 6.7c-0.2 0.2-0.2 0.6 0 0.8s0.6 0.3 0.8 0l7.4-7.1c0.2-0.2 0.2-0.6 0-0.8l-5.7-6 25.9-5.8-6.8 25.6-5.7-6c-0.2-0.2-0.6-0.3-0.8 0l-20.4 19.3-7.1-7.4c-0.2-0.2-0.6-0.3-0.8 0-0.2 0.2-0.2 0.5 0 0.8z"/>
		<polyline points="120.1 793.2 112.7 800.3 119.2 807.1 105.3 810.1 91.4 813.2 95.1 799.5 98.7 785.7 105.2 792.5 125.8 772.7 133.3 780.5" fill="#ACD4F7"/>
		
			<path d="m133.7 780.2-7.6-7.9c-0.2-0.2-0.6-0.3-0.8 0l-20.2 19.4-6-6.3c-0.1-0.2-0.4-0.2-0.6-0.2s-0.4 0.2-0.4 0.4l-7.3 27.5c-0.1 0.4 0.3 0.8 0.7 0.7l27.8-6.2c0.2 0 0.4-0.2 0.4-0.4 0.1-0.2 0-0.4-0.2-0.6l-6-6.3 7-6.7c0.2-0.2 0.2-0.6 0-0.8s-0.6-0.3-0.8 0l-7.4 7.1c-0.2 0.2-0.2 0.6 0 0.8l5.7 6-25.9 5.8 6.8-25.6 5.7 6c0.2 0.2 0.6 0.3 0.8 0l20.2-19.4 7.1 7.4c0.2 0.2 0.6 0.3 0.8 0 0.5-0.1 0.5-0.5 0.2-0.7z"/>
		
		<polyline points="118.4 53.6 124.6 47.7 119.2 42 130.9 39.4 142.5 36.8 139.5 48.4 136.4 59.9 130.9 54.3 113.6 70.9 107.3 64.3" fill="#ACD4F7"/>
		
			<path d="m106.9 64.6 6.3 6.6c0.2 0.2 0.5 0.2 0.7 0l17.1-16.2 5.1 5.3c0.1 0.1 0.3 0.2 0.5 0.1 0.2 0 0.3-0.2 0.3-0.3l6.1-23.1c0.1-0.3-0.3-0.7-0.6-0.6l-23.3 5.2c-0.2 0-0.3 0.2-0.3 0.3 0 0.2 0 0.3 0.1 0.5l5.1 5.3-5.9 5.6c-0.2 0.2-0.2 0.5 0 0.7s0.5 0.2 0.7 0l6.2-6c0.2-0.2 0.2-0.5 0-0.7l-4.8-5 21.7-4.8-5.8 21.5-4.8-5c-0.2-0.2-0.5-0.2-0.7 0l-17 16.3-6-6.3c-0.2-0.2-0.5-0.2-0.7 0-0.1 0.1-0.1 0.4 0 0.6z"/>
		
		<polyline points="117.7 35.1 111.4 41.1 116.9 46.7 105.2 49.3 93.5 51.9 96.6 40.4 99.7 28.8 105.1 34.4 122.4 17.8 128.8 24.4" fill="#ACD4F7"/>
		
			<path d="m129.1 24.1-6.3-6.6c-0.2-0.2-0.5-0.2-0.7 0l-17 16.3-5.1-5.3c-0.1-0.1-0.3-0.2-0.5-0.1-0.2 0-0.3 0.2-0.3 0.3l-6.2 23.1c-0.1 0.3 0.3 0.7 0.6 0.6l23.3-5.2c0.2 0 0.3-0.2 0.3-0.3 0-0.2 0-0.3-0.1-0.5l-5.1-5.3 5.9-5.6c0.2-0.2 0.2-0.5 0-0.7s-0.5-0.2-0.7 0l-6.2 6c-0.2 0.2-0.2 0.5 0 0.7l4.8 5-21.7 4.8 5.7-21.5 4.8 5c0.2 0.2 0.5 0.2 0.7 0l17-16.3 6 6.3c0.2 0.2 0.5 0.2 0.7 0 0.3-0.2 0.3-0.5 0.1-0.7z"/>
		
		<polyline points="37 755.2 37 781.6 79.4 781.6 79.4 726.9 37 726.9 37 742.2" fill="#F2F0E8"/>
		
			
				<path d="m36.7 782.1h42.3c0.3 0 0.5-0.2 0.5-0.5v-54.8c0-0.3-0.2-0.5-0.5-0.5h-42.3c-0.3 0-0.5 0.2-0.5 0.5v15.3c0 0.3 0.2 0.5 0.5 0.5s0.5-0.2 0.5-0.5v-14.8h41.3v53.8h-41.3v-25.9c0-0.3-0.2-0.5-0.5-0.5s-0.5 0.2-0.5 0.5v26.4c0 0.3 0.2 0.5 0.5 0.5z"/>
			
		
		
			
				<rect x="64.8" y="736.1" width="3.9" height="19.1" fill="#7ACBF5"/>
			
			
				
					<rect x="58.2" y="739.1" width="3.9" height="16" fill="#ACD4F7"/>
				
			
			
				<rect x="51.7" y="742.2" width="3.9" height="13" fill="#ACD4F7"/>
			
			
				<rect x="44.9" y="748.7" width="3.9" height="6.5" fill="#ACD4F7"/>
			
		
		
			
				<path d="m41.5 761.6h31.5c0.1 0 0.2-0.1 0.2-0.2s-0.1-0.2-0.2-0.2h-31.5c-0.1 0-0.2 0.1-0.2 0.2s0.1 0.2 0.2 0.2z"/>
			
		
		
			
				<path d="m41.5 765.9h31.5c0.1 0 0.2-0.1 0.2-0.2s-0.1-0.2-0.2-0.2h-31.5c-0.1 0-0.2 0.1-0.2 0.2s0.1 0.2 0.2 0.2z"/>
			
		
		
			
				<path d="m56.3 774.6h16.7c0.1 0 0.2-0.1 0.2-0.2s-0.1-0.2-0.2-0.2h-16.7c-0.1 0-0.2 0.1-0.2 0.2s0.1 0.2 0.2 0.2z"/>
			
		
		
			
				<path d="m41.5 770.3h31.5c0.1 0 0.2-0.1 0.2-0.2s-0.1-0.2-0.2-0.2h-31.5c-0.1 0-0.2 0.1-0.2 0.2s0.1 0.2 0.2 0.2z"/>
			
		
		
			<rect transform="matrix(-1 -4.4649e-11 4.4649e-11 -1 154.34 1508.5)" x="74.8" y="726.9" width="4.7" height="54.8" fill="#A0A0A0" opacity=".2"/>
		
			<rect transform="matrix(-1 -4.4803e-11 4.4803e-11 -1 215.62 1375)" x="80" y="668.6" width="55.6" height="37.8" fill="#F2F0E8"/>
		
			
				<path d="m79 706.7v-38.3c0-0.3 0.2-0.5 0.5-0.5h55.6c0.3 0 0.5 0.2 0.5 0.5v38.3c0 0.3-0.2 0.5-0.5 0.5h-55.6c-0.3 0-0.5-0.2-0.5-0.5zm55.6-37.9h-54.6v37.3h54.6v-37.3z"/>
			
		
		
			
				<path d="m89.4 676.2h45.4c0.1 0 0.2-0.1 0.2-0.2s-0.1-0.2-0.2-0.2h-45.4c-0.1 0-0.2 0.1-0.2 0.2s0 0.2 0.2 0.2z"/>
			
		
		
			
				<path d="m128.8 672.8c0.3 0 0.6-0.3 0.6-0.6s-0.3-0.6-0.6-0.6-0.6 0.3-0.6 0.6 0.3 0.6 0.6 0.6z"/>
			
		
		
			
				<path d="m132.6 672.8c0.3 0 0.6-0.3 0.6-0.6s-0.3-0.6-0.6-0.6-0.6 0.3-0.6 0.6 0.2 0.6 0.6 0.6z"/>
			
		
		
			
				<path d="m125 672.8c0.3 0 0.6-0.3 0.6-0.6s-0.3-0.6-0.6-0.6-0.6 0.3-0.6 0.6 0.3 0.6 0.6 0.6z"/>
			
		
		
			<rect transform="matrix(-1 -4.4993e-11 4.4993e-11 -1 213.38 1344.3)" x="79" y="668.7" width="55.4" height="7" fill="#A0A0A0" opacity=".2"/>
		
			<rect transform="matrix(-1 -4.3741e-11 4.3741e-11 -1 267.08 1374.5)" x="132" y="667.8" width="3.2" height="38.8" fill="#A0A0A0" opacity=".2"/>
		<path d="m97.6 692.5 0.1 1c0.1 0.6 0.6 1 1.2 1l0.7-0.1c0.3 0.9 0.7 1.8 1.3 2.6l-0.1 0.1-0.5 0.9c-0.3 0.5-0.2 1.2 0.3 1.5l0.9 0.5c0.5 0.3 1.2 0.2 1.5-0.3l0.3-0.5c1 0.6 2.1 1.1 3.3 1.2l0.1 0.9c0.1 0.6 0.6 1 1.2 1l1-0.1c0.6-0.1 1-0.6 1-1.2l-0.1-0.7c1.2-0.3 2.2-0.8 3.2-1.4l0.6 0.5c0.4 0.4 1.1 0.4 1.5-0.1l0.7-0.8c0.4-0.4 0.4-1.1-0.1-1.5l-0.5-0.5c0.7-1.1 1.2-2.4 1.3-3.7l0.7-0.1c0.6-0.1 1-0.6 1-1.2l-0.1-1c-0.1-0.6-0.6-1-1.2-1l-0.6 0.1c-0.4-1.3-1-2.6-1.9-3.6l0.4-0.6c0.3-0.5 0.2-1.2-0.3-1.5l-0.9-0.5c-0.5-0.3-1.2-0.2-1.5 0.3l-0.2 0.3c-1.1-0.6-2.3-0.9-3.6-0.9l-0.1-0.6c-0.1-0.6-0.6-1-1.2-1l-1 0.1c-0.6 0.1-1 0.6-1 1.2l0.1 0.8c-1 0.4-1.9 0.9-2.7 1.6l-0.1-0.1-0.9-0.5c-0.5-0.3-1.2-0.2-1.5 0.3l-0.5 0.9c-0.3 0.5-0.2 1.2 0.3 1.5l0.7 0.4c-0.6 1.1-0.9 2.3-1 3.5l-0.6 0.1c-0.8 0.1-1.2 0.6-1.2 1.2zm6.9-0.2c-0.2-1.8 1.2-3.5 3-3.6 1.8-0.2 3.5 1.2 3.6 3 0.2 1.8-1.2 3.5-3 3.6s-3.4-1.2-3.6-3z" fill="#ACD4F7"/>
		
			
				
					<rect transform="matrix(-1 -4.4967e-11 4.4967e-11 -1 670.27 64.179)" x="307.3" y="13.2" width="55.6" height="37.8" fill="#F2F0E8"/>
				
					
						<path d="m306.3 51.5v-38.3c0-0.3 0.2-0.5 0.5-0.5h55.6c0.3 0 0.5 0.2 0.5 0.5v38.3c0 0.3-0.2 0.5-0.5 0.5h-55.6c-0.3 0-0.5-0.2-0.5-0.5zm55.6-37.8h-54.6v37.3h54.6v-37.3z"/>
					
				
				
					
						<path d="m316.7 21h45.4c0.1 0 0.2-0.1 0.2-0.2s-0.1-0.2-0.2-0.2h-45.4c-0.1 0-0.2 0.1-0.2 0.2-0.1 0.1 0.1 0.2 0.2 0.2z"/>
					
				
				
					
						<path d="m356.1 17.6c0.3 0 0.6-0.3 0.6-0.6s-0.3-0.6-0.6-0.6-0.6 0.3-0.6 0.6 0.3 0.6 0.6 0.6z"/>
					
				
				
					
						<path d="m359.9 17.6c0.3 0 0.6-0.3 0.6-0.6s-0.3-0.6-0.6-0.6-0.6 0.3-0.6 0.6 0.3 0.6 0.6 0.6z"/>
					
				
				
					
						<path d="m352.3 17.6c0.3 0 0.6-0.3 0.6-0.6s-0.3-0.6-0.6-0.6-0.6 0.3-0.6 0.6 0.3 0.6 0.6 0.6z"/>
					
				
				
					<rect transform="matrix(-1 -4.4994e-11 4.4994e-11 -1 668.04 33.999)" x="306.3" y="13.5" width="55.4" height="7" fill="#A0A0A0" opacity=".2"/>
				
					<rect transform="matrix(-1 -4.3741e-11 4.3741e-11 -1 721.73 64.179)" x="359.3" y="12.7" width="3.2" height="38.8" fill="#A0A0A0" opacity=".2"/>
			
			<path d="m336.7 35c0 1.7 1.4 3.1 3.1 3.1s3.1-1.4 3.1-3.1-1.4-3.1-3.1-3.1-3.1 1.4-3.1 3.1z" fill="#ACD4F7"/>
			<path d="m326.4 28.8c0 1.7 1.4 3.1 3.1 3.1s3.1-1.4 3.1-3.1-1.4-3.1-3.1-3.1c-1.7-0.1-3.1 1.3-3.1 3.1z" fill="#ACD4F7"/>
			<path d="m326.4 41.2c0 1.7 1.4 3.1 3.1 3.1s3.1-1.4 3.1-3.1-1.4-3.1-3.1-3.1-3.1 1.4-3.1 3.1z" fill="#ACD4F7"/>
			<polyline points="330.5 28.8 339.8 35 330.5 41.2" fill="none" stroke="#ACD4F7" stroke-miterlimit="10" stroke-width=".5"/>
		
		
			<polygon points="56.6 260.9 75.6 248.2 56.6 235.5 56.3 235.9 74.7 248.2 56.3 260.5"/>
		
		<path d="m68.9 248.2c0 3.4 2.8 6.2 6.2 6.2s6.2-2.8 6.2-6.2-2.8-6.2-6.2-6.2c-3.4-0.1-6.2 2.7-6.2 6.2z" fill="#7ACBF5"/>
		<path d="m50.2 235.7c0 3.4 2.8 6.2 6.2 6.2s6.2-2.8 6.2-6.2-2.8-6.2-6.2-6.2-6.2 2.8-6.2 6.2z" fill="#7ACBF5"/>
		<path d="m50.2 260.7c0 3.4 2.8 6.2 6.2 6.2s6.2-2.8 6.2-6.2-2.8-6.2-6.2-6.2-6.2 2.7-6.2 6.2z" fill="#7ACBF5"/>
		
			<path d="m68.4 248.2c0-3.7 3-6.7 6.7-6.7s6.7 3 6.7 6.7-3 6.7-6.7 6.7-6.7-3-6.7-6.7zm1 0c0 3.2 2.6 5.7 5.7 5.7 3.2 0 5.7-2.6 5.7-5.7 0-3.2-2.6-5.7-5.7-5.7-3.1-0.1-5.7 2.5-5.7 5.7z"/>
		
		
			<path d="m49.7 235.7c0-3.7 3-6.7 6.7-6.7s6.7 3 6.7 6.7-3 6.7-6.7 6.7-6.7-3-6.7-6.7zm1 0c0 3.2 2.6 5.7 5.7 5.7 3.2 0 5.7-2.6 5.7-5.7 0-3.2-2.6-5.7-5.7-5.7s-5.7 2.5-5.7 5.7z"/>
		
		
			<path d="m49.7 260.7c0-3.7 3-6.7 6.7-6.7s6.7 3 6.7 6.7-3 6.7-6.7 6.7-6.7-3-6.7-6.7zm1 0c0 3.2 2.6 5.7 5.7 5.7 3.2 0 5.7-2.6 5.7-5.7 0-3.2-2.6-5.7-5.7-5.7-3.1-0.1-5.7 2.5-5.7 5.7z"/>
		
		
			<polygon points="162.1 404.1 181.1 391.4 162.1 378.7 161.8 379.2 180.2 391.4 161.8 403.7"/>
		
		<path d="m174.4 391.4c0 3.4 2.8 6.2 6.2 6.2s6.2-2.8 6.2-6.2-2.8-6.2-6.2-6.2-6.2 2.8-6.2 6.2z" fill="#ACD4F7"/>
		<path d="m155.7 378.9c0 3.4 2.8 6.2 6.2 6.2s6.2-2.8 6.2-6.2-2.8-6.2-6.2-6.2-6.2 2.8-6.2 6.2z" fill="#ACD4F7"/>
		<path d="m155.7 403.9c0 3.4 2.8 6.2 6.2 6.2s6.2-2.8 6.2-6.2-2.8-6.2-6.2-6.2-6.2 2.8-6.2 6.2z" fill="#ACD4F7"/>
		
			<path d="m173.9 391.4c0-3.7 3-6.7 6.7-6.7s6.7 3 6.7 6.7-3 6.7-6.7 6.7c-3.7 0.1-6.7-3-6.7-6.7zm1 0c0 3.2 2.6 5.7 5.7 5.7 3.2 0 5.7-2.6 5.7-5.7 0-3.2-2.6-5.7-5.7-5.7s-5.7 2.6-5.7 5.7z"/>
		
		
			<path d="m155.2 378.9c0-3.7 3-6.7 6.7-6.7s6.7 3 6.7 6.7-3 6.7-6.7 6.7c-3.7 0.1-6.7-2.9-6.7-6.7zm1 0c0 3.2 2.6 5.7 5.7 5.7 3.2 0 5.7-2.6 5.7-5.7 0-3.2-2.6-5.7-5.7-5.7s-5.7 2.6-5.7 5.7z"/>
		
		
			<path d="m155.2 403.9c0-3.7 3-6.7 6.7-6.7s6.7 3 6.7 6.7-3 6.7-6.7 6.7-6.7-3-6.7-6.7zm1 0c0 3.2 2.6 5.7 5.7 5.7 3.2 0 5.7-2.6 5.7-5.7 0-3.2-2.6-5.7-5.7-5.7s-5.7 2.5-5.7 5.7z"/>
		
		<g opacity=".2">
			
				
					<rect transform="matrix(.6652 -.7466 .7466 .6652 -306.33 479.83)" x="369.2" y="578.2" width="25.6" height="6.7" fill="#A0A0A0"/>
			
		</g>
		
			
				<path d="m388.8 556.3c-0.8 4.3 0.8 9 4.3 12.1 5.5 4.9 14 4.4 19-1.1 4.9-5.5 4.4-14-1.1-19-5.5-4.9-14-4.4-19 1.1 0 0.1-2.3 1.6-3.2 6.9z" fill="#6AB3D9"/>
			
		
		
			
				<rect transform="matrix(.6652 -.7466 .7466 .6652 -306.72 481.72)" x="371.1" y="579.6" width="25.6" height="6.7" fill="#F2F0E8"/>
		
		
			<path d="m391.1 557.1c-0.8 4.3 0.8 9 4.3 12.1 5.5 4.9 14 4.4 19-1.1s4.4-14-1.1-19c-5.5-4.9-14-4.4-19 1.1 0.1 0-2.2 1.5-3.2 6.9z" fill="#7ACBF5"/>
		
		<g opacity=".2">
			
				<path d="m409.5 546.8c-0.5-0.1 14.8 11.9-2 25.2 0 0 8.3 0.5 10.9-12.6 0-4.6-2.9-11.5-8.9-12.6z" fill="#A0A0A0"/>
			
		</g>
		<g opacity=".25">
			
				<path d="m405 545.7 1.2 26.8s-3.3 1.3-5.1-0.5v-25.9l3.9-0.4z" fill="#F4F4F4"/>
			
		</g>
		
			<path d="m405 573.1c3.8 0 7.7-1.6 10.4-4.7 2.5-2.8 3.7-6.4 3.5-10.1s-1.9-7.1-4.6-9.6c-5.7-5.1-14.6-4.6-19.7 1.1-0.2 0.2-0.2 0.5 0 0.7s0.5 0.2 0.7 0c4.7-5.3 12.9-5.8 18.3-1.1 5.3 4.7 5.8 12.9 1.1 18.3-4.7 5.3-12.9 5.8-18.3 1.1-3.3-2.9-4.9-7.3-4.2-11.7 0-0.3-0.1-0.5-0.4-0.6-0.3 0-0.5 0.1-0.6 0.4-0.7 4.7 0.9 9.4 4.5 12.6 2.7 2.4 6 3.6 9.3 3.6z"/>
		
		
			<path d="m392.3 573.9c0.1 0 0.3-0.1 0.4-0.2l3.7-4.2c0.2-0.2 0.2-0.5 0-0.7s-0.5-0.2-0.7 0l-3.7 4.2c-0.2 0.2-0.2 0.5 0 0.7 0.1 0.1 0.2 0.2 0.3 0.2z"/>
		
		
			<path d="m377.5 595-5-4.4c-0.2-0.2-0.2-0.5 0-0.7l17-19.1c0.2-0.2 0.5-0.2 0.7 0l5 4.4c0.1 0.1 0.2 0.2 0.2 0.3s0 0.3-0.1 0.4l-17 19.1c-0.1 0.1-0.2 0.2-0.3 0.2-0.3 0-0.4-0.1-0.5-0.2zm12.4-23.1-16.3 18.3 4.2 3.8 16.3-18.3-4.2-3.8z"/>
		
		<g opacity=".2">
			
				
					<rect transform="matrix(.6652 -.7466 .7466 .6652 -448.77 371.35)" x="177" y="682.8" width="25.6" height="6.7" fill="#A0A0A0"/>
			
		</g>
		
			
				<path d="m196.6 660.9c-0.8 4.3 0.8 9 4.3 12.1 5.5 4.9 14 4.4 19-1.1 4.9-5.5 4.4-14-1.1-19-5.5-4.9-14-4.4-19 1.1 0 0.1-2.3 1.6-3.2 6.9z" fill="#6AB3D9"/>
			
		
		
			
				<rect transform="matrix(.6652 -.7466 .7466 .6652 -449.16 373.23)" x="178.9" y="684.2" width="25.6" height="6.7" fill="#F2F0E8"/>
		
		
			<path d="m198.9 661.7c-0.8 4.3 0.8 9 4.3 12.1 5.5 4.9 14 4.4 19-1.1 4.9-5.5 4.4-14-1.1-19-5.5-4.9-14-4.4-19 1.1 0.1 0-2.2 1.5-3.2 6.9z" fill="#7ACBF5"/>
		
		<g opacity=".2">
			
				<path d="m217.3 651.5c-0.5-0.1 14.8 11.9-2 25.2 0 0 8.3 0.5 10.9-12.6 0-4.7-2.9-11.6-8.9-12.6z" fill="#A0A0A0"/>
			
		</g>
		<g opacity=".25">
			
				<path d="m212.8 650.3 1.2 26.8s-3.3 1.3-5.1-0.5v-25.9l3.9-0.4z" fill="#F4F4F4"/>
			
		</g>
		
			<path d="m212.8 677.7c3.8 0 7.7-1.6 10.4-4.7 2.5-2.8 3.7-6.4 3.5-10.1s-1.9-7.1-4.6-9.6c-5.7-5.1-14.6-4.6-19.7 1.1-0.2 0.2-0.2 0.5 0 0.7s0.5 0.2 0.7 0c4.7-5.3 12.9-5.8 18.3-1.1 5.3 4.7 5.8 12.9 1.1 18.3-4.7 5.3-12.9 5.8-18.3 1.1-3.3-2.9-4.9-7.3-4.2-11.7 0-0.3-0.1-0.5-0.4-0.6-0.3 0-0.5 0.1-0.6 0.4-0.7 4.7 0.9 9.4 4.5 12.6 2.7 2.4 6 3.6 9.3 3.6z"/>
		
		
			<path d="m200.1 678.5c0.1 0 0.3-0.1 0.4-0.2l3.7-4.2c0.2-0.2 0.2-0.5 0-0.7s-0.5-0.2-0.7 0l-3.7 4.2c-0.2 0.2-0.2 0.5 0 0.7 0.1 0.1 0.2 0.2 0.3 0.2z"/>
		
		
			<path d="m185.3 699.6-5-4.4c-0.2-0.2-0.2-0.5 0-0.7l17-19.1c0.2-0.2 0.5-0.2 0.7 0l5 4.4c0.1 0.1 0.2 0.2 0.2 0.3s0 0.3-0.1 0.4l-17 19.1c-0.1 0.1-0.2 0.2-0.3 0.2-0.3 0-0.4-0.1-0.5-0.2zm12.4-23.1-16.3 18.3 4.2 3.8 16.3-18.3-4.2-3.8z"/>
		
		<g opacity=".2">
			
				
					<rect transform="matrix(.6652 -.7466 .7466 .6652 19.451 272.97)" x="301.4" y="111.5" width="25.6" height="6.7" fill="#A0A0A0"/>
			
		</g>
		
			
				<path d="m321 89.6c-0.8 4.3 0.8 9 4.3 12.1 5.5 4.9 14 4.4 19-1.1 4.9-5.5 4.4-14-1.1-19-5.5-4.9-14-4.4-19 1.1 0 0-2.3 1.5-3.2 6.9z" fill="#6AB3D9"/>
			
		
		
			
				<rect transform="matrix(.6652 -.7466 .7466 .6652 19.06 274.86)" x="303.3" y="112.8" width="25.6" height="6.7" fill="#F2F0E8"/>
		
		
			<path d="m323.4 90.3c-0.8 4.3 0.8 9 4.3 12.1 5.5 4.9 14 4.4 19-1.1 4.9-5.5 4.4-14-1.1-19-5.5-4.9-14-4.4-19 1.1 0 0.1-2.3 1.6-3.2 6.9z" fill="#7ACBF5"/>
		
		<g opacity=".2">
			
				<path d="m341.7 80.1c-0.5-0.1 14.8 11.9-2 25.2 0 0 8.3 0.5 10.9-12.6 0.1-4.6-2.9-11.5-8.9-12.6z" fill="#A0A0A0"/>
			
		</g>
		<g opacity=".25">
			
				<path d="m337.2 79 1.2 26.8s-3.3 1.3-5.1-0.5v-25.9l3.9-0.4z" fill="#F4F4F4"/>
			
		</g>
		
			<path d="m337.2 106.4c3.8 0 7.7-1.6 10.4-4.7 2.5-2.8 3.7-6.4 3.5-10.1s-1.9-7.1-4.6-9.6c-5.7-5.1-14.6-4.6-19.7 1.1-0.2 0.2-0.2 0.5 0 0.7s0.5 0.2 0.7 0c4.7-5.3 12.9-5.8 18.3-1.1 5.3 4.7 5.8 12.9 1.1 18.3-4.7 5.3-12.9 5.8-18.3 1.1-3.3-2.9-4.9-7.3-4.2-11.7 0-0.3-0.1-0.5-0.4-0.6-0.3 0-0.5 0.1-0.6 0.4-0.7 4.7 0.9 9.4 4.5 12.6 2.7 2.4 6 3.6 9.3 3.6z"/>
		
		
			<path d="m324.5 107.1c0.1 0 0.3-0.1 0.4-0.2l3.7-4.2c0.2-0.2 0.2-0.5 0-0.7s-0.5-0.2-0.7 0l-3.7 4.2c-0.2 0.2-0.2 0.5 0 0.7 0.1 0.2 0.2 0.2 0.3 0.2z"/>
		
		
			<path d="m309.7 128.3-5-4.4c-0.2-0.2-0.2-0.5 0-0.7l17-19.1c0.2-0.2 0.5-0.2 0.7 0l5 4.4c0.1 0.1 0.2 0.2 0.2 0.3s0 0.3-0.1 0.4l-17 19.1c-0.1 0.1-0.2 0.2-0.3 0.2-0.3-0.1-0.4-0.1-0.5-0.2zm12.4-23.2-16.3 18.3 4.2 3.8 16.3-18.3-4.2-3.8z"/>
		
		<polyline points="347.8 248.2 339.6 253.5 337.3 255 337.3 283.1 394.1 283.1 394.1 255 366.3 236.1 356 242.9" fill="#ACD4F7"/>
		
			
				<path d="m337.3 283.6h56.8c0.3 0 0.5-0.2 0.5-0.5v-28c0-0.2-0.1-0.3-0.2-0.4l-27.7-18.9c-0.2-0.1-0.4-0.1-0.6 0l-10.3 6.7c-0.2 0.2-0.3 0.5-0.1 0.7s0.5 0.3 0.7 0.1l10-6.5 27.2 18.5v27.3h-55.8v-27.3l10.2-6.7c0.2-0.2 0.3-0.5 0.1-0.7s-0.5-0.3-0.7-0.1l-10.5 6.8c-0.1 0.1-0.2 0.2-0.2 0.4v28c0.1 0.3 0.3 0.6 0.6 0.6z"/>
			
		
		
			<polygon points="355.7 263.6 337 283.2 337 255.2" fill="#F2F0E8"/>
			<polygon points="375.9 263.6 393.8 255.2 393.8 283.2" fill="#F2F0E8"/>
			<polygon points="355.8 263.6 375.9 263.6 393.8 283.2 337.1 283.2" fill="#F2F0E8"/>
			
				
					
						<path d="m337 283.4c-0.1 0-0.2-0.1-0.2-0.2v-28c0-0.1 0-0.2 0.1-0.2s0.2-0.1 0.2 0l18.7 8.5c0.1 0 0.1 0.1 0.1 0.2s0 0.2-0.1 0.2l-18.7 19.6c0.1-0.1 0.1-0.1-0.1-0.1 0.1 0 0 0 0 0zm0.3-27.9v27l18-18.9-18-8.1z"/>
					
				
				
					
						<path d="m393.7 283.4-17.9-19.6c-0.1-0.1-0.1-0.1-0.1-0.2s0.1-0.1 0.1-0.2l17.9-8.5h0.2c0.1 0 0.1 0.1 0.1 0.2v28c0 0.1-0.1 0.2-0.2 0.2h-0.1c0.1 0.1 0 0.1 0 0.1zm-17.4-19.7 17.3 18.9v-27l-17.3 8.1z"/>
					
				
				
					
						<path d="m336.9 283.3v-0.3l18.7-19.6s0.1-0.1 0.2-0.1h20.1c0.1 0 0.1 0 0.2 0.1l17.9 19.6c0.1 0.1 0.1 0.2 0 0.3 0 0.1-0.1 0.1-0.2 0.1h-56.8s-0.1 0-0.1-0.1zm38.9-19.4h-19.9l-18.2 19.1h55.6l-17.5-19.1z"/>
					
				
			
		
		<polygon points="387.5 282.6 394.1 283.2 394.1 255.2 387.5 250" fill="#A0A0A0" opacity=".2"/>
		<path d="m59.3 458.7c-4.1-2.1-7-6.3-7-11.3 0-6.9 5.7-12.5 12.6-12.5s12.5 5.7 12.5 12.6c0 4.9-2.9 9.2-7.1 11.2 6 2.3 10.2 8.1 10.2 14.8v10.8l-31.6-0.1v-10.8c0.1-6.7 4.4-12.5 10.4-14.7z" fill="#ACD4F7"/>
		
			<path d="m48.9 483.7h5.7c0.3 0 0.5-0.2 0.5-0.5s-0.2-0.5-0.5-0.5h-5.2v-10.3c0-6.3 4.1-12.1 10-14.3 0.2-0.1 0.3-0.2 0.3-0.4s-0.1-0.4-0.3-0.5c-4.1-2.1-6.7-6.2-6.7-10.8 0-6.6 5.4-12 12.1-12 6.6 0 12 5.4 12 12.1 0 4.6-2.6 8.7-6.8 10.7-0.2 0.1-0.3 0.3-0.3 0.5s0.1 0.4 0.3 0.4c5.9 2.3 9.9 8 9.9 14.4v10.3l-18.3-0.1c-0.3 0-0.5 0.2-0.5 0.5s0.2 0.5 0.5 0.5l18.8 0.1c0.3 0 0.5-0.2 0.5-0.5v-10.8c0-6.4-3.8-12.3-9.5-14.9 3.9-2.3 6.4-6.5 6.4-11.1 0-7.2-5.8-13-13-13.1-7.2 0-13 5.8-13.1 13 0 4.6 2.4 8.8 6.3 11.2-5.8 2.6-9.7 8.4-9.7 14.8v10.8c0.1 0.3 0.4 0.5 0.6 0.5z"/>
		
		<polygon points="49.6 152.7 42.3 167.5 25.9 169.9 37.8 181.4 35 197.7 49.6 190 64.2 197.7 61.4 181.4 73.3 169.9 56.9 167.5" fill="#ACD4F7"/>
		<path d="m49.8 192.8s-2.5 1.5-3.5-0.3l5.1-3.1-1.6 3.4z" fill="#EFBE70"/>
		<polygon points="53.6 152.9 46.3 167.7 29.9 170.1 41.7 181.7 38.9 197.9 53.6 190.3 68.2 197.9 65.4 181.7 77.2 170.1 60.9 167.7" fill="#ACD4F7"/>
		<path d="m38.6 198.5c-0.2-0.1-0.2-0.3-0.2-0.5l2.8-16-11.6-11.4c-0.1-0.1-0.2-0.3-0.1-0.5s0.2-0.3 0.4-0.3l16.1-2.3 7.2-14.6c0.2-0.3 0.7-0.3 0.9 0l7.2 14.6 16.1 2.3c0.2 0 0.3 0.2 0.4 0.3 0.1 0.2 0 0.4-0.1 0.5l-11.8 11.4 2.8 16c0 0.2 0 0.4-0.2 0.5s-0.4 0.1-0.5 0l-14.4-7.5-14.4 7.6c-0.1 0-0.2 0.1-0.2 0.1-0.2-0.1-0.3-0.1-0.4-0.2zm22.2-30.1c-0.2 0-0.3-0.1-0.4-0.3l-6.9-13.9-6.9 13.9c-0.1 0.1-0.2 0.2-0.4 0.3l-15.2 2.2 11.1 10.8c0.1 0.1 0.2 0.3 0.1 0.4l-2.6 15.3 13.7-7.2c0.1-0.1 0.3-0.1 0.5 0l13.7 7.2-2.6-15.3c0-0.2 0-0.3 0.1-0.4l11.1-10.8-15.3-2.2z"/>
		<polygon points="405.6 38.7 398.3 53.5 381.9 55.9 393.8 67.4 391 83.7 405.6 76 420.2 83.7 417.4 67.4 429.3 55.9 412.9 53.5" fill="#ACD4F7"/>
		<path d="m405.8 78.8s-2.5 1.5-3.5-0.3l5.1-3.1-1.6 3.4z" fill="#EFBE70"/>
		<polygon points="409.6 38.9 402.3 53.7 385.9 56.1 397.7 67.7 394.9 83.9 409.6 76.3 424.2 83.9 421.4 67.7 433.2 56.1 416.9 53.7" fill="#ACD4F7"/>
		
			<path d="m394.6 84.5c-0.2-0.1-0.2-0.3-0.2-0.5l2.8-16-11.6-11.4c-0.1-0.1-0.2-0.3-0.1-0.5s0.2-0.3 0.4-0.3l16.1-2.3 7.2-14.6c0.2-0.3 0.7-0.3 0.9 0l7.2 14.6 16.1 2.3c0.2 0 0.3 0.2 0.4 0.3 0.1 0.2 0 0.4-0.1 0.5l-11.8 11.4 2.8 16c0 0.2 0 0.4-0.2 0.5s-0.4 0.1-0.5 0l-14.4-7.5-14.4 7.6c-0.1 0-0.2 0.1-0.2 0.1-0.2-0.1-0.3-0.1-0.4-0.2zm22.2-30.1c-0.2 0-0.3-0.1-0.4-0.3l-6.9-13.9-6.9 13.9c-0.1 0.1-0.2 0.2-0.4 0.3l-15.2 2.2 11.1 10.8c0.1 0.1 0.2 0.3 0.1 0.4l-2.6 15.3 13.7-7.2c0.1-0.1 0.3-0.1 0.5 0l13.7 7.2-2.6-15.3c0-0.2 0-0.3 0.1-0.4l11.1-10.8-15.3-2.2z"/>
		
		<path d="m286.2 379.4s0.5-7.5 7.5-8.2c4.8-0.5 9.3-0.4 11.4-0.4h2.2c2.7-0.1 10.6 0.4 11 8.8 0.4 9.6-2.4 13.6-11.7 13.7-0.9 0-1.8 0.5-2.3 1.3-0.9 1.4-2.6 3.4-5.1 3.4 0 0 3.5-4.7 0-4.7s-11.3-0.8-12.5-4.3c-1.2-3.7-0.5-9.6-0.5-9.6z" fill="#6AB3D9"/>
		
			<path d="m299.3 397.7c-0.1-0.2-0.1-0.4 0-0.5 0.8-1 1.7-2.8 1.4-3.5-0.1-0.2-0.5-0.4-1-0.4s-11.4-0.1-13-4.6c-1.3-3.7-0.7-9.4-0.6-9.8 0-0.4 0.8-7.9 8-8.7 4.8-0.5 9.3-0.4 11.5-0.4h2.2c2.6 0 11.1 0.4 11.5 9.2 0.2 5.5-0.6 9-2.7 11.2-1.9 2-4.9 3-9.5 3-0.8 0-1.5 0.4-1.9 1-0.9 1.3-2.7 3.6-5.6 3.6 0 0.1-0.2 0-0.3-0.1zm8.6-26.9h-2.2c-2.2-0.1-6.7-0.2-11.4 0.4-6.5 0.7-7.1 7.5-7.1 7.8 0 0.1-0.6 5.8 0.6 9.3 1 2.9 7.7 4 12 4 0.9 0 1.6 0.3 1.9 0.9 0.5 1-0.2 2.6-0.9 3.6 1.7-0.4 2.9-1.8 3.7-3 0.6-0.9 1.6-1.5 2.7-1.5 4.2 0 7-0.9 8.8-2.7 1.9-2 2.6-5.2 2.4-10.4-0.3-7.4-6.8-8.3-10-8.3-0.2-0.1-0.4-0.1-0.5-0.1z"/>
		
		<path d="m391.6 707.2s0.5-7.5 7.5-8.2c4.8-0.5 9.3-0.4 11.4-0.4h2.2c2.7-0.1 10.6 0.4 11 8.8 0.4 9.6-2.4 13.6-11.7 13.7-0.9 0-1.8 0.5-2.3 1.3-0.9 1.4-2.6 3.4-5.1 3.4 0 0 3.5-4.7 0-4.7s-11.3-0.8-12.5-4.3c-1.1-3.7-0.5-9.6-0.5-9.6z" fill="#ACD4F7"/>
		
			<path d="m404.3 725.9c-0.1-0.2-0.1-0.4 0-0.5 0.8-1 1.7-2.8 1.4-3.5-0.1-0.2-0.5-0.4-1-0.4s-11.4-0.1-13-4.6c-1.3-3.7-0.7-9.4-0.6-9.8 0-0.4 0.8-7.9 8-8.7 4.8-0.5 9.3-0.4 11.5-0.4h2.2c2.6 0 11.1 0.4 11.5 9.2 0.2 5.5-0.6 9-2.7 11.2-1.9 2-4.9 3-9.5 3-0.8 0-1.5 0.4-1.9 1-0.9 1.3-2.7 3.6-5.6 3.6-0.1 0.2-0.3 0.1-0.3-0.1zm8.5-26.8h-2.2c-2.2-0.1-6.7-0.2-11.4 0.4-6.5 0.7-7.1 7.5-7.1 7.8 0 0.1-0.6 5.8 0.6 9.3 1 2.9 7.7 4 12 4 0.9 0 1.6 0.3 1.9 0.9 0.5 1-0.2 2.6-0.9 3.6 1.7-0.4 2.9-1.8 3.7-3 0.6-0.9 1.6-1.5 2.7-1.5 4.2 0 7-0.9 8.8-2.7 1.9-2 2.6-5.2 2.4-10.4-0.3-7.4-6.8-8.3-10-8.3-0.2-0.1-0.3-0.1-0.5-0.1z"/>
		
		<path d="m166.5 587.2s0.5-7.5 7.5-8.2c4.8-0.5 9.3-0.4 11.4-0.4h2.2c2.7-0.1 10.6 0.4 11 8.8 0.4 9.6-2.4 13.6-11.7 13.7-0.9 0-1.8 0.5-2.3 1.3-0.9 1.4-2.6 3.4-5.1 3.4 0 0 3.5-4.7 0-4.7s-11.3-0.8-12.5-4.3c-1.1-3.7-0.5-9.6-0.5-9.6z" fill="#ACD4F7"/>
		<path d="m179.2 606c-0.1-0.2-0.1-0.4 0-0.5 0.8-1 1.7-2.8 1.4-3.5-0.1-0.2-0.5-0.4-1-0.4s-11.4-0.1-13-4.6c-1.3-3.7-0.7-9.4-0.6-9.8 0-0.4 0.8-7.9 8-8.7 4.8-0.5 9.3-0.4 11.5-0.4h2.2c2.6 0 11.1 0.4 11.5 9.2 0.2 5.5-0.6 9-2.7 11.2-1.9 2-4.9 3-9.5 3-0.8 0-1.5 0.4-1.9 1-0.9 1.3-2.7 3.6-5.6 3.6-0.1 0.2-0.3 0-0.3-0.1zm8.5-26.8h-2.2c-2.2-0.1-6.7-0.2-11.4 0.4-6.5 0.7-7.1 7.5-7.1 7.8 0 0.1-0.6 5.8 0.6 9.3 1 2.9 7.7 4 12 4 0.9 0 1.6 0.3 1.9 0.9 0.5 1-0.2 2.6-0.9 3.6 1.7-0.4 2.9-1.8 3.7-3 0.6-0.9 1.6-1.5 2.7-1.5 4.2 0 7-0.9 8.8-2.7 1.9-2 2.6-5.2 2.4-10.4-0.3-7.4-6.8-8.3-10-8.3-0.2-0.2-0.3-0.2-0.5-0.1z"/>
		<path d="m341.5 659.1c-4.1-2-7-6.3-7-11.2 0-6.9 5.6-12.5 12.5-12.5s12.5 5.6 12.5 12.5c0 4.9-2.9 9.2-7 11.2 6 2.2 10.3 8 10.3 14.8v10.8h-31.6v-10.8c0-6.8 4.3-12.6 10.3-14.8z" fill="#ACD4F7"/>
		
			<path d="m331.2 685.2h5.7c0.3 0 0.5-0.2 0.5-0.5s-0.2-0.5-0.5-0.5h-5.2v-10.3c0-6.3 4-12.1 10-14.3 0.2-0.1 0.3-0.2 0.3-0.4s-0.1-0.4-0.3-0.5c-4.1-2-6.7-6.2-6.7-10.8 0-6.6 5.4-12 12-12s12 5.4 12 12c0 4.6-2.6 8.7-6.7 10.8-0.2 0.1-0.3 0.3-0.3 0.5s0.1 0.4 0.3 0.4c6 2.2 10 8 10 14.3v10.3h-18.3c-0.3 0-0.5 0.2-0.5 0.5s0.2 0.5 0.5 0.5h18.8c0.3 0 0.5-0.2 0.5-0.5v-10.8c0-6.4-3.8-12.2-9.6-14.8 3.9-2.3 6.3-6.5 6.3-11.2 0-7.2-5.8-13-13-13s-13 5.8-13 13c0 4.6 2.4 8.8 6.3 11.2-5.8 2.6-9.6 8.4-9.6 14.8v10.8c0 0.2 0.3 0.5 0.5 0.5z"/>
		
		<path d="m369.7 647.7c-4.1-2-7-6.3-7-11.2 0-6.9 5.6-12.5 12.5-12.5s12.5 5.6 12.5 12.5c0 4.9-2.9 9.2-7 11.2 6 2.2 10.3 8 10.3 14.8v10.8h-31.6v-10.8c0-6.8 4.3-12.6 10.3-14.8z" fill="#ACD4F7"/>
		
			<path d="m359.4 673.7h5.7c0.3 0 0.5-0.2 0.5-0.5s-0.2-0.5-0.5-0.5h-5.2v-10.3c0-6.3 4-12.1 10-14.3 0.2-0.1 0.3-0.2 0.3-0.4s-0.1-0.4-0.3-0.5c-4.1-2-6.7-6.2-6.7-10.8 0-6.6 5.4-12 12-12s12 5.4 12 12c0 4.6-2.6 8.7-6.7 10.8-0.2 0.1-0.3 0.3-0.3 0.5s0.1 0.4 0.3 0.4c6 2.2 10 8 10 14.3v10.3h-18.3c-0.3 0-0.5 0.2-0.5 0.5s0.2 0.5 0.5 0.5h18.8c0.3 0 0.5-0.2 0.5-0.5v-10.8c0-6.4-3.8-12.2-9.6-14.8 3.9-2.3 6.3-6.5 6.3-11.2 0-7.2-5.8-13-13-13s-13 5.8-13 13c0 4.6 2.4 8.8 6.3 11.2-5.8 2.6-9.6 8.4-9.6 14.8v10.8c0 0.3 0.3 0.5 0.5 0.5z"/>
		
		
			
				<path d="m291.4 675c0.9 0.1 1.8 0.1 2.7-0.1 2-0.5 3.8-1.8 5-3.8 2.4-4 1.4-9.2-2.1-11.7l-15.4-10.8c-1.2-0.8-2.7-1.1-4.1-0.8-1.6 0.4-3 1.5-3.8 3-1.6 2.9-0.8 6.7 1.8 8.5l8.7 5.8c0.6 0.4 1.3 0.5 1.9 0.4 0.7-0.2 1.4-0.6 1.8-1.3 0.8-1.3 0.5-3.1-0.6-4l-5.2-4.1c-0.2-0.2-0.5-0.1-0.7 0.1s-0.1 0.5 0.1 0.7l5.2 4.1c0.7 0.6 0.9 1.8 0.4 2.7-0.3 0.5-0.7 0.8-1.1 0.9s-0.8 0-1.1-0.2l-8.7-5.8c-2.2-1.4-2.8-4.6-1.5-7.1 0.7-1.3 1.8-2.2 3.1-2.5 1.2-0.3 2.3 0 3.3 0.6l15.4 10.8c3.1 2.2 3.9 6.8 1.8 10.3-1 1.7-2.6 2.9-4.3 3.3-1.6 0.4-3.2 0.1-4.5-0.8l-10-6.4c-0.2-0.1-0.5-0.1-0.7 0.2-0.1 0.2-0.1 0.5 0.2 0.7l10 6.4c0.6 0.4 1.5 0.7 2.4 0.9z"/>
			
		
		
			
				<path d="m248.9 385.9c0.9 0.1 1.8 0.1 2.7-0.1 2-0.5 3.8-1.8 5-3.8 2.4-4 1.4-9.2-2.1-11.7l-15.4-10.8c-1.2-0.8-2.7-1.1-4.1-0.8-1.6 0.4-3 1.5-3.8 3-1.6 2.9-0.8 6.7 1.8 8.5l8.7 5.8c0.6 0.4 1.3 0.5 1.9 0.4 0.7-0.2 1.4-0.6 1.8-1.3 0.8-1.3 0.5-3.1-0.6-4l-5.2-4.1c-0.2-0.2-0.5-0.1-0.7 0.1s-0.1 0.5 0.1 0.7l5.2 4.1c0.7 0.6 0.9 1.8 0.4 2.7-0.3 0.5-0.7 0.8-1.1 0.9s-0.8 0-1.1-0.2l-8.7-5.8c-2.2-1.4-2.8-4.6-1.5-7.1 0.7-1.3 1.8-2.2 3.1-2.5 1.2-0.3 2.3 0 3.3 0.6l15.4 10.8c3.1 2.2 3.9 6.8 1.8 10.3-1 1.7-2.6 2.9-4.3 3.3-1.6 0.4-3.2 0.1-4.5-0.8l-10-6.4c-0.2-0.1-0.5-0.1-0.7 0.2-0.1 0.2-0.1 0.5 0.2 0.7l10 6.4c0.5 0.4 1.4 0.8 2.4 0.9z"/>
			
		
		
			<path d="m185.3 55.6s4 2.9 1 12.2l-13.1-8.8c5.8-4.9 10.2-5.3 12.1-3.4z" fill="#ACD4F7"/>
			<path d="m173.2 59.1 13.1 8.8c-1.6 5-5.3 12-12.6 21.3 0 0-12 12.3-17 8.7s-2.4-15.3 7.7-29.1c3.2-4.3 6.1-7.5 8.8-9.7z" fill="#F2F0E8"/>
		
		
			<path d="m183.9 54.6s4 2.9 1 12.2l-13.1-8.8c5.8-4.9 10.2-5.4 12.1-3.4z" fill="#ACD4F7"/>
			<path d="m171.8 58 13.1 8.8c-1.6 5-5.3 12-12.6 21.3 0 0-12 12.3-17 8.7s-2.4-15.3 7.7-29.1c3.2-4.3 6.1-7.5 8.8-9.7z" fill="#F2F0E8"/>
		
		
			<path d="m156.6 98.4c-2.6-1.9-3.3-5.9-2-11.3 1.4-5.5 4.7-11.9 9.5-18.6 6.5-8.8 13-14.1 17.9-14.5 1.6-0.1 2.9 0.3 3.8 1.2 0.3 0.2 1.7 1.5 2.2 4.5 0.7 4.7-1.1 13.7-13.8 29.8-0.5 0.5-12.2 12.4-17.5 8.9 0 0.1-0.1 0-0.1 0zm28.5-42.4c-0.7-0.7-1.7-1-3-0.9-4.5 0.3-11 5.6-17.2 14.1-4.8 6.6-8 12.9-9.4 18.2-1.2 4.9-0.7 8.6 1.6 10.2 3.7 2.7 13-5.3 16.3-8.7 12.4-15.6 14.2-24.3 13.6-28.9-0.4-2.8-1.8-3.9-1.9-4z"/>
		
		
			<rect transform="matrix(.5564 -.8309 .8309 .5564 27.053 177.59)" x="179.6" y="55.5" width=".5" height="15.8"/>
		
		<path d="m172.5 90.4 4.7 10.5-7.5 11.1-0.7-7.8-8.1-5.4c3.6-1.7 7.4-4.4 11.6-8.4z" fill="#ACD4F7"/>
		<path d="m157.7 80.2-11.6 0.1-7.5 11.1 7.4-2.4 8.1 5.4c0.4-3.8 0.6-7.3 3.6-14.2z" fill="#ACD4F7"/>
		<path d="m169 69.8c-1.7 2.5-1 5.9 1.5 7.6s5.9 1 7.6-1.5 1-5.9-1.5-7.6-5.9-1.1-7.6 1.5z" fill="#fff"/>
		
			<path d="m170.3 77.8c2.7 1.8 6.5 1.1 8.3-1.6s1.1-6.5-1.6-8.3c-0.2-0.2-0.5-0.1-0.7 0.1s-0.1 0.5 0.1 0.7c2.3 1.5 2.9 4.6 1.4 6.9s-4.6 2.9-6.9 1.4-2.9-4.6-1.4-6.9c0.2-0.2 0.1-0.5-0.1-0.7s-0.5-0.1-0.7 0.1c-1.9 2.7-1.2 6.4 1.6 8.3z"/>
		
		
			<path d="m152.1 104.5c0.2 0.2 0.5 0.1 0.7-0.1l8.8-13.2c0.2-0.2 0.1-0.5-0.1-0.7s-0.5-0.1-0.7 0.1l-8.8 13.2c-0.2 0.3-0.1 0.6 0.1 0.7z"/>
		
		
			<path d="m169.6 112.3-0.6-7.5-8.5-5.7c-0.1-0.1-0.2-0.3-0.2-0.4 0-0.2 0.1-0.3 0.3-0.4 3.1-1.6 7.7-3.9 12-8 0.1-0.1 0.3-0.2 0.4-0.1 0.2 0 0.3 0.1 0.4 0.3l4.7 10.5c0.1 0.2 0.1 0.3 0 0.5l-7.5 11.1c-0.1 0.2-0.3 0.3-0.5 0.2-0.1 0-0.1 0-0.2-0.1-0.2-0.1-0.3-0.3-0.3-0.4zm3.1-20.9c-3.9 3.5-8 5.7-10.9 7.3l8 5.3c0.1 0.1 0.2 0.2 0.2 0.4l0.5 6.4 6.5-9.7-4.3-9.7z"/>
		
		
			<path d="m169.3 104.7c0.1 0.1 0.3 0 0.3-0.1l6-8.2c0.1-0.1 0.1-0.3-0.1-0.3-0.1-0.1-0.3-0.1-0.3 0.1l-6 8.2c-0.1 0 0 0.2 0.1 0.3z"/>
		
		
			<path d="m138.1 91.4c-0.1-0.2-0.1-0.4 0-0.6l7.5-11.1c0.1-0.1 0.2-0.2 0.4-0.2l11.6-0.1c0.2 0 0.3 0.1 0.4 0.2s0.1 0.3 0 0.5c-2.9 6.7-3.3 10.5-3 14.4 0 0.2-0.1 0.4-0.2 0.5-0.2 0.1-0.4 0.1-0.5 0l-8.4-5.6-7.2 2.3c-0.1 0-0.3 0-0.4-0.1l-0.2-0.2zm18.7-11-10.6 0.1-6.5 9.7 6.1-1.9c0.1 0 0.3 0 0.4 0.1l7.7 5.2c-0.1-3.6 0.5-7.3 2.9-13.2z"/>
		
		
			<path d="m145.8 89c0.1 0.1 0.3 0 0.4-0.1l5.3-8.7c0.1-0.1 0-0.3-0.1-0.3-0.1-0.1-0.3 0-0.3 0.1l-5.3 8.7c-0.1 0.1-0.1 0.2 0 0.3z"/>
		
		<path d="m184.2 54.6c0 0.4 1.8 7.3-2.2 15.4s-13.1 23.2-22.5 24.3l-2.9 3.7s6.6 3.4 17-8.7c12-14 16.8-29.5 12.3-33.2l-1.7-1.5z" fill="#A0A0A0" opacity=".2"/>
		
			<path d="m193.8 443.9s4 2.9 1 12.2l-13.1-8.8c5.8-4.9 10.2-5.4 12.1-3.4z" fill="#ACD4F7"/>
			<path d="m181.7 447.3 13.1 8.8c-1.6 5-5.3 12-12.6 21.3 0 0-12 12.3-17 8.7-4.9-3.6-2.4-15.3 7.7-29.1 3.1-4.2 6.1-7.4 8.8-9.7z" fill="#F2F0E8"/>
		
		
			<path d="m192.4 442.8s4 2.9 1 12.2l-13.1-8.8c5.8-4.9 10.2-5.4 12.1-3.4z" fill="#ACD4F7"/>
			<path d="m180.3 446.2 13.1 8.8c-1.6 5-5.3 12-12.6 21.3 0 0-12 12.3-17 8.7s-2.4-15.3 7.7-29.1c3.2-4.2 6.1-7.4 8.8-9.7z" fill="#F2F0E8"/>
		
		
			<path d="m165.1 486.6c-2.6-1.9-3.3-5.9-2-11.3 1.4-5.5 4.7-11.9 9.5-18.6 6.5-8.8 13-14.1 17.9-14.5 1.6-0.1 2.9 0.3 3.8 1.2 0.3 0.2 1.7 1.5 2.2 4.5 0.7 4.7-1.1 13.7-13.8 29.8-0.5 0.5-12.2 12.4-17.5 8.9 0 0.1-0.1 0.1-0.1 0zm28.5-42.3c-0.7-0.7-1.7-1-3-0.9-4.5 0.3-11 5.6-17.2 14.1-4.8 6.6-8 12.9-9.4 18.2-1.2 4.9-0.7 8.6 1.6 10.2 3.7 2.7 13-5.3 16.3-8.7 12.3-15.7 14.2-24.4 13.6-28.9-0.4-2.9-1.8-3.9-1.9-4z"/>
		
		
			<rect transform="matrix(.5564 -.8309 .8309 .5564 -291.78 356.88)" x="188.1" y="443.8" width=".5" height="15.8"/>
		
		<path d="m181 478.7 4.7 10.5-7.5 11.1-0.7-7.8-8.1-5.4c3.6-1.8 7.4-4.5 11.6-8.4z" fill="#ACD4F7"/>
		<path d="m166.2 468.5-11.6 0.1-7.5 11.1 7.4-2.4 8.1 5.4c0.4-3.8 0.6-7.4 3.6-14.2z" fill="#ACD4F7"/>
		<path d="m177.5 458c-1.7 2.5-1 5.9 1.5 7.6s5.9 1 7.6-1.5 1-5.9-1.5-7.6-5.9-1-7.6 1.5z" fill="#fff"/>
		
			<path d="m178.7 466c2.7 1.8 6.5 1.1 8.3-1.6s1.1-6.5-1.6-8.3c-0.2-0.2-0.5-0.1-0.7 0.1s-0.1 0.5 0.1 0.7c2.3 1.5 2.9 4.6 1.4 6.9s-4.6 2.9-6.9 1.4-2.9-4.6-1.4-6.9c0.2-0.2 0.1-0.5-0.1-0.7s-0.5-0.1-0.7 0.1c-1.8 2.8-1.1 6.5 1.6 8.3z"/>
		
		
			<path d="m160.6 492.8c0.2 0.2 0.5 0.1 0.7-0.1l8.8-13.2c0.2-0.2 0.1-0.5-0.1-0.7s-0.5-0.1-0.7 0.1l-8.8 13.2c-0.2 0.2-0.1 0.5 0.1 0.7z"/>
		
		
			<path d="m178.1 500.5-0.6-7.5-8.5-5.7c-0.1-0.1-0.2-0.3-0.2-0.4 0-0.2 0.1-0.3 0.3-0.4 3.1-1.6 7.7-3.9 12-8 0.1-0.1 0.3-0.2 0.4-0.1 0.2 0 0.3 0.1 0.4 0.3l4.7 10.5c0.1 0.2 0.1 0.3 0 0.5l-7.5 11.1c-0.1 0.2-0.3 0.3-0.5 0.2-0.1 0-0.1 0-0.2-0.1-0.2-0.1-0.3-0.2-0.3-0.4zm3-20.8c-3.9 3.5-8 5.7-10.9 7.3l8 5.3c0.1 0.1 0.2 0.2 0.2 0.4l0.5 6.4 6.5-9.7-4.3-9.7z"/>
		
		
			<path d="m177.8 492.9c0.1 0.1 0.3 0 0.3-0.1l6-8.2c0.1-0.1 0.1-0.3-0.1-0.3-0.1-0.1-0.3-0.1-0.3 0.1l-6 8.2c-0.1 0.1-0.1 0.2 0.1 0.3z"/>
		
		
			<path d="m146.6 479.7c-0.1-0.2-0.1-0.4 0-0.6l7.5-11.1c0.1-0.1 0.2-0.2 0.4-0.2l11.6-0.1c0.2 0 0.3 0.1 0.4 0.2s0.1 0.3 0 0.5c-2.9 6.7-3.3 10.5-3 14.4 0 0.2-0.1 0.4-0.2 0.5-0.2 0.1-0.4 0.1-0.5 0l-8.4-5.6-7.2 2.3c-0.1 0-0.3 0-0.4-0.1s-0.1-0.2-0.2-0.2zm18.7-11.1-10.6 0.1-6.5 9.7 6.1-1.9c0.1 0 0.3 0 0.4 0.1l7.7 5.2c-0.1-3.6 0.5-7.3 2.9-13.2z"/>
		
		
			<path d="m154.3 477.2c0.1 0.1 0.3 0 0.4-0.1l5.3-8.7c0.1-0.1 0-0.3-0.1-0.3-0.1-0.1-0.3 0-0.3 0.1l-5.3 8.7c-0.1 0.1-0.1 0.2 0 0.3z"/>
		
		<path d="m192.7 442.8c0 0.4 1.8 7.3-2.2 15.4s-13.1 23.2-22.5 24.3l-2.9 3.7s6.6 3.4 17-8.7c12-14 16.8-29.5 12.3-33.2l-1.7-1.5z" fill="#A0A0A0" opacity=".2"/>
		
			<ellipse transform="matrix(.3768 -.9263 .9263 .3768 38.053 301.22)" cx="242.9" cy="122.3" rx="25.4" ry="25.4" fill="#A0A0A0" opacity=".18"/>
		<circle cx="246.8" cy="123.5" r="25.4" fill="#F2F0E8"/>
		<path d="m242.9 124.1c0 1.8 1.5 3.3 3.3 3.3s3.3-1.5 3.3-3.3-1.5-3.3-3.3-3.3-3.3 1.5-3.3 3.3z" fill="#ACD4F7"/>
		<path d="m245.2 104.8c0 0.9 0.7 1.6 1.6 1.6s1.6-0.7 1.6-1.6-0.7-1.6-1.6-1.6c-0.9-0.1-1.6 0.7-1.6 1.6z" fill="#ACD4F7"/>
		<path d="m226.1 123.2c0 0.9 0.7 1.6 1.6 1.6s1.6-0.7 1.6-1.6-0.7-1.6-1.6-1.6c-0.8 0-1.6 0.7-1.6 1.6z" fill="#ACD4F7"/>
		<path d="m245.2 141.8c0 0.9 0.7 1.6 1.6 1.6s1.6-0.7 1.6-1.6-0.7-1.6-1.6-1.6-1.6 0.7-1.6 1.6z" fill="#ACD4F7"/>
		<path d="m263.8 123.2c0 0.9 0.7 1.6 1.6 1.6s1.6-0.7 1.6-1.6-0.7-1.6-1.6-1.6-1.6 0.7-1.6 1.6z" fill="#ACD4F7"/>
		
			
				<path d="m246.8 149.5c14.3 0 25.9-11.6 25.9-25.9s-11.6-25.9-25.9-25.9c-6.8 0-13.1 2.6-18 7.3-0.2 0.2-0.2 0.5 0 0.7s0.5 0.2 0.7 0c4.7-4.5 10.8-7 17.3-7 13.7 0 24.9 11.2 24.9 24.9s-11.2 24.9-24.9 24.9-24.9-11.2-24.9-24.9c0-0.3-0.2-0.5-0.5-0.5s-0.5 0.2-0.5 0.5c0 14.2 11.6 25.9 25.9 25.9z"/>
			
		
		
			
				<path d="m243.3 124.1c0-1.6 1.3-2.9 2.9-2.9s2.9 1.3 2.9 2.9-1.3 2.9-2.9 2.9c-1.6 0.1-2.9-1.2-2.9-2.9zm1 0c0 1.1 0.9 1.9 1.9 1.9 1.1 0 1.9-0.9 1.9-1.9 0-1.1-0.9-1.9-1.9-1.9s-1.9 0.9-1.9 1.9z"/>
			
		
		
			
				<path d="m244.7 141.8c0-1.2 0.9-2.1 2.1-2.1s2.1 0.9 2.1 2.1-0.9 2.1-2.1 2.1-2.1-0.9-2.1-2.1zm1 0c0 0.6 0.5 1.1 1.1 1.1s1.1-0.5 1.1-1.1-0.5-1.1-1.1-1.1-1.1 0.5-1.1 1.1z"/>
			
		
		
			
				<path d="m225.6 123.2c0-1.2 0.9-2.1 2.1-2.1s2.1 0.9 2.1 2.1-0.9 2.1-2.1 2.1-2.1-1-2.1-2.1zm1 0c0 0.6 0.5 1.1 1.1 1.1s1.1-0.5 1.1-1.1-0.5-1.1-1.1-1.1-1.1 0.5-1.1 1.1z"/>
			
		
		
			
				<path d="m228 115.5c0-0.8 0.6-1.4 1.4-1.4s1.4 0.6 1.4 1.4-0.6 1.4-1.4 1.4c-0.8-0.1-1.4-0.7-1.4-1.4zm0.5 0c0 0.5 0.4 0.9 0.9 0.9s0.9-0.4 0.9-0.9-0.4-0.9-0.9-0.9-0.9 0.4-0.9 0.9z"/>
			
		
		
			
				<path d="m228.5 133.5c0-0.8 0.6-1.4 1.4-1.4s1.4 0.6 1.4 1.4-0.6 1.4-1.4 1.4-1.4-0.7-1.4-1.4zm0.5 0c0 0.5 0.4 0.9 0.9 0.9s0.9-0.4 0.9-0.9-0.4-0.9-0.9-0.9-0.9 0.4-0.9 0.9z"/>
			
		
		
			
				<path d="m234.5 140.2c0-0.8 0.6-1.4 1.4-1.4s1.4 0.6 1.4 1.4-0.6 1.4-1.4 1.4-1.4-0.6-1.4-1.4zm0.5 0c0 0.5 0.4 0.9 0.9 0.9s0.9-0.4 0.9-0.9-0.4-0.9-0.9-0.9-0.9 0.4-0.9 0.9z"/>
			
		
		
			
				<path d="m261.3 133.5c0-0.8 0.6-1.4 1.4-1.4s1.4 0.6 1.4 1.4-0.6 1.4-1.4 1.4-1.4-0.7-1.4-1.4zm0.5 0c0 0.5 0.4 0.9 0.9 0.9s0.9-0.4 0.9-0.9-0.4-0.9-0.9-0.9c-0.6 0-0.9 0.4-0.9 0.9z"/>
			
		
		
			
				<path d="m255.3 140.2c0-0.8 0.6-1.4 1.4-1.4s1.4 0.6 1.4 1.4-0.6 1.4-1.4 1.4-1.4-0.6-1.4-1.4zm0.5 0c0 0.5 0.4 0.9 0.9 0.9s0.9-0.4 0.9-0.9-0.4-0.9-0.9-0.9-0.9 0.4-0.9 0.9z"/>
			
		
		
			
				<path d="m233.5 109.2c0-0.8 0.6-1.4 1.4-1.4s1.4 0.6 1.4 1.4-0.6 1.4-1.4 1.4-1.4-0.6-1.4-1.4zm0.5 0c0 0.5 0.4 0.9 0.9 0.9s0.9-0.4 0.9-0.9-0.4-0.9-0.9-0.9c-0.5 0.1-0.9 0.5-0.9 0.9z"/>
			
		
		
			
				<path d="m261.3 115.5c0-0.8 0.6-1.4 1.4-1.4s1.4 0.6 1.4 1.4-0.6 1.4-1.4 1.4c-0.8-0.1-1.4-0.7-1.4-1.4zm0.5 0c0 0.5 0.4 0.9 0.9 0.9s0.9-0.4 0.9-0.9-0.4-0.9-0.9-0.9c-0.6 0-0.9 0.4-0.9 0.9z"/>
			
		
		
			
				<path d="m256.4 109.8c0-0.8 0.6-1.4 1.4-1.4s1.4 0.6 1.4 1.4-0.6 1.4-1.4 1.4c-0.8-0.1-1.4-0.7-1.4-1.4zm0.5 0c0 0.5 0.4 0.9 0.9 0.9s0.9-0.4 0.9-0.9-0.4-0.9-0.9-0.9-0.9 0.4-0.9 0.9z"/>
			
		
		
			
				<path d="m263.3 123.2c0-1.2 0.9-2.1 2.1-2.1s2.1 0.9 2.1 2.1-0.9 2.1-2.1 2.1-2.1-1-2.1-2.1zm1 0c0 0.6 0.5 1.1 1.1 1.1s1.1-0.5 1.1-1.1-0.5-1.1-1.1-1.1-1.1 0.5-1.1 1.1z"/>
			
		
		
			
				<path d="m244.7 104.8c0-1.2 0.9-2.1 2.1-2.1s2.1 0.9 2.1 2.1-0.9 2.1-2.1 2.1-2.1-1-2.1-2.1zm1 0c0 0.6 0.5 1.1 1.1 1.1s1.1-0.5 1.1-1.1-0.5-1.1-1.1-1.1-1.1 0.5-1.1 1.1z"/>
			
		
		
			
				<path d="m248 123c0.2 0 0.4-0.1 0.5-0.3l6.7-17.7c0.1-0.3 0-0.5-0.3-0.6s-0.5 0-0.6 0.3l-6.7 17.7c-0.1 0.3 0 0.5 0.3 0.6h0.1z"/>
			
		
		
			
				<path d="m244 123.7c0.2 0 0.4-0.1 0.5-0.3 0.1-0.3 0-0.5-0.3-0.6l-10.2-4.1c-0.3-0.1-0.5 0-0.6 0.3s0 0.5 0.3 0.6l10.2 4.1h0.1z"/>
			
		
		
			
				<path d="m252.5 138.4h0.1c0.1-0.1 0.2-0.2 0.1-0.3l-5.2-11.6c-0.1-0.1-0.2-0.2-0.3-0.1s-0.2 0.2-0.1 0.3l5.2 11.6s0.1 0.1 0.2 0.1z"/>
			
		
		<path d="m245.6 97.6c1.2 0.5 19.5 9.5 18.4 27.2s-17.2 24.2-17.2 24.2 25.4-0.1 25.4-25.4c0.1-25.5-26.6-26-26.6-26z" fill="#A0A0A0" opacity=".2"/>
		
			<ellipse transform="matrix(.3768 -.9263 .9263 .3768 -483.86 869.78)" cx="404.5" cy="794.5" rx="25.4" ry="25.4" fill="#A0A0A0" opacity=".18"/>
		<circle cx="408.4" cy="795.7" r="25.4" fill="#F2F0E8"/>
		<path d="m404.5 796.3c0 1.8 1.5 3.3 3.3 3.3s3.3-1.5 3.3-3.3-1.5-3.3-3.3-3.3-3.3 1.5-3.3 3.3z" fill="#ACD4F7"/>
		<path d="m406.8 776.9c0 0.9 0.7 1.6 1.6 1.6s1.6-0.7 1.6-1.6-0.7-1.6-1.6-1.6-1.6 0.7-1.6 1.6z" fill="#ACD4F7"/>
		<path d="m387.7 795.3c0 0.9 0.7 1.6 1.6 1.6s1.6-0.7 1.6-1.6-0.7-1.6-1.6-1.6-1.6 0.7-1.6 1.6z" fill="#ACD4F7"/>
		<path d="m406.8 814c0 0.9 0.7 1.6 1.6 1.6s1.6-0.7 1.6-1.6-0.7-1.6-1.6-1.6-1.6 0.7-1.6 1.6z" fill="#ACD4F7"/>
		<path d="m425.4 795.3c0 0.9 0.7 1.6 1.6 1.6s1.6-0.7 1.6-1.6-0.7-1.6-1.6-1.6-1.6 0.7-1.6 1.6z" fill="#ACD4F7"/>
		
			
				<path d="m408.4 821.6c14.3 0 25.9-11.6 25.9-25.9s-11.6-25.9-25.9-25.9c-6.8 0-13.1 2.6-18 7.3-0.2 0.2-0.2 0.5 0 0.7s0.5 0.2 0.7 0c4.7-4.5 10.8-7 17.3-7 13.7 0 24.9 11.2 24.9 24.9s-11.2 24.9-24.9 24.9-24.9-11.2-24.9-24.9c0-0.3-0.2-0.5-0.5-0.5s-0.5 0.2-0.5 0.5c0 14.3 11.6 25.9 25.9 25.9z"/>
			
		
		
			
				<path d="m404.9 796.3c0-1.6 1.3-2.9 2.9-2.9s2.9 1.3 2.9 2.9-1.3 2.9-2.9 2.9-2.9-1.3-2.9-2.9zm1 0c0 1.1 0.9 1.9 1.9 1.9 1.1 0 1.9-0.9 1.9-1.9 0-1.1-0.9-1.9-1.9-1.9-1.1 0-1.9 0.8-1.9 1.9z"/>
			
		
		
			
				<path d="m406.3 814c0-1.2 0.9-2.1 2.1-2.1s2.1 0.9 2.1 2.1-0.9 2.1-2.1 2.1-2.1-1-2.1-2.1zm1 0c0 0.6 0.5 1.1 1.1 1.1s1.1-0.5 1.1-1.1-0.5-1.1-1.1-1.1-1.1 0.5-1.1 1.1z"/>
			
		
		
			
				<path d="m387.2 795.3c0-1.2 0.9-2.1 2.1-2.1s2.1 0.9 2.1 2.1-0.9 2.1-2.1 2.1c-1.1 0.1-2.1-0.9-2.1-2.1zm1 0c0 0.6 0.5 1.1 1.1 1.1s1.1-0.5 1.1-1.1-0.5-1.1-1.1-1.1-1.1 0.5-1.1 1.1z"/>
			
		
		
			
				<path d="m389.6 787.6c0-0.8 0.6-1.4 1.4-1.4s1.4 0.6 1.4 1.4-0.6 1.4-1.4 1.4-1.4-0.6-1.4-1.4zm0.5 0c0 0.5 0.4 0.9 0.9 0.9s0.9-0.4 0.9-0.9-0.4-0.9-0.9-0.9-0.9 0.4-0.9 0.9z"/>
			
		
		
			
				<path d="m390.1 805.6c0-0.8 0.6-1.4 1.4-1.4s1.4 0.6 1.4 1.4-0.6 1.4-1.4 1.4-1.4-0.6-1.4-1.4zm0.5 0c0 0.5 0.4 0.9 0.9 0.9s0.9-0.4 0.9-0.9-0.4-0.9-0.9-0.9c-0.6 0.1-0.9 0.5-0.9 0.9z"/>
			
		
		
			
				<path d="m396.1 812.4c0-0.8 0.6-1.4 1.4-1.4s1.4 0.6 1.4 1.4-0.6 1.4-1.4 1.4-1.4-0.7-1.4-1.4zm0.5 0c0 0.5 0.4 0.9 0.9 0.9s0.9-0.4 0.9-0.9-0.4-0.9-0.9-0.9-0.9 0.4-0.9 0.9z"/>
			
		
		
			
				<path d="m422.8 805.6c0-0.8 0.6-1.4 1.4-1.4s1.4 0.6 1.4 1.4-0.6 1.4-1.4 1.4c-0.7 0-1.4-0.6-1.4-1.4zm0.5 0c0 0.5 0.4 0.9 0.9 0.9s0.9-0.4 0.9-0.9-0.4-0.9-0.9-0.9c-0.5 0.1-0.9 0.5-0.9 0.9z"/>
			
		
		
			
				<path d="m416.9 812.4c0-0.8 0.6-1.4 1.4-1.4s1.4 0.6 1.4 1.4-0.6 1.4-1.4 1.4-1.4-0.7-1.4-1.4zm0.5 0c0 0.5 0.4 0.9 0.9 0.9s0.9-0.4 0.9-0.9-0.4-0.9-0.9-0.9-0.9 0.4-0.9 0.9z"/>
			
		
		
			
				<path d="m395.1 781.4c0-0.8 0.6-1.4 1.4-1.4s1.4 0.6 1.4 1.4-0.6 1.4-1.4 1.4-1.4-0.6-1.4-1.4zm0.5 0c0 0.5 0.4 0.9 0.9 0.9s0.9-0.4 0.9-0.9-0.4-0.9-0.9-0.9-0.9 0.4-0.9 0.9z"/>
			
		
		
			
				<path d="m422.8 787.6c0-0.8 0.6-1.4 1.4-1.4s1.4 0.6 1.4 1.4-0.6 1.4-1.4 1.4c-0.7 0-1.4-0.6-1.4-1.4zm0.5 0c0 0.5 0.4 0.9 0.9 0.9s0.9-0.4 0.9-0.9-0.4-0.9-0.9-0.9-0.9 0.4-0.9 0.9z"/>
			
		
		
			
				<path d="m418 781.9c0-0.8 0.6-1.4 1.4-1.4s1.4 0.6 1.4 1.4-0.6 1.4-1.4 1.4-1.4-0.6-1.4-1.4zm0.5 0c0 0.5 0.4 0.9 0.9 0.9s0.9-0.4 0.9-0.9-0.4-0.9-0.9-0.9-0.9 0.4-0.9 0.9z"/>
			
		
		
			
				<path d="m424.9 795.3c0-1.2 0.9-2.1 2.1-2.1s2.1 0.9 2.1 2.1-0.9 2.1-2.1 2.1c-1.2 0.1-2.1-0.9-2.1-2.1zm1 0c0 0.6 0.5 1.1 1.1 1.1s1.1-0.5 1.1-1.1-0.5-1.1-1.1-1.1-1.1 0.5-1.1 1.1z"/>
			
		
		
			
				<path d="m406.3 776.9c0-1.2 0.9-2.1 2.1-2.1s2.1 0.9 2.1 2.1-0.9 2.1-2.1 2.1-2.1-0.9-2.1-2.1zm1 0c0 0.6 0.5 1.1 1.1 1.1s1.1-0.5 1.1-1.1-0.5-1.1-1.1-1.1-1.1 0.5-1.1 1.1z"/>
			
		
		
			
				<path d="m409.6 795.1c0.2 0 0.4-0.1 0.5-0.3l6.7-17.7c0.1-0.3 0-0.5-0.3-0.6s-0.5 0-0.6 0.3l-6.7 17.7c-0.1 0.3 0 0.5 0.3 0.6h0.1z"/>
			
		
		
			
				<path d="m405.6 795.8c0.2 0 0.4-0.1 0.5-0.3 0.1-0.3 0-0.5-0.3-0.6l-10.2-4.1c-0.3-0.1-0.5 0-0.6 0.3s0 0.5 0.3 0.6l10.2 4.1h0.1z"/>
			
		
		
			
				<path d="m414.1 810.5h0.1c0.1-0.1 0.2-0.2 0.1-0.3l-5.2-11.6c-0.1-0.1-0.2-0.2-0.3-0.1s-0.2 0.2-0.1 0.3l5.2 11.6c0 0.1 0.1 0.1 0.2 0.1z"/>
			
		
		<path d="m407.2 769.8c1.2 0.5 19.5 9.5 18.4 27.2s-17.2 24.2-17.2 24.2 25.4-0.1 25.4-25.4c0-25.5-26.6-26-26.6-26z" fill="#A0A0A0" opacity=".2"/>
		
			<rect x="48.7" y="83.5" width="55" height="37.8" fill="#F2F0E8"/>
		
		
			<rect x="51.7" y="83.6" width="55" height="37.8" fill="#ACD4F7"/>
		
		<polygon points="76.1 112.9 58.7 83.9 66.1 83.6 85.2 112.9" fill="#F4F4F4" opacity=".25"/>
		
			<rect transform="matrix(-1 -4.4864e-11 4.4864e-11 -1 158.35 246.71)" x="72.4" y="121.4" width="13.6" height="4" fill="#A0A0A0" opacity=".2"/>
		
			<rect transform="matrix(-1 -4.473e-11 4.473e-11 -1 155.86 247.07)" x="71.1" y="121.6" width="13.6" height="4" fill="#A0A0A0" opacity=".2"/>
		
			<rect transform="matrix(-1 -4.4749e-11 4.4749e-11 -1 159.45 254.62)" x="67.4" y="126.3" width="24.6" height="2" fill="#F2F0E8"/>
		
			<rect transform="matrix(-1 -4.5119e-11 4.5119e-11 -1 154.96 254.62)" x="65.2" y="125.4" width="24.6" height="3.9" fill="#F2F0E8"/>
		
			<rect x="51.1" y="112.8" width="55" height="8.7" fill="#F2F0E8"/>
		
		
			
				<path d="m51.2 121.4v-37.8c0-0.3 0.2-0.5 0.5-0.5h55c0.3 0 0.5 0.2 0.5 0.5v37.8c0 0.3-0.2 0.5-0.5 0.5h-55c-0.2 0-0.5-0.2-0.5-0.5zm55.1-37.3h-54v36.8h54v-36.8z"/>
			
		
		
			
				<path d="m72.5 125.7v-4.3c0-0.1 0.1-0.2 0.2-0.2h13c0.1 0 0.2 0.1 0.2 0.2v4.3c0 0.1-0.1 0.2-0.2 0.2h-13c-0.1 0-0.2-0.1-0.2-0.2zm13-4.1h-12.5v3.8h12.5v-3.8z"/>
			
		
		
			
				<path d="m67.4 128.9v-3.2c0-0.3 0.2-0.5 0.5-0.5h24.8c0.3 0 0.5 0.2 0.5 0.5v3.2c0 0.3-0.2 0.5-0.5 0.5h-24.8c-0.2 0-0.5-0.2-0.5-0.5zm24.9-2.7h-23.9v2.2h23.8v-2.2z"/>
			
		
		
			
				<path d="m63.4 112.9h43.7c0.1 0 0.2-0.1 0.2-0.2s-0.1-0.2-0.2-0.2h-43.7c-0.1 0-0.2 0.1-0.2 0.2s0 0.2 0.2 0.2z"/>
			
		
		
			<path d="m77.9 115.4c0-0.7 0.6-1.3 1.3-1.3s1.3 0.6 1.3 1.3-0.6 1.3-1.3 1.3c-0.7 0.1-1.3-0.5-1.3-1.3zm0.5 0c0 0.5 0.4 0.8 0.8 0.8 0.5 0 0.8-0.4 0.8-0.8 0-0.5-0.4-0.8-0.8-0.8s-0.8 0.4-0.8 0.8z"/>
		
		
			<rect transform="matrix(-1 -4.5466e-11 4.5466e-11 -1 209.97 204.72)" x="102.7" y="83.6" width="4.6" height="37.5" fill="#A0A0A0" opacity=".2"/>
		<polygon points="91.8 113.3 72 83.2 75.8 83.2 95.2 113.8" fill="#F4F4F4" opacity=".25"/>
		
			<rect x="209" y="507.7" width="55" height="37.8" fill="#F2F0E8"/>
		
		
			<rect x="212" y="507.9" width="55" height="37.8" fill="#ACD4F7"/>
		
		<polygon points="236.4 537.1 219 508.2 226.4 507.9 245.5 537.1" fill="#F4F4F4" opacity=".25"/>
		
			<rect transform="matrix(-1 -4.4731e-11 4.4731e-11 -1 478.91 1095.2)" x="232.6" y="545.6" width="13.6" height="4" fill="#A0A0A0" opacity=".2"/>
		
			<rect transform="matrix(-1 -4.4864e-11 4.4864e-11 -1 476.42 1095.6)" x="231.4" y="545.8" width="13.6" height="4" fill="#A0A0A0" opacity=".2"/>
		
			<rect transform="matrix(-1 -4.5193e-11 4.5193e-11 -1 480.01 1103.2)" x="227.7" y="550.6" width="24.6" height="2" fill="#F2F0E8"/>
		
			<rect transform="matrix(-1 -4.5119e-11 4.5119e-11 -1 475.52 1103.2)" x="225.5" y="549.6" width="24.6" height="3.9" fill="#F2F0E8"/>
		
			<rect x="211.4" y="537.1" width="55" height="8.7" fill="#F2F0E8"/>
		
		<path d="m211.5 545.6v-37.8c0-0.3 0.2-0.5 0.5-0.5h55c0.3 0 0.5 0.2 0.5 0.5v37.8c0 0.3-0.2 0.5-0.5 0.5h-55c-0.3 0-0.5-0.2-0.5-0.5zm55.1-37.2h-54v36.8h54v-36.8z"/>
		
			
				<path d="m232.8 550v-4.3c0-0.1 0.1-0.2 0.2-0.2h13c0.1 0 0.2 0.1 0.2 0.2v4.3c0 0.1-0.1 0.2-0.2 0.2h-13c-0.1 0-0.2-0.1-0.2-0.2zm13-4.1h-12.5v3.8h12.5v-3.8z"/>
			
		
		
			
				<path d="m227.7 553.2v-3.2c0-0.3 0.2-0.5 0.5-0.5h24.8c0.3 0 0.5 0.2 0.5 0.5v3.2c0 0.3-0.2 0.5-0.5 0.5h-24.8c-0.3 0-0.5-0.2-0.5-0.5zm24.8-2.7h-23.8v2.2h23.8v-2.2z"/>
			
		
		
			
				<path d="m223.6 537.2h43.7c0.1 0 0.2-0.1 0.2-0.2s-0.1-0.2-0.2-0.2h-43.7c-0.1 0-0.2 0.1-0.2 0.2s0.1 0.2 0.2 0.2z"/>
			
		
		
			<path d="m238.2 539.7c0-0.7 0.6-1.3 1.3-1.3s1.3 0.6 1.3 1.3-0.6 1.3-1.3 1.3-1.3-0.6-1.3-1.3zm0.5 0c0 0.5 0.4 0.8 0.8 0.8s0.8-0.4 0.8-0.8c0-0.5-0.4-0.8-0.8-0.8s-0.8 0.3-0.8 0.8z"/>
		
		<polygon points="252.1 537.6 232.3 507.5 236.1 507.5 255.4 538.1" fill="#F4F4F4" opacity=".25"/>
		
			<rect transform="matrix(-1 -4.547e-11 4.547e-11 -1 459.44 435.03)" x="227.2" y="194.5" width="5" height="46" fill="#F2F0E8"/>
		
			
				<rect transform="matrix(-1 -4.4576e-11 4.4576e-11 -1 483.62 435.03)" x="230" y="194.8" width="23.6" height="45.5" fill="#7ACBF5"/>
			<polygon points="240.2 230.4 222.8 201.5 230.2 201.1 249.4 230.4" fill="#F4F4F4" opacity=".25"/>
			<polygon points="255.9 230.8 236.1 200.8 239.9 200.8 259.3 231.4" fill="#F4F4F4" opacity=".25"/>
		
		
			<rect transform="matrix(-1 -4.4962e-11 4.4962e-11 -1 483.62 397.71)" x="230" y="194.8" width="23.6" height="8.2" fill="#F2F0E8"/>
		
			<rect transform="matrix(-1 -4.4576e-11 4.4576e-11 -1 483.62 471.32)" x="230" y="231" width="23.6" height="9.2" fill="#F2F0E8"/>
		
			<path d="m230.2 240.8h23.6c0.3 0 0.5-0.2 0.5-0.5v-45.5c0-0.3-0.2-0.5-0.5-0.5h-23.6c-0.3 0-0.5 0.2-0.5 0.5v18.6c0 0.3 0.2 0.5 0.5 0.5s0.5-0.2 0.5-0.5v-18.1h22.6v44.5h-22.6v-15.8c0-0.3-0.2-0.5-0.5-0.5s-0.5 0.2-0.5 0.5v16.2c0 0.4 0.2 0.6 0.5 0.6z"/>
		
		
			
				<rect x="230.2" y="230.6" width="23.6" height=".5"/>
			
		
		
			
				<rect x="230.2" y="202.5" width="23.6" height=".5"/>
			
		
		
			
				<path d="m240.2 235.7c0-1 0.8-1.8 1.8-1.8s1.8 0.8 1.8 1.8-0.8 1.8-1.8 1.8-1.8-0.8-1.8-1.8zm1 0c0 0.4 0.4 0.8 0.8 0.8s0.8-0.4 0.8-0.8-0.4-0.8-0.8-0.8-0.8 0.4-0.8 0.8z"/>
			
		
		
			<rect transform="matrix(-1 -4.3666e-11 4.3666e-11 -1 502.58 434.53)" x="248.8" y="194.3" width="5" height="46" fill="#A0A0A0" opacity=".2"/>
		
			<rect transform="matrix(-1 -4.5831e-11 4.5831e-11 -1 186.43 825.51)" x="90.7" y="389.7" width="5" height="46" fill="#F2F0E8"/>
		
			
				<rect transform="matrix(-1 -4.4962e-11 4.4962e-11 -1 210.61 825.51)" x="93.5" y="390" width="23.6" height="45.5" fill="#7ACBF5"/>
			<polygon points="103.7 425.6 86.3 396.7 93.7 396.4 112.9 425.6" fill="#F4F4F4" opacity=".25"/>
			<polygon points="119.4 426.1 99.6 396 103.4 396 122.8 426.6" fill="#F4F4F4" opacity=".25"/>
		
		
			<rect transform="matrix(-1 -4.4962e-11 4.4962e-11 -1 210.61 788.19)" x="93.5" y="390" width="23.6" height="8.2" fill="#F2F0E8"/>
		
			<rect transform="matrix(-1 -4.4962e-11 4.4962e-11 -1 210.61 861.8)" x="93.5" y="426.3" width="23.6" height="9.2" fill="#F2F0E8"/>
		
			<path d="m93.7 436h23.6c0.3 0 0.5-0.2 0.5-0.5v-45.5c0-0.3-0.2-0.5-0.5-0.5h-23.6c-0.3 0-0.5 0.2-0.5 0.5v18.6c0 0.3 0.2 0.5 0.5 0.5s0.5-0.2 0.5-0.5v-18.1h22.6v44.5h-22.6v-15.7c0-0.3-0.2-0.5-0.5-0.5s-0.5 0.2-0.5 0.5v16.2c0 0.3 0.2 0.5 0.5 0.5z"/>
		
		
			
				<rect x="93.7" y="425.8" width="23.6" height=".5"/>
			
		
		
			
				<rect x="93.7" y="397.8" width="23.6" height=".5"/>
			
		
		
			
				<path d="m103.7 431c0-1 0.8-1.8 1.8-1.8s1.8 0.8 1.8 1.8-0.8 1.8-1.8 1.8-1.8-0.8-1.8-1.8zm1 0c0 0.4 0.4 0.8 0.8 0.8s0.8-0.4 0.8-0.8-0.4-0.8-0.8-0.8-0.8 0.3-0.8 0.8z"/>
			
		
		
			<rect transform="matrix(-1 -4.547e-11 4.547e-11 -1 229.56 825.01)" x="112.3" y="389.5" width="5" height="46" fill="#A0A0A0" opacity=".2"/>
		
			
				<rect transform="matrix(-1 -4.547e-11 4.547e-11 -1 87.524 1075)" x="41.2" y="514.5" width="5" height="46" fill="#F2F0E8"/>
			
				
					<rect transform="matrix(-1 -4.4885e-11 4.4885e-11 -1 111.7 1075)" x="44.1" y="514.7" width="23.6" height="45.5" fill="#7ACBF5"/>
				<polygon points="54.3 550.4 36.8 521.4 44.3 521.1 63.4 550.4" fill="#F4F4F4" opacity=".25"/>
				<polygon points="70 550.8 50.2 520.7 54 520.7 73.3 551.3" fill="#F4F4F4" opacity=".25"/>
			
			
				<rect transform="matrix(-1 -4.4962e-11 4.4962e-11 -1 111.7 1037.6)" x="44.1" y="514.7" width="23.6" height="8.2" fill="#F2F0E8"/>
			
				<rect transform="matrix(-1 -4.4885e-11 4.4885e-11 -1 111.7 1111.2)" x="44.1" y="551" width="23.6" height="9.2" fill="#F2F0E8"/>
			
				<path d="m44.3 560.7h23.6c0.3 0 0.5-0.2 0.5-0.5v-45.5c0-0.3-0.2-0.5-0.5-0.5h-23.6c-0.3 0-0.5 0.2-0.5 0.5v18.6c0 0.3 0.2 0.5 0.5 0.5s0.5-0.2 0.5-0.5v-18.1h22.6v44.5h-22.6v-15.7c0-0.3-0.2-0.5-0.5-0.5s-0.5 0.2-0.5 0.5v16.2c0 0.3 0.2 0.5 0.5 0.5z"/>
			
			
				
					<rect x="44.3" y="550.5" width="23.6" height=".5"/>
				
			
			
				
					<rect x="44.3" y="522.5" width="23.6" height=".5"/>
				
			
			
				
					<path d="m54.3 555.7c0-1 0.8-1.8 1.8-1.8s1.8 0.8 1.8 1.8-0.8 1.8-1.8 1.8-1.8-0.8-1.8-1.8zm1 0c0 0.4 0.4 0.8 0.8 0.8s0.8-0.4 0.8-0.8-0.4-0.8-0.8-0.8c-0.5 0-0.8 0.3-0.8 0.8z"/>
				
			
			
				<rect transform="matrix(-1 -4.5831e-11 4.5831e-11 -1 130.66 1074.5)" x="62.8" y="514.2" width="5" height="46" fill="#A0A0A0" opacity=".2"/>
		
		
			<rect transform="matrix(-1 -4.4771e-11 4.4771e-11 -1 321.02 324.13)" x="132.7" y="143.1" width="55.6" height="37.8" fill="#F2F0E8"/>
		
			
				<path d="m131.7 181.5v-38.3c0-0.3 0.2-0.5 0.5-0.5h55.6c0.3 0 0.5 0.2 0.5 0.5v38.3c0 0.3-0.2 0.5-0.5 0.5h-55.6c-0.3 0-0.5-0.2-0.5-0.5zm55.6-37.9h-54.6v37.4h54.6v-37.4z"/>
			
		
		
			
				<path d="m142.1 151h45.4c0.1 0 0.2-0.1 0.2-0.2s-0.1-0.2-0.2-0.2h-45.4c-0.1 0-0.2 0.1-0.2 0.2-0.1 0.1 0 0.2 0.2 0.2z"/>
			
		
		
			
				<path d="m181.5 147.6c0.3 0 0.6-0.3 0.6-0.6s-0.3-0.6-0.6-0.6-0.6 0.3-0.6 0.6 0.2 0.6 0.6 0.6z"/>
			
		
		
			
				<path d="m185.3 147.6c0.3 0 0.6-0.3 0.6-0.6s-0.3-0.6-0.6-0.6-0.6 0.3-0.6 0.6 0.2 0.6 0.6 0.6z"/>
			
		
		
			
				<path d="m177.7 147.6c0.3 0 0.6-0.3 0.6-0.6s-0.3-0.6-0.6-0.6-0.6 0.3-0.6 0.6 0.3 0.6 0.6 0.6z"/>
			
		
		
			
				<path d="m148.4 175.6h22c0.2 0 0.3-0.2 0.3-0.3v-20.1c0-0.2-0.2-0.3-0.3-0.3s-0.3 0.2-0.3 0.3v19.8h-21.6c-0.2 0-0.3 0.2-0.3 0.3-0.2 0.1 0 0.3 0.2 0.3z"/>
			
			
				<rect transform="matrix(-1 -4.3244e-11 4.3244e-11 -1 332.4 330.9)" x="164.1" y="157.6" width="4.2" height="15.7" fill="#ACD4F7"/>
			
				<rect transform="matrix(-1 -4.5428e-11 4.5428e-11 -1 320.61 333.86)" x="158.2" y="160.6" width="4.2" height="12.8" fill="#ACD4F7"/>
			
				<rect transform="matrix(-1 -4.3244e-11 4.3244e-11 -1 307.95 338.86)" x="151.9" y="165.5" width="4.2" height="8" fill="#ACD4F7"/>
		
		
			<rect transform="matrix(-1 -4.4961e-11 4.4961e-11 -1 318.78 293.95)" x="131.7" y="143.5" width="55.4" height="7" fill="#A0A0A0" opacity=".2"/>
		
			<rect transform="matrix(-1 -4.4318e-11 4.4318e-11 -1 372.48 324.13)" x="184.7" y="142.6" width="3.2" height="38.8" fill="#A0A0A0" opacity=".2"/>
		<rect x="131.1" y="218.9" width="49.8" height="29.9" fill="#F2F0E8"/>
		
			
				<path d="m131.1 249.3h49.9c0.3 0 0.5-0.2 0.5-0.5v-29.9c0-0.3-0.2-0.5-0.5-0.5h-49.8c-0.3 0-0.5 0.2-0.5 0.5v10.4c0 0.3 0.2 0.5 0.5 0.5s0.5-0.2 0.5-0.5v-9.9h48.8v28.9h-48.8v-8.5c0-0.3-0.2-0.5-0.5-0.5s-0.5 0.2-0.5 0.5v9c-0.1 0.3 0.2 0.5 0.4 0.5z"/>
			
		
		
			
				<path d="m154.3 240.2-23.5-20.9c-0.2-0.1-0.2-0.4-0.1-0.6s0.3-0.3 0.5-0.3h49.8c0.2 0 0.4 0.1 0.5 0.3s0 0.4-0.2 0.6l-26.4 20.9c-0.1 0.1-0.2 0.1-0.3 0.1s-0.2-0.1-0.3-0.1zm-21.8-20.8 22.2 19.7 24.9-19.7h-47.1z"/>
			
		
		
			
				<path d="m131.1 248.9c0.1 0 0.1 0 0.2-0.1l15.9-15.4c0.1-0.1 0.1-0.3 0-0.4s-0.3-0.1-0.4 0l-15.8 15.5c-0.1 0.1-0.1 0.3 0 0.4h0.1z"/>
			
		
		
			
				<path d="m181 248.9c0.1 0 0.1 0 0.2-0.1s0.1-0.3 0-0.4l-17.7-15.4c-0.1-0.1-0.3-0.1-0.4 0s-0.1 0.3 0 0.4l17.7 15.4c0.1 0.1 0.1 0.1 0.2 0.1z"/>
			
		
		
			<rect transform="matrix(-1 -4.4609e-11 4.4609e-11 -1 356.19 467.58)" x="175.3" y="219.3" width="5.6" height="29" fill="#A0A0A0" opacity=".2"/>
		
			<polyline points="353.2 446.4 403 447.3 376.4 468.1" fill="#ACD4F7"/>
			
				
					<path d="m353.2 477.3h49.8c0.3 0 0.5-0.2 0.5-0.5v-29.9c0-0.3-0.2-0.5-0.5-0.5h-49.8c-0.3 0-0.5 0.2-0.5 0.5v10.4c0 0.3 0.2 0.5 0.5 0.5s0.5-0.2 0.5-0.5v-9.9h48.8v28.9h-48.8v-8.5c0-0.3-0.2-0.5-0.5-0.5s-0.5 0.2-0.5 0.5v9c0 0.3 0.2 0.5 0.5 0.5z"/>
				
			
			
				
					<path d="m376.4 468.1-23.5-20.9c-0.2-0.1-0.2-0.4-0.1-0.6s0.3-0.3 0.5-0.3h49.8c0.2 0 0.4 0.1 0.5 0.3s0 0.4-0.2 0.6l-26.4 21c-0.1 0.1-0.2 0.1-0.3 0.1s-0.2-0.1-0.3-0.2zm-21.9-20.7 22.2 19.7 24.9-19.7h-47.1z"/>
				
			
			
				
					<path d="m353.2 476.9c0.1 0 0.1 0 0.2-0.1l15.9-15.4c0.1-0.1 0.1-0.3 0-0.4s-0.3-0.1-0.4 0l-15.9 15.5c-0.1 0.1-0.1 0.3 0 0.4h0.2z"/>
				
			
			
				
					<path d="m403.1 476.9c0.1 0 0.1 0 0.2-0.1s0.1-0.3 0-0.4l-17.7-15.4c-0.1-0.1-0.3-0.1-0.4 0s-0.1 0.3 0 0.4l17.7 15.4c0 0.1 0.1 0.1 0.2 0.1z"/>
				
			
			
				<rect transform="matrix(-1 -4.4934e-11 4.4934e-11 -1 800.35 923.53)" x="397.4" y="447.3" width="5.6" height="29" fill="#A0A0A0" opacity=".2"/>
			<line x1="376.4" x2="353.2" y1="468.1" y2="446.4" fill="#7ACBF5"/>
		
		
			<path d="m183.6 325.3h0.1c0.1-0.1 0.2-0.2 0.1-0.3l-10.2-20.6c-0.1-0.1-0.2-0.2-0.3-0.1l-20.3 9-9-20.9c-0.1-0.1-0.2-0.2-0.3-0.1s-0.2 0.2-0.1 0.3l9 21.1c0 0.1 0.1 0.1 0.1 0.1h0.2l20.4-9 10.1 20.4c0 0.1 0.1 0.1 0.2 0.1z"/>
		
		<path d="m181.5 322.5c-0.7 1.9 0.3 3.9 2.2 4.6s3.9-0.3 4.6-2.2-0.3-3.9-2.2-4.6c-1.8-0.7-3.9 0.3-4.6 2.2z" fill="#ACD4F7"/>
		<path d="m170 302c-0.8 2.2 0.4 4.7 2.6 5.5s4.7-0.4 5.5-2.6-0.4-4.7-2.6-5.5c-2.3-0.8-4.7 0.4-5.5 2.6z" fill="#ACD4F7"/>
		<path d="m150.3 309.2c-1.7 1.7-1.7 4.4 0 6 1.7 1.7 4.4 1.7 6 0 1.7-1.7 1.7-4.4 0-6-1.6-1.7-4.3-1.7-6 0z" fill="#ACD4F7"/>
		<path d="m140.5 289.7c-0.8 2.1 0.4 4.5 2.5 5.2 2.1 0.8 4.5-0.4 5.2-2.5 0.8-2.1-0.4-4.5-2.5-5.2s-4.5 0.4-5.2 2.5z" fill="#ACD4F7"/>
		
			<path d="m182.6 327.6c-2.1-0.8-3.1-3.2-2.3-5.3s3.2-3.1 5.3-2.3 3.1 3.2 2.3 5.3c-0.4 1-1.2 1.8-2.2 2.2-0.5 0.2-1.1 0.3-1.6 0.3s-1 0-1.5-0.2zm-1.4-5c-0.6 1.6 0.1 3.4 1.7 4 0.8 0.3 1.6 0.3 2.4 0s1.3-0.9 1.7-1.7c0.6-1.6-0.1-3.4-1.7-4-0.4-0.1-0.8-0.2-1.1-0.2-1.3 0-2.5 0.7-3 1.9z"/>
		
		
			<path d="m172.2 307.6c-2.4-1-3.6-3.8-2.7-6.2 0.5-1.2 1.4-2.1 2.6-2.6s2.5-0.5 3.7 0c2.4 1 3.6 3.8 2.7 6.2-0.7 1.9-2.5 3-4.4 3-0.8-0.1-1.4-0.2-1.9-0.4zm-1.8-5.9c-0.8 1.9 0.2 4.1 2.1 4.9s4.1-0.2 4.9-2.1c0.4-0.9 0.4-2 0-2.9s-1.1-1.6-2.1-2c-0.5-0.2-0.9-0.3-1.4-0.3-1.5 0-2.9 0.9-3.5 2.4z"/>
		
		
			<path d="m151.6 316.6c-2.4-1-3.6-3.8-2.7-6.2 1-2.4 3.8-3.6 6.2-2.7 1.2 0.5 2.1 1.4 2.6 2.6s0.5 2.5 0 3.7c-0.7 1.9-2.5 3-4.4 3-0.5 0-1.1-0.1-1.7-0.4zm-1.7-5.8c-0.8 1.9 0.2 4.1 2.1 4.9s4.1-0.2 4.9-2.1-0.2-4.1-2.1-4.9c-0.5-0.2-0.9-0.3-1.4-0.3-1.5 0-2.9 0.9-3.5 2.4z"/>
		
		
			<path d="m142.6 295.4c-1.1-0.5-2-1.3-2.5-2.5-0.5-1.1-0.5-2.4 0-3.5 0.9-2.4 3.6-3.5 6-2.6 1.1 0.5 2 1.3 2.5 2.5 0.5 1.1 0.5 2.4 0 3.5s-1.3 2-2.5 2.5c-0.6 0.2-1.2 0.4-1.8 0.4s-1.1-0.1-1.7-0.3zm-1.6-5.6c-0.4 0.9-0.3 1.9 0 2.8 0.4 0.9 1.1 1.6 2 1.9 1.8 0.7 3.9-0.2 4.7-2 0.7-1.8-0.2-3.9-2-4.7-0.4-0.2-0.9-0.3-1.3-0.3-1.5 0-2.9 0.8-3.4 2.3z"/>
		
		
			<path d="m60.5 65.5h0.1c0.1-0.1 0.2-0.2 0.1-0.3l-10.2-20.7c-0.1-0.1-0.2-0.2-0.3-0.1l-20.3 9-9-20.9c-0.1-0.1-0.2-0.2-0.3-0.1s-0.2 0.2-0.1 0.3l9 21.1c0 0.1 0.1 0.1 0.1 0.1h0.2l20.4-9 10.1 20.4c0 0.2 0.1 0.2 0.2 0.2z"/>
		
		<path d="m58.4 62.7c-0.7 1.9 0.3 3.9 2.2 4.6s3.9-0.3 4.6-2.2-0.3-3.9-2.2-4.6c-1.8-0.7-3.9 0.3-4.6 2.2z" fill="#ACD4F7"/>
		<path d="m46.9 42.2c-0.8 2.2 0.4 4.7 2.6 5.5s4.7-0.4 5.5-2.6-0.4-4.7-2.6-5.5c-2.3-0.8-4.7 0.4-5.5 2.6z" fill="#ACD4F7"/>
		<path d="m27.2 49.4c-1.7 1.7-1.7 4.4 0 6 1.7 1.7 4.4 1.7 6 0 1.7-1.7 1.7-4.4 0-6-1.6-1.7-4.3-1.7-6 0z" fill="#ACD4F7"/>
		<path d="m17.4 29.9c-0.8 2.1 0.4 4.5 2.5 5.2 2.1 0.8 4.5-0.4 5.2-2.5 0.8-2.1-0.4-4.5-2.5-5.2s-4.5 0.4-5.2 2.5z" fill="#ACD4F7"/>
		
			<path d="m59.5 67.7c-2.1-0.8-3.1-3.2-2.3-5.3s3.2-3.1 5.3-2.3 3.1 3.2 2.3 5.3c-0.4 1-1.2 1.8-2.2 2.2-0.5 0.3-1 0.4-1.6 0.4-0.5 0-1-0.1-1.5-0.3zm-1.4-4.9c-0.6 1.6 0.1 3.4 1.7 4 0.8 0.3 1.6 0.3 2.4 0s1.3-0.9 1.7-1.7c0.6-1.6-0.1-3.4-1.7-4-0.4-0.1-0.8-0.2-1.1-0.2-1.3 0-2.5 0.7-3 1.9z"/>
		
		
			<path d="m49.1 47.7c-2.4-1-3.6-3.8-2.7-6.2 0.5-1.2 1.4-2.1 2.6-2.6s2.5-0.5 3.7 0c2.4 1 3.6 3.8 2.7 6.2-0.7 1.9-2.5 3-4.4 3-0.8 0-1.4-0.1-1.9-0.4zm-1.8-5.8c-0.8 1.9 0.2 4.1 2.1 4.9s4.1-0.2 4.9-2.1c0.4-0.9 0.4-2 0-2.9s-1.1-1.6-2.1-2c-0.5-0.2-0.9-0.3-1.4-0.3-1.5 0-2.9 0.9-3.5 2.4z"/>
		
		
			<path d="m28.5 56.8c-2.4-1-3.6-3.8-2.7-6.2 1-2.4 3.8-3.6 6.2-2.7 1.2 0.5 2.1 1.4 2.6 2.6s0.5 2.5 0 3.7c-0.7 1.9-2.5 3-4.4 3-0.5 0-1.1-0.1-1.7-0.4zm-1.7-5.8c-0.8 1.9 0.2 4.1 2.1 4.9s4.1-0.2 4.9-2.1-0.2-4.1-2.1-4.9c-0.5-0.2-0.9-0.3-1.4-0.3-1.5 0-2.9 0.9-3.5 2.4z"/>
		
		
			<path d="m19.5 35.6c-1.1-0.5-2-1.3-2.5-2.5-0.5-1.1-0.5-2.4 0-3.5 0.9-2.4 3.6-3.5 6-2.6 1.1 0.5 2 1.3 2.5 2.5 0.5 1.1 0.5 2.4 0 3.5s-1.3 2-2.5 2.5c-0.6 0.2-1.2 0.4-1.8 0.4s-1.1-0.1-1.7-0.3zm-1.6-5.7c-0.4 0.9-0.3 1.9 0 2.8 0.4 0.9 1.1 1.6 2 1.9 1.8 0.7 3.9-0.2 4.7-2 0.7-1.8-0.2-3.9-2-4.7-0.4-0.2-0.9-0.3-1.3-0.3-1.5 0.1-2.9 0.9-3.4 2.3z"/>
		
		<path d="m312 830.5s7.8-2.6 6.5-10.4-10.4-6.5-10.4-6.5 2.6-18.3-14.3-18.3-17 15.6-17 15.6-14.3-2.6-14.3 9.1 11.7 10.4 11.7 10.4h37.8z" fill="#6AB3D9"/>
		<path d="m317.7 830.4s7.8-2.6 6.5-10.4-10.4-6.5-10.4-6.5 2.6-18.3-14.3-18.3-17 15.6-17 15.6-14.3-2.6-14.3 9.1 11.7 10.4 11.7 10.4h37.8z" fill="#ACD4F7"/>
		
			
				<path d="m270.8 828.3c-2.1-1.9-3.2-4.7-3.2-8.3 0-3.2 1-5.7 3-7.3 3.7-3.1 9.5-2.6 11.3-2.4 0.2-2.9 2.1-15.6 17.4-15.6 4.9 0 8.7 1.5 11.3 4.5 4.1 4.7 3.8 11.6 3.6 13.7 2.2-0.1 9.2 0 10.4 7 1.4 8.2-6.8 11-6.9 11h-0.1-37.8-1.1c-1.7 0.1-5.3-0.2-7.9-2.6zm52.9-8.2c-1.2-7.2-9.5-6.2-9.9-6.1l-0.7 0.1 0.1-0.7c0-0.1 1.1-8.4-3.3-13.6-2.4-2.7-5.9-4.1-10.5-4.1-16.2 0-16.5 14.5-16.5 15.1v0.6l-0.6-0.1c-0.1 0-7.1-1.2-11.1 2.1-1.8 1.5-2.7 3.7-2.7 6.6 0 3.3 1 5.8 2.8 7.5 3.3 2.9 8.3 2.4 8.4 2.4h37.7c0.9-0.2 7.4-2.9 6.3-9.8z"/>
			
		
		<path d="m304.6 795s8.6 10 5.7 21.3c0 0 8.5-1.5 9.7 4.7 1.2 6.3-1.5 9.7-1.5 9.7s8.2-4.1 6.6-11.8c-0.4-1.8-1.5-3.4-3.1-4.2-3.3-1.7-7.9-1.5-7.9-1.5s3.4-12.4-9.5-18.2z" fill="#A0A0A0" opacity=".2"/>
		
			<path d="m271 57.4s7.8-2.6 6.5-10.4-10.4-6.5-10.4-6.5 2.6-18.3-14.3-18.3c-17 0-17 15.6-17 15.6s-14.3-2.6-14.3 9.1 11.7 10.4 11.7 10.4h37.8z" fill="#6AB3D9"/>
			<path d="m276.6 57.4s7.8-2.6 6.5-10.4-10.4-6.5-10.4-6.5 2.6-18.3-14.3-18.3c-17 0-17 15.6-17 15.6s-14.4-2.6-14.4 9.2c0 11.7 11.7 10.4 11.7 10.4h37.9z" fill="#ACD4F7"/>
			
				
					<path d="m229.7 55.2c-2.1-1.9-3.2-4.7-3.2-8.3 0-3.2 1-5.7 3-7.3 3.7-3.1 9.5-2.6 11.3-2.4 0.2-2.9 2.1-15.6 17.4-15.6 4.9 0 8.7 1.5 11.3 4.5 4.1 4.7 3.8 11.6 3.6 13.7 2.2-0.1 9.2 0 10.4 7 1.4 8.2-6.8 11-6.9 11h-0.1-37.8-1.1c-1.7 0.1-5.2-0.2-7.9-2.6zm52.9-8.2c-1.2-7.2-9.5-6.2-9.9-6.1l-0.7 0.1 0.1-0.7c0-0.1 1.1-8.4-3.3-13.6-2.4-2.7-5.9-4.1-10.5-4.1-16.2 0-16.5 14.5-16.5 15.1v0.6l-0.6-0.1c-0.1 0-7.1-1.2-11.1 2.1-1.8 1.5-2.7 3.7-2.7 6.6 0 3.3 1 5.8 2.8 7.5 3.3 2.9 8.3 2.4 8.4 2.4h37.7c1-0.2 7.5-2.8 6.3-9.8z"/>
				
			
		
		<path d="m263.5 22s8.6 10 5.7 21.3c0 0 8.5-1.5 9.7 4.7 1.2 6.3-1.5 9.7-1.5 9.7s8.2-4.1 6.6-11.8c-0.4-1.8-1.5-3.4-3.1-4.2-3.3-1.7-7.9-1.5-7.9-1.5s3.4-12.5-9.5-18.2z" fill="#A0A0A0" opacity=".2"/>
		<path d="m416.4 412.6s7.8-2.6 6.5-10.4-10.4-6.5-10.4-6.5 2.6-18.3-14.3-18.3c-17 0-17 15.6-17 15.6s-14.3-2.6-14.3 9.1 11.7 10.4 11.7 10.4h37.8z" fill="#A0A0A0" opacity=".2"/>
		<path d="m422.8 411.8s7.8-2.6 6.5-10.4-10.4-6.5-10.4-6.5 2.6-18.3-14.3-18.3c-17 0-17 15.6-17 15.6s-14.3-2.6-14.3 9.1 11.7 10.4 11.7 10.4h37.8z" fill="#F2F0E8"/>
		
			
				<path d="m376 409.6c-2.1-1.9-3.2-4.7-3.2-8.3 0-3.2 1-5.7 3-7.3 3.7-3.1 9.5-2.6 11.3-2.4 0.2-2.9 2.1-15.6 17.4-15.6 4.9 0 8.7 1.5 11.3 4.5 4.1 4.7 3.8 11.6 3.6 13.7 2.2-0.1 9.2 0 10.4 7 1.4 8.2-6.8 11-6.9 11h-0.1-37.8-1.1c-1.7 0.1-5.3-0.2-7.9-2.6zm52.9-8.2c-1.2-7.2-9.5-6.2-9.9-6.1l-0.7 0.1 0.1-0.7c0-0.1 1.1-8.4-3.3-13.6-2.4-2.7-5.9-4.1-10.5-4.1-16.2 0-16.5 14.5-16.5 15.1v0.6l-0.6-0.1c-0.1 0-7.1-1.2-11.1 2.1-1.8 1.5-2.7 3.7-2.7 6.6 0 3.3 1 5.8 2.8 7.5 3.3 2.9 8.3 2.4 8.4 2.4h37.7c0.9-0.2 7.4-2.8 6.3-9.8z"/>
			
		
		<path d="m408.9 376.3s8.6 10 5.7 21.3c0 0 8.5-1.5 9.7 4.7 1.2 6.3-1.5 9.7-1.5 9.7s8.2-4.1 6.6-11.8c-0.4-1.8-1.5-3.4-3.1-4.2-3.3-1.7-7.9-1.5-7.9-1.5s3.4-12.4-9.5-18.2z" fill="#A0A0A0" opacity=".2"/>
		<path d="m250.9 584.9s8.6 10 5.7 21.3c0 0 8.5-1.5 9.7 4.7 1.2 6.3-1.5 9.7-1.5 9.7s8.2-4.1 6.6-11.8c-0.4-1.8-1.5-3.4-3.1-4.2-3.3-1.7-7.9-1.5-7.9-1.5s3.4-12.4-9.5-18.2z" fill="#A0A0A0" opacity=".2"/>
		<path d="m259 620.1s7.8-2.6 6.5-10.4-10.4-6.5-10.4-6.5 2.6-18.3-14.3-18.3-17 15.6-17 15.6-14.3-2.6-14.3 9.1 11.7 10.4 11.7 10.4h37.8z" fill="#A0A0A0" opacity=".2"/>
		<path d="m264.6 620.1s7.8-2.6 6.5-10.4-10.4-6.5-10.4-6.5 2.6-18.3-14.3-18.3-17 15.6-17 15.6-14.3-2.6-14.3 9.1 11.7 10.4 11.7 10.4h37.8z" fill="#F2F0E8"/>
		
			
				<path d="m217.7 618c-2.1-1.9-3.2-4.7-3.2-8.3 0-3.2 1-5.7 3-7.3 3.7-3.1 9.5-2.6 11.3-2.4 0.2-2.9 2.1-15.6 17.4-15.6 4.9 0 8.7 1.5 11.3 4.5 4.1 4.7 3.8 11.6 3.6 13.7 2.2-0.1 9.2 0 10.4 7 1.4 8.2-6.8 11-6.9 11h-0.1-37.8-1.1c-1.6 0.1-5.2-0.3-7.9-2.6zm52.9-8.2c-1.2-7.2-9.5-6.2-9.9-6.1l-0.7 0.1 0.1-0.7c0-0.1 1.1-8.4-3.3-13.6-2.4-2.7-5.9-4.1-10.5-4.1-16.2 0-16.5 14.5-16.5 15.1v0.6l-0.6-0.1c-0.1 0-7.1-1.2-11.1 2.1-1.8 1.5-2.7 3.7-2.7 6.6 0 3.3 1 5.8 2.8 7.5 3.3 2.9 8.3 2.4 8.4 2.4h37.7c1-0.2 7.5-2.9 6.3-9.8z"/>
			
		
		<polyline points="246 621.5 246 626.1 249.9 626.1 246.8 631.5 243.7 636.9 240.6 631.5 237.5 626.1 241.4 626.1 241.4 613.4 246 613.4" fill="#7ACBF5"/>
		
			<path d="m246 613.1h-4.6c-0.1 0-0.2 0.1-0.2 0.2v12.4h-3.7c-0.1 0-0.2 0-0.2 0.1v0.2l6.2 10.8c0.1 0.2 0.3 0.2 0.4 0l6.2-10.8v-0.2c0-0.1-0.1-0.1-0.2-0.1h-3.7v-4.3c0-0.1-0.1-0.2-0.2-0.2s-0.2 0.1-0.2 0.2v4.6c0 0.1 0.1 0.2 0.2 0.2h3.5l-5.8 10.1-5.8-10.1h3.5c0.1 0 0.2-0.1 0.2-0.2v-12.4h4.3c0.1 0 0.2-0.1 0.2-0.2 0.1-0.2 0-0.3-0.1-0.3z"/>
		
		<path d="m103.1 316.8s7.8-2.6 6.5-10.4-10.4-6.5-10.4-6.5 2.6-18.3-14.3-18.3-17 15.6-17 15.6-14.3-2.6-14.3 9.1 11.7 10.4 11.7 10.4h37.8z" fill="#A0A0A0" opacity=".2"/>
		<path d="m108.7 316.7s7.8-2.6 6.5-10.4-10.4-6.5-10.4-6.5 2.6-18.3-14.3-18.3-17 15.6-17 15.6-14.3-2.6-14.3 9.1 11.7 10.4 11.7 10.4h37.8z" fill="#F2F0E8"/>
		
			
				<path d="m61.9 314.6c-2.1-1.9-3.2-4.7-3.2-8.3 0-3.2 1-5.7 3-7.3 3.7-3.1 9.5-2.6 11.3-2.4 0.2-2.9 2.1-15.6 17.4-15.6 4.9 0 8.7 1.5 11.3 4.5 4.1 4.7 3.8 11.6 3.6 13.7 2.2-0.1 9.2 0 10.4 7 1.4 8.2-6.8 11-6.9 11h-0.1-37.8-1.1c-1.7 0.1-5.3-0.2-7.9-2.6zm52.9-8.2c-1.2-7.2-9.5-6.2-9.9-6.1l-0.7 0.1 0.1-0.7c0-0.1 1.1-8.4-3.3-13.6-2.4-2.7-5.9-4.1-10.5-4.1-16.3 0-16.5 14.6-16.5 15.2v0.6l-0.6-0.1c-0.1 0-7.1-1.2-11.1 2.1-1.8 1.5-2.7 3.7-2.7 6.6 0 3.3 1 5.8 2.8 7.5 3.3 2.9 8.3 2.4 8.4 2.4h37.7c0.9-0.3 7.4-3 6.3-9.9z"/>
			
		
		<polyline points="430.4 652.2 430.4 656.8 434.3 656.8 431.2 662.2 428.1 667.6 425 662.2 421.9 656.8 425.8 656.8 425.8 644.1 430.4 644.1" fill="#7ACBF5"/>
		
			<path d="m430.4 643.8h-4.6c-0.1 0-0.2 0.1-0.2 0.2v12.4h-3.7c-0.1 0-0.2 0-0.2 0.1v0.2l6.2 10.8c0.1 0.2 0.3 0.2 0.4 0l6.2-10.8v-0.2c0-0.1-0.1-0.1-0.2-0.1h-3.7v-4.3c0-0.1-0.1-0.2-0.2-0.2s-0.2 0.1-0.2 0.2v4.6c0 0.1 0.1 0.2 0.2 0.2h3.5l-5.8 10.1-5.8-10.1h3.5c0.1 0 0.2-0.1 0.2-0.2v-12.4h4.3c0.1 0 0.2-0.1 0.2-0.2 0.1-0.2 0-0.3-0.1-0.3z"/>
		
		<path d="m385.5 309.3s0.5-7.5 7.5-8.2c4.8-0.5 9.3-0.4 11.4-0.4h2.2c2.7-0.1 10.6 0.4 11 8.8 0.4 9.6-2.4 13.6-11.7 13.7-0.9 0-1.8 0.5-2.3 1.3-0.9 1.4-2.6 3.4-5.1 3.4 0 0 3.5-4.7 0-4.7s-11.3-0.8-12.5-4.3c-1.1-3.7-0.5-9.6-0.5-9.6z" fill="#6AB3D9"/>
		
			<path d="m398.7 327.5c-0.1-0.2-0.1-0.4 0-0.5 0.8-1 1.7-2.8 1.4-3.5-0.1-0.2-0.5-0.4-1-0.4s-11.4-0.1-13-4.6c-1.3-3.7-0.7-9.4-0.6-9.8 0-0.4 0.8-7.9 8-8.7 4.8-0.5 9.3-0.4 11.5-0.4h2.2c2.6 0 11.1 0.4 11.5 9.2 0.2 5.5-0.6 9-2.7 11.2-1.9 2-4.9 3-9.5 3-0.8 0-1.5 0.4-1.9 1-0.9 1.3-2.7 3.6-5.6 3.6-0.1 0.2-0.3 0.1-0.3-0.1zm8.5-26.8h-2.2c-2.2-0.1-6.7-0.2-11.4 0.4-6.5 0.7-7.1 7.5-7.1 7.8 0 0.1-0.6 5.8 0.6 9.3 1 2.9 7.7 4 12 4 0.9 0 1.6 0.3 1.9 0.9 0.5 1-0.2 2.6-0.9 3.6 1.7-0.4 2.9-1.8 3.7-3 0.6-0.9 1.6-1.5 2.7-1.5 4.2 0 7-0.9 8.8-2.7 1.9-2 2.6-5.2 2.4-10.4-0.3-7.4-6.8-8.3-10-8.3-0.2-0.1-0.3-0.1-0.5-0.1z"/>
		
		<path d="m394.9 311v0.6c0 0.4 0.3 0.7 0.7 0.7h0.4c0.1 0.6 0.3 1.1 0.7 1.6l-0.1 0.1-0.4 0.5c-0.2 0.3-0.2 0.7 0.1 0.9l0.5 0.4c0.3 0.2 0.7 0.2 0.9-0.1l0.2-0.3c0.6 0.4 1.2 0.8 2 1v0.6c0 0.4 0.3 0.7 0.7 0.7h0.6c0.4 0 0.7-0.3 0.7-0.7v-0.5c0.7-0.1 1.4-0.3 2-0.7l0.3 0.4c0.2 0.3 0.7 0.3 0.9 0l0.5-0.4c0.3-0.2 0.3-0.7 0-0.9l-0.3-0.3c0.5-0.6 0.9-1.4 1-2.2h0.4c0.4 0 0.7-0.3 0.7-0.7v-0.7c0-0.4-0.3-0.7-0.7-0.7h-0.4c-0.1-0.9-0.5-1.6-1-2.3l0.2-0.3c0.2-0.3 0.2-0.7-0.1-0.9l-0.5-0.4c-0.3-0.2-0.7-0.2-0.9 0.1l-0.1 0.2c-0.6-0.4-1.4-0.7-2.1-0.8v-0.4c0-0.4-0.3-0.7-0.7-0.7h-0.6c-0.4 0-0.7 0.3-0.7 0.7v0.5c-0.6 0.2-1.2 0.4-1.8 0.8l-0.1-0.1-0.5-0.4c-0.3-0.2-0.7-0.2-0.9 0.1l-0.4 0.5c-0.2 0.3-0.2 0.7 0.1 0.9l0.4 0.3c-0.4 0.6-0.7 1.3-0.8 2.1h-0.4c-0.2 0.2-0.5 0.5-0.5 0.8zm4.2 0.3c0-1.1 0.9-2.1 2.1-2.1s2.1 0.9 2.1 2.1c0 1.1-0.9 2.1-2.1 2.1s-2.1-1-2.1-2.1z" fill="#F2F0E8"/>
		
			
				<path d="m327.7 788.5v-0.7c-1.1-0.3-2.2-0.8-3.1-1.5l-0.1 0.2c-0.6 0.8-1.7 0.9-2.4 0.3l-0.9-0.7c-0.4-0.3-0.6-0.7-0.7-1.2s0.1-0.9 0.3-1.3l0.6-0.8c-0.4-0.8-0.8-1.7-1-2.5h-0.4c-1 0-1.7-0.8-1.7-1.7v-1.2c0-1 0.8-1.7 1.7-1.7h0.3c0.2-1.2 0.7-2.3 1.3-3.3l-0.4-0.3c-0.4-0.3-0.6-0.7-0.7-1.2s0.1-0.9 0.3-1.3l0.7-0.9c0.6-0.8 1.7-0.9 2.4-0.3l0.8 0.6c0.9-0.5 1.8-1 2.8-1.2v-0.5c0-1 0.8-1.7 1.7-1.7h1.2c1 0 1.7 0.8 1.7 1.7v0.3c1.2 0.2 2.3 0.6 3.4 1.2 0.6-0.7 1.7-0.9 2.4-0.3l0.9 0.7c0.4 0.3 0.6 0.7 0.7 1.2s-0.1 0.9-0.3 1.3l-0.2 0.3c0.8 1.1 1.3 2.4 1.6 3.8h0.3c1 0 1.7 0.8 1.7 1.7v1.2c0 1-0.8 1.7-1.7 1.7h-0.4c-0.3 1.3-0.9 2.5-1.7 3.6l0.3 0.3c0.3 0.3 0.5 0.8 0.5 1.2 0 0.5-0.2 0.9-0.6 1.2l-0.9 0.8c-0.7 0.6-1.8 0.6-2.5-0.1l-0.4-0.4c-1 0.5-2.1 0.9-3.2 1.1v0.4c0 1-0.8 1.7-1.7 1.7h-1.2c-0.6 0-1.4-0.8-1.4-1.7zm8.9-1.8c0.3 0.3 0.7 0.3 1 0l0.9-0.8c0.1-0.1 0.2-0.3 0.2-0.5s-0.1-0.4-0.2-0.5l-0.9-0.9 0.3-0.3c0.9-1.1 1.5-2.5 1.8-3.9l0.1-0.4h1.2c0.4 0 0.7-0.3 0.7-0.7v-1.2c0-0.4-0.3-0.7-0.7-0.7h-1.2l-0.1-0.4c-0.2-1.5-0.8-2.9-1.7-4.1l-0.2-0.3 0.7-0.9c0.1-0.2 0.2-0.3 0.1-0.5 0-0.2-0.1-0.4-0.3-0.5l-0.9-0.7c-0.3-0.2-0.8-0.2-1 0.1l-0.4 0.5-0.4-0.2c-1.2-0.7-2.4-1.2-3.8-1.4l-0.4-0.1v-1.1c0-0.4-0.3-0.7-0.7-0.7h-1.2c-0.4 0-0.7 0.3-0.7 0.7v1.3l-0.4 0.1c-1.1 0.3-2.2 0.8-3.1 1.4l-0.3 0.2-0.3-0.3-1-0.8c-0.3-0.2-0.8-0.2-1 0.1l-0.7 0.9c-0.1 0.2-0.2 0.3-0.1 0.5 0 0.2 0.1 0.4 0.3 0.5l1.1 0.8-0.3 0.4c-0.8 1.1-1.3 2.4-1.5 3.7l-0.1 0.4h-1.4c-0.4 0-0.7 0.3-0.7 0.7v1.2c0 0.4 0.3 0.7 0.7 0.7h1.2l0.1 0.4c0.2 1 0.6 2 1.2 2.9l0.2 0.3-0.4 0.4-0.7 0.9c-0.1 0.2-0.2 0.3-0.1 0.5 0 0.2 0.1 0.4 0.3 0.5l0.9 0.7c0.3 0.2 0.8 0.2 1-0.1l0.7-0.9 0.4 0.3c1 0.8 2.2 1.4 3.5 1.7l0.4 0.1v1.5c0 0.4 0.3 0.7 0.7 0.7h1.2c0.4 0 0.7-0.3 0.7-0.7v-1.3l0.4-0.1c1.3-0.2 2.5-0.6 3.6-1.2l0.4-0.2 0.9 1.3z"/>
			
		
		
			
				<path d="m326.5 777.9c0-2.3 1.8-4.1 4.1-4.1s4.1 1.8 4.1 4.1-1.8 4.1-4.1 4.1c-2.3-0.1-4.1-1.9-4.1-4.1zm0.5 0c0 2 1.6 3.6 3.6 3.6s3.6-1.6 3.6-3.6-1.6-3.6-3.6-3.6-3.6 1.6-3.6 3.6z"/>
			
		
		
			<path d="m332.5 754.7v1.2c0 0.7 0.6 1.3 1.3 1.3h0.8c0.2 1.1 0.7 2.2 1.2 3.1l-0.1 0.1-0.7 1c-0.4 0.6-0.3 1.3 0.2 1.8l1 0.7c0.6 0.4 1.3 0.3 1.8-0.2l0.4-0.6c1.1 0.9 2.4 1.5 3.8 1.8v1.1c0 0.7 0.6 1.3 1.3 1.3h1.2c0.7 0 1.3-0.6 1.3-1.3v-0.9c1.4-0.2 2.7-0.6 3.9-1.3l0.6 0.7c0.5 0.5 1.3 0.5 1.8 0.1l0.9-0.8c0.5-0.5 0.5-1.3 0.1-1.8l-0.6-0.6c1-1.2 1.6-2.6 2-4.2h0.8c0.7 0 1.3-0.6 1.3-1.3v-1.2c0-0.7-0.6-1.3-1.3-1.3h-0.8c-0.3-1.6-0.9-3.1-1.9-4.4l0.5-0.6c0.4-0.6 0.3-1.3-0.2-1.8l-1-0.7c-0.6-0.4-1.3-0.3-1.8 0.2l-0.3 0.3c-1.2-0.8-2.6-1.3-4.1-1.5v-0.7c0-0.7-0.6-1.3-1.3-1.3h-1.2c-0.7 0-1.3 0.6-1.3 1.3v0.9c-1.2 0.3-2.4 0.8-3.4 1.5l-0.1-0.1-1-0.7c-0.6-0.4-1.3-0.3-1.8 0.2l-0.7 1c-0.4 0.6-0.3 1.3 0.2 1.8l0.7 0.6c-0.8 1.2-1.4 2.6-1.6 4h-0.7c-0.6 0-1.2 0.6-1.2 1.3zm8.1 0.5c0-2.2 1.8-3.9 3.9-3.9s3.9 1.8 3.9 3.9c0 2.2-1.8 3.9-3.9 3.9s-3.9-1.8-3.9-3.9z" fill="#F2F0E8"/>
			
				
					<path d="m341.9 766.5v-0.7c-1.1-0.3-2.2-0.8-3.1-1.5l-0.1 0.2c-0.3 0.4-0.7 0.6-1.2 0.7s-0.9-0.1-1.3-0.3l-0.9-0.7c-0.4-0.3-0.6-0.7-0.7-1.2s0.1-0.9 0.3-1.3l0.6-0.8c-0.4-0.8-0.8-1.7-1-2.5h-0.4c-1 0-1.7-0.8-1.7-1.7v-1.2c0-1 0.8-1.7 1.7-1.7h0.3c0.2-1.2 0.7-2.3 1.3-3.3l-0.4-0.3c-0.4-0.3-0.6-0.7-0.7-1.2s0.1-0.9 0.3-1.3l0.7-0.9c0.6-0.8 1.7-0.9 2.4-0.3l0.8 0.6c0.9-0.5 1.8-1 2.8-1.2v-0.5c0-1 0.8-1.7 1.7-1.7h1.2c1 0 1.7 0.8 1.7 1.7v0.3c1.2 0.2 2.3 0.6 3.4 1.2 0.6-0.7 1.7-0.9 2.4-0.3l0.9 0.7c0.4 0.3 0.6 0.7 0.7 1.2s-0.1 0.9-0.3 1.3l-0.2 0.3c0.8 1.1 1.3 2.4 1.6 3.8h0.3c1 0 1.7 0.8 1.7 1.7v1.2c0 1-0.8 1.7-1.7 1.7h-0.4c-0.3 1.3-0.9 2.5-1.7 3.6l0.3 0.3c0.3 0.3 0.5 0.8 0.5 1.2 0 0.5-0.2 0.9-0.6 1.2l-0.9 0.8c-0.7 0.6-1.8 0.6-2.5-0.1l-0.4-0.4c-1 0.5-2.1 0.9-3.2 1.1v0.4c0 1-0.8 1.7-1.7 1.7h-1.2c-0.6-0.1-1.3-0.9-1.3-1.8zm8.9-1.8c0.3 0.3 0.7 0.3 1 0l0.9-0.8c0.1-0.1 0.2-0.3 0.2-0.5s-0.1-0.4-0.2-0.5l-0.9-0.9 0.3-0.3c0.9-1.1 1.5-2.5 1.8-3.9l0.1-0.4h1.2c0.4 0 0.7-0.3 0.7-0.7v-1.2c0-0.4-0.3-0.7-0.7-0.7h-1.2l-0.1-0.4c-0.2-1.5-0.8-2.9-1.7-4.1l-0.2-0.3 0.7-0.9c0.1-0.2 0.2-0.3 0.1-0.5 0-0.2-0.1-0.4-0.3-0.5l-0.9-0.7c-0.3-0.2-0.8-0.2-1 0.1l-0.5 0.7-0.4-0.2c-1.2-0.7-2.4-1.2-3.8-1.4l-0.4-0.1v-1.1c0-0.4-0.3-0.7-0.7-0.7h-1.2c-0.4 0-0.7 0.3-0.7 0.7v1.3l-0.4 0.1c-1.1 0.3-2.2 0.8-3.1 1.4l-0.4 0.2-0.3-0.3s0-0.1-0.1-0.1l-0.9-0.7c-0.3-0.2-0.8-0.2-1 0.1l-0.7 0.9c-0.1 0.2-0.2 0.3-0.1 0.5 0 0.2 0.1 0.4 0.3 0.5l1.1 0.8-0.3 0.4c-0.8 1.1-1.3 2.4-1.5 3.7l-0.1 0.4h-1.2c-0.4 0-0.7 0.3-0.7 0.7v1.2c0 0.4 0.3 0.7 0.7 0.7h1.2l0.1 0.4c0.2 1 0.6 2 1.2 2.9l0.2 0.3-0.4 0.4-0.7 0.9c-0.1 0.2-0.2 0.3-0.1 0.5 0 0.2 0.1 0.4 0.3 0.5l0.9 0.7c0.2 0.1 0.3 0.2 0.5 0.1 0.2 0 0.4-0.1 0.5-0.3l0.7-0.9 0.4 0.3c1 0.8 2.2 1.4 3.5 1.7l0.4 0.1v1.5c0 0.4 0.3 0.7 0.7 0.7h1.2c0.4 0 0.7-0.3 0.7-0.7v-1.3l0.4-0.1c1.3-0.2 2.5-0.6 3.6-1.2l0.4-0.2 0.9 1.2z"/>
				
			
			
				
					<path d="m340.6 755.9c0-2.3 1.8-4.1 4.1-4.1s4.1 1.8 4.1 4.1-1.8 4.1-4.1 4.1-4.1-1.9-4.1-4.1zm0.5 0c0 2 1.6 3.6 3.6 3.6s3.6-1.6 3.6-3.6-1.6-3.6-3.6-3.6-3.6 1.6-3.6 3.6z"/>
				
			
		
		
			<path d="m94.1 346.6v1.2c0 0.7 0.6 1.3 1.3 1.3h0.8c0.2 1.1 0.7 2.2 1.2 3.1l-0.1 0.1-0.7 1c-0.4 0.6-0.3 1.3 0.2 1.8l1 0.7c0.6 0.4 1.3 0.3 1.8-0.2l0.4-0.6c1.1 0.9 2.4 1.5 3.8 1.8v1.1c0 0.7 0.6 1.3 1.3 1.3h1.2c0.7 0 1.3-0.6 1.3-1.3v-0.9c1.4-0.2 2.7-0.6 3.9-1.3l0.6 0.7c0.5 0.5 1.3 0.5 1.8 0.1l0.9-0.8c0.5-0.5 0.5-1.3 0.1-1.8l-0.6-0.6c1-1.2 1.6-2.6 2-4.2h0.8c0.7 0 1.3-0.6 1.3-1.3v-1.2c0-0.7-0.6-1.3-1.3-1.3h-0.8c-0.3-1.6-0.9-3.1-1.9-4.4l0.5-0.6c0.4-0.6 0.3-1.3-0.2-1.8l-1-0.7c-0.6-0.4-1.3-0.3-1.8 0.2l-0.3 0.3c-1.2-0.8-2.6-1.3-4.1-1.5v-0.7c0-0.7-0.6-1.3-1.3-1.3h-1.2c-0.7 0-1.3 0.6-1.3 1.3v0.9c-1.2 0.3-2.4 0.8-3.4 1.5l-0.1-0.1-1-0.7c-0.6-0.4-1.3-0.3-1.8 0.2l-0.7 1c-0.4 0.6-0.3 1.3 0.2 1.8l0.7 0.6c-0.8 1.2-1.3 2.6-1.6 4h-0.7c-0.6 0-1.2 0.6-1.2 1.3zm8.1 0.5c0-2.2 1.8-3.9 3.9-3.9 2.2 0 3.9 1.8 3.9 3.9 0 2.2-1.8 3.9-3.9 3.9s-3.9-1.8-3.9-3.9z" fill="#F2F0E8"/>
			
				
					<path d="m103.4 358.4v-0.7c-1.1-0.3-2.2-0.8-3.1-1.5l-0.1 0.2c-0.3 0.4-0.7 0.6-1.2 0.7s-0.9-0.1-1.3-0.3l-0.9-0.7c-0.4-0.3-0.6-0.7-0.7-1.2s0.1-0.9 0.3-1.3l0.6-0.8c-0.4-0.8-0.8-1.7-1-2.5h-0.4c-1 0-1.7-0.8-1.7-1.7v-1.2c0-1 0.8-1.7 1.7-1.7h0.3c0.2-1.2 0.7-2.3 1.3-3.3l-0.4-0.3c-0.4-0.3-0.6-0.7-0.7-1.2s0.1-0.9 0.3-1.3l0.7-0.9c0.6-0.8 1.7-0.9 2.4-0.3l0.8 0.6c0.9-0.5 1.8-1 2.8-1.2v-0.5c0-1 0.8-1.7 1.7-1.7h1.2c1 0 1.7 0.8 1.7 1.7v0.3c1.2 0.2 2.3 0.6 3.4 1.2 0.6-0.7 1.7-0.9 2.4-0.3l0.9 0.7c0.4 0.3 0.6 0.7 0.7 1.2s-0.1 0.9-0.3 1.3l-0.2 0.3c0.8 1.1 1.3 2.4 1.6 3.8h0.3c1 0 1.7 0.8 1.7 1.7v1.2c0 1-0.8 1.7-1.7 1.7h-0.4c-0.3 1.3-0.9 2.5-1.7 3.6l0.3 0.3c0.3 0.3 0.5 0.8 0.5 1.2 0 0.5-0.2 0.9-0.6 1.2l-0.9 0.8c-0.7 0.6-1.8 0.6-2.5-0.1l-0.4-0.4c-1 0.5-2.1 0.9-3.2 1.1v0.4c0 1-0.8 1.7-1.7 1.7h-1.2c-0.5-0.1-1.3-0.8-1.3-1.8zm9-1.8c0.3 0.3 0.7 0.3 1 0l0.9-0.8c0.1-0.1 0.2-0.3 0.2-0.5s-0.1-0.4-0.2-0.5l-0.9-0.9 0.3-0.3c0.9-1.1 1.5-2.5 1.8-3.9l0.1-0.4h1.2c0.4 0 0.7-0.3 0.7-0.7v-1.2c0-0.4-0.3-0.7-0.7-0.7h-1.2l-0.1-0.4c-0.2-1.5-0.8-2.9-1.7-4.1l-0.2-0.3 0.7-0.9c0.1-0.2 0.2-0.3 0.1-0.5 0-0.2-0.1-0.4-0.3-0.5l-0.9-0.7c-0.3-0.2-0.8-0.2-1 0.1l-0.5 0.7-0.4-0.2c-1.2-0.7-2.4-1.2-3.8-1.4l-0.4-0.1v-1.1c0-0.4-0.3-0.7-0.7-0.7h-1.2c-0.4 0-0.7 0.3-0.7 0.7v1.3l-0.4 0.1c-1.1 0.3-2.2 0.8-3.1 1.4l-0.4 0.2-0.3-0.3s0-0.1-0.1-0.1l-0.9-0.7c-0.3-0.2-0.8-0.2-1 0.1l-0.7 0.9c-0.1 0.2-0.2 0.3-0.1 0.5 0 0.2 0.1 0.4 0.3 0.5l1.1 0.8-0.3 0.4c-0.8 1.1-1.3 2.4-1.5 3.7l-0.1 0.4h-1.2c-0.4 0-0.7 0.3-0.7 0.7v1.2c0 0.4 0.3 0.7 0.7 0.7h1.2l0.1 0.4c0.2 1 0.6 2 1.2 2.9l0.2 0.3-0.4 0.4-0.7 0.9c-0.1 0.2-0.2 0.3-0.1 0.5 0 0.2 0.1 0.4 0.3 0.5l0.9 0.7c0.2 0.1 0.3 0.2 0.5 0.1 0.2 0 0.4-0.1 0.5-0.3l0.7-0.9 0.4 0.3c1 0.8 2.2 1.4 3.5 1.7l0.4 0.1v1.5c0 0.4 0.3 0.7 0.7 0.7h1.2c0.4 0 0.7-0.3 0.7-0.7v-1.3l0.4-0.1c1.3-0.2 2.5-0.6 3.6-1.2l0.4-0.2 0.9 1.2z"/>
				
			
			
				
					<path d="m102.2 347.8c0-2.3 1.8-4.1 4.1-4.1s4.1 1.8 4.1 4.1-1.8 4.1-4.1 4.1c-2.2 0-4.1-1.9-4.1-4.1zm0.5 0c0 2 1.6 3.6 3.6 3.6s3.6-1.6 3.6-3.6-1.6-3.6-3.6-3.6-3.6 1.6-3.6 3.6z"/>
				
			
		
		<path d="m286.1 195.8v1.2c0 0.7 0.6 1.3 1.3 1.3h0.8c0.2 1.1 0.7 2.2 1.2 3.1l-0.1 0.1-0.7 1c-0.4 0.6-0.3 1.3 0.2 1.8l1 0.7c0.6 0.4 1.3 0.3 1.8-0.2l0.4-0.6c1.1 0.9 2.4 1.5 3.8 1.8v1.1c0 0.7 0.6 1.3 1.3 1.3h1.2c0.7 0 1.3-0.6 1.3-1.3v-0.9c1.4-0.2 2.7-0.6 3.9-1.3l0.6 0.7c0.5 0.5 1.3 0.5 1.8 0.1l0.9-0.8c0.5-0.5 0.5-1.3 0.1-1.8l-0.6-0.6c1-1.2 1.6-2.6 2-4.2h0.8c0.7 0 1.3-0.6 1.3-1.3v-1.2c0-0.7-0.6-1.3-1.3-1.3h-0.8c-0.3-1.6-0.9-3.1-1.9-4.4l0.5-0.6c0.4-0.6 0.3-1.3-0.2-1.8l-1-0.7c-0.6-0.4-1.3-0.3-1.8 0.2l-0.3 0.3c-1.2-0.8-2.6-1.3-4.1-1.5v-0.7c0-0.7-0.6-1.3-1.3-1.3h-1.2c-0.7 0-1.3 0.6-1.3 1.3v0.9c-1.2 0.3-2.4 0.8-3.4 1.5l-0.1-0.1-1-0.7c-0.6-0.4-1.3-0.3-1.8 0.2l-0.7 1c-0.4 0.6-0.3 1.3 0.2 1.8l0.7 0.6c-0.8 1.2-1.4 2.6-1.6 4h-0.7c-0.7 0-1.2 0.6-1.2 1.3zm8 0.4c0-2.2 1.8-3.9 3.9-3.9s3.9 1.8 3.9 3.9c0 2.2-1.8 3.9-3.9 3.9s-3.9-1.7-3.9-3.9z" fill="#F2F0E8"/>
		
			
				<path d="m295.4 207.6v-0.7c-1.1-0.3-2.2-0.8-3.1-1.5l-0.1 0.2c-0.3 0.4-0.7 0.6-1.2 0.7s-0.9-0.1-1.3-0.3l-0.9-0.7c-0.4-0.3-0.6-0.7-0.7-1.2s0.1-0.9 0.3-1.3l0.6-0.8c-0.4-0.8-0.8-1.7-1-2.5h-0.4c-1 0-1.7-0.8-1.7-1.7v-1.2c0-1 0.8-1.7 1.7-1.7h0.3c0.2-1.2 0.7-2.3 1.3-3.3l-0.4-0.3c-0.4-0.3-0.6-0.7-0.7-1.2s0.1-0.9 0.3-1.3l0.7-0.9c0.6-0.8 1.7-0.9 2.4-0.3l0.8 0.6c0.9-0.5 1.8-1 2.8-1.2v-0.5c0-1 0.8-1.7 1.7-1.7h1.2c1 0 1.7 0.8 1.7 1.7v0.3c1.2 0.2 2.3 0.6 3.4 1.2 0.6-0.7 1.7-0.9 2.4-0.3l0.9 0.7c0.4 0.3 0.6 0.7 0.7 1.2s-0.1 0.9-0.3 1.3l-0.2 0.3c0.8 1.1 1.3 2.4 1.6 3.8h0.3c1 0 1.7 0.8 1.7 1.7v1.2c0 1-0.8 1.7-1.7 1.7h-0.4c-0.3 1.3-0.9 2.5-1.7 3.6l0.3 0.3c0.3 0.3 0.5 0.8 0.5 1.2 0 0.5-0.2 0.9-0.6 1.2l-0.9 0.8c-0.7 0.6-1.8 0.6-2.5-0.1l-0.4-0.4c-1 0.5-2.1 0.9-3.2 1.1v0.4c0 1-0.8 1.7-1.7 1.7h-1.2c-0.5-0.1-1.3-0.9-1.3-1.8zm8.9-1.9c0.3 0.3 0.7 0.3 1 0l0.9-0.8c0.1-0.1 0.2-0.3 0.2-0.5s-0.1-0.4-0.2-0.5l-0.9-0.9 0.3-0.3c0.9-1.1 1.5-2.5 1.8-3.9l0.1-0.4h1.2c0.4 0 0.7-0.3 0.7-0.7v-1.2c0-0.4-0.3-0.7-0.7-0.7h-1.2l-0.1-0.4c-0.2-1.5-0.8-2.9-1.7-4.1l-0.2-0.3 0.7-0.9c0.1-0.2 0.2-0.3 0.1-0.5 0-0.2-0.1-0.4-0.3-0.5l-0.9-0.7c-0.3-0.2-0.8-0.2-1 0.1l-0.5 0.7-0.4-0.2c-1.2-0.7-2.4-1.2-3.8-1.4l-0.4-0.1v-1.1c0-0.4-0.3-0.7-0.7-0.7h-1.2c-0.4 0-0.7 0.3-0.7 0.7v1.3l-0.4 0.1c-1.1 0.3-2.2 0.8-3.1 1.4l-0.4 0.2-0.3-0.3s0-0.1-0.1-0.1l-0.9-0.7c-0.3-0.2-0.8-0.2-1 0.1l-0.7 0.9c-0.1 0.2-0.2 0.3-0.1 0.5 0 0.2 0.1 0.4 0.3 0.5l1.1 0.8-0.3 0.4c-0.8 1.1-1.3 2.4-1.5 3.7l-0.1 0.4h-1.2c-0.4 0-0.7 0.3-0.7 0.7v1.2c0 0.4 0.3 0.7 0.7 0.7h1.2l0.1 0.4c0.2 1 0.6 2 1.2 2.9l0.2 0.3-0.4 0.4-0.7 0.9c-0.1 0.2-0.2 0.3-0.1 0.5 0 0.2 0.1 0.4 0.3 0.5l0.9 0.7c0.2 0.1 0.3 0.2 0.5 0.1 0.2 0 0.4-0.1 0.5-0.3l0.7-0.9 0.4 0.3c1 0.8 2.2 1.4 3.5 1.7l0.4 0.1v1.5c0 0.4 0.3 0.7 0.7 0.7h1.2c0.4 0 0.7-0.3 0.7-0.7v-1.3l0.4-0.1c1.3-0.2 2.5-0.6 3.6-1.2l0.4-0.2 0.9 1.2z"/>
			
		
		
			
				<path d="m294.2 196.9c0-2.3 1.8-4.1 4.1-4.1s4.1 1.8 4.1 4.1-1.8 4.1-4.1 4.1-4.1-1.8-4.1-4.1zm0.5 0c0 2 1.6 3.6 3.6 3.6s3.6-1.6 3.6-3.6-1.6-3.6-3.6-3.6-3.6 1.7-3.6 3.6z"/>
			
		
		
			<path d="m317.5 758.5v0.6c0 0.4 0.3 0.7 0.7 0.7h0.4c0.1 0.6 0.3 1.1 0.7 1.6l-0.1 0.1-0.4 0.5c-0.2 0.3-0.2 0.7 0.1 0.9l0.5 0.4c0.3 0.2 0.7 0.2 0.9-0.1l0.2-0.3c0.6 0.4 1.2 0.8 2 1v0.6c0 0.4 0.3 0.7 0.7 0.7h0.6c0.4 0 0.7-0.3 0.7-0.7v-0.5c0.7-0.1 1.4-0.3 2-0.7l0.3 0.4c0.2 0.3 0.7 0.3 0.9 0l0.5-0.4c0.3-0.2 0.3-0.7 0-0.9l-0.2-0.4c0.5-0.6 0.9-1.4 1-2.2h0.4c0.4 0 0.7-0.3 0.7-0.7v-0.6c0-0.4-0.3-0.7-0.7-0.7h-0.4c-0.1-0.9-0.5-1.6-1-2.3l0.2-0.3c0.2-0.3 0.2-0.7-0.1-0.9l-0.5-0.4c-0.3-0.2-0.7-0.2-0.9 0.1l-0.1 0.2c-0.6-0.4-1.4-0.7-2.1-0.8v-0.4c0-0.4-0.3-0.7-0.7-0.7h-0.6c-0.4 0-0.7 0.3-0.7 0.7v0.5c-0.6 0.2-1.2 0.4-1.8 0.8l-0.1-0.1-0.5-0.4c-0.3-0.2-0.7-0.2-0.9 0.1l-0.4 0.5c-0.2 0.3-0.2 0.7 0.1 0.9l0.4 0.3c-0.4 0.6-0.7 1.3-0.8 2.1h-0.4c-0.3 0.2-0.6 0.5-0.6 0.8zm4.3 0.3c0-1.1 0.9-2.1 2.1-2.1 1.1 0 2.1 0.9 2.1 2.1s-0.9 2.1-2.1 2.1-2.1-1-2.1-2.1z" fill="#F2F0E8"/>
			
				
					<path d="m322.2 764.9v-0.4c-0.7-0.2-1.3-0.5-1.8-0.9l-0.1 0.1c-0.2 0.2-0.4 0.3-0.6 0.4-0.3 0-0.5 0-0.7-0.2l-0.5-0.4c-0.2-0.2-0.3-0.4-0.4-0.6 0-0.3 0-0.5 0.2-0.7l0.4-0.5c-0.3-0.5-0.5-1-0.6-1.5h-0.3c-0.5 0-1-0.4-1-1v-0.7c0-0.5 0.4-1 1-1h0.2c0.1-0.7 0.4-1.4 0.8-1.9l-0.2-0.2c-0.2-0.2-0.3-0.4-0.4-0.6 0-0.3 0-0.5 0.2-0.7l0.4-0.5c0.2-0.2 0.4-0.3 0.6-0.4 0.3 0 0.5 0 0.7 0.2l0.5 0.4c0.5-0.3 1-0.6 1.6-0.7v-0.3c0-0.5 0.4-1 1-1h0.7c0.5 0 1 0.4 1 1v0.2c0.7 0.1 1.4 0.4 2 0.7 0.2-0.2 0.4-0.3 0.6-0.4 0.3 0 0.5 0 0.7 0.2l0.5 0.4c0.2 0.2 0.3 0.4 0.4 0.6 0 0.3 0 0.5-0.2 0.7l-0.2 0.2c0.5 0.7 0.8 1.4 0.9 2.2h0.2c0.5 0 1 0.4 1 1v0.7c0 0.5-0.4 1-1 1h-0.3c-0.2 0.7-0.5 1.5-1 2.1l0.2 0.2c0.4 0.4 0.3 1-0.1 1.3l-0.5 0.5c-0.4 0.4-1 0.3-1.4-0.1l-0.2-0.2c-0.6 0.3-1.2 0.5-1.9 0.6v0.3c0 0.5-0.4 1-1 1h-0.7c-0.3-0.2-0.7-0.6-0.7-1.1zm5.1-1c0.2 0.2 0.5 0.2 0.6 0l0.5-0.5c0.2-0.2 0.2-0.5 0-0.6l-0.5-0.5 0.1-0.2c0.5-0.7 0.9-1.4 1.1-2.2v-0.2h0.7c0.3 0 0.5-0.2 0.5-0.5v-0.7c0-0.3-0.2-0.5-0.5-0.5h-0.6v-0.2c-0.1-0.8-0.5-1.7-1-2.3l-0.1-0.2 0.4-0.5c0.1-0.1 0.1-0.2 0.1-0.3s-0.1-0.2-0.2-0.3l-0.5-0.4c-0.1-0.1-0.2-0.1-0.3-0.1s-0.2 0.1-0.3 0.2l-0.3 0.4-0.2-0.1c-0.7-0.4-1.4-0.7-2.2-0.8h-0.2v-0.6c0-0.3-0.2-0.5-0.5-0.5h-0.7c-0.3 0-0.5 0.2-0.5 0.5v0.7h-0.2c-0.7 0.2-1.3 0.4-1.8 0.8l-0.2 0.1-0.1-0.2-0.6-0.5c-0.1-0.1-0.2-0.1-0.3-0.1s-0.2 0.1-0.3 0.2l-0.4 0.5c-0.1 0.1-0.1 0.2-0.1 0.3s0.1 0.2 0.2 0.3l0.6 0.5-0.1 0.2c-0.4 0.6-0.7 1.4-0.9 2.2v0.2h-0.6c-0.3 0-0.5 0.2-0.5 0.5v0.7c0 0.3 0.2 0.5 0.5 0.5h0.7v0.2c0.1 0.6 0.3 1.2 0.7 1.7l0.1 0.2-0.2 0.2-0.4 0.5c-0.1 0.1-0.1 0.2-0.1 0.3s0.1 0.2 0.2 0.3l0.5 0.4c0.1 0.1 0.2 0.1 0.3 0.1s0.2-0.1 0.3-0.2l0.4-0.5 0.2 0.2c0.6 0.5 1.3 0.8 2 1h0.2v0.8c0 0.3 0.2 0.5 0.5 0.5h0.7c0.3 0 0.5-0.2 0.5-0.5v-0.7h0.2c0.7-0.1 1.4-0.3 2.1-0.7l0.2-0.1 0.3 0.5z"/>
				
			
			
				
					<path d="m321.4 758.8c0-1.3 1.1-2.4 2.4-2.4s2.4 1.1 2.4 2.4-1.1 2.4-2.4 2.4-2.4-1-2.4-2.4zm0.5 0c0 1.1 0.9 1.9 1.9 1.9s1.9-0.9 1.9-1.9c0-1.1-0.9-1.9-1.9-1.9s-1.9 0.8-1.9 1.9z"/>
				
			
		
		<path d="m335.3 523.7 0.1 1.2c0.1 0.7 0.7 1.2 1.4 1.1l0.8-0.1c0.3 1.1 0.9 2.1 1.5 3 0 0-0.1 0.1-0.1 0.2l-0.6 1c-0.4 0.6-0.2 1.4 0.4 1.7l1 0.6c0.6 0.4 1.4 0.2 1.7-0.4l0.4-0.6c1.2 0.7 2.5 1.2 3.9 1.5l0.1 1.1c0.1 0.7 0.7 1.2 1.4 1.1l1.2-0.1c0.7-0.1 1.2-0.7 1.1-1.4l-0.1-0.9c1.4-0.3 2.6-0.9 3.7-1.7l0.7 0.6c0.5 0.5 1.3 0.4 1.8-0.1l0.8-0.9c0.5-0.5 0.4-1.3-0.1-1.8l-0.6-0.6c0.8-1.3 1.4-2.8 1.6-4.4l0.8-0.1c0.7-0.1 1.2-0.7 1.1-1.4l-0.1-1.2c-0.1-0.7-0.7-1.2-1.4-1.1l-0.7 0.1c-0.4-1.6-1.2-3-2.3-4.2l0.4-0.7c0.4-0.6 0.2-1.4-0.4-1.7l-1-0.6c-0.6-0.4-1.4-0.2-1.7 0.4l-0.2 0.4c-1.3-0.7-2.7-1-4.2-1.1l-0.1-0.7c-0.1-0.7-0.7-1.2-1.4-1.1l-1.2 0.1c-0.7 0.1-1.2 0.7-1.1 1.4l0.1 0.9c-1.2 0.4-2.3 1-3.2 1.8l-0.1-0.1-1-0.6c-0.6-0.4-1.4-0.2-1.7 0.4l-0.6 1c-0.4 0.6-0.2 1.4 0.4 1.7l0.8 0.5c-0.7 1.3-1.1 2.7-1.2 4.2l-0.7 0.1c-1 0.2-1.5 0.8-1.4 1.5zm8.1-0.3c-0.2-2.2 1.4-4.1 3.5-4.3 2.2-0.2 4.1 1.4 4.3 3.5 0.2 2.2-1.4 4.1-3.5 4.3-2.2 0.2-4.1-1.3-4.3-3.5z" fill="#7ACBF5"/>
		<path d="m324.1 520.4 0.5 0.4c0.3 0.2 0.7 0.2 0.9-0.1l0.3-0.3c0.5 0.3 1.1 0.5 1.7 0.6v0.1l0.1 0.6c0.1 0.4 0.4 0.6 0.8 0.5l0.6-0.1c0.4-0.1 0.6-0.4 0.5-0.8l-0.1-0.4c0.7-0.2 1.4-0.5 2-0.9l0.4 0.4c0.3 0.2 0.7 0.2 0.9-0.1l0.4-0.5c0.2-0.3 0.2-0.7-0.1-0.9l-0.4-0.3c0.4-0.6 0.7-1.3 0.8-2h0.5c0.4 0 0.6-0.3 0.6-0.7v-0.6c0-0.4-0.3-0.6-0.7-0.6h-0.5c-0.2-0.8-0.5-1.5-1-2.2l0.3-0.3c0.2-0.3 0.2-0.7-0.1-0.9l-0.5-0.4c-0.3-0.2-0.7-0.2-0.9 0.1l-0.3 0.3c-0.7-0.4-1.6-0.7-2.4-0.7l-0.1-0.4c-0.1-0.4-0.4-0.6-0.8-0.5l-0.6 0.1c-0.4 0.1-0.6 0.4-0.5 0.8v0.2c-0.7 0.2-1.4 0.6-2 1.1l-0.3-0.2c-0.3-0.2-0.7-0.2-0.9 0.1l-0.4 0.5c-0.2 0.3-0.2 0.7 0.1 0.9l0.4 0.3c-0.3 0.6-0.5 1.2-0.5 1.9h-0.1l-0.6 0.1c-0.4 0.1-0.6 0.4-0.5 0.8l0.1 0.6c0.1 0.4 0.4 0.6 0.8 0.5l0.5-0.1c0.2 0.7 0.6 1.4 1.1 2l-0.3 0.3c0 0.1 0 0.5 0.3 0.8zm3-3.1c-0.9-0.7-1-2-0.3-2.9s2-1 2.9-0.3 1 2 0.3 2.9c-0.8 0.9-2.1 1-2.9 0.3z" fill="#7ACBF5"/>
		
			
				<path d="m353.6 531.9-0.5-0.4c-1 0.6-2 1.1-3.1 1.4v0.2c0.2 0.9-0.4 1.9-1.3 2.1l-1.2 0.3c-0.5 0.1-0.9 0-1.3-0.2-0.4-0.3-0.7-0.6-0.8-1.1l-0.2-1c-0.9-0.2-1.8-0.5-2.6-0.9l-0.3 0.3c-0.6 0.7-1.7 0.8-2.4 0.2l-0.9-0.8c-0.7-0.6-0.8-1.7-0.2-2.4l0.2-0.2c-0.8-1-1.3-2-1.7-3.1l-0.4 0.1c-0.5 0.1-0.9 0-1.3-0.2-0.4-0.3-0.7-0.6-0.8-1.1l-0.3-1.2c-0.2-0.9 0.4-1.9 1.3-2.1l1-0.2c0.1-1 0.4-2 0.8-2.9l-0.4-0.3c-0.7-0.6-0.8-1.7-0.2-2.4l0.8-0.9c0.6-0.7 1.7-0.8 2.4-0.2l0.2 0.2c0.9-0.8 2-1.4 3.1-1.8-0.2-0.9 0.4-1.8 1.3-2l1.2-0.3c0.5-0.1 0.9 0 1.3 0.2 0.4 0.3 0.7 0.6 0.8 1.1l0.1 0.4c1.4 0.1 2.7 0.5 3.9 1.2l0.2-0.2c0.6-0.7 1.7-0.8 2.4-0.2l0.9 0.8c0.7 0.6 0.8 1.7 0.2 2.4l-0.3 0.3c0.8 1.1 1.3 2.3 1.7 3.6h0.4c0.5 0 0.9 0.1 1.2 0.5 0.3 0.3 0.5 0.7 0.6 1.2v1.2c0 1-0.7 1.8-1.7 1.8h-0.5c-0.2 1.1-0.6 2.2-1.2 3.1l0.3 0.3c0.7 0.6 0.8 1.7 0.2 2.4l-0.8 0.9c-0.3 0.4-1.4 0.5-2.1-0.1zm4.3-8c0.4 0 0.7-0.4 0.7-0.8v-1.2c0-0.2-0.1-0.4-0.2-0.5s-0.3-0.2-0.5-0.2l-1.3 0.1-0.1-0.4c-0.3-1.4-0.9-2.8-1.8-3.9l-0.3-0.3 0.8-0.9c0.3-0.3 0.2-0.8-0.1-1l-0.9-0.8c-0.3-0.3-0.8-0.2-1 0.1l-0.7 0.9-0.4-0.2c-1.3-0.8-2.7-1.2-4.2-1.3h-0.4l-0.2-1.1c0-0.2-0.2-0.4-0.3-0.5-0.2-0.1-0.4-0.1-0.6-0.1l-1.2 0.3c-0.4 0.1-0.6 0.5-0.6 0.9l0.2 0.9-0.4 0.1c-1.3 0.4-2.5 1.1-3.5 2l-0.3 0.3-0.9-0.7c-0.3-0.3-0.8-0.2-1 0.1l-0.8 0.9c-0.3 0.3-0.2 0.8 0.1 1l1 0.8-0.2 0.4c-0.5 1-0.8 2.2-0.9 3.3v0.4h-0.4l-1.3 0.3c-0.4 0.1-0.6 0.5-0.6 0.9l0.3 1.2c0 0.2 0.2 0.4 0.3 0.5 0.2 0.1 0.4 0.1 0.6 0.1l1.4-0.3 0.1 0.5c0.4 1.3 1 2.5 1.9 3.5l0.3 0.3-0.7 0.9c-0.3 0.3-0.2 0.8 0.1 1l0.9 0.8c0.3 0.3 0.8 0.2 1-0.1l0.8-0.9 0.4 0.2c0.9 0.5 1.9 0.8 3 1l0.4 0.1v0.4 0.1l0.3 1.2c0 0.2 0.2 0.4 0.3 0.5 0.2 0.1 0.4 0.1 0.6 0.1l1.2-0.3c0.4-0.1 0.6-0.5 0.6-0.9l-0.3-1.2 0.5-0.1c1.3-0.3 2.5-0.8 3.6-1.6l0.3-0.2 1.1 0.9c0.3 0.3 0.8 0.2 1-0.1l0.8-0.9c0.3-0.3 0.2-0.8-0.1-1l-1-0.8 0.2-0.4c0.7-1.1 1.2-2.3 1.4-3.6l0.1-0.4 0.9-0.3z"/>
			
		
		
			
				<path d="m344.7 526c-1.7-1.5-1.9-4-0.5-5.8 1.5-1.7 4-1.9 5.8-0.5s1.9 4 0.5 5.8c-1.5 1.7-4.1 1.9-5.8 0.5zm0.3-0.4c1.5 1.3 3.8 1.1 5.1-0.4s1.1-3.8-0.4-5.1-3.8-1.1-5.1 0.4-1.1 3.8 0.4 5.1z"/>
			
		
		
			
				<path d="m332 520.9-0.3-0.3c-0.6 0.4-1.2 0.7-1.8 0.8v0.1c0.1 0.2 0 0.5-0.1 0.7s-0.4 0.4-0.6 0.4l-0.7 0.1c-0.2 0.1-0.5 0-0.7-0.1s-0.4-0.4-0.4-0.6l-0.1-0.6c-0.5-0.1-1-0.3-1.5-0.5l-0.2 0.2c-0.3 0.4-0.9 0.5-1.3 0.1l-0.5-0.4c-0.4-0.3-0.5-0.9-0.1-1.3l0.1-0.2c-0.4-0.6-0.8-1.2-1-1.8l-0.3 0.1c-0.2 0.1-0.5 0-0.7-0.1s-0.4-0.4-0.4-0.6l-0.1-0.7c-0.1-0.2 0-0.5 0.1-0.7s0.4-0.4 0.6-0.4l0.6-0.1c0.1-0.6 0.2-1.2 0.5-1.7l-0.2-0.2c-0.4-0.3-0.5-0.9-0.1-1.3l0.4-0.5c0.3-0.4 0.9-0.5 1.3-0.1l0.1 0.1c0.5-0.5 1.2-0.8 1.8-1.1-0.1-0.2 0-0.5 0.1-0.7s0.4-0.4 0.6-0.4l0.7-0.1c0.2-0.1 0.5 0 0.7 0.1s0.4 0.4 0.4 0.6l0.1 0.2c0.8 0.1 1.6 0.3 2.3 0.7l0.1-0.2c0.3-0.4 0.9-0.5 1.3-0.1l0.5 0.4c0.4 0.3 0.5 0.9 0.1 1.3l-0.2 0.2c0.5 0.6 0.8 1.3 1 2.1h0.3c0.5 0 1 0.4 1 0.9v0.7c0 0.5-0.4 1-0.9 1h-0.3c-0.1 0.7-0.4 1.3-0.7 1.8l0.2 0.2c0.4 0.3 0.5 0.9 0.1 1.3l-0.4 0.5c-0.4 0.4-1 0.5-1.4 0.2zm2.5-4.6c0.3 0 0.4-0.2 0.4-0.5v-0.7c0-0.3-0.2-0.4-0.5-0.4h-0.7v-0.2c-0.2-0.8-0.5-1.6-1-2.3l-0.1-0.2 0.4-0.5c0.2-0.2 0.1-0.5-0.1-0.6l-0.5-0.4c-0.2-0.2-0.5-0.1-0.6 0.1l-0.4 0.5-0.2-0.1c-0.7-0.4-1.6-0.7-2.4-0.7h-0.2l-0.1-0.6c0-0.1-0.1-0.2-0.2-0.3s-0.2-0.1-0.3-0.1l-0.7 0.1c-0.1 0-0.2 0.1-0.3 0.2s-0.1 0.2-0.1 0.3l0.1 0.5-0.2 0.1c-0.8 0.2-1.4 0.6-2 1.2l-0.2 0.1-0.5-0.4c-0.2-0.2-0.5-0.1-0.6 0.1l-0.5 0.5c-0.2 0.2-0.1 0.5 0.1 0.6l0.5 0.5-0.1 0.2c-0.3 0.6-0.5 1.2-0.5 1.9v0.2h-0.2l-0.7 0.2c-0.1 0-0.2 0.1-0.3 0.2s-0.1 0.2-0.1 0.3l0.1 0.7c0 0.1 0.1 0.2 0.2 0.3s0.2 0.1 0.3 0.1l0.7-0.2 0.1 0.2c0.2 0.7 0.6 1.4 1.1 2l0.1 0.2-0.4 0.5c-0.2 0.2-0.1 0.5 0.1 0.6l0.5 0.4c0.2 0.2 0.5 0.1 0.6-0.1l0.4-0.5 0.2 0.1c0.5 0.3 1.1 0.5 1.7 0.6h0.2v0.2 0.1l0.1 0.7c0 0.1 0.1 0.2 0.2 0.3s0.2 0.1 0.3 0.1l0.7-0.1c0.1 0 0.2-0.1 0.3-0.2s0.1-0.2 0.1-0.3l-0.1-0.6 0.2-0.1c0.7-0.2 1.4-0.5 2-0.9l0.2-0.1 0.6 0.5c0.2 0.2 0.5 0.1 0.6-0.1l0.4-0.5c0.2-0.2 0.1-0.5-0.1-0.6l-0.5-0.5 0.1-0.2c0.4-0.6 0.7-1.3 0.8-2v-0.2l1-0.2z"/>
			
		
		
			
				<path d="m326.8 517.6c-1-0.9-1.2-2.4-0.3-3.4s2.4-1.2 3.4-0.3 1.2 2.4 0.3 3.4c-0.8 1-2.4 1.2-3.4 0.3zm0.3-0.4c0.8 0.7 2 0.6 2.7-0.2s0.6-2-0.2-2.7-2-0.6-2.7 0.2-0.6 2 0.2 2.7z"/>
			
		
		<path d="m345.1 366.7s-0.7-9.9-10-11c-6.4-0.7-12.4-0.6-15.2-0.5h-2.9c-3.7-0.1-14.1 0.6-14.6 11.7-0.6 12.8 3.2 18.1 15.5 18.2 1.2 0 2.4 0.7 3.1 1.7 1.2 1.8 3.5 4.5 6.8 4.5 0 0-4.7-6.2 0-6.2s15-1.1 16.6-5.7c1.6-4.8 0.7-12.7 0.7-12.7z" fill="#ACD4F7"/>
		<path d="m331.1 370.8c0 1.2 0.9 2.1 2.1 2.1s2.1-0.9 2.1-2.1-0.9-2.1-2.1-2.1-2.1 0.9-2.1 2.1z" fill="#F2F0E8"/>
		<circle cx="323.8" cy="370.8" r="2.1" fill="#F2F0E8"/>
		<path d="m312.1 370.8c0 1.2 0.9 2.1 2.1 2.1s2.1-0.9 2.1-2.1-0.9-2.1-2.1-2.1-2.1 0.9-2.1 2.1z" fill="#F2F0E8"/>
		
			<path d="m328.2 391.3c0.2 0 0.4-0.1 0.4-0.3 0.1-0.2 0.1-0.4 0-0.5-1-1.3-2.4-3.8-1.9-4.9 0.2-0.4 0.7-0.6 1.5-0.6 0.6 0 15-0.1 17.1-6 1.7-4.9 0.8-12.6 0.8-12.9 0-0.1-0.8-10.3-10.5-11.4-0.3 0-0.5 0.2-0.6 0.4 0 0.3 0.2 0.5 0.4 0.6 8.9 1 9.6 10.4 9.6 10.5s0.8 7.8-0.8 12.5c-1.5 4.2-11.2 5.4-16.1 5.4-1.2 0-2 0.4-2.4 1.1-0.7 1.4 0.5 3.7 1.4 5-2.5-0.4-4.3-2.5-5.4-4.2-0.8-1.2-2.1-1.9-3.5-1.9-5.7 0-9.4-1.2-11.8-3.7-2.6-2.7-3.6-7-3.2-14 0.5-10.4 10-11.3 14.1-11.2 0.2 0 0.5-0.2 0.5-0.5s-0.2-0.5-0.5-0.5c-3.4-0.1-14.6 0.5-15.1 12.2-0.3 7.3 0.8 11.8 3.5 14.8 2.5 2.7 6.5 3.9 12.5 4 1.1 0 2.1 0.6 2.6 1.5 1.3 1.7 3.7 4.6 7.4 4.6z"/>
		
		<path d="m72.2 619.4s0.5-7.5 7.5-8.2c4.8-0.5 9.3-0.4 11.4-0.4h2.2c2.7-0.1 10.6 0.4 11 8.8 0.4 9.6-2.4 13.6-11.7 13.7-0.9 0-1.8 0.5-2.3 1.3-0.9 1.4-2.6 3.4-5.1 3.4 0 0 3.5-4.7 0-4.7s-11.3-0.8-12.5-4.3c-1.2-3.7-0.5-9.6-0.5-9.6z" fill="#6AB3D9"/>
		<path d="m85.3 637.7c-0.1-0.2-0.1-0.4 0-0.5 0.8-1 1.7-2.8 1.4-3.5-0.1-0.2-0.5-0.4-1-0.4s-11.4-0.1-13-4.6c-1.3-3.7-0.7-9.4-0.6-9.8 0-0.4 0.8-7.9 8-8.7 4.8-0.5 9.3-0.4 11.5-0.4h2.2c2.6 0 11.1 0.4 11.5 9.2 0.2 5.5-0.6 9-2.7 11.2-1.9 2-4.9 3-9.5 3-0.8 0-1.5 0.4-1.9 1-0.9 1.3-2.7 3.6-5.6 3.6 0 0.1-0.2 0-0.3-0.1zm8.6-26.9h-2.2c-2.2-0.1-6.7-0.2-11.4 0.4-6.5 0.7-7.1 7.5-7.1 7.8 0 0.1-0.6 5.8 0.6 9.3 1 2.9 7.7 4 12 4 0.9 0 1.6 0.3 1.9 0.9 0.5 1-0.2 2.6-0.9 3.6 1.7-0.4 2.9-1.8 3.7-3 0.6-0.9 1.6-1.5 2.7-1.5 4.2 0 7-0.9 8.8-2.7 1.9-2 2.6-5.2 2.4-10.4-0.3-7.4-6.8-8.3-10-8.3-0.2-0.1-0.4-0.1-0.5-0.1z"/>
		<path d="m131.1 606.7s-0.7-9.9-10-11c-6.4-0.7-12.4-0.6-15.2-0.5h-2.9c-3.7-0.1-14.1 0.6-14.6 11.7-0.6 12.8 3.2 18.1 15.5 18.2 1.2 0 2.4 0.7 3.1 1.7 1.2 1.8 3.5 4.5 6.8 4.5 0 0-4.7-6.2 0-6.2s15-1.1 16.6-5.7c1.6-4.8 0.7-12.7 0.7-12.7z" fill="#ACD4F7"/>
		<path d="m117.1 610.8c0 1.2 0.9 2.1 2.1 2.1s2.1-0.9 2.1-2.1-0.9-2.1-2.1-2.1-2.1 0.9-2.1 2.1z" fill="#F2F0E8"/>
		<circle cx="109.8" cy="610.8" r="2.1" fill="#F2F0E8"/>
		<path d="m98.1 610.8c0 1.2 0.9 2.1 2.1 2.1s2.1-0.9 2.1-2.1-0.9-2.1-2.1-2.1-2.1 0.9-2.1 2.1z" fill="#F2F0E8"/>
		
			<path d="m114.2 631.3c0.2 0 0.4-0.1 0.4-0.3 0.1-0.2 0.1-0.4 0-0.5-1-1.3-2.4-3.8-1.9-4.9 0.2-0.4 0.7-0.6 1.5-0.6 0.6 0 15-0.1 17.1-6 1.7-4.9 0.8-12.6 0.8-12.9 0-0.1-0.8-10.3-10.5-11.4-0.3 0-0.5 0.2-0.6 0.4 0 0.3 0.2 0.5 0.4 0.6 8.9 1 9.6 10.4 9.6 10.5s0.8 7.8-0.8 12.5c-1.5 4.2-11.2 5.4-16.1 5.4-1.2 0-2 0.4-2.4 1.1-0.7 1.4 0.5 3.7 1.4 5-2.5-0.4-4.3-2.5-5.4-4.2-0.8-1.2-2.1-1.9-3.5-1.9-5.7 0-9.4-1.2-11.8-3.7-2.6-2.7-3.6-7-3.2-14 0.5-10.4 10-11.3 14.1-11.2 0.2 0 0.5-0.2 0.5-0.5s-0.2-0.5-0.5-0.5c-3.4-0.1-14.6 0.5-15.1 12.2-0.3 7.3 0.8 11.8 3.5 14.8 2.5 2.7 6.5 3.9 12.5 4 1.1 0 2.1 0.6 2.6 1.5 1.3 1.7 3.7 4.6 7.4 4.6z"/>
		
		<path d="m254.1 713.8s8.5-10 23-6.1 23-0.8 25.7-4.7l2.6 25.9s-4.1 11.2-31 5.4c0 0-9.8-2.9-17.3 6.9l-3-27.4z" fill="#ACD4F7"/>
		
			<path d="m257.1 741.7h-0.2c-0.2-0.1-0.3-0.2-0.4-0.4l-3-27.5c0-0.1 0-0.3 0.1-0.4s8.8-10.2 23.5-6.2c14.5 3.9 22.7-1 25.2-4.5 0.1-0.2 0.3-0.2 0.5-0.2 0.2 0.1 0.3 0.2 0.4 0.4l1 10.4c0 0.3-0.2 0.5-0.4 0.5-0.3 0-0.5-0.2-0.5-0.4l-0.9-9.2c-3.3 3.6-11.7 7.7-25.5 3.9-13.1-3.5-21.2 4.5-22.4 5.7l2.9 26.1c7.6-8.9 17-6.2 17.1-6.2 24.8 5.4 29.8-4 30.3-5l-0.6-5.8c0-0.3 0.2-0.5 0.4-0.5 0.3 0 0.5 0.2 0.5 0.4l0.6 5.9v0.2c-0.2 0.5-4.5 11.6-31.6 5.7-0.4-0.1-9.6-2.7-16.8 6.7 0.1 0.3 0 0.4-0.2 0.4z"/>
		
		
			<path d="m279.4 726.6c-1.4-0.1-2.8-0.6-3.9-1.4l1.2-1.9c0.9 0.6 1.7 1 2.7 1.2l-0.1-2.5c-2.3-0.5-3.5-1.4-3.6-3.3-0.1-1.8 1.2-3 3.3-3.3v-0.9l1.7-0.1v1c1.1 0.1 2.1 0.5 3 1.1l-1 1.9c-0.7-0.4-1.4-0.7-2-0.9l0.1 2.4c2.5 0.6 3.6 1.5 3.6 3.3 0.1 1.8-1.3 3-3.3 3.3l0.1 1.6-1.7 0.1-0.1-1.6zm-0.2-7-0.1-2.2c-0.8 0.1-1.1 0.5-1.1 1 0 0.6 0.3 1 1.2 1.2zm1.6 2.8 0.1 2.2c0.8-0.1 1.1-0.5 1.1-1.1 0-0.5-0.3-0.9-1.2-1.1z" fill="#fff"/>
		
		<polygon points="262.6 736.8 257.5 741.5 254.6 713.9 260.3 709.2" fill="#A0A0A0" opacity=".2"/>
		<path d="m236.2 716.2s4.3-12.4 19.2-14c15-1.6 21.1-9.1 22.3-13.7l11.8 23.2s0.3 12-26.9 16.3c0 0-10.1 0.8-13.6 12.7l-12.8-24.5z" fill="#ACD4F7"/>
		
			<path d="m249.2 741.2h-0.2c-0.2 0-0.4-0.1-0.5-0.3l-12.8-24.5c-0.1-0.1-0.1-0.3 0-0.4 0-0.1 4.5-12.7 19.7-14.3 15-1.6 20.8-9.1 21.8-13.3 0.1-0.2 0.2-0.4 0.4-0.4s0.4 0.1 0.5 0.3l4.8 9.3c0.1 0.2 0 0.5-0.2 0.7-0.2 0.1-0.5 0-0.7-0.2l-4.2-8.3c-1.8 4.5-8.1 11.4-22.3 12.9-13.5 1.4-18.1 11.9-18.8 13.5l12.1 23.2c3.8-11 13.6-11.9 13.7-11.9 25.1-4 26.4-14.5 26.4-15.7l-2.6-5.2c-0.1-0.2 0-0.5 0.2-0.7 0.2-0.1 0.5 0 0.7 0.2l2.7 5.3c0 0.1 0.1 0.1 0.1 0.2 0 0.5 0 12.4-27.3 16.8-0.4 0-9.9 0.9-13.2 12.4-0.1 0.2-0.2 0.3-0.3 0.4z"/>
		
		
			<path d="m264.4 719c-1.3 0.4-2.8 0.4-4.1 0.1l0.4-2.2c1.1 0.3 2 0.3 2.9 0.1l-1-2.3c-2.4 0.4-3.8 0-4.5-1.7-0.7-1.6 0.1-3.2 1.9-4.2l-0.4-0.9 1.5-0.7 0.4 0.9c1.1-0.3 2.2-0.3 3.2-0.1l-0.2 2.1c-0.8-0.1-1.5-0.2-2.2-0.1l1 2.2c2.5-0.4 3.9 0.1 4.6 1.8 0.7 1.6-0.1 3.3-1.9 4.3l0.6 1.5-1.5 0.7-0.7-1.5zm-2.7-6.4-0.9-2c-0.7 0.4-0.8 0.9-0.6 1.4 0.3 0.4 0.6 0.6 1.5 0.6zm2.5 1.9 0.9 2.1c0.7-0.4 0.9-0.9 0.6-1.4-0.2-0.5-0.5-0.7-1.5-0.7z" fill="#fff"/>
		
		<polygon points="252.5 734.6 249.5 740.9 236.7 716.2 240.3 709.7" fill="#A0A0A0" opacity=".2"/>
		<path d="m392.6 162.5s-8.5-10-23-6.1c-14.6 3.9-23-0.8-25.7-4.7l-2.6 25.9s4.1 11.2 31 5.4c0 0 9.8-2.9 17.3 6.9l3-27.4z" fill="#ACD4F7"/>
		
			<path d="m389.5 190.4h0.2c0.2-0.1 0.3-0.2 0.4-0.4l3-27.5c0-0.1 0-0.3-0.1-0.4s-8.8-10.2-23.5-6.2c-14.5 3.9-22.7-1-25.2-4.5-0.1-0.2-0.3-0.2-0.5-0.2-0.2 0.1-0.3 0.2-0.4 0.4l-1 10.4c0 0.3 0.2 0.5 0.4 0.5 0.3 0 0.5-0.2 0.5-0.4l0.9-9.2c3.3 3.6 11.7 7.7 25.5 3.9 13.1-3.5 21.2 4.5 22.4 5.7l-2.9 26.1c-7.6-8.9-17-6.2-17.1-6.2-24.8 5.4-29.8-4-30.3-5l0.6-5.8c0-0.3-0.2-0.5-0.4-0.5-0.3 0-0.5 0.2-0.5 0.4l-0.6 5.9v0.2c0.2 0.5 4.5 11.6 31.6 5.7 0.4-0.1 9.6-2.7 16.8 6.7 0 0.4 0.1 0.4 0.2 0.4z"/>
		
		
			<path d="m367.2 177-1.7-0.1 0.1-1.6c-2-0.3-3.4-1.5-3.3-3.3s1.2-2.7 3.6-3.3l0.1-2.4c-0.7 0.2-1.4 0.5-2 0.9l-1-1.9c0.9-0.6 1.9-1 3-1.1v-1l1.7 0.1v0.9c2 0.3 3.3 1.5 3.3 3.3-0.1 1.9-1.2 2.7-3.6 3.3l-0.1 2.5c1-0.2 1.8-0.6 2.7-1.2l1.2 1.9c-1.1 0.8-2.5 1.3-3.9 1.4l-0.1 1.6zm1.4-9.7c0-0.5-0.3-0.9-1.1-1.1l-0.1 2.2c1-0.3 1.2-0.6 1.2-1.1zm-3.9 4.9c0 0.6 0.4 1 1.1 1.1l0.1-2.2c-0.9 0.3-1.2 0.6-1.2 1.1z" fill="#fff"/>
		
		<polygon points="384.1 185.5 389.2 190.3 392.1 162.6 386.4 157.9" fill="#A0A0A0" opacity=".2"/>
		<path d="m410.5 164.9s-4.3-12.4-19.2-14-21.1-9.1-22.3-13.7l-11.8 23.2s-0.3 12 26.9 16.3c0 0 10.1 0.8 13.6 12.7l12.8-24.5z" fill="#ACD4F7"/>
		
			<path d="m397.5 189.9h0.2c0.2 0 0.4-0.1 0.5-0.3l12.8-24.5c0.1-0.1 0.1-0.3 0-0.4 0-0.1-4.5-12.7-19.7-14.3-15-1.6-20.8-9.1-21.8-13.3-0.1-0.2-0.2-0.4-0.4-0.4s-0.4 0.1-0.5 0.3l-4.8 9.3c-0.1 0.2 0 0.5 0.2 0.7 0.2 0.1 0.5 0 0.7-0.2l4.2-8.3c1.8 4.5 8.1 11.4 22.3 12.9 13.5 1.4 18.1 11.9 18.8 13.5l-12.1 23.2c-3.8-11-13.6-11.9-13.7-11.9-25.1-4-26.4-14.5-26.4-15.7l2.6-5.2c0.1-0.2 0-0.5-0.2-0.7-0.2-0.1-0.5 0-0.7 0.2l-2.7 5.3c0 0.1-0.1 0.1-0.1 0.2 0 0.5 0 12.4 27.3 16.8 0.4 0 9.9 0.9 13.2 12.4 0 0.2 0.1 0.3 0.3 0.4z"/>
		
		
			<path d="m381.6 169.2-1.5-0.7 0.6-1.5c-1.8-1-2.6-2.6-1.9-4.3 0.7-1.6 2.1-2.1 4.6-1.8l1-2.2c-0.7-0.1-1.4-0.1-2.2 0.1l-0.2-2.1c1.1-0.2 2.1-0.2 3.2 0.1l0.4-0.9 1.5 0.7-0.4 0.9c1.8 1 2.6 2.6 1.9 4.2-0.8 1.7-2.2 2.1-4.5 1.7l-1 2.3c0.9 0.2 1.9 0.1 2.9-0.1l0.4 2.2c-1.3 0.3-2.8 0.3-4.1-0.1l-0.7 1.5zm4.8-8.5c0.2-0.5 0.1-1-0.6-1.4l-0.9 2c1 0.1 1.3-0.1 1.5-0.6zm-5.5 3.2c-0.2 0.6 0 1 0.6 1.4l0.9-2.1c-0.9 0-1.3 0.2-1.5 0.7z" fill="#fff"/>
		
		<polygon points="394.2 183.3 397.2 189.6 409.9 164.9 406.3 158.4" fill="#A0A0A0" opacity=".2"/>
		
			<rect transform="matrix(-1 -4.4967e-11 4.4967e-11 -1 637.12 1158.8)" x="290.8" y="560.5" width="55.6" height="37.8" fill="#F2F0E8"/>
		
			
				<path d="m289.8 598.6v-38.3c0-0.3 0.2-0.5 0.5-0.5h55.6c0.3 0 0.5 0.2 0.5 0.5v38.3c0 0.3-0.2 0.5-0.5 0.5h-55.6c-0.3 0-0.5-0.2-0.5-0.5zm55.6-37.9h-54.6v37.3h54.6v-37.3z"/>
			
		
		
			
				<path d="m300.1 568.1h45.4c0.1 0 0.2-0.1 0.2-0.2s-0.1-0.2-0.2-0.2h-45.4c-0.1 0-0.2 0.1-0.2 0.2s0.1 0.2 0.2 0.2z"/>
			
		
		
			
				<path d="m336.9 573.9c0.3 0 0.6-0.3 0.6-0.6s-0.3-0.6-0.6-0.6-0.6 0.3-0.6 0.6c-0.1 0.3 0.2 0.6 0.6 0.6z"/>
			
		
		
			
				<path d="m340.7 573.9c0.3 0 0.6-0.3 0.6-0.6s-0.3-0.6-0.6-0.6-0.6 0.3-0.6 0.6c-0.1 0.3 0.2 0.6 0.6 0.6z"/>
			
		
		
			
				<path d="m333.1 573.9c0.3 0 0.6-0.3 0.6-0.6s-0.3-0.6-0.6-0.6-0.6 0.3-0.6 0.6c-0.1 0.3 0.2 0.6 0.6 0.6z"/>
			
		
		
			<rect transform="matrix(-1 -4.4764e-11 4.4764e-11 -1 634.89 1128.1)" x="289.8" y="560.6" width="55.4" height="7" fill="#A0A0A0" opacity=".2"/>
		
			<rect transform="matrix(-1 -4.7194e-11 4.7194e-11 -1 687.63 1158.9)" x="342.2" y="560" width="3.2" height="38.8" fill="#A0A0A0" opacity=".2"/>
		<path d="m305.8 580.3s0.4-5.8 5.8-6.4c3.7-0.4 7.2-0.3 8.8-0.3h1.7c2.1-0.1 8.2 0.3 8.5 6.8 0.3 7.4-1.9 10.5-9 10.5-0.7 0-1.4 0.4-1.8 1-0.7 1.1-2 2.6-4 2.6 0 0 2.7-3.6 0-3.6s-8.7-0.6-9.6-3.3-0.4-7.3-0.4-7.3z" fill="#ACD4F7"/>
		
			<g fill="#F2F0E8">
				<path d="m322.9 582.3c0 0.7 0.6 1.3 1.3 1.3s1.3-0.6 1.3-1.3-0.6-1.3-1.3-1.3c-0.8 0-1.3 0.6-1.3 1.3z"/>
				<path d="m316.9 582.3c0 0.7 0.6 1.3 1.3 1.3s1.3-0.6 1.3-1.3-0.6-1.3-1.3-1.3-1.3 0.6-1.3 1.3z"/>
				<path d="m310.8 582.3c0 0.7 0.6 1.3 1.3 1.3s1.3-0.6 1.3-1.3-0.6-1.3-1.3-1.3-1.3 0.6-1.3 1.3z"/>
			</g>
		
		<polyline points="261.3 446.5 253.1 451.9 250.9 453.4 251.2 481.5 308 480.8 307.6 452.8 279.7 434.2 269.4 441" fill="#7ACBF5"/>
		
			
				<path d="m251.2 482 56.8-0.7c0.3 0 0.5-0.2 0.5-0.5l-0.3-28c0-0.2-0.1-0.3-0.2-0.4l-28-18.6c-0.2-0.1-0.4-0.1-0.6 0l-10.2 6.8c-0.2 0.2-0.3 0.5-0.1 0.7s0.5 0.3 0.7 0.1l10-6.7 27.5 18.2 0.3 27.3-55.8 0.7-0.3-27.3 10.2-6.8c0.2-0.2 0.3-0.5 0.1-0.7s-0.5-0.3-0.7-0.1l-10.4 6.9c-0.1 0.1-0.2 0.3-0.2 0.4l0.3 28c-0.1 0.5 0.1 0.7 0.4 0.7z"/>
			
		
		<polyline points="256.4 450.7 256.6 468.4 300.7 467.9 300.2 424.9 256.1 425.5 256.3 435.7" fill="#F2F0E8"/>
		
			
				<path d="m256.7 468.9 44.1-0.5c0.3 0 0.5-0.2 0.5-0.5l-0.5-43c0-0.3-0.2-0.5-0.5-0.5l-44.1 0.5c-0.3 0-0.5 0.2-0.5 0.5l0.1 10.2c0 0.3 0.2 0.5 0.5 0.5s0.5-0.2 0.5-0.5l-0.1-9.7 43.1-0.5 0.5 42-43.1 0.5-0.2-17.2c0-0.3-0.2-0.5-0.5-0.5s-0.5 0.2-0.5 0.5l0.2 17.7c-0.1 0.3 0.2 0.5 0.5 0.5z"/>
			
		
		<polygon points="269.4 461.8 250.9 481.6 250.6 453.6" fill="#F2F0E8"/>
		<polygon points="289.6 461.6 307.4 452.9 307.7 480.9" fill="#F2F0E8"/>
		<polygon points="269.4 461.8 289.6 461.6 307.7 480.9 251 481.6" fill="#F2F0E8"/>
		
			
				
					<path d="m250.9 481.8c-0.1 0-0.2-0.1-0.2-0.2l-0.3-28c0-0.1 0-0.2 0.1-0.2s0.2-0.1 0.2 0l18.8 8.2c0.1 0 0.1 0.1 0.1 0.2s0 0.2-0.1 0.2l-18.5 19.8h-0.1zm0-27.9 0.3 27 17.8-19.1-18.1-7.9z"/>
				
			
			
				
					<path d="m307.5 481.1-18.2-19.4c-0.1-0.1-0.1-0.1-0.1-0.2s0.1-0.1 0.1-0.2l17.8-8.7h0.2c0.1 0 0.1 0.1 0.1 0.2l0.3 28c0 0.1-0.1 0.2-0.2 0.2h-0.1c0.2 0.2 0.2 0.1 0.1 0.1zm-17.5-19.5 17.5 18.7-0.3-27-17.2 8.3z"/>
				
			
			
				
					<path d="m250.7 481.7v-0.3l18.5-19.8s0.1-0.1 0.2-0.1l20.1-0.2c0.1 0 0.1 0 0.2 0.1l18.2 19.4c0.1 0.1 0.1 0.2 0 0.3 0 0.1-0.1 0.2-0.2 0.2l-56.8 0.7c0-0.2-0.1-0.2-0.2-0.3zm38.8-19.9-19.9 0.2-18 19.3 55.6-0.7-17.7-18.8z"/>
				
			
		
		<polygon points="301.4 480.4 308 480.9 307.6 452.9 301 447.8" fill="#A0A0A0" opacity=".2"/>
		
			<path d="m274.6 439.1-0.1-8.9c0-0.1 0.1-0.3 0.2-0.3l18.8-0.2c0.1 0 0.3 0.1 0.3 0.2l0.1 8.9c0 0.1-0.1 0.3-0.2 0.3l-18.8 0.2c-0.2 0-0.3-0.1-0.3-0.2zm18.6-8.9-18.3 0.2 0.1 8.4 18.3-0.2-0.1-8.4z"/>
		
		
			<path d="m261.5 447.1 32.2-0.4c0.1 0 0.2-0.1 0.2-0.3 0-0.1-0.1-0.2-0.3-0.2l-32.2 0.4c-0.1 0-0.2 0.1-0.2 0.3 0.1 0.1 0.2 0.2 0.3 0.2z"/>
		
		
			<path d="m261.6 452.2 32.2-0.4c0.1 0 0.2-0.1 0.2-0.3 0-0.1-0.1-0.2-0.3-0.2l-32.2 0.4c-0.1 0-0.2 0.1-0.2 0.3 0 0 0.2 0.2 0.3 0.2z"/>
		
		
			<polyline points="243.2 303 243.2 329.4 285.5 329.4 285.5 274.6 243.2 274.6 243.2 289.9" fill="#F2F0E8"/>
			
				
					<path d="m242.8 329.9h42.3c0.3 0 0.5-0.2 0.5-0.5v-54.8c0-0.3-0.2-0.5-0.5-0.5h-42.3c-0.3 0-0.5 0.2-0.5 0.5v15.3c0 0.3 0.2 0.5 0.5 0.5s0.5-0.2 0.5-0.5v-14.8h41.3v53.8h-41.3v-25.9c0-0.3-0.2-0.5-0.5-0.5s-0.5 0.2-0.5 0.5v26.4c0 0.3 0.3 0.5 0.5 0.5z"/>
				
			
			
				
					<path d="m246.5 300.2h31.5c0.1 0 0.2-0.1 0.2-0.2s-0.1-0.2-0.2-0.2h-31.5c-0.1 0-0.2 0.1-0.2 0.2s0.1 0.2 0.2 0.2z"/>
				
			
			
				
					<path d="m246.5 304.6h31.5c0.1 0 0.2-0.1 0.2-0.2s-0.1-0.2-0.2-0.2h-31.5c-0.1 0-0.2 0.1-0.2 0.2s0.1 0.2 0.2 0.2z"/>
				
			
			
				
					<path d="m261.3 313.2h16.7c0.1 0 0.2-0.1 0.2-0.2s-0.1-0.2-0.2-0.2h-16.6c-0.1 0-0.2 0.1-0.2 0.2-0.1 0.1 0 0.2 0.1 0.2z"/>
				
			
			
				
					<path d="m246.5 308.9h31.5c0.1 0 0.2-0.1 0.2-0.2s-0.1-0.2-0.2-0.2h-31.5c-0.1 0-0.2 0.1-0.2 0.2s0.1 0.2 0.2 0.2z"/>
				
			
			
				<rect transform="matrix(-1 -4.6959e-11 4.6959e-11 -1 566.65 604.05)" x="281" y="274.6" width="4.7" height="54.8" fill="#A0A0A0" opacity=".2"/>
			
				<path d="m258.3 292v-8.9c0-0.1 0.1-0.2 0.2-0.2h18.8c0.1 0 0.2 0.1 0.2 0.2v8.9c0 0.1-0.1 0.2-0.2 0.2h-18.8c-0.1 0.1-0.2-0.1-0.2-0.2zm18.8-8.6h-18.3v8.4h18.3v-8.4z"/>
			
		
		
			<polyline points="102.7 531.2 102.7 557.6 145 557.6 145 502.9 102.7 502.9 102.7 518.2" fill="#F2F0E8"/>
			
				
					<path d="m102.3 558.1h42.3c0.3 0 0.5-0.2 0.5-0.5v-54.8c0-0.3-0.2-0.5-0.5-0.5h-42.3c-0.3 0-0.5 0.2-0.5 0.5v15.3c0 0.3 0.2 0.5 0.5 0.5s0.5-0.2 0.5-0.5v-14.8h41.3v53.8h-41.3v-25.9c0-0.3-0.2-0.5-0.5-0.5s-0.5 0.2-0.5 0.5v26.4c0 0.3 0.3 0.5 0.5 0.5z"/>
				
			
			
				
					<path d="m106 528.5h31.5c0.1 0 0.2-0.1 0.2-0.2s-0.1-0.2-0.2-0.2h-31.5c-0.1 0-0.2 0.1-0.2 0.2s0.1 0.2 0.2 0.2z"/>
				
			
			
				
					<path d="m106 532.8h31.5c0.1 0 0.2-0.1 0.2-0.2s-0.1-0.2-0.2-0.2h-31.5c-0.1 0-0.2 0.1-0.2 0.2s0.1 0.2 0.2 0.2z"/>
				
			
			
				
					<path d="m120.8 541.5h16.6c0.1 0 0.2-0.1 0.2-0.2s-0.1-0.2-0.2-0.2h-16.6c-0.1 0-0.2 0.1-0.2 0.2s0.1 0.2 0.2 0.2z"/>
				
			
			
				
					<path d="m106 537.1h31.5c0.1 0 0.2-0.1 0.2-0.2s-0.1-0.2-0.2-0.2h-31.5c-0.1 0-0.2 0.1-0.2 0.2s0.1 0.2 0.2 0.2z"/>
				
			
			
				<rect transform="matrix(-1 -4.4264e-11 4.4264e-11 -1 285.64 1060.5)" x="140.5" y="502.9" width="4.7" height="54.8" fill="#A0A0A0" opacity=".2"/>
			
				<path d="m117.8 520.2v-8.9c0-0.1 0.1-0.2 0.2-0.2h18.8c0.1 0 0.2 0.1 0.2 0.2v8.9c0 0.1-0.1 0.2-0.2 0.2h-18.8c-0.1 0.1-0.2 0-0.2-0.2zm18.8-8.6h-18.3v8.4h18.3v-8.4z"/>
			
		
	</g>

</svg>
