<svg version="1.1" id="Layer_1" xmlns="http://www.w3.org/2000/svg" x="0" y="0" viewBox="0 0 220.5 149.1" xml:space="preserve"><style>.st0{fill:#f9cbcb}.st1{fill:#515979}.st2,.st3{fill:none;stroke:#fce5e5;stroke-width:4;stroke-linecap:round;stroke-linejoin:round;stroke-miterlimit:10}.st3{stroke:#515979}.st4{fill:#fce5e5}.st5{stroke:#515979;stroke-width:6;stroke-linecap:round;stroke-linejoin:round;stroke-miterlimit:10}.st5,.st6{fill:none}.st7{fill:#f4a4a4}.st8{fill:#fff}</style><path class="st0" d="M88.2 144.9c-7.8 0-15.1-2.2-20.7-5.9-4.2 2.2-9.1 3.2-14.2 3.2-13.3 0-25.1-7.7-28.5-18.2-10.3-1.7-17.8-8.9-20-19.5C2.6 93.8 6.8 83 15 77.4c-3.3-8.7-2.1-19.1 3.5-28.2C24.8 39.1 35 32.7 45.3 32.7c1 0 2 .1 2.9.2 2.9-18.7 19-28.7 33.6-28.7 10.3 0 19.8 4.5 26.6 12.7l.7.8v119.8l-1 .9c-4.2 4.1-11.6 6.5-19.9 6.5z"/><path class="st1" d="M81.8 7.2c8.7 0 17.6 3.6 24.4 11.6v117.6c-3.8 3.5-10.7 5.6-17.9 5.6-7.3 0-14.9-2-20.4-6.4-4.4 2.7-9.4 3.8-14.5 3.8-12.1 0-23.9-7.2-26.1-17.9C3.9 119.6 1.1 88.1 19 78.7c-9.3-18.5 7.6-43.1 26.5-43.1 1.8 0 3.6.2 5.5.7.9-18 15.6-29.1 30.8-29.1m0-5.9c-17.7 0-32.1 11.9-35.9 28.4h-.5c-11.3 0-22.5 6.9-29.3 18-5.6 9.2-7.2 19.6-4.4 28.7-8 6.6-11.9 17.7-9.6 28.8 2.3 11.2 10 19.1 20.6 21.4 2 5 5.7 9.3 10.7 12.7 5.8 3.8 12.9 5.9 20.1 5.9 4.9 0 9.6-1 14-2.9 5.8 3.5 13.3 5.5 20.9 5.5 9 0 17-2.7 21.9-7.2l1.9-1.8V16.7l-1.4-1.7c-7.5-8.8-17.9-13.7-29-13.7z"/><path class="st2" d="M91.5 34.3s10.2-4 17.6 3.3m-46 12.8s1.6-6.8 8.5-6.5"/><path class="st3" d="M107.8 31.6s-8-7.2-20-1.2"/><path class="st4" d="M59 35.2c.2-13.7 19.9-36.9 47.1-16.3-17.3-20.5-49-12.2-54.5 12l7.4 4.3z"/><path class="st3" d="M58.5 48.4c1.1-3.8 5-8.4 12.4-8.4"/><path class="st5" d="M63.4 40.5s-3-5.4-12.2-7.9"/><path class="st6" d="M107.5 134.9V24.4c-.4-.4-.9-.8-1.3-1.2v112.2c.4-.2.9-.3 1.3-.5z"/><path class="st7" d="M67.8 135.5c11.2 8.8 30.7 8 38.4.9v-8.7s-14.3 9.3-28.6 1.1c0 0-29.7 12.1-41.8-5.6l-7.3 2.5c5.9 12.2 25.3 18 39.3 9.8z"/><path class="st3" d="M84.6 123.9c-3.4.7-8.7.6-14.1-4.5"/><path class="st5" d="M66.5 140.8s8.8-3.5 11.2-14.3"/><path class="st3" d="M51.8 118.9c-3.4-.7-8.4-2.9-11.3-9.6"/><path class="st5" d="M22.3 124.4s13.4 2.4 21.9-7.1"/><path class="st1" d="M106.2 20h7.6v38h-7.6V20z"/><path class="st0" d="M131.7 144.9c-8.2 0-15.6-2.4-20-6.4l-1-.9V17.8l.7-.8c6.9-8.2 16.3-12.7 26.6-12.7 14.6 0 30.8 10 33.5 28.6 1-.1 1.9-.2 2.9-.2 10.2 0 20.5 6.4 26.8 16.6 5.6 9.1 6.9 19.5 3.5 28.2 8.3 5.7 12.4 16.4 10.2 27.1-2.2 10.5-9.7 17.8-20 19.5-3.4 10.5-15.2 18.2-28.5 18.2-5 0-9.9-1.1-14.3-3.2-5.2 3.6-12.7 5.8-20.4 5.8z"/><path class="st1" d="M138.2 7.2c15.2 0 29.9 11.1 30.9 29.1 1.9-.5 3.6-.7 5.5-.7 19.1 0 35.9 24.6 26.5 43.1 17.9 9.3 15 40.8-8.3 42.8-2.3 10.8-14.1 17.9-26.1 17.9-4.9 0-10-1.2-14.5-3.8-5.6 4.4-13.3 6.4-20.4 6.4-7.3 0-14.1-2-17.9-5.6V18.9c6.7-8.1 15.5-11.7 24.3-11.7m0-5.9v5.9-5.9c-11.2 0-21.4 4.9-28.9 13.8l-1.4 1.7V139l1.9 1.8c4.9 4.5 12.9 7.2 21.9 7.2 7.7 0 15.1-2 20.9-5.5 4.3 1.9 9 2.9 14 2.9 7.2 0 14.3-2.1 20.1-5.9 5-3.2 8.7-7.7 10.7-12.7 10.6-2.4 18.4-10.2 20.6-21.4 2.3-11.1-1.7-22.2-9.6-28.8 2.8-9.1 1.2-19.5-4.4-28.7-6.8-11.1-18.1-18-29.3-18h-.5c-3.9-16.7-18.3-28.6-36-28.6z"/><path class="st2" d="M128.5 34.3s-10.2-4-17.6 3.3m45.9 12.8s-1.6-6.8-8.5-6.5"/><path class="st3" d="M112.1 31.6s8-7.2 20-1.2"/><path class="st4" d="M160.9 35.2c-.2-13.7-19.9-36.9-47.1-16.3 17.3-20.5 49-12.2 54.5 12l-7.4 4.3z"/><path class="st3" d="M161.4 48.4c-1.1-3.8-5-8.4-12.4-8.4"/><path class="st5" d="M156.5 40.5s3-5.4 12.2-7.9"/><path class="st6" d="M112.5 134.9V24.4c.4-.4.9-.8 1.3-1.2v112.2c-.5-.2-.9-.3-1.3-.5z"/><path class="st7" d="M152.2 135.5c-11.2 8.8-30.7 8-38.4.9v-8.7s14.3 9.3 28.6 1.1c0 0 29.7 12.1 41.8-5.6l7.3 2.5c-6 12.2-25.4 18-39.3 9.8z"/><path class="st3" d="M135.3 123.9c3.4.7 8.7.6 14.1-4.5"/><path class="st5" d="M153.4 140.8s-8.8-3.5-11.2-14.3"/><path class="st3" d="M168.1 118.9c3.4-.7 8.4-2.9 11.3-9.6"/><path class="st5" d="M197.6 124.4s-13.4 2.4-21.9-7.1"/><path class="st1" d="M113.7 58h-7.6V20h7.6v38z"/><path class="st3" d="M125.2 81.7c3.5-2.6 9.1-2.6 12.7 0"/><circle class="st1" cx="131.6" cy="70.6" r="10.1"/><circle class="st8" cx="134" cy="70.6" r="2.6"/><path class="st1" d="M124.2 48.7c.9-.7 1.6-1.2 2.5-1.6.9-.4 1.8-.8 2.7-1.1 1.9-.6 3.8-.8 5.9-.5 2.1.2 4.1 1 5.8 2.2 1.8 1.2 2.9 2.9 3.8 4.5.6 1.2.1 2.6-1.1 3.1-.7.3-1.5.3-2.2 0l-.4-.2c-1.3-.7-2.4-1.5-3.5-1.9-1.1-.5-2.2-.8-3.4-.9-1.2-.2-2.5-.2-3.8-.1-.7.1-1.4.1-2.1.2-.7.1-1.5.2-2.1.3h-.6c-1.3.1-2.4-.9-2.5-2.2.1-.6.5-1.3 1-1.8z"/><path class="st3" d="M82.1 81.7c3.5-2.6 9.1-2.6 12.7 0"/><circle class="st1" cx="88.4" cy="70.6" r="10.1"/><circle class="st8" cx="91" cy="70.6" r="2.6"/><path class="st1" d="M93.5 52.9c-.6 0-1.4-.2-2.1-.3-.7-.1-1.4-.2-2.1-.2-1.4-.1-2.7-.1-3.8.1-1.2.1-2.3.5-3.4.9-1.2.4-2.2 1.2-3.5 1.9l-.4.2c-1.1.6-2.6.2-3.1-.9-.4-.7-.4-1.5 0-2.2.9-1.8 2.1-3.4 3.8-4.5 1.7-1.2 3.7-2 5.8-2.2 2.1-.2 4-.1 5.9.5.9.3 1.8.6 2.7 1.1.9.5 1.6.9 2.5 1.6 1 .8 1.1 2.3.3 3.2-.5.6-1.2.9-1.9.8h-.7zM109.9 120.1c-14 0-25.3-11.3-25.3-25.3 0-1.4 1.1-2.5 2.5-2.5h45.6c1.4 0 2.5 1.1 2.5 2.5.1 14-11.3 25.3-25.3 25.3z"/><path class="st1" d="M132.9 94.9c0 12.6-10.2 22.8-22.8 22.8s-22.8-10.2-22.8-22.8h45.6m0-5H87.2c-2.8 0-4.9 2.2-4.9 4.9 0 15.3 12.5 27.7 27.7 27.7s27.6-12.4 27.7-27.5v-.2c.1-2.7-2.2-4.9-4.8-4.9z"/><ellipse cx="109.9" cy="110.1" rx="17" ry="7.6" fill="#ef7d7d"/><path class="st4" d="M195.2 90.6c-3.3 2-7.3.6-7.5.5-2-.7-4.1.3-4.9 2.3-.8 2 .3 4.1 2.3 4.9.2.1 2.7 1 6 1 2.4 0 5.1-.5 7.9-2 4.3-2.5 7.2-7 8.7-13.3-1.7-2.1-3.7-3.8-6.2-5.1-.5.5-.8 1.2-1 1.9-.9 5-2.7 8.3-5.3 9.8zM25.1 90.6c3.3 2 7.3.6 7.5.5 2-.7 4.1.3 4.9 2.3s-.3 4.1-2.3 4.9c-.2.1-2.7 1-6 1-2.4 0-5.1-.5-7.9-2-4.3-2.5-7.2-7-8.7-13.3 1.7-2.1 3.7-3.8 6.2-5.1.5.5.8 1.2 1 1.9.9 5 2.7 8.3 5.3 9.8z"/><path class="st5" d="M205.6 78.3s-4.8 11.8-19.9 11.8"/><path class="st3" d="M182.2 96.9c1.8-3 3.3-8.2.2-14.8"/><path class="st5" d="M14.4 78.3s4.8 11.8 19.9 11.8"/><path class="st3" d="M37.7 96.9c-1.8-3-3.3-8.2-.2-14.8"/></svg>