<svg version="1.1" id="Layer_2" xmlns="http://www.w3.org/2000/svg" x="0" y="0" viewBox="0 0 546 484.4" style="enable-background:new 0 0 546 484.4" xml:space="preserve"><style>.st0{fill:#d8ebfb}.st1{fill:#515979}.st2{fill:#daecfb}.st3{fill:#7ddf96}.st4{fill:#747a94}.st5{fill:#f3f9fe}.st9{fill:#75a5c3}.st10{fill:#ef7d7d}.st11{fill:#fff}.st26{fill:#bad2e1}.st28{fill:#787878}</style><path d="M64.1 191.7h-5.3v-9.3h5.3v1.6h-3.4v2h3.1v1.6h-3.1v2.4h3.4v1.7zM69.9 191.7l-2.2-7.3h-.1c.1 1.5.1 2.5.1 3v4.3H66v-9.3h2.7l2.2 7.1 2.3-7.1h2.7v9.3h-1.8V186.6c0-.3 0-1 .1-2.2h-.1l-2.4 7.3h-1.8zM84 191.7l-.7-2.2h-3.4l-.7 2.2h-2.1l3.3-9.3h2.4l3.3 9.3H84zm-1.2-3.8c-.6-2-1-3.1-1.1-3.4-.1-.3-.1-.5-.2-.6-.1.5-.5 1.9-1.2 4h2.5zM87.2 191.7v-9.3h2v9.3h-2zM91.5 191.7v-9.3h2v7.7h3.8v1.6h-5.8zM198.6 111.6c0 .8-.3 1.5-.9 2-.6.5-1.4.7-2.5.7-1 0-1.9-.2-2.6-.6v-1.8c.6.3 1.2.5 1.6.6.4.1.8.2 1.2.2.4 0 .8-.1 1-.2.2-.2.3-.4.3-.7 0-.2-.1-.3-.2-.5l-.4-.4-1.2-.6c-.6-.3-1-.5-1.3-.8s-.5-.5-.7-.9-.3-.7-.3-1.1c0-.8.3-1.5.8-1.9.6-.5 1.3-.7 2.3-.7.5 0 .9.1 1.4.2.4.1.9.3 1.4.5l-.6 1.5c-.5-.2-.9-.3-1.2-.4-.3-.1-.6-.1-1-.1s-.7.1-.9.3-.3.4-.3.7c0 .2 0 .3.1.5.1.1.2.3.4.4.2.1.6.3 1.2.7.9.4 1.5.8 1.8 1.2.4.1.6.6.6 1.2zM204.2 114.2l-2.2-7.3h-.1c.1 1.5.1 2.5.1 3v4.3h-1.8v-9.3h2.7l2.2 7.1 2.3-7.1h2.7v9.3h-1.8V109.1c0-.3 0-1 .1-2.2h-.1l-2.4 7.3h-1.7zM218 111.6c0 .8-.3 1.5-.9 2-.6.5-1.4.7-2.5.7-1 0-1.9-.2-2.6-.6v-1.8c.6.3 1.2.5 1.6.6.4.1.8.2 1.2.2.4 0 .8-.1 1-.2.2-.2.3-.4.3-.7 0-.2-.1-.3-.2-.5l-.4-.4-1.2-.6c-.6-.3-1-.5-1.3-.8s-.5-.5-.7-.9-.3-.7-.3-1.1c0-.8.3-1.5.8-1.9.6-.5 1.3-.7 2.3-.7.5 0 .9.1 1.4.2.4.1.9.3 1.4.5l-.6 1.5c-.5-.2-.9-.3-1.2-.4-.3-.1-.6-.1-1-.1s-.7.1-.9.3-.3.4-.3.7c0 .2 0 .3.1.5.1.1.2.3.4.4.2.1.6.3 1.2.7.9.4 1.5.8 1.8 1.2.4.1.6.6.6 1.2zM325.1 116.5c0 1.5-.4 2.7-1.1 3.5s-1.9 1.2-3.3 1.2-2.5-.4-3.3-1.2-1.1-2-1.1-3.6.4-2.7 1.1-3.5c.8-.8 1.9-1.2 3.3-1.2s2.5.4 3.3 1.2c.7.9 1.1 2.1 1.1 3.6zm-6.8 0c0 1 .2 1.8.6 2.3.4.5 1 .8 1.8.8 1.6 0 2.4-1 2.4-3.1s-.8-3.1-2.3-3.1c-.8 0-1.4.3-1.8.8-.5.5-.7 1.3-.7 2.3zM329 117.6v3.6h-2v-9.3h2.7c1.3 0 2.2.2 2.8.7.6.5.9 1.2.9 2.1 0 .5-.2 1-.5 1.5-.3.4-.7.8-1.3 1 1.4 2.1 2.3 3.4 2.7 4h-2.2l-2.2-3.6h-.9zm0-1.6h.6c.6 0 1.1-.1 1.4-.3.3-.2.4-.5.4-1 0-.4-.2-.8-.5-.9s-.8-.3-1.4-.3h-.5v2.5zM339.1 116h3.7v4.8c-.6.2-1.2.3-1.7.4-.5.1-1.1.1-1.6.1-1.4 0-2.5-.4-3.2-1.2-.7-.8-1.1-2-1.1-3.5s.4-2.7 1.3-3.5c.9-.8 2-1.3 3.6-1.3 1 0 1.9.2 2.8.6l-.7 1.6c-.7-.3-1.4-.5-2.1-.5-.8 0-1.5.3-2 .9-.5.6-.8 1.3-.8 2.3 0 1 .2 1.8.6 2.3.4.5 1 .8 1.8.8.4 0 .8 0 1.2-.1v-1.9h-1.8V116zM350.7 121.2l-.7-2.2h-3.4l-.7 2.2h-2.1l3.3-9.3h2.4l3.3 9.3h-2.1zm-1.2-3.9c-.6-2-1-3.1-1-3.4-.1-.3-.1-.5-.2-.6-.1.5-.5 1.9-1.2 4h2.4zM362.2 121.2h-2.5l-4-7h-.1c.1 1.2.1 2.1.1 2.7v4.4H354V112h2.5l4 7c-.1-1.2-.1-2.1-.1-2.6V112h1.8v9.2zM364.5 121.2v-9.3h2v9.3h-2zM372.8 113.4c-.7 0-1.3.3-1.7.8-.4.6-.6 1.3-.6 2.3 0 2.1.8 3.1 2.3 3.1.7 0 1.4-.2 2.4-.5v1.7c-.8.3-1.6.5-2.6.5-1.4 0-2.4-.4-3.1-1.2-.7-.8-1.1-2-1.1-3.5 0-1 .2-1.8.5-2.5.4-.7.9-1.3 1.5-1.7.7-.4 1.4-.6 2.3-.6.9 0 1.8.2 2.7.7l-.6 1.6c-.3-.2-.7-.3-1-.4-.3-.2-.7-.3-1-.3zM447.4 193.8c0 1-.3 1.8-.9 2.3-.6.5-1.5.8-2.7.8h-.8v3.3h-2v-9.3h3c1.1 0 2 .2 2.6.7.5.5.8 1.2.8 2.2zm-4.5 1.5h.6c.6 0 1.1-.1 1.4-.4.3-.2.5-.6.5-1 0-.5-.1-.8-.4-1s-.6-.3-1.2-.3h-.9v2.7zM454.8 200.2l-.7-2.2h-3.4l-.7 2.2h-2l3.3-9.3h2.4l3.3 9.3h-2.2zm-1.1-3.9c-.6-2-1-3.1-1.1-3.4s-.1-.5-.2-.6c-.1.5-.5 1.9-1.2 4h2.5zM458.1 200.2v-9.3h2v9.3h-2zM470.1 195.4c0 1.5-.4 2.7-1.3 3.5-.9.8-2.1 1.2-3.8 1.2h-2.6v-9.3h2.9c1.5 0 2.7.4 3.5 1.2s1.3 2 1.3 3.4zm-2 .1c0-2-.9-3-2.6-3h-1v6h.8c1.8 0 2.8-1 2.8-3zM480.9 197.6c0 .8-.3 1.5-.9 2-.6.5-1.4.7-2.5.7-1 0-1.9-.2-2.6-.6v-1.8c.6.3 1.2.5 1.6.6s.8.2 1.2.2c.4 0 .8-.1 1-.2s.3-.4.3-.7c0-.2-.1-.3-.2-.5-.1-.1-.2-.3-.4-.4l-1.2-.6c-.6-.3-1-.5-1.3-.8-.3-.2-.5-.5-.7-.9-.2-.3-.3-.7-.3-1.1 0-.8.3-1.5.8-1.9s1.3-.7 2.3-.7c.5 0 .9.1 1.4.2.4.1.9.3 1.4.5l-.6 1.5c-.5-.2-.9-.3-1.2-.4-.3-.1-.6-.1-1-.1s-.7.1-.9.3c-.2.2-.3.4-.3.7 0 .2 0 .3.1.5.1.1.2.3.4.4.2.1.6.3 1.2.7.9.4 1.5.8 1.8 1.2.4.1.6.6.6 1.2zM491 195.5c0 1.5-.4 2.7-1.1 3.5s-1.9 1.2-3.3 1.2-2.5-.4-3.3-1.2-1.1-2-1.1-3.6.4-2.7 1.1-3.5c.8-.8 1.9-1.2 3.3-1.2s2.5.4 3.3 1.2c.7.9 1.1 2.1 1.1 3.6zm-6.8 0c0 1 .2 1.8.6 2.3s1 .8 1.8.8c1.6 0 2.4-1 2.4-3.1s-.8-3.1-2.3-3.1c-.8 0-1.4.3-1.8.8-.5.5-.7 1.3-.7 2.3zM496.9 192.4c-.7 0-1.3.3-1.7.8-.4.6-.6 1.3-.6 2.3 0 2.1.8 3.1 2.3 3.1.7 0 1.4-.2 2.4-.5v1.7c-.8.3-1.6.5-2.6.5-1.4 0-2.4-.4-3.1-1.2-.7-.8-1.1-2-1.1-3.5 0-1 .2-1.8.5-2.5.4-.7.9-1.3 1.5-1.7.7-.4 1.4-.6 2.3-.6.9 0 1.8.2 2.7.7l-.6 1.6c-.3-.2-.7-.3-1-.4-.4-.2-.7-.3-1-.3zM501.2 200.2v-9.3h2v9.3h-2zM511.2 200.2l-.7-2.2h-3.4l-.7 2.2h-2.1l3.3-9.3h2.4l3.3 9.3h-2.1zm-1.2-3.9c-.6-2-1-3.1-1.1-3.4s-.1-.5-.2-.6c-.1.5-.5 1.9-1.2 4h2.5zM514.5 200.2v-9.3h2v7.7h3.8v1.6h-5.8zM438.7 312.4c-.7 0-1.3.3-1.7.8-.4.6-.6 1.3-.6 2.3 0 2.1.8 3.1 2.3 3.1.7 0 1.4-.2 2.4-.5v1.7c-.8.3-1.6.5-2.6.5-1.3 0-2.4-.4-3.1-1.2-.7-.8-1.1-2-1.1-3.5 0-1 .2-1.8.5-2.5.4-.7.9-1.3 1.5-1.7.7-.4 1.4-.6 2.3-.6.9 0 1.8.2 2.7.7l-.6 1.6c-.3-.2-.7-.3-1-.4-.3-.2-.7-.3-1-.3zM450.6 320.2h-2v-4H445v4h-2v-9.3h2v3.6h3.7v-3.6h2v9.3zM458.7 320.2l-.7-2.2h-3.4l-.7 2.2h-2.1l3.3-9.3h2.4l3.3 9.3h-2.1zm-1.2-3.9c-.6-2-1-3.1-1.1-3.4-.1-.3-.1-.5-.2-.6-.1.5-.5 1.9-1.2 4h2.5zM465.5 320.2h-2v-7.6H461V311h7v1.6h-2.5v7.6zM469.5 310.9h2.9c1.3 0 2.3.2 2.9.6.6.4.9 1 .9 1.8 0 .6-.1 1-.4 1.4-.3.4-.6.6-1 .6v.1c.6.1 1 .4 1.3.7.3.4.4.8.4 1.4 0 .8-.3 1.5-.9 2-.6.5-1.4.7-2.5.7h-3.5v-9.3zm1.9 3.7h1.1c.5 0 .9-.1 1.2-.2s.4-.4.4-.8-.1-.6-.4-.8c-.3-.2-.7-.2-1.2-.2h-1v2zm0 1.5v2.4h1.3c.5 0 .9-.1 1.2-.3.3-.2.4-.5.4-1 0-.8-.6-1.2-1.7-1.2h-1.2zM486.6 315.5c0 1.5-.4 2.7-1.1 3.5s-1.9 1.2-3.3 1.2-2.5-.4-3.3-1.2-1.1-2-1.1-3.6c0-1.5.4-2.7 1.1-3.5.8-.8 1.9-1.2 3.3-1.2s2.5.4 3.3 1.2c.8.9 1.1 2.1 1.1 3.6zm-6.7 0c0 1 .2 1.8.6 2.3.4.5 1 .8 1.8.8 1.6 0 2.4-1 2.4-3.1s-.8-3.1-2.3-3.1c-.8 0-1.4.3-1.8.8-.5.5-.7 1.3-.7 2.3zM492.1 320.2h-2v-7.6h-2.5V311h7v1.6h-2.5v7.6zM501.6 317.6c0 .8-.3 1.5-.9 2-.6.5-1.4.7-2.5.7-1 0-1.9-.2-2.6-.6v-1.8c.6.3 1.2.5 1.6.6s.8.2 1.2.2c.4 0 .8-.1 1-.2s.3-.4.3-.7c0-.2-.1-.3-.2-.5-.1-.1-.2-.3-.4-.4l-1.2-.6c-.6-.3-1-.5-1.3-.8-.3-.2-.5-.5-.7-.9-.2-.3-.3-.7-.3-1.1 0-.8.3-1.5.8-1.9s1.3-.7 2.3-.7c.5 0 .9.1 1.4.2.4.1.9.3 1.4.5l-.6 1.5c-.5-.2-.9-.3-1.2-.4-.3-.1-.6-.1-1-.1s-.7.1-.9.3c-.2.2-.3.4-.3.7 0 .2 0 .3.1.5.1.1.2.3.4.4.2.1.6.3 1.2.7.9.4 1.5.8 1.8 1.2.4.1.6.6.6 1.2z"/><g><path d="M353.7 441.4c0 1.5-.4 2.7-1.3 3.5-.9.8-2.1 1.2-3.8 1.2H346v-9.3h2.9c1.5 0 2.7.4 3.5 1.2s1.3 2 1.3 3.4zm-2.1.1c0-2-.9-3-2.6-3h-1v6h.8c1.9 0 2.8-1 2.8-3zM355.6 446.2v-9.3h2v9.3h-2zM365.4 443.6c0 .8-.3 1.5-.9 2-.6.5-1.4.7-2.5.7-1 0-1.9-.2-2.6-.6v-1.8c.6.3 1.2.5 1.6.6.4.1.8.2 1.2.2.4 0 .8-.1 1-.2.2-.2.3-.4.3-.7 0-.2-.1-.3-.2-.5s-.3-.3-.4-.4l-1.2-.6c-.6-.3-1-.5-1.3-.8-.3-.2-.5-.5-.7-.9-.2-.3-.3-.7-.3-1.1 0-.8.3-1.5.8-1.9.6-.5 1.3-.7 2.3-.7.5 0 .9.1 1.4.2.4.1.9.3 1.4.5l-.6 1.5c-.5-.2-.9-.3-1.2-.4-.3-.1-.6-.1-1-.1s-.7.1-.9.3c-.2.2-.3.4-.3.7 0 .2 0 .3.1.5.1.1.2.3.4.4.2.1.6.3 1.2.7.9.4 1.5.8 1.8 1.2.4.1.6.6.6 1.2zM373.5 439.8c0 1-.3 1.8-.9 2.3-.6.5-1.5.8-2.7.8h-.9v3.3h-2v-9.3h3c1.1 0 2 .2 2.6.7s.9 1.2.9 2.2zm-4.5 1.5h.6c.6 0 1.1-.1 1.4-.4.3-.2.5-.6.5-1 0-.5-.1-.8-.4-1-.3-.2-.6-.3-1.2-.3h-.9v2.7zM375.2 446.2v-9.3h2v7.7h3.8v1.6h-5.8zM388.2 446.2l-.7-2.2h-3.4l-.7 2.2h-2.1l3.3-9.3h2.4l3.3 9.3h-2.1zm-1.1-3.9c-.6-2-1-3.1-1-3.4-.1-.3-.1-.5-.2-.6-.1.5-.5 1.9-1.2 4h2.4zM394.4 440.7l1.9-3.8h2.1l-3.1 5.7v3.6h-2v-3.5l-3.1-5.7h2.1l2.1 3.7z"/></g><g><path d="M195.3 454.9h2l-3.2 9.3H192l-3.1-9.3h2l1.7 5.5c.1.3.2.7.3 1.1.1.4.2.7.2.9 0-.4.2-1.1.5-2l1.7-5.5zM198.4 464.2v-9.3h2v9.3h-2zM210.4 459.4c0 1.5-.4 2.7-1.3 3.5-.9.8-2.1 1.2-3.8 1.2h-2.6v-9.3h2.9c1.5 0 2.7.4 3.5 1.2s1.3 2 1.3 3.4zm-2 .1c0-2-.9-3-2.6-3h-1v6h.8c1.8 0 2.8-1 2.8-3zM217.7 464.2h-5.3v-9.3h5.3v1.6h-3.4v2h3.1v1.6h-3.1v2.4h3.4v1.7zM228.1 459.5c0 1.5-.4 2.7-1.1 3.5s-1.9 1.2-3.3 1.2-2.5-.4-3.3-1.2-1.1-2-1.1-3.6c0-1.5.4-2.7 1.1-3.5.8-.8 1.9-1.2 3.3-1.2s2.5.4 3.3 1.2c.7.9 1.1 2.1 1.1 3.6zm-6.8 0c0 1 .2 1.8.6 2.3.4.5 1 .8 1.8.8 1.6 0 2.4-1 2.4-3.1s-.8-3.1-2.3-3.1c-.8 0-1.4.3-1.8.8-.5.5-.7 1.3-.7 2.3z"/></g><g><path d="M18.9 337.4c-.7 0-1.3.3-1.7.8-.4.6-.6 1.3-.6 2.3 0 2.1.8 3.1 2.3 3.1.7 0 1.4-.2 2.4-.5v1.7c-.8.3-1.6.5-2.6.5-1.4 0-2.4-.4-3.1-1.2-.7-.8-1.1-2-1.1-3.5 0-1 .2-1.8.5-2.5s.9-1.3 1.5-1.7c.7-.4 1.4-.6 2.3-.6.9 0 1.8.2 2.7.7L21 338c-.3-.2-.7-.3-1-.4-.4-.1-.7-.2-1.1-.2zM25.2 341.6v3.6h-2v-9.3H26c1.3 0 2.2.2 2.8.7.6.5.9 1.2.9 2.1 0 .5-.2 1-.5 1.5-.3.4-.7.8-1.3 1 1.4 2.1 2.3 3.4 2.7 4h-2.2l-2.2-3.6h-1zm0-1.6h.6c.6 0 1.1-.1 1.4-.3.3-.2.4-.5.4-1 0-.4-.2-.8-.5-.9-.3-.2-.8-.3-1.4-.3h-.6v2.5zM37.2 345.2h-5.3v-9.3h5.3v1.6h-3.4v2h3.1v1.6h-3.1v2.4h3.4v1.7zM44.8 345.2l-.7-2.2h-3.4l-.7 2.2h-2.1l3.3-9.3h2.4l3.3 9.3h-2.1zm-1.1-3.9c-.6-2-1-3.1-1.1-3.4-.1-.3-.1-.5-.2-.6-.1.5-.5 1.9-1.2 4h2.5zM51.7 345.2h-2v-7.6h-2.5V336h7v1.6h-2.5v7.6zM55.6 345.2v-9.3h2v9.3h-2zM65.2 335.9h2l-3.2 9.3h-2.1l-3.1-9.3h2l1.7 5.5c.1.3.2.7.3 1.1.1.4.2.7.2.9 0-.4.2-1.1.5-2l1.7-5.5zM73.7 345.2h-5.3v-9.3h5.3v1.6h-3.4v2h3.1v1.6h-3.1v2.4h3.4v1.7zM84.5 342.6c0 .8-.3 1.5-.9 2-.6.5-1.4.7-2.5.7-1 0-1.9-.2-2.6-.6v-1.8c.6.3 1.2.5 1.6.6.4.1.8.2 1.2.2.4 0 .8-.1 1-.2.2-.2.3-.4.3-.7 0-.2-.1-.3-.2-.5l-.4-.4-1.2-.6c-.6-.3-1-.5-1.3-.8-.3-.2-.5-.5-.7-.9-.2-.3-.3-.7-.3-1.1 0-.8.3-1.5.8-1.9.6-.5 1.3-.7 2.3-.7.5 0 .9.1 1.4.2.4.1.9.3 1.4.5l-.6 1.5c-.5-.2-.9-.3-1.2-.4-.3-.1-.6-.1-1-.1s-.7.1-.9.3c-.2.2-.3.4-.3.7 0 .2 0 .3.1.5.1.1.2.3.4.4.2.1.6.3 1.2.7.9.4 1.5.8 1.8 1.2.4.1.6.6.6 1.2zM89.8 345.2h-2v-7.6h-2.5V336h7v1.6h-2.5v7.6zM101.3 335.9v6c0 .7-.2 1.3-.5 1.8s-.8.9-1.3 1.2c-.6.3-1.3.4-2.1.4-1.2 0-2.1-.3-2.8-.9s-1-1.4-1-2.5v-6h2v5.7c0 .7.1 1.2.4 1.6.3.3.8.5 1.4.5.6 0 1.1-.2 1.4-.5.3-.3.4-.9.4-1.6v-5.7h2.1zM111.2 340.4c0 1.5-.4 2.7-1.3 3.5-.9.8-2.1 1.2-3.8 1.2h-2.6v-9.3h2.9c1.5 0 2.7.4 3.5 1.2s1.3 2 1.3 3.4zm-2 .1c0-2-.9-3-2.6-3h-1v6h.8c1.8 0 2.8-1 2.8-3zM113.2 345.2v-9.3h2v9.3h-2zM125.9 340.5c0 1.5-.4 2.7-1.1 3.5s-1.9 1.2-3.3 1.2-2.5-.4-3.3-1.2-1.1-2-1.1-3.6c0-1.5.4-2.7 1.1-3.5.8-.8 1.9-1.2 3.3-1.2s2.5.4 3.3 1.2c.7.9 1.1 2.1 1.1 3.6zm-6.8 0c0 1 .2 1.8.6 2.3.4.5 1 .8 1.8.8 1.6 0 2.4-1 2.4-3.1s-.8-3.1-2.3-3.1c-.8 0-1.4.3-1.8.8-.5.5-.7 1.3-.7 2.3z"/></g><g><path class="st0" d="M344.4 424.4c-1 0-1.9-.8-1.9-1.9v-28.4c0-1 .8-1.9 1.9-1.9h34.4c1 0 1.9.8 1.9 1.9v28.4c0 1-.8 1.9-1.9 1.9h-34.4z"/><path class="st1" d="M378.8 393.4c.4 0 .7.3.7.7v28.4c0 .4-.3.7-.7.7h-34.4c-.4 0-.7-.3-.7-.7v-28.4c0-.4.3-.7.7-.7h34.4m0-2.3h-34.4c-1.6 0-3 1.3-3 3v28.4c0 1.6 1.3 3 3 3h34.4c1.6 0 3-1.3 3-3v-28.4c-.1-1.6-1.4-3-3-3z"/><path class="st2" d="M387 424.4c-1 0-1.9-.8-1.9-1.9v-47.8c0-1 .8-1.9 1.9-1.9h21.7c1 0 1.9.8 1.9 1.9v47.8c0 1-.8 1.9-1.9 1.9H387z"/><path class="st1" d="M408.6 373.9c.4 0 .7.3.7.7v47.8c0 .4-.3.7-.7.7H387c-.4 0-.7-.3-.7-.7v-47.8c0-.4.3-.7.7-.7h21.6m0-2.2H387c-1.6 0-3 1.3-3 3v47.8c0 1.6 1.3 3 3 3h21.7c1.6 0 3-1.3 3-3v-47.8c-.1-1.7-1.4-3-3.1-3z"/><path class="st0" d="M331.7 387.8c-1 0-1.9-.8-1.9-1.9v-11.2c0-1 .8-1.9 1.9-1.9h47.1c1 0 1.9.8 1.9 1.9v11.2c0 1-.8 1.9-1.9 1.9h-47.1z"/><path class="st1" d="M378.8 373.9c.4 0 .7.3.7.7v11.2c0 .4-.3.7-.7.7h-47.1c-.4 0-.7-.3-.7-.7v-11.2c0-.4.3-.7.7-.7h47.1m0-2.2h-47.1c-1.6 0-3 1.3-3 3v11.2c0 1.6 1.3 3 3 3h47.1c1.6 0 3-1.3 3-3v-11.2c-.1-1.7-1.4-3-3-3z"/><path class="st3" d="M351.1 419.9c-1 0-1.9-.8-1.9-1.9v-3.7c0-1 .8-1.9 1.9-1.9H372c1 0 1.9.8 1.9 1.9v3.7c0 1-.8 1.9-1.9 1.9h-20.9z"/><path class="st1" d="M372 413.5c.4 0 .7.3.7.7v3.7c0 .4-.3.7-.7.7h-20.9c-.4 0-.7-.3-.7-.7v-3.7c0-.4.3-.7.7-.7H372m0-2.2h-20.9c-1.6 0-3 1.3-3 3v3.7c0 1.6 1.3 3 3 3H372c1.6 0 3-1.3 3-3v-3.7c0-1.7-1.3-3-3-3z"/><path class="st3" d="M391.5 419.9c-1 0-1.9-.8-1.9-1.9v-3.7c0-1 .8-1.9 1.9-1.9h12.7c1 0 1.9.8 1.9 1.9v3.7c0 1-.8 1.9-1.9 1.9h-12.7z"/><path class="st1" d="M404.2 413.5c.4 0 .7.3.7.7v3.7c0 .4-.3.7-.7.7h-12.7c-.4 0-.7-.3-.7-.7v-3.7c0-.4.3-.7.7-.7h12.7m0-2.2h-12.7c-1.6 0-3 1.3-3 3v3.7c0 1.6 1.3 3 3 3h12.7c1.6 0 3-1.3 3-3v-3.7c0-1.7-1.4-3-3-3z"/><path class="st3" d="M361.6 383.3c-1 0-1.9-.8-1.9-1.9v-2.2c0-1 .8-1.9 1.9-1.9h12.7c1 0 1.9.8 1.9 1.9v2.2c0 1-.8 1.9-1.9 1.9h-12.7z"/><path class="st1" d="M374.3 378.4c.4 0 .7.3.7.7v2.2c0 .4-.3.7-.7.7h-12.7c-.4 0-.7-.3-.7-.7v-2.2c0-.4.3-.7.7-.7h12.7m0-2.2h-12.7c-1.6 0-3 1.3-3 3v2.2c0 1.6 1.3 3 3 3h12.7c1.6 0 3-1.3 3-3v-2.2c0-1.7-1.4-3-3-3zM369.4 406.8h-20.2c-.6 0-1.1.5-1.1 1.1 0 .6.5 1.1 1.1 1.1h20.2c.6 0 1.1-.5 1.1-1.1 0-.6-.5-1.1-1.1-1.1zM373.9 402.3h-24.7c-.6 0-1.1.5-1.1 1.1 0 .6.5 1.1 1.1 1.1h24.7c.6 0 1.1-.5 1.1-1.1 0-.6-.5-1.1-1.1-1.1zM347 381.4h-12.7c-.6 0-1.1.5-1.1 1.1 0 .6.5 1.1 1.1 1.1H347c.6 0 1.1-.5 1.1-1.1 0-.6-.5-1.1-1.1-1.1zM355.2 376.9h-20.9c-.6 0-1.1.5-1.1 1.1 0 .6.5 1.1 1.1 1.1h20.9c.6 0 1.1-.5 1.1-1.1 0-.6-.5-1.1-1.1-1.1zM373.9 397.8h-24.7c-.6 0-1.1.5-1.1 1.1 0 .6.5 1.1 1.1 1.1h24.7c.6 0 1.1-.5 1.1-1.1 0-.6-.5-1.1-1.1-1.1zM406 378.4h-16.4c-.6 0-1.1.5-1.1 1.1 0 .6.5 1.1 1.1 1.1H406c.6 0 1.1-.5 1.1-1.1.1-.6-.4-1.1-1.1-1.1zM406 382.9h-16.4c-.6 0-1.1.5-1.1 1.1 0 .6.5 1.1 1.1 1.1H406c.6 0 1.1-.5 1.1-1.1.1-.6-.4-1.1-1.1-1.1zM401.5 387.4h-12c-.6 0-1.1.5-1.1 1.1 0 .6.5 1.1 1.1 1.1h12c.6 0 1.1-.5 1.1-1.1.1-.6-.4-1.1-1.1-1.1zM406 394.1h-16.4c-.6 0-1.1.5-1.1 1.1 0 .6.5 1.1 1.1 1.1H406c.6 0 1.1-.5 1.1-1.1.1-.6-.4-1.1-1.1-1.1zM406 398.6h-16.4c-.6 0-1.1.5-1.1 1.1 0 .6.5 1.1 1.1 1.1H406c.6 0 1.1-.5 1.1-1.1.1-.6-.4-1.1-1.1-1.1zM398.6 405.3h-9c-.6 0-1.1.5-1.1 1.1 0 .6.5 1.1 1.1 1.1h9c.6 0 1.1-.5 1.1-1.1 0-.6-.5-1.1-1.1-1.1z"/></g><g><path class="st4" d="M234.1 442.3v-3.5h-5.5v3.5h-39.4v-3.5h-5.5v3.5H179v-50.4h4.7v3.5h5.5v-3.5h39.4v3.5h5.5v-3.5h4.7v50.4h-4.7zm0-9.1v-7.1h-5.5v7.1h5.5zm-44.9 0v-7.1h-5.5v7.1h5.5zm44.9-12.6v-7.1h-5.5v7.1h5.5zm-44.9 0v-7.1h-5.5v7.1h5.5zm44.9-12.6v-7.1h-5.5v7.1h5.5zm-44.9 0v-7.1h-5.5v7.1h5.5z"/><path class="st1" d="M237.7 393v48h-2.4v-3.5h-7.9v3.5h-37v-3.5h-7.9v3.5h-2.4v-48h2.4v3.5h7.9V393h37v3.5h7.9V393h2.4m-10.3 16.2h7.9v-9.4h-7.9v9.4m-44.9 0h7.9v-9.4h-7.9v9.4m44.9 12.6h7.9v-9.4h-7.9v9.4m-44.9 0h7.9v-9.4h-7.9v9.4m44.9 12.6h7.9V425h-7.9v9.4m-44.9 0h7.9V425h-7.9v9.4m57.5-43.7H232.8V394.3h-3.1v-3.7h-41.8V394.2h-3.1V390.6H177.6v52.8H184.8V439.8h3.1V443.4h41.8V439.8h3.1V443.4H240V390.7zm-10.2 11.4h3.1v4.7h-3.1v-4.7zm-44.9 0h3.1v4.7h-3.1v-4.7zm44.9 12.6h3.1v4.7h-3.1v-4.7zm-44.9 0h3.1v4.7h-3.1v-4.7zm44.9 12.6h3.1v4.7h-3.1v-4.7zm-44.9 0h3.1v4.7h-3.1v-4.7z"/><path class="st2" d="M194 396.6h29.9v18.1H194z"/><path class="st1" d="M222.7 397.8v15.7h-27.6v-15.7h27.6m2.4-2.4h-32.4V415.9h32.4V395.4z"/><path class="st5" d="M204.6 413.5h-3.9l7.8-15.7h4zM209.3 413.5H207l7.8-15.7h2.4z"/><g><path class="st2" d="M194 419.4h29.9v18.1H194z"/><path class="st1" d="M222.7 420.6v15.7h-27.6v-15.7h27.6m2.4-2.4h-32.4V438.7h32.4V418.2z"/></g><g><path class="st5" d="M204.6 436.4h-3.9l7.8-15.8h4zM209.3 436.4H207l7.8-15.8h2.4z"/></g></g><g><path d="M55 269c-.3 0-.6-.1-.8-.3-.3-.3-.5-.7-.4-1.1l1-9.5c.1-.5.4-.9.9-1.1h.3c.4 0 .8.2 1 .5l5.6 7.7c.2.3.3.8.2 1.1-.1.4-.5.7-.8.8l-6.7 1.8c-.1.1-.2.1-.3.1z" style="fill:#ffebeb"/><path class="st1" d="m56.1 258.3 5.6 7.7-6.7 1.8 1.1-9.5m0-2.4c-.2 0-.4 0-.6.1-1 .3-1.7 1.1-1.8 2.1l-1 9.5c-.1.8.2 1.6.8 2.1.5.4 1 .6 1.6.6.2 0 .4 0 .6-.1l6.7-1.8c.8-.2 1.4-.8 1.7-1.6.3-.8.1-1.6-.3-2.3l-5.6-7.7c-.6-.6-1.4-.9-2.1-.9z"/><path class="st1" d="m56.1 258.3 2.2 2.5-2.9.8z"/><path d="M65.9 309.4c-.5 0-1-.4-1.2-.9l-10.8-40.4c-.1-.3 0-.7.1-.9.2-.3.4-.5.7-.6l6.7-1.8h.3c.2 0 .4.1.6.2.3.2.5.4.6.7l10.8 40.4c.1.3 0 .7-.1.9-.2.3-.4.5-.7.6l-6.7 1.8h-.3z" style="fill:#ffd886"/><path class="st1" d="m61.7 266 10.8 40.4-6.7 1.8L55 267.8l6.7-1.8m0-2.5c-.2 0-.4 0-.6.1l-6.7 1.8c-.6.2-1.2.6-1.5 1.1-.3.6-.4 1.2-.2 1.9l10.8 40.4c.3 1.1 1.3 1.8 2.4 1.8.2 0 .4 0 .6-.1l6.7-1.8c.6-.2 1.2-.6 1.5-1.1.3-.6.4-1.2.2-1.9l-10.8-40.4c-.3-1-1.3-1.8-2.4-1.8z"/><path transform="scale(-1) rotate(-14.999 -2184.303 471.805)" style="fill:#fbb040" d="M60.4 266.6h3.4v41.9h-3.4z"/><path transform="rotate(-14.999 70.355 311.651)" class="st9" d="M65.7 308.4h9.4v6.4h-9.4z"/><path class="st1" d="m73.2 308.8 1 3.8-6.7 1.8-1-3.8 6.7-1.8m1.7-3-2.4.6-6.7 1.8-2.4.6.6 2.4 1 3.8.6 2.4 2.4-.6 6.7-1.8 2.4-.6-.6-2.4-1-3.8-.6-2.4z"/><g><path class="st10" d="M70.5 322.2c-1.1 0-2.1-.8-2.4-1.8l-1.1-4.3 8.6-2.3 1.1 4.3c.4 1.3-.4 2.7-1.7 3l-3.8 1c-.3 0-.5.1-.7.1z"/><path class="st1" d="m74.5 315.6.8 2.9c.1.5-.2 1.1-.7 1.2l-3.8 1h-.3c-.4 0-.8-.3-1-.7l-.8-2.9 5.8-1.5m2.1-3.6-2.9.8-5.7 1.5-2.9.8.8 2.9.8 2.9c.5 1.7 2 2.9 3.8 2.9.3 0 .7 0 1-.1l3.8-1c1-.3 1.9-.9 2.4-1.8s.7-2 .4-3l-.8-2.9-.7-3z"/></g><g><path class="st1" d="M69.2 308.3c-.4 0-.8-.3-1-.7l-10.8-40.4c-.1-.5.2-1.1.7-1.2.5-.1 1.1.2 1.2.7l10.8 40.4c.1.5-.2 1.1-.7 1.2h-.2z"/></g><g><path class="st11" d="M53.6 316.6c-7.3 0-13.3-6-13.3-13.3s6-13.3 13.3-13.3 13.3 6 13.3 13.3-5.9 13.3-13.3 13.3zm0-19.7c-3.5 0-6.4 2.9-6.4 6.4s2.9 6.4 6.4 6.4c3.5 0 6.4-2.9 6.4-6.4s-2.8-6.4-6.4-6.4z"/><path class="st1" d="M53.6 291.5c6.5 0 11.8 5.3 11.8 11.8 0 6.5-5.3 11.8-11.8 11.8s-11.8-5.3-11.8-11.8c0-6.5 5.3-11.8 11.8-11.8m0 19.7c4.4 0 7.9-3.5 7.9-7.9s-3.5-7.9-7.9-7.9-7.9 3.5-7.9 7.9 3.6 7.9 7.9 7.9m0-22.6c-8.1 0-14.8 6.6-14.8 14.8s6.6 14.8 14.8 14.8c8.1 0 14.8-6.6 14.8-14.8s-6.6-14.8-14.8-14.8zm0 19.7c-2.7 0-4.9-2.2-4.9-4.9s2.2-4.9 4.9-4.9 4.9 2.2 4.9 4.9-2.2 4.9-4.9 4.9z"/></g><g><path class="st0" d="M57.1 314.6v-4.2c-1 .5-2.2.8-3.4.8-.9 0-1.7-.1-2.5-.4v4.1c.8.2 1.6.3 2.5.3 1.1-.1 2.3-.2 3.4-.6zM53.6 295.5c1.2 0 2.4.3 3.4.8V292c-1.1-.3-2.2-.5-3.4-.5-.8 0-1.7.1-2.5.3v4.1c.8-.3 1.7-.4 2.5-.4z"/></g><g><path d="M84.1 306.7h-.3l-11.4-3.1c-.7-.2-1-.9-.9-1.5L85 251.7c.1-.6.6-.9 1.2-.9h.3l11.4 3.1c.3.1.6.3.7.6.2.3.2.6.1.9l-13.5 50.4c-.1.3-.3.6-.6.7-.1.1-.3.2-.5.2z" style="fill:#c7bcff"/><path class="st1" d="m86.2 252 11.4 3.1-13.5 50.4-11.4-3.1L86.2 252m0-2.5c-1.1 0-2.1.7-2.4 1.8l-13.5 50.4c-.2.6-.1 1.3.2 1.9.3.6.9 1 1.5 1.1l11.4 3.1c.2.1.4.1.6.1 1.1 0 2.1-.7 2.4-1.8l13.5-50.4c.2-.6.1-1.3-.2-1.9-.3-.6-.9-1-1.5-1.1l-11.4-3.1c-.2-.1-.4-.1-.6-.1z"/><circle class="st1" cx="90.7" cy="257.8" r="1.5"/><path class="st1" d="m94.4 259.3 1.9.5.5-1.9-1.9-.5c-.5-.1-1.1.2-1.2.7-.1.5.2 1 .7 1.2zM91.7 263.7l3.3.9.5-1.9-3.3-.9c-.5-.1-1.1.2-1.2.7-.1.5.2 1 .7 1.2zM91.9 268.8l1.9.5.5-1.9-1.9-.5c-.5-.1-1.1.2-1.2.7-.2.5.1 1.1.7 1.2zM89.2 273.2l3.3.9.5-1.9-3.3-.9c-.5-.1-1.1.2-1.2.7-.2.5.1 1 .7 1.2zM89.3 278.3l1.9.5.5-1.9-1.9-.5c-.5-.1-1.1.2-1.2.7-.1.5.2 1.1.7 1.2zM86.6 282.7l3.3.9.5-1.9-3.3-.9c-.5-.1-1.1.2-1.2.7-.1.5.2 1 .7 1.2zM86.8 287.8l1.9.5.5-1.9-1.9-.5c-.5-.1-1.1.2-1.2.7-.2.5.1 1.1.7 1.2zM84.1 292.2l3.3.9.5-1.9-3.3-.9c-.5-.1-1.1.2-1.2.7-.2.5.1 1.1.7 1.2zM84.2 297.3l1.9.5.5-1.9-1.9-.5c-.5-.1-1.1.2-1.2.7-.1.5.2 1.1.7 1.2z"/><g><path class="st1" d="m81.5 301.7 3.3.9.5-1.9-3.3-.9c-.5-.1-1.1.2-1.2.7-.1.5.2 1.1.7 1.2z"/></g></g><g><path class="st0" d="M69.6 271.1H76v5.4h-6.4z"/><path class="st1" d="M74.8 272.3v3h-3.9v-3h3.9m2.5-2.5h-8.9v8h8.9v-8z"/><path d="M72.8 309c-.6 0-1.1-.4-1.2-1-.2-.8-4.6-19.8-2.5-30.1.1-.6.6-1 1.2-1h4.9c.6 0 1.1.4 1.2 1 2.1 10.3-2.3 29.3-2.5 30.1 0 .6-.5 1-1.1 1z" style="fill:#b29d90"/><path class="st1" d="M75.3 278.2c2.1 10.1-2.5 29.5-2.5 29.5s-4.5-19.4-2.5-29.5h5m0-2.4h-4.9c-1.2 0-2.2.8-2.4 2-2.2 10.5 2.3 29.8 2.5 30.6.3 1.1 1.3 1.9 2.4 1.9s2.1-.8 2.4-1.9c.2-.8 4.6-20.1 2.5-30.6-.3-1.2-1.3-2-2.5-2z"/><g><path class="st4" d="M72.8 271.1c-2.9 0-5.2-2.3-5.2-5.2 0-2.4 1-3.8 1.8-5 .7-1 1.4-2 1.7-3.7.1-.4.3-.8.7-.9.2-.1.3-.1.5-.1s.5.1.7.2c5.1 3.5 5 8.9 5 9.5 0 2.9-2.3 5.2-5.2 5.2z"/><path class="st1" d="M72.3 257.4c4.8 3.3 4.4 8.5 4.4 8.5 0 2.2-1.8 3.9-3.9 3.9s-3.9-1.8-3.9-3.9c0-3.8 2.8-4.3 3.4-8.5m0-2.4c-.3 0-.7.1-1 .2-.8.3-1.3 1-1.5 1.9-.2 1.4-.8 2.2-1.5 3.2-.9 1.3-2 2.9-2 5.7 0 3.5 2.9 6.4 6.4 6.4 3.5 0 6.4-2.8 6.4-6.3 0-.9 0-6.7-5.5-10.6-.3-.4-.8-.5-1.3-.5z"/></g><g><path class="st10" d="M72.3 257.4c-.7 4.1-3.4 4.6-3.4 8.4 2 .4 5.9.1 7.4-3-.5-1.7-1.7-3.8-4-5.4z"/></g></g><g><path class="st11" d="M62 323c-3.5 0-6.4-2.9-6.4-6.4v-29.5c0-.8.7-1.5 1.5-1.5h35.5c.8 0 1.5.7 1.5 1.5v29.5c0 3.5-2.9 6.4-6.4 6.4H62z"/><path class="st1" d="M92.5 287.1v29.5c0 2.7-2.2 4.9-4.9 4.9H62c-2.7 0-4.9-2.2-4.9-4.9v-29.5h35.4m0-3H57.1c-1.6 0-3 1.3-3 3v29.5c0 4.3 3.5 7.9 7.9 7.9h25.6c4.3 0 7.9-3.5 7.9-7.9v-29.5c0-1.6-1.3-3-3-3z"/><g><path class="st0" d="M63 316.6v-29.5h-5.9v29.5c0 2.7 2.2 4.9 4.9 4.9h5.9c-2.7.1-4.9-2.2-4.9-4.9z"/></g></g></g><g><path class="st0" d="M47.7 169.1c-2.1 0-3.9-1.7-3.9-3.9v-37.9c0-2.1 1.7-3.9 3.9-3.9h59.4c2.1 0 3.9 1.7 3.9 3.9v37.9c0 2.1-1.7 3.9-3.9 3.9H47.7z"/><path class="st1" d="M107.2 124.8c1.4 0 2.6 1.2 2.6 2.6v37.9c0 1.4-1.2 2.6-2.6 2.6H47.7c-1.4 0-2.6-1.2-2.6-2.6v-37.9c0-1.4 1.2-2.6 2.6-2.6h59.5m0-2.6H47.7c-2.9 0-5.2 2.3-5.2 5.2v37.9c0 2.9 2.3 5.2 5.2 5.2h59.4c2.9 0 5.2-2.3 5.2-5.2v-37.9c.1-2.9-2.3-5.2-5.1-5.2z"/><path d="m74.7 156-29.6-31.2v7l26 27.7c1.7 1.8 4.6 1.8 6.3 0l2.5-2.6c-1.7.8-3.8.5-5.2-.9z" style="fill:#acc9db"/><path class="st1" d="M77.5 158.5c-1.5 0-3-.6-4.1-1.8l-29.2-31.1c-.5-.5-.5-1.3.1-1.8.5-.5 1.3-.5 1.8.1L75.3 155c.6.6 1.4 1 2.2 1 .8 0 1.6-.3 2.2-1l29.2-31.1c.5-.5 1.3-.5 1.8-.1.5.5.5 1.3.1 1.8l-29.2 31.1a5.54 5.54 0 0 1-4.1 1.8z"/><path class="st1" d="M109.8 169.1c-.4 0-.7-.1-1-.4l-19.4-21.5c-.5-.5-.4-1.3.1-1.8s1.3-.4 1.8.1l19.4 21.5c.5.5.4 1.3-.1 1.8-.2.2-.5.3-.8.3z"/><g><path class="st1" d="M45.2 169.1c-.3 0-.6-.1-.9-.3-.5-.5-.6-1.3-.1-1.8l19.4-21.5c.5-.5 1.3-.6 1.8-.1s.6 1.3.1 1.8l-19.4 21.5c-.2.3-.6.4-.9.4z"/></g></g><g><path class="st4" d="M187.8 91.6c-2.2 0-3.9-1.8-3.9-3.9V16.8c0-2.2 1.8-3.9 3.9-3.9h34.9c2.2 0 3.9 1.8 3.9 3.9v70.9c0 2.2-1.8 3.9-3.9 3.9h-34.9z"/><path class="st1" d="M222.6 14.6c1.2 0 2.2 1 2.2 2.2v70.9c0 1.2-1 2.2-2.2 2.2h-34.9c-1.2 0-2.2-1-2.2-2.2V16.8c0-1.2 1-2.2 2.2-2.2h34.9m0-3.4h-34.9c-3.1 0-5.6 2.5-5.6 5.6v70.9c0 3.1 2.5 5.6 5.6 5.6h34.9c3.1 0 5.6-2.5 5.6-5.6V16.8c.1-3.1-2.5-5.6-5.6-5.6z"/><path class="st0" d="M184.4 21.3H226v64.1h-41.6z"/><path class="st1" d="M224.9 22.4v61.9h-39.4V22.4h39.4m2.2-2.2H183.3v66.3H227.1V20.2z"/><path class="st5" d="M199 84.3h-9l11.3-61.9h9zM208 84.3h-5.6l11.2-61.9h5.7z"/><path class="st1" d="M210.8 18.5h-11.2c-.6 0-1.1-.5-1.1-1.1s.5-1.1 1.1-1.1h11.2c.6 0 1.1.5 1.1 1.1s-.5 1.1-1.1 1.1zM182.1 36.5c-.9 0-1.7-.8-1.7-1.7V28c0-.9.8-1.7 1.7-1.7.9 0 1.7.8 1.7 1.7v6.7c0 1-.7 1.8-1.7 1.8z"/><g><path class="st1" d="M182.1 50c-.9 0-1.7-.8-1.7-1.7v-6.7c0-.9.8-1.7 1.7-1.7.9 0 1.7.8 1.7 1.7v6.7c0 .9-.7 1.7-1.7 1.7z"/></g><g><path class="st1" d="M228.3 43.2c-.9 0-1.7-.8-1.7-1.7v-6.7c0-.9.8-1.7 1.7-1.7s1.7.8 1.7 1.7v6.7c-.1 1-.8 1.7-1.7 1.7z"/></g></g><g><path class="st3" d="M321.3 98.3c-.4 0-.7-.1-1-.4l-3.2-3.2c-.3-.3-.4-.6-.4-1s.2-.7.5-1l11.7-9.8c.3-.2.6-.3.9-.3.3 0 .7.1 1 .4l1.3 1.3c.5.5.5 1.3.1 1.8l-9.8 11.7c-.3.3-.7.4-1.1.5z"/><path class="st1" d="m329.8 83.9 1.3 1.3-9.8 11.7-3.2-3.2 11.7-9.8m0-2.7c-.6 0-1.2.2-1.7.6l-11.7 9.8c-.6.5-.9 1.2-1 1.9s.3 1.5.8 2l3.2 3.2c.5.5 1.2.8 1.9.8h.1c.8 0 1.5-.4 1.9-1l9.8-11.7c.9-1.1.8-2.6-.2-3.6l-1.3-1.3c-.4-.4-1.1-.7-1.8-.7z"/></g><g style="opacity:.3"><path class="st1" d="m329.8 83.9-5.8 4.9c.3.4.7.8 1.1 1.2.4.4.8.7 1.2 1.1l4.9-5.8-1.4-1.4z"/></g><g><path class="st3" d="M344.1 91.5c-5.5 0-10.7-2.1-14.6-6-3.9-3.9-6-9.1-6-14.6s2.1-10.7 6-14.6c14.1-14.1 44-17.4 45.2-17.5l1.7-.2-.2 1.7c0 .2-.4 3.9-1.5 9.3l-.2 1.1h-1.2c-1.5 0-2.7 1.2-2.7 2.7 0 1 .6 2 1.5 2.4l1 .5-.3 1.1c-3.4 12.7-8.2 22.2-14.2 28.1-3.8 3.9-9 6-14.5 6z"/><path class="st1" d="M374.9 40.1s-.4 3.7-1.5 9.2h-.1c-2.2 0-4 1.8-4 4 0 1.6.9 3 2.3 3.6-2.5 9.4-6.8 20.5-13.8 27.5-3.8 3.8-8.7 5.7-13.6 5.7s-9.9-1.9-13.6-5.7c-7.5-7.5-7.5-19.7 0-27.3 13.8-13.8 44.3-17 44.3-17m3-3-3.3.3c-1.3.1-31.6 3.4-46 17.9-4.2 4.2-6.4 9.7-6.4 15.5s2.3 11.4 6.4 15.5c4.2 4.2 9.7 6.4 15.5 6.4s11.4-2.3 15.5-6.4c6.1-6.1 11-15.8 14.5-28.7l.6-2.2-2-1c-.4-.2-.8-.6-.8-1.2 0-.7.6-1.3 1.3-1.3H375.5l.4-2.2c1.1-5.5 1.5-9.3 1.5-9.5l.5-3.1z"/></g><g><path d="M333.9 58.3c14-14 41-18.2 41-18.2s-30.5 3.2-44.4 17.1c-7.5 7.5-7.5 19.7 0 27.3-7.6-7.5-4.2-18.7 3.4-26.2z" style="fill:#beefca"/></g><g><path class="st3" d="m374.9 40.1-44.4 44.4"/><path class="st1" d="M330.5 85.7c-.3 0-.6-.1-.8-.3-.4-.4-.4-1.1 0-1.6l44.4-44.4c.4-.4 1.1-.4 1.6 0 .4.4.4 1.1 0 1.6l-44.4 44.4c-.3.2-.5.3-.8.3z"/></g><g><path class="st1" d="M358.5 86.4h-.2l-24.6-4.2c-.6-.1-1-.7-.9-1.3.1-.6.7-1 1.3-.9l24.6 4.2c.6.1 1 .7.9 1.3 0 .5-.5.9-1.1.9zM365.8 76.5h-.2l-22.3-3.9c-.6-.1-1-.7-.9-1.3.1-.6.7-1 1.3-.9l22.3 3.9c.6.1 1 .7.9 1.3-.1.6-.6.9-1.1.9zM370.2 66h-.2l-17.2-2.9c-.6-.1-1-.7-.9-1.3.1-.6.7-1 1.3-.9l17.2 2.9c.6.1 1 .7.9 1.3-.1.5-.6.9-1.1.9zM370.9 54.4h-.1l-8.4-.8c-.6-.1-1.1-.6-1-1.2.1-.6.6-1.1 1.2-1l8.4.8c.6.1 1.1.6 1 1.2 0 .6-.5 1-1.1 1z"/><path class="st1" d="M334 82.2c-.5 0-1-.4-1.1-.9l-4.2-24.6c-.1-.6.3-1.2.9-1.3.6-.1 1.2.3 1.3.9l4.2 24.6c.1.6-.3 1.2-.9 1.3h-.2zM343.5 72.7c-.5 0-1-.4-1.1-.9l-3.9-22.3c-.1-.6.3-1.2.9-1.3.6-.1 1.2.3 1.3.9l3.9 22.3c.1.6-.3 1.2-.9 1.3h-.2zM353 63.1c-.5 0-1-.4-1.1-.9L349 44.7c-.1-.6.3-1.2.9-1.3.6-.1 1.2.3 1.3.9l2.9 17.5c.1.6-.3 1.2-.9 1.3h-.2zM362.5 53.6c-.6 0-1.1-.4-1.1-1l-1-11.1c-.1-.6.4-1.2 1-1.2.6-.1 1.2.4 1.2 1l1 11.1c.1.6-.4 1.2-1 1.2h-.1z"/></g><g><path class="st1" d="M445.4 151.5c4.1 0 4.6 0 6.2.1 1.5.1 2.3.3 2.8.5.7.3 1.2.6 1.8 1.1.5.5.9 1 1.1 1.8.2.5.5 1.3.5 2.8.1 1.6.1 2.1.1 6.2s0 4.6-.1 6.2c-.1 1.5-.3 2.3-.5 2.8-.3.7-.6 1.2-1.1 1.8-.5.5-1 .9-1.8 1.1-.5.2-1.3.5-2.8.5-1.6.1-2.1.1-6.2.1s-4.6 0-6.2-.1c-1.5-.1-2.3-.3-2.8-.5-.7-.3-1.2-.6-1.8-1.1-.5-.5-.9-1-1.1-1.8-.2-.5-.5-1.3-.5-2.8-.1-1.6-.1-2.1-.1-6.2s0-4.6.1-6.2c.1-1.5.3-2.3.5-2.8.3-.7.6-1.2 1.1-1.8.5-.5 1-.9 1.8-1.1.5-.2 1.3-.5 2.8-.5 1.6-.1 2.1-.1 6.2-.1m0-2.7c-4.1 0-4.7 0-6.3.1-1.6.1-2.7.3-3.7.7-1 .4-1.9.9-2.7 1.8-.8.8-1.4 1.7-1.8 2.7-.4 1-.6 2.1-.7 3.7-.1 1.6-.1 2.1-.1 6.3s0 4.7.1 6.3c.1 1.6.3 2.7.7 3.7.4 1 .9 1.9 1.8 2.7.8.8 1.7 1.4 2.7 1.8 1 .4 2.1.6 3.7.7 1.6.1 2.1.1 6.3.1s4.7 0 6.3-.1c1.6-.1 2.7-.3 3.7-.7 1-.4 1.9-.9 2.7-1.8.8-.8 1.4-1.7 1.8-2.7.4-1 .6-2.1.7-3.7.1-1.6.1-2.1.1-6.3 0-4.1 0-4.7-.1-6.3-.1-1.6-.3-2.7-.7-3.7-.4-1-.9-1.9-1.8-2.7-.8-.8-1.7-1.4-2.7-1.8-1-.4-2.1-.6-3.7-.7-1.7-.1-2.2-.1-6.3-.1z"/><path class="st1" d="M445.4 156.2c-4.3 0-7.8 3.5-7.8 7.8s3.5 7.8 7.8 7.8 7.8-3.5 7.8-7.8-3.5-7.8-7.8-7.8zm0 12.9c-2.8 0-5.1-2.3-5.1-5.1s2.3-5.1 5.1-5.1 5.1 2.3 5.1 5.1-2.3 5.1-5.1 5.1z"/><circle class="st1" cx="453.5" cy="155.9" r="1.8"/><path d="M516.5 112.7c-8.4 0-15.3 6.8-15.3 15.3V129.8c0 .2 0 .3.1.5v.1c0 .1 0 .3.1.4v.1c0 .2.1.3.1.5v.1c0 .1.1.2.1.3v.2c0 .1.1.3.1.4 0 .1 0 .1.1.2 0 .1.1.2.1.3 0 .1 0 .1.1.2 0 .1.1.3.1.4 0 .1.1.1.1.2s.1.2.1.2c.1.1.1.2.2.3 0 .1.1.1.1.2s.1.2.1.2c0 .1.1.1.1.2.1.2.2.3.2.4 0 0 0 .1.1.1.1.1.1.2.2.3 0 0 0 .1.1.1.1.2.2.3.3.5v.1l.6.9c1.7 2.1 3.9 3.8 6.4 4.8-.1-1.2-.3-3.1.1-4.4.3-1.2 1.8-7.6 1.8-7.6s-.5-.9-.5-2.3c0-2.1 1.2-3.7 2.8-3.7 1.3 0 1.9 1 1.9 2.1 0 1.3-.8 3.3-1.3 5.1-.4 1.5.8 2.8 2.3 2.8 2.7 0 4.8-2.9 4.8-7 0-3.7-2.6-6.2-6.4-6.2-4.3 0-6.9 3.3-6.9 6.6 0 1.3.5 2.7 1.1 3.5.1.2.1.3.1.4-.1.5-.4 1.5-.4 1.7-.1.3-.2.3-.5.2-1.9-.9-3.1-3.7-3.1-5.9 0-4.8 3.5-9.2 10.1-9.2 5.3 0 9.4 3.8 9.4 8.8 0 5.3-3.3 9.5-7.9 9.5-1.5 0-3-.8-3.5-1.8 0 0-.8 2.9-1 3.6-.3 1.3-1.3 3-1.9 4 1.4.4 3 .7 4.5.7 4.2 0 8-1.7 10.8-4.5 2.8-2.8 4.5-6.6 4.5-10.8.3-8.1-6.5-14.9-15-14.9z" style="fill:#c8232d"/><path d="M474.9 177.2c12.3 0 19-10.2 19-19v-.9c1.3-.9 2.4-2.1 3.3-3.5-1.2.5-2.5.9-3.8 1 1.4-.8 2.4-2.1 2.9-3.7-1.3.8-2.7 1.3-4.2 1.6-2.5-2.7-6.8-2.8-9.4-.3-1.7 1.6-2.5 4.1-1.9 6.4-5.4-.3-10.4-2.8-13.8-7-1.8 3-.9 7 2.1 8.9-1.1 0-2.1-.3-3-.8v.1c0 3.2 2.2 5.9 5.4 6.5-1 .3-2 .3-3 .1.9 2.7 3.4 4.6 6.2 4.6-2.4 1.9-5.3 2.9-8.3 2.9-.5 0-1.1 0-1.6-.1 2.9 2.2 6.5 3.2 10.1 3.2" style="fill:#2caae1"/><path d="M445.4 112.8c-8.4 0-15.2 6.8-15.2 15.2 0 7.6 5.6 13.9 12.9 15.1v-10.7h-3.9V128h3.9v-3.4c0-3.8 2.3-5.9 5.8-5.9 1.7 0 3.4.3 3.4.3v3.8h-1.9c-1.9 0-2.5 1.2-2.5 2.4v2.9h4.2l-.7 4.4h-3.6v10.7c7.3-1.1 12.9-7.5 12.9-15.1-.1-8.5-6.9-15.3-15.3-15.3z" style="fill:#4373b9"/><g><path d="M529 149.3h-25c-1.2 0-2.2.9-2.2 2.1v25.3c0 1.2 1 2.1 2.2 2.1h25c1.2 0 2.2-.9 2.2-2.1v-25.3c0-1.2-1-2.1-2.2-2.1zM506.3 174v-13.3h4.4V174h-4.4zm2.2-15.2c-1.5 0-2.5-1-2.5-2.3 0-1.3 1-2.3 2.5-2.3s2.4 1 2.5 2.3c0 1.3-.9 2.3-2.5 2.3zm18.2 15.2h-4.4v-7.1c0-1.8-.6-3-2.2-3-1.2 0-2 .8-2.3 1.6-.1.3-.1.7-.1 1.1v7.4h-4.4s.1-12.1 0-13.3h4.4v1.9c.6-.9 1.6-2.2 4-2.2 2.9 0 5.1 1.9 5.1 6v7.6z" style="fill:#0173b2"/></g><g><path d="M470.1 142.2c-7.4-6.4-2.6-20.6 8.7-18.8v1.3c-9.6-.4-13.8 10.9-8.7 17.5zm20.6-24.7c1.2.9 2.8 1.6 5 1.7v1.3c-2.5-.4-4-1.6-5-3zm-3.1-6.7c0 .5.1 1 .1 1.5h-4.5v22.4c0 1-.1 2-.3 2.8-1.8 4-7 3.5-8.5.7 2.1 1.3 5.7 1 7.1-2.2.2-.8.3-1.7.3-2.8v-22.4h5.8z" style="fill-rule:evenodd;clip-rule:evenodd;fill:#6bcad3"/><path d="M489 112.2c0 .5.2 8.1 8 8.5v5.8c-.6 0-5.2-.3-8.1-2.8V135c.1 5.1-2.8 10.1-8.1 11.1-1.5.3-2.8.3-5.1-.2-13-3.9-8.7-23.2 4.4-21.1v6.2c-5.4-.8-7.2 3.7-5.8 6.9 1.3 2.9 6.7 3.6 8.6-.6.2-.8.3-1.7.3-2.8v-22.4h5.8z" style="fill-rule:evenodd;clip-rule:evenodd;fill:#010101"/><path d="M478.8 124.7c.4 0 .9.1 1.4.1v6.2c-5.4-.8-7.2 3.7-5.8 6.9 0 .1.1.1.1.2-.6-.4-1.2-1-1.5-1.6-1.4-3.2.4-7.7 5.8-6.9v-4.9zm16.9-4.1c.4.1.9.1 1.4.2v5.8c-.6 0-5.2-.3-8.1-2.8v11.3c.1 5.1-2.8 10.1-8.1 11.1-1.5.3-2.8.3-5.1-.2-2.5-.8-4.4-2.1-5.7-3.8 1.1 1 2.6 1.8 4.3 2.3 2.3.5 3.6.5 5.1.2 5.3-1 8.2-6 8.1-11.1v-11.3c2.9 2.6 7.5 2.9 8.1 2.8v-4.5zm-6.7-8.4c0 .3.1 3 1.7 5.3-2-1.6-2.7-3.9-2.9-5.3h1.2z" style="fill-rule:evenodd;clip-rule:evenodd;fill:#ee1d53"/></g></g><g><circle cx="468.7" cy="240.5" r="5.6" style="fill:#f89d81"/><path class="st1" d="M468.7 236.3c2.3 0 4.2 1.9 4.2 4.2s-1.9 4.2-4.2 4.2-4.2-1.9-4.2-4.2 1.9-4.2 4.2-4.2m0-2.8c-3.9 0-7 3.1-7 7s3.1 7 7 7 7-3.1 7-7-3.1-7-7-7z"/><path d="M471.1 241.2c-.4 0-.7-.3-.7-.7 0-.9-.7-1.7-1.7-1.7-.4 0-.7-.3-.7-.7 0-.4.3-.7.7-.7 1.7 0 3 1.3 3 3 0 .5-.3.8-.6.8z" style="fill:#fbcec0"/><path class="st9" d="M433.2 281.3c-1.3 0-2.3-1-2.3-2.3v-11.2c0-1.3 1-2.3 2.3-2.3h5.6c.8 0 1.4.6 1.4 1.4V280c0 .8-.6 1.4-1.4 1.4h-5.6z"/><path class="st1" d="M438.8 266.8v13.1h-5.6c-.5 0-.9-.4-.9-.9v-11.2c0-.5.4-.9.9-.9h5.6m0-3h-5.6c-2.1 0-3.7 1.7-3.7 3.7v11.2c0 2.1 1.7 3.7 3.7 3.7h5.6c1.6 0 2.8-1.3 2.8-2.8v-13.1c0-1.4-1.3-2.7-2.8-2.7z"/><path class="st9" d="M458.9 251.3c-.8 0-1.4-.6-1.4-1.4v-5.6c0-1.3 1-2.3 2.3-2.3h17.8c1.3 0 2.3 1 2.3 2.3v5.6c0 .8-.6 1.4-1.4 1.4h-19.6z"/><path class="st1" d="M477.6 243.4c.5 0 .9.4.9.9v5.6h-19.7v-5.6c0-.5.4-.9.9-.9h17.9m0-2.9h-17.8c-2.1 0-3.7 1.7-3.7 3.7v5.6c0 1.6 1.3 2.8 2.8 2.8h19.7c1.6 0 2.8-1.3 2.8-2.8v-5.6c0-2-1.7-3.7-3.8-3.7z"/><path class="st9" d="M498.7 281.3c-.8 0-1.4-.6-1.4-1.4v-13.1c0-.8.6-1.4 1.4-1.4h5.6c1.3 0 2.3 1 2.3 2.3v11.2c0 1.3-1 2.3-2.3 2.3h-5.6z"/><path class="st1" d="M504.3 266.8c.5 0 .9.4.9.9v11.2c0 .5-.4.9-.9.9h-5.6v-13.1h5.6m0-2.8h-5.6c-1.6 0-2.8 1.3-2.8 2.8v13.1c0 1.6 1.3 2.8 2.8 2.8h5.6c2.1 0 3.7-1.7 3.7-3.7v-11.2c0-2.1-1.6-3.8-3.7-3.8z"/><path class="st26" d="M438.8 269.6h-6.6v-1.9c0-.5.4-.9.9-.9h5.6v2.8z"/><g><path class="st26" d="M504.3 266.8h-5.6v2.8h6.6v-1.9c-.1-.5-.5-.9-1-.9z"/></g><g><path class="st26" d="M443.5 298.1c-3.4 0-6.1-2.7-6.1-6.1v-37.4c0-3.4 2.7-6.1 6.1-6.1H494c3.4 0 6.1 2.7 6.1 6.1V292c0 3.4-2.7 6.1-6.1 6.1h-50.5z"/><path class="st1" d="M494 249.9c2.6 0 4.7 2.1 4.7 4.7V292c0 2.6-2.1 4.7-4.7 4.7h-50.5c-2.6 0-4.7-2.1-4.7-4.7v-37.4c0-2.6 2.1-4.7 4.7-4.7H494m0-2.8h-50.5c-4.1 0-7.5 3.4-7.5 7.5V292c0 4.1 3.4 7.5 7.5 7.5H494c4.1 0 7.5-3.4 7.5-7.5v-37.4c0-4.1-3.4-7.5-7.5-7.5z"/></g><g><path d="M494.9 261.1c-.5 0-.9-.4-.9-.9V256c0-.8-.6-1.4-1.4-1.4h-4.2c-.5 0-.9-.4-.9-.9s.4-.9.9-.9h4.2c1.8 0 3.3 1.5 3.3 3.3v4.2c0 .4-.4.8-1 .8z" style="fill:#e3edf3"/></g><g><path class="st1" d="M480.4 274.5c-.2 0-.4-.1-.5-.2-1-.7-2.6-.7-3.6 0-.4.3-1 .2-1.3-.2-.3-.4-.2-1 .2-1.3 1.6-1.2 4.2-1.2 5.8 0 .4.3.5.9.2 1.3-.2.3-.5.4-.8.4z"/><circle class="st1" cx="478.1" cy="269.5" r="3.7"/><circle class="st11" cx="479" cy="269.5" r=".9"/><path class="st1" d="M475.3 261.2c.3-.3.6-.5.9-.7.3-.2.7-.3 1-.4.7-.2 1.5-.3 2.3-.2.8.1 1.6.4 2.3.9.7.5 1.1 1.1 1.4 1.8.2.6 0 1.2-.6 1.5-.3.1-.6.1-.8 0l-.3-.1c-.5-.2-.9-.4-1.3-.5-.4-.1-.7-.2-1.1-.3-.4-.1-.8-.1-1.3-.1h-1.4l-.4-.1c-.6-.1-1-.6-.9-1.2-.1-.2 0-.4.2-.6zM457 274.5c-.3 0-.6-.1-.8-.4-.3-.4-.2-1 .2-1.3 1.6-1.2 4.2-1.2 5.8 0 .4.3.5.9.2 1.3s-.9.5-1.3.2c-1-.7-2.6-.7-3.6 0-.1.2-.3.2-.5.2z"/><circle class="st1" cx="459.4" cy="269.5" r="3.7"/><circle class="st11" cx="460.3" cy="269.5" r=".9"/><g><path class="st1" d="M461.2 263.2h-1.4c-.5 0-.9 0-1.3.1-.4 0-.7.1-1.1.3-.4.1-.8.3-1.3.5l-.3.1c-.6.2-1.2 0-1.5-.6-.1-.3-.1-.6 0-.9.3-.7.8-1.4 1.4-1.8.7-.5 1.5-.8 2.3-.9.8-.1 1.6 0 2.3.2.4.1.7.3 1 .4.3.2.6.4.9.7.4.4.5 1.1.1 1.5-.2.2-.4.3-.7.3l-.4.1z"/></g><g><path class="st1" d="M468.7 288.5c-5.3 0-9.6-4.3-9.6-9.6 0-.6.5-1.2 1.2-1.2h16.8c.6 0 1.2.5 1.2 1.2 0 5.3-4.3 9.6-9.6 9.6z"/><path class="st1" d="M477.2 278.9c0 4.7-3.8 8.4-8.4 8.4-4.7 0-8.4-3.8-8.4-8.4h16.8m0-2.3h-16.8c-1.3 0-2.3 1-2.3 2.3 0 5.9 4.8 10.8 10.8 10.8 5.9 0 10.7-4.8 10.8-10.7v-.1c-.2-1.3-1.2-2.3-2.5-2.3zm0 4.6z"/><g><ellipse class="st10" cx="468.7" cy="284.5" rx="6.3" ry="2.8"/></g></g></g></g><g><path class="st28" d="m243.1 189.3-5.8-15.3c-.2-.5-.8-.8-1.3-.6l-.1.1c-.5.2-.8.8-.6 1.3l5.8 15.3c.2.5.8.8 1.3.6l.1-.1c.5-.2.8-.8.6-1.3zM229.1 152.7c-.2-.5-.8-.8-1.3-.6l-.1.1c-.5.2-.8.8-.6 1.3l5.8 15.3c.2.5.8.8 1.3.6l.1-.1c.5-.2.8-.8.6-1.3l-5.8-15.3zM221 131.1c-.2-.5-.8-.8-1.3-.6l-.1.1c-.5.2-.8.8-.6 1.3l5.8 15.3c.2.5.8.8 1.3.6l.1-.1c.5-.2.8-.8.6-1.3l-5.8-15.3z"/></g><g><path class="st28" d="m305.1 191.9 5.6-15.4c.2-.5-.1-1.1-.6-1.3l-.1-.1c-.5-.2-1.1.1-1.3.6l-5.6 15.4c-.2.5.1 1.1.6 1.3l.1.1c.6.2 1.1-.1 1.3-.6zM318.4 155c.2-.5-.1-1.1-.6-1.3l-.1-.1c-.5-.2-1.1.1-1.3.6l-5.6 15.4c-.2.5.1 1.1.6 1.3l.1.1c.5.2 1.1-.1 1.3-.6l5.6-15.4zM326.3 133.3c.2-.5-.1-1.1-.6-1.3l-.1-.1c-.5-.2-1.1.1-1.3.6l-5.6 15.4c-.2.5.1 1.1.6 1.3l.1.1c.5.2 1.1-.1 1.3-.6l5.6-15.4z"/></g><g><path class="st28" d="m347.9 226.6 14.6-7.4c.5-.3.7-.9.4-1.4l-.1-.1c-.2-.5-.9-.7-1.4-.4l-14.6 7.4c-.5.2-.7.9-.4 1.4l.1.1c.3.5.9.7 1.4.4zM382.9 209c.5-.3.7-.9.4-1.4l-.1-.1c-.2-.5-.9-.7-1.4-.4l-14.6 7.4c-.5.3-.7.9-.4 1.4l.1.1c.2.5.9.7 1.4.4l14.6-7.4zM403.5 198.7c.5-.2.7-.9.4-1.4l-.1-.1c-.3-.5-.9-.7-1.4-.4l-14.6 7.4c-.5.2-.7.9-.4 1.4l.1.1c.2.5.9.7 1.4.4l14.6-7.4z"/></g><g><path class="st28" d="m347.3 275.4 16.3 1.4c.6 0 1-.4 1.1-.9v-.2c0-.6-.4-1-.9-1.1l-16.3-1.4c-.6 0-1 .4-1.1.9v.2c-.1.6.3 1 .9 1.1zM386.3 278.7c.6 0 1-.4 1.1-.9v-.2c0-.6-.4-1-.9-1.1l-16.3-1.4c-.6 0-1 .4-1.1.9v.2c0 .6.4 1 .9 1.1l16.3 1.4zM409.3 280.6c.6 0 1-.4 1.1-.9v-.2c0-.6-.4-1-.9-1.1l-16.3-1.4c-.6 0-1 .4-1.1.9v.2c0 .6.4 1 .9 1.1l16.3 1.4z"/></g><g><path class="st28" d="m326 312.5 10.3 12.8c.3.4 1 .5 1.4.2l.1-.1c.4-.3.5-1 .2-1.4l-10.3-12.8c-.3-.4-1-.5-1.4-.2l-.1.1c-.5.3-.5.9-.2 1.4zM350.5 343c.3.4 1 .5 1.4.2l.1-.1c.4-.3.5-1 .2-1.4L342 328.9c-.3-.4-1-.5-1.4-.2l-.1.1c-.4.3-.5 1-.2 1.4l10.2 12.8zM365 361c.3.4 1 .5 1.4.2l.1-.1c.4-.3.5-1 .2-1.4l-10.3-12.8c-.3-.4-1-.5-1.4-.2l-.1.1c-.4.3-.5 1-.2 1.4L365 361z"/></g><g><path class="st28" d="m235.8 321.2-7.4 14.6c-.3.5-.1 1.1.4 1.4l.1.1c.5.3 1.1.1 1.4-.4l7.4-14.6c.3-.5.1-1.1-.4-1.4l-.1-.1c-.6-.3-1.2-.1-1.4.4zM218.1 356.2c-.3.5-.1 1.1.4 1.4l.1.1c.5.3 1.1.1 1.4-.4l7.4-14.6c.3-.5.1-1.1-.4-1.4l-.1-.1c-.5-.3-1.1-.1-1.4.4l-7.4 14.6zM207.7 376.8c-.3.5-.1 1.1.4 1.4l.1.1c.5.3 1.1.1 1.4-.4l7.4-14.6c.3-.5.1-1.1-.4-1.4l-.1-.1c-.5-.3-1.1-.1-1.4.4l-7.4 14.6z"/></g><g><path class="st28" d="m196.3 278.9-15.4 5.6c-.5.2-.8.8-.6 1.3l.1.1c.2.5.8.8 1.3.6l15.4-5.6c.5-.2.8-.8.6-1.3l-.1-.1c-.2-.5-.8-.8-1.3-.6zM159.4 292.2c-.5.2-.8.8-.6 1.3l.1.1c.2.5.8.8 1.3.6l15.4-5.6c.5-.2.8-.8.6-1.3l-.1-.1c-.2-.5-.8-.8-1.3-.6l-15.4 5.6zM137.7 300c-.5.2-.8.8-.6 1.3l.1.1c.2.5.8.8 1.3.6l15.4-5.6c.5-.2.8-.8.6-1.3l-.1-.1c-.2-.5-.8-.8-1.3-.6l-15.4 5.6z"/></g><g><path class="st28" d="m198.2 212.7-14.1-8.3c-.5-.3-1.1-.1-1.4.4l-.1.1c-.3.5-.1 1.1.4 1.4l14.1 8.3c.5.3 1.1.1 1.4-.4l.1-.1c.2-.5.1-1.1-.4-1.4zM164.5 192.8c-.5-.3-1.1-.1-1.4.4l-.1.1c-.3.5-.1 1.1.4 1.4l14.1 8.3c.5.3 1.1.1 1.4-.4l.1-.1c.3-.5.1-1.1-.4-1.4l-14.1-8.3zM144.6 181.1c-.5-.3-1.1-.1-1.4.4l-.1.1c-.3.5-.1 1.1.4 1.4l14.1 8.3c.5.3 1.1.1 1.4-.4l.1-.1c.3-.5.1-1.1-.4-1.4l-14.1-8.3z"/></g><g><path d="m254.1 254.7 3.7-7.9h6.3l-7 13.1v8.4h-5.8V260l-7-13.2h6.3l3.5 7.9zM281.9 259.8c0 2.7-.7 4.8-2.2 6.3s-3.5 2.3-6.1 2.3c-2.5 0-4.5-.8-6-2.3s-2.2-3.7-2.2-6.3c0-2.7.7-4.8 2.2-6.3s3.5-2.2 6.1-2.2c1.6 0 3.1.3 4.3 1s2.2 1.7 2.9 3c.6 1.3 1 2.8 1 4.5zm-10.8 0c0 1.4.2 2.5.6 3.3s1 1.1 1.9 1.1c.9 0 1.5-.4 1.9-1.1s.5-1.8.5-3.3c0-1.4-.2-2.5-.6-3.2s-1-1.1-1.9-1.1c-.9 0-1.5.4-1.9 1.1-.3.7-.5 1.8-.5 3.2zM297 268.2l-.7-2.1h-.3c-.5.8-1.1 1.3-2 1.8-.9.4-1.9.6-3 .6-1.8 0-3.2-.5-4.3-1.6-1-1.1-1.5-2.6-1.5-4.5v-10.8h5.7v9.1c0 1.1.2 1.9.5 2.5.3.6.8.8 1.5.8 1 0 1.7-.4 2.1-1.2s.6-2.1.6-3.9v-7.3h5.7v16.6H297z"/></g></svg>