<?xml version="1.0" encoding="utf-8"?>
<!-- Generator: Adobe Illustrator 26.0.2, SVG Export Plug-In . SVG Version: 6.00 Build 0)  -->
<svg version="1.1" id="iphone-new" xmlns="http://www.w3.org/2000/svg" xmlns:xlink="http://www.w3.org/1999/xlink" x="0px" y="0px"
	 viewBox="0 0 198 158" style="enable-background:new 0 0 198 158;" xml:space="preserve">
<style type="text/css">
	.st0{fill:#D8EBFB;}
	.st1{fill:#515979;}
	.st2{fill:#F3F9FE;}
	.st3{fill:#FFFFFF;}
	.st4{fill:#EF7D7D;}
	.st5{fill:#747A94;}
</style>
<path class="st0" d="M68.5,149c-3.9,0-7-3.1-7-7V16c0-3.9,3.1-7,7-7h62c3.9,0,7,3.1,7,7v126c0,3.9-3.1,7-7,7H68.5z"/>
<path class="st1" d="M130.5,12c2.2,0,4,1.8,4,4v126c0,2.2-1.8,4-4,4h-62c-2.2,0-4-1.8-4-4V16c0-2.2,1.8-4,4-4H130.5 M130.5,6h-62
	c-5.5,0-10,4.5-10,10v126c0,5.5,4.5,10,10,10h62c5.5,0,10-4.5,10-10V16C140.5,10.5,136,6,130.5,6z"/>
<path class="st2" d="M87.5,146h-16l24-134h16L87.5,146z M103.5,146h-10l24-134h10L103.5,146z"/>
<path class="st1" d="M58.5,51c-1.7,0-3-1.3-3-3V36c0-1.7,1.3-3,3-3s3,1.3,3,3v12C61.5,49.7,60.2,51,58.5,51z M58.5,75
	c-1.7,0-3-1.3-3-3V60c0-1.7,1.3-3,3-3s3,1.3,3,3v12C61.5,73.7,60.2,75,58.5,75z M114.5,142h-30c-1.1,0-2-0.9-2-2s0.9-2,2-2h30
	c1.1,0,2,0.9,2,2S115.6,142,114.5,142z M106.5,81c-0.6,0-1.2-0.4-1.4-1c-0.3-0.8,0.1-1.6,0.9-1.9c2.2-0.8,5.7-0.8,8,0
	c0.8,0.3,1.2,1.1,0.9,1.9c-0.3,0.8-1.1,1.2-1.9,0.9c-1.6-0.6-4.4-0.6-6,0C106.8,81,106.7,81,106.5,81L106.5,81z"/>
<circle class="st1" cx="110" cy="72.8" r="6"/>
<circle class="st3" cx="111.5" cy="72.8" r="1.5"/>
<g>
	<path class="st1" d="M106.9,59c3-1.7,6.7-1.6,9.7,0c1.8,0.9,4.4,3.8,1.8,5.4c-0.5,0.3-1.1,0.3-1.7,0.2c-3.3-0.4-6.4-1.2-9.5-2.6
		C105.9,61.4,105.7,59.7,106.9,59L106.9,59z"/>
</g>
<g>
	<path class="st1" d="M85.5,81c-0.6,0-1.2-0.4-1.4-1c-0.3-0.8,0.1-1.6,0.9-1.9c2.2-0.8,5.7-0.8,8,0c0.8,0.3,1.2,1.1,0.9,1.9
		c-0.3,0.8-1.1,1.2-1.9,0.9c-1.6-0.6-4.4-0.6-6,0C85.8,81,85.6,81,85.5,81L85.5,81z"/>
	<circle class="st1" cx="89" cy="72.8" r="6"/>
	<circle class="st3" cx="90.5" cy="72.8" r="1.5"/>
	<g>
		<path class="st1" d="M91.8,61.9c-3.1,1.4-6.1,2.2-9.5,2.6c-1.4,0.2-2.7-0.5-2.8-1.9c0.4-3.9,6.1-5.4,9.4-4.8
			c1.5,0.3,4.9,1.1,3.7,3.4C92.4,61.6,92.1,61.8,91.8,61.9z"/>
	</g>
</g>
<g>
	<path class="st1" d="M111.5,85.2h-24c-2.2,0-4,1.8-4,4c0,8.8,7.2,16,16,16s15.9-7.1,16-15.8v-0.2C115.5,87,113.7,85.2,111.5,85.2z"
		/>
	<ellipse class="st4" cx="99.5" cy="97.2" rx="8.9" ry="4"/>
</g>
<g>
	<path class="st5" d="M87.2,23c-1.7,0-3.2-1-3.8-2.6L79.2,9h40.7l-4.3,11.4c-0.6,1.6-2.1,2.6-3.8,2.6H87.2z"/>
	<path class="st1" d="M115.5,12l-2.8,7.3c-0.1,0.4-0.5,0.7-0.9,0.7H87.2c-0.4,0-0.8-0.3-0.9-0.7L83.5,12H115.5 M124.2,6H74.8l3,8.1
		l2.8,7.3c1,2.7,3.6,4.5,6.6,4.5h24.6c2.9,0,5.5-1.8,6.6-4.5l2.8-7.3L124.2,6L124.2,6z"/>
</g>
<g>
	<path class="st1" d="M107.5,18h-16c-1.1,0-2-0.9-2-2s0.9-2,2-2h16c1.1,0,2,0.9,2,2C109.5,17.1,108.6,18,107.5,18z"/>
</g>
</svg>
