<svg width="90" height="80" viewBox="0 0 90 80" fill="none" xmlns="http://www.w3.org/2000/svg">
<g clip-path="url(#clip0_751_527)">
<path d="M89.8796 0H0.599609V80H89.8796V0Z" fill="#054ADA"/>
<path d="M11.7195 35.7598H18.4395V37.5998L15.8795 37.7598C11.7995 38.0798 10.5195 39.1198 10.5195 42.1598V42.7998C10.5195 45.0398 12.0395 46.3998 14.4395 46.3998C16.3595 46.3998 17.3995 45.9198 18.7595 44.5598H18.9995V45.9998H21.7195V32.7998H11.7195V35.7598ZM18.4395 42.1598C17.6395 42.9598 16.3595 43.5198 15.3195 43.5198C14.1995 43.5198 13.7195 43.1198 13.7995 42.1598C13.7995 40.8798 14.2795 40.5598 16.4395 40.3998L18.4395 40.2398V42.1598Z" fill="#FF8800"/>
<path fill-rule="evenodd" clip-rule="evenodd" d="M27.3991 32.7998H32.5991V35.5198H35.3991V46.0798H32.1191V35.7598H27.3991V46.0798H24.1191V28.7998H27.3991V32.7998ZM75.8791 38.1598L73.8791 37.9998C72.7591 37.9198 72.5191 37.5998 72.5191 36.7198C72.5191 35.6798 72.9191 35.4398 74.4391 35.4398C75.7991 35.4398 76.1991 35.6798 76.4391 36.6398H79.5591C79.4791 33.4398 78.5191 32.6398 74.5991 32.6398C70.3591 32.6398 69.3191 33.4398 69.3191 36.7198C69.3191 39.6798 70.1191 40.4798 73.2391 40.7998L74.9191 40.9598C76.3591 41.1198 76.7591 41.3598 76.7591 42.2398C76.7591 43.3598 76.2791 43.5998 74.5191 43.5998C72.9191 43.5998 72.5191 43.3598 72.4391 42.3198H69.3191C69.3991 45.5998 70.4391 46.4798 74.4391 46.4798C78.9191 46.4798 80.0391 45.5998 80.0391 41.9998C79.8791 39.1998 79.0791 38.4798 75.8791 38.1598ZM58.8391 38.3998C58.8391 34.0798 57.3991 32.6398 53.1591 32.6398C48.9991 32.6398 47.3191 34.5598 47.3191 39.4398C47.3191 44.7198 48.7591 46.4798 53.4791 46.4798C56.8391 46.4798 58.2791 45.4398 58.7591 42.5598H55.5591C55.1591 43.4398 54.8391 43.6798 53.4791 43.6798C51.3991 43.6798 50.9191 43.1198 50.7591 40.6398H58.6791C58.7591 39.8398 58.8391 39.1198 58.8391 38.3998ZM50.6791 37.9198C50.6791 36.0798 51.4791 35.3598 53.2391 35.3598C54.9191 35.3598 55.6391 36.0798 55.7191 37.9198H50.6791ZM60.7591 33.3598V46.0798H64.0391V35.5998H68.0391V32.7998H64.0391V32.3998C64.0391 31.5998 64.2791 31.3598 64.9191 31.3598H68.5991V28.7998H64.6791C62.0391 28.7998 60.7591 29.5998 60.7591 33.3598ZM41.2391 46.0798H37.9591V32.7998H46.1991V35.9198H41.2391V46.0798Z" fill="white"/>
</g>
<defs>
<clipPath id="clip0_751_527">
<rect width="89.28" height="80" fill="white" transform="translate(0.599609)"/>
</clipPath>
</defs>
</svg>
