<?xml version="1.0" encoding="utf-8"?>
<!-- Generator: Adobe Illustrator 24.3.0, SVG Export Plug-In . SVG Version: 6.00 Build 0)  -->
<svg version="1.1" id="Layer_1" xmlns="http://www.w3.org/2000/svg" xmlns:xlink="http://www.w3.org/1999/xlink" x="0px" y="0px"
	 viewBox="0 0 105.6 30" style="enable-background:new 0 0 105.6 30;" xml:space="preserve">
<style type="text/css">
	.st0{fill:#17313B;}
	.st1{fill:#EF4335;}
</style>
<g>
	<path class="st0" d="M27.5,0h4.9v30h-4.9V0z"/>
	<path class="st0" d="M49.2,20.5c0,4.6-3.8,5.1-5.1,5.1c-3,0-3.4-2.7-3.4-4.2V9.7h-4.9v11.4c0,2.7,0.8,5.3,2.5,6.8
		c1.5,1.5,3.4,2.1,5.7,2.1c1.7,0,3.8-0.4,5.1-1.7V30h4.9V9.7h-4.9C49.2,9.7,49.2,20.5,49.2,20.5z"/>
	<path class="st0" d="M63.6,2.3h-4.9v7.4h-3.6v4.6h3.6V30h4.9V14.4h3.6V9.7h-3.6V2.3z"/>
	<path class="st0" d="M82.4,23.9c-1.1,0.8-2.5,1.5-4,1.5c-3.4,0-5.7-2.5-5.7-5.9s2.3-5.7,5.7-5.7c1.5,0,3,0.4,4,1.5l0.6,0.6l3.4-3.2
		L85.6,12c-1.9-1.7-4.4-2.7-7.2-2.7C72.5,9.3,68,13.7,68,19.6S72.5,30,78.4,30c2.7,0,5.3-1.1,7.2-2.7l0.8-0.6L83,23.2L82.4,23.9z"/>
	<path class="st0" d="M103.5,11.4c-1.5-1.5-3-2.1-5.3-2.1c-1.7,0-3.4,0.4-4.6,1.7V0h-4.9v30h4.9V18.8c0-4.6,3.2-5.1,4.4-5.1
		c3,0,2.7,2.7,2.7,4.2v11.8h4.9V18.2C105.6,15.4,105,12.9,103.5,11.4z"/>
	<circle class="st1" cx="78.2" cy="19.6" r="3.4"/>
	<path class="st0" d="M20.7,22.6c-1.7,1.7-4.2,2.7-7,2.7c-5.3,0-9.1-4.2-9.1-9.9s3.8-9.9,9.3-9.9c2.5,0,5.1,1.1,7,3l0.6,0.6l3.2-3.2
		l-0.6-0.6c-2.7-2.7-6.3-4.2-10.1-4.2C5.9,0.8,0,7.2,0,15.4S5.9,30,13.7,30c3.8,0,7.6-1.5,10.1-4.2l0.6-0.6L21.3,22L20.7,22.6z"/>
</g>
</svg>
