<svg width="54" height="80" viewBox="0 0 54 80" fill="none" xmlns="http://www.w3.org/2000/svg">
<g clip-path="url(#clip0_751_459)">
<path d="M27 40.0001C27 32.6401 32.92 26.6401 40.36 26.6401C47.72 26.6401 53.72 32.5601 53.72 40.0001C53.72 47.3601 47.8 53.3601 40.36 53.3601C33 53.3601 27 47.3601 27 40.0001Z" fill="#1ABCFE"/>
<path d="M0.360352 66.6398C0.360352 59.2798 6.28035 53.2798 13.7204 53.2798H27.0804V66.6398C27.0804 73.9998 21.1604 79.9998 13.7204 79.9998C6.28035 79.9998 0.360352 74.0798 0.360352 66.6398Z" fill="#0ACF83"/>
<path d="M27 0V26.64H40.36C47.72 26.64 53.72 20.72 53.72 13.28C53.72 6 47.72 0 40.36 0H27Z" fill="#FF7262"/>
<path d="M0.360352 13.36C0.360352 20.72 6.28035 26.72 13.7204 26.72H27.0804V0H13.7204C6.28035 0 0.360352 6 0.360352 13.36Z" fill="#F24E1E"/>
<path d="M0.360352 40.0001C0.360352 47.3601 6.28035 53.3601 13.7204 53.3601H27.0804V26.6401H13.7204C6.28035 26.6401 0.360352 32.6401 0.360352 40.0001Z" fill="#A259FF"/>
</g>
<defs>
<clipPath id="clip0_751_459">
<rect width="53.36" height="80" fill="white" transform="translate(0.360352)"/>
</clipPath>
</defs>
</svg>
