<svg width="81" height="80" viewBox="0 0 81 80" fill="none" xmlns="http://www.w3.org/2000/svg">
<g clip-path="url(#clip0_751_482)">
<path fill-rule="evenodd" clip-rule="evenodd" d="M0.240234 16.6401H80.2402V66.6401H0.240234V16.6401Z" fill="#DDEEFF"/>
<path fill-rule="evenodd" clip-rule="evenodd" d="M80.2402 16.64H0.240234V6.64C0.240234 2.96 3.20023 0 6.96023 0H73.6002C77.2802 0 80.3202 2.96 80.3202 6.64V16.64H80.2402Z" fill="#BBDDFF"/>
<path fill-rule="evenodd" clip-rule="evenodd" d="M20.2402 11.68C18.4002 11.68 16.8802 10.16 16.8802 8.31996C16.8802 6.47996 18.4002 4.95996 20.2402 4.95996C22.0802 4.95996 23.6002 6.47996 23.6002 8.31996C23.6002 10.16 22.0802 11.68 20.2402 11.68ZM8.5602 11.68C6.7202 11.68 5.2002 10.16 5.2002 8.31996C5.2002 6.47996 6.7202 4.95996 8.5602 4.95996C10.4002 4.95996 11.9202 6.47996 11.9202 8.31996C11.9202 10.16 10.4002 11.68 8.5602 11.68Z" fill="white"/>
<path fill-rule="evenodd" clip-rule="evenodd" d="M13.6002 66.6402H0.240234C0.240234 56.4002 4.16023 46.1602 11.9202 38.4002C27.5202 22.8002 52.8802 22.8002 68.4802 38.4002L59.1202 47.8402C54.3202 43.0402 47.6002 40.0002 40.2402 40.0002C25.5202 40.0002 13.6002 51.9202 13.6002 66.6402Z" fill="#0066FF"/>
<path fill-rule="evenodd" clip-rule="evenodd" d="M66.8801 66.6398H80.2401C80.2401 56.3998 76.3201 46.1598 68.5601 38.3198L59.1201 47.8398C63.9201 52.6398 66.8801 59.2798 66.8801 66.6398Z" fill="#CC66FF"/>
<path fill-rule="evenodd" clip-rule="evenodd" d="M30.8004 76.0798C25.6004 70.8798 25.6004 62.3998 30.8004 57.1998C36.0004 51.9998 64.9604 41.8398 64.9604 41.8398C64.9604 41.8398 54.8804 70.8798 49.6804 76.0798C44.4804 81.2798 36.0004 81.2798 30.8004 76.0798Z" fill="#66CCFF"/>
<path fill-rule="evenodd" clip-rule="evenodd" d="M40.2406 73.3601C36.5606 73.3601 33.6006 70.4001 33.6006 66.7201C33.6006 63.0401 36.5606 60.0801 40.2406 60.0801C43.9206 60.0801 46.8806 63.0401 46.8806 66.7201C46.8806 70.3201 43.9206 73.3601 40.2406 73.3601Z" fill="#0066FF"/>
</g>
<defs>
<clipPath id="clip0_751_482">
<rect width="80" height="80" fill="white" transform="translate(0.240234)"/>
</clipPath>
</defs>
</svg>
