<svg width="90" height="80" viewBox="0 0 90 80" fill="none" xmlns="http://www.w3.org/2000/svg">
<g clip-path="url(#clip0_751_426)">
<path fill-rule="evenodd" clip-rule="evenodd" d="M25.1201 6.64L31.8401 0V12.72H25.2001V6.64H25.1201ZM64.5601 6.64L57.8401 0V12.72H64.4801V6.64H64.5601Z" fill="#7B7B7B"/>
<path d="M31.8398 0H57.9198V6.4H31.8398V0Z" fill="#5A5A5A"/>
<path fill-rule="evenodd" clip-rule="evenodd" d="M82.4 80.0002H7.28C3.28 80.0002 0 76.7202 0 72.7202V25.2002L12.48 12.7202H77.2L89.68 25.2002V72.7202C89.68 76.7202 86.48 80.0002 82.4 80.0002Z" fill="#E6E7E8"/>
<path fill-rule="evenodd" clip-rule="evenodd" d="M0 38.4802V25.2002L12.48 12.7202H77.2L89.68 25.2002V38.4802H0Z" fill="#D0D1D2"/>
<path fill-rule="evenodd" clip-rule="evenodd" d="M10.3203 80.0004V28.4804C10.3203 26.8004 11.6803 25.4404 13.3603 25.4404H76.4003C78.0803 25.4404 79.4403 26.8004 79.4403 28.4804V80.0004H10.3203Z" fill="#458CF5"/>
<path d="M10.3203 38.48H79.4403V80H10.3203V38.48Z" fill="white"/>
<path fill-rule="evenodd" clip-rule="evenodd" d="M58.7998 80.0002V67.6002L52.7198 61.5202L48.7998 50.6402L51.5198 43.6802L66.9598 59.1202L69.6798 47.6002L79.3598 57.2802V80.0002H58.7998Z" fill="#D2D3D4"/>
<path d="M14.8799 43.3599H37.9199V69.1199H14.8799V43.3599ZM14.8799 74.8799H44.5599V79.9999H14.8799V74.8799Z" fill="#D2D3D4"/>
<path fill-rule="evenodd" clip-rule="evenodd" d="M64.5602 70.3198V79.9998H51.8402V70.4798C44.3202 67.0398 40.9602 58.1598 44.4002 50.6398C45.8402 47.4398 48.4002 44.8798 51.5202 43.3598V57.5998L57.9202 61.5198L64.5602 57.5998V43.2798C72.0002 46.8798 75.1202 55.8398 71.5202 63.2798C70.0802 66.3998 67.6002 68.8798 64.5602 70.3198Z" fill="#505050"/>
<path fill-rule="evenodd" clip-rule="evenodd" d="M17.4399 28.7998C18.8799 28.7998 19.9999 29.9198 19.9999 31.3598C19.9999 32.7998 18.8799 33.9198 17.4399 33.9198C15.9999 33.9198 14.8799 32.7998 14.8799 31.3598C14.8799 29.9198 15.9999 28.7998 17.4399 28.7998ZM24.9599 28.7998C26.3999 28.7998 27.5199 29.9198 27.5199 31.3598C27.5199 32.7998 26.3999 33.9198 24.9599 33.9198C23.5199 33.9198 22.3999 32.7998 22.3999 31.3598C22.3999 29.9198 23.5999 28.7998 24.9599 28.7998Z" fill="#E6E7E8"/>
</g>
<defs>
<clipPath id="clip0_751_426">
<rect width="89.68" height="80" fill="white"/>
</clipPath>
</defs>
</svg>
