<svg width="51" height="80" viewBox="0 0 51 80" fill="none" xmlns="http://www.w3.org/2000/svg">
<g clip-path="url(#clip0_752_560)">
<path d="M25.3193 0C21.3193 0 18.2793 3.04 18.2793 7.04C18.2793 8.4 18.5993 9.68 19.6393 11.04L22.6793 8V7.04C22.6793 5.36 24.0393 4 25.7193 4C27.3993 4 28.7593 5.36 28.7593 7.04C28.7593 8.72 27.3993 10.08 25.7193 10.08H24.5993L21.5593 12.72C24.9193 14.72 29.2393 14.08 31.2393 10.72C33.2393 7.36 32.5993 3.04 29.2393 1.04C28.2793 0.32 26.9993 0 25.3193 0Z" fill="#AECBFA"/>
<path d="M22.5996 20.3998C22.5996 18.0798 21.9596 15.7598 20.5996 13.7598L16.5996 17.7598C16.9196 18.7998 17.2396 19.4398 17.2396 20.3998C17.2396 22.0798 16.5996 23.4398 15.5596 24.3998L17.5596 29.7598C20.9196 27.7598 22.5996 24.0798 22.5996 20.3998Z" fill="#5E97F6"/>
<path d="M11.9596 26.0799C8.91961 26.0799 6.27961 23.7599 6.27961 20.7199C6.27961 17.6799 8.59961 15.0399 11.6396 15.0399C12.6796 15.0399 13.9596 15.3599 14.9996 16.0799L18.9996 12.3999C16.6796 10.3999 14.3596 9.35986 11.6396 9.35986C5.63961 9.35986 0.599609 14.3199 0.599609 20.3999C0.599609 26.3999 5.23961 31.3599 11.6396 31.3599C12.2796 31.3599 13.3196 31.3599 13.9596 31.0399L11.9596 26.0799Z" fill="#5E97F6"/>
<path d="M25.6394 30.3999C23.3194 30.3999 20.9994 30.7199 18.5994 31.4399L21.6394 38.7999C22.9994 38.7999 24.2794 38.4799 25.6394 38.4799C34.9994 38.4799 42.3594 46.1599 42.3594 55.1999C42.3594 64.2399 34.6794 71.9199 25.6394 71.9199C16.5994 71.9199 8.91936 64.2399 8.91936 55.1999C8.91936 48.8799 12.2794 43.1999 17.9594 40.4799L14.9194 33.1199C2.59936 39.0399 -2.44064 54.0799 3.63936 66.0799C9.63936 78.3999 24.6794 83.4399 36.6794 77.4399C48.9994 71.4399 54.0394 56.3999 48.0394 44.3999C43.6394 36.0799 34.9994 30.3999 25.6394 30.3999Z" fill="#4285F4"/>
</g>
<defs>
<clipPath id="clip0_752_560">
<rect width="49.92" height="80" fill="white" transform="translate(0.599609)"/>
</clipPath>
</defs>
</svg>
