<svg width="73" height="80" viewBox="0 0 73 80" fill="none" xmlns="http://www.w3.org/2000/svg">
<g clip-path="url(#clip0_751_439)">
<path d="M72.9194 70.0002C72.9194 75.5202 68.5194 80.0002 62.9994 80.0002C62.5994 80.0002 62.1994 80.0002 61.7994 79.9202C56.6794 79.2002 52.9994 74.7202 53.0794 69.6002V10.4002C52.9994 5.28018 56.7594 0.800176 61.8794 0.0801764C67.3194 -0.559824 72.2794 3.36018 72.9194 8.80018C72.9994 9.20018 72.9994 9.60018 72.9994 10.0002V70.0002H72.9194Z" fill="#F9AB00"/>
<path d="M10.5997 60.1601C16.0397 60.1601 20.5197 64.5601 20.5197 70.0801C20.5197 75.6001 16.0397 80.0001 10.5997 80.0001C5.07969 80.0001 0.679688 75.6001 0.679688 70.0801C0.679688 64.5601 5.07969 60.1601 10.5997 60.1601ZM36.6797 30.1601C31.1597 30.4801 26.9197 35.0401 27.0797 40.5601V67.2001C27.0797 74.4001 30.2797 78.8001 34.9197 79.7601C40.2797 80.8801 45.5597 77.3601 46.5997 72.0001C46.7597 71.3601 46.8397 70.6401 46.7597 70.0001V40.0801C46.7597 34.5601 42.3597 30.1601 36.8397 30.0801C36.7597 30.1601 36.6797 30.1601 36.6797 30.1601Z" fill="#E37400"/>
</g>
<defs>
<clipPath id="clip0_751_439">
<rect width="72.24" height="80" fill="white" transform="translate(0.679688)"/>
</clipPath>
</defs>
</svg>
