<svg width="89" height="80" viewBox="0 0 89 80" fill="none" xmlns="http://www.w3.org/2000/svg">
<g clip-path="url(#clip0_751_449)">
<path d="M2.75977 58.2399L31.7998 7.91992L56.9198 22.4799L27.8798 72.7999L2.75977 58.2399Z" fill="#FBBC04"/>
<path d="M86.2 58.0798L57.16 7.75978C53.4 0.639779 44.6 -2.08022 37.48 1.67978C30.36 5.43978 27.64 14.2398 31.4 21.2798C31.56 21.5998 31.72 21.9198 31.96 22.1598L61 72.4798C64.92 79.5198 73.8 81.9998 80.76 78.0798C87.8 74.1598 90.28 65.2798 86.36 58.3198C86.36 58.2398 86.28 58.1598 86.2 58.0798Z" fill="#4285F4"/>
<path d="M15.4799 79.9198C23.5212 79.9198 30.0399 73.4011 30.0399 65.3598C30.0399 57.3185 23.5212 50.7998 15.4799 50.7998C7.43866 50.7998 0.919922 57.3185 0.919922 65.3598C0.919922 73.4011 7.43866 79.9198 15.4799 79.9198Z" fill="#34A853"/>
</g>
<defs>
<clipPath id="clip0_751_449">
<rect width="87.36" height="80" fill="white" transform="translate(0.919922)"/>
</clipPath>
</defs>
</svg>
