<svg width="81" height="80" viewBox="0 0 81 80" fill="none" xmlns="http://www.w3.org/2000/svg">
<g clip-path="url(#clip0_751_443)">
<path d="M47.879 76.9599L33.959 63.0399L63.799 32.8799L77.959 47.0399L47.879 76.9599Z" fill="#8AB4F8"/>
<path d="M47.9594 17.04L33.7994 2.95996L3.87945 32.88C-0.0405467 36.8 -0.0405467 43.12 3.87945 47.04L33.8795 77.04L47.7194 63.12L25.0795 40L47.9594 17.04Z" fill="#4285F4"/>
<path d="M77.9594 32.88L47.9594 2.96002C44.0394 -0.95998 37.7194 -0.95998 33.7994 2.96002C29.8794 6.88002 29.8794 13.2 33.7994 17.12L63.7994 47.12C67.7194 51.04 74.0394 51.04 77.9594 47.12C81.8794 43.12 81.8794 36.8 77.9594 32.88Z" fill="#8AB4F8"/>
<path d="M40.7598 80.0002C46.2385 80.0002 50.6798 75.5588 50.6798 70.0802C50.6798 64.6015 46.2385 60.1602 40.7598 60.1602C35.2812 60.1602 30.8398 64.6015 30.8398 70.0802C30.8398 75.5588 35.2812 80.0002 40.7598 80.0002Z" fill="#246FDB"/>
</g>
<defs>
<clipPath id="clip0_751_443">
<rect width="80" height="80" fill="white" transform="translate(0.919922)"/>
</clipPath>
</defs>
</svg>
