<svg width="96" height="80" viewBox="0 0 96 80" fill="none" xmlns="http://www.w3.org/2000/svg">
<g clip-path="url(#clip0_751_491)">
<path d="M95.6002 57.2798V79.9998H91.8402V75.9998H90.8802V79.9998H85.5202V71.0398H83.5202V79.9998H77.1202V75.9998H76.2402V79.9998H70.8802V71.0398H68.8802V79.9998H62.4802V75.9998H61.6002V79.9998H56.2402V71.0398H54.2402V79.9998H47.8402V75.9998H46.9602V79.9998H41.6002V71.0398H39.6002V79.9998H33.2002V75.9998H32.3202V79.9998H26.9602V71.0398H24.9602V75.9998H24.8802V79.9998H18.5602V75.9998H17.6802V79.9998H12.3202V71.0398H10.3202V79.9998H3.92023V75.9998H3.04023V79.9998H0.240234V57.2798H95.6002Z" fill="#DCE7F2"/>
<path d="M70.8799 71.04H68.8799V80H70.8799V71.04Z" fill="white"/>
<path d="M56.2402 71.04H54.2402V80H56.2402V71.04Z" fill="white"/>
<path d="M85.5205 71.04H83.5205V80H85.5205V71.04Z" fill="white"/>
<path d="M41.6006 71.04H39.6006V80H41.6006V71.04Z" fill="white"/>
<path d="M26.9598 71.04H24.9598V76.08H24.7998V80H26.9598V71.04Z" fill="white"/>
<path d="M12.3203 71.04H10.3203V80H12.3203V71.04Z" fill="white"/>
<path d="M33.2003 80.0001V76.0801H32.3203V80.0001H33.2003Z" fill="white"/>
<path d="M18.5607 80.0001V76.0801H17.6807V80.0001H18.5607Z" fill="white"/>
<path d="M3.04004 80.0001H3.92004V76.0801H3.04004V80.0001Z" fill="white"/>
<path d="M90.8799 80.0001H91.7599V76.0801H90.8799V80.0001Z" fill="white"/>
<path d="M76.2402 80.0001H77.1202V76.0801H76.2402V80.0001Z" fill="white"/>
<path d="M62.4806 80.0001V76.0801H61.6006V80.0001H62.4806Z" fill="white"/>
<path d="M46.96 80.0001H47.84V76.0801H46.96V80.0001Z" fill="white"/>
<path d="M51.6804 57.28H45.4404L43.9204 50.72C38.6404 56.64 33.9204 58.64 27.1204 58.64C10.4004 58.64 0.400391 45.36 0.400391 29.36C0.400391 13.36 10.4004 0 27.1204 0C39.3604 0 49.6004 6.48 51.0404 19.12H41.5204C40.5604 11.76 34.1604 8 27.1204 8C15.1204 8 10.1604 18.56 10.1604 29.28C10.1604 40 15.2004 50.56 27.1204 50.56C37.1204 50.72 42.6404 44.64 42.7204 35.2H27.9204V27.76H51.6804V57.28Z" fill="#4499D4"/>
<path d="M50.4004 1.43994H95.6004V9.91994H77.9204V57.3599H68.1604V9.83994H50.4004V1.43994Z" fill="#4499D4"/>
</g>
<defs>
<clipPath id="clip0_751_491">
<rect width="95.36" height="80" fill="white" transform="translate(0.240234)"/>
</clipPath>
</defs>
</svg>
