<?xml version="1.0" encoding="utf-8"?>
<!-- Generator: Adobe Illustrator 24.3.0, SVG Export Plug-In . SVG Version: 6.00 Build 0)  -->
<svg version="1.1" id="Layer_1" xmlns="http://www.w3.org/2000/svg" xmlns:xlink="http://www.w3.org/1999/xlink" x="0px" y="0px"
	 viewBox="0 0 90.3 25.6" style="enable-background:new 0 0 90.3 25.6;" xml:space="preserve">
<style type="text/css">
	.st0{fill:#33475B;}
	.st1{fill:#FF7A59;}
</style>
<g>
	<path class="st0" d="M9.8,4.2v7.2H3.1V4.2H0v17.2h3.1v-7h6.6v7h3.1V4.2H9.8z M23,15.9c0,1.4-1.2,2.6-2.6,2.6
		c-1.4,0-2.6-1.2-2.6-2.6V8.5h-3v7.4c0,3.1,2.5,5.6,5.6,5.6c3.1,0,5.6-2.5,5.6-5.6V8.5h-3V15.9z M45.1,9.3c0-1.5,1-2,2.1-2
		c0.9,0,2.1,0.7,2.8,1.5l2-2.3c-1-1.3-3-2.2-4.6-2.2c-3.2,0-5.6,1.9-5.6,5c0,5.8,7.1,4,7.1,7.2c0,1-1,1.9-2.1,1.9
		c-1.8,0-2.3-0.9-3.1-1.8l-2.2,2.3c1.4,1.7,3.1,2.6,5.2,2.6c3.1,0,5.6-1.9,5.6-4.9C52.3,10.1,45.1,12.1,45.1,9.3 M89.2,18.7
		c-1.8,0-2.3-0.8-2.3-1.9v-5.2h2.7V9H87V5.5l-3,1.4v10.5c0,2.7,1.9,4.1,4.4,4.1c0.4,0,0.8,0,1.2-0.1l0.7-2.7
		C90,18.7,89.6,18.7,89.2,18.7 M34.4,8.6c-1.5,0-2.5,0.4-3.5,1.4V4.3h-3v10.5c0,3.9,2.8,6.6,6,6.6c3.5,0,6.7-2.7,6.7-6.4
		C40.6,11.4,37.7,8.6,34.4,8.6 M34.3,18.5c-1.9,0-3.4-1.5-3.4-3.4c0-1.9,1.5-3.4,3.4-3.4c1.9,0,3.4,1.5,3.4,3.4
		C37.7,17,36.2,18.5,34.3,18.5L34.3,18.5 M66.8,14.9c0-3.7-3.1-6.4-6.7-6.4c-3.2,0-6,2.7-6,6.6v10.5h3v-5.7c1,1,2,1.4,3.5,1.4
		C64,21.3,66.8,18.5,66.8,14.9 M64,14.9c0,1.9-1.5,3.4-3.4,3.4c-1.9,0-3.4-1.5-3.4-3.4l0,0c0-1.9,1.5-3.4,3.4-3.4
		C62.5,11.5,64,13,64,14.9"/>
	<path class="st1" d="M76.5,8.3v-3c0.8-0.4,1.3-1.2,1.3-2.1V3.1c0-1.3-1-2.3-2.3-2.3h-0.1c-1.3,0-2.3,1-2.3,2.3c0,0,0,0,0,0v0.1
		c0,0.9,0.5,1.7,1.3,2.1v3c-1.1,0.2-2.2,0.6-3.1,1.4l-8.2-6.4c0.1-0.2,0.1-0.4,0.1-0.6c0-1.4-1.2-2.6-2.6-2.6C59.2,0,58,1.2,58,2.6
		c0,1.4,1.2,2.6,2.6,2.6c0,0,0,0,0,0c0.5,0,0.9-0.1,1.3-0.3l8.1,6.3c-1.5,2.3-1.5,5.2,0.1,7.4l-2.5,2.5C67.4,21,67.2,21,67,20.9
		c-1.2,0-2.1,1-2.1,2.1c0,1.2,1,2.1,2.1,2.1c1.2,0,2.1-1,2.1-2.1c0-0.2,0-0.4-0.1-0.6l2.4-2.4c2.9,2.2,7,1.7,9.2-1.2
		c2.2-2.9,1.7-7-1.2-9.2C78.6,8.9,77.6,8.5,76.5,8.3 M75.5,18.2c-1.9,0.1-3.4-1.4-3.5-3.3s1.4-3.4,3.3-3.5c0.1,0,0.1,0,0.2,0
		c1.9,0.1,3.3,1.6,3.3,3.5C78.7,16.7,77.3,18.1,75.5,18.2"/>
</g>
</svg>
