<?xml version="1.0" encoding="utf-8"?>
<!-- Generator: Adobe Illustrator 24.3.0, SVG Export Plug-In . SVG Version: 6.00 Build 0)  -->
<svg version="1.1" id="Layer_1" xmlns="http://www.w3.org/2000/svg" xmlns:xlink="http://www.w3.org/1999/xlink" x="0px" y="0px"
	 viewBox="0 0 27.7 28.5" style="enable-background:new 0 0 27.7 28.5;" xml:space="preserve">
<style type="text/css">
	.st0{fill:#F04729;}
</style>
<g>
	<path class="st0" d="M24.7,8.4h-4.3c0.1-0.7,0.5-1,1.4-1.5l0.8-0.4C24,5.8,24.8,5,24.8,3.7c0-0.8-0.3-1.5-1-2
		C23.2,1.2,22.4,1,21.5,1c-0.7,0-1.3,0.2-1.9,0.6c-0.6,0.4-1,0.8-1.3,1.4l1.2,1.2c0.5-1,1.2-1.4,2.1-1.4c0.8,0,1.2,0.4,1.2,1
		c0,0.5-0.2,0.8-1.1,1.3l-0.5,0.2c-1.1,0.6-1.8,1.2-2.3,1.9c-0.4,0.7-0.7,1.6-0.7,2.7v0.3h6.4V8.4z"/>
	<polygon class="st0" points="24.2,12.2 17.1,12.2 13.6,18.3 20.7,18.3 24.2,24.4 27.7,18.3 	"/>
	<path class="st0" d="M14.2,22.4c-4.5,0-8.1-3.6-8.1-8.1c0-4.5,3.6-8.1,8.1-8.1L17,0.3C16.1,0.1,15.2,0,14.2,0C6.4,0,0,6.4,0,14.2
		c0,7.9,6.4,14.2,14.2,14.2c3.1,0,6-1,8.4-2.7l-3.1-5.3C18.1,21.6,16.2,22.4,14.2,22.4z"/>
</g>
</svg>
