<svg width="134" height="80" viewBox="0 0 134 80" fill="none" xmlns="http://www.w3.org/2000/svg">
<g clip-path="url(#clip0_751_467)">
<path d="M115.44 39.36C115.44 41.84 114.24 42.16 111.12 42.16C107.76 42.16 107.12 41.52 106.8 39.12C106.16 32.64 101.84 27.12 94.4804 26.8C92.3204 26.48 91.6804 25.84 91.6804 22.8C91.6804 20 92.0004 18.8 94.1604 18.8C106.56 19.04 115.44 29.2 115.44 39.36ZM133.6 39.36C133.6 20.32 120.64 0 90.5604 0H31.2004C30.0004 0 29.0404 0.64 29.0404 1.84C29.0404 2.48 29.3604 3.04 30.0004 3.36C32.1604 5.2 35.2004 7.04 39.5204 9.2C43.5204 11.36 46.8804 12.56 50.0004 13.84C51.2004 14.48 51.8404 15.04 51.8404 15.68C51.8404 16.64 51.2004 17.52 49.6804 17.52H2.56039C1.04039 17.2 0.400391 18.16 0.400391 19.04C0.400391 20 0.720391 20.56 1.36039 21.2C5.04039 25.2 11.2004 30.16 20.1604 35.68C27.8404 40.64 37.6804 45.84 45.3604 49.52C46.5604 50.16 47.2004 50.72 47.2004 51.68C47.2004 52.64 46.5604 53.2 45.0404 53.2H23.2004C22.0004 53.2 21.3604 53.84 21.3604 54.72C21.3604 55.36 21.6804 55.92 22.3204 56.56C27.2804 61.2 35.2804 65.76 45.6804 70.4C59.8404 76.24 74.0004 79.92 90.0004 79.92C120.4 80 133.6 57.2 133.6 39.36ZM93.9204 66.8C79.1204 66.8 66.5604 54.8 66.5604 39.44C66.5604 24.64 78.8804 12.64 93.9204 12.64C109.28 12.64 121.28 24.64 121.28 39.44C121.36 54.48 109.36 66.8 93.9204 66.8Z" fill="#FF642D"/>
</g>
<defs>
<clipPath id="clip0_751_467">
<rect width="133.2" height="80" fill="white" transform="translate(0.400391)"/>
</clipPath>
</defs>
</svg>
