<svg width="223" height="80" viewBox="0 0 223 80" fill="none" xmlns="http://www.w3.org/2000/svg">
<g clip-path="url(#clip0_752_553)">
<path d="M110.16 28.1602C110.16 25.5202 108.32 24.2402 104.8 24.2402C101.2 24.2402 99.4396 25.5202 99.4396 28.1602V29.0402C99.4396 30.9602 100.8 31.6002 101.68 32.0002L111.2 35.3602C114.96 36.7202 117.68 39.2002 117.68 43.2002V47.4402C117.68 52.0002 114.48 56.4002 104.64 56.4002C94.8796 56.4002 91.5996 52.0802 91.5996 47.4402V44.0002C91.5996 43.0402 91.9996 42.5602 92.9596 42.5602H97.5196C98.4796 42.5602 98.8796 42.9602 98.8796 44.0002V46.4802C98.8796 49.1202 100.96 50.4002 104.72 50.4002C108.4 50.4002 110.56 49.1202 110.56 46.4802V44.7202C110.56 42.4802 108.4 41.6002 105.92 40.6402L97.4396 37.4402C94.8796 36.4802 92.4796 33.6802 92.4796 30.4002V27.2002C92.4796 22.6402 95.3596 18.2402 104.96 18.2402C114.48 18.2402 117.6 22.5602 117.6 27.2002V29.4402C117.6 30.3202 117.2 30.8002 116.24 30.8002H111.68C110.8 30.8002 110.4 30.4002 110.4 29.4402L110.16 28.1602ZM195.04 18.7202C195.92 18.7202 196.4 19.0402 196.4 20.0802V23.5202C196.4 24.4802 196 24.8802 195.04 24.8802H181.04V33.7602H194.08C195.04 33.7602 195.44 34.0802 195.44 35.1202V38.6402C195.44 39.6002 195.04 40.0002 194.08 40.0002H181.04V54.6402C181.04 55.6002 180.72 56.0802 179.68 56.0802H174.88C173.92 56.0802 173.52 55.6802 173.52 54.6402V20.1602C173.52 19.2002 173.84 18.7202 174.88 18.7202C174.96 18.7202 195.04 18.7202 195.04 18.7202ZM210.24 50.0002C210.16 50.0002 209.36 50.1602 209.04 50.1602C206.72 50.1602 206.08 49.2802 206.08 47.2802V30.0802C206.08 29.1202 205.68 28.7202 204.72 28.7202H200.24C199.36 28.7202 198.88 29.1202 198.88 30.0802V49.0402C198.88 53.3602 201.76 56.3202 206.72 56.3202C207.92 56.3202 209.04 56.1602 210 55.9202C210.08 55.9202 210.16 55.8402 210.24 55.8402C210.4 55.9202 210.64 49.9202 210.24 50.0002ZM220.88 28.6402H216.32C215.36 28.6402 214.96 29.0402 214.96 30.0002V47.6802L215.28 54.4802C215.44 55.4402 215.68 55.8402 216.64 55.8402H220.88C221.76 55.8402 222.24 55.4402 222.24 54.4802V30.0802C222.24 29.0402 221.76 28.6402 220.88 28.6402ZM169.6 28.6402H165.44C164.56 28.6402 164.24 29.1202 164 30.0002L155.44 56.6402L152.72 65.6002C152.4 66.4802 153.04 66.9602 154.08 66.9602H157.36C158.32 66.9602 158.72 66.3202 158.88 65.6002L170.96 30.0802C171.28 29.1202 170.56 28.6402 169.6 28.6402ZM132.96 49.9202C132.08 49.6802 131.6 50.2402 131.6 51.2002V54.4002C131.6 55.3602 132.24 55.6802 132.96 55.8402V49.9202Z" fill="#333333"/>
<path d="M210.16 50.0802C211.04 49.8402 211.52 50.4002 211.52 51.3602V54.4802C211.52 55.4402 210.88 55.7602 210.16 55.9202V50.0802ZM156.4 39.1202C156.24 38.5602 153.44 30.0002 153.44 30.0002C153.12 29.1202 152.88 28.6402 151.92 28.6402H147.36C146.48 28.6402 145.76 29.1202 146.08 30.0002L152.88 49.7602C152.88 49.7602 153.44 50.4002 153.6 49.7602C154.32 47.2802 156.08 41.6002 156.32 40.8802C156.64 39.9202 156.64 39.6802 156.4 39.1202ZM136.8 28.2402C132.32 28.2402 129.52 30.1602 128 31.3602L127.84 30.0002C127.76 29.0402 127.52 28.6402 126.48 28.6402H122.24C121.28 28.6402 120.88 29.0402 120.88 30.0002V65.6002C120.88 66.5602 121.28 66.9602 122.24 66.9602H126.8C127.68 66.9602 128.08 66.5602 128.08 65.6002V37.0402C129.2 36.1602 131.68 34.4802 134.4 34.4802C136.96 34.4802 137.36 35.9202 137.36 37.3602V47.2002C137.36 48.6402 136.96 50.0802 134.4 50.0802C133.76 50.0802 133.28 50.0002 132.72 49.9202C132.32 49.8402 132.32 55.7602 132.72 55.7602C133.84 56.0802 135.12 56.3202 136.64 56.3202C142.08 56.3202 144.56 53.2002 144.56 48.3202V36.2402C144.8 31.2802 142.24 28.2402 136.8 28.2402Z" fill="#333333"/>
<path d="M50.0795 3.76C47.1195 2.96 44.2395 2.48 41.2795 2.4L41.5995 5.84C44.1595 6 46.6395 6.4 49.1195 7.04C67.7595 12.16 78.7195 31.36 73.9995 50C71.8395 57.6 67.3595 64 61.5995 68.48L54.9595 60.56C54.7995 60.4 54.7995 60.24 54.7995 60.08L57.3595 51.76L43.1195 54.4C42.9595 54.4 42.7995 54.4 42.7195 54.24C42.5595 54.08 42.5595 54 42.5595 53.84L42.6395 51.52C42.6395 51.36 42.7195 51.2 42.7995 51.12L54.4795 42.48C53.9195 40.48 51.0395 29.52 47.6795 25.2C47.5195 25.04 47.5195 24.8 47.5995 24.72C47.6795 24.64 47.8395 24.4 47.9995 24.4L65.4395 23.52L41.3595 11.92C41.1995 11.84 41.1195 11.68 41.1195 11.52L40.0795 0L12.1595 7.84L14.0795 15.92C14.1595 16.08 14.0795 16.32 13.9195 16.4L4.87954 23.04L4.63954 24.24L16.7995 25.36C16.9595 25.36 17.1995 25.52 17.1995 25.76L23.5995 52.16V52.32L23.7595 52.96L23.1995 52.8H22.9595L8.15954 47.2L9.35954 58.32C5.11954 51.04 3.43954 42.08 5.27954 33.28C5.43954 32.72 5.51954 32.24 5.67954 31.68C6.07954 30.08 7.11954 27.52 7.99954 25.52L4.39954 25.12C3.67954 26.72 3.03954 28.4 2.55954 30.08L2.39954 30.24C2.15954 31.04 1.99954 31.84 1.75954 32.56C-2.80046 52.64 9.27954 73.04 29.3595 78.56C49.9995 84.24 71.4395 72.08 77.1195 51.44C82.8795 30.88 70.7195 9.44 50.0795 3.76ZM30.7995 49.76L51.9995 43.44L40.1595 50.56L30.7995 49.76Z" fill="#333333"/>
<path d="M49.5192 74.6402L41.4392 58.6402L32.1592 57.6802L45.6792 75.4402C46.9592 75.2802 48.2392 74.9602 49.5192 74.6402Z" fill="#EC1C27"/>
</g>
<defs>
<clipPath id="clip0_752_553">
<rect width="221.44" height="80" fill="white" transform="translate(0.879883)"/>
</clipPath>
</defs>
</svg>
