<?xml version="1.0" encoding="utf-8"?>
<!-- Generator: Adobe Illustrator 25.0.0, SVG Export Plug-In . SVG Version: 6.00 Build 0)  -->
<svg version="1.1" id="Layer_1" xmlns="http://www.w3.org/2000/svg" xmlns:xlink="http://www.w3.org/1999/xlink" x="0px" y="0px"
	 viewBox="0 0 38.3 20" style="enable-background:new 0 0 38.3 20;" xml:space="preserve">
<style type="text/css">
	.st0{fill:#FFCD57;}
	.st1{fill:#35414D;}
</style>
<g>
	<path class="st0" d="M34.1,4.4l-6.7,0l0,3.4l-10.5,0c0.3-0.6,0.4-1.3,0.4-1.9c0-2.8-2.3-5.1-5.1-5.1c-2.5,0-4.6,1.8-5,4.3
		C4.4,4.4,1.7,6,1,8.7s0.9,5.5,3.6,6.2c0.8,0.2,1.7,0.2,2.6,0c0.4,2.8,3,4.6,5.8,4.2c2.8-0.4,4.6-3,4.2-5.8
		c-0.1-0.4-0.2-0.8-0.3-1.2l20.6,0l0-4.3l-3.4,0L34.1,4.4z M12.2,12.4c0.9,0,1.7,0.8,1.7,1.7c0,0.9-0.8,1.7-1.7,1.7
		c-0.9,0-1.7-0.8-1.7-1.7C10.5,13.2,11.2,12.4,12.2,12.4C12.2,12.4,12.2,12.4,12.2,12.4z M12.1,4.2c0.9,0,1.7,0.8,1.7,1.7
		c0,0.9-0.8,1.7-1.7,1.7c-0.9,0-1.7-0.8-1.7-1.7C10.5,5,11.2,4.2,12.1,4.2C12.1,4.2,12.1,4.2,12.1,4.2z M5.9,8.3
		c0.9,0,1.7,0.8,1.7,1.7c0,0.9-0.8,1.7-1.7,1.7c-0.9,0-1.7-0.8-1.7-1.7C4.2,9.1,5,8.3,5.9,8.3L5.9,8.3z"/>
	<path class="st1" d="M12.1,8.4c1.4,0,2.5-1.1,2.5-2.5s-1.1-2.5-2.5-2.5c-1.4,0-2.5,1.1-2.5,2.5C9.6,7.3,10.7,8.4,12.1,8.4z
		 M12.1,5.1c0.5,0,0.8,0.4,0.8,0.8c0,0.5-0.4,0.8-0.8,0.8c-0.5,0-0.8-0.4-0.8-0.8C11.3,5.4,11.7,5.1,12.1,5.1z"/>
	<path class="st1" d="M3.4,10c0,1.4,1.1,2.5,2.5,2.5s2.5-1.1,2.5-2.5c0-1.4-1.1-2.5-2.5-2.5C4.5,7.5,3.4,8.6,3.4,10z M5.9,9.2
		c0.5,0,0.8,0.4,0.8,0.8c0,0.5-0.4,0.8-0.8,0.8C5.4,10.9,5,10.5,5,10C5,9.5,5.4,9.2,5.9,9.2z"/>
	<path class="st1" d="M12.2,16.6c1.4,0,2.5-1.1,2.5-2.5c0-1.4-1.1-2.5-2.5-2.5s-2.5,1.1-2.5,2.5c0,0,0,0,0,0
		C9.6,15.5,10.8,16.6,12.2,16.6z M12.2,13.3c0.5,0,0.8,0.4,0.8,0.8c0,0.5-0.4,0.8-0.8,0.8c-0.5,0-0.8-0.4-0.8-0.8
		C11.3,13.6,11.7,13.3,12.2,13.3z"/>
	<path class="st1" d="M38.3,7.8C38.3,7.8,38.3,7.8,38.3,7.8c0-0.5-0.4-0.8-0.8-0.8l-2.5,0l0-2.5c0,0,0,0,0,0c0-0.5-0.4-0.8-0.8-0.8
		l-6.7,0c0,0,0,0,0,0c-0.5,0-0.8,0.4-0.8,0.8l0,2.5l-8.5,0C18,6.6,18,6.3,18,5.9c0-2.6-1.7-4.9-4.1-5.6c-3.1-1-6.4,0.8-7.4,3.9
		c-0.2,0-0.4,0-0.6,0C2.6,4.1,0,6.8,0,10c0,3.3,2.6,5.9,5.9,5.9c0.2,0,0.4,0,0.6,0c0.8,2.5,3.1,4.1,5.6,4.1c3.3,0,5.9-2.7,5.9-5.9
		c0-0.4,0-0.7-0.1-1.1l19.5,0c0,0,0,0,0,0c0.5,0,0.8-0.4,0.8-0.8L38.3,7.8z M16.8,11.3c-0.1,0-0.2,0-0.3,0.1
		c-0.4,0.2-0.6,0.7-0.5,1.1c0.1,0.3,0.2,0.6,0.3,1c0.4,2.3-1.2,4.5-3.5,4.8c-2.3,0.4-4.5-1.2-4.8-3.5c0,0,0-0.1,0-0.1
		c-0.1-0.5-0.6-0.7-1-0.6c-0.7,0.2-1.5,0.2-2.2,0c-2.3-0.6-3.6-2.9-3-5.2c0.6-2.3,2.9-3.6,5.2-3c0,0,0.1,0,0.1,0
		C7.5,6,7.9,5.7,8,5.2c0.3-2.1,2.1-3.6,4.2-3.6c2.3,0,4.2,1.9,4.2,4.2c0,0.6-0.1,1.1-0.3,1.6C16,7.6,16,7.7,16,7.8
		c0,0.5,0.4,0.8,0.8,0.8l10.5,0c0,0,0,0,0,0c0.5,0,0.8-0.4,0.8-0.8l0-2.5l1.7,0l0,2.5c0,0,0,0,0,0c0,0.5,0.4,0.8,0.9,0.8
		c0.5,0,0.8-0.4,0.8-0.9l0-2.5l1.7,0l0,2.5c0,0,0,0,0,0c0,0.5,0.4,0.8,0.8,0.8l2.5,0l0,2.7L16.8,11.3z"/>
</g>
</svg>
