<?xml version="1.0" encoding="utf-8"?>
<!-- Generator: Adobe Illustrator 25.0.0, SVG Export Plug-In . SVG Version: 6.00 Build 0)  -->
<svg version="1.1" id="Layer_1" xmlns="http://www.w3.org/2000/svg" xmlns:xlink="http://www.w3.org/1999/xlink" x="0px" y="0px"
	 viewBox="0 0 250 250" style="enable-background:new 0 0 250 250;" xml:space="preserve">
<style type="text/css">
	.st0{fill:#FF9999;}
	.st1{fill:#35414D;}
	.st2{fill:#FFCF66;}
</style>
<g>
	<path class="st0" d="M139.8,89.2H33c-16.4,0-29.7,13.3-29.7,29.6v76c0,16.4,13.3,29.6,29.7,29.6h32.2l-0.4,0l0.2,21.7l21.6-21.7
		h53.4c16.4,0,29.7-13.3,29.7-29.6v-76C169.5,102.4,156.2,89.2,139.8,89.2z"/>
	<path class="st1" d="M64.4,250c-0.2,0-0.3,0-0.3,0c-0.6-0.3-1-1-1.1-1.8l-1.2-18.7c-0.1-1-0.9-1.8-1.9-1.8H33.1
		C14.9,227.7,0,212.9,0,194.6V119c0-18.2,14.9-33.1,33.1-33.1h49.5c1.7,0,3.2,1.1,3.5,2.7c0.2,1-0.1,1.9-0.7,2.7
		c-0.6,0.7-1.5,1.2-2.5,1.2H33.1c-14.7,0-26.6,11.9-26.6,26.6v75.7c0,14.7,11.9,26.6,26.6,26.6h32c0.1,0,0.3,0,0.4,0
		c1.4,0.2,2.5,1.5,2.5,3l0.3,12c0,1,0.9,1.8,1.9,1.8c0.6,0,1.2-0.3,1.5-0.8c7.1-10.1,13.1-16.1,14.7-16.1h53.2
		c14.7,0,26.6-11.9,26.6-26.6V161c0-1.7,1.1-3.2,2.7-3.5c0.2,0,0.4-0.1,0.6-0.1c1.8,0,3.3,1.5,3.3,3.2v33.9
		c0,18.2-14.9,33.1-33.1,33.1H91.4c-0.5,0-0.9,0.2-1.3,0.5c-10,9.2-21.6,19.5-23.2,20.6l-0.5,0.3c-0.6,0.4-1,0.7-1.4,0.8
		C65,249.9,64.7,250,64.4,250z"/>
	<path class="st2" d="M179.8,3.2h-12.5c-37,0-67,29.9-67,66.8l0,0c0,36.9,30,66.8,67,66.8h12.5c6.9,0,13.5-1,19.7-2.9l20.6,20.5v-31
		c16.2-12.2,26.7-31.6,26.7-53.4l0,0C246.7,33.2,216.8,3.2,179.8,3.2z"/>
	<path class="st1" d="M220,157.7c-0.9,0-1.7-0.3-2.3-1l-19.2-19.1l-0.9,0.2c-5.8,1.5-11.8,2.3-17.8,2.3h-11.4
		c-38.7,0-70.7-30.9-71.3-69c-0.3-18.9,6.9-36.7,20.1-50.2c13.3-13.5,31.1-21,50.1-21h11.4c19,0,37.7,7.8,51.2,21.5
		C243,34.9,250.2,52.5,250,71c-0.1,10.9-2.7,21.3-7.6,30.9c-4.4,8.7-10.8,16.5-18.5,22.7l-0.6,0.5l0,29.1c0,1.2-0.5,2.3-1.4,2.9
		C221.4,157.5,220.7,157.7,220,157.7z M199.5,130.7c0.9,0,1.7,0.3,2.3,1l15,15v-23.1c0-1,0.5-2,1.2-2.6c16.3-12.3,25.6-31,25.5-51.3
		c-0.3-34.2-29.9-63.1-64.7-63.1h-10.5c-35,0-64.1,28-64.7,62.4c-0.3,17.2,6.1,33.4,18.2,45.7c12.1,12.3,28.3,19.1,45.5,19.1h12.5
		c6.4,0,12.7-0.9,18.7-2.8C198.8,130.8,199.1,130.7,199.5,130.7z"/>
	<path class="st1" d="M174.7,88.8c-1.7-0.1-3.1-1.7-3.1-3.5V73.7c0-3.6,2.5-6.7,6.1-7.5c6.3-1.4,10.5-7.3,9.9-13.7
		c-0.6-6.3-6.1-11.3-12.5-11.4l-0.2,0c-3.8,0-7.3,1.6-9.8,4.5c-1.8,2.1-2.8,5-3,8.3c-0.1,1.7-1.5,3.1-3.3,3.1c-0.1,0-0.2,0-0.3,0
		c-1.7-0.2-3-1.7-2.9-3.6c0.1-5.2,2.3-10.2,6.1-13.7c3.6-3.3,8.2-5.2,13.1-5.2c0.7,0,1.3,0,2,0.1c8.8,0.9,16,7.9,17.1,16.6
		c1.2,9.9-4.9,18.8-14.6,21.2l-1.3,0.3v12.8c0,0.9-0.3,1.7-1,2.3c-0.6,0.6-1.4,1-2.3,1C174.8,88.8,174.8,88.8,174.7,88.8z"/>
	<path class="st1" d="M174.9,108.4c-0.9,0-1.7-0.3-2.3-0.9c-0.6-0.6-1-1.4-1-2.3c0-0.9,0.3-1.7,1-2.3c0.6-0.6,1.4-1,2.3-1
		c0.9,0,1.7,0.3,2.3,1c0.6,0.6,1,1.4,1,2.3s-0.3,1.7-1,2.3C176.6,108,175.7,108.4,174.9,108.4z"/>
	<path class="st1" d="M30.1,159.6c-1.6,0-3-1.1-3.3-2.6c-0.2-1,0-2,0.7-2.7c0.6-0.8,1.5-1.2,2.5-1.2h104.1c1.9,0,3.4,1.4,3.5,3.1
		c0,0.9-0.3,1.8-0.9,2.4c-0.6,0.7-1.5,1-2.4,1H30.1z"/>
	<path class="st1" d="M134.4,187.2c-0.9,0-1.7-0.3-2.3-1c-0.6-0.6-1-1.4-1-2.3c0-0.9,0.3-1.7,1-2.3c0.6-0.6,1.4-1,2.3-1
		s1.7,0.3,2.3,1c0.6,0.6,1,1.4,1,2.3c0,0.9-0.3,1.7-1,2.3C136.1,186.9,135.3,187.2,134.4,187.2z"/>
	<path class="st1" d="M30.1,187.2c-1.6,0-3-1.1-3.3-2.6c-0.2-1,0-2,0.7-2.7c0.6-0.8,1.5-1.2,2.5-1.2h84.7c1.9,0,3.4,1.4,3.5,3.1
		c0,0.9-0.3,1.8-0.9,2.4c-0.6,0.7-1.5,1-2.4,1H30.1z"/>
	<path class="st1" d="M30.1,131.9c-1.6,0-3-1.1-3.3-2.6c-0.2-1,0-2,0.7-2.7c0.6-0.8,1.5-1.2,2.5-1.2h72c1.9,0,3.4,1.4,3.5,3.1
		c0,0.9-0.3,1.8-0.9,2.4c-0.6,0.7-1.5,1-2.4,1H30.1z"/>
</g>
</svg>
