<?xml version="1.0" encoding="utf-8"?>
<!-- Generator: Adobe Illustrator 25.0.0, SVG Export Plug-In . SVG Version: 6.00 Build 0)  -->
<svg version="1.1" id="Layer_1" xmlns="http://www.w3.org/2000/svg" xmlns:xlink="http://www.w3.org/1999/xlink" x="0px" y="0px"
	 viewBox="0 0 27.7 35" style="enable-background:new 0 0 27.7 35;" xml:space="preserve">
<style type="text/css">
	.st0{fill:#5B777F;}
	.st1{fill:#35414D;}
	.st2{fill:#FFCD57;}
	.st3{fill-rule:evenodd;clip-rule:evenodd;fill:#FFCD57;}
	.st4{fill-rule:evenodd;clip-rule:evenodd;fill:#F4BA43;}
	.st5{fill:#35414D;stroke:#35414D;stroke-width:1.1661;stroke-miterlimit:10;}
</style>
<g>
	<g>
		<path class="st0" d="M12.5,1.8C7.7,2.6,4.4,7.3,5.3,12.2l1,5.6l1.6-0.3l-1-5.6c-0.7-4,1.9-7.8,5.9-8.5C16.4,2.7,19.8,4.7,21,8
			l1.6-0.3C21.2,3.6,17,1,12.5,1.8z"/>
		<path class="st1" d="M12.3,0.2c-5.8,1-9.6,6.5-8.6,12.3l1.2,6.4c0.1,0.4,0.5,0.7,0.9,0.7L9,18.9c0.3-0.1,0.6-0.3,0.6-0.6
			c0-0.1,0-0.2,0-0.3l-1.2-6.4C8.4,11,8.4,10.4,8.5,9.9c0-0.4,0.1-0.7,0.2-1.1c0.1-0.4,0.3-0.7,0.4-1c0.2-0.3,0.4-0.6,0.6-0.9
			c0.8-1,2-1.7,3.3-1.9c1.3-0.2,2.7,0,3.8,0.6c0.3,0.2,0.6,0.4,0.9,0.6c0.3,0.2,0.5,0.5,0.8,0.8c0.2,0.3,0.5,0.7,0.6,1
			c0,0.1,0.1,0.2,0.1,0.2c0,0,0,0,0,0c0.1,0.3,0.5,0.6,0.8,0.5l3.3-0.6c0.4-0.1,0.6-0.4,0.6-0.8l0-0.1c0,0,0,0,0,0l0-0.1
			C22.5,2.3,17.5-0.8,12.3,0.2z M20.6,7.2c-1.4-2.8-4.6-4.4-7.8-3.8c-4,0.7-6.6,4.5-5.9,8.5l1,5.6l-1.6,0.3l-1-5.6
			C4.4,7.3,7.7,2.6,12.6,1.8c4.1-0.7,8.1,1.5,9.7,5.1L20.6,7.2z"/>
	</g>
	<path class="st2" d="M4.3,12.5h19c2.2,0,4,1.8,4,4v14.2c0,2.2-1.8,4-4,4h-19c-2.2,0-4-1.8-4-4V16.5C0.4,14.3,2.2,12.5,4.3,12.5z"/>
	<path class="st1" d="M23.6,35H4.1C1.8,35,0,33.2,0,30.9V16.3c0-2.2,1.8-4.1,4.1-4.1h19.5c2.2,0,4.1,1.8,4.1,4.1v14.6
		C27.7,33.2,25.9,35,23.6,35z M4.1,13.8c-1.3,0-2.4,1.1-2.4,2.4v14.6c0,1.3,1.1,2.4,2.4,2.4h19.5c1.3,0,2.4-1.1,2.4-2.4V16.3
		c0-1.3-1.1-2.4-2.4-2.4L4.1,13.8L4.1,13.8z"/>
	<g>
		<path id="Path_43_" class="st3" d="M15.6,23.1c1.2-0.8,1.7-2.2,1.3-3.5c-0.4-1.3-1.6-2.2-3-2.2s-2.6,0.9-3,2.2
			c-0.4,1.3,0.1,2.8,1.3,3.5l-1.8,6c-0.1,0.2,0,0.4,0.1,0.6c0.1,0.2,0.3,0.3,0.5,0.3h5.9c0.2,0,0.4-0.1,0.5-0.3
			c0.1-0.2,0.2-0.4,0.1-0.6L15.6,23.1z"/>
		<path id="Path_42_" class="st4" d="M17.4,29.1l-1.8-6c1.1-0.7,1.6-1.9,1.4-3.2c-0.2-1.2-1.2-2.2-2.4-2.5c-0.5-0.1-1.1-0.1-1.6,0.1
			c1.2,0.4,2,1.4,2.2,2.6c0.2,1.2-0.4,2.4-1.4,3.1l1.8,6c0.1,0.2,0,0.4-0.1,0.6c-0.1,0.2-0.3,0.3-0.5,0.3h1.9c0.2,0,0.4-0.1,0.5-0.3
			C17.4,29.5,17.4,29.3,17.4,29.1L17.4,29.1z"/>
		<path class="st5" d="M10.9,30.1c-0.3,0-0.5-0.1-0.7-0.4C10,29.6,10,29.3,10.1,29l1.8-5.8L11.6,23c-1.1-0.9-1.5-2.4-1-3.8
			c0.5-1.3,1.8-2.2,3.2-2.2s2.7,0.9,3.2,2.2c0.5,1.3,0.1,2.8-1,3.8l-0.2,0.2l1.8,5.8c0.1,0.3,0,0.6-0.1,0.8
			c-0.2,0.2-0.4,0.4-0.7,0.4C16.8,30.1,10.9,30.1,10.9,30.1z M13.8,17.6c-0.7,0-1.3,0.2-1.8,0.6c-0.7,0.6-1.1,1.5-1.1,2.4
			c0,0.9,0.5,1.8,1.3,2.3c0.1,0.1,0.1,0.2,0.1,0.3l-2,6.5h6.9l-2-6.5c0-0.1,0-0.2,0.1-0.3c1-0.7,1.5-1.9,1.2-3.1
			c-0.2-1.1-1.1-2-2.2-2.2C14.3,17.6,14.1,17.6,13.8,17.6L13.8,17.6z"/>
	</g>
</g>
</svg>
