<?xml version="1.0" encoding="utf-8"?>
<!-- Generator: Adobe Illustrator 25.0.0, SVG Export Plug-In . SVG Version: 6.00 Build 0)  -->
<svg version="1.1" id="Layer_1" xmlns="http://www.w3.org/2000/svg" xmlns:xlink="http://www.w3.org/1999/xlink" x="0px" y="0px"
	 viewBox="0 0 27.7 35" style="enable-background:new 0 0 27.7 35;" xml:space="preserve">
<style type="text/css">
	.st0{fill:#5B777F;}
	.st1{fill:#35414D;}
	.st2{fill:#FFCD57;}
	.st3{fill-rule:evenodd;clip-rule:evenodd;fill:#FFCD57;}
	.st4{fill-rule:evenodd;clip-rule:evenodd;fill:#F4BA43;}
	.st5{fill:#35414D;stroke:#35414D;stroke-width:1.1667;stroke-miterlimit:10;}
</style>
<g>
	<path class="st0" d="M13.8,0C8,0,3.3,4.7,3.3,10.6v6.5c0,0.4,0.4,0.8,0.8,0.8h3.3c0.4,0,0.8-0.4,0.8-0.8v-6.5
		c0-3.1,2.6-5.7,5.7-5.7s5.7,2.6,5.7,5.7v3.3c0,0.4,0.4,0.8,0.8,0.8h3.3c0.4,0,0.8-0.4,0.8-0.8v-3.3C24.4,4.7,19.7,0,13.8,0z"/>
	<path class="st1" d="M7.3,17.9H4.1c-0.4,0-0.8-0.4-0.8-0.8v-6.5C3.3,4.7,8,0,13.8,0s10.6,4.7,10.6,10.6v3.3c0,0.4-0.4,0.8-0.8,0.8
		h-3.3c-0.4,0-0.8-0.4-0.8-0.8v-3.3c0-3.1-2.6-5.7-5.7-5.7s-5.7,2.6-5.7,5.7v6.5C8.1,17.6,7.8,17.9,7.3,17.9z M4.9,16.3h1.6v-5.7
		c0-4,3.3-7.3,7.3-7.3s7.3,3.3,7.3,7.3V13h1.6v-2.4c0-4.9-4-9-9-9s-9,4-9,9V16.3z"/>
	<path class="st2" d="M4.3,12.5h19c2.2,0,4,1.8,4,4v14.2c0,2.2-1.8,4-4,4h-19c-2.2,0-4-1.8-4-4V16.5C0.4,14.3,2.2,12.5,4.3,12.5z"/>
	<path class="st1" d="M23.6,35H4.1C1.8,35,0,33.2,0,30.9V16.3c0-2.2,1.8-4.1,4.1-4.1h19.5c2.2,0,4.1,1.8,4.1,4.1v14.7
		C27.7,33.2,25.9,35,23.6,35z M4.1,13.8c-1.3,0-2.4,1.1-2.4,2.4v14.7c0,1.3,1.1,2.4,2.4,2.4h19.5c1.3,0,2.4-1.1,2.4-2.4V16.3
		c0-1.3-1.1-2.4-2.4-2.4L4.1,13.8L4.1,13.8z"/>
	<g>
		<path id="Path_39_" class="st3" d="M15.6,23.1c1.2-0.8,1.7-2.2,1.3-3.5s-1.6-2.2-3-2.2s-2.6,0.9-3,2.2s0.1,2.8,1.3,3.5l-1.8,6
			c-0.1,0.2,0,0.4,0.1,0.6c0.1,0.2,0.3,0.3,0.5,0.3h5.9c0.2,0,0.4-0.1,0.5-0.3c0.1-0.2,0.2-0.4,0.1-0.6L15.6,23.1z"/>
		<path id="Path_38_" class="st4" d="M17.4,29.1l-1.8-6c1.1-0.7,1.6-2,1.4-3.2c-0.2-1.2-1.2-2.2-2.4-2.5c-0.5-0.1-1.1-0.1-1.6,0.1
			c1.2,0.4,2,1.4,2.2,2.6c0.2,1.2-0.4,2.4-1.4,3.1l1.8,6c0.1,0.2,0,0.4-0.1,0.6c-0.1,0.2-0.3,0.3-0.5,0.3h1.9c0.2,0,0.4-0.1,0.5-0.3
			C17.4,29.5,17.4,29.3,17.4,29.1L17.4,29.1z"/>
		<path class="st5" d="M10.9,30.1c-0.3,0-0.5-0.1-0.7-0.4C10,29.6,10,29.3,10.1,29l1.8-5.8L11.6,23c-1.1-0.9-1.5-2.4-1-3.8
			c0.5-1.3,1.8-2.2,3.2-2.2s2.7,0.9,3.2,2.2c0.5,1.3,0.1,2.8-1,3.8l-0.2,0.2l1.8,5.8c0.1,0.3,0,0.6-0.1,0.8
			c-0.2,0.2-0.4,0.4-0.7,0.4C16.8,30.1,10.9,30.1,10.9,30.1z M13.8,17.6c-0.7,0-1.3,0.2-1.8,0.6c-0.7,0.6-1.1,1.5-1.1,2.4
			c0,0.9,0.5,1.8,1.3,2.3c0.1,0.1,0.1,0.2,0.1,0.3l-2,6.5h6.9l-2-6.5c0-0.1,0-0.2,0.1-0.3c1-0.7,1.5-1.9,1.2-3.1
			c-0.2-1.1-1.1-2-2.2-2.2C14.3,17.6,14.1,17.6,13.8,17.6L13.8,17.6z"/>
	</g>
</g>
</svg>
