<svg width="471" height="45" viewBox="0 0 471 45" fill="none" xmlns="http://www.w3.org/2000/svg">
<rect x="1" y="19.5" width="202" height="6" fill="#72BD39" stroke="#305F0D" stroke-width="2"/>
<path d="M237.836 39.6264V42.7359H233.414V39.4805C229.182 39.0027 225.214 37.1807 222.094 34.2819L225.592 29.9577C227.773 32.0333 230.476 33.4777 233.414 34.1367V24.6621C227.437 23.1072 223.405 20.9707 223.405 15.2364C223.405 9.9893 227.438 5.95512 233.414 5.22774V2.26407H237.836V5.27661C241.628 5.66879 245.199 7.25029 248.039 9.79489L244.734 14.2647C242.773 12.4954 240.402 11.2431 237.836 10.6211V19.755C244.492 21.2611 248.913 23.5445 248.913 29.4718C248.913 35.0596 244.88 39.1405 237.836 39.6264ZM233.414 18.5889V10.5237C231.034 11.1066 229.527 12.8071 229.527 14.702C229.527 16.6454 230.79 17.6657 233.414 18.5889ZM242.84 30.0547C242.84 27.8198 241.285 26.7996 237.836 25.7794V34.4278C241.139 34.039 242.84 32.1929 242.84 30.0547Z" fill="#72BD39"/>
<path d="M228.885 7.27417C230.314 6.50572 231.878 6.01833 233.491 5.83839C233.64 5.82019 233.777 5.74803 233.877 5.63554C233.976 5.52304 234.031 5.37798 234.031 5.22773V2.87894H237.222V5.27624C237.222 5.42814 237.279 5.57466 237.38 5.6876C237.482 5.80053 237.622 5.8719 237.773 5.88796C241.246 6.24775 244.531 7.64351 247.202 9.89401L244.63 13.3745C242.703 11.7503 240.421 10.6012 237.969 10.0195C237.879 9.99968 237.786 10.0003 237.696 10.0212C237.607 10.0422 237.523 10.083 237.451 10.1407C237.38 10.1984 237.322 10.2714 237.282 10.3544C237.242 10.4374 237.222 10.5283 237.222 10.6203V19.7539C237.221 19.8938 237.269 20.0295 237.356 20.1388C237.443 20.2482 237.565 20.3246 237.701 20.3555C239.232 20.6837 240.736 21.1224 242.203 21.6682C242.274 21.6958 242.349 21.7098 242.425 21.7097C242.569 21.7096 242.708 21.6594 242.818 21.5676C242.929 21.4759 243.003 21.3484 243.03 21.2073C243.056 21.0662 243.032 20.9203 242.962 20.7949C242.892 20.6695 242.781 20.5725 242.647 20.5207C241.279 20.0073 239.877 19.588 238.452 19.2656V11.411C240.631 12.0764 242.638 13.2092 244.334 14.7305C244.398 14.7859 244.473 14.8275 244.554 14.8526C244.635 14.8777 244.72 14.8858 244.804 14.8765C244.888 14.8671 244.97 14.8404 245.043 14.7981C245.116 14.7558 245.18 14.6988 245.231 14.6306L248.535 10.1605C248.628 10.0357 248.669 9.88068 248.652 9.7265C248.635 9.57232 248.56 9.43036 248.442 9.32905C245.647 6.83218 242.167 5.23045 238.452 4.73062V2.2637C238.452 2.10053 238.387 1.94404 238.272 1.82867C238.157 1.71329 238 1.64847 237.837 1.64847H233.415C233.252 1.64847 233.096 1.71329 232.98 1.82867C232.865 1.94404 232.8 2.10053 232.8 2.2637V4.69194C231.222 4.9274 229.696 5.43635 228.293 6.19593C228.22 6.23372 228.155 6.2857 228.103 6.34879C228.051 6.41189 228.011 6.48483 227.987 6.56333C227.964 6.64183 227.956 6.72431 227.964 6.8059C227.973 6.88749 227.998 6.96655 228.037 7.03844C228.077 7.11032 228.13 7.17357 228.194 7.22447C228.259 7.27537 228.333 7.31289 228.412 7.33483C228.491 7.35676 228.573 7.36266 228.655 7.35218C228.736 7.3417 228.815 7.31506 228.885 7.27382L228.885 7.27417Z" fill="#26180D"/>
<path d="M238.008 25.1894C237.917 25.1622 237.82 25.1568 237.726 25.1736C237.631 25.1905 237.542 25.2291 237.466 25.2864C237.389 25.3436 237.327 25.418 237.284 25.5036C237.241 25.5892 237.219 25.6836 237.219 25.7793V34.4278C237.219 34.5909 237.284 34.7474 237.399 34.8628C237.514 34.9782 237.671 35.043 237.834 35.043C237.858 35.043 237.882 35.0416 237.906 35.0388C241.276 34.6419 243.453 32.6858 243.453 30.0547C243.453 27.3325 241.457 26.2096 238.008 25.1894ZM238.449 33.7081V26.6132C241.285 27.5403 242.223 28.428 242.223 30.0536C242.223 31.8793 240.795 33.2402 238.449 33.7085V33.7081Z" fill="#26180D"/>
<path d="M244.884 21.5659C244.742 21.4868 244.575 21.4669 244.418 21.5106C244.262 21.5543 244.129 21.658 244.049 21.7992C243.969 21.9403 243.948 22.1075 243.99 22.2642C244.033 22.4209 244.135 22.5544 244.276 22.6357C244.583 22.8115 244.876 22.9947 245.146 23.1852C245.28 23.279 245.445 23.3159 245.606 23.2878C245.767 23.2597 245.91 23.1688 246.004 23.0353C246.098 22.9017 246.134 22.7363 246.106 22.5756C246.078 22.4148 245.987 22.2718 245.854 22.178C245.551 21.9653 245.225 21.7596 244.884 21.5659Z" fill="#26180D"/>
<path d="M247.672 23.8412C247.621 23.7763 247.558 23.7222 247.486 23.6821C247.415 23.642 247.335 23.6167 247.254 23.6077C247.172 23.5986 247.089 23.6061 247.011 23.6296C246.932 23.6531 246.858 23.6921 246.795 23.7444C246.732 23.7967 246.679 23.8612 246.641 23.934C246.603 24.0069 246.58 24.0866 246.573 24.1686C246.566 24.2505 246.576 24.333 246.602 24.4111C246.627 24.4893 246.668 24.5614 246.722 24.6234C247.781 25.9094 248.296 27.4953 248.296 29.4718C248.296 34.9101 244.271 38.5657 237.792 39.0125C237.637 39.0232 237.491 39.0925 237.385 39.2065C237.278 39.3204 237.219 39.4705 237.219 39.6264V42.1224H234.028V39.4805C234.028 39.33 233.972 39.1847 233.872 39.0721C233.773 38.9596 233.635 38.8876 233.485 38.8698C229.577 38.4322 225.896 36.8073 222.939 34.2141L225.664 30.8454C227.833 32.767 230.455 34.1065 233.284 34.7382C233.374 34.7573 233.466 34.7562 233.556 34.7348C233.645 34.7135 233.728 34.6725 233.799 34.6148C233.871 34.5572 233.928 34.4843 233.967 34.4016C234.007 34.3189 234.027 34.2284 234.028 34.1367V30.6738C234.028 30.5106 233.963 30.3542 233.847 30.2388C233.732 30.1234 233.575 30.0586 233.412 30.0586C233.249 30.0586 233.093 30.1234 232.977 30.2388C232.862 30.3542 232.797 30.5106 232.797 30.6738V33.3562C230.252 32.6485 227.919 31.3256 226.005 29.5042C225.943 29.4474 225.87 29.404 225.791 29.3765C225.712 29.349 225.628 29.338 225.544 29.3443C225.46 29.3506 225.379 29.3739 225.304 29.4129C225.23 29.4519 225.164 29.5057 225.112 29.571L221.614 33.8952C221.515 34.0167 221.467 34.1712 221.478 34.3271C221.49 34.4831 221.56 34.6288 221.675 34.7347C224.75 37.5986 228.634 39.4442 232.797 40.0201V42.7363C232.797 42.8994 232.862 43.0559 232.977 43.1713C233.093 43.2867 233.249 43.3515 233.412 43.3515H237.834C237.997 43.3515 238.154 43.2867 238.269 43.1713C238.384 43.0559 238.449 42.8994 238.449 42.7363V40.1927C245.299 39.5219 249.527 35.4537 249.527 29.4722C249.527 27.1983 248.92 25.3564 247.672 23.8412Z" fill="#26180D"/>
<path d="M232.798 25.1367V27.8915C232.798 28.0547 232.863 28.2112 232.978 28.3266C233.093 28.442 233.25 28.5068 233.413 28.5068C233.576 28.5068 233.733 28.442 233.848 28.3266C233.963 28.2112 234.028 28.0547 234.028 27.8915V24.6621C234.028 24.5259 233.983 24.3935 233.9 24.2858C233.816 24.1781 233.7 24.1011 233.568 24.0669C227.673 22.533 224.02 20.5207 224.02 15.2364C224.007 14.0329 224.245 12.84 224.719 11.7336C225.192 10.6271 225.891 9.63128 226.77 8.80944C226.886 8.69651 226.953 8.54224 226.956 8.38016C226.96 8.21807 226.899 8.06128 226.787 7.94386C226.675 7.82644 226.522 7.75788 226.36 7.75308C226.197 7.74828 226.04 7.80763 225.922 7.91823C224.927 8.85892 224.135 9.99374 223.597 11.2525C223.058 12.5112 222.783 13.8672 222.789 15.2364C222.789 21.144 226.771 23.5055 232.798 25.1367Z" fill="#26180D"/>
<path d="M233.27 9.92564C230.664 10.5637 228.914 12.4829 228.914 14.702C228.914 17.299 230.98 18.3839 233.212 19.1689C233.305 19.2016 233.404 19.2116 233.501 19.1979C233.599 19.1843 233.691 19.1474 233.772 19.0905C233.852 19.0337 233.917 18.9585 233.963 18.8711C234.008 18.7838 234.031 18.6868 234.031 18.5885V10.5236C234.031 10.4304 234.01 10.3384 233.969 10.2545C233.929 10.1707 233.869 10.0972 233.796 10.0396C233.723 9.98205 233.637 9.94191 233.546 9.92222C233.455 9.90254 233.36 9.90347 233.27 9.92564ZM232.801 17.698C230.857 16.8982 230.145 16.0639 230.145 14.7023C230.145 13.2743 231.184 11.9995 232.801 11.3625V17.698Z" fill="#26180D"/>
<rect x="268" y="19.5" width="202" height="6" fill="#72BD39" stroke="#305F0D" stroke-width="2"/>
</svg>
