<svg width="18" height="18" viewBox="0 0 18 18" fill="none" xmlns="http://www.w3.org/2000/svg">
<path d="M8.16406 4.83335H9.83073V6.50002H8.16406V4.83335ZM8.16406 8.16669H9.83073V13.1667H8.16406V8.16669ZM8.9974 0.666687C4.3974 0.666687 0.664062 4.40002 0.664062 9.00002C0.664062 13.6 4.3974 17.3334 8.9974 17.3334C13.5974 17.3334 17.3307 13.6 17.3307 9.00002C17.3307 4.40002 13.5974 0.666687 8.9974 0.666687ZM8.9974 15.6667C5.3224 15.6667 2.33073 12.675 2.33073 9.00002C2.33073 5.32502 5.3224 2.33335 8.9974 2.33335C12.6724 2.33335 15.6641 5.32502 15.6641 9.00002C15.6641 12.675 12.6724 15.6667 8.9974 15.6667Z" fill="#6B7280"/>
</svg>
