<svg width="314" height="320" viewBox="0 0 314 320" fill="none" xmlns="http://www.w3.org/2000/svg">
<path fill-rule="evenodd" clip-rule="evenodd" d="M7.86328 25.9658H306.195V310.583H7.86328V25.9658Z" fill="#FFF2E8"/>
<path d="M168.046 9.32617H27.9773C16.5487 9.32617 7.31445 18.8347 7.31445 30.5376V50.1947H307.109V30.5376C307.109 18.8347 297.874 9.32617 286.446 9.32617H185.234H168.046Z" fill="#87796F"/>
<path d="M280.686 9.32571C294.766 9.32571 306.194 22.9486 306.194 39.7714V280.137C306.194 296.96 294.766 310.583 280.686 310.583H33.28C19.2 310.583 7.77143 296.96 7.77143 280.137V39.8629C7.77143 23.04 19.2 9.41714 33.28 9.41714H280.686M280.686 0H33.28C14.9029 0 0 17.8286 0 39.8629V280.229C0 302.171 14.9029 320.091 33.28 320.091H280.686C299.063 320.091 313.966 302.263 313.966 280.229V39.8629C314.057 17.8286 299.063 0 280.686 0Z" fill="#35414D"/>
<path d="M40.1365 38.4C44.984 38.4 48.9137 34.4703 48.9137 29.6228C48.9137 24.7754 44.984 20.8457 40.1365 20.8457C35.289 20.8457 31.3594 24.7754 31.3594 29.6228C31.3594 34.4703 35.289 38.4 40.1365 38.4Z" fill="#F16C7A"/>
<path d="M40.1366 40.3201C34.1937 40.3201 29.4395 35.4744 29.4395 29.6229C29.4395 23.7715 34.2852 18.9258 40.1366 18.9258C45.988 18.9258 50.8337 23.7715 50.8337 29.6229C50.8337 35.4744 46.0795 40.3201 40.1366 40.3201ZM40.1366 22.7658C36.388 22.7658 33.2795 25.7829 33.2795 29.6229C33.2795 33.4629 36.2966 36.4801 40.1366 36.4801C43.9766 36.4801 46.9937 33.4629 46.9937 29.6229C46.9937 25.8744 43.9766 22.7658 40.1366 22.7658Z" fill="#3A312A"/>
<path d="M76.8904 38.4C81.7379 38.4 85.6676 34.4703 85.6676 29.6228C85.6676 24.7754 81.7379 20.8457 76.8904 20.8457C72.0429 20.8457 68.1133 24.7754 68.1133 29.6228C68.1133 34.4703 72.0429 38.4 76.8904 38.4Z" fill="#D7E057"/>
<path d="M76.8905 40.3201C70.9476 40.3201 66.1934 35.4744 66.1934 29.6229C66.1934 23.7715 71.0391 18.9258 76.8905 18.9258C82.8334 18.9258 87.5876 23.7715 87.5876 29.6229C87.5876 35.4744 82.7419 40.3201 76.8905 40.3201ZM76.8905 22.7658C73.1419 22.7658 70.0334 25.7829 70.0334 29.6229C70.0334 33.4629 73.0505 36.4801 76.8905 36.4801C80.7305 36.4801 83.7476 33.4629 83.7476 29.6229C83.6562 25.8744 80.6391 22.7658 76.8905 22.7658Z" fill="#3A312A"/>
<path d="M113.554 38.4C118.402 38.4 122.332 34.4703 122.332 29.6228C122.332 24.7754 118.402 20.8457 113.554 20.8457C108.707 20.8457 104.777 24.7754 104.777 29.6228C104.777 34.4703 108.707 38.4 113.554 38.4Z" fill="#8AC6DD"/>
<path d="M113.555 40.3201C107.612 40.3201 102.857 35.4744 102.857 29.6229C102.857 23.7715 107.703 18.9258 113.555 18.9258C119.497 18.9258 124.252 23.7715 124.252 29.6229C124.252 35.4744 119.497 40.3201 113.555 40.3201ZM113.555 22.7658C109.806 22.7658 106.697 25.7829 106.697 29.6229C106.697 33.4629 109.715 36.4801 113.555 36.4801C117.395 36.4801 120.412 33.4629 120.412 29.6229C120.412 25.8744 117.303 22.7658 113.555 22.7658Z" fill="#3A312A"/>
<path d="M275.657 36.9368H159.543C156.069 36.9368 153.234 34.1025 153.234 30.6282V28.5254C153.234 25.0511 156.069 22.2168 159.543 22.2168H275.657C279.132 22.2168 281.966 25.0511 281.966 28.5254V30.6282C281.874 34.1025 279.04 36.9368 275.657 36.9368Z" fill="#FDF6EC" stroke="#35414D" stroke-width="4.4357" stroke-miterlimit="10"/>
<path d="M165.03 207.909C165.03 211.84 161.83 215.04 157.899 215.04C153.968 215.04 150.768 211.84 150.768 207.909C150.768 203.977 153.968 200.777 157.899 200.777C161.83 200.777 165.03 203.977 165.03 207.909Z" fill="#07BEEF"/>
<path d="M203.431 174.903C203.431 178.834 200.231 182.034 196.299 182.034C192.368 182.034 189.168 178.834 189.168 174.903C189.168 170.971 192.368 167.771 196.299 167.771C200.231 167.771 203.431 170.971 203.431 174.903Z" fill="#FC635B"/>
<path d="M241.829 198.217C241.829 202.149 238.629 205.349 234.698 205.349C230.766 205.349 227.566 202.149 227.566 198.217C227.566 194.286 230.766 191.086 234.698 191.086C238.629 191.086 241.829 194.286 241.829 198.217Z" fill="#7EC927"/>
<path d="M280.138 161.189C280.138 165.12 276.938 168.32 273.006 168.32C269.075 168.32 265.875 165.12 265.875 161.189C265.875 157.258 269.075 154.058 273.006 154.058C277.029 154.149 280.138 157.349 280.138 161.189Z" fill="#FFA733"/>
<path d="M165.031 207.634V207.908C165.031 211.84 161.831 215.04 157.991 215.04C154.151 215.04 150.859 211.84 150.859 207.908C150.859 205.805 151.865 203.885 153.328 202.605C153.511 206.445 156.619 209.463 160.459 209.463C162.197 209.371 163.842 208.731 165.031 207.634Z" fill="#00B6E0"/>
<path d="M203.429 174.629V174.903C203.429 178.835 200.229 182.035 196.389 182.035C192.458 182.035 189.258 178.835 189.258 174.903C189.258 172.709 190.264 170.88 191.726 169.509C191.909 173.349 195.018 176.366 198.858 176.366C200.595 176.366 202.241 175.726 203.429 174.629Z" fill="#F34234"/>
<path d="M241.83 197.943V198.217C241.83 202.148 238.63 205.348 234.79 205.348C230.858 205.348 227.658 202.148 227.658 198.217C227.658 196.023 228.664 194.194 230.127 192.914C230.31 196.663 233.418 199.68 237.258 199.68C238.904 199.68 240.55 199.04 241.83 197.943Z" fill="#60A917"/>
<path d="M280.138 160.914V161.189C280.138 165.12 277.03 168.32 273.098 168.32C269.167 168.32 265.967 165.12 265.967 161.189C265.967 159.086 266.973 157.166 268.435 155.886C268.618 159.726 271.727 162.651 275.567 162.651C277.304 162.743 278.95 162.011 280.138 160.914Z" fill="#FF9801"/>
<path d="M157.99 217.417C163.201 217.417 167.407 213.211 167.407 207.909C167.407 206.354 166.95 204.891 166.31 203.611L190.356 182.126C192.001 183.497 194.104 184.32 196.39 184.32C199.133 184.32 201.601 183.131 203.338 181.211L225.464 196.206C225.281 196.846 225.19 197.577 225.19 198.217C225.19 203.429 229.396 207.726 234.698 207.726C239.91 207.726 244.116 203.52 244.116 198.217C244.116 196.754 243.75 195.474 243.201 194.286L267.978 169.234C269.441 170.149 271.087 170.697 272.916 170.697C278.127 170.697 282.333 166.491 282.333 161.189C282.333 155.977 278.127 151.771 272.916 151.771C267.704 151.771 263.407 155.977 263.407 161.189C263.407 162.834 263.864 164.48 264.687 165.851L240.093 190.629C238.538 189.44 236.618 188.8 234.516 188.8C231.681 188.8 229.213 190.08 227.476 192L205.35 177.097C205.533 176.366 205.624 175.634 205.624 174.903C205.624 169.691 201.418 165.486 196.207 165.486C190.996 165.486 186.698 169.691 186.698 174.903C186.698 176.091 186.973 177.28 187.338 178.377L163.018 200.137C161.556 199.131 159.727 198.491 157.716 198.491C152.504 198.491 148.207 202.697 148.207 207.909C148.481 213.12 152.778 217.417 157.99 217.417ZM273.098 156.526C275.75 156.526 277.853 158.629 277.853 161.28C277.853 163.931 275.75 166.034 273.098 166.034C270.447 166.034 268.344 163.931 268.344 161.28C268.344 158.629 270.447 156.526 273.098 156.526ZM234.698 193.463C237.35 193.463 239.453 195.566 239.453 198.217C239.453 200.869 237.35 202.971 234.698 202.971C232.047 202.971 229.944 200.869 229.944 198.217C229.944 195.657 232.047 193.463 234.698 193.463ZM196.39 170.149C199.041 170.149 201.144 172.251 201.144 174.903C201.144 177.554 199.041 179.657 196.39 179.657C193.738 179.657 191.636 177.554 191.636 174.903C191.544 172.251 193.738 170.149 196.39 170.149ZM157.99 203.154C160.641 203.154 162.744 205.257 162.744 207.909C162.744 210.56 160.641 212.663 157.99 212.663C155.338 212.663 153.236 210.56 153.236 207.909C153.236 205.257 155.338 203.154 157.99 203.154Z" fill="#35414D"/>
<path d="M152.779 258.103H177.374V293.303H152.779V258.103Z" fill="#EF6D7A"/>
<path d="M177.374 295.223H152.779C151.682 295.223 150.859 294.308 150.859 293.303V258.103C150.859 257.005 151.774 256.183 152.779 256.183H177.374C178.471 256.183 179.294 257.097 179.294 258.103V293.303C179.294 294.4 178.471 295.223 177.374 295.223ZM154.699 291.383H175.454V260.023H154.699V291.383Z" fill="#3A312A"/>
<path d="M186.975 222.354H211.569V293.303H186.975V222.354Z" fill="#D6DF58"/>
<path d="M211.567 295.223H186.973C185.876 295.223 185.053 294.309 185.053 293.303V222.355C185.053 221.257 185.967 220.435 186.973 220.435H211.567C212.664 220.435 213.487 221.349 213.487 222.355V293.303C213.487 294.4 212.664 295.223 211.567 295.223ZM188.893 291.383H209.647V224.275H188.893V291.383Z" fill="#3A312A"/>
<path d="M221.168 240.365H245.762V293.302H221.168V240.365Z" fill="#8AC5DC"/>
<path d="M245.762 295.222H221.168C220.071 295.222 219.248 294.308 219.248 293.302V240.365C219.248 239.268 220.162 238.445 221.168 238.445H245.762C246.859 238.445 247.682 239.36 247.682 240.365V293.302C247.682 294.4 246.859 295.222 245.762 295.222ZM223.088 291.382H243.842V242.377H223.088V291.382Z" fill="#3A312A"/>
<path d="M255.361 208.457H279.956V293.303H255.361V208.457Z" fill="#87796F"/>
<path d="M279.956 295.223H255.361C254.264 295.223 253.441 294.309 253.441 293.303V208.457C253.441 207.36 254.356 206.537 255.361 206.537H279.956C281.053 206.537 281.876 207.451 281.876 208.457V293.303C281.876 294.4 281.053 295.223 279.956 295.223ZM257.281 291.383H278.036V210.469H257.281V291.383Z" fill="#3A312A"/>
<path fill-rule="evenodd" clip-rule="evenodd" d="M109.807 185.966C109.807 197.852 104.229 209.554 93.898 217.052L71.498 185.966H77.9895H109.807Z" fill="#FFB54C"/>
<path d="M71.4984 225.737C93.413 225.737 111.178 207.972 111.178 186.057C111.178 164.142 93.413 146.377 71.4984 146.377C49.5837 146.377 31.8184 164.142 31.8184 186.057C31.8184 207.972 49.5837 225.737 71.4984 225.737Z" fill="#35414D"/>
<path d="M71.4078 224.365C92.6155 224.365 109.808 207.173 109.808 185.965C109.808 164.758 92.6155 147.565 71.4078 147.565C50.2001 147.565 33.0078 164.758 33.0078 185.965C33.0078 207.173 50.2001 224.365 71.4078 224.365Z" fill="#35414D"/>
<path fill-rule="evenodd" clip-rule="evenodd" d="M71.4062 147.657C92.6177 147.657 109.806 164.846 109.806 186.057H71.4062V147.657Z" fill="#35414D"/>
<path fill-rule="evenodd" clip-rule="evenodd" d="M94.6296 211.657L78.8125 189.714H105.875C104.87 198.4 100.755 206.08 94.6296 211.657Z" fill="#FFA733"/>
<path fill-rule="evenodd" clip-rule="evenodd" d="M36.8477 185.965C36.8477 205.074 52.3905 220.525 71.4077 220.525C77.6248 220.525 83.3848 218.879 88.4134 216.045L68.2991 188.159C67.8419 187.519 67.5677 186.788 67.5677 185.965V151.588C50.3791 153.508 36.8477 168.136 36.8477 185.965Z" fill="#2FB1D4"/>
<path fill-rule="evenodd" clip-rule="evenodd" d="M105.783 182.216H75.2461V151.588C91.2461 153.325 104.046 166.125 105.783 182.216Z" fill="#FF5A5A"/>
<path d="M63.1786 295.68H101.304C103.316 295.68 104.87 294.034 104.87 292.114C104.87 290.103 103.224 288.457 101.304 288.457H63.1786C61.1672 288.457 59.5215 290.103 59.5215 292.114C59.5215 294.034 61.1672 295.68 63.1786 295.68Z" fill="#35414D"/>
<path d="M63.1786 260.571H101.304C103.316 260.571 104.87 258.926 104.87 256.914C104.87 254.903 103.224 253.349 101.304 253.349H63.1786C61.1672 253.349 59.5215 254.994 59.5215 256.914C59.5215 259.017 61.1672 260.571 63.1786 260.571Z" fill="#35414D"/>
<path d="M63.1786 278.126H101.304C103.316 278.126 104.87 276.48 104.87 274.469C104.87 272.457 103.224 270.812 101.304 270.903H63.1786C61.1672 270.903 59.5215 272.549 59.5215 274.469C59.5215 276.48 61.1672 278.126 63.1786 278.126Z" fill="#35414D"/>
<path d="M41.6923 260.571H47.3609C49.3723 260.571 50.9266 258.926 50.9266 256.914C50.9266 254.903 49.2809 253.349 47.3609 253.349H41.6923C39.6809 253.349 38.0352 254.994 38.0352 256.914C38.1266 259.017 39.7723 260.571 41.6923 260.571Z" fill="#FFA733"/>
<path d="M41.6923 278.126H47.3609C49.3723 278.126 50.9266 276.48 50.9266 274.469C50.9266 272.457 49.2809 270.812 47.3609 270.903H41.6923C39.6809 270.903 38.0352 272.549 38.0352 274.469C38.1266 276.48 39.7723 278.126 41.6923 278.126Z" fill="#FF5A5A"/>
<path d="M41.6923 295.68H47.3609C49.3723 295.68 50.9266 294.034 50.9266 292.114C50.9266 290.103 49.2809 288.457 47.3609 288.457H41.6923C39.6809 288.457 38.0352 290.103 38.0352 292.114C38.1266 294.034 39.7723 295.68 41.6923 295.68Z" fill="#35414D"/>
<path d="M283.339 103.954H30.9043V114.56H283.339V103.954Z" fill="#FF6666"/>
<path d="M283.339 118.217H30.9043V128.823H283.339V118.217Z" fill="#35414D"/>
<path d="M237.259 71.9539H279.865C282.059 71.9539 283.888 70.1253 283.888 67.9311C283.888 65.7368 282.059 63.9082 279.865 63.9082H237.259C235.065 63.9082 233.236 65.7368 233.236 67.9311C233.236 70.1253 235.065 71.9539 237.259 71.9539Z" fill="#35414D"/>
<path d="M237.259 91.5193H279.865C282.059 91.5193 283.888 89.6908 283.888 87.4965C283.888 85.3022 282.059 83.4736 279.865 83.4736H237.259C235.065 83.4736 233.236 85.3022 233.236 87.4965C233.236 89.6908 235.065 91.5193 237.259 91.5193Z" fill="#35414D"/>
<path d="M213.304 71.9539H219.613C221.807 71.9539 223.636 70.1253 223.636 67.9311C223.636 65.7368 221.807 63.9082 219.613 63.9082H213.304C211.11 63.9082 209.281 65.7368 209.281 67.9311C209.281 70.1253 211.11 71.9539 213.304 71.9539Z" fill="#FFA733"/>
<path d="M213.304 91.5193H219.613C221.807 91.5193 223.636 89.6908 223.636 87.4965C223.636 85.3022 221.807 83.4736 219.613 83.4736H213.304C211.11 83.4736 209.281 85.3022 209.281 87.4965C209.281 89.6908 211.11 91.5193 213.304 91.5193Z" fill="#FF5A5A"/>
<path d="M82.0126 71.6797C81.5554 70.5826 81.0983 69.5769 80.4583 68.6626C80.0012 67.9312 79.4526 67.2912 78.8126 66.7426C78.3554 66.2855 77.8983 65.9197 77.4412 65.554C76.984 65.1883 76.4355 64.914 75.9783 64.6397C75.4297 64.3655 74.8812 64.0912 74.3326 63.9083C74.0583 63.8169 73.8755 63.7255 73.6012 63.7255C73.3269 63.634 73.0526 63.634 72.7783 63.5426C72.504 63.4512 72.1383 63.4512 71.864 63.4512C71.7726 63.4512 71.7726 63.4512 71.6812 63.4512C71.5897 63.4512 71.5897 63.4512 71.4983 63.4512C71.3154 63.4512 71.1326 63.4512 70.9497 63.4512C70.9497 63.4512 70.8583 63.4512 70.7669 63.4512C69.944 63.4512 66.4697 63.5426 63.9097 65.8283C63.7269 66.0112 63.4526 66.2855 63.2697 66.4683C62.5383 67.1997 61.7154 68.114 60.984 69.0283C58.7897 71.6797 57.2354 74.2397 57.2354 74.2397C55.5897 71.7712 53.5783 68.9369 51.1097 66.3769C50.8355 66.1026 50.5612 65.8283 50.2869 65.6455C49.8297 65.2797 49.2812 64.914 48.7326 64.6397C48.6412 64.6397 48.5497 64.5483 48.5497 64.5483C48.0012 64.274 47.4526 64.0912 46.904 63.9083C46.4469 63.7255 45.8983 63.634 45.4412 63.5426C45.0755 63.4512 44.7097 63.4512 44.344 63.4512C44.1612 63.4512 43.8869 63.4512 43.704 63.4512C43.6126 63.4512 43.6126 63.4512 43.6126 63.4512C43.2469 63.4512 42.7897 63.4512 42.424 63.5426C42.0583 63.634 41.6012 63.634 41.2355 63.7255C40.8697 63.8169 40.504 63.9083 40.1383 64.0912C39.7726 64.274 39.4069 64.3655 39.0412 64.5483C38.6755 64.7312 38.3097 64.914 38.0355 65.1883C37.6697 65.3712 37.3955 65.6455 37.0297 65.9197C36.7555 66.194 36.3897 66.4683 36.1155 66.7426C35.9326 66.834 35.8412 67.0169 35.6583 67.1997C35.4755 67.3826 35.2926 67.5655 35.1097 67.8397C34.8355 67.6569 34.744 67.7483 34.744 67.8397C34.744 67.9312 34.6526 67.9312 34.6526 68.0226C34.6526 68.0226 34.6526 68.114 34.5612 68.114L34.4697 68.2055C34.3783 68.3883 34.2869 68.4797 34.104 68.6626C33.9212 68.9369 33.6469 69.3026 33.464 69.5769C33.2812 69.9426 33.0069 70.3083 32.824 70.7655C32.7326 70.9483 32.6412 71.2226 32.5497 71.4055C32.5497 71.4055 32.5497 71.4055 32.5497 71.4969C32.4583 71.6797 32.3669 71.8626 32.2755 72.1369V72.2283C32.184 72.4112 32.0926 72.594 32.0926 72.8683V72.9597C32.0012 73.234 31.9097 73.5083 31.8183 73.7826C31.7269 73.9655 31.7269 74.1483 31.6355 74.4226C31.6355 74.6055 31.544 74.7883 31.544 74.9712V75.0626C30.5383 79.8169 30.8126 86.3997 36.7555 91.8855C36.9383 92.0683 37.2126 92.2512 37.4869 92.434C37.6697 92.6169 37.944 92.7083 38.2183 92.8912C38.4926 92.9826 38.6755 93.1655 38.9497 93.2569C39.224 93.3483 39.4069 93.4397 39.6812 93.5312C39.864 93.6226 40.1383 93.714 40.3212 93.8055C40.504 93.8969 40.7783 93.8969 40.9612 93.9883C41.6012 94.1712 42.1497 94.2626 42.7897 94.2626C43.4297 94.2626 44.0697 94.2626 44.7097 94.1712C45.2583 94.0797 45.8069 93.9883 46.264 93.8969C46.4469 93.8055 46.6297 93.8055 46.904 93.714C47.0869 93.6226 47.3612 93.6226 47.544 93.5312C47.7269 93.4397 48.0012 93.3483 48.184 93.2569C48.3669 93.1655 48.6412 93.074 48.824 92.9826C49.0069 92.8912 49.2812 92.7083 49.464 92.6169C49.6469 92.5255 49.9212 92.3426 50.104 92.1597C50.2869 91.9769 50.4697 91.8855 50.744 91.7026C50.8355 91.6112 50.9269 91.5197 50.9269 91.5197C51.0183 91.4283 51.1097 91.3369 51.1097 91.3369C52.5726 90.0569 55.3154 86.2169 57.2354 83.3826C57.2354 83.474 57.8755 84.2969 57.8755 84.3883C58.1497 84.754 58.424 85.1197 58.6069 85.4855C58.9726 86.1255 59.4297 86.674 59.8869 87.2226C60.8012 88.4112 61.7155 89.5997 62.7212 90.6969C63.4526 91.4283 64.184 92.0683 65.0069 92.6169C67.5669 94.2626 70.7669 94.7197 73.6926 93.8969C74.2412 93.714 74.8812 93.5312 75.4297 93.2569C77.2583 92.434 78.904 90.9712 80.0926 89.234C82.9269 85.2112 83.9326 80.0912 83.0183 75.2455C82.8355 73.874 82.4697 72.7769 82.0126 71.6797ZM48.2755 86.4912C48.184 86.5826 48.0012 86.7655 47.8183 86.8569C47.7269 86.9483 47.6355 87.0397 47.4526 87.1312C46.4469 87.7712 45.2583 88.1369 44.1612 88.2283C43.3383 88.3197 42.424 88.2283 41.5097 88.0455C41.4183 88.0455 41.3269 87.954 41.144 87.954C41.0526 87.954 40.9612 87.8626 40.8697 87.8626C40.6869 87.7712 40.5955 87.7712 40.4126 87.6797C40.2297 87.5883 40.1383 87.4969 39.9555 87.4055C39.7726 87.314 39.6812 87.2226 39.5897 87.1312C39.4983 87.0397 39.3155 86.9483 39.224 86.8569C39.1326 86.7655 38.9497 86.674 38.8583 86.4912C38.7669 86.3997 38.584 86.2169 38.4926 86.1255C38.4012 86.034 38.2183 85.8512 38.1269 85.7597C38.0355 85.6683 37.944 85.4855 37.7612 85.394C37.6697 85.2112 37.5783 85.1197 37.4869 84.9369C37.3955 84.754 37.304 84.6626 37.2126 84.4797C37.1212 84.2969 37.0297 84.2055 36.9383 84.0226C36.8469 83.8397 36.7555 83.6569 36.664 83.5655C36.5726 83.3826 36.4812 83.1997 36.4812 83.0169C36.3897 82.834 36.3897 82.6512 36.2983 82.4683C36.2069 82.2855 36.2069 82.1026 36.1155 81.9197C36.024 81.7369 36.024 81.554 35.9326 81.3712C35.9326 81.1883 35.8412 81.0055 35.8412 80.8226C35.8412 80.6397 35.7497 80.4569 35.7497 80.274C35.7497 80.0912 35.7497 79.9083 35.6583 79.634C35.6583 79.4512 35.6583 79.2683 35.6583 78.994C35.6583 78.9026 35.6583 78.8112 35.6583 78.8112C35.6583 72.7769 41.144 66.4683 47.1783 70.3083C48.0926 70.9483 49.0069 71.7712 49.6469 72.6855C51.2012 74.6969 52.664 76.7083 54.0354 78.8112C53.304 79.9083 52.664 80.914 51.9326 81.9197C51.2926 82.7426 50.6526 83.6569 50.0126 84.4797C49.6469 85.1197 49.0069 85.8512 48.2755 86.4912ZM74.424 87.2226C73.3269 87.8626 72.2297 88.0455 71.4983 88.1369C70.7669 88.2283 70.0355 88.2283 69.304 88.0455C68.5726 87.8626 67.8412 87.5883 67.2012 87.2226C66.5612 86.8569 65.9212 86.2169 65.3726 85.6683C64.9155 85.2112 64.5497 84.754 64.184 84.2055C63.7269 83.6569 63.2697 83.1083 62.904 82.4683C62.4469 81.8283 61.8983 81.0969 61.4412 80.4569C61.4412 80.4569 61.2583 80.274 61.2583 80.0912C60.984 79.634 60.6183 79.1769 60.344 78.6283C62.0812 75.9769 63.8183 73.3255 65.9212 71.1312C66.744 70.3083 67.6583 69.7597 68.664 69.394C70.2183 68.9369 71.9555 68.8455 73.5097 69.5769C74.6069 70.034 75.5212 70.7655 76.2526 71.6797C77.8983 73.5997 78.7212 76.1597 78.7212 78.7197C78.7212 82.3769 76.984 85.6683 74.424 87.2226Z" fill="#35414D"/>
<path d="M81.372 69.7598C80.9148 68.6627 80.4577 67.657 79.8177 66.7427C79.3605 66.0112 78.812 65.3712 78.172 64.8227C77.7148 64.3655 77.2577 63.9998 76.8005 63.6341C76.3434 63.2684 75.7948 62.9941 75.3377 62.7198C74.7891 62.4455 74.2405 62.1713 73.692 61.9884C73.4177 61.897 73.2348 61.8055 72.9605 61.8055C72.6863 61.7141 72.412 61.7141 72.1377 61.6227C71.8634 61.5312 71.4977 61.5313 71.2234 61.5313C71.132 61.5313 71.132 61.5313 71.0405 61.5313C70.9491 61.5313 70.9491 61.5313 70.8577 61.5313C70.6748 61.5313 70.492 61.5313 70.3091 61.5313C70.3091 61.5313 70.2177 61.5313 70.1263 61.5313C69.3034 61.5313 65.8291 61.6227 63.2691 63.9084C63.0863 64.0912 62.812 64.3655 62.6291 64.5484C61.8977 65.2798 61.0748 66.1941 60.3434 67.1084C58.1491 69.7598 56.5948 72.3198 56.5948 72.3198C54.9491 69.8512 52.9377 67.017 50.4691 64.457C50.1948 64.1827 49.9205 63.9084 49.6463 63.7255C49.1891 63.3598 48.6405 62.9941 48.092 62.7198C48.0005 62.7198 47.9091 62.6284 47.9091 62.6284C47.3605 62.3541 46.812 62.1713 46.2634 61.9884C45.8063 61.8055 45.2577 61.7141 44.8005 61.6227C44.4348 61.5312 44.0691 61.5313 43.7034 61.5313C43.5205 61.5313 43.2463 61.5313 43.0634 61.5313C42.972 61.5313 42.972 61.5313 42.972 61.5313C42.6063 61.5313 42.1491 61.5312 41.7834 61.6227C41.4177 61.7141 40.9605 61.7141 40.5948 61.8055C40.2291 61.897 39.8634 61.9884 39.4977 62.1712C39.132 62.3541 38.7663 62.4455 38.4005 62.6284C38.0348 62.8112 37.6691 62.9941 37.3948 63.2684C37.0291 63.4512 36.7548 63.7255 36.3891 63.9998C36.1148 64.2741 35.7491 64.5484 35.4748 64.8227C35.292 64.9141 35.2005 65.097 35.0177 65.2798C34.8348 65.4627 34.652 65.6455 34.4691 65.9198C34.3777 66.0112 34.2863 66.1027 34.2863 66.1941C34.2863 66.2855 34.1948 66.2855 34.1948 66.377C34.1948 66.377 34.1948 66.4684 34.1034 66.4684L34.012 66.5598C33.9205 66.7427 33.8291 66.8341 33.6463 67.017C33.4634 67.2913 33.1891 67.657 33.0063 67.9313C32.8234 68.297 32.5491 68.6627 32.3663 69.1198C32.2748 69.3027 32.1834 69.577 32.092 69.7598C32.092 69.7598 32.092 69.7598 32.092 69.8512C32.0005 70.0341 31.9091 70.217 31.8177 70.4912V70.5827C31.7263 70.7655 31.6348 70.9484 31.6348 71.2227V71.3141C31.5434 71.5884 31.452 71.8627 31.3605 72.137C31.0863 71.8627 31.0863 72.0455 30.9948 72.2284C30.9948 72.4112 30.9034 72.5941 30.9034 72.777V72.8684C29.8977 77.6227 30.172 84.2055 36.1148 89.6912C36.2977 89.8741 36.572 90.057 36.8463 90.2398C37.0291 90.4227 37.3034 90.5141 37.5777 90.697C37.852 90.7884 38.0348 90.9712 38.3091 91.0627C38.5834 91.1541 38.7663 91.2455 39.0405 91.337C39.2234 91.4284 39.4977 91.5198 39.6805 91.6112C39.8634 91.7027 40.1377 91.7027 40.3205 91.7941C40.9605 91.977 41.5091 92.0684 42.1491 92.0684C42.7891 92.0684 43.4291 92.0684 44.0691 91.977C44.6177 91.8855 45.1663 91.7941 45.6234 91.7027C45.8063 91.6113 45.9891 91.6112 46.2634 91.5198C46.4463 91.4284 46.7205 91.4284 46.9034 91.337C47.0863 91.2455 47.3605 91.1541 47.5434 91.0627C47.7263 90.9712 48.0005 90.8798 48.1834 90.7884C48.3663 90.697 48.6405 90.5141 48.8234 90.4227C49.0063 90.3312 49.2805 90.1484 49.4634 89.9655C49.6463 89.7827 49.8291 89.6912 50.1034 89.5084C50.1948 89.417 50.2863 89.3255 50.2863 89.3255C50.3777 89.2341 50.4691 89.1427 50.4691 89.1427C51.932 87.8627 54.6748 84.0227 56.5948 81.1884C56.5948 81.2798 57.2348 82.1027 57.2348 82.1941C57.5091 82.5598 57.7834 82.9255 57.9663 83.2912C58.332 83.9312 58.7891 84.4798 59.2463 85.0284C60.1605 86.217 61.0748 87.4055 62.0805 88.5027C62.812 89.2341 63.5434 89.8741 64.3663 90.4227C66.9263 92.0684 70.1263 92.5255 73.052 91.7027C73.6005 91.5198 74.2405 91.337 74.7891 91.0627C76.6177 90.2398 78.2634 88.777 79.452 87.0398C82.2863 83.017 83.292 77.897 82.3777 73.0512C82.1034 71.9541 81.7377 70.857 81.372 69.7598ZM47.6348 84.5712C47.5434 84.6627 47.3605 84.8455 47.1777 84.937C47.0863 85.0284 46.9948 85.1198 46.812 85.2112C45.8063 85.8512 44.6177 86.217 43.5205 86.3084C42.6977 86.3998 41.7834 86.3084 40.8691 86.1255C40.7777 86.1255 40.6863 86.0341 40.5034 86.0341C40.412 86.0341 40.3205 85.9427 40.2291 85.9427C40.0463 85.8512 39.9548 85.8513 39.772 85.7598C39.5891 85.6684 39.4977 85.577 39.3148 85.4855C39.132 85.3941 39.0405 85.3027 38.9491 85.2112C38.8577 85.1198 38.6748 85.0284 38.5834 84.937C38.492 84.8455 38.3091 84.7541 38.2177 84.5712C38.1263 84.4798 37.9434 84.297 37.852 84.2055C37.7605 84.1141 37.5777 83.9312 37.4863 83.8398C37.3948 83.7484 37.3034 83.5655 37.1205 83.4741C37.0291 83.2913 36.9377 83.1998 36.8463 83.017C36.7548 82.8341 36.6634 82.7427 36.572 82.5598C36.4805 82.377 36.3891 82.2855 36.2977 82.1027C36.2063 81.9198 36.1148 81.737 36.0234 81.6455C35.932 81.4627 35.8405 81.2798 35.8405 81.097C35.7491 80.9141 35.7491 80.7312 35.6577 80.5484C35.5663 80.3655 35.5663 80.1827 35.4748 79.9998C35.3834 79.817 35.3834 79.6341 35.292 79.4512C35.292 79.2684 35.2005 79.0855 35.2005 78.9027C35.2005 78.7198 35.1091 78.537 35.1091 78.3541C35.1091 78.1712 35.1091 77.9884 35.0177 77.7141C35.0177 77.5312 35.0177 77.3484 35.0177 77.0741C35.0177 76.9827 35.0177 76.8912 35.0177 76.8912C35.0177 70.857 40.5034 64.5484 46.5377 68.3884C47.452 69.0284 48.3663 69.8512 49.0063 70.7655C50.5605 72.777 52.0234 74.7884 53.3948 76.8912C52.6634 77.9884 52.0234 78.9941 51.292 79.9998C50.652 80.8227 50.012 81.737 49.372 82.5598C48.9148 83.1998 48.2748 83.9312 47.6348 84.5712ZM73.7834 85.3027C72.6863 85.9427 71.5891 86.1255 70.8577 86.217C70.1263 86.3084 69.3948 86.3084 68.6634 86.1255C67.932 85.9427 67.2005 85.6684 66.5605 85.3027C65.9205 84.937 65.2805 84.297 64.732 83.7484C64.2748 83.2912 63.9091 82.8341 63.5434 82.2855C63.0863 81.737 62.6291 81.1884 62.2634 80.5484C61.8063 79.9084 61.2577 79.177 60.8005 78.537C60.7091 78.3541 60.6177 78.2627 60.5263 78.0798C60.252 77.6227 59.8863 77.1655 59.612 76.617C61.3491 73.9655 63.0863 71.3141 65.1891 69.1198C66.012 68.297 66.9263 67.7484 67.932 67.3827C69.4863 66.9255 71.2234 66.8341 72.7777 67.5655C73.8748 68.0227 74.7891 68.7541 75.5205 69.6684C77.1663 71.5884 77.9891 74.1484 77.9891 76.7084C77.9891 80.457 76.252 83.7484 73.7834 85.3027Z" fill="#FF6666"/>
<path d="M157.349 76.5254H149.761V68.9368C149.761 67.8397 148.847 66.834 147.658 66.834C146.469 66.834 145.555 67.7483 145.555 68.9368V76.5254H138.058C136.961 76.5254 135.955 77.4397 135.955 78.6283C135.955 79.8168 136.869 80.7311 138.058 80.7311H145.647V88.3197C145.647 89.4168 146.561 90.4226 147.749 90.4226C148.938 90.4226 149.852 89.5083 149.852 88.3197V80.7311H157.441C158.538 80.7311 159.544 79.8168 159.544 78.6283C159.544 77.4397 158.538 76.5254 157.349 76.5254Z" fill="#35414D"/>
</svg>
