<?xml version="1.0" encoding="utf-8"?>
<!-- Generator: Adobe Illustrator 25.0.0, SVG Export Plug-In . SVG Version: 6.00 Build 0)  -->
<svg version="1.1" id="Layer_1" xmlns="http://www.w3.org/2000/svg" xmlns:xlink="http://www.w3.org/1999/xlink" x="0px" y="0px"
	 viewBox="0 0 79.7 100" style="enable-background:new 0 0 79.7 100;" xml:space="preserve">
<style type="text/css">
	.st0{fill:#69858C;}
	.st1{clip-path:url(#SVGID_2_);}
	.st2{fill:#DB1B1B;}
	.st3{fill:#FFFFFF;}
	.st4{fill:#DBDBDB;}
	.st5{fill:#E54141;}
	.st6{fill:#3E436D;}
</style>
<g>
	<g>
		<path class="st0" d="M39.8,100c-0.3,0-0.5-0.1-0.7-0.3L23.6,81.2c-3.4-4.1-7.1-8-10.7-11.9L10.7,67c-2.3-2.4-4.2-5.1-5.8-8
			l-0.1-0.1C1.7,53.1,0,46.5,0,39.8c0-10.9,4.6-21.5,12.6-29C20,3.8,29.6,0,39.8,0c0.8,0,1.7,0,2.6,0.1c20.1,1.2,36.4,18,37.3,38.1
			c0.3,7.3-1.4,14.4-4.8,20.7c0,0,0,0,0,0l0,0l0,0.1c-1.5,2.8-3.5,5.5-5.7,7.9l-2.2,2.4c-3.6,3.8-7.3,7.8-10.7,11.9L40.5,99.7
			C40.3,99.9,40.1,100,39.8,100z M39.8,8.5c-17.3,0-31.3,14-31.3,31.3c0,17.3,14,31.3,31.3,31.3c17.3,0,31.3-14,31.3-31.3
			C71.1,22.6,57.1,8.5,39.8,8.5z"/>
	</g>
	<g>
		<defs>
			<circle id="SVGID_1_" cx="39.4" cy="39.8" r="35"/>
		</defs>
		<clipPath id="SVGID_2_">
			<use xlink:href="#SVGID_1_"  style="overflow:visible;"/>
		</clipPath>
		<g class="st1">
			<path class="st2" d="M60.4,6.5h-42c0.7-0.5,1.5-0.9,2.3-1.3c5.5-3,11.7-4.6,18-4.7h1.4c0.8,0,1.5,0,2.2,0.1
				C48.8,1,55,3.1,60.4,6.5L60.4,6.5z"/>
			<path class="st3" d="M67.8,12.6H11c0,0,0.1-0.1,0.1-0.1c0.7-0.7,1.5-1.4,2.2-2.1c0.7-0.6,1.5-1.3,2.3-1.9
				c0.9-0.7,1.8-1.3,2.8-1.9h42C63.1,8.2,65.6,10.3,67.8,12.6z"/>
			<path class="st2" d="M72.6,18.6H6.3c0.6-0.9,1.2-1.7,1.8-2.6c0.9-1.2,1.9-2.4,3-3.5h56.8C69.6,14.4,71.2,16.5,72.6,18.6
				L72.6,18.6z"/>
			<path class="st3" d="M75.8,24.7H3.1c0.2-0.5,0.4-0.9,0.6-1.4c0.7-1.4,1.4-2.9,2.3-4.2c0.1-0.2,0.2-0.3,0.3-0.5h66.3
				C73.8,20.6,74.9,22.6,75.8,24.7z"/>
			<path class="st2" d="M77.7,30.7H1.1c0.2-0.9,0.5-1.9,0.8-2.8c0.4-1.1,0.8-2.2,1.2-3.3h72.6C76.6,26.7,77.2,28.7,77.7,30.7z"/>
			<path class="st3" d="M78.7,36.8H0.2c0.2-2,0.5-4.1,0.9-6.1h76.6C78.2,32.7,78.5,34.8,78.7,36.8L78.7,36.8z"/>
			<path class="st2" d="M78.8,39.8c0,1,0,2-0.1,3H0.2c-0.1-1-0.1-2-0.1-3v-2c0,0.1,0,0.1,0,0.1c0-0.1,0-0.2,0-0.3
				c0-0.3,0-0.6,0.1-0.9h78.5C78.7,37.8,78.8,38.8,78.8,39.8z"/>
			<path class="st3" d="M78.7,42.8c-0.2,2-0.5,4.1-0.9,6.1H1.1c-0.5-2-0.8-4-0.9-6.1H78.7z"/>
			<path class="st2" d="M77.7,48.9c-0.5,2.1-1.1,4.1-2,6.1H3.1c-0.8-2-1.5-4-2-6.1H77.7z"/>
			<path class="st3" d="M75.8,54.9c-0.9,2.1-1.9,4.1-3.2,6.1H6.3C5,59.1,4,57.1,3.1,54.9H75.8z"/>
			<path class="st2" d="M72.6,61c-1.4,2.2-3,4.2-4.8,6.1H11c-1.8-1.9-3.4-3.9-4.8-6.1H72.6z"/>
			<path class="st3" d="M67.8,67.1c-2.2,2.3-4.7,4.3-7.4,6.1h-42c-2.7-1.7-5.2-3.7-7.4-6.1H67.8z"/>
			<path class="st2" d="M60.4,73.1c-6.1,3.8-13,5.9-20.2,6.1h-1.5c-7.2-0.1-14.2-2.2-20.2-6.1L60.4,73.1z"/>
			<path class="st2" d="M44.2,0.8C43.6,0.8,43,0.9,42.4,1c-4.1,0.7-8,2-11.7,4c-0.1,0.1-0.3,0.1-0.4,0.2c-0.8,0.4-1.5,0.9-2.3,1.3
				h-9.5c0.7-0.5,1.5-0.9,2.3-1.3c5.5-3,11.7-4.6,18-4.7h1.4c0.8,0,1.5,0,2.2,0.1C43,0.6,43.6,0.7,44.2,0.8z"/>
			<path class="st3" d="M28,6.5c-0.8,0.5-1.5,1-2.3,1.6c-0.2,0.1-0.3,0.3-0.5,0.4c-0.7,0.5-1.3,1-1.9,1.6c-0.1,0.1-0.2,0.2-0.3,0.3
				c-0.7,0.6-1.4,1.3-2,1.9l0.2,0.2c0,0,0.1,0.1,0.1,0.1H11c0,0,0.1-0.1,0.1-0.1c0.7-0.7,1.5-1.4,2.2-2.1c0.7-0.6,1.5-1.3,2.3-1.9
				c0.9-0.7,1.8-1.3,2.8-1.9L28,6.5z"/>
			<path class="st2" d="M20.5,12.6c-1,1-1.9,2.1-2.7,3.2l-0.3,0.3c-0.1,0.2-0.3,0.4-0.4,0.6l-0.3,0.9c0,0.1-0.1,0.2-0.3,0.2h-0.2
				c-0.2,0.3-0.4,0.6-0.6,0.9H6.3c0.6-0.9,1.2-1.7,1.8-2.6c0.9-1.2,1.9-2.4,3-3.5H20.5z"/>
			<path class="st3" d="M15.8,18.6l-0.2,0.3l-0.1,0.2c-0.8,1.4-1.6,2.8-2.3,4.2c-0.2,0.5-0.4,0.9-0.6,1.4H3.1
				c0.2-0.5,0.4-0.9,0.6-1.4c0.7-1.4,1.4-2.9,2.3-4.2c0.1-0.2,0.2-0.3,0.3-0.5L15.8,18.6z"/>
			<path class="st2" d="M12.6,24.7c-0.4,1.1-0.8,2.2-1.2,3.3c-0.3,0.9-0.5,1.8-0.8,2.8H1.1c0.2-0.9,0.5-1.9,0.8-2.8
				c0.4-1.1,0.8-2.2,1.2-3.3L12.6,24.7z"/>
			<path class="st3" d="M10.7,31.4l-0.2,0.2c-0.4,1.7-0.6,3.5-0.8,5.3H0.2c0.2-2,0.5-4.1,0.9-6.1h9.5c0,0,0,0.1,0,0.1
				c0.1,0.1,0.2,0.2,0.2,0.4C10.8,31.3,10.7,31.3,10.7,31.4z"/>
			<path class="st2" d="M9.6,39.8c0,1,0,2,0.1,3H0.2c-0.1-1-0.1-2-0.1-3v-2c0,0.1,0,0.1,0,0.1c0-0.1,0-0.2,0-0.3
				c0-0.3,0-0.6,0.1-0.9h9.5c0,0.3,0,0.6-0.1,0.9c0,0.1,0,0.2,0,0.3c0,0,0,0,0-0.1c0,0,0,0,0,0c0,0,0,0,0,0L9.6,39.8z"/>
			<path class="st4" d="M19.1,6.5c0,0.1,0,0.1,0,0.2l0.5,1.7c0,0.1,0,0.3-0.2,0.3c-0.1,0-0.2,0-0.2,0l-1.4-1c-0.1-0.1-0.2-0.1-0.3,0
				l-1.4,1c-0.1,0.1-0.3,0.1-0.4-0.1c0,0,0-0.1-0.1-0.1c0.9-0.7,1.8-1.3,2.8-1.9c0.7-0.5,1.5-0.9,2.3-1.3c0,0.1-0.1,0.1-0.1,0.2
				l-1.4,1C19.2,6.4,19.1,6.5,19.1,6.5z"/>
			<path class="st4" d="M17.8,15.7l-0.3,0.3c-0.1,0.2-0.3,0.4-0.4,0.6l0.3-0.8C17.4,15.7,17.6,15.7,17.8,15.7
				C17.8,15.7,17.8,15.7,17.8,15.7z"/>
			<path class="st4" d="M10.7,18.2l-0.6,0.4l-0.9,0.6c-0.1,0.1-0.1,0.2-0.1,0.3l0.5,1.7c0,0.1,0,0.3-0.2,0.3c-0.1,0-0.2,0-0.2,0
				l-1.4-1c-0.1-0.1-0.2-0.1-0.3,0l-1.4,1c-0.1,0.1-0.3,0.1-0.4-0.1c0-0.1-0.1-0.2,0-0.2l0.5-1.7c0-0.1,0-0.2-0.1-0.3L6,19.1
				c0.1-0.2,0.2-0.3,0.3-0.5c0.6-0.9,1.2-1.7,1.8-2.6l0.5,1.4c0,0.1,0.1,0.2,0.3,0.2h1.7c0.2,0,0.3,0.1,0.3,0.3
				C10.8,18.1,10.8,18.2,10.7,18.2z"/>
			<path class="st4" d="M10.7,31.4l-0.2,0.2l-1.2,0.9c-0.1,0.1-0.1,0.2-0.1,0.3l0.5,1.7c0,0.1,0,0.3-0.2,0.3c-0.1,0-0.2,0-0.2,0
				l-1.4-1c-0.1-0.1-0.2-0.1-0.3,0l-1.4,1c-0.1,0.1-0.3,0.1-0.4-0.1c0-0.1-0.1-0.2,0-0.2l0.5-1.7c0-0.1,0-0.2-0.1-0.3l-1.4-1
				c-0.1-0.1-0.2-0.3-0.1-0.4c0.1-0.1,0.1-0.1,0.2-0.1h1.7c0.1,0,0.2,0,0.2-0.1c0,0,0-0.1,0-0.1L7.5,29c0-0.1,0.2-0.2,0.4-0.2
				C7.9,28.8,8,28.9,8,29l0.5,1.7c0,0,0,0.1,0,0.1c0.1,0.1,0.1,0.1,0.2,0.1h1.7c0,0,0.1,0,0.1,0c0.1,0.1,0.2,0.2,0.2,0.4
				C10.8,31.3,10.7,31.3,10.7,31.4L10.7,31.4z"/>
			<path class="st4" d="M14.2,12.6c0,0.1,0,0.1,0,0.2l0.5,1.7c0,0.1,0,0.3-0.2,0.3c-0.1,0-0.2,0-0.2,0l-1.4-1
				c-0.1-0.1-0.2-0.1-0.3,0l-1.4,1c-0.1,0.1-0.3,0.1-0.4-0.1c0-0.1-0.1-0.2,0-0.2l0.5-1.7c0-0.1,0-0.1,0-0.2c0,0,0-0.1-0.1-0.1
				c0.7-0.7,1.5-1.4,2.2-2.1l0.1,0.4c0,0.1,0.1,0.2,0.3,0.2h1.7c0.2,0,0.3,0.1,0.3,0.3c0,0.1,0,0.2-0.1,0.2l-1.4,1
				C14.2,12.5,14.2,12.5,14.2,12.6z"/>
			<path class="st4" d="M6.3,24.7c0,0.1,0,0.1-0.1,0.2l-1.4,1c-0.1,0.1-0.1,0.2-0.1,0.3l0.5,1.7c0,0.1,0,0.3-0.2,0.3
				c-0.1,0-0.2,0-0.2,0l-1.4-1c-0.1-0.1-0.2-0.1-0.3,0L1.9,28c0.4-1.1,0.8-2.2,1.2-3.3c0.2-0.5,0.4-0.9,0.6-1.4L4,24.2
				c0,0.1,0.1,0.2,0.3,0.2H6C6.1,24.4,6.3,24.5,6.3,24.7C6.3,24.7,6.3,24.7,6.3,24.7z"/>
			<path class="st4" d="M4.7,39.1c-0.1,0.1-0.1,0.2-0.1,0.3l0.5,1.7c0,0.1,0,0.3-0.2,0.3c-0.1,0-0.2,0-0.2,0l-1.4-1
				c-0.1-0.1-0.2-0.1-0.3,0l-1.4,1c-0.1,0.1-0.3,0.1-0.4-0.1c-0.1-0.1-0.1-0.2,0-0.2l0.5-1.7c0-0.1,0-0.2-0.1-0.3l-1.4-1
				c0,0-0.1,0-0.1-0.1c0-0.1,0-0.2,0-0.3c0.1-0.1,0.1-0.1,0.2-0.1h1.7c0.1,0,0.2-0.1,0.3-0.2l0.2-0.6l0.3-1.1c0-0.1,0.2-0.2,0.4-0.2
				c0.1,0,0.2,0.1,0.2,0.2l0.3,1.1L4,37.4c0,0.1,0.1,0.2,0.3,0.2H6c0.2,0,0.3,0.1,0.3,0.3c0,0.1,0,0.2-0.1,0.2L4.7,39.1z"/>
			<path class="st3" d="M9.6,37.9c0-0.1,0-0.1,0.1-0.2c0,0.1,0,0.2,0,0.3C9.6,38,9.6,38,9.6,37.9C9.6,37.9,9.6,37.9,9.6,37.9
				C9.6,37.9,9.6,37.9,9.6,37.9z"/>
			<circle class="st5" cx="74.1" cy="39.8" r="2.5"/>
			<circle class="st5" cx="68.8" cy="39.8" r="1.8"/>
			<g>
				<path class="st6" d="M43.8,0.8V43H1.6c-0.1-1-0.1-2-0.1-3v-2c0,0.1,0,0.1,0,0.1c0-0.1,0-0.2,0-0.3c0-0.3,0-0.6,0.1-0.9
					c0.2-2,0.5-4.1,0.9-6.1C2.8,30,3,29,3.3,28.1c0.4-1.1,0.8-2.2,1.2-3.3c0.2-0.5,0.4-0.9,0.6-1.4c0.7-1.4,1.4-2.9,2.3-4.2
					c0.1-0.2,0.2-0.3,0.3-0.5c0.6-0.9,1.2-1.7,1.8-2.6c0.9-1.2,1.9-2.4,3-3.5c0,0,0.1-0.1,0.1-0.1c0.7-0.7,1.5-1.4,2.2-2.1
					c0.7-0.6,1.5-1.3,2.3-1.9C18,8,18.9,7.3,19.9,6.7c0.7-0.5,1.5-0.9,2.3-1.3c5.5-3,11.7-4.6,18-4.7h1.4C42.3,0.7,43,0.7,43.8,0.8
					L43.8,0.8z"/>
				<g>
					<path class="st3" d="M13,22l0.5,1.7c0,0.1,0.1,0.2,0.3,0.2h1.7c0.2,0,0.3,0.1,0.3,0.3c0,0.1,0,0.2-0.1,0.2l-1.4,1
						c-0.1,0.1-0.1,0.2-0.1,0.3l0.5,1.7c0,0.1,0,0.3-0.2,0.3c-0.1,0-0.2,0-0.2,0l-1.4-1c-0.1-0.1-0.2-0.1-0.3,0l-1.4,1
						c-0.1,0.1-0.3,0.1-0.4-0.1c-0.1-0.1-0.1-0.2,0-0.2l0.5-1.7c0-0.1,0-0.2-0.1-0.3l-1.4-1c-0.1-0.1-0.2-0.3-0.1-0.4
						c0.1-0.1,0.1-0.1,0.2-0.1h1.7c0.1,0,0.2-0.1,0.3-0.2l0.5-1.7c0-0.1,0.2-0.2,0.3-0.2C12.9,21.9,12.9,21.9,13,22z"/>
					<path class="st3" d="M17.9,15.4l0.5,1.7c0,0.1,0.1,0.2,0.3,0.2h1.7c0.2,0,0.3,0.1,0.3,0.3c0,0.1,0,0.2-0.1,0.2l-1.4,1
						c-0.1,0.1-0.1,0.2-0.1,0.3l0.5,1.7c0,0.1,0,0.3-0.2,0.3c-0.1,0-0.2,0-0.2,0l-1.4-1c-0.1-0.1-0.2-0.1-0.3,0l-1.4,1
						c-0.1,0.1-0.3,0.1-0.4-0.1c0-0.1-0.1-0.2,0-0.2l0.5-1.7c0-0.1,0-0.2-0.1-0.3l-1.4-1c-0.1-0.1-0.2-0.3-0.1-0.4
						c0.1-0.1,0.1-0.1,0.2-0.1h1.7c0.1,0,0.2-0.1,0.3-0.2l0.5-1.7c0-0.1,0.2-0.2,0.4-0.2C17.8,15.2,17.9,15.3,17.9,15.4z"/>
					<path class="st3" d="M22.9,8.6l0.5,1.7c0,0.1,0.1,0.2,0.3,0.2h1.7c0.2,0,0.3,0.1,0.3,0.3c0,0.1,0,0.2-0.1,0.2l-1.4,1
						c-0.1,0.1-0.1,0.2-0.1,0.3l0.5,1.7c0,0.1,0,0.3-0.2,0.3c-0.1,0-0.2,0-0.2,0l-1.4-1c-0.1-0.1-0.2-0.1-0.3,0l-1.4,1
						c-0.1,0.1-0.3,0.1-0.4-0.1c0-0.1-0.1-0.2,0-0.2l0.5-1.7c0-0.1,0-0.2-0.1-0.3l-1.4-1c-0.1-0.1-0.2-0.3-0.1-0.4
						c0.1-0.1,0.1-0.1,0.2-0.1h1.7c0.1,0,0.2-0.1,0.3-0.2l0.5-1.7c0-0.1,0.2-0.2,0.3-0.2C22.8,8.4,22.9,8.5,22.9,8.6L22.9,8.6z"/>
					<path class="st3" d="M27.9,2.5l0.5,1.7c0,0.1,0.1,0.2,0.3,0.2h1.7c0.2,0,0.3,0.1,0.3,0.3c0,0.1,0,0.2-0.1,0.2l-1.4,1
						c-0.1,0.1-0.1,0.2-0.1,0.3l0.5,1.7c0,0.1,0,0.3-0.2,0.3c-0.1,0-0.2,0-0.2,0l-1.4-1c-0.1-0.1-0.2-0.1-0.3,0l-1.4,1
						c-0.1,0.1-0.3,0.1-0.4-0.1c-0.1-0.1-0.1-0.2,0-0.2l0.5-1.7c0-0.1,0-0.2-0.1-0.3l-1.4-1c-0.1-0.1-0.2-0.3-0.1-0.4
						c0.1-0.1,0.1-0.1,0.2-0.1h1.7c0.1,0,0.2-0.1,0.3-0.2l0.5-1.7c0-0.1,0.2-0.2,0.3-0.2C27.8,2.3,27.8,2.4,27.9,2.5L27.9,2.5z"/>
					<g>
						<path class="st3" d="M13.2,22.8c-0.2,0.5-0.4,0.9-0.6,1.4c-0.4,1.1-0.8,2.2-1.2,3.3l-0.3,0.2c-0.1,0.1-0.3,0.1-0.4-0.1
							c-0.1-0.1-0.1-0.2,0-0.2l0.5-1.7c0-0.1,0-0.2-0.1-0.3l-1.4-1c-0.1,0-0.1-0.1-0.1-0.2c0-0.2,0.1-0.3,0.3-0.3c0,0,0,0,0,0h1.7
							c0.1,0,0.2-0.1,0.3-0.2l0.5-1.7c0-0.1,0.2-0.2,0.4-0.2c0.1,0,0.2,0.1,0.2,0.2L13.2,22.8z"/>
						<path class="st3" d="M14.8,17.2h1.5c-0.2,0.3-0.4,0.6-0.6,0.9l-0.2,0.3l-0.4-0.3l-0.5-0.4c-0.1-0.1-0.2-0.3-0.1-0.4
							C14.7,17.3,14.8,17.2,14.8,17.2z"/>
						<path class="st3" d="M23.2,9.6c-0.1,0.1-0.2,0.2-0.3,0.3c-0.7,0.6-1.4,1.3-2,1.9l-1.2-0.9c-0.1-0.1-0.2-0.3-0.1-0.4
							c0.1-0.1,0.1-0.1,0.2-0.1h1.7c0.1,0,0.2-0.1,0.3-0.2l0.5-1.7c0-0.1,0.2-0.2,0.4-0.2c0.1,0,0.2,0.1,0.2,0.2L23.2,9.6z"/>
						<path class="st3" d="M30.6,4.5c-0.1,0.1-0.3,0.1-0.4,0.2C29.5,5.1,28.7,5.6,28,6c-0.8,0.5-1.5,1-2.3,1.6l0.5-1.4
							c0-0.1,0-0.1,0-0.2c0-0.1-0.1-0.1-0.1-0.2l-1.4-1c-0.1-0.1-0.2-0.3-0.1-0.4c0.1-0.1,0.1-0.1,0.2-0.1h1.7
							c0.1,0,0.2-0.1,0.3-0.2l0.5-1.7c0-0.1,0.2-0.2,0.4-0.2c0.1,0,0.2,0.1,0.2,0.2l0.5,1.7c0,0.1,0.2,0.2,0.3,0.2h1.7
							C30.5,4.3,30.6,4.4,30.6,4.5L30.6,4.5z"/>
						<g>
							<path class="st3" d="M37.8,2.5l0.5,1.7c0,0.1,0.1,0.2,0.3,0.2h1.7c0.2,0,0.3,0.1,0.3,0.3c0,0.1,0,0.2-0.1,0.2l-1.4,1
								C39,5.9,39,6.1,39,6.2l0.5,1.7c0,0.1,0,0.3-0.2,0.3c-0.1,0-0.2,0-0.2,0l-1.4-1c-0.1-0.1-0.2-0.1-0.3,0l-1.4,1
								c-0.1,0.1-0.3,0.1-0.4-0.1c0-0.1-0.1-0.2,0-0.2l0.5-1.7c0-0.1,0-0.2-0.1-0.3l-1.4-1c-0.1-0.1-0.2-0.3-0.1-0.4
								c0.1-0.1,0.1-0.1,0.2-0.1h1.7c0.1,0,0.2-0.1,0.3-0.2l0.5-1.7c0-0.1,0.2-0.2,0.3-0.2C37.7,2.3,37.8,2.4,37.8,2.5L37.8,2.5z"/>
							<path class="st3" d="M19.1,6c0,0.1,0,0.1,0,0.2l0.5,1.7c0,0.1,0,0.3-0.2,0.3c-0.1,0-0.2,0-0.2,0l-1.4-1
								c-0.1-0.1-0.2-0.1-0.3,0l-1.4,1c-0.1,0.1-0.3,0.1-0.4-0.1c0,0,0-0.1-0.1-0.1c0.9-0.7,1.8-1.3,2.8-1.9
								c0.7-0.5,1.5-0.9,2.3-1.3c0,0.1-0.1,0.1-0.1,0.2l-1.4,1C19.2,5.9,19.1,6,19.1,6z"/>
							<path class="st3" d="M37.8,15.4l0.5,1.7c0,0.1,0.1,0.2,0.3,0.2h1.7c0.2,0,0.3,0.1,0.3,0.3c0,0.1,0,0.2-0.1,0.2l-1.4,1
								C39,18.8,39,19,39,19.1l0.5,1.7c0,0.1,0,0.3-0.2,0.3c-0.1,0-0.2,0-0.2,0l-1.4-1c-0.1-0.1-0.2-0.1-0.3,0L36,21
								c-0.1,0.1-0.3,0.1-0.4-0.1c0-0.1-0.1-0.2,0-0.2l0.5-1.7c0-0.1,0-0.2-0.1-0.3l-1.4-1c-0.1-0.1-0.2-0.3-0.1-0.4
								c0.1-0.1,0.1-0.1,0.2-0.1h1.7c0.1,0,0.2-0.1,0.3-0.2l0.5-1.7c0-0.1,0.2-0.2,0.4-0.2C37.7,15.2,37.8,15.3,37.8,15.4L37.8,15.4
								z"/>
							<path class="st3" d="M27.9,15.4l0.5,1.7c0,0.1,0.1,0.2,0.3,0.2h1.7c0.2,0,0.3,0.1,0.3,0.3c0,0.1,0,0.2-0.1,0.2l-1.4,1
								c-0.1,0.1-0.1,0.2-0.1,0.3l0.5,1.7c0,0.1,0,0.3-0.2,0.3c-0.1,0-0.2,0-0.2,0l-1.4-1c-0.1-0.1-0.2-0.1-0.3,0L26,21
								c-0.1,0.1-0.3,0.1-0.4-0.1c-0.1-0.1-0.1-0.2,0-0.2l0.5-1.7c0-0.1,0-0.2-0.1-0.3l-1.4-1c-0.1-0.1-0.2-0.3-0.1-0.4
								c0.1-0.1,0.1-0.1,0.2-0.1h1.7c0.1,0,0.2-0.1,0.3-0.2l0.5-1.7c0-0.1,0.2-0.2,0.3-0.2C27.8,15.2,27.8,15.3,27.9,15.4L27.9,15.4
								z"/>
							<path class="st3" d="M10.7,17.7l-0.6,0.4l-0.9,0.6c-0.1,0.1-0.1,0.2-0.1,0.3l0.5,1.7c0,0.1,0,0.3-0.2,0.3c-0.1,0-0.2,0-0.2,0
								l-1.4-1c-0.1-0.1-0.2-0.1-0.3,0l-1.4,1C6,21.1,5.8,21.1,5.8,21c0-0.1-0.1-0.2,0-0.2l0.5-1.7c0-0.1,0-0.2-0.1-0.3L6,18.6
								c0.1-0.2,0.2-0.3,0.3-0.5c0.6-0.9,1.2-1.7,1.8-2.6L8.5,17c0,0.1,0.1,0.2,0.3,0.2h1.7c0.2,0,0.3,0.1,0.3,0.3
								C10.8,17.6,10.8,17.7,10.7,17.7z"/>
							<path class="st3" d="M37.8,28.5l0.5,1.7c0,0.1,0.1,0.2,0.3,0.2h1.7c0.2,0,0.3,0.1,0.3,0.3c0,0.1,0,0.2-0.1,0.2l-1.4,1
								C39,32,39,32.1,39,32.2l0.5,1.7c0,0.1,0,0.3-0.2,0.3c-0.1,0-0.2,0-0.2,0l-1.4-1c-0.1-0.1-0.2-0.1-0.3,0l-1.4,1
								c-0.1,0.1-0.3,0.1-0.4-0.1c0-0.1-0.1-0.2,0-0.2l0.5-1.7c0-0.1,0-0.2-0.1-0.3l-1.4-1c-0.1-0.1-0.2-0.3-0.1-0.4
								c0.1-0.1,0.1-0.1,0.2-0.1h1.7c0.1,0,0.2-0.1,0.3-0.2l0.5-1.7c0.1-0.1,0.2-0.2,0.4-0.2C37.7,28.4,37.8,28.4,37.8,28.5
								L37.8,28.5z"/>
							<path class="st3" d="M27.9,28.5l0.5,1.7c0,0.1,0.1,0.2,0.3,0.2h1.7c0.2,0,0.3,0.1,0.3,0.3c0,0.1,0,0.2-0.1,0.2l-1.4,1
								c-0.1,0.1-0.1,0.2-0.1,0.3l0.5,1.7c0,0.1,0,0.3-0.2,0.3c-0.1,0-0.2,0-0.2,0l-1.4-1c-0.1-0.1-0.2-0.1-0.3,0l-1.4,1
								c-0.1,0.1-0.3,0.1-0.4-0.1c-0.1-0.1-0.1-0.2,0-0.2l0.5-1.7c0-0.1,0-0.2-0.1-0.3l-1.4-1c-0.1-0.1-0.2-0.3-0.1-0.4
								c0.1-0.1,0.1-0.1,0.2-0.1h1.7c0.1,0,0.2-0.1,0.3-0.2l0.5-1.7c0-0.1,0.2-0.2,0.3-0.2C27.8,28.3,27.8,28.4,27.9,28.5L27.9,28.5
								z"/>
							<path class="st3" d="M17.9,28.5l0.5,1.7c0,0.1,0.1,0.2,0.3,0.2h1.7c0.2,0,0.3,0.1,0.3,0.3c0,0.1,0,0.2-0.1,0.2l-1.4,1
								c-0.1,0.1-0.1,0.2-0.1,0.3l0.5,1.7c0,0.1,0,0.3-0.2,0.3c-0.1,0-0.2,0-0.2,0l-1.4-1c-0.1-0.1-0.2-0.1-0.3,0l-1.4,1
								c-0.1,0.1-0.3,0.1-0.4-0.1c0-0.1-0.1-0.2,0-0.2l0.5-1.7c0-0.1,0-0.2-0.1-0.3l-1.4-1c-0.1-0.1-0.2-0.3-0.1-0.4
								c0.1-0.1,0.1-0.1,0.2-0.1h1.7c0.1,0,0.2-0.1,0.3-0.2l0.5-1.7c0-0.1,0.2-0.2,0.3-0.2C17.8,28.3,17.9,28.4,17.9,28.5z"/>
							<path class="st3" d="M8,28.5l0.5,1.7c0,0.1,0.1,0.2,0.3,0.2h1.7c0.2,0,0.3,0.1,0.3,0.3c0,0.1,0,0.2-0.1,0.2l-1.4,1
								c-0.1,0.1-0.1,0.2-0.1,0.3l0.5,1.7c0,0.1,0,0.3-0.2,0.3c-0.1,0-0.2,0-0.2,0l-1.4-1c-0.1-0.1-0.2-0.1-0.3,0l-1.4,1
								c-0.1,0.1-0.3,0.1-0.4-0.1c0-0.1-0.1-0.2,0-0.2l0.5-1.7c0-0.1,0-0.2-0.1-0.3l-1.4-1c-0.1-0.1-0.2-0.3-0.1-0.4
								c0.1-0.1,0.1-0.1,0.2-0.1h1.7c0.1,0,0.2-0.1,0.3-0.2l0.5-1.7c0-0.1,0.2-0.2,0.4-0.2C7.9,28.4,8,28.4,8,28.5z"/>
							<path class="st3" d="M32.8,8.6l0.5,1.7c0,0.1,0.1,0.2,0.3,0.2h1.7c0.2,0,0.3,0.1,0.3,0.3c0,0.1,0,0.2-0.1,0.2l-1.4,1
								C34,12,34,12.1,34,12.3l0.5,1.7c0,0.1,0,0.3-0.2,0.3c-0.1,0-0.2,0-0.2,0l-1.4-1c-0.1-0.1-0.2-0.1-0.3,0l-1.4,1
								c-0.1,0.1-0.3,0.1-0.4-0.1c0-0.1-0.1-0.2,0-0.2l0.5-1.7c0-0.1,0-0.2-0.1-0.3l-1.4-1c-0.1-0.1-0.2-0.3-0.1-0.4
								c0.1-0.1,0.1-0.1,0.2-0.1h1.7c0.1,0,0.2-0.1,0.3-0.2l0.5-1.7c0-0.1,0.2-0.2,0.3-0.2C32.7,8.4,32.8,8.5,32.8,8.6L32.8,8.6z"/>
							<path class="st3" d="M14.2,12.1c0,0.1,0,0.1,0,0.2l0.5,1.7c0,0.1,0,0.3-0.2,0.3c-0.1,0-0.2,0-0.2,0l-1.4-1
								c-0.1-0.1-0.2-0.1-0.3,0l-1.4,1c-0.1,0.1-0.3,0.1-0.4-0.1c0-0.1-0.1-0.2,0-0.2l0.5-1.7c0-0.1,0-0.1,0-0.2c0,0,0-0.1-0.1-0.1
								c0.7-0.7,1.5-1.4,2.2-2.1l0.1,0.4c0,0.1,0.1,0.2,0.3,0.2h1.7c0.2,0,0.3,0.1,0.3,0.3c0,0.1,0,0.2-0.1,0.2l-1.4,1
								C14.2,12,14.2,12,14.2,12.1z"/>
							<path class="st3" d="M6.3,24.2c0,0.1,0,0.1-0.1,0.2l-1.4,1c-0.1,0.1-0.1,0.2-0.1,0.3l0.5,1.7c0,0.1,0,0.3-0.2,0.3
								c-0.1,0-0.2,0-0.2,0l-1.4-1c-0.1-0.1-0.2-0.1-0.3,0l-1.1,0.8c0.4-1.1,0.8-2.2,1.2-3.3c0.2-0.5,0.4-0.9,0.6-1.4L4,23.7
								c0,0.1,0.1,0.2,0.3,0.2H6C6.1,23.9,6.3,24,6.3,24.2C6.3,24.2,6.3,24.2,6.3,24.2z"/>
							<path class="st3" d="M32.8,22l0.5,1.7c0,0.1,0.1,0.2,0.3,0.2h1.7c0.2,0,0.3,0.1,0.3,0.3c0,0.1,0,0.2-0.1,0.2l-1.4,1
								C34,25.5,34,25.6,34,25.7l0.5,1.7c0,0.1,0,0.3-0.2,0.3c-0.1,0-0.2,0-0.2,0l-1.4-1c-0.1-0.1-0.2-0.1-0.3,0l-1.4,1
								c-0.1,0.1-0.3,0.1-0.4-0.1c0-0.1-0.1-0.2,0-0.2l0.5-1.7c0-0.1,0-0.2-0.1-0.3l-1.4-1c-0.1-0.1-0.2-0.3-0.1-0.4
								c0.1-0.1,0.1-0.1,0.2-0.1h1.7c0.1,0,0.2-0.1,0.3-0.2l0.5-1.7c0.1-0.1,0.2-0.2,0.4-0.2C32.7,21.9,32.8,22,32.8,22L32.8,22z"/>
							<path class="st3" d="M22.9,22l0.5,1.7c0,0.1,0.1,0.2,0.3,0.2h1.7c0.2,0,0.3,0.1,0.3,0.3c0,0.1,0,0.2-0.1,0.2l-1.4,1
								c-0.1,0.1-0.1,0.2-0.1,0.3l0.5,1.7c0,0.1,0,0.3-0.2,0.3c-0.1,0-0.2,0-0.2,0l-1.4-1c-0.1-0.1-0.2-0.1-0.3,0l-1.4,1
								c-0.1,0.1-0.3,0.1-0.4-0.1c0-0.1-0.1-0.2,0-0.2l0.5-1.7c0-0.1,0-0.2-0.1-0.3l-1.4-1c-0.1-0.1-0.2-0.3-0.1-0.4
								c0.1-0.1,0.1-0.1,0.2-0.1h1.7c0.1,0,0.2-0.1,0.3-0.2l0.5-1.7c0.1-0.1,0.2-0.2,0.4-0.2C22.8,21.9,22.9,22,22.9,22L22.9,22z"/>
							<path class="st3" d="M4.7,38.6c-0.1,0.1-0.1,0.2-0.1,0.3l0.5,1.7c0,0.1,0,0.3-0.2,0.3c-0.1,0-0.2,0-0.2,0l-1.4-1
								c-0.1-0.1-0.2-0.1-0.3,0l-1.4,1C1.5,41,1.3,41,1.2,40.8c-0.1-0.1-0.1-0.2,0-0.2l0.5-1.7c0-0.1,0-0.2-0.1-0.3l-1.4-1
								c0,0-0.1,0-0.1-0.1c0-0.1,0-0.2,0-0.3c0.1-0.1,0.1-0.1,0.2-0.1h1.7c0.1,0,0.2-0.1,0.3-0.2l0.2-0.6l0.3-1.1
								c0-0.1,0.2-0.2,0.4-0.2c0.1,0,0.2,0.1,0.2,0.2l0.3,1.1L4,36.9c0,0.1,0.1,0.2,0.3,0.2H6c0.2,0,0.3,0.1,0.3,0.3
								c0,0.1,0,0.2-0.1,0.2L4.7,38.6z"/>
							<path class="st3" d="M32.8,35.2l0.5,1.7c0,0.1,0.1,0.2,0.3,0.2h1.7c0.2,0,0.3,0.1,0.3,0.3c0,0.1,0,0.2-0.1,0.2l-1.4,1
								C34,38.7,34,38.8,34,38.9l0.5,1.7c0,0.1,0,0.3-0.2,0.3c-0.1,0-0.2,0-0.2,0l-1.4-1c-0.1-0.1-0.2-0.1-0.3,0l-1.4,1
								c-0.1,0.1-0.3,0.1-0.4-0.1c0-0.1-0.1-0.2,0-0.2l0.5-1.7c0-0.1,0-0.2-0.1-0.3l-1.4-1c-0.1-0.1-0.2-0.3-0.1-0.4
								c0.1-0.1,0.1-0.1,0.2-0.1h1.7c0.1,0,0.2-0.1,0.3-0.2l0.5-1.7c0.1-0.1,0.2-0.2,0.4-0.2C32.7,35.1,32.8,35.2,32.8,35.2
								L32.8,35.2z"/>
							<path class="st3" d="M22.9,35.2l0.5,1.7c0,0.1,0.1,0.2,0.3,0.2h1.7c0.2,0,0.3,0.1,0.3,0.3c0,0.1,0,0.2-0.1,0.2l-1.4,1
								c-0.1,0.1-0.1,0.2-0.1,0.3l0.5,1.7c0,0.1,0,0.3-0.2,0.3c-0.1,0-0.2,0-0.2,0l-1.4-1c-0.1-0.1-0.2-0.1-0.3,0l-1.4,1
								c-0.1,0.1-0.3,0.1-0.4-0.1c0-0.1-0.1-0.2,0-0.2l0.5-1.7c0-0.1,0-0.2-0.1-0.3l-1.4-1c-0.1-0.1-0.2-0.3-0.1-0.4
								c0.1-0.1,0.1-0.1,0.2-0.1h1.7c0.1,0,0.2-0.1,0.3-0.2l0.5-1.7c0-0.1,0.2-0.2,0.3-0.2C22.8,35.1,22.9,35.1,22.9,35.2L22.9,35.2
								z"/>
							<path class="st3" d="M13,35.2l0.5,1.7c0,0.1,0.1,0.2,0.3,0.2h1.7c0.2,0,0.3,0.1,0.3,0.3c0,0.1,0,0.2-0.1,0.2l-1.4,1
								c-0.1,0.1-0.1,0.2-0.1,0.3l0.5,1.7c0,0.1,0,0.3-0.2,0.3c-0.1,0-0.2,0-0.2,0l-1.4-1c-0.1-0.1-0.2-0.1-0.3,0l-1.4,1
								c-0.1,0.1-0.3,0.1-0.4-0.1c-0.1-0.1-0.1-0.2,0-0.2l0.5-1.7c0-0.1,0-0.2-0.1-0.3l-1.4-1c-0.1-0.1-0.2-0.3-0.1-0.4
								c0.1-0.1,0.1-0.1,0.2-0.1h1.7c0.1,0,0.2-0.1,0.3-0.2l0.5-1.7c0-0.1,0.2-0.2,0.3-0.2C12.9,35.1,12.9,35.1,13,35.2L13,35.2z"/>
						</g>
					</g>
				</g>
			</g>
		</g>
	</g>
</g>
</svg>
