<?xml version="1.0" encoding="utf-8"?>
<!-- Generator: Adobe Illustrator 25.0.0, SVG Export Plug-In . SVG Version: 6.00 Build 0)  -->
<svg version="1.1" id="Layer_1" xmlns="http://www.w3.org/2000/svg" xmlns:xlink="http://www.w3.org/1999/xlink" x="0px" y="0px"
	 viewBox="0 0 79.7 100" style="enable-background:new 0 0 79.7 100;" xml:space="preserve">
<style type="text/css">
	.st0{fill:#69858C;}
	.st1{clip-path:url(#SVGID_2_);}
	.st2{fill:#3E436D;}
	.st3{fill:#FFFFFF;}
	.st4{fill:#DB1B1B;}
	.st5{fill:#C11717;}
	.st6{fill:#E23737;}
</style>
<g>
	<g>
		<path class="st0" d="M39.8,100c-0.3,0-0.5-0.1-0.7-0.3L23.6,81.2c-3.4-4.1-7.1-8-10.7-11.9L10.7,67c-2.3-2.4-4.2-5.1-5.8-8
			l-0.1-0.1C1.7,53.1,0,46.5,0,39.8c0-10.9,4.6-21.5,12.6-29C20,3.8,29.6,0,39.8,0c0.8,0,1.7,0,2.6,0.1c20.1,1.2,36.4,18,37.3,38.1
			c0.3,7.3-1.4,14.4-4.8,20.7c0,0,0,0,0,0l0,0l0,0.1c-1.5,2.8-3.5,5.5-5.7,7.9l-2.2,2.4c-3.6,3.8-7.3,7.8-10.7,11.9L40.5,99.7
			C40.3,99.9,40.1,100,39.8,100z M39.8,8.5c-17.3,0-31.3,14-31.3,31.3c0,17.3,14,31.3,31.3,31.3c17.3,0,31.3-14,31.3-31.3
			C71.1,22.6,57.1,8.5,39.8,8.5z"/>
	</g>
	<g>
		<defs>
			<circle id="SVGID_1_" cx="39.8" cy="39.8" r="35"/>
		</defs>
		<clipPath id="SVGID_2_">
			<use xlink:href="#SVGID_1_"  style="overflow:visible;"/>
		</clipPath>
		<g id="Icons_9_" class="st1">
			<path class="st2" d="M76.5,39.8c0,1.9-0.1,3.8-0.4,5.7c-0.9,5.6-3,10.9-6.3,15.5c-0.2,0.3-0.5,0.7-0.7,1
				c-0.7,0.9-1.5,1.8-2.3,2.7c-5.2,5.6-11.9,9.4-19.4,11c-1,0.2-2,0.4-3,0.5c-3,0.4-6.1,0.4-9.1,0c-1-0.1-2-0.3-3-0.5
				c-5.9-1.2-11.3-3.9-15.9-7.7c-0.5-0.4-0.9-0.8-1.3-1.2c-0.9-0.8-1.7-1.6-2.5-2.5C0.4,50.9,0,30.5,11.5,16.5
				c0.3-0.4,0.6-0.7,1-1.1c0.8-0.9,1.6-1.7,2.5-2.5c4.9-4.5,10.9-7.6,17.3-8.9c1-0.2,2-0.4,3-0.5c3-0.4,6.1-0.4,9.1,0
				c1,0.1,2,0.3,3,0.5c4.9,1,9.5,3,13.5,5.9c0.5,0.3,0.9,0.7,1.4,1c0.9,0.7,1.8,1.5,2.7,2.3c1.1,1,2.1,2.1,3.1,3.3
				c4.2,5.1,7,11.2,8,17.8C76.4,36,76.5,37.9,76.5,39.8L76.5,39.8z"/>
			<path class="st3" d="M68,16.4L54.3,30.2l-4,4l-2.9,2.9l-0.8,0.8L44.4,40l-5.5,5.5l-3.7,3.7L35,49.5l-2.7,2.7L16.4,68.1
				c-0.5-0.4-0.9-0.8-1.3-1.2c-0.9-0.8-1.7-1.6-2.5-2.5c-1-1.1-1.9-2.2-2.7-3.4l11.4-11.4l11-11l0.6-0.6l2.4-2.4l1.3-1.3l3.2-3.2
				l0.8-0.8l3.9-3.9l3-3L60.9,9.8c0.5,0.3,0.9,0.7,1.4,1c0.9,0.7,1.8,1.5,2.7,2.3C66.1,14.2,67.1,15.3,68,16.4L68,16.4z"/>
			<path class="st3" d="M69.8,61c-0.2,0.3-0.5,0.7-0.7,1c-0.7,0.9-1.5,1.8-2.3,2.7c-1.1,1.2-2.3,2.3-3.6,3.4L47.4,52.3l-2.9-2.9
				l-0.1-0.1l-3.9-3.9l-0.8-0.8l-4.5-4.5l-2.4-2.4l-0.6-0.6l-3.1-3.1l-4-4L11.5,16.5c0.3-0.4,0.6-0.7,1-1.1c0.8-0.9,1.6-1.7,2.5-2.5
				c1.2-1.1,2.4-2.1,3.7-3L69.8,61z"/>
			<g>
				<path class="st4" d="M31.6,50.4L15.1,66.9c-0.9-0.8-1.7-1.6-2.5-2.5l14-14L31.6,50.4z"/>
				<path class="st4" d="M65,13.1l-17,17l-0.6,0.6l-0.3,0.3h-5l0.9-0.9l1.5-1.5l17.9-17.9C63.2,11.6,64.1,12.3,65,13.1L65,13.1z"/>
				<path class="st4" d="M69,62c-0.7,0.9-1.5,1.8-2.3,2.7L52.4,50.4h5L69,62z"/>
				<path class="st4" d="M33.2,31.1h-5l-0.9-0.9L12.5,15.4c0.8-0.9,1.6-1.7,2.5-2.5l17.3,17.3l0,0L33.2,31.1z"/>
			</g>
			<path class="st3" d="M76.1,34.2c-0.2-1.3-0.5-2.7-0.8-4H47.4V3.9c-1-0.2-2-0.4-3-0.5c-3-0.4-6.1-0.4-9.1,0c-1,0.1-2,0.3-3,0.5
				v26.3H4.5c-0.4,1.3-0.6,2.6-0.8,4C3,37.9,3,41.8,3.6,45.5c0.2,1.3,0.5,2.7,0.8,4h27.9v26.3c1,0.2,2,0.4,3,0.5
				c3,0.4,6.1,0.4,9.1,0c1-0.1,2-0.3,3-0.5V49.5h27.9c0.4-1.3,0.6-2.6,0.8-4C76.7,41.8,76.7,37.9,76.1,34.2L76.1,34.2z"/>
			<path class="st4" d="M76.5,39.8c0-1.9-0.1-3.8-0.4-5.7H44.4V3.5c-3-0.4-6.1-0.4-9.1,0v30.7H3.6C3,37.9,3,41.8,3.6,45.5h31.7v30.7
				c3,0.4,6.1,0.4,9.1,0V45.5h31.7C76.4,43.6,76.5,41.7,76.5,39.8z"/>
			<path class="st5" d="M35.3,3.5c3-0.4,6.1-0.4,9.1,0v0.1c-0.7,0.1-1.3,0.2-2,0.4"/>
			<circle class="st6" cx="71.1" cy="39.8" r="2.3"/>
			<circle class="st6" cx="66.3" cy="39.8" r="1.7"/>
		</g>
	</g>
</g>
</svg>
