<?xml version="1.0" encoding="utf-8"?>
<!-- Generator: Adobe Illustrator 25.0.0, SVG Export Plug-In . SVG Version: 6.00 Build 0)  -->
<svg version="1.1" id="Layer_1" xmlns="http://www.w3.org/2000/svg" xmlns:xlink="http://www.w3.org/1999/xlink" x="0px" y="0px"
	 viewBox="0 0 79.7 100" style="enable-background:new 0 0 79.7 100;" xml:space="preserve">
<style type="text/css">
	.st0{fill:#69858C;}
	.st1{clip-path:url(#SVGID_2_);}
	.st2{fill:#006A4E;}
	.st3{fill:#F42A40;}
</style>
<g>
	<g>
		<path class="st0" d="M39.8,100c-0.3,0-0.5-0.1-0.7-0.3L23.6,81.2c-3.4-4.1-7.1-8-10.7-11.9L10.7,67c-2.3-2.4-4.2-5.1-5.8-8
			l-0.1-0.1C1.7,53.1,0,46.5,0,39.8c0-10.9,4.6-21.5,12.6-29C20,3.8,29.6,0,39.8,0c0.8,0,1.7,0,2.6,0.1c20.1,1.2,36.4,18,37.3,38.1
			c0.3,7.3-1.4,14.4-4.8,20.7c0,0,0,0,0,0l0,0l0,0.1c-1.5,2.8-3.5,5.5-5.7,7.9l-2.2,2.4c-3.6,3.8-7.3,7.8-10.7,11.9L40.5,99.7
			C40.3,99.9,40.1,100,39.8,100z M39.8,8.5c-17.3,0-31.3,14-31.3,31.3c0,17.3,14,31.3,31.3,31.3c17.3,0,31.3-14,31.3-31.3
			C71.1,22.6,57.1,8.5,39.8,8.5z"/>
	</g>
	<g>
		<defs>
			<circle id="SVGID_1_" cx="39.7" cy="39.8" r="35"/>
		</defs>
		<clipPath id="SVGID_2_">
			<use xlink:href="#SVGID_1_"  style="overflow:visible;"/>
		</clipPath>
		<g id="Layer_2_4_" class="st1">
			<g id="Layer_1-2_3_">
				<g id="_01.Bangladesh_3_">
					<path id="Shape_9_" class="st2" d="M28.4,2h24.1c13.8,0,25,11.2,25,25v26.2c0,13.5-10.9,24.4-24.4,24.4H28.9
						c-14.9,0-27-12.1-27-27V28.4C1.9,13.8,13.7,2,28.4,2z"/>
					<circle id="Circle_3_" class="st3" cx="39.7" cy="39.8" r="16.7"/>
				</g>
			</g>
		</g>
	</g>
</g>
</svg>
