<?xml version="1.0" encoding="utf-8"?>
<!-- Generator: Adobe Illustrator 25.0.0, SVG Export Plug-In . SVG Version: 6.00 Build 0)  -->
<svg version="1.1" id="Layer_1" xmlns="http://www.w3.org/2000/svg" xmlns:xlink="http://www.w3.org/1999/xlink" x="0px" y="0px"
	 viewBox="0 0 40 40" style="enable-background:new 0 0 40 40;" xml:space="preserve">
<style type="text/css">
	.st0{fill-rule:evenodd;clip-rule:evenodd;fill:#FF8080;}
	.st1{fill:#5B707F;}
	.st2{fill-rule:evenodd;clip-rule:evenodd;fill:#FFFFFF;}
</style>
<g>
	<g>
		<circle class="st0" cx="20" cy="20" r="19.3"/>
		<path class="st1" d="M20,1.5c10.2,0,18.5,8.3,18.5,18.5S30.2,38.5,20,38.5S1.5,30.2,1.5,20S9.8,1.5,20,1.5 M20,0C9,0,0,9,0,20
			s9,20,20,20s20-9,20-20S31,0,20,0L20,0z"/>
	</g>
	<path class="st2" d="M29.3,20.7c0,1.5-0.2,3-0.2,3s-0.2,1.3-0.7,1.8c-0.7,0.7-1.5,0.7-1.9,0.8c-2.6,0.2-6.5,0.2-6.5,0.2
		s-4.8,0-6.3-0.2c-0.4-0.1-1.3-0.1-2-0.8c-0.6-0.6-0.7-1.8-0.7-1.8s-0.2-1.5-0.2-3v-1.4c0-1.5,0.2-3,0.2-3s0.2-1.3,0.7-1.8
		c0.7-0.7,1.5-0.7,1.9-0.8c2.6-0.2,6.5-0.2,6.5-0.2h0c0,0,3.9,0,6.5,0.2c0.4,0,1.2,0,1.9,0.8c0.6,0.6,0.7,1.8,0.7,1.8s0.2,1.5,0.2,3
		V20.7z"/>
	<path id="Fill-208" class="st0" d="M18.1,22.4l5-2.6l-5-2.6L18.1,22.4z"/>
</g>
</svg>
