<?xml version="1.0" encoding="utf-8"?>
<!-- Generator: Adobe Illustrator 25.0.0, SVG Export Plug-In . SVG Version: 6.00 Build 0)  -->
<svg version="1.1" id="Layer_1" xmlns="http://www.w3.org/2000/svg" xmlns:xlink="http://www.w3.org/1999/xlink" x="0px" y="0px"
	 viewBox="0 0 40 40" style="enable-background:new 0 0 40 40;" xml:space="preserve">
<style type="text/css">
	.st0{fill-rule:evenodd;clip-rule:evenodd;fill:#FF6666;}
	.st1{fill:#5B707F;}
	.st2{fill:#FFFFFF;}
	.st3{fill-rule:evenodd;clip-rule:evenodd;fill:#FF8080;}
</style>
<g>
	<g>
		<g>
			<circle class="st0" cx="20" cy="20" r="19.3"/>
			<path class="st1" d="M20,1.5c10.2,0,18.5,8.3,18.5,18.5c0,10.2-8.3,18.5-18.5,18.5S1.5,30.2,1.5,20C1.5,9.8,9.8,1.5,20,1.5 M20,0
				C9,0,0,9,0,20s9,20,20,20s20-9,20-20S31,0,20,0L20,0z"/>
		</g>
		<ellipse class="st2" cx="20" cy="19.7" rx="12.5" ry="12.5"/>
	</g>
	<g id="Icons">
		<g id="Social-Media-Collection" transform="translate(-219 -87)">
			<g id="Twitter" transform="translate(219 87)">
				<path id="Fill-184" class="st3" d="M27.3,16.2c0,0.2,0,0.3,0,0.5c0,5-3.8,10.8-10.8,10.8c-2.1,0-4.1-0.6-5.8-1.7
					c0.3,0,0.6,0.1,0.9,0.1c1.8,0,3.4-0.6,4.7-1.6c-1.7,0-3.1-1.1-3.5-2.6c0.2,0,0.5,0.1,0.7,0.1c0.3,0,0.7,0,1-0.1
					c-1.7-0.3-3-1.9-3-3.7v0c0.5,0.3,1.1,0.5,1.7,0.5c-1-0.7-1.7-1.8-1.7-3.2c0-0.7,0.2-1.3,0.5-1.9c1.9,2.3,4.7,3.8,7.8,4
					c-0.1-0.3-0.1-0.6-0.1-0.9c0-2.1,1.7-3.8,3.8-3.8c1.1,0,2.1,0.5,2.8,1.2c0.9-0.2,1.7-0.5,2.4-0.9c-0.3,0.9-0.9,1.6-1.7,2.1
					c0.8-0.1,1.5-0.3,2.2-0.6C28.7,15,28.1,15.7,27.3,16.2 M19.9,1.5C9.7,1.5,1.4,9.8,1.4,20c0,10.2,8.3,18.5,18.5,18.5
					S38.5,30.2,38.5,20C38.5,9.8,30.2,1.5,19.9,1.5"/>
			</g>
		</g>
	</g>
</g>
</svg>
