<?xml version="1.0" encoding="utf-8"?>
<!-- Generator: Adobe Illustrator 25.0.0, SVG Export Plug-In . SVG Version: 6.00 Build 0)  -->
<svg version="1.1" id="Layer_1" xmlns="http://www.w3.org/2000/svg" xmlns:xlink="http://www.w3.org/1999/xlink" x="0px" y="0px"
	 viewBox="0 0 40 40" style="enable-background:new 0 0 40 40;" xml:space="preserve">
<style type="text/css">
	.st0{fill-rule:evenodd;clip-rule:evenodd;fill:#FF8080;}
	.st1{fill:#5B707F;}
	.st2{fill:#FFFFFF;}
</style>
<g>
	<g>
		<path class="st0" d="M20,39.3C9.4,39.3,0.7,30.6,0.7,20S9.4,0.7,20,0.7S39.3,9.4,39.3,20S30.6,39.3,20,39.3z"/>
		<path class="st1" d="M20,1.5c10.2,0,18.5,8.3,18.5,18.5S30.2,38.5,20,38.5S1.5,30.2,1.5,20S9.8,1.5,20,1.5 M20,0C9,0,0,9,0,20
			s9,20,20,20s20-9,20-20S31,0,20,0L20,0z"/>
	</g>
	<path class="st2" d="M23.5,20.7h-2.5V30h-3.8v-9.3h-1.8v-3.3h1.8v-2.1c0-1.5,0.7-3.9,3.9-3.9l2.8,0v3.2h-2.1
		c-0.3,0-0.8,0.2-0.8,0.9v1.9h2.9L23.5,20.7z"/>
</g>
</svg>
