<?xml version="1.0" encoding="utf-8"?>
<!-- Generator: Adobe Illustrator 25.0.0, SVG Export Plug-In . SVG Version: 6.00 Build 0)  -->
<svg version="1.1" id="Layer_1" xmlns="http://www.w3.org/2000/svg" xmlns:xlink="http://www.w3.org/1999/xlink" x="0px" y="0px"
	 viewBox="0 0 40 40" style="enable-background:new 0 0 40 40;" xml:space="preserve">
<style type="text/css">
	.st0{fill-rule:evenodd;clip-rule:evenodd;fill:#FF8080;}
	.st1{fill:#5B707F;}
	.st2{fill:#FFFFFF;}
</style>
<g>
	<g>
		<circle class="st0" cx="20" cy="20" r="19.3"/>
		<path class="st1" d="M20,1.5c10.2,0,18.5,8.3,18.5,18.5S30.2,38.5,20,38.5S1.5,30.2,1.5,20S9.8,1.5,20,1.5 M20,0C9,0,0,9,0,20
			s9,20,20,20s20-9,20-20S31,0,20,0L20,0z"/>
	</g>
	<g id="Icon">
		<path class="st2" d="M24.3,10.9h-8.3c-2.8,0-5.1,2.3-5.1,5.1v8.3c0,2.8,2.3,5.1,5.1,5.1h8.3c2.8,0,5.1-2.3,5.1-5.1v-8.3
			C29.4,13.1,27.1,10.9,24.3,10.9z M27.7,23.5c0,2.3-1.9,4.2-4.2,4.2h0h-6.9c-2.3,0-4.2-1.9-4.2-4.2v0v-6.9c0-2.3,1.9-4.2,4.2-4.2
			l0,0h6.9c2.3,0,4.2,1.9,4.2,4.2l0,0V23.5z"/>
		<path class="st2" d="M23.5,16.8L23.5,16.8L23.5,16.8c-1-1-2.1-1.4-3.4-1.4c-2.6,0-4.7,2.2-4.7,4.8c0,0,0,0,0,0
			c0,1.3,0.5,2.5,1.4,3.4c0.9,0.9,2.1,1.4,3.3,1.4c2.6-0.1,4.8-2.2,4.7-4.9C24.8,18.8,24.3,17.6,23.5,16.8z M20.1,23.2
			c-1.7,0-3.2-1.4-3.2-3.1S18.3,17,20,17s3.2,1.4,3.2,3.1c0,0,0,0,0,0C23.2,21.8,21.8,23.2,20.1,23.2C20.1,23.2,20.1,23.2,20.1,23.2
			z"/>
		<path class="st2" d="M26.2,15.1c0,0.6-0.5,1.1-1.1,1.1c0,0,0,0,0,0c-0.3,0-0.6-0.1-0.8-0.3c-0.4-0.4-0.4-1.2,0-1.6
			c0.2-0.2,0.5-0.3,0.8-0.3c0.3,0,0.5,0.1,0.7,0.3l0,0c0,0,0.1,0.1,0.1,0.1l0,0C26.1,14.6,26.2,14.8,26.2,15.1L26.2,15.1z"/>
	</g>
</g>
</svg>
