<?xml version="1.0" encoding="utf-8"?>
<!-- Generator: Adobe Illustrator 25.0.0, SVG Export Plug-In . SVG Version: 6.00 Build 0)  -->
<svg version="1.1" id="Layer_1" xmlns="http://www.w3.org/2000/svg" xmlns:xlink="http://www.w3.org/1999/xlink" x="0px" y="0px"
	 viewBox="0 0 40 40" style="enable-background:new 0 0 40 40; " xml:space="preserve">
<style type="text/css">
	.st0{fill-rule:evenodd;clip-rule:evenodd;fill:#FF8081; }
	.st1{fill:#5B707F;}
	.st2{fill:#FFFFFF;}
</style>
<g>
	<g>
		<circle class="st0" cx="20" cy="20" r="19.3"/>
		<path class="st1" d="M20,1.5c10.2,0,18.5,8.3,18.5,18.5S30.2,38.5,20,38.5S1.5,30.2,1.5,20S9.8,1.5,20,1.5 M20,0C9,0,0,9,0,20
			s9,20,20,20s20-9,20-20S31,0,20,0L20,0z"/>
	</g>
	<path id="icon" class="st2" d="M20,29.3c5.1,0,9.3-4.1,9.3-9.3s-4.1-9.3-9.3-9.3s-9.3,4.1-9.3,9.3C10.8,25.1,14.9,29.2,20,29.3z
		 M20,27.6c-1.5,0-3-0.5-4.3-1.3c1.4-2,3.3-3.4,5.6-4.3c0.5,1.7,0.9,3.4,1,5.2C21.6,27.4,20.8,27.6,20,27.6z M23.9,26.5
		c-0.2-1.7-0.5-3.3-1-4.9c1.5-0.3,3-0.3,4.5,0C27,23.6,25.7,25.4,23.9,26.5L23.9,26.5z M27.6,19.8c-1.7-0.3-3.5-0.3-5.2,0.1
		c-0.2-0.6-0.4-1.1-0.7-1.6c1.5-0.9,2.8-2.1,3.8-3.5C26.8,16.2,27.5,18,27.6,19.8z M20,12.4c1.5,0,3,0.4,4.2,1.3
		c-0.9,1.2-2,2.3-3.3,3.1c-0.8-1.4-1.8-2.8-2.9-4.1C18.7,12.5,19.3,12.4,20,12.4z M16.4,13.4c1.1,1.3,2.1,2.7,3,4.2
		c-2.1,0.9-4.5,1.2-6.7,0.7C13.1,16.2,14.5,14.4,16.4,13.4L16.4,13.4z M14.8,20.2c1.8,0,3.7-0.4,5.4-1.2c0.2,0.4,0.4,0.9,0.6,1.3
		c-2.5,0.9-4.7,2.5-6.3,4.7c-1.3-1.4-2-3.2-2-5.1C13.2,20.1,14,20.2,14.8,20.2L14.8,20.2z"/>
</g>
</svg>
