<?xml version="1.0" encoding="utf-8"?>
<!-- Generator: Adobe Illustrator 25.0.0, SVG Export Plug-In . SVG Version: 6.00 Build 0)  -->
<svg version="1.1" id="Layer_1" xmlns="http://www.w3.org/2000/svg" xmlns:xlink="http://www.w3.org/1999/xlink" x="0px" y="0px"
	 viewBox="0 0 40 40" style="enable-background:new 0 0 40 40;" xml:space="preserve">
<style type="text/css">
	.st0{fill-rule:evenodd;clip-rule:evenodd;fill:#FF8080;}
	.st1{fill:#5B707F;}
	.st2{fill:#F1F2F2;}
</style>
<g>
	<g>
		<circle class="st0" cx="20" cy="20" r="19.3"/>
		<path class="st1" d="M20,1.5c10.2,0,18.5,8.3,18.5,18.5S30.2,38.5,20,38.5S1.5,30.2,1.5,20S9.8,1.5,20,1.5 M20,0C9,0,0,9,0,20
			s9,20,20,20s20-9,20-20S31,0,20,0L20,0z"/>
	</g>
	<g>
		<path class="st2" d="M30.4,21.4v7.2h-4.2v-6.7c0-1.7-0.6-2.8-2.1-2.8c-1.1,0-1.8,0.8-2.1,1.5c-0.1,0.3-0.1,0.6-0.1,1v7h-4.2
			c0,0,0.1-11.3,0-12.5h4.2v1.8c0,0,0,0,0,0h0v0c0.6-0.8,1.5-2.1,3.7-2.1C28.4,15.7,30.4,17.5,30.4,21.4L30.4,21.4z M13.4,10
			C12,10,11,10.9,11,12.2c0,1.2,0.9,2.2,2.3,2.2h0c1.4,0,2.4-1,2.4-2.2C15.7,10.9,14.8,10,13.4,10L13.4,10z M11.3,28.5h4.2V16h-4.2
			V28.5z"/>
	</g>
</g>
</svg>
