<?xml version="1.0" encoding="utf-8"?>
<!-- Generator: Adobe Illustrator 25.0.0, SVG Export Plug-In . SVG Version: 6.00 Build 0)  -->
<svg version="1.1" id="Layer_1" xmlns="http://www.w3.org/2000/svg" xmlns:xlink="http://www.w3.org/1999/xlink" x="0px" y="0px"
	 viewBox="0 0 122.3 150" style="enable-background:new 0 0 122.3 150;" xml:space="preserve">
<style type="text/css">
	.st0{fill:#35414D;}
	.st1{fill:#EFD299;}
	.st2{fill:#DEC089;}
	.st3{fill:#FF5A5A;}
	.st4{fill:#ECECEC;}
	.st5{fill:#FFDC7C;}
	.st6{fill:#EAC05C;}
</style>
<g>
	<path class="st0" d="M105.3,60.4c0-4.3-2.1-8.4-5.5-10.9c0.8-1.5,1.3-3.3,1.3-5.1c0-6.1-5.2-11.1-11.5-11.1h0v0
		c0-4.7-3.8-8.6-8.6-8.6c-1.1,0-2.1,0.2-3,0.6c-0.3-1.3-0.9-2.6-1.9-3.5c-1.4-1.3-3.1-2-4.9-2c-3.9,0-7,3.2-7,7v41.6h-5.8V26.7
		c0-3.9-3.2-7-7-7c-1.9,0-3.6,0.7-4.9,2c-1,1-1.7,2.2-1.9,3.5c-1-0.4-2-0.6-3-0.6c-4.7,0-8.6,3.8-8.6,8.6v0h-0.1
		c-6.3,0-11.5,5-11.5,11.1c0,1.8,0.4,3.5,1.3,5.1C19.1,52,17,56,17,60.3c0,3.4,1.2,6.5,3.4,9c-0.3,0.4-0.5,1-0.4,1.6
		c1.2,8.4,4.5,16.5,9,22c7.8,9.5,11.6,16,11.8,26.2c-0.7,0.4-1.1,1.1-1.1,1.9v14.8c0,2.9,2.1,5.3,4.9,5.6c1.2,4.9,6.5,8.6,12.8,8.6
		H65c6.3,0,11.5-3.7,12.7-8.5c2.7-0.4,4.9-2.8,4.9-5.6v-5.6c0,0,0,0,0,0V121c0-0.8-0.5-1.5-1.1-1.9c0.2-10.1,4-16.7,11.8-26.2
		c4.5-5.6,7.8-13.6,9-22c0.1-0.5-0.1-1.1-0.4-1.6C104,66.9,105.3,63.8,105.3,60.4L105.3,60.4z M21.6,60.4c0-3,1.5-5.8,3.9-7.5
		c0.9,0.6,2.1,1.4,3.9,2.2c0.3,0.1,0.6,0.2,0.9,0.2c0.9,0,1.7-0.5,2.1-1.3c0.5-1.1,0-2.5-1.1-3c-2.6-1.1-3.7-2.2-3.8-2.3
		c-1.1-1.1-1.6-2.6-1.6-4.2c0-3.6,3.1-6.6,6.9-6.6c0.8,0,1.6,0.1,2.2,0.4c0.9,0.3,1.8,0.1,2.4-0.6c0.6-0.7,0.8-1.7,0.4-2.5
		c-0.3-0.6-0.4-1.2-0.4-1.8c0-2.2,1.8-4,4-4c1.3,0,2.5,0.6,3.3,1.7c0.6,0.8,1.6,1.1,2.6,0.9c1-0.3,1.6-1.2,1.6-2.2v-2.9
		c0-0.7,0.3-1.3,0.7-1.8c0.5-0.4,1.1-0.7,1.8-0.7c1.4,0,2.5,1.1,2.5,2.5v6.7c-1.7,0.5-4.1,1.8-5.6,4.3c-0.6,1.1-0.3,2.5,0.8,3.1
		c0.4,0.2,0.8,0.3,1.1,0.3c0.8,0,1.5-0.4,2-1.1c0.4-0.7,1-1.2,1.6-1.6v12.5c-2.5,0.4-6.3,1.9-8.9,6.6c-0.6,1.1-0.2,2.5,0.9,3.1
		c0.4,0.2,0.7,0.3,1.1,0.3c0.8,0,1.6-0.4,2-1.1c1.5-2.6,3.4-3.7,4.9-4.1v12.8H31.3c0.4-0.3,0.8-0.7,1.3-1c1-0.8,1.2-2.2,0.4-3.2
		c-0.8-1-2.2-1.2-3.2-0.4c-2.2,1.7-3.6,3-4.5,3.9C22.9,65.9,21.6,63.3,21.6,60.4L21.6,60.4z M65,145.5h-7.6c-3.5,0-6.5-1.6-7.8-3.9
		h23.3C71.5,143.8,68.4,145.5,65,145.5z M78,135.8c0,0.7-0.5,1.2-1.2,1.2H45.5c-0.7,0-1.2-0.5-1.2-1.2v-3.4h33.8L78,135.8L78,135.8z
		 M78,127.9H44.3v-4.6h33.8L78,127.9L78,127.9z M89.8,90c-7.1,8.6-12.5,16.3-12.8,28.7H45.4C45,106.3,39.6,98.7,32.5,90
		c-3.5-4.3-6.3-10.6-7.6-17.2h72.4C96,79.5,93.2,85.8,89.8,90L89.8,90z M97.1,67.6c-0.9-1-2.3-2.3-4.5-3.9c-1-0.8-2.4-0.6-3.2,0.4
		c-0.8,1-0.5,2.4,0.4,3.2c0.5,0.4,0.9,0.7,1.3,1H68.6V55.5c1.5,0.4,3.4,1.5,4.9,4.1c0.4,0.7,1.2,1.1,2,1.1c0.4,0,0.8-0.1,1.1-0.3
		c1.1-0.6,1.5-2,0.9-3.1c-2.6-4.7-6.4-6.1-8.9-6.6V38.3c0.6,0.4,1.2,0.9,1.6,1.6c0.4,0.7,1.2,1.1,2,1.1c0.4,0,0.8-0.1,1.1-0.3
		c1.1-0.6,1.5-2,0.8-3.1c-1.5-2.6-3.9-3.7-5.6-4.3v-6.6c0-1.4,1.1-2.5,2.5-2.5c0.8,0,1.5,0.4,1.8,0.7c0.4,0.4,0.7,1.1,0.7,1.8v2.9
		c0,1,0.6,1.9,1.6,2.2c0.9,0.3,2,0,2.6-0.9c0.7-1.1,1.9-1.7,3.3-1.7c2.2,0,4,1.8,4,4c0,0.6-0.2,1.2-0.4,1.8
		c-0.4,0.8-0.2,1.8,0.4,2.5c0.6,0.7,1.6,0.9,2.5,0.6c0.7-0.3,1.4-0.4,2.2-0.4c3.8,0,6.9,3,6.9,6.6c0,1.6-0.6,3.1-1.6,4.2
		c-0.1,0.1-1.2,1.2-3.8,2.3c-1.1,0.5-1.7,1.9-1.1,3c0.4,0.8,1.2,1.3,2.1,1.3c0.3,0,0.6,0,0.9-0.2c1.7-0.8,3-1.5,3.8-2.2
		c2.4,1.7,3.9,4.5,3.9,7.5C100.7,63.3,99.4,65.9,97.1,67.6L97.1,67.6z"/>
	<path class="st1" d="M53.7,33.4v-6.7c0-1.4-1.1-2.5-2.5-2.5c-0.7,0-1.3,0.3-1.8,0.7c-0.4,0.4-0.7,1.1-0.7,1.8v2.9
		c0,1-0.6,1.9-1.6,2.2c-0.9,0.3-2,0-2.6-0.9c-0.8-1.1-1.9-1.7-3.3-1.7c-2.2,0-4,1.8-4,4c0,0.6,0.2,1.2,0.4,1.8
		c0.4,0.8,0.2,1.8-0.4,2.5c-0.6,0.7-1.6,0.9-2.4,0.6c-0.7-0.3-1.4-0.4-2.2-0.4c-3.8,0-6.9,3-6.9,6.6c0,1.6,0.6,3.1,1.6,4.2
		c0.1,0.1,1.2,1.2,3.8,2.3c1.1,0.5,1.7,1.9,1.1,3c-0.4,0.8-1.2,1.3-2.1,1.3c-0.3,0-0.6,0-0.9-0.2c-1.8-0.8-3-1.5-3.9-2.2
		c-2.4,1.7-3.9,4.5-3.9,7.5c0,2.9,1.4,5.6,3.7,7.2c0.9-1,2.3-2.3,4.5-3.9c1-0.8,2.4-0.6,3.2,0.4c0.8,1,0.5,2.4-0.4,3.2
		c-0.4,0.4-0.9,0.7-1.3,1h22.5V55.5c-1.5,0.4-3.4,1.5-4.9,4.1c-0.4,0.8-1.2,1.1-2,1.1c-0.4,0-0.8-0.1-1.1-0.3
		c-1.1-0.6-1.5-2-0.9-3.1c2.6-4.7,6.4-6.2,8.9-6.6V38.3c-0.6,0.4-1.2,0.9-1.6,1.6c-0.4,0.7-1.2,1.1-2,1.1c-0.4,0-0.8-0.1-1.1-0.3
		c-1.1-0.6-1.5-2-0.8-3.1C49.6,35.1,52,33.9,53.7,33.4L53.7,33.4z M48,45.5c0,1.2-1.1,2.2-2.3,2.2c0,0,0,0,0,0c-0.1,0-5.6,0-6.7,3.4
		c-0.3,1-1.2,1.6-2.2,1.6c-0.2,0-0.4,0-0.6-0.1c-1.2-0.4-1.9-1.6-1.5-2.8c2-6.7,10.8-6.7,11.1-6.7C47,43.2,48,44.2,48,45.5L48,45.5z
		"/>
	<path class="st1" d="M96.8,52.9c-0.9,0.6-2.1,1.4-3.8,2.2c-0.3,0.1-0.6,0.2-0.9,0.2c-0.9,0-1.7-0.5-2.1-1.3c-0.5-1.1,0-2.5,1.1-3
		c2.5-1.1,3.7-2.2,3.8-2.3c1.1-1.1,1.6-2.6,1.6-4.2c0-3.6-3.1-6.6-6.9-6.6c-0.8,0-1.5,0.1-2.2,0.4c-0.9,0.3-1.9,0.1-2.5-0.6
		c-0.6-0.7-0.8-1.7-0.4-2.5c0.3-0.6,0.4-1.2,0.4-1.8c0-2.2-1.8-4-4-4c-1.3,0-2.5,0.6-3.3,1.7c-0.6,0.8-1.6,1.1-2.6,0.9
		c-1-0.3-1.6-1.2-1.6-2.2v-2.9c0-0.7-0.3-1.3-0.7-1.8c-0.3-0.3-0.9-0.7-1.8-0.7c-1.3,0-2.5,1.1-2.5,2.5v6.7c1.7,0.6,4.1,1.8,5.6,4.3
		c0.6,1.1,0.3,2.5-0.8,3.1c-0.4,0.2-0.7,0.3-1.1,0.3c-0.8,0-1.5-0.4-2-1.1c-0.4-0.7-1-1.2-1.6-1.6v12.5c2.5,0.4,6.3,1.9,8.9,6.6
		c0.6,1.1,0.2,2.5-0.9,3.1c-0.4,0.2-0.7,0.3-1.1,0.3c-0.8,0-1.6-0.4-2-1.1C72,57,70,56,68.6,55.6v12.8h22.5c-0.4-0.3-0.8-0.7-1.3-1
		c-1-0.8-1.2-2.2-0.4-3.2c0.8-1,2.2-1.2,3.2-0.4c2.2,1.7,3.6,3,4.5,3.9c2.3-1.7,3.7-4.3,3.7-7.2C100.7,57.4,99.2,54.6,96.8,52.9
		L96.8,52.9z M86.1,52.7c-0.2,0.1-0.4,0.1-0.6,0.1c-1,0-1.9-0.7-2.2-1.6c-0.5-1.7-2.1-2.6-3.7-3c-1.5-0.4-2.9-0.4-3-0.4
		c-1.2,0-2.3-1-2.3-2.3c0-1.2,1-2.3,2.2-2.3c0.3,0,9.1,0,11.1,6.7C88,51.1,87.3,52.4,86.1,52.7z"/>
	<path class="st2" d="M36.1,67.3c-0.4,0.4-0.9,0.7-1.3,1h-3.6c0.4-0.3,0.8-0.7,1.3-1c1-0.8,1.2-2.2,0.4-3.2c0,0,0,0,0,0
		c0.2-0.1,0.3-0.3,0.5-0.4c1-0.8,2.4-0.6,3.2,0.4C37.3,65.1,37.1,66.5,36.1,67.3L36.1,67.3z"/>
	<path class="st2" d="M53,25c-0.4,0.4-0.7,1.1-0.7,1.7v2.9c0,1-0.6,1.9-1.6,2.2c-0.9,0.3-1.9,0-2.5-0.8c0.3-0.4,0.5-0.9,0.5-1.4
		v-2.9c0-0.7,0.3-1.3,0.7-1.8c0.5-0.4,1.1-0.7,1.8-0.7C51.9,24.3,52.6,24.5,53,25z"/>
	<path class="st2" d="M40.9,33.2c0,0.6,0.2,1.2,0.4,1.8c0.4,0.8,0.2,1.8-0.4,2.5c-0.6,0.7-1.6,0.9-2.4,0.6c-0.5-0.2-1-0.3-1.5-0.3
		c0.1-0.1,0.3-0.2,0.4-0.3c0.6-0.7,0.8-1.7,0.4-2.5c-0.3-0.6-0.4-1.2-0.4-1.8c0-2.2,1.8-4,4-4c0.7,0,1.3,0.2,1.8,0.4
		C41.9,30.3,40.9,31.7,40.9,33.2L40.9,33.2z"/>
	<path class="st2" d="M36.1,52.7c0,0.4,0,0.8-0.2,1.2c-0.4,0.8-1.2,1.3-2.1,1.3c-0.3,0-0.6,0-0.9-0.2c-0.4-0.2-0.8-0.4-1.1-0.5
		c0.2-0.2,0.4-0.4,0.4-0.7c0.5-1.1,0-2.5-1.1-3c-2.6-1.1-3.7-2.2-3.8-2.3c-1.1-1.1-1.6-2.6-1.6-4.2c0-3.6,3.1-6.6,6.9-6.6
		c0.7,0,1.2,0.1,1.8,0.2c-3,0.8-5.1,3.3-5.1,6.4c0,1.6,0.6,3.1,1.6,4.2c0.1,0.1,1.1,1.1,3.5,2.2C34.7,51.7,35.3,52.4,36.1,52.7
		L36.1,52.7z"/>
	<path class="st2" d="M25.2,60.4c0,2,0.7,4,1.9,5.5c-0.8,0.7-1.4,1.3-1.8,1.8c-2.3-1.7-3.7-4.3-3.7-7.2c0-3,1.5-5.8,3.9-7.5
		c0.5,0.4,1.2,0.8,2.1,1.3C26.1,55.9,25.2,58.1,25.2,60.4L25.2,60.4z"/>
	<path class="st2" d="M91.1,68.3h-3.6c-0.4-0.3-0.8-0.7-1.3-1c-1-0.8-1.2-2.2-0.4-3.2c0.8-1,2.2-1.2,3.2-0.4
		c0.2,0.1,0.3,0.3,0.5,0.4c0,0,0,0,0,0c-0.8,1-0.5,2.4,0.4,3.2C90.3,67.7,90.7,68,91.1,68.3z"/>
	<path class="st2" d="M100.7,60.4c0,2.9-1.4,5.6-3.7,7.2c-0.4-0.5-1.1-1.1-1.8-1.8c1.2-1.5,1.9-3.4,1.9-5.5c0-2.3-0.9-4.5-2.4-6.2
		c0.9-0.4,1.6-0.9,2.1-1.3C99.2,54.6,100.7,57.4,100.7,60.4z"/>
	<path class="st2" d="M74,31c-0.6,0.8-1.6,1.1-2.5,0.8c-1-0.3-1.6-1.2-1.6-2.2v-2.9c0-0.7-0.2-1.2-0.6-1.7c0.4-0.5,1.1-0.8,1.8-0.8
		c0.8,0,1.5,0.4,1.8,0.7c0.4,0.4,0.7,1.1,0.7,1.8v2.9C73.5,30.1,73.7,30.6,74,31L74,31z"/>
	<path class="st2" d="M85.2,37.9c-0.5,0-1,0.1-1.5,0.3c-0.9,0.3-1.9,0.1-2.5-0.6c-0.6-0.7-0.8-1.7-0.4-2.5c0.3-0.6,0.4-1.2,0.4-1.8
		c0-1.6-0.9-2.9-2.2-3.6c0.5-0.3,1.1-0.4,1.8-0.4c2.2,0,4,1.8,4,4c0,0.6-0.2,1.2-0.4,1.8c-0.4,0.8-0.2,1.8,0.4,2.5
		C85,37.7,85.1,37.8,85.2,37.9z"/>
	<path class="st2" d="M96.5,44.4c0,1.6-0.6,3.1-1.6,4.2c-0.1,0.1-1.2,1.2-3.8,2.3c-1.1,0.5-1.7,1.9-1.1,3c0.1,0.3,0.3,0.5,0.4,0.7
		c-0.3,0.2-0.7,0.3-1.1,0.5c-0.3,0.1-0.6,0.2-0.9,0.2c-0.9,0-1.7-0.5-2.1-1.3c-0.2-0.4-0.2-0.8-0.2-1.2c0.9-0.3,1.5-1,1.6-1.9
		c2.4-1.1,3.4-2.1,3.5-2.2c1.1-1.1,1.6-2.6,1.6-4.2c0-3-2.2-5.6-5.1-6.4c0.6-0.2,1.1-0.2,1.8-0.2C93.4,37.8,96.5,40.8,96.5,44.4
		L96.5,44.4z"/>
	<path class="st3" d="M72.8,141.6c-1.3,2.2-4.3,3.9-7.8,3.9h-7.6c-3.5,0-6.5-1.6-7.8-3.9H72.8z"/>
	<path class="st4" d="M44.3,123.3h33.8v4.6H44.3V123.3z"/>
	<path class="st4" d="M78,132.4v3.4c0,0.7-0.5,1.2-1.2,1.2H45.5c-0.7,0-1.2-0.5-1.2-1.2v-3.4H78z"/>
	<path class="st5" d="M97.3,72.9C96,79.5,93.2,85.8,89.8,90c-7.1,8.6-12.5,16.3-12.8,28.7H45.4C45,106.3,39.6,98.7,32.5,90
		c-3.5-4.3-6.3-10.6-7.6-17.2L97.3,72.9z"/>
	<path class="st6" d="M97.3,72.9C96,79.5,93.2,85.8,89.8,90c-7.1,8.6-12.5,16.3-12.8,28.7H45.4C45,106.3,39.6,98.7,32.5,90
		c-3.5-4.3-6.3-10.6-7.6-17.2h5.3c1.9,5.8,4.1,11.3,7.1,15c5.9,7.6,10.4,14.3,10.7,25.2h26.3c0.3-10.9,4.8-17.6,10.7-25.2
		c2.9-3.7,5.2-9.3,7.1-15L97.3,72.9z"/>
	<g>
		<path class="st0" d="M86.1,52.7c-0.2,0.1-0.4,0.1-0.6,0.1c-1,0-1.9-0.7-2.2-1.6c-0.5-1.7-2.1-2.6-3.7-3c-1.5-0.4-2.9-0.4-3-0.4
			c-1.2,0-2.3-1-2.3-2.3c0-1.2,1-2.3,2.2-2.3c0.3,0,9.1,0,11.1,6.7C88,51.1,87.3,52.4,86.1,52.7z"/>
		<path class="st0" d="M48,45.5c0,1.2-1.1,2.2-2.3,2.2c0,0,0,0,0,0c-0.1,0-5.6,0-6.7,3.4c-0.3,1-1.2,1.6-2.2,1.6
			c-0.2,0-0.4,0-0.6-0.1c-1.2-0.4-1.9-1.6-1.5-2.8c2-6.7,10.8-6.7,11.1-6.7C47,43.2,48,44.2,48,45.5L48,45.5z"/>
		<path class="st0" d="M61.1,10.5c1.3,0,2.3-1,2.3-2.3V2.3c0-1.3-1-2.3-2.3-2.3c-1.3,0-2.3,1-2.3,2.3v5.9
			C58.9,9.4,59.9,10.5,61.1,10.5z"/>
		<path class="st0" d="M33,15.9c0.4,0.7,1.2,1.1,1.9,1.1c0.4,0,0.8-0.1,1.2-0.4c1.1-0.7,1.4-2.1,0.7-3.1l-3.2-5.1
			C33,7.3,31.5,7,30.5,7.6s-1.4,2.1-0.7,3.1L33,15.9z"/>
		<path class="st0" d="M9.1,31.4l5.5,3c0.3,0.2,0.7,0.3,1.1,0.3c0.8,0,1.6-0.4,2-1.2c0.6-1.1,0.2-2.5-0.9-3.1l-5.5-3
			c-1.1-0.6-2.5-0.2-3.1,0.9S8,30.8,9.1,31.4L9.1,31.4z"/>
		<path class="st0" d="M10.9,56.6c0-1.3-1-2.3-2.3-2.3H2.3c-1.3,0-2.3,1-2.3,2.3c0,1.3,1,2.3,2.3,2.3h6.4
			C9.9,58.8,10.9,57.8,10.9,56.6z"/>
		<path class="st0" d="M14.6,78.8l-5.5,3c-1.1,0.6-1.5,2-0.9,3.1c0.4,0.8,1.2,1.2,2,1.2c0.4,0,0.7-0.1,1.1-0.3l5.5-3
			c1.1-0.6,1.5-2,0.9-3.1C17.1,78.6,15.8,78.2,14.6,78.8L14.6,78.8z"/>
		<path class="st0" d="M113.2,81.7l-5.5-3c-1.1-0.6-2.5-0.2-3.1,0.9c-0.6,1.1-0.2,2.5,0.9,3.1l5.5,3c0.3,0.2,0.7,0.3,1.1,0.3
			c0.8,0,1.6-0.4,2-1.2C114.7,83.7,114.3,82.3,113.2,81.7L113.2,81.7z"/>
		<path class="st0" d="M120,54.3h-6.4c-1.3,0-2.3,1-2.3,2.3c0,1.3,1,2.3,2.3,2.3h6.4c1.3,0,2.3-1,2.3-2.3
			C122.3,55.3,121.3,54.3,120,54.3z"/>
		<path class="st0" d="M106.6,34.6c0.4,0,0.7-0.1,1.1-0.3l5.5-3c1.1-0.6,1.5-2,0.9-3.1c-0.6-1.1-2-1.5-3.1-0.9l-5.5,3
			c-1.1,0.6-1.5,2-0.9,3.1C105,34.2,105.8,34.6,106.6,34.6z"/>
		<path class="st0" d="M86.2,16.6c0.4,0.2,0.8,0.4,1.2,0.4c0.8,0,1.5-0.4,1.9-1.1l3.2-5.1c0.7-1.1,0.4-2.5-0.7-3.1
			c-1.1-0.7-2.5-0.4-3.1,0.7l-3.2,5.1C84.8,14.5,85.1,15.9,86.2,16.6L86.2,16.6z"/>
	</g>
</g>
</svg>
