<?xml version="1.0" encoding="utf-8"?>
<!-- Generator: Adobe Illustrator 25.0.0, SVG Export Plug-In . SVG Version: 6.00 Build 0)  -->
<svg version="1.1" id="Layer_1" xmlns="http://www.w3.org/2000/svg" xmlns:xlink="http://www.w3.org/1999/xlink" x="0px" y="0px"
	 viewBox="0 0 156.3 150" style="enable-background:new 0 0 156.3 150;" xml:space="preserve">
<style type="text/css">
	.st0{fill:#07BEEF;}
	.st1{fill:#FC635B;}
	.st2{fill:#7EC927;}
	.st3{fill:#FFA733;}
	.st4{fill:#00B6E0;}
	.st5{fill:#F34234;}
	.st6{fill:#60A917;}
	.st7{fill:#FF9801;}
	.st8{fill:#35414D;}
	.st9{fill:#5D6D7E;}
	.st10{fill:#FF8E31;}
	.st11{fill:#FECE59;}
	.st12{fill:#34495E;}
	.st13{opacity:0.3;}
	.st14{opacity:0.2;}
	.st15{fill:#FFFFFF;}
	.st16{fill:#FBBC05;}
	.st17{fill:#4285F4;}
	.st18{fill:none;}
</style>
<g>
	<g>
		<g>
			<g>
				<path class="st0" d="M64,110.1c0,3.1-2.5,5.6-5.6,5.6c-3.1,0-5.6-2.5-5.6-5.6c0-3.1,2.5-5.6,5.6-5.6C61.5,104.5,64,107,64,110.1
					L64,110.1z"/>
			</g>
			<g>
				<path class="st1" d="M94.1,84.1c0,3.1-2.5,5.6-5.6,5.6s-5.6-2.5-5.6-5.6c0-3.1,2.5-5.6,5.6-5.6S94.1,81,94.1,84.1z"/>
			</g>
			<g>
				<path class="st2" d="M124.3,102.5c0,3.1-2.5,5.6-5.6,5.6c-3.1,0-5.6-2.5-5.6-5.6c0-3.1,2.5-5.6,5.6-5.6S124.3,99.4,124.3,102.5
					L124.3,102.5z"/>
			</g>
			<g>
				<path class="st3" d="M154.4,73.4c0,3.1-2.5,5.6-5.6,5.6c-3.1,0-5.6-2.5-5.6-5.6c0-3.1,2.5-5.6,5.6-5.6
					C151.9,67.8,154.4,70.3,154.4,73.4z"/>
			</g>
			<g>
				<path class="st4" d="M64,109.9v0.2c0,3.1-2.5,5.6-5.6,5.6s-5.6-2.5-5.6-5.6c0-1.7,0.8-3.2,1.9-4.2c0.1,3,2.6,5.4,5.6,5.4
					C61.7,111.2,63,110.7,64,109.9z"/>
			</g>
			<g>
				<path class="st5" d="M94.1,83.9v0.2c0,3.1-2.5,5.6-5.6,5.6c-3.1,0-5.6-2.5-5.6-5.6c0-1.7,0.8-3.2,1.9-4.2c0.1,3,2.6,5.4,5.6,5.4
					C91.9,85.3,93.1,84.8,94.1,83.9L94.1,83.9z"/>
			</g>
			<g>
				<path class="st6" d="M124.3,102.3v0.2c0,3.1-2.5,5.6-5.6,5.6c-3.1,0-5.6-2.5-5.6-5.6c0-1.7,0.8-3.2,1.9-4.2
					c0.1,3,2.6,5.3,5.6,5.3C122,103.6,123.3,103.1,124.3,102.3L124.3,102.3z"/>
			</g>
			<g>
				<path class="st7" d="M154.4,73.2v0.2c0,3.1-2.5,5.6-5.6,5.6c-3.1,0-5.6-2.5-5.6-5.6c0-1.7,0.8-3.2,1.9-4.2
					c0.1,3,2.6,5.3,5.6,5.3C152.2,74.5,153.5,74,154.4,73.2z"/>
			</g>
			<g>
				<path class="st8" d="M58.4,117.5c4.1,0,7.4-3.3,7.4-7.4c0-1.2-0.3-2.4-0.8-3.4l18.9-16.9c1.3,1.1,2.9,1.7,4.7,1.7
					c2.2,0,4.1-1,5.5-2.5l17.4,11.8c-0.1,0.5-0.2,1.1-0.2,1.6c0,4.1,3.3,7.4,7.4,7.4c4.1,0,7.4-3.3,7.4-7.4c0-1.1-0.3-2.2-0.7-3.1
					L145,79.7c1.1,0.7,2.5,1.1,3.9,1.1c4.1,0,7.4-3.3,7.4-7.4c0-4.1-3.3-7.4-7.4-7.4c-4.1,0-7.4,3.3-7.4,7.4c0,1.3,0.4,2.6,1,3.6
					l-19.3,19.5c-1.2-0.9-2.7-1.4-4.4-1.4c-2.2,0-4.2,1-5.5,2.5L95.7,85.8c0.1-0.6,0.2-1.1,0.2-1.7c0-4.1-3.3-7.4-7.4-7.4
					c-4.1,0-7.4,3.3-7.4,7.4c0,1,0.2,1.9,0.5,2.7l-19.1,17.1c-1.2-0.8-2.6-1.3-4.1-1.3c-4.1,0-7.4,3.3-7.4,7.4
					C50.9,114.2,54.3,117.5,58.4,117.5z M148.9,69.7c2.1,0,3.7,1.7,3.7,3.7c0,2.1-1.7,3.8-3.7,3.8s-3.8-1.7-3.8-3.8
					S146.8,69.7,148.9,69.7z M118.7,98.7c2.1,0,3.7,1.7,3.7,3.7s-1.7,3.8-3.7,3.8c-2.1,0-3.8-1.7-3.8-3.8
					C115,100.4,116.6,98.7,118.7,98.7L118.7,98.7z M88.6,80.4c2.1,0,3.7,1.7,3.7,3.7c0,2.1-1.7,3.8-3.7,3.8c-2.1,0-3.8-1.7-3.8-3.8
					C84.8,82.1,86.5,80.4,88.6,80.4L88.6,80.4z M58.4,106.3c2.1,0,3.7,1.7,3.7,3.7s-1.7,3.8-3.7,3.8s-3.8-1.7-3.8-3.8
					C54.6,108,56.3,106.3,58.4,106.3L58.4,106.3z"/>
			</g>
		</g>
		<g>
			<g>
				<polygon class="st9" points="116.7,120.1 120.4,123.8 124.8,128 140.3,143.5 145,131 125.4,111.6 				"/>
			</g>
			<g>
				<g>
					<path class="st10" d="M135.6,119.7l17.7,17.7c1.3,1.3,2.2,3.2,2.2,5.2c0,2-0.8,3.9-2.2,5.2c-1.3,1.3-3.2,2.1-5.2,2.1
						c-2,0-3.9-0.8-5.2-2.2l-17.7-17.7L135.6,119.7z"/>
				</g>
				<g>
					<path class="st11" d="M133.2,122.1L133.2,122.1l1.4-1.4l17.7,17.7c1.1,1.1,1.7,2.6,1.7,4.2c0,1.6-0.6,3.1-1.7,4.2
						c-0.2,0.2-0.5,0.3-0.7,0.3c-0.3,0-0.5-0.1-0.7-0.3c-0.4-0.4-0.4-1,0-1.4c0.7-0.7,1.1-1.7,1.1-2.8c0-1-0.4-2-1.1-2.8
						L133.2,122.1z"/>
				</g>
				<g>
					<path class="st12" d="M125.2,130.1l10.4-10.4l-0.8-0.8c-0.5-0.5-1.1-0.8-1.8-0.8c-0.7,0-1.4,0.3-1.8,0.8l-6.8,6.8
						c-0.5,0.5-0.8,1.1-0.8,1.8c0,0.7,0.3,1.4,0.8,1.8L125.2,130.1z"/>
				</g>
			</g>
			<g class="st13">
				<path class="st12" d="M98.7,66c-15.1,0-27.3,12.2-27.3,27.3c0,15.1,12.2,27.3,27.3,27.3c15.1,0,27.3-12.2,27.3-27.3
					C126.1,78.2,113.8,66,98.7,66z"/>
			</g>
			<g>
				<path class="st12" d="M98.7,60c-18.4,0-33.3,14.9-33.3,33.3c0,18.4,14.9,33.3,33.3,33.3c18.4,0,33.3-14.9,33.3-33.3
					C132,74.9,117.1,60,98.7,60z M98.7,123C82.3,123,69,109.7,69,93.3c0-16.4,13.3-29.7,29.7-29.7c16.4,0,29.7,13.3,29.7,29.7
					C128.4,109.7,115.1,123,98.7,123z"/>
			</g>
			<g>
				<path class="st9" d="M98.7,63.6C82.3,63.6,69,76.9,69,93.3c0,16.4,13.3,29.7,29.7,29.7c16.4,0,29.7-13.3,29.7-29.7
					C128.4,76.9,115.1,63.6,98.7,63.6z M98.7,120.6c-15.1,0-27.3-12.2-27.3-27.3C71.4,78.2,83.7,66,98.7,66
					c15.1,0,27.3,12.2,27.3,27.3C126.1,108.4,113.8,120.6,98.7,120.6z"/>
			</g>
			<g>
				<g class="st14">
					<path class="st15" d="M99.5,70.5c-0.5-0.7-1.3-1.1-2.1-1.1c-3.8,0.2-7.3,1.3-10.6,3.2c-1.1,0.7-1.5,2.1-0.9,3.3
						c0.7,1.1,2.1,1.5,3.3,0.9c2.6-1.5,5.4-2.3,8.5-2.5c1.3-0.1,2.3-1.2,2.3-2.5C99.8,71.2,99.7,70.8,99.5,70.5z"/>
				</g>
				<g class="st14">
					<path class="st15" d="M84,78.4c-0.1-0.2-0.3-0.4-0.5-0.5c-1-0.8-2.6-0.7-3.4,0.4c-2.5,3-4.2,6.6-4.9,10.5
						c-0.9,4.6-0.4,9.3,1.3,13.6c0.5,1.2,1.9,1.8,3.2,1.3c1.2-0.5,1.8-1.9,1.3-3.1c-1.4-3.4-1.8-7.2-1.1-10.8c0.6-3.1,1.9-6,3.9-8.4
						C84.6,80.4,84.6,79.3,84,78.4z"/>
				</g>
			</g>
		</g>
	</g>
	<g>
		<g id="g5164_6_">
			<g id="g5170_6_" transform="translate(247.21,328.7803)">
				<g id="path5172_6_">
					<path class="st16" d="M-184-277.8c-1.3-4.4-3.9-8.2-7.1-11c0,0,0,0,0,0c-0.6-0.5-1.2-1-1.8-1.4h0c-0.6-0.4-1.4-0.9-1.8-1.2
						c0,0,0,0,0,0c-1.5-0.8-3.1-1.5-4.9-2c0,0,0,0,0,0c-7.8-2.2-16.5-0.2-22.5,5.8l-15.9,15.9c-8.9,8.9-8.9,23.4,0,32.3
						c8.9,8.9,23.4,8.9,32.3,0l15.9-15.9c2.9-2.9,4.9-6.5,5.9-10.2c-1.9,0.5-3.9,0.8-5.9,0.8c-2.1,0-4.3-0.3-6.3-0.9
						c-0.5,0.8-1.1,1.6-1.8,2.3l-15.9,15.9c-4.5,4.5-11.7,4.5-16.2,0c-4.5-4.5-4.5-11.7,0-16.2l15.9-15.9c4.5-4.5,11.7-4.5,16.2,0
						C-194.1-275.7-188.4-275.1-184-277.8C-184-277.7-184-277.8-184-277.8"/>
				</g>
			</g>
			<g id="g5174_6_" transform="translate(466.8496,466.8496)">
				<g id="path5176_6_">
					<path class="st17" d="M-377.4-457.7c8.9,8.9,8.9,23.4,0,32.3l-15.9,15.9c-8.9,8.9-23.4,8.9-32.3,0c-2.8-2.8-4.8-6.2-5.8-9.8
						c4.4-2.6,10.1-2,13.9,1.8c4.5,4.5,11.7,4.5,16.2,0l16.2-16.2l0,0c4.2-4.5,4.1-11.5-0.3-15.9c-4.5-4.5-11.7-4.5-16.2,0
						l-15.9,15.9c-0.7,0.7-1.3,1.4-1.8,2.3c-2.1-0.6-4.2-0.9-6.3-0.9c-2,0-4,0.3-5.9,0.8c1-3.8,3-7.3,5.9-10.2l15.9-15.9
						C-400.8-466.6-386.3-466.6-377.4-457.7"/>
				</g>
			</g>
			<g id="g5178_6_" transform="translate(246.7451,328.9209)">
				<g id="path5180_6_">
					<path class="st8" d="M-221.4-230.3c-6.8,0-13.1-2.6-17.9-7.4c-4.8-4.8-7.4-11.1-7.4-17.9s2.6-13.1,7.4-17.9l15.9-15.9
						c9.9-9.9,25.9-9.9,35.8,0c3,3,5.3,6.8,6.4,10.9c0.1,0.2,0.1,0.5,0.1,0.7c0,1.1-0.7,2-1.8,2.3c-1.3,0.4-2.6-0.4-3-1.7
						c-0.9-3.3-2.7-6.3-5.2-8.8c-8-8-20.9-8-28.9,0l-15.9,15.9c-3.9,3.9-6,9-6,14.4c0,5.5,2.1,10.6,6,14.4c3.9,3.9,9,6,14.4,6
						c5.5,0,10.6-2.1,14.4-6l15.9-15.9c2.5-2.5,4.4-5.7,5.3-9.2c0.3-1.3,1.7-2.1,3-1.7c1.1,0.3,1.8,1.3,1.8,2.4c0,0.2,0,0.4-0.1,0.6
						c-1.1,4.3-3.4,8.2-6.6,11.3l-15.9,15.9C-208.3-232.9-214.7-230.3-221.4-230.3z"/>
				</g>
			</g>
			<g id="g5182_6_" transform="translate(328.9209,246.7451)">
				<g id="path5184_6_">
					<path class="st8" d="M-281.4-208.9c-0.4,0-0.8-0.1-1.2-0.3c-1.2-0.7-1.5-2.2-0.9-3.3c0.6-1,1.3-1.9,2.1-2.8l15.9-15.9
						c5.4-5.4,14.2-5.4,19.6,0c4.8,4.8,5.4,12.3,1.5,17.9c-0.8,1.1-2.3,1.3-3.4,0.6c-1.1-0.8-1.3-2.3-0.6-3.4
						c2.6-3.6,2.2-8.5-1-11.6c-3.5-3.5-9.2-3.5-12.7,0l-15.9,15.9c-0.5,0.5-1,1.1-1.4,1.8C-279.7-209.3-280.5-208.9-281.4-208.9z"/>
				</g>
			</g>
			<g id="g5186_6_" transform="translate(290.0762,374.9287)">
				<g id="path5188_6_">
					<path class="st8" d="M-264.8-287.8c-3.7,0-7.2-1.4-9.8-4.1c-5.4-5.4-5.4-14.2,0-19.6l15.9-15.9c2.6-2.6,6.1-4.1,9.8-4.1
						c3.7,0,7.2,1.4,9.8,4.1c3.5,3.5,9.2,3.5,12.7,0l6.5-6.5c1-1,2.5-1,3.4,0c1,1,1,2.5,0,3.4l-6.5,6.5c-5.4,5.4-14.2,5.4-19.6,0
						c-1.7-1.7-4-2.6-6.4-2.6c-2.4,0-4.7,0.9-6.4,2.6l-15.9,15.9c-3.5,3.5-3.5,9.2,0,12.7c1.7,1.7,4,2.6,6.4,2.6
						c2.4,0,4.7-0.9,6.4-2.6l15.9-15.9c0.5-0.5,1-1.1,1.4-1.8c0.7-1.2,2.2-1.5,3.3-0.9c1.2,0.7,1.5,2.2,0.9,3.3
						c-0.6,1-1.3,1.9-2.1,2.8l-15.9,15.9C-257.6-289.2-261.1-287.8-264.8-287.8z"/>
				</g>
			</g>
			<g id="g5190_6_" transform="translate(265.2549,183.0791)">
				<g id="path5192_6_">
					<path class="st8" d="M-207.9-116.6c-6.5,0-13-2.5-17.9-7.4c-3-3-5.3-6.8-6.4-10.9c-0.1-0.2-0.1-0.5-0.1-0.7
						c0-1.1,0.7-2,1.8-2.3c1.3-0.4,2.6,0.4,3,1.7c0.9,3.3,2.7,6.3,5.2,8.8c8,8,20.9,8,28.9,0l15.9-15.9c3.9-3.9,6-9,6-14.4
						c0-5.5-2.1-10.6-6-14.4c-3.9-3.9-9-6-14.4-6c-5.5,0-10.6,2.1-14.4,6l-15.9,15.9c-2.5,2.5-4.4,5.7-5.3,9.1
						c-0.3,1.3-1.7,2.1-3,1.7c-1.1-0.3-1.8-1.3-1.8-2.4c0-0.2,0-0.4,0.1-0.6c1.1-4.3,3.4-8.2,6.6-11.3l15.9-15.9
						c4.8-4.8,11.1-7.4,17.9-7.4c6.8,0,13.1,2.6,17.9,7.4c4.8,4.8,7.4,11.1,7.4,17.9c0,6.8-2.6,13.1-7.4,17.9L-190-124
						C-194.9-119-201.4-116.6-207.9-116.6z"/>
				</g>
			</g>
			<g id="g5194_6_" transform="translate(325.4316,396.1416)">
				<g id="path5196_6_">
					<path class="st8" d="M-249.4-360.1c-0.7,0.7-0.7,2,0,2.7c0.7,0.7,2,0.7,2.7,0c0.7-0.7,0.7-2,0-2.7
						C-247.5-360.8-248.7-360.8-249.4-360.1"/>
				</g>
			</g>
			<g id="g5210_7_" transform="translate(383.2793,128.7207)">
				<g id="path5212_7_">
					<path class="st8" d="M-358.2-101.2c-0.6,0-1.2-0.2-1.7-0.7l-8.1-8.1c-1-1-1-2.5,0-3.4c1-1,2.5-1,3.4,0l8.1,8.1c1,1,1,2.5,0,3.4
						C-357-101.5-357.6-101.2-358.2-101.2z"/>
				</g>
			</g>
			<g id="g5214_7_" transform="translate(333,95)">
				<g id="path5216_7_">
					<path class="st8" d="M-314.4-57.9h-11.4c-1.3,0-2.4-1.1-2.4-2.4c0-1.3,1.1-2.4,2.4-2.4h11.4c1.3,0,2.4,1.1,2.4,2.4
						C-311.9-59-313-57.9-314.4-57.9z"/>
				</g>
			</g>
			<g id="g5218_7_" transform="translate(417,179)">
				<g id="path5220_7_">
					<path class="st8" d="M-382.4-157.9c-1.3,0-2.4-1.1-2.4-2.4v-11.4c0-1.3,1.1-2.4,2.4-2.4s2.4,1.1,2.4,2.4v11.4
						C-379.9-159-381-157.9-382.4-157.9z"/>
				</g>
			</g>
		</g>
		<g id="SVGID_6_">
			<rect x="0.5" y="0.5" class="st18" width="97.5" height="97.5"/>
		</g>
	</g>
</g>
</svg>
