<?xml version="1.0" encoding="utf-8"?>
<!-- Generator: Adobe Illustrator 25.0.0, SVG Export Plug-In . SVG Version: 6.00 Build 0)  -->
<svg version="1.1" id="Layer_1" xmlns="http://www.w3.org/2000/svg" xmlns:xlink="http://www.w3.org/1999/xlink" x="0px" y="0px"
	 viewBox="0 0 130 535.6" style="enable-background:new 0 0 130 535.6;" xml:space="preserve">
<style type="text/css">
	.st0{fill:#FFC66C;}
	.st1{fill:#FF5D5D;}
	.st2{fill:#FFFFFF;}
	.st3{fill:#FFE4CF;}
	.st4{fill:#35414D;}
	.st5{fill:#4A696F;stroke:#35414D;stroke-width:2.9792;stroke-miterlimit:10;}
	.st6{fill:#384949;stroke:#35414D;stroke-width:2.9792;stroke-miterlimit:10;}
	.st7{fill:#D2C5C2;stroke:#35414D;stroke-width:2.9792;stroke-miterlimit:10;}
	.st8{fill:#DFD7D5;stroke:#35414D;stroke-width:2.9792;stroke-miterlimit:10;}
	.st9{fill:#FFCF66;stroke:#35414D;stroke-width:2.9792;stroke-miterlimit:10;}
	.st10{fill:#E8BA5D;stroke:#35414D;stroke-width:2.9792;stroke-miterlimit:10;}
	.st11{fill:#FCD770;}
	.st12{fill:#FFAE2C;}
	.st13{fill:#E9E9EA;}
</style>
<g>
	<g>
		<path class="st0" d="M94.2,83.2l11,4.6c3.8,1.6,8.1-0.2,9.7-4l12.7-30.1c1.6-3.8-0.2-8.1-4-9.7L24.9,2.5c-3.8-1.6-8.1,0.2-9.7,4
			L2.5,36.6c-1.6,3.8,0.2,8.1,4,9.7L94.2,83.2z"/>
		<path class="st1" d="M68.7,114.4l11,26.9c1.2,3,4.7,4.5,7.7,3.2c3-1.2,4.5-4.7,3.2-7.7l-11-26.9L68.7,114.4z"/>
		<path class="st2" d="M90.3,96.1C84,111.2,66.6,118.3,51.4,112c-15.1-6.4-22.3-23.8-15.9-38.9s23.8-22.3,38.9-15.9
			S96.7,80.9,90.3,96.1z"/>
		<path class="st3" d="M80.8,92.1c-4.1,9.8-15.5,14.5-25.3,10.3S41,86.9,45.1,77.1s15.5-14.5,25.3-10.3S84.9,82.2,80.8,92.1z"/>
		<path class="st4" d="M54.7,104.1c-10.8-4.5-15.9-17-11.4-27.8s17-15.9,27.8-11.4s15.9,17,11.4,27.8S65.5,108.7,54.7,104.1z
			 M69.7,68.5c-8.9-3.7-19.1,0.5-22.8,9.3s0.5,19.1,9.3,22.8c8.9,3.7,19.1-0.5,22.8-9.3C82.7,82.5,78.5,72.2,69.7,68.5z"/>
		<path class="st4" d="M70.2,89.7c-1-0.4-1.4-1.5-1-2.5c1.4-3.4-0.2-7.4-3.6-8.8c-1-0.4-1.4-1.5-1-2.5c0.4-1,1.5-1.4,2.5-1
			c5.4,2.3,7.9,8.5,5.7,13.9C72.3,89.6,71.2,90.1,70.2,89.7z"/>
		<path class="st4" d="M33.4,40.9c-0.7-0.3-1.1-0.9-1.2-1.6l-0.8-9.5c0-0.2-0.2-0.4-0.3-0.5c0,0,0,0,0,0c-0.2-0.1-0.4,0-0.6,0.1
			l-7,6.2c-0.5,0.5-1.3,0.6-2,0.3l0,0c-0.7-0.3-1.1-0.9-1.2-1.6l-1.2-14.5c-0.1-1,0.7-2,1.8-2.1c0.3,0,0.6,0,0.9,0.1
			c0.7,0.3,1.1,0.9,1.2,1.6l0.8,9.5c0,0.2,0.2,0.4,0.3,0.5c0,0,0,0,0,0c0.2,0.1,0.4,0,0.6-0.1l7-6.2c0.5-0.5,1.3-0.6,2-0.3
			c0.7,0.3,1.1,0.9,1.2,1.6l0.8,9.5c0,0.2,0.2,0.4,0.3,0.5c0,0,0,0,0,0c0.2,0.1,0.4,0,0.6-0.1l7-6.2c0.5-0.5,1.3-0.6,2-0.3
			c0.3,0.1,0.5,0.3,0.7,0.5c0.3,0.4,0.5,0.9,0.5,1.4c0,0.5-0.3,1-0.6,1.3l-10.7,9.5C34.8,41,34.1,41.2,33.4,40.9z"/>
		<path class="st4" d="M43.8,12.5c-0.5-0.2-0.8-0.6-1-1c-0.2-0.5-0.2-1,0-1.5c0.2-0.5,0.6-0.8,1-1c0.5-0.2,1-0.2,1.5,0
			c0.5,0.2,0.8,0.6,1,1c0.2,0.5,0.2,1,0,1.5c-0.2,0.5-0.6,0.8-1,1C44.8,12.7,44.2,12.7,43.8,12.5z"/>
		<path class="st4" d="M82.2,146.3c-1.9-0.8-3.4-2.3-4.2-4.3l-10.5-25.7c-0.1-0.1-0.2-0.3-0.3-0.3c-0.1,0-0.2-0.1-0.3,0
			c-5.5,0.7-11.1-0.1-16.2-2.2C34.6,107,27,88.4,33.8,72.3c1.4-3.4,3.4-6.5,5.9-9.1c0.1-0.1,0.2-0.3,0.1-0.5c0-0.2-0.2-0.3-0.3-0.4
			L5.7,48.1c-4.7-2-7-7.5-5-12.2L13.4,5.7c2-4.7,7.5-7,12.2-5L35,4.7c1,0.4,1.4,1.5,1,2.5c-0.4,1-1.5,1.4-2.5,1l-9.4-3.9
			c-2.8-1.2-6,0.1-7.2,3L4.3,37.3c-1.2,2.8,0.1,6,3,7.2L43,59.6c0.2,0.1,0.4,0.1,0.6-0.1c5.2-4,11.6-6.3,18.1-6.6
			c0.2,0,0.3-0.1,0.4-0.2c0.1-0.1,0.1-0.3,0.1-0.5c0-0.1-0.1-0.2-0.1-0.4l-0.8-9.5c0-0.2-0.2-0.4-0.3-0.5c0,0,0,0,0,0
			c-0.2-0.1-0.4,0-0.6,0.1l-7,6.2c-0.5,0.5-1.3,0.6-2,0.3c-0.7-0.3-1.1-0.9-1.2-1.6l-1.2-14.5c0-0.5,0.1-1,0.4-1.4
			c0.3-0.4,0.8-0.6,1.3-0.7c0.3,0,0.6,0,0.9,0.1c0.7,0.3,1.1,0.9,1.2,1.6l0.8,9.5c0,0.2,0.2,0.4,0.3,0.5c0,0,0,0,0,0
			c0.2,0.1,0.4,0,0.6-0.1l7-6.2c0.5-0.5,1.3-0.6,2-0.3c0.7,0.3,1.1,0.9,1.2,1.6l0.8,9.5c0,0.2,0.2,0.4,0.3,0.5c0,0,0,0,0,0
			c0.2,0.1,0.4,0,0.6-0.1l7-6.2c0.5-0.5,1.3-0.6,2-0.3c0.3,0.1,0.5,0.3,0.7,0.5c0.3,0.4,0.5,0.9,0.5,1.4c0,0.5-0.3,1-0.6,1.3
			l-9.6,8.5c-0.2,0.1-0.2,0.4-0.2,0.6c0.1,0.2,0.2,0.3,0.3,0.4c0,0,0.1,0,0.2,0c2.9,0.4,5.7,1.1,8.4,2.2c1.4,0.6,2.8,1.3,4.1,2.1
			c0,0,0,0,0.1,0c0.2,0.1,0.4,0.1,0.5,0c0.2-0.1,0.3-0.3,0.3-0.5l-1-11.9c-0.1-1,0.7-2,1.8-2.1c0.3,0,0.6,0,0.9,0.1
			c0.7,0.3,1.1,0.9,1.2,1.6l0.8,9.5c0,0.2,0.2,0.4,0.3,0.5c0,0,0,0,0,0c0.2,0.1,0.4,0,0.6-0.1l7-6.2c0.5-0.5,1.3-0.6,2-0.3
			c0.7,0.3,1.1,0.9,1.2,1.6l0.8,9.5c0,0.2,0.2,0.4,0.3,0.5c0,0,0,0,0,0c0.2,0.1,0.4,0,0.6-0.1l7-6.2c0.5-0.5,1.3-0.6,2-0.3
			c0.3,0.1,0.5,0.3,0.7,0.5c0.3,0.4,0.5,0.9,0.5,1.4c0,0.5-0.3,1-0.6,1.3l-10.7,9.5c-0.5,0.5-1.3,0.6-2,0.3
			c-0.7-0.3-1.1-0.9-1.2-1.6L91.4,55c0-0.2-0.2-0.4-0.3-0.5c0,0,0,0,0,0c-0.2-0.1-0.4,0-0.6,0.1l-6.3,5.6c-0.1,0.1-0.2,0.3-0.2,0.4
			c0,0.2,0.1,0.3,0.2,0.4c5.7,5.1,9.3,12.2,10.2,19.8c0,0.2,0.2,0.4,0.3,0.5c0,0,0,0,0,0c0.1,0,0.1,0,0.2,0.1l11,4.6
			c2.8,1.2,6-0.1,7.2-3l12.7-30.1c1.2-2.8-0.1-6-3-7.2L53.4,16.5c-1-0.4-1.4-1.5-1-2.5c0.4-1,1.5-1.4,2.5-1l69.4,29.2
			c4.7,2,7,7.5,5,12.2l-12.7,30.1c-2,4.7-7.5,7-12.2,5l-9.1-3.8c-0.2-0.1-0.4-0.1-0.5,0s-0.3,0.3-0.3,0.5c-0.2,3.6-1,7.2-2.4,10.6
			c-3.7,8.8-11.2,15.5-20.4,18.1c-0.2,0-0.3,0.2-0.4,0.3c-0.1,0.1-0.1,0.3,0,0.5l10.2,24.9c0.4,1,1.2,1.8,2.2,2.2s2.1,0.4,3.1,0
			c2-0.8,3-3.2,2.2-5.2l-4.1-10.1c-0.4-1,0.1-2.1,1-2.5c0.5-0.2,1-0.2,1.5,0c0.5,0.2,0.8,0.6,1,1l4.1,10.1c1.6,4-0.3,8.6-4.3,10.2
			C86.2,147.1,84.1,147.1,82.2,146.3z M73.7,58.9C59.6,53,43.2,59.7,37.3,73.8s0.7,30.5,14.9,36.4c14.1,5.9,30.5-0.7,36.4-14.9
			S87.9,64.9,73.7,58.9z"/>
		<path class="st4" d="M82.7,120.8c-0.5-0.2-0.8-0.6-1-1c-0.2-0.5-0.2-1,0-1.5c0.2-0.5,0.6-0.8,1-1c0.5-0.2,1-0.2,1.5,0
			c0.5,0.2,0.8,0.6,1,1c0.2,0.5,0.2,1,0,1.5c-0.2,0.5-0.6,0.8-1,1C83.7,121,83.1,121,82.7,120.8z"/>
	</g>
	<g>
		<path class="st5" d="M52.7,299.9L71,318.2c11.9,11.9,31.8,12.6,44.4,0c12.2-12.2,12.2-32.1,0-44.4l-18.3-18.3
			c-3.5-3.5-7.7-6.1-12.2-7.6l-6.1-0.4L65,248l-0.1-0.1c-4.5,1.5-8.7,4-12.2,7.6c-3.6,3.6-6.1,7.8-7.6,12.2l-11.3,2.9l11.3,17.1
			C46.6,292.1,49.1,296.3,52.7,299.9z M65,287.5l10-9.8l9.9-9.8l18.2,18.1c5.4,5.4,5.4,14.3,0,19.8c-5.4,5.4-14.2,5.5-19.8,0
			L65,287.5z"/>
		<path class="st6" d="M45.1,287.7l-11.3-17.1l11.3-2.9c1.5-4.4,4-8.6,7.6-12.2L75,277.8l-10,9.8l18.3,18.3c5.5,5.5,14.4,5.4,19.8,0
			l12.3,12.3c-12.6,12.6-32.5,11.9-44.4,0l-18.3-18.3C49.1,296.3,46.6,292.1,45.1,287.7z"/>
		<path class="st7" d="M23,309.8c-1.4-1.4-1.4-3.6,0-4.9l4.9-4.9c1.4-1.4,3.6-1.4,4.9,0c1.4,1.4,1.4,3.6,0,4.9l-4.9,4.9
			C26.6,311.1,24.4,311.1,23,309.8z"/>
		<path class="st8" d="M97.1,235.7c-1.4-1.4-1.4-3.6,0-4.9l4.9-4.9c1.4-1.4,3.6-1.4,4.9,0c1.4,1.4,1.4,3.6,0,4.9l-4.9,4.9
			C100.7,237.1,98.5,237.1,97.1,235.7z"/>
		<path class="st7" d="M18.7,283.8l-6.7,1.8c-1.9,0.5-3.8-0.6-4.3-2.5c-0.5-1.9,0.6-3.8,2.5-4.3l6.7-1.8c1.9-0.5,3.8,0.6,4.3,2.5
			C21.7,281.4,20.5,283.3,18.7,283.8z"/>
		<path class="st8" d="M119.9,256.7l-6.7,1.8c-1.9,0.5-3.8-0.6-4.3-2.5c-0.5-1.9,0.6-3.8,2.5-4.3l6.7-1.8c1.9-0.5,3.8,0.6,4.3,2.5
			C122.8,254.3,121.7,256.2,119.9,256.7z"/>
		<path class="st7" d="M49.6,325.1c-1.9-0.5-3-2.4-2.5-4.3l1.8-6.7c0.5-1.9,2.4-3,4.3-2.5c1.9,0.5,3,2.4,2.5,4.3l-1.8,6.7
			C53.4,324.5,51.5,325.6,49.6,325.1z"/>
		<path class="st8" d="M76.7,224c-1.9-0.5-3-2.4-2.5-4.3l1.8-6.7c0.5-1.9,2.4-3,4.3-2.5c1.9,0.5,3,2.4,2.5,4.3l-1.8,6.7
			C80.5,223.3,78.6,224.5,76.7,224z"/>
		<path class="st9" d="M14.6,261.9l18.3,18.3c3.5,3.5,7.7,6,12.2,7.6c-2.2-6.5-2.2-13.5,0-20l-18.2-18.1c-5.4-5.4-5.4-14.3,0-19.8
			c2.6-2.6,6.1-4,8.7-4c0.2-0.1,1-0.1,1.1,0c3.8,0,7.2,1.4,9.9,4L65,248c5.4,5.4,5.4,14.3,0,19.8c-5.4,5.4-5.4,14.3,0,19.8l0.1,0.1
			c4.6-1.5,8.7-4.1,12.2-7.6c3.6-3.6,6.1-7.8,7.6-12.2c2.2-6.5,2.2-13.5,0-20c-1.5-4.4-4-8.6-7.6-12.2L59,217.4
			c-12.3-12.3-32.2-12.2-44.4,0S2.4,249.6,14.6,261.9z"/>
		<g>
			<path class="st10" d="M65,267.8l12.3,12.3c-3.5,3.5-7.6,6-12.2,7.6l-0.1-0.1C59.6,282.1,59.6,273.2,65,267.8z"/>
			<path class="st10" d="M14.6,217.4l12.3,12.3c-5.4,5.4-5.4,14.3,0,19.8l18.2,18.1c-2.2,6.5-2.2,13.5,0,20
				c-4.5-1.5-8.7-4.1-12.2-7.6l-18.3-18.3C2.4,249.6,2.4,229.7,14.6,217.4z"/>
		</g>
	</g>
	<g>
		<path class="st11" d="M78.7,481.4l-1.3-2.8c-0.4-0.9-1.3-1.4-2.2-1.2c-2.2,0.3-4.3,0.3-6.5,0.2c-0.9,0-1.8,0.5-2.1,1.4l-1.1,2.9
			c0,0.1-0.1,0.2-0.1,0.3c8.2,8.8,7.7,22.6-1.1,30.7c-8.8,8.2-22.6,7.7-30.7-1.1c-8.2-8.8-7.7-22.6,1.1-30.7
			c3.1-2.9,7.1-4.9,11.3-5.6c0.1-0.3,0.1-0.6,0.2-0.9l1.1-2.9c0.3-0.9,0.1-1.9-0.7-2.4c-1.7-1.3-3.3-2.8-4.8-4.4
			c-0.6-0.7-1.6-0.9-2.5-0.5l-2.8,1.3c-2.4,1.1-5.2,0.5-7-1.3c-1.7,1.4-2.2,3.8-1.3,5.7l1,2.2c0.3,0.7,0.1,1.5-0.4,2
			c-1.3,1.2-2.5,2.4-3.5,3.8c-0.5,0.6-1.2,0.8-1.9,0.5l-2.3-0.9c-2.5-0.9-5.3,0.3-6.3,2.9l-2.3,6.1c-0.9,2.5,0.3,5.3,2.9,6.3
			l2.3,0.9c0.7,0.3,1.1,0.9,1.1,1.7c-0.1,1.7,0,3.4,0.2,5.1c0.1,0.7-0.3,1.4-1,1.8l-2.2,1c-2.5,1.1-3.5,4-2.4,6.5l2.7,6
			c1.1,2.5,4,3.5,6.5,2.4l2.2-1c0.7-0.3,1.5-0.1,2,0.4c1.2,1.3,2.4,2.5,3.8,3.5c0.6,0.5,0.8,1.2,0.5,1.9l-0.9,2.3
			c-0.9,2.5,0.3,5.3,2.9,6.3l6.1,2.3c2.5,0.9,5.3-0.3,6.3-2.9l0.9-2.3c0.3-0.7,0.9-1.1,1.7-1.1c1.7,0.1,3.4,0,5.1-0.2
			c0.7-0.1,1.4,0.3,1.7,1l1,2.2c1.1,2.5,4,3.5,6.5,2.4l5.9-2.7c2.5-1.1,3.5-4,2.4-6.5l-1-2.2c-0.3-0.7-0.1-1.5,0.4-2
			c1.3-1.2,2.5-2.4,3.5-3.8c0.5-0.6,1.2-0.8,1.9-0.5l2.3,0.9c2.5,0.9,5.3-0.3,6.3-2.9l2.3-6.1c0.9-2.5-0.3-5.3-2.9-6.3l-2.3-0.9
			c-0.7-0.3-1.1-0.9-1.1-1.7c0.1-1.7,0-3.4-0.2-5.1c-0.1-0.7,0.3-1.4,1-1.8l2.2-1c2.2-1,3.3-3.4,2.7-5.8
			C83,485.6,79.9,484.1,78.7,481.4z"/>
		<path class="st12" d="M40.5,477.1c-10.9,5-15.8,17.9-10.8,28.8c5,10.9,17.9,15.8,28.8,10.8c10.9-5,15.8-17.9,10.8-28.8
			c-1-2.2-2.3-4.1-3.9-5.9c-0.9,2.2-3,3.6-5.4,3.7c6.1,5.8,6.4,15.5,0.6,21.6c-5.8,6.1-15.5,6.4-21.6,0.6
			c-6.1-5.8-6.4-15.5-0.6-21.6c2.6-2.7,6.1-4.4,9.9-4.7c-1.9-1.4-2.8-3.9-2.3-6.2C44.1,475.8,42.2,476.3,40.5,477.1z"/>
		<path class="st13" d="M104.7,412l-2.8,1.3c-0.9,0.4-1.9,0.2-2.5-0.5c-1.5-1.6-3.1-3.1-4.8-4.4c-0.7-0.6-1-1.6-0.7-2.4l1.1-2.9
			c1.2-3.2-0.4-6.7-3.6-7.9l-7.7-2.9c-3.2-1.2-6.7,0.4-7.9,3.6l-1.1,2.9c-0.3,0.9-1.2,1.4-2.1,1.4c-2.2-0.1-4.4,0-6.5,0.2
			c-0.9,0.1-1.8-0.4-2.2-1.2l-1.3-2.8c-1.4-3.1-5.1-4.5-8.2-3.1l-7.5,3.4c-3.1,1.4-4.5,5.1-3.1,8.2l1.3,2.8c0.4,0.9,0.2,1.9-0.5,2.5
			c-1.6,1.5-3.1,3.1-4.4,4.8c-0.6,0.7-1.6,1-2.4,0.7l-2.9-1.1c-3.2-1.2-6.7,0.4-7.9,3.6l-2.9,7.7c-1.2,3.2,0.4,6.7,3.6,7.9l2.9,1.1
			c0.9,0.3,1.4,1.2,1.4,2.1c-0.1,2.2,0,4.4,0.2,6.5c0.1,0.9-0.4,1.8-1.2,2.2l-2.8,1.3c-3.1,1.4-4.5,5.1-3.1,8.2l3.4,7.5
			c1.4,3.1,5.1,4.5,8.2,3.1l2.8-1.3c0.9-0.4,1.9-0.2,2.5,0.5c1.5,1.6,3.1,3.1,4.8,4.4c0.7,0.6,1,1.6,0.7,2.4l-1.1,2.9
			c-1.2,3.2,0.4,6.7,3.6,7.9l7.7,2.9c3.2,1.2,6.7-0.4,7.9-3.6l1.1-2.9c0.3-0.9,1.2-1.4,2.1-1.4c2.2,0.1,4.4,0,6.5-0.2
			c0.9-0.1,1.8,0.4,2.2,1.2l1.3,2.8c1.4,3.1,5.1,4.5,8.2,3.1l7.5-3.4c3.1-1.4,4.5-5.1,3.1-8.2l-1.3-2.8c-0.4-0.9-0.2-1.9,0.5-2.5
			c1.6-1.5,3.1-3,4.4-4.8c0.6-0.7,1.6-1,2.4-0.7l2.9,1.1c3.2,1.2,6.7-0.4,7.9-3.6l2.9-7.7c1.2-3.2-0.4-6.7-3.6-7.9l-2.9-1.1
			c-0.9-0.3-1.4-1.2-1.4-2.1c0.1-2.2,0-4.4-0.2-6.5c-0.1-0.9,0.4-1.8,1.2-2.2l2.8-1.3c3.1-1.4,4.5-5.1,3.1-8.2l-3.4-7.5
			C111.5,412,107.8,410.6,104.7,412C104.7,412,104.7,412,104.7,412z"/>
		<path class="st11" d="M82.3,464.3c-14.1,6.4-30.7,0.2-37.1-13.9c-6.4-14.1-0.2-30.7,13.9-37.1c14.1-6.4,30.7-0.2,37.1,13.9l0,0
			C102.6,441.3,96.4,457.9,82.3,464.3z"/>
		<path class="st12" d="M61.7,419.2c-10.9,4.9-15.7,17.7-10.7,28.6c4.9,10.9,17.7,15.7,28.6,10.7c10.9-4.9,15.7-17.7,10.7-28.6
			C85.4,419,72.6,414.2,61.7,419.2z"/>
		<path class="st4" d="M95,482.4l-7.5,3.4c-3.8,1.7-8.3,0-10.1-3.8l-1.3-2.8c-0.1-0.3-0.4-0.4-0.7-0.4c-2.2,0.3-4.5,0.3-6.8,0.2
			c-0.3,0-0.6,0.2-0.7,0.4l-1.1,2.9c-1.5,3.9-5.9,5.9-9.8,4.5l-7.7-2.9c-3.9-1.5-5.9-5.9-4.5-9.8l1.1-2.9c0.1-0.3,0-0.6-0.2-0.8
			c-1.8-1.4-3.4-2.9-4.9-4.6c-0.2-0.2-0.5-0.3-0.8-0.2l-2.8,1.3c-3.8,1.7-8.4,0-10.1-3.8l-3.4-7.5c-1.7-3.8,0-8.3,3.8-10.1l2.8-1.3
			c0.3-0.1,0.4-0.4,0.4-0.7c-0.3-2.2-0.3-4.5-0.2-6.8c0-0.3-0.2-0.6-0.5-0.7l-2.9-1.1c-3.9-1.5-5.9-5.9-4.5-9.8l2.9-7.7
			c0.7-1.9,2.1-3.4,4-4.3c1.8-0.8,3.9-0.9,5.8-0.2l2.9,1.1c0.3,0.1,0.6,0,0.8-0.2c1.4-1.8,2.9-3.4,4.6-4.9c0.2-0.2,0.3-0.5,0.2-0.8
			l-1.3-2.8c-1.7-3.8,0-8.4,3.8-10.1l7.5-3.4c3.8-1.7,8.3,0,10.1,3.8l1.3,2.8c0.1,0.3,0.4,0.4,0.7,0.4c2.2-0.3,4.5-0.3,6.8-0.2
			c0.3,0,0.6-0.2,0.7-0.4l1.1-2.9c1.5-3.9,5.9-5.9,9.8-4.5l7.7,2.9c3.9,1.5,5.9,5.9,4.5,9.8l-1.1,2.9c-0.1,0.3,0,0.6,0.2,0.8
			c1.8,1.4,3.4,2.9,4.9,4.6c0.2,0.2,0.5,0.3,0.8,0.2l2.8-1.3c3.8-1.7,8.3,0,10.1,3.8l3.4,7.5c1.7,3.8,0,8.4-3.8,10.1l-2.8,1.3
			c-0.3,0.1-0.4,0.4-0.4,0.7c0.3,2.2,0.3,4.5,0.2,6.8c0,0.3,0.2,0.6,0.4,0.7l2.9,1.1c3.9,1.5,5.9,5.9,4.5,9.8l-2.9,7.7
			c-1.5,3.9-5.9,5.9-9.8,4.5l-2.9-1.1c-0.3-0.1-0.6,0-0.8,0.2c-1.4,1.8-2.9,3.4-4.6,4.9c-0.2,0.2-0.3,0.5-0.2,0.8l1.3,2.8
			C100.5,476.1,98.8,480.6,95,482.4z M67.1,476.4c0.5-0.2,1.1-0.3,1.7-0.3c2.1,0.1,4.2,0,6.3-0.2c1.6-0.2,3.1,0.7,3.7,2.1l1.3,2.8
			c1.1,2.4,3.9,3.4,6.2,2.3l7.5-3.4c2.4-1.1,3.4-3.9,2.3-6.2l-1.3-2.8c-0.7-1.4-0.3-3.1,0.9-4.2c1.6-1.4,3-2.9,4.3-4.6
			c1-1.2,2.6-1.7,4.1-1.1l2.9,1.1c2.4,0.9,5.2-0.3,6.1-2.8l2.9-7.7c0.9-2.4-0.3-5.1-2.8-6.1l-2.9-1.1c-1.5-0.5-2.4-2-2.3-3.6
			c0.1-2.1,0-4.2-0.2-6.3c-0.2-1.6,0.7-3.1,2.1-3.7l2.8-1.3c2.4-1.1,3.4-3.9,2.3-6.2l-3.4-7.5c-1.1-2.4-3.9-3.4-6.2-2.3l-2.8,1.3
			c-1.4,0.7-3.1,0.3-4.2-0.9c-1.4-1.6-2.9-3-4.6-4.3c-1.2-1-1.7-2.6-1.1-4.1l1.1-2.9c0.9-2.4-0.3-5.2-2.8-6.1l-7.7-2.9
			c-2.4-0.9-5.2,0.3-6.1,2.8l-1.1,2.9c-0.5,1.5-2,2.4-3.6,2.3c-2.1-0.1-4.2,0-6.3,0.2c-1.6,0.2-3.1-0.7-3.7-2.1l-1.3-2.8
			c-1.1-2.4-3.9-3.4-6.2-2.3l-7.5,3.4c-2.4,1.1-3.4,3.9-2.3,6.2l1.3,2.8c0.7,1.4,0.3,3.1-0.9,4.2c-1.6,1.4-3,2.9-4.3,4.6
			c-1,1.2-2.6,1.7-4.1,1.1l-2.9-1.1c-2.4-0.9-5.2,0.3-6.1,2.8l-2.9,7.7c-0.9,2.4,0.3,5.2,2.8,6.1l2.9,1.1c1.5,0.5,2.4,2,2.3,3.6
			c-0.1,2.1,0,4.2,0.2,6.3c0.2,1.6-0.7,3.1-2.1,3.7l-2.8,1.3c-2.4,1.1-3.4,3.9-2.3,6.2l3.4,7.5c1.1,2.4,3.9,3.4,6.2,2.3l2.8-1.3
			c1.4-0.7,3.1-0.3,4.2,0.9c1.4,1.6,2.9,3,4.6,4.3c1.2,1,1.7,2.6,1.1,4.1l-1.1,2.9c-0.9,2.4,0.3,5.2,2.8,6.1l7.7,2.9
			c2.4,0.9,5.2-0.3,6.1-2.8l1.1-2.9C65.6,477.6,66.2,476.8,67.1,476.4z"/>
		<path class="st4" d="M82.9,465.7c-14.8,6.7-32.3,0.2-39.1-14.7s-0.2-32.3,14.7-39.1c14.8-6.7,32.3-0.2,39.1,14.7
			C104.2,441.4,97.7,458.9,82.9,465.7z M59.7,414.6c-13.4,6.1-19.3,21.8-13.2,35.2c6.1,13.4,21.8,19.3,35.2,13.2
			s19.3-21.8,13.2-35.2C88.8,414.4,73,408.5,59.7,414.6z"/>
		<path class="st4" d="M68.9,531.7l-5.9,2.7c-3.2,1.4-6.9,0-8.4-3.1l-1-2.2c0-0.1-0.1-0.2-0.3-0.1c-1.8,0.2-3.6,0.3-5.4,0.2
			c-0.1,0-0.2,0.1-0.2,0.2l-0.8,2.3c-1.2,3.3-4.9,4.9-8.2,3.7l-6.1-2.3c-3.3-1.2-4.9-4.9-3.7-8.2l0.8-2.3c0-0.1,0-0.2-0.1-0.3
			c-1.4-1.1-2.7-2.3-3.9-3.7c-0.1-0.1-0.2-0.1-0.3-0.1l-2.2,1c-3.2,1.4-6.9,0-8.4-3.1l-2.7-5.9c-1.4-3.2,0-6.9,3.1-8.4l2.2-1
			c0.1,0,0.2-0.1,0.1-0.3c-0.2-1.8-0.3-3.6-0.2-5.4c0-0.1-0.1-0.2-0.2-0.2l-2.3-0.8c-3.3-1.2-4.9-4.9-3.7-8.2l2.3-6.1
			c1.2-3.3,4.9-4.9,8.2-3.7l2.3,0.9c0.1,0,0.2,0,0.3-0.1c1.1-1.4,2.3-2.7,3.7-3.9c0.1-0.1,0.1-0.2,0.1-0.3l-1-2.2
			c-1.2-2.6-0.5-5.6,1.7-7.5c0.6-0.5,1.5-0.4,2,0.1c1.4,1.4,3.5,1.9,5.3,1l2.8-1.3c1.4-0.7,3.1-0.3,4.2,0.9c1.4,1.6,2.9,3,4.6,4.3
			c1.2,1,1.7,2.6,1.1,4.1l-1.1,2.9c-0.9,2.4,0.3,5.2,2.8,6.1l7.7,2.9c2.4,0.9,5.2-0.3,6.1-2.8l1.1-2.9c0.5-1.5,2-2.4,3.6-2.3
			c2.1,0.1,4.2,0,6.3-0.2c1.6-0.2,3.1,0.7,3.7,2.1l1.3,2.8c0.9,2.1,3.2,3.2,5.5,2.6c0.8-0.2,1.5,0.3,1.8,1c0.8,3-0.6,6.2-3.5,7.5
			l-2.2,1c-0.1,0-0.2,0.1-0.1,0.3c0.2,1.8,0.3,3.6,0.2,5.4c0,0.1,0.1,0.2,0.2,0.2l2.3,0.9c3.3,1.2,4.9,4.9,3.7,8.2c0,0,0,0,0,0
			l-2.3,6.1c-1.2,3.3-4.9,4.9-8.2,3.7l-2.3-0.8c-0.1,0-0.2,0-0.3,0.1c-1.1,1.4-2.3,2.7-3.7,3.9c-0.1,0.1-0.1,0.2-0.1,0.3l1,2.2
			C73.5,526.5,72,530.2,68.9,531.7z M46.6,526.4c0.5-0.2,1-0.3,1.5-0.3c1.6,0.1,3.3,0,4.9-0.2c1.4-0.2,2.7,0.6,3.2,1.8l1,2.2
			c0.8,1.7,2.8,2.5,4.5,1.7l5.9-2.7c1.7-0.8,2.5-2.8,1.7-4.5l-1-2.2c-0.6-1.3-0.3-2.7,0.8-3.6c1.2-1.1,2.3-2.3,3.3-3.6
			c0.8-1.1,2.3-1.5,3.6-1l2.3,0.9c1.8,0.7,3.7-0.2,4.4-2l2.3-6.1c0.7-1.8-0.2-3.7-2-4.4l-2.3-0.9c-1.3-0.5-2.1-1.7-2-3.1
			c0.1-1.6,0-3.3-0.2-4.9c-0.2-1.4,0.6-2.7,1.8-3.2l2.2-1c1.1-0.5,1.9-1.6,2-2.8c-3.1,0.1-5.9-1.7-7.2-4.5l-1.3-2.8
			c-0.1-0.3-0.4-0.4-0.7-0.4c-2.2,0.3-4.5,0.3-6.8,0.2c-0.3,0-0.6,0.2-0.7,0.4l-1.1,2.9c-1.5,3.9-5.9,5.9-9.8,4.5l-7.7-2.9
			c-3.9-1.5-5.9-5.9-4.5-9.8l1.1-2.9c0.1-0.3,0-0.6-0.2-0.8c-1.8-1.4-3.4-2.9-4.9-4.6c-0.2-0.2-0.5-0.3-0.8-0.2l-2.8,1.3
			c-2.4,1.1-5.2,0.9-7.4-0.6c-0.5,1-0.6,2.1-0.1,3.1l1,2.2c0.6,1.3,0.3,2.7-0.8,3.6c-1.2,1.1-2.3,2.3-3.4,3.6
			c-0.8,1.1-2.3,1.5-3.6,1l-2.3-0.9c-1.8-0.7-3.7,0.2-4.4,2l-2.3,6.1c-0.7,1.8,0.2,3.7,2,4.4l2.3,0.9c1.3,0.5,2.1,1.7,2,3.1
			c-0.1,1.6,0,3.3,0.2,4.9c0.2,1.4-0.6,2.7-1.8,3.2l-2.2,1c-1.7,0.8-2.5,2.8-1.7,4.5l2.7,5.9c0.8,1.7,2.8,2.5,4.5,1.7l2.2-1
			c1.3-0.6,2.7-0.3,3.6,0.8c1.1,1.2,2.3,2.3,3.6,3.3c1.1,0.8,1.5,2.3,1,3.6l-0.9,2.3c-0.7,1.8,0.2,3.7,2,4.4l6.1,2.3
			c1.8,0.7,3.7-0.2,4.4-2l0.9-2.3C45.2,527.4,45.8,526.8,46.6,526.4z"/>
		<path class="st4" d="M59.1,518.1c-11.7,5.3-25.4,0.2-30.7-11.5c-5.3-11.7-0.2-25.4,11.5-30.7c1.9-0.9,3.8-1.5,5.9-1.8
			c0.8-0.1,1.5,0.4,1.7,1.2c0,0.2,0,0.4,0,0.5c-0.4,1.8,0.3,3.6,1.8,4.7c0.6,0.5,0.8,1.4,0.3,2c-0.3,0.3-0.6,0.5-1.1,0.6
			c-7.6,0.6-13.3,7.3-12.7,14.9c0.6,7.6,7.3,13.3,14.9,12.7c7.6-0.6,13.3-7.3,12.7-14.9c-0.3-3.4-1.8-6.6-4.3-9
			c-0.6-0.6-0.6-1.5-0.1-2.1c0.3-0.3,0.6-0.4,1-0.5c1.8-0.1,3.4-1.2,4.1-2.8c0.3-0.7,1.2-1.1,1.9-0.8c0.2,0.1,0.3,0.2,0.5,0.3
			c8.7,9.4,8.2,24-1.1,32.8C63.5,515.6,61.4,517,59.1,518.1z M41.1,478.5c-10.2,4.6-14.7,16.7-10.1,26.9
			c4.6,10.2,16.7,14.7,26.9,10.1c10.2-4.6,14.7-16.7,10.1-26.9c-0.6-1.4-1.5-2.8-2.4-4c-0.8,0.9-1.7,1.6-2.8,2.1
			c5.7,7.3,4.3,17.8-3,23.5c-7.3,5.7-17.8,4.3-23.5-3c-5.7-7.3-4.3-17.8,3-23.5c1.8-1.4,4-2.5,6.2-3c-0.6-1-1-2.2-1.1-3.4
			C43.3,477.6,42.2,478,41.1,478.5z"/>
		<path class="st4" d="M78.2,448.4l-8.4,3.8c-0.7,0.3-1.6,0-1.9-0.7s0-1.6,0.7-1.9l8.4-3.8c1.9-0.9,2.7-3.1,1.9-5
			c-0.9-1.9-3.1-2.7-5-1.9l-5.3,2.4c-3.4,1.5-7.3,0-8.8-3.4c-1.5-3.3,0-7.2,3.3-8.8l7.5-3.4c0.7-0.3,1.6,0,1.9,0.7
			c0.3,0.7,0,1.6-0.7,1.9l-7.5,3.4c-1.9,0.9-2.7,3.1-1.8,5c0.9,1.8,3.1,2.7,4.9,1.8l5.3-2.4c3.4-1.5,7.3,0,8.8,3.3
			S81.6,446.9,78.2,448.4z"/>
		<path class="st4" d="M77.1,452.9c-0.7,0.3-1.6,0-1.9-0.7l-11.6-25.5c-0.3-0.7,0-1.6,0.7-1.9c0.7-0.3,1.6,0,1.9,0.7l11.6,25.5
			C78.1,451.7,77.8,452.5,77.1,452.9z"/>
		<path class="st4" d="M80.2,459.8c-11.6,5.3-25.2,0.1-30.5-11.4c-5.3-11.6-0.1-25.2,11.4-30.5c11.6-5.3,25.2-0.1,30.5,11.4l0,0
			C96.9,440.9,91.8,454.5,80.2,459.8z M62.3,420.5c-10.1,4.6-14.6,16.5-10,26.6c4.6,10.1,16.5,14.6,26.6,10
			c10.1-4.6,14.6-16.5,10-26.6C84.4,420.4,72.5,415.9,62.3,420.5z"/>
	</g>
</g>
</svg>
