<?xml version="1.0" encoding="utf-8"?>
<!-- Generator: Adobe Illustrator 25.0.0, SVG Export Plug-In . SVG Version: 6.00 Build 0)  -->
<svg version="1.1" id="Layer_1" xmlns="http://www.w3.org/2000/svg" xmlns:xlink="http://www.w3.org/1999/xlink" x="0px" y="0px"
	 viewBox="0 0 459.2 430" style="enable-background:new 0 0 459.2 430;" xml:space="preserve">
<style type="text/css">
	.st0{fill:#F7F7F7;}
	.st1{fill:#34A853;}
	.st2{fill:#A9EAB0;}
	.st3{fill:#4285F4;}
	.st4{fill:#FBBC05;}
	.st5{fill:#B6FFC2;}
	.st6{fill:#35414D;}
	.st7{fill:#FFFFFF;}
	.st8{fill:#756E75;}
	.st9{fill:#EFEFEF;}
	.st10{fill:#FFDC8D;}
	.st11{fill:#E8C57E;}
	.st12{fill:#CCCCCC;}
	.st13{fill:#78CAEF;}
	.st14{fill-rule:evenodd;clip-rule:evenodd;fill:#FFFFFF;}
	.st15{fill-rule:evenodd;clip-rule:evenodd;fill:#FBBC05;}
</style>
<g>
	<g>
		<rect x="305.5" y="102" class="st0" width="150.9" height="43.9"/>
		<polygon class="st1" points="456.4,45.3 456.4,89.2 412.5,89.2 405.2,67.2 412.5,45.3 		"/>
		<polygon class="st2" points="412.5,45.3 412.5,89.2 401.5,89.2 394.2,67.2 401.5,45.3 		"/>
		<polygon class="st3" points="338.4,156.9 338.4,178.8 331.1,178.8 323.8,167.8 331.1,156.9 		"/>
		<rect x="316.5" y="156.9" class="st4" width="14.6" height="21.9"/>
		<polygon class="st2" points="338.4,113 338.4,134.9 331.1,134.9 323.8,123.9 331.1,113 		"/>
		<rect x="316.5" y="113" class="st5" width="14.6" height="21.9"/>
		<rect x="305.5" y="45.3" class="st5" width="96" height="43.9"/>
		<path class="st6" d="M456.4,42.5H305.5c-1.5,0-2.7,1.2-2.7,2.7v43.9c0,1.5,1.2,2.7,2.7,2.7h150.9c1.5,0,2.7-1.2,2.7-2.7V45.3
			C459.2,43.8,457.9,42.5,456.4,42.5z M308.3,48h101.5v38.4H308.3V48z M453.7,86.4h-38.4V48h38.4V86.4z"/>
		<path class="st3" d="M350.9,177.9h74c2.3,0,4.2-1.2,4.2-2.7s-1.9-2.7-4.2-2.7h-74c-2.3,0-4.2,1.2-4.2,2.7
			C346.7,176.7,348.6,177.9,350.9,177.9z"/>
		<path class="st3" d="M445.4,157.8h-96c-1.5,0-2.7,1.2-2.7,2.7c0,1.5,1.2,2.7,2.7,2.7h96c1.5,0,2.7-1.2,2.7-2.7
			S447,157.8,445.4,157.8z"/>
		<path class="st3" d="M350.9,134h74c2.3,0,4.2-1.2,4.2-2.7c0-1.5-1.9-2.7-4.2-2.7h-74c-2.3,0-4.2,1.2-4.2,2.7
			C346.7,132.8,348.6,134,350.9,134z"/>
		<path class="st3" d="M349.4,119.4h96c1.5,0,2.7-1.2,2.7-2.7s-1.2-2.7-2.7-2.7h-96c-1.5,0-2.7,1.2-2.7,2.7S347.9,119.4,349.4,119.4
			z"/>
		<path class="st6" d="M456.4,99.2H305.5c-1.5,0-2.7,1.2-2.7,2.7v43.9c0,1.5,1.2,2.7,2.7,2.7h150.9c1.5,0,2.7-1.2,2.7-2.7V102
			C459.2,100.5,457.9,99.2,456.4,99.2z M453.7,143.1H308.3v-38.4h145.4L453.7,143.1L453.7,143.1z"/>
		<path class="st7" d="M424,72.6c2.1,2.1,4.9,3.3,7.9,3.3c2.1,0,4-0.6,5.7-1.6l5.8,5.8c0.5,0.5,1.2,0.8,1.9,0.8
			c0.7,0,1.4-0.3,1.9-0.8c1.1-1.1,1.1-2.8,0-3.9l-5.8-5.8c1-1.7,1.6-3.7,1.6-5.7c0-3-1.2-5.8-3.3-7.9c-4.4-4.4-11.5-4.4-15.8,0
			C419.7,61.2,419.7,68.3,424,72.6z M427.9,60.7c1.1-1.1,2.6-1.7,4-1.7c1.5,0,2.9,0.6,4,1.7c1.1,1.1,1.7,2.5,1.7,4
			c0,1.5-0.6,3-1.7,4s-2.5,1.7-4,1.7c-1.5,0-3-0.6-4-1.7C425.7,66.5,425.7,62.9,427.9,60.7z"/>
		<path class="st6" d="M338.4,154.1h-21.9c-1.5,0-2.7,1.2-2.7,2.7v21.9c0,1.5,1.2,2.7,2.7,2.7h21.9c1.5,0,2.7-1.2,2.7-2.7v-21.9
			C341.2,155.3,340,154.1,338.4,154.1z M335.7,176.1h-16.5v-16.5h16.5L335.7,176.1z"/>
		<path class="st6" d="M316.5,137.6h21.9c1.5,0,2.7-1.2,2.7-2.7V113c0-1.5-1.2-2.7-2.7-2.7h-21.9c-1.5,0-2.7,1.2-2.7,2.7v21.9
			C313.7,136.4,315,137.6,316.5,137.6z M319.2,115.7h16.5v16.5h-16.5V115.7z"/>
	</g>
	<g>
		<g>
			<path class="st8" d="M331.4,227l-12.1,53.2c-1.4,5.9-7.3,9.6-13.2,8.3s-9.6-7.3-8.3-13.2l12.1-53.2"/>
			<path class="st9" d="M168.9,38.4h16.3c8,0,14.5,6.5,14.5,14.5c0,4-1.6,7.6-4.3,10.3c-2.6,2.6-6.3,4.3-10.3,4.3H174"/>
			<path class="st9" d="M174,67.5h11.2c8,0,14.5,6.5,14.5,14.5c0,4-1.6,7.6-4.3,10.3c-2.6,2.6-6.3,4.3-10.3,4.3h-9"/>
			<path class="st10" d="M63.4,133.5V61.7c0-30.5,24.8-55.3,55.3-55.3l0,0c30.5,0,55.3,24.8,55.3,55.3v28.1l26.8,83.2H174v15.2
				c0,29.6-24,53.5-53.5,53.5h-1.8c-30.5,0-55.3-24.8-55.3-55.3v-13.5"/>
			<path class="st11" d="M80.9,186.3v-13.5v-39.3V61.7c0-27.6,20.2-50.4,46.6-54.6c-2.8-0.5-5.8-0.7-8.7-0.7l0,0
				c-30.5,0-55.3,24.8-55.3,55.3v71.8v39.3v13.5c0,30.5,24.8,55.3,55.3,55.3h1.8c2.6,0,5.2-0.2,7.8-0.6
				C101.5,237.2,80.9,214.2,80.9,186.3z"/>
			<path class="st11" d="M75.8,139.2c-7.7-7.7-20.2-7.7-27.9,0s-7.7,20.2,0,27.9s20.2,7.7,27.9,0"/>
			<path class="st9" d="M200.4,323.3c0,11.6-2.4,34.7-6.8,62.7c-1.7,13.8-2.8,26.4-3.3,37.6H48.2c-1-12.5-2.4-25.6-4.4-37.6
				c-4.4-28-6.8-51.2-6.8-62.7c0-45.1,36.6-81.7,81.7-81.7C163.9,241.6,200.4,278.2,200.4,323.3z"/>
			<path class="st12" d="M70.3,323.3c0,11.6,1.4,34.7,4,62.7c1.2,12,2,25,2.6,37.6H48.2c-1-12.5-2.4-25.6-4.4-37.6
				c-4.4-28-6.8-51.2-6.8-62.7c0-45.1,36.6-81.7,81.7-81.7C92,241.6,70.3,278.2,70.3,323.3z"/>
			<circle class="st13" cx="139.9" cy="131.4" r="22.7"/>
			<circle class="st13" cx="211.7" cy="131.4" r="22.7"/>
			<path class="st9" d="M94.1,38.4H37.8c-8,0-14.5,6.5-14.5,14.5l0,0c0,8,6.5,14.5,14.5,14.5h56.2"/>
			<g>
				<path class="st9" d="M94.1,67.5H46.4c-8,0-14.5,6.5-14.5,14.5l0,0c0,8,6.5,14.5,14.5,14.5h47.7"/>
			</g>
		</g>
		<g>
			<path class="st6" d="M182.3,327.1c0-3.5-2.9-6.4-6.4-6.4h-26.2c-3.5,0-6.4,2.9-6.4,6.4s2.9,6.4,6.4,6.4h26.2
				C179.4,333.5,182.3,330.7,182.3,327.1z"/>
			<path class="st6" d="M302.3,226.3l-6.4,27.9c-22.4,7.4-30.2,24.3-36,37c-0.7,1.6-1.5,3.2-2.2,4.7c-7.7,16-15.6,24.6-22.7,24.9
				c-12.9,0.6-29.2-23.6-42-44.8c-0.2-0.3-0.3-0.5-0.5-0.7c-10.3-15.8-25.5-28-43.4-34.7c18.5-10.1,31.1-29.7,31.2-52.2c0,0,0,0,0,0
				c0-0.1,0-0.2,0-0.3v-8.8h20.4c2,0,4-1,5.2-2.6c1.2-1.7,1.5-3.8,0.9-5.7l-3.8-11.7c2.7,0.8,5.6,1.3,8.5,1.3
				c16,0,29.1-13,29.1-29.1s-13-29.1-29.1-29.1c-9.4,0-17.9,4.5-23.2,11.5l-3.5-10.9h0.2c5.6,0,10.9-2.2,14.8-6.1
				c4-3.9,6.1-9.2,6.1-14.8c0-5.6-2.3-10.8-5.9-14.5c3.8-3.9,5.9-9.1,5.9-14.5c0-11.5-9.4-20.9-20.9-20.9h-12.4
				c-2.8-5.1-6.3-9.7-10.5-13.9C150.7,6.4,135.2,0,118.7,0C96.2,0,75.4,12.4,64.7,32H37.8c-11.5,0-20.9,9.4-20.9,20.9
				c0,8.1,4.6,15.1,11.3,18.6c-1.8,3.1-2.8,6.7-2.8,10.5c0,11.5,9.4,20.9,20.9,20.9h47.7c3.5,0,6.4-2.9,6.4-6.4
				c0-3.5-2.9-6.4-6.4-6.4H46.4c-4.5,0-8.2-3.7-8.2-8.2c0-4.5,3.7-8.2,8.2-8.2h47.7c3.5,0,6.4-2.9,6.4-6.4c0-3.5-2.9-6.4-6.4-6.4
				H46.4h-8.5c-4.5,0-8.2-3.7-8.2-8.2s3.7-8.2,8.2-8.2h56.2c3.5,0,6.4-2.9,6.4-6.4c0-3.5-2.9-6.4-6.4-6.4H79.9
				c9.1-11.9,23.5-19.2,38.9-19.2c13.1,0,25.3,5.1,34.6,14.3c9.2,9.2,14.3,21.5,14.3,34.6v28.1c0,0.7,0.1,1.3,0.3,2l10.7,33.3h-10.4
				c-2.9-13-14.5-22.7-28.4-22.7s-25.4,9.7-28.4,22.7h-17c-3.5,0-6.4,2.9-6.4,6.4c0,3.5,2.9,6.4,6.4,6.4h17
				c2.9,13,14.5,22.7,28.4,22.7s25.4-9.7,28.4-22.7h14.5l9.3,28.7h-18c-3.5,0-6.4,2.9-6.4,6.4v12.2c-2.3,1.2-8.1,2.7-18.9-2.7
				c-3.1-1.6-7-0.3-8.6,2.8c-1.6,3.1-0.3,7,2.8,8.6c7.7,3.9,14.1,5.3,19.2,5.3c1.5,0,2.9-0.1,4.2-0.3c-4.8,20.9-23.6,36.5-45.9,36.5
				h-1.8c-27,0-48.9-21.9-48.9-48.9V178c3.9-1.2,7.5-3.4,10.5-6.4c2.5-2.5,2.5-6.5,0-9s-6.5-2.5-9,0c-2.5,2.5-5.9,3.9-9.4,3.9
				s-6.9-1.4-9.4-3.9c-5.2-5.2-5.2-13.6,0-18.8c5.2-5.2,13.6-5.2,18.8,0c2.5,2.5,6.5,2.5,9,0c2.5-2.5,2.5-6.5,0-9
				c-3-3-6.6-5.2-10.5-6.4v-13c0-3.5-2.9-6.4-6.4-6.4s-6.4,2.9-6.4,6.4v12.2c-5,0.9-9.8,3.3-13.6,7.2c-10.2,10.2-10.2,26.7,0,36.9
				c3.8,3.8,8.5,6.2,13.6,7.2v7.5c0,23.3,12.9,43.5,32,54c-8.2,2.9-15.8,7-22.7,12.1c-0.1,0.1-0.2,0.1-0.3,0.2
				c-6,1.8-18.8,6.7-31.6,17.6C18.8,283.7,0,309.2,0,354.7c0,19.3,2.4,42.8,7.3,70.1c0.5,3.1,3.2,5.3,6.3,5.3c0.4,0,0.7,0,1.1-0.1
				c3.5-0.6,5.8-3.9,5.2-7.4c-4.7-26.5-7.1-49.3-7.1-67.8c0-31.7,9.6-56.4,28.5-73.3c-6.8,12.5-10.7,26.8-10.7,42
				c0,10.3,1.8,29,5,51.2l3.4,23c1.1,8.1,2,17,2.8,26.6c0.3,3.3,3,5.9,6.4,5.9h91.2c3.5,0,6.4-2.9,6.4-6.4s-2.9-6.4-6.4-6.4h-14.3
				V265.9l13.4,23.8c1,1.8,2.9,3,5,3.2c0.2,0,0.4,0,0.6,0c1.9,0,3.7-0.8,4.9-2.3l19.6-23.6c15.6,13.8,25.4,33.9,25.4,56.3
				c0,11.6-2.6,35.3-6.7,61.8c0,0.1,0,0.1,0,0.2c-1.3,10.8-2.4,21.5-3,32h-23.6c-3.5,0-6.4,2.9-6.4,6.4c0,3.5,2.9,6.4,6.4,6.4h29.6
				c3.4,0,6.2-2.7,6.4-6.1c0.6-12,1.7-24.5,3.3-37c4.3-27.5,6.8-51.3,6.8-63.6c0-1.9-0.1-3.8-0.2-5.7c9.2,10.2,18.3,16.1,27.9,16.1
				c0.4,0,0.7,0,1.1,0c12.5-0.6,23.5-11.1,33.7-32.1c0.8-1.6,1.5-3.2,2.3-4.9c4.6-10.1,9.4-20.5,20.8-26.9l-1,4.2
				c-2.1,9.4,3.7,18.7,13.1,20.8c1.3,0.3,2.6,0.4,3.9,0.4c7.9,0,15.1-5.5,17-13.5l10.9-47.5C318.6,228.6,318.6,228.6,302.3,226.3z
				 M139.9,147.7c-9,0-16.3-7.3-16.3-16.3s7.3-16.3,16.3-16.3c9,0,16.3,7.3,16.3,16.3S148.9,147.7,139.9,147.7z M211.7,115.1
				c9,0,16.3,7.3,16.3,16.3s-7.3,16.3-16.3,16.3c-9,0-16.3-7.3-16.3-16.3S202.7,115.1,211.7,115.1z M191,87.8
				c-1.5,1.5-3.6,2.4-5.8,2.4h-4.3l-0.5-1.4V73.9h4.8c4.5,0,8.2,3.7,8.2,8.2C193.4,84.2,192.5,86.2,191,87.8z M185.2,44.8
				c4.5,0,8.2,3.7,8.2,8.2c0,2.2-0.8,4.2-2.4,5.8c-1.5,1.5-3.6,2.4-5.8,2.4h-4.8c-0.1-5.6-0.8-11.1-2.3-16.3L185.2,44.8L185.2,44.8z
				 M107.3,248.8l-15,26.5l-13.3-16C87.5,254.1,97,250.4,107.3,248.8z M54.1,417.2c-0.7-7.7-1.5-14.9-2.4-21.5c0,0,0-0.1,0-0.1
				l-3.4-23c-3.1-21.6-4.8-39.6-4.8-49.4c0-22.4,9.8-42.5,25.4-56.3l19.6,23.6c1.3,1.6,3.4,2.5,5.5,2.3c2.1-0.2,4-1.4,5-3.2
				l13.4-23.8v151.3H54.1z M145.1,275.3l-15-26.5c10.2,1.6,19.8,5.2,28.2,10.5L145.1,275.3z M313,278.8c-0.6,2.5-3.1,4.1-5.6,3.5
				c-2.5-0.6-4.1-3.1-3.5-5.5l2.8-12.1c0.7-0.1,1.3-0.3,2-0.4c3.5-0.6,5.9-3.8,5.3-7.3c-0.4-2.5-2.2-4.4-4.4-5.1l4.7-20.7
				c1.5,0.4,3,0.9,4.5,1.2c1.5,0.3,3,0.6,4.6,0.9L313,278.8z"/>
		</g>
	</g>
	<path class="st14" d="M310.2,193c0,11.2,9.1,20.2,20.2,20.2c11.2,0,20.2-9.1,20.2-20.2c0-11.2-9.1-20.2-20.2-20.2
		C319.2,172.8,310.2,181.8,310.2,193z"/>
	<path class="st15" d="M339,151.3c0-2.7-2.2-4.9-4.9-4.9H327c-2.7,0-4.9,2.2-4.9,4.9v4.5c-4.3,1-8.3,2.6-11.9,4.9l-3.2-3.2
		c-1.9-1.9-5-1.9-6.9,0l-1.9,1.9l-3.2,3.2c-1.9,1.9-1.9,5,0,6.9l3.2,3.2c-2.3,3.6-3.9,7.6-4.9,11.8h-4.5c-2.7,0-4.9,2.2-4.9,4.9v7.2
		c0,2.7,2.2,4.9,4.9,4.9h4.5c1,4.2,2.6,8.2,4.9,11.7l-3.2,3.2c-1.9,1.9-1.9,5,0,6.9l5.1,5.1c1.9,1.9,5,1.9,6.9,0l3.2-3.2
		c3.6,2.2,7.5,3.9,11.8,4.9v4.6c0,2.7,2.2,4.9,4.9,4.9h7.2c2.7,0,4.9-2.2,4.9-4.9v-4.6c4.2-1,8.2-2.6,11.8-4.9l3.2,3.2
		c1.9,1.9,5,1.9,6.9,0l5.1-5.1c1.9-1.9,1.9-5,0-6.9l-3.2-3.2c2.2-3.6,3.9-7.5,4.9-11.7h4.6c2.7,0,4.9-2.2,4.9-4.9v-7.2
		c0-2.7-2.2-4.9-4.9-4.9h-4.5c-1-4.2-2.6-8.1-4.8-11.7l3.2-3.2c1.9-1.9,1.9-5,0-6.9l-5.1-5.1c-1.9-1.9-5-1.9-6.9,0l-3.2,3.2
		c-3.6-2.3-7.5-3.9-11.8-4.9L339,151.3L339,151.3z M350.7,193c0,11.2-9.1,20.2-20.2,20.2c-11.2,0-20.2-9.1-20.2-20.2
		c0-11.2,9.1-20.2,20.2-20.2C341.6,172.8,350.7,181.8,350.7,193z"/>
	<path class="st6" d="M306.2,193c0,13.3,10.9,24.2,24.2,24.2c13.3,0,24.2-10.9,24.2-24.2c0-13.3-10.9-24.2-24.2-24.2
		C317.1,168.8,306.2,179.6,306.2,193z M314.1,193c0-9,7.3-16.3,16.3-16.3c9,0,16.3,7.3,16.3,16.3c0,9-7.3,16.3-16.3,16.3
		C321.4,209.3,314.1,202,314.1,193z"/>
	<g>
		<g>
			<path class="st6" d="M372.1,180.5h-1.4c0,0,0,0,0,0c-0.8-2.4-1.7-4.8-2.9-7c0,0,0,0,0-0.1l1.1-1.1c1.7-1.7,2.6-3.9,2.6-6.3
				c0-2.4-0.9-4.6-2.6-6.3l-5.1-5.1c-1.7-1.7-3.9-2.6-6.3-2.6c0,0,0,0,0,0c-2.4,0-4.6,0.9-6.3,2.6l-1,1c0,0,0,0-0.1,0
				c-2.3-1.2-4.6-2.2-7.1-3c0,0,0,0,0,0v-1.5c0-4.9-4-8.9-8.9-8.9H327c-4.9,0-8.9,4-8.9,8.9v1.3c0,0,0,0,0,0c-2.5,0.8-4.9,1.8-7.3,3
				c0,0,0,0-0.1,0l-1-1c-1.6-1.7-3.9-2.6-6.2-2.6h0c-0.5,0-0.9,0-1.4,0.1c0,0,0,0,0,0l-7.9,5.5c0,0,0,0,0,0l-1.8,1.8
				c-1.4,1.4-2.4,3.2-2.7,5.2c-0.4,2.9,0.5,5.6,2.5,7.6l1,1c0,0,0,0,0,0.1c-1.2,2.3-2.2,4.7-3,7.1c0,0,0,0,0,0h-1.4
				c-4.9,0-8.9,4-8.9,8.9v7.1c0,4.9,4,8.9,8.9,8.9h1.4c0,0,0,0,0,0c0.8,2.4,1.7,4.8,2.9,7.1c0,0,0,0,0,0.1l-1,1
				c-1.7,1.7-2.6,3.9-2.6,6.3c0,2.4,0.9,4.6,2.6,6.3l5.1,5.1c1.7,1.7,3.9,2.6,6.3,2.6h0c2.4,0,4.6-0.9,6.3-2.6l1-1c0,0,0,0,0.1,0
				c2.3,1.2,4.7,2.2,7.1,3c0,0,0,0,0,0v1.4c0,4.9,4,8.9,8.9,8.9h7.1c4.9,0,8.9-4,8.9-8.9v-1.4c0,0,0,0,0,0c2.4-0.8,4.8-1.7,7.1-2.9
				c0,0,0,0,0.1,0l1,1c1.7,1.7,3.9,2.6,6.3,2.6l0,0c2.4,0,4.6-0.9,6.3-2.6l5.1-5.1c3.4-3.4,3.5-9.1,0-12.5l-1-1c0,0,0,0,0-0.1
				c1.2-2.3,2.2-4.6,2.9-7.1c0,0,0,0,0,0c8.1-0.4,10-6.9,10.3-8.3c0-0.2,0-0.3,0.1-0.5v-7.2C381,184.5,377,180.5,372.1,180.5z
				 M373.1,196.5c0,0.5-0.4,1-1,1h-4.5c-1.9,0-3.4,1.3-3.9,3.1c-0.9,3.7-2.3,7.3-4.4,10.5c-1,1.6-0.8,3.6,0.6,4.9l3.2,3.2
				c0.4,0.4,0.4,1,0,1.4l-5,5c-0.2,0.2-0.5,0.3-0.7,0.3h0c-0.2,0-0.4,0-0.7-0.3l-3.2-3.2c-0.8-0.8-1.8-1.2-2.8-1.2
				c-0.7,0-1.4,0.2-2.1,0.6c-3.3,2.1-6.8,3.5-10.6,4.4c-1.8,0.4-3.1,2-3.1,3.9v4.5c0,0.5-0.4,1-1,1h-7.1c-0.5,0-1-0.4-1-1v-4.5
				c0-1.9-1.3-3.5-3.1-3.9c-3.8-0.9-7.3-2.3-10.6-4.4c-1.6-1-3.6-0.8-4.9,0.6l-3.2,3.2c-0.2,0.2-0.5,0.3-0.7,0.3
				c-0.1,0-0.4,0-0.7-0.3l-5.1-5.1c-0.2-0.2-0.3-0.5-0.3-0.7c0-0.1,0-0.4,0.3-0.7l3.2-3.2c1.3-1.3,1.5-3.3,0.6-4.9
				c-2.1-3.3-3.5-6.8-4.4-10.5c-0.4-1.8-2-3.1-3.9-3.1h-4.5c-0.5,0-1-0.4-1-1v-7.1c0-0.5,0.4-1,1-1h4.5c1.9,0,3.5-1.3,3.9-3.1
				c0.9-3.8,2.3-7.3,4.4-10.6c1-1.6,0.8-3.6-0.5-4.9l-3.2-3.2c-0.2-0.2-0.3-0.5-0.3-0.7c0-0.1,0-0.4,0.3-0.7l5.1-5.1
				c0.2-0.2,0.5-0.3,0.7-0.3c0.2,0,0.4,0.1,0.7,0.3l3.2,3.2c1.3,1.3,3.3,1.5,4.9,0.6c3.3-2.1,6.9-3.6,10.7-4.4
				c1.8-0.4,3.1-2,3.1-3.9v-4.4c0-0.6,0.5-1,1-1h7.1c0.5,0,0.9,0.4,0.9,1v4.5c0,1.8,1.3,3.4,3.1,3.9c3.8,0.9,7.3,2.4,10.5,4.4
				c1.6,1,3.6,0.8,4.9-0.5l3.2-3.2c0.2-0.2,0.5-0.3,0.7-0.3h0c0.2,0,0.4,0,0.7,0.3l5.1,5.1c0.2,0.2,0.3,0.5,0.3,0.7
				c0,0.2,0,0.4-0.3,0.7L360,170c-1.3,1.3-1.5,3.3-0.6,4.9c2,3.2,3.5,6.8,4.3,10.5c0.4,1.8,2,3.1,3.9,3.1h4.5c0.5,0,0.9,0.4,0.9,1
				V196.5z"/>
		</g>
	</g>
</g>
</svg>
