<?xml version="1.0" encoding="utf-8"?>
<!-- Generator: Adobe Illustrator 25.0.0, SVG Export Plug-In . SVG Version: 6.00 Build 0)  -->
<svg version="1.1" id="Layer_1" xmlns="http://www.w3.org/2000/svg" xmlns:xlink="http://www.w3.org/1999/xlink" x="0px" y="0px"
	 viewBox="0 0 130 535.6" style="enable-background:new 0 0 130 535.6;" xml:space="preserve">
<style type="text/css">
	.st0{fill:#FFC66C;}
	.st1{fill:#FF5D5D;}
	.st2{fill:#FFFFFF;}
	.st3{fill:#FFE4CF;}
	.st4{fill:#35414D;}
	.st5{fill:#4A696F;stroke:#35414D;stroke-width:2.9792;stroke-miterlimit:10;}
	.st6{fill:#384949;stroke:#35414D;stroke-width:2.9792;stroke-miterlimit:10;}
	.st7{fill:#D2C5C2;stroke:#35414D;stroke-width:2.9792;stroke-miterlimit:10;}
	.st8{fill:#DFD7D5;stroke:#35414D;stroke-width:2.9792;stroke-miterlimit:10;}
	.st9{fill:#FFCF66;stroke:#35414D;stroke-width:2.9792;stroke-miterlimit:10;}
	.st10{fill:#E8BA5D;stroke:#35414D;stroke-width:2.9792;stroke-miterlimit:10;}
	.st11{fill:#FCD770;}
	.st12{fill:#FFAE2C;}
	.st13{fill:#E9E9EA;}
</style>
<g>
	<g>
		<path class="st0" d="M35.8,83.2l-11,4.6c-3.8,1.6-8.1-0.2-9.7-4L2.5,53.7c-1.6-3.8,0.2-8.1,4-9.7l98.7-41.4c3.8-1.6,8.1,0.2,9.7,4
			l12.7,30.1c1.6,3.8-0.2,8.1-4,9.7L35.8,83.2z"/>
		<path class="st1" d="M61.3,114.4l-11,26.9c-1.2,3-4.7,4.5-7.7,3.2c-3-1.2-4.5-4.7-3.2-7.7l11-26.9L61.3,114.4z"/>
		<path class="st2" d="M39.7,96.1c6.4,15.1,23.8,22.3,38.9,15.9c15.1-6.4,22.3-23.8,15.9-38.9S70.7,50.8,55.5,57.2
			S33.3,80.9,39.7,96.1z"/>
		<path class="st3" d="M49.2,92.1c4.1,9.8,15.5,14.5,25.3,10.3S89,86.9,84.9,77.1c-4.1-9.8-15.5-14.5-25.3-10.3S45.1,82.2,49.2,92.1
			z"/>
		<path class="st4" d="M47.5,92.8C42.9,82,48,69.5,58.8,65s23.3,0.6,27.8,11.4s-0.6,23.3-11.4,27.8S52,103.6,47.5,92.8z M51,91.3
			c3.7,8.9,13.9,13,22.8,9.3c8.9-3.7,13-13.9,9.3-22.8c-3.7-8.9-13.9-13-22.8-9.3C51.5,72.2,47.3,82.5,51,91.3z"/>
		<path class="st4" d="M59.8,89.7c1-0.4,1.4-1.5,1-2.5c-1.4-3.4,0.2-7.4,3.6-8.8c1-0.4,1.4-1.5,1-2.5c-0.4-1-1.5-1.4-2.5-1
			c-5.4,2.3-7.9,8.5-5.7,13.9C57.7,89.6,58.8,90.1,59.8,89.7z"/>
		<path class="st4" d="M96.6,40.9c0.7-0.3,1.1-0.9,1.2-1.6l0.8-9.5c0-0.2,0.2-0.4,0.3-0.5c0,0,0,0,0,0c0.2-0.1,0.4,0,0.6,0.1l7,6.2
			c0.5,0.5,1.3,0.6,2,0.3l0,0c0.7-0.3,1.1-0.9,1.2-1.6l1.2-14.5c0.1-1-0.7-2-1.8-2.1c-0.3,0-0.6,0-0.9,0.1c-0.7,0.3-1.1,0.9-1.2,1.6
			l-0.8,9.5c0,0.2-0.2,0.4-0.3,0.5c0,0,0,0,0,0c-0.2,0.1-0.4,0-0.6-0.1l-7-6.2c-0.5-0.5-1.3-0.6-2-0.3c-0.7,0.3-1.1,0.9-1.2,1.6
			L94.4,34c0,0.2-0.2,0.4-0.3,0.5c0,0,0,0,0,0c-0.2,0.1-0.4,0-0.6-0.1l-7-6.2c-0.5-0.5-1.3-0.6-2-0.3c-0.3,0.1-0.5,0.3-0.7,0.5
			c-0.3,0.4-0.5,0.9-0.5,1.4s0.3,1,0.6,1.3l10.7,9.5C95.2,41,95.9,41.2,96.6,40.9z"/>
		<path class="st4" d="M86.2,12.5c0.5-0.2,0.8-0.6,1-1c0.2-0.5,0.2-1,0-1.5c-0.2-0.5-0.6-0.8-1-1c-0.5-0.2-1-0.2-1.5,0
			c-0.5,0.2-0.8,0.6-1,1c-0.2,0.5-0.2,1,0,1.5c0.2,0.5,0.6,0.8,1,1C85.2,12.7,85.8,12.7,86.2,12.5z"/>
		<path class="st4" d="M41.8,146.3c-4-1.6-5.9-6.2-4.3-10.2l4.1-10.1c0.2-0.5,0.6-0.8,1-1c0.5-0.2,1-0.2,1.5,0c1,0.4,1.4,1.5,1,2.5
			l-4.1,10.1c-0.8,2,0.1,4.4,2.2,5.2c1,0.4,2.1,0.4,3.1,0s1.8-1.2,2.2-2.2l10.2-24.9c0.1-0.1,0.1-0.3,0-0.5
			c-0.1-0.1-0.2-0.3-0.4-0.3c-9.3-2.7-16.7-9.3-20.4-18.1c-1.4-3.4-2.2-6.9-2.4-10.6c0-0.2-0.1-0.4-0.3-0.5c-0.2-0.1-0.4-0.1-0.5,0
			l-9.1,3.8c-4.7,2-10.2-0.2-12.2-5L0.7,54.4c-2-4.7,0.2-10.2,5-12.2L75.2,13c1-0.4,2.1,0.1,2.5,1c0.4,1-0.1,2.1-1,2.5L7.2,45.7
			c-2.8,1.2-4.1,4.4-3,7.2l12.7,30.1c1.2,2.8,4.4,4.1,7.2,3l11-4.6c0.1,0,0.1,0,0.2-0.1c0,0,0,0,0,0c0.2-0.1,0.3-0.3,0.3-0.5
			c0.9-7.6,4.5-14.7,10.2-19.8c0.1-0.1,0.2-0.3,0.2-0.4c0-0.2-0.1-0.3-0.2-0.4l-6.3-5.6c-0.2-0.1-0.4-0.2-0.6-0.1c0,0,0,0,0,0
			c-0.2,0.1-0.3,0.3-0.3,0.5l-0.8,9.5c-0.1,0.7-0.5,1.3-1.2,1.6c-0.7,0.3-1.4,0.1-2-0.3L24,56.3c-0.4-0.3-0.6-0.8-0.6-1.3
			c0-0.5,0.1-1,0.5-1.4c0.2-0.2,0.4-0.4,0.7-0.5c0.7-0.3,1.5-0.2,2,0.3l7,6.2c0.2,0.1,0.4,0.2,0.6,0.1c0,0,0,0,0,0
			c0.2-0.1,0.3-0.3,0.3-0.5l0.8-9.5c0.1-0.7,0.5-1.3,1.2-1.6c0.7-0.3,1.4-0.1,2,0.3l7,6.2c0.2,0.1,0.4,0.2,0.6,0.1c0,0,0,0,0,0
			c0.2-0.1,0.3-0.3,0.3-0.5l0.8-9.5c0.1-0.7,0.5-1.3,1.2-1.6c0.3-0.1,0.6-0.2,0.9-0.1c1,0.1,1.8,1,1.8,2.1l-1,11.9
			c0,0.2,0.1,0.4,0.3,0.5c0.2,0.1,0.4,0.1,0.5,0c0,0,0,0,0.1,0c1.3-0.8,2.7-1.5,4.1-2.1c2.7-1.1,5.5-1.9,8.4-2.2c0.1,0,0.1,0,0.2,0
			c0.2-0.1,0.3-0.2,0.3-0.4c0.1-0.2,0-0.4-0.2-0.6L54,43.7c-0.4-0.3-0.6-0.8-0.6-1.3c0-0.5,0.1-1,0.5-1.4c0.2-0.2,0.4-0.4,0.7-0.5
			c0.7-0.3,1.5-0.2,2,0.3l7,6.2c0.2,0.1,0.4,0.2,0.6,0.1c0,0,0,0,0,0c0.2-0.1,0.3-0.3,0.3-0.5l0.8-9.5c0.1-0.7,0.5-1.3,1.2-1.6
			c0.7-0.3,1.4-0.1,2,0.3l7,6.2c0.2,0.1,0.4,0.2,0.6,0.1c0,0,0,0,0,0c0.2-0.1,0.3-0.3,0.3-0.5l0.8-9.5c0.1-0.7,0.5-1.3,1.2-1.6
			c0.3-0.1,0.6-0.2,0.9-0.1c0.5,0,1,0.3,1.3,0.7c0.3,0.4,0.5,0.9,0.4,1.4l-1.2,14.5c-0.1,0.7-0.5,1.3-1.2,1.6
			c-0.7,0.3-1.4,0.1-2-0.3l-7-6.2c-0.2-0.1-0.4-0.2-0.6-0.1c0,0,0,0,0,0c-0.2,0.1-0.3,0.3-0.3,0.5l-0.8,9.5c0,0.1,0,0.2-0.1,0.4
			c0,0.2,0,0.3,0.1,0.5c0.1,0.1,0.3,0.2,0.4,0.2c6.5,0.3,13,2.6,18.1,6.6c0.2,0.1,0.4,0.2,0.6,0.1l35.8-15.1c2.8-1.2,4.1-4.4,3-7.2
			L113.1,7.2c-1.2-2.8-4.4-4.1-7.2-3l-9.4,3.9c-1,0.4-2.1-0.1-2.5-1c-0.4-1,0.1-2.1,1-2.5l9.4-3.9c4.7-2,10.2,0.2,12.2,5l12.7,30.1
			c2,4.7-0.2,10.2-5,12.2L90.6,62.3c-0.2,0.1-0.3,0.2-0.3,0.4c0,0.2,0,0.4,0.1,0.5c2.5,2.7,4.4,5.8,5.9,9.1
			c6.8,16.1-0.8,34.7-16.9,41.4c-5.1,2.1-10.7,2.9-16.2,2.2c-0.1,0-0.2,0-0.3,0c-0.1,0.1-0.2,0.2-0.3,0.3L52,142
			c-0.8,1.9-2.3,3.4-4.2,4.3C45.9,147.1,43.8,147.1,41.8,146.3z M41.4,95.3c5.9,14.1,22.3,20.8,36.4,14.9
			c14.1-5.9,20.8-22.3,14.9-36.4C86.8,59.7,70.4,53,56.3,58.9S35.5,81.2,41.4,95.3z"/>
		<path class="st4" d="M47.3,120.8c0.5-0.2,0.8-0.6,1-1c0.2-0.5,0.2-1,0-1.5c-0.2-0.5-0.6-0.8-1-1c-0.5-0.2-1-0.2-1.5,0
			c-0.5,0.2-0.8,0.6-1,1c-0.2,0.5-0.2,1,0,1.5c0.2,0.5,0.6,0.8,1,1C46.3,121,46.9,121,47.3,120.8z"/>
	</g>
	<g>
		<path class="st5" d="M84.9,287.7l11.3-17.1l-11.3-2.9c-1.5-4.4-4-8.6-7.6-12.2c-3.5-3.5-7.7-6.1-12.2-7.6L65,248l-13.8-0.5
			l-6.1,0.4c-4.5,1.5-8.7,4-12.2,7.6l-18.3,18.3c-12.2,12.2-12.2,32.1,0,44.4c12.6,12.6,32.5,11.9,44.4,0l18.3-18.3
			C80.9,296.3,83.4,292.1,84.9,287.7z M46.7,305.8c-5.5,5.5-14.4,5.4-19.8,0c-5.4-5.4-5.4-14.3,0-19.8l18.2-18.1l9.9,9.8l10,9.8
			L46.7,305.8z"/>
		<path class="st6" d="M84.9,287.7l11.3-17.1l-11.3-2.9c-1.5-4.4-4-8.6-7.6-12.2L55,277.8l10,9.8l-18.3,18.3
			c-5.5,5.5-14.4,5.4-19.8,0l-12.3,12.3c12.6,12.6,32.5,11.9,44.4,0l18.3-18.3C80.9,296.3,83.4,292.1,84.9,287.7z"/>
		<path class="st7" d="M107,309.8c1.4-1.4,1.4-3.6,0-4.9l-4.9-4.9c-1.4-1.4-3.6-1.4-4.9,0c-1.4,1.4-1.4,3.6,0,4.9l4.9,4.9
			C103.4,311.1,105.6,311.1,107,309.8z"/>
		<path class="st8" d="M32.9,235.7c1.4-1.4,1.4-3.6,0-4.9l-4.9-4.9c-1.4-1.4-3.6-1.4-4.9,0c-1.4,1.4-1.4,3.6,0,4.9l4.9,4.9
			C29.3,237.1,31.5,237.1,32.9,235.7z"/>
		<path class="st7" d="M111.3,283.8l6.7,1.8c1.9,0.5,3.8-0.6,4.3-2.5c0.5-1.9-0.6-3.8-2.5-4.3l-6.7-1.8c-1.9-0.5-3.8,0.6-4.3,2.5
			C108.3,281.4,109.5,283.3,111.3,283.8z"/>
		<path class="st8" d="M10.1,256.7l6.7,1.8c1.9,0.5,3.8-0.6,4.3-2.5c0.5-1.9-0.6-3.8-2.5-4.3l-6.7-1.8c-1.9-0.5-3.8,0.6-4.3,2.5
			C7.2,254.3,8.3,256.2,10.1,256.7z"/>
		<path class="st7" d="M80.4,325.1c1.9-0.5,3-2.4,2.5-4.3l-1.8-6.7c-0.5-1.9-2.4-3-4.3-2.5c-1.9,0.5-3,2.4-2.5,4.3l1.8,6.7
			C76.6,324.5,78.5,325.6,80.4,325.1z"/>
		<path class="st8" d="M53.3,224c1.9-0.5,3-2.4,2.5-4.3l-1.8-6.7c-0.5-1.9-2.4-3-4.3-2.5c-1.9,0.5-3,2.4-2.5,4.3l1.8,6.7
			C49.5,223.3,51.4,224.5,53.3,224z"/>
		<path class="st9" d="M115.4,261.9l-18.3,18.3c-3.5,3.5-7.7,6-12.2,7.6c2.2-6.5,2.2-13.5,0-20l18.2-18.1c5.4-5.4,5.4-14.3,0-19.8
			c-2.6-2.6-6.1-4-8.7-4c-0.2-0.1-1-0.1-1.1,0c-3.8,0-7.2,1.4-9.9,4L65,248c-5.4,5.4-5.4,14.3,0,19.8c5.4,5.4,5.4,14.3,0,19.8
			l-0.1,0.1c-4.6-1.5-8.7-4.1-12.2-7.6c-3.6-3.6-6.1-7.8-7.6-12.2c-2.2-6.5-2.2-13.5,0-20c1.5-4.4,4-8.6,7.6-12.2L71,217.4
			c12.3-12.3,32.2-12.2,44.4,0S127.6,249.6,115.4,261.9z"/>
		<g>
			<path class="st10" d="M65,267.8l-12.3,12.3c3.5,3.5,7.6,6,12.2,7.6l0.1-0.1C70.4,282.1,70.4,273.2,65,267.8z"/>
			<path class="st10" d="M115.4,217.4l-12.3,12.3c5.4,5.4,5.4,14.3,0,19.8l-18.2,18.1c2.2,6.5,2.2,13.5,0,20
				c4.5-1.5,8.7-4.1,12.2-7.6l18.3-18.3C127.6,249.6,127.6,229.7,115.4,217.4z"/>
		</g>
	</g>
	<g>
		<path class="st11" d="M51.3,481.4l1.3-2.8c0.4-0.9,1.3-1.4,2.2-1.2c2.2,0.3,4.3,0.3,6.5,0.2c0.9,0,1.8,0.5,2.1,1.4l1.1,2.9
			c0,0.1,0.1,0.2,0.1,0.3c-8.2,8.8-7.7,22.6,1.1,30.7c8.8,8.2,22.6,7.7,30.7-1.1c8.2-8.8,7.7-22.6-1.1-30.7
			c-3.1-2.9-7.1-4.9-11.3-5.6c-0.1-0.3-0.1-0.6-0.2-0.9l-1.1-2.9c-0.3-0.9-0.1-1.9,0.7-2.4c1.7-1.3,3.3-2.8,4.8-4.4
			c0.6-0.7,1.6-0.9,2.5-0.5l2.8,1.3c2.4,1.1,5.2,0.5,7-1.3c1.7,1.4,2.2,3.8,1.3,5.7l-1,2.2c-0.3,0.7-0.1,1.5,0.4,2
			c1.3,1.2,2.5,2.4,3.5,3.8c0.5,0.6,1.2,0.8,1.9,0.5l2.3-0.9c2.5-0.9,5.3,0.3,6.3,2.9l2.3,6.1c0.9,2.5-0.3,5.3-2.9,6.3l-2.3,0.9
			c-0.7,0.3-1.1,0.9-1.1,1.7c0.1,1.7,0,3.4-0.2,5.1c-0.1,0.7,0.3,1.4,1,1.8l2.2,1c2.5,1.1,3.5,4,2.4,6.5l-2.7,6
			c-1.1,2.5-4,3.5-6.5,2.4l-2.2-1c-0.7-0.3-1.5-0.1-2,0.4c-1.2,1.3-2.4,2.5-3.8,3.5c-0.6,0.5-0.8,1.2-0.5,1.9l0.9,2.3
			c0.9,2.5-0.3,5.3-2.9,6.3l-6.1,2.3c-2.5,0.9-5.3-0.3-6.3-2.9l-0.9-2.3c-0.3-0.7-0.9-1.1-1.7-1.1c-1.7,0.1-3.4,0-5.1-0.2
			c-0.7-0.1-1.4,0.3-1.7,1l-1,2.2c-1.1,2.5-4,3.5-6.5,2.4l-5.9-2.7c-2.5-1.1-3.5-4-2.4-6.5l1-2.2c0.3-0.7,0.1-1.5-0.4-2
			c-1.3-1.2-2.5-2.4-3.5-3.8c-0.5-0.6-1.2-0.8-1.9-0.5l-2.3,0.9c-2.5,0.9-5.3-0.3-6.3-2.9l-2.3-6.1c-0.9-2.5,0.3-5.3,2.9-6.3
			l2.3-0.9c0.7-0.3,1.1-0.9,1.1-1.7c-0.1-1.7,0-3.4,0.2-5.1c0.1-0.7-0.3-1.4-1-1.8l-2.2-1c-2.2-1-3.3-3.4-2.7-5.8
			C47,485.6,50.1,484.1,51.3,481.4z"/>
		<path class="st12" d="M89.5,477.1c10.9,5,15.8,17.9,10.8,28.8c-5,10.9-17.9,15.8-28.8,10.8c-10.9-5-15.8-17.9-10.8-28.8
			c1-2.2,2.3-4.1,3.9-5.9c0.9,2.2,3,3.6,5.4,3.7c-6.1,5.8-6.4,15.5-0.6,21.6c5.8,6.1,15.5,6.4,21.6,0.6c6.1-5.8,6.4-15.5,0.6-21.6
			c-2.6-2.7-6.1-4.4-9.9-4.7c1.9-1.4,2.8-3.9,2.3-6.2C85.9,475.8,87.8,476.3,89.5,477.1z"/>
		<path class="st13" d="M25.3,412l2.8,1.3c0.9,0.4,1.9,0.2,2.5-0.5c1.5-1.6,3.1-3.1,4.8-4.4c0.7-0.6,1-1.6,0.7-2.4l-1.1-2.9
			c-1.2-3.2,0.4-6.7,3.6-7.9l7.7-2.9c3.2-1.2,6.7,0.4,7.9,3.6l1.1,2.9c0.3,0.9,1.2,1.4,2.1,1.4c2.2-0.1,4.4,0,6.5,0.2
			c0.9,0.1,1.8-0.4,2.2-1.2l1.3-2.8c1.4-3.1,5.1-4.5,8.2-3.1l7.5,3.4c3.1,1.4,4.5,5.1,3.1,8.2l-1.3,2.8c-0.4,0.9-0.2,1.9,0.5,2.5
			c1.6,1.5,3.1,3.1,4.4,4.8c0.6,0.7,1.6,1,2.4,0.7l2.9-1.1c3.2-1.2,6.7,0.4,7.9,3.6l2.9,7.7c1.2,3.2-0.4,6.7-3.6,7.9l-2.9,1.1
			c-0.9,0.3-1.4,1.2-1.4,2.1c0.1,2.2,0,4.4-0.2,6.5c-0.1,0.9,0.4,1.8,1.2,2.2l2.8,1.3c3.1,1.4,4.5,5.1,3.1,8.2l-3.4,7.5
			c-1.4,3.1-5.1,4.5-8.2,3.1l-2.8-1.3c-0.9-0.4-1.9-0.2-2.5,0.5c-1.5,1.6-3.1,3.1-4.8,4.4c-0.7,0.6-1,1.6-0.7,2.4l1.1,2.9
			c1.2,3.2-0.4,6.7-3.6,7.9l-7.7,2.9c-3.2,1.2-6.7-0.4-7.9-3.6l-1.1-2.9c-0.3-0.9-1.2-1.4-2.1-1.4c-2.2,0.1-4.4,0-6.5-0.2
			c-0.9-0.1-1.8,0.4-2.2,1.2l-1.3,2.8c-1.4,3.1-5.1,4.5-8.2,3.1l-7.5-3.4c-3.1-1.4-4.5-5.1-3.1-8.2l1.3-2.8c0.4-0.9,0.2-1.9-0.5-2.5
			c-1.6-1.5-3.1-3-4.4-4.8c-0.6-0.7-1.6-1-2.4-0.7l-2.9,1.1c-3.2,1.2-6.7-0.4-7.9-3.6l-2.9-7.7c-1.2-3.2,0.4-6.7,3.6-7.9l2.9-1.1
			c0.9-0.3,1.4-1.2,1.4-2.1c-0.1-2.2,0-4.4,0.2-6.5c0.1-0.9-0.4-1.8-1.2-2.2l-2.8-1.3c-3.1-1.4-4.5-5.1-3.1-8.2l3.4-7.5
			C18.5,412,22.2,410.6,25.3,412C25.3,412,25.3,412,25.3,412z"/>
		<path class="st11" d="M47.7,464.3c14.1,6.4,30.7,0.2,37.1-13.9c6.4-14.1,0.2-30.7-13.9-37.1c-14.1-6.4-30.7-0.2-37.1,13.9l0,0
			C27.4,441.3,33.6,457.9,47.7,464.3z"/>
		<path class="st12" d="M68.3,419.2c10.9,4.9,15.7,17.7,10.7,28.6c-4.9,10.9-17.7,15.7-28.6,10.7c-10.9-4.9-15.7-17.7-10.7-28.6
			C44.6,419,57.4,414.2,68.3,419.2z"/>
		<path class="st4" d="M31.2,472.3l1.3-2.8c0.1-0.3,0.1-0.6-0.2-0.8c-1.7-1.5-3.2-3.2-4.6-4.9c-0.2-0.2-0.5-0.3-0.8-0.2l-2.9,1.1
			c-3.9,1.5-8.3-0.5-9.8-4.5l-2.9-7.7c-1.5-3.9,0.5-8.3,4.5-9.8l2.9-1.1c0.3-0.1,0.5-0.4,0.4-0.7c-0.1-2.3,0-4.5,0.2-6.8
			c0-0.3-0.1-0.6-0.4-0.7l-2.8-1.3c-3.8-1.7-5.5-6.3-3.8-10.1l3.4-7.5c1.7-3.8,6.3-5.5,10.1-3.8l2.8,1.3c0.3,0.1,0.6,0.1,0.8-0.2
			c1.5-1.7,3.2-3.2,4.9-4.6c0.2-0.2,0.3-0.5,0.2-0.8l-1.1-2.9c-1.5-3.9,0.5-8.3,4.5-9.8l7.7-2.9c3.9-1.5,8.3,0.5,9.8,4.5l1.1,2.9
			c0.1,0.3,0.4,0.5,0.7,0.4c2.3-0.1,4.5,0,6.8,0.2c0.3,0,0.6-0.1,0.7-0.4l1.3-2.8c1.7-3.8,6.3-5.5,10.1-3.8l7.5,3.4
			c3.8,1.7,5.5,6.3,3.8,10.1l-1.3,2.8c-0.1,0.3-0.1,0.6,0.2,0.8c1.7,1.5,3.2,3.2,4.6,4.9c0.2,0.2,0.5,0.3,0.8,0.2l2.9-1.1
			c1.9-0.7,4-0.6,5.8,0.2c1.8,0.8,3.3,2.4,4,4.3l2.9,7.7c1.5,3.9-0.5,8.3-4.5,9.8l-2.9,1.1c-0.3,0.1-0.5,0.4-0.5,0.7
			c0.1,2.3,0,4.5-0.2,6.8c0,0.3,0.1,0.6,0.4,0.7l2.8,1.3c3.8,1.7,5.5,6.3,3.8,10.1l-3.4,7.5c-1.7,3.8-6.3,5.5-10.1,3.8l-2.8-1.3
			c-0.3-0.1-0.6-0.1-0.8,0.2c-1.5,1.7-3.2,3.2-4.9,4.6c-0.2,0.2-0.3,0.5-0.2,0.8l1.1,2.9c1.5,3.9-0.5,8.3-4.5,9.8l-7.7,2.9
			c-3.9,1.5-8.3-0.5-9.8-4.5l-1.1-2.9c-0.1-0.3-0.4-0.5-0.7-0.4c-2.3,0.1-4.5,0-6.8-0.2c-0.3,0-0.6,0.1-0.7,0.4l-1.3,2.8
			c-1.7,3.8-6.3,5.5-10.1,3.8l-7.5-3.4C31.2,480.6,29.5,476.1,31.2,472.3z M64.8,478.5l1.1,2.9c0.9,2.4,3.6,3.7,6.1,2.8l7.7-2.9
			c2.4-0.9,3.7-3.6,2.8-6.1l-1.1-2.9c-0.6-1.5-0.1-3.1,1.1-4.1c1.6-1.3,3.2-2.7,4.6-4.3c1-1.2,2.7-1.5,4.2-0.9l2.8,1.3
			c2.4,1.1,5.2,0,6.2-2.3l3.4-7.5c1.1-2.4,0-5.2-2.3-6.2l-2.8-1.3c-1.4-0.6-2.3-2.1-2.1-3.7c0.2-2.1,0.3-4.2,0.2-6.3
			c-0.1-1.6,0.9-3,2.3-3.6l2.9-1.1c2.4-0.9,3.7-3.6,2.8-6.1l-2.9-7.7c-0.9-2.4-3.6-3.7-6.1-2.8l-2.9,1.1c-1.5,0.6-3.1,0.1-4.1-1.1
			c-1.3-1.6-2.7-3.2-4.3-4.6c-1.2-1.1-1.5-2.7-0.9-4.2l1.3-2.8c1.1-2.4,0-5.2-2.3-6.2l-7.5-3.4c-2.4-1.1-5.2,0-6.2,2.3l-1.3,2.8
			c-0.6,1.4-2.1,2.3-3.7,2.1c-2.1-0.2-4.2-0.3-6.3-0.2c-1.6,0.1-3-0.9-3.6-2.3l-1.1-2.9c-0.9-2.4-3.6-3.7-6.1-2.8l-7.7,2.9
			c-2.4,0.9-3.7,3.6-2.8,6.1l1.1,2.9c0.6,1.5,0.1,3.1-1.1,4.1c-1.6,1.3-3.2,2.7-4.6,4.3c-1.1,1.2-2.7,1.5-4.2,0.9l-2.8-1.3
			c-2.4-1.1-5.2,0-6.2,2.3l-3.4,7.5c-1.1,2.4,0,5.2,2.3,6.2l2.8,1.3c1.4,0.6,2.3,2.1,2.1,3.7c-0.2,2.1-0.3,4.2-0.2,6.3
			c0.1,1.6-0.9,3-2.3,3.6l-2.9,1.1c-2.4,0.9-3.7,3.6-2.8,6.1l2.9,7.7c0.9,2.4,3.6,3.7,6.1,2.8l2.9-1.1c1.5-0.6,3.1-0.1,4.1,1.1
			c1.3,1.6,2.7,3.2,4.3,4.6c1.2,1.1,1.5,2.7,0.9,4.2l-1.3,2.8c-1.1,2.4,0,5.2,2.3,6.2l7.5,3.4c2.4,1.1,5.2,0,6.2-2.3l1.3-2.8
			c0.6-1.4,2.1-2.3,3.7-2.1c2.1,0.2,4.2,0.3,6.3,0.2c0.6,0,1.2,0.1,1.7,0.3C63.8,476.8,64.4,477.6,64.8,478.5z"/>
		<path class="st4" d="M32.5,426.6c6.7-14.8,24.2-21.4,39.1-14.7c14.8,6.7,21.4,24.2,14.7,39.1S62,472.4,47.1,465.7
			C32.3,458.9,25.8,441.4,32.5,426.6z M35.1,427.8c-6.1,13.4-0.2,29.1,13.2,35.2s29.1,0.2,35.2-13.2c6.1-13.4,0.2-29.1-13.2-35.2
			C57,408.5,41.2,414.4,35.1,427.8z"/>
		<path class="st4" d="M58,523.3l1-2.2c0-0.1,0-0.2-0.1-0.3c-1.3-1.2-2.6-2.5-3.7-3.9c-0.1-0.1-0.2-0.1-0.3-0.1l-2.3,0.8
			c-3.3,1.2-6.9-0.4-8.2-3.7l-2.3-6.1c0,0,0,0,0,0c-1.2-3.3,0.4-6.9,3.7-8.2l2.3-0.9c0.1,0,0.2-0.1,0.2-0.2c-0.1-1.8,0-3.6,0.2-5.4
			c0-0.1,0-0.2-0.1-0.3l-2.2-1c-2.8-1.3-4.3-4.5-3.5-7.5c0.2-0.8,1-1.2,1.8-1c2.2,0.6,4.5-0.5,5.5-2.6l1.3-2.8
			c0.6-1.4,2.1-2.3,3.7-2.1c2.1,0.2,4.2,0.3,6.3,0.2c1.6-0.1,3,0.9,3.6,2.3l1.1,2.9c0.9,2.4,3.6,3.7,6.1,2.8l7.7-2.9
			c2.4-0.9,3.7-3.6,2.8-6.1l-1.1-2.9c-0.6-1.5-0.1-3.1,1.1-4.1c1.6-1.3,3.2-2.7,4.6-4.3c1-1.2,2.7-1.5,4.2-0.9l2.8,1.3
			c1.8,0.8,4,0.4,5.3-1c0.5-0.6,1.4-0.6,2-0.1c2.2,1.8,2.8,4.9,1.7,7.5l-1,2.2c0,0.1,0,0.2,0.1,0.3c1.3,1.2,2.6,2.5,3.7,3.9
			c0.1,0.1,0.2,0.1,0.3,0.1l2.3-0.9c3.3-1.2,6.9,0.4,8.2,3.7l2.3,6.1c1.2,3.3-0.4,6.9-3.7,8.2l-2.3,0.8c-0.1,0-0.2,0.1-0.2,0.2
			c0.1,1.8,0,3.6-0.2,5.4c0,0.1,0,0.2,0.1,0.3l2.2,1c3.2,1.5,4.6,5.2,3.1,8.4l-2.7,5.9c-1.4,3.2-5.2,4.6-8.4,3.1l-2.2-1
			c-0.1,0-0.2,0-0.3,0.1c-1.2,1.3-2.5,2.6-3.9,3.7c-0.1,0.1-0.1,0.2-0.1,0.3l0.8,2.3c1.2,3.3-0.4,6.9-3.7,8.2l-6.1,2.3
			c-3.3,1.2-6.9-0.4-8.2-3.7l-0.8-2.3c0-0.1-0.1-0.2-0.2-0.2c-1.8,0.1-3.6,0-5.4-0.2c-0.1,0-0.2,0-0.3,0.1l-1,2.2
			c-1.4,3.2-5.2,4.6-8.4,3.1l-5.9-2.7C58,530.2,56.5,526.5,58,523.3z M85.1,528.2l0.9,2.3c0.7,1.8,2.6,2.7,4.4,2l6.1-2.3
			c1.8-0.7,2.7-2.6,2-4.4l-0.9-2.3c-0.5-1.3-0.1-2.7,1-3.6c1.3-1,2.5-2.1,3.6-3.3c0.9-1,2.4-1.3,3.6-0.8l2.2,1
			c1.7,0.8,3.7,0,4.5-1.7l2.7-5.9c0.8-1.7,0-3.7-1.7-4.5l-2.2-1c-1.3-0.6-2-1.9-1.8-3.2c0.2-1.6,0.2-3.3,0.2-4.9
			c-0.1-1.4,0.8-2.6,2-3.1l2.3-0.9c1.8-0.7,2.7-2.6,2-4.4l-2.3-6.1c-0.7-1.8-2.6-2.7-4.4-2l-2.3,0.9c-1.3,0.5-2.7,0.1-3.6-1
			c-1-1.3-2.1-2.5-3.4-3.6c-1-0.9-1.3-2.4-0.8-3.6l1-2.2c0.4-1,0.4-2.2-0.1-3.1c-2.2,1.5-5,1.7-7.4,0.6l-2.8-1.3
			c-0.3-0.1-0.6-0.1-0.8,0.2c-1.5,1.7-3.2,3.2-4.9,4.6c-0.2,0.2-0.3,0.5-0.2,0.8l1.1,2.9c1.5,3.9-0.5,8.3-4.5,9.8l-7.7,2.9
			c-3.9,1.5-8.3-0.5-9.8-4.5l-1.1-2.9c-0.1-0.3-0.4-0.5-0.7-0.4c-2.3,0.1-4.5,0-6.8-0.2c-0.3,0-0.6,0.1-0.7,0.4l-1.3,2.8
			c-1.3,2.8-4.1,4.6-7.2,4.5c0.1,1.2,0.9,2.3,2,2.8l2.2,1c1.3,0.6,2,1.9,1.8,3.2c-0.2,1.6-0.2,3.3-0.2,4.9c0.1,1.4-0.8,2.6-2,3.1
			l-2.3,0.9c-1.8,0.7-2.7,2.6-2,4.4l2.3,6.1c0.7,1.8,2.6,2.7,4.4,2l2.3-0.9c1.3-0.5,2.7-0.1,3.6,1c1,1.3,2.1,2.5,3.3,3.6
			c1,0.9,1.3,2.4,0.8,3.6l-1,2.2c-0.8,1.7,0,3.7,1.7,4.5l5.9,2.7c1.7,0.8,3.7,0,4.5-1.7l1-2.2c0.6-1.3,1.9-2,3.2-1.8
			c1.6,0.2,3.3,0.2,4.9,0.2c0.5,0,1,0.1,1.5,0.3C84.2,526.8,84.8,527.4,85.1,528.2z"/>
		<path class="st4" d="M64.7,513.9c-9.4-8.7-9.9-23.4-1.1-32.8c0.1-0.1,0.3-0.3,0.5-0.3c0.7-0.3,1.6,0,1.9,0.8
			c0.7,1.7,2.3,2.8,4.1,2.8c0.4,0,0.7,0.2,1,0.5c0.6,0.6,0.5,1.5-0.1,2.1c-2.5,2.4-4,5.6-4.3,9c-0.6,7.6,5.1,14.3,12.7,14.9
			c7.6,0.6,14.3-5.1,14.9-12.7c0.6-7.6-5.1-14.3-12.7-14.9c-0.4,0-0.8-0.2-1.1-0.6c-0.5-0.6-0.4-1.6,0.3-2c1.5-1.1,2.2-3,1.8-4.7
			c0-0.2,0-0.4,0-0.5c0.1-0.8,0.9-1.3,1.7-1.2c2,0.3,4,0.9,5.9,1.8c11.7,5.3,16.8,19.1,11.5,30.7c-5.3,11.7-19.1,16.8-30.7,11.5
			C68.6,517,66.5,515.6,64.7,513.9z M85.6,477.3c-0.1,1.2-0.4,2.4-1.1,3.4c2.3,0.6,4.4,1.6,6.2,3c7.3,5.7,8.6,16.2,3,23.5
			c-5.7,7.3-16.2,8.6-23.5,3c-7.3-5.7-8.6-16.2-3-23.5c-1.1-0.5-2.1-1.2-2.8-2.1c-1,1.2-1.8,2.6-2.4,4c-4.6,10.2-0.1,22.3,10.1,26.9
			c10.2,4.6,22.3,0.1,26.9-10.1c4.6-10.2,0.1-22.3-10.1-26.9C87.8,478,86.7,477.6,85.6,477.3z"/>
		<g>
			<path class="st4" d="M67.8,447.6l-8,4.7c-0.7,0.4-1.6,0.2-2-0.5c-0.4-0.7-0.2-1.6,0.5-2l8-4.7c1.8-1.1,2.4-3.4,1.3-5.2
				c-1.1-1.8-3.4-2.4-5.2-1.3l-5,2.9c-3.2,1.8-7.3,0.8-9.1-2.4c-1.8-3.1-0.8-7.2,2.3-9.1l7-4.2c0.7-0.4,1.6-0.2,2,0.5
				c0.4,0.7,0.2,1.6-0.5,2l-7,4.2c-1.8,1.1-2.3,3.4-1.3,5.2c1.1,1.7,3.3,2.3,5.1,1.3l5-2.9c3.2-1.9,7.3-0.8,9.1,2.3
				S71,445.7,67.8,447.6z"/>
			<path class="st4" d="M67.1,452.1c-0.7,0.4-1.6,0.2-2-0.5l-14.3-24.1c-0.4-0.7-0.2-1.6,0.5-2c0.7-0.4,1.6-0.2,2,0.5l14.3,24.1
				C68.1,450.8,67.8,451.7,67.1,452.1z"/>
		</g>
		<path class="st4" d="M38.4,429.3L38.4,429.3c5.3-11.6,18.9-16.7,30.5-11.4c11.6,5.3,16.7,18.9,11.4,30.5
			C75,459.9,61.4,465,49.8,459.8C38.2,454.5,33.1,440.9,38.4,429.3z M41,430.5c-4.6,10.1-0.1,22.1,10,26.6
			c10.1,4.6,22.1,0.1,26.6-10c4.6-10.1,0.1-22.1-10-26.6C57.5,415.9,45.6,420.4,41,430.5z"/>
	</g>
</g>
</svg>
