<?xml version="1.0" encoding="utf-8"?>
<!-- Generator: Adobe Illustrator 25.0.0, SVG Export Plug-In . SVG Version: 6.00 Build 0)  -->
<svg version="1.1" id="Layer_1" xmlns="http://www.w3.org/2000/svg" xmlns:xlink="http://www.w3.org/1999/xlink" x="0px" y="0px"
	 viewBox="0 0 419 430" style="enable-background:new 0 0 419 430;" xml:space="preserve">
<style type="text/css">
	.st0{fill:#EDB88E;}
	.st1{fill:#DA9367;}
	.st2{fill:#F9DBAF;}
	.st3{fill:#52B788;}
	.st4{fill:#40916C;}
	.st5{fill:#35414D;}
	.st6{fill:#FCD770;}
	.st7{fill:#FFAE2C;}
	.st8{fill:#E9E9EA;}
</style>
<g>
	<g id="Color">
		<g>
			<g>
				<path class="st0" d="M136.4,258.6v-21H66.2l13.6,40.7c4.5,13.4,17,22.4,31.1,22.4c7,0,13.5,3.1,18.5,8
					c12.6,12.4,29.9,20.1,49,20.1v-28.1C155.2,300.7,136.4,281.8,136.4,258.6z"/>
				<path class="st1" d="M178.4,300.7v28.1c-7.4,0-14.4-1.1-21-3.2v-9.1c0-4.8-3.9-8.7-8.7-8.7c-3.2,0-6.2-1.8-7.7-4.8
					c-2.9-5.9-8.3-10.2-14.7-11.8c-11.9-2.9-24.2-2.9-36,0l-1.6,0.4c-0.1,0-0.2,0.1-0.4,0.1c-3.9-3.6-6.8-8.2-8.6-13.5l-13.5-40.7
					h70.1v21C136.4,281.8,155.2,300.7,178.4,300.7L178.4,300.7z"/>
				<path class="st0" d="M290.7,237.5l-15.5,12.6c-3.9,3.2-6.1,7.9-6,12.9c0.2,9.1-7.1,16.6-16.1,16.6h-25.5v28.1h24.3
					c15.2,0,29.1-8.6,36-22.2c1.9-3.9,4.5-7.4,7.5-10.5l16.4-16.4L290.7,237.5z"/>
				<path class="st1" d="M311.7,258.6L295.3,275c-3.1,3.1-5.6,6.6-7.6,10.5c-1.1,2.1-2.3,4.1-3.7,6l-14.4-4.8
					c-4.5,4.5-10.6,7-16.9,7c-1.8,0-3.2,1.5-3.2,3.2c0,0.3,0,0.5,0.1,0.8l2.5,10h-24.5v-28.1h25.5c8.9,0,16.1-7.3,16.1-16.2v-0.4
					c-0.1-5,2.1-9.8,6-13l15.5-12.6L311.7,258.6z"/>
				<path class="st2" d="M241.6,354.5V209.5h-70.1v137.3c0,22.5-14.9,42.3-36.5,48.4c-8.2,2.3-15.7,6.8-21.8,12.8l-18.8,18.8h53.5
					c15.3,0,30.1-5.2,42.1-14.7c5.1-4.1,11.5-6.3,18-6.3c7.9,0,15.3,3.9,19.7,10.5c4.4,6.6,11.8,10.5,19.7,10.5h43.5l-23.3-18.6
					c-7.8-6.2-14.1-14.1-18.6-23C244,375.8,241.6,365.2,241.6,354.5L241.6,354.5z"/>
				<path class="st0" d="M240.5,396.8c-3.8-7.5-10.8-12.9-19.1-14.6c-12.8-2.6-22-13.8-22-26.8v-82.8c16.2,0,31.5-7.1,42.1-19.1v-44
					h-70.1v137.3c0,22.5-14.9,42.3-36.5,48.4c-8.2,2.3-15.7,6.8-21.8,12.8l-18.8,18.8h53.5c15.3,0,30.1-5.2,42.1-14.7
					c5.1-4.1,11.5-6.3,18-6.3c7.9,0,15.3,3.9,19.7,10.5c4.4,6.6,11.8,10.5,19.7,10.5h43.5l-25-8.3
					C254.7,414.9,245.7,407.1,240.5,396.8L240.5,396.8z"/>
				<path class="st3" d="M409.9,202.5c0-20.2-14.3-37.1-33.3-41.1c3.3-6.6,5.2-14.1,5.2-22c0-27.1-22-49.1-49.1-49.1
					c-2.7,0-5.3,0.3-7.9,0.7c0.6-2.5,0.9-5,0.9-7.7c0-19.4-15.7-35.1-35.1-35.1c-6.6,0-12.7,1.9-18,5.1
					c-5.8-11.3-17.5-19.2-31.1-19.2c-2.3,0-4.5,0.3-6.6,0.7c-6.4-8.9-16.7-14.7-28.4-14.7c-14,0-26.1,8.3-31.7,20.2
					c-6-3.9-13.2-6.2-20.9-6.2c-15.4,0-28.7,9.1-34.9,22.1c-22.2,4.7-38.8,24.4-38.8,48c0,7.9,1.9,15.3,5.2,21.9
					c-20,3.6-35.8,19.4-39.4,39.4c-13,7.2-21.9,21-21.9,36.9c0,1,0.1,1.9,0.1,2.9c-12.5,5.4-21.2,17.8-21.2,32.2
					c0,19.4,15.7,35.1,35.1,35.1c6,0,11.5-1.6,16.4-4.3c6.4,6.9,15.5,11.3,25.6,11.3c10.7,0,20.2-4.9,26.6-12.5
					c6.7,3.5,14.4,5.5,22.5,5.5c21.4,0,39.5-13.7,46.3-32.8c5.9,11.1,17.4,18.8,30.9,18.8c16.4,0,30-11.3,33.9-26.4
					c6.7,3.4,14.2,5.4,22.2,5.4c1,0,2-0.1,3-0.2c-1.9,4.3-3,9.1-3,14.2c0,19.4,15.7,35.1,35.1,35.1c11.5,0,21.6-5.6,28-14.2
					c5.9,4.5,13.1,7.2,21.1,7.2c19.4,0,35.1-15.7,35.1-35.1c0-0.8-0.2-1.6-0.2-2.4C398,236.5,409.9,220.9,409.9,202.5L409.9,202.5z"
					/>
				<g>
					<path class="st4" d="M409.1,210.3c-6.4,8-16.2,13.2-27.3,13.2c-1.3,0-2.6-0.1-3.9-0.2c-10.7-1.2-21.4-0.1-31.2,4.3
						c-5.8,2.6-12.5,3.6-19.5,2.5c-13.8-2.1-25.3-12.7-28.6-26.3c-2-8.2-0.9-15.9,2-22.6c-1,0.1-2,0.2-3,0.2c-0.1,0-0.2,0-0.3,0
						c-2.6,0-5.3,0.1-7.9,0.5c-6.8,0.9-13.4,3-19,6.8c-1.2,0.9-2.4,1.8-3.6,2.8c-0.3,0.3-0.6,0.6-0.9,0.9c-0.7,0.7-1.4,1.3-2.1,1.9
						c-6,5.1-13.8,8.1-22.3,8.1c-4,0-7.9-0.7-11.5-2c-11.8-4.1-24.9-3.1-34.5,4.8c-8.5,7-19.3,11.2-31.2,11.2
						c-5.3,0-10.4-0.9-15.2-2.5c-7.5,3-16.3,3.7-25.5,0.1c-10.5-4.1-18.7-13.2-21.4-24.1c-1.5-6.3-1.3-12.4,0.2-17.9
						c1.6-5.8,1.7-11.8,0-17.5c-0.8-2.6-1.2-5.3-1.2-8.2c0-10.8,6.2-20.1,15.1-24.8c-0.6-2.2-1.1-4.4-1.1-6.8c0-1,0.1-1.9,0.2-2.9
						c0.9-7.6,0.2-15.3-3.6-22c-2.3-4.1-3.6-8.7-3.6-13.7c0-7.3,2.9-13.9,7.5-18.9c-20.5,5.9-35.5,24.6-35.5,47
						c0,7.9,1.9,15.3,5.2,21.9c-20,3.6-35.8,19.4-39.4,39.4c-13,7.2-21.9,21-21.9,36.9c0,1,0.1,1.9,0.1,2.9
						c-13.7,5.9-22.9,20.4-20.9,36.7C5.1,255.5,14.9,267,27.9,271c9.9,3.1,19.1,1.4,26.7-2.7c6.4,6.9,15.5,11.3,25.6,11.3
						c10.7,0,20.2-4.9,26.6-12.5c6.7,3.5,14.4,5.5,22.5,5.5c21.4,0,39.5-13.7,46.3-32.8c5.9,11.1,17.4,18.8,30.9,18.8
						c16.4,0,30-11.3,33.9-26.4c6.7,3.4,14.2,5.4,22.2,5.4c1,0,2-0.1,3-0.2c-3,6.7-4,14.4-2,22.6c3.3,13.5,14.8,24.2,28.6,26.3
						c13.8,2.1,26.1-3.9,33.5-13.8c5.9,4.5,13.1,7.2,21.1,7.2c19.4,0,35.1-15.7,35.1-35.1c0-0.8-0.2-1.6-0.2-2.4
						C395.7,237.3,406.3,225.2,409.1,210.3L409.1,210.3z"/>
				</g>
			</g>
		</g>
	</g>
	<g>
		<path class="st5" d="M247.2,430c-9,0-17.3-4.4-22.2-11.9c-3.8-5.7-10.2-9.1-17.1-9.1c-5.8,0-11.5,2-16.1,5.6
			c-12.4,9.9-28.1,15.4-44,15.4h-18.5c-1.7,0-3.1-1.4-3.1-3.1s1.4-3.1,3.1-3.1h18.5c14.5,0,28.8-5,40.1-14.1c5.6-4.5,12.7-7,19.9-7
			c9,0,17.3,4.4,22.2,11.9c3.8,5.7,10.2,9.1,17.1,9.1h34.6l-16.4-13.1c-8.1-6.5-14.8-14.8-19.4-24c-5-9.9-7.6-21.1-7.6-32.2
			c0-1.7,1.4-3.1,3.1-3.1s3.1,1.4,3.1,3.1c0,10.1,2.4,20.3,6.9,29.4c4.2,8.4,10.4,16,17.7,21.9l23.3,18.6c1,0.8,1.4,2.2,1,3.5
			c-0.4,1.2-1.6,2.1-2.9,2.1H247.2z"/>
		<path class="st5" d="M185.4,387.9c-0.8,0-1.6-0.3-2.2-0.9c-1.2-1.2-1.2-3.2,0-4.4c12.4-12.4,17.8-30.2,14.4-47.4
			c-0.8-4.2-1.2-8.1-1.2-12v-15.5c0-1.7,1.4-3.1,3.1-3.1s3.1,1.4,3.1,3.1v15.5c0,3.5,0.3,6.9,1,10.3c3.9,19.6-2.1,39.6-16,53.5
			C187.1,387.6,186.3,387.9,185.4,387.9z"/>
		<path class="st5" d="M94.3,430c-0.8,0-1.6-0.3-2.2-0.9c-1.2-1.2-1.2-3.2,0-4.4l18.8-18.8c6.4-6.4,14.4-11.1,23.1-13.6
			c20.2-5.8,34.3-24.5,34.3-45.5v-15.6l-3.2-0.6c-14.3-2.7-27.4-9.5-37.9-19.7c-4.7-4.6-10.5-7.1-16.3-7.1
			c-13.4,0-25.5-7.4-31.8-19.3l-1-1.9l-2.1-0.2c-7.6-0.8-14.7-3.8-20.3-8.6l-1.8-1.5l-2.2,0.9c-4.4,1.8-9,2.6-13.6,2.6
			c-21,0-38.2-17.1-38.2-38.2c0-13.6,7.3-26.3,19.1-33l1.9-1.1l0.1-2.2c0.4-15,8.2-28.7,20.9-36.8l1.3-0.8l0.4-1.5
			c1-4.3,2.7-8.4,4.8-12.4c0.5-1,1.6-1.6,2.7-1.6c0.5,0,1,0.1,1.5,0.4c0.7,0.4,1.3,1.1,1.5,1.8c0.2,0.8,0.2,1.6-0.2,2.4
			c-2.3,4.3-3.9,8.9-4.8,13.5c-0.2,0.9-0.7,1.7-1.6,2.2c-12.5,6.9-20.3,20-20.3,34.2c0,0.6,0,1.3,0.1,1.9l0,0.2
			c0.1,1.6-0.9,3.2-1.8,3.6c-11.7,5.1-19.3,16.6-19.3,29.3c0,17.6,14.3,32,32,32c5.1,0,10.2-1.3,15-3.9c0.4-0.2,0.9-0.4,1.5-0.4
			c0.9,0,1.7,0.4,2.3,1c6.2,6.6,14.5,10.3,23.4,10.3c9.3,0,18.1-4.2,24.3-11.4c0.6-0.7,1.5-1.1,2.4-1.1c0.5,0,1,0.1,1.4,0.3
			c6.6,3.4,13.7,5.1,21,5.1c19.5,0,36.9-12.4,43.3-30.7c0.4-1.2,1.5-2,2.7-2.1c0.1,0,0.2,0,0.3,0c1.2,0,2.2,0.6,2.7,1.6
			c5.6,10.6,16.4,17.1,28.1,17.1c14.5,0,27.2-9.9,30.9-24.1c0.2-0.9,0.9-1.7,1.7-2.1c0.4-0.2,0.8-0.3,1.3-0.3c0.5,0,1,0.1,1.4,0.3
			c6.4,3.3,13.4,5,20.2,5c0.9,0,1.9,0,2.8-0.1l0.7,0l0.1,0c1.1,0,2.1,0.5,2.6,1.3c0.6,0.9,0.7,2.1,0.3,3c-1.8,4.2-2.8,8.5-2.8,12.9
			c0,17.6,14.3,32,32,32c10.1,0,19.4-4.7,25.6-12.9c0.5-0.7,1.2-1.1,2-1.2c0.2,0,0.3,0,0.5,0c0.6,0,1.3,0.2,1.8,0.6
			c5.7,4.3,12.3,6.6,19.2,6.6c17.6,0,32-14.3,32-32v-0.3l0-0.3c-0.1-0.8-0.2-1.2-0.2-1.6c-0.1-1.4,0.8-2.7,2.1-3.1
			c15.7-5.5,26.2-20.2,26.2-36.8c0-18.3-13-34.3-30.8-38.1c-0.9-0.2-1.7-0.8-2.1-1.7c-0.4-0.9-0.4-1.9,0-2.7
			c3.3-6.5,4.9-13.4,4.9-20.6c0-25.4-20.6-46-46-46c-2.3,0-4.7,0.2-7.4,0.7c-0.2,0-0.4,0.1-0.5,0.1c-0.8,0-1.6-0.4-2.2-1
			c-0.7-0.7-1-1.8-0.8-2.8c0.6-2.5,0.8-4.8,0.8-7c0-3.9-0.8-7.8-2.3-11.6c-0.3-0.8-0.3-1.6,0-2.4c0.3-0.8,0.9-1.3,1.7-1.6
			c0.4-0.1,0.7-0.2,1.1-0.2c1.3,0,2.4,0.8,2.9,2c1.8,4.6,2.7,9.2,2.7,13.9v3.9h3.9c28.8,0,52.2,23.4,52.2,52.2
			c0,5.6-0.9,11-2.6,16.3l-1.2,3.5l3.4,1.4c17,6.8,28.4,23.7,28.4,42c0,17.4-10.2,33.4-25.9,40.8l-2.1,1l-0.1,2.3
			c-1.1,20.2-17.8,36.1-38.1,36.1c-6.3,0-12.3-1.5-17.9-4.6l-2.6-1.4l-2.1,2c-7.1,7-16.6,10.9-26.6,10.9c-1.7,0-3.6-0.2-5.8-0.5
			l-2.5-0.4L288,291c-8,12.4-21.5,19.8-36.2,19.8h-7.1v17.9c0,1.7-1.4,3.1-3.1,3.1s-3.1-1.4-3.1-3.1v-82.8l-6.5,5.9
			c-3.7,3.3-8,5.9-12.7,7.6l-2.6,0.9v19.3c0,1.7-1.4,3.1-3.1,3.1c-1.7,0-3.1-1.4-3.1-3.1v-17.9h-3.9c-9.4,0-18.4-3.5-25.4-9.9
			l-6.5-6v101c0,23.8-15.9,44.9-38.8,51.4c-7.7,2.2-14.8,6.4-20.4,12l-18.8,18.8C95.9,429.7,95.1,430,94.3,430z M105.8,272.7
			c-4.2,3.9-9.4,6.7-15.3,8.4l-5.9,1.7l4.1,4.6c5.6,6.4,13.8,10.1,22.3,10.1c7.5,0,14.9,3.2,20.7,8.9c8.8,8.6,19.8,14.7,31.9,17.4
			l4.8,1.1v-22.4l-2.8-0.8c-12.4-3.7-22.6-12.4-28-24.1l-1.2-2.5l-3.8,0.3c-1.2,0.1-2.2,0.2-3.3,0.2c-6.7,0-13.2-1.3-19.4-3.8
			l-2.3-0.9L105.8,272.7z M244.7,304.6h7.1c11.1,0,21.6-5,28.6-13.7l2.9-3.6l-4.1-2.3c-3.2-1.8-6.1-4-8.7-6.5l-2.5-2.6l-2.8,2.3
			c-3.5,2.9-7.8,4.5-12.3,4.5h-8.4V304.6z M162,264.1c-4.5,3.6-9.6,6.5-15,8.5l-4.4,1.6l2.4,4.1c4.1,7,10.5,12.7,18,16l5.5,2.4
			v-37.7L162,264.1z M244.7,276.5h8.4c3.6,0,7.1-1.6,9.5-4.3l1.8-1.9l-1.1-2.4c-2.5-5.2-3.7-10.7-3.7-16.4c0-2.3,0.2-4.5,0.6-6.7
			l0.8-4.1l-4.2-0.5c-2.2-0.3-4.5-0.7-7.1-1.4l-4.9-1.3V276.5z"/>
		<path class="st5" d="M71,134.4c-1.1,0-2.2-0.6-2.7-1.6c-0.4-0.7-0.5-1.6-0.3-2.4s0.8-1.4,1.5-1.8c2.5-1.3,5.1-2.5,7.7-3.4l3.6-1.3
			l-1.2-3.6c-1.7-5.1-2.5-10.5-2.5-15.9c0-23.3,15.7-44,38.2-50.3l1.6-0.4l0.8-1.4c7.4-13,21.3-21.1,36.2-21.1
			c5.8,0,11.4,1.2,16.7,3.5l2.9,1.3l1.8-2.6c7.2-10.2,18.8-16.2,31.1-16.2c10.8,0,21.2,4.7,28.5,12.9l1.3,1.5l2-0.2
			c1.2-0.1,2.4-0.2,3.7-0.2c11.9,0,22.9,5.6,30.1,15.5l1.8,2.4l2.8-1.1c4.5-1.8,9.2-2.7,13.9-2.7c4.7,0,9.4,0.9,13.9,2.7
			c0.8,0.3,1.4,0.9,1.7,1.6c0.3,0.8,0.3,1.6,0,2.4c-0.5,1.2-1.6,2-2.9,2c-0.4,0-0.8-0.1-1.1-0.2c-3.8-1.5-7.7-2.3-11.7-2.3
			c-5.7,0-11.2,1.6-16.4,4.7c-0.5,0.3-1,0.4-1.6,0.4c-0.3,0-0.6,0-0.9-0.1c-0.8-0.2-1.5-0.8-1.9-1.6c-5.5-10.8-16.4-17.5-28.3-17.5
			c-1.9,0-3.9,0.2-6,0.6c-0.2,0-0.4,0.1-0.6,0.1c-1,0-1.9-0.5-2.5-1.3c-6-8.4-15.7-13.4-25.9-13.4c-12.3,0-23.6,7.2-28.9,18.5
			c-0.4,0.8-1.1,1.4-2,1.7c-0.3,0.1-0.5,0.1-0.8,0.1c-0.6,0-1.2-0.2-1.7-0.5c-5.8-3.7-12.4-5.7-19.3-5.7c-13.6,0-26.2,8-32.1,20.4
			c-0.4,0.9-1.2,1.5-2.2,1.7c-21.1,4.5-36.3,23.4-36.3,45c0,7.1,1.6,14,4.9,20.5c0.4,0.9,0.4,1.9,0,2.8c-0.4,0.9-1.3,1.5-2.2,1.7
			c-4.7,0.8-9.2,2.5-13.5,4.8C72,134.2,71.5,134.4,71,134.4z"/>
	</g>
	<g>
		<path class="st6" d="M58.3,207.5c0.4,2.5,2.5,4.4,5.1,4.4h2.5c0.8,0,1.5,0.5,1.7,1.2c0.5,1.7,1.2,3.4,2.1,5
			c0.4,0.7,0.2,1.5-0.3,2.1l-1.8,1.8c-2,2-2,5.2,0,7.3l4.9,4.9c2,2,5.3,2,7.3,0l1.8-1.8c0.6-0.6,1.4-0.7,2.1-0.3
			c1.6,0.8,3.3,1.5,5,2.1c0.7,0.2,1.2,0.9,1.2,1.7v2.5c0,2.8,2.3,5.1,5.1,5.1h6.9c2.8,0,5.1-2.3,5.1-5.1v-2.5c0-0.8,0.5-1.5,1.2-1.7
			c1.7-0.5,3.4-1.2,5-2.1c0.7-0.4,1.5-0.2,2.1,0.3l1.8,1.8c2,2,5.2,2,7.3,0l4.9-4.9c2-2,2-5.2,0-7.3l-1.8-1.8
			c-0.6-0.6-0.7-1.4-0.3-2.1c0.8-1.6,1.5-3.3,2.1-5c0.2-0.7,0.9-1.2,1.7-1.2h2.5c2.8,0,5.1-2.3,5.1-5.1v-6.9c0-2.8-2.3-5.1-5.1-5.1
			h-2.5c-0.8,0-1.5-0.5-1.7-1.2c-0.5-1.7-1.2-3.4-2.1-5c-0.4-0.7-0.2-1.5,0.3-2.1l1.8-1.8c2-2,2-5.2,0-7.3l-4.9-4.9
			c-2-2-5.2-2-7.3,0l-1.8,1.8c-0.6,0.6-1.4,0.7-2.1,0.3c-1.6-0.8-3.3-1.5-5-2.1c-0.7-0.2-1.2-0.9-1.2-1.7v-2.5
			c0-2.3-1.5-4.3-3.7-4.9c-0.9,2.6-3.4,4.3-6.1,4.3h-3.2c-1,0-1.9,0.6-2.2,1.6c-0.7,2.2-1.6,4.3-2.6,6.3c-0.5,0.9-0.3,1.9,0.4,2.6
			l2.3,2.3c0.2,0.2,0.4,0.5,0.6,0.7c4.4-1.2,9-1,13.3,0.4c12,4,18.4,17,14.4,29c-4,12-17,18.4-29,14.4c-12-4-18.4-17-14.4-29
			c-0.1-0.1-0.2-0.1-0.2-0.2l-2.3-2.3c-0.7-0.7-1.8-0.9-2.6-0.4c-2,1.1-4.1,1.9-6.3,2.6c-0.9,0.3-1.6,1.2-1.6,2.2v3.2
			C63.7,204.3,61.4,207,58.3,207.5z"/>
		<path class="st7" d="M92.4,181.2c1.5,2,1.7,4.7,0.5,7c3.7-1.4,7.9-1.3,11.5,0.2c8.2,3.3,12.2,12.7,8.8,20.9
			c-3.3,8.2-12.7,12.2-20.9,8.8c-8.2-3.3-12.2-12.7-8.8-20.9c-2.3,0.9-4.9,0.5-6.8-1.2c-0.8,2.4-1.2,4.8-1.2,7.3
			c0,12.6,10.3,22.9,22.9,22.9c12.6,0,22.9-10.3,22.9-22.9c0-12.6-10.3-22.9-22.9-22.9C96.4,180.4,94.4,180.7,92.4,181.2z"/>
		<path class="st8" d="M8.6,146.1c-3.6,0-6.5,2.9-6.5,6.5v8.7c0,3.6,2.9,6.5,6.5,6.5h3.2c1,0,1.9,0.6,2.2,1.6
			c0.7,2.2,1.6,4.3,2.6,6.3c0.5,0.9,0.3,1.9-0.4,2.6l-2.3,2.3c-2.5,2.5-2.5,6.6,0,9.2l6.1,6.1c2.5,2.5,6.6,2.5,9.2,0l2.3-2.3
			c0.7-0.7,1.8-0.9,2.6-0.4c2,1.1,4.1,1.9,6.3,2.6c0.9,0.3,1.6,1.2,1.6,2.2v3.2c0,3.6,2.9,6.5,6.5,6.5h8.7c3.6,0,6.5-2.9,6.5-6.5
			v-3.2c0-1,0.6-1.9,1.6-2.2c2.2-0.7,4.3-1.6,6.3-2.6c0.9-0.5,1.9-0.3,2.6,0.4l2.3,2.3c2.5,2.5,6.6,2.5,9.2,0l6.1-6.1
			c2.5-2.5,2.5-6.6,0-9.2l-2.3-2.3c-0.7-0.7-0.9-1.8-0.4-2.6c1.1-2,1.9-4.1,2.6-6.3c0.3-0.9,1.2-1.6,2.2-1.6h3.2
			c3.6,0,6.5-2.9,6.5-6.5v-8.7c0-3.6-2.9-6.5-6.5-6.5h-3.2c-1,0-1.9-0.6-2.2-1.6c-0.7-2.2-1.6-4.3-2.6-6.3c-0.5-0.9-0.3-1.9,0.4-2.6
			l2.3-2.3c2.5-2.5,2.5-6.6,0-9.2l-6.1-6.1c-2.5-2.5-6.6-2.5-9.2,0l-2.3,2.3c-0.7,0.7-1.8,0.9-2.6,0.4c-2-1.1-4.1-1.9-6.3-2.6
			c-0.9-0.3-1.6-1.2-1.6-2.2v-3.2c0-3.6-2.9-6.5-6.5-6.5h-8.7c-3.6,0-6.5,2.9-6.5,6.5v3.2c0,1-0.6,1.9-1.6,2.2
			c-2.2,0.7-4.3,1.6-6.3,2.6c-0.9,0.5-1.9,0.3-2.6-0.4l-2.3-2.3c-2.5-2.5-6.6-2.5-9.2,0l-6.1,6.1c-2.5,2.5-2.5,6.6,0,9.2l2.3,2.3
			c0.7,0.7,0.9,1.8,0.4,2.6c-1.1,2-1.9,4.1-2.6,6.3c-0.3,0.9-1.2,1.6-2.2,1.6H8.6C8.6,146.1,8.6,146.1,8.6,146.1z"/>
		<path class="st6" d="M23.4,156.9L23.4,156.9c0-16.3,13.2-29.5,29.5-29.5c16.3,0,29.5,13.2,29.5,29.5c0,16.3-13.2,29.5-29.5,29.5
			C36.6,186.3,23.4,173.1,23.4,156.9z"/>
		<path class="st7" d="M30.2,156.9c0,12.5,10.2,22.7,22.7,22.7c12.5,0,22.7-10.2,22.7-22.7c0-12.5-10.2-22.7-22.7-22.7
			C40.3,134.2,30.2,144.4,30.2,156.9z"/>
		<g>
			<path class="st5" d="M40.5,201.1v-3.2c0-0.3-0.2-0.6-0.5-0.7c-2.3-0.7-4.5-1.6-6.6-2.7c-0.3-0.1-0.6-0.1-0.9,0.1l-2.3,2.3
				c-3.1,3.1-8.2,3.1-11.3,0l-6.1-6.1c-3.1-3.1-3.1-8.2,0-11.3l2.3-2.3c0.2-0.2,0.3-0.6,0.1-0.9c-1.1-2.1-2-4.3-2.7-6.6
				c-0.1-0.3-0.4-0.5-0.7-0.5H8.6c-4.4,0-8-3.6-8-8v-8.7c0-4.4,3.6-8,8-8h3.2c0.3,0,0.6-0.2,0.7-0.5c0.7-2.3,1.6-4.5,2.7-6.6
				c0.1-0.3,0.1-0.6-0.1-0.9l-2.3-2.3c-3.1-3.1-3.1-8.2,0-11.3l6.1-6.1c3.1-3.1,8.2-3.1,11.3,0l2.3,2.3c0.2,0.2,0.6,0.3,0.9,0.1
				c2.1-1.1,4.3-2,6.6-2.7c0.3-0.1,0.5-0.4,0.5-0.7v-3.2c0-4.4,3.6-8,8-8h8.7c4.4,0,8,3.6,8,8v3.2c0,0.3,0.2,0.6,0.5,0.7
				c2.3,0.7,4.5,1.6,6.6,2.7c0.3,0.1,0.6,0.1,0.9-0.1l2.3-2.3c1.5-1.5,3.5-2.4,5.7-2.3c2.1,0,4.2,0.8,5.7,2.3l6.1,6.1
				c3.1,3.1,3.1,8.2,0,11.3l-2.3,2.3c-0.2,0.2-0.3,0.6-0.1,0.9c1.1,2.1,2,4.3,2.7,6.6c0.1,0.3,0.4,0.5,0.7,0.5h3.2c4.4,0,8,3.6,8,8
				v8.7c0,4.4-3.6,8-8,8h-3.2c-0.3,0-0.6,0.2-0.7,0.5c-0.7,2.3-1.6,4.5-2.7,6.6c-0.1,0.3-0.1,0.6,0.1,0.9l2.3,2.3
				c3.1,3.1,3.1,8.2,0,11.3l-6.1,6.1c-3.1,3.1-8.2,3.1-11.3,0l-2.3-2.3c-0.2-0.2-0.6-0.3-0.9-0.1c-2.1,1.1-4.3,2-6.6,2.7
				c-0.3,0.1-0.5,0.4-0.5,0.7v3.2c0,4.4-3.6,8-8,8h-8.7C44.1,209.1,40.5,205.6,40.5,201.1z M75.3,192.5l2.3,2.3c1.9,1.9,5.1,1.9,7,0
				l6.1-6.1c1.9-1.9,1.9-5.1,0-7l-2.3-2.3c-1.2-1.2-1.4-3-0.7-4.4c1-2,1.9-4,2.5-6.1c0.5-1.6,2-2.6,3.6-2.6h3.2c2.7,0,5-2.2,5-5
				v-8.7c0-2.7-2.2-5-5-5h-3.2c-1.7,0-3.1-1.1-3.6-2.6c-0.7-2.1-1.5-4.1-2.5-6.1c-0.8-1.5-0.5-3.3,0.7-4.4l2.3-2.3
				c1.9-1.9,1.9-5.1,0-7l-6.1-6.1c-1.9-1.9-5.1-1.9-7,0l-2.3,2.3c-1.2,1.2-3,1.4-4.4,0.7c-2-1-4-1.9-6.1-2.5c-1.6-0.5-2.6-2-2.6-3.6
				v-3.2c0-2.7-2.2-5-5-5h-8.7c-2.7,0-5,2.2-5,5v3.2c0,1.7-1.1,3.1-2.6,3.6c-2.1,0.7-4.1,1.5-6.1,2.5c-1.5,0.8-3.3,0.5-4.4-0.7
				l-2.3-2.3c-1.9-1.9-5.1-1.9-7,0l-6.1,6.1c-1.9,1.9-1.9,5.1,0,7l2.3,2.3c1.2,1.2,1.4,3,0.7,4.4c-1,2-1.9,4-2.5,6.1
				c-0.5,1.6-2,2.6-3.6,2.6H8.6c-2.7,0-5,2.2-5,5v8.7c0,2.7,2.2,5,5,5h3.2c1.7,0,3.1,1.1,3.6,2.6c0.7,2.1,1.5,4.1,2.5,6.1
				c0.8,1.5,0.5,3.3-0.7,4.4l-2.3,2.3c-1.9,1.9-1.9,5.1,0,7l6.1,6.1c1.9,1.9,5.1,1.9,7,0l2.3-2.3c1.2-1.2,3-1.4,4.4-0.7
				c2,1,4,1.9,6.1,2.5c1.6,0.5,2.6,2,2.6,3.6v3.2c0,2.7,2.2,5,5,5h8.7c2.7,0,5-2.2,5-5v-3.2c0-1.7,1.1-3.1,2.6-3.6
				c2.1-0.7,4.1-1.5,6.1-2.5c0.5-0.3,1.1-0.4,1.7-0.4C73.6,191.4,74.6,191.8,75.3,192.5z"/>
			<path class="st5" d="M21.9,156.9c0-17.1,13.9-31,31-31c17.1,0,31,13.9,31,31s-13.9,31-31,31C35.7,187.9,21.9,174,21.9,156.9z
				 M24.9,156.9c0,15.4,12.5,27.9,27.9,27.9s27.9-12.5,27.9-27.9s-12.5-27.9-27.9-27.9C37.4,128.9,24.9,141.4,24.9,156.9z"/>
			<path class="st5" d="M88.3,238.3v-2.5c0-0.1-0.1-0.2-0.2-0.2c-1.8-0.6-3.6-1.3-5.2-2.2c-0.1-0.1-0.2,0-0.3,0l-1.8,1.8
				c-2.6,2.6-6.8,2.6-9.4,0l-4.9-4.9c0,0,0,0,0,0c-2.6-2.6-2.6-6.8,0-9.4l1.8-1.8c0.1-0.1,0.1-0.2,0-0.3c-0.9-1.7-1.6-3.4-2.2-5.2
				c0-0.1-0.1-0.2-0.2-0.2h-2.5c-3.3,0-6.1-2.4-6.6-5.7c-0.1-0.8,0.4-1.6,1.2-1.7c2.4-0.4,4.1-2.5,4.1-4.9v-3.2
				c0-1.7,1.1-3.1,2.6-3.6c2.1-0.7,4.1-1.5,6.1-2.5c1.5-0.8,3.3-0.5,4.4,0.7l2.3,2.3c1.9,1.9,5.1,1.9,7,0l6.1-6.1
				c1.9-1.9,1.9-5.1,0-7l-2.3-2.3c-1.2-1.2-1.4-3-0.7-4.4c1-2,1.9-4,2.5-6.1c0.5-1.6,2-2.6,3.6-2.6h3.2c2.1,0,4-1.3,4.7-3.3
				c0.3-0.8,1.1-1.2,1.9-1c2.9,0.8,4.8,3.4,4.9,6.4v2.5c0,0.1,0.1,0.2,0.2,0.2c1.8,0.6,3.6,1.3,5.2,2.2c0.1,0.1,0.2,0,0.3,0l1.8-1.8
				c2.6-2.6,6.8-2.6,9.4,0l4.9,4.9c2.6,2.6,2.6,6.8,0,9.4l-1.8,1.8c-0.1,0.1-0.1,0.2,0,0.3c0.9,1.7,1.6,3.4,2.2,5.2
				c0,0.1,0.1,0.2,0.2,0.2h2.5c3.7,0,6.6,3,6.7,6.7v6.9c0,3.7-3,6.6-6.7,6.7h-2.5c-0.1,0-0.2,0.1-0.2,0.2c-0.6,1.8-1.3,3.6-2.2,5.2
				c-0.1,0.1,0,0.2,0,0.3l1.8,1.8c2.6,2.6,2.6,6.8,0,9.4l-4.9,4.9c-2.6,2.6-6.8,2.6-9.4,0l-1.8-1.8c-0.1-0.1-0.2-0.1-0.3,0
				c-1.7,0.9-3.4,1.6-5.2,2.2c-0.1,0-0.2,0.1-0.2,0.2v2.5c0,3.7-3,6.7-6.7,6.7H95C91.3,245,88.3,242,88.3,238.3z M116.4,231.2
				l1.8,1.8c1.4,1.4,3.7,1.4,5.1,0l4.9-4.9c1.4-1.4,1.4-3.7,0-5.1l-1.8-1.8c-1-1-1.3-2.6-0.6-3.9c0.8-1.5,1.5-3.1,2-4.8
				c0.4-1.4,1.7-2.3,3.2-2.3h2.5c2,0,3.6-1.6,3.6-3.6v-6.9c0-2-1.6-3.6-3.6-3.6h-2.5c-1.4,0-2.7-0.9-3.2-2.3c-0.5-1.6-1.2-3.2-2-4.8
				c-0.7-1.3-0.4-2.9,0.6-3.9l1.8-1.8c1.4-1.4,1.4-3.7,0-5.1l-4.9-4.9c-1.4-1.4-3.7-1.4-5.1,0l-1.8,1.8c-1,1-2.6,1.3-3.9,0.6
				c-1.5-0.8-3.1-1.5-4.8-2c-1.4-0.4-2.3-1.7-2.3-3.2v-2.5c0-1.2-0.6-2.2-1.5-2.9c-1.5,2.4-4,3.8-6.8,3.8h-3.2
				c-0.3,0-0.6,0.2-0.7,0.5c-0.7,2.3-1.6,4.5-2.7,6.6c-0.1,0.3-0.1,0.6,0.1,0.9l2.3,2.3c3.1,3.1,3.1,8.2,0,11.3l-6.1,6.1
				c-3.1,3.1-8.2,3.1-11.3,0l-2.3-2.3c-0.2-0.2-0.6-0.3-0.9-0.1c-2.1,1.1-4.3,2-6.6,2.7c-0.3,0.1-0.5,0.4-0.5,0.7v3.2
				c0,3.2-1.9,6.2-4.9,7.4c0.6,1.1,1.8,1.8,3.1,1.8h2.5c1.4,0,2.7,0.9,3.2,2.3c0.5,1.6,1.2,3.2,2,4.8c0.7,1.3,0.4,2.9-0.6,3.9
				l-1.8,1.8c-1.4,1.4-1.4,3.7,0,5.1l4.9,4.9c1.4,1.4,3.7,1.4,5.1,0l1.8-1.8c1-1,2.6-1.3,3.9-0.6c1.5,0.8,3.1,1.5,4.8,2
				c1.4,0.4,2.3,1.7,2.3,3.2v2.5c0,2,1.6,3.6,3.6,3.6h6.9c2,0,3.6-1.6,3.6-3.6v-2.5c0-1.4,0.9-2.7,2.3-3.2c1.6-0.5,3.2-1.2,4.8-2
				c0.5-0.2,1-0.4,1.5-0.4C114.9,230.3,115.8,230.6,116.4,231.2z"/>
			<path class="st5" d="M90.6,226.4c-12.8-4.3-19.6-18.1-15.3-30.9c0.1-0.2,0.2-0.4,0.3-0.5c0.6-0.6,1.5-0.7,2.2-0.1
				c1.4,1.3,3.4,1.6,5.2,0.9c0.4-0.2,0.8-0.1,1.2,0c0.8,0.3,1.2,1.2,0.8,2c-1.4,3.3-1.4,7.1-0.2,10.5c2.8,7.6,11.1,11.5,18.7,8.7
				c7.6-2.8,11.5-11.1,8.7-18.7c-2.8-7.6-11.1-11.5-18.7-8.7c-0.4,0.2-0.9,0.1-1.3-0.1c-0.7-0.4-1-1.3-0.6-2.1
				c0.9-1.7,0.8-3.8-0.4-5.3c-0.1-0.2-0.2-0.3-0.2-0.5c-0.2-0.8,0.3-1.7,1.1-1.9c2.1-0.6,4.2-0.9,6.4-0.9
				c13.5,0,24.4,10.9,24.4,24.4c0,13.5-10.9,24.4-24.4,24.4C95.8,227.7,93.1,227.3,90.6,226.4z M94.7,182.3c0.4,1.2,0.6,2.5,0.5,3.7
				c2.4-0.4,4.9-0.4,7.3,0.2c9.5,2.2,15.3,11.7,13.1,21.2c-2.2,9.5-11.7,15.3-21.2,13.1c-9.5-2.2-15.3-11.7-13.1-21.2
				c-1.3,0-2.5-0.2-3.6-0.8c-0.4,1.6-0.6,3.2-0.6,4.9c0,11.8,9.6,21.3,21.4,21.3c11.8,0,21.3-9.6,21.3-21.4
				c0-11.8-9.6-21.3-21.4-21.3C97.2,182,95.9,182.1,94.7,182.3z"/>
			<g>
				<path class="st5" d="M55.8,169.4h-9.7c-0.8,0-1.5-0.7-1.5-1.5c0-0.8,0.7-1.5,1.5-1.5h9.7c2.2,0,4-1.8,4-4c0-2.2-1.8-4-4-4h-6.1
					c-3.9,0-7-3.2-6.9-7.1c0-3.8,3.1-6.9,6.9-6.9h8.6c0.8,0,1.5,0.7,1.5,1.5c0,0.8-0.7,1.5-1.5,1.5h-8.6c-2.2,0-3.9,1.8-3.9,4
					c0,2.1,1.8,3.9,3.9,3.9h6.1c3.9,0,7,3.1,7,7C62.8,166.2,59.7,169.4,55.8,169.4z"/>
				<path class="st5" d="M52.8,173.1c-0.8,0-1.5-0.7-1.5-1.5v-29.4c0-0.8,0.7-1.5,1.5-1.5s1.5,0.7,1.5,1.5v29.4
					C54.3,172.4,53.6,173.1,52.8,173.1z"/>
			</g>
		</g>
		<path class="st5" d="M28.6,156.9L28.6,156.9c0-13.4,10.8-24.2,24.2-24.2c13.4,0,24.2,10.8,24.2,24.2c0,13.4-10.8,24.2-24.2,24.2
			C39.5,181.1,28.7,170.2,28.6,156.9z M31.7,156.9c0,11.7,9.5,21.2,21.2,21.2c11.7,0,21.2-9.5,21.2-21.2c0-11.7-9.5-21.2-21.2-21.2
			C41.2,135.7,31.7,145.2,31.7,156.9z"/>
	</g>
	<g>
		<path class="st6" d="M355.9,160.7v-3.2c0-1-0.6-1.9-1.6-2.2c-2.2-0.7-4.3-1.6-6.3-2.6c-0.9-0.5-1.9-0.3-2.6,0.4l-2.3,2.3
			c-0.1,0.1-0.2,0.1-0.2,0.2c4,12-2.4,24.9-14.4,29c-12,4-24.9-2.4-29-14.4c-4-12,2.4-24.9,14.4-29c4.3-1.4,8.9-1.6,13.3-0.4
			c0.2-0.3,0.4-0.5,0.6-0.7l2.3-2.3c0.7-0.7,0.9-1.8,0.4-2.6c-1.1-2-1.9-4.1-2.6-6.3c-0.3-0.9-1.2-1.6-2.2-1.6h-3.2
			c-2.7,0-5.2-1.7-6.1-4.3c-2.2,0.6-3.7,2.6-3.7,4.9v2.5c0,0.8-0.5,1.5-1.2,1.7c-1.7,0.5-3.4,1.2-5,2.1c-0.7,0.4-1.5,0.2-2.1-0.3
			l-1.8-1.8c-2-2-5.3-2-7.3,0l-4.9,4.9c-2,2-2,5.2,0,7.3l1.8,1.8c0.6,0.6,0.7,1.4,0.3,2.1c-0.8,1.6-1.5,3.3-2.1,5
			c-0.2,0.7-0.9,1.2-1.7,1.2h-2.5c-2.8,0-5.1,2.3-5.1,5.1v6.9c0,2.8,2.3,5.1,5.1,5.1h2.5c0.8,0,1.5,0.5,1.7,1.2
			c0.5,1.7,1.2,3.4,2.1,5c0.4,0.7,0.2,1.5-0.3,2.1l-1.8,1.8c-2,2-2,5.2,0,7.3l4.9,4.9c2,2,5.3,2,7.3,0l1.8-1.8
			c0.6-0.6,1.4-0.7,2.1-0.3c1.6,0.8,3.3,1.5,5,2.1c0.7,0.2,1.2,0.9,1.2,1.7v2.5c0,2.8,2.3,5.1,5.1,5.1h6.9c2.8,0,5.1-2.3,5.1-5.1
			v-2.5c0-0.8,0.5-1.5,1.2-1.7c1.7-0.5,3.4-1.2,5-2.1c0.7-0.4,1.5-0.2,2.1,0.3l1.8,1.8c2,2,5.2,2,7.3,0l4.9-4.9c2-2,2-5.2,0-7.3
			l-1.8-1.8c-0.6-0.6-0.7-1.4-0.3-2.1c0.8-1.6,1.5-3.3,2.1-5c0.2-0.7,0.9-1.2,1.7-1.2h2.5c2.5,0,4.7-1.9,5.1-4.4
			C358.2,166.6,355.9,163.9,355.9,160.7z"/>
		<path class="st7" d="M321.2,140c-12.6,0-22.9,10.2-22.9,22.9c0,12.6,10.2,22.9,22.9,22.9c12.6,0,22.9-10.2,22.9-22.9
			c0-2.5-0.4-5-1.2-7.3c-1.8,1.7-4.5,2.1-6.8,1.2c3.3,8.2-0.6,17.6-8.8,20.9c-8.2,3.3-17.6-0.6-20.9-8.8c-3.3-8.2,0.6-17.6,8.8-20.9
			c3.7-1.5,7.8-1.6,11.5-0.2c-1.2-2.2-1-4.9,0.5-7C325.2,140.3,323.2,140,321.2,140z"/>
		<path class="st8" d="M411,105.6h-3.2c-1,0-1.9-0.6-2.2-1.6c-0.7-2.2-1.6-4.3-2.6-6.3c-0.5-0.9-0.3-1.9,0.4-2.6l2.3-2.3
			c2.5-2.5,2.5-6.6,0-9.2l-6.1-6.1c-2.5-2.5-6.6-2.5-9.2,0l-2.3,2.3c-0.7,0.7-1.8,0.9-2.6,0.4c-2-1.1-4.1-1.9-6.3-2.6
			c-0.9-0.3-1.6-1.2-1.6-2.2v-3.2c0-3.6-2.9-6.5-6.5-6.5h-8.7c-3.6,0-6.5,2.9-6.5,6.5v3.2c0,1-0.6,1.9-1.6,2.2
			c-2.2,0.7-4.3,1.6-6.3,2.6c-0.9,0.5-1.9,0.3-2.6-0.4l-2.3-2.3c-2.5-2.5-6.6-2.5-9.2,0l-6.1,6.1c-2.5,2.5-2.5,6.6,0,9.2l2.3,2.3
			c0.7,0.7,0.9,1.8,0.4,2.6c-1.1,2-1.9,4.1-2.6,6.3c-0.3,0.9-1.2,1.6-2.2,1.6h-3.2c-3.6,0-6.5,2.9-6.5,6.5v8.7
			c0,3.6,2.9,6.5,6.5,6.5h3.2c1,0,1.9,0.6,2.2,1.6c0.7,2.2,1.6,4.3,2.6,6.3c0.5,0.9,0.3,1.9-0.4,2.6l-2.3,2.3
			c-2.5,2.5-2.5,6.6,0,9.2l6.1,6.1c2.5,2.5,6.6,2.5,9.2,0l2.3-2.3c0.7-0.7,1.8-0.9,2.6-0.4c2,1.1,4.1,1.9,6.3,2.6
			c0.9,0.3,1.6,1.2,1.6,2.2v3.2c0,3.6,2.9,6.5,6.5,6.5h8.7c3.6,0,6.5-2.9,6.5-6.5v-3.2c0-1,0.6-1.9,1.6-2.2c2.2-0.7,4.3-1.6,6.3-2.6
			c0.9-0.5,1.9-0.3,2.6,0.4l2.3,2.3c2.5,2.5,6.6,2.5,9.2,0l6.1-6.1c2.5-2.5,2.5-6.6,0-9.2l-2.3-2.3c-0.7-0.7-0.9-1.8-0.4-2.6
			c1.1-2,1.9-4.1,2.6-6.3c0.3-0.9,1.2-1.6,2.2-1.6h3.2c3.6,0,6.5-2.9,6.5-6.5v-8.7C417.5,108.5,414.6,105.6,411,105.6
			C411,105.6,411,105.6,411,105.6z"/>
		<path class="st6" d="M366.7,145.9c-16.3,0-29.5-13.2-29.5-29.5c0-16.3,13.2-29.5,29.5-29.5c16.3,0,29.5,13.2,29.5,29.5v0
			C396.2,132.7,383,145.9,366.7,145.9z"/>
		<path class="st7" d="M366.7,93.8c-12.5,0-22.7,10.2-22.7,22.7c0,12.5,10.2,22.7,22.7,22.7c12.5,0,22.7-10.2,22.7-22.7
			C389.4,103.9,379.3,93.8,366.7,93.8z"/>
		<g>
			<path class="st5" d="M371.1,168.7h-8.7c-4.4,0-8-3.6-8-8v-3.2c0-0.3-0.2-0.6-0.5-0.7c-2.3-0.7-4.5-1.6-6.6-2.7
				c-0.3-0.1-0.6-0.1-0.9,0.1l-2.3,2.3c-3.1,3.1-8.2,3.1-11.3,0l-6.1-6.1c-3.1-3.1-3.1-8.2,0-11.3l2.3-2.3c0.2-0.2,0.3-0.6,0.1-0.9
				c-1.1-2.1-2-4.3-2.7-6.6c-0.1-0.3-0.4-0.5-0.7-0.5h-3.2c-4.4,0-8-3.6-8-8v-8.7c0-4.4,3.6-8,8-8h3.2c0.3,0,0.6-0.2,0.7-0.5
				c0.7-2.3,1.6-4.5,2.7-6.6c0.1-0.3,0.1-0.6-0.1-0.9l-2.3-2.3c-3.1-3.1-3.1-8.2,0-11.3l6.1-6.1c1.5-1.5,3.5-2.4,5.7-2.3
				c2.1,0,4.2,0.8,5.7,2.3l2.3,2.3c0.2,0.2,0.6,0.3,0.9,0.1c2.1-1.1,4.3-2,6.6-2.7c0.3-0.1,0.5-0.4,0.5-0.7v-3.2c0-4.4,3.6-8,8-8
				h8.7c4.4,0,8,3.6,8,8v3.2c0,0.3,0.2,0.6,0.5,0.7c2.3,0.7,4.5,1.6,6.6,2.7c0.3,0.1,0.6,0.1,0.9-0.1l2.3-2.3
				c3.1-3.1,8.2-3.1,11.3,0l6.1,6.1c3.1,3.1,3.1,8.2,0,11.3l-2.3,2.3c-0.2,0.2-0.3,0.6-0.1,0.9c1.1,2.1,2,4.3,2.7,6.6
				c0.1,0.3,0.4,0.5,0.7,0.5h3.2c4.4,0,8,3.6,8,8v8.7c0,4.4-3.6,8-8,8h-3.2c-0.3,0-0.6,0.2-0.7,0.5c-0.7,2.3-1.6,4.5-2.7,6.6
				c-0.1,0.3-0.1,0.6,0.1,0.9l2.3,2.3c3.1,3.1,3.1,8.2,0,11.3l-6.1,6.1c-3.1,3.1-8.2,3.1-11.3,0l-2.3-2.3c-0.2-0.2-0.6-0.3-0.9-0.1
				c-2.1,1.1-4.3,2-6.6,2.7c-0.3,0.1-0.5,0.4-0.5,0.7v3.2C379.1,165.2,375.5,168.7,371.1,168.7z M347,150.9c0.6,0,1.2,0.1,1.7,0.4
				c2,1,4,1.9,6.1,2.5c1.6,0.5,2.6,2,2.6,3.6v3.2c0,2.7,2.2,5,5,5h8.7c2.7,0,5-2.2,5-5v-3.2c0-1.7,1.1-3.1,2.6-3.6
				c2.1-0.7,4.1-1.5,6.1-2.5c1.5-0.8,3.3-0.5,4.4,0.7l2.3,2.3c1.9,1.9,5.1,1.9,7,0l6.1-6.1c1.9-1.9,1.9-5.1,0-7l-2.3-2.3
				c-1.2-1.2-1.4-3-0.7-4.4c1-2,1.9-4,2.5-6.1c0.5-1.6,2-2.6,3.6-2.6h3.2c2.7,0,5-2.2,5-5v-8.7c0-2.7-2.2-5-5-5h-3.2
				c-1.7,0-3.1-1.1-3.6-2.6c-0.7-2.1-1.5-4.1-2.5-6.1c-0.8-1.5-0.5-3.3,0.7-4.4l2.3-2.3c1.9-1.9,1.9-5.1,0-7l-6.1-6.1
				c-1.9-1.9-5.1-1.9-7,0l-2.3,2.3c-1.2,1.2-3,1.4-4.4,0.7c-2-1-4-1.9-6.1-2.5c-1.6-0.5-2.6-2-2.6-3.6v-3.2c0-2.7-2.2-5-5-5h-8.7
				c-2.7,0-5,2.2-5,5v3.2c0,1.7-1.1,3.1-2.6,3.6c-2.1,0.7-4.1,1.5-6.1,2.5c-1.5,0.8-3.3,0.5-4.4-0.7l-2.3-2.3c-1.9-1.9-5.1-1.9-7,0
				l-6.1,6.1c-1.9,1.9-1.9,5.1,0,7l2.3,2.3c1.2,1.2,1.4,3,0.7,4.4c-1,2-1.9,4-2.5,6.1c-0.5,1.6-2,2.6-3.6,2.6h-3.2c-2.7,0-5,2.2-5,5
				v8.7c0,2.7,2.2,5,5,5h3.2c1.7,0,3.1,1.1,3.6,2.6c0.7,2.1,1.5,4.1,2.5,6.1c0.8,1.5,0.5,3.3-0.7,4.4l-2.3,2.3c-1.9,1.9-1.9,5.1,0,7
				l6.1,6.1c1.9,1.9,5.1,1.9,7,0l2.3-2.3C345,151.3,346,150.9,347,150.9z"/>
			<path class="st5" d="M366.7,147.5c-17.1,0-31-13.9-31-31s13.9-31,31-31c17.1,0,31,13.9,31,31
				C397.7,133.6,383.9,147.4,366.7,147.5z M366.7,88.5c-15.4,0-27.9,12.5-27.9,27.9s12.5,27.9,27.9,27.9s27.9-12.5,27.9-27.9
				C394.7,101,382.2,88.5,366.7,88.5z"/>
			<path class="st5" d="M324.6,204.6h-6.9c-3.7,0-6.7-3-6.7-6.7v-2.5c0-0.1-0.1-0.2-0.2-0.2c-1.8-0.6-3.6-1.3-5.2-2.2
				c-0.1-0.1-0.2,0-0.3,0l-1.8,1.8c-2.6,2.6-6.8,2.6-9.4,0l-4.9-4.9c-2.6-2.6-2.6-6.8,0-9.4l1.8-1.8c0.1-0.1,0.1-0.2,0-0.3
				c-0.9-1.7-1.6-3.4-2.2-5.2c0-0.1-0.1-0.2-0.2-0.2h-2.5c-3.7,0-6.6-3-6.7-6.7v-6.9c0-3.7,3-6.6,6.7-6.7h2.5c0.1,0,0.2-0.1,0.2-0.2
				c0.6-1.8,1.3-3.6,2.2-5.2c0.1-0.1,0-0.2,0-0.3l-1.8-1.8c-2.6-2.6-2.6-6.8,0-9.4l4.9-4.9c2.6-2.6,6.8-2.6,9.4,0l1.8,1.8
				c0.1,0.1,0.2,0.1,0.3,0c1.7-0.9,3.4-1.6,5.2-2.2c0.1,0,0.2-0.1,0.2-0.2v-2.5c0-3,2-5.6,4.9-6.4c0.8-0.2,1.6,0.2,1.9,1
				c0.7,2,2.6,3.3,4.7,3.3h3.2c1.7,0,3.1,1.1,3.6,2.6c0.7,2.1,1.5,4.1,2.5,6.1c0.8,1.5,0.5,3.3-0.7,4.4l-2.3,2.3
				c-1.9,1.9-1.9,5.1,0,7l6.1,6.1c1.9,1.9,5.1,1.9,7,0l2.3-2.3c1.2-1.2,3-1.4,4.4-0.7c2,1,4,1.9,6.1,2.5c1.6,0.5,2.6,2,2.6,3.6v3.2
				c0,2.4,1.7,4.5,4.1,4.9c0.8,0.1,1.4,0.9,1.2,1.7c-0.5,3.2-3.3,5.6-6.6,5.7h-2.5c-0.1,0-0.2,0.1-0.2,0.2c-0.6,1.8-1.3,3.6-2.2,5.2
				c-0.1,0.1,0,0.2,0,0.3l1.8,1.8c2.6,2.6,2.6,6.8,0,9.4c0,0,0,0,0,0l-4.9,4.9c-2.6,2.6-6.8,2.6-9.4,0L337,193
				c-0.1-0.1-0.2-0.1-0.3,0c-1.7,0.9-3.4,1.6-5.2,2.2c-0.1,0-0.2,0.1-0.2,0.2v2.5C331.3,201.6,328.3,204.6,324.6,204.6z
				 M305.6,189.9c0.5,0,1.1,0.1,1.5,0.4c1.5,0.8,3.1,1.5,4.8,2c1.4,0.4,2.3,1.7,2.3,3.2v2.5c0,2,1.6,3.6,3.6,3.6h6.9
				c2,0,3.6-1.6,3.6-3.6v-2.5c0-1.4,0.9-2.7,2.3-3.2c1.6-0.5,3.2-1.2,4.8-2c1.3-0.7,2.9-0.4,3.9,0.6l1.8,1.8c1.4,1.4,3.7,1.4,5.1,0
				l4.9-4.9c1.4-1.4,1.4-3.7,0-5.1l-1.8-1.8c-1-1-1.3-2.6-0.6-3.9c0.8-1.5,1.5-3.1,2-4.8c0.4-1.4,1.7-2.3,3.2-2.3h2.5
				c1.3,0,2.5-0.7,3.1-1.8c-3-1.2-4.9-4.2-4.9-7.4v-3.2c0-0.3-0.2-0.6-0.5-0.7c-2.3-0.7-4.5-1.6-6.6-2.7c-0.3-0.1-0.6-0.1-0.9,0.1
				l-2.3,2.3c-3.1,3.1-8.2,3.1-11.3,0l-6.1-6.1c-3.1-3.1-3.1-8.2,0-11.3l2.3-2.3c0.2-0.2,0.3-0.6,0.1-0.9c-1.1-2.1-2-4.3-2.7-6.6
				c-0.1-0.3-0.4-0.5-0.7-0.5h-3.2c-2.8,0-5.4-1.5-6.8-3.8c-0.9,0.7-1.5,1.8-1.5,2.9v2.5c0,1.4-0.9,2.7-2.3,3.2
				c-1.6,0.5-3.2,1.2-4.8,2c-1.3,0.7-2.9,0.4-3.9-0.6l-1.8-1.8c-1.4-1.4-3.7-1.4-5.1,0l-4.9,4.9c-1.4,1.4-1.4,3.7,0,5.1l1.8,1.8
				c1,1,1.3,2.6,0.6,3.9c-0.8,1.5-1.5,3.1-2,4.8c-0.4,1.4-1.7,2.3-3.2,2.3h-2.5c-2,0-3.6,1.6-3.6,3.6v6.9c0,2,1.6,3.6,3.6,3.6h2.5
				c1.4,0,2.7,0.9,3.2,2.3c0.5,1.6,1.2,3.2,2,4.8c0.7,1.3,0.4,2.9-0.6,3.9l-1.8,1.8c-1.4,1.4-1.4,3.7,0,5.1l4.9,4.9
				c1.4,1.4,3.7,1.4,5.1,0l1.8-1.8C303.8,190.2,304.7,189.9,305.6,189.9z"/>
			<path class="st5" d="M321.2,187.3c-13.5,0-24.4-10.9-24.4-24.4c0-13.5,10.9-24.4,24.4-24.4c2.2,0,4.3,0.3,6.4,0.9
				c0.8,0.2,1.3,1.1,1.1,1.9c-0.1,0.2-0.1,0.4-0.2,0.5c-1.1,1.5-1.3,3.6-0.4,5.3c0.4,0.7,0.1,1.7-0.6,2.1c-0.4,0.2-0.8,0.2-1.3,0.1
				c-7.6-2.8-15.9,1.1-18.7,8.7c-2.8,7.6,1.1,15.9,8.7,18.7c7.6,2.8,15.9-1.1,18.7-8.7c1.2-3.4,1.2-7.1-0.2-10.5
				c-0.3-0.8,0.1-1.7,0.8-2c0.4-0.2,0.8-0.2,1.2,0c1.8,0.7,3.8,0.3,5.2-0.9c0.6-0.6,1.6-0.5,2.2,0.1c0.1,0.2,0.2,0.3,0.3,0.5
				c4.3,12.8-2.6,26.6-15.3,30.9C326.5,186.9,323.8,187.3,321.2,187.3z M321.2,141.6c-11.8,0-21.4,9.5-21.4,21.3
				c0,11.8,9.5,21.4,21.3,21.4c11.8,0,21.4-9.5,21.4-21.3c0-1.6-0.2-3.3-0.6-4.9c-1.1,0.5-2.4,0.8-3.6,0.8
				c2.2,9.5-3.6,18.9-13.1,21.2c-9.5,2.2-18.9-3.6-21.2-13.1c-2.2-9.5,3.6-18.9,13.1-21.2c2.4-0.6,4.9-0.6,7.3-0.2
				c-0.1-1.3,0-2.5,0.5-3.7C323.7,141.7,322.4,141.6,321.2,141.6z"/>
			<path class="st5" d="M369.8,129h-9.7c-0.8,0-1.5-0.7-1.5-1.5s0.7-1.5,1.5-1.5h9.7c2.2,0,4-1.8,4-4s-1.8-4-4-4h-6.1
				c-3.9,0-7-3.2-6.9-7.1c0-3.8,3.1-6.9,6.9-6.9h8.6c0.8,0,1.5,0.7,1.5,1.5s-0.7,1.5-1.5,1.5h-8.6c-2.2,0-3.9,1.8-3.9,4
				c0,2.1,1.8,3.9,3.9,3.9h6.1c3.9,0,7,3.1,7,7C376.8,125.8,373.7,129,369.8,129z"/>
			<path class="st5" d="M366.7,132.7c-0.8,0-1.5-0.7-1.5-1.5v-29.4c0-0.8,0.7-1.5,1.5-1.5c0.8,0,1.5,0.7,1.5,1.5v29.4
				C368.3,132,367.6,132.7,366.7,132.7z"/>
		</g>
		<path class="st5" d="M366.7,140.7c-13.4,0-24.2-10.8-24.2-24.2c0-13.4,10.8-24.2,24.2-24.2c13.4,0,24.2,10.8,24.2,24.2v0
			C390.9,129.8,380.1,140.7,366.7,140.7z M366.7,95.3c-11.7,0-21.2,9.5-21.2,21.2c0,11.7,9.5,21.2,21.2,21.2
			c11.7,0,21.2-9.5,21.2-21.2C387.9,104.8,378.4,95.3,366.7,95.3z"/>
	</g>
	<g>
		<path class="st6" d="M224.4,95.8l-1.3-2.9c-0.4-0.9-1.3-1.4-2.3-1.3c-2.3,0.3-4.6,0.3-6.8,0.2c-1-0.1-1.9,0.5-2.2,1.5l-1.1,3
			c0,0.1-0.1,0.2-0.1,0.3c8.6,9.2,8.1,23.7-1.1,32.3c-9.2,8.6-23.7,8.1-32.3-1.1c-8.6-9.2-8.1-23.7,1.1-32.3
			c3.3-3.1,7.5-5.1,11.9-5.8c0.1-0.3,0.2-0.6,0.3-0.9l1.1-3c0.3-0.9,0.1-2-0.7-2.6c-1.8-1.4-3.5-3-5-4.7c-0.7-0.7-1.7-0.9-2.6-0.5
			l-2.9,1.3c-2.5,1.1-5.5,0.6-7.4-1.4c-1.8,1.5-2.3,3.9-1.4,6l1.1,2.3c0.3,0.7,0.1,1.5-0.4,2.1c-1.3,1.2-2.6,2.5-3.7,4
			c-0.5,0.6-1.3,0.8-2,0.6l-2.4-0.9c-2.7-1-5.6,0.3-6.6,3l-2.4,6.4c-1,2.7,0.3,5.6,3,6.6l2.4,0.9c0.7,0.3,1.2,1,1.2,1.8
			c-0.1,1.8,0,3.6,0.2,5.4c0.1,0.8-0.3,1.5-1,1.8l-2.3,1.1c-2.6,1.2-3.7,4.2-2.5,6.8l2.8,6.3c1.2,2.6,4.2,3.7,6.8,2.5l2.3-1.1
			c0.7-0.3,1.5-0.1,2.1,0.4c1.2,1.3,2.5,2.6,4,3.7c0.6,0.5,0.8,1.3,0.6,2l-0.9,2.4c-1,2.7,0.3,5.6,3,6.6l6.4,2.4
			c2.7,1,5.6-0.3,6.6-3l0.9-2.4c0.3-0.7,1-1.2,1.8-1.2c1.8,0.1,3.6,0,5.4-0.2c0.8-0.1,1.5,0.3,1.8,1l1.1,2.3
			c1.2,2.6,4.2,3.7,6.8,2.5l6.3-2.8c2.6-1.2,3.7-4.2,2.5-6.8l-1.1-2.3c-0.3-0.7-0.1-1.5,0.4-2.1c1.3-1.2,2.6-2.5,3.7-4
			c0.5-0.6,1.3-0.8,2-0.6l2.4,0.9c2.7,1,5.6-0.3,6.6-3l2.4-6.4c1-2.7-0.3-5.6-3-6.6l-2.4-0.9c-0.7-0.3-1.2-1-1.2-1.8
			c0.1-1.8,0-3.6-0.2-5.4c-0.1-0.8,0.3-1.5,1-1.8l2.3-1.1c2.3-1,3.5-3.6,2.8-6.1C228.9,100.1,225.7,98.6,224.4,95.8z"/>
		<path class="st7" d="M184.2,91.3c-11.5,5.2-16.6,18.8-11.4,30.3c5.2,11.5,18.8,16.6,30.3,11.4c11.5-5.2,16.6-18.8,11.4-30.3
			c-1-2.3-2.4-4.3-4.1-6.2c-1,2.3-3.2,3.8-5.7,3.9c6.4,6.1,6.7,16.3,0.6,22.7c-6.1,6.4-16.3,6.7-22.7,0.6
			c-6.4-6.1-6.7-16.3-0.6-22.7c2.7-2.9,6.4-4.7,10.4-5c-2-1.5-3-4.1-2.4-6.5C188,89.9,186.1,90.4,184.2,91.3z"/>
		<path class="st8" d="M251.8,22.8l-2.9,1.3c-0.9,0.4-2,0.2-2.6-0.5c-1.5-1.7-3.2-3.3-5-4.7c-0.8-0.6-1.1-1.6-0.7-2.6l1.1-3
			c1.3-3.4-0.4-7.1-3.8-8.3l-8.1-3.1c-3.4-1.3-7.1,0.4-8.3,3.8l-1.1,3c-0.3,0.9-1.3,1.5-2.2,1.5c-2.3-0.1-4.6,0-6.8,0.2
			c-1,0.1-1.9-0.4-2.3-1.3l-1.3-2.9c-1.5-3.3-5.3-4.7-8.6-3.2L191,6.6c-3.3,1.5-4.7,5.3-3.2,8.6l1.3,2.9c0.4,0.9,0.2,2-0.5,2.6
			c-1.7,1.5-3.3,3.2-4.7,5c-0.6,0.8-1.6,1.1-2.6,0.7l-3-1.1c-3.4-1.3-7.1,0.4-8.3,3.8l-3.1,8.1c-1.3,3.4,0.4,7.1,3.8,8.3l3,1.1
			c0.9,0.3,1.5,1.3,1.5,2.2c-0.1,2.3,0,4.6,0.2,6.8c0.1,1-0.4,1.9-1.3,2.3l-2.9,1.3c-3.3,1.5-4.7,5.3-3.2,8.6l3.6,7.9
			c1.5,3.3,5.3,4.7,8.6,3.2l2.9-1.3c0.9-0.4,2-0.2,2.6,0.5c1.5,1.7,3.2,3.3,5,4.7c0.8,0.6,1.1,1.6,0.7,2.6l-1.1,3
			c-1.3,3.4,0.4,7.1,3.8,8.3l8.1,3.1c3.4,1.3,7.1-0.4,8.3-3.8l1.1-3c0.3-0.9,1.3-1.5,2.2-1.5c2.3,0.1,4.6,0,6.8-0.2
			c1-0.1,1.9,0.4,2.3,1.3l1.3,2.9c1.5,3.3,5.3,4.7,8.6,3.2l7.9-3.6c3.3-1.5,4.7-5.3,3.2-8.6l-1.3-2.9c-0.4-0.9-0.2-2,0.5-2.6
			c1.7-1.5,3.3-3.2,4.7-5c0.6-0.8,1.6-1.1,2.6-0.7l3,1.1c3.4,1.3,7.1-0.4,8.3-3.8l3.1-8.1c1.3-3.4-0.4-7.1-3.8-8.3l-3-1.1
			c-0.9-0.3-1.5-1.3-1.5-2.2c0.1-2.3,0-4.6-0.2-6.8c-0.1-1,0.4-1.9,1.3-2.3l2.9-1.3c3.3-1.5,4.7-5.3,3.2-8.6l-3.6-7.9
			C258.9,22.8,255,21.3,251.8,22.8C251.8,22.8,251.8,22.8,251.8,22.8z"/>
		<path class="st6" d="M228.1,77.8c-14.8,6.7-32.3,0.2-39-14.6c-6.7-14.8-0.2-32.3,14.6-39c14.8-6.7,32.3-0.2,39,14.6l0,0
			C249.5,53.6,243,71.1,228.1,77.8z"/>
		<path class="st7" d="M206.6,30.3c-11.4,5.2-16.5,18.6-11.3,30c5.2,11.4,18.6,16.5,30,11.3c11.4-5.2,16.5-18.6,11.3-30
			C231.4,30.2,218,25.2,206.6,30.3z"/>
		<g>
			<path class="st5" d="M241.5,96.8l-7.9,3.6c-4,1.8-8.8,0-10.6-4l-1.3-2.9c-0.1-0.3-0.4-0.5-0.8-0.4c-2.4,0.3-4.7,0.4-7.1,0.2
				c-0.3,0-0.6,0.2-0.7,0.5l-1.1,3c-1.6,4.1-6.2,6.2-10.3,4.7l-8.1-3.1c-4.1-1.6-6.2-6.2-4.7-10.3l1.1-3c0.1-0.3,0-0.6-0.2-0.8
				c-1.9-1.5-3.6-3.1-5.2-4.9c-0.2-0.2-0.6-0.3-0.8-0.2l-2.9,1.3c-4,1.8-8.8,0-10.6-4l-3.6-7.9c-1.8-4,0-8.8,4-10.6l2.9-1.3
				c0.3-0.1,0.5-0.4,0.4-0.8c-0.3-2.4-0.4-4.7-0.2-7.1c0-0.3-0.2-0.6-0.5-0.7l-3-1.1c-4.1-1.6-6.2-6.2-4.7-10.3l3.1-8.1
				c0.7-2,2.2-3.6,4.2-4.5c1.9-0.9,4.1-1,6.1-0.2l3,1.1c0.3,0.1,0.6,0,0.8-0.2c1.5-1.9,3.1-3.6,4.9-5.2c0.2-0.2,0.3-0.6,0.2-0.8
				l-1.3-2.9c-1.8-4,0-8.8,4-10.6l7.9-3.6c4-1.8,8.8,0,10.6,4l1.3,2.9c0.1,0.3,0.4,0.5,0.8,0.4c2.4-0.3,4.7-0.4,7.1-0.2
				c0.3,0,0.6-0.2,0.7-0.5l1.1-3c1.6-4.1,6.2-6.2,10.3-4.7l8.1,3.1c4.1,1.6,6.2,6.2,4.7,10.3l-1.1,3c-0.1,0.3,0,0.6,0.2,0.8
				c1.9,1.5,3.6,3.1,5.2,4.9c0.2,0.2,0.6,0.3,0.8,0.2l2.9-1.3c4-1.8,8.8,0,10.6,4l3.6,7.9c1.8,4,0,8.8-4,10.6l-2.9,1.3
				c-0.3,0.1-0.5,0.4-0.4,0.8c0.3,2.4,0.4,4.7,0.2,7.1c0,0.3,0.2,0.6,0.5,0.7l3,1.1c4.1,1.6,6.2,6.2,4.7,10.3l-3.1,8.1
				c-1.6,4.1-6.2,6.2-10.3,4.7l-3-1.1c-0.3-0.1-0.6,0-0.8,0.2c-1.5,1.9-3.1,3.6-4.9,5.2c-0.2,0.2-0.3,0.6-0.2,0.8l1.3,2.9
				C247.3,90.2,245.6,94.9,241.5,96.8z M212.2,90.6c0.6-0.3,1.2-0.4,1.8-0.3c2.2,0.1,4.4,0,6.6-0.2c1.6-0.2,3.2,0.7,3.9,2.2l1.3,2.9
				c1.1,2.5,4.1,3.6,6.6,2.5l7.9-3.6c2.5-1.1,3.6-4.1,2.5-6.6l-1.3-2.9c-0.7-1.5-0.3-3.3,0.9-4.4c1.6-1.5,3.1-3.1,4.5-4.8
				c1-1.3,2.8-1.8,4.3-1.2l3,1.1c2.6,1,5.4-0.3,6.4-2.9l3.1-8.1c1-2.6-0.3-5.4-2.9-6.4l-3-1.1c-1.5-0.6-2.5-2.1-2.5-3.7
				c0.1-2.2,0-4.4-0.2-6.6c-0.2-1.6,0.7-3.2,2.2-3.9l2.9-1.3c2.5-1.1,3.6-4.1,2.5-6.6l-3.6-7.9c-1.1-2.5-4.1-3.6-6.6-2.5l-2.9,1.3
				c-1.5,0.7-3.3,0.3-4.4-0.9c-1.5-1.6-3.1-3.1-4.8-4.5c-1.3-1-1.8-2.8-1.2-4.3l1.1-3c1-2.6-0.3-5.4-2.9-6.4l-8.1-3
				c-2.6-1-5.4,0.3-6.4,2.9l-1.1,3c-0.6,1.5-2.1,2.5-3.7,2.5c-2.2-0.1-4.4,0-6.6,0.2c-1.6,0.2-3.2-0.7-3.9-2.2l-1.3-2.9
				c-1.1-2.5-4.1-3.6-6.6-2.5L191.6,8c-2.5,1.1-3.6,4.1-2.5,6.6l1.3,2.9c0.7,1.5,0.3,3.3-0.9,4.4c-1.6,1.5-3.1,3.1-4.5,4.8
				c-1,1.3-2.8,1.8-4.3,1.2l-3-1.1c-2.6-1-5.4,0.3-6.4,2.9l-3.1,8.1c-1,2.6,0.3,5.4,2.9,6.4l3,1.1c1.5,0.6,2.5,2.1,2.5,3.7
				c-0.1,2.2,0,4.4,0.2,6.6c0.2,1.6-0.7,3.2-2.2,3.9l-2.9,1.3c-2.5,1.1-3.6,4.1-2.5,6.6l3.6,7.9c1.1,2.5,4.1,3.6,6.6,2.5l2.9-1.3
				c1.5-0.7,3.3-0.3,4.4,0.9c1.5,1.6,3.1,3.1,4.8,4.5c1.3,1,1.8,2.8,1.2,4.3l-1.1,3c-1,2.6,0.3,5.4,2.9,6.4l8.1,3.1
				c2.6,1,5.4-0.3,6.4-2.9l1.1-3C210.6,91.7,211.3,91,212.2,90.6z"/>
			<path class="st5" d="M228.8,79.2c-15.6,7.1-34,0.2-41.1-15.4c-7.1-15.6-0.2-34,15.4-41.1c15.6-7.1,34-0.2,41.1,15.4
				C251.2,53.7,244.4,72.1,228.8,79.2z M204.4,25.5c-14.1,6.4-20.3,23-13.9,37s23,20.3,37,13.9s20.3-23,13.9-37
				C235,25.4,218.4,19.2,204.4,25.5z"/>
			<path class="st5" d="M214.1,148.6l-6.3,2.8c-3.3,1.5-7.3,0-8.8-3.3l-1.1-2.3c0-0.1-0.2-0.2-0.3-0.1c-1.9,0.2-3.8,0.3-5.7,0.2
				c-0.1,0-0.2,0.1-0.3,0.2l-0.9,2.4c-1.3,3.4-5.1,5.2-8.6,3.9l-6.4-2.4c-3.4-1.3-5.2-5.1-3.9-8.6l0.9-2.4c0-0.1,0-0.2-0.1-0.3
				c-1.5-1.2-2.9-2.5-4.1-3.9c-0.1-0.1-0.2-0.1-0.3-0.1l-2.3,1.1c-3.3,1.5-7.3,0-8.8-3.3l-2.8-6.3c-1.5-3.3,0-7.3,3.3-8.8l2.3-1.1
				c0.1,0,0.2-0.2,0.1-0.3c-0.2-1.9-0.3-3.8-0.2-5.7c0-0.1-0.1-0.2-0.2-0.3l-2.4-0.9c-3.4-1.3-5.2-5.1-3.9-8.6l2.4-6.4
				c1.3-3.4,5.1-5.2,8.6-3.9l2.4,0.9c0.1,0,0.2,0,0.3-0.1c1.2-1.5,2.5-2.9,3.9-4.1c0.1-0.1,0.1-0.2,0.1-0.3l-1.1-2.3
				c-1.2-2.7-0.5-5.9,1.8-7.8c0.6-0.5,1.5-0.5,2.1,0.1c1.5,1.5,3.7,1.9,5.6,1.1l2.9-1.3c1.5-0.7,3.3-0.3,4.4,0.9
				c1.5,1.6,3.1,3.1,4.8,4.5c1.3,1,1.8,2.8,1.2,4.3l-1.1,3c-1,2.6,0.3,5.4,2.9,6.4l8.1,3.1c2.6,1,5.4-0.3,6.4-2.9l1.1-3
				c0.6-1.5,2.1-2.5,3.7-2.5c2.2,0.1,4.4,0,6.6-0.2c1.6-0.2,3.2,0.7,3.9,2.2l1.3,2.9c1,2.2,3.4,3.3,5.7,2.7c0.8-0.2,1.6,0.3,1.9,1.1
				c0.9,3.2-0.7,6.5-3.6,7.9l-2.3,1.1c-0.1,0-0.2,0.2-0.1,0.3c0.2,1.9,0.3,3.8,0.2,5.7c0,0.1,0.1,0.2,0.2,0.3l2.4,0.9
				c3.4,1.3,5.2,5.1,3.9,8.6c0,0,0,0,0,0l-2.4,6.4c-1.3,3.4-5.1,5.2-8.6,3.9l-2.4-0.9c-0.1,0-0.2,0-0.3,0.1
				c-1.2,1.5-2.5,2.9-3.9,4.1c-0.1,0.1-0.1,0.2-0.1,0.3l1.1,2.3C218.9,143.1,217.4,147.1,214.1,148.6z M190.6,143.1
				c0.5-0.2,1-0.3,1.5-0.3c1.7,0.1,3.4,0,5.2-0.2c1.4-0.2,2.8,0.6,3.4,1.9l1.1,2.3c0.8,1.8,3,2.6,4.8,1.8l6.3-2.8
				c1.8-0.8,2.6-3,1.8-4.8l-1.1-2.3c-0.6-1.3-0.3-2.9,0.8-3.8c1.3-1.2,2.5-2.4,3.5-3.8c0.9-1.1,2.4-1.6,3.8-1.1l2.4,0.9
				c1.9,0.7,3.9-0.2,4.6-2.1l2.4-6.4c0.7-1.9-0.2-3.9-2.1-4.6l-2.4-0.9c-1.4-0.5-2.2-1.8-2.1-3.3c0.1-1.7,0-3.4-0.2-5.2
				c-0.2-1.4,0.6-2.8,1.9-3.4l2.3-1.1c1.2-0.5,2-1.7,2.1-2.9c-3.2,0.1-6.2-1.7-7.5-4.7l-1.3-2.9c-0.1-0.3-0.4-0.5-0.8-0.4
				c-2.4,0.3-4.7,0.4-7.1,0.2c-0.3,0-0.6,0.2-0.7,0.5l-1.1,3c-1.6,4.1-6.2,6.2-10.3,4.7l-8.1-3.1c-4.1-1.6-6.2-6.2-4.7-10.3l1.1-3
				c0.1-0.3,0-0.6-0.2-0.8c-1.9-1.5-3.6-3.1-5.2-4.9c-0.2-0.2-0.6-0.3-0.8-0.2l-2.9,1.3c-2.5,1.1-5.5,0.9-7.8-0.7
				c-0.6,1-0.6,2.2-0.2,3.3l1.1,2.3c0.6,1.3,0.3,2.9-0.8,3.8c-1.3,1.2-2.5,2.4-3.5,3.8c-0.9,1.1-2.4,1.6-3.8,1.1l-2.4-0.9
				c-1.9-0.7-3.9,0.2-4.6,2.1l-2.4,6.4c-0.7,1.9,0.2,3.9,2.1,4.6l2.4,0.9c1.4,0.5,2.2,1.8,2.1,3.3c-0.1,1.7,0,3.4,0.2,5.2
				c0.2,1.4-0.6,2.8-1.9,3.4l-2.3,1.1c-1.8,0.8-2.6,3-1.8,4.8l2.8,6.3c0.8,1.8,3,2.6,4.8,1.8l2.3-1.1c1.3-0.6,2.9-0.3,3.8,0.8
				c1.2,1.3,2.4,2.5,3.8,3.5c1.1,0.9,1.6,2.4,1.1,3.8l-0.9,2.4c-0.7,1.9,0.2,3.9,2.1,4.6l6.4,2.4c1.9,0.7,3.9-0.2,4.6-2.1l0.9-2.4
				C189.2,144.1,189.8,143.5,190.6,143.1z"/>
			<path class="st5" d="M203.8,134.3c-12.3,5.6-26.7,0.2-32.3-12.1c-5.6-12.3-0.2-26.7,12.1-32.3c2-0.9,4-1.5,6.2-1.9
				c0.8-0.1,1.6,0.4,1.8,1.3c0,0.2,0,0.4,0,0.6c-0.4,1.9,0.3,3.8,1.9,5c0.7,0.5,0.8,1.5,0.3,2.1c-0.3,0.4-0.7,0.6-1.1,0.6
				c-8,0.6-14,7.6-13.4,15.6c0.6,8,7.6,14,15.6,13.4c8-0.6,14-7.6,13.4-15.6c-0.3-3.6-1.9-7-4.5-9.5c-0.6-0.6-0.6-1.5-0.1-2.2
				c0.3-0.3,0.6-0.5,1-0.5c1.9-0.1,3.6-1.2,4.3-3c0.3-0.8,1.2-1.1,2-0.8c0.2,0.1,0.4,0.2,0.5,0.4c9.2,9.8,8.7,25.3-1.2,34.5
				C208.4,131.7,206.2,133.2,203.8,134.3z M184.9,92.7c-10.7,4.9-15.5,17.5-10.6,28.3c4.9,10.7,17.5,15.5,28.3,10.6
				c10.7-4.9,15.5-17.5,10.6-28.3c-0.7-1.5-1.5-2.9-2.5-4.2c-0.8,1-1.8,1.7-3,2.2c5.9,7.7,4.5,18.7-3.1,24.7
				c-7.7,5.9-18.7,4.5-24.7-3.1c-5.9-7.7-4.5-18.7,3.1-24.7c1.9-1.5,4.2-2.6,6.5-3.2c-0.6-1.1-1-2.3-1.1-3.6
				C187.2,91.8,186,92.2,184.9,92.7z"/>
			<path class="st5" d="M223.9,61.1l-8.8,4c-0.8,0.3-1.7,0-2-0.8c-0.3-0.8,0-1.7,0.8-2l8.8-4c2-0.9,2.9-3.2,2-5.2
				c-0.9-2-3.2-2.9-5.2-2l-5.5,2.5c-3.5,1.6-7.7,0-9.3-3.6c-1.5-3.5,0-7.6,3.5-9.2l7.8-3.6c0.8-0.3,1.7,0,2,0.8c0.3,0.8,0,1.7-0.8,2
				l-7.8,3.6c-2,0.9-2.8,3.3-1.9,5.3c0.9,1.9,3.2,2.8,5.2,1.9l5.5-2.5c3.5-1.6,7.7,0,9.3,3.5C229,55.3,227.4,59.5,223.9,61.1z"/>
			<path class="st5" d="M222.7,65.8c-0.8,0.3-1.7,0-2-0.8l-12.2-26.8c-0.3-0.8,0-1.7,0.8-2s1.7,0,2,0.8l12.2,26.8
				C223.8,64.5,223.4,65.4,222.7,65.8z"/>
		</g>
		<path class="st5" d="M226,73c-12.2,5.5-26.5,0.1-32.1-12c-5.5-12.2-0.1-26.5,12-32.1c12.2-5.5,26.5-0.1,32.1,12l0,0
			C243.5,53.1,238.1,67.5,226,73z M207.2,31.7c-10.6,4.8-15.3,17.4-10.5,28c4.8,10.6,17.4,15.3,28,10.5c10.6-4.8,15.3-17.4,10.5-28
			C230.4,31.6,217.8,26.9,207.2,31.7z"/>
	</g>
	<path class="st4" d="M142.5,215.9c0,0-18.4,4.7-37.3-14.4c0,0-48.9-18-75,6.1s89.6,50.7,96.3,41.1
		C133.1,239.1,142.5,215.9,142.5,215.9z"/>
	<path class="st4" d="M132.5,116.2c0,0,54.5-26.1,116.8,13.1l-15,33.4l-55.9,5.4l-43.8-25.6L132.5,116.2z"/>
	<path class="st3" d="M129.3,119.1c0,0,62.5-30.9,124.8,8.3l-18.6,36l-56.9,7l-46-26L129.3,119.1z"/>
	<path class="st4" d="M260,141.1c0,0,67.6-6.6,96.7,64.2c0,0-21.3,22.2-53.1,2.4S252.1,168,252.1,168L260,141.1z"/>
	<path class="st3" d="M258.7,142.2c0,0,70.9-7.8,100.1,63c0,0-23.9,22.9-55.6,3.1s-51.6-39.7-51.6-39.7L258.7,142.2z"/>
	<path class="st4" d="M268,190.6c0,0,15.7-13.8,32.7-9.3c0,0-7.4,14.6,1.5,31.4l-21.2,4.4L268,190.6z"/>
</g>
</svg>
