<svg xmlns="http://www.w3.org/2000/svg" viewBox="0 0 440 272"><defs><style>.cls-2{fill:#6adaf7}.cls-3,.cls-4{fill:#515979}.cls-3{mix-blend-mode:soft-light}.cls-5{fill:#a6e9fa}.cls-6{fill:#fff}</style></defs><g style="isolation:isolate"><g id="Layer_1" data-name="Layer 1"><path class="cls-2" d="M274.61 147.15A25.25 25.25 0 01318 129.54a4 4 0 002.85 1.21 4.15 4.15 0 001.34-.23 4 4 0 002.63-3.41c1.81-20.36-3.26-37.71-14.66-50.18-11.6-12.7-29.23-19.71-49.66-19.74h-.17c-42.87 0-63.1 26.3-88.7 59.61-23.05 30-51.69 67.2-106.85 98.71H379.3c-63.69-13.34-104.69-40.03-104.69-68.36z"/><path class="cls-3" d="M282.4 174.75c-7.85-9-11.77-18.37-11.77-27.6a29.23 29.23 0 0150.17-20.39c0-.36 0-.7.07-1.06-11.64-19.48-33.71-27.83-58.05-25.38-57.94 5.81-66.86 57.11-112.34 115.19h211.28c-39.11-10.18-65.45-24.83-79.36-40.76z"/><path class="cls-3" d="M270.63 147.15a29.23 29.23 0 0150.17-20.39s-34.07-38.31-69.66-3.55c-35.3 34.5 8.88 78.38 24.92 92.3h85.69c-61.18-15.93-91.12-42.77-91.12-68.36z"/><path class="cls-4" d="M260.28 61.17h.17c35.65.06 64.18 22.44 60.35 65.59a29.23 29.23 0 00-50.17 20.39c0 25.59 29.94 52.43 91.12 68.36h26.08a8 8 0 00-5-3.33c-76.93-15.49-104.23-44.71-104.23-65a21.26 21.26 0 0136.49-14.83 8 8 0 0013.65-4.85c1.91-21.51-3.51-39.91-15.68-53.23-12.37-13.53-31.05-21-52.6-21h-.19c-44.83 0-65.58 27-91.85 61.17-23.08 30-51.79 67.35-107.41 98.68a8 8 0 00-2.66 2.46h14.27C183.57 149.09 183.3 61.16 260.28 61.17z"/><path class="cls-2" d="M317.62 119.78c1.75 3.58 2.85 6.17 3.11 6.81a51.2 51.2 0 00-3.11-6.81z"/><path class="cls-5" d="M320.73 126.59c-.26-.64-1.36-3.23-3.11-6.81-6.68-13.68-22.94-41.78-39.26-30.73a7.65 7.65 0 00-2.25 2.56c-1.67 3-2.28 8.93 7.18 18.15 0 0 5.56 4.85 3.15 7.07-3.8 3.5-22.75-10-22.75-10s-14.91-13.48-22.61-5.71c-7.89 8 17.17 24.23 17.17 24.23s5.88 3.58 2.57 7.95c-2.67 3.52-17.91-1.94-17.91-1.94s-14.06-6.21-16.8 1.29c-6 16.36 30.63 26.21 48.16 29.94a36.11 36.11 0 01-3.64-15.46 29.23 29.23 0 0150.17-20.39c-.02-.04-.05-.09-.07-.15z"/><path class="cls-5" d="M320.73 126.59c0 .06 0 .11.07.17s-.02-.06-.07-.17z"/><circle class="cls-5" cx="227.22" cy="113.18" r="5.32"/><circle class="cls-5" cx="248.49" cy="75.97" r="5.32"/><circle class="cls-5" cx="207.29" cy="129.13" r="3.99"/><path class="cls-4" d="M392 219.5H46.49a4 4 0 110-8H392a4 4 0 110 8zM208 170.14a2 2 0 01-.65-3.88 18.6 18.6 0 0110.61 0 2 2 0 01-1.3 3.77 14.73 14.73 0 00-8 0 2.06 2.06 0 01-.66.11z"/><circle class="cls-4" cx="212.61" cy="159.23" r="7.97"/><circle class="cls-6" cx="214.6" cy="159.23" r="1.99"/><path class="cls-4" d="M178.72 170.14a2 2 0 01-.65-3.88 18.57 18.57 0 0110.6 0 2 2 0 01-1.3 3.77 14.69 14.69 0 00-8 0 2.16 2.16 0 01-.65.11z"/><circle class="cls-4" cx="183.37" cy="159.23" r="7.97"/><circle class="cls-6" cx="185.36" cy="159.23" r="1.99"/><path class="cls-4" d="M208.53 140a10.73 10.73 0 013.94-1.15 13.13 13.13 0 014.09.19 11.2 11.2 0 013.95 1.62 8.5 8.5 0 013 3.18 2.29 2.29 0 01-2.59 3.29l-.52-.14c-1-.26-1.8-.57-2.65-.8s-1.66-.48-2.55-.66l-2.77-.57a29 29 0 01-2.94-.63l-.55-.17a2.26 2.26 0 01-.36-4.16zM186.54 144.35a29.17 29.17 0 01-2.95.63l-2.77.57c-.89.18-1.7.44-2.55.66s-1.63.54-2.65.8l-.51.14a2.29 2.29 0 01-2.6-3.29 8.45 8.45 0 013-3.18 11.13 11.13 0 013.95-1.62 13.08 13.08 0 014.08-.19 10.67 10.67 0 013.94 1.15 2.25 2.25 0 011 3 2.27 2.27 0 01-1.33 1.13zM198 198.24a18.63 18.63 0 01-18.61-18.61A2.66 2.66 0 01182 177h31.89a2.66 2.66 0 012.66 2.66A18.62 18.62 0 01198 198.24z"/><path class="cls-4" d="M213.93 179.63a15.95 15.95 0 11-31.89 0h31.89m0-5.31H182a5.32 5.32 0 00-5.32 5.31 21.27 21.27 0 0042.53.22v-.22a5.31 5.31 0 00-5.31-5.31zm0 10.63z"/><ellipse cx="197.99" cy="190.26" rx="11.86" ry="5.32" fill="#ef7d7d"/></g></g></svg>