<svg width="326" height="220" viewBox="0 0 326 220" fill="none" xmlns="http://www.w3.org/2000/svg">
<g clip-path="url(#clip0_596_1080)">
<path d="M135.696 3.9599C96.6242 7.9199 39.8642 39.5119 13.9922 76.1199C55.6162 62.6559 152.944 47.6959 156.112 48.2239L187.704 35.5519C187.792 35.4639 191.752 -1.7601 135.696 3.9599Z" fill="#E8FAFF"/>
<path d="M325.425 183.393C325.425 183.393 321.905 182.601 317.065 181.985C233.729 170.633 112.025 120.209 138.689 72.8647C148.457 55.5287 175.825 53.0647 175.825 53.0647V34.7607H106.921L48.1367 68.6407C62.7447 66.0007 75.3287 66.5287 81.4887 69.7847C95.9207 77.3527 86.1527 93.8087 61.1607 88.0007C14.0807 77.0007 3.52067 118.801 28.5127 134.641L36.9607 173.801L188.145 215.953H325.425V183.393Z" fill="#B2EDFF"/>
<path d="M270.865 183.04C203.369 165.44 122.057 128.48 116.425 90.7281C113.697 72.3361 116.425 52.6241 157.521 38.8081L151.713 34.6721C120.825 27.1921 87.2967 33.4401 63.5367 51.2161L37.0487 71.1041C37.4007 71.0161 37.7527 70.8401 38.1047 70.7521C56.9367 65.8241 73.9207 65.8241 81.4887 69.7841C95.9207 77.3521 86.1527 93.8081 61.1607 88.0001C14.0807 77.0001 3.52067 118.8 28.5127 134.64L32.2087 151.712L107.273 131.736C116.513 141.504 128.481 150.656 143.265 158.928C144.145 159.456 145.201 159.632 146.169 159.632C147.753 159.632 149.337 159.016 150.305 157.872C151.889 156.024 151.361 153.472 149.073 152.152C127.337 139.92 112.025 125.664 103.577 110.616C102.433 108.592 103.489 106.128 105.953 105.072C108.505 104.016 111.497 104.896 112.729 106.92C136.753 147.136 218.857 178.024 267.785 190.784C268.313 190.96 268.841 190.96 269.369 190.96C271.481 190.96 273.505 189.816 274.209 188.144C275.001 186.032 273.505 183.744 270.865 183.04Z" fill="#00C3FF"/>
<path d="M194.217 32.2084C188.233 28.6884 170.809 22.4404 154.089 22.4404C139.217 22.4404 125.665 24.6404 113.521 28.1604C138.425 30.1844 165.441 42.0644 177.145 56.3204C191.401 73.7444 221.233 48.1364 194.217 32.2084Z" fill="#D1F4FF"/>
<path d="M90.3764 142.12C90.3764 142.12 151.36 210.408 320.32 211.728C323.136 211.728 325.424 213.576 325.424 215.864C325.424 218.152 323.136 220 320.32 220H114.488C91.5204 220 60.2804 211.728 40.8324 191.224C24.5524 173.976 30.7124 141.856 30.7124 141.856L90.3764 142.12Z" fill="#00C3FF"/>
<path d="M320.496 211.729C293.04 211.729 231.88 211.729 167.904 211.729C126.632 211.729 97.0643 200.377 78.0563 185.329C71.0163 179.785 76.1203 170.105 85.9763 170.105H86.0643C95.4803 170.105 104.456 165.089 108.68 157.257C96.0963 148.457 90.3763 142.121 90.3763 142.121L30.8003 141.769C30.8003 141.769 24.6403 173.977 40.9203 191.137C60.3683 211.729 91.6083 219.913 114.576 219.913H320.32C323.136 219.913 325.424 218.065 325.424 215.777C325.512 213.665 323.224 211.817 320.496 211.729Z" fill="#00AAF0"/>
<path d="M298.672 197.56C298.32 197.56 297.968 197.56 297.616 197.472C294.8 196.944 291.808 196.416 288.728 195.8C286 195.272 284.328 192.984 285.032 190.784C285.736 188.584 288.464 187.264 291.192 187.792C294.184 188.408 297 188.936 299.728 189.376C302.456 189.816 304.216 192.016 303.6 194.304C303.072 196.24 300.96 197.56 298.672 197.56Z" fill="#59D8FF"/>
<path d="M168.872 170.808C168.08 170.808 167.288 170.632 166.496 170.368C164.208 169.4 161.92 168.432 159.72 167.376C157.256 166.232 156.376 163.768 157.784 161.744C159.192 159.72 162.272 159.104 164.736 160.16C166.848 161.128 168.96 162.096 171.16 162.976C173.624 164.032 174.592 166.496 173.36 168.52C172.48 170.016 170.72 170.808 168.872 170.808Z" fill="#59D8FF"/>
<path d="M70.7527 89.1438C67.8487 89.1438 64.6807 88.7918 61.1607 87.9998C14.0807 76.9998 3.52067 118.8 28.5127 134.64L32.2087 151.712L82.8087 138.248C80.6087 134.112 78.4087 129.8 76.2967 125.4C70.0487 111.672 68.8167 99.7038 70.7527 89.1438Z" fill="#00AAF0"/>
<path d="M121.88 30.7119C105.688 30.7119 89.9364 35.4639 77.7044 43.9999L39.7764 70.3999C56.2324 66.3519 70.9284 65.9999 79.1124 68.8159C96.4484 42.6799 132.352 30.7119 132.352 30.7119H121.88Z" fill="#00AAF0"/>
<path d="M20.9443 145.552C13.6403 169.84 40.8323 191.136 40.8323 191.136C40.8323 191.136 26.3123 170.632 37.3123 155.936C44.6163 146.168 59.5763 144.144 76.3843 158.224C89.2323 169.048 106.832 153.736 98.6483 142.208C106.04 143.264 113.608 141.152 114.488 135.608C117.832 115.192 34.0563 101.64 20.9443 145.552Z" fill="#E8FAFF"/>
<path d="M37.3126 155.936C44.6166 146.168 59.5765 144.144 76.3846 158.224C89.2326 169.048 106.833 153.736 98.6485 142.208C83.6005 125.664 45.5846 123.728 32.5605 141.768C19.0086 160.512 30.6246 180.224 40.8326 191.136C40.8326 191.224 26.3126 170.72 37.3126 155.936Z" fill="#D1F4FF"/>
<path d="M277.289 204.249C274.649 203.897 272.097 203.457 269.545 203.017C267.433 202.665 265.497 204.073 265.145 206.185C264.793 208.297 266.201 210.233 268.313 210.585C270.865 211.025 273.505 211.465 276.145 211.817C276.321 211.817 276.497 211.817 276.673 211.817C278.521 211.817 280.193 210.497 280.457 208.561C280.809 206.537 279.401 204.601 277.289 204.249Z" fill="#35414D"/>
<path d="M321.288 179.432C289.96 176.176 251.504 165.968 218.504 152.328C182.512 137.368 156.288 119.944 144.76 103.224C137.28 92.3123 136.136 81.9283 141.592 72.3363C145.024 66.2643 151.36 61.8643 160.336 59.4003C165.264 58.0803 169.752 57.6403 171.952 57.5523C172.392 57.9923 172.744 58.5203 173.184 58.9603C177.056 63.7123 182.688 66.2643 188.848 66.2643C190.256 66.2643 191.664 66.1763 193.16 65.8243C202.4 64.1523 210.144 57.3763 211.552 49.7203C212.96 41.7123 207.504 34.3203 196.592 29.3043C195.36 28.7763 194.128 28.2483 192.896 27.7203C192.104 24.4643 188.584 14.0803 176 6.95234C163.944 0.000343323 147.224 -1.75966 126.456 1.76034C98.3844 6.42434 70.6644 19.7123 41.7124 42.4163C39.8644 43.9123 39.7764 46.2883 41.6244 47.8723C42.5924 48.6643 43.8244 49.0163 45.0564 49.0163C46.2884 49.0163 47.4324 48.6643 48.4004 47.9603C76.0324 26.3123 102.168 13.7283 128.48 9.32834C146.52 6.33634 160.6 7.65634 170.544 13.2883C176.088 16.4563 179.344 20.4163 181.28 23.7603C179.52 23.2323 177.672 22.7923 175.912 22.3523C173.36 21.7363 170.72 22.8803 170.016 24.9043C169.312 26.9283 170.72 29.0403 173.184 29.6563C179.52 31.1523 185.944 33.3523 192.104 36.1683C199.672 39.6003 203.192 43.9123 202.312 48.7523C201.52 53.2403 196.68 57.5523 191.312 58.5203C187.264 59.2243 183.92 57.9923 181.368 54.9123C172.48 44.0883 160.072 35.4643 146.608 30.5363C143.352 29.3923 140.096 28.4243 136.752 27.6323C142.384 26.9283 148.104 26.6643 154 26.9283C156.64 27.0163 158.84 25.4323 159.016 23.3203C159.192 21.2083 157.168 19.3603 154.528 19.2723C128.48 18.1283 100.672 26.0483 74.0964 42.3283C57.3764 52.5363 46.2004 62.8323 42.7684 66.1763C35.9044 67.5843 28.7764 69.6963 21.6484 72.4243C25.5204 68.3763 30.1844 63.8003 35.5524 58.9603C37.3124 57.3763 37.1364 54.9123 35.2004 53.5043C32.9124 52.0083 29.9204 52.0963 28.1604 53.6803C10.9124 69.1683 1.3204 81.8403 0.7044 82.6323C-0.2636 83.9523 -0.2636 85.6243 0.8804 86.8563C2.3764 88.6163 5.3684 88.9683 7.5684 87.7363C20.4164 80.2563 35.6404 74.8883 50.4244 72.5123C59.6644 71.0163 72.6884 70.4003 78.5844 73.4803C82.5444 75.5923 84.0404 78.4963 82.5444 81.2243C80.5204 84.8323 73.3924 87.3843 62.1284 84.7443C50.5124 82.0163 40.2164 82.1043 31.4164 84.8323C23.4964 87.2963 17.2484 91.8723 13.3764 98.0323C9.5044 104.192 8.3604 111.408 10.0324 118.448C11.5284 124.784 15.3124 130.416 20.8564 134.64C18.7444 137.808 16.9844 141.328 15.8404 145.2C12.5844 156.112 15.2244 168.08 23.5844 179.872C29.7444 188.584 36.7844 194.216 37.1364 194.392C38.1044 195.096 39.2484 195.448 40.4804 195.448C41.7124 195.448 42.9444 195.096 43.9124 194.304C45.7604 192.808 45.6724 190.344 43.8244 188.848C43.5604 188.672 18.6564 168.872 25.1684 146.96C28.3364 136.312 36.2564 128.744 48.4884 124.432C58.7844 120.824 71.8964 119.856 84.3924 121.704C99.4404 123.992 110.528 130.064 109.56 135.52C109.296 136.928 108.68 137.896 107.536 138.512C106.128 139.304 103.928 139.48 101.64 139.04C101.464 139.04 101.376 138.952 101.2 138.952C99.5284 137.104 97.3284 135.432 94.6884 134.024C92.4884 132.88 89.4964 133.32 88.0884 135.08C86.5924 136.84 87.2084 139.216 89.4084 140.448C95.3044 143.616 96.0084 147.488 95.5684 150.128C94.9524 153.736 91.6964 157.08 87.9124 158.136C84.9204 158.928 82.1044 158.224 79.3764 155.936C68.8164 147.136 55.7924 143.264 45.3204 145.904C38.4564 147.664 33.7924 151.976 32.6484 157.784C32.2084 159.896 33.9684 161.832 36.6084 162.184C39.2484 162.536 41.6244 161.128 42.0644 159.016C42.7684 155.408 45.7604 153.912 48.1364 153.296C56.4084 151.184 66.4404 156.288 72.4244 161.304C76.2084 164.472 80.7844 166.144 85.5364 166.144C87.2964 166.144 89.0564 165.88 90.7284 165.44C95.6564 164.12 99.7924 161.128 102.344 157.344C106.744 161.128 114.4 166.936 126.28 173.36C145.024 183.568 178.728 197.736 232.232 207.152C232.584 207.24 232.936 207.24 233.288 207.24C235.488 207.24 237.424 206.008 237.952 204.248C238.48 202.136 236.896 200.112 234.344 199.672C182.776 190.696 150.392 177.144 132.352 167.376C112.992 156.904 105.512 148.456 105.336 148.28C105.248 148.192 105.248 148.192 105.16 148.104C105.16 147.752 105.072 147.4 105.072 147.048C107.976 146.872 110.616 146.168 112.904 144.936C116.248 143.088 118.36 140.184 118.888 136.576C119.768 131.208 116.424 125.928 109.384 121.704C103.488 118.184 95.2164 115.544 85.9764 114.136C65.1204 110.88 40.7444 114.576 26.4004 128.04C18.4804 121.264 16.4564 110.176 21.9124 101.376C24.9044 96.6243 34.4964 86.2403 59.4884 92.0483C76.2084 95.9203 87.4724 90.9923 91.2564 84.3043C94.7764 78.0563 91.7844 71.1043 83.7764 66.9683C78.1444 64.0643 68.9044 62.9203 57.9044 63.8003C63.1844 59.4003 70.6644 53.7683 79.8164 48.2243C86.5044 44.1763 94.6884 39.7763 103.928 36.0803H104.016C116.248 32.2963 129.536 32.7363 142.472 37.4003C150.656 40.3923 158.312 44.8803 164.912 50.6003C155.32 52.0083 140.184 56.3203 132.968 69.1683C126.28 81.0483 127.424 93.8083 136.488 107.008C163.152 145.728 254.672 180.312 320.144 187.176C320.32 187.176 320.584 187.176 320.76 187.176C323.136 187.176 325.16 185.768 325.512 183.832C325.776 181.632 323.928 179.696 321.288 179.432Z" fill="#35414D"/>
<path d="M112.817 96.4486C110.353 97.0646 108.945 99.2646 109.737 101.289C110.441 102.961 111.145 104.633 112.025 106.305C112.817 107.801 114.577 108.681 116.425 108.681C117.041 108.681 117.657 108.593 118.185 108.417C120.649 107.625 121.793 105.337 120.825 103.401C120.033 101.905 119.417 100.409 118.801 98.9126C118.009 96.8886 115.281 95.7446 112.817 96.4486Z" fill="#35414D"/>
<path d="M134.817 49.8086C137.017 48.5766 137.545 46.2006 136.049 44.4406C134.553 42.6806 131.649 42.2406 129.449 43.3846C128.393 43.9126 103.753 57.7286 105.865 85.5366C106.041 87.5606 108.153 89.1446 110.617 89.1446C110.705 89.1446 110.793 89.1446 110.881 89.1446C113.521 89.0567 115.545 87.2086 115.369 85.0966C113.609 61.7766 133.937 50.2486 134.817 49.8086Z" fill="#35414D"/>
<path d="M109.649 197.736C106.745 196.68 103.841 195.448 101.113 194.216C98.8247 193.16 95.9207 193.864 94.6007 195.712C93.2807 197.56 94.1607 199.936 96.4487 200.904C99.4407 202.224 102.521 203.456 105.601 204.688C106.217 204.952 106.921 205.04 107.625 205.04C109.385 205.04 111.145 204.248 111.937 202.84C113.081 200.992 112.025 198.704 109.649 197.736Z" fill="#35414D"/>
<path d="M84.5688 185.416C68.2888 175.032 61.6008 165.176 61.6008 165.088C60.3688 163.24 57.4648 162.536 55.1768 163.504C52.8888 164.472 51.9208 166.848 53.1528 168.696C53.4168 169.136 60.6328 180.048 78.6728 191.488C79.5528 192.016 80.6088 192.28 81.5768 192.28C82.9848 192.28 84.3928 191.752 85.3608 190.784C86.9448 189.112 86.5928 186.736 84.5688 185.416Z" fill="#35414D"/>
</g>
<defs>
<clipPath id="clip0_596_1080">
<rect width="325.512" height="220" fill="white"/>
</clipPath>
</defs>
</svg>
