<?xml version="1.0" encoding="utf-8"?>
<!-- Generator: Adobe Illustrator 25.0.0, SVG Export Plug-In . SVG Version: 6.00 Build 0)  -->
<svg version="1.1" id="Layer_1" xmlns="http://www.w3.org/2000/svg" xmlns:xlink="http://www.w3.org/1999/xlink" x="0px" y="0px"
	 viewBox="0 0 3610 121" style="enable-background:new 0 0 3610 121;" xml:space="preserve">
<style type="text/css">
	.st0{fill:#FFFFFF;}
</style>
<path class="st0" d="M3605,80.2l-10-1.5l-14.1-5.6l-15-1.1l-5.5-6.8l-13.6,2.2l-11.5-2.2l-13,5.2l-9.5-3h-6.5l-9.5-2.2h-13.5
	l-16.6,7.5L3455,70l-17.1-10.5l-13.5,1.5l-12.1-1.5l-23.6-3l-13.1,3l-14.6-3l-19.6-3.8l-12,3.8l-16.5,1.9l-8,6.4h-13.1l-8,2.2
	l-20.1,2.6l-19.6,6.8l-8,6.4l-14.6-13.1H3210l-17.6,9.4l-8-4.5l-11,1.9l-11,9.8l-12-3.4l-18.6,3.4l-6.5-7.1l-11.5,3.8l-6.5-6.4
	l-7-3.4l-7.5,15.4l-9.5-2.2l-2.5-3.4l-7.5-3.8l-11.5-4.5l-6.5-5.3l-16.5-8.2h-14l-11.5-3.8l-8,3.8l-25.6,1.9l-20.6-7.5l-11,5.6
	l-8.5,1.9l-16.1-1.9c-12.4,1.5-29.6-0.6-36.6-1.9l-12.6,5.6l-13,1.9l-19.6,6.4l-36.6-8.2l-7,1.9h-9l-17.1,6.4l-9-4.5l-13.5,1.9
	l-12,2.6l-14.1,3.4l-16.1,5.6l-6-4.1l-8-3.4h-6.5l-7.5-1.9l-8.5-4.1l-5,1.9l-15.5-3.8l-8.5,3.8l-9.5-3.8l-14.6,5.6l-3.5-1.9l-10-6.4
	l-13-1.9l-15.1,1.9l-12.5,2.6l-10,3.8l-10,1.9l-9,5.6l-10.5-1.9l-9.5,1.9l-10.5-4.1h-12.5l-7.5,4.1l-8,1.1l-11,4.5
	c-4,0.8-13.3,2.2-18.6,2.2c-5.2,0-12.9-1.5-16-2.2c-14.5,3.9-29.8,1.6-35.6,0l-8,7.9l-14.1-2.2l-8.5,2.2h-4c-0.4-0.8-2.9-1.8-10.5,0
	s-21.2-2-27.1-4.1c-1,0.2-4.3,1.4-9.5,4.1s-23.9,3.9-32.6,4.1c-4.2-3.2-13.6-10.4-18.1-12.8c-5.5-3-17.1,9-22.1,8.6
	c-4-0.3-13.7,2.6-18.1,4.1c-7.4,0.6-23.4,1-28.6-2.2c-5.2-3.3-26.9-11.6-37.1-15.4l-10.5,7.9l-9.5-5.2H2113l-3.5-2.6
	c-6.9-0.6-21.2-1.9-23.6-1.9c-2.4,0-8.4-3-11-4.5l-20.1,4.5c-7.2-2.1-22.4-6.4-25.6-6.4c-4,0-9,1.9-13,1.9c-3.2,0-10.4-2.2-13.6-3.4
	c-3,1.1-9.3,3.8-10.5,5.6c-1.5,2.3-9,1.5-11.5,2.3s-18.1-7.9-20.1-9.4s-11.5,1.5-15.6,3s-19.1-1.5-23.6-1.5s-6,2.2-10,3.4
	c-4,1.1-21.6-2.2-31.6-3.4c-10-1.1-31.1,5.6-38.1,5.6h-29.1l-7.5,11.9l-0.1,0.1l-2.5-2.8l-2.5-2.8l-10-1.5l-14-5.6l-15-1.1l-5.5-6.8
	l-13.6,2.2l-11.5-2.2l-13,5.2l-9.5-3h-6.5l-9.5-2.2h-13.5l-16.6,7.5L1650,70l-17.1-10.5l-13.5,1.5l-12-1.5l-23.6-3l-13.1,3l-14.6-3
	l-19.6-3.8l-12,3.8l-16.5,1.9l-8,6.4h-13.1l-8,2.2l-20.1,2.6l-19.6,6.8l-8,6.4l-14.6-13.1h-11.5l-17.6,9.4l-8-4.5l-11,1.9l-11,9.8
	l-12-3.4l-18.6,3.4l-6.5-7.1l-11.5,3.8l-6.5-6.4l-7-3.4l-7.5,15.4l-9.5-2.2l-2.5-3.4l-7.5-3.8l-11.5-4.5l-6.5-5.3l-16.6-8.2h-14
	l-11.5-3.8l-8,3.8l-25.6,1.9l-20.6-7.5l-11,5.6l-8.5,1.9l-16.1-1.9c-12.4,1.5-29.6-0.6-36.6-1.9l-12.5,5.6l-13,1.9l-19.6,6.4
	l-36.6-8.2l-7,1.9h-9L966.7,73l-9-4.5l-13.5,1.9l-12,2.6l-14,3.4l-16,5.6l-6-4.1l-8-3.4h-6.5l-7.5-1.9l-8.5-4.1l-5,1.9l-15.5-3.8
	l-8.5,3.8l-9.5-3.8l-14.5,5.6l-3.5-1.9l-10-6.4l-13-1.9l-15,1.9L758,66.7l-10,3.8l-10,1.9l-9,5.6l-10.5-1.9L709,78l-10.5-4.1H686
	l-7.5,4.1l-8,1.1l-11,4.5c-4,0.8-13.3,2.2-18.6,2.2c-5.2,0-12.9-1.5-16-2.2c-14.5,3.9-29.8,1.6-35.6,0l-8,7.9l-14-2.2l-8.5,2.2h-4
	c-0.3-0.8-2.9-1.8-10.5,0s-21.2-2-27.1-4.1c-1,0.2-4.3,1.4-9.5,4.1s-23.9,3.9-32.6,4.1c-4.2-3.2-13.7-10.4-18.1-12.8
	c-5.5-3-17.1,9-22.1,8.6c-4-0.3-13.7,2.6-18.1,4.1c-7.3,0.6-23.4,1-28.6-2.2c-5.2-3.3-26.9-11.6-37.1-15.4l-10.5,7.9l-9.5-5.2H308
	l-3.5-2.6c-6.9-0.6-21.2-1.9-23.6-1.9s-8.4-3-11-4.5l-20.1,4.5c-7.2-2.1-22.4-6.4-25.6-6.4c-4,0-9,1.9-13,1.9
	c-3.2,0-10.4-2.2-13.5-3.4c-3,1.1-9.3,3.8-10.5,5.6c-1.5,2.3-9,1.5-11.5,2.3s-18.1-7.9-20.1-9.4s-11.5,1.5-15.6,3
	c-4,1.5-19.1-1.5-23.6-1.5s-6,2.2-10,3.4c-4,1.1-21.6-2.2-31.6-3.4c-10-1.1-31.1,5.6-38.1,5.6H7.5L0,81.3V121h3610V85.8L3605,80.2z"
	/>
</svg>
