<svg width="204" height="180" viewBox="0 0 204 180" fill="none" xmlns="http://www.w3.org/2000/svg">
<g clip-path="url(#clip0_942_821)">
<mask id="mask0_942_821" style="mask-type:luminance" maskUnits="userSpaceOnUse" x="-4" y="-30" width="207" height="240">
<path d="M202.534 210H-3.59961V-30H202.534V210Z" fill="white"/>
</mask>
<g mask="url(#mask0_942_821)">
<path d="M103.804 16.6299H95.1377V6.09655C95.1377 4.09655 96.471 2.62988 98.2043 2.62988H100.738C102.471 2.62988 103.804 4.22988 103.804 6.09655V16.6299Z" fill="#AA6946"/>
<path d="M88.6934 26.7178V16.5844C88.6934 14.5844 90.0267 13.1178 91.76 13.1178H107.227C108.96 13.1178 110.293 14.7178 110.293 16.5844V26.7178H88.6934Z" fill="#D68458"/>
<path d="M57.8673 109.091H33.6006V23.2242H165.601V109.091H141.334H57.8673Z" fill="#FFF2E8"/>
<path d="M153.467 109.066H165.6V23.1998H153.467V109.066Z" fill="#FFE4CF"/>
<path d="M95.1304 130.779L99.3971 127.179L103.664 130.779V173.846C103.664 175.846 102.33 177.312 100.597 177.312H98.0637C96.3304 177.312 94.9971 175.712 94.9971 173.846V130.779H95.1304Z" fill="#D68458"/>
<path d="M128.122 146.073L132.122 156.073H66.6553L70.9219 146.073H128.122Z" fill="#AA6946"/>
<path d="M124.675 123.712L120.808 120.246L116.142 123.712L137.475 175.313C138.008 176.512 139.075 177.312 140.142 177.312H142.008C144.275 177.312 145.742 174.646 144.675 172.246L124.675 123.712Z" fill="#D68458"/>
<path d="M74.2823 123.712L79.2156 120.246L82.9489 123.712L61.6156 175.313C61.0823 176.512 60.0156 177.312 58.9489 177.312H57.0823C54.8156 177.312 53.3489 174.646 54.4156 172.246L74.2823 123.712Z" fill="#D68458"/>
<path d="M124.786 111.224V123.758H115.986L103.72 130.824H95.053L82.653 123.758H73.9863V111.224H124.786Z" fill="#AA6946"/>
<path d="M138.401 114.691H60.5339C59.0672 114.691 57.8672 113.225 57.8672 111.491V106.691C57.8672 104.958 59.0672 103.491 60.5339 103.491H138.401C139.867 103.491 141.067 104.958 141.067 106.691V111.491C141.201 113.225 140.001 114.691 138.401 114.691Z" fill="#D68458"/>
<path d="M57.8673 109.091H33.6006V23.2242H165.601V109.091H141.334" stroke="#35414D" stroke-width="4.8" stroke-miterlimit="13.3333" stroke-linecap="round" stroke-linejoin="round"/>
<path d="M103.804 13.1631H95.1377V6.22975C95.1377 4.22975 96.471 2.76308 98.2043 2.76308H100.738C102.471 2.76308 103.804 4.36309 103.804 6.22975V13.1631Z" stroke="#35414D" stroke-width="4.8" stroke-miterlimit="13.3333" stroke-linecap="round" stroke-linejoin="round"/>
<path d="M88.6934 23.1172V16.5839C88.6934 14.5839 90.0267 13.1172 91.76 13.1172H107.227C108.96 13.1172 110.293 14.7172 110.293 16.5839V23.1172" stroke="#35414D" stroke-width="4.8" stroke-miterlimit="13.3333" stroke-linecap="round" stroke-linejoin="round"/>
<path d="M95.1299 146.073V130.74H103.797V146.073" stroke="#35414D" stroke-width="4.8" stroke-miterlimit="13.3333" stroke-linecap="round" stroke-linejoin="round"/>
<path d="M95.1299 156.089V173.822C95.1299 175.822 96.4632 177.289 98.1965 177.289H100.73C102.463 177.289 103.797 175.689 103.797 173.822V156.089" stroke="#35414D" stroke-width="4.8" stroke-miterlimit="13.3333" stroke-linecap="round" stroke-linejoin="round"/>
<path d="M74.2823 123.712H82.9489L61.6156 175.313C61.0823 176.513 60.0156 177.312 58.9489 177.312H57.0823C54.8156 177.312 53.3489 174.646 54.4156 172.246L74.2823 123.712Z" stroke="#35414D" stroke-width="4.8" stroke-miterlimit="13.3333" stroke-linecap="round" stroke-linejoin="round"/>
<path d="M125.158 146.073L129.291 156.073H103.691H69.5576L73.691 146.073H125.158Z" stroke="#35414D" stroke-width="4.8" stroke-miterlimit="13.3333" stroke-linecap="round" stroke-linejoin="round"/>
<path d="M124.675 123.712H116.009L137.342 175.313C137.875 176.513 138.942 177.312 140.009 177.312H141.875C144.142 177.312 145.609 174.646 144.542 172.246L124.675 123.712Z" stroke="#35414D" stroke-width="4.8" stroke-miterlimit="13.3333" stroke-linecap="round" stroke-linejoin="round"/>
<path d="M124.786 114.691V123.758H115.986L103.72 130.824H95.053L82.653 123.758H73.9863V114.691" stroke="#35414D" stroke-width="4.8" stroke-miterlimit="13.3333" stroke-linecap="round" stroke-linejoin="round"/>
<path d="M138.401 114.691H60.5339C59.0672 114.691 57.8672 113.225 57.8672 111.491V106.691C57.8672 104.958 59.0672 103.491 60.5339 103.491H138.401C139.867 103.491 141.067 104.958 141.067 106.691V111.491C141.201 113.225 140.001 114.691 138.401 114.691Z" stroke="#35414D" stroke-width="4.8" stroke-miterlimit="13.3333" stroke-linecap="round" stroke-linejoin="round"/>
</g>
<path d="M117.6 35.3998H131.2C131.9 35.3998 132.5 34.7998 132.5 34.0998C132.5 33.3998 131.9 32.7998 131.2 32.7998H117.6C116.9 32.7998 116.3 33.3998 116.3 34.0998C116.3 34.7998 116.9 35.3998 117.6 35.3998Z" fill="#35414D"/>
<path d="M117.6 41.6996H131.2C131.9 41.6996 132.5 41.0996 132.5 40.3996C132.5 39.6996 131.9 39.0996 131.2 39.0996H117.6C116.9 39.0996 116.3 39.6996 116.3 40.3996C116.3 41.0996 116.9 41.6996 117.6 41.6996Z" fill="#35414D"/>
<path d="M109.9 35.3998H111.9C112.6 35.3998 113.2 34.7998 113.2 34.0998C113.2 33.3998 112.6 32.7998 111.9 32.7998H109.9C109.2 32.7998 108.6 33.3998 108.6 34.0998C108.6 34.7998 109.2 35.3998 109.9 35.3998Z" fill="#35414D"/>
<path d="M109.9 41.6996H111.9C112.6 41.6996 113.2 41.0996 113.2 40.3996C113.2 39.6996 112.6 39.0996 111.9 39.0996H109.9C109.2 39.0996 108.6 39.6996 108.6 40.3996C108.6 41.0996 109.2 41.6996 109.9 41.6996Z" fill="#35414D"/>
<path d="M104.4 66.3996C104.4 67.6996 103.4 68.6996 102.1 68.6996C100.8 68.6996 99.7998 67.6996 99.7998 66.3996C99.7998 65.0996 100.8 64.0996 102.1 64.0996C103.4 64.0996 104.4 65.0996 104.4 66.3996Z" fill="#07BEEF"/>
<path d="M116.7 55.799C116.7 57.099 115.7 58.099 114.4 58.099C113.1 58.099 112.1 57.099 112.1 55.799C112.1 54.499 113.1 53.499 114.4 53.499C115.7 53.499 116.7 54.499 116.7 55.799Z" fill="#FC635B"/>
<path d="M129 63.299C129 64.599 128 65.599 126.7 65.599C125.4 65.599 124.4 64.599 124.4 63.299C124.4 61.999 125.4 60.999 126.7 60.999C128 60.999 129 61.999 129 63.299Z" fill="#7EC927"/>
<path d="M141.4 51.3996C141.4 52.6996 140.4 53.6996 139.1 53.6996C137.8 53.6996 136.8 52.6996 136.8 51.3996C136.8 50.0996 137.8 49.0996 139.1 49.0996C140.4 49.0996 141.4 50.0996 141.4 51.3996Z" fill="#FFA733"/>
<path d="M104.4 66.2992C104.4 67.6992 103.4 68.6992 102.1 68.6992C100.8 68.6992 99.7998 67.6992 99.7998 66.3992C99.7998 65.6992 100.1 65.0992 100.6 64.6992C100.7 65.8992 101.7 66.8992 102.9 66.8992C103.4 66.7992 104 66.5992 104.4 66.2992Z" fill="#00B6E0"/>
<path d="M116.7 55.6996C116.7 57.0996 115.7 58.0996 114.4 58.0996C113.1 58.0996 112.1 57.0996 112.1 55.7996C112.1 55.0996 112.4 54.4996 112.9 54.0996C112.9 55.2996 113.9 56.2996 115.2 56.2996C115.8 56.1996 116.3 55.9996 116.7 55.6996Z" fill="#F34234"/>
<path d="M129 63.1996C129 64.5996 128 65.5996 126.7 65.5996C125.4 65.5996 124.4 64.5996 124.4 63.2996C124.4 62.5996 124.7 61.9996 125.2 61.5996C125.3 62.7996 126.3 63.7996 127.5 63.7996C128.1 63.6996 128.6 63.4996 129 63.1996Z" fill="#60A917"/>
<path d="M141.4 51.2992C141.4 52.6992 140.4 53.6992 139.1 53.6992C137.8 53.6992 136.8 52.6992 136.8 51.3992C136.8 50.6992 137.1 50.0992 137.6 49.6992C137.7 50.8992 138.7 51.8992 139.9 51.8992C140.5 51.7992 141 51.5992 141.4 51.2992Z" fill="#FF9801"/>
<path d="M102.1 69.3994C103.8 69.3994 105.1 67.9994 105.1 66.3994C105.1 65.8994 105 65.3994 104.8 64.9994L112.5 58.0994C113 58.4994 113.7 58.7994 114.4 58.7994C115.3 58.7994 116.1 58.3994 116.6 57.7994L123.7 62.5994C123.7 62.7994 123.6 62.9994 123.6 63.2994C123.6 64.9994 125 66.2994 126.6 66.2994C128.3 66.2994 129.6 64.8994 129.6 63.2994C129.6 62.7994 129.5 62.3994 129.3 61.9994L137.3 53.8994C137.8 54.1994 138.3 54.3994 138.9 54.3994C140.6 54.3994 141.9 52.9994 141.9 51.3994C141.9 49.6994 140.5 48.3994 138.9 48.3994C137.2 48.3994 135.9 49.7994 135.9 51.3994C135.9 51.8994 136.1 52.3994 136.3 52.8994L128.4 60.8994C127.9 60.4994 127.3 60.2994 126.6 60.2994C125.7 60.2994 124.9 60.6994 124.3 61.2994L117.2 56.4994C117.3 56.2994 117.3 55.9994 117.3 55.7994C117.3 54.0994 115.9 52.7994 114.3 52.7994C112.6 52.7994 111.3 54.1994 111.3 55.7994C111.3 56.1994 111.4 56.5994 111.5 56.8994L103.7 63.8994C103.2 63.5994 102.6 63.3994 102 63.3994C100.3 63.3994 99 64.7994 99 66.3994C99 68.0994 100.4 69.3994 102.1 69.3994ZM139.1 49.7994C139.9 49.7994 140.6 50.4994 140.6 51.2994C140.6 52.0994 139.9 52.7994 139.1 52.7994C138.3 52.7994 137.6 52.0994 137.6 51.2994C137.6 50.4994 138.3 49.7994 139.1 49.7994ZM126.8 61.6994C127.6 61.6994 128.3 62.3994 128.3 63.1994C128.3 63.9994 127.6 64.6994 126.8 64.6994C126 64.6994 125.3 63.9994 125.3 63.1994C125.2 62.3994 125.9 61.6994 126.8 61.6994ZM114.4 54.1994C115.2 54.1994 115.9 54.8994 115.9 55.6994C115.9 56.4994 115.2 57.1994 114.4 57.1994C113.6 57.1994 112.9 56.4994 112.9 55.6994C112.9 54.8994 113.6 54.1994 114.4 54.1994ZM102.1 64.7994C102.9 64.7994 103.6 65.4994 103.6 66.2994C103.6 67.0994 102.9 67.7994 102.1 67.7994C101.3 67.7994 100.6 67.0994 100.6 66.2994C100.5 65.4994 101.2 64.7994 102.1 64.7994Z" fill="#35414D"/>
<path d="M100.399 82.499H108.299V93.799H100.399V82.499Z" fill="#EF6D7A"/>
<path d="M108.3 94.4994H100.4C100.1 94.4994 99.7998 94.1994 99.7998 93.8994V82.4994C99.7998 82.1994 100.1 81.8994 100.4 81.8994H108.3C108.6 81.8994 108.9 82.1994 108.9 82.4994V93.7994C108.9 94.1994 108.7 94.4994 108.3 94.4994ZM101 93.1994H107.7V83.0994H101V93.1994Z" fill="#3A312A"/>
<path d="M111.399 70.999H119.299V93.799H111.399V70.999Z" fill="#D6DF58"/>
<path d="M119.3 94.4994H111.4C111.1 94.4994 110.8 94.1994 110.8 93.8994V70.9994C110.8 70.6994 111.1 70.3994 111.4 70.3994H119.3C119.6 70.3994 119.9 70.6994 119.9 70.9994V93.7994C119.9 94.1994 119.7 94.4994 119.3 94.4994ZM112 93.1994H118.7V71.5994H112V93.1994Z" fill="#3A312A"/>
<path d="M122.399 76.7998H130.299V93.7998H122.399V76.7998Z" fill="#8AC5DC"/>
<path d="M130.3 94.4998H122.4C122.1 94.4998 121.8 94.1998 121.8 93.8998V76.8998C121.8 76.5998 122.1 76.2998 122.4 76.2998H130.3C130.6 76.2998 130.9 76.5998 130.9 76.8998V93.8998C130.9 94.1998 130.7 94.4998 130.3 94.4998ZM123 93.1998H129.7V77.4998H123V93.1998Z" fill="#3A312A"/>
<path d="M133.399 66.499H141.299V93.799H133.399V66.499Z" fill="#87796F"/>
<path d="M141.3 94.4994H133.4C133.1 94.4994 132.8 94.1994 132.8 93.8994V66.4994C132.8 66.1994 133.1 65.8994 133.4 65.8994H141.3C141.6 65.8994 141.9 66.1994 141.9 66.4994V93.7994C141.9 94.1994 141.7 94.4994 141.3 94.4994ZM134 93.1994H140.7V67.1994H134V93.1994Z" fill="#3A312A"/>
<path fill-rule="evenodd" clip-rule="evenodd" d="M81.4 50.2998C81.4 55.5998 79 60.6998 74.4 64.0998L64.5 50.2998H67.4H81.4Z" fill="#FFB54C"/>
<path d="M64.5004 67.9998C74.2206 67.9998 82.1004 60.12 82.1004 50.3998C82.1004 40.6796 74.2206 32.7998 64.5004 32.7998C54.7802 32.7998 46.9004 40.6796 46.9004 50.3998C46.9004 60.12 54.7802 67.9998 64.5004 67.9998Z" fill="#35414D"/>
<path d="M64.4004 67.2998C73.7892 67.2998 81.4004 59.6886 81.4004 50.2998C81.4004 40.911 73.7892 33.2998 64.4004 33.2998C55.0115 33.2998 47.4004 40.911 47.4004 50.2998C47.4004 59.6886 55.0115 67.2998 64.4004 67.2998Z" fill="#35414D"/>
<path fill-rule="evenodd" clip-rule="evenodd" d="M64.4004 33.2998C73.8004 33.2998 81.4004 40.8998 81.4004 50.2998H64.4004V33.2998Z" fill="#35414D"/>
<path fill-rule="evenodd" clip-rule="evenodd" d="M74.7002 61.7L67.7002 52H79.6002C79.2002 55.8 77.4002 59.2 74.7002 61.7Z" fill="#FFA733"/>
<path fill-rule="evenodd" clip-rule="evenodd" d="M49.2002 50.2996C49.2002 58.6996 56.1002 65.5996 64.5002 65.5996C67.2002 65.5996 69.8002 64.8996 72.0002 63.5996L63.1002 51.2996C62.9002 50.9996 62.8002 50.6996 62.8002 50.2996V35.0996C55.1002 35.8996 49.2002 42.3996 49.2002 50.2996Z" fill="#2FB1D4"/>
<path fill-rule="evenodd" clip-rule="evenodd" d="M79.7006 48.5996H66.1006V35.0996C73.2006 35.8996 78.9006 41.4996 79.7006 48.5996Z" fill="#FF5A5A"/>
<path d="M61.5002 94.4994H75.1002C75.8002 94.4994 76.4002 93.8994 76.4002 93.1994C76.4002 92.4994 75.8002 91.8994 75.1002 91.8994H61.5002C60.8002 91.8994 60.2002 92.4994 60.2002 93.1994C60.2002 93.8994 60.8002 94.4994 61.5002 94.4994Z" fill="#35414D"/>
<path d="M61.5002 81.8998H75.1002C75.8002 81.8998 76.4002 81.2998 76.4002 80.5998C76.4002 79.8998 75.8002 79.2998 75.1002 79.2998H61.5002C60.8002 79.2998 60.2002 79.8998 60.2002 80.5998C60.2002 81.2998 60.8002 81.8998 61.5002 81.8998Z" fill="#35414D"/>
<path d="M61.5002 88.1996H75.1002C75.8002 88.1996 76.4002 87.5996 76.4002 86.8996C76.4002 86.1996 75.8002 85.5996 75.1002 85.5996H61.5002C60.8002 85.5996 60.2002 86.1996 60.2002 86.8996C60.2002 87.5996 60.8002 88.1996 61.5002 88.1996Z" fill="#35414D"/>
<path d="M53.8 81.8998H55.8C56.5 81.8998 57.1 81.2998 57.1 80.5998C57.1 79.8998 56.5 79.2998 55.8 79.2998H53.8C53.1 79.2998 52.5 79.8998 52.5 80.5998C52.5 81.2998 53.1 81.8998 53.8 81.8998Z" fill="#FFA733"/>
<path d="M53.8 88.1996H55.8C56.5 88.1996 57.1 87.5996 57.1 86.8996C57.1 86.1996 56.5 85.5996 55.8 85.5996H53.8C53.1 85.5996 52.5 86.1996 52.5 86.8996C52.5 87.5996 53.1 88.1996 53.8 88.1996Z" fill="#FF5A5A"/>
<path d="M53.8 94.4994H55.8C56.5 94.4994 57.1 93.8994 57.1 93.1994C57.1 92.4994 56.5 91.8994 55.8 91.8994H53.8C53.1 91.8994 52.5 92.4994 52.5 93.1994C52.5 93.8994 53.1 94.4994 53.8 94.4994Z" fill="#35414D"/>
<path d="M14.7008 19.4998H17.1008V17.0998H19.5008V14.6998H17.1008V12.2998H14.7008V14.6998H12.3008V17.0998H14.7008V19.4998Z" fill="#35414D"/>
<path d="M8.9 108.4C4 108.4 0 104.4 0 99.4996C0 94.5996 4 90.5996 8.9 90.5996C13.8 90.5996 17.8 94.5996 17.8 99.4996C17.8 104.4 13.7 108.4 8.9 108.4ZM8.9 94.5996C6.2 94.5996 3.9 96.7996 3.9 99.5996C3.9 102.3 6.1 104.6 8.9 104.6C11.7 104.6 13.9 102.4 13.9 99.5996C13.8 96.7996 11.6 94.5996 8.9 94.5996Z" fill="#35414D"/>
<path d="M176.4 72.6992C178.61 72.6992 180.4 70.9084 180.4 68.6992C180.4 66.4901 178.61 64.6992 176.4 64.6992C174.191 64.6992 172.4 66.4901 172.4 68.6992C172.4 70.9084 174.191 72.6992 176.4 72.6992Z" fill="#35414D"/>
<path d="M43.0996 8.09961C45.3087 8.09961 47.0996 6.30875 47.0996 4.09961C47.0996 1.89047 45.3087 0.0996094 43.0996 0.0996094C40.8905 0.0996094 39.0996 1.89047 39.0996 4.09961C39.0996 6.30875 40.8905 8.09961 43.0996 8.09961Z" fill="#35414D"/>
<path d="M190.3 28.1998C189.7 28.1998 189.2 27.9998 188.8 27.5998C188 26.7998 188 25.4998 188.8 24.6998L199.6 13.8998C200 13.4998 200.5 13.2998 201.1 13.2998C201.7 13.2998 202.2 13.4998 202.6 13.8998C203 14.2998 203.2 14.7998 203.2 15.3998C203.2 15.9998 203 16.4998 202.6 16.8998L191.8 27.6998C191.3 27.8998 190.8 28.1998 190.3 28.1998Z" fill="#35414D"/>
<path d="M201 28.1992C200.4 28.1992 199.9 27.9992 199.5 27.5992L188.7 16.7992C188.3 16.3992 188.1 15.8992 188.1 15.2992C188.1 14.6992 188.3 14.1992 188.7 13.7992C189.1 13.3992 189.6 13.1992 190.2 13.1992C190.8 13.1992 191.3 13.3992 191.7 13.7992L202.5 24.5992C202.9 24.9992 203.1 25.4992 203.1 26.0992C203.1 26.6992 202.9 27.1992 202.5 27.5992C202.1 27.8992 201.6 28.1992 201 28.1992Z" fill="#35414D"/>
<path d="M180.2 111.4C179.9 111.4 179.6 111.3 179.3 111C179.1 110.8 178.9 110.4 178.9 110.1C178.9 109.8 179 109.5 179.3 109.2L185.8 102.7C186 102.5 186.4 102.3 186.7 102.3C187 102.3 187.3 102.4 187.6 102.7C188.1 103.2 188.1 104 187.6 104.5L181.1 111C180.9 111.3 180.6 111.4 180.2 111.4Z" fill="#35414D"/>
<path d="M186.701 111.4C186.401 111.4 186.101 111.3 185.801 111L179.301 104.5C178.801 104 178.801 103.2 179.301 102.7C179.501 102.5 179.901 102.3 180.201 102.3C180.501 102.3 180.801 102.4 181.101 102.7L187.601 109.2C187.801 109.4 188.001 109.8 188.001 110.1C188.001 110.4 187.901 110.7 187.601 111C187.401 111.3 187.101 111.4 186.701 111.4Z" fill="#35414D"/>
</g>
<defs>
<clipPath id="clip0_942_821">
<rect width="203.1" height="180" fill="white"/>
</clipPath>
</defs>
</svg>
