<svg xmlns="http://www.w3.org/2000/svg" viewBox="0 0 440 272"><defs><clipPath id="clip-path"><path fill="none" d="M0 0h440v272H0z"/></clipPath><style>.cls-4{fill:#fcc066}.cls-5{fill:#515979}.cls-6{opacity:.3}.cls-11,.cls-6{mix-blend-mode:color-burn}.cls-7{fill:#00c853}.cls-8{fill:#66de98}.cls-9{fill:#ffe8a0}.cls-10{fill:#ef7d7d}.cls-11{opacity:.8}.cls-12{fill:#fff6d9}.cls-13{fill:#fff}.cls-14{fill:#fbb853}.cls-15{mix-blend-mode:soft-light}</style></defs><g style="isolation:isolate"><g clip-path="url(#clip-path)" id="Layer_1" data-name="Layer 1"><rect class="cls-4" x="111.09" y="36.82" width="26.67" height="14.81" rx="5.19" transform="rotate(-8 124.448 44.198)"/><path class="cls-5" d="M131.77 38a3 3 0 013.35 2.53l.62 4.4a3 3 0 01-2.53 3.34l-16.13 2.27a3 3 0 01-3.35-2.54l-.62-4.4a3 3 0 012.52-3.35L131.77 38m-.62-4.4L115 35.82a7.42 7.42 0 00-6.31 8.37l.62 4.4a7.42 7.42 0 008.37 6.3l16.13-2.27a7.41 7.41 0 006.31-8.36l-.62-4.4a7.42 7.42 0 00-8.37-6.31z"/><path class="cls-4" d="M122.64 68.41a3 3 0 01-2.27-.62 3 3 0 01-1.1-2.09l-1-13.13 14.41-2 2.64 12.9a3 3 0 01-2.51 3.53z"/><path class="cls-5" d="M130.9 53l2.22 10.86a.74.74 0 01-.62.88l-10.17 1.43a.75.75 0 01-.85-.68l-.85-11.05L130.9 53m3.51-5l-4.13.58-10.28 1.5-4.13.58.32 4.16.85 11.06a5.18 5.18 0 005.89 4.73l10.18-1.43a5.19 5.19 0 004.37-6.18l-2.23-10.86-.84-4.09z"/><g class="cls-6"><path class="cls-5" d="M130.9 53.04l-10.27 1.44.19 2.45 10.96.42-.88-4.31z"/></g><path class="cls-7" d="M123.21 211.2a9.64 9.64 0 01-10.88-8.2l-7.58-54a32 32 0 013.68-19.87l9.75-20c.76-2.63.12-23.21-1-41.71a2.22 2.22 0 011.91-2.33l16.14-2.27a2.22 2.22 0 012.47 1.72c4.07 18.08 9.13 38 10.58 40.36l14.89 16.49a32.1 32.1 0 019 18.09l7.58 54a9.63 9.63 0 01-8.19 10.87z"/><path class="cls-5" d="M135.58 65.09s8.8 39.07 11.09 41.35L161.6 123a29.68 29.68 0 018.4 16.86l7.58 54a7.4 7.4 0 01-6.3 8.36L122.9 209a7.42 7.42 0 01-8.37-6.31l-7.58-54a29.59 29.59 0 013.45-18.53l9.79-20c1.57-2.82-.74-42.8-.74-42.8l16.13-2.27m-.61-4.4L118.83 63a4.45 4.45 0 00-3.83 4.62c1 17.5 1.67 37.3 1 40.87l-9.61 19.65a34.2 34.2 0 00-3.9 21.2l7.58 54a11.87 11.87 0 0013.39 10.09l48.41-6.81A11.86 11.86 0 00182 193.21l-7.58-54a34.33 34.33 0 00-9.6-19.31l-14.65-16.24c-1.58-3.26-6.41-22.47-10.26-39.57a4.44 4.44 0 00-4.91-3.4z"/><path class="cls-7" d="M123.21 211.2a9.64 9.64 0 01-10.88-8.2l-7.58-54a32 32 0 013.68-19.87l9.75-20c.76-2.63.12-23.21-1-41.71a2.22 2.22 0 011.91-2.33l16.14-2.27a2.22 2.22 0 012.47 1.72c4.07 18.08 9.13 38 10.58 40.36l14.89 16.49a32.1 32.1 0 019 18.09l7.58 54a9.63 9.63 0 01-8.19 10.87z"/><path class="cls-5" d="M135.58 65.09s8.8 39.07 11.09 41.35L161.6 123a29.68 29.68 0 018.4 16.86l7.58 54a7.4 7.4 0 01-6.3 8.36L122.9 209a7.42 7.42 0 01-8.37-6.31l-7.58-54a29.59 29.59 0 013.45-18.53l9.79-20c1.57-2.82-.74-42.8-.74-42.8l16.13-2.27m-.61-4.4L118.83 63a4.45 4.45 0 00-3.83 4.62c1 17.5 1.67 37.3 1 40.87l-9.61 19.65a34.2 34.2 0 00-3.9 21.2l7.58 54a11.87 11.87 0 0013.39 10.09l48.41-6.81A11.86 11.86 0 00182 193.21l-7.58-54a34.33 34.33 0 00-9.6-19.31l-14.65-16.24c-1.58-3.26-6.41-22.47-10.26-39.57a4.44 4.44 0 00-4.91-3.4z"/><path class="cls-8" d="M163.78 138.59a1.47 1.47 0 01-1.65-1.13 22.64 22.64 0 00-5.07-9.92 1.48 1.48 0 012.23-2A25.62 25.62 0 01165 136.8a1.48 1.48 0 01-1.12 1.77z"/><path class="cls-9" d="M119.14 65.16a4.44 4.44 0 01-1.24-8.8l16.1-2.27a4.44 4.44 0 111.24 8.8z"/><path class="cls-5" d="M134.35 56.29a2.23 2.23 0 012.51 1.89 2.22 2.22 0 01-1.86 2.51L118.83 63a2.22 2.22 0 01-2.51-1.89 2.22 2.22 0 011.89-2.51l16.14-2.27m-.62-4.4l-16.14 2.27a6.67 6.67 0 001.86 13.2l16.14-2.27a6.67 6.67 0 00-1.86-13.2z"/><rect class="cls-9" x="108.08" y="150.39" width="68.15" height="40" rx="2.22" transform="rotate(-8 142.138 170.387)"/><path class="cls-5" d="M171.22 148.35l4.95 35.21-63.08 8.86-5-35.21 63.08-8.86m-.62-4.4l-63.08 8.86a4.45 4.45 0 00-3.78 5l5 35.21a4.44 4.44 0 005 3.78l63.1-8.8a4.44 4.44 0 003.78-5l-4.95-35.21a4.44 4.44 0 00-5-3.78z"/><path class="cls-9" d="M135.69 124.36a2.27 2.27 0 01-1.06-.11L116.94 118a2.16 2.16 0 01-1.3-1.21 2.22 2.22 0 010-1.77l2.54-5.8c.76-2.63.12-23.21-1-41.71a2.22 2.22 0 011.91-2.33l16.14-2.27a2.22 2.22 0 012.47 1.72c4.07 18.08 9.13 38 10.58 40.36l4 4.86a2.21 2.21 0 01-.42 3.23L136.67 124a2.3 2.3 0 01-.98.36z"/><path class="cls-5" d="M135.59 65.09s8.79 39.07 11.08 41.35l4 4.81-15.28 10.91-17.7-6.27 2.51-5.73c1.57-2.82-.74-42.8-.74-42.8l16.14-2.27m-.62-4.4L118.83 63a4.45 4.45 0 00-3.83 4.62c1 17.56 1.67 37.44 1 40.9l-2.44 5.58a4.45 4.45 0 002.58 6l17.7 6.27a4.48 4.48 0 002.11.21 4.4 4.4 0 002-.79l15.28-10.9a4.43 4.43 0 00.84-6.45l-3.89-4.69c-1.56-3.16-6.4-22.45-10.27-39.61a4.44 4.44 0 00-4.91-3.45z"/><path class="cls-10" d="M137.72 138.85a2.23 2.23 0 01-1.55-.36l-22.69-15.3a2.23 2.23 0 01-.76-2.82l3.38-6.91a2.22 2.22 0 011.36-1.15 1.94 1.94 0 01.33-.07 2.2 2.2 0 011.44.29l16.14 9.56 12.87-13.64a2.23 2.23 0 011.31-.68h.33a2.22 2.22 0 011.63.74l5.15 5.71a2.22 2.22 0 01.05 2.91l-17.6 21a2.21 2.21 0 01-1.39.72z"/><path class="cls-5" d="M149.86 110l5.15 5.71-17.6 21-22.69-15.3 3.38-6.91 17.66 10.47 14.1-14.97m-.62-4.4a4.42 4.42 0 00-2.61 1.35L135 119.27l-14.61-8.66a4.47 4.47 0 00-2.88-.57 3.58 3.58 0 00-.65.14 4.4 4.4 0 00-2.72 2.31l-3.38 6.9a4.44 4.44 0 001.51 5.64l22.69 15.3a4.43 4.43 0 005.89-.83l17.59-21a4.44 4.44 0 00-.1-5.83l-5.18-5.67a4.44 4.44 0 00-3.25-1.47 4.92 4.92 0 00-.67 0z"/><g class="cls-11"><path class="cls-5" d="M135.58 65.09l-16.13 2.27.17 3.18 17.47 1.1c-.82-3.51-1.51-6.55-1.51-6.55z"/></g><path class="cls-12" d="M169.68 180a1.47 1.47 0 01-1.67-1.26l-3.3-23.47a1.48 1.48 0 012.94-.41l3.29 23.47a1.47 1.47 0 01-1.26 1.67z"/><path class="cls-5" d="M155.41 171.56a1.49 1.49 0 01-.72-.08 6.41 6.41 0 00-5.21.73 1.48 1.48 0 11-1.75-2.39 9.39 9.39 0 018-1.12 1.47 1.47 0 01.88 1.9 1.49 1.49 0 01-1.2.96z"/><circle class="cls-5" cx="151.1" cy="164.87" r="5.19"/><circle class="cls-13" cx="152.39" cy="164.69" r="1.3"/><path class="cls-5" d="M146 155.1a6.63 6.63 0 011.14-1.07 7.39 7.39 0 011.3-.79 7.66 7.66 0 013.09-.72 6.49 6.49 0 013.25.76 5.64 5.64 0 012.3 2.21 1.51 1.51 0 01-1.68 2.24l-.36-.1c-.73-.19-1.29-.43-1.85-.51a6.67 6.67 0 00-1.61-.16 10.63 10.63 0 00-1.8.16c-.33 0-.67.1-1 .18s-.72.17-1 .19h-.58a1.46 1.46 0 01-1.52-1.4 1.44 1.44 0 01.32-.99zM136.34 174.24a1.49 1.49 0 01-.72-.08 6.44 6.44 0 00-5.22.73 1.48 1.48 0 11-1.75-2.39 9.41 9.41 0 018-1.12 1.48 1.48 0 01-.3 2.86z"/><circle class="cls-5" cx="132.03" cy="167.55" r="5.19"/><circle class="cls-13" cx="133.32" cy="167.37" r="1.3"/><path class="cls-5" d="M133.2 159.53a10 10 0 01-1 .11c-.35 0-.69.06-1 .1a10 10 0 00-1.78.34 7.46 7.46 0 00-1.5.6 17.75 17.75 0 00-1.64 1l-.31.19a1.52 1.52 0 01-2.08-.52 1.56 1.56 0 01-.16-1.17 5.6 5.6 0 011.61-2.75 6.3 6.3 0 012.91-1.63 7.42 7.42 0 014.63.24 6.22 6.22 0 011.4.72 1.46 1.46 0 01.4 2 1.52 1.52 0 01-.87.61z"/><circle class="cls-14" cx="136.59" cy="130.78" r="12.59"/><path class="cls-5" d="M135.14 120.51a10.37 10.37 0 11-8.82 11.71 10.37 10.37 0 018.82-11.71m-.61-4.4a14.81 14.81 0 1016.73 12.61 14.82 14.82 0 00-16.73-12.61z"/><g class="cls-15"><path class="cls-13" d="M142.32 131.47a1.48 1.48 0 01-1.67-1.26 4.11 4.11 0 00-4.63-3.5 1.48 1.48 0 11-.42-2.93 7.08 7.08 0 018 6 1.49 1.49 0 01-1.28 1.69z"/></g><path class="cls-5" d="M143.88 180.86a19.66 19.66 0 01-11-1.67 1.48 1.48 0 011.26-2.68c5.89 2.76 13.2 1.74 17.39-2.42a1.48 1.48 0 112.09 2.1 17.12 17.12 0 01-9.74 4.67zM140.84 183.27a11.72 11.72 0 003.13 0 11.25 11.25 0 001.53-.33 7.35 7.35 0 001.46-.56 1 1 0 011.24 1.45l-.45.63a4 4 0 01-1.54 1.24 5.58 5.58 0 01-1.83.49 6 6 0 01-.95 0 5.09 5.09 0 01-1-.09 5 5 0 01-1.81-.68l-.55-.36a1 1 0 01.72-1.86z"/><rect class="cls-4" x="313.05" y="40.56" width="12.07" height="21.73" rx="4.22" transform="rotate(-73 319.086 51.42)"/><path class="cls-5" d="M326.67 49.33a2.41 2.41 0 011.6 3l-1.06 3.46a2.41 2.41 0 01-3 1.61l-12.7-3.89a2.41 2.41 0 01-1.6-3l1.09-3.46a2.41 2.41 0 013-1.61l12.7 3.89m1.06-3.47L315 42a6 6 0 00-7.54 4l-1.05 3.46a6 6 0 004 7.54l12.7 3.88a6.06 6.06 0 007.54-4l1.06-3.46a6.06 6.06 0 00-4-7.54z"/><path class="cls-4" d="M309.44 68.67a2.42 2.42 0 01-1.56-3.16l3.77-10.05L323 58.93l-2.5 10.44a2.43 2.43 0 01-3.06 1.75z"/><path class="cls-5" d="M320.83 60.16l-2.1 8.84a.6.6 0 01-.76.44l-8-2.45a.59.59 0 01-.39-.79l3.17-8.46 8.08 2.47m4.31-2.47l-3.25-1-8.08-2.47-3.25-1-1.2 3.18-3.17 8.46a4.21 4.21 0 002.72 5.52l8 2.45a4.22 4.22 0 005.35-3.06l2.09-8.82.79-3.31z"/><g class="cls-6"><path class="cls-5" d="M320.83 60.16l-8.08-2.47-.7 1.87 7.95 4.09.83-3.49z"/></g><path class="cls-7" d="M260.69 174.31a7.85 7.85 0 01-5.21-9.8l13-42.46a26.1 26.1 0 019.52-13.41l14.1-11.38c1.47-1.68 8.08-17.1 13.66-31.13a1.8 1.8 0 012.24-1.06L320.67 69a1.82 1.82 0 011.24 2.12c-3.22 14.75-6.36 31.23-6.09 33.45l5.31 17.3a26 26 0 01.43 16.46l-13 42.47a7.86 7.86 0 01-9.8 5.21z"/><path class="cls-5" d="M320.14 70.68s-7 31.88-6.05 34.35l5.33 17.37a24.15 24.15 0 01.41 15.35l-13 42.47a6 6 0 01-7.54 4l-38.09-11.65a6 6 0 01-4-7.54l13-42.46a24.19 24.19 0 018.93-12.5l14.14-11.42c2.12-1.54 14.18-31.86 14.18-31.86l12.7 3.88m1.06-3.46l-12.7-3.88a3.61 3.61 0 00-4.42 2.12C298.8 78.73 292.46 93.58 290.78 96l-13.86 11.2a28 28 0 00-10.19 14.32l-13 42.47a9.66 9.66 0 006.41 12l38.09 11.65a9.67 9.67 0 0012.06-6.41l13-42.47a27.91 27.91 0 00-.44-17.56l-5.23-17c0-2.95 3-18.8 6.06-32.76a3.62 3.62 0 00-2.48-4.23z"/><path class="cls-7" d="M260.69 174.31a7.85 7.85 0 01-5.21-9.8l13-42.46a26.1 26.1 0 019.52-13.41l14.1-11.38c1.47-1.68 8.08-17.1 13.66-31.13a1.8 1.8 0 012.24-1.06L320.67 69a1.82 1.82 0 011.24 2.12c-3.22 14.75-6.36 31.23-6.09 33.45l5.31 17.3a26 26 0 01.43 16.46l-13 42.47a7.86 7.86 0 01-9.8 5.21z"/><path class="cls-5" d="M320.14 70.68s-7 31.88-6.05 34.35l5.33 17.37a24.15 24.15 0 01.41 15.35l-13 42.47a6 6 0 01-7.54 4l-38.09-11.65a6 6 0 01-4-7.54l13-42.46a24.19 24.19 0 018.93-12.5l14.14-11.42c2.12-1.54 14.18-31.86 14.18-31.86l12.7 3.88m1.06-3.46l-12.7-3.88a3.61 3.61 0 00-4.42 2.12C298.8 78.73 292.46 93.58 290.78 96l-13.86 11.2a28 28 0 00-10.19 14.32l-13 42.47a9.66 9.66 0 006.41 12l38.09 11.65a9.67 9.67 0 0012.06-6.41l13-42.47a27.91 27.91 0 00-.44-17.56l-5.23-17c0-2.95 3-18.8 6.06-32.76a3.62 3.62 0 00-2.48-4.23z"/><path class="cls-8" d="M315.65 134.67a1.2 1.2 0 01-.82-1.41 18.58 18.58 0 00-.33-9.07 1.21 1.21 0 012.32-.68 21 21 0 01.37 10.26 1.22 1.22 0 01-1.44.92z"/><path class="cls-9" d="M308 65.07a3.62 3.62 0 012.12-6.93L322.79 62a3.62 3.62 0 01-2.12 7z"/><path class="cls-5" d="M322.26 63.75a1.83 1.83 0 011.2 2.27 1.81 1.81 0 01-2.26 1.2l-12.7-3.88a1.83 1.83 0 01-1.2-2.27 1.81 1.81 0 012.26-1.2l12.7 3.88m1.06-3.46l-12.7-3.88a5.43 5.43 0 00-3.18 10.39l12.7 3.88a5.43 5.43 0 003.18-10.39z"/><rect class="cls-9" x="272.44" y="122.94" width="32.59" height="55.53" rx="1.81" transform="rotate(-73 288.735 150.702)"/><path class="cls-5" d="M317.79 144.43l-8.47 27.71L259.68 157l8.47-27.7 49.64 15.17m1.06-3.46l-49.64-15.21a3.61 3.61 0 00-4.52 2.4l-8.47 27.7a3.62 3.62 0 002.4 4.53l49.64 15.17a3.61 3.61 0 004.52-2.4l8.47-27.71a3.62 3.62 0 00-2.4-4.52z"/><path class="cls-9" d="M299.81 114.48a1.7 1.7 0 01-.74-.44l-10.91-10.72a1.8 1.8 0 01-.54-1.35 1.76 1.76 0 01.61-1.3l3.87-3.41c1.47-1.68 8.08-17.1 13.66-31.13a1.8 1.8 0 012.24-1.06L320.67 69a1.82 1.82 0 011.24 2.12c-3.22 14.75-6.36 31.23-6.09 33.45l1.31 5a1.79 1.79 0 01-.22 1.43 1.84 1.84 0 01-1.2.81l-15 2.79a1.91 1.91 0 01-.9-.12z"/><path class="cls-5" d="M320.14 70.68s-7 31.88-6.05 34.35l1.29 4.93-15 2.79L289.43 102l3.83-3.36c2.12-1.54 14.18-31.86 14.18-31.86l12.7 3.88m1.06-3.46l-12.7-3.88a3.61 3.61 0 00-4.42 2.12c-5.3 13.32-11.66 28.23-13.32 30.57l-3.76 3.3a3.63 3.63 0 00-.14 5.3l10.91 10.72a3.67 3.67 0 001.48.88 3.57 3.57 0 001.72.1l15-2.79a3.61 3.61 0 002.84-4.48l-1.26-4.8c-.06-2.87 3-18.78 6.06-32.79a3.62 3.62 0 00-2.48-4.23z"/><path class="cls-10" d="M296.32 125.88a1.82 1.82 0 01-1-.8L283.81 106a1.81 1.81 0 01.41-2.34l4.88-3.94a1.77 1.77 0 011.4-.38 1.31 1.31 0 01.27.06 1.75 1.75 0 011 .71l8.62 12.62 14.21-5.64a1.77 1.77 0 011.2 0 1.3 1.3 0 01.25.1 1.76 1.76 0 01.95 1.1l1.83 6a1.8 1.8 0 01-1 2.17l-20.21 9.42a1.78 1.78 0 01-1.3 0z"/><path class="cls-5" d="M315.23 108.74l1.83 6-20.21 9.42L285.36 105l4.88-3.94 9.43 13.81 15.56-6.17m1-3.46a3.63 3.63 0 00-2.39.09L301 110.48l-7.8-11.42a3.61 3.61 0 00-1.94-1.43 3.12 3.12 0 00-.53-.11 3.63 3.63 0 00-2.8.76l-4.87 3.94a3.62 3.62 0 00-.83 4.68l11.52 19.1a3.61 3.61 0 004.63 1.42l20.21-9.42a3.62 3.62 0 001.94-4.34l-1.84-6a3.66 3.66 0 00-1.9-2.21 2.82 2.82 0 00-.51-.19z"/><g class="cls-11"><path class="cls-5" d="M320.14 70.68l-12.7-3.88-1 2.4L319 76c.6-2.84 1.14-5.32 1.14-5.32z"/></g><path class="cls-12" d="M305.76 167.26a1.19 1.19 0 01-.8-1.5l5.64-18.47a1.21 1.21 0 012.31.7l-5.64 18.47a1.2 1.2 0 01-1.51.8z"/><circle class="cls-14" cx="298.26" cy="119.53" r="10.26"/><path class="cls-5" d="M300.73 111.45a8.45 8.45 0 11-10.55 5.61 8.44 8.44 0 0110.55-5.61m1.06-3.46a12.07 12.07 0 108 15.07 12.08 12.08 0 00-8-15.07z"/><g class="cls-15"><path class="cls-13" d="M302.26 122a1.2 1.2 0 01-.8-1.51 3.36 3.36 0 00-2.22-4.18A1.2 1.2 0 11300 114a5.76 5.76 0 013.82 7.18 1.22 1.22 0 01-1.56.82z"/></g><path class="cls-5" d="M292.6 152.48a.91.91 0 01.18-1.77 8.52 8.52 0 014.68 1.17.91.91 0 01-1 1.52 6.72 6.72 0 00-3.53-.88 1 1 0 01-.33-.04z"/><circle class="cls-5" cx="295.89" cy="148.2" r="3.62"/><circle class="cls-13" cx="296.77" cy="148.42" r=".91"/><path class="cls-5" d="M280.89 149.56a.89.89 0 01-.64-.79.91.91 0 01.82-1 8.49 8.49 0 014.67 1.17.9.9 0 01-1 1.52 6.72 6.72 0 00-3.53-.88 1 1 0 01-.32-.02z"/><circle class="cls-5" cx="284.18" cy="145.28" r="3.62"/><circle class="cls-13" cx="285.06" cy="145.5" r=".91"/><path class="cls-5" d="M295.83 139.57a4.82 4.82 0 011.85-.24 5.8 5.8 0 011.82.38 5 5 0 011.66 1 4 4 0 011.1 1.64 1 1 0 01-.65 1.32 1 1 0 01-.75 0l-.22-.1c-.44-.19-.77-.38-1.13-.55s-.71-.33-1.1-.47l-1.2-.46a9.92 9.92 0 01-1.28-.49l-.23-.11a1 1 0 01-.46-1.38 1 1 0 01.59-.54zM287.25 139.41a12.45 12.45 0 01-1.35-.17l-1.28-.16c-.41-.05-.79-.06-1.19-.09s-.78 0-1.26-.05h-.24a1 1 0 01-.95-1.12 1 1 0 01.32-.67 3.93 3.93 0 011.74-.93 4.91 4.91 0 011.94-.11 5.63 5.63 0 011.78.52 4.79 4.79 0 011.52 1.07 1 1 0 01-.76 1.74zM285.62 162.67a8.14 8.14 0 01-5.52-9.76.9.9 0 011.1-.66l14.1 3.52a.88.88 0 01.51.4.9.9 0 01.1.68 8.16 8.16 0 01-9.87 5.94l-.42-.12z"/><path class="cls-5" d="M295 156.63a7.24 7.24 0 01-8.78 5.28l-.37-.11a7.23 7.23 0 01-4.9-8.67l14 3.5m.53-1.73h-.09l-14.05-3.51a1.82 1.82 0 00-1.37.21 1.76 1.76 0 00-.83 1.11 9.06 9.06 0 006.13 10.85c.16 0 .31.09.47.12a9 9 0 0011-6.59 1.81 1.81 0 00-1.23-2.17z"/><ellipse class="cls-10" cx="286.84" cy="159.57" rx="2.41" ry="5.39" transform="rotate(-76 286.838 159.565)"/><path class="cls-7" d="M168.2 237.16a11.47 11.47 0 01-7.86-14.16l17.88-62.35a38.11 38.11 0 0113.61-19.81l20.27-17c2.11-2.5 11.37-25.18 19.16-45.81a2.64 2.64 0 013.2-1.61l18.64 5.35a2.64 2.64 0 011.9 3.06c-4.33 21.62-8.5 45.77-8 49l8.2 25.14a38.06 38.06 0 011 24l-17.9 62.37a11.48 11.48 0 01-14.18 7.85z"/><path class="cls-5" d="M252.37 84.31s-9.34 46.73-8 50.31l8.23 25.23a35.25 35.25 0 011 22.41l-17.88 62.35a8.81 8.81 0 01-10.9 6l-55.93-16a8.82 8.82 0 01-6-10.91l17.88-62.35a35.2 35.2 0 0112.72-18.47l20.35-17c3.06-2.31 19.9-46.89 19.9-46.89l18.64 5.35m1.46-5.09l-18.64-5.34a5.3 5.3 0 00-6.41 3.21c-7.37 19.52-16.24 41.36-18.64 44.94l-19.95 16.72a40.79 40.79 0 00-14.52 21.16l-17.88 62.31a14.11 14.11 0 009.67 17.45l55.92 16a14.13 14.13 0 0017.45-9.67l17.88-62.35a40.84 40.84 0 00-1.1-25.64l-8.07-24.75c-.13-4.3 3.92-27.53 8-48a5.3 5.3 0 00-3.73-6.13z"/><path class="cls-7" d="M168.2 237.16a11.47 11.47 0 01-7.86-14.16l17.88-62.35a38.11 38.11 0 0113.61-19.81l20.27-17c2.11-2.5 11.37-25.18 19.16-45.81a2.64 2.64 0 013.2-1.61l18.64 5.35a2.64 2.64 0 011.9 3.06c-4.33 21.62-8.5 45.77-8 49l8.2 25.14a38.06 38.06 0 011 24l-17.9 62.37a11.48 11.48 0 01-14.18 7.85z"/><path class="cls-5" d="M252.37 84.31s-9.34 46.73-8 50.31l8.23 25.23a35.25 35.25 0 011 22.41l-17.88 62.35a8.81 8.81 0 01-10.9 6l-55.93-16a8.82 8.82 0 01-6-10.91l17.88-62.35a35.2 35.2 0 0112.72-18.47l20.35-17c3.06-2.31 19.9-46.89 19.9-46.89l18.64 5.35m1.46-5.09l-18.64-5.34a5.3 5.3 0 00-6.41 3.21c-7.37 19.52-16.24 41.36-18.64 44.94l-19.95 16.72a40.79 40.79 0 00-14.52 21.16l-17.88 62.31a14.11 14.11 0 009.67 17.45l55.92 16a14.13 14.13 0 0017.45-9.67l17.88-62.35a40.84 40.84 0 00-1.1-25.64l-8.07-24.75c-.13-4.3 3.92-27.53 8-48a5.3 5.3 0 00-3.73-6.13z"/><path class="cls-8" d="M247.45 177.86a1.76 1.76 0 01-1.24-2 27.13 27.13 0 00-.71-13.24 1.76 1.76 0 013.37-1 30.58 30.58 0 01.8 15 1.77 1.77 0 01-2.08 1.39z"/><path class="cls-9" d="M234.46 76.42a5.29 5.29 0 112.92-10.17L256 71.6a5.29 5.29 0 01-2.92 10.17z"/><path class="cls-5" d="M255.29 74.14a2.64 2.64 0 011.81 3.27 2.64 2.64 0 01-3.27 1.81l-18.64-5.34a2.64 2.64 0 01-1.81-3.27 2.64 2.64 0 013.27-1.82l18.64 5.35m1.46-5.08l-18.64-5.35A7.93 7.93 0 10233.73 79l18.64 5.35a7.93 7.93 0 104.38-15.25z"/><rect class="cls-4" x="247.6" y="19.16" width="17.63" height="31.73" rx="6.17" transform="rotate(-74 256.415 35.035)"/><path class="cls-5" d="M267.44 31.77a3.54 3.54 0 012.42 4.36l-1.46 5.09a3.54 3.54 0 01-4.4 2.42l-18.65-5.35a3.52 3.52 0 01-2.35-4.36l1.45-5.09a3.53 3.53 0 014.37-2.41l18.64 5.34m1.46-5.08l-18.65-5.35a8.82 8.82 0 00-10.9 6.05l-1.46 5.08a8.82 8.82 0 006.05 10.9l18.64 5.35a8.82 8.82 0 0010.9-6l1.46-5.09a8.82 8.82 0 00-6-10.9z"/><rect class="cls-9" x="184.75" y="161.41" width="47.6" height="81.1" rx="2.64" transform="rotate(-74 208.548 201.958)"/><path class="cls-5" d="M250.82 192.07l-11.66 40.67-72.88-20.89L178 171.18l72.87 20.89m1.46-5.08l-72.88-20.9a5.3 5.3 0 00-6.54 3.63l-11.71 40.67a5.28 5.28 0 003.62 6.54l72.88 20.9a5.29 5.29 0 006.54-3.63l11.66-40.67a5.28 5.28 0 00-3.62-6.54z"/><path class="cls-9" d="M223.8 148.79a2.6 2.6 0 01-1.09-.63l-16.21-15.38a2.65 2.65 0 01-.82-1.94 2.61 2.61 0 01.86-1.93l5.56-5.07c2.1-2.49 11.36-25.18 19.16-45.81a2.64 2.64 0 013.2-1.61l18.64 5.35a2.64 2.64 0 011.9 3.06c-4.33 21.63-8.5 45.77-8 49l2 7.24a2.64 2.64 0 01-2 3.31l-21.9 4.46a2.77 2.77 0 01-1.3-.05z"/><path class="cls-5" d="M252.37 84.31s-9.34 46.73-8 50.31l2 7.17-21.89 4.45-16.21-15.38 5.51-5c3.06-2.31 19.9-46.89 19.9-46.89l18.64 5.35m1.46-5.09l-18.64-5.34a5.3 5.3 0 00-6.41 3.21c-7.39 19.59-16.3 41.52-18.66 45l-5.31 4.9a5.29 5.29 0 00-.08 7.75l16.21 15.38a5.25 5.25 0 002.18 1.25 5.32 5.32 0 002.51.1l21.9-4.46a5.28 5.28 0 004-6.61l-2-7c-.16-4.19 3.91-27.51 8-48a5.3 5.3 0 00-3.73-6.13z"/><path class="cls-10" d="M219 165.52a2.61 2.61 0 01-1.52-1.14l-17.26-27.61a2.64 2.64 0 01.54-3.43l7-5.88a2.65 2.65 0 012-.59 1.8 1.8 0 01.39.08 2.65 2.65 0 011.43 1l12.91 18.21 20.6-8.6a2.63 2.63 0 011.75-.1 1.86 1.86 0 01.37.14 2.63 2.63 0 011.41 1.58l2.84 8.7a2.64 2.64 0 01-1.36 3.2l-29.27 14.27a2.6 2.6 0 01-1.83.17z"/><path class="cls-5" d="M246.17 140l2.83 8.7-29.27 14.3-17.27-27.62 7-5.87 14.13 19.93 22.58-9.44m1.45-5.09a5.3 5.3 0 00-3.49.21l-18.65 7.78-11.69-16.48a5.3 5.3 0 00-2.85-2 7.2 7.2 0 00-.78-.16 5.32 5.32 0 00-4.08 1.19l-7 5.88a5.28 5.28 0 00-1.09 6.86l17.26 27.62a5.29 5.29 0 006.8 2l29.28-14.28a5.28 5.28 0 002.71-6.39l-2.83-8.7a5.34 5.34 0 00-2.83-3.17 6.09 6.09 0 00-.75-.28z"/><g class="cls-11"><path class="cls-5" d="M252.37 84.31L233.73 79l-1.35 3.54 18.46 9.65c.81-4.25 1.53-7.88 1.53-7.88z"/></g><path class="cls-12" d="M233.83 225.72a1.76 1.76 0 01-1.2-2.18l7.77-27.12a1.76 1.76 0 013.39 1L236 224.51a1.76 1.76 0 01-2.17 1.21z"/><circle class="cls-14" cx="221.67" cy="156.2" r="14.99"/><path class="cls-5" d="M225.07 144.34a12.34 12.34 0 11-15.26 8.46 12.34 12.34 0 0115.26-8.46m1.46-5.08a17.63 17.63 0 1012.09 21.8 17.65 17.65 0 00-12.09-21.8z"/><g class="cls-15"><path class="cls-13" d="M227.57 159.73a1.78 1.78 0 01-1.21-2.18 4.88 4.88 0 00-3.34-6 1.76 1.76 0 011-3.39 8.41 8.41 0 015.76 10.4 1.76 1.76 0 01-2.21 1.17z"/></g><path class="cls-4" d="M242.76 60.46a3.52 3.52 0 01-2.16-1.78 3.57 3.57 0 01-.19-2.79l5.26-14.77 16.64 4.77-3.38 15.31a3.51 3.51 0 01-4.41 2.63z"/><path class="cls-5" d="M259.19 47.75l-2.84 12.88a.88.88 0 01-1.1.66l-11.76-3.37a.87.87 0 01-.58-1.14l4.42-12.43 11.86 3.4m6.23-3.75l-4.77-1.37-11.87-3.4-4.78-1.34-1.67 4.68L237.92 55a6.18 6.18 0 004.08 8l11.75 3.37a6.17 6.17 0 007.73-4.6l2.83-12.88 1.11-4.89z"/><g class="cls-6"><path class="cls-5" d="M259.19 47.75l-11.86-3.4-.98 2.75 11.71 5.76 1.13-5.11z"/></g><path class="cls-5" d="M214.25 201.41a2 2 0 01-1.38-2.35 6 6 0 1111.6 2.68 2 2 0 01-3.87-.89 2 2 0 00-3.87-.9 2 2 0 01-2.38 1.49zM194.93 197a2 2 0 01-1.38-2.35 6 6 0 1111.6 2.68 2 2 0 01-3.87-.89 2 2 0 00-1.49-2.39 2 2 0 00-1.49.26 2 2 0 00-.89 1.23A2 2 0 01195 197zM218.64 185.77a8 8 0 013.05-.18 9.73 9.73 0 012.94.83 8.3 8.3 0 012.6 1.83 6.35 6.35 0 011.61 2.81 1.7 1.7 0 01-1.2 2.09 1.68 1.68 0 01-1.23-.13l-.36-.19c-.69-.36-1.21-.72-1.79-1s-1.12-.62-1.74-.91l-1.92-.92a20.85 20.85 0 01-2-1l-.37-.22a1.67 1.67 0 01-.6-2.3 1.62 1.62 0 011.01-.71zM204.39 185.8h-6.35c-.69 0-1.28.12-2.07.14h-.39a1.7 1.7 0 01-1.75-1.66 1.65 1.65 0 01.41-1.16 6.29 6.29 0 012.69-1.82 8.31 8.31 0 013.14-.51 9.65 9.65 0 013 .54 8.21 8.21 0 012.67 1.5 1.69 1.69 0 01-.95 3zM203.59 219.64a13.37 13.37 0 01-9.34-15.87 1.47 1.47 0 011.78-1.11l23.26 5.34a1.48 1.48 0 011 1.76 13.38 13.38 0 01-16.05 10q-.34-.07-.69-.18z"/><path class="cls-5" d="M218.88 209.46a11.89 11.89 0 01-14.27 8.91l-.61-.15a11.9 11.9 0 01-8.3-14.11l23.18 5.35m.82-2.86h-.15l-23.18-5.35a3 3 0 00-3.57 2.23 14.85 14.85 0 0010.38 17.63c.25.08.51.14.76.2a14.89 14.89 0 0017.84-11.14 3 3 0 00-2.08-3.53z"/><ellipse class="cls-10" cx="205.51" cy="214.51" rx="3.97" ry="8.85" transform="rotate(-77 205.5 214.51)"/></g></g></svg>