<?xml version="1.0" encoding="utf-8"?>
<!-- Generator: Adobe Illustrator 25.0.0, SVG Export Plug-In . SVG Version: 6.00 Build 0)  -->
<svg version="1.1" id="Layer_1" xmlns="http://www.w3.org/2000/svg" xmlns:xlink="http://www.w3.org/1999/xlink" x="0px" y="0px"
	 viewBox="0 0 197.6 180" style="enable-background:new 0 0 197.6 180;" xml:space="preserve">
<style type="text/css">
	.st0{fill:#FAF8F8;}
	.st1{fill:#3F597D;}
	.st2{fill:#5D748A;}
	.st3{fill:#F0E9E6;}
	.st4{fill-rule:evenodd;clip-rule:evenodd;fill:#FDF6EC;}
	.st5{fill-rule:evenodd;clip-rule:evenodd;fill:#FFB54C;}
	.st6{fill-rule:evenodd;clip-rule:evenodd;fill:#35414D;}
	.st7{fill-rule:evenodd;clip-rule:evenodd;fill:#FFA733;}
	.st8{fill-rule:evenodd;clip-rule:evenodd;fill:#2FB1D4;}
	.st9{fill-rule:evenodd;clip-rule:evenodd;fill:#FF5A5A;}
	.st10{clip-path:url(#SVGID_2_);}
	.st11{fill:#07BEEF;}
	.st12{fill:#FC635B;}
	.st13{fill:#7EC927;}
	.st14{fill:#FFA733;}
	.st15{fill:#00B6E0;}
	.st16{fill:#F34234;}
	.st17{fill:#60A917;}
	.st18{fill:#FF9801;}
	.st19{fill:#1D2938;}
	.st20{fill-rule:evenodd;clip-rule:evenodd;fill:#A5DC69;}
	.st21{fill:#35414D;}
	.st22{fill:#5D6D7E;}
	.st23{fill:#FF8E31;}
	.st24{fill:#FECE59;}
	.st25{fill:#34495E;}
	.st26{opacity:0.3;fill:#34495E;}
	.st27{opacity:0.2;fill:#FFFFFF;}
</style>
<g>
	<g>
		<path class="st0" d="M190.1,24v112.5H5.1L5,24.4c0-4.2,1.2-7.9,5.4-7.9h172.2C186.7,16.5,190.1,19.9,190.1,24L190.1,24z"/>
		<path class="st1" d="M110.6,167.4l-3.4-10.5l0,0h0l-1.6-4.9l-9.5-8.9l-8.9,8.9l-5,15.4h9.1l0,0H110.6z"/>
		<path class="st2" d="M125.8,171.7c-1.7-3.6-5.3-6-9.5-6H81.3l-4.3,1.6c-0.6,0-9.1,3.3-9.1,8.5c0,2.1,1.7,3.8,3.8,3.8l50.1-0.4
			c2.1,0,3.8-1.7,3.8-3.8c0-0.8,1.2-0.7,1.1-1.4C126.4,173.2,126.2,172.4,125.8,171.7L125.8,171.7z"/>
		<path class="st1" d="M126.8,176.2c0,2.1-1.7,3.8-3.8,3.8H69.8c-2.1,0-3.8-1.7-3.8-3.8c0-5.3,3.8-9.6,8.9-10.4
			c0.5-0.1,1.1-0.1,1.7-0.1h4.7l-2.6,3.4c-1.5,2-0.1,4.8,2.4,4.8h45.5C126.8,174.7,126.8,175.4,126.8,176.2L126.8,176.2z"/>
		<path class="st3" d="M10.4,129V16.5c-4.2,0-7.5,3.4-7.5,7.5v112.5h2.3h5.3h179.7v-6H11.9C11,130.5,10.4,129.8,10.4,129z"/>
		<path class="st2" d="M190.1,136.5v7.9c0,4.2-5.7,6.1-9.9,6.1l-167.9,0.1c-4.2,0-7.5-3.4-7.5-7.5l-1.9-6.5H190.1z"/>
		<g>
			<path class="st1" d="M182.5,154.8H10.4c-5.7,0-10.4-4.6-10.4-10.4V24c0-5.7,4.6-10.4,10.4-10.4h172.2c5.7,0,10.4,4.6,10.4,10.4
				v120.4C192.9,150.1,188.2,154.8,182.5,154.8z M10.4,19.3c-2.6,0-4.7,2.1-4.7,4.7v120.4c0,2.6,2.1,4.7,4.7,4.7h172.2
				c2.6,0,4.7-2.1,4.7-4.7V24c0-2.6-2.1-4.7-4.7-4.7H10.4z"/>
		</g>
	</g>
	<path class="st4" d="M21.9,1.6h150.4v120.1H21.9L21.9,1.6z"/>
	<g>
		<path class="st5" d="M79.1,33.8c0,6.7-3.1,13.3-9,17.5L57.5,33.8h3.7H79.1z"/>
		<circle class="st6" cx="57.6" cy="33.9" r="22.4"/>
		<circle class="st6" cx="57.5" cy="33.8" r="21.6"/>
		<path class="st6" d="M57.5,12.2c11.9,0,21.6,9.7,21.6,21.6H57.5V12.2z"/>
		<path class="st7" d="M70.6,48.3l-8.9-12.3h15.2C76.4,40.8,74,45.1,70.6,48.3L70.6,48.3z"/>
		<path class="st8" d="M38,33.8c0,10.7,8.7,19.5,19.5,19.5c3.5,0,6.8-0.9,9.6-2.5L55.8,35l0,0c-0.3-0.4-0.4-0.8-0.4-1.2V14.4
			C45.6,15.5,38,23.8,38,33.8z"/>
		<path class="st9" d="M76.9,31.7H59.6V14.4C68.7,15.4,75.9,22.6,76.9,31.7z"/>
	</g>
	<g>
		<defs>
			<rect id="SVGID_1_" x="107.3" y="18.6" width="54.6" height="48.8"/>
		</defs>
		<clipPath id="SVGID_2_">
			<use xlink:href="#SVGID_1_"  style="overflow:visible;"/>
		</clipPath>
		<g class="st10">
			<path class="st11" d="M88,59.3c0,3.4-2.8,6.2-6.2,6.2s-6.2-2.8-6.2-6.2c0-3.4,2.8-6.2,6.2-6.2S88,55.9,88,59.3L88,59.3z"/>
			<path class="st12" d="M121.5,30.5c0,3.4-2.8,6.2-6.2,6.2s-6.2-2.8-6.2-6.2c0-3.4,2.8-6.2,6.2-6.2S121.5,27.1,121.5,30.5z"/>
			<path class="st13" d="M155,50.9c0,3.4-2.8,6.2-6.2,6.2c-3.4,0-6.2-2.8-6.2-6.2c0-3.4,2.8-6.2,6.2-6.2S155,47.4,155,50.9L155,50.9
				z"/>
			<path class="st14" d="M188.4,18.6c0,3.4-2.8,6.2-6.2,6.2c-3.4,0-6.2-2.8-6.2-6.2c0-3.4,2.8-6.2,6.2-6.2
				C185.7,12.4,188.4,15.1,188.4,18.6z"/>
			<path class="st15" d="M88,59v0.2c0,3.5-2.8,6.2-6.2,6.2s-6.2-2.8-6.2-6.2c0-1.8,0.8-3.5,2.1-4.7c0.1,3.3,2.9,6,6.2,6
				C85.6,60.6,87,60,88,59z"/>
			<path class="st16" d="M121.5,30.2v0.2c0,3.5-2.8,6.2-6.2,6.2c-3.4,0-6.2-2.8-6.2-6.2c0-1.9,0.8-3.5,2.1-4.7c0.1,3.3,2.8,6,6.2,6
				C119,31.8,120.4,31.2,121.5,30.2L121.5,30.2z"/>
			<path class="st17" d="M155,50.6v0.3c0,3.4-2.8,6.2-6.2,6.2c-3.4,0-6.2-2.8-6.2-6.2c0-1.9,0.8-3.5,2.1-4.7
				c0.2,3.3,2.9,5.9,6.2,5.9C152.5,52.1,153.9,51.6,155,50.6L155,50.6z"/>
			<path class="st18" d="M188.4,18.3v0.2c0,3.4-2.7,6.2-6.2,6.2c-3.4,0-6.2-2.8-6.2-6.2c0-1.8,0.8-3.5,2.1-4.6
				c0.2,3.3,2.9,5.9,6.2,5.9C185.9,19.8,187.3,19.3,188.4,18.3z"/>
			<path class="st19" d="M81.9,67.6c4.5,0,8.2-3.7,8.2-8.3c0-1.4-0.4-2.6-0.9-3.7l20.9-18.7c1.4,1.2,3.2,1.9,5.2,1.9
				c2.4,0,4.6-1.1,6.1-2.7l19.3,13.1c-0.1,0.6-0.2,1.2-0.2,1.8c0,4.6,3.7,8.3,8.3,8.3c4.5,0,8.2-3.7,8.2-8.3c0-1.2-0.3-2.4-0.8-3.5
				l21.6-21.8c1.3,0.8,2.7,1.3,4.3,1.3c4.5,0,8.2-3.7,8.2-8.3c0-4.5-3.7-8.2-8.2-8.2c-4.6,0-8.3,3.7-8.3,8.2c0,1.5,0.4,2.8,1.1,4
				l-21.5,21.6c-1.4-1-3-1.6-4.8-1.6c-2.5,0-4.6,1.1-6.2,2.8l-19.3-13c0.1-0.6,0.2-1.2,0.2-1.9c0-4.5-3.7-8.2-8.2-8.2
				c-4.6,0-8.3,3.7-8.3,8.2c0,1.1,0.2,2.1,0.6,3L86.4,52.5c-1.3-0.9-2.9-1.4-4.6-1.4c-4.6,0-8.3,3.7-8.3,8.2
				C73.6,63.9,77.3,67.6,81.9,67.6z M182.3,14.4c2.3,0,4.2,1.9,4.2,4.2s-1.9,4.2-4.2,4.2s-4.2-1.9-4.2-4.2S180,14.4,182.3,14.4z
				 M148.8,46.7c2.3,0,4.2,1.9,4.2,4.2s-1.9,4.2-4.2,4.2s-4.2-1.9-4.2-4.2C144.6,48.6,146.5,46.7,148.8,46.7L148.8,46.7z
				 M115.3,26.4c2.3,0,4.2,1.9,4.2,4.2s-1.9,4.2-4.2,4.2c-2.3,0-4.2-1.9-4.2-4.2C111.2,28.2,113,26.4,115.3,26.4L115.3,26.4z
				 M81.9,55.1c2.3,0,4.2,1.9,4.2,4.2c0,2.3-1.9,4.2-4.2,4.2c-2.3,0-4.2-1.9-4.2-4.2C77.7,57,79.6,55.1,81.9,55.1L81.9,55.1z"/>
		</g>
	</g>
	<g>
		<path class="st9" d="M65.2,92.4h15.2V110H65.2L65.2,92.4z"/>
		<path class="st20" d="M49.9,73.6h15.2V110H49.9L49.9,73.6z"/>
		<path class="st8" d="M34.7,84.8h15.2V110H34.7V84.8z"/>
		<path class="st21" d="M34.7,112.2h45.7c1.2,0,2.1-0.9,2.1-2.1V92.4c0-1.2-1-2.1-2.1-2.1H67.3V73.6c0-1.2-0.9-2.1-2.1-2.1H49.9
			c-1.2,0-2.1,0.9-2.1,2.1v9H34.7c-1.2,0-2.1,1-2.1,2.1V110c0,0.6,0.2,1.1,0.6,1.5C33.6,111.9,34.1,112.2,34.7,112.2z M67.3,94.5h11
			v13.4h-11V94.5z M52.1,75.8h11v32.1h-11V75.8z M36.8,86.9h11v21h-11V86.9z"/>
	</g>
	<path class="st21" d="M83,145.2h27c1.2,0,2.1-1,2.1-2.1c0-1.2-0.9-2.1-2.1-2.1H83c-1.2,0-2.1,0.9-2.1,2.1
		C80.8,144.2,81.8,145.2,83,145.2z"/>
	<g>
		<path class="st21" d="M130.2,109.2h22.4c1.2,0,2.1-0.9,2.1-2.1c0-1.2-0.9-2.1-2.1-2.1h-22.4c-1.2,0-2.1,1-2.1,2.1
			C128.1,108.3,129,109.2,130.2,109.2z"/>
		<path class="st21" d="M130.2,88.7h22.4c1.2,0,2.1-1,2.1-2.1c0-1.2-0.9-2.1-2.1-2.1h-22.4c-1.2,0-2.1,0.9-2.1,2.1
			C128.1,87.7,129,88.7,130.2,88.7z"/>
		<path class="st21" d="M130.2,99h22.4c1.2,0,2.1-1,2.1-2.1c0-1.2-0.9-2.1-2.1-2.1h-22.4c-1.2,0-2.1,0.9-2.1,2.1
			C128.1,98,129,99,130.2,99z"/>
		<path class="st21" d="M117.6,88.7h3.3c1.2,0,2.1-1,2.1-2.1c0-1.2-0.9-2.1-2.1-2.1h-3.3c-1.2,0-2.1,0.9-2.1,2.1
			C115.5,87.7,116.4,88.7,117.6,88.7z"/>
		<path class="st21" d="M117.6,99h3.3c1.2,0,2.1-1,2.1-2.1c0-1.2-0.9-2.1-2.1-2.1h-3.3c-1.2,0-2.1,0.9-2.1,2.1
			C115.5,98,116.4,99,117.6,99z"/>
		<path class="st21" d="M117.6,109.2h3.3c1.2,0,2.1-0.9,2.1-2.1c0-1.2-0.9-2.1-2.1-2.1h-3.3c-1.2,0-2.1,1-2.1,2.1
			C115.5,108.3,116.4,109.2,117.6,109.2z"/>
	</g>
	<path class="st21" d="M19.3,123.8h154.3c1.4,0,2.6-1,2.6-2.3V36.2v-7v-4.7v-4.2V2.3c0-1.3-1.1-2.3-2.6-2.3H19.3
		c-1.4,0-2.6,1-2.6,2.3v21.3v0.9v4.7v4.4v87.8C16.7,122.7,17.9,123.8,19.3,123.8z M21.9,4.7H171v114.4H21.9V4.7z"/>
	<g>
		<polygon class="st22" points="151.2,68 154.7,71.5 158.9,75.5 173.6,90.3 178.1,78.4 159.5,59.9 		"/>
		<g>
			<path class="st23" d="M178.7,77.1L195.6,94c1.3,1.3,2.1,3,2.1,5c0,1.9-0.8,3.7-2.1,5c-1.3,1.3-3,2-5,2c-1.9,0-3.7-0.8-5-2.1
				L168.7,87L178.7,77.1z"/>
			<path class="st24" d="M176.3,79.4L176.3,79.4l1.4-1.4l16.9,16.9c1.1,1.1,1.7,2.5,1.7,4c0,1.5-0.6,2.9-1.7,4
				c-0.2,0.2-0.4,0.3-0.7,0.3c-0.3,0-0.5-0.1-0.7-0.3c-0.4-0.4-0.4-1,0-1.4c0.7-0.7,1.1-1.6,1.1-2.6c0-1-0.4-1.9-1.1-2.6L176.3,79.4
				z"/>
			<path class="st25" d="M168.7,87l9.9-9.9l-0.7-0.7c-0.4-0.4-1.1-0.7-1.7-0.7c-0.7,0-1.3,0.3-1.7,0.7l-6.5,6.5
				c-0.4,0.4-0.7,1.1-0.7,1.7c0,0.7,0.3,1.3,0.7,1.7L168.7,87z"/>
		</g>
		<path class="st26" d="M134,16.4c-14.4,0-26.1,11.7-26.1,26c0,14.4,11.7,26.1,26.1,26.1c14.4,0,26-11.7,26-26.1
			C160.1,28.1,148.4,16.4,134,16.4z"/>
		<path class="st25" d="M134,10.7c-17.5,0-31.8,14.2-31.8,31.8c0,17.5,14.2,31.8,31.8,31.8c17.5,0,31.8-14.2,31.8-31.8
			C165.8,24.9,151.6,10.7,134,10.7z M134,70.8c-15.6,0-28.3-12.7-28.3-28.3c0-15.6,12.7-28.3,28.3-28.3c15.6,0,28.3,12.7,28.3,28.3
			C162.3,58.1,149.7,70.8,134,70.8z"/>
		<path class="st22" d="M134,14.1c-15.6,0-28.3,12.7-28.3,28.3c0,15.6,12.7,28.3,28.3,28.3c15.6,0,28.3-12.7,28.3-28.3
			C162.3,26.8,149.7,14.1,134,14.1z M134,68.5c-14.4,0-26.1-11.7-26.1-26.1c0-14.4,11.7-26,26.1-26c14.4,0,26,11.7,26,26
			C160.1,56.8,148.4,68.5,134,68.5z"/>
		<g>
			<path class="st27" d="M134.7,20.7c-0.4-0.7-1.2-1.1-2-1c-3.6,0.2-7,1.2-10.1,3c-1.1,0.6-1.5,2-0.8,3.1c0.6,1.1,2,1.5,3.1,0.8
				c2.5-1.4,5.2-2.2,8.1-2.4c1.3-0.1,2.2-1.2,2.2-2.4C135.1,21.4,134.9,21,134.7,20.7z"/>
			<path class="st27" d="M120,28.2c-0.1-0.2-0.3-0.4-0.5-0.5c-1-0.8-2.4-0.6-3.2,0.3c-2.3,2.9-4,6.3-4.7,10
				c-0.8,4.4-0.4,8.8,1.3,12.9c0.5,1.2,1.8,1.7,3,1.3c1.2-0.5,1.7-1.8,1.3-3c-1.3-3.3-1.7-6.8-1-10.3c0.6-2.9,1.8-5.7,3.7-8
				C120.5,30.1,120.5,29,120,28.2z"/>
		</g>
	</g>
</g>
</svg>
