<svg id="Layer_1" data-name="Layer 1" xmlns="http://www.w3.org/2000/svg" viewBox="0 0 440 272"><defs><clipPath id="clip-path"><path fill="none" d="M0 0h440v272H0z"/></clipPath><style>.cls-3{fill:#c3f0fc}.cls-4{fill:#515979}.cls-5{fill:#ef7d7d}.cls-6{fill:#a6e9fa}.cls-7{fill:#d8ebfb}.cls-8{fill:#f89d81}.cls-9{fill:#ffd886}.cls-10{fill:#fbb040}.cls-11{fill:#fff}</style></defs><g clip-path="url(#clip-path)"><path class="cls-3" d="M15.72 32.11l2.04 12.88 101.33-16.04 11.11-14.97L15.72 32.11z"/><path class="cls-4" d="M119.42 31a2.1 2.1 0 01-2-3.38l13-16.46a2.1 2.1 0 113.3 2.6l-13 16.47a2.08 2.08 0 01-1.3.77z"/><path class="cls-5" transform="rotate(-9 90.069 83.67)" d="M33.41 16.43h113.26v134.52H33.41z"/><path class="cls-4" d="M135.45 8.4l21.05 132.87L44.63 159l-21-132.87L135.45 8.4m-.65-4.15L22.93 22a4.19 4.19 0 00-3.49 4.81l21 132.86a4.21 4.21 0 004.81 3.5l111.87-17.72a4.21 4.21 0 003.49-4.81l-21-132.87a4.21 4.21 0 00-4.81-3.49z"/><path class="cls-6" d="M16.27 35.57L36.94 166.1l101.33-16.05 9.25-11.71-19.09-120.53L16.27 35.57z"/><path class="cls-4" d="M128.43 17.81l19.09 120.53-9.25 11.71-101.33 16L16.27 35.57l112.16-17.76m-.66-4.15L15.61 31.42a4.21 4.21 0 00-3.5 4.81l20.68 130.53a4.2 4.2 0 004.81 3.49l101.33-16.05a4.18 4.18 0 002.64-1.55l9.25-11.71a4.16 4.16 0 00.85-3.26L132.58 17.15a4.19 4.19 0 00-4.81-3.49z"/><path class="cls-7" d="M21.8 34.7l-9.13 12.08 106.46-17.57 9.3-11.4L21.8 34.7z"/><path class="cls-4" d="M119.53 31.71a2.08 2.08 0 01-1.63-.42 2.1 2.1 0 01-.35-2.95l9.25-11.72a2.1 2.1 0 013.3 2.61l-9.25 11.71a2.08 2.08 0 01-1.32.77z"/><path class="cls-8" transform="rotate(-9 74.009 102.542)" d="M17.95 37.39h112.1v130.32H17.95z"/><path class="cls-4" d="M119.17 29.43l20.39 128.71-110.73 17.54L8.45 47l110.72-17.57m-.66-4.16L7.79 42.81a4.21 4.21 0 00-3.5 4.81l20.39 128.71a4.21 4.21 0 004.81 3.5l110.72-17.54a4.2 4.2 0 003.5-4.81L123.32 28.77a4.21 4.21 0 00-4.81-3.5z"/><path class="cls-4" d="M76.08 71.43A7.86 7.86 0 0177.45 70a9.11 9.11 0 011.6-1 8.75 8.75 0 013.91-1 8.32 8.32 0 012.1.25 7.41 7.41 0 011.93.83 7 7 0 011.59 1.24 8 8 0 011.14 1.54 1.64 1.64 0 01-1.89 2.42l-.46-.14c-.47-.15-.84-.4-1.24-.54a8.12 8.12 0 00-1.13-.32 8.54 8.54 0 00-1-.28 8.91 8.91 0 00-1 0 9.91 9.91 0 00-2.27.25c-.4.11-.82.2-1.24.34s-.89.3-1.25.37l-.54.1a1.62 1.62 0 01-1.58-2.59zM62.55 76.4h-1.31c-.43 0-.87 0-1.29.06a10.35 10.35 0 00-2.23.45c-.34.1-.63.26-1 .39s-.61.32-.9.55a9.44 9.44 0 00-.94.72c-.34.25-.61.6-1 .89l-.39.27A1.64 1.64 0 0151 78.06a8.82 8.82 0 01.6-1.82 7.92 7.92 0 011.13-1.67 7.8 7.8 0 011.58-1.39 8.87 8.87 0 011.93-.89 9.1 9.1 0 015.85.19 7.81 7.81 0 011.74.9 1.62 1.62 0 01-.71 3zM65.21 87.27a1.75 1.75 0 01-2-1.45 3.15 3.15 0 00-6.23 1 1.75 1.75 0 11-3.46.55 6.66 6.66 0 0113.15-2.08 1.75 1.75 0 01-1.46 1.98zM88.71 83.55a1.75 1.75 0 01-2-1.46 3.15 3.15 0 10-6.23 1 1.75 1.75 0 11-3.46.55 6.66 6.66 0 1113.15-2.08 1.75 1.75 0 01-1.46 1.99zM75.35 106.59A14 14 0 0087 90.56l-27.68 4.38a14 14 0 0016.03 11.65z"/><path class="cls-4" d="M87 90.56a14 14 0 11-27.68 4.38L87 90.56m-.55-3.46l-27.68 4.38a3.51 3.51 0 00-2.91 4 17.52 17.52 0 0034.62-5.35V90a3.5 3.5 0 00-4-2.91zm1.1 6.9z"/><ellipse class="cls-5" cx="74.62" cy="101.98" rx="10.42" ry="4.67" transform="rotate(-9 74.63 101.952)"/><path class="cls-4" d="M47.74 132.83a5.68 5.68 0 01-.06 2.18 4.82 4.82 0 01-.85 1.85 5 5 0 01-1.56 1.38 6.18 6.18 0 01-2.18.75l-4.11.66-1.68-10.59 4.11-.65a6.14 6.14 0 012.31 0 5.24 5.24 0 011.91.83 4.84 4.84 0 011.38 1.5 5.51 5.51 0 01.73 2.09zm-2.51.4a4.63 4.63 0 00-.43-1.39 3.11 3.11 0 00-.75-1 2.64 2.64 0 00-1-.53 3.31 3.31 0 00-1.3 0l-1.64.26 1.08 6.81 1.64-.26a3.22 3.22 0 001.22-.44 2.71 2.71 0 00.83-.82 3.25 3.25 0 00.41-1.17 4.73 4.73 0 00-.06-1.46zM52.51 137.5l-2.48.39-1.67-10.58 2.47-.39zM61.26 133.31h.18l.18.09 1.14.87a4.12 4.12 0 01-1.41 1.52 5.71 5.71 0 01-2.21.78 5.29 5.29 0 01-2.22-.07 4.72 4.72 0 01-1.8-.87 5.23 5.23 0 01-1.3-1.56 6.35 6.35 0 01-.69-2.09 6 6 0 010-2.24 5.16 5.16 0 01.81-1.89 5.05 5.05 0 011.49-1.38 5.79 5.79 0 012.08-.74 6.46 6.46 0 011.14-.07 5.47 5.47 0 011 .13 4.54 4.54 0 01.92.32 3.92 3.92 0 01.77.46l-.65 1.24a1.16 1.16 0 01-.16.21.5.5 0 01-.29.14.74.74 0 01-.26 0l-.27-.11-.32-.13a1.8 1.8 0 00-.39-.12 2.72 2.72 0 00-.53-.07 4.35 4.35 0 00-.68.05 2.85 2.85 0 00-1.08.4 2.56 2.56 0 00-.77.8 3.13 3.13 0 00-.4 1.15 5.24 5.24 0 000 1.47 4.67 4.67 0 00.45 1.41 3.3 3.3 0 00.77 1 2.7 2.7 0 002.12.57c.23 0 .43-.08.61-.13a3.25 3.25 0 00.5-.19 2.36 2.36 0 00.42-.28 3.5 3.5 0 00.37-.39.8.8 0 01.17-.15.54.54 0 01.31-.13zM70.32 125.83l-3 .47 1.37 8.64-2.46.39-1.37-8.64-3 .47-.31-2 8.45-1.28zM75.4 133.88l-2.47.39-1.68-10.59 2.47-.39zM87 126.61a5.78 5.78 0 01-.06 2.2 5.21 5.21 0 01-.84 1.89 5 5 0 01-1.55 1.42 5.83 5.83 0 01-2.18.77 6.19 6.19 0 01-2.32 0 5.26 5.26 0 01-1.92-.87 5.13 5.13 0 01-1.39-1.54 6 6 0 01-.68-4.28 5.07 5.07 0 01.85-1.89 5.21 5.21 0 011.56-1.42 6 6 0 012.18-.77 5.79 5.79 0 012.32.07 5.21 5.21 0 011.91.87 5.11 5.11 0 011.39 1.53 5.74 5.74 0 01.73 2.02zm-2.51.4a4.86 4.86 0 00-.43-1.38 3 3 0 00-.75-1 2.51 2.51 0 00-1-.53 3.64 3.64 0 00-2.53.4 2.71 2.71 0 00-.83.82 3 3 0 00-.42 1.16 4.66 4.66 0 000 1.44 4.83 4.83 0 00.43 1.39 3.12 3.12 0 00.76 1 2.43 2.43 0 001 .52 3.51 3.51 0 001.3 0 3.39 3.39 0 001.22-.43 2.48 2.48 0 00.83-.81 3 3 0 00.42-1.16 4.73 4.73 0 000-1.43zM96.85 119.63l1.68 10.58-1.28.21a1.12 1.12 0 01-.49 0 1.14 1.14 0 01-.43-.25l-6-5.53q.07.28.12.54c0 .18.07.35.09.5l.9 5.68-2.16.34-1.68-10.59 1.29-.2h.27a.68.68 0 01.21 0l.18.09a1.31 1.31 0 01.22.17l6 5.56c-.06-.2-.11-.4-.15-.59s-.07-.37-.1-.54l-.88-5.6zM110.07 128.39l-1.9.3a.86.86 0 01-.54-.07 1 1 0 01-.36-.33l-.91-1.75-4 .64-.33 1.94a.85.85 0 01-.23.41.8.8 0 01-.49.25l-1.92.3 2.43-11.23 2.51-.4zm-4.54-3.39l-1.44-2.75c-.1-.17-.21-.37-.33-.61s-.25-.49-.38-.77c0 .3-.06.59-.1.86s-.09.49-.13.69l-.52 3zM119.57 126.88l-2.22.35a1 1 0 01-1-.32l-2.25-2.8a1 1 0 00-.32-.24.92.92 0 00-.45 0l-.62.1.62 3.91-2.46.39-1.68-10.58 3.45-.55a7.22 7.22 0 012-.07 3.65 3.65 0 011.43.45 2.35 2.35 0 01.9.87 3.6 3.6 0 01.45 2.21 3.19 3.19 0 01-.27.91 3.12 3.12 0 01-.56.8 3.62 3.62 0 01-.83.65 2 2 0 01.5.23 2.67 2.67 0 01.45.38zm-6.1-4.78a2.54 2.54 0 00.83-.26 1.65 1.65 0 00.52-.45 1.2 1.2 0 00.24-.58 1.83 1.83 0 000-.66 1.36 1.36 0 00-.62-1A2.18 2.18 0 00113 119l-1 .16.5 3.13zM124.33 122l.64 4-2.46.39-.63-4-4.88-6 2.17-.35a.82.82 0 01.53.07 1.24 1.24 0 01.36.33l2 2.85.45.62c.13.2.26.39.37.58 0-.22.09-.44.15-.67s.13-.46.22-.72l1-3.32a1.13 1.13 0 01.09-.2.9.9 0 01.14-.2.83.83 0 01.21-.16.62.62 0 01.27-.09l2.18-.35z"/><path class="cls-9" transform="rotate(-9 21.383 110.866)" d="M18.61 45.72h5.61v130.32h-5.61z"/><path class="cls-4" d="M14 46.08L34.37 174.8l-5.54.88L8.45 47l5.55-.92m-.65-4.15l-5.54.88a4.21 4.21 0 00-3.5 4.81l20.37 128.71a4.21 4.21 0 004.81 3.5L35 179a4.21 4.21 0 003.49-4.81L18.13 45.43a4.2 4.2 0 00-4.8-3.5z"/><path class="cls-9" transform="rotate(-9 21.137 109.12)" d="M18.33 42.24h5.61v133.82h-5.61z"/><path class="cls-4" d="M13.43 42.62L34.37 174.8l-5.54.88L7.9 43.5l5.53-.88m-.65-4.15l-5.54.88a4.2 4.2 0 00-3.49 4.81l20.93 132.17a4.21 4.21 0 004.81 3.5L35 179a4.21 4.21 0 003.49-4.81L17.59 42a4.21 4.21 0 00-4.81-3.5z"/><path class="cls-10" transform="rotate(-9 16.27 78.373)" d="M13.45 64.34h5.61v28.03h-5.61z"/><path class="cls-4" d="M16.83 64.08l4.39 27.68-5.54.87L11.3 65l5.53-.87m-.66-4.16l-5.53.88a4.21 4.21 0 00-3.5 4.81l4.39 27.68a4.2 4.2 0 004.81 3.5l5.53-.88a4.21 4.21 0 003.5-4.81L21 63.42a4.21 4.21 0 00-4.81-3.5z"/><path class="cls-10" transform="rotate(-9 28.653 156.569)" d="M25.84 153.05h5.61v7.01h-5.61z"/><path class="cls-4" d="M30.86 152.65l1.1 6.93-5.54.87-1.09-6.92 5.53-.88m-.66-4.15l-5.53.88a4.21 4.21 0 00-3.5 4.81l1.1 6.92a4.2 4.2 0 004.81 3.49l5.54-.87a4.21 4.21 0 003.49-4.81L35 152a4.2 4.2 0 00-4.81-3.5z"/><path class="cls-10" d="M22.67 26.27l-6.4 8.1 3.46-.54 6.4-8.11-3.46.55z"/><path class="cls-4" d="M26.13 25.72l-6.4 8.11-3.46.54 6.4-8.1 3.46-.55m10-5.84l-10.66 1.69-3.47.54-1.62.26-1 1.29L13 31.77l-6.7 8.44 10.62-1.68 3.46-.53 1.62-.28 1-1.29 6.4-8.11 6.66-8.44z"/><path class="cls-9" d="M7.79 42.81l5.53-.88 12.81-16.21-5.54.87-12.8 16.22z"/><path class="cls-4" d="M26.13 25.72l-12.8 16.21-5.54.88 12.8-16.22 5.54-.87m-.66-4.16l-5.54.87A4.24 4.24 0 0017.29 24L4.49 40.2a4.21 4.21 0 004 6.76l5.51-.88a4.14 4.14 0 002.64-1.54l12.74-16.16a4.21 4.21 0 00-3.91-6.82zm1.31 8.31z"/><path class="cls-3" d="M323.37 23.59l-2.02 11.45 90.07 15.88 13.7-9.39-101.75-17.94z"/><path class="cls-4" d="M411.09 52.77a1.91 1.91 0 01-1.25-.84 1.88 1.88 0 01.57-2.59l15.73-10.1a1.87 1.87 0 112 3.15L412.43 52.5a1.94 1.94 0 01-1.34.27z"/><path class="cls-5" transform="rotate(10 371.019 88.647)" d="M320.56 28.68h100.96V148.6H320.56z"/><path class="cls-4" d="M431.17 38.35l-20.82 118.1-99.43-17.53 20.82-118.1 99.43 17.53m.65-3.69l-99.43-17.53a3.74 3.74 0 00-4.34 3l-20.82 118.1a3.74 3.74 0 003 4.34l99.43 17.53a3.75 3.75 0 004.34-3L434.86 39a3.74 3.74 0 00-3-4.34z"/><path class="cls-6" d="M322.82 26.66l-20.45 116.02 90.07 15.88 11.19-7.19 18.89-107.13-99.7-17.58z"/><path class="cls-4" d="M422.52 44.24l-18.89 107.13-11.19 7.19-90.07-15.88 20.45-116 99.7 17.58m.65-3.69L323.47 23a3.75 3.75 0 00-4.34 3l-20.45 116a3.74 3.74 0 003 4.34l90.07 15.88a3.75 3.75 0 002.67-.53l11.2-7.19a3.76 3.76 0 001.66-2.51l18.93-107.1a3.75 3.75 0 00-3-4.34z"/><path class="cls-7" d="M327.75 27.53l-11.21 7.53 94.84 16.09 11.14-6.91-94.77-16.71z"/><path class="cls-4" d="M411 53.38a1.87 1.87 0 01-.7-3.38l11.19-7.19a1.87 1.87 0 012 3.15l-11.2 7.19a1.82 1.82 0 01-1.29.23z"/><path class="cls-8" transform="rotate(10 352.075 99.864)" d="M302.08 41.79h99.93v116.17h-99.93z"/><path class="cls-4" d="M411.34 51.35l-20.17 114.4-98.42-17.35L312.93 34l98.41 17.36m.65-3.69L313.58 30.3a3.74 3.74 0 00-4.34 3l-20.18 114.45a3.75 3.75 0 003 4.34l98.42 17.35a3.74 3.74 0 004.34-3L415 52a3.74 3.74 0 00-3-4.34z"/><path class="cls-4" d="M321.13 117.77a5.09 5.09 0 01-.68 1.82 4.42 4.42 0 01-1.26 1.32 4.5 4.5 0 01-1.71.71 5.48 5.48 0 01-2.06 0l-3.66-.64 1.66-9.41 3.66.64a5.55 5.55 0 011.93.71 4.43 4.43 0 012.1 2.91 5.05 5.05 0 01.02 1.94zm-2.24-.39a4.08 4.08 0 00.05-1.29 2.84 2.84 0 00-.36-1 2.21 2.21 0 00-.72-.74 2.74 2.74 0 00-1.08-.41l-1.46-.26-1.07 6.05 1.46.26a3 3 0 001.16 0 2.26 2.26 0 00.93-.46 2.59 2.59 0 00.69-.86 4 4 0 00.4-1.29zM323.79 123.1l-2.2-.39 1.66-9.41 2.2.39zM332.38 122.1a.47.47 0 01.15.06.49.49 0 01.13.12l.71 1.07a3.85 3.85 0 01-1.63.87 5.21 5.21 0 01-2.09 0 4.94 4.94 0 01-1.86-.71 4.2 4.2 0 01-1.26-1.26 4.55 4.55 0 01-.64-1.68 5.94 5.94 0 010-2 5.62 5.62 0 01.69-1.88 4.44 4.44 0 011.23-1.35 4.37 4.37 0 011.66-.73 5 5 0 012 0 4.85 4.85 0 011 .27 4.93 4.93 0 01.83.41 4.56 4.56 0 01.68.53 4.81 4.81 0 01.52.61l-.91.86a.86.86 0 01-.2.13.44.44 0 01-.29 0 .48.48 0 01-.21-.09l-.19-.16-.23-.21a2 2 0 00-.3-.22 2.75 2.75 0 00-.42-.2 2.79 2.79 0 00-.59-.16 2.54 2.54 0 00-1 0 2.38 2.38 0 00-.88.45 2.83 2.83 0 00-.67.86 4.2 4.2 0 00-.4 1.24 3.7 3.7 0 000 1.32 2.91 2.91 0 00.37 1 2.3 2.3 0 00.69.73 2.46 2.46 0 00.93.37l.55.06a2.43 2.43 0 00.47 0 2.18 2.18 0 00.44-.11 4.41 4.41 0 00.43-.22.64.64 0 01.19-.08.4.4 0 01.1.1zM342.19 118.42l-2.65-.46-1.35 7.68-2.18-.39 1.35-7.68-2.65-.47.31-1.73 7.48 1.32zM344.14 126.68l-2.2-.38 1.66-9.41 2.2.38zM356 123.93a5 5 0 01-.68 1.83 4.69 4.69 0 01-1.26 1.36 4.83 4.83 0 01-1.72.74 5.32 5.32 0 01-2.07 0 5.2 5.2 0 01-1.93-.73 4.52 4.52 0 01-2.1-3 5.49 5.49 0 01.67-3.8 4.52 4.52 0 011.29-1.33 4.6 4.6 0 011.72-.75 5.53 5.53 0 012.07 0 5.3 5.3 0 011.93.72 4.62 4.62 0 012.09 3 5.16 5.16 0 01-.01 1.96zm-2.23-.4a4 4 0 000-1.29 2.57 2.57 0 00-.35-1 2.15 2.15 0 00-.73-.74 2.74 2.74 0 00-1.08-.41 3 3 0 00-1.16 0 2.22 2.22 0 00-.94.45 2.68 2.68 0 00-.69.85 4.23 4.23 0 00-.4 1.23 4 4 0 000 1.29 2.67 2.67 0 00.35 1 2.34 2.34 0 00.73.74 3.2 3.2 0 001.09.4 3 3 0 001.16 0 2.22 2.22 0 00.93-.44 2.84 2.84 0 00.69-.86 4.23 4.23 0 00.42-1.22zM366.35 120.9l-1.66 9.41-1.13-.2a.91.91 0 01-.7-.5l-3.45-6.39c0 .17 0 .33-.05.49s0 .31-.07.45l-.89 5-1.92-.34 1.66-9.41 1.15.2.23.06a.45.45 0 01.17.08.49.49 0 01.13.12l.13.21 3.48 6.44c0-.19 0-.37.05-.54s0-.33.07-.48l.88-5zM375 132.12l-1.7-.3a.7.7 0 01-.43-.21.92.92 0 01-.21-.39l-.26-1.74-3.58-.63-.84 1.54a.82.82 0 01-.32.29.77.77 0 01-.48.06l-1.7-.3 5.3-8.77 2.23.4zm-2.84-4.21l-.41-2.73c0-.18-.08-.38-.11-.62s-.06-.48-.09-.75a7.4 7.4 0 01-.34.69 6.07 6.07 0 01-.31.54l-1.31 2.42zM383.4 133.61l-2-.35a.86.86 0 01-.71-.55l-1.08-3a.77.77 0 00-.21-.3.75.75 0 00-.37-.15l-.55-.1-.62 3.48-2.18-.38 1.66-9.41 3.06.54a6.1 6.1 0 011.7.52 3.15 3.15 0 011.08.79 2.25 2.25 0 01.5 1 3.19 3.19 0 01-.26 2 2.65 2.65 0 01-.5.69 2.8 2.8 0 01-.7.51 3 3 0 01-.89.3 2.38 2.38 0 01.36.35 2 2 0 01.26.45zm-3.76-5.81a2.08 2.08 0 00.78 0 1.31 1.31 0 00.57-.22 1.25 1.25 0 00.37-.42 1.61 1.61 0 00.19-.56 1.2 1.2 0 00-.23-1 1.9 1.9 0 00-1.19-.57l-.88-.15-.49 2.79zM388.83 130.87l-.63 3.58-2.19-.38.64-3.58-2.39-6.43 1.93.34a.65.65 0 01.42.21 1 1 0 01.22.39l.85 3c.07.23.14.45.19.66a4.56 4.56 0 01.14.59c.1-.17.21-.35.33-.52s.25-.35.39-.55l1.81-2.5.13-.15a.94.94 0 01.18-.12.83.83 0 01.22-.08h.26l1.94.34z"/><path class="cls-9" transform="rotate(10 305.285 91.634)" d="M302.8 33.54h5v116.17h-5z"/><path class="cls-4" d="M317.85 34.86l-20.17 114.41-4.93-.87L312.93 34l4.92.87m.65-3.69l-4.92-.87a3.74 3.74 0 00-4.34 3l-20.18 114.44a3.75 3.75 0 003 4.34l4.94.91a3.75 3.75 0 004.35-3l20.19-114.49a3.74 3.74 0 00-3-4.34z"/><path class="cls-9" transform="rotate(10 305.555 90.113)" d="M303.07 30.44h5v119.3h-5z"/><path class="cls-4" d="M318.39 31.78l-20.71 117.49-4.93-.87 20.72-117.48 4.92.86m.65-3.69l-4.92-.86a3.74 3.74 0 00-4.34 3l-20.72 117.52a3.75 3.75 0 003 4.34l4.94.91a3.75 3.75 0 004.35-3l20.73-117.56a3.75 3.75 0 00-3-4.35z"/><path class="cls-10" transform="rotate(10 310.416 62.737)" d="M307.9 50.23h5v24.98h-5z"/><path class="cls-4" d="M315 50.85l-4.34 24.61-4.92-.87L310.11 50l4.92.86m.65-3.69l-4.92-.87a3.76 3.76 0 00-4.34 3l-4.34 24.61a3.74 3.74 0 003 4.34l4.92.87a3.74 3.74 0 004.34-3l4.34-24.61a3.75 3.75 0 00-3-4.34z"/><path class="cls-10" transform="rotate(10 298.125 132.226)" d="M295.64 129.1h5v6.25h-5z"/><path class="cls-4" d="M301.15 129.59l-1.09 6.15-4.92-.87 1.09-6.15 4.92.87m.65-3.7l-4.92-.86a3.75 3.75 0 00-4.35 3l-1.08 6.15a3.74 3.74 0 003 4.34l4.92.87a3.74 3.74 0 004.34-3l1.09-6.15a3.76 3.76 0 00-3-4.35z"/><path class="cls-10" d="M330.92 20.68l-7.75 4.97 3.08.54 7.75-4.97-3.08-.54z"/><path class="cls-4" d="M334 21.22l-7.75 5-3.08-.54 7.75-5 3.08.54m10.09-2l-9.44-1.66-3.08-.56-1.44-.25-1.24.79-7.74 5-8.07 5.18 9.44 1.66 3.08.54 1.44.26 1.23-.79 7.75-5 8.07-5.18z"/><path class="cls-9" d="M313.58 30.3l4.92.87 15.5-9.95-4.93-.87-15.49 9.95z"/><path class="cls-4" d="M334 21.22l-15.5 10-4.92-.87 15.49-9.95 4.93.87m.65-3.69l-4.92-.87a3.77 3.77 0 00-2.68.54l-15.5 10a3.74 3.74 0 001.38 6.75l4.92.87a3.74 3.74 0 002.67-.54L336 24.4a3.74 3.74 0 00-1.32-6.87zm-1.31 7.38zM366.53 91.49a1.21 1.21 0 01-.56-.24 5.38 5.38 0 00-4.37-.78 1.25 1.25 0 11-.78-2.37 7.91 7.91 0 016.7 1.18 1.25 1.25 0 01-1 2.21z"/><circle class="cls-4" cx="364.82" cy="85.01" r="4.37"/><circle class="cls-11" cx="365.89" cy="85.2" r="1.09"/><path class="cls-4" d="M363.6 74a5.36 5.36 0 011.2-.56 5.74 5.74 0 011.24-.29 6.44 6.44 0 012.67.22 5.56 5.56 0 012.41 1.46 4.8 4.8 0 011.27 2.37 1.28 1.28 0 01-1.94 1.36l-.26-.17a14 14 0 00-1.35-.89 6.12 6.12 0 00-1.25-.56 10.62 10.62 0 00-1.49-.34l-.85-.11a7.13 7.13 0 01-.86-.12l-.47-.13a1.23 1.23 0 01-.86-1.52 1.28 1.28 0 01.54-.72zM348.07 88.24a1.24 1.24 0 01-.55-.25 5.42 5.42 0 00-4.37-.77 1.25 1.25 0 01-.79-2.37 7.9 7.9 0 016.7 1.18 1.25 1.25 0 01-1 2.21z"/><circle class="cls-4" cx="346.36" cy="81.75" r="4.37"/><circle class="cls-11" cx="347.44" cy="81.94" r="1.09"/><path class="cls-4" d="M349.72 73.79a7.78 7.78 0 01-.85-.19l-.84-.18a9.7 9.7 0 00-1.52-.19 6.18 6.18 0 00-1.36.09 14.09 14.09 0 00-1.58.38l-.29.06a1.27 1.27 0 01-1.36-1.93 4.77 4.77 0 012-1.79 5.45 5.45 0 012.77-.55 6.5 6.5 0 012.58.7 7 7 0 011.07.7 5.53 5.53 0 01.93.94 1.23 1.23 0 01-.21 1.73 1.17 1.17 0 01-.85.26zM351.89 104.39a10 10 0 01-8.11-11.58 1.25 1.25 0 011.45-1l17.22 3a1.25 1.25 0 011 1.45 10 10 0 01-11.56 8.13z"/><path class="cls-4" d="M362.23 96.07A8.74 8.74 0 11345 93l17.22 3m.44-2.46l-17.23-3a2.5 2.5 0 00-2.89 2 11.25 11.25 0 0022.13 4 .36.36 0 010-.1 2.5 2.5 0 00-2-2.89zm-.87 4.92z"/><ellipse class="cls-5" cx="352.61" cy="100.29" rx="2.91" ry="6.5" transform="rotate(-80 352.614 100.287)"/><path class="cls-3" d="M155.89 88.78v15.81h124.35l16.13-15.81H155.89z"/><path class="cls-4" d="M280.24 107.13a2.5 2.5 0 01-1.87-.82 2.55 2.55 0 01.14-3.6l18.68-17.24a2.55 2.55 0 113.46 3.74L282 106.46a2.55 2.55 0 01-1.76.67z"/><path class="cls-5" d="M166.45 83.1h137.27v163.04H166.45z"/><path class="cls-4" d="M303.72 83.1v163H166.45v-163h137.27m0-5.1H166.45a5.1 5.1 0 00-5.1 5.1v163a5.09 5.09 0 005.1 5.09h137.27a5.09 5.09 0 005.09-5.09v-163a5.09 5.09 0 00-5.09-5.1z"/><path class="cls-6" d="M155.89 93.02v160.17h124.35l13.29-12.26V93.02H155.89z"/><path class="cls-4" d="M293.53 93v147.9l-13.29 12.27H155.89V93h137.64m0-5.09H155.89a5.09 5.09 0 00-5.1 5.09v160.19a5.1 5.1 0 005.1 5.1h124.35a5.07 5.07 0 003.45-1.35L297 244.67a5.09 5.09 0 001.64-3.75V93a5.09 5.09 0 00-5.09-5.09z"/><path class="cls-7" d="M162.68 93.02l-13.22 12.74 130.78-.85 13.29-11.89H162.68z"/><path class="cls-4" d="M280.24 108a2.5 2.5 0 01-1.87-.82 2.55 2.55 0 01.14-3.6l13.29-12.29a2.55 2.55 0 013.46 3.71L282 107.31a2.55 2.55 0 01-1.76.69z"/><path class="cls-8" d="M144.37 105.17h135.87v157.95H144.37z"/><path class="cls-4" d="M280.24 105.17v158H144.37v-158h135.87m0-5.09H144.37a5.09 5.09 0 00-5.1 5.09v158a5.1 5.1 0 005.1 5.1h135.87a5.09 5.09 0 005.09-5.1v-158a5.09 5.09 0 00-5.09-5.09z"/><path class="cls-4" d="M175.13 215.41a6.69 6.69 0 01-.49 2.6 6.07 6.07 0 01-1.36 2.06 6.32 6.32 0 01-2.13 1.36 7.62 7.62 0 01-2.76.48h-5v-13h5a7.62 7.62 0 012.76.49 6.32 6.32 0 012.13 1.36 6.12 6.12 0 011.36 2 6.71 6.71 0 01.49 2.65zm-3.09 0a5.48 5.48 0 00-.25-1.73 3.64 3.64 0 00-.71-1.32 3.17 3.17 0 00-1.15-.83 3.92 3.92 0 00-1.54-.29h-2v8.36h2a3.92 3.92 0 001.54-.29 3.3 3.3 0 001.15-.83 3.64 3.64 0 00.71-1.32 5.56 5.56 0 00.21-1.75zM179.94 221.91h-3v-13h3zM191.21 218.55a.78.78 0 01.22 0 .66.66 0 01.2.14l1.2 1.26a5 5 0 01-2 1.55 7 7 0 01-2.79.52 6.64 6.64 0 01-2.66-.51 5.63 5.63 0 01-2-1.39 6 6 0 01-1.26-2.1 7.79 7.79 0 01-.43-2.65 7.28 7.28 0 01.47-2.67 6.17 6.17 0 011.33-2.1 6.1 6.1 0 012.05-1.37 7.33 7.33 0 014-.36 7 7 0 011.2.36 5.15 5.15 0 011 .55 5.72 5.72 0 01.84.69l-1 1.36a1.25 1.25 0 01-.23.23.61.61 0 01-.38.1.66.66 0 01-.3-.07 1.87 1.87 0 01-.3-.17l-.35-.22a2.81 2.81 0 00-.46-.23 3.77 3.77 0 00-.61-.17 4.08 4.08 0 00-.83-.07 3.42 3.42 0 00-1.37.27 3.13 3.13 0 00-1.07.81 3.75 3.75 0 00-.69 1.3 5.63 5.63 0 00-.25 1.76 5.41 5.41 0 00.27 1.78 4 4 0 00.74 1.31 3.18 3.18 0 001.1.8 3.14 3.14 0 001.33.28h.75a3.15 3.15 0 00.64-.14 2.27 2.27 0 00.55-.25 2.94 2.94 0 00.52-.39 1.2 1.2 0 01.24-.15.57.57 0 01.33-.06zM203.48 211.31h-3.65v10.6h-3v-10.6h-3.65v-2.39h10.32zM208 221.91h-3v-13h3zM223.3 215.41a7.11 7.11 0 01-.48 2.63 6.36 6.36 0 01-1.37 2.1 6.29 6.29 0 01-2.13 1.41 7.72 7.72 0 01-5.52 0 6.43 6.43 0 01-2.14-1.41 6.21 6.21 0 01-1.37-2.1 7.42 7.42 0 010-5.25 6.12 6.12 0 011.37-2.1 6.41 6.41 0 012.14-1.4 7.72 7.72 0 015.52 0 6.44 6.44 0 012.13 1.41 6.26 6.26 0 011.37 2.1 7 7 0 01.48 2.61zm-3.08 0a5.48 5.48 0 00-.25-1.73 3.85 3.85 0 00-.72-1.31 3.15 3.15 0 00-1.14-.82 4.43 4.43 0 00-3.1 0 3.1 3.1 0 00-1.15.82 3.85 3.85 0 00-.72 1.31 5.48 5.48 0 00-.25 1.73 5.6 5.6 0 00.25 1.75 3.71 3.71 0 00.72 1.3 3 3 0 001.15.82 4.43 4.43 0 003.1 0 3 3 0 001.14-.82 3.71 3.71 0 00.72-1.3 5.6 5.6 0 00.25-1.75zM236.42 208.92v13h-1.57a1.25 1.25 0 01-.58-.11 1.34 1.34 0 01-.47-.38l-6.13-7.75c0 .23 0 .45.05.67s0 .42 0 .61v7h-2.66v-13H226.98a1 1 0 01.24.07.66.66 0 01.2.14 1.79 1.79 0 01.22.24l6.18 7.8c0-.25-.05-.49-.06-.73s0-.45 0-.66v-6.88zM250.59 221.91h-2.34a1 1 0 01-.63-.18 1.23 1.23 0 01-.37-.47l-.76-2.26h-4.94l-.77 2.26a1.06 1.06 0 01-.35.45 1 1 0 01-.63.2h-2.36l5-13h3.09zm-4.79-5l-1.2-3.56c-.09-.23-.19-.49-.29-.8s-.2-.64-.3-1a17.434 17.434 0 01-.57 1.8l-1.2 3.54zM262.24 221.91h-2.73a1.15 1.15 0 01-1.08-.57l-2.16-3.77a1 1 0 00-.34-.35 1.12 1.12 0 00-.54-.11h-.76v4.8h-3v-13h4.23a8.75 8.75 0 012.4.29 4.52 4.52 0 011.63.81 3.09 3.09 0 01.91 1.22 4 4 0 01.28 1.53 4.24 4.24 0 01-.16 1.2 4 4 0 01-.5 1 3.88 3.88 0 01-.82.85 4.63 4.63 0 01-1.12.62 2.53 2.53 0 01.55.37 3 3 0 01.47.54zm-6.4-6.88a3 3 0 001-.16 1.81 1.81 0 00.71-.43 1.78 1.78 0 00.4-.64 2.63 2.63 0 00.12-.8 1.68 1.68 0 00-.55-1.34 2.63 2.63 0 00-1.73-.48h-1.21V215zM268.87 217v4.94h-3V217l-4.7-8.05h2.65a.92.92 0 01.62.19 1.44 1.44 0 01.38.46l1.84 3.78.42.84c.12.26.23.51.33.76.09-.25.19-.51.3-.77s.26-.53.41-.83l1.82-3.78a2.22 2.22 0 01.15-.23 1.39 1.39 0 01.21-.21 1.06 1.06 0 01.28-.15.93.93 0 01.34-.06h2.68z"/><path class="cls-9" d="M144.37 105.17h6.79v157.95h-6.79z"/><path class="cls-4" d="M151.16 105.17v158h-6.79v-158h6.79m0-5.09h-6.79a5.09 5.09 0 00-5.1 5.09v158a5.1 5.1 0 005.1 5.1h6.79a5.1 5.1 0 005.1-5.1v-158a5.09 5.09 0 00-5.1-5.09z"/><path class="cls-9" d="M144.37 100.93h6.79v162.19h-6.79z"/><path class="cls-4" d="M151.16 100.93v162.19h-6.79V100.93h6.79m0-5.1h-6.79a5.1 5.1 0 00-5.1 5.1v162.19a5.1 5.1 0 005.1 5.1h6.79a5.1 5.1 0 005.1-5.1V100.93a5.1 5.1 0 00-5.1-5.1z"/><path class="cls-10" d="M144.37 127.25h6.79v33.97h-6.79z"/><path class="cls-4" d="M151.16 127.25v34h-6.79v-34h6.79m0-5.09h-6.79a5.09 5.09 0 00-5.1 5.09v34a5.1 5.1 0 005.1 5.1h6.79a5.1 5.1 0 005.1-5.1v-34a5.09 5.09 0 00-5.1-5.09z"/><path class="cls-10" d="M144.37 235.95h6.79v8.49h-6.79z"/><path class="cls-4" d="M151.16 236v8.49h-6.79V236h6.79m0-5.1h-6.79a5.1 5.1 0 00-5.1 5.1v8.49a5.1 5.1 0 005.1 5.1h6.79a5.1 5.1 0 005.1-5.1V236a5.1 5.1 0 00-5.1-5.1z"/><path class="cls-10" d="M165.31 83.09l-9.19 8.5h4.24l9.2-8.5h-4.25z"/><path class="cls-4" d="M169.56 83.1l-9.2 8.49h-4.24l9.19-8.49h4.25m13-5.1h-19.24l-1.46 1.35-9.2 8.49-9.58 8.84h19.27l1.47-1.35 9.2-8.49 9.57-8.84z"/><path class="cls-9" d="M144.37 100.08h6.79l18.4-16.99h-6.79l-18.4 16.99z"/><path class="cls-4" d="M169.56 83.1l-18.4 17h-6.79l18.4-17h6.79m0-5.1h-6.79a5.1 5.1 0 00-3.46 1.35l-18.4 17a5.1 5.1 0 003.46 8.84h6.79a5.1 5.1 0 003.46-1.35L173 86.9a5.1 5.1 0 00-3.4-8.9zm0 10.19zM229.71 172.65a1.64 1.64 0 01-.8-.2 7.39 7.39 0 00-6 0 1.7 1.7 0 01-1.61-3 10.78 10.78 0 019.25 0 1.69 1.69 0 01-.8 3.19z"/><circle class="cls-4" cx="225.89" cy="164.37" r="5.94"/><circle class="cls-11" cx="227.38" cy="164.37" r="1.49"/><path class="cls-4" d="M221.67 149.92a7.75 7.75 0 011.46-1 9.86 9.86 0 011.6-.68 8.89 8.89 0 013.62-.33 7.32 7.32 0 013.57 1.39 6.54 6.54 0 012.27 2.87 1.74 1.74 0 01-.93 2.27 1.71 1.71 0 01-1.35 0l-.38-.16a21.52 21.52 0 00-2-.88 9.37 9.37 0 00-1.81-.44 12.38 12.38 0 00-2.07-.1c-.38 0-.77 0-1.17.05s-.85.07-1.18 0l-.66-.06a1.68 1.68 0 01-1-2.93zM204.23 172.65a1.66 1.66 0 01-.8-.2 7.39 7.39 0 00-6 0 1.7 1.7 0 01-1.6-3 10.78 10.78 0 019.25 0 1.7 1.7 0 01.69 2.3 1.69 1.69 0 01-1.54.9z"/><circle class="cls-4" cx="200.41" cy="164.37" r="5.94"/><circle class="cls-11" cx="201.9" cy="164.37" r="1.49"/><path class="cls-4" d="M203 152.91h-1.18c-.39 0-.79 0-1.17-.05a12.38 12.38 0 00-2.07.1 9.37 9.37 0 00-1.81.44 21.46 21.46 0 00-2 .88l-.39.16a1.73 1.73 0 01-2.27-2.27 6.4 6.4 0 012.26-2.87 7.32 7.32 0 013.57-1.39 8.89 8.89 0 013.62.33 9.16 9.16 0 011.6.68 7.8 7.8 0 011.47 1 1.68 1.68 0 01.13 2.37 1.7 1.7 0 01-1.08.56zM213.46 182.22a25.43 25.43 0 01-13.08-3.62 1.7 1.7 0 011.76-2.91c6.8 4.13 16 4.14 21.93 0a1.69 1.69 0 111.93 2.81 22 22 0 01-12.54 3.72zM209.6 184.86a13 13 0 003.55.53 10.9 10.9 0 001.8-.13 8.75 8.75 0 001.74-.39 1.12 1.12 0 011.43.69 1.14 1.14 0 01-.25 1.15l-.61.64a4.65 4.65 0 01-1.95 1.16 6.38 6.38 0 01-2.16.27 6.48 6.48 0 01-1.08-.11 6.46 6.46 0 01-3-1.32l-.58-.5a1.17 1.17 0 01-.11-1.64 1.19 1.19 0 011.22-.35z"/></g></svg>