<svg id="Layer_1" data-name="Layer 1" xmlns="http://www.w3.org/2000/svg" viewBox="0 0 440 272"><defs><clipPath id="clip-path"><path fill="none" d="M0 0h440v272H0z"/></clipPath><style>.cls-3{fill:#7ddf96}.cls-4{fill:#515979}.cls-5{fill:#00c853}.cls-6{fill:#fff}.cls-7{fill:#ef7d7d}</style></defs><g clip-path="url(#clip-path)"><path class="cls-3" d="M8.84 220.83a4.46 4.46 0 01-3.23-4.07v-86.07a2.42 2.42 0 013.23-2.39c60.57 14.93 121.14-18.48 181.7-3.56a4.45 4.45 0 013.23 4.07v86.07a2.42 2.42 0 01-3.23 2.39C130 202.34 69.41 235.75 8.84 220.83z"/><path class="cls-4" d="M190.54 128v86C130 199.12 69.41 232.53 8.84 217.6v-86.07C69.41 146.46 130 113.05 190.54 128m0-6.45C130 106.59 69.41 140 8.84 125.07c-3.56-.87-6.46 1.11-6.46 4.68v86.07a9 9 0 006.46 8.23C69.41 239 130 205.57 190.54 220.5c3.57.87 6.46-1.11 6.46-4.68v-86.07a9 9 0 00-6.46-8.23z"/><path class="cls-5" d="M182.89 190.41v-42.08c-7.92-1.44-14.34-8.23-14.34-16.17-45.91-3.52-91.81 14-137.71 10.49 0 7.9-6.43 14-14.35 12.51v42.08c7.92 1.44 14.35 8.23 14.35 16.18 45.9 3.51 91.8-14 137.71-10.5 0-7.92 6.45-13.92 14.34-12.51z"/><path class="cls-3" d="M133.16 168.28c0 22.12-15 41.71-33.47 44.67s-33.47-13.41-33.47-35.66 15-41.71 33.47-44.67 33.47 13.38 33.47 35.66zM52.83 178.28c0 6.85-5.14 12.72-11.47 12.64s-11.48-6.1-11.48-13 5.14-12 11.48-11.9 11.47 5.38 11.47 12.26zM169.51 167.62c0 6.87-5.14 12-11.48 11.9s-11.48-5.35-11.48-12.23 5.14-12.71 11.48-12.64 11.48 6.1 11.48 12.97z"/><path class="cls-4" d="M105.65 176a1.61 1.61 0 01-.6-3.11 15.17 15.17 0 018.57-.45 1.61 1.61 0 11-.89 3.1 12.06 12.06 0 00-6.47.34 1.66 1.66 0 01-.61.12z"/><circle class="cls-4" cx="109.04" cy="166.96" r="6.46"/><circle class="cls-6" cx="110.65" cy="166.87" r="1.61"/><path class="cls-4" d="M84.17 177.1a1.61 1.61 0 01-.61-3.11 15 15 0 018.57-.45 1.61 1.61 0 11-.89 3.1 12.06 12.06 0 00-6.47.34 1.61 1.61 0 01-.6.12z"/><circle class="cls-4" cx="87.55" cy="168.08" r="6.46"/><circle class="cls-6" cx="89.16" cy="168" r="1.61"/><path class="cls-4" d="M104.44 152.27a8.88 8.88 0 013-1.37 10.67 10.67 0 013.3-.3 9.06 9.06 0 013.35.85 6.87 6.87 0 012.73 2.22 1.84 1.84 0 01-.41 2.58 1.82 1.82 0 01-1.3.35h-.43c-.85-.1-1.51-.26-2.22-.35s-1.38-.19-2.12-.24l-2.28-.15a21.88 21.88 0 01-2.43-.17l-.46-.07a1.83 1.83 0 01-1.5-2.1 1.78 1.78 0 01.77-1.25zM89.73 156.48a24.07 24.07 0 01-2.4.42l-2.26.38c-.72.13-1.39.32-2.08.47s-1.34.39-2.17.57l-.42.1a1.85 1.85 0 01-2-2.74 6.81 6.81 0 012.48-2.49 8.82 8.82 0 013.24-1.19 10.52 10.52 0 013.31-.05 8.75 8.75 0 013.15 1.05 1.82 1.82 0 01.71 2.48 1.78 1.78 0 01-1.11.87zM98 187.61a30.52 30.52 0 01-12.77-2.74 2.16 2.16 0 011.85-3.87c7.54 3.52 17.49 3 23.66-1.21a2.16 2.16 0 012.43 3.56A27.07 27.07 0 0198 187.61zM95.06 191.76a16.44 16.44 0 004.53.43 14.12 14.12 0 002.25-.28 10.87 10.87 0 002.18-.62 1.43 1.43 0 011.86.79 1.4 1.4 0 01-.24 1.46l-.73.86a5.87 5.87 0 01-2.39 1.6 8.2 8.2 0 01-2.72.48 7.82 7.82 0 01-1.37-.06 9.06 9.06 0 01-1.36-.26 7.16 7.16 0 01-2.54-1.16l-.75-.6a1.47 1.47 0 01-.26-2.07 1.49 1.49 0 011.54-.57z"/><path class="cls-3" d="M159.62 142.93a4.41 4.41 0 01-3.81-3.5L142.4 54.77a2.4 2.4 0 012.8-2.85c61.91 5.24 116.28-37.06 178.18-31.81a4.41 4.41 0 013.81 3.5l13.41 84.66a2.4 2.4 0 01-2.8 2.85c-61.91-5.24-116.28 37.06-178.18 31.81z"/><path class="cls-4" d="M323.89 23.28L337.3 108c-61.91-5.3-116.3 37-178.19 31.76L145.7 55.09C207.61 60.34 262 18 323.89 23.28m-1-6.35C261 11.69 206.6 54 144.7 48.74c-3.65-.3-6.18 2.1-5.62 5.61L152.49 139a9 9 0 007.63 7.1c61.88 5.25 116.28-37.05 178.18-31.8 3.65.3 6.18-2.1 5.62-5.61L330.51 24a9 9 0 00-7.63-7.1z"/><path class="cls-5" d="M326.09 85.9l-6.56-41.4c-8-.18-15.39-5.86-16.63-13.67-45.7 3.69-88.12 28.08-133.83 31.77 1.23 7.78-4.14 14.73-12.16 14.55l6.56 41.39c8 .18 15.39 5.86 16.63 13.67 45.7-3.69 88.13-28.08 133.83-31.77-1.23-7.77 4.14-14.73 12.16-14.54z"/><path class="cls-3" d="M273.72 71.88c3.45 21.75-8.24 43.36-26 49.15s-35-8-38.48-29.87 8.24-43.36 26-49.15 35.02 7.99 38.48 29.87zM196.26 94.22c1.07 6.75-3.07 13.31-9.32 14.23s-12.24-4.22-13.31-11 3.19-12.57 9.44-13.49 12.12 3.5 13.19 10.26zM309.37 65.56c1.07 6.76-3.19 12.57-9.44 13.49s-12.12-3.47-13.19-10.23 3.07-13.31 9.32-14.23 12.24 4.22 13.31 10.97z"/><path class="cls-4" d="M246.22 79.52a2.14 2.14 0 01-2.43-1.67 6.43 6.43 0 1112.58-2.67 2.14 2.14 0 11-4.19.89 2.16 2.16 0 00-2.55-1.66 2.13 2.13 0 00-1.35.93A2.15 2.15 0 00248 77a2.14 2.14 0 01-1.65 2.54zM225.26 84a2.15 2.15 0 01-2.43-1.67 6.43 6.43 0 0112.58-2.68 2.14 2.14 0 11-4.19.89 2.15 2.15 0 00-2.55-1.65 2.15 2.15 0 00-1.67 2.52 2.15 2.15 0 01-1.63 2.59zM243.37 62.19a8.63 8.63 0 012.91-1.57 10.39 10.39 0 013.25-.53 9.07 9.07 0 013.39.61 6.9 6.9 0 012.86 2 1.84 1.84 0 01-1.49 3h-.43c-.85 0-1.52-.16-2.23-.19s-1.38-.1-2.12-.1h-2.28c-.77 0-1.66.07-2.42 0h-.47a1.82 1.82 0 01-1-3.23zM229.43 68.73c-.67.38-1.51.68-2.22 1l-2.08.91c-.68.3-1.27.64-1.91 1s-1.19.7-1.95 1.08l-.39.19a1.83 1.83 0 01-2.47-.83 1.77 1.77 0 01-.12-1.33 6.83 6.83 0 011.79-3 9.07 9.07 0 012.85-1.94 10.39 10.39 0 013.19-.84 8.86 8.86 0 013.29.25 1.82 1.82 0 011.29 2.23 1.8 1.8 0 01-.86 1.11zM244.1 102.25A14.45 14.45 0 01227.7 91a1.62 1.62 0 011.24-1.91l25.24-5.36A1.61 1.61 0 01256 85a14.47 14.47 0 01-11.14 17.15c-.25.06-.51.1-.76.14z"/><path class="cls-4" d="M254.43 85.29a12.86 12.86 0 01-9.91 15.25c-.22 0-.44.09-.67.12a12.85 12.85 0 01-14.58-10l25.16-5.35m-.5-3.18h-.17l-25.15 5.34a3.19 3.19 0 00-2 1.4 3.16 3.16 0 00-.45 2.41 16.06 16.06 0 0018.22 12.54c.28 0 .56-.1.84-.16A16.09 16.09 0 00257.6 84.6a3.21 3.21 0 00-3.64-2.51z"/><ellipse class="cls-7" cx="243.63" cy="96.35" rx="9.56" ry="4.29" transform="rotate(-12 243.634 96.358)"/><path class="cls-3" d="M230.21 204.08a4.44 4.44 0 01-2.05-4.75l22.2-82.88a2.41 2.41 0 013.72-1.46c54.47 30 121.41 13.46 175.87 43.45a4.43 4.43 0 012.06 4.75l-22.2 82.88a2.42 2.42 0 01-3.73 1.46c-54.46-30-121.4-13.46-175.87-43.45z"/><path class="cls-4" d="M429.12 161.55Q418 203 406.91 244.42c-54.46-30-121.4-13.45-175.86-43.45l22.2-82.87c54.47 30 121.4 13.45 175.87 43.45m1.67-6.21c-54.47-30-121.41-13.46-175.87-43.46-3.21-1.76-6.5-.6-7.42 2.84l-22.21 82.87a9 9 0 004.09 9.59c54.47 30 121.4 13.46 175.87 43.46 3.21 1.76 6.5.6 7.42-2.84q11.1-41.43 22.21-82.87a9 9 0 00-4.09-9.59z"/><path class="cls-5" d="M405.64 219.7l10.86-40.52c-7.25-3.43-11.69-11.63-9.64-19.28-43.29-15.22-92-10.19-135.3-25.42-2 7.61-9.78 11.78-17 8.34l-10.85 40.52c7.25 3.43 11.68 11.63 9.63 19.28 43.29 15.22 92 10.19 135.3 25.42 2-7.61 9.75-11.78 17-8.34z"/><path class="cls-3" d="M363.47 185.56c-5.7 21.29-25.19 36.29-43.75 34.37s-28.77-21.55-23-43 25.19-36.29 43.76-34.37 28.73 21.58 22.99 43zM283.55 174.46c-1.77 6.6-8.23 10.92-14.31 9.21s-9.48-8.84-7.71-15.44 8-10.2 14.12-8.5 9.67 8.11 7.9 14.73zM398.63 194.29c-1.77 6.62-8 10.2-14.12 8.5s-9.66-8.11-7.89-14.73 8.23-10.92 14.31-9.21 9.47 8.84 7.7 15.44z"/><path class="cls-4" d="M335 185.85a1.58 1.58 0 01-1.18-1.35 1.61 1.61 0 011.39-1.8 15 15 0 018.37 1.78 1.61 1.61 0 01-1.65 2.76 11.87 11.87 0 00-6.32-1.34 1.55 1.55 0 01-.61-.05z"/><circle class="cls-4" cx="340.54" cy="178.05" r="6.43"/><circle class="cls-6" cx="342.11" cy="178.38" r="1.61"/><path class="cls-4" d="M314 181.39a1.58 1.58 0 01-1.2-1.39 1.61 1.61 0 011.4-1.8 15.11 15.11 0 018.36 1.78 1.61 1.61 0 01-1.65 2.76 11.87 11.87 0 00-6.32-1.34 1.55 1.55 0 01-.59-.01z"/><circle class="cls-4" cx="319.56" cy="173.59" r="6.43"/><circle class="cls-6" cx="321.13" cy="173.92" r="1.61"/><path class="cls-4" d="M339.9 162.72a9.08 9.08 0 013.27-.54 10.83 10.83 0 013.25.56 9 9 0 013 1.69 6.81 6.81 0 012.06 2.83 1.85 1.85 0 01-1.06 2.39 1.88 1.88 0 01-1.34 0l-.4-.16c-.79-.32-1.39-.64-2.05-.91s-1.28-.54-2-.78l-2.16-.73a22.92 22.92 0 01-2.29-.79l-.43-.19a1.83 1.83 0 01.13-3.37zM324.65 163a22 22 0 01-2.42-.22l-2.27-.21c-.73-.07-1.42-.05-2.12-.09s-1.39 0-2.24 0h-.43a1.85 1.85 0 01-1.76-1.93 1.79 1.79 0 01.54-1.22 6.73 6.73 0 013-1.76 9.11 9.11 0 013.43-.32 10.47 10.47 0 013.2.82 8.84 8.84 0 012.76 1.81 1.83 1.83 0 010 2.58 1.8 1.8 0 01-1.29.55zM323.19 204.38a14.46 14.46 0 01-10.4-17 1.61 1.61 0 011.9-1.24l25.31 5.38a1.67 1.67 0 01.94.68 1.61 1.61 0 01.22 1.21 14.48 14.48 0 01-17.17 11.15l-.75-.18z"/><path class="cls-4" d="M339.54 193.08a12.88 12.88 0 01-15.27 9.92l-.66-.16a12.87 12.87 0 01-9.25-15.1l25.18 5.35m.83-3.11h-.16l-25.21-5.4a3.23 3.23 0 00-3.82 2.48 16.08 16.08 0 0011.56 18.88l.83.2a16.09 16.09 0 0019.08-12.39 3.22 3.22 0 00-2.31-3.78z"/><ellipse class="cls-7" cx="325.16" cy="198.79" rx="4.29" ry="9.57" transform="rotate(-78 325.164 198.793)"/></g></svg>