<svg width="180" height="180" viewBox="0 0 180 180" fill="none" xmlns="http://www.w3.org/2000/svg">
<g clip-path="url(#clip0_596_2293)">
<path d="M25.845 56.8584L2.37207 75.7706V163.095C2.37207 171.183 8.93964 177.689 16.9667 177.689H163.034C171.122 177.689 177.629 171.122 177.629 163.095V75.7706L154.095 57.4665" fill="#87796F"/>
<path d="M152.696 2.37207H27.3037V138.163H152.696V2.37207Z" fill="#FFF2E8"/>
<path d="M113.899 139.743H64.2167L2.37207 75.7705V163.095C2.37207 171.183 8.93964 177.689 16.9667 177.689H163.034C171.122 177.689 177.629 171.122 177.629 163.095V75.7705L113.899 139.743Z" fill="#FEDA9B"/>
<path d="M14.4727 175.135L66.1618 128.189C79.7227 115.906 100.338 115.906 113.898 128.189L165.588 175.135H14.4727Z" fill="#FFB954"/>
<path d="M126.244 45.1218C130.744 40.6218 130.744 33.2637 126.244 28.7637C121.744 24.2637 114.386 24.2637 109.886 28.7637L126.244 45.1218Z" fill="#FF5D5D"/>
<path d="M88.4799 88.6625L75.0407 102.102C68.8988 108.244 58.9866 108.244 52.9055 102.102C46.8245 95.9598 46.8245 86.0476 52.9055 79.9665L66.3447 66.5273L88.4799 88.6625Z" fill="#FF5A5A"/>
<path d="M88.4799 88.7227L104.169 104.412L94.6218 113.898L78.9326 98.2091L88.4799 88.7227Z" fill="#87796F"/>
<path d="M88.4799 88.7228L66.3447 66.5269L90.6082 9.48633L145.52 64.3985L88.4799 88.7228Z" fill="#C1A897"/>
<path d="M130.865 70.6012L145.52 64.3985L90.608 9.48633L84.4053 24.1417L130.865 70.6012Z" fill="white"/>
<path d="M69.3245 24.6285C68.7164 24.6285 68.1083 24.3852 67.6826 23.9595C67.2569 23.5339 67.0137 22.9258 67.0137 22.3176C67.0137 21.7095 67.2569 21.1014 67.6826 20.6758C68.1083 20.2501 68.7164 20.0068 69.3245 20.0068C69.9326 20.0068 70.5407 20.2501 70.9664 20.6758C71.3921 21.1014 71.6353 21.7095 71.6353 22.3176C71.6353 22.9258 71.3921 23.5339 70.9664 23.9595C70.5407 24.3852 69.9326 24.6285 69.3245 24.6285Z" fill="#35414D"/>
<path d="M41.8374 24.628C40.5604 24.628 39.4658 23.5942 39.4658 22.2564C39.4658 20.9185 40.4996 19.8848 41.8374 19.8848H56.128C57.405 19.8848 58.4996 20.9185 58.4996 22.2564C58.4996 23.5942 57.4658 24.628 56.128 24.628H41.8374Z" fill="#35414D"/>
<path d="M41.8374 44.5743C40.5604 44.5743 39.4658 43.5405 39.4658 42.2027C39.4658 40.8648 40.4996 39.8311 41.8374 39.8311H58.9861C60.2631 39.8311 61.3577 40.8648 61.3577 42.2027C61.3577 43.5405 60.3239 44.5743 58.9861 44.5743H41.8374Z" fill="#35414D"/>
<path d="M16.9662 180C7.60135 180 0 172.399 0 163.034V75.7703C0 75.0405 0.304054 74.3716 0.851351 73.9459L24.3851 55.0338L24.4459 54.973L24.9324 54.6081V2.31081C24.9324 1.03378 25.9662 0 27.3041 0H70.7838C72.0608 0 73.1554 1.03378 73.1554 2.37162C73.1554 3.70946 72.1216 4.74324 70.7838 4.74324H29.6149V99.1216V99.1824V99.6689L60.2635 130.318L64.5203 126.426C71.5135 120.101 80.5135 116.574 89.9392 116.574C90.304 116.574 90.6689 116.574 91.0338 116.574L94.0743 116.635L78.8716 101.432L76.6824 103.622C73.277 107.027 68.777 108.912 63.973 108.912C59.1689 108.912 54.6689 107.027 51.2635 103.622C47.8581 100.216 45.973 95.7162 45.973 90.9122C45.973 86.1081 47.8581 81.6081 51.2635 78.2027L64.3378 65.1284L88.4189 8.51351C88.723 7.78378 89.3919 7.2973 90.1216 7.11486C90.2432 7.11486 90.4257 7.05405 90.5473 7.05405C91.1554 7.05405 91.7635 7.2973 92.1892 7.72297L110.007 25.5405L110.797 25.0541C112.986 23.7162 115.48 23.0473 118.034 23.0473C121.743 23.0473 125.27 24.5068 127.885 27.1216C130.5 29.7365 131.959 33.2635 131.959 36.973C131.959 39.527 131.23 42.0811 129.953 44.2095L129.466 45L147.162 62.6959C147.709 63.2432 147.953 64.0338 147.831 64.8243C147.709 65.6149 147.162 66.223 146.432 66.527L92.6149 89.4527L105.872 102.709C106.784 103.622 106.784 105.142 105.872 106.054L94.9865 116.939L97.2365 117.365C104.047 118.703 110.311 121.865 115.48 126.486L119.736 130.378L150.385 99.7297V99.1824V99.1216V50.8378C150.385 49.5608 151.419 48.4662 152.757 48.4662C154.095 48.4662 155.128 49.5 155.128 50.8378V55.2162L155.615 55.5811L155.676 55.6419L178.297 73.277L179.149 73.9459C179.696 74.3716 180.061 75.0405 180.061 75.7703V163.095C180.061 172.459 172.459 180.061 163.095 180.061H16.9662V180ZM17.8176 175.318H162.182L112.257 129.953C106.115 124.358 98.2095 121.318 90 121.318C81.7905 121.318 73.8851 124.419 67.7432 129.953L37.3986 157.5H58.8649C60.1419 157.5 61.2365 158.534 61.2365 159.872C61.2365 161.209 60.2027 162.243 58.8649 162.243H32.2297L17.8176 175.318ZM123.203 133.541L167.108 173.432C167.169 173.493 167.23 173.554 167.291 173.615L167.899 174.345L168.75 173.919C172.764 171.791 175.318 167.655 175.318 163.095V81.4257L123.203 133.541ZM4.68243 163.034C4.68243 167.595 7.17568 171.73 11.25 173.858L12.1014 174.284L12.7095 173.554C12.7703 173.493 12.8311 173.432 12.8919 173.372L56.7973 133.48L4.68243 81.4257V163.034ZM82.277 98.2095L94.6824 110.615L100.885 104.412L88.4797 92.0068L82.277 98.2095ZM54.5473 81.6081C52.0541 84.1013 50.6554 87.4459 50.6554 91.0338C50.6554 94.6216 52.0541 97.9054 54.5473 100.459C57.0405 102.953 60.3851 104.351 63.973 104.351C67.5608 104.351 70.8446 102.953 73.3986 100.459L85.1351 88.723L66.2838 69.8716L54.5473 81.6081ZM155.068 95.0473L174.101 76.0135L155.068 61.1149V95.0473ZM5.83784 75.9527L24.9324 95.0473V60.6284L5.83784 75.9527ZM69.0811 65.9797L89.027 85.9257L126.73 69.8716L85.1351 28.277L69.0811 65.9797ZM87.1419 23.5946L131.412 67.8649L141.385 63.6081L91.3987 13.6216L87.1419 23.5946ZM118.034 27.7297C117.061 27.7297 116.027 27.9122 115.115 28.2162L113.23 28.8243L126.182 41.777L126.791 39.8919C127.095 38.9189 127.277 37.9459 127.277 36.973C127.277 34.4797 126.304 32.1689 124.601 30.4662C122.838 28.7027 120.527 27.7297 118.034 27.7297Z" fill="#35414D"/>
<path d="M138.467 19.2167C137.859 19.2167 137.25 18.9734 136.825 18.5477C135.913 17.6356 135.913 16.1153 136.825 15.2032L151.237 0.790989C151.663 0.365314 152.271 0.12207 152.879 0.12207C153.487 0.12207 154.095 0.365314 154.521 0.790989C155.433 1.70315 155.433 3.22342 154.521 4.13558L140.109 18.5477C139.683 18.9734 139.075 19.2167 138.467 19.2167Z" fill="#FF5A5A"/>
<path d="M125.087 11.8581C123.81 11.8581 122.716 10.8243 122.716 9.48649V2.37162C122.716 1.09459 123.75 0 125.087 0C126.425 0 127.459 1.03378 127.459 2.37162V9.5473C127.398 10.8243 126.364 11.8581 125.087 11.8581Z" fill="#FF5A5A"/>
<path d="M145.581 32.2901C144.304 32.2901 143.209 31.2563 143.209 29.9185C143.209 28.5807 144.243 27.5469 145.581 27.5469H153C154.277 27.5469 155.371 28.5807 155.371 29.9185C155.371 31.2563 154.337 32.2901 153 32.2901H145.581Z" fill="#FF5A5A"/>
<path d="M73.4599 162.791C72.6694 162.791 71.9397 162.487 71.3924 161.94C70.8451 161.392 70.541 160.602 70.541 159.872C70.541 159.142 70.8451 158.352 71.3924 157.804C71.9397 157.257 72.7302 156.953 73.4599 156.953C74.2505 156.953 74.9802 157.257 75.5275 157.804C76.0748 158.352 76.3789 159.142 76.3789 159.872C76.3789 160.602 76.0748 161.392 75.5275 161.94C75.041 162.487 74.2505 162.791 73.4599 162.791Z" fill="#35414D"/>
</g>
<defs>
<clipPath id="clip0_596_2293">
<rect width="180" height="180" fill="white"/>
</clipPath>
</defs>
</svg>
