<svg xmlns="http://www.w3.org/2000/svg" viewBox="0 0 440 272"><defs><clipPath id="clip-path"><path fill="none" d="M0 0h440v272H0z"/></clipPath><style>.cls-4{fill:#fbb040}.cls-5{fill:#515979}.cls-6{opacity:.2}.cls-11,.cls-6{mix-blend-mode:color-burn}.cls-7{fill:#fff}.cls-8{fill:#b4ecfb}.cls-9{fill:#ffd886}.cls-10{fill:#ffebc2}.cls-11{opacity:.3}.cls-12{fill:#ef7d7d}</style></defs><g style="isolation:isolate"><g clip-path="url(#clip-path)" id="Layer_1" data-name="Layer 1"><path class="cls-4" d="M288.29 168.42a5.76 5.76 0 01-5.75-5.76V77.22a5.76 5.76 0 015.75-5.76h32.62a5.78 5.78 0 015 2.86l4.09 7h79.92a5.76 5.76 0 015.75 5.76v75.58a5.76 5.76 0 01-5.75 5.76z"/><path class="cls-5" d="M320.91 73.93a3.29 3.29 0 012.84 1.63l4.8 8.23h81.34a3.29 3.29 0 013.29 3.29v75.58a3.29 3.29 0 01-3.29 3.29h-121.6a3.29 3.29 0 01-3.29-3.29V77.22a3.29 3.29 0 013.29-3.29h32.62m0-4.93h-32.62a8.23 8.23 0 00-8.22 8.22v85.44a8.23 8.23 0 008.22 8.22h121.6a8.23 8.23 0 008.22-8.22V87.08a8.23 8.23 0 00-8.22-8.22h-78.51L328 73.08a8.25 8.25 0 00-7.1-4.08z"/><g class="cls-6"><path class="cls-5" d="M285 92.01h128.17v16.43H285z"/></g><rect class="cls-7" x="289.93" y="88.72" width="118.31" height="24.65" rx="1.64"/><path class="cls-5" d="M406.6 90.36v21.36h-115V90.36h115m0-3.28h-115a3.28 3.28 0 00-3.29 3.28v21.36a3.29 3.29 0 003.29 3.29h115a3.29 3.29 0 003.29-3.29V90.36a3.28 3.28 0 00-3.29-3.28z"/><path class="cls-8" d="M291.58 93.65h115.03v16.43H291.58z"/><path class="cls-9" d="M287.47 173.35a5 5 0 01-4.93-4.76l-7.86-63.66a4.92 4.92 0 014.9-5.53h139a4.92 4.92 0 014.89 5.53l-7.86 63.66a4.94 4.94 0 01-4.93 4.76z"/><path class="cls-5" d="M418.61 101.86a2.46 2.46 0 012.44 2.77l-7.87 63.79a2.47 2.47 0 01-2.47 2.46H287.47a2.47 2.47 0 01-2.47-2.46l-7.87-63.79a2.47 2.47 0 012.45-2.77h139m0-4.92h-139a7.39 7.39 0 00-7.34 8.3l7.84 63.56a7.41 7.41 0 007.39 7h123.24a7.41 7.41 0 007.39-7l7.84-63.56a7.37 7.37 0 00-7.33-8.3z"/><path class="cls-10" d="M279.58 105.15h139a2.46 2.46 0 012.21 1.4l.23-1.92a2.46 2.46 0 00-2.44-2.77h-139a2.47 2.47 0 00-2.45 2.77l.24 1.92a2.44 2.44 0 012.21-1.4z"/><g class="cls-11"><path class="cls-5" d="M411.53 166H286.65a2.46 2.46 0 01-2.1-1.18l.45 3.65a2.47 2.47 0 002.47 2.46h123.24a2.47 2.47 0 002.47-2.46l.45-3.65a2.46 2.46 0 01-2.1 1.18z"/></g><path class="cls-5" d="M356.58 117a8.25 8.25 0 011.6-1.11 9.75 9.75 0 015.71-1.06 8.51 8.51 0 012 .51c.32.13.63.31.95.46a4.5 4.5 0 01.87.57 7.25 7.25 0 012.45 3.1 1.68 1.68 0 01-2.3 2.16l-.31-.16a19.14 19.14 0 00-2.25-1.18 7.72 7.72 0 00-2.1-.58 11.71 11.71 0 00-2.4-.09c-.42 0-.87 0-1.32.11s-.95.14-1.33.14h-.51a1.65 1.65 0 01-1.65-1.63 1.63 1.63 0 01.59-1.24zM340 119.9c-.38 0-.89-.11-1.33-.14s-.9-.08-1.32-.11a11.71 11.71 0 00-2.4.09 7.72 7.72 0 00-2.1.58 19.14 19.14 0 00-2.25 1.18l-.3.15a1.67 1.67 0 01-2.3-.65 1.72 1.72 0 01-.05-1.45 7.25 7.25 0 012.45-3.1 4.28 4.28 0 01.88-.57c.31-.15.62-.33.94-.46a8.63 8.63 0 012-.51 9.75 9.75 0 015.71 1.06 8.25 8.25 0 011.6 1.11 1.64 1.64 0 01-1.08 2.88zM340.89 133.5a2.05 2.05 0 01-2.05-2.06 2.06 2.06 0 00-4.11 0 2.06 2.06 0 11-4.11 0 6.17 6.17 0 0112.33 0 2.06 2.06 0 01-2.06 2.06zM365.5 133.5a2.05 2.05 0 01-2.05-2.06 2.06 2.06 0 00-4.11 0 2.06 2.06 0 11-4.11 0 6.17 6.17 0 0112.33 0 2.06 2.06 0 01-2.06 2.06zM349.09 154.45a13.17 13.17 0 01-13.15-13.15 1.65 1.65 0 011.65-1.64h23a1.65 1.65 0 011.65 1.64 13.17 13.17 0 01-13.15 13.15z"/><path class="cls-5" d="M360.59 141.3a11.5 11.5 0 11-23 0h23m0-3.28h-23a3.28 3.28 0 00-3.29 3.28 14.79 14.79 0 0029.58.14v-.14a3.28 3.28 0 00-3.28-3.3zm0 6.57z"/><ellipse class="cls-12" cx="349.09" cy="148.97" rx="8.56" ry="3.83"/><path class="cls-4" d="M26.46 129.2a4.75 4.75 0 01-4.74-4.74V54a4.75 4.75 0 014.74-4.74h26.9a4.74 4.74 0 014.09 2.35l3.37 5.78h65.9a4.74 4.74 0 014.74 4.74v62.32a4.75 4.75 0 01-4.74 4.74z"/><path class="cls-5" d="M53.36 51.3a2.71 2.71 0 012.34 1.35l4 6.78h67.06a2.71 2.71 0 012.71 2.71v62.32a2.71 2.71 0 01-2.71 2.71H26.46a2.71 2.71 0 01-2.71-2.71V54a2.71 2.71 0 012.71-2.71h26.9m0-4.06h-26.9A6.78 6.78 0 0019.69 54v70.45a6.78 6.78 0 006.77 6.77h100.26a6.78 6.78 0 006.77-6.77V62.14a6.78 6.78 0 00-6.77-6.77H62l-2.79-4.77a6.78 6.78 0 00-5.85-3.36z"/><g class="cls-6"><path class="cls-5" d="M23.75 66.2h105.67v13.55H23.75z"/></g><rect class="cls-7" x="27.82" y="63.49" width="97.55" height="20.32" rx="1.35"/><path class="cls-5" d="M124 64.85v17.61H29.17V64.85H124m0-2.71H29.17a2.71 2.71 0 00-2.71 2.71v17.61a2.71 2.71 0 002.71 2.71H124a2.71 2.71 0 002.71-2.71V64.85a2.71 2.71 0 00-2.71-2.71z"/><path class="cls-8" d="M29.17 67.56h94.84v13.55H29.17z"/><path class="cls-9" d="M25.79 133.27a4.08 4.08 0 01-4.07-3.92l-6.48-52.49a4.06 4.06 0 014-4.56H133.9a4.06 4.06 0 014 4.56l-6.48 52.49a4.08 4.08 0 01-4.06 3.92z"/><path class="cls-5" d="M133.9 74.33a2 2 0 012 2.28l-6.49 52.59a2 2 0 01-2 2H25.79a2 2 0 01-2-2l-6.53-52.59a2 2 0 012-2.28H133.9m0-4.06H19.28a6.09 6.09 0 00-6.05 6.84l6.47 52.41a6.1 6.1 0 006.09 5.78H127.4a6.1 6.1 0 006.08-5.78L140 77.11a6.09 6.09 0 00-6-6.84z"/><path class="cls-10" d="M19.28 77H133.9a2 2 0 011.83 1.15l.19-1.58a2 2 0 00-2-2.28H19.28a2 2 0 00-2 2.28l.2 1.58a2 2 0 011.8-1.15z"/><g class="cls-11"><path class="cls-5" d="M128.07 127.17h-103a2 2 0 01-1.73-1l.37 3a2 2 0 002 2H127.4a2 2 0 002-2l.37-3a2 2 0 01-1.7 1z"/></g><path class="cls-5" d="M89.8 104.54a1.32 1.32 0 01-.64-.16 5.87 5.87 0 00-4.82 0 1.34 1.34 0 01-1.83-.55 1.36 1.36 0 01.55-1.84 8.66 8.66 0 017.38 0 1.36 1.36 0 01-.64 2.55z"/><circle class="cls-5" cx="86.75" cy="97.94" r="4.74"/><circle class="cls-7" cx="87.94" cy="97.94" r="1.19"/><path class="cls-5" d="M83.38 86.41a6.33 6.33 0 011.17-.83 7.68 7.68 0 011.28-.58 7.07 7.07 0 012.88-.26 5.82 5.82 0 012.85 1.1 5.18 5.18 0 011.81 2.29 1.39 1.39 0 01-.74 1.87 1.37 1.37 0 01-1.07 0l-.31-.13a16.12 16.12 0 00-1.61-.7 6.46 6.46 0 00-1.44-.36 10.93 10.93 0 00-1.66-.08h-.93c-.32 0-.67.06-.94 0l-.53-.06a1.34 1.34 0 01-1.2-1.46 1.38 1.38 0 01.44-.8zM69.48 104.54a1.32 1.32 0 01-.64-.16 5.87 5.87 0 00-4.82 0 1.34 1.34 0 01-1.83-.55 1.36 1.36 0 01.55-1.84 8.66 8.66 0 017.38 0 1.36 1.36 0 01-.64 2.55z"/><circle class="cls-5" cx="66.43" cy="97.94" r="4.74"/><circle class="cls-7" cx="67.61" cy="97.94" r="1.19"/><path class="cls-5" d="M68.51 88.8h-1.87a10.93 10.93 0 00-1.64 0 6.46 6.46 0 00-1.44.36 16.12 16.12 0 00-1.61.7l-.3.13a1.39 1.39 0 01-1.82-1.82 5.25 5.25 0 011.81-2.29 5.82 5.82 0 012.85-1.1 7.14 7.14 0 012.89.26 7.94 7.94 0 011.27.54 6.33 6.33 0 011.17.83 1.34 1.34 0 01.11 1.89 1.36 1.36 0 01-.87.44zM76.84 112.18a20.33 20.33 0 01-10.44-2.89 1.36 1.36 0 011.41-2.29c5.42 3.29 12.78 3.3 17.49 0a1.35 1.35 0 111.55 2.22 17.51 17.51 0 01-10.01 2.96zM73.76 114.29a10.89 10.89 0 002.83.42 9.73 9.73 0 001.41-.11 7.35 7.35 0 001.39-.31.9.9 0 011.14.55.86.86 0 01-.2.91l-.48.52a3.72 3.72 0 01-1.56.93 5.28 5.28 0 01-1.72.21 6.66 6.66 0 01-1.71-.29 4.59 4.59 0 01-1.56-.85l-.45-.4a.93.93 0 01.89-1.58z"/><path class="cls-4" d="M131 214.25a7.78 7.78 0 01-7.77-7.77V91a7.77 7.77 0 017.77-7.74h44a7.81 7.81 0 016.71 3.85l5.52 9.47h108a7.78 7.78 0 017.77 7.77v102.13a7.78 7.78 0 01-7.77 7.77z"/><path class="cls-5" d="M175 86.59a4.43 4.43 0 013.83 2.2l6.49 11.12h109.9a4.44 4.44 0 014.44 4.44v102.13a4.44 4.44 0 01-4.44 4.44H131a4.44 4.44 0 01-4.44-4.44V91a4.44 4.44 0 014.44-4.41h44m0-6.66h-44A11.11 11.11 0 00119.85 91v115.48a11.11 11.11 0 0011.1 11.1h164.29a11.11 11.11 0 0011.1-11.1V104.35a11.11 11.11 0 00-11.1-11.1H189.16l-4.55-7.81a11.15 11.15 0 00-9.61-5.51z"/><g class="cls-6"><path class="cls-5" d="M126.51 111.01h173.17v22.2H126.51z"/></g><rect class="cls-7" x="133.17" y="106.57" width="159.85" height="33.3" rx="2.22"/><path class="cls-5" d="M290.79 108.79v28.86h-155.4v-28.86h155.4m0-4.44h-155.4a4.44 4.44 0 00-4.44 4.44v28.86a4.44 4.44 0 004.44 4.44h155.4a4.44 4.44 0 004.45-4.44v-28.86a4.44 4.44 0 00-4.45-4.44z"/><path class="cls-8" d="M135.39 113.23H290.8v22.2H135.39z"/><path class="cls-9" d="M129.84 220.91a6.67 6.67 0 01-6.66-6.43l-10.62-86a6.66 6.66 0 016.61-7.48H307a6.66 6.66 0 016.61 7.48l-10.62 86a6.66 6.66 0 01-6.65 6.43z"/><path class="cls-5" d="M307 124.33a3.32 3.32 0 013.3 3.74l-10.63 86.18a3.34 3.34 0 01-3.33 3.33h-166.5a3.33 3.33 0 01-3.33-3.33l-10.64-86.18a3.32 3.32 0 013.3-3.74H307m0-6.66H119.17a10 10 0 00-9.91 11.22l10.6 85.87a10 10 0 0010 9.48h166.49a10 10 0 0010-9.48l10.6-85.87a10 10 0 00-9.95-11.22z"/><path class="cls-10" d="M119.17 128.77H307a3.29 3.29 0 013 1.89l.32-2.59a3.32 3.32 0 00-3.3-3.74H119.17a3.32 3.32 0 00-3.3 3.74l.32 2.59a3.29 3.29 0 012.98-1.89z"/><g class="cls-11"><path class="cls-5" d="M297.46 210.92H128.73a3.31 3.31 0 01-2.83-1.59l.61 4.92a3.33 3.33 0 003.33 3.33h166.51a3.34 3.34 0 003.33-3.33l.6-4.92a3.31 3.31 0 01-2.82 1.59z"/></g><path class="cls-5" d="M234.73 169.4a2.18 2.18 0 01-1-.27 9.61 9.61 0 00-7.89 0 2.22 2.22 0 11-2.1-3.91 14.07 14.07 0 0112.09 0 2.22 2.22 0 01-1.06 4.18z"/><circle class="cls-5" cx="229.74" cy="158.57" r="7.77"/><circle class="cls-7" cx="231.68" cy="158.57" r="1.94"/><path class="cls-5" d="M224.22 139.69a10.11 10.11 0 011.91-1.36 11.73 11.73 0 012.09-.89A11.5 11.5 0 01233 137a9.54 9.54 0 014.67 1.81 8.57 8.57 0 013 3.75 2.28 2.28 0 01-3 3l-.51-.22a27 27 0 00-2.64-1.14 10.6 10.6 0 00-2.36-.59 16.57 16.57 0 00-2.71-.13c-.49 0-1 0-1.52.06a14.09 14.09 0 01-1.55.06l-.87-.08a2.2 2.2 0 01-2-2.4 2.17 2.17 0 01.71-1.43zM201.43 169.4a2.25 2.25 0 01-1.05-.27 9.61 9.61 0 00-7.89 0 2.22 2.22 0 01-2.1-3.91 14.07 14.07 0 0112.09 0 2.22 2.22 0 01-1 4.18z"/><circle class="cls-5" cx="196.44" cy="158.57" r="7.77"/><circle class="cls-7" cx="198.38" cy="158.57" r="1.94"/><path class="cls-5" d="M199.85 143.59a14.09 14.09 0 01-1.55-.06c-.52 0-1-.05-1.52-.06a16.63 16.63 0 00-2.71.13 11.15 11.15 0 00-2.36.58c-.82.24-1.59.71-2.64 1.15l-.5.21a2.27 2.27 0 01-3-1.21 2.33 2.33 0 010-1.76 8.57 8.57 0 013-3.75 9.58 9.58 0 014.67-1.81 11.5 11.5 0 014.74.43 11.73 11.73 0 012.09.89 9.8 9.8 0 011.91 1.36 2.21 2.21 0 01.18 3.1 2.25 2.25 0 01-1.42.72zM213.09 196.48a17.78 17.78 0 01-17.76-17.76 2.22 2.22 0 012.22-2.22h31.08a2.22 2.22 0 012.22 2.22 17.78 17.78 0 01-17.76 17.76z"/><path class="cls-5" d="M228.63 178.72a15.54 15.54 0 01-31.08 0h31.08m0-4.44h-31.08a4.44 4.44 0 00-4.44 4.44 20 20 0 0040 .18v-.18a4.43 4.43 0 00-4.43-4.44zm0 8.88z"/><ellipse class="cls-12" cx="213.09" cy="189.08" rx="11.56" ry="5.18"/></g></g></svg>