<svg version="1.1" id="Layer_1" xmlns="http://www.w3.org/2000/svg" x="0" y="0" viewBox="0 0 212 211" xml:space="preserve"><style>.st0{fill:#fff}.st1{fill:#515979}.st3{fill:#fde1d9}.st4{fill:#f89d81}.st5{fill:#c7bcff}.st6{fill:#ef7d7d}</style><path class="st0" d="M12.7 196.9c-3.8 0-6.9-3.1-6.9-6.9V11.9C5.8 8.1 8.9 5 12.7 5h119.5c.8 0 1.5.3 2.1.9l23.5 23.5c.6.6.9 1.3.9 2.1v158.6c0 3.8-3.1 6.9-6.9 6.9H12.7z"/><path class="st1" d="M132.2 8l23.5 23.5v158.6c0 2.2-1.8 3.9-3.9 3.9h-139c-2.2 0-3.9-1.8-3.9-3.9V11.9c0-2.2 1.8-3.9 3.9-3.9h119.4m0-5.9H12.7c-5.4 0-9.8 4.4-9.8 9.8v178.2c0 5.4 4.4 9.8 9.8 9.8h139c5.4 0 9.8-4.4 9.8-9.8V31.5c0-1.6-.6-3.1-1.7-4.2L136.3 3.8c-1.1-1.1-2.6-1.7-4.1-1.7z"/><path d="M136.9 34.4c-4.2 0-7.6-3.4-7.6-7.6V8c0-1.2.7-2.3 1.8-2.7.4-.2.7-.2 1.1-.2.8 0 1.5.3 2.1.9l23.5 23.5c.8.8 1.1 2.1.6 3.2-.5 1.1-1.5 1.8-2.7 1.8h-18.8z" fill="#d8ebfb"/><path class="st1" d="M132.2 8l23.5 23.5h-18.8c-2.6 0-4.7-2.1-4.7-4.7V8m0-5.9c-.8 0-1.5.1-2.2.4-2.2.9-3.6 3.1-3.6 5.4v18.8c0 5.8 4.7 10.6 10.6 10.6h18.8c2.4 0 4.5-1.4 5.4-3.6.9-2.2.4-4.7-1.3-6.4L136.3 3.8c-1.1-1.1-2.6-1.7-4.1-1.7zM103.3 60.4c-.3 0-.6-.1-.9-.2-1.9-1-5.1-1-7 0-1 .5-2.1.2-2.7-.8-.5-1-.2-2.1.8-2.7 3-1.6 7.7-1.6 10.7 0 1 .5 1.3 1.7.8 2.7-.4.7-1 1-1.7 1z"/><circle class="st1" cx="98.9" cy="49.9" r="7.8"/><circle class="st0" cx="100.8" cy="49.9" r="2"/><path class="st1" d="M93.1 33.9c.7-.6 1.2-.9 1.9-1.3.7-.3 1.3-.6 2.1-.8 1.4-.4 3-.6 4.7-.4.4.1.8.1 1.2.2.4.1.8.2 1.2.4.4.1.8.4 1.1.5.4.2.7.4 1 .7 1.4.9 2.3 2.2 3 3.6.5 1 0 2.2-1 2.6-.6.3-1.2.2-1.7 0l-.4-.2c-1-.5-1.8-1-2.7-1.3-.8-.3-1.6-.5-2.5-.7-.9-.1-1.8-.2-2.9-.1-.5 0-1 .1-1.6.1-.5 0-1.1.1-1.6.1h-.6c-1.1 0-2-.9-1.9-2 0-.5.3-1 .7-1.4zM70 60.4c-.3 0-.6-.1-.9-.2-1.9-1-5.1-1-7 0-1 .5-2.1.2-2.7-.8-.5-1-.2-2.1.8-2.7 3-1.6 7.7-1.6 10.7 0 1 .5 1.3 1.7.8 2.7-.4.7-1 1-1.7 1z"/><circle class="st1" cx="65.6" cy="49.9" r="7.8"/><circle class="st0" cx="67.5" cy="49.9" r="2"/><path class="st1" d="M69.4 37.4c-.5 0-1.1-.1-1.6-.1-.5-.1-1.1-.1-1.6-.1-1 0-2 0-2.9.1-.9.1-1.7.3-2.5.7-.9.3-1.7.8-2.7 1.3l-.4.2c-1 .5-2.2.1-2.7-.9-.3-.6-.3-1.2 0-1.7.6-1.4 1.6-2.7 3-3.6.3-.3.7-.5 1-.7.4-.2.7-.4 1.1-.5.4-.1.8-.3 1.2-.4.4-.1.8-.2 1.2-.2 1.6-.2 3.2 0 4.7.4.7.2 1.4.5 2.1.8.7.4 1.2.7 1.9 1.3.8.7.9 1.9.2 2.8-.4.4-.9.7-1.5.7l-.5-.1z"/><circle class="st3" cx="42.1" cy="57.4" r="2.4"/><circle class="st3" cx="47.5" cy="68.2" r="2.4"/><circle class="st3" cx="36.7" cy="68.2" r="2.4"/><circle class="st3" cx="122.4" cy="57.4" r="2.4"/><circle class="st3" cx="127.7" cy="68.2" r="2.4"/><circle class="st3" cx="117" cy="68.2" r="2.4"/><path class="st1" d="M89.1 124c-.7 0-1.3-.3-1.8-.8l-12.7-13.7c-.9-1-.9-2.5.1-3.5 1-.9 2.5-.9 3.5.1l12.7 13.7c.9 1 .9 2.5-.1 3.5-.5.5-1.1.7-1.7.7z"/><path class="st1" d="M75.4 124c-.6 0-1.3-.2-1.7-.7-1-1-1-2.5 0-3.5l13.7-13.7c1-1 2.5-1 3.5 0s1 2.5 0 3.5l-13.7 13.7c-.6.5-1.2.7-1.8.7zM65.6 126.9c-.6 0-1.3-.2-1.7-.7l-13.7-13.7c-1-1-1-2.5 0-3.5s2.5-1 3.5 0l13.7 13.7c1 1 1 2.5 0 3.5-.6.5-1.2.7-1.8.7z"/><path class="st1" d="M52.8 126.9c-.6 0-1.2-.2-1.7-.7-1-.9-1-2.5-.1-3.5L63.7 109c.9-1 2.5-1 3.5-.1s1 2.5.1 3.5l-12.7 13.7c-.4.6-1.1.8-1.8.8zM43.4 96.9c-.4 0-.8-.1-1.2-.3l-15.5-9.1c-1.2-.7-1.6-2.2-.9-3.3.7-1.2 2.2-1.6 3.3-.9l15.5 9.1c1.2.7 1.6 2.2.9 3.3-.5.7-1.3 1.2-2.1 1.2z"/><path class="st1" d="M31.3 101c-.4 0-.8-.1-1.2-.3-1.2-.7-1.6-2.2-.9-3.3L39 80.6c.7-1.2 2.2-1.6 3.3-.9 1.2.7 1.6 2.2.9 3.3l-9.8 16.7c-.5.9-1.3 1.3-2.1 1.3zM135 97.1c-.6 0-1.1-.2-1.6-.6l-13.6-11.8c-1-.9-1.1-2.4-.2-3.5.9-1 2.4-1.1 3.5-.2l13.6 11.8c1 .9 1.1 2.4.2 3.5-.6.6-1.2.8-1.9.8z"/><path class="st1" d="M121.3 98.1c-.6 0-1.1-.2-1.6-.6-1-.9-1.1-2.4-.2-3.5l12.7-14.6c.9-1 2.4-1.1 3.5-.2 1 .9 1.1 2.4.2 3.5l-12.7 14.6c-.5.5-1.2.8-1.9.8z"/><g><path class="st1" d="M111.6 126c-.7 0-1.3-.3-1.8-.8l-12.7-13.7c-.9-1-.9-2.5.1-3.5 1-.9 2.5-.9 3.5.1l12.7 13.7c.9 1 .9 2.5-.1 3.5-.5.4-1.1.7-1.7.7z"/><path class="st1" d="M98.9 126c-.6 0-1.3-.2-1.7-.7-1-1-1-2.5 0-3.5l13.7-13.7c1-1 2.5-1 3.5 0s1 2.5 0 3.5l-13.7 13.7c-.6.4-1.2.7-1.8.7z"/></g><g><path class="st1" d="M97.9 151.4c-5.7 0-10.3-4.6-10.3-10.3 0-5.7 4.6-10.3 10.3-10.3 5.7 0 10.3 4.6 10.3 10.3 0 5.7-4.6 10.3-10.3 10.3zm0-15.7c-3 0-5.4 2.4-5.4 5.4 0 3 2.4 5.4 5.4 5.4s5.4-2.4 5.4-5.4c0-2.9-2.4-5.4-5.4-5.4z"/></g><g><path class="st1" d="M85.2 185.7c-5.7 0-10.3-4.6-10.3-10.3 0-5.7 4.6-10.3 10.3-10.3 5.7 0 10.3 4.6 10.3 10.3-.1 5.7-4.7 10.3-10.3 10.3zm0-15.7c-3 0-5.4 2.4-5.4 5.4 0 3 2.4 5.4 5.4 5.4 3 0 5.4-2.4 5.4-5.4-.1-3-2.5-5.4-5.4-5.4z"/></g><g><path class="st1" d="M71.4 150.4c-5.7 0-10.3-4.6-10.3-10.3 0-5.7 4.6-10.3 10.3-10.3s10.3 4.6 10.3 10.3c0 5.7-4.6 10.3-10.3 10.3zm0-15.6c-3 0-5.4 2.4-5.4 5.4 0 3 2.4 5.4 5.4 5.4 3 0 5.4-2.4 5.4-5.4 0-3-2.4-5.4-5.4-5.4z"/></g><g><path class="st1" d="M129.2 152.4c-5.7 0-10.3-4.6-10.3-10.3 0-5.7 4.6-10.3 10.3-10.3 5.7 0 10.3 4.6 10.3 10.3 0 5.7-4.6 10.3-10.3 10.3zm0-15.7c-3 0-5.4 2.4-5.4 5.4 0 3 2.4 5.4 5.4 5.4 3 0 5.4-2.4 5.4-5.4 0-3-2.4-5.4-5.4-5.4z"/></g><g><path class="st1" d="M45 154.4c-5.7 0-10.3-4.6-10.3-10.3 0-5.7 4.6-10.3 10.3-10.3s10.3 4.6 10.3 10.3c0 5.6-4.6 10.3-10.3 10.3zm0-15.7c-3 0-5.4 2.4-5.4 5.4 0 3 2.4 5.4 5.4 5.4s5.4-2.4 5.4-5.4c0-3-2.4-5.4-5.4-5.4z"/></g><g><path class="st1" d="M55.8 179.8c-5.7 0-10.3-4.6-10.3-10.3s4.6-10.3 10.3-10.3 10.3 4.6 10.3 10.3-4.7 10.3-10.3 10.3zm0-15.7c-3 0-5.4 2.4-5.4 5.4s2.4 5.4 5.4 5.4 5.4-2.4 5.4-5.4-2.5-5.4-5.4-5.4z"/></g><g><path class="st4" d="M44.4 130.1c-1.1 0-2.1-.8-2.4-1.9l-5-23c-.3-1.3.5-2.6 1.9-2.9 1.3-.3 2.6.5 2.9 1.9l5 23c.3 1.3-.5 2.6-1.9 2.9h-.5z"/><path class="st4" d="M32.6 108.6c-1.1 0-2.1-.8-2.4-1.9-.3-1.3.5-2.6 1.9-2.9l13.4-2.9c1.3-.3 2.6.5 2.9 1.9.3 1.3-.5 2.6-1.9 2.9l-13.4 2.9h-.5z"/></g><g><path class="st4" d="M129.5 128.8c-1.3 0-2.4-1-2.4-2.3l-1-23.5c-.1-1.4 1-2.5 2.3-2.6 1.3 0 2.5 1 2.6 2.3l1 23.5c.1 1.4-1 2.5-2.3 2.6h-.2z"/><path class="st4" d="M121.6 105.6c-1.3 0-2.4-1-2.4-2.3-.1-1.4 1-2.5 2.3-2.6l13.7-.6c1.3 0 2.5 1 2.6 2.3.1 1.4-1 2.5-2.3 2.6l-13.7.6h-.2z"/></g><g><path class="st5" d="M39.6 168.4c-.3 0-.7-.1-1-.2l-1.2-.5c-7.8-3.5-20.8-9.3-22.5-20.6-1.2-8.5 4.2-17.8 16.6-28.5 1-.9 2.6-.8 3.5.3.9 1 .8 2.6-.3 3.5-10.9 9.4-16 17.5-15 24.1 1.3 8.6 12.8 13.8 19.6 16.8l1.2.5c1.2.6 1.8 2 1.2 3.2-.3.9-1.1 1.4-2.1 1.4z"/><path class="st5" d="M32.7 134.4h-.1c-1.4-.1-2.4-1.2-2.3-2.6l.4-8.7-9.6.6c-1.4.1-2.5-.9-2.6-2.3-.1-1.3.9-2.5 2.3-2.6L33 118c.7 0 1.4.2 1.9.7.5.5.8 1.2.7 1.9l-.5 11.4c0 1.3-1.1 2.4-2.4 2.4z"/></g><g><path class="st1" d="M82.2 88.7c-11.1 0-20.1-9-20.1-20.1 0-1.4 1.1-2.4 2.4-2.4h35.3c1.4 0 2.4 1.1 2.4 2.4.1 11.1-8.9 20.1-20 20.1z"/><path class="st1" d="M99.8 68.7c0 9.7-7.9 17.6-17.6 17.6s-17.6-7.9-17.6-17.6h35.2m0-4.9H64.6c-2.7 0-4.9 2.2-4.9 4.9 0 12.4 10.1 22.5 22.5 22.5s22.4-10 22.5-22.3v-.2c0-2.7-2.2-4.9-4.9-4.9zm0 9.8z"/><g><ellipse class="st6" cx="82.2" cy="80.4" rx="13.1" ry="5.9"/></g></g><g><path class="st5" d="M119.8 167.3h-.1c-1.3-.1-2.4-1.2-2.3-2.6l.5-8.7-9.6.5c-1.4.1-2.5-1-2.6-2.3-.1-1.4 1-2.5 2.3-2.6l12.3-.7c.7 0 1.4.2 1.9.7.5.5.8 1.2.7 1.9l-.6 11.5c-.1 1.3-1.2 2.3-2.5 2.3z"/><path class="st5" d="M99.8 171.6c-1 0-1.9-.6-2.3-1.5-.5-1.2.1-2.7 1.3-3.2.1 0 10.8-4.5 19.8-15.1.9-1 2.4-1.2 3.5-.3 1 .9 1.2 2.4.3 3.5-9.8 11.5-21.2 16.3-21.6 16.5-.4.1-.7.1-1 .1z"/></g><g><path d="M108.5 206.6c-.6 0-1.3-.2-1.7-.7-.7-.7-.9-1.8-.5-2.7l7.6-17.3c.3-.7 1-1.3 1.8-1.4h.5c.6 0 1.3.3 1.7.7l9.7 9.7c.6.6.8 1.4.7 2.2-.1.8-.7 1.5-1.4 1.8l-17.3 7.6c-.5 0-.8.1-1.1.1z" fill="#ffebeb"/><path class="st1" d="M116.1 186.8l9.7 9.7-17.3 7.6 7.6-17.3m0-4.9c-.3 0-.6 0-.9.1-1.6.3-2.9 1.4-3.6 2.8l-7.6 17.3c-.8 1.8-.4 4 1 5.4.9.9 2.2 1.4 3.5 1.4.7 0 1.3-.1 2-.4l17.3-7.6c1.5-.7 2.5-2 2.8-3.6.3-1.6-.2-3.2-1.4-4.4l-9.7-9.7c-.9-.8-2.1-1.3-3.4-1.3z"/><path class="st1" d="M108.5 204.1l2.1-6.2 4.1 4.2z"/><path d="M125.8 199c-.6 0-1.3-.2-1.7-.7l-9.7-9.7c-1-1-1-2.5 0-3.5l58.9-58.9c.5-.5 1.1-.7 1.7-.7.6 0 1.3.2 1.7.7l9.7 9.7c1 1 1 2.5 0 3.5l-58.9 58.9c-.5.4-1.1.7-1.7.7z" fill="#ffd886"/><path class="st1" d="M174.9 128l9.7 9.7-58.9 58.9-9.7-9.7 58.9-58.9m0-4.9c-1.3 0-2.5.5-3.5 1.4l-58.9 58.9c-1.9 1.9-1.9 5 0 6.9l9.7 9.7c.9.9 2.2 1.4 3.5 1.4s2.5-.5 3.5-1.4l58.9-58.9c1.9-1.9 1.9-5 0-6.9l-9.7-9.7c-.9-.9-2.2-1.4-3.5-1.4z"/><path transform="rotate(45.001 152.792 164.672)" fill="#fbb040" d="M149.4 123.1h6.9v83.2h-6.9z"/><path transform="rotate(-45.001 186.023 126.594)" fill="#75a5c3" d="M179.7 117.3h12.7v18.6h-12.7z"/><path class="st1" d="M183.9 119l9.7 9.7-5.5 5.5-9.7-9.7 5.5-5.5m0-6.9l-3.5 3.5-5.5 5.5-3.5 3.5 3.5 3.5 9.7 9.7 3.5 3.5 3.5-3.5 5.5-5.5 3.5-3.5-3.5-3.5-9.7-9.7-3.5-3.5z"/><g><path class="st6" d="M184.6 115.5l6.2-6.2c.9-.9 2.2-1.4 3.5-1.4 1.3 0 2.5.5 3.5 1.4l5.5 5.5c1.9 1.9 1.9 5 0 6.9l-6.2 6.2-12.5-12.4z"/><path class="st1" d="M194.3 110.8c.5 0 1 .2 1.4.6l5.5 5.5c.8.8.8 2 0 2.8l-4.2 4.2-8.3-8.3 4.2-4.2c.4-.4.9-.6 1.4-.6m0-5.9c-2.1 0-4.1.8-5.5 2.3l-4.2 4.2-4.2 4.2 4.2 4.2 8.3 8.3 4.2 4.2 4.2-4.2 4.2-4.2c1.5-1.5 2.3-3.4 2.3-5.5s-.8-4.1-2.3-5.5l-5.5-5.5c-1.6-1.7-3.6-2.5-5.7-2.5z"/></g><g><path class="st1" d="M120.9 193.6c-.5 0-1-.2-1.4-.6-.8-.8-.8-2 0-2.8l58.9-58.9c.8-.8 2-.8 2.8 0 .8.8.8 2 0 2.8L122.3 193c-.4.4-.9.6-1.4.6z"/></g></g></svg>