<svg xmlns="http://www.w3.org/2000/svg" viewBox="0 0 440 272"><defs><clipPath id="clip-path"><path fill="none" d="M0 0h440v272H0z"/></clipPath><style>.cls-4{fill:#fbb040}.cls-5{fill:#515979}.cls-7{fill:#fff}</style></defs><g style="isolation:isolate"><g clip-path="url(#clip-path)" id="Layer_1" data-name="Layer 1"><path class="cls-4" d="M220 229.69c-17.9 0-76.94-1.19-84.95-16.53-5.5-10.54-9.34-13.4-10.07-13.87-.25-.07-.2-.09-.52-.28-.75-.44-18.29-10.91-19.07-26.86-.47-9.6 5.12-18.7 16.62-27a4.19 4.19 0 011.34-.66l95.47-27.29a4.43 4.43 0 012.36 0l95.47 27.29a4.19 4.19 0 011.34.66c11.5 8.34 17.09 17.44 16.62 27-.78 15.95-18.32 26.42-19.07 26.86-.32.19-.27.21-.52.28-.73.47-4.57 3.33-10.07 13.87-8.01 15.34-67.05 16.53-84.95 16.53z"/><path class="cls-5" d="M220 121.31l95.46 27.29c34.64 25.14-2.1 46.69-2.1 46.69s-4.92 1.86-12.23 15.88c-4.95 9.47-43 14.21-81.13 14.21s-76.18-4.74-81.13-14.21c-7.31-14-12.23-15.88-12.23-15.88s-36.74-21.55-2.1-46.69L220 121.31m0-8.62a8.69 8.69 0 00-2.37.33l-95.46 27.29a8.78 8.78 0 00-2.7 1.31c-12.74 9.25-18.93 19.6-18.39 30.74.39 7.84 4.28 15.64 11.27 22.56a55 55 0 009.93 7.81c.15.09.31.17.47.25.57.44 3.78 3.17 8.48 12.18 2.58 4.93 8.82 11.11 34.42 15.18C180.5 232.7 199.8 234 220 234s39.5-1.3 54.35-3.66c25.6-4.07 31.84-10.25 34.42-15.18 4.7-9 7.91-11.74 8.48-12.18.16-.08.32-.16.47-.25a55 55 0 009.93-7.81c7-6.92 10.88-14.72 11.27-22.56.54-11.14-5.65-21.49-18.39-30.74a8.78 8.78 0 00-2.7-1.31L222.37 113a8.69 8.69 0 00-2.37-.33z"/><path class="cls-4" d="M220 191.68c-31.51 0-63.45-6.23-94.93-18.51a4.32 4.32 0 01-2.74-4c0-35.34 9.84-64.92 28.46-85.54C168.14 64.39 192.72 53.8 220 53.8s52 10.43 69.2 29.37c18.63 20.47 28.47 50.2 28.47 86a4.32 4.32 0 01-2.74 4c-31.48 12.28-63.42 18.51-94.93 18.51z"/><path class="cls-5" d="M220 58.11c51.56 0 93.36 37.54 93.36 111q-46.68 18.27-93.36 18.27t-93.36-18.23c0-72.35 41.8-111 93.36-111m0-8.62c-28.52 0-54.23 11.09-72.41 31.23-19.34 21.43-29.57 52-29.57 88.43a8.62 8.62 0 005.49 8C155.48 189.66 188 196 220 196s64.52-6.33 96.49-18.81a8.62 8.62 0 005.49-8c0-36.87-10.23-67.6-29.59-88.88-18.05-19.89-43.76-30.82-72.39-30.82z"/><path class="cls-4" d="M194.15 98.33l2.87-56.02h45.96l2.87 56.02"/><path class="cls-7" d="M198.46 46.62h43.09v5.75h-43.09z"/><path class="cls-5" d="M249.44 149.46a2.75 2.75 0 01-1.35-.35 12.53 12.53 0 00-10.21 0 2.87 2.87 0 11-2.72-5.06 18.23 18.23 0 0115.64 0 2.87 2.87 0 01-1.36 5.41z"/><circle class="cls-5" cx="242.98" cy="134.73" r="10.77"/><circle class="cls-7" cx="245.67" cy="134.73" r="2.69"/><path class="cls-5" d="M233.09 111.91a14.55 14.55 0 012.81-1.91 16.17 16.17 0 013.06-1.27 16.74 16.74 0 016.91-.6 15.79 15.79 0 013.55.89c.57.23 1.11.54 1.65.82a7 7 0 011.53 1 12.73 12.73 0 014.28 5.41 2.93 2.93 0 01-1.5 3.86 2.89 2.89 0 01-2.52-.09l-.54-.28a35.07 35.07 0 00-3.92-2 14 14 0 00-3.69-1 21 21 0 00-4.18-.16c-.74.06-1.52.1-2.31.21s-1.66.23-2.32.24h-.9a2.87 2.87 0 01-2.89-2.84 2.9 2.9 0 01.98-2.28zM203.48 149.46a2.81 2.81 0 01-1.36-.35 12.53 12.53 0 00-10.21 0 2.87 2.87 0 11-2.71-5.06 18.23 18.23 0 0115.64 0 2.88 2.88 0 01-1.36 5.41z"/><circle class="cls-5" cx="197.02" cy="134.73" r="10.77"/><circle class="cls-7" cx="199.71" cy="134.73" r="2.69"/><path class="cls-5" d="M204.1 116.93c-.66 0-1.55-.19-2.32-.24s-1.57-.15-2.31-.21a21 21 0 00-4.18.16 14 14 0 00-3.69 1 35.07 35.07 0 00-3.92 2l-.52.28a2.93 2.93 0 01-4-3.77 12.73 12.73 0 014.28-5.41 7 7 0 011.53-1c.54-.28 1.08-.59 1.65-.82a15.79 15.79 0 013.55-.89 16.94 16.94 0 0110 1.86 15.08 15.08 0 012.81 1.94 2.87 2.87 0 01-1.9 5zM220.52 165.64a42.88 42.88 0 01-22.12-6.13 2.87 2.87 0 013-4.91c11.5 7 27.09 7 37.09 0a2.87 2.87 0 113.28 4.71 37.2 37.2 0 01-21.25 6.33zM214 170.11a22.17 22.17 0 006 .89 18 18 0 003-.22 14.68 14.68 0 002.95-.67 1.91 1.91 0 012 3.12l-1 1.08a7.71 7.71 0 01-3.3 2 10.52 10.52 0 01-3.65.45 12.89 12.89 0 01-3.62-.62 9.43 9.43 0 01-3.3-1.79l-1-.84a2 2 0 011.89-3.37zM245.85 102.63a4.3 4.3 0 01-4.3-4.08l-2.66-51.93h-37.78l-2.66 51.93a4.31 4.31 0 01-8.61-.45l2.88-56A4.31 4.31 0 01197 38h46a4.31 4.31 0 014.3 4.09l2.88 56a4.32 4.32 0 01-4.09 4.53z"/></g></g></svg>