<?xml version="1.0" encoding="utf-8"?>
<!-- Generator: Adobe Illustrator 25.0.0, SVG Export Plug-In . SVG Version: 6.00 Build 0)  -->
<svg version="1.1" id="Layer_1" xmlns="http://www.w3.org/2000/svg" xmlns:xlink="http://www.w3.org/1999/xlink" x="0px" y="0px"
	 viewBox="0 0 189.5 180" style="enable-background:new 0 0 189.5 180;" xml:space="preserve">
<style type="text/css">
	.st0{fill-rule:evenodd;clip-rule:evenodd;fill:#FDF6EC;}
	.st1{fill-rule:evenodd;clip-rule:evenodd;fill:#FFB54C;}
	.st2{fill-rule:evenodd;clip-rule:evenodd;fill:#35414D;}
	.st3{fill-rule:evenodd;clip-rule:evenodd;fill:#FFA733;}
	.st4{fill-rule:evenodd;clip-rule:evenodd;fill:#2FB1D4;}
	.st5{fill-rule:evenodd;clip-rule:evenodd;fill:#FF5A5A;}
	.st6{fill:#07BEEF;}
	.st7{fill:#FC635B;}
	.st8{fill:#7EC927;}
	.st9{fill:#FFA733;}
	.st10{fill:#00B6E0;}
	.st11{fill:#F34234;}
	.st12{fill:#60A917;}
	.st13{fill:#FF9801;}
	.st14{fill:#35414D;}
	.st15{fill-rule:evenodd;clip-rule:evenodd;fill:#A5DC69;}
	.st16{fill:#FFDAAA;}
	.st17{fill:#FFB680;}
</style>
<g>
	<g>
		<path class="st0" d="M5.3,1.6h156.8v125.1H5.3L5.3,1.6z"/>
		<g>
			<path class="st1" d="M65,35.2c0,7-3.2,13.9-9.4,18.3L42.5,35.2h3.8L65,35.2z"/>
			<circle class="st2" cx="42.5" cy="35.3" r="23.3"/>
			<circle class="st2" cx="42.5" cy="35.2" r="22.5"/>
			<path class="st2" d="M42.5,12.7C54.9,12.7,65,22.8,65,35.2H42.5V12.7z"/>
			<path class="st3" d="M56.1,50.3l-9.3-12.9h15.9C62.1,42.5,59.7,47,56.1,50.3L56.1,50.3z"/>
			<path class="st4" d="M22.2,35.2c0,11.2,9.1,20.3,20.3,20.3c3.6,0,7-1,10-2.6L40.7,36.5l0,0c-0.3-0.4-0.4-0.8-0.4-1.3V15
				C30.1,16.1,22.2,24.8,22.2,35.2z"/>
			<path class="st5" d="M62.7,33h-18V15C54.1,16.1,61.6,23.6,62.7,33z"/>
		</g>
		<g>
			<path class="st6" d="M75.3,61.2c0,3.8-3.1,6.9-6.9,6.9s-6.9-3.1-6.9-6.9c0-3.8,3.1-6.9,6.9-6.9S75.3,57.4,75.3,61.2L75.3,61.2z"
				/>
			<path class="st7" d="M112.6,29.1c0,3.8-3.1,6.9-6.9,6.9s-6.9-3.1-6.9-6.9c0-3.8,3.1-6.9,6.9-6.9S112.6,25.3,112.6,29.1z"/>
			<path class="st8" d="M149.9,51.8c0,3.8-3.1,6.9-6.9,6.9c-3.8,0-6.9-3.1-6.9-6.9c0-3.8,3.1-6.9,6.9-6.9S149.9,48,149.9,51.8
				L149.9,51.8z"/>
			<path class="st9" d="M187.2,15.8c0,3.8-3.1,6.9-6.9,6.9c-3.8,0-6.9-3.1-6.9-6.9c0-3.8,3.1-6.9,6.9-6.9
				C184.1,8.9,187.2,12,187.2,15.8z"/>
			<path class="st10" d="M75.3,60.9v0.3c0,3.9-3.1,7-6.9,7s-6.9-3.1-6.9-7c0-2.1,0.9-3.9,2.4-5.2c0.2,3.7,3.2,6.6,6.9,6.6
				C72.6,62.6,74.1,62,75.3,60.9z"/>
			<path class="st11" d="M112.6,28.8v0.3c0,3.9-3.1,7-6.9,7c-3.8,0-6.9-3.1-6.9-7c0-2.1,0.9-3.9,2.4-5.2c0.1,3.7,3.2,6.7,6.9,6.7
				C109.9,30.5,111.4,29.9,112.6,28.8L112.6,28.8z"/>
			<path class="st12" d="M149.9,51.5v0.3c0,3.8-3.1,6.9-6.9,6.9c-3.8,0-7-3.1-7-6.9c0-2.1,0.9-3.9,2.4-5.2c0.2,3.7,3.2,6.6,6.9,6.6
				C147.1,53.2,148.7,52.6,149.9,51.5L149.9,51.5z"/>
			<path class="st13" d="M187.2,15.5v0.3c0,3.8-3.1,6.9-6.9,6.9c-3.8,0-6.9-3.1-6.9-6.9c0-2.1,0.9-3.9,2.4-5.2
				c0.2,3.7,3.2,6.6,6.9,6.6C184.4,17.2,186,16.6,187.2,15.5z"/>
			<path class="st14" d="M68.5,70.4c5.1,0,9.2-4.1,9.2-9.2c0-1.5-0.4-2.9-1-4.2l23.3-20.9c1.6,1.3,3.6,2.1,5.8,2.1
				c2.7,0,5.1-1.2,6.8-3l21.5,14.5c-0.1,0.6-0.2,1.3-0.2,2c0,5.1,4.1,9.2,9.2,9.2c5.1,0,9.2-4.1,9.2-9.2c0-1.4-0.3-2.7-0.9-3.9
				l24.1-24.3c1.4,0.9,3.1,1.4,4.8,1.4c5.1,0,9.2-4.1,9.2-9.2c0-5.1-4.1-9.2-9.2-9.2c-5.1,0-9.2,4.1-9.2,9.2c0,1.6,0.5,3.2,1.2,4.5
				l-23.9,24.1c-1.5-1.1-3.4-1.8-5.4-1.8c-2.7,0-5.2,1.2-6.9,3.1l-21.5-14.5c0.2-0.7,0.3-1.4,0.3-2.1c0-5.1-4.1-9.2-9.2-9.2
				c-5.1,0-9.2,4.1-9.2,9.2c0,1.2,0.3,2.3,0.7,3.4L73.6,53.6c-1.5-1-3.2-1.6-5.1-1.6c-5.1,0-9.2,4.1-9.2,9.2
				C59.2,66.3,63.4,70.4,68.5,70.4z M180.3,11.2c2.6,0,4.6,2.1,4.6,4.6s-2.1,4.6-4.6,4.6s-4.6-2.1-4.6-4.6S177.7,11.2,180.3,11.2z
				 M143,47.2c2.6,0,4.6,2.1,4.6,4.6s-2.1,4.6-4.6,4.6s-4.6-2.1-4.6-4.6C138.4,49.2,140.5,47.2,143,47.2L143,47.2z M105.7,24.5
				c2.6,0,4.6,2.1,4.6,4.6s-2.1,4.6-4.6,4.6c-2.6,0-4.6-2.1-4.6-4.6C101.1,26.6,103.2,24.5,105.7,24.5L105.7,24.5z M68.5,56.6
				c2.6,0,4.6,2.1,4.6,4.6c0,2.6-2.1,4.6-4.6,4.6s-4.6-2.1-4.6-4.6C63.8,58.6,65.9,56.6,68.5,56.6L68.5,56.6z"/>
		</g>
		<g>
			<path class="st5" d="M50.5,96.2h15.9v18.4H50.5L50.5,96.2z"/>
			<path class="st15" d="M34.6,76.7h15.9v37.9H34.6L34.6,76.7z"/>
			<path class="st4" d="M18.7,88.3h15.9v26.3H18.7L18.7,88.3z"/>
			<path class="st14" d="M18.7,116.9h47.6c1.2,0,2.2-1,2.2-2.2V96.2c0-1.2-1-2.2-2.2-2.2H52.7V76.7c0-1.2-1-2.2-2.2-2.2H34.6
				c-1.2,0-2.2,1-2.2,2.2v9.4H18.7c-1.2,0-2.2,1-2.2,2.2v26.3c0,0.6,0.2,1.1,0.7,1.6C17.6,116.6,18.1,116.9,18.7,116.9z M52.7,98.4
				h11.4v14H52.7V98.4z M36.8,78.9h11.5v33.5H36.8V78.9z M20.9,90.5h11.5v21.9H20.9V90.5z"/>
		</g>
		<path class="st14" d="M2.7,129h160.8c1.5,0,2.7-1.1,2.7-2.4V37.7v-7.3v-4.9v-4.3V2.4c0-1.3-1.2-2.4-2.7-2.4H2.7C1.2,0,0,1.1,0,2.4
			v22.2v1v4.9V35v91.5C0,127.9,1.2,129,2.7,129z M5.3,4.9h155.5v119.2H5.3V4.9z"/>
	</g>
	<g id="_18-Muscle_1_">
		<path class="st16" d="M187.5,170.2v7.8c-25.5,0-37.2-5.9-37.2-5.9s-5.9,3.9-29.4,3.9s-49-19.6-49-19.6h-5.9v-5.9l19.6-76.4
			L119,56.6l13.7,17.6l-6.2,5.5l-6.2,5.5l-5.3,4.7l-3.9-5.9c0,3.9-9.8,3.9-9.8,3.9l5,34.6c16.9-10.1,28-4.6,34.5,2.3
			c19.6-26.9,46.8-3.6,46.8-3.6V170.2z"/>
		<path class="st17" d="M109.2,66.4l13.2,17l4.1-3.6l6.2-5.5L119,56.6L85.7,74.2l-1.4,5.3L109.2,66.4z"/>
		<path class="st17" d="M140.8,124.8c-6.5-6.9-17.6-12.3-34.5-2.3l-3.9-27.1l-1.1-7.5c0,3.9-9.8,9.8-9.8,9.8l5,34.6
			c16.9-10.1,28-4.6,34.5,2.3c19.6-26.9,46.8-3.6,46.8-3.6v46.7c3,0.2,6.3,0.3,9.8,0.3v-56.8C187.5,121.2,160.3,97.9,140.8,124.8
			L140.8,124.8z"/>
		<path class="st14" d="M188.8,119.8c-0.5-0.5-13.5-11.4-28.5-9.7c-7.5,0.9-14.2,4.9-19.8,11.8c-6.6-6.1-17.3-10.6-32.8-2.4
			l-4.2-29.7c2.7-0.1,5.3-0.9,7.6-2.2l2.3,3.4c0.6,0.9,1.8,1.1,2.7,0.6c0.1-0.1,0.2-0.1,0.2-0.2L134,75.7c0.8-0.7,0.9-1.9,0.2-2.7
			l-13.7-17.6c-0.6-0.8-1.6-1-2.5-0.5L84.8,72.5c-0.5,0.3-0.8,0.7-1,1.2l-19.6,76.4c0,0.2-0.1,0.3-0.1,0.5v5.9c0,1.1,0.9,2,2,2h5.2
			c3.9,2.9,27.3,19.6,49.6,19.6c19.1,0,26.9-2.5,29.4-3.7c3.3,1.4,15.2,5.7,37.2,5.7c1.1,0,2-0.9,2-2v-56.8
			C189.5,120.7,189.2,120.1,188.8,119.8L188.8,119.8z M151.2,170.4c-0.6-0.3-1.3-0.3-1.9,0.1c-0.1,0-6.1,3.6-28.3,3.6
			c-22.6,0-47.5-19-47.8-19.2c-0.3-0.3-0.8-0.4-1.2-0.4H68v-3.7l19.3-75.3l31.1-16.5L130,74l-3.3,2.9l-5.5-6.8l1.4-2.8l-3.5-1.8
			l-2,3.9c-0.3,0.7-0.3,1.5,0.2,2.1l6.4,8l-3.2,2.9l-5.2-6.4l1.4-2.8l-3.5-1.8l-2,3.9c-0.3,0.7-0.3,1.5,0.2,2.1l6.1,7.6l-2.2,2
			l-2.7-4c-0.6-0.9-1.8-1.2-2.7-0.6c-0.6,0.4-0.9,1-0.9,1.6c0,0.9-3.8,2-7.8,2c-1.1,0-2,0.9-2,2c0,0.1,0,0.2,0,0.3l5.7,39.7
			l-6.6,3.3l1.8,3.5l7.8-3.9c0.8-0.4,1.2-1.2,1.1-2l-0.7-5.2c12.3-7,22.7-6.1,30.9,2.5c3.1,3.3,5.5,7.2,7.2,11.4l3.7-1.3
			c-1.6-4.2-3.9-8.1-6.9-11.5c5-6.3,10.8-10,17.5-10.8c11.4-1.3,22,6.1,24.8,8.2v46c-8.5-0.3-16.8-2.2-24.6-5.6l-1.7,3.5
			c8.3,3.7,17.2,5.8,26.3,6v3.9C162.3,175.8,151.3,170.5,151.2,170.4L151.2,170.4z"/>
		<path class="st14" d="M120.9,166.3c-12.8,0-24.1-9.2-24.2-9.3l-2.5,3c0.5,0.4,12.5,10.2,26.7,10.2c8.3,0.1,16.5-1.3,24.2-4.1
			l-1.5-3.6C136.4,165.1,128.7,166.3,120.9,166.3L120.9,166.3z"/>
		<path class="st14" d="M170.5,126.5l2.8-2.8c-3-2.8-7-4.4-11.2-4.5c-6.7,0-12.7,7.7-13.3,8.6l3.1,2.4c1.5-2,6.2-7.1,10.2-7.1
			C165.2,123.3,168.2,124.5,170.5,126.5L170.5,126.5z"/>
		<path class="st14" d="M138.6,101.7h3.9v-3.9h3.9v-3.9h-3.9v-3.9h-3.9v3.9h-3.9v3.9h3.9V101.7z"/>
	</g>
</g>
</svg>
