<svg id="Layer_1" data-name="Layer 1" xmlns="http://www.w3.org/2000/svg" viewBox="0 0 440 272"><defs><clipPath id="clip-path"><path fill="none" d="M0 0h440v272H0z"/></clipPath><style>.cls-3{fill:#ffe8a0}.cls-4{fill:#515979}.cls-5{fill:#fff}.cls-6{fill:#fffaec}.cls-7{fill:#75a5c3}.cls-8{fill:#bad2e1}.cls-9{fill:#ef7d7d}</style></defs><g clip-path="url(#clip-path)"><path class="cls-3" d="M283.27 131.73a3.55 3.55 0 01-3.55-3.56c0-12.78-5.47-19.67-11.8-27.65-7.26-9.14-15.48-19.51-15.48-40a51 51 0 01102 0c0 20.45-8.23 30.82-15.48 40-6.33 8-11.8 14.87-11.8 27.65a3.56 3.56 0 01-3.56 3.56z"/><path class="cls-4" d="M303.44 13.12a47.44 47.44 0 0147.44 47.44c0 36.51-27.28 38-27.28 67.61h-40.33c0-29.59-27.28-31.1-27.28-67.61a47.45 47.45 0 0147.45-47.44m0-7.12a54.62 54.62 0 00-54.56 54.56c0 21.69 9 33.05 16.25 42.18 6.16 7.76 11 13.89 11 25.43a7.11 7.11 0 007.11 7.12h40.36a7.12 7.12 0 007.12-7.12c0-11.54 4.87-17.67 11-25.43C349 93.61 358 82.25 358 60.56A54.63 54.63 0 00303.44 6z"/><path class="cls-4" d="M303.75 82a25.11 25.11 0 01-13.45-3.91 2.37 2.37 0 012.55-4c6.54 4.16 15.39 4.18 21 0a2.37 2.37 0 112.8 3.83 22 22 0 01-12.9 4.08zM319.45 69.78a2 2 0 01-.58-.09 13.12 13.12 0 00-7.14 0 1.78 1.78 0 01-1.16-3.37 16.73 16.73 0 019.46 0 1.78 1.78 0 01-.58 3.46z"/><circle class="cls-4" cx="315.3" cy="60.05" r="7.12"/><circle class="cls-5" cx="317.08" cy="60.05" r="1.78"/><path class="cls-4" d="M287.43 69.78a1.78 1.78 0 01-.58-3.46 16.73 16.73 0 019.46 0 1.78 1.78 0 01-1.16 3.37 13.12 13.12 0 00-7.14 0 2 2 0 01-.58.09z"/><circle class="cls-4" cx="291.58" cy="60.05" r="7.12"/><circle class="cls-5" cx="293.36" cy="60.05" r="1.78"/><path class="cls-4" d="M309.62 45.37a9.84 9.84 0 013.28-1.62 11.8 11.8 0 013.62-.46 10 10 0 013.73.81 7.67 7.67 0 013.09 2.34 2 2 0 01-1.77 3.29h-.48c-.93-.07-1.67-.23-2.45-.29s-1.53-.17-2.35-.19l-2.52-.07a26.56 26.56 0 01-2.68-.09l-.51-.07a2 2 0 01-1.74-2.26 2.06 2.06 0 01.78-1.39zM295.79 49.05a26.76 26.76 0 01-2.69.09l-2.52.07c-.81 0-1.56.13-2.34.19s-1.52.22-2.46.29h-.47a2 2 0 01-1.77-3.29 7.53 7.53 0 013.09-2.34 10 10 0 013.72-.81 11.76 11.76 0 013.62.46 9.75 9.75 0 013.28 1.62 2 2 0 01-.95 3.67z"/><path class="cls-6" d="M335.46 48.26a3.55 3.55 0 01-3.27-2.18 29.89 29.89 0 00-27.57-18.26 3.56 3.56 0 010-7.12 37 37 0 0134.12 22.61 3.56 3.56 0 01-3.28 4.95z"/><path class="cls-4" d="M294 128.17a3.54 3.54 0 01-3.44-2.67l-8.31-32a3.56 3.56 0 116.89-1.79l8.3 32a3.55 3.55 0 01-2.55 4.34 3.94 3.94 0 01-.89.12zM312.93 128.17a4 4 0 01-.9-.11 3.57 3.57 0 01-2.55-4.34l8.31-32a3.55 3.55 0 116.88 1.79l-8.3 32a3.55 3.55 0 01-3.44 2.66z"/><path class="cls-4" d="M311.74 104.45a3.51 3.51 0 01-2.51-1l-5.79-5.78-5.79 5.78a3.56 3.56 0 01-4.86.17l-9.49-8.31a3.56 3.56 0 014.7-5.4l7 6.09 5.95-6a3.66 3.66 0 015 0l5.95 6 7-6.11a3.55 3.55 0 114.68 5.35l-9.49 8.31a3.52 3.52 0 01-2.35.9z"/><path class="cls-7" d="M299.73 172.06a5.94 5.94 0 01-5.68-4.21l-2.85-7.66h24.48l-2.86 7.66a5.93 5.93 0 01-5.67 4.21z"/><path class="cls-4" d="M310.56 163.75l-1.12 3a2.36 2.36 0 01-2.29 1.76h-7.42a2.38 2.38 0 01-2.3-1.76l-1.11-3h14.24m10.24-7.11h-34.73l3.58 9.6 1 2.77a9.49 9.49 0 009 6.6h7.42a9.49 9.49 0 009-6.6l1-2.77 3.58-9.6z"/><path class="cls-8" d="M288 160.19a8.31 8.31 0 01-8.3-8.3v-27.28h47.44v27.28a8.31 8.31 0 01-8.3 8.3z"/><path class="cls-4" d="M323.6 128.17v23.72a4.75 4.75 0 01-4.74 4.75H288a4.75 4.75 0 01-4.75-4.75v-23.72h40.35m7.12-7.12h-54.56v30.84A11.87 11.87 0 00288 163.75h30.84a11.87 11.87 0 0011.86-11.86v-30.84z"/><path class="cls-7" d="M279.72 138.85l47.44-4.75"/><path class="cls-4" d="M279.71 142.4a3.56 3.56 0 01-.35-7.1l47.45-4.74a3.56 3.56 0 01.71 7.08l-47.45 4.75z"/><path class="cls-7" d="M279.72 150.71l47.44-4.75"/><path class="cls-4" d="M279.71 154.26a3.56 3.56 0 01-.35-7.1l47.45-4.74a3.56 3.56 0 01.71 7.08l-47.45 4.75z"/><path class="cls-3" d="M116.25 167.82a3.56 3.56 0 01-3.56-3.56c0-12.78-5.47-19.67-11.8-27.65-7.26-9.15-15.49-19.52-15.49-40a51 51 0 01102 0c0 20.46-8.23 30.83-15.49 40-6.33 8-11.8 14.87-11.8 27.65a3.56 3.56 0 01-3.56 3.56z"/><path class="cls-4" d="M136.42 49.17a47.46 47.46 0 0147.46 47.46c0 36.52-27.29 38-27.29 67.63h-40.34c0-29.6-27.29-31.11-27.29-67.63a47.46 47.46 0 0147.46-47.46m0-7.12a54.64 54.64 0 00-54.58 54.58c0 21.7 9 33.06 16.26 42.19 6.16 7.77 11 13.9 11 25.44a7.12 7.12 0 007.12 7.12h40.34a7.12 7.12 0 007.12-7.12c0-11.54 4.87-17.67 11-25.44C182 129.69 191 118.33 191 96.63a54.64 54.64 0 00-54.58-54.58z"/><path class="cls-6" d="M168.46 84.32a3.55 3.55 0 01-3.28-2.17 29.89 29.89 0 00-27.57-18.28 3.56 3.56 0 010-7.12 37 37 0 0134.12 22.63 3.55 3.55 0 01-3.27 4.94z"/><path class="cls-4" d="M126.93 164.26a3.56 3.56 0 01-3.45-2.66l-8.3-32a3.56 3.56 0 016.89-1.79l8.3 32a3.56 3.56 0 01-2.55 4.34 3.44 3.44 0 01-.89.11zM145.91 164.26a3.44 3.44 0 01-.89-.11 3.56 3.56 0 01-2.55-4.34l8.3-32a3.56 3.56 0 016.89 1.79l-8.3 32a3.56 3.56 0 01-3.45 2.66z"/><path class="cls-4" d="M144.73 140.53a3.55 3.55 0 01-2.52-1l-5.79-5.79-5.79 5.79a3.56 3.56 0 01-4.86.16l-9.49-8.31A3.56 3.56 0 11121 126l7 6.11 6-5.95a3.66 3.66 0 015 0l5.95 5.95 7-6.11a3.56 3.56 0 114.69 5.35l-9.49 8.31a3.54 3.54 0 01-2.42.87z"/><path class="cls-7" d="M132.71 208.16A5.93 5.93 0 01127 204l-2.85-7.66h24.48l-2.82 7.66a5.93 5.93 0 01-5.68 4.2z"/><path class="cls-4" d="M143.54 199.86l-1.11 3a2.38 2.38 0 01-2.3 1.76h-7.42a2.38 2.38 0 01-2.3-1.76l-1.11-3h14.24m10.25-7.12h-34.74l3.58 9.6 1 2.77a9.5 9.5 0 009.05 6.61h7.42a9.51 9.51 0 009.05-6.61l1-2.77 3.58-9.6z"/><path class="cls-8" d="M121 196.3a8.32 8.32 0 01-8.31-8.31V160.7h47.46V188a8.32 8.32 0 01-8.31 8.31z"/><path class="cls-4" d="M156.59 164.26V188a4.75 4.75 0 01-4.75 4.75H121a4.75 4.75 0 01-4.74-4.75v-23.74h40.34m7.12-7.12h-54.59V188A11.88 11.88 0 00121 199.86h30.85A11.88 11.88 0 00163.71 188v-30.86z"/><path class="cls-7" d="M112.69 174.94l47.46-4.74"/><path class="cls-4" d="M112.69 178.5a3.56 3.56 0 01-.35-7.1l47.46-4.75a3.56 3.56 0 01.7 7.09l-47.5 4.74z"/><path class="cls-7" d="M112.69 186.81l47.46-4.75"/><path class="cls-4" d="M112.69 190.37a3.56 3.56 0 01-.35-7.11l47.46-4.74a3.56 3.56 0 11.7 7.08l-47.5 4.75zM142.54 93.77a2.38 2.38 0 01-2.37-2.25 7.12 7.12 0 0114.23-.75 2.37 2.37 0 11-4.74.25 2.38 2.38 0 00-4.75.25 2.37 2.37 0 01-2.24 2.5zM118.84 95a2.36 2.36 0 01-2.36-2.25A7.12 7.12 0 11130.7 92a2.37 2.37 0 01-4.74.25 2.38 2.38 0 00-4.14-1.47 2.34 2.34 0 00-.6 1.71A2.39 2.39 0 01119 95zM142.43 74.32a9.64 9.64 0 013.45-1.21 11.75 11.75 0 013.65 0 10.12 10.12 0 013.6 1.26 7.5 7.5 0 012.78 2.7 2 2 0 01-2.15 3l-.47-.09c-.92-.19-1.63-.44-2.4-.6s-1.5-.35-2.31-.47l-2.49-.38a23.74 23.74 0 01-2.66-.42l-.49-.12a2 2 0 01-.51-3.7zM126.05 79.06a23.13 23.13 0 01-2.6.69l-2.44.64c-.79.21-1.49.48-2.24.71s-1.43.56-2.33.84l-.45.14a2 2 0 01-2.47-2.81 7.55 7.55 0 012.49-3 9.88 9.88 0 013.44-1.63 11.59 11.59 0 013.64-.36 9.52 9.52 0 013.56.84 2 2 0 011 2.66 2.07 2.07 0 01-1.13 1.07zM136.29 118.26a16 16 0 01-16-15.18 1.77 1.77 0 011.68-1.87l28.53-1.49a1.79 1.79 0 011.78 1.69 16 16 0 01-15.16 16.83h-.85z"/><path class="cls-4" d="M150.52 101.5a14.24 14.24 0 01-13.47 15h-.76a14.24 14.24 0 01-14.21-13.5l28.44-1.49m0-3.56h-.19l-28.43 1.49a3.51 3.51 0 00-2.46 1.17 3.56 3.56 0 00-.91 2.57A17.78 17.78 0 00136.29 120h.94a17.84 17.84 0 0016.85-18.71 3.6 3.6 0 00-1.18-2.46 3.54 3.54 0 00-2.38-.91z"/><ellipse class="cls-9" cx="136.8" cy="111.72" rx="10.59" ry="4.75" transform="rotate(-3 136.749 111.728)"/><path class="cls-3" d="M205.05 218.27a3.79 3.79 0 01-3.79-3.79c0-13.61-5.82-20.95-12.56-29.44-7.73-9.74-16.49-20.78-16.49-42.55a54.31 54.31 0 11108.62 0c0 21.77-8.76 32.81-16.49 42.55-6.74 8.49-12.56 15.83-12.56 29.44a3.79 3.79 0 01-3.79 3.79z"/><path class="cls-4" d="M226.52 92A50.52 50.52 0 01277 142.49c0 38.87-29.05 40.48-29.05 72h-42.9c0-31.51-29.05-33.12-29.05-72A50.52 50.52 0 01226.52 92m0-7.57a58.16 58.16 0 00-58.1 58.1c0 23.09 9.6 35.19 17.31 44.91 6.56 8.26 11.74 14.79 11.74 27.08a7.58 7.58 0 007.58 7.58H248a7.58 7.58 0 007.58-7.58c0-12.29 5.18-18.82 11.74-27.08 7.71-9.72 17.31-21.82 17.31-44.91a58.16 58.16 0 00-58.1-58.1z"/><path class="cls-6" d="M260.62 129.39a3.79 3.79 0 01-3.49-2.32 31.8 31.8 0 00-29.35-19.45 3.79 3.79 0 110-7.58 39.38 39.38 0 0136.33 24.08 3.81 3.81 0 01-3.49 5.27z"/><path class="cls-4" d="M216.41 214.48a3.78 3.78 0 01-3.66-2.84l-8.84-34.1a3.79 3.79 0 117.33-1.9l8.84 34.1a3.79 3.79 0 01-2.71 4.62 4 4 0 01-.96.12zM236.63 214.48a4 4 0 01-1-.12 3.81 3.81 0 01-2.72-4.62l8.85-34.1a3.79 3.79 0 117.33 1.9l-8.84 34.1a3.78 3.78 0 01-3.62 2.84z"/><path class="cls-4" d="M235.36 189.22a3.78 3.78 0 01-2.68-1.11l-6.16-6.11-6.16 6.16a3.8 3.8 0 01-5.18.17l-10.1-8.84a3.79 3.79 0 115-5.7l7.44 6.5 6.33-6.33a3.9 3.9 0 015.36 0l6.33 6.33 7.44-6.5a3.79 3.79 0 115 5.7l-10.1 8.84a3.78 3.78 0 01-2.52.89z"/><path class="cls-7" d="M222.57 261.21a6.33 6.33 0 01-6-4.47l-3-8.16h26.06l-3 8.16a6.32 6.32 0 01-6 4.47z"/><path class="cls-4" d="M234.1 252.37l-1.19 3.18a2.52 2.52 0 01-2.44 1.87h-7.9a2.54 2.54 0 01-2.45-1.87l-1.18-3.18h15.16m10.9-7.58h-37l3.84 10.21 1.1 2.94a10.12 10.12 0 009.63 7h7.9a10.12 10.12 0 009.63-7l1.1-2.94 3.8-10.21z"/><path class="cls-8" d="M210.1 248.58a8.85 8.85 0 01-8.84-8.84v-29.05h50.52v29.05a8.86 8.86 0 01-8.84 8.84z"/><path class="cls-4" d="M248 214.48v25.26a5 5 0 01-5.05 5H210.1a5 5 0 01-5-5v-25.26H248m7.58-7.58h-58.1v32.84a12.65 12.65 0 0012.63 12.63h32.84a12.65 12.65 0 0012.63-12.63V206.9z"/><path class="cls-7" d="M201.26 225.85l50.52-5.06"/><path class="cls-4" d="M201.25 229.63a3.79 3.79 0 01-.37-7.56l50.52-5a3.79 3.79 0 01.76 7.54l-50.52 5.06z"/><path class="cls-7" d="M201.26 238.48l50.52-5.06"/><path class="cls-4" d="M201.25 242.26a3.78 3.78 0 01-.37-7.55l50.52-5.06a3.79 3.79 0 01.76 7.54l-50.52 5.06zM235.68 143.4a1.9 1.9 0 01-.72-3.65 17.81 17.81 0 0110.07-.53 1.89 1.89 0 11-1.05 3.64 14.09 14.09 0 00-7.59.4 1.83 1.83 0 01-.71.14z"/><circle class="cls-4" cx="239.65" cy="132.82" r="7.58"/><circle class="cls-5" cx="241.54" cy="132.72" r="1.89"/><path class="cls-4" d="M210.45 144.72a1.89 1.89 0 01-.71-3.65 17.78 17.78 0 0110.06-.53 1.9 1.9 0 01-1 3.65 13.94 13.94 0 00-7.6.4 1.94 1.94 0 01-.75.13z"/><circle class="cls-4" cx="214.42" cy="134.14" r="7.58"/><circle class="cls-5" cx="216.31" cy="134.04" r="1.89"/><path class="cls-4" d="M234.25 115.58a10.35 10.35 0 013.55-1.58 12.48 12.48 0 013.87-.35 10.5 10.5 0 013.93 1 8.09 8.09 0 013.21 2.61 2.17 2.17 0 01-.48 3 2.13 2.13 0 01-1.52.41l-.51-.06c-1-.12-1.77-.31-2.61-.41s-1.62-.23-2.48-.28l-2.68-.17a27.29 27.29 0 01-2.86-.2l-.54-.09a2.14 2.14 0 01-1.76-2.47 2.12 2.12 0 01.88-1.41zM217 120.52a26.62 26.62 0 01-2.81.49l-2.65.45c-.86.15-1.63.37-2.45.55s-1.57.46-2.54.67l-.5.11a2.17 2.17 0 01-2.35-3.21 8.07 8.07 0 012.91-2.92 10.4 10.4 0 013.81-1.4 12 12 0 013.88-.05 10.14 10.14 0 013.7 1.22 2.15 2.15 0 01-.46 3.94zM227.94 168.07a17 17 0 01-17-16.16 1.88 1.88 0 011.79-2l30.37-1.59a1.91 1.91 0 011.27.48 1.93 1.93 0 01.62 1.31A17.06 17.06 0 01228.85 168h-.91z"/><path class="cls-4" d="M243.09 150.22a15.15 15.15 0 01-14.34 15.93h-.81a15.15 15.15 0 01-15.12-14.36l30.27-1.59m0-3.79h-.2L212.62 148a3.8 3.8 0 00-3.59 4 18.94 18.94 0 0018.91 18h1a18.94 18.94 0 0017.93-20 3.79 3.79 0 00-3.78-3.59z"/><ellipse class="cls-9" cx="228.48" cy="161.11" rx="11.27" ry="5.05" transform="rotate(-3 228.508 161.135)"/></g></svg>