<svg id="Layer_1" data-name="Layer 1" xmlns="http://www.w3.org/2000/svg" viewBox="0 0 440 272"><defs><style>.cls-1{fill:#ccc}.cls-2{fill:#515979}.cls-8{fill:#fff}</style></defs><rect class="cls-1" x="230.07" y="145.26" width="18.75" height="45.55" rx="4.02" transform="rotate(-14 239.451 168.04)"/><path class="cls-2" d="M240.11 148.54l9.07 36.4-10.4 2.59-9.07-36.4 10.4-2.59m-2-7.8l-10.4 2.6a8 8 0 00-5.85 9.74l9.07 36.4a8.05 8.05 0 009.75 5.85l10.4-2.59A8 8 0 00257 183l-9.07-36.39a8.05 8.05 0 00-9.75-5.86z"/><path transform="rotate(-14 238.948 166.077)" fill="#979baf" d="M233.6 161.4h10.72v9.38H233.6z"/><circle class="cls-1" cx="220" cy="90.05" r="71" transform="rotate(-59 220.005 90.046)"/><path class="cls-2" d="M203.8 25.05a67 67 0 11-48.8 81.2 67 67 0 0148.79-81.2m-2-7.8a75 75 0 1091 54.65 75.1 75.1 0 00-90.94-54.65z"/><circle cx="220" cy="90.05" r="50.91" transform="rotate(-36.5 219.996 90.045)" fill="#d8ebfb"/><path class="cls-2" d="M208.66 44.55a46.89 46.89 0 11-34.15 56.84 46.89 46.89 0 0134.15-56.84m-1.95-7.8a54.93 54.93 0 1066.58 40 55 55 0 00-66.58-40z"/><path d="M210.28 51.05A46.89 46.89 0 01266.18 82c-.2-1.09-.41-2.18-.69-3.28a46.88 46.88 0 10-91 22.69c.27 1.09.59 2.16.93 3.22a46.88 46.88 0 0134.86-53.58z" fill="#a0d2ff"/><rect x="235.36" y="181.3" width="32.15" height="69.66" rx="4.02" transform="rotate(-14 251.444 216.14)" fill="#9e8271"/><path class="cls-2" d="M255.68 183.32l14.91 59.79-23.4 5.83-14.91-59.79 23.4-5.83m-1.94-7.8l-23.4 5.83a8 8 0 00-5.85 9.75l14.9 59.79a8 8 0 009.75 5.85l23.39-5.83a8 8 0 005.86-9.74l-14.91-59.8a8 8 0 00-9.74-5.85z"/><rect x="228.88" y="182.1" width="32.15" height="16.08" rx="4.02" transform="rotate(-14 244.965 190.13)" fill="#ffd886"/><path class="cls-2" d="M255.68 183.32l1.95 7.8-23.4 5.88-1.95-7.8 23.4-5.83m-1.94-7.8l-23.4 5.83a8 8 0 00-5.85 9.75l1.94 7.79a8 8 0 009.74 5.86l23.4-5.83a8.05 8.05 0 005.86-9.75l-1.95-7.8a8 8 0 00-9.74-5.85zM245.36 94.84a2.64 2.64 0 01-1.31 0 11.62 11.62 0 00-9.24 2.3 2.68 2.68 0 01-3.6-4 17 17 0 0114.16-3.53 2.67 2.67 0 010 5.19z"/><circle class="cls-2" cx="236.35" cy="83.63" r="9.38"/><circle class="cls-8" cx="238.62" cy="83.06" r="2.34"/><path class="cls-2" d="M225 65.72a12.09 12.09 0 011.84-2.15 14.27 14.27 0 012.19-1.65 13.78 13.78 0 015.44-1.92 11.62 11.62 0 016 .76 10.32 10.32 0 014.53 3.56 2.75 2.75 0 01-.56 3.84 2.72 2.72 0 01-2.06.51l-.65-.1a32.76 32.76 0 00-3.42-.57 13.76 13.76 0 00-2.94 0 20 20 0 00-3.21.64c-.57.15-1.17.31-1.77.52s-1.27.44-1.79.52l-1 .15a2.65 2.65 0 01-2.6-4.11zM211.56 103.27a2.76 2.76 0 01-1.31 0 11.64 11.64 0 00-9.24 2.3 2.68 2.68 0 01-3.6-4 17 17 0 0114.16-3.53 2.68 2.68 0 010 5.2z"/><circle class="cls-2" cx="202.55" cy="92.05" r="9.38"/><circle class="cls-8" cx="204.83" cy="91.49" r="2.34"/><path class="cls-2" d="M202.82 76.12c-.5.17-1.23.24-1.83.38s-1.23.24-1.8.37a20.11 20.11 0 00-3.14.94 14.22 14.22 0 00-2.59 1.37 34.06 34.06 0 00-2.76 2.12l-.52.39a2.74 2.74 0 01-4.35-2.61 10.3 10.3 0 012.37-5.26 11.54 11.54 0 014.94-3.48 13.91 13.91 0 015.67-.88 15.05 15.05 0 012.7.43 11.73 11.73 0 012.64 1 2.64 2.64 0 01-.34 4.83zM226.38 113.76a35.56 35.56 0 01-20.16-.92 2.68 2.68 0 111.76-5.06c11.12 3.86 24.08.64 30.83-7.65a2.68 2.68 0 014.15 3.39 30.9 30.9 0 01-16.58 10.24zM221.37 118.67a20.91 20.91 0 005.63-.55 17 17 0 002.7-.88 14.17 14.17 0 002.52-1.27 1.76 1.76 0 012.45.52 1.79 1.79 0 01.06 1.84l-.7 1.22a7.32 7.32 0 01-2.54 2.53 10.16 10.16 0 01-3.2 1.23 10.72 10.72 0 01-1.7.25 11 11 0 01-1.72 0 8.88 8.88 0 01-3.39-.88l-1.07-.55a1.84 1.84 0 011-3.47z"/></svg>