<?xml version="1.0" encoding="utf-8"?>
<!-- Generator: Adobe Illustrator 25.0.0, SVG Export Plug-In . SVG Version: 6.00 Build 0)  -->
<svg version="1.1" id="Layer_1" xmlns="http://www.w3.org/2000/svg" xmlns:xlink="http://www.w3.org/1999/xlink" x="0px" y="0px"
	 viewBox="0 0 381.4 350" style="enable-background:new 0 0 381.4 350;" xml:space="preserve">
<style type="text/css">
	.st0{fill-rule:evenodd;clip-rule:evenodd;fill:#7DDF96;}
	.st1{fill:#0D9353;}
	.st2{fill:#35414D;}
	.st3{fill-rule:evenodd;clip-rule:evenodd;fill:#0D9353;}
	.st4{fill:#87796F;}
	.st5{fill:#FFF2E8;}
	.st6{fill:#FEDA9B;}
	.st7{fill:#FFB954;}
	.st8{fill:#FF5D5D;}
	.st9{fill:#FF5A5A;}
	.st10{fill:#C1A897;}
	.st11{fill:#FFFFFF;}
	.st12{fill-rule:evenodd;clip-rule:evenodd;fill:#FFF2E8;}
	.st13{fill-rule:evenodd;clip-rule:evenodd;fill:#FFE4CF;}
	.st14{fill-rule:evenodd;clip-rule:evenodd;fill:#CECECE;}
	.st15{fill-rule:evenodd;clip-rule:evenodd;fill:#838383;}
	.st16{fill-rule:evenodd;clip-rule:evenodd;fill:#FE9737;}
	.st17{fill-rule:evenodd;clip-rule:evenodd;fill:#B5ADB6;}
	.st18{fill-rule:evenodd;clip-rule:evenodd;fill:#F36B37;}
	.st19{fill-rule:evenodd;clip-rule:evenodd;fill:#595959;}
	.st20{fill-rule:evenodd;clip-rule:evenodd;fill:#35414D;}
	.st21{fill:#60A917;}
	.st22{fill:#FE9737;}
	.st23{fill:#D8D8D8;}
	.st24{fill-rule:evenodd;clip-rule:evenodd;fill:#99DD58;}
	.st25{fill-rule:evenodd;clip-rule:evenodd;fill:#97DA7B;}
	.st26{fill-rule:evenodd;clip-rule:evenodd;fill:#68CA44;}
	.st27{fill:#6F909E;}
	.st28{fill:#FFCF66;}
	.st29{fill:#FFBC2B;}
	.st30{fill:#FF6666;}
</style>
<g>
	<g>
		<g>
			<path id="_409268072_8_" class="st0" d="M128.1,163.8c0.6,7.1,0.9,15.8,0.1,23.1c-0.1,0.8-0.8,1.5-1.8,1.6l-57.8,5.1
				c-3,0.3-1.9-3.6-1.9-7c0.4-14.9-1.7-30.5-5.2-45.9c-4.4-19.3-7.5-43.1-8.1-64c0-0.9,0.8-1.7,1.8-1.8l58-5.1
				c1.1-0.1,2.1,0.6,2.1,1.6c0.7,21.2,3.8,45.2,8.4,65.4C125.9,146.4,127.4,155.4,128.1,163.8L128.1,163.8z"/>
			<path id="_409267760_16_" class="st1" d="M57.4,96.9c-0.7-8.1-1.1-15.5-1.2-21.7l57.2-5.1c0.1,6.3,0.5,13.8,1.2,21.8
				c1.3,15,3.6,30.9,6.3,43.8c1.9,8.9,3.2,17.5,3.9,25.5c1.3,14.2,0.3,23.1-0.2,26.5l-57,5.1c1.1-7.9,0.6-18.2,0-25.9
				c-0.8-8.8-2.2-18.3-3.9-26.6C60.9,127.5,58.7,111.7,57.4,96.9 M53.5,97.2c1.3,14.5,3.5,30.6,6.3,43.8c1.7,8.1,3.1,17.4,3.9,26.2
				c1,11.1,1,21.4-0.5,27.8c0,0.2,0,0.3,0,0.5c0.1,0.8,0.8,1.5,1.7,1.4l61.8-5.5c0.7-0.1,1.2-0.5,1.4-1.2c0.1-0.4,2.3-10.1,0.6-29.4
				l0,0c-0.7-8.2-2-16.9-3.9-26c-2.8-13.2-5-29-6.2-43.3c-0.8-8.9-1.2-17.2-1.2-24.1c0-0.1,0-0.1,0-0.1c-0.1-0.9-0.8-1.5-1.7-1.4
				l-61.8,5.5c-0.8,0.1-1.4,0.7-1.4,1.6C52.3,79.8,52.7,88.2,53.5,97.2L53.5,97.2z M128.6,160.9L128.6,160.9
				C128.6,160.9,128.6,160.9,128.6,160.9L128.6,160.9z"/>
			<path id="_409267760_15_" class="st2" d="M54.2,95C53.4,86.5,53,78.7,53,72.2l63.1-5.6c0,6.7,0.5,14.5,1.2,23
				c1.4,15.8,3.9,32.6,6.8,46.1c2,9.4,3.4,18.4,4.2,26.9c1.3,15,0.3,24.3-0.3,28L65,196.1c1.3-8.3,0.8-19.2,0.1-27.3
				c-0.8-9.3-2.3-19.2-4.2-28.1C58,127.4,55.5,110.7,54.2,95 M49.9,95.4c1.4,15.3,3.8,32.2,6.8,46.2c1.8,8.6,3.3,18.3,4.1,27.6
				c1,11.7,1,22.6-0.6,29.4c0,0.2-0.1,0.4,0,0.5c0.1,0.9,0.9,1.6,1.9,1.5l68.2-6c0.7-0.1,1.3-0.6,1.5-1.3c0.1-0.4,2.6-10.7,0.8-31
				l0,0c-0.8-8.6-2.2-17.8-4.2-27.4c-3-13.9-5.4-30.5-6.7-45.6c-0.8-9.3-1.3-18.1-1.2-25.4c0-0.1,0-0.1,0-0.2
				c-0.1-0.9-0.9-1.6-1.9-1.5l-68.2,6c-0.9,0.1-1.6,0.8-1.6,1.7C48.6,77.1,49.1,86,49.9,95.4L49.9,95.4z M132.5,162.2L132.5,162.2
				C132.5,162.2,132.5,162.2,132.5,162.2L132.5,162.2z"/>
			<g>
				<path id="_409267496_8_" class="st3" d="M56.3,86c-0.2-3.3-0.4-6.5-0.5-9.7c0-0.8,0.5-1.4,1.3-1.5l9.5-0.8
					C66.9,81.4,60,85.9,56.3,86L56.3,86z"/>
				<path id="_409268120_8_" class="st3" d="M103.6,70.7l9.6-0.9c0.8-0.1,1.5,0.6,1.6,1.4c0.1,3.2,0.3,6.4,0.5,9.7
					C111.7,81.3,104.6,77.9,103.6,70.7L103.6,70.7z"/>
				<path id="_409267040_8_" class="st3" d="M126.4,177.8c0.1,3.2,0,6.3-0.2,9.2c0,0.7-0.6,1.2-1.2,1.2l-9.1,0.8
					C115.5,185.5,118.9,178.1,126.4,177.8L126.4,177.8z"/>
				<path id="_409266752_8_" class="st3" d="M78.1,192.4l-9.4,0.8c-2.2,0.2-1.5-3-1.4-5.8c0-1.6,0-3.3,0-4.9
					C72.8,182.7,77.4,186.9,78.1,192.4L78.1,192.4z"/>
			</g>
			<path id="_409266968_8_" class="st3" d="M118.7,128.6c1.3,15-9.8,28.3-24.7,29.6s-28.2-9.8-29.6-24.8c-1.3-15,9.8-28.3,24.7-29.6
				C104.2,102.5,117.4,113.6,118.7,128.6L118.7,128.6z"/>
			
				<ellipse transform="matrix(0.9961 -8.826917e-02 8.826917e-02 0.9961 -14.8435 9.1354)" class="st1" cx="95.9" cy="172.4" rx="6.5" ry="6.6"/>
			
				<ellipse transform="matrix(0.9961 -8.825649e-02 8.825649e-02 0.9961 -7.5311 8.1592)" class="st1" cx="88.5" cy="89.2" rx="6.5" ry="6.6"/>
			<g>
				<path id="_409266824_8_" class="st0" d="M104.2,129.9c0.6,6.7-8,9.9-8.3,6.3c-0.1-0.9,0.6-1.8,1.5-1.8c5-0.4,4.3-8-0.7-7.6
					c-6.4,0.6-0.2,11.1-9.9,11.9c-9.4,0.8-10.7-13.5-1.3-14.3c2.2-0.2,2.5,3.2,0.3,3.4c-5,0.4-4.3,8,0.7,7.6
					c6.4-0.6,0.2-11.1,9.9-11.9C100.4,123,103.8,125.9,104.2,129.9L104.2,129.9z"/>
				<path id="_409267328_8_" class="st0" d="M82.4,131.8c0.2,2.2-2.5,1.9-4.4,2.1c-2.2,0.2-2.5-3.2-0.3-3.4
					C79.6,130.4,82.2,129.7,82.4,131.8z"/>
				<path id="_409266872_8_" class="st0" d="M107.1,129.6c0.2,2.2-2.5,1.9-4.4,2.1c-2.2,0.2-2.5-3.2-0.3-3.4
					C104.3,128.2,106.9,127.5,107.1,129.6z"/>
			</g>
		</g>
		<g>
			<path id="_409268072_7_" class="st0" d="M98.5,176.5c2.2,6.8,4.4,15.2,5.3,22.4c0.1,0.8-0.5,1.7-1.4,2l-55.2,18
				c-2.9,0.9-2.7-3.1-3.4-6.4c-2.9-14.6-8.5-29.3-15.4-43.6c-8.6-17.8-17-40.3-22.3-60.5c-0.2-0.9,0.4-1.8,1.3-2.1l55.4-18
				c1.1-0.3,2.1,0.2,2.4,1.1c5.4,20.5,13.8,43.2,22.8,61.9C92.4,160,95.9,168.5,98.5,176.5L98.5,176.5z"/>
			<path id="_409267760_14_" class="st1" d="M14.5,127.1c-2.5-7.7-4.6-14.9-6-20.9l54.6-17.8c1.5,6.1,3.6,13.3,6.1,21
				c4.6,14.3,10.5,29.3,16,41.3c3.8,8.3,7,16.3,9.5,24c4.4,13.6,5.5,22.4,5.8,25.9L46,218.3c-0.7-7.9-3.5-17.9-5.9-25.3
				c-2.7-8.4-6.2-17.3-9.8-25.1C24.9,156.2,19.1,141.3,14.5,127.1 M10.8,128.3c4.5,13.9,10.3,29,16,41.3c3.5,7.5,6.9,16.2,9.6,24.6
				c3.4,10.6,5.8,20.7,5.8,27.2c0,0.2,0,0.3,0.1,0.5c0.3,0.8,1.1,1.3,2,1l59-19.2c0.6-0.2,1.1-0.8,1.1-1.5c0-0.4,0-10.4-6-28.8h0
				c-2.5-7.8-5.8-16-9.7-24.4C83,136.9,77.3,122,72.9,108.3c-2.8-8.5-5-16.5-6.5-23.2c0,0,0-0.1,0-0.1c-0.3-0.8-1.1-1.3-2-1
				l-59,19.2c-0.8,0.2-1.2,1-1,1.8C5.8,111.7,8.1,119.8,10.8,128.3L10.8,128.3z M98.3,173.5L98.3,173.5
				C98.3,173.5,98.3,173.5,98.3,173.5L98.3,173.5z"/>
			<path id="_409267760_13_" class="st2" d="M11,126.1c-2.6-8.1-4.8-15.7-6.3-22L65,84.5c1.5,6.5,3.7,14.1,6.3,22.1
				c4.9,15,11.1,30.9,16.9,43.4c4.1,8.7,7.5,17.2,10.1,25.2c4.7,14.3,5.7,23.6,6,27.3l-60.1,19.5c-0.6-8.4-3.5-18.9-6.1-26.6
				c-2.9-8.9-6.6-18.2-10.4-26.4C22,156.7,15.9,141,11,126.1 M6.9,127.4c4.8,14.6,10.9,30.5,17,43.5c3.7,7.9,7.3,17.1,10.2,25.9
				c3.6,11.2,6.1,21.8,6,28.7c0,0.2,0,0.4,0.1,0.5c0.3,0.8,1.2,1.4,2.1,1.1l65.1-21.2c0.7-0.2,1.2-0.9,1.2-1.6
				c0-0.4,0.1-11-6.2-30.4l0,0c-2.7-8.2-6.1-16.9-10.3-25.7c-6-12.9-12.1-28.5-16.8-43c-2.9-8.9-5.3-17.4-6.9-24.4
				c0-0.1,0-0.1,0-0.2c-0.3-0.9-1.2-1.3-2.1-1.1L1.2,100.9c-0.8,0.3-1.3,1.1-1.2,2C1.6,109.9,4,118.4,6.9,127.4L6.9,127.4z
				 M102.4,174L102.4,174C102.4,174,102.4,174,102.4,174L102.4,174z"/>
			<g>
				<path id="_409267496_7_" class="st3" d="M11,116.8c-1-3.2-1.9-6.3-2.7-9.3c-0.2-0.7,0.2-1.5,0.9-1.7l9.1-3
					C20.3,110,14.7,115.8,11,116.8L11,116.8z"/>
				<path id="_409268120_7_" class="st3" d="M53.7,91.3l9.2-3c0.8-0.3,1.6,0.2,1.9,1c0.8,3.1,1.7,6.2,2.7,9.3
					C64,99.8,56.3,98.1,53.7,91.3L53.7,91.3z"/>
				<path id="_409267040_7_" class="st3" d="M99.9,190.6c0.8,3.1,1.4,6.2,1.9,9c0.1,0.7-0.3,1.3-0.9,1.5l-8.6,2.8
					C91,200.5,92.7,192.5,99.9,190.6L99.9,190.6z"/>
				<path id="_409266752_7_" class="st3" d="M56.2,215.6l-9,2.9c-2.1,0.7-2.1-2.6-2.7-5.4c-0.3-1.6-0.7-3.2-1.1-4.8
					C48.9,207.4,54.2,210.4,56.2,215.6L56.2,215.6z"/>
			</g>
			<path id="_409266968_7_" class="st3" d="M81.5,144.3c4.7,14.3-3.2,29.8-17.5,34.4s-29.7-3.2-34.4-17.6
				c-4.7-14.3,3.2-29.8,17.5-34.4C61.4,122.1,76.8,130,81.5,144.3L81.5,144.3z"/>
			<ellipse transform="matrix(0.9509 -0.3094 0.3094 0.9509 -56.0567 30.7732)" class="st1" cx="69" cy="192.1" rx="6.5" ry="6.6"/>
			
				<ellipse transform="matrix(0.9509 -0.3094 0.3094 0.9509 -32.7622 18.8873)" class="st1" cx="43.2" cy="112.7" rx="6.5" ry="6.6"/>
			<g>
				<path id="_409266824_4_" class="st0" d="M67.6,148.8c2.1,6.4-5.6,11.5-6.7,8c-0.3-0.9,0.2-1.8,1.1-2.1c4.7-1.5,2.4-8.8-2.4-7.2
					c-6.1,2,2.3,10.8-7,13.8c-9,2.9-13.4-10.8-4.5-13.7c2.1-0.7,3.2,2.5,1,3.2c-4.7,1.5-2.4,8.8,2.4,7.2c6.1-2-2.3-10.8,7-13.8
					C62.3,143,66.3,145.1,67.6,148.8L67.6,148.8z"/>
				<path id="_409267328_4_" class="st0" d="M46.7,155.6c0.7,2.1-2,2.4-3.9,3c-2.1,0.7-3.2-2.5-1-3.2
					C43.7,154.8,46.1,153.6,46.7,155.6z"/>
				<path id="_409266872_4_" class="st0" d="M70.3,147.9c0.7,2.1-2,2.4-3.9,3c-2.1,0.7-3.2-2.5-1-3.2
					C67.3,147.2,69.7,145.9,70.3,147.9z"/>
			</g>
		</g>
	</g>
	<g>
		<path class="st4" d="M108.2,82.9L90.5,98.9l4.2,69c0.4,6.4,5.9,11.2,12.3,10.8l115.5-7.1c6.4-0.4,11.2-5.9,10.8-12.3l-4.2-69
			l-19.5-13.3"/>
		
			<rect x="109.9" y="36.6" transform="matrix(0.9981 -6.128485e-02 6.128485e-02 0.9981 -5.2364 9.9473)" class="st5" width="99.3" height="107.5"/>
		<path class="st6" d="M181.8,144.1l-39.3,2.4l-52-47.6l4.2,69c0.4,6.4,5.9,11.2,12.3,10.8l115.5-7.1c6.4-0.4,11.2-5.9,10.8-12.3
			l-4.2-69L181.8,144.1z"/>
		<path class="st7" d="M104.9,177l38.6-39.6c10.1-10.4,26.4-11.4,37.7-2.3l43.1,34.6L104.9,177z"/>
		<g>
			<path class="st8" d="M187,68.7c3.4-3.8,3-9.6-0.8-12.9c-3.8-3.4-9.6-3-12.9,0.8L187,68.7z"/>
			<path class="st9" d="M159.2,105l-10,11.3c-4.5,5.1-12.4,5.6-17.5,1.1l0,0c-5.1-4.5-5.6-12.4-1.1-17.5l10-11.3L159.2,105z"/>
		</g>
		<polygon class="st4" points="159.2,105 172.4,116.7 165.3,124.7 152.2,113 		"/>
		<polygon class="st10" points="159.2,105 140.6,88.6 157.1,42.3 203.1,83 		"/>
		<polygon class="st11" points="191.9,88.7 203.1,83 157.1,42.3 152.9,54.2 		"/>
		<path class="st2" d="M141,55.3c-0.5,0-1-0.1-1.3-0.5c-0.4-0.3-0.6-0.8-0.6-1.3c0-0.5,0.1-1,0.5-1.3c0.3-0.4,0.8-0.6,1.3-0.6
			c0.5,0,1,0.1,1.3,0.5c0.4,0.3,0.6,0.8,0.6,1.3s-0.1,1-0.5,1.3C141.9,55,141.5,55.3,141,55.3z"/>
		<path class="st2" d="M119.3,56.6c-1,0.1-1.9-0.7-2-1.7s0.7-1.9,1.7-2l11.3-0.7c1-0.1,1.9,0.7,2,1.7c0.1,1-0.7,1.9-1.7,2
			L119.3,56.6z"/>
		<path class="st2" d="M120.2,72.4c-1,0.1-1.9-0.7-2-1.7c-0.1-1,0.7-1.9,1.7-2l13.6-0.8c1-0.1,1.9,0.7,2,1.7c0.1,1-0.7,1.9-1.7,2
			L120.2,72.4z"/>
		<path class="st2" d="M107.1,180.7c-7.4,0.5-13.8-5.2-14.2-12.6l-4.2-69c0-0.6,0.2-1.1,0.6-1.5l17.7-16.1l0,0l0.4-0.3l-2.5-41.3
			c-0.1-1,0.7-1.9,1.7-2l34.4-2.1c1-0.1,1.9,0.7,2,1.7c0.1,1-0.7,1.9-1.7,2l-32.5,2l4.6,74.7c0,0,0,0,0,0c0,0,0,0,0,0.1l0,0.4
			l25.7,22.7l3.2-3.3c5.2-5.3,12.2-8.5,19.6-9c0.3,0,0.6,0,0.9,0l2.4-0.1l-12.8-11.3l-1.6,1.9c-2.5,2.9-6,4.6-9.8,4.8
			s-7.5-1-10.3-3.6c-2.9-2.5-4.6-6-4.8-9.8s1-7.5,3.6-10.3l9.7-11l16.3-45.9c0.2-0.6,0.7-1,1.3-1.2c0.1,0,0.2,0,0.4-0.1
			c0.5,0,1,0.1,1.3,0.5L173.2,54l0.6-0.4c1.7-1.2,3.6-1.8,5.6-2c2.9-0.2,5.8,0.8,8,2.7c2.2,2,3.5,4.6,3.7,7.6c0.1,2-0.3,4.1-1.3,5.8
			l-0.4,0.7l14.9,13.1c0.5,0.4,0.7,1,0.6,1.6c-0.1,0.6-0.5,1.1-1,1.4l-41.4,20.7l11.1,9.8c0.8,0.7,0.8,1.9,0.2,2.6l-8.1,9.1l1.8,0.2
			c5.4,0.7,10.6,2.9,14.8,6.3l3.6,2.9l22.7-25.7l0-0.4l0-0.1L206.3,72c-0.1-1,0.7-1.9,1.7-2s1.9,0.7,2,1.7l0.2,3.5l0.4,0.3l0,0
			l18.8,12.8l0.7,0.5c0.5,0.3,0.8,0.8,0.8,1.4l4.2,69c0.5,7.4-5.2,13.8-12.6,14.2L107.1,180.7z M107.6,176.9l114.1-7l-41.7-33.4
			c-5.1-4.1-11.5-6.2-18-5.8c-6.5,0.4-12.6,3.2-17.2,7.9l-22.6,23.2l-3.9,4L107.6,176.9z M188.9,138.8l36.6,29.4
			c0.1,0,0.1,0.1,0.2,0.1l0.5,0.5l0.7-0.4c3.1-1.9,4.9-5.3,4.6-8.9l-4-64.5L188.9,138.8z M96.6,167.8c0.2,3.6,2.4,6.8,5.7,8.3
			l0.7,0.3l0.5-0.6c0-0.1,0.1-0.1,0.1-0.2l32.8-33.7l-43.7-38.7L96.6,167.8z M154.8,112.8l10.4,9.2l4.6-5.2l-10.4-9.2L154.8,112.8z
			 M132.1,101c-1.9,2.1-2.8,4.8-2.6,7.6c0.2,2.8,1.4,5.4,3.5,7.3c2.1,1.9,4.8,2.8,7.6,2.6c2.8-0.2,5.4-1.4,7.3-3.5l8.7-9.9l-15.8-14
			L132.1,101z M212.2,106.8l14.1-16L210.5,80L212.2,106.8z M93.3,98.9l16,14.2l-1.7-27.2L93.3,98.9z M142.8,88l16.7,14.8l29-14.5
			l-34.9-30.8L142.8,88z M155,53.6l37.1,32.8l7.7-3.8l-41.9-37.1L155,53.6z M179.7,55.4c-0.8,0-1.6,0.2-2.3,0.5l-1.4,0.6l10.8,9.6
			l0.4-1.5c0.2-0.8,0.3-1.6,0.2-2.4c-0.1-2-1-3.7-2.5-5C183.5,55.9,181.6,55.2,179.7,55.4z"/>
		<path class="st9" d="M195.4,47.7c-0.5,0-1-0.1-1.3-0.5c-0.8-0.7-0.8-1.9-0.2-2.6l10.7-12.1c0.3-0.4,0.8-0.6,1.3-0.6
			c0.5,0,1,0.1,1.3,0.5c0.8,0.7,0.8,1.9,0.2,2.6L196.7,47C196.3,47.4,195.9,47.6,195.4,47.7z"/>
		<path class="st9" d="M184.4,42.5c-1,0.1-1.9-0.7-2-1.7l-0.3-5.7c-0.1-1,0.7-1.9,1.7-2c1-0.1,1.9,0.7,2,1.7l0.3,5.7
			C186.2,41.5,185.5,42.4,184.4,42.5z"/>
		<path class="st9" d="M201.6,57.7c-1,0.1-1.9-0.7-2-1.7c-0.1-1,0.7-1.9,1.7-2l5.8-0.4c1-0.1,1.9,0.7,2,1.7c0.1,1-0.7,1.9-1.7,2
			L201.6,57.7z"/>
		<path class="st2" d="M151,170.4c-0.6,0-1.2-0.2-1.7-0.6c-0.5-0.4-0.7-1-0.8-1.6c0-0.6,0.2-1.2,0.6-1.7c0.4-0.5,1-0.7,1.6-0.8
			c0.6,0,1.2,0.2,1.7,0.6c0.5,0.4,0.7,1,0.8,1.6s-0.2,1.2-0.6,1.7C152.2,170.1,151.6,170.4,151,170.4z"/>
	</g>
	<g>
		<g>
			<g>
				<path class="st4" d="M326.6,234.3c-1,0-1.9-0.1-2.9-0.3l-129-29.9c-6.9-1.6-11.2-8.5-9.6-15.4l40.1-172.9
					c1.4-5.8,6.5-9.9,12.5-9.9c1,0,1.9,0.1,2.9,0.3l129,29.9c3.3,0.8,6.2,2.8,8,5.7c1.8,2.9,2.4,6.3,1.6,9.7l-40.1,172.9
					C337.7,230.2,332.6,234.3,326.6,234.3C326.6,234.3,326.6,234.3,326.6,234.3z"/>
			</g>
			<g>
				<path class="st2" d="M237.7,7.7c0.8,0,1.6,0.1,2.5,0.3l129,29.9c5.8,1.4,9.5,7.2,8.1,13l-40.1,172.9c-1.2,5-5.6,8.4-10.6,8.4
					c-0.8,0-1.6-0.1-2.5-0.3l-129-29.9c-5.8-1.4-9.5-7.2-8.1-13l40.1-172.9C228.3,11.1,232.7,7.7,237.7,7.7 M237.7,3.9
					c-6.9,0-12.8,4.7-14.3,11.4l-40.1,172.9c-1.8,7.9,3.1,15.8,11,17.7l129,29.9c1.1,0.3,2.2,0.4,3.3,0.4c6.9,0,12.8-4.7,14.3-11.4
					l40.1-172.9c1.8-7.9-3.1-15.8-11-17.7L241,4.3C239.9,4,238.8,3.9,237.7,3.9L237.7,3.9z"/>
			</g>
		</g>
		<g id="g7750_2_" transform="translate(18.5,457.4355)">
			<g id="path7752_2_">
				<path class="st12" d="M213.7-424.9l-36.9,159.3c-0.3,1.3,0.5,2.7,1.7,2.9l36.1,8.4l77.3,17.9l15.4,3.6c1.2,0.3,2.5-0.6,2.8-1.9
					L344-380.9l0.3-1.5c0-0.2,0.1-0.4,0-0.6l-18.4-4.3c-5-1.2-8.1-6.5-6.9-11.8l4.2-18.1c-0.2-0.1-0.3-0.2-0.6-0.3l-1.7-0.4
					l-101.2-23.5c-1.2-0.3-2.5,0.6-2.8,1.9L213.7-424.9z"/>
			</g>
		</g>
		<g id="g7754_2_" transform="translate(257.3203,504.5)">
			<g id="path7756_2_">
				<path class="st13" d="M59.5-470.2c13,23.1,17.1,56.9,9,92c-1.8,7.6-4,14.9-6.7,21.8c-0.9,2.2-1.8,4.4-2.7,6.5
					c-1.1,2.6-2.3,5.1-3.6,7.6c-11.7,23-28.1,40.3-46,48.7l43.6,10.1l15.4,3.6c1.2,0.3,2.5-0.6,2.8-1.9l6.3-27l8.3-35.8l19.4-83.4
					l0.3-1.5c0-0.2,0.1-0.4,0-0.6l-21-34.2c-0.2-0.1-0.3-0.2-0.6-0.3l-1.7-0.4L59.5-470.2z"/>
			</g>
		</g>
		<g id="g7758_2_" transform="translate(331.5508,504.1592)">
			<g id="path7760_2_">
				<path class="st14" d="M10.3-463.9l-4.2,18.1c-1.2,5.3,1.9,10.6,6.9,11.8l18.4,4.3c-0.1-0.4-0.4-0.7-0.9-1.6l-19-30.9
					C10.9-463.2,10.6-463.6,10.3-463.9"/>
			</g>
		</g>
		<g id="g7762_2_" transform="translate(331.5508,504.1592)">
			<g id="path7764_2_">
				<path class="st2" d="M29.6-428.1c-0.1,0-0.3,0-0.4-0.1l-16.7-3.9c-3-0.7-5.4-2.6-7-5.3c-1.6-2.7-2-5.8-1.3-8.9l4.2-18.1
					c0.2-1,1.3-1.7,2.3-1.5c1,0.2,1.7,1.3,1.5,2.3L8-445.3c-0.5,2.1-0.2,4.2,0.9,6c1,1.8,2.6,3,4.5,3.4l16.7,3.9
					c1,0.2,1.7,1.3,1.5,2.3C31.3-428.8,30.5-428.1,29.6-428.1z"/>
			</g>
		</g>
		<g id="g7766_2_" transform="translate(413.1929,241.0635)">
			<g id="path7768_2_">
				<path class="st2" d="M-86.9-14.4c-0.3,0-0.6,0-0.9-0.1l-128.8-29.9c-1.1-0.3-2.1-1-2.7-2c-0.6-1-0.7-2.1-0.5-3.3l22.4-96.6
					c0,0,0,0,0-0.1l17.9-77.1c0.3-1.1,0.9-2.1,1.9-2.7c1-0.7,2.1-0.9,3.3-0.6L-71.5-203c1.4,0.3,1.9,1.2,2.6,2.3l0.3,0.5l19.8,32.2
					c0.3,0.5,0.4,1,0.2,1.5c0.1,0.3,0.1,0.7,0,1L-82.7-17.9C-83.2-15.8-85-14.4-86.9-14.4z M-193-148.2
					C-193-148.2-193-148.2-193-148.2l-23.1,99.4c0,0.2,0,0.3,0.1,0.4c0,0.1,0.1,0.1,0.2,0.2L-87-18.3c0.2,0,0.4-0.1,0.5-0.4
					l34.2-147.5l-19.9-32.3c-0.1-0.2-0.3-0.5-0.4-0.6L-175.3-223c-0.1,0-0.2,0-0.2,0.1c-0.1,0-0.2,0.2-0.2,0.4L-193-148.2z"/>
			</g>
		</g>
		<g>
			<g id="g7770_2_" transform="translate(330.2446,64.9756)">
				<g id="path7772_2_">
					<path class="st2" d="M-37.6,139.4C-37.6,139.4-37.7,139.4-37.6,139.4c-3.2-0.4-4-2.9-4.5-4.3c-0.1-0.4-0.4-1-0.5-1.2
						c-0.2,0-0.7,0.5-1.2,1.1c-0.5,0.5-1,1.1-1.7,1.7c-0.9,0.7-1.8,1-2.6,0.9c-1.2-0.2-2-1.3-2.7-2.3c-0.7-1.2-1.1-1-2.2-0.4
						c-1.2,0.6-3.2,1.7-5.1-1.2c-0.3-0.4-0.2-0.9,0.2-1.2c0.4-0.3,0.9-0.2,1.2,0.2c1.1,1.7,1.8,1.3,3,0.7c1.1-0.6,2.9-1.5,4.4,1
						c0.4,0.6,1,1.5,1.5,1.6c0.3,0.1,0.7-0.1,1.3-0.5c0.6-0.5,1.1-1,1.5-1.5c0.8-0.9,1.5-1.7,2.6-1.6c1.2,0.1,1.6,1.2,1.9,2.3
						c0.5,1.5,1,3,3,3.2c0.5,0.1,0.8,0.5,0.7,0.9C-36.8,139-37.2,139.4-37.6,139.4z"/>
				</g>
			</g>
			<g id="g7774_2_" transform="translate(423.1602,447.0527)">
				<g id="path7776_2_">
					<path class="st14" d="M-96-312.1l6.9,3.9l3.4-5.9c1.1-1.9,0.4-4.3-1.5-5.4c-1.9-1.1-4.3-0.4-5.4,1.5L-96-312.1z"/>
				</g>
			</g>
			<g id="g7778_2_" transform="translate(325.644,101.1182)">
				<g id="path7780_2_">
					<path class="st15" d="M-32.3,95.3l-0.8,6.7c0,0.4,0,0.5,0.4,0.2l5.4-4.1l5.8-4.4l-3.1-6.1l-6.8,0.5L-32.3,95.3z"/>
				</g>
			</g>
			<g id="g7782_2_" transform="translate(412.0854,441.0947)">
				<g id="path7784_2_">
					<path class="st16" d="M-87.3-305.5l-30.6,53.6l4.9,2.8l4.9,2.8l28.3-49.7l2.2-3.9c0.5-0.8,0.2-1.9-0.6-2.4l-6.9-3.9
						C-85.8-306.6-86.8-306.3-87.3-305.5"/>
				</g>
			</g>
			<g id="g7786_2_" transform="translate(452.5229,474.4854)">
				<g id="path7788_2_">
					<path class="st17" d="M-118.6-343.4l-3.4,5.9l3.4,2l3.4-5.9c1.1-1.9,0.4-4.3-1.5-5.4c-0.6-0.4-1.3-0.5-2-0.5
						C-117.9-346.2-117.9-344.7-118.6-343.4"/>
				</g>
			</g>
			<g id="g7790_2_" transform="translate(441.9307,407.96)">
				<g id="path7792_2_">
					<path class="st18" d="M-112.9-264.7l-27,47.4l-1.3,2.3l3.4,2l28.3-49.7l2.2-3.9c0.5-0.8,0.2-1.9-0.6-2.4l-3.4-2
						c0.8,0.5,1.1,1.5,0.7,2.4L-112.9-264.7z"/>
				</g>
			</g>
			<g id="g7794_2_" transform="translate(357.9888,127.2178)">
				<g id="path7796_2_">
					<path class="st19" d="M-57.3,65.7l-5.8,4.4l-1.8,1.3l-0.5,4.5c0,0.4,0,0.5,0.4,0.2l5.4-4.1l5.8-4.4L-57.3,65.7z"/>
				</g>
			</g>
			<g id="g7798_2_" transform="translate(461.3545,402.1719)">
				<g id="path7800_2_">
					<path class="st2" d="M-134.3-233.6c-0.1,0-0.3,0-0.4-0.1c-0.4-0.2-0.5-0.7-0.3-1.1l10.6-18.6l-5-2.8c-0.4-0.2-0.5-0.7-0.3-1.1
						c0.2-0.4,0.7-0.5,1.1-0.3l5.7,3.2c0.2,0.1,0.3,0.3,0.4,0.5s0,0.4-0.1,0.6l-11,19.3C-133.7-233.8-134-233.6-134.3-233.6z"/>
				</g>
			</g>
			<g id="g7802_2_" transform="translate(374.0615,313.9443)">
				<g id="path7804_2_">
					<path class="st2" d="M-70-118.3c-0.1,0-0.3,0-0.4-0.1l-9.9-5.6c-0.2-0.1-0.3-0.3-0.4-0.5s0-0.4,0.1-0.6l14.4-25.2
						c0.2-0.4,0.7-0.5,1.1-0.3c0.4,0.2,0.5,0.7,0.3,1.1l-14,24.5l8.4,4.8l30.2-52.9c0.1-0.2,0.2-0.5,0.1-0.7
						c-0.1-0.2-0.2-0.4-0.4-0.5l-6.9-3.9c-0.2-0.1-0.5-0.1-0.7-0.1c-0.2,0.1-0.4,0.2-0.5,0.4l-12.8,22.5c-0.2,0.4-0.7,0.5-1.1,0.3
						c-0.4-0.2-0.5-0.7-0.3-1.1l12.8-22.5c0.3-0.6,0.9-1,1.6-1.2c0.7-0.2,1.4-0.1,1.9,0.2l6.9,3.9c0.6,0.3,1,0.9,1.2,1.6
						c0.2,0.7,0.1,1.4-0.2,2l-30.6,53.6C-69.4-118.4-69.7-118.3-70-118.3z"/>
				</g>
			</g>
			<g id="g7806_2_" transform="translate(331.5225,66.168)">
				<g id="path7808_2_">
					<path class="st2" d="M-38.9,138.2c-0.1,0-0.3,0-0.4-0.1c-0.5-0.3-0.5-0.8-0.4-1.1l1.6-14c0-0.3,0.2-0.5,0.5-0.6
						c0.2-0.1,0.5-0.1,0.8,0l9.9,5.6c0.2,0.1,0.4,0.4,0.4,0.7c0,0.3-0.1,0.5-0.3,0.7l-11.2,8.5c0,0,0,0,0,0
						C-38.3,138-38.6,138.2-38.9,138.2z M-38.6,137.2L-38.6,137.2L-38.6,137.2z M-36.7,124.4l-1.3,11.2l9-6.8L-36.7,124.4z"/>
				</g>
			</g>
			<g id="g7810_2_" transform="translate(423.1602,447.0527)">
				<g id="path7812_2_">
					<path class="st2" d="M-89.1-307.3c-0.1,0-0.3,0-0.4-0.1l-6.9-3.9c-0.2-0.1-0.3-0.3-0.4-0.5c-0.1-0.2,0-0.4,0.1-0.6l3.4-5.9
						c0.6-1.1,1.7-1.9,2.9-2.2c1.2-0.3,2.5-0.2,3.6,0.5c2.3,1.3,3.1,4.2,1.8,6.5l-3.4,5.9C-88.6-307.5-88.9-307.3-89.1-307.3z
						 M-94.9-312.4l5.4,3.1l2.9-5.2c0.9-1.5,0.3-3.4-1.2-4.3c-0.7-0.4-1.6-0.5-2.4-0.3c-0.8,0.2-1.5,0.7-1.9,1.5L-94.9-312.4z"/>
				</g>
			</g>
		</g>
		<g>
			<g>
				<path class="st20" d="M231.1,116c-0.8-0.2-1.6,0.3-1.8,1.1l-4.1,17.5c-0.2,0.8,0.3,1.6,1.1,1.8l17.5,4.1
					c0.8,0.2,1.6-0.3,1.8-1.1l2-8.8c0.2-0.8,1-1.3,1.8-1.1s1.3,1,1.1,1.8l-2,8.8c-0.6,2.4-3,3.9-5.4,3.4l-17.5-4.1
					c-2.4-0.6-3.9-3-3.4-5.4l4.1-17.5c0.6-2.4,3-3.9,5.4-3.4l14.6,3.4c0.8,0.2,1.3,1,1.1,1.8c-0.2,0.8-1,1.3-1.8,1.1L231.1,116z
					 M252.3,119.8c0.7-0.4,1.6-0.2,2.1,0.5c0.4,0.7,0.2,1.6-0.5,2.1l-16.2,10.1c-0.7,0.4-1.6,0.2-2.1-0.5l-3.4-5.4
					c-0.4-0.7-0.2-1.6,0.5-2.1c0.7-0.4,1.6-0.2,2.1,0.5l2.6,4.1L252.3,119.8z"/>
			</g>
		</g>
		<g>
			<g>
				<path class="st2" d="M320,90c-0.2-0.4-0.6-0.8-1.1-0.9c-0.2-0.1-0.5-0.1-0.7-0.1l-9.4,1c-1,0.1-1.8,1.1-1.7,2.1s1.1,1.8,2.1,1.7
					l4.9-0.5l-9.4,11.7l-6.9-5.5c-0.8-0.7-2-0.5-2.7,0.3c0,0,0,0,0,0l-10,12.5c-0.7,0.8-0.5,2,0.3,2.7c0,0,0,0,0,0
					c0.8,0.7,2,0.5,2.7-0.3c0,0,0,0,0,0l8.8-11.1l6.9,5.5c0.8,0.7,2,0.5,2.7-0.3c0,0,0,0,0,0L317,95.6l0.5,4.9
					c0.1,1,1.1,1.8,2.1,1.7s1.8-1.1,1.7-2.1l-1-9.4C320.2,90.4,320.1,90.2,320,90L320,90z"/>
			</g>
			<g>
				<path class="st21" d="M319.3,89.1c-0.2-0.4-0.6-0.8-1.1-0.9c-0.2-0.1-0.5-0.1-0.7-0.1l-9.4,1c-1,0.1-1.8,1.1-1.7,2.1
					s1.1,1.8,2.1,1.7l4.9-0.5l-9.4,11.7l-6.9-5.5c-0.8-0.7-2-0.5-2.7,0.3c0,0,0,0,0,0l-10,12.5c-0.7,0.8-0.5,2,0.3,2.7c0,0,0,0,0,0
					c0.8,0.7,2,0.5,2.7-0.3c0,0,0,0,0,0l8.8-11.1l6.9,5.5c0.8,0.7,2,0.5,2.7-0.3c0,0,0,0,0,0l10.5-13.2l0.5,4.9
					c0.1,1,1.1,1.8,2.1,1.7c1-0.1,1.8-1.1,1.7-2.1l-1-9.4C319.5,89.5,319.4,89.3,319.3,89.1L319.3,89.1z"/>
			</g>
		</g>
		<g>
			<g>
				<g>
					<path class="st2" d="M267.3,87.5l-1.4-5.7c-0.3-1,0.4-2.1,1.4-2.3c1-0.3,2.1,0.4,2.3,1.4l0.9,3.8l9.5-2.3
						c1-0.3,2.1,0.4,2.3,1.4s-0.4,2.1-1.4,2.3l-11.4,2.8C268.6,89.2,267.6,88.5,267.3,87.5L267.3,87.5z M260.9,76.1l-11.7-7.1
						c-0.9-0.6-2.1-0.3-2.7,0.7s-0.3,2.1,0.7,2.7l11.7,7.1c0.9,0.6,2.1,0.3,2.7-0.7S261.8,76.7,260.9,76.1z M272.3,96
						c-0.3-1-1.3-1.7-2.3-1.4l-5,1.2l-1.2-5c-0.3-1-1.3-1.7-2.3-1.4s-1.7,1.3-1.4,2.3l1.2,5l-5,1.2c-1,0.3-1.7,1.3-1.4,2.3
						c0.3,1,1.3,1.7,2.3,1.4l5-1.2l1.2,5c0.3,1,1.3,1.7,2.3,1.4c1-0.3,1.7-1.3,1.4-2.3l-1.2-5l5-1.2C271.9,98.1,272.6,97.1,272.3,96
						L272.3,96z M252.8,89.5l-11.7-7.1c-0.9-0.6-2.1-0.3-2.7,0.7c-0.6,0.9-0.3,2.1,0.7,2.7l11.7,7.1c0.9,0.6,2.1,0.3,2.7-0.7
						C254,91.2,253.7,90,252.8,89.5z"/>
				</g>
			</g>
			<g>
				<g>
					<path class="st22" d="M267.9,86.5l-1.4-5.7c-0.3-1,0.4-2.1,1.4-2.3s2.1,0.4,2.3,1.4l0.9,3.8l9.5-2.3c1-0.3,2.1,0.4,2.3,1.4
						s-0.4,2.1-1.4,2.3l-11.4,2.8C269.2,88.2,268.2,87.6,267.9,86.5L267.9,86.5z M261.5,75.1l-11.7-7.1c-0.9-0.6-2.1-0.3-2.7,0.7
						c-0.6,0.9-0.3,2.1,0.7,2.7l11.7,7.1c0.9,0.6,2.1,0.3,2.7-0.7S262.4,75.7,261.5,75.1z M272.9,95.1c-0.3-1-1.3-1.7-2.3-1.4
						l-5,1.2l-1.2-5c-0.3-1-1.3-1.7-2.3-1.4s-1.7,1.3-1.4,2.3l1.2,5l-5,1.2c-1,0.3-1.7,1.3-1.4,2.3c0.3,1,1.3,1.7,2.3,1.4l5-1.2
						l1.2,5c0.3,1,1.3,1.7,2.3,1.4c1-0.3,1.7-1.3,1.4-2.3l-1.2-5l5-1.2C272.5,97.1,273.2,96.1,272.9,95.1L272.9,95.1z M253.4,88.5
						l-11.7-7.1c-0.9-0.6-2.1-0.3-2.7,0.7c-0.6,0.9-0.3,2.1,0.7,2.7l11.7,7.1c0.9,0.6,2.1,0.3,2.7-0.7
						C254.6,90.2,254.4,89,253.4,88.5z"/>
				</g>
			</g>
		</g>
		<g>
			<g>
				<path class="st2" d="M281.7,134.1l-2-3.2c-0.2-0.3-0.6-0.4-0.9-0.2c-0.3,0.2-0.4,0.6-0.2,0.9l2,3.2c0.1,0.2,0.2,0.3,0.4,0.3
					s0.3,0,0.5-0.1C281.8,134.8,281.9,134.4,281.7,134.1z M291.4,128.5c-0.4-0.1-0.7,0.1-0.8,0.5l-0.9,3.7c-0.1,0.4,0.1,0.7,0.5,0.8
					c0.4,0.1,0.7-0.1,0.8-0.5l0.9-3.7C291.9,129,291.7,128.6,291.4,128.5z M301.7,135.9c-0.2-0.3-0.6-0.4-0.9-0.2l-3.2,2
					c-0.3,0.2-0.4,0.6-0.2,0.9c0.1,0.2,0.2,0.3,0.4,0.3c0.2,0,0.3,0,0.5-0.1l3.2-2C301.8,136.7,301.9,136.3,301.7,135.9L301.7,135.9
					z M303.4,147.8l-3.7-0.9c-0.4-0.1-0.7,0.1-0.8,0.5c-0.1,0.4,0.1,0.7,0.5,0.8l3.7,0.9c0.4,0.1,0.7-0.1,0.8-0.5
					C303.9,148.2,303.7,147.8,303.4,147.8z M275.8,141.4l-3.7-0.9c-0.4-0.1-0.7,0.1-0.8,0.5c-0.1,0.4,0.1,0.7,0.5,0.8l3.7,0.9
					c0.4,0.1,0.7-0.1,0.8-0.5C276.4,141.8,276.2,141.5,275.8,141.4z M297.8,147.1c1.3-5.6-2.2-11.2-7.8-12.5
					c-5.6-1.3-11.2,2.2-12.5,7.8c-0.5,1.9-0.3,4,0.3,5.8l2.3,8.5l-0.3-0.1c-1.2-0.3-2.5,0.5-2.7,1.7c-0.1,0.6,0,1.2,0.3,1.7
					c-0.5,0.3-0.9,0.8-1,1.4c-0.3,1.2,0.5,2.5,1.7,2.7l1.9,0.4c0,1.5,1,2.8,2.5,3.2c1.5,0.3,3-0.4,3.6-1.8l1.9,0.4
					c1.2,0.3,2.5-0.5,2.7-1.7c0.1-0.6,0-1.2-0.3-1.7c0.5-0.3,0.9-0.8,1-1.4c0.3-1.2-0.5-2.5-1.7-2.7l-0.3-0.1l5.8-6.6
					C296.3,150.8,297.3,149.1,297.8,147.1z M282.5,166.6c-0.8-0.2-1.3-0.8-1.4-1.6l3.4,0.8C284.1,166.4,283.3,166.8,282.5,166.6z
					 M288,165.3l-9.7-2.3c-0.5-0.1-0.9-0.6-0.7-1.2c0.1-0.5,0.6-0.9,1.2-0.7l9.7,2.3c0.5,0.1,0.9,0.6,0.7,1.2
					C289,165,288.5,165.4,288,165.3z M289.2,160.2c0.5,0.1,0.9,0.6,0.7,1.2c-0.1,0.5-0.6,0.9-1.2,0.7l-9.7-2.3
					c-0.5-0.1-0.9-0.6-0.7-1.2c0.1-0.5,0.6-0.9,1.2-0.7L289.2,160.2z M284.1,150.9l2.3-0.8l1.7,1.7l-2.7,6.1l-1.5-0.4L284.1,150.9z
					 M293.9,151.3l-6.3,7.1l-1-0.2l2.7-6l2.8-1c0.3-0.1,0.5-0.5,0.4-0.8c-0.1-0.3-0.5-0.5-0.8-0.4l-2.7,0.9l-2-2
					c-0.2-0.2-0.4-0.2-0.7-0.2l-2.7,0.9l-2-2c-0.3-0.3-0.7-0.3-0.9,0c-0.3,0.3-0.3,0.7,0,0.9l2.1,2.1l-0.3,6.6l-1-0.2l-2.5-9.2
					c0,0,0,0,0-0.1c-0.6-1.6-0.7-3.4-0.3-5.1c1.1-4.9,6-8,11-6.8c4.9,1.1,8,6,6.8,11C296.1,148.5,295.2,150.1,293.9,151.3
					C294,151.3,293.9,151.3,293.9,151.3L293.9,151.3z"/>
			</g>
			<g>
				<path class="st23" d="M288,151.8l-2.7,6.1l-1.5-0.4l0.3-6.7l2.3-0.8L288,151.8z"/>
			</g>
			<g>
				<path class="st22" d="M296.5,146.8c-0.4,1.7-1.3,3.3-2.5,4.5c0,0,0,0,0,0l-6.3,7.1l-1-0.2l2.7-6l2.8-1c0.3-0.1,0.5-0.5,0.4-0.8
					c-0.1-0.3-0.5-0.5-0.8-0.4l-2.7,0.9l-2-2c-0.2-0.2-0.4-0.2-0.7-0.2l-2.7,0.9l-2-2c-0.3-0.3-0.7-0.3-0.9,0
					c-0.3,0.3-0.3,0.7,0,0.9l2.1,2.1l-0.3,6.6l-1-0.2l-2.5-9.2c0,0,0,0,0-0.1c-0.6-1.6-0.7-3.4-0.3-5.1c1.1-4.9,6-8,11-6.8
					C294.6,137,297.6,141.9,296.5,146.8L296.5,146.8z"/>
			</g>
			<g>
				<g>
					<path class="st23" d="M289.9,161.3c-0.1,0.5-0.6,0.9-1.2,0.7l-9.7-2.3c-0.5-0.1-0.9-0.6-0.7-1.2c0.1-0.5,0.6-0.9,1.2-0.7
						l9.7,2.3C289.7,160.3,290,160.8,289.9,161.3z"/>
				</g>
				<g>
					<path class="st23" d="M289.2,164.5c-0.1,0.5-0.6,0.9-1.2,0.7l-9.7-2.3c-0.5-0.1-0.9-0.6-0.7-1.2c0.1-0.5,0.6-0.9,1.2-0.7
						l9.7,2.3C288.9,163.5,289.3,164,289.2,164.5z"/>
				</g>
				<g>
					<path class="st23" d="M284.5,165.8c-0.4,0.6-1.2,1-2,0.8c-0.8-0.2-1.3-0.8-1.4-1.6L284.5,165.8z"/>
				</g>
			</g>
		</g>
		<g>
			<g>
				<path class="st24" d="M230.4,114.7c-0.8-0.2-1.6,0.3-1.8,1.1l-4.1,17.5c-0.2,0.8,0.3,1.6,1.1,1.8l17.5,4.1
					c0.8,0.2,1.6-0.3,1.8-1.1l2-8.8c0.2-0.8,1-1.3,1.8-1.1c0.8,0.2,1.3,1,1.1,1.8l-2,8.8c-0.6,2.4-3,3.9-5.4,3.4l-17.5-4.1
					c-2.4-0.6-3.9-3-3.4-5.4l4.1-17.5c0.6-2.4,3-3.9,5.4-3.4l14.6,3.4c0.8,0.2,1.3,1,1.1,1.8c-0.2,0.8-1,1.3-1.8,1.1L230.4,114.7z
					 M251.5,118.5c0.7-0.4,1.6-0.2,2.1,0.5c0.4,0.7,0.2,1.6-0.5,2.1l-16.2,10.1c-0.7,0.4-1.6,0.2-2.1-0.5l-3.4-5.4
					c-0.4-0.7-0.2-1.6,0.5-2.1c0.7-0.4,1.6-0.2,2.1,0.5l2.6,4.1L251.5,118.5z"/>
			</g>
		</g>
		<g>
			<g>
				<path class="st2" d="M246.7,190.6c-0.1,0-0.1,0-0.2-0.1c-0.6-0.1-1-0.5-1.3-0.9l-7.1-11.4l-11.5,7.2c-0.4,0.2-0.9,0.3-1.4,0.2
					l-0.1,0c0,0-0.1,0-0.1,0c-0.5-0.1-0.9-0.4-1.2-0.8c-0.6-0.9-0.3-2.2,0.7-2.8l11.5-7.2l-7.2-11.5c-0.5-1-0.1-2.2,0.9-2.7
					c0.4-0.2,0.9-0.3,1.4-0.2c0.5,0.1,0.9,0.4,1.2,0.8l7.2,11.5l11.3-7.1c0.4-0.3,1-0.3,1.5-0.2c0.6,0.1,1,0.5,1.3,1
					c0.5,0.9,0.3,2-0.5,2.6l-11.5,7.1l7.2,11.4c0.6,0.9,0.4,2.2-0.5,2.8c0,0-0.1,0-0.1,0C247.7,190.7,247.2,190.7,246.7,190.6z"/>
			</g>
			<g>
				<path class="st9" d="M247.3,189.7c-0.1,0-0.1,0-0.2-0.1c-0.6-0.1-1-0.5-1.3-0.9l-7.1-11.4l-11.5,7.2c-0.4,0.2-0.9,0.3-1.4,0.2
					l-0.1,0c0,0-0.1,0-0.1,0c-0.5-0.1-0.9-0.4-1.2-0.8c-0.6-0.9-0.3-2.2,0.7-2.8l11.5-7.2l-7.2-11.5c-0.5-1-0.1-2.2,0.9-2.7
					c0.4-0.2,0.9-0.3,1.4-0.2c0.5,0.1,0.9,0.4,1.2,0.8l7.2,11.5l11.3-7.1c0.4-0.3,1-0.3,1.5-0.2c0.6,0.1,1,0.5,1.3,1
					c0.5,0.9,0.3,2-0.5,2.6l-11.5,7.1l7.2,11.4c0.6,0.9,0.4,2.2-0.5,2.8c0,0-0.1,0-0.1,0C248.3,189.7,247.7,189.8,247.3,189.7z"/>
			</g>
		</g>
		<g>
			<g id="g7830_2_" transform="translate(293.2144,407.6475)">
				<g id="path7832_2_">
					<path class="st25" d="M27.1-346.8l-46.4-10.8c-0.8-0.2-1.6,0.3-1.8,1.1l-2,8.5c-0.2,0.8,0.3,1.6,1.1,1.8l46.4,10.8
						c0.8,0.2,1.6-0.3,1.8-1.1l2-8.5C28.4-345.8,27.9-346.6,27.1-346.8"/>
				</g>
			</g>
			<g id="g7834_2_" transform="translate(293.2144,407.6475)">
				<g id="path7836_2_">
					<path class="st26" d="M27.1-346.8L14-349.9c0.8,0.2,1.3,1,1.1,1.8l-2,8.5c-0.2,0.8-1,1.3-1.8,1.1l13.2,3.1
						c0.8,0.2,1.6-0.3,1.8-1.1l2-8.5C28.4-345.8,27.9-346.6,27.1-346.8"/>
				</g>
			</g>
			<g id="g7838_2_" transform="translate(128.1699,407.6475)">
				<g id="path7840_2_">
					<path class="st2" d="M189.9-334c-0.2,0-0.4,0-0.6-0.1l-46.4-10.8c-0.7-0.2-1.4-0.6-1.8-1.3c-0.4-0.6-0.5-1.4-0.4-2.1l2-8.5
						c0.4-1.5,1.9-2.5,3.4-2.1c0,0,0,0,0,0l46.4,10.8c0.7,0.2,1.4,0.6,1.8,1.3c0.4,0.6,0.5,1.4,0.4,2.1l-2,8.5
						c-0.2,0.7-0.6,1.4-1.3,1.8C190.9-334.2,190.4-334,189.9-334z M145.4-356.3c-0.1,0-0.1,0-0.1,0.1l-2,8.5c0,0.1,0,0.1,0.1,0.2
						l46.4,10.8c0,0,0.2-0.1,0.2-0.1l2-8.5c0-0.1,0-0.1-0.1-0.1L145.4-356.3C145.4-356.3,145.4-356.3,145.4-356.3z"/>
				</g>
			</g>
		</g>
		<g>
			<g>
				<path class="st27" d="M317.1,15.3c1.3-5.6-2.2-11.2-7.8-12.5c-5.6-1.3-11.2,2.2-12.5,7.8l-20.3-4.7l-4.7,20.3
					c-0.6,2.7,1.1,5.4,3.8,6l51.1,11.9c2.7,0.6,5.4-1.1,6-3.8l4.7-20.3L317.1,15.3z"/>
			</g>
			<g>
				<path class="st2" d="M327.9,46.7c-0.6,0-1.1-0.1-1.7-0.2l-47.7-11.1c0,0,0,0,0,0l-3.4-0.8c-2-0.5-3.6-1.6-4.7-3.4
					c-1.1-1.7-1.4-3.7-0.9-5.7l4.7-20.3c0.2-0.7,0.6-1.2,1.1-1.6c0.6-0.4,1.2-0.5,1.9-0.3l18.1,4.2c2.5-5.5,8.6-8.7,14.7-7.3
					c3.4,0.8,6.2,2.8,8.1,5.8c1.4,2.2,2,4.7,2,7.3l18.1,4.2c0.7,0.2,1.2,0.6,1.6,1.1c0.4,0.6,0.5,1.2,0.3,1.9l-4.7,20.3
					c-0.5,2-1.6,3.6-3.4,4.7C330.6,46.3,329.2,46.7,327.9,46.7z M283.4,31.4l43.9,10.2c0.7,0.2,1.3,0,1.9-0.3c0.6-0.4,1-0.9,1.1-1.6
					l4.1-17.8l-17.8-4.1c-0.7-0.2-1.2-0.6-1.6-1.1c-0.4-0.6-0.5-1.2-0.3-1.9c0.5-2.1,0.1-4.2-1-6c-1.1-1.8-2.9-3-4.9-3.5
					c-4.2-1-8.5,1.7-9.5,5.9c-0.3,1.4-1.7,2.2-3,1.9l-17.8-4.1l-4.1,17.8c-0.2,0.7,0,1.3,0.3,1.9c0.4,0.6,0.9,1,1.6,1.1L283.4,31.4
					C283.3,31.4,283.4,31.4,283.4,31.4z"/>
			</g>
			<g>
				<path class="st2" d="M323.8,35.4c-0.2,0-0.4,0-0.6-0.1l-40.6-9.4c-1.4-0.3-2.2-1.7-1.9-3c0.3-1.4,1.7-2.2,3-1.9l40.6,9.4
					c1.4,0.3,2.2,1.7,1.9,3C325.9,34.6,324.9,35.4,323.8,35.4z"/>
			</g>
			<g>
				<g>
					<g>
						<path class="st2" d="M307,15.5c-0.2,0-0.3,0-0.5,0c-0.2,0-0.3-0.1-0.5-0.1c-0.2-0.1-0.3-0.1-0.4-0.2c-0.1-0.1-0.3-0.2-0.4-0.3
							c-0.1-0.1-0.2-0.2-0.3-0.4c-0.1-0.1-0.2-0.3-0.2-0.4c-0.1-0.2-0.1-0.3-0.1-0.5c0-0.2,0-0.3,0-0.5c0-0.7,0.3-1.3,0.7-1.8
							c0.9-0.9,2.6-0.9,3.6,0c0.5,0.5,0.7,1.1,0.7,1.8c0,0.2,0,0.3,0,0.5s-0.1,0.3-0.1,0.5c-0.1,0.1-0.1,0.3-0.2,0.4
							c-0.1,0.1-0.2,0.3-0.3,0.4C308.3,15.2,307.7,15.5,307,15.5z"/>
					</g>
				</g>
			</g>
		</g>
	</g>
	<g>
		<path class="st28" d="M64.1,346.4c-7.4,0-13.9-5.3-15.5-12.5L17.4,188.3c-1-4.7,0.1-9.5,3.2-13.3c3-3.7,7.5-5.9,12.3-5.9h313
			c4.8,0,9.3,2.1,12.3,5.9c3,3.7,4.2,8.6,3.2,13.3l-31.3,145.5c-1.6,7.2-8.1,12.5-15.5,12.5H64.1z"/>
		<polygon class="st29" points="326.9,343.1 281,345.6 323.5,169.2 360.9,175.3 		"/>
		<path class="st2" d="M345.9,172.8c7.7,0,13.5,7.1,11.9,14.7l-31.3,145.5c-1.2,5.6-6.2,9.6-11.9,9.6H64.1c-5.7,0-10.7-4-11.9-9.6
			L21,187.6c-1.6-7.6,4.1-14.7,11.9-14.7H345.9 M345.9,165.5h-313c-5.9,0-11.4,2.6-15.1,7.2c-3.7,4.6-5.1,10.5-3.9,16.3l31.3,145.5
			c1.9,8.9,9.9,15.4,19,15.4h250.5c9.1,0,17.1-6.5,19-15.4l31.3-145.5c1.2-5.8-0.2-11.7-3.9-16.3
			C357.3,168.2,351.8,165.5,345.9,165.5L345.9,165.5z"/>
	</g>
	<g>
		<g>
			<path class="st2" d="M240.6,245.5c-0.8-2.2-1.9-4.2-3.2-6.1c-1-1.4-2.1-2.8-3.3-4c-0.9-0.9-1.9-1.7-2.9-2.4c-1-0.7-2-1.4-3.1-1.9
				c-1.1-0.6-2.2-1.1-3.3-1.5c-0.5-0.2-1-0.3-1.5-0.5c-0.5-0.1-1.1-0.2-1.6-0.4c-0.6-0.1-1.2-0.2-1.8-0.3c-0.1,0-0.3,0-0.4,0
				c-0.1,0-0.2,0-0.3,0c-0.4,0-0.8,0-1.2,0c0,0,0,0-0.1,0c-0.1,0-0.2,0-0.3,0c-1.7,0-8.7,0.2-13.9,4.8c-0.4,0.4-0.9,0.8-1.3,1.3
				c-1.5,1.4-3.1,3.3-4.7,5.2c-4.4,5.4-7.6,10.6-7.6,10.6c0,0,0,0,0,0c-3.4-5.1-7.4-10.8-12.6-16c-0.5-0.6-1.1-1.1-1.7-1.6
				c-1-0.8-2.1-1.4-3.2-2c-0.2-0.1-0.3-0.2-0.5-0.2c-1.1-0.5-2.2-1-3.4-1.3c-1-0.3-2-0.5-3-0.7c-0.8-0.1-1.5-0.2-2.3-0.2
				c-0.4,0-0.9,0-1.3,0c-0.2,0-0.3,0-0.3,0c-0.8,0-1.6,0.1-2.4,0.2c-0.8,0.1-1.6,0.3-2.4,0.5c-0.8,0.2-1.5,0.4-2.3,0.7
				c-0.8,0.3-1.5,0.6-2.2,1c-0.7,0.4-1.4,0.8-2.1,1.2c-0.7,0.5-1.4,0.9-2,1.5c-0.6,0.5-1.3,1.1-1.9,1.7c-0.3,0.3-0.6,0.6-0.8,0.9
				c-0.4,0.4-0.8,0.8-1.2,1.3c-0.2,0.2-0.3,0.4-0.5,0.6c-0.1,0.1-0.2,0.2-0.2,0.3c0,0-0.1,0.1-0.1,0.1c0,0-0.1,0.1-0.1,0.1
				c-0.2,0.3-0.5,0.6-0.7,0.9c-0.4,0.6-0.8,1.3-1.2,1.9c-0.5,0.8-0.9,1.6-1.3,2.4c-0.2,0.4-0.4,0.8-0.6,1.3c0,0,0,0.1,0,0.1
				c-0.2,0.4-0.3,0.8-0.5,1.2c0,0.1,0,0.1-0.1,0.2c-0.2,0.4-0.3,0.8-0.4,1.2c0,0.1,0,0.1-0.1,0.2c-0.2,0.5-0.3,1-0.5,1.6
				c-0.1,0.4-0.2,0.8-0.3,1.2c0,0,0,0,0,0.1c-0.1,0.4-0.2,0.8-0.3,1.2c0,0.1,0,0.2,0,0.2c-2,9.7-1.6,23.1,10.6,34.2
				c0.4,0.4,0.9,0.8,1.4,1.1c0.5,0.3,0.9,0.6,1.4,0.9c0.5,0.3,0.9,0.5,1.4,0.8c0.5,0.2,0.9,0.4,1.4,0.6c0.5,0.2,0.9,0.3,1.4,0.5
				c0.4,0.1,0.9,0.3,1.3,0.4c1.2,0.3,2.5,0.5,3.8,0.5c1.3,0.1,2.6,0,3.8-0.1c1.1-0.1,2.1-0.3,3.2-0.5c0.4-0.1,0.8-0.2,1.2-0.3
				c0.4-0.1,0.9-0.3,1.3-0.4c0.4-0.2,0.9-0.3,1.3-0.5c0.5-0.2,0.9-0.4,1.3-0.6c0.4-0.2,0.9-0.5,1.3-0.7c0.4-0.3,0.9-0.6,1.3-0.9
				c0.4-0.3,0.8-0.7,1.2-1c0.2-0.1,0.3-0.3,0.5-0.4c0.2-0.1,0.3-0.3,0.4-0.5c3-2.6,8.6-10.4,12.6-16.1c0.1,0.1,1.2,1.9,1.3,2.1
				c0.5,0.7,1,1.5,1.5,2.2c0.8,1.2,1.7,2.4,2.6,3.6c1.8,2.4,3.6,4.8,5.7,7c1.4,1.5,3,2.8,4.7,3.9c5.2,3.3,11.7,4.2,17.6,2.6
				c1.2-0.3,2.4-0.7,3.5-1.3c3.8-1.7,7.1-4.7,9.5-8.2c5.7-8.2,7.8-18.6,5.9-28.5C242.1,250.1,241.5,247.7,240.6,245.5z M171.9,275.6
				c-0.3,0.2-0.6,0.5-0.9,0.7c-0.2,0.2-0.4,0.3-0.7,0.5c-2,1.4-4.4,2-6.8,2.2c-1.8,0.1-3.6,0-5.3-0.4c-0.2-0.1-0.5-0.1-0.7-0.2
				c-0.2-0.1-0.4-0.1-0.6-0.2c-0.3-0.1-0.6-0.3-0.9-0.4c-0.3-0.2-0.6-0.3-0.9-0.5c-0.3-0.2-0.6-0.4-0.8-0.6
				c-0.3-0.2-0.5-0.4-0.8-0.6c-0.3-0.2-0.5-0.4-0.8-0.7c-0.3-0.2-0.5-0.5-0.7-0.7c-0.2-0.3-0.5-0.5-0.7-0.8
				c-0.2-0.3-0.4-0.5-0.7-0.8c-0.2-0.3-0.4-0.6-0.6-0.9c-0.2-0.3-0.4-0.6-0.6-0.9c-0.2-0.3-0.4-0.6-0.5-1c-0.2-0.3-0.3-0.7-0.5-1
				c-0.2-0.3-0.3-0.7-0.4-1c-0.1-0.4-0.3-0.7-0.4-1.1c-0.1-0.4-0.2-0.7-0.3-1.1c-0.1-0.4-0.2-0.8-0.3-1.1c-0.1-0.4-0.2-0.8-0.2-1.2
				c-0.1-0.4-0.1-0.8-0.2-1.2c0-0.4-0.1-0.8-0.1-1.2c0-0.4,0-0.8-0.1-1.2c0-0.2,0-0.3,0-0.5c0-12.3,11.1-25.1,23.5-17.2
				c2,1.2,3.7,2.9,5.1,4.8c3.1,4,6.1,8.2,8.9,12.4c-1.4,2.2-2.8,4.3-4.3,6.4c-1.2,1.8-2.5,3.5-3.8,5.2
				C174.6,272.8,173.3,274.4,171.9,275.6z M225.1,277.2c-2.2,1.2-4.4,1.7-6,1.9c-1.5,0.2-3,0.1-4.5-0.2c-1.5-0.3-2.9-0.9-4.2-1.7
				c-1.3-0.8-2.5-2-3.6-3.1c-0.9-0.9-1.7-1.9-2.5-2.9c-0.9-1.1-1.8-2.3-2.6-3.5c-1-1.4-2-2.8-2.9-4.2c-0.2-0.3-0.4-0.6-0.6-0.9
				c-0.6-1-1.2-1.9-1.9-3c3.4-5.3,7-10.7,11.4-15.3c1.6-1.7,3.5-2.9,5.7-3.5l0,0c3.2-0.9,6.8-1,9.8,0.3c2.1,0.9,4.1,2.4,5.6,4.2
				c3.3,3.9,5,9.1,5,14.3C233.8,267.4,230.3,274,225.1,277.2z"/>
		</g>
		<path class="st30" d="M239.2,241.5c-0.8-2.2-1.9-4.2-3.2-6.1c-1-1.4-2.1-2.8-3.3-4c-0.9-0.9-1.9-1.7-2.9-2.4c-1-0.7-2-1.4-3.1-1.9
			c-1.1-0.6-2.2-1.1-3.3-1.5c-0.5-0.2-1-0.3-1.5-0.5c-0.5-0.1-1.1-0.2-1.6-0.4c-0.6-0.1-1.2-0.2-1.8-0.3c-0.1,0-0.3,0-0.4,0
			c-0.1,0-0.2,0-0.3,0c-0.4,0-0.8,0-1.2,0c0,0,0,0-0.1,0c-0.1,0-0.2,0-0.3,0c-1.7,0-8.7,0.2-13.9,4.8c-0.4,0.4-0.9,0.8-1.3,1.3
			c-1.5,1.4-3.1,3.3-4.7,5.2c-4.4,5.4-7.6,10.6-7.6,10.6c0,0,0,0,0,0c-3.4-5.1-7.4-10.8-12.6-16c-0.5-0.6-1.1-1.1-1.7-1.6
			c-1-0.8-2.1-1.4-3.2-2c-0.2-0.1-0.3-0.2-0.5-0.2c-1.1-0.5-2.2-1-3.4-1.3c-1-0.3-2-0.5-3-0.7c-0.8-0.1-1.5-0.2-2.3-0.2
			c-0.4,0-0.9,0-1.3,0c-0.2,0-0.3,0-0.3,0c-0.8,0-1.6,0.1-2.4,0.2c-0.8,0.1-1.6,0.3-2.4,0.5c-0.8,0.2-1.5,0.4-2.3,0.7
			c-0.8,0.3-1.5,0.6-2.2,1c-0.7,0.4-1.4,0.8-2.1,1.2c-0.7,0.5-1.4,0.9-2,1.5c-0.6,0.5-1.3,1.1-1.9,1.7c-0.3,0.3-0.6,0.6-0.8,0.9
			c-0.4,0.4-0.8,0.8-1.2,1.3c-0.2,0.2-0.3,0.4-0.5,0.6c-0.1,0.1-0.2,0.2-0.2,0.3c0,0-0.1,0.1-0.1,0.1c0,0-0.1,0.1-0.1,0.1
			c-0.2,0.3-0.5,0.6-0.7,0.9c-0.4,0.6-0.8,1.3-1.2,1.9c-0.5,0.8-0.9,1.6-1.3,2.4c-0.2,0.4-0.4,0.8-0.6,1.3c0,0,0,0.1,0,0.1
			c-0.2,0.4-0.3,0.8-0.5,1.2c0,0.1,0,0.1-0.1,0.2c-0.2,0.4-0.3,0.8-0.4,1.2c0,0.1,0,0.1-0.1,0.2c-0.2,0.5-0.3,1-0.5,1.6
			c-0.1,0.4-0.2,0.8-0.3,1.2c0,0,0,0,0,0.1c-0.1,0.4-0.2,0.8-0.3,1.2c0,0.1,0,0.2,0,0.2c-2,9.7-1.6,23.1,10.6,34.2
			c0.4,0.4,0.9,0.8,1.4,1.1c0.5,0.3,0.9,0.6,1.4,0.9c0.5,0.3,0.9,0.5,1.4,0.8c0.5,0.2,0.9,0.4,1.4,0.6c0.5,0.2,0.9,0.3,1.4,0.5
			c0.4,0.1,0.9,0.3,1.3,0.4c1.2,0.3,2.5,0.5,3.8,0.5c1.3,0.1,2.6,0,3.8-0.1c1.1-0.1,2.1-0.3,3.2-0.5c0.4-0.1,0.8-0.2,1.2-0.3
			c0.4-0.1,0.9-0.3,1.3-0.4c0.4-0.2,0.9-0.3,1.3-0.5c0.5-0.2,0.9-0.4,1.3-0.6c0.4-0.2,0.9-0.5,1.3-0.7c0.4-0.3,0.9-0.6,1.3-0.9
			c0.4-0.3,0.8-0.7,1.2-1c0.2-0.1,0.3-0.3,0.5-0.4c0.2-0.1,0.3-0.3,0.4-0.5c3-2.6,8.6-10.4,12.6-16.1c0.1,0.1,1.2,1.9,1.3,2.1
			c0.5,0.7,1,1.5,1.5,2.2c0.8,1.2,1.7,2.4,2.6,3.6c1.8,2.4,3.6,4.8,5.7,7c1.4,1.5,3,2.8,4.7,3.9c5.2,3.3,11.7,4.2,17.6,2.6
			c1.2-0.3,2.4-0.7,3.5-1.3c3.8-1.7,7.1-4.7,9.5-8.2c5.7-8.2,7.8-18.6,5.9-28.5C240.7,246.1,240,243.8,239.2,241.5z M170.5,271.7
			c-0.3,0.2-0.6,0.5-0.9,0.7c-0.2,0.2-0.4,0.3-0.7,0.5c-2,1.4-4.4,2-6.8,2.2c-1.8,0.1-3.6,0-5.3-0.4c-0.2-0.1-0.5-0.1-0.7-0.2
			c-0.2-0.1-0.4-0.1-0.6-0.2c-0.3-0.1-0.6-0.3-0.9-0.4c-0.3-0.2-0.6-0.3-0.9-0.5c-0.3-0.2-0.6-0.4-0.8-0.6c-0.3-0.2-0.5-0.4-0.8-0.6
			c-0.3-0.2-0.5-0.4-0.8-0.7c-0.3-0.2-0.5-0.5-0.7-0.7c-0.2-0.3-0.5-0.5-0.7-0.8c-0.2-0.3-0.4-0.5-0.7-0.8c-0.2-0.3-0.4-0.6-0.6-0.9
			c-0.2-0.3-0.4-0.6-0.6-0.9c-0.2-0.3-0.4-0.6-0.5-1c-0.2-0.3-0.3-0.7-0.5-1c-0.2-0.3-0.3-0.7-0.4-1c-0.1-0.4-0.3-0.7-0.4-1.1
			c-0.1-0.4-0.2-0.7-0.3-1.1c-0.1-0.4-0.2-0.8-0.3-1.1c-0.1-0.4-0.2-0.8-0.2-1.2c-0.1-0.4-0.1-0.8-0.2-1.2c0-0.4-0.1-0.8-0.1-1.2
			c0-0.4,0-0.8-0.1-1.2c0-0.2,0-0.3,0-0.5c0-12.3,11.1-25.1,23.5-17.2c2,1.2,3.7,2.9,5.1,4.8c3.1,4,6.1,8.2,8.9,12.4
			c-1.4,2.2-2.8,4.3-4.3,6.4c-1.2,1.8-2.5,3.5-3.8,5.2C173.2,268.9,171.9,270.4,170.5,271.7z M223.7,273.3c-2.2,1.2-4.4,1.7-6,1.9
			c-1.5,0.2-3,0.1-4.5-0.2c-1.5-0.3-2.9-0.9-4.2-1.7c-1.3-0.8-2.5-2-3.6-3.1c-0.9-0.9-1.7-1.9-2.5-2.9c-0.9-1.1-1.8-2.3-2.6-3.5
			c-1-1.4-2-2.8-2.9-4.2c-0.2-0.3-0.4-0.6-0.6-0.9c-0.6-1-1.2-1.9-1.9-3c3.4-5.3,7-10.7,11.4-15.3c1.6-1.7,3.5-2.9,5.7-3.5l0,0
			c3.2-0.9,6.8-1,9.8,0.3c2.1,0.9,4.1,2.4,5.6,4.2c3.3,3.9,5,9.1,5,14.3C232.3,263.4,228.8,270.1,223.7,273.3z"/>
	</g>
</g>
</svg>
