<?xml version="1.0" encoding="utf-8"?>
<!-- Generator: Adobe Illustrator 25.0.0, SVG Export Plug-In . SVG Version: 6.00 Build 0)  -->
<svg version="1.1" id="Layer_1" xmlns="http://www.w3.org/2000/svg" xmlns:xlink="http://www.w3.org/1999/xlink" x="0px" y="0px"
	 viewBox="0 0 128 70" style="enable-background:new 0 0 128 70;" xml:space="preserve">
<style type="text/css">
	.st0{fill:#FF492C;}
	.st1{fill:#35414D;}
	.st2{fill:#FFFFFF;}
</style>
<g>
	<g>
		<path class="st0" d="M105.6,3.6l-0.2-0.1l-0.2,0C103,3.1,91,1.6,88.1,1.6c-0.1,0-0.2,0-0.3,0c-0.8,0-1.6,0.3-2.2,0.7
			C83.1,0.7,79.9,0,77.2,0c-2.3,0-4.4,0.5-6.1,1.5C70,2.2,69.1,3,68.2,3.8c0,0-0.1-0.1-0.1-0.1c-2.1-2.2-5-3.3-8.6-3.3l-0.2,0
			c-4.1,0.1-6.9,1.9-8.6,3.5c-1.2-1.4-3.2-2.3-5.6-2.3c-0.2,0-0.5,0-0.8,0c-2.5,0.2-4.8,1.6-8.4,8.1c-1.1-1.4-2.3-2.9-3.4-4.3
			c-1.2-1.4-2.9-2.2-5-2.2c-0.6,0-1.1,0-1.5,0.1c-4.2,0.5-6.4,3.3-6,7.7c0.4,5.6,0.8,11.2,1.3,16.8l0.1,0.6c0.2,1.3,0.7,2.2,1.4,2.9
			c0,0,0.1,0.1,0.1,0.1c0,0,0,0,0.1,0.1c0,0,0,0,0,0c0,0,0.1,0.1,0.1,0.1c0,0,0.1,0.1,0.1,0.1c0,0,0,0,0,0c0,0,0,0,0,0c0,0,0,0,0,0
			c0,0,0.1,0.1,0.1,0.1c0,0,0,0,0,0c0,0,0,0,0.1,0.1c0,0,0,0,0,0c0,0,0.1,0.1,0.1,0.1c0,0,0,0,0.1,0.1c0,0,0,0,0,0
			c0,0,0.1,0.1,0.1,0.1c0,0,0,0,0,0c0,0,0,0,0.1,0.1c0,0,0,0,0,0c0,0,0,0,0,0c0,0,0,0,0.1,0.1c0,0,0,0,0,0c0,0,0,0.1,0.1,0.1
			c0,0,0,0,0,0c0,0,0,0,0,0c0,0,0.1,0.1,0.1,0.1c0.8,0.8,1.9,1.2,2.9,1.2c0.2,0,0.4,0,0.6,0c0.1,0,0.5,0,0.5,0c0.4,0,0.7,0,0.8,0
			c0,0,2.3-0.3,2.6-0.3l0.5-0.1l0.3-0.1c1.6-0.4,2.6-1.2,3.3-2.4c0.6,0.2,1.1,0.4,1.8,0.4l0.3,0l0.1,0c0.7-0.1,2-0.3,3.3-1
			c0.8,1.5,2.1,2.4,3.8,2.5l0.3,0c0.4,0,1.1,0.1,1.3,0.1l0.2,0l0.8,0c3.2-0.2,4.6-1.6,5.2-3.2c1.8,1.3,4,2,6.5,2h0l0.2,0
			c3.4-0.1,6-1.7,8-4.2c1.5,1.6,3.2,2.7,5.8,3.6l0.4,0.1c0.8,0.2,1.3,0.4,1.9,0.4c0.9,0,1.8,0.1,2.7,0.1l0.1,0c0.2,0,0.6,0,1.1-0.1
			c0.1,0,0.2,0,0.2,0l0.2,0l0.2,0c2.9-0.6,5.3-2.6,6.7-5.6c0,0,0,0,0,0c0,0,0,0,0,0c0,0,0,0,0,0c0,0,0,0,0,0c0,0,0,0,0,0
			c0,0,0,0,0,0c0,0,0,0,0,0c0,0,0,0,0,0c0,0,0,0,0,0c0,0,0,0,0,0s0,0,0,0c0,0,0,0,0,0c0,0,0,0,0,0c0,0,0,0,0,0c0,0,0,0,0,0
			c0,0,0,0,0,0c0,0,0,0,0,0c0,0,0,0,0,0c0,0,0,0,0,0c0,0,0,0,0,0c0,0,0,0,0,0c0,0,0,0,0,0c0,0,0,0,0,0c0,0,0,0,0,0c0,0,0,0,0,0
			c0,0,0,0,0,0c0,0,0,0,0,0c0,0,0,0,0,0c0,0,0,0,0,0c0,0,0,0,0,0c0,0,0,0,0,0c0-0.1,0.1-0.1,0.1-0.2c0,0.8-0.1,1.5-0.1,2.3
			C87,28,87.3,32.3,93.6,33c0.6,0.1,1.1,0.1,1.5,0.1c2,0,3.3-0.6,4.2-1.6c0,0,0,0,0.1-0.1c0,0,0,0,0,0c0,0,0-0.1,0.1-0.1
			c0,0,0,0,0,0c0,0,0-0.1,0.1-0.1c0,0,0,0,0,0c0,0,0,0,0,0c0,0,0,0,0.1-0.1c0,0,0,0,0.1-0.1c0,0,0-0.1,0.1-0.1c0,0,0.1-0.1,0.1-0.1
			c0,0,0,0,0,0c0,0,0,0,0,0c0,0,0,0,0,0c0,0,0,0,0.1-0.1c0,0,0,0,0,0c0,0,0,0,0.1-0.1c0,0,0,0,0,0c0,0,0-0.1,0.1-0.1c0,0,0,0,0,0
			c0,0,0-0.1,0.1-0.1c0,0,0,0,0,0c0,0,0,0,0,0c0,0,0,0,0.1-0.1c0,0,0,0,0,0c0,0,0-0.1,0.1-0.1c0,0,0,0,0,0c0,0,0,0,0,0
			c0,0,0,0,0-0.1c1.5-1.5,1.8-3.9,2-5.5c0.1-0.4,0.1-0.9,0.2-1.6c0-0.1,0-0.2,0.1-0.4c0-0.3,0.1-0.5,0.1-0.6
			c0.1-0.8,0.3-2.2,0.4-3.6c1-0.2,2.1-0.7,3-1.7c0,0,0,0,0,0c0,0,0,0,0,0c0,0,0,0,0,0c0,0,0,0,0,0c0,0,0,0,0,0c0,0,0,0,0,0
			c0,0,0,0,0,0c0,0,0,0,0,0c0,0,0,0,0,0c0,0,0,0,0,0c0,0,0,0,0,0c0,0,0,0,0,0c0,0,0,0,0,0c0,0,0,0,0,0c0,0,0,0,0,0c0,0,0,0,0,0
			c0,0,0,0,0,0c0,0,0,0,0,0c0,0,0,0,0,0c0,0,0,0,0,0c0,0,0,0,0,0c0,0,0,0,0,0c0,0,0,0,0,0c0,0,0,0,0,0c0,0,0,0,0,0c0,0,0,0,0,0
			c0,0,0,0,0,0c0,0,0,0,0,0c0,0,0,0,0,0c0,0,0,0,0,0c0,0,0,0,0,0c1.1-1.1,1.9-2.8,2.2-5.4C110.1,7,108.5,4.6,105.6,3.6z"/>
		<path class="st1" d="M104.8,6L104.8,6l-0.1,0C102.7,5.5,90.8,4,88.1,4c-0.1,0-0.2,0-0.2,0c-0.8,0-1.4,0.4-1.8,1c0,0,0,0,0,0
			c0,0,0,0,0,0c0,0,0,0,0,0c0,0,0,0,0,0c0,0,0,0,0,0c0,0,0,0,0,0c0,0,0,0,0,0c0,0,0,0,0,0c0,0,0,0,0,0c0,0,0,0,0,0c0,0,0,0,0,0
			c0,0,0,0,0,0c0,0,0,0,0,0c0,0,0,0,0,0c-2.2-2.1-5.7-3.1-8.6-3.1c-1.9,0-3.5,0.4-4.8,1.2c-2.1,1.3-3.5,2.9-4.1,4.8
			c-0.5-1.2-1.1-2.2-1.9-3c-1.7-1.7-4-2.5-6.8-2.5l-0.2,0c-2.7,0-4.9,1-7.3,3c-0.8,0.7-1.4,1.5-1.9,2.4C50.1,8,50,7.7,49.8,7.3
			c0,0,0,0,0,0c0,0,0,0,0,0c0,0,0,0,0,0c0,0,0,0,0,0c0,0,0,0,0,0c0,0,0,0,0,0c0,0,0,0,0,0c0,0,0,0,0,0c0,0,0,0,0,0c0,0,0,0,0,0
			c0,0,0,0,0,0c0,0,0,0,0,0c0,0,0,0,0,0c0,0,0,0,0,0c0,0,0,0,0,0c0,0,0,0,0,0c0,0,0,0,0,0c0,0,0,0,0,0c0,0,0,0,0,0c0,0,0,0,0,0
			c0,0,0,0,0,0c0,0,0,0,0,0c0,0,0,0,0,0c0,0,0,0,0,0c0,0,0,0,0,0c0,0,0,0,0,0c0,0,0,0,0,0c0,0,0,0,0,0c0,0,0,0,0,0c0,0,0,0,0,0
			c0,0,0,0,0,0C48.9,5.1,47.7,4,45.1,4c-0.2,0-0.4,0-0.6,0c-1.6,0.1-3.6,1-8.1,10.1c-1.5-2-3.1-4-4.6-6c0,0,0,0,0,0c0,0,0,0,0,0
			c0,0,0,0,0,0c0,0,0,0,0,0c0,0,0,0,0,0c0,0,0,0,0,0c0,0,0,0,0,0c0,0,0,0,0,0c0,0,0,0,0,0c0,0,0,0,0,0c0,0,0,0,0,0c0,0,0,0,0,0
			c0,0,0,0,0,0c0,0,0,0,0,0c0,0,0,0,0,0c0,0,0,0,0,0c0,0,0,0,0,0c0,0,0,0,0,0c0,0,0,0,0,0c0,0,0,0,0,0c0,0,0,0,0,0c0,0,0,0,0,0
			c0,0,0,0,0,0c0,0,0,0,0,0c0,0,0,0,0,0c0,0,0,0,0,0c0,0,0,0,0,0c0,0,0,0,0,0c0,0,0,0,0,0c0,0,0,0,0,0c0,0,0,0,0,0c0,0,0,0,0,0
			c0,0,0,0,0,0c0,0,0,0,0,0c0,0,0,0,0,0c0,0,0,0,0,0c0,0,0,0,0,0c0,0,0,0,0,0c0,0,0,0,0,0c0,0,0,0,0,0c0,0,0,0,0,0c0,0,0,0,0,0
			c0,0,0,0,0,0c0,0,0,0,0,0c0,0,0,0,0,0c0,0,0,0,0,0c0,0,0,0,0,0c0,0,0,0,0,0c0,0,0,0,0,0c0,0,0,0,0,0c0,0,0,0,0,0c0,0,0,0,0,0
			c0,0,0,0,0,0c0,0,0,0,0,0c0,0,0,0,0,0c0,0,0,0,0,0c0,0,0,0,0,0c0,0,0,0,0,0c0,0,0,0,0,0c0,0,0,0,0,0c0,0,0,0,0,0c0,0,0,0,0,0
			c0,0,0,0,0,0c0,0,0,0,0,0c-0.7-0.9-1.8-1.3-3.1-1.3c-0.4,0-0.9,0-1.2,0.1c-4.2,0.5-4,4-3.9,5.1c0.4,5.6,0.8,11.2,1.3,16.8l0.1,0.5
			c0.1,0.7,0.3,1.1,0.6,1.5c0,0,0,0,0,0c0,0,0,0,0,0c0,0,0,0,0,0c0,0,0,0,0,0c0,0,0,0,0,0c0,0,0,0,0,0c0,0,0,0,0,0c0,0,0,0,0,0
			c0,0,0,0,0,0c0,0,0,0,0,0c0,0,0,0,0,0c0,0,0,0,0,0c0,0,0,0,0,0c0,0,0,0,0,0c0,0,0,0,0,0c0,0,0,0,0,0c0,0,0,0,0,0c0,0,0,0,0,0
			c0,0,0,0,0,0c0,0,0,0,0,0c0,0,0,0,0,0c0,0,0,0,0,0c0,0,0,0,0,0c0,0,0,0,0,0c0,0,0,0,0,0c0,0,0,0,0,0c0,0,0,0,0,0c0,0,0,0,0,0
			c0,0,0,0,0,0c0,0,0,0,0,0c0,0,0,0,0,0c0.3,0.3,0.7,0.5,1.3,0.5c0.1,0,0.3,0,0.5,0c0.1,0,0.3,0,0.6,0c0.3,0,0.5,0,0.6,0
			c0.1,0,2.7-0.3,2.7-0.3l0.1-0.1l0,0l0.1,0l0.1,0c1.7-0.4,2.3-1.3,2.4-4.7c0.1,0.1,0.2,0.2,0.3,0.4c0,0,0,0,0,0c0,0,0,0,0,0
			c0,0,0,0,0,0c0,0,0,0,0,0c0,0,0,0,0,0c0,0,0,0,0,0c0,0,0,0,0,0c0,0,0,0,0,0c0,0,0,0,0,0c0,0,0,0,0,0c0,0,0,0,0,0c0,0,0,0,0,0
			c0,0,0,0,0,0c0,0,0,0,0,0c0,0,0,0,0,0c0,0,0,0,0,0c0,0,0,0,0,0c0,0,0,0,0,0c0,0,0,0,0,0c0,0,0,0,0,0c0,0,0,0,0,0c0,0,0,0,0,0
			c0,0,0,0,0,0c0,0,0,0,0,0c0,0,0,0,0,0c0,0,0,0,0,0c0,0,0,0,0,0c0,0,0,0,0,0c0,0,0,0,0,0c0,0,0,0,0,0c0,0,0,0,0,0
			c0.5,0.5,1.1,1.1,2,1.1l0.2,0c0.7-0.1,3.3-0.4,4.1-2.4c0.1-0.2,0.1-0.3,0.2-0.5c0.1,0.8,0.3,1.5,0.6,2c0,0,0,0,0,0c0,0,0,0,0,0
			c0,0,0,0,0,0c0,0,0,0,0,0c0,0,0,0,0,0c0,0,0,0,0,0c0,0,0,0,0,0c0,0,0,0,0,0c0,0,0,0,0,0c0,0,0,0,0,0c0,0,0,0,0,0c0,0,0,0,0,0
			c0,0,0,0,0,0c0,0,0,0,0,0c0,0,0,0,0,0c0,0,0,0,0,0c0,0,0,0,0,0c0,0,0,0,0,0c0,0,0,0,0,0c0,0,0,0,0,0c0,0,0,0,0,0c0,0,0,0,0,0
			c0,0,0,0,0,0c0,0,0,0,0,0c0,0,0,0,0,0c0,0,0,0,0,0c0,0,0,0,0,0c0,0,0,0,0,0c0,0,0,0,0,0c0,0,0,0,0,0c0,0,0,0,0,0
			c0.5,1,1.2,1.3,1.9,1.3l0.3,0c0.4,0,1,0.1,1.2,0.1l0.1,0l0.8,0c0.9-0.1,3-0.2,3.4-2.3c0-0.2,0.1-0.4,0.1-0.6
			c0.1-0.5,0.2-1.1,0.2-1.6l0-0.1c0-0.6,0-1.1-0.1-1.7c1.7,3,4.5,5.1,8.3,5.1l0.2,0c3.7-0.1,6.2-2.6,7.8-5.8
			c0.1,0.2,0.2,0.4,0.3,0.5l0,0c1.9,2.4,3.4,3.8,6.4,4.8l0.3,0.1c0.7,0.2,1,0.3,1.3,0.3c0.9,0,1.8,0.1,2.7,0.1l0.1,0
			c0.1,0,0.3,0,0.6-0.1c0.2,0,0.4-0.1,0.5-0.1l0.1,0l0.1,0c2.1-0.5,3.8-1.9,5-4c0,0,0,0,0-0.1c0,0,0-0.1,0-0.1c0,0,0,0,0,0
			c0,0,0,0,0-0.1c0,0,0,0,0,0c0,0,0-0.1,0.1-0.1c0,0,0,0,0,0c0,0,0-0.1,0.1-0.1c0,0,0,0,0,0c0,0,0-0.1,0.1-0.1c0,0,0,0,0,0
			c0,0,0,0,0-0.1c0,0,0,0,0,0c0,0,0,0,0-0.1c0,0,0,0,0,0c0,0,0-0.1,0.1-0.1c0,0,0,0,0,0c0,0,0,0,0,0c0,0,0-0.1,0-0.1
			c0,0,0-0.1,0-0.1c0.2-0.4,0.4-0.8,0.6-1.3c0.2-0.5,0.2-0.7,0.2-0.7c0,0,0,0,0,0C86,19,85.2,17,84,15.6c0.1-0.1,0.1-0.1,0.2-0.2
			c0,0,0,0,0,0l0,0c0,0,0,0,0,0c0,0,0,0,0,0l0,0c0.1-0.2,0.3-0.4,0.4-0.7c0,0,0,0,0,0c0,0,0,0,0,0c0,0,0,0,0,0c0,0,0,0,0,0
			c0,0,0,0,0,0c0,0,0,0,0,0c0,0,0,0,0,0c0,0,0,0,0,0c0,0,0,0,0,0c0,0,0,0,0,0c0,0,0,0,0,0c0,0,0,0,0,0c0,0,0,0,0,0c0,0,0,0,0,0
			c0,0,0,0,0,0c0,0,0,0,0,0c0,0,0,0,0,0c0,0,0,0,0,0c0,0,0,0,0,0c0,0,0,0,0,0c0,0,0,0,0,0c0,0,0,0,0,0c0,0,0,0,0,0c0,0,0,0,0,0
			c0,0,0,0,0,0c0,0,0,0,0,0c0,0,0,0,0,0c0,0,0,0,0,0c0,0,0,0,0,0c0,0,0,0,0,0c0,0,0,0,0,0c0,0,0-0.1,0-0.1c0.4,0.7,1.1,1.3,2,1.3
			c0.9,0.1,1.8,0.1,2.7,0.2c-0.2,3.9-0.4,7.8-0.5,11.7c-0.1,1.5,0.6,3.4,4.4,3.8c0.5,0.1,0.9,0.1,1.3,0.1c1.2,0,2-0.3,2.5-0.9
			c0,0,0,0,0,0c0,0,0,0,0,0c0,0,0,0,0,0c0,0,0,0,0,0c0,0,0,0,0,0c0,0,0,0,0,0c0,0,0,0,0,0c0,0,0,0,0,0c0,0,0,0,0,0c0,0,0,0,0,0
			c0,0,0,0,0,0c0,0,0,0,0,0c0,0,0,0,0,0c0,0,0,0,0,0c0,0,0,0,0,0c0,0,0,0,0,0c0,0,0,0,0,0c0,0,0,0,0,0c0,0,0,0,0,0c0,0,0,0,0,0
			c0,0,0,0,0,0c0,0,0,0,0,0c0,0,0,0,0,0c0,0,0,0,0,0c0,0,0,0,0,0c0,0,0,0,0,0c0,0,0,0,0,0c0,0,0,0,0,0c0,0,0,0,0,0c0,0,0,0,0,0
			c0,0,0,0,0,0c0.9-0.9,1.1-2.4,1.3-4.1c0.1-0.5,0.1-1,0.2-1.6c0-0.1,0-0.3,0.1-0.5c0-0.2,0.1-0.5,0.1-0.6c0.2-1.1,0.4-3.2,0.5-5.1
			c0-0.2,0-0.4,0.1-0.6c0.3,0,0.6,0,0.6,0l0.2,0c1.2,0,2-0.4,2.6-0.9c0,0,0,0,0,0c0,0,0,0,0,0c0,0,0,0,0,0c0,0,0,0,0,0c0,0,0,0,0,0
			c0,0,0,0,0,0c0,0,0,0,0,0c0,0,0,0,0,0c0,0,0,0,0,0c0,0,0,0,0,0c0,0,0,0,0,0c0,0,0,0,0,0c0,0,0,0,0,0c0,0,0,0,0,0c0,0,0,0,0,0
			c0,0,0,0,0,0c0,0,0,0,0,0c0,0,0,0,0,0c0,0,0,0,0,0c0,0,0,0,0,0c0,0,0,0,0,0c0,0,0,0,0,0c0,0,0,0,0,0c0,0,0,0,0,0c0,0,0,0,0,0
			c0,0,0,0,0,0c0,0,0,0,0,0c0,0,0,0,0,0c0,0,0,0,0,0c0,0,0,0,0,0c0,0,0,0,0,0c1.4-1.2,1.6-3.2,1.8-4.2C107.5,7.8,106.7,6.5,104.8,6z
			"/>
		<g>
			<g>
				<path class="st2" d="M39.4,24.6c-0.4,1-2,1.5-3.1,1.6c-0.7,0.1-1.3-0.8-1.7-1.3c-1.1-1.8-2.2-3.6-3.3-5.4c0.5,8.4,0,8.6-1.3,8.9
					c-0.1,0-0.2,0.1-0.3,0.1c-0.2,0-1.2,0.1-1.4,0.2c-0.4,0-1.2,0.1-1.2,0.1c-0.1,0-1,0-1.1,0c-0.7,0.1-0.9,0-1-0.8
					c0-0.1-0.1-0.4-0.1-0.5c-0.4-5.6-0.9-11.2-1.3-16.7c-0.2-2.1,0.3-3.4,2.7-3.7c1.1-0.1,2.4-0.2,3.2,0.7c2.4,2.9,4.7,5.9,6.9,8.8
					c5.3-11,7.2-11.3,8-11.3c2.2-0.1,3.8,0.5,3.9,2.7c0.2,5.5,0.3,11,0.5,16.5c0,0.6-0.2,1.5-0.3,2c-0.2,1-1.4,1.1-2.3,1.2
					c-0.2,0-0.7,0-0.7,0c-0.2,0-1.3-0.1-1.6-0.1c-1.1-0.1-1.3-1.8-1.3-2.6c-0.1-0.8-0.3-6.7-0.3-7.5C41.4,19.9,40.4,22.2,39.4,24.6z
					"/>
				<path class="st2" d="M52.9,6.9c1.9-1.6,3.8-2.7,6.4-2.7c6.2-0.1,8.5,4.1,8.5,9.6c-0.1,5-2.8,12.7-8.9,12.8
					c-5.7,0.1-9-4.9-9.2-10.1C49.6,13.3,50.3,9.2,52.9,6.9z M58.6,20.6C63,21.1,63.8,10,59.3,10C55,9.9,53.8,19.6,58.6,20.6z"/>
				<path class="st2" d="M68.3,21.5C68.3,21.5,68.3,21.5,68.3,21.5c0-1,2-4.1,3-4.1c0.2,0,0.4,0.1,0.6,0.2c0.3,0.3,1.9,1.6,2.3,2
					c0,0,0.2,0.1,0.3,0.1c0.2,0.1,1.3,0.7,1.5,0.8c0,0,0.1,0,0.2,0c1.3,0,2.4-1.7-0.2-2.8c-8-3.2-8.7-9.6-2.9-13.1
					c3.7-2.2,11.2-0.5,13.1,3.4c0.2,0.2,0.2,0.3,0.2,0.5c0-0.1-2.5,4.9-2.5,4.6c-0.3,0.3-0.6,0.3-0.8,0.4c-0.1,0.1-0.3,0-0.4-0.1
					C81.4,12.3,80,11.1,78,11c-0.4,0-1.3,0-1.3,0.5c0,2.3,8.6,2.7,7.5,10.1c0,0.1-0.1,0.3-0.1,0.5c-0.8,2.2-2.4,4-4.7,4.5
					c-0.2,0-0.9,0.2-0.9,0.1c-0.9,0-1.8-0.1-2.8-0.1c-0.3,0-1.2-0.3-1.3-0.3c-2.8-1-4.1-2.2-6-4.4C68.4,21.8,68.3,21.6,68.3,21.5z"
					/>
				<path class="st2" d="M88.2,12.3c-0.9-0.1-1.4-1.1-1.4-1.9C86.9,9,87,7.6,87.1,6.2c0-0.4,0.4-0.9,0.9-0.9
					c2-0.1,14.4,1.4,16.5,1.9c1.3,0.4,1.7,1.2,1.5,2.5c-0.3,2-0.7,4-3.2,3.9c-0.4,0-2.4-0.1-2.8-0.2c-0.1,0-0.1,0.1-0.2,0.2
					c0,0,0,0.1,0,0.1c-0.2,1.9-0.5,6.2-0.8,7.8c0,0.4-0.1,0.8-0.2,1.2c-0.6,4.6-0.2,5.7-4,5.3c-1.4-0.1-3.4-0.5-3.3-2.4
					c0.2-4.3,0.4-8.6,0.6-12.9C90.8,12.5,89.5,12.4,88.2,12.3z"/>
			</g>
			<ellipse class="st2" cx="59" cy="15.4" rx="1.6" ry="2.8"/>
		</g>
	</g>
	<g>
		<g>
			<path class="st0" d="M52.6,59C52.6,59,52.6,59,52.6,59L52.6,59C52.6,59.1,52.6,59.1,52.6,59c0.1,0.1,0.1,0.2,0.1,0.2
				C52.7,59.2,52.6,59.1,52.6,59z"/>
			<path class="st0" d="M88,40.3L88,40.3L88,40.3C88,40.3,88,40.3,88,40.3L88,40.3z"/>
			<path class="st0" d="M52.6,59C52.6,59,52.6,59,52.6,59L52.6,59C52.6,59.1,52.6,59.1,52.6,59c0.1,0.1,0.1,0.2,0.1,0.2
				C52.7,59.2,52.6,59.1,52.6,59z"/>
			<path class="st0" d="M21,63C21,63,21,63,21,63L21,63L21,63z"/>
			<path class="st0" d="M21,63L21,63C21,63,21,63,21,63L21,63C21,63,21,63,21,63z"/>
			<path class="st0" d="M6.4,69L6.4,69C6.4,69,6.4,69,6.4,69C6.4,69,6.4,69,6.4,69C6.4,69,6.4,69,6.4,69z"/>
			<path class="st0" d="M6.4,69C6.4,69.1,6.4,69.1,6.4,69L6.4,69L6.4,69z"/>
			<path class="st0" d="M6.3,68.9C6.3,68.9,6.3,68.9,6.3,68.9C6.3,68.9,6.3,69,6.3,68.9L6.3,68.9L6.3,68.9C6.3,69,6.3,69,6.3,68.9
				L6.3,68.9C6.3,69,6.3,69,6.3,68.9z"/>
			<path class="st0" d="M6.3,68.9C6.3,68.9,6.3,68.9,6.3,68.9L6.3,68.9L6.3,68.9z"/>
			<path class="st0" d="M6.2,68.9L6.2,68.9L6.2,68.9C6.2,68.9,6.2,68.9,6.2,68.9z"/>
			<path class="st0" d="M4.7,67.8C4.7,67.8,4.6,67.8,4.7,67.8C4.6,67.8,4.7,67.8,4.7,67.8C4.7,67.8,4.7,67.8,4.7,67.8z"/>
			<path class="st0" d="M127.9,49.4c0.3-2.1,0.3-9-9.7-10.8c-2.7-0.5-5.9-1.1-8.3-1.1c-1.7,0-3,0.3-4.1,0.8l-1.7,0.9v0l0,0v0l0,0v0
				l0,0v0l0,0v0l0,0v0l0,0c-0.9-1.7-2.3-2.8-4.1-3.3l-0.3-0.1L97.9,36c-0.6,0-1-0.1-1.5-0.1c-0.4,0-0.7,0-1.2,0.1
				c-2.9,0.2-4.6,0.9-5.8,2.2c-0.2,0.1-0.3,0.3-0.4,0.4c0,0,0,0,0,0.1v0c0,0,0,0,0,0c-0.1,0.1-0.1,0.1-0.2,0.2c0,0,0,0,0,0
				c0,0-0.1,0.1-0.1,0.1c0,0,0,0,0,0c0,0,0,0,0,0s0,0,0,0c0,0,0,0,0,0l0,0c0,0,0,0,0,0l0,0v0c0,0,0,0,0,0c0,0,0,0,0,0v0l0,0h0v0h0v0
				l0,0c0,0,0,0,0,0v0h0c0,0,0,0,0,0c0,0,0,0,0,0c0,0,0,0,0,0h0c0,0,0,0,0,0c0,0,0,0,0,0c0,0,0,0,0,0c0,0,0,0,0,0s0,0,0,0
				c0,0,0,0,0,0c0,0,0,0,0,0c0,0,0,0,0,0h0v0h0v0h0v0l0,0h0v0c0,0,0,0,0,0h0v0l0,0v0c0,0,0,0,0,0l0,0c0,0,0,0,0,0v0h0v0h0
				c0,0,0,0,0,0v0h0v0h0v0c0,0,0,0,0,0v0c0,0,0,0,0,0v0c0,0,0,0,0,0v0h0v0c0,0,0,0,0,0v0c0,0,0,0,0,0v0h0c0,0,0,0,0,0h0v0h0v0h0v0
				l0,0v0h0v0h0v0l0,0v0h0c0,0,0,0,0,0h0v0h0c0,0,0,0,0,0v0h0v0h0c0,0,0,0,0,0s0,0,0,0c0,0,0,0,0,0l0,0v0c0,0,0,0,0,0s0,0,0,0
				c0,0,0,0,0,0h0v0c0,0,0,0,0,0v0h0v0c0,0,0,0,0,0v0c0,0,0,0,0,0s0,0,0,0c0,0,0,0,0,0c0,0,0,0,0,0h0c0,0,0,0,0,0c0,0,0,0,0,0v0
				c0,0,0,0,0,0c0,0,0,0,0,0v0h0v0h0c0,0,0,0,0,0c0,0,0,0,0,0s0,0,0,0v0h0c0,0,0,0,0,0c0,0,0,0,0,0v0l0,0v0c0,0,0,0,0,0c0,0,0,0,0,0
				c0,0,0,0,0,0v0h0v0h0v0c0,0,0,0,0,0v0h0c0,0,0,0,0,0v0c0,0,0,0,0,0l0,0c0,0,0,0,0,0.1c0,0,0,0,0,0s0,0,0,0s0,0,0,0c0,0,0,0,0,0
				c0,0,0,0,0,0.1c0,0.1-0.1,0.1-0.1,0.2v0c0,0,0,0,0,0c0,0,0,0,0,0c0,0,0,0.1,0,0.1c0,0,0,0,0,0c0,0,0,0,0,0c0,0,0,0,0,0
				c0,0,0,0,0,0.1c0,0,0,0,0,0c0,0,0,0,0,0c-0.1,0.2-0.1,0.3-0.2,0.5c0,0,0,0,0,0s0,0,0,0c0,0,0,0,0,0c-0.2,0.4-0.3,0.9-0.5,1.3
				c-0.9,2.6-1.7,5.3-2.6,7.9c0,0,0,0,0,0c-0.2,0-0.5-0.1-0.7-0.1c0-0.7,0.2-3.9,0.2-3.9c0-0.1,0.1-0.8,0.2-1.6c0-0.3,0.1-0.7,0.1-1
				c0-0.1,0-0.2,0-0.3l0-0.2c0.2-2.1,0.3-2.9,0.3-3.3l0-0.4c0.1-1.5-0.4-2.8-1.4-3.8c-1.4-1.4-3.3-1.8-4.8-1.9v0l-1.3,0l-1.3,0V35h0
				c-1.5,0.1-2.7,0.7-3.5,1.5c0,0,0,0,0,0c0,0,0,0,0,0c0,0,0,0,0,0l0,0c-0.3-0.1-0.6-0.2-1-0.3l-0.1,0l-0.2,0c-0.2,0-0.6-0.1-1-0.2
				l-0.9-0.1l-1,0c-1.7,0-3.1,0.5-4.1,1.4c-2-1.6-5.1-1.6-6.2-1.6c0,0-1,0-1,0c-1.9,0-3.3,0.5-4.2,1.5c0,0,0,0,0,0c0,0,0,0,0,0
				c0,0,0,0,0,0c-1.8-0.9-4.3-1.4-7.5-1.4c-0.6,0-1.3,0-1.8,0.1c-0.5,0-1.7,0.1-1.8,0.1l-0.3,0l-0.2,0c-0.2,0.1-1.1,0.2-1.5,0.2
				l-0.2,0c-1.3,0.2-2.3,0.8-2.9,1.6c0,0,0,0,0,0c0,0,0,0,0,0c0,0,0,0,0,0c-1.7-1-3.7-1.5-5.9-1.5c-0.4,0-0.7,0-1.1,0
				c-3.2,0.2-5.9,1.6-8.5,4.1c-0.2,0.2-0.3,0.3-0.5,0.5h0c0,0,0,0,0,0c0,0,0,0,0,0c0,0,0,0,0,0c0,0-0.1-0.1-0.1-0.1
				c0,0-0.1,0-0.1-0.1c-0.2-0.2-0.4-0.3-0.6-0.5c-1.7-1.1-4.1-1.9-7.4-1.9c-1.1,0-2.4,0.1-3.8,0.2l-1.8,0.2l-0.3,0L5.1,39
				c-0.2,0.1-1.1,0.3-1.5,0.4l-0.1,0c-2.9,0.7-3.7,3-3.5,4.7C0.6,49,1.1,54,1.6,59l0.5,3.7c0.3,2.6,1.3,4.1,2.3,4.9c0,0,0,0,0,0
				c0,0,0,0,0,0l0,0c0,0,0,0,0,0c0,0,0,0,0.1,0.1c0,0,0,0,0.1,0c0,0,0,0,0,0v0h0c0,0,0,0,0,0c0,0,0,0,0,0c0,0,0,0,0,0h0
				c0,0,0,0,0.1,0c0,0,0,0,0,0c0,0,0,0,0,0.1c0,0,0,0,0,0c0,0,0,0,0,0s0,0,0,0c0,0,0,0,0,0l0,0c0,0,0,0,0,0c0,0,0,0,0,0h0
				c0,0,0,0,0,0l0,0c0,0,0,0,0,0c0,0,0,0,0,0l0,0c0,0,0,0,0,0l0,0c0,0,0,0,0,0c0,0,0,0,0,0c0,0,0,0,0,0h0c0,0,0,0,0,0c0,0,0,0,0,0
				c0,0,0,0,0,0c0,0,0,0,0,0c0,0,0,0,0,0c0,0,0,0,0,0v0c0,0,0,0,0,0c0,0,0,0,0,0v0l0,0c0,0,0,0,0,0h0l0,0c0,0,0,0,0,0l0,0
				c0,0,0,0,0,0l0,0c0,0,0,0,0,0c0,0,0,0,0,0l0,0c0,0,0,0,0,0c0,0,0,0,0,0c0,0,0,0,0,0h0v0c0,0,0,0,0,0c0,0,0,0,0,0h0c0,0,0,0,0,0
				c0,0,0,0,0,0c0,0,0,0,0,0s0,0,0,0c0,0,0,0,0,0c0,0,0,0,0,0h0v0c0,0,0,0,0,0c0,0,0,0,0,0c0,0,0,0,0,0c0,0,0,0,0,0c0,0,0,0,0,0
				c0,0,0,0,0,0s0,0,0,0c0,0,0,0,0,0h0c0,0,0,0,0,0l0,0h0c0,0,0,0,0,0c0,0,0,0,0,0l0,0c0,0,0,0,0,0v0h0v0h0c0,0,0,0,0,0h0
				c0,0,0,0,0,0l0,0c0,0,0,0,0,0c0,0,0,0,0,0c0,0,0,0,0,0c0,0,0,0,0,0c0,0,0,0,0,0c0,0,0,0,0,0c0,0,0,0,0,0l0,0h0c0,0,0,0,0,0
				c0,0,0,0,0,0h0l0,0h0c0,0,0,0,0,0s0,0,0,0c0,0,0,0,0,0l0,0c0,0,0,0,0,0h0l0,0c0,0,0,0,0,0s0,0,0,0l0,0l0,0c0,0,0,0,0,0h0
				c0,0,0,0,0,0l0,0h0v0h0l0,0c0,0,0,0,0,0h0c0,0,0,0,0,0c0,0,0,0,0,0s0,0,0,0c0,0,0,0,0,0c0,0,0,0,0,0c0,0,0,0,0,0c0,0,0,0,0,0
				c0,0,0,0,0,0s0,0,0,0c0,0,0,0,0,0l0,0h0c0,0,0,0,0,0v0c0,0,0,0,0,0h0v0h0c0,0,0,0,0,0c0,0,0,0,0,0c0,0,0,0,0,0h0
				c0.1,0,0.1,0.1,0.1,0.1c0.1,0.1,0.1,0.1,0.2,0.1c0,0-0.1,0-0.1,0c0,0-0.1,0-0.1-0.1c0,0,0,0-0.1,0c0,0,0,0,0,0c0,0,0,0,0,0
				c0,0,0.1,0.1,0.1,0.1c0,0,0,0,0.1,0.1c0,0,0,0,0,0c0,0,0,0,0,0c0,0,0,0,0.1,0c0.1,0.1,0.2,0.2,0.4,0.2c0,0,0,0,0,0
				C8,69.9,8.8,70,9.3,70c0.2,0,0.4,0,0.7,0c1.4-0.2,2.8-0.3,4.2-0.5c2.8-0.3,4.3-3.3,4-5.8l-0.3-2.9c0.3-0.1,0.6-0.3,0.9-0.4v0h0v0
				c0,0,0,0,0,0h0v0c0,0,0,0,0,0h0c0,0,0,0,0,0c0,0,0,0,0,0l0,0c0,0,0,0,0,0l0,0c0.3,0.5,0.6,0.9,1,1.4c0.3,0.3,0.6,0.7,0.9,1
				c0,0,0.1,0.1,0.1,0.1c0,0,0,0.1,0.1,0.1c0,0,0.1,0.1,0.1,0.1h0c0,0,0,0,0,0l0,0v0c0,0,0,0,0,0c0,0,0,0,0,0c0,0,0,0,0,0
				c0,0,0,0,0,0c0,0,0,0,0,0c0,0,0,0,0,0c0,0,0,0,0,0c0,0,0,0,0,0c0,0,0,0,0,0c0,0.1,0.1,0.1,0.1,0.1l0,0l0,0c0,0,0,0,0,0
				c0,0,0,0,0,0c0,0,0,0,0,0c0,0,0,0,0,0c0,0,0,0,0,0c0,0,0,0,0,0v0c0,0,0,0,0,0c0,0,0,0,0,0s0,0,0,0c0,0,0,0,0,0c0,0,0,0,0,0
				c0,0,0,0,0,0c0,0,0,0,0,0s0,0,0,0c0,0,0,0,0,0v0l0,0h0c0,0,0,0,0,0l0,0v0c0,0,0,0,0,0v0l0,0l0,0l0,0c0,0,0,0,0,0c0,0,0,0,0,0
				c0,0,0,0,0,0l0,0v0c0,0,0,0,0,0h0c0,0,0,0,0,0l0,0c0,0,0,0,0,0c0,0,0,0,0,0c0,0,0,0,0,0h0c0,0,0,0,0,0c0,0,0,0,0,0c0,0,0,0,0,0
				c0,0,0,0,0,0s0,0,0,0c0,0,0,0,0,0c0,0,0,0,0,0s0,0,0,0c0,0,0,0,0,0c0,0,0,0,0,0c0,0,0,0,0,0c0,0,0,0,0,0c0,0,0,0,0,0c0,0,0,0,0,0
				c0,0,0,0,0,0c0,0,0,0,0,0s0,0,0,0l0,0c0,0,0,0,0,0c0,0,0,0,0,0l0,0c0,0,0,0,0,0c0,0,0,0,0,0c0.1,0.1,0.2,0.1,0.2,0.2c0,0,0,0,0,0
				c0,0,0,0,0,0c0,0,0,0,0,0c0,0,0,0,0,0c0,0,0,0,0,0c0,0,0,0,0,0c0,0,0,0,0,0.1c0.1,0.1,0.3,0.2,0.4,0.3c0,0,0,0,0,0
				c1.9,1.5,4.2,2.5,7,2.5c0.3,0,0.6,0,0.9-0.1c2.5-0.2,4.6-1.3,6.2-2.8c0,0,0,0,0,0c0,0,0,0,0,0c0,0,0,0,0,0c0,0,0,0,0,0l0,0v0
				c0,0,0,0,0,0c0,0,0,0,0,0c0,0,0,0,0,0c0,0,0,0,0,0c0,0,0,0,0,0c0,0,0,0,0,0c0,0,0,0,0,0c0,0,0,0.1,0.1,0.1c0,0,0,0,0,0
				c0,0,0,0,0,0c0,0,0,0,0,0c0,0,0,0.1,0.1,0.1c0.2,0.3,0.4,0.5,0.6,0.6c1.2,1.2,2.7,1.4,3.4,1.4h0l0.2,0c1.4-0.1,2.8-0.1,4.2-0.2
				c2.8-0.1,4.5-2.9,4.4-5.4l-0.1-2.9c0.6-0.2,1.2-0.5,1.7-0.8h0c0,0,0,0,0,0c0,0,0,0.1,0,0.1c0,0,0,0,0,0s0,0,0,0c0,0,0,0,0,0
				c0,0,0,0,0,0s0,0,0,0c0,0,0,0,0,0c0,0,0,0,0,0c0,0,0,0,0,0c0,0,0,0,0,0c0,0,0,0,0,0c0,0,0,0,0,0c0,0,0,0,0,0v0c0,0,0,0,0,0
				c0,0,0,0,0,0c0,0,0,0,0,0c0,0,0,0,0,0c0,0,0,0,0,0v0c0,0,0,0,0,0c0,0,0,0,0,0s0,0,0,0c0,0,0,0,0,0c0,0,0,0,0,0c0,0,0,0,0,0v0
				c0,0,0,0,0,0v0c0,0,0,0,0,0.1c0,0,0,0,0,0c0,0,0,0,0,0c0.1,0.2,0.2,0.4,0.2,0.7c0,0,0,0.1,0,0.1c0,0,0,0,0,0
				c0.1,0.2,0.2,0.4,0.3,0.6c0,0,0,0.1,0.1,0.1c0,0,0,0,0,0c0.5,1.1,1.1,2.1,1.9,3c1.8,2,4.3,3.1,7.2,3.1h0.4c3-0.1,5.4-0.9,7.3-2.4
				c0.2,0.2,0.3,0.4,0.5,0.6c1.9,2,4.8,2.1,6.7,2.1l1.6,0c0.2,0,0.6,0,2.7-0.2l1-0.1c0.3,0,0.5,0,0.7-0.1c0,0,0,0-0.1,0
				c0,0,0,0-0.1,0c0,0,0,0-0.1,0c0,0,0,0-0.1,0c0,0,0,0-0.1,0c0,0,0,0,0,0c0,0,0,0,0,0c0,0,0,0,0.1,0c0,0,0,0,0.1,0c0,0,0,0,0.1,0
				c0,0,0,0,0.1,0c0,0,0,0,0.1,0c0,0,0.1,0,0.1,0c0.6,0.3,1.2,0.5,1.9,0.5l0.4,0c0.7,0,4,0,4.7,0l0.3,0l0.3-0.1
				c0.6-0.1,1.2-0.3,1.8-0.8h0c0.2-0.2,0.4-0.3,0.6-0.6c0,0,0.1-0.1,0.1-0.1l0,0c0,0,0,0,0,0c0,0,0,0,0.1-0.1c0,0,0,0,0.1-0.1
				c0.1,0,0.1-0.1,0.1-0.1c1.5,2.1,3.9,2.4,5.3,2.6l4.5,0.4l0-0.1l0,0l0-0.1l0,0c0,0,0,0,0,0c0,0-0.1,0-0.1,0c0,0,0,0-0.1,0
				c0,0-0.1,0-0.1,0c0,0,0,0,0.1,0c0,0,0,0,0.1,0c0,0,0.1,0,0.1,0c0,0,0,0,0,0h0v0l0,0l0,0l0,0c0.7,0.3,1.5,0.5,2.6,0.6l0.1,0
				c0.6,0.1,1.2,0.1,1.8,0.1c0.3,0,0.6,0,1,0.1l0.4,0l0.4-0.1c0.6-0.1,1.3-0.4,1.8-0.7c1.7,1.4,4,1.6,5.2,1.7c0.2,0,0.3,0,0.4,0.1
				c0.1,0,0.2,0,0.4,0.1c0.5,0.1,1.2,0.2,1.9,0.2c1.1,0,2-0.2,2.7-0.6c0.1-0.1,0.2-0.1,0.3-0.2c0,0,0,0,0,0c0,0,0,0,0,0
				c0,0,0,0,0.1,0c0,0,0,0,0,0c0,0,0,0,0,0l0,0c0,0,0,0,0,0c0,0,0,0,0.1,0v0l0,0c0,0,0,0,0,0c0,0,0,0,0,0c0,0,0,0,0,0l0,0l0,0h0
				c0,0,0,0,0,0c0,0,0,0,0.1,0c0,0,0,0,0,0c0,0,0,0,0,0c0,0,0,0,0,0c0,0,0,0,0,0h0l0,0c0,0,0,0,0,0c0,0,0,0,0,0c0,0,0,0,0,0
				c0,0,0,0,0,0h0l0,0c0,0,0,0,0,0c0,0,0,0,0,0h0c0,0,0,0,0,0c0,0,0,0,0,0h0l0,0c0,0,0,0,0,0c0,0,0,0,0,0c0,0,0,0,0,0c0,0,0,0,0,0
				l0,0l0,0c0,0,0,0,0,0h0c0,0,0,0,0,0h0l0,0c0,0,0,0,0,0c0,0,0,0,0,0l0,0h0c0,0,0,0,0,0c0,0,0,0,0,0c0,0,0,0,0,0h0c0,0,0,0,0,0
				c0,0,0,0,0,0h0c0,0,0,0,0,0c0,0,0,0,0,0c0,0,0,0,0,0l0,0h0v0h0c0,0,0,0,0,0c0,0,0,0,0,0h0v0h0v0h0v0h0l0,0v0h0c0,0,0,0,0,0
				c0,0,0,0,0,0h0c0,0,0,0,0,0l0,0h0c0,0,0,0,0,0c0,0,0,0,0,0h0v0l0,0l0,0h0c0,0,0,0,0,0c0,0,0,0,0,0c0,0,0,0,0,0v0h0v0c0,0,0,0,0,0
				h0v0l0,0c0,0,0,0,0,0s0,0,0,0s0,0,0,0v0c0,0,0,0,0,0v0h0c0,0,0,0,0,0v0h0v0c0,0,0,0,0,0c0,0,0,0,0,0c0,0,0,0,0,0c0,0,0,0,0,0v0h0
				v0h0v0h0c0,0,0,0,0,0s0,0,0,0h0l0,0c0,0,0,0,0,0h0c0,0,0,0,0,0c0,0,0,0,0,0h0l0,0c0,0,0,0,0,0h0c0,0,0,0,0,0h0c0,0,0,0,0,0
				c0,0,0,0,0,0c0,0,0,0,0,0s0,0,0,0h0v0h0c0,0,0,0,0,0h0c0,0,0,0,0,0c0,0,0,0,0,0c0,0,0,0,0,0h0c0,0,0,0,0,0h0v0c0,0,0,0,0,0
				c0,0,0,0,0,0c0,0,0,0,0,0c0,0,0,0,0,0c0,0,0,0,0,0h0l0,0c0,0,0,0,0,0h0v0c0,0,0,0,0,0c0,0,0,0,0,0c0,0,0.1-0.1,0.1-0.1
				c0.1-0.1,0.3-0.2,0.4-0.3c0.9-0.8,1.3-2,1.5-3c0.3-2.1-0.6-4-1.2-5.1c-0.2-0.5-0.8-1.5-1.3-2.5c0.1-0.1,0.2-0.2,0.4-0.3
				C126.4,54.4,127.6,52.1,127.9,49.4z"/>
			<path class="st0" d="M19,60.3L19,60.3C19,60.3,18.9,60.3,19,60.3L19,60.3C18.9,60.3,19,60.3,19,60.3L19,60.3L19,60.3z"/>
			<path class="st0" d="M19.7,41L19.7,41C19.6,41,19.6,41,19.7,41c-0.1-0.1-0.1-0.1-0.2-0.1C19.5,41,19.6,41,19.7,41
				c-0.1-0.1-0.1-0.1-0.1-0.1C19.6,41,19.6,41,19.7,41C19.7,41,19.7,41,19.7,41z"/>
			<path class="st0" d="M22.4,64.3C22.4,64.3,22.4,64.3,22.4,64.3L22.4,64.3C22.4,64.3,22.4,64.3,22.4,64.3
				C22.4,64.3,22.4,64.3,22.4,64.3z"/>
			<rect x="36.8" y="63.9" class="st0" width="0" height="0"/>
			<path class="st0" d="M36.9,63.9L36.9,63.9L36.9,63.9C36.9,63.9,36.9,63.9,36.9,63.9C36.9,63.9,36.9,63.9,36.9,63.9L36.9,63.9
				L36.9,63.9L36.9,63.9L36.9,63.9L36.9,63.9L36.9,63.9z"/>
			<path class="st0" d="M36.9,64L36.9,64L36.9,64L36.9,64C36.9,64,36.9,64,36.9,64z"/>
			<path class="st0" d="M37,64.1C37,64.1,37,64.1,37,64.1L37,64.1L37,64.1z"/>
			<path class="st0" d="M37,64.1C37,64.1,37,64.1,37,64.1L37,64.1L37,64.1z"/>
			<path class="st0" d="M37.1,64.2C37.1,64.2,37.1,64.2,37.1,64.2L37.1,64.2L37.1,64.2z"/>
			<path class="st0" d="M37.1,64.3C37.1,64.3,37.1,64.3,37.1,64.3C37.1,64.3,37.1,64.3,37.1,64.3L37.1,64.3L37.1,64.3L37.1,64.3
				L37.1,64.3z"/>
			<path class="st0" d="M37.2,64.3C37.2,64.3,37.1,64.3,37.2,64.3L37.2,64.3L37.2,64.3z"/>
			<polygon class="st0" points="37.2,64.4 37.2,64.4 37.2,64.4 			"/>
			<path class="st0" d="M37.2,64.4L37.2,64.4C37.2,64.4,37.2,64.4,37.2,64.4C37.2,64.4,37.2,64.4,37.2,64.4z"/>
			<path class="st0" d="M37.2,64.5C37.2,64.5,37.2,64.5,37.2,64.5L37.2,64.5C37.2,64.5,37.2,64.5,37.2,64.5z"/>
			<path class="st0" d="M37.3,64.6C37.3,64.6,37.3,64.6,37.3,64.6L37.3,64.6L37.3,64.6z"/>
			<path class="st0" d="M37.4,64.6C37.4,64.6,37.4,64.6,37.4,64.6C37.4,64.6,37.4,64.6,37.4,64.6C37.4,64.6,37.4,64.6,37.4,64.6z"/>
			<path class="st0" d="M40.9,36.3l-0.3,0l-0.2,0c0,0,0,0-0.1,0c0,0,0.1,0,0.1,0l0.2,0L40.9,36.3c0,0,0.2,0,0.5,0
				C41.2,36.3,41,36.3,40.9,36.3z"/>
			<path class="st0" d="M51.9,37.4C51.9,37.4,51.9,37.4,51.9,37.4C51.9,37.4,51.9,37.4,51.9,37.4C51.9,37.4,51.9,37.4,51.9,37.4
				C51.9,37.4,51.9,37.4,51.9,37.4L51.9,37.4C51.9,37.4,51.9,37.4,51.9,37.4z"/>
			<path class="st0" d="M52,37.4C52,37.4,51.9,37.4,52,37.4L52,37.4C51.9,37.4,52,37.4,52,37.4L52,37.4z"/>
			<path class="st0" d="M52,57.3L52,57.3L52,57.3L52,57.3C52,57.3,52,57.3,52,57.3z"/>
			<polygon class="st0" points="52,57.2 52,57.2 52,57.2 			"/>
			<path class="st0" d="M52,57.3C52,57.3,52,57.3,52,57.3C52,57.3,52,57.3,52,57.3C52,57.3,52,57.3,52,57.3L52,57.3L52,57.3L52,57.3
				z"/>
			<path class="st0" d="M52,37.4C52,37.4,52,37.4,52,37.4C52,37.4,52,37.4,52,37.4C52,37.4,52,37.4,52,37.4z"/>
			<path class="st0" d="M52.1,57.5L52.1,57.5C52.1,57.5,52.1,57.5,52.1,57.5L52.1,57.5L52.1,57.5z"/>
			<polygon class="st0" points="52.1,57.6 52.1,57.5 52.1,57.5 			"/>
			<path class="st0" d="M52.1,57.6C52.1,57.6,52.1,57.6,52.1,57.6L52.1,57.6C52.1,57.6,52.1,57.6,52.1,57.6z"/>
			<path class="st0" d="M52.4,58.4L52.4,58.4L52.4,58.4C52.4,58.5,52.4,58.5,52.4,58.4C52.4,58.5,52.4,58.4,52.4,58.4
				c-0.1-0.1-0.1-0.2-0.1-0.3c0,0,0-0.1,0-0.1c0-0.1,0-0.1,0-0.1c0,0,0,0,0,0c0,0,0,0.1,0.1,0.1c0,0.1,0,0.1,0.1,0.2v0h0
				c0,0,0,0,0,0s0,0,0,0C52.4,58.3,52.4,58.3,52.4,58.4C52.4,58.4,52.4,58.4,52.4,58.4L52.4,58.4C52.4,58.4,52.4,58.4,52.4,58.4
				C52.4,58.4,52.4,58.4,52.4,58.4z"/>
			<path class="st0" d="M52.5,58.6c0,0.1,0.1,0.1,0.1,0.2c0,0,0,0.1,0,0.1c-0.1-0.1-0.1-0.3-0.2-0.4C52.5,58.5,52.5,58.5,52.5,58.6z
				"/>
			<path class="st0" d="M52.8,59.4c0-0.1-0.1-0.1-0.1-0.2c0-0.1-0.1-0.1-0.1-0.2c0,0,0,0,0,0v0c0,0,0,0,0,0c0,0.1,0.1,0.2,0.1,0.2
				C52.7,59.3,52.7,59.4,52.8,59.4L52.8,59.4z"/>
			<path class="st0" d="M82.8,66C82.8,66,82.8,66,82.8,66c-0.1-0.1-0.1-0.1-0.1-0.1C82.7,65.9,82.7,65.9,82.8,66
				C82.8,66,82.8,66,82.8,66L82.8,66z"/>
			<rect x="87.5" y="62.4" class="st0" width="0" height="0"/>
			<path class="st0" d="M87.7,40.9L87.7,40.9C87.7,40.9,87.7,40.9,87.7,40.9L87.7,40.9L87.7,40.9z"/>
			<polygon class="st0" points="87.8,40.7 87.8,40.7 87.8,40.7 			"/>
			<path class="st0" d="M88.1,40.3L88.1,40.3C88,40.3,88,40.3,88.1,40.3C88,40.3,88,40.3,88.1,40.3L88.1,40.3L88.1,40.3L88.1,40.3
				L88.1,40.3z"/>
			<path class="st0" d="M93.6,64.5L93.6,64.5C93.6,64.5,93.6,64.5,93.6,64.5C93.6,64.5,93.6,64.5,93.6,64.5z"/>
			<path class="st0" d="M93.7,64.5C93.7,64.5,93.7,64.5,93.7,64.5C93.7,64.4,93.7,64.4,93.7,64.5C93.7,64.4,93.7,64.5,93.7,64.5z"/>
			<path class="st0" d="M102.1,67C102,67,102,67,102.1,67C102,67,102,67,102.1,67C102.1,67,102.1,67,102.1,67
				C102.1,67,102.1,67,102.1,67z"/>
			<path class="st0" d="M103.1,67.6c0,0-0.1,0-0.1-0.1c0,0-0.1,0-0.1-0.1c0,0,0.1,0,0.1,0C103,67.5,103.1,67.5,103.1,67.6
				C103.1,67.6,103.1,67.6,103.1,67.6C103.1,67.6,103.1,67.6,103.1,67.6z"/>
			<polygon class="st0" points="103.5,67.7 103.5,67.6 103.5,67.6 103.5,67.6 103.5,67.6 			"/>
			<polygon class="st0" points="103.5,67.6 103.5,67.6 103.5,67.6 103.5,67.6 103.5,67.6 103.5,67.6 103.5,67.6 			"/>
			<polygon class="st0" points="103.6,67.5 103.6,67.5 103.6,67.5 103.6,67.5 103.6,67.5 103.6,67.5 103.6,67.5 			"/>
			<polygon class="st0" points="103.7,67.4 103.6,67.5 103.6,67.5 103.6,67.5 103.6,67.4 103.7,67.4 103.7,67.4 103.7,67.4 			"/>
			<polygon class="st0" points="103.7,67.4 103.7,67.4 103.7,67.4 103.7,67.4 103.7,67.4 103.7,67.4 103.7,67.4 103.7,67.3 
				103.8,67.3 103.8,67.3 			"/>
			<polygon class="st0" points="103.9,67.2 103.8,67.2 103.8,67.3 103.8,67.3 103.8,67.3 103.8,67.3 103.8,67.3 103.8,67.2 
				103.8,67.2 103.8,67.2 103.9,67.2 			"/>
			<polygon class="st0" points="103.9,67.2 103.9,67.2 103.9,67.2 103.9,67.2 103.9,67.2 103.9,67.2 103.9,67.2 			"/>
			<rect x="104" y="67.1" class="st0" width="0" height="0"/>
			<path class="st0" d="M104.2,66.9C104.2,67,104.2,67,104.2,66.9c-0.1,0.1-0.1,0.1-0.1,0.1c0,0,0,0,0,0v0c0,0,0,0,0,0
				C104.1,67,104.1,67,104.2,66.9C104.2,67,104.2,67,104.2,66.9C104.2,66.9,104.2,66.9,104.2,66.9C104.2,66.9,104.2,66.9,104.2,66.9
				z"/>
		</g>
		<path class="st1" d="M120.9,55.6C120.9,55.6,120.9,55.6,120.9,55.6c0.1,0,0.1-0.1,0.1-0.1c0,0,0,0,0.1,0c0,0,0,0,0.1,0
			c0,0,0,0,0.1,0c0,0,0,0,0.1,0c0,0,0,0,0.1,0c0,0,0,0,0.1,0c0,0,0,0,0.1,0c0,0,0,0,0.1,0c0,0,0,0,0.1,0c0,0,0,0,0.1,0
			c1.9-1.1,3.6-2.9,4-6.1c0.3-2.4-0.3-6.8-7.7-8.1c-2.6-0.5-5.7-1-7.9-1c-1.3,0-2.3,0.2-3,0.5l-0.6,0.3l0,0l0,0l0,0l0,0l0,0l0,0l0,0
			l0,0l0,0l0,0l0,0l0,0l0,0l0,0l0,0l0,0l0,0l0,0l0,0l0,0l0,0l0,0l0,0l0,0l0,0l0,0l0,0l0,0l0,0l0,0l0,0l0,0l0,0l0,0l0,0l0,0l0,0l0,0
			l0,0l0,0l0,0l0,0l0,0l0,0l0,0l0,0l0,0l0,0l0,0l0,0l0,0l0,0l0,0l0,0l0,0l0,0l0,0l0,0l0,0l0,0l0,0l0,0l0,0l0,0l-0.1,0.7
			c-0.3,2.8-0.7,5.7-1,8.5c-0.5-3-1-6.1-1.6-9.1l0-0.1c-0.5-1.8-1.6-3-3.2-3.4l-0.1,0c0,0-1-0.1-1.1-0.1c-0.5,0-0.9-0.1-1.3-0.1
			c-0.3,0-0.6,0-1,0c-2.4,0.2-3.6,0.6-4.5,1.7c0,0,0,0,0,0c0,0,0,0,0,0c0,0,0,0,0,0c0,0,0,0,0,0c0,0,0,0,0,0c0,0,0,0,0,0
			c0,0,0,0,0,0c0,0,0,0,0,0c0,0,0,0,0,0c0,0,0,0,0,0c0,0,0,0,0,0c0,0,0,0,0,0c0,0,0,0,0,0c0,0,0,0,0,0c0,0,0,0,0,0c0,0,0,0,0,0
			c0,0,0,0,0,0c0,0,0,0,0,0c0,0,0,0,0,0c0,0,0,0,0,0c0,0,0,0,0,0c0,0,0,0,0,0c0,0,0,0,0,0c0,0,0,0,0,0c0,0,0,0,0,0c0,0,0,0,0,0
			c0,0,0,0,0,0c0,0,0,0,0,0c0,0,0,0,0,0c0,0,0,0,0,0c0,0,0,0,0,0c-0.5,0.7-0.9,1.5-1.3,2.7c-1.2,3.5-2.3,7.1-3.5,10.7
			c0,0-0.1-0.1-0.1-0.1c-0.6-0.6-1.5-1-2.7-1l-0.2,0c-0.5,0-1,0.1-1.4,0.1c0,0-0.1,0-0.1,0c0-0.1,0-0.2,0-0.2c0-0.7,0-1.6,0-1.9
			c0-0.6,0.1-2,0.1-3.1c0-0.6,0-1.1,0.1-1.3c0-0.3,0.2-1.9,0.3-3c0.2-1.7,0.3-2.8,0.3-3.1l0-0.4c0-0.8-0.2-1.5-0.7-2.1
			c-1.1-1.2-3-1.2-4.3-1.2l0,0c0,0,0,0,0,0l0,0c0,0,0,0,0,0l0,0c0,0,0,0,0,0l0,0c0,0,0,0,0,0l0,0c0,0,0,0,0,0l0,0c0,0,0,0,0,0l0,0
			c0,0,0,0,0,0l0,0c0,0,0,0,0,0l0,0c0,0,0,0,0,0l0-0.3l-0.3,0c-1.4,0-3.1,0.3-3.6,2.4c0,0,0,0,0,0c0,0,0,0,0,0c0,0,0,0,0,0
			c0,0,0,0,0,0c0,0,0,0,0,0c0,0,0,0,0,0c0,0,0,0,0,0c0,0,0,0,0,0c0,0,0,0,0,0c0,0,0,0,0,0c-0.4-0.7-1.1-1.3-2.2-1.5l-0.1,0l-0.1,0
			c-0.2,0-0.9-0.1-1.3-0.2l-0.5-0.1l-0.7,0c-2.2,0-3.5,1.2-3.7,3.4c-0.3,3.3-0.6,6.6-0.9,9.9c0,0.1,0,0.2,0,0.3c0,0.2,0,0.4,0,0.5
			c0-0.1,0-0.2,0-0.3c0-0.2,0-0.3,0-0.5l0-1.6c0-1.2,0-2.3,0-3.5c0-1.2,0-2.4,0-3.6l0-1.2l0,0l0,0l0,0l0,0l0,0l0,0l0,0l0,0l0,0l0,0
			l0,0l0,0l0,0l0,0l0,0l0,0l0,0l0,0l0,0l0,0l0,0l0,0l0,0l0,0l0,0l0,0l0,0l0,0l0,0l0,0l0,0l0,0l0,0l0,0l0,0l0,0l0,0l0,0l0,0l0,0l0,0
			l0,0l0,0l0,0l0,0l0,0l0,0l0,0l0,0l0,0l0,0l0,0l0,0l0,0l0,0l0,0l0,0l0,0l0,0l0,0l0,0l0,0l0,0l0,0l0-0.2c-0.7-2.4-4.4-2.4-5.7-2.4
			l-1,0c-0.8,0-2.4,0-2.7,1.4l0,0.1l0,0.1c0,0.5-0.1,1-0.1,1.5c-1.7-2-4.7-3-8.9-3c-0.6,0-1.2,0-1.7,0c-0.4,0-1.7,0.1-1.7,0.1
			l-0.1,0l-0.1,0c-0.2,0-1.2,0.2-1.7,0.3c-0.5,0.1-1.9,0.3-1.8,2c0,0.6,0,1.3,0.1,1.9c0,0,0,0,0,0c0,0,0,0,0,0c0,0,0,0,0,0
			c0,0,0,0,0,0c0,0,0,0,0,0c0,0,0,0,0,0c0,0,0,0,0,0c0,0,0,0,0,0c0,0,0,0,0,0c0,0,0,0,0,0c0,0,0,0,0,0c-1.6-2.2-4.1-3.4-7.2-3.4
			c-0.3,0-0.6,0-1,0c-2.6,0.2-4.8,1.3-7,3.4c-0.7,0.7-1.3,1.5-1.7,2.4c-0.1-0.2-0.3-0.3-0.4-0.5c0,0,0,0,0,0c0,0,0,0,0,0
			c0,0,0,0,0,0c0,0,0,0,0,0c0,0,0,0,0,0c0,0,0,0,0,0c0,0,0,0,0,0c0,0,0,0,0,0c0,0,0,0,0,0c0,0,0,0,0,0c0,0,0,0,0,0c0,0,0,0,0,0
			c0,0,0,0,0,0c0,0,0,0,0,0c0,0,0,0,0,0c0,0,0,0,0,0c0,0,0,0,0,0c0,0,0,0,0,0c0,0,0,0,0,0c0,0,0,0,0,0c0,0,0,0,0,0c0,0,0,0,0,0
			c0,0,0,0,0,0c0,0,0,0,0,0c0,0,0,0,0,0c0,0,0,0,0,0c0,0,0,0,0,0c0,0,0,0,0,0c0,0,0,0,0,0c0,0,0,0,0,0c0,0,0,0,0,0
			c-1.6-1.4-3.9-2.1-7-2.1c-1,0-2.2,0.1-3.5,0.2L6,41.3l-0.1,0l-0.1,0c-0.2,0-1.2,0.3-1.7,0.4c-0.5,0.1-1.8,0.5-1.6,2.1
			c0.5,4.9,1,9.9,1.5,14.9l0.5,3.7c0.2,1.9,0.9,3.1,1.9,3.6c0,0,0,0,0.1,0c0,0,0,0,0.1,0c0,0,0,0,0.1,0c0,0,0,0,0.1,0c0,0,0,0,0.1,0
			c0,0,0,0,0.1,0c0,0,0,0,0.1,0c0,0,0,0,0.1,0c0,0,0,0,0.1,0c0,0,0,0,0.1,0c0,0,0,0,0.1,0c0,0,0,0,0.1,0c0,0,0,0,0.1,0
			c0,0,0,0,0.1,0c0,0,0,0,0.1,0c0,0,0,0,0.1,0c0,0,0,0,0.1,0c0,0,0,0,0.1,0c0,0,0,0,0.1,0c0,0,0,0,0.1,0c0,0,0,0,0.1,0
			c0,0,0,0,0.1,0c0,0,0,0,0.1,0c0,0,0,0,0.1,0c0,0,0,0,0.1,0c0,0,0,0,0.1,0c0,0,0,0,0.1,0c0,0,0,0,0.1,0c0,0,0,0,0.1,0
			c0,0,0,0,0.1,0c0,0,0,0,0.1,0c0.3,0.2,0.7,0.3,1.2,0.3c0.1,0,0.2,0,0.4,0c1.4-0.2,2.8-0.4,4.2-0.5c1.5-0.2,2.1-1.9,2-3.1L15.3,59
			c1.8-0.5,3.3-1.3,4.3-2.3c0.7,2,1.9,3.8,3.5,5.1c0,0,0,0,0,0c0,0,0,0,0,0c0,0,0,0,0,0c0,0,0,0,0,0c0,0,0,0,0,0c0,0,0,0,0,0
			c0,0,0,0,0,0c0,0,0,0,0,0c0,0,0,0,0,0c0,0,0,0,0,0c0,0,0,0,0,0c0,0,0,0,0,0c0,0,0,0,0,0c0,0,0,0,0,0c0,0,0,0,0,0c0,0,0,0,0,0
			c0,0,0,0,0,0c0,0,0,0,0,0c0,0,0,0,0,0c0,0,0,0,0,0c0,0,0,0,0,0c0,0,0,0,0,0c0,0,0,0,0,0c0,0,0,0,0,0c0,0,0,0,0,0c0,0,0,0,0,0
			c0,0,0,0,0,0c0,0,0,0,0,0c0,0,0,0,0,0c0,0,0,0,0,0c0,0,0,0,0,0c1.5,1.3,3.4,2.1,5.8,2.1c0.3,0,0.5,0,0.8,0
			c3.2-0.2,5.5-2.4,6.9-5.1c0.1,1.1,0.4,2,0.8,2.6c0,0,0,0,0,0c0,0,0,0,0,0c0,0,0,0,0,0c0,0,0,0,0,0c0,0,0,0,0,0c0,0,0,0,0,0
			c0,0,0,0,0,0c0,0,0,0,0,0c0,0,0,0,0,0c0,0,0,0,0,0c0,0,0,0,0,0c0,0,0,0,0,0c0,0,0,0,0,0c0,0,0,0,0,0c0,0,0,0,0,0c0,0,0,0,0,0
			c0,0,0,0,0,0c0,0,0,0,0,0c0,0,0,0,0,0c0,0,0,0,0,0c0,0,0,0,0,0c0,0,0,0,0,0c0,0,0,0,0,0c0,0,0,0,0,0c0,0,0,0,0,0c0,0,0,0,0,0
			c0,0,0,0,0,0c0,0,0,0,0,0c0,0,0,0,0,0c0,0,0,0,0,0c0,0,0,0,0,0c0.5,0.7,1.2,1,2.1,1l0.2,0c1.4-0.1,2.8-0.1,4.3-0.2
			c1.5-0.1,2.2-1.8,2.2-2.9L48,56.6c2.6-0.6,4.4-1.6,5.6-3.2c0.1,0.6,0.2,1.3,0.4,1.9c0,0,0,0,0,0c0,0,0,0,0,0c0,0,0,0,0,0
			c0,0,0,0,0,0c0,0,0,0,0,0c0,0,0,0,0,0c0,0,0,0,0,0c0,0,0,0,0,0c0,0,0,0,0,0c0,0,0,0,0,0c0,0,0,0,0,0c0,0,0,0,0,0c0,0,0,0,0,0
			c0,0,0,0,0,0c0,0,0,0,0,0c0,0,0,0,0,0c0,0,0,0,0,0c0,0,0,0,0,0c0,0,0,0,0,0c0,0,0,0,0,0c0,0,0,0,0,0c0,0,0,0,0,0c0,0,0,0,0,0
			c0,0,0,0,0,0c0,0,0,0,0,0c0,0,0,0,0,0c0,0,0,0,0,0c0,0,0,0,0,0c0,0,0,0,0,0c0,0,0,0,0,0c0,0,0,0,0,0c0.5,2,1.2,3.7,2.4,4.9
			c1.4,1.5,3.2,2.3,5.5,2.3c0.1,0,0.2,0,0.4,0c4.7-0.1,7.5-2.2,8.8-6.5l-0.1,3.2c0,0.9,0.3,1.6,0.8,2.2c1.2,1.3,3.5,1.3,5.1,1.4
			l1.6,0c0.2,0,0.7,0,2.6-0.2l1-0.1c0.6,0,1-0.2,1.4-0.3c0.3,0.4,0.9,0.7,1.6,0.8l0.3,0c0.7,0,3.9,0,4.6,0l0.1,0l0.1,0
			c0.5-0.1,1-0.4,1.3-0.8c0,0,0,0,0,0c0,0,0,0,0,0c0,0,0,0,0,0c0,0,0,0,0,0c0,0,0,0,0,0c0,0,0,0,0,0c0,0,0,0,0,0c0,0,0,0,0,0
			c0,0,0,0,0,0c0,0,0,0,0,0c0,0,0,0,0,0c0,0,0,0,0,0c0,0,0,0,0,0c0,0,0,0,0,0c0,0,0,0,0,0c0,0,0,0,0,0c0,0,0,0,0,0c0,0,0,0,0,0
			c0,0,0,0,0,0c0,0,0,0,0,0c0,0,0,0,0,0c0,0,0,0,0,0c0,0,0,0,0,0c0,0,0,0,0,0c0,0,0,0,0,0c0,0,0,0,0,0c0,0,0,0,0,0c0,0,0,0,0,0
			c0,0,0,0,0,0c0,0,0,0,0,0c0,0,0,0,0,0c0.5-0.6,0.8-1.4,0.9-1.8c0.3-0.9,0.5-1.8,0.8-2.7l0.1,0c0.1,0,0.1,0,0.2,0l0,0l0,0.1
			c0,0.3,0.2,2.4,0.2,2.8c0.3,3.4,2.1,3.9,4.4,4.2l3.4,0.3l0,0l0,0l0,0l0,0l0,0l0,0l0,0l0,0l0,0l0,0l0,0l0,0l0,0l0,0l0,0l0,0l0,0
			l0,0l0,0l0,0l0,0c0,0,0,0,0.1,0c0.1,0,0.2-0.1,0.3-0.1c0.6,0.6,1.6,0.9,3.1,1.1l0.1,0c0.6,0.1,1.1,0.1,1.7,0.1c0.3,0,0.7,0,1,0.1
			l0.2,0l0.2,0c0.4-0.1,0.8-0.3,1.2-0.5c0,0,0,0,0,0c0,0,0,0,0,0c0,0,0,0,0,0c0,0,0,0,0,0c0,0,0,0,0,0c0,0,0,0,0,0c0,0,0,0,0,0
			c0,0,0,0,0,0c0,0,0,0,0,0c0,0,0,0,0,0c0,0,0,0,0,0c0,0,0,0,0,0c0,0,0,0,0,0c0,0,0,0,0,0c0,0,0,0,0,0c0,0,0,0,0,0c0,0,0,0,0,0
			c0,0,0,0,0,0c0,0,0,0,0,0c0,0,0,0,0,0c0,0,0,0,0,0c0,0,0,0,0,0c0,0,0,0,0,0c0,0,0,0,0,0c0,0,0,0,0,0c0,0,0,0,0,0c0,0,0,0,0,0
			c0,0,0,0,0,0c0,0,0,0,0,0c0,0,0,0,0,0c0,0,0,0,0,0c0.1,0,0.1-0.1,0.2-0.1c0.1,0.3,0.2,0.5,0.2,0.5c0.8,1.9,3.2,2.1,4.6,2.2
			c0.2,0,0.4,0,0.5,0.1c0.1,0,0.3,0,0.5,0.1c0.4,0.1,1,0.2,1.5,0.2c0.7,0,1.2-0.2,1.6-0.4c0,0,0.1,0,0.1-0.1c0,0,0.1,0,0.1-0.1
			c0,0,0.1-0.1,0.1-0.1c0,0,0.1,0,0.1-0.1c0,0,0.1,0,0.1-0.1c0.1,0,0.1-0.1,0.2-0.1c0,0,0,0,0.1,0c0.1,0,0.1-0.1,0.2-0.1
			c0,0,0.1,0,0.1-0.1c0,0,0.1,0,0.1-0.1c0,0,0.1,0,0.1-0.1c0,0,0.1-0.1,0.1-0.1c0,0,0,0,0.1,0c0,0,0.1,0,0.1-0.1
			c0,0,0.1-0.1,0.1-0.1c0,0,0.1,0,0.1-0.1c0,0,0,0,0,0c1-0.5,1.2-1.5,1.3-1.9c0.2-1.4-0.5-2.8-1-3.7
			C122.8,59.4,121.6,57.1,120.9,55.6C120.8,55.6,120.8,55.6,120.9,55.6C120.8,55.6,120.8,55.6,120.9,55.6z"/>
		<g>
			<g>
				<path class="st2" d="M5.3,58.5c-0.5-4.9-1-9.9-1.5-14.8c-0.1-0.5,0.2-0.6,0.7-0.7c0.4-0.1,1.6-0.4,1.8-0.4
					c0.1,0,1.3-0.2,1.7-0.2c4.3-0.5,9.8-0.6,11.1,4.3c0,0.2,0.1,1.1,0.2,1.3c0.5,5.2-1.6,7.8-6.8,8.9c0.2,2,0.4,3.9,0.7,5.9
					c0.1,0.5-0.2,1.5-0.9,1.6c-1.5,0.2-2.9,0.3-4.4,0.5c-1.5,0.2-1.8-1.6-2-2.7C5.7,61.7,5.4,59.1,5.3,58.5z M11.1,51.3
					c2.5-0.3,2.8-1.3,2.7-2.6c-0.1-1-0.5-2.6-3.2-2.2C10.8,48.5,11.1,50.8,11.1,51.3z"/>
				<path class="st2" d="M22.8,43.2c1.7-1.7,3.6-2.9,6.1-3.1c6-0.4,8.6,3.6,8.9,9.1c0.3,5-1.9,12.9-8,13.3c-5.7,0.4-9.2-4.4-9.7-9.6
					C19.8,49.7,20.3,45.6,22.8,43.2z M29.1,56.6c4.3,0.3,4.5-10.9,0-10.6C25,46,24.2,55.8,29.1,56.6z"/>
				<path class="st2" d="M39,55.5c-0.2-5-0.3-9.9-0.5-14.9c0-0.5,0.2-0.6,0.7-0.6c0.4-0.1,1.6-0.2,1.8-0.3c0.1,0,1.3-0.1,1.7-0.1
					c4.3-0.2,9.8,0.1,10.8,5c0,0.2,0.1,1.2,0.1,1.3c0.1,5.2-2.1,7.6-7.4,8.4c0.1,2,0.2,4,0.2,5.9c0,0.5-0.3,1.5-1,1.6
					c-1.5,0.1-2.9,0.1-4.4,0.2c-1.5,0.1-1.7-1.8-1.8-2.8C39.2,58.7,39,56,39,55.5z M45.3,48.7c2.5-0.1,2.9-1.1,2.8-2.4
					c0-1-0.4-2.6-3-2.4C45.2,45.9,45.3,48.2,45.3,48.7z"/>
				<path class="st2" d="M54.7,39.8c0.1-0.4,1-0.4,1.5-0.4c0,0,0.1,0,0.1,0c0,0,0.1,0,0.1,0c0.1,0,0.1,0,0.2,0c1.3,0,4.5,0,4.9,1.4
					c0,0.2,0,0.9,0,1c0,2.4-0.1,4.7-0.1,7.1c0,0.4,0,1.3,0,1.3c0,0,0,0.1,0,0.2c0,0.9-0.1,3.9,1.2,4.1c1.5,0.2,1.5-2.3,1.6-2.8
					c0.3-3.3,0.6-6.6,0.9-9.9c0.1-1.5,0.9-2.2,2.5-2.2c0.1,0,0.6,0,0.6,0c0.2,0,1.4,0.3,1.8,0.3c2,0.4,2,2.4,1.9,3.9
					c-0.1,3.5-0.5,6.9-1.2,10.3c-1,4.7-3.4,6.8-8.2,6.9C54,61.4,54,50.6,54.7,39.8z"/>
				<path class="st2" d="M73.7,40.9c0.1-1.9,0.8-2.2,2.7-2.2c0,0,0.1,0,0.1,0c1.5,0,3.8,0.1,3.8,1.9c0,0.1,0,0.4,0,0.4
					c0,0.6-0.5,5.5-0.6,6.1c0,0.3-0.1,3.3-0.2,4.3c0,0.6-0.1,2.8-0.1,3.1c0,0.2,0,0.3,0.1,0.5c0,0,0.1,0,0.1,0
					c0.9,0,1.9-0.3,2.9-0.2c2.3,0.1,2.3,1.4,2.2,3.3c0,0.1,0,0.2,0,0.4c0,0.6,0,1.5-0.4,2c-0.3,0.5-1,0.7-1.5,0.7
					c-0.8,0.1-3.4,0.3-3.6,0.3c-0.1,0-0.8,0-1.1,0c-0.2,0-0.3,0-0.5,0c-1.8,0-4.9,0-4.8-2.2c0-1.3,0-2.6,0.1-3.9
					C73.1,50.5,73.4,45.7,73.7,40.9z"/>
				<path class="st2" d="M85.1,60.6c1.9-5.8,3.8-11.6,5.8-17.4c1-2.7,1.5-3.3,4.6-3.6c0.9-0.1,1.3,0,2.1,0c0.2,0,0.8,0.1,1,0.1
					c1.3,0.3,1.9,1.3,2.3,2.5c1.1,6.4,2.2,12.7,3.3,19.1c0,0.2,0,0.4-0.1,0.7c0,0.2-0.8,0.4-1,0.6c-0.2,0-1.3-0.1-1.4-0.1
					c-0.4,0-1.4-0.1-1.5-0.1c-2.3-0.3-3.2-0.7-3.4-3c0-0.3-0.1-2.6-0.2-2.9c0-0.2-0.1-0.8-0.1-1c-0.4-0.2-0.8-0.2-1.3-0.3
					c-0.3,0-1.8,0-1.9,0.4c-0.4,1.5-0.8,3-1.2,4.4c-0.2,0.5-0.5,1.5-1.2,1.6c-0.7,0-4,0-4.7,0c0,0-0.3,0-0.3,0
					c-0.5,0-0.7-0.3-0.7-0.8C85.1,60.8,85.1,60.6,85.1,60.6z M94.7,47.6c-0.2,1.1-0.3,2-0.4,3c0,0.1,0,0.5,0,0.6
					c0.7,0,1.4,0,2.1,0.1c0-0.1,0-0.7,0.1-0.9c0-0.2,0.1-0.8,0.1-0.8c0-0.3,0-1.9,0-2.3c0-0.5-0.2-1-0.8-1
					C95,46.1,94.8,47,94.7,47.6z"/>
				<path class="st2" d="M107.5,41.7c1.6-0.8,5.8-0.2,10.1,0.6c3.9,0.7,7.2,2.6,6.7,6.7c-0.4,3.1-2.3,4.8-5.1,6c0,0-0.1,0.1-0.1,0.1
					c0,0.1,0,0.2,0.1,0.2c0.4,0.8,2.4,4.5,2.8,5.4c0.5,0.9,1,2,0.8,3c-0.2,1.6-2.3,1-3.4,0.8c-1.1-0.1-3.7-0.1-4.3-1.5
					c-0.6-1.8-1.3-3.9-2.3-5.5c0,0.1-0.1,0.3-0.1,0.4c-0.3,1.4-0.5,2.8-0.8,4.2c-0.1,0.7-0.6,1.3-1.3,1.4c-1-0.1-1.8-0.1-2.7-0.2
					c0,0-0.1,0-0.1,0c-0.9-0.1-2.9-0.3-2.7-1.6C105.8,55,106.6,48.3,107.5,41.7z M114.2,47.2c0,0-0.1,0.3-0.1,0.4
					c-0.1,1.2-0.2,2.3-0.4,3.5c0,0,0.1,0.1,0.2,0.1c0,0,0.3,0,0.5,0c1.3,0.1,2.7-0.6,2.9-1.9c0.2-1.5-1.6-2-2.8-2.1
					C114.4,47.2,114.2,47.2,114.2,47.2z"/>
			</g>
			<ellipse class="st2" cx="29.3" cy="51.2" rx="1.6" ry="2.8"/>
		</g>
	</g>
</g>
</svg>
