<svg version="1.1" id="Layer_1" xmlns="http://www.w3.org/2000/svg" x="0" y="0" viewBox="0 0 495.1 434.5" xml:space="preserve"><style>.st1{fill:#515979}.st3{fill:#fff}.st4{fill:#d8ebfb}.st5{fill:#6adaf7}.st6{fill:#f89d81}.st7{fill:#c7bcff}.st10{fill:#ef7d7d}.st11{fill:#ffe8a0}.st12{fill:#7ddf96}.st13{fill:#fde1d9}.st17{fill:#00c853}.st18{opacity:.2}</style><path d="M67.1 418.9c-5.9 0-10.6-4.8-10.6-10.6V159.7c0-5.9 4.8-10.6 10.6-10.6h105.7c3.8 0 7.3 2 9.2 5.3l7.5 12.9H443c5.9 0 10.6 4.8 10.6 10.6v230.4c0 5.9-4.8 10.6-10.6 10.6H67.1z" fill="#fbb040"/><path class="st1" d="M172.7 153.6c2.2 0 4.2 1.1 5.2 3l8.9 15.2H443c3.3 0 6.1 2.7 6.1 6.1v230.4c0 3.3-2.7 6.1-6.1 6.1H67.1c-3.3 0-6.1-2.7-6.1-6.1V159.7c0-3.3 2.7-6.1 6.1-6.1h105.6m0-9.1H67.1c-8.4 0-15.2 6.8-15.2 15.2v248.6c0 8.4 6.8 15.2 15.2 15.2H443c8.4 0 15.2-6.8 15.2-15.2V177.9c0-8.4-6.8-15.2-15.2-15.2H192l-6.2-10.7c-2.7-4.6-7.7-7.5-13.1-7.5z"/><path class="st1" d="M61 183.9h388.1v30.3H61z" opacity=".16"/><path class="st3" d="M412.6 269.7c-.3 0-.5 0-.8-.1l-134.4-23.7c-5.8-1-9.6-6.5-8.6-12.3l34.7-197.1c.9-5.1 5.3-8.8 10.4-8.8.6 0 1.2.1 1.8.2l164.2 29c2.8.5 5.2 2 6.8 4.4 1.6 2.3 2.3 5.1 1.8 7.9L459 236.4c-.2 1.2-.9 2.2-1.9 2.9L415 268.8c-.6.6-1.5.9-2.4.9z"/><path class="st1" d="M314 32.3c.3 0 .7 0 1.1.1l164.2 29c3.3.6 5.5 3.7 4.9 7l-29.5 167.2-42.1 29.5-134.4-23.7c-3.3-.6-5.5-3.7-4.9-7L308 37.3c.6-2.9 3.1-5 6-5m0-9.1c-7.4 0-13.6 5.3-14.9 12.5l-34.7 197.1c-.7 4 .2 8 2.5 11.3 2.3 3.3 5.8 5.5 9.8 6.2L411 274.1c.5.1 1.1.1 1.6.1 1.9 0 3.7-.6 5.2-1.6l42.1-29.5c2-1.4 3.3-3.5 3.7-5.9L493.2 70c1.5-8.2-4.1-16.1-12.3-17.6l-164.2-29c-.9-.1-1.8-.2-2.7-.2z"/><path class="st4" d="M352 187V43.7c0-1.8-.5-3.5-1.5-5L315 32.4c-3.3-.6-6.4 1.6-7 4.9l-31.5 178.4H346c3.3 0 6.1-2.7 6.1-6.1v-4.5h108.1l3.2-18.2H352zM412.6 269.7c-.8 0-1.7-.2-2.4-.7-1.6-1-2.4-2.8-2-4.6l5.1-28.7c1-5.7 5.9-9.8 11.6-9.8.7 0 1.4.1 2.1.2l28.7 5.1c1.8.3 3.3 1.7 3.7 3.5.4 1.8-.3 3.7-1.8 4.7l-42.1 29.5c-1.1.5-2 .8-2.9.8z"/><path class="st1" d="M424.8 230.4c.4 0 .8 0 1.3.1l28.7 5.1-42.1 29.5 5.1-28.7c.5-3.5 3.5-6 7-6m0-9.1c-8 0-14.7 5.7-16.1 13.5l-5.1 28.7c-.6 3.6 1 7.3 4.1 9.3 1.5 1 3.2 1.4 4.9 1.4 1.8 0 3.7-.6 5.2-1.6l42.1-29.5c3-2.1 4.5-5.8 3.7-9.4-.8-3.6-3.7-6.3-7.3-7l-28.7-5.1c-.9-.2-1.9-.3-2.8-.3zM372 134.8l-61.7-10.9c-1.1-.2-1.8-1.2-1.6-2.3l.4-2c.2-1.1 1.2-1.8 2.3-1.6l61.7 10.9c1.1.2 1.8 1.2 1.6 2.3l-.4 2c-.2 1.1-1.3 1.8-2.3 1.6zM325.9 151.3l-19.9-3.5c-1.1-.2-1.8-1.2-1.6-2.3l.4-2c.2-1.1 1.2-1.8 2.3-1.6l19.9 3.5c1.1.2 1.8 1.2 1.6 2.3l-.4 2c-.1 1.1-1.2 1.8-2.3 1.6zM364.6 176.6l-61.7-10.9c-1.1-.2-1.8-1.2-1.6-2.3l.4-2c.2-1.1 1.2-1.8 2.3-1.6l61.7 10.9c1.1.2 1.8 1.2 1.6 2.3l-.4 2c-.2 1.1-1.2 1.8-2.3 1.6zM347.6 185.9l-46.8-8.3c-1.1-.2-1.8-1.2-1.6-2.3l.4-2c.2-1.1 1.2-1.8 2.3-1.6l46.8 8.3c1.1.2 1.8 1.2 1.6 2.3l-.4 2c-.2 1.1-1.3 1.8-2.3 1.6zM359.3 206.5l-61.7-10.9c-1.1-.2-1.8-1.2-1.6-2.3l.4-2c.2-1.1 1.2-1.8 2.3-1.6l61.7 10.9c1.1.2 1.8 1.2 1.6 2.3l-.4 2c-.2 1-1.2 1.8-2.3 1.6zM330.3 213.7l-34.9-6.1c-1.1-.2-1.8-1.2-1.6-2.3l.4-2c.2-1.1 1.2-1.8 2.3-1.6l34.9 6.1c1.1.2 1.8 1.2 1.6 2.3l-.4 2c-.1 1-1.2 1.8-2.3 1.6zM354.9 144.1l-46.8-8.3c-1.1-.2-1.8-1.2-1.6-2.3l.4-2c.2-1.1 1.2-1.8 2.3-1.6l46.8 8.3c1.1.2 1.8 1.2 1.6 2.3l-.4 2c-.2 1.1-1.2 1.8-2.3 1.6zM430.6 203.6l-31.9-5.6c-1.1-.2-1.8-1.2-1.6-2.3l.4-2c.2-1.1 1.2-1.8 2.3-1.6l31.9 5.6c1.1.2 1.8 1.2 1.6 2.3l-.4 2c-.1 1.1-1.2 1.8-2.3 1.6z"/><circle class="st5" cx="386.8" cy="192.9" r="4.5"/><path class="st1" d="M419.6 214l-22.9-4c-1.1-.2-1.8-1.2-1.6-2.3l.4-2c.2-1.1 1.2-1.8 2.3-1.6l22.9 4c1.1.2 1.8 1.2 1.6 2.3l-.4 2c-.2 1.1-1.2 1.8-2.3 1.6z"/><circle class="st6" cx="384.7" cy="204.8" r="4.5"/><path class="st1" d="M408.5 224.4l-14-2.5c-1.1-.2-1.8-1.2-1.6-2.3l.4-2c.2-1.1 1.2-1.8 2.3-1.6l14 2.5c1.1.2 1.8 1.2 1.6 2.3l-.4 2c-.2 1-1.2 1.8-2.3 1.6z"/><circle class="st7" cx="382.6" cy="216.7" r="4.5"/><path class="st1" d="M391.3 113.3c-7.6 0-15.4-2.9-21.4-8.4-1.2-1.1-1.3-3-.2-4.3 1.1-1.2 3-1.3 4.3-.2 7.3 6.7 18.4 8.7 26.5 4.7 1.5-.7 3.3-.1 4.1 1.4.7 1.5.1 3.3-1.4 4.1-3.7 1.8-7.8 2.7-11.9 2.7zM410 99.4h-.5c-1.6-.3-2.8-1.9-2.5-3.5.3-1.6-.8-3.2-2.5-3.5-1.6-.3-3.2.8-3.5 2.5-.3 1.6-1.9 2.7-3.5 2.5-1.6-.3-2.7-1.9-2.5-3.5.9-4.9 5.6-8.2 10.5-7.4 4.9.9 8.2 5.6 7.4 10.5-.2 1.3-1.4 2.4-2.9 2.4zM380.2 94.1h-.5c-1.6-.3-2.7-1.9-2.5-3.5.1-.8 0-1.6-.5-2.3-.5-.7-1.2-1.1-2-1.2-.8-.1-1.6 0-2.3.5-.7.5-1.1 1.2-1.2 2-.3 1.6-1.9 2.7-3.5 2.5-1.6-.3-2.7-1.9-2.5-3.5.9-4.9 5.6-8.3 10.5-7.4 2.4.4 4.5 1.7 5.9 3.7 1.4 2 1.9 4.4 1.5 6.8-.2 1.4-1.5 2.4-2.9 2.4zM403.1 72.4c1.7-.4 3.1-.3 4.7-.1 1.5.2 3 .7 4.4 1.4 1.4.7 2.8 1.7 3.9 2.9s1.9 2.8 2.3 4.4c.3 1.4-.6 2.8-2 3.1-.7.2-1.3 0-1.9-.3l-.5-.3c-1-.6-1.8-1.2-2.7-1.7-.9-.5-1.7-1-2.6-1.5l-2.9-1.4c-1-.5-2.1-1-3.1-1.6l-.6-.4c-1.2-.8-1.6-2.4-.8-3.6.6-.4 1.2-.8 1.8-.9zM381.4 73.6c-1.1.2-2.3.3-3.4.4l-3.2.4c-1 .1-2 .3-3 .5s-1.9.5-3.1.7l-.6.1c-1.4.2-2.8-.7-3-2.1-.1-.7 0-1.3.4-1.9.9-1.4 2.2-2.6 3.7-3.3 1.5-.8 3.1-1.3 4.6-1.4 1.6-.2 3.2-.1 4.7.2 1.5.3 2.9.8 4.4 1.7 1.2.8 1.6 2.3.8 3.6-.4.6-1 1-1.6 1.1h-.7z"/><path d="M449.1 85.1c-.8 0-1.6-.1-2.4-.2-7.4-1.3-12.4-8.4-11.1-15.8l.7-3.7c.4-2 2.1-3.6 4.1-3.7h.4c.2 0 .5 0 .7.1 2.5.4 4.1 2.8 3.7 5.3l-.7 3.7c-.4 2.5 1.2 4.8 3.7 5.3.3 0 .5.1.8.1 2.2 0 4.1-1.6 4.5-3.8L458 47c.2-1.2-.1-2.4-.8-3.4-.7-1-1.7-1.7-2.9-1.9-.3 0-.5-.1-.8-.1-2.2 0-4.1 1.6-4.5 3.8l-.7 3.7-9-1.6.7-3.7c1.2-6.5 6.8-11.3 13.4-11.3.8 0 1.6.1 2.4.2 7.4 1.3 12.4 8.4 11.1 15.8l-4.5 25.4c-1.1 6.4-6.7 11.2-13.3 11.2z" fill="#ccc"/><path d="M453.5 34.7c.7 0 1.3.1 2 .2 6.2 1.1 10.3 7 9.2 13.2l-4.5 25.4c-1 5.5-5.8 9.4-11.2 9.4-.7 0-1.3-.1-2-.2-6.2-1.1-10.3-7-9.2-13.2l.7-3.7c.2-1 1.1-1.8 2.1-1.9H441.2c1.2.2 2.1 1.4 1.8 2.6l-.7 3.7c-.7 3.7 1.8 7.2 5.5 7.9.4.1.8.1 1.2.1 3.2 0 6.1-2.3 6.7-5.6l4.5-25.4c.7-3.7-1.8-7.2-5.5-7.9-.4-.1-.8-.1-1.2-.1-3.2 0-6.1 2.3-6.7 5.6l-.3 1.5-4.5-.8.3-1.5c1-5.4 5.8-9.3 11.2-9.3m0-4.6c-7.7 0-14.3 5.5-15.7 13.2l-.3 1.5-.8 4.5 4.5.8 4.5.8 4.5.8.8-4.5.3-1.5c.2-1.1 1.1-1.9 2.2-1.9h.4c.8.1 1.3.6 1.5.9.2.3.5.9.4 1.7l-4.5 25.4c-.2 1.1-1.1 1.9-2.2 1.9h-.4c-1.2-.2-2.1-1.4-1.8-2.6l.7-3.7c.7-3.7-1.8-7.2-5.5-7.9-.4-.1-.8-.1-1.1-.1h-.5c-3.1.2-5.7 2.5-6.2 5.6l-.7 3.7c-.7 4.2.2 8.4 2.6 11.9s6.1 5.8 10.3 6.5c.9.2 1.9.2 2.8.2 7.7 0 14.3-5.5 15.7-13.2l4.5-25.4c.7-4.2-.2-8.4-2.6-11.9s-6.1-5.8-10.3-6.5c-1.2-.1-2.2-.2-3.1-.2z" fill="#515a78"/><path transform="rotate(10.003 404.962 160.637)" class="st5" d="M398.8 148.5h12.1v24.3h-12.1z"/><path transform="rotate(10.003 420.598 168.012)" class="st6" d="M414.4 160.4h12.1v15.2h-12.1z"/><path transform="rotate(10.003 438.604 161.948)" class="st7" d="M432.4 145.3h12.1v33.3h-12.1z"/><g><path class="st1" d="M390.1 168h-.4l-7.5-1.3c-1.2-.2-2.1-1.4-1.8-2.6.2-1.2 1.4-2.1 2.6-1.8l7.5 1.3c1.2.2 2.1 1.4 1.8 2.6-.2 1-1.1 1.8-2.2 1.8z"/></g><g><path class="st1" d="M392.2 156h-.4l-7.5-1.3c-1.2-.2-2.1-1.4-1.8-2.6.2-1.2 1.4-2.1 2.6-1.8l7.5 1.3c1.2.2 2.1 1.4 1.8 2.6-.2 1.1-1.1 1.8-2.2 1.8z"/></g><g><path class="st1" d="M394.3 144.1h-.4l-7.5-1.3c-1.2-.2-2.1-1.4-1.8-2.6.2-1.2 1.4-2.1 2.6-1.8l7.5 1.3c1.2.2 2.1 1.4 1.8 2.6-.2 1-1.1 1.8-2.2 1.8z"/></g><g><path class="st1" d="M433.7 191.1h-.4c-1.2-.2-2.1-1.4-1.8-2.6l1.3-7.5c.2-1.2 1.4-2.1 2.6-1.8 1.2.2 2.1 1.4 1.8 2.6l-1.3 7.5c-.1 1-1.1 1.8-2.2 1.8z"/></g><g><path class="st1" d="M417.3 188.2h-.4c-1.2-.2-2.1-1.4-1.8-2.6l1.3-7.5c.2-1.2 1.4-2.1 2.6-1.8 1.2.2 2.1 1.4 1.8 2.6l-1.3 7.5c-.1 1-1.1 1.8-2.2 1.8z"/></g><g><path class="st1" d="M400.9 185.3h-.4c-1.2-.2-2.1-1.4-1.8-2.6l1.3-7.5c.2-1.2 1.4-2.1 2.6-1.8 1.2.2 2.1 1.4 1.8 2.6l-1.3 7.5c-.2 1-1.1 1.8-2.2 1.8z"/></g><g><path class="st1" d="M445.5 186.2h-.5l-56.7-10c-1.6-.3-2.7-1.9-2.5-3.5l6.6-37.3c.3-1.6 1.8-2.7 3.5-2.5 1.6.3 2.7 1.9 2.5 3.5l-6.1 34.3 53.7 9.5c1.6.3 2.7 1.9 2.5 3.5-.3 1.5-1.6 2.5-3 2.5z"/></g><g><path class="st3" d="M161 227.9c-5.9 0-10.6-4.8-10.6-10.6V17.2c0-5.9 4.8-10.6 10.6-10.6h136.4c1.2 0 2.4.5 3.2 1.3L337 44.3c.9.9 1.3 2 1.3 3.2v169.8c0 5.9-4.8 10.6-10.6 10.6H161z"/><path class="st1" d="M297.5 11.1l36.4 36.4v169.8c0 3.3-2.7 6.1-6.1 6.1H161c-3.3 0-6.1-2.7-6.1-6.1V17.2c0-3.3 2.7-6.1 6.1-6.1h136.5m0-9.1H161c-8.4 0-15.2 6.8-15.2 15.2v200.1c0 8.4 6.8 15.2 15.2 15.2h166.7c8.4 0 15.2-6.8 15.2-15.2V47.5c0-2.4-1-4.7-2.7-6.4L303.9 4.7c-1.7-1.7-4-2.7-6.4-2.7z"/><path class="st4" d="M155 187h178.9v18.2H155z"/><g><path class="st4" d="M304.7 52c-6.5 0-11.8-5.3-11.8-11.8V11.1c0-1.8 1.1-3.5 2.8-4.2.6-.2 1.2-.3 1.7-.3 1.2 0 2.3.5 3.2 1.3L337 44.3c1.3 1.3 1.7 3.3 1 5-.7 1.7-2.4 2.8-4.2 2.8h-29.1z"/><path class="st1" d="M297.5 11.1l36.4 36.4h-29.1c-4 0-7.3-3.3-7.3-7.3V11.1m0-9.1c-1.2 0-2.4.2-3.5.7-3.4 1.4-5.6 4.7-5.6 8.4v29.1c0 9 7.3 16.4 16.4 16.4h29.1c3.7 0 7-2.2 8.4-5.6 1.4-3.4.6-7.3-2-9.9L303.9 4.7c-1.7-1.8-4.1-2.7-6.4-2.7zM292.9 152.8c-14.6 0-26.5-11.9-26.5-26.5s11.9-26.5 26.5-26.5 26.5 11.9 26.5 26.5-11.9 26.5-26.5 26.5zm0-45.4c-10.4 0-18.9 8.5-18.9 18.9s8.5 18.9 18.9 18.9c10.4 0 18.9-8.5 18.9-18.9s-8.4-18.9-18.9-18.9z"/><path class="st10" d="M309 150.2l-6.8-10.1c2.9-2 5.1-4.8 6.3-8.1l11.4 4.2c-2 5.7-5.9 10.6-10.9 14z"/><path class="st11" d="M320 136.2l-11.4-4.2c.7-1.8 1-3.8 1-5.7 0-2.5-.5-4.8-1.6-7l11-5.1c1.8 3.8 2.7 7.9 2.7 12.2 0 3.3-.6 6.7-1.7 9.8z"/><path class="st12" d="M308 119.3c-2.7-5.8-8.7-9.6-15.1-9.6V97.5c11.1 0 21.4 6.5 26.1 16.6l-11 5.2z"/><path class="st1" d="M316.7 164.2h-32.4c-1.1 0-2-.9-2-2v-2.1c0-1.1.9-2 2-2h32.4c1.1 0 2 .9 2 2v2.1c0 1.1-.9 2-2 2z"/><circle class="st12" cx="271.7" cy="161.2" r="4.5"/><path class="st1" d="M307.6 176.3h-23.3c-1.1 0-2-.9-2-2v-2.1c0-1.1.9-2 2-2h23.3c1.1 0 2 .9 2 2v2.1c0 1.1-.9 2-2 2z"/><circle class="st11" cx="271.7" cy="173.3" r="4.5"/><path class="st1" d="M298.5 188.5h-14.2c-1.1 0-2-.9-2-2v-2.1c0-1.1.9-2 2-2h14.2c1.1 0 2 .9 2 2v2.1c0 1.1-.9 2-2 2z"/><circle class="st10" cx="271.7" cy="185.4" r="4.5"/><path class="st1" d="M200 182.4h-14.2c-1.1 0-2-.9-2-2v-2.1c0-1.1.9-2 2-2H200c1.1 0 2 .9 2 2v2.1c0 1.1-.9 2-2 2z"/><circle class="st12" cx="173.2" cy="179.4" r="4.5"/><path class="st1" d="M242.4 182.4h-14.2c-1.1 0-2-.9-2-2v-2.1c0-1.1.9-2 2-2h14.2c1.1 0 2 .9 2 2v2.1c0 1.1-.9 2-2 2z"/><circle class="st11" cx="215.6" cy="179.4" r="4.5"/><path class="st1" d="M200 194.5h-14.2c-1.1 0-2-.9-2-2v-2.1c0-1.1.9-2 2-2H200c1.1 0 2 .9 2 2v2.1c0 1.1-.9 2-2 2z"/><circle class="st10" cx="173.2" cy="191.5" r="4.5"/><path class="st1" d="M264.9 62.4c-.2 0-.5 0-.7-.1-2.4-.8-6.7-.8-9.1 0-1.2.4-2.5-.2-2.9-1.4-.4-1.2.2-2.5 1.4-2.9 3.4-1.2 8.7-1.2 12.1 0 1.2.4 1.8 1.7 1.4 2.9-.4.9-1.3 1.5-2.2 1.5z"/><circle class="st1" cx="259.6" cy="50" r="9.1"/><circle class="st3" cx="261.8" cy="50" r="2.3"/><path class="st1" d="M234.6 62.4c-.2 0-.5 0-.7-.1-2.4-.8-6.7-.8-9.1 0-1.2.4-2.5-.2-2.9-1.4-.4-1.2.2-2.5 1.4-2.9 3.4-1.2 8.7-1.2 12.1 0 1.2.4 1.8 1.7 1.4 2.9-.4.9-1.3 1.5-2.2 1.5z"/><circle class="st1" cx="229.3" cy="50" r="9.1"/><circle class="st3" cx="231.5" cy="50" r="2.3"/><path class="st1" d="M252.3 31.2c1.4-1 2.7-1.6 4.2-2.1 1.5-.4 3-.6 4.6-.6 1.6 0 3.2.4 4.8 1 1.5.6 2.9 1.7 4 3 .9 1.1.7 2.8-.4 3.7-.5.4-1.2.6-1.8.5h-.6c-1.2-.1-2.1-.3-3.1-.4-1-.1-2-.2-3-.2l-3.2-.1c-1.1 0-2.4 0-3.4-.1l-.7-.1c-1.4-.2-2.4-1.5-2.2-2.9-.1-.7.3-1.3.8-1.7zM234.6 35.9c-1.1.1-2.3.1-3.4.1l-3.2.1c-1 0-2 .2-3 .2-1 .1-1.9.3-3.1.4h-.6c-1.4.1-2.7-1-2.8-2.4-.1-.7.2-1.3.5-1.8 1-1.3 2.4-2.4 4-3 1.5-.7 3.2-1 4.8-1 1.6 0 3.2.1 4.6.6 1.5.4 2.8 1 4.2 2.1 1.1.9 1.4 2.5.5 3.6-.4.6-1.1.9-1.7 1l-.8.1z"/><circle class="st13" cx="282.3" cy="64.2" r="3"/><circle class="st13" cx="276.2" cy="73.3" r="3"/><circle class="st13" cx="288.4" cy="73.3" r="3"/><circle class="st13" cx="206.5" cy="64.2" r="3"/><circle class="st13" cx="200.4" cy="73.3" r="3"/><circle class="st13" cx="212.6" cy="73.3" r="3"/><path class="st1" d="M244.4 93c-11.7 0-21.2-9.5-21.2-21.2 0-1.7 1.4-3 3-3h36.4c1.7 0 3 1.4 3 3 0 11.6-9.5 21.2-21.2 21.2z"/><path class="st1" d="M262.6 71.7c0 10-8.1 18.2-18.2 18.2s-18.2-8.1-18.2-18.2h36.4m0-6h-36.4c-3.3 0-6.1 2.7-6.1 6.1 0 13.4 10.9 24.3 24.3 24.3 13.3 0 24.1-10.7 24.3-24v-.3c0-3.4-2.7-6.1-6.1-6.1zm0 12.1z"/><ellipse class="st10" cx="244.4" cy="83.9" rx="13.5" ry="6.1"/><path fill="#d8f5df" d="M171.6 161.2l21.5-42.6 11.8 6 10.4-9.7 14.1 7.1 18-15.4v54.6z"/><g><path class="st12" d="M171.6 164.2c-.5 0-.9-.1-1.4-.3-1.5-.8-2.1-2.6-1.3-4.1l21.5-42.6c.4-.7 1-1.3 1.8-1.5.8-.2 1.6-.2 2.3.2l9.9 5.1 8.9-8.3c.9-.9 2.3-1.1 3.4-.5l12.2 6.1 16.6-14c1.3-1.1 3.2-.9 4.3.4 1.1 1.3.9 3.2-.3 4.3l-18.1 15.3c-.9.8-2.2.9-3.3.4l-12.1-6.1-8.9 8.3c-.9.9-2.3 1.1-3.4.5l-9-4.6-20.1 39.9c-.8.9-1.8 1.5-3 1.5z"/></g><g><path fill="#fff8e2" d="M171.6 161.2l24-29.3 9.8 7.5 12-10.2 11.7 6 18.3-13.4v39.4z"/></g><g><path class="st11" d="M171.6 164.2c-.7 0-1.4-.2-1.9-.7-1.3-1.1-1.5-3-.4-4.3l24-29.3c1-1.3 2.9-1.5 4.2-.5l7.8 6 10.1-8.6c.9-.8 2.3-.9 3.3-.4l10.1 5.2 16.8-12.4c1.4-1 3.2-.7 4.2.6 1 1.3.7 3.2-.6 4.2l-18.3 13.5c-.9.7-2.2.8-3.2.3l-9.9-5.1-10.4 8.8c-1.1.9-2.7 1-3.8.1l-7.4-5.7-22.1 27c-.7.9-1.6 1.3-2.5 1.3z"/></g><g><path class="st1" d="M171.6 146.8h-6.1c-1.3 0-2.3-1-2.3-2.3 0-1.3 1-2.3 2.3-2.3h6.1c1.3 0 2.3 1 2.3 2.3 0 1.3-1 2.3-2.3 2.3z"/></g><g><path class="st1" d="M171.6 131.6h-6.1c-1.3 0-2.3-1-2.3-2.3 0-1.3 1-2.3 2.3-2.3h6.1c1.3 0 2.3 1 2.3 2.3 0 1.3-1 2.3-2.3 2.3z"/></g><g><path class="st1" d="M171.6 116.5h-6.1c-1.3 0-2.3-1-2.3-2.3s1-2.3 2.3-2.3h6.1c1.3 0 2.3 1 2.3 2.3s-1 2.3-2.3 2.3z"/></g><g><path fill="#fad8d8" d="M171.6 161.2l21-15.6 8.3 7.4 16.5-10.1 10.2 6 19.8-12v24.3z"/></g><g><path class="st10" d="M171.6 164.2c-.9 0-1.8-.4-2.4-1.2-1-1.3-.7-3.2.6-4.2l21-15.6c1.2-.9 2.8-.8 3.8.2l6.6 5.9 14.6-9c1-.6 2.2-.6 3.1 0l8.7 5.1 18.3-11c1.4-.9 3.3-.4 4.2 1 .9 1.4.4 3.3-1 4.2l-19.8 12c-1 .6-2.1.6-3.1 0l-8.7-5.1-15 9.2c-1.1.7-2.6.6-3.6-.3l-6.4-5.8-19 14.1c-.6.3-1.2.5-1.9.5z"/></g><g><path class="st1" d="M247.4 164.2h-75.8c-1.7 0-3-1.4-3-3v-54.6c0-1.7 1.4-3 3-3 1.7 0 3 1.4 3 3v51.5h72.8c1.7 0 3 1.4 3 3 .1 1.8-1.3 3.1-3 3.1z"/></g><g><path class="st1" d="M239.9 169.5c-1.3 0-2.3-1-2.3-2.3v-6.1c0-1.3 1-2.3 2.3-2.3s2.3 1 2.3 2.3v6.1c-.1 1.3-1.1 2.3-2.3 2.3z"/></g><g><path class="st1" d="M224.7 169.5c-1.3 0-2.3-1-2.3-2.3v-6.1c0-1.3 1-2.3 2.3-2.3 1.3 0 2.3 1 2.3 2.3v6.1c0 1.3-1 2.3-2.3 2.3z"/></g><g><path class="st1" d="M209.5 169.5c-1.3 0-2.3-1-2.3-2.3v-6.1c0-1.3 1-2.3 2.3-2.3 1.3 0 2.3 1 2.3 2.3v6.1c0 1.3-1 2.3-2.3 2.3z"/></g><g><path class="st1" d="M194.4 169.5c-1.3 0-2.3-1-2.3-2.3v-6.1c0-1.3 1-2.3 2.3-2.3 1.3 0 2.3 1 2.3 2.3v6.1c0 1.3-1.1 2.3-2.3 2.3z"/></g><g><path class="st1" d="M179.2 169.5c-1.3 0-2.3-1-2.3-2.3v-6.1c0-1.3 1-2.3 2.3-2.3 1.3 0 2.3 1 2.3 2.3v6.1c0 1.3-1 2.3-2.3 2.3z"/></g></g></g><g><path class="st12" d="M132 229.3c-.8 0-1.6-.2-2.3-.6-1-.6-1.8-1.6-2.1-2.8L88.4 79.5c-.3-1.2-.1-2.4.5-3.5s1.6-1.8 2.8-2.1l69.4-18.6c.4-.1.8-.2 1.2-.2 2 0 3.8 1.3 4.4 3.4l39 146.5c.6 2.4-.8 4.9-3.2 5.6l-69.4 18.6c-.3.1-.7.1-1.1.1z"/><path class="st1" d="M162.1 59.8l39.2 146.4-69.3 18.6L92.8 78.4l69.3-18.6m0-9.1c-.8 0-1.6.1-2.4.3L90.4 69.6c-4.9 1.3-7.7 6.3-6.4 11.1l39.2 146.4c.6 2.3 2.1 4.3 4.2 5.5 1.4.8 3 1.2 4.5 1.2.8 0 1.6-.1 2.4-.3l69.4-18.6c4.9-1.3 7.7-6.3 6.4-11.1L170.9 57.4c-.6-2.3-2.1-4.3-4.2-5.5-1.4-.8-3-1.2-4.6-1.2z"/><path class="st17" d="M139.8 115.3c12.3-3.3 24.6-.4 32.3 6.6l-11.4-42.7c-6.4 1.7-12.9-2.1-14.7-8.5l-33.9 9.1c1.7 6.4-2.1 12.9-8.5 14.7l11.4 42.7c3.3-10 12.5-18.6 24.8-21.9zM124.4 98c-1.4-5.1 2-10.4 7.5-11.9s11.1 1.5 12.5 6.6c1.4 5.1-2 10.4-7.5 11.9s-11.1-1.5-12.5-6.6zM190.4 190.1L179 147.4c-3.2 9.9-12.4 18.5-24.7 21.8-12.3 3.3-24.6.4-32.3-6.6l11.4 42.7c6.4-1.7 12.9 2.1 14.7 8.5l33.9-9.1c-1.7-6.3 2-12.9 8.4-14.6zm-40.8 1.9c-1.4-5.1 2-10.4 7.5-11.9s11.1 1.5 12.5 6.6c1.4 5.1-2 10.4-7.5 11.9s-11.1-1.5-12.5-6.6z"/><g><path class="st1" d="M136.9 160.6c-.6 0-1.1-.2-1.6-.5-8.8-5.6-11.9-17-7.5-27.2.7-1.5 2.5-2.2 4-1.6 1.5.7 2.2 2.5 1.6 4-3.3 7.5-1.1 15.6 5.2 19.7 1.4.9 1.8 2.8.9 4.2-.6.9-1.6 1.4-2.6 1.4zM145.9 159.8h-.4c-1.2-.2-2-1.4-1.8-2.7.3-1.6-.4-4.2-1.4-5.4-.8-1-.7-2.4.2-3.2.9-.8 2.4-.7 3.2.2 2 2.3 3 6.3 2.5 9.2-.2 1.1-1.2 1.9-2.3 1.9z"/><circle class="st1" cx="152.6" cy="151.8" r="6.8"/><circle class="st3" cx="153" cy="153.4" r="1.7"/><path class="st1" d="M140.5 139.3h-.4c-1.2-.2-2-1.4-1.8-2.7.3-1.6-.4-4.2-1.4-5.4-.8-1-.7-2.4.2-3.2.9-.8 2.4-.7 3.2.2 2 2.3 3 6.3 2.5 9.2-.3 1.1-1.3 1.9-2.3 1.9z"/><g><circle class="st1" cx="147.1" cy="131.3" r="6.8"/><circle class="st3" cx="147.5" cy="132.9" r="1.7"/></g><g><path class="st1" d="M164.9 141.4c1.5.6 2.6 1.4 3.6 2.6 1 1.1 1.8 2.6 2.2 4.2.4 1.6.3 3.5-.3 5.1-.6 1.6-1.7 2.8-2.9 3.6-1.2.8-2.8.5-3.6-.7-.3-.5-.5-1-.4-1.5v-.8c0-1 .2-1.8.1-2.4 0-.6-.1-1.1-.2-1.6-.1-.6-.3-1.2-.6-2-.3-.7-.7-1.6-.9-2.5l-.3-1c-.3-1.3.5-2.7 1.8-3.1.5-.1 1.1-.1 1.5.1z"/></g><g><path class="st1" d="M158.3 132.2c-.2-.8-.3-1.9-.4-2.6-.1-.8-.3-1.5-.5-2-.2-.6-.4-1-.6-1.5-.2-.6-.7-1.1-1.3-2l-.4-.7c-.8-1.2-.4-2.8.8-3.6.5-.3 1-.4 1.6-.4 1.5.1 3 .6 4.3 1.7 1.3 1 2.4 2.6 2.9 4.3.5 1.6.5 3.3.2 4.7-.3 1.5-.8 2.7-1.9 4-.9 1.1-2.4 1.3-3.5.4-.4-.3-.7-.8-.9-1.3l-.3-1z"/></g></g><g class="st18"><path class="st1" d="M121.8 187l4.9 18.1h74.4l-4.9-18.1z"/></g></g><g><path class="st12" d="M87.8 266.2c-1.6 0-3.1-.8-3.9-2.3L8 132.6c-1.3-2.2-.5-5 1.7-6.2l62.2-35.9c.7-.4 1.5-.6 2.3-.6.4 0 .8.1 1.2.2 1.2.3 2.2 1.1 2.8 2.1L154 223.5c.6 1 .8 2.3.5 3.5-.3 1.2-1.1 2.2-2.1 2.8L90 265.6c-.7.4-1.5.6-2.2.6z"/><path class="st1" d="M74.1 94.5l75.8 131.3-62.2 35.9L12 130.4l62.1-35.9m0-9.1c-1.5 0-3.1.4-4.5 1.2L7.4 122.5c-2.1 1.2-3.6 3.2-4.2 5.5-.6 2.3-.3 4.8.9 6.9l75.8 131.3c1.7 2.9 4.7 4.5 7.9 4.5 1.5 0 3.1-.4 4.5-1.2l62.2-35.9c2.1-1.2 3.6-3.2 4.2-5.5.6-2.3.3-4.8-.9-6.9L82 89.9c-1.7-2.9-4.7-4.5-7.9-4.5z"/><path class="st17" d="M135.2 213l-22.1-38.3c-.5 10.4-7.2 21.1-18.2 27.5-11.1 6.4-23.6 6.8-32.9 2l22.1 38.3c5.7-3.3 13-1.3 16.3 4.4l30.4-17.6c-3.3-5.6-1.3-13 4.4-16.3zm-38.9 12.4c-2.6-4.6-.8-10.6 4.2-13.5 5-2.9 11.1-1.5 13.8 3.1 2.6 4.6.8 10.6-4.2 13.5-5 2.8-11.2 1.5-13.8-3.1zM67 153.9c11.1-6.4 23.6-6.8 32.9-2l-22.1-38.3c-5.7 3.3-13 1.3-16.3-4.4L31 126.7c3.3 5.7 1.3 13-4.4 16.3l22.1 38.3c.6-10.4 7.2-21.1 18.3-27.4zm-19.4-12.8c-2.6-4.6-.8-10.6 4.2-13.5 5-2.9 11.1-1.5 13.8 3.1 2.6 4.6.8 10.6-4.2 13.5-5 2.8-11.1 1.5-13.8-3.1z"/><g class="st18"><path class="st1" d="M127.5 187H44.6l10.5 18.1H138z"/></g><g><path class="st1" d="M88.8 194c-1 0-2.1-.5-2.6-1.5-.8-1.5-.3-3.3 1.1-4.1.7-.4 1-1.3.6-2.1-.3-.5-.7-.6-.9-.7-.2-.1-.7-.1-1.1.2-1.5.8-3.3.3-4.1-1.1-.8-1.5-.3-3.3 1.1-4.1 1.8-1 3.8-1.3 5.8-.8s3.6 1.8 4.6 3.5c1 1.8 1.3 3.8.8 5.8s-1.8 3.6-3.5 4.6c-.8.2-1.3.3-1.8.3zM78.2 175.7c-1 0-2.1-.5-2.6-1.5-.8-1.5-.3-3.3 1.1-4.1.7-.4 1-1.3.6-2.1-.3-.5-.7-.6-.9-.7-.2-.1-.7-.1-1.1.2-1.5.8-3.3.3-4.1-1.1-.8-1.5-.3-3.3 1.1-4.1 1.8-1 3.8-1.3 5.8-.8s3.6 1.8 4.6 3.5c2.1 3.6.8 8.3-2.8 10.4-.7.1-1.2.3-1.7.3zM78.1 195.2c-.3 0-.5 0-.8-.1-4.8-1.2-8.8-4.3-11.2-8.5-2.5-4.3-3.1-9.2-1.8-14 .4-1.6 2.1-2.6 3.7-2.1 1.6.4 2.6 2.1 2.1 3.7-.9 3.2-.5 6.5 1.2 9.3 1.6 2.8 4.3 4.8 7.5 5.7 1.6.4 2.6 2.1 2.2 3.7-.3 1.4-1.6 2.3-2.9 2.3zM89.6 166c-.7-.7-1.3-1.4-1.9-2.1l-1.8-2.1-1.8-2.1c-.6-.7-1.2-1.4-1.8-2.2l-.4-.5c-.9-1.2-.6-2.8.6-3.7.5-.4 1.1-.5 1.7-.5 1.6.1 3 .6 4.3 1.4 1.3.7 2.3 1.7 3.3 2.8.9 1.1 1.7 2.3 2.2 3.7.5 1.4.8 2.9.6 4.4-.2 1.4-1.5 2.5-2.9 2.3-.6-.1-1.2-.4-1.6-.8l-.5-.6zM99.5 187.1c-.4-.9-.7-1.8-1-2.7l-1-2.6-1-2.6c-.3-.9-.6-1.7-.9-2.7l-.2-.6c-.4-1.4.4-2.9 1.8-3.3.6-.2 1.2-.1 1.8.1 1.5.6 2.6 1.6 3.5 2.8.9 1.1 1.6 2.4 2.1 3.7.5 1.3.8 2.8.8 4.2 0 1.4-.2 3-.9 4.4-.7 1.3-2.3 1.8-3.5 1.1-.6-.3-1-.7-1.2-1.3l-.3-.5z"/></g></g><g><path d="M65.5 428c-5 0-9-4-9.1-8.9L41.9 210.7c-.3-2.5.5-5.1 2.2-7 1.7-2 4.2-3.1 6.8-3.1H459c2.6 0 5.1 1.1 6.8 3.1 1.7 1.9 2.5 4.5 2.2 7l-14.5 208.4c-.1 4.9-4.1 8.9-9.1 8.9H65.5z" fill="#ffd886"/><path class="st1" d="M459.1 205.1c2.7 0 4.8 2.4 4.5 5.1l-14.5 208.6c0 2.5-2 4.5-4.5 4.5h-379c-2.5 0-4.5-2-4.5-4.5L46.5 210.2c-.3-2.7 1.8-5.1 4.5-5.1h408.1m0-9.1H51c-3.9 0-7.6 1.7-10.2 4.6-2.5 2.9-3.7 6.6-3.4 10.4l14.5 208.2c.2 7.3 6.2 13.2 13.6 13.2h379c7.4 0 13.4-5.9 13.6-13.2L472.6 211c.4-3.8-.8-7.6-3.4-10.4-2.5-2.9-6.2-4.6-10.1-4.6z"/><path d="M51 214.2h408.1c1.7 0 3.2 1 4 2.4l.5-6.4c.3-2.7-1.8-5.1-4.5-5.1H51c-2.7 0-4.8 2.4-4.5 5.1l.5 6.4c.7-1.4 2.2-2.4 4-2.4z" fill="#ffebc2"/><path class="st1" d="M445.7 414.3H64.3c-1.6 0-3.1-.9-3.9-2.2l.5 6.7c0 2.5 2 4.5 4.5 4.5h379c2.5 0 4.5-2 4.5-4.5l.5-6.7c-.6 1.4-2 2.2-3.7 2.2z" opacity=".3"/><path class="st1" d="M296 310.3c-2.5 0-4.5-2-4.5-4.5 0-4.2-3.4-7.6-7.6-7.6s-7.6 3.4-7.6 7.6c0 2.5-2 4.5-4.5 4.5s-4.5-2-4.5-4.5c0-9.2 7.5-16.7 16.7-16.7s16.7 7.5 16.7 16.7c-.2 2.4-2.2 4.5-4.7 4.5zM274.6 266.6c1.5-.9 2.7-1.5 4.2-2 1.4-.5 2.9-.9 4.3-1.1 3-.5 6.1-.4 9.3.3 3.1.6 6.2 2.1 8.8 4.2.6.5 1.2 1.1 1.8 1.7.5.6 1 1.3 1.5 1.9.5.7.9 1.4 1.2 2.1.3.7.7 1.5.9 2.2.7 2-.4 4.2-2.5 4.9-1 .3-2.1.2-3-.2l-.8-.4c-2.1-1.1-3.7-2.2-5.4-2.8-1.7-.7-3.4-1.3-5.3-1.8-1.9-.4-3.9-.8-6.1-1l-3.3-.3c-1.1-.1-2.4-.2-3.4-.4l-1-.2c-2.1-.4-3.4-2.5-3-4.6.3-1.1 1-2 1.8-2.5zM233.2 273.8c-1 .2-2.3.2-3.4.4l-3.3.3c-2.2.2-4.2.6-6.1 1-1.9.4-3.6 1.1-5.3 1.8-1.8.7-3.3 1.8-5.4 2.8l-.8.4c-1.9 1-4.3.2-5.2-1.7-.5-1-.5-2-.2-3 .2-.7.6-1.5.9-2.2.3-.7.7-1.4 1.2-2.1.5-.7 1-1.3 1.5-1.9.6-.6 1.2-1.1 1.8-1.7 2.6-2.1 5.7-3.6 8.8-4.2 3.1-.7 6.3-.7 9.3-.3 1.5.2 2.9.6 4.3 1.1 1.4.5 2.7 1.1 4.2 2 1.8 1.1 2.3 3.5 1.2 5.3-.6.9-1.5 1.5-2.4 1.7l-1.1.3zM238.3 310.3c-2.5 0-4.5-2-4.5-4.5 0-4.2-3.4-7.6-7.6-7.6-4.2 0-7.6 3.4-7.6 7.6 0 2.5-2 4.5-4.5 4.5s-4.5-2-4.5-4.5c0-9.2 7.5-16.7 16.7-16.7s16.7 7.5 16.7 16.7c-.1 2.4-2.1 4.5-4.7 4.5z"/><g><path class="st1" d="M255 363.6c-18.8 0-34.1-15.3-34.1-34.1 0-2.1 1.7-3.8 3.8-3.8h60.6c2.1 0 3.8 1.7 3.8 3.8 0 18.8-15.3 34.1-34.1 34.1z"/><path class="st1" d="M285.3 329.4c0 16.7-13.6 30.3-30.3 30.3-16.7 0-30.3-13.6-30.3-30.3h60.6m0-7.5h-60.6c-4.2 0-7.6 3.4-7.6 7.6 0 20.9 17 37.9 37.9 37.9 20.8 0 37.8-16.9 37.9-37.6v-.3c0-4.2-3.4-7.6-7.6-7.6zm0 15.1z"/><g><ellipse class="st10" cx="255" cy="349.7" rx="22.6" ry="10.1"/></g></g></g></svg>