<svg width="179" height="180" viewBox="0 0 179 180" fill="none" xmlns="http://www.w3.org/2000/svg">
<g clip-path="url(#clip0_596_2153)">
<path fill-rule="evenodd" clip-rule="evenodd" d="M4.44043 40.3799H173.82V175.56H4.44043V40.3799Z" fill="#FFF2E8"/>
<path d="M95.4001 32.46H15.8401C9.36008 32.46 4.08008 37.62 4.08008 44.04V54.78H174.24V44.04C174.24 37.62 168.96 32.46 162.48 32.46H105.06H95.4001Z" fill="#87796F"/>
<path d="M22.7399 13.5H25.5599V10.68H28.3799V7.86004H25.5599V5.04004H22.7399V7.86004H19.9199V10.68H22.7399V13.5Z" fill="#35414D"/>
<path d="M13.1999 23.7002H16.0199V20.8802H18.8399V18.0602H16.0199V15.2402H13.1999V18.0602H10.3799V20.8802H13.1999V23.7002Z" fill="#35414D"/>
<path d="M22.8003 48.6602C25.5507 48.6602 27.7803 46.4306 27.7803 43.6802C27.7803 40.9298 25.5507 38.7002 22.8003 38.7002C20.0499 38.7002 17.8203 40.9298 17.8203 43.6802C17.8203 46.4306 20.0499 48.6602 22.8003 48.6602Z" fill="#F16C7A"/>
<path d="M22.8002 49.7401C19.4402 49.7401 16.7402 47.0401 16.7402 43.6801C16.7402 40.3201 19.4402 37.6201 22.8002 37.6201C26.1602 37.6201 28.8602 40.3201 28.8602 43.6801C28.8602 46.9801 26.1602 49.7401 22.8002 49.7401ZM22.8002 39.7801C20.6402 39.7801 18.9002 41.5201 18.9002 43.6801C18.9002 45.8401 20.6402 47.5801 22.8002 47.5801C24.9602 47.5801 26.7002 45.8401 26.7002 43.6801C26.7002 41.5201 24.9602 39.7801 22.8002 39.7801Z" fill="#3A312A"/>
<path d="M43.6206 48.6602C46.371 48.6602 48.6006 46.4306 48.6006 43.6802C48.6006 40.9298 46.371 38.7002 43.6206 38.7002C40.8702 38.7002 38.6406 40.9298 38.6406 43.6802C38.6406 46.4306 40.8702 48.6602 43.6206 48.6602Z" fill="#D7E057"/>
<path d="M43.6205 49.7401C40.2605 49.7401 37.5605 47.0401 37.5605 43.6801C37.5605 40.3201 40.2605 37.6201 43.6205 37.6201C46.9805 37.6201 49.6806 40.3201 49.6806 43.6801C49.7406 46.9801 46.9805 49.7401 43.6205 49.7401ZM43.6205 39.7801C41.4605 39.7801 39.7205 41.5201 39.7205 43.6801C39.7205 45.8401 41.4605 47.5801 43.6205 47.5801C45.7805 47.5801 47.5205 45.8401 47.5205 43.6801C47.5205 41.5201 45.7805 39.7801 43.6205 39.7801Z" fill="#3A312A"/>
<path d="M64.44 48.6602C67.1903 48.6602 69.42 46.4306 69.42 43.6802C69.42 40.9298 67.1903 38.7002 64.44 38.7002C61.6896 38.7002 59.46 40.9298 59.46 43.6802C59.46 46.4306 61.6896 48.6602 64.44 48.6602Z" fill="#8AC6DD"/>
<path d="M64.4399 49.7401C61.0799 49.7401 58.3799 47.0401 58.3799 43.6801C58.3799 40.3201 61.0799 37.6201 64.4399 37.6201C67.7999 37.6201 70.4999 40.3201 70.4999 43.6801C70.5599 46.9801 67.7999 49.7401 64.4399 49.7401ZM64.4399 39.7801C62.2799 39.7801 60.5399 41.5201 60.5399 43.6801C60.5399 45.8401 62.2799 47.5801 64.4399 47.5801C66.5999 47.5801 68.3399 45.8401 68.3399 43.6801C68.3399 41.5201 66.5999 39.7801 64.4399 39.7801Z" fill="#3A312A"/>
<path d="M95.04 115.081C95.04 117.301 93.24 119.101 91.02 119.101C88.8 119.101 87 117.301 87 115.081C87 112.861 88.8 111.061 91.02 111.061C93.24 111.061 95.04 112.801 95.04 115.081Z" fill="#07BEEF"/>
<path d="M116.82 96.3003C116.82 98.5203 115.02 100.32 112.8 100.32C110.58 100.32 108.78 98.5203 108.78 96.3003C108.78 94.0803 110.58 92.2803 112.8 92.2803C115.02 92.2803 116.82 94.0803 116.82 96.3003Z" fill="#FC635B"/>
<path d="M138.601 109.56C138.601 111.78 136.801 113.58 134.581 113.58C132.361 113.58 130.561 111.78 130.561 109.56C130.561 107.34 132.361 105.54 134.581 105.54C136.801 105.54 138.601 107.34 138.601 109.56Z" fill="#7EC927"/>
<path d="M160.38 88.56C160.38 90.78 158.58 92.58 156.36 92.58C154.14 92.58 152.34 90.78 152.34 88.56C152.34 86.34 154.14 84.54 156.36 84.54C158.58 84.54 160.38 86.34 160.38 88.56Z" fill="#FFA733"/>
<path d="M95.04 114.901V115.081C95.04 117.301 93.24 119.161 91.02 119.161C88.8 119.161 87 117.361 87 115.081C87 113.881 87.54 112.801 88.38 112.021C88.5 114.181 90.24 115.921 92.4 115.921C93.42 115.861 94.32 115.501 95.04 114.901Z" fill="#00B6E0"/>
<path d="M116.82 96.1202V96.3002C116.82 98.5202 115.02 100.38 112.8 100.38C110.58 100.38 108.78 98.5802 108.78 96.3002C108.78 95.1002 109.32 94.0202 110.16 93.2402C110.22 95.4002 112.02 97.1402 114.18 97.1402C115.2 97.1402 116.1 96.7802 116.82 96.1202Z" fill="#F34234"/>
<path d="M138.6 109.38V109.56C138.6 111.78 136.8 113.58 134.58 113.58C132.36 113.58 130.5 111.78 130.5 109.56C130.5 108.36 131.04 107.28 131.88 106.5C132 108.66 133.74 110.34 135.9 110.34C136.92 110.4 137.88 110.04 138.6 109.38Z" fill="#60A917"/>
<path d="M160.38 88.3805V88.5605C160.38 90.7805 158.58 92.5805 156.36 92.5805C154.14 92.5805 152.34 90.7805 152.34 88.5605C152.34 87.3605 152.88 86.2805 153.72 85.5605C153.84 87.7205 155.58 89.4005 157.74 89.4005C158.7 89.4005 159.66 89.0405 160.38 88.3805Z" fill="#FF9801"/>
<path d="M91.0201 120.42C93.9601 120.42 96.3601 118.02 96.3601 115.02C96.3601 114.12 96.1201 113.34 95.7601 112.56L109.38 100.38C110.34 101.16 111.48 101.64 112.8 101.64C114.36 101.64 115.74 100.92 116.76 99.8401L129.36 108.36C129.3 108.72 129.24 109.14 129.24 109.5C129.24 112.44 131.64 114.9 134.64 114.9C137.58 114.9 139.98 112.5 139.98 109.5C139.98 108.66 139.8 107.94 139.5 107.28L153.6 93.0602C154.44 93.5402 155.4 93.9002 156.42 93.9002C159.36 93.9002 161.76 91.5002 161.76 88.5002C161.76 85.5602 159.36 83.1602 156.42 83.1602C153.48 83.1602 151.02 85.5602 151.02 88.5002C151.02 89.4602 151.26 90.3601 151.74 91.1401L137.76 105.24C136.86 104.58 135.78 104.22 134.58 104.22C132.96 104.22 131.58 104.94 130.56 106.02L118.02 97.5602C118.14 97.1402 118.2 96.7202 118.2 96.3002C118.2 93.3602 115.8 90.9602 112.86 90.9602C109.92 90.9602 107.46 93.3602 107.46 96.3002C107.46 97.0202 107.58 97.6802 107.82 98.2802L94.0201 110.58C93.1801 109.98 92.1001 109.68 91.0201 109.68C88.0801 109.68 85.6201 112.08 85.6201 115.02C85.6201 118.02 88.0201 120.42 91.0201 120.42ZM156.36 85.8602C157.86 85.8602 159.06 87.0602 159.06 88.5602C159.06 90.0602 157.86 91.2602 156.36 91.2602C154.86 91.2602 153.66 90.0602 153.66 88.5602C153.6 87.0602 154.86 85.8602 156.36 85.8602ZM134.58 106.86C136.08 106.86 137.28 108.06 137.28 109.56C137.28 111.06 136.08 112.26 134.58 112.26C133.08 112.26 131.88 111.06 131.88 109.56C131.82 108.06 133.08 106.86 134.58 106.86ZM112.8 93.6002C114.3 93.6002 115.5 94.8002 115.5 96.3002C115.5 97.8002 114.3 99.0002 112.8 99.0002C111.3 99.0002 110.1 97.8002 110.1 96.3002C110.04 94.8002 111.3 93.6002 112.8 93.6002ZM91.0201 112.32C92.5201 112.32 93.7201 113.52 93.7201 115.02C93.7201 116.52 92.5201 117.72 91.0201 117.72C89.5201 117.72 88.3201 116.52 88.3201 115.02C88.2601 113.58 89.5201 112.32 91.0201 112.32Z" fill="#35414D"/>
<path d="M88.0205 143.52H102.001V163.5H88.0205V143.52Z" fill="#EF6D7A"/>
<path d="M102 164.64H88.0204C87.4204 164.64 86.9404 164.16 86.9404 163.56V143.58C86.9404 142.98 87.4204 142.5 88.0204 142.5H102C102.6 142.5 103.08 142.98 103.08 143.58V163.56C103.14 164.1 102.6 164.64 102 164.64ZM89.1004 162.42H100.86V144.66H89.1004V162.42Z" fill="#3A312A"/>
<path d="M107.46 123.24H121.44V163.5H107.46V123.24Z" fill="#D6DF58"/>
<path d="M121.441 164.64H107.461C106.861 164.64 106.381 164.16 106.381 163.56V123.3C106.381 122.7 106.861 122.22 107.461 122.22H121.441C122.041 122.22 122.521 122.7 122.521 123.3V163.56C122.521 164.1 122.041 164.64 121.441 164.64ZM108.541 162.42H120.301V124.32H108.541V162.42Z" fill="#3A312A"/>
<path d="M126.841 133.5H140.821V163.5H126.841V133.5Z" fill="#8AC5DC"/>
<path d="M140.821 164.639H126.841C126.241 164.639 125.761 164.159 125.761 163.559V133.559C125.761 132.959 126.241 132.479 126.841 132.479H140.821C141.421 132.479 141.901 132.959 141.901 133.559V163.559C141.961 164.099 141.421 164.639 140.821 164.639ZM127.981 162.419H139.741V134.579H127.981V162.419Z" fill="#3A312A"/>
<path d="M146.28 115.38H160.26V163.56H146.28V115.38Z" fill="#87796F"/>
<path d="M160.26 164.64H146.28C145.68 164.64 145.2 164.16 145.2 163.56V115.38C145.2 114.78 145.68 114.3 146.28 114.3H160.26C160.86 114.3 161.34 114.78 161.34 115.38V163.56C161.34 164.1 160.86 164.64 160.26 164.64ZM147.36 162.42H159.12V116.46H147.36V162.42Z" fill="#3A312A"/>
<path fill-rule="evenodd" clip-rule="evenodd" d="M66.1799 88.5C66.1799 96.06 62.6399 103.5 56.0999 108.24L41.8799 88.5H46.0199H66.1799Z" fill="#FFB54C"/>
<path d="M41.9402 113.76C55.8578 113.76 67.1402 102.478 67.1402 88.5604C67.1402 74.6428 55.8578 63.3604 41.9402 63.3604C28.0227 63.3604 16.7402 74.6428 16.7402 88.5604C16.7402 102.478 28.0227 113.76 41.9402 113.76Z" fill="#35414D"/>
<path d="M41.8805 112.861C55.3342 112.861 66.2405 101.954 66.2405 88.5006C66.2405 75.047 55.3342 64.1406 41.8805 64.1406C28.4269 64.1406 17.5205 75.047 17.5205 88.5006C17.5205 101.954 28.4269 112.861 41.8805 112.861Z" fill="#35414D"/>
<path fill-rule="evenodd" clip-rule="evenodd" d="M41.8799 64.1406C55.3199 64.1406 66.2399 75.0606 66.2399 88.5006H41.8799V64.1406Z" fill="#35414D"/>
<path fill-rule="evenodd" clip-rule="evenodd" d="M56.5806 104.761L46.5605 90.8408H63.7205C63.0605 96.3608 60.4206 101.281 56.5806 104.761Z" fill="#FFA733"/>
<path fill-rule="evenodd" clip-rule="evenodd" d="M19.9199 88.5002C19.9199 100.62 29.7599 110.46 41.8799 110.46C45.7799 110.46 49.4999 109.44 52.6799 107.58L39.8999 89.8802C39.5999 89.4602 39.4199 88.9802 39.4199 88.5002V66.6602C28.4999 67.8602 19.9199 77.1602 19.9199 88.5002Z" fill="#2FB1D4"/>
<path fill-rule="evenodd" clip-rule="evenodd" d="M63.6603 86.1002H44.2803V66.6602C54.4203 67.8002 62.5803 75.9002 63.6603 86.1002Z" fill="#FF5A5A"/>
<path d="M36.6003 158.04H60.7803C62.0403 158.04 63.0603 157.02 63.0603 155.76C63.0603 154.5 62.0403 153.48 60.7803 153.48H36.6003C35.3403 153.48 34.3203 154.5 34.3203 155.76C34.3203 157.02 35.3403 158.04 36.6003 158.04Z" fill="#35414D"/>
<path d="M36.6003 135.781H60.7803C62.0403 135.781 63.0603 134.761 63.0603 133.501C63.0603 132.241 62.0403 131.221 60.7803 131.221H36.6003C35.3403 131.221 34.3203 132.241 34.3203 133.501C34.3203 134.761 35.3403 135.781 36.6003 135.781Z" fill="#35414D"/>
<path d="M36.6003 146.941H60.7803C62.0403 146.941 63.0603 145.921 63.0603 144.661C63.0603 143.401 62.0403 142.381 60.7803 142.381H36.6003C35.3403 142.381 34.3203 143.401 34.3203 144.661C34.3203 145.921 35.3403 146.941 36.6003 146.941Z" fill="#35414D"/>
<path d="M23.0398 135.781H26.6398C27.8998 135.781 28.9198 134.761 28.9198 133.501C28.9198 132.241 27.8998 131.221 26.6398 131.221H23.0398C21.7798 131.221 20.7598 132.241 20.7598 133.501C20.7598 134.761 21.7798 135.781 23.0398 135.781Z" fill="#FFA733"/>
<path d="M23.0402 146.941H26.6402C27.9002 146.941 28.9202 145.921 28.9202 144.661C28.9202 143.401 27.9002 142.381 26.6402 142.381H23.0402C21.7802 142.381 20.7602 143.401 20.7602 144.661C20.7002 145.921 21.7802 146.941 23.0402 146.941Z" fill="#FF5A5A"/>
<path d="M23.0402 158.04H26.6402C27.9002 158.04 28.9202 157.02 28.9202 155.76C28.9202 154.5 27.9002 153.48 26.6402 153.48H23.0402C21.7802 153.48 20.7602 154.5 20.7602 155.76C20.7002 157.02 21.7802 158.04 23.0402 158.04Z" fill="#35414D"/>
<path d="M159.36 32.4595C167.34 32.4595 173.82 38.9395 173.82 46.9195V161.04C173.82 169.02 167.34 175.5 159.36 175.5H18.9C10.92 175.5 4.44 169.02 4.44 161.04V46.9195C4.44 38.9395 10.92 32.4595 18.9 32.4595H159.36ZM159.36 28.0195H18.9C8.46 28.0195 0 36.5395 0 46.9195V161.04C0 171.54 8.46 180 18.9 180H159.36C169.8 180 178.26 171.54 178.26 161.1V46.9195C178.26 36.5395 169.74 28.0195 159.36 28.0195Z" fill="#35414D"/>
<path d="M155.88 47.82H91.14C88.86 47.82 87 45.96 87 43.68C87 41.4 88.86 39.54 91.14 39.54H155.88C158.16 39.54 160.02 41.4 160.02 43.68C160.02 45.96 158.16 47.82 155.88 47.82Z" fill="#FDF6EC" stroke="#35414D" stroke-width="3.8368" stroke-miterlimit="10"/>
<path d="M174.42 19.26H173.52C172.98 16.92 172.08 14.76 170.82 12.84L171.48 12.18C172.26 11.4 172.26 10.2 171.48 9.41996L167.94 5.87996C167.16 5.09996 165.96 5.09996 165.18 5.87996L164.52 6.53996C162.6 5.33996 160.44 4.43996 158.1 3.89996V2.93996C158.1 1.85996 157.2 0.959961 156.12 0.959961H151.14C150.06 0.959961 149.16 1.85996 149.16 2.93996V3.89996C147.96 4.19996 144.72 5.33996 142.74 6.53996L142.08 5.87996C141.3 5.09996 140.1 5.09996 139.32 5.87996L135.78 9.41996C135 10.2 135 11.4 135.78 12.18L136.44 12.84C135.18 14.76 134.28 16.92 133.74 19.26H132.84C131.76 19.26 130.86 20.16 130.86 21.24V26.22C130.86 27.3 131.76 28.2 132.84 28.2H133.68C134.16 30.54 135.12 32.76 136.32 34.68L135.72 35.28C134.94 36.06 134.94 37.26 135.72 38.04L139.26 41.58C140.04 42.36 141.24 42.36 142.02 41.58L142.56 41.04C144.54 42.3 146.76 43.26 149.1 43.74V44.52C149.1 45.6 150 46.5 151.08 46.5H156.06C157.14 46.5 158.04 45.6 158.04 44.52V43.74C160.38 43.2 162.6 42.3 164.58 41.04L165.12 41.58C165.9 42.36 167.1 42.36 167.88 41.58L171.42 38.04C172.2 37.26 172.2 36.06 171.42 35.28L170.82 34.68C172.08 32.7 172.98 30.54 173.46 28.2H174.3C175.38 28.2 176.28 27.3 176.28 26.22V21.24C176.34 20.16 175.5 19.26 174.42 19.26ZM153.6 33.9C147.96 33.9 143.4 29.34 143.4 23.7C143.4 18.06 147.96 13.5 153.6 13.5C159.24 13.5 163.8 18.06 163.8 23.7C163.8 29.34 159.24 33.9 153.6 33.9Z" fill="#D7E057"/>
<path d="M156.12 47.46H151.14C149.52 47.46 148.2 46.14 148.2 44.52C146.28 44.04 144.48 43.26 142.8 42.3C142.26 42.84 141.48 43.14 140.7 43.14C139.92 43.14 139.2 42.84 138.6 42.3L135.06 38.76C133.92 37.62 133.92 35.76 135.06 34.62L135.12 34.56C134.16 32.88 133.38 31.08 132.9 29.16H132.84C131.22 29.16 129.9 27.84 129.9 26.22V21.24C129.9 19.62 131.22 18.3 132.84 18.3H132.96C133.44 16.44 134.22 14.64 135.18 13.02L135.06 12.9C133.92 11.76 133.92 9.9 135.06 8.76L138.6 5.22C139.14 4.68 139.92 4.38 140.7 4.38C141.48 4.38 142.2 4.68 142.8 5.22L142.98 5.4C144.72 4.44 146.94 3.66 148.26 3.24V2.94C148.26 1.32 149.58 0 151.2 0H156.18C157.8 0 159.12 1.32 159.12 2.94V3.18C160.98 3.66 162.72 4.38 164.4 5.34L164.52 5.22C165.66 4.08 167.52 4.08 168.66 5.22L172.2 8.76C173.34 9.9 173.34 11.76 172.2 12.9L172.08 13.02C173.04 14.7 173.82 16.44 174.3 18.3H174.42C176.04 18.3 177.36 19.62 177.36 21.24V26.22C177.36 27.84 176.04 29.16 174.42 29.16H174.36C173.88 31.02 173.16 32.82 172.14 34.56L172.2 34.62C173.34 35.76 173.34 37.62 172.2 38.76L168.66 42.3C167.52 43.44 165.66 43.44 164.52 42.3C162.84 43.32 161.04 44.04 159.12 44.52C159.06 46.14 157.74 47.46 156.12 47.46ZM142.62 40.02C142.8 40.02 142.98 40.08 143.16 40.2C145.08 41.4 147.18 42.3 149.34 42.78C149.76 42.9 150.12 43.26 150.12 43.74V44.52C150.12 45.06 150.54 45.48 151.08 45.48H156.06C156.6 45.48 157.02 45.06 157.02 44.52V43.74C157.02 43.26 157.32 42.9 157.8 42.78C160.02 42.3 162.12 41.4 164.04 40.2C164.4 39.96 164.94 40.02 165.24 40.32L165.78 40.86C166.14 41.22 166.8 41.22 167.16 40.86L170.7 37.32C171.06 36.96 171.06 36.3 170.7 35.94L170.1 35.34C169.8 35.04 169.74 34.5 169.98 34.14C171.18 32.22 172.02 30.18 172.5 27.96C172.62 27.48 172.98 27.18 173.46 27.18H174.3C174.84 27.18 175.26 26.76 175.26 26.22V21.24C175.26 20.7 174.84 20.28 174.3 20.28H173.4C172.92 20.28 172.56 19.98 172.44 19.5C171.96 17.34 171.06 15.3 169.86 13.38C169.62 13.02 169.68 12.48 169.98 12.18L170.64 11.52C171 11.16 171 10.5 170.64 10.14L167.1 6.6C166.74 6.24 166.08 6.24 165.72 6.6L165 7.32C164.7 7.62 164.16 7.68 163.8 7.44C161.94 6.24 159.9 5.4 157.74 4.92C157.32 4.8 156.96 4.44 156.96 3.96V2.94C156.96 2.4 156.54 1.98 156 1.98H151.02C150.48 1.98 150.06 2.4 150.06 2.94V3.9C150.06 4.32 149.76 4.74 149.34 4.86C148.14 5.16 145.02 6.24 143.22 7.38C142.86 7.62 142.32 7.56 142.02 7.26L141.3 6.54C140.94 6.18 140.28 6.18 139.92 6.54L136.38 10.08C136.02 10.44 136.02 11.1 136.38 11.46L137.04 12.12C137.34 12.42 137.4 12.96 137.16 13.32C135.96 15.18 135.12 17.28 134.58 19.44C134.46 19.86 134.1 20.22 133.62 20.22H132.72C132.18 20.22 131.76 20.64 131.76 21.18V26.16C131.76 26.7 132.18 27.12 132.72 27.12H133.56C134.04 27.12 134.4 27.42 134.52 27.9C135 30.12 135.84 32.16 137.04 34.08C137.28 34.44 137.22 34.98 136.92 35.28L136.32 35.88C135.96 36.24 135.96 36.9 136.32 37.26L139.86 40.8C140.22 41.16 140.88 41.16 141.24 40.8L141.78 40.26C142.14 40.14 142.38 40.02 142.62 40.02ZM153.6 34.86C147.42 34.86 142.44 29.82 142.44 23.7C142.44 17.58 147.48 12.54 153.6 12.54C159.72 12.54 164.76 17.58 164.76 23.7C164.76 29.82 159.78 34.86 153.6 34.86ZM153.6 14.52C148.5 14.52 144.36 18.66 144.36 23.76C144.36 28.86 148.5 33 153.6 33C158.7 33 162.84 28.86 162.84 23.76C162.84 18.66 158.7 14.52 153.6 14.52Z" fill="#35414D"/>
<path d="M121.56 67.8002H145.74C147 67.8002 148.02 66.7802 148.02 65.5202C148.02 64.2602 147 63.2402 145.74 63.2402H121.56C120.3 63.2402 119.28 64.2602 119.28 65.5202C119.28 66.7802 120.3 67.8002 121.56 67.8002Z" fill="#35414D"/>
<path d="M121.56 78.9604H145.74C147 78.9604 148.02 77.9404 148.02 76.6804C148.02 75.4204 147 74.4004 145.74 74.4004H121.56C120.3 74.4004 119.28 75.4204 119.28 76.6804C119.28 77.9404 120.3 78.9604 121.56 78.9604Z" fill="#35414D"/>
<path d="M107.94 67.8002H111.54C112.8 67.8002 113.82 66.7802 113.82 65.5202C113.82 64.2602 112.8 63.2402 111.54 63.2402H107.94C106.68 63.2402 105.66 64.2602 105.66 65.5202C105.66 66.7802 106.68 67.8002 107.94 67.8002Z" fill="#35414D"/>
<path d="M107.94 78.9604H111.54C112.8 78.9604 113.82 77.9404 113.82 76.6804C113.82 75.4204 112.8 74.4004 111.54 74.4004H107.94C106.68 74.4004 105.66 75.4204 105.66 76.6804C105.66 77.9404 106.68 78.9604 107.94 78.9604Z" fill="#35414D"/>
<path d="M153.6 32.94C158.703 32.94 162.84 28.8031 162.84 23.7C162.84 18.5968 158.703 14.46 153.6 14.46C148.497 14.46 144.36 18.5968 144.36 23.7C144.36 28.8031 148.497 32.94 153.6 32.94Z" fill="white"/>
</g>
<defs>
<clipPath id="clip0_596_2153">
<rect width="178.26" height="180" fill="white"/>
</clipPath>
</defs>
</svg>
