<svg width="180" height="180" viewBox="0 0 180 180" fill="none" xmlns="http://www.w3.org/2000/svg">
<g clip-path="url(#clip0_596_2398)">
<path d="M54.334 87.0557V66.4756C54.334 46.9882 70.1181 31.2041 89.6055 31.2041C109.093 31.2041 124.877 46.9882 124.877 66.4756V87.0557H54.334Z" fill="#D3A06C"/>
<path d="M89.6054 31.2646C88.6341 31.2646 87.6627 31.3254 86.6914 31.3861C104.782 32.9038 118.988 48.0201 118.988 66.4754V87.0555H124.877V66.4754C124.816 47.0488 109.032 31.2646 89.6054 31.2646Z" fill="#B27946"/>
<path d="M77.8278 154.624H142.482L136.958 138.111C134.894 131.98 129.733 127.487 123.42 126.334L101.383 122.327H77.8885L55.8514 126.334C49.5377 127.487 44.3168 131.98 42.3134 138.111L39.7637 149.828V154.685H77.8278V154.624Z" fill="#92E0C0"/>
<path d="M77.8281 113.524V122.327L89.6055 134.044L101.322 122.327V113.524H77.8281Z" fill="#F9E0A6"/>
<path d="M113.1 78.2529H116.014C120.87 78.2529 124.816 82.199 124.816 87.0556C124.816 91.9123 120.87 95.8583 116.014 95.8583H113.1V78.2529Z" fill="#F9E0A6"/>
<path d="M66.0507 78.2529H63.1367C58.28 78.2529 54.334 82.199 54.334 87.0556C54.334 91.9123 58.28 95.8583 63.1367 95.8583H66.0507V78.2529Z" fill="#F9E0A6"/>
<path d="M63.1367 75.3388V92.9442C63.1367 107.575 74.9748 119.352 89.5448 119.352C104.176 119.352 115.953 107.514 115.953 92.9442V75.3388C106.543 75.3388 97.5583 71.5749 90.8804 64.9577L89.5448 63.6221L88.2092 64.9577C81.592 71.5749 72.5465 75.3388 63.1367 75.3388Z" fill="#F9E0A6"/>
<path d="M110.125 92.9446C110.125 106.543 99.8653 117.774 86.6309 119.231C87.6022 119.353 88.5735 119.413 89.5449 119.413C104.176 119.413 115.953 107.575 115.953 93.0053V75.3999C113.95 75.3999 112.007 75.2178 110.064 74.8535V92.9446H110.125Z" fill="#EABD8C"/>
<path d="M130.705 1.88184H171.805C175.022 1.88184 177.693 4.49229 177.693 7.77054V31.2646C177.693 34.4822 175.083 37.1533 171.805 37.1533H163.002L139.508 51.8447L141.997 37.1533H130.645C127.427 37.1533 124.756 34.5429 124.756 31.2646V7.77054C124.817 4.49229 127.427 1.88184 130.705 1.88184Z" fill="#FFF2E8"/>
<path d="M129.734 154.624H142.482L136.958 138.111C134.894 131.98 129.734 127.487 123.42 126.334L101.383 122.327L122.509 134.044C125.848 135.865 128.034 139.204 128.459 143.029L129.734 154.624Z" fill="#48C397"/>
<path d="M66.0501 144.304L55.4869 153.835C53.18 156.142 49.4767 156.142 47.1698 153.835L26.1041 132.769C23.7971 130.462 23.7971 126.759 26.1041 124.452L35.6353 114.921L18.0299 97.3154L6.98096 108.364C0.120929 115.224 0.120929 126.395 6.98096 133.315L46.7449 172.958C53.6049 179.818 64.7752 179.818 71.696 172.958L83.7162 161.909L66.0501 144.304Z" fill="#FF5A5A"/>
<path d="M59.1901 179.818C54.0299 179.818 49.1732 177.814 45.5307 174.172L5.82751 134.468C2.18501 130.826 0.181641 125.969 0.181641 120.809C0.181641 115.649 2.18501 110.792 5.82751 107.15L18.0906 94.8867L38.1243 114.92L27.3789 125.666C25.7398 127.305 25.7398 129.915 27.3789 131.554L38.7921 142.968L40.6133 137.565C42.8595 130.887 48.5661 125.909 55.4869 124.634L76.1277 120.87V117.652L75.5206 117.288C68.4784 113.221 63.5004 106.3 61.9826 98.3471L61.8005 97.5579L61.0113 97.3757C56.1547 96.3437 52.6336 92.0334 52.6336 87.0553V66.4752C52.6336 46.0773 69.2069 29.5039 89.6049 29.5039C110.003 29.5039 126.576 46.0773 126.576 66.4752V101.747C126.576 105.936 123.177 109.335 118.988 109.335H112.431L112.067 109.821C109.76 112.856 106.967 115.406 103.689 117.288L103.082 117.652V120.87L123.723 124.634C130.704 125.909 136.411 130.826 138.596 137.565L144.849 156.384H80.5594L86.2052 162.03L72.8494 174.232C69.2069 177.875 64.3503 179.818 59.1901 179.818ZM8.25584 109.578C5.22043 112.553 3.5813 116.56 3.5813 120.809C3.5813 125.059 5.22043 129.065 8.25584 132.04L47.959 171.743C50.9945 174.718 54.9405 176.418 59.1901 176.418C63.4396 176.418 67.4464 174.779 70.4211 171.743L73.0316 169.376L57.7938 154.138L56.701 155.109C55.3047 156.506 53.3621 157.295 51.3587 157.295C49.3553 157.295 47.4127 156.506 45.9557 155.049L24.8899 133.983C21.9152 131.008 21.9152 126.212 24.8899 123.237L25.8612 122.266L10.6842 107.089L8.25584 109.578ZM60.3435 151.831L75.5813 167.069L81.2272 161.909L66.0501 146.732L60.3435 151.831ZM56.0939 128.033C50.3874 129.065 45.7128 133.133 43.8309 138.657L41.4633 145.7L48.384 152.62C49.1125 153.349 50.2052 153.834 51.298 153.834C52.3907 153.834 53.4835 153.409 54.212 152.62L66.0501 141.936L77.0383 152.924H139.993L135.258 138.657C133.436 133.133 128.762 129.065 122.994 128.033L101.807 124.209L89.4835 136.533L77.1597 124.209L56.0939 128.033ZM79.5273 121.598L89.5442 131.615L99.5611 121.598V119.291L97.9826 119.777C95.2508 120.627 92.3975 121.052 89.5442 121.052C86.6909 121.052 83.8376 120.627 81.1058 119.777L79.5273 119.291V121.598ZM13.1732 104.661L28.3503 119.838L33.2676 114.92L18.0906 99.7434L13.1732 104.661ZM88.755 66.8395C82.502 72.7889 74.61 76.31 65.9894 76.9778L64.8966 77.0385V92.944C64.8966 106.543 76.0063 117.652 89.6049 117.652C95.615 117.652 101.382 115.467 105.875 111.46L108.303 109.335H90.8191V105.875H110.61L110.974 105.268C113.16 101.504 114.313 97.2543 114.313 92.8833V76.9778L113.16 76.9171C104.539 76.2493 96.7078 72.7889 90.3941 66.7788L89.5442 65.9896L88.755 66.8395ZM121.295 96.1009C120.202 96.708 119.17 97.1329 118.138 97.3757L117.349 97.5579L117.166 98.3471C116.802 100.35 116.134 102.354 115.345 104.236L114.617 105.936H118.927C121.234 105.936 123.055 104.054 123.055 101.807V95.1295L121.295 96.1009ZM117.713 94.2189L119.534 93.1262C121.72 91.8513 123.055 89.4837 123.055 86.9946C123.055 84.5056 121.72 82.138 119.534 80.8631L117.713 79.7703V94.2189ZM59.615 80.9845C57.4295 82.2594 56.0939 84.627 56.0939 87.116C56.0939 89.6051 57.4295 91.9727 59.615 93.2476L61.4363 94.3403V80.0132L59.615 80.9845ZM117.713 76.6742L118.623 76.9171C119.534 77.1599 120.445 77.5241 121.234 78.0098L123.055 79.1026V66.5359C123.055 48.0199 108 33.025 89.5442 33.025C71.0889 33.025 56.0332 48.0806 56.0332 66.5359V79.1026L57.8545 78.0098C58.7044 77.5241 59.5543 77.1599 60.4649 76.9171L61.3756 76.6742V73.5781H63.0754C72.0602 73.5781 80.5594 70.057 86.9337 63.6827L89.5442 61.0722L92.1547 63.6827C98.529 70.057 107.028 73.5781 116.013 73.5781H117.713V76.6742Z" fill="#35414D"/>
<path d="M59.1906 180C53.9696 180 49.113 177.996 45.4098 174.293L5.70658 134.59C2.00337 130.887 0 126.03 0 120.809C0 115.588 2.00337 110.732 5.70658 107.029L18.0911 94.644L38.3676 114.921L27.5008 125.787C25.9224 127.366 25.9224 129.916 27.5008 131.433L38.7319 142.664L40.4317 137.504C42.6779 130.765 48.4452 125.787 55.4266 124.512L75.946 120.809V117.774L75.3997 117.47C68.2968 113.342 63.3187 106.421 61.801 98.4079L61.6796 97.7402L61.0118 97.6187C56.0944 96.5867 52.5126 92.2157 52.5126 87.1769V66.5968C52.5126 46.1381 69.1467 29.4434 89.6661 29.4434C110.185 29.4434 126.82 46.0774 126.82 66.5968V101.868C126.82 106.118 123.359 109.639 119.049 109.639H112.614L112.31 110.064C110.003 113.099 107.15 115.649 103.872 117.531L103.325 117.835V120.87L123.845 124.573C130.826 125.848 136.594 130.826 138.84 137.565L145.153 156.566H80.9241L86.3879 162.03L86.2664 162.152L72.9106 174.415C69.2681 177.996 64.4115 180 59.1906 180ZM18.0911 95.069L5.94941 107.211C2.30691 110.853 0.303541 115.649 0.303541 120.809C0.303541 125.909 2.30691 130.765 5.94941 134.408L45.6526 174.111C49.2951 177.754 54.0911 179.757 59.2513 179.757C64.3508 179.757 69.2074 177.754 72.7892 174.172L86.0236 162.03L80.2563 156.263H144.668L138.415 137.565C136.169 130.887 130.523 126.03 123.663 124.755L102.901 120.991V117.531L103.568 117.106C106.847 115.224 109.639 112.735 111.946 109.7L112.371 109.153H118.988C123.116 109.153 126.455 105.814 126.455 101.686V66.4147C126.455 46.1381 109.943 29.5648 89.6054 29.5648C69.2681 29.5648 52.7555 46.0774 52.7555 66.4147V86.9948C52.7555 91.9122 56.2159 96.1617 61.0118 97.1331L61.9224 97.3152L62.1046 98.2258C63.6223 106.118 68.5396 112.978 75.5818 117.045L76.2496 117.47V120.931L55.4874 124.695C48.5666 125.969 42.9207 130.887 40.7352 137.504L38.8533 143.15L27.258 131.555C25.5582 129.855 25.5582 127.123 27.258 125.484L37.882 114.86L18.0911 95.069ZM59.1906 176.539C54.8803 176.539 50.8735 174.84 47.8381 171.865L8.13491 132.162C5.09949 129.126 3.46037 125.12 3.46037 120.809C3.46037 116.499 5.1602 112.492 8.13491 109.457L10.7454 106.846L26.1046 122.266L25.0118 123.359C22.0978 126.273 22.0978 131.008 25.0118 133.862L46.1383 154.927C47.5346 156.324 49.4165 157.113 51.4199 157.113C53.3626 157.113 55.3052 156.324 56.6408 154.988L57.855 153.956L73.3356 169.437L70.6644 171.926C67.5076 174.9 63.5008 176.539 59.1906 176.539ZM8.37774 109.639C5.40304 112.614 3.76391 116.56 3.76391 120.749C3.76391 124.937 5.40304 128.883 8.37774 131.858L48.0809 171.561C51.0556 174.536 55.0017 176.175 59.1906 176.175C63.3794 176.175 67.3255 174.536 70.3002 171.561L72.7892 169.315L57.7336 154.26L56.7622 155.109C55.3659 156.506 53.3626 157.295 51.3592 157.295C49.2951 157.295 47.3524 156.506 45.8954 155.049L24.8297 133.983C21.7943 130.948 21.7943 126.03 24.8297 122.995L25.6796 122.145L10.6847 107.15L8.37774 109.639ZM75.5818 167.251L60.1012 151.831L60.2226 151.71L65.9899 146.489L81.4098 161.909L75.5818 167.251ZM60.5261 151.831L75.5211 166.826L80.9241 161.848L65.9899 146.914L60.5261 151.831ZM51.3592 153.956C50.2057 153.956 49.113 153.531 48.3238 152.742L41.3423 145.7L43.7099 138.597C45.5312 133.012 50.3271 128.944 56.0944 127.851L77.3423 123.966L89.6054 136.229L101.868 123.966L123.116 127.851C128.884 128.883 133.619 133.012 135.501 138.597L140.357 153.045H77.0388L66.1113 142.118L54.3946 152.681C53.6661 153.47 52.5126 153.956 51.3592 153.956ZM41.7066 145.639L48.5666 152.499C49.2951 153.228 50.3271 153.652 51.4199 153.652C52.5126 153.652 53.5447 153.228 54.2732 152.499L66.172 141.693L77.2209 152.742H139.872L135.197 138.658C133.376 133.194 128.762 129.187 123.056 128.155L101.99 124.33L89.6054 136.715L77.2209 124.33L56.1551 128.155C50.5093 129.187 45.8347 133.194 44.0135 138.658L41.7066 145.639ZM89.6054 131.858L79.4064 121.659V119.109L81.1669 119.656C86.6307 121.356 92.5194 121.356 97.9831 119.656L99.7437 119.109V121.659L89.6054 131.858ZM79.7099 121.538L89.6054 131.433L99.5008 121.538V119.534L98.1046 119.959C92.5801 121.72 86.6307 121.72 81.1062 119.959L79.7099 119.534V121.538ZM28.3508 120.02L12.9309 104.6L18.0304 99.5007L33.4503 114.921L28.3508 120.02ZM13.3558 104.661L28.3508 119.595L33.0253 114.921L18.0304 99.9257L13.3558 104.661ZM89.6054 117.774C75.8853 117.774 64.715 106.604 64.715 92.8835V76.7958L65.9899 76.6744C74.5497 76.0066 82.3811 72.5462 88.6341 66.5968L89.5447 65.6862L90.516 66.5968C96.769 72.5462 104.6 76.0066 113.16 76.6744L114.435 76.7958V92.8835C114.435 97.2545 113.282 101.504 111.096 105.329L110.671 105.996H90.941V109.153H108.668L105.936 111.521C101.444 115.588 95.6155 117.774 89.6054 117.774ZM65.0185 77.16V92.9442C65.0185 106.482 76.0067 117.531 89.6054 117.531C95.5548 117.531 101.322 115.346 105.814 111.4L107.939 109.518H90.6981V105.754H110.489L110.793 105.207C112.978 101.443 114.132 97.1938 114.132 92.9442V77.16L113.16 77.0993C104.54 76.4316 96.5868 72.9712 90.3339 66.9611L89.6054 66.2933L88.8769 66.9611C82.5632 72.9712 74.6712 76.4316 66.0506 77.0993L65.0185 77.16ZM118.927 106.057H114.374L115.224 104.115C116.074 102.233 116.681 100.29 117.046 98.2865L117.228 97.3759L118.138 97.1938C119.17 97.0117 120.142 96.5867 121.234 95.9796L123.298 94.7654V101.686C123.238 104.115 121.295 106.057 118.927 106.057ZM114.86 105.754H118.927C121.113 105.754 122.934 103.932 122.934 101.747V95.3118L121.356 96.2224C120.263 96.8295 119.231 97.2545 118.199 97.4973L117.531 97.6187L117.41 98.2865C116.985 100.29 116.378 102.293 115.589 104.175L114.86 105.754ZM117.592 94.5226V79.6491L119.656 80.8633C121.902 82.1381 123.298 84.5665 123.298 87.1162C123.298 89.666 121.902 92.0336 119.656 93.3692L117.592 94.5226ZM117.895 80.1348V93.9762L119.474 93.0656C121.599 91.7907 122.934 89.5445 122.934 87.1162C122.934 84.6879 121.599 82.381 119.474 81.1668L117.895 80.1348ZM61.5582 94.5226L59.4941 93.3084C57.2479 92.0336 55.8516 89.6052 55.8516 87.0555C55.8516 84.5057 57.2479 82.1381 59.4941 80.8026L61.5582 79.5884V94.5226ZM59.6762 81.1061C57.5514 82.381 56.2158 84.6272 56.2158 87.0555C56.2158 89.4838 57.5514 91.7907 59.6762 93.0049L61.2546 93.9155V80.1348L59.6762 81.1061ZM123.238 79.3455L121.174 78.1314C120.324 77.6457 119.474 77.2815 118.563 77.0386L117.531 76.7958V73.7604H115.953C106.907 73.7604 98.4081 70.2393 91.973 63.8042L89.484 61.3152L86.9949 63.8042C80.6206 70.1786 72.0607 73.7604 63.0152 73.7604H61.4368V76.7958L60.4047 77.0386C59.4941 77.2815 58.6442 77.6457 57.7943 78.1314L55.7302 79.3455V66.5361C55.7302 47.9594 70.8465 32.843 89.4233 32.843C108 32.843 123.238 47.9594 123.238 66.4754V79.3455ZM89.6054 33.1466C71.2108 33.1466 56.2158 48.1415 56.2158 66.5361V78.8599L57.7943 77.9493C58.6442 77.4636 59.5548 77.0993 60.4654 76.8565L61.2546 76.6744V73.4568H63.1366C72.1214 73.4568 80.5599 69.9358 86.8735 63.6221L89.5447 60.9509L92.2158 63.6221C98.5902 69.9965 106.968 73.4568 115.953 73.4568H117.835V76.553L118.624 76.7351C119.535 76.9779 120.445 77.3422 121.295 77.8278L122.874 78.7385V66.4147C122.934 48.0808 108 33.1466 89.6054 33.1466Z" fill="#35414D"/>
<path d="M139.993 38.8528H130.705C126.516 38.8528 123.116 35.4531 123.116 31.2643V7.77017C123.116 3.5813 126.516 0.181641 130.705 0.181641H171.804C175.993 0.181641 179.393 3.5813 179.393 7.77017V31.2643C179.393 35.4531 175.993 38.8528 171.804 38.8528H163.487L137.14 55.3047L139.993 38.8528ZM141.875 48.3233L162.516 35.3924H171.804C174.111 35.3924 175.932 33.5105 175.932 31.2643V7.77017C175.932 5.46326 174.05 3.64201 171.804 3.64201H130.705C128.398 3.64201 126.577 5.52397 126.577 7.77017V31.2643C126.577 33.5712 128.459 35.3924 130.705 35.3924H144.061L141.875 48.3233Z" fill="#35414D"/>
<path d="M136.958 55.6088L139.811 38.9747H130.705C126.456 38.9747 122.935 35.5143 122.935 31.2041V7.77066C122.935 3.52108 126.395 0 130.705 0H171.805C176.054 0 179.575 3.46037 179.575 7.77066V31.2648C179.575 35.5143 176.115 39.0354 171.805 39.0354H163.548L136.958 55.6088ZM130.705 0.303541C126.577 0.303541 123.238 3.6425 123.238 7.77066V31.2648C123.238 35.3929 126.577 38.7319 130.705 38.7319H140.176L140.115 38.914L137.322 55.0624L163.427 38.7319H171.805C175.933 38.7319 179.272 35.3929 179.272 31.2648V7.77066C179.272 3.6425 175.933 0.303541 171.805 0.303541H130.705ZM141.633 48.6273L143.879 35.575H130.705C128.338 35.575 126.395 33.6324 126.395 31.2648V7.77066C126.395 5.40304 128.338 3.46037 130.705 3.46037H171.805C174.172 3.46037 176.115 5.40304 176.115 7.77066V31.2648C176.115 33.6324 174.172 35.575 171.805 35.575H162.516L141.633 48.6273ZM130.705 3.76391C128.52 3.76391 126.698 5.58516 126.698 7.77066V31.2648C126.698 33.4503 128.52 35.2715 130.705 35.2715H144.243L144.182 35.4536L142.058 48.0202L162.456 35.2715H171.805C173.99 35.2715 175.811 33.4503 175.811 31.2648V7.77066C175.811 5.58516 173.99 3.76391 171.805 3.76391H130.705Z" fill="#35414D"/>
<path d="M0.607422 65.5039L3.58213 63.7434L10.0779 74.5495L10.7457 71.6355C14.8132 53.9086 24.8907 37.9424 39.1572 26.5899C53.4236 15.2375 71.3326 8.92383 89.6057 8.92383C97.3764 8.92383 105.086 10.0166 112.432 12.2021L111.4 15.4803C104.358 13.4162 97.0121 12.3842 89.545 12.3842C53.7879 12.3842 22.8266 36.6675 14.2668 71.3926L13.599 74.2459L23.0088 68.6001L24.7693 71.5748L9.65295 80.681L0.607422 65.5039Z" fill="#35414D"/>
<path d="M9.65262 80.8027L9.59191 80.6813L0.364258 65.4435L3.5818 63.5009L3.6425 63.6223L9.95616 74.1248L10.5632 71.5751C14.6914 53.8483 24.769 37.8213 39.0354 26.4688C53.3626 15.0557 71.2715 8.80273 89.5447 8.80273C97.3153 8.80273 105.025 9.89548 112.432 12.081L112.553 12.1417L111.46 15.7235L111.339 15.6628C104.297 13.5987 96.9511 12.5666 89.5447 12.5666C53.8482 12.5666 22.9477 36.7892 14.3879 71.4537L13.7808 73.9427L23.0084 68.4182L24.9511 71.6358L24.8297 71.6965L9.65262 80.8027ZM0.789216 65.565L9.71333 80.3778L24.5869 71.4537L22.9477 68.7825L13.3558 74.5498L14.145 71.393C22.7049 36.6071 53.7268 12.2631 89.5447 12.2631C96.9511 12.2631 104.236 13.2951 111.278 15.3592L112.189 12.3845C104.843 10.2597 97.2546 9.16698 89.5447 9.16698C71.3322 9.16698 53.4233 15.4199 39.2175 26.7724C25.0118 38.0641 14.9342 54.0304 10.8668 71.6965L10.0776 74.9747L3.52109 63.9258L0.789216 65.565Z" fill="#35414D"/>
<path d="M150.617 137.929C161.302 124.331 167.191 107.332 167.191 90.0306C167.191 81.4708 165.794 73.0323 163.062 64.9581L162.212 62.4691L156.324 72.2431L153.349 70.4826L162.395 55.3662L177.511 64.4117L175.75 67.3864L165.309 61.1335L166.341 64.2296C169.133 72.5467 170.529 81.2279 170.529 90.0306C170.529 108.122 164.398 125.909 153.228 140.115L150.617 137.929Z" fill="#35414D"/>
<path d="M153.288 140.297L150.374 137.929L150.495 137.808C161.119 124.27 167.008 107.272 167.008 89.9697C167.008 81.4099 165.612 72.9714 162.88 64.9579L162.151 62.7725L156.384 72.3644L153.167 70.4217L153.227 70.3003L162.394 55.0625L162.516 55.1232L177.753 64.2902L175.811 67.5077L175.689 67.447L165.612 61.4369L166.522 64.1687C169.315 72.4858 170.711 81.1671 170.711 89.9697C170.711 108.122 164.519 125.909 153.349 140.115L153.288 140.297ZM150.799 137.869L153.227 139.872C164.337 125.727 170.408 108 170.408 90.0305C170.408 81.2278 169.011 72.6072 166.219 64.2902L165.065 60.7691L175.689 67.1434L177.328 64.4723L162.455 55.5482L153.531 70.4217L156.202 72.0608L162.151 62.1654L163.123 64.9579C165.855 73.0321 167.312 81.4706 167.312 90.0912C167.312 107.272 161.484 124.27 150.799 137.869Z" fill="#35414D"/>
<path d="M147.157 15.6012H165.916C166.887 15.6012 167.676 14.8119 167.676 13.8406C167.676 12.8693 166.887 12.0801 165.916 12.0801H147.157C146.186 12.0801 145.396 12.8693 145.396 13.8406C145.396 14.8119 146.186 15.6012 147.157 15.6012Z" fill="#35414D"/>
<path d="M165.916 15.7838H147.158C146.065 15.7838 145.215 14.9338 145.215 13.8411C145.215 12.8091 146.065 11.8984 147.158 11.8984H165.916C166.948 11.8984 167.859 12.7484 167.859 13.8411C167.798 14.9338 166.948 15.7838 165.916 15.7838ZM147.158 12.202C146.247 12.202 145.518 12.9305 145.518 13.8411C145.518 14.7517 146.247 15.4802 147.158 15.4802H165.916C166.827 15.4802 167.555 14.7517 167.555 13.8411C167.555 12.9305 166.827 12.202 165.916 12.202H147.158Z" fill="#35414D"/>
<path d="M147.157 24.2213H165.916C166.887 24.2213 167.676 23.4321 167.676 22.4607C167.676 21.4894 166.887 20.7002 165.916 20.7002H147.157C146.186 20.7002 145.396 21.4894 145.396 22.4607C145.396 23.4321 146.186 24.2213 147.157 24.2213Z" fill="#35414D"/>
<path d="M165.916 24.4039H147.158C146.065 24.4039 145.215 23.554 145.215 22.4612C145.215 21.4292 146.065 20.5186 147.158 20.5186H165.916C166.402 20.5186 166.888 20.7007 167.252 21.0649C167.616 21.4292 167.798 21.9148 167.798 22.4612C167.798 23.554 166.948 24.4039 165.916 24.4039ZM165.916 20.8221H147.158C146.247 20.8221 145.518 21.5506 145.518 22.4612C145.518 23.3718 146.247 24.1003 147.158 24.1003H165.916C166.827 24.1003 167.555 23.3718 167.555 22.4612C167.555 22.0363 167.373 21.6113 167.07 21.3078C166.766 21.0042 166.341 20.8221 165.916 20.8221Z" fill="#35414D"/>
<path d="M136.654 15.6012H139.447C140.418 15.6012 141.208 14.8119 141.208 13.8406C141.208 12.8693 140.418 12.0801 139.447 12.0801H136.654C135.683 12.0801 134.894 12.8693 134.894 13.8406C134.833 14.8119 135.622 15.6012 136.654 15.6012Z" fill="#35414D"/>
<path d="M139.447 15.7838H136.655C135.562 15.7838 134.712 14.9338 134.712 13.8411C134.712 12.8091 135.562 11.8984 136.655 11.8984H139.447C140.479 11.8984 141.39 12.7484 141.39 13.8411C141.329 14.9338 140.479 15.7838 139.447 15.7838ZM136.655 12.202C135.744 12.202 135.015 12.9305 135.015 13.8411C135.015 14.7517 135.744 15.4802 136.655 15.4802H139.447C140.358 15.4802 141.086 14.7517 141.086 13.8411C141.086 12.9305 140.358 12.202 139.447 12.202H136.655Z" fill="#35414D"/>
<path d="M136.654 24.2213H139.447C140.418 24.2213 141.208 23.4321 141.208 22.4607C141.208 21.4894 140.418 20.7002 139.447 20.7002H136.654C135.683 20.7002 134.894 21.4894 134.894 22.4607C134.833 23.4321 135.622 24.2213 136.654 24.2213Z" fill="#35414D"/>
<path d="M139.447 24.4039H136.655C135.562 24.4039 134.712 23.554 134.712 22.4612C134.712 21.4292 135.562 20.5186 136.655 20.5186H139.447C139.933 20.5186 140.418 20.7007 140.783 21.0649C141.147 21.4292 141.329 21.9148 141.329 22.4612C141.329 23.554 140.479 24.4039 139.447 24.4039ZM139.447 20.8221H136.655C135.744 20.8221 135.015 21.5506 135.015 22.4612C135.015 23.3718 135.744 24.1003 136.655 24.1003H139.447C140.358 24.1003 141.086 23.3718 141.086 22.4612C141.086 22.0363 140.904 21.6113 140.601 21.3078C140.297 21.0042 139.872 20.8221 139.447 20.8221Z" fill="#35414D"/>
</g>
<defs>
<clipPath id="clip0_596_2398">
<rect width="179.575" height="180" fill="white"/>
</clipPath>
</defs>
</svg>
