<svg width="3610" height="121" viewBox="0 0 3610 121" fill="none" xmlns="http://www.w3.org/2000/svg">
<rect x="5" y="52" width="1800" height="69" fill="#F9FCFF"/>
<g filter="url(#filter0_d_807_26588)">
<path d="M12.5042 73.8048L5 81.3089L5 4.75041L1805 4.75047V85.8114L1800 80.1833L1789.99 78.6825L1775.98 73.0544L1760.98 71.9288L1755.47 65.1751L1741.96 67.4263L1730.46 65.1751L1717.45 70.428L1707.95 67.4263H1701.44L1691.94 65.1751H1678.43L1661.92 72.6792L1650.41 70.0528L1633.4 59.547L1619.9 61.0478L1607.89 59.547L1584.38 56.5454L1571.37 59.547L1556.86 56.5454L1537.35 52.7933L1525.34 56.5454L1508.84 58.4214L1500.83 64.7999H1493.83H1487.82L1479.82 67.0511L1459.81 69.6776L1440.3 76.4313L1432.29 82.8098L1417.78 69.6776H1406.28L1388.77 79.0577L1380.76 74.5552L1369.76 76.4313L1358.75 86.1866L1346.75 82.8098L1328.24 86.1866L1321.73 79.0577L1310.23 82.8098L1303.72 76.4313L1296.72 73.0544L1289.21 88.4379L1279.71 86.1866L1277.21 82.8098L1269.7 79.0577L1258.2 74.5552L1251.69 69.3024L1235.18 61.0478H1221.18L1209.67 57.2958L1201.66 61.0478L1176.15 62.9239L1155.64 55.4197L1144.63 61.0478L1136.13 62.9239L1120.12 61.0478C1107.71 62.5486 1090.6 60.4225 1083.6 59.1718L1071.09 64.7999L1058.09 66.6759L1038.57 73.0544L1002.05 64.7999L995.05 66.6759H986.045L969.036 73.0544L960.031 68.5519L946.523 70.428L934.516 73.0544L920.509 76.4313L904.5 82.0594L898.496 77.9321L890.492 74.5552H883.988L876.484 72.6792L867.979 68.5519L862.977 70.428L847.468 66.6759L838.963 70.428L829.458 66.6759L814.95 72.304L811.448 70.428L801.443 64.0495L788.435 62.1734L773.427 64.0495L760.92 66.6759L750.914 70.428L740.909 72.304L731.904 77.9321L721.398 76.0561L711.893 77.9321L701.387 73.8048H688.88L681.376 77.9321L673.371 79.0577L662.365 83.5602C658.363 84.3106 649.058 85.8114 643.855 85.8114C638.652 85.8114 631.014 84.3106 627.846 83.5602C613.438 87.4623 598.163 85.1861 592.326 83.5602L584.322 91.4395L570.314 89.1883L561.809 91.4395H557.807C557.474 90.6891 554.906 89.6385 547.301 91.4395C539.697 93.2405 526.123 89.4384 520.286 87.3122C519.286 87.5624 515.984 88.738 510.781 91.4395C505.578 94.141 486.934 95.3166 478.263 95.5668C474.094 92.315 464.655 85.2111 460.253 82.8098C454.75 79.8081 443.243 91.8147 438.241 91.4395C434.238 91.1393 424.566 94.0659 420.231 95.5668C412.893 96.1921 396.918 96.6173 391.715 93.3155C386.512 90.0137 364.867 81.6842 354.694 77.9321L344.188 85.8114L334.683 80.5585H312.171L308.669 77.9321C301.832 77.3067 287.557 76.0561 285.156 76.0561C282.754 76.0561 276.818 73.0544 274.15 71.5536L254.138 76.0561C246.968 73.9299 231.826 69.6776 228.624 69.6776C224.622 69.6776 219.619 71.5536 215.617 71.5536C212.415 71.5536 205.278 69.3024 202.11 68.1767C199.108 69.3024 192.804 72.0038 191.604 73.8048C190.103 76.0561 182.599 75.3056 180.097 76.0561C177.596 76.8065 162.087 68.1767 160.086 66.6759C158.085 65.1751 148.58 68.1767 144.578 69.6776C140.575 71.1784 125.567 68.1767 121.064 68.1767C116.562 68.1767 115.061 70.428 111.059 71.5536C107.057 72.6792 89.547 69.3024 79.5414 68.1767C69.5359 67.0511 48.5242 73.8048 41.5203 73.8048H12.5042Z" fill="#FFF7F5"/>
</g>
<rect x="5" y="1" width="1800" height="44" fill="#FFF7F5"/>
<rect x="1805" y="52" width="1800" height="69" fill="#F9FCFF"/>
<g filter="url(#filter1_d_807_26588)">
<path d="M1812.5 73.8048L1805 85.7955V4.75043L3605 4.75049V85.8114L3600 80.1833L3589.99 78.6825L3575.98 73.0544L3560.98 71.9288L3555.47 65.1751L3541.96 67.4263L3530.46 65.1751L3517.45 70.428L3507.95 67.4263H3501.44L3491.94 65.1751H3478.43L3461.92 72.6792L3450.41 70.0528L3433.4 59.547L3419.9 61.0478L3407.89 59.547L3384.38 56.5454L3371.37 59.547L3356.86 56.5454L3337.35 52.7933L3325.34 56.5454L3308.84 58.4214L3300.83 64.7999H3293.83H3287.82L3279.82 67.0511L3259.81 69.6776L3240.3 76.4313L3232.29 82.8098L3217.78 69.6776H3206.28L3188.77 79.0577L3180.76 74.5552L3169.76 76.4313L3158.75 86.1866L3146.75 82.8098L3128.24 86.1866L3121.73 79.0577L3110.23 82.8098L3103.72 76.4313L3096.72 73.0544L3089.21 88.4379L3079.71 86.1866L3077.21 82.8098L3069.7 79.0577L3058.2 74.5552L3051.69 69.3024L3035.18 61.0478H3021.18L3009.67 57.2958L3001.66 61.0478L2976.15 62.9239L2955.64 55.4197L2944.63 61.0478L2936.13 62.9239L2920.12 61.0478C2907.71 62.5486 2890.6 60.4225 2883.6 59.1718L2871.09 64.7999L2858.09 66.6759L2838.57 73.0544L2802.05 64.7999L2795.05 66.6759H2786.05L2769.04 73.0544L2760.03 68.5519L2746.52 70.428L2734.52 73.0544L2720.51 76.4313L2704.5 82.0594L2698.5 77.9321L2690.49 74.5552H2683.99L2676.48 72.6792L2667.98 68.5519L2662.98 70.428L2647.47 66.6759L2638.96 70.428L2629.46 66.6759L2614.95 72.304L2611.45 70.428L2601.44 64.0495L2588.44 62.1734L2573.43 64.0495L2560.92 66.6759L2550.91 70.428L2540.91 72.304L2531.9 77.9321L2521.4 76.0561L2511.89 77.9321L2501.39 73.8048H2488.88L2481.38 77.9321L2473.37 79.0577L2462.37 83.5602C2458.36 84.3106 2449.06 85.8114 2443.85 85.8114C2438.65 85.8114 2431.01 84.3106 2427.85 83.5602C2413.44 87.4623 2398.16 85.1861 2392.33 83.5602L2384.32 91.4395L2370.31 89.1883L2361.81 91.4395H2357.81C2357.47 90.6891 2354.91 89.6385 2347.3 91.4395C2339.7 93.2405 2326.12 89.4384 2320.29 87.3122C2319.29 87.5624 2315.98 88.738 2310.78 91.4395C2305.58 94.141 2286.93 95.3166 2278.26 95.5668C2274.09 92.315 2264.66 85.2111 2260.25 82.8098C2254.75 79.8081 2243.24 91.8147 2238.24 91.4395C2234.24 91.1393 2224.57 94.0659 2220.23 95.5668C2212.89 96.1921 2196.92 96.6173 2191.71 93.3155C2186.51 90.0137 2164.87 81.6842 2154.69 77.9321L2144.19 85.8114L2134.68 80.5585H2112.17L2108.67 77.9321C2101.83 77.3067 2087.56 76.0561 2085.16 76.0561C2082.75 76.0561 2076.82 73.0544 2074.15 71.5536L2054.14 76.0561C2046.97 73.9299 2031.83 69.6776 2028.62 69.6776C2024.62 69.6776 2019.62 71.5536 2015.62 71.5536C2012.42 71.5536 2005.28 69.3024 2002.11 68.1767C1999.11 69.3024 1992.8 72.0038 1991.6 73.8048C1990.1 76.0561 1982.6 75.3056 1980.1 76.0561C1977.6 76.8065 1962.09 68.1767 1960.09 66.6759C1958.09 65.1751 1948.58 68.1767 1944.58 69.6776C1940.58 71.1784 1925.57 68.1767 1921.06 68.1767C1916.56 68.1767 1915.06 70.428 1911.06 71.5536C1907.06 72.6792 1889.55 69.3024 1879.54 68.1767C1869.54 67.0511 1848.52 73.8048 1841.52 73.8048H1812.5Z" fill="#FFF7F5"/>
</g>
<rect x="1800" y="1" width="1805" height="44" fill="#FFF7F5"/>
<path d="M1810 43L1801 42.5L1800 80L1805 86L1809 66L1810 43Z" fill="#FFF7F5"/>
<defs>
<filter id="filter0_d_807_26588" x="0" y="0.750427" width="1810" height="101.25" filterUnits="userSpaceOnUse" color-interpolation-filters="sRGB">
<feFlood flood-opacity="0" result="BackgroundImageFix"/>
<feColorMatrix in="SourceAlpha" type="matrix" values="0 0 0 0 0 0 0 0 0 0 0 0 0 0 0 0 0 0 127 0" result="hardAlpha"/>
<feOffset dy="1"/>
<feGaussianBlur stdDeviation="2.5"/>
<feComposite in2="hardAlpha" operator="out"/>
<feColorMatrix type="matrix" values="0 0 0 0 0 0 0 0 0 0 0 0 0 0 0 0 0 0 0.1 0"/>
<feBlend mode="normal" in2="BackgroundImageFix" result="effect1_dropShadow_807_26588"/>
<feBlend mode="normal" in="SourceGraphic" in2="effect1_dropShadow_807_26588" result="shape"/>
</filter>
<filter id="filter1_d_807_26588" x="1800" y="0.750427" width="1810" height="101.25" filterUnits="userSpaceOnUse" color-interpolation-filters="sRGB">
<feFlood flood-opacity="0" result="BackgroundImageFix"/>
<feColorMatrix in="SourceAlpha" type="matrix" values="0 0 0 0 0 0 0 0 0 0 0 0 0 0 0 0 0 0 127 0" result="hardAlpha"/>
<feOffset dy="1"/>
<feGaussianBlur stdDeviation="2.5"/>
<feComposite in2="hardAlpha" operator="out"/>
<feColorMatrix type="matrix" values="0 0 0 0 0 0 0 0 0 0 0 0 0 0 0 0 0 0 0.1 0"/>
<feBlend mode="normal" in2="BackgroundImageFix" result="effect1_dropShadow_807_26588"/>
<feBlend mode="normal" in="SourceGraphic" in2="effect1_dropShadow_807_26588" result="shape"/>
</filter>
</defs>
</svg>
