<svg id="Layer_1" data-name="Layer 1" xmlns="http://www.w3.org/2000/svg" viewBox="0 0 440 272"><defs><style>.cls-2{fill:#515979}.cls-4{fill:#fff}</style></defs><path d="M155 159a2.88 2.88 0 01-1.15-.23A3 3 0 01152 156v-21h-23a17 17 0 01-17-17V70a17 17 0 0117-17h102a17 17 0 0117 17v48a17 17 0 01-17 17h-50.76l-23.12 23.12a3 3 0 01-2.12.88z" fill="#6adaf7"/><path class="cls-2" d="M231 56a14 14 0 0114 14v48a14 14 0 01-14 14h-52l-24 24v-24h-26a14 14 0 01-14-14V70a14 14 0 0114-14h102m0-6H129a20 20 0 00-20 20v48a20 20 0 0020 20h20v18a6 6 0 0010.24 4.24L181.49 138H231a20 20 0 0020-20V70a20 20 0 00-20-20z"/><circle class="cls-2" cx="180" cy="94" r="7"/><circle class="cls-2" cx="152" cy="94" r="7"/><circle class="cls-2" cx="208" cy="94" r="7"/><path d="M285 219a3 3 0 01-2.12-.88L259.76 195H209a17 17 0 01-17-17v-48a17 17 0 0117-17h102a17 17 0 0117 17v48a17 17 0 01-17 17h-23v21a3 3 0 01-1.85 2.77 2.88 2.88 0 01-1.15.23z" fill="#c7bcff"/><path class="cls-2" d="M311 116a14 14 0 0114 14v48a14 14 0 01-14 14h-26v24l-24-24h-52a14 14 0 01-14-14v-48a14 14 0 0114-14h102m0-6H209a20 20 0 00-20 20v48a20 20 0 0020 20h49.51l22.25 22.24A6 6 0 00291 216v-18h20a20 20 0 0020-20v-48a20 20 0 00-20-20z"/><circle class="cls-2" cx="180" cy="94" r="7"/><circle class="cls-2" cx="152" cy="94" r="7"/><circle class="cls-2" cx="208" cy="94" r="7"/><path class="cls-2" d="M278.5 159.6a2.06 2.06 0 01-.95-.24 8.62 8.62 0 00-7.1 0 2 2 0 01-1.9-3.52 12.69 12.69 0 0110.9 0 2 2 0 01-.95 3.76z"/><circle class="cls-2" cx="274" cy="149.85" r="7"/><circle class="cls-4" cx="275.75" cy="149.85" r="1.75"/><path class="cls-2" d="M269 134.83a9.1 9.1 0 011.72-1.22 11.18 11.18 0 011.88-.8 10.27 10.27 0 014.27-.39 8.64 8.64 0 014.2 1.63 7.63 7.63 0 012.67 3.38 2 2 0 01-1.1 2.68 2 2 0 01-1.58 0l-.45-.19a21.43 21.43 0 00-2.38-1 9.68 9.68 0 00-2.12-.53 15.83 15.83 0 00-2.45-.12c-.44 0-.9 0-1.37.06a13.58 13.58 0 01-1.39 0l-.78-.07a2 2 0 01-1.12-3.45zM248.5 159.6a2.06 2.06 0 01-.95-.24 8.62 8.62 0 00-7.1 0 2 2 0 01-1.9-3.52 12.69 12.69 0 0110.9 0 2 2 0 01-.95 3.76z"/><circle class="cls-2" cx="244" cy="149.85" r="7"/><circle class="cls-4" cx="245.75" cy="149.85" r="1.75"/><path class="cls-2" d="M247.07 138.35a13.58 13.58 0 01-1.39 0c-.47 0-.93-.05-1.37-.06a15.83 15.83 0 00-2.45.12 9.68 9.68 0 00-2.12.53 21.43 21.43 0 00-2.38 1l-.45.19a2 2 0 01-2.68-1.09 2.08 2.08 0 010-1.59 7.63 7.63 0 012.67-3.38 8.64 8.64 0 014.2-1.63 10.27 10.27 0 014.27.39 11.18 11.18 0 011.88.8 9.1 9.1 0 011.72 1.22 2 2 0 01.16 2.79 1.9 1.9 0 01-1.27.65zM259.36 170.87A29.83 29.83 0 01244 166.6a2 2 0 112.08-3.42c8 4.86 18.86 4.87 25.82 0a2 2 0 112.28 3.28 25.87 25.87 0 01-14.82 4.41zM254.82 174a15.54 15.54 0 004.18.62 13.53 13.53 0 002.11-.15 10.42 10.42 0 002.06-.47 1.33 1.33 0 011.39 2.17l-.73.76a5.51 5.51 0 01-2.29 1.37 7.57 7.57 0 01-2.54.31 7.82 7.82 0 01-1.28-.13 6.59 6.59 0 01-1.24-.3 6.4 6.4 0 01-2.3-1.25l-.68-.59a1.37 1.37 0 011.32-2.34z"/><path d="M237 80a2 2 0 01-2-2v-6a6 6 0 00-6-6h-7.75a2 2 0 010-4H229a10 10 0 0110 10v6a2 2 0 01-2 2z" fill="#b4ecfb"/><path d="M317 140a2 2 0 01-2-2v-6a6 6 0 00-6-6h-7.75a2 2 0 010-4H309a10 10 0 0110 10v6a2 2 0 01-2 2z" fill="#e3ddff"/></svg>