<?xml version="1.0" encoding="utf-8"?>
<!-- Generator: Adobe Illustrator 25.0.0, SVG Export Plug-In . SVG Version: 6.00 Build 0)  -->
<svg version="1.1" id="Layer_1" xmlns="http://www.w3.org/2000/svg" xmlns:xlink="http://www.w3.org/1999/xlink" x="0px" y="0px"
	 viewBox="0 0 218.4 180" style="enable-background:new 0 0 218.4 180;" xml:space="preserve">
<style type="text/css">
	.st0{fill:#FDF6EC;}
	.st1{fill:#FF646F;}
	.st2{fill:#FF4755;}
	.st3{fill:#FFF3DE;}
	.st4{fill:#FFE5C2;}
	.st5{fill:#FFC265;}
	.st6{fill:#FFA812;}
	.st7{fill:#35414D;}
	.st8{fill:#3F597D;}
	.st9{fill:#5D748A;}
	.st10{fill:#F0E9E6;}
	.st11{fill:#98DB7C;}
	.st12{fill:#6ACB44;}
	.st13{fill:#FAF8F8;}
	.st14{clip-path:url(#SVGID_2_);fill:#4A8CFF;}
	.st15{clip-path:url(#SVGID_2_);fill:#498DFF;}
	.st16{clip-path:url(#SVGID_2_);fill:#488EFE;}
	.st17{clip-path:url(#SVGID_2_);fill:#478FFE;}
	.st18{clip-path:url(#SVGID_2_);fill:#4690FD;}
	.st19{clip-path:url(#SVGID_2_);fill:#4591FD;}
	.st20{clip-path:url(#SVGID_2_);fill:#4492FC;}
	.st21{clip-path:url(#SVGID_2_);fill:#4493FC;}
	.st22{clip-path:url(#SVGID_2_);fill:#4394FB;}
	.st23{clip-path:url(#SVGID_2_);fill:#4295FB;}
	.st24{clip-path:url(#SVGID_2_);fill:#4196FA;}
	.st25{clip-path:url(#SVGID_2_);fill:#4097FA;}
	.st26{clip-path:url(#SVGID_2_);fill:#3F98FA;}
	.st27{clip-path:url(#SVGID_2_);fill:#3E99F9;}
	.st28{clip-path:url(#SVGID_2_);fill:#3D9AF9;}
	.st29{clip-path:url(#SVGID_2_);fill:#3C9BF8;}
	.st30{clip-path:url(#SVGID_2_);fill:#3B9CF8;}
	.st31{clip-path:url(#SVGID_2_);fill:#3A9DF7;}
	.st32{clip-path:url(#SVGID_2_);fill:#399EF7;}
	.st33{clip-path:url(#SVGID_2_);fill:#389FF6;}
	.st34{clip-path:url(#SVGID_2_);fill:#37A0F6;}
	.st35{clip-path:url(#SVGID_2_);fill:#37A2F6;}
	.st36{clip-path:url(#SVGID_2_);fill:#36A3F5;}
	.st37{clip-path:url(#SVGID_2_);fill:#35A4F5;}
	.st38{clip-path:url(#SVGID_2_);fill:#34A5F4;}
	.st39{clip-path:url(#SVGID_2_);fill:#33A6F4;}
	.st40{clip-path:url(#SVGID_2_);fill:#32A7F3;}
	.st41{clip-path:url(#SVGID_2_);fill:#31A8F3;}
	.st42{clip-path:url(#SVGID_2_);fill:#30A9F2;}
	.st43{clip-path:url(#SVGID_2_);fill:#2FAAF2;}
	.st44{clip-path:url(#SVGID_2_);fill:#2EABF1;}
	.st45{clip-path:url(#SVGID_2_);fill:#2DACF1;}
	.st46{clip-path:url(#SVGID_2_);fill:#2CADF1;}
	.st47{clip-path:url(#SVGID_2_);fill:#2BAEF0;}
	.st48{clip-path:url(#SVGID_2_);fill:#2AAFF0;}
	.st49{clip-path:url(#SVGID_2_);fill:#2AB0EF;}
	.st50{clip-path:url(#SVGID_2_);fill:#29B1EF;}
	.st51{clip-path:url(#SVGID_2_);fill:#28B2EE;}
	.st52{clip-path:url(#SVGID_2_);fill:#27B3EE;}
	.st53{clip-path:url(#SVGID_2_);fill:#26B4ED;}
	.st54{clip-path:url(#SVGID_2_);fill:#25B5ED;}
	.st55{clip-path:url(#SVGID_2_);fill:#24B6EC;}
	.st56{clip-path:url(#SVGID_2_);fill:#23B7EC;}
	.st57{fill:#FFFFFF;}
</style>
<g>
	<g>
		<g>
			<path class="st0" d="M195.2,19.8v115.6H5.2L5.1,20.2c0-4.3,1.3-8.1,5.5-8.1h176.8C191.8,12,195.2,15.5,195.2,19.8L195.2,19.8z"/>
		</g>
		<g>
			<g id="g1621_2_" transform="translate(363.2139,83.9395)">
				<g id="path1623_2_">
					<path class="st1" d="M-216.8,56.4l-1.5-22.9c-0.5-7.1-5.6-13-12.6-14.5l-22.7-4.7h-21l-22.7,4.7c-7,1.4-12.1,7.4-12.6,14.5
						l-1.5,22.9H-216.8z"/>
				</g>
			</g>
			<g id="g1625_2_" transform="translate(359.7197,135.5737)">
				<g id="path1627_2_">
					<path class="st2" d="M-214.9-18.1c-0.5-7.1-5.6-13-12.6-14.5l-22.7-4.7h-14.6l22.7,4.7c7,1.4,12.1,7.4,12.6,14.5l1.5,22.9h14.6
						L-214.9-18.1z"/>
				</g>
			</g>
			<g id="g1629_2_" transform="translate(280.1079,178.8335)">
				<g id="path1631_2_">
					<path class="st3" d="M-170.6-80.5v-14.3h-21v14.3c0,5.8,4.7,10.5,10.5,10.5l0,0C-175.3-70.1-170.6-74.8-170.6-80.5"/>
				</g>
			</g>
			<g id="g1633_2_" transform="translate(314.8579,271.8262)">
				<g id="path1635_2_">
					<path class="st3" d="M-189.9-214.8h-5.1v-2.6c0-5.6-2.3-10.9-6.5-14.6c-3.3-2.8-7.9-5.3-14.1-5.4c-6.1,0.1-10.8,2.5-14.1,5.4
						c-4.2,3.6-6.5,9-6.5,14.6v2.1h-5.1v9.9c0,2.8,2.3,5.1,5.1,5.1c0.1,5.4,2.4,10.6,6.5,14.1c3.3,2.8,7.9,6.4,14.1,6.4
						c6.1-0.1,10.8-3.6,14.1-6.4c4.1-3.5,6.4-8.7,6.5-14.1c2.8,0,5.1-2.3,5.1-5.1L-189.9-214.8z"/>
				</g>
			</g>
			<g id="g1637_2_" transform="translate(303.3096,271.8262)">
				<g id="path1639_2_">
					<path class="st4" d="M-183.5-214.8v-2.6c0-5.6-2.3-10.9-6.5-14.6c-1.5-1.3-3.2-2.5-5.2-3.4c1.4,1.9,2.2,4.2,2.2,6.7v23.2
						c0,14.6-3.9,21-11.6,25.8c0.2,0,0.4,0,0.6,0c6.1-0.1,10.8-3.6,14.1-6.4c4.1-3.5,6.4-8.7,6.5-14.1c2.8,0,5.1-2.3,5.1-5.1v-9.4
						H-183.5z"/>
				</g>
			</g>
			<g id="g1641_2_" transform="translate(314.8579,263.0615)">
				<g id="path1643_2_">
					<path class="st5" d="M-189.9-202.1c0,0-5-1.5-8.8-5.7c-2.3-2.5-5.9-3.2-8.9-1.5c-7.6,4.3-21.5,10.2-33.7,4.5v-7.5
						c0-9.8,7.9-17.7,17.7-17.7h10.5c2.3,0,4.6,0.8,6.5,2.2c1.8,1.4,4,2.1,6.2,2.2c5.8,0.1,10.5,4.9,10.5,10.7V-202.1z"/>
				</g>
			</g>
			<g id="g1673_2_" transform="translate(291.2192,316.2119)">
				<g id="path1675_2_">
					<path class="st6" d="M-176.7-278.8c-2.2-0.1-4.4-0.8-6.2-2.2c-1.1-0.8-2.3-1.4-3.6-1.8c3.4,1.9,5.7,5.6,5.7,9.8v9.6
						c2.2-0.1,4.3,0.7,5.9,2.4c3.8,4.2,8.8,5.7,8.8,5.7v-12.8C-166.3-273.9-170.9-278.7-176.7-278.8"/>
				</g>
			</g>
			<g id="g1685_2_" transform="translate(361.6694,106.7607)">
				<g id="path1687_2_">
					<path class="st7" d="M-216,25.2c-0.9,0-1.7-0.7-1.7-1.6l-0.9-12.8c-0.4-6.3-5-11.6-11.2-12.9l-22.7-4.7
						c-0.9-0.2-1.5-1.1-1.4-2.1c0.2-0.9,1.1-1.5,2.1-1.4l22.7,4.7c7.7,1.6,13.5,8.2,14,16.1l0.9,12.8c0.1,1-0.7,1.8-1.6,1.9
						C-215.9,25.2-215.9,25.2-216,25.2z"/>
				</g>
			</g>
			<g id="g1689_2_" transform="translate(232.8516,178.8335)">
				<g id="path1691_2_">
					<path class="st7" d="M-180.4-46.8c0,0-0.1,0-0.1,0c-1-0.1-1.7-0.9-1.6-1.9l0.9-12.8c0.5-7.9,6.3-14.5,14-16.1l22.7-4.7
						c0.9-0.2,1.9,0.4,2.1,1.4c0.2,0.9-0.4,1.9-1.4,2.1l-22.7,4.7c-6.2,1.3-10.8,6.6-11.2,12.9l-0.9,12.8
						C-178.8-47.5-179.5-46.8-180.4-46.8z"/>
				</g>
			</g>
			<g id="g1693_2_" transform="translate(232.8516,201.1787)">
				<g id="path1695_2_">
					<path class="st7" d="M-133.8-90.7c-6.7,0-12.2-5.5-12.2-12.2v-9.9c0-1,0.8-1.7,1.7-1.7s1.7,0.8,1.7,1.7v9.9
						c0,4.8,3.9,8.7,8.7,8.7c4.8,0,8.7-3.9,8.7-8.7v-9.6c0-1,0.8-1.7,1.7-1.7c1,0,1.7,0.8,1.7,1.7v9.6
						C-121.6-96.1-127-90.7-133.8-90.7z"/>
				</g>
			</g>
			<g id="g1697_2_" transform="translate(314.8579,263.0615)">
				<g id="path1699_2_">
					<path class="st7" d="M-189.9-200.4c-0.2,0-0.3,0-0.5-0.1c-0.2-0.1-5.5-1.7-9.6-6.2c-1.7-1.9-4.5-2.4-6.7-1.2
						c-7.6,4.3-22.3,10.6-35.3,4.5c-0.6-0.3-1-0.9-1-1.6v-7.5c0-10.7,8.7-19.4,19.4-19.4h10.5c2.7,0,5.4,0.9,7.5,2.5
						c1.5,1.1,3.3,1.8,5.2,1.8c6.7,0.2,12.2,5.7,12.2,12.5v12.8c0,0.5-0.3,1.1-0.7,1.4C-189.2-200.5-189.5-200.4-189.9-200.4z
						 M-239.5-206c11.3,4.6,24.3-1,31.1-4.8c3.6-2.1,8.2-1.3,11,1.9c1.9,2.1,4.1,3.5,5.8,4.3V-215c0-4.8-3.9-8.9-8.8-9
						c-2.6-0.1-5.1-0.9-7.2-2.5c-1.5-1.2-3.5-1.8-5.4-1.8h-10.5c-8.8,0-15.9,7.1-15.9,15.9V-206z"/>
				</g>
			</g>
			<g id="g1701_2_" transform="translate(199.0635,269.2544)">
				<g id="path1703_2_">
					<path class="st7" d="M-99.8-175.3c-6.5-0.1-11.3-3.5-15.2-6.9c-4-3.5-6.5-8.5-7-13.9c-3-0.7-5.2-3.4-5.2-6.7v-8.3
						c0-1,0.8-1.7,1.7-1.7c1,0,1.7,0.8,1.7,1.7v8.3c0,1.9,1.5,3.4,3.4,3.4c0.9,0,1.7,0.8,1.7,1.7c0.1,5,2.2,9.7,5.9,12.8
						c3.4,2.9,7.6,6,12.9,6c5.3-0.1,9.5-3.1,12.9-6c3.6-3.1,5.8-7.8,5.9-12.8c0-0.9,0.8-1.7,1.7-1.7c1.9,0,3.4-1.5,3.4-3.4v-5.5
						c0-1,0.8-1.7,1.7-1.7s1.7,0.8,1.7,1.7v5.5c0,3.2-2.2,5.9-5.2,6.7c-0.5,5.4-3,10.5-7,13.9C-88.5-178.9-93.3-175.4-99.8-175.3z"
						/>
				</g>
			</g>
		</g>
		<g>
			<path class="st8" d="M113.6,167l-3.5-10.8l0,0h0l-1.6-5l-9.8-9.2l-9.1,9.2L84.5,167h9.4l0,0H113.6z"/>
		</g>
		<g>
			<path class="st9" d="M129.3,171.5c-1.7-3.7-5.5-6.2-9.8-6.2h-36l-4.4,1.6c-0.6,0-9.3,3.4-9.3,8.7c0,2.1,1.7,3.9,3.9,3.9l51.5-0.4
				c2.1,0,3.9-1.7,3.9-3.9c0-0.8,1.3-0.7,1.1-1.5C129.9,173,129.6,172.2,129.3,171.5L129.3,171.5z"/>
		</g>
		<g>
			<path class="st8" d="M130.3,176.1c0,2.1-1.7,3.9-3.9,3.9H71.7c-2.1,0-3.9-1.7-3.9-3.9c0-5.4,3.9-9.9,9.1-10.7
				c0.6-0.1,1.1-0.1,1.7-0.1h4.8l-2.7,3.5c-1.5,2-0.1,5,2.5,5H130C130.2,174.5,130.3,175.3,130.3,176.1L130.3,176.1z"/>
		</g>
		<g>
			<path class="st10" d="M10.6,127.6V12c-4.3,0-7.7,3.5-7.7,7.7v115.6h2.3h5.4h184.6v-6.2h-183C11.3,129.2,10.6,128.5,10.6,127.6z"
				/>
		</g>
		<g>
			<path class="st9" d="M195.2,135.4v8.1c0,4.3-5.9,6.2-10.2,6.2l-172.5,0.1c-4.3,0-7.7-3.5-7.7-7.7l-1.9-6.6H195.2z"/>
		</g>
		<g>
			<g>
				<path class="st8" d="M187.5,154.1H10.6c-5.9,0-10.6-4.8-10.6-10.6V19.8C0,13.9,4.8,9.1,10.6,9.1h176.8c5.9,0,10.6,4.8,10.6,10.6
					v123.7C198.1,149.3,193.4,154.1,187.5,154.1z M10.6,14.9c-2.7,0-4.8,2.2-4.8,4.8v123.7c0,2.7,2.2,4.8,4.8,4.8h176.8
					c2.7,0,4.8-2.2,4.8-4.8V19.8c0-2.7-2.2-4.8-4.8-4.8H10.6z"/>
			</g>
		</g>
		<g>
			<g id="g1653_4_" transform="translate(474.4365,458.0049)">
				<g id="path1655_4_">
					<path class="st11" d="M-266-456.7h-53c-4.8,0-8.7,3.9-8.7,8.7v26.4c0,4.8,3.9,8.7,8.7,8.7h5.7l-6.4,13
						c-0.9,1.8,1.1,3.8,2.9,2.7l27.5-15.8h23.2c4.8,0,8.7-3.9,8.7-8.7v-26.4C-257.3-452.9-261.2-456.7-266-456.7"/>
				</g>
			</g>
			<g id="g1661_4_" transform="translate(474.4365,458.0049)">
				<g id="path1663_4_">
					<path class="st12" d="M-266-456.7h-12.6c4.8,0,8.7,3.9,8.7,8.7v26.4c0,4.8-3.9,8.7-8.7,8.7h12.6c4.8,0,8.7-3.9,8.7-8.7v-26.4
						C-257.3-452.9-261.2-456.7-266-456.7"/>
				</g>
			</g>
			<g id="g1665_4_" transform="translate(354.4951,420.3716)">
				<g id="path1667_4_">
					<path class="st7" d="M-153-403.5h-38.6c-0.7,0-1.3-0.6-1.3-1.3s0.6-1.3,1.3-1.3h38.6c0.7,0,1.3,0.6,1.3,1.3
						S-152.3-403.5-153-403.5z"/>
				</g>
			</g>
			<g id="g1669_4_" transform="translate(354.4951,381.6899)">
				<g id="path1671_4_">
					<path class="st7" d="M-172.3-350.1h-19.3c-0.7,0-1.3-0.6-1.3-1.3c0-0.7,0.6-1.3,1.3-1.3h19.3c0.7,0,1.3,0.6,1.3,1.3
						C-171-350.7-171.6-350.1-172.3-350.1z"/>
				</g>
			</g>
			<g id="g1725_4_" transform="translate(474.4365,458.0049)">
				<g id="path1727_4_">
					<path class="st7" d="M-317.8-395.7c-0.8,0-1.6-0.3-2.3-0.9c-1.1-1-1.4-2.6-0.7-3.9l5.5-11.2h-3.7c-5.5,0-9.9-4.5-9.9-9.9v-26.4
						c0-5.5,4.5-9.9,9.9-9.9h53c5.5,0,9.9,4.5,9.9,9.9v26.4c0,5.5-4.5,9.9-9.9,9.9h-22.9l-27.2,15.6
						C-316.6-395.8-317.2-395.7-317.8-395.7z M-319-455.4c-4.1,0-7.4,3.3-7.4,7.4v26.4c0,4.1,3.3,7.4,7.4,7.4h5.7
						c0.4,0,0.9,0.2,1.1,0.6c0.2,0.4,0.3,0.8,0.1,1.2l-6.4,13c-0.2,0.5,0,0.8,0.2,0.9c0.1,0.1,0.5,0.4,1,0.1l27.5-15.8
						c0.2-0.1,0.4-0.2,0.6-0.2h23.3c4.1,0,7.4-3.3,7.4-7.4v-26.4c0-4.1-3.3-7.4-7.4-7.4H-319z"/>
				</g>
			</g>
		</g>
		<g>
			<g id="g1653_3_" transform="translate(474.4365,458.0049)">
				<g id="path1655_3_">
					<path class="st11" d="M-303.5-372.6c-3.6,0-6.5,2.9-6.5,6.5v19.8c0,3.6,2.9,6.5,6.5,6.5h17.4l20.6,11.8c1.3,0.8,2.9-0.7,2.2-2
						l-4.8-9.8h4.3c3.6,0,6.5-2.9,6.5-6.5v-19.8c0-3.6-2.9-6.5-6.5-6.5H-303.5"/>
				</g>
			</g>
			<g id="g1661_3_" transform="translate(474.4365,458.0049)">
				<g id="path1663_3_">
					<path class="st12" d="M-303.5-372.6c-3.6,0-6.5,2.9-6.5,6.5v19.8c0,3.6,2.9,6.5,6.5,6.5h9.4c-3.6,0-6.5-2.9-6.5-6.5v-19.8
						c0-3.6,2.9-6.5,6.5-6.5H-303.5"/>
				</g>
			</g>
			<g id="g1665_3_" transform="translate(354.4951,420.3716)">
				<g id="path1667_3_">
					<path class="st7" d="M-149.4-323.3h-28.9c-0.5,0-1-0.4-1-1c0-0.5,0.4-1,1-1h28.9c0.5,0,1,0.4,1,1
						C-148.5-323.7-148.9-323.3-149.4-323.3z"/>
				</g>
			</g>
			<g id="g1669_3_" transform="translate(354.4951,381.6899)">
				<g id="path1671_3_">
					<path class="st7" d="M-149.4-273.6h-14.5c-0.5,0-1-0.4-1-1c0-0.5,0.4-1,1-1h14.5c0.5,0,1,0.4,1,1
						C-148.5-274-148.9-273.6-149.4-273.6z"/>
				</g>
			</g>
			<g id="g1725_3_" transform="translate(474.4365,458.0049)">
				<g id="path1727_3_">
					<path class="st7" d="M-264.7-326.8c-0.4,0-0.9-0.1-1.3-0.3l-20.4-11.7h-17.2c-4.1,0-7.4-3.3-7.4-7.5v-19.8
						c0-4.1,3.3-7.5,7.4-7.5h39.7c4.1,0,7.4,3.3,7.4,7.5v19.8c0,4.1-3.3,7.5-7.4,7.5h-2.7l4.1,8.4c0.5,1,0.3,2.2-0.5,3
						C-263.4-327.1-264.1-326.8-264.7-326.8z M-303.5-371.7c-3,0-5.5,2.5-5.5,5.5v19.8c0,3,2.5,5.5,5.5,5.5h17.4
						c0.2,0,0.3,0,0.5,0.1l20.6,11.8c0.4,0.2,0.6,0,0.7-0.1c0.1-0.1,0.3-0.3,0.1-0.7l-4.8-9.8c-0.1-0.3-0.1-0.7,0-0.9
						c0.2-0.3,0.5-0.5,0.8-0.5h4.3c3,0,5.5-2.5,5.5-5.5v-19.8c0-3-2.5-5.5-5.5-5.5H-303.5z"/>
				</g>
			</g>
		</g>
		<g>
			<path class="st7" d="M85.7,144.1h26.8c1.2,0,2.1-0.9,2.1-2.1c0-1.2-0.9-2.1-2.1-2.1H85.7c-1.2,0-2.1,0.9-2.1,2.1
				C83.6,143.2,84.5,144.1,85.7,144.1z"/>
		</g>
		<g>
			<circle class="st13" cx="99.1" cy="11.9" r="1.8"/>
		</g>
	</g>
	<g id="Layer_x0020_1">
		<g id="_1639424393248">
			<g>
				<g>
					<defs>
						<path id="SVGID_1_" d="M31.1,27.8c8.5,0,15.3,6.9,15.3,15.3s-6.9,15.3-15.3,15.3s-15.3-6.9-15.3-15.3S22.6,27.8,31.1,27.8z"/>
					</defs>
					<clipPath id="SVGID_2_">
						<use xlink:href="#SVGID_1_"  style="overflow:visible;"/>
					</clipPath>
					<polygon class="st14" points="23.5,27.8 15.7,38.1 15.7,27.8 					"/>
					<polygon class="st14" points="24.4,27.8 15.7,39.2 15.7,38.1 23.5,27.8 					"/>
					<polygon class="st15" points="25.3,27.8 15.7,40.4 15.7,39.2 24.4,27.8 					"/>
					<polygon class="st16" points="26.2,27.8 15.7,41.6 15.7,40.4 25.3,27.8 					"/>
					<polygon class="st17" points="27.1,27.8 15.7,42.8 15.7,41.6 26.2,27.8 					"/>
					<polygon class="st18" points="28,27.8 15.7,43.9 15.7,42.8 27.1,27.8 					"/>
					<polygon class="st19" points="28.9,27.8 15.7,45.1 15.7,43.9 28,27.8 					"/>
					<polygon class="st20" points="29.8,27.8 15.7,46.3 15.7,45.1 28.9,27.8 					"/>
					<polygon class="st21" points="30.7,27.8 15.7,47.5 15.7,46.3 29.8,27.8 					"/>
					<polygon class="st22" points="31.5,27.8 15.7,48.6 15.7,47.5 30.7,27.8 					"/>
					<polygon class="st23" points="32.4,27.8 15.7,49.8 15.7,48.6 31.5,27.8 					"/>
					<polygon class="st24" points="33.3,27.8 15.7,51 15.7,49.8 32.4,27.8 					"/>
					<polygon class="st25" points="34.2,27.8 15.7,52.2 15.7,51 33.3,27.8 					"/>
					<polygon class="st26" points="35.1,27.8 15.7,53.3 15.7,52.2 34.2,27.8 					"/>
					<polygon class="st27" points="36,27.8 15.7,54.5 15.7,53.3 35.1,27.8 					"/>
					<polygon class="st28" points="36.9,27.8 15.7,55.7 15.7,54.5 36,27.8 					"/>
					<polygon class="st29" points="37.8,27.8 16.3,56.1 15.7,55.7 15.7,55.7 36.9,27.8 					"/>
					<polygon class="st30" points="38.7,27.8 16.9,56.6 16.3,56.1 37.8,27.8 					"/>
					<polygon class="st31" points="39.5,27.8 17.4,57 16.9,56.6 38.7,27.8 					"/>
					<polygon class="st32" points="40.4,27.8 18,57.4 17.4,57 39.5,27.8 					"/>
					<polygon class="st33" points="41.3,27.8 18.6,57.8 18,57.4 40.4,27.8 					"/>
					<polygon class="st34" points="42.2,27.8 19.1,58.3 18.6,57.8 41.3,27.8 					"/>
					<polygon class="st35" points="42.8,27.8 43,27.9 19.9,58.4 19.3,58.4 19.1,58.3 42.2,27.8 					"/>
					<polygon class="st36" points="43,27.9 43.6,28.3 20.8,58.4 19.9,58.4 					"/>
					<polygon class="st37" points="43.6,28.3 44.1,28.8 21.7,58.4 20.8,58.4 					"/>
					<polygon class="st38" points="44.1,28.8 44.7,29.2 22.6,58.4 21.7,58.4 					"/>
					<polygon class="st39" points="44.7,29.2 45.3,29.6 23.5,58.4 22.6,58.4 					"/>
					<polygon class="st40" points="45.3,29.6 45.8,30 24.4,58.4 23.5,58.4 					"/>
					<polygon class="st41" points="45.8,30 46.4,30.5 46.4,30.5 25.3,58.4 24.4,58.4 					"/>
					<polygon class="st42" points="46.4,31.7 26.1,58.4 25.3,58.4 46.4,30.5 					"/>
					<polygon class="st43" points="46.4,32.8 27,58.4 26.1,58.4 46.4,31.7 					"/>
					<polygon class="st44" points="46.4,34 27.9,58.4 27,58.4 46.4,32.8 					"/>
					<polygon class="st45" points="46.4,35.2 28.8,58.4 27.9,58.4 46.4,34 					"/>
					<polygon class="st46" points="46.4,36.4 29.7,58.4 28.8,58.4 46.4,35.2 					"/>
					<polygon class="st47" points="46.4,37.5 30.6,58.4 29.7,58.4 46.4,36.4 					"/>
					<polygon class="st48" points="46.4,38.7 31.5,58.4 30.6,58.4 46.4,37.5 					"/>
					<polygon class="st49" points="46.4,39.9 32.4,58.4 31.5,58.4 46.4,38.7 					"/>
					<polygon class="st50" points="46.4,41.1 33.3,58.4 32.4,58.4 46.4,39.9 					"/>
					<polygon class="st51" points="46.4,42.2 34.1,58.4 33.3,58.4 46.4,41.1 					"/>
					<polygon class="st52" points="46.4,43.4 35,58.4 34.1,58.4 46.4,42.2 					"/>
					<polygon class="st53" points="46.4,44.6 35.9,58.4 35,58.4 46.4,43.4 					"/>
					<polygon class="st54" points="46.4,45.8 36.8,58.4 35.9,58.4 46.4,44.6 					"/>
					<polygon class="st55" points="46.4,46.9 37.7,58.4 36.8,58.4 46.4,45.8 					"/>
					<polygon class="st56" points="46.4,48.1 38.6,58.4 37.7,58.4 46.4,46.9 					"/>
					<polygon class="st56" points="38.6,58.4 46.4,48.1 46.4,58.4 					"/>
				</g>
			</g>
			<g>
				<path class="st57" d="M22.8,39v6.1c0,1.4,1.1,2.5,2.5,2.5h8.9c0.3,0,0.5-0.2,0.5-0.4v-6.1c0-1.4-1.1-2.5-2.5-2.5h-8.9
					C23,38.6,22.8,38.8,22.8,39L22.8,39z M35.1,41.4l3.7-2.7c0.3-0.3,0.6-0.2,0.6,0.3v8.1c0,0.5-0.3,0.5-0.6,0.3l-3.7-2.7V41.4z"/>
			</g>
		</g>
	</g>
</g>
</svg>
