<svg xmlns="http://www.w3.org/2000/svg" viewBox="0 0 440 272"><defs><style>.cls-3{fill:#515979}.cls-8{fill:#fff}.cls-9{fill:#ef7d7d}.cls-10{opacity:.4;mix-blend-mode:color-burn}</style></defs><g style="isolation:isolate"><g id="Layer_1" data-name="Layer 1"><circle cx="220" cy="136" r="90.18" fill="#747a94"/><path class="cls-3" d="M220 48.64A87.36 87.36 0 11132.64 136 87.36 87.36 0 01220 48.64m0-5.64a93 93 0 1093 93 93.11 93.11 0 00-93-93z"/><path d="M220 52.39a87.37 87.37 0 0187.34 85.49V136a87.36 87.36 0 00-174.72 0v1.88A87.37 87.37 0 01220 52.39z" fill="#979baf"/><circle cx="220" cy="136" r="68.58" fill="#d8ebfb"/><path class="cls-3" d="M220 70.24A65.76 65.76 0 11154.24 136 65.76 65.76 0 01220 70.24m0-5.63A71.39 71.39 0 10291.39 136 71.46 71.46 0 00220 64.61z"/><path d="M173.5 89.5a65.55 65.55 0 00-19.26 46.5H220V70.24a65.55 65.55 0 00-46.5 19.26z" fill="#f9b19a"/><path d="M266.5 89.5A65.55 65.55 0 00220 70.24V136h65.76a65.55 65.55 0 00-19.26-46.5z" fill="#97e5ab"/><path class="cls-3" d="M154.24 136h131.52v5.64H154.24zM227.54 169.61a1.41 1.41 0 01-.46-2.74 13.08 13.08 0 017.49 0 1.41 1.41 0 11-.91 2.66 10.46 10.46 0 00-5.66 0 1.24 1.24 0 01-.46.08z"/><circle class="cls-3" cx="230.83" cy="161.91" r="5.64"/><circle class="cls-8" cx="232.24" cy="161.91" r="1.41"/><path class="cls-3" d="M227.6 148.82a7.8 7.8 0 012.71-1.06 9.23 9.23 0 012.88-.11 8 8 0 012.89.89 6.08 6.08 0 012.27 2.06 1.62 1.62 0 01-1.62 2.48l-.37-.06c-.74-.13-1.31-.3-1.92-.41s-1.2-.23-1.84-.31l-2-.23a18.7 18.7 0 01-2.11-.26l-.4-.08a1.6 1.6 0 01-1.22-1.9 1.63 1.63 0 01.73-1.01zM205.89 169.61a1.41 1.41 0 01-.46-2.74 13.17 13.17 0 017.49 0 1.41 1.41 0 11-.92 2.66 10.46 10.46 0 00-5.66 0 1.19 1.19 0 01-.45.08z"/><circle class="cls-3" cx="209.17" cy="161.91" r="5.64"/><circle class="cls-8" cx="210.58" cy="161.91" r="1.41"/><path class="cls-3" d="M211.49 151.81a18.7 18.7 0 01-2.11.26l-2 .23c-.64.08-1.23.21-1.84.31s-1.18.28-1.92.41l-.37.06a1.62 1.62 0 01-1.86-1.33 1.64 1.64 0 01.24-1.15 6.08 6.08 0 012.27-2.06 8 8 0 012.89-.89 9.23 9.23 0 012.88.11 7.8 7.8 0 012.71 1.06 1.6 1.6 0 01.5 2.2 1.62 1.62 0 01-1 .71zM220 188.13a12.7 12.7 0 01-12.68-12.68 1.41 1.41 0 011.41-1.41h22.54a1.41 1.41 0 011.41 1.41A12.7 12.7 0 01220 188.13z"/><path class="cls-3" d="M231.27 175.45a11.27 11.27 0 01-22.54 0h22.54m0-2.82h-22.54a2.82 2.82 0 00-2.82 2.82 14.09 14.09 0 0028.18.13v-.13a2.82 2.82 0 00-2.81-2.82zm0 5.64z"/><ellipse class="cls-9" cx="220" cy="182.97" rx="8.39" ry="3.76"/><g class="cls-10"><path class="cls-3" d="M220 77.76a65.75 65.75 0 0165.64 62c.07-1.25.12-2.5.12-3.76a65.76 65.76 0 00-131.52 0c0 1.26 0 2.51.12 3.76a65.75 65.75 0 0165.64-62z"/></g><g class="cls-10"><path class="cls-3" d="M230.84 136.81a1 1 0 01-.3-.05l-18-5.91a.93.93 0 01-.32-1.6l43.43-37.14a1 1 0 01.61-.23 1 1 0 01.6.22.94.94 0 01.21 1.2l-25.39 43.05a1 1 0 01-.84.46z"/><path class="cls-3" d="M256.23 92.82l-25.39 43.05-18-5.91 43.43-37.14m0-1.88a1.82 1.82 0 00-1.22.46l-43.43 37.13a1.91 1.91 0 00-.62 1.8 1.88 1.88 0 001.26 1.42l18 5.9a1.7 1.7 0 00.59.1 1.86 1.86 0 001.61-.93l25.4-43a1.88 1.88 0 00-1.62-2.84zm0 3.76z"/></g><path class="cls-9" d="M230.65 135.87h-.27l-18.78-2.69a1.88 1.88 0 01-1.19-3L246.73 86a1.9 1.9 0 011.45-.68 1.88 1.88 0 011.76 2.54l-17.53 46.8a1.89 1.89 0 01-1.76 1.21z"/><path class="cls-3" d="M248.18 87.19L230.65 134l-18.79-2.69 36.32-44.11m0-3.76a3.77 3.77 0 00-2.9 1.37L209 128.91a3.76 3.76 0 002.37 6.11l18.79 2.69a4.73 4.73 0 00.53 0 3.77 3.77 0 003.52-2.44l17.53-46.8a3.75 3.75 0 00-3.52-5.08zm0 7.52z"/><path d="M205 138.82a2.82 2.82 0 01-2.82-2.82 17.85 17.85 0 0135.7 0 2.82 2.82 0 01-2.82 2.82z" fill="#75a5c3"/><path class="cls-3" d="M220 121a15 15 0 0115 15h-30a15 15 0 0115-15m0-5.64A20.69 20.69 0 00199.33 136a5.65 5.65 0 005.64 5.64H235a5.65 5.65 0 005.64-5.64A20.69 20.69 0 00220 115.33z"/><path d="M228.14 133.18a1.89 1.89 0 01-1.63-.94 7.55 7.55 0 00-6.51-3.76 1.88 1.88 0 110-3.75 11.32 11.32 0 019.76 5.63 1.87 1.87 0 01-1.62 2.82z" fill="#acc9db"/></g></g></svg>