<?xml version="1.0" encoding="utf-8"?>
<!-- Generator: Adobe Illustrator 25.0.0, SVG Export Plug-In . SVG Version: 6.00 Build 0)  -->
<svg version="1.1" id="Layer_1" xmlns="http://www.w3.org/2000/svg" xmlns:xlink="http://www.w3.org/1999/xlink" x="0px" y="0px"
	 viewBox="0 0 180 180" style="enable-background:new 0 0 180 180;" xml:space="preserve">
<style type="text/css">
	.st0{clip-path:url(#SVGID_2_);}
	.st1{fill:#7D9AB2;}
	.st2{fill:#FDF6EC;}
	.st3{fill:#FF7290;}
	.st4{fill:#FFD46B;}
	.st5{fill:#DFDFDD;}
	.st6{fill:#69D283;}
	.st7{fill:#00B617;}
	.st8{fill:#FFA92D;}
	.st9{fill:none;stroke:#35414D;stroke-width:3.6;stroke-linecap:round;stroke-linejoin:round;stroke-miterlimit:13.3333;}
</style>
<g id="g6513_1_" transform="matrix(1.3333333,0,0,-1.3333333,0,682.66667)">
	<g id="g6515_1_">
		<g>
			<defs>
				<rect id="SVGID_1_" x="-22.5" y="354.5" width="180" height="180"/>
			</defs>
			<clipPath id="SVGID_2_">
				<use xlink:href="#SVGID_1_"  style="overflow:visible;"/>
			</clipPath>
			<g id="g6517_1_" class="st0">
				<g id="g6523_1_" transform="translate(431.7197,431.72)">
					<path id="path6525_1_" class="st1" d="M-317.9,59.1c-11.9,11.9-28.2,19.2-46.3,19.2s-34.5-7.3-46.3-19.2
						c-11.9-11.9-19.2-28.2-19.2-46.3s7.3-34.5,19.2-46.3c11.9-11.9,28.2-19.2,46.3-19.2s34.5,7.3,46.3,19.2
						c11.9,11.9,19.2,28.2,19.2,46.3S-306,47.3-317.9,59.1"/>
				</g>
				<g id="g6527_1_" transform="translate(415.8719,256)">
					<path id="path6529_1_" class="st2" d="M-306.2,188.5l-4.1,30.1l-23.5,15l-32.7-1.7l-19.8-21.8l-4.8-29.4l4.8-30.3
						c9.7-9.7,23.2-15.8,38-15.8c14.9,0,28.3,6,38,15.8l4.1,15.6V188.5z"/>
				</g>
				<g id="g6531_1_" transform="translate(123.9997,256)">
					<path id="path6533_1_" class="st3" d="M-91.3,188.5c0-9.6,3.9-18.3,10.2-24.6l-13.4-13.4c-9.7,9.7-15.8,23.2-15.8,38
						c0,14.9,6,28.3,15.8,38l13.4-13.4C-87.4,206.8-91.3,198.1-91.3,188.5"/>
				</g>
				<g id="g6535_1_" transform="translate(400.2397,400.24)">
					<path id="path6537_1_" class="st4" d="M-294.7,82.3l-13.4-13.4c-6.3,6.3-15,10.2-24.6,10.2s-18.3-3.9-24.6-10.2l-13.4,13.4
						c9.7,9.7,23.2,15.8,38,15.8C-317.9,98-304.4,92-294.7,82.3"/>
				</g>
				<g id="g6539_1_" transform="translate(404.534,338.8682)">
					<path id="path6541_1_" class="st5" d="M-297.9,127.5l-1.1,8.3l-15.1,9.6c-0.9-0.4-1.8-0.9-2.6-1.6l-29.9-23.1
						c-1.4-0.9-2.7-2-3.8-3.2c-6.1-6.8-5.9-17.4,0.4-24c3.3-3.5,8.1-5.6,12.9-5.6h0c4.8,0,9.2,1.9,12.6,5.2c0.9,0.9,1.8,2,2.5,3.1
						l23.1,29.9C-298.5,126.5-298.2,127-297.9,127.5"/>
				</g>
				<g id="g6543_1_" transform="translate(400.2397,400.24)">
					<path id="path6545_1_" class="st4" d="M-294.7,82.3l-13.4-13.4c-6.3,6.3-15,10.2-24.6,10.2s-18.3-3.9-24.6-10.2l-13.4,13.4
						c9.7,9.7,23.2,15.8,38,15.8C-317.9,98-304.4,92-294.7,82.3"/>
				</g>
				<g id="g6547_1_" transform="translate(459.9797,256)">
					<path id="path6549_1_" class="st6" d="M-338.7,188.5c0-14.9-6-28.3-15.8-38l-13.4,13.4c6.3,6.3,10.2,15,10.2,24.6
						s-3.9,18.3-10.2,24.6l13.4,13.4C-344.7,216.8-338.7,203.4-338.7,188.5"/>
				</g>
				<g id="g6551_1_" transform="translate(378.7118,304.7195)">
					<path id="path6553_1_" class="st7" d="M-278.9,152.6l5.8,7.5c3.9,5,3.4,12.2-1.1,16.8l-12.5-12.5
						C-283.3,161.1-280.6,157.1-278.9,152.6"/>
				</g>
				<g id="g6555_1_" transform="translate(304.7192,378.712)">
					<path id="path6557_1_" class="st8" d="M-224.4,98.1l7.5,5.8c5,3.9,12.2,3.4,16.8-1.1l-12.5-12.5
						C-215.9,93.7-219.9,96.4-224.4,98.1"/>
				</g>
				<g id="g6559_1_" transform="translate(288.346,237.0128)">
					<path id="path6561_1_" class="st3" d="M-212.3,202.5l23.4,30.2c1.5,1.9,1.3,4.6-0.4,6.3c-1.7,1.7-4.4,1.9-6.3,0.4l-30.2-23.4
						c-0.9-0.5-1.7-1.2-2.4-2c-3.4-3.8-3.3-9.7,0.2-13.4c3.8-4.1,10.2-4.1,14.2-0.2C-213.2,201.1-212.7,201.8-212.3,202.5"/>
				</g>
				<g id="g6563_1_" transform="translate(52.0203,256)">
					<path id="path6565_1_" class="st9" d="M-38.3,188.5c0-14.9,6-28.3,15.8-38c9.7-9.7,23.2-15.8,38-15.8s28.3,6,38,15.8
						c9.7,9.7,15.8,23.2,15.8,38c0,14.9-6,28.3-15.8,38c-9.7,9.7-23.2,15.8-38,15.8s-28.3-6-38-15.8
						C-32.3,216.8-38.3,203.4-38.3,188.5z"/>
				</g>
				<g id="g6567_1_" transform="translate(124.0003,256)">
					<path id="path6569_1_" class="st9" d="M-91.3,188.5c0-9.6,3.9-18.3,10.2-24.6l-13.4-13.4c-9.7,9.7-15.8,23.2-15.8,38
						c0,14.9,6,28.3,15.8,38l13.4-13.4C-87.4,206.8-91.3,198.1-91.3,188.5z"/>
				</g>
				<g id="g6571_1_" transform="translate(439.9149,88.8773)">
					<path id="path6573_1_" class="st9" d="M-323.9,311.6c10.6,11.6,17,27.1,17,44.1c0,18.1-7.3,34.5-19.2,46.3
						c-11.9,11.9-28.2,19.2-46.3,19.2c-16.7,0-31.9-6.3-43.5-16.5"/>
				</g>
				<g id="g6575_1_" transform="translate(69.8089,420.5571)">
					<path id="path6577_1_" class="st9" d="M-51.4,67.3c-10.2-11.6-16.4-26.7-16.4-43.4c0-18.1,7.3-34.5,19.2-46.3
						c11.9-11.9,28.2-19.2,46.3-19.2c16.4,0,31.3,6,42.8,15.9"/>
				</g>
				<g id="g6579_1_" transform="translate(186.841,125.694)">
					<path id="path6581_1_" class="st9" d="M-137.6,284.4v-3.3"/>
				</g>
				<g id="g6583_1_" transform="translate(325.1596,113.1773)">
					<path id="path6585_1_" class="st9" d="M-239.4,293.7v3.3"/>
				</g>
				<g id="g6587_1_" transform="translate(273.0697,114.0482)">
					<path id="path6589_1_" class="st9" d="M-201.1,293c-1.1-1.2-2.7-2-4.5-2c-1.8,0-3.4,0.8-4.5,2"/>
				</g>
				<g id="g6591_1_" transform="translate(263.7785,248.2218)">
					<path id="path6593_1_" d="M-194.2,194.2c-1.1-1.1-3-1.1-4.1,0c-1.1,1.1-1.1,3,0,4.1c1.1,1.1,3,1.1,4.1,0
						C-193.1,197.2-193.1,195.4-194.2,194.2"/>
				</g>
				<g id="g6595_1_" transform="translate(400.2401,400.24)">
					<path id="path6597_1_" class="st9" d="M-294.7,82.3l-6.5-6.5c1.7-1.7,1.9-4.4,0.4-6.3l-3.7-4.8c4.2-5.7,6.6-12.8,6.6-20.4
						c0-9.6-3.9-18.3-10.2-24.6l13.4-13.4c9.7,9.7,15.8,23.2,15.8,38S-285,72.6-294.7,82.3z"/>
				</g>
				<g id="g6599_1_" transform="translate(333.3665,362.9507)">
					<path id="path6601_1_" class="st9" d="M-245.5,109.7l4.8,3.7c1.9,1.5,4.6,1.3,6.3-0.4l6.5,6.5c-9.7,9.7-23.2,15.8-38,15.8
						c-14.9,0-28.3-6-38-15.8l13.4-13.4c6.3,6.3,15,10.2,24.6,10.2C-258.2,116.4-251.2,113.9-245.5,109.7L-245.5,109.7z"/>
				</g>
				<g id="g6603_1_" transform="translate(288.3466,237.0128)">
					<path id="path6605_1_" class="st9" d="M-212.3,202.5l23.4,30.2c1.5,1.9,1.3,4.6-0.4,6.3c-1.7,1.7-4.4,1.9-6.3,0.4l-30.2-23.4
						c-0.9-0.5-1.7-1.2-2.4-2c-3.4-3.8-3.3-9.7,0.2-13.4c3.8-4.1,10.2-4.1,14.2-0.2C-213.2,201.1-212.7,201.8-212.3,202.5z"/>
				</g>
			</g>
		</g>
	</g>
</g>
</svg>
