<svg id="Layer_1" data-name="Layer 1" xmlns="http://www.w3.org/2000/svg" viewBox="0 0 440 272"><defs><clipPath id="clip-path"><path fill="none" d="M0 0h440v272H0z"/></clipPath><style>.cls-3{fill:#ffd886}.cls-4{fill:#515979}.cls-5{fill:#fbb040}.cls-6{fill:#9e8271}.cls-7{fill:#ffe8b6}.cls-8{fill:#ef7d7d}.cls-9{fill:#fff}</style></defs><g clip-path="url(#clip-path)"><rect class="cls-3" x="98.6" y="112.79" width="13.85" height="29.44" rx="2.6"/><path class="cls-4" d="M109.86 115.39v24.24h-8.66v-24.24h8.66m0-5.2h-8.66a5.19 5.19 0 00-5.19 5.2v24.24a5.19 5.19 0 005.19 5.2h8.66a5.2 5.2 0 005.2-5.2v-24.24a5.2 5.2 0 00-5.2-5.2z"/><path class="cls-5" d="M101.2 111.92h8.66v8.66h-8.66z"/><rect class="cls-6" x="72.63" y="133.57" width="65.81" height="39.83" rx="2.6"/><path class="cls-4" d="M135.84 136.17v34.63H75.22v-34.63h60.62m0-5.2H75.22a5.2 5.2 0 00-5.19 5.2v34.63a5.2 5.2 0 005.19 5.2h60.62a5.19 5.19 0 005.19-5.2v-34.63a5.19 5.19 0 00-5.19-5.2z"/><rect class="cls-3" x="81.29" y="142.23" width="48.49" height="22.51" rx="1.73"/><path class="cls-4" d="M128.05 144v19H83v-19h45m0-3.46H83a3.46 3.46 0 00-3.45 3.46v19a3.46 3.46 0 003.45 3.47h45a3.46 3.46 0 003.46-3.46V144a3.46 3.46 0 00-3.46-3.46z"/><path class="cls-3" d="M53.58 87.68a20 20 0 01-19.92-19.92V46.11a2.59 2.59 0 012.6-2.59h26a2.59 2.59 0 012.59 2.59v5.2a2.6 2.6 0 01-2.59 2.6H44.05v13a10.41 10.41 0 0010.39 10.38h7.8a2.59 2.59 0 012.59 2.59v5.2a2.6 2.6 0 01-2.59 2.6z"/><path class="cls-4" d="M62.24 46.11v5.2H41.45V66.9a13 13 0 0013 13h7.8v5.2h-8.67a17.31 17.31 0 01-17.32-17.34V46.11h26m0-5.19h-26a5.19 5.19 0 00-5.2 5.19v21.65a22.53 22.53 0 0022.52 22.51h8.66a5.19 5.19 0 005.19-5.19v-5.2a5.19 5.19 0 00-5.19-5.19h-7.8a7.81 7.81 0 01-7.79-7.79V56.5h15.59a5.19 5.19 0 005.19-5.19v-5.2a5.19 5.19 0 00-5.19-5.19z"/><path class="cls-3" d="M148.83 87.68a2.6 2.6 0 01-2.6-2.6v-5.2a2.59 2.59 0 012.6-2.59h7.79A10.41 10.41 0 00167 66.9v-13h-18.17a2.6 2.6 0 01-2.6-2.6v-5.2a2.59 2.59 0 012.6-2.59h26a2.59 2.59 0 012.6 2.59v21.66a19.94 19.94 0 01-19.91 19.92z"/><path class="cls-4" d="M174.8 46.11v21.65a17.31 17.31 0 01-17.31 17.32h-8.66v-5.2h7.79a13 13 0 0013-13V51.31h-20.79v-5.2h26m0-5.19h-26a5.19 5.19 0 00-5.2 5.19v5.2a5.19 5.19 0 005.2 5.19h15.58v10.4a7.8 7.8 0 01-7.79 7.79h-7.79a5.19 5.19 0 00-5.2 5.19v5.2a5.19 5.19 0 005.2 5.19h8.66A22.53 22.53 0 00180 67.76V46.11a5.19 5.19 0 00-5.2-5.19z"/><path class="cls-5" d="M156.62 79.88h-7.79v5.2h7.84a38.27 38.27 0 001.6-5.31 12.82 12.82 0 01-1.65.11zM148.83 46.11h10.39v5.2h-10.39zM62.24 79.88h-7.8a12.66 12.66 0 01-1.64-.11 38.24 38.24 0 001.59 5.31h7.85zM51.85 46.11h10.39v5.2H51.85z"/><path class="cls-3" d="M105.53 112.79A46 46 0 0159.64 66.9V32.26a2.59 2.59 0 012.6-2.6h86.59a2.59 2.59 0 012.59 2.6V66.9a45.94 45.94 0 01-45.89 45.89z"/><path class="cls-4" d="M148.83 32.26V66.9a43.3 43.3 0 01-43.3 43.29A43.29 43.29 0 0162.24 66.9V32.26h86.59m0-5.2H62.24a5.2 5.2 0 00-5.2 5.2V66.9a48.49 48.49 0 0097 0V32.26a5.19 5.19 0 00-5.19-5.2zM94.37 150.4l-2 6.31H91.1l-1.19-3.91-.06-.2-.06-.24c0 .08-.05.16-.07.24l-.06.2-1.2 3.91h-1.33l-1.95-6.31h1.23a.61.61 0 01.32.08.42.42 0 01.17.23l.86 3.29a3.38 3.38 0 01.08.34c0 .13 0 .25.08.39a4.56 4.56 0 01.19-.73l1-3.29a.42.42 0 01.17-.21.46.46 0 01.31-.1H90a.5.5 0 01.31.09.55.55 0 01.18.22l1 3.29a5.71 5.71 0 01.19.69c0-.13 0-.25.07-.36a3.18 3.18 0 01.08-.33l.86-3.29a.49.49 0 01.17-.22.52.52 0 01.31-.09zM96.47 156.71H95v-6.31h1.47zM103.2 150.4v6.31h-.76a.62.62 0 01-.29-.06.74.74 0 01-.23-.19l-3-3.76v4.01h-1.23v-6.31h.93a.24.24 0 01.12 0 .3.3 0 01.1.07l.11.11 3 3.79a2.16 2.16 0 010-.35V150.4zM110.8 152.1l-.1.54a.49.49 0 01-.17.3.77.77 0 01-.42.09h-.27l-.18 1h.47a.34.34 0 01.29.12.54.54 0 010 .4l-.06.42h-.86l-.3 1.71h-.63a.34.34 0 01-.17-.05.47.47 0 01-.13-.11.38.38 0 01-.08-.17.74.74 0 010-.21l.21-1.17h-.72l-.21 1.24a.49.49 0 01-.08.21.5.5 0 01-.14.15.53.53 0 01-.17.08H106.28l.3-1.71h-.38a.33.33 0 01-.29-.12.57.57 0 010-.41l.07-.41h.77l.18-1h-.86l.1-.54a.5.5 0 01.17-.3.77.77 0 01.42-.09h.24l.23-1.27a.51.51 0 01.19-.32.67.67 0 01.37-.11h.62l-.31 1.7h.72l.3-1.7h.6a.58.58 0 01.19 0 .5.5 0 01.14.1.3.3 0 01.09.13.37.37 0 010 .18l-.14 1.32zm-2.06.93H108l-.18 1h.72zM113.52 154.32l.12-.15.1-.14a1.79 1.79 0 01-.9.22 1.75 1.75 0 01-1.18-.45 1.72 1.72 0 01-.4-.57 2 2 0 01-.16-.81 2.25 2.25 0 01.16-.81 2.15 2.15 0 01.45-.66 2.21 2.21 0 01.7-.45 2.24 2.24 0 01.91-.17 2.55 2.55 0 01.91.15 2 2 0 01.69.44 1.86 1.86 0 01.42.67 2.35 2.35 0 01.15.86 3.13 3.13 0 01-.18 1.1 4.17 4.17 0 01-.5.93l-1.36 1.93a.75.75 0 01-.27.21 1 1 0 01-.42.09h-1.24zm-1.07-2c0 .63.29 1 .87 1a.84.84 0 00.68-.32 1 1 0 00.23-.69 1.25 1.25 0 00-.06-.4.86.86 0 00-.19-.29.79.79 0 00-.29-.18 1.06 1.06 0 00-.37-.06.8.8 0 00-.63.27.92.92 0 00-.17.29 1.5 1.5 0 00-.07.38zM116.23 152.2a2.4 2.4 0 01.27-.82 2 2 0 01.49-.59 2.14 2.14 0 01.67-.35 3 3 0 01.81-.11 2.37 2.37 0 01.83.13 1.83 1.83 0 01.61.36 1.52 1.52 0 01.39.52 1.74 1.74 0 01.06 1.15 1.61 1.61 0 01-.17.4 1.15 1.15 0 01-.3.28 2.12 2.12 0 01-.4.19 1.4 1.4 0 011.05 1.43 2 2 0 01-.18.87 1.9 1.9 0 01-.49.62 1.93 1.93 0 01-.71.37 3 3 0 01-.84.13 3.18 3.18 0 01-.8-.1 1.9 1.9 0 01-.62-.31 1.85 1.85 0 01-.48-.52 3.57 3.57 0 01-.36-.76l.6-.25a.72.72 0 01.43 0 .41.41 0 01.29.2 1.65 1.65 0 00.41.52.84.84 0 00.51.16 1 1 0 00.4-.08.83.83 0 00.44-.46.81.81 0 00.06-.31 1.94 1.94 0 000-.36.45.45 0 00-.16-.28.89.89 0 00-.39-.18 2.85 2.85 0 00-.73-.07V153a2.68 2.68 0 00.63-.06 1 1 0 00.38-.17.44.44 0 00.17-.26 1.14 1.14 0 00.05-.33.81.81 0 00-.18-.57.68.68 0 00-.55-.21.81.81 0 00-.5.16.84.84 0 00-.29.39.56.56 0 01-.24.32.68.68 0 01-.42 0zM125.65 150.4v.6a1.18 1.18 0 01-.06.41 2.16 2.16 0 01-.1.25l-2.19 4.64a1 1 0 01-.26.32.75.75 0 01-.45.13h-1l2.25-4.52a2.63 2.63 0 01.2-.33 1.56 1.56 0 01.23-.28h-2.78a.2.2 0 01-.11 0 .33.33 0 01-.1-.06.27.27 0 01-.09-.21v-.88z"/><path class="cls-5" d="M105.53 105.86a43.29 43.29 0 01-43.29-43.29v4.33a43.3 43.3 0 0086.59 0v-4.33a43.3 43.3 0 01-43.3 43.29z"/><path class="cls-7" d="M62.24 32.26h86.59v3.46H62.24z"/><path class="cls-4" d="M111.4 67a2.15 2.15 0 01-2.14-2 6.42 6.42 0 0112.83-.67 2.14 2.14 0 11-4.28.22 2.15 2.15 0 00-3.73-1.32 2.16 2.16 0 00-.55 1.55 2.14 2.14 0 01-2 2.25zM90 68.11a2.14 2.14 0 01-2.13-2A6.43 6.43 0 0194 59.33a6.43 6.43 0 016.75 6.08 2.14 2.14 0 11-4.27.22 2.14 2.14 0 00-4.28.23 2.14 2.14 0 01-2 2.25zM111.29 49.46a8.63 8.63 0 013.12-1.09 10.37 10.37 0 013.29 0 9 9 0 013.24 1.13 6.75 6.75 0 012.51 2.44 1.83 1.83 0 01-.63 2.52 1.81 1.81 0 01-1.31.23l-.42-.09c-.83-.17-1.48-.39-2.17-.53s-1.35-.32-2.08-.43l-2.25-.34a23.78 23.78 0 01-2.39-.38l-.45-.11a1.82 1.82 0 01-1.31-2.21 1.84 1.84 0 01.85-1.14zM96.53 53.73a20.65 20.65 0 01-2.34.62l-2.2.58c-.71.18-1.35.43-2 .64s-1.29.5-2.09.76l-.41.13a1.85 1.85 0 01-2.23-2.54 6.88 6.88 0 012.25-2.68 8.92 8.92 0 013.1-1.47 10.2 10.2 0 013.28-.32 8.62 8.62 0 013.21.75 1.82 1.82 0 01.9 2.41 1.79 1.79 0 01-1 1zM105.76 89.07a14.43 14.43 0 01-14.41-13.68 1.6 1.6 0 011.52-1.69l25.72-1.35a1.6 1.6 0 011.6 1.52 14.45 14.45 0 01-13.66 15.18h-.77z"/><path class="cls-4" d="M118.59 74a12.84 12.84 0 01-12.15 13.49h-.68A12.85 12.85 0 0193 75.3l25.59-1.3m0-3.21h-.17L92.78 72.1a3.21 3.21 0 00-3 3.37 16 16 0 0016 15.21h.85a16 16 0 0015.18-16.86 3.19 3.19 0 00-3.2-3z"/><ellipse class="cls-8" cx="106.22" cy="83.18" rx="9.55" ry="4.28" transform="rotate(-3 106.16 83.222)"/><rect class="cls-3" x="335.52" y="100.07" width="13.02" height="27.66" rx="2.44"/><path class="cls-4" d="M346.1 102.51v22.78H338v-22.78h8.14m0-4.88H338a4.88 4.88 0 00-4.88 4.88v22.78a4.89 4.89 0 004.88 4.88h8.14a4.88 4.88 0 004.88-4.88v-22.78a4.87 4.87 0 00-4.88-4.88z"/><path class="cls-5" d="M337.96 99.25h8.14v8.14h-8.14z"/><rect class="cls-6" x="311.12" y="119.59" width="61.83" height="37.42" rx="2.44"/><path class="cls-4" d="M370.51 122v32.55h-56.95V122h56.95m0-4.88h-56.95a4.89 4.89 0 00-4.89 4.88v32.55a4.89 4.89 0 004.89 4.88h56.95a4.89 4.89 0 004.88-4.88V122a4.89 4.89 0 00-4.88-4.88z"/><rect class="cls-3" x="319.25" y="127.73" width="45.56" height="21.15" rx="1.63"/><path class="cls-4" d="M363.18 129.36v17.9h-42.3v-17.9h42.3m0-3.26h-42.3a3.26 3.26 0 00-3.26 3.26v17.9a3.26 3.26 0 003.26 3.25h42.3a3.26 3.26 0 003.26-3.25v-17.9a3.26 3.26 0 00-3.26-3.26z"/><path class="cls-3" d="M293.22 76.47a18.74 18.74 0 01-18.72-18.71V37.42a2.44 2.44 0 012.44-2.42h24.41a2.44 2.44 0 012.44 2.44v4.86a2.44 2.44 0 01-2.44 2.44h-17.08V57a9.77 9.77 0 009.73 9.71h7.32a2.44 2.44 0 012.44 2.44V74a2.44 2.44 0 01-2.44 2.44z"/><path class="cls-4" d="M301.35 37.42v4.88h-19.52V57A12.2 12.2 0 00294 69.15h7.32V74h-8.13a16.27 16.27 0 01-16.28-16.27V37.42h24.41m0-4.88h-24.38a4.89 4.89 0 00-4.88 4.88v20.34a21.18 21.18 0 0021.16 21.15h8.13a4.87 4.87 0 004.88-4.91v-4.85a4.87 4.87 0 00-4.88-4.88H294a7.33 7.33 0 01-7.29-7.27v-9.82h14.64a4.87 4.87 0 004.88-4.88v-4.88a4.88 4.88 0 00-4.88-4.88z"/><path class="cls-3" d="M382.71 76.47a2.44 2.44 0 01-2.44-2.47v-4.85a2.44 2.44 0 012.44-2.44H390a9.78 9.78 0 009.8-9.71V44.74h-17.09a2.44 2.44 0 01-2.44-2.44v-4.88a2.44 2.44 0 012.44-2.42h24.41a2.44 2.44 0 012.44 2.44v20.32a18.73 18.73 0 01-18.71 18.71z"/><path class="cls-4" d="M407.12 37.42v20.34A16.27 16.27 0 01390.85 74h-8.14v-4.85H390A12.21 12.21 0 00402.24 57V42.3h-19.53v-4.88h24.41m0-4.88h-24.41a4.88 4.88 0 00-4.88 4.88v4.88a4.87 4.87 0 004.88 4.88h14.65V57a7.34 7.34 0 01-7.36 7.27h-7.32a4.87 4.87 0 00-4.88 4.88V74a4.87 4.87 0 004.88 4.88h8.14A21.18 21.18 0 00412 57.76V37.42a4.89 4.89 0 00-4.88-4.88z"/><path class="cls-5" d="M390 69.15h-7.32V74h7.37a35 35 0 001.5-5 11.31 11.31 0 01-1.55.15zM382.71 37.42h9.76v4.88h-9.76zM301.35 69.15H294a11.31 11.31 0 01-1.55-.11 37.84 37.84 0 001.5 5h7.37zM291.59 37.42h9.76v4.88h-9.76z"/><path class="cls-3" d="M342 100.07A43.18 43.18 0 01298.91 57V24.4a2.44 2.44 0 012.44-2.4h81.36a2.44 2.44 0 012.44 2.44V57A43.17 43.17 0 01342 100.07z"/><path class="cls-4" d="M382.71 24.4V57A40.68 40.68 0 01342 97.63 40.68 40.68 0 01301.35 57V24.4h81.36m0-4.88h-81.36a4.89 4.89 0 00-4.88 4.88V57a45.56 45.56 0 0091.12 0V24.4a4.88 4.88 0 00-4.88-4.88zM331.54 135.4l-1.83 5.93h-1.24l-1.11-3.67a1.07 1.07 0 01-.07-.19c0-.07 0-.14-.05-.22l-.06.22-.06.19-1.12 3.67h-1.25l-1.83-5.93h1.16a.49.49 0 01.3.09.32.32 0 01.15.21l.82 3.09c0 .1.05.21.07.32s0 .24.07.36a5.13 5.13 0 01.18-.68l1-3.09a.49.49 0 01.16-.2.43.43 0 01.29-.1h.41a.46.46 0 01.29.09.49.49 0 01.16.21l.95 3.09a4.64 4.64 0 01.18.65c0-.12.05-.24.07-.34s.05-.21.07-.31l.82-3.09a.38.38 0 01.15-.21.48.48 0 01.29-.09zM333.52 141.33h-1.39v-5.93h1.39zM339.84 135.4v5.93h-.72a.67.67 0 01-.26-.05.58.58 0 01-.22-.18l-2.79-3.53V141.33h-1.22v-5.93h.99l.09.07a.36.36 0 01.1.11l2.82 3.55v-3.73zM347 137l-.1.52a.36.36 0 01-.16.27.66.66 0 01-.39.09h-.25l-.17 1h.44a.31.31 0 01.27.11.54.54 0 010 .38l-.07.39h-.8l-.29 1.61h-.58a.29.29 0 01-.16 0 .35.35 0 01-.13-.11.46.46 0 01-.07-.16.31.31 0 010-.19l.19-1.11h-.67l-.2 1.17a.52.52 0 01-.07.2.58.58 0 01-.13.14l-.17.08h-.75l.28-1.61h-.35a.32.32 0 01-.28-.11.54.54 0 010-.38l.06-.39h.73l.16-1h-.81l.1-.51a.46.46 0 01.16-.28.7.7 0 01.39-.09h.28l.21-1.19a.48.48 0 01.19-.3.58.58 0 01.34-.11h.58l-.28 1.6h.67l.28-1.6h.55a.33.33 0 01.17 0 .47.47 0 01.14.08.57.57 0 01.08.13.33.33 0 010 .17l-.21 1.18zm-1.94.88h-.67l-.17 1h.68zM349.54 139.09a.76.76 0 01.11-.14l.09-.13a1.78 1.78 0 01-.85.2 1.63 1.63 0 01-.57-.1 1.6 1.6 0 01-.53-.32 1.75 1.75 0 01-.38-.53 2 2 0 01-.14-.76 1.94 1.94 0 01.15-.76 1.79 1.79 0 01.42-.63 1.87 1.87 0 01.66-.42 2.11 2.11 0 01.85-.16 2.31 2.31 0 01.86.15 1.72 1.72 0 01.64.41 1.74 1.74 0 01.4.62 2.38 2.38 0 01.14.81 3.06 3.06 0 01-.17 1 4.31 4.31 0 01-.47.87l-1.28 1.81a.55.55 0 01-.26.2.93.93 0 01-.39.08h-1.16zm-1-1.88c0 .6.27.89.82.89a.8.8 0 00.62-.24 1 1 0 00.22-.65.92.92 0 00-.07-.38.72.72 0 00-.44-.44 1 1 0 00-.35 0 .93.93 0 00-.34.06.79.79 0 00-.25.19.85.85 0 00-.16.28 1.21 1.21 0 00-.06.29zM352.09 137.1a2 2 0 01.25-.78 1.76 1.76 0 01.46-.55 1.87 1.87 0 01.63-.32 2.33 2.33 0 01.76-.11 2.37 2.37 0 01.78.12 1.93 1.93 0 01.58.34 1.42 1.42 0 01.35.49 1.45 1.45 0 01.13.59 1.83 1.83 0 01-.06.49 1.26 1.26 0 01-.17.37 1 1 0 01-.28.27 1.82 1.82 0 01-.37.18 1.32 1.32 0 011 1.34 1.9 1.9 0 01-.17.82 1.65 1.65 0 01-.46.58 1.9 1.9 0 01-.66.35 2.66 2.66 0 01-.79.12 2.48 2.48 0 01-.75-.1 1.69 1.69 0 01-.59-.28 1.93 1.93 0 01-.45-.49 3.71 3.71 0 01-.34-.72l.57-.23a.63.63 0 01.4 0 .36.36 0 01.27.18 1.36 1.36 0 00.39.49.75.75 0 00.48.16 1 1 0 00.37-.07.83.83 0 00.26-.19.82.82 0 00.16-.25 1 1 0 00.05-.29 1.72 1.72 0 000-.34.39.39 0 00-.15-.27.86.86 0 00-.36-.17 4.07 4.07 0 00-.69 0v-.87a2.41 2.41 0 00.6-.06.88.88 0 00.35-.16.51.51 0 00.17-.24 1.55 1.55 0 000-.31.78.78 0 00-.17-.54.65.65 0 00-.52-.19.75.75 0 00-.47.15.78.78 0 00-.27.36.52.52 0 01-.22.3.62.62 0 01-.4 0zM360.93 135.4v.53a1 1 0 01-.05.38 2.16 2.16 0 01-.1.25l-2.06 4.36a1 1 0 01-.24.29.66.66 0 01-.42.12h-.92l2.12-4.24a1.82 1.82 0 01.19-.31 1.39 1.39 0 01.21-.27h-2.71l-.09-.06-.07-.09a.43.43 0 010-.11v-.83z"/><path class="cls-5" d="M342 93.56a40.68 40.68 0 01-40.68-40.68V57a40.68 40.68 0 0081.36 0v-4.12A40.68 40.68 0 01342 93.56z"/><path class="cls-7" d="M301.35 24.4h81.36v3.25h-81.36z"/><path class="cls-4" d="M347.85 60.91a1.35 1.35 0 01-.5-2.6 12.65 12.65 0 017.16-.37 1.35 1.35 0 01-.75 2.59 10 10 0 00-5.4.28 1.32 1.32 0 01-.51.1z"/><circle class="cls-4" cx="350.68" cy="53.38" r="5.39"/><circle class="cls-9" cx="352.02" cy="53.31" r="1.35"/><path class="cls-4" d="M329.91 61.85a1.35 1.35 0 01-.51-2.6 12.66 12.66 0 017.16-.37 1.35 1.35 0 01-.74 2.59 10.05 10.05 0 00-5.41.28 1.24 1.24 0 01-.5.1z"/><circle class="cls-4" cx="332.73" cy="54.32" r="5.39"/><circle class="cls-9" cx="334.08" cy="54.25" r="1.35"/><path class="cls-4" d="M346.84 41.12a7.15 7.15 0 012.53-1.12 8.69 8.69 0 012.75-.26 7.57 7.57 0 012.8.71 5.76 5.76 0 012.27 1.85 1.54 1.54 0 01-.34 2.16 1.52 1.52 0 01-1.08.29h-.36c-.71-.08-1.26-.22-1.85-.29s-1.16-.16-1.77-.2l-1.91-.12a19.59 19.59 0 01-2-.15l-.38-.06a1.52 1.52 0 01-.63-2.75zM334.55 44.63a19 19 0 01-2 .35l-1.88.32c-.61.11-1.16.27-1.74.39s-1.12.33-1.81.48l-.35.08a1.54 1.54 0 01-1.85-1.17 1.51 1.51 0 01.17-1.11 5.73 5.73 0 012.07-2.08 7.42 7.42 0 012.71-1 8.53 8.53 0 012.76 0 7.46 7.46 0 012.64.87 1.54 1.54 0 01.59 2.08 1.56 1.56 0 01-.93.73zM342.35 78.46A12.11 12.11 0 01330.25 67a1.35 1.35 0 011.27-1.42l21.61-1.13a1.35 1.35 0 011.34 1.28A12.14 12.14 0 01343 78.44h-.64z"/><path class="cls-4" d="M353.13 65.76a10.78 10.78 0 01-10.21 11.33h-.57a10.79 10.79 0 01-10.76-10.22l21.54-1.13m0-2.69H353l-21.55 1.15a2.72 2.72 0 00-1.86.89 2.67 2.67 0 00-.69 1.91 13.47 13.47 0 0013.45 12.8h.71a13.49 13.49 0 0012.76-14.16 2.7 2.7 0 00-2.69-2.55z"/><ellipse class="cls-8" cx="342.74" cy="73.5" rx="8.02" ry="3.59" transform="rotate(-3 342.77 73.558)"/><rect class="cls-3" x="215.26" y="170.46" width="18.09" height="38.44" rx="3.39"/><path class="cls-4" d="M230 173.85v31.66h-11.35v-31.66H230m0-6.78h-11.35a6.79 6.79 0 00-6.79 6.78v31.66a6.79 6.79 0 006.79 6.79H230a6.79 6.79 0 006.78-6.79v-31.66a6.79 6.79 0 00-6.78-6.78z"/><path class="cls-5" d="M218.65 169.33h11.31v11.31h-11.31z"/><rect class="cls-6" x="181.34" y="197.6" width="85.93" height="52.01" rx="3.39"/><path class="cls-4" d="M263.88 201v45.23h-79.15V201h79.15m0-6.79h-79.15a6.79 6.79 0 00-6.79 6.79v45.23a6.79 6.79 0 006.79 6.78h79.15a6.79 6.79 0 006.78-6.78V201a6.79 6.79 0 00-6.78-6.79z"/><rect class="cls-3" x="192.64" y="208.9" width="63.32" height="29.4" rx="2.26"/><path class="cls-4" d="M253.7 211.16V236h-58.8v-24.84h58.8m0-4.52h-58.8a4.53 4.53 0 00-4.52 4.52V236a4.52 4.52 0 004.52 4.52h58.8a4.52 4.52 0 004.52-4.52v-24.84a4.52 4.52 0 00-4.52-4.52z"/><path class="cls-3" d="M156.46 137.67a26 26 0 01-26-26V83.4a3.38 3.38 0 013.39-3.4h33.92a3.39 3.39 0 013.39 3.39v6.78a3.39 3.39 0 01-3.39 3.39H144v17a13.58 13.58 0 0013.57 13.57h10.18a3.39 3.39 0 013.39 3.39v6.79a3.39 3.39 0 01-3.39 3.39z"/><path class="cls-4" d="M167.77 83.4v6.78h-27.14v20.35a17 17 0 0017 17h10.18v6.79h-11.35a22.61 22.61 0 01-22.61-22.62V83.4h33.92m0-6.79h-33.92a6.79 6.79 0 00-6.79 6.79v28.26a29.43 29.43 0 0029.4 29.4h11.31a6.79 6.79 0 006.78-6.78v-6.79a6.79 6.79 0 00-6.78-6.78h-10.18a10.19 10.19 0 01-10.17-10.18V97h20.35a6.79 6.79 0 006.78-6.79V83.4a6.79 6.79 0 00-6.78-6.79z"/><path class="cls-3" d="M280.84 137.67a3.4 3.4 0 01-3.4-3.39v-6.79a3.4 3.4 0 013.4-3.39H291a13.58 13.58 0 0013.57-13.57v-17h-23.73a3.4 3.4 0 01-3.4-3.39V83.4a3.39 3.39 0 013.4-3.39h33.92a3.39 3.39 0 013.39 3.39v28.26a26 26 0 01-26 26z"/><path class="cls-4" d="M314.76 83.4v28.26a22.62 22.62 0 01-22.62 22.62h-11.3v-6.79H291a17 17 0 0017-17V90.18h-27.16V83.4h33.92m0-6.79h-33.92a6.79 6.79 0 00-6.79 6.79v6.78a6.79 6.79 0 006.79 6.82h20.35v13.56A10.2 10.2 0 01291 120.71h-10.16a6.79 6.79 0 00-6.79 6.78v6.79a6.79 6.79 0 006.79 6.78h11.3a29.43 29.43 0 0029.4-29.4V83.4a6.79 6.79 0 00-6.78-6.79z"/><path class="cls-5" d="M291 127.49h-10.16v6.79h10.24a50.53 50.53 0 002.08-6.94 16.87 16.87 0 01-2.16.15zM280.84 83.4h13.57v6.78h-13.57zM167.77 127.49h-10.18a17 17 0 01-2.15-.15 50.53 50.53 0 002.08 6.94h10.25zM154.2 83.4h13.57v6.78H154.2z"/><path class="cls-3" d="M224.3 170.46a60 60 0 01-59.92-59.93V65.31a3.39 3.39 0 013.39-3.4h113.07a3.4 3.4 0 013.39 3.4v45.22a60 60 0 01-59.93 59.93z"/><path class="cls-4" d="M280.84 65.31v45.22a56.54 56.54 0 01-56.54 56.54 56.53 56.53 0 01-56.53-56.54V65.31h113.07m0-6.79H167.77a6.79 6.79 0 00-6.77 6.79v45.22a63.32 63.32 0 00126.64 0V65.31a6.79 6.79 0 00-6.78-6.79zM209.73 219.57l-2.55 8.24h-1.73l-1.54-5.11a2 2 0 01-.09-.26c0-.1 0-.2-.08-.3 0 .1-.05.2-.08.3a2 2 0 01-.08.26l-1.58 5.11h-1.74l-2.54-8.24h1.61a.76.76 0 01.41.11.54.54 0 01.22.3l1.13 4.3a4.13 4.13 0 01.1.44c0 .16.07.33.1.5a7.89 7.89 0 01.25-.94l1.34-4.3a.52.52 0 01.22-.28.6.6 0 01.4-.13h.56a.66.66 0 01.64.41l1.32 4.3a5.77 5.77 0 01.25.9q0-.26.09-.48c0-.15.07-.29.1-.42l1.13-4.3a.54.54 0 01.22-.29.68.68 0 01.4-.12zM212.47 227.81h-1.92v-8.24h1.92zM221.26 219.57v8.24h-1a1 1 0 01-.37-.07 1 1 0 01-.3-.25l-3.88-4.91v5.23h-1.69v-8.24H215.39a.38.38 0 01.13.09l.14.15 3.92 4.95v-.46-4.78zM231.18 221.79l-.13.71a.59.59 0 01-.23.39.94.94 0 01-.54.12h-.36l-.23 1.34h.61a.45.45 0 01.38.15.77.77 0 010 .53l-.09.54h-1.12l-.39 2.24h-.82a.43.43 0 01-.22-.06.65.65 0 01-.18-.15.88.88 0 01-.1-.22.61.61 0 010-.27l.27-1.54h-.93l-.28 1.63a.63.63 0 01-.1.28.81.81 0 01-.18.19.94.94 0 01-.23.1.84.84 0 01-.27 0h-.78l.4-2.24h-.5a.46.46 0 01-.38-.15.77.77 0 01-.05-.53l.09-.54h1l.23-1.34H225l.13-.71a.59.59 0 01.23-.38.86.86 0 01.54-.13h.39l.29-1.66a.63.63 0 01.26-.41.75.75 0 01.47-.15h.81l-.4 2.22h.94l.4-2.22h.78a.61.61 0 01.24 0 .53.53 0 01.19.13.42.42 0 01.11.18.58.58 0 010 .23l-.29 1.64zm-2.69 1.21h-.94l-.23 1.34h.93zM234.73 224.69l.16-.19.13-.18a2.54 2.54 0 01-1.18.28 2.22 2.22 0 01-.8-.15 2.19 2.19 0 01-.73-.44 2.16 2.16 0 01-.53-.74 2.62 2.62 0 01-.2-1.05 2.86 2.86 0 01.2-1.06 2.67 2.67 0 011.51-1.46 3 3 0 011.18-.22 3.43 3.43 0 011.2.2 2.72 2.72 0 01.89.57 2.6 2.6 0 01.56.88 3 3 0 01.19 1.11 4.12 4.12 0 01-.24 1.45 5 5 0 01-.65 1.2l-1.78 2.53a.86.86 0 01-.36.27 1.19 1.19 0 01-.54.12h-1.62zm-1.4-2.6q0 1.23 1.14 1.23a1.1 1.1 0 00.87-.34 1.28 1.28 0 00.3-.89 1.44 1.44 0 00-.09-.53 1.17 1.17 0 00-.24-.39 1.21 1.21 0 00-.38-.23 1.51 1.51 0 00-.48-.08 1.16 1.16 0 00-.47.1 1 1 0 00-.35.25 1.07 1.07 0 00-.22.39 1.53 1.53 0 00-.08.49zM238.28 221.92a3.06 3.06 0 01.34-1.07 2.86 2.86 0 01.64-.77 2.72 2.72 0 01.88-.45 3.6 3.6 0 011.05-.15 3.33 3.33 0 011.09.17 2.42 2.42 0 01.8.47 1.85 1.85 0 01.5.68 2.08 2.08 0 01.17.82 2.76 2.76 0 01-.08.68 1.64 1.64 0 01-.23.52 1.67 1.67 0 01-.39.36 2.53 2.53 0 01-.52.26 1.84 1.84 0 011.37 1.86 2.52 2.52 0 01-.24 1.14 2.24 2.24 0 01-.64.81 2.62 2.62 0 01-.92.49 4 4 0 01-1.1.16 4 4 0 01-1-.13 2.51 2.51 0 01-.82-.4 2.55 2.55 0 01-.62-.68 4.43 4.43 0 01-.47-1l.78-.31a1.06 1.06 0 01.57-.07.57.57 0 01.37.26 2 2 0 00.54.68 1 1 0 00.67.22 1.29 1.29 0 00.51-.1 1.12 1.12 0 00.58-.61 1.12 1.12 0 00.07-.4 3.43 3.43 0 000-.48.67.67 0 00-.21-.36 1.1 1.1 0 00-.51-.24 4.66 4.66 0 00-.95-.08V223a3.69 3.69 0 00.83-.08 1.17 1.17 0 00.49-.22.69.69 0 00.23-.33 2 2 0 000-.44 1.14 1.14 0 00-.23-.75 1 1 0 00-.72-.26 1 1 0 00-.66.21 1.06 1.06 0 00-.37.51.76.76 0 01-.31.41.93.93 0 01-.55.05zM250.57 219.57v.73a1.54 1.54 0 01-.07.53c-.05.14-.1.25-.14.34l-2.86 6.06a1.21 1.21 0 01-.34.41.93.93 0 01-.58.17h-1.28l2.94-5.9c.09-.16.18-.3.27-.43a2.63 2.63 0 01.29-.37h-3.77a.27.27 0 01-.12-.09.34.34 0 01-.09-.12.42.42 0 010-.15v-1.15z"/><path class="cls-5" d="M224.3 161.41a56.53 56.53 0 01-56.53-56.53v5.65a56.54 56.54 0 10113.07 0v-5.65a56.53 56.53 0 01-56.54 56.53z"/><path class="cls-7" d="M167.77 65.31h113.07v4.52H167.77z"/><path class="cls-4" d="M246.35 120.68a2.18 2.18 0 01-1.07-.27 9.8 9.8 0 00-8 0 2.26 2.26 0 11-2.13-4 14.28 14.28 0 0112.31 0 2.26 2.26 0 01-1.07 4.25z"/><circle class="cls-4" cx="241.26" cy="109.66" r="7.91"/><circle class="cls-9" cx="243.24" cy="109.66" r="1.98"/><path class="cls-4" d="M235.64 90.42a10.22 10.22 0 012-1.39 11.84 11.84 0 012.13-.9 11.7 11.7 0 014.82-.44 9.83 9.83 0 014.75 1.84 8.65 8.65 0 013 3.83 2.32 2.32 0 01-1.24 3 2.36 2.36 0 01-1.79 0l-.51-.22c-1.07-.45-1.86-.93-2.69-1.17a10.94 10.94 0 00-2.4-.59 16.12 16.12 0 00-2.76-.14c-.5 0-1 0-1.56.07s-1.13.1-1.57.06l-.88-.09a2.24 2.24 0 01-2-2.44 2.27 2.27 0 01.7-1.42zM212.43 120.68a2.18 2.18 0 01-1.07-.27 9.8 9.8 0 00-8 0 2.26 2.26 0 11-2.14-4 14.3 14.3 0 0112.32 0 2.26 2.26 0 01-1.07 4.25z"/><circle class="cls-4" cx="207.34" cy="109.66" r="7.91"/><circle class="cls-9" cx="209.32" cy="109.66" r="1.98"/><path class="cls-4" d="M210.81 94.4c-.44 0-1.05-.05-1.57-.06s-1.05-.06-1.55-.07a16.12 16.12 0 00-2.76.14 11 11 0 00-2.41.59c-.83.24-1.62.72-2.69 1.17l-.5.21a2.3 2.3 0 01-3-1.23 2.27 2.27 0 010-1.79 8.72 8.72 0 013-3.83 9.87 9.87 0 014.75-1.84 11.76 11.76 0 014.83.44A12.48 12.48 0 01211 89a10.55 10.55 0 012 1.42 2.22 2.22 0 01.17 3.15 2.16 2.16 0 01-1.44.74zM224.71 133.42a33.73 33.73 0 01-17.41-4.82 2.26 2.26 0 012.35-3.87c9 5.49 21.32 5.51 29.19 0a2.26 2.26 0 112.58 3.71 29.27 29.27 0 01-16.71 4.98zM219.58 136.94a17.58 17.58 0 004.73.7 14.58 14.58 0 002.38-.17 11.48 11.48 0 002.32-.53 1.5 1.5 0 011.58 2.45l-.82.86a6.1 6.1 0 01-2.6 1.55 8.77 8.77 0 01-2.87.36 10.92 10.92 0 01-2.85-.49 7.6 7.6 0 01-2.6-1.41l-.76-.67a1.55 1.55 0 011.49-2.65z"/></g></svg>