<?xml version="1.0" encoding="utf-8"?>
<!-- Generator: Adobe Illustrator 25.0.0, SVG Export Plug-In . SVG Version: 6.00 Build 0)  -->
<svg version="1.1" id="Layer_1" xmlns="http://www.w3.org/2000/svg" xmlns:xlink="http://www.w3.org/1999/xlink" x="0px" y="0px"
	 viewBox="0 0 291.5 290" style="enable-background:new 0 0 291.5 290;" xml:space="preserve">
<style type="text/css">
	.st0{fill:#00B39D;}
	.st1{fill:#00CCB3;}
	.st2{fill:#FFD422;}
	.st3{fill:#3D9AE2;}
	.st4{fill:#1E81CE;}
	.st5{fill:#FDF6EC;}
	.st6{fill:#35414D;}
</style>
<g id="Business-Profit-Growth-Money_Tree-Marketing_1_">
	<g>
		<path class="st0" d="M246.5,261l3.3-9.1c3.7-10,14.7-15.2,24.8-11.6c0,0,0,0,0,0l9.1,3.3l-3.3,9.1c-3.7,10-14.7,15.2-24.8,11.6
			c0,0,0,0,0,0L246.5,261z"/>
		<path class="st0" d="M243.2,251.9l3.3,9.1l-9.1,3.3c-10,3.7-21.1-1.5-24.8-11.5c0,0,0,0,0,0l-3.3-9.1l9.1-3.3
			C228.5,236.7,239.6,241.9,243.2,251.9C243.2,251.9,243.2,251.9,243.2,251.9z"/>
		<path class="st0" d="M187,234l-3.3,9.1c-3.7,10-14.7,15.2-24.8,11.6c0,0,0,0,0,0l-9.1-3.3l3.3-9.1c3.7-10,14.7-15.2,24.8-11.6
			c0,0,0,0,0,0L187,234z"/>
		<path class="st0" d="M146.6,242.2l3.3,9.1l-9.1,3.3c-10,3.7-21.1-1.5-24.8-11.5c0,0,0,0,0,0l-3.3-9.1l9.1-3.3
			C131.8,227,142.9,232.2,146.6,242.2C146.6,242.2,146.6,242.2,146.6,242.2z"/>
	</g>
	<path class="st1" d="M156.7,193c7.6,7.5,7.6,19.7,0.1,27.3c0,0-0.1,0.1-0.1,0.1l-6.8,6.8l-6.8-6.8c-7.6-7.5-7.6-19.7-0.1-27.3
		c0,0,0.1-0.1,0.1-0.1l6.8-6.9L156.7,193z"/>
	<path class="st0" d="M85.5,243.6l-3.3,9.1c-3.7,10-14.7,15.2-24.8,11.6c0,0,0,0,0,0l-9.1-3.3l3.3-9.1c3.7-10,14.7-15.2,24.8-11.6
		c0,0,0,0,0,0L85.5,243.6z"/>
	<path class="st0" d="M48.3,261l-9.1,3.3c-10,3.7-21.1-1.5-24.8-11.5c0,0,0,0,0,0l-3.3-9.1l9.1-3.3c10-3.7,21.1,1.5,24.8,11.5
		c0,0,0,0,0,0L48.3,261z"/>
	<circle class="st2" cx="48.3" cy="183.7" r="43.5"/>
	<path class="st3" d="M265.8,59.8l6.3,6.3l-59.5,59.5h-48.3v4.8l-4.8,4.8H145V96.7h14.5l4.8,4.8v4.8H203l-26.6-26.6l54.7-54.7
		L265.8,59.8z"/>
	<path class="st4" d="M272.2,66.2l14.5,14.5L232,135.3l-9.7-9.7h-9.7L272.2,66.2z"/>
	<path class="st5" d="M228.6,22.6l2.5,2.5l-54.7,54.7L163.7,67l54.7-54.7L228.6,22.6z"/>
	<path class="st6" d="M288.2,245.3c0.9-2.5-0.4-5.3-2.9-6.2c0,0,0,0,0,0l-9.1-3.3c-11.5-4.1-24.3,1-29.7,11.9
		c-5.5-10.9-18.2-16-29.7-11.9l-9.1,3.3c-2.5,0.9-3.8,3.7-2.9,6.2c0,0,0,0,0,0l3.3,9.1c4.5,12.5,18.3,19,30.9,14.5c0,0,0.1,0,0.1,0
		l2.6-1v12.5h-87v-22.1l2.6,1c12.5,4.6,26.4-1.9,31-14.4l3.3-9.1c0.9-2.5-0.4-5.3-2.9-6.2c0,0,0,0,0,0l-9.1-3.3
		c-8.6-3.1-18.3-1.1-24.9,5.3v-2.3l5.4-5.4c9.4-9.4,9.4-24.7,0-34.2l-6.8-6.8c-1.9-1.9-4.9-1.9-6.8,0l-6.8,6.8
		c-9.4,9.4-9.4,24.7,0,34.2l5.4,5.4v2.3c-6.6-6.4-16.3-8.4-24.9-5.3l-9.1,3.3c-2.5,0.9-3.8,3.7-2.9,6.2c0,0,0,0,0,0l3.3,9.1
		c4.5,12.5,18.3,19,30.9,14.5c0,0,0.1,0,0.1,0l2.6-1v22.1H53.2v-12.4l2.6,1c12.5,4.6,26.4-1.9,31-14.4l3.3-9.1
		c0.9-2.5-0.4-5.3-2.9-6.2c0,0,0,0,0,0l-9.1-3.3c-8.6-3.1-18.3-1.1-24.9,5.3v-9.4c26.6-2.7,45.9-26.4,43.3-52.9
		c-2.7-26.6-26.4-45.9-52.9-43.3s-45.9,26.4-43.3,52.9c2.3,22.9,20.4,41,43.3,43.3v9.4c-6.6-6.4-16.3-8.4-24.9-5.3l-9.1,3.3
		c-2.5,0.9-3.8,3.7-2.9,6.2c0,0,0,0,0,0l3.3,9.1c4.5,12.5,18.3,19,30.9,14.5c0,0,0.1,0,0.1,0l2.6-1v12.5H19.3v9.7h251.3v-9.7h-19.3
		v-12.4l2.6,1c12.5,4.6,26.4-1.9,31-14.4L288.2,245.3z M157.7,243.9c2.7-7.5,11.1-11.4,18.6-8.7l4.5,1.7l-1.7,4.5
		c-2.7,7.5-11.1,11.4-18.6,8.7l-4.5-1.7L157.7,243.9z M139.1,250.1c-7.5,2.7-15.8-1.1-18.6-8.7c0,0,0,0,0,0l-1.7-4.5l4.5-1.7
		c7.5-2.7,15.8,1.2,18.6,8.7l1.7,4.5L139.1,250.1z M146.4,196.4l3.4-3.4l3.4,3.4c5.7,5.7,5.7,14.8,0,20.5c0,0,0,0,0,0l-3.4,3.4
		l-3.4-3.4C140.8,211.3,140.8,202.1,146.4,196.4C146.4,196.4,146.4,196.4,146.4,196.4z M56.2,253.6c2.7-7.5,11.1-11.4,18.6-8.7
		c0,0,0,0,0,0l4.5,1.7l-1.7,4.5c-2.7,7.5-11.1,11.4-18.6,8.7l-4.5-1.7L56.2,253.6z M37.6,259.8c-7.5,2.7-15.8-1.1-18.6-8.7
		c0,0,0,0,0,0l-1.7-4.5l4.5-1.7c7.5-2.7,15.8,1.2,18.6,8.7l1.7,4.5L37.6,259.8z M9.7,183.7C9.7,162.3,27,145,48.3,145
		S87,162.3,87,183.7s-17.3,38.7-38.7,38.7C27,222.3,9.7,205,9.7,183.7z M235.8,259.8c-7.5,2.7-15.8-1.1-18.6-8.7c0,0,0,0,0,0
		l-1.7-4.5l4.5-1.7c7.5-2.7,15.8,1.2,18.6,8.7l1.7,4.5L235.8,259.8z M275.8,251.1c-2.7,7.5-11.1,11.4-18.6,8.7l-4.5-1.7l1.7-4.5
		c2.7-7.5,11.1-11.4,18.6-8.7l4.5,1.7L275.8,251.1z"/>
	<path class="st6" d="M53.2,212.7v-4.8c8,0,14.5-6.5,14.5-14.5c0-8-6.5-14.5-14.5-14.5h-9.7c-2.7,0-4.8-2.2-4.8-4.8
		c0-2.7,2.2-4.8,4.8-4.8h9.7c2.7,0,4.8,2.2,4.8,4.8h9.7c0-8-6.5-14.5-14.5-14.5v-4.8h-9.7v4.8c-8,0-14.5,6.5-14.5,14.5
		c0,8,6.5,14.5,14.5,14.5h9.7c2.7,0,4.8,2.2,4.8,4.8c0,2.7-2.2,4.8-4.8,4.8h-9.7c-2.7,0-4.8-2.2-4.8-4.8H29c0,8,6.5,14.5,14.5,14.5
		v4.8H53.2z"/>
	<path class="st6" d="M290.1,77.2l-19.4-19.4V24.2c0-1.3-0.5-2.5-1.4-3.4L249.9,1.4c-1.9-1.9-4.9-1.9-6.8,0l-14.5,14.3l-6.9-6.9
		c-1.9-1.9-4.9-1.9-6.8,0l-54.7,54.7c-1.9,1.9-1.9,4.9,0,6.8l31.1,31.1h-22.2c0-1.3-0.5-2.5-1.4-3.4l-4.8-4.8
		c-0.9-0.9-2.1-1.4-3.4-1.4H145c-2.7,0-4.8,2.2-4.8,4.8v38.7c0,2.7,2.2,4.8,4.8,4.8h14.5c1.3,0,2.5-0.5,3.4-1.4l4.8-4.8
		c0.9-0.9,1.4-2.1,1.4-3.4h51.2l8.3,8.3c1.9,1.9,4.9,1.9,6.8,0l54.7-54.7C292,82.2,292,79.1,290.1,77.2
		C290.1,77.2,290.1,77.2,290.1,77.2L290.1,77.2z M246.5,11.6L261,26.1v22l-25.6-25.5L246.5,11.6z M218.3,19.1l5.9,5.9l-47.9,47.9
		l-5.9-5.9L218.3,19.1z M164.3,120.8c-2.7,0-4.8,2.2-4.8,4.8v2.8l-2,2h-7.7v-29h7.7l2,2v2.8c0,2.7,2.2,4.8,4.8,4.8H203
		c2.7,0,4.8-2.2,4.8-4.8c0-1.3-0.5-2.5-1.4-3.4l-23.2-23.2l47.9-47.9l34.3,34.3l-54.7,54.7H164.3z M232,128.5l-6.2-6.2
		c-0.5-0.5-1.1-0.9-1.7-1.1L272.2,73l7.7,7.7L232,128.5z"/>
	<path class="st6" d="M120.8,120.8h9.7v9.7h-9.7V120.8z"/>
	<path class="st6" d="M116,101.5h9.7v9.7H116V101.5z"/>
	<path class="st6" d="M101.5,116h9.7v9.7h-9.7V116z"/>
	<path class="st6" d="M82.2,125.7h9.7v9.7h-9.7V125.7z"/>
	<path class="st6" d="M120.8,140.2h9.7v9.7h-9.7V140.2z"/>
	<path class="st6" d="M106.3,154.7h9.7v9.7h-9.7V154.7z"/>
	<path class="st6" d="M101.5,135.3h9.7v9.7h-9.7V135.3z"/>
	<path class="st6" d="M66.3,95.2l6.2-6.2v27h9.7V89l6.2,6.2l6.8-6.8L80.8,73.9c-1.9-1.9-4.9-1.9-6.8,0L59.4,88.4L66.3,95.2z"/>
	<path class="st6" d="M43.5,50.3v27h9.7v-27l6.2,6.2l6.8-6.8L51.8,35.2c-1.9-1.9-4.9-1.9-6.8,0L30.4,49.7l6.8,6.8L43.5,50.3z"/>
	<path class="st6" d="M14.5,98.7v27h9.7v-27l6.2,6.2l6.8-6.8L22.8,83.6c-1.9-1.9-4.9-1.9-6.8,0L1.4,98.1l6.8,6.8L14.5,98.7z"/>
	<path class="st6" d="M0,280.3h9.7v9.7H0V280.3z"/>
	<path class="st6" d="M280.3,280.3h9.7v9.7h-9.7V280.3z"/>
</g>
</svg>
