<svg id="Layer_1" data-name="Layer 1" xmlns="http://www.w3.org/2000/svg" viewBox="0 0 440 272"><defs><style>.cls-1{fill:#bad2e1}.cls-2{fill:#515979}.cls-3{fill:#75a5c3}.cls-4{fill:#e3edf3}.cls-5{fill:#fff}.cls-7{fill:#6adaf7}</style></defs><path class="cls-1" d="M138.81 98.74a45.77 45.77 0 01-32.37-78.14 45.77 45.77 0 1164.73 64.73 45.44 45.44 0 01-32.36 13.41zm0-74.51a28.74 28.74 0 1020.32 8.41 28.59 28.59 0 00-20.32-8.41z"/><path class="cls-2" d="M138.81 10.39a42.58 42.58 0 11-30.11 12.47 42.41 42.41 0 0130.11-12.47m0 74.51a31.93 31.93 0 10-22.59-9.35 31.86 31.86 0 0022.59 9.35m0-80.9a49 49 0 00-34.63 83.59 49 49 0 0069.25-69.25A48.63 48.63 0 00138.81 4zm0 74.52A25.56 25.56 0 11156.87 71a25.38 25.38 0 01-18.06 7.49z"/><path class="cls-3" d="M168.91 83.08a42.58 42.58 0 000-60.22q-1.53-1.53-3.18-2.88L157 26.75a31.94 31.94 0 11-48.12 37.43L100.2 71a42.6 42.6 0 0068.71 12.13z"/><path class="cls-1" d="M181 166.06a3.19 3.19 0 01-2.46-5.23l21.83-26.35a3.18 3.18 0 012.3-1.15l77.53-3.76h.16a3.2 3.2 0 013 2.19l1.5 4.51a3.21 3.21 0 01-2.24 4.11L181.74 166a3 3 0 01-.74.06z"/><path class="cls-2" d="M280.32 132.76l1.5 4.51L181 162.86l21.83-26.34 77.53-3.76m0-6.39H280l-77.53 3.76a6.4 6.4 0 00-4.61 2.3L176 158.79a6.38 6.38 0 005 10.46 6.48 6.48 0 001.57-.19l100.86-25.6a6.37 6.37 0 004.49-8.21l-1.5-4.51a6.39 6.39 0 00-6.06-4.37z"/><path class="cls-4" d="M280.32 132.76l-77.53 3.76-6.03 7.53 83.56-8.28v-3.01z"/><path class="cls-3" d="M280.32 132.76L254.46 134a21.2 21.2 0 00-3 11l28.3-7.18 1.64-1.64z"/><path class="cls-1" d="M233.65 88a24.33 24.33 0 01-17.31-7.17 3.19 3.19 0 010-4.52l30.1-30.11a3.22 3.22 0 012.26-.93 3.19 3.19 0 012.26.93A24.49 24.49 0 01233.65 88z"/><path class="cls-2" d="M248.7 48.45a21.29 21.29 0 11-30.11 30.11l30.11-30.11m0-6.39a6.4 6.4 0 00-4.51 1.87L214.08 74a6.4 6.4 0 000 9 27.68 27.68 0 1039.14-39.15 6.42 6.42 0 00-4.52-1.87z"/><path class="cls-4" d="M248.7 48.45L246.14 51A21.28 21.28 0 01228 84a21.28 21.28 0 0020.7-35.55z"/><path class="cls-1" d="M169.67 183.37a3.15 3.15 0 01-2.26-.94l-82.8-82.79a3.19 3.19 0 01.3-4.78l101.61-79a3.21 3.21 0 012-.67 3.17 3.17 0 012.26.93L251 76.3a3.19 3.19 0 01.26 4.22l-79 101.62a3.17 3.17 0 01-2.32 1.22z"/><path class="cls-2" d="M188.49 18.34l60.21 60.22-79 101.62-82.8-82.8 101.62-79m0-6.38a6.39 6.39 0 00-3.92 1.34L83 92.34a6.37 6.37 0 00-.6 9.55l82.8 82.8a6.4 6.4 0 004.52 1.87h.39a6.41 6.41 0 004.65-2.45l79-101.62a6.38 6.38 0 00-.52-8.44L193 13.83a6.37 6.37 0 00-4.52-1.83z"/><path class="cls-2" d="M181.64 113.88a2.13 2.13 0 01-2-1.51 9.22 9.22 0 00-5.35-5.35 2.13 2.13 0 111.23-4.08 13.5 13.5 0 018.19 8.2 2.12 2.12 0 01-1.42 2.65 2.15 2.15 0 01-.65.09z"/><circle class="cls-2" cx="184.08" cy="102.53" r="7.45"/><circle class="cls-5" cx="185.4" cy="103.85" r="1.86"/><path class="cls-2" d="M193.15 86a9.26 9.26 0 012.22.38 10.79 10.79 0 015.52 3.73 9.29 9.29 0 011.94 4.39 8.23 8.23 0 01-.54 4.56 2.18 2.18 0 01-4 0l-.2-.49a25.18 25.18 0 00-1-2.57 10.37 10.37 0 00-1.21-2 15.87 15.87 0 00-1.74-1.93c-.34-.32-.7-.67-1.08-1a13.66 13.66 0 01-1.09-1l-.53-.64a2.11 2.11 0 011.71-3.43zM159.05 91.3a2.11 2.11 0 01-2-1.51 9.22 9.22 0 00-5.35-5.35 2.13 2.13 0 111.23-4.08 13.47 13.47 0 018.19 8.2 2.12 2.12 0 01-1.42 2.65 2.21 2.21 0 01-.65.09z"/><circle class="cls-2" cx="161.5" cy="79.95" r="7.45"/><circle class="cls-5" cx="162.82" cy="81.27" r="1.86"/><path class="cls-2" d="M174 72.1c-.32-.26-.67-.73-1-1.08s-.66-.74-1-1.08a15.15 15.15 0 00-1.92-1.75 10.71 10.71 0 00-2-1.2 27.53 27.53 0 00-2.57-1l-.48-.19a2.19 2.19 0 010-4 8.1 8.1 0 014.55-.53 9.26 9.26 0 014.4 1.93 11.13 11.13 0 012.91 3.51 11.72 11.72 0 01.82 2 9.8 9.8 0 01.37 2.22 2.1 2.1 0 01-3.43 1.75zM159.13 121.94a17 17 0 01-12-29.08 2.13 2.13 0 011.5-.62 2.15 2.15 0 011.51.62l21.07 21.08a2.11 2.11 0 010 3 16.89 16.89 0 01-12 5z"/><path class="cls-2" d="M148.59 94.37l21.08 21.07a14.9 14.9 0 01-21.08-21.07m0-4.26a4.25 4.25 0 00-3 1.25 19.16 19.16 0 1027.1 27.09 4.26 4.26 0 000-6L151.6 91.36a4.25 4.25 0 00-3-1.25z"/><ellipse cx="152.1" cy="111.93" rx="4.97" ry="11.09" transform="rotate(-45 152.105 111.936)" fill="#ef7d7d"/><path class="cls-4" d="M245.41 82.79l-61.16-61.15 4.24-3.3 60.21 60.22-3.29 4.23z"/><path class="cls-1" d="M272.79 163.05a3.17 3.17 0 01-2.26-.94 24.48 24.48 0 0134.63-34.62 3.2 3.2 0 010 4.51l-30.11 30.11a3.17 3.17 0 01-2.26.94z"/><path class="cls-2" d="M287.84 123.51a21.26 21.26 0 0115.06 6.23l-30.11 30.11a21.29 21.29 0 0115-36.34m0-6.39a27.68 27.68 0 00-19.57 47.25 6.4 6.4 0 009 0l30.11-30.11a6.39 6.39 0 000-9 27.5 27.5 0 00-19.58-8.11z"/><path class="cls-7" d="M290.49 186.71a8 8 0 01-7.86-6.6c-.65-3.66 3-9.53 4.17-11.25a2.63 2.63 0 011.75-1.14 2.38 2.38 0 01.46 0 2.71 2.71 0 011.58.51c1.66 1.22 7.12 5.49 7.76 9.15a8 8 0 01-6.47 9.25 8.16 8.16 0 01-1.39.08z"/><path class="cls-2" d="M289 170.34s6.21 4.57 6.72 7.46a5.32 5.32 0 01-4.31 6.17 6 6 0 01-.93.08 5.33 5.33 0 01-5.24-4.4c-.51-2.9 3.76-9.31 3.76-9.31m0-5.32a4.84 4.84 0 00-.92.08 5.34 5.34 0 00-3.51 2.29c-2 3.06-5.34 8.84-4.57 13.18a10.62 10.62 0 0010.48 8.8A10.64 10.64 0 00301 176.88c-.76-4.35-5.84-8.65-8.8-10.83a5.31 5.31 0 00-3.16-1z"/><path class="cls-7" d="M309.24 170.78a7.9 7.9 0 01-5.64-2.34c-2.63-2.63-3-9.55-3-11.61a2.62 2.62 0 01.78-1.94 2.67 2.67 0 011.88-.78h.06c2.06 0 9 .41 11.61 3a8 8 0 01-5.65 13.63z"/><path class="cls-2" d="M303.22 156.77s7.71.18 9.79 2.26a5.32 5.32 0 11-7.53 7.53c-2.08-2.08-2.26-9.79-2.26-9.79m0-5.32a5.33 5.33 0 00-5.32 5.45c.08 3.67.69 10.3 3.81 13.42a10.65 10.65 0 1015.06-15c-3.12-3.12-9.75-3.73-13.43-3.82z"/><path d="M328.06 214.06a16 16 0 01-6.91-1.69 2.18 2.18 0 01-1.07-1.47c-.93-4.85-.23-8.74 2.09-11.55 2.49-3 6.81-4.62 12.46-4.62a29.88 29.88 0 015.21.44 2.13 2.13 0 011.71 2.37c-1.9 14.38-9.27 16.52-13.49 16.52z" fill="#00c853"/><path class="cls-2" d="M334.63 196.86a28.25 28.25 0 014.81.4c-1.6 12.09-7 14.67-11.38 14.67a13.78 13.78 0 01-5.89-1.43c-2.27-11.77 6.6-13.64 12.46-13.64m0-4.26c-6.31 0-11.19 1.87-14.1 5.4-2.75 3.32-3.6 7.8-2.54 13.3a4.27 4.27 0 002.15 2.94 17.92 17.92 0 007.92 1.95c4.92 0 13.49-2.38 15.6-18.37a4.27 4.27 0 00-3.41-4.74 31.83 31.83 0 00-5.62-.48z"/><path d="M314.87 251.27h-.28l-7.24-.95a2.14 2.14 0 01-1.85-2c0-.64-.6-16 13.45-35.06a2.13 2.13 0 013.65 2.16c-.06.11-5.34 11.85-5.61 33.78a2.09 2.09 0 01-.73 1.58 2.12 2.12 0 01-1.39.49z" fill="#ceedd9"/><path class="cls-2" d="M320.66 214.5s-5.52 11.9-5.79 34.64l-7.24-.95s-.73-15 13-33.69m0-4.26a4.24 4.24 0 00-3.42 1.73c-14.5 19.67-13.9 35.75-13.86 36.42a4.26 4.26 0 003.69 4l7.24 1a3.43 3.43 0 00.56 0 4.26 4.26 0 004.25-4.21c.26-21.37 5.36-32.8 5.41-32.92a4.26 4.26 0 00-3.87-6zm0 8.51z"/><path d="M273.64 267.13l2.51-4.7c.51-.94 12.56-23 34.75-23s34.25 22 34.75 23l2.52 4.7z" fill="#b29d90"/><path class="cls-2" d="M310.9 242.65c20.54 0 31.94 21.29 31.94 21.29H279s11.4-21.29 31.93-21.29m0-6.39c-24.08 0-37 23.65-37.56 24.66l-5 9.4h85.2l-5-9.4c-.54-1-13.48-24.66-37.57-24.66z"/><path d="M310.9 249c14.89 0 25.65 8.22 31.68 14.44-1.8-3.09-12.93-20.82-31.68-20.82s-29.9 17.76-31.67 20.85C285.26 257.25 296 249 310.9 249z" fill="#c9bbb2"/><path class="cls-2" d="M358.81 270.32H263a3.19 3.19 0 010-6.38h95.81a3.19 3.19 0 010 6.38z"/></svg>