<?xml version="1.0" encoding="utf-8"?>
<!-- Generator: Adobe Illustrator 25.0.0, SVG Export Plug-In . SVG Version: 6.00 Build 0)  -->
<svg version="1.1" id="Layer_1" xmlns="http://www.w3.org/2000/svg" xmlns:xlink="http://www.w3.org/1999/xlink" x="0px" y="0px"
	 viewBox="0 0 280 300" style="enable-background:new 0 0 280 300;" xml:space="preserve">
<style type="text/css">
	.st0{fill:#FFCB5C;}
	.st1{fill:#FFB30F;}
	.st2{fill:#4CA859;}
	.st3{fill:#2B6E37;}
	.st4{fill:#F5B7A9;}
	.st5{fill:#35414D;}
	.st6{fill:#E95454;}
	.st7{fill:#ED6362;}
	.st8{fill:#FFCC5B;}
	.st9{fill:#FDBC4B;}
	.st10{fill:#FFDB70;}
	.st11{opacity:0.2;fill:#FFFFFF;enable-background:new    ;}
	.st12{fill:#EC9922;}
	.st13{fill:#399349;}
</style>
<g>
	<g>
		<path id="XMLID_138_" class="st0" d="M266.4,140.7l3.8-21l-22.8-4l-3.8,21c-2.2,11.9-8.3,22.8-17.4,30.9
			c-9.1,8.1-15.2,19-17.4,30.9l-8.1,44.6c-0.8,4.1,2,8.1,6.2,8.9l53.2,9.4c4.2,0.7,8.2-2,9-6.2l8.1-44.6c2.2-11.9,0.3-24.2-5.4-35
			C266.2,164.9,264.2,152.6,266.4,140.7L266.4,140.7z"/>
		<path id="XMLID_137_" class="st1" d="M249.4,104.4l-3.2,17.6l10.9,1.9l-2.7,14.7c-2.2,11.9-0.3,24.2,5.4,35
			c5.7,10.7,7.6,23,5.4,35l-8.1,44.6c-0.8,4.1-4.8,6.9-9,6.2l12,2.1c4.2,0.7,8.2-2,9-6.2l8.1-44.6c2.2-11.9,0.3-24.2-5.4-35
			c-5.7-10.7-7.6-23-5.4-35L269,126l1.2-6.4l2-11.3L249.4,104.4z"/>
		<path id="XMLID_136_" class="st2" d="M208.8,198.5l-8.1,44.6c-0.8,4.1,2,8.1,6.2,8.9l53.2,9.4c4.2,0.7,8.2-2,9-6.2l8.1-44.6
			c2.2-11.9,0.3-24.2-5.4-35l-25.3,9.4l-20.4-17.5C217.1,175.7,211,186.6,208.8,198.5L208.8,198.5z"/>
		<path id="XMLID_135_" class="st3" d="M265.3,208.5l-8.1,44.6c-0.8,4.1-4.8,6.9-9,6.2l12,2.1c4.2,0.7,8.2-2,9-6.2l8.1-44.6
			c2.2-11.9,0.3-24.2-5.4-35l-9.4,3.5C266.1,188.5,267.1,198.6,265.3,208.5L265.3,208.5z"/>
		<path id="XMLID_134_" class="st4" d="M219.7,192.5l49.5,8.7l-6.8,37.5l-49.5-8.7L219.7,192.5z"/>
		<path id="XMLID_133_" class="st0" d="M275.2,74.5l-16.3-2.9c-1.8-0.3-3.5,0.9-3.8,2.6l-1.3,7.1c-0.3,1.8,0.9,3.5,2.7,3.8
			l-1.9,10.3c-0.3,1.8,0.9,3.5,2.7,3.8l9.8,1.7c1.8,0.3,3.5-0.9,3.8-2.6l1.9-10.3c1.8,0.3,3.5-0.9,3.8-2.6l1.3-7.1
			C278.2,76.5,277,74.8,275.2,74.5z"/>
		<path id="XMLID_132_" class="st1" d="M256.4,85.2l16.3,2.9l-1.1,6.1l-16.3-2.9L256.4,85.2z"/>
		<path id="XMLID_131_" class="st0" d="M270.5,119.7l-23.4-4.1c-2-0.3-3.2-2.2-2.9-4.1l0.8-4.3c0.3-1.9,2.2-3.2,4.2-2.9l23.4,4.1
			c2,0.3,3.2,2.2,2.9,4.1l-0.8,4.3C274.3,118.8,272.4,120.1,270.5,119.7z"/>
		<g id="XMLID_122_">
			<g id="XMLID_129_">
				<path id="XMLID_130_" class="st5" d="M267.1,261.5c-2.1,1.4-4.6,2-7.1,1.5l-53.3-9.4c-2.5-0.4-4.7-1.8-6.1-3.9
					c-1.5-2.1-2-4.6-1.5-7l8.1-44.6c2.2-12.3,8.6-23.6,17.9-31.9c8.8-7.8,14.7-18.4,16.8-29.9l3.8-21c0.2-1,1.1-1.6,2.1-1.4l22.8,4
					c1,0.2,1.6,1.1,1.5,2.1l-3.8,21c-2.1,11.5-0.2,23.5,5.3,33.8c5.9,11,7.8,23.8,5.6,36.1l-8.1,44.6
					C270.5,257.9,269.1,260.1,267.1,261.5L267.1,261.5z M248.8,117.7l-3.5,19.3c-2.2,12.3-8.6,23.6-17.9,31.9
					c-8.8,7.8-14.7,18.4-16.8,29.9l-8.1,44.6c-0.3,1.5,0.1,3.1,1,4.4c0.9,1.3,2.3,2.2,3.8,2.4l53.2,9.4c1.6,0.3,3.1-0.1,4.4-1
					s2.2-2.2,2.5-3.8l8.1-44.6c2.1-11.5,0.2-23.5-5.3-33.8c-5.9-11-7.8-23.8-5.6-36.1l3.5-19.3L248.8,117.7z"/>
			</g>
			<g id="XMLID_127_">
				<path id="XMLID_128_" class="st5" d="M274.2,120.6c-1.1,0.8-2.6,1.1-4,0.9l-23.3-4.1c-2.9-0.5-4.9-3.3-4.4-6.2l0.8-4.3
					c0.5-2.9,3.4-4.8,6.3-4.3l23.4,4.1c2.9,0.5,4.9,3.3,4.4,6.2l-0.8,4.3C276.1,118.6,275.3,119.8,274.2,120.6z M247.5,106.4
					c-0.4,0.3-0.7,0.7-0.7,1.1l-0.8,4.3c-0.1,1,0.5,1.9,1.5,2.1l23.4,4.1c0.5,0.1,1,0,1.3-0.3c0.4-0.3,0.7-0.7,0.7-1.1l0.8-4.3
					c0.1-1-0.5-1.9-1.5-2.1l-23.4-4.1C248.4,106,247.9,106.1,247.5,106.4z"/>
			</g>
			<g id="XMLID_125_">
				<path id="XMLID_126_" class="st5" d="M263.4,240.3c-0.4,0.3-0.9,0.4-1.3,0.3l-49.4-8.7c-0.5-0.1-0.9-0.3-1.2-0.7
					c-0.3-0.4-0.4-0.9-0.3-1.3l6.8-37.5c0.2-1,1.1-1.6,2.1-1.4l49.4,8.7c0.5,0.1,0.9,0.3,1.2,0.7s0.4,0.9,0.3,1.3l-6.8,37.5
					C264.1,239.6,263.8,240,263.4,240.3z M215,228.7l45.9,8.1l6.2-34.1l-45.9-8.1L215,228.7z"/>
			</g>
			<g id="XMLID_123_">
				<path id="XMLID_124_" class="st5" d="M272.5,177.3l-25.3,9.4c-0.6,0.2-1.3,0.1-1.8-0.3l-14.1-12.1l2.4-2.7L247,183l24.3-9
					L272.5,177.3z"/>
			</g>
		</g>
		<g id="XMLID_120_">
			<path id="XMLID_121_" class="st5" d="M270.5,101.9c-1.1,0.7-2.4,1.1-3.8,0.8l-9.8-1.7c-2.8-0.5-4.6-3.1-4.1-5.9l1.6-8.9
				c-1.8-1-2.8-3.1-2.4-5.2l1.3-7.1c0.5-2.7,3.2-4.6,5.9-4.1l16.3,2.9c2.8,0.5,4.6,3.1,4.1,5.9l-1.3,7.1c-0.4,2.1-2.1,3.7-4.1,4.1
				l-1.6,8.9C272.4,100,271.6,101.2,270.5,101.9z M257.4,73.6c-0.3,0.2-0.6,0.6-0.6,1l-1.3,7.1c-0.1,0.8,0.4,1.6,1.2,1.7
				c0.5,0.1,0.9,0.3,1.2,0.7c0.3,0.4,0.4,0.9,0.3,1.3l-1.9,10.4c-0.1,0.8,0.4,1.6,1.2,1.7l9.8,1.7c0.8,0.1,1.6-0.4,1.8-1.2l1.9-10.3
				c0.1-0.4,0.3-0.9,0.7-1.1c0.4-0.3,0.9-0.4,1.3-0.3c0.8,0.1,1.6-0.4,1.8-1.2l1.3-7.1c0.1-0.8-0.4-1.6-1.2-1.7l-16.3-2.9
				C258.2,73.3,257.8,73.4,257.4,73.6z"/>
		</g>
		<g id="XMLID_118_">
			<path id="XMLID_119_" class="st5" d="M256.7,83.4l10,1.8l-0.6,3.5l-10-1.8L256.7,83.4z"/>
		</g>
		<g>
			<polygon class="st6" points="234.9,212.7 225.5,224.6 232,225.1 234.1,231.2 243.5,219.4 			"/>
			<g>
				<path class="st7" d="M233.1,227.1c0.3-0.4,0.2-0.9-0.2-1.2l-0.4-0.3c-0.4-0.3-0.4-0.8-0.1-1.2c0.3-0.4,0.9-0.4,1.2-0.1l1,0.8
					c0.3,0.2,0.8,0.2,1-0.1l0,0c0.3-0.3,0.2-0.8-0.1-1l-3.1-2.4c-0.4-0.3-0.5-0.8-0.2-1.2c0.3-0.4,0.9-0.5,1.3-0.2l2.9,2.2
					c0.3,0.2,0.8,0.2,1-0.1l0,0l0,0c0.3-0.3,0.2-0.8-0.1-1.1l-1.6-1.2c-0.4-0.3-0.5-0.8-0.2-1.2c0.3-0.4,0.9-0.5,1.3-0.2l1.8,1.4
					c0.3,0.3,0.8,0.2,1.1-0.2c0,0,0,0,0,0c0,0,0,0,0,0c0.3-0.3,0.2-0.8-0.1-1.1l-1.9-1.5c-0.4-0.3-0.5-0.8-0.2-1.2
					c0.3-0.4,0.9-0.5,1.3-0.2l4.7,3.7l-9.4,11.9l-1.3-3.8C232.9,227.3,233,227.2,233.1,227.1z"/>
				<polygon class="st7" points="248.1,215 252.7,229.4 246.5,227.7 242.3,232.7 237.7,218.3 				"/>
			</g>
			<path class="st6" d="M244.7,229.2c-0.1-0.5,0.2-0.9,0.6-1.1l0.4-0.1c0.4-0.2,0.7-0.6,0.5-1.1c-0.1-0.5-0.6-0.7-1.1-0.6l-1.3,0.4
				c-0.4,0.1-0.8-0.1-0.9-0.5l0-0.1c-0.1-0.4,0.1-0.8,0.4-0.9l3.8-1.2c0.5-0.1,0.8-0.6,0.6-1.1c-0.1-0.5-0.6-0.8-1.1-0.6l-3.5,1.1
				c-0.4,0.1-0.8-0.1-0.9-0.5l0,0l0,0c-0.1-0.4,0.1-0.8,0.5-1l2-0.6c0.5-0.1,0.8-0.6,0.6-1.1c-0.1-0.5-0.6-0.8-1.1-0.6l-2.2,0.7
				c-0.4,0.1-0.8-0.1-0.9-0.5c0,0,0,0,0,0c0,0,0,0,0,0c-0.1-0.4,0.1-0.8,0.5-1l2.3-0.7c0.5-0.1,0.7-0.6,0.6-1.1
				c-0.1-0.5-0.6-0.8-1.1-0.6l-5.7,1.8l4.7,14.4l2.6-3.1C244.8,229.4,244.7,229.3,244.7,229.2z"/>
			<ellipse class="st8" cx="241.9" cy="211.7" rx="12" ry="11.8"/>
			<path class="st9" d="M243.7,210.7l-7.5-1.3c-0.6-0.1-1-0.7-0.9-1.2l0-0.1l0,0c0.1-0.6,0.7-1,1.3-0.9l5.2,0.9
				c0.7,0.1,1.4-0.3,1.5-0.9c0.2-0.7-0.3-1.4-1-1.5l-5.5-1c-0.6-0.1-1-0.7-0.8-1.3c0,0,0,0,0,0s0,0,0,0c0.1-0.6,0.6-1,1.2-0.9l5.7,1
				c0.7,0.1,1.4-0.3,1.5-0.9c0.2-0.7-0.3-1.4-1-1.5l-4.2-0.7c-4.6,1-8.4,4.6-9.2,9.5c-0.9,4.9,1.4,9.5,5.4,12l5.3,0.9
				c0.7,0.1,1.4-0.3,1.5-0.9c0.2-0.7-0.3-1.4-1-1.5l-6.1-1.1c-0.7-0.1-1.2-0.8-1-1.5c0.2-0.7,0.9-1.1,1.5-0.9l2.4,0.4
				c0.7,0.1,1.3-0.3,1.4-1c0.1-0.7-0.3-1.3-1-1.5l-3.6-0.6c-0.6-0.1-1-0.7-0.9-1.2l0-0.1c0.1-0.6,0.6-1,1.2-0.9l7.9,1.4
				c0.7,0.1,1.4-0.3,1.5-0.9C244.9,211.5,244.4,210.8,243.7,210.7z"/>
			<path class="st10" d="M240.4,220c-4.6-0.8-7.7-5.2-6.9-9.8c0.8-4.6,5.3-7.6,9.9-6.8c4.6,0.8,7.7,5.2,6.9,9.8
				C249.4,217.8,245,220.8,240.4,220z"/>
			<path class="st11" d="M250.3,213.2c0.8-4.4-2.1-8.6-6.4-9.7l-0.8-0.1c-0.5-0.1-1,0.2-1.2,0.7c-0.1,0.5,0.2,1.1,0.8,1.2l4.6,0.8
				c0.5,0.1,0.9,0.6,0.8,1.2c-0.1,0.5-0.7,0.8-1.2,0.7l-1.8-0.3c-0.5-0.1-1,0.3-1.1,0.8c-0.1,0.5,0.3,1,0.8,1.1l2.7,0.5
				c0.4,0.1,0.7,0.5,0.7,0.9l0,0.1c0,0.4-0.5,0.7-0.9,0.7l-6-1.1c-0.5-0.1-1.1,0.2-1.2,0.7c-0.1,0.5,0.2,1.1,0.8,1.2l5.7,1
				c0.4,0.1,0.7,0.5,0.7,0.9l0,0.1l0,0c-0.1,0.5-0.5,0.8-1,0.7l-3.9-0.7c-0.5-0.1-1.1,0.2-1.2,0.7c-0.1,0.5,0.2,1.1,0.8,1.2l4.2,0.7
				c0.5,0.1,0.7,0.5,0.6,1c0,0,0,0,0,0s0,0,0,0c-0.1,0.5-0.5,0.8-1,0.7l-4.4-0.8c-0.5-0.1-1,0.2-1.2,0.7c-0.1,0.5,0.2,1.1,0.8,1.2
				l1.2,0.2C246.1,220,249.6,217.2,250.3,213.2z"/>
			<path class="st12" d="M248.1,210.9l-4.1-0.7l-0.6-4.1c-0.1-0.5-0.8-0.6-1-0.2l-2,3.6l-4.1-0.7c-0.5-0.1-0.9,0.5-0.5,0.9l2.9,3
				l-2,3.6c-0.3,0.5,0.2,1,0.7,0.7l3.7-1.8l2.9,3c0.4,0.4,1,0.1,0.9-0.5l-0.6-4.1l3.7-1.8C248.7,211.7,248.6,211,248.1,210.9z"/>
		</g>
	</g>
	<g>
		<path id="XMLID_117_" class="st0" d="M77.3,129.4l-3.1-22.5l-24.3,3.4l3.1,22.5c1.8,12.7-0.8,25.7-7.3,36.8
			c-6.5,11.1-9,24.1-7.3,36.8l6.6,47.6c0.6,4.4,4.8,7.5,9.2,6.9l56.8-7.7c4.5-0.6,7.6-4.7,7-9.1l-6.6-47.6
			c-1.8-12.7-7.8-24.5-17.1-33.5C85.1,153.9,79.1,142.1,77.3,129.4L77.3,129.4z"/>
		<path id="XMLID_116_" class="st1" d="M48.1,98.2l2.6,18.8l11.6-1.6l2.2,15.7c1.8,12.7,7.8,24.5,17.1,33.5
			c9.3,9,15.3,20.7,17.1,33.5l6.6,47.6c0.6,4.4-2.5,8.5-7,9.1l12.8-1.7c4.5-0.6,7.6-4.7,7-9.1l-6.6-47.6
			c-1.8-12.7-7.8-24.5-17.1-33.5s-15.3-20.7-17.1-33.5l-2.2-15.7l-1-6.8l-1.7-12L48.1,98.2z"/>
		<path id="XMLID_115_" class="st2" d="M38.5,206.3l6.6,47.6c0.6,4.4,4.8,7.5,9.2,6.9l56.8-7.7c4.5-0.6,7.6-4.7,7-9.1l-6.6-47.6
			c-1.8-12.7-7.8-24.5-17.1-33.5l-22.3,17.7l-26.4-11C39.2,180.7,36.6,193.6,38.5,206.3L38.5,206.3z"/>
		<path id="XMLID_114_" class="st3" d="M98.7,198.1l6.6,47.6c0.6,4.4-2.5,8.5-7,9.1l12.8-1.7c4.5-0.6,7.6-4.7,7-9.1l-6.6-47.6
			c-1.8-12.7-7.8-24.5-17.1-33.5l-8.3,6.6C92.9,177.7,97.3,187.6,98.7,198.1L98.7,198.1z"/>
		<path id="XMLID_113_" class="st4" d="M47.4,196.7l52.8-7.2l5.6,40.1L53,236.8L47.4,196.7z"/>
		<path id="XMLID_112_" class="st0" d="M64.2,59.8l-17.4,2.4c-1.9,0.3-3.3,2-3,3.9l1,7.6c0.3,1.9,2,3.2,3.9,3l1.5,11
			c0.3,1.9,2,3.2,3.9,3l10.5-1.4c1.9-0.3,3.3-2,3-3.9l-1.5-11c1.9-0.3,3.3-2,3-3.9l-1.1-7.5C67.9,60.9,66.2,59.5,64.2,59.8z"/>
		<path id="XMLID_111_" class="st1" d="M48.8,76.6l17.4-2.4l0.9,6.5l-17.4,2.4L48.8,76.6z"/>
		<path id="XMLID_110_" class="st0" d="M74.5,106.9l-24.9,3.4c-2.1,0.3-4-1.1-4.3-3.2l-0.6-4.6c-0.3-2.1,1.2-3.9,3.2-4.2l24.9-3.4
			c2.1-0.3,4,1.1,4.3,3.2l0.6,4.6C78,104.7,76.6,106.6,74.5,106.9z"/>
		<g id="XMLID_101_">
			<g id="XMLID_108_">
				<path id="XMLID_109_" class="st5" d="M118.1,251c-1.6,2.1-4,3.5-6.7,3.8l-56.8,7.8c-2.7,0.4-5.3-0.3-7.5-1.9
					c-2.2-1.6-3.5-4-3.9-6.6l-6.6-47.6c-1.8-13.1,0.8-26.6,7.5-38c6.3-10.7,8.7-23.4,7-35.6L48,110.5c-0.1-1.1,0.6-2,1.6-2.1
					l24.3-3.3c1.1-0.1,2,0.6,2.2,1.6l3.1,22.5c1.7,12.2,7.6,23.8,16.6,32.4c9.6,9.2,15.8,21.5,17.6,34.6l6.6,47.6
					C120.4,246.3,119.7,248.9,118.1,251L118.1,251z M52,111.9l2.9,20.6c1.8,13.1-0.8,26.6-7.5,38c-6.3,10.7-8.7,23.4-7,35.6
					l6.6,47.6c0.2,1.6,1.1,3.1,2.5,4.1c1.3,1,3,1.4,4.7,1.2l56.8-7.7c1.7-0.2,3.1-1.1,4.2-2.4c1-1.3,1.5-3,1.2-4.6l-6.6-47.6
					c-1.7-12.2-7.6-23.8-16.6-32.4c-9.6-9.2-15.8-21.5-17.6-34.6l-2.9-20.6L52,111.9z"/>
			</g>
			<g id="XMLID_106_">
				<path id="XMLID_107_" class="st5" d="M78.5,106.6c-0.9,1.1-2.2,2-3.8,2.2l-24.9,3.4c-3.1,0.4-6-1.8-6.4-4.8l-0.6-4.6
					c-0.4-3.1,1.8-5.9,4.9-6.4L72.6,93c3.1-0.4,6,1.8,6.4,4.8l0.6,4.6C79.8,104,79.4,105.4,78.5,106.6z M46.9,100.9
					c-0.3,0.4-0.4,0.9-0.3,1.4l0.6,4.6c0.2,1,1.1,1.7,2.2,1.6l24.9-3.4c0.5-0.1,1-0.3,1.3-0.7c0.3-0.4,0.4-0.9,0.3-1.4l-0.6-4.6
					c-0.2-1-1.1-1.7-2.2-1.6l-24.9,3.4C47.6,100.2,47.2,100.5,46.9,100.9z"/>
			</g>
			<g id="XMLID_104_">
				<path id="XMLID_105_" class="st5" d="M107.3,230.8c-0.3,0.4-0.8,0.7-1.3,0.7l-52.8,7.2c-0.5,0.1-1,0-1.4-0.3
					c-0.4-0.3-0.7-0.7-0.7-1.2L45.6,197c-0.1-1.1,0.6-2,1.6-2.1l52.8-7.2c0.5-0.1,1,0,1.4,0.3s0.7,0.7,0.7,1.2l5.6,40.1
					C107.8,229.9,107.6,230.4,107.3,230.8z M54.7,234.8l49-6.7l-5.1-36.4l-49,6.7L54.7,234.8z"/>
			</g>
			<g id="XMLID_102_">
				<path id="XMLID_103_" class="st5" d="M95.6,164.4L73.3,182c-0.6,0.4-1.3,0.6-1.9,0.3l-18.2-7.6l1.5-3.5l17.2,7.2l21.5-16.9
					L95.6,164.4z"/>
			</g>
		</g>
		<g id="XMLID_99_">
			<path id="XMLID_100_" class="st5" d="M68.6,88.9C67.8,90,66.5,90.8,65,91l-10.4,1.4c-2.9,0.4-5.7-1.7-6.1-4.6l-1.3-9.5
				c-2.1-0.5-3.8-2.2-4.2-4.5L42,66.3c-0.4-2.9,1.7-5.6,4.6-6L64,57.9c2.9-0.4,5.7,1.7,6.1,4.6l1.1,7.5c0.3,2.3-0.9,4.4-2.8,5.4
				l1.3,9.5C69.9,86.4,69.5,87.8,68.6,88.9z M46,64.6c-0.3,0.3-0.4,0.8-0.3,1.2l1.1,7.5c0.1,0.8,0.9,1.5,1.8,1.4
				c0.5-0.1,1,0,1.4,0.3c0.4,0.3,0.7,0.7,0.7,1.2l1.6,11c0.1,0.8,0.9,1.5,1.8,1.4l10.4-1.4c0.9-0.1,1.5-0.9,1.4-1.8l-1.5-11
				c-0.1-0.5,0.1-1,0.3-1.4c0.3-0.4,0.8-0.7,1.3-0.7c0.9-0.1,1.5-0.9,1.4-1.8L66.3,63c-0.1-0.8-0.9-1.5-1.8-1.4L47.1,64
				C46.7,64.1,46.3,64.3,46,64.6z"/>
		</g>
		<g id="XMLID_97_">
			<path id="XMLID_98_" class="st5" d="M48.6,74.7l10.7-1.5l0.5,3.7l-10.7,1.5L48.6,74.7z"/>
		</g>
		<g>
			<polygon class="st6" points="69.5,212.2 63.9,227.2 70.6,225.7 74.8,231.2 80.3,216.1 			"/>
			<g>
				<path class="st7" d="M72.4,227.3c0.1-0.5-0.1-1-0.6-1.2l-0.5-0.2c-0.5-0.2-0.7-0.7-0.5-1.2c0.2-0.5,0.7-0.7,1.2-0.6l1.3,0.5
					c0.4,0.1,0.9-0.1,1-0.5l0-0.1c0.2-0.4,0-0.8-0.4-1l-3.9-1.4c-0.5-0.2-0.8-0.7-0.6-1.2c0.2-0.5,0.7-0.8,1.2-0.6l3.6,1.3
					c0.4,0.1,0.9-0.1,1-0.5l0-0.1l0,0c0.2-0.4-0.1-0.9-0.5-1l-2-0.7c-0.5-0.2-0.8-0.7-0.6-1.2c0.2-0.5,0.7-0.8,1.2-0.6l2.3,0.8
					c0.4,0.2,0.9-0.1,1-0.5c0,0,0,0,0,0c0,0,0,0,0,0c0.2-0.4,0-0.9-0.4-1l-2.4-0.9c-0.5-0.2-0.8-0.7-0.6-1.2
					c0.2-0.5,0.7-0.8,1.2-0.6l6,2.2l-5.6,15l-2.6-3.4C72.3,227.6,72.4,227.5,72.4,227.3z"/>
				<polygon class="st7" points="83.5,210.3 93,223.3 86.1,223.6 83.6,229.9 74.1,217 				"/>
			</g>
			<path class="st6" d="M84.8,225.6c-0.3-0.4-0.1-1,0.3-1.3l0.4-0.3c0.4-0.3,0.5-0.9,0.2-1.3c-0.3-0.4-0.9-0.5-1.3-0.2l-1.1,0.8
				c-0.4,0.2-0.8,0.2-1.1-0.2l0-0.1c-0.3-0.3-0.2-0.8,0.1-1.1l3.4-2.4c0.4-0.3,0.6-0.9,0.3-1.3c-0.3-0.4-0.9-0.6-1.3-0.2l-3.1,2.2
				c-0.4,0.2-0.8,0.2-1.1-0.2l0,0l0,0c-0.3-0.4-0.2-0.9,0.2-1.1l1.8-1.3c0.4-0.3,0.6-0.9,0.3-1.3c-0.3-0.4-0.9-0.6-1.3-0.2l-2,1.4
				c-0.4,0.3-0.9,0.2-1.1-0.2c0,0,0,0,0,0c0,0,0,0,0,0c-0.3-0.4-0.2-0.9,0.1-1.1l2.1-1.5c0.4-0.3,0.6-0.9,0.3-1.3
				c-0.3-0.4-0.9-0.6-1.3-0.2l-5.2,3.7l9.5,13l1.6-4C85,225.9,84.9,225.8,84.8,225.6z"/>
			<ellipse class="st8" cx="76.2" cy="209" rx="12.7" ry="12.5"/>
			<path class="st9" d="M77.7,207.3l-8,1.1c-0.6,0.1-1.2-0.3-1.3-1l0-0.1l0,0c-0.1-0.6,0.4-1.2,1-1.3l5.5-0.8
				c0.7-0.1,1.3-0.7,1.2-1.5c-0.1-0.8-0.8-1.3-1.5-1.2l-5.8,0.8c-0.6,0.1-1.2-0.4-1.3-1c0,0,0,0,0,0c0,0,0,0,0,0
				c-0.1-0.6,0.3-1.2,1-1.3l6.1-0.8c0.7-0.1,1.3-0.7,1.2-1.4c-0.1-0.8-0.8-1.3-1.5-1.2l-4.5,0.6c-4.3,2.5-6.9,7.4-6.2,12.5
				c0.7,5.2,4.6,9.2,9.4,10.4l5.7-0.8c0.7-0.1,1.3-0.7,1.2-1.4c-0.1-0.8-0.8-1.3-1.5-1.2l-6.5,0.9c-0.8,0.1-1.5-0.4-1.5-1.2
				c-0.1-0.7,0.5-1.3,1.2-1.4l2.5-0.3c0.7-0.1,1.2-0.8,1.1-1.5c-0.1-0.7-0.8-1.2-1.5-1.1l-3.8,0.5c-0.6,0.1-1.2-0.3-1.3-1l0-0.1
				c-0.1-0.6,0.3-1.2,0.9-1.3L78,210c0.7-0.1,1.3-0.7,1.2-1.4C79.1,207.7,78.4,207.2,77.7,207.3z"/>
			<path class="st10" d="M77.4,217.8c-4.9,0.7-9.5-2.8-10.2-7.6s2.8-9.4,7.7-10.1c4.9-0.7,9.5,2.8,10.2,7.6S82.4,217.1,77.4,217.8z"
				/>
			<path class="st11" d="M85.1,207.7c-0.7-4.7-4.9-8.1-9.7-7.7l-0.8,0.1c-0.6,0.1-1,0.6-0.9,1.1c0.1,0.6,0.6,1,1.2,0.9l4.9-0.7
				c0.6-0.1,1.1,0.3,1.2,0.9c0,0.5-0.4,1-0.9,1.1l-1.9,0.3c-0.5,0.1-0.9,0.6-0.9,1.1c0.1,0.6,0.6,0.9,1.2,0.9l2.9-0.4
				c0.5-0.1,0.9,0.3,1,0.7l0,0.1c0.1,0.5-0.2,0.9-0.7,1l-6.4,0.9c-0.6,0.1-1,0.6-0.9,1.1c0.1,0.6,0.6,1,1.2,0.9l6.1-0.8
				c0.5-0.1,0.9,0.3,1,0.7l0,0.1l0,0c0.1,0.5-0.3,0.9-0.8,1l-4.2,0.6c-0.6,0.1-1,0.6-0.9,1.1c0.1,0.6,0.6,1,1.2,0.9l4.5-0.6
				c0.5-0.1,0.9,0.3,1,0.8c0,0,0,0,0,0s0,0,0,0c0.1,0.5-0.2,0.9-0.7,1l-4.7,0.6c-0.6,0.1-1,0.6-0.9,1.1c0.1,0.6,0.6,1,1.2,0.9
				l1.2-0.2C83.2,216,85.7,212,85.1,207.7z"/>
			<path class="st12" d="M82.2,206.1l-4.4,0.6l-1.9-3.9c-0.2-0.5-1-0.4-1.1,0.2l-0.8,4.3l-4.4,0.6c-0.6,0.1-0.7,0.8-0.2,1.1l3.9,2.1
				l-0.8,4.3c-0.1,0.5,0.6,0.9,1,0.5l3.2-3l3.9,2.1c0.5,0.3,1-0.3,0.8-0.8l-1.9-3.9l3.2-3C83,206.7,82.7,206.1,82.2,206.1z"/>
		</g>
	</g>
	<g>
		<g id="XMLID_95_">
			<path id="XMLID_96_" class="st5" d="M97.5,87.8c-1,1-2.5,1-3.5,0c-2.1-2.1-5.6-2.2-7.8-0.1c-1,1-2.5,1-3.5,0s-1-2.5,0-3.5
				c2.2-2.1,2.2-5.5,0.1-7.7c-1-1-1-2.5,0-3.5c1-1,2.5-1,3.5,0c2.1,2.1,5.6,2.2,7.8,0.1c1-1,2.5-1,3.5,0c1,1,1,2.5,0,3.5
				c-2.2,2.1-2.2,5.5-0.1,7.7C98.6,85.3,98.5,86.8,97.5,87.8z M89.3,81.2c0.6-0.1,1.1-0.1,1.7,0c-0.1-0.6-0.1-1.1,0-1.7
				c-0.6,0.1-1.1,0.1-1.7,0C89.4,80.1,89.4,80.7,89.3,81.2z"/>
		</g>
		<g id="XMLID_92_">
			<g id="XMLID_93_">
				<path class="st5" d="M218.5,137.7c-1,1-2.5,1-3.5,0c-2.1-2.1-5.6-2.2-7.8-0.1c-1,1-2.5,1-3.5,0c-1-1-1-2.5,0-3.5l0,0
					c2.1-2.1,2.1-5.5,0-7.6c-1-1-1-2.5,0-3.5s2.5-1,3.5,0c2.1,2.1,5.6,2.2,7.8,0.1c1-1,2.5-1,3.5,0c1,1,1,2.5,0,3.5l0,0
					c-2.1,2.1-2.1,5.5,0,7.6C219.5,135.2,219.5,136.8,218.5,137.7z M210.3,131.2c0.6-0.1,1.1-0.1,1.7,0c-0.1-0.6-0.1-1.1,0-1.7
					c-0.6,0.1-1.1,0.1-1.7,0C210.3,130.1,210.3,130.6,210.3,131.2z"/>
			</g>
		</g>
		<g id="XMLID_71_">
			<path id="XMLID_91_" class="st0" d="M176.1,131.2l0.2-29.7l-32.1-0.1l-0.2,29.7c-0.1,16.8-5.9,33.1-16.4,46.3
				c-10.5,13.2-16.3,29.5-16.4,46.3l-0.4,62.8c0,5.8,4.7,10.6,10.6,10.7l75,0.5c5.9,0,10.7-4.7,10.8-10.5l0.4-62.8
				c0.1-16.8-5.4-33.2-15.8-46.5C181.5,164.4,176,148.1,176.1,131.2L176.1,131.2z"/>
			<path id="XMLID_90_" class="st1" d="M144.2,85.5l-0.2,24.9l15.3,0.1l-0.1,20.7c-0.1,16.8,5.4,33.2,15.8,46.5s15.9,29.7,15.8,46.5
				l-0.4,62.8c0,5.8-4.9,10.5-10.8,10.5l16.8,0.1c5.9,0,10.7-4.7,10.8-10.5l0.4-62.8c0.1-16.8-5.4-33.2-15.8-46.5
				s-15.9-29.7-15.8-46.5l0.1-20.7l0.1-9l0.1-15.9L144.2,85.5z"/>
			<path id="XMLID_89_" class="st2" d="M111.2,223.7l-0.4,62.8c0,5.8,4.7,10.6,10.6,10.7l75,0.5c5.9,0,10.7-4.7,10.8-10.5l0.4-62.8
				c0.1-16.8-5.4-33.2-15.8-46.5l-32.3,18.7l-32-19.1C117,190.6,111.2,206.9,111.2,223.7L111.2,223.7z"/>
			<path id="XMLID_88_" class="st3" d="M190.8,224.2l-0.4,62.8c0,5.8-4.9,10.5-10.8,10.5l16.8,0.1c5.9,0,10.7-4.7,10.8-10.5
				l0.4-62.8c0.1-16.8-5.4-33.2-15.8-46.5l-12,7C187,196.6,190.9,210.3,190.8,224.2L190.8,224.2z"/>
			<path id="XMLID_87_" class="st4" d="M124.6,212.9l69.7,0.5l-0.4,52.9l-69.7-0.5L124.6,212.9z"/>
			<g id="XMLID_85_">
				<path id="XMLID_86_" class="st13" d="M158.1,48l5,0l-0.2,22.7l-5,0L158.1,48z"/>
			</g>
			<g id="XMLID_83_">
				<path id="XMLID_84_" class="st13" d="M131.5,41.3l4.7-1.7l13.2,36.1l-4.7,1.7L131.5,41.3z"/>
			</g>
			<g id="XMLID_81_">
				<path id="XMLID_82_" class="st13" d="M183.3,36.6L188,38l-9,30.1l-4.8-1.4L183.3,36.6z"/>
			</g>
			<g id="XMLID_79_">
				<path id="XMLID_80_" class="st13" d="M182.3,74.9l19.2-17.1l3.3,3.7l-19.2,17.1L182.3,74.9z"/>
			</g>
			<g id="XMLID_77_">
				<path id="XMLID_78_" class="st13" d="M123.4,65.8l11.7,8.7l-3,3.9l-11.7-8.7L123.4,65.8z"/>
			</g>
			<path id="XMLID_76_" class="st0" d="M172.4,2.6l-23-0.1c-2.5,0-4.6,2-4.6,4.5l-0.1,10c0,2.5,2,4.5,4.6,4.6l-0.1,14.5
				c0,2.5,2,4.5,4.6,4.6l13.8,0.1c2.5,0,4.6-2,4.6-4.5l0.1-14.5c2.5,0,4.6-2,4.6-4.5l0.1-10C176.9,4.7,174.9,2.6,172.4,2.6z"/>
			<path id="XMLID_75_" class="st0" d="M84.6,74.8c3.1,3.1,8.2,3.1,11.3,0.1c-3.1,3-3.2,8.1-0.1,11.1c-3.1-3.1-8.2-3.1-11.3-0.1
				C87.6,82.9,87.7,77.9,84.6,74.8z"/>
			<path id="XMLID_74_" class="st1" d="M149.2,21.5l23,0.1l-0.1,8.6l-23-0.1L149.2,21.5z"/>
			<path id="XMLID_73_" class="st0" d="M176.7,101.6l-32.9-0.2c-2.7,0-5-2.2-4.9-4.9l0-6.1c0-2.7,2.3-4.9,5-4.9l32.9,0.2
				c2.7,0,5,2.2,4.9,4.9l0,6.1C181.7,99.4,179.4,101.6,176.7,101.6z"/>
			<path id="XMLID_72_" class="st0" d="M205.5,124.8c3.1,3.1,8.2,3.1,11.3,0.1c-3.1,3-3.2,8.1-0.1,11.1c-3.1-3.1-8.2-3.1-11.3-0.1
				C208.6,132.9,208.6,127.9,205.5,124.8z"/>
		</g>
		<g id="XMLID_47_">
			<g id="XMLID_69_">
				<path id="XMLID_70_" class="st5" d="M205.8,296.3c-2.5,2.5-5.8,3.8-9.4,3.7l-75-0.5c-3.5,0-6.9-1.4-9.3-3.9
					c-2.5-2.5-3.8-5.8-3.8-9.2l0.4-62.8c0.1-17.3,6.1-34.2,16.9-47.8c10.1-12.7,15.7-28.6,15.9-44.8l0.2-29.7c0-1.4,1.1-2.5,2.5-2.5
					l32.1,0.2c1.4,0,2.5,1.1,2.5,2.5l-0.2,29.7c-0.1,16.2,5.3,32.2,15.3,45c10.6,13.7,16.4,30.8,16.3,48l-0.4,62.8
					C209.7,290.5,208.3,293.8,205.8,296.3L205.8,296.3z M146.6,103.9l-0.2,27.1c-0.1,17.3-6.1,34.2-16.9,47.8
					c-10.1,12.7-15.7,28.6-15.9,44.8l-0.4,62.8c0,2.2,0.9,4.2,2.4,5.8c1.5,1.5,3.6,2.4,5.8,2.4l75,0.5c2.2,0,4.3-0.8,5.8-2.4
					c1.6-1.5,2.5-3.6,2.5-5.7l0.4-62.8c0.1-16.2-5.3-32.2-15.3-45c-10.6-13.7-16.4-30.8-16.3-48l0.2-27.1L146.6,103.9z"/>
			</g>
			<g id="XMLID_67_">
				<path id="XMLID_68_" class="st5" d="M181.9,102c-1.3,1.3-3.3,2.1-5.3,2.1l-32.9-0.2c-4.1,0-7.5-3.4-7.4-7.4l0-6.1
					c0-4,3.4-7.4,7.5-7.3l32.9,0.2c4.1,0,7.5,3.4,7.4,7.4l0,6.1C184.2,98.8,183.3,100.6,181.9,102z M142.1,88.7
					c-0.5,0.4-0.7,1.1-0.7,1.7l0,6.1c0,1.4,1.1,2.4,2.5,2.5l32.9,0.2c0.6,0,1.3-0.2,1.8-0.7s0.7-1.1,0.7-1.7l0-6.1
					c0-1.4-1.1-2.4-2.5-2.5L143.8,88C143.2,88,142.6,88.2,142.1,88.7z"/>
			</g>
			<g id="XMLID_65_">
				<path id="XMLID_66_" class="st5" d="M195.7,268.1c-0.5,0.4-1.1,0.7-1.8,0.7l-69.7-0.5c-0.6,0-1.3-0.3-1.8-0.7
					c-0.5-0.5-0.7-1.1-0.7-1.7l0.4-52.9c0-1.4,1.1-2.5,2.5-2.5l69.7,0.5c0.6,0,1.3,0.3,1.8,0.7c0.5,0.5,0.7,1.1,0.7,1.7l-0.4,52.9
					C196.5,267,196.1,267.6,195.7,268.1z M126.8,263.5l64.7,0.4l0.3-48l-64.7-0.4L126.8,263.5z"/>
			</g>
			<g id="XMLID_63_">
				<path id="XMLID_64_" class="st5" d="M193.1,179.9l-32.3,18.7c-0.8,0.4-1.8,0.5-2.5,0l-22.1-13.2l2.6-4.2l20.9,12.5l31-18
					L193.1,179.9z"/>
			</g>
			<g id="XMLID_61_">
				<path id="XMLID_62_" class="st5" d="M158.1,48l5,0l-0.2,22.7l-5,0L158.1,48z"/>
			</g>
			<g id="XMLID_59_">
				<path id="XMLID_60_" class="st5" d="M131.5,41.3l4.7-1.7l13.2,36.1l-4.7,1.7L131.5,41.3z"/>
			</g>
			<g id="XMLID_57_">
				<path id="XMLID_58_" class="st5" d="M183.3,36.6L188,38l-9,30.1l-4.8-1.4L183.3,36.6z"/>
			</g>
			<g id="XMLID_55_">
				<path id="XMLID_56_" class="st5" d="M182.3,74.9l19.2-17.1l3.3,3.7l-19.2,17.1L182.3,74.9z"/>
			</g>
			<g id="XMLID_48_">
				<path id="XMLID_54_" class="st5" d="M123.4,65.8l11.7,8.7l-3,3.9l-11.7-8.7L123.4,65.8z"/>
			</g>
		</g>
		<g id="XMLID_45_">
			<path id="XMLID_46_" class="st5" d="M172.5,41.1c-1.3,1.2-3.1,2-5.1,2l-13.7-0.1c-3.9,0-7.1-3.2-7-7l0.1-12.5
				c-2.7-1-4.6-3.6-4.5-6.6l0.1-10c0-3.8,3.3-7,7.1-6.9l23,0.1c3.9,0,7.1,3.2,7,7l-0.1,10c0,3-1.9,5.6-4.6,6.5l-0.1,12.5
				C174.6,38.1,173.8,39.9,172.5,41.1z M147.9,5.5c-0.4,0.4-0.6,0.9-0.6,1.5l-0.1,10c0,1.1,0.9,2.1,2.1,2.1c0.6,0,1.3,0.3,1.8,0.7
				c0.5,0.5,0.7,1.1,0.7,1.7l-0.1,14.6c0,1.1,0.9,2.1,2.1,2.1l13.8,0.1c1.1,0,2.1-0.9,2.1-2.1l0.1-14.5c0-0.6,0.3-1.3,0.7-1.7
				s1.1-0.7,1.8-0.7c1.1,0,2.1-0.9,2.1-2.1l0.1-10c0-1.1-0.9-2.1-2.1-2.1l-23-0.1C148.8,4.9,148.3,5.1,147.9,5.5z"/>
		</g>
		<g id="XMLID_43_">
			<path id="XMLID_44_" class="st5" d="M149.2,19.1l14.1,0.1l0,4.9L149.2,24L149.2,19.1z"/>
		</g>
		<g id="XMLID_41_">
			<path id="XMLID_42_" class="st5" d="M269.3,60.1l-5,0l0-7.4c0-2.7-0.8-5.3-2.4-7.4c0,2.6-1.1,5.1-2.9,6.9
				c-1.9,1.8-4.4,2.9-7.1,2.8c-2.7,0-5.2-1-7-2.9c-1.9-1.9-2.9-4.4-2.8-7c0-2.6,1.1-5.1,2.9-6.9c1.9-1.8,4.4-2.9,7.1-2.8
				c-2.1-1.6-4.7-2.5-7.5-2.5l-7.5-0.1l0-4.9l7.5,0c4.7,0,9,1.8,12.3,5.1c1.3,1.3,2.3,2.7,3.1,4.3c1.6,0.8,3,1.9,4.3,3.2
				c3.3,3.3,5.1,7.6,5,12.2L269.3,60.1z M248.4,41.7c-1,0.9-1.5,2.1-1.5,3.5c0,1.3,0.5,2.5,1.5,3.5c0.9,0.9,2.2,1.5,3.5,1.5
				c1.3,0,2.6-0.5,3.5-1.4c1-0.9,1.5-2.1,1.5-3.5c0-1.5-0.2-2.9-0.7-4.2c-1.3-0.5-2.8-0.7-4.3-0.8C250.6,40.3,249.3,40.8,248.4,41.7
				z"/>
		</g>
		<g id="XMLID_2_">
			<path id="XMLID_40_" class="st5" d="M30.8,147.4l-7.5-0.5c-6.7-0.4-12.3-4.6-14.9-10.3c-5.4-3.2-8.8-9.2-8.4-15.9l0.5-7.4l5,0.3
				L5,121.1c-0.2,2.8,0.6,5.4,2,7.5c0.4-5.4,5.1-9.5,10.6-9.2c5.5,0.3,9.7,5.1,9.3,10.5c-0.4,5.4-5.1,9.5-10.6,9.2
				c2,1.7,4.5,2.8,7.3,2.9l7.5,0.5L30.8,147.4z M12.5,133.1c1.3,0.6,2.7,0.9,4.2,1c2.7,0.2,5.1-1.9,5.3-4.6c0.2-2.7-1.9-5.1-4.7-5.2
				c-2.7-0.2-5.1,1.9-5.3,4.6C11.9,130.4,12.1,131.8,12.5,133.1z"/>
		</g>
		<g>
			<polygon class="st6" points="150.2,237 140.1,255.4 149.2,254.6 153.5,262.5 163.5,244.1 			"/>
			<g>
				<path class="st7" d="M151.2,257.1c0.3-0.6,0-1.3-0.6-1.6l-0.6-0.3c-0.6-0.3-0.8-1-0.5-1.6c0.3-0.6,1.1-0.8,1.7-0.5l1.6,0.9
					c0.5,0.3,1.1,0.1,1.4-0.4l0-0.1c0.3-0.5,0.1-1.1-0.4-1.3l-4.8-2.6c-0.6-0.3-0.9-1-0.6-1.6c0.3-0.6,1.1-0.9,1.7-0.5l4.5,2.4
					c0.5,0.3,1.1,0.1,1.4-0.4l0-0.1l0,0c0.3-0.5,0.1-1.2-0.4-1.4l-2.5-1.3c-0.6-0.3-0.9-1-0.6-1.6c0.3-0.6,1.1-0.9,1.7-0.5l2.8,1.5
					c0.5,0.3,1.1,0.1,1.4-0.5c0,0,0,0,0,0c0,0,0,0,0,0c0.3-0.5,0.1-1.1-0.4-1.4l-3-1.6c-0.6-0.3-0.9-1-0.6-1.6
					c0.3-0.6,1.1-0.9,1.7-0.5l7.4,3.9l-10.1,18.4l-2.7-4.9C150.9,257.5,151.1,257.3,151.2,257.1z"/>
				<polygon class="st7" points="168.8,237.1 178.6,255.7 169.6,254.8 165.1,262.6 155.3,244 				"/>
			</g>
			<path class="st6" d="M167.5,257.2c-0.3-0.6,0-1.3,0.6-1.6l0.6-0.3c0.6-0.3,0.8-1,0.5-1.6c-0.3-0.6-1.1-0.8-1.6-0.5l-1.6,0.8
				c-0.5,0.3-1.1,0.1-1.4-0.4l0-0.1c-0.3-0.5-0.1-1.1,0.4-1.3l4.8-2.5c0.6-0.3,0.9-1,0.6-1.6c-0.3-0.6-1.1-0.9-1.7-0.6l-4.5,2.3
				c-0.5,0.3-1.1,0.1-1.4-0.4l0-0.1l0,0c-0.3-0.5-0.1-1.2,0.5-1.4l2.5-1.3c0.6-0.3,0.9-1,0.6-1.6c-0.3-0.6-1.1-0.9-1.7-0.6l-2.8,1.4
				c-0.5,0.3-1.1,0-1.4-0.5c0,0,0,0,0,0c0,0,0,0,0,0c-0.3-0.5-0.1-1.1,0.4-1.4l3-1.5c0.6-0.3,0.9-1,0.6-1.6
				c-0.3-0.6-1.1-0.9-1.7-0.6l-7.4,3.8l9.8,18.5l2.8-4.9C167.7,257.6,167.6,257.4,167.5,257.2z"/>
			<ellipse class="st8" cx="159.5" cy="234" rx="16.6" ry="16.4"/>
			<path class="st9" d="M161.8,232.2l-10.5-0.1c-0.8,0-1.5-0.7-1.5-1.5l0-0.1l0,0c0-0.9,0.7-1.5,1.6-1.5l7.3,0c1,0,1.8-0.7,1.9-1.6
				c0.1-1-0.7-1.8-1.8-1.9l-7.7-0.1c-0.9,0-1.5-0.7-1.5-1.6c0,0,0,0,0,0c0,0,0,0,0,0c0-0.8,0.6-1.5,1.5-1.5l8.1,0.1
				c1,0,1.8-0.7,1.9-1.6c0.1-1-0.7-1.8-1.8-1.9l-5.9,0c-6,2.4-10.3,8.2-10.4,15.1s4.2,12.7,10.2,15.2l7.5,0c1,0,1.8-0.7,1.9-1.6
				c0.1-1-0.7-1.8-1.8-1.9l-8.5-0.1c-1,0-1.8-0.8-1.8-1.9c0.1-0.9,0.9-1.6,1.9-1.6l3.3,0c1,0,1.7-0.8,1.7-1.7c0-1-0.8-1.8-1.8-1.8
				l-5,0c-0.8,0-1.5-0.7-1.5-1.5l0-0.1c-0.1-0.8,0.6-1.5,1.4-1.5l11.1,0.1c1,0,1.8-0.7,1.9-1.6C163.6,233,162.8,232.2,161.8,232.2z"
				/>
			<path class="st10" d="M159.4,245.7c-6.5,0-11.8-5.3-11.8-11.8c0-6.4,5.4-11.7,11.9-11.6c6.5,0,11.8,5.3,11.8,11.8
				C171.3,240.6,165.9,245.8,159.4,245.7z"/>
			<path class="st11" d="M171.3,234.1c0-6.2-4.9-11.3-11.1-11.7l-1.1,0c-0.7,0-1.4,0.5-1.4,1.2c0,0.8,0.6,1.4,1.3,1.4l6.5,0
				c0.8,0,1.4,0.6,1.3,1.4c0,0.7-0.7,1.3-1.4,1.3l-2.5,0c-0.7,0-1.3,0.6-1.3,1.3c0,0.7,0.6,1.3,1.3,1.3l3.8,0c0.6,0,1.1,0.5,1.1,1.1
				l0,0.1c0,0.6-0.5,1.1-1.1,1.1l-8.5-0.1c-0.7,0-1.4,0.5-1.4,1.2c0,0.8,0.6,1.4,1.3,1.4l8,0.1c0.6,0,1.1,0.5,1.1,1.1l0,0.1l0,0
				c0,0.6-0.5,1.2-1.2,1.2l-5.6,0c-0.7,0-1.4,0.5-1.4,1.3c0,0.8,0.6,1.4,1.3,1.4l5.9,0c0.6,0,1.1,0.5,1.1,1.2c0,0,0,0,0,0
				c0,0,0,0,0,0c0,0.6-0.5,1.2-1.1,1.2l-6.2,0c-0.7,0-1.4,0.5-1.4,1.2c0,0.8,0.6,1.4,1.3,1.4l1.6,0
				C167.2,244.4,171.3,239.7,171.3,234.1z"/>
			<path class="st12" d="M167.8,231.5l-5.8,0l-1.7-5.4c-0.2-0.7-1.2-0.7-1.5,0l-1.8,5.4l-5.8,0c-0.7,0-1.1,0.9-0.5,1.4l4.6,3.4
				l-1.8,5.4c-0.2,0.7,0.6,1.3,1.2,0.9l4.7-3.3l4.6,3.4c0.6,0.4,1.4-0.1,1.2-0.8l-1.7-5.4l4.7-3.3
				C168.8,232.4,168.5,231.5,167.8,231.5z"/>
		</g>
	</g>
</g>
</svg>
