<?xml version="1.0" encoding="utf-8"?>
<!-- Generator: Adobe Illustrator 25.0.0, SVG Export Plug-In . SVG Version: 6.00 Build 0)  -->
<svg version="1.1" id="Layer_1" xmlns="http://www.w3.org/2000/svg" xmlns:xlink="http://www.w3.org/1999/xlink" x="0px" y="0px"
	 viewBox="0 0 470 300" style="enable-background:new 0 0 470 300;" xml:space="preserve">
<style type="text/css">
	.st0{fill-rule:evenodd;clip-rule:evenodd;fill:#7DDF96;}
	.st1{fill:#0D9353;}
	.st2{fill:#35414D;}
	.st3{fill-rule:evenodd;clip-rule:evenodd;fill:#0D9353;}
</style>
<g>
	<g>
		<path id="_409268072_9_" class="st0" d="M182.4,164.2c-11.5,3.3-25.9,6.5-38.2,7.6c-1.4,0.1-2.8-0.9-3.2-2.5l-26.7-96
			c-1.4-5,5.4-4.4,11-5.4c24.8-4.1,50.1-12.7,74.6-23.5C230.4,30.9,269,18,303.5,10.3c1.5-0.3,3,0.7,3.5,2.4l26.8,96.3
			c0.5,1.8-0.4,3.7-2,4c-35,7.9-73.9,20.9-106,35.1C210.6,154.9,196,160.3,182.4,164.2L182.4,164.2z"/>
		<path id="_409267760_18_" class="st1" d="M271.2,23.3c13.2-3.8,25.4-6.8,35.6-8.9l26.4,95c-10.5,2.1-22.7,5.2-35.9,9
			c-24.4,7-50.2,16-70.7,24.7c-14.2,6-28,10.9-41.1,14.7c-23.2,6.7-38.2,7.9-44.1,8.2l-26.3-94.7c13.4-0.6,30.4-4.7,43-8.4
			c14.4-4.1,29.6-9.5,43-15.1C221.4,39.2,247,30.3,271.2,23.3 M269.4,16.9c-23.7,6.8-49.6,15.8-70.8,24.7
			c-13,5.5-27.9,10.7-42.2,14.9c-18.1,5.2-35.3,8.6-46.4,8.1c-0.3,0-0.6,0-0.8,0.1c-1.4,0.4-2.3,1.8-1.9,3.3l28.5,102.7
			c0.3,1.1,1.3,1.9,2.4,1.9c0.7,0,17.5,0.6,49-8.5v0c13.3-3.8,27.4-8.9,41.9-15c21.1-8.9,46.5-17.7,70-24.4
			c14.5-4.2,28.2-7.5,39.6-9.7c0.1,0,0.2,0,0.2-0.1c1.4-0.4,2.2-1.9,1.9-3.3L312.3,9c-0.4-1.3-1.7-2.1-3-1.9
			C297.9,9.3,284.1,12.7,269.4,16.9L269.4,16.9z M187.4,164.1L187.4,164.1C187.4,164.1,187.4,164.1,187.4,164.1L187.4,164.1z"/>
		<path id="_409267760_17_" class="st2" d="M273.2,17.3c13.9-4,26.8-7.2,37.6-9.3L340,112.8c-11,2.2-24,5.4-37.8,9.4
			c-25.7,7.4-52.9,16.9-74.5,26.2c-15,6.4-29.5,11.7-43.3,15.6c-24.5,7-40.3,8.2-46.5,8.4l-29-104.5c14.2-0.5,32.1-4.8,45.4-8.6
			c15.1-4.4,31.2-10.1,45.3-16.1C220.8,34.1,247.7,24.7,273.2,17.3 M271.3,10.2c-25,7.2-52.3,16.7-74.5,26.2
			c-13.6,5.8-29.4,11.5-44.5,15.8c-19.1,5.5-37.2,9-48.9,8.3c-0.3,0-0.6,0-0.9,0.1c-1.4,0.4-2.4,2-1.9,3.6L132,177.6
			c0.3,1.2,1.4,2.1,2.6,2.2c0.7,0,18.5,0.9,51.7-8.7v0c14-4,28.9-9.4,44.1-15.9c22.2-9.5,49-18.8,73.7-25.9
			c15.3-4.4,29.7-7.9,41.7-10.1c0.1,0,0.2,0,0.3-0.1c1.5-0.4,2.4-2,1.9-3.6L316.5,2.2c-0.4-1.5-1.8-2.4-3.2-2.1
			C301.2,2.2,286.7,5.8,271.3,10.2L271.3,10.2z M186.4,171.1L186.4,171.1C186.4,171.1,186.4,171.1,186.4,171.1L186.4,171.1z"/>
		<g>
			<path id="_409267496_9_" class="st3" d="M289,18c5.4-1.4,10.7-2.8,15.9-4c1.3-0.3,2.5,0.5,2.9,1.7l4.4,15.8
				C299.8,34.4,290.3,24.3,289,18L289,18z"/>
			<path id="_409268120_9_" class="st3" d="M329.2,93l4.4,16c0.4,1.4-0.4,2.8-1.8,3.1c-5.2,1.2-10.5,2.6-15.9,4
				C314.1,110.1,317.6,97,329.2,93L329.2,93z"/>
			<path id="_409267040_9_" class="st3" d="M158.5,165.7c-5.2,1.1-10.5,2.1-15.4,2.6c-1.1,0.1-2.1-0.6-2.4-1.7l-4.2-15
				C142.4,149.8,155.7,153.2,158.5,165.7L158.5,165.7z"/>
			<path id="_409266752_9_" class="st3" d="M119.1,89l-4.3-15.6c-1-3.7,4.6-3.4,9.2-4.3c2.7-0.5,5.4-1,8.1-1.6
				C133.5,76.9,128.1,85.9,119.1,89L119.1,89z"/>
		</g>
		<path id="_409266968_9_" class="st3" d="M237.8,137.1c-24.5,7-50.1-7.4-57-32.3c-6.9-24.8,7.4-50.8,31.9-57.8
			c24.5-7,50.1,7.4,57,32.3C276.6,104.1,262.3,130.1,237.8,137.1L237.8,137.1z"/>
		
			<ellipse transform="matrix(5.862309e-02 -0.9983 0.9983 5.862309e-02 36.3455 263.566)" class="st1" cx="157.9" cy="112.5" rx="11.2" ry="11.1"/>
		
			<ellipse transform="matrix(5.863318e-02 -0.9983 0.9983 5.863318e-02 203.1047 362.311)" class="st1" cx="293.7" cy="73.5" rx="11.2" ry="11.1"/>
		<g>
			<path id="_409266824_9_" class="st0" d="M231.1,113c-10.9,3.1-19-10.4-13-12.1c1.5-0.4,3.1,0.5,3.5,2c2.3,8.2,14.7,4.7,12.4-3.6
				c-3-10.6-18.4,3.2-22.9-13c-4.3-15.6,19.1-22.3,23.4-6.7c1,3.7-4.5,5.3-5.5,1.6c-2.3-8.2-14.7-4.7-12.4,3.6
				c3,10.6,18.4-3.2,22.9,13C241.3,104.3,237.6,111.1,231.1,113L231.1,113z"/>
			<path id="_409267328_9_" class="st0" d="M221,76.7c-3.5,1-4-3.6-4.9-6.8c-1-3.7,4.5-5.3,5.5-1.6C222.6,71.5,224.6,75.7,221,76.7z
				"/>
			<path id="_409266872_9_" class="st0" d="M232.5,117.8c-3.5,1-4-3.6-4.9-6.8c-1-3.7,4.5-5.3,5.5-1.6
				C234,112.6,236,116.8,232.5,117.8z"/>
		</g>
	</g>
	<g>
		<path id="_409268072_1_" class="st0" d="M76.8,287.1c-11.9,2.6-26.7,4.9-39.2,5.3c-1.4,0-2.7-1.1-3.1-2.7l-21.1-99
			c-1.1-5.2,5.7-4.1,11.5-4.7c25.4-2.5,51.5-9.6,77-19c31.9-11.8,71.8-22.4,107.2-28c1.5-0.2,3,0.9,3.4,2.7l21.1,99.3
			c0.4,1.9-0.6,3.7-2.3,4c-36,5.8-76.2,16.4-109.6,28.7C105.9,279.4,90.8,284,76.8,287.1L76.8,287.1z"/>
		<path id="_409267760_2_" class="st1" d="M175.6,150c13.6-3,26.2-5.3,36.7-6.7l20.8,97.9c-10.7,1.5-23.4,3.8-36.9,6.8
			c-25.2,5.5-51.8,13-73.2,20.5c-14.8,5.2-29.1,9.3-42.6,12.2c-23.9,5.3-39.2,5.6-45.2,5.4l-20.8-97.6c13.7,0.3,31.1-2.8,44.1-5.7
			c14.8-3.3,30.6-7.7,44.5-12.6C124.1,162.9,150.6,155.5,175.6,150 M174.2,143.4c-24.5,5.4-51.2,12.8-73.3,20.5
			c-13.5,4.7-28.9,9.1-43.7,12.4c-18.7,4.1-36.3,6.4-47.5,5.3c-0.3,0-0.6,0-0.9,0c-1.4,0.3-2.4,1.7-2.1,3.2l22.5,105.9
			c0.2,1.1,1.2,2,2.3,2.1c0.7,0.1,17.7,1.7,50.2-5.4l0,0c13.7-3,28.3-7.2,43.3-12.5c21.9-7.6,48.3-14.9,72.4-20.2
			c14.9-3.3,29-5.8,40.7-7.3c0.1,0,0.2,0,0.3,0c1.4-0.3,2.4-1.8,2.1-3.2l-22.5-105.9c-0.3-1.4-1.6-2.3-3-2.1
			C203.5,137.5,189.3,140,174.2,143.4L174.2,143.4z M81.9,287.3L81.9,287.3C81.9,287.3,81.9,287.3,81.9,287.3L81.9,287.3z"/>
		<path id="_409267760_1_" class="st2" d="M178,144c14.3-3.2,27.6-5.6,38.7-7l23,108c-11.3,1.5-24.6,4-38.9,7.1
			c-26.5,5.8-54.6,13.8-77.1,21.8c-15.6,5.5-30.6,9.9-44.8,13c-25.2,5.6-41.3,5.8-47.6,5.5L8.3,184.8c14.4,0.4,32.8-2.8,46.5-5.8
			c15.6-3.4,32.3-8.2,46.9-13.4C123.8,157.7,151.6,149.8,178,144 M176.4,136.7c-25.8,5.7-54,13.5-77.2,21.8
			c-14.2,5-30.5,9.7-46,13.1c-19.7,4.3-38.2,6.7-50.1,5.3c-0.3,0-0.6,0-0.9,0c-1.5,0.3-2.5,1.9-2.2,3.5l24.9,116.8
			c0.3,1.3,1.3,2.2,2.5,2.3c0.7,0.1,18.7,2.1,53-5.4l0,0c14.5-3.2,29.8-7.7,45.7-13.3c23-8.2,50.8-15.9,76.3-21.5
			c15.7-3.5,30.6-6.1,42.9-7.6c0.1,0,0.2,0,0.3,0c1.5-0.3,2.5-1.9,2.2-3.5l-24.9-116.8c-0.3-1.5-1.7-2.5-3.1-2.3
			C207.3,130.6,192.3,133.2,176.4,136.7L176.4,136.7z M80.4,294.2L80.4,294.2C80.4,294.2,80.4,294.2,80.4,294.2L80.4,294.2z"/>
		<g>
			<path id="_409267496_1_" class="st3" d="M193.9,145.7c5.5-1.1,11-2.1,16.4-3c1.3-0.2,2.5,0.6,2.8,1.9l3.5,16.3
				C203.9,163.1,194.9,152.2,193.9,145.7L193.9,145.7z"/>
			<path id="_409268120_1_" class="st3" d="M230,224.3l3.5,16.5c0.3,1.4-0.6,2.8-2,3c-5.4,0.9-10.8,1.9-16.3,3
				C213.7,240.7,218,227.6,230,224.3L230,224.3z"/>
			<path id="_409267040_1_" class="st3" d="M52.5,287.1c-5.4,0.8-10.8,1.4-15.8,1.7c-1.1,0.1-2.1-0.7-2.4-1.8L31,271.4
				C37.1,269.8,50.5,274.2,52.5,287.1L52.5,287.1z"/>
			<path id="_409266752_1_" class="st3" d="M17.4,206.7L14,190.6c-0.8-3.8,4.8-3.2,9.6-3.7c2.8-0.3,5.6-0.7,8.4-1.1
				C32.7,195.4,26.6,204.2,17.4,206.7L17.4,206.7z"/>
		</g>
		<path id="_409266968_1_" class="st3" d="M134.6,263.2c-25.3,5.6-50.3-10.8-55.7-36.4s10.7-51,35.9-56.6
			c25.3-5.6,50.3,10.7,55.7,36.4C176,232.2,159.9,257.6,134.6,263.2L134.6,263.2z"/>
		
			<ellipse transform="matrix(4.701039e-02 -0.9989 0.9989 4.701039e-02 -180.189 277.2833)" class="st1" cx="55.2" cy="233.1" rx="11.4" ry="11.2"/>
		
			<ellipse transform="matrix(4.701794e-02 -0.9989 0.9989 4.701794e-02 -16.015 387.7095)" class="st1" cx="195.2" cy="202.2" rx="11.4" ry="11.2"/>
		<g>
			<path id="_409266824_1_" class="st0" d="M129.4,238.2c-11.3,2.5-18.6-11.7-12.4-13.1c1.6-0.3,3.1,0.7,3.5,2.3
				c1.8,8.5,14.6,5.7,12.7-2.8c-2.3-11-18.9,2-22.4-14.6c-3.4-16.1,20.7-21.4,24.1-5.3c0.8,3.8-4.9,5-5.7,1.3
				c-1.8-8.5-14.6-5.7-12.7,2.8c2.3,11,18.9-2,22.4,14.6C140.3,230.1,136,236.8,129.4,238.2L129.4,238.2z"/>
			<path id="_409267328_1_" class="st0" d="M121.4,200.9c-3.6,0.8-3.8-3.9-4.5-7.2c-0.8-3.8,4.9-5,5.7-1.3
				C123.3,195.7,125,200.1,121.4,200.9z"/>
			<path id="_409266872_1_" class="st0" d="M130.4,243.2c-3.6,0.8-3.8-3.9-4.5-7.2c-0.8-3.8,4.9-5,5.7-1.3
				C132.3,238,134,242.4,130.4,243.2z"/>
		</g>
	</g>
	<g>
		<path id="_409268072_10_" class="st0" d="M272.5,236.4c-11.6-3.2-25.6-8-36.8-13.4c-1.3-0.6-1.9-2.2-1.5-3.8l25.5-96.6
			c1.3-5.1,6.9-1,12.2,1.1c23.4,9.5,49.5,15.3,76.1,18.8c33.2,4.3,73,13.4,106.5,24.8c1.5,0.5,2.2,2.2,1.8,3.9l-25.6,96.9
			c-0.5,1.8-2.2,3-3.8,2.4c-34.2-11.5-74.2-20.7-109-25.2C301.5,243.2,286.2,240.2,272.5,236.4L272.5,236.4z"/>
		<path id="_409267760_20_" class="st1" d="M420.2,161.6c13.3,3.6,25.3,7.4,35.2,11l-25.3,95.6c-10.1-3.6-22.2-7.4-35.4-11
			c-24.6-6.7-51.3-12.5-73.4-15.7c-15.3-2.3-29.7-5.3-42.8-8.9c-23.4-6.4-36.9-13.1-42.1-16l25.2-95.3c11.9,6.5,28.6,11.8,41.3,15.3
			c14.5,4,30.3,7.3,44.7,9.4C369.4,149.2,395.8,154.9,420.2,161.6 M422,155.1c-23.9-6.5-50.7-12.4-73.4-15.8
			c-13.9-2.1-29.4-5.3-43.9-9.3c-18.2-5-34.7-11.1-44-17.3c-0.2-0.2-0.5-0.3-0.8-0.4c-1.4-0.4-2.9,0.4-3.3,1.9l-27.3,103.3
			c-0.3,1.1,0.2,2.3,1.1,2.9c0.6,0.4,14.7,9.7,46.5,18.4l0,0c13.4,3.7,28.1,6.7,43.6,9c22.6,3.4,49,9.1,72.6,15.6
			c14.6,4,28.1,8.2,39,12.4c0.1,0,0.2,0.1,0.2,0.1c1.4,0.4,2.9-0.4,3.3-1.9l27.3-103.3c0.4-1.3-0.4-2.7-1.7-3.2
			C450.3,163.4,436.7,159.1,422,155.1L422,155.1z M276.9,238.9L276.9,238.9C276.9,238.9,276.9,238.9,276.9,238.9L276.9,238.9z"/>
		<path id="_409267760_19_" class="st2" d="M425,157.5c14,3.8,26.7,7.8,37.1,11.6l-27.9,105.4c-10.6-3.9-23.4-7.9-37.3-11.7
			c-25.9-7.1-54.1-13.1-77.4-16.4c-16.1-2.3-31.3-5.4-45.2-9.2c-24.6-6.7-38.8-14-44.3-17.1l27.8-105.1c12.5,7,30.1,12.7,43.4,16.3
			c15.2,4.2,32,7.7,47.1,9.8C371.3,144.5,399.3,150.4,425,157.5 M426.9,150.3c-25.2-6.9-53.4-13-77.4-16.4
			c-14.7-2.1-31.1-5.5-46.3-9.7c-19.2-5.3-36.6-11.7-46.3-18.4c-0.3-0.2-0.5-0.3-0.8-0.4c-1.4-0.4-3,0.5-3.5,2.1l-30.2,114
			c-0.3,1.2,0.1,2.5,1.1,3.2c0.6,0.4,15.5,10.5,48.9,19.6l0,0c14.1,3.9,29.6,7,46,9.4c23.9,3.4,51.7,9.4,76.5,16.2
			c15.3,4.2,29.6,8.7,41,13.1c0.1,0,0.2,0.1,0.3,0.1c1.5,0.4,3.1-0.5,3.5-2.1l30.2-114c0.4-1.5-0.4-3-1.7-3.5
			C456.7,159.1,442.4,154.6,426.9,150.3L426.9,150.3z M272.5,244.4L272.5,244.4C272.5,244.4,272.5,244.4,272.5,244.4L272.5,244.4z"
			/>
		<g>
			<path id="_409267496_10_" class="st3" d="M438.2,166.3c5.4,1.6,10.6,3.2,15.7,4.9c1.2,0.4,1.9,1.7,1.6,3l-4.2,15.9
				C439.2,186.1,436.2,172.4,438.2,166.3L438.2,166.3z"/>
			<path id="_409268120_10_" class="st3" d="M434.9,251.9l-4.3,16.1c-0.4,1.4-1.8,2.2-3.1,1.7c-5.1-1.7-10.3-3.3-15.7-4.9
				C413.3,258.7,422.9,249.2,434.9,251.9L434.9,251.9z"/>
			<path id="_409267040_10_" class="st3" d="M251.2,225.2c-5.1-1.8-10.1-3.7-14.6-5.8c-1-0.5-1.6-1.6-1.3-2.7l4-15.1
				C245.4,203,255.1,213,251.2,225.2L251.2,225.2z"/>
			<path id="_409266752_10_" class="st3" d="M256.1,138.6l4.2-15.7c1-3.7,5.7-0.6,10.1,1.2c2.6,1,5.2,2,7.8,2.9
				C274.6,135.7,265.3,140.6,256.1,138.6L256.1,138.6z"/>
		</g>
		<path id="_409266968_10_" class="st3" d="M333.9,242.1c-24.7-6.7-39.3-32.6-32.7-57.6s32.1-39.9,56.7-33.1
			c24.7,6.7,39.3,32.6,32.7,57.6C384,234,358.6,248.8,333.9,242.1L333.9,242.1z"/>
		
			<ellipse transform="matrix(0.9984 -5.634880e-02 5.634880e-02 0.9984 -9.6514 15.9265)" class="st1" cx="277.6" cy="179.1" rx="11.1" ry="11.3"/>
		
			<ellipse transform="matrix(0.9984 -5.636299e-02 5.636299e-02 0.9984 -11.5435 23.6889)" class="st1" cx="414.2" cy="216.5" rx="11.1" ry="11.3"/>
		<g>
			<path id="_409266824_10_" class="st0" d="M340.4,217.8c-11-3-11.2-18.9-5.1-17.2c1.5,0.4,2.4,2,2,3.6
				c-2.2,8.3,10.2,11.7,12.4,3.4c2.8-10.7-17.5-6.9-13.2-23.2c4.2-15.7,27.7-9.3,23.5,6.4c-1,3.7-6.5,2.2-5.6-1.5
				c2.2-8.3-10.2-11.7-12.4-3.4c-2.8,10.7,17.5,6.9,13.2,23.2C353.6,215.6,346.9,219.6,340.4,217.8L340.4,217.8z"/>
			<path id="_409267328_10_" class="st0" d="M350,181.3c-3.5-1-1.6-5.2-0.7-8.4c1-3.7,6.5-2.2,5.6,1.5
				C354,177.6,353.6,182.3,350,181.3z"/>
			<path id="_409266872_10_" class="st0" d="M339.1,222.6c-3.5-1-1.6-5.2-0.7-8.4c1-3.7,6.5-2.2,5.6,1.5
				C343,218.9,342.6,223.6,339.1,222.6z"/>
		</g>
	</g>
</g>
</svg>
