<?xml version="1.0" encoding="utf-8"?>
<!-- Generator: Adobe Illustrator 25.0.0, SVG Export Plug-In . SVG Version: 6.00 Build 0)  -->
<svg version="1.1" id="Layer_1" xmlns="http://www.w3.org/2000/svg" xmlns:xlink="http://www.w3.org/1999/xlink" x="0px" y="0px"
	 viewBox="0 0 447.6 300" style="enable-background:new 0 0 447.6 300;" xml:space="preserve">
<style type="text/css">
	.st0{fill:#FFA436;}
	.st1{fill:#FFBC2B;}
	.st2{fill:#8AE7FF;}
	.st3{fill:#BDF1FF;}
	.st4{fill:#FFFFFF;}
	.st5{fill:#FFCF66;}
	.st6{fill:#35414D;}
	.st7{fill:#CBCBCB;}
	.st8{fill:#E6E6E6;}
	.st9{fill:#FC5F61;}
	.st10{fill:#FF6666;}
</style>
<g>
	<g>
		<g id="g1654_5_" transform="translate(474.5,422)">
			<g id="path1656_5_">
				<path class="st0" d="M-298.2-368.5h-11.2v29.3h22.3v-19.5C-287.1-364.1-292.1-368.5-298.2-368.5"/>
			</g>
		</g>
		<g id="g1658_5_" transform="translate(474.5,392)">
			<g id="path1660_5_">
				<path class="st1" d="M-298.2-328.7l-33.5,39H-472v-58.5c0-5.4,5-9.8,11.2-9.8h54.4c3,0,5.8,1,7.9,2.9l19.1,16.6h70.1
					C-303.2-338.5-298.2-334.1-298.2-328.7"/>
			</g>
		</g>
		<g id="g1662_5_" transform="translate(444.5,392)">
			<g id="path1664_5_">
				<path class="st2" d="M-279.4-328.7l-22.3,24.4h33.5v-24.4H-279.4z"/>
			</g>
		</g>
		<g id="g1666_5_" transform="translate(444.5,392)">
			<g id="path1668_5_">
				<path class="st3" d="M-279.4-328.7v48.8l-151.4-39v-9.8H-279.4z"/>
			</g>
		</g>
		<g id="path1670_5_">
			<path class="st4" d="M13.7,102.3h108.3V73H13.7V102.3z"/>
		</g>
		<g id="g1672_5_" transform="translate(474.5,362)">
			<g id="path1674_5_">
				<path class="st1" d="M-298.2-294.7l-11.2,8.3v83.8h11.2c6.2,0,11.2-3.7,11.2-8.3v-75.5C-287.1-291-292.1-294.7-298.2-294.7"/>
			</g>
		</g>
		<g id="g1676_5_" transform="translate(474.5,362)">
			<g id="path1678_5_">
				<path class="st5" d="M-298.2-294.7v83.8c0,4.6-5,8.3-11.2,8.3h-151.4c-6.2,0-11.2-3.7-11.2-8.3v-58.8c0-4.6,5-8.3,11.2-8.3h81.3
					l19.1-14.2c2.1-1.6,4.9-2.4,7.9-2.4H-298.2z"/>
			</g>
		</g>
		<g id="g1680_5_" transform="translate(37.5,302)">
			<g id="path1682_5_">
				<path class="st6" d="M-23.8-206.9c-1.4,0-2.6-1.2-2.6-2.6v-29.3c0-1.4,1.2-2.6,2.6-2.6h162.6c1.4,0,2.6,1.2,2.6,2.6v9.8
					c0,1.4-1.2,2.6-2.6,2.6s-2.6-1.2-2.6-2.6v-7.1H-21.2v26.6C-21.2-208-22.4-206.9-23.8-206.9z"/>
			</g>
		</g>
		<g id="g1684_5_" transform="translate(474.5,30)">
			<g id="path1686_5_">
				<path class="st6" d="M-298.2,131.9h-162.6c-7.5,0-13.6-4.8-13.6-10.7V12.3c0-5.9,6.1-10.7,13.6-10.7h54.4c3.5,0,6.8,1,9.3,2.9
					l18.4,13.7h80.5c7.5,0,13.6,4.8,13.6,10.7v92.1C-284.7,127-290.8,131.9-298.2,131.9z M-460.8,6.4c-4.7,0-8.8,2.7-8.8,5.9v108.8
					c0,3.2,4,5.9,8.8,5.9h162.6c4.7,0,8.8-2.7,8.8-5.9V29c0-3.2-4-5.9-8.8-5.9h-81.3c-0.5,0-1-0.2-1.4-0.5L-400,8.4
					c-1.7-1.2-4-2-6.5-2H-460.8z"/>
			</g>
		</g>
		<g id="g1688_5_" transform="translate(328.4268,362)">
			<g id="path1690_5_">
				<path class="st6" d="M-325.9-257.2c-1.4,0-2.5-1.1-2.5-2.5c0-6.8,6.1-12.3,13.7-12.3h80.4l18.3-16c2.6-2.2,6-3.5,9.5-3.5
					c1.4,0,2.5,1.1,2.5,2.5c0,1.4-1.1,2.5-2.5,2.5c-2.3,0-4.6,0.8-6.2,2.2l-19.1,16.6c-0.5,0.4-1,0.6-1.6,0.6h-81.3
					c-4.8,0-8.7,3.3-8.7,7.3C-323.4-258.4-324.5-257.2-325.9-257.2z"/>
			</g>
		</g>
		<g id="g1692_5_" transform="translate(67.5,362)">
			<g id="path1694_5_">
				<path class="st6" d="M-42.7-286.4h-11.2c-1.4,0-2.6-1.2-2.6-2.6s1.2-2.6,2.6-2.6h11.2c1.4,0,2.6,1.2,2.6,2.6
					S-41.2-286.4-42.7-286.4z"/>
			</g>
		</g>
		<g id="g1696_5_" transform="translate(504.5,332)">
			<g id="path1698_5_">
				<path class="st6" d="M-317.1-246.7c-1.4,0-2.5-1.1-2.5-2.5c0-4-3.9-7.3-8.7-7.3h-140.3c-1.4,0-2.5-1.1-2.5-2.5
					c0-1.4,1.1-2.5,2.5-2.5h140.3c7.5,0,13.7,5.5,13.7,12.3C-314.6-247.9-315.7-246.7-317.1-246.7z"/>
			</g>
		</g>
	</g>
	<g>
		<g id="g1654_4_" transform="translate(474.5,422)">
			<g id="path1656_4_">
				<path class="st0" d="M-41.5-336.6h-11.9v31.2h23.8v-20.8C-29.6-331.9-34.9-336.6-41.5-336.6"/>
			</g>
		</g>
		<g id="g1658_4_" transform="translate(474.5,392)">
			<g id="path1660_4_">
				<path class="st1" d="M-41.5-295.3l-35.7,41.6h-149.7v-62.4c0-5.7,5.3-10.4,11.9-10.4h58c3.2,0,6.2,1.1,8.4,3l20.3,17.8h74.8
					C-46.8-305.7-41.5-301-41.5-295.3"/>
			</g>
		</g>
		<g id="g1662_4_" transform="translate(444.5,392)">
			<g id="path1664_4_">
				<path class="st2" d="M-23.4-295.3l-23.8,26h35.7v-26H-23.4z"/>
			</g>
		</g>
		<g id="g1666_4_" transform="translate(444.5,392)">
			<g id="path1668_4_">
				<path class="st3" d="M-23.4-295.3v52L-185-284.9v-10.4H-23.4z"/>
			</g>
		</g>
		<g id="path1670_4_">
			<path class="st4" d="M259.5,138.3H375v-31.2H259.5V138.3z"/>
		</g>
		<g id="g1672_4_" transform="translate(474.5,362)">
			<g id="path1674_4_">
				<path class="st1" d="M-41.5-261l-11.9,8.9v89.4h11.9c6.6,0,11.9-4,11.9-8.9v-80.5C-29.6-257-34.9-261-41.5-261"/>
			</g>
		</g>
		<g id="g1680_4_" transform="translate(37.5,302)">
			<g id="path1682_4_">
				<path class="st6" d="M222-171.3c-1.5,0-2.8-1.2-2.8-2.8v-31.2c0-1.5,1.2-2.8,2.8-2.8h173.5c1.5,0,2.8,1.2,2.8,2.8v10.4
					c0,1.5-1.2,2.8-2.8,2.8c-1.5,0-2.8-1.2-2.8-2.8v-7.6H224.8v28.4C224.8-172.5,223.6-171.3,222-171.3z"/>
			</g>
		</g>
		<g id="g1684_4_" transform="translate(474.5,30)">
			<g id="path1686_4_">
				<path class="st6" d="M-41.5,171.9H-215c-8,0-14.5-5.1-14.5-11.5V44.4c0-6.3,6.5-11.5,14.5-11.5h58c3.7,0,7.3,1.1,10,3.1
					l19.6,14.7h85.9c8,0,14.5,5.1,14.5,11.5v98.3C-27,166.8-33.5,171.9-41.5,171.9z M-215,38.1c-5.1,0-9.3,2.9-9.3,6.3v116.1
					c0,3.4,4.3,6.3,9.3,6.3h173.5c5.1,0,9.3-2.9,9.3-6.3V62.2c0-3.4-4.3-6.3-9.3-6.3h-86.8c-0.6,0-1.1-0.2-1.5-0.5l-20.3-15.2
					c-1.8-1.3-4.3-2.1-6.9-2.1H-215z"/>
			</g>
		</g>
		<g id="g1692_4_" transform="translate(67.5,362)">
			<g id="path1694_4_">
				<path d="M203.9-252.1H192c-1.5,0-2.8-1.2-2.8-2.8c0-1.5,1.2-2.8,2.8-2.8h11.9c1.5,0,2.8,1.2,2.8,2.8
					C206.7-253.3,205.5-252.1,203.9-252.1z"/>
			</g>
		</g>
		<g id="path6998_1_">
			<path class="st7" d="M427.6,34.6H300.7v69.1h126.9V34.6z"/>
		</g>
		<g id="path7000_1_">
			<path class="st7" d="M407.2,3.2H280.3v107.4h126.9V3.2z"/>
		</g>
		<g id="path7002_1_">
			<path class="st8" d="M382.4,34.6H255.5v100.4h126.9V34.6z"/>
		</g>
		<g id="g7016_1_" transform="translate(363.4502,357.3901)">
			<g id="path7018_1_">
				<path class="st6" d="M-107.9-266.5c-1.8,0-3.2-1.4-3.2-3.2v-53.1c0-1.8,1.4-3.2,3.2-3.2H19c1.8,0,3.2,1.4,3.2,3.2v29.8
					c0,1.8-1.4,3.2-3.2,3.2c-1.8,0-3.2-1.4-3.2-3.2v-26.6h-120.5v50C-104.7-267.9-106.2-266.5-107.9-266.5z"/>
			</g>
		</g>
		<g id="g7020_1_" transform="translate(411.7202,356.6299)">
			<g id="path7022_1_">
				<path class="st6" d="M-4.6-288.8c-1.8,0-3.2-1.4-3.2-3.2v-58.3h-120.6v28.2c0,1.8-1.4,3.2-3.2,3.2c-1.8,0-3.2-1.4-3.2-3.2v-31.4
					c0-1.8,1.4-3.2,3.2-3.2H-4.6c1.8,0,3.2,1.4,3.2,3.2v61.5C-1.4-290.2-2.8-288.8-4.6-288.8z"/>
			</g>
		</g>
		<g id="g7028_1_" transform="translate(411.7202,427.8901)">
			<g id="path7030_1_">
				<path class="st6" d="M15.9-324.9c-1.8,0-3.2-1.4-3.2-3.2v-62H-4.6c-1.8,0-3.2-1.4-3.2-3.2c0-1.8,1.4-3.2,3.2-3.2h20.4
					c1.8,0,3.2,1.4,3.2,3.2v65.2C19-326.4,17.6-324.9,15.9-324.9z"/>
			</g>
		</g>
		<g id="g7032_1_" transform="translate(110.5005,388.8896)">
			<g id="path7034_1_">
				<path class="st6" d="M242.8-334.7h-76.1c-1.8,0-3.2-1.4-3.2-3.2c0-1.8,1.4-3.2,3.2-3.2h76.1c1.8,0,3.2,1.4,3.2,3.2
					C246-336.1,244.5-334.7,242.8-334.7z"/>
			</g>
		</g>
		<g id="g7036_5_" transform="translate(110.5005,351.3916)">
			<g id="path7038_5_">
				<path class="st6" d="M210.2-281.4h-43.6c-1.8,0-3.2-1.4-3.2-3.2c0-1.8,1.4-3.2,3.2-3.2h43.6c1.8,0,3.2,1.4,3.2,3.2
					C213.4-282.8,212-281.4,210.2-281.4z"/>
			</g>
		</g>
		<g id="g7036_4_" transform="translate(110.5005,351.3916)">
			<g id="path7038_4_">
				<path class="st6" d="M203.2-263.7h-36.5c-1.6,0-2.9-1.3-2.9-2.9s1.3-2.9,2.9-2.9h36.5c1.6,0,2.9,1.3,2.9,2.9
					S204.8-263.7,203.2-263.7z"/>
			</g>
		</g>
		<g id="g7036_3_" transform="translate(110.5005,351.3916)">
			<g id="path7038_3_">
				<path class="st6" d="M197.1-246.9h-30.4c-1.5,0-2.6-1.2-2.6-2.6c0-1.5,1.2-2.6,2.6-2.6h30.4c1.5,0,2.6,1.2,2.6,2.6
					C199.7-248,198.5-246.9,197.1-246.9z"/>
			</g>
		</g>
		<g id="g1676_4_" transform="translate(474.5,362)">
			<g id="path1678_4_">
				<path class="st5" d="M-41.5-261v87.1c0,4.8-5.3,8.7-11.7,8.7h-159.4c-8.3,0-12.3-0.6-11.7-8.7V-235c0-4.8,5.3-8.7,11.7-8.7h85.6
					l20.1-14.8c2.2-1.6,5.2-2.5,8.3-2.5H-41.5z"/>
			</g>
		</g>
		<g id="g1688_4_" transform="translate(328.4268,362)">
			<g id="path1690_4_">
				<path class="st6" d="M-80.8-221c-1.5,0-2.7-1.2-2.7-2.7c0-7.2,6.5-13.1,14.6-13.1h85.7l19.6-17.1c2.7-2.4,6.3-3.7,10.2-3.7
					c1.5,0,2.7,1.2,2.7,2.7c0,1.5-1.2,2.7-2.7,2.7c-2.5,0-4.9,0.9-6.7,2.4l-20.3,17.8c-0.5,0.4-1.1,0.7-1.8,0.7h-86.7
					c-5.1,0-9.2,3.5-9.2,7.7C-78.1-222.2-79.3-221-80.8-221z"/>
			</g>
		</g>
		<g id="g1696_4_" transform="translate(504.5,332)">
			<g id="path1698_4_">
				<g>
					<path class="st6" d="M-58.1-211.8c-0.7,0-1.2-1.2-1.2-2.7c0-4.3-1.8-7.7-4.1-7.7H-130c-0.7,0-1.2-1.2-1.2-2.7
						c0-1.5,0.5-2.7,1.2-2.7h66.6c3.6,0,6.5,5.9,6.5,13.1C-56.9-213-57.4-211.8-58.1-211.8z"/>
				</g>
			</g>
		</g>
		<g id="path7040_3_">
			<path class="st9" d="M426.9,188h-45.3v-16.1h45.3V188z"/>
			<path class="st6" d="M426.9,190.2h-45.3c-1.2,0-2.2-1-2.2-2.2v-16.1c0-1.2,1-2.2,2.2-2.2h45.3c1.2,0,2.2,1,2.2,2.2V188
				C429.1,189.2,428.1,190.2,426.9,190.2z M383.7,185.8h41v-11.7h-41V185.8z"/>
		</g>
	</g>
	<g>
		<g>
			<g id="g1654_3_" transform="translate(474.5,422)">
				<g id="path1656_3_">
					<path class="st0" d="M-157.9-272.8h-15.5v40.7h31.1v-27.1C-142.3-266.7-149.3-272.8-157.9-272.8"/>
				</g>
			</g>
			<g id="g1658_3_" transform="translate(474.5,392)">
				<g id="path1660_3_">
					<path class="st1" d="M-157.9-229.2l-46.6,54.3h-195.2v-81.4c0-7.5,7-13.6,15.5-13.6h75.6c4.1,0,8.1,1.4,11,4l26.5,23.2h97.6
						C-164.8-242.8-157.9-236.7-157.9-229.2"/>
				</g>
			</g>
			<g id="g1662_3_" transform="translate(444.5,392)">
				<g id="path1664_3_">
					<path class="st2" d="M-143.4-229.2l-31.1,33.9h46.6v-33.9H-143.4z"/>
				</g>
			</g>
			<g id="g1666_3_" transform="translate(444.5,392)">
				<g id="path1668_3_">
					<path class="st3" d="M-143.4-229.2v67.9l-210.7-54.3v-13.6H-143.4z"/>
				</g>
			</g>
			<g id="path1670_3_">
				<path class="st4" d="M90.4,217.1H241v-40.7H90.4V217.1z"/>
			</g>
			<g id="g1672_3_" transform="translate(474.5,362)">
				<g id="path1674_3_">
					<path class="st1" d="M-157.9-193.6l-15.5,11.6v116.6h15.5c8.6,0,15.5-5.2,15.5-11.6v-105C-142.3-188.4-149.3-193.6-157.9-193.6
						"/>
				</g>
			</g>
			<g id="g1676_3_" transform="translate(474.5,362)">
				<g id="path1678_3_">
					<path class="st5" d="M-157.9-193.6v116.6c0,6.4-7,11.6-15.5,11.6h-210.7c-8.6,0-15.5-5.2-15.5-11.6v-81.9
						c0-6.4,7-11.6,15.5-11.6H-271l26.5-19.8c2.9-2.2,6.9-3.4,11-3.4H-157.9z"/>
				</g>
			</g>
			<g id="g1680_3_" transform="translate(37.5,302)">
				<g id="path1682_3_">
					<path class="st6" d="M52.9-94.9c-2,0-3.6-1.6-3.6-3.6v-40.7c0-2,1.6-3.6,3.6-3.6h226.3c2,0,3.6,1.6,3.6,3.6v13.6
						c0,2-1.6,3.6-3.6,3.6s-3.6-1.6-3.6-3.6v-9.9h-219v37.1C56.5-96.5,54.9-94.9,52.9-94.9z"/>
				</g>
			</g>
			<g id="g1684_3_" transform="translate(474.5,30)">
				<g id="path1686_3_">
					<path class="st6" d="M-157.9,270h-226.3c-10.4,0-18.9-6.7-18.9-14.9V103.7c0-8.2,8.5-14.9,18.9-14.9h75.6c4.9,0,9.5,1.4,13,4.1
						l25.6,19.1h112c10.4,0,18.9,6.7,18.9,14.9v128.2C-139,263.3-147.4,270-157.9,270z M-384.1,95.4c-6.6,0-12.2,3.8-12.2,8.2v151.4
						c0,4.5,5.6,8.2,12.2,8.2h226.3c6.6,0,12.2-3.8,12.2-8.2V126.8c0-4.5-5.6-8.2-12.2-8.2H-271c-0.7,0-1.4-0.2-2-0.7l-26.5-19.8
						c-2.3-1.7-5.6-2.7-9-2.7H-384.1z"/>
				</g>
			</g>
			<g id="g1688_3_" transform="translate(328.4268,362)">
				<g id="path1690_3_">
					<path class="st6" d="M-253.6-141.4c-1.9,0-3.5-1.6-3.5-3.5c0-9.4,8.5-17,19-17h111.8l25.5-22.3c3.6-3.1,8.3-4.8,13.3-4.8
						c1.9,0,3.5,1.6,3.5,3.5s-1.6,3.5-3.5,3.5c-3.3,0-6.4,1.1-8.7,3.1l-26.5,23.2c-0.6,0.6-1.4,0.9-2.3,0.9h-113.1
						c-6.6,0-12.1,4.5-12.1,10.1C-250.1-143-251.7-141.4-253.6-141.4z"/>
				</g>
			</g>
			<g id="g1692_3_" transform="translate(67.5,362)">
				<g id="path1694_3_">
					<path class="st6" d="M38.4-182H22.9c-2,0-3.6-1.6-3.6-3.6s1.6-3.6,3.6-3.6h15.5c2,0,3.6,1.6,3.6,3.6S40.4-182,38.4-182z"/>
				</g>
			</g>
			<g id="g1696_3_" transform="translate(504.5,332)">
				<g id="path1698_3_">
					<path class="st6" d="M-172.3-138.6c-1.9,0-3.5-1.6-3.5-3.5c0-5.6-5.4-10.1-12.1-10.1h-195.2c-1.9,0-3.5-1.6-3.5-3.5
						s1.6-3.5,3.5-3.5h195.2c10.5,0,19,7.6,19,17C-168.8-140.1-170.4-138.6-172.3-138.6z"/>
				</g>
			</g>
		</g>
		<g>
			<g>
				<g>
					<path class="st6" d="M234.1,242.5c-0.5-1.3-1.1-2.5-1.9-3.6c-0.6-0.8-1.2-1.6-2-2.4c-0.5-0.5-1.1-1-1.7-1.4
						c-0.6-0.4-1.2-0.8-1.8-1.2c-0.6-0.3-1.3-0.6-2-0.9c-0.3-0.1-0.6-0.2-0.9-0.3c-0.3-0.1-0.6-0.1-0.9-0.2
						c-0.4-0.1-0.7-0.1-1.1-0.2c-0.1,0-0.2,0-0.2,0c-0.1,0-0.1,0-0.2,0c-0.2,0-0.5,0-0.7,0c0,0,0,0,0,0c0,0-0.1,0-0.2,0
						c-1,0-5.2,0.1-8.3,2.9c-0.3,0.2-0.5,0.5-0.8,0.8c-0.9,0.8-1.9,1.9-2.8,3.1c-2.6,3.2-4.6,6.3-4.6,6.3c0,0,0,0,0,0
						c-2-3-4.4-6.4-7.5-9.5c-0.3-0.3-0.7-0.6-1-0.9c-0.6-0.5-1.2-0.9-1.9-1.2c-0.1,0-0.2-0.1-0.3-0.1c-0.7-0.3-1.3-0.6-2-0.8
						c-0.6-0.2-1.2-0.3-1.8-0.4c-0.5-0.1-0.9-0.1-1.4-0.1c-0.3,0-0.5,0-0.8,0c-0.1,0-0.2,0-0.2,0c-0.5,0-1,0-1.4,0.1
						c-0.5,0.1-0.9,0.2-1.4,0.3c-0.5,0.1-0.9,0.3-1.4,0.4c-0.4,0.2-0.9,0.4-1.3,0.6c-0.4,0.2-0.9,0.5-1.3,0.7
						c-0.4,0.3-0.8,0.6-1.2,0.9c-0.4,0.3-0.8,0.6-1.1,1c-0.2,0.2-0.3,0.3-0.5,0.5c-0.2,0.2-0.5,0.5-0.7,0.8
						c-0.1,0.1-0.2,0.2-0.3,0.3c0,0.1-0.1,0.1-0.1,0.2c0,0,0,0.1-0.1,0.1c0,0-0.1,0.1-0.1,0.1c-0.1,0.2-0.3,0.4-0.4,0.6
						c-0.3,0.4-0.5,0.8-0.7,1.2c-0.3,0.5-0.5,0.9-0.8,1.4c-0.1,0.2-0.3,0.5-0.3,0.8c0,0,0,0,0,0.1c-0.1,0.2-0.2,0.5-0.3,0.7
						c0,0,0,0.1,0,0.1c-0.1,0.2-0.2,0.5-0.3,0.7c0,0,0,0.1,0,0.1c-0.1,0.3-0.2,0.6-0.3,0.9c-0.1,0.2-0.1,0.5-0.2,0.7c0,0,0,0,0,0
						c-0.1,0.2-0.1,0.5-0.2,0.7c0,0,0,0.1,0,0.1c-1.2,5.8-0.9,13.8,6.3,20.4c0.3,0.2,0.5,0.5,0.8,0.7c0.3,0.2,0.6,0.4,0.9,0.6
						c0.3,0.2,0.6,0.3,0.9,0.5c0.3,0.1,0.6,0.3,0.8,0.4c0.3,0.1,0.5,0.2,0.8,0.3c0.3,0.1,0.5,0.2,0.8,0.2c0.7,0.2,1.5,0.3,2.3,0.3
						c0.8,0,1.5,0,2.3-0.1c0.6-0.1,1.3-0.2,1.9-0.3c0.2-0.1,0.5-0.1,0.7-0.2c0.3-0.1,0.5-0.2,0.8-0.2c0.3-0.1,0.5-0.2,0.8-0.3
						c0.3-0.1,0.5-0.2,0.8-0.4c0.3-0.1,0.5-0.3,0.8-0.4c0.3-0.2,0.5-0.3,0.8-0.5c0.3-0.2,0.5-0.4,0.7-0.6c0.1-0.1,0.2-0.2,0.3-0.3
						c0.1-0.1,0.2-0.2,0.3-0.3c1.8-1.6,5.1-6.2,7.5-9.6c0,0.1,0.7,1.1,0.8,1.2c0.3,0.4,0.6,0.9,0.9,1.3c0.5,0.7,1,1.4,1.6,2.1
						c1.1,1.4,2.2,2.9,3.4,4.2c0.9,0.9,1.8,1.7,2.8,2.3c3.1,2,7,2.5,10.5,1.6c0.7-0.2,1.4-0.4,2.1-0.8c2.3-1,4.2-2.8,5.7-4.9
						c3.4-4.9,4.6-11.1,3.5-17C235,245.3,234.6,243.9,234.1,242.5z M193.1,260.5c-0.2,0.1-0.3,0.3-0.5,0.4c-0.1,0.1-0.3,0.2-0.4,0.3
						c-1.2,0.8-2.6,1.2-4,1.3c-1,0.1-2.1,0-3.2-0.2c-0.1,0-0.3-0.1-0.4-0.1c-0.1,0-0.2-0.1-0.3-0.1c-0.2-0.1-0.4-0.2-0.5-0.3
						c-0.2-0.1-0.3-0.2-0.5-0.3c-0.2-0.1-0.3-0.2-0.5-0.3c-0.2-0.1-0.3-0.2-0.5-0.4c-0.2-0.1-0.3-0.3-0.5-0.4
						c-0.2-0.1-0.3-0.3-0.4-0.4c-0.1-0.1-0.3-0.3-0.4-0.5c-0.1-0.2-0.3-0.3-0.4-0.5c-0.1-0.2-0.3-0.3-0.4-0.5
						c-0.1-0.2-0.2-0.4-0.3-0.5c-0.1-0.2-0.2-0.4-0.3-0.6c-0.1-0.2-0.2-0.4-0.3-0.6c-0.1-0.2-0.2-0.4-0.3-0.6
						c-0.1-0.2-0.2-0.4-0.2-0.6c-0.1-0.2-0.1-0.4-0.2-0.7c-0.1-0.2-0.1-0.5-0.2-0.7c-0.1-0.2-0.1-0.5-0.1-0.7c0-0.2-0.1-0.5-0.1-0.7
						c0-0.2-0.1-0.5-0.1-0.7c0-0.2,0-0.5,0-0.7c0-0.1,0-0.2,0-0.3c0-7.3,6.6-15,14-10.3c1.2,0.7,2.2,1.7,3,2.8
						c1.8,2.4,3.7,4.9,5.3,7.4c-0.8,1.3-1.7,2.6-2.6,3.8c-0.7,1-1.5,2.1-2.3,3.1C194.7,258.8,194,259.7,193.1,260.5z M224.9,261.4
						c-1.3,0.7-2.6,1-3.6,1.1c-0.9,0.1-1.8,0.1-2.7-0.1c-0.9-0.2-1.7-0.5-2.5-1c-0.8-0.5-1.5-1.2-2.2-1.9c-0.5-0.6-1-1.1-1.5-1.7
						c-0.5-0.7-1.1-1.4-1.6-2.1c-0.6-0.8-1.2-1.6-1.7-2.5c-0.1-0.2-0.2-0.3-0.4-0.5c-0.3-0.6-0.7-1.1-1.1-1.8
						c2.1-3.2,4.2-6.4,6.8-9.1c0.9-1,2.1-1.7,3.4-2.1l0,0c1.9-0.6,4-0.6,5.9,0.2c1.3,0.6,2.4,1.4,3.3,2.5c2,2.3,3,5.4,3,8.5
						C230,255.6,227.9,259.5,224.9,261.4z"/>
				</g>
			</g>
			<g>
				<path class="st10" d="M233.2,240.2c-0.5-1.3-1.1-2.5-1.9-3.6c-0.6-0.8-1.2-1.6-2-2.4c-0.5-0.5-1.1-1-1.7-1.4
					c-0.6-0.4-1.2-0.8-1.8-1.2c-0.6-0.3-1.3-0.6-2-0.9c-0.3-0.1-0.6-0.2-0.9-0.3c-0.3-0.1-0.6-0.1-0.9-0.2c-0.4-0.1-0.7-0.1-1.1-0.2
					c-0.1,0-0.2,0-0.2,0c-0.1,0-0.1,0-0.2,0c-0.2,0-0.5,0-0.7,0c0,0,0,0,0,0c0,0-0.1,0-0.2,0c-1,0-5.2,0.1-8.3,2.9
					c-0.3,0.2-0.5,0.5-0.8,0.8c-0.9,0.8-1.9,1.9-2.8,3.1c-2.6,3.2-4.6,6.3-4.6,6.3c0,0,0,0,0,0c-2-3-4.4-6.4-7.5-9.5
					c-0.3-0.3-0.7-0.6-1-0.9c-0.6-0.5-1.2-0.9-1.9-1.2c-0.1,0-0.2-0.1-0.3-0.1c-0.7-0.3-1.3-0.6-2-0.8c-0.6-0.2-1.2-0.3-1.8-0.4
					c-0.5-0.1-0.9-0.1-1.4-0.1c-0.3,0-0.5,0-0.8,0c-0.1,0-0.2,0-0.2,0c-0.5,0-1,0-1.4,0.1c-0.5,0.1-0.9,0.2-1.4,0.3
					c-0.5,0.1-0.9,0.3-1.4,0.4c-0.4,0.2-0.9,0.4-1.3,0.6c-0.4,0.2-0.9,0.5-1.3,0.7c-0.4,0.3-0.8,0.6-1.2,0.9c-0.4,0.3-0.8,0.6-1.1,1
					c-0.2,0.2-0.3,0.3-0.5,0.5c-0.2,0.2-0.5,0.5-0.7,0.8c-0.1,0.1-0.2,0.2-0.3,0.3c0,0.1-0.1,0.1-0.1,0.2c0,0,0,0.1-0.1,0.1
					c0,0-0.1,0.1-0.1,0.1c-0.1,0.2-0.3,0.4-0.4,0.6c-0.3,0.4-0.5,0.8-0.7,1.2c-0.3,0.5-0.5,0.9-0.8,1.4c-0.1,0.2-0.3,0.5-0.3,0.8
					c0,0,0,0,0,0.1c-0.1,0.2-0.2,0.5-0.3,0.7c0,0,0,0.1,0,0.1c-0.1,0.2-0.2,0.5-0.3,0.7c0,0,0,0.1,0,0.1c-0.1,0.3-0.2,0.6-0.3,0.9
					c-0.1,0.2-0.1,0.5-0.2,0.7c0,0,0,0,0,0c-0.1,0.2-0.1,0.5-0.2,0.7c0,0,0,0.1,0,0.1c-1.2,5.8-0.9,13.8,6.3,20.4
					c0.3,0.2,0.5,0.5,0.8,0.7c0.3,0.2,0.6,0.4,0.9,0.6c0.3,0.2,0.6,0.3,0.9,0.5c0.3,0.1,0.6,0.3,0.8,0.4c0.3,0.1,0.5,0.2,0.8,0.3
					c0.3,0.1,0.5,0.2,0.8,0.2c0.7,0.2,1.5,0.3,2.3,0.3c0.8,0,1.5,0,2.3-0.1c0.6-0.1,1.3-0.2,1.9-0.3c0.2-0.1,0.5-0.1,0.7-0.2
					c0.3-0.1,0.5-0.2,0.8-0.2c0.3-0.1,0.5-0.2,0.8-0.3c0.3-0.1,0.5-0.2,0.8-0.4c0.3-0.1,0.5-0.3,0.8-0.4c0.3-0.2,0.5-0.3,0.8-0.5
					c0.3-0.2,0.5-0.4,0.7-0.6c0.1-0.1,0.2-0.2,0.3-0.3c0.1-0.1,0.2-0.2,0.3-0.3c1.8-1.6,5.1-6.2,7.5-9.6c0,0.1,0.7,1.1,0.8,1.2
					c0.3,0.4,0.6,0.9,0.9,1.3c0.5,0.7,1,1.4,1.6,2.1c1.1,1.4,2.2,2.9,3.4,4.2c0.9,0.9,1.8,1.7,2.8,2.3c3.1,2,7,2.5,10.5,1.6
					c0.7-0.2,1.4-0.4,2.1-0.8c2.3-1,4.2-2.8,5.7-4.9c3.4-4.9,4.6-11.1,3.5-17C234.1,242.9,233.7,241.5,233.2,240.2z M192.2,258.1
					c-0.2,0.1-0.3,0.3-0.5,0.4c-0.1,0.1-0.3,0.2-0.4,0.3c-1.2,0.8-2.6,1.2-4,1.3c-1,0.1-2.1,0-3.2-0.2c-0.1,0-0.3-0.1-0.4-0.1
					c-0.1,0-0.2-0.1-0.3-0.1c-0.2-0.1-0.4-0.2-0.5-0.3c-0.2-0.1-0.3-0.2-0.5-0.3c-0.2-0.1-0.3-0.2-0.5-0.3c-0.2-0.1-0.3-0.2-0.5-0.4
					c-0.2-0.1-0.3-0.3-0.5-0.4c-0.2-0.1-0.3-0.3-0.4-0.4c-0.1-0.1-0.3-0.3-0.4-0.5c-0.1-0.2-0.3-0.3-0.4-0.5
					c-0.1-0.2-0.3-0.3-0.4-0.5c-0.1-0.2-0.2-0.4-0.3-0.5c-0.1-0.2-0.2-0.4-0.3-0.6c-0.1-0.2-0.2-0.4-0.3-0.6
					c-0.1-0.2-0.2-0.4-0.3-0.6c-0.1-0.2-0.2-0.4-0.2-0.6c-0.1-0.2-0.1-0.4-0.2-0.7c-0.1-0.2-0.1-0.5-0.2-0.7
					c-0.1-0.2-0.1-0.5-0.1-0.7c0-0.2-0.1-0.5-0.1-0.7c0-0.2-0.1-0.5-0.1-0.7c0-0.2,0-0.5,0-0.7c0-0.1,0-0.2,0-0.3
					c0-7.3,6.6-15,14-10.3c1.2,0.7,2.2,1.7,3,2.8c1.8,2.4,3.7,4.9,5.3,7.4c-0.8,1.3-1.7,2.6-2.6,3.8c-0.7,1-1.5,2.1-2.3,3.1
					C193.9,256.5,193.1,257.4,192.2,258.1z M224,259.1c-1.3,0.7-2.6,1-3.6,1.1c-0.9,0.1-1.8,0.1-2.7-0.1c-0.9-0.2-1.7-0.5-2.5-1
					c-0.8-0.5-1.5-1.2-2.2-1.9c-0.5-0.6-1-1.1-1.5-1.7c-0.5-0.7-1.1-1.4-1.6-2.1c-0.6-0.8-1.2-1.6-1.7-2.5c-0.1-0.2-0.2-0.3-0.4-0.5
					c-0.3-0.6-0.7-1.1-1.1-1.8c2.1-3.2,4.2-6.4,6.8-9.1c0.9-1,2.1-1.7,3.4-2.1l0,0c1.9-0.6,4-0.6,5.9,0.2c1.3,0.6,2.4,1.4,3.3,2.5
					c2,2.3,3,5.4,3,8.5C229.1,253.2,227.1,257.2,224,259.1z"/>
			</g>
		</g>
	</g>
</g>
</svg>
