<?xml version="1.0" encoding="utf-8"?>
<!-- Generator: Adobe Illustrator 25.0.0, SVG Export Plug-In . SVG Version: 6.00 Build 0)  -->
<svg version="1.1" id="Layer_1" xmlns="http://www.w3.org/2000/svg" xmlns:xlink="http://www.w3.org/1999/xlink" x="0px" y="0px"
	 viewBox="0 0 280 300" style="enable-background:new 0 0 280 300;" xml:space="preserve">
<style type="text/css">
	.st0{fill:#AAB2BD;}
	.st1{fill:#CCD1D9;}
	.st2{fill:#FCD770;}
	.st3{fill:#35414D;}
	.st4{fill-rule:evenodd;clip-rule:evenodd;fill:#F0E9E6;}
	.st5{fill-rule:evenodd;clip-rule:evenodd;fill:#FDCD56;}
	.st6{fill-rule:evenodd;clip-rule:evenodd;fill:#35414D;}
</style>
<g>
	<g>
		<g>
			<g>
				<path class="st0" d="M125.3,170.6h29.9c0,8.2-6.7,14.8-14.9,14.8c-4.1,0-7.9-1.7-10.6-4.4C126.9,178.4,125.3,174.7,125.3,170.6z
					"/>
			</g>
			<g>
				<path class="st1" d="M155.1,160.7c2.7,0,5,2.2,5,4.9c0,1.4-0.5,2.6-1.5,3.5c-0.9,0.9-2.1,1.5-3.5,1.5h-29.9c-2.7,0-5-2.2-5-4.9
					c0-1.4,0.5-2.6,1.5-3.5c0.9-0.9,2.1-1.5,3.5-1.5H155.1z"/>
			</g>
			<g>
				<path class="st1" d="M163.6,159.3c-0.9,0.9-2.1,1.5-3.5,1.5h-5h-29.9h-5c-2.7,0-5-2.2-5-4.9c0-1.4,0.5-2.6,1.5-3.5
					c0.9-0.9,2.1-1.5,3.5-1.5h22.4h17.4c2.7,0,5,2.2,5,4.9C165.1,157.1,164.5,158.4,163.6,159.3z"/>
			</g>
			<g>
				<path class="st2" d="M187.5,96.4v0.8c0,13.6-6.1,26.5-16.7,35.1l-10.7,8.7v9.9h-17.4v-24.7h-2.5c-2.1,0-3.9-0.8-5.3-2.2
					c-1.3-1.3-2.2-3.2-2.2-5.2c0-4.1,3.3-7.4,7.5-7.4h2.5V96.4h14.9v-2.5c0-2.1,0.8-3.9,2.2-5.2c1.3-1.3,3.2-2.2,5.3-2.2
					c4.1,0,7.5,3.3,7.5,7.4v2.5L187.5,96.4z"/>
			</g>
			<g>
				<path class="st2" d="M93,96.4h19.9v-2.5c0-4.1,3.3-7.4,7.5-7.4c2.1,0,3.9,0.8,5.3,2.2c1.3,1.3,2.2,3.2,2.2,5.2v2.5h14.9v14.8
					h-2.5c-4.1,0-7.5,3.3-7.5,7.4c0,2.1,0.8,3.9,2.2,5.2c1.3,1.3,3.2,2.2,5.3,2.2h2.5v24.7h-22.4v-9.9l-10.7-8.7
					c-5.3-4.3-9.5-9.7-12.3-15.7c-2.9-6-4.4-12.6-4.4-19.4C92.9,96.9,92.9,96.7,93,96.4L93,96.4z"/>
			</g>
			<g>
				<path class="st2" d="M142.7,84.1v12.4h-14.9v-2.5c0-2.1-0.8-3.9-2.2-5.2c-1.3-1.3-3.2-2.2-5.3-2.2c-4.1,0-7.5,3.3-7.5,7.4v2.5
					H93h0c0.4-24.7,20.7-44.5,45.6-44.5h4.2v17.3h-2.5c-2.1,0-3.9,0.8-5.3,2.2c-1.3,1.3-2.2,3.2-2.2,5.2c0,4.1,3.3,7.4,7.5,7.4
					H142.7z"/>
			</g>
			<g>
				<path class="st2" d="M212.4,42v29.7c0,2.7-2.2,4.9-5,4.9h-10v-2.5c0-2.1-0.8-3.9-2.2-5.2s-3.2-2.2-5.3-2.2
					c-4.1,0-7.5,3.3-7.5,7.4v2.5h-14.9V64.3h-2.5c-2.1,0-3.9-0.8-5.3-2.2c-1.3-1.3-2.2-3.2-2.2-5.2c0-4.1,3.3-7.4,7.5-7.4h2.5V42
					c0-2.7,2.2-4.9,5-4.9h34.8C210.1,37.1,212.4,39.3,212.4,42z"/>
			</g>
		</g>
		<g>
			<path class="st3" d="M207.4,34.6h-34.8c-4.1,0-7.5,3.3-7.5,7.4V47c-5.5,0-10,4.4-10,9.9s4.5,9.9,10,9.9v12.4H185v-4.9
				c0-2.7,2.2-4.9,5-4.9c2.7,0,5,2.2,5,4.9v4.9h12.4c4.1,0,7.5-3.3,7.5-7.4V42C214.9,37.9,211.5,34.6,207.4,34.6z M209.9,71.7
				c0,1.4-1.1,2.5-2.5,2.5h-7.5c0-5.5-4.5-9.9-10-9.9c-5.5,0-10,4.4-10,9.9h-10V61.8h-5c-2.7,0-5-2.2-5-4.9c0-2.7,2.2-4.9,5-4.9h5
				V42c0-1.4,1.1-2.5,2.5-2.5h34.8c1.4,0,2.5,1.1,2.5,2.5V71.7z"/>
			<path class="st3" d="M165.1,84.1c-5.5,0-10,4.4-10,9.9h-10V81.6h-5c-2.7,0-5-2.2-5-4.9c0-2.7,2.2-4.9,5-4.9h5V49.4h-6.7
				c-26.5,0-48.1,21.4-48.1,47.8c0,14.4,6.4,27.9,17.6,37l9.7,7.9v6.7c-2.9,1-5,3.7-5,7c0,3.4,2.4,6.3,5.5,7.1
				c-0.3,0.9-0.5,1.8-0.5,2.8c0,3.3,2.2,6,5.1,7c1,8.6,8.4,15.3,17.3,15.3c8.9,0,16.3-6.7,17.3-15.3c3-1,5.1-3.7,5.1-7
				c0-1-0.2-1.9-0.5-2.8c3.2-0.9,5.5-3.7,5.5-7.1c0-3.2-2.1-5.9-5-7v-6.7l9.7-7.9c11.2-9.1,17.6-22.6,17.6-37v-3.3H175
				C175,88.5,170.6,84.1,165.1,84.1z M138.5,54.4h1.7v12.4c-5.5,0-10,4.4-10,9.9s4.5,9.9,10,9.9v7.4h-10c0-5.5-4.5-9.9-10-9.9
				c-5.5,0-10,4.4-10,9.9H95.5C97.2,71.8,115.8,54.4,138.5,54.4z M111.2,130.4c-9.6-7.8-15.3-19.2-15.8-31.5h19.9v-4.9
				c0-2.7,2.2-4.9,5-4.9c2.7,0,5,2.2,5,4.9v4.9h14.9v9.9c-5.5,0-10,4.4-10,9.9s4.5,9.9,10,9.9v19.8h-17.4v-8.6L111.2,130.4z
				 M140.2,183c-6,0-11-4.3-12.2-9.9h24.4C151.2,178.7,146.2,183,140.2,183z M155.1,168.1h-29.9c-1.4,0-2.5-1.1-2.5-2.5
				s1.1-2.5,2.5-2.5h29.9c1.4,0,2.5,1.1,2.5,2.5S156.5,168.1,155.1,168.1z M160.1,158.2h-5h-29.9h-5c-1.4,0-2.5-1.1-2.5-2.5
				s1.1-2.5,2.5-2.5h39.8c1.4,0,2.5,1.1,2.5,2.5S161.5,158.2,160.1,158.2z M169.2,130.4l-11.6,9.4v8.6h-12.4v-24.7h-5
				c-2.7,0-5-2.2-5-4.9c0-2.7,2.2-4.9,5-4.9h5V98.9h14.9v-4.9c0-2.7,2.2-4.9,5-4.9c2.7,0,5,2.2,5,4.9v4.9H185
				C184.5,111.2,178.8,122.5,169.2,130.4z"/>
		</g>
	</g>
	<g>
		<path class="st4" d="M15.3,137c6.2,0,11.3-5,11.3-11.2c0-6.2-5.1-11.2-11.3-11.2S4,119.6,4,125.8C4,132,9,137,15.3,137z
			 M264.7,137c-6.2,0-11.3-5-11.3-11.2c0-6.2,5.1-11.2,11.3-11.2s11.3,5,11.3,11.2C276,132,271,137,264.7,137z"/>
		<path class="st5" d="M267.1,182.8c-26.8,0-40.2,32.2-21.3,51.1c3.5,3.5,3.5,9.1,0,12.6l-19.2,19.1c-3.5,3.5-9.1,3.5-12.6,0
			c-18.9-18.8-51.4-5.5-51.4,21.2c0,4.9-4,8.9-8.9,8.9h-27.2c-4.9,0-8.9-4-8.9-8.9c0-26.6-32.4-40-51.4-21.2
			c-3.5,3.5-9.1,3.5-12.6,0l-19.2-19.1c-3.5-3.5-3.5-9.1,0-12.6c18.9-18.8,5.5-51.1-21.3-51.1c-4.9,0-8.9-4-8.9-8.9v-11.3
			c0-1.2,1-2.3,2.3-2.3h38.2h26.8c1.2,0,2.2,1,2.3,2.2c1.2,35.5,30.5,63.9,66.4,63.9s65.3-28.4,66.4-63.9c0-1.2,1-2.2,2.3-2.2h26.8
			h38.2c1.2,0,2.3,1,2.3,2.3v11.3C276,178.8,272,182.8,267.1,182.8L267.1,182.8z"/>
	</g>
	<path class="st6" d="M272.1,174.4c0,2.7-2.2,4.9-5,4.9c-14,0-26.1,8-31.5,20.9c-5.4,12.9-2.6,27,7.4,36.9c1.9,1.9,1.9,5.1,0,7
		l-19.2,19.1c-0.9,0.9-2.2,1.4-3.5,1.4c-1.3,0-2.6-0.5-3.5-1.4c-9.9-9.9-24.2-12.7-37.1-7.3c-13,5.3-21,17.3-21,31.3
		c0,2.7-2.2,4.9-5,4.9h-27.2c-2.7,0-5-2.2-5-4.9c0-14-8.1-25.9-21-31.3c-4.3-1.8-8.8-2.7-13.3-2.7c-8.7,0-17.3,3.4-23.9,10
		c-0.9,0.9-2.2,1.4-3.5,1.4c-1.3,0-2.6-0.5-3.5-1.4L37,244.1c-0.9-0.9-1.4-2.2-1.4-3.5c0-1.3,0.5-2.6,1.4-3.5
		c9.9-9.9,12.7-24,7.4-36.9c-5.4-12.9-17.4-20.9-31.4-20.9c-2.7,0-5-2.2-5-4.9v-9.6h61.7c2.1,36.8,32.8,66,70.4,66
		c37.5,0,68.2-29.3,70.3-66h61.7L272.1,174.4L272.1,174.4z M15.3,133.6c-4,0-7.3-3.3-7.3-7.3c0-4,3.3-7.3,7.3-7.3
		c4.1,0,7.3,3.3,7.3,7.3C22.6,130.4,19.3,133.6,15.3,133.6L15.3,133.6z M264.7,119.1c4,0,7.3,3.3,7.3,7.3c0,4-3.3,7.3-7.3,7.3
		c-4.1,0-7.3-3.3-7.3-7.3C257.4,122.3,260.7,119.1,264.7,119.1L264.7,119.1z M276,157h-36.1l-0.1-26.7H250
		c1.8,6.5,7.7,11.2,14.7,11.2c8.4,0,15.3-6.8,15.3-15.2c0-8.4-6.9-15.2-15.3-15.2c-7,0-13,4.8-14.7,11.2h-14.1c-1,0-2.1,0.4-2.8,1.2
		c-0.7,0.7-1.1,1.7-1.1,2.8L232,157h-25.5c-2.2,0-4,1.8-4,3.9c0,34.2-28,62.1-62.5,62.1c-34.5,0-62.5-27.9-62.5-62.1
		c0-2.2-1.8-3.9-4-3.9H48l0.1-30.6c0-1-0.4-2.1-1.1-2.8c-0.7-0.7-1.8-1.2-2.8-1.2H30c-1.8-6.5-7.7-11.2-14.7-11.2
		C6.9,111.2,0,118,0,126.4c0,8.4,6.9,15.2,15.3,15.2c7,0,13-4.8,14.7-11.2h10.1l0,26.7H4c-2.2,0-4,1.8-4,3.9v13.5
		c0,7.1,5.8,12.8,12.9,12.8c10.7,0,20,6.2,24.1,16c4.1,9.9,1.9,20.7-5.7,28.3c-2.4,2.4-3.8,5.6-3.8,9.1s1.4,6.6,3.8,9.1l19.2,19.1
		c2.5,2.4,5.7,3.8,9.1,3.8c3.5,0,6.7-1.3,9.1-3.8c7.6-7.6,18.5-9.7,28.5-5.6c9.9,4.1,16.1,13.3,16.1,24c0,7.1,5.8,12.8,12.9,12.8
		h27.2c7.1,0,12.9-5.8,12.9-12.8c0-10.7,6.2-19.9,16.1-24c10-4.1,20.9-2,28.5,5.6c2.5,2.4,5.7,3.8,9.1,3.8c3.5,0,6.7-1.3,9.1-3.8
		l19.3-19.1c5-5,5-13.1,0-18.1c-7.6-7.6-9.8-18.4-5.7-28.3c4.1-9.9,13.4-16,24.1-16c7.1,0,12.9-5.8,12.9-12.8v-13.5
		c0-1-0.4-2-1.2-2.8C278.1,157.4,277.1,157,276,157L276,157z"/>
	<path class="st6" d="M115.5,28c-10.4-0.5-20.3,3-28.1,9.9c-7.7,6.9-12.3,16.4-12.8,26.7c-0.1,2.3-2.1,4-4.3,3.9
		c-2.3-0.1-4-2-3.9-4.3c0.6-12.5,6.2-24,15.5-32.4c9.3-8.4,21.4-12.6,34-12c2.3,0.1,4,2,3.9,4.3c-0.1,1.1-0.6,2.1-1.4,2.8
		C117.6,27.6,116.6,28,115.5,28L115.5,28z"/>
	<path class="st6" d="M95.2,46.4c-5.4,4.9-8.6,11.5-9,18.8c-0.1,2.3,1.6,4.2,3.9,4.3c2.3,0.1,4.2-1.6,4.3-3.9
		c0.3-5.1,2.5-9.7,6.3-13.1c3.8-3.4,8.7-5.1,13.8-4.9c1.1,0.1,2.2-0.3,3-1c0.8-0.7,1.3-1.7,1.3-2.8c0.1-2.3-1.6-4.2-3.9-4.3
		C107.6,39.1,100.6,41.6,95.2,46.4z"/>
	<path class="st6" d="M50.5,67.5c2.3,0.1,4.2-1.6,4.3-3.9c0.8-15.6,7.7-29.9,19.3-40.4c11.6-10.4,26.7-15.8,42.4-15
		c1.1,0.1,2.2-0.3,3-1s1.3-1.7,1.4-2.8c0.1-2.3-1.6-4.2-3.9-4.3C99-0.8,81.9,5.2,68.6,17.2c-13.3,11.9-21.1,28.3-22,46
		C46.5,65.4,48.2,67.4,50.5,67.5L50.5,67.5z"/>
</g>
</svg>
