<?xml version="1.0" encoding="utf-8"?>
<!-- Generator: Adobe Illustrator 25.0.0, SVG Export Plug-In . SVG Version: 6.00 Build 0)  -->
<svg version="1.1" id="Layer_1" xmlns="http://www.w3.org/2000/svg" xmlns:xlink="http://www.w3.org/1999/xlink" x="0px" y="0px"
	 viewBox="0 0 460 300" style="enable-background:new 0 0 460 300;" xml:space="preserve">
<style type="text/css">
	.st0{fill:#F4C356;}
	.st1{fill:#3F597D;}
	.st2{fill:#35414D;}
	.st3{fill:#3B4B56;}
	.st4{fill:#F0E9E6;}
	.st5{fill:#87691E;}
	.st6{fill:#0D9353;}
	.st7{fill:#94CCD4;}
	.st8{fill:#6FBBC6;}
	.st9{fill:#84BCC1;}
	.st10{fill:#ED736E;}
	.st11{fill:#AA2B1D;}
	.st12{fill:#D8D8D8;}
</style>
<g>
	<g>
		<path class="st0" d="M24.5,40.3l4.7-6.4L155,4.3c4.8-1.1,9.7,1.8,10.8,6.6l41.3,174.4c1.1,4.8-2.9,8.2-7.7,9.4L67.6,224.3
			L24.5,40.3z"/>
		<path class="st1" d="M207.1,185.4c1.1,4.8-1.8,9.6-6.7,10.7L65.9,227.7l-32.7-88.5L20.5,35.9l8.7-2.1L71.7,213
			c0.5,2.2,2.7,3.5,4.9,3L207.1,185.4z"/>
		<path class="st2" d="M65.3,226.2l-10.9,1.9c-4.8,1.1-9.7-1.8-10.8-6.6L1.6,50.7c-1.1-4.8,0.5-10.4,5.3-11.6l13.5-3.2L63.8,219
			l-1.2,3.7L65.3,226.2z"/>
		<path class="st3" d="M63.8,219l2.1,8.7l-13.5,3.2c-4.8,1.1-9.7-1.8-10.8-6.6L0.2,49.9c-1.1-4.8,1.8-9.6,6.7-10.7l42.7,180
			c0.4,1.7,2.1,2.7,3.8,2.3L63.8,219z"/>
		<g>
			<path class="st2" d="M147.3,128c-0.4-0.6-1-0.9-1.7-1.1c-0.3-0.1-0.7-0.1-1,0l-12.9,3c-1.4,0.3-2.3,1.8-2,3.2
				c0.3,1.4,1.8,2.3,3.2,2l6.7-1.6l-11,17.8l-10.5-6.5c-1.2-0.8-2.9-0.4-3.7,0.8c0,0,0,0,0,0l-11.9,19.1c-0.8,1.2-0.4,2.9,0.8,3.6
				c0,0,0,0,0,0c1.2,0.8,2.9,0.4,3.7-0.8c0,0,0,0,0,0l10.4-16.9l10.5,6.5c1.2,0.8,2.9,0.4,3.7-0.8c0,0,0,0,0,0l12.4-20l1.6,6.7
				c0.3,1.4,1.8,2.3,3.2,2c1.4-0.3,2.3-1.8,2-3.2l-3-12.9C147.6,128.6,147.5,128.3,147.3,128L147.3,128z"/>
			<path class="st4" d="M146.1,126.9c-0.4-0.6-1-0.9-1.7-1.1c-0.3-0.1-0.7-0.1-1,0l-12.9,3c-1.4,0.3-2.3,1.8-2,3.2
				c0.3,1.4,1.8,2.3,3.2,2l6.7-1.6l-11,17.8l-10.5-6.5c-1.2-0.8-2.9-0.4-3.7,0.8c0,0,0,0,0,0l-11.9,19.1c-0.8,1.2-0.4,2.9,0.8,3.6
				c0,0,0,0,0,0c1.2,0.8,2.9,0.4,3.7-0.8c0,0,0,0,0,0l10.4-16.9l10.5,6.5c1.2,0.8,2.9,0.4,3.7-0.8c0,0,0,0,0,0l12.4-20l1.6,6.7
				c0.3,1.4,1.8,2.3,3.2,2c1.4-0.3,2.3-1.8,2-3.2l-3-12.9C146.5,127.5,146.3,127.1,146.1,126.9L146.1,126.9z"/>
		</g>
		<g>
			<path class="st5" d="M69.9,69.9l-19.6,4.6l-6-25.5l19.6-4.6L69.9,69.9z M62.7,58.3c-0.5-2-1.7-2.7-3.7-2.2l-5,1.2l0.4,1.6l5-1.2
				c0.9-0.2,1.5,0.1,1.7,1.1l0.9,3.9c-0.4,0.4-0.9,0.7-1.5,1c-0.6,0.2-1.3,0.5-2.2,0.7c-1.8,0.4-3.3,0.2-4.6-0.8
				c-1.3-0.9-2.2-2.4-2.7-4.4c-0.2-0.9-0.3-1.8-0.2-2.7c0.1-0.9,0.3-1.7,0.6-2.4c0.3-0.7,0.8-1.3,1.3-1.8c0.6-0.5,1.2-0.8,2-1
				c1.1-0.3,2.1-0.2,3,0.1c0.9,0.3,1.5,1,2,2.1l1.4-0.7c-0.6-1.4-1.5-2.3-2.7-2.8c-1.2-0.5-2.4-0.6-3.8-0.3c-1,0.2-1.9,0.7-2.7,1.3
				c-0.8,0.6-1.4,1.4-1.8,2.3c-0.5,0.9-0.8,1.9-0.9,3c-0.1,1.1,0,2.2,0.2,3.3c0.3,1.2,0.8,2.3,1.4,3.2c0.6,0.9,1.4,1.7,2.2,2.2
				c0.9,0.6,1.8,0.9,2.8,1.1c1,0.2,2,0.1,3.1-0.1c0.6-0.1,1.3-0.4,1.9-0.6c0.7-0.3,1.2-0.6,1.5-1c0.1,0.4,0.2,0.8,0.2,1.1
				s0,0.5-0.1,0.7c-0.1,0.2-0.3,0.3-0.5,0.5c-0.2,0.1-0.6,0.3-1,0.4l-6.3,1.5l0.4,1.6l6.3-1.5c0.7-0.2,1.2-0.3,1.6-0.6
				c0.4-0.2,0.7-0.5,0.9-0.9c0.2-0.4,0.3-0.9,0.3-1.5c0-0.6-0.1-1.4-0.3-2.3L62.7,58.3z"/>
			<g>
				<path class="st5" d="M76.9,101l-21.5,2l-2.1-22.9l21.5-2L76.9,101z M71.8,100.1c0.5,0,0.9-0.1,1.2-0.1c0.3,0,0.6-0.1,0.8-0.1
					c0.2,0,0.4-0.1,0.6-0.1c0.2,0,0.4,0,0.6-0.1l-0.2-1.5c-0.4,0-0.8,0.1-1.3,0.2c-0.4,0.1-1.1,0.1-1.8,0.2
					c-0.9,0.1-1.7-0.1-2.3-0.6c-0.6-0.5-1-1.3-1.3-2.3c-0.1-0.4-0.2-0.9-0.3-1.6s-0.2-1.3-0.3-2c-0.2-0.7-0.4-1.2-0.7-1.7
					c-0.3-0.5-0.7-0.8-1.3-1.1c0.9-0.4,1.5-1,1.9-1.9c0.3-0.8,0.4-1.7,0.1-2.7c-0.3-1.1-0.9-1.9-1.8-2.4C64.8,82,63.6,81.9,62,82
					l-6.9,0.7l0.1,1.6l1.7-0.2l1.3,13.8l1.6-0.1l-0.7-7.1l4.1-0.4c0.9-0.1,1.6,0.1,2,0.6c0.4,0.5,0.7,1.2,0.9,2
					c0.1,0.4,0.2,0.9,0.3,1.4c0.1,0.5,0.2,1,0.3,1.4c0.4,1.5,1,2.6,1.8,3.4C69.4,99.9,70.5,100.2,71.8,100.1z M66.1,85.6
					c0.1,1.6-0.8,2.6-2.7,3c-0.4,0.1-0.8,0.2-1.3,0.2c-0.5,0-0.9,0.1-1.2,0.1c-0.3,0-0.6,0-0.8,0.1c-0.2,0-0.4,0-0.6,0.1
					c-0.2,0-0.4,0-0.6,0L58.5,84c0.9-0.1,1.8-0.2,2.7-0.3c0.9-0.1,1.6-0.1,2.3-0.1c0.7,0,1.2,0.2,1.7,0.4c0.5,0.2,0.7,0.7,0.9,1.3
					c0,0.1,0,0.1,0,0.2C66.1,85.5,66.1,85.6,66.1,85.6z"/>
				<path class="st5" d="M92.3,74.8l6.3,17.1l-15.5,5.6l-6.3-17L92.3,74.8z M93.9,85c-0.2-0.8-0.5-1.7-1-2.5c-0.5-0.8-1-1.5-1.7-2.1
					s-1.5-1-2.3-1.3c-0.9-0.3-1.8-0.3-2.8,0c-0.9,0.2-1.7,0.6-2.3,1.1c-0.7,0.5-1.2,1.1-1.6,1.8c-0.4,0.7-0.6,1.5-0.7,2.4
					c-0.1,0.9,0,1.8,0.2,2.7c0.3,1.1,0.7,2,1.2,2.9c0.5,0.8,1.2,1.5,1.9,2.1c0.7,0.5,1.5,0.9,2.3,1.1c0.8,0.2,1.7,0.2,2.6,0
					c0.9-0.2,1.7-0.6,2.3-1.1c0.7-0.5,1.2-1.1,1.5-1.9s0.6-1.5,0.7-2.4C94.2,86.9,94.1,85.9,93.9,85z M86.3,81.1
					c0.7-0.2,1.3-0.1,1.9,0c0.6,0.2,1.2,0.5,1.7,0.9c0.5,0.4,0.9,0.9,1.3,1.5c0.4,0.6,0.6,1.2,0.8,1.9c0.1,0.6,0.2,1.2,0.2,1.8
					c0,0.6-0.1,1.2-0.3,1.8c-0.2,0.6-0.5,1.1-1,1.5c-0.4,0.4-1,0.7-1.8,0.9c-0.6,0.1-1.2,0.1-1.8-0.1c-0.6-0.2-1.1-0.5-1.6-0.9
					c-0.5-0.4-0.9-0.9-1.3-1.6c-0.4-0.6-0.7-1.3-0.8-2.1c-0.2-0.7-0.2-1.3-0.2-1.9c0-0.6,0.2-1.2,0.4-1.7c0.2-0.5,0.6-0.9,1-1.3
					C85.2,81.4,85.7,81.2,86.3,81.1z"/>
				<path class="st5" d="M148.5,82.6l-18.3,6.1l-8-23.9l18.3-6.1L148.5,82.6z M140.5,70l-1-2.9L127.7,71l1,2.9l4.5-1.5l4.2,12.4
					l2.9-1l-4.2-12.4L140.5,70z"/>
				<path class="st5" d="M161.1,51.8l7.4,20.9l-18,6.3L143,58.1L161.1,51.8z M159.1,56.1l-2,0.7L159,62l-5.8,2.1l-1.9-5.3l-3.4,1.3
					l0.6,2l1.5-0.5l3.9,11.1l2-0.6l-2.1-6l5.8-2l2.1,5.9l2.1-0.8L159.1,56.1z"/>
				<g>
					<path class="st5" d="M121.3,69.5l-1,18.6l-20.6-1.1l1-18.6L121.3,69.5z M120.2,75.4l-2.3-1l-3.2,7.5l-2.1-7.1l-2.4-0.1l-2.8,7
						l-2.3-7.5l-3.3-0.2l-0.1,2.4l1.6,0.1l2.8,9l2.2,0.1l3-7.1l2.1,7.4l2.1,0.1L120.2,75.4z"/>
				</g>
			</g>
		</g>
		<g>
			<path class="st4" d="M68.9,69.1l-19.6,4.6l-6-25.5l19.6-4.6L68.9,69.1z M61.7,57.5c-0.5-2-1.7-2.7-3.7-2.2l-5,1.2l0.4,1.6l5-1.2
				c0.9-0.2,1.5,0.1,1.7,1.1l0.9,3.9c-0.4,0.4-0.9,0.7-1.5,1c-0.6,0.2-1.3,0.5-2.2,0.7c-1.8,0.4-3.3,0.2-4.6-0.8
				c-1.3-0.9-2.2-2.4-2.7-4.4c-0.2-0.9-0.3-1.8-0.2-2.7c0.1-0.9,0.3-1.7,0.6-2.4c0.3-0.7,0.8-1.3,1.3-1.8c0.6-0.5,1.2-0.8,2-1
				c1.1-0.3,2.1-0.2,3,0.1c0.9,0.3,1.5,1,2,2.1l1.4-0.7c-0.6-1.4-1.5-2.3-2.7-2.8c-1.2-0.5-2.4-0.6-3.8-0.3c-1,0.2-1.9,0.7-2.7,1.3
				c-0.8,0.6-1.4,1.4-1.8,2.3c-0.5,0.9-0.8,1.9-0.9,3c-0.1,1.1,0,2.2,0.2,3.3c0.3,1.2,0.8,2.3,1.4,3.2c0.6,0.9,1.4,1.7,2.2,2.2
				c0.9,0.6,1.8,0.9,2.8,1.1c1,0.2,2,0.1,3.1-0.1c0.6-0.1,1.3-0.4,1.9-0.6c0.7-0.3,1.2-0.6,1.5-1c0.1,0.4,0.2,0.8,0.2,1.1
				s0,0.5-0.1,0.7c-0.1,0.2-0.3,0.3-0.5,0.5c-0.2,0.1-0.6,0.3-1,0.4l-6.3,1.5l0.4,1.6l6.3-1.5c0.7-0.2,1.2-0.3,1.6-0.6
				c0.4-0.2,0.7-0.5,0.9-0.9c0.2-0.4,0.3-0.9,0.3-1.5c0-0.6-0.1-1.4-0.3-2.3L61.7,57.5z"/>
			<g>
				<path class="st4" d="M75.9,100.2l-21.5,2l-2.1-22.9l21.5-2L75.9,100.2z M70.8,99.3c0.5,0,0.9-0.1,1.2-0.1c0.3,0,0.6-0.1,0.8-0.1
					c0.2,0,0.4-0.1,0.6-0.1c0.2,0,0.4,0,0.6-0.1l-0.2-1.5c-0.4,0-0.8,0.1-1.3,0.2c-0.4,0.1-1.1,0.1-1.8,0.2
					c-0.9,0.1-1.7-0.1-2.3-0.6s-1-1.3-1.3-2.3c-0.1-0.4-0.2-0.9-0.3-1.6c-0.1-0.7-0.2-1.3-0.3-2c-0.2-0.7-0.4-1.2-0.7-1.7
					c-0.3-0.5-0.7-0.8-1.3-1.1c0.9-0.4,1.5-1,1.9-1.9s0.4-1.7,0.1-2.7c-0.3-1.1-0.9-1.9-1.8-2.4c-0.9-0.4-2.1-0.6-3.7-0.5l-6.9,0.7
					l0.1,1.6l1.7-0.2l1.3,13.8l1.6-0.1l-0.7-7.1l4.1-0.4c0.9-0.1,1.6,0.1,2,0.6c0.4,0.5,0.7,1.2,0.9,2c0.1,0.4,0.2,0.9,0.3,1.4
					c0.1,0.5,0.2,1,0.3,1.4c0.4,1.5,1,2.6,1.8,3.4C68.4,99.1,69.5,99.4,70.8,99.3z M65.1,84.8c0.1,1.6-0.8,2.6-2.7,3
					C62,88,61.6,88,61.1,88.1c-0.5,0-0.9,0.1-1.2,0.1c-0.3,0-0.6,0-0.8,0.1c-0.2,0-0.4,0-0.6,0.1c-0.2,0-0.4,0-0.6,0l-0.5-5.2
					c0.9-0.1,1.8-0.2,2.7-0.3c0.9-0.1,1.6-0.1,2.3-0.1c0.7,0,1.2,0.2,1.7,0.4c0.5,0.2,0.7,0.7,0.9,1.3c0,0.1,0,0.1,0,0.2
					C65.1,84.7,65.1,84.8,65.1,84.8z"/>
				<path class="st4" d="M91.3,74l6.3,17.1l-15.5,5.6l-6.3-17L91.3,74z M92.9,84.2c-0.2-0.8-0.5-1.7-1-2.5c-0.5-0.8-1-1.5-1.7-2.1
					c-0.7-0.6-1.5-1-2.3-1.3C87,78,86,78,85,78.3c-0.9,0.2-1.7,0.6-2.3,1.1c-0.7,0.5-1.2,1.1-1.6,1.8c-0.4,0.7-0.6,1.5-0.7,2.4
					c-0.1,0.9,0,1.8,0.2,2.7c0.3,1.1,0.7,2,1.2,2.9c0.5,0.8,1.2,1.5,1.9,2.1c0.7,0.5,1.5,0.9,2.3,1.1c0.8,0.2,1.7,0.2,2.6,0
					c0.9-0.2,1.7-0.6,2.3-1.1c0.7-0.5,1.2-1.1,1.5-1.9c0.4-0.7,0.6-1.5,0.7-2.4C93.2,86,93.1,85.1,92.9,84.2z M85.3,80.2
					c0.7-0.2,1.3-0.1,1.9,0c0.6,0.2,1.2,0.5,1.7,0.9c0.5,0.4,0.9,0.9,1.3,1.5c0.4,0.6,0.6,1.2,0.8,1.9c0.1,0.6,0.2,1.2,0.2,1.8
					c0,0.6-0.1,1.2-0.3,1.8c-0.2,0.6-0.5,1.1-1,1.5c-0.4,0.4-1,0.7-1.8,0.9c-0.6,0.1-1.2,0.1-1.8-0.1c-0.6-0.2-1.1-0.5-1.6-0.9
					c-0.5-0.4-0.9-0.9-1.3-1.6c-0.4-0.6-0.7-1.3-0.8-2.1c-0.2-0.7-0.2-1.3-0.2-1.9c0-0.6,0.2-1.2,0.4-1.7c0.2-0.5,0.6-0.9,1-1.3
					C84.2,80.6,84.7,80.4,85.3,80.2z"/>
				<path class="st4" d="M147.5,81.8l-18.3,6.1l-8-23.9l18.3-6.1L147.5,81.8z M139.5,69.2l-1-2.9l-11.8,3.9l1,2.9l4.5-1.5l4.2,12.4
					l2.9-1l-4.2-12.4L139.5,69.2z"/>
				<path class="st4" d="M160.1,51l7.4,20.9l-18,6.3L142,57.3L160.1,51z M158.1,55.2l-2,0.7l1.9,5.2l-5.8,2.1l-1.9-5.3l-3.4,1.3
					l0.6,2l1.5-0.5l3.9,11.1l2-0.6l-2.1-6l5.8-2l2.1,5.9l2.1-0.8L158.1,55.2z"/>
				<g>
					<path class="st4" d="M120.3,68.7l-1,18.6l-20.6-1.1l1-18.6L120.3,68.7z M119.2,74.6l-2.3-1l-3.2,7.5l-2.1-7.1l-2.4-0.1l-2.8,7
						l-2.3-7.5l-3.3-0.2l-0.1,2.4l1.6,0.1l2.8,9l2.2,0.1l3-7.1l2.1,7.4l2.1,0.1L119.2,74.6z"/>
				</g>
			</g>
		</g>
	</g>
	<g>
		<path class="st6" d="M325.6,11.2l7.5-2.7l121.1,45c4.6,1.7,7,6.9,5.3,11.5l-62.9,167.9c-1.7,4.6-7,5.3-11.6,3.6l-126.1-48.2
			L325.6,11.2z"/>
		<path class="st1" d="M396.5,232.8c-1.7,4.6-6.9,7-11.5,5.2L255.5,190l22.1-91.7l47-92.9l8.4,3.1L268.4,181
			c-0.8,2.1,0.3,4.4,2.4,5.2L396.5,232.8z"/>
		<path class="st2" d="M255.8,188.5l-10.1-4.5c-4.6-1.7-7-6.9-5.3-11.5L300.7,7.3c1.7-4.6,6.2-8.4,10.9-6.7l13,4.8l-66,176.2
			l-3.1,2.4L255.8,188.5z"/>
		<path class="st3" d="M258.6,181.6l-3.1,8.4l-13-4.8c-4.6-1.7-7-6.9-5.3-11.5L300.1,5.8c1.7-4.6,6.9-7,11.5-5.2l-64.9,173.3
			c-0.6,1.6,0.2,3.4,1.8,4L258.6,181.6z"/>
		<g>
			<path class="st2" d="M345.5,87.3l-28.5-10.6l11.4-30.4l28.5,10.6L345.5,87.3z M339.5,82.1c0.6,0.2,1.1,0.4,1.5,0.5
				c0.4,0.1,0.7,0.3,1,0.4c0.3,0.1,0.6,0.2,0.8,0.3c0.2,0.1,0.5,0.2,0.8,0.2l0.7-1.9c-0.5-0.1-1-0.3-1.6-0.5
				c-0.6-0.2-1.3-0.5-2.3-0.9c-1.2-0.5-2-1.2-2.5-2.2c-0.4-1-0.5-2.2-0.1-3.7c0.2-0.6,0.3-1.2,0.6-2c0.2-0.8,0.4-1.5,0.6-2.2
				c0.5-1.8,0.2-3.3-0.8-4.5c1.2,0,2.2-0.3,3-0.9c0.8-0.6,1.4-1.5,1.8-2.5c0.7-1.7,0.6-3.2-0.2-4.4c-0.8-1.2-2.3-2.2-4.4-3
				c-1.4-0.5-2.6-1-3.5-1.3c-0.9-0.3-1.6-0.6-2.2-0.8c-0.6-0.2-1.1-0.4-1.5-0.5c-0.4-0.1-0.9-0.3-1.4-0.5l-0.7,1.9l2.1,0.8
				l-6.5,17.3l1.9,0.7l3.3-8.8l5.1,1.9c0.7,0.2,1.1,0.6,1.4,0.9c0.3,0.4,0.5,0.8,0.6,1.3c0.1,0.5,0.1,0.9,0,1.4
				c-0.1,0.5-0.2,1-0.3,1.6c-0.1,0.5-0.3,1.1-0.5,1.6c-0.2,0.5-0.3,1.1-0.4,1.6c-0.5,2-0.4,3.7,0.3,5.1
				C336.7,80.5,337.8,81.5,339.5,82.1z M341.1,61.5c-0.9,2.4-3.1,2.9-6.7,1.6c-0.6-0.2-1.1-0.4-1.5-0.5c-0.4-0.1-0.7-0.3-0.9-0.4
				c-0.3-0.1-0.5-0.2-0.7-0.3c-0.2-0.1-0.4-0.2-0.7-0.3l2.4-6.5c0.9,0.3,1.7,0.6,2.6,0.9c0.8,0.3,1.7,0.6,2.6,0.9
				C340.8,58,341.8,59.5,341.1,61.5z"/>
			<path class="st2" d="M350.6,89l4.8-20.3l19.1,4.5l-4.8,20.3L350.6,89z M371.1,74.2l-1.7-0.4l-2.5,10.7c0,0.1,0,0.2-0.1,0.3
				s-0.1,0.2-0.1,0.3c-0.2,0.6-0.5,1.1-0.9,1.6c-0.4,0.4-0.9,0.8-1.4,1c-0.5,0.3-1.1,0.4-1.8,0.4c-0.6,0-1.3-0.1-1.9-0.3
				c-1.1-0.4-1.9-1.1-2.4-2.2c-0.5-1-0.6-2.2-0.3-3.4l2.5-10.6l-3.3-0.8l-0.4,1.7l1.7,0.4l-2.1,8.9c-0.2,0.8-0.3,1.6-0.2,2.4
				c0.1,0.8,0.3,1.5,0.6,2.2c0.3,0.7,0.8,1.3,1.3,1.8c0.5,0.5,1.2,0.9,2,1.2c0.8,0.3,1.7,0.4,2.5,0.4c0.8,0,1.6-0.2,2.4-0.5
				c0.7-0.3,1.4-0.8,2-1.4c0.6-0.6,1-1.3,1.4-2.2c0.1-0.1,0.1-0.3,0.2-0.4c0.1-0.1,0.1-0.3,0.1-0.4L371.1,74.2z"/>
			<path class="st2" d="M384.6,98.2l-13.4-6.5l8.4-17.2L393,81L384.6,98.2z M383.2,94.2l0.9-1.7l-5.6-2.7l4.9-9.9l-3-1.4l-0.9,1.7
				l1.2,0.6l-4.8,9.9L383.2,94.2z"/>
			<path class="st2" d="M415,84.7l-9.1,20.9L389,98.3l9.1-20.9L415,84.7z M410.9,86.5L399,81.4l-0.9,2.2l2,0.9l-6,13.6l10.2,4.4
				l1-2.2l-8-3.5l2.1-4.9l7.4,3.2l1-2.2l-7.4-3.2l1.9-4.3l7.7,3.3L410.9,86.5z"/>
			<path class="st2" d="M436.5,87.2l-8.5,24.6l-18-6.1l8.5-24.6L436.5,87.2z M430.3,92.1c0.3-1.5,0.2-2.7-0.4-3.6
				c-0.5-0.8-1.4-1.5-2.7-2c-1.7-0.6-3.3-0.8-4.6-0.5c-1.3,0.3-2.3,1.3-2.8,2.8c-0.3,0.9-0.4,1.6-0.2,2.4c0.2,0.7,0.6,1.4,1.2,2
				c0.5,0.6,1.1,1.1,1.9,1.5c0.7,0.4,1.4,0.9,2,1.4c0.6,0.5,1.1,1,1.5,1.5c0.3,0.6,0.4,1.2,0.1,2c-0.2,0.5-0.5,0.9-0.8,1.2
				c-0.4,0.3-0.8,0.5-1.2,0.6c-0.5,0.1-0.9,0.2-1.4,0.2c-0.5,0-1-0.1-1.4-0.3c-1-0.4-1.9-1-2.4-1.9c-0.6-0.9-0.7-1.8-0.4-2.9
				l-1.6-0.3c-0.3,1.5-0.1,2.9,0.5,4c0.6,1.2,1.6,2,3.1,2.6c0.8,0.3,1.6,0.5,2.3,0.5c0.8,0,1.5-0.1,2.2-0.3c0.7-0.2,1.3-0.6,1.8-1
				c0.5-0.5,0.9-1.1,1.2-1.8c0.6-1.6,0.4-2.9-0.6-4.1c-0.5-0.6-1.1-1.1-1.9-1.5c-0.8-0.5-1.5-0.9-2.2-1.4c-0.7-0.5-1.2-1.1-1.6-1.7
				c-0.4-0.6-0.4-1.3-0.1-2.1c0.3-0.7,0.9-1.3,1.7-1.6c0.9-0.3,2-0.2,3.4,0.3c0.9,0.3,1.5,0.8,1.9,1.4c0.4,0.6,0.5,1.4,0.2,2.4
				L430.3,92.1z"/>
		</g>
		<g>
			<path class="st4" d="M345.9,86.4l-28.5-10.6l11.4-30.4L357.3,56L345.9,86.4z M339.8,81.1c0.6,0.2,1.1,0.4,1.5,0.5s0.7,0.3,1,0.4
				c0.3,0.1,0.6,0.2,0.8,0.3c0.2,0.1,0.5,0.2,0.8,0.2l0.7-1.9c-0.5-0.1-1-0.3-1.6-0.5c-0.6-0.2-1.3-0.5-2.3-0.9
				c-1.2-0.5-2-1.2-2.5-2.2c-0.4-1-0.5-2.2-0.1-3.7c0.2-0.6,0.3-1.2,0.6-2c0.2-0.8,0.4-1.5,0.6-2.2c0.5-1.8,0.2-3.3-0.8-4.5
				c1.2,0,2.2-0.3,3-0.9c0.8-0.6,1.4-1.5,1.8-2.5c0.7-1.7,0.6-3.2-0.2-4.4c-0.8-1.2-2.3-2.2-4.4-3c-1.4-0.5-2.6-1-3.5-1.3
				c-0.9-0.3-1.6-0.6-2.2-0.8c-0.6-0.2-1.1-0.4-1.5-0.5c-0.4-0.1-0.9-0.3-1.4-0.5l-0.7,1.9l2.1,0.8l-6.5,17.3l1.9,0.7l3.3-8.8
				l5.1,1.9c0.7,0.2,1.1,0.6,1.4,0.9c0.3,0.4,0.5,0.8,0.6,1.3c0.1,0.5,0.1,0.9,0,1.4c-0.1,0.5-0.2,1-0.3,1.6
				c-0.1,0.5-0.3,1.1-0.5,1.6c-0.2,0.5-0.3,1.1-0.4,1.6c-0.5,2-0.4,3.7,0.3,5.1C337.1,79.5,338.2,80.5,339.8,81.1z M341.4,60.6
				c-0.9,2.4-3.1,2.9-6.7,1.6c-0.6-0.2-1.1-0.4-1.5-0.5c-0.4-0.1-0.7-0.3-0.9-0.4c-0.3-0.1-0.5-0.2-0.7-0.3
				c-0.2-0.1-0.4-0.2-0.7-0.3l2.4-6.5c0.9,0.3,1.7,0.6,2.6,0.9c0.8,0.3,1.7,0.6,2.6,0.9C341.2,57.1,342.2,58.6,341.4,60.6z"/>
			<path class="st4" d="M350.9,88.1l4.8-20.3l19.1,4.5l-4.8,20.3L350.9,88.1z M371.4,73.3l-1.7-0.4l-2.5,10.7c0,0.1,0,0.2-0.1,0.3
				c0,0.1-0.1,0.2-0.1,0.3c-0.2,0.6-0.5,1.1-0.9,1.6c-0.4,0.4-0.9,0.8-1.4,1c-0.5,0.3-1.1,0.4-1.8,0.4s-1.3-0.1-1.9-0.3
				c-1.1-0.4-1.9-1.1-2.4-2.2c-0.5-1-0.6-2.2-0.3-3.4l2.5-10.6l-3.3-0.8l-0.4,1.7l1.7,0.4l-2.1,8.9c-0.2,0.8-0.3,1.6-0.2,2.4
				c0.1,0.8,0.3,1.5,0.6,2.2c0.3,0.7,0.8,1.3,1.3,1.8c0.5,0.5,1.2,0.9,2,1.2c0.8,0.3,1.7,0.4,2.5,0.4c0.8,0,1.6-0.2,2.4-0.5
				c0.7-0.3,1.4-0.8,2-1.4c0.6-0.6,1-1.3,1.4-2.2c0.1-0.1,0.1-0.3,0.2-0.4c0.1-0.1,0.1-0.3,0.1-0.4L371.4,73.3z"/>
			<path class="st4" d="M384.9,97.3l-13.4-6.5l8.4-17.2l13.3,6.5L384.9,97.3z M383.5,93.3l0.9-1.7l-5.6-2.7l4.9-9.9l-3-1.4l-0.9,1.7
				l1.2,0.6l-4.8,9.9L383.5,93.3z"/>
			<path class="st4" d="M415.4,83.8l-9.1,20.9l-16.9-7.3l9.1-20.9L415.4,83.8z M411.3,85.6l-11.9-5.1l-0.9,2.2l2,0.9l-6,13.6
				l10.2,4.4l1-2.2l-8-3.5l2.1-4.9l7.4,3.2l1-2.2l-7.4-3.2l1.9-4.3l7.7,3.3L411.3,85.6z"/>
			<path class="st4" d="M436.9,86.3l-8.5,24.6l-18-6.1l8.5-24.6L436.9,86.3z M430.6,91.1c0.3-1.5,0.2-2.7-0.4-3.6
				c-0.5-0.8-1.4-1.5-2.7-2c-1.7-0.6-3.3-0.8-4.6-0.5c-1.3,0.3-2.3,1.3-2.8,2.8c-0.3,0.9-0.4,1.6-0.2,2.4c0.2,0.7,0.6,1.4,1.2,2
				c0.5,0.6,1.1,1.1,1.9,1.5c0.7,0.4,1.4,0.9,2,1.4c0.6,0.5,1.1,1,1.5,1.5c0.3,0.6,0.4,1.2,0.1,2c-0.2,0.5-0.5,0.9-0.8,1.2
				c-0.4,0.3-0.8,0.5-1.2,0.6c-0.5,0.1-0.9,0.2-1.4,0.2c-0.5,0-1-0.1-1.4-0.3c-1-0.4-1.9-1-2.4-1.9c-0.6-0.9-0.7-1.8-0.4-2.9
				l-1.6-0.3c-0.3,1.5-0.1,2.9,0.5,4c0.6,1.2,1.6,2,3.1,2.6c0.8,0.3,1.6,0.5,2.3,0.5c0.8,0,1.5-0.1,2.2-0.3c0.7-0.2,1.3-0.6,1.8-1
				c0.5-0.5,0.9-1.1,1.2-1.8c0.6-1.6,0.4-2.9-0.6-4.1c-0.5-0.6-1.1-1.1-1.9-1.5c-0.8-0.5-1.5-0.9-2.2-1.4c-0.7-0.5-1.2-1.1-1.6-1.7
				c-0.4-0.6-0.4-1.3-0.1-2.1c0.3-0.7,0.9-1.3,1.7-1.6c0.9-0.3,2-0.2,3.4,0.3c0.9,0.3,1.5,0.8,1.9,1.4c0.4,0.6,0.5,1.4,0.2,2.4
				L430.6,91.1z"/>
		</g>
		<g>
			<g>
				<path class="st2" d="M360.9,155.9l-3.4-7.4c-0.6-1.4,0-3,1.3-3.6c1.4-0.6,3,0,3.6,1.3l2.3,4.9l12.5-5.7c1.4-0.6,3,0,3.6,1.3
					c0.6,1.4,0,3-1.3,3.6l-14.9,6.8C363.2,157.9,361.6,157.3,360.9,155.9L360.9,155.9z M349.2,142l-17.9-6.7c-1.4-0.5-3,0.2-3.5,1.6
					c-0.5,1.4,0.2,3,1.6,3.5l17.9,6.7c1.4,0.5,3-0.2,3.5-1.6C351.3,144.1,350.6,142.5,349.2,142z M370.1,166.3
					c-0.6-1.4-2.2-2-3.6-1.3l-6.6,3l-3-6.6c-0.6-1.4-2.2-2-3.6-1.3s-2,2.2-1.3,3.6l3,6.6l-6.6,3c-1.4,0.6-2,2.2-1.3,3.6
					c0.6,1.4,2.2,2,3.6,1.3l6.6-3l3,6.6c0.6,1.4,2.2,2,3.6,1.3s2-2.2,1.3-3.6l-3-6.6l6.6-3C370.1,169.3,370.7,167.7,370.1,166.3
					L370.1,166.3z M341.5,162.4l-17.9-6.7c-1.4-0.5-3,0.2-3.5,1.6c-0.5,1.4,0.2,3,1.6,3.5l17.9,6.7c1.4,0.5,3-0.2,3.5-1.6
					C343.6,164.5,342.9,162.9,341.5,162.4z"/>
			</g>
			<g>
				<path class="st4" d="M361.5,154.4l-3.4-7.4c-0.6-1.4,0-3,1.3-3.6s3,0,3.6,1.3l2.3,4.9l12.5-5.7c1.4-0.6,3,0,3.6,1.3s0,3-1.3,3.6
					l-14.9,6.8C363.8,156.4,362.1,155.8,361.5,154.4L361.5,154.4z M349.7,140.5l-17.9-6.7c-1.4-0.5-3,0.2-3.5,1.6
					c-0.5,1.4,0.2,3,1.6,3.5l17.9,6.7c1.4,0.5,3-0.2,3.5-1.6C351.9,142.6,351.1,141,349.7,140.5z M370.6,164.8
					c-0.6-1.4-2.2-2-3.6-1.3l-6.6,3l-3-6.6c-0.6-1.4-2.2-2-3.6-1.3c-1.4,0.6-2,2.2-1.3,3.6l3,6.6l-6.6,3c-1.4,0.6-2,2.2-1.3,3.6
					s2.2,2,3.6,1.3l6.6-3l3,6.6c0.6,1.4,2.2,2,3.6,1.3c1.4-0.6,2-2.2,1.3-3.6l-3-6.6l6.6-3C370.7,167.8,371.3,166.2,370.6,164.8
					L370.6,164.8z M342.1,160.9l-17.9-6.7c-1.4-0.5-3,0.2-3.5,1.6c-0.5,1.4,0.2,3,1.6,3.5l17.9,6.7c1.4,0.5,3-0.2,3.5-1.6
					C344.2,163,343.5,161.4,342.1,160.9z"/>
			</g>
		</g>
	</g>
	<path class="st2" d="M310.7,78l4.2,134.1l9.2,3.3l-0.7-130.9C323.5,84.6,319.9,76.1,310.7,78z"/>
	<g>
		<g>
			<path class="st7" d="M291.1,299.8l-13.7-6.8c-0.6-0.3-1.4-0.3-2,0l-8,4l-4.4,0.2c-1.5,0.7-3.2-0.3-3.2-2l2.5-21.6l27.4-1.8
				l4.7,10.5v15.6C294.3,299.4,292.6,300.5,291.1,299.8L291.1,299.8z"/>
			<path class="st8" d="M294.3,275l-20-5.1l-15.9,5.1v7.1v15.6c0,1.7,1.8,2.7,3.2,2l5.7-2.9v-13c0-1,0.8-1.8,1.8-1.8h25.1V275z"/>
			<path class="st9" d="M294.3,296.9v0.9c0,1.7-1.8,2.7-3.2,2l-8.4-4.2l-5.3-2.6c-0.3-0.2-0.7-0.2-1-0.2h8.9c0.5,0,1,0.1,1.4,0.3
				L294.3,296.9z"/>
		</g>
		<path class="st10" d="M177.4,83.1l6.1-5.1h129.3c5,0,9,4,9,8.9v179.2c0,4.9-4.7,7.4-9.6,7.4L177,272.1L177.4,83.1z"/>
		<path class="st1" d="M321.7,266.1c0,4.9-4,8.9-9,8.9H174.5l-11.4-93.6L174.5,78h9v184.1c0,2.2,1.8,4,4,4H321.7z"/>
		<path class="st2" d="M174.3,273.5l-11-0.7c-5,0-9-4-9-8.9L152.7,88c0-4.9,2.9-10.1,7.9-10.1h13.9v188.1l-2,3.4L174.3,273.5z"/>
		<path class="st3" d="M174.5,266.1v8.9h-13.9c-5,0-9-4-9-8.9V86.9c0-4.9,4-8.9,9-8.9v185c0,1.7,1.4,3.1,3.1,3.1H174.5z"/>
		<g>
			<path class="st11" d="M217.1,132.2l-21.5,1.9L193,106l21.5-1.9L217.1,132.2z M211.5,116.4l-0.3-3.4l-13.9,1.2l0.3,3.4l5.3-0.5
				l1.3,14.6l3.5-0.3l-1.4-14.5L211.5,116.4z"/>
			<path class="st11" d="M209,143.5l2,18.5l-16,1.7l-2-18.5L209,143.5z M206.5,146.6l-1.8,0.2l0.6,4.6l-5.2,0.6l-0.5-4.7l-3.1,0.4
				l0.1,1.8l1.3-0.2l1.1,9.8l1.8-0.1l-0.6-5.3l5.2-0.6l0.6,5.3l1.9-0.2L206.5,146.6z"/>
			<path class="st11" d="M234.2,146.6l-1.7,15.3l-12.3-1.3l1.6-15.3L234.2,146.6z M231.9,148.6l-8.7-0.9l-0.2,1.6l1.5,0.2l-1.1,9.9
				l7.5,0.8l0.2-1.6l-5.9-0.7l0.4-3.6l5.5,0.6l0.2-1.6l-5.4-0.6l0.3-3.1l5.6,0.6L231.9,148.6z"/>
			<path class="st11" d="M260.8,145.9l-1.6,16.8l-15.2-1.4l1.5-16.7L260.8,145.9z M258.2,153.1c0-0.9-0.1-1.8-0.4-2.6
				c-0.3-0.8-0.7-1.4-1.2-2c-0.5-0.6-1.1-1-1.8-1.3c-0.7-0.3-1.5-0.5-2.3-0.5c-0.8,0-1.6,0.2-2.3,0.5c-0.7,0.3-1.3,0.8-1.9,1.4
				c-0.5,0.6-0.9,1.3-1.2,2.2c-0.3,0.8-0.5,1.8-0.5,2.8c0,0.9,0.1,1.8,0.4,2.6c0.3,0.8,0.6,1.5,1.1,2.1c0.5,0.6,1.1,1,1.8,1.4
				c0.7,0.3,1.5,0.5,2.4,0.5c0.8,0,1.6-0.2,2.3-0.6c0.7-0.4,1.3-0.9,1.9-1.5c0.5-0.6,0.9-1.4,1.2-2.3
				C258.1,155,258.2,154.1,258.2,153.1z M256.4,153.1c0,0.6-0.1,1.2-0.3,1.8c-0.2,0.6-0.4,1.2-0.8,1.7c-0.4,0.5-0.8,0.9-1.3,1.3
				c-0.5,0.3-1.1,0.5-1.8,0.5c-0.6,0-1.1-0.1-1.6-0.4c-0.5-0.2-0.9-0.6-1.2-1c-0.3-0.4-0.6-0.9-0.7-1.5c-0.2-0.6-0.2-1.2-0.2-1.8
				c0-0.7,0.1-1.4,0.3-2c0.2-0.6,0.5-1.2,0.8-1.6c0.3-0.5,0.8-0.8,1.2-1.1c0.5-0.3,1-0.4,1.6-0.4c0.6,0,1.1,0.1,1.5,0.3
				c0.5,0.2,0.9,0.5,1.3,0.9c0.4,0.4,0.6,0.9,0.9,1.4C256.3,151.8,256.4,152.5,256.4,153.1z"/>
			<path class="st11" d="M285.2,164.4l-18-2.5l2.7-19.1l18,2.5L285.2,164.4z M281.2,162.6c0.4,0.1,0.7,0.1,1,0.1
				c0.3,0,0.5,0.1,0.7,0.1c0.2,0,0.4,0,0.5,0.1c0.2,0,0.3,0,0.5,0.1l0.2-1.3c-0.3,0-0.7-0.1-1.1-0.1c-0.4,0-0.9-0.1-1.5-0.2
				c-0.8-0.1-1.4-0.4-1.8-0.9c-0.4-0.5-0.6-1.2-0.6-2.1c0-0.3,0-0.8,0.1-1.3c0-0.6,0.1-1.1,0.1-1.7c0-0.6-0.1-1.1-0.3-1.5
				c-0.2-0.4-0.5-0.8-0.8-1.1c0.8-0.2,1.5-0.6,1.9-1.2c0.4-0.6,0.6-1.3,0.6-2.2c0-1-0.3-1.7-1-2.3c-0.7-0.5-1.6-0.9-2.9-1.1
				l-5.7-0.8l-0.2,1.3l1.4,0.2l-1.6,11.6l1.3,0.2l0.8-5.9l3.4,0.5c0.8,0.1,1.3,0.4,1.5,0.9c0.2,0.5,0.4,1.1,0.4,1.8
				c0,0.4,0,0.8-0.1,1.2c0,0.4-0.1,0.8-0.1,1.2c0,1.3,0.3,2.3,0.8,3.1C279.2,162,280.1,162.5,281.2,162.6z M279.3,149.7
				c-0.2,1.3-1.1,2-2.8,2c-0.4,0-0.7,0-1.1-0.1c-0.4-0.1-0.7-0.1-1-0.1c-0.2,0-0.5-0.1-0.6-0.1c-0.2,0-0.3-0.1-0.5-0.1
				c-0.1,0-0.3,0-0.5-0.1l0.6-4.3c0.8,0.1,1.5,0.2,2.2,0.3c0.7,0.1,1.3,0.2,1.9,0.4c0.5,0.2,1,0.4,1.3,0.7c0.3,0.3,0.5,0.7,0.5,1.2
				c0,0.1,0,0.1,0,0.2C279.3,149.6,279.3,149.7,279.3,149.7z"/>
			<path class="st11" d="M310,161.1l-14.6-0.1l0.1-15l14.6,0.1L310,161.1z M307.5,149l-0.9-0.6l-3.7,5.3l-3.3-5.1l-1.9-0.1v1.1h1.3
				l3.3,5.2l-0.1,4.7h1.1l0.1-4.7L307.5,149z"/>
		</g>
		<g>
			<path class="st4" d="M216.9,131l-21.5,1.9l-2.6-28.2l21.5-1.9L216.9,131z M211.3,115.2l-0.3-3.4l-13.9,1.2l0.3,3.4l5.3-0.5
				l1.3,14.6l3.5-0.3l-1.4-14.5L211.3,115.2z"/>
			<path class="st4" d="M208.8,142.2l2,18.5l-16,1.7l-2-18.5L208.8,142.2z M206.3,145.4l-1.8,0.2l0.6,4.6l-5.2,0.6l-0.5-4.7
				l-3.1,0.4l0.1,1.8l1.3-0.2l1.1,9.8l1.8-0.1l-0.6-5.3l5.2-0.6l0.6,5.3l1.9-0.2L206.3,145.4z"/>
			<path class="st4" d="M234,145.4l-1.7,15.3l-12.3-1.3l1.6-15.3L234,145.4z M231.7,147.4l-8.7-0.9l-0.2,1.6l1.5,0.2l-1.1,9.9
				l7.5,0.8l0.2-1.6l-5.9-0.7l0.4-3.6l5.5,0.6l0.2-1.6l-5.4-0.6l0.3-3.1l5.6,0.6L231.7,147.4z"/>
			<path class="st4" d="M260.5,144.7l-1.6,16.8l-15.2-1.4l1.5-16.7L260.5,144.7z M258,151.9c0-0.9-0.1-1.8-0.4-2.6
				c-0.3-0.8-0.7-1.4-1.2-2c-0.5-0.6-1.1-1-1.8-1.3c-0.7-0.3-1.5-0.5-2.3-0.5c-0.8,0-1.6,0.2-2.3,0.5c-0.7,0.3-1.3,0.8-1.9,1.4
				c-0.5,0.6-0.9,1.3-1.2,2.2c-0.3,0.8-0.5,1.8-0.5,2.8c0,0.9,0.1,1.8,0.4,2.6c0.3,0.8,0.6,1.5,1.1,2.1c0.5,0.6,1.1,1,1.8,1.4
				c0.7,0.3,1.5,0.5,2.4,0.5c0.8,0,1.6-0.2,2.3-0.6c0.7-0.4,1.3-0.9,1.9-1.5c0.5-0.6,0.9-1.4,1.2-2.3
				C257.8,153.8,258,152.9,258,151.9z M256.2,151.9c0,0.6-0.1,1.2-0.3,1.8c-0.2,0.6-0.4,1.2-0.8,1.7c-0.4,0.5-0.8,0.9-1.3,1.3
				c-0.5,0.3-1.1,0.5-1.8,0.5c-0.6,0-1.1-0.1-1.6-0.4c-0.5-0.2-0.9-0.6-1.2-1c-0.3-0.4-0.6-0.9-0.7-1.5c-0.2-0.6-0.2-1.2-0.2-1.8
				c0-0.7,0.1-1.4,0.3-2c0.2-0.6,0.5-1.2,0.8-1.6c0.3-0.5,0.8-0.8,1.2-1.1c0.5-0.3,1-0.4,1.6-0.4c0.6,0,1.1,0.1,1.5,0.3
				c0.5,0.2,0.9,0.5,1.3,0.9c0.4,0.4,0.6,0.9,0.9,1.4C256.1,150.6,256.2,151.2,256.2,151.9z"/>
			<path class="st4" d="M285,163.2l-18-2.5l2.7-19.1l18,2.5L285,163.2z M281,161.4c0.4,0.1,0.7,0.1,1,0.1c0.3,0,0.5,0.1,0.7,0.1
				c0.2,0,0.4,0,0.5,0.1c0.2,0,0.3,0,0.5,0.1l0.2-1.3c-0.3,0-0.7-0.1-1.1-0.1c-0.4,0-0.9-0.1-1.5-0.2c-0.8-0.1-1.4-0.4-1.8-0.9
				c-0.4-0.5-0.6-1.2-0.6-2.1c0-0.3,0-0.8,0.1-1.3c0-0.6,0.1-1.1,0.1-1.7c0-0.6-0.1-1.1-0.3-1.5c-0.2-0.4-0.5-0.8-0.8-1.1
				c0.8-0.2,1.5-0.6,1.9-1.2c0.4-0.6,0.6-1.3,0.6-2.2c0-1-0.3-1.7-1-2.3c-0.7-0.5-1.6-0.9-2.9-1.1l-5.7-0.8l-0.2,1.3l1.4,0.2
				l-1.6,11.6l1.3,0.2l0.8-5.9l3.4,0.5c0.8,0.1,1.3,0.4,1.5,0.9c0.2,0.5,0.4,1.1,0.4,1.8c0,0.4,0,0.8-0.1,1.2c0,0.4-0.1,0.8-0.1,1.2
				c0,1.3,0.3,2.3,0.8,3.1S279.9,161.3,281,161.4z M279.1,148.5c-0.2,1.3-1.1,2-2.8,2c-0.4,0-0.7,0-1.1-0.1c-0.4-0.1-0.7-0.1-1-0.1
				c-0.2,0-0.5-0.1-0.6-0.1c-0.2,0-0.3-0.1-0.5-0.1c-0.1,0-0.3,0-0.5-0.1l0.6-4.3c0.8,0.1,1.5,0.2,2.2,0.3c0.7,0.1,1.3,0.2,1.9,0.4
				c0.5,0.2,1,0.4,1.3,0.7c0.3,0.3,0.5,0.7,0.5,1.2c0,0.1,0,0.1,0,0.2C279.1,148.4,279.1,148.4,279.1,148.5z"/>
			<path class="st4" d="M309.7,159.9l-14.6-0.1l0.1-15l14.6,0.1L309.7,159.9z M307.3,147.8l-0.9-0.6l-3.7,5.3l-3.3-5.1l-1.9-0.1v1.1
				h1.3l3.3,5.2l-0.1,4.7h1.1l0.1-4.7L307.3,147.8z"/>
		</g>
		<g>
			<path class="st2" d="M241.7,199.1l-3.2-3.1c-0.3-0.3-0.8-0.3-1.1,0c-0.3,0.3-0.3,0.8,0,1.1l3.2,3.1c0.1,0.1,0.3,0.2,0.5,0.2
				c0.2,0,0.4-0.1,0.5-0.2C242,199.9,242,199.4,241.7,199.1z M251.3,190.2c-0.4,0-0.8,0.3-0.8,0.8v4.5c0,0.4,0.3,0.8,0.8,0.8
				c0.4,0,0.8-0.3,0.8-0.8V191C252.1,190.6,251.7,190.2,251.3,190.2z M265.1,195.9c-0.3-0.3-0.8-0.3-1.1,0l-3.2,3.1
				c-0.3,0.3-0.3,0.8,0,1.1c0.1,0.1,0.3,0.2,0.5,0.2c0.2,0,0.4-0.1,0.5-0.2l3.2-3.1C265.4,196.7,265.4,196.2,265.1,195.9
				L265.1,195.9z M270.1,208.9h-4.5c-0.4,0-0.8,0.3-0.8,0.8c0,0.4,0.3,0.8,0.8,0.8h4.5c0.4,0,0.8-0.3,0.8-0.8
				C270.9,209.3,270.5,208.9,270.1,208.9z M237,208.9h-4.5c-0.4,0-0.8,0.3-0.8,0.8c0,0.4,0.3,0.8,0.8,0.8h4.5c0.4,0,0.8-0.3,0.8-0.8
				C237.8,209.3,237.4,208.9,237,208.9z M263.5,209.7c0-6.7-5.5-12.2-12.2-12.2c-6.7,0-12.2,5.5-12.2,12.2c0,2.3,0.7,4.6,1.9,6.5
				l4.8,9h-0.4c-1.5,0-2.7,1.2-2.7,2.7c0,0.7,0.3,1.4,0.8,1.9c-0.5,0.5-0.8,1.2-0.8,1.9c0,1.5,1.2,2.7,2.7,2.7h2.2
				c0.4,1.7,1.8,2.9,3.6,2.9c1.8,0,3.3-1.3,3.6-2.9h2.2c1.5,0,2.7-1.2,2.7-2.7c0-0.7-0.3-1.4-0.8-1.9c0.5-0.5,0.8-1.2,0.8-1.9
				c0-1.5-1.2-2.7-2.7-2.7h-0.4l4.8-9C262.9,214.3,263.5,212,263.5,209.7z M251.3,235.8c-0.9,0-1.7-0.6-2-1.4h4.1
				C253.1,235.2,252.3,235.8,251.3,235.8z M257.2,232.9h-11.7c-0.6,0-1.1-0.5-1.1-1.1c0-0.6,0.5-1.1,1.1-1.1h11.7
				c0.6,0,1.1,0.5,1.1,1.1C258.3,232.3,257.8,232.9,257.2,232.9z M257.2,226.8c0.6,0,1.1,0.5,1.1,1.1c0,0.6-0.5,1.1-1.1,1.1h-11.7
				c-0.6,0-1.1-0.5-1.1-1.1c0-0.6,0.5-1.1,1.1-1.1H257.2z M248.9,217.6l2.4-1.5l2.4,1.5l-1.5,7.7h-1.8L248.9,217.6z M260.3,215.5
				l-5.2,9.8h-1.3l1.4-7.6l2.9-1.8c0.4-0.2,0.5-0.7,0.2-1c-0.2-0.4-0.7-0.5-1.1-0.2l-2.8,1.7l-2.8-1.7c-0.2-0.2-0.6-0.2-0.8,0
				l-2.8,1.7l-2.8-1.7c-0.4-0.2-0.8-0.1-1.1,0.2c-0.2,0.4-0.1,0.8,0.2,1l2.9,1.8l1.4,7.6h-1.3l-5.2-9.8c0,0,0,0,0-0.1
				c-1.1-1.7-1.7-3.7-1.7-5.7c0-5.9,4.8-10.6,10.7-10.6c5.9,0,10.7,4.8,10.7,10.6C262,211.7,261.4,213.7,260.3,215.5
				C260.3,215.5,260.3,215.5,260.3,215.5L260.3,215.5z"/>
			<path class="st12" d="M253.7,217.6l-1.5,7.7h-1.8l-1.5-7.7l2.4-1.5L253.7,217.6z"/>
			<path class="st4" d="M262,209.7c0,2-0.6,4-1.7,5.7c0,0,0,0,0,0.1l-5.2,9.8h-1.3l1.4-7.6l2.9-1.8c0.4-0.2,0.5-0.7,0.2-1
				c-0.2-0.4-0.7-0.5-1.1-0.2l-2.8,1.7l-2.8-1.7c-0.2-0.2-0.6-0.2-0.8,0l-2.8,1.7l-2.8-1.7c-0.4-0.2-0.8-0.1-1.1,0.2
				c-0.2,0.4-0.1,0.8,0.2,1l2.9,1.8l1.4,7.6h-1.3l-5.2-9.8c0,0,0,0,0-0.1c-1.1-1.7-1.7-3.7-1.7-5.7c0-5.9,4.8-10.6,10.7-10.6
				C257.2,199,262,203.8,262,209.7L262,209.7z"/>
			<g>
				<path class="st12" d="M258.3,227.9c0,0.6-0.5,1.1-1.1,1.1h-11.7c-0.6,0-1.1-0.5-1.1-1.1c0-0.6,0.5-1.1,1.1-1.1h11.7
					C257.8,226.8,258.3,227.3,258.3,227.9z"/>
				<path class="st12" d="M258.3,231.7c0,0.6-0.5,1.1-1.1,1.1h-11.7c-0.6,0-1.1-0.5-1.1-1.1c0-0.6,0.5-1.1,1.1-1.1h11.7
					C257.8,230.6,258.3,231.1,258.3,231.7z"/>
				<path class="st12" d="M253.4,234.4c-0.3,0.8-1.1,1.4-2,1.4c-0.9,0-1.7-0.6-2-1.4H253.4z"/>
			</g>
		</g>
	</g>
</g>
</svg>
