<?xml version="1.0" encoding="utf-8"?>
<!-- Generator: Adobe Illustrator 25.0.0, SVG Export Plug-In . SVG Version: 6.00 Build 0)  -->
<svg version="1.1" id="Layer_1" xmlns="http://www.w3.org/2000/svg" xmlns:xlink="http://www.w3.org/1999/xlink" x="0px" y="0px"
	 viewBox="0 0 419.1 300" style="enable-background:new 0 0 419.1 300;" xml:space="preserve">
<style type="text/css">
	.st0{fill:#FF6666;}
	.st1{fill:#E25A5A;}
	.st2{fill:#7D9AB2;}
	.st3{fill:#FFCF66;}
	.st4{fill:#FFBC2B;}
	.st5{fill:#31B4C9;}
	.st6{fill:#288499;}
	.st7{fill:#E55E5E;}
	.st8{fill:#B54D4D;}
	.st9{fill:#4CA859;}
	.st10{fill:#2B6E37;}
	.st11{fill:#35414D;}
	.st12{fill:#FAD207;}
	.st13{fill:#FAA515;}
	.st14{fill:#FF492C;}
	.st15{fill:#FDDD45;}
	.st16{fill:#F8C52D;}
</style>
<g>
	<g>
		<g>
			<path class="st0" d="M4.4,252.8h46V300h-46L4.4,252.8z"/>
		</g>
		<g>
			<path class="st1" d="M21.9,281.5V300H4.4v-30.6h10.1C18.6,269.4,21.9,274.8,21.9,281.5L21.9,281.5z"/>
		</g>
		<g>
			<g>
				<path class="st2" d="M52.1,256.8H2.8c-1.5,0-2.8-2-2.8-4.6v-8.3c0-2.5,1.2-4.6,2.8-4.6h49.3c1.5,0,2.8,2,2.8,4.6v8.3
					C54.9,254.8,53.6,256.8,52.1,256.8z"/>
			</g>
		</g>
	</g>
	<g>
		<g>
			<path class="st3" d="M78.3,224.1h46V300h-46V224.1z"/>
		</g>
		<g>
			<path class="st4" d="M97.9,255.4V300H78.3v-56.8h12.2C94.6,243.2,97.9,248.7,97.9,255.4L97.9,255.4z"/>
		</g>
		<g>
			<g>
				<path class="st2" d="M126,228.1H76.7c-1.5,0-2.8-2-2.8-4.6v-8.3c0-2.5,1.2-4.6,2.8-4.6H126c1.5,0,2.8,2,2.8,4.6v8.3
					C128.8,226.1,127.5,228.1,126,228.1z"/>
			</g>
		</g>
	</g>
	<g>
		<g>
			<path class="st5" d="M151.2,195.4h46V300h-46V195.4z"/>
		</g>
		<g>
			<path class="st6" d="M170.2,227.7V300h-19.1v-84.5h11.7C167,215.5,170.2,221,170.2,227.7L170.2,227.7z"/>
		</g>
		<g>
			<g>
				<path class="st2" d="M198.8,199.4h-49.3c-1.5,0-2.8-2-2.8-4.6v-8.3c0-2.5,1.2-4.6,2.8-4.6h49.3c1.5,0,2.8,2,2.8,4.6v8.3
					C201.6,197.3,200.4,199.4,198.8,199.4z"/>
			</g>
		</g>
	</g>
	<g>
		<g>
			<path class="st7" d="M224,166.7h46V300h-46V166.7z"/>
		</g>
		<g>
			<path class="st8" d="M242.6,198.6V300H224V186.5h11.2C239.3,186.5,242.6,191.9,242.6,198.6z"/>
		</g>
		<g>
			<g>
				<path class="st2" d="M271.7,170.7h-49.3c-1.5,0-2.8-2-2.8-4.6v-8.3c0-2.5,1.2-4.6,2.8-4.6h49.3c1.5,0,2.8,2,2.8,4.6v8.3
					C274.4,168.6,273.2,170.7,271.7,170.7z"/>
			</g>
		</g>
	</g>
	<g>
		<g>
			<path class="st9" d="M298.3,138h92v162h-92V138z"/>
		</g>
		<g>
			<path class="st10" d="M298.3,138v17.2H356c8.4,0,15.2,5.6,15.2,12.6V300h19.1V138H298.3z"/>
		</g>
		<g>
			<g>
				<path class="st2" d="M393.7,142H295c-3.1,0-5.5-2-5.5-4.6v-8.3c0-2.5,2.5-4.6,5.5-4.6h98.7c3.1,0,5.5,2,5.5,4.6v8.3
					C399.2,139.9,396.7,142,393.7,142z"/>
			</g>
			<g>
				<path class="st11" d="M399.2,129.1v8.3c0,2.5-2.5,4.6-5.5,4.6h-16.5c3.1,0,5.5-2,5.5-4.6v-8.3c0-2.5-2.5-4.6-5.5-4.6h16.5
					C396.7,124.5,399.2,126.6,399.2,129.1z"/>
			</g>
		</g>
	</g>
	<g>
		<g>
			<g>
				<path class="st10" d="M369.7,264.4h-20.5c-2.7,0-5-1.8-5-4.1s2.2-4.1,5-4.1h20.5c2.7,0,5,1.8,5,4.1S372.4,264.4,369.7,264.4z"/>
			</g>
		</g>
		<g>
			<g>
				<path class="st10" d="M369.7,278.5H319c-2.7,0-5-1.8-5-4.1c0-2.3,2.2-4.1,5-4.1h50.7c2.7,0,5,1.8,5,4.1
					C374.7,276.6,372.4,278.5,369.7,278.5z"/>
			</g>
		</g>
	</g>
	<g>
		<g>
			<g>
				<path class="st10" d="M346.6,167.9l4.8,6.8c0.3,0.5,0.9,0.9,1.4,1l7.9,2.4c1.5,0.5,2.1,2.3,1.2,3.6l-5,6.6
					c-0.4,0.5-0.6,1.1-0.5,1.7l0.1,8.3c0,1.6-1.5,2.7-3,2.2l-7.8-2.7c-0.6-0.2-1.2-0.2-1.8,0l-7.8,2.7c-1.5,0.5-3.1-0.6-3-2.2
					l0.1-8.3c0-0.6-0.2-1.2-0.5-1.7l-5-6.6c-1-1.3-0.4-3.1,1.2-3.6l7.9-2.4c0.6-0.2,1.1-0.5,1.4-1l4.8-6.8
					C343.7,166.6,345.7,166.6,346.6,167.9L346.6,167.9z"/>
			</g>
		</g>
		<g>
			<g>
				<path class="st10" d="M361.8,181.7l-5,6.6c-0.4,0.5-0.6,1.1-0.5,1.7l0.1,8.3c0,1.6-1.5,2.7-3,2.2l-7.8-2.7
					c-0.6-0.2-1.2-0.2-1.8,0l-7.8,2.7c-1.5,0.5-3.1-0.6-3-2.2l0.1-3c11.2-3.9,17.6-12,21.2-19l6.4,2
					C362.2,178.6,362.8,180.4,361.8,181.7z"/>
			</g>
		</g>
	</g>
	<g id="g2476_1_">
		<g id="g2482_1_" transform="translate(345.5,141.5)">
			<g id="path2484_1_">
				<path class="st12" d="M25.8-35.2l-26.1,2.9l-25.9-2.9c12.2,0,16.5-8.7,17.4-20.3c0.1-1.5,0.2-3.1,0.2-4.7v-1.1
					c2.7,0.6,5.6,0.9,8.8,0.9c3,0,5.8-0.3,8.5-0.8v1c0,1.6,0,3.2,0.2,4.8C9.5-43.9,13.6-35.2,25.8-35.2"/>
			</g>
		</g>
		<g id="g2486_1_" transform="translate(379.5,120.3203)">
			<g id="path2488_1_">
				<path class="st12" d="M1.6-7.9v9.7L-33.9,2L-70,1.8v-9.7c0-3.4,2.7-6.1,6.1-6.1h59.4c2.7,0,5.1,1.8,5.8,4.3
					C1.5-9.2,1.6-8.6,1.6-7.9"/>
			</g>
		</g>
		<g id="g2490_1_" transform="translate(378.5801,126.5)">
			<g id="path2492_1_">
				<path class="st13" d="M2.2-15.9h-64.1c-1.6,0-2.9,1.3-2.9,2.9v8.6h-4.3v-9.7c0-3.4,2.7-6.1,6.1-6.1h59.4
					C-0.9-20.2,1.5-18.4,2.2-15.9"/>
			</g>
		</g>
		<g id="g2494_1_" transform="translate(286.04,212.1299)">
			<g id="path2496_1_">
				<path class="st13" d="M68.2-126.1c-2.8,0.5-5.7,0.8-8.6,0.8c-3.1,0-6.1-0.3-8.9-0.8c0.1-1.5,0.2-3.1,0.2-4.7v-1.1l8.8-0.3
					l8.5,0.4v1C68-129.2,68.1-127.6,68.2-126.1"/>
			</g>
		</g>
		<g id="g2498_1_" transform="translate(504.5,403)">
			<g id="path2500_1_">
				<path class="st12" d="M-87.5-371.7c0,21.3-17.3,38.6-38.6,38.6h-5.6c2.5-2.6,4.7-5.5,6.5-8.6c14.7-0.4,26.7-11.5,28.8-25.7H-116
					c0.6-3.1,1-6,1.3-8.6h22.8C-89.4-376-87.5-374.1-87.5-371.7"/>
			</g>
		</g>
		<g id="g2502_1_" transform="translate(398.0801,302.3301)">
			<g id="path2504_1_">
				<path class="st13" d="M-11.7-242.2c-0.7,1.4-1.4,2.7-2.2,4c-1.2,2-2.5,3.9-3.8,5.6c-0.7,0-1.3,0.1-2,0.1h-5.6l0.6-4.1l5.9-4.5
					C-18.8-241.1-14-241.5-11.7-242.2"/>
			</g>
		</g>
		<g id="g2506_1_" transform="translate(430.1201,418)">
			<g id="path2508_1_">
				<path class="st13" d="M-34.5-391c0,0.2-0.1,0.4-0.1,0.7c-0.3,2.7-0.7,5.3-1.2,7.9h-5.8l-2.1-4.3l3.5-4.3H-34.5z"/>
			</g>
		</g>
		<g id="g2510_1_" transform="translate(504.5,403)">
			<g id="path2512_1_">
				<path class="st12" d="M-87.5-371.7c0,20.6-16.3,37.5-36.6,38.5c1.4-1.7,2.6-3.6,3.8-5.6c0.8-1.3,1.5-2.6,2.2-4
					c11.3-3.2,19.9-12.8,21.6-24.6h-13.7c0.5-2.6,0.9-5.3,1.2-7.9c0-0.2,0.1-0.5,0.1-0.7h17.1C-89.4-376-87.5-374.1-87.5-371.7"/>
			</g>
		</g>
		<g id="g2514_1_" transform="translate(161.5,268.5)">
			<g id="path2516_1_">
				<path class="st12" d="M156.9-198.6h-5.6c-21.3,0-38.6-17.3-38.6-38.6c0-2.4,1.9-4.3,4.3-4.3h22.8c0.3,2.6,0.7,5.5,1.3,8.6h-19.6
					c2.1,14.2,14.1,25.2,28.8,25.7C152.3-204.2,154.4-201.2,156.9-198.6"/>
			</g>
		</g>
		<g id="g2518_1_" transform="translate(106.6602,388)">
			<g id="path2520_1_">
				<path class="st13" d="M196-352.4h-5.8c-0.5-2.6-0.9-5.3-1.2-7.9c0-0.2-0.1-0.5-0.1-0.7h5.8l3.5,4.4L196-352.4z"/>
			</g>
		</g>
		<g id="g2522_1_" transform="translate(161.5,268.5)">
			<g id="path2524_1_">
				<path class="st13" d="M156.9-198.6h-5.6c-0.7,0-1.4,0-2-0.1c-1.4-1.7-2.6-3.6-3.8-5.6c-0.8-1.3-1.5-2.6-2.2-4
					c2.3,0.6,7.1,1.1,7.1,1.1l5.4,3.8L156.9-198.6z"/>
			</g>
		</g>
		<g id="g2534_1_" transform="translate(412.5,453.5)">
			<g id="path2536_1_">
				<path class="st12" d="M-21.9-436.7c0,0,0,2.2-0.3,5.7c-0.1,1.3-0.2,2.8-0.4,4.4c-0.3,2.6-0.7,5.5-1.3,8.6
					c-1.6,8.1-4.3,17.5-9.2,25.7c-1.9,3.1-4,6-6.5,8.6c-4.8,5-10.9,8.8-18.7,10.4c-2.6,0.5-5.5,0.8-8.5,0.8c-3.1,0-6.1-0.3-8.8-0.9
					c-7.6-1.6-13.6-5.4-18.4-10.3c-2.5-2.6-4.7-5.5-6.5-8.6c-4.9-8.2-7.7-17.6-9.2-25.7c-0.6-3.1-1-6-1.3-8.6
					c-0.2-1.6-0.3-3.1-0.4-4.4c-0.3-3.6-0.3-5.7-0.3-5.7H-21.9z"/>
			</g>
		</g>
		<g id="g2538_1_" transform="translate(261.04,409.3379)">
			<g id="path2540_1_">
				<path class="st14" d="M86-379.9l3.5,10.8h11.4c1.5,0,2.1,1.9,0.9,2.8l-9.2,6.7l3.5,10.8c0.5,1.4-1.1,2.6-2.3,1.7l-9.2-6.7
					l-9.2,6.7c-1.2,0.9-2.8-0.3-2.3-1.7l3.5-10.8l-9.2-6.7c-1.2-0.9-0.6-2.8,0.9-2.8h11.4l3.5-10.8C83.6-381.3,85.5-381.3,86-379.9"
					/>
			</g>
		</g>
		<g id="g2546_1_" transform="translate(412.5,453.5)">
			<g id="path2548_1_">
				<path class="st13" d="M-21.9-436.7l-46.8-2.9l-37.4,2.9h-5.7c0,0,0,2.2,0.3,5.7c0.1,1.3,0.2,2.8,0.4,4.4
					c0.3,2.6,0.7,5.5,1.3,8.6c1.6,8.1,4.3,17.5,9.2,25.7c1.9,3.1,4,6,6.5,8.6c4.8,4.9,10.8,8.7,18.4,10.3c2.7,0.6,5.6,0.9,8.8,0.9
					c1,0,1.9,0,2.9-0.1c-2.1-0.1-4-0.4-5.9-0.8c-7.6-1.6-13.6-5.4-18.4-10.3c-2.5-2.6-4.7-5.5-6.5-8.6c-4.9-8.2-7.7-17.6-9.2-25.7
					c-0.6-3.1-1-6-1.3-8.6c0,0,0,0,0,0c-0.3-2.3,1.6-4.4,3.9-4.4l79.3,0C-21.9-434.5-21.9-436.7-21.9-436.7"/>
			</g>
		</g>
		<g id="g2550_1_" transform="translate(99,504.5)">
			<g id="path2552_1_">
				<path class="st12" d="M201.5-502.3h90.2c4,0,7.3,3.3,7.3,7.3s-3.3,7.3-7.3,7.3h-90.2c-4,0-7.3-3.3-7.3-7.3
					S197.4-502.3,201.5-502.3"/>
			</g>
		</g>
		<g id="g2554_1_" transform="translate(119,453.5)">
			<g id="path2556_1_">
				<path class="st13" d="M187.2-436.7h-5.7c-4,0-7.3-3.3-7.3-7.3c0-2,0.8-3.9,2.1-5.2c1.3-1.3,3.2-2.1,5.2-2.1h5.7
					c-2,0-3.9,0.8-5.2,2.1c-1.3,1.3-2.1,3.2-2.1,5.2C179.9-440,183.2-436.7,187.2-436.7"/>
			</g>
		</g>
		<g id="g2558_1_" transform="translate(164,453.5)">
			<g id="path2560_1_">
				<path class="st11" d="M226.7-434.6h-61.6c-1.2,0-2.2-1-2.2-2.2c0-1.2,1-2.2,2.2-2.2h61.6c2.9,0,5.2-2.3,5.2-5.2
					c0-2.8-2.3-5.2-5.2-5.2h-90.2c-2.9,0-5.2,2.3-5.2,5.2c0,2.8,2.3,5.2,5.2,5.2h18.7c1.2,0,2.2,1,2.2,2.2c0,1.2-1,2.2-2.2,2.2
					h-18.7c-5.2,0-9.5-4.2-9.5-9.5s4.3-9.5,9.5-9.5h90.2c5.2,0,9.5,4.2,9.5,9.5S231.9-434.6,226.7-434.6z"/>
			</g>
		</g>
		<g id="g2562_1_" transform="translate(418.5,86.5)">
			<g id="path2564_1_">
				<path class="st11" d="M-35.3,38.1h-76c-1.4,0-2.5-1.1-2.5-2.5s1.1-2.5,2.5-2.5h76c1.4,0,2.5,1.1,2.5,2.5S-33.9,38.1-35.3,38.1z"
					/>
			</g>
		</g>
		<g id="g2566_1_" transform="translate(306.7598,238.7617)">
			<g id="path2568_1_">
				<path class="st11" d="M38.8-155.6c-19.4,0-33.7-11.6-41.4-33.6c-5.7-16.2-5.7-32.2-5.7-32.8c0-1.2,1-2.2,2.2-2.2h0
					c1.2,0,2.2,1,2.2,2.2c0,0.6,0.5,62.1,42.8,62.1c5,0,9.6-0.8,13.8-2.5c1.1-0.4,2.4,0.1,2.8,1.2c0.4,1.1-0.1,2.4-1.2,2.8
					C49.5-156.5,44.4-155.6,38.8-155.6z"/>
			</g>
		</g>
		<g id="g2570_1_" transform="translate(412.5,453.5)">
			<g id="path2572_1_">
				<path class="st11" d="M-43.6-378c-0.6,0-1.3-0.3-1.7-0.8c-0.7-0.9-0.6-2.3,0.4-3c20.6-16.2,20.9-54.5,20.9-54.9
					c0-1.2,1-2.2,2.2-2.2c0,0,0,0,0,0c1.2,0,2.2,1,2.2,2.2c0,1.7-0.3,40.8-22.5,58.3C-42.7-378.1-43.2-378-43.6-378z"/>
			</g>
		</g>
		<g id="g2574_1_" transform="translate(130.5,86.5)">
			<g id="path2576_1_">
				<path class="st11" d="M250.6,37.7c-1.2,0-2.2-1-2.2-2.2v-9.7c0-2.2-1.8-3.9-3.9-3.9h-59.4c-2.2,0-3.9,1.8-3.9,3.9v9.7
					c0,1.2-1,2.2-2.2,2.2c-1.2,0-2.2-1-2.2-2.2v-9.7c0-4.5,3.7-8.2,8.2-8.2h59.4c4.5,0,8.2,3.7,8.2,8.2v9.7
					C252.7,36.8,251.8,37.7,250.6,37.7z"/>
			</g>
		</g>
		<g id="g2578_1_" transform="translate(225.5,228.8086)">
			<g id="path2580_1_">
				<path class="st11" d="M93.8-120.4c-1.2,0-2.2-1-2.2-2.2s1-2.2,2.2-2.2c10.6,0,15.4-7.1,15.4-22.9c0-1.2,1-2.2,2.2-2.2
					c1.2,0,2.2,1,2.2,2.2C113.5-129.5,106.9-120.4,93.8-120.4z"/>
			</g>
		</g>
		<g id="g2582_1_" transform="translate(285.5,228.8086)">
			<g id="path2584_1_">
				<path class="st11" d="M85.8-120.4c-19.4,0-19.4-20.5-19.4-27.2c0-1.2,1-2.2,2.2-2.2s2.2,1,2.2,2.2c0,15.8,4.7,22.9,15.1,22.9
					c1.2,0,2.2,1,2.2,2.2S87-120.4,85.8-120.4z"/>
			</g>
		</g>
		<g id="g2586_1_" transform="translate(261.04,409.3379)">
			<g id="path2588_1_">
				<path class="st11" d="M74.4-344.6c-0.8,0-1.5-0.2-2.2-0.7c-1.3-0.9-1.8-2.6-1.3-4.1l3-9.4l-8-5.8c-1.3-0.9-1.8-2.6-1.3-4.1
					c0.5-1.5,1.9-2.5,3.5-2.5H78l3-9.4c0.5-1.5,1.9-2.5,3.5-2.5c1.6,0,3,1,3.5,2.5l3,9.4h9.9c1.6,0,3,1,3.5,2.5
					c0.5,1.5,0,3.2-1.3,4.1l-8,5.8l3,9.4c0.5,1.5,0,3.2-1.3,4.1c-1.3,0.9-3,0.9-4.3,0l-8-5.8l-8,5.8
					C75.9-344.8,75.2-344.6,74.4-344.6z M84.5-355.9c0.4,0,0.9,0.1,1.3,0.4l7.7,5.6l-2.9-9c-0.3-0.9,0-1.9,0.8-2.4l7.7-5.6h-9.5
					c-0.9,0-1.8-0.6-2-1.5l-2.9-9l-2.9,9c-0.3,0.9-1.1,1.5-2,1.5h-9.5l7.7,5.6c0.8,0.5,1.1,1.5,0.8,2.4l-2.9,9l7.7-5.6
					C83.7-355.7,84.1-355.9,84.5-355.9z M100.9-366.9L100.9-366.9L100.9-366.9z M83.9-379.2C83.9-379.2,83.9-379.2,83.9-379.2
					L83.9-379.2L83.9-379.2z"/>
			</g>
		</g>
		<g id="g2590_1_" transform="translate(54.4004,301.0176)">
			<g id="path2592_1_">
				<path class="st11" d="M233.3-238.3c-0.5,0-1-0.2-1.4-0.5c-9-7.8-14.2-19-14.2-30.9c0-3.6,2.9-6.5,6.5-6.5h22.8
					c1.2,0,2.2,1,2.2,2.2c0,1.2-1,2.2-2.2,2.2h-22.8c-1.2,0-2.2,1-2.2,2.2c0,10.6,4.6,20.7,12.7,27.6c0.9,0.8,1,2.1,0.2,3
					C234.5-238.6,233.9-238.3,233.3-238.3z"/>
			</g>
		</g>
		<g id="g2594_1_" transform="translate(161.5,268.5)">
			<g id="path2596_1_">
				<path class="st11" d="M156.9-196.5h-5.6c-6.2,0-12.1-1.4-17.7-4c-1.1-0.5-1.5-1.8-1-2.9c0.5-1.1,1.8-1.5,2.9-1
					c5,2.4,10.3,3.6,15.8,3.6h5.6c1.2,0,2.2,1,2.2,2.2C159.1-197.4,158.1-196.5,156.9-196.5z"/>
			</g>
		</g>
		<g id="g2598_1_" transform="translate(106.667,388)">
			<g id="path2600_1_">
				<path class="st11" d="M205.2-324.6C205.2-324.6,205.2-324.6,205.2-324.6c-15.7-0.5-28.7-12-30.9-27.5c-0.1-0.6,0.1-1.2,0.5-1.7
					c0.4-0.5,1-0.7,1.6-0.7H196c1.2,0,2.2,1,2.2,2.2c0,1.2-1,2.2-2.2,2.2h-17c2.9,12.1,13.6,21,26.3,21.4c1.2,0,2.1,1,2.1,2.2
					C207.4-325.5,206.4-324.6,205.2-324.6z"/>
			</g>
		</g>
		<g id="g2602_1_" transform="translate(350.5,268.5)">
			<g id="path2604_1_">
				<path class="st11" d="M27.8-196.5h-5.6c-1.2,0-2.2-1-2.2-2.2c0-1.2,1-2.2,2.2-2.2h5.6c20.1,0,36.5-16.3,36.5-36.4
					c0-1.2-1-2.1-2.2-2.1H39.3c-1.2,0-2.2-1-2.2-2.2c0-1.2,1-2.2,2.2-2.2h22.8c3.6,0,6.5,2.9,6.5,6.5
					C68.6-214.8,50.3-196.5,27.8-196.5z"/>
			</g>
		</g>
		<g id="g2606_1_" transform="translate(405.333,388)">
			<g id="path2608_1_">
				<path class="st11" d="M-26.1-324.6c-1.2,0-2.1-0.9-2.2-2.1c0-1.2,0.9-2.2,2.1-2.2c12.7-0.4,23.4-9.2,26.3-21.4h-17
					c-1.2,0-2.2-1-2.2-2.2c0-1.2,1-2.2,2.2-2.2H2.7c0.6,0,1.2,0.3,1.6,0.7c0.4,0.5,0.6,1.1,0.5,1.7C2.6-336.6-10.4-325.1-26.1-324.6
					C-26-324.6-26-324.6-26.1-324.6z"/>
			</g>
		</g>
	</g>
	<g>
		<g id="g429_1_" transform="translate(15,204.6958)">
			<g id="path431_1_">
				<path class="st11" d="M12.4,7.1c-1.6,0-3-1.3-3-2.9c0-1.6,1.3-3,2.9-3C104.3,0.1,197-72,225.9-138.7c0.7-1.5,2.4-2.2,3.9-1.5
					c1.5,0.7,2.2,2.4,1.5,3.9c-15,34.7-46,70-85,97.1C104-9.9,56.5,6.6,12.4,7.1C12.5,7.1,12.4,7.1,12.4,7.1z"/>
			</g>
		</g>
		<g id="g433_1_" transform="translate(380.7671,472.437)">
			<g id="path435_1_">
				<path class="st11" d="M-124.9-358.8c-1.3,0-2.5-0.9-2.9-2.2l-11.4-40.6l-40.7,11.4c-1.6,0.4-3.2-0.5-3.7-2.1
					c-0.4-1.6,0.5-3.2,2.1-3.7l43.5-12.2c1.6-0.4,3.2,0.5,3.7,2.1l12.2,43.5c0.4,1.6-0.5,3.2-2.1,3.7
					C-124.4-358.8-124.7-358.8-124.9-358.8z"/>
			</g>
		</g>
	</g>
	<g>
		<g>
			<g>
				<path class="st15" d="M345.6,164.1l4.8,6.8c0.3,0.5,0.9,0.9,1.4,1l7.9,2.4c1.5,0.5,2.1,2.3,1.2,3.6l-5,6.6
					c-0.4,0.5-0.6,1.1-0.5,1.7l0.1,8.3c0,1.6-1.5,2.7-3,2.2l-7.8-2.7c-0.6-0.2-1.2-0.2-1.8,0l-7.8,2.7c-1.5,0.5-3.1-0.6-3-2.2
					l0.1-8.3c0-0.6-0.2-1.2-0.5-1.7l-5-6.6c-1-1.3-0.4-3.1,1.2-3.6l7.9-2.4c0.6-0.2,1.1-0.5,1.4-1l4.8-6.8
					C342.8,162.8,344.7,162.8,345.6,164.1L345.6,164.1z"/>
			</g>
		</g>
		<g>
			<g>
				<path class="st16" d="M360.9,177.9l-5,6.6c-0.4,0.5-0.6,1.1-0.5,1.7l0.1,8.3c0,1.6-1.5,2.7-3,2.2l-7.8-2.7
					c-0.6-0.2-1.2-0.2-1.8,0l-7.8,2.7c-1.5,0.5-3.1-0.6-3-2.2l0.1-3c11.2-3.9,17.6-12,21.2-19l6.4,2
					C361.2,174.8,361.8,176.6,360.9,177.9z"/>
			</g>
		</g>
	</g>
</g>
</svg>
