<?xml version="1.0" encoding="utf-8"?>
<!-- Generator: Adobe Illustrator 25.0.0, SVG Export Plug-In . SVG Version: 6.00 Build 0)  -->
<svg version="1.1" id="Layer_1" xmlns="http://www.w3.org/2000/svg" xmlns:xlink="http://www.w3.org/1999/xlink" x="0px" y="0px"
	 viewBox="0 0 431.2 430" style="enable-background:new 0 0 431.2 430;" xml:space="preserve">
<style type="text/css">
	.st0{fill:#EFEFEF;}
	.st1{fill:#FFDC8D;}
	.st2{fill:#E8C57E;}
	.st3{fill:#CCCCCC;}
	.st4{fill:#78CAEF;}
	.st5{fill:#4BC999;}
	.st6{fill:#595259;}
	.st7{fill:#35414D;}
	.st8{fill:#FFC66C;}
	.st9{fill:#FF5D5D;}
	.st10{fill:#FFFFFF;}
	.st11{fill:#72D8FF;}
</style>
<g>
	<g>
		<g>
			<path class="st0" d="M208.6,38.4H225c8,0,14.5,6.5,14.5,14.5c0,4-1.6,7.6-4.3,10.3c-2.6,2.6-6.3,4.3-10.3,4.3h-11.2"/>
			<path class="st0" d="M213.8,67.5H225c8,0,14.5,6.5,14.5,14.5c0,4-1.6,7.6-4.3,10.3c-2.6,2.6-6.3,4.3-10.3,4.3h-9"/>
			<path class="st1" d="M103.2,133.5V61.7c0-30.5,24.8-55.3,55.3-55.3l0,0c30.5,0,55.3,24.8,55.3,55.3v28.1l26.8,83.2h-26.8v15.2
				c0,29.6-24,53.5-53.5,53.5h-1.8c-30.5,0-55.3-24.8-55.3-55.3v-13.5"/>
			<path class="st2" d="M120.7,186.3v-13.5v-39.3V61.7c0-27.6,20.2-50.4,46.6-54.6c-2.8-0.5-5.8-0.7-8.7-0.7l0,0
				c-30.5,0-55.3,24.8-55.3,55.3v71.8v39.3v13.5c0,30.5,24.8,55.3,55.3,55.3h1.8c2.6,0,5.2-0.2,7.8-0.6
				C141.3,237.2,120.7,214.2,120.7,186.3z"/>
			<path class="st2" d="M115.6,139.2c-7.7-7.7-20.2-7.7-27.9,0c-7.7,7.7-7.7,20.2,0,27.9c7.7,7.7,20.2,7.7,27.9,0"/>
			<path class="st0" d="M240.2,323.3c0,11.6-2.4,34.7-6.8,62.7c-1.7,13.8-2.8,26.4-3.3,37.6H88c-1-12.5-2.4-25.6-4.4-37.6
				c-4.4-28-6.8-51.2-6.8-62.7c0-45.1,36.6-81.7,81.7-81.7C203.6,241.6,240.2,278.2,240.2,323.3z"/>
			<path class="st3" d="M110.1,323.3c0,11.6,1.4,34.7,4,62.7c1.2,12,2,25,2.6,37.6H88c-1-12.5-2.4-25.6-4.4-37.6
				c-4.4-28-6.8-51.2-6.8-62.7c0-45.1,36.6-81.7,81.7-81.7C131.8,241.6,110.1,278.2,110.1,323.3z"/>
			<circle class="st4" cx="179.7" cy="131.4" r="22.7"/>
			<circle class="st4" cx="251.4" cy="131.4" r="22.7"/>
			<path class="st0" d="M133.8,38.4H77.6c-8,0-14.5,6.5-14.5,14.5l0,0c0,8,6.5,14.5,14.5,14.5h56.2"/>
			<g>
				<path class="st0" d="M133.8,67.5H86.1c-8,0-14.5,6.5-14.5,14.5l0,0c0,8,6.5,14.5,14.5,14.5h47.7"/>
			</g>
			<polygon class="st5" points="47,337 27.6,367.1 63.6,368 			"/>
			<polygon class="st5" points="307.7,273.5 342.6,266 317.8,239.8 			"/>
			<ellipse class="st6" cx="171.3" cy="195.5" rx="21.7" ry="15.3"/>
		</g>
		<g>
			<path class="st7" d="M324.3,237.4c-1.8-7.3-3.5-16.2-2.4-23c0-0.2,0.1-0.4,0.1-0.6l1.7-23.9c0.3-3.5-2.4-6.6-5.9-6.8
				c-3.5-0.3-6.6,2.4-6.8,5.9l-1.4,19.4l-7.6,2.2c-3.4,1-5.4,4.5-4.4,7.9c0.7,2.4,2.6,4.1,4.9,4.5c-2.1,1.1-3.5,3.3-3.5,5.9
				c0.1,3.5,3,6.2,6.4,6.2c0.1,0,0.2,0,0.2,0l5-0.2c0.3,1.3,0.5,2.5,0.8,3.7l-9.9,33c-0.7,2.2-0.1,4.5,1.4,6.2
				c1.2,1.3,2.9,2.1,4.7,2.1c0.4,0,0.9,0,1.3-0.1l12.9-2.8l0.5,1.8c5.6,24.2,3.5,38.9-7,49.4c-7.8,7.8-16,11-25,9.6
				c-20.2-3.1-40-28.4-50.8-49.1c0,0,0,0,0,0c-6-14-15.6-26.2-27.5-35.3c-0.1-0.1-0.2-0.2-0.3-0.3c-0.3-0.2-0.5-0.4-0.8-0.6
				c-6.6-4.9-14-8.9-21.9-11.9c18.6-10.2,31.2-29.9,31.2-52.6v-8.8h20.4c2,0,4-1,5.2-2.6c1.2-1.7,1.5-3.8,0.9-5.7l-3.8-11.7
				c2.7,0.8,5.6,1.3,8.5,1.3c16,0,29.1-13,29.1-29.1s-13-29.1-29.1-29.1c-9.4,0-17.9,4.5-23.2,11.5l-3.5-10.9h0.2
				c5.6,0,10.9-2.2,14.8-6.1c4-3.9,6.1-9.2,6.1-14.8c0-5.6-2.3-10.8-5.9-14.5c3.8-3.9,5.9-9.1,5.9-14.5c0-11.5-9.4-20.9-20.9-20.9
				h-12.4c-2.8-5.1-6.3-9.7-10.5-13.9C190.5,6.4,175,0,158.5,0c-22.5,0-43.3,12.4-54.1,32H77.6c-11.5,0-20.9,9.4-20.9,20.9
				C56.7,61,61.3,68,68,71.5c-1.8,3.1-2.8,6.7-2.8,10.5c0,11.5,9.4,20.9,20.9,20.9h47.7c3.5,0,6.4-2.9,6.4-6.4s-2.9-6.4-6.4-6.4
				H86.1c-4.5,0-8.2-3.7-8.2-8.2c0-4.5,3.7-8.2,8.2-8.2h47.7c3.5,0,6.4-2.9,6.4-6.4c0-3.5-2.9-6.4-6.4-6.4H86.1h-8.5
				c-4.5,0-8.2-3.7-8.2-8.2s3.7-8.2,8.2-8.2h56.2c3.5,0,6.4-2.9,6.4-6.4c0-3.5-2.9-6.4-6.4-6.4h-14.2c9.1-11.9,23.5-19.2,38.9-19.2
				c13.1,0,25.3,5.1,34.6,14.3c9.2,9.2,14.3,21.5,14.3,34.6v28.1c0,0.7,0.1,1.3,0.3,2l10.7,33.3h-10.4c-2.9-13-14.5-22.7-28.4-22.7
				s-25.4,9.7-28.4,22.7h-17c-3.5,0-6.4,2.9-6.4,6.4c0,3.5,2.9,6.4,6.4,6.4h17c2.9,13,14.5,22.7,28.4,22.7s25.4-9.7,28.4-22.7h14.5
				l9.3,28.7h-18c-3.5,0-6.4,2.9-6.4,6.4v15.2c0,26-21.1,47.1-47.1,47.1h-1.8c-27,0-48.9-21.9-48.9-48.9V178
				c3.8-1.2,7.4-3.3,10.5-6.4c2.5-2.5,2.5-6.5,0-9c-2.5-2.5-6.5-2.5-9,0c-5.2,5.2-13.6,5.2-18.8,0s-5.2-13.6,0-18.8
				c5.2-5.2,13.6-5.2,18.8,0c2.5,2.5,6.5,2.5,9,0c2.5-2.5,2.5-6.5,0-9c-3-3-6.6-5.2-10.5-6.4v-11.7c0-3.5-2.9-6.4-6.4-6.4
				s-6.4,2.9-6.4,6.4v10.9c-5,0.9-9.8,3.3-13.6,7.2c-10.2,10.2-10.2,26.7,0,36.9c3.9,3.9,8.6,6.3,13.6,7.2v7.6
				c0,23.3,12.9,43.5,32,54c-8.1,2.9-15.7,7-22.6,12.1c-7.7,1.8-28.7,7-50,15C18.4,281.8,0,297.3,0,314.9c0,17,14.3,27.5,29.7,37.2
				l-7.4,11.5c-1.3,1.9-1.4,4.4-0.3,6.4c1.1,2,3.2,3.3,5.5,3.4l32.6,0.8c4.9,6.3,5.2,12.6,1.2,20.5c-1.6,3.1-0.4,7,2.8,8.6
				c0.9,0.5,1.9,0.7,2.9,0.7c2.3,0,4.6-1.3,5.7-3.5c3-5.8,4.4-11.4,4.2-16.8c0.2,1.1,0.3,2.1,0.5,3.2c1.8,10.6,3.3,23,4.4,37
				c0.3,3.3,3,5.9,6.4,5.9h142.1c3.4,0,6.2-2.7,6.4-6.1c0.6-10.6,1.5-21.5,2.8-32.5c0.4-3.5-2.1-6.7-5.6-7.1
				c-3.5-0.4-6.7,2.1-7.1,5.6c-1.1,9.2-1.9,18.3-2.5,27.3h-59.2V265.9l13.4,23.8c1,1.8,2.9,3,5,3.2c0.2,0,0.4,0,0.6,0
				c1.9,0,3.7-0.8,4.9-2.3l19.6-23.6c15.6,13.8,25.4,33.9,25.4,56.3c0,9.2-1.6,26.1-4.4,46.4c-0.5,3.5,2,6.7,5.5,7.2
				c3.5,0.5,6.7-2,7.2-5.5c2.9-20.8,4.5-38.4,4.5-48.2c0-0.3,0-0.6,0-0.8c10.6,12.9,25,25.4,41.8,28c2,0.3,4.1,0.5,6.1,0.5
				c10.8,0,20.9-4.6,30-13.7c17.7-17.7,14.8-42.1,10.4-61.4c0,0,0-0.1,0-0.1l-0.4-1.5l9.5-2.1c2.3-0.5,4.1-2.2,4.8-4.4
				c0.7-2.2,0.1-4.6-1.5-6.3L324.3,237.4z M179.7,147.7c-9,0-16.3-7.3-16.3-16.3s7.3-16.3,16.3-16.3c9,0,16.3,7.3,16.3,16.3
				S188.7,147.7,179.7,147.7z M251.4,115.1c9,0,16.3,7.3,16.3,16.3s-7.3,16.3-16.3,16.3c-9,0-16.3-7.3-16.3-16.3
				S242.5,115.1,251.4,115.1z M230.7,87.8c-1.5,1.5-3.6,2.4-5.7,2.4h-4.3l-0.5-1.4V73.9h4.8c4.5,0,8.2,3.7,8.2,8.2
				C233.1,84.2,232.3,86.2,230.7,87.8z M225,44.8c4.5,0,8.2,3.7,8.2,8.2c0,2.2-0.8,4.2-2.4,5.8c-1.5,1.5-3.6,2.4-5.7,2.4h-4.8
				c-0.1-5.6-0.8-11.1-2.3-16.3H225z M147.1,248.8l-15,26.5l-13.3-16C127.3,254,136.8,250.4,147.1,248.8z M39.1,361l7.3-11.4
				l6.3,11.7L39.1,361z M70.4,323.3c0,10.9,2,30.8,5.4,54.2c-1.1-4.1-3.2-8-6.2-11.7c-0.1-0.3-0.2-0.6-0.4-0.9l-16.6-31
				c-1.1-2-3.1-3.3-5.4-3.4c-2.2-0.1-4.4,1-5.6,2.9l-5,7.8c-12.8-8-23.8-16-23.8-26.4c0-11,17.5-23.9,47.9-35.4
				c9.5-3.6,19.2-6.7,27.4-9.1C77,285.1,70.4,303.5,70.4,323.3z M93.9,417.2c-1.1-12-2.4-22.8-4-32.2c-4.1-26.5-6.7-50.2-6.7-61.8
				c0-22.4,9.8-42.5,25.4-56.3l19.6,23.6c1.3,1.6,3.4,2.5,5.5,2.3c2.1-0.2,4-1.4,5-3.2l13.4-23.8v151.3L93.9,417.2L93.9,417.2z
				 M184.9,275.3l-15-26.5c10.2,1.6,19.8,5.2,28.2,10.5L184.9,275.3z M307.9,222.3l1-0.3c0,0.1,0,0.2,0,0.2L307.9,222.3z
				 M320.7,252.2l9.4,9.9l-13.2,2.9L320.7,252.2z"/>
			<path class="st7" d="M189.5,320.8c-3.5,0-6.4,2.9-6.4,6.4c0,3.5,2.9,6.4,6.4,6.4h26.2c3.5,0,6.4-2.9,6.4-6.4
				c0-3.5-2.9-6.4-6.4-6.4H189.5z"/>
			<path class="st7" d="M199.4,195.5c0-12.2-12.3-21.7-28.1-21.7s-28.1,9.5-28.1,21.7s12.3,21.7,28.1,21.7S199.4,207.7,199.4,195.5z
				 M155.9,195.5c0-4.2,6.3-8.9,15.3-8.9c9,0,15.3,4.7,15.3,8.9c0,4.2-6.3,8.9-15.3,8.9C162.2,204.5,155.9,199.8,155.9,195.5z"/>
		</g>
	</g>
	<g>
		<path class="st8" d="M402.7,87.2h15.5c5.4,0,9.7-4.3,9.7-9.7V34.8c0-5.4-4.3-9.7-9.7-9.7H278.4c-5.4,0-9.7,4.3-9.7,9.7v42.7
			c0,5.4,4.3,9.7,9.7,9.7H402.7z"/>
		<path class="st9" d="M387.8,137.7l26.9,26.9c3,3,7.9,3,10.9,0c3-3,3-7.9,0-10.9l-26.9-26.9L387.8,137.7z"/>
		<path class="st10" d="M404.7,104.7c0,21.5-17.4,38.9-38.9,38.9s-38.9-17.4-38.9-38.9s17.4-38.9,38.9-38.9S404.7,83.3,404.7,104.7z
			"/>
		<path class="st11" d="M391.1,104.7c0,13.9-11.3,25.3-25.3,25.3s-25.3-11.3-25.3-25.3s11.3-25.3,25.3-25.3S391.1,90.8,391.1,104.7z
			"/>
		<path class="st7" d="M365.8,76.2c-15.7,0-28.5,12.8-28.5,28.5s12.8,28.5,28.5,28.5s28.5-12.8,28.5-28.5S381.5,76.2,365.8,76.2z
			 M365.8,126.7c-12.1,0-22-9.9-22-22s9.9-22,22-22s22,9.9,22,22S377.9,126.7,365.8,126.7z"/>
		<path class="st7" d="M365.8,90.1c-1.8,0-3.2,1.4-3.2,3.2s1.4,3.2,3.2,3.2c4.5,0,8.1,3.6,8.1,8.1c0,1.8,1.4,3.2,3.2,3.2
			c1.8,0,3.2-1.4,3.2-3.2C380.4,96.7,373.8,90.1,365.8,90.1z"/>
		<path class="st7" d="M285.4,46.2c-0.8-1.6-2.8-2.2-4.4-1.4c-1.6,0.8-2.2,2.8-1.4,4.4l8.7,16.8c0.6,1.1,1.7,1.8,2.9,1.7
			c1.2,0,2.3-0.7,2.9-1.8l5.3-11l5.7,11.1c0.6,1.1,1.7,1.7,2.9,1.7h0c1.2,0,2.3-0.7,2.9-1.8l8.1-16.8c0.8-1.6,0.1-3.5-1.5-4.3
			c-1.6-0.8-3.5-0.1-4.3,1.5l-5.3,11l-5.7-11.1c-0.6-1.1-1.7-1.8-2.9-1.7c-1.2,0-2.3,0.7-2.9,1.8l-5.3,11L285.4,46.2z"/>
		<path class="st7" d="M306.2,28.3c0.9,0,1.7-0.3,2.3-0.9c0.6-0.6,0.9-1.4,0.9-2.3c0-0.9-0.3-1.7-0.9-2.3c-0.6-0.6-1.4-0.9-2.3-0.9
			c-0.9,0-1.7,0.3-2.3,0.9c-0.6,0.6-0.9,1.4-0.9,2.3c0,0.9,0.3,1.7,0.9,2.3C304.5,28,305.4,28.3,306.2,28.3z"/>
		<path class="st7" d="M431.2,77.5V34.8c0-7.1-5.8-13-13-13h-98.4c-1.8,0-3.2,1.4-3.2,3.2c0,1.8,1.5,3.2,3.2,3.2h98.4
			c3.6,0,6.5,2.9,6.5,6.5v42.7c0,3.6-2.9,6.5-6.5,6.5h-15.5c-0.1,0-0.2,0-0.3,0c-5-8.8-13.1-15.6-22.8-19l4.8-10l5.7,11.1
			c0.6,1.1,1.7,1.7,2.9,1.7h0c1.2,0,2.3-0.7,2.9-1.8l8.1-16.8c0.8-1.6,0.1-3.5-1.5-4.3c-1.6-0.8-3.5-0.1-4.3,1.5l-5.3,11l-5.7-11.1
			c-0.6-1.1-1.7-1.8-2.9-1.7c-1.2,0-2.3,0.7-2.9,1.8l-5.3,11l-5.7-11.1c-0.8-1.6-2.8-2.2-4.4-1.4c-1.6,0.8-2.2,2.8-1.4,4.4l7.2,13.8
			c-2-0.3-4-0.4-6.1-0.4c-4,0-7.8,0.6-11.5,1.6l7.2-15.1c0.8-1.6,0.1-3.5-1.5-4.3c-1.6-0.8-3.5-0.1-4.3,1.5l-5.3,11l-5.7-11.1
			c-0.6-1.1-1.7-1.8-2.9-1.7c-1.2,0-2.3,0.7-2.9,1.8l-5.3,11l-5.7-11.1c-0.8-1.6-2.8-2.2-4.4-1.4s-2.2,2.8-1.4,4.4l8.7,16.8
			c0.6,1.1,1.7,1.8,2.9,1.7c1.2,0,2.3-0.7,2.9-1.8l5.3-11l5.7,11.1c0.1,0.2,0.2,0.4,0.3,0.5c-7.9,3.7-14.5,9.8-18.8,17.4h-50.8
			c-3.6,0-6.5-2.9-6.5-6.5V34.8c0-3.6,2.9-6.5,6.5-6.5h13.3c1.8,0,3.2-1.4,3.2-3.2c0-1.8-1.4-3.2-3.2-3.2h-13.3c-7.1,0-13,5.8-13,13
			v42.7c0,7.1,5.8,13,13,13h47.8c-1.6,4.5-2.5,9.2-2.5,14.2c0,23.2,18.9,42.1,42.1,42.1c7.6,0,14.8-2,21-5.6l25.7,25.7
			c2.1,2.1,5,3.2,7.8,3.2s5.6-1.1,7.8-3.2c4.3-4.3,4.3-11.2,0-15.5l-10.1-10.1c-1.3-1.3-3.3-1.3-4.6,0c-1.3,1.3-1.3,3.3,0,4.6
			l10.1,10.1c1.8,1.8,1.8,4.6,0,6.4c-1.8,1.8-4.6,1.8-6.4,0l-24.8-24.8c9.6-7.7,15.7-19.5,15.7-32.8c0-5-0.9-9.8-2.5-14.2h12.8
			C425.4,90.5,431.2,84.7,431.2,77.5z M365.8,140.3c-19.6,0-35.6-16-35.6-35.6s16-35.6,35.6-35.6s35.6,16,35.6,35.6
			S385.4,140.3,365.8,140.3z"/>
		<path class="st7" d="M405.6,133.6c-0.6,0.6-0.9,1.4-0.9,2.3c0,0.9,0.3,1.7,0.9,2.3c0.6,0.6,1.4,0.9,2.3,0.9s1.7-0.3,2.3-0.9
			c0.6-0.6,0.9-1.4,0.9-2.3c0-0.9-0.3-1.7-0.9-2.3c-0.6-0.6-1.4-0.9-2.3-0.9C407.1,132.7,406.2,133,405.6,133.6z"/>
	</g>
</g>
</svg>
