<?xml version="1.0" encoding="utf-8"?>
<!-- Generator: Adobe Illustrator 25.0.0, SVG Export Plug-In . SVG Version: 6.00 Build 0)  -->
<svg version="1.1" id="Layer_1" xmlns="http://www.w3.org/2000/svg" xmlns:xlink="http://www.w3.org/1999/xlink" x="0px" y="0px"
	 viewBox="0 0 130 535.6" style="enable-background:new 0 0 130 535.6;" xml:space="preserve">
<style type="text/css">
	.st0{fill:#EC5664;}
	.st1{fill:#FFFFFF;}
	.st2{fill:#7BD8E8;}
	.st3{fill:#FFCF66;stroke:#35414D;stroke-width:2.1818;stroke-miterlimit:10;}
	.st4{fill:#35414D;}
	.st5{fill:#FFC66C;}
	.st6{fill:#FF5D5D;}
	.st7{fill:#FFE4CF;}
	.st8{fill:#4A696F;stroke:#35414D;stroke-width:3;stroke-miterlimit:10;}
	.st9{fill:#384949;stroke:#35414D;stroke-width:3;stroke-miterlimit:10;}
	.st10{fill:#D2C5C2;stroke:#35414D;stroke-width:3;stroke-miterlimit:10;}
	.st11{fill:#DFD7D5;stroke:#35414D;stroke-width:3;stroke-miterlimit:10;}
	.st12{fill:#FFCF66;stroke:#35414D;stroke-width:3;stroke-miterlimit:10;}
	.st13{fill:#E8BA5D;stroke:#35414D;stroke-width:3;stroke-miterlimit:10;}
</style>
<g>
	<g>
		<path class="st0" d="M123.2,417.4c0,0-0.5,12.7-5.8,27.7l-22-22C110.4,417.8,123.2,417.4,123.2,417.4z"/>
		<path class="st1" d="M95.5,423.1l22,22c-3.4,9.7-8.9,20.4-17.7,29.2c-8.1,8.1-17.8,14.5-27.9,19l-24.6-24.6
			c3-6.8,7.2-14,12.7-20.9c1.9-2.4,4-4.7,6.3-7C75,432,85.7,426.5,95.5,423.1z"/>
		<path class="st2" d="M96.4,444.1c3.7,3.7,3.7,9.7,0,13.4c-3.7,3.7-9.7,3.7-13.4,0c-3.7-3.7-3.7-9.7,0-13.4
			C86.7,440.4,92.7,440.4,96.4,444.1z"/>
		<g>
			<path class="st0" d="M93,481c12.2,18.3-10.6,30.1-23.4,30.1c6.7-6.7,4.7-15.3,4.7-15.3l-2.5-2.5c6.8-3,14-7.2,20.9-12.7L93,481z"
				/>
			<path class="st0" d="M44.5,486l-0.4-0.4c-1.1-1.1-1.7-2.8-1.3-4.3c1-3.8,2.4-8.1,4.4-12.6l24.6,24.6c-4.5,2-8.8,3.4-12.6,4.4
				c-1.6,0.4-3.2-0.2-4.3-1.3l-0.4-0.4L44.5,486z"/>
			<path class="st0" d="M59.6,447.5l0.4,0.3c-5.5,6.9-9.7,14.1-12.7,20.9l-2.5-2.5c0,0-8.7-2-15.3,4.7
				C29.4,458.1,41.3,435.3,59.6,447.5z"/>
		</g>
		<path class="st3" d="M44.5,486l10,10c-0.7,2.8-2.4,5.8-5,8.4c-5.5,5.5-20.1,6.7-20.1,6.7s1.1-14.5,6.7-20.1
			C38.7,488.4,41.7,486.7,44.5,486z"/>
		<path class="st4" d="M66.3,476c-0.5,0-0.9-0.2-1.2-0.5c-0.7-0.7-0.7-1.8,0-2.5c0.3-0.3,0.8-0.5,1.2-0.5s0.9,0.2,1.2,0.5
			c0.7,0.7,0.7,1.8,0,2.5C67.2,475.8,66.8,476,66.3,476z"/>
		<path class="st4" d="M89.8,462.1c-3,0-5.8-1.2-7.9-3.3c-4.4-4.4-4.4-11.5,0-15.9c2.1-2.1,4.9-3.3,7.9-3.3c3,0,5.8,1.2,7.9,3.3
			c2.1,2.1,3.3,4.9,3.3,7.9c0,3-1.2,5.8-3.3,7.9C95.6,460.9,92.8,462.1,89.8,462.1C89.8,462.1,89.8,462.1,89.8,462.1z M89.8,443.1
			c-2.1,0-4,0.8-5.5,2.3c-3,3-3,7.9,0,10.9c1.5,1.5,3.4,2.3,5.5,2.3c2.1,0,4-0.8,5.4-2.3c1.5-1.5,2.3-3.4,2.3-5.5
			c0-2.1-0.8-4-2.3-5.5C93.8,443.9,91.8,443.1,89.8,443.1z"/>
		<path class="st4" d="M69.7,512.9c-0.7,0-1.4-0.4-1.6-1.1c-0.3-0.7-0.1-1.4,0.4-1.9c5-5,4.6-11.2,4.4-13c0-0.1-0.1-0.3-0.2-0.3
			l-0.8-0.8c-0.1-0.1-0.3-0.2-0.4-0.2c-0.1,0-0.2,0-0.2,0c-3.9,1.6-7.7,2.9-11.4,3.9c-0.5,0.1-1,0.2-1.4,0.2c-0.8,0-1.5-0.1-2.3-0.4
			c-0.1,0-0.1,0-0.2,0c-0.2,0-0.4,0.1-0.6,0.4c-1,2.2-2.5,4.4-4.4,6.2c-5.9,5.9-20.6,7.2-21.2,7.2c0,0-0.1,0-0.1,0
			c-0.5,0-0.9-0.2-1.2-0.5c-0.4-0.4-0.6-0.9-0.5-1.4c0-0.6,1.3-15.3,7.2-21.2c1.8-1.8,4-3.4,6.2-4.4c0.3-0.1,0.4-0.5,0.3-0.8
			c-0.5-1.2-0.6-2.5-0.3-3.7c1-3.7,2.3-7.6,3.9-11.4c0.1-0.2,0-0.5-0.1-0.7l-0.8-0.8c-0.1-0.1-0.2-0.2-0.3-0.2
			c-0.4-0.1-1.1-0.1-2-0.1c-3,0-7.3,0.8-11.1,4.5c-0.3,0.3-0.8,0.5-1.2,0.5c-0.2,0-0.5,0-0.7-0.1c-0.7-0.3-1.1-0.9-1.1-1.6
			c0-9.2,5.5-22,14.3-26.8c2.4-1.3,4.9-1.9,7.5-1.9c3.2,0,6.5,1,9.8,2.9c0.1,0.1,0.2,0.1,0.3,0.1c0.2,0,0.3-0.1,0.5-0.2
			c1.6-1.9,3.3-3.8,5.1-5.5c7.8-7.8,17.8-13.8,29.8-18.1c15.1-5.3,27.7-5.8,28.3-5.9l0.1,0c0.5,0,0.9,0.2,1.2,0.5
			c0.3,0.3,0.5,0.8,0.5,1.3c0,0.5-0.5,13.2-5.9,28.3c-4.3,12.1-10.3,22.1-18.1,29.8c-1.7,1.7-3.6,3.4-5.5,5.1
			c-0.2,0.2-0.3,0.5-0.1,0.8c4.4,7.5,3,13.5,1,17.2C91.7,507.4,78.9,512.9,69.7,512.9z M43.9,488.1c-0.1,0-0.1,0-0.2,0
			c-2.2,0.8-4.4,2.2-6.3,4.1c-3.7,3.7-5.3,12.5-5.8,16.1c0,0.2,0,0.4,0.2,0.5c0.1,0.1,0.3,0.2,0.4,0.2c0,0,0.1,0,0.1,0
			c3.6-0.5,12.4-2.1,16.1-5.8c1.9-1.9,3.3-4.1,4.1-6.3c0.1-0.2,0-0.5-0.1-0.6l-8-8C44.2,488.2,44.1,488.1,43.9,488.1z M92.2,483.4
			c-0.1,0-0.3,0-0.4,0.1c-5,3.8-10.4,7.1-16.1,9.9c-0.2,0.1-0.3,0.2-0.3,0.4c0,0.2,0,0.3,0.1,0.5c0,0,0.1,0.1,0.1,0.2
			c0.1,0.1,0.4,0.4,0.5,0.9c0.8,3,0.4,8.3-1.9,12.6c-0.1,0.2-0.1,0.5,0.1,0.6c0.1,0.2,0.3,0.2,0.5,0.2c0,0,0.1,0,0.1,0
			c6.8-1.4,15.1-5.6,18.4-11.8c2.2-4.1,2-8.5-0.6-13.2c-0.1-0.2-0.2-0.3-0.4-0.3C92.3,483.4,92.2,483.4,92.2,483.4z M48.2,472.2
			c0,0-0.1,0-0.1,0c-0.2,0-0.4,0.2-0.4,0.4c-1.2,3.1-2.2,6.2-3,9.1c-0.2,0.9,0.1,1.9,0.8,2.6l10.8,10.8c0.6,0.6,1.3,0.9,2.1,0.9
			c0.2,0,0.4,0,0.6-0.1c3-0.8,6-1.8,9.1-3c0.2-0.1,0.3-0.2,0.4-0.4c0-0.2,0-0.4-0.2-0.6l-19.6-19.6
			C48.5,472.3,48.3,472.2,48.2,472.2z M94.9,425.2c-0.1,0-0.1,0-0.2,0c-10.9,4.1-20.1,9.7-27.1,16.8c-2.1,2.1-4.2,4.5-6.2,6.9
			c-4.7,5.8-8.6,12.2-11.8,19c-0.1,0.2-0.1,0.5,0.1,0.7L72,490.9c0.1,0.1,0.3,0.2,0.4,0.2c0.1,0,0.2,0,0.3-0.1
			c6.8-3.2,13.2-7.1,19-11.8c2.4-1.9,4.7-4,6.9-6.2c7.1-7.1,12.7-16.2,16.8-27.1c0.1-0.2,0-0.5-0.1-0.6l-19.8-19.8
			C95.2,425.3,95.1,425.2,94.9,425.2z M49.5,445.8c-2,0-4,0.5-5.8,1.5c-6.2,3.3-10.4,11.7-11.8,18.4c0,0.2,0,0.5,0.2,0.6
			c0.1,0.1,0.2,0.1,0.4,0.1c0.1,0,0.2,0,0.3-0.1c3.4-1.8,6.9-2.2,9.1-2.2c2,0,3.3,0.3,3.4,0.3c0.3,0.1,0.6,0.3,0.9,0.5
			c0,0,0.1,0.1,0.1,0.1c0.1,0.1,0.2,0.1,0.3,0.1c0.1,0,0.1,0,0.2,0c0.2,0,0.3-0.2,0.4-0.3c2.8-5.7,6.1-11.1,9.9-16.1
			c0.1-0.1,0.1-0.3,0.1-0.5c0-0.2-0.1-0.3-0.3-0.4C54.3,446.5,51.8,445.8,49.5,445.8z M120.6,419.3c-3.9,0.4-11.8,1.4-20.9,4.2
			c-0.2,0.1-0.4,0.2-0.4,0.4c-0.1,0.2,0,0.4,0.2,0.6l16.5,16.5c0.1,0.1,0.3,0.2,0.4,0.2c0,0,0.1,0,0.1,0c0.2-0.1,0.4-0.2,0.4-0.4
			c2.8-9.1,3.9-17,4.3-20.9c0-0.2,0-0.4-0.2-0.5C121,419.4,120.8,419.3,120.6,419.3C120.7,419.3,120.6,419.3,120.6,419.3z"/>
		<path class="st4" d="M52.9,522.9c-0.5,0-0.9-0.2-1.2-0.5c-0.7-0.7-0.7-1.8,0-2.5l6.7-6.7c0.3-0.3,0.8-0.5,1.2-0.5s0.9,0.2,1.2,0.5
			c0.3,0.3,0.5,0.8,0.5,1.2s-0.2,0.9-0.5,1.2l-6.7,6.7C53.8,522.7,53.4,522.9,52.9,522.9L52.9,522.9z"/>
		<path class="st4" d="M19.4,489.4c-0.5,0-0.9-0.2-1.2-0.5c-0.7-0.7-0.7-1.8,0-2.5l6.7-6.7c0.3-0.3,0.8-0.5,1.2-0.5
			c0.5,0,0.9,0.2,1.2,0.5c0.7,0.7,0.7,1.8,0,2.5l-6.7,6.7C20.4,489.2,19.9,489.4,19.4,489.4C19.4,489.4,19.4,489.4,19.4,489.4z"/>
		<path class="st4" d="M26.8,535.6c-0.5,0-0.9-0.2-1.2-0.5s-0.5-0.8-0.5-1.2s0.2-0.9,0.5-1.2l16-16c0.3-0.3,0.8-0.5,1.2-0.5
			s0.9,0.2,1.2,0.5c0.3,0.3,0.5,0.8,0.5,1.2c0,0.5-0.2,0.9-0.5,1.2l-16,16C27.8,535.4,27.3,535.6,26.8,535.6L26.8,535.6z"/>
		<path class="st4" d="M7.9,535.6c-0.5,0-0.9-0.2-1.2-0.5c-0.3-0.3-0.5-0.8-0.5-1.2s0.2-0.9,0.5-1.2l16-16c0.3-0.3,0.8-0.5,1.2-0.5
			s0.9,0.2,1.2,0.5c0.3,0.3,0.5,0.8,0.5,1.2c0,0.5-0.2,0.9-0.5,1.2l-16,16C8.8,535.4,8.4,535.6,7.9,535.6L7.9,535.6z"/>
		<path class="st4" d="M6.8,515.5c-0.5,0-0.9-0.2-1.2-0.5c-0.3-0.3-0.5-0.8-0.5-1.2c0-0.5,0.2-0.9,0.5-1.2l16-16
			c0.3-0.3,0.8-0.5,1.2-0.5c0.5,0,0.9,0.2,1.2,0.5c0.3,0.3,0.5,0.8,0.5,1.2c0,0.5-0.2,0.9-0.5,1.2L8,515
			C7.7,515.3,7.2,515.5,6.8,515.5z"/>
		<path class="st4" d="M73,469.3c-0.5,0-0.9-0.2-1.2-0.5c-0.7-0.7-0.7-1.8,0-2.5l3.3-3.3c0.3-0.3,0.8-0.5,1.2-0.5s0.9,0.2,1.2,0.5
			c0.7,0.7,0.7,1.8,0,2.5l-3.3,3.3C73.9,469.2,73.5,469.3,73,469.3z"/>
	</g>
	<g>
		<path class="st5" d="M91.9,76.8L102,81c3.5,1.5,7.5-0.2,9-3.7l11.7-27.8c1.5-3.5-0.2-7.5-3.7-9L28,2.3c-3.5-1.5-7.5,0.2-9,3.7
			L7.3,33.8c-1.5,3.5,0.2,7.5,3.7,9L91.9,76.8z"/>
		<path class="st6" d="M68.4,105.6l10.2,24.9c1.1,2.8,4.3,4.1,7.1,3c2.8-1.1,4.1-4.3,3-7.1l-10.2-24.9L68.4,105.6z"/>
		<path class="st1" d="M88.4,88.7c-5.9,14-22,20.5-35.9,14.7c-14-5.9-20.5-22-14.7-35.9s22-20.5,35.9-14.7S94.3,74.7,88.4,88.7z"/>
		<path class="st7" d="M79.5,85c-3.8,9.1-14.3,13.4-23.3,9.5c-9.1-3.8-13.4-14.3-9.5-23.3S60.9,57.8,70,61.6
			C79.1,65.4,83.4,75.9,79.5,85z"/>
		<path class="st4" d="M55.5,96.1C45.5,92,40.8,80.4,45,70.5S60.7,55.8,70.7,60c10,4.2,14.7,15.7,10.5,25.7
			C77,95.6,65.5,100.3,55.5,96.1z M69.3,63.3c-8.2-3.4-17.6,0.4-21,8.6c-3.4,8.2,0.4,17.6,8.6,21c8.2,3.4,17.6-0.4,21-8.6
			S77.5,66.7,69.3,63.3z"/>
		<path class="st4" d="M69.8,82.8c-0.9-0.4-1.3-1.4-0.9-2.3c1.3-3.2-0.2-6.8-3.3-8.2c-0.9-0.4-1.3-1.4-0.9-2.3
			c0.4-0.9,1.4-1.3,2.3-0.9c5,2.1,7.3,7.8,5.2,12.8C71.7,82.8,70.7,83.2,69.8,82.8z"/>
		<path class="st4" d="M35.8,37.8c-0.6-0.3-1-0.8-1.1-1.5L34,27.5c0-0.2-0.1-0.4-0.3-0.4c0,0,0,0,0,0c-0.2-0.1-0.4,0-0.5,0.1
			l-6.4,5.7c-0.5,0.4-1.2,0.6-1.8,0.3l0,0c-0.6-0.3-1-0.8-1.1-1.5l-1.1-13.3c-0.1-1,0.6-1.8,1.6-1.9c0.3,0,0.6,0,0.8,0.1
			c0.6,0.3,1,0.8,1.1,1.5l0.7,8.8c0,0.2,0.1,0.4,0.3,0.4c0,0,0,0,0,0c0.2,0.1,0.4,0,0.5-0.1l6.4-5.7c0.5-0.4,1.2-0.6,1.8-0.3
			c0.6,0.3,1,0.8,1.1,1.5l0.7,8.8c0,0.2,0.1,0.4,0.3,0.4c0,0,0,0,0,0c0.2,0.1,0.4,0,0.5-0.1l6.4-5.7c0.5-0.4,1.2-0.6,1.9-0.3
			c0.2,0.1,0.5,0.3,0.6,0.5c0.3,0.4,0.5,0.8,0.4,1.3c0,0.5-0.2,0.9-0.6,1.2l-9.9,8.8C37.1,37.9,36.4,38,35.8,37.8z"/>
		<path class="st4" d="M45.4,11.5c-0.4-0.2-0.8-0.5-0.9-1c-0.2-0.4-0.2-0.9,0-1.3c0.2-0.4,0.5-0.8,1-0.9c0.4-0.2,0.9-0.2,1.3,0
			c0.4,0.2,0.8,0.5,0.9,1c0.2,0.4,0.2,0.9,0,1.3c-0.2,0.4-0.5,0.8-1,0.9C46.3,11.7,45.8,11.7,45.4,11.5z"/>
		<path class="st4" d="M80.9,135.1c-1.8-0.7-3.2-2.1-3.9-3.9l-9.7-23.8c-0.1-0.1-0.2-0.2-0.3-0.3c-0.1,0-0.2,0-0.3,0
			c-5,0.6-10.2-0.1-14.9-2c-14.8-6.2-21.8-23.4-15.6-38.2c1.3-3.1,3.1-6,5.4-8.4c0.1-0.1,0.2-0.3,0.1-0.5c0-0.2-0.2-0.3-0.3-0.4
			L10.3,44.4c-4.4-1.8-6.5-6.9-4.6-11.3L17.4,5.3c1.8-4.4,6.9-6.5,11.3-4.6l8.6,3.6c0.9,0.4,1.3,1.4,0.9,2.3
			c-0.4,0.9-1.4,1.3-2.3,0.9l-8.6-3.6c-2.6-1.1-5.6,0.1-6.7,2.7L8.9,34.5c-1.1,2.6,0.1,5.6,2.7,6.7L44.7,55c0.2,0.1,0.4,0,0.5-0.1
			C50,51.3,56,49.1,62,48.9c0.2,0,0.3-0.1,0.4-0.2c0.1-0.1,0.1-0.3,0.1-0.4c0-0.1-0.1-0.2-0.1-0.3l-0.7-8.8c0-0.2-0.1-0.4-0.3-0.4
			c0,0,0,0,0,0c-0.2-0.1-0.4,0-0.5,0.1l-6.4,5.7c-0.5,0.4-1.2,0.6-1.8,0.3c-0.6-0.3-1-0.8-1.1-1.5L50.4,30c0-0.5,0.1-0.9,0.4-1.3
			s0.7-0.6,1.2-0.6c0.3,0,0.6,0,0.8,0.1c0.6,0.3,1,0.8,1.1,1.5l0.7,8.8c0,0.2,0.1,0.4,0.3,0.4c0,0,0,0,0,0c0.2,0.1,0.4,0,0.5-0.1
			l6.4-5.7c0.5-0.4,1.2-0.6,1.8-0.3c0.6,0.3,1,0.8,1.1,1.5l0.7,8.8c0,0.2,0.1,0.4,0.3,0.4c0,0,0,0,0,0c0.2,0.1,0.4,0,0.5-0.1
			l6.4-5.7c0.5-0.4,1.2-0.6,1.9-0.3c0.2,0.1,0.5,0.3,0.6,0.5c0.3,0.4,0.5,0.8,0.4,1.3c0,0.5-0.2,0.9-0.6,1.2l-8.8,7.8
			c-0.2,0.1-0.2,0.4-0.2,0.5c0,0.1,0.2,0.3,0.3,0.3c0,0,0.1,0,0.1,0c2.7,0.3,5.3,1,7.8,2.1c1.3,0.5,2.5,1.2,3.8,1.9c0,0,0,0,0.1,0
			c0.2,0.1,0.3,0.1,0.5,0c0.2-0.1,0.3-0.3,0.2-0.5l-0.9-11c-0.1-1,0.6-1.8,1.6-1.9c0.3,0,0.6,0,0.8,0.1c0.6,0.3,1,0.8,1.1,1.5
			l0.7,8.8c0,0.2,0.1,0.4,0.3,0.4c0,0,0,0,0,0c0.2,0.1,0.4,0,0.5-0.1l6.4-5.7c0.5-0.4,1.2-0.6,1.8-0.3c0.6,0.3,1,0.8,1.1,1.5
			l0.7,8.8c0,0.2,0.1,0.4,0.3,0.4c0,0,0,0,0,0c0.2,0.1,0.4,0,0.5-0.1l6.4-5.7c0.5-0.4,1.2-0.6,1.9-0.3c0.2,0.1,0.5,0.3,0.6,0.5
			c0.3,0.4,0.5,0.8,0.4,1.3c0,0.5-0.2,0.9-0.6,1.2L93,60.7c-0.5,0.4-1.2,0.6-1.8,0.3c-0.6-0.3-1-0.8-1.1-1.5l-0.7-8.8
			c0-0.2-0.1-0.4-0.3-0.4c0,0,0,0,0,0c-0.2-0.1-0.4,0-0.5,0.1l-5.9,5.2c-0.1,0.1-0.2,0.2-0.2,0.4c0,0.1,0.1,0.3,0.2,0.4
			c5.3,4.7,8.6,11.2,9.4,18.3c0,0.2,0.1,0.3,0.3,0.4c0,0,0,0,0,0c0,0,0.1,0,0.1,0.1l10.1,4.3c2.6,1.1,5.6-0.1,6.7-2.7l11.7-27.8
			c1.1-2.6-0.1-5.6-2.7-6.7L54.3,15.3c-0.9-0.4-1.3-1.4-0.9-2.3c0.4-0.9,1.4-1.3,2.3-0.9l64.1,26.9c4.4,1.8,6.5,6.9,4.6,11.3
			L112.6,78c-1.8,4.4-6.9,6.5-11.3,4.6L93,79.1c-0.2-0.1-0.3-0.1-0.5,0c-0.1,0.1-0.2,0.2-0.2,0.4c-0.2,3.4-0.9,6.7-2.2,9.8
			c-3.4,8.2-10.3,14.3-18.8,16.7c-0.1,0-0.3,0.1-0.3,0.3c-0.1,0.1-0.1,0.3,0,0.4l9.4,23c0.4,0.9,1.1,1.6,2,2s1.9,0.4,2.8,0
			c1.9-0.8,2.8-2.9,2-4.8l-3.8-9.3c-0.4-0.9,0.1-1.9,1-2.3c0.4-0.2,0.9-0.2,1.3,0c0.4,0.2,0.8,0.5,0.9,1l3.8,9.3
			c1.5,3.7-0.3,7.9-4,9.4C84.6,135.8,82.6,135.8,80.9,135.1z M73,54.4C60,48.9,44.9,55.1,39.4,68.1s0.7,28.1,13.7,33.6
			c13.1,5.5,28.1-0.7,33.6-13.7S86.1,59.9,73,54.4z"/>
		<path class="st4" d="M81.3,111.5c-0.4-0.2-0.8-0.5-0.9-1c-0.2-0.4-0.2-0.9,0-1.3c0.2-0.4,0.5-0.8,1-0.9c0.4-0.2,0.9-0.2,1.3,0
			c0.4,0.2,0.8,0.5,0.9,1c0.2,0.4,0.2,0.9,0,1.3c-0.2,0.4-0.5,0.8-1,0.9C82.2,111.7,81.7,111.7,81.3,111.5z"/>
	</g>
	<g>
		<path class="st8" d="M52.6,304L71,322.4c12,12,32.1,12.7,44.7,0c12.3-12.3,12.3-32.4,0-44.7l-18.4-18.4c-3.5-3.5-7.7-6.1-12.3-7.6
			l-6.2-0.4L65,251.8l-0.1-0.1c-4.6,1.5-8.8,4.1-12.3,7.6c-3.6,3.6-6.1,7.8-7.6,12.3l-11.4,2.9L45,291.7
			C46.5,296.2,49,300.4,52.6,304z M65,291.6l10-9.8l10-9.9l18.3,18.2c5.5,5.5,5.5,14.4,0,19.9c-5.4,5.4-14.3,5.6-19.9,0L65,291.6z"
			/>
		<path class="st9" d="M45,291.7l-11.4-17.3l11.4-2.9c1.5-4.5,4-8.7,7.6-12.3L75,281.7l-10,9.8L83.4,310c5.6,5.6,14.5,5.4,19.9,0
			l12.4,12.4c-12.7,12.7-32.7,12-44.7,0L52.6,304C49,300.4,46.5,296.2,45,291.7z"/>
		<path class="st10" d="M22.7,314c-1.4-1.4-1.4-3.6,0-5l5-5c1.4-1.4,3.6-1.4,5,0c1.4,1.4,1.4,3.6,0,5l-5,5
			C26.3,315.3,24.1,315.3,22.7,314z"/>
		<path class="st11" d="M97.3,239.4c-1.4-1.4-1.4-3.6,0-5l5-5c1.4-1.4,3.6-1.4,5,0c1.4,1.4,1.4,3.6,0,5l-5,5
			C100.9,240.8,98.7,240.8,97.3,239.4z"/>
		<path class="st10" d="M18.4,287.8l-6.8,1.8c-1.9,0.5-3.8-0.6-4.3-2.5c-0.5-1.9,0.6-3.8,2.5-4.3l6.8-1.8c1.9-0.5,3.8,0.6,4.3,2.5
			C21.4,285.4,20.2,287.3,18.4,287.8z"/>
		<path class="st11" d="M120.2,260.5l-6.8,1.8c-1.9,0.5-3.8-0.6-4.3-2.5c-0.5-1.9,0.6-3.8,2.5-4.3l6.8-1.8c1.9-0.5,3.8,0.6,4.3,2.5
			C123.2,258.1,122.1,260,120.2,260.5z"/>
		<path class="st10" d="M49.5,329.4c-1.9-0.5-3-2.4-2.5-4.3l1.8-6.8c0.5-1.9,2.4-3,4.3-2.5c1.9,0.5,3,2.4,2.5,4.3l-1.8,6.8
			C53.3,328.8,51.4,329.9,49.5,329.4z"/>
		<path class="st11" d="M76.8,227.6c-1.9-0.5-3-2.4-2.5-4.3l1.8-6.8c0.5-1.9,2.4-3,4.3-2.5c1.9,0.5,3,2.4,2.5,4.3l-1.8,6.8
			C80.6,226.9,78.7,228.1,76.8,227.6z"/>
		<path class="st12" d="M14.2,265.7l18.4,18.4c3.5,3.5,7.8,6.1,12.3,7.6c-2.2-6.6-2.2-13.6,0-20.2l-18.3-18.2
			c-5.5-5.5-5.5-14.4,0-19.9c2.6-2.6,6.1-4,8.8-4c0.2-0.1,1-0.1,1.1,0c3.8,0,7.3,1.4,9.9,4.1L65,251.8c5.5,5.5,5.5,14.4,0,19.9
			s-5.5,14.4,0,19.9l0.1,0.1c4.6-1.5,8.8-4.1,12.3-7.6c3.6-3.6,6.1-7.8,7.6-12.3c2.2-6.6,2.2-13.6,0-20.2c-1.5-4.5-4-8.7-7.6-12.3
			L59,221c-12.4-12.4-32.4-12.3-44.7,0C1.9,233.3,1.9,253.4,14.2,265.7z"/>
		<g>
			<path class="st13" d="M65,271.7l12.4,12.4c-3.5,3.5-7.7,6.1-12.3,7.6l-0.1-0.1C59.5,286.1,59.5,277.2,65,271.7z"/>
			<path class="st13" d="M14.2,221l12.4,12.4c-5.5,5.5-5.5,14.4,0,19.9L45,271.6c-2.2,6.6-2.2,13.6,0,20.2
				c-4.5-1.5-8.8-4.1-12.3-7.6l-18.4-18.4C1.9,253.4,1.9,233.3,14.2,221z"/>
		</g>
	</g>
</g>
</svg>
