<?xml version="1.0" encoding="utf-8"?>
<!-- Generator: Adobe Illustrator 25.0.0, SVG Export Plug-In . SVG Version: 6.00 Build 0)  -->
<svg version="1.1" id="Layer_1" xmlns="http://www.w3.org/2000/svg" xmlns:xlink="http://www.w3.org/1999/xlink" x="0px" y="0px"
	 viewBox="0 0 430 430" style="enable-background:new 0 0 430 430;" xml:space="preserve">
<style type="text/css">
	.st0{fill:#FFC729;}
	.st1{fill:#FCD770;}
	.st2{fill:#CF9E76;}
	.st3{fill:#35414D;}
</style>
<g>
	<g>
		<g>
			<path class="st0" d="M96,103c0,37.5,29.5,68.1,66.5,69.9v0.1l-10.5,7l9,15.1c1.2,2,2.2,3.9,3.2,6c-9.5-0.1-18.6-1.6-27.2-4.3
				c-20.7-6.4-38.5-19.5-50.8-36.8C74.8,143.9,68,124.2,68,103c0-54.1,43.9-98,98-98c34.2,0,64.3,17.6,81.9,44.2
				c10.2,15.4,16.1,34,16.1,53.8c0,9.8-1.4,19.3-4.1,28.2c-6,19.6-17.8,36.6-33.5,49L222,145c8.8-11.7,14-26.3,14-42
				c0-38.6-31.4-70-70-70S96,64.3,96,103L96,103z"/>
		</g>
		<g>
			<circle class="st1" cx="313" cy="278" r="21"/>
		</g>
		<g>
			<circle class="st1" cx="397" cy="285" r="28"/>
		</g>
		<g>
			<path class="st1" d="M327,222c-16.6,0-31.9-5.8-43.9-15.5L292,187l-14-21l-14.8,14.8c-3.9-8.8-6.2-18.6-6.2-28.8
				c0-7.3,1.1-14.2,3.2-20.8C269,102.7,295.6,82,327,82c19.6,0,37.3,8.1,50.1,21.1c12.3,12.6,20,29.9,20,48.9
				C397,190.6,365.7,222,327,222z"/>
		</g>
		<g>
			<path class="st1" d="M327,82c-31.4,0-58,20.7-66.9,49.2h-0.2c2.7-9,4.1-18.4,4.1-28.2c0-19.9-6-38.4-16.1-53.8
				C258.2,23.3,283.5,5,313,5c38.6,0,70,31.4,70,70c0,9.9-2.1,19.4-5.8,27.9l-0.1,0.1C364.3,90,346.6,82,327,82z"/>
		</g>
		<g>
			<path class="st1" d="M173,166l-10.5,7v-0.1c-37-1.8-66.5-32.4-66.5-69.9c0-38.6,31.4-70,70-70s70,31.4,70,70
				c0,15.8-5.2,30.3-14,42l-28,7v35L173,166z"/>
		</g>
		<g>
			<circle class="st1" cx="40" cy="355" r="21"/>
		</g>
		<g>
			<path class="st1" d="M137.1,196.7c5,9.7,7.9,20.7,7.9,32.3c0,38.6-31.4,70-70,70c-12.7,0-24.7-3.4-35-9.4
				C19.1,277.5,5,254.9,5,229c0-38.6,31.4-70,70-70c3.9,0,7.6,0.3,11.2,0.9h0.1C98.6,177.2,116.4,190.3,137.1,196.7z"/>
		</g>
		<g>
			<path class="st2" d="M336.1,425H90c-4.4,0-8-3.6-8-8c0-3.6,2.4-6.7,5.8-7.7c26.9-7.6,47.9-28.6,55.5-55.5l26.5-92.5
				c2.1-7.5,3.2-15.3,3.2-23c0-13-3-25.7-8.8-37.2c-1-2-2-4-3.2-6l-9-15.1l10.5-7l10.5-7l21,21v-35l28-7l4.4,35.2l1.4,11.3
				c0.7,5.4,5.3,9.5,10.7,9.5c2.9,0,5.6-1.1,7.6-3.2l17-17L278,166l14,21l-8.9,19.5l-1.3,3c-8.1,17.9-14.4,36.7-18.5,55.9
				c-4.2,19.2-6.3,38.8-6.3,58.5c0,6.7,0.9,13.4,2.8,19.9c6.9,24.4,26.1,43.3,50.6,50l28.8,7.9c5.2,1.4,8.8,6.1,8.8,11.5
				C348,419.7,342.7,425,336.1,425L336.1,425z"/>
		</g>
	</g>
	<path class="st3" d="M161,150v-14h-2c-9.8,0-17.9-7.4-18.9-17h10.1c0.9,4,4.5,7,8.8,7h14c5,0,9-4,9-9c0-5-4-9-9-9h-14
		c-10.5,0-19-8.5-19-19s8.5-19,19-19h2V56h10v14h2c9.8,0,17.9,7.4,18.9,17h-10.1c-0.9-4-4.5-7-8.8-7h-14c-5,0-9,4-9,9c0,5,4,9,9,9
		h14c10.5,0,19,8.5,19,19c0,10.5-8.5,19-19,19h-2v14H161z"/>
	<path class="st3" d="M322,199v-14h-2c-9.8,0-17.9-7.4-18.9-17h10.1c0.9,4,4.5,7,8.8,7h14c5,0,9-4,9-9s-4-9-9-9h-14
		c-10.5,0-19-8.5-19-19c0-10.5,8.5-19,19-19h2v-14h10v14h2c9.8,0,17.9,7.4,18.9,17h-10.1c-0.9-4-4.5-7-8.8-7h-14c-5,0-9,4-9,9
		c0,5,4,9,9,9h14c10.5,0,19,8.5,19,19s-8.5,19-19,19h-2v14H322z"/>
	<path class="st3" d="M70,276v-14h-2c-9.8,0-17.9-7.4-18.9-17h10.1c0.9,4,4.5,7,8.8,7h14c5,0,9-4,9-9s-4-9-9-9H68
		c-10.5,0-19-8.5-19-19s8.5-19,19-19h2v-14h10v14h2c9.8,0,17.9,7.4,18.9,17H90.8c-0.9-4-4.5-7-8.8-7H68c-5,0-9,4-9,9s4,9,9,9h14
		c10.5,0,19,8.5,19,19c0,10.5-8.5,19-19,19h-2v14H70z"/>
	<path class="st3" d="M90,430c-7.1,0-13-5.8-13-13c0-5.8,3.9-10.9,9.4-12.5c25.4-7.3,44.9-26.7,52.1-52.1l26.4-92.5
		c2-7.1,3-14.4,3-21.7c0-10.8-2.2-21.4-6.5-31.4l-0.5-1.1l-1.2-0.1c-3.7-0.2-7.4-0.7-11-1.3l-3.2-0.6l1,3.1c2.3,7.5,3.4,14.9,3.4,22
		c0,41.3-33.6,75-75,75c-9.3,0-18.5-1.8-27.3-5.2l-2.8-1.1v31.9l1.5,0.4C58,332.9,66,343.2,66,355c0,14.3-11.7,26-26,26
		s-26-11.7-26-26c0-11.8,8-22.1,19.5-25.1l1.5-0.4v-37.2l-0.9-0.6C12.7,277.8,0,254.3,0,229c0-19.7,7.6-38.3,21.5-52.4
		c13.8-14.1,32.2-22.1,51.9-22.5l3.3-0.1l-1.6-2.9C67.2,136.3,63,119.7,63,103C63,46.2,109.2,0,166,0c30.6,0,59.4,13.5,79.1,37.1
		l1.8,2.2l1.5-2.5C261.9,13.8,286.1,0,313,0c41.3,0,75,33.6,75,75c0,8.8-1.6,17.5-4.7,26l-0.4,1.1l0.8,0.9
		c11.8,13.7,18.4,31.1,18.4,49v100.4l1.6,0.3c15.3,3.1,26.4,16.7,26.4,32.3c0,18.2-14.8,33-33,33s-33-14.8-33-33
		c0-15.6,11.1-29.2,26.4-32.3l1.6-0.3v-62.6l-3.7,5.2c-14.1,20-37,32-61.4,32c-2.1,0-4.4-0.1-6.8-0.3l-2.2-0.2v26.1l1.5,0.4
		c11.5,3,19.5,13.3,19.5,25.1c0,14.3-11.7,26-26,26c-14.3,0-26-11.7-26-26c0-11.8,8-22.1,19.5-25.1l1.5-0.4v-28.1l-1.5-0.4
		c-6.8-1.9-13.3-4.8-19.4-8.6l-2-1.2l-0.9,2.2c-14.8,34.2-22.3,70.4-22.3,107.5c0,6.3,0.9,12.5,2.6,18.5
		c6.4,22.5,24.5,40.4,47.1,46.6l28.9,7.9c7.3,2,12.4,8.7,12.4,16.3c0,9.3-7.6,16.9-16.9,16.9H90z M158.7,181.5l6.6,11
		c8.3,13.8,12.7,29.6,12.7,45.7c0,8.3-1.1,16.5-3.4,24.4l-26.4,92.5c-8.2,28.7-30.3,50.8-59,59c-1.3,0.4-2.2,1.6-2.2,2.9
		c0,1.7,1.3,3,3,3h246.1c3.8,0,6.9-3.1,6.9-6.9c0-3.1-2.1-5.9-5.1-6.7l-28.9-7.9c-26-7.1-46.7-27.5-54.1-53.4c-2-6.9-3-14.1-3-21.3
		c0-40.4,8.5-79.6,25.2-116.4l9.1-20l-9.1-13.6l-27.6,27.5c-3,3-6.9,4.6-11.2,4.6c-7.9,0-14.7-5.9-15.7-13.8l-5.1-41l-18.8,4.7V199
		l-26.6-26.6L158.7,181.5z M40,339c-8.8,0-16,7.2-16,16c0,8.8,7.2,16,16,16s16-7.2,16-16C56,346.2,48.8,339,40,339z M397,262
		c-12.7,0-23,10.3-23,23s10.3,23,23,23s23-10.3,23-23S409.7,262,397,262z M313,262c-8.8,0-16,7.2-16,16c0,8.8,7.2,16,16,16
		c8.8,0,16-7.2,16-16C329,269.2,321.8,262,313,262z M75,164c-35.9,0-65,29.2-65,65c0,35.9,29.2,65,65,65c35.9,0,65-29.2,65-65
		c0-9.4-2.2-18.9-6.3-27.7l-0.4-0.8l-0.8-0.3c-19.1-6.6-35.8-18.7-48.2-35l-0.5-0.7l-0.8-0.1C80,164.2,77.4,164,75,164z M289.3,205
		l1.4,1C301.4,213.2,314,217,327,217c35.9,0,65-29.2,65-65c0-35.9-29.2-65-65-65c-35.9,0-65,29.2-65,65c0,5.4,0.7,10.9,2.2,16.5
		l0.9,3.4l13.7-13.7l18.9,28.4L289.3,205z M249.5,163.1c-4.9,6.8-10.6,12.9-17,18.3l-0.8,0.7l1.1,8.8c0.4,2.8,2.9,5,6,5
		c1.5,0,2.9-0.6,3.9-1.6l14.7-14.7l-0.5-1.2c-1.7-4.6-3-9.5-3.8-14.4l-0.8-4.8L249.5,163.1z M166,10c-51.3,0-93,41.7-93,93
		c0,45,33.6,84.4,78.2,91.7l4.3,0.7l-10.1-16.9l3.6-2.4l-4.1-1.2c-15.2-4.5-28.9-13.9-38.6-26.6C96.3,135.1,91,119.5,91,103
		c0-41.3,33.6-75,75-75s75,33.6,75,75c0,15.3-4.6,30-13.4,42.6l-0.4,0.6l3,24.1l2.9-3.1c16.7-17.4,25.9-40.2,25.9-64.3
		C259,51.7,217.3,10,166,10z M189,175v-26.9l30-7.5l0.4-0.6c7.6-10.9,11.6-23.7,11.6-37c0-35.9-29.2-65-65-65s-65,29.2-65,65
		c0,34.1,25.6,62,59.7,64.7l0.7,0.1l12.3-8.2L189,175z M313,10c-25.7,0-48.3,14.6-59,38.1l-0.4,1l0.6,0.9c9,15,14.1,32.1,14.7,49.6
		l0.2,4.9l3.3-3.6c7.6-8.2,16.7-14.4,26.9-18.5l4.8-1.9l-4.8-1.8C291.8,75.8,287,68.9,287,61c0-10.5,8.5-19,19-19h2V28h10v14h2
		c9.8,0,17.9,7.4,18.9,17h-10.1c-0.9-4-4.5-7-8.8-7h-14c-5,0-9,4-9,9s4,9,9,9h14c5.5,0,10.7,2.5,14.4,6.8l0.5,0.6l0.8,0.1
		c13.4,1.6,26.1,6.8,36.9,15.1l2.4,1.9l0.8-2.9C377.3,86,378,80.4,378,75C378,39.1,348.9,10,313,10z"/>
	<path class="st3" d="M217,290v-12c0-20.8-6.7-41.5-18.8-58.4l8-6C219.6,232.3,227,255,227,278v12H217z"/>
	<path class="st3" d="M175,388v-0.7c0-16.8,4.7-33.1,13.7-47.3l8.3,5.5c-7.9,12.5-12.1,26.9-12.1,41.8v0.7H175z"/>
	<path class="st3" d="M253,407.5c-17.9-9.8-29-28.3-29-48.8V357h10v1.7c0,16.7,8.9,31.8,23.5,39.9L253,407.5z"/>
</g>
</svg>
