<?xml version="1.0" encoding="utf-8"?>
<!-- Generator: Adobe Illustrator 25.0.0, SVG Export Plug-In . SVG Version: 6.00 Build 0)  -->
<svg version="1.1" id="Layer_1" xmlns="http://www.w3.org/2000/svg" xmlns:xlink="http://www.w3.org/1999/xlink" x="0px" y="0px"
	 viewBox="0 0 130 535.6" style="enable-background:new 0 0 130 535.6;" xml:space="preserve">
<style type="text/css">
	.st0{fill:#EC5664;}
	.st1{fill:#FFFFFF;}
	.st2{fill:#7BD8E8;}
	.st3{fill:#FFCF66;stroke:#35414D;stroke-width:2.1818;stroke-miterlimit:10;}
	.st4{fill:#35414D;}
	.st5{fill:#FFC66C;}
	.st6{fill:#FF5D5D;}
	.st7{fill:#FFE4CF;}
	.st8{fill:#4A696F;stroke:#35414D;stroke-width:3;stroke-miterlimit:10;}
	.st9{fill:#384949;stroke:#35414D;stroke-width:3;stroke-miterlimit:10;}
	.st10{fill:#D2C5C2;stroke:#35414D;stroke-width:3;stroke-miterlimit:10;}
	.st11{fill:#DFD7D5;stroke:#35414D;stroke-width:3;stroke-miterlimit:10;}
	.st12{fill:#FFCF66;stroke:#35414D;stroke-width:3;stroke-miterlimit:10;}
	.st13{fill:#E8BA5D;stroke:#35414D;stroke-width:3;stroke-miterlimit:10;}
</style>
<g>
	<g>
		<path class="st0" d="M6.8,417.4c0,0,0.5,12.7,5.8,27.7l22-22C19.6,417.8,6.8,417.4,6.8,417.4z"/>
		<path class="st1" d="M34.5,423.1l-22,22c3.4,9.7,8.9,20.4,17.7,29.2c8.1,8.1,17.8,14.5,27.9,19l24.6-24.6c-3-6.8-7.2-14-12.7-20.9
			c-1.9-2.4-4-4.7-6.3-7C55,432,44.3,426.5,34.5,423.1z"/>
		<path class="st2" d="M33.6,444.1c-3.7,3.7-3.7,9.7,0,13.4s9.7,3.7,13.4,0c3.7-3.7,3.7-9.7,0-13.4
			C43.3,440.4,37.3,440.4,33.6,444.1z"/>
		<g>
			<path class="st0" d="M37,481c-12.2,18.3,10.6,30.1,23.4,30.1c-6.7-6.7-4.7-15.3-4.7-15.3l2.5-2.5c-6.8-3-14-7.2-20.9-12.7L37,481
				z"/>
			<path class="st0" d="M85.5,486l0.4-0.4c1.1-1.1,1.7-2.8,1.3-4.3c-1-3.8-2.4-8.1-4.4-12.6l-24.6,24.6c4.5,2,8.8,3.4,12.6,4.4
				c1.6,0.4,3.2-0.2,4.3-1.3l0.4-0.4L85.5,486z"/>
			<path class="st0" d="M70.4,447.5l-0.4,0.3c5.5,6.9,9.7,14.1,12.7,20.9l2.5-2.5c0,0,8.7-2,15.3,4.7
				C100.6,458.1,88.7,435.3,70.4,447.5z"/>
		</g>
		<path class="st3" d="M85.5,486l-10,10c0.7,2.8,2.4,5.8,5,8.4c5.5,5.5,20.1,6.7,20.1,6.7s-1.1-14.5-6.7-20.1
			C91.3,488.4,88.3,486.7,85.5,486z"/>
		<path class="st4" d="M63.7,476c0.5,0,0.9-0.2,1.2-0.5c0.7-0.7,0.7-1.8,0-2.5c-0.3-0.3-0.8-0.5-1.2-0.5c-0.5,0-0.9,0.2-1.2,0.5
			c-0.7,0.7-0.7,1.8,0,2.5C62.8,475.8,63.2,476,63.7,476z"/>
		<path class="st4" d="M40.2,462.1c-3,0-5.8-1.2-7.9-3.3c-2.1-2.1-3.3-4.9-3.3-7.9c0-3,1.2-5.8,3.3-7.9c2.1-2.1,4.9-3.3,7.9-3.3
			c3,0,5.8,1.2,7.9,3.3c4.4,4.4,4.4,11.5,0,15.9C46.1,460.9,43.2,462.1,40.2,462.1C40.2,462.1,40.2,462.1,40.2,462.1z M34.8,445.4
			c-1.5,1.5-2.3,3.4-2.3,5.5c0,2.1,0.8,4,2.3,5.5c1.5,1.5,3.4,2.3,5.4,2.3c2.1,0,4-0.8,5.5-2.3c3-3,3-7.9,0-10.9
			c-1.5-1.5-3.4-2.3-5.5-2.3C38.2,443.1,36.2,443.9,34.8,445.4z"/>
		<path class="st4" d="M33.6,498.6c-2-3.7-3.4-9.7,1-17.2c0.1-0.3,0.1-0.6-0.1-0.8c-1.9-1.6-3.8-3.3-5.5-5.1
			c-7.8-7.8-13.8-17.8-18.1-29.8c-5.3-15-5.8-27.7-5.9-28.3c0-0.5,0.2-1,0.5-1.3c0.3-0.3,0.8-0.5,1.2-0.5l0.1,0
			c0.5,0,13.2,0.5,28.3,5.9c12.1,4.3,22.1,10.3,29.8,18.1c1.7,1.7,3.4,3.6,5.1,5.5c0.1,0.1,0.3,0.2,0.5,0.2c0.1,0,0.2,0,0.3-0.1
			c3.3-1.9,6.6-2.9,9.8-2.9c2.6,0,5.1,0.6,7.5,1.9c8.8,4.7,14.3,17.6,14.3,26.8c0,0.7-0.4,1.4-1.1,1.6c-0.2,0.1-0.4,0.1-0.7,0.1
			c-0.5,0-0.9-0.2-1.2-0.5c-3.7-3.7-8.1-4.5-11.1-4.5c-0.9,0-1.5,0.1-2,0.1c-0.1,0-0.3,0.1-0.3,0.2l-0.8,0.8
			c-0.2,0.2-0.2,0.4-0.1,0.7c1.6,3.9,2.9,7.7,3.9,11.4c0.3,1.2,0.2,2.5-0.3,3.7c-0.1,0.3,0,0.6,0.3,0.8c2.2,1,4.4,2.5,6.2,4.4
			c5.9,5.9,7.2,20.6,7.2,21.2c0,0.5-0.1,1-0.5,1.4c-0.3,0.3-0.8,0.5-1.2,0.5c0,0-0.1,0-0.1,0c-0.6,0-15.3-1.3-21.2-7.2
			c-1.8-1.8-3.4-4-4.4-6.2c-0.1-0.2-0.3-0.4-0.6-0.4c-0.1,0-0.1,0-0.2,0c-0.7,0.3-1.5,0.4-2.3,0.4c-0.5,0-1-0.1-1.4-0.2
			c-3.7-1-7.6-2.3-11.4-3.9c-0.1,0-0.2,0-0.2,0c-0.2,0-0.3,0.1-0.4,0.2l-0.8,0.8c-0.1,0.1-0.2,0.2-0.2,0.3c-0.2,1.8-0.6,8,4.4,13
			c0.5,0.5,0.7,1.3,0.4,1.9c-0.3,0.7-0.9,1.1-1.6,1.1C51.1,512.9,38.3,507.4,33.6,498.6z M85.6,488.3l-8,8c-0.2,0.2-0.2,0.4-0.1,0.6
			c0.8,2.2,2.2,4.4,4.1,6.3c3.7,3.7,12.5,5.3,16.1,5.8c0,0,0.1,0,0.1,0c0.2,0,0.3-0.1,0.4-0.2c0.1-0.1,0.2-0.3,0.2-0.5
			c-0.5-3.6-2.1-12.4-5.8-16.1c-1.9-1.9-4.1-3.3-6.3-4.1c-0.1,0-0.1,0-0.2,0C85.9,488.1,85.8,488.2,85.6,488.3z M37.7,483.4
			c-0.2,0-0.3,0.1-0.4,0.3c-2.6,4.7-2.8,9.1-0.6,13.2c3.3,6.2,11.7,10.4,18.4,11.8c0,0,0.1,0,0.1,0c0.2,0,0.4-0.1,0.5-0.2
			c0.1-0.2,0.2-0.4,0.1-0.6c-2.2-4.2-2.7-9.5-1.9-12.6c0.1-0.5,0.4-0.8,0.5-0.9c0,0,0.1-0.1,0.1-0.2c0.1-0.1,0.1-0.3,0.1-0.5
			c0-0.2-0.2-0.3-0.3-0.4c-5.7-2.8-11.1-6.1-16.1-9.9c-0.1-0.1-0.2-0.1-0.4-0.1C37.8,483.4,37.7,483.4,37.7,483.4z M81.4,472.4
			L61.8,492c-0.1,0.1-0.2,0.4-0.2,0.6c0,0.2,0.2,0.4,0.4,0.4c3.1,1.2,6.1,2.2,9.1,3c0.2,0,0.4,0.1,0.6,0.1c0.7,0,1.5-0.3,2.1-0.9
			l10.8-10.8c0.7-0.7,1.1-1.8,0.8-2.6c-0.8-3-1.8-6-3-9.1c-0.1-0.2-0.2-0.3-0.4-0.4c0,0-0.1,0-0.1,0
			C81.7,472.2,81.5,472.3,81.4,472.4z M34.7,425.4l-19.8,19.8c-0.2,0.2-0.2,0.4-0.1,0.6c4.1,10.9,9.7,20.1,16.8,27.1
			c2.1,2.1,4.5,4.2,6.9,6.2c5.8,4.7,12.2,8.6,19,11.8c0.1,0,0.2,0.1,0.3,0.1c0.2,0,0.3-0.1,0.4-0.2l22.3-22.3
			c0.2-0.2,0.2-0.5,0.1-0.7c-3.1-6.8-7.1-13.2-11.8-19c-2-2.4-4-4.7-6.2-6.9c-7.1-7.1-16.2-12.7-27.1-16.8c-0.1,0-0.1,0-0.2,0
			C34.9,425.2,34.8,425.3,34.7,425.4z M73.1,447.9c-0.2,0.1-0.3,0.2-0.3,0.4c0,0.2,0,0.4,0.1,0.5c3.8,5,7.1,10.4,9.9,16.1
			c0.1,0.2,0.2,0.3,0.4,0.3c0.1,0,0.1,0,0.2,0c0.1,0,0.2,0,0.3-0.1c0,0,0.1-0.1,0.1-0.1c0.3-0.3,0.6-0.5,0.9-0.5
			c0.1,0,1.4-0.3,3.4-0.3c2.3,0,5.7,0.4,9.1,2.2c0.1,0,0.2,0.1,0.3,0.1c0.1,0,0.3,0,0.4-0.1c0.2-0.1,0.3-0.4,0.2-0.6
			c-1.4-6.8-5.6-15.1-11.8-18.4c-1.8-1-3.8-1.5-5.8-1.5C78.2,445.8,75.7,446.5,73.1,447.9z M9.3,419.3c-0.2,0-0.3,0.1-0.4,0.2
			c-0.1,0.1-0.2,0.3-0.2,0.5c0.4,3.9,1.4,11.8,4.3,20.9c0.1,0.2,0.2,0.4,0.4,0.4c0,0,0.1,0,0.1,0c0.2,0,0.3-0.1,0.4-0.2l16.5-16.5
			c0.2-0.2,0.2-0.4,0.2-0.6c-0.1-0.2-0.2-0.4-0.4-0.4C21.2,420.7,13.3,419.7,9.3,419.3C9.4,419.3,9.3,419.3,9.3,419.3z"/>
		<path class="st4" d="M77.1,522.9c0.5,0,0.9-0.2,1.2-0.5c0.7-0.7,0.7-1.8,0-2.5l-6.7-6.7c-0.3-0.3-0.8-0.5-1.2-0.5
			s-0.9,0.2-1.2,0.5s-0.5,0.8-0.5,1.2s0.2,0.9,0.5,1.2l6.7,6.7C76.2,522.7,76.6,522.9,77.1,522.9L77.1,522.9z"/>
		<path class="st4" d="M110.6,489.4c0.5,0,0.9-0.2,1.2-0.5c0.7-0.7,0.7-1.8,0-2.5l-6.7-6.7c-0.3-0.3-0.8-0.5-1.2-0.5
			c-0.5,0-0.9,0.2-1.2,0.5c-0.7,0.7-0.7,1.8,0,2.5l6.7,6.7C109.6,489.2,110.1,489.4,110.6,489.4
			C110.6,489.4,110.6,489.4,110.6,489.4z"/>
		<path class="st4" d="M103.2,535.6c0.5,0,0.9-0.2,1.2-0.5s0.5-0.8,0.5-1.2s-0.2-0.9-0.5-1.2l-16-16c-0.3-0.3-0.8-0.5-1.2-0.5
			s-0.9,0.2-1.2,0.5c-0.3,0.3-0.5,0.8-0.5,1.2c0,0.5,0.2,0.9,0.5,1.2l16,16C102.2,535.4,102.7,535.6,103.2,535.6L103.2,535.6z"/>
		<path class="st4" d="M122.1,535.6c0.5,0,0.9-0.2,1.2-0.5s0.5-0.8,0.5-1.2s-0.2-0.9-0.5-1.2l-16-16c-0.3-0.3-0.8-0.5-1.2-0.5
			c-0.5,0-0.9,0.2-1.2,0.5s-0.5,0.8-0.5,1.2c0,0.5,0.2,0.9,0.5,1.2l16,16C121.2,535.4,121.6,535.6,122.1,535.6L122.1,535.6z"/>
		<path class="st4" d="M123.2,515.5c0.5,0,0.9-0.2,1.2-0.5c0.3-0.3,0.5-0.8,0.5-1.2c0-0.5-0.2-0.9-0.5-1.2l-16-16
			c-0.3-0.3-0.8-0.5-1.2-0.5c-0.5,0-0.9,0.2-1.2,0.5c-0.3,0.3-0.5,0.8-0.5,1.2c0,0.5,0.2,0.9,0.5,1.2l16,16
			C122.3,515.3,122.8,515.5,123.2,515.5z"/>
		<path class="st4" d="M57,469.3c0.5,0,0.9-0.2,1.2-0.5c0.7-0.7,0.7-1.8,0-2.5l-3.3-3.3c-0.3-0.3-0.8-0.5-1.2-0.5s-0.9,0.2-1.2,0.5
			c-0.7,0.7-0.7,1.8,0,2.5l3.3,3.3C56.1,469.2,56.5,469.3,57,469.3z"/>
	</g>
	<g>
		<path class="st5" d="M38.1,76.8L28,81c-3.5,1.5-7.5-0.2-9-3.7L7.3,49.5C5.8,46,7.5,42,11,40.6L102,2.3c3.5-1.5,7.5,0.2,9,3.7
			l11.7,27.8c1.5,3.5-0.2,7.5-3.7,9L38.1,76.8z"/>
		<path class="st6" d="M61.6,105.6l-10.2,24.9c-1.1,2.8-4.3,4.1-7.1,3c-2.8-1.1-4.1-4.3-3-7.1l10.2-24.9L61.6,105.6z"/>
		<path class="st1" d="M41.6,88.7c5.9,14,22,20.5,35.9,14.7c14-5.9,20.5-22,14.7-35.9c-5.9-14-22-20.5-35.9-14.7
			S35.7,74.7,41.6,88.7z"/>
		<path class="st7" d="M50.5,85c3.8,9.1,14.3,13.4,23.3,9.5c9.1-3.8,13.4-14.3,9.5-23.3c-3.8-9.1-14.3-13.4-23.3-9.5
			C50.9,65.4,46.6,75.9,50.5,85z"/>
		<path class="st4" d="M48.8,85.7c-4.2-10,0.5-21.5,10.5-25.7c10-4.2,21.5,0.5,25.7,10.5c4.2,10-0.5,21.5-10.5,25.7
			C64.5,100.3,53,95.6,48.8,85.7z M52.1,84.3c3.4,8.2,12.9,12,21,8.6c8.2-3.4,12-12.9,8.6-21s-12.9-12-21-8.6S48.6,76.1,52.1,84.3z"
			/>
		<path class="st4" d="M60.2,82.8c0.9-0.4,1.3-1.4,0.9-2.3c-1.3-3.2,0.2-6.8,3.3-8.2c0.9-0.4,1.3-1.4,0.9-2.3
			c-0.4-0.9-1.4-1.3-2.3-0.9c-5,2.1-7.3,7.8-5.2,12.8C58.3,82.8,59.3,83.2,60.2,82.8z"/>
		<path class="st4" d="M94.2,37.8c0.6-0.3,1-0.8,1.1-1.5l0.7-8.8c0-0.2,0.1-0.4,0.3-0.4c0,0,0,0,0,0c0.2-0.1,0.4,0,0.5,0.1l6.4,5.7
			c0.5,0.4,1.2,0.6,1.8,0.3l0,0c0.6-0.3,1-0.8,1.1-1.5l1.1-13.3c0.1-1-0.6-1.8-1.6-1.9c-0.3,0-0.6,0-0.8,0.1c-0.6,0.3-1,0.8-1.1,1.5
			l-0.7,8.8c0,0.2-0.1,0.4-0.3,0.4c0,0,0,0,0,0c-0.2,0.1-0.4,0-0.5-0.1l-6.4-5.7c-0.5-0.4-1.2-0.6-1.8-0.3c-0.6,0.3-1,0.8-1.1,1.5
			l-0.7,8.8c0,0.2-0.1,0.4-0.3,0.4c0,0,0,0,0,0c-0.2,0.1-0.4,0-0.5-0.1l-6.4-5.7c-0.5-0.4-1.2-0.6-1.9-0.3c-0.2,0.1-0.5,0.3-0.6,0.5
			c-0.3,0.4-0.5,0.8-0.4,1.3c0,0.5,0.2,0.9,0.6,1.2l9.9,8.8C92.9,37.9,93.6,38,94.2,37.8z"/>
		<path class="st4" d="M84.6,11.5c0.4-0.2,0.8-0.5,0.9-1c0.2-0.4,0.2-0.9,0-1.3s-0.5-0.8-1-0.9c-0.4-0.2-0.9-0.2-1.3,0
			c-0.4,0.2-0.8,0.5-0.9,1c-0.2,0.4-0.2,0.9,0,1.3s0.5,0.8,1,0.9C83.7,11.7,84.2,11.7,84.6,11.5z"/>
		<path class="st4" d="M43.6,135.1c-3.7-1.5-5.5-5.7-4-9.4l3.8-9.3c0.2-0.4,0.5-0.8,0.9-1c0.4-0.2,0.9-0.2,1.3,0
			c0.9,0.4,1.3,1.4,1,2.3l-3.8,9.3c-0.8,1.9,0.1,4.1,2,4.8c0.9,0.4,1.9,0.4,2.8,0s1.6-1.1,2-2l9.4-23c0.1-0.1,0.1-0.3,0-0.4
			c-0.1-0.1-0.2-0.2-0.3-0.3c-8.5-2.5-15.4-8.6-18.8-16.7c-1.3-3.1-2.1-6.4-2.2-9.8c0-0.2-0.1-0.3-0.2-0.4c-0.1-0.1-0.3-0.1-0.5,0
			l-8.4,3.5c-4.4,1.8-9.4-0.2-11.3-4.6L5.7,50.2c-1.8-4.4,0.2-9.4,4.6-11.3L74.4,12c0.9-0.4,1.9,0,2.3,0.9c0.4,0.9,0,1.9-0.9,2.3
			L11.6,42.2c-2.6,1.1-3.8,4.1-2.7,6.7l11.7,27.8c1.1,2.6,4.1,3.8,6.7,2.7l10.1-4.3c0,0,0.1,0,0.1-0.1c0,0,0,0,0,0
			c0.2-0.1,0.3-0.2,0.3-0.4c0.8-7.1,4.2-13.5,9.4-18.3c0.1-0.1,0.2-0.2,0.2-0.4c0-0.1-0.1-0.3-0.2-0.4l-5.9-5.2
			c-0.1-0.1-0.4-0.2-0.5-0.1c0,0,0,0,0,0c-0.2,0.1-0.3,0.2-0.3,0.4l-0.7,8.8c-0.1,0.7-0.5,1.2-1.1,1.5c-0.6,0.3-1.3,0.1-1.8-0.3
			L27.1,52c-0.4-0.3-0.6-0.7-0.6-1.2c0-0.5,0.1-0.9,0.4-1.3c0.2-0.2,0.4-0.4,0.6-0.5c0.6-0.3,1.3-0.1,1.9,0.3l6.4,5.7
			c0.1,0.1,0.4,0.2,0.5,0.1c0,0,0,0,0,0c0.2-0.1,0.3-0.2,0.3-0.4l0.7-8.8c0.1-0.7,0.5-1.2,1.1-1.5c0.6-0.3,1.3-0.1,1.8,0.3l6.4,5.7
			c0.1,0.1,0.4,0.2,0.5,0.1c0,0,0,0,0,0c0.2-0.1,0.3-0.2,0.3-0.4l0.7-8.8c0.1-0.7,0.5-1.2,1.1-1.5c0.3-0.1,0.5-0.2,0.8-0.1
			c1,0.1,1.7,0.9,1.6,1.9l-0.9,11c0,0.2,0.1,0.4,0.2,0.5c0.1,0.1,0.3,0.1,0.5,0c0,0,0,0,0.1,0c1.2-0.7,2.5-1.4,3.8-1.9
			c2.5-1,5.1-1.7,7.8-2.1c0,0,0.1,0,0.1,0c0.1-0.1,0.3-0.2,0.3-0.3c0.1-0.2,0-0.4-0.2-0.5l-8.8-7.8c-0.4-0.3-0.6-0.7-0.6-1.2
			c0-0.5,0.1-0.9,0.4-1.3c0.2-0.2,0.4-0.4,0.6-0.5c0.6-0.3,1.3-0.1,1.9,0.3l6.4,5.7c0.1,0.1,0.4,0.2,0.5,0.1c0,0,0,0,0,0
			c0.2-0.1,0.3-0.2,0.3-0.4l0.7-8.8c0.1-0.7,0.5-1.2,1.1-1.5c0.6-0.3,1.3-0.1,1.8,0.3l6.4,5.7c0.1,0.1,0.4,0.2,0.5,0.1c0,0,0,0,0,0
			c0.2-0.1,0.3-0.2,0.3-0.4l0.7-8.8c0.1-0.7,0.5-1.2,1.1-1.5c0.3-0.1,0.5-0.2,0.8-0.1c0.5,0,0.9,0.3,1.2,0.6s0.5,0.8,0.4,1.3
			l-1.1,13.3c-0.1,0.7-0.5,1.2-1.1,1.5c-0.6,0.3-1.3,0.1-1.8-0.3l-6.4-5.7c-0.1-0.1-0.4-0.2-0.5-0.1c0,0,0,0,0,0
			c-0.2,0.1-0.3,0.2-0.3,0.4l-0.7,8.8c0,0.1,0,0.2-0.1,0.3c0,0.2,0,0.3,0.1,0.4c0.1,0.1,0.2,0.2,0.4,0.2c6,0.2,12,2.4,16.7,6.1
			c0.1,0.1,0.3,0.1,0.5,0.1l33.1-13.9c2.6-1.1,3.8-4.1,2.7-6.7L109.4,6.7c-1.1-2.6-4.1-3.8-6.7-2.7l-8.6,3.6c-0.9,0.4-1.9,0-2.3-0.9
			s0-1.9,0.9-2.3l8.6-3.6c4.4-1.8,9.4,0.2,11.3,4.6l11.7,27.8c1.8,4.4-0.2,9.4-4.6,11.3L88.6,57.5c-0.2,0.1-0.3,0.2-0.3,0.4
			c0,0.2,0,0.3,0.1,0.5c2.3,2.5,4.1,5.3,5.4,8.4c6.2,14.8-0.8,32-15.6,38.2c-4.7,2-9.9,2.7-14.9,2c-0.1,0-0.2,0-0.3,0
			c-0.1,0.1-0.2,0.2-0.3,0.3L53,131.1c-0.7,1.8-2.1,3.2-3.9,3.9C47.4,135.8,45.4,135.8,43.6,135.1z M43.2,88
			c5.5,13.1,20.6,19.2,33.6,13.7c13.1-5.5,19.2-20.6,13.7-33.6C85.1,55.1,70,48.9,57,54.4S37.7,75,43.2,88z"/>
		<path class="st4" d="M48.7,111.5c0.4-0.2,0.8-0.5,0.9-1c0.2-0.4,0.2-0.9,0-1.3c-0.2-0.4-0.5-0.8-1-0.9c-0.4-0.2-0.9-0.2-1.3,0
			c-0.4,0.2-0.8,0.5-0.9,1c-0.2,0.4-0.2,0.9,0,1.3c0.2,0.4,0.5,0.8,1,0.9C47.8,111.7,48.3,111.7,48.7,111.5z"/>
	</g>
	<g>
		<path class="st8" d="M85,291.7l11.4-17.3L85,271.6c-1.5-4.5-4-8.7-7.6-12.3c-3.5-3.5-7.7-6.1-12.3-7.6l-0.1,0.1l-13.9-0.5
			l-6.2,0.4c-4.6,1.5-8.8,4.1-12.3,7.6l-18.4,18.4c-12.3,12.3-12.3,32.4,0,44.7c12.7,12.7,32.7,12,44.7,0L77.4,304
			C81,300.4,83.5,296.2,85,291.7z M46.6,310c-5.6,5.6-14.5,5.4-19.9,0c-5.5-5.5-5.5-14.4,0-19.9L45,271.9l10,9.9l10,9.8L46.6,310z"
			/>
		<path class="st9" d="M85,291.7l11.4-17.3L85,271.6c-1.5-4.5-4-8.7-7.6-12.3L55,281.7l10,9.8L46.6,310c-5.6,5.6-14.5,5.4-19.9,0
			l-12.4,12.4c12.7,12.7,32.7,12,44.7,0L77.4,304C81,300.4,83.5,296.2,85,291.7z"/>
		<path class="st10" d="M107.3,314c1.4-1.4,1.4-3.6,0-5l-5-5c-1.4-1.4-3.6-1.4-5,0c-1.4,1.4-1.4,3.6,0,5l5,5
			C103.7,315.3,105.9,315.3,107.3,314z"/>
		<path class="st11" d="M32.7,239.4c1.4-1.4,1.4-3.6,0-5l-5-5c-1.4-1.4-3.6-1.4-5,0c-1.4,1.4-1.4,3.6,0,5l5,5
			C29.1,240.8,31.3,240.8,32.7,239.4z"/>
		<path class="st10" d="M111.6,287.8l6.8,1.8c1.9,0.5,3.8-0.6,4.3-2.5c0.5-1.9-0.6-3.8-2.5-4.3l-6.8-1.8c-1.9-0.5-3.8,0.6-4.3,2.5
			C108.6,285.4,109.8,287.3,111.6,287.8z"/>
		<path class="st11" d="M9.8,260.5l6.8,1.8c1.9,0.5,3.8-0.6,4.3-2.5c0.5-1.9-0.6-3.8-2.5-4.3l-6.8-1.8c-1.9-0.5-3.8,0.6-4.3,2.5
			C6.8,258.1,7.9,260,9.8,260.5z"/>
		<path class="st10" d="M80.5,329.4c1.9-0.5,3-2.4,2.5-4.3l-1.8-6.8c-0.5-1.9-2.4-3-4.3-2.5s-3,2.4-2.5,4.3l1.8,6.8
			C76.7,328.8,78.6,329.9,80.5,329.4z"/>
		<path class="st11" d="M53.2,227.6c1.9-0.5,3-2.4,2.5-4.3l-1.8-6.8c-0.5-1.9-2.4-3-4.3-2.5c-1.9,0.5-3,2.4-2.5,4.3l1.8,6.8
			C49.4,226.9,51.3,228.1,53.2,227.6z"/>
		<path class="st12" d="M115.8,265.7l-18.4,18.4c-3.5,3.5-7.8,6.1-12.3,7.6c2.2-6.6,2.2-13.6,0-20.2l18.3-18.2
			c5.5-5.5,5.5-14.4,0-19.9c-2.6-2.6-6.1-4-8.8-4c-0.2-0.1-1-0.1-1.1,0c-3.8,0-7.3,1.4-9.9,4.1L65,251.8c-5.5,5.5-5.5,14.4,0,19.9
			s5.5,14.4,0,19.9l-0.1,0.1c-4.6-1.5-8.8-4.1-12.3-7.6c-3.6-3.6-6.1-7.8-7.6-12.3c-2.2-6.6-2.2-13.6,0-20.2c1.5-4.5,4-8.7,7.6-12.3
			L71,221c12.4-12.4,32.4-12.3,44.7,0C128.1,233.3,128.1,253.4,115.8,265.7z"/>
		<g>
			<path class="st13" d="M65,271.7l-12.4,12.4c3.5,3.5,7.7,6.1,12.3,7.6l0.1-0.1C70.5,286.1,70.5,277.2,65,271.7z"/>
			<path class="st13" d="M115.8,221l-12.4,12.4c5.5,5.5,5.5,14.4,0,19.9L85,271.6c2.2,6.6,2.2,13.6,0,20.2c4.5-1.5,8.8-4.1,12.3-7.6
				l18.4-18.4C128.1,253.4,128.1,233.3,115.8,221z"/>
		</g>
	</g>
</g>
</svg>
