<?xml version="1.0" encoding="utf-8"?>
<!-- Generator: Adobe Illustrator 25.0.0, SVG Export Plug-In . SVG Version: 6.00 Build 0)  -->
<svg version="1.1" id="Layer_1" xmlns="http://www.w3.org/2000/svg" xmlns:xlink="http://www.w3.org/1999/xlink" x="0px" y="0px"
	 viewBox="0 0 204.3 150" style="enable-background:new 0 0 204.3 150;" xml:space="preserve">
<style type="text/css">
	.st0{fill:#FFF2E8;}
	.st1{fill:#87796F;}
	.st2{fill:#F16C7A;}
	.st3{fill:#3A312A;}
	.st4{fill:#D7E057;}
	.st5{fill:#8AC6DD;}
	.st6{fill:#EF6D7A;}
	.st7{fill:#D6DF58;}
	.st8{fill:#8AC5DC;}
	.st9{fill:#35414D;}
	.st10{fill:#FFA733;}
	.st11{fill:#FF5A5A;}
	.st12{fill:#FDF6EC;stroke:#35414D;stroke-width:2.0076;stroke-miterlimit:10;}
	.st13{fill:none;}
	.st14{fill:#FFFFFF;}
	.st15{fill:#07BEEF;}
	.st16{fill:#FC635B;}
	.st17{fill:#7EC927;}
	.st18{fill:#00B6E0;}
	.st19{fill:#F34234;}
	.st20{fill:#60A917;}
	.st21{fill:#FF9801;}
	.st22{fill:#5D6D7E;}
	.st23{fill:#FF8E31;}
	.st24{fill:#FECE59;}
	.st25{fill:#34495E;}
	.st26{opacity:0.3;fill:#34495E;}
	.st27{opacity:0.2;fill:#FFFFFF;}
	.st28{fill:#EFD299;}
	.st29{fill:#DEC089;}
	.st30{fill:#ECECEC;}
	.st31{fill:#FFDC7C;}
	.st32{fill:#EAC05C;}
</style>
<g>
	<g>
		<path class="st0" d="M130.5,106.3c0-16.7,13.6-30.3,30.3-30.3c8.4,0,16,3.4,21.4,8.9V16.5c0-2.1-0.5-4-1.4-5.7H35.9
			c-0.9,1.7-1.4,3.7-1.4,5.7V116c0,7,5.6,12.6,12.6,12.6h93.1C134.3,123.1,130.5,115.2,130.5,106.3z"/>
		<path class="st1" d="M113.9,3.9H44.5c-5.7,0-10.2,4.5-10.2,10.1v9.4h148.4V14c0-5.6-4.6-10.1-10.2-10.1h-50.1H113.9z"/>
		<g>
			<circle class="st2" cx="50.6" cy="13.6" r="4.3"/>
			<path class="st3" d="M50.6,18.9c-2.9,0-5.3-2.4-5.3-5.3s2.4-5.3,5.3-5.3s5.3,2.4,5.3,5.3S53.5,18.9,50.6,18.9z M50.6,10.2
				c-1.9,0-3.4,1.5-3.4,3.4s1.5,3.4,3.4,3.4c1.9,0,3.4-1.5,3.4-3.4C53.9,11.8,52.4,10.2,50.6,10.2z"/>
			<circle class="st4" cx="68.7" cy="13.6" r="4.3"/>
			<path class="st3" d="M68.7,18.9c-2.9,0-5.3-2.4-5.3-5.3s2.4-5.3,5.3-5.3c2.9,0,5.3,2.4,5.3,5.3S71.6,18.9,68.7,18.9z M68.7,10.2
				c-1.9,0-3.4,1.5-3.4,3.4s1.5,3.4,3.4,3.4s3.4-1.5,3.4-3.4C72.1,11.8,70.6,10.2,68.7,10.2z"/>
			<circle class="st5" cx="86.9" cy="13.6" r="4.3"/>
			<path class="st3" d="M86.9,18.9c-2.9,0-5.3-2.4-5.3-5.3s2.4-5.3,5.3-5.3s5.3,2.4,5.3,5.3S89.8,18.9,86.9,18.9z M86.9,10.2
				c-1.9,0-3.4,1.5-3.4,3.4S85,17,86.9,17s3.4-1.5,3.4-3.4C90.3,11.8,88.7,10.2,86.9,10.2z"/>
		</g>
		<g>
			<path class="st6" d="M52.1,100.7h12.2v17.4H52.1L52.1,100.7z"/>
			<path class="st3" d="M64.3,119.1H52.1c-0.5,0-1-0.4-1-1v-17.4c0-0.5,0.4-1,1-1h12.2c0.5,0,1,0.4,1,1v17.4
				C65.3,118.7,64.9,119.1,64.3,119.1z M53.1,117.2h10.3v-15.5H53.1L53.1,117.2z"/>
			<path class="st7" d="M69.1,83h12.2v35.1H69.1V83z"/>
			<path class="st3" d="M81.3,119.1H69.1c-0.5,0-1-0.4-1-1V83c0-0.5,0.4-1,1-1h12.2c0.5,0,1,0.4,1,1v35.1
				C82.2,118.7,81.8,119.1,81.3,119.1z M70,117.2h10.3V84H70V117.2z"/>
			<path class="st8" d="M86,92h12.2v26.2H86V92z"/>
			<path class="st3" d="M98.2,119.1H86c-0.5,0-1-0.4-1-1V92c0-0.5,0.4-1,1-1h12.2c0.5,0,1,0.4,1,1v26.2
				C99.2,118.7,98.7,119.1,98.2,119.1z M87,117.2h10.3V92.9H87V117.2z"/>
			<path class="st1" d="M102.9,76.1h12.2v42h-12.2V76.1z"/>
			<path class="st3" d="M115.1,119.1h-12.2c-0.5,0-1-0.4-1-1v-42c0-0.5,0.4-1,1-1h12.2c0.5,0,1,0.4,1,1v42
				C116.1,118.7,115.7,119.1,115.1,119.1L115.1,119.1z M103.9,117.2h10.3V77.1h-10.3V117.2z"/>
		</g>
		<g>
			<path class="st9" d="M147.1,54.9h21.1c1.1,0,2-0.9,2-2c0-1.1-0.9-2-2-2h-21.1c-1.1,0-2,0.9-2,2C145.1,54.1,146,54.9,147.1,54.9z"
				/>
			<path class="st9" d="M147.1,35.6h21.1c1.1,0,2-0.9,2-2c0-1.1-0.9-2-2-2h-21.1c-1.1,0-2,0.9-2,2C145.1,34.7,146,35.6,147.1,35.6z"
				/>
			<path class="st9" d="M147.1,45.3h21.1c1.1,0,2-0.9,2-2c0-1.1-0.9-2-2-2h-21.1c-1.1,0-2,0.9-2,2C145.1,44.4,146,45.3,147.1,45.3z"
				/>
			<path class="st10" d="M135.3,35.6h3.1c1.1,0,2-0.9,2-2c0-1.1-0.9-2-2-2h-3.1c-1.1,0-2,0.9-2,2C133.3,34.7,134.2,35.6,135.3,35.6z
				"/>
			<path class="st11" d="M135.3,45.3h3.1c1.1,0,2-0.9,2-2c0-1.1-0.9-2-2-2h-3.1c-1.1,0-2,0.9-2,2C133.3,44.4,134.2,45.3,135.3,45.3z
				"/>
			<path class="st9" d="M135.3,54.9h3.1c1.1,0,2-0.9,2-2c0-1.1-0.9-2-2-2h-3.1c-1.1,0-2,0.9-2,2C133.3,54.1,134.2,54.9,135.3,54.9z"
				/>
		</g>
		<path class="st12" d="M166.6,17.3h-56.4c-2,0-3.6-1.6-3.6-3.6v0c0-2,1.6-3.6,3.6-3.6h56.4c2,0,3.6,1.6,3.6,3.6v0
			C170.2,15.6,168.6,17.3,166.6,17.3z"/>
		<g>
			<path class="st9" d="M68.6,61.3c-3,0-4.7-0.3-5-0.8l-4.5-7.2L59,53.2c-0.2-0.5-0.7-0.7-1.2-0.7c-0.1,0-0.2,0-0.3,0
				c-0.6,0.1-1,0.6-1.1,1.2c0,0.4-0.3,5.2-0.3,5.6c0,0.7-0.2,1.3-0.4,1.5c0,0,0,0,0,0h-4.8c-0.4,0-1.3-0.2-1.3-0.8
				c-0.1-10.4-0.1-23.8-0.2-28.8c0,0,0,0,0,0c2.6-0.4,3.3-0.5,3.5-0.5c0.1,0,0.2,0,0.4,0c0.4,0,1,0,1.3,0c0.1,0,0.5,0,0.9,0
				c0.3,0,0.6,0,0.8,0c0.2,0,0.3,0.1,0.3,0.6c0,1.1-0.1,2.3-0.1,3.4c-0.1,1.2-0.1,2.4-0.1,3.6l0,0.6c0,0.6,0.3,1.1,0.8,1.3
				c0.2,0.1,0.4,0.1,0.5,0.1c0.5,0,1-0.3,1.2-0.8l3.4-7c1-2.1,2.1-2.3,2.9-2.3h0.5c0,0,0,0,0,0c0.5,0.1,1.9,0.4,2.3,0.4
				c0.1,0,0.1,0,0.2,0c0.2,0,0.8,0.2,1.1,0.3c0.4,0.1,0.8,0.2,1,0.2c0.2,0.1,0.3,0.1,0.4,0.2c0,0.2,0,0.2,0,0.3l-7.8,13.8
				c-0.1,0.2-0.2,0.4-0.2,0.7v0.2c0,0.3,0.1,0.6,0.3,0.9c0.8,0.9,4.1,5.2,4.7,6c0.2,0.3,1.3,2,1.6,2.5c0,0,0,0,0,0
				c0.2,0.5,1.3,2.7,1.6,3.3c0,0,0,0.1,0,0.1c0.1,0.2,0.3,0.7,0.3,1c0,0.5-0.3,0.9-0.8,1.1c0,0,0,0,0,0H68.6z"/>
			<path class="st9" d="M84.9,60.5c-2.5,0-3.2-0.4-3.7-2.4c-0.1-0.7-0.5-2.6-0.6-3.1c0,0,0,0,0,0l-2.9-23.4v-0.3
				c0.2-0.1,0.7-0.3,2.1-0.3c0.3,0,0.7,0,0.9,0c0.2,0,0.4,0,0.6,0c4.1,0,4.2,1.8,4.2,2.6L86.1,48c0,0.6,0.5,1.2,1.1,1.3
				c0.1,0,0.1,0,0.2,0c0.6,0,1.1-0.4,1.3-0.9c0.2-0.6,1.3-3.1,1.9-4.3l0.3-0.7c1.2-2.7,1.9-3.3,4.7-3.3h1.2c0,0,0,0,0,0
				c0.7,0.2,1.4,0.6,1.9,2.1c0.1,0.3,0.4,1.2,0.7,2.1c0.4,1.4,0.9,3,1.1,3.6c0.1,0.2,0.2,0.5,0.4,0.9c0.2,0.5,0.7,0.8,1.3,0.8
				c0,0,0,0,0,0c0.5,0,1-0.4,1.2-0.9l0.1-0.4c0-0.1,0-0.1,0.1-0.2c2.9-12.9,4.1-17.4,6.2-17.4c0.8,0,4.5,0.1,4.5,2.4
				c0,0.7,0,1-0.2,1.8l-5.8,21l-0.1,0.6l0,0.1c-0.6,2.1-1.1,3.8-2.3,3.8c-1.4,0-2.8,0-4-0.1c-1.3-0.1-1.6-0.3-1.6-0.4c0,0,0,0,0,0
				l-4.6-6.7c-0.1-0.1-0.1-0.2-0.2-0.3l-0.3-0.3c-0.2-0.2-0.6-0.3-0.9-0.3c-0.1,0-0.2,0-0.4,0c-0.4,0.1-0.7,0.4-0.9,0.8
				c-0.1,0.2-0.4,0.7-0.5,0.9c0,0,0,0.1-0.1,0.1c-0.4,0.8-2.1,3.9-2.5,4.5C88.8,60.2,87.2,60.5,84.9,60.5z"/>
		</g>
		<path class="st13" d="M169.6,3.9H47.2c-4.9,0-9.1,2.8-11.2,6.9h144.9C178.8,6.7,174.5,3.9,169.6,3.9z"/>
		<path class="st0" d="M34.6,126.6v2h2C35.8,128,35.2,127.4,34.6,126.6z"/>
		<path class="st0" d="M182.2,128.6v-0.9c-0.3,0.3-0.6,0.6-0.9,0.9H182.2z"/>
		<path class="st9" d="M36.6,128.6c2.9,2.4,6.6,3.9,10.6,3.9h98.4c-1.9-1.1-3.7-2.4-5.3-3.9H36.6z"/>
		<path class="st9" d="M34.6,16.5v-5.7h1.4c2.1-4.1,6.3-6.9,11.2-6.9h122.5c4.9,0,9.1,2.8,11.2,6.9h1.4v74.1c1.4,1.4,2.7,3,3.9,4.8
			V16.5c0-9.1-7.4-16.5-16.5-16.5H47.2c-9.1,0-16.5,7.4-16.5,16.5V116c0,4,1.5,7.7,3.9,10.6V116V16.5z"/>
		<path class="st9" d="M34.6,10.8v5.7c0-2.1,0.5-4,1.4-5.7H34.6z"/>
		<path class="st9" d="M182.2,84.9C182.2,84.9,182.2,84.9,182.2,84.9l0-74.1h-1.4c0.9,1.7,1.4,3.7,1.4,5.7V84.9z"/>
		<path class="st9" d="M140.3,128.6H47.2c-7,0-12.6-5.6-12.6-12.6v10.6c0.6,0.7,1.3,1.4,2,2H140.3L140.3,128.6z"/>
		<path class="st14" d="M180.2,128.6h1.1c0.3-0.3,0.6-0.6,0.9-0.9v-1.1C181.6,127.4,181,128,180.2,128.6z"/>
		<g>
			<path class="st15" d="M134.5,119.8c0,2.3-1.9,4.2-4.2,4.2s-4.2-1.9-4.2-4.2c0-2.3,1.9-4.2,4.2-4.2S134.5,117.5,134.5,119.8
				L134.5,119.8z"/>
			<path class="st16" d="M157.3,100.2c0,2.3-1.9,4.2-4.2,4.2c-2.3,0-4.2-1.9-4.2-4.2c0-2.3,1.9-4.2,4.2-4.2
				C155.4,96,157.3,97.9,157.3,100.2z"/>
			<path class="st17" d="M180.1,114.1c0,2.3-1.9,4.2-4.2,4.2c-2.3,0-4.2-1.9-4.2-4.2c0-2.3,1.9-4.2,4.2-4.2S180.1,111.7,180.1,114.1
				L180.1,114.1z"/>
			<path class="st10" d="M202.9,92.1c0,2.3-1.9,4.2-4.2,4.2c-2.3,0-4.2-1.9-4.2-4.2c0-2.3,1.9-4.2,4.2-4.2
				C201,87.9,202.9,89.8,202.9,92.1z"/>
			<path class="st18" d="M134.5,119.7v0.2c0,2.4-1.9,4.3-4.2,4.3c-2.3,0-4.2-1.9-4.2-4.3c0-1.3,0.6-2.4,1.4-3.2
				c0.1,2.3,2,4.1,4.2,4.1C132.8,120.7,133.8,120.3,134.5,119.7z"/>
			<path class="st19" d="M157.3,100v0.2c0,2.4-1.9,4.3-4.2,4.3c-2.3,0-4.2-1.9-4.2-4.3c0-1.3,0.6-2.4,1.4-3.2
				c0.1,2.3,1.9,4.1,4.2,4.1C155.6,101.1,156.6,100.7,157.3,100L157.3,100z"/>
			<path class="st20" d="M180.1,113.9v0.2c0,2.3-1.9,4.2-4.2,4.2c-2.3,0-4.3-1.9-4.3-4.2c0-1.3,0.6-2.4,1.4-3.2c0.1,2.2,2,4,4.2,4
				C178.4,115,179.4,114.6,180.1,113.9L180.1,113.9z"/>
			<path class="st21" d="M202.9,91.9v0.2c0,2.3-1.9,4.2-4.2,4.2c-2.3,0-4.2-1.9-4.2-4.2c0-1.3,0.6-2.4,1.4-3.2c0.1,2.3,2,4,4.2,4
				C201.2,93,202.2,92.6,202.9,91.9z"/>
			<path class="st9" d="M130.3,125.5c3.1,0,5.6-2.5,5.6-5.6c0-0.9-0.3-1.8-0.6-2.6l14.3-12.8c1,0.8,2.2,1.3,3.6,1.3
				c1.6,0,3.1-0.7,4.1-1.9l13.2,8.9c-0.1,0.4-0.1,0.8-0.1,1.2c0,3.1,2.5,5.6,5.6,5.6c3.1,0,5.6-2.5,5.6-5.6c0-0.9-0.2-1.6-0.5-2.4
				l14.7-14.9c0.9,0.5,1.9,0.9,3,0.9c3.1,0,5.6-2.5,5.6-5.6c0-3.1-2.5-5.6-5.6-5.6c-3.1,0-5.6,2.5-5.6,5.6c0,1,0.3,1.9,0.8,2.7
				l-14.6,14.7c-0.9-0.7-2.1-1.1-3.3-1.1c-1.7,0-3.2,0.8-4.2,1.9l-13.2-8.9c0.1-0.4,0.2-0.9,0.2-1.3c0-3.1-2.5-5.6-5.6-5.6
				c-3.1,0-5.6,2.5-5.6,5.6c0,0.7,0.2,1.4,0.4,2.1l-14.4,12.9c-0.9-0.6-2-1-3.1-1c-3.1,0-5.6,2.5-5.6,5.6
				C124.7,122.9,127.2,125.5,130.3,125.5z M198.7,89.3c1.6,0,2.8,1.3,2.8,2.8s-1.3,2.8-2.8,2.8s-2.8-1.3-2.8-2.8
				S197.1,89.3,198.7,89.3z M175.9,111.3c1.6,0,2.8,1.3,2.8,2.8c0,1.6-1.3,2.8-2.8,2.8s-2.8-1.3-2.8-2.8
				C173.1,112.5,174.3,111.3,175.9,111.3L175.9,111.3z M153.1,97.4c1.6,0,2.8,1.3,2.8,2.8s-1.3,2.8-2.8,2.8s-2.8-1.3-2.8-2.8
				C150.3,98.7,151.5,97.4,153.1,97.4L153.1,97.4z M130.3,117c1.6,0,2.8,1.3,2.8,2.8c0,1.6-1.3,2.8-2.8,2.8s-2.8-1.3-2.8-2.8
				C127.5,118.3,128.7,117,130.3,117L130.3,117z"/>
		</g>
		<g>
			<polygon class="st22" points="174.4,127.4 177.2,130.2 180.5,133.4 192.2,145.1 195.8,135.6 181,121 			"/>
			<g>
				<path class="st23" d="M188.7,127.1l13.4,13.4c1,1,1.6,2.4,1.6,3.9c0,1.5-0.6,2.9-1.6,3.9c-1,1-2.4,1.6-3.9,1.6
					c-1.5,0-2.9-0.6-3.9-1.6L180.8,135L188.7,127.1z"/>
				<path class="st24" d="M186.8,128.9L186.8,128.9l1.1-1.1l13.4,13.4c0.8,0.8,1.3,2,1.3,3.2c0,1.2-0.5,2.3-1.3,3.2
					c-0.2,0.1-0.4,0.2-0.5,0.2c-0.2,0-0.4-0.1-0.5-0.2c-0.3-0.3-0.3-0.8,0-1.1c0.6-0.6,0.9-1.3,0.9-2.1c0-0.8-0.3-1.5-0.9-2.1
					L186.8,128.9z"/>
				<path class="st25" d="M180.8,135l7.9-7.9l-0.6-0.6c-0.4-0.4-0.8-0.6-1.4-0.6c-0.5,0-1,0.2-1.4,0.6l-5.1,5.1
					c-0.4,0.3-0.6,0.8-0.6,1.4c0,0.5,0.2,1,0.6,1.4L180.8,135z"/>
			</g>
			<path class="st26" d="M160.8,86.5c-11.4,0-20.6,9.2-20.6,20.6c0,11.4,9.2,20.7,20.6,20.7c11.4,0,20.6-9.2,20.6-20.7
				C181.5,95.7,172.2,86.5,160.8,86.5z"/>
			<path class="st25" d="M160.8,82c-13.9,0-25.2,11.3-25.2,25.2c0,13.9,11.3,25.2,25.2,25.2c13.9,0,25.2-11.3,25.2-25.2
				C186,93.3,174.7,82,160.8,82z M160.8,129.6c-12.4,0-22.4-10-22.4-22.4c0-12.4,10.1-22.4,22.4-22.4c12.4,0,22.4,10.1,22.4,22.4
				C183.3,119.5,173.2,129.6,160.8,129.6z"/>
			<path class="st22" d="M160.8,84.7c-12.4,0-22.4,10.1-22.4,22.4c0,12.4,10.1,22.4,22.4,22.4c12.4,0,22.4-10,22.4-22.4
				C183.3,94.8,173.2,84.7,160.8,84.7z M160.8,127.8c-11.4,0-20.6-9.2-20.6-20.7c0-11.4,9.2-20.6,20.6-20.6
				c11.4,0,20.6,9.2,20.6,20.6C181.5,118.6,172.2,127.8,160.8,127.8z"/>
			<g>
				<path class="st27" d="M161.3,89.9c-0.4-0.5-1-0.8-1.6-0.8c-2.9,0.2-5.5,1-8,2.4c-0.9,0.5-1.2,1.6-0.7,2.5
					c0.5,0.9,1.6,1.2,2.5,0.7c2-1.1,4.1-1.8,6.4-1.9c1-0.1,1.8-0.9,1.7-1.9C161.6,90.5,161.5,90.1,161.3,89.9z"/>
				<path class="st27" d="M149.7,95.9c-0.1-0.1-0.2-0.3-0.4-0.4c-0.8-0.6-1.9-0.5-2.6,0.3c-1.9,2.3-3.1,5-3.7,7.9
					c-0.7,3.5-0.3,7,1,10.3c0.4,0.9,1.5,1.4,2.4,1c0.9-0.4,1.4-1.4,1-2.4c-1.1-2.6-1.3-5.4-0.8-8.2c0.4-2.3,1.5-4.5,2.9-6.3
					C150.1,97.4,150.1,96.5,149.7,95.9z"/>
			</g>
		</g>
	</g>
	<g>
		<path class="st9" d="M45.1,94.1c0-1.8-0.9-3.6-2.4-4.7c0.4-0.7,0.5-1.4,0.5-2.2c0-2.6-2.2-4.8-4.9-4.8h0v0c0-2-1.6-3.7-3.7-3.7
			c-0.5,0-0.9,0.1-1.3,0.2c-0.1-0.6-0.4-1.1-0.8-1.5c-0.6-0.5-1.3-0.9-2.1-0.9c-1.7,0-3,1.4-3,3v17.8H25V79.6c0-1.7-1.4-3-3-3
			c-0.8,0-1.5,0.3-2.1,0.9c-0.4,0.4-0.7,0.9-0.8,1.5c-0.4-0.2-0.8-0.2-1.3-0.2c-2,0-3.7,1.6-3.7,3.7v0h0c-2.7,0-4.9,2.1-4.9,4.8
			c0,0.8,0.2,1.5,0.5,2.2c-1.4,1.1-2.4,2.8-2.4,4.7c0,1.5,0.5,2.8,1.4,3.8c-0.1,0.2-0.2,0.4-0.2,0.7c0.5,3.6,1.9,7.1,3.9,9.4
			c3.3,4.1,5,6.9,5.1,11.2c-0.3,0.2-0.5,0.5-0.5,0.8v6.3c0,1.2,0.9,2.2,2.1,2.4c0.5,2.1,2.8,3.7,5.5,3.7h3.3c2.7,0,4.9-1.6,5.5-3.6
			c1.2-0.2,2.1-1.2,2.1-2.4V124c0,0,0,0,0,0v-3.9c0-0.4-0.2-0.7-0.5-0.8c0.1-4.3,1.7-7.1,5.1-11.2c1.9-2.4,3.3-5.8,3.9-9.4
			c0-0.2,0-0.5-0.2-0.7C44.6,96.9,45.1,95.5,45.1,94.1L45.1,94.1z M9.3,94.1c0-1.3,0.6-2.5,1.7-3.2c0.4,0.3,0.9,0.6,1.7,0.9
			c0.1,0.1,0.3,0.1,0.4,0.1c0.4,0,0.7-0.2,0.9-0.6c0.2-0.5,0-1.1-0.5-1.3c-1.1-0.5-1.6-1-1.6-1c-0.5-0.5-0.7-1.1-0.7-1.8
			c0-1.5,1.3-2.8,3-2.8c0.4,0,0.7,0.1,1,0.2c0.4,0.1,0.8,0,1-0.3c0.3-0.3,0.3-0.7,0.2-1.1C16.1,83,16,82.7,16,82.4
			c0-0.9,0.8-1.7,1.7-1.7c0.6,0,1.1,0.3,1.4,0.7c0.2,0.4,0.7,0.5,1.1,0.4c0.4-0.1,0.7-0.5,0.7-0.9v-1.3c0-0.3,0.1-0.6,0.3-0.8
			c0.2-0.2,0.5-0.3,0.8-0.3c0.6,0,1.1,0.5,1.1,1.1v2.9c-0.7,0.2-1.8,0.8-2.4,1.8c-0.3,0.5-0.1,1.1,0.4,1.3c0.2,0.1,0.3,0.1,0.5,0.1
			c0.3,0,0.7-0.2,0.8-0.5c0.2-0.3,0.4-0.5,0.7-0.7V90c-1.1,0.2-2.7,0.8-3.8,2.8c-0.3,0.5-0.1,1.1,0.4,1.3c0.2,0.1,0.3,0.1,0.5,0.1
			c0.3,0,0.7-0.2,0.9-0.5c0.6-1.1,1.5-1.6,2.1-1.8v5.5h-9.6c0.2-0.1,0.4-0.3,0.5-0.4c0.4-0.3,0.5-0.9,0.2-1.4
			c-0.3-0.4-0.9-0.5-1.4-0.2c-0.9,0.7-1.5,1.3-1.9,1.7C9.8,96.4,9.3,95.3,9.3,94.1L9.3,94.1z M27.8,130.5h-3.3
			c-1.5,0-2.8-0.7-3.4-1.7h10C30.6,129.8,29.3,130.5,27.8,130.5z M33.4,126.4c0,0.3-0.2,0.5-0.5,0.5H19.5c-0.3,0-0.5-0.2-0.5-0.5
			V125h14.5L33.4,126.4L33.4,126.4z M33.4,123H19v-2h14.5L33.4,123L33.4,123z M38.5,106.8c-3,3.7-5.4,7-5.5,12.3H19.4
			c-0.2-5.3-2.5-8.6-5.5-12.3c-1.5-1.8-2.7-4.5-3.3-7.4h31C41.1,102.2,40,104.9,38.5,106.8L38.5,106.8z M41.6,97.2
			c-0.4-0.4-1-1-1.9-1.7c-0.4-0.3-1-0.2-1.4,0.2c-0.3,0.4-0.2,1,0.2,1.4c0.2,0.2,0.4,0.3,0.6,0.4h-9.6V92c0.6,0.2,1.5,0.6,2.1,1.8
			c0.2,0.3,0.5,0.5,0.8,0.5c0.2,0,0.3,0,0.5-0.1c0.5-0.3,0.6-0.9,0.4-1.3c-1.1-2-2.7-2.6-3.8-2.8v-5.4c0.3,0.2,0.5,0.4,0.7,0.7
			c0.2,0.3,0.5,0.5,0.8,0.5c0.2,0,0.3,0,0.5-0.1c0.5-0.3,0.6-0.9,0.4-1.3c-0.6-1.1-1.7-1.6-2.4-1.8v-2.8c0-0.6,0.5-1.1,1.1-1.1
			c0.4,0,0.6,0.2,0.8,0.3c0.2,0.2,0.3,0.5,0.3,0.8v1.2c0,0.4,0.3,0.8,0.7,0.9c0.4,0.1,0.8,0,1.1-0.4c0.3-0.5,0.8-0.7,1.4-0.7
			c0.9,0,1.7,0.8,1.7,1.7c0,0.3-0.1,0.5-0.2,0.8c-0.2,0.4-0.1,0.8,0.2,1.1c0.3,0.3,0.7,0.4,1.1,0.3c0.3-0.1,0.6-0.2,0.9-0.2
			c1.6,0,3,1.3,3,2.8c0,0.7-0.3,1.3-0.7,1.8c-0.1,0-0.5,0.5-1.6,1c-0.5,0.2-0.7,0.8-0.5,1.3c0.2,0.4,0.5,0.6,0.9,0.6
			c0.1,0,0.3,0,0.4-0.1c0.7-0.3,1.3-0.7,1.6-0.9c1,0.7,1.7,1.9,1.7,3.2C43.2,95.3,42.6,96.4,41.6,97.2L41.6,97.2z"/>
		<path class="st28" d="M23,82.5v-2.9c0-0.6-0.5-1.1-1.1-1.1c-0.3,0-0.6,0.1-0.8,0.3c-0.2,0.2-0.3,0.5-0.3,0.8v1.2
			c0,0.4-0.3,0.8-0.7,0.9c-0.4,0.1-0.8,0-1.1-0.4c-0.3-0.5-0.8-0.7-1.4-0.7c-0.9,0-1.7,0.8-1.7,1.7c0,0.3,0.1,0.5,0.2,0.8
			c0.2,0.4,0.1,0.8-0.2,1.1c-0.3,0.3-0.7,0.4-1,0.3c-0.3-0.1-0.6-0.2-1-0.2c-1.6,0-3,1.3-3,2.8c0,0.7,0.3,1.3,0.7,1.8
			c0,0,0.5,0.5,1.6,1c0.5,0.2,0.7,0.8,0.5,1.3c-0.2,0.4-0.5,0.6-0.9,0.6c-0.1,0-0.3,0-0.4-0.1c-0.8-0.3-1.3-0.7-1.7-0.9
			c-1,0.7-1.7,1.9-1.7,3.2c0,1.3,0.6,2.4,1.6,3.1c0.4-0.4,1-1,1.9-1.7c0.4-0.3,1-0.2,1.4,0.2c0.3,0.4,0.2,1-0.2,1.4
			c-0.2,0.2-0.4,0.3-0.5,0.4H23V92c-0.6,0.2-1.5,0.6-2.1,1.8c-0.2,0.3-0.5,0.5-0.9,0.5c-0.2,0-0.3,0-0.5-0.1
			c-0.5-0.3-0.6-0.9-0.4-1.3c1.1-2,2.7-2.6,3.8-2.8v-5.4c-0.3,0.2-0.5,0.4-0.7,0.7s-0.5,0.5-0.8,0.5c-0.2,0-0.3,0-0.5-0.1
			c-0.5-0.3-0.6-0.9-0.4-1.3C21.3,83.2,22.3,82.7,23,82.5L23,82.5z M20.6,87.7c0,0.5-0.5,1-1,1c0,0,0,0,0,0c-0.1,0-2.4,0-2.9,1.5
			c-0.1,0.4-0.5,0.7-0.9,0.7c-0.1,0-0.2,0-0.3-0.1c-0.5-0.2-0.8-0.7-0.7-1.2c0.9-2.9,4.6-2.9,4.7-2.9C20.1,86.7,20.6,87.1,20.6,87.7
			L20.6,87.7z"/>
		<path class="st28" d="M41.5,90.9c-0.4,0.3-0.9,0.6-1.6,0.9c-0.1,0.1-0.3,0.1-0.4,0.1c-0.4,0-0.7-0.2-0.9-0.6
			c-0.2-0.5,0-1.1,0.5-1.3c1.1-0.5,1.6-0.9,1.6-1c0.5-0.5,0.7-1.1,0.7-1.8c0-1.5-1.3-2.8-3-2.8c-0.4,0-0.7,0.1-0.9,0.2
			c-0.4,0.1-0.8,0-1.1-0.3c-0.3-0.3-0.3-0.7-0.2-1.1c0.1-0.2,0.2-0.5,0.2-0.8c0-0.9-0.8-1.7-1.7-1.7c-0.6,0-1.1,0.3-1.4,0.7
			c-0.2,0.4-0.7,0.5-1.1,0.4c-0.4-0.1-0.7-0.5-0.7-0.9v-1.3c0-0.3-0.1-0.6-0.3-0.8c-0.1-0.1-0.4-0.3-0.8-0.3c-0.6,0-1.1,0.5-1.1,1.1
			v2.9c0.7,0.2,1.8,0.8,2.4,1.8c0.3,0.5,0.1,1.1-0.4,1.3c-0.2,0.1-0.3,0.1-0.5,0.1c-0.3,0-0.7-0.2-0.8-0.5c-0.2-0.3-0.4-0.5-0.7-0.7
			V90c1.1,0.2,2.7,0.8,3.8,2.8c0.3,0.5,0.1,1.1-0.4,1.3c-0.2,0.1-0.3,0.1-0.5,0.1c-0.3,0-0.7-0.2-0.8-0.5c-0.6-1.1-1.5-1.6-2.1-1.8
			v5.5H39c-0.2-0.1-0.4-0.3-0.6-0.4c-0.4-0.3-0.5-0.9-0.2-1.4c0.3-0.4,0.9-0.5,1.4-0.2c0.9,0.7,1.5,1.3,1.9,1.7
			c1-0.7,1.6-1.8,1.6-3.1C43.2,92.8,42.5,91.6,41.5,90.9L41.5,90.9z M36.9,90.8c-0.1,0-0.2,0.1-0.3,0.1c-0.4,0-0.8-0.3-0.9-0.7
			c-0.2-0.7-0.9-1.1-1.6-1.3c-0.6-0.2-1.2-0.2-1.3-0.2c-0.5,0-1-0.4-1-1c0-0.5,0.4-1,1-1c0.1,0,3.9,0,4.7,2.9
			C37.7,90.1,37.4,90.6,36.9,90.8z"/>
		<path class="st29" d="M15.5,97c-0.2,0.2-0.4,0.3-0.5,0.4h-1.5c0.2-0.1,0.4-0.3,0.5-0.4c0.4-0.3,0.5-0.9,0.2-1.4c0,0,0,0,0,0
			c0.1-0.1,0.1-0.1,0.2-0.2c0.4-0.3,1-0.2,1.4,0.2C16,96.1,15.9,96.7,15.5,97L15.5,97z"/>
		<path class="st29" d="M22.7,78.9c-0.2,0.2-0.3,0.5-0.3,0.7v1.2c0,0.4-0.3,0.8-0.7,0.9c-0.4,0.1-0.8,0-1.1-0.3
			c0.1-0.2,0.2-0.4,0.2-0.6v-1.2c0-0.3,0.1-0.6,0.3-0.8c0.2-0.2,0.5-0.3,0.8-0.3C22.3,78.6,22.5,78.7,22.7,78.9z"/>
		<path class="st29" d="M17.5,82.4c0,0.3,0.1,0.5,0.2,0.8c0.2,0.4,0.1,0.8-0.2,1.1c-0.3,0.3-0.7,0.4-1,0.3c-0.2-0.1-0.4-0.1-0.7-0.1
			c0.1,0,0.1-0.1,0.2-0.1c0.3-0.3,0.3-0.7,0.2-1.1c-0.1-0.3-0.2-0.5-0.2-0.8c0-0.9,0.8-1.7,1.7-1.7c0.3,0,0.5,0.1,0.8,0.2
			C17.9,81.2,17.5,81.8,17.5,82.4L17.5,82.4z"/>
		<path class="st29" d="M15.5,90.8c0,0.2,0,0.4-0.1,0.5c-0.2,0.4-0.5,0.6-0.9,0.6c-0.1,0-0.3,0-0.4-0.1c-0.2-0.1-0.3-0.2-0.5-0.2
			c0.1-0.1,0.2-0.2,0.2-0.3c0.2-0.5,0-1.1-0.5-1.3c-1.1-0.5-1.6-1-1.6-1c-0.5-0.5-0.7-1.1-0.7-1.8c0-1.5,1.3-2.8,3-2.8
			c0.3,0,0.5,0,0.8,0.1c-1.3,0.3-2.2,1.4-2.2,2.7c0,0.7,0.3,1.3,0.7,1.8c0,0,0.5,0.5,1.5,0.9C14.9,90.3,15.1,90.7,15.5,90.8
			L15.5,90.8z"/>
		<path class="st29" d="M10.8,94.1c0,0.9,0.3,1.7,0.8,2.4c-0.3,0.3-0.6,0.5-0.8,0.8c-1-0.7-1.6-1.8-1.6-3.1c0-1.3,0.6-2.5,1.7-3.2
			c0.2,0.2,0.5,0.4,0.9,0.6C11.2,92.1,10.8,93.1,10.8,94.1L10.8,94.1z"/>
		<path class="st29" d="M39,97.5h-1.5c-0.2-0.1-0.4-0.3-0.6-0.4c-0.4-0.3-0.5-0.9-0.2-1.4c0.3-0.4,0.9-0.5,1.4-0.2
			c0.1,0.1,0.1,0.1,0.2,0.2c0,0,0,0,0,0c-0.3,0.4-0.2,1,0.2,1.4C38.7,97.2,38.9,97.3,39,97.5z"/>
		<path class="st29" d="M43.2,94.1c0,1.3-0.6,2.4-1.6,3.1c-0.2-0.2-0.5-0.5-0.8-0.8c0.5-0.7,0.8-1.5,0.8-2.4c0-1-0.4-1.9-1-2.6
			c0.4-0.2,0.7-0.4,0.9-0.6C42.5,91.6,43.2,92.8,43.2,94.1z"/>
		<path class="st29" d="M31.7,81.5c-0.3,0.3-0.7,0.5-1.1,0.3c-0.4-0.1-0.7-0.5-0.7-0.9v-1.2c0-0.3-0.1-0.5-0.3-0.7
			c0.2-0.2,0.5-0.3,0.8-0.3c0.4,0,0.6,0.2,0.8,0.3c0.2,0.2,0.3,0.5,0.3,0.8v1.2C31.5,81.1,31.6,81.3,31.7,81.5L31.7,81.5z"/>
		<path class="st29" d="M36.5,84.4c-0.2,0-0.4,0.1-0.6,0.1c-0.4,0.1-0.8,0-1.1-0.3c-0.3-0.3-0.3-0.7-0.2-1.1
			c0.1-0.2,0.2-0.5,0.2-0.8c0-0.7-0.4-1.2-1-1.5c0.2-0.1,0.5-0.2,0.8-0.2c0.9,0,1.7,0.8,1.7,1.7c0,0.3-0.1,0.5-0.2,0.8
			c-0.2,0.4-0.1,0.8,0.2,1.1C36.4,84.3,36.5,84.4,36.5,84.4z"/>
		<path class="st29" d="M41.4,87.2c0,0.7-0.3,1.3-0.7,1.8c-0.1,0-0.5,0.5-1.6,1c-0.5,0.2-0.7,0.8-0.5,1.3c0.1,0.1,0.1,0.2,0.2,0.3
			c-0.1,0.1-0.3,0.1-0.5,0.2c-0.1,0.1-0.3,0.1-0.4,0.1c-0.4,0-0.7-0.2-0.9-0.6c-0.1-0.2-0.1-0.4-0.1-0.5c0.4-0.1,0.6-0.4,0.7-0.8
			c1-0.5,1.5-0.9,1.5-0.9c0.5-0.5,0.7-1.1,0.7-1.8c0-1.3-0.9-2.4-2.2-2.7c0.2-0.1,0.5-0.1,0.8-0.1C40,84.4,41.4,85.7,41.4,87.2
			L41.4,87.2z"/>
		<path class="st11" d="M31.2,128.9c-0.5,1-1.9,1.7-3.4,1.7h-3.3c-1.5,0-2.8-0.7-3.4-1.7H31.2z"/>
		<path class="st30" d="M19,121h14.5v2H19V121z"/>
		<path class="st30" d="M33.4,125v1.4c0,0.3-0.2,0.5-0.5,0.5H19.5c-0.3,0-0.5-0.2-0.5-0.5V125H33.4z"/>
		<path class="st31" d="M41.7,99.4c-0.6,2.8-1.8,5.5-3.2,7.4c-3,3.7-5.4,7-5.5,12.3H19.4c-0.2-5.3-2.5-8.6-5.5-12.3
			c-1.5-1.8-2.7-4.5-3.3-7.4L41.7,99.4z"/>
		<path class="st32" d="M41.7,99.4c-0.6,2.8-1.8,5.5-3.2,7.4c-3,3.7-5.4,7-5.5,12.3H19.4c-0.2-5.3-2.5-8.6-5.5-12.3
			c-1.5-1.8-2.7-4.5-3.3-7.4h2.3c0.8,2.5,1.8,4.8,3,6.4c2.5,3.2,4.5,6.1,4.6,10.8h11.3c0.1-4.7,2.1-7.6,4.6-10.8
			c1.2-1.6,2.2-4,3-6.4L41.7,99.4z"/>
		<g>
			<path class="st9" d="M36.9,90.8c-0.1,0-0.2,0.1-0.3,0.1c-0.4,0-0.8-0.3-0.9-0.7c-0.2-0.7-0.9-1.1-1.6-1.3
				c-0.6-0.2-1.2-0.2-1.3-0.2c-0.5,0-1-0.4-1-1c0-0.5,0.4-1,1-1c0.1,0,3.9,0,4.7,2.9C37.7,90.1,37.4,90.6,36.9,90.8z"/>
			<path class="st9" d="M20.6,87.7c0,0.5-0.5,1-1,1c0,0,0,0,0,0c-0.1,0-2.4,0-2.9,1.5c-0.1,0.4-0.5,0.7-0.9,0.7
				c-0.1,0-0.2,0-0.3-0.1c-0.5-0.2-0.8-0.7-0.7-1.2c0.9-2.9,4.6-2.9,4.7-2.9C20.1,86.7,20.6,87.1,20.6,87.7L20.6,87.7z"/>
			<path class="st9" d="M26.2,72.7c0.5,0,1-0.4,1-1v-2.5c0-0.5-0.4-1-1-1s-1,0.4-1,1v2.5C25.2,72.2,25.7,72.7,26.2,72.7z"/>
			<path class="st9" d="M14.1,75c0.2,0.3,0.5,0.5,0.8,0.5c0.2,0,0.4-0.1,0.5-0.2c0.5-0.3,0.6-0.9,0.3-1.3l-1.4-2.2
				c-0.3-0.5-0.9-0.6-1.3-0.3c-0.5,0.3-0.6,0.9-0.3,1.3L14.1,75z"/>
			<path class="st9" d="M3.9,81.7l2.4,1.3C6.4,83,6.6,83,6.7,83c0.4,0,0.7-0.2,0.9-0.5c0.3-0.5,0.1-1.1-0.4-1.3l-2.4-1.3
				c-0.5-0.3-1.1-0.1-1.3,0.4S3.4,81.4,3.9,81.7L3.9,81.7z"/>
			<path class="st9" d="M4.7,92.4c0-0.5-0.4-1-1-1H1c-0.5,0-1,0.4-1,1c0,0.5,0.4,1,1,1h2.7C4.3,93.4,4.7,93,4.7,92.4z"/>
			<path class="st9" d="M6.3,101.9l-2.4,1.3c-0.5,0.3-0.7,0.8-0.4,1.3c0.2,0.3,0.5,0.5,0.9,0.5c0.2,0,0.3,0,0.5-0.1l2.4-1.3
				c0.5-0.3,0.7-0.8,0.4-1.3C7.3,101.9,6.7,101.7,6.3,101.9L6.3,101.9z"/>
			<path class="st9" d="M48.5,103.2l-2.4-1.3c-0.5-0.3-1.1-0.1-1.3,0.4s-0.1,1.1,0.4,1.3l2.4,1.3c0.1,0.1,0.3,0.1,0.5,0.1
				c0.4,0,0.7-0.2,0.9-0.5C49.2,104,49,103.5,48.5,103.2L48.5,103.2z"/>
			<path class="st9" d="M51.4,91.5h-2.7c-0.5,0-1,0.4-1,1c0,0.5,0.4,1,1,1h2.7c0.5,0,1-0.4,1-1C52.4,91.9,52,91.5,51.4,91.5z"/>
			<path class="st9" d="M45.7,83c0.2,0,0.3,0,0.5-0.1l2.4-1.3c0.5-0.3,0.7-0.8,0.4-1.3c-0.3-0.5-0.8-0.7-1.3-0.4l-2.4,1.3
				c-0.5,0.3-0.7,0.8-0.4,1.3C45,82.8,45.3,83,45.7,83z"/>
			<path class="st9" d="M36.9,75.3c0.2,0.1,0.3,0.2,0.5,0.2c0.3,0,0.6-0.2,0.8-0.5l1.4-2.2c0.3-0.5,0.2-1.1-0.3-1.3
				c-0.5-0.3-1.1-0.2-1.3,0.3L36.6,74C36.3,74.4,36.5,75,36.9,75.3L36.9,75.3z"/>
		</g>
	</g>
</g>
</svg>
