<?xml version="1.0" encoding="utf-8"?>
<!-- Generator: Adobe Illustrator 25.0.0, SVG Export Plug-In . SVG Version: 6.00 Build 0)  -->
<svg version="1.1" id="Layer_1" xmlns="http://www.w3.org/2000/svg" xmlns:xlink="http://www.w3.org/1999/xlink" x="0px" y="0px"
	 viewBox="0 0 467 430" style="enable-background:new 0 0 467 430;" xml:space="preserve">
<style type="text/css">
	.st0{fill:#EFEFEF;}
	.st1{fill:#FFDC8D;}
	.st2{fill:#E8C57E;}
	.st3{fill:#CCCCCC;}
	.st4{fill:#78CAEF;}
	.st5{fill:#4BC999;}
	.st6{fill:#35414D;}
	.st7{fill:#F4EAE6;}
	.st8{fill:#BECAF5;}
	.st9{fill:#3C58A0;}
	.st10{fill:#DEEEFF;}
	.st11{fill:#2A428C;}
	.st12{fill:#1C2E7A;}
	.st13{fill:#FF4155;}
	.st14{fill:#FFDD40;}
	.st15{fill:#88CE65;}
	.st16{fill:#6289CC;}
	.st17{fill:#4369FD;}
	.st18{fill:#B5A7A3;}
	.st19{fill:#748FA5;}
	.st20{fill:#6A8291;}
	.st21{fill:#70D6F9;}
	.st22{fill:#67CAE5;}
	.st23{fill:#656D78;}
	.st24{fill:#F4F6F8;}
	.st25{fill:#E4E8EB;}
	.st26{fill:#B3A4EE;}
	.st27{fill:#AC92EA;}
	.st28{fill:#FBD277;}
	.st29{fill:#F76C82;}
	.st30{fill:#EB5463;}
	.st31{fill:#FDCD56;}
	.st32{fill:#434A54;}
	.st33{fill:#FFA733;}
	.st34{fill:#FF5A5A;}
	.st35{fill:#D6DF58;}
	.st36{fill:#F16C7A;}
	.st37{fill:#3A312A;}
	.st38{fill:#D7E057;}
	.st39{fill:#8AC6DD;}
	.st40{fill:#FDF6EC;stroke:#35414D;stroke-width:2.0726;stroke-miterlimit:10;}
</style>
<g>
	<g>
		<g>
			<g>
				<path class="st0" d="M208.6,38.4H225c8,0,14.5,6.5,14.5,14.5c0,4-1.6,7.6-4.3,10.3c-2.6,2.6-6.3,4.3-10.3,4.3h-11.2L208.6,38.4z
					"/>
				<path class="st0" d="M213.8,67.5H225c8,0,14.5,6.5,14.5,14.5c0,4-1.6,7.6-4.3,10.3c-2.6,2.6-6.3,4.3-10.3,4.3h-9L213.8,67.5z"/>
				<path class="st1" d="M103.2,133.5V61.7c0-30.5,24.8-55.3,55.3-55.3l0,0c30.5,0,55.3,24.8,55.3,55.3v28.1l26.8,83.2h-26.8v15.2
					c0,29.6-24,53.5-53.5,53.5h-1.8c-30.5,0-55.3-24.8-55.3-55.3v-13.5V133.5z"/>
				<path class="st2" d="M120.7,186.3v-13.5v-39.3V61.7c0-27.6,20.2-50.4,46.6-54.6c-2.8-0.5-5.8-0.7-8.7-0.7l0,0
					c-30.5,0-55.3,24.8-55.3,55.3v71.8v39.3v13.5c0,30.5,24.8,55.3,55.3,55.3h1.8c2.6,0,5.2-0.2,7.8-0.6
					C141.3,237.2,120.7,214.2,120.7,186.3z"/>
				<path class="st2" d="M115.6,139.2c-7.7-7.7-20.2-7.7-27.9,0c-7.7,7.7-7.7,20.2,0,27.9c7.7,7.7,20.2,7.7,27.9,0V139.2z"/>
				<path class="st0" d="M240.2,323.3c0,11.6-2.4,34.7-6.8,62.7c-1.7,13.8-2.8,26.4-3.3,37.6H88c-1-12.5-2.4-25.6-4.4-37.6
					c-4.4-28-6.8-51.2-6.8-62.7c0-45.1,36.6-81.7,81.7-81.7C203.6,241.6,240.2,278.2,240.2,323.3z"/>
				<path class="st3" d="M110.1,323.3c0,11.6,1.4,34.7,4,62.7c1.2,12,2,25,2.6,37.6H88c-1-12.5-2.4-25.6-4.4-37.6
					c-4.4-28-6.8-51.2-6.8-62.7c0-45.1,36.6-81.7,81.7-81.7C131.8,241.6,110.1,278.2,110.1,323.3z"/>
				<circle class="st4" cx="179.7" cy="131.4" r="22.7"/>
				<circle class="st4" cx="251.4" cy="131.4" r="22.7"/>
				<path class="st0" d="M133.8,38.4H77.6c-8,0-14.5,6.5-14.5,14.5l0,0c0,8,6.5,14.5,14.5,14.5h56.2V38.4z"/>
				<g>
					<path class="st0" d="M133.8,67.5H86.1c-8,0-14.5,6.5-14.5,14.5l0,0c0,8,6.5,14.5,14.5,14.5h47.7L133.8,67.5z"/>
				</g>
				<polygon class="st5" points="47,337 27.6,367.1 63.6,368 				"/>
			</g>
			<g>
				<path class="st6" d="M177.8,202.4c5,0,10.2-1.2,14.9-3.9c3.1-1.7,4.2-5.6,2.5-8.7s-5.6-4.2-8.7-2.5c-8.6,4.8-19.6,1.7-24.4-6.9
					c-1.7-3.1-5.6-4.2-8.7-2.5c-3.1,1.7-4.2,5.6-2.5,8.7C156.5,196.7,167,202.4,177.8,202.4z"/>
				<path class="st6" d="M251.4,102.3c-9.4,0-17.8,4.5-23.2,11.5l-3.5-10.9h0.2c5.6,0,10.9-2.2,14.8-6.1c4-4,6.1-9.2,6.1-14.8
					c0-5.7-2.2-10.8-5.9-14.6c3.8-3.9,5.9-9.1,5.9-14.5c0-11.5-9.4-20.9-20.9-20.9h-12.4c-2.8-5-6.3-9.8-10.5-13.9
					C190.5,6.4,175,0,158.5,0c-22.5,0-43.3,12.4-54.1,32H77.6c-11.5,0-20.9,9.4-20.9,20.9c0,8.1,4.6,15.1,11.3,18.6
					c-1.8,3.1-2.8,6.7-2.8,10.5c0,11.5,9.4,20.9,20.9,20.9h47.7c3.5,0,6.4-2.9,6.4-6.4c0-3.5-2.9-6.4-6.4-6.4H86.1
					c-4.5,0-8.2-3.6-8.2-8.1s3.7-8.2,8.2-8.2h47.7c3.5,0,6.4-2.9,6.4-6.4c0-3.5-2.9-6.4-6.4-6.4H77.6c-4.5,0-8.2-3.7-8.2-8.2
					c0-4.5,3.7-8.1,8.2-8.1h56.2c3.5,0,6.4-2.9,6.4-6.4c0-3.5-2.9-6.4-6.4-6.4h-14.2c7-9.2,17.2-15.6,28.5-18.1h0
					c3.4-0.7,6.8-1.1,10.4-1.1c13.1,0,25.3,5.1,34.6,14.3c9.2,9.2,14.3,21.5,14.3,34.6v28.1c0,0.7,0.1,1.3,0.3,2l10.8,33.3h-10.4
					c-2.9-13-14.5-22.7-28.4-22.7c-13.8,0-25.4,9.7-28.4,22.7h-17c-3.5,0-6.4,2.9-6.4,6.4c0,3.5,2.9,6.4,6.4,6.4h17
					c2.9,13,14.5,22.7,28.4,22.7c13.8,0,25.4-9.7,28.4-22.7h14.5l9.3,28.7h-18c-3.5,0-6.4,2.9-6.4,6.4v15.2
					c0,26-21.1,47.1-47.1,47.1h-1.8c-3.5,0-7-0.4-10.3-1.1h0c-22-4.8-38.6-24.4-38.6-47.8V178c3.9-1.2,7.5-3.4,10.5-6.4
					c0.2-0.2,0.4-0.4,0.6-0.7c1.7-2.3,1.7-5.4,0-7.7c-0.2-0.2-0.4-0.5-0.6-0.7c-1.2-1.2-2.9-1.9-4.5-1.9s-3.3,0.6-4.5,1.9
					c-2.1,2.1-4.9,3.5-7.8,3.8c-0.5,0.1-1,0.1-1.6,0.1c-3.6,0-6.9-1.4-9.4-3.9c-5.2-5.2-5.2-13.6,0-18.8c3-3,7.1-4.3,11-3.8
					c2.9,0.3,5.6,1.6,7.8,3.8c1.2,1.2,2.9,1.9,4.5,1.9s3.3-0.6,4.5-1.9c0.2-0.2,0.4-0.4,0.6-0.7c1.7-2.3,1.7-5.4,0-7.7
					c-0.2-0.2-0.4-0.5-0.6-0.7c-3-3-6.6-5.2-10.5-6.4v-13.4c0-3.5-2.9-6.4-6.4-6.4h0c-3.5,0-6.4,2.9-6.4,6.4v12.6
					c-5,0.9-9.8,3.3-13.6,7.2c-10.2,10.2-10.2,26.7,0,36.9c3.8,3.8,8.5,6.2,13.6,7.2v7.5c0,23.3,12.9,43.5,32,54
					c-8.2,2.9-15.7,7-22.6,12.1c-7.8,1.8-28.7,7-50,15C18.4,281.8,0,297.3,0,314.9c0,17,14.3,27.5,29.7,37.2l-7.4,11.5
					c-1.3,1.9-1.4,4.4-0.3,6.4c1.1,2.1,3.2,3.4,5.5,3.4l32.6,0.8c4.9,6.3,5.2,12.6,1.2,20.5c-1.6,3.1-0.4,7,2.8,8.6
					c0.9,0.5,1.9,0.7,2.9,0.7c2.3,0,4.6-1.3,5.7-3.5c3-5.8,4.4-11.4,4.2-16.8c0.2,1.1,0.3,2.1,0.5,3.2c1.8,10.6,3.2,23,4.4,37
					c0.3,3.3,3,5.9,6.4,5.9h142.1c3.4,0,6.2-2.7,6.4-6c0.4-7.7,1-15.6,1.8-23.5c0.3-3,0.6-6,1-9c0,0.2,0.1,0.3,0.1,0.5l5-39l0-0.1v0
					c1.4-12.4,2.2-22.7,2.2-29.5c0-3.5-2.9-6.4-6.4-6.4c-0.1,0-0.2,0-0.2,0c-3.4,0.1-6.1,2.9-6.1,6.4c0,11.6-2.6,35.2-6.7,61.8
					c0,0.1,0,0.1,0,0.2c-1.3,10.8-2.4,21.5-3,32h-59.2v-15.7c0-3.5-2.9-6.4-6.4-6.4c-3.5,0-6.4,2.9-6.4,6.4v15.7H93.9
					c-1.1-12-2.4-22.8-4-32.1c-4.1-26.5-6.7-50.2-6.7-61.8c0-22.4,9.8-42.5,25.4-56.3l9.5,11.5l10.1,12.2c1.3,1.6,3.4,2.5,5.5,2.3
					c2.1-0.2,4-1.4,5-3.2l13.4-23.8v114.4c0,3.5,2.9,6.4,6.4,6.4s6.4-2.9,6.4-6.4V265.9l13.4,23.8c1,1.8,2.9,3,5,3.2
					c0.2,0,0.4,0,0.6,0c1.9,0,3.7-0.8,4.9-2.3l19.6-23.6c10.5,9.3,18.5,21.5,22.5,35.7c0.9,3.3,4.3,5.3,7.6,4.5c0.1,0,0.2,0,0.2-0.1
					c3.4-1,5.4-4.5,4.4-7.9c-3-10.7-8-20.5-14.5-29c0,0-12.2-13.9-18.7-18.2c-6.5-4.7-13.6-8.5-21.2-11.3
					c18.6-10.2,31.3-29.9,31.3-52.6v-8.8h20.4c2,0,4-1,5.2-2.6c1.2-1.6,1.5-3.8,0.9-5.7l-3.8-11.7c2.7,0.8,5.6,1.3,8.5,1.3
					c16,0,29.1-13,29.1-29.1C280.5,115.4,267.5,102.3,251.4,102.3z M179.7,147.7c-9,0-16.3-7.3-16.3-16.3c0-9,7.3-16.3,16.3-16.3
					c9,0,16.3,7.3,16.3,16.3C196,140.4,188.7,147.7,179.7,147.7z M251.4,147.7c-9,0-16.3-7.3-16.3-16.3c0-9,7.3-16.3,16.3-16.3
					c9,0,16.3,7.3,16.3,16.3C267.7,140.4,260.4,147.7,251.4,147.7z M233.1,52.9c0,2.2-0.8,4.2-2.4,5.8c-1.5,1.5-3.6,2.4-5.8,2.4
					h-4.8c-0.1-5.6-0.9-11.1-2.3-16.3h7.2C229.5,44.8,233.1,48.4,233.1,52.9z M220.2,73.9h4.8c4.5,0,8.2,3.7,8.2,8.2
					c0,2.2-0.8,4.2-2.4,5.8c-1.5,1.5-3.6,2.4-5.8,2.4h-4.3l-0.5-1.4V73.9z M39.1,361l7.4-11.4l6.3,11.7L39.1,361z M75.8,377.6
					c-1.1-4.1-3.2-8-6.2-11.7c-0.1-0.3-0.2-0.6-0.4-0.9l-16.6-31c-1.1-2-3.1-3.3-5.4-3.4c-2.3-0.1-4.4,1-5.6,2.9l-5,7.8
					c-12.8-8-23.8-16-23.8-26.4c0-11,17.5-23.9,47.9-35.4c9.5-3.6,19.1-6.7,27.4-9.1c-11.1,14.8-17.7,33.1-17.7,52.9
					C70.4,334.2,72.4,354.1,75.8,377.6z M132.1,275.3l-7.9-9.6l-5.4-6.4c5.1-3.2,10.6-5.7,16.4-7.6h0c3.8-1.2,7.8-2.2,11.8-2.8
					L132.1,275.3z M184.9,275.3L170,248.9c10.1,1.6,19.7,5.2,28.2,10.5L184.9,275.3z"/>
				<path class="st6" d="M215.7,320.8h-26.2c-3.5,0-6.4,2.9-6.4,6.4s2.9,6.4,6.4,6.4h26.2c3.5,0,6.4-2.9,6.4-6.4
					S219.2,320.8,215.7,320.8z"/>
			</g>
		</g>
	</g>
	<g>
		<g>
			<path class="st7" d="M346.9,424.8h-125c-3.3,0-5.9-2.7-5.9-5.9v-79.6c0-3.3,2.7-5.9,5.9-5.9h125c3.3,0,5.9,2.7,5.9,5.9v79.6
				C352.9,422.2,350.2,424.8,346.9,424.8z"/>
			<g>
				<path class="st8" d="M255.5,271.4c0,6.1-4.9,11-11,11h108.3v-11H255.5z"/>
				<path class="st9" d="M216,271.4v11h29.2c6.1,0,11-4.9,11-11H216z"/>
				<path class="st7" d="M352.8,281.7v106.8c-14.9,21.9-40,36.2-68.4,36.2c-4.1,0-8.1-0.3-12.1-0.9c-0.2,0-0.5-0.1-0.7-0.1
					c-23.1-3.6-43-16.7-55.6-35.3V281.7H352.8z"/>
				<path class="st10" d="M272.4,423.9c-0.2,0-0.5-0.1-0.7-0.1C271.9,423.9,272.1,423.9,272.4,423.9L272.4,423.9z"/>
				<path class="st11" d="M343.4,252.1h-89.8c0,0-3.3,3.4,0,6.6l0.5,6.4c0,0-2.8,4.2,1.6,6.9h100.2v-7.9
					C355.8,257.5,350.2,252.1,343.4,252.1z"/>
				<path class="st12" d="M226.9,251.6c-6.9,0-12.6,5.5-12.6,12.3v8.1h41.9c-4.4-2.8-1.6-7.1-1.6-7.1l-0.5-6.6c-3.4-3.3,0-6.8,0-6.8
					L226.9,251.6L226.9,251.6z"/>
				<path class="st13" d="M234.7,262c0,2.1-1.7,3.9-3.9,3.9c-2.1,0-3.9-1.7-3.9-3.9c0-2.1,1.7-3.9,3.9-3.9
					C233,258.2,234.7,259.9,234.7,262z"/>
				<path class="st14" d="M245.5,262c0,2.1-1.7,3.9-3.9,3.9c-2.1,0-3.9-1.7-3.9-3.9c0-2.1,1.7-3.9,3.9-3.9
					C243.7,258.2,245.5,259.9,245.5,262z"/>
				<path class="st15" d="M256.2,262c0,2.1-1.7,3.9-3.9,3.9c-2.1,0-3.9-1.7-3.9-3.9c0-2.1,1.7-3.9,3.9-3.9
					C254.5,258.2,256.2,259.9,256.2,262L256.2,262z"/>
				<path class="st9" d="M289.5,262c0-1.4,1.2-2.6,2.6-2.6H269c-1.4,0-2.6,1.2-2.6,2.6c0,1.4,1.2,2.6,2.6,2.6h23.1
					C290.6,264.6,289.5,263.5,289.5,262z"/>
				<path class="st16" d="M310.9,262c0-1.4-1.2-2.6-2.6-2.6h-16.9c-1.4,0-2.6,1.2-2.6,2.6c0,1.4,1.2,2.6,2.6,2.6h16.9
					C309.7,264.6,310.9,263.5,310.9,262z"/>
				<g>
					<path class="st16" d="M339.6,264.6h-3.4c-1.4,0-2.6-1.2-2.6-2.6c0-1.4,1.2-2.6,2.6-2.6h3.4c1.4,0,2.6,1.2,2.6,2.6
						C342.2,263.5,341,264.6,339.6,264.6z"/>
				</g>
				<g>
					<path class="st9" d="M327.9,264.6h-3.4c-1.4,0-2.6-1.2-2.6-2.6c0-1.4,1.2-2.6,2.6-2.6h3.4c1.4,0,2.6,1.2,2.6,2.6
						C330.5,263.5,329.3,264.6,327.9,264.6z"/>
				</g>
				<g id="g9219_4_" transform="translate(244.6719,249.1592)">
					<path id="path9221_4_" class="st17" d="M36.6,81.8c0,1.3-1.1,2.4-2.4,2.4c-1.3,0-2.4-1.1-2.4-2.4c0-1.3,1.1-2.4,2.4-2.4
						C35.5,79.5,36.6,80.5,36.6,81.8"/>
				</g>
				<g id="g9223_4_" transform="translate(261.5937,249.1592)">
					<path id="path9225_4_" class="st18" d="M26.8,81.8c0,1.3-1.1,2.4-2.4,2.4c-1.3,0-2.4-1.1-2.4-2.4c0-1.3,1.1-2.4,2.4-2.4
						C25.7,79.5,26.8,80.5,26.8,81.8"/>
				</g>
				<g id="g9227_4_" transform="translate(278.5156,249.1592)">
					<path id="path9229_4_" class="st18" d="M17,81.8c0,1.3-1.1,2.4-2.4,2.4c-1.3,0-2.4-1.1-2.4-2.4c0-1.3,1.1-2.4,2.4-2.4
						C16,79.5,17,80.5,17,81.8"/>
				</g>
				<g>
					<g id="g9231_4_" transform="translate(199.4058,152.8955)">
						<path id="path9233_4_" class="st19" d="M61.7,215H35.3c-0.7,0-1.3-0.6-1.3-1.3v-18.9c0-0.7,0.6-1.3,1.3-1.3h26.5
							c0.7,0,1.3,0.6,1.3,1.3v18.9C63,214.4,62.4,215,61.7,215"/>
					</g>
					<g id="g9235_4_" transform="translate(188.9829,152.8975)">
						<path id="path9237_4_" class="st20" d="M67.7,215H57.6v-12.4c0-0.7,0.6-1.3,1.3-1.3h7.6c0.7,0,1.3,0.6,1.3,1.3V215z"/>
					</g>
					<g id="g9239_4_" transform="translate(185.4336,127.335)">
						<path id="path9241_4_" class="st18" d="M69.8,251.3H55.1c-1.2,0-2.1-0.9-2.1-2.1c0-1.2,0.9-2.1,2.1-2.1h14.7
							c1.2,0,2.1,0.9,2.1,2.1C71.9,250.4,71,251.3,69.8,251.3"/>
					</g>
					<g id="g9251_4_" transform="translate(286.1025,152.8955)">
						<path id="path9253_4_" class="st19" d="M11.6,215h-26.5c-0.7,0-1.3-0.6-1.3-1.3v-18.9c0-0.7,0.6-1.3,1.3-1.3h26.5
							c0.7,0,1.3,0.6,1.3,1.3v18.9C12.9,214.4,12.3,215,11.6,215"/>
					</g>
					<g id="g9255_4_" transform="translate(275.6797,152.8975)">
						<path id="path9257_4_" class="st20" d="M17.6,215H7.5v-12.4c0-0.7,0.6-1.3,1.3-1.3h7.6c0.7,0,1.3,0.6,1.3,1.3V215z"/>
					</g>
					<g id="g9259_4_" transform="translate(272.1304,127.335)">
						<path id="path9261_4_" class="st18" d="M19.7,251.3H5c-1.2,0-2.1-0.9-2.1-2.1c0-1.2,0.9-2.1,2.1-2.1h14.7
							c1.2,0,2.1,0.9,2.1,2.1C21.8,250.4,20.8,251.3,19.7,251.3"/>
					</g>
					<g id="g9271_4_" transform="translate(372.7988,152.8955)">
						<path id="path9273_4_" class="st19" d="M-38.5,215H-65c-0.7,0-1.3-0.6-1.3-1.3v-18.9c0-0.7,0.6-1.3,1.3-1.3h26.5
							c0.7,0,1.3,0.6,1.3,1.3v18.9C-37.3,214.4-37.8,215-38.5,215"/>
					</g>
					<g id="g9275_4_" transform="translate(362.3765,152.8975)">
						<path id="path9277_4_" class="st20" d="M-32.5,215h-10.1v-12.4c0-0.7,0.6-1.3,1.3-1.3h7.6c0.7,0,1.3,0.6,1.3,1.3V215z"/>
					</g>
					<g id="g9279_4_" transform="translate(358.8271,127.335)">
						<path id="path9281_4_" class="st18" d="M-30.5,251.3h-14.7c-1.2,0-2.1-0.9-2.1-2.1c0-1.2,0.9-2.1,2.1-2.1h14.7
							c1.2,0,2.1,0.9,2.1,2.1C-28.3,250.4-29.3,251.3-30.5,251.3"/>
					</g>
				</g>
				<g>
					<g id="g9243_4_" transform="translate(199.9019,91.3535)">
						<path id="path9245_4_" class="st19" d="M64,302.7H41.6c-1,0-1.8-0.8-1.8-1.8c0-1,0.8-1.8,1.8-1.8H64c1,0,1.8,0.8,1.8,1.8
							C65.9,301.9,65,302.7,64,302.7"/>
					</g>
					<g id="g9247_4_" transform="translate(199.9019,71.8398)">
						<path id="path9249_4_" class="st19" d="M64,329.4H41.6c-1,0-1.8-0.8-1.8-1.8c0-1,0.8-1.8,1.8-1.8H64c1,0,1.8,0.8,1.8,1.8
							C65.9,328.6,65,329.4,64,329.4"/>
					</g>
					<g id="g9263_4_" transform="translate(286.5986,91.3535)">
						<path id="path9265_4_" class="st19" d="M9.1,302.7h-22.4c-1,0-1.8-0.8-1.8-1.8c0-1,0.8-1.8,1.8-1.8H9.1c1,0,1.8,0.8,1.8,1.8
							C10.9,301.9,10.1,302.7,9.1,302.7"/>
					</g>
					<g id="g9267_4_" transform="translate(286.5986,71.8398)">
						<path id="path9269_4_" class="st19" d="M9.1,329.4h-22.4c-1,0-1.8-0.8-1.8-1.8c0-1,0.8-1.8,1.8-1.8H9.1c1,0,1.8,0.8,1.8,1.8
							C10.9,328.6,10.1,329.4,9.1,329.4"/>
					</g>
					<g id="g9283_4_" transform="translate(373.2954,91.3535)">
						<path id="path9285_4_" class="st19" d="M-45.9,302.7h-22.4c-1,0-1.8-0.8-1.8-1.8c0-1,0.8-1.8,1.8-1.8h22.4
							c1,0,1.8,0.8,1.8,1.8C-44,301.9-44.9,302.7-45.9,302.7"/>
					</g>
					<g id="g9287_4_" transform="translate(373.2954,71.8398)">
						<path id="path9289_4_" class="st19" d="M-45.9,329.4h-22.4c-1,0-1.8-0.8-1.8-1.8c0-1,0.8-1.8,1.8-1.8h22.4
							c1,0,1.8,0.8,1.8,1.8C-44,328.6-44.9,329.4-45.9,329.4"/>
					</g>
				</g>
				<rect x="233.4" y="384.6" class="st9" width="102.1" height="0.2"/>
				<g>
					<path class="st21" d="M225.1,286.6h118.6v53.3H225.1V286.6z"/>
					<path class="st22" d="M343.7,286.6v53.2H225.1v-11.4h75.5c18.6,0,33.7-18.2,33.7-40.6v-1.2H343.7z"/>
				</g>
			</g>
			<path class="st6" d="M338.1,252.3c8.1,0,14.6,6.5,14.6,14.6V410c0,8.1-6.5,14.6-14.6,14.6H230.8c-8.1,0-14.6-6.5-14.6-14.6V266.9
				c0-8.1,6.5-14.6,14.6-14.6H338.1 M338.1,247.1H230.8c-10.9,0-19.8,8.9-19.8,19.8V410c0,10.9,8.9,19.8,19.8,19.8h107.3
				c10.9,0,19.8-8.9,19.8-19.8V266.9C357.9,256,349,247.1,338.1,247.1L338.1,247.1z"/>
		</g>
		<g>
			<polygon class="st23" points="462.7,253.1 462.1,253.1 462.1,267.9 319.8,267.9 319.8,251.4 317.9,249.1 318.9,239.8 
				323.4,236.7 332.6,238.2 447.2,238.2 447.2,236.7 462.1,238.2 			"/>
			<path class="st24" d="M462,267.9v123c0,8.5-5.7,15.4-12.8,15.5H332.6c-9.1,3.1-17.5,0-12.8-15.5l0,0v-123L462,267.9z"/>
			<path class="st25" d="M462,267.9v123c0.6,8.2,4.8,18.3-12.8,15.5H332.6c-15.5,1.9-15.5-5.8-13.8-11.9c0.9,0.3,3.2,0.3,4.2,0.3
				h14.6c59.7,0,109.4-55.2,114.4-126.9L462,267.9z"/>
			<path class="st26" d="M331.6,345.6h34.6v27.9h-34.6V345.6z"/>
			<path class="st27" d="M366.2,345.6v27.9h-34.6v-8.7h4.3c10,0,18.8-7.7,21.9-19.2H366.2z"/>
			<path class="st28" d="M373.6,345.6h34.6v27.9h-34.6V345.6z"/>
			<g>
				<path class="st29" d="M331.6,281.1h118.6v53.3H331.6L331.6,281.1z"/>
				<path class="st30" d="M450.2,281.1v53.2H331.6v-11.4h75.5c18.6,0,33.7-18.2,33.7-40.6v-1.2H450.2z"/>
			</g>
			<path class="st21" d="M415.7,345.6h34.6v27.9h-34.6V345.6z"/>
			<path class="st22" d="M450.2,345.6v27.9h-34.6v-8.7h4.3c10,0,18.8-7.7,21.9-19.2H450.2z"/>
			<path class="st31" d="M408.2,345.6v27.9h-34.6v-8.7h4.3c10,0,18.8-7.7,22-19.2H408.2z"/>
			<g>
				<path class="st32" d="M366.2,386.4h-22.2c-0.8,0-1.5-0.8-1.5-1.8c0-1,0.7-1.8,1.5-1.8h22.2c0.8,0,1.5,0.8,1.5,1.8
					C367.7,385.6,367.1,386.4,366.2,386.4z"/>
				<path class="st33" d="M338.1,386.4h-6.4c-0.8,0-1.5-0.8-1.5-1.8c0-1,0.7-1.8,1.5-1.8h6.4c0.8,0,1.5,0.8,1.5,1.8
					C339.6,385.6,338.9,386.4,338.1,386.4z"/>
				<path class="st32" d="M366.2,397.7h-34.6c-0.8,0-1.5-0.8-1.5-1.8c0-1,0.7-1.8,1.5-1.8h34.6c0.8,0,1.5,0.8,1.5,1.8
					C367.7,396.9,367.1,397.7,366.2,397.7z"/>
				<path class="st32" d="M408.2,386.4h-22.2c-0.8,0-1.5-0.8-1.5-1.8c0-1,0.7-1.8,1.5-1.8h22.2c0.8,0,1.5,0.8,1.5,1.8
					C409.7,385.6,409.1,386.4,408.2,386.4z"/>
				<path class="st34" d="M380.1,386.4h-6.4c-0.8,0-1.5-0.8-1.5-1.8c0-1,0.7-1.8,1.5-1.8h6.4c0.8,0,1.5,0.8,1.5,1.8
					C381.6,385.6,380.9,386.4,380.1,386.4z"/>
				<path class="st32" d="M408.2,397.7h-34.6c-0.8,0-1.5-0.8-1.5-1.8c0-1,0.7-1.8,1.5-1.8h34.6c0.8,0,1.5,0.8,1.5,1.8
					C409.7,396.9,409.1,397.7,408.2,397.7z"/>
				<path class="st32" d="M450.2,386.4h-22.2c-0.8,0-1.5-0.8-1.5-1.8c0-1,0.7-1.8,1.5-1.8h22.2c0.8,0,1.5,0.8,1.5,1.8
					C451.7,385.6,451.1,386.4,450.2,386.4z"/>
				<path class="st35" d="M422.1,386.4h-6.4c-0.8,0-1.5-0.8-1.5-1.8c0-1,0.7-1.8,1.5-1.8h6.4c0.8,0,1.5,0.8,1.5,1.8
					C423.6,385.6,422.9,386.4,422.1,386.4z"/>
				<path class="st32" d="M450.2,397.7h-34.6c-0.8,0-1.5-0.8-1.5-1.8c0-1,0.7-1.8,1.5-1.8h34.6c0.8,0,1.5,0.8,1.5,1.8
					C451.7,396.9,451.1,397.7,450.2,397.7z"/>
			</g>
			<g>
				<g>
					<circle class="st36" cx="337.9" cy="253.1" r="5.1"/>
					<path class="st37" d="M337.9,259.3c-3.5,0-6.3-2.8-6.3-6.3s2.8-6.3,6.3-6.3c3.5,0,6.3,2.8,6.3,6.3S341.4,259.3,337.9,259.3z
						 M337.9,249.1c-2.2,0-4,1.8-4,4s1.8,4,4,4c2.2,0,4-1.8,4-4C341.9,250.9,340.1,249.1,337.9,249.1z"/>
				</g>
				<g>
					<circle class="st38" cx="353.9" cy="253.1" r="5.1"/>
					<path class="st37" d="M353.9,259.3c-3.5,0-6.3-2.8-6.3-6.3s2.8-6.3,6.3-6.3s6.3,2.8,6.3,6.3S357.3,259.3,353.9,259.3z
						 M353.9,249.1c-2.2,0-4,1.8-4,4s1.8,4,4,4s4-1.8,4-4C357.8,250.9,356.1,249.1,353.9,249.1z"/>
				</g>
				<g>
					<circle class="st39" cx="369.8" cy="253.1" r="5.1"/>
					<path class="st37" d="M369.8,259.3c-3.5,0-6.3-2.8-6.3-6.3s2.8-6.3,6.3-6.3s6.3,2.8,6.3,6.3S373.2,259.3,369.8,259.3z
						 M369.8,249.1c-2.2,0-4,1.8-4,4s1.8,4,4,4s4-1.8,4-4C373.8,250.9,372,249.1,369.8,249.1z"/>
				</g>
				<path class="st40" d="M446,257.3h-48.8c-2.4,0-4.3-1.9-4.3-4.3l0,0c0-2.4,1.9-4.3,4.3-4.3H446c2.4,0,4.3,1.9,4.3,4.3l0,0
					C450.2,255.4,448.3,257.3,446,257.3z"/>
			</g>
			<path class="st6" d="M450.1,238.2c6.6,0,12,5.4,12,12v144.3c0,6.6-5.4,12-12,12H331.8c-6.6,0-12-5.4-12-12V250.2
				c0-6.6,5.4-12,12-12H450.1 M450.1,233.2H331.8c-9.3,0-16.9,7.6-16.9,16.9v144.3c0,9.3,7.6,16.9,16.9,16.9h118.3
				c9.3,0,16.9-7.6,16.9-16.9V250.2C467,240.8,459.4,233.2,450.1,233.2L450.1,233.2z"/>
		</g>
	</g>
</g>
</svg>
