<?xml version="1.0" encoding="utf-8"?>
<!-- Generator: Adobe Illustrator 25.0.0, SVG Export Plug-In . SVG Version: 6.00 Build 0)  -->
<svg version="1.1" id="Layer_1" xmlns="http://www.w3.org/2000/svg" xmlns:xlink="http://www.w3.org/1999/xlink" x="0px" y="0px"
	 viewBox="0 0 385.1 430" style="enable-background:new 0 0 385.1 430;" xml:space="preserve">
<style type="text/css">
	.st0{fill:#D7FFDF;}
	.st1{fill-rule:evenodd;clip-rule:evenodd;fill:#7DDF96;}
	.st2{fill:#0D9353;}
	.st3{fill:#35414D;}
	.st4{fill-rule:evenodd;clip-rule:evenodd;fill:#0D9353;}
	.st5{fill:#EDF4FC;}
	.st6{fill:#FFE6A9;}
	.st7{fill:#9BE5F9;}
	.st8{fill:#FCDD86;}
	.st9{fill:#FCA265;}
	.st10{fill:#B2E26D;}
	.st11{fill:#70D6F9;}
	.st12{fill-rule:evenodd;clip-rule:evenodd;fill:#35414D;}
	.st13{fill-rule:evenodd;clip-rule:evenodd;fill:#56BF67;}
	.st14{fill-rule:evenodd;clip-rule:evenodd;fill:#9EF29E;}
	.st15{fill-rule:evenodd;clip-rule:evenodd;fill:#857E87;}
	.st16{fill-rule:evenodd;clip-rule:evenodd;fill:#6F6571;}
	.st17{fill-rule:evenodd;clip-rule:evenodd;fill:#5D5360;}
	.st18{fill-rule:evenodd;clip-rule:evenodd;fill:#31D6FF;}
	.st19{fill-rule:evenodd;clip-rule:evenodd;fill:#FF8086;}
	.st20{fill-rule:evenodd;clip-rule:evenodd;fill:#FFE07D;}
	.st21{fill:#87D147;}
	.st22{fill:#F5C84C;}
	.st23{fill:#FC657E;}
</style>
<g>
	<circle class="st0" cx="190.7" cy="150.2" r="145.3"/>
	<g>
		<path id="_409268072_22_" class="st1" d="M93.7,184.5c4.3,3.3,9.3,7.6,13,11.8c0.4,0.5,0.4,1.2,0,1.8l-26.8,35
			c-1.4,1.8-3-0.8-4.8-2.5c-8.1-7.9-17.9-14.7-28.4-20.6c-13-7.4-28-17.9-40-28.3c-0.5-0.5-0.6-1.3-0.1-1.9l26.9-35.1
			c0.5-0.7,1.4-0.8,2-0.3c12.2,10.5,27.3,21.1,40.9,28.9C82.8,176.8,88.7,180.6,93.7,184.5L93.7,184.5z"/>
		<path id="_409267760_44_" class="st2" d="M19.9,189.7c-4.9-3.7-9.3-7.3-12.7-10.5l26.5-34.6c3.6,3.2,8,6.8,12.8,10.5
			c9,6.9,19.2,13.8,27.7,19c5.9,3.5,11.4,7.2,16.3,10.9c8.6,6.6,13.1,11.7,14.7,13.7l-26.4,34.5c-3.8-4.7-9.9-9.7-14.5-13.3
			c-5.3-4.1-11.3-8.2-16.9-11.5C38.9,203.5,28.9,196.6,19.9,189.7 M18.1,192.1c8.8,6.7,18.9,13.7,27.8,19
			c5.4,3.2,11.3,7.2,16.6,11.3c6.7,5.1,12.5,10.4,15.3,14.6c0.1,0.1,0.2,0.2,0.3,0.3c0.5,0.4,1.3,0.3,1.7-0.2l28.7-37.4
			c0.3-0.4,0.3-1,0-1.4c-0.2-0.3-4.5-6.5-16.2-15.4l0,0c-4.9-3.8-10.5-7.5-16.5-11.1c-8.8-5.2-18.8-12.1-27.4-18.8
			c-5.4-4.1-10.2-8.2-14.1-11.7c0,0-0.1-0.1-0.1-0.1c-0.5-0.4-1.3-0.3-1.7,0.2L3.8,178.7c-0.4,0.5-0.3,1.2,0.1,1.6
			C7.8,183.8,12.7,187.9,18.1,192.1L18.1,192.1z M92.3,182.7L92.3,182.7C92.3,182.7,92.3,182.7,92.3,182.7L92.3,182.7z"/>
		<path id="_409267760_43_" class="st3" d="M17.3,190.6c-5.1-3.9-9.7-7.7-13.4-11.1l29.3-38.2c3.7,3.4,8.4,7.2,13.5,11.1
			c9.5,7.3,20.2,14.6,29.3,19.9c6.3,3.7,12.1,7.6,17.2,11.5c9.1,7,13.7,12.3,15.5,14.5l-29.2,38.1c-4-5-10.3-10.3-15.3-14.1
			c-5.6-4.3-12-8.6-17.9-12.1C37.3,205,26.7,197.8,17.3,190.6 M15.3,193.2c9.3,7.1,19.9,14.4,29.3,19.9c5.7,3.4,11.9,7.5,17.5,11.8
			c7.1,5.4,13.2,11,16.1,15.4c0.1,0.1,0.2,0.2,0.3,0.3c0.5,0.4,1.3,0.3,1.8-0.3l31.7-41.3c0.3-0.4,0.4-1,0.1-1.5
			c-0.2-0.3-4.7-6.9-17-16.3l0,0c-5.2-4-11.1-7.9-17.5-11.7c-9.3-5.5-19.8-12.7-29-19.7c-5.7-4.3-10.8-8.6-14.8-12.3
			c0,0-0.1-0.1-0.1-0.1c-0.5-0.4-1.4-0.3-1.8,0.3L0.3,179c-0.4,0.5-0.4,1.3,0.1,1.7C4.4,184.5,9.6,188.8,15.3,193.2L15.3,193.2z
			 M95.1,181.3L95.1,181.3C95.1,181.3,95.1,181.3,95.1,181.3L95.1,181.3z"/>
		<g>
			<path id="_409267496_22_" class="st4" d="M13.3,184.7c-2-1.6-3.9-3.1-5.7-4.7c-0.4-0.4-0.5-1-0.2-1.5l4.4-5.8
				C16.2,176.5,15.2,182.6,13.3,184.7L13.3,184.7z"/>
			<path id="_409268120_22_" class="st4" d="M29,150.4l4.5-5.8c0.4-0.5,1.1-0.6,1.6-0.2c1.8,1.6,3.7,3.1,5.7,4.7
				C39.1,151.3,33.5,153.6,29,150.4L29,150.4z"/>
			<path id="_409267040_22_" class="st4" d="M100.7,192.7c1.8,1.6,3.6,3.2,5.1,4.9c0.3,0.4,0.4,0.9,0.1,1.3l-4.2,5.5
				C99.3,202.7,97,197,100.7,192.7L100.7,192.7z"/>
			<path id="_409266752_22_" class="st4" d="M84,227.2l-4.4,5.7c-1,1.3-2.4-0.7-4-2.2c-0.9-0.8-1.8-1.7-2.8-2.5
				C75.9,225.1,80.6,224.7,84,227.2L84,227.2z"/>
		</g>
		<path id="_409266968_22_" class="st4" d="M69.2,171.7c9.1,7,10.8,20,3.9,29s-20,10.7-29.1,3.8c-9.1-7-10.8-20-3.9-29
			C47.1,166.4,60.1,164.7,69.2,171.7L69.2,171.7z"/>
		<ellipse transform="matrix(0.6085 -0.7935 0.7935 0.6085 -132.1481 146.0546)" class="st2" cx="82" cy="207" rx="5" ry="5"/>
		<ellipse transform="matrix(0.6085 -0.7935 0.7935 0.6085 -121.2278 91.0396)" class="st2" cx="31.7" cy="168.4" rx="5" ry="5"/>
		<g>
			<path id="_409266824_22_" class="st1" d="M62.5,180.5c4,3.1,1.4,9.6-0.8,7.9c-0.6-0.4-0.7-1.2-0.2-1.8c2.3-3-2.3-6.5-4.6-3.5
				c-3,3.9,6.1,5.8,1.6,11.7c-4.4,5.7-13-1-8.7-6.6c1-1.3,3.1,0.2,2,1.6c-2.3,3,2.3,6.5,4.6,3.5c3-3.9-6.1-5.8-1.6-11.7
				C56.6,179.1,60.1,178.7,62.5,180.5L62.5,180.5z"/>
			<path id="_409267328_22_" class="st1" d="M52.3,193.7c1.3,1-0.2,2.4-1.1,3.6c-1,1.3-3.1-0.2-2-1.6
				C50.1,194.5,51,192.7,52.3,193.7z"/>
			<path id="_409266872_22_" class="st1" d="M63.8,178.7c1.3,1-0.2,2.4-1.1,3.6c-1,1.3-3.1-0.2-2-1.6
				C61.5,179.6,62.5,177.7,63.8,178.7z"/>
		</g>
	</g>
	<g>
		<path id="_409268072_21_" class="st1" d="M291.3,181.7c-4.3,3.2-9.3,7.5-13.1,11.6c-0.4,0.5-0.4,1.2,0,1.8l26.4,35.3
			c1.4,1.9,3-0.7,4.9-2.5c8.2-7.8,18.1-14.5,28.6-20.3c13.1-7.3,28.2-17.6,40.3-27.9c0.5-0.4,0.6-1.3,0.1-1.9L352,142.5
			c-0.5-0.7-1.4-0.8-2-0.4c-12.3,10.4-27.5,20.8-41.2,28.4C302.3,174.2,296.4,177.9,291.3,181.7L291.3,181.7z"/>
		<path id="_409267760_42_" class="st2" d="M365,187.8c-9.1,6.8-19.2,13.5-27.7,18.5c-5.6,3.3-11.7,7.3-17,11.3
			c-4.7,3.5-10.8,8.5-14.7,13.1l-26.1-34.8c1.7-2,6.2-7,14.9-13.5c4.9-3.7,10.4-7.3,16.4-10.7c8.6-5,18.8-11.8,28-18.6
			c4.9-3.7,9.3-7.2,12.9-10.4l26.1,34.9C374.4,180.6,370,184.1,365,187.8 M366.8,190.2c5.5-4.1,10.4-8.1,14.3-11.6
			c0.5-0.4,0.5-1.1,0.2-1.6L353,139.2c-0.4-0.5-1.1-0.6-1.7-0.2c0,0-0.1,0-0.1,0.1c-3.9,3.5-8.8,7.5-14.2,11.5
			c-8.8,6.6-18.8,13.3-27.7,18.4c-6.1,3.5-11.7,7.2-16.7,10.9l0,0c-11.8,8.8-16.2,15-16.3,15.2c-0.3,0.4-0.3,1,0,1.4l28.3,37.7
			c0.4,0.5,1.2,0.6,1.7,0.2c0.1-0.1,0.2-0.2,0.3-0.3c2.9-4.1,8.7-9.3,15.5-14.4c5.4-4,11.3-7.9,16.7-11.1
			C347.7,203.7,357.9,196.8,366.8,190.2L366.8,190.2z M292.7,180C292.7,180,292.7,180,292.7,180L292.7,180L292.7,180z"/>
		<path id="_409267760_41_" class="st3" d="M367.7,188.7c-9.6,7.2-20.2,14.2-29.2,19.4c-5.9,3.4-12.3,7.6-18,11.9
			c-5,3.7-11.4,8.9-15.4,13.9l-28.8-38.4c1.8-2.2,6.5-7.5,15.6-14.4c5.1-3.9,11-7.6,17.3-11.3c9.1-5.2,19.9-12.4,29.5-19.6
			c5.2-3.9,9.8-7.6,13.6-11l28.8,38.5C377.5,181.1,372.9,184.8,367.7,188.7 M369.6,191.3c5.8-4.3,11-8.6,15-12.3
			c0.5-0.4,0.5-1.2,0.1-1.7l-31.2-41.6c-0.4-0.6-1.2-0.7-1.8-0.3c0,0-0.1,0-0.1,0.1c-4.1,3.7-9.2,7.9-14.9,12.2
			c-9.2,6.9-19.8,14-29.2,19.4c-6.4,3.7-12.4,7.5-17.6,11.5l0,0c-12.4,9.3-17,15.9-17.2,16.2c-0.3,0.5-0.3,1.1,0,1.5l31.2,41.6
			c0.4,0.6,1.3,0.7,1.8,0.3c0.1-0.1,0.2-0.2,0.3-0.3c3-4.4,9.1-9.9,16.3-15.2c5.6-4.2,11.9-8.3,17.7-11.6
			C349.5,205.5,360.3,198.3,369.6,191.3L369.6,191.3z M290,178.5C290,178.5,290,178.5,290,178.5L290,178.5L290,178.5z"/>
		<g>
			<path id="_409267496_21_" class="st4" d="M371.7,182.9c2-1.5,3.9-3.1,5.7-4.6c0.4-0.4,0.5-1,0.2-1.5l-4.3-5.8
				C368.9,174.6,369.9,180.7,371.7,182.9L371.7,182.9z"/>
			<path id="_409268120_21_" class="st4" d="M356.4,148.4l-4.4-5.9c-0.4-0.5-1.1-0.6-1.6-0.2c-1.8,1.5-3.8,3.1-5.7,4.6
				C346.3,149.2,351.8,151.5,356.4,148.4L356.4,148.4z"/>
			<path id="_409267040_21_" class="st4" d="M284.3,189.9c-1.8,1.6-3.6,3.2-5.1,4.8c-0.3,0.4-0.4,0.9-0.1,1.3l4.1,5.5
				C285.5,199.9,287.9,194.2,284.3,189.9L284.3,189.9z"/>
			<path id="_409266752_21_" class="st4" d="M300.5,224.5l4.3,5.7c1,1.4,2.4-0.7,4-2.1c0.9-0.8,1.8-1.7,2.8-2.5
				C308.7,222.6,304,222.1,300.5,224.5L300.5,224.5z"/>
		</g>
		<path id="_409266968_21_" class="st4" d="M316,169.2c-9.2,6.9-11,19.9-4.2,29s19.9,11,29,4.1c9.2-6.9,11-19.9,4.2-29
			C338.1,164.2,325.1,162.4,316,169.2L316,169.2z"/>
		<ellipse transform="matrix(0.8004 -0.5995 0.5995 0.8004 -62.0545 222.3427)" class="st2" cx="302.8" cy="204.3" rx="5" ry="5"/>
		<ellipse transform="matrix(0.8003 -0.5995 0.5995 0.8003 -29.142 245.1752)" class="st2" cx="353.5" cy="166.3" rx="5" ry="5"/>
		<g>
			<path id="_409266824_21_" class="st1" d="M322.8,178c4.1-3,9.6,1.4,7.3,3.1c-0.6,0.4-1.4,0.3-1.8-0.3c-2.2-3.1-6.9,0.3-4.7,3.3
				c2.8,4,7.3-4.1,11.6,1.9c4.2,5.8-4.7,12.2-8.9,6.3c-1-1.4,1.1-2.9,2.1-1.5c2.2,3.1,6.9-0.3,4.7-3.3c-2.8-4-7.3,4.1-11.6-1.9
				C319.8,183.1,320.4,179.7,322.8,178L322.8,178z"/>
			<path id="_409267328_21_" class="st1" d="M332.5,191.5c1.3-1,2.2,0.9,3.1,2.1c1,1.4-1.1,2.9-2.1,1.5
				C332.6,193.9,331.1,192.5,332.5,191.5z"/>
			<path id="_409266872_21_" class="st1" d="M321.5,176.2c1.3-1,2.2,0.9,3.1,2.1c1,1.4-1.1,2.9-2.1,1.5
				C321.7,178.6,320.2,177.1,321.5,176.2z"/>
		</g>
	</g>
	<g>
		<g>
			<g>
				<g>
					<path class="st5" d="M249.2,256.7l-117.1,0c-1.5,0-2.8,1.2-2.8,2.8l0,165.8c0,1.6,1.3,2.9,2.9,2.9l116.9,0
						c1.6,0,2.9-1.3,2.9-2.9l0-165.8C252,258,250.7,256.7,249.2,256.7z"/>
				</g>
			</g>
			<g>
				<g>
					<path class="st6" d="M249.2,256.7l-117.1,0c-1.5,0-2.8,1.2-2.8,2.8l0,35.4l58.1,20.1c1-0.4,2.1-0.6,3.3-0.6
						c3.5,0,6.5,1.8,8.2,4.6l15.1,5.2c0,0,0,0,0,0c0-5.4,4.4-9.7,9.7-9.7c5.4,0,9.7,4.4,9.7,9.7c0,2.3-0.8,4.4-2.1,6l20.6,7.1
						l0-77.8C252,258,250.7,256.7,249.2,256.7L249.2,256.7z"/>
				</g>
			</g>
			<g>
				<g>
					<circle class="st7" cx="157.5" cy="324.1" r="9.7"/>
				</g>
			</g>
			<g>
				<g>
					<circle class="st8" cx="190.6" cy="324.1" r="9.7"/>
				</g>
			</g>
			<g>
				<g>
					<path class="st9" d="M223.8,314.4c-5.4,0-9.7,4.4-9.7,9.7c0,5.4,4.4,9.7,9.7,9.7c5.4,0,9.7-4.4,9.7-9.7
						C233.5,318.7,229.1,314.4,223.8,314.4z"/>
				</g>
			</g>
			<g>
				<g>
					<path class="st10" d="M238.8,265.5h-9.5c-2.3,0-4.1,1.8-4.1,4.1s1.8,4.1,4.1,4.1h9.5c2.3,0,4.1-1.8,4.1-4.1
						C242.9,267.4,241.1,265.5,238.8,265.5z"/>
				</g>
			</g>
			<g>
				<g>
					<path class="st5" d="M215.1,287.4l-48.9,0c-2.3,0-4.2,1.9-4.2,4.2s1.9,4.2,4.2,4.2h48.9c2.3,0,4.2-1.9,4.2-4.2
						S217.4,287.4,215.1,287.4z"/>
				</g>
			</g>
			<g>
				<g>
					<path class="st11" d="M215.1,287.4h-7.5v8.5h7.5c2.3,0,4.2-1.9,4.2-4.2S217.4,287.4,215.1,287.4z"/>
				</g>
			</g>
			<g>
				<g>
					<g>
						<path class="st3" d="M249.2,254.9l-117.1,0c-2.5,0-4.6,2.1-4.6,4.6l0,165.8c0,2.6,2.1,4.7,4.7,4.7l116.9,0
							c2.6,0,4.7-2.1,4.7-4.7l0-165.8C253.8,256.9,251.7,254.9,249.2,254.9L249.2,254.9z M250.1,425.3c0,0.6-0.5,1-1,1l-116.9,0
							c-0.6,0-1-0.5-1-1l0-165.8c0-0.5,0.4-0.9,0.9-0.9l117.1,0c0.5,0,0.9,0.4,0.9,0.9L250.1,425.3L250.1,425.3z"/>
					</g>
				</g>
			</g>
			<g>
				<g>
					<path class="st3" d="M215.4,267.8h-4.9c-1,0-1.8,0.8-1.8,1.8s0.8,1.8,1.8,1.8h4.9c1,0,1.8-0.8,1.8-1.8S216.4,267.8,215.4,267.8
						z"/>
				</g>
			</g>
			<g>
				<g>
					<path class="st3" d="M202.3,267.8h-4.9c-1,0-1.8,0.8-1.8,1.8c0,1,0.8,1.8,1.8,1.8h4.9c1,0,1.8-0.8,1.8-1.8
						S203.4,267.8,202.3,267.8z"/>
				</g>
			</g>
			<g>
				<g>
					<path class="st3" d="M189.3,267.8h-4.9c-1,0-1.8,0.8-1.8,1.8c0,1,0.8,1.8,1.8,1.8h4.9c1,0,1.8-0.8,1.8-1.8
						C191.1,268.6,190.3,267.8,189.3,267.8z"/>
				</g>
			</g>
			<g>
				<g>
					<path class="st3" d="M151.4,267.8h-4.9c-1,0-1.8,0.8-1.8,1.8s0.8,1.8,1.8,1.8h4.9c1,0,1.8-0.8,1.8-1.8S152.4,267.8,151.4,267.8
						z"/>
				</g>
			</g>
			<g>
				<g>
					<path class="st3" d="M157,340.7h-7.2c-1,0-1.8,0.8-1.8,1.8s0.8,1.8,1.8,1.8h7.2c1,0,1.8-0.8,1.8-1.8
						C158.9,341.5,158.1,340.7,157,340.7z"/>
				</g>
			</g>
			<g>
				<g>
					<path class="st3" d="M165.1,349.3h-15.3c-1,0-1.8,0.8-1.8,1.8s0.8,1.8,1.8,1.8h15.3c1,0,1.8-0.8,1.8-1.8
						S166.2,349.3,165.1,349.3z"/>
				</g>
			</g>
			<g>
				<g>
					<path class="st3" d="M165.1,356.3h-15.3c-1,0-1.8,0.8-1.8,1.8s0.8,1.8,1.8,1.8l15.3,0c1,0,1.8-0.8,1.8-1.8
						C167,357.2,166.2,356.3,165.1,356.3z"/>
				</g>
			</g>
			<g>
				<g>
					<path class="st3" d="M185,371.7l-23,0c-1,0-1.8,0.8-1.8,1.8c0,1,0.8,1.8,1.8,1.8h23c1,0,1.8-0.8,1.8-1.8S186,371.7,185,371.7z"
						/>
				</g>
			</g>
			<g>
				<g>
					<path class="st3" d="M210.9,380.4H162c-1,0-1.8,0.8-1.8,1.8c0,1,0.8,1.8,1.8,1.8h48.9c1,0,1.8-0.8,1.8-1.8
						S211.9,380.4,210.9,380.4z"/>
				</g>
			</g>
			<g>
				<g>
					<path class="st3" d="M210.9,387.4l-48.9,0c-1,0-1.8,0.8-1.8,1.8c0,1,0.8,1.8,1.8,1.8h48.9c1,0,1.8-0.8,1.8-1.8
						S211.9,387.4,210.9,387.4z"/>
				</g>
			</g>
			<g>
				<g>
					<path class="st3" d="M185,396.9h-23c-1,0-1.8,0.8-1.8,1.8s0.8,1.8,1.8,1.8h23c1,0,1.8-0.8,1.8-1.8
						C186.8,397.7,186,396.9,185,396.9z"/>
				</g>
			</g>
			<g>
				<g>
					<path class="st3" d="M210.9,405.5H162c-1,0-1.8,0.8-1.8,1.8s0.8,1.8,1.8,1.8l48.9,0c1,0,1.8-0.8,1.8-1.8
						C212.7,406.3,211.9,405.5,210.9,405.5z"/>
				</g>
			</g>
			<g>
				<g>
					<path class="st3" d="M210.9,412.5H162c-1,0-1.8,0.8-1.8,1.8s0.8,1.8,1.8,1.8l48.9,0c1,0,1.8-0.8,1.8-1.8
						C212.7,413.4,211.9,412.5,210.9,412.5z"/>
				</g>
			</g>
			<g>
				<g>
					<path class="st3" d="M190.2,340.7H183c-1,0-1.8,0.8-1.8,1.8c0,1,0.8,1.8,1.8,1.8h7.2c1,0,1.8-0.8,1.8-1.8
						C192,341.5,191.2,340.7,190.2,340.7z"/>
				</g>
			</g>
			<g>
				<g>
					<path class="st3" d="M198.3,349.3H183c-1,0-1.8,0.8-1.8,1.8s0.8,1.8,1.8,1.8h15.3c1,0,1.8-0.8,1.8-1.8
						C200.1,350.1,199.3,349.3,198.3,349.3z"/>
				</g>
			</g>
			<g>
				<g>
					<path class="st3" d="M198.3,356.3H183c-1,0-1.8,0.8-1.8,1.8c0,1,0.8,1.8,1.8,1.8h15.3c1,0,1.8-0.8,1.8-1.8
						C200.1,357.2,199.3,356.3,198.3,356.3z"/>
				</g>
			</g>
			<g>
				<g>
					<path class="st3" d="M223.3,340.7h-7.2c-1,0-1.8,0.8-1.8,1.8s0.8,1.8,1.8,1.8h7.2c1,0,1.8-0.8,1.8-1.8S224.3,340.7,223.3,340.7
						z"/>
				</g>
			</g>
			<g>
				<g>
					<path class="st3" d="M231.4,349.3h-15.3c-1,0-1.8,0.8-1.8,1.8c0,1,0.8,1.8,1.8,1.8h15.3c1,0,1.8-0.8,1.8-1.8
						S232.4,349.3,231.4,349.3z"/>
				</g>
			</g>
			<g>
				<g>
					<path class="st3" d="M231.4,356.3l-15.3,0c-1,0-1.8,0.8-1.8,1.8s0.8,1.8,1.8,1.8h15.3c1,0,1.8-0.8,1.8-1.8
						S232.4,356.3,231.4,356.3z"/>
				</g>
			</g>
			<g>
				<g>
					<path class="st3" d="M154.3,372.3c-0.7-0.7-1.9-0.7-2.6,0l-2.9,2.9l-1.3-1.3c-0.7-0.7-1.9-0.7-2.6,0c-0.7,0.7-0.7,1.9,0,2.6
						l2.6,2.6c0.3,0.3,0.8,0.5,1.3,0.5c0.5,0,1-0.2,1.3-0.5l4.2-4.2C155,374.2,155,373,154.3,372.3L154.3,372.3z"/>
				</g>
			</g>
			<g>
				<g>
					<path class="st3" d="M154.3,397.4c-0.7-0.7-1.9-0.7-2.6,0l-2.9,2.9l-1.3-1.3c-0.7-0.7-1.9-0.7-2.6,0c-0.7,0.7-0.7,1.9,0,2.6
						l2.6,2.6c0.3,0.3,0.8,0.5,1.3,0.5c0.5,0,1-0.2,1.3-0.5l4.2-4.2C155,399.3,155,398.1,154.3,397.4L154.3,397.4z"/>
				</g>
			</g>
			<g>
				<g>
					<path class="st3" d="M252.2,335.4l-19.9-6.9c-1-0.3-2,0.2-2.4,1.1c-0.3,1,0.2,2,1.1,2.4l19.9,6.9c0.2,0.1,0.4,0.1,0.6,0.1
						c0.8,0,1.5-0.5,1.7-1.2C253.7,336.8,253.1,335.7,252.2,335.4z"/>
				</g>
			</g>
			<g>
				<g>
					<path class="st3" d="M214.1,322.2l-14.5-5c-1-0.3-2,0.2-2.4,1.1c-0.3,1,0.2,2,1.1,2.4l14.5,5c0.2,0.1,0.4,0.1,0.6,0.1
						c0.8,0,1.5-0.5,1.7-1.2C215.6,323.6,215.1,322.6,214.1,322.2z"/>
				</g>
			</g>
			<g>
				<g>
					<path class="st3" d="M187.6,313.1l-57.3-19.8c-1-0.3-2,0.2-2.4,1.1c-0.3,1,0.2,2,1.1,2.4l57.3,19.8c0.2,0.1,0.4,0.1,0.6,0.1
						c0.8,0,1.5-0.5,1.7-1.2C189.1,314.5,188.6,313.4,187.6,313.1L187.6,313.1z"/>
				</g>
			</g>
			<g>
				<g>
					<g>
						<path class="st3" d="M157.5,312.5c-6.4,0-11.6,5.2-11.6,11.6c0,6.4,5.2,11.6,11.6,11.6s11.6-5.2,11.6-11.6
							S163.9,312.5,157.5,312.5z M157.5,332c-4.4,0-7.9-3.5-7.9-7.9c0-4.4,3.5-7.9,7.9-7.9c4.4,0,7.9,3.5,7.9,7.9
							C165.4,328.5,161.9,332,157.5,332z"/>
					</g>
				</g>
			</g>
			<g>
				<g>
					<g>
						<path class="st3" d="M190.6,312.5c-6.4,0-11.6,5.2-11.6,11.6c0,6.4,5.2,11.6,11.6,11.6s11.6-5.2,11.6-11.6
							C202.2,317.7,197,312.5,190.6,312.5z M190.6,332c-4.4,0-7.9-3.5-7.9-7.9c0-4.4,3.5-7.9,7.9-7.9s7.9,3.5,7.9,7.9
							C198.5,328.5,195,332,190.6,332z"/>
					</g>
				</g>
			</g>
			<g>
				<g>
					<g>
						<path class="st3" d="M223.8,312.5c-6.4,0-11.6,5.2-11.6,11.6c0,6.4,5.2,11.6,11.6,11.6c6.4,0,11.6-5.2,11.6-11.6
							C235.4,317.7,230.2,312.5,223.8,312.5z M223.8,332c-4.4,0-7.9-3.5-7.9-7.9c0-4.4,3.5-7.9,7.9-7.9c4.4,0,7.9,3.5,7.9,7.9
							C231.7,328.5,228.1,332,223.8,332z"/>
					</g>
				</g>
			</g>
			<g>
				<g>
					<g>
						<path class="st3" d="M238.8,263.7h-9.5c-3.3,0-6,2.7-6,6c0,3.3,2.7,6,6,6h9.5c3.3,0,6-2.7,6-6
							C244.7,266.4,242.1,263.7,238.8,263.7L238.8,263.7z M238.8,271.9h-9.5c-1.2,0-2.3-1-2.3-2.3c0-1.2,1-2.3,2.3-2.3h9.5
							c1.2,0,2.3,1,2.3,2.3C241,270.9,240,271.9,238.8,271.9z"/>
					</g>
				</g>
			</g>
			<g>
				<g>
					<g>
						<path class="st3" d="M215.1,285.6h-48.9c-3.4,0-6.1,2.7-6.1,6.1s2.7,6.1,6.1,6.1l48.9,0c3.4,0,6.1-2.7,6.1-6.1
							C221.2,288.3,218.5,285.6,215.1,285.6z M215.1,294l-48.9,0c-1.3,0-2.4-1.1-2.4-2.4c0-1.3,1.1-2.4,2.4-2.4l48.9,0
							c1.3,0,2.4,1.1,2.4,2.4C217.5,293,216.4,294,215.1,294z"/>
					</g>
				</g>
			</g>
			<g>
				<g>
					<path class="st3" d="M207.6,286.3c-1,0-1.8,0.8-1.8,1.8v7.2c0,1,0.8,1.8,1.8,1.8c1,0,1.8-0.8,1.8-1.8v-7.2
						C209.4,287.1,208.6,286.3,207.6,286.3z"/>
				</g>
			</g>
		</g>
		<g id="Layer_x0020_1_2_">
			<g id="_203353928_1_">
				<g>
					<g>
						<path id="_203355656_1_" class="st12" d="M233.2,210.6h-85c-2.1,0-3.8-1.7-3.8-3.8v-88.2c0-2.1,1.7-3.8,3.8-3.8
							c7.8,0,14.2-7.4,14.2-16.5c0-2.1,1.7-3.8,3.8-3.8h49.1c2.1,0,3.8,1.7,3.8,3.8c0,9.1,6.4,16.5,14.2,16.5c2.1,0,3.8,1.7,3.8,3.8
							v88.2C237,208.9,235.3,210.6,233.2,210.6L233.2,210.6z M152,203.1h77.4v-81c-9.1-1.8-16.3-9.8-17.7-19.9l-42,0
							c-1.5,10.1-8.6,18.1-17.7,19.9L152,203.1L152,203.1z"/>
					</g>
					<g>
						<path id="_203356352_1_" class="st12" d="M185.1,162.8c-5.2,0-9.5-4.6-9.5-10.2c0-3,1.2-5.9,3.4-7.8c1.6-1.4,4-1.3,5.3,0.3
							c1.4,1.6,1.3,4-0.3,5.3c-0.6,0.5-0.9,1.3-0.9,2.2c0,1.4,0.9,2.6,1.9,2.6c1.1,0,1.3,0,2-3.4c0.7-3.3,2-9.4,9.4-9.4
							c5.2,0,9.5,4.6,9.5,10.2c0,3-1.2,5.9-3.4,7.8c-1.6,1.4-4,1.3-5.3-0.3c-1.4-1.6-1.3-4,0.3-5.3c0.6-0.5,0.9-1.3,0.9-2.2
							c0-1.4-0.9-2.6-1.9-2.6c-1.1,0-1.3,0-2,3.4C193.7,156.7,192.5,162.8,185.1,162.8L185.1,162.8z"/>
					</g>
					<g>
						<path id="_203355992_1_" class="st12" d="M179.4,156.4H175c-2.1,0-3.8-1.7-3.8-3.8c0-2.1,1.7-3.8,3.8-3.8h4.4
							c2.1,0,3.8,1.7,3.8,3.8C183.2,154.7,181.5,156.4,179.4,156.4z"/>
					</g>
					<g>
						<path id="_203355512_1_" class="st12" d="M206.4,156.4h-4.4c-2.1,0-3.8-1.7-3.8-3.8c0-2.1,1.7-3.8,3.8-3.8h4.4
							c2.1,0,3.8,1.7,3.8,3.8C210.2,154.7,208.5,156.4,206.4,156.4z"/>
					</g>
					<g>
						<path id="_203355392_1_" class="st12" d="M190.7,186c-16.6,0-30.1-15-30.1-33.4c0-18.4,13.5-33.4,30.1-33.4s30.1,15,30.1,33.4
							C220.8,171,207.3,186,190.7,186z M190.7,126.8c-12.4,0-22.5,11.6-22.5,25.8c0,14.2,10.1,25.8,22.5,25.8s22.5-11.6,22.5-25.8
							C213.3,138.4,203.2,126.8,190.7,126.8z"/>
					</g>
					<g>
						<path id="_203355296_1_" class="st12" d="M250,210.6H131.4c-2.1,0-3.8-1.7-3.8-3.8V79.5c0-2.1,1.7-3.8,3.8-3.8H250
							c2.1,0,3.8,1.7,3.8,3.8v127.4C253.8,208.9,252.1,210.6,250,210.6z M135.2,203.1h111V83.3h-111V203.1z"/>
					</g>
					<g>
						<path id="_203354888_1_" class="st12" d="M276.6,331.2h-18.9c-2.1,0-3.8-1.7-3.8-3.8v-17.5H127.5v17.5c0,2.1-1.7,3.8-3.8,3.8
							h-19.1c-2.1,0-3.8-1.7-3.8-3.8v-42.6c0-2.1,1.7-3.8,3.8-3.8h172c2.1,0,3.8,1.7,3.8,3.8v42.6
							C280.4,329.5,278.7,331.2,276.6,331.2L276.6,331.2z M261.6,323.6h11.3v-35l-164.4,0v35l11.5,0v-17.5c0-2.1,1.7-3.8,3.8-3.8
							l134.1,0c2.1,0,3.8,1.7,3.8,3.8V323.6L261.6,323.6z"/>
					</g>
					<g>
						<path id="_203355200_1_" class="st12" d="M278.3,210.6H250c-2.1,0-3.8-1.7-3.8-3.8v-74c0-2.1,1.7-3.8,3.8-3.8h4.2
							c15.3,0,27.8,12.5,27.8,27.8v50C282,208.9,280.3,210.6,278.3,210.6L278.3,210.6z M253.8,203.1h20.6v-46.2
							c0-11.1-9.1-20.2-20.2-20.2l-0.5,0L253.8,203.1L253.8,203.1L253.8,203.1z M131.4,210.6h-28.2c-2.1,0-3.8-1.7-3.8-3.8V157
							c0-15.4,12.5-27.9,27.9-27.9h4.1c2.1,0,3.8,1.7,3.8,3.8v74C135.2,208.9,133.5,210.6,131.4,210.6L131.4,210.6z M107,203.1h20.7
							v-66.4h-0.3c-11.2,0-20.3,9.1-20.3,20.3L107,203.1L107,203.1z"/>
					</g>
					<g>
						<g>
							<path id="_203354072_1_" class="st12" d="M249.4,270.1c-8.1,0-14.8-6.6-14.8-14.8c0-8.1,6.6-14.8,14.8-14.8
								c8.1,0,14.8,6.6,14.8,14.8C264.2,263.4,257.6,270.1,249.4,270.1z M249.4,248.1c-4,0-7.2,3.2-7.2,7.2s3.2,7.2,7.2,7.2
								c4,0,7.2-3.2,7.2-7.2C256.6,251.3,253.4,248.1,249.4,248.1z"/>
						</g>
						<g>
							<path id="_203354528_1_" class="st12" d="M283.8,270.1c-8.1,0-14.8-6.6-14.8-14.8c0-8.1,6.6-14.8,14.8-14.8
								c8.1,0,14.8,6.6,14.8,14.8C298.6,263.4,292,270.1,283.8,270.1z M283.8,248.1c-4,0-7.2,3.2-7.2,7.2c0,4,3.2,7.2,7.2,7.2
								c4,0,7.2-3.2,7.2-7.2C291,251.3,287.8,248.1,283.8,248.1z"/>
						</g>
						<g>
							<path id="_203354432_1_" class="st12" d="M215,270.1c-8.1,0-14.8-6.6-14.8-14.8c0-8.1,6.6-14.8,14.8-14.8
								c8.1,0,14.8,6.6,14.8,14.8C229.8,263.4,223.1,270.1,215,270.1L215,270.1z M215,248.1c-4,0-7.2,3.2-7.2,7.2s3.2,7.2,7.2,7.2
								c4,0,7.2-3.2,7.2-7.2C222.2,251.3,219,248.1,215,248.1L215,248.1z"/>
						</g>
						<g>
							<path id="_203354288_1_" class="st12" d="M164.6,259.1H86.7c-2.1,0-3.8-1.7-3.8-3.8s1.7-3.8,3.8-3.8h77.9
								c2.1,0,3.8,1.7,3.8,3.8C168.4,257.4,166.7,259.1,164.6,259.1z"/>
						</g>
					</g>
					<g>
						<path id="_203354240_1_" class="st12" d="M324.2,331.2h-66.5c-2.1,0-3.8-1.7-3.8-3.8v-17.5H127.5v17.5c0,2.1-1.7,3.8-3.8,3.8
							H57.2c-7.6,0-13.8-6.2-13.8-13.9V216.9c0-7.6,6.2-13.8,13.8-13.8h267c7.6,0,13.8,6.2,13.8,13.8v100.4
							C338.1,325,331.9,331.2,324.2,331.2L324.2,331.2z M261.6,323.6h62.7c3.5,0,6.3-2.8,6.3-6.3V216.9c0-3.5-2.8-6.3-6.3-6.3h-267
							c-3.5,0-6.3,2.8-6.3,6.3v100.4c0,3.5,2.8,6.3,6.3,6.3l62.7,0v-17.5c0-2.1,1.7-3.8,3.8-3.8h134.1c2.1,0,3.8,1.7,3.8,3.8
							L261.6,323.6L261.6,323.6z"/>
					</g>
					<g>
						<path id="_203354360_1_" class="st12" d="M315.4,312.3h-38.7c-2.1,0-3.8-1.7-3.8-3.8v-19.9H108.4v19.9c0,2.1-1.7,3.8-3.8,3.8
							H66.1c-2.1,0-3.8-1.7-3.8-3.8v-82.7c0-2.1,1.7-3.8,3.8-3.8h249.3c2.1,0,3.8,1.7,3.8,3.8v82.7
							C319.2,310.6,317.5,312.3,315.4,312.3L315.4,312.3z M280.5,304.7h31.1v-75.2H69.9v75.2h31v-19.9c0-2.1,1.7-3.8,3.8-3.8l172,0
							c2.1,0,3.8,1.7,3.8,3.8v1.7c0,0.2,0.1,0.4,0.1,0.6L280.5,304.7L280.5,304.7z"/>
					</g>
				</g>
			</g>
			<path class="st13" d="M152,203.1h77.4v-81c-9.1-1.8-16.3-9.8-17.7-19.9l-42,0c-1.5,10.1-8.6,18.1-17.7,19.9L152,203.1L152,203.1z
				 M190.7,186c-16.6,0-30.1-15-30.1-33.4c0-18.4,13.5-33.4,30.1-33.4s30.1,15,30.1,33.4C220.8,171,207.3,186,190.7,186L190.7,186z"
				/>
			<path class="st14" d="M219.1,98.4c0,9.1,6.4,16.5,14.2,16.5c2.1,0,3.8,1.7,3.8,3.8v84.4h9.2l0-70.2l0-49.6h-111v49.6v70.2h9.2
				v-84.4c0-2.1,1.7-3.8,3.8-3.8c7.8,0,14.2-7.4,14.2-16.5c0-2.1,1.7-3.8,3.8-3.8h49.1C217.4,94.6,219.1,96.3,219.1,98.4L219.1,98.4
				z"/>
			<path class="st14" d="M213.3,152.6c0-14.2-10.1-25.8-22.5-25.8c-12.4,0-22.5,11.6-22.5,25.8c0,14.2,10.1,25.8,22.5,25.8
				S213.3,166.9,213.3,152.6z M196.4,142.5c4,0,7.4,2.6,8.8,6.4h1.3c2.1,0,3.8,1.7,3.8,3.8c0,2.1-1.7,3.8-3.8,3.8h-1.3
				c-0.6,1.6-1.5,2.9-2.7,4c-1.6,1.4-4,1.3-5.3-0.3c-1.4-1.6-1.3-4,0.3-5.3c0.6-0.5,0.9-1.3,0.9-2.2c0-1.4-0.9-2.6-1.9-2.6
				c-1.1,0-1.3,0-2,3.4c-0.7,3.3-2,9.4-9.4,9.4c-4,0-7.4-2.6-8.8-6.4H175c-2.1,0-3.8-1.7-3.8-3.8c0-2.1,1.7-3.8,3.8-3.8h1.3
				c0.6-1.6,1.5-2.9,2.7-4c1.6-1.4,4-1.3,5.3,0.3c1.4,1.6,1.3,4-0.3,5.3c-0.5,0.5-0.9,1.3-0.9,2.1c0,0,0,0,0,0.1c0,0,0,0,0,0.1
				c0,1.4,0.9,2.5,1.9,2.5c1.1,0,1.3,0,2-3.4C187.7,148.6,189,142.5,196.4,142.5L196.4,142.5z"/>
			<path class="st15" d="M127.7,203.1v-66.4h-0.3c-11.2,0-20.3,9.1-20.3,20.3l0,46.1H127.7L127.7,203.1z"/>
			<path class="st15" d="M253.8,136.6v66.4h20.7v-46.2c0-11.1-9.1-20.2-20.2-20.2L253.8,136.6L253.8,136.6z"/>
			<path class="st16" d="M278.3,210.6H250h-16.8h-85h-16.8h-28.2h-46c-3.5,0-6.3,2.8-6.3,6.3v100.4c0,3.5,2.8,6.3,6.3,6.3l43.6,0
				v-11.4H66.1c-2.1,0-3.8-1.7-3.8-3.8v-82.7c0-2.1,1.7-3.8,3.8-3.8h249.3c2.1,0,3.8,1.7,3.8,3.8v82.7c0,2.1-1.7,3.8-3.8,3.8h-35
				v11.3h43.8c3.5,0,6.3-2.8,6.3-6.3V216.9c0-3.5-2.8-6.3-6.3-6.3L278.3,210.6L278.3,210.6z"/>
			<path class="st17" d="M272.8,288.6l-164.4,0v19.9v15.1l11.5,0v-17.5c0-2.1,1.7-3.8,3.8-3.8h134.1c2.1,0,3.8,1.7,3.8,3.8v17.5
				h11.3V288.6L272.8,288.6z"/>
			<path class="st15" d="M104.6,281l172,0c2.1,0,3.8,1.7,3.8,3.8v1.7c0,0.2,0.1,0.4,0.1,0.6l0,17.5h31.1v-75.2H69.9v75.2h31v-19.9
				C100.8,282.7,102.5,281,104.6,281L104.6,281z M215,270.1c-8.1,0-14.8-6.6-14.8-14.8c0-8.1,6.6-14.8,14.8-14.8
				c8.1,0,14.8,6.6,14.8,14.8C229.8,263.4,223.1,270.1,215,270.1z M164.6,259.1H86.7c-2.1,0-3.8-1.7-3.8-3.8s1.7-3.8,3.8-3.8h77.9
				c2.1,0,3.8,1.7,3.8,3.8C168.4,257.4,166.7,259.1,164.6,259.1z M249.4,270.1c-8.1,0-14.8-6.6-14.8-14.8c0-8.1,6.6-14.8,14.8-14.8
				c8.1,0,14.8,6.6,14.8,14.8C264.2,263.4,257.6,270.1,249.4,270.1z M283.8,270.1c-8.1,0-14.8-6.6-14.8-14.8
				c0-8.1,6.6-14.8,14.8-14.8c8.1,0,14.8,6.6,14.8,14.8C298.6,263.4,292,270.1,283.8,270.1z"/>
			<path class="st18" d="M207.8,255.3c0,4,3.2,7.2,7.2,7.2c4,0,7.2-3.2,7.2-7.2c0-4-3.2-7.2-7.2-7.2
				C211,248.1,207.8,251.3,207.8,255.3z"/>
			<path class="st19" d="M249.4,248.1c-4,0-7.2,3.2-7.2,7.2s3.2,7.2,7.2,7.2c4,0,7.2-3.2,7.2-7.2
				C256.6,251.3,253.4,248.1,249.4,248.1z"/>
			<path class="st20" d="M283.8,248.1c-4,0-7.2,3.2-7.2,7.2c0,4,3.2,7.2,7.2,7.2c4,0,7.2-3.2,7.2-7.2
				C291,251.3,287.8,248.1,283.8,248.1z"/>
		</g>
	</g>
	<g>
		<g>
			<path class="st21" d="M269.1,4.8c-2.4-0.4-4.3-2.3-4.8-4.7c0-0.1-0.2-0.1-0.2,0c-0.5,2.4-2.4,4.3-4.8,4.7c-0.1,0-0.1,0.2,0,0.2
				c2.4,0.4,4.3,2.3,4.8,4.7c0,0.1,0.2,0.1,0.2,0c0.5-2.4,2.4-4.3,4.8-4.7C269.2,5,269.2,4.8,269.1,4.8z"/>
		</g>
	</g>
	<g>
		<g>
			<path class="st22" d="M226.7,63.1c-3.5-0.6-6.2-3.3-6.9-6.7c0-0.2-0.3-0.2-0.3,0c-0.7,3.4-3.4,6.1-6.9,6.7c-0.2,0-0.2,0.2,0,0.3
				c3.5,0.6,6.2,3.3,6.9,6.7c0,0.2,0.3,0.2,0.3,0c0.7-3.4,3.4-6.1,6.9-6.7C226.9,63.3,226.9,63.1,226.7,63.1z"/>
		</g>
	</g>
	<g>
		<g>
			<path class="st23" d="M207.6,20.7c-1.5,0-2.6,1.2-2.6,2.6c0,1.5,1.2,2.6,2.6,2.6s2.6-1.2,2.6-2.6C210.2,21.9,209,20.7,207.6,20.7
				z"/>
		</g>
	</g>
	<g>
		<g>
			<path class="st11" d="M117.3,11.9h-1.8v-1.8c0-1.3-1.1-2.5-2.5-2.5s-2.5,1.1-2.5,2.5v1.8h-1.8c-1.3,0-2.5,1.1-2.5,2.5
				s1.1,2.5,2.5,2.5h1.8v1.8c0,1.3,1.1,2.5,2.5,2.5s2.5-1.1,2.5-2.5v-1.8h1.8c1.3,0,2.5-1.1,2.5-2.5S118.7,11.9,117.3,11.9z"/>
		</g>
	</g>
	<g>
		<g>
			<path class="st22" d="M143.4,34.7c-1.5,0-2.6,1.2-2.6,2.6c0,1.5,1.2,2.6,2.6,2.6s2.6-1.2,2.6-2.6
				C146.1,35.9,144.9,34.7,143.4,34.7z"/>
		</g>
	</g>
	<g>
		<path id="_409268072_20_" class="st1" d="M102.1,80.7c3.3,4.2,7.1,9.7,9.6,14.6c0.3,0.6,0.1,1.3-0.5,1.7l-34.7,27.1
			c-1.8,1.4-2.7-1.5-4.1-3.7c-5.9-9.6-13.7-18.7-22.3-27.1C39.4,83,27.6,69.1,18.6,56c-0.4-0.6-0.2-1.4,0.4-1.9l34.8-27.2
			c0.7-0.5,1.6-0.4,2,0.2C65,40.4,76.9,54.4,88.2,65.3C93.5,70.5,98.2,75.7,102.1,80.7L102.1,80.7z"/>
		<path id="_409267760_40_" class="st2" d="M29.4,67.3c-3.8-4.9-7.1-9.4-9.7-13.3L54,27.1c2.6,4,6,8.6,9.8,13.4
			c7,9,15.1,18.2,22.1,25.3c4.9,4.9,9.2,9.8,13,14.6c6.7,8.5,9.7,14.6,10.8,17l-34.2,26.8c-2.5-5.5-7.1-11.9-10.7-16.5
			c-4.1-5.3-8.9-10.7-13.5-15.4C44.3,85.3,36.4,76.2,29.4,67.3 M27.1,69.1c6.8,8.7,14.9,18,22.1,25.3c4.4,4.5,9.1,9.8,13.3,15.1
			c5.2,6.7,9.5,13.2,11.2,17.9c0,0.1,0.1,0.2,0.2,0.3c0.4,0.5,1.1,0.6,1.7,0.2l37.1-29c0.4-0.3,0.6-0.8,0.4-1.3
			c-0.1-0.3-2.7-7.4-11.8-19l0,0c-3.8-4.9-8.3-9.9-13.2-14.9c-7.2-7.3-15.1-16.4-21.9-25c-4.2-5.3-7.9-10.5-10.7-14.8
			c0,0,0-0.1-0.1-0.1c-0.4-0.5-1.2-0.6-1.7-0.2l-37.1,29c-0.5,0.4-0.6,1.1-0.3,1.6C19.1,58.5,22.9,63.7,27.1,69.1L27.1,69.1z
			 M101.2,78.6L101.2,78.6C101.2,78.6,101.2,78.6,101.2,78.6L101.2,78.6z"/>
		<path id="_409267760_39_" class="st3" d="M26.6,67.4c-4-5.1-7.5-9.9-10.2-14.1l37.9-29.6c2.8,4.2,6.3,9.1,10.3,14.2
			c7.4,9.5,15.9,19.2,23.4,26.6c5.2,5.2,9.8,10.3,13.7,15.4c7,9,10.2,15.4,11.3,17.9l-37.8,29.5c-2.6-5.8-7.4-12.6-11.2-17.4
			c-4.4-5.6-9.4-11.3-14.3-16.1C42.4,86.5,33.9,76.9,26.6,67.4 M24,69.4c7.2,9.2,15.7,19,23.4,26.6c4.7,4.7,9.7,10.3,14,15.9
			c5.5,7,10,14,11.7,19c0,0.1,0.1,0.3,0.2,0.4c0.4,0.5,1.2,0.7,1.8,0.2l41-32c0.4-0.3,0.6-0.9,0.4-1.4c-0.1-0.3-2.8-7.8-12.3-20.1
			l0,0c-4-5.2-8.7-10.4-14-15.7c-7.6-7.6-16-17.2-23.1-26.3c-4.4-5.6-8.3-11-11.2-15.7c0,0,0-0.1-0.1-0.1c-0.4-0.5-1.2-0.6-1.8-0.2
			l-41,32c-0.5,0.4-0.7,1.1-0.3,1.7C15.7,58.3,19.6,63.8,24,69.4L24,69.4z M104.2,77.9L104.2,77.9C104.2,77.9,104.2,77.9,104.2,77.9
			L104.2,77.9z"/>
		<g>
			<path id="_409267496_20_" class="st4" d="M24.2,60.8c-1.5-2-3-4-4.3-6c-0.3-0.5-0.2-1.1,0.2-1.5l5.7-4.5
				C29.1,53.5,26.6,59.2,24.2,60.8L24.2,60.8z"/>
			<path id="_409268120_20_" class="st4" d="M48,31.5l5.8-4.5c0.5-0.4,1.2-0.3,1.6,0.2c1.4,2,2.8,3.9,4.3,5.9
				C57.6,34.9,51.6,35.7,48,31.5L48,31.5z"/>
			<path id="_409267040_20_" class="st4" d="M106.8,90.4c1.3,2,2.6,4,3.7,6c0.2,0.4,0.1,1-0.3,1.3l-5.4,4.3
				C103,99.8,102.2,93.6,106.8,90.4L106.8,90.4z"/>
			<path id="_409266752_20_" class="st4" d="M82.1,119.6l-5.6,4.4c-1.3,1-2.2-1.3-3.3-3.1c-0.7-1-1.3-2.1-2-3.1
				C74.7,115.6,79.3,116.4,82.1,119.6L82.1,119.6z"/>
		</g>
		<path id="_409266968_20_" class="st4" d="M81.6,62.2c7,9,5.5,22.1-3.5,29.1c-9,7-22,5.4-29.1-3.6c-7-9-5.5-22.1,3.5-29.1
			C61.5,51.5,74.6,53.2,81.6,62.2L81.6,62.2z"/>
		<ellipse transform="matrix(0.7879 -0.6158 0.6158 0.7879 -43.2284 73.5238)" class="st2" cx="85.1" cy="99.5" rx="5" ry="5"/>
		<ellipse transform="matrix(0.7879 -0.6158 0.6158 0.7879 -20.7518 38.8958)" class="st2" cx="46.1" cy="49.6" rx="5" ry="5"/>
		<g>
			<path id="_409266824_20_" class="st1" d="M72.9,69c3.1,4-1,9.6-2.7,7.4c-0.4-0.6-0.3-1.4,0.2-1.8c3-2.3-0.6-6.9-3.6-4.5
				c-3.8,3,4.4,7.1-1.4,11.7c-5.6,4.4-12.4-4.2-6.7-8.6c1.3-1,2.9,1,1.6,2c-3,2.3,0.6,6.9,3.6,4.5c3.8-3-4.4-7.1,1.4-11.7
				C67.6,66.2,71,66.6,72.9,69L72.9,69z"/>
			<path id="_409267328_20_" class="st1" d="M59.8,79.2c1,1.3-0.8,2.3-2,3.2c-1.3,1-2.9-1-1.6-2C57.4,79.5,58.7,77.9,59.8,79.2z"/>
			<path id="_409266872_20_" class="st1" d="M74.6,67.6c1,1.3-0.8,2.3-2,3.2c-1.3,1-2.9-1-1.6-2C72.2,67.9,73.6,66.3,74.6,67.6z"/>
		</g>
	</g>
	<g>
		<path id="_409268072_19_" class="st1" d="M276.9,81.9c-3.3,4.2-7.1,9.7-9.6,14.6c-0.3,0.6-0.1,1.3,0.5,1.7l34.7,27.1
			c1.8,1.4,2.7-1.5,4.1-3.7c5.9-9.6,13.7-18.7,22.3-27.1c10.8-10.5,22.6-24.4,31.6-37.4c0.4-0.6,0.2-1.4-0.4-1.9l-34.8-27.2
			c-0.7-0.5-1.6-0.4-2,0.2c-9.2,13.2-21.1,27.3-32.4,38.2C285.5,71.7,280.8,76.9,276.9,81.9L276.9,81.9z"/>
		<path id="_409267760_38_" class="st2" d="M349.6,68.5c-7,8.9-15,18.1-21.9,25.1c-4.6,4.6-9.4,10.1-13.5,15.4
			c-3.6,4.6-8.2,11-10.7,16.5l-34.2-26.8c1.1-2.4,4.2-8.4,10.8-17c3.8-4.8,8.1-9.7,13-14.6c7-7.1,15.1-16.3,22.1-25.3
			c3.8-4.8,7.1-9.4,9.8-13.4l34.4,26.8C356.7,59.1,353.4,63.6,349.6,68.5 M351.9,70.3c4.2-5.4,7.9-10.6,10.8-14.9
			c0.3-0.5,0.2-1.2-0.3-1.6l-37.1-29c-0.5-0.4-1.3-0.3-1.7,0.2c0,0,0,0.1-0.1,0.1c-2.8,4.4-6.5,9.5-10.7,14.8
			c-6.7,8.6-14.7,17.7-21.9,25c-4.9,5-9.4,10-13.2,14.9l0,0c-9.1,11.6-11.7,18.7-11.8,19c-0.2,0.5,0,1,0.4,1.3l37.1,29
			c0.5,0.4,1.3,0.3,1.7-0.2c0.1-0.1,0.1-0.2,0.2-0.3c1.7-4.7,6-11.3,11.2-17.9c4.1-5.3,8.8-10.6,13.3-15.1
			C337.1,88.3,345.1,79,351.9,70.3L351.9,70.3z M277.8,79.8C277.8,79.8,277.8,79.8,277.8,79.8L277.8,79.8L277.8,79.8z"/>
		<path id="_409267760_37_" class="st3" d="M352.4,68.6c-7.4,9.4-15.8,19-23.1,26.3c-4.8,4.8-9.9,10.6-14.3,16.1
			c-3.8,4.9-8.6,11.6-11.2,17.4L266,99c1.1-2.6,4.3-8.9,11.3-17.9c4-5.1,8.6-10.2,13.7-15.4c7.5-7.4,16-17.1,23.4-26.6
			c4-5.1,7.5-9.9,10.3-14.2l37.9,29.6C359.9,58.7,356.4,63.5,352.4,68.6 M355,70.6c4.4-5.7,8.4-11.1,11.3-15.8
			c0.3-0.5,0.2-1.3-0.3-1.7l-41-32c-0.6-0.4-1.4-0.3-1.8,0.2c0,0,0,0.1-0.1,0.1c-2.9,4.6-6.8,10-11.2,15.7
			c-7.1,9.1-15.5,18.7-23.1,26.3c-5.2,5.2-10,10.5-14,15.7l0,0c-9.6,12.2-12.2,19.8-12.3,20.1c-0.2,0.5,0,1.1,0.4,1.4l41,32
			c0.6,0.5,1.4,0.3,1.8-0.2c0.1-0.1,0.1-0.2,0.2-0.4c1.7-5,6.2-11.9,11.7-19c4.3-5.6,9.3-11.2,14-15.9
			C339.3,89.6,347.8,79.9,355,70.6L355,70.6z M274.8,79.1C274.8,79.1,274.8,79.1,274.8,79.1L274.8,79.1L274.8,79.1z"/>
		<g>
			<path id="_409267496_19_" class="st4" d="M354.8,62c1.5-2,3-4,4.3-6c0.3-0.5,0.2-1.1-0.2-1.5l-5.7-4.5
				C349.9,54.7,352.4,60.4,354.8,62L354.8,62z"/>
			<path id="_409268120_19_" class="st4" d="M331,32.7l-5.8-4.5c-0.5-0.4-1.2-0.3-1.6,0.2c-1.4,2-2.8,3.9-4.3,5.9
				C321.4,36.1,327.4,36.9,331,32.7L331,32.7z"/>
			<path id="_409267040_19_" class="st4" d="M272.2,91.6c-1.3,2-2.6,4-3.7,6c-0.2,0.4-0.1,1,0.3,1.3l5.4,4.3
				C276,101,276.9,94.8,272.2,91.6L272.2,91.6z"/>
			<path id="_409266752_19_" class="st4" d="M296.9,120.8l5.6,4.4c1.3,1,2.2-1.3,3.3-3.1c0.7-1,1.3-2.1,2-3.1
				C304.3,116.8,299.7,117.6,296.9,120.8L296.9,120.8z"/>
		</g>
		<path id="_409266968_19_" class="st4" d="M297.4,63.4c-7,9-5.5,22.1,3.5,29.1c9,7,22,5.4,29.1-3.6c7-9,5.5-22.1-3.5-29.1
			C317.5,52.7,304.4,54.4,297.4,63.4L297.4,63.4z"/>
		<ellipse transform="matrix(0.6158 -0.7879 0.7879 0.6158 33.5566 270.2506)" class="st2" cx="293.9" cy="100.7" rx="5" ry="5"/>
		<ellipse transform="matrix(0.6158 -0.7879 0.7879 0.6158 87.9076 281.818)" class="st2" cx="332.9" cy="50.8" rx="5" ry="5"/>
		<g>
			<path id="_409266824_19_" class="st1" d="M306.3,70c3.2-3.9,9.6-1.1,7.8,1c-0.5,0.5-1.3,0.6-1.8,0.2c-2.9-2.4-6.6,2.1-3.7,4.5
				c3.8,3.1,6-5.9,11.7-1.2c5.5,4.5-1.4,13-6.9,8.4c-1.3-1.1,0.3-3.1,1.6-2c2.9,2.4,6.6-2.1,3.7-4.5c-3.8-3.1-6,5.9-11.7,1.2
				C304.7,75.8,304.4,72.4,306.3,70L306.3,70z"/>
			<path id="_409267328_19_" class="st1" d="M319.1,80.6c1-1.3,2.4,0.3,3.5,1.2c1.3,1.1-0.3,3.1-1.6,2
				C319.9,82.9,318.1,81.9,319.1,80.6z"/>
			<path id="_409266872_19_" class="st1" d="M304.6,68.6c1-1.3,2.4,0.3,3.5,1.2c1.3,1.1-0.3,3.1-1.6,2
				C305.3,70.9,303.5,69.9,304.6,68.6z"/>
		</g>
	</g>
</g>
</svg>
