<?xml version="1.0" encoding="utf-8"?>
<!-- Generator: Adobe Illustrator 25.0.0, SVG Export Plug-In . SVG Version: 6.00 Build 0)  -->
<svg version="1.1" id="Layer_1" xmlns="http://www.w3.org/2000/svg" xmlns:xlink="http://www.w3.org/1999/xlink" x="0px" y="0px"
	 viewBox="0 0 130 535.6" style="enable-background:new 0 0 130 535.6;" xml:space="preserve">
<style type="text/css">
	.st0{fill:#F4F4F4;}
	.st1{fill:#E8E8E8;}
	.st2{fill:#5994CE;}
	.st3{fill:#4C7EB0;}
	.st4{fill:#FA5D72;}
	.st5{fill:#F6D867;}
	.st6{fill:#2CAB72;}
	.st7{fill:#35414D;}
	.st8{fill:#FFE27A;}
	.st9{fill:#F9CF58;}
	.st10{fill:#8BCAFF;}
	.st11{fill:#98DB7C;}
	.st12{fill:#82D361;}
	.st13{fill:#6CC4FF;}
	.st14{fill:#FFBA57;}
	.st15{fill:#FFAC3E;}
	.st16{fill:#FD646F;}
	.st17{fill:#CC5266;}
	.st18{fill:#07BEEF;}
	.st19{fill:#FC635B;}
	.st20{fill:#7EC927;}
	.st21{fill:#FFA733;}
	.st22{fill:#00B6E0;}
	.st23{fill:#F34234;}
	.st24{fill:#60A917;}
	.st25{fill:#FF9801;}
	.st26{fill:#EF6D7A;}
	.st27{fill:#3A312A;}
	.st28{fill:#D6DF58;}
	.st29{fill:#8AC5DC;}
	.st30{fill:#87796F;}
	.st31{fill:#C1A897;}
	.st32{fill:#F9A7A7;}
	.st33{fill:#36414D;}
	.st34{fill:#FFE4CF;}
	.st35{fill:#E0EBFC;}
	.st36{fill:#B9BEFC;}
	.st37{fill:#EAA97D;}
	.st38{fill:#FFEA92;}
</style>
<g>
	<g>
		<g>
			<path class="st0" d="M84.3,125.1L4.1,84.9c-2.3-1.2-3.3-4-2.1-6.4L39.3,4.1c1.2-2.3,4-3.3,6.4-2.1l80.2,40.2
				c2.3,1.2,3.3,4,2.1,6.4L90.7,123C89.5,125.3,86.6,126.3,84.3,125.1z"/>
			<path class="st1" d="M125.9,42.2l-6.2-3.1c2.3,1.2,3.3,4,2.1,6.4l-37.3,74.4c-1.2,2.3-4,3.3-6.4,2.1l6.2,3.1
				c2.3,1.2,5.2,0.2,6.4-2.1L128,48.6C129.2,46.2,128.2,43.4,125.9,42.2z"/>
			<path class="st2" d="M33.5,15.8l88.7,44.4l5.9-11.7c1.2-2.3,0.2-5.2-2.1-6.4L45.7,2c-2.3-1.2-5.2-0.2-6.4,2.1L33.5,15.8z"/>
			<path class="st3" d="M125.9,42.2l-6.2-3.1c2.3,1.2,3.3,4,2.1,6.4l-5.9,11.7l6.2,3.1l5.9-11.7C129.2,46.2,128.2,43.4,125.9,42.2z"
				/>
			<path class="st4" d="M51.2,14.8c-0.9,1.7-3,2.4-4.7,1.6c-1.7-0.9-2.4-3-1.6-4.7c0.9-1.7,3-2.4,4.7-1.6
				C51.4,10.9,52.1,13,51.2,14.8z"/>
			<path class="st5" d="M61.9,20.1c-0.9,1.7-3,2.4-4.7,1.6c-1.7-0.9-2.4-3-1.6-4.7s3-2.4,4.7-1.6C62.1,16.3,62.8,18.4,61.9,20.1z"/>
			<path class="st6" d="M72.6,25.5c-0.9,1.7-3,2.4-4.7,1.6c-1.7-0.9-2.4-3-1.6-4.7c0.9-1.7,3-2.4,4.7-1.6
				C72.7,21.6,73.4,23.7,72.6,25.5z"/>
			<path class="st7" d="M46.1,17.1c-2.2-1.1-3-3.7-2-5.9c1.1-2.2,3.7-3,5.9-2s3,3.7,2,5.9S48.3,18.2,46.1,17.1z M49.3,10.8
				c-1.3-0.7-2.9-0.1-3.6,1.2s-0.1,2.9,1.2,3.6c1.3,0.7,2.9,0.1,3.6-1.2C51.1,13.1,50.6,11.5,49.3,10.8z"/>
			<path class="st7" d="M56.8,22.4c-2.2-1.1-3-3.7-2-5.9c1.1-2.2,3.7-3,5.9-2s3,3.7,2,5.9S59,23.5,56.8,22.4z M60,16.1
				c-1.3-0.7-2.9-0.1-3.6,1.2s-0.1,2.9,1.2,3.6c1.3,0.7,2.9,0.1,3.6-1.2C61.8,18.4,61.3,16.8,60,16.1z"/>
			<path class="st7" d="M67.5,27.8c-2.2-1.1-3-3.7-2-5.9s3.7-3,5.9-2c2.2,1.1,3,3.7,2,5.9C72.3,28,69.6,28.9,67.5,27.8z M70.6,21.5
				c-1.3-0.7-2.9-0.1-3.6,1.2c-0.7,1.3-0.1,2.9,1.2,3.6c1.3,0.7,2.9,0.1,3.6-1.2C72.5,23.8,71.9,22.1,70.6,21.5z"/>
			<path class="st7" d="M83.6,32.6L116.1,49c0.7,0.4,1.6,0.1,2-0.7c0.4-0.7,0.1-1.6-0.7-2L84.9,30c-0.7-0.4-1.6-0.1-2,0.7
				C82.5,31.4,82.8,32.3,83.6,32.6z"/>
			<path class="st7" d="M126.5,40.8L46.4,0.7c-3.1-1.5-6.8-0.3-8.4,2.8L0.7,77.9c-1.5,3.1-0.3,6.8,2.8,8.4l80.2,40.2
				c3.1,1.5,6.8,0.3,8.4-2.8l37.3-74.4C130.9,46.2,129.6,42.4,126.5,40.8z M85,123.8L4.8,83.6c-1.6-0.8-2.3-2.8-1.5-4.4l30.8-61.4
				l7.5,3.7c0.7,0.4,1.6,0.1,2-0.7c0.4-0.7,0.1-1.6-0.7-2l-7.5-3.7l5.2-10.4c0.8-1.6,2.8-2.3,4.4-1.5l80.2,40.2
				c1.6,0.8,2.3,2.8,1.5,4.4l-5.2,10.4L47.9,21.4c-0.7-0.4-1.6-0.1-2,0.7c-0.4,0.7-0.1,1.6,0.7,2l73.5,36.9l-30.8,61.4
				C88.5,123.9,86.6,124.6,85,123.8z"/>
		</g>
		<g>
			<g>
				<path class="st8" d="M72.3,49L72.3,49c11.3,5.7,16.2,18.9,11.8,30.4l-5.6-3.1c2.7-8.3-1-17.6-9.1-21.6l0,0l-1.1,2.2L65,49.6
					l8.2-2.6L72.3,49"/>
				<path class="st9" d="M68.3,56.9l-2.5-5.5c1.5,0.3,3,0.8,4.5,1.5c8.6,4.3,12.3,14.7,8.4,23.4l-0.2-0.1c2.7-8.3-1-17.6-9.1-21.6
					l0,0L68.3,56.9z"/>
				<path class="st10" d="M83.1,81.6C83.1,81.6,83.1,81.6,83.1,81.6c-5.7,11.3-18.9,16.3-30.4,11.9l3.2-5.6
					c8.3,2.6,17.5-1.1,21.5-9.1c0,0,0,0,0,0l0,0l-2.2-1.1l7.3-3.3l2.6,8.2L83.1,81.6"/>
				<path class="st11" d="M53.4,86.8C53.3,86.8,53.3,86.8,53.4,86.8c-8.1-4-11.8-13.3-9.1-21.5L38.6,62
					c-4.4,11.5,0.5,24.8,11.8,30.5c0,0,0,0,0,0l0,0l-1,2l8.2-2.6l-3.3-7.3L53.4,86.8L53.4,86.8z"/>
				<path class="st12" d="M51.3,90.8c1.5,0.7,3,1.3,4.5,1.7l-6.3,2l1-2c0,0,0,0,0,0C39.2,86.8,34.2,73.6,38.6,62l0.1,0.5
					C35.7,73.5,40.7,85.5,51.3,90.8L51.3,90.8z"/>
				<path class="st13" d="M55.9,92.5c10.4,2.8,21.6-1.5,27.2-10.9l0.1,0c0,0,0,0,0,0c-5.7,11.3-18.9,16.2-30.4,11.8L55.9,92.5z"/>
				<path class="st14" d="M39.6,59.8C39.6,59.8,39.6,59.8,39.6,59.8C45.3,48.5,58.5,43.6,70.1,48L65,49.6l1.8,4
					c-8.3-2.7-17.5,1-21.6,9.1c0,0,0,0,0,0l0,0l2.2,1.1l-7.3,3.3l-2.6-8.2L39.6,59.8z"/>
				<g>
					<path class="st15" d="M65.8,51.4l1,2.2c-8-2.6-16.9,0.8-21.1,8.2c0.1-0.3,0.3-0.6,0.4-0.9C49.9,53.5,58.1,49.8,65.8,51.4
						L65.8,51.4z"/>
				</g>
				<g>
					<path class="st7" d="M37.1,58.2c-0.2,0.2-0.3,0.5-0.2,0.9l0.9,2.9c-2.1,5.6-2.1,11.8,0,17.4c0.2,0.4,0.6,0.6,1,0.5
						c0.4-0.2,0.6-0.6,0.5-1c-1.7-4.6-1.9-9.6-0.7-14.2l0.8,2.7c0.1,0.5,0.7,0.7,1.1,0.5l2.4-1.1c-0.8,3.7-0.5,7.7,1,11.3
						c1.7,4.2,4.9,7.6,8.9,9.6l0,0c0.4,0.2,0.9,0,1.1-0.4l0.4-0.7l2.2,4.9l-5.6,1.7l0.1-0.3c0.2-0.4,0-0.9-0.4-1.1l0,0
						c-4.4-2.2-8-5.7-10.3-10.1c-0.2-0.4-0.7-0.5-1.1-0.3c-0.4,0.2-0.5,0.7-0.3,1.1c2.3,4.5,5.9,8.1,10.3,10.4l-0.6,1.3
						c-0.3,0.6,0.3,1.4,1,1.1l2.9-0.9c5.7,2.1,12,2.1,17.8-0.1c5.6-2.2,10.2-6.2,13.1-11.5l1.3,0.6c0.6,0.3,1.4-0.3,1.1-1l-0.9-3
						c2.1-5.7,2.1-11.9-0.1-17.6c-0.2-0.4-0.6-0.6-1-0.5c-0.4,0.2-0.6,0.6-0.5,1c1.7,4.6,2,9.6,0.7,14.3l-0.8-2.6
						c-0.1-0.5-0.7-0.7-1.1-0.5l-2.5,1.1c0.8-3.8,0.5-7.7-1-11.3c-1.7-4.2-4.9-7.6-9-9.6c-0.4-0.2-0.9,0-1.1,0.4L68.4,55L66.1,50
						l5.6-1.7l-0.1,0.3c-0.2,0.4,0,0.9,0.4,1.1c4.4,2.2,7.9,5.6,10.2,9.9c0.2,0.4,0.7,0.5,1.1,0.3c0.4-0.2,0.5-0.7,0.3-1.1
						c-2.3-4.4-5.8-7.9-10.2-10.2l0.6-1.3c0.3-0.6-0.3-1.4-1-1.1l-2.9,0.9c-5.7-2.1-12-2.1-17.8,0.1c-5.6,2.2-10.3,6.2-13.1,11.5
						L38,58.1C37.7,58,37.3,58,37.1,58.2L37.1,58.2z M57.4,89.1c3.7,0.8,7.7,0.5,11.3-1c4.2-1.7,7.6-4.9,9.6-8.9l0,0
						c0.2-0.4,0-0.9-0.4-1.1l-0.7-0.3l4.9-2.2l1.7,5.6l-0.3-0.1c-0.4-0.2-0.9,0-1.1,0.4l0,0c-2.6,5.3-7.1,9.3-12.6,11.4
						c-4.7,1.8-9.7,2.1-14.5,0.8l2.6-0.8c0.5-0.1,0.7-0.7,0.5-1.1L57.4,89.1z M45.5,77.4c-1.5-3.7-1.7-7.7-0.6-11.5l3-1.3
						c0.6-0.3,0.6-1.2,0-1.5l-1.5-0.8c1.9-3.4,4.8-6,8.4-7.5c3.7-1.5,7.7-1.7,11.5-0.6l1.3,2.9c0.3,0.6,1.2,0.6,1.5,0l0.7-1.5
						c3.4,1.9,6,4.8,7.5,8.4c1.5,3.7,1.7,7.7,0.6,11.5L75,77c-0.6,0.3-0.6,1.2,0,1.5l1.5,0.7c-1.9,3.4-4.8,6-8.4,7.5
						c-3.7,1.5-7.7,1.7-11.5,0.6l-1.3-2.9c-0.3-0.6-1.2-0.6-1.5,0L53,85.8C49.6,83.9,47,80.9,45.5,77.4L45.5,77.4z M39,60.4l0.3,0.1
						c0.4,0.2,0.9,0,1.1-0.4l0,0c2.6-5.3,7.1-9.3,12.6-11.4c4.7-1.8,9.8-2.1,14.5-0.8l-2.7,0.8c-0.5,0.1-0.7,0.7-0.5,1.1l1.1,2.5
						c-3.7-0.8-7.7-0.5-11.3,1c-4.2,1.7-7.6,4.9-9.6,9l0,0c-0.2,0.4,0,0.9,0.4,1.1l0.7,0.4L40.7,66L39,60.4z"/>
					<path class="st7" d="M48.8,95.1c-0.3-0.3-0.3-0.7-0.1-1l0.6-1.1c-4.4-2.4-7.9-6-10.3-10.4c-0.1-0.2-0.1-0.5-0.1-0.7
						c0.1-0.2,0.2-0.4,0.5-0.6c0.5-0.2,1-0.1,1.3,0.4c2.3,4.4,5.8,7.8,10.2,10l0,0c0.5,0.2,0.6,0.8,0.4,1.3l5.1-1.6l-2.1-4.5
						l-0.2,0.5c-0.2,0.5-0.8,0.6-1.3,0.4l0,0c-4.1-2-7.3-5.5-9-9.7c-1.5-3.5-1.8-7.4-1.1-11.1l-2.2,1c-0.2,0.1-0.5,0.1-0.8,0
						c-0.3-0.1-0.4-0.3-0.5-0.6l-0.7-2.2c-1.1,4.5-0.8,9.3,0.8,13.7c0.1,0.2,0.1,0.5,0,0.7c-0.1,0.2-0.3,0.4-0.5,0.5
						c-0.2,0.1-0.5,0.1-0.7,0c0,0,0,0,0,0c-0.2-0.1-0.4-0.3-0.5-0.5c-2.1-5.7-2.1-11.9,0-17.5l-0.9-2.8c-0.1-0.4,0-0.8,0.3-1l0,0
						c0.3-0.2,0.7-0.3,1-0.1l1.1,0.6c2.9-5.3,7.5-9.3,13.1-11.5c5.8-2.2,12.1-2.3,17.8-0.1l2.9-0.9c0.3-0.1,0.7,0,1,0.3
						c0.3,0.3,0.3,0.7,0.1,1l-0.6,1.1c4.3,2.4,7.8,5.9,10.1,10.2c0.1,0.2,0.1,0.5,0.1,0.7s-0.2,0.4-0.5,0.6
						c-0.2,0.1-0.5,0.1-0.7,0.1c-0.2-0.1-0.4-0.2-0.6-0.5c-2.3-4.3-5.8-7.7-10.1-9.9c-0.5-0.2-0.6-0.8-0.4-1.3l-5.1,1.6l2.1,4.5
						l0.2-0.5c0.2-0.5,0.8-0.7,1.3-0.4c4.1,2,7.3,5.5,9,9.7c1.5,3.5,1.8,7.4,1.1,11.1l2.2-1c0.2-0.1,0.5-0.1,0.8,0
						c0.3,0.1,0.4,0.3,0.5,0.6l0.7,2.1c1.1-4.6,0.8-9.3-0.9-13.8c-0.2-0.5,0.1-1,0.5-1.2c0.5-0.2,1,0.1,1.2,0.5
						c2.1,5.7,2.2,12,0.1,17.6l0.9,2.9c0.1,0.3,0,0.7-0.3,1c-0.3,0.3-0.7,0.3-1,0.1l-1.2-0.6c-2.9,5.2-7.5,9.3-13.1,11.5
						c-5.7,2.2-12.1,2.3-17.8,0.2l-2.9,0.9c-0.2,0.1-0.5,0.1-0.7,0C49,95.3,48.9,95.2,48.8,95.1z M84.9,83.2
						C84.9,83.2,84.9,83.2,84.9,83.2c0.3,0.1,0.6,0,0.7-0.1c0.2-0.1,0.3-0.4,0.2-0.7l-0.9-3l0,0l0,0c2.1-5.6,2.1-11.9-0.1-17.5
						c-0.1-0.3-0.5-0.5-0.9-0.4c-0.3,0.1-0.5,0.5-0.4,0.9c1.8,4.6,2,9.6,0.7,14.4l-0.1,0.5l-1-3.1c0-0.2-0.2-0.3-0.3-0.4
						c0,0,0,0,0,0c-0.2-0.1-0.4-0.1-0.5,0L79.6,75l0.1-0.3c0.8-3.8,0.5-7.6-1-11.2c-1.7-4.1-4.9-7.5-8.9-9.5c-0.3-0.2-0.7,0-0.9,0.3
						l-0.5,1L66,50.1L66,49.9l6-1.9l-0.3,0.6c-0.2,0.3,0,0.7,0.3,0.9c4.4,2.2,8,5.7,10.3,10c0.1,0.2,0.2,0.3,0.4,0.3
						c0.2,0.1,0.4,0,0.5-0.1s0.3-0.2,0.3-0.4c0.1-0.2,0-0.4-0.1-0.5c-2.3-4.3-5.8-7.8-10.1-10.2l-0.1-0.1l0.7-1.4
						c0.1-0.3,0-0.6-0.1-0.7c-0.1-0.2-0.4-0.3-0.7-0.2l-2.9,0.9l0,0l0,0c-5.7-2.1-12-2.1-17.7,0.1c-5.6,2.1-10.2,6.2-13.1,11.5
						l-0.1,0.1l-1.4-0.7c-0.2-0.1-0.5-0.1-0.7,0.1l0,0c-0.2,0.2-0.3,0.5-0.2,0.7l0.9,2.9l0,0c-2.1,5.6-2.1,11.7,0,17.4
						c0.1,0.2,0.2,0.3,0.3,0.4c0,0,0,0,0,0c0.2,0.1,0.3,0.1,0.5,0c0.2-0.1,0.3-0.2,0.4-0.3c0.1-0.2,0.1-0.3,0-0.5
						c-1.7-4.6-1.9-9.6-0.7-14.3l0.1-0.5l1,3.1c0.1,0.2,0.2,0.3,0.4,0.4c0.2,0.1,0.4,0.1,0.5,0l2.7-1.2l-0.1,0.3
						c-0.8,3.8-0.5,7.6,1,11.2c1.7,4.1,4.9,7.5,8.9,9.5l0,0c0.3,0.2,0.7,0,0.9-0.3l0.5-1l2.4,5.2l0.1,0.1l-6,1.9l0.3-0.6
						c0.2-0.3,0-0.7-0.3-0.9l0,0c-4.5-2.2-8.1-5.8-10.4-10.2c-0.2-0.3-0.6-0.5-0.9-0.3c-0.2,0.1-0.3,0.2-0.3,0.4
						c-0.1,0.2,0,0.4,0,0.5c2.3,4.4,5.9,8,10.3,10.4l0.1,0.1l-0.7,1.4c-0.1,0.3,0,0.6,0.1,0.7c0.1,0.2,0.4,0.3,0.7,0.2l2.9-0.9l0,0
						l0,0c5.7,2.1,12,2.1,17.7-0.1c5.6-2.1,10.2-6.2,13-11.5l0.1-0.1l0.1,0.1L84.9,83.2z M58,92.6c0.2-0.1,0.3-0.2,0.4-0.4
						c0.1-0.2,0.1-0.4,0-0.5L57.1,89l0.3,0.1c3.8,0.8,7.6,0.5,11.2-1c4.1-1.7,7.5-4.9,9.5-8.9c0.2-0.3,0-0.7-0.3-0.9l-0.9-0.5
						l5.2-2.4l0.1-0.1l1.9,6L83.5,81c-0.3-0.2-0.7,0-0.9,0.3c-2.7,5.3-7.2,9.4-12.7,11.5c-4.7,1.8-9.7,2.1-14.6,0.8l-0.5-0.1
						L58,92.6z M82,75.7l-4.5,2.1l0.4,0.2c0.5,0.2,0.7,0.8,0.4,1.3c-2,4.1-5.5,7.3-9.7,9c-3.5,1.5-7.4,1.8-11.1,1.1l1,2.2
						c0.1,0.2,0.1,0.5,0,0.8c-0.1,0.3-0.3,0.4-0.6,0.5l-2.2,0.7c4.6,1.1,9.5,0.8,13.9-0.9c5.5-2.1,9.9-6.1,12.5-11.4
						c0.2-0.5,0.8-0.7,1.3-0.4l0,0L82,75.7z M52.9,85.9c-3.4-1.9-6.1-4.9-7.6-8.5l0,0c-1.5-3.7-1.8-7.8-0.6-11.6l0-0.1l3-1.4
						c0.3-0.1,0.4-0.4,0.4-0.6c0-0.2-0.1-0.5-0.3-0.6c0,0,0,0,0,0l-1.6-0.8l0.1-0.1c1.9-3.4,4.9-6.1,8.5-7.6
						c3.7-1.5,7.8-1.7,11.6-0.6l0.1,0l1.4,3c0.1,0.3,0.4,0.4,0.6,0.4c0.2,0,0.5-0.1,0.6-0.4l0.8-1.6l0.1,0.1
						c3.4,1.9,6.1,4.9,7.5,8.5c1.5,3.7,1.7,7.8,0.6,11.6l0,0.1l-3,1.3c-0.3,0.1-0.4,0.4-0.4,0.6c0,0.2,0.1,0.5,0.3,0.6c0,0,0,0,0,0
						l1.6,0.8l-0.1,0.1c-1.9,3.4-4.9,6.1-8.5,7.6c-3.7,1.5-7.8,1.8-11.6,0.6l-0.1,0l-1.4-3c-0.1-0.3-0.4-0.4-0.6-0.4
						c-0.2,0-0.5,0.1-0.6,0.4L53,86L52.9,85.9z M55.3,84.3l1.3,2.9c3.7,1.1,7.7,0.9,11.3-0.6c3.5-1.4,6.4-4,8.3-7.3l-1.3-0.7
						c-0.3-0.2-0.5-0.5-0.5-0.9c0-0.4,0.2-0.7,0.5-0.8l2.9-1.3c1.1-3.7,0.9-7.8-0.6-11.4c-1.4-3.5-4-6.4-7.3-8.3l-0.7,1.3
						c-0.2,0.3-0.5,0.5-0.9,0.5c-0.4,0-0.7-0.2-0.8-0.5l-1.3-2.9c-3.7-1.1-7.8-0.9-11.4,0.6c-3.5,1.4-6.4,4-8.3,7.3l1.4,0.7
						c0,0,0,0,0,0c0.3,0.2,0.5,0.5,0.5,0.8c0,0.4-0.2,0.7-0.5,0.8L45,66c-1.1,3.7-0.9,7.7,0.6,11.3l0,0c1.4,3.5,4,6.4,7.3,8.3
						l0.7-1.3c0.2-0.3,0.5-0.5,0.9-0.5c0.2,0,0.3,0,0.4,0.1C55.1,83.9,55.2,84.1,55.3,84.3z M38.7,60.2l0.5,0.3
						c0.3,0.2,0.7,0,0.9-0.3c2.7-5.3,7.2-9.4,12.7-11.5c4.7-1.8,9.8-2.1,14.6-0.8l0.5,0.1l-3.1,1c-0.2,0.1-0.3,0.2-0.4,0.4
						c-0.1,0.2-0.1,0.4,0,0.5l1.2,2.7l-0.3-0.1c-3.8-0.8-7.6-0.5-11.2,1c-4.1,1.7-7.5,4.9-9.6,8.9c-0.2,0.3,0,0.7,0.3,0.9l1,0.5
						l-5.2,2.4l-0.1,0.1L38.7,60.2z M44.8,63.5c-0.5-0.2-0.7-0.8-0.4-1.3c2-4.1,5.5-7.3,9.7-9c3.5-1.5,7.4-1.8,11.1-1.1l-1-2.2
						c-0.1-0.2-0.1-0.5,0-0.8c0.1-0.3,0.3-0.4,0.6-0.5l2.2-0.7c-4.7-1.1-9.5-0.8-14,0.9C47.5,50.9,43,55,40.4,60.2
						c-0.2,0.5-0.8,0.6-1.2,0.4l1.6,5.1l4.5-2.1L44.8,63.5z"/>
				</g>
			</g>
			<g>
				<g>
					<path class="st7" d="M66.2,73l1.3,2.5c0.4,0.9,1.5,1.3,2.4,0.8c0.9-0.4,1.3-1.5,0.8-2.4l-1.3-2.5c-0.4-0.9-1.5-1.3-2.4-0.8
						C66.1,71,65.8,72.1,66.2,73z M68.9,71.6l1.3,2.5c0.3,0.6,0.1,1.3-0.5,1.6c-0.6,0.3-1.3,0.1-1.6-0.5l-1.3-2.5
						c-0.3-0.6-0.1-1.3,0.5-1.6C67.9,70.8,68.6,71,68.9,71.6z"/>
					<path class="st7" d="M70.2,76.8c-1.2,0.6-2.6,0.1-3.2-1.1l-1.3-2.5c-0.6-1.2-0.1-2.6,1.1-3.2s2.6-0.1,3.2,1.1l1.3,2.5
						C71.8,74.8,71.3,76.2,70.2,76.8z M67.6,71.6c-0.3,0.2-0.4,0.5-0.3,0.8l1.3,2.5c0.2,0.3,0.5,0.4,0.8,0.3
						c0.3-0.2,0.4-0.5,0.3-0.8l-1.3-2.5C68.2,71.6,67.9,71.4,67.6,71.6z"/>
				</g>
				<g>
					<path class="st7" d="M55.8,71c0.9-0.4,1.3-1.5,0.8-2.4l-0.4-0.8c-0.1-0.2-0.3-0.2-0.4-0.1c-0.2,0.1-0.2,0.3-0.1,0.4l0.4,0.8
						c0.3,0.6,0.1,1.3-0.5,1.6c-0.6,0.3-1.3,0.1-1.6-0.5l-1.3-2.5c-0.3-0.6-0.1-1.3,0.5-1.6s1.3-0.1,1.6,0.5l0.3,0.6
						c0.1,0.2,0.3,0.2,0.4,0.1s0.2-0.3,0.1-0.4L55.3,66c-0.4-0.9-1.5-1.3-2.4-0.8s-1.3,1.5-0.8,2.4l1.3,2.5
						C53.8,71.1,54.9,71.4,55.8,71z"/>
					<path class="st7" d="M56,71.5c-1.2,0.6-2.6,0.1-3.2-1.1l-1.3-2.5c-0.6-1.2-0.1-2.6,1.1-3.2c1.2-0.6,2.6-0.1,3.2,1.1l0.3,0.6
						c0.1,0.2,0.1,0.5,0,0.7c0.2,0.1,0.4,0.2,0.5,0.4l0.4,0.8C57.7,69.5,57.2,70.9,56,71.5z M53.4,66.2c-0.3,0.2-0.4,0.5-0.3,0.8
						l1.3,2.5c0.2,0.3,0.5,0.4,0.8,0.3c0.3-0.2,0.4-0.5,0.3-0.8l-0.4-0.8c-0.1-0.2-0.1-0.5,0-0.7c-0.2-0.1-0.4-0.2-0.5-0.4l-0.3-0.6
						C54.1,66.2,53.7,66.1,53.4,66.2z"/>
				</g>
				<g>
					<path class="st7" d="M56.7,72.9c1.9-1,2.7-3.4,1.8-5.3L57.2,65c-0.5-0.9-1.3-1.6-2.3-2c-1-0.3-2.1-0.3-3,0.2
						c-1.9,1-2.7,3.4-1.8,5.3l1.3,2.5C52.4,73.1,54.8,73.9,56.7,72.9z M50.7,68.3c-0.8-1.6-0.2-3.6,1.5-4.4c0.8-0.4,1.7-0.5,2.5-0.2
						c0,0,0,0,0,0c0.8,0.3,1.5,0.9,1.9,1.7l1.3,2.5c0.8,1.6,0.2,3.6-1.5,4.4c-1.6,0.8-3.6,0.2-4.4-1.5L50.7,68.3L50.7,68.3z"/>
					<path class="st7" d="M57,73.4c-2.2,1.1-4.9,0.2-6-2l-1.3-2.5c-1.1-2.2-0.2-4.9,2-6c1.1-0.5,2.3-0.6,3.4-0.2
						c1.1,0.4,2.1,1.2,2.6,2.3l1.3,2.5C60.1,69.5,59.2,72.3,57,73.4z M52.4,64.3c-1.4,0.7-1.9,2.3-1.2,3.7l1.3,2.5
						c0.7,1.4,2.3,1.9,3.7,1.2c1.4-0.7,1.9-2.3,1.2-3.7l-1.3-2.5c-0.3-0.7-0.9-1.1-1.6-1.4C53.9,63.9,53.1,64,52.4,64.3z"/>
				</g>
				<g>
					<path class="st7" d="M69.1,68.4c-1-0.3-2.1-0.3-3,0.2c-1.9,1-2.7,3.4-1.8,5.3l1.3,2.5c1,1.9,3.4,2.7,5.3,1.8
						c0.8-0.4,1.5-1.1,1.8-1.9c0.1-0.2,0-0.4-0.2-0.4c-0.2-0.1-0.4,0-0.4,0.2c-0.3,0.7-0.9,1.3-1.5,1.6c-1.6,0.8-3.6,0.2-4.4-1.5
						l-1.3-2.5c-0.8-1.6-0.2-3.6,1.5-4.4c0.8-0.4,1.7-0.5,2.5-0.2c0.8,0.3,1.5,0.9,1.9,1.7l1.3,2.5c0.3,0.5,0.4,1.1,0.3,1.7
						c0,0.2,0.1,0.3,0.3,0.3c0.2,0,0.3-0.1,0.3-0.3c0.1-0.7-0.1-1.4-0.4-2l-1.3-2.5C70.9,69.4,70.1,68.7,69.1,68.4L69.1,68.4z"/>
					<path class="st7" d="M71.1,78.7c-2.2,1.1-4.9,0.2-6-2l-1.3-2.5c-1.1-2.2-0.2-4.9,2-6c1.1-0.5,2.3-0.6,3.4-0.2l0,0l0,0l0,0
						c1.1,0.4,2.1,1.2,2.6,2.3l1.3,2.5c0.4,0.7,0.5,1.5,0.5,2.3c0,0.3-0.2,0.6-0.4,0.7c0.2,0.2,0.2,0.5,0.1,0.8
						C72.8,77.5,72,78.2,71.1,78.7z M72.6,76.3C72.6,76.3,72.6,76.3,72.6,76.3C72.6,76.3,72.6,76.3,72.6,76.3z M66.6,69.7
						c-1.4,0.7-1.9,2.3-1.2,3.7l1.3,2.5c0.7,1.4,2.3,1.9,3.7,1.2c0.6-0.3,1-0.8,1.3-1.3c0.1-0.2,0.2-0.3,0.4-0.4
						c-0.1-0.2-0.2-0.3-0.1-0.5c0-0.5-0.1-1-0.3-1.4l-1.3-2.5c-0.3-0.7-0.9-1.2-1.6-1.4C68,69.3,67.3,69.3,66.6,69.7z"/>
				</g>
				<g>
					<path class="st7" d="M65.5,60.9c-0.1-0.3-0.4-0.5-0.7-0.6c-0.3-0.1-0.6-0.1-0.9,0.1c-0.3,0.1-0.5,0.4-0.6,0.7l-6.2,18.8
						c-0.2,0.6,0.1,1.3,0.7,1.5c0.3,0.1,0.6,0.1,0.9-0.1c0.3-0.1,0.5-0.4,0.6-0.7l6.2-18.8C65.7,61.4,65.7,61.1,65.5,60.9L65.5,60.9
						z M65,61.5l-6.2,18.8c0,0.1-0.1,0.2-0.3,0.3c-0.1,0.1-0.3,0.1-0.4,0c-0.3-0.1-0.4-0.4-0.3-0.7L64,61.2c0-0.1,0.1-0.2,0.3-0.3
						c0.1-0.1,0.3-0.1,0.4,0c0.1,0,0.2,0.1,0.3,0.3S65,61.4,65,61.5L65,61.5z"/>
					<path class="st7" d="M59,81.6c-0.4,0.2-0.9,0.2-1.3,0.1c-0.4-0.1-0.8-0.4-1-0.9c-0.2-0.4-0.2-0.9-0.1-1.3l6.2-18.8
						c0.3-0.9,1.3-1.4,2.2-1.1c0.4,0.1,0.8,0.4,1,0.9c0.2,0.4,0.2,0.9,0.1,1.3l-6.2,18.8C59.8,81.1,59.5,81.4,59,81.6z"/>
				</g>
				<g>
					<g>
						<path class="st16" d="M58.7,80.9c-0.2,0.1-0.4,0.1-0.6,0c-0.4-0.1-0.7-0.6-0.5-1.1l6.2-18.8c0.1-0.4,0.6-0.7,1.1-0.5
							c0.4,0.1,0.7,0.6,0.5,1.1l-6.2,18.8C59,80.6,58.8,80.8,58.7,80.9L58.7,80.9z"/>
					</g>
					<g>
						<path class="st17" d="M65.1,60.8c-0.3,0-0.6,0.2-0.7,0.6l-6.2,18.8c-0.1,0.3,0,0.7,0.2,0.9c-0.1,0-0.2,0-0.4,0
							c-0.4-0.1-0.7-0.6-0.5-1.1l6.2-18.8c0.1-0.4,0.6-0.7,1.1-0.5C64.9,60.6,65,60.7,65.1,60.8z"/>
					</g>
					<g>
						<g>
							<path class="st16" d="M54.8,63.4c-0.9-0.3-1.9-0.2-2.8,0.2c-1.8,0.9-2.5,3.1-1.6,4.9l1.3,2.5c0.9,1.8,3.1,2.5,4.9,1.6
								c1.8-0.9,2.5-3.1,1.6-4.9l-1.3-2.5C56.5,64.3,55.7,63.6,54.8,63.4L54.8,63.4z M56.3,68.7c0.4,0.7,0.1,1.6-0.7,2
								s-1.6,0.1-2-0.7l-1.3-2.5c-0.4-0.7-0.1-1.6,0.7-2c0.7-0.4,1.6-0.1,2,0.7L56.3,68.7z"/>
						</g>
						<g>
							<path class="st16" d="M69,68.7c-0.9-0.3-1.9-0.2-2.8,0.2c-1.8,0.9-2.5,3.1-1.6,4.9l1.3,2.5c0.9,1.8,3.1,2.5,4.9,1.6
								c1.8-0.9,2.5-3.1,1.6-4.9l-1.3-2.5C70.6,69.6,69.9,69,69,68.7L69,68.7z M70.4,74c0.4,0.7,0.1,1.6-0.7,2
								c-0.7,0.4-1.6,0.1-2-0.7l-1.3-2.5c-0.4-0.7-0.1-1.6,0.7-2c0.7-0.4,1.6-0.1,2,0.7L70.4,74z"/>
						</g>
					</g>
					<g>
						<g>
							<g>
								<path class="st17" d="M56,70.4c0.1,0,0.3-0.1,0.4-0.1c0.7-0.4,1-1.3,0.7-2l-1.3-2.5c-0.4-0.7-1.3-1-2-0.7
									c-0.1,0.1-0.3,0.2-0.4,0.3c0.6-0.1,1.3,0.2,1.6,0.8l1.3,2.5C56.6,69.3,56.5,70,56,70.4L56,70.4z"/>
							</g>
							<g>
								<path class="st17" d="M52.5,70.6L51.2,68c-0.8-1.7-0.3-3.6,1.2-4.6c-0.1,0-0.3,0.1-0.4,0.2c-1.8,0.9-2.5,3.1-1.6,4.9
									l1.3,2.5c0.9,1.8,3.1,2.5,4.9,1.6c0.1-0.1,0.3-0.1,0.4-0.2C55.3,73,53.4,72.2,52.5,70.6L52.5,70.6z"/>
							</g>
						</g>
						<g>
							<g>
								<path class="st17" d="M70.1,75.8c0.1,0,0.3-0.1,0.4-0.1c0.7-0.4,1-1.3,0.7-2L70,71.1c-0.4-0.7-1.3-1-2-0.7
									c-0.1,0.1-0.3,0.2-0.4,0.3c0.6-0.1,1.3,0.2,1.6,0.8l1.3,2.5C70.7,74.6,70.6,75.3,70.1,75.8z"/>
							</g>
							<g>
								<path class="st17" d="M66.7,75.9l-1.3-2.5c-0.8-1.7-0.3-3.6,1.2-4.6c-0.1,0-0.3,0.1-0.4,0.2c-1.8,0.9-2.5,3.1-1.6,4.9
									l1.3,2.5c0.9,1.8,3.1,2.5,4.9,1.6c0.1-0.1,0.3-0.1,0.4-0.2C69.4,78.3,67.5,77.6,66.7,75.9L66.7,75.9z"/>
							</g>
						</g>
					</g>
				</g>
			</g>
		</g>
	</g>
	<g>
		<g>
			<path class="st0" d="M2.2,283.7l36.2-75c1.1-2.4,4-3.4,6.3-2.2l80.7,39c2.4,1.1,3.4,4,2.2,6.3l-36.2,75c-1.1,2.4-4,3.4-6.3,2.2
				L4.4,290C2.1,288.9,1.1,286,2.2,283.7z"/>
			<path class="st1" d="M38.5,208.7l-36.2,75c-1.1,2.4-0.2,5.2,2.2,6.3l6.3,3c-2.4-1.1-3.4-4-2.2-6.3l36.2-75c1.1-2.4,4-3.4,6.3-2.2
				l-6.3-3C42.5,205.4,39.6,206.4,38.5,208.7z"/>
			<path class="st2" d="M127.8,251.9c1.1-2.4,0.2-5.2-2.2-6.3l-80.7-39c-2.4-1.1-5.2-0.2-6.3,2.2l-5.7,11.8l89.3,43.2L127.8,251.9z"
				/>
			<path class="st3" d="M38.5,208.7l-5.7,11.8l6.3,3l5.7-11.8c1.1-2.4,4-3.4,6.3-2.2l-6.3-3C42.5,205.4,39.6,206.4,38.5,208.7z"/>
			<path class="st4" d="M116.8,247.3c1.8,0.8,2.5,3,1.6,4.7s-3,2.5-4.7,1.6c-1.8-0.8-2.5-3-1.6-4.7S115,246.5,116.8,247.3z"/>
			<path class="st5" d="M106,242.1c1.8,0.8,2.5,3,1.6,4.7s-3,2.5-4.7,1.6s-2.5-3-1.6-4.7C102.2,242,104.3,241.3,106,242.1z"/>
			<path class="st6" d="M95.3,236.9c1.8,0.8,2.5,3,1.6,4.7s-3,2.5-4.7,1.6c-1.8-0.8-2.5-3-1.6-4.7S93.5,236.1,95.3,236.9z"/>
			<path class="st7" d="M111.3,248.6c1.1-2.2,3.7-3.1,5.9-2c2.2,1.1,3.1,3.7,2,5.9s-3.7,3.1-5.9,2
				C111.1,253.4,110.2,250.7,111.3,248.6z M112.8,249.3c-0.6,1.3-0.1,2.9,1.2,3.6c1.3,0.6,2.9,0.1,3.6-1.2s0.1-2.9-1.2-3.6
				C115.1,247.4,113.5,248,112.8,249.3z"/>
			<path class="st7" d="M100.6,243.4c1.1-2.2,3.7-3.1,5.9-2c2.2,1.1,3.1,3.7,2,5.9c-1.1,2.2-3.7,3.1-5.9,2S99.5,245.6,100.6,243.4z
				 M102.1,244.1c-0.6,1.3-0.1,2.9,1.2,3.6c1.3,0.6,2.9,0.1,3.6-1.2c0.6-1.3,0.1-2.9-1.2-3.6C104.3,242.2,102.7,242.8,102.1,244.1z"
				/>
			<path class="st7" d="M89.8,238.2c1.1-2.2,3.7-3.1,5.9-2c2.2,1.1,3.1,3.7,2,5.9c-1.1,2.2-3.7,3.1-5.9,2
				C89.7,243,88.8,240.4,89.8,238.2z M91.4,238.9c-0.6,1.3-0.1,2.9,1.2,3.6c1.3,0.6,2.9,0.1,3.6-1.2s0.1-2.9-1.2-3.6
				C93.6,237.1,92,237.6,91.4,238.9z"/>
			<path class="st7" d="M80.2,233.5c0.4-0.7,0-1.6-0.7-2l-32.8-15.9c-0.7-0.4-1.6,0-2,0.7c-0.4,0.7,0,1.6,0.7,2l32.8,15.9
				C78.9,234.6,79.8,234.3,80.2,233.5z"/>
			<path class="st7" d="M37.1,208.1L0.9,283c-1.5,3.1-0.2,6.8,2.9,8.3l80.7,39c3.1,1.5,6.8,0.2,8.3-2.9l36.2-75
				c1.5-3.1,0.2-6.8-2.9-8.3l-80.7-39C42.4,203.7,38.6,205,37.1,208.1z M3.6,284.3l29.9-61.8l74,35.8c0.7,0.4,1.6,0,2-0.7
				c0.4-0.7,0-1.6-0.7-2l-74-35.8l5.1-10.4c0.8-1.6,2.7-2.3,4.3-1.5l80.7,39c1.6,0.8,2.3,2.7,1.5,4.3l-5.1,10.4l-7.5-3.6
				c-0.7-0.4-1.6,0-2,0.7c-0.4,0.7,0,1.6,0.7,2l7.5,3.6l-29.9,61.8c-0.8,1.6-2.7,2.3-4.3,1.5l-80.7-39
				C3.5,287.9,2.8,285.9,3.6,284.3z"/>
		</g>
		<g>
			<g>
				<path class="st18" d="M45.7,260.9c-0.7,1.4-2.4,2-3.8,1.3c-1.4-0.7-2-2.4-1.3-3.8c0.7-1.4,2.4-2,3.8-1.3
					C45.8,257.8,46.4,259.5,45.7,260.9L45.7,260.9z"/>
				<path class="st19" d="M65.5,255.7c-0.7,1.4-2.4,2-3.8,1.3c-1.4-0.7-2-2.4-1.3-3.8c0.7-1.4,2.4-2,3.8-1.3
					C65.6,252.6,66.1,254.3,65.5,255.7z"/>
				<path class="st20" d="M75.3,270.9c-0.7,1.4-2.4,2-3.8,1.3c-1.4-0.7-2-2.4-1.3-3.8c0.7-1.4,2.4-2,3.8-1.3
					C75.4,267.8,76,269.5,75.3,270.9L75.3,270.9z"/>
				<path class="st21" d="M95.7,264.2c-0.7,1.4-2.4,2-3.8,1.3c-1.4-0.7-2-2.4-1.3-3.8c0.7-1.4,2.4-2,3.8-1.3
					C95.8,261.1,96.4,262.8,95.7,264.2z"/>
				<path class="st22" d="M45.8,260.8l0,0.1c-0.7,1.4-2.4,2-3.8,1.4s-2-2.4-1.3-3.8c0.4-0.8,1.1-1.3,1.8-1.5c-0.6,1.4,0,3.1,1.4,3.7
					C44.5,261,45.1,261,45.8,260.8z"/>
				<path class="st23" d="M65.5,255.6l0,0.1c-0.7,1.4-2.4,2-3.8,1.4c-1.4-0.7-2-2.4-1.3-3.8c0.4-0.8,1.1-1.3,1.8-1.5
					c-0.6,1.4,0,3.1,1.4,3.7C64.2,255.7,64.9,255.8,65.5,255.6L65.5,255.6z"/>
				<path class="st24" d="M75.3,270.8l-0.1,0.1c-0.7,1.4-2.4,2-3.8,1.3c-1.4-0.7-2-2.4-1.3-3.8c0.4-0.8,1.1-1.3,1.8-1.5
					c-0.6,1.4,0,3,1.4,3.7C74,270.9,74.7,271,75.3,270.8L75.3,270.8z"/>
				<path class="st25" d="M95.7,264.1l0,0.1c-0.7,1.4-2.4,2-3.8,1.3c-1.4-0.7-2-2.4-1.3-3.8c0.4-0.8,1.1-1.3,1.8-1.5
					c-0.6,1.4,0,3,1.4,3.7C94.4,264.2,95.1,264.3,95.7,264.1z"/>
				<path class="st7" d="M41.5,263.1c1.9,0.9,4.2,0.1,5.1-1.8c0.3-0.6,0.4-1.2,0.4-1.7l12.5-3.6c0.4,0.8,1,1.4,1.8,1.9
					c1,0.5,2.1,0.5,3.1,0.1l5.4,9.3c-0.2,0.2-0.3,0.4-0.4,0.7c-0.9,1.9-0.1,4.2,1.8,5.1c1.9,0.9,4.2,0.1,5.1-1.8
					c0.3-0.5,0.4-1.1,0.4-1.6l13.4-4.7c0.4,0.6,0.9,1.1,1.5,1.4c1.9,0.9,4.2,0.1,5.1-1.8c0.9-1.9,0.1-4.2-1.8-5.1
					c-1.9-0.9-4.2-0.1-5.1,1.8c-0.3,0.6-0.4,1.3-0.4,1.9l-13.3,4.7c-0.4-0.7-0.9-1.3-1.7-1.6c-1-0.5-2.2-0.5-3.1-0.1l-5.4-9.3
					c0.2-0.2,0.4-0.5,0.5-0.7c0.9-1.9,0.1-4.2-1.8-5.1c-1.9-0.9-4.2-0.1-5.1,1.8c-0.2,0.4-0.3,0.9-0.4,1.4l-12.6,3.6
					c-0.4-0.6-0.9-1.2-1.6-1.5c-1.9-0.9-4.2-0.1-5.1,1.8C38.8,259.9,39.6,262.2,41.5,263.1z M93.9,261.2c1,0.5,1.4,1.6,0.9,2.6
					s-1.6,1.4-2.6,0.9c-1-0.5-1.4-1.6-0.9-2.6S93,260.8,93.9,261.2z M73.5,267.9c1,0.5,1.4,1.6,0.9,2.6s-1.6,1.4-2.6,0.9
					c-1-0.5-1.4-1.6-0.9-2.6C71.4,267.9,72.6,267.5,73.5,267.9L73.5,267.9z M63.7,252.7c1,0.5,1.4,1.6,0.9,2.6
					c-0.5,1-1.6,1.4-2.6,0.9c-1-0.5-1.4-1.6-0.9-2.6C61.6,252.7,62.8,252.3,63.7,252.7L63.7,252.7z M44,258c1,0.5,1.4,1.6,0.9,2.6
					c-0.5,1-1.6,1.4-2.6,0.9c-1-0.5-1.4-1.6-0.9-2.6C41.9,257.9,43,257.5,44,258L44,258z"/>
			</g>
			<g>
				<path class="st26" d="M33.7,274.5l8.9,4.3l-6.2,12.8l-8.9-4.3L33.7,274.5z"/>
				<path class="st27" d="M36.1,292.3l-8.9-4.3c-0.4-0.2-0.6-0.7-0.4-1l6.2-12.8c0.2-0.4,0.7-0.6,1-0.4l8.9,4.3
					c0.4,0.2,0.6,0.7,0.4,1l-6.2,12.8C36.9,292.3,36.5,292.5,36.1,292.3z M28.5,286.9l7.5,3.6l5.5-11.4l-7.5-3.6L28.5,286.9z"/>
				<path class="st28" d="M52.3,267.5l8.9,4.3l-12.5,25.8l-8.9-4.3L52.3,267.5z"/>
				<path class="st27" d="M48.5,298.3l-8.9-4.3c-0.4-0.2-0.6-0.7-0.4-1l12.5-25.8c0.2-0.4,0.7-0.6,1-0.4l8.9,4.3
					c0.4,0.2,0.6,0.7,0.4,1l-12.5,25.8C49.4,298.3,48.9,298.5,48.5,298.3z M40.9,292.9l7.5,3.6l11.8-24.3l-7.5-3.6L40.9,292.9z"/>
				<path class="st29" d="M61.6,280.1l8.9,4.3l-9.3,19.2l-8.9-4.3L61.6,280.1z"/>
				<path class="st27" d="M60.9,304.3L52,300c-0.4-0.2-0.6-0.7-0.4-1l9.3-19.2c0.2-0.4,0.7-0.6,1-0.4l8.9,4.3c0.4,0.2,0.6,0.7,0.4,1
					l-9.3,19.2C61.8,304.3,61.3,304.5,60.9,304.3z M53.4,298.9l7.5,3.6l8.6-17.8l-7.5-3.6L53.4,298.9z"/>
				<path class="st30" d="M79.6,274.5l8.9,4.3l-14.9,30.8l-8.9-4.3L79.6,274.5z"/>
				<path class="st27" d="M73.3,310.3l-8.9-4.3c-0.4-0.2-0.6-0.7-0.4-1l14.9-30.8c0.2-0.4,0.7-0.6,1-0.4l8.9,4.3
					c0.4,0.2,0.6,0.7,0.4,1l-14.9,30.8C74.2,310.3,73.7,310.5,73.3,310.3L73.3,310.3z M65.8,304.9l7.5,3.6l14.2-29.4l-7.5-3.6
					L65.8,304.9z"/>
			</g>
		</g>
	</g>
	<g>
		<g>
			<path class="st0" d="M84.2,533.6L4.1,493.3c-2.3-1.2-3.3-4-2.1-6.4l37.4-74.4c1.2-2.3,4-3.3,6.4-2.1l80.1,40.3
				c2.3,1.2,3.3,4,2.1,6.4l-37.4,74.4C89.4,533.8,86.6,534.8,84.2,533.6z"/>
			<path class="st1" d="M125.9,450.7l-6.2-3.1c2.3,1.2,3.3,4,2.1,6.4l-37.4,74.4c-1.2,2.3-4,3.3-6.4,2.1l6.2,3.1
				c2.3,1.2,5.2,0.2,6.4-2.1l37.4-74.4C129.2,454.7,128.2,451.9,125.9,450.7z"/>
			<path class="st2" d="M33.5,424.3l88.6,44.5l5.9-11.7c1.2-2.3,0.2-5.2-2.1-6.4l-80.1-40.3c-2.3-1.2-5.2-0.2-6.4,2.1L33.5,424.3z"
				/>
			<path class="st3" d="M125.9,450.7l-6.2-3.1c2.3,1.2,3.3,4,2.1,6.4l-5.9,11.7l6.2,3.1l5.9-11.7
				C129.2,454.7,128.2,451.9,125.9,450.7z"/>
			<path class="st4" d="M51.3,423.2c-0.9,1.7-3,2.4-4.7,1.6s-2.4-3-1.6-4.7c0.9-1.7,3-2.4,4.7-1.6C51.5,419.4,52.2,421.5,51.3,423.2
				z"/>
			<path class="st5" d="M61.9,428.6c-0.9,1.7-3,2.4-4.7,1.6c-1.7-0.9-2.4-3-1.6-4.7c0.9-1.7,3-2.4,4.7-1.6
				C62.1,424.7,62.8,426.8,61.9,428.6z"/>
			<path class="st6" d="M72.6,433.9c-0.9,1.7-3,2.4-4.7,1.6s-2.4-3-1.6-4.7c0.9-1.7,3-2.4,4.7-1.6C72.8,430.1,73.5,432.2,72.6,433.9
				z"/>
			<path class="st7" d="M46.2,425.6c-2.2-1.1-3-3.7-1.9-5.9c1.1-2.2,3.7-3,5.9-1.9s3,3.7,1.9,5.9C51,425.8,48.3,426.6,46.2,425.6z
				 M49.3,419.3c-1.3-0.7-2.9-0.1-3.6,1.2c-0.7,1.3-0.1,2.9,1.2,3.6c1.3,0.7,2.9,0.1,3.6-1.2S50.7,419.9,49.3,419.3z"/>
			<path class="st7" d="M56.8,430.9c-2.2-1.1-3-3.7-1.9-5.9s3.7-3,5.9-1.9s3,3.7,1.9,5.9S59,432,56.8,430.9z M60,424.6
				c-1.3-0.7-2.9-0.1-3.6,1.2c-0.7,1.3-0.1,2.9,1.2,3.6c1.3,0.7,2.9,0.1,3.6-1.2S61.3,425.3,60,424.6z"/>
			<path class="st7" d="M67.5,436.3c-2.2-1.1-3-3.7-1.9-5.9s3.7-3,5.9-1.9s3,3.7,1.9,5.9C72.3,436.5,69.6,437.3,67.5,436.3z
				 M70.7,430c-1.3-0.7-2.9-0.1-3.6,1.2c-0.7,1.3-0.1,2.9,1.2,3.6c1.3,0.7,2.9,0.1,3.6-1.2C72.5,432.2,72,430.6,70.7,430z"/>
			<path class="st7" d="M83.6,441.1l32.6,16.4c0.7,0.4,1.6,0.1,2-0.7c0.4-0.7,0.1-1.6-0.7-2l-32.6-16.4c-0.7-0.4-1.6-0.1-2,0.7
				C82.5,439.8,82.8,440.7,83.6,441.1z"/>
			<path class="st7" d="M126.6,449.4l-80.1-40.3c-3.1-1.6-6.8-0.3-8.4,2.8L0.7,486.3c-1.5,3.1-0.3,6.8,2.8,8.4l80.1,40.3
				c3.1,1.5,6.8,0.3,8.4-2.8l37.4-74.4C130.9,454.7,129.6,450.9,126.6,449.4z M84.9,532.3L4.8,492c-1.6-0.8-2.3-2.8-1.4-4.4
				l30.8-61.4l7.5,3.7c0.7,0.4,1.6,0.1,2-0.7c0.4-0.7,0.1-1.6-0.7-2l-7.5-3.7l5.2-10.4c0.8-1.6,2.8-2.3,4.4-1.4l80.1,40.3
				c1.6,0.8,2.3,2.8,1.4,4.4l-5.2,10.4L48,429.9c-0.7-0.4-1.6-0.1-2,0.7c-0.4,0.7-0.1,1.6,0.7,2l73.5,36.9l-30.8,61.4
				C88.5,532.4,86.5,533.1,84.9,532.3z"/>
		</g>
		<g>
			<g>
				<path class="st30" d="M52.4,466.2l26,13c0.4,0.2,0.9,0,1.2-0.4l0.8-1.5c0.2-0.4,0-0.9-0.4-1.2l-26-13c-0.4-0.2-0.9,0-1.2,0.4
					l-0.8,1.5C51.8,465.5,51.9,466,52.4,466.2L52.4,466.2z"/>
			</g>
			<g>
				<path class="st31" d="M64.9,472.5l0.8,0.4l11.7,5.9l-14.8,7.3l-4.6,9.1c-0.1,0.2-0.4,0.3-0.6,0.2l-5.6-2.8
					c-0.2-0.1-0.3-0.4-0.2-0.6l4.6-9.1l-3-16.2L64.9,472.5z"/>
			</g>
			<g>
				<g>
					<g>
						<path class="st32" d="M56.8,459.9l5.7,2.9l0.6-1.2c0.7-1.4,0.1-3-1.2-3.7l-0.8-0.4c-1.4-0.7-3-0.1-3.7,1.2L56.8,459.9
							L56.8,459.9z"/>
					</g>
					<g>
						<path class="st7" d="M56.6,460.3c-0.2-0.1-0.3-0.4-0.2-0.6l0.6-1.2c0.8-1.6,2.7-2.2,4.3-1.4l0.8,0.4c1.6,0.8,2.2,2.7,1.4,4.3
							l-0.6,1.2c-0.1,0.2-0.4,0.3-0.6,0.2L56.6,460.3L56.6,460.3z M62.3,462.2l0.4-0.8c0.6-1.1,0.1-2.5-1-3.1l-0.8-0.4
							c-1.1-0.6-2.5-0.1-3.1,1l-0.4,0.8L62.3,462.2L62.3,462.2z"/>
						<path class="st33" d="M56.1,459.6l0.6-1.2c0.9-1.7,3-2.4,4.7-1.5l0.8,0.4c1.7,0.9,2.4,3,1.5,4.7l-0.6,1.2
							c-0.2,0.4-0.6,0.5-1,0.3l-5.7-2.9C56.1,460.4,56,459.9,56.1,459.6z M61.1,457.4c-1.4-0.7-3.1-0.1-3.8,1.3l-0.6,1.2
							c0,0.1,0,0.1,0.1,0.2l5.7,2.9c0.1,0,0.1,0,0.2-0.1l0.6-1.2c0.7-1.4,0.1-3.1-1.3-3.8L61.1,457.4z M57.5,458.8
							c0.7-1.3,2.2-1.8,3.5-1.2l0.8,0.4c1.3,0.7,1.8,2.2,1.2,3.5l-0.5,1.1l-5.5-2.8L57.5,458.8z M62.4,461.3c0.5-1,0.1-2.2-0.9-2.7
							l-0.8-0.4c-1-0.5-2.2-0.1-2.7,0.9l-0.3,0.5l4.4,2.2L62.4,461.3z"/>
					</g>
					<g>
						<circle class="st34" cx="62.9" cy="454.9" r="3.2"/>
					</g>
					<g>
						<path class="st7" d="M59.7,453.3c0.9-1.8,3.1-2.5,4.8-1.6c1.8,0.9,2.5,3.1,1.6,4.8c-0.9,1.8-3.1,2.5-4.8,1.6
							C59.5,457.2,58.8,455,59.7,453.3z M60.4,453.6c-0.7,1.4-0.1,3,1.2,3.7c1.4,0.7,3,0.1,3.7-1.2c0.7-1.4,0.1-3-1.2-3.7
							C62.8,451.7,61.1,452.3,60.4,453.6z"/>
						<path class="st33" d="M59.4,453.1c1-1.9,3.3-2.7,5.3-1.7c1.9,1,2.7,3.3,1.7,5.3c-1,1.9-3.3,2.7-5.3,1.7
							C59.2,457.4,58.4,455.1,59.4,453.1z M59.9,453.4c-0.8,1.6-0.2,3.6,1.5,4.4s3.6,0.2,4.4-1.5c0.8-1.6,0.2-3.6-1.5-4.4
							C62.7,451.1,60.7,451.8,59.9,453.4z M60.1,453.5c0.8-1.5,2.6-2.1,4.1-1.4c1.5,0.8,2.1,2.6,1.4,4.1c-0.8,1.5-2.6,2.1-4.1,1.4
							C60,456.9,59.4,455,60.1,453.5z M60.7,453.8c-0.6,1.2-0.1,2.7,1.1,3.3s2.7,0.1,3.3-1.1s0.1-2.7-1.1-3.3S61.3,452.6,60.7,453.8
							z"/>
					</g>
				</g>
				<g>
					<g>
						<path class="st35" d="M65.1,464l7.5,3.7l0.8-1.5c0.9-1.8,0.2-3.9-1.6-4.8l-1-0.5c-1.8-0.9-3.9-0.2-4.8,1.6L65.1,464L65.1,464z
							"/>
					</g>
					<g>
						<path class="st7" d="M64.8,464.4c-0.2-0.1-0.3-0.4-0.2-0.7l0.8-1.5c1-2,3.5-2.8,5.5-1.8l1,0.5c2,1,2.8,3.5,1.8,5.5L73,468
							c-0.1,0.2-0.4,0.3-0.7,0.2L64.8,464.4L64.8,464.4z M72.3,467.1l0.5-1.1c0.8-1.5,0.1-3.4-1.4-4.2l-1-0.5
							c-1.5-0.8-3.4-0.1-4.2,1.4l-0.5,1.1L72.3,467.1L72.3,467.1z"/>
						<path class="st7" d="M64.3,463.6l0.8-1.5c1.1-2.2,3.8-3.1,6-2l1,0.5c2.2,1.1,3.1,3.8,2,6l-0.8,1.5c-0.2,0.4-0.7,0.6-1.1,0.4
							l-7.5-3.7C64.3,464.5,64.1,464,64.3,463.6z M70.7,460.7c-1.8-0.9-4.1-0.2-5,1.7l-0.8,1.5c0,0.1,0,0.2,0.1,0.2l7.5,3.7
							c0.1,0,0.2,0,0.2-0.1l0.8-1.5c0.9-1.8,0.2-4.1-1.7-5L70.7,460.7z M66,462.5c0.9-1.7,2.9-2.4,4.7-1.5l1,0.5
							c1.7,0.9,2.4,2.9,1.5,4.7l-0.7,1.4l-7.2-3.6L66,462.5z M72.5,465.8c0.7-1.4,0.1-3-1.2-3.7l-1-0.5c-1.4-0.7-3-0.1-3.7,1.2
							l-0.4,0.8l5.9,3L72.5,465.8z"/>
					</g>
					<g>
						<circle class="st34" cx="73.1" cy="457.4" r="4.2"/>
					</g>
					<g>
						<path class="st7" d="M68.9,455.3c1.2-2.3,4-3.2,6.3-2.1c2.3,1.2,3.2,4,2.1,6.3c-1.2,2.3-4,3.2-6.3,2.1
							C68.7,460.4,67.7,457.6,68.9,455.3z M69.8,455.7c-0.9,1.8-0.2,4,1.6,4.9s4,0.2,4.9-1.6c0.9-1.8,0.2-4-1.6-4.9
							C72.9,453.2,70.7,453.9,69.8,455.7z"/>
						<path class="st7" d="M68.6,455.1c1.2-2.5,4.3-3.5,6.7-2.2c2.5,1.2,3.5,4.3,2.2,6.7c-1.2,2.5-4.3,3.5-6.7,2.2
							C68.3,460.6,67.3,457.6,68.6,455.1z M69.2,455.5c-1.1,2.1-0.2,4.7,1.9,5.8s4.7,0.2,5.8-1.9c1.1-2.1,0.2-4.7-1.9-5.8
							S70.3,453.3,69.2,455.5z M69.4,455.6c1-2,3.4-2.8,5.4-1.8c2,1,2.8,3.4,1.8,5.4c-1,2-3.4,2.8-5.4,1.8
							C69.2,460,68.4,457.6,69.4,455.6z M70.1,455.9c-0.8,1.6-0.2,3.6,1.5,4.5c1.6,0.8,3.6,0.2,4.5-1.5c0.8-1.6,0.2-3.6-1.5-4.5
							C72.9,453.6,70.9,454.3,70.1,455.9z"/>
					</g>
				</g>
				<g>
					<g>
						<path class="st36" d="M75,469.1l5.7,2.9l0.6-1.2c0.7-1.4,0.1-3-1.2-3.7l-0.8-0.4c-1.4-0.7-3-0.1-3.7,1.2L75,469.1L75,469.1z"
							/>
					</g>
					<g>
						<path class="st7" d="M74.9,469.5c-0.2-0.1-0.3-0.4-0.2-0.6l0.6-1.2c0.8-1.6,2.7-2.2,4.3-1.4l0.8,0.4c1.6,0.8,2.2,2.7,1.4,4.3
							l-0.6,1.2c-0.1,0.2-0.4,0.3-0.6,0.2L74.9,469.5L74.9,469.5z M80.9,470.6c0.6-1.1,0.1-2.5-1-3.1l-0.8-0.4
							c-1.1-0.6-2.5-0.1-3.1,1l-0.4,0.8l4.9,2.5L80.9,470.6z"/>
						<path class="st7" d="M74.4,469.3c-0.1-0.2,0-0.4,0-0.6l0.6-1.2c0.9-1.7,3-2.4,4.7-1.5l0.8,0.4c1.7,0.9,2.4,3,1.5,4.7l-0.6,1.2
							c-0.2,0.4-0.6,0.5-1,0.3l-5.7-2.9C74.5,469.7,74.4,469.5,74.4,469.3z M79.4,466.6c-1.4-0.7-3.1-0.1-3.8,1.3l-0.6,1.2
							c0,0,0,0.1,0,0.1c0,0,0,0,0.1,0.1l5.7,2.9c0.1,0,0.1,0,0.2-0.1l0.6-1.2c0.7-1.4,0.1-3.1-1.3-3.8L79.4,466.6z M75.7,468
							c0.7-1.3,2.2-1.8,3.5-1.2l0.8,0.4c1.3,0.7,1.8,2.2,1.2,3.5l-0.5,1.1l-5.5-2.8L75.7,468z M80.7,470.5c0.5-1,0.1-2.2-0.9-2.7
							l-0.8-0.4c-1-0.5-2.2-0.1-2.7,0.9l-0.3,0.5l4.4,2.2L80.7,470.5z"/>
					</g>
					<g>
						<circle class="st34" cx="81.1" cy="464.1" r="3.2"/>
					</g>
					<g>
						<path class="st7" d="M79.5,467.3c-1.8-0.9-2.5-3.1-1.6-4.8c0.9-1.8,3.1-2.5,4.8-1.6c1.8,0.9,2.5,3.1,1.6,4.8
							C83.5,467.5,81.3,468.2,79.5,467.3L79.5,467.3z M78.7,462.8c-0.7,1.4-0.1,3,1.2,3.7c1.4,0.7,3,0.1,3.7-1.2
							c0.7-1.4,0.1-3-1.2-3.7S79.4,461.5,78.7,462.8z"/>
						<path class="st7" d="M77.6,462.3c1-1.9,3.3-2.7,5.3-1.7c1.9,1,2.7,3.3,1.7,5.3s-3.3,2.7-5.3,1.7S76.7,464.2,77.6,462.3z
							 M78.2,462.6c-0.8,1.6-0.2,3.6,1.5,4.4s3.6,0.2,4.4-1.5c0.8-1.6,0.2-3.6-1.5-4.4S79,460.9,78.2,462.6z M78.4,462.7
							c0.8-1.5,2.6-2.1,4.1-1.4c1.5,0.8,2.1,2.6,1.4,4.1c-0.8,1.5-2.6,2.1-4.1,1.4C78.3,466,77.6,464.2,78.4,462.7z M78.9,463
							c-0.6,1.2-0.1,2.7,1.1,3.3c1.2,0.6,2.7,0.1,3.3-1.1s0.1-2.7-1.1-3.3C81,461.3,79.6,461.7,78.9,463z"/>
					</g>
				</g>
			</g>
			<g>
				<g>
					<circle class="st37" cx="50.9" cy="501.5" r="4.9"/>
				</g>
				<g>
					<circle class="st38" cx="50.9" cy="501.5" r="3.5"/>
				</g>
				<g>
					<path class="st37" d="M49.5,503.5c-0.5-0.4-0.7-1-0.5-1.6c0-0.1,0.1-0.1,0.2-0.1l0.5,0.3c0.1,0,0.1,0.1,0.1,0.1
						c-0.1,0.2-0.1,0.4,0.1,0.6c0.1,0.1,0.2,0.1,0.2,0l0.6-1.1c0,0,0-0.1,0-0.1c-0.4-0.4-0.9-0.9-0.4-1.7c0.4-0.6,1-0.9,1.7-0.6
						c0.1,0,0.1,0,0.1-0.1l0.2-0.3c0-0.1,0.1-0.1,0.2,0l0.1,0.1c0.1,0,0.1,0.1,0,0.2l-0.2,0.3c0,0.1,0,0.1,0,0.2
						c0.5,0.4,0.7,0.9,0.4,1.5c0,0.1-0.1,0.1-0.2,0.1l-0.5-0.3c-0.1,0-0.1-0.1-0.1-0.1c0.1-0.2,0-0.4,0-0.5c0-0.1-0.2-0.1-0.2,0
						l-0.6,1.1c0,0,0,0.1,0,0.1c0.4,0.4,0.9,0.9,0.4,1.7c-0.3,0.6-1,0.9-1.7,0.6c-0.1,0-0.1,0-0.1,0.1l-0.2,0.3c0,0.1-0.1,0.1-0.2,0
						l-0.1-0.1c-0.1,0-0.1-0.1,0-0.2l0.2-0.3C49.5,503.6,49.5,503.5,49.5,503.5L49.5,503.5z M51,500.9l0.5-0.9c0-0.1,0-0.2-0.1-0.2
						c-0.3,0-0.5,0.1-0.7,0.4c-0.2,0.3-0.1,0.5,0.1,0.7C50.9,501,51,501,51,500.9z M50.8,502.1l-0.5,0.9c0,0.1,0,0.2,0.1,0.2
						c0.3,0,0.5-0.1,0.7-0.4c0.2-0.3,0.1-0.5-0.1-0.7C51,502,50.8,502,50.8,502.1z"/>
				</g>
				<g>
					<path class="st7" d="M48.5,506.3c-2.6-1.3-3.7-4.5-2.4-7.2c1.3-2.6,4.5-3.7,7.2-2.4c2.6,1.3,3.7,4.5,2.4,7.2
						C54.3,506.6,51.1,507.6,48.5,506.3L48.5,506.3z M52.9,497.5c-2.2-1.1-4.9-0.2-6,2c-1.1,2.2-0.2,4.9,2,6c2.2,1.1,4.9,0.2,6-2
						C56,501.3,55.1,498.6,52.9,497.5L52.9,497.5z"/>
					<path class="st33" d="M45.8,499c1.4-2.8,4.8-3.9,7.6-2.5c2.8,1.4,3.9,4.8,2.5,7.6s-4.8,3.9-7.6,2.5S44.4,501.8,45.8,499z
						 M46.4,499.3c-1.2,2.5-0.2,5.5,2.2,6.8c2.5,1.2,5.5,0.2,6.8-2.2c1.2-2.5,0.2-5.5-2.2-6.8C50.7,495.8,47.6,496.8,46.4,499.3z
						 M46.6,499.4c1.2-2.4,4.1-3.3,6.5-2.1c2.4,1.2,3.3,4.1,2.1,6.5c-1.2,2.4-4.1,3.3-6.5,2.1C46.4,504.6,45.4,501.7,46.6,499.4z
						 M47.1,499.6c-1,2.1-0.2,4.6,1.9,5.6c2.1,1,4.6,0.2,5.6-1.9c1-2.1,0.2-4.6-1.9-5.6C50.7,496.7,48.2,497.6,47.1,499.6z"/>
				</g>
			</g>
			<g>
				<path class="st28" d="M47.4,493.5l-7.2,3.7c-0.2,0.1-0.5,0-0.5-0.3l-1.3-8c0-0.3,0.3-0.5,0.5-0.4l1.5,0.7c0.2,0.1,0.4,0,0.5-0.2
					l4.6-9.1c0.1-0.2,0.3-0.3,0.5-0.2l4.3,2.1c0.2,0.1,0.3,0.3,0.2,0.5l-4.6,9.1c-0.1,0.2,0,0.4,0.2,0.5l1.5,0.7
					C47.7,493,47.7,493.4,47.4,493.5L47.4,493.5z"/>
				<path class="st7" d="M39.6,497.8c-0.3-0.1-0.5-0.4-0.6-0.8l-1.3-8c-0.1-0.4,0.1-0.8,0.4-1c0.3-0.2,0.7-0.3,1.1-0.1l1.2,0.6
					l4.5-8.9c0.3-0.5,0.9-0.7,1.4-0.5l4.3,2.1c0.5,0.3,0.7,0.9,0.5,1.4l-4.5,8.9l1.2,0.6c0.4,0.2,0.6,0.5,0.6,0.9
					c0,0.4-0.2,0.7-0.6,0.9l-7.2,3.7C40.3,498,39.9,498,39.6,497.8C39.6,497.8,39.6,497.8,39.6,497.8z M45.7,492.7
					c-0.5-0.3-0.7-0.9-0.5-1.4l4.5-8.9l-3.7-1.9l-4.5,8.9c-0.3,0.5-0.9,0.7-1.4,0.5l-0.9-0.5l1.1,7l6.3-3.3L45.7,492.7z M47.1,492.9
					C47.1,492.9,47.1,492.9,47.1,492.9L47.1,492.9L47.1,492.9z"/>
			</g>
			<g>
				<g>
					<path class="st7" d="M51.6,464.9l0.8-1.5c0.3-0.6,1.1-0.9,1.7-0.6l26,13c0.6,0.3,0.9,1.1,0.6,1.7l-0.8,1.5
						c-0.3,0.6-1.1,0.9-1.7,0.6l-26-13C51.5,466.3,51.3,465.5,51.6,464.9z M53.7,463.5c-0.2-0.1-0.5,0-0.6,0.2l-0.8,1.5
						c-0.1,0.2,0,0.5,0.2,0.6l26,13c0.2,0.1,0.5,0,0.6-0.2l0.8-1.5c0.1-0.2,0-0.5-0.2-0.6L53.7,463.5z"/>
					<path class="st7" d="M51.2,464.7l0.8-1.5c0.4-0.9,1.5-1.2,2.3-0.8l26,13c0.9,0.4,1.2,1.5,0.8,2.3l-0.8,1.5
						c-0.4,0.9-1.5,1.2-2.3,0.8l-26-13C51.1,466.6,50.8,465.5,51.2,464.7z M53.5,463.9l-0.8,1.5l25.9,13.1l0.8-1.5L53.5,463.9z"/>
				</g>
				<g>
					<path class="st7" d="M51.3,491.8l4.5-9l-3-16.1c0-0.2,0-0.3,0.2-0.4c0.1-0.1,0.3-0.1,0.4,0l24.2,12.1c0.1,0.1,0.2,0.2,0.2,0.4
						c0,0.2-0.1,0.3-0.2,0.4L63,486.4l-4.5,9c-0.2,0.4-0.7,0.6-1.1,0.4l-5.6-2.8C51.3,492.7,51.1,492.2,51.3,491.8z M76.5,478.8
						l-22.6-11.4l2.8,15.4c0,0.1,0,0.2,0,0.3l-4.6,9.1l5.6,2.8l4.6-9.1c0-0.1,0.1-0.1,0.2-0.2L76.5,478.8L76.5,478.8z"/>
					<path class="st7" d="M50.9,491.6l4.4-8.8l-2.9-15.9c-0.1-0.3,0.1-0.7,0.3-0.9c0.3-0.2,0.6-0.2,0.9-0.1L77.8,478
						c0.3,0.2,0.5,0.5,0.5,0.8c0,0.3-0.2,0.6-0.5,0.8l-14.5,7.1l-4.4,8.8c-0.3,0.6-1.1,0.9-1.8,0.6l-5.6-2.8
						C50.8,493,50.6,492.2,50.9,491.6z M61.9,485.7c0.1-0.2,0.2-0.3,0.4-0.4l13.2-6.5l-21-10.6l2.7,14.5c0,0.2,0,0.4-0.1,0.6
						l-4.4,8.7l4.8,2.4L61.9,485.7z"/>
				</g>
			</g>
		</g>
	</g>
</g>
</svg>
