<?xml version="1.0" encoding="utf-8"?>
<!-- Generator: Adobe Illustrator 25.0.0, SVG Export Plug-In . SVG Version: 6.00 Build 0)  -->
<svg version="1.1" id="Layer_1" xmlns="http://www.w3.org/2000/svg" xmlns:xlink="http://www.w3.org/1999/xlink" x="0px" y="0px"
	 viewBox="0 0 130 535.6" style="enable-background:new 0 0 130 535.6;" xml:space="preserve">
<style type="text/css">
	.st0{fill:#F4F4F4;}
	.st1{fill:#E8E8E8;}
	.st2{fill:#5994CE;}
	.st3{fill:#4C7EB0;}
	.st4{fill:#FA5D72;}
	.st5{fill:#F6D867;}
	.st6{fill:#2CAB72;}
	.st7{fill:#35414D;}
	.st8{fill:#FFE27A;}
	.st9{fill:#F9CF58;}
	.st10{fill:#8BCAFF;}
	.st11{fill:#98DB7C;}
	.st12{fill:#82D361;}
	.st13{fill:#6CC4FF;}
	.st14{fill:#FFBA57;}
	.st15{fill:#FFAC3E;}
	.st16{fill:#FD646F;}
	.st17{fill:#CC5266;}
	.st18{fill:#07BEEF;}
	.st19{fill:#FC635B;}
	.st20{fill:#7EC927;}
	.st21{fill:#FFA733;}
	.st22{fill:#00B6E0;}
	.st23{fill:#F34234;}
	.st24{fill:#60A917;}
	.st25{fill:#FF9801;}
	.st26{fill:#EF6D7A;}
	.st27{fill:#3A312A;}
	.st28{fill:#D6DF58;}
	.st29{fill:#8AC5DC;}
	.st30{fill:#87796F;}
	.st31{fill:#C1A897;}
	.st32{fill:#F9A7A7;}
	.st33{fill:#36414D;}
	.st34{fill:#FFE4CF;}
	.st35{fill:#E0EBFC;}
	.st36{fill:#B9BEFC;}
	.st37{fill:#EAA97D;}
	.st38{fill:#FFEA92;}
</style>
<g>
	<g>
		<g>
			<path class="st0" d="M39.3,123L2,48.6c-1.2-2.3-0.2-5.2,2.1-6.4L84.3,2c2.3-1.2,5.2-0.2,6.4,2.1L128,78.6
				c1.2,2.3,0.2,5.2-2.1,6.4l-80.2,40.2C43.4,126.3,40.5,125.3,39.3,123z"/>
			<path class="st1" d="M2,48.6L39.3,123c1.2,2.3,4,3.3,6.4,2.1l6.2-3.1c-2.3,1.2-5.2,0.2-6.4-2.1L8.3,45.4
				c-1.2-2.3-0.2-5.2,2.1-6.4l-6.2,3.1C1.8,43.4,0.8,46.2,2,48.6z"/>
			<path class="st2" d="M90.7,4.1c-1.2-2.3-4-3.3-6.4-2.1L4.1,42.2c-2.3,1.2-3.3,4-2.1,6.4l5.9,11.7l88.7-44.4L90.7,4.1z"/>
			<path class="st3" d="M2,48.6l5.9,11.7l6.2-3.1L8.3,45.4c-1.2-2.3-0.2-5.2,2.1-6.4l-6.2,3.1C1.8,43.4,0.8,46.2,2,48.6z"/>
			<path class="st4" d="M80.3,10c1.7-0.9,3.9-0.2,4.7,1.6c0.9,1.7,0.2,3.9-1.6,4.7c-1.7,0.9-3.9,0.2-4.7-1.6S78.6,10.9,80.3,10z"/>
			<path class="st5" d="M69.7,15.4c1.7-0.9,3.9-0.2,4.7,1.6c0.9,1.7,0.2,3.9-1.6,4.7c-1.7,0.9-3.9,0.2-4.7-1.6
				C67.2,18.4,67.9,16.3,69.7,15.4z"/>
			<path class="st6" d="M59,20.7c1.7-0.9,3.9-0.2,4.7,1.6c0.9,1.7,0.2,3.9-1.6,4.7c-1.7,0.9-3.9,0.2-4.7-1.6
				C56.6,23.7,57.3,21.6,59,20.7z"/>
			<path class="st7" d="M78,15.1c-1.1-2.2-0.2-4.8,2-5.9s4.8-0.2,5.9,2s0.2,4.8-2,5.9C81.7,18.2,79.1,17.3,78,15.1z M79.5,14.4
				c0.7,1.3,2.3,1.8,3.6,1.2c1.3-0.7,1.8-2.3,1.2-3.6c-0.7-1.3-2.3-1.8-3.6-1.2C79.4,11.5,78.9,13.1,79.5,14.4z"/>
			<path class="st7" d="M67.3,20.5c-1.1-2.2-0.2-4.8,2-5.9s4.8-0.2,5.9,2s0.2,4.8-2,5.9C71,23.5,68.4,22.7,67.3,20.5z M68.9,19.7
				c0.7,1.3,2.3,1.8,3.6,1.2c1.3-0.7,1.8-2.3,1.2-3.6C73,16,71.4,15.5,70,16.1C68.7,16.8,68.2,18.4,68.9,19.7z"/>
			<path class="st7" d="M56.7,25.8c-1.1-2.2-0.2-4.8,2-5.9s4.8-0.2,5.9,2c1.1,2.2,0.2,4.8-2,5.9C60.4,28.9,57.7,28,56.7,25.8z
				 M58.2,25.1c0.7,1.3,2.3,1.8,3.6,1.2c1.3-0.7,1.8-2.3,1.2-3.6c-0.7-1.3-2.3-1.8-3.6-1.2S57.5,23.8,58.2,25.1z"/>
			<path class="st7" d="M47.1,30.6c-0.4-0.7-1.3-1-2-0.7L12.5,46.3c-0.7,0.4-1,1.3-0.7,2c0.4,0.7,1.3,1,2,0.7l32.6-16.3
				C47.2,32.3,47.5,31.4,47.1,30.6z"/>
			<path class="st7" d="M0.7,49.2L38,123.7c1.5,3.1,5.3,4.3,8.4,2.8l80.2-40.2c3.1-1.5,4.3-5.3,2.8-8.4L92,3.4
				c-1.5-3.1-5.3-4.3-8.4-2.8L3.5,40.8C0.4,42.4-0.9,46.2,0.7,49.2z M40.7,122.3L9.9,60.9l73.5-36.9c0.7-0.4,1-1.3,0.7-2
				c-0.4-0.7-1.3-1-2-0.7L8.6,58.3L3.4,47.9c-0.8-1.6-0.2-3.6,1.5-4.4L85,3.3c1.6-0.8,3.6-0.2,4.4,1.5l5.2,10.4l-7.5,3.7
				c-0.7,0.4-1,1.3-0.7,2c0.4,0.7,1.3,1,2,0.7l7.5-3.7l30.8,61.4c0.8,1.6,0.2,3.6-1.5,4.4L45,123.8
				C43.4,124.6,41.5,123.9,40.7,122.3z"/>
		</g>
		<g>
			<g>
				<path class="st8" d="M57.7,49L57.7,49c-11.3,5.7-16.2,18.9-11.8,30.4l5.6-3.1c-2.7-8.3,1-17.6,9.1-21.6l0,0l1.1,2.2l3.3-7.3
					L56.7,47L57.7,49"/>
				<path class="st9" d="M61.7,56.9l2.5-5.5c-1.5,0.3-3,0.8-4.5,1.5c-8.6,4.3-12.3,14.7-8.4,23.4l0.2-0.1c-2.7-8.3,1-17.6,9.1-21.6
					l0,0L61.7,56.9z"/>
				<path class="st10" d="M46.9,81.6C46.9,81.6,46.9,81.6,46.9,81.6c5.7,11.3,18.9,16.3,30.4,11.9l-3.2-5.6
					c-8.3,2.6-17.5-1.1-21.5-9.1c0,0,0,0,0,0l0,0l2.2-1.1l-7.3-3.3l-2.6,8.2L46.9,81.6"/>
				<path class="st11" d="M76.6,86.8C76.7,86.8,76.7,86.8,76.6,86.8c8.1-4,11.8-13.3,9.1-21.5l5.6-3.3c4.4,11.5-0.5,24.8-11.8,30.5
					c0,0,0,0,0,0l0,0l1,2l-8.2-2.6l3.3-7.3L76.6,86.8L76.6,86.8z"/>
				<path class="st12" d="M78.7,90.8c-1.5,0.7-3,1.3-4.5,1.7l6.3,2l-1-2c0,0,0,0,0,0C90.8,86.8,95.8,73.6,91.4,62l-0.1,0.5
					C94.3,73.5,89.3,85.5,78.7,90.8L78.7,90.8z"/>
				<path class="st13" d="M74.1,92.5C63.8,95.3,52.6,91,46.9,81.6l-0.1,0c0,0,0,0,0,0c5.7,11.3,18.9,16.2,30.4,11.8L74.1,92.5z"/>
				<path class="st14" d="M90.4,59.8C90.4,59.8,90.4,59.8,90.4,59.8C84.7,48.5,71.5,43.6,59.9,48l5.1,1.6l-1.8,4
					c8.3-2.7,17.5,1,21.6,9.1c0,0,0,0,0,0l0,0l-2.2,1.1l7.3,3.3l2.6-8.2L90.4,59.8z"/>
				<g>
					<path class="st15" d="M64.2,51.4l-1,2.2c8-2.6,16.9,0.8,21.1,8.2c-0.1-0.3-0.3-0.6-0.4-0.9C80.1,53.5,71.9,49.8,64.2,51.4
						L64.2,51.4z"/>
				</g>
				<g>
					<path class="st7" d="M92.9,58.2C92.7,58,92.3,58,92,58.1l-1.2,0.6c-2.9-5.3-7.5-9.4-13.1-11.5c-5.7-2.2-12-2.2-17.8-0.1
						l-2.9-0.9c-0.6-0.2-1.3,0.5-1,1.1l0.6,1.3c-4.3,2.4-7.9,5.9-10.2,10.2c-0.2,0.4-0.1,0.9,0.3,1.1c0.4,0.2,0.9,0.1,1.1-0.3
						c2.3-4.3,5.8-7.7,10.2-9.9c0.4-0.2,0.6-0.7,0.4-1.1l-0.1-0.3l5.6,1.7L61.6,55l-0.4-0.7c-0.2-0.4-0.7-0.6-1.1-0.4
						c-4,2-7.2,5.4-9,9.6c-1.5,3.6-1.8,7.5-1,11.3l-2.5-1.1c-0.4-0.2-1,0-1.1,0.5l-0.8,2.6c-1.2-4.7-1-9.7,0.7-14.3
						c0.2-0.4-0.1-0.9-0.5-1c-0.4-0.2-0.9,0.1-1,0.5c-2.1,5.7-2.2,11.9-0.1,17.6l-0.9,3c-0.2,0.6,0.5,1.3,1.1,1l1.3-0.6
						c2.9,5.3,7.5,9.4,13.1,11.5c5.7,2.2,12,2.3,17.8,0.1l2.9,0.9c0.7,0.2,1.3-0.5,1-1.1l-0.6-1.3c4.4-2.4,8-6,10.3-10.4
						c0.2-0.4,0.1-0.9-0.3-1.1c-0.4-0.2-0.9-0.1-1.1,0.3c-2.3,4.4-5.9,7.9-10.3,10.1l0,0c-0.4,0.2-0.6,0.7-0.4,1.1l0.1,0.3l-5.6-1.7
						l2.2-4.9l0.4,0.7c0.2,0.4,0.7,0.6,1.1,0.4l0,0c4-2,7.2-5.4,8.9-9.6c1.5-3.6,1.8-7.5,1-11.3l2.4,1.1c0.4,0.2,1,0,1.1-0.5
						l0.8-2.7c1.2,4.7,1,9.6-0.7,14.2c-0.2,0.4,0.1,0.9,0.5,1c0.4,0.2,0.9-0.1,1-0.5c2.1-5.6,2.1-11.8,0-17.4l0.9-2.9
						C93.2,58.8,93.1,58.5,92.9,58.2L92.9,58.2z M71.5,91.6c-0.2,0.4,0,1,0.5,1.1l2.6,0.8c-4.8,1.3-9.8,1-14.5-0.8
						c-5.5-2.1-10-6.2-12.6-11.4l0,0c-0.2-0.4-0.7-0.6-1.1-0.4l-0.3,0.1l1.7-5.6l4.9,2.2l-0.7,0.3c-0.4,0.2-0.6,0.7-0.4,1.1l0,0
						c2,4,5.4,7.2,9.6,8.9c3.6,1.5,7.5,1.8,11.3,1L71.5,91.6z M84.5,77.4c-1.5,3.6-4.1,6.5-7.5,8.4l-0.7-1.5c-0.3-0.6-1.2-0.6-1.5,0
						l-1.3,2.9c-3.8,1.1-7.8,0.9-11.5-0.6c-3.6-1.5-6.5-4.1-8.4-7.5l1.5-0.7c0.6-0.3,0.6-1.2,0-1.5l-2.9-1.3
						c-1.1-3.8-0.9-7.9,0.6-11.5c1.5-3.6,4.1-6.5,7.5-8.4l0.7,1.5c0.3,0.6,1.2,0.6,1.5,0l1.3-2.9c3.8-1.1,7.9-0.9,11.5,0.6
						c3.6,1.5,6.5,4.1,8.4,7.5l-1.5,0.8c-0.6,0.3-0.6,1.2,0,1.5l3,1.3C86.3,69.6,86.1,73.7,84.5,77.4L84.5,77.4z M89.3,66l-4.9-2.2
						l0.7-0.4c0.4-0.2,0.6-0.7,0.4-1.1l0,0c-2-4-5.4-7.2-9.6-9c-3.6-1.5-7.5-1.8-11.3-1l1.1-2.5c0.2-0.4,0-1-0.5-1.1l-2.7-0.8
						c4.8-1.3,9.9-1,14.5,0.8c5.5,2.1,10,6.2,12.6,11.4l0,0c0.2,0.4,0.7,0.6,1.1,0.4l0.3-0.1L89.3,66z"/>
					<path class="st7" d="M80.9,95.4c-0.2,0.1-0.5,0.1-0.7,0l-2.9-0.9c-5.8,2.1-12.1,2.1-17.8-0.2c-5.6-2.2-10.2-6.2-13.1-11.5
						l-1.2,0.6c-0.3,0.2-0.7,0.1-1-0.1c-0.3-0.3-0.4-0.6-0.3-1l0.9-2.9c-2.1-5.7-2.1-12,0.1-17.6c0.2-0.5,0.7-0.7,1.2-0.5
						c0.5,0.2,0.7,0.7,0.5,1.2c-1.7,4.4-2,9.2-0.9,13.8l0.7-2.1c0.1-0.3,0.3-0.5,0.5-0.6c0.3-0.1,0.5-0.1,0.8,0l2.2,1
						c-0.8-3.7-0.4-7.6,1.1-11.1c1.7-4.2,4.9-7.6,9-9.7c0.5-0.2,1,0,1.3,0.4l0.2,0.5l2.1-4.5l-5.1-1.6c0.2,0.5,0,1-0.4,1.3
						c-4.4,2.2-7.9,5.6-10.1,9.9c-0.1,0.2-0.3,0.4-0.6,0.5c-0.2,0.1-0.5,0-0.7-0.1c-0.2-0.1-0.4-0.3-0.5-0.6c-0.1-0.2,0-0.5,0.1-0.7
						c2.3-4.3,5.8-7.9,10.1-10.2l-0.6-1.1c-0.2-0.3-0.1-0.7,0.1-1c0.3-0.3,0.6-0.4,1-0.3l2.9,0.9c5.8-2.1,12.1-2.1,17.8,0.1
						c5.6,2.1,10.3,6.2,13.1,11.5L92,58c0.3-0.2,0.7-0.1,1,0.1l0,0c0.3,0.2,0.4,0.6,0.3,1L92.4,62c2.1,5.6,2.1,11.8,0,17.5
						c-0.1,0.2-0.2,0.4-0.5,0.5c0,0,0,0,0,0c-0.2,0.1-0.5,0.1-0.7,0c-0.2-0.1-0.4-0.3-0.5-0.5c-0.1-0.2-0.1-0.5,0-0.7
						c1.6-4.4,1.9-9.1,0.8-13.7l-0.7,2.2c-0.1,0.2-0.3,0.5-0.5,0.6c-0.3,0.1-0.5,0.1-0.8,0l-2.2-1c0.8,3.7,0.4,7.6-1.1,11.1
						c-1.7,4.2-4.9,7.6-9,9.7l0,0c-0.5,0.2-1,0-1.3-0.4l-0.2-0.5l-2.1,4.5l5.1,1.6c-0.2-0.5,0-1,0.4-1.3l0,0c4.4-2.2,8-5.7,10.2-10
						c0.2-0.5,0.8-0.6,1.3-0.4c0.2,0.1,0.4,0.3,0.5,0.6c0.1,0.2,0.1,0.5-0.1,0.7c-2.3,4.4-5.9,8-10.3,10.4l0.6,1.1
						c0.2,0.3,0.1,0.7-0.1,1C81.1,95.2,81,95.3,80.9,95.4z M46.4,82.6l0.1-0.1l0.1,0.1c2.8,5.2,7.5,9.3,13,11.5
						c5.7,2.2,12,2.2,17.7,0.1l0,0l0,0l2.9,0.9c0.3,0.1,0.6,0,0.7-0.2c0.1-0.2,0.2-0.4,0.1-0.7l-0.7-1.4l0.1-0.1
						c4.4-2.4,8-6,10.3-10.4c0.1-0.2,0.1-0.3,0-0.5c-0.1-0.2-0.2-0.3-0.3-0.4c-0.3-0.2-0.7,0-0.9,0.3c-2.3,4.4-5.9,7.9-10.4,10.2
						l0,0c-0.3,0.2-0.5,0.6-0.3,0.9l0.3,0.6l-6-1.9l0.1-0.1l2.4-5.2l0.5,1c0.2,0.3,0.6,0.5,0.9,0.3l0,0c4-2,7.2-5.4,8.9-9.5
						c1.5-3.6,1.8-7.4,1-11.2l-0.1-0.3l2.7,1.2c0.2,0.1,0.4,0.1,0.5,0c0.2-0.1,0.3-0.2,0.4-0.4l1-3.1l0.1,0.5
						c1.3,4.7,1,9.7-0.7,14.3c-0.1,0.2-0.1,0.3,0,0.5c0.1,0.2,0.2,0.3,0.4,0.3c0.2,0.1,0.3,0.1,0.5,0c0,0,0,0,0,0
						c0.2-0.1,0.3-0.2,0.3-0.4c2.1-5.6,2.1-11.8,0-17.4l0,0l0.9-2.9c0.1-0.3,0-0.5-0.2-0.7l0,0c-0.2-0.2-0.5-0.2-0.7-0.1l-1.4,0.7
						l-0.1-0.1c-2.8-5.3-7.5-9.3-13.1-11.5c-5.7-2.2-12-2.2-17.7-0.1l0,0l0,0l-2.9-0.9c-0.3-0.1-0.6,0-0.7,0.2
						c-0.1,0.2-0.2,0.4-0.1,0.7l0.7,1.4l-0.1,0.1c-4.3,2.3-7.8,5.9-10.1,10.2c-0.1,0.2-0.1,0.3-0.1,0.5c0.1,0.2,0.2,0.3,0.3,0.4
						s0.3,0.1,0.5,0.1c0.2-0.1,0.3-0.2,0.4-0.3c2.3-4.3,5.9-7.8,10.3-10c0.3-0.2,0.5-0.6,0.3-0.9L58,48.1l6,1.9L64,50.1l-2.4,5.2
						l-0.5-1C61,54,60.6,53.9,60.2,54c-4,2-7.2,5.4-8.9,9.5c-1.5,3.6-1.8,7.4-1,11.2l0.1,0.3l-2.7-1.2c-0.2-0.1-0.4-0.1-0.5,0
						c0,0,0,0,0,0c-0.2,0.1-0.3,0.2-0.3,0.4l-1,3.1l-0.1-0.5c-1.3-4.8-1-9.8,0.7-14.4c0.1-0.3,0-0.7-0.4-0.9c-0.3-0.1-0.7,0-0.9,0.4
						c-2.1,5.6-2.2,11.9-0.1,17.5l0,0l0,0l-0.9,3c-0.1,0.3,0,0.6,0.2,0.7c0.2,0.1,0.4,0.2,0.7,0.1c0,0,0,0,0,0L46.4,82.6z
						 M75.1,93.6l-0.5,0.1c-4.8,1.3-9.9,1-14.6-0.8c-5.5-2.1-10-6.2-12.7-11.5c-0.2-0.4-0.6-0.5-0.9-0.3l-0.6,0.3l1.9-6l0.1,0.1
						l5.2,2.4l-0.9,0.5c-0.3,0.2-0.5,0.6-0.3,0.9c2,4,5.4,7.2,9.5,8.9c3.6,1.5,7.4,1.8,11.2,1l0.3-0.1l-1.2,2.7
						c-0.1,0.2-0.1,0.4,0,0.5c0.1,0.2,0.2,0.3,0.4,0.4L75.1,93.6z M46.4,80.8L46.4,80.8c0.5-0.2,1,0,1.3,0.4
						c2.6,5.3,7.1,9.3,12.5,11.4c4.5,1.7,9.3,2,13.9,0.9L72,92.9c-0.3-0.1-0.5-0.3-0.6-0.5c-0.1-0.3-0.1-0.5,0-0.8l1-2.2
						c-3.7,0.8-7.6,0.4-11.1-1.1c-4.2-1.7-7.6-4.9-9.7-9c-0.2-0.5-0.1-1.1,0.4-1.3l0.4-0.2L48,75.7L46.4,80.8z M77,86l-0.8-1.6
						C76,84.1,75.8,84,75.5,84c-0.2,0-0.5,0.1-0.6,0.4l-1.4,3l-0.1,0c-3.8,1.1-7.9,0.9-11.6-0.6c-3.6-1.5-6.6-4.2-8.5-7.6l-0.1-0.1
						l1.6-0.8c0,0,0,0,0,0c0.3-0.1,0.3-0.4,0.3-0.6c0-0.2-0.1-0.5-0.4-0.6l-3-1.3l0-0.1c-1.1-3.8-0.9-7.9,0.6-11.6
						c1.5-3.6,4.2-6.6,7.5-8.5l0.1-0.1l0.8,1.6c0.1,0.3,0.4,0.4,0.6,0.4c0.2,0,0.5-0.1,0.6-0.4l1.4-3l0.1,0
						c3.8-1.1,7.9-0.9,11.6,0.6c3.6,1.5,6.6,4.2,8.5,7.6l0.1,0.1l-1.6,0.8c0,0,0,0,0,0c-0.3,0.1-0.3,0.4-0.3,0.6
						c0,0.2,0.1,0.5,0.4,0.6l3,1.4l0,0.1c1.1,3.8,0.9,7.9-0.6,11.6l0,0c-1.5,3.6-4.2,6.6-7.6,8.5L77,86z M75.1,83.8
						c0.1-0.1,0.3-0.1,0.4-0.1c0.4,0,0.7,0.2,0.9,0.5l0.7,1.3c3.3-1.9,5.9-4.8,7.3-8.3l0,0c1.5-3.6,1.7-7.6,0.6-11.3l-2.9-1.3
						c-0.3-0.1-0.5-0.5-0.5-0.8c0-0.4,0.2-0.7,0.5-0.8c0,0,0,0,0,0l1.4-0.7c-1.9-3.3-4.8-5.9-8.3-7.3c-3.6-1.5-7.6-1.7-11.4-0.6
						l-1.3,2.9c-0.1,0.3-0.5,0.5-0.8,0.5c-0.4,0-0.7-0.2-0.9-0.5l-0.7-1.3c-3.3,1.9-5.9,4.8-7.3,8.3c-1.5,3.6-1.7,7.6-0.6,11.4
						l2.9,1.3c0.3,0.1,0.5,0.5,0.5,0.8c0,0.4-0.2,0.7-0.5,0.9l-1.3,0.7c1.9,3.3,4.8,5.9,8.3,7.3c3.6,1.5,7.6,1.7,11.3,0.6l1.3-2.9
						C74.8,84.1,74.9,83.9,75.1,83.8z M89.4,66.2l-0.1-0.1l-5.2-2.4l1-0.5c0.3-0.2,0.5-0.6,0.3-0.9c-2-4-5.4-7.2-9.6-8.9
						c-3.6-1.5-7.4-1.8-11.2-1l-0.3,0.1l1.2-2.7c0.1-0.2,0.1-0.4,0-0.5c-0.1-0.2-0.2-0.3-0.4-0.4l-3.1-1l0.5-0.1
						c4.9-1.3,9.9-1,14.6,0.8c5.5,2.1,10,6.2,12.7,11.5c0.2,0.4,0.6,0.5,0.9,0.3l0.5-0.3L89.4,66.2z M84.7,63.8l4.5,2.1l1.6-5.1
						c-0.5,0.2-1,0-1.2-0.4C87,55,82.5,50.9,77,48.9c-4.5-1.7-9.3-2-14-0.9l2.2,0.7c0.3,0.1,0.5,0.3,0.6,0.5c0.1,0.3,0.1,0.5,0,0.8
						l-1,2.2c3.7-0.8,7.6-0.4,11.1,1.1c4.2,1.7,7.6,4.9,9.7,9c0.2,0.5,0.1,1.1-0.4,1.3L84.7,63.8z"/>
				</g>
			</g>
			<g>
				<g>
					<path class="st7" d="M73.4,73l1.3,2.5c0.4,0.9,1.5,1.3,2.4,0.8c0.9-0.4,1.3-1.5,0.8-2.4l-1.3-2.5c-0.4-0.9-1.5-1.3-2.4-0.8
						C73.3,71,73,72.1,73.4,73z M76.1,71.6l1.3,2.5c0.3,0.6,0.1,1.3-0.5,1.6c-0.6,0.3-1.3,0.1-1.6-0.5L74,72.7
						c-0.3-0.6-0.1-1.3,0.5-1.6C75.1,70.8,75.8,71,76.1,71.6z"/>
					<path class="st7" d="M77.4,76.8c-1.2,0.6-2.6,0.1-3.2-1.1l-1.3-2.5C72.3,72,72.8,70.6,74,70s2.6-0.1,3.2,1.1l1.3,2.5
						C79,74.8,78.5,76.2,77.4,76.8z M74.8,71.6c-0.3,0.2-0.4,0.5-0.3,0.8l1.3,2.5c0.2,0.3,0.5,0.4,0.8,0.3c0.3-0.2,0.4-0.5,0.3-0.8
						l-1.3-2.5C75.4,71.6,75.1,71.4,74.8,71.6z"/>
				</g>
				<g>
					<path class="st7" d="M63,71c0.9-0.4,1.3-1.5,0.8-2.4l-0.4-0.8c-0.1-0.2-0.3-0.2-0.4-0.1c-0.2,0.1-0.2,0.3-0.1,0.4l0.4,0.8
						c0.3,0.6,0.1,1.3-0.5,1.6c-0.6,0.3-1.3,0.1-1.6-0.5l-1.3-2.5c-0.3-0.6-0.1-1.3,0.5-1.6c0.6-0.3,1.3-0.1,1.6,0.5l0.3,0.6
						c0.1,0.2,0.3,0.2,0.4,0.1c0.2-0.1,0.2-0.3,0.1-0.4L62.5,66c-0.4-0.9-1.5-1.3-2.4-0.8c-0.9,0.4-1.3,1.5-0.8,2.4l1.3,2.5
						C61,71.1,62.1,71.4,63,71z"/>
					<path class="st7" d="M63.2,71.5c-1.2,0.6-2.6,0.1-3.2-1.1l-1.3-2.5c-0.6-1.2-0.1-2.6,1.1-3.2c1.2-0.6,2.6-0.1,3.2,1.1l0.3,0.6
						c0.1,0.2,0.1,0.5,0,0.7c0.2,0.1,0.4,0.2,0.5,0.4l0.4,0.8C64.9,69.5,64.4,70.9,63.2,71.5z M60.6,66.2c-0.3,0.2-0.4,0.5-0.3,0.8
						l1.3,2.5c0.2,0.3,0.5,0.4,0.8,0.3c0.3-0.2,0.4-0.5,0.3-0.8l-0.4-0.8c-0.1-0.2-0.1-0.5,0-0.7c-0.2-0.1-0.4-0.2-0.5-0.4l-0.3-0.6
						C61.3,66.2,60.9,66.1,60.6,66.2z"/>
				</g>
				<g>
					<path class="st7" d="M63.9,72.9c1.9-1,2.7-3.4,1.8-5.3L64.4,65c-0.5-0.9-1.3-1.6-2.3-2c-1-0.3-2.1-0.3-3,0.2
						c-1.9,1-2.7,3.4-1.8,5.3l1.3,2.5C59.6,73.1,62,73.9,63.9,72.9z M57.9,68.3c-0.8-1.6-0.2-3.6,1.5-4.4c0.8-0.4,1.7-0.5,2.5-0.2
						l0,0c0.8,0.3,1.5,0.9,1.9,1.7l1.3,2.5c0.8,1.6,0.2,3.6-1.5,4.4c-1.6,0.8-3.6,0.2-4.4-1.5L57.9,68.3L57.9,68.3z"/>
					<path class="st7" d="M64.2,73.4c-2.2,1.1-4.9,0.2-6-2l-1.3-2.5c-1.1-2.2-0.2-4.9,2-6c1.1-0.5,2.3-0.6,3.4-0.2
						c1.1,0.4,2.1,1.2,2.6,2.3l1.3,2.5C67.3,69.5,66.4,72.3,64.2,73.4z M59.7,64.3c-1.4,0.7-1.9,2.3-1.2,3.7l1.3,2.5
						c0.7,1.4,2.3,1.9,3.7,1.2c1.4-0.7,1.9-2.3,1.2-3.7l-1.3-2.5c-0.3-0.7-0.9-1.1-1.6-1.4C61.1,63.9,60.3,64,59.7,64.3z"/>
				</g>
				<g>
					<path class="st7" d="M76.3,68.4c-1-0.3-2.1-0.3-3,0.2c-1.9,1-2.7,3.4-1.8,5.3l1.3,2.5c1,1.9,3.4,2.7,5.3,1.8
						c0.8-0.4,1.5-1.1,1.8-1.9c0.1-0.2,0-0.4-0.2-0.4c-0.2-0.1-0.4,0-0.4,0.2c-0.3,0.7-0.9,1.3-1.5,1.6c-1.6,0.8-3.6,0.2-4.4-1.5
						l-1.3-2.5c-0.8-1.6-0.2-3.6,1.5-4.4c0.8-0.4,1.7-0.5,2.5-0.2c0.8,0.3,1.5,0.9,1.9,1.7l1.3,2.5c0.3,0.5,0.4,1.1,0.3,1.7
						c0,0.2,0.1,0.3,0.3,0.3c0.2,0,0.3-0.1,0.3-0.3c0.1-0.7-0.1-1.4-0.4-2l-1.3-2.5C78.1,69.4,77.3,68.7,76.3,68.4L76.3,68.4z"/>
					<path class="st7" d="M78.3,78.7c-2.2,1.1-4.9,0.2-6-2L71,74.2c-1.1-2.2-0.2-4.9,2-6c1.1-0.5,2.3-0.6,3.4-0.2l0,0l0,0l0,0
						c1.1,0.4,2.1,1.2,2.6,2.3l1.3,2.5c0.4,0.7,0.5,1.5,0.5,2.3c0,0.3-0.2,0.6-0.4,0.7c0.2,0.2,0.2,0.5,0.1,0.8
						C80,77.5,79.3,78.2,78.3,78.7z M79.8,76.3C79.8,76.3,79.8,76.3,79.8,76.3C79.8,76.3,79.8,76.3,79.8,76.3z M73.8,69.7
						c-1.4,0.7-1.9,2.3-1.2,3.7l1.3,2.5c0.7,1.4,2.3,1.9,3.7,1.2c0.6-0.3,1-0.8,1.3-1.3c0.1-0.2,0.2-0.3,0.4-0.4
						c-0.1-0.2-0.2-0.3-0.1-0.5c0-0.5-0.1-1-0.3-1.4l-1.3-2.5c-0.3-0.7-0.9-1.2-1.6-1.4C75.2,69.3,74.5,69.3,73.8,69.7z"/>
				</g>
				<g>
					<path class="st7" d="M72.8,60.9c-0.1-0.3-0.4-0.5-0.7-0.6c-0.3-0.1-0.6-0.1-0.9,0.1c-0.3,0.1-0.5,0.4-0.6,0.7l-6.2,18.8
						c-0.2,0.6,0.1,1.3,0.7,1.5c0.3,0.1,0.6,0.1,0.9-0.1c0.3-0.1,0.5-0.4,0.6-0.7l6.2-18.8C72.9,61.4,72.9,61.1,72.8,60.9L72.8,60.9
						z M72.2,61.5L66,80.3c0,0.1-0.1,0.2-0.3,0.3c-0.1,0.1-0.3,0.1-0.4,0c-0.3-0.1-0.4-0.4-0.3-0.7l6.2-18.8c0-0.1,0.1-0.2,0.3-0.3
						c0.1-0.1,0.3-0.1,0.4,0c0.1,0,0.2,0.1,0.3,0.3C72.2,61.3,72.2,61.4,72.2,61.5L72.2,61.5z"/>
					<path class="st7" d="M66.3,81.6c-0.4,0.2-0.9,0.2-1.3,0.1c-0.4-0.1-0.8-0.4-1-0.9c-0.2-0.4-0.2-0.9-0.1-1.3l6.2-18.8
						c0.3-0.9,1.3-1.4,2.2-1.1c0.4,0.1,0.8,0.4,1,0.9c0.2,0.4,0.2,0.9,0.1,1.3l-6.2,18.8C67,81.1,66.7,81.4,66.3,81.6z"/>
				</g>
				<g>
					<g>
						<path class="st16" d="M65.9,80.9c-0.2,0.1-0.4,0.1-0.6,0c-0.4-0.1-0.7-0.6-0.5-1.1l6.2-18.8c0.1-0.4,0.6-0.7,1.1-0.5
							c0.4,0.1,0.7,0.6,0.5,1.1l-6.2,18.8C66.2,80.6,66.1,80.8,65.9,80.9L65.9,80.9z"/>
					</g>
					<g>
						<path class="st17" d="M72.3,60.8c-0.3,0-0.6,0.2-0.7,0.6l-6.2,18.8c-0.1,0.3,0,0.7,0.2,0.9c-0.1,0-0.2,0-0.4,0
							c-0.4-0.1-0.7-0.6-0.5-1.1l6.2-18.8c0.1-0.4,0.6-0.7,1.1-0.5C72.1,60.6,72.2,60.7,72.3,60.8z"/>
					</g>
					<g>
						<g>
							<path class="st16" d="M62,63.4c-0.9-0.3-1.9-0.2-2.8,0.2c-1.8,0.9-2.5,3.1-1.6,4.9l1.3,2.5c0.9,1.8,3.1,2.5,4.9,1.6
								c1.8-0.9,2.5-3.1,1.6-4.9l-1.3-2.5C63.7,64.3,62.9,63.6,62,63.4L62,63.4z M63.5,68.7c0.4,0.7,0.1,1.6-0.7,2
								c-0.7,0.4-1.6,0.1-2-0.7l-1.3-2.5c-0.4-0.7-0.1-1.6,0.7-2c0.7-0.4,1.6-0.1,2,0.7L63.5,68.7z"/>
						</g>
						<g>
							<path class="st16" d="M76.2,68.7c-0.9-0.3-1.9-0.2-2.8,0.2c-1.8,0.9-2.5,3.1-1.6,4.9l1.3,2.5c0.9,1.8,3.1,2.5,4.9,1.6
								c1.8-0.9,2.5-3.1,1.6-4.9l-1.3-2.5C77.8,69.6,77.1,69,76.2,68.7L76.2,68.7z M77.7,74c0.4,0.7,0.1,1.6-0.7,2
								c-0.7,0.4-1.6,0.1-2-0.7l-1.3-2.5c-0.4-0.7-0.1-1.6,0.7-2c0.7-0.4,1.6-0.1,2,0.7L77.7,74z"/>
						</g>
					</g>
					<g>
						<g>
							<g>
								<path class="st17" d="M63.2,70.4c0.1,0,0.3-0.1,0.4-0.1c0.7-0.4,1-1.3,0.7-2L63,65.7c-0.4-0.7-1.3-1-2-0.7
									c-0.1,0.1-0.3,0.2-0.4,0.3c0.6-0.1,1.3,0.2,1.6,0.8l1.3,2.5C63.8,69.3,63.7,70,63.2,70.4L63.2,70.4z"/>
							</g>
							<g>
								<path class="st17" d="M59.7,70.6L58.5,68c-0.8-1.7-0.3-3.6,1.2-4.6c-0.1,0-0.3,0.1-0.4,0.2c-1.8,0.9-2.5,3.1-1.6,4.9
									l1.3,2.5c0.9,1.8,3.1,2.5,4.9,1.6c0.1-0.1,0.3-0.1,0.4-0.2C62.5,73,60.6,72.2,59.7,70.6L59.7,70.6z"/>
							</g>
						</g>
						<g>
							<g>
								<path class="st17" d="M77.4,75.8c0.1,0,0.3-0.1,0.4-0.1c0.7-0.4,1-1.3,0.7-2l-1.3-2.5c-0.4-0.7-1.3-1-2-0.7
									c-0.1,0.1-0.3,0.2-0.4,0.3c0.6-0.1,1.3,0.2,1.6,0.8l1.3,2.5C77.9,74.6,77.8,75.3,77.4,75.8z"/>
							</g>
							<g>
								<path class="st17" d="M73.9,75.9l-1.3-2.5c-0.8-1.7-0.3-3.6,1.2-4.6c-0.1,0-0.3,0.1-0.4,0.2c-1.8,0.9-2.5,3.1-1.6,4.9
									l1.3,2.5c0.9,1.8,3.1,2.5,4.9,1.6c0.1-0.1,0.3-0.1,0.4-0.2C76.6,78.3,74.7,77.6,73.9,75.9L73.9,75.9z"/>
							</g>
						</g>
					</g>
				</g>
			</g>
		</g>
	</g>
	<g>
		<g>
			<path class="st0" d="M2.2,283.7l36.2-75c1.1-2.4,4-3.4,6.3-2.2l80.7,39c2.4,1.1,3.4,4,2.2,6.3l-36.2,75c-1.1,2.4-4,3.4-6.3,2.2
				L4.4,290C2.1,288.9,1.1,286,2.2,283.7z"/>
			<path class="st1" d="M38.5,208.7l-36.2,75c-1.1,2.4-0.2,5.2,2.2,6.3l6.3,3c-2.4-1.1-3.4-4-2.2-6.3l36.2-75c1.1-2.4,4-3.4,6.3-2.2
				l-6.3-3C42.5,205.4,39.6,206.4,38.5,208.7z"/>
			<path class="st2" d="M127.8,251.9c1.1-2.4,0.2-5.2-2.2-6.3l-80.7-39c-2.4-1.1-5.2-0.2-6.3,2.2l-5.7,11.8l89.3,43.2L127.8,251.9z"
				/>
			<path class="st3" d="M38.5,208.7l-5.7,11.8l6.3,3l5.7-11.8c1.1-2.4,4-3.4,6.3-2.2l-6.3-3C42.5,205.4,39.6,206.4,38.5,208.7z"/>
			<path class="st4" d="M116.8,247.3c1.8,0.8,2.5,3,1.6,4.7s-3,2.5-4.7,1.6c-1.8-0.8-2.5-3-1.6-4.7S115,246.5,116.8,247.3z"/>
			<path class="st5" d="M106,242.1c1.8,0.8,2.5,3,1.6,4.7s-3,2.5-4.7,1.6s-2.5-3-1.6-4.7C102.2,242,104.3,241.3,106,242.1z"/>
			<path class="st6" d="M95.3,236.9c1.8,0.8,2.5,3,1.6,4.7s-3,2.5-4.7,1.6c-1.8-0.8-2.5-3-1.6-4.7S93.5,236.1,95.3,236.9z"/>
			<path class="st7" d="M111.3,248.6c1.1-2.2,3.7-3.1,5.9-2c2.2,1.1,3.1,3.7,2,5.9s-3.7,3.1-5.9,2
				C111.1,253.4,110.2,250.7,111.3,248.6z M112.8,249.3c-0.6,1.3-0.1,2.9,1.2,3.6c1.3,0.6,2.9,0.1,3.6-1.2s0.1-2.9-1.2-3.6
				C115.1,247.4,113.5,248,112.8,249.3z"/>
			<path class="st7" d="M100.6,243.4c1.1-2.2,3.7-3.1,5.9-2c2.2,1.1,3.1,3.7,2,5.9c-1.1,2.2-3.7,3.1-5.9,2S99.5,245.6,100.6,243.4z
				 M102.1,244.1c-0.6,1.3-0.1,2.9,1.2,3.6c1.3,0.6,2.9,0.1,3.6-1.2c0.6-1.3,0.1-2.9-1.2-3.6C104.3,242.2,102.7,242.8,102.1,244.1z"
				/>
			<path class="st7" d="M89.8,238.2c1.1-2.2,3.7-3.1,5.9-2c2.2,1.1,3.1,3.7,2,5.9c-1.1,2.2-3.7,3.1-5.9,2
				C89.7,243,88.8,240.4,89.8,238.2z M91.4,238.9c-0.6,1.3-0.1,2.9,1.2,3.6c1.3,0.6,2.9,0.1,3.6-1.2s0.1-2.9-1.2-3.6
				C93.6,237.1,92,237.6,91.4,238.9z"/>
			<path class="st7" d="M80.2,233.5c0.4-0.7,0-1.6-0.7-2l-32.8-15.9c-0.7-0.4-1.6,0-2,0.7c-0.4,0.7,0,1.6,0.7,2l32.8,15.9
				C78.9,234.6,79.8,234.3,80.2,233.5z"/>
			<path class="st7" d="M37.1,208.1L0.9,283c-1.5,3.1-0.2,6.8,2.9,8.3l80.7,39c3.1,1.5,6.8,0.2,8.3-2.9l36.2-75
				c1.5-3.1,0.2-6.8-2.9-8.3l-80.7-39C42.4,203.7,38.6,205,37.1,208.1z M3.6,284.3l29.9-61.8l74,35.8c0.7,0.4,1.6,0,2-0.7
				c0.4-0.7,0-1.6-0.7-2l-74-35.8l5.1-10.4c0.8-1.6,2.7-2.3,4.3-1.5l80.7,39c1.6,0.8,2.3,2.7,1.5,4.3l-5.1,10.4l-7.5-3.6
				c-0.7-0.4-1.6,0-2,0.7c-0.4,0.7,0,1.6,0.7,2l7.5,3.6l-29.9,61.8c-0.8,1.6-2.7,2.3-4.3,1.5l-80.7-39
				C3.5,287.9,2.8,285.9,3.6,284.3z"/>
		</g>
		<g>
			<g>
				<path class="st18" d="M45.7,260.9c-0.7,1.4-2.4,2-3.8,1.3c-1.4-0.7-2-2.4-1.3-3.8c0.7-1.4,2.4-2,3.8-1.3
					C45.8,257.8,46.4,259.5,45.7,260.9L45.7,260.9z"/>
				<path class="st19" d="M65.5,255.7c-0.7,1.4-2.4,2-3.8,1.3c-1.4-0.7-2-2.4-1.3-3.8c0.7-1.4,2.4-2,3.8-1.3
					C65.6,252.6,66.1,254.3,65.5,255.7z"/>
				<path class="st20" d="M75.3,270.9c-0.7,1.4-2.4,2-3.8,1.3c-1.4-0.7-2-2.4-1.3-3.8c0.7-1.4,2.4-2,3.8-1.3
					C75.4,267.8,76,269.5,75.3,270.9L75.3,270.9z"/>
				<path class="st21" d="M95.7,264.2c-0.7,1.4-2.4,2-3.8,1.3c-1.4-0.7-2-2.4-1.3-3.8c0.7-1.4,2.4-2,3.8-1.3
					C95.8,261.1,96.4,262.8,95.7,264.2z"/>
				<path class="st22" d="M45.8,260.8l0,0.1c-0.7,1.4-2.4,2-3.8,1.4s-2-2.4-1.3-3.8c0.4-0.8,1.1-1.3,1.8-1.5c-0.6,1.4,0,3.1,1.4,3.7
					C44.5,261,45.1,261,45.8,260.8z"/>
				<path class="st23" d="M65.5,255.6l0,0.1c-0.7,1.4-2.4,2-3.8,1.4c-1.4-0.7-2-2.4-1.3-3.8c0.4-0.8,1.1-1.3,1.8-1.5
					c-0.6,1.4,0,3.1,1.4,3.7C64.2,255.7,64.9,255.8,65.5,255.6L65.5,255.6z"/>
				<path class="st24" d="M75.3,270.8l-0.1,0.1c-0.7,1.4-2.4,2-3.8,1.3c-1.4-0.7-2-2.4-1.3-3.8c0.4-0.8,1.1-1.3,1.8-1.5
					c-0.6,1.4,0,3,1.4,3.7C74,270.9,74.7,271,75.3,270.8L75.3,270.8z"/>
				<path class="st25" d="M95.7,264.1l0,0.1c-0.7,1.4-2.4,2-3.8,1.3c-1.4-0.7-2-2.4-1.3-3.8c0.4-0.8,1.1-1.3,1.8-1.5
					c-0.6,1.4,0,3,1.4,3.7C94.4,264.2,95.1,264.3,95.7,264.1z"/>
				<path class="st7" d="M41.5,263.1c1.9,0.9,4.2,0.1,5.1-1.8c0.3-0.6,0.4-1.2,0.4-1.7l12.5-3.6c0.4,0.8,1,1.4,1.8,1.9
					c1,0.5,2.1,0.5,3.1,0.1l5.4,9.3c-0.2,0.2-0.3,0.4-0.4,0.7c-0.9,1.9-0.1,4.2,1.8,5.1c1.9,0.9,4.2,0.1,5.1-1.8
					c0.3-0.5,0.4-1.1,0.4-1.6l13.4-4.7c0.4,0.6,0.9,1.1,1.5,1.4c1.9,0.9,4.2,0.1,5.1-1.8c0.9-1.9,0.1-4.2-1.8-5.1
					c-1.9-0.9-4.2-0.1-5.1,1.8c-0.3,0.6-0.4,1.3-0.4,1.9l-13.3,4.7c-0.4-0.7-0.9-1.3-1.7-1.6c-1-0.5-2.2-0.5-3.1-0.1l-5.4-9.3
					c0.2-0.2,0.4-0.5,0.5-0.7c0.9-1.9,0.1-4.2-1.8-5.1c-1.9-0.9-4.2-0.1-5.1,1.8c-0.2,0.4-0.3,0.9-0.4,1.4l-12.6,3.6
					c-0.4-0.6-0.9-1.2-1.6-1.5c-1.9-0.9-4.2-0.1-5.1,1.8C38.8,259.9,39.6,262.2,41.5,263.1z M93.9,261.2c1,0.5,1.4,1.6,0.9,2.6
					s-1.6,1.4-2.6,0.9c-1-0.5-1.4-1.6-0.9-2.6S93,260.8,93.9,261.2z M73.5,267.9c1,0.5,1.4,1.6,0.9,2.6s-1.6,1.4-2.6,0.9
					c-1-0.5-1.4-1.6-0.9-2.6C71.4,267.9,72.6,267.5,73.5,267.9L73.5,267.9z M63.7,252.7c1,0.5,1.4,1.6,0.9,2.6
					c-0.5,1-1.6,1.4-2.6,0.9c-1-0.5-1.4-1.6-0.9-2.6C61.6,252.7,62.8,252.3,63.7,252.7L63.7,252.7z M44,258c1,0.5,1.4,1.6,0.9,2.6
					c-0.5,1-1.6,1.4-2.6,0.9c-1-0.5-1.4-1.6-0.9-2.6C41.9,257.9,43,257.5,44,258L44,258z"/>
			</g>
			<g>
				<path class="st26" d="M33.7,274.5l8.9,4.3l-6.2,12.8l-8.9-4.3L33.7,274.5z"/>
				<path class="st27" d="M36.1,292.3l-8.9-4.3c-0.4-0.2-0.6-0.7-0.4-1l6.2-12.8c0.2-0.4,0.7-0.6,1-0.4l8.9,4.3
					c0.4,0.2,0.6,0.7,0.4,1l-6.2,12.8C36.9,292.3,36.5,292.5,36.1,292.3z M28.5,286.9l7.5,3.6l5.5-11.4l-7.5-3.6L28.5,286.9z"/>
				<path class="st28" d="M52.3,267.5l8.9,4.3l-12.5,25.8l-8.9-4.3L52.3,267.5z"/>
				<path class="st27" d="M48.5,298.3l-8.9-4.3c-0.4-0.2-0.6-0.7-0.4-1l12.5-25.8c0.2-0.4,0.7-0.6,1-0.4l8.9,4.3
					c0.4,0.2,0.6,0.7,0.4,1l-12.5,25.8C49.4,298.3,48.9,298.5,48.5,298.3z M40.9,292.9l7.5,3.6l11.8-24.3l-7.5-3.6L40.9,292.9z"/>
				<path class="st29" d="M61.6,280.1l8.9,4.3l-9.3,19.2l-8.9-4.3L61.6,280.1z"/>
				<path class="st27" d="M60.9,304.3L52,300c-0.4-0.2-0.6-0.7-0.4-1l9.3-19.2c0.2-0.4,0.7-0.6,1-0.4l8.9,4.3c0.4,0.2,0.6,0.7,0.4,1
					l-9.3,19.2C61.8,304.3,61.3,304.5,60.9,304.3z M53.4,298.9l7.5,3.6l8.6-17.8l-7.5-3.6L53.4,298.9z"/>
				<path class="st30" d="M79.6,274.5l8.9,4.3l-14.9,30.8l-8.9-4.3L79.6,274.5z"/>
				<path class="st27" d="M73.3,310.3l-8.9-4.3c-0.4-0.2-0.6-0.7-0.4-1l14.9-30.8c0.2-0.4,0.7-0.6,1-0.4l8.9,4.3
					c0.4,0.2,0.6,0.7,0.4,1l-14.9,30.8C74.2,310.3,73.7,310.5,73.3,310.3L73.3,310.3z M65.8,304.9l7.5,3.6l14.2-29.4l-7.5-3.6
					L65.8,304.9z"/>
			</g>
		</g>
	</g>
	<g>
		<g>
			<path class="st0" d="M39.4,531.5L2,457.1c-1.2-2.3-0.2-5.2,2.1-6.4l80.1-40.3c2.3-1.2,5.2-0.2,6.4,2.1L128,487
				c1.2,2.3,0.2,5.2-2.1,6.4l-80.1,40.3C43.4,534.8,40.6,533.8,39.4,531.5z"/>
			<path class="st1" d="M2,457.1l37.4,74.4c1.2,2.3,4,3.3,6.4,2.1l6.2-3.1c-2.3,1.2-5.2,0.2-6.4-2.1L8.2,454
				c-1.2-2.3-0.2-5.2,2.1-6.4l-6.2,3.1C1.8,451.9,0.8,454.7,2,457.1z"/>
			<path class="st2" d="M90.6,412.6c-1.2-2.3-4-3.3-6.4-2.1L4.1,450.7c-2.3,1.2-3.3,4-2.1,6.4l5.9,11.7l88.6-44.5L90.6,412.6z"/>
			<path class="st3" d="M2,457.1l5.9,11.7l6.2-3.1L8.2,454c-1.2-2.3-0.2-5.2,2.1-6.4l-6.2,3.1C1.8,451.9,0.8,454.7,2,457.1z"/>
			<path class="st4" d="M80.3,418.5c1.7-0.9,3.9-0.2,4.7,1.6c0.9,1.7,0.2,3.9-1.6,4.7s-3.9,0.2-4.7-1.6
				C77.8,421.5,78.5,419.4,80.3,418.5z"/>
			<path class="st5" d="M69.6,423.8c1.7-0.9,3.9-0.2,4.7,1.6c0.9,1.7,0.2,3.9-1.6,4.7c-1.7,0.9-3.9,0.2-4.7-1.6
				C67.2,426.8,67.9,424.7,69.6,423.8z"/>
			<path class="st6" d="M59,429.2c1.7-0.9,3.9-0.2,4.7,1.6c0.9,1.7,0.2,3.9-1.6,4.7s-3.9,0.2-4.7-1.6
				C56.5,432.2,57.2,430.1,59,429.2z"/>
			<path class="st7" d="M77.9,423.6c-1.1-2.2-0.2-4.8,1.9-5.9c2.2-1.1,4.8-0.2,5.9,1.9c1.1,2.2,0.2,4.8-1.9,5.9S79,425.8,77.9,423.6
				z M79.5,422.8c0.7,1.3,2.3,1.8,3.6,1.2c1.3-0.7,1.8-2.3,1.2-3.6c-0.7-1.3-2.3-1.8-3.6-1.2C79.3,419.9,78.8,421.5,79.5,422.8z"/>
			<path class="st7" d="M67.3,429c-1.1-2.2-0.2-4.8,1.9-5.9s4.8-0.2,5.9,1.9s0.2,4.8-1.9,5.9S68.4,431.1,67.3,429z M68.8,428.2
				c0.7,1.3,2.3,1.8,3.6,1.2c1.3-0.7,1.8-2.3,1.2-3.6c-0.7-1.3-2.3-1.8-3.6-1.2C68.7,425.3,68.2,426.9,68.8,428.2z"/>
			<path class="st7" d="M56.6,434.3c-1.1-2.2-0.2-4.8,1.9-5.9c2.2-1.1,4.8-0.2,5.9,1.9c1.1,2.2,0.2,4.8-1.9,5.9
				C60.4,437.3,57.7,436.5,56.6,434.3z M58.2,433.5c0.7,1.3,2.3,1.8,3.6,1.2c1.3-0.7,1.8-2.3,1.2-3.6s-2.3-1.8-3.6-1.2
				C58,430.6,57.5,432.2,58.2,433.5z"/>
			<path class="st7" d="M47.1,439.1c-0.4-0.7-1.3-1-2-0.7l-32.6,16.4c-0.7,0.4-1,1.3-0.7,2c0.4,0.7,1.3,1,2,0.7l32.6-16.4
				C47.2,440.7,47.5,439.8,47.1,439.1z"/>
			<path class="st7" d="M0.7,457.8L38,532.2c1.5,3.1,5.3,4.3,8.4,2.8l80.1-40.3c3.1-1.5,4.3-5.3,2.8-8.4L92,411.9
				c-1.5-3.1-5.3-4.3-8.4-2.8L3.4,449.4C0.4,450.9-0.9,454.7,0.7,457.8z M40.7,530.8L9.9,469.5l73.5-36.9c0.7-0.4,1-1.3,0.7-2
				c-0.4-0.7-1.3-1-2-0.7L8.5,466.8l-5.2-10.4c-0.8-1.6-0.2-3.6,1.4-4.4l80.1-40.3c1.6-0.8,3.6-0.2,4.4,1.4l5.2,10.4l-7.5,3.7
				c-0.7,0.4-1,1.3-0.7,2c0.4,0.7,1.3,1,2,0.7l7.5-3.7l30.8,61.4c0.8,1.6,0.2,3.6-1.4,4.4l-80.1,40.3
				C43.5,533.1,41.5,532.4,40.7,530.8z"/>
		</g>
		<g>
			<g>
				<path class="st30" d="M77.6,466.2l-26,13c-0.4,0.2-0.9,0-1.2-0.4l-0.8-1.5c-0.2-0.4,0-0.9,0.4-1.2l26-13c0.4-0.2,0.9,0,1.2,0.4
					l0.8,1.5C78.2,465.5,78.1,466,77.6,466.2L77.6,466.2z"/>
			</g>
			<g>
				<path class="st31" d="M65.1,472.5l-0.8,0.4l-11.7,5.9l14.8,7.3l4.6,9.1c0.1,0.2,0.4,0.3,0.6,0.2l5.6-2.8
					c0.2-0.1,0.3-0.4,0.2-0.6l-4.6-9.1l3-16.2L65.1,472.5z"/>
			</g>
			<g>
				<g>
					<g>
						<path class="st32" d="M73.2,459.9l-5.7,2.9l-0.6-1.2c-0.7-1.4-0.1-3,1.2-3.7l0.8-0.4c1.4-0.7,3-0.1,3.7,1.2L73.2,459.9
							L73.2,459.9z"/>
					</g>
					<g>
						<path class="st7" d="M73.4,460.3l-5.7,2.9c-0.2,0.1-0.5,0-0.6-0.2l-0.6-1.2c-0.8-1.6-0.2-3.5,1.4-4.3l0.8-0.4
							c1.6-0.8,3.5-0.2,4.3,1.4l0.6,1.2C73.7,459.9,73.6,460.2,73.4,460.3L73.4,460.3z M67.7,462.2l4.9-2.5l-0.4-0.8
							c-0.6-1.1-2-1.6-3.1-1l-0.8,0.4c-1.1,0.6-1.6,2-1,3.1L67.7,462.2L67.7,462.2z"/>
						<path class="st33" d="M73.5,460.6l-5.7,2.9c-0.4,0.2-0.8,0-1-0.3l-0.6-1.2c-0.9-1.7-0.2-3.8,1.5-4.7l0.8-0.4
							c1.7-0.9,3.8-0.2,4.7,1.5l0.6,1.2C74,459.9,73.9,460.4,73.5,460.6z M68.1,457.8c-1.4,0.7-2,2.4-1.3,3.8l0.6,1.2
							c0,0.1,0.1,0.1,0.2,0.1l5.7-2.9c0.1,0,0.1-0.1,0.1-0.2l-0.6-1.2c-0.7-1.4-2.4-2-3.8-1.3L68.1,457.8z M73,459.9l-5.5,2.8
							l-0.5-1.1c-0.7-1.3-0.1-2.9,1.2-3.5l0.8-0.4c1.3-0.7,2.9-0.1,3.5,1.2L73,459.9z M67.8,461.8l4.4-2.2l-0.3-0.5
							c-0.5-1-1.7-1.4-2.7-0.9l-0.8,0.4c-1,0.5-1.4,1.7-0.9,2.7L67.8,461.8z"/>
					</g>
					<g>
						<circle class="st34" cx="67.1" cy="454.9" r="3.2"/>
					</g>
					<g>
						<path class="st7" d="M68.7,458.1c-1.8,0.9-4,0.2-4.8-1.6c-0.9-1.8-0.2-4,1.6-4.8c1.8-0.9,4-0.2,4.8,1.6
							C71.2,455,70.5,457.2,68.7,458.1z M65.9,452.4c-1.4,0.7-1.9,2.3-1.2,3.7c0.7,1.4,2.3,1.9,3.7,1.2c1.4-0.7,1.9-2.3,1.2-3.7
							C68.9,452.3,67.2,451.7,65.9,452.4z"/>
						<path class="st33" d="M68.9,458.4c-1.9,1-4.3,0.2-5.3-1.7c-1-1.9-0.2-4.3,1.7-5.3c1.9-1,4.3-0.2,5.3,1.7
							C71.6,455.1,70.8,457.4,68.9,458.4z M65.6,451.9c-1.6,0.8-2.3,2.8-1.5,4.4c0.8,1.6,2.8,2.3,4.4,1.5s2.3-2.8,1.5-4.4
							C69.3,451.8,67.3,451.1,65.6,451.9z M68.5,457.6c-1.5,0.8-3.4,0.1-4.1-1.4c-0.8-1.5-0.1-3.4,1.4-4.1c1.5-0.8,3.4-0.1,4.1,1.4
							C70.6,455,70,456.9,68.5,457.6z M66,452.7c-1.2,0.6-1.7,2.1-1.1,3.3s2.1,1.7,3.3,1.1c1.2-0.6,1.7-2.1,1.1-3.3
							S67.2,452.1,66,452.7z"/>
					</g>
				</g>
				<g>
					<g>
						<path class="st35" d="M64.9,464l-7.5,3.7l-0.8-1.5c-0.9-1.8-0.2-3.9,1.6-4.8l1-0.5c1.8-0.9,3.9-0.2,4.8,1.6L64.9,464L64.9,464
							z"/>
					</g>
					<g>
						<path class="st7" d="M65.2,464.4l-7.5,3.7c-0.2,0.1-0.5,0-0.7-0.2l-0.8-1.5c-1-2-0.2-4.5,1.8-5.5l1-0.5c2-1,4.5-0.2,5.5,1.8
							l0.8,1.5C65.5,464,65.4,464.3,65.2,464.4L65.2,464.4z M57.7,467.1l6.6-3.3l-0.5-1.1c-0.8-1.5-2.6-2.2-4.2-1.4l-1,0.5
							c-1.5,0.8-2.2,2.6-1.4,4.2L57.7,467.1L57.7,467.1z"/>
						<path class="st7" d="M65.3,464.8l-7.5,3.7c-0.4,0.2-0.9,0-1.1-0.4l-0.8-1.5c-1.1-2.2-0.2-4.9,2-6l1-0.5c2.2-1.1,4.9-0.2,6,2
							l0.8,1.5C65.9,464,65.7,464.5,65.3,464.8z M58.3,461.3c-1.8,0.9-2.6,3.2-1.7,5l0.8,1.5c0,0.1,0.1,0.1,0.2,0.1l7.5-3.7
							c0.1,0,0.1-0.1,0.1-0.2l-0.8-1.5c-0.9-1.8-3.2-2.6-5-1.7L58.3,461.3z M64.8,463.9l-7.2,3.6l-0.7-1.4c-0.9-1.7-0.2-3.8,1.5-4.7
							l1-0.5c1.7-0.9,3.8-0.2,4.7,1.5L64.8,463.9z M57.9,466.6l5.9-3l-0.4-0.8c-0.7-1.4-2.3-1.9-3.7-1.2l-1,0.5
							c-1.4,0.7-1.9,2.3-1.2,3.7L57.9,466.6z"/>
					</g>
					<g>
						<circle class="st34" cx="56.9" cy="457.4" r="4.2"/>
					</g>
					<g>
						<path class="st7" d="M59,461.6c-2.3,1.2-5.1,0.2-6.3-2.1c-1.2-2.3-0.2-5.1,2.1-6.3c2.3-1.2,5.1-0.2,6.3,2.1
							C62.3,457.6,61.3,460.4,59,461.6z M55.3,454.1c-1.8,0.9-2.5,3.1-1.6,4.9c0.9,1.8,3.1,2.5,4.9,1.6s2.5-3.1,1.6-4.9
							C59.3,453.9,57.1,453.2,55.3,454.1z"/>
						<path class="st7" d="M59.2,461.9c-2.5,1.2-5.5,0.2-6.7-2.2c-1.2-2.5-0.2-5.5,2.2-6.7c2.5-1.2,5.5-0.2,6.7,2.2
							C62.7,457.6,61.7,460.6,59.2,461.9z M55,453.5c-2.1,1.1-3,3.7-1.9,5.8s3.7,3,5.8,1.9c2.1-1.1,3-3.7,1.9-5.8
							C59.7,453.3,57.1,452.5,55,453.5z M58.8,461c-2,1-4.4,0.2-5.4-1.8c-1-2-0.2-4.4,1.8-5.4c2-1,4.4-0.2,5.4,1.8
							C61.6,457.6,60.8,460,58.8,461z M55.5,454.4c-1.6,0.8-2.3,2.8-1.5,4.5c0.8,1.6,2.8,2.3,4.5,1.5c1.6-0.8,2.3-2.8,1.5-4.5
							S57.1,453.6,55.5,454.4z"/>
					</g>
				</g>
				<g>
					<g>
						<path class="st36" d="M55,469.1l-5.7,2.9l-0.6-1.2c-0.7-1.4-0.1-3,1.2-3.7l0.8-0.4c1.4-0.7,3-0.1,3.7,1.2L55,469.1L55,469.1z"
							/>
					</g>
					<g>
						<path class="st7" d="M55.1,469.5l-5.7,2.9c-0.2,0.1-0.5,0-0.6-0.2l-0.6-1.2c-0.8-1.6-0.2-3.5,1.4-4.3l0.8-0.4
							c1.6-0.8,3.5-0.2,4.3,1.4l0.6,1.2C55.4,469.1,55.4,469.4,55.1,469.5L55.1,469.5z M49.5,471.4l4.9-2.5l-0.4-0.8
							c-0.6-1.1-2-1.6-3.1-1l-0.8,0.4c-1.1,0.6-1.6,2-1,3.1L49.5,471.4z"/>
						<path class="st7" d="M55.3,469.7l-5.7,2.9c-0.4,0.2-0.8,0-1-0.3l-0.6-1.2c-0.9-1.7-0.2-3.8,1.5-4.7l0.8-0.4
							c1.7-0.9,3.8-0.2,4.7,1.5l0.6,1.2c0.1,0.2,0.1,0.4,0,0.6C55.6,469.5,55.5,469.7,55.3,469.7z M49.9,467c-1.4,0.7-2,2.4-1.3,3.8
							l0.6,1.2c0,0.1,0.1,0.1,0.2,0.1l5.7-2.9c0,0,0.1-0.1,0.1-0.1c0,0,0-0.1,0-0.1l-0.6-1.2c-0.7-1.4-2.4-2-3.8-1.3L49.9,467z
							 M54.8,469l-5.5,2.8l-0.5-1.1c-0.7-1.3-0.1-2.9,1.2-3.5l0.8-0.4c1.3-0.7,2.9-0.1,3.5,1.2L54.8,469z M49.6,471l4.4-2.2
							l-0.3-0.5c-0.5-1-1.7-1.4-2.7-0.9l-0.8,0.4c-1,0.5-1.4,1.7-0.9,2.7L49.6,471z"/>
					</g>
					<g>
						<circle class="st34" cx="48.9" cy="464.1" r="3.2"/>
					</g>
					<g>
						<path class="st7" d="M50.5,467.3c-1.8,0.9-4,0.2-4.8-1.6c-0.9-1.8-0.2-4,1.6-4.8c1.8-0.9,4-0.2,4.8,1.6
							C53,464.2,52.3,466.4,50.5,467.3L50.5,467.3z M47.6,461.6c-1.4,0.7-1.9,2.3-1.2,3.7c0.7,1.4,2.3,1.9,3.7,1.2
							c1.4-0.7,1.9-2.3,1.2-3.7C50.6,461.5,49,460.9,47.6,461.6z"/>
						<path class="st7" d="M50.6,467.6c-1.9,1-4.3,0.2-5.3-1.7s-0.2-4.3,1.7-5.3s4.3-0.2,5.3,1.7C53.3,464.2,52.5,466.6,50.6,467.6z
							 M47.4,461.1c-1.6,0.8-2.3,2.8-1.5,4.4c0.8,1.6,2.8,2.3,4.4,1.5s2.3-2.8,1.5-4.4S49,460.3,47.4,461.1z M50.2,466.8
							c-1.5,0.8-3.4,0.1-4.1-1.4c-0.8-1.5-0.1-3.4,1.4-4.1c1.5-0.8,3.4-0.1,4.1,1.4C52.4,464.2,51.7,466,50.2,466.8z M47.8,461.9
							c-1.2,0.6-1.7,2.1-1.1,3.3s2.1,1.7,3.3,1.1s1.7-2.1,1.1-3.3S49,461.3,47.8,461.9z"/>
					</g>
				</g>
			</g>
			<g>
				<g>
					<circle class="st37" cx="79.1" cy="501.5" r="4.9"/>
				</g>
				<g>
					<circle class="st38" cx="79.1" cy="501.5" r="3.5"/>
				</g>
				<g>
					<path class="st37" d="M79.9,503.8c-0.6,0.2-1.2,0.1-1.6-0.5c0-0.1,0-0.1,0-0.2l0.5-0.2c0.1,0,0.1,0,0.2,0
						c0.1,0.2,0.3,0.3,0.5,0.3c0.1,0,0.1-0.1,0.1-0.2l-0.6-1.1c0,0-0.1-0.1-0.1-0.1c-0.6,0.1-1.3,0.2-1.7-0.6
						c-0.3-0.7-0.1-1.3,0.5-1.8c0,0,0.1-0.1,0-0.2l-0.2-0.3c0-0.1,0-0.1,0.1-0.2l0.1-0.1c0.1,0,0.1,0,0.2,0.1l0.1,0.3
						c0,0.1,0.1,0.1,0.1,0.1c0.6-0.2,1.1,0,1.5,0.5c0,0.1,0,0.1,0,0.2l-0.5,0.2c-0.1,0-0.1,0-0.1,0c-0.1-0.1-0.3-0.2-0.5-0.3
						c-0.1,0-0.2,0.1-0.1,0.2l0.5,1.1c0,0,0.1,0.1,0.1,0.1c0.6-0.1,1.2-0.2,1.7,0.6c0.3,0.6,0.2,1.3-0.4,1.8c0,0-0.1,0.1,0,0.2
						l0.2,0.3c0,0.1,0,0.1-0.1,0.2l-0.1,0.1c-0.1,0-0.1,0-0.2-0.1l-0.1-0.3C80,503.8,80,503.8,79.9,503.8L79.9,503.8z M78.7,501.1
						l-0.5-0.9c0-0.1-0.1-0.1-0.2,0c-0.2,0.2-0.2,0.5-0.1,0.8c0.1,0.3,0.4,0.4,0.6,0.4C78.7,501.2,78.7,501.2,78.7,501.1z
						 M79.5,501.9l0.5,0.9c0,0.1,0.1,0.1,0.2,0c0.2-0.2,0.2-0.5,0.1-0.8c-0.1-0.3-0.4-0.4-0.6-0.4C79.6,501.8,79.5,501.8,79.5,501.9
						z"/>
				</g>
				<g>
					<path class="st7" d="M81.5,506.3c-2.6,1.3-5.9,0.3-7.2-2.4c-1.3-2.6-0.3-5.9,2.4-7.2c2.6-1.3,5.9-0.3,7.2,2.4
						C85.2,501.7,84.2,505,81.5,506.3L81.5,506.3z M77.1,497.5c-2.2,1.1-3.1,3.8-2,6c1.1,2.2,3.8,3.1,6,2c2.2-1.1,3.1-3.8,2-6
						C82,497.3,79.3,496.4,77.1,497.5L77.1,497.5z"/>
					<path class="st33" d="M81.7,506.6c-2.8,1.4-6.2,0.3-7.6-2.5c-1.4-2.8-0.3-6.2,2.5-7.6c2.8-1.4,6.2-0.3,7.6,2.5
						C85.6,501.8,84.4,505.2,81.7,506.6z M76.9,497c-2.5,1.2-3.5,4.3-2.2,6.8s4.3,3.5,6.8,2.2c2.5-1.2,3.5-4.3,2.2-6.8
						S79.3,495.8,76.9,497z M81.3,505.8c-2.4,1.2-5.3,0.2-6.5-2.1c-1.2-2.4-0.2-5.3,2.1-6.5c2.4-1.2,5.3-0.2,6.5,2.1
						C84.6,501.7,83.6,504.6,81.3,505.8z M77.2,497.8c-2.1,1-2.9,3.6-1.9,5.6c1,2.1,3.6,2.9,5.6,1.9c2.1-1,2.9-3.6,1.9-5.6
						C81.8,497.6,79.3,496.7,77.2,497.8z"/>
				</g>
			</g>
			<g>
				<path class="st28" d="M82.6,493.5l7.2,3.7c0.2,0.1,0.5,0,0.5-0.3l1.3-8c0-0.3-0.3-0.5-0.5-0.4l-1.5,0.7c-0.2,0.1-0.4,0-0.5-0.2
					l-4.6-9.1c-0.1-0.2-0.3-0.3-0.5-0.2l-4.3,2.1c-0.2,0.1-0.3,0.3-0.2,0.5l4.6,9.1c0.1,0.2,0,0.4-0.2,0.5l-1.5,0.7
					C82.3,493,82.3,493.4,82.6,493.5L82.6,493.5z"/>
				<path class="st7" d="M90.4,497.8c-0.3,0.1-0.6,0.1-0.9,0l-7.2-3.7c-0.3-0.2-0.6-0.5-0.6-0.9c0-0.4,0.2-0.7,0.6-0.9l1.2-0.6
					l-4.5-8.9c-0.3-0.5-0.1-1.1,0.5-1.4l4.3-2.1c0.5-0.3,1.1-0.1,1.4,0.5l4.5,8.9l1.2-0.6c0.4-0.2,0.8-0.1,1.1,0.1
					c0.3,0.2,0.5,0.6,0.4,1l-1.3,8C90.9,497.4,90.7,497.7,90.4,497.8C90.4,497.8,90.4,497.8,90.4,497.8z M83.4,493.2l6.3,3.3l1.1-7
					l-0.9,0.5c-0.5,0.3-1.1,0.1-1.4-0.5l-4.5-8.9l-3.7,1.9l4.5,8.9c0.3,0.5,0.1,1.1-0.5,1.4L83.4,493.2z M82.9,492.9L82.9,492.9
					C82.9,492.9,82.9,492.9,82.9,492.9L82.9,492.9z"/>
			</g>
			<g>
				<g>
					<path class="st7" d="M77.8,466.6l-26,13c-0.6,0.3-1.4,0.1-1.7-0.6l-0.8-1.5c-0.3-0.6-0.1-1.4,0.6-1.7l26-13
						c0.6-0.3,1.4-0.1,1.7,0.6l0.8,1.5C78.7,465.5,78.5,466.3,77.8,466.6z M50.3,476.6c-0.2,0.1-0.3,0.4-0.2,0.6l0.8,1.5
						c0.1,0.2,0.4,0.3,0.6,0.2l26-13c0.2-0.1,0.3-0.4,0.2-0.6l-0.8-1.5c-0.1-0.2-0.4-0.3-0.6-0.2L50.3,476.6z"/>
					<path class="st7" d="M78,467l-26,13c-0.9,0.4-1.9,0.1-2.3-0.8l-0.8-1.5c-0.4-0.9-0.1-1.9,0.8-2.3l26-13
						c0.9-0.4,1.9-0.1,2.3,0.8l0.8,1.5C79.2,465.5,78.9,466.6,78,467z M50.6,477l0.8,1.5l25.9-13.1l-0.8-1.5L50.6,477z"/>
				</g>
				<g>
					<path class="st7" d="M78.3,492.9l-5.6,2.8c-0.4,0.2-0.9,0-1.1-0.4l-4.5-9l-14.7-7.2c-0.1-0.1-0.2-0.2-0.2-0.4
						c0-0.2,0.1-0.3,0.2-0.4l24.2-12.1c0.1-0.1,0.3-0.1,0.4,0c0.1,0.1,0.2,0.3,0.2,0.4l-3,16.1l4.5,9
						C78.9,492.2,78.7,492.7,78.3,492.9z M53.5,478.8l14,6.9c0.1,0,0.2,0.1,0.2,0.2l4.6,9.1l5.6-2.8l-4.6-9.1c0-0.1-0.1-0.2,0-0.3
						l2.8-15.4L53.5,478.8L53.5,478.8z"/>
					<path class="st7" d="M78.5,493.3l-5.6,2.8c-0.6,0.3-1.4,0.1-1.8-0.6l-4.4-8.8l-14.5-7.1c-0.3-0.1-0.5-0.5-0.5-0.8
						c0-0.3,0.2-0.6,0.5-0.8l24.2-12.1c0.3-0.2,0.7-0.1,0.9,0.1c0.3,0.2,0.4,0.5,0.3,0.9l-2.9,15.9l4.4,8.8
						C79.4,492.2,79.2,493,78.5,493.3z M72.5,494.4l4.8-2.4l-4.4-8.7c-0.1-0.2-0.1-0.4-0.1-0.6l2.7-14.5l-21,10.6l13.2,6.5
						c0.2,0.1,0.3,0.2,0.4,0.4L72.5,494.4z"/>
				</g>
			</g>
		</g>
	</g>
</g>
</svg>
