<?xml version="1.0" encoding="utf-8"?>
<!-- Generator: Adobe Illustrator 25.0.0, SVG Export Plug-In . SVG Version: 6.00 Build 0)  -->
<svg version="1.1" id="Layer_1" xmlns="http://www.w3.org/2000/svg" xmlns:xlink="http://www.w3.org/1999/xlink" x="0px" y="0px"
	 viewBox="0 0 166 150" style="enable-background:new 0 0 166 150;" xml:space="preserve">
<style type="text/css">
	.st0{fill:#87796F;}
	.st1{fill:#C1A897;}
	.st2{fill:#F9A7A7;}
	.st3{fill:#35414D;}
	.st4{fill:#36414D;}
	.st5{fill:#FFE4CF;}
	.st6{fill:#E0EBFC;}
	.st7{fill:#B9BEFC;}
	.st8{fill:#EAA97D;}
	.st9{fill:#FFEA92;}
	.st10{fill:#D6DF58;}
	.st11{fill:#07BEEF;}
	.st12{fill:#FC635B;}
	.st13{fill:#7EC927;}
	.st14{fill:#FFA733;}
	.st15{fill:#00B6E0;}
	.st16{fill:#F34234;}
	.st17{fill:#60A917;}
	.st18{fill:#FF9801;}
	.st19{fill:#EF6D7A;}
	.st20{fill:#3A312A;}
	.st21{fill:#8AC5DC;}
	.st22{fill-rule:evenodd;clip-rule:evenodd;fill:#FFB54C;}
	.st23{fill-rule:evenodd;clip-rule:evenodd;fill:#35414D;}
	.st24{fill-rule:evenodd;clip-rule:evenodd;fill:#FFA733;}
	.st25{fill-rule:evenodd;clip-rule:evenodd;fill:#2FB1D4;}
	.st26{fill-rule:evenodd;clip-rule:evenodd;fill:#FF5A5A;}
</style>
<g>
	<g>
		<g>
			<path class="st0" d="M47.1,92.4H2.9c-0.7,0-1.3-0.6-1.3-1.3v-2.6c0-0.7,0.6-1.3,1.3-1.3h44.2c0.7,0,1.3,0.6,1.3,1.3v2.6
				C48.4,91.8,47.8,92.4,47.1,92.4L47.1,92.4z"/>
		</g>
		<g>
			<path class="st1" d="M25.7,92.4h-1.4H4.4l15.2,20v15.5c0,0.4,0.3,0.7,0.7,0.7h9.6c0.4,0,0.7-0.3,0.7-0.7v-15.5l15.2-20H25.7z"/>
		</g>
		<g>
			<g>
				<g>
					<path class="st2" d="M45.4,80.8h-9.7v-2c0-2.3,1.9-4.2,4.2-4.2h1.3c2.3,0,4.2,1.9,4.2,4.2L45.4,80.8L45.4,80.8z"/>
				</g>
				<g>
					<path class="st3" d="M45.4,81.4h-9.7c-0.4,0-0.6-0.3-0.6-0.6v-2c0-2.7,2.2-4.8,4.8-4.8h1.3c2.7,0,4.8,2.2,4.8,4.8v2
						C46,81.1,45.7,81.4,45.4,81.4L45.4,81.4z M36.3,80.1h8.4v-1.3c0-2-1.6-3.5-3.5-3.5h-1.3c-2,0-3.5,1.6-3.5,3.5L36.3,80.1
						L36.3,80.1z"/>
					<path class="st4" d="M45.4,81.9h-9.7c-0.6,0-1.1-0.5-1.1-1.1v-2c0-2.9,2.4-5.3,5.3-5.3h1.3c2.9,0,5.3,2.4,5.3,5.3v2
						C46.5,81.4,46,81.9,45.4,81.9z M39.9,74.4c-2.4,0-4.4,2-4.4,4.4v2c0,0.1,0.1,0.2,0.2,0.2h9.7c0.1,0,0.2-0.1,0.2-0.2v-2
						c0-2.4-2-4.4-4.4-4.4H39.9z M45.2,80.6h-9.3l0-1.8c0-2.2,1.8-4,4-4h1.3c2.2,0,4,1.8,4,4V80.6z M36.8,79.7h7.5v-0.9
						c0-1.7-1.4-3.1-3.1-3.1h-1.3c-1.7,0-3.1,1.4-3.1,3.1V79.7z"/>
				</g>
				<g>
					<circle class="st5" cx="40.5" cy="69.8" r="4.8"/>
				</g>
				<g>
					<path class="st3" d="M40.5,75.3c-3,0-5.5-2.5-5.5-5.5c0-3,2.5-5.5,5.5-5.5c3,0,5.5,2.5,5.5,5.5C46,72.8,43.5,75.3,40.5,75.3z
						 M40.5,65.6c-2.3,0-4.2,1.9-4.2,4.2c0,2.3,1.9,4.2,4.2,4.2c2.3,0,4.2-1.9,4.2-4.2S42.8,65.6,40.5,65.6z"/>
					<path class="st4" d="M40.5,75.7c-3.3,0-6-2.7-6-6s2.7-6,6-6s6,2.7,6,6S43.8,75.7,40.5,75.7z M40.5,64.7c-2.8,0-5,2.3-5,5
						s2.3,5,5,5s5-2.3,5-5S43.3,64.7,40.5,64.7z M40.5,74.4c-2.6,0-4.7-2.1-4.7-4.7c0-2.6,2.1-4.7,4.7-4.7c2.6,0,4.7,2.1,4.7,4.7
						C45.2,72.3,43.1,74.4,40.5,74.4z M40.5,66c-2.1,0-3.7,1.7-3.7,3.7s1.7,3.7,3.7,3.7c2.1,0,3.7-1.7,3.7-3.7S42.6,66,40.5,66z"/>
				</g>
			</g>
			<g>
				<g>
					<path class="st6" d="M31.3,80.7H18.6v-2.6c0-3,2.5-5.5,5.5-5.5h1.7c3,0,5.5,2.5,5.5,5.5L31.3,80.7L31.3,80.7z"/>
				</g>
				<g>
					<path class="st3" d="M31.3,81.4H18.6c-0.4,0-0.7-0.3-0.7-0.7v-2.6c0-3.4,2.8-6.2,6.2-6.2h1.7c3.4,0,6.2,2.8,6.2,6.2v2.6
						C32.1,81.1,31.7,81.4,31.3,81.4L31.3,81.4z M19.4,79.9h11.2v-1.8c0-2.6-2.1-4.7-4.7-4.7h-1.7c-2.6,0-4.7,2.1-4.7,4.7L19.4,79.9
						L19.4,79.9z"/>
					<path class="st3" d="M31.3,82H18.6c-0.7,0-1.3-0.6-1.3-1.3v-2.6c0-3.7,3-6.8,6.8-6.8h1.7c3.7,0,6.8,3,6.8,6.8v2.6
						C32.6,81.4,32,82,31.3,82z M24.1,72.4c-3.1,0-5.7,2.6-5.7,5.7v2.6c0,0.1,0.1,0.2,0.2,0.2h12.7c0.1,0,0.2-0.1,0.2-0.2v-2.6
						c0-3.1-2.6-5.7-5.7-5.7H24.1z M31.1,80.5H18.8v-2.4c0-2.9,2.4-5.3,5.3-5.3h1.7c2.9,0,5.3,2.4,5.3,5.3V80.5z M19.9,79.4H30v-1.3
						c0-2.3-1.9-4.2-4.2-4.2h-1.7c-2.3,0-4.2,1.9-4.2,4.2V79.4z"/>
				</g>
				<g>
					<circle class="st5" cx="25" cy="66.2" r="6.4"/>
				</g>
				<g>
					<path class="st3" d="M25,73.3c-3.9,0-7.1-3.2-7.1-7.1s3.2-7.1,7.1-7.1s7.1,3.2,7.1,7.1S28.9,73.3,25,73.3z M25,60.6
						c-3.1,0-5.6,2.5-5.6,5.6c0,3.1,2.5,5.6,5.6,5.6s5.6-2.5,5.6-5.6C30.6,63.1,28.1,60.6,25,60.6z"/>
					<path class="st3" d="M25,73.9c-4.2,0-7.6-3.4-7.6-7.6s3.4-7.6,7.6-7.6s7.6,3.4,7.6,7.6S29.2,73.9,25,73.9z M25,59.7
						c-3.6,0-6.6,2.9-6.6,6.6c0,3.6,2.9,6.6,6.6,6.6s6.6-2.9,6.6-6.6C31.5,62.6,28.6,59.7,25,59.7z M25,72.4c-3.4,0-6.1-2.8-6.1-6.1
						s2.8-6.1,6.1-6.1c3.4,0,6.1,2.8,6.1,6.1S28.4,72.4,25,72.4z M25,61.2c-2.8,0-5.1,2.3-5.1,5.1c0,2.8,2.3,5.1,5.1,5.1
						c2.8,0,5.1-2.3,5.1-5.1C30,63.4,27.8,61.2,25,61.2z"/>
				</g>
			</g>
			<g>
				<g>
					<path class="st7" d="M14.3,80.8H4.6v-2c0-2.3,1.9-4.2,4.2-4.2h1.3c2.3,0,4.2,1.9,4.2,4.2L14.3,80.8L14.3,80.8z"/>
				</g>
				<g>
					<path class="st3" d="M14.3,81.4H4.6c-0.4,0-0.6-0.3-0.6-0.6v-2c0-2.7,2.2-4.8,4.8-4.8h1.3c2.7,0,4.8,2.2,4.8,4.8v2
						C14.9,81.1,14.6,81.4,14.3,81.4L14.3,81.4z M5.2,80.1h8.4v-1.3c0-2-1.6-3.5-3.5-3.5H8.8c-2,0-3.5,1.6-3.5,3.5L5.2,80.1z"/>
					<path class="st3" d="M14.3,81.9H4.6c-0.6,0-1.1-0.5-1.1-1.1v-2c0-2.9,2.4-5.3,5.3-5.3h1.3c2.9,0,5.3,2.4,5.3,5.3v2
						c0,0.3-0.1,0.6-0.3,0.8C14.8,81.8,14.6,81.9,14.3,81.9z M8.8,74.4c-2.4,0-4.4,2-4.4,4.4v2c0,0.1,0.1,0.2,0.2,0.2h9.7
						c0.1,0,0.1,0,0.1-0.1c0,0,0.1-0.1,0.1-0.1v-2c0-2.4-2-4.4-4.4-4.4H8.8z M14.1,80.6H4.8v-1.8c0-2.2,1.8-4,4-4h1.3
						c2.2,0,4,1.8,4,4V80.6z M5.7,79.7h7.5v-0.9c0-1.7-1.4-3.1-3.1-3.1H8.8c-1.7,0-3.1,1.4-3.1,3.1V79.7z"/>
				</g>
				<g>
					<circle class="st5" cx="9.4" cy="69.8" r="4.8"/>
				</g>
				<g>
					<path class="st3" d="M9.4,75.3c-3,0-5.5-2.5-5.5-5.5c0-3,2.5-5.5,5.5-5.5s5.5,2.5,5.5,5.5C14.9,72.8,12.4,75.3,9.4,75.3
						L9.4,75.3z M9.4,65.6c-2.3,0-4.2,1.9-4.2,4.2c0,2.3,1.9,4.2,4.2,4.2s4.2-1.9,4.2-4.2S11.7,65.6,9.4,65.6z"/>
					<path class="st3" d="M9.4,75.7c-3.3,0-6-2.7-6-6s2.7-6,6-6s6,2.7,6,6S12.7,75.7,9.4,75.7z M9.4,64.7c-2.8,0-5,2.3-5,5
						s2.3,5,5,5s5-2.3,5-5S12.2,64.7,9.4,64.7z M9.4,74.4c-2.6,0-4.7-2.1-4.7-4.7c0-2.6,2.1-4.7,4.7-4.7c2.6,0,4.7,2.1,4.7,4.7
						C14.1,72.3,12,74.4,9.4,74.4z M9.4,66c-2.1,0-3.7,1.7-3.7,3.7s1.7,3.7,3.7,3.7s3.7-1.7,3.7-3.7S11.5,66,9.4,66z"/>
				</g>
			</g>
		</g>
		<g>
			<g>
				<circle class="st8" cx="25" cy="141.4" r="7.5"/>
			</g>
			<g>
				<circle class="st9" cx="25" cy="141.4" r="5.4"/>
			</g>
			<g>
				<path class="st8" d="M24.5,145.1c-1-0.2-1.7-0.8-1.8-1.8c0-0.1,0.1-0.2,0.2-0.2h0.8c0.1,0,0.2,0.1,0.2,0.2
					c0.1,0.4,0.2,0.6,0.5,0.8c0.1,0.1,0.3,0,0.3-0.2v-1.9c0-0.1-0.1-0.2-0.1-0.2c-0.9-0.3-1.8-0.6-1.8-2c0-1.1,0.7-1.9,1.8-2.1
					c0.1,0,0.2-0.1,0.2-0.2V137c0-0.1,0.1-0.2,0.2-0.2h0.2c0.1,0,0.2,0.1,0.2,0.2v0.5c0,0.1,0.1,0.2,0.2,0.2
					c0.9,0.1,1.6,0.7,1.7,1.7c0,0.1-0.1,0.2-0.2,0.2h-0.8c-0.1,0-0.2-0.1-0.2-0.1c-0.1-0.3-0.2-0.5-0.4-0.7c-0.1-0.1-0.3,0-0.3,0.2
					v1.8c0,0.1,0.1,0.2,0.1,0.2c0.9,0.2,1.8,0.6,1.8,2c0,1-0.6,1.9-1.8,2.1c-0.1,0-0.2,0.1-0.2,0.2v0.5c0,0.1-0.1,0.2-0.2,0.2h-0.2
					c-0.1,0-0.2-0.1-0.2-0.2v-0.5C24.7,145.2,24.6,145.1,24.5,145.1L24.5,145.1z M24.7,140.5v-1.6c0-0.1-0.1-0.2-0.2-0.2
					c-0.4,0.1-0.6,0.5-0.6,1c0,0.5,0.2,0.8,0.6,0.9C24.5,140.7,24.7,140.6,24.7,140.5z M25.3,142.2v1.6c0,0.1,0.1,0.2,0.3,0.2
					c0.4-0.2,0.6-0.6,0.6-1c0-0.5-0.3-0.8-0.6-0.9C25.4,142,25.3,142.1,25.3,142.2z"/>
			</g>
			<g>
				<path class="st3" d="M25,149.5c-4.5,0-8.1-3.7-8.1-8.1c0-4.5,3.7-8.1,8.1-8.1s8.1,3.7,8.1,8.1C33.1,145.9,29.5,149.5,25,149.5
					L25,149.5z M25,134.5c-3.8,0-6.8,3.1-6.8,6.8c0,3.8,3.1,6.8,6.8,6.8c3.8,0,6.8-3.1,6.8-6.8S28.7,134.5,25,134.5L25,134.5z"/>
				<path class="st4" d="M25,150c-4.7,0-8.6-3.9-8.6-8.6c0-4.7,3.9-8.6,8.6-8.6s8.6,3.9,8.6,8.6C33.6,146.1,29.7,150,25,150z
					 M25,133.7c-4.2,0-7.7,3.4-7.7,7.7c0,4.2,3.4,7.7,7.7,7.7s7.7-3.4,7.7-7.7C32.6,137.2,29.2,133.7,25,133.7z M25,148.7
					c-4,0-7.3-3.3-7.3-7.3c0-4,3.3-7.3,7.3-7.3c4,0,7.3,3.3,7.3,7.3C32.3,145.4,29,148.7,25,148.7z M25,135c-3.5,0-6.4,2.9-6.4,6.4
					c0,3.5,2.9,6.4,6.4,6.4c3.5,0,6.4-2.9,6.4-6.4C31.4,137.9,28.5,135,25,135z"/>
			</g>
		</g>
		<g>
			<path class="st10" d="M35.1,132.9l7.2,10c0.2,0.3,0.7,0.3,0.9,0l7.2-10c0.3-0.4,0-0.9-0.5-0.9h-2.5c-0.3,0-0.6-0.3-0.6-0.6v-15.6
				c0-0.3-0.3-0.6-0.6-0.6h-7.3c-0.3,0-0.6,0.3-0.6,0.6v15.6c0,0.3-0.3,0.6-0.6,0.6h-2.5C35.1,132,34.9,132.5,35.1,132.9L35.1,132.9
				z"/>
			<path class="st3" d="M42.8,144.1c-0.5,0-1-0.2-1.3-0.7l-7.2-10c-0.4-0.5-0.4-1.1-0.1-1.6c0.3-0.5,0.8-0.9,1.4-0.9h2v-15.1
				c0-0.9,0.7-1.6,1.6-1.6h7.3c0.9,0,1.6,0.7,1.6,1.6v15.1h2c0.6,0,1.1,0.3,1.4,0.9c0.3,0.5,0.2,1.2-0.1,1.6l-7.2,10
				C43.8,143.8,43.3,144.1,42.8,144.1C42.8,144.1,42.8,144.1,42.8,144.1z M36.5,133l6.3,8.7l6.3-8.7h-1.6c-0.9,0-1.6-0.7-1.6-1.6
				v-15.1h-6.4v15.1c0,0.9-0.7,1.6-1.6,1.6H36.5z M36,132.3L36,132.3C36,132.3,36,132.3,36,132.3L36,132.3z"/>
		</g>
		<g>
			<g>
				<path class="st3" d="M47.1,93H2.9c-1.1,0-2-0.9-2-2v-2.6c0-1.1,0.9-2,2-2h44.2c1.1,0,2,0.9,2,2v2.6C49,92.1,48.2,93,47.1,93z
					 M2.9,87.8c-0.4,0-0.7,0.3-0.7,0.7v2.6c0,0.4,0.3,0.7,0.7,0.7h44.2c0.4,0,0.7-0.3,0.7-0.7v-2.6c0-0.4-0.3-0.7-0.7-0.7H2.9z"/>
				<path class="st3" d="M47.1,93.7H2.9c-1.5,0-2.7-1.2-2.7-2.7v-2.6c0-1.5,1.2-2.7,2.7-2.7h44.2c1.5,0,2.7,1.2,2.7,2.7v2.6
					C49.7,92.5,48.5,93.7,47.1,93.7z M2.9,88.5v2.5l44.2,0l0-2.5L2.9,88.5z"/>
			</g>
			<g>
				<path class="st3" d="M29.7,129.2h-9.6c-0.7,0-1.3-0.6-1.3-1.3v-15.3l-15-19.8c-0.1-0.2-0.2-0.5-0.1-0.7c0.1-0.2,0.3-0.4,0.6-0.4
					h41.2c0.2,0,0.5,0.1,0.6,0.4c0.1,0.2,0.1,0.5-0.1,0.7l-15,19.8v15.3C31,128.6,30.5,129.2,29.7,129.2z M5.7,93L20,112
					c0.1,0.1,0.1,0.2,0.1,0.4v15.5l9.6,0l0-15.5c0-0.1,0-0.3,0.1-0.4L44.3,93L5.7,93L5.7,93z"/>
				<path class="st3" d="M29.7,129.9h-9.6c-1.1,0-2-0.9-2-2v-15.1L3.3,93.2c-0.3-0.4-0.4-0.9-0.1-1.4C3.4,91.3,3.9,91,4.4,91h41.2
					c0.5,0,1,0.3,1.2,0.7c0.2,0.5,0.2,1-0.1,1.4l-14.9,19.6v15.1C31.7,129,30.8,129.9,29.7,129.9z M20.9,127.2l8.2,0l0-14.8
					c0-0.3,0.1-0.6,0.3-0.8l13.5-17.8H7.1l13.5,17.8c0.2,0.2,0.3,0.5,0.3,0.8V127.2z"/>
			</g>
		</g>
	</g>
	<g>
		<g>
			<path class="st11" d="M84.5,94.2c0,2.7-2.2,4.9-4.9,4.9s-4.9-2.2-4.9-4.9c0-2.7,2.2-4.9,4.9-4.9S84.5,91.5,84.5,94.2L84.5,94.2z"
				/>
			<path class="st12" d="M111.2,71.3c0,2.7-2.2,4.9-4.9,4.9c-2.7,0-4.9-2.2-4.9-4.9c0-2.7,2.2-4.9,4.9-4.9
				C109,66.3,111.2,68.6,111.2,71.3z"/>
			<path class="st13" d="M137.8,87.5c0,2.7-2.2,4.9-4.9,4.9c-2.7,0-4.9-2.2-4.9-4.9c0-2.7,2.2-4.9,4.9-4.9S137.8,84.7,137.8,87.5
				L137.8,87.5z"/>
			<path class="st14" d="M164.4,61.8c0,2.7-2.2,4.9-4.9,4.9c-2.7,0-4.9-2.2-4.9-4.9c0-2.7,2.2-4.9,4.9-4.9
				C162.2,56.9,164.4,59.1,164.4,61.8z"/>
			<path class="st15" d="M84.5,94v0.2c0,2.8-2.2,5-4.9,5c-2.7,0-4.9-2.2-4.9-5c0-1.5,0.7-2.8,1.7-3.7c0.1,2.6,2.3,4.7,4.9,4.7
				C82.6,95.2,83.7,94.7,84.5,94z"/>
			<path class="st16" d="M111.2,71.1v0.2c0,2.8-2.2,5-4.9,5c-2.7,0-4.9-2.2-4.9-5c0-1.5,0.7-2.8,1.7-3.7c0.1,2.6,2.3,4.8,4.9,4.8
				C109.2,72.3,110.3,71.8,111.2,71.1L111.2,71.1z"/>
			<path class="st17" d="M137.8,87.3v0.2c0,2.7-2.2,4.9-4.9,4.9c-2.7,0-5-2.2-5-4.9c0-1.5,0.7-2.8,1.7-3.7c0.1,2.6,2.3,4.7,4.9,4.7
				C135.8,88.5,136.9,88,137.8,87.3L137.8,87.3z"/>
			<path class="st18" d="M164.4,61.6v0.2c0,2.7-2.2,4.9-4.9,4.9c-2.7,0-4.9-2.2-4.9-4.9c0-1.5,0.7-2.8,1.7-3.7
				c0.1,2.6,2.3,4.7,4.9,4.7C162.4,62.8,163.5,62.4,164.4,61.6z"/>
			<path class="st3" d="M79.6,100.8c3.6,0,6.6-2.9,6.6-6.6c0-1.1-0.3-2.1-0.7-3l16.7-14.9c1.1,0.9,2.6,1.5,4.2,1.5
				c1.9,0,3.6-0.8,4.8-2.2l15.4,10.4c-0.1,0.5-0.2,0.9-0.2,1.4c0,3.6,2.9,6.6,6.6,6.6c3.6,0,6.6-2.9,6.6-6.6c0-1-0.2-1.9-0.6-2.8
				L156,67.3c1,0.6,2.2,1,3.4,1c3.6,0,6.6-2.9,6.6-6.6c0-3.6-2.9-6.6-6.6-6.6c-3.6,0-6.6,2.9-6.6,6.6c0,1.2,0.3,2.3,0.9,3.2
				l-17.1,17.2c-1.1-0.8-2.4-1.3-3.9-1.3c-2,0-3.7,0.9-4.9,2.2l-15.4-10.4c0.1-0.5,0.2-1,0.2-1.5c0-3.6-2.9-6.6-6.6-6.6
				c-3.6,0-6.6,2.9-6.6,6.6c0,0.8,0.2,1.7,0.5,2.4L83.3,88.7c-1-0.7-2.3-1.1-3.7-1.1c-3.6,0-6.6,2.9-6.6,6.6
				C73,97.8,76,100.8,79.6,100.8z M159.5,58.5c1.8,0,3.3,1.5,3.3,3.3s-1.5,3.3-3.3,3.3s-3.3-1.5-3.3-3.3S157.6,58.5,159.5,58.5z
				 M132.8,84.2c1.8,0,3.3,1.5,3.3,3.3s-1.5,3.3-3.3,3.3s-3.3-1.5-3.3-3.3C129.5,85.7,131,84.2,132.8,84.2L132.8,84.2z M106.2,68
				c1.8,0,3.3,1.5,3.3,3.3c0,1.8-1.5,3.3-3.3,3.3c-1.8,0-3.3-1.5-3.3-3.3C102.9,69.5,104.4,68,106.2,68L106.2,68z M79.6,90.9
				c1.8,0,3.3,1.5,3.3,3.3c0,1.8-1.5,3.3-3.3,3.3s-3.3-1.5-3.3-3.3C76.3,92.4,77.8,90.9,79.6,90.9L79.6,90.9z"/>
		</g>
		<g>
			<path class="st19" d="M76,124.2h17.1v24.4H76V124.2z"/>
			<path class="st20" d="M93.1,150H76c-0.7,0-1.4-0.6-1.4-1.4v-24.4c0-0.7,0.6-1.4,1.4-1.4h17.1c0.7,0,1.4,0.6,1.4,1.4v24.4
				C94.4,149.4,93.8,150,93.1,150z M77.3,147.3h14.4v-21.7H77.3V147.3z"/>
			<path class="st10" d="M99.7,99.4h17.1v49.2H99.7V99.4z"/>
			<path class="st20" d="M116.8,150H99.7c-0.7,0-1.4-0.6-1.4-1.4V99.4c0-0.7,0.6-1.4,1.4-1.4h17.1c0.7,0,1.4,0.6,1.4,1.4v49.2
				C118.1,149.4,117.5,150,116.8,150z M101.1,147.3h14.4v-46.5h-14.4V147.3z"/>
			<path class="st21" d="M123.4,111.9h17.1v36.7h-17.1V111.9z"/>
			<path class="st20" d="M140.5,150h-17.1c-0.7,0-1.4-0.6-1.4-1.4v-36.7c0-0.7,0.6-1.4,1.4-1.4h17.1c0.7,0,1.4,0.6,1.4,1.4v36.7
				C141.9,149.4,141.3,150,140.5,150z M124.8,147.3h14.4v-34h-14.4V147.3z"/>
			<path class="st0" d="M147.2,89.8h17.1v58.9h-17.1V89.8z"/>
			<path class="st20" d="M164.2,150h-17.1c-0.7,0-1.4-0.6-1.4-1.4V89.8c0-0.7,0.6-1.4,1.4-1.4h17.1c0.7,0,1.4,0.6,1.4,1.4v58.9
				C165.6,149.4,165,150,164.2,150L164.2,150z M148.5,147.3h14.4V91.1h-14.4V147.3z"/>
		</g>
	</g>
	<g>
		<path class="st22" d="M50.9,25.9c0,7.8-3.6,15.4-10.4,20.3L25.9,25.9h4.2L50.9,25.9z"/>
		<circle class="st23" cx="25.9" cy="25.9" r="25.9"/>
		<circle class="st23" cx="25.9" cy="25.9" r="25"/>
		<path class="st23" d="M25.9,0.8c13.8,0,25,11.2,25,25h-25V0.8z"/>
		<path class="st24" d="M41,42.6L30.7,28.3h17.6C47.7,34,45,39,41,42.6L41,42.6z"/>
		<path class="st25" d="M3.3,25.9c0,12.4,10.1,22.6,22.6,22.6c4,0,7.8-1.1,11.1-2.9L23.9,27.3l0,0c-0.3-0.4-0.5-0.9-0.5-1.4V3.4
			C12.1,4.6,3.3,14.2,3.3,25.9z"/>
		<path class="st26" d="M48.3,23.4h-20v-20C38.8,4.6,47.2,12.9,48.3,23.4z"/>
	</g>
</g>
</svg>
