<?xml version="1.0" encoding="utf-8"?>
<!-- Generator: Adobe Illustrator 25.0.0, SVG Export Plug-In . SVG Version: 6.00 Build 0)  -->
<svg version="1.1" id="Layer_1" xmlns="http://www.w3.org/2000/svg" xmlns:xlink="http://www.w3.org/1999/xlink" x="0px" y="0px"
	 viewBox="0 0 161.6 150" style="enable-background:new 0 0 161.6 150;" xml:space="preserve">
<style type="text/css">
	.st0{fill-rule:evenodd;clip-rule:evenodd;fill:#7DDF96;}
	.st1{fill:#0D9353;}
	.st2{fill:#35414D;}
	.st3{fill-rule:evenodd;clip-rule:evenodd;fill:#0D9353;}
	.st4{fill:#FED402;}
	.st5{fill:#FAC600;}
	.st6{fill:#87796F;}
	.st7{fill:#685E68;}
	.st8{fill:#4F4742;}
	.st9{fill:#FF492C;}
	.st10{fill:none;stroke:#35414D;stroke-width:2.3786;stroke-linecap:round;stroke-linejoin:round;stroke-miterlimit:13.3333;}
	.st11{fill:none;stroke:#35414D;stroke-width:1.699;stroke-linecap:round;stroke-linejoin:round;stroke-miterlimit:13.3333;}
	.st12{fill:#FF4755;}
	.st13{fill:#FC2B3A;}
	.st14{fill:#FFE27A;}
	.st15{fill:#F9CF58;}
	.st16{fill:#FFBA57;}
	.st17{fill:#FFAC3E;}
	.st18{fill:#7DDF96;}
</style>
<g>
	<g>
		<g>
			<path id="_409268072_54_" class="st0" d="M101.6,55.3c-1.2,3-2.9,6.5-4.7,9.3c-0.2,0.3-0.6,0.4-1,0.3L71.6,55
				c-1.3-0.5,0-1.9,0.7-3.2c3.2-5.9,5.6-12.6,7.4-19.6c2.2-8.7,5.9-18.9,9.9-27.4c0.2-0.4,0.7-0.5,1.1-0.3l24.4,9.9
				c0.5,0.2,0.7,0.7,0.5,1.1c-4.1,8.7-7.8,19-10.1,28.1C104.3,47.8,103,51.8,101.6,55.3L101.6,55.3z"/>
			<path id="_409267760_108_" class="st1" d="M86.9,13.7c1.4-3.4,2.8-6.5,4-9l24.1,9.8c-1.3,2.6-2.7,5.6-4,9
				c-2.6,6.3-4.9,13.2-6.5,18.9c-1.1,4-2.3,7.7-3.7,11.1c-2.4,6-4.6,9.4-5.5,10.6l-24-9.7c2.1-2.9,4-7.2,5.3-10.4
				c1.5-3.7,2.9-7.8,3.9-11.5C82.1,26.8,84.4,20,86.9,13.7 M85.3,13.1c-2.5,6.1-4.9,13-6.5,18.9c-1,3.6-2.4,7.6-3.9,11.3
				c-1.9,4.7-4,8.8-5.9,11.1c-0.1,0.1-0.1,0.1-0.1,0.2c-0.1,0.4,0,0.8,0.4,0.9l26,10.6c0.3,0.1,0.6,0,0.8-0.2
				c0.1-0.1,3-3.6,6.3-11.7l0,0c1.4-3.4,2.7-7.2,3.8-11.3c1.6-5.9,4-12.7,6.4-18.7c1.5-3.7,3.1-7.2,4.5-9.9c0,0,0,0,0-0.1
				c0.1-0.4,0-0.8-0.4-0.9l-26-10.6c-0.3-0.1-0.7,0-0.9,0.3C88.4,5.8,86.9,9.3,85.3,13.1L85.3,13.1z M102.4,54.2L102.4,54.2
				C102.4,54.2,102.4,54.2,102.4,54.2L102.4,54.2z"/>
			<path id="_409267760_107_" class="st2" d="M86,12.4c1.5-3.6,2.9-6.8,4.2-9.4l26.6,10.8c-1.4,2.7-2.8,5.9-4.3,9.5
				c-2.7,6.6-5.2,13.9-6.8,20c-1.1,4.2-2.4,8.1-3.9,11.7C99.3,61.1,97,64.7,96,66L69.5,55.3c2.2-3.1,4.3-7.6,5.7-11
				c1.6-3.9,3-8.2,4.1-12.2C80.9,26.2,83.4,18.9,86,12.4 M84.2,11.6c-2.6,6.4-5.1,13.7-6.8,20c-1,3.8-2.4,8.1-4,11.9
				c-2,4.9-4.3,9.3-6.3,11.7C67,55.3,67,55.4,67,55.5c-0.2,0.4,0,0.8,0.4,1l28.7,11.6c0.3,0.1,0.7,0,0.9-0.2
				c0.1-0.2,3.2-3.8,6.7-12.3l0,0c1.5-3.6,2.8-7.6,3.9-11.9c1.7-6.2,4.1-13.4,6.7-19.8c1.6-3.9,3.2-7.6,4.8-10.5c0,0,0,0,0-0.1
				c0.2-0.4,0-0.8-0.4-1L90,0.8c-0.4-0.2-0.8,0-1,0.3C87.5,4,85.9,7.7,84.2,11.6L84.2,11.6z M103.7,55.6L103.7,55.6
				C103.7,55.6,103.7,55.6,103.7,55.6L103.7,55.6z"/>
			<g>
				<path id="_409267496_54_" class="st3" d="M88.8,9.1c0.6-1.4,1.2-2.7,1.8-4c0.1-0.3,0.5-0.5,0.8-0.3l4,1.6
					C94,9.5,90.3,9.9,88.8,9.1L88.8,9.1z"/>
				<path id="_409268120_54_" class="st3" d="M111,12.8l4,1.6c0.3,0.1,0.5,0.5,0.3,0.9c-0.6,1.3-1.2,2.6-1.8,4
					C112,18.7,109.9,15.9,111,12.8L111,12.8z"/>
				<path id="_409267040_54_" class="st3" d="M98,60.6c-0.6,1.3-1.3,2.6-2,3.7c-0.2,0.3-0.5,0.4-0.7,0.2L91.5,63
					C92,61.4,95,59.1,98,60.6L98,60.6z"/>
				<path id="_409266752_54_" class="st3" d="M75.6,56.5l-4-1.6c-0.9-0.4,0-1.5,0.6-2.6c0.3-0.7,0.7-1.3,1-2
					C75.5,51.5,76.4,54.1,75.6,56.5L75.6,56.5z"/>
			</g>
			<path id="_409266968_54_" class="st3" d="M105.1,39.2c-2.6,6.3-9.8,9.4-16.1,6.8c-6.3-2.6-9.3-9.8-6.8-16.1
				c2.6-6.3,9.8-9.4,16.1-6.8C104.6,25.7,107.7,32.9,105.1,39.2L105.1,39.2z"/>
			<ellipse transform="matrix(0.376 -0.9266 0.9266 0.376 5.9232 113.0044)" class="st1" cx="86.9" cy="52.1" rx="3" ry="3"/>
			<ellipse transform="matrix(0.376 -0.9266 0.9266 0.376 47.2056 104.3237)" class="st1" cx="101.1" cy="17.1" rx="3" ry="3"/>
			<g>
				<path id="_409266824_55_" class="st0" d="M99,36.7c-1.1,2.8-5.3,2.3-4.6,0.8c0.2-0.4,0.6-0.6,1-0.4c2.1,0.8,3.4-2.3,1.3-3.2
					c-2.7-1.1-2.4,4.4-6.5,2.7c-4-1.6-1.5-7.6,2.4-6C93.5,31,93,32.4,92,32c-2.1-0.8-3.4,2.3-1.3,3.2c2.7,1.1,2.4-4.4,6.5-2.7
					C98.9,33.1,99.7,35,99,36.7L99,36.7z"/>
				<path id="_409267328_55_" class="st0" d="M89.8,33c-0.4,0.9-1.4,0.3-2.2-0.1c-0.9-0.4-0.4-1.8,0.6-1.4
					C89,31.8,90.2,32.1,89.8,33z"/>
				<path id="_409266872_55_" class="st0" d="M100.2,37.2c-0.4,0.9-1.4,0.3-2.2-0.1c-0.9-0.4-0.4-1.8,0.6-1.4
					C99.4,36,100.6,36.3,100.2,37.2z"/>
			</g>
		</g>
		<g>
			<path id="_409268072_53_" class="st0" d="M100.3,52.7c0.3,3.2,0.4,7.1,0.1,10.4c0,0.4-0.4,0.7-0.8,0.7l-26.1,2.3
				c-1.4,0.1-0.9-1.6-0.8-3.2c0.2-6.7-0.8-13.8-2.4-20.8c-2-8.7-3.4-19.5-3.7-28.9c0-0.4,0.3-0.8,0.8-0.8l26.2-2.3
				c0.5,0,0.9,0.3,0.9,0.7c0.3,9.6,1.7,20.5,3.8,29.6C99.3,44.9,100,49,100.3,52.7L100.3,52.7z"/>
			<path id="_409267760_106_" class="st1" d="M68.3,22.5c-0.3-3.7-0.5-7-0.5-9.8l25.9-2.3c0,2.9,0.2,6.2,0.5,9.9
				c0.6,6.8,1.6,14,2.9,19.8c0.8,4,1.4,7.9,1.8,11.5c0.6,6.4,0.2,10.4-0.1,12l-25.8,2.3c0.5-3.6,0.3-8.2,0-11.7c-0.4-4-1-8.3-1.8-12
				C69.9,36.3,68.9,29.2,68.3,22.5 M66.6,22.6c0.6,6.6,1.6,13.8,2.9,19.8c0.8,3.7,1.4,7.9,1.7,11.8c0.4,5,0.5,9.7-0.2,12.6
				c0,0.1,0,0.2,0,0.2c0,0.4,0.4,0.7,0.8,0.6l28-2.5c0.3,0,0.6-0.2,0.6-0.5c0-0.2,1-4.6,0.3-13.3l0,0c-0.3-3.7-0.9-7.6-1.8-11.7
				c-1.2-6-2.3-13.1-2.8-19.6c-0.4-4-0.5-7.8-0.5-10.9c0,0,0,0,0-0.1c0-0.4-0.4-0.7-0.8-0.6l-28,2.5c-0.4,0-0.6,0.3-0.6,0.7
				C66,14.8,66.2,18.6,66.6,22.6L66.6,22.6z M100.6,51.4L100.6,51.4C100.6,51.4,100.6,51.4,100.6,51.4L100.6,51.4z"/>
			<path id="_409267760_105_" class="st2" d="M66.9,21.6c-0.3-3.9-0.5-7.4-0.5-10.3l28.5-2.5c0,3,0.2,6.6,0.5,10.4
				c0.6,7.1,1.7,14.7,3.1,20.9c0.9,4.2,1.5,8.3,1.9,12.2c0.6,6.8,0.1,11-0.1,12.6l-28.5,2.5c0.6-3.8,0.4-8.7,0-12.4
				c-0.4-4.2-1-8.7-1.9-12.7C68.6,36.2,67.5,28.7,66.9,21.6 M64.9,21.8c0.6,6.9,1.7,14.6,3.1,20.9c0.8,3.9,1.5,8.3,1.9,12.5
				c0.5,5.3,0.5,10.2-0.3,13.3c0,0.1,0,0.2,0,0.2c0,0.4,0.4,0.7,0.8,0.7l30.9-2.7c0.3,0,0.6-0.3,0.7-0.6c0-0.2,1.2-4.8,0.3-14l0,0
				c-0.3-3.9-1-8.1-1.9-12.4C99,33.3,98,25.8,97.4,19c-0.4-4.2-0.6-8.2-0.5-11.5c0,0,0,0,0-0.1c0-0.4-0.4-0.7-0.8-0.7L65.1,9.5
				c-0.4,0-0.7,0.4-0.7,0.7C64.4,13.5,64.6,17.5,64.9,21.8L64.9,21.8z M102.3,52L102.3,52C102.3,52,102.3,52,102.3,52L102.3,52z"/>
			<g>
				<path id="_409267496_53_" class="st3" d="M67.8,17.5c-0.1-1.5-0.2-3-0.2-4.4c0-0.3,0.2-0.6,0.6-0.7l4.3-0.4
					C72.6,15.5,69.5,17.5,67.8,17.5L67.8,17.5z"/>
				<path id="_409268120_53_" class="st3" d="M89.2,10.6l4.4-0.4c0.4,0,0.7,0.3,0.7,0.6c0.1,1.4,0.1,2.9,0.2,4.4
					C92.9,15.4,89.7,13.9,89.2,10.6L89.2,10.6z"/>
				<path id="_409267040_53_" class="st3" d="M99.5,59.1c0,1.4,0,2.9-0.1,4.2c0,0.3-0.3,0.5-0.6,0.6l-4.1,0.4
					C94.6,62.5,96.2,59.2,99.5,59.1L99.5,59.1z"/>
				<path id="_409266752_53_" class="st3" d="M77.7,65.7L73.5,66c-1,0.1-0.7-1.4-0.6-2.6c0-0.7,0-1.5,0-2.2
					C75.3,61.3,77.4,63.2,77.7,65.7L77.7,65.7z"/>
			</g>
			<path id="_409266968_53_" class="st3" d="M96.1,36.8c0.6,6.8-4.4,12.8-11.2,13.4c-6.8,0.6-12.8-4.4-13.4-11.2
				c-0.6-6.8,4.4-12.8,11.2-13.4C89.5,25,95.5,30,96.1,36.8L96.1,36.8z"/>
			
				<ellipse transform="matrix(0.9961 -8.826917e-02 8.826917e-02 0.9961 -4.6636 7.7891)" class="st1" cx="85.7" cy="56.6" rx="3" ry="3"/>
			
				<ellipse transform="matrix(0.9961 -8.825649e-02 8.825649e-02 0.9961 -1.3563 7.347)" class="st1" cx="82.4" cy="19" rx="3" ry="3"/>
			<g>
				<path id="_409266824_54_" class="st0" d="M89.5,37.4c0.3,3-3.6,4.5-3.8,2.8c0-0.4,0.3-0.8,0.7-0.8c2.2-0.2,1.9-3.6-0.3-3.4
					c-2.9,0.3-0.1,5-4.5,5.4c-4.3,0.4-4.8-6.1-0.6-6.5c1-0.1,1.1,1.4,0.1,1.5c-2.2,0.2-1.9,3.6,0.3,3.4c2.9-0.3,0.1-5,4.5-5.4
					C87.8,34.3,89.3,35.6,89.5,37.4L89.5,37.4z"/>
				<path id="_409267328_54_" class="st0" d="M79.6,38.3c0.1,1-1.1,0.9-2,0.9c-1,0.1-1.1-1.4-0.1-1.5C78.4,37.6,79.5,37.3,79.6,38.3
					z"/>
				<path id="_409266872_54_" class="st0" d="M90.8,37.3c0.1,1-1.1,0.9-2,0.9c-1,0.1-1.1-1.4-0.1-1.5C89.5,36.6,90.7,36.3,90.8,37.3
					z"/>
			</g>
		</g>
		<g>
			<path id="_409268072_52_" class="st0" d="M86.6,58.1c1,3.1,2,6.9,2.4,10.1c0,0.4-0.2,0.7-0.6,0.9l-25,8.1
				c-1.3,0.4-1.2-1.4-1.5-2.9c-1.3-6.6-3.9-13.3-7-19.7c-3.9-8.1-7.7-18.3-10.1-27.4c-0.1-0.4,0.2-0.8,0.6-1l25-8.1
				c0.5-0.2,1,0.1,1.1,0.5c2.5,9.3,6.3,19.6,10.3,28C83.8,50.7,85.4,54.5,86.6,58.1L86.6,58.1z"/>
			<path id="_409267760_104_" class="st1" d="M48.6,35.8c-1.1-3.5-2.1-6.7-2.7-9.4l24.7-8c0.7,2.8,1.6,6,2.7,9.5
				c2.1,6.5,4.7,13.3,7.2,18.7c1.7,3.7,3.2,7.4,4.3,10.8c2,6.1,2.5,10.1,2.6,11.7l-24.6,8c-0.3-3.6-1.6-8.1-2.6-11.4
				c-1.2-3.8-2.8-7.8-4.4-11.3C53.3,49,50.7,42.2,48.6,35.8 M46.9,36.4c2,6.3,4.7,13.1,7.2,18.7c1.6,3.4,3.1,7.3,4.4,11.1
				c1.6,4.8,2.6,9.3,2.6,12.3c0,0.1,0,0.2,0,0.2c0.1,0.4,0.5,0.6,0.9,0.5l26.7-8.7c0.3-0.1,0.5-0.4,0.5-0.7c0-0.2,0-4.7-2.7-13h0
				c-1.1-3.5-2.6-7.2-4.4-11C79.6,40.2,77,33.5,75,27.3c-1.2-3.8-2.3-7.5-3-10.5c0,0,0,0,0-0.1c-0.1-0.4-0.5-0.6-0.9-0.5L44.4,25
				c-0.3,0.1-0.5,0.5-0.5,0.8C44.6,28.8,45.6,32.5,46.9,36.4L46.9,36.4z M86.5,56.8L86.5,56.8C86.5,56.8,86.5,56.8,86.5,56.8
				L86.5,56.8z"/>
			<path id="_409267760_103_" class="st2" d="M47,35.3c-1.2-3.7-2.2-7.1-2.8-10l27.3-8.9c0.7,2.9,1.7,6.4,2.9,10
				c2.2,6.8,5,14,7.7,19.7c1.8,3.9,3.4,7.8,4.6,11.4c2.1,6.5,2.6,10.7,2.7,12.4L62,78.8c-0.3-3.8-1.6-8.5-2.7-12.1
				c-1.3-4-3-8.2-4.7-11.9C51.9,49.2,49.2,42.1,47,35.3 M45.1,35.9c2.2,6.6,4.9,13.8,7.7,19.7c1.7,3.6,3.3,7.7,4.6,11.7
				c1.6,5,2.7,9.9,2.7,13c0,0.1,0,0.2,0,0.2c0.1,0.4,0.6,0.6,1,0.5l29.5-9.6c0.3-0.1,0.5-0.4,0.5-0.7c0-0.2,0-5-2.8-13.8l0,0
				c-1.2-3.7-2.8-7.6-4.6-11.6c-2.7-5.8-5.5-12.9-7.6-19.4c-1.3-4-2.4-7.9-3.1-11.1c0,0,0,0,0-0.1c-0.1-0.4-0.6-0.6-1-0.5l-29.5,9.6
				c-0.4,0.1-0.6,0.5-0.5,0.9C42.7,28,43.8,31.9,45.1,35.9L45.1,35.9z M88.3,57L88.3,57C88.3,57,88.3,57,88.3,57L88.3,57z"/>
			<g>
				<path id="_409267496_52_" class="st3" d="M47,31.1c-0.4-1.4-0.8-2.8-1.2-4.2c-0.1-0.3,0.1-0.7,0.4-0.8l4.1-1.3
					C51.2,28.1,48.6,30.7,47,31.1L47,31.1z"/>
				<path id="_409268120_52_" class="st3" d="M66.3,19.6l4.2-1.4c0.4-0.1,0.7,0.1,0.8,0.5c0.4,1.4,0.8,2.8,1.2,4.2
					C70.9,23.5,67.5,22.7,66.3,19.6L66.3,19.6z"/>
				<path id="_409267040_52_" class="st3" d="M87.2,64.5c0.4,1.4,0.7,2.8,0.8,4.1c0,0.3-0.1,0.6-0.4,0.7l-3.9,1.3
					C83.2,69,83.9,65.4,87.2,64.5L87.2,64.5z"/>
				<path id="_409266752_52_" class="st3" d="M67.4,75.8l-4.1,1.3c-1,0.3-0.9-1.2-1.2-2.4c-0.2-0.7-0.3-1.4-0.5-2.2
					C64.1,72.1,66.5,73.5,67.4,75.8L67.4,75.8z"/>
			</g>
			<path id="_409266968_52_" class="st3" d="M78.9,43.6c2.1,6.5-1.4,13.5-7.9,15.6c-6.5,2.1-13.4-1.5-15.5-7.9
				c-2.1-6.5,1.4-13.5,7.9-15.6C69.8,33.5,76.7,37.1,78.9,43.6L78.9,43.6z"/>
			<ellipse transform="matrix(0.9509 -0.3094 0.3094 0.9509 -16.5849 25.8509)" class="st1" cx="73.2" cy="65.2" rx="3" ry="3"/>
			<ellipse transform="matrix(0.9509 -0.3094 0.3094 0.9509 -6.0485 20.4741)" class="st1" cx="61.5" cy="29.3" rx="3" ry="3"/>
			<g>
				<path id="_409266824_53_" class="st0" d="M72.6,45.6c0.9,2.9-2.5,5.2-3,3.6c-0.1-0.4,0.1-0.8,0.5-1c2.1-0.7,1.1-4-1.1-3.3
					c-2.8,0.9,1,4.9-3.2,6.3c-4.1,1.3-6.1-4.9-2-6.2c1-0.3,1.4,1.1,0.5,1.5c-2.1,0.7-1.1,4,1.1,3.3c2.8-0.9-1-4.9,3.2-6.3
					C70.2,43,72,43.9,72.6,45.6L72.6,45.6z"/>
				<path id="_409267328_53_" class="st0" d="M63.1,48.7c0.3,0.9-0.9,1.1-1.7,1.4c-1,0.3-1.4-1.1-0.5-1.5
					C61.8,48.3,62.8,47.8,63.1,48.7z"/>
				<path id="_409266872_53_" class="st0" d="M73.8,45.2c0.3,0.9-0.9,1.1-1.7,1.4c-1,0.3-1.4-1.1-0.5-1.5
					C72.4,44.9,73.5,44.3,73.8,45.2z"/>
			</g>
		</g>
		<g id="g3574_6_" transform="translate(290.7158,255.6587)">
			<path id="path3576_6_" class="st4" d="M-204.5-157.2c-1.1,0-2.2-0.6-2.7-1.7c-0.7-1.5-0.1-3.3,1.4-4l18.2-8.7
				c6.7-3.2,11-10,11-17.5v-6.2h-18.9c-1.6,0-3-1.3-3-3c0-1.6,1.3-3,3-3h21.9c1.6,0,3,1.3,3,3v9.2c0,4.8-1.4,9.5-3.9,13.5
				c-2.6,4.1-6.2,7.3-10.5,9.3l-18.2,8.7C-203.7-157.3-204.1-157.2-204.5-157.2"/>
		</g>
		<g id="g3578_6_" transform="translate(221.2842,255.6587)">
			<path id="path3580_6_" class="st4" d="M-148.9-157.2c1.1,0,2.2-0.6,2.7-1.7c0.7-1.5,0.1-3.3-1.4-4l-18.2-8.7
				c-6.7-3.2-11-10-11-17.5v-6.2h18.9c1.6,0,3-1.3,3-3c0-1.6-1.3-3-3-3h-21.9c-1.6,0-3,1.3-3,3v9.2c0,4.8,1.4,9.5,3.9,13.5
				c2.6,4.1,6.2,7.3,10.5,9.3l18.2,8.7C-149.8-157.3-149.4-157.2-148.9-157.2"/>
		</g>
		<g id="g3582_6_" transform="translate(227.7305,284.2109)">
			<path id="path3584_6_" class="st5" d="M-154.1-191.5l-18.2-8.7c-1.7-0.8-3.3-1.9-4.7-3.1c0.2,0.5,0.4,1,0.6,1.6
				c1.2,2.9,2.6,5.6,4.1,8.2l15.6,7.4c0.4,0.2,0.8,0.3,1.3,0.3c1.1,0,2.2-0.6,2.7-1.7C-152-189-152.6-190.8-154.1-191.5"/>
		</g>
		<g id="g3586_6_" transform="translate(190.4648,461.6216)">
			<path id="path3588_6_" class="st5" d="M-124.2-404.2c0-1.6-1.3-3-3-3h-17v2.2c0,1.2,0,2.5,0.1,3.7h16.9
				C-125.6-401.2-124.2-402.6-124.2-404.2"/>
		</g>
		<g id="g3590_6_" transform="translate(391.5,7.5)">
			<path id="path3592_6_" class="st6" d="M-285.3,140.3h-54c-1.1,0-2-0.9-2-2v-5.6c0-1.1,0.9-2,2-2h54c1.1,0,2,0.9,2,2v5.6
				C-283.3,139.4-284.2,140.3-285.3,140.3"/>
		</g>
		<g id="g3594_6_" transform="translate(391.5,55.5)">
			<path id="path3596_6_" class="st7" d="M-285.3,82.8h-6c1.1,0,2,0.9,2,2v5.6c0,1.1-0.9,2-2,2h6c1.1,0,2-0.9,2-2v-5.6
				C-283.3,83.7-284.2,82.8-285.3,82.8"/>
		</g>
		<path id="path3598_6_" class="st4" d="M85.5,119.8H73v-10.7h12.5V119.8z"/>
		<g id="g3600_6_" transform="translate(257.5,202.2646)">
			<path id="path3602_6_" class="st5" d="M-177.9-93.2v1.1c0,3.6-2.9,6.6-6.6,6.6v3h12.5v-10.7H-177.9z"/>
		</g>
		<g id="g3604_6_" transform="translate(371.5,55.5)">
			<path id="path3606_6_" class="st6" d="M-269.2,82.8h-46V70.2c0-3.3,2.7-6,6-6h34c3.3,0,6,2.7,6,6V82.8z"/>
		</g>
		<g id="g3608_6_" transform="translate(341.5,148.5)">
			<path id="path3610_6_" class="st8" d="M-245.2-28.7h-0.8c0.5,0.9,0.8,1.9,0.8,3c0,6.9-5.6,12.5-12.5,12.5h-27.5v3h46v-12.5
				C-239.2-26.1-241.9-28.7-245.2-28.7"/>
		</g>
		<g id="g3612_6_" transform="translate(301,247.2646)">
			<path id="path3614_6_" class="st4" d="M-212.8-147.2L-212.8-147.2h-17.9c-11.6-11.5-18.1-27.1-18.1-43.4v-5.8c0-1.1,0.9-2,2-2
				h50.2c1.1,0,2,0.9,2,2v5.8C-194.6-174.3-201.2-158.6-212.8-147.2"/>
		</g>
		<g id="g3616_6_" transform="translate(382.1172,504.5)">
			<path id="path3618_6_" class="st5" d="M-277.7-455.6h-4v4.8c0.1,10.5-4,20.9-8.4,28.9c-4.9,9-14.3,14.5-24.5,14.5
				c0.9,1,1.8,2,2.8,3h17.9c11.6-11.5,18.1-27.1,18.1-43.4v-5.8C-275.7-454.7-276.6-455.6-277.7-455.6"/>
		</g>
		<g id="g3620_6_" transform="translate(206,202.2646)">
			<path id="path3622_6_" class="st4" d="M-136.7-93.2h19.9c1.1,0,2-0.9,2-2v-5c0-1.1-0.9-2-2-2h-19.9c-1.1,0-2,0.9-2,2v5
				C-138.7-94.1-137.8-93.2-136.7-93.2"/>
		</g>
		<g id="g3624_6_" transform="translate(306,247.2646)">
			<path id="path3626_6_" class="st5" d="M-216.8-147.2h-4c0,3.3-2.7,6-6,6h-11.9v1c0,1.1,0.9,2,2,2h19.9c1.1,0,2-0.9,2-2v-5
				C-214.8-146.3-215.7-147.2-216.8-147.2"/>
		</g>
		<g id="g3628_6_" transform="translate(263.6084,444.707)">
			<path id="path3630_6_" class="st9" d="M-182.8-383.9l1.8,5.6c0.2,0.7,0.8,1.1,1.5,1.1h5.9c1.5,0,2.2,2,0.9,2.9l-4.8,3.5
				c-0.6,0.4-0.8,1.1-0.6,1.8l1.8,5.6c0.5,1.5-1.2,2.7-2.5,1.8l-4.8-3.5c-0.6-0.4-1.3-0.4-1.9,0l-4.8,3.5c-1.2,0.9-2.9-0.3-2.5-1.8
				l1.8-5.6c0.2-0.7,0-1.4-0.6-1.8l-4.8-3.5c-1.2-0.9-0.6-2.9,0.9-2.9h5.9c0.7,0,1.3-0.4,1.5-1.1l1.8-5.6
				C-185.4-385.4-183.3-385.4-182.8-383.9"/>
		</g>
		<g id="g3632_6_" transform="translate(391.54,446.6201)">
			<path id="path3634_6_" class="st10" d="M-285.3-386.2h7.9v6.2c0,7.4-4.3,14.3-11,17.5l-4.4,2.1"/>
		</g>
		<g id="g3636_6_" transform="translate(392.1201,476.6201)">
			<path id="path3638_6_" class="st10" d="M-285.8-422.2h10.8c1.6,0,3,1.3,3,3v9.2c0,4.8-1.4,9.5-3.9,13.5
				c-2.6,4.1-6.2,7.3-10.5,9.3l-13.6,6.5"/>
		</g>
		<g id="g3640_6_" transform="translate(120.46,446.6201)">
			<path id="path3642_6_" class="st10" d="M-68.2-386.2h-7.9v6.2c0,6.1,3,11.9,7.8,15.5"/>
		</g>
		<g id="g3644_6_" transform="translate(119.8799,476.6201)">
			<path id="path3646_6_" class="st10" d="M-67.7-422.2h-10.8c-1.6,0-3,1.3-3,3v9.2c0,4.8,1.4,9.5,3.9,13.5
				c2.6,4.1,6.2,7.3,10.5,9.3l13.6,6.5"/>
		</g>
		<g id="g3648_6_" transform="translate(391.5,7.5)">
			<path id="path3650_6_" class="st10" d="M-285.3,140.3h-54c-1.1,0-2-0.9-2-2v-5.6c0-1.1,0.9-2,2-2h54c1.1,0,2,0.9,2,2v5.6
				C-283.3,139.4-284.2,140.3-285.3,140.3z"/>
		</g>
		<g id="g3652_6_" transform="translate(224.5,148.5)">
			<path id="path3654_6_" class="st10" d="M-151.5-28.7v-10.7"/>
		</g>
		<g id="g3656_6_" transform="translate(287.5,202.2646)">
			<path id="path3658_6_" class="st10" d="M-202-93.2v10.7"/>
		</g>
		<g id="g3660_6_" transform="translate(140.5,55.5)">
			<path id="path3662_6_" class="st10" d="M-84.2,82.8V70.2c0-3.3,2.7-6,6-6h34c3.3,0,6,2.7,6,6v6.6"/>
		</g>
		<g id="g3664_6_" transform="translate(211,247.2646)">
			<path id="path3666_6_" class="st10" d="M-140.7-147.2L-140.7-147.2c-11.6-11.5-18.1-27.1-18.1-43.4v-5.8c0-1.1,0.9-2,2-2h50.2
				c1.1,0,2,0.9,2,2v5.8c0,16.3-6.5,32-18.1,43.4"/>
		</g>
		<g id="g3668_6_" transform="translate(206,202.2646)">
			<path id="path3670_6_" class="st10" d="M-136.7-93.2h19.9c1.1,0,2-0.9,2-2v-5c0-1.1-0.9-2-2-2h-19.9c-1.1,0-2,0.9-2,2v5
				C-138.7-94.1-137.8-93.2-136.7-93.2z"/>
		</g>
		<g id="g3672_6_" transform="translate(263.6084,444.707)">
			<path id="path3674_6_" class="st11" d="M-182.8-383.9l1.8,5.6c0.2,0.7,0.8,1.1,1.5,1.1h5.9c1.5,0,2.2,2,0.9,2.9l-4.8,3.5
				c-0.6,0.4-0.8,1.1-0.6,1.8l1.8,5.6c0.5,1.5-1.2,2.7-2.5,1.8l-4.8-3.5c-0.6-0.4-1.3-0.4-1.9,0l-4.8,3.5c-1.2,0.9-2.9-0.3-2.5-1.8
				l1.8-5.6c0.2-0.7,0-1.4-0.6-1.8l-4.8-3.5c-1.2-0.9-0.6-2.9,0.9-2.9h5.9c0.7,0,1.3-0.4,1.5-1.1l1.8-5.6
				C-185.4-385.4-183.3-385.4-182.8-383.9z"/>
		</g>
		<g>
			<path class="st12" d="M109,136.4l4.5,12.9l4.2-4.1l5.9,0.6l-4.5-12.8C116.3,135.1,112.8,136.4,109,136.4z"/>
			<path class="st12" d="M109,136.4c-3.8,0-7.3-1.3-10.1-3.4l-4.5,12.8l5.9-0.6l4.2,4.1L109,136.4z"/>
			<path class="st13" d="M119.8,135l-0.7-2c-2.8,2.2-6.3,3.4-10.1,3.4l0.7,2C113.4,138.3,116.9,137,119.8,135z"/>
			<path class="st13" d="M108.2,138.4l0.7-2c-3.8,0-7.3-1.3-10.1-3.4l-0.7,2C101,137,104.5,138.3,108.2,138.4L108.2,138.4z"/>
			<ellipse class="st14" cx="109" cy="119.8" rx="16.6" ry="16.6"/>
			<path class="st15" d="M109,134.7c-8.9,0-16.1-7-16.5-15.7c0,0.3,0,0.6,0,0.8c0,9.1,7.4,16.6,16.6,16.6s16.6-7.4,16.6-16.6
				c0-0.3,0-0.6,0-0.8C125.1,127.7,117.8,134.7,109,134.7L109,134.7z"/>
			<ellipse class="st16" cx="109" cy="119.8" rx="13" ry="13"/>
			<path class="st17" d="M109,131.2c-6.9,0-12.6-5.4-13-12.2c0,0.3,0,0.6,0,0.8c0,7.2,5.8,13,13,13c7.2,0,13-5.8,13-13
				c0-0.3,0-0.6,0-0.8C121.5,125.8,115.9,131.2,109,131.2z"/>
			<path class="st14" d="M109.7,128.4c-0.9,0-1.6-0.7-1.6-1.6v-10l-0.2,0.4c-0.5,0.8-1.5,1-2.2,0.6c-0.8-0.5-1-1.5-0.6-2.2l2-3.4
				c0.3-0.5,0.8-0.8,1.4-0.8h1.3c0.9,0,1.6,0.7,1.6,1.6v13.8C111.3,127.6,110.6,128.4,109.7,128.4L109.7,128.4z"/>
			<g>
				<path class="st15" d="M107.8,115.4c-0.4,0.7-1.4,1.1-2.1,0.7c-0.3-0.1-0.6-0.4-0.7-0.6c-0.5,0.8-0.2,1.8,0.5,2.2
					c0.8,0.5,1.8,0.2,2.3-0.6l0.2-0.4v-1.2C108.1,115.4,107.9,115.3,107.8,115.4z"/>
				<path class="st15" d="M109.7,126.7c-0.9,0-1.6-0.7-1.6-1.6v1.7c0,0.9,0.7,1.6,1.6,1.6s1.6-0.7,1.6-1.6v-1.7
					C111.3,126,110.6,126.7,109.7,126.7L109.7,126.7z"/>
			</g>
		</g>
		<g>
			<path class="st2" d="M111.3,120.1c0.4,0,0.7-0.3,0.7-0.7v-6.5c0-1.3-1-2.3-2.3-2.3h-1.3c-0.8,0-1.6,0.4-2,1.1l-2,3.4
				c-0.7,1.1-0.3,2.5,0.8,3.2c0.7,0.4,1.5,0.4,2.2,0.1v8.3c0,1.3,1,2.3,2.3,2.3s2.3-1,2.3-2.3v-4.5c0-0.4-0.3-0.7-0.7-0.7
				s-0.7,0.3-0.7,0.7v4.5c0,0.5-0.4,0.9-0.9,0.9s-0.9-0.4-0.9-0.9v-10c0-0.3-0.2-0.6-0.5-0.7c-0.3-0.1-0.6,0-0.8,0.3l-0.2,0.4
				c-0.3,0.4-0.8,0.6-1.3,0.3c-0.4-0.3-0.6-0.8-0.3-1.3l2-3.4c0.2-0.3,0.5-0.5,0.8-0.5h1.3c0.5,0,0.9,0.4,0.9,0.9v6.5
				C110.7,119.8,111,120.1,111.3,120.1L111.3,120.1z"/>
			<path class="st2" d="M122.7,119.8c0-7.6-6.2-13.8-13.8-13.8s-13.8,6.2-13.8,13.8c0,0.4,0.3,0.7,0.7,0.7s0.7-0.3,0.7-0.7
				c0-6.8,5.6-12.4,12.4-12.4c6.8,0,12.4,5.6,12.4,12.4c0,6.8-5.6,12.4-12.4,12.4c-2.8,0-5.6-1-7.8-2.8c-2.2-1.8-3.7-4.2-4.3-7
				c-0.1-0.4-0.5-0.6-0.8-0.5c-0.4,0.1-0.6,0.5-0.5,0.8c0.7,3,2.3,5.8,4.8,7.7c2.4,2,5.5,3.1,8.7,3.1
				C116.6,133.6,122.7,127.4,122.7,119.8z"/>
			<path class="st2" d="M122.1,139.5c-0.1-0.4-0.5-0.6-0.9-0.4c-0.4,0.1-0.6,0.5-0.4,0.9l1.8,5l-4.8-0.5c-0.2,0-0.4,0-0.6,0.2
				l-3.4,3.4l-3.8-11c3.2-0.2,6.3-1.3,8.8-3l1.1,3.3c0.3,0.9,1.6,0.4,1.3-0.5l-1.3-3.7c3.9-3.2,6.4-8,6.4-13.4
				c0-9.5-7.8-17.3-17.3-17.3s-17.3,7.8-17.3,17.3c0,5.4,2.5,10.2,6.4,13.4l-4.3,12.4c-0.2,0.4,0.2,1,0.7,0.9l5.5-0.6l4,3.9
				c0.3,0.3,1,0.2,1.1-0.3l3.8-11l3.8,11c0.1,0.4,0.8,0.6,1.1,0.3l4-3.9l5.5,0.6c0.5,0.1,0.9-0.4,0.7-0.9L122.1,139.5z M93.1,119.8
				c0-8.8,7.1-15.9,15.9-15.9s15.9,7.1,15.9,15.9c0,8.8-7.1,15.9-15.9,15.9S93.1,128.6,93.1,119.8L93.1,119.8z M104.2,148l-3.4-3.4
				c-0.1-0.1-0.4-0.2-0.6-0.2l-4.8,0.5l3.8-10.9c2.5,1.7,5.5,2.8,8.8,3L104.2,148z"/>
		</g>
	</g>
	<g>
		<path class="st2" d="M161.3,42.9c0.6,1.4-0.1,3-1.5,3.5s-3-0.1-3.5-1.5c-0.6-1.4,0.1-3,1.5-3.5C159.2,40.9,160.8,41.6,161.3,42.9z
			"/>
	</g>
	<g>
		<path class="st1" d="M137.2,65.6c0.6,1.4-0.1,3-1.5,3.5c-1.4,0.6-3-0.1-3.5-1.5c-0.6-1.4,0.1-3,1.5-3.5
			C135,63.5,136.6,64.2,137.2,65.6z"/>
	</g>
	<g>
		<path class="st2" d="M22.9,109.5c0.6,1.4-0.1,3-1.5,3.5c-1.4,0.6-3-0.1-3.5-1.5s0.1-3,1.5-3.5C20.7,107.5,22.3,108.1,22.9,109.5z"
			/>
	</g>
	<g>
		<path class="st1" d="M120,1.7c0.6,1.4-0.1,3-1.5,3.5s-3-0.1-3.5-1.5c-0.6-1.4,0.1-3,1.5-3.5C117.8-0.4,119.4,0.3,120,1.7z"/>
	</g>
	<g>
		<path class="st18" d="M55.8,7.7c0.6,1.4-0.1,3-1.5,3.5c-1.4,0.6-3-0.1-3.5-1.5c-0.6-1.4,0.1-3,1.5-3.5C53.6,5.6,55.2,6.3,55.8,7.7
			z"/>
	</g>
	<g>
		<path class="st1" d="M20.2,36.9c0.6,1.4-0.1,3-1.5,3.5c-1.4,0.6-3-0.1-3.5-1.5s0.1-3,1.5-3.5C18,34.8,19.6,35.5,20.2,36.9z"/>
	</g>
	<g>
		<g>
			<circle class="st18" cx="5" cy="58.5" r="4.6"/>
		</g>
		<path class="st2" d="M5,63.4c-2.7,0-5-2.2-5-5s2.2-5,5-5s5,2.2,5,5S7.7,63.4,5,63.4z M5,54.2c-2.4,0-4.3,1.9-4.3,4.3
			s1.9,4.3,4.3,4.3s4.3-1.9,4.3-4.3S7.3,54.2,5,54.2z"/>
	</g>
	<g>
		<g>
			<path class="st18" d="M147.1,98.3c2.5,0,4.5,2,4.5,4.5c0,2.5-2,4.5-4.5,4.5s-4.5-2-4.5-4.5C142.6,100.3,144.6,98.3,147.1,98.3z"
				/>
		</g>
		<path class="st2" d="M147.1,107.8c-2.7,0-5-2.2-5-5c0-2.7,2.2-5,5-5c2.7,0,5,2.2,5,5C152.1,105.6,149.8,107.8,147.1,107.8z
			 M147.1,98.8c-2.2,0-4,1.8-4,4s1.8,4,4,4c2.2,0,4-1.8,4-4c0-1-0.4-2-1.1-2.8C149.2,99.2,148.2,98.8,147.1,98.8z"/>
	</g>
</g>
</svg>
