<svg width="1185" height="401" viewBox="0 0 1185 401" fill="none" xmlns="http://www.w3.org/2000/svg">
<path d="M385.605 248.57C385.078 248.568 384.562 248.43 384.105 248.17L297.505 198.17C297.163 197.973 296.864 197.711 296.623 197.398C296.383 197.086 296.207 196.729 296.105 196.348C296.003 195.967 295.976 195.57 296.028 195.179C296.079 194.788 296.207 194.411 296.405 194.07L320.405 152.5C320.601 152.159 320.863 151.859 321.175 151.619C321.488 151.379 321.844 151.202 322.225 151.1C322.479 151.033 322.741 150.999 323.005 151C323.531 151.002 324.047 151.14 324.505 151.4L411.105 201.4C411.446 201.597 411.746 201.859 411.986 202.172C412.226 202.484 412.402 202.841 412.504 203.222C412.607 203.603 412.633 204 412.581 204.391C412.53 204.782 412.402 205.159 412.205 205.5L388.205 247.07C388.008 247.411 387.746 247.711 387.434 247.951C387.122 248.191 386.765 248.368 386.385 248.47C386.13 248.537 385.868 248.571 385.605 248.57V248.57Z" fill="#7DDF96"/>
<path d="M323.005 154L409.605 204L385.605 245.57L299.005 195.57L323.005 154ZM323.005 148C322.482 148.002 321.961 148.069 321.455 148.2C320.692 148.404 319.977 148.756 319.351 149.236C318.724 149.717 318.199 150.316 317.805 151L293.805 192.57C293.41 193.253 293.154 194.007 293.051 194.788C292.948 195.57 293.001 196.364 293.205 197.126C293.409 197.888 293.762 198.601 294.242 199.227C294.722 199.852 295.321 200.376 296.005 200.77L382.605 250.77C383.517 251.295 384.552 251.571 385.605 251.57C386.132 251.57 386.656 251.499 387.165 251.36C388.699 250.949 390.009 249.945 390.805 248.57L414.805 207C415.199 206.317 415.455 205.563 415.558 204.782C415.661 204 415.608 203.206 415.404 202.444C415.2 201.682 414.847 200.969 414.367 200.343C413.887 199.718 413.288 199.194 412.605 198.8L326.005 148.8C325.092 148.275 324.057 147.999 323.005 148V148Z" fill="#515979"/>
<path d="M370.265 209C366.005 216.29 359.005 220.67 352.125 221L377.385 235.6C378.432 233.786 380.158 232.463 382.181 231.921C384.205 231.379 386.36 231.663 388.175 232.71L399.755 212.65C398.857 212.132 398.07 211.442 397.439 210.62C396.808 209.798 396.345 208.86 396.076 207.859C395.808 206.858 395.739 205.814 395.875 204.786C396.01 203.758 396.346 202.768 396.865 201.87L371.595 187.28C374.735 193.4 374.475 201.7 370.265 209ZM385.535 209.91C386.966 210.884 387.976 212.364 388.362 214.052C388.748 215.74 388.482 217.511 387.616 219.011C386.751 220.51 385.35 221.627 383.695 222.137C382.041 222.647 380.254 222.512 378.695 221.76C377.263 220.786 376.253 219.306 375.867 217.618C375.481 215.93 375.747 214.159 376.613 212.659C377.478 211.16 378.879 210.043 380.534 209.533C382.189 209.023 383.975 209.158 385.535 209.91V209.91Z" fill="#00C853"/>
<path d="M311.755 197.7L337.005 212.29C333.875 206.17 334.135 197.87 338.345 190.57C342.555 183.27 349.615 178.9 356.485 178.57L331.225 164C330.707 164.898 330.017 165.685 329.195 166.316C328.373 166.947 327.434 167.41 326.433 167.678C325.432 167.947 324.388 168.015 323.361 167.88C322.333 167.745 321.342 167.408 320.445 166.89L308.865 186.92C310.676 187.968 311.997 189.691 312.539 191.712C313.081 193.733 312.799 195.887 311.755 197.7V197.7ZM329.925 177.81C331.391 178.752 332.424 180.236 332.799 181.937C333.174 183.639 332.859 185.42 331.925 186.89C331.11 188.433 329.717 189.591 328.051 190.11C326.385 190.629 324.582 190.467 323.035 189.66C321.568 188.716 320.534 187.231 320.159 185.528C319.785 183.824 320.099 182.042 321.035 180.57C321.849 179.027 323.242 177.869 324.909 177.352C326.576 176.835 328.379 176.999 329.925 177.81V177.81Z" fill="#00C853"/>
<path d="M353.085 195.32C352.485 196.32 353.305 197.32 355.235 198.67C358.555 201.14 361.005 203.5 358.745 207.9C357.165 210.63 354.345 211.5 350.825 210.16L349.675 212.16L345.775 209.91L346.925 207.91C346.022 207.213 345.316 206.294 344.876 205.242C344.436 204.19 344.277 203.042 344.415 201.91C344.399 201.821 344.399 201.729 344.415 201.64L344.485 200.92L349.265 201.39V202.39C349.195 203.012 349.328 203.639 349.643 204.18C349.958 204.72 350.439 205.145 351.015 205.39C352.865 206.46 353.865 206.52 354.515 205.39C355.065 204.39 354.185 203.44 352.305 202.07C349.085 199.73 346.415 197.15 348.865 192.92C350.465 190.14 353.395 189.26 356.965 190.53L358.165 188.45L362.005 190.75L360.835 192.75C361.891 193.482 362.718 194.5 363.217 195.685C363.717 196.87 363.868 198.172 363.655 199.44L363.485 200.39L358.795 199.51L359.005 198.6C359.205 197.3 358.535 196.22 357.005 195.37C355.005 194.23 353.735 194.2 353.085 195.32Z" fill="#00C853"/>
<path d="M325.008 382.723C324.558 382.45 324.186 382.066 323.928 381.607L275.449 294.147C275.258 293.802 275.136 293.423 275.091 293.031C275.046 292.639 275.079 292.243 275.188 291.864C275.296 291.485 275.478 291.131 275.724 290.822C275.969 290.514 276.273 290.257 276.618 290.066L318.6 266.794C318.944 266.603 319.323 266.481 319.715 266.436C320.106 266.391 320.502 266.423 320.881 266.531C321.134 266.605 321.376 266.711 321.601 266.847C322.051 267.12 322.423 267.504 322.681 267.963L371.16 355.423C371.351 355.768 371.473 356.147 371.518 356.539C371.563 356.931 371.53 357.327 371.421 357.706C371.313 358.085 371.131 358.439 370.885 358.748C370.64 359.056 370.336 359.313 369.991 359.504L328.009 382.776C327.665 382.967 327.286 383.089 326.895 383.134C326.503 383.179 326.107 383.147 325.728 383.039C325.475 382.965 325.233 382.859 325.008 382.723V382.723Z" fill="#7DDF96"/>
<path d="M320.056 269.419L368.535 356.88L326.553 380.151L278.074 292.69L320.056 269.419ZM323.146 264.276C322.697 264.008 322.216 263.798 321.715 263.649C320.956 263.431 320.162 263.364 319.378 263.454C318.593 263.543 317.834 263.786 317.144 264.169L275.162 287.441C274.472 287.823 273.865 288.337 273.374 288.954C272.883 289.571 272.519 290.279 272.301 291.037C272.084 291.795 272.019 292.589 272.109 293.372C272.198 294.155 272.441 294.913 272.824 295.603L321.303 383.063C321.815 383.983 322.56 384.753 323.463 385.294C323.915 385.565 324.401 385.775 324.908 385.918C326.435 386.356 328.074 386.17 329.465 385.401L371.447 362.129C372.137 361.747 372.745 361.233 373.235 360.616C373.726 359.999 374.091 359.291 374.308 358.533C374.525 357.775 374.59 356.981 374.501 356.198C374.411 355.415 374.168 354.657 373.785 353.967L325.306 266.507C324.794 265.587 324.05 264.817 323.146 264.276V264.276Z" fill="#515979"/>
<path d="M332.239 340.904C324.833 344.958 316.577 345.108 310.509 341.847L324.642 367.371C326.474 366.356 328.635 366.111 330.648 366.688C332.662 367.266 334.363 368.62 335.379 370.452L355.637 359.221C355.134 358.315 354.815 357.318 354.697 356.288C354.58 355.259 354.666 354.216 354.952 353.22C355.237 352.223 355.716 351.293 356.361 350.482C357.007 349.671 357.805 348.995 358.712 348.492L344.566 322.971C344.105 329.834 339.607 336.815 332.239 340.904ZM344.859 349.548C345.584 351.121 345.688 352.909 345.15 354.555C344.611 356.201 343.471 357.582 341.956 358.421C340.442 359.261 338.666 359.497 336.985 359.082C335.304 358.667 333.842 357.631 332.893 356.183C332.168 354.611 332.064 352.822 332.602 351.177C333.141 349.531 334.281 348.15 335.796 347.31C337.31 346.47 339.086 346.235 340.767 346.65C342.448 347.065 343.91 348.1 344.859 349.548V349.548Z" fill="#00C853"/>
<path d="M287.906 301.083L302.035 326.594C302.504 319.736 307.002 312.755 314.37 308.666C321.739 304.577 330.041 304.468 336.1 307.723L321.952 282.224C321.045 282.727 320.049 283.046 319.019 283.164C317.989 283.281 316.947 283.195 315.95 282.909C314.954 282.624 314.024 282.145 313.213 281.5C312.401 280.854 311.725 280.056 311.223 279.149L290.981 290.354C291.994 292.185 292.239 294.343 291.662 296.354C291.086 298.366 289.735 300.066 287.906 301.083V301.083ZM313.725 293.392C314.496 294.954 314.618 296.759 314.063 298.41C313.508 300.062 312.321 301.426 310.763 302.205C309.269 303.108 307.479 303.384 305.784 302.97C304.089 302.557 302.626 301.49 301.716 300.001C300.944 298.437 300.824 296.631 301.38 294.978C301.936 293.325 303.123 291.959 304.683 291.179C306.176 290.276 307.966 290.001 309.661 290.416C311.356 290.831 312.818 291.901 313.725 293.392V293.392Z" fill="#00C853"/>
<path d="M324.558 320.329C323.529 320.878 323.717 322.157 324.676 324.308C326.25 328.135 327.134 331.42 322.931 334.028C320.17 335.554 317.305 334.847 314.978 331.886L312.962 333.008L310.778 329.071L312.794 327.949C312.379 326.886 312.248 325.735 312.413 324.607C312.577 323.478 313.032 322.412 313.733 321.513C313.766 321.428 313.813 321.35 313.872 321.281L314.303 320.7L318.158 323.565L317.643 324.422C317.263 324.919 317.053 325.526 317.045 326.151C317.037 326.777 317.231 327.388 317.598 327.895C318.632 329.765 319.459 330.331 320.598 329.698C321.584 329.124 321.319 327.856 320.413 325.714C318.858 322.049 317.899 318.463 322.177 316.099C324.981 314.54 327.945 315.295 330.351 318.222L332.451 317.057L334.558 321.006L332.525 322.118C333.054 323.29 333.238 324.588 333.056 325.861C332.874 327.134 332.333 328.328 331.497 329.305L330.862 330.032L327.295 326.862L327.944 326.19C328.785 325.179 328.766 323.908 327.893 322.391C326.766 320.384 325.692 319.704 324.558 320.329Z" fill="#00C853"/>
<path d="M546.838 310.453C546.437 310.113 546.13 309.676 545.946 309.183L511.746 215.215C511.611 214.845 511.55 214.451 511.567 214.057C511.584 213.664 511.679 213.277 511.845 212.92C512.012 212.562 512.247 212.241 512.538 211.975C512.828 211.708 513.169 211.502 513.539 211.367L558.645 194.95C559.015 194.814 559.408 194.753 559.802 194.77C560.195 194.787 560.582 194.881 560.939 195.047C561.177 195.159 561.4 195.302 561.601 195.472C562.002 195.812 562.31 196.249 562.493 196.742L596.693 290.71C596.828 291.08 596.889 291.474 596.872 291.868C596.855 292.262 596.76 292.648 596.594 293.006C596.427 293.363 596.192 293.684 595.901 293.95C595.611 294.217 595.27 294.423 594.9 294.558L549.794 310.975C549.424 311.111 549.031 311.172 548.638 311.155C548.244 311.138 547.857 311.044 547.5 310.878C547.262 310.766 547.039 310.623 546.838 310.453V310.453Z" fill="#7DDF96"/>
<path d="M559.672 197.77L593.872 291.738L548.767 308.155L514.567 214.188L559.672 197.77ZM563.529 193.174C563.127 192.839 562.685 192.556 562.213 192.331C561.498 191.996 560.724 191.807 559.935 191.772C559.147 191.737 558.359 191.859 557.617 192.129L512.512 208.547C511.771 208.816 511.09 209.229 510.509 209.762C509.927 210.295 509.457 210.937 509.124 211.652C508.791 212.366 508.602 213.14 508.568 213.927C508.534 214.715 508.656 215.502 508.926 216.243L543.126 310.21C543.487 311.199 544.103 312.076 544.91 312.751C545.314 313.09 545.761 313.373 546.24 313.593C547.68 314.265 549.328 314.338 550.822 313.796L595.928 297.378C596.669 297.109 597.349 296.696 597.93 296.163C598.512 295.63 598.982 294.988 599.315 294.274C599.648 293.559 599.837 292.785 599.871 291.998C599.905 291.21 599.783 290.423 599.513 289.683L565.313 195.715C564.952 194.726 564.336 193.85 563.529 193.174V193.174Z" fill="#515979"/>
<path d="M560.522 270.281C552.573 273.127 544.395 271.982 538.913 267.813L548.878 295.234C550.847 294.518 553.019 294.613 554.918 295.499C556.816 296.384 558.285 297.987 559.002 299.956L580.767 292.032C580.412 291.059 580.253 290.024 580.297 288.989C580.342 287.954 580.591 286.937 581.029 285.998C581.467 285.058 582.085 284.214 582.85 283.514C583.614 282.814 584.508 282.271 585.482 281.917L575.503 254.497C573.974 261.203 568.44 267.395 560.522 270.281ZM571.635 280.793C572.105 282.459 571.928 284.242 571.139 285.783C570.35 287.324 569.007 288.51 567.38 289.103C565.753 289.695 563.962 289.65 562.366 288.977C560.771 288.304 559.489 287.053 558.778 285.474C558.308 283.808 558.485 282.025 559.274 280.484C560.063 278.942 561.406 277.757 563.033 277.164C564.66 276.572 566.451 276.617 568.047 277.29C569.642 277.963 570.924 279.214 571.635 280.793V280.793Z" fill="#00C853"/>
<path d="M522.965 224.015L532.929 251.422C534.465 244.722 539.999 238.531 547.917 235.645C555.834 232.759 564.051 233.949 569.526 238.112L559.541 210.714C558.568 211.069 557.533 211.228 556.498 211.183C555.463 211.139 554.446 210.89 553.507 210.452C552.567 210.014 551.723 209.396 551.023 208.631C550.323 207.867 549.78 206.973 549.426 205.999L527.68 213.899C528.394 215.866 528.298 218.036 527.414 219.932C526.53 221.829 524.93 223.297 522.965 224.015V224.015ZM549.669 220.458C550.186 222.121 550.024 223.922 549.218 225.467C548.411 227.011 547.025 228.173 545.364 228.699C543.748 229.357 541.937 229.349 540.327 228.676C538.718 228.003 537.44 226.719 536.774 225.106C536.257 223.441 536.42 221.638 537.227 220.093C538.035 218.547 539.422 217.384 541.084 216.857C542.7 216.199 544.512 216.208 546.121 216.883C547.73 217.558 549.006 218.843 549.669 220.458V220.458Z" fill="#00C853"/>
<path d="M556.155 248.758C555.053 249.138 555.038 250.431 555.649 252.706C556.604 256.732 556.964 260.115 552.405 262.033C549.439 263.109 546.72 261.962 544.885 258.673L542.718 259.466L541.177 255.236L543.344 254.443C543.1 253.329 543.151 252.171 543.49 251.082C543.829 249.994 544.445 249.012 545.277 248.233C545.323 248.155 545.382 248.085 545.451 248.026L545.967 247.52L549.327 250.952L548.684 251.718C548.231 252.15 547.93 252.716 547.824 253.333C547.718 253.949 547.813 254.584 548.096 255.141C548.826 257.15 549.553 257.839 550.778 257.391C551.842 256.979 551.778 255.685 551.219 253.427C550.256 249.565 549.869 245.872 554.465 244.207C557.478 243.106 560.288 244.315 562.206 247.583L564.462 246.761L565.926 250.991L563.744 251.771C564.083 253.011 564.061 254.322 563.682 255.551C563.303 256.779 562.582 257.875 561.604 258.708L560.863 259.327L557.836 255.638L558.582 255.076C559.571 254.209 559.751 252.951 559.126 251.316C558.326 249.157 557.373 248.318 556.155 248.758Z" fill="#00C853"/>
<path d="M637.64 352.371C637.551 351.853 637.597 351.32 637.774 350.825L671.976 256.858C672.111 256.487 672.317 256.147 672.583 255.856C672.849 255.565 673.17 255.33 673.527 255.163C673.885 254.996 674.271 254.902 674.665 254.884C675.059 254.867 675.452 254.928 675.823 255.063L720.929 271.479C721.299 271.614 721.639 271.82 721.93 272.086C722.221 272.351 722.457 272.672 722.624 273.029C722.734 273.268 722.813 273.52 722.857 273.779C722.947 274.298 722.901 274.831 722.724 275.326L688.522 369.293C688.387 369.664 688.181 370.004 687.915 370.295C687.648 370.586 687.328 370.821 686.97 370.988C686.613 371.155 686.226 371.249 685.833 371.266C685.439 371.284 685.045 371.223 684.675 371.088L639.569 354.671C639.198 354.537 638.858 354.331 638.567 354.065C638.277 353.799 638.041 353.479 637.874 353.122C637.763 352.883 637.685 352.631 637.64 352.371V352.371Z" fill="#7DDF96"/>
<path d="M719.903 274.3L685.701 368.267L640.595 351.85L674.797 257.884L719.903 274.3ZM725.812 273.259C725.719 272.744 725.563 272.243 725.346 271.767C725.013 271.051 724.542 270.408 723.96 269.875C723.378 269.341 722.696 268.928 721.954 268.658L676.848 252.242C676.108 251.972 675.321 251.851 674.533 251.885C673.745 251.919 672.972 252.109 672.258 252.442C671.543 252.776 670.901 253.247 670.369 253.828C669.837 254.41 669.424 255.091 669.155 255.832L634.953 349.799C634.594 350.789 634.502 351.856 634.686 352.892C634.777 353.411 634.938 353.916 635.163 354.392C635.835 355.832 637.05 356.947 638.543 357.492L683.649 373.909C684.39 374.179 685.177 374.3 685.965 374.266C686.752 374.231 687.525 374.042 688.24 373.709C688.955 373.375 689.596 372.904 690.129 372.322C690.661 371.741 691.073 371.06 691.343 370.319L725.545 276.352C725.904 275.362 725.996 274.295 725.812 273.259V273.259Z" fill="#515979"/>
<path d="M673.945 330.393C666.026 327.464 660.497 321.331 658.978 314.612L648.986 342.024C650.954 342.741 652.557 344.21 653.442 346.109C654.327 348.007 654.422 350.18 653.705 352.148L675.472 360.069C675.826 359.095 676.368 358.2 677.068 357.436C677.768 356.672 678.612 356.053 679.551 355.614C680.491 355.176 681.507 354.928 682.542 354.882C683.578 354.837 684.612 354.996 685.586 355.351L695.566 327.931C690.084 332.086 681.865 333.272 673.945 330.393ZM675.701 345.589C674.99 347.168 673.708 348.42 672.113 349.093C670.518 349.766 668.727 349.812 667.1 349.22C665.473 348.628 664.129 347.442 663.34 345.901C662.55 344.36 662.373 342.577 662.843 340.911C663.554 339.332 664.835 338.08 666.431 337.407C668.026 336.734 669.817 336.688 671.444 337.28C673.071 337.872 674.414 339.058 675.204 340.599C675.993 342.14 676.171 343.923 675.701 345.589V345.589Z" fill="#00C853"/>
<path d="M674.913 270.81L664.93 298.21C670.413 294.065 678.632 292.879 686.552 295.758C694.473 298.636 700.002 304.83 701.52 311.538L711.482 284.132C710.508 283.778 709.614 283.235 708.849 282.535C708.085 281.835 707.466 280.992 707.028 280.052C706.59 279.113 706.341 278.097 706.296 277.061C706.251 276.026 706.41 274.992 706.764 274.018L685.028 266.092C684.31 268.057 682.842 269.658 680.946 270.542C679.05 271.427 676.88 271.523 674.913 270.81V270.81ZM697.656 285.25C696.984 286.857 695.702 288.133 694.091 288.797C692.48 289.462 690.672 289.461 689.062 288.796C687.4 288.262 686.018 287.092 685.218 285.541C684.417 283.99 684.264 282.186 684.79 280.522C685.464 278.914 686.748 277.638 688.36 276.973C689.973 276.308 691.783 276.309 693.395 276.974C695.056 277.508 696.438 278.679 697.237 280.231C698.036 281.782 698.186 283.587 697.656 285.25V285.25Z" fill="#00C853"/>
<path d="M684.434 311.099C683.345 310.681 682.503 311.663 681.508 313.798C679.652 317.496 677.754 320.319 673.028 318.857C670.065 317.775 668.719 315.149 669.427 311.45L667.258 310.665L668.796 306.433L670.966 307.218C671.495 306.209 672.278 305.354 673.238 304.738C674.197 304.122 675.3 303.766 676.439 303.705C676.524 303.674 676.614 303.658 676.705 303.658L677.426 303.602L677.793 308.391L676.808 308.564C676.184 308.604 675.589 308.843 675.111 309.248C674.634 309.652 674.299 310.199 674.158 310.809C673.425 312.816 673.54 313.812 674.765 314.256C675.846 314.624 676.628 313.592 677.651 311.503C679.396 307.925 681.474 304.848 686.065 306.526C689.08 307.619 690.456 310.352 689.825 314.088L692.082 314.908L690.484 319.09L688.311 318.285C687.773 319.452 686.914 320.443 685.834 321.141C684.754 321.838 683.498 322.214 682.212 322.223L681.247 322.221L681.299 317.449L682.232 317.498C683.547 317.469 684.494 316.622 685.066 314.968C685.841 312.8 685.65 311.544 684.434 311.099Z" fill="#00C853"/>
<path d="M717.096 195.092C717.277 194.599 717.584 194.161 717.984 193.82L794.588 129.543C794.89 129.29 795.239 129.098 795.615 128.979C795.99 128.86 796.386 128.817 796.779 128.851C797.172 128.885 797.554 128.997 797.904 129.179C798.253 129.361 798.564 129.61 798.817 129.912L829.671 166.682C829.925 166.984 830.117 167.332 830.236 167.708C830.355 168.084 830.398 168.479 830.365 168.871C830.341 169.134 830.283 169.392 830.192 169.639C830.01 170.132 829.704 170.571 829.303 170.911L752.699 235.188C752.398 235.441 752.049 235.633 751.673 235.752C751.297 235.871 750.901 235.914 750.508 235.88C750.116 235.846 749.733 235.734 749.384 235.552C749.034 235.37 748.724 235.121 748.47 234.819L717.616 198.049C717.362 197.747 717.17 197.399 717.052 197.023C716.933 196.647 716.889 196.252 716.923 195.86C716.946 195.597 717.005 195.339 717.096 195.092V195.092Z" fill="#7DDF96"/>
<path d="M827.373 168.613L750.769 232.889L719.915 196.119L796.518 131.842L827.373 168.613ZM833.011 170.665C833.188 170.173 833.303 169.66 833.353 169.14C833.423 168.353 833.336 167.561 833.099 166.808C832.862 166.055 832.478 165.357 831.97 164.752L801.116 127.982C800.609 127.378 799.988 126.879 799.289 126.515C798.589 126.151 797.825 125.929 797.04 125.86C796.254 125.792 795.463 125.879 794.711 126.116C793.959 126.354 793.261 126.737 792.658 127.245L716.054 191.521C715.249 192.199 714.635 193.077 714.276 194.066C714.096 194.562 713.983 195.079 713.94 195.604C713.802 197.187 714.297 198.76 715.317 199.979L746.172 236.749C746.678 237.353 747.299 237.852 747.999 238.216C748.698 238.58 749.462 238.802 750.248 238.871C751.033 238.939 751.825 238.852 752.576 238.615C753.328 238.377 754.026 237.994 754.63 237.486L831.233 173.21C832.039 172.532 832.652 171.654 833.011 170.665V170.665Z" fill="#515979"/>
<path d="M759.526 194.211C754.132 187.715 752.411 179.639 754.454 173.061L732.095 191.804C733.441 193.409 734.094 195.483 733.911 197.57C733.729 199.657 732.725 201.585 731.12 202.932L746.01 220.674C746.803 220.008 747.721 219.504 748.709 219.192C749.697 218.881 750.738 218.766 751.77 218.857C752.803 218.947 753.807 219.24 754.727 219.718C755.646 220.197 756.462 220.852 757.128 221.646L779.481 202.89C772.656 203.747 764.946 200.664 759.526 194.211ZM753.448 208.249C752.043 209.261 750.307 209.704 748.589 209.49C746.871 209.275 745.297 208.419 744.184 207.093C743.071 205.766 742.501 204.068 742.587 202.339C742.674 200.609 743.412 198.977 744.652 197.769C746.057 196.757 747.793 196.314 749.511 196.528C751.229 196.743 752.803 197.599 753.916 198.925C755.029 200.251 755.599 201.95 755.513 203.679C755.426 205.408 754.688 207.041 753.448 208.249V208.249Z" fill="#00C853"/>
<path d="M790.156 143.095L767.81 161.832C774.631 160.984 782.342 164.067 787.762 170.52C793.181 176.973 794.873 185.101 792.834 191.67L815.164 172.917C814.498 172.123 813.994 171.206 813.682 170.217C813.371 169.229 813.256 168.189 813.347 167.156C813.437 166.124 813.73 165.119 814.208 164.2C814.687 163.28 815.342 162.464 816.136 161.798L801.274 144.066C799.67 145.409 797.599 146.062 795.514 145.88C793.43 145.698 791.503 144.696 790.156 143.095V143.095ZM802.632 166.972C801.246 168.027 799.498 168.491 797.771 168.261C796.043 168.031 794.478 167.127 793.415 165.746C792.244 164.452 791.632 162.748 791.714 161.005C791.796 159.262 792.565 157.622 793.853 156.444C795.241 155.389 796.991 154.926 798.72 155.156C800.448 155.386 802.016 156.292 803.079 157.674C804.251 158.967 804.862 160.672 804.778 162.415C804.694 164.158 803.922 165.797 802.632 166.972V166.972Z" fill="#00C853"/>
<path d="M778.257 182.746C777.522 181.84 776.302 182.269 774.373 183.621C770.917 185.896 767.861 187.391 764.5 183.762C762.475 181.344 762.622 178.396 765.085 175.547L763.599 173.782L767.047 170.887L768.533 172.652C769.496 172.042 770.602 171.693 771.741 171.64C772.88 171.586 774.013 171.829 775.029 172.345C775.119 172.361 775.204 172.393 775.283 172.438L775.936 172.75L773.859 177.081L772.92 176.738C772.359 176.461 771.724 176.371 771.108 176.482C770.493 176.593 769.929 176.9 769.502 177.357C767.864 178.729 767.465 179.649 768.305 180.646C769.056 181.505 770.25 181.003 772.181 179.705C775.481 177.479 778.818 175.853 781.955 179.602C784.02 182.056 783.845 185.11 781.431 188.03L782.975 189.87L779.5 192.691L778.021 190.908C776.972 191.65 775.732 192.079 774.448 192.143C773.164 192.207 771.888 191.904 770.77 191.27L769.935 190.785L772.366 186.679L773.15 187.187C774.303 187.82 775.547 187.56 776.869 186.413C778.624 184.923 779.087 183.74 778.257 182.746Z" fill="#00C853"/>
<path d="M947.417 282.767C946.922 282.945 946.389 282.992 945.87 282.904L847.392 265.539C847.004 265.47 846.633 265.326 846.3 265.115C845.967 264.903 845.68 264.628 845.454 264.305C845.227 263.982 845.067 263.618 844.982 263.233C844.896 262.848 844.888 262.45 844.956 262.062L853.291 214.79C853.359 214.402 853.503 214.032 853.714 213.699C853.925 213.366 854.2 213.079 854.522 212.852C854.738 212.702 854.973 212.581 855.221 212.492C855.716 212.314 856.249 212.267 856.767 212.355L955.246 229.72C955.634 229.788 956.005 229.932 956.338 230.144C956.671 230.356 956.958 230.631 957.184 230.954C957.411 231.276 957.571 231.641 957.656 232.026C957.742 232.411 957.75 232.809 957.682 233.197L949.347 280.468C949.279 280.856 949.135 281.227 948.924 281.56C948.713 281.892 948.438 282.18 948.116 282.406C947.899 282.557 947.665 282.678 947.417 282.767V282.767Z" fill="#7DDF96"/>
<path d="M856.247 215.311L954.726 232.676L946.391 279.948L847.912 262.582L856.247 215.311ZM854.195 209.673C853.704 209.853 853.238 210.094 852.807 210.391C852.16 210.843 851.608 211.418 851.184 212.084C850.76 212.75 850.471 213.493 850.335 214.27L842 261.542C841.863 262.318 841.88 263.114 842.051 263.884C842.221 264.654 842.542 265.382 842.995 266.028C843.447 266.674 844.022 267.224 844.688 267.647C845.353 268.07 846.095 268.358 846.872 268.495L945.35 285.86C946.387 286.042 947.454 285.947 948.443 285.586C948.938 285.406 949.407 285.16 949.837 284.855C951.139 283.944 952.026 282.553 952.303 280.989L960.638 233.717C960.775 232.941 960.758 232.145 960.587 231.375C960.416 230.605 960.096 229.876 959.643 229.231C959.191 228.585 958.615 228.035 957.95 227.611C957.285 227.188 956.543 226.9 955.766 226.764L857.288 209.398C856.251 209.217 855.184 209.311 854.195 209.673V209.673Z" fill="#515979"/>
<path d="M919.468 250.83C917.958 259.137 912.879 265.647 906.526 268.311L935.256 273.391C935.621 271.328 936.789 269.494 938.505 268.293C940.221 267.092 942.344 266.621 944.407 266.984L948.428 244.174C947.407 243.994 946.432 243.615 945.558 243.058C944.683 242.502 943.927 241.778 943.333 240.929C942.738 240.08 942.317 239.123 942.092 238.111C941.868 237.099 941.845 236.053 942.025 235.032L913.289 229.965C918.333 234.642 920.927 242.53 919.468 250.83ZM934.128 246.462C935.807 246.888 937.262 247.933 938.202 249.387C939.142 250.841 939.498 252.597 939.197 254.302C938.897 256.008 937.963 257.536 936.582 258.581C935.201 259.626 933.477 260.111 931.754 259.937C930.076 259.511 928.62 258.467 927.68 257.013C926.74 255.558 926.385 253.803 926.685 252.097C926.986 250.392 927.92 248.864 929.3 247.818C930.681 246.773 932.406 246.289 934.128 246.462V246.462Z" fill="#00C853"/>
<path d="M860.622 260.223L889.339 265.297C884.305 260.617 881.71 252.728 883.17 244.429C884.629 236.129 889.769 229.608 896.112 226.948L867.392 221.896C867.212 222.917 866.833 223.892 866.276 224.767C865.72 225.641 864.996 226.397 864.147 226.991C863.298 227.586 862.341 228.008 861.329 228.232C860.317 228.456 859.271 228.479 858.25 228.299L854.219 251.082C856.279 251.447 858.111 252.614 859.311 254.328C860.511 256.042 860.983 258.162 860.622 260.223V260.223ZM870.893 235.318C872.593 235.701 874.072 236.742 875.006 238.213C875.94 239.684 876.254 241.465 875.878 243.166C875.641 244.895 874.728 246.459 873.34 247.517C871.952 248.575 870.202 249.039 868.472 248.81C866.771 248.425 865.291 247.382 864.357 245.91C863.422 244.438 863.108 242.655 863.483 240.952C863.721 239.223 864.634 237.659 866.024 236.603C867.413 235.547 869.164 235.085 870.893 235.318V235.318Z" fill="#00C853"/>
<path d="M898.645 243.851C898.424 244.996 899.536 245.655 901.812 246.264C905.776 247.449 908.886 248.829 908.267 253.736C907.716 256.842 905.363 258.624 901.597 258.569L901.201 260.842L896.766 260.061L897.163 257.788C896.077 257.442 895.099 256.82 894.326 255.982C893.553 255.144 893.01 254.119 892.752 253.009C892.707 252.93 892.676 252.844 892.66 252.755L892.479 252.055L897.132 250.861L897.474 251.801C897.621 252.409 897.961 252.953 898.442 253.353C898.923 253.753 899.52 253.988 900.144 254.022C902.249 254.394 903.209 254.109 903.433 252.825C903.608 251.697 902.456 251.105 900.221 250.461C896.395 249.363 893.004 247.852 893.859 243.039C894.412 239.879 896.864 238.05 900.653 238.023L901.069 235.658L905.464 236.506L905.049 238.785C906.293 239.112 907.417 239.786 908.292 240.728C909.166 241.671 909.754 242.843 909.987 244.107L910.152 245.058L905.444 245.835L905.33 244.908C905.074 243.618 904.075 242.833 902.346 242.557C900.077 242.17 898.873 242.576 898.645 243.851Z" fill="#00C853"/>
<path d="M1016.05 126.177C1015.55 125.995 1015.11 125.689 1014.77 125.289L950.497 48.685C950.243 48.3832 950.051 48.0344 949.933 47.6584C949.814 47.2825 949.77 46.8869 949.804 46.4941C949.839 46.1013 949.95 45.7192 950.132 45.3695C950.314 45.0198 950.563 44.7094 950.865 44.456L987.636 13.6015C987.937 13.3479 988.286 13.1561 988.661 13.0372C989.037 12.9183 989.432 12.8745 989.825 12.9084C990.087 12.9321 990.345 12.9902 990.592 13.0812C991.086 13.2632 991.524 13.5693 991.865 13.9701L1056.14 90.5737C1056.39 90.8755 1056.59 91.2243 1056.71 91.6002C1056.82 91.9762 1056.87 92.3718 1056.83 92.7646C1056.8 93.1573 1056.69 93.5395 1056.51 93.8892C1056.32 94.2389 1056.07 94.5493 1055.77 94.8026L1019 125.657C1018.7 125.911 1018.35 126.103 1017.98 126.221C1017.6 126.34 1017.21 126.384 1016.81 126.35C1016.55 126.327 1016.29 126.268 1016.05 126.177V126.177Z" fill="#7DDF96"/>
<path d="M989.566 15.9003L1053.84 92.5039L1017.07 123.358L952.796 46.7548L989.566 15.9003ZM991.618 10.2621C991.126 10.085 990.614 9.97006 990.093 9.91994C989.307 9.85047 988.514 9.93685 987.762 10.1741C987.009 10.4114 986.31 10.7949 985.706 11.3027L948.935 42.1572C948.331 42.6639 947.833 43.2847 947.469 43.9842C947.105 44.6836 946.882 45.4479 946.813 46.2334C946.745 47.0189 946.832 47.8102 947.07 48.5621C947.307 49.3139 947.691 50.0116 948.198 50.6152L1012.47 127.219C1013.15 128.024 1014.03 128.638 1015.02 128.997C1015.52 129.177 1016.03 129.29 1016.56 129.333C1018.14 129.471 1019.71 128.976 1020.93 127.956L1057.7 97.1014C1058.31 96.5948 1058.81 95.974 1059.17 95.2745C1059.53 94.5751 1059.76 93.8108 1059.82 93.0253C1059.89 92.2398 1059.81 91.4485 1059.57 90.6966C1059.33 89.9448 1058.95 89.2471 1058.44 88.6435L994.163 12.0399C993.486 11.2343 992.608 10.6211 991.618 10.2621V10.2621Z" fill="#515979"/>
<path d="M1015.16 83.7472C1008.67 89.1406 1000.59 90.8623 994.014 88.8193L1012.76 111.178C1014.36 109.832 1016.44 109.179 1018.52 109.362C1020.61 109.544 1022.54 110.548 1023.89 112.153L1041.63 97.2633C1040.96 96.4696 1040.46 95.5523 1040.15 94.5639C1039.83 93.5756 1039.72 92.5354 1039.81 91.5029C1039.9 90.4704 1040.19 89.4658 1040.67 88.5465C1041.15 87.6271 1041.81 86.8111 1042.6 86.145L1023.84 63.792C1024.7 70.6169 1021.62 78.3274 1015.16 83.7472ZM1029.2 89.825C1030.21 91.23 1030.66 92.9658 1030.44 94.684C1030.23 96.4022 1029.37 97.9757 1028.05 99.0888C1026.72 100.202 1025.02 100.772 1023.29 100.686C1021.56 100.599 1019.93 99.8613 1018.72 98.621C1017.71 97.2159 1017.27 95.4802 1017.48 93.762C1017.7 92.0438 1018.55 90.4703 1019.88 89.3571C1021.2 88.244 1022.9 87.6736 1024.63 87.7604C1026.36 87.8471 1027.99 88.5847 1029.2 89.825V89.825Z" fill="#00C853"/>
<path d="M964.048 53.1171L982.785 75.4633C981.937 68.6418 985.02 60.9313 991.473 55.5114C997.926 50.0916 1006.05 48.3998 1012.62 50.4394L993.87 28.1086C993.076 28.7751 992.159 29.2787 991.171 29.5906C990.182 29.9025 989.142 30.0166 988.11 29.9264C987.077 29.8362 986.072 29.5435 985.153 29.0649C984.234 28.5864 983.418 27.9314 982.752 27.1374L965.019 41.9988C966.363 43.6029 967.015 45.6744 966.833 47.7588C966.651 49.8433 965.649 51.7703 964.048 53.1171V53.1171ZM987.925 40.6412C988.981 42.0274 989.444 43.7753 989.214 45.5025C988.985 47.2297 988.08 48.7955 986.699 49.8576C985.406 51.0291 983.701 51.6407 981.958 51.5587C980.215 51.4767 978.575 50.7077 977.398 49.42C976.342 48.0317 975.879 46.2821 976.109 44.5534C976.34 42.8247 977.245 41.2575 978.627 40.1942C979.92 39.0224 981.625 38.4114 983.369 38.4952C985.112 38.579 986.75 39.3508 987.925 40.6412V40.6412Z" fill="#00C853"/>
<path d="M1003.7 65.0164C1002.79 65.7508 1003.22 66.971 1004.57 68.8997C1006.85 72.3562 1008.34 75.4118 1004.72 78.7735C1002.3 80.7985 999.35 80.6515 996.5 78.1884L994.736 79.6745L991.84 76.2263L993.605 74.7402C992.996 73.7767 992.647 72.6713 992.593 71.5325C992.539 70.3936 992.782 69.2603 993.299 68.2436C993.315 68.1544 993.346 68.0686 993.391 67.9899L993.703 67.3373L998.034 69.4138L997.692 70.3535C997.414 70.9139 997.324 71.549 997.435 72.1646C997.547 72.7803 997.854 73.3436 998.31 73.7711C999.683 75.4093 1000.6 75.8077 1001.6 74.9682C1002.46 74.2166 1001.96 73.0229 1000.66 71.0925C998.433 67.7923 996.806 64.4547 1000.55 61.3178C1003.01 59.2527 1006.06 59.4278 1008.98 61.8423L1010.82 60.2981L1013.64 63.7728L1011.86 65.252C1012.6 66.3015 1013.03 67.5408 1013.1 68.8249C1013.16 70.109 1012.86 71.3848 1012.22 72.503L1011.74 73.3376L1007.63 70.9066L1008.14 70.1233C1008.77 68.9701 1008.51 67.7261 1007.37 66.4041C1005.88 64.6488 1004.69 64.1862 1003.7 65.0164Z" fill="#00C853"/>
<path d="M1079.99 231.333C1079.8 230.841 1079.75 230.31 1079.83 229.79L1095.47 131.023C1095.53 130.634 1095.67 130.26 1095.88 129.924C1096.08 129.588 1096.35 129.295 1096.67 129.063C1096.99 128.832 1097.35 128.665 1097.73 128.573C1098.12 128.481 1098.52 128.465 1098.9 128.527L1146.31 136.036C1146.7 136.097 1147.08 136.234 1147.41 136.439C1147.75 136.645 1148.04 136.914 1148.27 137.233C1148.43 137.446 1148.55 137.679 1148.65 137.925C1148.83 138.417 1148.89 138.949 1148.81 139.469L1133.17 238.235C1133.11 238.625 1132.97 238.998 1132.76 239.335C1132.56 239.671 1132.29 239.963 1131.97 240.195C1131.65 240.427 1131.29 240.594 1130.9 240.686C1130.52 240.778 1130.12 240.793 1129.73 240.732L1082.32 233.223C1081.93 233.162 1081.56 233.025 1081.22 232.819C1080.89 232.614 1080.6 232.344 1080.36 232.026C1080.21 231.812 1080.08 231.58 1079.99 231.333V231.333Z" fill="#7DDF96"/>
<path d="M1145.85 139L1130.2 237.767L1082.79 230.258L1098.44 131.492L1145.85 139ZM1151.45 136.85C1151.26 136.363 1151.01 135.901 1150.71 135.475C1150.24 134.836 1149.66 134.294 1148.98 133.882C1148.31 133.469 1147.56 133.194 1146.78 133.071L1099.37 125.562C1098.59 125.439 1097.8 125.47 1097.03 125.654C1096.27 125.838 1095.54 126.171 1094.91 126.635C1094.27 127.099 1093.73 127.684 1093.32 128.356C1092.9 129.029 1092.63 129.776 1092.51 130.555L1076.86 229.321C1076.7 230.361 1076.81 231.426 1077.19 232.408C1077.38 232.9 1077.63 233.365 1077.95 233.79C1078.88 235.075 1080.29 235.938 1081.85 236.188L1129.26 243.697C1130.04 243.82 1130.84 243.789 1131.61 243.605C1132.37 243.421 1133.09 243.087 1133.73 242.624C1134.37 242.16 1134.91 241.575 1135.32 240.903C1135.73 240.23 1136.01 239.483 1136.13 238.704L1151.78 139.938C1151.94 138.898 1151.83 137.833 1151.45 136.85V136.85Z" fill="#515979"/>
<path d="M1111.44 202.832C1103.1 201.467 1096.51 196.502 1093.73 190.197L1089.15 219.011C1091.22 219.34 1093.08 220.476 1094.31 222.171C1095.54 223.866 1096.05 225.98 1095.72 228.049L1118.6 231.671C1118.76 230.647 1119.12 229.665 1119.66 228.782C1120.2 227.898 1120.91 227.129 1121.75 226.52C1122.59 225.911 1123.54 225.472 1124.55 225.23C1125.56 224.989 1126.6 224.947 1127.62 225.11L1132.19 196.29C1127.6 201.414 1119.76 204.146 1111.44 202.832ZM1116.06 217.414C1115.66 219.099 1114.64 220.572 1113.21 221.538C1111.77 222.503 1110.02 222.889 1108.31 222.618C1106.6 222.348 1105.05 221.44 1103.98 220.078C1102.92 218.716 1102.4 217 1102.54 215.274C1102.94 213.589 1103.96 212.116 1105.4 211.15C1106.83 210.185 1108.58 209.799 1110.29 210.07C1112 210.34 1113.55 211.248 1114.62 212.61C1115.69 213.972 1116.2 215.688 1116.06 217.414V217.414Z" fill="#00C853"/>
<path d="M1101.02 144.158L1096.44 172.96C1101.04 167.844 1108.88 165.113 1117.2 166.427C1125.53 167.741 1132.14 172.766 1134.91 179.062L1139.46 150.258C1138.43 150.096 1137.45 149.734 1136.57 149.193C1135.68 148.652 1134.91 147.942 1134.3 147.103C1133.7 146.265 1133.26 145.315 1133.02 144.307C1132.77 143.299 1132.73 142.253 1132.89 141.23L1110.05 137.597C1109.72 139.663 1108.58 141.515 1106.89 142.745C1105.2 143.975 1103.08 144.483 1101.02 144.158V144.158ZM1126.1 153.994C1125.74 155.7 1124.73 157.196 1123.27 158.156C1121.82 159.116 1120.04 159.46 1118.34 159.115C1116.6 158.907 1115.02 158.022 1113.94 156.653C1112.86 155.283 1112.37 153.541 1112.57 151.808C1112.92 150.1 1113.94 148.603 1115.39 147.643C1116.85 146.683 1118.63 146.338 1120.33 146.683C1122.07 146.89 1123.65 147.776 1124.73 149.147C1125.81 150.517 1126.3 152.26 1126.1 153.994V153.994Z" fill="#00C853"/>
<path d="M1118.05 181.89C1116.9 181.688 1116.26 182.812 1115.69 185.098C1114.58 189.083 1113.25 192.216 1108.33 191.683C1105.22 191.186 1103.4 188.865 1103.39 185.099L1101.11 184.742L1101.81 180.294L1104.09 180.651C1104.42 179.559 1105.02 178.571 1105.85 177.783C1106.67 176.995 1107.68 176.435 1108.79 176.158C1108.87 176.111 1108.95 176.079 1109.04 176.061L1109.74 175.868L1111.01 180.499L1110.08 180.858C1109.48 181.016 1108.94 181.364 1108.55 181.852C1108.15 182.34 1107.93 182.941 1107.91 183.567C1107.57 185.677 1107.87 186.632 1109.16 186.834C1110.29 186.989 1110.86 185.827 1111.47 183.581C1112.5 179.736 1113.95 176.319 1118.78 177.09C1121.95 177.588 1123.82 180.008 1123.91 183.796L1126.28 184.171L1125.51 188.58L1123.23 188.205C1122.92 189.454 1122.27 190.59 1121.34 191.481C1120.41 192.371 1119.25 192.98 1117.99 193.235L1117.04 193.416L1116.18 188.723L1117.11 188.593C1118.39 188.313 1119.16 187.301 1119.41 185.568C1119.76 183.292 1119.33 182.096 1118.05 181.89Z" fill="#00C853"/>
<path d="M39.0566 195.802C38.1934 195.802 37.3655 195.459 36.7552 194.849C36.1448 194.238 35.8019 193.41 35.8019 192.547V88.3962C35.8019 86.3821 36.602 84.4504 38.0262 83.0262C39.4504 81.602 41.3821 80.8019 43.3962 80.8019H186.604C188.618 80.8019 190.55 81.602 191.974 83.0262C193.398 84.4504 194.198 86.3821 194.198 88.3962V192.547C194.198 193.41 193.855 194.238 193.245 194.849C192.634 195.459 191.807 195.802 190.943 195.802H39.0566Z" fill="#75A5C3"/>
<path d="M186.604 84.0566C187.755 84.0566 188.859 84.5138 189.672 85.3277C190.486 86.1415 190.943 87.2453 190.943 88.3962V192.547H39.0566V88.3962C39.0566 87.2453 39.5138 86.1415 40.3276 85.3277C41.1415 84.5138 42.2453 84.0566 43.3962 84.0566H186.604ZM186.604 77.5472H43.3962C40.5189 77.5472 37.7594 78.6902 35.7248 80.7248C33.6902 82.7594 32.5472 85.5189 32.5472 88.3962V192.547C32.5472 194.274 33.233 195.929 34.4537 197.15C35.6745 198.371 37.3302 199.057 39.0566 199.057H190.943C192.67 199.057 194.326 198.371 195.546 197.15C196.767 195.929 197.453 194.274 197.453 192.547V88.3962C197.453 85.5189 196.31 82.7594 194.275 80.7248C192.241 78.6902 189.481 77.5472 186.604 77.5472Z" fill="#515979"/>
<g style="mix-blend-mode:overlay" opacity="0.7">
<g style="mix-blend-mode:overlay" opacity="0.7">
<path d="M190.943 114.434H39.0566V120.943H190.943V114.434Z" fill="#515979"/>
</g>
</g>
<path d="M164.906 48.2547H65.0943C60.9001 48.2547 57.5 51.6548 57.5 55.8491V199.057C57.5 203.251 60.9001 206.651 65.0943 206.651H164.906C169.1 206.651 172.5 203.251 172.5 199.057V55.8491C172.5 51.6548 169.1 48.2547 164.906 48.2547Z" fill="white"/>
<path d="M164.906 51.5094C166.057 51.5094 167.16 51.9666 167.974 52.7805C168.788 53.5943 169.245 54.6981 169.245 55.8491V199.057C169.245 200.208 168.788 201.311 167.974 202.125C167.16 202.939 166.057 203.396 164.906 203.396H65.0943C63.9434 203.396 62.8396 202.939 62.0258 202.125C61.2119 201.311 60.7547 200.208 60.7547 199.057V55.8491C60.7547 54.6981 61.2119 53.5943 62.0258 52.7805C62.8396 51.9666 63.9434 51.5094 65.0943 51.5094H164.906ZM164.906 45H65.0943C62.217 45 59.4575 46.143 57.4229 48.1776C55.3883 50.2122 54.2453 52.9717 54.2453 55.8491V199.057C54.2453 201.934 55.3883 204.693 57.4229 206.728C59.4575 208.763 62.217 209.906 65.0943 209.906H164.906C167.783 209.906 170.543 208.763 172.577 206.728C174.612 204.693 175.755 201.934 175.755 199.057V55.8491C175.755 52.9717 174.612 50.2122 172.577 48.1776C170.543 46.143 167.783 45 164.906 45Z" fill="#515979"/>
<path d="M169.245 107.925H60.7547V120.943H169.245V107.925Z" fill="#D8EBFB"/>
<path d="M17.3585 289.104C13.6179 289.104 10.0306 287.618 7.38561 284.973C4.74064 282.328 3.25471 278.741 3.25471 275V183.868C3.25471 183.005 3.59762 182.177 4.208 181.567C4.81838 180.956 5.64623 180.613 6.50943 180.613H223.491C224.354 180.613 225.182 180.956 225.792 181.567C226.402 182.177 226.745 183.005 226.745 183.868V275C226.745 276.852 226.38 278.686 225.672 280.397C224.963 282.108 223.924 283.663 222.614 284.973C221.305 286.283 219.75 287.321 218.039 288.03C216.328 288.739 214.494 289.104 212.642 289.104H17.3585Z" fill="#75A5C3"/>
<path d="M223.491 183.868V275C223.491 277.877 222.348 280.637 220.313 282.671C218.278 284.706 215.519 285.849 212.642 285.849H17.3585C14.4811 285.849 11.7216 284.706 9.68705 282.671C7.65246 280.637 6.50943 277.877 6.50943 275V183.868H223.491ZM223.491 177.359H6.50943C4.78302 177.359 3.12732 178.044 1.90657 179.265C0.685814 180.486 0 182.142 0 183.868V275C0 279.604 1.82884 284.019 5.08418 287.274C8.33953 290.53 12.7547 292.359 17.3585 292.359H212.642C217.245 292.359 221.66 290.53 224.916 287.274C228.171 284.019 230 279.604 230 275V183.868C230 182.142 229.314 180.486 228.093 179.265C226.873 178.044 225.217 177.359 223.491 177.359Z" fill="#515979"/>
<path d="M201.792 252.217H28.2075C25.2117 252.217 22.783 254.646 22.783 257.642V270.66C22.783 273.656 25.2117 276.085 28.2075 276.085H201.792C204.788 276.085 207.217 273.656 207.217 270.66V257.642C207.217 254.646 204.788 252.217 201.792 252.217Z" fill="#75A5C3"/>
<path d="M201.792 255.472C202.368 255.472 202.92 255.7 203.327 256.107C203.734 256.514 203.962 257.066 203.962 257.642V270.66C203.962 271.236 203.734 271.788 203.327 272.195C202.92 272.602 202.368 272.83 201.792 272.83H28.2076C27.6321 272.83 27.0802 272.602 26.6733 272.195C26.2663 271.788 26.0377 271.236 26.0377 270.66V257.642C26.0377 257.066 26.2663 256.514 26.6733 256.107C27.0802 255.7 27.6321 255.472 28.2076 255.472H201.792ZM201.792 248.962H28.2076C25.9057 248.962 23.6981 249.877 22.0704 251.504C20.4427 253.132 19.5283 255.34 19.5283 257.642V270.66C19.5283 272.962 20.4427 275.17 22.0704 276.798C23.6981 278.425 25.9057 279.34 28.2076 279.34H201.792C204.094 279.34 206.302 278.425 207.93 276.798C209.557 275.17 210.472 272.962 210.472 270.66V257.642C210.472 255.34 209.557 253.132 207.93 251.504C206.302 249.877 204.094 248.962 201.792 248.962Z" fill="#515979"/>
<g style="mix-blend-mode:overlay" opacity="0.7">
<g style="mix-blend-mode:overlay" opacity="0.7">
<path d="M28.2075 255.472H201.792C202.368 255.472 202.92 255.7 203.327 256.107C203.734 256.514 203.962 257.066 203.962 257.641V264.151H26.0377V257.641C26.0377 257.066 26.2663 256.514 26.6733 256.107C27.0802 255.7 27.6321 255.472 28.2075 255.472V255.472Z" fill="#515979"/>
</g>
</g>
<path d="M54.2453 328.16C52.2311 328.16 50.2995 327.36 48.8753 325.936C47.4511 324.512 46.6509 322.58 46.6509 320.566V255.472C46.6509 254.608 46.9938 253.781 47.6042 253.17C48.2146 252.56 49.0425 252.217 49.9057 252.217H180.094C180.958 252.217 181.785 252.56 182.396 253.17C183.006 253.781 183.349 254.608 183.349 255.472V320.566C183.349 322.58 182.549 324.512 181.125 325.936C179.701 327.36 177.769 328.16 175.755 328.16H54.2453Z" fill="#75A5C3"/>
<path d="M180.094 255.472V320.566C180.094 321.717 179.637 322.821 178.823 323.635C178.009 324.448 176.906 324.906 175.755 324.906H54.2453C53.0943 324.906 51.9905 324.448 51.1767 323.635C50.3629 322.821 49.9057 321.717 49.9057 320.566V255.472H180.094ZM180.094 248.962H49.9057C48.1792 248.962 46.5235 249.648 45.3028 250.869C44.082 252.09 43.3962 253.745 43.3962 255.472V320.566C43.3962 323.443 44.5392 326.203 46.5738 328.238C48.6084 330.272 51.3679 331.415 54.2453 331.415H175.755C178.632 331.415 181.392 330.272 183.426 328.238C185.461 326.203 186.604 323.443 186.604 320.566V255.472C186.604 253.745 185.918 252.09 184.697 250.869C183.476 249.648 181.821 248.962 180.094 248.962V248.962Z" fill="#515979"/>
<path d="M108.147 255.472L102.972 264.427L100.619 268.545L91.3802 284.506L88.5258 289.442L85.6822 294.377L70.5276 320.622C70.3134 320.994 70.0281 321.321 69.6879 321.582C69.3477 321.844 68.9592 322.036 68.5447 322.148C68.2677 322.222 67.9818 322.259 67.6949 322.257C67.1214 322.257 66.5578 322.107 66.0607 321.821L20.782 295.673C20.4099 295.459 20.0836 295.173 19.8219 294.833C19.5602 294.492 19.3683 294.103 19.257 293.688C19.1457 293.274 19.1172 292.841 19.1733 292.415C19.2293 291.989 19.3687 291.578 19.5836 291.207L40.2183 255.472H108.147Z" fill="#7DDF96"/>
<path d="M104.367 255.472L98.0805 266.366L96.8167 268.545L95.1716 271.378L90.8137 278.83L88.0355 283.798L85.1811 288.701L67.7494 318.988L22.4707 292.841L37.7234 266.366L43.9661 255.472H36.4378L16.7291 289.572C16.2994 290.316 16.0206 291.137 15.9085 291.989C15.7964 292.841 15.8533 293.706 16.0759 294.536C16.2985 295.366 16.6824 296.143 17.2058 296.825C17.7292 297.506 18.3817 298.077 19.126 298.506L64.4047 324.654C65.3998 325.223 66.5264 325.524 67.6731 325.525C68.8213 325.526 69.9494 325.224 70.944 324.65C71.9385 324.077 72.7643 323.251 73.3384 322.257L86.1725 300.053L89.0269 295.118L91.9031 290.182L104.367 268.545L108.245 261.823L111.917 255.472H104.367Z" fill="#515979"/>
<path d="M94.3218 255.472C94.9423 257.294 95.309 259.193 95.4113 261.115L98.6797 255.472H94.3218Z" fill="#00C853"/>
<path d="M84.2768 278.351C77.8162 280.955 69.5688 280.377 62.2584 276.172C58.1453 273.818 54.7111 270.44 52.2897 266.367C50.4522 263.335 49.3791 259.903 49.1629 256.365L43.3887 266.367L33.2783 283.885C35.2522 285.029 36.6921 286.909 37.2823 289.112C37.8725 291.316 37.5649 293.664 36.4269 295.641L58.271 308.246C59.4146 306.272 61.2943 304.832 63.4979 304.242C65.7015 303.652 68.0492 303.959 70.0264 305.097L84.4293 280.138L85.911 277.577C85.3817 277.866 84.836 278.125 84.2768 278.351ZM61.2561 292.765C60.1954 294.332 58.5804 295.439 56.7363 295.863C54.8922 296.287 52.9559 295.997 51.3169 295.052C49.678 294.106 48.4581 292.574 47.9028 290.765C47.3475 288.956 47.498 287.004 48.324 285.302C49.3989 283.769 51.0089 282.695 52.8366 282.291C54.6643 281.887 56.577 282.183 58.1975 283.12C59.8181 284.056 61.0288 285.566 61.5909 287.352C62.1531 289.137 62.0258 291.068 61.2343 292.765H61.2561Z" fill="#00C853"/>
<path d="M83.5904 262.531C84.6799 259.677 84.4402 257.237 83.0021 255.472H72.9135C72.2594 256.187 71.6483 256.94 71.0832 257.727C69.5688 259.83 68.5556 260.723 67.4226 260.069C66.2895 259.416 66.235 257.945 67.4226 255.799C67.4879 255.69 67.5533 255.581 67.6296 255.472H61.5612L62.2585 255.875C60.8857 259.764 61.8336 262.956 64.8623 264.7C69.4817 267.369 72.2925 264.46 74.8419 260.919C76.3236 258.871 77.4131 257.912 78.459 258.522C79.6683 259.219 79.5485 260.309 78.459 262.324C78.1901 262.95 77.7274 263.473 77.139 263.817C76.5507 264.16 75.8677 264.305 75.1906 264.231H74.1011L73.8832 266.41L73.5781 269.471L74.3735 269.548C74.4675 269.559 74.5626 269.559 74.6567 269.548C75.8906 269.693 77.141 269.516 78.2864 269.035C79.4319 268.554 80.4334 267.785 81.1936 266.802L83.3725 268.055V267.968L84.2768 266.366L85.7694 263.795L83.5904 262.531Z" fill="#00C853"/>
<g style="mix-blend-mode:color-burn" opacity="0.3">
<g style="mix-blend-mode:color-burn" opacity="0.3">
<path d="M104.367 255.472L98.0805 266.366H37.7016L43.9879 255.472H104.367Z" fill="#515979"/>
</g>
</g>
<path d="M204.904 292.056C204.692 292.432 204.407 292.763 204.067 293.028C203.727 293.294 203.337 293.489 202.921 293.603L152.413 307.124C152.136 307.197 151.85 307.234 151.563 307.233C151.078 307.231 150.6 307.122 150.163 306.913C149.726 306.704 149.341 306.4 149.035 306.023C148.736 305.669 148.52 305.252 148.403 304.803L144.307 289.551L138.685 268.545L136.964 262.128L135.188 255.472H196.09L205.209 289.583C205.438 290.416 205.328 291.305 204.904 292.056V292.056Z" fill="#7DDF96"/>
<path d="M208.39 288.733L199.478 255.472H192.713L195.621 266.366L202.06 290.422L152.119 303.812L151.563 303.964L147.543 288.973L142.673 270.79L142.074 268.545L141.485 266.366L138.576 255.472H131.8L134.567 265.822L135.297 268.545L145.288 305.653C145.427 306.174 145.632 306.676 145.898 307.146C146.463 308.161 147.29 309.007 148.291 309.597C149.293 310.187 150.433 310.499 151.596 310.501C151.98 310.503 152.363 310.466 152.74 310.392C152.927 310.363 153.112 310.323 153.295 310.272L203.814 296.741C204.643 296.519 205.421 296.135 206.101 295.612C206.782 295.089 207.354 294.438 207.783 293.694C208.211 292.95 208.49 292.13 208.601 291.278C208.713 290.427 208.656 289.563 208.434 288.733H208.39Z" fill="#515979"/>
<path d="M193.9 278.961L190.523 266.366L187.603 255.472H181.6C178.009 259.628 173.235 262.589 167.916 263.959C161.411 265.823 154.436 265.093 148.458 261.921C147.211 261.236 146.043 260.417 144.972 259.481L144.688 259.241L145.07 260.679L146.595 266.366L149.94 278.83L152.914 289.943C155.119 289.354 157.467 289.665 159.442 290.807C161.418 291.949 162.859 293.829 163.449 296.033L187.821 289.496C187.232 287.293 187.541 284.946 188.681 282.971C189.821 280.995 191.698 279.553 193.9 278.961V278.961ZM173.549 285.007C171.733 285.57 169.768 285.389 168.085 284.505C166.402 283.62 165.138 282.105 164.571 280.29C164.212 278.434 164.571 276.51 165.573 274.907C166.576 273.304 168.15 272.141 169.976 271.652C171.803 271.163 173.747 271.384 175.416 272.271C177.086 273.159 178.357 274.646 178.974 276.433C179.387 278.289 179.049 280.234 178.032 281.841C177.015 283.447 175.403 284.586 173.549 285.007V285.007Z" fill="#00C853"/>
<g style="mix-blend-mode:color-burn" opacity="0.3">
<g style="mix-blend-mode:color-burn" opacity="0.3">
<path d="M195.632 266.366H141.485L138.576 255.472H192.713L195.632 266.366Z" fill="#515979"/>
</g>
</g>
<path d="M151.301 331.92C151.339 332.348 151.292 332.779 151.162 333.189C151.033 333.598 150.824 333.978 150.548 334.307C150.272 334.636 149.934 334.907 149.553 335.105C149.171 335.303 148.755 335.424 148.327 335.461L96.2611 340.026H95.9778C95.1579 340.029 94.3667 339.724 93.7613 339.171C93.1559 338.618 92.7804 337.858 92.7094 337.041L89.0269 295.118L88.5258 289.442L88.0355 283.798L86.5102 266.366L85.5624 255.472H144.612L144.972 259.481L145.07 260.679L145.571 266.366L147.543 288.973L149.035 306.023L149.395 310.131L151.301 331.92Z" fill="#7DDF96"/>
<path d="M154.559 331.637L152.696 310.392L152.413 307.124L152.119 303.855L149.94 278.874L148.85 266.41L148.458 261.965L147.891 255.472H141.355L142.313 266.366L142.499 268.545L142.695 270.79L144.329 289.529L145.876 307.146L148.055 332.204L95.956 336.769L91.9032 290.182L91.402 284.506L90.9009 278.83L89.9857 268.545L89.7896 266.366L88.8417 255.472H82.3049L83.1873 266.366L83.329 267.946L84.2768 278.351L84.4293 280.181L85.1811 288.744L85.6823 294.421L86.1725 300.097L89.4409 337.379C89.5831 339.012 90.334 340.533 91.5449 341.639C92.7557 342.745 94.338 343.355 95.9778 343.349H96.5552L104.018 342.695L148.687 338.784C149.542 338.701 150.372 338.45 151.13 338.046C151.888 337.641 152.559 337.092 153.104 336.428C153.65 335.764 154.059 334.999 154.309 334.177C154.558 333.355 154.643 332.492 154.559 331.637V331.637Z" fill="#515979"/>
<path d="M137.531 268.545L136.964 262.128L136.387 255.472H93.788L94.7467 266.366L94.9319 268.545L95.1716 271.378L95.2805 272.609C96.0667 271.148 97.0211 269.785 98.1241 268.545C99.5507 266.964 101.181 265.579 102.972 264.427C104.628 263.366 106.396 262.493 108.245 261.823C110.582 260.983 113.017 260.448 115.49 260.233C122.333 259.515 129.184 261.523 134.556 265.822C135.545 266.638 136.45 267.55 137.258 268.545L137.552 268.905L137.531 268.545Z" fill="#00C853"/>
<path d="M142.019 319.5L139.252 287.84C135.744 294.464 128.172 299.421 119.031 300.217C109.89 301.012 101.599 297.449 96.9801 291.501L99.7474 323.172C100.872 323.073 102.005 323.197 103.082 323.536C104.158 323.875 105.158 324.423 106.023 325.148C106.888 325.874 107.601 326.762 108.123 327.764C108.644 328.765 108.964 329.859 109.062 330.983L134.197 328.805C134.003 326.534 134.718 324.28 136.185 322.535C137.651 320.791 139.749 319.7 142.019 319.5V319.5ZM120.905 321.93C119.565 321.939 118.251 321.558 117.124 320.833C115.997 320.108 115.106 319.071 114.559 317.847C114.013 316.624 113.834 315.267 114.046 313.944C114.258 312.621 114.85 311.388 115.752 310.396C116.653 309.404 117.823 308.697 119.12 308.359C120.417 308.022 121.784 308.07 123.054 308.497C124.325 308.924 125.443 309.712 126.272 310.765C127.102 311.817 127.607 313.089 127.725 314.423C127.814 316.323 127.146 318.18 125.867 319.587C124.589 320.994 122.804 321.837 120.905 321.93V321.93Z" fill="#00C853"/>
<path d="M131.19 276.629L128.684 276.847C127.682 272.871 125.143 270.888 121.722 271.193C116.373 271.923 115.806 275.551 115.676 280.083C115.676 282.676 115.327 283.983 114.03 284.103C112.734 284.223 111.851 283.014 111.623 280.573C111.459 278.721 112.004 277.457 113.29 276.815L114.205 276.346L112.026 271.607L111.078 272.054C109.813 272.655 108.747 273.605 108.004 274.792C107.261 275.979 106.872 277.354 106.883 278.754L104.334 278.972L104.77 283.864L107.374 283.635C108.463 287.6 111.078 289.67 114.564 289.365C119.87 288.908 120.513 284.909 120.589 280.573C120.589 278.046 120.96 276.64 122.169 276.531C123.574 276.411 124.141 277.338 124.348 279.658C124.485 280.329 124.404 281.027 124.116 281.649C123.828 282.27 123.348 282.783 122.746 283.112L121.842 283.678L124.413 288.243L125.1 287.851C125.189 287.816 125.27 287.764 125.339 287.698C126.426 287.111 127.342 286.253 127.999 285.207C128.656 284.16 129.031 282.962 129.087 281.728L131.593 281.51L131.19 276.629Z" fill="#00C853"/>
<g style="mix-blend-mode:color-burn" opacity="0.3">
<g style="mix-blend-mode:color-burn" opacity="0.3">
<path d="M142.477 268.545H89.9857L89.8005 266.366H89.7896L88.8417 255.472H141.333L142.292 266.366L142.477 268.545Z" fill="#515979"/>
</g>
</g>
<path d="M212.641 124.198H17.3585C9.56919 124.198 3.25471 130.513 3.25471 138.302V225.094C3.25471 232.884 9.56919 239.198 17.3585 239.198H212.641C220.431 239.198 226.745 232.884 226.745 225.094V138.302C226.745 130.513 220.431 124.198 212.641 124.198Z" fill="#ACC9DB"/>
<path d="M212.642 127.453C215.519 127.453 218.278 128.596 220.313 130.63C222.348 132.665 223.491 135.425 223.491 138.302V225.094C223.491 227.972 222.348 230.731 220.313 232.766C218.278 234.8 215.519 235.943 212.642 235.943H17.3585C14.4811 235.943 11.7216 234.8 9.68705 232.766C7.65246 230.731 6.50943 227.972 6.50943 225.094V138.302C6.50943 135.425 7.65246 132.665 9.68705 130.63C11.7216 128.596 14.4811 127.453 17.3585 127.453H212.642ZM212.642 120.943H17.3585C12.7547 120.943 8.33953 122.772 5.08418 126.028C1.82884 129.283 0 133.698 0 138.302V225.094C0 229.698 1.82884 234.113 5.08418 237.369C8.33953 240.624 12.7547 242.453 17.3585 242.453H212.642C217.245 242.453 221.66 240.624 224.916 237.369C228.171 234.113 230 229.698 230 225.094V138.302C230 133.698 228.171 129.283 224.916 126.028C221.66 122.772 217.245 120.943 212.642 120.943Z" fill="#515979"/>
<path d="M212.641 127.453H17.3585C14.4811 127.453 11.7216 128.596 9.68704 130.63C7.65245 132.665 6.50943 135.425 6.50943 138.302V142.642C6.50943 139.764 7.65245 137.005 9.68704 134.97C11.7216 132.935 14.4811 131.792 17.3585 131.792H212.641C215.519 131.792 218.278 132.935 220.313 134.97C222.348 137.005 223.491 139.764 223.491 142.642V138.302C223.491 135.425 222.348 132.665 220.313 130.63C218.278 128.596 215.519 127.453 212.641 127.453Z" fill="#C8DBE7"/>
<path d="M129.646 174.234C129.459 174.224 129.275 174.18 129.104 174.104C126.974 173.511 124.724 173.511 122.594 174.104C122.187 174.248 121.74 174.224 121.35 174.038C120.96 173.852 120.661 173.518 120.517 173.111C120.373 172.704 120.397 172.256 120.583 171.867C120.769 171.477 121.102 171.177 121.509 171.033C124.342 170.194 127.357 170.194 130.189 171.033C130.554 171.158 130.864 171.408 131.062 171.74C131.26 172.071 131.333 172.463 131.269 172.843C131.205 173.224 131.008 173.57 130.713 173.819C130.417 174.067 130.043 174.203 129.657 174.201L129.646 174.234Z" fill="#515979"/>
<path d="M125.849 171.836C129.444 171.836 132.358 168.922 132.358 165.327C132.358 161.732 129.444 158.818 125.849 158.818C122.254 158.818 119.34 161.732 119.34 165.327C119.34 168.922 122.254 171.836 125.849 171.836Z" fill="#515979"/>
<path d="M127.476 166.954C128.375 166.954 129.104 166.226 129.104 165.327C129.104 164.428 128.375 163.7 127.476 163.7C126.578 163.7 125.849 164.428 125.849 165.327C125.849 166.226 126.578 166.954 127.476 166.954Z" fill="white"/>
<path d="M107.948 174.234C107.761 174.224 107.577 174.18 107.406 174.104C105.276 173.511 103.026 173.511 100.896 174.104C100.489 174.248 100.041 174.224 99.6518 174.038C99.2622 173.852 98.9625 173.518 98.8186 173.111C98.6748 172.704 98.6985 172.256 98.8847 171.867C99.0709 171.477 99.4042 171.177 99.8113 171.033C102.643 170.194 105.658 170.194 108.491 171.033C108.856 171.158 109.166 171.408 109.364 171.74C109.561 172.071 109.635 172.463 109.571 172.843C109.507 173.224 109.31 173.57 109.015 173.819C108.719 174.067 108.345 174.203 107.959 174.201L107.948 174.234Z" fill="#515979"/>
<path d="M104.151 171.836C107.746 171.836 110.66 168.922 110.66 165.327C110.66 161.732 107.746 158.818 104.151 158.818C100.556 158.818 97.6415 161.732 97.6415 165.327C97.6415 168.922 100.556 171.836 104.151 171.836Z" fill="#515979"/>
<path d="M105.778 166.954C106.677 166.954 107.406 166.226 107.406 165.327C107.406 164.428 106.677 163.7 105.778 163.7C104.88 163.7 104.151 164.428 104.151 165.327C104.151 166.226 104.88 166.954 105.778 166.954Z" fill="white"/>
<path d="M122.952 150.377C123.987 149.96 125.091 149.739 126.207 149.726C127.308 149.708 128.406 149.858 129.462 150.171C130.583 150.504 131.632 151.045 132.554 151.766C133.506 152.496 134.253 153.46 134.724 154.565C134.916 155.021 134.92 155.535 134.735 155.994C134.55 156.453 134.191 156.821 133.736 157.016C133.301 157.19 132.816 157.19 132.38 157.016L131.968 156.865C131.154 156.583 130.547 156.268 129.863 156.029C129.18 155.791 128.55 155.519 127.845 155.302L125.675 154.641C124.877 154.45 124.091 154.211 123.321 153.924L122.887 153.751C122.436 153.564 122.077 153.205 121.89 152.753C121.703 152.302 121.702 151.794 121.889 151.342C122.102 150.892 122.484 150.545 122.952 150.377V150.377Z" fill="#515979"/>
<path d="M106.625 153.968C105.855 154.254 105.069 154.493 104.27 154.684L102.1 155.346C101.395 155.563 100.755 155.834 100.083 156.073C99.4099 156.311 98.7915 156.626 97.9778 156.908L97.5656 157.06C97.2232 157.183 96.8525 157.203 96.499 157.118C96.1454 157.032 95.8244 156.846 95.5755 156.581C95.3266 156.316 95.1605 155.984 95.0977 155.625C95.0349 155.267 95.0782 154.899 95.2222 154.565C95.6926 153.46 96.44 152.496 97.392 151.766C98.3135 151.045 99.3624 150.504 100.484 150.171C101.54 149.858 102.637 149.708 103.739 149.726C104.855 149.739 105.958 149.96 106.993 150.377C107.218 150.469 107.422 150.604 107.595 150.774C107.767 150.945 107.904 151.148 107.997 151.372C108.091 151.596 108.14 151.836 108.141 152.078C108.142 152.321 108.095 152.561 108.002 152.785C107.912 153.012 107.777 153.218 107.606 153.391C107.434 153.564 107.23 153.701 107.004 153.794L106.625 153.968Z" fill="#515979"/>
<g style="mix-blend-mode:overlay">
<g style="mix-blend-mode:overlay">
<path d="M145.377 176.556C146.576 176.556 147.547 175.584 147.547 174.386C147.547 173.188 146.576 172.216 145.377 172.216C144.179 172.216 143.208 173.188 143.208 174.386C143.208 175.584 144.179 176.556 145.377 176.556Z" fill="#515979"/>
</g>
</g>
<g style="mix-blend-mode:overlay">
<g style="mix-blend-mode:overlay">
<path d="M141.038 183.065C142.236 183.065 143.208 182.094 143.208 180.895C143.208 179.697 142.236 178.725 141.038 178.725C139.839 178.725 138.868 179.697 138.868 180.895C138.868 182.094 139.839 183.065 141.038 183.065Z" fill="#515979"/>
</g>
</g>
<g style="mix-blend-mode:overlay">
<g style="mix-blend-mode:overlay">
<path d="M149.717 183.065C150.915 183.065 151.887 182.094 151.887 180.895C151.887 179.697 150.915 178.725 149.717 178.725C148.519 178.725 147.547 179.697 147.547 180.895C147.547 182.094 148.519 183.065 149.717 183.065Z" fill="#515979"/>
</g>
</g>
<g style="mix-blend-mode:overlay">
<g style="mix-blend-mode:overlay">
<path d="M84.6226 176.556C85.821 176.556 86.7924 175.584 86.7924 174.386C86.7924 173.188 85.821 172.216 84.6226 172.216C83.4243 172.216 82.4528 173.188 82.4528 174.386C82.4528 175.584 83.4243 176.556 84.6226 176.556Z" fill="#515979"/>
</g>
</g>
<g style="mix-blend-mode:overlay">
<g style="mix-blend-mode:overlay">
<path d="M80.283 183.065C81.4814 183.065 82.4528 182.094 82.4528 180.895C82.4528 179.697 81.4814 178.725 80.283 178.725C79.0847 178.725 78.1132 179.697 78.1132 180.895C78.1132 182.094 79.0847 183.065 80.283 183.065Z" fill="#515979"/>
</g>
</g>
<g style="mix-blend-mode:overlay">
<g style="mix-blend-mode:overlay">
<path d="M88.9623 183.065C90.1606 183.065 91.1321 182.094 91.1321 180.895C91.1321 179.697 90.1606 178.725 88.9623 178.725C87.7639 178.725 86.7924 179.697 86.7924 180.895C86.7924 182.094 87.7639 183.065 88.9623 183.065Z" fill="#515979"/>
</g>
</g>
<path d="M115 196.084C110.972 196.084 107.108 194.484 104.26 191.635C101.412 188.787 99.8113 184.924 99.8113 180.895C99.8113 180.32 100.04 179.768 100.447 179.361C100.854 178.954 101.406 178.725 101.981 178.725H128.019C128.594 178.725 129.146 178.954 129.553 179.361C129.96 179.768 130.189 180.32 130.189 180.895C130.189 182.89 129.796 184.865 129.032 186.708C128.269 188.551 127.15 190.225 125.74 191.635C124.33 193.046 122.655 194.164 120.812 194.928C118.97 195.691 116.995 196.084 115 196.084Z" fill="#515979"/>
<path d="M128.019 180.895C128.019 184.348 126.647 187.66 124.206 190.101C121.764 192.543 118.453 193.914 115 193.914C111.547 193.914 108.236 192.543 105.794 190.101C103.353 187.66 101.981 184.348 101.981 180.895H128.019ZM128.019 176.556H101.981C100.83 176.556 99.7264 177.013 98.9125 177.827C98.0987 178.641 97.6415 179.744 97.6415 180.895C97.617 185.499 99.4224 189.924 102.66 193.197C105.899 196.469 110.304 198.322 114.908 198.346C119.512 198.37 123.936 196.565 127.209 193.327C130.482 190.089 132.334 185.683 132.358 181.08V180.895C132.358 179.744 131.901 178.641 131.087 177.827C130.274 177.013 129.17 176.556 128.019 176.556Z" fill="#515979"/>
<path d="M115 193.914C120.351 193.914 124.688 191.971 124.688 189.575C124.688 187.178 120.351 185.235 115 185.235C109.649 185.235 105.312 187.178 105.312 189.575C105.312 191.971 109.649 193.914 115 193.914Z" fill="#EF7D7D"/>
<path d="M30.3774 184.953H21.6981C18.7022 184.953 16.2736 187.381 16.2736 190.377V194.717C16.2736 197.713 18.7022 200.142 21.6981 200.142H30.3774C33.3732 200.142 35.8019 197.713 35.8019 194.717V190.377C35.8019 187.381 33.3732 184.953 30.3774 184.953Z" fill="#7DDF96"/>
<path d="M30.3773 188.208C30.9528 188.208 31.5047 188.436 31.9116 188.843C32.3186 189.25 32.5472 189.802 32.5472 190.377V194.717C32.5472 195.292 32.3186 195.844 31.9116 196.251C31.5047 196.658 30.9528 196.887 30.3773 196.887H21.6981C21.1226 196.887 20.5707 196.658 20.1638 196.251C19.7569 195.844 19.5283 195.292 19.5283 194.717V190.377C19.5283 189.802 19.7569 189.25 20.1638 188.843C20.5707 188.436 21.1226 188.208 21.6981 188.208H30.3773ZM30.3773 181.698H21.6981C19.3962 181.698 17.1886 182.613 15.561 184.24C13.9333 185.868 13.0189 188.075 13.0189 190.377V194.717C13.0189 197.019 13.9333 199.226 15.561 200.854C17.1886 202.482 19.3962 203.396 21.6981 203.396H30.3773C32.6792 203.396 34.8868 202.482 36.5145 200.854C38.1422 199.226 39.0566 197.019 39.0566 194.717V190.377C39.0566 188.075 38.1422 185.868 36.5145 184.24C34.8868 182.613 32.6792 181.698 30.3773 181.698Z" fill="#515979"/>
<path d="M30.3774 210.991H21.6981C18.7022 210.991 16.2736 213.419 16.2736 216.415V220.755C16.2736 223.751 18.7022 226.179 21.6981 226.179H30.3774C33.3732 226.179 35.8019 223.751 35.8019 220.755V216.415C35.8019 213.419 33.3732 210.991 30.3774 210.991Z" fill="#EF7D7D"/>
<path d="M30.3773 214.245C30.9528 214.245 31.5047 214.474 31.9116 214.881C32.3186 215.288 32.5472 215.84 32.5472 216.415V220.755C32.5472 221.33 32.3186 221.882 31.9116 222.289C31.5047 222.696 30.9528 222.925 30.3773 222.925H21.6981C21.1226 222.925 20.5707 222.696 20.1638 222.289C19.7569 221.882 19.5283 221.33 19.5283 220.755V216.415C19.5283 215.84 19.7569 215.288 20.1638 214.881C20.5707 214.474 21.1226 214.245 21.6981 214.245H30.3773ZM30.3773 207.736H21.6981C19.3962 207.736 17.1886 208.65 15.561 210.278C13.9333 211.906 13.0189 214.113 13.0189 216.415V220.755C13.0189 223.057 13.9333 225.264 15.561 226.892C17.1886 228.52 19.3962 229.434 21.6981 229.434H30.3773C32.6792 229.434 34.8868 228.52 36.5145 226.892C38.1422 225.264 39.0566 223.057 39.0566 220.755V216.415C39.0566 214.113 38.1422 211.906 36.5145 210.278C34.8868 208.65 32.6792 207.736 30.3773 207.736Z" fill="#515979"/>
</svg>
