<?xml version="1.0" encoding="utf-8"?>
<!-- Generator: Adobe Illustrator 25.0.0, SVG Export Plug-In . SVG Version: 6.00 Build 0)  -->
<svg version="1.1" id="Layer_1" xmlns="http://www.w3.org/2000/svg" xmlns:xlink="http://www.w3.org/1999/xlink" x="0px" y="0px"
	 viewBox="0 0 212.5 150" style="enable-background:new 0 0 212.5 150;" xml:space="preserve">
<style type="text/css">
	.st0{fill:#F4EAE6;}
	.st1{fill:#BECAF5;}
	.st2{fill:#3C58A0;}
	.st3{fill:#DEEEFF;}
	.st4{fill:#2A428C;}
	.st5{fill:#1C2E7A;}
	.st6{fill:#FF4155;}
	.st7{fill:#FFDD40;}
	.st8{fill:#88CE65;}
	.st9{fill:#6289CC;}
	.st10{fill:#4369FD;}
	.st11{fill:#B5A7A3;}
	.st12{fill:#748FA5;}
	.st13{fill:#6A8291;}
	.st14{fill:#70D6F9;}
	.st15{fill:#67CAE5;}
	.st16{fill:#35414D;}
	.st17{fill:#656D78;}
	.st18{fill:#F4F6F8;}
	.st19{fill:#E4E8EB;}
	.st20{fill:#B3A4EE;}
	.st21{fill:#AC92EA;}
	.st22{fill:#FBD277;}
	.st23{fill:#F76C82;}
	.st24{fill:#EB5463;}
	.st25{fill:#FDCD56;}
	.st26{fill:#434A54;}
	.st27{fill:#FFA733;}
	.st28{fill:#FF5A5A;}
	.st29{fill:#D6DF58;}
	.st30{fill:#F16C7A;}
	.st31{fill:#3A312A;}
	.st32{fill:#D7E057;}
	.st33{fill:#8AC6DD;}
	.st34{fill:#FDF6EC;stroke:#35414D;stroke-width:1.7391;stroke-miterlimit:10;}
</style>
<g>
	<g>
		<path class="st0" d="M101.3,146.3H9.7c-3.3,0-5.9-2.7-5.9-5.9V83.1c0-3.3,2.7-5.9,5.9-5.9h91.5c3.3,0,5.9,2.7,5.9,5.9v57.3
			C107.2,143.6,104.6,146.3,101.3,146.3z"/>
		<g>
			<path class="st1" d="M33.6,30.3c0,4.6-3.7,8.3-8.3,8.3h81.9v-8.3L33.6,30.3z"/>
			<path class="st2" d="M3.8,30.3v8.3h22c4.6,0,8.3-3.7,8.3-8.3L3.8,30.3z"/>
			<path class="st0" d="M107.2,38.1v80.7c-11.2,16.5-30.2,27.4-51.7,27.4c-3.1,0-6.1-0.2-9.1-0.7c-0.2,0-0.4-0.1-0.5-0.1
				c-17.5-2.7-32.5-12.6-42.1-26.6V38.1H107.2z"/>
			<path class="st3" d="M46.4,145.6c-0.2,0-0.4-0.1-0.5-0.1C46,145.5,46.2,145.6,46.4,145.6L46.4,145.6z"/>
			<path class="st4" d="M100.1,15.7H32.2c0,0-2.5,2.6,0,5l0.3,4.9c0,0-2.1,3.2,1.2,5.2h75.7v-6C109.4,19.8,105.2,15.7,100.1,15.7z"
				/>
			<path class="st5" d="M12,15.4c-5.2,0-9.5,4.2-9.5,9.3v6.1h31.7c-3.4-2.1-1.2-5.3-1.2-5.3l-0.3-5c-2.6-2.5,0-5.1,0-5.1L12,15.4
				L12,15.4z"/>
			<path class="st6" d="M17.9,23.2c0,1.6-1.3,2.9-2.9,2.9S12,24.9,12,23.2s1.3-2.9,2.9-2.9S17.9,21.6,17.9,23.2z"/>
			<path class="st7" d="M26,23.2c0,1.6-1.3,2.9-2.9,2.9s-2.9-1.3-2.9-2.9s1.3-2.9,2.9-2.9C24.7,20.3,26,21.6,26,23.2z"/>
			<path class="st8" d="M34.2,23.2c0,1.6-1.3,2.9-2.9,2.9s-2.9-1.3-2.9-2.9s1.3-2.9,2.9-2.9S34.2,21.6,34.2,23.2L34.2,23.2z"/>
			<path class="st2" d="M59.3,23.2c0-1.1,0.9-2,2-2H43.8c-1.1,0-2,0.9-2,2c0,1.1,0.9,2,2,2h17.5C60.2,25.2,59.3,24.3,59.3,23.2z"/>
			<path class="st9" d="M75.5,23.2c0-1.1-0.9-2-2-2H60.8c-1.1,0-2,0.9-2,2c0,1.1,0.9,2,2,2h12.8C74.6,25.2,75.5,24.3,75.5,23.2z"/>
			<g>
				<path class="st9" d="M97.2,25.2h-2.6c-1.1,0-2-0.9-2-2c0-1.1,0.9-2,2-2h2.6c1.1,0,2,0.9,2,2C99.2,24.3,98.3,25.2,97.2,25.2z"/>
			</g>
			<g>
				<path class="st2" d="M88.3,25.2h-2.6c-1.1,0-2-0.9-2-2c0-1.1,0.9-2,2-2h2.6c1.1,0,2,0.9,2,2C90.3,24.3,89.4,25.2,88.3,25.2z"/>
			</g>
			<g id="g9219_10_" transform="translate(244.6719,249.1592)">
				<path id="path9221_10_" class="st10" d="M-191.6-173.8c0,1-0.8,1.8-1.8,1.8c-1,0-1.8-0.8-1.8-1.8c0-1,0.8-1.8,1.8-1.8
					C-192.4-175.6-191.6-174.8-191.6-173.8"/>
			</g>
			<g id="g9223_10_" transform="translate(261.5937,249.1592)">
				<path id="path9225_10_" class="st11" d="M-203.1-173.8c0,1-0.8,1.8-1.8,1.8c-1,0-1.8-0.8-1.8-1.8c0-1,0.8-1.8,1.8-1.8
					C-203.9-175.6-203.1-174.8-203.1-173.8"/>
			</g>
			<g id="g9227_10_" transform="translate(278.5156,249.1592)">
				<path id="path9229_10_" class="st11" d="M-214.6-173.8c0,1-0.8,1.8-1.8,1.8c-1,0-1.8-0.8-1.8-1.8c0-1,0.8-1.8,1.8-1.8
					C-215.4-175.6-214.6-174.8-214.6-173.8"/>
			</g>
			<g>
				<g id="g9231_10_" transform="translate(199.4058,152.8955)">
					<path id="path9233_10_" class="st12" d="M-161.5-49.7h-20c-0.5,0-1-0.4-1-1v-14.2c0-0.5,0.4-1,1-1h20c0.5,0,1,0.4,1,1v14.2
						C-160.6-50.1-161-49.7-161.5-49.7"/>
				</g>
				<g id="g9235_10_" transform="translate(188.9829,152.8975)">
					<path id="path9237_10_" class="st13" d="M-154.4-49.7h-7.7v-9.4c0-0.5,0.4-1,1-1h5.7c0.5,0,1,0.4,1,1V-49.7z"/>
				</g>
				<g id="g9239_10_" transform="translate(185.4336,127.335)">
					<path id="path9241_10_" class="st11" d="M-152-16h-11.1c-0.9,0-1.6-0.7-1.6-1.6c0-0.9,0.7-1.6,1.6-1.6h11.1
						c0.9,0,1.6,0.7,1.6,1.6C-150.4-16.7-151.1-16-152-16"/>
				</g>
				<g id="g9251_10_" transform="translate(286.1025,152.8955)">
					<path id="path9253_10_" class="st12" d="M-220.6-49.7h-20c-0.5,0-1-0.4-1-1v-14.2c0-0.5,0.4-1,1-1h20c0.5,0,1,0.4,1,1v14.2
						C-219.6-50.1-220.1-49.7-220.6-49.7"/>
				</g>
				<g id="g9255_10_" transform="translate(275.6797,152.8975)">
					<path id="path9257_10_" class="st13" d="M-213.5-49.7h-7.7v-9.4c0-0.5,0.4-1,1-1h5.7c0.5,0,1,0.4,1,1V-49.7z"/>
				</g>
				<g id="g9259_10_" transform="translate(272.1304,127.335)">
					<path id="path9261_10_" class="st11" d="M-211.1-16h-11.1c-0.9,0-1.6-0.7-1.6-1.6c0-0.9,0.7-1.6,1.6-1.6h11.1
						c0.9,0,1.6,0.7,1.6,1.6C-209.5-16.7-210.2-16-211.1-16"/>
				</g>
				<g id="g9271_10_" transform="translate(372.7988,152.8955)">
					<path id="path9273_10_" class="st12" d="M-279.6-49.7h-20c-0.5,0-1-0.4-1-1v-14.2c0-0.5,0.4-1,1-1h20c0.5,0,1,0.4,1,1v14.2
						C-278.7-50.1-279.1-49.7-279.6-49.7"/>
				</g>
				<g id="g9275_10_" transform="translate(362.3765,152.8975)">
					<path id="path9277_10_" class="st13" d="M-272.5-49.7h-7.7v-9.4c0-0.5,0.4-1,1-1h5.7c0.5,0,1,0.4,1,1V-49.7z"/>
				</g>
				<g id="g9279_10_" transform="translate(358.8271,127.335)">
					<path id="path9281_10_" class="st11" d="M-270.1-16h-11.1c-0.9,0-1.6-0.7-1.6-1.6c0-0.9,0.7-1.6,1.6-1.6h11.1
						c0.9,0,1.6,0.7,1.6,1.6C-268.5-16.7-269.2-16-270.1-16"/>
				</g>
			</g>
			<g>
				<g id="g9243_10_" transform="translate(199.9019,91.3535)">
					<path id="path9245_10_" class="st12" d="M-159.9,31.7h-16.9c-0.8,0-1.4-0.6-1.4-1.4c0-0.8,0.6-1.4,1.4-1.4h16.9
						c0.8,0,1.4,0.6,1.4,1.4C-158.5,31.1-159.1,31.7-159.9,31.7"/>
				</g>
				<g id="g9247_10_" transform="translate(199.9019,71.8398)">
					<path id="path9249_10_" class="st12" d="M-159.9,56.6h-16.9c-0.8,0-1.4-0.6-1.4-1.4c0-0.8,0.6-1.4,1.4-1.4h16.9
						c0.8,0,1.4,0.6,1.4,1.4C-158.5,56-159.1,56.6-159.9,56.6"/>
				</g>
				<g id="g9263_10_" transform="translate(286.5986,91.3535)">
					<path id="path9265_10_" class="st12" d="M-222.6,31.7h-16.9c-0.8,0-1.4-0.6-1.4-1.4c0-0.8,0.6-1.4,1.4-1.4h16.9
						c0.8,0,1.4,0.6,1.4,1.4C-221.2,31.1-221.8,31.7-222.6,31.7"/>
				</g>
				<g id="g9267_10_" transform="translate(286.5986,71.8398)">
					<path id="path9269_10_" class="st12" d="M-222.6,56.6h-16.9c-0.8,0-1.4-0.6-1.4-1.4c0-0.8,0.6-1.4,1.4-1.4h16.9
						c0.8,0,1.4,0.6,1.4,1.4C-221.2,56-221.8,56.6-222.6,56.6"/>
				</g>
				<g id="g9283_10_" transform="translate(373.2954,91.3535)">
					<path id="path9285_10_" class="st12" d="M-285.3,31.7h-16.9c-0.8,0-1.4-0.6-1.4-1.4c0-0.8,0.6-1.4,1.4-1.4h16.9
						c0.8,0,1.4,0.6,1.4,1.4C-283.9,31.1-284.5,31.7-285.3,31.7"/>
				</g>
				<g id="g9287_10_" transform="translate(373.2954,71.8398)">
					<path id="path9289_10_" class="st12" d="M-285.3,56.6h-16.9c-0.8,0-1.4-0.6-1.4-1.4c0-0.8,0.6-1.4,1.4-1.4h16.9
						c0.8,0,1.4,0.6,1.4,1.4C-283.9,56-284.5,56.6-285.3,56.6"/>
				</g>
			</g>
			<rect x="16.9" y="115.8" class="st2" width="77.2" height="0.2"/>
			<g>
				<path class="st14" d="M10.7,41.8h89.6V82H10.7L10.7,41.8z"/>
				<path class="st15" d="M100.3,41.8V82H10.7v-8.6h57c14.1,0,25.5-13.7,25.5-30.7v-0.9L100.3,41.8z"/>
			</g>
		</g>
		<path class="st16" d="M95,15.9c6.7,0,12.1,5.4,12.1,12.1V134c0,6.7-5.4,12.1-12.1,12.1H16c-6.7,0-12.1-5.4-12.1-12.1V27.9
			c0-6.7,5.4-12.1,12.1-12.1H95 M95,12H16c-8.8,0-16,7.2-16,16V134c0,8.8,7.2,16,16,16h79c8.8,0,16-7.2,16-16V27.9
			C111,19.1,103.8,12,95,12L95,12z"/>
	</g>
	<g>
		<polygon class="st17" points="208.9,16.6 208.4,16.6 208.4,29.1 89,29.1 89,15.2 87.4,13.3 88.2,5.5 92,2.9 99.7,4.2 195.9,4.2 
			195.9,2.9 208.4,4.2 		"/>
		<path class="st18" d="M208.3,29.1v103.2c0,7.2-4.8,13-10.7,13H99.8c-7.7,2.6-14.7,0-10.8-13l0,0V29.1L208.3,29.1z"/>
		<path class="st19" d="M208.3,29.1v103.2c0.5,6.9,4,15.4-10.7,13H99.8c-13,1.6-13-4.9-11.6-10c0.8,0.2,2.7,0.3,3.5,0.3h12.2
			c50.1,0,91.8-46.3,96-106.5L208.3,29.1z"/>
		<path class="st20" d="M98.9,94.3h29v23.4h-29V94.3z"/>
		<path class="st21" d="M127.9,94.3v23.4h-29v-7.3h3.6c8.4,0,15.8-6.5,18.4-16.1L127.9,94.3z"/>
		<path class="st22" d="M134.2,94.3h29v23.4h-29V94.3z"/>
		<g>
			<path class="st23" d="M98.9,40.2h99.5v44.7H98.9L98.9,40.2z"/>
			<path class="st24" d="M198.4,40.2v44.6H98.9v-9.5h63.3c15.6,0,28.3-15.2,28.3-34.1v-1L198.4,40.2z"/>
		</g>
		<path class="st14" d="M169.4,94.3h29v23.4h-29V94.3z"/>
		<path class="st15" d="M198.4,94.3v23.4h-29v-7.3h3.6c8.4,0,15.8-6.5,18.4-16.1L198.4,94.3z"/>
		<path class="st25" d="M163.2,94.3v23.4h-29v-7.3h3.6c8.4,0,15.8-6.5,18.4-16.1L163.2,94.3z"/>
		<g>
			<path class="st26" d="M127.9,128.5h-18.6c-0.7,0-1.3-0.7-1.3-1.5s0.6-1.5,1.3-1.5h18.6c0.7,0,1.3,0.7,1.3,1.5
				S128.6,128.5,127.9,128.5z"/>
			<path class="st27" d="M104.3,128.5h-5.4c-0.7,0-1.3-0.7-1.3-1.5s0.6-1.5,1.3-1.5h5.4c0.7,0,1.3,0.7,1.3,1.5
				S105,128.5,104.3,128.5z"/>
			<path class="st26" d="M127.9,138h-29c-0.7,0-1.3-0.7-1.3-1.5s0.6-1.5,1.3-1.5h29c0.7,0,1.3,0.7,1.3,1.5S128.6,138,127.9,138z"/>
			<path class="st26" d="M163.2,128.5h-18.6c-0.7,0-1.3-0.7-1.3-1.5s0.6-1.5,1.3-1.5h18.6c0.7,0,1.3,0.7,1.3,1.5
				S163.9,128.5,163.2,128.5z"/>
			<path class="st28" d="M139.6,128.5h-5.4c-0.7,0-1.3-0.7-1.3-1.5s0.6-1.5,1.3-1.5h5.4c0.7,0,1.3,0.7,1.3,1.5
				S140.3,128.5,139.6,128.5z"/>
			<path class="st26" d="M163.2,138h-29c-0.7,0-1.3-0.7-1.3-1.5s0.6-1.5,1.3-1.5h29c0.7,0,1.3,0.7,1.3,1.5S163.9,138,163.2,138z"/>
			<path class="st26" d="M198.4,128.5h-18.6c-0.7,0-1.3-0.7-1.3-1.5s0.6-1.5,1.3-1.5h18.6c0.7,0,1.3,0.7,1.3,1.5
				S199.1,128.5,198.4,128.5z"/>
			<path class="st29" d="M174.8,128.5h-5.4c-0.7,0-1.3-0.7-1.3-1.5s0.6-1.5,1.3-1.5h5.4c0.7,0,1.3,0.7,1.3,1.5
				S175.5,128.5,174.8,128.5z"/>
			<path class="st26" d="M198.4,138h-29c-0.7,0-1.3-0.7-1.3-1.5s0.6-1.5,1.3-1.5h29c0.7,0,1.3,0.7,1.3,1.5S199.1,138,198.4,138z"/>
		</g>
		<g>
			<g>
				<circle class="st30" cx="104.2" cy="16.6" r="4.3"/>
				<path class="st31" d="M104.2,21.9c-2.9,0-5.3-2.4-5.3-5.3s2.4-5.3,5.3-5.3c2.9,0,5.3,2.4,5.3,5.3S107.1,21.9,104.2,21.9z
					 M104.2,13.3c-1.8,0-3.3,1.5-3.3,3.3s1.5,3.3,3.3,3.3c1.8,0,3.3-1.5,3.3-3.3C107.5,14.8,106,13.3,104.2,13.3z"/>
			</g>
			<g>
				<circle class="st32" cx="117.6" cy="16.6" r="4.3"/>
				<path class="st31" d="M117.6,21.9c-2.9,0-5.3-2.4-5.3-5.3s2.4-5.3,5.3-5.3c2.9,0,5.3,2.4,5.3,5.3S120.5,21.9,117.6,21.9z
					 M117.6,13.3c-1.8,0-3.3,1.5-3.3,3.3s1.5,3.3,3.3,3.3s3.3-1.5,3.3-3.3C120.9,14.8,119.4,13.3,117.6,13.3z"/>
			</g>
			<g>
				<circle class="st33" cx="130.9" cy="16.6" r="4.3"/>
				<path class="st31" d="M130.9,21.9c-2.9,0-5.3-2.4-5.3-5.3s2.4-5.3,5.3-5.3s5.3,2.4,5.3,5.3S133.8,21.9,130.9,21.9z M130.9,13.3
					c-1.8,0-3.3,1.5-3.3,3.3s1.5,3.3,3.3,3.3s3.3-1.5,3.3-3.3C134.3,14.8,132.8,13.3,130.9,13.3z"/>
			</g>
			<path class="st34" d="M194.8,20.3h-41c-2,0-3.6-1.6-3.6-3.6v0c0-2,1.6-3.6,3.6-3.6h41c2,0,3.6,1.6,3.6,3.6v0
				C198.4,18.6,196.8,20.3,194.8,20.3z"/>
		</g>
		<path class="st16" d="M198.4,4.2c5.5,0,9.9,4.4,9.9,9.9v121.4c0,5.5-4.4,9.9-9.9,9.9H98.9c-5.5,0-9.9-4.4-9.9-9.9V14.1
			c0-5.5,4.4-9.9,9.9-9.9H198.4 M198.4,0H98.9c-7.8,0-14.1,6.3-14.1,14.1v121.4c0,7.8,6.3,14.1,14.1,14.1h99.5
			c7.8,0,14.1-6.3,14.1-14.1V14.1C212.5,6.3,206.2,0,198.4,0L198.4,0z"/>
	</g>
</g>
</svg>
