<?xml version="1.0" encoding="utf-8"?>
<!-- Generator: Adobe Illustrator 25.0.0, SVG Export Plug-In . SVG Version: 6.00 Build 0)  -->
<svg version="1.1" id="Layer_1" xmlns="http://www.w3.org/2000/svg" xmlns:xlink="http://www.w3.org/1999/xlink" x="0px" y="0px"
	 viewBox="0 0 416.5 430" style="enable-background:new 0 0 416.5 430;" xml:space="preserve">
<style type="text/css">
	.st0{fill:#E9B48A;}
	.st1{fill:#CD9976;}
	.st2{fill:#35414D;}
	.st3{fill-rule:evenodd;clip-rule:evenodd;fill:#7DDF96;}
	.st4{fill:#0D9353;}
	.st5{fill-rule:evenodd;clip-rule:evenodd;fill:#0D9353;}
</style>
<g>
	<g>
		<g>
			<g>
				<path class="st0" d="M300.5,180.5l-67,103.6l-52-109.3c-5.8-12.3-14.7-22.8-25.8-30.7l-7.8-4.9L192,269.7
					c3.2,9.4,3.8,19.5,1.7,29.3l-27.2,125.3h109.7l-21.8-103.7c-1.7-7.9-1-16.2,1.8-23.8L300.5,180.5z"/>
			</g>
			<g>
				<path class="st1" d="M256.1,296.9l44.4-116.4l-48.3,74.6L239,290.4c-4.1,10.8-5,22.6-2.6,33.9l14.1,66.9
					c1.6,7.6-4.2,14.7-11.9,14.7h-68.2l-4,18.3h109.7l-21.8-103.7C252.6,312.7,253.3,304.5,256.1,296.9z"/>
			</g>
		</g>
		<g>
			<g>
				<path class="st2" d="M300.4,398.5h-29.4c-2.6,0-4.7-2.1-4.7-4.7s2.1-4.7,4.7-4.7h29.4c2.6,0,4.7,2.1,4.7,4.7
					S303,398.5,300.4,398.5z"/>
			</g>
			<g>
				<path class="st2" d="M318.8,430h-195c-3.1,0-5.7-2.6-5.7-5.7s2.6-5.7,5.7-5.7h195c3.2,0,5.7,2.6,5.7,5.7S322,430,318.8,430z"/>
			</g>
			<g>
				<path class="st2" d="M166.4,430c-0.4,0-0.8,0-1.2-0.1c-3.1-0.7-5-3.7-4.4-6.8l27.2-125.3c1.9-8.7,1.4-17.8-1.5-26.2l-44.2-130.4
					c-1-3,0.6-6.2,3.6-7.2c3-1,6.2,0.6,7.2,3.6l44.2,130.4c3.5,10.4,4.2,21.6,1.8,32.3L172,425.5C171.4,428.2,169.1,430,166.4,430z"
					/>
			</g>
			<g>
				<path class="st2" d="M221.3,264.2c-2.1,0-4.2-1.2-5.2-3.3l-39.9-83.7c-5.4-11.4-13.7-21.2-24-28.5L65.6,87.6
					c-2.6-1.8-3.2-5.4-1.4-7.9c1.8-2.6,5.4-3.2,7.9-1.4l86.7,61.2c11.9,8.4,21.5,19.8,27.7,32.9l39.8,83.7c1.4,2.8,0.1,6.2-2.7,7.6
					C222.9,264,222.1,264.2,221.3,264.2z"/>
			</g>
			<g>
				<path class="st2" d="M233.5,289.8c-1.1,0-2.1-0.3-3.1-0.9c-2.6-1.7-3.4-5.2-1.7-7.9l65.7-101.5l-11.2-44.8l-35.5-35.5
					c-2.2-2.2-2.2-5.8,0-8.1c2.2-2.2,5.8-2.2,8.1,0l36.6,36.6c0.7,0.7,1.2,1.6,1.5,2.6l12.2,48.8c0.4,1.5,0.1,3.2-0.7,4.5l-67,103.6
					C237.2,288.9,235.3,289.8,233.5,289.8z"/>
			</g>
			<g>
				<path class="st2" d="M276.1,430c-2.6,0-5-1.8-5.6-4.5l-21.8-103.7c-1.9-9-1.2-18.3,2-26.9L283,209c1-2.7,3.9-4.2,6.7-3.5
					l49.9,12.2c1.4,0.3,2.5,1.2,3.3,2.3l29.4,42.6c1.8,2.6,1.1,6.1-1.5,7.9c-2.6,1.8-6.1,1.1-7.9-1.5l-28.1-40.8l-42.8-10.5
					l-30.4,81.2c-2.5,6.6-3,13.7-1.6,20.6l21.8,103.7c0.6,3.1-1.3,6.1-4.4,6.8C276.9,430,276.5,430,276.1,430z"/>
			</g>
			<g>
				<path class="st2" d="M300.5,186.2c-1.7,0-3.4-0.8-4.5-2.2c-1.9-2.5-1.5-6.1,1-8l54.9-42.7c2.5-1.9,6.1-1.5,8,1
					c1.9,2.5,1.5,6.1-1,8L304,185C303,185.8,301.8,186.2,300.5,186.2z"/>
			</g>
			<g>
				<path class="st2" d="M50.6,155.7c-1.9,0-3.8-1-4.9-2.8c-1.6-2.7-0.7-6.2,2-7.8l61-36.6c2.7-1.6,6.2-0.7,7.8,2
					c1.6,2.7,0.7,6.2-2,7.8l-61,36.6C52.6,155.5,51.6,155.7,50.6,155.7z"/>
			</g>
			<g>
				<path class="st2" d="M129.8,131.3c-2.8,0-5.2-2-5.6-4.8L112,47.3c-0.5-3.1,1.7-6,4.8-6.5c3.1-0.5,6,1.7,6.5,4.8l12.2,79.2
					c0.5,3.1-1.7,6-4.8,6.5C130.4,131.3,130.1,131.3,129.8,131.3z"/>
			</g>
			<g>
				<path class="st2" d="M129.9,100.9c-1.5,0-2.9-0.6-4-1.7c-2.2-2.2-2.2-5.8,0-8.1l18.3-18.3c2.2-2.2,5.8-2.2,8.1,0
					c2.2,2.2,2.2,5.8,0,8.1l-18.3,18.3C132.8,100.3,131.3,100.9,129.9,100.9z"/>
			</g>
			<g>
				<path class="st2" d="M203,216.7c-1,0-2.1-0.3-3.1-0.9c-2.7-1.7-3.4-5.2-1.7-7.9l42.7-67c1.7-2.7,5.2-3.4,7.9-1.7
					c2.7,1.7,3.4,5.2,1.7,7.9l-42.7,67C206.7,215.7,204.9,216.7,203,216.7z"/>
			</g>
			<g>
				<path class="st2" d="M224,180.7c-2.4,0-4.7-1.6-5.5-4.1l-14.9-49.4c-0.9-3,0.8-6.2,3.8-7.1c3-0.9,6.2,0.8,7.1,3.8l14.9,49.4
					c0.9,3-0.8,6.2-3.8,7.1C225.1,180.7,224.6,180.7,224,180.7z"/>
			</g>
			<g>
				<path class="st2" d="M182.5,248.9c-0.9,0-1.7-0.2-2.5-0.6l-64.8-32.2c-2.8-1.4-4-4.8-2.6-7.6c1.4-2.8,4.8-4,7.6-2.6l64.8,32.2
					c2.8,1.4,4,4.8,2.6,7.6C186.6,247.8,184.6,248.9,182.5,248.9z"/>
			</g>
			<g>
				<path class="st2" d="M105.5,253.2c-2.3,0-4.4-1.4-5.3-3.6c-1.2-2.9,0.2-6.2,3.2-7.4l46.9-18.9c2.9-1.2,6.2,0.2,7.4,3.2
					c1.2,2.9-0.2,6.2-3.2,7.4l-46.9,18.9C106.9,253.1,106.2,253.2,105.5,253.2z"/>
			</g>
			<g>
				<path class="st2" d="M193.4,430c-0.4,0-0.8,0-1.2-0.1c-3.1-0.7-5-3.7-4.4-6.8l23.8-111.3c0.7-3.1,3.7-5,6.8-4.4
					c3.1,0.7,5,3.7,4.4,6.8L199,425.5C198.4,428.2,196.1,430,193.4,430z"/>
			</g>
			<g>
				<path class="st2" d="M243,399.5c-2.7,0-5.1-1.9-5.6-4.6l-5.8-29.3c-0.6-3.1,1.4-6.1,4.5-6.7c3.1-0.6,6.1,1.4,6.7,4.5l5.8,29.3
					c0.6,3.1-1.4,6.1-4.5,6.7C243.8,399.5,243.4,399.5,243,399.5z"/>
			</g>
			<g>
				<path class="st2" d="M312.7,222.8c-1.8,0-3.5-0.8-4.6-2.4c-1.8-2.6-1.2-6.1,1.3-8l42.7-30.5c2.6-1.8,6.1-1.2,8,1.3
					c1.8,2.6,1.2,6.1-1.3,8L316,221.7C315,222.4,313.9,222.8,312.7,222.8z"/>
			</g>
			<g>
				<path class="st2" d="M271.7,117.2c-1,0-2-0.3-2.9-0.8c-2.7-1.6-3.6-5.1-2.1-7.8l16.6-28.5c1.6-2.7,5.1-3.6,7.8-2.1
					c2.7,1.6,3.6,5.1,2.1,7.8l-16.6,28.5C275.6,116.2,273.6,117.2,271.7,117.2z"/>
			</g>
			<g>
				<path class="st2" d="M337.1,271.5c-1.2,0-2.5-0.4-3.5-1.2c-2.5-2-2.9-5.5-0.9-8l15.8-20c2-2.5,5.5-2.9,8-0.9
					c2.5,2,2.9,5.5,0.9,8l-15.8,20C340.4,270.8,338.8,271.5,337.1,271.5z"/>
			</g>
		</g>
	</g>
	<g>
		<g id="_409268072_34_">
			<path class="st3" d="M64.3,296.2c-1.6,4.5-3.2,10-4,14.8c-0.1,0.6,0.3,1.1,0.9,1.3l36.4,13.2c1.9,0.7,1.9-2,2.4-4.2
				c2.3-9.7,6.3-19.4,11.2-28.7c6.1-11.7,12.2-26.5,16.2-39.9c0.2-0.6-0.2-1.2-0.8-1.5l-36.5-13.2c-0.7-0.3-1.4,0.1-1.6,0.7
				c-4.1,13.6-10.2,28.5-16.6,40.8C68.7,285.4,66.2,291,64.3,296.2L64.3,296.2z"/>
		</g>
		<g id="_409267760_68_">
			<path class="st4" d="M121.4,265.1c-3.4,9.4-7.6,19.2-11.4,26.9c-2.6,5.1-5.1,11-7.1,16.5c-1.8,4.9-3.8,11.4-4.5,16.7l-35.9-13
				c0.3-2.3,1.2-8.2,4.4-17.1c1.8-5,4.1-10.4,6.9-15.8c3.9-7.8,8.1-17.8,11.5-27.2c1.8-5.1,3.4-9.8,4.5-13.9l36,13
				C124.7,255.3,123.2,260,121.4,265.1 M123.8,266c2-5.6,3.8-11,4.9-15.4c0.1-0.5-0.1-1.1-0.6-1.2l-39-14.1
				c-0.5-0.2-1.1,0.1-1.3,0.6c0,0,0,0.1,0,0.1c-1.2,4.4-2.8,9.7-4.9,15.3c-3.3,9-7.4,18.8-11.4,26.9c-2.8,5.5-5.1,10.9-7,16.1h0
				c-4.4,12.2-4.6,18.8-4.7,19.1c0,0.5,0.3,0.9,0.7,1l39,14.1c0.6,0.2,1.1-0.1,1.3-0.6c0-0.1,0.1-0.2,0.1-0.3
				c0.1-4.4,1.9-11.1,4.5-18c2-5.5,4.5-11.3,6.9-16.2C116.3,285.1,120.5,275.2,123.8,266L123.8,266z M64.4,294.3
				C64.4,294.3,64.4,294.3,64.4,294.3L64.4,294.3L64.4,294.3z"/>
		</g>
		<g id="_409267760_67_">
			<path class="st2" d="M123.7,264.5c-3.6,9.9-8,20.2-12.1,28.3c-2.7,5.4-5.4,11.5-7.5,17.4c-1.9,5.1-4,12.1-4.6,17.6l-39.6-14.3
				c0.2-2.4,1.1-8.6,4.6-18.1c1.9-5.3,4.4-10.9,7.3-16.6c4.2-8.3,8.7-18.7,12.2-28.6c1.9-5.3,3.5-10.4,4.7-14.6l39.8,14.4
				C127.3,254.2,125.7,259.1,123.7,264.5 M126.4,265.5c2.2-5.9,3.9-11.6,5.1-16.3c0.1-0.6-0.2-1.1-0.7-1.3l-43-15.5
				c-0.6-0.2-1.2,0.1-1.5,0.7c0,0,0,0.1,0,0.1c-1.2,4.7-3,10.3-5.1,16.2c-3.4,9.5-7.8,19.8-12.1,28.3c-3,5.8-5.4,11.5-7.4,16.9h0
				c-4.6,12.8-4.8,19.8-4.8,20.1c0,0.5,0.3,0.9,0.8,1.1l43,15.5c0.6,0.2,1.3-0.1,1.5-0.7c0-0.1,0.1-0.2,0.1-0.3
				c0.1-4.6,1.9-11.7,4.6-19c2.1-5.8,4.7-11.9,7.4-17.1C118.5,285.6,122.9,275.1,126.4,265.5L126.4,265.5z M61.7,294.5
				C61.7,294.5,61.7,294.5,61.7,294.5L61.7,294.5L61.7,294.5z"/>
		</g>
		<g>
			<g id="_409267496_34_">
				<path class="st5" d="M123.9,258.3c0.7-2.1,1.4-4.1,2-6.2c0.1-0.5-0.1-1-0.6-1.2l-6-2.2C117.8,253.6,121.5,257.6,123.9,258.3
					L123.9,258.3z"/>
			</g>
			<g id="_409268120_34_">
				<path class="st5" d="M96,240.4l-6.1-2.2c-0.5-0.2-1.1,0.1-1.3,0.6c-0.6,2-1.3,4.1-2,6.1C89,245.8,94.1,244.8,96,240.4L96,240.4z
					"/>
			</g>
			<g id="_409267040_34_">
				<path class="st5" d="M63,305.6c-0.6,2-1.1,4.1-1.4,6c-0.1,0.4,0.2,0.9,0.6,1l5.7,2.1C68.7,312.4,67.8,307,63,305.6L63,305.6z"/>
			</g>
			<g id="_409266752_34_">
				<path class="st5" d="M91.6,323.2l5.9,2.1c1.4,0.5,1.5-1.7,1.9-3.5c0.3-1.1,0.6-2.1,0.9-3.2C96.7,317.9,93.1,319.8,91.6,323.2
					L91.6,323.2z"/>
			</g>
		</g>
		<g id="_409266968_34_">
			<path class="st5" d="M76.3,275.1c-3.4,9.5,1.5,19.9,10.9,23.3s19.9-1.5,23.3-11c3.4-9.5-1.5-19.9-10.9-23.3
				C90.2,260.8,79.7,265.7,76.3,275.1L76.3,275.1z"/>
		</g>
		<g>
			
				<ellipse transform="matrix(0.3401 -0.9404 0.9404 0.3401 -233.8048 281.3956)" class="st4" cx="83.6" cy="307.3" rx="4.4" ry="4.4"/>
		</g>
		<g>
			
				<ellipse transform="matrix(0.3401 -0.9404 0.9404 0.3401 -172.0392 264.6488)" class="st4" cx="102.6" cy="254.9" rx="4.4" ry="4.4"/>
		</g>
		<g>
			<g id="_409266824_34_">
				<path class="st3" d="M85.6,278.3c1.6-4.2,7.7-3.6,6.8-1.3c-0.2,0.6-0.9,0.9-1.5,0.6c-3.1-1.2-4.9,3.5-1.8,4.7
					c4,1.6,3.4-6.5,9.5-4.2c5.9,2.3,2.4,11.2-3.5,8.9c-1.4-0.5-0.6-2.6,0.8-2.1c3.1,1.2,4.9-3.5,1.8-4.7c-4-1.6-3.4,6.5-9.5,4.2
					C85.8,283.5,84.6,280.7,85.6,278.3L85.6,278.3z"/>
			</g>
			<g id="_409267328_34_">
				<path class="st3" d="M99.2,283.6c0.5-1.3,2.1-0.4,3.3,0.1c1.4,0.5,0.6,2.6-0.8,2.1C100.4,285.3,98.7,284.9,99.2,283.6z"/>
			</g>
			<g id="_409266872_34_">
				<path class="st3" d="M83.8,277.6c0.5-1.3,2.1-0.4,3.3,0.1c1.4,0.5,0.6,2.6-0.8,2.1C85,279.3,83.2,278.9,83.8,277.6z"/>
			</g>
		</g>
	</g>
	<g>
		<g id="_409268072_33_">
			<path class="st3" d="M207.9,153.5c2,4.3,4.7,9.4,7.5,13.4c0.3,0.5,1,0.6,1.6,0.3l35.3-16c1.9-0.8-0.1-2.7-1.2-4.7
				c-5.1-8.5-9-18.3-12-28.4c-3.8-12.6-9.8-27.5-16.2-39.9c-0.3-0.5-1-0.7-1.6-0.5l-35.4,16c-0.7,0.3-1,1-0.7,1.6
				c6.6,12.6,12.6,27.5,16.6,40.8C203.5,142.7,205.6,148.4,207.9,153.5L207.9,153.5z"/>
		</g>
		<g id="_409267760_66_">
			<path class="st4" d="M227.1,91.4c4.1,9.1,8,19,10.6,27.3c1.7,5.4,4,11.4,6.4,16.8c2.1,4.7,5.2,10.9,8.5,15.1l-34.8,15.7
				c-1.4-1.8-4.9-6.7-8.8-15.4c-2.2-4.9-4.3-10.3-6.1-16.1c-2.7-8.4-6.5-18.4-10.7-27.5c-2.2-4.9-4.4-9.4-6.5-13.1l34.9-15.8
				C222.7,82,224.9,86.5,227.1,91.4 M229.5,90.3c-2.5-5.5-5-10.5-7.2-14.5c-0.3-0.5-0.8-0.7-1.3-0.4l-37.7,17.1
				c-0.5,0.2-0.7,0.9-0.5,1.4c0,0,0,0.1,0,0.1c2.3,4,4.7,9,7.2,14.4c4,8.8,7.8,18.6,10.6,27.2c1.9,5.9,4,11.4,6.2,16.4l0,0
				c5.3,11.8,9.8,16.7,10,16.9c0.3,0.3,0.8,0.4,1.2,0.3l37.7-17.1c0.5-0.2,0.7-0.9,0.5-1.4c0-0.1-0.1-0.2-0.2-0.3
				c-3-3.2-6.3-9.3-9.4-16c-2.4-5.4-4.7-11.2-6.3-16.5C237.4,109.3,233.5,99.2,229.5,90.3L229.5,90.3z M206.7,152
				C206.7,152,206.7,152,206.7,152L206.7,152L206.7,152z"/>
		</g>
		<g id="_409267760_65_">
			<path class="st2" d="M228.4,89.3c4.3,9.6,8.4,20,11.1,28.8c1.8,5.7,4.2,12,6.7,17.7c2.2,5,5.5,11.5,9,15.9L216.8,169
				c-1.5-1.9-5.2-7-9.3-16.1c-2.3-5.1-4.5-10.9-6.4-17c-2.8-8.8-6.8-19.4-11.2-29c-2.3-5.2-4.7-9.9-6.8-13.8l38.5-17.4
				C223.7,79.4,226,84.1,228.4,89.3 M231,88.1c-2.6-5.8-5.3-11-7.7-15.2c-0.3-0.5-0.9-0.7-1.5-0.4l-41.6,18.8
				c-0.6,0.3-0.8,0.9-0.6,1.5c0,0,0,0.1,0,0.1c2.4,4.2,5,9.4,7.6,15.1c4.2,9.2,8.2,19.7,11.1,28.7c1.9,6.2,4.1,12,6.5,17.3l0,0
				c5.6,12.4,10.4,17.6,10.6,17.8c0.3,0.3,0.9,0.4,1.3,0.2l41.6-18.8c0.6-0.3,0.8-0.9,0.6-1.5c0-0.1-0.1-0.2-0.2-0.3
				c-3.2-3.4-6.8-9.7-10-16.9c-2.6-5.7-4.9-11.8-6.6-17.4C239.4,108.1,235.2,97.5,231,88.1L231,88.1z M204.9,154
				C204.9,154,204.9,154,204.9,154L204.9,154L204.9,154z"/>
		</g>
		<g>
			<g id="_409267496_33_">
				<path class="st5" d="M224.2,84.7c-0.9-2-1.9-3.9-2.9-5.8c-0.2-0.5-0.8-0.6-1.2-0.4l-5.8,2.6C216.5,85.6,222,85.9,224.2,84.7
					L224.2,84.7z"/>
			</g>
			<g id="_409268120_33_">
				<path class="st5" d="M191.7,91.4l-5.9,2.7c-0.5,0.2-0.7,0.8-0.5,1.3c1,1.9,1.9,3.8,2.9,5.8C190.4,100.2,193.5,95.9,191.7,91.4
					L191.7,91.4z"/>
			</g>
			<g id="_409267040_33_">
				<path class="st5" d="M213.5,161.1c1,1.9,2.1,3.7,3.1,5.3c0.2,0.4,0.7,0.5,1.1,0.3l5.5-2.5C222.4,162,218,158.8,213.5,161.1
					L213.5,161.1z"/>
			</g>
			<g id="_409266752_33_">
				<path class="st5" d="M246.3,153.8l5.7-2.6c1.4-0.6-0.1-2.2-1.1-3.8c-0.5-0.9-1.1-1.9-1.6-2.9C246.3,146.4,245,150.3,246.3,153.8
					L246.3,153.8z"/>
			</g>
		</g>
		<g id="_409266968_33_">
			<path class="st5" d="M201.8,130c4.1,9.2,14.9,13.3,24.1,9.1s13.2-14.9,9-24.1c-4.1-9.2-14.9-13.3-24.1-9.1
				C201.8,110,197.7,120.8,201.8,130L201.8,130z"/>
		</g>
		<g>
			
				<ellipse transform="matrix(0.9111 -0.4121 0.4121 0.9111 -40.5799 107.7289)" class="st4" cx="229.5" cy="148" rx="4.4" ry="4.4"/>
		</g>
		<g>
			
				<ellipse transform="matrix(0.9111 -0.4121 0.4121 0.9111 -21.7023 93.7586)" class="st4" cx="206.5" cy="97.2" rx="4.4" ry="4.4"/>
		</g>
		<g>
			<g id="_409266824_33_">
				<path class="st3" d="M210.7,125.8c-1.7-4.1,3-8,4-5.7c0.2,0.6,0,1.2-0.6,1.5c-3.1,1.3-1.1,6,2,4.7c4-1.7-2.1-7.1,3.9-9.6
					c5.8-2.5,9.5,6.4,3.7,8.8c-1.4,0.6-2.3-1.5-0.9-2.1c3.1-1.3,1.1-6-2-4.7c-4,1.7,2.1,7.1-3.9,9.6
					C214.5,129.4,211.7,128.2,210.7,125.8L210.7,125.8z"/>
			</g>
			<g id="_409267328_33_">
				<path class="st3" d="M224.1,120.1c-0.6-1.3,1.2-1.7,2.4-2.2c1.4-0.6,2.3,1.5,0.9,2.1C226.2,120.4,224.7,121.4,224.1,120.1z"/>
			</g>
			<g id="_409266872_33_">
				<path class="st3" d="M208.9,126.5c-0.6-1.3,1.2-1.7,2.4-2.2c1.4-0.6,2.3,1.5,0.9,2.1C210.9,126.9,209.4,127.9,208.9,126.5z"/>
			</g>
		</g>
	</g>
	<g>
		<g id="_409268072_32_">
			<path class="st3" d="M7.3,194.2c-1.6,4.5-3.2,10-4,14.8c-0.1,0.6,0.3,1.1,0.9,1.3l36.4,13.2c1.9,0.7,1.9-2,2.4-4.2
				c2.3-9.7,6.3-19.4,11.2-28.7c6.1-11.7,12.2-26.5,16.2-39.9c0.2-0.6-0.2-1.2-0.8-1.5L33,136.1c-0.7-0.3-1.4,0.1-1.6,0.7
				c-4.1,13.6-10.2,28.5-16.6,40.8C11.8,183.3,9.3,188.9,7.3,194.2L7.3,194.2z"/>
		</g>
		<g id="_409267760_64_">
			<path class="st4" d="M64.4,163.1C61,172.4,56.9,182.3,53,190c-2.6,5.1-5.1,11-7.1,16.5c-1.8,4.9-3.8,11.4-4.5,16.7l-35.9-13
				c0.3-2.3,1.2-8.2,4.4-17.1c1.8-5,4.1-10.4,6.9-15.8c3.9-7.8,8.1-17.8,11.5-27.2c1.8-5.1,3.4-9.8,4.5-13.9l36,13
				C67.8,153.3,66.3,158,64.4,163.1 M66.9,164c2-5.6,3.8-11,4.9-15.4c0.1-0.5-0.1-1.1-0.6-1.2l-39-14.1c-0.5-0.2-1.1,0.1-1.3,0.6
				c0,0,0,0.1,0,0.1c-1.2,4.4-2.8,9.7-4.9,15.3c-3.3,9-7.4,18.8-11.4,26.9c-2.8,5.5-5.1,10.9-7,16.1h0c-4.4,12.2-4.6,18.8-4.7,19.1
				c0,0.5,0.3,0.9,0.7,1l39,14.1c0.6,0.2,1.1-0.1,1.3-0.6c0-0.1,0.1-0.2,0.1-0.3c0.1-4.4,1.9-11.1,4.5-18c2-5.5,4.5-11.3,6.9-16.2
				C59.4,183.1,63.6,173.1,66.9,164L66.9,164z M7.5,192.2C7.5,192.2,7.5,192.2,7.5,192.2L7.5,192.2L7.5,192.2z"/>
		</g>
		<g id="_409267760_63_">
			<path class="st2" d="M66.8,162.5c-3.6,9.9-8,20.2-12.1,28.3c-2.7,5.4-5.4,11.5-7.5,17.4c-1.9,5.1-4,12.1-4.6,17.6L2.9,211.5
				c0.2-2.4,1.1-8.6,4.6-18.1c1.9-5.3,4.4-10.9,7.3-16.6c4.2-8.3,8.7-18.7,12.2-28.6c1.9-5.3,3.5-10.4,4.7-14.6l39.8,14.4
				C70.3,152.1,68.7,157.1,66.8,162.5 M69.5,163.4c2.2-5.9,3.9-11.6,5.1-16.3c0.1-0.6-0.2-1.1-0.7-1.3l-43-15.5
				c-0.6-0.2-1.2,0.1-1.5,0.7c0,0,0,0.1,0,0.1c-1.2,4.7-3,10.3-5.1,16.2c-3.4,9.5-7.8,19.8-12.1,28.3c-3,5.8-5.4,11.5-7.4,16.9h0
				C0.2,205.2,0,212.3,0,212.6c0,0.5,0.3,0.9,0.8,1.1l43,15.5c0.6,0.2,1.3-0.1,1.5-0.7c0-0.1,0.1-0.2,0.1-0.3
				c0.1-4.6,1.9-11.7,4.6-19c2.1-5.8,4.7-11.9,7.4-17.1C61.6,183.6,66,173.1,69.5,163.4L69.5,163.4z M4.8,192.4
				C4.8,192.4,4.8,192.4,4.8,192.4L4.8,192.4L4.8,192.4z"/>
		</g>
		<g>
			<g id="_409267496_32_">
				<path class="st5" d="M67,156.2c0.7-2.1,1.4-4.1,2-6.2c0.1-0.5-0.1-1-0.6-1.2l-6-2.2C60.9,151.5,64.6,155.5,67,156.2L67,156.2z"
					/>
			</g>
			<g id="_409268120_32_">
				<path class="st5" d="M39.1,138.3l-6.1-2.2c-0.5-0.2-1.1,0.1-1.3,0.6c-0.6,2-1.3,4.1-2,6.1C32,143.8,37.2,142.8,39.1,138.3
					L39.1,138.3z"/>
			</g>
			<g id="_409267040_32_">
				<path class="st5" d="M6.1,203.5c-0.6,2-1.1,4.1-1.4,6c-0.1,0.4,0.2,0.9,0.6,1l5.7,2.1C11.8,210.3,10.9,205,6.1,203.5L6.1,203.5z
					"/>
			</g>
			<g id="_409266752_32_">
				<path class="st5" d="M34.7,221.2l5.9,2.1c1.4,0.5,1.5-1.7,1.9-3.5c0.3-1.1,0.6-2.1,0.9-3.2C39.8,215.8,36.1,217.7,34.7,221.2
					L34.7,221.2z"/>
			</g>
		</g>
		<g id="_409266968_32_">
			<path class="st5" d="M19.4,173.1c-3.4,9.5,1.5,19.9,10.9,23.3c9.4,3.4,19.9-1.5,23.3-11c3.4-9.5-1.5-19.9-10.9-23.3
				C33.3,158.7,22.8,163.6,19.4,173.1L19.4,173.1z"/>
		</g>
		<g>
			
				<ellipse transform="matrix(0.3401 -0.9404 0.9404 0.3401 -175.3944 160.5321)" class="st4" cx="26.7" cy="205.2" rx="4.4" ry="4.4"/>
		</g>
		<g>
			
				<ellipse transform="matrix(0.3401 -0.9404 0.9404 0.3401 -113.6291 143.7838)" class="st4" cx="45.6" cy="152.9" rx="4.4" ry="4.4"/>
		</g>
		<g>
			<g id="_409266824_32_">
				<path class="st3" d="M28.7,176.2c1.6-4.2,7.7-3.6,6.8-1.3c-0.2,0.6-0.9,0.9-1.5,0.6c-3.1-1.2-4.9,3.5-1.8,4.7
					c4,1.6,3.4-6.5,9.5-4.2c5.9,2.3,2.4,11.2-3.5,8.9c-1.4-0.5-0.6-2.6,0.8-2.1c3.1,1.2,4.9-3.5,1.8-4.7c-4-1.6-3.4,6.5-9.5,4.2
					C28.9,181.5,27.7,178.7,28.7,176.2L28.7,176.2z"/>
			</g>
			<g id="_409267328_32_">
				<path class="st3" d="M42.3,181.5c0.5-1.3,2.1-0.4,3.3,0.1c1.4,0.5,0.6,2.6-0.8,2.1C43.5,183.2,41.8,182.9,42.3,181.5z"/>
			</g>
			<g id="_409266872_32_">
				<path class="st3" d="M26.8,175.5c0.5-1.3,2.1-0.4,3.3,0.1c1.4,0.5,0.6,2.6-0.8,2.1C28.1,177.2,26.3,176.9,26.8,175.5z"/>
			</g>
		</g>
	</g>
	<g>
		<g id="_409268072_31_">
			<path class="st3" d="M338.8,321.3c0.7,4.7,1.9,10.4,3.4,15c0.2,0.5,0.8,0.9,1.4,0.8l38.3-5.5c2-0.3,0.7-2.6,0.1-4.8
				c-2.5-9.6-3.6-20.1-3.6-30.6c-0.1-13.2-1.7-29.2-4.5-42.8c-0.1-0.6-0.8-1-1.4-0.9L334,258c-0.7,0.1-1.2,0.7-1.1,1.4
				c2.8,13.9,4.5,30,4.6,43.8C337.6,309.7,338,315.8,338.8,321.3L338.8,321.3z"/>
		</g>
		<g id="_409267760_62_">
			<path class="st4" d="M374.5,267c1.4,9.9,2.4,20.5,2.6,29.1c0.1,5.7,0.7,12.1,1.5,17.9c0.7,5.1,2,11.9,3.9,16.8l-37.8,5.5
				c-0.9-2.2-2.8-7.8-4.2-17.2c-0.8-5.3-1.2-11.1-1.4-17.2c-0.2-8.8-1.2-19.5-2.6-29.4c-0.8-5.3-1.7-10.3-2.6-14.4l37.9-5.5
				C372.8,256.8,373.7,261.7,374.5,267 M377.1,266.6c-0.9-5.9-1.9-11.5-2.9-15.9c-0.1-0.5-0.6-0.9-1.2-0.8l-41,5.9
				c-0.6,0.1-1,0.6-0.9,1.2c0,0,0,0.1,0,0.1c1.1,4.4,2.1,9.9,2.9,15.8c1.4,9.5,2.4,20.1,2.6,29.1c0.2,6.2,0.6,12.1,1.4,17.5l0,0
				c1.9,12.8,4.8,18.8,4.9,19c0.2,0.4,0.6,0.6,1.1,0.6l41-5.9c0.6-0.1,1-0.6,0.9-1.2c0-0.1,0-0.2-0.1-0.3c-1.9-3.9-3.5-10.7-4.6-18
				c-0.8-5.8-1.4-12-1.5-17.6C379.4,287,378.5,276.3,377.1,266.6L377.1,266.6z M338,319.5C338,319.5,338,319.5,338,319.5L338,319.5
				L338,319.5z"/>
		</g>
		<g id="_409267760_61_">
			<path class="st2" d="M376.3,265.3c1.5,10.4,2.5,21.6,2.7,30.7c0.1,6,0.7,12.7,1.6,18.9c0.8,5.4,2.1,12.5,4.2,17.7l-41.7,6
				c-0.9-2.3-3.1-8.2-4.5-18.1c-0.8-5.6-1.3-11.7-1.4-18.1c-0.2-9.3-1.2-20.6-2.7-31c-0.8-5.6-1.8-10.8-2.7-15.1l41.8-6
				C374.5,254.5,375.5,259.7,376.3,265.3 M379.1,264.9c-0.9-6.3-2-12.1-3.1-16.8c-0.1-0.6-0.7-0.9-1.3-0.8l-45.2,6.5
				c-0.6,0.1-1.1,0.7-1,1.3c0,0,0,0.1,0,0.1c1.1,4.7,2.2,10.5,3.1,16.6c1.4,10,2.5,21.2,2.6,30.7c0.1,6.5,0.6,12.7,1.4,18.4l0,0
				c1.9,13.5,5.1,19.8,5.2,20c0.2,0.4,0.7,0.7,1.2,0.6l45.2-6.5c0.6-0.1,1.1-0.7,1-1.3c0-0.1-0.1-0.2-0.1-0.3
				c-2.1-4.1-3.8-11.2-4.9-19c-0.9-6.1-1.4-12.7-1.5-18.5C381.6,286.4,380.6,275.1,379.1,264.9L379.1,264.9z M335.7,321
				C335.7,321,335.7,321,335.7,321L335.7,321L335.7,321z"/>
		</g>
		<g>
			<g id="_409267496_31_">
				<path class="st5" d="M373.5,259.8c-0.4-2.2-0.7-4.3-1.1-6.4c-0.1-0.5-0.6-0.8-1.1-0.8l-6.3,0.9
					C365.9,258.5,371.1,260.3,373.5,259.8L373.5,259.8z"/>
			</g>
			<g id="_409268120_31_">
				<path class="st5" d="M340.5,257.1l-6.4,0.9c-0.5,0.1-0.9,0.6-0.8,1.1c0.4,2.1,0.8,4.2,1.1,6.4
					C336.8,265.2,340.9,261.9,340.5,257.1L340.5,257.1z"/>
			</g>
			<g id="_409267040_31_">
				<path class="st5" d="M342.1,330.2c0.4,2.1,1,4.1,1.5,6c0.1,0.4,0.5,0.7,1,0.6l6-0.9C350.3,333.5,347,329.2,342.1,330.2
					L342.1,330.2z"/>
			</g>
			<g id="_409266752_31_">
				<path class="st5" d="M375.6,332.3l6.2-0.9c1.5-0.2,0.5-2.2,0-4c-0.3-1.1-0.5-2.1-0.7-3.2C377.6,325.2,375.3,328.6,375.6,332.3
					L375.6,332.3z"/>
			</g>
		</g>
		<g id="_409266968_31_">
			<path class="st5" d="M339.5,297c1.4,10,10.7,16.9,20.6,15.5c9.9-1.4,16.8-10.7,15.4-20.6c-1.4-10-10.7-16.9-20.6-15.5
				C345,277.8,338.1,287.1,339.5,297L339.5,297z"/>
		</g>
		<g>
			<ellipse transform="matrix(0.9897 -0.1429 0.1429 0.9897 -42.31 54.9068)" class="st4" cx="361.1" cy="322" rx="4.4" ry="4.4"/>
		</g>
		<g>
			
				<ellipse transform="matrix(0.9897 -0.1429 0.1429 0.9897 -34.5147 53.2078)" class="st4" cx="353.1" cy="266.8" rx="4.4" ry="4.4"/>
		</g>
		<g>
			<g id="_409266824_31_">
				<path class="st3" d="M349.1,295.5c-0.5-4.4,5.1-6.8,5.4-4.3c0.1,0.6-0.4,1.2-1,1.3c-3.3,0.4-2.7,5.4,0.6,5
					c4.3-0.5-0.1-7.4,6.4-8.2c6.3-0.8,7.4,8.8,1.1,9.5c-1.5,0.2-1.7-2.1-0.3-2.2c3.3-0.4,2.7-5.4-0.6-5c-4.3,0.5,0.1,7.4-6.4,8.2
					C351.8,300,349.4,298.1,349.1,295.5L349.1,295.5z"/>
			</g>
			<g id="_409267328_31_">
				<path class="st3" d="M363.6,293.7c-0.2-1.4,1.6-1.3,2.9-1.5c1.5-0.2,1.7,2.1,0.3,2.2C365.5,294.6,363.8,295.1,363.6,293.7z"/>
			</g>
			<g id="_409266872_31_">
				<path class="st3" d="M347.2,295.7c-0.2-1.4,1.6-1.3,2.9-1.5c1.5-0.2,1.7,2.1,0.3,2.2C349.1,296.6,347.4,297.1,347.2,295.7z"/>
			</g>
		</g>
	</g>
	<g>
		<g id="_409268072_30_">
			<path class="st3" d="M248,89.2c0.4,4.7,1.2,10.5,2.5,15.2c0.1,0.5,0.7,0.9,1.4,0.8l38.6-3.2c2-0.2,0.9-2.6,0.4-4.8
				c-2-9.7-2.4-20.2-1.8-30.8c0.7-13.2,0-29.2-2-43c-0.1-0.6-0.7-1-1.4-1l-38.7,3.2c-0.7,0.1-1.3,0.7-1.2,1.3c2,14,2.7,30.2,2,44
				C247.5,77.5,247.6,83.7,248,89.2L248,89.2z"/>
		</g>
		<g id="_409267760_60_">
			<path class="st4" d="M286.9,37.1c0.8,9.9,1.1,20.6,0.8,29.2c-0.2,5.7,0,12.1,0.5,18c0.4,5.2,1.3,12,2.9,17l-38.1,3.2
				c-0.7-2.2-2.4-7.9-3.1-17.4c-0.4-5.3-0.6-11.1-0.4-17.2c0.3-8.8,0-19.5-0.8-29.5c-0.4-5.4-1-10.3-1.7-14.5l38.2-3.2
				C285.9,26.8,286.5,31.7,286.9,37.1 M289.5,36.9c-0.5-6-1.2-11.5-2-16.1c-0.1-0.5-0.6-0.9-1.1-0.9l-41.3,3.5c-0.6,0-1,0.6-0.9,1.1
				c0,0,0,0.1,0,0.1c0.8,4.5,1.5,10,2,15.9c0.8,9.6,1.1,20.2,0.8,29.2c-0.2,6.2-0.1,12.1,0.4,17.5l0,0c1.1,12.9,3.6,19,3.7,19.3
				c0.2,0.4,0.6,0.7,1,0.6l41.3-3.5c0.6,0,1-0.6,0.9-1.1c0-0.1,0-0.2-0.1-0.3c-1.7-4-2.9-10.8-3.5-18.3c-0.5-5.9-0.6-12.1-0.5-17.6
				C290.7,57.4,290.3,46.6,289.5,36.9L289.5,36.9z M247.4,87.4C247.4,87.4,247.4,87.4,247.4,87.4L247.4,87.4L247.4,87.4z"/>
		</g>
		<g id="_409267760_59_">
			<path class="st2" d="M288.8,35.6c0.9,10.5,1.2,21.7,0.8,30.8c-0.2,6-0.1,12.7,0.4,18.9c0.5,5.4,1.4,12.6,3.2,18l-42,3.5
				c-0.8-2.3-2.6-8.3-3.4-18.3c-0.5-5.6-0.6-11.7-0.3-18.1c0.4-9.2,0.1-20.6-0.8-31.1c-0.5-5.7-1.1-10.9-1.8-15.3l42.1-3.5
				C287.7,24.7,288.3,29.9,288.8,35.6 M291.7,35.3c-0.5-6.3-1.3-12.2-2.1-16.9c-0.1-0.6-0.6-1-1.2-0.9l-45.6,3.8
				c-0.6,0.1-1.1,0.6-1,1.2c0,0,0,0.1,0,0.1c0.9,4.7,1.6,10.6,2.1,16.8c0.8,10.1,1.2,21.3,0.8,30.8c-0.3,6.5-0.1,12.7,0.3,18.5l0,0
				c1.1,13.6,3.9,20,4,20.3c0.2,0.4,0.7,0.7,1.1,0.7l45.6-3.8c0.6-0.1,1.1-0.6,1-1.2c0-0.1,0-0.2-0.1-0.3
				c-1.9-4.3-3.1-11.4-3.8-19.2c-0.5-6.2-0.7-12.8-0.4-18.6C292.9,56.9,292.5,45.6,291.7,35.3L291.7,35.3z M245,88.7
				C245,88.7,245,88.7,245,88.7L245,88.7L245,88.7z"/>
		</g>
		<g>
			<g id="_409267496_30_">
				<path class="st5" d="M286.4,29.9c-0.2-2.2-0.5-4.3-0.8-6.4c-0.1-0.5-0.5-0.9-1-0.8l-6.3,0.5C278.9,28.1,283.9,30.2,286.4,29.9
					L286.4,29.9z"/>
			</g>
			<g id="_409268120_30_">
				<path class="st5" d="M253.5,25.2l-6.4,0.5c-0.5,0-1,0.5-0.9,1.1c0.3,2.1,0.5,4.2,0.8,6.4C249.4,33.1,253.7,30.1,253.5,25.2
					L253.5,25.2z"/>
			</g>
			<g id="_409267040_30_">
				<path class="st5" d="M250.8,98.3c0.3,2.1,0.7,4.2,1.2,6.1c0.1,0.4,0.5,0.7,0.9,0.7l6-0.5C258.8,102,255.7,97.6,250.8,98.3
					L250.8,98.3z"/>
			</g>
			<g id="_409266752_30_">
				<path class="st5" d="M284.2,102.3l6.3-0.5c1.5-0.1,0.6-2.2,0.3-4c-0.2-1.1-0.4-2.1-0.5-3.2C286.5,95.4,284,98.6,284.2,102.3
					L284.2,102.3z"/>
			</g>
		</g>
		<g id="_409266968_30_">
			<path class="st5" d="M250.2,65c0.8,10,9.6,17.5,19.6,16.7c10-0.8,17.4-9.7,16.6-19.7c-0.8-10-9.6-17.5-19.6-16.7
				C256.8,46.2,249.3,55,250.2,65L250.2,65z"/>
		</g>
		<g>
			
				<ellipse transform="matrix(0.9965 -8.337955e-02 8.337955e-02 0.9965 -6.6639 22.848)" class="st4" cx="270.2" cy="91.2" rx="4.4" ry="4.4"/>
		</g>
		<g>
			
				<ellipse transform="matrix(0.9965 -8.339224e-02 8.339224e-02 0.9965 -2.0516 22.2707)" class="st4" cx="265.6" cy="35.7" rx="4.4" ry="4.4"/>
		</g>
		<g>
			<g id="_409266824_30_">
				<path class="st3" d="M259.9,64c-0.3-4.5,5.5-6.5,5.7-4c0,0.6-0.4,1.2-1.1,1.2c-3.3,0.2-3,5.3,0.3,5.1c4.3-0.3,0.4-7.4,6.9-7.8
					c6.3-0.4,6.9,9.2,0.6,9.6c-1.5,0.1-1.6-2.2-0.1-2.3c3.3-0.2,3-5.3-0.3-5.1c-4.3,0.3-0.4,7.4-6.9,7.8
					C262.3,68.7,260,66.7,259.9,64L259.9,64z"/>
			</g>
			<g id="_409267328_30_">
				<path class="st3" d="M274.5,63.1c-0.1-1.4,1.7-1.2,3-1.3c1.5-0.1,1.6,2.2,0.1,2.3C276.3,64.2,274.6,64.6,274.5,63.1z"/>
			</g>
			<g id="_409266872_30_">
				<path class="st3" d="M257.9,64.1c-0.1-1.4,1.7-1.2,3-1.3c1.5-0.1,1.6,2.2,0.1,2.3C259.8,65.2,258,65.6,257.9,64.1z"/>
			</g>
		</g>
	</g>
	<g>
		<g id="_409268072_18_">
			<path class="st3" d="M334.3,125.7c-4.1,2.4-8.9,5.7-12.5,8.9c-0.4,0.4-0.5,1-0.2,1.6l19.8,33.3c1,1.7,2.7-0.4,4.5-1.7
				c7.9-6,17.2-11,26.9-15.1c12.1-5.2,26.3-12.8,37.8-20.6c0.5-0.3,0.6-1.1,0.3-1.7L390.9,97c-0.4-0.6-1.1-0.9-1.7-0.5
				c-11.7,7.9-25.9,15.6-38.7,21C344.5,120.1,339.1,122.8,334.3,125.7L334.3,125.7z"/>
		</g>
		<g id="_409267760_36_">
			<path class="st4" d="M398.1,137.8c-8.6,5.1-18,10-25.9,13.6c-5.2,2.3-10.9,5.3-15.9,8.3c-4.4,2.6-10.2,6.4-14,10.1L322.7,137
				c1.7-1.6,6.1-5.6,14.3-10.5c4.6-2.7,9.8-5.4,15.3-7.9c8-3.6,17.5-8.6,26.2-13.7c4.6-2.8,8.8-5.5,12.3-7.9l19.6,32.9
				C407,132.4,402.8,135.1,398.1,137.8 M399.5,140c5.2-3.1,9.9-6.1,13.6-8.8c0.4-0.3,0.6-0.9,0.3-1.4l-21.2-35.6
				c-0.3-0.5-0.9-0.6-1.4-0.3c0,0-0.1,0-0.1,0.1c-3.7,2.7-8.4,5.7-13.5,8.8c-8.3,4.9-17.6,9.9-25.9,13.6c-5.6,2.5-10.9,5.2-15.6,8
				l0,0c-11.1,6.6-15.5,11.6-15.7,11.8c-0.3,0.3-0.3,0.8-0.1,1.2l21.2,35.6c0.3,0.5,1,0.6,1.4,0.4c0.1-0.1,0.2-0.1,0.3-0.2
				c2.9-3.3,8.5-7.3,14.9-11.1c5.1-3,10.6-5.9,15.7-8.1C381.5,150.1,391.1,145,399.5,140L399.5,140z M335.7,124.3
				C335.7,124.3,335.7,124.3,335.7,124.3L335.7,124.3L335.7,124.3z"/>
		</g>
		<g id="_409267760_35_">
			<path class="st2" d="M400.4,138.8c-9,5.4-19,10.6-27.3,14.2c-5.5,2.4-11.5,5.5-16.8,8.7c-4.7,2.8-10.8,6.8-14.8,10.7l-21.6-36.2
				c1.7-1.7,6.4-6,15-11.1c4.9-2.9,10.3-5.7,16.2-8.3c8.5-3.7,18.5-9,27.6-14.4c4.9-2.9,9.3-5.8,12.9-8.3l21.6,36.3
				C409.7,133.1,405.3,135.9,400.4,138.8 M401.8,141.3c5.4-3.2,10.4-6.5,14.3-9.3c0.5-0.3,0.6-1,0.3-1.5L393,91.2
				c-0.3-0.5-1-0.7-1.5-0.4c0,0-0.1,0-0.1,0.1c-3.9,2.9-8.8,6.1-14.2,9.3c-8.7,5.2-18.6,10.4-27.3,14.2c-6,2.6-11.5,5.5-16.4,8.4
				l0,0c-11.7,7-16.3,12.3-16.5,12.5c-0.3,0.4-0.3,0.9-0.1,1.3l23.4,39.3c0.3,0.6,1,0.7,1.5,0.4c0.1-0.1,0.2-0.1,0.3-0.2
				c3-3.5,8.9-7.8,15.6-11.8c5.3-3.2,11.2-6.2,16.5-8.5C382.9,151.8,393,146.6,401.8,141.3L401.8,141.3z M333.4,122.7
				C333.4,122.7,333.4,122.7,333.4,122.7L333.4,122.7L333.4,122.7z"/>
		</g>
		<g>
			<g id="_409267496_18_">
				<path class="st5" d="M404.4,134.2c1.9-1.2,3.7-2.3,5.4-3.5c0.4-0.3,0.6-0.8,0.3-1.3l-3.3-5.5C402.7,126.6,403,132.1,404.4,134.2
					L404.4,134.2z"/>
			</g>
			<g id="_409268120_18_">
				<path class="st5" d="M394.2,102.6l-3.3-5.5c-0.3-0.5-0.9-0.6-1.4-0.3c-1.8,1.2-3.6,2.3-5.4,3.5
					C385.3,102.4,389.9,104.9,394.2,102.6L394.2,102.6z"/>
			</g>
			<g id="_409267040_18_">
				<path class="st5" d="M327.4,132.2c-1.7,1.2-3.4,2.5-4.9,3.7c-0.3,0.3-0.4,0.8-0.2,1.1l3.1,5.2
					C327.5,141,330.1,136.3,327.4,132.2L327.4,132.2z"/>
			</g>
			<g id="_409266752_18_">
				<path class="st5" d="M338.3,163.9l3.2,5.4c0.8,1.3,2.2-0.4,3.7-1.5c0.9-0.6,1.8-1.3,2.7-1.9C345.6,163,341.6,162.2,338.3,163.9
					L338.3,163.9z"/>
			</g>
		</g>
		<g id="_409266968_18_">
			<path class="st5" d="M357,117c-8.6,5.1-11.5,16.3-6.4,25c5.1,8.6,16.3,11.4,25,6.3c8.6-5.1,11.5-16.3,6.4-25
				C376.8,114.7,365.6,111.9,357,117L357,117z"/>
		</g>
		<g>
			<ellipse transform="matrix(0.859 -0.512 0.512 0.859 -26.7635 195.8658)" class="st4" cx="342.2" cy="146.5" rx="4.4" ry="4.4"/>
		</g>
		<g>
			<ellipse transform="matrix(0.859 -0.512 0.512 0.859 -5.4129 216.3485)" class="st4" cx="390.1" cy="118" rx="4.4" ry="4.4"/>
		</g>
		<g>
			<g id="_409266824_18_">
				<path class="st3" d="M362.1,125.3c3.9-2.2,8.3,2.1,6.1,3.3c-0.5,0.3-1.2,0.1-1.5-0.4c-1.6-2.9-6.1-0.4-4.4,2.5
					c2.1,3.7,6.8-2.9,10,2.8c3.1,5.5-5.3,10.2-8.4,4.7c-0.7-1.3,1.2-2.4,2-1.1c1.6,2.9,6.1,0.4,4.4-2.5c-2.1-3.7-6.8,2.9-10-2.8
					C359,129.5,359.8,126.6,362.1,125.3L362.1,125.3z"/>
			</g>
			<g id="_409267328_18_">
				<path class="st3" d="M369.3,138.1c1.3-0.7,1.9,1,2.5,2.1c0.7,1.3-1.2,2.4-2,1.1C369.2,140.2,368.1,138.8,369.3,138.1z"/>
			</g>
			<g id="_409266872_18_">
				<path class="st3" d="M361.2,123.6c1.3-0.7,1.9,1,2.5,2.1c0.7,1.3-1.2,2.4-2,1.1C361.1,125.7,359.9,124.3,361.2,123.6z"/>
			</g>
		</g>
	</g>
	<g>
		<g id="_409268072_17_">
			<path class="st3" d="M109.2,71.7c0.4,4.7,1.2,10.5,2.5,15.2c0.1,0.5,0.7,0.9,1.4,0.8l38.6-3.2c2-0.2,0.9-2.6,0.4-4.8
				c-2-9.7-2.4-20.2-1.8-30.8c0.7-13.2,0-29.2-2-43c-0.1-0.6-0.7-1-1.4-1l-38.7,3.2c-0.7,0.1-1.3,0.7-1.2,1.3c2,14,2.7,30.2,2,44
				C108.7,60,108.7,66.1,109.2,71.7L109.2,71.7z"/>
		</g>
		<g id="_409267760_34_">
			<path class="st4" d="M148.1,19.6c0.8,9.9,1.1,20.6,0.8,29.2c-0.2,5.7,0,12.1,0.5,18c0.4,5.2,1.3,12,2.9,17L114.2,87
				c-0.7-2.2-2.4-7.9-3.1-17.4c-0.4-5.3-0.6-11.1-0.4-17.2c0.3-8.8,0-19.5-0.8-29.5c-0.4-5.4-1-10.3-1.7-14.5l38.2-3.2
				C147,9.3,147.6,14.2,148.1,19.6 M150.7,19.4c-0.5-6-1.2-11.5-2-16.1c-0.1-0.5-0.6-0.9-1.1-0.9l-41.3,3.5c-0.6,0-1,0.6-0.9,1.1
				c0,0,0,0.1,0,0.1c0.8,4.5,1.5,10,2,15.9c0.8,9.6,1.1,20.2,0.8,29.2c-0.2,6.2-0.1,12.1,0.4,17.5l0,0c1.1,12.9,3.6,19,3.7,19.3
				c0.2,0.4,0.6,0.7,1,0.6l41.3-3.5c0.6,0,1-0.6,0.9-1.1c0-0.1,0-0.2-0.1-0.3c-1.7-4-2.9-10.8-3.5-18.3c-0.5-5.9-0.6-12.1-0.5-17.6
				C151.8,39.9,151.5,29.1,150.7,19.4L150.7,19.4z M108.5,69.8C108.5,69.8,108.5,69.8,108.5,69.8L108.5,69.8L108.5,69.8z"/>
		</g>
		<g id="_409267760_33_">
			<path class="st2" d="M150,18.1c0.9,10.5,1.2,21.7,0.8,30.8c-0.2,6-0.1,12.7,0.4,18.9c0.5,5.4,1.4,12.6,3.2,18l-42,3.5
				c-0.8-2.3-2.6-8.3-3.4-18.3c-0.5-5.6-0.6-11.7-0.3-18.1c0.4-9.2,0.1-20.6-0.8-31.1c-0.5-5.7-1.1-10.9-1.8-15.3l42.1-3.5
				C148.9,7.2,149.5,12.4,150,18.1 M152.8,17.8c-0.5-6.3-1.3-12.2-2.1-16.9c-0.1-0.6-0.6-1-1.2-0.9l-45.6,3.8
				c-0.6,0.1-1.1,0.6-1,1.2c0,0,0,0.1,0,0.1c0.9,4.7,1.6,10.6,2.1,16.8c0.8,10.1,1.2,21.3,0.8,30.8c-0.3,6.5-0.1,12.7,0.3,18.5l0,0
				c1.1,13.6,3.9,20,4,20.3c0.2,0.4,0.7,0.7,1.1,0.7l45.6-3.8c0.6-0.1,1.1-0.6,1-1.2c0-0.1,0-0.2-0.1-0.3
				c-1.9-4.3-3.1-11.4-3.8-19.2c-0.5-6.2-0.7-12.8-0.4-18.6C154,39.4,153.7,28.1,152.8,17.8L152.8,17.8z M106.1,71.2
				C106.1,71.2,106.1,71.2,106.1,71.2L106.1,71.2L106.1,71.2z"/>
		</g>
		<g>
			<g id="_409267496_17_">
				<path class="st5" d="M147.5,12.3c-0.2-2.2-0.5-4.3-0.8-6.4c-0.1-0.5-0.5-0.9-1-0.8l-6.3,0.5C140.1,10.6,145.1,12.7,147.5,12.3
					L147.5,12.3z"/>
			</g>
			<g id="_409268120_17_">
				<path class="st5" d="M114.7,7.7l-6.4,0.5c-0.5,0-1,0.5-0.9,1.1c0.3,2.1,0.5,4.2,0.8,6.4C110.6,15.6,114.9,12.5,114.7,7.7
					L114.7,7.7z"/>
			</g>
			<g id="_409267040_17_">
				<path class="st5" d="M111.9,80.7c0.3,2.1,0.7,4.2,1.2,6.1c0.1,0.4,0.5,0.7,0.9,0.7l6-0.5C120,84.5,116.9,80.1,111.9,80.7
					L111.9,80.7z"/>
			</g>
			<g id="_409266752_17_">
				<path class="st5" d="M145.3,84.8l6.3-0.5c1.5-0.1,0.6-2.2,0.3-4c-0.2-1.1-0.4-2.1-0.5-3.2C147.7,77.8,145.2,81.1,145.3,84.8
					L145.3,84.8z"/>
			</g>
		</g>
		<g id="_409266968_17_">
			<path class="st5" d="M111.3,47.5c0.8,10,9.6,17.5,19.6,16.7c10-0.8,17.4-9.7,16.6-19.7c-0.8-10-9.6-17.5-19.6-16.7
				C117.9,28.7,110.5,37.5,111.3,47.5L111.3,47.5z"/>
		</g>
		<g>
			
				<ellipse transform="matrix(0.9965 -8.337955e-02 8.337955e-02 0.9965 -5.6869 11.2103)" class="st4" cx="131.4" cy="73.7" rx="4.4" ry="4.4"/>
		</g>
		<g>
			
				<ellipse transform="matrix(0.9965 -8.339224e-02 8.339224e-02 0.9965 -1.0745 10.6313)" class="st4" cx="126.7" cy="18.2" rx="4.4" ry="4.4"/>
		</g>
		<g>
			<g id="_409266824_17_">
				<path class="st3" d="M121,46.5c-0.3-4.5,5.5-6.5,5.7-4c0,0.6-0.4,1.2-1.1,1.2c-3.3,0.2-3,5.3,0.3,5.1c4.3-0.3,0.4-7.4,6.9-7.8
					c6.3-0.4,6.9,9.2,0.6,9.6c-1.5,0.1-1.6-2.2-0.1-2.3c3.3-0.2,3-5.3-0.3-5.1c-4.3,0.3-0.4,7.4-6.9,7.8
					C123.5,51.2,121.2,49.1,121,46.5L121,46.5z"/>
			</g>
			<g id="_409267328_17_">
				<path class="st3" d="M135.6,45.6c-0.1-1.4,1.7-1.2,3-1.3c1.5-0.1,1.6,2.2,0.1,2.3C137.5,46.7,135.7,47.1,135.6,45.6z"/>
			</g>
			<g id="_409266872_17_">
				<path class="st3" d="M119.1,46.6c-0.1-1.4,1.7-1.2,3-1.3c1.5-0.1,1.6,2.2,0.1,2.3C120.9,47.6,119.2,48.1,119.1,46.6z"/>
			</g>
		</g>
	</g>
	<g>
		<g id="_409268072_16_">
			<path class="st3" d="M46.5,97.2c3.1,3.6,7.1,7.8,11,10.8c0.4,0.3,1.1,0.3,1.6-0.1l29.4-25.2c1.5-1.3-0.8-2.6-2.5-4.1
				c-7.3-6.7-13.8-15-19.5-23.9C59.2,43.6,49.3,31,39.6,21c-0.4-0.4-1.2-0.4-1.7,0L8.4,46.3c-0.6,0.5-0.7,1.3-0.2,1.7
				C18.1,58.3,28.1,71,35.6,82.6C39.2,88,42.8,93,46.5,97.2L46.5,97.2z"/>
		</g>
		<g id="_409267760_32_">
			<path class="st4" d="M47.4,32.2c6.5,7.5,13,16,17.8,23.2c3.2,4.7,7.1,9.8,10.9,14.3c3.4,3.9,8.1,9,12.4,12.1l-29,24.9
				c-1.9-1.4-6.5-5-12.8-12.3c-3.5-4.1-7-8.7-10.4-13.7c-4.9-7.3-11.5-15.8-18-23.4c-3.5-4.1-6.9-7.8-9.9-10.7l29.1-25
				C40.5,24.5,43.9,28.1,47.4,32.2 M49.4,30.5c-3.9-4.5-7.7-8.7-11-11.8c-0.4-0.4-1-0.4-1.4-0.1l-31.4,27c-0.4,0.4-0.5,1-0.1,1.5
				c0,0,0,0,0.1,0.1c3.3,3.2,7.1,7.3,10.9,11.8c6.3,7.3,12.8,15.7,17.8,23.2c3.5,5.1,7,9.8,10.6,14l0,0c8.4,9.8,14.1,13.3,14.3,13.4
				c0.4,0.2,0.9,0.2,1.2-0.1l31.4-27c0.4-0.4,0.5-1,0.1-1.5c-0.1-0.1-0.2-0.2-0.3-0.2C87.9,78.4,83,73.6,78.1,68
				c-3.8-4.5-7.6-9.4-10.7-14C62.3,46.4,55.7,37.9,49.4,30.5L49.4,30.5z M44.8,96.1C44.8,96.1,44.8,96.1,44.8,96.1L44.8,96.1
				L44.8,96.1z"/>
		</g>
		<g id="_409267760_31_">
			<path class="st2" d="M48,29.8c6.8,8,13.7,16.9,18.7,24.5c3.3,5,7.4,10.4,11.5,15.1c3.6,4.1,8.5,9.4,13.1,12.7l-32,27.5
				c-2-1.4-7-5.2-13.5-12.9c-3.7-4.3-7.4-9.2-10.9-14.5c-5.1-7.7-12-16.7-18.9-24.7c-3.7-4.3-7.3-8.2-10.4-11.3l32.1-27.6
				C40.8,21.7,44.3,25.5,48,29.8 M50.2,28c-4.1-4.8-8.2-9.1-11.6-12.5c-0.4-0.4-1.1-0.4-1.5,0L2.4,45.3c-0.5,0.4-0.5,1.1-0.1,1.6
				c0,0,0,0.1,0.1,0.1c3.5,3.3,7.5,7.6,11.6,12.4c6.6,7.7,13.4,16.5,18.7,24.5c3.6,5.4,7.3,10.4,11.1,14.8l0,0
				c8.9,10.3,14.9,13.9,15.2,14.1c0.4,0.2,0.9,0.2,1.3-0.1l34.7-29.8c0.5-0.4,0.5-1.1,0.1-1.6c-0.1-0.1-0.2-0.2-0.3-0.2
				c-4-2.4-9.2-7.4-14.3-13.4c-4-4.7-8-9.9-11.3-14.8C63.8,44.8,56.9,35.8,50.2,28L50.2,28z M43.7,98.6
				C43.7,98.6,43.7,98.6,43.7,98.6L43.7,98.6L43.7,98.6z"/>
		</g>
		<g>
			<g id="_409267496_16_">
				<path class="st5" d="M42.7,26.6c-1.5-1.6-2.9-3.2-4.4-4.8c-0.4-0.4-0.9-0.4-1.3-0.1L32.2,26C35.6,29.6,40.9,28.4,42.7,26.6
					L42.7,26.6z"/>
			</g>
			<g id="_409268120_16_">
				<path class="st5" d="M13.4,42.1l-4.9,4.2c-0.4,0.4-0.5,1-0.1,1.4c1.5,1.5,2.9,3.1,4.4,4.8C14.7,50.9,16.4,46,13.4,42.1
					L13.4,42.1z"/>
			</g>
			<g id="_409267040_16_">
				<path class="st5" d="M54,102.9c1.5,1.5,3,3,4.5,4.2c0.3,0.3,0.8,0.3,1.2,0l4.6-4C62.7,101.3,57.6,99.5,54,102.9L54,102.9z"/>
			</g>
			<g id="_409266752_16_">
				<path class="st5" d="M83.4,86.6l4.8-4.1c1.1-1-0.8-2.1-2.1-3.4c-0.8-0.7-1.6-1.5-2.3-2.3C81.3,79.6,81.1,83.7,83.4,86.6
					L83.4,86.6z"/>
			</g>
		</g>
		<g id="_409266968_16_">
			<path class="st5" d="M34,76.4c6.6,7.6,18.1,8.5,25.7,2s8.5-18.1,1.9-25.7c-6.6-7.6-18.1-8.5-25.7-2C28.3,57.2,27.5,68.7,34,76.4
				L34,76.4z"/>
		</g>
		<g>
			<ellipse transform="matrix(0.7582 -0.652 0.652 0.7582 -40.0851 63.5127)" class="st4" cx="65.6" cy="85.8" rx="4.4" ry="4.4"/>
		</g>
		<g>
			<ellipse transform="matrix(0.7582 -0.652 0.652 0.7582 -21.3276 29.6207)" class="st4" cx="29.3" cy="43.6" rx="4.4" ry="4.4"/>
		</g>
		<g>
			<g id="_409266824_16_">
				<path class="st3" d="M41.3,69.8c-2.8-3.5,0.7-8.5,2.3-6.6c0.4,0.5,0.3,1.2-0.2,1.6c-2.6,2.1,0.6,6,3.2,3.9c3.3-2.7-4-6.2,1-10.3
					c4.9-4,11,3.4,6.1,7.4c-1.1,0.9-2.6-0.8-1.4-1.8c2.6-2.1-0.6-6-3.2-3.9c-3.3,2.7,4,6.2-1,10.3C46,72.2,43,71.9,41.3,69.8
					L41.3,69.8z"/>
			</g>
			<g id="_409267328_16_">
				<path class="st3" d="M52.6,60.6c-0.9-1.1,0.7-2,1.7-2.8c1.1-0.9,2.6,0.8,1.4,1.8C54.7,60.3,53.5,61.7,52.6,60.6z"/>
			</g>
			<g id="_409266872_16_">
				<path class="st3" d="M39.8,71.1c-0.9-1.1,0.7-2,1.7-2.8c1.1-0.9,2.6,0.8,1.4,1.8C41.9,70.8,40.7,72.2,39.8,71.1z"/>
			</g>
		</g>
	</g>
</g>
</svg>
