<?xml version="1.0" encoding="utf-8"?>
<!-- Generator: Adobe Illustrator 25.0.0, SVG Export Plug-In . SVG Version: 6.00 Build 0)  -->
<svg version="1.1" id="Layer_1" xmlns="http://www.w3.org/2000/svg" xmlns:xlink="http://www.w3.org/1999/xlink" x="0px" y="0px"
	 viewBox="0 0 459.7 430" style="enable-background:new 0 0 459.7 430;" xml:space="preserve">
<style type="text/css">
	.st0{fill:#F76C82;}
	.st1{fill:#EDF4FC;}
	.st2{fill:#C7D7E5;}
	.st3{fill:#5B5D60;}
	.st4{fill:#F9D0B4;}
	.st5{fill:#70D6F9;}
	.st6{fill:#35414D;}
	.st7{fill:#F5C84C;}
	.st8{fill:#FC657E;}
	.st9{fill:#87D147;}
	.st10{fill:#F4F4F4;}
	.st11{opacity:0.18;enable-background:new    ;}
	.st12{fill:#FF6761;}
	.st13{fill:#FFD764;}
	.st14{fill:#7BFFCD;}
	.st15{fill:#2B3C65;}
</style>
<g>
	<g id="Layer_2_3_">
		<g>
			<g>
				<g>
					<path class="st0" d="M241.3,380.3V264c0-5.5,4.5-10,10-10h85l-28.5-7.2c-3.7-0.9-7.4-2.3-10.9-4l-15.5-7.7
						c-6-2.9-9.7-9-9.7-15.6v-19c-8.9,4.8-19.1,7.6-29.9,7.6c-10.8,0-21-2.8-29.9-7.6v19c0,6.6-3.8,12.7-9.7,15.6l-15.5,7.7
						c-3.5,1.7-7.1,3-10.9,4l-44.9,11.3c-10.9,2.7-18.8,12.3-19.4,23.5l-2.8,75.9c15.8,6.6,32.4,12,49.5,16.2v-38.3l7,22.5
						c3.4,10.8,5.5,22,6.4,33.2h29.5c4.9,0,9.7-1.6,13.3-5c3.9-3.6,9.1-5.9,14.8-5.9L241.3,380.3z"/>
				</g>
			</g>
			<g>
				<g>
					<path class="st1" d="M431.1,254H251.3c-5.5,0-10,4.5-10,10v130.3c0,5.5,4.5,10,10,10h179.8c5.5,0,10-4.5,10-10V264
						C441.1,258.5,436.6,254,431.1,254z"/>
				</g>
			</g>
			<g>
				<g>
					<path class="st2" d="M449.1,404.3H233.3c-3.4,0-6.1,2.7-6.1,6.1c0,8.3,6.7,15.1,15.1,15.1h197.9c8.3,0,15.1-6.7,15.1-15.1
						C455.2,407,452.5,404.3,449.1,404.3z"/>
				</g>
			</g>
			<g>
				<g>
					<path class="st3" d="M281.5,235.2l15.5,7.7c3.5,1.7,7.1,3,10.9,4l28.5,7.2h3.2c2.2-28.8-28.9-46.2-20.5-67
						c7.4-18.5,7.2-32.8,5.3-42.3c-4.4,3.2-9.7,5.2-15.6,5.2c-1.4,0-2.8-0.1-4.2-0.4c-1.5,22-14.4,40.9-32.7,50.9v19
						C271.7,226.2,275.5,232.2,281.5,235.2z"/>
				</g>
			</g>
			<g>
				<g>
					<path class="st3" d="M175.9,246.8c3.7-0.9,7.4-2.3,10.9-4l15.5-7.7c6-2.9,9.7-9,9.7-15.6v-19c-18.4-10-31.3-29-32.7-50.9
						c-1.4,0.2-2.8,0.4-4.2,0.4c-5.9,0-11.2-1.9-15.6-5.2c-1.9,9.5-2.1,23.7,5.3,42.3c8.4,21-23.3,38.5-20.5,67.8L175.9,246.8z"/>
				</g>
			</g>
			<g>
				<g>
					<path class="st4" d="M308.7,97.5c-1.4,0-2.7,0.1-4,0.3v47.5c0,1.4-0.1,2.8-0.2,4.2c1.4,0.2,2.8,0.4,4.2,0.4
						c14.5,0,26.2-11.7,26.2-26.2C334.9,109.2,323.2,97.5,308.7,97.5L308.7,97.5z"/>
				</g>
			</g>
			<g>
				<g>
					<path class="st4" d="M271.9,77c-9.6,11.2-43.5,45-92.8,31v37.4c0,34.5,28.2,62.8,62.8,62.8c34.5,0,62.8-28.2,62.8-62.8V94.6
						c0-2.3-1.6-4.3-3.9-4.8c-6.4-1.5-14.1-5.1-22.9-13.2C276.1,75.1,273.5,75.2,271.9,77L271.9,77z"/>
				</g>
			</g>
			<g>
				<g>
					<path class="st4" d="M179.1,108c-4.3-1.2-8.7-2.8-13.3-4.8c-2.9-1.3-6.3-0.7-8.7,1.5c-5.1,4.8-8.3,11.5-8.3,19.1
						c0,14.5,11.7,26.2,26.2,26.2c1.4,0,2.8-0.1,4.2-0.4c-0.1-1.4-0.2-2.8-0.2-4.2L179.1,108L179.1,108z"/>
				</g>
			</g>
			<g>
				<g>
					<g>
						<path class="st3" d="M157.2,104.6c2.3-2.2,5.8-2.8,8.7-1.5c4.5,2,9,3.6,13.3,4.8c49.3,14.1,83.2-19.8,92.8-31
							c1.5-1.8,4.2-1.9,6-0.3c8.8,8,16.5,11.7,22.9,13.2c2.2,0.5,3.9,2.5,3.9,4.8v3.2c1.3-0.2,2.7-0.3,4-0.3
							c7.2,0,13.8,2.9,18.6,7.7V89.9c0-46.9-38.4-85.3-85.3-85.3s-85.3,38.4-85.3,85.3v15.4C156.8,105.1,157,104.8,157.2,104.6z"/>
					</g>
				</g>
			</g>
			<g>
				<g>
					<circle class="st5" cx="341.2" cy="330.6" r="42.4"/>
				</g>
			</g>
			<g>
				<g>
					<path class="st4" d="M299.4,243.9c-0.8-0.4-1.6-0.7-2.4-1.1l-15.5-7.7c-6-2.9-9.7-9-9.7-15.6v-19c-8.9,4.8-19.1,7.6-29.9,7.6
						c-10.8,0-21-2.8-29.9-7.6v19c0,6.6-3.8,12.7-9.7,15.6l-15.5,7.7c-0.8,0.4-1.7,0.8-2.6,1.2c10.3,21.3,32,36.1,57.1,36.3V264
						c0-5.5,4.5-10,10-10h42C295.7,250.8,297.7,247.5,299.4,243.9L299.4,243.9z"/>
				</g>
			</g>
			<g>
				<g>
					<path class="st4" d="M227.2,410.4c0-3.4,2.7-6.1,6.1-6.1c0.3,0,18.2,0,18,0c-5.5,0-10-4.5-10-10v-14h-11.9
						c-5.7,0-10.9,2.2-14.8,5.9c-3.6,3.3-8.4,5-13.3,5h-40.2c-1.5,0-2.8-1.2-2.8-2.8v-14.7c-17.2-4.2-33.7-9.6-49.5-16.2l-2.2,60.4
						c-0.2,4.1,3,7.6,7.1,7.6h128.4C233.9,425.5,227.2,418.7,227.2,410.4z"/>
				</g>
			</g>
			<g>
				<g>
					<path class="st6" d="M171.8,395c-2.3,0-4.3-1.8-4.5-4.1c-0.7-8.5-2.2-17-4.4-25.3v8.1c0,1.4-0.6,2.7-1.7,3.6
						c-1.1,0.9-2.5,1.2-3.9,0.8c-17.2-4.2-34.1-9.7-50.2-16.4c-1.7-0.7-2.9-2.5-2.8-4.3l2.8-75.9c0.7-13.4,9.9-24.5,22.8-27.7
						l44.9-11.3c3.4-0.9,6.8-2.1,10-3.7l15.5-7.7c4.4-2.2,7.2-6.6,7.2-11.6v-18.4c0-2.5,2-4.5,4.5-4.5s4.5,2,4.5,4.5v18.4
						c0,8.4-4.7,16-12.3,19.7l-15.5,7.7c-3.7,1.8-7.7,3.3-11.8,4.3l-44.9,11.3c-9.1,2.3-15.5,10.1-16,19.4l-2.6,72.7
						c13,5.3,26.6,9.7,40.4,13.4v-32.5c0-2.2,1.6-4.1,3.8-4.5c2.2-0.3,4.3,1,5,3.1l7,22.5c3.4,10.8,5.6,22.1,6.6,33.5
						c0.2,2.5-1.6,4.7-4.1,4.9C172,395,171.9,395,171.8,395L171.8,395z"/>
				</g>
			</g>
			<g>
				<g>
					<path class="st6" d="M335.9,258.4c-0.4,0-0.7,0-1.1-0.1l-28-7.1c-4-1-8-2.5-11.7-4.3l-15.5-7.7c-7.6-3.7-12.3-11.3-12.3-19.7
						v-17.9c0-2.5,2-4.5,4.5-4.5c2.5,0,4.5,2,4.5,4.5v17.9c0,5,2.8,9.4,7.2,11.6l15.5,7.7c3.2,1.6,6.5,2.8,10,3.7l28,7.1
						c2.4,0.6,3.9,3.1,3.3,5.5C339.8,257,337.9,258.4,335.9,258.4L335.9,258.4z"/>
				</g>
			</g>
			<g>
				<g>
					<path class="st6" d="M241.9,180.2c-8.6,0-16.7-3.5-21.7-9.4c-1.6-1.9-1.4-4.8,0.6-6.4c1.9-1.6,4.8-1.3,6.4,0.6
						c3.2,3.9,8.8,6.2,14.8,6.2s11.5-2.3,14.8-6.2c1.6-1.9,4.5-2.2,6.4-0.6c1.9,1.6,2.2,4.5,0.6,6.4
						C258.6,176.7,250.5,180.2,241.9,180.2z"/>
				</g>
			</g>
			<g>
				<g>
					<circle class="st6" cx="273.1" cy="131.5" r="7.2"/>
				</g>
			</g>
			<g>
				<g>
					<circle class="st6" cx="212.5" cy="131.5" r="7.2"/>
				</g>
			</g>
			<g>
				<g>
					<g>
						<path class="st6" d="M284.8,159.3h-15.6c-12.7,0-23.1-10.4-23.1-23.1v-10.8c0-9.6,7.8-17.4,17.4-17.4h27.1
							c9.6,0,17.4,7.8,17.4,17.4v10.8C307.9,148.9,297.6,159.3,284.8,159.3L284.8,159.3z M263.5,117.1c-4.6,0-8.3,3.7-8.3,8.3v10.8
							c0,7.8,6.3,14.1,14.1,14.1h15.6c7.8,0,14.1-6.3,14.1-14.1v-10.8c0-4.6-3.7-8.3-8.3-8.3L263.5,117.1z"/>
					</g>
				</g>
				<g>
					<g>
						<path class="st6" d="M214.5,159.3H199c-12.7,0-23.1-10.4-23.1-23.1v-10.8c0-9.6,7.8-17.4,17.4-17.4h27.1
							c9.6,0,17.4,7.8,17.4,17.4v10.8C237.6,148.9,227.3,159.3,214.5,159.3L214.5,159.3z M193.2,117.1c-4.6,0-8.3,3.7-8.3,8.3v10.8
							c0,7.8,6.3,14.1,14.1,14.1h15.6c7.8,0,14.1-6.3,14.1-14.1v-10.8c0-4.6-3.7-8.3-8.3-8.3L193.2,117.1z"/>
					</g>
				</g>
			</g>
			<g>
				<g>
					<path class="st6" d="M248.9,132.2h-14.1c-2.5,0-4.5-2-4.5-4.5s2-4.5,4.5-4.5h14.1c2.5,0,4.5,2,4.5,4.5S251.4,132.2,248.9,132.2
						z"/>
				</g>
			</g>
			<g>
				<g>
					<path class="st6" d="M431.4,408.8c-2.4,0-4.4-1.9-4.5-4.4c-0.1-2.5,1.9-4.6,4.4-4.7c2.9-0.1,5.3-2.6,5.3-5.5V264
						c0-3-2.5-5.5-5.5-5.5H251.3c-3,0-5.5,2.5-5.5,5.5v130.3c0,2.9,2.3,5.3,5.2,5.5c2.5,0.1,4.4,2.2,4.3,4.7
						c-0.1,2.5-2.2,4.4-4.7,4.3c-7.8-0.4-13.9-6.7-13.9-14.5V264c0-8,6.5-14.5,14.5-14.5h179.8c8,0,14.5,6.5,14.5,14.5v130.3
						c0,7.9-6.2,14.2-14,14.5C431.5,408.8,431.5,408.8,431.4,408.8L431.4,408.8z"/>
				</g>
			</g>
			<g>
				<g>
					<path class="st6" d="M440.2,430H242.2c-10.8,0-19.6-8.8-19.6-19.6c0-5.9,4.8-10.7,10.7-10.7h215.8c5.9,0,10.7,4.8,10.7,10.7
						C459.7,421.2,451,430,440.2,430z M233.3,408.8c-0.9,0-1.6,0.7-1.6,1.6c0,5.8,4.7,10.6,10.6,10.6h197.9
						c5.8,0,10.6-4.7,10.6-10.6c0-0.9-0.7-1.6-1.6-1.6H233.3z"/>
				</g>
			</g>
			<g>
				<g>
					<g>
						<path class="st6" d="M323.8,347.4c-1.2,0-2.5-0.5-3.4-1.5l-10.8-12.1c-1.5-1.7-1.5-4.3,0-6l10.8-12.1c1.7-1.9,4.5-2,6.4-0.4
							c1.9,1.7,2,4.5,0.4,6.4l-8.1,9.1l8.1,9.1c1.7,1.9,1.5,4.7-0.4,6.4C325.9,347,324.9,347.4,323.8,347.4z"/>
					</g>
				</g>
				<g>
					<g>
						<path class="st6" d="M358.6,347.4c-1.1,0-2.1-0.4-3-1.1c-1.9-1.7-2-4.5-0.4-6.4l8.1-9.1l-8.1-9.1c-1.7-1.9-1.5-4.7,0.4-6.4
							c1.9-1.7,4.7-1.5,6.4,0.4l10.8,12.1c1.5,1.7,1.5,4.3,0,6L362,345.9C361.1,346.9,359.8,347.4,358.6,347.4z"/>
					</g>
				</g>
				<g>
					<g>
						<path class="st6" d="M335.9,347c-0.6,0-1.2-0.1-1.8-0.4c-2.3-1-3.3-3.7-2.3-6l10.5-24.1c1-2.3,3.7-3.3,6-2.3
							c2.3,1,3.3,3.7,2.3,6l-10.5,24.1C339.3,345.9,337.7,347,335.9,347L335.9,347z"/>
					</g>
				</g>
			</g>
			<g>
				<g>
					<path class="st7" d="M369.4,31.2c-8.1-1.5-14.5-7.8-16.1-15.7c-0.1-0.4-0.6-0.4-0.7,0c-1.5,8-8,14.2-16.1,15.7
						c-0.4,0.1-0.4,0.6,0,0.7c8.1,1.5,14.5,7.8,16.1,15.8c0.1,0.4,0.6,0.4,0.7,0c1.5-8,8-14.2,16.1-15.8
						C369.8,31.8,369.8,31.2,369.4,31.2z"/>
				</g>
			</g>
			<g>
				<g>
					<path class="st8" d="M363.2,170c-5.2-1-9.2-5-10.2-10c0-0.3-0.4-0.3-0.5,0c-1,5.1-5.1,9.1-10.2,10c-0.3,0-0.3,0.4,0,0.4
						c5.2,1,9.2,5,10.2,10c0,0.3,0.4,0.3,0.5,0c1-5.1,5.1-9.1,10.2-10C363.5,170.4,363.5,170,363.2,170z"/>
				</g>
			</g>
			<g>
				<g>
					<circle class="st9" cx="94.4" cy="243.6" r="6.1"/>
				</g>
			</g>
			<g>
				<g>
					<circle class="st8" cx="145.2" cy="15.8" r="6.1"/>
				</g>
			</g>
			<g>
				<g>
					<path class="st6" d="M339.6,258.1c-0.1,0-0.2,0-0.3,0c-2.5-0.2-4.4-2.3-4.2-4.8c0.8-12.6-5.5-22.9-11.7-32.9
						c-6.7-11-13.7-22.4-8.6-35c7-17.6,6.7-30.9,5.2-38.9c-0.5-2.5,1.2-4.8,3.6-5.3c2.5-0.5,4.8,1.2,5.3,3.6
						c2.5,13.4,0.6,28.2-5.7,43.9c-3.2,8.1,0.9,15.5,7.9,27c6.5,10.7,13.9,22.8,13,38.2C343.9,256.2,341.9,258.1,339.6,258.1z"/>
				</g>
			</g>
			<g>
				<g>
					<path class="st6" d="M144.2,258.6c-2.3,0-4.3-1.8-4.5-4.2c-1.2-15.7,6.3-27.9,12.9-38.8c7-11.5,11.2-18.9,7.9-27
						c-7.9-19.7-7.4-34.9-5.7-44.1c0.5-2.5,2.8-4.1,5.3-3.6c2.5,0.5,4.1,2.8,3.6,5.3c-1.5,8.1-1.9,21.4,5.2,39.1
						c5.1,12.7-1.9,24.1-8.6,35c-6.2,10.1-12.6,20.6-11.6,33.4c0.2,2.5-1.7,4.7-4.2,4.8C144.5,258.6,144.3,258.6,144.2,258.6z"/>
				</g>
			</g>
			<g>
				<g>
					<path class="st6" d="M308.7,154.4c-1,0-2-0.1-3.1-0.2c-2.5-0.3-4.3-2.5-4-5c0.3-2.5,2.5-4.3,5-4c0.7,0.1,1.4,0.1,2.1,0.1
						c12,0,21.7-9.7,21.7-21.7s-9.7-21.7-21.7-21.7c-0.7,0-1.4,0-2.1,0.1c-2.5,0.2-4.7-1.6-4.9-4c-0.2-2.5,1.6-4.7,4-4.9
						c18.2-1.8,33.7,12.7,33.7,30.6C339.4,140.6,325.6,154.4,308.7,154.4L308.7,154.4z"/>
				</g>
			</g>
			<g>
				<g>
					<path class="st6" d="M241.9,212.6c-37.1,0-67.3-30.2-67.3-67.3V108c0-1.4,0.7-2.8,1.8-3.6c1.1-0.9,2.6-1.1,4-0.7
						c46.8,13.3,79.3-19.2,88.1-29.5c1.5-1.8,3.7-2.9,6-3c2.3-0.1,4.7,0.7,6.4,2.3c7.1,6.5,14.2,10.6,20.9,12.1
						c4.3,1,7.4,4.8,7.4,9.2v50.7C309.2,182.4,279,212.6,241.9,212.6L241.9,212.6z M183.7,113.8v31.6c0,32.1,26.1,58.2,58.2,58.2
						c32.1,0,58.2-26.1,58.2-58.2V94.6c0-0.2-0.2-0.3-0.4-0.4c-8.2-1.9-16.5-6.6-24.7-14C265.4,91.4,232.1,124.4,183.7,113.8
						L183.7,113.8z M275.3,79.9"/>
				</g>
			</g>
			<g>
				<g>
					<path class="st6" d="M175.1,154.4c-16.9,0-30.7-13.8-30.7-30.7c0-8.4,3.5-16.6,9.7-22.4c3.7-3.4,9-4.4,13.6-2.3
						c4.2,1.9,8.5,3.4,12.7,4.6c2.4,0.7,3.8,3.2,3.1,5.6c-0.7,2.4-3.2,3.8-5.6,3.1c-4.6-1.3-9.3-3-13.9-5c-1.3-0.6-2.7-0.3-3.8,0.7
						c-4.4,4.1-6.9,9.7-6.9,15.8c0,12,9.7,21.7,21.7,21.7c0.8,0,1.6-0.1,2.4-0.2c2.5-0.3,4.7,1.5,5,3.9c0.3,2.5-1.5,4.7-3.9,5
						C177.4,154.3,176.2,154.4,175.1,154.4L175.1,154.4z"/>
				</g>
			</g>
			<g>
				<g>
					<g>
						<path class="st6" d="M156.6,109.2c-2.5,0-4.5-2-4.5-4.5V89.9C152,40.3,192.3,0,241.9,0c49.5,0,89.9,40.3,89.9,89.9v14.2
							c0,2.5-2,4.5-4.5,4.5c-2.5,0-4.5-2-4.5-4.5V89.9c0-44.6-36.3-80.8-80.8-80.8s-80.8,36.3-80.8,80.8v14.8
							C161.1,107.1,159.1,109.2,156.6,109.2z"/>
					</g>
				</g>
			</g>
			<g>
				<g>
					<path class="st6" d="M341.2,377.5c-25.9,0-46.9-21-46.9-46.9s21-46.9,46.9-46.9c25.9,0,46.9,21,46.9,46.9
						S367.1,377.5,341.2,377.5z M341.2,292.8c-20.9,0-37.9,17-37.9,37.9s17,37.9,37.9,37.9c20.9,0,37.9-17,37.9-37.9
						S362.1,292.8,341.2,292.8z"/>
				</g>
			</g>
			<g>
				<g>
					<path class="st6" d="M239.9,284.8c0,0-0.1,0-0.1,0c-24.7-0.7-47.2-14.9-58.7-37.1c-1.1-2.2-0.3-4.9,1.9-6.1
						c2.2-1.1,4.9-0.3,6.1,1.9c10,19.2,29.5,31.6,51,32.2c2.5,0.1,4.5,2.2,4.4,4.7C244.3,282.8,242.3,284.8,239.9,284.8L239.9,284.8
						z"/>
				</g>
			</g>
			<g>
				<g>
					<path class="st6" d="M294,257.7c-0.9,0-1.8-0.3-2.6-0.8c-2-1.4-2.5-4.3-1.1-6.3c1.7-2.5,3.3-5.1,4.7-7.8c1.1-2.2,3.8-3.1,6.1-2
						c2.2,1.1,3.1,3.8,2,6.1c-1.6,3.1-3.4,6.2-5.4,9C296.8,257,295.4,257.7,294,257.7L294,257.7z"/>
				</g>
			</g>
			<g>
				<g>
					<path class="st6" d="M201.3,395.7h-40.2c-4,0-7.3-3.3-7.3-7.3v-14.7c0-2.5,2-4.5,4.5-4.5s4.5,2,4.5,4.5v12.9h38.4
						c4,0,7.6-1.3,10.2-3.8c4.9-4.6,11.2-7.1,17.9-7.1h10.9c2.5,0,4.5,2,4.5,4.5s-2,4.5-4.5,4.5h-10.9c-4.3,0-8.5,1.6-11.7,4.6
						C213.4,393.5,207.6,395.7,201.3,395.7L201.3,395.7z"/>
				</g>
			</g>
			<g>
				<g>
					<path class="st6" d="M241.3,430H113.8c-3.2,0-6.3-1.3-8.5-3.7c-2.2-2.3-3.4-5.5-3.2-8.7l2.2-60.3c0.1-2.5,2.2-4.4,4.7-4.4
						c2.5,0.1,4.4,2.2,4.4,4.7l-2.2,60.4c-0.1,1.1,0.4,1.7,0.7,2c0.3,0.3,0.9,0.8,1.9,0.8h127.5c2.5,0,4.5,2,4.5,4.5
						C245.8,428,243.8,430,241.3,430L241.3,430z"/>
				</g>
			</g>
		</g>
	</g>
	<g id="_x32_5_Web_Page_1_">
		<g>
			<path class="st10" d="M127.5,77.8v107.6c0,5.2-4.2,9.4-9.4,9.4H11c-5.2,0-9.4-4.2-9.4-9.4V77.8H127.5z"/>
			<path class="st11" d="M127.5,77.8v107.6c0,5.2-4.2,9.4-9.4,9.4h-13c5.2,0,9.4-4.2,9.4-9.4V77.8H127.5z"/>
			<path class="st12" d="M127.5,77.8V56.5c0-5.2-4.2-9.4-9.4-9.4H11c-5.2,0-9.4,4.2-9.4,9.4v21.3H127.5z"/>
			<path class="st11" d="M127.5,56.5v21.3h-13V56.5c0-5.2-4.2-9.4-9.4-9.4h13C123.3,47.1,127.5,51.3,127.5,56.5L127.5,56.5z"/>
			<path class="st10" d="M24.1,62.5c0,2.2-1.8,4-4,4c-2.2,0-4-1.8-4-4c0-2.2,1.8-4,4-4C22.3,58.4,24.1,60.2,24.1,62.5z"/>
			<path class="st10" d="M37.8,62.5c0,2.2-1.8,4-4,4c-2.2,0-4-1.8-4-4c0-2.2,1.8-4,4-4C36,58.4,37.8,60.2,37.8,62.5z"/>
			<path class="st10" d="M51.5,62.5c0,2.2-1.8,4-4,4c-2.2,0-4-1.8-4-4c0-2.2,1.8-4,4-4C49.7,58.4,51.5,60.2,51.5,62.5z"/>
			<path class="st13" d="M16.6,91.5h96v37.5h-96L16.6,91.5z"/>
			<path class="st13" d="M16.6,143.7h39.1v37.5H16.6L16.6,143.7z"/>
			<path class="st11" d="M99.5,91.5h13V129h-13V91.5z"/>
			<path class="st11" d="M47.5,143.7h8.2v37.5h-8.2V143.7z"/>
			<path class="st14" d="M55.7,177.1v4.1H16.6v-4.1l13.5-20.1l10,14.8l6-8.9L55.7,177.1z"/>
			<circle class="st10" cx="40.4" cy="153" r="3.2"/>
			<path class="st10" d="M94.7,110.2c0,3.3-2.7,6-6,6H40.3c-3.3,0-6-2.7-6-6c0-3.3,2.7-6,6-6h48.5C92.1,104.2,94.7,106.9,94.7,110.2
				z"/>
			<g>
				<path class="st15" d="M125.9,150c0,0.9,0.7,1.6,1.6,1.6c0.9,0,1.6-0.7,1.6-1.6v-5.2c0-0.9-0.7-1.6-1.6-1.6
					c-0.9,0-1.6,0.7-1.6,1.6V150z"/>
				<path class="st15" d="M1.6,82.5c-0.9,0-1.6,0.7-1.6,1.6v101.3c0,6.1,4.9,11,11,11h107.1c6.1,0,11-4.9,11-11v-29
					c0-0.9-0.7-1.6-1.6-1.6c-0.9,0-1.6,0.7-1.6,1.6v29c0,4.3-3.5,7.9-7.9,7.9H11c-4.3,0-7.9-3.5-7.9-7.9V84.1
					C3.1,83.2,2.4,82.5,1.6,82.5L1.6,82.5z"/>
				<path class="st15" d="M127.5,132.6c0.9,0,1.6-0.7,1.6-1.6V84.1c0-0.9-0.7-1.6-1.6-1.6c-0.9,0-1.6,0.7-1.6,1.6V131
					C125.9,131.9,126.6,132.6,127.5,132.6z"/>
				<path class="st15" d="M118.1,45.5H11c-6.1,0-11,4.9-11,11v21.3c0,0.9,0.7,1.6,1.6,1.6h125.9c0.9,0,1.6-0.7,1.6-1.6V56.5
					C129.1,50.5,124.2,45.5,118.1,45.5z M125.9,76.2H3.1V56.5c0-4.3,3.5-7.9,7.9-7.9h107.1c4.3,0,7.9,3.5,7.9,7.9V76.2z"/>
				<path class="st15" d="M20.1,56.9c-3.1,0-5.6,2.5-5.6,5.6s2.5,5.6,5.6,5.6c3.1,0,5.6-2.5,5.6-5.6S23.2,56.9,20.1,56.9z
					 M20.1,64.9c-1.4,0-2.5-1.1-2.5-2.5s1.1-2.5,2.5-2.5c1.4,0,2.5,1.1,2.5,2.5S21.4,64.9,20.1,64.9z"/>
				<path class="st15" d="M33.8,56.9c-3.1,0-5.6,2.5-5.6,5.6s2.5,5.6,5.6,5.6s5.6-2.5,5.6-5.6S36.9,56.9,33.8,56.9z M33.8,64.9
					c-1.4,0-2.5-1.1-2.5-2.5s1.1-2.5,2.5-2.5s2.5,1.1,2.5,2.5S35.1,64.9,33.8,64.9L33.8,64.9z"/>
				<path class="st15" d="M47.5,56.9c-3.1,0-5.6,2.5-5.6,5.6s2.5,5.6,5.6,5.6s5.6-2.5,5.6-5.6S50.6,56.9,47.5,56.9z M47.5,64.9
					c-1.4,0-2.5-1.1-2.5-2.5s1.1-2.5,2.5-2.5s2.5,1.1,2.5,2.5S48.8,64.9,47.5,64.9L47.5,64.9z"/>
				<path class="st15" d="M113,60.9H71.9c-0.9,0-1.6,0.7-1.6,1.6c0,0.9,0.7,1.6,1.6,1.6H113c0.9,0,1.6-0.7,1.6-1.6
					C114.6,61.6,113.9,60.9,113,60.9L113,60.9z"/>
				<path class="st15" d="M114.1,91.5c0-0.9-0.7-1.6-1.6-1.6h-96c-0.9,0-1.6,0.7-1.6,1.6v37.5c0,0.9,0.7,1.6,1.6,1.6h96
					c0.9,0,1.6-0.7,1.6-1.6L114.1,91.5L114.1,91.5z M111,127.4H18.1V93H111V127.4z"/>
				<path class="st15" d="M15,181.2c0,0.9,0.7,1.6,1.6,1.6h39.1c0.9,0,1.6-0.7,1.6-1.6c0-6.3,0-22.8,0-37.5c0-0.9-0.7-1.6-1.6-1.6
					H16.6c-0.9,0-1.6,0.7-1.6,1.6V181.2z M54.1,179.6h-36v-2l12-17.7l8.7,12.9c0.6,0.9,2,0.9,2.6,0l4.7-7l8,11.9L54.1,179.6
					L54.1,179.6z M54.1,145.3V172l-6.7-10c-0.6-0.9-2-0.9-2.6,0l-4.7,7l-8.7-12.9c-0.6-0.9-2-0.9-2.6,0L18.1,172v-26.7L54.1,145.3
					L54.1,145.3z"/>
				<path class="st15" d="M68.8,145.3h21.9c0.9,0,1.6-0.7,1.6-1.6s-0.7-1.6-1.6-1.6H68.8c-0.9,0-1.6,0.7-1.6,1.6
					S67.9,145.3,68.8,145.3z"/>
				<path class="st15" d="M112.5,154.6H68.8c-0.9,0-1.6,0.7-1.6,1.6c0,0.9,0.7,1.6,1.6,1.6h43.8c0.9,0,1.6-0.7,1.6-1.6
					C114.1,155.3,113.4,154.6,112.5,154.6z"/>
				<path class="st15" d="M112.5,167.1H68.8c-0.9,0-1.6,0.7-1.6,1.6s0.7,1.6,1.6,1.6h43.8c0.9,0,1.6-0.7,1.6-1.6
					C114.1,167.8,113.4,167.1,112.5,167.1z"/>
				<path class="st15" d="M112.5,179.6H68.8c-0.9,0-1.6,0.7-1.6,1.6s0.7,1.6,1.6,1.6h43.8c0.9,0,1.6-0.7,1.6-1.6
					C114.1,180.3,113.4,179.6,112.5,179.6z"/>
				<path class="st15" d="M40.4,157.8c2.6,0,4.7-2.1,4.7-4.7c0-2.6-2.1-4.7-4.7-4.7c-2.6,0-4.7,2.1-4.7,4.7
					C35.7,155.6,37.8,157.8,40.4,157.8z M40.4,151.4c0.9,0,1.6,0.7,1.6,1.6c0,0.9-0.7,1.6-1.6,1.6s-1.6-0.7-1.6-1.6
					C38.8,152.1,39.5,151.4,40.4,151.4z"/>
				<path class="st15" d="M40.3,117.7h48.5c4.1,0,7.5-3.4,7.5-7.5c0-4.2-3.4-7.5-7.5-7.5H40.3c-4.1,0-7.5,3.4-7.5,7.5
					S36.1,117.7,40.3,117.7z M40.3,105.8h48.5c2.4,0,4.4,2,4.4,4.4c0,2.4-2,4.4-4.4,4.4H40.3c-2.4,0-4.4-2-4.4-4.4
					C35.9,107.8,37.9,105.8,40.3,105.8z"/>
			</g>
		</g>
	</g>
</g>
</svg>
