<?xml version="1.0" encoding="utf-8"?>
<!-- Generator: Adobe Illustrator 25.0.0, SVG Export Plug-In . SVG Version: 6.00 Build 0)  -->
<svg version="1.1" id="Layer_1" xmlns="http://www.w3.org/2000/svg" xmlns:xlink="http://www.w3.org/1999/xlink" x="0px" y="0px"
	 viewBox="0 0 234.3 150" style="enable-background:new 0 0 234.3 150;" xml:space="preserve">
<style type="text/css">
	.st0{fill:#F4EAE6;}
	.st1{fill:#BECAF5;}
	.st2{fill:#3C58A0;}
	.st3{fill:#DEEEFF;}
	.st4{fill:#2A428C;}
	.st5{fill:#1C2E7A;}
	.st6{fill:#FF4155;}
	.st7{fill:#FFDD40;}
	.st8{fill:#88CE65;}
	.st9{fill:#6289CC;}
	.st10{fill:#4369FD;}
	.st11{fill:#B5A7A3;}
	.st12{fill:#748FA5;}
	.st13{fill:#6A8291;}
	.st14{fill:#70D6F9;}
	.st15{fill:#67CAE5;}
	.st16{fill:#35414D;}
	.st17{fill:#656D78;}
	.st18{fill:#F4F6F8;}
	.st19{fill:#E4E8EB;}
	.st20{fill:#F16C7A;}
	.st21{fill:#3A312A;}
	.st22{fill:#D7E057;}
	.st23{fill:#8AC6DD;}
	.st24{fill:#FDF6EC;stroke:#35414D;stroke-width:1.7391;stroke-miterlimit:10;}
	.st25{clip-path:url(#SVGID_2_);}
	.st26{fill:#EA7B45;}
	.st27{fill:#A6A6AA;}
	.st28{fill:#C9EB74;}
	.st29{fill:#91DAFA;}
	.st30{fill:#FFD549;}
	.st31{fill:#E76833;}
	.st32{fill:#848487;}
	.st33{fill:#B7E546;}
	.st34{fill:#6EC2FC;}
	.st35{fill:#FFD033;}
	.st36{fill:none;stroke:#35414D;stroke-width:2.7001;stroke-linecap:round;stroke-linejoin:round;stroke-miterlimit:13.3333;}
	.st37{fill:#FF3B65;}
	.st38{opacity:0.75;fill:#D82B50;enable-background:new    ;}
	.st39{fill:#FF8098;}
</style>
<g>
	<g>
		<path class="st0" d="M101.3,146.3H9.7c-3.3,0-5.9-2.7-5.9-5.9V83.1c0-3.3,2.7-5.9,5.9-5.9h91.5c3.3,0,5.9,2.7,5.9,5.9v57.3
			C107.2,143.6,104.6,146.3,101.3,146.3z"/>
		<g>
			<path class="st1" d="M33.6,30.3c0,4.6-3.7,8.3-8.3,8.3h81.9v-8.3L33.6,30.3z"/>
			<path class="st2" d="M3.8,30.3v8.3h22c4.6,0,8.3-3.7,8.3-8.3L3.8,30.3z"/>
			<path class="st0" d="M107.2,38.1v80.7c-11.2,16.5-30.2,27.4-51.7,27.4c-3.1,0-6.1-0.2-9.1-0.7c-0.2,0-0.4-0.1-0.5-0.1
				c-17.5-2.7-32.5-12.6-42.1-26.6V38.1H107.2z"/>
			<path class="st3" d="M46.4,145.6c-0.2,0-0.4-0.1-0.5-0.1C46,145.5,46.2,145.6,46.4,145.6L46.4,145.6z"/>
			<path class="st4" d="M100.1,15.7H32.2c0,0-2.5,2.6,0,5l0.3,4.9c0,0-2.1,3.2,1.2,5.2h75.7v-6C109.4,19.8,105.2,15.7,100.1,15.7z"
				/>
			<path class="st5" d="M12,15.4c-5.2,0-9.5,4.2-9.5,9.3v6.1h31.7c-3.4-2.1-1.2-5.3-1.2-5.3l-0.3-5c-2.6-2.5,0-5.1,0-5.1L12,15.4
				L12,15.4z"/>
			<path class="st6" d="M17.9,23.2c0,1.6-1.3,2.9-2.9,2.9S12,24.9,12,23.2s1.3-2.9,2.9-2.9S17.9,21.6,17.9,23.2z"/>
			<path class="st7" d="M26,23.2c0,1.6-1.3,2.9-2.9,2.9s-2.9-1.3-2.9-2.9s1.3-2.9,2.9-2.9C24.7,20.3,26,21.6,26,23.2z"/>
			<path class="st8" d="M34.2,23.2c0,1.6-1.3,2.9-2.9,2.9c-1.6,0-2.9-1.3-2.9-2.9s1.3-2.9,2.9-2.9C32.8,20.3,34.2,21.6,34.2,23.2
				L34.2,23.2z"/>
			<path class="st2" d="M59.3,23.2c0-1.1,0.9-2,2-2H43.8c-1.1,0-2,0.9-2,2c0,1.1,0.9,2,2,2h17.5C60.2,25.2,59.3,24.3,59.3,23.2z"/>
			<path class="st9" d="M75.5,23.2c0-1.1-0.9-2-2-2H60.8c-1.1,0-2,0.9-2,2c0,1.1,0.9,2,2,2h12.8C74.6,25.2,75.5,24.3,75.5,23.2z"/>
			<g>
				<path class="st9" d="M97.2,25.2h-2.6c-1.1,0-2-0.9-2-2c0-1.1,0.9-2,2-2h2.6c1.1,0,2,0.9,2,2C99.2,24.3,98.3,25.2,97.2,25.2z"/>
			</g>
			<g>
				<path class="st2" d="M88.3,25.2h-2.6c-1.1,0-2-0.9-2-2c0-1.1,0.9-2,2-2h2.6c1.1,0,2,0.9,2,2C90.3,24.3,89.4,25.2,88.3,25.2z"/>
			</g>
			<g id="g9219_8_" transform="translate(244.6719,249.1592)">
				<path id="path9221_8_" class="st10" d="M-191.6-173.8c0,1-0.8,1.8-1.8,1.8c-1,0-1.8-0.8-1.8-1.8c0-1,0.8-1.8,1.8-1.8
					C-192.4-175.6-191.6-174.8-191.6-173.8"/>
			</g>
			<g id="g9223_8_" transform="translate(261.5937,249.1592)">
				<path id="path9225_8_" class="st11" d="M-203.1-173.8c0,1-0.8,1.8-1.8,1.8c-1,0-1.8-0.8-1.8-1.8c0-1,0.8-1.8,1.8-1.8
					C-203.9-175.6-203.1-174.8-203.1-173.8"/>
			</g>
			<g id="g9227_8_" transform="translate(278.5156,249.1592)">
				<path id="path9229_8_" class="st11" d="M-214.6-173.8c0,1-0.8,1.8-1.8,1.8c-1,0-1.8-0.8-1.8-1.8c0-1,0.8-1.8,1.8-1.8
					C-215.4-175.6-214.6-174.8-214.6-173.8"/>
			</g>
			<g>
				<g id="g9231_8_" transform="translate(199.4058,152.8955)">
					<path id="path9233_8_" class="st12" d="M-161.5-49.7h-20c-0.5,0-1-0.4-1-1v-14.2c0-0.5,0.4-1,1-1h20c0.5,0,1,0.4,1,1v14.2
						C-160.6-50.1-161-49.7-161.5-49.7"/>
				</g>
				<g id="g9235_8_" transform="translate(188.9829,152.8975)">
					<path id="path9237_8_" class="st13" d="M-154.4-49.7h-7.7v-9.4c0-0.5,0.4-1,1-1h5.7c0.5,0,1,0.4,1,1V-49.7z"/>
				</g>
				<g id="g9239_8_" transform="translate(185.4336,127.335)">
					<path id="path9241_8_" class="st11" d="M-152-16h-11.1c-0.9,0-1.6-0.7-1.6-1.6c0-0.9,0.7-1.6,1.6-1.6h11.1
						c0.9,0,1.6,0.7,1.6,1.6C-150.4-16.7-151.1-16-152-16"/>
				</g>
				<g id="g9251_8_" transform="translate(286.1025,152.8955)">
					<path id="path9253_8_" class="st12" d="M-220.6-49.7h-20c-0.5,0-1-0.4-1-1v-14.2c0-0.5,0.4-1,1-1h20c0.5,0,1,0.4,1,1v14.2
						C-219.6-50.1-220.1-49.7-220.6-49.7"/>
				</g>
				<g id="g9255_8_" transform="translate(275.6797,152.8975)">
					<path id="path9257_8_" class="st13" d="M-213.5-49.7h-7.7v-9.4c0-0.5,0.4-1,1-1h5.7c0.5,0,1,0.4,1,1V-49.7z"/>
				</g>
				<g id="g9259_8_" transform="translate(272.1304,127.335)">
					<path id="path9261_8_" class="st11" d="M-211.1-16h-11.1c-0.9,0-1.6-0.7-1.6-1.6c0-0.9,0.7-1.6,1.6-1.6h11.1
						c0.9,0,1.6,0.7,1.6,1.6C-209.5-16.7-210.2-16-211.1-16"/>
				</g>
				<g id="g9271_8_" transform="translate(372.7988,152.8955)">
					<path id="path9273_8_" class="st12" d="M-279.6-49.7h-20c-0.5,0-1-0.4-1-1v-14.2c0-0.5,0.4-1,1-1h20c0.5,0,1,0.4,1,1v14.2
						C-278.7-50.1-279.1-49.7-279.6-49.7"/>
				</g>
				<g id="g9275_8_" transform="translate(362.3765,152.8975)">
					<path id="path9277_8_" class="st13" d="M-272.5-49.7h-7.7v-9.4c0-0.5,0.4-1,1-1h5.7c0.5,0,1,0.4,1,1V-49.7z"/>
				</g>
				<g id="g9279_8_" transform="translate(358.8271,127.335)">
					<path id="path9281_8_" class="st11" d="M-270.1-16h-11.1c-0.9,0-1.6-0.7-1.6-1.6c0-0.9,0.7-1.6,1.6-1.6h11.1
						c0.9,0,1.6,0.7,1.6,1.6C-268.5-16.7-269.2-16-270.1-16"/>
				</g>
			</g>
			<g>
				<g id="g9243_8_" transform="translate(199.9019,91.3535)">
					<path id="path9245_8_" class="st12" d="M-159.9,31.7h-16.9c-0.8,0-1.4-0.6-1.4-1.4c0-0.8,0.6-1.4,1.4-1.4h16.9
						c0.8,0,1.4,0.6,1.4,1.4C-158.5,31.1-159.1,31.7-159.9,31.7"/>
				</g>
				<g id="g9247_8_" transform="translate(199.9019,71.8398)">
					<path id="path9249_8_" class="st12" d="M-159.9,56.6h-16.9c-0.8,0-1.4-0.6-1.4-1.4c0-0.8,0.6-1.4,1.4-1.4h16.9
						c0.8,0,1.4,0.6,1.4,1.4C-158.5,56-159.1,56.6-159.9,56.6"/>
				</g>
				<g id="g9263_8_" transform="translate(286.5986,91.3535)">
					<path id="path9265_8_" class="st12" d="M-222.6,31.7h-16.9c-0.8,0-1.4-0.6-1.4-1.4c0-0.8,0.6-1.4,1.4-1.4h16.9
						c0.8,0,1.4,0.6,1.4,1.4C-221.2,31.1-221.8,31.7-222.6,31.7"/>
				</g>
				<g id="g9267_8_" transform="translate(286.5986,71.8398)">
					<path id="path9269_8_" class="st12" d="M-222.6,56.6h-16.9c-0.8,0-1.4-0.6-1.4-1.4c0-0.8,0.6-1.4,1.4-1.4h16.9
						c0.8,0,1.4,0.6,1.4,1.4C-221.2,56-221.8,56.6-222.6,56.6"/>
				</g>
				<g id="g9283_8_" transform="translate(373.2954,91.3535)">
					<path id="path9285_8_" class="st12" d="M-285.3,31.7h-16.9c-0.8,0-1.4-0.6-1.4-1.4c0-0.8,0.6-1.4,1.4-1.4h16.9
						c0.8,0,1.4,0.6,1.4,1.4C-283.9,31.1-284.5,31.7-285.3,31.7"/>
				</g>
				<g id="g9287_8_" transform="translate(373.2954,71.8398)">
					<path id="path9289_8_" class="st12" d="M-285.3,56.6h-16.9c-0.8,0-1.4-0.6-1.4-1.4c0-0.8,0.6-1.4,1.4-1.4h16.9
						c0.8,0,1.4,0.6,1.4,1.4C-283.9,56-284.5,56.6-285.3,56.6"/>
				</g>
			</g>
			<rect x="16.9" y="115.8" class="st2" width="77.2" height="0.2"/>
			<g>
				<path class="st14" d="M10.7,41.8h89.6V82H10.7L10.7,41.8z"/>
				<path class="st15" d="M100.3,41.8V82H10.7v-8.6h57c14.1,0,25.5-13.7,25.5-30.7v-0.9L100.3,41.8z"/>
			</g>
		</g>
		<path class="st16" d="M95,15.9c6.7,0,12.1,5.4,12.1,12.1V134c0,6.7-5.4,12.1-12.1,12.1H16c-6.7,0-12.1-5.4-12.1-12.1V27.9
			c0-6.7,5.4-12.1,12.1-12.1H95 M95,12H16c-8.8,0-16,7.2-16,16V134c0,8.8,7.2,16,16,16h79c8.8,0,16-7.2,16-16V27.9
			C111,19.1,103.8,12,95,12L95,12z"/>
	</g>
	<polygon class="st17" points="208.9,16.6 208.4,16.6 208.4,29.1 89,29.1 89,15.2 87.4,13.3 88.2,5.5 92,2.9 99.7,4.2 195.9,4.2 
		195.9,2.9 208.4,4.2 	"/>
	<path class="st18" d="M208.3,29.1v103.2c0,7.2-4.8,13-10.7,13H99.8c-7.7,2.6-14.7,0-10.8-13l0,0V29.1L208.3,29.1z"/>
	<path class="st19" d="M208.3,29.1v103.2c0.5,6.9,4,15.4-10.7,13H99.8c-13,1.6-13-4.9-11.6-10c0.8,0.2,2.7,0.3,3.5,0.3h12.2
		c50.1,0,91.8-46.3,96-106.5L208.3,29.1z"/>
	<g>
		<g>
			<circle class="st20" cx="104.2" cy="16.6" r="4.3"/>
			<path class="st21" d="M104.2,21.9c-2.9,0-5.3-2.4-5.3-5.3s2.4-5.3,5.3-5.3c2.9,0,5.3,2.4,5.3,5.3S107.1,21.9,104.2,21.9z
				 M104.2,13.3c-1.8,0-3.3,1.5-3.3,3.3s1.5,3.3,3.3,3.3c1.8,0,3.3-1.5,3.3-3.3C107.5,14.8,106,13.3,104.2,13.3z"/>
		</g>
		<g>
			<circle class="st22" cx="117.6" cy="16.6" r="4.3"/>
			<path class="st21" d="M117.6,21.9c-2.9,0-5.3-2.4-5.3-5.3s2.4-5.3,5.3-5.3c2.9,0,5.3,2.4,5.3,5.3S120.5,21.9,117.6,21.9z
				 M117.6,13.3c-1.8,0-3.3,1.5-3.3,3.3s1.5,3.3,3.3,3.3s3.3-1.5,3.3-3.3C120.9,14.8,119.4,13.3,117.6,13.3z"/>
		</g>
		<g>
			<circle class="st23" cx="130.9" cy="16.6" r="4.3"/>
			<path class="st21" d="M130.9,21.9c-2.9,0-5.3-2.4-5.3-5.3s2.4-5.3,5.3-5.3c2.9,0,5.3,2.4,5.3,5.3S133.8,21.9,130.9,21.9z
				 M130.9,13.3c-1.8,0-3.3,1.5-3.3,3.3s1.5,3.3,3.3,3.3c1.8,0,3.3-1.5,3.3-3.3C134.3,14.8,132.8,13.3,130.9,13.3z"/>
		</g>
		<path class="st24" d="M194.8,20.3h-41c-2,0-3.6-1.6-3.6-3.6v0c0-2,1.6-3.6,3.6-3.6h41c2,0,3.6,1.6,3.6,3.6v0
			C198.4,18.6,196.8,20.3,194.8,20.3z"/>
	</g>
	<path class="st16" d="M198.4,4.2c5.5,0,9.9,4.4,9.9,9.9v121.4c0,5.5-4.4,9.9-9.9,9.9H98.9c-5.5,0-9.9-4.4-9.9-9.9V14.1
		c0-5.5,4.4-9.9,9.9-9.9H198.4 M198.4,0H98.9c-7.8,0-14.1,6.3-14.1,14.1v121.4c0,7.8,6.3,14.1,14.1,14.1h99.5
		c7.8,0,14.1-6.3,14.1-14.1V14.1C212.5,6.3,206.2,0,198.4,0L198.4,0z"/>
	<g id="g4176_1_" transform="matrix(1.3333333,0,0,-1.3333333,0,682.66667)">
		<g id="g4178_1_">
			<g>
				<defs>
					<rect id="SVGID_1_" x="65" y="400.1" width="92.2" height="92.2"/>
				</defs>
				<clipPath id="SVGID_2_">
					<use xlink:href="#SVGID_1_"  style="overflow:visible;"/>
				</clipPath>
				<g id="g4180_1_" class="st25">
					<g id="g4186_1_" transform="translate(123.4304,16.46)">
						<path id="path4188_1_" class="st26" d="M-30.3,397.4h-14.3c-0.7,0-1.4,0.6-1.4,1.4v62c0,0.7,0.6,1.4,1.4,1.4h14.3
							c0.7,0,1.4-0.6,1.4-1.4v-62C-28.9,398-29.5,397.4-30.3,397.4"/>
					</g>
					<g id="g4190_1_" transform="translate(494.4997,389.1631)">
						<path id="path4192_1_" class="st27" d="M-351.2,75h-42.4c-0.7,0-1.4,0.6-1.4,1.4V88c0,0.7,0.6,1.4,1.4,1.4h42.4
							c0.7,0,1.4-0.6,1.4-1.4V76.4C-349.9,75.6-350.5,75-351.2,75"/>
					</g>
					<g id="g4194_1_" transform="translate(494.4997,16.46)">
						<path id="path4196_1_" class="st28" d="M-351.2,397.4h-42.4c-0.7,0-1.4,0.6-1.4,1.4v11.7c0,0.7,0.6,1.4,1.4,1.4h42.4
							c0.7,0,1.4-0.6,1.4-1.4v-11.7C-349.9,398-350.5,397.4-351.2,397.4"/>
					</g>
					<g id="g4198_1_" transform="translate(308.4938,159.1167)">
						<path id="path4200_1_" class="st29" d="M-190.3,274h-17.3c-0.7,0-1.4,0.6-1.4,1.4v23.2c0,0.7,0.6,1.4,1.4,1.4h17.3
							c0.7,0,1.4-0.6,1.4-1.4v-23.2C-189,274.6-189.6,274-190.3,274"/>
					</g>
					<g id="g4202_1_" transform="translate(494.4997,159.1167)">
						<path id="path4204_1_" class="st30" d="M-351.2,274h-17.3c-0.7,0-1.4,0.6-1.4,1.4v23.2c0,0.7,0.6,1.4,1.4,1.4h17.3
							c0.7,0,1.4-0.6,1.4-1.4v-23.2C-349.9,274.6-350.5,274-351.2,274"/>
					</g>
					<g id="g4206_1_" transform="translate(123.4304,495.54)">
						<path id="path4208_1_" class="st31" d="M-30.3-17h-4.1c0.7,0,1.4-0.6,1.4-1.4v-62c0-0.7-0.6-1.4-1.4-1.4h4.1
							c0.7,0,1.4,0.6,1.4,1.4v62C-28.9-17.6-29.5-17-30.3-17"/>
					</g>
					<g id="g4210_1_" transform="translate(494.4997,495.54)">
						<path id="path4212_1_" class="st32" d="M-351.2-17h-4.1c0.7,0,1.4-0.6,1.4-1.4V-30c0-0.7-0.6-1.4-1.4-1.4h4.1
							c0.7,0,1.4,0.6,1.4,1.4v11.7C-349.9-17.6-350.5-17-351.2-17"/>
					</g>
					<g id="g4214_1_" transform="translate(494.4997,122.8369)">
						<path id="path4216_1_" class="st33" d="M-351.2,305.4h-4.1c0.7,0,1.4-0.6,1.4-1.4v-11.7c0-0.7-0.6-1.4-1.4-1.4h4.1
							c0.7,0,1.4,0.6,1.4,1.4v11.7C-349.9,304.8-350.5,305.4-351.2,305.4"/>
					</g>
					<g id="g4218_1_" transform="translate(308.4938,350.6118)">
						<path id="path4220_1_" class="st34" d="M-190.3,108.4h-4.1c0.7,0,1.4-0.6,1.4-1.4V83.9c0-0.7-0.6-1.4-1.4-1.4h4.1
							c0.7,0,1.4,0.6,1.4,1.4V107C-189,107.8-189.6,108.4-190.3,108.4"/>
					</g>
					<g id="g4222_1_" transform="translate(494.4997,350.6118)">
						<path id="path4224_1_" class="st35" d="M-351.2,108.4h-4.1c0.7,0,1.4-0.6,1.4-1.4V83.9c0-0.7-0.6-1.4-1.4-1.4h4.1
							c0.7,0,1.4,0.6,1.4,1.4V107C-349.9,107.8-350.5,108.4-351.2,108.4"/>
					</g>
					<g id="g4226_1_" transform="translate(7.4997,303.2441)">
						<path id="path4228_1_" class="st36" d="M70,149.4V174c0,0.7,0.6,1.4,1.4,1.4h14.3c0.7,0,1.4-0.6,1.4-1.4v-62
							c0-0.7-0.6-1.4-1.4-1.4H71.4c-0.7,0-1.4,0.6-1.4,1.4v33.3"/>
					</g>
					<g id="g4230_1_" transform="translate(336.486,389.1631)">
						<path id="path4232_1_" class="st36" d="M-214.5,75h-21c-0.7,0-1.4,0.6-1.4,1.4V88c0,0.7,0.6,1.4,1.4,1.4h42.4
							c0.7,0,1.4-0.6,1.4-1.4V76.4c0-0.7-0.6-1.4-1.4-1.4h-17.3"/>
					</g>
					<g id="g4234_1_" transform="translate(494.4997,16.46)">
						<path id="path4236_1_" class="st36" d="M-351.2,397.4h-42.4c-0.7,0-1.4,0.6-1.4,1.4v11.7c0,0.7,0.6,1.4,1.4,1.4h42.4
							c0.7,0,1.4-0.6,1.4-1.4v-11.7C-349.9,398-350.5,397.4-351.2,397.4z"/>
					</g>
					<g id="g4238_1_" transform="translate(308.4938,159.1167)">
						<path id="path4240_1_" class="st36" d="M-190.3,274h-17.3c-0.7,0-1.4,0.6-1.4,1.4v23.2c0,0.7,0.6,1.4,1.4,1.4h17.3
							c0.7,0,1.4-0.6,1.4-1.4v-23.2C-189,274.6-189.6,274-190.3,274z"/>
					</g>
					<g id="g4242_1_" transform="translate(494.4997,159.1167)">
						<path id="path4244_1_" class="st36" d="M-351.2,274h-17.3c-0.7,0-1.4,0.6-1.4,1.4v23.2c0,0.7,0.6,1.4,1.4,1.4h17.3
							c0.7,0,1.4-0.6,1.4-1.4v-23.2C-349.9,274.6-350.5,274-351.2,274z"/>
					</g>
					<g id="g4246_1_" transform="translate(39.8259,454.9785)">
						<path id="path4248_1_" class="st36" d="M42.1,18.1h8.1"/>
					</g>
					<g id="g4250_1_" transform="translate(214.5329,309.8955)">
						<path id="path4252_1_" class="st36" d="M-109.1,143.6h8.1"/>
					</g>
					<g id="g4254_1_" transform="translate(214.5329,273.2441)">
						<path id="path4256_1_" class="st36" d="M-109.1,175.3h8.1"/>
					</g>
					<g id="g4258_1_" transform="translate(214.5329,236.5923)">
						<path id="path4260_1_" class="st36" d="M-109.1,207h8.1"/>
					</g>
					<g id="g4262_1_" transform="translate(400.5388,309.8955)">
						<path id="path4264_1_" class="st36" d="M-269.9,143.6h8.1"/>
					</g>
					<g id="g4266_1_" transform="translate(214.5329,459.5801)">
						<path id="path4268_1_" class="st36" d="M-109.1,14.1h33.2"/>
					</g>
					<g id="g4270_1_" transform="translate(214.5329,86.6387)">
						<path id="path4272_1_" class="st36" d="M-109.1,336.7h33.2"/>
					</g>
					<g id="g4274_1_" transform="translate(377.7526,52.6582)">
						<path id="path4276_1_" class="st36" d="M-250.2,366.1h11.2"/>
					</g>
					<g id="g4278_1_" transform="translate(214.5329,425.6001)">
						<path id="path4280_1_" class="st36" d="M-109.1,43.5H-99"/>
					</g>
					<g id="g4282_1_" transform="translate(400.5388,273.2441)">
						<path id="path4284_1_" class="st36" d="M-269.9,175.3h8.1"/>
					</g>
					<g id="g4286_1_" transform="translate(400.5388,236.5923)">
						<path id="path4288_1_" class="st36" d="M-269.9,207h8.1"/>
					</g>
					<g id="g4290_1_" transform="translate(39.8259,415.5391)">
						<path id="path4292_1_" class="st36" d="M42.1,52.2h8.1"/>
					</g>
					<g id="g4294_1_" transform="translate(39.8259,376.0996)">
						<path id="path4296_1_" class="st36" d="M42.1,86.3h4.1"/>
					</g>
				</g>
			</g>
		</g>
	</g>
	<g>
		<path class="st37" d="M216.7,140l11.5-11.5c6.3-6.3,6.3-16.6,0-23c-6.3-6.3-16.6-6.3-23,0c-6.3,6.3,0,0,0,0
			c-6.3-6.3-16.6-6.3-23,0c-6.3,6.3-6.3,16.6,0,23c6.3,6.3,11.5,11.5,11.5,11.5l5.9,5.9c3.1,3.1,8.1,3.1,11.2,0L216.7,140L216.7,140
			z"/>
		<path class="st38" d="M228.2,105.6c-0.6-0.6-1.2-1.1-1.9-1.6c-0.9,18.5-15.4,33.3-33.6,34.9l1.1,1.1l5.9,5.9
			c3.1,3.1,8.1,3.1,11.2,0l5.9-5.9l11.5-11.5C234.5,122.2,234.5,111.9,228.2,105.6L228.2,105.6z"/>
		<path class="st39" d="M186.1,118c-0.7,0-1.3-0.6-1.3-1.3c0-4.7,3.8-8.6,8.6-8.6c0.7,0,1.3,0.6,1.3,1.3c0,0.7-0.6,1.3-1.3,1.3
			c-3.3,0-5.9,2.7-5.9,5.9C187.4,117.4,186.9,118,186.1,118z"/>
		<path class="st16" d="M205.3,149.5c-2.4,0-4.7-0.9-6.5-2.7l-17.4-17.4c-6.8-6.8-6.8-18,0-24.8c6.5-6.5,17-6.8,23.9-0.9
			c6.9-6,17.3-5.7,23.9,0.9c6.8,6.8,6.8,18,0,24.8l-17.4,17.4C210,148.6,207.6,149.5,205.3,149.5z M193.8,102.2
			c-3.8,0-7.6,1.5-10.5,4.4c-5.8,5.8-5.8,15.3,0,21.1l17.4,17.4c2.6,2.6,6.8,2.6,9.3,0l5.9-5.9l11.5-11.5c5.8-5.8,5.8-15.3,0-21.1
			c-5.8-5.8-15.3-5.8-21.1,0c-0.5,0.5-1.3,0.5-1.9,0C201.4,103.6,197.6,102.2,193.8,102.2L193.8,102.2z"/>
	</g>
</g>
</svg>
