<?xml version="1.0" encoding="utf-8"?>
<!-- Generator: Adobe Illustrator 25.0.0, SVG Export Plug-In . SVG Version: 6.00 Build 0)  -->
<svg version="1.1" id="Layer_1" xmlns="http://www.w3.org/2000/svg" xmlns:xlink="http://www.w3.org/1999/xlink" x="0px" y="0px"
	 viewBox="0 0 181.8 150" style="enable-background:new 0 0 181.8 150;" xml:space="preserve">
<style type="text/css">
	.st0{fill:#F44336;}
	.st1{fill:#35414D;}
	.st2{fill:#656D78;}
	.st3{fill:#F4F6F8;}
	.st4{fill:#E4E8EB;}
	.st5{fill:#F16C7A;}
	.st6{fill:#3A312A;}
	.st7{fill:#D7E057;}
	.st8{fill:#8AC6DD;}
	.st9{fill:#FDF6EC;stroke:#35414D;stroke-width:1.7447;stroke-miterlimit:10;}
	.st10{fill:#656263;}
	.st11{fill:#7B7979;}
	.st12{fill:#41CDE0;}
	.st13{fill:#7BE1E8;}
	.st14{fill:#F7A840;}
	.st15{fill:#FFCD78;}
	.st16{fill:#DE6B5D;}
	.st17{fill:#FF8C78;}
</style>
<g>
	<g>
		<path class="st0" d="M179.8,140L141.8,102c-1.7-1.7-4.4-1.7-6,0l-2,2c-1.7,1.7-1.7,4.4,0,6l38.1,38.1c1.7,1.7,4.4,1.7,6,0l2-2
			C181.5,144.4,181.5,141.7,179.8,140z"/>
		<path class="st0" d="M171.8,102L133.8,140c-1.7,1.7-1.7,4.4,0,6l2,2c1.7,1.7,4.4,1.7,6,0l38.1-38.1c1.7-1.7,1.7-4.4,0-6l-2-2
			C176.2,100.3,173.5,100.3,171.8,102z"/>
		<path class="st1" d="M173.8,150c-1.3,0-2.5-0.5-3.5-1.5L156.8,135l-13.5,13.5c-1.9,1.9-5.1,1.9-7,0l-3-3c-1.9-1.9-1.9-5.1,0-7
			l13.5-13.5l-13.5-13.5c-1.9-1.9-1.9-5.1,0-7l3-3c1.9-1.9,5.1-1.9,7,0l13.5,13.5l13.5-13.5c1.9-1.9,5.1-1.9,7,0l3,3
			c1.9,1.9,1.9,5.1,0,7L166.8,125l13.5,13.5c0,0,0,0,0,0c1.9,1.9,1.9,5.1,0,7l-3,3C176.4,149.5,175.1,150,173.8,150z M156.8,129.9
			c0.5,0,1.1,0.2,1.5,0.6l15,15c0.3,0.3,0.7,0.3,1,0l3-3c0.3-0.3,0.3-0.7,0-1l-15-15c-0.8-0.8-0.8-2.2,0-3l15-15
			c0.3-0.3,0.3-0.7,0-1l-3-3c-0.3-0.3-0.7-0.3-1,0l-15,15c-0.8,0.8-2.2,0.8-3,0l-15-15c-0.3-0.3-0.7-0.3-1,0l-3,3
			c-0.3,0.3-0.3,0.7,0,1l15,15c0.8,0.8,0.8,2.2,0,3l-15,15c-0.3,0.3-0.3,0.7,0,1l3,3c0.3,0.3,0.7,0.3,1,0l15-15
			C155.7,130.1,156.3,129.9,156.8,129.9z"/>
	</g>
	<g>
		<polygon class="st2" points="124.4,16.7 123.9,16.7 123.9,29.2 4.2,29.2 4.2,15.3 2.6,13.3 3.4,5.5 7.2,2.9 15,4.2 111.4,4.2 
			111.4,2.9 123.9,4.2 		"/>
		<path class="st3" d="M123.9,29.2v103.6c0,7.2-4.8,13-10.8,13H15c-7.7,2.6-14.7,0-10.8-13l0,0V29.2L123.9,29.2z"/>
		<path class="st4" d="M123.9,29.2v103.6c0.5,6.9,4.1,15.4-10.8,13H15c-13,1.6-13-4.9-11.6-10.1c0.8,0.2,2.7,0.3,3.5,0.3h12.3
			c50.2,0,92.1-46.4,96.3-106.8L123.9,29.2z"/>
		<g>
			<g>
				<circle class="st5" cx="19.4" cy="16.7" r="4.3"/>
				<path class="st6" d="M19.4,22c-2.9,0-5.3-2.4-5.3-5.3s2.4-5.3,5.3-5.3s5.3,2.4,5.3,5.3S22.3,22,19.4,22z M19.4,13.3
					c-1.9,0-3.4,1.5-3.4,3.4s1.5,3.4,3.4,3.4c1.9,0,3.4-1.5,3.4-3.4C22.8,14.8,21.3,13.3,19.4,13.3z"/>
			</g>
			<g>
				<circle class="st7" cx="32.8" cy="16.7" r="4.3"/>
				<path class="st6" d="M32.8,22c-2.9,0-5.3-2.4-5.3-5.3s2.4-5.3,5.3-5.3s5.3,2.4,5.3,5.3S35.7,22,32.8,22z M32.8,13.3
					c-1.9,0-3.4,1.5-3.4,3.4s1.5,3.4,3.4,3.4c1.9,0,3.4-1.5,3.4-3.4C36.2,14.8,34.7,13.3,32.8,13.3z"/>
			</g>
			<g>
				<circle class="st8" cx="46.2" cy="16.7" r="4.3"/>
				<path class="st6" d="M46.2,22c-2.9,0-5.3-2.4-5.3-5.3s2.4-5.3,5.3-5.3c2.9,0,5.3,2.4,5.3,5.3S49.2,22,46.2,22z M46.2,13.3
					c-1.9,0-3.4,1.5-3.4,3.4s1.5,3.4,3.4,3.4c1.9,0,3.4-1.5,3.4-3.4C49.6,14.8,48.1,13.3,46.2,13.3z"/>
			</g>
			<path class="st9" d="M110.4,20.3H69.2c-2,0-3.6-1.6-3.6-3.6v0c0-2,1.6-3.6,3.6-3.6h41.1c2,0,3.6,1.6,3.6,3.6v0
				C114,18.7,112.4,20.3,110.4,20.3z"/>
		</g>
		<path class="st1" d="M114,4.2c5.5,0,10,4.5,10,10v121.7c0,5.5-4.5,10-10,10H14.1c-5.5,0-10-4.5-10-10V14.1c0-5.5,4.5-10,10-10H114
			 M114,0H14.1C6.3,0,0,6.3,0,14.1v121.7c0,7.8,6.3,14.1,14.1,14.1H114c7.8,0,14.1-6.3,14.1-14.1V14.1C128.1,6.3,121.7,0,114,0
			L114,0z"/>
		<g>
			<rect x="18.9" y="39.6" class="st10" width="89.2" height="30.5"/>
			<rect x="23.5" y="44.3" class="st11" width="79.8" height="21.1"/>
			<rect x="18.9" y="79.5" class="st12" width="39.9" height="56.4"/>
			<rect x="23.5" y="84.2" class="st13" width="30.5" height="47"/>
			<rect x="68.2" y="79.5" class="st14" width="39.9" height="23.5"/>
			<rect x="72.9" y="84.2" class="st15" width="30.5" height="14.1"/>
			<rect x="68.2" y="112.4" class="st16" width="39.9" height="23.5"/>
			<rect x="72.9" y="117.1" class="st17" width="30.5" height="14.1"/>
			<path class="st1" d="M110.3,39.6c0-1.2-1-2.2-2.2-2.2H18.9c-1.2,0-2.2,1-2.2,2.2v30.5c0,1.2,1,2.2,2.2,2.2h89.2
				c1.2,0,2.2-1,2.2-2.2L110.3,39.6L110.3,39.6z M105.9,67.9H21.1V41.8h84.8L105.9,67.9L105.9,67.9z"/>
			<path class="st1" d="M18.9,77.3c-1.2,0-2.2,1-2.2,2.2v56.4c0,1.2,1,2.2,2.2,2.2h39.9c1.2,0,2.2-1,2.2-2.2V79.5
				c0-1.2-1-2.2-2.2-2.2L18.9,77.3L18.9,77.3z M56.6,133.7H21.1v-52h35.5L56.6,133.7L56.6,133.7z"/>
			<path class="st1" d="M110.3,79.5c0-1.2-1-2.2-2.2-2.2H68.2c-1.2,0-2.2,1-2.2,2.2V103c0,1.2,1,2.2,2.2,2.2h39.9
				c1.2,0,2.2-1,2.2-2.2V79.5z M105.9,100.8H70.4V81.7h35.5V100.8z"/>
			<path class="st1" d="M108.1,110.2H68.2c-1.2,0-2.2,1-2.2,2.2v23.5c0,1.2,1,2.2,2.2,2.2h39.9c1.2,0,2.2-1,2.2-2.2v-23.5
				C110.3,111.2,109.3,110.2,108.1,110.2z M105.9,133.7H70.4v-19.1h35.5V133.7z"/>
		</g>
	</g>
</g>
</svg>
