<?xml version="1.0" encoding="utf-8"?>
<!-- Generator: Adobe Illustrator 25.0.0, SVG Export Plug-In . SVG Version: 6.00 Build 0)  -->
<svg version="1.1" id="Layer_1" xmlns="http://www.w3.org/2000/svg" xmlns:xlink="http://www.w3.org/1999/xlink" x="0px" y="0px"
	 viewBox="0 0 146.1 150" style="enable-background:new 0 0 146.1 150;" xml:space="preserve">
<style type="text/css">
	.st0{fill:#87796F;}
	.st1{fill:#35414D;}
	.st2{fill-rule:evenodd;clip-rule:evenodd;fill:#FFF2E8;}
	.st3{fill-rule:evenodd;clip-rule:evenodd;fill:#FFE4CF;}
	.st4{fill-rule:evenodd;clip-rule:evenodd;fill:#CECECE;}
	.st5{fill:#6F909E;}
	.st6{fill:#EF6D7A;}
	.st7{fill:#3A312A;}
	.st8{fill:#D6DF58;}
	.st9{fill:#8AC5DC;}
	.st10{fill-rule:evenodd;clip-rule:evenodd;fill:#838383;}
	.st11{fill-rule:evenodd;clip-rule:evenodd;fill:#FE9737;}
	.st12{fill-rule:evenodd;clip-rule:evenodd;fill:#B5ADB6;}
	.st13{fill-rule:evenodd;clip-rule:evenodd;fill:#F36B37;}
	.st14{fill-rule:evenodd;clip-rule:evenodd;fill:#595959;}
	.st15{fill:#FF5A5A;}
	.st16{fill:#E0E0E0;}
	.st17{fill:#0079A8;}
</style>
<g>
	<g>
		<g>
			<path class="st0" d="M33.1,148.7c-6.7,0-12.1-5.4-12.1-12.1V26.2c0-6.7,5.4-12.1,12.1-12.1h80.5c6.7,0,12.1,5.4,12.1,12.1v110.3
				c0,6.7-5.4,12.1-12.1,12.1H33.1z"/>
		</g>
		<g>
			<path class="st1" d="M113.6,15.4c6,0,10.8,4.8,10.8,10.8v110.3c0,6-4.8,10.8-10.8,10.8H33.1c-6,0-10.8-4.8-10.8-10.8V26.2
				c0-6,4.8-10.8,10.8-10.8H113.6 M113.6,12.9H33.1c-7.4,0-13.4,6-13.4,13.4v110.3c0,7.4,6,13.4,13.4,13.4h80.5
				c7.4,0,13.4-6,13.4-13.4V26.2C126.9,18.9,120.9,12.9,113.6,12.9L113.6,12.9z"/>
		</g>
	</g>
	<g id="g7750_12_" transform="translate(18.5,457.4355)">
		<g id="path7752_12_">
			<path class="st2" d="M9.5-425v108.3c0,0.9,0.7,1.6,1.5,1.6h24.6h52.6h10.4c0.8,0,1.5-0.7,1.5-1.6v-99.4l0-1c0-0.1,0-0.3-0.1-0.4
				H87.6c-3.4,0-6.2-3-6.2-6.6l0-12.3c-0.1-0.1-0.2-0.1-0.4-0.1h-1.2H11c-0.8,0-1.5,0.7-1.5,1.6V-425z"/>
		</g>
	</g>
	<g id="g7754_12_" transform="translate(257.3203,504.5)">
		<g id="path7756_12_">
			<path class="st3" d="M-174.5-483.6c11.8,13,19.6,34.1,19.6,58c0,5.2-0.4,10.2-1.1,15.1c-0.2,1.6-0.5,3.1-0.8,4.6
				c-0.3,1.8-0.7,3.6-1.2,5.4c-4.1,16.6-12.1,30.2-22.4,38.3h29.6h10.4c0.8,0,1.5-0.7,1.5-1.6v-18.4v-24.3v-56.7l0-1
				c0-0.1,0-0.3-0.1-0.4l-18.7-18.9c-0.1-0.1-0.2-0.1-0.4-0.1h-1.2H-174.5z"/>
		</g>
	</g>
	<g id="g7758_12_" transform="translate(331.5508,504.1592)">
		<g id="path7760_12_">
			<path class="st4" d="M-231.7-483.2l0,12.3c0,3.6,2.8,6.6,6.2,6.6h12.5c-0.1-0.2-0.3-0.4-0.8-0.9l-16.9-17.1
				C-231.2-482.8-231.4-483.1-231.7-483.2"/>
		</g>
	</g>
	<g id="g7762_12_" transform="translate(331.5508,504.1592)">
		<g id="path7764_12_">
			<path class="st1" d="M-214.1-463h-11.3c-4.1,0-7.5-3.5-7.5-7.9l0-12.3c0-0.7,0.6-1.3,1.3-1.3h0c0.7,0,1.3,0.6,1.3,1.3l0,12.3
				c0,2.9,2.2,5.3,4.9,5.3h11.3c0.7,0,1.3,0.6,1.3,1.3C-212.8-463.5-213.4-463-214.1-463z"/>
		</g>
	</g>
	<g id="g7766_12_" transform="translate(413.1929,241.0635)">
		<g id="path7768_12_">
			<path class="st1" d="M-296.1-97.4h-87.6c-1.6,0-2.8-1.3-2.8-2.9v-118.2c0-1.6,1.3-2.9,2.8-2.9h70c1,0,1.4,0.5,2.1,1.1l0.3,0.3
				l17.6,17.8c0.3,0.3,0.4,0.6,0.4,0.9c0.1,0.2,0.2,0.4,0.2,0.6v100.3C-293.3-98.7-294.5-97.4-296.1-97.4z M-383.9-167.9v67.6
				c0,0.2,0.1,0.4,0.3,0.4h87.6c0.1,0,0.3-0.2,0.3-0.4v-100.3l-17.7-17.9c-0.1-0.1-0.3-0.3-0.3-0.3h-69.8c-0.1,0-0.3,0.1-0.3,0.3
				V-167.9z"/>
		</g>
	</g>
	<g>
		<g>
			<path class="st5" d="M80.2,8.6c0-3.8-3.1-6.9-6.9-6.9c-3.8,0-6.9,3.1-6.9,6.9H52.6v13.8c0,1.8,1.5,3.3,3.3,3.3h34.7
				c1.8,0,3.3-1.5,3.3-3.3V8.6H80.2z"/>
		</g>
		<g>
			<path class="st1" d="M90.7,27.4H58.3c0,0,0,0,0,0h-2.3c-2.8,0-5-2.2-5-5V8.6c0-0.9,0.7-1.7,1.7-1.7h12.3C65.7,3,69.2,0,73.3,0
				s7.6,3,8.4,6.9H94c0.9,0,1.7,0.7,1.7,1.7v13.8C95.7,25.1,93.4,27.4,90.7,27.4z M60.9,24h29.8c0.9,0,1.7-0.7,1.7-1.7V10.2H80.2
				c-0.9,0-1.7-0.7-1.7-1.7c0-2.9-2.3-5.2-5.2-5.2c-2.9,0-5.2,2.3-5.2,5.2c0,0.9-0.7,1.7-1.7,1.7H54.3v12.1c0,0.9,0.7,1.7,1.7,1.7
				L60.9,24C60.8,24,60.8,24,60.9,24z"/>
		</g>
		<g>
			<path class="st1" d="M87.1,20.6H59.5c-0.9,0-1.7-0.7-1.7-1.7c0-0.9,0.7-1.7,1.7-1.7h27.6c0.9,0,1.7,0.7,1.7,1.7
				C88.8,19.8,88,20.6,87.1,20.6z"/>
		</g>
		<g>
			<g>
				<g>
					<path class="st1" d="M73.3,10.2c-0.4,0-0.9-0.2-1.2-0.5c-0.3-0.3-0.5-0.7-0.5-1.2c0-0.4,0.2-0.9,0.5-1.2
						c0.1-0.1,0.2-0.1,0.3-0.2c0.1-0.1,0.2-0.1,0.3-0.2C72.8,7,72.9,7,73,6.9c0.5-0.1,1.1,0.1,1.5,0.5C74.8,7.7,75,8.1,75,8.6
						c0,0.4-0.2,0.9-0.5,1.2C74.2,10.1,73.8,10.2,73.3,10.2z"/>
				</g>
			</g>
		</g>
	</g>
	<g>
		<g>
			<path class="st6" d="M53.4,46.5h6.8v9.8h-6.8L53.4,46.5z"/>
		</g>
		<g>
			<path class="st7" d="M60.3,56.8h-6.8c-0.3,0-0.5-0.2-0.5-0.5v-9.8c0-0.3,0.2-0.5,0.5-0.5h6.8c0.3,0,0.5,0.2,0.5,0.5v9.8
				C60.8,56.6,60.6,56.8,60.3,56.8z M54,55.7h5.8V47H54L54,55.7z"/>
		</g>
		<g>
			<path class="st8" d="M63,36.6h6.8v19.7H63V36.6z"/>
		</g>
		<g>
			<path class="st7" d="M69.8,56.8H63c-0.3,0-0.5-0.2-0.5-0.5V36.6c0-0.3,0.2-0.5,0.5-0.5h6.8c0.3,0,0.5,0.2,0.5,0.5v19.7
				C70.3,56.6,70.1,56.8,69.8,56.8z M63.5,55.7h5.8V37.1h-5.8V55.7z"/>
		</g>
		<g>
			<path class="st9" d="M72.5,41.6h6.8v14.7h-6.8V41.6z"/>
		</g>
		<g>
			<path class="st7" d="M79.3,56.8h-6.8c-0.3,0-0.5-0.2-0.5-0.5V41.6c0-0.3,0.2-0.5,0.5-0.5h6.8c0.3,0,0.5,0.2,0.5,0.5v14.7
				C79.8,56.6,79.6,56.8,79.3,56.8z M73,55.7h5.8V42.1H73V55.7z"/>
		</g>
		<g>
			<path class="st0" d="M82,32.7h6.8v23.6H82V32.7z"/>
		</g>
		<g>
			<path class="st7" d="M88.8,56.8H82c-0.3,0-0.5-0.2-0.5-0.5V32.7c0-0.3,0.2-0.5,0.5-0.5h6.8c0.3,0,0.5,0.2,0.5,0.5v23.6
				C89.4,56.6,89.1,56.8,88.8,56.8L88.8,56.8z M82.5,55.7h5.8V33.2h-5.8V55.7z"/>
		</g>
	</g>
	<g>
		<path class="st1" d="M35.8,66.8H108c0.5,0,1-0.4,1-1s-0.4-1-1-1H35.8c-0.5,0-1,0.4-1,1S35.3,66.8,35.8,66.8L35.8,66.8z"/>
	</g>
	<g>
		<path class="st1" d="M35.8,75.2H108c0.5,0,1-0.4,1-1c0-0.5-0.4-1-1-1H35.8c-0.5,0-1,0.4-1,1C34.8,74.7,35.3,75.2,35.8,75.2
			L35.8,75.2z"/>
	</g>
	<g>
		<path class="st1" d="M107.6,81.6H54.3c-0.8,0-1.4,0.4-1.4,1c0,0.5,0.6,1,1.4,1h53.3c0.8,0,1.4-0.4,1.4-1
			C109,82,108.4,81.6,107.6,81.6z"/>
	</g>
	<g>
		<path class="st1" d="M107.8,89.9H61c-0.7,0-1.2,0.4-1.2,1s0.5,1,1.2,1h46.8c0.7,0,1.2-0.4,1.2-1S108.5,89.9,107.8,89.9z"/>
	</g>
	<g>
		<path class="st1" d="M107.7,98.2H68.5c-0.7,0-1.3,0.4-1.3,1c0,0.5,0.6,1,1.3,1h39.2c0.7,0,1.3-0.4,1.3-1
			C109,98.6,108.4,98.2,107.7,98.2z"/>
	</g>
	<g>
		<path class="st1" d="M108,106.5H79.5c-0.5,0-1,0.4-1,1c0,0.5,0.4,1,1,1H108c0.5,0,1-0.4,1-1C109,107,108.6,106.5,108,106.5z"/>
	</g>
	<g>
		<path class="st1" d="M108,114.8H79.5c-0.5,0-1,0.4-1,1s0.4,1,1,1H108c0.5,0,1-0.4,1-1S108.6,114.8,108,114.8z"/>
	</g>
	<g>
		<path class="st1" d="M108,123.2H70.6c-0.5,0-1,0.4-1,1c0,0.5,0.4,1,1,1H108c0.5,0,1-0.4,1-1C109,123.6,108.6,123.2,108,123.2z"/>
	</g>
	<g>
		<g id="g7770_12_" transform="translate(330.2446,64.9756)">
			<g id="path7772_12_">
				<path class="st1" d="M-238.8,70.1c-1.5,0-2.7-1-3.7-2.1c-1.3-1.2-1.7-0.9-2.9,0.2c-1.3,1.1-3.4,3-6.6,0
					c-0.4-0.4-0.5-1.1-0.1-1.5c0.4-0.4,1.1-0.5,1.5-0.1c1.9,1.7,2.6,1.1,3.8,0c1.2-1,3.1-2.7,5.7-0.1c0.7,0.7,1.6,1.5,2.3,1.5
					c0.4,0,0.9-0.4,1.4-1c0.6-0.8,1.1-1.6,1.5-2.3c0.7-1.3,1.4-2.5,2.7-2.7c1.5-0.3,2.3,1.1,3,2.2c1,1.6,2.1,3.3,4.6,3.1
					c0.6-0.1,1.1,0.4,1.2,0.9c0.1,0.6-0.4,1.1-0.9,1.2c-3.9,0.4-5.6-2.4-6.7-4.1c-0.3-0.5-0.7-1.2-0.9-1.3c-0.3,0.1-0.7,0.8-1.2,1.7
					c-0.4,0.7-0.9,1.7-1.6,2.6c-0.9,1.2-1.9,1.7-2.9,1.8C-238.7,70.1-238.7,70.1-238.8,70.1z"/>
			</g>
		</g>
		<g id="g7774_12_" transform="translate(423.1602,447.0527)">
			<g id="path7776_12_">
				<path class="st4" d="M-295.4-407.6l9.6,2.9l2.4-8.2c0.8-2.6-0.7-5.4-3.4-6.2c-2.6-0.8-5.4,0.7-6.2,3.3L-295.4-407.6z"/>
			</g>
		</g>
		<g id="g7778_12_" transform="translate(325.644,101.1182)">
			<g id="path7780_12_">
				<path class="st10" d="M-221.9,23.3l1,8.4c0.1,0.6,0.1,0.6,0.5,0.1l5.4-6.5l5.8-7l-5.5-6.7l-8.3,2.6L-221.9,23.3z"/>
			</g>
		</g>
		<g id="g7782_12_" transform="translate(412.0854,441.0947)">
			<g id="path7784_12_">
				<path class="st11" d="M-287.1-400.2l-22.3,74.5l6.9,2.1l6.9,2.1l20.6-69l1.6-5.5c0.3-1.2-0.3-2.4-1.5-2.7l-9.6-2.9
					C-285.5-402-286.7-401.4-287.1-400.2"/>
			</g>
		</g>
		<g id="g7786_12_" transform="translate(452.5229,474.4854)">
			<g id="path7788_12_">
				<path class="st12" d="M-317.6-441.8l-2.4,8.2l4.8,1.4l2.4-8.2c0.8-2.6-0.7-5.4-3.4-6.2c-0.9-0.3-1.8-0.3-2.6-0.1
					C-317.6-445.4-317.1-443.6-317.6-441.8"/>
			</g>
		</g>
		<g id="g7790_12_" transform="translate(441.9307,407.96)">
			<g id="path7792_12_">
				<path class="st13" d="M-309.6-358.9l-19.7,65.8l-1,3.2l4.8,1.4l20.6-69l1.6-5.5c0.3-1.2-0.3-2.4-1.5-2.7l-4.8-1.4
					c1.2,0.3,1.8,1.6,1.5,2.7L-309.6-358.9z"/>
			</g>
		</g>
		<g id="g7794_12_" transform="translate(357.9888,127.2178)">
			<g id="path7796_12_">
				<path class="st14" d="M-246.3-9.2l-5.8,7l-1.8,2.1l0.6,5.7c0.1,0.6,0.1,0.6,0.5,0.1l5.4-6.5l5.8-7L-246.3-9.2z"/>
			</g>
		</g>
		<g id="g7798_12_" transform="translate(461.3545,402.1719)">
			<g id="path7800_12_">
				<path class="st1" d="M-324.4-321.5c-0.1,0-0.2,0-0.3,0c-0.6-0.2-0.9-0.8-0.7-1.3l7.7-25.8l-6.9-2.1c-0.6-0.2-0.9-0.8-0.7-1.3
					c0.2-0.6,0.7-0.9,1.3-0.7l7.9,2.4c0.3,0.1,0.5,0.3,0.6,0.5c0.1,0.2,0.2,0.5,0.1,0.8l-8,26.8
					C-323.5-321.8-323.9-321.5-324.4-321.5z"/>
			</g>
		</g>
		<g id="g7802_12_" transform="translate(374.0615,313.9443)">
			<g id="path7804_12_">
				<path class="st1" d="M-257.6-193.4c-0.1,0-0.2,0-0.3,0l-13.7-4.1c-0.3-0.1-0.5-0.3-0.6-0.5c-0.1-0.2-0.2-0.5-0.1-0.8l10.5-35.1
					c0.2-0.6,0.8-0.9,1.3-0.7c0.6,0.2,0.9,0.8,0.7,1.3l-10.2,34.1l11.7,3.5l22-73.5c0.1-0.3,0.1-0.6-0.1-0.9
					c-0.1-0.3-0.4-0.5-0.7-0.5l-9.6-2.9c-0.6-0.2-1.2,0.2-1.4,0.8l-9.3,31.3c-0.2,0.6-0.8,0.9-1.3,0.7c-0.6-0.2-0.9-0.8-0.7-1.3
					l9.3-31.3c0.5-1.7,2.3-2.7,4-2.2l9.6,2.9c0.8,0.2,1.5,0.8,1.9,1.6c0.4,0.8,0.5,1.6,0.3,2.5l-22.3,74.5
					C-256.7-193.7-257.1-193.4-257.6-193.4z"/>
			</g>
		</g>
		<g id="g7806_12_" transform="translate(331.5225,66.168)">
			<g id="path7808_12_">
				<path class="st1" d="M-226.6,68.2c-0.1,0-0.2,0-0.3,0c-0.7-0.2-0.8-0.8-0.9-1.2c0,0,0-0.1,0-0.1l-2-17.5c0-0.3,0.1-0.7,0.4-0.9
					c0.3-0.2,0.6-0.3,1-0.2l13.7,4.1c0.3,0.1,0.6,0.4,0.7,0.7c0.1,0.3,0,0.7-0.2,1l-11.3,13.6c0,0,0,0,0,0
					C-225.8,67.8-226.1,68.2-226.6,68.2z M-226.3,66.9L-226.3,66.9L-226.3,66.9z M-227.6,50.6l1.6,14.2l9.1-11L-227.6,50.6z"/>
			</g>
		</g>
		<g id="g7810_12_" transform="translate(423.1602,447.0527)">
			<g id="path7812_12_">
				<path class="st1" d="M-285.9-403.7c-0.1,0-0.2,0-0.3,0l-9.6-2.9c-0.3-0.1-0.5-0.3-0.6-0.5s-0.2-0.5-0.1-0.8l2.4-8.2
					c0.5-1.5,1.5-2.8,2.9-3.6c1.4-0.8,3.1-0.9,4.6-0.5c3.2,0.9,5,4.3,4.1,7.5l-2.4,8.2C-285-404-285.4-403.7-285.9-403.7z
					 M-294.1-408.3l7.5,2.3l2.1-7.2c0.6-2.1-0.6-4.3-2.6-4.9c-1-0.3-2.1-0.2-3,0.3c-0.9,0.5-1.6,1.3-1.9,2.3L-294.1-408.3z"/>
			</g>
		</g>
	</g>
	<g>
		<g>
			<g>
				<circle class="st15" cx="31.5" cy="118.5" r="30.1"/>
			</g>
			<g>
				<path class="st1" d="M31.5,150C14.1,150,0,135.9,0,118.5S14.1,87,31.5,87S63,101.1,63,118.5S48.9,150,31.5,150z M31.5,89.7
					c-15.9,0-28.8,12.9-28.8,28.8s12.9,28.8,28.8,28.8s28.8-12.9,28.8-28.8S47.4,89.7,31.5,89.7z"/>
			</g>
		</g>
		<g>
			<g>
				<path class="st16" d="M34.2,110.3H15.1c-1.5,0-2.7,1.2-2.7,2.7v8.2c0,1.5,1.2,2.7,2.7,2.7h19.2l13.7,5.5v-24.7L34.2,110.3z"/>
			</g>
			<g>
				<path class="st1" d="M47.9,130.8c-0.2,0-0.3,0-0.5-0.1L34,125.3H15.1c-2.3,0-4.1-1.8-4.1-4.1V113c0-2.3,1.8-4.1,4.1-4.1H34
					l13.5-5.4c0.4-0.2,0.9-0.1,1.3,0.1c0.4,0.3,0.6,0.7,0.6,1.1v24.7c0,0.5-0.2,0.9-0.6,1.1C48.5,130.7,48.2,130.8,47.9,130.8z
					 M15.1,111.7c-0.8,0-1.4,0.6-1.4,1.4v8.2c0,0.8,0.6,1.4,1.4,1.4h19.2c0.2,0,0.3,0,0.5,0.1l11.8,4.7v-20.6l-11.8,4.7
					c-0.2,0.1-0.3,0.1-0.5,0.1L15.1,111.7z"/>
			</g>
		</g>
		<g>
			<g>
				<path class="st17" d="M23.3,137.7h-2.7c-1.5,0-2.7-1.2-2.7-2.7v-11H26v11C26,136.4,24.8,137.7,23.3,137.7z"/>
			</g>
			<g>
				<path class="st1" d="M23.3,139h-2.7c-2.3,0-4.1-1.8-4.1-4.1v-11c0-0.8,0.6-1.4,1.4-1.4H26c0.8,0,1.4,0.6,1.4,1.4v11
					C27.4,137.2,25.5,139,23.3,139z M19.2,125.3v9.6c0,0.8,0.6,1.4,1.4,1.4h2.7c0.8,0,1.4-0.6,1.4-1.4v-9.6H19.2z"/>
			</g>
		</g>
		<g>
			<g>
				<path class="st1" d="M34.2,125.3c-0.8,0-1.4-0.6-1.4-1.4v-13.7c0-0.8,0.6-1.4,1.4-1.4s1.4,0.6,1.4,1.4V124
					C35.6,124.7,35,125.3,34.2,125.3z"/>
			</g>
		</g>
	</g>
</g>
</svg>
