<?xml version="1.0" encoding="utf-8"?>
<!-- Generator: Adobe Illustrator 25.0.0, SVG Export Plug-In . SVG Version: 6.00 Build 0)  -->
<svg version="1.1" id="Layer_1" xmlns="http://www.w3.org/2000/svg" xmlns:xlink="http://www.w3.org/1999/xlink" x="0px" y="0px"
	 viewBox="0 0 130 535.6" style="enable-background:new 0 0 130 535.6;" xml:space="preserve">
<style type="text/css">
	.st0{fill:#70D6F9;}
	.st1{fill:#B598F9;}
	.st2{fill:#F5C84C;}
	.st3{fill:#DAE6F1;}
	.st4{fill:#FC657E;}
	.st5{fill:#F98FA6;}
	.st6{fill:#F9D0B4;}
	.st7{fill:#87D147;}
	.st8{fill:#35414D;}
	.st9{fill:#8AC5DC;}
	.st10{fill:#7FB8C9;}
	.st11{fill:#B7C0D7;}
	.st12{fill:#57B7EB;}
	.st13{fill:#A7AFC1;}
	.st14{fill:#AAE1F9;}
	.st15{fill:#F89C8D;}
	.st16{fill:#F8664F;}
	.st17{fill:#FFE4CF;}
	.st18{fill:#E8CFBF;}
	.st19{fill:#FFCF66;}
	.st20{fill:#EF6D7A;}
	.st21{fill:#87796F;}
	.st22{fill:#D6DF58;}
</style>
<g>
	<g id="Layer_23_5_">
		<g>
			<g>
				<g>
					<circle class="st0" cx="57" cy="46.8" r="10.9"/>
				</g>
			</g>
			<g>
				<g>
					<ellipse class="st1" cx="24.8" cy="62.3" rx="12" ry="12"/>
				</g>
			</g>
			<g>
				<g>
					<circle class="st2" cx="32.6" cy="14.6" r="13.4"/>
				</g>
			</g>
			<g>
				<g>
					<path class="st3" d="M34.5,55.4c1,1.5,1.7,3.2,2,4.9l12.7-5.9c-1.3-1.3-2.2-2.9-2.7-4.6L34.5,55.4z"/>
				</g>
			</g>
			<g>
				<g>
					<path class="st3" d="M42.8,23.3c-1.2,1.4-2.6,2.5-4.2,3.3l9.7,13.7c1.1-1.5,2.5-2.6,4.1-3.4L42.8,23.3L42.8,23.3z"/>
				</g>
			</g>
			<g>
				<g>
					<path class="st3" d="M51.6,91L54,93c1.4,1.1,3.5,0.9,4.6-0.6l37.7-48.2c1.1-1.4,0.9-3.5-0.6-4.6l-2.5-1.9
						c-1.4-1.1-3.5-0.9-4.6,0.6L51,86.4C49.9,87.9,50.2,89.9,51.6,91z"/>
				</g>
			</g>
			<g>
				<g>
					<path class="st4" d="M59.6,91.2c3.8-1.5,14.6-4.7,26.4,2.8c1.7,1.1,3.9,0.7,5.1-0.8l13.8-17.7c1.2-1.6,1-3.8-0.4-5.2
						c-10.1-9.6-9.7-20.8-9.1-24.9L59.6,91.2z"/>
				</g>
			</g>
			<g>
				<g>
					<path class="st5" d="M91.7,92.4l13.6,10.7c4.4,3.5,10.9,2.7,14.4-1.8c3.5-4.4,2.7-10.9-1.8-14.4l-13.6-10.7L91.7,92.4z"/>
				</g>
			</g>
			<g>
				<g>
					<path class="st3" d="M81.6,112.1c-2.6,2-3.1,5.8-1,8.4c2,2.6,5.8,3.1,8.4,1l21-16.5c-1.6-0.3-3.2-0.9-4.6-2l-6.1-4.8
						L81.6,112.1L81.6,112.1z"/>
				</g>
			</g>
			<g>
				<g>
					<circle class="st6" cx="57.7" cy="44.6" r="3.6"/>
				</g>
			</g>
			<g>
				<g>
					<path class="st2" d="M54.8,48.5c-2.9-0.9-5.9,0.7-6.8,3.6l-0.2,0.6c1.3,2.1,3.4,3.7,5.9,4.5c2.6,0.8,5.2,0.6,7.5-0.4l0.2-0.6
						c0.9-2.9-0.7-5.9-3.6-6.8L54.8,48.5L54.8,48.5z"/>
				</g>
			</g>
			<g>
				<g>
					<circle class="st6" cx="25.5" cy="59.9" r="4"/>
				</g>
			</g>
			<g>
				<g>
					<path class="st0" d="M22.3,64.2c-3.1-1-6.5,0.8-7.5,4l-0.2,0.6c1.5,2.3,3.7,4.1,6.6,5s5.7,0.6,8.2-0.4l0.2-0.6
						c1-3.1-0.8-6.5-4-7.5L22.3,64.2L22.3,64.2z"/>
				</g>
			</g>
			<g>
				<g>
					<circle class="st6" cx="33.4" cy="12" r="4.5"/>
				</g>
			</g>
			<g>
				<g>
					<path class="st4" d="M29.9,16.7c-3.5-1.1-7.3,0.9-8.4,4.4l-0.2,0.7c1.6,2.6,4.2,4.6,7.3,5.6s6.4,0.7,9.2-0.5l0.2-0.7
						c1.1-3.5-0.9-7.3-4.4-8.4L29.9,16.7L29.9,16.7z"/>
				</g>
			</g>
			<g>
				<g>
					<path class="st7" d="M52.4,14.2c1.4,0.8,2.3,2.3,2.1,3.9c0,0,0.1,0.1,0.1,0c0.8-1.4,2.3-2.2,3.9-2c0.1,0,0.1-0.1,0-0.1
						c-1.4-0.8-2.3-2.3-2.1-3.9c0,0-0.1-0.1-0.1,0c-0.8,1.4-2.3,2.2-3.9,2C52.4,14,52.4,14.1,52.4,14.2z"/>
				</g>
			</g>
			<g>
				<g>
					<path class="st0" d="M112.8,60.8c-0.3,0.9,0.2,1.8,1.1,2l1.1,0.3l-0.4,1.2c-0.3,0.8,0.3,1.7,1.1,2c0.9,0.3,1.8-0.2,2-1.1
						l0.3-1.1l1.1,0.3c0.9,0.3,1.8-0.2,2-1.1c0.3-0.9-0.2-1.8-1.1-2l-1.1-0.3l0.4-1.2c0.3-0.8-0.3-1.7-1.1-2c-0.9-0.3-1.8,0.2-2,1.1
						L116,60l-1.2-0.4C114,59.4,113.1,59.9,112.8,60.8z"/>
				</g>
			</g>
			<g>
				<g>
					<path class="st2" d="M126.6,73.7c-0.3,0.9,0.2,1.9,1.1,2.2c0.9,0.3,1.9-0.2,2.2-1.1s-0.2-1.9-1.1-2.2
						C127.9,72.3,126.9,72.8,126.6,73.7z"/>
				</g>
			</g>
			<g>
				<g>
					<path class="st4" d="M0.1,51.9c-0.3,0.9,0.2,1.9,1.1,2.2c0.9,0.3,1.9-0.2,2.2-1.1c0.3-0.9-0.2-1.9-1.1-2.2
						C1.3,50.5,0.4,51,0.1,51.9z"/>
				</g>
			</g>
			<g>
				<g>
					<path class="st2" d="M10.7,40.3c2.1,1.1,3.3,3.3,3,5.6c0,0.1,0.2,0.2,0.2,0.1c1.1-2,3.3-3.2,5.7-2.9c0.1,0,0.2-0.2,0.1-0.2
						c-2.1-1.1-3.3-3.3-3-5.6c0-0.1-0.2-0.2-0.2-0.1c-1.1,2-3.3,3.2-5.7,2.9C10.6,40.1,10.6,40.3,10.7,40.3z"/>
				</g>
			</g>
			<g>
				<g>
					<g>
						<path class="st8" d="M60.6,35.1c-6.4-2-13.2,1.6-15.2,8c-2,6.4,1.6,13.2,8,15.2c6.4,2,13.2-1.6,15.2-8
							C70.6,43.9,67,37.1,60.6,35.1L60.6,35.1z M47.8,43.9c1.6-5.1,6.9-7.9,12-6.3c5.1,1.6,7.9,6.9,6.3,12s-6.9,7.9-12,6.3
							C49.1,54.4,46.3,49,47.8,43.9z"/>
					</g>
				</g>
			</g>
			<g>
				<g>
					<g>
						<path class="st8" d="M28.7,49.7c-7-2.2-14.4,1.8-16.6,8.8s1.8,14.4,8.8,16.6s14.4-1.8,16.6-8.8C39.6,59.3,35.7,51.8,28.7,49.7
							L28.7,49.7z M21.6,72.6c-5.6-1.7-8.8-7.8-7.1-13.4c1.7-5.6,7.8-8.8,13.4-7.1s8.8,7.8,7.1,13.4S27.2,74.3,21.6,72.6L21.6,72.6z
							"/>
					</g>
				</g>
			</g>
			<g>
				<g>
					<g>
						<path class="st8" d="M18.6,10.3c-2.4,7.7,1.9,15.9,9.7,18.3s15.9-1.9,18.3-9.7S44.6,3,36.9,0.7S21,2.6,18.6,10.3z M21,11.1
							c2-6.4,8.7-9.9,15.1-8s9.9,8.7,8,15.1c-2,6.4-8.7,9.9-15.1,8S19.1,17.4,21,11.1z"/>
					</g>
				</g>
			</g>
			<g>
				<g>
					<path class="st8" d="M34.2,54.2c-0.6,0.3-0.9,1.1-0.6,1.7c0.2,0.3,0.4,0.6,0.8,0.7c0.3,0.1,0.6,0.1,0.9-0.1l11.5-5.4
						c0.6-0.3,0.9-1.1,0.6-1.7c-0.3-0.6-1.1-0.9-1.7-0.6L34.2,54.2L34.2,54.2z"/>
				</g>
			</g>
			<g>
				<g>
					<path class="st8" d="M36.3,59.1c-0.6,0.3-0.9,1.1-0.6,1.7c0.2,0.3,0.4,0.6,0.8,0.7c0.3,0.1,0.6,0.1,0.9-0.1l12.2-5.7
						c0.6-0.3,0.9-1.1,0.6-1.7c-0.3-0.6-1.1-0.9-1.7-0.6L36.3,59.1L36.3,59.1z"/>
				</g>
			</g>
			<g>
				<g>
					<path class="st8" d="M38,25.8c-0.6,0.4-0.7,1.2-0.3,1.8L47,40.8c0.2,0.2,0.4,0.4,0.7,0.5c0.4,0.1,0.8,0.1,1.1-0.2
						c0.6-0.4,0.7-1.2,0.3-1.8l-9.4-13.3C39.4,25.5,38.6,25.3,38,25.8L38,25.8z"/>
				</g>
			</g>
			<g>
				<g>
					<path class="st8" d="M42.2,22.5c-0.6,0.4-0.7,1.2-0.3,1.8l9.2,13c0.2,0.2,0.4,0.4,0.7,0.5c0.4,0.1,0.8,0.1,1.1-0.2
						c0.6-0.4,0.7-1.2,0.3-1.8l-9.2-13C43.6,22.2,42.8,22.1,42.2,22.5L42.2,22.5z"/>
				</g>
			</g>
			<g>
				<g>
					<g>
						<path class="st8" d="M50,85.6c-0.7,1-1.1,2.1-0.9,3.4c0.1,1.2,0.8,2.3,1.7,3l2.5,1.9c0.4,0.3,0.9,0.6,1.5,0.8
							c1.8,0.5,3.7,0,4.9-1.5L97.3,45c0.7-1,1.1-2.1,0.9-3.4c-0.1-1.2-0.8-2.3-1.7-3l-2.5-1.9c-2-1.5-4.8-1.2-6.4,0.8L50,85.6
							L50,85.6z M52,87.2l37.7-48.2c0.5-0.7,1.4-0.9,2.2-0.7c0.2,0.1,0.4,0.2,0.6,0.3l2.5,1.9c0.4,0.3,0.7,0.8,0.7,1.3
							c0.1,0.5-0.1,1-0.4,1.5L57.6,91.6c-0.3,0.4-0.8,0.7-1.3,0.7c-0.5,0.1-1-0.1-1.5-0.4L52.4,90c-0.4-0.3-0.7-0.8-0.7-1.3
							C51.6,88.2,51.7,87.6,52,87.2z"/>
					</g>
				</g>
			</g>
			<g>
				<g>
					<path class="st8" d="M59.2,90c-0.7,0.3-1,1-0.7,1.7c0.1,0.4,0.5,0.6,0.8,0.7c0.3,0.1,0.6,0.1,0.8,0c3.8-1.5,14-4.3,25.1,2.8
						c2.3,1.4,5.2,1,6.8-1.1l13.8-17.7c1.6-2.1,1.4-5-0.5-6.9c-9.6-9.1-9.3-19.6-8.7-23.7c0.1-0.7-0.4-1.3-1.1-1.4
						c-0.7-0.1-1.3,0.4-1.4,1.1c-0.6,4.5-0.9,16,9.5,25.9c1,0.9,1.1,2.4,0.3,3.5L90.1,92.4c-0.8,1-2.3,1.3-3.4,0.5
						C74.5,85.2,63.4,88.3,59.2,90L59.2,90z"/>
				</g>
			</g>
			<g>
				<g>
					<path class="st8" d="M91.1,91.9c-0.4,0.6-0.3,1.4,0.2,1.8l13.2,10.4c1.1,0.9,2.4,1.5,3.7,1.9c4.4,1.4,9.4,0,12.5-3.9
						c3.9-5,3-12.2-2-16.2l-13.4-10.5c-0.6-0.4-1.4-0.3-1.8,0.2c-0.4,0.6-0.3,1.4,0.2,1.8L117.1,88c3.9,3,4.6,8.7,1.5,12.6
						c-3,3.9-8.7,4.6-12.6,1.5L92.8,91.7C92.3,91.3,91.5,91.4,91.1,91.9L91.1,91.9z"/>
				</g>
			</g>
			<g>
				<g>
					<path class="st8" d="M80.8,111.1c-3.2,2.5-3.7,7.1-1.2,10.2c0.9,1.2,2.2,2,3.6,2.5c0.4,0.1,0.8,0.2,1.3,0.3
						c1.9,0.2,3.8-0.3,5.4-1.5l20.8-16.3c0.6-0.4,0.7-1.2,0.2-1.8c-0.4-0.6-1.2-0.7-1.8-0.2l-20.8,16.3c-1,0.8-2.2,1.1-3.5,1
						c-1.3-0.2-2.4-0.8-3.1-1.8c-1.6-2-1.2-5,0.8-6.6l17.2-13.5c0.6-0.4,0.7-1.2,0.2-1.8c-0.4-0.6-1.2-0.7-1.8-0.2L80.8,111.1
						L80.8,111.1z"/>
				</g>
			</g>
			<g>
				<g>
					<g>
						<path class="st8" d="M53,43.1c-0.8,2.6,0.7,5.3,3.2,6.1c2.6,0.8,5.3-0.7,6.1-3.2c0.8-2.6-0.7-5.3-3.2-6.1
							C56.5,39.1,53.8,40.6,53,43.1z M55.4,43.9c0.4-1.2,1.7-1.9,2.9-1.5c1.2,0.4,1.9,1.7,1.5,2.9c-0.4,1.2-1.7,1.9-2.9,1.5
							C55.7,46.5,55,45.1,55.4,43.9z"/>
					</g>
				</g>
			</g>
			<g>
				<g>
					<path class="st8" d="M55.2,47.2c-3.5-1.1-7.3,0.9-8.4,4.4l-0.1,0.4c-0.2,0.7,0.2,1.4,0.8,1.6c0.7,0.2,1.4-0.2,1.6-0.8l0.1-0.4
						c0.7-2.2,3-3.4,5.2-2.7l3,0.9c2.2,0.7,3.4,3,2.7,5.2l-0.1,0.4c-0.2,0.7,0.2,1.4,0.8,1.6c0.7,0.2,1.4-0.2,1.6-0.8l0.1-0.4
						c1.1-3.5-0.9-7.3-4.4-8.4L55.2,47.2L55.2,47.2z"/>
				</g>
			</g>
			<g>
				<g>
					<g>
						<path class="st8" d="M20.5,58.4c-0.9,2.8,0.7,5.7,3.5,6.6c2.8,0.9,5.7-0.7,6.6-3.5c0.9-2.8-0.7-5.7-3.5-6.6
							S21.3,55.6,20.5,58.4z M22.9,59.1c0.4-1.4,2-2.2,3.4-1.8c1.4,0.4,2.2,2,1.8,3.4s-2,2.2-3.4,1.8C23.3,62.1,22.5,60.6,22.9,59.1
							z"/>
					</g>
				</g>
			</g>
			<g>
				<g>
					<path class="st8" d="M13.6,67.8l-0.1,0.4c-0.2,0.7,0.2,1.4,0.8,1.6c0.7,0.2,1.4-0.2,1.6-0.8l0.1-0.4c0.8-2.5,3.4-3.9,5.9-3.1
						l3.3,1c2.5,0.8,3.9,3.4,3.1,5.9l-0.1,0.3c-0.2,0.7,0.2,1.4,0.8,1.6c0.7,0.2,1.4-0.2,1.6-0.8l0.1-0.3c1.2-3.8-1-7.9-4.8-9.1
						l-3.3-1C18.9,61.8,14.8,63.9,13.6,67.8z"/>
				</g>
			</g>
			<g>
				<g>
					<g>
						<path class="st8" d="M27.9,10.3c-0.9,3,0.8,6.2,3.8,7.2s6.2-0.8,7.2-3.8s-0.8-6.2-3.8-7.2S28.9,7.3,27.9,10.3z M30.4,11
							c0.5-1.7,2.3-2.6,4-2.1s2.6,2.3,2.1,4c-0.5,1.7-2.3,2.6-4,2.1C30.8,14.5,29.8,12.7,30.4,11z"/>
					</g>
				</g>
			</g>
			<g>
				<g>
					<path class="st8" d="M20.3,20.8l-0.1,0.4c-0.2,0.7,0.2,1.4,0.8,1.6c0.7,0.2,1.4-0.2,1.6-0.8l0.1-0.4c0.9-2.8,3.9-4.4,6.8-3.6
						l3.7,1.2c2.8,0.9,4.4,3.9,3.6,6.8l-0.1,0.5c-0.2,0.7,0.2,1.4,0.8,1.6c0.7,0.2,1.4-0.2,1.6-0.8l0.1-0.5c1.3-4.2-1.1-8.7-5.3-10
						l-3.7-1.2C26.1,14.2,21.6,16.6,20.3,20.8z"/>
				</g>
			</g>
		</g>
	</g>
	<g>
		<g>
			<path class="st9" d="M67.9,215.9l27.5-7c2.5-0.6,5.1,0.9,5.8,3.4l7,27.5c0.6,2.5-0.9,5.1-3.4,5.8l-27.5,7
				c-2.5,0.6-5.1-0.9-5.8-3.4l-7-27.5C63.8,219.1,65.4,216.6,67.9,215.9z"/>
			<path class="st10" d="M73.1,226.8l-2.9-11.5l-2.3,0.6c-2.5,0.6-4.1,3.2-3.4,5.8l7,27.5c0.6,2.5,3.2,4.1,5.8,3.4l27.5-7
				c2.5-0.6,4.1-3.2,3.4-5.8l-0.6-2.3l-11.5,2.9C86,243,75.7,236.9,73.1,226.8z"/>
			<path class="st8" d="M86.8,241.9c-0.8,0.2-1.6-0.3-1.8-1.1l-2-7.7l-3.1,0.8c-0.8,0.2-1.6-0.3-1.8-1.1c-0.2-0.8,0.3-1.6,1.1-1.8
				l3.1-0.8l-0.8-3.1c-0.8-3.3,1.2-6.7,4.5-7.6l4.6-1.2c0.8-0.2,1.6,0.3,1.8,1.1c0.2,0.8-0.3,1.6-1.1,1.8l-4.6,1.2
				c-1.7,0.4-2.8,2.2-2.3,4l0.8,3.1l3.1-0.8c0.8-0.2,1.6,0.3,1.8,1.1c0.2,0.8-0.3,1.6-1.1,1.8l-3.1,0.8l2,7.7
				C88,240.9,87.5,241.7,86.8,241.9z"/>
			<path class="st8" d="M77.6,254c-3.3,0.8-6.7-1.2-7.6-4.5l-3.5-13.7c-0.2-0.8,0.3-1.6,1.1-1.8c0.8-0.2,1.6,0.3,1.8,1.1l3.5,13.7
				c0.4,1.7,2.2,2.8,4,2.3l27.5-7c1.7-0.4,2.8-2.2,2.3-4l-7-27.5c-0.4-1.7-2.2-2.8-4-2.3l-27.5,7c-1.7,0.4-2.8,2.2-2.3,4l1.2,4.6
				c0.2,0.8-0.3,1.6-1.1,1.8c-0.8,0.2-1.6-0.3-1.8-1.1l-1.2-4.6c-0.8-3.3,1.2-6.7,4.5-7.6l27.5-7c3.3-0.8,6.7,1.2,7.6,4.5l7,27.5
				c0.8,3.3-1.2,6.7-4.5,7.6L77.6,254z"/>
		</g>
		<g>
			<path class="st11" d="M88.1,289.3l27.5-7c2.5-0.6,5.1,0.9,5.8,3.4l7,27.5c0.6,2.5-0.9,5.1-3.4,5.8l-27.5,7
				c-2.5,0.6-5.1-0.9-5.8-3.4l-7-27.5C84,292.5,85.6,289.9,88.1,289.3z"/>
			<circle class="st12" cx="106.5" cy="304.1" r="7.1"/>
			<path class="st13" d="M93.3,300.1l-2.9-11.5l-2.3,0.6c-2.5,0.6-4.1,3.2-3.4,5.8l7,27.5c0.6,2.5,3.2,4.1,5.8,3.4l27.5-7
				c2.5-0.6,4.1-3.2,3.4-5.8l-0.6-2.3l-11.5,2.9C106.2,316.3,95.9,310.2,93.3,300.1z"/>
			<circle class="st14" cx="108.2" cy="301.2" r="2.4"/>
			<path class="st8" d="M108.7,312.4c-4.6,1.2-9.3-1.6-10.4-6.2c-1.2-4.6,1.6-9.3,6.2-10.4s9.3,1.6,10.4,6.2
				C116,306.5,113.2,311.2,108.7,312.4z M105.1,298.6c-3,0.8-4.8,3.8-4,6.8c0.8,3,3.8,4.8,6.8,4c3-0.8,4.8-3.8,4-6.8
				C111.2,299.7,108.1,297.9,105.1,298.6z"/>
			<path class="st8" d="M97.9,327.3c-3.3,0.8-6.7-1.2-7.6-4.5l-7-27.5c-0.8-3.3,1.2-6.7,4.5-7.6l27.5-7c3.3-0.8,6.7,1.2,7.6,4.5
				l3.5,13.7c0.2,0.8-0.3,1.6-1.1,1.8s-1.6-0.3-1.8-1.1l-3.5-13.7c-0.4-1.7-2.2-2.8-4-2.3l-27.5,7c-1.7,0.4-2.8,2.2-2.3,4l7,27.5
				c0.4,1.7,2.2,2.8,4,2.3l27.5-7c1.7-0.4,2.8-2.2,2.3-4l-1.2-4.6c-0.2-0.8,0.3-1.6,1.1-1.8s1.6,0.3,1.8,1.1l1.2,4.6
				c0.8,3.3-1.2,6.7-4.5,7.6L97.9,327.3z"/>
		</g>
		<g>
			<circle class="st15" cx="48.5" cy="293.7" r="18.9"/>
			<path class="st14" d="M45.7,301.7L42.2,288l15.5,3.4L45.7,301.7z"/>
			<path class="st16" d="M58.3,303.4c-10.1,2.6-20.4-3.5-23-13.6c-0.8-3.2-0.8-6.5,0.1-9.7c-7.4,7.4-7.5,19.3-0.1,26.7
				s19.3,7.5,26.7,0.1c2.3-2.3,4-5.1,4.8-8.2C64.5,301,61.5,302.6,58.3,303.4z"/>
			<path class="st8" d="M46.1,303.2c-0.3,0.1-0.5,0.1-0.8,0c-0.5-0.2-0.9-0.5-1-1l-3.5-13.7c-0.1-0.2-0.1-0.5,0-0.7
				c0.1-0.5,0.5-1,1.1-1.1c0.2-0.1,0.5-0.1,0.7,0l15.5,3.4c0.3,0.1,0.6,0.2,0.8,0.5c0.5,0.6,0.5,1.5-0.1,2.1l-12,10.4
				C46.5,303,46.3,303.1,46.1,303.2L46.1,303.2z M46.5,299l7.9-6.9l-10.3-2.2L46.5,299z"/>
			<path class="st8" d="M53.6,313.4c-10.9,2.8-22-3.8-24.8-14.7s3.8-22,14.7-24.8s22,3.8,24.8,14.7S64.5,310.6,53.6,313.4z
				 M44.2,276.8c-9.3,2.4-14.9,11.9-12.6,21.2c2.4,9.3,11.9,14.9,21.2,12.6s14.9-11.9,12.6-21.2C63,280,53.5,274.4,44.2,276.8z"/>
		</g>
		<g>
			<path class="st17" d="M1.5,223l27.5-7l9.4,36.6l-27.5,7L1.5,223z"/>
			<path class="st18" d="M12.5,237.3l-4.1-16L1.5,223l9.4,36.6l27.5-7l-1.8-6.9l-6.9,1.8C22.1,249.4,14.4,244.9,12.5,237.3z"/>
			<path class="st8" d="M11.2,261.1c-0.8,0.2-1.6-0.3-1.8-1.1L0,223.4c-0.2-0.8,0.3-1.6,1.1-1.8l27.5-7c0.8-0.2,1.6,0.3,1.8,1.1
				l9.4,36.6c0.2,0.8-0.3,1.6-1.1,1.8L11.2,261.1z M11.9,257.8l24.6-6.3l-8.7-33.8l-24.6,6.3L11.9,257.8z"/>
			<path class="st8" d="M17.9,230.1c-0.8,0.2-1.6-0.3-1.8-1.1c-0.2-0.8,0.3-1.6,1.1-1.8l4.6-1.2c0.8-0.2,1.6,0.3,1.8,1.1
				c0.2,0.8-0.3,1.6-1.1,1.8L17.9,230.1z"/>
			<path class="st8" d="M15.7,240.4c-0.8,0.2-1.6-0.3-1.8-1.1c-0.2-0.8,0.3-1.6,1.1-1.8l9.2-2.3c0.8-0.2,1.6,0.3,1.8,1.1
				c0.2,0.8-0.3,1.6-1.1,1.8L15.7,240.4z"/>
			<path class="st8" d="M18,249.6c-0.8,0.2-1.6-0.3-1.8-1.1c-0.2-0.8,0.3-1.6,1.1-1.8l9.2-2.3c0.8-0.2,1.6,0.3,1.8,1.1
				c0.2,0.8-0.3,1.6-1.1,1.8L18,249.6z"/>
		</g>
	</g>
	<g>
		<path class="st19" d="M70.4,435C70.4,435,70.4,435,70.4,435c2.7,9.6,12.7,15.2,22.3,12.5s15.2-12.7,12.5-22.3
			c-2.7-9.6-12.7-15.2-22.3-12.5C73.3,415.4,67.7,425.3,70.4,435z"/>
		<path class="st20" d="M117.4,505.3l-15,4.2L95,483.2l15-4.2L117.4,505.3z"/>
		<path class="st21" d="M10.5,442.5l-7.8,14.8l0.8,2.7c1.7-0.5,3.3-0.3,3.7,1.1l20.9,69.3l13.4-3.8l-18.8-69.2
			c-0.4-1.4,1.3-3.2,2.9-3.7l-0.8-2.9L10.5,442.5z"/>
		<path class="st22" d="M91.6,512.5l-14.1,4l-15.3-54.2l14.1-4L91.6,512.5z"/>
		<path class="st9" d="M67,519.5l-14.5,4.1l-12.2-43l14.5-4.1L67,519.5z"/>
		<path class="st8" d="M16.3,535.5c-0.7,0.2-1.4-0.2-1.7-0.9c-0.2-0.7,0.2-1.4,0.9-1.6l9-2.5c0.6-0.2,0.9-0.8,0.8-1.4L6.6,462.9
			c-0.2-0.6-0.8-0.9-1.4-0.8l-3.5,1c-0.7,0.2-1.5-0.2-1.7-0.9c-0.1-0.3-0.1-0.6,0.1-0.9l8.6-21.1c0.2-0.4,0.5-0.7,0.9-0.8
			c0.4-0.1,0.8,0,1.1,0.2l18.4,13.5c0.3,0.2,0.5,0.5,0.5,0.9c0.1,0.4,0,0.7-0.2,1c-0.2,0.2-0.4,0.4-0.7,0.5l-3.5,1
			c-0.6,0.2-0.9,0.8-0.8,1.4l18.7,66.2c0.2,0.6,0.8,0.9,1.4,0.8l5.1-1.4c0.6-0.2,0.9-0.8,0.8-1.4l-11.5-40.9
			c-0.2-0.7,0.2-1.4,0.9-1.7l15.2-4.3c0.7-0.2,1.4,0.2,1.6,0.9L68,517c0.2,0.6,0.8,0.9,1.4,0.8l5.1-1.4c0.6-0.2,0.9-0.8,0.8-1.4
			l-14.9-52.6c-0.2-0.7,0.2-1.4,0.9-1.6l15.2-4.3c0.7-0.2,1.4,0.2,1.6,0.9L93,509.9c0.2,0.6,0.8,0.9,1.4,0.8l5.1-1.4
			c0.6-0.2,0.9-0.8,0.8-1.4l-6.9-24.4c-0.2-0.7,0.2-1.4,0.9-1.6l15.2-4.3c0.7-0.2,1.5,0.2,1.7,0.9l6.9,24.4c0.2,0.6,0.8,0.9,1.4,0.8
			l9-2.5c0.7-0.2,1.4,0.2,1.6,0.9c0.2,0.7-0.2,1.4-0.9,1.6L16.3,535.5z M10.7,443.5c-0.3,0.1-0.6,0.3-0.7,0.7l-5.5,13.5
			c-0.2,0.4-0.1,0.8,0.2,1.2c0.3,0.3,0.7,0.4,1.1,0.3l1.1-0.3c0.7-0.2,1.4,0.2,1.7,0.9l19.4,68.6c0.2,0.6,0.8,0.9,1.4,0.8l10.5-3
			c0.6-0.2,0.9-0.8,0.8-1.4l-19.4-68.6c-0.2-0.7,0.2-1.4,0.9-1.7l1.1-0.3c0.4-0.1,0.7-0.5,0.8-0.9c0.1-0.4-0.1-0.8-0.4-1.1
			l-11.8-8.6C11.4,443.5,11,443.4,10.7,443.5L10.7,443.5z M42.7,481.4c-0.6,0.2-0.9,0.8-0.8,1.4l10.9,38.5c0.2,0.6,0.8,0.9,1.4,0.8
			l10.5-3c0.6-0.2,0.9-0.8,0.8-1.4l-10.9-38.5c-0.2-0.6-0.8-0.9-1.4-0.8L42.7,481.4z M64.4,462.6c-0.6,0.2-0.9,0.8-0.8,1.4
			l14.2,50.3c0.2,0.6,0.8,0.9,1.4,0.8l10.5-3c0.6-0.2,0.9-0.8,0.8-1.4l-14.2-50.3c-0.2-0.6-0.8-0.9-1.4-0.8L64.4,462.6z M97.3,483.8
			c-0.6,0.2-0.9,0.8-0.8,1.4l6.2,22c0.2,0.6,0.8,0.9,1.4,0.8l10.5-3c0.6-0.2,0.9-0.8,0.8-1.4l-6.2-22c-0.2-0.6-0.8-0.9-1.4-0.8
			L97.3,483.8z M68.3,435.5c-3-10.7,3.2-21.9,14-25c10.7-3,21.9,3.2,25,14c1.5,5.2,0.8,10.7-1.8,15.4c-2.6,4.7-7,8.1-12.2,9.6
			C82.6,452.5,71.4,446.3,68.3,435.5z M70.9,434.8c2.6,9.3,12.4,14.7,21.7,12.1c9.3-2.6,14.7-12.3,12.1-21.7l0,0
			c-2.6-9.3-12.4-14.8-21.7-12.1C73.7,415.8,68.3,425.5,70.9,434.8z M91.3,443.7c-0.7,0.2-1.4-0.2-1.6-1l-0.2-0.9
			c-0.1-0.5-0.5-0.8-1-0.8c-2.9-0.1-5.4-1.9-6-4.6c-0.2-0.7,0.2-1.4,1-1.6c0.7-0.2,1.4,0.3,1.6,1c0.5,1.9,2.7,3,4.9,2.4
			c2.2-0.6,3.7-2.6,3.2-4.5c-0.6-2.3-1.9-2.5-5.2-2.4c-3.5,0.1-6.8-0.1-7.9-4.4c-0.7-2.6,0.6-5.4,3.1-6.9c0.4-0.3,0.6-0.8,0.5-1.2
			l-0.2-0.9c-0.2-0.7,0.3-1.4,1-1.6c0.7-0.2,1.4,0.3,1.6,1l0.2,0.9c0.1,0.5,0.5,0.8,1,0.8c2.9,0.1,5.4,1.9,6,4.6
			c0.2,0.7-0.3,1.4-1,1.6c-0.7,0.2-1.4-0.3-1.6-1c-0.5-1.9-2.7-3-4.9-2.4c-2.2,0.6-3.7,2.6-3.2,4.5c0.6,2.3,1.9,2.5,5.2,2.4
			c3.5-0.2,6.8,0.1,7.9,4.4c0.7,2.6-0.6,5.4-3.1,6.9c-0.4,0.3-0.6,0.8-0.5,1.2l0.2,0.9C92.4,442.8,92,443.5,91.3,443.7z"/>
	</g>
</g>
</svg>
