<?xml version="1.0" encoding="utf-8"?>
<!-- Generator: Adobe Illustrator 25.0.0, SVG Export Plug-In . SVG Version: 6.00 Build 0)  -->
<svg version="1.1" id="Layer_1" xmlns="http://www.w3.org/2000/svg" xmlns:xlink="http://www.w3.org/1999/xlink" x="0px" y="0px"
	 viewBox="0 0 130 535.6" style="enable-background:new 0 0 130 535.6;" xml:space="preserve">
<style type="text/css">
	.st0{fill:#70D6F9;}
	.st1{fill:#B598F9;}
	.st2{fill:#F5C84C;}
	.st3{fill:#DAE6F1;}
	.st4{fill:#FC657E;}
	.st5{fill:#F98FA6;}
	.st6{fill:#F9D0B4;}
	.st7{fill:#87D147;}
	.st8{fill:#35414D;}
	.st9{fill:#8AC5DC;}
	.st10{fill:#7FB8C9;}
	.st11{fill:#B7C0D7;}
	.st12{fill:#57B7EB;}
	.st13{fill:#A7AFC1;}
	.st14{fill:#AAE1F9;}
	.st15{fill:#F89C8D;}
	.st16{fill:#F8664F;}
	.st17{fill:#FFE4CF;}
	.st18{fill:#E8CFBF;}
	.st19{fill:#FFCF66;}
	.st20{fill:#EF6D7A;}
	.st21{fill:#87796F;}
	.st22{fill:#D6DF58;}
</style>
<g>
	<g id="Layer_23_6_">
		<g>
			<g>
				<g>
					<circle class="st0" cx="73" cy="46.8" r="10.9"/>
				</g>
			</g>
			<g>
				<g>
					<ellipse class="st1" cx="105.2" cy="62.3" rx="12" ry="12"/>
				</g>
			</g>
			<g>
				<g>
					<circle class="st2" cx="97.4" cy="14.6" r="13.4"/>
				</g>
			</g>
			<g>
				<g>
					<path class="st3" d="M83.4,49.8c-0.5,1.7-1.4,3.3-2.7,4.6l12.7,5.9c0.3-1.8,1-3.5,2-4.9L83.4,49.8z"/>
				</g>
			</g>
			<g>
				<g>
					<path class="st3" d="M87.2,23.3l-9.6,13.6c1.6,0.8,3,1.9,4.1,3.4l9.7-13.7C89.8,25.8,88.4,24.7,87.2,23.3L87.2,23.3z"/>
				</g>
			</g>
			<g>
				<g>
					<path class="st3" d="M79,86.4L41.3,38.3c-1.1-1.4-3.2-1.7-4.6-0.6l-2.5,1.9c-1.4,1.1-1.7,3.2-0.6,4.6l37.7,48.2
						c1.1,1.4,3.2,1.7,4.6,0.6l2.5-1.9C79.8,89.9,80.1,87.9,79,86.4z"/>
				</g>
			</g>
			<g>
				<g>
					<path class="st4" d="M34.6,45.4c0.6,4.1,1,15.3-9.1,24.9c-1.4,1.4-1.7,3.6-0.4,5.2l13.8,17.7c1.2,1.6,3.4,1.9,5.1,0.8
						c11.8-7.5,22.5-4.4,26.4-2.8L34.6,45.4z"/>
				</g>
			</g>
			<g>
				<g>
					<path class="st5" d="M25.7,76.3L12.1,87c-4.4,3.5-5.2,9.9-1.8,14.4c3.5,4.4,9.9,5.2,14.4,1.8l13.6-10.7L25.7,76.3z"/>
				</g>
			</g>
			<g>
				<g>
					<path class="st3" d="M48.4,112.1L30.8,98.3l-6.1,4.8c-1.4,1.1-3,1.8-4.6,2l21,16.5c2.6,2,6.4,1.6,8.4-1
						C51.5,117.9,51.1,114.2,48.4,112.1L48.4,112.1z"/>
				</g>
			</g>
			<g>
				<g>
					<circle class="st6" cx="72.3" cy="44.6" r="3.6"/>
				</g>
			</g>
			<g>
				<g>
					<path class="st2" d="M75.2,48.5l-3,0.9c-2.9,0.9-4.5,3.9-3.6,6.8l0.2,0.6c2.3,1,4.9,1.2,7.5,0.4c2.6-0.8,4.6-2.4,5.9-4.5L82,52
						C81.1,49.2,78.1,47.6,75.2,48.5L75.2,48.5z"/>
				</g>
			</g>
			<g>
				<g>
					<circle class="st6" cx="104.5" cy="59.9" r="4"/>
				</g>
			</g>
			<g>
				<g>
					<path class="st0" d="M107.7,64.2l-3.3,1c-3.1,1-4.9,4.3-4,7.5l0.2,0.6c2.5,1.1,5.4,1.3,8.2,0.4s5.1-2.7,6.6-5l-0.2-0.6
						C114.2,65,110.8,63.2,107.7,64.2L107.7,64.2z"/>
				</g>
			</g>
			<g>
				<g>
					<circle class="st6" cx="96.6" cy="12" r="4.5"/>
				</g>
			</g>
			<g>
				<g>
					<path class="st4" d="M100.1,16.7l-3.7,1.2c-3.5,1.1-5.5,4.8-4.4,8.4l0.2,0.7c2.8,1.2,6,1.4,9.2,0.5s5.7-3,7.3-5.6l-0.2-0.7
						C107.4,17.6,103.6,15.6,100.1,16.7L100.1,16.7z"/>
				</g>
			</g>
			<g>
				<g>
					<path class="st7" d="M77.5,14c-1.6,0.2-3.2-0.6-3.9-2c0,0-0.2,0-0.1,0c0.2,1.6-0.7,3.2-2.1,3.9c0,0,0,0.1,0,0.1
						c1.6-0.2,3.2,0.6,3.9,2c0,0,0.2,0,0.1,0c-0.2-1.6,0.7-3.2,2.1-3.9C77.6,14.1,77.6,14,77.5,14z"/>
				</g>
			</g>
			<g>
				<g>
					<path class="st0" d="M15.2,59.7L14,60l-0.3-1.1c-0.3-0.9-1.2-1.4-2-1.1c-0.8,0.3-1.4,1.2-1.1,2l0.4,1.2l-1.1,0.3
						c-0.9,0.3-1.4,1.2-1.1,2c0.2,0.8,1.1,1.4,2,1.1l1.1-0.3l0.3,1.1c0.3,0.9,1.2,1.4,2,1.1c0.8-0.3,1.4-1.2,1.1-2L15,63.1l1.1-0.3
						c0.9-0.3,1.4-1.2,1.1-2C16.9,59.9,16,59.4,15.2,59.7z"/>
				</g>
			</g>
			<g>
				<g>
					<path class="st2" d="M1.2,72.5c-0.9,0.3-1.4,1.3-1.1,2.2s1.3,1.4,2.2,1.1s1.4-1.3,1.1-2.2C3.1,72.8,2.1,72.3,1.2,72.5z"/>
				</g>
			</g>
			<g>
				<g>
					<path class="st4" d="M127.7,50.8c-0.9,0.3-1.4,1.3-1.1,2.2c0.3,0.9,1.3,1.4,2.2,1.1c0.9-0.3,1.4-1.3,1.1-2.2
						C129.6,51,128.7,50.5,127.7,50.8z"/>
				</g>
			</g>
			<g>
				<g>
					<path class="st2" d="M119.3,40.1c-2.3,0.3-4.6-0.9-5.7-2.9c0-0.1-0.2,0-0.2,0.1c0.2,2.3-1,4.5-3,5.6c-0.1,0-0.1,0.2,0.1,0.2
						c2.3-0.3,4.6,0.9,5.7,2.9c0,0.1,0.2,0,0.2-0.1c-0.2-2.3,1-4.5,3-5.6C119.4,40.3,119.4,40.1,119.3,40.1z"/>
				</g>
			</g>
			<g>
				<g>
					<g>
						<path class="st8" d="M69.4,35.1c-6.4,2-10,8.8-8,15.2c2,6.4,8.8,10,15.2,8c6.4-2,10-8.8,8-15.2S75.8,33.2,69.4,35.1L69.4,35.1
							z M75.8,55.9c-5.1,1.6-10.4-1.3-12-6.3c-1.6-5.1,1.3-10.4,6.3-12c5.1-1.6,10.4,1.3,12,6.3C83.7,49,80.9,54.4,75.8,55.9z"/>
					</g>
				</g>
			</g>
			<g>
				<g>
					<g>
						<path class="st8" d="M101.3,49.7c-7,2.2-10.9,9.6-8.8,16.6c2.2,7,9.6,10.9,16.6,8.8s10.9-9.6,8.8-16.6S108.3,47.5,101.3,49.7
							L101.3,49.7z M108.4,72.6c-5.6,1.7-11.6-1.4-13.4-7.1s1.4-11.6,7.1-13.4s11.6,1.4,13.4,7.1C117.2,64.8,114.1,70.8,108.4,72.6
							L108.4,72.6z"/>
					</g>
				</g>
			</g>
			<g>
				<g>
					<g>
						<path class="st8" d="M93.1,0.7C85.4,3,81.1,11.3,83.4,19c2.4,7.7,10.6,12,18.3,9.7s12-10.6,9.7-18.3
							C109,2.6,100.8-1.7,93.1,0.7z M101,26.2c-6.4,2-13.1-1.6-15.1-8c-2-6.4,1.6-13.1,8-15.1s13.1,1.6,15.1,8
							C110.9,17.4,107.4,24.2,101,26.2z"/>
					</g>
				</g>
			</g>
			<g>
				<g>
					<path class="st8" d="M95.8,54.2l-11.5-5.4c-0.6-0.3-1.4,0-1.7,0.6c-0.3,0.6,0,1.4,0.6,1.7l11.5,5.4c0.3,0.1,0.6,0.2,0.9,0.1
						c0.3-0.1,0.6-0.3,0.8-0.7C96.7,55.2,96.5,54.5,95.8,54.2L95.8,54.2z"/>
				</g>
			</g>
			<g>
				<g>
					<path class="st8" d="M93.7,59.1l-12.2-5.7c-0.6-0.3-1.4,0-1.7,0.6c-0.3,0.6,0,1.4,0.6,1.7l12.2,5.7c0.3,0.1,0.6,0.2,0.9,0.1
						c0.3-0.1,0.6-0.3,0.8-0.7C94.7,60.2,94.4,59.4,93.7,59.1L93.7,59.1z"/>
				</g>
			</g>
			<g>
				<g>
					<path class="st8" d="M92,25.8c-0.6-0.4-1.4-0.3-1.8,0.3l-9.4,13.3c-0.4,0.6-0.3,1.4,0.3,1.8c0.3,0.2,0.7,0.3,1.1,0.2
						c0.3-0.1,0.5-0.2,0.7-0.5l9.4-13.3C92.7,27,92.6,26.2,92,25.8L92,25.8z"/>
				</g>
			</g>
			<g>
				<g>
					<path class="st8" d="M87.8,22.5c-0.6-0.4-1.4-0.3-1.8,0.3l-9.2,13c-0.4,0.6-0.3,1.4,0.3,1.8c0.3,0.2,0.7,0.3,1.1,0.2
						c0.3-0.1,0.5-0.2,0.7-0.5l9.2-13C88.5,23.7,88.4,22.9,87.8,22.5L87.8,22.5z"/>
				</g>
			</g>
			<g>
				<g>
					<g>
						<path class="st8" d="M80,85.6L42.3,37.5c-1.5-2-4.4-2.3-6.4-0.8l-2.5,1.9c-1,0.7-1.6,1.8-1.7,3c-0.1,1.2,0.2,2.4,0.9,3.4
							l37.7,48.2c1.2,1.5,3.2,2.1,4.9,1.5c0.5-0.2,1-0.4,1.5-0.8l2.5-1.9c1-0.7,1.6-1.8,1.7-3C81.1,87.8,80.7,86.6,80,85.6L80,85.6z
							 M78.4,88.7c-0.1,0.5-0.3,1-0.7,1.3l-2.5,1.9c-0.4,0.3-0.9,0.5-1.5,0.4c-0.5-0.1-1-0.3-1.3-0.7L34.7,43.4
							c-0.3-0.4-0.5-0.9-0.4-1.5c0.1-0.5,0.3-1,0.7-1.3l2.5-1.9c0.2-0.2,0.4-0.3,0.6-0.3c0.8-0.2,1.6,0,2.2,0.7L78,87.2
							C78.3,87.6,78.4,88.2,78.4,88.7z"/>
					</g>
				</g>
			</g>
			<g>
				<g>
					<path class="st8" d="M70.8,90c-4.2-1.7-15.3-4.7-27.4,3c-1.1,0.7-2.6,0.5-3.4-0.5L26.1,74.7c-0.8-1-0.7-2.5,0.3-3.5
						c10.4-9.9,10.1-21.4,9.5-25.9c-0.1-0.7-0.7-1.2-1.4-1.1c-0.7,0.1-1.2,0.7-1.1,1.4c0.6,4.1,0.8,14.6-8.7,23.7
						c-1.9,1.8-2.2,4.8-0.5,6.9L37.9,94c1.6,2.1,4.6,2.6,6.8,1.1C55.9,88,66,90.8,69.9,92.4c0.3,0.1,0.6,0.1,0.8,0
						c0.4-0.1,0.7-0.4,0.8-0.7C71.8,91,71.5,90.2,70.8,90L70.8,90z"/>
				</g>
			</g>
			<g>
				<g>
					<path class="st8" d="M38.9,91.9c-0.4-0.6-1.2-0.7-1.8-0.2l-13.2,10.4c-3.9,3-9.5,2.4-12.6-1.5C8.3,96.6,9,91,12.9,88l13.4-10.5
						c0.6-0.4,0.7-1.2,0.2-1.8c-0.4-0.6-1.2-0.7-1.8-0.2L11.3,86c-5,3.9-5.9,11.2-2,16.2c3,3.9,8,5.3,12.5,3.9
						c1.3-0.4,2.5-1,3.7-1.9l13.2-10.4C39.3,93.3,39.4,92.5,38.9,91.9L38.9,91.9z"/>
				</g>
			</g>
			<g>
				<g>
					<path class="st8" d="M49.2,111.1L32,97.6c-0.6-0.4-1.4-0.3-1.8,0.2c-0.4,0.6-0.3,1.4,0.2,1.8l17.2,13.5c2,1.6,2.4,4.6,0.8,6.6
						c-0.8,1-1.9,1.6-3.1,1.8c-1.3,0.2-2.5-0.2-3.5-1L21,104.3c-0.6-0.4-1.4-0.3-1.8,0.2c-0.4,0.6-0.3,1.4,0.2,1.8l20.8,16.3
						c1.5,1.2,3.4,1.7,5.4,1.5c0.4-0.1,0.9-0.1,1.3-0.3c1.4-0.4,2.6-1.3,3.6-2.5C52.9,118.2,52.4,113.6,49.2,111.1L49.2,111.1z"/>
				</g>
			</g>
			<g>
				<g>
					<g>
						<path class="st8" d="M70.9,39.9c-2.6,0.8-4,3.5-3.2,6.1c0.8,2.6,3.5,4,6.1,3.2c2.6-0.8,4-3.5,3.2-6.1
							C76.2,40.6,73.5,39.1,70.9,39.9z M73,46.8c-1.2,0.4-2.6-0.3-2.9-1.5c-0.4-1.2,0.3-2.6,1.5-2.9c1.2-0.4,2.6,0.3,2.9,1.5
							C75,45.1,74.3,46.5,73,46.8z"/>
					</g>
				</g>
			</g>
			<g>
				<g>
					<path class="st8" d="M74.8,47.2l-3,0.9c-3.5,1.1-5.5,4.9-4.4,8.4l0.1,0.4c0.2,0.7,0.9,1.1,1.6,0.8c0.7-0.2,1.1-0.9,0.8-1.6
						l-0.1-0.4c-0.7-2.2,0.6-4.5,2.7-5.2l3-0.9c2.2-0.7,4.5,0.6,5.2,2.7l0.1,0.4c0.2,0.7,0.9,1.1,1.6,0.8c0.7-0.2,1.1-0.9,0.8-1.6
						l-0.1-0.4C82.1,48.1,78.4,46.1,74.8,47.2L74.8,47.2z"/>
				</g>
			</g>
			<g>
				<g>
					<g>
						<path class="st8" d="M103,54.9c-2.8,0.9-4.3,3.8-3.5,6.6c0.9,2.8,3.8,4.3,6.6,3.5c2.8-0.9,4.3-3.8,3.5-6.6
							C108.7,55.6,105.7,54.1,103,54.9z M105.3,62.5c-1.4,0.4-3-0.4-3.4-1.8s0.4-3,1.8-3.4c1.4-0.4,3,0.4,3.4,1.8
							S106.7,62.1,105.3,62.5z"/>
					</g>
				</g>
			</g>
			<g>
				<g>
					<path class="st8" d="M107.3,63l-3.3,1c-3.8,1.2-6,5.3-4.8,9.1l0.1,0.3c0.2,0.7,0.9,1.1,1.6,0.8c0.7-0.2,1.1-0.9,0.8-1.6
						l-0.1-0.3c-0.8-2.5,0.6-5.1,3.1-5.9l3.3-1c2.5-0.8,5.1,0.6,5.9,3.1l0.1,0.4c0.2,0.7,0.9,1.1,1.6,0.8c0.7-0.2,1.1-0.9,0.8-1.6
						l-0.1-0.4C115.2,63.9,111.1,61.8,107.3,63z"/>
				</g>
			</g>
			<g>
				<g>
					<g>
						<path class="st8" d="M94.9,6.5c-3,0.9-4.7,4.1-3.8,7.2s4.1,4.7,7.2,3.8s4.7-4.1,3.8-7.2S97.9,5.6,94.9,6.5z M97.5,15
							c-1.7,0.5-3.5-0.4-4-2.1s0.4-3.5,2.1-4c1.7-0.5,3.5,0.4,4,2.1C100.2,12.7,99.2,14.5,97.5,15z"/>
					</g>
				</g>
			</g>
			<g>
				<g>
					<path class="st8" d="M99.7,15.5L96,16.7c-4.2,1.3-6.5,5.8-5.3,10l0.1,0.5c0.2,0.7,0.9,1.1,1.6,0.8c0.7-0.2,1.1-0.9,0.8-1.6
						l-0.1-0.5c-0.9-2.8,0.7-5.9,3.6-6.8l3.7-1.2c2.8-0.9,5.9,0.7,6.8,3.6l0.1,0.4c0.2,0.7,0.9,1.1,1.6,0.8c0.7-0.2,1.1-0.9,0.8-1.6
						l-0.1-0.4C108.4,16.6,103.9,14.2,99.7,15.5z"/>
				</g>
			</g>
		</g>
	</g>
	<g>
		<g>
			<path class="st9" d="M67.9,215.9l27.5-7c2.5-0.6,5.1,0.9,5.8,3.4l7,27.5c0.6,2.5-0.9,5.1-3.4,5.8l-27.5,7
				c-2.5,0.6-5.1-0.9-5.8-3.4l-7-27.5C63.8,219.1,65.4,216.6,67.9,215.9z"/>
			<path class="st10" d="M73.1,226.8l-2.9-11.5l-2.3,0.6c-2.5,0.6-4.1,3.2-3.4,5.8l7,27.5c0.6,2.5,3.2,4.1,5.8,3.4l27.5-7
				c2.5-0.6,4.1-3.2,3.4-5.8l-0.6-2.3l-11.5,2.9C86,243,75.7,236.9,73.1,226.8z"/>
			<path class="st8" d="M86.8,241.9c-0.8,0.2-1.6-0.3-1.8-1.1l-2-7.7l-3.1,0.8c-0.8,0.2-1.6-0.3-1.8-1.1c-0.2-0.8,0.3-1.6,1.1-1.8
				l3.1-0.8l-0.8-3.1c-0.8-3.3,1.2-6.7,4.5-7.6l4.6-1.2c0.8-0.2,1.6,0.3,1.8,1.1c0.2,0.8-0.3,1.6-1.1,1.8l-4.6,1.2
				c-1.7,0.4-2.8,2.2-2.3,4l0.8,3.1l3.1-0.8c0.8-0.2,1.6,0.3,1.8,1.1c0.2,0.8-0.3,1.6-1.1,1.8l-3.1,0.8l2,7.7
				C88,240.9,87.5,241.7,86.8,241.9z"/>
			<path class="st8" d="M77.6,254c-3.3,0.8-6.7-1.2-7.6-4.5l-3.5-13.7c-0.2-0.8,0.3-1.6,1.1-1.8c0.8-0.2,1.6,0.3,1.8,1.1l3.5,13.7
				c0.4,1.7,2.2,2.8,4,2.3l27.5-7c1.7-0.4,2.8-2.2,2.3-4l-7-27.5c-0.4-1.7-2.2-2.8-4-2.3l-27.5,7c-1.7,0.4-2.8,2.2-2.3,4l1.2,4.6
				c0.2,0.8-0.3,1.6-1.1,1.8c-0.8,0.2-1.6-0.3-1.8-1.1l-1.2-4.6c-0.8-3.3,1.2-6.7,4.5-7.6l27.5-7c3.3-0.8,6.7,1.2,7.6,4.5l7,27.5
				c0.8,3.3-1.2,6.7-4.5,7.6L77.6,254z"/>
		</g>
		<g>
			<path class="st11" d="M88.1,289.3l27.5-7c2.5-0.6,5.1,0.9,5.8,3.4l7,27.5c0.6,2.5-0.9,5.1-3.4,5.8l-27.5,7
				c-2.5,0.6-5.1-0.9-5.8-3.4l-7-27.5C84,292.5,85.6,289.9,88.1,289.3z"/>
			<circle class="st12" cx="106.5" cy="304.1" r="7.1"/>
			<path class="st13" d="M93.3,300.1l-2.9-11.5l-2.3,0.6c-2.5,0.6-4.1,3.2-3.4,5.8l7,27.5c0.6,2.5,3.2,4.1,5.8,3.4l27.5-7
				c2.5-0.6,4.1-3.2,3.4-5.8l-0.6-2.3l-11.5,2.9C106.2,316.3,95.9,310.2,93.3,300.1z"/>
			<circle class="st14" cx="108.2" cy="301.2" r="2.4"/>
			<path class="st8" d="M108.7,312.4c-4.6,1.2-9.3-1.6-10.4-6.2c-1.2-4.6,1.6-9.3,6.2-10.4s9.3,1.6,10.4,6.2
				C116,306.5,113.2,311.2,108.7,312.4z M105.1,298.6c-3,0.8-4.8,3.8-4,6.8c0.8,3,3.8,4.8,6.8,4c3-0.8,4.8-3.8,4-6.8
				C111.2,299.7,108.1,297.9,105.1,298.6z"/>
			<path class="st8" d="M97.9,327.3c-3.3,0.8-6.7-1.2-7.6-4.5l-7-27.5c-0.8-3.3,1.2-6.7,4.5-7.6l27.5-7c3.3-0.8,6.7,1.2,7.6,4.5
				l3.5,13.7c0.2,0.8-0.3,1.6-1.1,1.8s-1.6-0.3-1.8-1.1l-3.5-13.7c-0.4-1.7-2.2-2.8-4-2.3l-27.5,7c-1.7,0.4-2.8,2.2-2.3,4l7,27.5
				c0.4,1.7,2.2,2.8,4,2.3l27.5-7c1.7-0.4,2.8-2.2,2.3-4l-1.2-4.6c-0.2-0.8,0.3-1.6,1.1-1.8s1.6,0.3,1.8,1.1l1.2,4.6
				c0.8,3.3-1.2,6.7-4.5,7.6L97.9,327.3z"/>
		</g>
		<g>
			<circle class="st15" cx="48.5" cy="293.7" r="18.9"/>
			<path class="st14" d="M45.7,301.7L42.2,288l15.5,3.4L45.7,301.7z"/>
			<path class="st16" d="M58.3,303.4c-10.1,2.6-20.4-3.5-23-13.6c-0.8-3.2-0.8-6.5,0.1-9.7c-7.4,7.4-7.5,19.3-0.1,26.7
				s19.3,7.5,26.7,0.1c2.3-2.3,4-5.1,4.8-8.2C64.5,301,61.5,302.6,58.3,303.4z"/>
			<path class="st8" d="M46.1,303.2c-0.3,0.1-0.5,0.1-0.8,0c-0.5-0.2-0.9-0.5-1-1l-3.5-13.7c-0.1-0.2-0.1-0.5,0-0.7
				c0.1-0.5,0.5-1,1.1-1.1c0.2-0.1,0.5-0.1,0.7,0l15.5,3.4c0.3,0.1,0.6,0.2,0.8,0.5c0.5,0.6,0.5,1.5-0.1,2.1l-12,10.4
				C46.5,303,46.3,303.1,46.1,303.2L46.1,303.2z M46.5,299l7.9-6.9l-10.3-2.2L46.5,299z"/>
			<path class="st8" d="M53.6,313.4c-10.9,2.8-22-3.8-24.8-14.7s3.8-22,14.7-24.8s22,3.8,24.8,14.7S64.5,310.6,53.6,313.4z
				 M44.2,276.8c-9.3,2.4-14.9,11.9-12.6,21.2c2.4,9.3,11.9,14.9,21.2,12.6s14.9-11.9,12.6-21.2C63,280,53.5,274.4,44.2,276.8z"/>
		</g>
		<g>
			<path class="st17" d="M1.5,223l27.5-7l9.4,36.6l-27.5,7L1.5,223z"/>
			<path class="st18" d="M12.5,237.3l-4.1-16L1.5,223l9.4,36.6l27.5-7l-1.8-6.9l-6.9,1.8C22.1,249.4,14.4,244.9,12.5,237.3z"/>
			<path class="st8" d="M11.2,261.1c-0.8,0.2-1.6-0.3-1.8-1.1L0,223.4c-0.2-0.8,0.3-1.6,1.1-1.8l27.5-7c0.8-0.2,1.6,0.3,1.8,1.1
				l9.4,36.6c0.2,0.8-0.3,1.6-1.1,1.8L11.2,261.1z M11.9,257.8l24.6-6.3l-8.7-33.8l-24.6,6.3L11.9,257.8z"/>
			<path class="st8" d="M17.9,230.1c-0.8,0.2-1.6-0.3-1.8-1.1c-0.2-0.8,0.3-1.6,1.1-1.8l4.6-1.2c0.8-0.2,1.6,0.3,1.8,1.1
				c0.2,0.8-0.3,1.6-1.1,1.8L17.9,230.1z"/>
			<path class="st8" d="M15.7,240.4c-0.8,0.2-1.6-0.3-1.8-1.1c-0.2-0.8,0.3-1.6,1.1-1.8l9.2-2.3c0.8-0.2,1.6,0.3,1.8,1.1
				c0.2,0.8-0.3,1.6-1.1,1.8L15.7,240.4z"/>
			<path class="st8" d="M18,249.6c-0.8,0.2-1.6-0.3-1.8-1.1c-0.2-0.8,0.3-1.6,1.1-1.8l9.2-2.3c0.8-0.2,1.6,0.3,1.8,1.1
				c0.2,0.8-0.3,1.6-1.1,1.8L18,249.6z"/>
		</g>
	</g>
	<g>
		<path class="st19" d="M47.1,412.6c-9.6-2.7-19.6,2.9-22.3,12.5s2.9,19.6,12.5,22.3s19.6-2.9,22.3-12.5c0,0,0,0,0,0
			C62.3,425.3,56.7,415.4,47.1,412.6z"/>
		<path class="st20" d="M20,479l15,4.2l-7.4,26.2l-15-4.2L20,479z"/>
		<path class="st21" d="M105.2,451l-0.8,2.9c1.7,0.5,3.3,2.3,2.9,3.7l-18.8,69.2l13.4,3.8l20.9-69.3c0.4-1.4,2-1.6,3.7-1.1l0.8-2.7
			l-7.8-14.8L105.2,451z"/>
		<path class="st22" d="M53.7,458.4l14.1,4l-15.3,54.2l-14.1-4L53.7,458.4z"/>
		<path class="st9" d="M75.2,476.5l14.5,4.1l-12.2,43L63,519.5L75.2,476.5z"/>
		<path class="st8" d="M1,503.7c-0.7-0.2-1.1-0.9-0.9-1.6c0.2-0.7,0.9-1.1,1.6-0.9l9,2.5c0.6,0.2,1.2-0.2,1.4-0.8l6.9-24.4
			c0.2-0.7,0.9-1.1,1.7-0.9l15.2,4.3c0.7,0.2,1.1,0.9,0.9,1.6l-6.9,24.4c-0.2,0.6,0.2,1.2,0.8,1.4l5.1,1.4c0.6,0.2,1.2-0.2,1.4-0.8
			l14.9-52.6c0.2-0.7,0.9-1.1,1.6-0.9l15.2,4.3c0.7,0.2,1.1,0.9,0.9,1.6L54.8,515c-0.2,0.6,0.2,1.2,0.8,1.4l5.1,1.4
			c0.6,0.2,1.2-0.2,1.4-0.8l11.5-40.9c0.2-0.7,0.9-1.1,1.6-0.9l15.2,4.3c0.7,0.2,1.1,0.9,0.9,1.7L79.7,522c-0.2,0.6,0.2,1.2,0.8,1.4
			l5.1,1.4c0.6,0.2,1.2-0.2,1.4-0.8l18.7-66.2c0.2-0.6-0.2-1.2-0.8-1.4l-3.5-1c-0.3-0.1-0.5-0.3-0.7-0.5c-0.2-0.3-0.3-0.7-0.2-1
			c0.1-0.3,0.2-0.7,0.5-0.9l18.4-13.5c0.3-0.2,0.8-0.3,1.1-0.2s0.7,0.4,0.9,0.8l8.6,21.1c0.1,0.3,0.1,0.6,0.1,0.9
			c-0.2,0.7-0.9,1.1-1.7,0.9l-3.5-1c-0.6-0.2-1.2,0.2-1.4,0.8l-18.7,66.2c-0.2,0.6,0.2,1.2,0.8,1.4l9,2.5c0.7,0.2,1.1,0.9,0.9,1.6
			c-0.2,0.7-0.9,1.1-1.7,0.9L1,503.7z M119.3,443.5c-0.3-0.1-0.7,0-1,0.2l-11.8,8.6c-0.3,0.3-0.5,0.7-0.4,1.1
			c0.1,0.4,0.4,0.8,0.8,0.9l1.1,0.3c0.7,0.2,1.1,0.9,0.9,1.7l-19.4,68.6c-0.2,0.6,0.2,1.2,0.8,1.4l10.5,3c0.6,0.2,1.2-0.2,1.4-0.8
			l19.4-68.6c0.2-0.7,0.9-1.1,1.7-0.9l1.1,0.3c0.4,0.1,0.9,0,1.1-0.3c0.3-0.3,0.4-0.8,0.2-1.2l-5.5-13.5
			C119.9,443.8,119.6,443.6,119.3,443.5L119.3,443.5z M76.8,478.4c-0.6-0.2-1.2,0.2-1.4,0.8l-10.9,38.5c-0.2,0.6,0.2,1.2,0.8,1.4
			l10.5,3c0.6,0.2,1.2-0.2,1.4-0.8l10.9-38.5c0.2-0.6-0.2-1.2-0.8-1.4L76.8,478.4z M55.1,459.6c-0.6-0.2-1.2,0.2-1.4,0.8l-14.2,50.3
			c-0.2,0.6,0.2,1.2,0.8,1.4l10.5,3c0.6,0.2,1.2-0.2,1.4-0.8L66.4,464c0.2-0.6-0.2-1.2-0.8-1.4L55.1,459.6z M22.2,480.8
			c-0.6-0.2-1.2,0.2-1.4,0.8l-6.2,22c-0.2,0.6,0.2,1.2,0.8,1.4l10.5,3c0.6,0.2,1.2-0.2,1.4-0.8l6.2-22c0.2-0.6-0.2-1.2-0.8-1.4
			L22.2,480.8z M36.7,449.5c-5.2-1.5-9.5-4.9-12.2-9.6c-2.6-4.7-3.3-10.2-1.8-15.4c3-10.7,14.2-17,25-14c10.7,3,17,14.2,14,25
			C58.6,446.3,47.4,452.5,36.7,449.5z M47,413.1c-9.3-2.6-19.1,2.8-21.7,12.1l0,0c-2.6,9.3,2.8,19,12.1,21.7
			c9.3,2.6,19-2.8,21.7-12.1C61.7,425.5,56.3,415.8,47,413.1z M38.4,443.6c-0.7-0.2-1.1-0.9-0.9-1.6l0.2-0.9c0.1-0.5-0.1-1-0.5-1.2
			c-2.5-1.6-3.7-4.4-2.9-7c0.2-0.7,0.9-1.1,1.7-0.9c0.7,0.2,1.1,0.9,0.9,1.6c-0.5,1.9,0.8,3.9,3.1,4.5c2.2,0.6,4.5-0.4,5-2.3
			c0.7-2.3-0.4-3.1-3.3-4.7c-3.1-1.7-5.8-3.5-4.6-7.7c0.7-2.6,3.2-4.4,6.1-4.4c0.5,0,0.9-0.3,1.1-0.8l0.2-0.9
			c0.2-0.7,0.9-1.1,1.6-0.9c0.7,0.2,1.1,0.9,0.9,1.6l-0.2,0.9c-0.1,0.5,0.1,1,0.5,1.2c2.5,1.6,3.7,4.4,2.9,7
			c-0.2,0.7-0.9,1.1-1.7,0.9c-0.7-0.2-1.1-0.9-0.9-1.7c0.5-1.9-0.8-3.9-3.1-4.5c-2.2-0.6-4.5,0.4-5,2.3c-0.7,2.3,0.4,3.1,3.3,4.7
			c3.1,1.6,5.9,3.5,4.7,7.7c-0.7,2.6-3.2,4.4-6.1,4.4c-0.5,0-0.9,0.3-1.1,0.8l-0.2,0.9C39.8,443.4,39.1,443.8,38.4,443.6z"/>
	</g>
</g>
</svg>
