<?xml version="1.0" encoding="utf-8"?>
<!-- Generator: Adobe Illustrator 26.0.2, SVG Export Plug-In . SVG Version: 6.00 Build 0)  -->
<svg version="1.1" id="facebook-agency-illustration-01"
	 xmlns="http://www.w3.org/2000/svg" xmlns:xlink="http://www.w3.org/1999/xlink" x="0px" y="0px" viewBox="0 0 400 400"
	 style="enable-background:new 0 0 400 400;" xml:space="preserve">
<style type="text/css">
	.st0{fill:none;}
	.st1{fill:#1877F2;}
	.st2{fill:#515979;}
	.st3{fill:#FFD886;}
	.st4{fill:#FFC369;}
	.st5{fill:#50C864;}
	.st6{fill:#96DEA2;}
	.st7{fill:#2196F3;}
	.st8{fill:#EF7D7D;}
	.st9{fill:#FFF1C6;}
	.st10{fill:#7AC0F8;}
	.st11{fill:#F5B1B1;}
	.st12{fill:#D8EBFB;}
	.st13{fill:#B29D90;}
	.st14{fill:#747A94;}
</style>
<g>
	<g>
		<rect class="st0" width="400" height="400"/>
	</g>
	<g>
		<path class="st1" d="M189.33,250.67c-33.14,0-60,26.86-60,60c0,29.95,21.94,54.77,50.62,59.27v-41.93h-15.23v-17.34h15.23v-13.22
			c0-15.04,8.96-23.34,22.66-23.34c6.56,0,13.43,1.17,13.43,1.17v14.77h-7.57c-7.45,0-9.78,4.62-9.78,9.37v11.26h16.64l-2.66,17.34
			h-13.98v41.93c28.68-4.5,50.63-29.32,50.63-59.27C249.33,277.53,222.47,250.67,189.33,250.67z"/>
	</g>
	<g>
		<g>
			<path class="st2" d="M288.67,72.88c15.13,0,16.92,0.06,22.9,0.33c5.52,0.25,8.53,1.18,10.52,1.95c2.64,1.03,4.53,2.26,6.52,4.24
				c1.98,1.98,3.21,3.87,4.24,6.52c0.78,2,1.7,5,1.95,10.52c0.27,5.98,0.33,7.77,0.33,22.9c0,15.13-0.06,16.92-0.33,22.9
				c-0.25,5.52-1.18,8.53-1.95,10.52c-1.03,2.65-2.26,4.53-4.24,6.52c-1.98,1.98-3.87,3.21-6.52,4.24c-2,0.78-5,1.7-10.52,1.95
				c-5.97,0.27-7.77,0.33-22.9,0.33c-15.13,0-16.92-0.06-22.9-0.33c-5.52-0.25-8.53-1.18-10.52-1.95c-2.65-1.03-4.53-2.26-6.52-4.24
				c-1.98-1.98-3.21-3.87-4.24-6.52c-0.78-2-1.7-5-1.95-10.52c-0.27-5.98-0.33-7.77-0.33-22.9c0-15.13,0.06-16.92,0.33-22.9
				c0.25-5.52,1.18-8.53,1.95-10.52c1.03-2.65,2.26-4.53,4.24-6.52c1.98-1.98,3.87-3.21,6.52-4.24c2-0.78,5-1.7,10.52-1.95
				C271.74,72.93,273.54,72.88,288.67,72.88 M288.67,62.67c-15.39,0-17.32,0.07-23.36,0.34c-6.03,0.28-10.15,1.23-13.76,2.63
				c-3.73,1.45-6.89,3.39-10.04,6.54c-3.15,3.15-5.09,6.31-6.54,10.04c-1.4,3.6-2.36,7.72-2.63,13.76
				c-0.28,6.04-0.34,7.97-0.34,23.36c0,15.39,0.07,17.32,0.34,23.36c0.28,6.03,1.23,10.15,2.63,13.76
				c1.45,3.73,3.39,6.89,6.54,10.04c3.15,3.15,6.31,5.09,10.04,6.54c3.6,1.4,7.72,2.36,13.76,2.63c6.04,0.28,7.97,0.34,23.36,0.34
				c15.39,0,17.32-0.07,23.36-0.34c6.03-0.28,10.15-1.23,13.76-2.63c3.73-1.45,6.89-3.39,10.04-6.54c3.15-3.15,5.09-6.31,6.54-10.04
				c1.4-3.6,2.36-7.72,2.63-13.76c0.28-6.04,0.34-7.97,0.34-23.36s-0.07-17.32-0.34-23.36c-0.28-6.03-1.23-10.15-2.63-13.76
				c-1.45-3.73-3.39-6.89-6.54-10.04c-3.15-3.15-6.31-5.09-10.04-6.54c-3.6-1.4-7.72-2.36-13.76-2.63
				C305.99,62.73,304.06,62.67,288.67,62.67L288.67,62.67z"/>
		</g>
		<g>
			<path class="st2" d="M288.67,90.23c-16.07,0-29.1,13.03-29.1,29.1s13.03,29.1,29.1,29.1s29.1-13.03,29.1-29.1
				S304.74,90.23,288.67,90.23z M288.67,138.22c-10.43,0-18.89-8.46-18.89-18.89c0-10.43,8.46-18.89,18.89-18.89
				c10.43,0,18.89,8.46,18.89,18.89S299.1,138.22,288.67,138.22z"/>
		</g>
		<g>
			<circle class="st2" cx="318.92" cy="89.08" r="6.8"/>
		</g>
	</g>
	<g>
		<path class="st3" d="M225.47,43.47c-3.09,0-5.6-2.51-5.6-5.6c0-1.03-0.84-1.87-1.87-1.87c-1.03,0-1.87,0.84-1.87,1.87
			c0,3.09-2.51,5.6-5.6,5.6c-1.03,0-1.87,0.84-1.87,1.87s0.84,1.87,1.87,1.87c3.09,0,5.6,2.51,5.6,5.6c0,1.03,0.84,1.87,1.87,1.87
			c1.03,0,1.87-0.84,1.87-1.87c0-3.09,2.51-5.6,5.6-5.6c1.03,0,1.87-0.84,1.87-1.87S226.5,43.47,225.47,43.47z"/>
	</g>
	<g>
		<path class="st3" d="M96.93,270.93c-3.97,0-7.2-3.23-7.2-7.2c0-1.33-1.07-2.4-2.4-2.4c-1.33,0-2.4,1.07-2.4,2.4
			c0,3.97-3.23,7.2-7.2,7.2c-1.33,0-2.4,1.07-2.4,2.4c0,1.33,1.07,2.4,2.4,2.4c3.97,0,7.2,3.23,7.2,7.2c0,1.33,1.07,2.4,2.4,2.4
			c1.33,0,2.4-1.07,2.4-2.4c0-3.97,3.23-7.2,7.2-7.2c1.33,0,2.4-1.07,2.4-2.4C99.33,272.01,98.26,270.93,96.93,270.93z"/>
	</g>
	<g>
		<path class="st3" d="M376.93,36.27c-3.97,0-7.2-3.23-7.2-7.2c0-1.33-1.07-2.4-2.4-2.4c-1.33,0-2.4,1.07-2.4,2.4
			c0,3.97-3.23,7.2-7.2,7.2c-1.33,0-2.4,1.07-2.4,2.4c0,1.33,1.07,2.4,2.4,2.4c3.97,0,7.2,3.23,7.2,7.2c0,1.33,1.07,2.4,2.4,2.4
			c1.33,0,2.4-1.07,2.4-2.4c0-3.97,3.23-7.2,7.2-7.2c1.33,0,2.4-1.07,2.4-2.4C379.33,37.34,378.26,36.27,376.93,36.27z"/>
	</g>
	<g>
		<circle class="st3" cx="79.33" cy="328" r="4"/>
	</g>
	<g>
		<circle class="st3" cx="272" cy="376.67" r="3.33"/>
	</g>
	<g>
		<circle class="st3" cx="365.33" cy="216.67" r="3.33"/>
	</g>
	<g>
		<circle class="st3" cx="309.33" cy="331.33" r="6"/>
	</g>
	<g>
		<circle class="st3" cx="381.33" cy="131.33" r="6"/>
	</g>
	<g>
		<circle class="st3" cx="23.33" cy="277.33" r="5.33"/>
	</g>
	<g>
		<circle class="st3" cx="30.67" cy="39.33" r="3.33"/>
	</g>
	<path class="st3" d="M333.33,237.33H324V228c0-2.21-1.79-4-4-4s-4,1.79-4,4v9.33h-9.33c-2.21,0-4,1.79-4,4s1.79,4,4,4H316v9.33
		c0,2.21,1.79,4,4,4s4-1.79,4-4v-9.33h9.33c2.21,0,4-1.79,4-4S335.54,237.33,333.33,237.33z"/>
	<g>
		<g>
			<g>
				<path class="st4" d="M125.75,234.14c-22.07,0-45.82-6.76-65.15-18.54c-24.2-14.75-40.27-36.51-46.46-62.93
					c-6-25.62-1.76-49.88,12.27-70.16c16.51-23.87,45.63-40.65,77.89-44.88c5.78-0.76,11.51-1.14,17.02-1.14
					c43.08,0,75.34,24.03,80.27,59.8c5.6,40.61-20.52,49.84-39.58,56.58c-17.23,6.09-23.49,9.47-20.89,20.91
					c1.62,7.11,7.14,13.87,12.49,20.41c7.13,8.73,13.86,16.97,9.87,25.45C159.2,228.71,145.09,234.14,125.75,234.14
					C125.75,234.14,125.75,234.14,125.75,234.14z M113.32,188.88c-7.48,0-13.56,3.93-15.12,9.77c-2.01,7.5,4.02,15.65,13.44,18.18
					c1.85,0.5,3.74,0.75,5.61,0.75c7.48,0,13.56-3.93,15.12-9.77c2.01-7.5-4.02-15.65-13.44-18.18
					C117.07,189.14,115.19,188.88,113.32,188.88z"/>
			</g>
			<g>
				<path class="st2" d="M121.31,40.49c43.08,0,71.83,23.86,76.31,56.34c9.08,65.83-68.84,40.83-60.41,77.83
					c4,17.58,28.01,31.86,22.64,43.27c-3.64,7.73-16.93,12.21-34.1,12.21c-37.84,0-94.45-21.76-107.71-78.39
					C3.46,89.51,53.7,48.3,104.81,41.59C110.52,40.85,116.02,40.49,121.31,40.49 M117.25,221.58c9.04,0,16.9-4.96,18.99-12.73
					c2.58-9.64-4.7-19.98-16.27-23.08c-2.24-0.6-4.47-0.89-6.64-0.89c-9.04,0-16.9,4.96-18.99,12.73
					c-2.58,9.64,4.7,19.98,16.27,23.08C112.84,221.29,115.08,221.58,117.25,221.58 M121.31,32.49c-5.69,0-11.59,0.4-17.54,1.18
					c-33.36,4.37-63.51,21.78-80.66,46.57c-14.69,21.23-19.14,46.59-12.87,73.34c6.44,27.49,23.13,50.11,48.27,65.44
					c19.95,12.16,44.45,19.13,67.24,19.13c21.25,0,36.32-6.12,41.34-16.8c5.06-10.76-3.15-20.82-10.4-29.68
					c-5.05-6.18-10.27-12.57-11.68-18.77c-1.77-7.78,0.8-10.05,18.32-16.25c19.22-6.79,48.26-17.06,42.21-60.9
					c-2.5-18.16-12-34.36-26.75-45.62C163.69,38.58,143.81,32.49,121.31,32.49L121.31,32.49z M117.25,213.58
					c-1.52,0-3.05-0.21-4.57-0.61c-7.17-1.92-12.03-8-10.61-13.28c1.07-4.01,5.7-6.8,11.26-6.8c1.52,0,3.05,0.21,4.57,0.61
					c7.17,1.92,12.03,8,10.61,13.28C127.43,210.78,122.8,213.58,117.25,213.58L117.25,213.58z"/>
			</g>
		</g>
		<g>
			<g>
				<path class="st5" d="M157.99,111.45c-5.71,0-11.5-2.25-15.12-5.87c-3.64-3.64-6-9.58-6-15.12c0-4.78,2.34-9.54,6.95-14.16
					c4.75-4.75,9.38-7.06,14.16-7.06c5.7,0,11.71,2.32,15.3,5.91c3.74,3.74,6.25,9.89,6.25,15.3c0,5.47-2.49,11.64-6.2,15.35
					C169.19,109.97,162.69,111.45,157.99,111.45z"/>
			</g>
			<g>
				<path class="st2" d="M157.99,73.26c4.48,0,9.54,1.8,12.47,4.74c2.94,2.94,5.08,7.99,5.08,12.47c0,4.48-2.09,9.59-5.03,12.52
					c-2.94,2.94-8.04,4.46-12.52,4.46c-4.48,0-9.35-1.76-12.29-4.7c-2.94-2.94-4.82-7.81-4.82-12.29c0-4.48,2.85-8.39,5.78-11.33
					C149.6,76.2,153.51,73.26,157.99,73.26 M157.99,65.26c-5.81,0-11.53,2.77-16.99,8.23c-5.39,5.39-8.13,11.11-8.13,16.99
					c0,6.65,2.75,13.52,7.17,17.94c4.34,4.34,11.22,7.04,17.94,7.04c5.5,0,13.17-1.79,18.18-6.8c4.48-4.48,7.37-11.62,7.37-18.18
					c0-6.5-2.91-13.62-7.42-18.13C171.75,67.97,164.81,65.26,157.99,65.26L157.99,65.26z"/>
			</g>
		</g>
		<g>
			<path class="st6" d="M150.88,94.42c-1.47,0-2.67-1.19-2.67-2.67c0-2.86,1.39-5.69,4.12-8.42c2.81-2.81,5.56-4.18,8.42-4.18
				c1.47,0,2.67,1.19,2.67,2.67s-1.19,2.67-2.67,2.67c-1.35,0-2.92,0.88-4.65,2.61c-1.7,1.69-2.56,3.26-2.56,4.65
				C153.55,93.23,152.35,94.42,150.88,94.42z"/>
		</g>
		<g>
			<g>
				<path class="st3" d="M101.78,99.83c-4.31,0-8.09-1.87-10.91-3.5c-3.9-2.26-6.63-4.8-8.35-7.76c-2.12-3.66-2.39-7.87-2.39-11.12
					l0-0.69c-0.01-3.44-0.02-7.33,1.93-10.7c1.77-3.06,4.81-4.55,7.26-5.76c0.67-0.33,1.35-0.66,1.97-1.02
					c3.22-1.87,6.56-2.73,10.49-2.73c3.81,0,7.02,0.88,10.43,2.85c2.98,1.73,6.07,3.71,8.15,7.32c2.16,3.74,2.44,7.7,2.44,10.73
					c0,4.28-0.81,7.67-2.54,10.67c-1.78,3.08-4.3,5.49-7.93,7.59c-0.43,0.25-0.87,0.52-1.31,0.79
					C108.6,97.98,105.58,99.83,101.78,99.83z"/>
			</g>
			<g>
				<path class="st2" d="M101.78,60.55c3.25,0,5.8,0.79,8.42,2.31c2.71,1.57,5.13,3.16,6.7,5.86c1.52,2.62,1.9,5.48,1.9,8.73
					c0,3.25-0.49,6.05-2.01,8.67c-1.57,2.71-3.77,4.56-6.47,6.13c-2.62,1.52-5.29,3.58-8.54,3.58c-3.25,0-6.28-1.44-8.9-2.96
					c-2.71-1.57-5.32-3.6-6.89-6.3c-1.52-2.62-1.85-5.87-1.85-9.12c0-3.25-0.13-6.76,1.39-9.38c1.57-2.71,5.06-3.75,7.77-5.32
					C95.91,61.23,98.53,60.55,101.78,60.55 M101.78,52.55c-4.67,0-8.64,1.04-12.49,3.27c-0.47,0.27-1.08,0.57-1.73,0.89
					c-2.78,1.37-6.58,3.24-8.95,7.34c-2.49,4.3-2.48,8.97-2.47,12.71l0,0.68c0,3.46,0.3,8.59,2.93,13.12
					c2.08,3.59,5.28,6.61,9.81,9.22c3.25,1.88,7.65,4.04,12.91,4.04c4.93,0,8.63-2.27,11.33-3.92c0.41-0.25,0.81-0.5,1.22-0.73
					c4.26-2.47,7.24-5.34,9.39-9.05c2.1-3.63,3.08-7.66,3.08-12.67c0-3.53-0.34-8.17-2.98-12.73c-2.58-4.46-6.32-6.87-9.61-8.78
					C110.22,53.62,106.27,52.55,101.78,52.55L101.78,52.55z"/>
			</g>
		</g>
		<g>
			<g>
				<path class="st7" d="M55.43,135.11c-7.67,0-13.08-1.69-16.56-5.16c-4.2-4.19-4.17-10.45-4.15-15.47l0-1.09
					c0-5.74,1.95-10.37,6.14-14.56c4.11-4.11,8.6-5.95,14.56-5.95c4.56,0,10.41,0.61,15.15,5.35c4.52,4.52,6.81,9.61,6.81,15.15
					c0,6.36-2.18,12.19-5.97,15.99C67.72,133.07,62.04,135.11,55.43,135.11z"/>
			</g>
			<g>
				<path class="st2" d="M55.43,96.89c4.97,0,9.07,0.92,12.32,4.18c3.26,3.26,5.64,7.36,5.64,12.32s-1.55,9.9-4.8,13.16
					c-3.26,3.26-8.19,4.56-13.16,4.56s-10.47-0.73-13.73-3.99c-3.26-3.26-2.97-8.76-2.97-13.73s1.72-8.47,4.97-11.73
					C46.95,98.41,50.46,96.89,55.43,96.89 M55.43,88.89c-7.01,0-12.53,2.26-17.39,7.12c-4.99,4.99-7.31,10.51-7.31,17.39l0,1.07
					c-0.02,5.46-0.05,12.94,5.32,18.31c4.26,4.26,10.6,6.33,19.38,6.33c7.68,0,14.36-2.45,18.81-6.9c4.54-4.54,7.14-11.4,7.14-18.81
					c0-6.54-2.76-12.76-7.98-17.98C67.56,89.56,60.35,88.89,55.43,88.89L55.43,88.89z"/>
			</g>
		</g>
		<g>
			<g>
				<path class="st8" d="M65.79,191.43c-4.63,0-8.45-0.85-11.33-2.52c-3.49-2.02-5.82-5.51-7.64-8.66
					c-1.75-3.03-2.64-6.71-2.64-10.96c0-4.34,1.66-7.79,3.28-10.59c1.86-3.22,4.41-5.74,7.78-7.69c2.77-1.6,6.19-3.24,10.55-3.24
					c4.29,0,7.85,0.86,10.91,2.63c2.87,1.66,6.43,4.03,8.53,7.66c1.78,3.07,1.66,6.4,1.56,9.34c-0.02,0.63-0.04,1.26-0.04,1.88
					c0,4.01-0.86,7.36-2.7,10.55c-1.94,3.36-4.46,5.9-7.68,7.77L75.7,188C73.09,189.53,69.83,191.43,65.79,191.43z"/>
			</g>
			<g>
				<path class="st2" d="M65.79,151.78c3.24,0,6.29,0.57,8.91,2.09c2.7,1.56,5.51,3.5,7.07,6.2c1.51,2.62,0.98,5.98,0.98,9.23
					c0,3.24-0.65,5.93-2.16,8.54c-1.56,2.7-3.52,4.75-6.23,6.31c-2.62,1.51-5.33,3.28-8.57,3.28c-3.24,0-6.71-0.46-9.33-1.98
					c-2.7-1.56-4.62-4.5-6.18-7.2c-1.51-2.62-2.1-5.71-2.1-8.96c0-3.24,1.23-5.97,2.74-8.59c1.56-2.7,3.62-4.66,6.32-6.23
					C59.86,152.97,62.55,151.78,65.79,151.78 M65.79,143.78c-5.34,0-9.52,2.02-12.56,3.78c-3.99,2.31-7.02,5.3-9.24,9.14
					c-1.78,3.07-3.82,7.28-3.82,12.59c0,4.96,1.07,9.32,3.18,12.96c2.09,3.61,4.8,7.63,9.1,10.12c3.5,2.03,7.99,3.05,13.34,3.05
					c5.13,0,9.06-2.3,11.93-3.98l0.65-0.38c3.85-2.23,6.84-5.25,9.14-9.23c2.18-3.77,3.24-7.87,3.24-12.55
					c0-0.58,0.02-1.17,0.04-1.75c0.11-3.13,0.25-7.42-2.1-11.48c-2.57-4.45-6.69-7.21-9.99-9.12
					C75.07,144.85,70.73,143.78,65.79,143.78L65.79,143.78z"/>
			</g>
		</g>
		<g>
			<path class="st9" d="M92.21,81.09c-1.47,0-2.67-1.19-2.67-2.67c0-2.86,1.39-5.69,4.12-8.42c2.81-2.81,5.56-4.18,8.42-4.18
				c1.47,0,2.67,1.19,2.67,2.67s-1.19,2.67-2.67,2.67c-1.35,0-2.92,0.88-4.65,2.61c-1.7,1.69-2.56,3.26-2.56,4.65
				C94.88,79.89,93.69,81.09,92.21,81.09z"/>
		</g>
		<g>
			<path class="st10" d="M46.88,117.09c-1.47,0-2.67-1.19-2.67-2.67c0-2.86,1.39-5.69,4.12-8.42c2.81-2.81,5.56-4.18,8.42-4.18
				c1.47,0,2.67,1.19,2.67,2.67s-1.19,2.67-2.67,2.67c-1.35,0-2.92,0.88-4.65,2.61c-1.7,1.69-2.56,3.26-2.56,4.65
				C49.55,115.89,48.35,117.09,46.88,117.09z"/>
		</g>
		<g>
			<path class="st11" d="M56.21,171.75c-1.47,0-2.67-1.19-2.67-2.67c0-2.86,1.39-5.69,4.12-8.42c2.81-2.81,5.56-4.18,8.42-4.18
				c1.47,0,2.67,1.19,2.67,2.67s-1.19,2.67-2.67,2.67c-1.35,0-2.92,0.88-4.65,2.61c-1.7,1.69-2.56,3.26-2.56,4.65
				C58.88,170.56,57.69,171.75,56.21,171.75z"/>
		</g>
	</g>
	<g>
		<g>
			<g>
				
					<rect x="147.39" y="149.24" transform="matrix(0.5736 -0.8192 0.8192 0.5736 -64.1552 196.5722)" class="st12" width="18.67" height="21.33"/>
			</g>
			<g>
				<g>
					<path class="st2" d="M154.32,151.71l10.92,7.65l-6.12,8.74l-10.92-7.65L154.32,151.71 M152.36,140.57l-4.59,6.55l-6.12,8.74
						l-4.59,6.55l6.55,4.59l10.92,7.65l6.55,4.59l4.59-6.55l6.12-8.74l4.59-6.55l-6.55-4.59l-10.92-7.65L152.36,140.57
						L152.36,140.57z"/>
				</g>
			</g>
		</g>
		<g>
			<g>
				<path class="st13" d="M256.43,233.05c-0.43,0-0.86-0.07-1.28-0.21c-0.72-0.24-17.76-6.04-37.76-15.98
					c-27.17-13.51-45.74-27.56-55.17-41.77c-0.91-1.37-0.89-3.16,0.06-4.51l7.02-10.02c0.76-1.08,1.99-1.71,3.28-1.71
					c0.31,0,0.63,0.04,0.94,0.11c16.58,4.01,36.13,16.65,58.12,37.56c16.19,15.4,27.46,29.43,27.93,30.02
					c1.11,1.39,1.17,3.34,0.15,4.79C258.94,232.43,257.71,233.05,256.43,233.05z"/>
			</g>
			<g>
				<path class="st2" d="M172.56,162.86c38.31,9.26,83.87,66.19,83.87,66.19s-69.08-23.34-90.88-56.17L172.56,162.86 M172.56,154.86
					c-2.57,0-5.03,1.24-6.55,3.41l-7.02,10.02c-1.89,2.7-1.93,6.27-0.11,9.01c23.06,34.71,92.06,58.33,94.99,59.32
					c0.84,0.28,1.71,0.42,2.56,0.42c2.56,0,5.03-1.23,6.55-3.41c2.04-2.91,1.91-6.81-0.31-9.59c-1.93-2.41-47.73-59.18-88.23-68.97
					C173.82,154.93,173.19,154.86,172.56,154.86L172.56,154.86z"/>
			</g>
		</g>
		<g>
			<g>
				<path class="st14" d="M137.05,160.81c-3.02,0-5.92-0.92-8.4-2.65c-5.47-3.83-7.08-8.2-8.5-12.06c-1.14-3.1-2.21-6.03-5.44-9.15
					c-0.99-0.96-1.42-2.35-1.13-3.7c0.28-1.35,1.24-2.45,2.53-2.93c3.66-1.35,7.41-2.03,11.14-2.03c10.22,0,17.25,5.09,18.31,5.9
					c6.55,4.66,8.13,13.77,3.51,20.36C146.34,158.47,141.84,160.81,137.05,160.81C137.05,160.81,137.05,160.81,137.05,160.81z"/>
			</g>
			<g>
				<g>
					<path class="st2" d="M127.26,132.28c9.58,0,15.92,5.12,15.92,5.12c4.83,3.38,6,10.03,2.62,14.86
						c-2.08,2.96-5.38,4.55-8.75,4.55c-2.11,0-4.25-0.63-6.11-1.93c-8.5-5.95-5.3-12.93-13.45-20.81
						C121,132.77,124.28,132.28,127.26,132.28 M127.26,124.28c-4.21,0-8.43,0.77-12.53,2.28c-2.58,0.95-4.49,3.16-5.06,5.85
						c-0.57,2.69,0.29,5.49,2.26,7.4c2.57,2.49,3.37,4.66,4.47,7.66c1.54,4.19,3.45,9.41,9.96,13.96c3.15,2.21,6.85,3.38,10.7,3.38
						c6.09,0,11.81-2.98,15.3-7.96c5.86-8.37,3.88-19.92-4.4-25.87C146.31,129.72,138.56,124.28,127.26,124.28L127.26,124.28z"/>
				</g>
			</g>
		</g>
		<g>
			<g>
				<path class="st8" d="M117.5,134.07c8.05,7.79,5.04,14.7,13.18,20.6c3.88-3.77,9.37-12.95,4.76-21.12
					C130.9,132.13,124.66,131.43,117.5,134.07z"/>
			</g>
		</g>
	</g>
</g>
</svg>
