<?xml version="1.0" encoding="utf-8"?>
<!-- Generator: Adobe Illustrator 26.0.2, SVG Export Plug-In . SVG Version: 6.00 Build 0)  -->
<svg version="1.1" id="facebook-agency-illustration-02"
	 xmlns="http://www.w3.org/2000/svg" xmlns:xlink="http://www.w3.org/1999/xlink" x="0px" y="0px" viewBox="0 0 400 400"
	 style="enable-background:new 0 0 400 400;" xml:space="preserve">
<style type="text/css">
	.st0{fill:none;}
	.st1{fill:#FFD886;}
	.st2{fill:#515979;}
	.st3{fill:#FBB040;}
	.st4{fill:#9E8271;}
	.st5{fill:#FFE8B6;}
	.st6{fill:#FFC369;}
	.st7{fill:#FFFFFF;}
</style>
<g>
	<rect class="st0" width="400" height="400"/>
	<g>
		<g>
			<path class="st1" d="M95.87,73.87c-3.53,0-6.4-2.87-6.4-6.4c0-1.18-0.96-2.13-2.13-2.13c-1.18,0-2.13,0.96-2.13,2.13
				c0,3.53-2.87,6.4-6.4,6.4c-1.18,0-2.13,0.96-2.13,2.13s0.96,2.13,2.13,2.13c3.53,0,6.4,2.87,6.4,6.4c0,1.18,0.96,2.13,2.13,2.13
				c1.18,0,2.13-0.96,2.13-2.13c0-3.53,2.87-6.4,6.4-6.4c1.18,0,2.13-0.96,2.13-2.13S97.04,73.87,95.87,73.87z"/>
		</g>
		<g>
			<path class="st1" d="M315.6,329.6c-3.97,0-7.2-3.23-7.2-7.2c0-1.33-1.07-2.4-2.4-2.4c-1.33,0-2.4,1.07-2.4,2.4
				c0,3.97-3.23,7.2-7.2,7.2c-1.33,0-2.4,1.07-2.4,2.4s1.07,2.4,2.4,2.4c3.97,0,7.2,3.23,7.2,7.2c0,1.33,1.07,2.4,2.4,2.4
				c1.33,0,2.4-1.07,2.4-2.4c0-3.97,3.23-7.2,7.2-7.2c1.33,0,2.4-1.07,2.4-2.4S316.93,329.6,315.6,329.6z"/>
		</g>
		<g>
			<path class="st1" d="M318.27,74.93c-3.97,0-7.2-3.23-7.2-7.2c0-1.33-1.07-2.4-2.4-2.4c-1.33,0-2.4,1.07-2.4,2.4
				c0,3.97-3.23,7.2-7.2,7.2c-1.33,0-2.4,1.07-2.4,2.4c0,1.33,1.07,2.4,2.4,2.4c3.97,0,7.2,3.23,7.2,7.2c0,1.33,1.07,2.4,2.4,2.4
				c1.33,0,2.4-1.07,2.4-2.4c0-3.97,3.23-7.2,7.2-7.2c1.33,0,2.4-1.07,2.4-2.4C320.67,76.01,319.59,74.93,318.27,74.93z"/>
		</g>
		<g>
			<circle class="st1" cx="48.67" cy="217.33" r="4"/>
		</g>
		<g>
			<circle class="st1" cx="65.33" cy="319.33" r="3.33"/>
		</g>
		<g>
			<circle class="st1" cx="362.67" cy="279.33" r="3.33"/>
		</g>
		<g>
			<circle class="st1" cx="293.33" cy="239.33" r="6"/>
		</g>
		<g>
			<circle class="st1" cx="220.67" cy="42.67" r="5.33"/>
		</g>
		<g>
			<circle class="st1" cx="56" cy="136.67" r="3.33"/>
		</g>
		<g>
			<circle class="st1" cx="338" cy="185.33" r="4"/>
		</g>
		<path class="st1" d="M114,262.67h-9.33v-9.33c0-2.21-1.79-4-4-4s-4,1.79-4,4v9.33h-9.33c-2.21,0-4,1.79-4,4c0,2.21,1.79,4,4,4
			h9.33V280c0,2.21,1.79,4,4,4s4-1.79,4-4v-9.33H114c2.21,0,4-1.79,4-4C118,264.46,116.21,262.67,114,262.67z"/>
	</g>
	<g>
		<g>
			<g>
				<path class="st1" d="M120,180c-16.91,0-30.67-13.76-30.67-30.67v-38.67c0-2.21,1.79-4,4-4h40c2.21,0,4,1.79,4,4v8
					c0,2.21-1.79,4-4,4h-28V148c0,8.82,7.18,16,16,16h12c2.21,0,4,1.79,4,4v8c0,2.21-1.79,4-4,4H120z"/>
			</g>
			<g>
				<path class="st2" d="M133.33,110.67v8h-32V148c0,11.05,8.95,20,20,20h12v8H120c-14.73,0-26.67-11.94-26.67-26.67v-38.67H133.33
					 M133.33,102.67h-40c-4.42,0-8,3.58-8,8v38.67c0,19.12,15.55,34.67,34.67,34.67h13.33c4.42,0,8-3.58,8-8v-8c0-4.42-3.58-8-8-8
					h-12c-6.62,0-12-5.38-12-12v-21.33h24c4.42,0,8-3.58,8-8v-8C141.33,106.25,137.75,102.67,133.33,102.67L133.33,102.67z"/>
			</g>
		</g>
		<g>
			<g>
				<rect x="117.33" y="110.67" class="st3" width="16" height="8"/>
			</g>
			<g>
				<path class="st3" d="M133.33,168h-12c-0.43,0-0.85-0.04-1.28-0.06c0.76,2.76,1.68,5.45,2.74,8.06h10.53V168z"/>
			</g>
		</g>
		<g>
			<g>
				<path class="st1" d="M266.67,180c-2.21,0-4-1.79-4-4v-8c0-2.21,1.79-4,4-4h12c8.82,0,16-7.18,16-16v-25.33h-28
					c-2.21,0-4-1.79-4-4v-8c0-2.21,1.79-4,4-4h40c2.21,0,4,1.79,4,4v38.67c0,16.91-13.76,30.67-30.67,30.67H266.67z"/>
			</g>
			<g>
				<path class="st2" d="M306.67,110.67v38.67c0,14.73-11.94,26.67-26.67,26.67h-13.33v-8h12c11.05,0,20-8.95,20-20v-29.33h-32v-8
					H306.67 M306.67,102.67h-40c-4.42,0-8,3.58-8,8v8c0,4.42,3.58,8,8,8h24V148c0,6.62-5.38,12-12,12h-12c-4.42,0-8,3.58-8,8v8
					c0,4.42,3.58,8,8,8H280c19.12,0,34.67-15.55,34.67-34.67v-38.67C314.67,106.25,311.08,102.67,306.67,102.67L306.67,102.67z"/>
			</g>
		</g>
		<g>
			<g>
				<rect x="266.67" y="110.67" class="st3" width="16" height="8"/>
			</g>
			<g>
				<path class="st3" d="M266.67,168h12c0.43,0,0.85-0.04,1.28-0.06c-0.76,2.76-1.68,5.45-2.74,8.06h-10.53V168z"/>
			</g>
		</g>
		<g>
			<g>
				<path class="st1" d="M192,264c-2.21,0-4-1.79-4-4v-37.33c0-2.21,1.79-4,4-4h16c2.21,0,4,1.79,4,4V260c0,2.21-1.79,4-4,4H192z"/>
			</g>
			<g>
				<g>
					<path class="st2" d="M208,222.67V260h-16v-37.33H208 M208,214.67h-16c-4.42,0-8,3.58-8,8V260c0,4.42,3.58,8,8,8h16
						c4.42,0,8-3.58,8-8v-37.33C216,218.25,212.42,214.67,208,214.67L208,214.67z"/>
				</g>
			</g>
		</g>
		<g>
			<rect x="192" y="214.67" class="st3" width="16" height="21.33"/>
		</g>
		<g>
			<g>
				<path class="st4" d="M150.67,322.67c-2.21,0-4-1.79-4-4v-56c0-2.21,1.79-4,4-4h98.67c2.21,0,4,1.79,4,4v56c0,2.21-1.79,4-4,4
					H150.67z"/>
			</g>
			<g>
				<g>
					<path class="st2" d="M249.33,262.67v56h-98.67v-56H249.33 M249.33,254.67h-98.67c-4.42,0-8,3.58-8,8v56c0,4.42,3.58,8,8,8
						h98.67c4.42,0,8-3.58,8-8v-56C257.33,258.25,253.75,254.67,249.33,254.67L249.33,254.67z"/>
				</g>
			</g>
		</g>
		<g>
			<g>
				<path class="st1" d="M164,308c-1.47,0-2.67-1.19-2.67-2.67V276c0-1.47,1.19-2.67,2.67-2.67h72c1.47,0,2.67,1.19,2.67,2.67v29.33
					c0,1.47-1.19,2.67-2.67,2.67H164z"/>
			</g>
			<g>
				<g>
					<path class="st2" d="M236,276v29.33h-72V276H236 M236,270.67h-72c-2.95,0-5.33,2.39-5.33,5.33v29.33
						c0,2.95,2.39,5.33,5.33,5.33h72c2.95,0,5.33-2.39,5.33-5.33V276C241.33,273.05,238.95,270.67,236,270.67L236,270.67z"/>
				</g>
			</g>
		</g>
		<g>
			<g>
				<path class="st1" d="M200,218.67c-38.97,0-70.67-31.7-70.67-70.67V81.33c0-2.21,1.79-4,4-4h133.33c2.21,0,4,1.79,4,4V148
					C270.67,186.97,238.97,218.67,200,218.67z"/>
			</g>
			<g>
				<path class="st2" d="M266.67,81.33V148c0,36.82-29.85,66.67-66.67,66.67h0c-36.82,0-66.67-29.85-66.67-66.67V81.33H266.67
					 M266.67,73.33H133.33c-4.42,0-8,3.58-8,8V148c0,41.17,33.5,74.67,74.67,74.67c41.17,0,74.67-33.5,74.67-74.67V81.33
					C274.67,76.92,271.08,73.33,266.67,73.33L266.67,73.33z"/>
			</g>
		</g>
		<g>
			<g>
				<path class="st2" d="M182.81,285.91l-3,9.71h-2.04l-1.83-6.02c-0.04-0.09-0.07-0.2-0.1-0.31s-0.06-0.23-0.09-0.36
					c-0.03,0.12-0.06,0.24-0.09,0.36s-0.06,0.22-0.1,0.31l-1.85,6.02h-2.04l-3-9.71h1.89c0.2,0,0.36,0.04,0.49,0.13
					c0.13,0.09,0.22,0.21,0.26,0.35l1.33,5.07c0.04,0.16,0.08,0.33,0.12,0.52c0.04,0.19,0.08,0.39,0.12,0.59
					c0.08-0.42,0.18-0.79,0.29-1.11l1.57-5.07c0.04-0.12,0.12-0.24,0.26-0.34c0.13-0.1,0.29-0.15,0.48-0.15h0.67
					c0.2,0,0.35,0.05,0.47,0.14c0.12,0.09,0.21,0.21,0.27,0.35l1.56,5.07c0.11,0.31,0.21,0.66,0.29,1.06
					c0.04-0.2,0.07-0.39,0.11-0.56c0.04-0.18,0.08-0.34,0.12-0.5l1.33-5.07c0.04-0.13,0.12-0.24,0.25-0.34
					c0.13-0.1,0.29-0.15,0.48-0.15H182.81z"/>
			</g>
			<g>
				<path class="st2" d="M186.05,295.62h-2.27v-9.71h2.27V295.62z"/>
			</g>
			<g>
				<path class="st2" d="M196.41,285.91v9.71h-1.17c-0.17,0-0.32-0.03-0.44-0.08c-0.12-0.06-0.23-0.15-0.35-0.29l-4.58-5.79
					c0.02,0.17,0.03,0.34,0.04,0.5c0.01,0.16,0.01,0.31,0.01,0.46v5.21h-1.99v-9.71h1.19c0.1,0,0.18,0,0.25,0.01
					c0.07,0.01,0.13,0.03,0.18,0.05c0.05,0.02,0.1,0.06,0.15,0.1c0.05,0.04,0.1,0.1,0.17,0.18l4.62,5.83
					c-0.02-0.19-0.04-0.37-0.05-0.54c-0.01-0.18-0.01-0.34-0.01-0.5v-5.14H196.41z"/>
			</g>
			<g>
				<path class="st2" d="M208.11,288.53l-0.16,0.84c-0.04,0.21-0.13,0.36-0.26,0.46c-0.14,0.1-0.35,0.14-0.64,0.14h-0.42l-0.27,1.57
					h0.72c0.21,0,0.36,0.06,0.45,0.18c0.09,0.12,0.11,0.33,0.06,0.62l-0.11,0.64h-1.32l-0.47,2.63h-0.96
					c-0.09,0-0.18-0.02-0.26-0.07c-0.08-0.04-0.15-0.1-0.21-0.18c-0.05-0.08-0.09-0.16-0.12-0.26s-0.02-0.2,0-0.31l0.32-1.81h-1.1
					l-0.33,1.91c-0.02,0.13-0.06,0.24-0.12,0.33c-0.06,0.09-0.13,0.17-0.21,0.22c-0.08,0.06-0.17,0.1-0.27,0.13
					c-0.1,0.03-0.2,0.04-0.31,0.04h-0.92l0.47-2.63h-0.59c-0.21,0-0.36-0.06-0.45-0.18c-0.09-0.12-0.11-0.33-0.06-0.62l0.11-0.64
					h1.19l0.27-1.57h-1.33l0.16-0.84c0.04-0.2,0.13-0.36,0.26-0.45s0.35-0.15,0.64-0.15h0.45l0.35-1.95
					c0.04-0.21,0.14-0.37,0.3-0.49c0.16-0.12,0.35-0.18,0.56-0.18h0.95l-0.47,2.62h1.11l0.47-2.62h0.92c0.11,0,0.2,0.02,0.29,0.05
					c0.09,0.04,0.16,0.08,0.22,0.14c0.06,0.06,0.1,0.13,0.13,0.21c0.03,0.08,0.03,0.17,0.01,0.27l-0.35,1.94H208.11z M204.93,289.97
					h-1.11l-0.27,1.57h1.11L204.93,289.97z"/>
			</g>
			<g>
				<path class="st2" d="M215.51,285.91v0.87c0,0.26-0.03,0.47-0.09,0.62c-0.06,0.16-0.11,0.29-0.17,0.4l-3.37,7.15
					c-0.09,0.19-0.23,0.35-0.4,0.48c-0.17,0.13-0.4,0.2-0.68,0.2h-1.51l3.47-6.95c0.1-0.19,0.21-0.36,0.31-0.51
					c0.1-0.15,0.22-0.3,0.35-0.44h-4.27c-0.06,0-0.12-0.01-0.18-0.04c-0.06-0.02-0.1-0.06-0.15-0.1c-0.04-0.04-0.08-0.09-0.1-0.15
					c-0.03-0.06-0.04-0.11-0.04-0.17v-1.36H215.51z"/>
			</g>
			<g>
				<path class="st2" d="M223.33,291.85v1.16c0,0.1-0.04,0.19-0.1,0.27c-0.07,0.08-0.17,0.11-0.3,0.11h-0.6v2.23h-1.8v-2.23h-3.91
					c-0.13,0-0.25-0.04-0.35-0.12s-0.17-0.18-0.2-0.3l-0.21-1.02l4.49-6.04h1.97v5.94H223.33z M220.53,291.85v-2.53
					c0-0.16,0.01-0.32,0.02-0.5c0.01-0.18,0.03-0.37,0.05-0.56l-2.57,3.6H220.53z"/>
			</g>
			<g>
				<path class="st2" d="M226.59,289.33c0.18-0.04,0.36-0.06,0.53-0.07c0.17-0.01,0.33-0.02,0.49-0.02c0.51,0,0.96,0.08,1.35,0.23
					c0.39,0.16,0.72,0.37,0.99,0.64c0.27,0.27,0.47,0.58,0.6,0.95c0.14,0.36,0.2,0.75,0.2,1.16c0,0.52-0.09,0.99-0.28,1.42
					c-0.18,0.43-0.44,0.8-0.77,1.11c-0.33,0.31-0.72,0.55-1.18,0.72c-0.46,0.17-0.95,0.26-1.5,0.26c-0.32,0-0.62-0.03-0.9-0.1
					c-0.29-0.07-0.56-0.16-0.81-0.27c-0.25-0.11-0.48-0.24-0.7-0.39c-0.21-0.15-0.41-0.31-0.58-0.48l0.64-0.85
					c0.07-0.09,0.14-0.16,0.23-0.2c0.09-0.05,0.18-0.07,0.29-0.07c0.13,0,0.26,0.04,0.38,0.11c0.12,0.07,0.25,0.15,0.39,0.24
					c0.14,0.09,0.3,0.17,0.49,0.24c0.19,0.07,0.42,0.11,0.69,0.11c0.28,0,0.51-0.05,0.71-0.14s0.35-0.22,0.48-0.37
					c0.12-0.16,0.21-0.34,0.27-0.55c0.06-0.21,0.08-0.44,0.08-0.68c0-0.47-0.13-0.83-0.4-1.08c-0.27-0.25-0.64-0.37-1.13-0.37
					c-0.43,0-0.86,0.08-1.28,0.25l-1.28-0.35l0.83-4.86h4.97v0.85c0,0.14-0.02,0.27-0.07,0.39c-0.05,0.12-0.11,0.22-0.21,0.3
					c-0.1,0.09-0.22,0.15-0.38,0.2c-0.15,0.05-0.34,0.07-0.56,0.07h-2.32L226.59,289.33z"/>
			</g>
		</g>
		<g>
			<path class="st3" d="M200,208c-36.82,0-66.67-29.85-66.67-66.67V148c0,36.82,29.85,66.67,66.67,66.67s66.67-29.85,66.67-66.67
				v-6.67C266.67,178.15,236.82,208,200,208z"/>
		</g>
		<g>
			<rect x="133.33" y="81.33" class="st5" width="133.33" height="5.33"/>
		</g>
		<g>
			<g>
				<g>
					<circle class="st6" cx="242.67" cy="154.67" r="2.67"/>
				</g>
			</g>
			<g>
				<g>
					<circle class="st6" cx="253.33" cy="154.67" r="2.67"/>
				</g>
			</g>
			<g>
				<g>
					<circle class="st6" cx="248" cy="144" r="2.67"/>
				</g>
			</g>
		</g>
		<g>
			<g>
				<g>
					<circle class="st6" cx="146.67" cy="154.67" r="2.67"/>
				</g>
			</g>
			<g>
				<g>
					<circle class="st6" cx="157.33" cy="154.67" r="2.67"/>
				</g>
			</g>
			<g>
				<g>
					<circle class="st6" cx="152" cy="144" r="2.67"/>
				</g>
			</g>
		</g>
		<g>
			<g>
				<g>
					<path class="st2" d="M226,149.18c-0.43,0-0.86-0.1-1.26-0.32c-2.53-1.35-6.95-1.35-9.48,0c-1.3,0.7-2.91,0.21-3.61-1.09
						c-0.7-1.3-0.21-2.91,1.09-3.61c4.07-2.18,10.45-2.18,14.52,0c1.3,0.7,1.79,2.31,1.09,3.61
						C227.87,148.67,226.95,149.18,226,149.18z"/>
				</g>
				<g>
					<g>
						<circle class="st2" cx="220" cy="136.18" r="9.33"/>
					</g>
					<g>
						<circle class="st7" cx="222.33" cy="136.18" r="2.33"/>
					</g>
				</g>
				<g>
					<path class="st2" d="M213.37,113.49c4.32-3.87,11.33-4.55,16.1-1.04c2.42,1.7,5.8,6.15,2.09,8.08
						c-0.93,0.42-1.87,0.16-2.71-0.26c-2.22-1.03-3.73-1.78-6-2.08c-2.12-0.35-4.75-0.05-6.94-0.01c0,0-1.04-0.1-1.04-0.1
						C212.63,117.93,211.67,114.9,213.37,113.49L213.37,113.49z"/>
				</g>
				<g>
					<path class="st2" d="M186,149.18c-0.43,0-0.86-0.1-1.26-0.32c-2.52-1.35-6.95-1.35-9.48,0c-1.3,0.7-2.91,0.21-3.61-1.09
						c-0.7-1.3-0.21-2.91,1.09-3.61c4.07-2.18,10.45-2.18,14.52,0c1.3,0.7,1.79,2.31,1.09,3.61
						C187.87,148.67,186.95,149.18,186,149.18z"/>
				</g>
				<g>
					<g>
						<circle class="st2" cx="180" cy="136.18" r="9.33"/>
					</g>
					<g>
						<circle class="st7" cx="182.33" cy="136.18" r="2.33"/>
					</g>
				</g>
				<g>
					<path class="st2" d="M184.1,118.18c-2.19-0.04-4.82-0.34-6.94,0.01c-2.28,0.29-3.78,1.05-6,2.08c-1.5,0.87-3.47,0.49-4.17-1.2
						c-0.3-0.7-0.27-1.46,0-2.12c0.71-1.71,1.88-3.35,3.56-4.51c3.95-2.95,9.64-2.9,13.8-0.59c1.93,0.99,4.44,3.04,2.51,5.35
						C186.17,118.04,185.06,118.11,184.1,118.18L184.1,118.18z"/>
				</g>
			</g>
			<g>
				<path class="st2" d="M200.48,164.2c-7.05,0-14.28-1.89-20.53-5.69c-1.26-0.76-1.66-2.4-0.9-3.66c0.76-1.26,2.4-1.66,3.66-0.9
					c10.67,6.48,25.15,6.49,34.43,0.03c1.21-0.84,2.87-0.54,3.71,0.67s0.54,2.87-0.67,3.71C214.6,162.25,207.63,164.2,200.48,164.2z
					"/>
			</g>
			<g>
				<path class="st2" d="M194.43,168.35c3.6,1.05,7.54,1.15,11.13,0c1.71-0.62,3.12,1.61,1.85,2.89c0,0-0.96,1.01-0.96,1.01
					c-3.78,3.57-10.24,2.73-13.77-0.78C191.18,170.21,192.6,167.73,194.43,168.35L194.43,168.35z"/>
			</g>
		</g>
	</g>
</g>
</svg>
