<?xml version="1.0" encoding="utf-8"?>
<!-- Generator: Adobe Illustrator 26.0.2, SVG Export Plug-In . SVG Version: 6.00 Build 0)  -->
<svg version="1.1" id="facebook-agency-illustration-03"
	 xmlns="http://www.w3.org/2000/svg" xmlns:xlink="http://www.w3.org/1999/xlink" x="0px" y="0px" viewBox="0 0 400 400"
	 style="enable-background:new 0 0 400 400;" xml:space="preserve">
<style type="text/css">
	.st0{fill:none;}
	.st1{fill:#FFD886;}
	.st2{fill:#FFFFFF;}
	.st3{fill:#515979;}
	.st4{fill:#2196F3;}
	.st5{fill:#00C853;}
	.st6{fill:#D8EBFB;}
	.st7{fill:#EF7D7D;}
	.st8{fill:#FDE1D9;}
	.st9{fill:#FFEBEB;}
	.st10{fill:#FBB040;}
	.st11{fill:#75A5C3;}
	.st12{fill:#C7BCFF;}
	.st13{fill:#B29D90;}
	.st14{fill:#747A94;}
</style>
<g>
	<g>
		<rect class="st0" width="400" height="400"/>
	</g>
	<g>
		<path class="st1" d="M234.53,95.2c-3.53,0-6.4-2.87-6.4-6.4c0-1.18-0.96-2.13-2.13-2.13c-1.18,0-2.13,0.96-2.13,2.13
			c0,3.53-2.87,6.4-6.4,6.4c-1.18,0-2.13,0.96-2.13,2.13s0.96,2.13,2.13,2.13c3.53,0,6.4,2.87,6.4,6.4c0,1.18,0.96,2.13,2.13,2.13
			c1.18,0,2.13-0.96,2.13-2.13c0-3.53,2.87-6.4,6.4-6.4c1.18,0,2.13-0.96,2.13-2.13S235.71,95.2,234.53,95.2z"/>
	</g>
	<g>
		<path class="st1" d="M384.93,125.6c-3.97,0-7.2-3.23-7.2-7.2c0-1.33-1.07-2.4-2.4-2.4c-1.33,0-2.4,1.07-2.4,2.4
			c0,3.97-3.23,7.2-7.2,7.2c-1.33,0-2.4,1.07-2.4,2.4s1.07,2.4,2.4,2.4c3.97,0,7.2,3.23,7.2,7.2c0,1.33,1.07,2.4,2.4,2.4
			c1.33,0,2.4-1.07,2.4-2.4c0-3.97,3.23-7.2,7.2-7.2c1.33,0,2.4-1.07,2.4-2.4S386.26,125.6,384.93,125.6z"/>
	</g>
	<g>
		<path class="st1" d="M56.93,310.93c-3.97,0-7.2-3.23-7.2-7.2c0-1.33-1.07-2.4-2.4-2.4c-1.33,0-2.4,1.07-2.4,2.4
			c0,3.97-3.23,7.2-7.2,7.2c-1.33,0-2.4,1.07-2.4,2.4c0,1.33,1.07,2.4,2.4,2.4c3.97,0,7.2,3.23,7.2,7.2c0,1.33,1.07,2.4,2.4,2.4
			c1.33,0,2.4-1.07,2.4-2.4c0-3.97,3.23-7.2,7.2-7.2c1.33,0,2.4-1.07,2.4-2.4C59.33,312.01,58.26,310.93,56.93,310.93z"/>
	</g>
	<g>
		<circle class="st1" cx="151.33" cy="346.67" r="4"/>
	</g>
	<g>
		<circle class="st1" cx="365.33" cy="310" r="3.33"/>
	</g>
	<g>
		<circle class="st1" cx="370.67" cy="231.33" r="4.67"/>
	</g>
	<g>
		<circle class="st1" cx="294" cy="124.67" r="4.67"/>
	</g>
	<g>
		<circle class="st1" cx="128" cy="319.33" r="6"/>
	</g>
	<g>
		<circle class="st1" cx="110" cy="66.67" r="5.33"/>
	</g>
	<g>
		<circle class="st1" cx="30.67" cy="66" r="3.33"/>
	</g>
	<path class="st1" d="M326,50.67h-9.33v-9.33c0-2.21-1.79-4-4-4c-2.21,0-4,1.79-4,4v9.33h-9.33c-2.21,0-4,1.79-4,4s1.79,4,4,4h9.33
		V68c0,2.21,1.79,4,4,4c2.21,0,4-1.79,4-4v-9.33H326c2.21,0,4-1.79,4-4S328.21,50.67,326,50.67z"/>
	<g>
		<g>
			<g>
				<path class="st2" d="M30.85,270.6c-4.41,0-8-3.59-8-8v-152c0-4.41,3.59-8,8-8h152c4.41,0,8,3.59,8,8v129.33
					c0,1.06-0.42,2.08-1.17,2.83l-26.67,26.67c-0.75,0.75-1.77,1.17-2.83,1.17H30.85z"/>
			</g>
			<g>
				<path class="st3" d="M182.85,106.6c2.21,0,4,1.79,4,4v129.33l-26.67,26.67H30.85c-2.21,0-4-1.79-4-4v-152c0-2.21,1.79-4,4-4
					H182.85 M182.85,98.6h-152c-6.62,0-12,5.38-12,12v152c0,6.62,5.38,12,12,12h129.33c2.12,0,4.16-0.84,5.66-2.34l26.67-26.67
					c1.5-1.5,2.34-3.54,2.34-5.66V110.6C194.85,103.99,189.46,98.6,182.85,98.6L182.85,98.6z"/>
			</g>
		</g>
		<g>
			<path class="st4" d="M143.01,193.27H49.35c-1.38,0-2.5-1.12-2.5-2.5v-1.67c0-1.38,1.12-2.5,2.5-2.5h93.67
				c1.38,0,2.5,1.12,2.5,2.5v1.67C145.51,192.15,144.39,193.27,143.01,193.27z"/>
		</g>
		<g>
			<path class="st3" d="M123.51,219.94H50.18c-1.84,0-3.33-1.49-3.33-3.33v0c0-1.84,1.49-3.33,3.33-3.33h73.33
				c1.84,0,3.33,1.49,3.33,3.33v0C126.85,218.44,125.35,219.94,123.51,219.94z"/>
		</g>
		<g>
			<path class="st3" d="M136.85,233.27H50.18c-1.84,0-3.33-1.49-3.33-3.33l0,0c0-1.84,1.49-3.33,3.33-3.33h86.67
				c1.84,0,3.33,1.49,3.33,3.33l0,0C140.18,231.78,138.69,233.27,136.85,233.27z"/>
		</g>
		<g>
			<path class="st3" d="M110.18,246.6h-60c-1.84,0-3.33-1.49-3.33-3.33v0c0-1.84,1.49-3.33,3.33-3.33h60c1.84,0,3.33,1.49,3.33,3.33
				v0C113.51,245.11,112.02,246.6,110.18,246.6z"/>
		</g>
		<g>
			<path class="st5" d="M143.01,206.6H49.35c-1.38,0-2.5-1.12-2.5-2.5v-1.67c0-1.38,1.12-2.5,2.5-2.5h93.67c1.38,0,2.5,1.12,2.5,2.5
				v1.67C145.51,205.48,144.39,206.6,143.01,206.6z"/>
		</g>
		<g>
			<g>
				<path class="st6" d="M160.18,270.6c-0.52,0-1.04-0.1-1.53-0.3c-1.49-0.62-2.47-2.08-2.47-3.7v-22.67c0-4.41,3.59-8,8-8h22.67
					c1.62,0,3.08,0.97,3.7,2.47c0.62,1.49,0.28,3.22-0.87,4.36l-26.67,26.67C162.24,270.2,161.22,270.6,160.18,270.6z"/>
			</g>
			<g>
				<g>
					<path class="st3" d="M186.85,239.94l-26.67,26.67v-22.67c0-2.21,1.79-4,4-4H186.85 M186.85,231.94h-22.67
						c-6.62,0-12,5.38-12,12v22.67c0,3.24,1.95,6.15,4.94,7.39c0.99,0.41,2.03,0.61,3.06,0.61c2.08,0,4.13-0.81,5.66-2.34
						l26.67-26.67c2.29-2.29,2.97-5.73,1.73-8.72C193,233.88,190.08,231.94,186.85,231.94L186.85,231.94z M186.85,247.94
						L186.85,247.94L186.85,247.94L186.85,247.94z"/>
				</g>
			</g>
		</g>
		<g>
			<g>
				<g>
					<g>
						<path class="st3" d="M127.55,146.05c-1.47,0-2.67-1.19-2.67-2.67c0-2.21-1.79-4-4-4s-4,1.79-4,4c0,1.47-1.19,2.67-2.67,2.67
							s-2.67-1.19-2.67-2.67c0-5.15,4.19-9.33,9.33-9.33s9.33,4.19,9.33,9.33C130.21,144.86,129.02,146.05,127.55,146.05z"/>
					</g>
				</g>
				<g>
					<path class="st3" d="M117.64,122.13c4.77-2.92,11.99-2.3,15.26,2.53c1.12,1.6-0.42,3.89-2.3,3.51c-2.1-0.36-3.81-0.85-5.86-1.1
						c-1.94-0.29-4.48-0.37-6.38-0.82C116.41,125.9,115.95,123.11,117.64,122.13L117.64,122.13z"/>
				</g>
			</g>
			<g>
				<g>
					<g>
						<path class="st3" d="M99.48,146.05c-1.47,0-2.67-1.19-2.67-2.67c0-2.21-1.79-4-4-4c-2.21,0-4,1.79-4,4
							c0,1.47-1.19,2.67-2.67,2.67s-2.67-1.19-2.67-2.67c0-5.15,4.19-9.33,9.33-9.33s9.33,4.19,9.33,9.33
							C102.15,144.86,100.95,146.05,99.48,146.05z"/>
					</g>
				</g>
				<g>
					<path class="st3" d="M94.77,126.39c-1.67,0.31-4.11,0.45-5.81,0.69c-2.05,0.26-3.76,0.74-5.86,1.1
						c-1.25,0.21-2.43-0.63-2.64-1.88c-0.1-0.59,0.04-1.17,0.34-1.63c2.38-3.68,7.35-4.87,11.42-4.03c1.35,0.28,2.54,0.68,3.83,1.49
						C98.03,123.47,97.06,126.23,94.77,126.39L94.77,126.39z"/>
				</g>
			</g>
			<g>
				<g>
					<g>
						<path class="st3" d="M106.85,174.6c-10.29,0-18.67-8.37-18.67-18.67c0-1.47,1.19-2.67,2.67-2.67h32
							c1.47,0,2.67,1.19,2.67,2.67C125.51,166.23,117.14,174.6,106.85,174.6z"/>
					</g>
					<g>
						<path class="st3" d="M122.85,155.94L122.85,155.94 M122.85,155.94c0,8.84-7.16,16-16,16s-16-7.16-16-16H122.85 M122.85,150.6
							L122.85,150.6H90.85c-2.95,0-5.33,2.39-5.33,5.33c0,11.76,9.57,21.33,21.33,21.33c11.69,0,21.21-9.45,21.33-21.11
							c0-0.07,0-0.15,0-0.22C128.18,152.99,125.8,150.6,122.85,150.6L122.85,150.6z M122.85,161.27L122.85,161.27L122.85,161.27
							L122.85,161.27z"/>
					</g>
				</g>
				<g>
					<g>
						<ellipse class="st7" cx="106.85" cy="166.6" rx="11.9" ry="5.33"/>
					</g>
				</g>
			</g>
		</g>
		<g>
			<g>
				<circle class="st8" cx="141.51" cy="158.6" r="2.67"/>
			</g>
			<g>
				<circle class="st8" cx="152.18" cy="158.6" r="2.67"/>
			</g>
			<g>
				<circle class="st8" cx="146.85" cy="147.94" r="2.67"/>
			</g>
		</g>
		<g>
			<g>
				<circle class="st8" cx="61.51" cy="158.6" r="2.67"/>
			</g>
			<g>
				<circle class="st8" cx="72.18" cy="158.6" r="2.67"/>
			</g>
			<g>
				<circle class="st8" cx="66.85" cy="147.94" r="2.67"/>
			</g>
		</g>
	</g>
	<g>
		<g>
			<g>
				<g>
					<path class="st9" d="M223.93,223.36c-0.79,0-1.56-0.28-2.17-0.8c-0.83-0.72-1.26-1.8-1.14-2.89l2.8-25.6
						c0.15-1.37,1.12-2.5,2.45-2.86c0.29-0.08,0.58-0.11,0.86-0.11c1.05,0,2.05,0.49,2.69,1.36l15.23,20.77
						c0.65,0.89,0.82,2.04,0.46,3.08c-0.36,1.04-1.22,1.83-2.28,2.11l-18.03,4.83C224.51,223.32,224.22,223.36,223.93,223.36z"/>
				</g>
				<g>
					<path class="st3" d="M226.73,194.43l15.23,20.77l-18.03,4.83L226.73,194.43 M226.73,187.76c-0.57,0-1.15,0.07-1.73,0.23
						c-2.66,0.71-4.6,2.98-4.9,5.71l-2.8,25.6c-0.24,2.19,0.62,4.35,2.29,5.79c1.22,1.05,2.77,1.61,4.34,1.61
						c0.58,0,1.16-0.07,1.73-0.23l18.03-4.83c2.13-0.57,3.83-2.15,4.56-4.23c0.73-2.08,0.39-4.38-0.91-6.15l-15.23-20.77
						C230.83,188.75,228.82,187.76,226.73,187.76L226.73,187.76z"/>
				</g>
			</g>
			<g>
				<polygon class="st3" points="226.73,194.43 232.67,201.12 224.94,203.19 				"/>
			</g>
			<g>
				<g>
					<path class="st1" d="M253.26,332.83c-1.47,0-2.82-0.98-3.22-2.47l-29.33-109.47c-0.23-0.85-0.11-1.76,0.33-2.53
						c0.44-0.77,1.17-1.32,2.02-1.55l18.03-4.83c0.29-0.08,0.58-0.11,0.87-0.11c1.47,0,2.82,0.98,3.22,2.47l29.33,109.47
						c0.23,0.85,0.11,1.76-0.33,2.53s-1.17,1.32-2.02,1.55l-18.03,4.83C253.84,332.79,253.55,332.83,253.26,332.83z"/>
				</g>
				<g>
					<path class="st3" d="M241.96,215.19l29.33,109.47l-18.03,4.83l-29.33-109.47L241.96,215.19 M241.96,208.53
						c-0.58,0-1.16,0.08-1.73,0.23l-18.03,4.83c-1.71,0.46-3.16,1.57-4.05,3.11s-1.12,3.35-0.67,5.06l29.33,109.47
						c0.46,1.71,1.58,3.16,3.11,4.05c1.02,0.59,2.17,0.89,3.33,0.89c0.58,0,1.16-0.08,1.73-0.23l18.03-4.83
						c3.56-0.95,5.67-4.61,4.71-8.16L248.4,213.47c-0.46-1.71-1.57-3.16-3.11-4.05C244.27,208.83,243.12,208.53,241.96,208.53
						L241.96,208.53z"/>
				</g>
			</g>
			<g>
				
					<rect x="238.44" y="216.89" transform="matrix(-0.9659 0.2588 -0.2588 -0.9659 548.7224 474.8675)" class="st10" width="9.33" height="113.33"/>
			</g>
			<g>
				<g>
					
						<rect x="252.72" y="330.01" transform="matrix(0.9659 -0.2589 0.2589 0.9659 -78.6213 80.2381)" class="st11" width="25.33" height="17.33"/>
				</g>
				<g>
					<path class="st3" d="M273.02,331.11l2.76,10.3l-18.03,4.83l-2.76-10.3L273.02,331.11 M277.73,322.94l-6.44,1.73l-18.03,4.83
						l-6.44,1.73l1.73,6.44l2.76,10.3l1.73,6.44l6.44-1.73l18.03-4.83l6.44-1.73l-1.73-6.44l-2.76-10.3L277.73,322.94L277.73,322.94
						z"/>
				</g>
			</g>
			<g>
				<g>
					<path class="st7" d="M265.75,367.33c-3.01,0-5.66-2.03-6.44-4.94l-3.11-11.59l23.18-6.21l3.11,11.59
						c0.95,3.55-1.16,7.21-4.71,8.16l-10.3,2.76C266.91,367.25,266.33,367.33,265.75,367.33z"/>
				</g>
				<g>
					<path class="st3" d="M276.56,349.48l2.07,7.73c0.38,1.42-0.46,2.88-1.89,3.27l-10.3,2.76c-0.23,0.06-0.46,0.09-0.69,0.09
						c-1.18,0-2.25-0.79-2.57-1.98l-2.07-7.73L276.56,349.48 M282.22,339.68l-7.73,2.07l-15.45,4.14l-7.73,2.07l2.07,7.73l2.07,7.73
						c1.25,4.66,5.48,7.91,10.3,7.91c0.93,0,1.86-0.12,2.76-0.36l10.3-2.76c2.75-0.74,5.05-2.5,6.48-4.97
						c1.42-2.47,1.8-5.34,1.07-8.09l-2.07-7.73L282.22,339.68L282.22,339.68z"/>
				</g>
			</g>
			<g>
				<path class="st3" d="M262.27,329.75c-1.18,0-2.26-0.79-2.57-1.98L230.37,218.3c-0.38-1.42,0.46-2.88,1.89-3.27
					c1.42-0.39,2.88,0.46,3.27,1.89l29.33,109.47c0.38,1.42-0.46,2.88-1.89,3.27C262.74,329.72,262.5,329.75,262.27,329.75z"/>
			</g>
		</g>
		<g>
			<g>
				<path class="st2" d="M220.12,352.3c-19.85,0-36-16.15-36-36s16.15-36,36-36s36,16.15,36,36S239.97,352.3,220.12,352.3z
					 M220.12,298.96c-9.56,0-17.33,7.78-17.33,17.33s7.78,17.33,17.33,17.33c9.56,0,17.33-7.78,17.33-17.33
					S229.68,298.96,220.12,298.96z"/>
			</g>
			<g>
				<path class="st3" d="M220.12,284.3c17.67,0,32,14.33,32,32c0,17.67-14.33,32-32,32s-32-14.33-32-32
					C188.12,298.62,202.45,284.3,220.12,284.3 M220.12,337.63c11.78,0,21.33-9.55,21.33-21.33c0-11.78-9.55-21.33-21.33-21.33
					s-21.33,9.55-21.33,21.33C198.79,328.08,208.34,337.63,220.12,337.63 M220.12,276.3c-22.06,0-40,17.94-40,40
					c0,22.06,17.94,40,40,40s40-17.94,40-40C260.12,294.24,242.18,276.3,220.12,276.3L220.12,276.3z M220.12,329.63
					c-7.35,0-13.33-5.98-13.33-13.33s5.98-13.33,13.33-13.33s13.33,5.98,13.33,13.33S227.47,329.63,220.12,329.63L220.12,329.63z"/>
			</g>
		</g>
		<g>
			<g>
				<path class="st6" d="M229.45,346.91v-11.45c-2.82,1.38-5.98,2.17-9.33,2.17c-2.33,0-4.57-0.39-6.67-1.08v11.04
					c2.15,0.46,4.38,0.7,6.67,0.7C223.37,348.3,226.5,347.81,229.45,346.91z"/>
			</g>
			<g>
				<path class="st6" d="M220.12,294.96c3.35,0,6.51,0.79,9.33,2.17v-11.45c-2.95-0.9-6.09-1.39-9.33-1.39
					c-2.29,0-4.52,0.24-6.67,0.7v11.04C215.55,295.35,217.79,294.96,220.12,294.96z"/>
			</g>
		</g>
		<g>
			<g>
				<g>
					<path class="st12" d="M302.62,325.36c-0.29,0-0.58-0.04-0.86-0.11l-30.91-8.28c-1.78-0.48-2.83-2.3-2.36-4.08l36.58-136.52
						c0.4-1.49,1.75-2.47,3.22-2.47c0.29,0,0.58,0.04,0.87,0.11l30.91,8.28c0.85,0.23,1.58,0.79,2.02,1.55
						c0.44,0.77,0.56,1.68,0.33,2.53l-36.58,136.52c-0.23,0.85-0.79,1.58-1.55,2.02C303.77,325.21,303.2,325.36,302.62,325.36z"/>
				</g>
				<g>
					<path class="st3" d="M308.29,177.23l30.91,8.28l-36.58,136.52l-30.91-8.28L308.29,177.23 M308.28,170.56
						c-2.94,0-5.64,1.96-6.44,4.94l-36.58,136.52c-0.95,3.56,1.16,7.21,4.71,8.16l30.91,8.28c0.57,0.15,1.15,0.23,1.73,0.23
						c1.16,0,2.31-0.3,3.33-0.89c1.53-0.88,2.65-2.34,3.11-4.05l36.58-136.52c0.46-1.71,0.22-3.53-0.67-5.06
						c-0.88-1.53-2.34-2.65-4.05-3.11l-30.91-8.28C309.44,170.64,308.85,170.56,308.28,170.56L308.28,170.56z"/>
				</g>
			</g>
			<g>
				<circle class="st3" cx="320.64" cy="192.96" r="4"/>
			</g>
			<g>
				<path class="st3" d="M329.95,196.84l5.8,1.55l1.38-5.15l-5.8-1.55c-1.07-0.29-2.16,0.35-2.45,1.41l-0.35,1.29
					C328.25,195.46,328.88,196.55,329.95,196.84z"/>
			</g>
			<g>
				<path class="st3" d="M322.64,208.68l9.66,2.59l1.38-5.15l-9.66-2.59c-1.07-0.29-2.16,0.35-2.45,1.41l-0.35,1.29
					C320.94,207.3,321.57,208.4,322.64,208.68z"/>
			</g>
			<g>
				<path class="st3" d="M323.05,222.6l5.8,1.55l1.38-5.15l-5.8-1.55c-1.07-0.29-2.16,0.35-2.45,1.41l-0.35,1.29
					C321.35,221.21,321.98,222.31,323.05,222.6z"/>
			</g>
			<g>
				<path class="st3" d="M315.73,234.44l9.66,2.59l1.38-5.15l-9.66-2.59c-1.07-0.29-2.16,0.35-2.45,1.41l-0.35,1.29
					C314.03,233.06,314.67,234.15,315.73,234.44z"/>
			</g>
			<g>
				<path class="st3" d="M316.15,248.35l5.8,1.55l1.38-5.15l-5.8-1.55c-1.07-0.29-2.16,0.35-2.45,1.41l-0.35,1.29
					C314.45,246.97,315.08,248.07,316.15,248.35z"/>
			</g>
			<g>
				<path class="st3" d="M308.83,260.2l9.66,2.59l1.38-5.15l-9.66-2.59c-1.07-0.29-2.16,0.35-2.45,1.41l-0.35,1.29
					C307.13,258.82,307.77,259.91,308.83,260.2z"/>
			</g>
			<g>
				<path class="st3" d="M309.25,274.11l5.8,1.55l1.38-5.15l-5.8-1.55c-1.07-0.29-2.16,0.35-2.45,1.41l-0.35,1.29
					C307.55,272.73,308.18,273.83,309.25,274.11z"/>
			</g>
			<g>
				<path class="st3" d="M301.93,285.96l9.66,2.59l1.38-5.15l-9.66-2.59c-1.07-0.29-2.16,0.35-2.45,1.41l-0.35,1.29
					C300.23,284.57,300.86,285.67,301.93,285.96z"/>
			</g>
			<g>
				<path class="st3" d="M302.34,299.87l5.8,1.55l1.38-5.15l-5.8-1.55c-1.07-0.29-2.16,0.35-2.45,1.41l-0.35,1.29
					C300.64,298.49,301.28,299.58,302.34,299.87z"/>
			</g>
			<g>
				<path class="st3" d="M295.03,311.71l9.66,2.59l1.38-5.15l-9.66-2.59c-1.07-0.29-2.16,0.35-2.45,1.41l-0.35,1.29
					C293.33,310.33,293.96,311.43,295.03,311.71z"/>
			</g>
		</g>
		<g>
			<g>
				<g>
					<rect x="263.45" y="228.96" class="st6" width="17.33" height="14.67"/>
				</g>
				<g>
					<g>
						<path class="st3" d="M277.45,232.3v8h-10.67v-8H277.45 M284.12,225.63h-6.67h-10.67h-6.67v6.67v8v6.67h6.67h10.67h6.67v-6.67
							v-8V225.63L284.12,225.63z"/>
					</g>
				</g>
			</g>
			<g>
				<g>
					<path class="st13" d="M272.12,331.63c-1.55,0-2.89-1.07-3.25-2.58c-0.51-2.18-12.37-53.66-6.69-81.43
						c0.32-1.55,1.68-2.66,3.27-2.66h13.33c1.58,0,2.95,1.11,3.27,2.67c5.68,27.77-6.18,79.25-6.69,81.42
						C275.01,330.56,273.67,331.63,272.12,331.63z"/>
				</g>
				<g>
					<path class="st3" d="M278.79,248.3c5.6,27.37-6.67,80-6.67,80s-12.27-52.63-6.67-80H278.79 M278.79,241.63h-13.33
						c-3.17,0-5.9,2.23-6.53,5.33c-5.83,28.47,6.19,80.64,6.71,82.85c0.7,3.02,3.39,5.15,6.49,5.15s5.79-2.14,6.49-5.15
						c0.51-2.21,12.54-54.38,6.71-82.85C284.68,243.86,281.95,241.63,278.79,241.63L278.79,241.63z"/>
				</g>
			</g>
			<g>
				<g>
					<path class="st14" d="M272.12,228.96c-7.72,0-14-6.28-14-14c0-6.47,2.6-10.2,4.89-13.5c1.93-2.78,3.76-5.4,4.49-9.98
						c0.18-1.13,0.93-2.09,1.99-2.54c0.42-0.18,0.86-0.27,1.31-0.27c0.67,0,1.33,0.2,1.9,0.6c13.82,9.59,13.51,24.15,13.43,25.79
						C286.07,222.74,279.81,228.96,272.12,228.96z"/>
				</g>
				<g>
					<g>
						<path class="st3" d="M270.79,192.01c12.95,8.99,12,22.95,12,22.95c0,5.89-4.78,10.67-10.67,10.67s-10.67-4.78-10.67-10.67
							C261.45,204.59,269,203.2,270.79,192.01 M270.79,185.34c-0.88,0-1.77,0.18-2.61,0.53c-2.11,0.9-3.61,2.82-3.97,5.08
							c-0.61,3.83-2.08,5.94-3.93,8.6c-2.44,3.51-5.48,7.88-5.48,15.4c0,9.56,7.78,17.33,17.33,17.33c9.5,0,17.25-7.69,17.33-17.17
							c0.09-2.43,0.08-18.21-14.86-28.59C273.45,185.75,272.12,185.34,270.79,185.34L270.79,185.34z"/>
					</g>
				</g>
			</g>
			<g>
				<g>
					<path class="st7" d="M270.79,192.01c-1.77,11.06-9.15,12.56-9.32,22.61c5.32,1.01,15.98,0.25,20.03-8.21
						C280.06,201.87,277.05,196.36,270.79,192.01z"/>
				</g>
			</g>
		</g>
		<g>
			<g>
				<g>
					<path class="st2" d="M242.79,369.63c-9.56,0-17.33-7.78-17.33-17.33v-80c0-2.21,1.79-4,4-4h96c2.21,0,4,1.79,4,4v80
						c0,9.56-7.78,17.33-17.33,17.33H242.79z"/>
				</g>
				<g>
					<path class="st3" d="M325.45,272.3v80c0,7.36-5.97,13.33-13.33,13.33h-69.33c-7.36,0-13.33-5.97-13.33-13.33v-80H325.45
						 M325.45,264.3h-96c-4.42,0-8,3.58-8,8v80c0,11.76,9.57,21.33,21.33,21.33h69.33c11.76,0,21.33-9.57,21.33-21.33v-80
						C333.45,267.88,329.87,264.3,325.45,264.3L325.45,264.3z"/>
				</g>
			</g>
			<g>
				<path class="st6" d="M245.45,352.3v-80h-16v80c0,7.36,5.97,13.33,13.33,13.33h16C251.42,365.63,245.45,359.66,245.45,352.3z"/>
			</g>
		</g>
		<g>
			<g>
				<path class="st3" d="M282.95,298.31c3.7-3.45,9.29-4.35,13.86-2.13c2.55,1.15,6.13,4.9,2.9,7.19c-0.78,0.53-1.71,0.43-2.57,0.29
					c-2.12-0.34-3.5-0.63-5.53-0.69c-2.23-0.13-4.78,0.25-7.06-0.03C282.3,302.81,281.29,299.79,282.95,298.31L282.95,298.31z"/>
			</g>
			<g>
				<path class="st3" d="M269.46,303.03c-4.05-0.04-7.69-0.25-11.69,0.64c0,0-0.79,0.1-0.79,0.1c-2.22,0.35-3.89-2.32-2.66-4.16
					c2.67-4.48,8.97-5.58,13.56-3.81c2.34,0.83,6.69,3.41,4.17,6.33C271.38,302.88,270.37,302.97,269.46,303.03L269.46,303.03z"/>
			</g>
			<g>
				<path class="st3" d="M269.45,316.96c-1.84,0-3.33-1.49-3.33-3.33c0-1.1-0.9-2-2-2c-1.1,0-2,0.9-2,2c0,1.84-1.49,3.33-3.33,3.33
					c-1.84,0-3.33-1.49-3.33-3.33c0-4.78,3.89-8.67,8.67-8.67c4.78,0,8.67,3.89,8.67,8.67
					C272.79,315.47,271.29,316.96,269.45,316.96z"/>
			</g>
			<g>
				<path class="st3" d="M296.12,316.96c-1.84,0-3.33-1.49-3.33-3.33c0-1.1-0.9-2-2-2c-1.1,0-2,0.9-2,2c0,1.84-1.49,3.33-3.33,3.33
					s-3.33-1.49-3.33-3.33c0-4.78,3.89-8.67,8.67-8.67c4.78,0,8.67,3.89,8.67,8.67C299.45,315.47,297.96,316.96,296.12,316.96z"/>
			</g>
			<g>
				<g>
					<g>
						<g>
							<path class="st3" d="M277.45,342.3c-8.45,0-15.33-6.88-15.33-15.33c0-1.84,1.49-3.33,3.33-3.33h24
								c1.84,0,3.33,1.49,3.33,3.33C292.79,335.42,285.91,342.3,277.45,342.3z"/>
						</g>
						<g>
							<path class="st3" d="M289.45,326.96L289.45,326.96 M289.45,326.96c0,6.63-5.37,12-12,12s-12-5.37-12-12H289.45 M289.46,320.3
								L289.46,320.3h-24.01c-3.68,0-6.67,2.98-6.67,6.67c0,10.29,8.37,18.67,18.67,18.67c10.2,0,18.52-8.23,18.66-18.4
								c0-0.09,0.01-0.18,0.01-0.27C296.12,323.28,293.14,320.3,289.46,320.3L289.46,320.3z M289.45,333.63L289.45,333.63
								L289.45,333.63L289.45,333.63z"/>
						</g>
					</g>
					<g>
						<g>
							<ellipse class="st7" cx="277.45" cy="334.96" rx="8.93" ry="4"/>
						</g>
					</g>
				</g>
			</g>
		</g>
	</g>
</g>
</svg>
