<?xml version="1.0" encoding="utf-8"?>
<!-- Generator: Adobe Illustrator 25.0.0, SVG Export Plug-In . SVG Version: 6.00 Build 0)  -->
<svg version="1.1" id="Layer_1" xmlns="http://www.w3.org/2000/svg" xmlns:xlink="http://www.w3.org/1999/xlink" x="0px" y="0px"
	 viewBox="0 0 458 430" style="enable-background:new 0 0 458 430;" xml:space="preserve">
<style type="text/css">
	.st0{fill:#CCE7F0;}
	.st1{fill:#FFB700;}
	.st2{fill:#F5B000;}
	.st3{fill:#FFE563;}
	.st4{fill:#35414D;}
	.st5{fill:#5EB4E7;}
	.st6{fill:#F8C44F;}
</style>
<g>
	<g>
		<g>
			<g>
				<g>
					<path class="st0" d="M285,60.8c0,0-25.9-27.9-48.1-22.4s-32,43.2-20.7,51.9c9.7,7.4,24-24.2,24-24.2s-1.2,18.5,8.6,19.3
						c9.3,0.8,16-20.4,16-20.4L285,60.8z"/>
					<path class="st0" d="M353.2,48.5c0,0,14.5-35.2,37.1-37.8s45.2,29.2,37.6,41.3C421.5,62.3,397,37.7,397,37.7s7.6,16.9-1.3,21.1
						c-8.4,4-22.1-13.5-22.1-13.5L353.2,48.5z"/>
				</g>
				<g>
					<path class="st1" d="M346.4,113.5c-4.8,2.4-9.9,4.1-15.3,5.2c-31.4,6-61.9-14.8-67.8-46.2c-5.9-31,15.2-62,46.2-67.8
						c31.1-5.9,61.9,15.2,67.8,46.2C382.2,76.2,369.4,102,346.4,113.5L346.4,113.5z"/>
					<path class="st2" d="M377.3,50.9c-2.9-15.2-11.5-28.4-24.3-37.1c-12.5-8.5-27.5-11.8-42.4-9.3c8.1,1.4,15.8,4.5,22.8,9.3
						c12.8,8.7,21.4,21.9,24.3,37.1c4.8,25.3-7.9,51.1-30.9,62.7c-4.8,2.4-9.9,4.1-15.3,5.2c-0.3,0.1-0.7,0.1-1,0.2
						c6.6,1.1,13.6,1.1,20.6-0.2c5.3-1,10.5-2.7,15.3-5.2C369.4,102,382.2,76.2,377.3,50.9L377.3,50.9z"/>
					
						<ellipse transform="matrix(0.9318 -0.3629 0.3629 0.9318 -0.5579 120.4777)" class="st3" cx="320.4" cy="61.7" rx="42.3" ry="42.4"/>
				</g>
			</g>
			<g>
				<g>
					<path class="st0" d="M317.9,170.8c0,0-9.3-36.9-31.3-42.8c-22.1-5.8-48.9,22.5-43.1,35.5c4.9,11.1,32.7-9.7,32.7-9.7
						s-9.9,15.6-1.7,21.1c7.7,5.2,23.8-10.2,23.8-10.2L317.9,170.8z"/>
					<path class="st0" d="M383.6,192.7c0,0,29.6-23.9,50.8-15.3c21.1,8.6,25.5,47.4,13.1,54.3c-10.6,5.9-20.3-27.4-20.3-27.4
						s-1.5,18.5-11.3,17.9c-9.3-0.5-12.9-22.4-12.9-22.4L383.6,192.7z"/>
				</g>
				<g>
					<path class="st1" d="M346.4,246.5c-5.4-0.2-10.7-1.1-15.9-2.8c-30.4-9.9-47.1-42.7-37.2-73.1c8-24.5,31.5-41,57.2-40.1
						c5.4,0.2,10.7,1.1,15.9,2.8c14.7,4.8,26.7,15,33.8,28.9c7,13.8,8.3,29.5,3.5,44.3C395.7,231,372.2,247.5,346.4,246.5
						L346.4,246.5z"/>
					<path class="st2" d="M400.2,162.2c-7-13.8-19-24.1-33.8-28.9c-5.2-1.7-10.5-2.6-15.9-2.8c-4-0.1-8,0.1-11.8,0.8
						c2.8,0.5,5.5,1.1,8.2,2c14.7,4.8,26.7,15,33.8,28.9c7,13.8,8.3,29.5,3.5,44.3c-6.7,20.7-24.5,35.7-45.4,39.3
						c2.5,0.4,5.1,0.7,7.7,0.8c25.7,0.9,49.3-15.6,57.2-40.1C408.5,191.7,407.2,176,400.2,162.2L400.2,162.2z"/>
					
						<ellipse transform="matrix(0.1299 -0.9915 0.9915 0.1299 116.4177 509.7555)" class="st3" cx="348.7" cy="188.5" rx="42.4" ry="42.3"/>
				</g>
			</g>
		</g>
		<g>
			<path class="st4" d="M214,93.2c9.7,7.4,19.7-7.9,23.8-14.7c1.6,5.4,4.8,10.1,10.7,10.6c4.7,0.4,9.1-2.5,13.1-8.6
				c8.2,25.6,32.2,42.9,58.7,42.9c34.8,0,63.3-30,61.6-64.7c4.2,3.1,10.1,6,15.3,3.5c5.2-2.5,6.7-8.3,6.3-13.7
				c6.2,4.9,21,15.7,27.4,5.4c3.7-6,2.3-15.3-3.9-25.1C419.5,16.7,405,5.2,389.9,7c-8.1,0.9-16,5.5-23.4,13.7
				C352.1,4.6,330-2.9,308.8,1.1c-20.8,3.9-38.4,18.7-46,38.4c-9.8-5-18.8-6.6-26.8-4.6c-14.8,3.7-24.3,19.5-27.3,33.5
				C206.4,79.6,208.4,88.9,214,93.2L214,93.2z M390.7,14.3c11.9-1.4,24,8.6,30.2,18.5c4.4,7,5.9,13.9,3.8,17.2
				c-3.6,5.7-23-12.7-25.2-14.9c-2.8-2.8-7.6,0.5-5.9,4.1c1.3,2.9,5.1,14.1,0.5,16.3c-1.9,0.9-6.6-0.7-13.7-8
				c-1.8-7.6-5-14.7-9.3-21C377.5,19.2,384.1,15,390.7,14.3L390.7,14.3z M295.9,13.1c17.4-8.8,38.9-7.5,55,3.7
				c44,29.9,22.2,98.8-30.6,99.3c-25.6,0-48.5-18.2-53.4-44.3C262.4,48.1,274.3,23.9,295.9,13.1L295.9,13.1z M216,69.9
				c2.4-11.4,10.2-25,21.8-27.9c6.5-1.6,14.1,0,22.8,4.6c-1.9,7.4-2.4,15.1-1.4,22.9c-4.1,9.4-8,12.5-10,12.4
				c-5.2-0.5-5.5-12.3-5.3-15.5c0.3-4-5.4-5.4-7-1.7c-1.3,3-13.1,26.9-18.4,22.8C215.3,85,214.3,77.9,216,69.9z"/>
			<path class="st4" d="M320.4,107.7c2.8,0,5.7-0.3,8.6-0.8c24.4-4.1,41.7-29.6,36.6-53.8c-4.7-24.9-28.8-41.4-53.8-36.6
				c-5.7,1.1-11.1,3.2-16,6.3c-4,2.5-0.1,8.7,3.9,6.2c4.1-2.6,8.6-4.4,13.4-5.3c33.6-6.4,58.5,31.6,39.2,59.8
				c-5.8,8.5-14.6,14.3-24.7,16.2c-32.6,6.3-57.6-29.8-40.2-58.1c2.5-4.1-3.8-7.9-6.3-3.8c-5.9,9.7-8,21.3-5.9,32.5
				C279.4,92.3,298.7,107.7,320.4,107.7z"/>
			<path class="st4" d="M305.5,51.3c0,4.2,2.1,7.9,5.4,9.7c2.8,1.4,6.5,2.4,12.7,3.4c4.4,0.7,4.9,4,4.9,5.4c0.1,2.8-1.7,6.2-5.6,7
				c-3.8,0.7-5,0.8-8.3-0.6c-1.9-0.8-4,0.1-4.8,2c-0.8,1.9,0.1,4,2,4.8c2.8,1.2,5.8,1.8,8.9,1.6c0.1,2.4,1.9,5.5,4.7,4.9
				c3.2-0.6,3.4-4.2,2.5-6.6c11.9-5.9,10.2-23.8-3.1-25.7c-3.5-0.5-11.9-0.7-11.9-5.8c0-4.9,6.3-6.2,9.9-4.5c0,0,3.1,2.3,5.3-0.9
				c2.4-3.4-1.5-5.3-1.5-5.3c-1.4-0.9-4-1.9-7.1-1.9c-0.1-2.4-1.7-5.3-4.6-4.7c-3.1,0.6-3.4,4-2.5,6.3
				C308.2,42.3,305.5,46.7,305.5,51.3z"/>
			<path class="st4" d="M435.8,174c-7.6-3.1-16.7-2.8-27.1,0.7c-1.1-4.9-2.9-9.7-5.2-14.2c-7.5-14.7-20.2-25.6-35.9-30.7
				c-5.5-1.8-11.1-2.8-16.9-3c-15.6-0.6-30.5,4.9-41.9,14.6c-6.2-9.2-13.3-14.8-21.3-16.9c-14.7-3.9-30.7,5.4-40,16.3
				c-5.4,6.3-15.5,25.7-1.4,29.3c6,1.6,14.9-2.4,21.9-6.5c-1.2,5.5-0.6,11.1,4.3,14.4c4.8,3.2,11.1,1.1,15.7-1.3
				c-5.9,30.2,11.6,60.8,41.5,70.5c11.9,3.9,25,4,36.9,0.4c1.9-0.6,3-2.6,2.4-4.6c-0.6-1.9-2.6-3-4.6-2.4c-10.6,3.2-22,3.1-32.5-0.3
				c-28.5-9.3-44.2-40-34.9-68.5c7.5-23,29.5-38.4,53.6-37.5c5,0.2,10,1.1,14.9,2.6c13.8,4.5,25,14.1,31.6,27
				c6.6,12.9,7.7,27.7,3.3,41.5c-3.6,11-10.4,20.4-19.9,27.2c-1.6,1.2-2,3.5-0.8,5.1c1.2,1.6,3.5,2,5.1,0.8
				c8.4-6,14.9-13.9,19.3-22.9c3.1,6.7,7,10.1,11.8,10.4c5.9,0.3,9.8-3.8,12.1-8.9c2.9,6.8,8.1,19.1,17.1,19.1
				c11.5,0,13.5-16.8,13-25C457.1,196.8,449.9,179.7,435.8,174L435.8,174z M276.4,171.9c-4.3-2.9,1.1-13.4,2.8-16.1
				c2.1-3.4-2.1-7.3-5.3-4.9c-7.8,5.8-20.9,13.4-26,12.1c-6.3-1.6,4-16.1,5.1-17.5c7.6-8.9,21-17,32.6-14c6.4,1.7,12.4,6.8,17.8,15
				c-5.2,5.5-9.4,12.1-12.2,19.4C283,172.2,278.1,173.1,276.4,171.9L276.4,171.9z M445.7,228.5c-5.9,3.3-14.1-22.2-15-25.2
				c-1.1-3.8-6.9-3.2-7.2,0.7c-0.2,2.9-2.2,14.5-7.3,14.5c-5.1,0-7-10.3-8.4-13.6c2.1-7.6,2.7-15.3,1.9-22.9
				c9.2-3.3,17-3.8,23.1-1.3c11.1,4.5,16.9,19.1,17.6,30.7C451.2,219.8,449.2,226.6,445.7,228.5L445.7,228.5z"/>
			<path class="st4" d="M392.2,202.7c7.8-24.1-5.4-50.1-29.5-58c-23.4-8.1-50.8,5.9-57.9,29.5c-7.8,24.1,5.4,50.1,29.5,58
				C357.9,240.3,384.9,226.6,392.2,202.7z M366.1,223c-9.2,4.7-19.7,5.5-29.5,2.3c-32.5-10.5-36.1-55.9-5.6-71.3
				c9.2-4.7,19.7-5.5,29.5-2.3C393,162.2,396.6,207.6,366.1,223z"/>
			<path class="st4" d="M358.8,168l0.6-1.7c0.6-1.9-0.4-4-2.4-4.6c-1.9-0.6-4,0.4-4.6,2.4l-0.6,2c-8.9-0.7-16.1,9.9-11.1,17.4
				c1.8,2.6,4.5,5.2,9.5,9.1c6.2,4.8-0.6,12.7-6.6,10.5c-3.7-1.2-4.8-1.7-7-4.5c-1.3-1.6-3.6-1.8-5.2-0.6c-1.6,1.3-1.8,3.6-0.6,5.2
				c2.4,3,4.3,4.5,7,5.6l-0.6,1.9c-0.6,1.9,0.4,4,2.4,4.6c1.8,0.6,4-0.6,4.6-2.4l0.7-2.3c5.4,0.3,10.9-2.9,13.4-7.7
				c3-5.7,1.5-12.3-3.8-16.3c-3-2.3-6.3-5-7.9-7.3c-1.7-2.6,1.8-6,4.3-6c2.6,0,5.4,1.4,6.8,3.4c0,0,1.7,3.7,5.1,2.1
				c3.5-1.6,1.3-5.7,1.3-5.7C363.3,171.6,361.5,169.5,358.8,168L358.8,168z"/>
		</g>
	</g>
	<g id="Layer_4_1_">
		<g>
			<path class="st5" d="M42,309.9c7.2,44.3,45.4,78.4,91.7,78.4s84.8-34.1,91.7-78.4L42,309.9z"/>
			<g>
				<g>
					<path class="st4" d="M134.5,429.6C60.2,429.6,0,369.4,0,295.2c0-61,40.1-113.2,98.5-129.5v-51.1h-8.3V54.7h88.2v59.8h-8.3V166
						c34.1,9.5,63.2,31.8,80.7,62.9c2.7,4.9,5.3,10.2,7.6,15.1l-14,5.7c-1.9-4.5-4.2-9.1-6.8-13.6c-16.3-28.8-44.3-49.6-76.5-56.8
						l-6.1-1.5V99.4h8.3V69.8h-57.9v29.5h8.3v78.4l-6.1,1.5C53,191.4,15.1,239.1,15.1,295.2c0,65.9,53.4,119.3,119.3,119.3
						c10.6,0,21.2-1.5,31.4-4.2l4.2,14.8C158.3,427.7,146.2,429.6,134.5,429.6z"/>
				</g>
			</g>
			<g>
				<path class="st4" d="M104.5,97.5h36.7v15.1h-36.7L104.5,97.5z"/>
			</g>
			<g>
				<g>
					<g>
						<path class="st4" d="M129.9,198.2h15.1v14.4h-15.1V198.2z"/>
					</g>
				</g>
				<g>
					<g>
						<path class="st4" d="M98.3,224.3l7.6-13.1l12.5,7.2l-7.6,13.1L98.3,224.3z"/>
					</g>
				</g>
				<g>
					<g>
						<path class="st4" d="M98,251.5l12.5-7.2l7.6,13.1l-12.5,7.2L98,251.5z"/>
					</g>
				</g>
				<g>
					<g>
						<path class="st4" d="M128.4,264.5h15.1v14.4h-15.1V264.5z"/>
					</g>
				</g>
				<g>
					<g>
						<path class="st4" d="M154.9,258.4l7.6-13.1l12.5,7.2l-7.6,13.1L154.9,258.4z"/>
					</g>
				</g>
				<g>
					<g>
						<path class="st4" d="M155.8,219.3l12.5-7.2l7.6,13.1l-12.5,7.2L155.8,219.3z"/>
					</g>
				</g>
			</g>
			<g>
				<path class="st6" d="M321.5,344.4c0,42.8-34.8,78-78,78s-78-34.8-78-78c0.4-42.8,35.2-77.6,78.4-77.6
					C286.7,266.8,321.5,301.6,321.5,344.4L321.5,344.4z"/>
				<path class="st4" d="M243.9,430c-47,0-85.6-38.3-85.6-85.6c0-47,38.6-85.2,85.6-85.2s85.6,38.3,85.6,85.6
					C329.1,391.4,290.9,430,243.9,430z M243.9,274.3c-38.6,0-70.4,31.4-70.4,70.4c0,38.6,31.4,70.4,70.4,70.4
					c38.6,0,70.4-31.4,70.4-70.4C314,305.8,282.5,274.3,243.9,274.3z"/>
			</g>
			<g>
				<g>
					<path class="st4" d="M248.8,352.4l-19.3-7.6c-8.3-5.3-10.2-11.4-10.2-15.5v-8c0-10.6,8.7-19.3,19.3-19.3h9.5
						c10.6,0,19.3,8.7,19.3,19.3v3.8h-15.1v-3.8c0-2.3-1.9-4.2-4.2-4.2h-9.5c-2.3,0-4.2,1.9-4.2,4.2v8c0,0,0.4,0.8,2.7,2.3l17,6.4
						L248.8,352.4z"/>
				</g>
				<g>
					<path class="st4" d="M248.1,382.3h-9.5c-10.6,0-19.3-8.7-19.3-19.3v-3.8h15.1v3.8c0,2.3,1.9,4.2,4.2,4.2h9.5
						c2.3,0,4.2-1.9,4.2-4.2v-8c0,0-0.8-1.1-2.7-2.7l-16.3-6.1l5.3-14l18.2,7.2c8.7,5.3,10.2,11.4,10.2,15.9v8
						C267.4,373.6,259.1,382.3,248.1,382.3L248.1,382.3z"/>
				</g>
				<g>
					<path class="st4" d="M236.7,293.7h15.1v17.4h-15.1V293.7z"/>
				</g>
				<g>
					<path class="st4" d="M236.7,372.1h15.1v17.4h-15.1V372.1z"/>
				</g>
			</g>
		</g>
	</g>
</g>
</svg>
