<?xml version="1.0" encoding="utf-8"?>
<!-- Generator: Adobe Illustrator 25.0.0, SVG Export Plug-In . SVG Version: 6.00 Build 0)  -->
<svg version="1.1" id="Layer_1" xmlns="http://www.w3.org/2000/svg" xmlns:xlink="http://www.w3.org/1999/xlink" x="0px" y="0px"
	 viewBox="0 0 478.4 430" style="enable-background:new 0 0 478.4 430;" xml:space="preserve">
<style type="text/css">
	.st0{fill:#F7F3F1;}
	.st1{fill:#EBE1DC;}
	.st2{fill:#FFD36C;}
	.st3{fill:#8EE6F3;}
	.st4{fill:#4ED5EA;}
	.st5{fill:#62A6FD;}
	.st6{fill:#FA9084;}
	.st7{fill:#FF6CB5;}
	.st8{fill:#35414D;}
	.st9{fill:#FCDD86;}
	.st10{fill:#F5C84C;}
	.st11{fill:#FC657E;}
	.st12{fill:#70D6F9;}
	.st13{fill:#87D147;}
	.st14{fill:#EDF4FC;}
	.st15{fill:#F9D0B4;}
	.st16{fill:#3A70BF;}
</style>
<g>
	<g>
		<path class="st0" d="M93.1,155c3.4,2.4,7.5,3.9,12,3.9h38.3v18.6l24.3-18.6h10.5c11.3,0,20.5-9.1,20.5-20.4V65.5
			c0-11.3-9.2-20.4-20.5-20.4h-73.1c-11.3,0-20.5,9.1-20.5,20.4V155H93.1z"/>
		<path class="st1" d="M178.2,45.1h-17.5c11.3,0,20.5,9.1,20.5,20.4v72.9c0,11.3-9.2,20.4-20.5,20.4h-10.5l-6.8,5.2v13.4l24.3-18.6
			h10.5c11.3,0,20.5-9.1,20.5-20.4V65.5C198.6,54.3,189.5,45.1,178.2,45.1z"/>
		<path class="st2" d="M125.8,128.9l2.1,1.7c3.3,2.7,7.5,4.2,11.8,4.2h29.9c2.8,0,5.1-2.4,5-5.2c-0.1-2.7,0-27.1,0-29.9
			c0-2.8-2.2-5-5-5l-20.3-0.1l2.5-5.9c2.6-6.1,2.2-13.1-1.1-18.9c-0.9-1.6-3-2.2-4.6-1.2c-1,0.6-1.6,1.7-1.6,2.8
			c0,5.3-1.9,10.4-5.4,14.3l-12.9,14.6h-4.7v28.4L125.8,128.9L125.8,128.9z"/>
		<path class="st3" d="M123.8,133.4h-13.7c-0.9,0-1.6-0.7-1.6-1.6V96.9c0-0.9,0.7-1.6,1.6-1.6h13.7c0.9,0,1.6,0.7,1.6,1.6v34.8
			C125.5,132.7,124.7,133.4,123.8,133.4z"/>
		<path class="st4" d="M93.1,191.5v-73.6c0-8.9-7.2-16.1-16.1-16.1H19.3c-8.9,0-16.1,7.2-16.1,16.1v57.5c0,8.9,7.2,16.1,16.1,16.1
			H51v14.8l19.2-14.8H93.1z"/>
		<path class="st5" d="M76.9,101.8H54.1c8.9,0,16.1,7.2,16.1,16.1v73.6h22.9v-73.6C93.1,109,85.9,101.8,76.9,101.8z"/>
		<path class="st6" d="M124.3,179.7H83.4c-6.3,0-11.5,5.1-11.5,11.4v40.8c0,6.3,5.1,11.4,11.5,11.4h22.5v10.5l13.6-10.5h4.8
			c6.3,0,11.5-5.1,11.5-11.4v-40.8C135.8,184.8,130.6,179.7,124.3,179.7L124.3,179.7z"/>
		<path class="st7" d="M124.3,179.7h-17.6c6.3,0,11.5,5.1,11.5,11.4v40.8c0,6.3-5.1,11.4-11.5,11.4h-0.8v10.5l13.6-10.5h4.8
			c6.3,0,11.5-5.1,11.5-11.4v-40.8C135.8,184.8,130.6,179.7,124.3,179.7z"/>
		<path class="st0" d="M103.8,225.4c9.8-5.2,14.9-9.7,14.9-16.5c0-9.5-11.6-11.9-14.9-4.7c-3.8-7.4-14.9-4.7-14.9,4.7
			C88.9,215.7,94,220.2,103.8,225.4z"/>
		<path class="st8" d="M178.2,42h-9.2c-4.1,0-4.1,6.3,0,6.3h9.2c9.5,0,17.3,7.7,17.3,17.3v72.9c0,9.5-7.8,17.3-17.3,17.3h-10.5
			c-0.7,0-1.4,0.2-1.9,0.6L146.5,171v-12.2c0-1.7-1.4-3.1-3.1-3.1h-38.3c-3.1,0-6.2-0.8-8.8-2.4v-35.4c0-6.6-3.4-12.5-8.5-15.9V65.5
			c0-9.5,7.8-17.3,17.3-17.3h44.1c4.1,0,4.1-6.3,0-6.3h-44.1c-13,0-23.6,10.6-23.6,23.6v33.7c-1.4-0.3-2.9-0.5-4.5-0.5H19.3
			C8.7,98.7,0,107.3,0,117.9v6.8c0,4.1,6.3,4.1,6.3,0v-6.8c0-7.1,5.8-12.9,13-12.9h57.7c7.2,0,13,5.8,13,12.9v36.6
			c0,0.3,0,0.6,0,0.8v20c0,0.4,0,0.8-0.1,1.2h-6.5c-7.2,0-13.1,5.2-14.4,12c-0.3,0.1-0.6,0.3-0.8,0.5l-14.1,10.9v-8.4
			c0-1.7-1.4-3.1-3.1-3.1H19.3c-7.2,0-13-5.8-13-12.9v-31.8c0-4.1-6.3-4.1-6.3,0v31.8c0,10.6,8.7,19.2,19.3,19.2h28.5v11.6
			c0,2.5,3.1,4,5.1,2.5l15.9-12.3v35.4c0,8,6.6,14.6,14.6,14.6h19.3v7.4c0,2.5,3.1,4,5.1,2.5l12.7-9.8h3.8c8.1,0,14.6-6.5,14.6-14.6
			v-5.6c0-4.1-6.3-4.1-6.3,0v5.6c0,4.6-3.7,8.3-8.3,8.3h-4.8c-0.7,0-1.4,0.2-1.9,0.7l-8.5,6.6v-4.1c0-1.7-1.4-3.1-3.1-3.1H83.4
			c-4.6,0-8.3-3.7-8.3-8.3v-40.8c0-4.6,3.7-8.3,8.3-8.3h40.9c4.6,0,8.3,3.7,8.3,8.3v15.5c0,4.1,6.3,4.1,6.3,0v-15.5
			c0-8-6.6-14.6-14.6-14.6H96.2c0-0.4,0-16.3,0-16.3c2.8,1.1,5.8,1.7,8.8,1.7h35.2v15.4c0,2.5,3.1,4,5.1,2.5l23.5-17.9h9.4
			c13,0,23.6-10.6,23.6-23.6V65.5C201.8,52.5,191.2,42,178.2,42L178.2,42z"/>
		<path class="st8" d="M149.5,65.3c-4-1-8.1,2.1-8.1,6.3c0,4.5-1.6,8.9-4.6,12.3l-8.7,9.8c-0.6-0.9-1.5-1.4-2.6-1.4h-16.9
			c-1.7,0-3.1,1.4-3.1,3.1v38.1c0,1.7,1.4,3.1,3.1,3.1h16.9c1.3,0,2.4-0.8,2.9-1.8c3.4,2.1,7.4,3.2,11.4,3.2h29.9
			c4.6,0,8.3-4,8.1-8.5c-0.1-2,0-29.2,0-29.8c0-4.5-3.7-8.1-8.1-8.1l-15.6,0l0.6-1.5c2.9-7,2.5-15.1-1.3-21.6
			C152.6,66.8,151.2,65.7,149.5,65.3C147.8,64.8,151.2,65.7,149.5,65.3C145.5,64.2,151.2,65.7,149.5,65.3L149.5,65.3z M122.3,130.3
			h-10.6V98.5h10.6V130.3z M169.7,97.8c1,0,1.8,0.8,1.8,1.8c0,0.6,0,2.2,0,4.4c0,12.2-0.1,23.7,0,25.6c0,0.7-0.3,1.2-0.5,1.4
			c-0.4,0.4-0.8,0.6-1.3,0.6h-29.9c-3.6,0-7.1-1.2-9.8-3.5l-1.3-1.1v-24.6l12.9-14.6c4-4.5,6.2-10.4,6.2-16.4c0-0.2,0.2-0.2,0.3-0.1
			c2.8,4.9,3.1,10.9,1,16.1l-2.5,5.9c-0.4,1-0.3,2.1,0.3,3c0.6,0.9,1.6,1.4,2.6,1.4L169.7,97.8z"/>
		<path class="st8" d="M27,151.4c-1.7,0-3.1,1.4-3.1,3.1s1.4,3.1,3.1,3.1h9.3l-1.7,10.5c-0.3,1.7,0.9,3.3,2.6,3.6c0.2,0,0.3,0,0.5,0
			c1.5,0,2.8-1.1,3.1-2.6l1.9-11.5h7.6l-1.7,10.5c-0.3,1.7,0.9,3.3,2.6,3.6c0.2,0,0.3,0,0.5,0c1.5,0,2.8-1.1,3.1-2.6l1.9-11.5h12.6
			c1.7,0,3.1-1.4,3.1-3.1s-1.4-3.1-3.1-3.1H57.7l1.3-7.7h10.3c1.7,0,3.1-1.4,3.1-3.1c0-1.7-1.4-3.1-3.1-3.1H60l1.7-10.5
			c0.3-1.7-0.9-3.3-2.6-3.6c-1.7-0.3-3.3,0.9-3.6,2.6l-1.9,11.5H46l1.7-10.5c0.3-1.7-0.9-3.3-2.6-3.6c-1.7-0.3-3.3,0.9-3.6,2.6
			l-1.9,11.5H27c-1.7,0-3.1,1.4-3.1,3.1s1.4,3.1,3.1,3.1h11.6l-1.3,7.7L27,151.4z M45,143.7h7.6l-1.3,7.7h-7.6L45,143.7z"/>
		<path class="st8" d="M103.8,199.1c-2.5-2.1-5.9-2.9-9.3-2.1c-4.3,1.1-8.7,5.1-8.7,11.8c0,4.2,1.5,7.8,4.7,11.1
			c2.6,2.7,6.2,5.2,12,8.3c0.5,0.2,1,0.4,1.5,0.4s1-0.1,1.5-0.4c10-5.3,16.6-10.6,16.6-19.3c0-6.7-4.5-10.8-9-11.8
			C109.5,196.4,106.2,197.2,103.8,199.1L103.8,199.1z M115.6,208.9c0,4.7-3.1,8.2-11.8,13c-8.7-4.8-11.8-8.3-11.8-13
			c0-3.5,2-5.2,3.9-5.7c0.3-0.1,0.7-0.1,1.1-0.1c1.4,0,3,0.7,4,2.5c0.6,1.1,1.7,1.7,2.9,1.7c1.2,0,2.3-0.7,2.8-1.8
			c1-2.2,3.2-2.6,4.8-2.2C113.5,203.7,115.6,205.4,115.6,208.9z"/>
	</g>
	<g id="Layer_81_1_">
		<g>
			<g>
				<g>
					<path class="st9" d="M252.9,165.8c-1.3,0.2-2.6,0.3-3.9,0.3c-5.5,0-10.6-1.8-14.7-4.9c-1.8,8.9-2,22.4,5,39.8
						c7.9,19.8-21.9,36.3-19.3,63.9l29.8-7.5c3.5-0.9,7-2.2,10.2-3.8l14.6-7.2c5.6-2.8,9.2-8.5,9.2-14.7v-17.9
						C266.4,204.3,254.3,186.5,252.9,165.8L252.9,165.8z"/>
				</g>
			</g>
			<g>
				<g>
					<path class="st9" d="M384.5,201c7-17.5,6.8-30.9,5-39.8c-4.1,3.1-9.2,4.9-14.7,4.9c-1.3,0-2.7-0.1-3.9-0.3
						c-1.4,20.7-13.5,38.6-30.9,48v17.9c0,6.3,3.6,12,9.2,14.7l14.6,7.2c3.3,1.6,6.7,2.9,10.2,3.8l29.8,7.5
						C406.5,237.3,376.6,220.9,384.5,201L384.5,201z"/>
				</g>
			</g>
			<g>
				<g>
					<path class="st10" d="M433.8,36.8c-7.6-1.4-13.5-7.2-14.9-14.6c-0.1-0.4-0.6-0.4-0.7,0c-1.4,7.4-7.4,13.2-14.9,14.6
						c-0.4,0.1-0.4,0.6,0,0.7c7.6,1.4,13.5,7.2,14.9,14.6c0.1,0.4,0.6,0.4,0.7,0c1.4-7.4,7.4-13.2,14.9-14.6
						C434.2,37.3,434.2,36.8,433.8,36.8z"/>
				</g>
			</g>
			<g>
				<g>
					<path class="st11" d="M478.2,261.9c-5.7-1.1-10.1-5.4-11.2-11c-0.1-0.3-0.4-0.3-0.5,0c-1.1,5.6-5.5,9.9-11.2,11
						c-0.3,0.1-0.3,0.4,0,0.5c5.7,1.1,10.1,5.4,11.2,11c0.1,0.3,0.4,0.3,0.5,0c1.1-5.6,5.5-9.9,11.2-11
						C478.5,262.3,478.5,262,478.2,261.9z"/>
				</g>
			</g>
			<g>
				<g>
					<path class="st12" d="M187.6,213.8h-3.9v-3.9c0-2.9-2.4-5.3-5.3-5.3s-5.3,2.4-5.3,5.3v3.9h-3.9c-2.9,0-5.3,2.4-5.3,5.3
						c0,2.9,2.4,5.3,5.3,5.3h3.9v3.9c0,2.9,2.4,5.3,5.3,5.3c2.9,0,5.3-2.4,5.3-5.3v-3.9h3.9c2.9,0,5.3-2.4,5.3-5.3
						C192.9,216.2,190.5,213.8,187.6,213.8L187.6,213.8z"/>
				</g>
			</g>
			<g>
				<g>
					<path class="st10" d="M163.3,253.6c-3.1,0-5.7,2.5-5.7,5.7s2.5,5.7,5.7,5.7s5.7-2.5,5.7-5.7S166.4,253.6,163.3,253.6z"/>
				</g>
			</g>
			<g>
				<g>
					<path class="st13" d="M391.7,0c-3.1,0-5.7,2.5-5.7,5.7s2.5,5.7,5.7,5.7s5.7-2.5,5.7-5.7S394.8,0,391.7,0z"/>
				</g>
			</g>
			<g>
				<g>
					<path class="st11" d="M247.7,257.9l-40.3,10.2c-9.7,2.4-15.8,10-18,20.3c-1.2,5.7,1-3.9-17.9,71.3c1.3-0.8,2.7-1.5,4.2-2
						l64.8-24c1.4-0.5,2.9,0.2,3.5,1.6l0.5,1.4l8.1-3c4.8-1.8,9.1-4.9,12.3-9c5.1-6.1,7.4-11.1,14.4-15.1c3.1-1.8,7.2-4.2,11-6.8
						v-9.5C278.2,297.3,262.5,292.5,247.7,257.9z"/>
				</g>
			</g>
			<g>
				<g>
					<path class="st11" d="M434.6,290.3c-0.6-10.6-8-19.6-18.3-22.2L376,257.9c-6,14-12.2,23.1-18.2,28.7v69.5
						c0,6.3-5.1,11.3-11.3,11.3h-44.9c-1.2,0-2.3-0.2-3.4-0.5c-7.5,1.7-12.7,1.1-15.1,1.2c-6.1-0.1-12.1,1-17.8,3.1l-6.9,2.6
						l0.5,1.3c0.5,1.4-0.2,2.9-1.6,3.5l-12.7,4.7c1.1,7.2,1.6,14.4,1.6,21.6v16.3c0,2.5,2,4.6,4.6,4.6h122c2.5,0,4.6-2,4.6-4.6
						v-16.3c0-14.5,2.2-28.9,6.5-42.8l6.6-21.2v80.3c0,2.5,2,4.6,4.6,4.6h37.4c3.9,0,6.9-3.3,6.7-7.1L434.6,290.3z"/>
				</g>
			</g>
			<g>
				<g>
					<path class="st14" d="M374,257.4c-3.5-0.9-7-2.1-10.2-3.8l-11.2-5.5c-0.8,0.9-1.6,1.8-2.4,2.8c4.5,1.5,7.7,5.8,7.7,10.7v25
						c6-5.6,12.1-14.7,18.2-28.7L374,257.4z"/>
				</g>
			</g>
			<g>
				<g>
					<path class="st14" d="M271.1,248.2l-11.2,5.5c-3.3,1.6-6.7,2.9-10.2,3.8l-2,0.5c14.9,34.5,30.5,39.4,42.6,35.2v-27.5
						C282.5,260.4,276,253.8,271.1,248.2z"/>
				</g>
			</g>
			<g>
				<g>
					<path class="st15" d="M349.2,246.5c-5.6-2.8-9.2-8.5-9.2-14.7v-17.9c-8.4,4.6-18,7.2-28.1,7.2c-10.2,0-19.8-2.6-28.1-7.2v17.9
						c0,6.3-3.6,12-9.2,14.7l-3.4,1.7c4.8,5.7,11.4,12.3,19.2,17.5v-4c0-6.3,5.1-11.3,11.3-11.3h44.9c1.3,0,2.5,0.2,3.6,0.6
						c0.8-0.9,1.7-1.9,2.4-2.8L349.2,246.5z"/>
				</g>
			</g>
			<g>
				<g>
					<path class="st8" d="M251.7,256.9c-0.6-2.2-2.9-3.6-5.1-3L206.4,264c-11,2.8-18.5,11.1-21,23.5l-0.2,1
						c-0.4,1.9-0.4,1.9-2.7,11.1c-2.2,8.5-6.4,24.9-14.7,57.8c-0.6,2.2,0.8,4.5,3,5.1c0.3,0.1,0.7,0.1,1,0.1c1.9,0,3.6-1.3,4.1-3.2
						c8.3-32.9,12.5-49.3,14.7-57.8c2.4-9.4,2.4-9.4,2.8-11.5l0.2-1c1.3-6.4,5-14.6,14.9-17.1l40.3-10.2
						C250.9,261.4,252.3,259.2,251.7,256.9L251.7,256.9z"/>
				</g>
			</g>
			<g>
				<g>
					<path class="st8" d="M443.5,418.5L438.8,290c-0.7-12.5-9.3-23-21.5-26l-40.3-10.2c-2-0.5-4.1,0.5-4.9,2.4
						c-5.3,12.2-10.9,21.3-16.8,27c-1.7,1.6-1.7,4.3-0.1,5.9c1.6,1.7,4.3,1.7,5.9,0.1c6.1-5.9,11.9-14.8,17.2-26.4l36.8,9.3
						c8.6,2.2,14.6,9.5,15.1,18.2l4.7,128.5c0.1,0.9-0.4,1.6-0.7,1.9c-0.3,0.3-0.9,0.8-1.8,0.8h-37.4c-0.2,0-0.4-0.2-0.4-0.4V341
						c0-2.1-1.5-3.8-3.6-4.2c-2-0.3-4,0.9-4.6,2.9l-6.6,21.2c-4.5,14.3-6.7,29.1-6.7,44v16.3c0,0.2-0.2,0.4-0.4,0.4h-122
						c-0.2,0-0.4-0.2-0.4-0.4v-16.3c0-6.9-0.5-13.9-1.5-20.8c-0.3-2.3-2.4-3.9-4.7-3.6c-2.3,0.3-3.9,2.5-3.6,4.7
						c0.9,6.5,1.4,13.1,1.4,19.6v16.3c0,4.8,3.9,8.8,8.8,8.8h122c4.8,0,8.8-3.9,8.8-8.8v-16.3c0-12.2,1.6-24.3,4.7-36v52.3
						c0,4.8,3.9,8.8,8.8,8.8h37.4c3,0,5.9-1.2,7.9-3.4C442.5,424.4,443.6,421.4,443.5,418.5L443.5,418.5z"/>
				</g>
			</g>
			<g>
				<g>
					<path class="st15" d="M374.8,116.7c-1.3,0-2.6,0.1-3.8,0.3v44.8c0,1.3-0.1,2.7-0.1,4c1.3,0.2,2.6,0.3,3.9,0.3
						c13.6,0,24.7-11.1,24.7-24.7S388.4,116.7,374.8,116.7L374.8,116.7z"/>
				</g>
			</g>
			<g>
				<g>
					<path class="st15" d="M367.4,109.5c-6-1.4-13.2-4.9-21.6-12.4c-1.6-1.5-4.2-1.4-5.6,0.3c-9,10.5-40.9,42.4-87.4,29.2v35.2
						c0,32.5,26.6,59.1,59.1,59.1c32.5,0,59.1-26.6,59.1-59.1V114C371,111.9,369.5,110,367.4,109.5L367.4,109.5z"/>
				</g>
			</g>
			<g>
				<g>
					<path class="st15" d="M252.7,161.8v-35.2c-4.1-1.2-8.2-2.7-12.5-4.5c-2.8-1.2-6-0.7-8.2,1.4c-4.8,4.5-7.8,10.9-7.8,18
						c0,13.6,11.1,24.7,24.7,24.7c1.3,0,2.7-0.1,3.9-0.3C252.8,164.5,252.7,163.1,252.7,161.8L252.7,161.8z"/>
				</g>
			</g>
			<g>
				<g>
					<path class="st9" d="M311.9,29.1c-44.2,0-80.4,36.2-80.4,80.4v14.5c0.2-0.2,0.4-0.4,0.6-0.6c2.2-2.1,5.4-2.6,8.2-1.4
						c4.3,1.9,8.4,3.4,12.5,4.5c46.5,13.2,78.4-18.7,87.4-29.2c1.4-1.7,4-1.8,5.6-0.3c8.3,7.6,15.6,11,21.6,12.4
						c2.1,0.5,3.6,2.3,3.6,4.5v3c1.2-0.2,2.5-0.3,3.8-0.3c6.8,0,13,2.8,17.5,7.3v-14.5C392.3,65.3,356.1,29.1,311.9,29.1L311.9,29.1
						z"/>
				</g>
			</g>
			<g>
				<g>
					<path class="st8" d="M374.8,112.5c-0.7,0-1.3,0-2,0.1c-2.3,0.2-4.1,2.2-3.9,4.5c0.2,2.3,2.1,4.1,4.5,3.9c0.5,0,0.9-0.1,1.4-0.1
						c11.3,0,20.5,9.2,20.5,20.5c0,11.3-9.2,20.5-20.5,20.5c-0.6,0-1.3,0-2-0.1c-2.3-0.2-4.4,1.4-4.6,3.7c-0.3,2.3,1.4,4.4,3.7,4.6
						c1,0.1,2,0.2,2.9,0.2c15.9,0,28.9-13,28.9-28.9C403.7,125.5,390.7,112.5,374.8,112.5L374.8,112.5z"/>
				</g>
			</g>
			<g>
				<g>
					<path class="st8" d="M332.6,178.1c-1.8-1.5-4.4-1.3-5.9,0.5c-3.1,3.7-8.3,5.9-13.9,5.9c-5.7,0-10.9-2.2-13.9-5.9
						c-1.5-1.8-4.1-2-5.9-0.5c-1.8,1.5-2,4.1-0.5,5.9c4.6,5.5,12.3,8.9,20.4,8.9c8.1,0,15.7-3.3,20.4-8.9
						C334.6,182.3,334.4,179.6,332.6,178.1z"/>
				</g>
			</g>
			<g>
				<g>
					<g>
						<path class="st8" d="M368.3,105.4c-6.3-1.5-13-5.3-19.7-11.4c-1.6-1.5-3.8-2.3-6-2.1c-2.2,0.1-4.2,1.1-5.6,2.8
							c-8.3,9.7-38.9,40.4-83.1,27.9c-1.3-0.4-2.6-0.1-3.7,0.7c-1.1,0.8-1.7,2-1.7,3.4v35.2c0,34.9,28.4,63.3,63.3,63.3
							s63.3-28.4,63.3-63.3V114C375.2,109.9,372.4,106.4,368.3,105.4L368.3,105.4z M366.8,161.8c0,30.3-24.6,54.9-54.9,54.9
							c-30.3,0-54.9-24.6-54.9-54.9V132c45.7,10.1,77.2-21.1,86.2-31.6c7.8,7,15.6,11.5,23.3,13.2c0.2,0,0.4,0.2,0.4,0.4V161.8z"/>
					</g>
				</g>
			</g>
			<g>
				<g>
					<path class="st8" d="M238.5,125.9c4.3,1.9,8.7,3.5,13.1,4.7c2.2,0.6,4.6-0.7,5.2-2.9c0.6-2.2-0.7-4.6-2.9-5.2
						c-4-1.1-8-2.6-12-4.3c-4.3-1.9-9.3-1-12.7,2.2c-5.8,5.4-9.1,13.1-9.1,21c0,15.9,13,28.9,28.9,28.9c1.1,0,2.1-0.1,3.3-0.2
						c2.3-0.3,3.9-2.4,3.7-4.7c-0.3-2.3-2.4-3.9-4.7-3.7c-0.8,0.1-1.5,0.1-2.3,0.1c-11.3,0-20.5-9.2-20.5-20.5
						c0-5.7,2.3-11,6.5-14.9C235.9,125.6,237.3,125.3,238.5,125.9L238.5,125.9z"/>
				</g>
			</g>
			<g>
				<g>
					<path class="st8" d="M311.9,24.9c-46.7,0-84.6,38-84.6,84.6v13c0,2.3,1.9,4.2,4.2,4.2s4.2-1.9,4.2-4.2v-13
						c0-42,34.2-76.2,76.2-76.2s76.2,34.2,76.2,76.2v12.8c0,2.3,1.9,4.2,4.2,4.2c2.3,0,4.2-1.9,4.2-4.2v-12.8
						C396.5,62.9,358.5,24.9,311.9,24.9z"/>
				</g>
			</g>
			<g>
				<g>
					<path class="st8" d="M395.9,228.1c-6.6-10.8-10.5-17.8-7.5-25.5c5.8-14.5,7.7-28.2,5.5-40.7c-0.4-2.3-2.6-3.8-4.9-3.4
						c-2.3,0.4-3.8,2.6-3.4,4.9c1.9,10.9,0.2,23-5,36.1c-4.8,11.9,1.8,22.6,8.1,33c5.8,9.4,11.7,19.2,11,31
						c-0.1,2.3,1.6,4.3,3.9,4.4c0.1,0,0.2,0,0.3,0c2.2,0,4.1-1.7,4.2-3.9C409,249.5,402,238.1,395.9,228.1L395.9,228.1z"/>
				</g>
			</g>
			<g>
				<g>
					<path class="st8" d="M243.1,199.5c-5.2-13-6.9-25.1-5-36c0.4-2.3-1.1-4.5-3.4-4.9c-2.3-0.4-4.5,1.1-4.9,3.4
						c-2.1,12.4-0.3,26.1,5.5,40.6c3.1,7.6-0.8,14.6-7.5,25.5c-6.1,10-13,21.3-12.2,35.7c0.1,2.2,2,4,4.2,4c0.1,0,0.2,0,0.2,0
						c2.3-0.1,4.1-2.1,4-4.4c-0.7-11.7,5.3-21.4,11-30.8C241.3,222.1,247.9,211.4,243.1,199.5L243.1,199.5z"/>
				</g>
			</g>
			<g>
				<g>
					<path class="st8" d="M377.1,253.9l-2-0.5c-3.2-0.8-6.4-2-9.4-3.5l-11.2-5.5c-2.1-1-4.6-0.2-5.6,1.9c-1,2.1-0.2,4.6,1.9,5.6
						l11.2,5.5c3.5,1.7,7.2,3.1,11.1,4.1l2,0.5c0.3,0.1,0.7,0.1,1,0.1c1.9,0,3.6-1.3,4.1-3.2C380.7,256.7,379.3,254.4,377.1,253.9z"
						/>
				</g>
			</g>
			<g>
				<g>
					<path class="st8" d="M292.7,292.6c-0.6-2.2-2.9-3.6-5.1-3c-14.8,3.9-26.4-12.6-34-28.9c2.8-0.9,5.6-2,8.3-3.3l11.2-5.5
						c2.1-1,2.9-3.5,1.9-5.6c-1-2.1-3.5-2.9-5.6-1.9l-11.2,5.5c-3,1.5-6.2,2.6-9.4,3.5l-2,0.5c-1.2,0.3-2.2,1.1-2.7,2.2
						c-0.5,1.1-0.6,2.4-0.1,3.5c13.3,31,27.9,39,39.3,39c2.3,0,4.5-0.3,6.6-0.9C292,297.2,293.3,294.9,292.7,292.6L292.7,292.6z"/>
				</g>
			</g>
			<g>
				<g>
					<path class="st8" d="M354.5,244.4l-3.4-1.7c-4.2-2.1-6.8-6.3-6.8-11v-16.5c0-2.3-1.9-4.2-4.2-4.2s-4.2,1.9-4.2,4.2v16.5
						c0,7.9,4.4,15,11.5,18.5l3.4,1.7c0.6,0.3,1.2,0.4,1.9,0.4c1.5,0,3-0.9,3.8-2.3C357.4,247.9,356.5,245.4,354.5,244.4
						L354.5,244.4z"/>
				</g>
			</g>
			<g>
				<g>
					<path class="st8" d="M291.7,261.5c-4.7-3.3-9.3-7.3-13.8-12.1c6.2-3.7,10-10.4,10-17.7v-16.8c0-2.3-1.9-4.2-4.2-4.2
						s-4.2,1.9-4.2,4.2v16.8c0,4.7-2.6,8.9-6.8,11l-3.4,1.7c-1.2,0.6-2,1.6-2.3,2.9c-0.3,1.3,0.1,2.6,0.9,3.6
						c6.1,7.1,12.4,13,19,17.5c0.7,0.5,1.6,0.7,2.4,0.7c1.3,0,2.6-0.6,3.5-1.8C294.1,265.4,293.6,262.8,291.7,261.5L291.7,261.5z"/>
				</g>
			</g>
			<g>
				<g>
					<circle class="st8" cx="338.2" cy="148.1" r="8.3"/>
				</g>
			</g>
			<g>
				<g>
					<circle class="st8" cx="286.6" cy="148.1" r="8.3"/>
				</g>
			</g>
			<g>
				<g>
					<path class="st11" d="M258.9,375.1L244,335.2c-0.5-1.4-2.1-2.1-3.5-1.6l-64.8,24c-12.4,4.6-18.8,18.4-14.2,30.9
						c4.6,12.4,18.4,18.8,30.9,14.2l65-24.1C258.8,378.1,259.5,376.5,258.9,375.1z"/>
				</g>
			</g>
			<g>
				<g>
					<path class="st16" d="M346.5,250.3h-44.9c-6.3,0-11.3,5.1-11.3,11.3v41c1.7-1.2,3.4-2.3,4.9-3.5c0.8-0.6,1.8-0.5,2.5,0.1
						c3.7,3.3,3.8,9.1,0.2,12.5c-2,1.9-4.5,4-7.6,6.3v1l31.1-11.4c3.1-1.2,6.6,0.4,7.8,3.6c1.2,3.1-0.4,6.6-3.6,7.8l7.3-2.7
						c3.1-1.2,6.6,0.4,7.8,3.6c1.2,3.1-0.4,6.6-3.6,7.8l-7.3,2.7c3.1-1.2,6.6,0.4,7.8,3.6l0.1,0.2c1.2,3.1-0.4,6.6-3.6,7.8l-7,2.6
						c3-1.1,6.4,0.5,7.5,3.5c1,3-0.7,6.2-3.7,7.3l-26.3,9.6c-2.1,0.8-4.2,1.4-6.4,1.9c1.1,0.3,2.2,0.5,3.4,0.5h44.9
						c6.3,0,11.3-5.1,11.3-11.3v-94.5C357.9,255.4,352.8,250.3,346.5,250.3L346.5,250.3z"/>
				</g>
			</g>
			<g>
				<g>
					<path class="st14" d="M316.7,262h-7.5c-3.7,0-6.8,3-6.8,6.8c0,3.7,3,6.8,6.8,6.8h7.5c3.7,0,6.8-3,6.8-6.8
						C323.4,265,320.4,262,316.7,262z"/>
				</g>
			</g>
			<g>
				<g>
					<path class="st8" d="M346.5,246.1h-44.9c-8.6,0-15.5,7-15.5,15.5v40.2c0,2.3,1.9,4.2,4.2,4.2s4.2-1.9,4.2-4.2v-40.2
						c0-3.9,3.2-7.1,7.1-7.1h44.9c3.9,0,7.1,3.2,7.1,7.1v94.5c0,3.9-3.2,7.1-7.1,7.1h-44.9c-0.6,0-1.3-0.1-1.9-0.2
						c-2.2-0.6-4.5,0.7-5.1,3c-0.6,2.2,0.7,4.5,3,5.1c1.3,0.4,2.7,0.5,4.1,0.5h44.9c8.6,0,15.5-7,15.5-15.5v-94.5
						C362.1,253.1,355.1,246.1,346.5,246.1z"/>
				</g>
			</g>
			<g>
				<g>
					<path class="st15" d="M340.7,319.9c-1.2-3.1-4.7-4.7-7.8-3.6l-7.3,2.7c3.1-1.2,4.7-4.7,3.6-7.8s-4.7-4.7-7.8-3.6l-34,12.5
						c4.5-3.2,7.9-6,10.5-8.4c3.6-3.4,3.5-9.2-0.2-12.5c-0.7-0.6-1.8-0.7-2.5-0.1c-4.7,3.6-11.5,7.7-15.9,10.3
						c-3.1,1.8-5.9,4.2-8.1,7l-6.3,8.1c-3.2,4.1-7.4,7.2-12.3,9l-8.1,3l13.9,37.2l6.9-2.6c5.7-2.1,11.7-3.2,17.8-3.1l3.8,0
						c6.1,0.1,12.1-1,17.8-3.1l26.3-9.6c3-1.1,4.7-4.3,3.7-7.3c-1-3.1-4.4-4.7-7.5-3.5l7-2.6c3.1-1.2,4.7-4.7,3.6-7.8l-0.1-0.2
						c-1.2-3.1-4.7-4.7-7.8-3.6l7.3-2.7C340.3,326.5,341.9,323.1,340.7,319.9L340.7,319.9z"/>
				</g>
			</g>
			<g>
				<g>
					<path class="st8" d="M344.4,326.3c1.1-2.5,1.2-5.3,0.3-7.8c-1.7-4.6-6.4-7.2-11-6.6c-0.1-0.7-0.3-1.4-0.5-2
						c-1-2.6-2.9-4.6-5.4-5.7c-2.5-1.1-5.3-1.2-7.8-0.3l-15.8,5.8c0.4-1.3,0.7-2.7,0.6-4.2c-0.1-3.5-1.6-6.9-4.2-9.3
						c-2.2-2-5.5-2.1-7.9-0.3c-4.7,3.6-11.7,7.8-15.5,10c-3.6,2.1-6.7,4.8-9.3,8.1l-6.3,8.1c-2.7,3.5-6.3,6.1-10.4,7.6l-6.8,2.5
						c-2.2,0.8-3.3,3.2-2.5,5.4c0.8,2.2,3.2,3.3,5.4,2.5l6.8-2.5c5.6-2.1,10.4-5.7,14.1-10.4l6.3-8.1c1.9-2.4,4.2-4.4,6.8-6
						c4.2-2.4,10-5.9,14.6-9.3c0.2,0.5,0.4,1.1,0.4,1.7c0,1.2-0.5,2.3-1.3,3.2c-2.6,2.5-6,5.2-10,8.1c-1.7,1.2-2.3,3.5-1.3,5.4
						c1,1.9,3.2,2.7,5.2,2l34-12.5c0.6-0.2,1.2-0.1,1.4,0c0.3,0.1,0.7,0.4,1,1c0.2,0.6,0.1,1.2,0,1.4c-0.1,0.3-0.4,0.7-1,1
						c-2.2,0.8-3.3,3.2-2.5,5.4c0.8,2.2,3.2,3.3,5.4,2.5l7.3-2.7c1-0.4,2,0.1,2.4,1.1c0.2,0.6,0.1,1.2-0.1,1.4c-0.1,0.3-0.4,0.7-1,1
						l-7.3,2.7c-2.2,0.8-3.3,3.2-2.5,5.4c0.8,2.2,3.2,3.3,5.4,2.5c0.6-0.2,1.2-0.1,1.4,0c0.3,0.1,0.7,0.4,1,1l0.1,0.2
						c0.4,1-0.1,2-1.1,2.4l-7,2.6c-2.2,0.8-3.3,3.2-2.5,5.4c0.8,2.2,3.2,3.3,5.4,2.5c0.5-0.2,1-0.1,1.2,0.1c0.2,0.1,0.6,0.4,0.8,0.9
						c0.3,0.8-0.3,1.7-1.1,2l-26.3,9.6c-5.2,2-10.7,2.9-16.3,2.9l-3.8,0c-6.6-0.1-13.1,1.1-19.3,3.4l-5.5,2
						c-2.2,0.8-3.3,3.2-2.5,5.4c0.6,1.7,2.2,2.7,3.9,2.7c0.5,0,1-0.1,1.5-0.3l5.5-2c5.2-2,10.7-2.9,16.3-2.9l3.8,0
						c6.6,0.1,13.1-1.1,19.3-3.4l26.3-9.6c5.1-1.9,7.9-7.6,6.2-12.6c-0.2-0.7-0.5-1.3-0.9-1.9c3.9-2.6,5.7-7.6,4-12.1l-0.1-0.2
						c-0.3-0.7-0.6-1.3-0.9-1.9C342.3,329.6,343.5,328.1,344.4,326.3L344.4,326.3z"/>
				</g>
			</g>
			<g>
				<g>
					<g>
						<path class="st8" d="M262.9,373.7l-14.9-39.9c-0.6-1.7-1.9-3.1-3.6-3.9c-1.7-0.8-3.5-0.8-5.3-0.2l-64.8,24
							c-14.6,5.4-22,21.7-16.6,36.3c2.6,7.1,7.8,12.7,14.7,15.8c3.7,1.7,7.7,2.6,11.8,2.6c3.3,0,6.6-0.6,9.8-1.8l65-24.1
							C262.4,381.2,264.2,377.2,262.9,373.7L262.9,373.7z M190.9,398.7c-5,1.8-10.3,1.6-15.2-0.6c-4.8-2.2-8.5-6.2-10.3-11.1
							c-3.8-10.2,1.4-21.7,11.7-25.5l63.4-23.5l13.9,37.1L190.9,398.7z"/>
					</g>
				</g>
			</g>
			<g>
				<g>
					<g>
						<path class="st8" d="M316.7,257.8h-7.5c-6,0-11,4.9-11,11c0,6,4.9,11,11,11h7.5c6,0,11-4.9,11-11
							C327.6,262.7,322.7,257.8,316.7,257.8z M316.7,271.3h-7.5c-1.4,0-2.6-1.2-2.6-2.6s1.2-2.6,2.6-2.6h7.5c1.4,0,2.6,1.2,2.6,2.6
							S318,271.3,316.7,271.3z"/>
					</g>
				</g>
			</g>
		</g>
	</g>
</g>
</svg>
