<?xml version="1.0" encoding="utf-8"?>
<!-- Generator: Adobe Illustrator 25.0.1, SVG Export Plug-In . SVG Version: 6.00 Build 0)  -->
<svg version="1.1" id="Layer_1" xmlns="http://www.w3.org/2000/svg" xmlns:xlink="http://www.w3.org/1999/xlink" x="0px" y="0px"
	 viewBox="0 0 318.1 250.4" style="enable-background:new 0 0 318.1 250.4;" xml:space="preserve">
<style type="text/css">
	.st0{fill:#FDE4DD;}
	.st1{fill:#515979;}
	.st2{fill:#FACDBF;}
	.st3{fill:#7DDF96;}
	.st4{fill:#00C853;}
	.st5{opacity:0.6;}
	.st6{fill:#FFEBEB;}
	.st7{fill:#FFFFFF;}
</style>
<g>
	<g id="Layer_2_1_">
		<g id="Layer_1-2">
			<path class="st0" d="M47.7,302.8c-0.8,0-1.6-0.3-2.1-0.9L3.9,260.2c-1.2-1.2-1.2-3.1,0-4.2c0,0,0.1-0.1,0.1-0.1l84.3-75.9
				c2.8-6.6,24.9-57.7,35-67.8c1.7-1.7,6.7-6.7,37.6-9.7c14.9-1.4,28.7-1.7,28.9-1.7h0.1c1.7,0,3,1.4,3,3c0,0.5-0.1,0.9-0.3,1.3
				l-29.2,59c-0.1,0.1-0.1,0.2-0.2,0.3l-32.7,50.2c-0.1,0.1-0.2,0.3-0.3,0.4L50,301.8c-0.5,0.6-1.3,1-2.1,1L47.7,302.8z"/>
			<path class="st1" d="M189.8,103.8l-29.2,59L127.9,213l-80.2,86.7L6,258.1l84.8-76.4c0,0,24.3-57.2,34.6-67.4
				C134.9,104.8,189.8,103.8,189.8,103.8 M189.8,97.8h-0.1c-0.6,0-14.1,0.3-29.1,1.7c-28.7,2.8-36.2,7.3-39.4,10.5
				c-10.2,10.2-31.1,58.2-35.3,68.1L2,253.6c-2.5,2.2-2.7,6-0.4,8.5c0.1,0.1,0.1,0.2,0.2,0.2L43.5,304c1.1,1.1,2.6,1.8,4.2,1.8h0.1
				c1.6,0,3.2-0.7,4.3-1.9l80.2-86.7c0.2-0.2,0.4-0.5,0.6-0.8l32.7-50.2c0.1-0.2,0.2-0.4,0.4-0.6l29.2-59.1c1.5-3,0.2-6.6-2.7-8
				C191.6,98,190.7,97.8,189.8,97.8L189.8,97.8z"/>
			<g>
				<path class="st2" d="M164.3,155.3l25.5-51.6c0,0-26,0.5-45.3,3.9l-4.6,12.5c-0.5,1.3-0.3,2.7,0.6,3.8L164.3,155.3z"/>
			</g>
			<path class="st0" d="M160.8,188.8c-2.3,0-4.7-0.1-7-0.4c-1.1-0.1-2-0.8-2.4-1.8l-6.5-15.5c-0.5-1.3-0.1-2.8,1.1-3.6l22-15.4
				c0.5-0.4,1.1-0.5,1.7-0.5c0.2,0,0.4,0,0.5,0c0.8,0.1,1.5,0.6,1.9,1.2l8,11.5c0.4,0.6,0.6,1.3,0.5,2c-0.2,1.6-1.9,15.4-8.3,20
				C170.1,188,166.3,188.8,160.8,188.8z"/>
			<path class="st1" d="M169.7,154.5l8,11.5c0,0-1.5,14-7.1,17.9c-2.1,1.5-6.3,1.9-9.9,1.9c-2.2,0-4.5-0.1-6.7-0.4l-6.4-15.5
				L169.7,154.5 M169.7,148.5c-1.2,0-2.4,0.4-3.4,1.1l-22,15.4c-2.3,1.6-3.2,4.6-2.1,7.2l6.4,15.5c0.8,2,2.7,3.4,4.8,3.7
				c2.5,0.3,4.9,0.4,7.4,0.4c6.1,0,10.5-1,13.4-3c7.2-5.1,9.1-18.2,9.6-22.1c0.2-1.4-0.2-2.9-1-4.1l-8-11.5
				c-0.9-1.3-2.3-2.2-3.9-2.5c-0.3-0.1-0.7-0.1-1-0.1L169.7,148.5z"/>
			<g>
				<path class="st2" d="M177.8,166c0,0-1.5,14-7.1,17.9c-4.3,3-16.6,1.5-16.6,1.5l-6.4-15.5l22-15.4L177.8,166z"/>
			</g>
			<path class="st0" d="M169.1,174.4c-1,0-2-0.5-2.5-1.4l-9.1-14.1c-0.8-1.2-0.6-2.7,0.4-3.7l19-19c1.2-1.2,3.1-1.2,4.2,0
				c0,0,0,0,0,0l9.9,9.9c0.5,0.5,0.8,1.2,0.9,1.9c0.1,1.6,0.9,15.5-4.7,21.1c-4.3,4.3-15.8,5.2-18,5.3L169.1,174.4z"/>
			<path class="st1" d="M179.1,138.3l9.9,9.9c0,0,0.9,14-3.8,18.8c-3.7,3.7-16.1,4.4-16.1,4.4l-9.1-14.1L179.1,138.3 M179.1,132.3
				c-1.6,0-3.1,0.6-4.2,1.8l-19,19c-2,2-2.3,5.1-0.8,7.5l9.1,14.1c1.1,1.7,3,2.8,5.1,2.8h0.3c3.4-0.2,15.1-1.2,20-6.2
				c6.2-6.2,5.8-19.5,5.5-23.4c-0.1-1.4-0.7-2.8-1.7-3.8l-9.9-10C182.2,132.9,180.7,132.2,179.1,132.3L179.1,132.3z"/>
			<g>
				<path class="st2" d="M189,148.2c0,0,0.9,14-3.8,18.8c-3.7,3.7-16.1,4.4-16.1,4.4l-9.1-14.1l19-19L189,148.2z"/>
			</g>
			<g>
				<polygon class="st2" points="37.1,289.2 120.4,216.4 127.9,213.1 47.7,299.8 				"/>
			</g>
			<path class="st3" d="M208.1,153.9c-0.5,0-1.1-0.1-1.5-0.4l-54.1-32.3c-1.3-0.8-1.8-2.3-1.2-3.7c16.5-41.1,39.4-79.4,67.9-113.4
				c1-1.2,2.6-1.4,3.9-0.6l54,32.3c1.4,0.9,1.9,2.7,1,4.1c-0.1,0.1-0.2,0.3-0.3,0.4c-28,33.5-50.6,71.2-66.9,111.8
				c-0.3,0.8-1,1.4-1.8,1.7C208.7,153.9,208.4,153.9,208.1,153.9z"/>
			<path class="st1" d="M221.4,6l54,32.3c-28.2,33.8-51,71.8-67.4,112.6l-54-32.3C170.5,77.8,193.2,39.8,221.4,6 M221.4,0
				c-1.8,0-3.5,0.8-4.6,2.2c-28.6,34.2-51.7,72.8-68.3,114.2c-1.1,2.7,0,5.9,2.5,7.4l54,32.3c2.8,1.7,6.5,0.8,8.2-2.1
				c0.2-0.3,0.3-0.6,0.4-0.8c16.2-40.3,38.6-77.7,66.4-111c2.1-2.5,1.8-6.3-0.7-8.5c-0.2-0.2-0.5-0.4-0.8-0.5l-54-32.3
				C223.6,0.3,222.5,0,221.4,0z"/>
			<path class="st4" d="M198.5,97c-9.5-5.7-15.4-15.2-15.8-24.3c-6.3,11.2-12,22.6-17.3,34.3c5,3.2,7,9.4,4.8,14.9l26.1,15.6
				c1.8-4.5,6.9-6.8,11.4-5.1c0.6,0.2,1.1,0.5,1.6,0.8c5.2-11.7,11-23.1,17.3-34.3C218.6,103,208,102.7,198.5,97z M198.2,117.8
				c-2,4.2-6.9,5.5-11.2,3s-6.2-8-4.2-12.2s7.1-5.4,11.3-2.9S200.1,113.6,198.2,117.8L198.2,117.8z"/>
			<path class="st4" d="M216.5,21.5c-7.8,10.1-15.2,20.6-22.1,31.4c8.3-3.9,19.5-3.2,28.9,2.5s14.8,14.9,14.9,23.8
				c6.9-10.8,14.2-21.3,22.1-31.4c-4.3-2.4-5.8-7.7-3.5-12c0.3-0.5,0.6-1,1-1.5l-26.1-15.6C228.1,23.2,221.6,24.4,216.5,21.5z
				 M241.5,45.3c-2.8,3.7-8.4,4.7-12.6,2.1s-5.6-7.7-2.8-11.3s8.5-4.5,12.7-2S244.3,41.6,241.5,45.3L241.5,45.3z"/>
			<path class="st4" d="M216.2,74.3c-1.4-0.8-2.6,0.2-4.5,2.8c-3.3,4.3-6.4,7.6-12.1,4.5c-3.5-2.1-4.7-5.9-2.9-10.5l-2.6-1.6
				c1-1.7,2-3.4,3.1-5.1l2.6,1.6c1.9-2.4,5-3.6,8-3.2c0.1,0,0.2,0,0.4,0l1,0.1c-0.3,2.1-0.6,4.1-0.8,6.2l-1.4,0
				c-1.7-0.2-3.3,0.7-4,2.2c-1.4,2.4-1.5,3.7-0.1,4.6c1.2,0.8,2.6-0.4,4.4-2.8c3.1-4.2,6.7-7.6,12.2-4.3c3.6,2.2,4.6,6,2.9,10.6
				l2.7,1.6c-1,1.7-2,3.4-3,5.1l-2.6-1.6c-2.5,3-5.4,4.2-8.7,3.7l-1.3-0.2c0.4-2.1,0.8-4.1,1.1-6.2l1.2,0.2c1.7,0.3,3.1-0.6,4.3-2.5
				C217.6,76.9,217.7,75.2,216.2,74.3z"/>
			<path class="st3" d="M204.9,165.5c-0.7,0-1.4-0.3-1.9-0.7l-50.4-43.1c-1.1-1-1.4-2.6-0.6-3.8c24.4-39.8,54.9-75.4,90.4-105.7
				c0.5-0.5,1.2-0.7,1.9-0.7c0.7,0,1.4,0.3,1.9,0.7l50.4,43.1c0.7,0.6,1.1,1.4,1,2.3c0,0.9-0.4,1.7-1,2.3
				c-35,29.8-65.1,65-89.2,104.2c-0.5,0.7-1.2,1.3-2.1,1.4C205.2,165.5,205,165.5,204.9,165.5z"/>
			<path class="st1" d="M244.3,14.5l50.4,43.1c-35.3,30-65.6,65.5-89.8,104.9l-50.4-43.1C178.8,79.9,209.1,44.5,244.3,14.5
				 M244.3,8.5c-1.4,0-2.8,0.5-3.9,1.4c-35.7,30.5-66.4,66.3-91,106.4c-1.5,2.5-1,5.8,1.2,7.7l50.3,43.1c1.1,0.9,2.5,1.4,3.9,1.4
				c0.3,0,0.6,0,0.9-0.1c1.7-0.3,3.3-1.3,4.2-2.8c23.9-38.9,53.8-73.9,88.6-103.5c2.5-2.2,2.8-5.9,0.7-8.5c-0.2-0.2-0.4-0.5-0.7-0.7
				L248.2,9.9C247.2,9,245.8,8.5,244.3,8.5z"/>
			<path class="st4" d="M204.4,104.8c-8.8-7.6-13.2-18.5-12.1-28.1c-8.5,10.5-16.5,21.3-24,32.6c4.6,4.2,5.5,11,2.3,16.3l24.3,20.8
				c2.6-4.4,8.3-5.9,12.7-3.2c0.5,0.3,1.1,0.7,1.5,1.1c7.5-11.2,15.5-22.1,24-32.6C224.2,114.6,213.3,112.4,204.4,104.8z
				 M200.4,126.3c-2.8,4-8.1,4.5-12.1,1.1s-5-9.4-2.3-13.4s8.3-4.4,12.2-1S203.2,122.3,200.4,126.3L200.4,126.3z"/>
			<path class="st4" d="M236.5,29.7c-9.9,9.1-19.4,18.7-28.5,28.7c9.3-2.6,20.8,0.1,29.6,7.7s12.7,18,11.3,27.3
				c9-10,18.5-19.6,28.5-28.7c-4-3.2-4.7-9-1.5-13.1c0.4-0.5,0.8-0.9,1.3-1.4l-24.3-20.8C248.2,33.4,241.3,33.5,236.5,29.7z
				 M258.2,58.8c-3.5,3.3-9.5,3.4-13.5,0s-4.4-8.9-0.9-12.2s9.6-3.2,13.6,0.2S261.8,55.5,258.2,58.8z"/>
			<path class="st4" d="M226.9,84.4c-1.3-1.1-2.7-0.2-5.1,2.1c-4.2,3.9-7.9,6.7-13.3,2.5c-3.3-2.8-3.8-6.9-1.1-11.4l-2.4-2.1
				c1.3-1.6,2.7-3.2,4-4.7l2.4,2.1c2.4-2.1,5.8-2.8,8.9-1.9c0.1,0,0.2,0,0.4,0.1l1,0.3c-0.7,2.1-1.3,4.2-2,6.3l-1.3-0.3
				c-1.8-0.4-3.1-0.1-4.6,1.6c-1.9,2.2-2.2,3.6-0.9,4.8c1.2,1,2.7,0,5.1-2.2c4-3.8,8.3-6.7,13.4-2.3c3.4,2.9,3.7,7,1.1,11.5l2.5,2.2
				c-1.4,1.6-2.7,3.1-4,4.7l-2.5-2.1c-3.1,2.7-6.3,3.4-9.7,2.2l-1.2-0.4c0.8-2.1,1.5-4.2,2.3-6.2l1.2,0.4c1.7,0.6,3.3,0,4.9-1.8
				C227.9,87.3,228.2,85.6,226.9,84.4z"/>
			<path class="st3" d="M196.4,177.5c-0.9,0-1.7-0.5-2.2-1.2l-42.4-55.5c-0.9-1.2-0.8-2.8,0.2-3.9c33.9-35.5,73.1-65.5,116.3-88.8
				c1.3-0.7,2.9-0.4,3.8,0.8l42.4,55.5c1,1.3,0.7,3.2-0.6,4.2c-0.1,0.1-0.3,0.2-0.4,0.3c-42.6,23-81.4,52.6-114.8,87.7
				c-0.6,0.6-1.3,0.9-2.2,0.9H196.4z"/>
			<path class="st1" d="M269.7,30.8l42.4,55.5c-42.9,23.2-81.9,53-115.5,88.2L154.2,119C187.8,83.8,226.8,54,269.7,30.8 M269.7,24.8
				c-1,0-2,0.2-2.9,0.7c-43.5,23.5-82.9,53.6-117,89.4c-2,2.1-2.2,5.4-0.4,7.8l42.4,55.5c1.1,1.4,2.7,2.3,4.4,2.4h0.3
				c1.6,0,3.2-0.7,4.3-1.9c33.2-34.8,71.7-64.2,114-87.1c2.9-1.6,4-5.2,2.4-8.1c-0.1-0.3-0.3-0.5-0.5-0.8l-27.1-35.4l-15.3-20
				C273.3,25.7,271.6,24.8,269.7,24.8L269.7,24.8z"/>
			<path class="st4" d="M208.8,115c-7.4-9.7-9.6-22-6.3-31.6c-11,8.9-21.6,18.3-31.8,28.2c3.8,5.3,3.3,12.6-1.2,17.3l20.4,26.8
				c3.7-4,9.9-4.2,13.8-0.5c0.5,0.5,0.9,1,1.3,1.5c10.2-9.9,20.8-19.3,31.8-28.2C227,129.4,216.2,124.8,208.8,115z M200,136.3
				c-3.7,3.5-9.4,2.8-12.7-1.5s-3.1-10.8,0.6-14.3s9.5-2.7,12.8,1.7S203.7,132.8,200,136.3z"/>
			<path class="st4" d="M258.3,44.7c-12.2,7.2-24.1,15-35.6,23.3c10.1-0.6,21.4,4.7,28.8,14.4c7.4,9.7,9.1,21.4,5.6,30.6
				c11.5-8.3,23.4-16.1,35.6-23.3c-3.4-4.2-2.8-10.3,1.4-13.8c0.5-0.4,1.1-0.8,1.6-1.1l-20.4-26.7C269.5,51.2,262.4,49.8,258.3,44.7
				z M274.3,79.5c-4.3,2.7-10.5,1.4-13.8-3s-2.6-10.2,1.8-12.8s10.6-1.2,14,3.1S278.6,76.8,274.3,79.5L274.3,79.5z"/>
			<path class="st4" d="M236.3,99c-1.1-1.4-2.8-0.8-5.7,1c-5.2,3.1-9.6,5.2-14.3-0.3c-2.8-3.6-2.4-8,1.4-12l-2-2.7
				c1.7-1.3,3.5-2.7,5.2-4l2,2.7c3-1.7,6.5-1.7,9.5,0c0.1,0,0.2,0.1,0.4,0.2l0.9,0.5c-1.1,2-2.3,4-3.4,6.1l-1.3-0.6
				c-1.7-0.8-3.1-0.8-5.1,0.7c-2.5,1.9-3.1,3.2-2,4.7c1,1.3,2.8,0.6,5.7-1.1c5-3,10-5,14.3,0.6c2.8,3.7,2.3,8.1-1.4,12.1l2.1,2.8
				c-1.8,1.3-3.5,2.6-5.2,4l-2.1-2.7c-3.8,2.1-7.3,2.2-10.5,0.2l-1.2-0.7c1.2-2,2.5-4,3.7-5.9l1.2,0.7c1.6,1,3.4,0.7,5.4-0.8
				C236.7,102.2,237.5,100.5,236.3,99z"/>
			<path class="st0" d="M120.4,216.4c39.4-6.7,42.6-28.6,45.3-40.8l36.4-44.5c5.4-7,4.2-17-2.7-22.5c-6.7-5.3-16.5-4.3-22,2.2
				L146.1,149c0,0-8,1-12.8,4.5"/>
			<path class="st1" d="M120.4,219.4c-1.7,0.1-3.1-1.1-3.2-2.8s1.1-3.1,2.8-3.2c36-6.1,39.9-24.7,42.5-37.1l0.3-1.4
				c0.1-0.5,0.3-0.9,0.6-1.3l36.4-44.5c4.7-5.5,4-13.7-1.5-18.3s-13.7-4-18.3,1.5c-0.1,0.1-0.2,0.3-0.3,0.4l-31.3,38.1
				c-0.5,0.6-1.2,1-1.9,1.1c-0.1,0-7.3,1-11.4,4c-1.4,0.9-3.2,0.6-4.2-0.7c-0.9-1.3-0.6-3.2,0.7-4.1c4.2-3,10.4-4.4,12.9-4.8
				l30.6-37.3c6.8-8,18.8-8.9,26.8-2.1c7.7,6.6,8.9,18.1,2.6,26.1l-36,44l-0.1,0.7c-2.6,12.2-7.4,35-47.4,41.8
				C120.8,219.4,120.6,219.4,120.4,219.4z"/>
			<g class="st5">
				<path class="st6" d="M176.8,121.5l6-7.5c3.8-3.7,9.8-3.6,13.5,0.2c3.7,3.8,3.6,9.8-0.2,13.5l0,0l-5.1,6.1
					C184.7,131.3,179.4,127.7,176.8,121.5z"/>
			</g>
			<path class="st7" d="M190.2,133.4c1.9-4.6-0.3-10-4.9-11.9c-2.7-1.1-5.7-0.9-8.2,0.6C179.7,127.7,184.5,131.1,190.2,133.4z"/>
			<path class="st0" d="M135,141.5c6.7-1,13,3.4,13,3.4"/>
			<path class="st1" d="M148,147.9c-0.6,0-1.2-0.2-1.7-0.6c-0.1,0-5.4-3.7-10.9-2.9c-1.6,0.2-3.2-0.9-3.4-2.5s0.9-3.2,2.5-3.4
				c7.8-1.1,14.9,3.8,15.1,4c1.4,1,1.7,2.8,0.7,4.2C149.9,147.5,149,148,148,147.9L148,147.9z"/>
			<path class="st0" d="M169,134.7c0,0,3.3,4.1,10.9,8.5"/>
			<path class="st1" d="M179.9,145.2c-0.4,0-0.7-0.1-1-0.3c-7.9-4.6-11.3-8.8-11.5-9c-0.7-0.9-0.6-2.1,0.3-2.8s2.1-0.6,2.8,0.3l0,0
				c0,0,3.2,3.9,10.4,8.1c1,0.6,1.3,1.8,0.7,2.7c0,0,0,0,0,0C181.3,144.9,180.6,145.3,179.9,145.2z"/>
		</g>
	</g>
</g>
</svg>
