<?xml version="1.0" encoding="utf-8"?>
<!-- Generator: Adobe Illustrator 25.0.1, SVG Export Plug-In . SVG Version: 6.00 Build 0)  -->
<svg version="1.1" id="Layer_1" xmlns="http://www.w3.org/2000/svg" xmlns:xlink="http://www.w3.org/1999/xlink" x="0px" y="0px"
	 viewBox="0 0 314.9 259" style="enable-background:new 0 0 314.9 259;" xml:space="preserve">
<style type="text/css">
	.st0{fill:#B29D90;}
	.st1{fill:#515979;}
	.st2{fill:#9E8271;}
	.st3{fill:#7DDF96;}
	.st4{fill:#00C853;}
	.st5{opacity:0.4;}
	.st6{fill:#FFFFFF;}
	.st7{fill:#FDE4DD;}
</style>
<g>
	<g id="Layer_2_1_">
		<g id="Layer_1-2">
			<path class="st0" d="M267.1,309.1c-0.8,0-1.6-0.4-2.1-1l-80.2-86.7c-0.1-0.1-0.2-0.3-0.3-0.4l-32.7-50.2
				c-0.1-0.1-0.1-0.2-0.2-0.3l-29.2-59c-0.7-1.5-0.1-3.3,1.4-4c0.4-0.2,0.9-0.3,1.3-0.3h0.1c0.1,0,14,0.3,28.9,1.7
				c30.9,3,35.9,8,37.6,9.7c10.1,10.1,32.2,61.2,35,67.8l84.3,75.9c0.6,0.5,1,1.3,1,2.1c0,0.8-0.3,1.6-0.9,2.2l-41.7,41.7
				c-0.6,0.6-1.3,0.9-2.1,0.9H267.1z"/>
			<path class="st1" d="M125.1,110.1c0,0,54.9,1,64.4,10.5c10.2,10.2,34.6,67.4,34.6,67.4l84.8,76.3l-41.7,41.7L187,219.4
				l-32.7-50.2L125.1,110.1 M125.1,104.1c-3.3,0-6,2.7-6,6c0,0.9,0.2,1.8,0.6,2.7l29.2,59c0.1,0.2,0.2,0.4,0.4,0.6l32.7,50.2
				c0.2,0.3,0.4,0.6,0.6,0.8l80.2,86.7c1.1,1.2,2.7,1.9,4.3,1.9h0.1c1.6,0,3.1-0.6,4.2-1.8l41.7-41.7c2.3-2.3,2.3-6.1,0-8.5
				c-0.1-0.1-0.2-0.2-0.2-0.2l-83.9-75.5c-4.2-9.9-25.1-57.9-35.3-68.1c-3.2-3.2-10.8-7.8-39.4-10.5c-15-1.4-28.5-1.7-29.1-1.7
				L125.1,104.1z"/>
			<path class="st2" d="M144.2,163.6l-19.1-53.5c0,0,29.5,0.6,49,4.6l2.5,11.1c0.3,1.3-0.1,2.6-1,3.6L144.2,163.6z"/>
			<path class="st0" d="M154.1,195.1c-5.5,0-9.3-0.8-11.6-2.4c-6.4-4.5-8.1-18.4-8.3-20l-0.1-1.1l10.4-14.9l26.5,18.5l-8,19.4
				l-1.7,0.2C158.8,194.9,156.5,195,154.1,195.1L154.1,195.1z"/>
			<path class="st1" d="M145.1,160.8l22,15.4l-6.4,15.5c-2.2,0.2-4.4,0.4-6.7,0.4c-3.6,0-7.8-0.4-9.9-1.9
				c-5.5-3.9-7.1-17.9-7.1-17.9L145.1,160.8 M143.6,152.4l-3.4,4.9l-8,11.5l-1.3,1.9l0.2,2.2c0.4,3.9,2.4,17,9.6,22.1
				c2.9,2,7.2,3,13.4,3c2.5,0,4.9-0.1,7.4-0.4l3.5-0.4l1.3-3.2l6.4-15.5l1.9-4.4l-4-2.8l-22-15.4L143.6,152.4L143.6,152.4z"/>
			<path class="st2" d="M137.1,172.3c0,0,1.5,14,7.1,17.9c4.3,3,16.6,1.5,16.6,1.5l6.4-15.5l-22-15.4L137.1,172.3z"/>
			<path class="st0" d="M145.6,180.7c-2.2-0.1-13.7-1-18-5.3c-5.5-5.6-4.8-19.6-4.7-21.1l0.1-1.1l12.8-12.9l22.8,22.8l-11.3,17.6
				L145.6,180.7z"/>
			<path class="st1" d="M135.8,144.6l19,19l-9.1,14.1c0,0-12.4-0.7-16.1-4.4c-4.8-4.8-3.8-18.8-3.8-18.8L135.8,144.6 M135.8,136.1
				l-4.2,4.2l-9.9,9.9l-1.6,1.6l-0.2,2.2c-0.3,3.9-0.6,17.2,5.5,23.4c5,5,16.6,6,20,6.2l3.5,0.2l1.9-2.9l9-14.1l2.6-4.1l-3.4-3.5
				l-19-19L135.8,136.1L135.8,136.1z"/>
			<path class="st2" d="M125.9,154.5c0,0-0.9,14,3.8,18.8c3.7,3.7,16.1,4.4,16.1,4.4l9.1-14.1l-19-19L125.9,154.5z"/>
			<polygon class="st2" points="277.8,295.5 194.4,222.7 187,219.4 267.2,306.1 			"/>
			<path class="st3" d="M104.8,154.6c-0.4,0-0.8-0.1-1.2-0.3c-0.8-0.4-1.4-1-1.7-1.9C89.4,110.5,70.3,70.9,45.4,35
				c-0.9-1.4-0.6-3.2,0.8-4.2c0.1-0.1,0.3-0.2,0.4-0.2l56.8-27.3c1.3-0.6,2.9-0.2,3.8,1c25.2,36.4,44.6,76.6,57.3,119.1
				c0.4,1.4-0.2,2.9-1.6,3.6l-56.8,27.3C105.7,154.5,105.2,154.6,104.8,154.6z"/>
			<path class="st1" d="M104.6,6c25.1,36.2,44.3,76.1,56.9,118.2l-56.8,27.3C92.1,109.4,72.9,69.5,47.9,33.3L104.6,6 M104.6,0
				c-0.9,0-1.8,0.2-2.6,0.6L45.3,27.9c-3,1.4-4.2,5-2.8,8c0.1,0.3,0.3,0.6,0.5,0.8c24.7,35.7,43.6,75,56.1,116.5
				c0.8,2.5,3.1,4.3,5.8,4.3c0.9,0,1.8-0.2,2.6-0.6l26.7-12.9l30-14.5c2.7-1.3,4-4.3,3.1-7.1c-12.8-42.8-32.2-83.2-57.6-119.9
				C108.4,1,106.6,0,104.6,0z"/>
			<path class="st4" d="M98.2,55c10-4.8,21.2-4.5,29,0.2c-5.9-11.4-12.2-22.5-19.2-33.3c-5.4,2.4-11.7,0.6-15-4.2L65.7,30.8
				c2.8,4,1.9,9.5-2.1,12.3c-0.5,0.3-1,0.6-1.5,0.9C69,54.8,75.3,66,81.2,77.3C82.1,68.5,88.2,59.8,98.2,55z M81.1,43.3
				c-2.4-3.9-0.8-8.8,3.7-11s10.1-0.8,12.5,3.2s0.7,8.9-3.8,11S83.4,47.2,81.1,43.3z"/>
			<path class="st4" d="M151.3,111.6c-4.2-12.1-8.9-24-14.1-35.7c-1.3,9.1-8,18-18,22.8s-20.5,4.2-28.1-0.7
				c5.2,11.7,9.9,23.6,14.1,35.7c4.3-2.3,9.7-0.6,11.9,3.7c0.3,0.5,0.5,1.1,0.7,1.7l27.4-13.1C143.5,120.4,146.1,114.3,151.3,111.6z
				 M117.7,119.4c-1.6-4.3,0.7-9.5,5.2-11.7s9.4-0.4,11,3.9s-0.9,9.6-5.3,11.8S119.2,123.7,117.7,119.4z"/>
			<path class="st4" d="M107.4,82.3c1.4-0.7,1.2-2.3,0.2-5.2c-1.8-5.1-2.8-9.5,2.9-12.6c3.7-1.8,7.5-0.7,10.4,3.4l2.7-1.3
				c0.9,1.8,1.7,3.5,2.6,5.3l-2.7,1.3c0.9,2.9,0.2,6.1-1.8,8.4c-0.1,0.1-0.1,0.2-0.2,0.3c-0.2,0.2-0.4,0.5-0.6,0.7
				c-1.6-1.4-3.2-2.8-4.8-4.1l0.8-1c1.1-1.3,1.3-3.2,0.3-4.6c-1.2-2.5-2.3-3.3-3.8-2.6c-1.3,0.6-1.1,2.4,0,5.2
				c1.8,4.9,2.6,9.8-3.2,12.6c-3.8,1.8-7.5,0.6-10.4-3.5L96.9,86c-0.8-1.8-1.7-3.6-2.6-5.3l2.8-1.3c-1.2-3.7-0.6-6.8,1.8-9.3
				l0.9-0.9c1.5,1.4,3,2.9,4.6,4.4l-0.8,0.9c-1.2,1.3-1.2,2.9-0.3,5C104.5,82,105.8,83,107.4,82.3z"/>
			<path class="st3" d="M109.3,168.2c-0.2,0-0.4,0-0.6-0.1c-0.8-0.2-1.6-0.7-2-1.5C84.1,126.6,55.3,90.4,21.4,59.3
				c-1.2-1.1-1.3-3-0.2-4.2c0.1-0.1,0.2-0.2,0.3-0.3l51.9-41.2c1.2-0.9,2.8-0.9,3.9,0.1c34.4,31.5,63.6,68.3,86.5,108.9
				c0.7,1.3,0.4,2.9-0.7,3.8l-51.9,41.2C110.7,168,110,168.2,109.3,168.2z"/>
			<path class="st1" d="M75.3,15.8c34.1,31.3,63.1,67.8,85.9,108.2l-51.9,41.2C86.5,124.9,57.6,88.4,23.4,57.1L75.3,15.8 M75.3,9.8
				c-1.4,0-2.7,0.5-3.7,1.3L19.7,52.4c-2.6,2.1-3,5.8-1,8.4c0.2,0.2,0.4,0.5,0.6,0.7c33.7,30.9,62.3,66.9,84.7,106.7
				c0.9,1.5,2.3,2.6,4.1,2.9c0.4,0.1,0.8,0.1,1.2,0.1c1.4,0,2.7-0.5,3.7-1.3l24.3-19.3l27.6-21.9c2.3-1.8,3-5.1,1.5-7.7
				C143.4,80.1,114,43.1,79.4,11.4C78.3,10.4,76.9,9.8,75.3,9.8z"/>
			<path class="st4" d="M80.2,67.6c9.1-7.2,20.7-9.5,29.9-6.6c-8.7-10.3-17.8-20.2-27.4-29.7c-5,3.7-11.9,3.4-16.4-0.8L41.2,50.4
				c3.8,3.4,4.2,9.3,0.7,13.1c-0.4,0.5-0.9,0.9-1.4,1.3c9.6,9.5,18.7,19.4,27.4,29.7C66.8,85.2,71,74.9,80.2,67.6z M59.8,59.6
				c-3.4-3.5-2.8-8.8,1.2-12.1s10.2-3.1,13.6,0.3s2.7,9-1.3,12.2S63.2,63.1,59.8,59.6z"/>
			<path class="st4" d="M147.8,113.4c-7.1-11.5-14.7-22.6-22.8-33.4c0.8,9.6-4.1,20.4-13.2,27.6s-20.1,9-29,5.9
				c8.1,10.8,15.7,21.9,22.8,33.4c3.9-3.3,9.8-2.9,13.1,1.1c0.4,0.5,0.8,1,1.1,1.6l25-19.9C141.8,124.2,143.1,117.4,147.8,113.4z
				 M115.1,129.2c-2.6-4.1-1.5-9.9,2.6-13.2s9.6-2.6,12.2,1.4s1.3,10-2.7,13.3S117.7,133.3,115.1,129.2z"/>
			<path class="st4" d="M95.9,93.5c1.3-1,0.7-2.7-1-5.4c-3-4.9-5.1-9.1,0-13.6c3.4-2.7,7.6-2.4,11.4,1.1l2.5-2
				c1.3,1.6,2.6,3.2,3.9,4.9l-2.5,2c1.6,2.8,1.7,6.2,0.1,9c0,0.1-0.1,0.2-0.2,0.3c-0.2,0.3-0.3,0.6-0.5,0.9c-1.9-1-3.9-2.1-5.8-3.1
				c0.2-0.4,0.4-0.8,0.6-1.2c0.8-1.7,0.7-3-0.7-4.8c-1.8-2.3-3.1-2.9-4.5-1.8c-1.2,0.9-0.6,2.7,1.2,5.4c3,4.7,5,9.4-0.3,13.6
				c-3.5,2.8-7.6,2.3-11.5-1.1L86,99.7c-1.3-1.6-2.6-3.3-3.9-4.9l2.5-2c-2.1-3.6-2.2-6.9-0.3-10l0.7-1.1c1.9,1.1,3.8,2.3,5.7,3.4
				L90,86.3c-0.9,1.6-0.6,3.3,0.9,5.1C92.8,93.9,94.5,94.6,95.9,93.5z"/>
			<path class="st3" d="M115.2,180.8c-0.9,0-1.7-0.4-2.3-1.1C82,142.4,45.3,110.2,4.4,84.3c-1.4-0.9-1.8-2.7-0.9-4.1
				c0.1-0.1,0.2-0.3,0.3-0.4l46.1-52.4c0.6-0.6,1.4-1,2.3-1c0.6,0,1.1,0.2,1.6,0.5c41.5,26.2,78.6,58.8,109.9,96.6
				c0.9,1.1,0.9,2.8-0.1,3.9l-46.1,52.4C116.9,180.4,116,180.8,115.2,180.8L115.2,180.8z"/>
			<path class="st1" d="M52.1,29.4c41.2,26.1,78.1,58.5,109.2,96l-46.1,52.4c-31.1-37.5-68-69.9-109.2-96L52.1,29.4 M52.1,23.4
				c-1.7,0-3.4,0.7-4.5,2L1.5,77.8c-2.2,2.5-1.9,6.3,0.6,8.5c0.2,0.2,0.5,0.4,0.7,0.5c40.7,25.7,77.1,57.7,107.8,94.8
				c1.1,1.4,2.8,2.1,4.5,2.2h0.1c1.7,0,3.4-0.7,4.5-2l46.1-52.4c1.9-2.2,2-5.5,0.1-7.8C134.4,83.5,97,50.7,55.3,24.3
				C54.3,23.7,53.2,23.4,52.1,23.4z"/>
			<path class="st4" d="M66.7,82.1c8.1-9.1,19.6-13.7,29.7-12.4c-10.9-9.1-22.2-17.6-33.9-25.7c-4.4,4.8-11.7,5.7-17.2,2.2
				L23.1,71.6c4.6,2.8,6,8.9,3.2,13.5c-0.3,0.5-0.7,1.1-1.2,1.5c11.7,8,23,16.6,33.9,25.7C56.2,102.8,58.6,91.3,66.7,82.1z
				 M44.2,77.7c-4.2-3-4.6-8.6-1-12.8s10-5.2,14.1-2.2s4.5,8.8,0.9,12.9S48.3,80.6,44.2,77.7z"/>
			<path class="st4" d="M145.4,116.9c-9.5-10.6-19.4-20.7-29.8-30.4c2.6,9.8-0.4,21.9-8.5,31s-19.2,13.1-28.9,11.5
				c10.4,9.6,20.3,19.8,29.8,30.4c3.4-4.2,9.6-4.8,13.8-1.3c0.5,0.4,1,0.9,1.4,1.4l22.2-25.3C141.2,129.2,141.2,121.9,145.4,116.9z
				 M114.4,139.4c-3.5-3.7-3.4-10,0.2-14.2s9.4-4.5,12.9-0.8c3.5,3.7,3.3,10.2-0.3,14.3S117.9,143.1,114.4,139.4L114.4,139.4z"/>
			<path class="st4" d="M87.9,106c1.2-1.3,0.3-2.9-2.1-5.4c-4-4.5-7-8.4-2.5-14.1c3-3.4,7.4-3.9,12-1l2.3-2.5
				c1.7,1.4,3.3,2.9,4.9,4.3l-2.2,2.5c2.2,2.6,2.9,6.1,1.8,9.3c0,0.1-0.1,0.3-0.1,0.4c-0.1,0.3-0.2,0.7-0.3,1
				c-2.2-0.7-4.4-1.4-6.6-2.2c0.1-0.5,0.2-0.9,0.3-1.4c0.5-1.9,0.2-3.2-1.6-4.8c-2.3-2.1-3.8-2.4-5-1c-1.1,1.2-0.1,2.9,2.2,5.3
				c3.9,4.3,6.9,8.8,2.2,14.2c-3.1,3.5-7.4,3.8-12.2,1l-2.3,2.6c-1.6-1.4-3.3-2.9-4.9-4.3l2.2-2.6c-2.8-3.3-3.5-6.7-2.2-10.2
				c0.2-0.4,0.3-0.9,0.5-1.3c2.2,0.8,4.4,1.7,6.5,2.5c-0.1,0.4-0.3,0.9-0.4,1.3c-0.7,1.8,0,3.5,1.9,5.2
				C84.8,107,86.6,107.4,87.9,106z"/>
			<path class="st0" d="M194.4,222.7c-39.4-6.7-42.6-28.6-45.3-40.8l-36.4-44.5c-5.6-6.8-4.6-16.9,2.2-22.5s16.9-4.6,22.5,2.2
				l31.3,38.1c0,0,8,1,12.8,4.5"/>
			<path class="st1" d="M194.4,225.7c-0.2,0-0.3,0-0.5,0c-40-6.8-44.8-29.5-47.4-41.8l-0.1-0.7l-36-43.9c-6.6-8.1-5.5-20.1,2.7-26.7
				c0,0,0,0,0,0c8.1-6.6,20.1-5.5,26.7,2.7c0,0,0,0,0,0l30.6,37.3c2.6,0.5,8.7,1.8,12.9,4.8c1.4,0.9,1.7,2.8,0.7,4.2
				c-0.9,1.4-2.8,1.7-4.2,0.7c0,0,0,0-0.1,0c-4.1-3-11.4-3.9-11.4-3.9c-0.8-0.1-1.4-0.5-1.9-1.1L135.2,119
				c-4.5-5.6-12.7-6.4-18.3-1.8c-5.6,4.5-6.4,12.7-1.8,18.3l36.4,44.5c0.3,0.4,0.5,0.8,0.6,1.3l0.3,1.4c2.6,12.3,6.6,31,42.6,37.1
				c1.6,0.3,2.7,1.9,2.4,3.5C197.1,224.7,195.9,225.7,194.4,225.7L194.4,225.7z"/>
			<g class="st5">
				<path class="st6" d="M138.1,127.8l-6-7.5c-3.8-3.7-9.8-3.6-13.5,0.2s-3.6,9.8,0.2,13.5l0,0l5.1,6.1
					C130.2,137.6,135.5,134,138.1,127.8z"/>
			</g>
			<g>
				<path class="st6" d="M124.7,139.7c-1.9-4.6,0.3-10,5-11.9c2.7-1.1,5.7-0.9,8.2,0.6C135.2,134,130.4,137.4,124.7,139.7z"/>
			</g>
			<path class="st7" d="M179.9,147.8c-6.7-1-13,3.4-13,3.4"/>
			<path class="st1" d="M166.9,154.2c-1.7,0-3-1.3-3-3c0-1,0.5-1.9,1.3-2.4c0.3-0.2,7.3-5.1,15.1-4c1.6,0.2,2.8,1.8,2.5,3.4
				s-1.8,2.8-3.4,2.5c-5.4-0.8-10.8,2.9-10.8,2.9C168.1,154,167.5,154.2,166.9,154.2z"/>
			<path class="st7" d="M145.9,141c0,0-3.3,4.1-10.9,8.5"/>
			<path class="st1" d="M135,151.5c-1.1,0-2-0.9-2-2c0-0.7,0.4-1.3,1-1.7c7.2-4.2,10.3-8,10.4-8.1c0.7-0.9,2-1,2.8-0.3c0,0,0,0,0,0
				c0.9,0.7,1,2,0.3,2.8c-0.1,0.2-3.6,4.4-11.5,9C135.7,151.4,135.4,151.5,135,151.5z"/>
		</g>
	</g>
</g>
</svg>
