<?xml version="1.0" encoding="utf-8"?>
<!-- Generator: Adobe Illustrator 25.0.0, SVG Export Plug-In . SVG Version: 6.00 Build 0)  -->
<svg version="1.1" id="Layer_1" xmlns="http://www.w3.org/2000/svg" xmlns:xlink="http://www.w3.org/1999/xlink" x="0px" y="0px"
	 viewBox="0 0 147.5 150" style="enable-background:new 0 0 147.5 150;" xml:space="preserve">
<style type="text/css">
	.st0{fill:#8AC5DC;}
	.st1{fill:#FEDA9B;}
	.st2{fill:#7FB8C9;}
	.st3{fill:#FFCF66;}
	.st4{fill:#B7C0D7;}
	.st5{fill:#57B7EB;}
	.st6{fill:#A7AFC1;}
	.st7{fill:#AAE1F9;}
	.st8{fill:#FFE4CF;}
	.st9{fill:#F89C8D;}
	.st10{fill:#F8664F;}
	.st11{fill:#E8CFBF;}
	.st12{fill:#CC5144;}
	.st13{fill:#B4DF80;}
	.st14{fill:#9ED26A;}
	.st15{fill:#35414D;}
</style>
<g id="Fill_Outline_2_">
	<path class="st0" d="M9,78.7h69.7v54.8H9V78.7z"/>
	<path class="st1" d="M1.6,133.5h84.6l0,0v5c0,5.5-4.5,10-10,10H11.5c-5.5,0-10-4.5-10-10V133.5L1.6,133.5z"/>
	<path class="st2" d="M19,98.7V78.7H9v54.8h69.7v-10H43.9C30.1,123.5,19,112.4,19,98.7z"/>
	<path class="st3" d="M16.5,141c-4.1,0-7.5-3.3-7.5-7.5l0,0H1.6v5c0,5.5,4.5,10,10,10h64.7c4.5,0,8.5-3.1,9.6-7.5H16.5z"/>
	<path class="st4" d="M111.1,81.2H141c2.7,0,5,2.2,5,5v29.9c0,2.7-2.2,5-5,5h-29.9c-2.7,0-5-2.2-5-5V86.2
		C106.1,83.5,108.3,81.2,111.1,81.2z"/>
	<circle class="st5" cx="126" cy="101.1" r="7.5"/>
	<path class="st6" d="M113.6,93.7V81.2h-2.5c-2.7,0-5,2.2-5,5v29.9c0,2.7,2.2,5,5,5H141c2.7,0,5-2.2,5-5v-2.5h-12.4
		C122.5,113.6,113.6,104.7,113.6,93.7z"/>
	<circle class="st7" cx="128.5" cy="98.7" r="2.5"/>
	<path class="st8" d="M1.6,26.5h29.9v39.8H1.6V26.5z"/>
	<circle class="st9" cx="61.3" cy="21.5" r="19.9"/>
	<path class="st7" d="M56.3,28.9V14l14.9,7.5L56.3,28.9z"/>
	<path class="st10" d="M68.8,33.9c-11,0-19.9-8.9-19.9-19.9c0-3.5,0.9-6.8,2.6-9.8C42,9.7,38.8,21.9,44.4,31.4s17.8,12.7,27.3,7.1
		c2.9-1.7,5.4-4.2,7.1-7.1C75.7,33.1,72.3,34,68.8,33.9z"/>
	<path class="st0" d="M111.1,4H141c2.7,0,5,2.2,5,5v29.9c0,2.7-2.2,5-5,5h-29.9c-2.7,0-5-2.2-5-5V9C106.1,6.3,108.3,4,111.1,4z"/>
	<path class="st2" d="M113.6,16.5V4h-2.5c-2.7,0-5,2.2-5,5v29.9c0,2.7,2.2,5,5,5H141c2.7,0,5-2.2,5-5v-2.5h-12.4
		C122.5,36.4,113.6,27.5,113.6,16.5z"/>
	<path class="st11" d="M9,43.9V26.5H1.6v39.8h29.9v-7.5H24C15.7,58.8,9,52.1,9,43.9z"/>
	<path class="st10" d="M41.5,104l8.6-5l0,0l10,17.2c1.4,2.4,0.6,5.4-1.8,6.8c-2.4,1.4-5.4,0.6-6.8-1.8L41.5,104L41.5,104z"/>
	<path class="st12" d="M56.5,110L50.2,99l-8.6,5l5.9,10.2l4.3-2.5L56.5,110z"/>
	<path class="st13" d="M94.3,90.8l-42.5,15.9L39.3,85.2l35.1-28.9L94.3,90.8z"/>
	<path class="st9" d="M28.5,91.4l10.8-6.2l0,0l12.4,21.6l0,0L41,113c-3.6,2.1-8.1,0.8-10.2-2.7l-5-8.6C23.7,98.1,25,93.5,28.5,91.4z
		"/>
	<path class="st12" d="M21.5,104.1l4.3-2.5l0,0l5,8.6l0,0l-4.3,2.5c-2.4,1.4-5.4,0.6-6.8-1.8C18.3,108.5,19.1,105.5,21.5,104.1z"/>
	<path class="st14" d="M54.6,99.1c-0.3,0.1-0.5,0.2-0.7,0.3l-4.8,2.7l2.6,4.5l42.5-15.9l-3.1-5.4L54.6,99.1z"/>
	<path class="st10" d="M47.8,103c-6,3.4-13.6,1.3-17-4.6c-1.3-2.2-1.8-4.8-1.6-7.4l-0.7,0.4c-3.6,2.1-4.8,6.6-2.7,10.2c0,0,0,0,0,0
		l5,8.6c2.1,3.6,6.6,4.8,10.2,2.7c0,0,0,0,0,0l10.8-6.2l-2.6-4.5L47.8,103z"/>
	<path class="st15" d="M11.5,150C5.2,150,0,144.8,0,138.5v-5c0-0.9,0.7-1.6,1.6-1.6h5.9V78.7c0-0.9,0.7-1.6,1.6-1.6h23.2
		c0.9,0,1.6,0.7,1.6,1.6c0,0.9-0.7,1.6-1.6,1.6H10.6V132h66.6v-25.3c0-0.9,0.7-1.6,1.6-1.6c0.9,0,1.6,0.7,1.6,1.6V132h5.9
		c0.9,0,1.6,0.7,1.6,1.6v5c0,6.3-5.2,11.5-11.5,11.5H11.5z M68.8,141.9c0.9,0,1.6,0.7,1.6,1.6v3.4h5.9c4.6,0,8.4-3.8,8.4-8.4v-3.4
		H3.1v3.4c0,4.6,3.8,8.4,8.4,8.4h5.9v-3.4c0-0.9,0.7-1.6,1.6-1.6s1.6,0.7,1.6,1.6v3.4h46.7v-3.4C67.2,142.6,67.9,141.9,68.8,141.9z"
		/>
	<path class="st15" d="M123.5,35.5c-0.9,0-1.6-0.7-1.6-1.6v-8.4h-3.4c-0.9,0-1.6-0.7-1.6-1.6s0.7-1.6,1.6-1.6h3.4V19
		c0-3.6,2.9-6.5,6.5-6.5h5c0.9,0,1.6,0.7,1.6,1.6s-0.7,1.6-1.6,1.6h-5c-1.9,0-3.4,1.5-3.4,3.4v3.4h3.4c0.9,0,1.6,0.7,1.6,1.6
		s-0.7,1.6-1.6,1.6h-3.4v8.4C125.1,34.8,124.4,35.5,123.5,35.5z"/>
	<path class="st15" d="M111.1,45.4c-3.6,0-6.5-2.9-6.5-6.5V24c0-0.9,0.7-1.6,1.6-1.6c0.9,0,1.6,0.7,1.6,1.6v14.9
		c0,1.9,1.5,3.4,3.4,3.4H141c1.9,0,3.4-1.5,3.4-3.4V9c0-1.9-1.5-3.4-3.4-3.4h-29.9c-1.9,0-3.4,1.5-3.4,3.4v5c0,0.9-0.7,1.6-1.6,1.6
		c-0.9,0-1.6-0.7-1.6-1.6V9c0-3.6,2.9-6.5,6.5-6.5H141c3.6,0,6.5,2.9,6.5,6.5v29.9c0,3.6-2.9,6.5-6.5,6.5H111.1z"/>
	<path class="st15" d="M126,110.2c-5,0-9-4-9-9c0-5,4-9,9-9c5,0,9,4,9,9C135.1,106.1,131,110.2,126,110.2z M126,95.2
		c-3.3,0-5.9,2.7-5.9,5.9c0,3.3,2.7,5.9,5.9,5.9c3.3,0,5.9-2.7,5.9-5.9C132,97.9,129.3,95.2,126,95.2z"/>
	<path class="st15" d="M111.1,122.6c-3.6,0-6.5-2.9-6.5-6.5V86.2c0-3.6,2.9-6.5,6.5-6.5H141c3.6,0,6.5,2.9,6.5,6.5v14.9
		c0,0.9-0.7,1.6-1.6,1.6c-0.9,0-1.6-0.7-1.6-1.6V86.2c0-1.9-1.5-3.4-3.4-3.4h-29.9c-1.9,0-3.4,1.5-3.4,3.4v29.9
		c0,1.9,1.5,3.4,3.4,3.4H141c1.9,0,3.4-1.5,3.4-3.4v-5c0-0.9,0.7-1.6,1.6-1.6c0.9,0,1.6,0.7,1.6,1.6v5c0,3.6-2.9,6.5-6.5,6.5H111.1z
		"/>
	<path class="st15" d="M56.3,30.5c-0.3,0-0.6-0.1-0.8-0.2c-0.5-0.3-0.7-0.8-0.7-1.3V14c0-0.2,0.1-0.5,0.2-0.7
		c0.3-0.5,0.8-0.9,1.4-0.9c0.2,0,0.5,0.1,0.7,0.2L72,20.1c0.3,0.1,0.5,0.4,0.7,0.7c0.4,0.8,0.1,1.7-0.7,2.1L57,30.3
		C56.8,30.4,56.6,30.5,56.3,30.5L56.3,30.5z M57.9,26.4l9.9-4.9l-9.9-4.9V26.4z"/>
	<path class="st15" d="M61.3,42.9c-11.8,0-21.5-9.6-21.5-21.5S49.5,0,61.3,0s21.5,9.6,21.5,21.5S73.1,42.9,61.3,42.9z M61.3,3.1
		c-10.1,0-18.4,8.2-18.4,18.4s8.2,18.4,18.4,18.4s18.4-8.2,18.4-18.4S71.4,3.1,61.3,3.1z"/>
	<path class="st15" d="M86.2,52.9c-0.3,0-0.7-0.1-0.9-0.3c-0.3-0.2-0.5-0.6-0.6-1c-0.1-0.4,0-0.8,0.3-1.2l7.5-10
		c0.3-0.4,0.8-0.6,1.2-0.6c0.3,0,0.7,0.1,0.9,0.3c0.7,0.5,0.8,1.5,0.3,2.2l-7.5,10C87.2,52.7,86.7,52.9,86.2,52.9z"/>
	<path class="st15" d="M93.7,62.9c-0.5,0-1-0.2-1.2-0.6c-0.5-0.7-0.4-1.7,0.3-2.2l10-7.5c0.3-0.2,0.6-0.3,0.9-0.3
		c0.5,0,1,0.2,1.2,0.6c0.2,0.3,0.4,0.7,0.3,1.2c-0.1,0.4-0.3,0.8-0.6,1l-10,7.5C94.3,62.8,94,62.9,93.7,62.9z"/>
	<path class="st15" d="M100.9,72.8c-0.8,0-1.5-0.6-1.6-1.4c0-0.4,0.1-0.8,0.3-1.1s0.6-0.5,1.1-0.6l0,0l12.6-2.5c0.1,0,0.2,0,0.3,0
		c0.8,0,1.4,0.5,1.5,1.3l0,0.1c0.1,0.4,0,0.8-0.3,1.2c-0.2,0.3-0.6,0.6-1,0.6l-12.4,2.5h-0.5l0,0C101,72.8,100.9,72.8,100.9,72.8z"
		/>
	<path class="st15" d="M1.6,67.8c-0.9,0-1.6-0.7-1.6-1.6V26.5c0-0.9,0.7-1.6,1.6-1.6h29.9c0.9,0,1.6,0.7,1.6,1.6v39.8
		c0,0.9-0.7,1.6-1.6,1.6H1.6z M3.1,64.7h26.8V28H3.1V64.7z"/>
	<path class="st15" d="M16.5,38c-0.9,0-1.6-0.7-1.6-1.6s0.7-1.6,1.6-1.6h5c0.9,0,1.6,0.7,1.6,1.6S22.3,38,21.5,38H16.5z"/>
	<path class="st15" d="M11.5,47.9c-0.9,0-1.6-0.7-1.6-1.6s0.7-1.6,1.6-1.6h10c0.9,0,1.6,0.7,1.6,1.6s-0.7,1.6-1.6,1.6H11.5z"/>
	<path class="st15" d="M11.5,57.9c-0.9,0-1.6-0.7-1.6-1.6s0.7-1.6,1.6-1.6h10c0.9,0,1.6,0.7,1.6,1.6s-0.7,1.6-1.6,1.6H11.5z"/>
	<path class="st15" d="M55.9,125.3c-2.3,0-4.5-1.3-5.7-3.3l-5.4-9.4l-3,1.7c-1.4,0.8-2.9,1.2-4.5,1.2l-0.1,0c-0.8,0-1.5-0.1-2.3-0.3
		c-1.5-0.4-2.9-1.2-3.9-2.3l-0.5-0.5l-3.1,1.8c-1,0.6-2.1,0.9-3.3,0.9c-0.6,0-1.2-0.1-1.7-0.2c-1.7-0.4-3.1-1.6-4-3.1
		c-0.9-1.5-1.1-3.3-0.6-5c0.5-1.7,1.5-3.1,3.1-4l3.1-1.8l-0.2-0.7c-1.1-4,0.6-8.2,4.2-10.2l10.7-6.2l34.9-28.8
		c0.3-0.2,0.6-0.4,1-0.4c0.1,0,0.2,0,0.3,0c0.5,0.1,0.9,0.4,1.1,0.7l2.5,4.3c0.2,0.4,0.3,0.8,0.2,1.2c-0.1,0.4-0.4,0.7-0.7,0.9
		c-0.2,0.1-0.5,0.2-0.8,0.2c-0.6,0-1.1-0.3-1.4-0.8L74,58.7l-32.7,27l6.8,11.8c0.1,0.2,0.2,0.5,0.2,0.8c0,0.9-0.7,1.5-1.6,1.5
		c-0.6,0-1.1-0.3-1.4-0.8l-6.7-11.6l-9.4,5.4c-2.7,1.6-3.7,5-2.2,7.8l5,8.7c0.8,1.4,2.1,2.3,3.6,2.7c0.5,0.1,1,0.2,1.5,0.2
		c1,0,2.1-0.3,3-0.8l4.3-2.5l6.3-3.6H51L92,90l-11.5-20c-0.4-0.7-0.2-1.7,0.6-2.1c0.2-0.1,0.5-0.2,0.8-0.2c0.6,0,1.1,0.3,1.4,0.8
		L95.6,90c0.2,0.4,0.3,0.9,0.1,1.3c-0.2,0.4-0.5,0.8-0.9,0.9l-38.4,14.4l5.1,8.9c0.9,1.5,1.1,3.2,0.6,4.9c-0.5,1.7-1.5,3.1-3,4
		C58.1,125,57,125.3,55.9,125.3C55.9,125.3,55.9,125.3,55.9,125.3z M47.4,111.1l5.4,9.5c0.6,1,1.7,1.7,3,1.7c0.6,0,1.2-0.2,1.7-0.5
		c0.8-0.4,1.4-1.2,1.6-2.1c0.2-0.9,0.1-1.8-0.3-2.6l-5.2-9h-1L47.4,111.1z M22.3,105.5c-0.8,0.4-1.4,1.2-1.6,2.1
		c-0.2,0.9-0.1,1.8,0.3,2.6c0.5,0.8,1.2,1.4,2.1,1.6c0.3,0.1,0.6,0.1,0.9,0.1c0.6,0,1.2-0.2,1.7-0.5l3-1.7l-3.4-5.9L22.3,105.5z"/>
</g>
</svg>
