<svg width="96" height="145" viewBox="0 0 96 145" fill="none" xmlns="http://www.w3.org/2000/svg">
<g clip-path="url(#clip0_1118_8148)">
<mask id="mask0_1118_8148" style="mask-type:luminance" maskUnits="userSpaceOnUse" x="21" y="0" width="54" height="77">
<path d="M74.847 0H21.1523V77H74.847V0Z" fill="white"/>
</mask>
<g mask="url(#mask0_1118_8148)">
<path d="M46.82 22.1761H46.7173V19.8147H59.8587C64.992 19.8147 69.304 15.7081 69.304 10.5747C69.4067 5.33873 65.1973 1.12939 59.9613 1.12939H50.9267C44.4587 1.12939 39.2227 6.36539 39.2227 12.8334V33.4694L50.7213 40.9641C53.4933 42.7094 55.136 45.7894 55.136 49.0747C55.136 53.5921 51.44 57.2881 46.9227 57.2881L39.2227 62.8321V70.4294L46.9227 75.9734C61.7067 75.9734 73.8213 63.9614 73.8213 49.0747C73.8213 34.1881 61.7067 22.1761 46.82 22.1761Z" fill="#FF8F71"/>
</g>
<mask id="mask1_1118_8148" style="mask-type:luminance" maskUnits="userSpaceOnUse" x="21" y="0" width="54" height="77">
<path d="M74.847 0H21.1523V77H74.847V0Z" fill="white"/>
</mask>
<g mask="url(#mask1_1118_8148)">
<path d="M46.8174 57.1856C43.9427 57.1856 41.1707 55.6456 39.7334 53.0789C37.1667 48.6642 31.4174 47.1242 27.0027 49.6909C22.5881 52.2576 21.0481 58.0069 23.6147 62.4216C28.3374 70.7376 37.2694 75.8709 46.8174 75.8709C41.6841 70.7376 41.6841 62.3189 46.8174 57.1856Z" fill="#FF6F4D"/>
</g>
<path d="M45.5884 31.0054C43.227 30.2867 41.5844 28.1307 41.5844 25.6667V10.4721C41.5844 5.33873 45.7937 1.12939 50.927 1.12939H37.375C32.2417 1.12939 28.0324 5.33873 28.0324 10.4721C28.0324 32.6481 27.9297 31.6214 27.9297 31.6214C28.0324 36.7547 32.2417 40.8614 37.375 40.8614H46.8204C51.3377 40.8614 55.0337 44.5574 55.0337 49.0747V43.8387C55.0337 37.7814 51.0297 32.6481 45.5884 31.0054Z" fill="#FF6F4D"/>
<path d="M51.3371 11.396H45.4851C43.8425 11.396 42.5078 12.628 42.5078 15.2973C42.5078 18.3773 44.1505 21.6627 45.9985 21.0467C46.5118 22.2787 47.4358 23.1 48.3598 23.1C49.3865 23.1 50.2078 22.2787 50.7211 21.0467C52.5691 21.6627 54.2118 18.2747 54.2118 15.2973C54.3145 12.628 52.9798 11.396 51.3371 11.396Z" fill="#FFCE71"/>
<mask id="mask2_1118_8148" style="mask-type:luminance" maskUnits="userSpaceOnUse" x="21" y="0" width="54" height="77">
<path d="M74.847 0H21.1523V77H74.847V0Z" fill="white"/>
</mask>
<g mask="url(#mask2_1118_8148)">
<path d="M56.5734 14.0653C56.368 13.2439 56.06 12.4226 55.6494 11.6013C54.6227 9.75327 52.8774 8.4186 50.7214 8.00793C49.7974 7.8026 48.8734 8.21327 48.36 8.93193C47.8467 8.21327 47.0254 7.8026 46.1014 8.00793C43.9454 8.4186 42.2 9.75327 41.1734 11.6013C40.7627 12.4226 40.4547 13.2439 40.2494 14.0653C39.8387 15.5026 40.968 16.8373 42.4054 16.8373C43.432 16.8373 44.356 16.1186 44.5614 15.1946C44.664 14.6813 44.8694 14.1679 45.1774 13.6546C45.4854 12.9359 46.204 12.5253 47.0254 12.3199C47.6414 12.2173 48.1547 11.8066 48.4627 11.3959C48.7707 11.9093 49.284 12.2173 49.9 12.3199C50.7214 12.4226 51.3374 12.9359 51.748 13.6546C51.9534 14.1679 52.1587 14.6813 52.364 15.1946C52.5694 16.2213 53.4934 16.8373 54.52 16.8373C55.9574 16.8373 56.984 15.5026 56.5734 14.0653Z" fill="#FCE3A0"/>
</g>
<mask id="mask3_1118_8148" style="mask-type:luminance" maskUnits="userSpaceOnUse" x="21" y="0" width="54" height="77">
<path d="M74.847 0H21.1523V77H74.847V0Z" fill="white"/>
</mask>
<g mask="url(#mask3_1118_8148)">
<path d="M66.0181 1.95067C64.2728 0.616 62.2195 0 59.9608 0H37.3741C31.6248 0 26.9021 4.72267 26.9021 10.472V31.6213C27.0048 37.3707 31.6248 41.9907 37.4768 41.9907H46.8195C50.7208 41.9907 53.9035 45.1733 53.9035 49.0747C53.9035 52.976 50.7208 56.1587 46.8195 56.1587C44.3555 56.1587 41.9941 54.824 40.6595 52.668C37.7848 47.74 31.4195 45.892 26.3888 48.8693C21.4608 51.744 19.6128 58.1093 22.5901 63.14C24.3355 66.22 26.6968 68.7867 29.3661 71.0453C29.8795 71.456 30.5981 71.3533 30.9061 70.84C31.3168 70.3267 31.2141 69.608 30.7008 69.3C28.1341 67.2467 26.0808 64.8853 24.4381 62.0107C22.0768 58.0067 23.6168 52.976 27.4155 50.82C31.4195 48.5613 36.4501 49.9987 38.6061 53.7973C40.2488 56.672 43.3288 58.4173 46.7168 58.4173C51.8501 58.4173 56.0595 54.208 56.0595 49.0747C56.0595 43.9413 51.9528 39.732 46.8195 39.732H37.3741C32.4461 39.732 28.9555 35.5227 29.0581 31.6213V10.472C29.0581 5.95467 32.7541 2.25867 37.2715 2.25867H59.9608C61.7061 2.25867 63.3488 2.772 64.6835 3.79867C65.2995 4.10667 65.9155 4.004 66.3261 3.49067C66.6341 2.97733 66.5315 2.25867 66.0181 1.95067Z" fill="#35414D"/>
</g>
<path d="M52.9772 21.6627C53.2852 21.4574 53.4905 21.252 53.6959 20.944H59.9585C67.8639 20.944 72.9972 12.628 69.4039 5.64669C68.9932 5.13335 68.3772 4.92802 67.7612 5.23602C67.2479 5.44135 67.0425 6.16002 67.3505 6.67335C70.1225 12.1147 66.2212 18.6854 59.8559 18.6854H54.8252C54.9279 18.48 55.0305 18.172 55.0305 17.9667C56.8785 17.6587 58.2132 15.708 57.6999 13.7574C56.6732 9.75335 54.1065 7.49469 50.9239 6.87869C50.1025 6.67335 49.1785 6.87869 48.4599 7.39202C47.7412 6.87869 46.8172 6.67335 45.9959 6.87869C42.8132 7.49469 40.2465 9.75335 39.2199 13.7574C38.7065 15.708 39.9385 17.556 41.8892 17.9667C42.2999 19.5067 43.1212 21.1494 44.3532 21.868C44.7639 22.0734 45.0719 22.2787 45.4825 22.2787C46.8172 24.4347 48.9732 24.8454 50.5132 23.5107C63.1412 25.256 72.6892 36.1387 72.6892 48.972C72.6892 63.14 61.1905 74.7414 46.9199 74.7414C42.6079 74.7414 38.2959 73.612 34.4972 71.5587C33.9839 71.2507 33.2652 71.456 32.9572 71.9694C32.6492 72.4827 32.8545 73.2014 33.3679 73.5094C37.4745 75.768 42.1972 77 46.9199 77C62.3199 77 74.9479 64.4747 74.9479 48.972C74.8452 35.9334 65.8105 24.4347 52.9772 21.6627ZM41.2732 14.3734C41.4785 13.552 41.7865 12.8334 42.0945 12.1147C42.9159 10.5747 44.4559 9.44535 46.3039 9.13735C46.6119 9.03469 46.9199 9.13736 47.1252 9.34269C47.8439 9.85602 48.8705 9.85602 49.5892 9.34269C49.7945 9.13736 50.1025 9.13735 50.4105 9.13735C52.2585 9.44535 53.6959 10.5747 54.6199 12.1147C55.0305 12.8334 55.2359 13.552 55.4412 14.3734C55.6465 15.092 55.0305 15.9134 54.2092 15.708C53.7985 15.6054 53.3879 15.2974 53.2852 14.8867C52.7719 13.0387 51.8479 11.6014 49.9999 11.1907C49.8972 11.1907 49.6919 11.088 49.5892 10.9854C48.8705 10.472 47.8439 10.472 47.1252 10.9854C47.0225 11.088 46.8172 11.088 46.7145 11.1907C44.7639 11.4987 43.8399 13.0387 43.4292 14.8867C43.3265 15.4 42.8132 15.708 42.4025 15.708C41.6839 15.708 41.0679 15.092 41.2732 14.3734ZM47.0225 20.636C46.8172 20.1227 46.2012 19.8147 45.6879 20.02C45.6879 20.02 45.5852 20.02 45.3799 19.9174C44.8665 19.6094 44.3532 18.788 44.0452 17.556C44.8665 17.1454 45.4825 16.4267 45.6879 15.5027C45.7905 15.092 45.9959 14.6814 46.2012 14.2707C46.4065 13.86 46.8172 13.6547 47.2279 13.552C47.6385 13.4494 48.0492 13.3467 48.4599 13.0387C48.8705 13.244 49.2812 13.4494 49.6919 13.552C50.1025 13.6547 50.5132 13.9627 50.7185 14.2707C50.9239 14.6814 51.1292 15.092 51.2319 15.5027C51.4372 16.4267 52.0532 17.1454 52.8745 17.556C52.5665 18.788 51.9505 19.6094 51.5399 19.9174C51.3345 20.02 51.2319 20.02 51.2319 20.02C50.7185 19.8147 50.1025 20.1227 49.8972 20.636C49.5892 21.4574 48.9732 21.9707 48.5625 21.9707C47.9465 22.0734 47.4332 21.4574 47.0225 20.636Z" fill="#35414D"/>
<path d="M37.8867 8.00824V9.85624C37.8867 10.4722 38.4001 10.9856 39.0161 10.9856C39.6321 10.9856 40.1454 10.4722 40.1454 9.85624V8.00824C40.1454 7.39224 39.6321 6.87891 39.0161 6.87891C38.4001 6.87891 37.8867 7.39224 37.8867 8.00824Z" fill="#35414D"/>
<path d="M56.6758 8.00824V9.85624C56.6758 10.4722 57.1891 10.9856 57.8051 10.9856C58.4211 10.9856 58.9344 10.4722 58.9344 9.85624V8.00824C58.9344 7.39224 58.4211 6.87891 57.8051 6.87891C57.1891 6.87891 56.6758 7.39224 56.6758 8.00824Z" fill="#35414D"/>
</g>
<g clip-path="url(#clip1_1118_8148)">
<path fill-rule="evenodd" clip-rule="evenodd" d="M78.9031 109.4C78.9031 109.5 78.9031 109.6 78.8031 109.7C78.8031 109.8 78.6031 109.9 78.5031 109.9C78.3031 110 78.1031 110 77.7031 110C77.4031 110 76.9031 110 76.3031 110C75.8031 110 75.4031 110 75.1031 110C74.8031 110 74.6031 109.9 74.4031 109.9C74.2031 109.8 74.1031 109.8 74.0031 109.7C73.9031 109.6 73.9031 109.5 73.8031 109.3L71.8031 104.3C71.6031 103.7 71.3031 103.2 71.1031 102.8C70.9031 102.4 70.6031 102 70.3031 101.7C70.0031 101.4 69.7031 101.2 69.3031 101C68.9031 100.9 68.5031 100.8 68.0031 100.8H66.6031V109.4C66.6031 109.5 66.6031 109.6 66.5031 109.7C66.4031 109.8 66.3031 109.9 66.1031 109.9C66.1031 110 65.9031 110 65.6031 110C65.3031 110 64.9031 110.1 64.5031 110.1C64.1031 110.1 63.7031 110.1 63.4031 110C63.1031 110 62.9031 109.9 62.7031 109.9C62.5031 109.8 62.4031 109.8 62.3031 109.7C62.2031 109.6 62.2031 109.5 62.2031 109.4V88.9C62.2031 88.4 62.3031 88 62.6031 87.8C62.9031 87.6 63.2031 87.5 63.6031 87.5H69.4031C70.0031 87.5 70.5031 87.5 70.9031 87.5C71.3031 87.5 71.6031 87.6 71.9031 87.6C72.8031 87.7 73.6031 88 74.3031 88.3C75.0031 88.6 75.6031 89 76.1031 89.5C76.6031 90 77.0031 90.6 77.3031 91.3C77.6031 92 77.7031 92.8 77.7031 93.7C77.7031 94.4 77.6031 95.1 77.4031 95.8C77.2031 96.4 76.9031 97 76.6031 97.5C76.2031 98 75.8031 98.4 75.2031 98.8C74.7031 99.2 74.0031 99.4 73.3031 99.7C73.6031 99.9 74.0031 100.1 74.3031 100.3C74.6031 100.5 74.9031 100.8 75.1031 101.1C75.4031 101.4 75.6031 101.8 75.8031 102.2C76.0031 102.6 76.3031 103.1 76.5031 103.6L78.4031 108.1C78.6031 108.5 78.7031 108.9 78.7031 109.1C78.9031 109.1 78.9031 109.3 78.9031 109.4ZM73.0031 94.1C73.0031 93.4 72.8031 92.7 72.5031 92.2C72.2031 91.7 71.6031 91.3 70.8031 91.1C70.6031 91.1 70.4031 91 70.1031 91C69.8031 91 69.4031 91 68.8031 91H66.7031V97.4H69.0031C69.7031 97.4 70.2031 97.3 70.7031 97.2C71.2031 97 71.6031 96.8 71.9031 96.5C72.2031 96.2 72.5031 95.9 72.6031 95.5C72.9031 95 73.0031 94.6 73.0031 94.1Z" fill="#787F8D"/>
<path d="M66.8008 97.8H69.1008C69.8008 97.8 70.4008 97.7 70.9008 97.5C71.4008 97.3 71.9008 97.1 72.3008 96.8C72.7008 96.5 73.0008 96.1 73.2008 95.6C73.4008 95.1 73.5008 94.6 73.5008 94.1C73.5008 93.3 73.3008 92.5 72.9008 92C72.5008 91.4 71.9008 91 71.0008 90.7C70.8008 90.6 70.5008 90.6 70.2008 90.6C69.9008 90.6 69.5008 90.5 68.9008 90.5H66.8008C66.5008 90.5 66.3008 90.7 66.3008 91V97.4C66.3008 97.6 66.5008 97.8 66.8008 97.8ZM67.2008 91.4H68.8008C69.3008 91.4 69.7008 91.4 70.0008 91.5C70.3008 91.5 70.5008 91.6 70.7008 91.6C71.3008 91.8 71.8008 92.1 72.1008 92.5C72.4008 92.9 72.5008 93.5 72.5008 94.1C72.5008 94.5 72.4008 94.9 72.3008 95.2C72.2008 95.5 72.0008 95.8 71.7008 96C71.4008 96.2 71.1008 96.4 70.6008 96.6C70.2008 96.7 69.7008 96.8 69.0008 96.8H67.1008L67.2008 91.4Z" fill="#35414D"/>
<path d="M79.3016 108.8C79.2016 108.6 79.1016 108.2 78.9016 107.8L77.0016 103.3C76.8016 102.7 76.5016 102.2 76.3016 101.8C76.1016 101.4 75.8016 101 75.5016 100.6C75.2016 100.2 74.9016 99.9001 74.6016 99.7001C74.5016 99.7001 74.5016 99.6001 74.4016 99.6001C74.8016 99.4001 75.1016 99.2001 75.5016 99.0001C76.1016 98.6001 76.6016 98.2001 77.0016 97.6001C77.4016 97.1001 77.7016 96.5001 77.9016 95.8001C78.1016 95.1001 78.2016 94.4001 78.2016 93.6001C78.2016 92.6001 78.1016 91.8001 77.8016 91.1001C77.5016 90.4001 77.1016 89.7001 76.5016 89.2001C76.0016 88.7001 75.3016 88.2001 74.5016 87.9001C73.7016 87.6001 72.9016 87.3001 71.9016 87.2001C71.5016 87.2001 71.2016 87.1001 70.8016 87.1001C70.4016 87.1001 69.9016 87.1001 69.3016 87.1001H63.5016C63.0016 87.1001 62.6016 87.3001 62.2016 87.6001C61.8016 87.9001 61.6016 88.4001 61.6016 89.1001V109.6C61.6016 109.8 61.7016 110 61.8016 110.2C61.9016 110.4 62.1016 110.5 62.4016 110.6C62.6016 110.7 62.9016 110.7 63.2016 110.8C63.5016 110.8 63.9016 110.9 64.4016 110.9C64.9016 110.9 65.3016 110.9 65.6016 110.8C65.9016 110.8 66.2016 110.7 66.4016 110.6C66.7016 110.5 66.8016 110.4 67.0016 110.2C67.1016 110 67.2016 109.8 67.2016 109.6V107.4C67.2016 107.1 67.0016 106.9 66.7016 106.9C66.4016 106.9 66.2016 107.1 66.2016 107.4V109.6C66.2016 109.6 66.2016 109.6 66.0016 109.7C65.9016 109.7 65.7016 109.8 65.4016 109.8C65.1016 109.8 64.8016 109.9 64.4016 109.9C64.0016 109.9 63.6016 109.9 63.3016 109.8C63.1016 109.8 62.8016 109.7 62.7016 109.7C62.6016 109.7 62.6016 109.6 62.6016 109.6V88.9001C62.6016 88.5001 62.7016 88.3001 62.8016 88.1001C63.0016 87.9001 63.2016 87.9001 63.5016 87.9001H69.3016C69.9016 87.9001 70.4016 87.9001 70.7016 87.9001C71.0016 87.9001 71.4016 87.9001 71.7016 88.0001C72.6016 88.1001 73.3016 88.3001 74.0016 88.6001C74.7016 88.9001 75.2016 89.3001 75.7016 89.7001C76.2016 90.2001 76.5016 90.7001 76.8016 91.3001C77.0016 91.9001 77.2016 92.7001 77.2016 93.5001C77.2016 94.2001 77.1016 94.8001 76.9016 95.4001C76.7016 96.0001 76.5016 96.5001 76.1016 96.9001C75.8016 97.3001 75.3016 97.7001 74.8016 98.1001C74.3016 98.4001 73.7016 98.7001 73.0016 98.9001C72.8016 99.0001 72.7016 99.1001 72.7016 99.3001C72.7016 99.5001 72.8016 99.7001 73.0016 99.7001C73.3016 99.8001 73.6016 100 73.9016 100.2C74.2016 100.4 74.4016 100.7 74.7016 101C75.0016 101.3 75.2016 101.7 75.4016 102.1C75.6016 102.5 75.8016 103 76.1016 103.5L78.0016 107.9C78.1016 108.3 78.3016 108.6 78.3016 108.8C78.4016 109 78.4016 109.1 78.4016 109.2V109.3C78.4016 109.3 78.4016 109.3 78.3016 109.3C78.2016 109.3 78.0016 109.4 77.6016 109.4C77.3016 109.4 76.8016 109.4 76.3016 109.4C75.8016 109.4 75.5016 109.4 75.2016 109.4C74.9016 109.4 74.7016 109.3 74.6016 109.3C74.5016 109.3 74.5016 109.2 74.5016 109.2C74.5016 109.1 74.4016 109 74.4016 109L72.4016 104C72.1016 103.4 71.9016 102.9 71.7016 102.4C71.5016 101.9 71.2016 101.5 70.8016 101.2C70.5016 100.9 70.1016 100.6 69.6016 100.4C69.2016 100.2 68.7016 100.1 68.1016 100.1H66.7016C66.4016 100.1 66.2016 100.3 66.2016 100.6V103C66.2016 103.3 66.4016 103.5 66.7016 103.5C67.0016 103.5 67.2016 103.3 67.2016 103V101.2H68.2016C68.6016 101.2 69.0016 101.3 69.3016 101.4C69.6016 101.5 69.9016 101.7 70.1016 102C70.4016 102.3 70.6016 102.6 70.8016 103C71.0016 103.4 71.2016 103.9 71.5016 104.5L73.5016 109.5C73.6016 109.7 73.6016 109.8 73.7016 109.9C73.8016 110.1 74.0016 110.2 74.3016 110.3C74.5016 110.4 74.8016 110.4 75.1016 110.5C75.4016 110.5 75.8016 110.5 76.3016 110.5C76.9016 110.5 77.4016 110.5 77.7016 110.5C78.1016 110.5 78.3016 110.4 78.6016 110.4C78.9016 110.3 79.1016 110.2 79.2016 110C79.3016 109.8 79.3016 109.7 79.3016 109.5C79.4016 109.2 79.4016 109 79.3016 108.8Z" fill="#35414D"/>
<path d="M66.8008 104.6C66.5008 104.6 66.3008 104.8 66.3008 105.1C66.3008 105.4 66.5008 105.6 66.8008 105.6C67.1008 105.6 67.3008 105.4 67.3008 105.1C67.2008 104.8 67.0008 104.6 66.8008 104.6Z" fill="#35414D"/>
<path fill-rule="evenodd" clip-rule="evenodd" d="M95.7016 103.2C95.7016 104.4 95.5016 105.4 95.1016 106.2C94.7016 107.1 94.1016 107.8 93.4016 108.4C92.7016 109 91.8016 109.4 90.8016 109.7C89.8016 110 88.8016 110.1 87.7016 110.1C86.9016 110.1 86.2016 110 85.6016 109.9C85.0016 109.8 84.4016 109.6 83.9016 109.4C83.4016 109.2 83.0016 109 82.7016 108.8C82.4016 108.6 82.1016 108.4 82.0016 108.3C81.9016 108.2 81.8016 107.9 81.7016 107.7C81.6016 107.4 81.6016 107 81.6016 106.5C81.6016 106.1 81.6016 105.9 81.6016 105.6C81.6016 105.4 81.7016 105.2 81.7016 105C81.8016 104.9 81.8016 104.8 81.9016 104.7C82.0016 104.6 82.1016 104.6 82.2016 104.6C82.4016 104.6 82.6016 104.7 82.9016 104.9C83.2016 105.1 83.6016 105.3 84.0016 105.5C84.4016 105.7 85.0016 105.9 85.6016 106.1C86.2016 106.3 86.9016 106.4 87.8016 106.4C88.3016 106.4 88.8016 106.3 89.3016 106.2C89.7016 106.1 90.1016 105.9 90.4016 105.7C90.7016 105.5 90.9016 105.2 91.1016 104.8C91.3016 104.5 91.3016 104.1 91.3016 103.6C91.3016 103.1 91.2016 102.7 90.9016 102.3C90.6016 101.9 90.3016 101.6 89.8016 101.4C89.4016 101.1 88.9016 100.9 88.3016 100.6C87.8016 100.4 87.2016 100.1 86.6016 99.7998C86.0016 99.4998 85.4016 99.1998 84.9016 98.8998C84.3016 98.5998 83.9016 98.1998 83.4016 97.6998C83.0016 97.1998 82.6016 96.6998 82.3016 95.9998C82.0016 95.2998 81.9016 94.5998 81.9016 93.6998C81.9016 92.6998 82.1016 91.6998 82.5016 90.8998C82.9016 90.0998 83.4016 89.4998 84.1016 88.8998C84.8016 88.3998 85.5016 87.9998 86.4016 87.6998C87.3016 87.3998 88.2016 87.2998 89.2016 87.2998C89.7016 87.2998 90.2016 87.2998 90.8016 87.3998C91.3016 87.4998 91.8016 87.5998 92.3016 87.6998C92.6016 87.9998 93.0016 88.1998 93.3016 88.3998C93.6016 88.5998 93.9016 88.6998 94.0016 88.7998C94.1016 88.8998 94.2016 88.9998 94.2016 89.0998C94.2016 89.1998 94.3016 89.2998 94.3016 89.3998C94.3016 89.4998 94.3016 89.6998 94.4016 89.8998C94.4016 90.0998 94.4016 90.2998 94.4016 90.5998C94.4016 90.8998 94.4016 91.1998 94.4016 91.3998C94.4016 91.5998 94.4016 91.7998 94.3016 91.9998C94.3016 92.0998 94.2016 92.2998 94.1016 92.2998C94.0016 92.3998 93.9016 92.3998 93.8016 92.3998C93.7016 92.3998 93.5016 92.2998 93.2016 92.1998C92.9016 91.9998 92.6016 91.8998 92.2016 91.6998C91.8016 91.4998 91.3016 91.2998 90.8016 91.1998C90.3016 90.9998 89.7016 90.9998 89.1016 90.9998C88.6016 90.9998 88.2016 91.0998 87.8016 91.1998C87.4016 91.2998 87.1016 91.4998 86.9016 91.6998C86.7016 91.8998 86.5016 92.1998 86.4016 92.4998C86.3016 92.7998 86.2016 93.0998 86.2016 93.3998C86.2016 93.8998 86.3016 94.2998 86.6016 94.6998C86.9016 95.0998 87.2016 95.3998 87.7016 95.6998C88.1016 95.9998 88.7016 96.1998 89.2016 96.4998C89.8016 96.6998 90.3016 96.9998 90.9016 97.2998C91.5016 97.5998 92.1016 97.8998 92.6016 98.1998C93.2016 98.4998 93.7016 98.9998 94.1016 99.3998C94.5016 99.8998 94.9016 100.4 95.2016 101.1C95.6016 101.5 95.7016 102.3 95.7016 103.2Z" fill="#787F8D"/>
<path d="M95.7 100.7C95.4 100 95 99.4 94.5 98.9C94 98.4 93.5 98 92.9 97.6C92.3 97.3 91.7 96.9 91.1 96.6C90.5 96.3 89.9 96.1 89.4 95.8C88.9 95.6 88.4 95.3 87.9 95.1C87.5 94.9 87.2 94.6 87 94.3C86.8 94 86.7 93.7 86.7 93.3C86.7 93 86.7 92.8 86.8 92.5C86.9 92.3 87 92.1 87.2 91.9C87.4 91.7 87.7 91.6 87.9 91.5C88.2 91.4 88.6 91.3 89 91.3C89.6 91.3 90.1 91.4 90.6 91.5C91.1 91.6 91.5 91.8 91.9 92C92.3 92.2 92.6 92.4 92.9 92.5C93.3 92.7 93.5 92.8 93.7 92.8C94 92.8 94.2 92.7 94.3 92.6C94.4 92.5 94.5 92.3 94.6 92.1C94.6 91.9 94.7 91.7 94.7 91.5C94.7 91.3 94.7 91 94.7 90.6C94.7 90.3 94.7 90 94.7 89.8C94.7 89.6 94.7 89.4 94.6 89.2C94.6 89 94.5 88.9 94.5 88.8C94.4 88.7 94.3 88.5 94.2 88.4C94 88.2 93.8 88.1 93.4 87.9C93 87.7 92.6 87.6 92.1 87.4C91.6 87.3 91.1 87.1 90.6 87.1C90.2 87 89.6 87 89.1 87C88 87 87 87.1 86.1 87.4C85.2 87.7 84.3 88.1 83.6 88.7C82.9 89.3 82.3 90 81.9 90.8C81.5 91.7 81.3 92.7 81.3 93.8C81.3 94.8 81.4 95.6 81.7 96.3C82 97 82.4 97.6 82.8 98.1C83.2 98.6 83.7 99 84.3 99.3C84.5 99.4 84.8 99.4 84.9 99.2C85 99 85 98.7 84.8 98.6C84.3 98.3 83.9 97.9 83.5 97.5C83.1 97.1 82.8 96.5 82.5 95.9C82.3 95.3 82.1 94.6 82.1 93.7C82.1 92.7 82.3 91.9 82.6 91.1C83 90.4 83.4 89.8 84 89.3C84.6 88.8 85.3 88.4 86.2 88.2C87 88 88 87.8 88.9 87.8C89.4 87.8 89.9 87.8 90.4 87.9C90.9 88 91.3 88.1 91.8 88.2C92.2 88.3 92.6 88.5 92.9 88.6C93.3 88.8 93.4 88.9 93.5 88.9C93.6 89 93.6 89.1 93.6 89.1C93.6 89.1 93.6 89.2 93.7 89.3C93.7 89.4 93.7 89.5 93.7 89.7C93.7 89.9 93.7 90.1 93.7 90.4C93.7 90.7 93.7 91 93.7 91.2C93.7 91.4 93.7 91.6 93.6 91.7V91.8C93.6 91.8 93.5 91.7 93.2 91.6C92.9 91.4 92.6 91.3 92.2 91.1C92 91 91.5 90.9 91 90.7C90.4 90.5 89.8 90.5 89.2 90.5C88.7 90.5 88.2 90.6 87.8 90.7C87.3 90.8 87 91 86.7 91.2C86.4 91.5 86.2 91.8 86 92.1C85.9 92.4 85.8 92.8 85.8 93.2C85.8 93.8 86 94.3 86.3 94.7C86.6 95.1 87 95.5 87.5 95.8C88 96.1 88.5 96.4 89.1 96.6C89.6 96.8 90.2 97.1 90.8 97.4C91.4 97.7 92 98 92.5 98.3C93 98.6 93.5 99 93.9 99.5C94.3 99.9 94.6 100.5 94.9 101.1C95.1 101.7 95.3 102.4 95.3 103.2C95.3 104.3 95.1 105.2 94.7 106C94.3 106.8 93.8 107.5 93.1 108C92.4 108.5 91.6 109 90.7 109.2C89.8 109.5 88.8 109.6 87.7 109.6C87 109.6 86.3 109.5 85.7 109.4C85.1 109.3 84.5 109.1 84.1 109C83.6 108.8 83.2 108.7 82.9 108.5C82.6 108.3 82.4 108.1 82.3 108.1C82 108 82 107.8 81.9 107.6C81.8 107.4 81.8 107 81.8 106.5C81.8 106.2 81.8 105.9 81.8 105.7C81.8 105.5 81.8 105.3 81.9 105.2C81.9 105.1 81.9 105.1 81.9 105.1C81.9 105.1 82 105.1 82.3 105.3C82.6 105.5 83 105.7 83.4 105.9C83.9 106.1 84.4 106.4 85.1 106.5C85.8 106.7 86.5 106.8 87.4 106.8C88 106.8 88.5 106.7 89 106.6C89.5 106.4 89.9 106.2 90.2 106C90.6 105.7 90.8 105.4 91 105C91.2 104.6 91.3 104.1 91.3 103.7C91.3 103.1 91.1 102.6 90.8 102.1C90.5 101.7 90.1 101.4 89.6 101C89.2 100.7 88.7 100.5 88.2 100.3C88 100.2 87.7 100.3 87.6 100.5C87.5 100.7 87.6 101 87.8 101.1C88.3 101.3 88.7 101.5 89 101.8C89.4 102.1 89.7 102.3 89.9 102.6C90.1 102.9 90.2 103.2 90.2 103.6C90.2 104 90.1 104.3 90 104.6C89.9 104.9 89.7 105.1 89.4 105.3C89.1 105.5 88.8 105.7 88.5 105.8C88.6 106 88.1 106 87.6 106C86.8 106 86.1 105.9 85.6 105.7C85 105.5 84.5 105.3 84.1 105.1C83.7 104.9 83.3 104.7 83 104.5C82.6 104.3 82.3 104.1 82.1 104.1C81.9 104.1 81.7 104.2 81.5 104.3C81.3 104.4 81.2 104.6 81.1 104.8C81 105.1 81 105.3 81 105.6C81 105.9 81 106.2 81 106.5C81 107.1 81 107.5 81.1 107.8C81.2 108.2 81.3 108.4 81.5 108.7C81.7 108.9 82 109.1 82.3 109.3C82.7 109.5 83.1 109.7 83.6 109.9C84.1 110.1 84.7 110.2 85.4 110.4C86.1 110.5 86.8 110.6 87.6 110.6C88.8 110.6 89.9 110.4 90.9 110.1C91.9 109.8 92.8 109.3 93.6 108.7C94.4 108.1 95 107.3 95.5 106.4C96 105.5 96.2 104.4 96.2 103.2C96.1 102.2 96 101.4 95.7 100.7Z" fill="#35414D"/>
<path d="M86.8984 100C86.8984 99.7 86.6984 99.5 86.3984 99.5C86.0984 99.5 85.8984 99.7 85.8984 100C85.8984 100.3 86.0984 100.5 86.3984 100.5C86.6984 100.4 86.8984 100.2 86.8984 100Z" fill="#35414D"/>
<mask id="mask4_1118_8148" style="mask-type:luminance" maskUnits="userSpaceOnUse" x="0" y="87" width="19" height="24">
<path d="M18.8 87H0V110.6H18.8V87Z" fill="white"/>
</mask>
<g mask="url(#mask4_1118_8148)">
<path fill-rule="evenodd" clip-rule="evenodd" d="M11.6984 101.5V109.4C11.6984 109.5 11.6984 109.6 11.5984 109.7C11.4984 109.8 11.3984 109.9 11.1984 109.9C10.9984 110 10.7984 110 10.4984 110C10.1984 110 9.79844 110.1 9.39844 110.1C8.99844 110.1 8.59844 110.1 8.29844 110C7.99844 110 7.79844 110 7.59844 109.9C7.39844 109.8 7.29844 109.8 7.19844 109.7C7.09844 109.6 7.09844 109.5 7.09844 109.4V101.5L0.998437 89.3C0.798437 88.9 0.598438 88.5 0.598438 88.3C0.498438 88 0.498438 87.9 0.598438 87.7C0.798438 87.6 0.998437 87.5 1.39844 87.5C1.79844 87.5 2.29844 87.5 2.89844 87.5C3.39844 87.5 3.89844 87.5 4.19844 87.5C4.49844 87.5 4.79844 87.6 4.99844 87.6C5.19844 87.7 5.29844 87.7 5.39844 87.8C5.39844 88 5.49844 88.1 5.49844 88.3L7.99844 93.8C8.19844 94.3 8.49844 94.9 8.69844 95.5C8.99844 96.1 9.19844 96.7 9.49844 97.3C9.69844 96.7 9.89844 96.1 10.1984 95.5C10.3984 94.9 10.6984 94.4 10.8984 93.8L13.3984 88.3C13.4984 88.1 13.4984 88 13.5984 87.9C13.6984 87.8 13.7984 87.7 13.9984 87.6C14.1984 87.5 14.3984 87.5 14.6984 87.5C14.9984 87.5 15.3984 87.5 15.8984 87.5C16.5984 87.5 17.0984 87.5 17.3984 87.5C17.7984 87.5 17.9984 87.6 18.0984 87.7C18.1984 87.8 18.2984 88 18.1984 88.2C18.0984 88.4 17.9984 88.8 17.7984 89.2L11.6984 101.5Z" fill="#787F8D"/>
</g>
<mask id="mask5_1118_8148" style="mask-type:luminance" maskUnits="userSpaceOnUse" x="0" y="87" width="19" height="24">
<path d="M18.8 87H0V110.6H18.8V87Z" fill="white"/>
</mask>
<g mask="url(#mask5_1118_8148)">
<path d="M18.3985 87.4C18.1985 87.2 17.8985 87.1 17.3985 87.1C16.9985 87.1 16.4985 87.1 15.7985 87.1C15.2985 87.1 14.8985 87.1 14.5985 87.1C14.2985 87.1 13.9985 87.2 13.7985 87.3C13.4985 87.4 13.3985 87.5 13.1985 87.7C13.0985 87.8 12.9985 88 12.8985 88.3L10.3985 93.8C10.1985 94.3 9.99847 94.8 9.79847 95.3C9.69847 95.6 9.59847 95.8 9.49847 96.1C9.39847 95.8 9.29847 95.5 9.19847 95.3C8.99847 94.7 8.69847 94.2 8.49847 93.6L5.99847 88.1C5.89847 87.9 5.79847 87.7 5.69847 87.6C5.49847 87.4 5.29847 87.3 4.99847 87.2C4.79847 87.1 4.49847 87.1 4.19847 87C3.79847 87 3.39847 87 2.89847 87C2.19847 87 1.69847 87 1.29847 87C0.798468 87 0.498468 87.2 0.298468 87.3C0.0984677 87.4 -0.101532 87.8 0.0984677 88.3C0.198468 88.7 0.298468 89 0.598468 89.5L2.69847 93.8C2.79847 94 3.09847 94 3.29847 93.9C3.49847 93.8 3.59847 93.5 3.49847 93.3L1.39847 89.1C1.09847 88.6 0.998468 88.3 0.998468 88.1V88C0.998468 88 1.09847 88 1.39847 88C1.69847 88 2.19847 88 2.79847 88C3.29847 88 3.69847 88 3.99847 88C4.39847 88 4.59847 88 4.69847 88.1C4.79847 88.1 4.89847 88.2 4.89847 88.2C4.99847 88.3 5.09847 88.4 5.09847 88.5L7.59847 94C7.79847 94.5 8.09847 95.1 8.29847 95.7C8.49847 96.3 8.79847 96.9 8.99847 97.5C9.09847 97.7 9.19847 97.8 9.39847 97.8C9.59847 97.8 9.79847 97.7 9.79847 97.5C9.99847 96.9 10.1985 96.3 10.4985 95.7C10.7985 95.1 10.9985 94.6 11.2985 94L13.7985 88.5C13.7985 88.5 13.7985 88.5 13.7985 88.4C13.8985 88.2 13.8985 88.2 13.8985 88.1C13.8985 88.1 13.9985 88 14.0985 88C14.1985 88 14.3985 88 14.6985 88C14.9985 88 15.3985 88 15.8985 88C16.5985 88 17.0985 88 17.3985 88C17.6985 88 17.7985 88.1 17.8985 88.1C17.8985 88.1 17.8985 88.1 17.8985 88.2C17.7985 88.4 17.6985 88.7 17.4985 89.1L11.3985 101.3C11.3985 101.4 11.3985 101.4 11.3985 101.5V109.4C11.3985 109.4 11.2985 109.4 11.1985 109.5C11.0985 109.5 10.8985 109.6 10.5985 109.6C10.2985 109.6 9.99847 109.7 9.59847 109.7C9.19847 109.7 8.79847 109.7 8.49847 109.7C8.19847 109.7 7.99847 109.6 7.89847 109.6C7.79847 109.6 7.79847 109.5 7.79847 109.5V101.6C7.79847 101.5 7.79847 101.5 7.79847 101.4L5.39847 97C5.29847 96.8 4.99847 96.7 4.79847 96.8C4.59847 96.9 4.49847 97.2 4.59847 97.4L6.69847 101.6V109.4C6.69847 109.6 6.79847 109.8 6.89847 110C6.99847 110.2 7.19847 110.3 7.49847 110.4C7.69847 110.5 7.99847 110.5 8.29847 110.6C8.59847 110.6 8.99847 110.7 9.49847 110.7C9.99847 110.7 10.2985 110.7 10.6985 110.6C10.9985 110.6 11.2985 110.5 11.4985 110.4C11.6985 110.3 11.8985 110.2 12.0985 110C12.1985 109.8 12.2985 109.6 12.2985 109.4V101.6L18.3985 89.5C18.5985 89 18.7985 88.7 18.7985 88.4C18.7985 87.8 18.5985 87.5 18.3985 87.4Z" fill="#35414D"/>
</g>
<path d="M4 94.8999C3.7 94.8999 3.5 95.0999 3.5 95.3999C3.5 95.6999 3.7 95.8999 4 95.8999C4.3 95.8999 4.5 95.6999 4.5 95.3999C4.5 95.0999 4.3 94.8999 4 94.8999Z" fill="#35414D"/>
<mask id="mask6_1118_8148" style="mask-type:luminance" maskUnits="userSpaceOnUse" x="37" y="87" width="22" height="24">
<path d="M58.9008 87H37.3008V110.6H58.9008V87Z" fill="white"/>
</mask>
<g mask="url(#mask6_1118_8148)">
<path fill-rule="evenodd" clip-rule="evenodd" d="M58.2008 108.3C58.3008 108.7 58.4008 109 58.5008 109.3C58.5008 109.5 58.5008 109.7 58.4008 109.8C58.3008 109.9 58.0008 110 57.7008 110C57.4008 110 56.9008 110 56.4008 110C55.8008 110 55.3008 110 55.0008 110C54.7008 110 54.4008 109.9 54.2008 109.9C54.0008 109.8 53.9008 109.8 53.8008 109.7C53.7008 109.6 53.7008 109.5 53.6008 109.3L52.1008 104.8H43.6008L42.2008 109.2C42.2008 109.4 42.1008 109.5 42.0008 109.6C41.9008 109.7 41.8008 109.8 41.6008 109.9C41.6008 110 41.3008 110 41.0008 110.1C40.7008 110.1 40.3008 110.1 39.8008 110.1C39.3008 110.1 38.9008 110.1 38.6008 110C38.3008 110 38.1008 109.9 38.0008 109.8C37.9008 109.7 37.8008 109.5 37.9008 109.2C37.9008 109 38.0008 108.6 38.2008 108.2L45.0008 88.4C45.1008 88.2 45.1008 88 45.2008 87.9C45.3008 87.8 45.4008 87.7 45.6008 87.6C45.8008 87.5 46.1008 87.5 46.4008 87.5C46.8008 87.5 47.2008 87.5 47.8008 87.5C48.5008 87.5 49.0008 87.5 49.4008 87.5C49.8008 87.5 50.1008 87.6 50.3008 87.6C50.5008 87.7 50.7008 87.8 50.8008 87.9C50.9008 88 51.0008 88.2 51.0008 88.4L58.2008 108.3ZM47.9008 91.8L44.8008 101.3H51.0008L47.9008 91.8Z" fill="#787F8D"/>
</g>
<mask id="mask7_1118_8148" style="mask-type:luminance" maskUnits="userSpaceOnUse" x="37" y="87" width="22" height="24">
<path d="M58.9008 87H37.3008V110.6H58.9008V87Z" fill="white"/>
</mask>
<g mask="url(#mask7_1118_8148)">
<path d="M58.9023 109.2C58.9023 108.9 58.8023 108.6 58.6023 108.1L51.7023 88.3C51.6023 88.1 51.5023 87.8 51.4023 87.7C51.2023 87.5 51.0023 87.4 50.7023 87.3C50.4023 87.1 50.0023 87 49.6023 87C49.2023 87 48.7023 87 48.0023 87C47.3023 87 46.9023 87 46.6023 87C46.2023 87 45.9023 87.1 45.6023 87.1C45.3023 87.2 45.1023 87.3 44.9023 87.5C44.8023 87.7 44.7023 87.9 44.6023 88.1L37.7023 108C37.5023 108.5 37.5023 108.8 37.4023 109C37.3023 109.5 37.5023 109.8 37.6023 109.9C37.8023 110.1 38.1023 110.3 38.5023 110.3C38.8023 110.3 39.2023 110.4 39.8023 110.4C40.3023 110.4 40.7023 110.4 41.0023 110.4C41.4023 110.4 41.6023 110.3 41.8023 110.2C42.1023 110.1 42.3023 110 42.4023 109.8C42.5023 109.7 42.6023 109.5 42.6023 109.3L43.9023 105.2H45.7023C46.0023 105.2 46.2023 105 46.2023 104.7C46.2023 104.4 46.0023 104.2 45.7023 104.2H43.5023C43.3023 104.2 43.1023 104.3 43.1023 104.5L41.7023 108.9C41.7023 109 41.6023 109.1 41.6023 109.2C41.6023 109.2 41.6023 109.2 41.5023 109.3C41.4023 109.3 41.3023 109.4 40.9023 109.4C40.6023 109.4 40.2023 109.4 39.7023 109.4C39.2023 109.4 38.8023 109.4 38.5023 109.3C38.2023 109.3 38.2023 109.2 38.2023 109.2C38.2023 109.2 38.2023 109.1 38.2023 109C38.2023 108.8 38.3023 108.5 38.4023 108.1L45.3023 88.2C45.4023 88 45.4023 87.9 45.5023 87.9C45.5023 87.9 45.5023 87.8 45.7023 87.8C46.0023 88 46.2023 88 46.5023 87.9C46.8023 87.9 47.2023 87.9 47.9023 87.9C48.6023 87.9 49.1023 87.9 49.5023 87.9C49.9023 88 50.2023 88 50.4023 88C50.6023 88 50.6023 88.1 50.6023 88.1C50.7023 88.2 50.7023 88.3 50.8023 88.5L57.7023 108.4C57.8023 108.8 57.9023 109.1 57.9023 109.3C57.9023 109.4 57.9023 109.4 57.9023 109.5C57.9023 109.5 57.8023 109.6 57.5023 109.6C57.2023 109.6 56.8023 109.6 56.2023 109.6C55.6023 109.6 55.1023 109.6 54.8023 109.6C54.5023 109.6 54.3023 109.6 54.2023 109.5C54.1023 109.5 54.1023 109.4 54.1023 109.4C54.1023 109.4 54.0023 109.3 54.0023 109.2L52.5023 104.7C52.4023 104.5 52.3023 104.4 52.1023 104.4H50.0023C49.7023 104.4 49.5023 104.6 49.5023 104.9C49.5023 105.2 49.7023 105.4 50.0023 105.4H51.8023L53.2023 109.6C53.3023 109.8 53.3023 110 53.4023 110.1C53.5023 110.3 53.7023 110.4 54.0023 110.5C54.2023 110.6 54.5023 110.6 54.9023 110.6C55.2023 110.6 55.6023 110.6 56.3023 110.6C56.9023 110.6 57.4023 110.6 57.7023 110.6C58.1023 110.6 58.4023 110.4 58.6023 110.3C58.8023 110 59.0023 109.7 58.9023 109.2Z" fill="#35414D"/>
</g>
<path d="M51.4023 101.6C51.5023 101.5 51.5023 101.3 51.5023 101.2L48.3023 91.6999C48.2023 91.4999 48.1023 91.3999 47.9023 91.3999C47.7023 91.3999 47.5023 91.4999 47.5023 91.6999L44.4023 101.2C44.4023 101.3 44.4023 101.5 44.5023 101.6C44.6023 101.7 44.7023 101.8 44.9023 101.8H51.0023C51.2023 101.8 51.3023 101.8 51.4023 101.6ZM45.4023 100.9L47.9023 93.2999L50.4023 100.9H45.4023Z" fill="#35414D"/>
<path d="M47.9023 104.4C47.6023 104.4 47.4023 104.6 47.4023 104.9C47.4023 105.2 47.6023 105.4 47.9023 105.4C48.2023 105.4 48.4023 105.2 48.4023 104.9C48.4023 104.6 48.2023 104.4 47.9023 104.4Z" fill="#35414D"/>
<path fill-rule="evenodd" clip-rule="evenodd" d="M34.6992 108.3C34.6992 108.6 34.6992 108.9 34.6992 109.2C34.6992 109.4 34.5992 109.6 34.5992 109.7C34.4992 109.8 34.4992 109.9 34.3992 110C34.2992 110.1 34.1992 110.1 34.0992 110.1H22.5992C22.1992 110.1 21.8992 110 21.5992 109.8C21.2992 109.6 21.1992 109.2 21.1992 108.7V88.9C21.1992 88.4 21.2992 88 21.5992 87.8C21.8992 87.6 22.1992 87.5 22.5992 87.5H33.8992C33.9992 87.5 34.0992 87.5 34.1992 87.6C34.2992 87.7 34.2992 87.8 34.3992 87.9C34.4992 88 34.4992 88.2 34.4992 88.5C34.4992 88.7 34.4992 89 34.4992 89.4C34.4992 89.7 34.4992 90 34.4992 90.2C34.4992 90.4 34.3992 90.6 34.3992 90.7C34.2992 90.8 34.2992 90.9 34.1992 91C34.0992 91 33.9992 91.1 33.8992 91.1H25.7992V96.6H32.5992C32.6992 96.6 32.7992 96.6 32.8992 96.7C32.9992 96.8 33.0992 96.9 33.0992 97C33.1992 97.1 33.1992 97.3 33.1992 97.5C33.1992 97.7 33.1992 98 33.1992 98.3C33.1992 98.6 33.1992 98.9 33.1992 99.1C33.1992 99.3 33.0992 99.5 33.0992 99.6C33.0992 99.9 32.9992 100 32.8992 100C32.7992 100.1 32.6992 100.1 32.5992 100.1H25.7992V106.5H33.9992C34.0992 106.5 34.1992 106.5 34.2992 106.6C34.3992 106.7 34.4992 106.8 34.4992 106.9C34.5992 107 34.5992 107.2 34.5992 107.4C34.6992 107.7 34.6992 107.9 34.6992 108.3Z" fill="#787F8D"/>
<path d="M35.0992 107.4C35.0992 107.1 34.9992 106.9 34.8992 106.7C34.7992 106.5 34.6992 106.3 34.4992 106.2C34.3992 106.1 34.1992 106 33.9992 106H26.2992V105.3C26.2992 105 26.0992 104.8 25.7992 104.8C25.4992 104.8 25.2992 105 25.2992 105.3V106.4C25.2992 106.7 25.4992 106.9 25.7992 106.9H33.9992C33.9992 106.9 33.9992 106.9 34.0992 107C34.0992 107.1 34.1992 107.2 34.1992 107.4C34.1992 107.6 34.1992 107.9 34.1992 108.2C34.1992 108.5 34.1992 108.8 34.1992 109C34.1992 109.2 34.0992 109.4 34.0992 109.4C34.0992 109.5 33.9992 109.5 33.9992 109.5H22.5992C22.2992 109.5 22.0992 109.4 21.8992 109.3C21.6992 109.2 21.6992 108.9 21.6992 108.5V88.9C21.6992 88.5 21.7992 88.3 21.8992 88.1C22.0992 87.9 22.2992 87.9 22.5992 87.9H33.8992C33.8992 87.9 33.8992 87.9 33.9992 88C33.9992 88.1 34.0992 88.3 34.0992 88.5C34.0992 88.7 34.0992 89 34.0992 89.3C34.0992 89.6 34.0992 89.9 34.0992 90.1C34.0992 90.3 33.9992 90.5 33.9992 90.5C33.9992 90.6 33.8992 90.6 33.8992 90.6H25.7992C25.4992 90.6 25.2992 90.8 25.2992 91.1V96.6C25.2992 96.9 25.4992 97.1 25.7992 97.1H32.5992C32.5992 97.1 32.5992 97.2 32.6992 97.2C32.6992 97.3 32.7992 97.4 32.7992 97.6C32.7992 97.8 32.7992 98 32.7992 98.4C32.7992 98.7 32.7992 99 32.7992 99.2C32.7992 99.4 32.6992 99.5 32.6992 99.6C32.6992 99.7 32.6992 99.7 32.6992 99.7H25.8992C25.5992 99.7 25.3992 99.9 25.3992 100.2V101.3C25.3992 101.6 25.5992 101.8 25.8992 101.8C26.1992 101.8 26.3992 101.6 26.3992 101.3V100.6H32.6992C32.8992 100.6 33.0992 100.5 33.1992 100.4C33.3992 100.3 33.4992 100.1 33.5992 99.9C33.6992 99.7 33.6992 99.5 33.7992 99.2C33.7992 99 33.7992 98.7 33.7992 98.3C33.7992 97.9 33.7992 97.7 33.7992 97.4C33.7992 97.1 33.6992 96.9 33.5992 96.7C33.4992 96.5 33.3992 96.3 33.1992 96.2C32.9992 96.1 32.7992 96 32.5992 96H26.2992V91.5H33.8992C34.0992 91.5 34.2992 91.4 34.4992 91.3C34.5992 91.2 34.6992 91 34.7992 90.8C34.8992 90.7 34.9992 90.5 34.9992 90.2C34.9992 90 34.9992 89.7 34.9992 89.3C34.9992 88.9 34.9992 88.6 34.9992 88.4C34.9992 88.2 34.8992 87.9 34.7992 87.7C34.6992 87.5 34.5992 87.3 34.3992 87.2C34.2992 87.1 34.0992 87 33.8992 87H22.5992C22.0992 87 21.6992 87.2 21.2992 87.5C20.8992 87.8 20.6992 88.3 20.6992 89V108.7C20.6992 109.4 20.8992 109.8 21.2992 110.2C21.5992 110.5 22.0992 110.7 22.5992 110.7H33.9992C34.1992 110.7 34.3992 110.6 34.5992 110.5C34.7992 110.4 34.8992 110.2 34.9992 110C35.0992 109.8 35.0992 109.6 35.1992 109.3C35.1992 109.1 35.1992 108.8 35.1992 108.4C35.0992 107.9 35.0992 107.6 35.0992 107.4Z" fill="#35414D"/>
<path d="M25.8984 102.8C25.5984 102.8 25.3984 103 25.3984 103.3C25.3984 103.6 25.5984 103.8 25.8984 103.8C26.1984 103.8 26.3984 103.6 26.3984 103.3C26.2984 103 26.0984 102.8 25.8984 102.8Z" fill="#35414D"/>
<path fill-rule="evenodd" clip-rule="evenodd" d="M72 128.3C72 129.6 71.8 130.7 71.4 131.7C71 132.7 70.4 133.5 69.7 134.2C68.9 134.9 68 135.4 66.9 135.7C65.8 136.1 64.5 136.2 63 136.2H61.1V143.4C61.1 143.5 61.1 143.6 61 143.7C60.9 143.8 60.8 143.9 60.6 143.9C60.4 144 60.2 144 59.9 144C59.6 144 59.2 144.1 58.8 144.1C58.4 144.1 58 144.1 57.7 144C57.4 144 57.2 143.9 57 143.9C56.8 143.8 56.7 143.8 56.6 143.7C56.5 143.6 56.5 143.5 56.5 143.4V123.1C56.5 122.6 56.6 122.1 56.9 121.9C57.2 121.6 57.6 121.5 58 121.5H63.3C63.8 121.5 64.3 121.5 64.8 121.6C65.3 121.6 65.9 121.7 66.5 121.9C67.2 122 67.9 122.3 68.5 122.6C69.2 123 69.8 123.4 70.3 124C70.8 124.6 71.2 125.2 71.4 125.9C71.8 126.6 72 127.4 72 128.3ZM67.2 128.7C67.2 127.9 67.1 127.3 66.8 126.7C66.5 126.2 66.2 125.8 65.8 125.6C65.4 125.4 65 125.2 64.5 125.1C64 125 63.6 125 63.1 125H61.1V132.7H63.2C63.9 132.7 64.5 132.6 65 132.4C65.5 132.2 65.9 131.9 66.2 131.6C66.5 131.2 66.8 130.8 66.9 130.3C67.1 129.8 67.2 129.3 67.2 128.7Z" fill="#787F8D"/>
<path d="M72 125.7C71.7 124.9 71.3 124.2 70.8 123.6C70.3 123 69.6 122.5 68.9 122.1C68.2 121.7 67.5 121.5 66.7 121.3C66 121.2 65.4 121.1 64.9 121C64.4 121 63.9 120.9 63.3 120.9H58C57.4 120.9 56.9 121.1 56.6 121.4C56.2 121.8 56 122.3 56 123V143.3C56 143.5 56.1 143.7 56.2 143.9C56.3 144.1 56.5 144.2 56.8 144.3C57 144.4 57.3 144.4 57.6 144.5C57.9 144.5 58.3 144.6 58.8 144.6C59.3 144.6 59.7 144.6 60 144.5C60.4 144.5 60.6 144.4 60.8 144.3C61 144.2 61.2 144.1 61.4 143.9C61.5 143.7 61.6 143.5 61.6 143.3V136.6H63C64.5 136.6 65.9 136.4 67 136.1C68.2 135.7 69.2 135.2 69.9 134.5C70.7 133.8 71.3 132.9 71.8 131.9C72.2 130.9 72.4 129.7 72.4 128.4C72.4 127.4 72.3 126.5 72 125.7ZM70.9 131.5C70.5 132.4 70 133.2 69.3 133.8C68.6 134.4 67.7 134.9 66.7 135.2C65.7 135.5 64.4 135.7 63 135.7H61.1C60.8 135.7 60.6 135.9 60.6 136.2V143.4C60.6 143.4 60.5 143.4 60.4 143.5C60.3 143.5 60.1 143.6 59.8 143.6C59.5 143.6 59.2 143.6 58.8 143.6C58.4 143.6 58 143.6 57.7 143.5C57.5 143.5 57.2 143.4 57.1 143.4C57 143.4 57 143.3 57 143.3V123.1C57 122.7 57.1 122.4 57.3 122.2C57.5 122 57.8 121.9 58.1 121.9H63.4C64 121.9 64.4 121.9 64.9 122C65.3 122 65.9 122.1 66.6 122.3C67.2 122.4 67.9 122.7 68.5 123C69.1 123.3 69.7 123.8 70.1 124.3C70.6 124.8 70.9 125.4 71.1 126.1C71.3 126.8 71.5 127.6 71.5 128.4C71.5 129.6 71.3 130.6 70.9 131.5Z" fill="#35414D"/>
<path d="M66.0016 125.2C65.5016 124.9 65.1016 124.8 64.5016 124.7C64.1016 124.6 63.6016 124.6 63.1016 124.6H61.1016C60.8016 124.6 60.6016 124.8 60.6016 125.1V126.9C60.6016 127.2 60.8016 127.4 61.1016 127.4C61.4016 127.4 61.6016 127.2 61.6016 126.9V125.6H63.1016C63.6016 125.6 64.0016 125.6 64.4016 125.7C64.8016 125.8 65.2016 125.9 65.5016 126.1C65.8016 126.3 66.1016 126.6 66.4016 127.1C66.6016 127.5 66.8016 128.1 66.8016 128.8C66.8016 129.3 66.7016 129.8 66.6016 130.3C66.5016 130.7 66.2016 131.1 66.0016 131.4C65.7016 131.7 65.4016 131.9 65.0016 132.1C64.6016 132.3 64.0016 132.4 63.3016 132.4H61.7016V131.1C61.7016 130.8 61.5016 130.6 61.2016 130.6C60.9016 130.6 60.7016 130.8 60.7016 131.1V132.9C60.7016 133.2 60.9016 133.4 61.2016 133.4H63.3016C64.1016 133.4 64.8016 133.3 65.3016 133.1C65.9016 132.9 66.3016 132.6 66.7016 132.1C67.1016 131.7 67.3016 131.2 67.5016 130.7C67.7016 130.2 67.8016 129.6 67.8016 128.9C67.8016 128 67.6016 127.3 67.3016 126.7C66.9016 125.9 66.4016 125.5 66.0016 125.2Z" fill="#35414D"/>
<path d="M61.1016 129.3C61.4016 129.3 61.6016 129.1 61.6016 128.8C61.6016 128.5 61.4016 128.3 61.1016 128.3C60.8016 128.3 60.6016 128.5 60.6016 128.8C60.6016 129.1 60.8016 129.3 61.1016 129.3Z" fill="#35414D"/>
<mask id="mask8_1118_8148" style="mask-type:luminance" maskUnits="userSpaceOnUse" x="34" y="121" width="20" height="24">
<path d="M53.6984 121H34.3984V144.6H53.6984V121Z" fill="white"/>
</mask>
<g mask="url(#mask8_1118_8148)">
<path fill-rule="evenodd" clip-rule="evenodd" d="M52.7984 142.3C52.9984 142.7 53.0984 143 53.1984 143.3C53.2984 143.5 53.1984 143.7 53.0984 143.9C52.9984 144 52.6984 144.1 52.2984 144.1C51.8984 144.1 51.3984 144.2 50.7984 144.2C50.2984 144.2 49.7984 144.2 49.4984 144.2C49.1984 144.2 48.8984 144.1 48.7984 144.1C48.5984 144 48.4984 144 48.3984 143.9C48.2984 143.8 48.2984 143.7 48.1984 143.6L43.9984 135.3L39.7984 143.4C39.6984 143.5 39.6984 143.7 39.5984 143.7C39.4984 143.8 39.3984 143.9 39.1984 143.9C38.9984 144 38.7984 144 38.3984 144C38.0984 144 37.6984 144 37.0984 144C36.4984 144 35.9984 144 35.6984 143.9C35.3984 143.9 35.1984 143.8 34.9984 143.7C34.8984 143.6 34.8984 143.4 34.8984 143.1C34.9984 142.9 35.0984 142.5 35.2984 142.1L40.6984 132.3L35.6984 123.1C35.4984 122.7 35.3984 122.3 35.2984 122.1C35.1984 121.9 35.2984 121.7 35.3984 121.5C35.4984 121.4 35.7984 121.3 36.0984 121.3C36.4984 121.3 36.9984 121.3 37.5984 121.3C38.0984 121.3 38.5984 121.3 38.8984 121.3C39.1984 121.3 39.4984 121.4 39.6984 121.4C39.8984 121.5 39.9984 121.5 40.0984 121.6C40.1984 121.7 40.1984 121.8 40.2984 121.9L44.2984 129.3L48.0984 121.9C48.1984 121.8 48.1984 121.6 48.2984 121.6C48.3984 121.5 48.4984 121.4 48.6984 121.4C48.8984 121.3 49.0984 121.3 49.3984 121.3C49.6984 121.3 50.0984 121.3 50.5984 121.3C51.1984 121.3 51.5984 121.3 51.9984 121.3C52.2984 121.3 52.5984 121.4 52.6984 121.5C52.7984 121.6 52.8984 121.8 52.7984 122.1C52.6984 122.3 52.5984 122.7 52.3984 123.1L47.3984 132.2L52.7984 142.3Z" fill="#787F8D"/>
</g>
<mask id="mask9_1118_8148" style="mask-type:luminance" maskUnits="userSpaceOnUse" x="34" y="121" width="20" height="24">
<path d="M53.6984 121H34.3984V144.6H53.6984V121Z" fill="white"/>
</mask>
<g mask="url(#mask9_1118_8148)">
<path d="M53.5969 143.2C53.4969 142.9 53.3969 142.6 53.1969 142.1L47.9969 132.5L52.8969 123.6C53.0969 123.1 53.1969 122.8 53.2969 122.5C53.3969 122 53.1969 121.6 53.0969 121.5C52.8969 121.3 52.5969 121.2 52.0969 121.1C51.7969 121.1 51.2969 121.1 50.6969 121.1C50.1969 121.1 49.6969 121.1 49.3969 121.1C49.0969 121.1 48.7969 121.2 48.5969 121.2C48.2969 121.3 48.1969 121.4 47.9969 121.6C47.8969 121.7 47.7969 121.8 47.6969 122L44.2969 128.6L40.7969 122C40.6969 121.8 40.5969 121.7 40.4969 121.6C40.3969 121.4 40.1969 121.3 39.8969 121.2C39.6969 121.1 39.3969 121.1 39.0969 121.1C38.7969 121.1 38.2969 121.1 37.7969 121.1C37.0969 121.1 36.5969 121.1 36.1969 121.1C35.6969 121.1 35.3969 121.3 35.1969 121.4C34.9969 121.6 34.7969 121.9 34.9969 122.4C35.0969 122.7 35.1969 123 35.4969 123.5L36.9969 126.3C37.0969 126.5 37.3969 126.6 37.5969 126.5C37.7969 126.4 37.8969 126.1 37.7969 125.9L36.2969 123.1C36.0969 122.7 35.9969 122.4 35.8969 122.2V122.1C35.8969 122.1 36.0969 122 36.2969 122C36.5969 122 37.0969 122 37.7969 122C38.2969 122 38.7969 122 39.0969 122C39.3969 122 39.5969 122.1 39.7969 122.1C39.8969 122.1 39.8969 122.2 39.9969 122.2C39.9969 122.3 40.0969 122.3 40.1969 122.5L44.1969 129.9C44.2969 130.1 44.3969 130.1 44.5969 130.1C44.7969 130.1 44.8969 130 44.9969 129.9L48.7969 122.5C48.8969 122.4 48.8969 122.3 48.9969 122.2C48.9969 122.2 48.9969 122.2 49.0969 122.1C49.1969 122.1 49.3969 122 49.6969 122C49.9969 122 50.3969 122 50.8969 122C51.4969 122 51.8969 122 52.1969 122C52.4969 122 52.5969 122.1 52.5969 122.1V122.2C52.4969 122.4 52.3969 122.7 52.1969 123.1L47.1969 132.2C47.0969 132.3 47.0969 132.5 47.1969 132.6L52.4969 142.4C52.6969 142.8 52.7969 143.1 52.8969 143.3C52.8969 143.4 52.8969 143.4 52.8969 143.4C52.8969 143.4 52.7969 143.5 52.3969 143.5C51.9969 143.5 51.5969 143.6 50.8969 143.6C50.3969 143.6 49.9969 143.6 49.6969 143.6C49.2969 143.6 48.9969 143.6 48.8969 143.6C48.7969 143.6 48.6969 143.5 48.6969 143.5C48.6969 143.5 48.5969 143.4 48.5969 143.3L44.3969 135.2C44.2969 135 44.1969 135 43.9969 135C43.7969 135 43.6969 135.1 43.5969 135.2L39.3969 143.3C39.3969 143.4 39.2969 143.5 39.1969 143.5C39.1969 143.5 39.1969 143.5 38.9969 143.6C38.8969 143.6 38.5969 143.7 38.2969 143.7C37.9969 143.7 37.5969 143.7 37.0969 143.7C36.4969 143.7 36.0969 143.7 35.6969 143.6C35.4969 143.6 35.3969 143.5 35.2969 143.5V143.4C35.3969 143.2 35.4969 142.9 35.6969 142.5L41.0969 132.7C41.1969 132.6 41.1969 132.4 41.0969 132.3L39.5969 129.5C39.4969 129.3 39.1969 129.2 38.9969 129.3C38.7969 129.4 38.6969 129.7 38.7969 129.9L40.1969 132.5L34.9969 142.1C34.6969 142.6 34.5969 142.9 34.4969 143.2C34.2969 143.7 34.4969 144 34.6969 144.2C34.8969 144.4 35.1969 144.5 35.6969 144.6C36.0969 144.6 36.4969 144.7 37.1969 144.7C37.6969 144.7 38.1969 144.7 38.4969 144.7C38.8969 144.7 39.0969 144.6 39.2969 144.6C39.5969 144.5 39.7969 144.4 39.8969 144.2C39.9969 144.1 40.0969 143.9 40.1969 143.8L43.9969 136.5L47.7969 143.8C47.8969 144 47.9969 144.1 48.0969 144.3C48.1969 144.5 48.3969 144.6 48.6969 144.7C48.8969 144.8 49.1969 144.8 49.4969 144.8C49.7969 144.8 50.2969 144.8 50.7969 144.8C51.4969 144.8 51.9969 144.8 52.3969 144.7C52.8969 144.7 53.1969 144.5 53.3969 144.3C53.4969 144 53.7969 143.7 53.5969 143.2Z" fill="#35414D"/>
</g>
<path d="M38.7969 127.9C38.7969 127.6 38.5969 127.4 38.2969 127.4C37.9969 127.4 37.7969 127.6 37.7969 127.9C37.7969 128.2 37.9969 128.4 38.2969 128.4C38.5969 128.4 38.7969 128.2 38.7969 127.9Z" fill="#35414D"/>
<path fill-rule="evenodd" clip-rule="evenodd" d="M31.9 142.3C31.9 142.6 31.9 142.9 31.9 143.2C31.9 143.4 31.8 143.6 31.8 143.7C31.7 143.8 31.7 143.9 31.6 144C31.5 144.1 31.4 144.1 31.3 144.1H19.9C19.5 144.1 19.2 144 18.9 143.8C18.6 143.6 18.5 143.2 18.5 142.7V123C18.5 122.5 18.6 122.1 18.9 121.9C19.2 121.7 19.5 121.6 19.9 121.6H31.2C31.3 121.6 31.4 121.6 31.5 121.7C31.6 121.8 31.6 121.9 31.7 122C31.8 122.1 31.8 122.3 31.8 122.6C31.8 122.8 31.8 123.1 31.8 123.5C31.8 123.8 31.8 124.1 31.8 124.3C31.8 124.5 31.7 124.7 31.7 124.8C31.6 124.9 31.6 125 31.5 125.1C31.4 125.2 31.3 125.2 31.2 125.2H23.1V130.6H29.9C30 130.6 30.1 130.6 30.2 130.7C30.3 130.8 30.4 130.9 30.4 131C30.5 131.1 30.5 131.3 30.5 131.5C30.5 131.7 30.5 132 30.5 132.3C30.5 132.6 30.5 132.9 30.5 133.1C30.5 133.3 30.4 133.5 30.4 133.6C30.3 133.7 30.3 133.8 30.2 133.9C30.1 134 30 134 29.9 134H23.1V140.4H31.2C31.3 140.4 31.4 140.4 31.5 140.5C31.6 140.6 31.7 140.7 31.7 140.8C31.8 140.9 31.8 141.1 31.8 141.3C31.9 141.7 31.9 142 31.9 142.3Z" fill="#787F8D"/>
<path d="M32.3 141.4C32.3 141.1 32.2 140.9 32.1 140.7C32 140.5 31.9 140.3 31.7 140.2C31.5 140.1 31.3 140 31.1 140H23.4V139.3C23.4 139 23.2 138.8 22.9 138.8C22.6 138.8 22.4 139 22.4 139.3V140.4C22.4 140.7 22.6 140.9 22.9 140.9H31C31 140.9 31 140.9 31.1 141C31.1 141.1 31.2 141.2 31.2 141.4C31.2 141.6 31.2 141.9 31.2 142.2C31.2 142.5 31.2 142.8 31.2 143C31.2 143.2 31.1 143.4 31.1 143.4C31.1 143.5 31 143.5 31 143.5H19.9C19.6 143.5 19.4 143.4 19.2 143.3C19 143.2 19 142.9 19 142.5V123C19 122.6 19.1 122.4 19.2 122.2C19.4 122 19.6 122 19.9 122H31.2C31.2 122 31.2 122 31.3 122.1C31.3 122.2 31.4 122.4 31.4 122.6C31.4 122.8 31.4 123.1 31.4 123.4C31.4 123.7 31.4 124 31.4 124.2C31.4 124.4 31.3 124.6 31.3 124.6C31.3 124.7 31.2 124.7 31.2 124.7H23.1C22.8 124.7 22.6 124.9 22.6 125.2V130.6C22.6 130.9 22.8 131.1 23.1 131.1H29.9C29.9 131.1 29.9 131.2 30 131.2C30 131.3 30.1 131.4 30.1 131.6C30.1 131.8 30.1 132 30.1 132.4C30.1 132.7 30.1 133 30.1 133.2C30.1 133.4 30 133.5 30 133.6C30 133.7 30 133.7 30 133.7H23.2C22.9 133.7 22.7 133.9 22.7 134.2V135.3C22.7 135.6 22.9 135.8 23.2 135.8C23.5 135.8 23.7 135.6 23.7 135.3V134.6H30C30.2 134.6 30.4 134.5 30.5 134.4C30.7 134.3 30.8 134.1 30.9 133.9C31 133.7 31 133.5 31.1 133.2C31.1 133 31.1 132.7 31.1 132.3C31.1 131.9 31.1 131.7 31.1 131.4C31.1 131.1 31 130.9 30.9 130.7C30.8 130.5 30.7 130.3 30.5 130.2C30.3 130.1 30.1 130 29.9 130H23.6V125.6H31.2C31.4 125.6 31.6 125.5 31.8 125.4C31.9 125.3 32 125.1 32.1 124.9C32.2 124.7 32.2 124.5 32.3 124.2C32.3 124 32.3 123.7 32.3 123.3C32.3 122.9 32.3 122.6 32.3 122.4C32.3 122.2 32.2 121.9 32.1 121.7C32 121.5 31.9 121.3 31.7 121.2C31.5 121.1 31.4 121 31.2 121H19.9C19.4 121 19 121.2 18.6 121.5C18.2 121.8 18 122.3 18 123V142.7C18 143.4 18.2 143.8 18.6 144.2C18.9 144.5 19.4 144.7 19.9 144.7H31.3C31.5 144.7 31.7 144.6 31.9 144.5C32.1 144.4 32.2 144.2 32.3 144C32.4 143.8 32.4 143.6 32.5 143.3C32.5 143.1 32.5 142.8 32.5 142.4C32.4 142 32.4 141.7 32.3 141.4Z" fill="#35414D"/>
<path d="M23.1016 136.9C22.8016 136.9 22.6016 137.1 22.6016 137.4C22.6016 137.7 22.8016 137.9 23.1016 137.9C23.4016 137.9 23.6016 137.7 23.6016 137.4C23.6016 137.1 23.4016 136.9 23.1016 136.9Z" fill="#35414D"/>
<path d="M75.1031 144C76.4286 144 77.5031 142.925 77.5031 141.6C77.5031 140.274 76.4286 139.2 75.1031 139.2C73.7776 139.2 72.7031 140.274 72.7031 141.6C72.7031 142.925 73.7776 144 75.1031 144Z" fill="#787F8D"/>
<path d="M75.1016 139.9C76.1016 139.9 76.9016 140.7 76.9016 141.7C76.9016 142.7 76.1016 143.5 75.1016 143.5C74.1016 143.5 73.4016 142.6 73.4016 141.6C73.4016 140.6 74.2016 139.9 75.1016 139.9ZM75.1016 138.7C73.5016 138.7 72.1016 140 72.1016 141.7C72.1016 143.4 73.4016 144.7 75.1016 144.7C76.8016 144.7 78.1016 143.4 78.1016 141.7C78.1016 140 76.8016 138.7 75.1016 138.7Z" fill="#35414D"/>
</g>
<defs>
<clipPath id="clip0_1118_8148">
<rect width="53.6947" height="77" fill="white" transform="translate(21.1523)"/>
</clipPath>
<clipPath id="clip1_1118_8148">
<rect width="96" height="58" fill="white" transform="translate(0 87)"/>
</clipPath>
</defs>
</svg>
