<svg width="96" height="143" viewBox="0 0 96 143" fill="none" xmlns="http://www.w3.org/2000/svg">
<g clip-path="url(#clip0_1118_8149)">
<path d="M67.4326 30.292C67.4326 25.7141 65.8742 21.5258 63.2443 18.1167C59.6404 13.4414 53.9911 10.4219 47.5625 10.4219L47.7573 25.1297C51.1664 25.1297 53.4067 28.6362 52.1404 31.6556L47.9521 42.1751L52.1404 52.8894C53.3093 55.8115 51.3612 59.1232 48.1469 59.4154L48.3417 73.9284C58.9586 73.4414 67.4326 64.7725 67.4326 54.0582C67.4326 49.5777 65.9716 45.4868 63.4391 42.1751C65.8742 38.8634 67.4326 34.7725 67.4326 30.292Z" fill="#70DCBA"/>
<path d="M48.3399 42.1751C56.5218 33.1167 56.2296 19.0907 47.5607 10.4219C43.275 10.4219 39.1841 11.7855 35.6776 14.318C32.1711 16.9478 31.4893 21.9154 34.0218 25.4219C36.6516 28.9284 41.6192 29.6102 45.1257 27.0777C45.6127 26.6881 46.3919 26.2985 47.4633 26.2985C49.6062 26.2985 51.4568 28.0517 51.4568 30.292C51.4568 32.4349 49.7036 34.2855 47.4633 34.2855C43.0802 34.2855 39.5737 37.792 39.5737 42.1751C39.5737 46.5582 43.0802 50.0647 47.4633 50.0647C49.6062 50.0647 51.4568 51.818 51.4568 54.0582C51.4568 56.2011 49.7036 58.0517 47.4633 58.0517C46.0023 58.0517 44.7361 57.2725 44.0542 56.1037C41.814 52.305 37.0412 51.0388 33.2425 53.1816C29.4438 55.4219 28.1776 60.1946 30.3205 63.9933C33.9244 70.1297 40.5477 73.9284 47.5607 73.9284C47.8529 73.9284 48.1451 73.9284 48.3399 73.9284C57.1062 65.1621 57.1062 50.9414 48.3399 42.1751Z" fill="#18C08B"/>
<path d="M60.8091 8.57164C60.1273 5.64956 57.887 3.4093 55.0623 2.53268L53.8935 2.14307H46.0039V12.8574C46.6857 12.8574 47.3675 12.8574 47.952 12.8574C53.3091 12.7599 59.7377 15.682 63.0494 18.2145C62.952 16.9483 61.0039 9.35086 60.8091 8.57164Z" fill="#FF8E9E"/>
<mask id="mask0_1118_8149" style="mask-type:luminance" maskUnits="userSpaceOnUse" x="27" y="0" width="42" height="75">
<path d="M68.5026 0H27.4961V75H68.5026V0Z" fill="white"/>
</mask>
<g mask="url(#mask0_1118_8149)">
<path d="M50.5791 1.4609C49.7025 1.26609 48.9232 1.07129 48.0466 1.07129C47.17 1.07129 46.2934 1.16869 45.5142 1.4609L41.131 2.53233C38.209 3.40895 36.0661 5.74661 35.2869 8.57129C35.0921 9.25311 33.5336 15.4869 32.9492 18.1167C36.5531 15.3895 41.3258 13.0518 46.0986 12.857C46.5856 10.909 47.0726 9.0583 47.17 8.57129C47.8518 5.64921 50.0921 3.40895 52.9168 2.53233L54.0856 2.14272L50.5791 1.4609Z" fill="#EA5B70"/>
</g>
<mask id="mask1_1118_8149" style="mask-type:luminance" maskUnits="userSpaceOnUse" x="27" y="0" width="42" height="75">
<path d="M68.5026 0H27.4961V75H68.5026V0Z" fill="white"/>
</mask>
<g mask="url(#mask1_1118_8149)">
<path d="M35.1928 6.5261C26.4266 7.30532 27.1084 15.8768 32.9526 18.117C37.6279 15.5845 42.5954 14.3183 48.05 14.4157C53.5045 14.3183 58.472 15.5845 63.1474 18.117C58.3746 13.0521 46.2967 5.55208 35.1928 6.5261Z" fill="#676FB2"/>
</g>
<path d="M43.8594 40.9093V42.6626C43.8594 43.247 44.3464 43.734 44.9308 43.734C45.5152 43.734 46.0022 43.247 46.0022 42.6626V40.9093C46.0022 40.3249 45.5152 39.8379 44.9308 39.8379C44.3464 39.8379 43.8594 40.3249 43.8594 40.9093Z" fill="#35414D"/>
<path d="M59.639 42.6626V40.9093C59.639 40.3249 59.1519 39.8379 58.5675 39.8379C57.9831 39.8379 57.4961 40.3249 57.4961 40.9093V42.6626C57.4961 43.247 57.9831 43.734 58.5675 43.734C59.1519 43.8314 59.639 43.3444 59.639 42.6626Z" fill="#35414D"/>
<path d="M54.8661 41.7859C54.3791 41.3963 53.6973 41.3963 53.3077 41.8833C52.9181 42.3703 52.3337 42.5652 51.7492 42.5652C51.1648 42.5652 50.5804 42.2729 50.1908 41.8833C49.8012 41.3963 49.1194 41.3963 48.6324 41.7859C48.1453 42.1755 48.1453 42.8574 48.535 43.3444C49.3142 44.3184 50.5804 44.8054 51.7492 44.8054C53.0155 44.8054 54.1843 44.221 54.9635 43.3444C55.3531 42.9548 55.3531 42.1755 54.8661 41.7859Z" fill="#35414D"/>
<path d="M64.2161 17.6299C64.0213 16.8506 63.6317 15.0974 63.1446 13.2468C62.9498 12.6623 62.3654 12.2727 61.781 12.4675C61.1966 12.6623 60.807 13.2468 61.0018 13.8312C61.0992 14.2208 61.1966 14.513 61.294 14.9026C56.0343 10.6169 47.268 5.74675 38.307 5.35714C39.1836 4.48052 40.1576 3.7987 41.3265 3.6039C41.4239 3.6039 45.807 2.53247 45.9044 2.53247C47.3654 2.04545 48.9239 2.04545 50.3849 2.53247L54.768 3.8961C57.3979 4.67532 59.1511 6.42857 59.7355 8.86364L59.9304 9.54545C60.0278 10.0325 60.5148 10.4221 61.0018 10.4221C61.0992 10.4221 61.1966 10.4221 61.294 10.4221C61.8784 10.2273 62.268 9.64286 62.0732 9.05844L61.8784 8.37662C61.0992 5.25974 58.8589 2.92208 55.4498 1.85065L50.9693 0.487013C49.9953 0.0974026 49.1187 0 48.1446 0C47.1706 0 46.294 0.0974026 45.32 0.38961L40.8394 1.46104C38.6966 1.94805 36.7485 3.40909 35.4823 5.45455C31.0992 5.84416 28.0797 7.98701 27.5927 11.2013C27.1057 14.1234 28.8589 17.2403 31.6836 18.7987C29.833 26.9805 39.1836 33.1169 45.9044 28.0519C47.755 26.6883 50.4823 27.9545 50.4823 30.3896C50.4823 31.9481 49.2161 33.2143 47.5602 33.2143C42.5927 33.2143 38.5018 37.3052 38.5018 42.2727C38.5018 47.2403 42.5927 51.3312 47.5602 51.3312C49.1187 51.3312 50.3849 52.5974 50.3849 54.1558C50.3849 57.0779 46.4888 58.1493 45.0278 55.6169C42.9823 52.1104 38.794 50.3571 34.8005 51.4286C34.2161 51.6234 33.8265 52.2078 34.0213 52.7922C34.2161 53.3766 34.8005 53.7662 35.3849 53.5714C38.4044 52.7922 41.5213 54.0584 43.0797 56.7857C45.7096 61.2662 52.5278 59.4156 52.5278 54.2532C52.5278 51.4286 50.2875 49.1883 47.4628 49.1883C43.6641 49.1883 40.6446 46.1688 40.6446 42.3701C40.6446 38.5714 43.6641 35.5519 47.4628 35.5519C50.2875 35.5519 52.5278 33.3117 52.5278 30.487C52.5278 26.2987 47.755 23.961 44.4433 26.3961C39.1836 30.2922 31.9758 25.3247 33.8265 19.0909C38.2096 16.7532 42.8849 15.6818 48.0472 15.6818C53.307 15.5844 57.9823 16.7532 62.4628 19.1883C67.4304 25.7143 67.5278 34.6753 62.8524 41.2987C62.268 41.2987 61.781 41.7857 61.781 42.3701C61.781 42.9545 62.268 43.4416 62.8524 43.4416C71.5213 55.6169 62.9498 72.9545 47.5602 72.9545C40.9368 72.9545 34.7031 69.3507 31.3914 63.6039C29.9304 60.974 30.2226 57.7597 32.268 55.5195C32.6576 55.0325 32.6576 54.3507 32.1706 53.961C31.6836 53.5714 31.0018 53.5714 30.6122 54.0584C27.8849 56.9805 27.3979 61.2662 29.4433 64.7727C33.1446 71.0065 40.1576 75 47.5602 75C53.2096 75 58.6641 72.7597 62.6576 68.5714C69.5732 61.3636 70.4498 50.2597 64.8005 42.1753C69.8654 34.8701 69.768 24.9351 64.2161 17.6299ZM32.9498 16.9481C30.7096 15.8766 29.4433 13.6364 29.7355 11.4935C30.7096 5.16234 45.1252 6.42857 56.9109 14.4156C50.0927 12.5649 40.8394 12.7597 32.9498 16.9481Z" fill="#35414D"/>
</g>
<g clip-path="url(#clip1_1118_8149)">
<path fill-rule="evenodd" clip-rule="evenodd" d="M78.9031 107.4C78.9031 107.5 78.9031 107.6 78.8031 107.7C78.8031 107.8 78.6031 107.9 78.5031 107.9C78.3031 108 78.1031 108 77.7031 108C77.4031 108 76.9031 108 76.3031 108C75.8031 108 75.4031 108 75.1031 108C74.8031 108 74.6031 107.9 74.4031 107.9C74.2031 107.8 74.1031 107.8 74.0031 107.7C73.9031 107.6 73.9031 107.5 73.8031 107.3L71.8031 102.3C71.6031 101.7 71.3031 101.2 71.1031 100.8C70.9031 100.4 70.6031 100 70.3031 99.7C70.0031 99.4 69.7031 99.2 69.3031 99C68.9031 98.9 68.5031 98.8 68.0031 98.8H66.6031V107.4C66.6031 107.5 66.6031 107.6 66.5031 107.7C66.4031 107.8 66.3031 107.9 66.1031 107.9C66.1031 108 65.9031 108 65.6031 108C65.3031 108 64.9031 108.1 64.5031 108.1C64.1031 108.1 63.7031 108.1 63.4031 108C63.1031 108 62.9031 107.9 62.7031 107.9C62.5031 107.8 62.4031 107.8 62.3031 107.7C62.2031 107.6 62.2031 107.5 62.2031 107.4V86.9C62.2031 86.4 62.3031 86 62.6031 85.8C62.9031 85.6 63.2031 85.5 63.6031 85.5H69.4031C70.0031 85.5 70.5031 85.5 70.9031 85.5C71.3031 85.5 71.6031 85.6 71.9031 85.6C72.8031 85.7 73.6031 86 74.3031 86.3C75.0031 86.6 75.6031 87 76.1031 87.5C76.6031 88 77.0031 88.6 77.3031 89.3C77.6031 90 77.7031 90.8 77.7031 91.7C77.7031 92.4 77.6031 93.1 77.4031 93.8C77.2031 94.4 76.9031 95 76.6031 95.5C76.2031 96 75.8031 96.4 75.2031 96.8C74.7031 97.2 74.0031 97.4 73.3031 97.7C73.6031 97.9 74.0031 98.1 74.3031 98.3C74.6031 98.5 74.9031 98.8 75.1031 99.1C75.4031 99.4 75.6031 99.8 75.8031 100.2C76.0031 100.6 76.3031 101.1 76.5031 101.6L78.4031 106.1C78.6031 106.5 78.7031 106.9 78.7031 107.1C78.9031 107.1 78.9031 107.3 78.9031 107.4ZM73.0031 92.1C73.0031 91.4 72.8031 90.7 72.5031 90.2C72.2031 89.7 71.6031 89.3 70.8031 89.1C70.6031 89.1 70.4031 89 70.1031 89C69.8031 89 69.4031 89 68.8031 89H66.7031V95.4H69.0031C69.7031 95.4 70.2031 95.3 70.7031 95.2C71.2031 95 71.6031 94.8 71.9031 94.5C72.2031 94.2 72.5031 93.9 72.6031 93.5C72.9031 93 73.0031 92.6 73.0031 92.1Z" fill="#787F8D"/>
<path d="M66.8008 95.8H69.1008C69.8008 95.8 70.4008 95.7 70.9008 95.5C71.4008 95.3 71.9008 95.1 72.3008 94.8C72.7008 94.5 73.0008 94.1 73.2008 93.6C73.4008 93.1 73.5008 92.6 73.5008 92.1C73.5008 91.3 73.3008 90.5 72.9008 90C72.5008 89.4 71.9008 89 71.0008 88.7C70.8008 88.6 70.5008 88.6 70.2008 88.6C69.9008 88.6 69.5008 88.5 68.9008 88.5H66.8008C66.5008 88.5 66.3008 88.7 66.3008 89V95.4C66.3008 95.6 66.5008 95.8 66.8008 95.8ZM67.2008 89.4H68.8008C69.3008 89.4 69.7008 89.4 70.0008 89.5C70.3008 89.5 70.5008 89.6 70.7008 89.6C71.3008 89.8 71.8008 90.1 72.1008 90.5C72.4008 90.9 72.5008 91.5 72.5008 92.1C72.5008 92.5 72.4008 92.9 72.3008 93.2C72.2008 93.5 72.0008 93.8 71.7008 94C71.4008 94.2 71.1008 94.4 70.6008 94.6C70.2008 94.7 69.7008 94.8 69.0008 94.8H67.1008L67.2008 89.4Z" fill="#35414D"/>
<path d="M79.3016 106.8C79.2016 106.6 79.1016 106.2 78.9016 105.8L77.0016 101.3C76.8016 100.7 76.5016 100.2 76.3016 99.8001C76.1016 99.4001 75.8016 99.0001 75.5016 98.6001C75.2016 98.2001 74.9016 97.9001 74.6016 97.7001C74.5016 97.7001 74.5016 97.6001 74.4016 97.6001C74.8016 97.4001 75.1016 97.2001 75.5016 97.0001C76.1016 96.6001 76.6016 96.2001 77.0016 95.6001C77.4016 95.1001 77.7016 94.5001 77.9016 93.8001C78.1016 93.1001 78.2016 92.4001 78.2016 91.6001C78.2016 90.6001 78.1016 89.8001 77.8016 89.1001C77.5016 88.4001 77.1016 87.7001 76.5016 87.2001C76.0016 86.7001 75.3016 86.2001 74.5016 85.9001C73.7016 85.6001 72.9016 85.3001 71.9016 85.2001C71.5016 85.2001 71.2016 85.1001 70.8016 85.1001C70.4016 85.1001 69.9016 85.1001 69.3016 85.1001H63.5016C63.0016 85.1001 62.6016 85.3001 62.2016 85.6001C61.8016 85.9001 61.6016 86.4001 61.6016 87.1001V107.6C61.6016 107.8 61.7016 108 61.8016 108.2C61.9016 108.4 62.1016 108.5 62.4016 108.6C62.6016 108.7 62.9016 108.7 63.2016 108.8C63.5016 108.8 63.9016 108.9 64.4016 108.9C64.9016 108.9 65.3016 108.9 65.6016 108.8C65.9016 108.8 66.2016 108.7 66.4016 108.6C66.7016 108.5 66.8016 108.4 67.0016 108.2C67.1016 108 67.2016 107.8 67.2016 107.6V105.4C67.2016 105.1 67.0016 104.9 66.7016 104.9C66.4016 104.9 66.2016 105.1 66.2016 105.4V107.6C66.2016 107.6 66.2016 107.6 66.0016 107.7C65.9016 107.7 65.7016 107.8 65.4016 107.8C65.1016 107.8 64.8016 107.9 64.4016 107.9C64.0016 107.9 63.6016 107.9 63.3016 107.8C63.1016 107.8 62.8016 107.7 62.7016 107.7C62.6016 107.7 62.6016 107.6 62.6016 107.6V86.9001C62.6016 86.5001 62.7016 86.3001 62.8016 86.1001C63.0016 85.9001 63.2016 85.9001 63.5016 85.9001H69.3016C69.9016 85.9001 70.4016 85.9001 70.7016 85.9001C71.0016 85.9001 71.4016 85.9001 71.7016 86.0001C72.6016 86.1001 73.3016 86.3001 74.0016 86.6001C74.7016 86.9001 75.2016 87.3001 75.7016 87.7001C76.2016 88.2001 76.5016 88.7001 76.8016 89.3001C77.0016 89.9001 77.2016 90.7001 77.2016 91.5001C77.2016 92.2001 77.1016 92.8001 76.9016 93.4001C76.7016 94.0001 76.5016 94.5001 76.1016 94.9001C75.8016 95.3001 75.3016 95.7001 74.8016 96.1001C74.3016 96.4001 73.7016 96.7001 73.0016 96.9001C72.8016 97.0001 72.7016 97.1001 72.7016 97.3001C72.7016 97.5001 72.8016 97.7001 73.0016 97.7001C73.3016 97.8001 73.6016 98.0001 73.9016 98.2001C74.2016 98.4001 74.4016 98.7001 74.7016 99.0001C75.0016 99.3001 75.2016 99.7001 75.4016 100.1C75.6016 100.5 75.8016 101 76.1016 101.5L78.0016 105.9C78.1016 106.3 78.3016 106.6 78.3016 106.8C78.4016 107 78.4016 107.1 78.4016 107.2V107.3C78.4016 107.3 78.4016 107.3 78.3016 107.3C78.2016 107.3 78.0016 107.4 77.6016 107.4C77.3016 107.4 76.8016 107.4 76.3016 107.4C75.8016 107.4 75.5016 107.4 75.2016 107.4C74.9016 107.4 74.7016 107.3 74.6016 107.3C74.5016 107.3 74.5016 107.2 74.5016 107.2C74.5016 107.1 74.4016 107 74.4016 107L72.4016 102C72.1016 101.4 71.9016 100.9 71.7016 100.4C71.5016 99.9001 71.2016 99.5001 70.8016 99.2001C70.5016 98.9001 70.1016 98.6001 69.6016 98.4001C69.2016 98.2001 68.7016 98.1001 68.1016 98.1001H66.7016C66.4016 98.1001 66.2016 98.3001 66.2016 98.6001V101C66.2016 101.3 66.4016 101.5 66.7016 101.5C67.0016 101.5 67.2016 101.3 67.2016 101V99.2001H68.2016C68.6016 99.2001 69.0016 99.3001 69.3016 99.4001C69.6016 99.5001 69.9016 99.7001 70.1016 100C70.4016 100.3 70.6016 100.6 70.8016 101C71.0016 101.4 71.2016 101.9 71.5016 102.5L73.5016 107.5C73.6016 107.7 73.6016 107.8 73.7016 107.9C73.8016 108.1 74.0016 108.2 74.3016 108.3C74.5016 108.4 74.8016 108.4 75.1016 108.5C75.4016 108.5 75.8016 108.5 76.3016 108.5C76.9016 108.5 77.4016 108.5 77.7016 108.5C78.1016 108.5 78.3016 108.4 78.6016 108.4C78.9016 108.3 79.1016 108.2 79.2016 108C79.3016 107.8 79.3016 107.7 79.3016 107.5C79.4016 107.2 79.4016 107 79.3016 106.8Z" fill="#35414D"/>
<path d="M66.8008 102.6C66.5008 102.6 66.3008 102.8 66.3008 103.1C66.3008 103.4 66.5008 103.6 66.8008 103.6C67.1008 103.6 67.3008 103.4 67.3008 103.1C67.2008 102.8 67.0008 102.6 66.8008 102.6Z" fill="#35414D"/>
<path fill-rule="evenodd" clip-rule="evenodd" d="M95.7016 101.2C95.7016 102.4 95.5016 103.4 95.1016 104.2C94.7016 105.1 94.1016 105.8 93.4016 106.4C92.7016 107 91.8016 107.4 90.8016 107.7C89.8016 108 88.8016 108.1 87.7016 108.1C86.9016 108.1 86.2016 108 85.6016 107.9C85.0016 107.8 84.4016 107.6 83.9016 107.4C83.4016 107.2 83.0016 107 82.7016 106.8C82.4016 106.6 82.1016 106.4 82.0016 106.3C81.9016 106.2 81.8016 105.9 81.7016 105.7C81.6016 105.4 81.6016 105 81.6016 104.5C81.6016 104.1 81.6016 103.9 81.6016 103.6C81.6016 103.4 81.7016 103.2 81.7016 103C81.8016 102.9 81.8016 102.8 81.9016 102.7C82.0016 102.6 82.1016 102.6 82.2016 102.6C82.4016 102.6 82.6016 102.7 82.9016 102.9C83.2016 103.1 83.6016 103.3 84.0016 103.5C84.4016 103.7 85.0016 103.9 85.6016 104.1C86.2016 104.3 86.9016 104.4 87.8016 104.4C88.3016 104.4 88.8016 104.3 89.3016 104.2C89.7016 104.1 90.1016 103.9 90.4016 103.7C90.7016 103.5 90.9016 103.2 91.1016 102.8C91.3016 102.5 91.3016 102.1 91.3016 101.6C91.3016 101.1 91.2016 100.7 90.9016 100.3C90.6016 99.8998 90.3016 99.5998 89.8016 99.3998C89.4016 99.0998 88.9016 98.8998 88.3016 98.5998C87.8016 98.3998 87.2016 98.0998 86.6016 97.7998C86.0016 97.4998 85.4016 97.1998 84.9016 96.8998C84.3016 96.5998 83.9016 96.1998 83.4016 95.6998C83.0016 95.1998 82.6016 94.6998 82.3016 93.9998C82.0016 93.2998 81.9016 92.5998 81.9016 91.6998C81.9016 90.6998 82.1016 89.6998 82.5016 88.8998C82.9016 88.0998 83.4016 87.4998 84.1016 86.8998C84.8016 86.3998 85.5016 85.9998 86.4016 85.6998C87.3016 85.3998 88.2016 85.2998 89.2016 85.2998C89.7016 85.2998 90.2016 85.2998 90.8016 85.3998C91.3016 85.4998 91.8016 85.5998 92.3016 85.6998C92.6016 85.9998 93.0016 86.1998 93.3016 86.3998C93.6016 86.5998 93.9016 86.6998 94.0016 86.7998C94.1016 86.8998 94.2016 86.9998 94.2016 87.0998C94.2016 87.1998 94.3016 87.2998 94.3016 87.3998C94.3016 87.4998 94.3016 87.6998 94.4016 87.8998C94.4016 88.0998 94.4016 88.2998 94.4016 88.5998C94.4016 88.8998 94.4016 89.1998 94.4016 89.3998C94.4016 89.5998 94.4016 89.7998 94.3016 89.9998C94.3016 90.0998 94.2016 90.2998 94.1016 90.2998C94.0016 90.3998 93.9016 90.3998 93.8016 90.3998C93.7016 90.3998 93.5016 90.2998 93.2016 90.1998C92.9016 89.9998 92.6016 89.8998 92.2016 89.6998C91.8016 89.4998 91.3016 89.2998 90.8016 89.1998C90.3016 88.9998 89.7016 88.9998 89.1016 88.9998C88.6016 88.9998 88.2016 89.0998 87.8016 89.1998C87.4016 89.2998 87.1016 89.4998 86.9016 89.6998C86.7016 89.8998 86.5016 90.1998 86.4016 90.4998C86.3016 90.7998 86.2016 91.0998 86.2016 91.3998C86.2016 91.8998 86.3016 92.2998 86.6016 92.6998C86.9016 93.0998 87.2016 93.3998 87.7016 93.6998C88.1016 93.9998 88.7016 94.1998 89.2016 94.4998C89.8016 94.6998 90.3016 94.9998 90.9016 95.2998C91.5016 95.5998 92.1016 95.8998 92.6016 96.1998C93.2016 96.4998 93.7016 96.9998 94.1016 97.3998C94.5016 97.8998 94.9016 98.3998 95.2016 99.0998C95.6016 99.4998 95.7016 100.3 95.7016 101.2Z" fill="#787F8D"/>
<path d="M95.7 98.7C95.4 98 95 97.4 94.5 96.9C94 96.4 93.5 96 92.9 95.6C92.3 95.3 91.7 94.9 91.1 94.6C90.5 94.3 89.9 94.1 89.4 93.8C88.9 93.6 88.4 93.3 87.9 93.1C87.5 92.9 87.2 92.6 87 92.3C86.8 92 86.7 91.7 86.7 91.3C86.7 91 86.7 90.8 86.8 90.5C86.9 90.3 87 90.1 87.2 89.9C87.4 89.7 87.7 89.6 87.9 89.5C88.2 89.4 88.6 89.3 89 89.3C89.6 89.3 90.1 89.4 90.6 89.5C91.1 89.6 91.5 89.8 91.9 90C92.3 90.2 92.6 90.4 92.9 90.5C93.3 90.7 93.5 90.8 93.7 90.8C94 90.8 94.2 90.7 94.3 90.6C94.4 90.5 94.5 90.3 94.6 90.1C94.6 89.9 94.7 89.7 94.7 89.5C94.7 89.3 94.7 89 94.7 88.6C94.7 88.3 94.7 88 94.7 87.8C94.7 87.6 94.7 87.4 94.6 87.2C94.6 87 94.5 86.9 94.5 86.8C94.4 86.7 94.3 86.5 94.2 86.4C94 86.2 93.8 86.1 93.4 85.9C93 85.7 92.6 85.6 92.1 85.4C91.6 85.3 91.1 85.1 90.6 85.1C90.2 85 89.6 85 89.1 85C88 85 87 85.1 86.1 85.4C85.2 85.7 84.3 86.1 83.6 86.7C82.9 87.3 82.3 88 81.9 88.8C81.5 89.7 81.3 90.7 81.3 91.8C81.3 92.8 81.4 93.6 81.7 94.3C82 95 82.4 95.6 82.8 96.1C83.2 96.6 83.7 97 84.3 97.3C84.5 97.4 84.8 97.4 84.9 97.2C85 97 85 96.7 84.8 96.6C84.3 96.3 83.9 95.9 83.5 95.5C83.1 95.1 82.8 94.5 82.5 93.9C82.3 93.3 82.1 92.6 82.1 91.7C82.1 90.7 82.3 89.9 82.6 89.1C83 88.4 83.4 87.8 84 87.3C84.6 86.8 85.3 86.4 86.2 86.2C87 86 88 85.8 88.9 85.8C89.4 85.8 89.9 85.8 90.4 85.9C90.9 86 91.3 86.1 91.8 86.2C92.2 86.3 92.6 86.5 92.9 86.6C93.3 86.8 93.4 86.9 93.5 86.9C93.6 87 93.6 87.1 93.6 87.1C93.6 87.1 93.6 87.2 93.7 87.3C93.7 87.4 93.7 87.5 93.7 87.7C93.7 87.9 93.7 88.1 93.7 88.4C93.7 88.7 93.7 89 93.7 89.2C93.7 89.4 93.7 89.6 93.6 89.7V89.8C93.6 89.8 93.5 89.7 93.2 89.6C92.9 89.4 92.6 89.3 92.2 89.1C92 89 91.5 88.9 91 88.7C90.4 88.5 89.8 88.5 89.2 88.5C88.7 88.5 88.2 88.6 87.8 88.7C87.3 88.8 87 89 86.7 89.2C86.4 89.5 86.2 89.8 86 90.1C85.9 90.4 85.8 90.8 85.8 91.2C85.8 91.8 86 92.3 86.3 92.7C86.6 93.1 87 93.5 87.5 93.8C88 94.1 88.5 94.4 89.1 94.6C89.6 94.8 90.2 95.1 90.8 95.4C91.4 95.7 92 96 92.5 96.3C93 96.6 93.5 97 93.9 97.5C94.3 97.9 94.6 98.5 94.9 99.1C95.1 99.7 95.3 100.4 95.3 101.2C95.3 102.3 95.1 103.2 94.7 104C94.3 104.8 93.8 105.5 93.1 106C92.4 106.5 91.6 107 90.7 107.2C89.8 107.5 88.8 107.6 87.7 107.6C87 107.6 86.3 107.5 85.7 107.4C85.1 107.3 84.5 107.1 84.1 107C83.6 106.8 83.2 106.7 82.9 106.5C82.6 106.3 82.4 106.1 82.3 106.1C82 106 82 105.8 81.9 105.6C81.8 105.4 81.8 105 81.8 104.5C81.8 104.2 81.8 103.9 81.8 103.7C81.8 103.5 81.8 103.3 81.9 103.2C81.9 103.1 81.9 103.1 81.9 103.1C81.9 103.1 82 103.1 82.3 103.3C82.6 103.5 83 103.7 83.4 103.9C83.9 104.1 84.4 104.4 85.1 104.5C85.8 104.7 86.5 104.8 87.4 104.8C88 104.8 88.5 104.7 89 104.6C89.5 104.4 89.9 104.2 90.2 104C90.6 103.7 90.8 103.4 91 103C91.2 102.6 91.3 102.1 91.3 101.7C91.3 101.1 91.1 100.6 90.8 100.1C90.5 99.7 90.1 99.4 89.6 99C89.2 98.7 88.7 98.5 88.2 98.3C88 98.2 87.7 98.3 87.6 98.5C87.5 98.7 87.6 99 87.8 99.1C88.3 99.3 88.7 99.5 89 99.8C89.4 100.1 89.7 100.3 89.9 100.6C90.1 100.9 90.2 101.2 90.2 101.6C90.2 102 90.1 102.3 90 102.6C89.9 102.9 89.7 103.1 89.4 103.3C89.1 103.5 88.8 103.7 88.5 103.8C88.6 104 88.1 104 87.6 104C86.8 104 86.1 103.9 85.6 103.7C85 103.5 84.5 103.3 84.1 103.1C83.7 102.9 83.3 102.7 83 102.5C82.6 102.3 82.3 102.1 82.1 102.1C81.9 102.1 81.7 102.2 81.5 102.3C81.3 102.4 81.2 102.6 81.1 102.8C81 103.1 81 103.3 81 103.6C81 103.9 81 104.2 81 104.5C81 105.1 81 105.5 81.1 105.8C81.2 106.2 81.3 106.4 81.5 106.7C81.7 106.9 82 107.1 82.3 107.3C82.7 107.5 83.1 107.7 83.6 107.9C84.1 108.1 84.7 108.2 85.4 108.4C86.1 108.5 86.8 108.6 87.6 108.6C88.8 108.6 89.9 108.4 90.9 108.1C91.9 107.8 92.8 107.3 93.6 106.7C94.4 106.1 95 105.3 95.5 104.4C96 103.5 96.2 102.4 96.2 101.2C96.1 100.2 96 99.4 95.7 98.7Z" fill="#35414D"/>
<path d="M86.8984 98C86.8984 97.7 86.6984 97.5 86.3984 97.5C86.0984 97.5 85.8984 97.7 85.8984 98C85.8984 98.3 86.0984 98.5 86.3984 98.5C86.6984 98.4 86.8984 98.2 86.8984 98Z" fill="#35414D"/>
<mask id="mask2_1118_8149" style="mask-type:luminance" maskUnits="userSpaceOnUse" x="0" y="85" width="19" height="24">
<path d="M18.8 85H0V108.6H18.8V85Z" fill="white"/>
</mask>
<g mask="url(#mask2_1118_8149)">
<path fill-rule="evenodd" clip-rule="evenodd" d="M11.6984 99.5V107.4C11.6984 107.5 11.6984 107.6 11.5984 107.7C11.4984 107.8 11.3984 107.9 11.1984 107.9C10.9984 108 10.7984 108 10.4984 108C10.1984 108 9.79844 108.1 9.39844 108.1C8.99844 108.1 8.59844 108.1 8.29844 108C7.99844 108 7.79844 108 7.59844 107.9C7.39844 107.8 7.29844 107.8 7.19844 107.7C7.09844 107.6 7.09844 107.5 7.09844 107.4V99.5L0.998437 87.3C0.798437 86.9 0.598438 86.5 0.598438 86.3C0.498438 86 0.498438 85.9 0.598438 85.7C0.798438 85.6 0.998437 85.5 1.39844 85.5C1.79844 85.5 2.29844 85.5 2.89844 85.5C3.39844 85.5 3.89844 85.5 4.19844 85.5C4.49844 85.5 4.79844 85.6 4.99844 85.6C5.19844 85.7 5.29844 85.7 5.39844 85.8C5.39844 86 5.49844 86.1 5.49844 86.3L7.99844 91.8C8.19844 92.3 8.49844 92.9 8.69844 93.5C8.99844 94.1 9.19844 94.7 9.49844 95.3C9.69844 94.7 9.89844 94.1 10.1984 93.5C10.3984 92.9 10.6984 92.4 10.8984 91.8L13.3984 86.3C13.4984 86.1 13.4984 86 13.5984 85.9C13.6984 85.8 13.7984 85.7 13.9984 85.6C14.1984 85.5 14.3984 85.5 14.6984 85.5C14.9984 85.5 15.3984 85.5 15.8984 85.5C16.5984 85.5 17.0984 85.5 17.3984 85.5C17.7984 85.5 17.9984 85.6 18.0984 85.7C18.1984 85.8 18.2984 86 18.1984 86.2C18.0984 86.4 17.9984 86.8 17.7984 87.2L11.6984 99.5Z" fill="#787F8D"/>
</g>
<mask id="mask3_1118_8149" style="mask-type:luminance" maskUnits="userSpaceOnUse" x="0" y="85" width="19" height="24">
<path d="M18.8 85H0V108.6H18.8V85Z" fill="white"/>
</mask>
<g mask="url(#mask3_1118_8149)">
<path d="M18.3985 85.4C18.1985 85.2 17.8985 85.1 17.3985 85.1C16.9985 85.1 16.4985 85.1 15.7985 85.1C15.2985 85.1 14.8985 85.1 14.5985 85.1C14.2985 85.1 13.9985 85.2 13.7985 85.3C13.4985 85.4 13.3985 85.5 13.1985 85.7C13.0985 85.8 12.9985 86 12.8985 86.3L10.3985 91.8C10.1985 92.3 9.99847 92.8 9.79847 93.3C9.69847 93.6 9.59847 93.8 9.49847 94.1C9.39847 93.8 9.29847 93.5 9.19847 93.3C8.99847 92.7 8.69847 92.2 8.49847 91.6L5.99847 86.1C5.89847 85.9 5.79847 85.7 5.69847 85.6C5.49847 85.4 5.29847 85.3 4.99847 85.2C4.79847 85.1 4.49847 85.1 4.19847 85C3.79847 85 3.39847 85 2.89847 85C2.19847 85 1.69847 85 1.29847 85C0.798468 85 0.498468 85.2 0.298468 85.3C0.0984677 85.4 -0.101532 85.8 0.0984677 86.3C0.198468 86.7 0.298468 87 0.598468 87.5L2.69847 91.8C2.79847 92 3.09847 92 3.29847 91.9C3.49847 91.8 3.59847 91.5 3.49847 91.3L1.39847 87.1C1.09847 86.6 0.998468 86.3 0.998468 86.1V86C0.998468 86 1.09847 86 1.39847 86C1.69847 86 2.19847 86 2.79847 86C3.29847 86 3.69847 86 3.99847 86C4.39847 86 4.59847 86 4.69847 86.1C4.79847 86.1 4.89847 86.2 4.89847 86.2C4.99847 86.3 5.09847 86.4 5.09847 86.5L7.59847 92C7.79847 92.5 8.09847 93.1 8.29847 93.7C8.49847 94.3 8.79847 94.9 8.99847 95.5C9.09847 95.7 9.19847 95.8 9.39847 95.8C9.59847 95.8 9.79847 95.7 9.79847 95.5C9.99847 94.9 10.1985 94.3 10.4985 93.7C10.7985 93.1 10.9985 92.6 11.2985 92L13.7985 86.5C13.7985 86.5 13.7985 86.5 13.7985 86.4C13.8985 86.2 13.8985 86.2 13.8985 86.1C13.8985 86.1 13.9985 86 14.0985 86C14.1985 86 14.3985 86 14.6985 86C14.9985 86 15.3985 86 15.8985 86C16.5985 86 17.0985 86 17.3985 86C17.6985 86 17.7985 86.1 17.8985 86.1C17.8985 86.1 17.8985 86.1 17.8985 86.2C17.7985 86.4 17.6985 86.7 17.4985 87.1L11.3985 99.3C11.3985 99.4 11.3985 99.4 11.3985 99.5V107.4C11.3985 107.4 11.2985 107.4 11.1985 107.5C11.0985 107.5 10.8985 107.6 10.5985 107.6C10.2985 107.6 9.99847 107.7 9.59847 107.7C9.19847 107.7 8.79847 107.7 8.49847 107.7C8.19847 107.7 7.99847 107.6 7.89847 107.6C7.79847 107.6 7.79847 107.5 7.79847 107.5V99.6C7.79847 99.5 7.79847 99.5 7.79847 99.4L5.39847 95C5.29847 94.8 4.99847 94.7 4.79847 94.8C4.59847 94.9 4.49847 95.2 4.59847 95.4L6.69847 99.6V107.4C6.69847 107.6 6.79847 107.8 6.89847 108C6.99847 108.2 7.19847 108.3 7.49847 108.4C7.69847 108.5 7.99847 108.5 8.29847 108.6C8.59847 108.6 8.99847 108.7 9.49847 108.7C9.99847 108.7 10.2985 108.7 10.6985 108.6C10.9985 108.6 11.2985 108.5 11.4985 108.4C11.6985 108.3 11.8985 108.2 12.0985 108C12.1985 107.8 12.2985 107.6 12.2985 107.4V99.6L18.3985 87.5C18.5985 87 18.7985 86.7 18.7985 86.4C18.7985 85.8 18.5985 85.5 18.3985 85.4Z" fill="#35414D"/>
</g>
<path d="M4 92.8999C3.7 92.8999 3.5 93.0999 3.5 93.3999C3.5 93.6999 3.7 93.8999 4 93.8999C4.3 93.8999 4.5 93.6999 4.5 93.3999C4.5 93.0999 4.3 92.8999 4 92.8999Z" fill="#35414D"/>
<mask id="mask4_1118_8149" style="mask-type:luminance" maskUnits="userSpaceOnUse" x="37" y="85" width="22" height="24">
<path d="M58.9008 85H37.3008V108.6H58.9008V85Z" fill="white"/>
</mask>
<g mask="url(#mask4_1118_8149)">
<path fill-rule="evenodd" clip-rule="evenodd" d="M58.2008 106.3C58.3008 106.7 58.4008 107 58.5008 107.3C58.5008 107.5 58.5008 107.7 58.4008 107.8C58.3008 107.9 58.0008 108 57.7008 108C57.4008 108 56.9008 108 56.4008 108C55.8008 108 55.3008 108 55.0008 108C54.7008 108 54.4008 107.9 54.2008 107.9C54.0008 107.8 53.9008 107.8 53.8008 107.7C53.7008 107.6 53.7008 107.5 53.6008 107.3L52.1008 102.8H43.6008L42.2008 107.2C42.2008 107.4 42.1008 107.5 42.0008 107.6C41.9008 107.7 41.8008 107.8 41.6008 107.9C41.6008 108 41.3008 108 41.0008 108.1C40.7008 108.1 40.3008 108.1 39.8008 108.1C39.3008 108.1 38.9008 108.1 38.6008 108C38.3008 108 38.1008 107.9 38.0008 107.8C37.9008 107.7 37.8008 107.5 37.9008 107.2C37.9008 107 38.0008 106.6 38.2008 106.2L45.0008 86.4C45.1008 86.2 45.1008 86 45.2008 85.9C45.3008 85.8 45.4008 85.7 45.6008 85.6C45.8008 85.5 46.1008 85.5 46.4008 85.5C46.8008 85.5 47.2008 85.5 47.8008 85.5C48.5008 85.5 49.0008 85.5 49.4008 85.5C49.8008 85.5 50.1008 85.6 50.3008 85.6C50.5008 85.7 50.7008 85.8 50.8008 85.9C50.9008 86 51.0008 86.2 51.0008 86.4L58.2008 106.3ZM47.9008 89.8L44.8008 99.3H51.0008L47.9008 89.8Z" fill="#787F8D"/>
</g>
<mask id="mask5_1118_8149" style="mask-type:luminance" maskUnits="userSpaceOnUse" x="37" y="85" width="22" height="24">
<path d="M58.9008 85H37.3008V108.6H58.9008V85Z" fill="white"/>
</mask>
<g mask="url(#mask5_1118_8149)">
<path d="M58.9023 107.2C58.9023 106.9 58.8023 106.6 58.6023 106.1L51.7023 86.3C51.6023 86.1 51.5023 85.8 51.4023 85.7C51.2023 85.5 51.0023 85.4 50.7023 85.3C50.4023 85.1 50.0023 85 49.6023 85C49.2023 85 48.7023 85 48.0023 85C47.3023 85 46.9023 85 46.6023 85C46.2023 85 45.9023 85.1 45.6023 85.1C45.3023 85.2 45.1023 85.3 44.9023 85.5C44.8023 85.7 44.7023 85.9 44.6023 86.1L37.7023 106C37.5023 106.5 37.5023 106.8 37.4023 107C37.3023 107.5 37.5023 107.8 37.6023 107.9C37.8023 108.1 38.1023 108.3 38.5023 108.3C38.8023 108.3 39.2023 108.4 39.8023 108.4C40.3023 108.4 40.7023 108.4 41.0023 108.4C41.4023 108.4 41.6023 108.3 41.8023 108.2C42.1023 108.1 42.3023 108 42.4023 107.8C42.5023 107.7 42.6023 107.5 42.6023 107.3L43.9023 103.2H45.7023C46.0023 103.2 46.2023 103 46.2023 102.7C46.2023 102.4 46.0023 102.2 45.7023 102.2H43.5023C43.3023 102.2 43.1023 102.3 43.1023 102.5L41.7023 106.9C41.7023 107 41.6023 107.1 41.6023 107.2C41.6023 107.2 41.6023 107.2 41.5023 107.3C41.4023 107.3 41.3023 107.4 40.9023 107.4C40.6023 107.4 40.2023 107.4 39.7023 107.4C39.2023 107.4 38.8023 107.4 38.5023 107.3C38.2023 107.3 38.2023 107.2 38.2023 107.2C38.2023 107.2 38.2023 107.1 38.2023 107C38.2023 106.8 38.3023 106.5 38.4023 106.1L45.3023 86.2C45.4023 86 45.4023 85.9 45.5023 85.9C45.5023 85.9 45.5023 85.8 45.7023 85.8C46.0023 86 46.2023 86 46.5023 85.9C46.8023 85.9 47.2023 85.9 47.9023 85.9C48.6023 85.9 49.1023 85.9 49.5023 85.9C49.9023 86 50.2023 86 50.4023 86C50.6023 86 50.6023 86.1 50.6023 86.1C50.7023 86.2 50.7023 86.3 50.8023 86.5L57.7023 106.4C57.8023 106.8 57.9023 107.1 57.9023 107.3C57.9023 107.4 57.9023 107.4 57.9023 107.5C57.9023 107.5 57.8023 107.6 57.5023 107.6C57.2023 107.6 56.8023 107.6 56.2023 107.6C55.6023 107.6 55.1023 107.6 54.8023 107.6C54.5023 107.6 54.3023 107.6 54.2023 107.5C54.1023 107.5 54.1023 107.4 54.1023 107.4C54.1023 107.4 54.0023 107.3 54.0023 107.2L52.5023 102.7C52.4023 102.5 52.3023 102.4 52.1023 102.4H50.0023C49.7023 102.4 49.5023 102.6 49.5023 102.9C49.5023 103.2 49.7023 103.4 50.0023 103.4H51.8023L53.2023 107.6C53.3023 107.8 53.3023 108 53.4023 108.1C53.5023 108.3 53.7023 108.4 54.0023 108.5C54.2023 108.6 54.5023 108.6 54.9023 108.6C55.2023 108.6 55.6023 108.6 56.3023 108.6C56.9023 108.6 57.4023 108.6 57.7023 108.6C58.1023 108.6 58.4023 108.4 58.6023 108.3C58.8023 108 59.0023 107.7 58.9023 107.2Z" fill="#35414D"/>
</g>
<path d="M51.4023 99.5999C51.5023 99.4999 51.5023 99.2999 51.5023 99.1999L48.3023 89.6999C48.2023 89.4999 48.1023 89.3999 47.9023 89.3999C47.7023 89.3999 47.5023 89.4999 47.5023 89.6999L44.4023 99.1999C44.4023 99.2999 44.4023 99.4999 44.5023 99.5999C44.6023 99.6999 44.7023 99.7999 44.9023 99.7999H51.0023C51.2023 99.7999 51.3023 99.7999 51.4023 99.5999ZM45.4023 98.8999L47.9023 91.2999L50.4023 98.8999H45.4023Z" fill="#35414D"/>
<path d="M47.9023 102.4C47.6023 102.4 47.4023 102.6 47.4023 102.9C47.4023 103.2 47.6023 103.4 47.9023 103.4C48.2023 103.4 48.4023 103.2 48.4023 102.9C48.4023 102.6 48.2023 102.4 47.9023 102.4Z" fill="#35414D"/>
<path fill-rule="evenodd" clip-rule="evenodd" d="M34.6992 106.3C34.6992 106.6 34.6992 106.9 34.6992 107.2C34.6992 107.4 34.5992 107.6 34.5992 107.7C34.4992 107.8 34.4992 107.9 34.3992 108C34.2992 108.1 34.1992 108.1 34.0992 108.1H22.5992C22.1992 108.1 21.8992 108 21.5992 107.8C21.2992 107.6 21.1992 107.2 21.1992 106.7V86.9C21.1992 86.4 21.2992 86 21.5992 85.8C21.8992 85.6 22.1992 85.5 22.5992 85.5H33.8992C33.9992 85.5 34.0992 85.5 34.1992 85.6C34.2992 85.7 34.2992 85.8 34.3992 85.9C34.4992 86 34.4992 86.2 34.4992 86.5C34.4992 86.7 34.4992 87 34.4992 87.4C34.4992 87.7 34.4992 88 34.4992 88.2C34.4992 88.4 34.3992 88.6 34.3992 88.7C34.2992 88.8 34.2992 88.9 34.1992 89C34.0992 89 33.9992 89.1 33.8992 89.1H25.7992V94.6H32.5992C32.6992 94.6 32.7992 94.6 32.8992 94.7C32.9992 94.8 33.0992 94.9 33.0992 95C33.1992 95.1 33.1992 95.3 33.1992 95.5C33.1992 95.7 33.1992 96 33.1992 96.3C33.1992 96.6 33.1992 96.9 33.1992 97.1C33.1992 97.3 33.0992 97.5 33.0992 97.6C33.0992 97.9 32.9992 98 32.8992 98C32.7992 98.1 32.6992 98.1 32.5992 98.1H25.7992V104.5H33.9992C34.0992 104.5 34.1992 104.5 34.2992 104.6C34.3992 104.7 34.4992 104.8 34.4992 104.9C34.5992 105 34.5992 105.2 34.5992 105.4C34.6992 105.7 34.6992 105.9 34.6992 106.3Z" fill="#787F8D"/>
<path d="M35.0992 105.4C35.0992 105.1 34.9992 104.9 34.8992 104.7C34.7992 104.5 34.6992 104.3 34.4992 104.2C34.3992 104.1 34.1992 104 33.9992 104H26.2992V103.3C26.2992 103 26.0992 102.8 25.7992 102.8C25.4992 102.8 25.2992 103 25.2992 103.3V104.4C25.2992 104.7 25.4992 104.9 25.7992 104.9H33.9992C33.9992 104.9 33.9992 104.9 34.0992 105C34.0992 105.1 34.1992 105.2 34.1992 105.4C34.1992 105.6 34.1992 105.9 34.1992 106.2C34.1992 106.5 34.1992 106.8 34.1992 107C34.1992 107.2 34.0992 107.4 34.0992 107.4C34.0992 107.5 33.9992 107.5 33.9992 107.5H22.5992C22.2992 107.5 22.0992 107.4 21.8992 107.3C21.6992 107.2 21.6992 106.9 21.6992 106.5V86.9C21.6992 86.5 21.7992 86.3 21.8992 86.1C22.0992 85.9 22.2992 85.9 22.5992 85.9H33.8992C33.8992 85.9 33.8992 85.9 33.9992 86C33.9992 86.1 34.0992 86.3 34.0992 86.5C34.0992 86.7 34.0992 87 34.0992 87.3C34.0992 87.6 34.0992 87.9 34.0992 88.1C34.0992 88.3 33.9992 88.5 33.9992 88.5C33.9992 88.6 33.8992 88.6 33.8992 88.6H25.7992C25.4992 88.6 25.2992 88.8 25.2992 89.1V94.6C25.2992 94.9 25.4992 95.1 25.7992 95.1H32.5992C32.5992 95.1 32.5992 95.2 32.6992 95.2C32.6992 95.3 32.7992 95.4 32.7992 95.6C32.7992 95.8 32.7992 96 32.7992 96.4C32.7992 96.7 32.7992 97 32.7992 97.2C32.7992 97.4 32.6992 97.5 32.6992 97.6C32.6992 97.7 32.6992 97.7 32.6992 97.7H25.8992C25.5992 97.7 25.3992 97.9 25.3992 98.2V99.3C25.3992 99.6 25.5992 99.8 25.8992 99.8C26.1992 99.8 26.3992 99.6 26.3992 99.3V98.6H32.6992C32.8992 98.6 33.0992 98.5 33.1992 98.4C33.3992 98.3 33.4992 98.1 33.5992 97.9C33.6992 97.7 33.6992 97.5 33.7992 97.2C33.7992 97 33.7992 96.7 33.7992 96.3C33.7992 95.9 33.7992 95.7 33.7992 95.4C33.7992 95.1 33.6992 94.9 33.5992 94.7C33.4992 94.5 33.3992 94.3 33.1992 94.2C32.9992 94.1 32.7992 94 32.5992 94H26.2992V89.5H33.8992C34.0992 89.5 34.2992 89.4 34.4992 89.3C34.5992 89.2 34.6992 89 34.7992 88.8C34.8992 88.7 34.9992 88.5 34.9992 88.2C34.9992 88 34.9992 87.7 34.9992 87.3C34.9992 86.9 34.9992 86.6 34.9992 86.4C34.9992 86.2 34.8992 85.9 34.7992 85.7C34.6992 85.5 34.5992 85.3 34.3992 85.2C34.2992 85.1 34.0992 85 33.8992 85H22.5992C22.0992 85 21.6992 85.2 21.2992 85.5C20.8992 85.8 20.6992 86.3 20.6992 87V106.7C20.6992 107.4 20.8992 107.8 21.2992 108.2C21.5992 108.5 22.0992 108.7 22.5992 108.7H33.9992C34.1992 108.7 34.3992 108.6 34.5992 108.5C34.7992 108.4 34.8992 108.2 34.9992 108C35.0992 107.8 35.0992 107.6 35.1992 107.3C35.1992 107.1 35.1992 106.8 35.1992 106.4C35.0992 105.9 35.0992 105.6 35.0992 105.4Z" fill="#35414D"/>
<path d="M25.8984 100.8C25.5984 100.8 25.3984 101 25.3984 101.3C25.3984 101.6 25.5984 101.8 25.8984 101.8C26.1984 101.8 26.3984 101.6 26.3984 101.3C26.2984 101 26.0984 100.8 25.8984 100.8Z" fill="#35414D"/>
<path fill-rule="evenodd" clip-rule="evenodd" d="M72 126.3C72 127.6 71.8 128.7 71.4 129.7C71 130.7 70.4 131.5 69.7 132.2C68.9 132.9 68 133.4 66.9 133.7C65.8 134.1 64.5 134.2 63 134.2H61.1V141.4C61.1 141.5 61.1 141.6 61 141.7C60.9 141.8 60.8 141.9 60.6 141.9C60.4 142 60.2 142 59.9 142C59.6 142 59.2 142.1 58.8 142.1C58.4 142.1 58 142.1 57.7 142C57.4 142 57.2 141.9 57 141.9C56.8 141.8 56.7 141.8 56.6 141.7C56.5 141.6 56.5 141.5 56.5 141.4V121.1C56.5 120.6 56.6 120.1 56.9 119.9C57.2 119.6 57.6 119.5 58 119.5H63.3C63.8 119.5 64.3 119.5 64.8 119.6C65.3 119.6 65.9 119.7 66.5 119.9C67.2 120 67.9 120.3 68.5 120.6C69.2 121 69.8 121.4 70.3 122C70.8 122.6 71.2 123.2 71.4 123.9C71.8 124.6 72 125.4 72 126.3ZM67.2 126.7C67.2 125.9 67.1 125.3 66.8 124.7C66.5 124.2 66.2 123.8 65.8 123.6C65.4 123.4 65 123.2 64.5 123.1C64 123 63.6 123 63.1 123H61.1V130.7H63.2C63.9 130.7 64.5 130.6 65 130.4C65.5 130.2 65.9 129.9 66.2 129.6C66.5 129.2 66.8 128.8 66.9 128.3C67.1 127.8 67.2 127.3 67.2 126.7Z" fill="#787F8D"/>
<path d="M72 123.7C71.7 122.9 71.3 122.2 70.8 121.6C70.3 121 69.6 120.5 68.9 120.1C68.2 119.7 67.5 119.5 66.7 119.3C66 119.2 65.4 119.1 64.9 119C64.4 119 63.9 118.9 63.3 118.9H58C57.4 118.9 56.9 119.1 56.6 119.4C56.2 119.8 56 120.3 56 121V141.3C56 141.5 56.1 141.7 56.2 141.9C56.3 142.1 56.5 142.2 56.8 142.3C57 142.4 57.3 142.4 57.6 142.5C57.9 142.5 58.3 142.6 58.8 142.6C59.3 142.6 59.7 142.6 60 142.5C60.4 142.5 60.6 142.4 60.8 142.3C61 142.2 61.2 142.1 61.4 141.9C61.5 141.7 61.6 141.5 61.6 141.3V134.6H63C64.5 134.6 65.9 134.4 67 134.1C68.2 133.7 69.2 133.2 69.9 132.5C70.7 131.8 71.3 130.9 71.8 129.9C72.2 128.9 72.4 127.7 72.4 126.4C72.4 125.4 72.3 124.5 72 123.7ZM70.9 129.5C70.5 130.4 70 131.2 69.3 131.8C68.6 132.4 67.7 132.9 66.7 133.2C65.7 133.5 64.4 133.7 63 133.7H61.1C60.8 133.7 60.6 133.9 60.6 134.2V141.4C60.6 141.4 60.5 141.4 60.4 141.5C60.3 141.5 60.1 141.6 59.8 141.6C59.5 141.6 59.2 141.6 58.8 141.6C58.4 141.6 58 141.6 57.7 141.5C57.5 141.5 57.2 141.4 57.1 141.4C57 141.4 57 141.3 57 141.3V121.1C57 120.7 57.1 120.4 57.3 120.2C57.5 120 57.8 119.9 58.1 119.9H63.4C64 119.9 64.4 119.9 64.9 120C65.3 120 65.9 120.1 66.6 120.3C67.2 120.4 67.9 120.7 68.5 121C69.1 121.3 69.7 121.8 70.1 122.3C70.6 122.8 70.9 123.4 71.1 124.1C71.3 124.8 71.5 125.6 71.5 126.4C71.5 127.6 71.3 128.6 70.9 129.5Z" fill="#35414D"/>
<path d="M66.0016 123.2C65.5016 122.9 65.1016 122.8 64.5016 122.7C64.1016 122.6 63.6016 122.6 63.1016 122.6H61.1016C60.8016 122.6 60.6016 122.8 60.6016 123.1V124.9C60.6016 125.2 60.8016 125.4 61.1016 125.4C61.4016 125.4 61.6016 125.2 61.6016 124.9V123.6H63.1016C63.6016 123.6 64.0016 123.6 64.4016 123.7C64.8016 123.8 65.2016 123.9 65.5016 124.1C65.8016 124.3 66.1016 124.6 66.4016 125.1C66.6016 125.5 66.8016 126.1 66.8016 126.8C66.8016 127.3 66.7016 127.8 66.6016 128.3C66.5016 128.7 66.2016 129.1 66.0016 129.4C65.7016 129.7 65.4016 129.9 65.0016 130.1C64.6016 130.3 64.0016 130.4 63.3016 130.4H61.7016V129.1C61.7016 128.8 61.5016 128.6 61.2016 128.6C60.9016 128.6 60.7016 128.8 60.7016 129.1V130.9C60.7016 131.2 60.9016 131.4 61.2016 131.4H63.3016C64.1016 131.4 64.8016 131.3 65.3016 131.1C65.9016 130.9 66.3016 130.6 66.7016 130.1C67.1016 129.7 67.3016 129.2 67.5016 128.7C67.7016 128.2 67.8016 127.6 67.8016 126.9C67.8016 126 67.6016 125.3 67.3016 124.7C66.9016 123.9 66.4016 123.5 66.0016 123.2Z" fill="#35414D"/>
<path d="M61.1016 127.3C61.4016 127.3 61.6016 127.1 61.6016 126.8C61.6016 126.5 61.4016 126.3 61.1016 126.3C60.8016 126.3 60.6016 126.5 60.6016 126.8C60.6016 127.1 60.8016 127.3 61.1016 127.3Z" fill="#35414D"/>
<mask id="mask6_1118_8149" style="mask-type:luminance" maskUnits="userSpaceOnUse" x="34" y="119" width="20" height="24">
<path d="M53.6984 119H34.3984V142.6H53.6984V119Z" fill="white"/>
</mask>
<g mask="url(#mask6_1118_8149)">
<path fill-rule="evenodd" clip-rule="evenodd" d="M52.7984 140.3C52.9984 140.7 53.0984 141 53.1984 141.3C53.2984 141.5 53.1984 141.7 53.0984 141.9C52.9984 142 52.6984 142.1 52.2984 142.1C51.8984 142.1 51.3984 142.2 50.7984 142.2C50.2984 142.2 49.7984 142.2 49.4984 142.2C49.1984 142.2 48.8984 142.1 48.7984 142.1C48.5984 142 48.4984 142 48.3984 141.9C48.2984 141.8 48.2984 141.7 48.1984 141.6L43.9984 133.3L39.7984 141.4C39.6984 141.5 39.6984 141.7 39.5984 141.7C39.4984 141.8 39.3984 141.9 39.1984 141.9C38.9984 142 38.7984 142 38.3984 142C38.0984 142 37.6984 142 37.0984 142C36.4984 142 35.9984 142 35.6984 141.9C35.3984 141.9 35.1984 141.8 34.9984 141.7C34.8984 141.6 34.8984 141.4 34.8984 141.1C34.9984 140.9 35.0984 140.5 35.2984 140.1L40.6984 130.3L35.6984 121.1C35.4984 120.7 35.3984 120.3 35.2984 120.1C35.1984 119.9 35.2984 119.7 35.3984 119.5C35.4984 119.4 35.7984 119.3 36.0984 119.3C36.4984 119.3 36.9984 119.3 37.5984 119.3C38.0984 119.3 38.5984 119.3 38.8984 119.3C39.1984 119.3 39.4984 119.4 39.6984 119.4C39.8984 119.5 39.9984 119.5 40.0984 119.6C40.1984 119.7 40.1984 119.8 40.2984 119.9L44.2984 127.3L48.0984 119.9C48.1984 119.8 48.1984 119.6 48.2984 119.6C48.3984 119.5 48.4984 119.4 48.6984 119.4C48.8984 119.3 49.0984 119.3 49.3984 119.3C49.6984 119.3 50.0984 119.3 50.5984 119.3C51.1984 119.3 51.5984 119.3 51.9984 119.3C52.2984 119.3 52.5984 119.4 52.6984 119.5C52.7984 119.6 52.8984 119.8 52.7984 120.1C52.6984 120.3 52.5984 120.7 52.3984 121.1L47.3984 130.2L52.7984 140.3Z" fill="#787F8D"/>
</g>
<mask id="mask7_1118_8149" style="mask-type:luminance" maskUnits="userSpaceOnUse" x="34" y="119" width="20" height="24">
<path d="M53.6984 119H34.3984V142.6H53.6984V119Z" fill="white"/>
</mask>
<g mask="url(#mask7_1118_8149)">
<path d="M53.5969 141.2C53.4969 140.9 53.3969 140.6 53.1969 140.1L47.9969 130.5L52.8969 121.6C53.0969 121.1 53.1969 120.8 53.2969 120.5C53.3969 120 53.1969 119.6 53.0969 119.5C52.8969 119.3 52.5969 119.2 52.0969 119.1C51.7969 119.1 51.2969 119.1 50.6969 119.1C50.1969 119.1 49.6969 119.1 49.3969 119.1C49.0969 119.1 48.7969 119.2 48.5969 119.2C48.2969 119.3 48.1969 119.4 47.9969 119.6C47.8969 119.7 47.7969 119.8 47.6969 120L44.2969 126.6L40.7969 120C40.6969 119.8 40.5969 119.7 40.4969 119.6C40.3969 119.4 40.1969 119.3 39.8969 119.2C39.6969 119.1 39.3969 119.1 39.0969 119.1C38.7969 119.1 38.2969 119.1 37.7969 119.1C37.0969 119.1 36.5969 119.1 36.1969 119.1C35.6969 119.1 35.3969 119.3 35.1969 119.4C34.9969 119.6 34.7969 119.9 34.9969 120.4C35.0969 120.7 35.1969 121 35.4969 121.5L36.9969 124.3C37.0969 124.5 37.3969 124.6 37.5969 124.5C37.7969 124.4 37.8969 124.1 37.7969 123.9L36.2969 121.1C36.0969 120.7 35.9969 120.4 35.8969 120.2V120.1C35.8969 120.1 36.0969 120 36.2969 120C36.5969 120 37.0969 120 37.7969 120C38.2969 120 38.7969 120 39.0969 120C39.3969 120 39.5969 120.1 39.7969 120.1C39.8969 120.1 39.8969 120.2 39.9969 120.2C39.9969 120.3 40.0969 120.3 40.1969 120.5L44.1969 127.9C44.2969 128.1 44.3969 128.1 44.5969 128.1C44.7969 128.1 44.8969 128 44.9969 127.9L48.7969 120.5C48.8969 120.4 48.8969 120.3 48.9969 120.2C48.9969 120.2 48.9969 120.2 49.0969 120.1C49.1969 120.1 49.3969 120 49.6969 120C49.9969 120 50.3969 120 50.8969 120C51.4969 120 51.8969 120 52.1969 120C52.4969 120 52.5969 120.1 52.5969 120.1V120.2C52.4969 120.4 52.3969 120.7 52.1969 121.1L47.1969 130.2C47.0969 130.3 47.0969 130.5 47.1969 130.6L52.4969 140.4C52.6969 140.8 52.7969 141.1 52.8969 141.3C52.8969 141.4 52.8969 141.4 52.8969 141.4C52.8969 141.4 52.7969 141.5 52.3969 141.5C51.9969 141.5 51.5969 141.6 50.8969 141.6C50.3969 141.6 49.9969 141.6 49.6969 141.6C49.2969 141.6 48.9969 141.6 48.8969 141.6C48.7969 141.6 48.6969 141.5 48.6969 141.5C48.6969 141.5 48.5969 141.4 48.5969 141.3L44.3969 133.2C44.2969 133 44.1969 133 43.9969 133C43.7969 133 43.6969 133.1 43.5969 133.2L39.3969 141.3C39.3969 141.4 39.2969 141.5 39.1969 141.5C39.1969 141.5 39.1969 141.5 38.9969 141.6C38.8969 141.6 38.5969 141.7 38.2969 141.7C37.9969 141.7 37.5969 141.7 37.0969 141.7C36.4969 141.7 36.0969 141.7 35.6969 141.6C35.4969 141.6 35.3969 141.5 35.2969 141.5V141.4C35.3969 141.2 35.4969 140.9 35.6969 140.5L41.0969 130.7C41.1969 130.6 41.1969 130.4 41.0969 130.3L39.5969 127.5C39.4969 127.3 39.1969 127.2 38.9969 127.3C38.7969 127.4 38.6969 127.7 38.7969 127.9L40.1969 130.5L34.9969 140.1C34.6969 140.6 34.5969 140.9 34.4969 141.2C34.2969 141.7 34.4969 142 34.6969 142.2C34.8969 142.4 35.1969 142.5 35.6969 142.6C36.0969 142.6 36.4969 142.7 37.1969 142.7C37.6969 142.7 38.1969 142.7 38.4969 142.7C38.8969 142.7 39.0969 142.6 39.2969 142.6C39.5969 142.5 39.7969 142.4 39.8969 142.2C39.9969 142.1 40.0969 141.9 40.1969 141.8L43.9969 134.5L47.7969 141.8C47.8969 142 47.9969 142.1 48.0969 142.3C48.1969 142.5 48.3969 142.6 48.6969 142.7C48.8969 142.8 49.1969 142.8 49.4969 142.8C49.7969 142.8 50.2969 142.8 50.7969 142.8C51.4969 142.8 51.9969 142.8 52.3969 142.7C52.8969 142.7 53.1969 142.5 53.3969 142.3C53.4969 142 53.7969 141.7 53.5969 141.2Z" fill="#35414D"/>
</g>
<path d="M38.7969 125.9C38.7969 125.6 38.5969 125.4 38.2969 125.4C37.9969 125.4 37.7969 125.6 37.7969 125.9C37.7969 126.2 37.9969 126.4 38.2969 126.4C38.5969 126.4 38.7969 126.2 38.7969 125.9Z" fill="#35414D"/>
<path fill-rule="evenodd" clip-rule="evenodd" d="M31.9 140.3C31.9 140.6 31.9 140.9 31.9 141.2C31.9 141.4 31.8 141.6 31.8 141.7C31.7 141.8 31.7 141.9 31.6 142C31.5 142.1 31.4 142.1 31.3 142.1H19.9C19.5 142.1 19.2 142 18.9 141.8C18.6 141.6 18.5 141.2 18.5 140.7V121C18.5 120.5 18.6 120.1 18.9 119.9C19.2 119.7 19.5 119.6 19.9 119.6H31.2C31.3 119.6 31.4 119.6 31.5 119.7C31.6 119.8 31.6 119.9 31.7 120C31.8 120.1 31.8 120.3 31.8 120.6C31.8 120.8 31.8 121.1 31.8 121.5C31.8 121.8 31.8 122.1 31.8 122.3C31.8 122.5 31.7 122.7 31.7 122.8C31.6 122.9 31.6 123 31.5 123.1C31.4 123.2 31.3 123.2 31.2 123.2H23.1V128.6H29.9C30 128.6 30.1 128.6 30.2 128.7C30.3 128.8 30.4 128.9 30.4 129C30.5 129.1 30.5 129.3 30.5 129.5C30.5 129.7 30.5 130 30.5 130.3C30.5 130.6 30.5 130.9 30.5 131.1C30.5 131.3 30.4 131.5 30.4 131.6C30.3 131.7 30.3 131.8 30.2 131.9C30.1 132 30 132 29.9 132H23.1V138.4H31.2C31.3 138.4 31.4 138.4 31.5 138.5C31.6 138.6 31.7 138.7 31.7 138.8C31.8 138.9 31.8 139.1 31.8 139.3C31.9 139.7 31.9 140 31.9 140.3Z" fill="#787F8D"/>
<path d="M32.3 139.4C32.3 139.1 32.2 138.9 32.1 138.7C32 138.5 31.9 138.3 31.7 138.2C31.5 138.1 31.3 138 31.1 138H23.4V137.3C23.4 137 23.2 136.8 22.9 136.8C22.6 136.8 22.4 137 22.4 137.3V138.4C22.4 138.7 22.6 138.9 22.9 138.9H31C31 138.9 31 138.9 31.1 139C31.1 139.1 31.2 139.2 31.2 139.4C31.2 139.6 31.2 139.9 31.2 140.2C31.2 140.5 31.2 140.8 31.2 141C31.2 141.2 31.1 141.4 31.1 141.4C31.1 141.5 31 141.5 31 141.5H19.9C19.6 141.5 19.4 141.4 19.2 141.3C19 141.2 19 140.9 19 140.5V121C19 120.6 19.1 120.4 19.2 120.2C19.4 120 19.6 120 19.9 120H31.2C31.2 120 31.2 120 31.3 120.1C31.3 120.2 31.4 120.4 31.4 120.6C31.4 120.8 31.4 121.1 31.4 121.4C31.4 121.7 31.4 122 31.4 122.2C31.4 122.4 31.3 122.6 31.3 122.6C31.3 122.7 31.2 122.7 31.2 122.7H23.1C22.8 122.7 22.6 122.9 22.6 123.2V128.6C22.6 128.9 22.8 129.1 23.1 129.1H29.9C29.9 129.1 29.9 129.2 30 129.2C30 129.3 30.1 129.4 30.1 129.6C30.1 129.8 30.1 130 30.1 130.4C30.1 130.7 30.1 131 30.1 131.2C30.1 131.4 30 131.5 30 131.6C30 131.7 30 131.7 30 131.7H23.2C22.9 131.7 22.7 131.9 22.7 132.2V133.3C22.7 133.6 22.9 133.8 23.2 133.8C23.5 133.8 23.7 133.6 23.7 133.3V132.6H30C30.2 132.6 30.4 132.5 30.5 132.4C30.7 132.3 30.8 132.1 30.9 131.9C31 131.7 31 131.5 31.1 131.2C31.1 131 31.1 130.7 31.1 130.3C31.1 129.9 31.1 129.7 31.1 129.4C31.1 129.1 31 128.9 30.9 128.7C30.8 128.5 30.7 128.3 30.5 128.2C30.3 128.1 30.1 128 29.9 128H23.6V123.6H31.2C31.4 123.6 31.6 123.5 31.8 123.4C31.9 123.3 32 123.1 32.1 122.9C32.2 122.7 32.2 122.5 32.3 122.2C32.3 122 32.3 121.7 32.3 121.3C32.3 120.9 32.3 120.6 32.3 120.4C32.3 120.2 32.2 119.9 32.1 119.7C32 119.5 31.9 119.3 31.7 119.2C31.5 119.1 31.4 119 31.2 119H19.9C19.4 119 19 119.2 18.6 119.5C18.2 119.8 18 120.3 18 121V140.7C18 141.4 18.2 141.8 18.6 142.2C18.9 142.5 19.4 142.7 19.9 142.7H31.3C31.5 142.7 31.7 142.6 31.9 142.5C32.1 142.4 32.2 142.2 32.3 142C32.4 141.8 32.4 141.6 32.5 141.3C32.5 141.1 32.5 140.8 32.5 140.4C32.4 140 32.4 139.7 32.3 139.4Z" fill="#35414D"/>
<path d="M23.1016 134.9C22.8016 134.9 22.6016 135.1 22.6016 135.4C22.6016 135.7 22.8016 135.9 23.1016 135.9C23.4016 135.9 23.6016 135.7 23.6016 135.4C23.6016 135.1 23.4016 134.9 23.1016 134.9Z" fill="#35414D"/>
<path d="M75.1031 142C76.4286 142 77.5031 140.925 77.5031 139.6C77.5031 138.274 76.4286 137.2 75.1031 137.2C73.7776 137.2 72.7031 138.274 72.7031 139.6C72.7031 140.925 73.7776 142 75.1031 142Z" fill="#787F8D"/>
<path d="M75.1016 137.9C76.1016 137.9 76.9016 138.7 76.9016 139.7C76.9016 140.7 76.1016 141.5 75.1016 141.5C74.1016 141.5 73.4016 140.6 73.4016 139.6C73.4016 138.6 74.2016 137.9 75.1016 137.9ZM75.1016 136.7C73.5016 136.7 72.1016 138 72.1016 139.7C72.1016 141.4 73.4016 142.7 75.1016 142.7C76.8016 142.7 78.1016 141.4 78.1016 139.7C78.1016 138 76.8016 136.7 75.1016 136.7Z" fill="#35414D"/>
</g>
<defs>
<clipPath id="clip0_1118_8149">
<rect width="41.0065" height="75" fill="white" transform="translate(27.4961)"/>
</clipPath>
<clipPath id="clip1_1118_8149">
<rect width="96" height="58" fill="white" transform="translate(0 85)"/>
</clipPath>
</defs>
</svg>
