<?xml version="1.0" encoding="utf-8"?>
<!-- Generator: Adobe Illustrator 25.0.0, SVG Export Plug-In . SVG Version: 6.00 Build 0)  -->
<svg version="1.1" id="Layer_1" xmlns="http://www.w3.org/2000/svg" xmlns:xlink="http://www.w3.org/1999/xlink" x="0px" y="0px"
	 viewBox="0 0 193.9 150" style="enable-background:new 0 0 193.9 150;" xml:space="preserve">
<style type="text/css">
	.st0{fill:#F9D335;}
	.st1{fill:#F9E27D;}
	.st2{fill:#F2C300;}
	.st3{fill:none;}
	.st4{fill:#35414D;}
	.st5{fill:#8AA8BD;}
	.st6{fill:#99EBFA;}
	.st7{fill:#FF7D97;}
	.st8{fill:#A0E5A5;}
	.st9{fill:#FFD0C7;}
</style>
<g>
	<g>
		<g>
			<g>
				<g>
					<g>
						<g>
							<g>
								<circle class="st0" cx="173.6" cy="75" r="18.2"/>
							</g>
						</g>
					</g>
				</g>
			</g>
			<g>
				<g>
					<g>
						<g>
							<g>
								<path class="st1" d="M176.5,92.9c-0.9,0.2-1.9,0.2-2.9,0.2c-10,0-18.2-8.1-18.2-18.2c0-10,8.1-18.2,18.2-18.2
									c1,0,2,0.1,2.9,0.2c-8.7,1.4-15.3,8.9-15.3,17.9S167.9,91.5,176.5,92.9z"/>
							</g>
						</g>
					</g>
				</g>
			</g>
			<g>
				<g>
					<g>
						<g>
							<g>
								<path class="st2" d="M191.8,75c0,10-8.1,18.2-18.2,18.2c-1,0-2-0.1-2.9-0.2C179.3,91.5,186,84,186,75
									c0-9-6.6-16.5-15.3-17.9c0.9-0.2,1.9-0.2,2.9-0.2C183.7,56.8,191.8,65,191.8,75z"/>
							</g>
						</g>
					</g>
				</g>
			</g>
		</g>
		<g>
			<path class="st3" d="M173.6,91.1c8.9,0,16.1-7.2,16.1-16.1c0-8.9-7.2-16.1-16.1-16.1c-8.9,0-16.1,7.2-16.1,16.1
				C157.5,83.9,164.7,91.1,173.6,91.1z M175.4,77.1h-3.6c-2.9,0-5.3-2.4-5.3-5.3c0-2.8,2.2-5.1,5-5.3v-1.3c0-1.2,0.9-2.1,2.1-2.1
				c1.2,0,2.1,0.9,2.1,2.1v1.3h0.9c2.3,0,4.1,1.8,4.1,4.1c0,1.2-0.9,2.1-2.1,2.1c-1.1,0-2-0.9-2.1-2h-4.7c-0.6,0-1.1,0.5-1.1,1.1
				s0.5,1.1,1.1,1.1h3.6c2.9,0,5.3,2.4,5.3,5.3c0,3.1-2.7,5.3-5,5.3v1.3c0,1.2-0.9,2.1-2.1,2.1c-1.2,0-2.1-0.9-2.1-2.1v-1.3h-0.9
				c-2.3,0-4.1-1.8-4.1-4.1c0-1.2,0.9-2.1,2.1-2.1c1.1,0,2,0.9,2.1,2c2.3,0,2.8,0,4.7,0c0.6,0,1.1-0.5,1.1-1.1
				C176.5,77.6,176,77.1,175.4,77.1z"/>
		</g>
		<g>
			<path class="st4" d="M175.4,79.3c-2,0-2.4,0-4.7,0c-0.1-1.1-1-2-2.1-2c-1.2,0-2.1,0.9-2.1,2.1c0,2.3,1.8,4.1,4.1,4.1h0.9v1.3
				c0,1.2,0.9,2.1,2.1,2.1c1.2,0,2.1-0.9,2.1-2.1v-1.3c2.3,0,5-2.2,5-5.3c0-2.9-2.4-5.3-5.3-5.3h-3.6c-0.6,0-1.1-0.5-1.1-1.1
				s0.5-1.1,1.1-1.1h4.7c0.1,1.1,1,2,2.1,2c1.2,0,2.1-0.9,2.1-2.1c0-2.3-1.8-4.1-4.1-4.1h-0.9v-1.3c0-1.2-0.9-2.1-2.1-2.1
				c-1.2,0-2.1,0.9-2.1,2.1v1.3c-2.8,0.2-5,2.5-5,5.3c0,2.9,2.4,5.3,5.3,5.3h3.6c0.6,0,1.1,0.5,1.1,1.1
				C176.5,78.8,176,79.3,175.4,79.3z"/>
		</g>
		<g>
			<path class="st4" d="M173.6,95.3c11.2,0,20.3-9.1,20.3-20.3c0-11.2-9.1-20.3-20.3-20.3c-11.2,0-20.3,9.1-20.3,20.3
				C153.3,86.2,162.4,95.3,173.6,95.3z M173.6,58.9c8.9,0,16.1,7.2,16.1,16.1c0,8.9-7.2,16.1-16.1,16.1c-8.9,0-16.1-7.2-16.1-16.1
				C157.5,66.1,164.7,58.9,173.6,58.9z"/>
		</g>
	</g>
	<g>
		<g>
			<g>
				<g>
					<g>
						<g>
							<g>
								<circle class="st0" cx="20.3" cy="75" r="18.2"/>
							</g>
						</g>
					</g>
				</g>
			</g>
			<g>
				<g>
					<g>
						<g>
							<g>
								<path class="st1" d="M23.2,92.9c-0.9,0.2-1.9,0.2-2.9,0.2C10.2,93.2,2.1,85,2.1,75c0-10,8.1-18.2,18.2-18.2
									c1,0,2,0.1,2.9,0.2C14.5,58.5,7.9,66,7.9,75S14.5,91.5,23.2,92.9z"/>
							</g>
						</g>
					</g>
				</g>
			</g>
			<g>
				<g>
					<g>
						<g>
							<g>
								<path class="st2" d="M38.5,75c0,10-8.1,18.2-18.2,18.2c-1,0-2-0.1-2.9-0.2C26,91.5,32.6,84,32.6,75c0-9-6.6-16.5-15.3-17.9
									c0.9-0.2,1.9-0.2,2.9-0.2C30.3,56.8,38.5,65,38.5,75z"/>
							</g>
						</g>
					</g>
				</g>
			</g>
		</g>
		<g>
			<path class="st3" d="M20.3,91.1c8.9,0,16.1-7.2,16.1-16.1c0-8.9-7.2-16.1-16.1-16.1S4.2,66.1,4.2,75
				C4.2,83.9,11.4,91.1,20.3,91.1z M22.1,77.1h-3.6c-2.9,0-5.3-2.4-5.3-5.3c0-2.8,2.2-5.1,5-5.3v-1.3c0-1.2,0.9-2.1,2.1-2.1
				c1.2,0,2.1,0.9,2.1,2.1v1.3h0.9c2.3,0,4.1,1.8,4.1,4.1c0,1.2-0.9,2.1-2.1,2.1c-1.1,0-2-0.9-2.1-2h-4.7c-0.6,0-1.1,0.5-1.1,1.1
				s0.5,1.1,1.1,1.1h3.6c2.9,0,5.3,2.4,5.3,5.3c0,3.1-2.7,5.3-5,5.3v1.3c0,1.2-0.9,2.1-2.1,2.1c-1.2,0-2.1-0.9-2.1-2.1v-1.3h-0.9
				c-2.3,0-4.1-1.8-4.1-4.1c0-1.2,0.9-2.1,2.1-2.1c1.1,0,2,0.9,2.1,2c2.3,0,2.8,0,4.7,0c0.6,0,1.1-0.5,1.1-1.1
				C23.2,77.6,22.7,77.1,22.1,77.1z"/>
		</g>
		<g>
			<path class="st4" d="M22.1,79.3c-2,0-2.4,0-4.7,0c-0.1-1.1-1-2-2.1-2c-1.2,0-2.1,0.9-2.1,2.1c0,2.3,1.8,4.1,4.1,4.1h0.9v1.3
				c0,1.2,0.9,2.1,2.1,2.1c1.2,0,2.1-0.9,2.1-2.1v-1.3c2.3,0,5-2.2,5-5.3c0-2.9-2.4-5.3-5.3-5.3h-3.6c-0.6,0-1.1-0.5-1.1-1.1
				s0.5-1.1,1.1-1.1h4.7c0.1,1.1,1,2,2.1,2c1.2,0,2.1-0.9,2.1-2.1c0-2.3-1.8-4.1-4.1-4.1h-0.9v-1.3c0-1.2-0.9-2.1-2.1-2.1
				c-1.2,0-2.1,0.9-2.1,2.1v1.3c-2.8,0.2-5,2.5-5,5.3c0,2.9,2.4,5.3,5.3,5.3h3.6c0.6,0,1.1,0.5,1.1,1.1
				C23.2,78.8,22.7,79.3,22.1,79.3z"/>
		</g>
		<g>
			<path class="st4" d="M20.3,95.3c11.2,0,20.3-9.1,20.3-20.3c0-11.2-9.1-20.3-20.3-20.3C9.1,54.7,0,63.8,0,75
				C0,86.2,9.1,95.3,20.3,95.3z M20.3,58.9c8.9,0,16.1,7.2,16.1,16.1c0,8.9-7.2,16.1-16.1,16.1S4.2,83.9,4.2,75
				C4.2,66.1,11.4,58.9,20.3,58.9z"/>
		</g>
	</g>
	<g>
		<g>
			<g>
				<g>
					<path class="st5" d="M96.1,148c-24.2,0-43.9-19.7-43.9-43.9V62.5h21.4v41.6c0,12.4,10.1,22.6,22.6,22.6s22.6-10.1,22.6-22.6
						V62.5h21.4v41.6C140.1,128.3,120.4,148,96.1,148z"/>
				</g>
			</g>
			<g>
				<g>
					<path class="st6" d="M118.7,62.5h21.4v21.4h-21.4V62.5z"/>
				</g>
				<g>
					<path class="st7" d="M52.2,62.5h21.4v21.4H52.2V62.5z"/>
				</g>
			</g>
			<g>
				<g>
					<path class="st8" d="M116.2,43.5c0-9.8-8-17.8-17.8-17.8h-2.2h-2.2c-9.8,0-17.8,8-17.8,17.8H116.2z"/>
				</g>
				<g>
					<path class="st9" d="M96.1,2c-5.2,0-9.5,4.3-9.5,9.5v4.8c0,5.2,4.3,9.5,9.5,9.5s9.5-4.3,9.5-9.5v-4.8C105.6,6.2,101.4,2,96.1,2
						z"/>
				</g>
			</g>
			<g>
				<g>
					<path class="st7" d="M63.2,43.5c0-9.8-8-17.8-17.8-17.8h-2.2h-2.2c-9.8,0-17.8,8-17.8,17.8H63.2z"/>
				</g>
				<g>
					<path class="st9" d="M43.1,2c-5.2,0-9.5,4.3-9.5,9.5v4.8c0,5.2,4.3,9.5,9.5,9.5s9.5-4.3,9.5-9.5v-4.8C52.6,6.2,48.4,2,43.1,2z"
						/>
				</g>
			</g>
			<g>
				<g>
					<path class="st6" d="M129.1,43.5c0-9.8,8-17.8,17.8-17.8h2.2h2.2c9.8,0,17.8,8,17.8,17.8H129.1z"/>
				</g>
				<g>
					<path class="st9" d="M149.1,2c5.2,0,9.5,4.3,9.5,9.5v4.8c0,5.2-4.3,9.5-9.5,9.5c-5.2,0-9.5-4.3-9.5-9.5v-4.8
						C139.6,6.2,143.9,2,149.1,2z"/>
				</g>
			</g>
		</g>
		<g>
			<path class="st4" d="M140.1,60.5h-21.4c-1.1,0-2,0.9-2,2v41.6c0,11.4-9.2,20.6-20.6,20.6c-11.4,0-20.6-9.2-20.6-20.6V62.5
				c0-1.1-0.9-2-2-2H52.2c-1.1,0-2,0.9-2,2v41.6c0,25.3,20.6,45.9,45.9,45.9c6.3,0,12.3-1.2,18-3.7c0.5-0.2,0.9-0.6,1-1.1
				c0.2-0.5,0.2-1,0-1.5c-0.4-1-1.6-1.4-2.6-1c-5.2,2.2-10.8,3.4-16.5,3.4c-23.2,0-42-18.8-42-42V85.8h17.5v18.3
				c0,13.5,11,24.5,24.5,24.5s24.5-11,24.5-24.5V85.8h17.5v18.3c0,7.9-2.2,15.5-6.4,22.2c-0.6,0.9-0.3,2.1,0.6,2.7
				c0.9,0.6,2.1,0.3,2.7-0.6c4.6-7.3,7-15.7,7-24.3V62.5C142,61.4,141.2,60.5,140.1,60.5z M120.7,64.4h17.5v17.5h-17.5V64.4
				L120.7,64.4z M54.2,64.4h17.5v17.5H54.2V64.4L54.2,64.4z"/>
			<path class="st4" d="M76.1,45.5h40.1c1.1,0,2-0.9,2-2c0-8.1-5.1-15.6-12.7-18.5l-1.3-0.5l0.9-1.1c1.7-2,2.6-4.6,2.6-7.3v-4.8
				c0-6.3-5.1-11.5-11.5-11.5c-6.3,0-11.5,5.1-11.5,11.5v4.8c0,2.6,0.9,5.2,2.6,7.3l0.9,1.1l-1.3,0.5C79.3,28,74.1,35.4,74.1,43.5
				C74.1,44.6,75,45.5,76.1,45.5z M96.1,3.9c4.2,0,7.5,3.4,7.5,7.5v4.8c0,4.2-3.4,7.5-7.5,7.5s-7.5-3.4-7.5-7.5v-4.8
				C88.6,7.3,92,3.9,96.1,3.9z M78.1,41.6l0.2-1.2c1.5-7.4,8-12.7,15.5-12.7h4.5c7.5,0,14,5.3,15.5,12.7l0.2,1.2H78.1z"/>
			<path class="st4" d="M65.1,43.5c0-8.1-5.1-15.6-12.7-18.5l-1.3-0.5l0.9-1.1c1.7-2,2.6-4.6,2.6-7.3v-4.8C54.6,5.1,49.5,0,43.1,0
				S31.7,5.1,31.7,11.5v4.8c0,2.6,0.9,5.2,2.6,7.3l0.9,1.1l-1.3,0.5C26.3,28,21.1,35.4,21.1,43.5c0,1.1,0.9,2,2,2h40.1
				C64.3,45.5,65.1,44.6,65.1,43.5z M43.1,3.9c4.2,0,7.5,3.4,7.5,7.5v4.8c0,4.2-3.4,7.5-7.5,7.5s-7.5-3.4-7.5-7.5v-4.8
				C35.6,7.3,39,3.9,43.1,3.9z M25.1,41.6l0.2-1.2c1.5-7.4,8-12.7,15.5-12.7h4.5c7.5,0,14,5.3,15.5,12.7l0.2,1.2H25.1z"/>
			<path class="st4" d="M158.4,25.1l-1.3-0.5l0.9-1.1c1.7-2,2.6-4.6,2.6-7.3v-4.8c0-6.3-5.1-11.5-11.5-11.5s-11.5,5.1-11.5,11.5v4.8
				c0,2.6,0.9,5.2,2.6,7.3l0.9,1.1l-1.3,0.5c-7.6,2.9-12.7,10.3-12.7,18.5c0,1.1,0.9,2,2,2h40.1c1.1,0,2-0.9,2-2
				C171.1,35.4,166,28,158.4,25.1z M149.1,3.9c4.2,0,7.5,3.4,7.5,7.5v4.8c0,4.2-3.4,7.5-7.5,7.5s-7.5-3.4-7.5-7.5v-4.8
				C141.6,7.3,145,3.9,149.1,3.9z M131.1,41.6l0.2-1.2c1.5-7.4,8-12.7,15.5-12.7h4.5c7.5,0,14,5.3,15.5,12.7l0.2,1.2H131.1z"/>
			<path class="st4" d="M94.4,84.5c0.2,0.5,0.5,0.9,1,1.1c0.3,0.1,0.6,0.2,0.9,0.2c0.8,0,1.4-0.4,1.8-1.1l5.3-10.7
				c0.3-0.6,0.3-1.3-0.1-1.9c-0.4-0.6-1-0.9-1.7-0.9H94l3.9-7.9c0.5-1,0.1-2.1-0.9-2.6c-1-0.5-2.2,0-2.6,0.9l-5.3,10.7
				c-0.3,0.6-0.3,1.3,0.1,1.9c0.4,0.6,1,0.9,1.7,0.9h7.4L94.5,83C94.2,83.5,94.2,84,94.4,84.5z"/>
			<path class="st4" d="M124.7,135.6c-1.1,0-2,0.9-2,2c0,1.1,0.9,2,2,2c1.1,0,2-0.9,2-2C126.7,136.5,125.8,135.6,124.7,135.6z"/>
		</g>
	</g>
</g>
</svg>
