<?xml version="1.0" encoding="utf-8"?>
<!-- Generator: Adobe Illustrator 25.0.0, SVG Export Plug-In . SVG Version: 6.00 Build 0)  -->
<svg version="1.1" id="Layer_1" xmlns="http://www.w3.org/2000/svg" xmlns:xlink="http://www.w3.org/1999/xlink" x="0px" y="0px"
	 viewBox="0 0 209.4 150" style="enable-background:new 0 0 209.4 150;" xml:space="preserve">
<style type="text/css">
	.st0{fill:#656D78;}
	.st1{fill:#F4F6F8;}
	.st2{fill:#E4E8EB;}
	.st3{fill:#B3A4EE;}
	.st4{fill:#AC92EA;}
	.st5{fill:#FBD277;}
	.st6{fill:#F76C82;}
	.st7{fill:#EB5463;}
	.st8{fill:#70D6F9;}
	.st9{fill:#67CAE5;}
	.st10{fill:#FDCD56;}
	.st11{fill:#434A54;}
	.st12{fill:#FFA733;}
	.st13{fill:#FF5A5A;}
	.st14{fill:#D6DF58;}
	.st15{fill:#F16C7A;}
	.st16{fill:#3A312A;}
	.st17{fill:#D7E057;}
	.st18{fill:#8AC6DD;}
	.st19{fill:#FDF6EC;stroke:#35414D;stroke-width:1.7302;stroke-miterlimit:10;}
	.st20{fill:#35414D;}
	.st21{fill-rule:evenodd;clip-rule:evenodd;fill:#7DDF96;}
	.st22{fill:#0D9353;}
	.st23{fill-rule:evenodd;clip-rule:evenodd;fill:#0D9353;}
</style>
<g>
	<g>
		<polygon class="st0" points="123.4,16.6 122.9,16.6 122.9,29 4.1,29 4.1,15.2 2.6,13.2 3.4,5.5 7.2,2.9 14.8,4.1 110.5,4.1 
			110.5,2.9 122.9,4.1 		"/>
		<path class="st1" d="M122.9,29v102.7c0,7.1-4.8,12.9-10.7,12.9H14.8c-7.6,2.6-14.6,0-10.7-12.9l0,0V29L122.9,29z"/>
		<path class="st2" d="M122.9,29v102.7c0.5,6.9,4,15.3-10.7,12.9H14.8c-12.9,1.5-12.9-4.9-11.5-10c0.8,0.2,2.7,0.3,3.5,0.3H19
			c49.8,0,91.4-46,95.5-105.9L122.9,29z"/>
		<path class="st3" d="M14,93.8h28.9v23.3H14L14,93.8z"/>
		<path class="st4" d="M42.9,93.8v23.3H14v-7.2h3.6c8.3,0,15.7-6.5,18.3-16L42.9,93.8z"/>
		<path class="st5" d="M49.1,93.8H78v23.3H49.1V93.8z"/>
		<g>
			<path class="st6" d="M14,40h99v44.5H14L14,40z"/>
			<path class="st7" d="M113,40v44.4H14v-9.5h63c15.5,0,28.1-15.2,28.1-33.9v-1L113,40z"/>
		</g>
		<path class="st8" d="M84.2,93.8H113v23.3H84.2V93.8z"/>
		<path class="st9" d="M113,93.8v23.3H84.2v-7.2h3.6c8.3,0,15.7-6.5,18.3-16L113,93.8z"/>
		<path class="st10" d="M78,93.8v23.3H49.1v-7.2h3.6c8.3,0,15.7-6.5,18.3-16L78,93.8z"/>
		<g>
			<path class="st11" d="M42.9,127.8H24.4c-0.7,0-1.2-0.7-1.2-1.5c0-0.8,0.6-1.5,1.2-1.5h18.5c0.7,0,1.2,0.7,1.2,1.5
				C44.1,127.2,43.6,127.8,42.9,127.8z"/>
			<path class="st12" d="M19.4,127.8H14c-0.7,0-1.2-0.7-1.2-1.5c0-0.8,0.6-1.5,1.2-1.5h5.4c0.7,0,1.2,0.7,1.2,1.5
				C20.6,127.2,20.1,127.8,19.4,127.8z"/>
			<path class="st11" d="M42.9,137.3H14c-0.7,0-1.2-0.7-1.2-1.5c0-0.8,0.6-1.5,1.2-1.5h28.9c0.7,0,1.2,0.7,1.2,1.5
				C44.1,136.6,43.6,137.3,42.9,137.3z"/>
			<path class="st11" d="M78,127.8H59.5c-0.7,0-1.2-0.7-1.2-1.5c0-0.8,0.6-1.5,1.2-1.5H78c0.7,0,1.2,0.7,1.2,1.5
				C79.2,127.2,78.6,127.8,78,127.8z"/>
			<path class="st13" d="M54.5,127.8h-5.4c-0.7,0-1.2-0.7-1.2-1.5c0-0.8,0.6-1.5,1.2-1.5h5.4c0.7,0,1.2,0.7,1.2,1.5
				C55.7,127.2,55.2,127.8,54.5,127.8z"/>
			<path class="st11" d="M78,137.3H49.1c-0.7,0-1.2-0.7-1.2-1.5c0-0.8,0.6-1.5,1.2-1.5H78c0.7,0,1.2,0.7,1.2,1.5
				C79.2,136.6,78.6,137.3,78,137.3z"/>
			<path class="st11" d="M113,127.8H94.5c-0.7,0-1.2-0.7-1.2-1.5c0-0.8,0.6-1.5,1.2-1.5H113c0.7,0,1.2,0.7,1.2,1.5
				C114.3,127.2,113.7,127.8,113,127.8z"/>
			<path class="st14" d="M89.5,127.8h-5.4c-0.7,0-1.2-0.7-1.2-1.5c0-0.8,0.6-1.5,1.2-1.5h5.4c0.7,0,1.2,0.7,1.2,1.5
				C90.8,127.2,90.2,127.8,89.5,127.8z"/>
			<path class="st11" d="M113,137.3H84.1c-0.7,0-1.2-0.7-1.2-1.5c0-0.8,0.6-1.5,1.2-1.5H113c0.7,0,1.2,0.7,1.2,1.5
				C114.3,136.6,113.7,137.3,113,137.3z"/>
		</g>
		<g>
			<g>
				<circle class="st15" cx="19.3" cy="16.6" r="4.3"/>
				<path class="st16" d="M19.3,21.8c-2.9,0-5.2-2.3-5.2-5.2s2.3-5.2,5.2-5.2s5.2,2.3,5.2,5.2S22.1,21.8,19.3,21.8z M19.3,13.2
					c-1.8,0-3.3,1.5-3.3,3.3s1.5,3.3,3.3,3.3c1.8,0,3.3-1.5,3.3-3.3C22.6,14.7,21.1,13.2,19.3,13.2z"/>
			</g>
			<g>
				<circle class="st17" cx="32.6" cy="16.6" r="4.3"/>
				<path class="st16" d="M32.6,21.8c-2.9,0-5.2-2.3-5.2-5.2s2.3-5.2,5.2-5.2c2.9,0,5.2,2.3,5.2,5.2S35.4,21.8,32.6,21.8z
					 M32.6,13.2c-1.8,0-3.3,1.5-3.3,3.3s1.5,3.3,3.3,3.3s3.3-1.5,3.3-3.3C35.9,14.7,34.4,13.2,32.6,13.2z"/>
			</g>
			<g>
				<circle class="st18" cx="45.9" cy="16.6" r="4.3"/>
				<path class="st16" d="M45.9,21.8c-2.9,0-5.2-2.3-5.2-5.2s2.3-5.2,5.2-5.2s5.2,2.3,5.2,5.2S48.8,21.8,45.9,21.8z M45.9,13.2
					c-1.8,0-3.3,1.5-3.3,3.3s1.5,3.3,3.3,3.3s3.3-1.5,3.3-3.3C49.2,14.7,47.7,13.2,45.9,13.2z"/>
			</g>
			<path class="st19" d="M109.4,20.1H68.7c-2,0-3.6-1.6-3.6-3.6v0c0-2,1.6-3.6,3.6-3.6h40.8c2,0,3.6,1.6,3.6,3.6v0
				C113,18.5,111.4,20.1,109.4,20.1z"/>
		</g>
		<path class="st20" d="M113,4.1c5.5,0,9.9,4.4,9.9,9.9v120.7c0,5.5-4.4,9.9-9.9,9.9H14c-5.5,0-9.9-4.4-9.9-9.9V14
			c0-5.5,4.4-9.9,9.9-9.9H113 M113,0H14C6.3,0,0,6.3,0,14v120.7c0,7.7,6.3,14,14,14h99c7.7,0,14-6.3,14-14V14C127,6.3,120.7,0,113,0
			L113,0z"/>
	</g>
	<g>
		<path id="_409268072_51_" class="st21" d="M170.9,134.2c-2.7,3.5-6.2,7.5-9.6,10.5c-0.4,0.3-1,0.3-1.5,0l-28.2-21.8
			c-1.5-1.1,0.6-2.4,2.1-3.9c6.4-6.5,11.9-14.5,16.8-22.9c6.1-10.5,14.6-22.6,23-32.3c0.4-0.4,1-0.4,1.6-0.1l28.3,21.9
			c0.5,0.4,0.7,1.1,0.3,1.6c-8.6,9.9-17.2,22-23.5,33C177.2,125.4,174.1,130.1,170.9,134.2L170.9,134.2z"/>
		<path id="_409267760_102_" class="st22" d="M166.9,74.5c3-3.9,6-7.5,8.5-10.3l27.9,21.6c-2.6,2.9-5.5,6.4-8.6,10.4
			c-5.6,7.3-11.3,15.5-15.4,22.4c-2.9,4.8-5.9,9.2-8.9,13.1c-5.4,6.9-9.5,10.6-11.1,11.9L131.5,122c3.8-3.1,7.9-8,10.8-11.7
			c3.3-4.3,6.6-9.2,9.3-13.7C155.7,89.8,161.3,81.7,166.9,74.5 M165,73c-5.5,7.1-11.2,15.3-15.4,22.4c-2.6,4.4-5.9,9.1-9.2,13.4
			c-4.2,5.4-8.5,10.1-11.8,12.4c-0.1,0.1-0.2,0.1-0.2,0.2c-0.3,0.4-0.3,1,0.2,1.4l30.2,23.3c0.3,0.3,0.8,0.3,1.1,0
			c0.2-0.1,5.2-3.6,12.5-13.1l0,0c3.1-4,6.1-8.5,9.1-13.4c4.3-7.1,9.8-15.2,15.3-22.2c3.3-4.3,6.6-8.3,9.5-11.4c0,0,0,0,0.1-0.1
			c0.3-0.4,0.3-1-0.2-1.4l-30.2-23.3c-0.4-0.3-0.9-0.3-1.3,0.1C171.7,64.7,168.4,68.6,165,73L165,73z M172.4,133.1L172.4,133.1
			C172.4,133.1,172.4,133.1,172.4,133.1L172.4,133.1z"/>
		<path id="_409267760_101_" class="st20" d="M166.2,72.3c3.2-4.2,6.3-7.9,9-10.8L206,85.3c-2.8,3-5.9,6.8-9.1,10.9
			c-5.9,7.7-11.8,16.3-16.2,23.7c-3,5.1-6.1,9.7-9.3,13.9c-5.7,7.3-10,11.1-11.8,12.5l-30.7-23.7c4.1-3.2,8.4-8.3,11.4-12.3
			c3.5-4.5,7-9.7,9.8-14.4C154.4,88.5,160.3,80,166.2,72.3 M164.1,70.7c-5.8,7.5-11.7,16.1-16.2,23.7c-2.7,4.6-6.1,9.6-9.6,14.2
			c-4.4,5.7-9,10.6-12.5,13c-0.1,0.1-0.2,0.1-0.2,0.2c-0.3,0.4-0.3,1.1,0.2,1.5L159,149c0.4,0.3,0.8,0.3,1.2,0.1
			c0.2-0.1,5.6-3.7,13.3-13.7l0,0c3.2-4.2,6.4-9,9.5-14.1c4.5-7.5,10.3-16,16-23.4c3.5-4.6,7-8.7,10-11.9c0,0,0,0,0.1-0.1
			c0.3-0.4,0.3-1.1-0.2-1.5l-33.3-25.7c-0.4-0.3-1-0.3-1.4,0.1C171.2,61.9,167.7,66.1,164.1,70.7L164.1,70.7z M173.5,135.3
			L173.5,135.3C173.5,135.3,173.5,135.3,173.5,135.3L173.5,135.3z"/>
		<g>
			<path id="_409267496_51_" class="st23" d="M170.9,69.1c1.3-1.6,2.5-3.1,3.8-4.6c0.3-0.4,0.8-0.4,1.2-0.1l4.6,3.6
				C177.6,71.5,172.7,70.6,170.9,69.1L170.9,69.1z"/>
			<path id="_409268120_51_" class="st23" d="M198.7,81.9l4.7,3.6c0.4,0.3,0.5,0.9,0.1,1.3c-1.3,1.5-2.5,3-3.8,4.6
				C197.9,90.1,196.1,85.6,198.7,81.9L198.7,81.9z"/>
			<path id="_409267040_51_" class="st23" d="M164.3,139.8c-1.3,1.5-2.6,2.9-3.9,4.1c-0.3,0.3-0.7,0.3-1.1,0.1l-4.4-3.4
				C156.1,138.7,160.8,136.8,164.3,139.8L164.3,139.8z"/>
			<path id="_409266752_51_" class="st23" d="M136.4,126.3l-4.6-3.5c-1.1-0.8,0.6-2,1.8-3.2c0.7-0.7,1.4-1.5,2-2.2
				C138,119.7,138.4,123.5,136.4,126.3L136.4,126.3z"/>
		</g>
		<path id="_409266968_51_" class="st23" d="M181.4,114.4c-5.7,7.3-16.2,8.7-23.5,3.1c-7.3-5.6-8.6-16.2-3-23.5
			c5.7-7.3,16.2-8.7,23.5-3.1C185.7,96.5,187,107.1,181.4,114.4L181.4,114.4z"/>
		<ellipse transform="matrix(0.6113 -0.7914 0.7914 0.6113 -39.2658 169.3512)" class="st22" cx="152.8" cy="124.6" rx="4" ry="4"/>
		<ellipse transform="matrix(0.6113 -0.7914 0.7914 0.6113 5.0786 178.3878)" class="st22" cx="184.1" cy="84" rx="4" ry="4"/>
		<g>
			<path id="_409266824_52_" class="st21" d="M174.3,108.9c-2.5,3.3-7.8,1.1-6.4-0.7c0.4-0.5,1-0.5,1.5-0.2c2.4,1.9,5.3-1.8,2.9-3.7
				c-3.1-2.4-4.7,4.9-9.5,1.2c-4.6-3.5,0.8-10.5,5.4-7c1.1,0.8-0.2,2.5-1.3,1.7c-2.4-1.9-5.3,1.8-2.9,3.7c3.1,2.4,4.7-4.9,9.5-1.2
				C175.4,104.2,175.7,107,174.3,108.9L174.3,108.9z"/>
			<path id="_409267328_52_" class="st21" d="M163.6,100.7c-0.8,1.1-1.9-0.2-2.9-0.9c-1.1-0.8,0.2-2.5,1.3-1.7
				C162.9,98.9,164.4,99.6,163.6,100.7z"/>
			<path id="_409266872_52_" class="st21" d="M175.7,110c-0.8,1.1-1.9-0.2-2.9-0.9c-1.1-0.8,0.2-2.5,1.3-1.7
				C175,108.2,176.5,109,175.7,110z"/>
		</g>
	</g>
	<g>
		<path id="_409268072_50_" class="st21" d="M161.6,127.9c-0.2,5.1-0.9,11.3-2.1,16.5c-0.1,0.6-0.7,1-1.4,1l-41.8-2
			c-2.2-0.1-1-2.8-0.6-5.2c1.7-10.6,1.7-21.9,0.7-33.3c-1.3-14.2-1.2-31.5,0.4-46.5c0.1-0.7,0.7-1.1,1.4-1.1l41.9,2
			c0.8,0,1.4,0.7,1.3,1.4c-1.6,15.2-1.7,32.7-0.4,47.5C161.7,115.2,161.9,121.8,161.6,127.9L161.6,127.9z"/>
		<path id="_409267760_100_" class="st22" d="M117.6,73.2c0.3-5.8,0.7-11.2,1.3-15.6l41.3,2c-0.6,4.5-1,9.9-1.3,15.7
			c-0.5,10.8-0.4,22.4,0.2,31.9c0.5,6.5,0.6,12.8,0.3,18.6c-0.5,10.3-2,16.5-2.7,18.9l-41.2-1.9c1.6-5.5,2.2-12.9,2.5-18.5
			c0.3-6.4,0.2-13.3-0.2-19.4C117.2,95.4,117.1,83.9,117.6,73.2 M114.8,73c-0.5,10.5-0.4,22.2,0.2,31.9c0.4,6,0.5,12.7,0.2,19.1
			c-0.4,8-1.4,15.4-3,19.8c0,0.1-0.1,0.2-0.1,0.4c0,0.6,0.4,1.2,1.1,1.2l44.7,2.1c0.5,0,0.9-0.3,1.1-0.7c0.1-0.3,2.6-7,3.3-21l0,0
			c0.3-5.9,0.2-12.3-0.3-18.9c-0.7-9.7-0.7-21.2-0.2-31.5c0.3-6.4,0.8-12.4,1.5-17.3c0,0,0-0.1,0-0.1c0-0.6-0.4-1.2-1.1-1.2
			l-44.7-2.1c-0.6,0-1.1,0.4-1.2,1C115.6,60.5,115.1,66.6,114.8,73L114.8,73z M162.3,125.8L162.3,125.8
			C162.3,125.8,162.3,125.8,162.3,125.8L162.3,125.8z"/>
		<path id="_409267760_99_" class="st20" d="M115.5,71.6c0.3-6.2,0.8-11.8,1.4-16.4l45.6,2.2c-0.6,4.8-1.1,10.4-1.4,16.5
			c-0.5,11.4-0.4,23.6,0.3,33.6c0.5,6.9,0.6,13.5,0.4,19.6c-0.5,10.8-2.2,17.4-3,19.9l-45.5-2.1c1.7-5.8,2.4-13.6,2.7-19.5
			c0.3-6.7,0.2-14-0.3-20.4C115.1,95,115,82.9,115.5,71.6 M112.4,71.4c-0.5,11.1-0.4,23.4,0.3,33.6c0.5,6.3,0.6,13.4,0.3,20.1
			c-0.4,8.4-1.5,16.2-3.3,20.9c0,0.1-0.1,0.2-0.1,0.4c0,0.6,0.5,1.2,1.2,1.3l49.3,2.3c0.5,0,1-0.3,1.2-0.8c0.1-0.3,2.9-7.4,3.6-22.1
			l0,0c0.3-6.2,0.2-12.9-0.4-19.9c-0.8-10.2-0.9-22.3-0.3-33.2c0.3-6.8,0.9-13.1,1.6-18.2c0,0,0-0.1,0-0.1c0-0.7-0.5-1.2-1.2-1.3
			l-49.3-2.3c-0.6,0-1.2,0.4-1.3,1C113.3,58.2,112.7,64.6,112.4,71.4L112.4,71.4z M164.9,127.2L164.9,127.2
			C164.9,127.2,164.9,127.2,164.9,127.2L164.9,127.2z"/>
		<g>
			<path id="_409267496_50_" class="st23" d="M117.9,65.3c0.2-2.4,0.3-4.7,0.6-7c0.1-0.5,0.5-1,1.1-0.9l6.9,0.3
				C125.9,63.1,120.6,65.6,117.9,65.3L117.9,65.3z"/>
			<path id="_409268120_50_" class="st23" d="M153.2,59l7,0.3c0.6,0,1,0.6,1,1.1c-0.2,2.3-0.4,4.6-0.6,7
				C157.9,67.4,153.2,64.2,153.2,59L153.2,59z"/>
			<path id="_409267040_50_" class="st23" d="M159,137.7c-0.3,2.3-0.6,4.5-1,6.6c-0.1,0.5-0.5,0.8-1,0.8l-6.5-0.3
				C150.5,142.1,153.6,137.2,159,137.7L159,137.7z"/>
			<path id="_409266752_50_" class="st23" d="M123.1,143.4l-6.8-0.3c-1.6-0.1-0.7-2.3-0.4-4.3c0.2-1.2,0.3-2.3,0.5-3.5
				C120.3,136,123.1,139.4,123.1,143.4L123.1,143.4z"/>
		</g>
		<path id="_409266968_50_" class="st23" d="M158.3,101.8c-0.5,10.8-9.7,19.3-20.5,18.7c-10.8-0.5-19.2-9.8-18.7-20.6
			c0.5-10.8,9.7-19.3,20.5-18.7C150.5,81.7,158.9,91,158.3,101.8L158.3,101.8z"/>
		
			<ellipse transform="matrix(4.721398e-02 -0.9989 0.9989 4.721398e-02 0.526 262.2869)" class="st22" cx="137.8" cy="130.9" rx="4.7" ry="4.7"/>
		
			<ellipse transform="matrix(4.722670e-02 -0.9989 0.9989 4.722670e-02 63.2575 207.8679)" class="st22" cx="140.6" cy="70.8" rx="4.7" ry="4.7"/>
		<g>
			<path id="_409266824_51_" class="st21" d="M147.8,101.3c-0.2,4.8-6.7,6.3-6.6,3.7c0-0.7,0.6-1.2,1.3-1.2c3.6,0.2,3.8-5.3,0.3-5.5
				c-4.6-0.2-1.2,7.9-8.3,7.5c-6.8-0.3-6.3-10.7,0.5-10.4c1.6,0.1,1.5,2.5-0.1,2.4c-3.6-0.2-3.8,5.3-0.3,5.5
				c4.6,0.2,1.2-7.9,8.3-7.5C145.8,96,148,98.5,147.8,101.3L147.8,101.3z"/>
			<path id="_409267328_51_" class="st21" d="M132.1,100.6c-0.1,1.6-2,1.1-3.4,1.1c-1.6-0.1-1.5-2.5,0.1-2.4
				C130.2,99.3,132.1,99,132.1,100.6z"/>
			<path id="_409266872_51_" class="st21" d="M149.9,101.4c-0.1,1.6-2,1.1-3.4,1.1c-1.6-0.1-1.5-2.5,0.1-2.4
				C148.1,100.1,150,99.9,149.9,101.4z"/>
		</g>
	</g>
	<g>
		<path id="_409268072_49_" class="st21" d="M152.4,111.6c1.6,4.9,3.1,10.9,3.8,16.2c0.1,0.6-0.3,1.2-1,1.4l-39.8,12.9
			c-2.1,0.7-1.9-2.2-2.4-4.6c-2.1-10.5-6.1-21.1-11.1-31.4c-6.2-12.8-12.3-29.1-16-43.6c-0.2-0.6,0.3-1.3,1-1.5l39.9-13
			c0.8-0.2,1.5,0.1,1.7,0.8c3.9,14.8,10,31.2,16.5,44.6C148,99.8,150.5,105.9,152.4,111.6L152.4,111.6z"/>
		<path id="_409267760_98_" class="st22" d="M91.9,76.1c-1.8-5.6-3.3-10.7-4.3-15l39.3-12.8c1.1,4.4,2.6,9.6,4.4,15.1
			c3.3,10.3,7.5,21.1,11.5,29.7c2.7,6,5,11.8,6.8,17.3c3.2,9.8,4,16.1,4.2,18.7l-39.2,12.8c-0.5-5.7-2.5-12.9-4.2-18.2
			c-2-6.1-4.5-12.5-7.1-18.1C99.4,97,95.2,86.3,91.9,76.1 M89.2,76.9c3.3,10,7.4,20.9,11.5,29.8c2.5,5.4,5,11.7,6.9,17.8
			c2.5,7.6,4.2,14.9,4.2,19.6c0,0.1,0,0.2,0.1,0.4c0.2,0.6,0.8,0.9,1.4,0.7l42.5-13.8c0.5-0.1,0.8-0.6,0.8-1.1c0-0.3,0-7.5-4.4-20.8
			h0c-1.8-5.6-4.2-11.5-7-17.6c-4.1-8.8-8.2-19.5-11.4-29.4c-2-6.1-3.6-11.9-4.7-16.7c0,0,0-0.1,0-0.1c-0.2-0.6-0.8-0.9-1.4-0.7
			L85.2,58.8c-0.5,0.2-0.9,0.8-0.7,1.3C85.6,64.9,87.2,70.8,89.2,76.9L89.2,76.9z M152.3,109.5L152.3,109.5
			C152.3,109.5,152.3,109.5,152.3,109.5L152.3,109.5z"/>
		<path id="_409267760_97_" class="st20" d="M89.3,75.3c-1.9-5.9-3.5-11.3-4.5-15.9l43.4-14.1c1.1,4.7,2.7,10.1,4.6,16
			c3.5,10.8,8,22.3,12.2,31.3c2.9,6.3,5.4,12.4,7.3,18.2c3.4,10.3,4.1,17,4.3,19.7l-43.3,14.1c-0.4-6-2.5-13.6-4.4-19.2
			c-2.1-6.4-4.7-13.1-7.5-19C97.2,97.4,92.8,86.1,89.3,75.3 M86.4,76.3c3.4,10.5,7.9,22,12.2,31.3c2.7,5.7,5.3,12.3,7.4,18.7
			c2.6,8,4.4,15.7,4.3,20.7c0,0.1,0,0.3,0.1,0.4c0.2,0.6,0.9,1,1.5,0.8l46.9-15.3c0.5-0.2,0.9-0.6,0.9-1.1c0-0.3,0.1-7.9-4.5-21.9h0
			c-1.9-5.9-4.4-12.2-7.4-18.5c-4.3-9.3-8.7-20.6-12.1-31c-2.1-6.4-3.8-12.5-4.9-17.6c0,0,0-0.1,0-0.1c-0.2-0.6-0.9-1-1.5-0.8
			L82.3,57.1c-0.6,0.2-1,0.8-0.8,1.4C82.6,63.6,84.3,69.8,86.4,76.3L86.4,76.3z M155.2,109.8L155.2,109.8
			C155.2,109.8,155.2,109.8,155.2,109.8L155.2,109.8z"/>
		<g>
			<path id="_409267496_49_" class="st23" d="M89.4,68.6c-0.7-2.3-1.3-4.5-1.9-6.7c-0.1-0.5,0.2-1.1,0.7-1.3l6.5-2.1
				C96.1,63.7,92,67.9,89.4,68.6L89.4,68.6z"/>
			<path id="_409268120_49_" class="st23" d="M120.1,50.2l6.6-2.2c0.6-0.2,1.2,0.1,1.3,0.7c0.6,2.2,1.2,4.4,1.9,6.7
				C127.5,56.4,122,55.1,120.1,50.2L120.1,50.2z"/>
			<path id="_409267040_49_" class="st23" d="M153.4,121.8c0.6,2.2,1,4.5,1.4,6.5c0.1,0.5-0.2,0.9-0.7,1.1l-6.2,2
				C147,128.9,148.2,123.2,153.4,121.8L153.4,121.8z"/>
			<path id="_409266752_49_" class="st23" d="M121.9,139.8l-6.5,2.1c-1.5,0.5-1.5-1.9-1.9-3.9c-0.2-1.1-0.5-2.3-0.8-3.4
				C116.6,133.9,120.5,136.1,121.9,139.8L121.9,139.8z"/>
		</g>
		<path id="_409266968_49_" class="st23" d="M140.1,88.4c3.4,10.3-2.3,21.5-12.6,24.8c-10.3,3.3-21.4-2.3-24.8-12.7
			c-3.4-10.3,2.3-21.5,12.6-24.8C125.7,72.4,136.8,78.1,140.1,88.4L140.1,88.4z"/>
		
			<ellipse transform="matrix(0.9509 -0.3094 0.3094 0.9509 -31.5884 46.6004)" class="st22" cx="131.1" cy="122.9" rx="4.7" ry="4.7"/>
		
			<ellipse transform="matrix(0.9509 -0.3094 0.3094 0.9509 -14.8019 38.0341)" class="st22" cx="112.5" cy="65.7" rx="4.7" ry="4.7"/>
		<g>
			<path id="_409266824_50_" class="st21" d="M130.1,91.7c1.5,4.6-4,8.3-4.8,5.7c-0.2-0.6,0.1-1.3,0.8-1.5c3.4-1.1,1.7-6.3-1.7-5.2
				c-4.4,1.4,1.6,7.8-5.1,10c-6.5,2.1-9.7-7.8-3.2-9.9c1.5-0.5,2.3,1.8,0.8,2.3c-3.4,1.1-1.7,6.3,1.7,5.2c4.4-1.4-1.6-7.8,5.1-10
				C126.3,87.5,129.2,89,130.1,91.7L130.1,91.7z"/>
			<path id="_409267328_50_" class="st21" d="M115.1,96.6c0.5,1.5-1.5,1.8-2.8,2.2c-1.5,0.5-2.3-1.8-0.8-2.3
				C112.9,96,114.6,95.1,115.1,96.6z"/>
			<path id="_409266872_50_" class="st21" d="M132.1,91c0.5,1.5-1.5,1.8-2.8,2.2c-1.5,0.5-2.3-1.8-0.8-2.3
				C129.9,90.5,131.6,89.6,132.1,91z"/>
		</g>
	</g>
</g>
</svg>
