<svg width="1168" height="406" viewBox="0 0 1168 406" fill="none" xmlns="http://www.w3.org/2000/svg">
<path d="M195.732 29.1088L16.1703 41.6649C9.00809 42.1658 3.60797 48.3779 4.1088 55.5401L19.8738 280.99C20.3746 288.152 26.5867 293.552 33.7489 293.051L213.31 280.495C220.473 279.994 225.873 273.782 225.372 266.62L209.607 41.1703C209.106 34.0081 202.894 28.6079 195.732 29.1088Z" fill="white"/>
<path d="M195.941 32.1015C198.587 31.9165 201.198 32.79 203.199 34.53C205.201 36.27 206.429 38.7338 206.614 41.3796L222.379 266.829C222.564 269.475 221.691 272.086 219.951 274.087C218.211 276.089 215.747 277.317 213.101 277.502L33.5397 290.058C30.894 290.243 28.2831 289.37 26.2815 287.63C24.2799 285.89 23.0515 283.426 22.8665 280.78L7.10149 55.3308C6.91648 52.6851 7.79006 50.0743 9.53003 48.0727C11.27 46.0711 13.7339 44.8426 16.3796 44.6576L195.941 32.1015ZM195.523 26.1161L15.961 38.6723C11.7279 38.9683 7.78574 40.9338 5.00178 44.1363C2.21781 47.3389 0.820095 51.5163 1.1161 55.7494L16.8811 281.199C17.1771 285.432 19.1426 289.374 22.3451 292.158C25.5477 294.942 29.7251 296.34 33.9582 296.044L213.52 283.488C217.753 283.192 221.695 281.226 224.479 278.024C227.263 274.821 228.661 270.644 228.365 266.41L212.6 40.961C212.304 36.7279 210.338 32.7857 207.136 30.0018C203.933 27.2178 199.756 25.8201 195.523 26.1161V26.1161Z" fill="#515979"/>
<path d="M19.9367 238.883L219.449 224.931L222.379 266.829C222.564 269.475 221.691 272.086 219.951 274.087C218.211 276.089 215.747 277.317 213.101 277.502L33.5397 290.058C30.8939 290.243 28.2831 289.37 26.2815 287.63C24.2799 285.89 23.0515 283.426 22.8664 280.78L19.9367 238.883Z" fill="#D2F4FD"/>
<path d="M208.288 65.3211L8.77565 79.2724L13.7981 151.097L213.311 137.146L208.288 65.3211Z" fill="#D2F4FD"/>
<path d="M8.56638 76.2797C7.77267 76.3352 6.98942 76.0731 6.38893 75.5511C5.78845 75.0291 5.41992 74.29 5.36442 73.4963L4.1088 55.5401C3.86829 52.1007 5.00394 48.7066 7.26591 46.1045C9.52788 43.5024 12.7309 41.9055 16.1703 41.6649L195.732 29.1088C199.171 28.8683 202.565 30.0039 205.167 32.2659C207.77 34.5279 209.366 37.7309 209.607 41.1703L210.863 59.1264C210.918 59.9201 210.656 60.7034 210.134 61.3039C209.612 61.9044 208.873 62.2729 208.079 62.3284L8.56638 76.2797Z" fill="#667683"/>
<path d="M195.941 32.1015C198.587 31.9165 201.198 32.79 203.199 34.53C205.201 36.27 206.429 38.7338 206.614 41.3796L207.87 59.3357L8.3571 73.287L7.10149 55.3308C6.91648 52.6851 7.79006 50.0743 9.53003 48.0727C11.27 46.0711 13.7339 44.8426 16.3796 44.6576L195.941 32.1015ZM195.523 26.1161L15.961 38.6723C11.7279 38.9683 7.78574 40.9338 5.00178 44.1363C2.21781 47.3389 0.820095 51.5163 1.1161 55.7494L2.37172 73.7055C2.48272 75.293 3.21978 76.7713 4.42075 77.8153C5.62172 78.8592 7.18822 79.3834 8.77564 79.2724L208.288 65.3211C209.876 65.2101 211.354 64.473 212.398 63.2721C213.442 62.0711 213.966 60.5046 213.855 58.9172L212.6 40.961C212.304 36.7279 210.338 32.7857 207.136 30.0018C203.933 27.2178 199.756 25.8201 195.523 26.1161V26.1161Z" fill="#515979"/>
<path d="M97.6496 60.026C95.7976 60.1555 93.97 59.544 92.5689 58.326C91.1677 57.108 90.3078 55.3833 90.1783 53.5313C90.0488 51.6793 90.6603 49.8517 91.8783 48.4506C93.0963 47.0495 94.821 46.1896 96.673 46.0601L190.444 39.503C192.296 39.3735 194.124 39.985 195.525 41.2029C196.926 42.4209 197.786 44.1456 197.915 45.9976C198.045 47.8496 197.433 49.6772 196.215 51.0783C194.997 52.4795 193.273 53.3394 191.421 53.4689L97.6496 60.026Z" fill="white"/>
<path d="M190.653 42.4957C191.712 42.4217 192.756 42.7711 193.557 43.4671C194.357 44.1631 194.849 45.1486 194.923 46.2069C194.997 47.2652 194.647 48.3095 193.951 49.1102C193.255 49.9108 192.27 50.4022 191.211 50.4762L97.4403 57.0333C96.382 57.1073 95.3377 56.7579 94.537 56.0619C93.7364 55.3659 93.245 54.3803 93.171 53.3221C93.097 52.2638 93.4465 51.2194 94.1424 50.4188C94.8384 49.6181 95.824 49.1268 96.8823 49.0528L190.653 42.4957ZM190.235 36.5103L96.4637 43.0674C93.818 43.2524 91.3542 44.4808 89.6142 46.4824C87.8742 48.4841 87.0006 51.0949 87.1856 53.7406C87.3707 56.3863 88.5991 58.8501 90.6007 60.5901C92.6023 62.3301 95.2131 63.2037 97.8589 63.0187L191.63 56.4616C194.276 56.2766 196.739 55.0481 198.479 53.0465C200.219 51.0449 201.093 48.4341 200.908 45.7884C200.723 43.1427 199.495 40.6788 197.493 38.9388C195.491 37.1988 192.88 36.3253 190.235 36.5103Z" fill="#515979"/>
<path d="M23.8298 65.188C27.6864 64.9183 30.5942 61.5733 30.3245 57.7167C30.0548 53.8601 26.7098 50.9524 22.8532 51.2221C18.9967 51.4917 16.0889 54.8367 16.3586 58.6933C16.6283 62.5499 19.9733 65.4576 23.8298 65.188Z" fill="#EF7D7D"/>
<path d="M23.0625 54.2147C23.8517 54.1595 24.6396 54.3396 25.3264 54.7322C26.0133 55.1248 26.5683 55.7122 26.9213 56.4202C27.2743 57.1282 27.4094 57.925 27.3096 58.7098C27.2097 59.4946 26.8794 60.2322 26.3604 60.8292C25.8414 61.4263 25.1569 61.856 24.3937 62.0641C23.6304 62.2722 22.8226 62.2493 22.0723 61.9983C21.3221 61.7473 20.6631 61.2794 20.1788 60.6539C19.6944 60.0283 19.4065 59.2732 19.3513 58.484C19.2773 57.4257 19.6267 56.3814 20.3227 55.5808C21.0187 54.7801 22.0042 54.2887 23.0625 54.2147ZM22.644 48.2293C20.671 48.3673 18.7832 49.0872 17.2194 50.2981C15.6555 51.5089 14.4859 53.1563 13.8583 55.0319C13.2307 56.9075 13.1734 58.9271 13.6937 60.8353C14.2139 62.7435 15.2883 64.4545 16.781 65.7521C18.2736 67.0496 20.1176 67.8754 22.0796 68.125C24.0416 68.3746 26.0335 68.0368 27.8035 67.1543C29.5735 66.2718 31.0421 64.8843 32.0235 63.1672C33.005 61.45 33.4552 59.4804 33.3172 57.5074C33.1322 54.8617 31.9037 52.3979 29.9021 50.6579C27.9005 48.9179 25.2897 48.0443 22.644 48.2293Z" fill="#515979"/>
<path d="M47.7714 63.5138C51.6279 63.2441 54.5357 59.8991 54.266 56.0426C53.9963 52.186 50.6514 49.2782 46.7948 49.5479C42.9382 49.8176 40.0304 53.1626 40.3001 57.0191C40.5698 60.8757 43.9148 63.7835 47.7714 63.5138Z" fill="#FFE8A0"/>
<path d="M47.004 52.5406C47.7932 52.4854 48.5811 52.6655 49.2679 53.0581C49.9548 53.4506 50.5098 54.0381 50.8628 54.7461C51.2158 55.4541 51.3509 56.2508 51.2511 57.0356C51.1513 57.8204 50.8209 58.558 50.3019 59.1551C49.7829 59.7522 49.0985 60.1819 48.3352 60.39C47.5719 60.5981 46.7641 60.5752 46.0139 60.3241C45.2636 60.0731 44.6047 59.6053 44.1203 58.9797C43.636 58.3542 43.348 57.5991 43.2928 56.8099C43.2188 55.7516 43.5682 54.7073 44.2642 53.9066C44.9602 53.106 45.9458 52.6146 47.004 52.5406ZM46.5855 46.5552C44.6125 46.6932 42.7247 47.4131 41.1609 48.624C39.5971 49.8348 38.4274 51.4822 37.7998 53.3578C37.1723 55.2334 37.115 57.253 37.6352 59.1612C38.1554 61.0693 39.2298 62.7804 40.7225 64.0779C42.2152 65.3755 44.0591 66.2013 46.0211 66.4509C47.9831 66.7005 49.975 66.3627 51.7451 65.4802C53.5151 64.5977 54.9836 63.2102 55.9651 61.493C56.9465 59.7759 57.3967 57.8063 57.2587 55.8333C57.0737 53.1876 55.8453 50.7237 53.8437 48.9838C51.8421 47.2438 49.2312 46.3702 46.5855 46.5552Z" fill="#515979"/>
<path d="M71.7129 61.8396C75.5695 61.57 78.4772 58.225 78.2076 54.3684C77.9379 50.5118 74.5929 47.6041 70.7363 47.8737C66.8797 48.1434 63.972 51.4884 64.2417 55.345C64.5113 59.2016 67.8563 62.1093 71.7129 61.8396Z" fill="#7DDF96"/>
<path d="M70.9456 50.8664C71.7348 50.8112 72.5226 50.9913 73.2095 51.3839C73.8963 51.7765 74.4514 52.3639 74.8044 53.0719C75.1574 53.7799 75.2925 54.5767 75.1926 55.3615C75.0928 56.1463 74.7625 56.8839 74.2435 57.4809C73.7244 58.078 73.04 58.5077 72.2767 58.7158C71.5135 58.9239 70.7056 58.901 69.9554 58.65C69.2052 58.399 68.5462 57.9311 68.0619 57.3056C67.5775 56.68 67.2895 55.9249 67.2344 55.1357C67.1604 54.0774 67.5098 53.0331 68.2058 52.2325C68.9018 51.4318 69.8873 50.9404 70.9456 50.8664ZM70.5271 44.881C68.5541 45.019 66.6663 45.7389 65.1024 46.9498C63.5386 48.1606 62.3689 49.808 61.7414 51.6836C61.1138 53.5592 61.0565 55.5788 61.5767 57.487C62.097 59.3952 63.1714 61.1062 64.664 62.4038C66.1567 63.7013 68.0006 64.5271 69.9626 64.7767C71.9246 65.0263 73.9166 64.6885 75.6866 63.806C77.4566 62.9235 78.9252 61.536 79.9066 59.8189C80.888 58.1017 81.3382 56.1321 81.2003 54.1591C81.0153 51.5134 79.7868 49.0496 77.7852 47.3096C75.7836 45.5696 73.1728 44.696 70.5271 44.881Z" fill="#515979"/>
<g style="mix-blend-mode:color-burn" opacity="0.2">
<g style="mix-blend-mode:color-burn" opacity="0.2">
<path d="M76.3378 113.643C77.7152 113.547 78.7536 112.352 78.6573 110.975C78.561 109.598 77.3664 108.559 75.989 108.655C74.6117 108.752 73.5732 109.946 73.6695 111.324C73.7658 112.701 74.9605 113.74 76.3378 113.643Z" fill="#6B6B6B"/>
</g>
</g>
<g style="mix-blend-mode:color-burn" opacity="0.2">
<g style="mix-blend-mode:color-burn" opacity="0.2">
<path d="M82.5917 124.233C83.9691 124.136 85.0076 122.942 84.9113 121.564C84.8149 120.187 83.6203 119.149 82.2429 119.245C80.8656 119.341 79.8271 120.536 79.9234 121.913C80.0197 123.291 81.2144 124.329 82.5917 124.233Z" fill="#6B6B6B"/>
</g>
</g>
<g style="mix-blend-mode:color-burn" opacity="0.2">
<g style="mix-blend-mode:color-burn" opacity="0.2">
<path d="M71.6185 125C72.9959 124.904 74.0344 123.709 73.938 122.332C73.8417 120.954 72.6471 119.916 71.2697 120.012C69.8924 120.109 68.8539 121.303 68.9502 122.681C69.0465 124.058 70.2412 125.096 71.6185 125Z" fill="#6B6B6B"/>
</g>
</g>
<g style="mix-blend-mode:color-burn" opacity="0.2">
<g style="mix-blend-mode:color-burn" opacity="0.2">
<path d="M146.167 108.76C147.545 108.664 148.583 107.469 148.487 106.092C148.391 104.715 147.196 103.676 145.819 103.772C144.441 103.869 143.403 105.063 143.499 106.441C143.595 107.818 144.79 108.857 146.167 108.76Z" fill="#6B6B6B"/>
</g>
</g>
<g style="mix-blend-mode:color-burn" opacity="0.2">
<g style="mix-blend-mode:color-burn" opacity="0.2">
<path d="M152.421 119.35C153.799 119.253 154.837 118.059 154.741 116.682C154.644 115.304 153.45 114.266 152.072 114.362C150.695 114.458 149.657 115.653 149.753 117.03C149.849 118.408 151.044 119.446 152.421 119.35Z" fill="#6B6B6B"/>
</g>
</g>
<g style="mix-blend-mode:color-burn" opacity="0.2">
<g style="mix-blend-mode:color-burn" opacity="0.2">
<path d="M141.448 120.117C142.825 120.021 143.864 118.826 143.768 117.449C143.671 116.071 142.477 115.033 141.099 115.129C139.722 115.226 138.683 116.42 138.78 117.798C138.876 119.175 140.071 120.213 141.448 120.117Z" fill="#6B6B6B"/>
</g>
</g>
<path d="M213.311 137.146L13.7981 151.097L19.9367 238.883L219.449 224.931L213.311 137.146Z" fill="#6ADAF7"/>
<g style="mix-blend-mode:color-burn" opacity="0.2">
<g style="mix-blend-mode:color-burn" opacity="0.2">
<path d="M213.311 137.146L13.7981 151.097L14.0771 155.087L213.59 141.136L213.311 137.146Z" fill="#515979"/>
</g>
</g>
<path d="M200.105 249.34L112.319 255.479C111.218 255.556 110.387 256.512 110.464 257.613C110.541 258.715 111.497 259.546 112.598 259.469L200.384 253.33C201.486 253.253 202.317 252.298 202.24 251.196C202.163 250.094 201.207 249.263 200.105 249.34Z" fill="#6ADAF7"/>
<path d="M186.697 258.297L112.877 263.459C111.776 263.536 110.945 264.492 111.022 265.594C111.099 266.696 112.055 267.527 113.156 267.45L186.976 262.288C188.078 262.211 188.909 261.255 188.832 260.153C188.755 259.051 187.799 258.22 186.697 258.297Z" fill="#6ADAF7"/>
<path d="M163.314 267.952L113.436 271.44C112.334 271.517 111.503 272.473 111.58 273.574C111.657 274.676 112.613 275.507 113.715 275.43L163.593 271.942C164.695 271.865 165.525 270.909 165.448 269.808C165.371 268.706 164.416 267.875 163.314 267.952Z" fill="#6ADAF7"/>
<path d="M58.4651 202.105C70.0348 201.296 78.7581 191.261 77.949 179.692C77.14 168.122 67.105 159.399 55.5353 160.208C43.9656 161.017 35.2423 171.052 36.0514 182.621C36.8604 194.191 46.8954 202.914 58.4651 202.105Z" fill="#D2F4FD"/>
<path d="M70.2334 241.38C64.882 241.756 59.7292 243.559 55.3117 246.603C50.8943 249.647 47.3738 253.819 45.117 258.686C42.8602 263.553 41.9497 268.936 42.4804 274.274C43.011 279.612 44.9633 284.711 48.134 289.038L98.7504 285.498C101.288 280.772 102.512 275.452 102.294 270.091C102.077 264.731 100.426 259.528 97.5139 255.022C94.6018 250.517 90.5348 246.875 85.7368 244.476C80.9387 242.076 75.585 241.007 70.2334 241.38Z" fill="#6ADAF7"/>
<path d="M117.321 197.99C128.891 197.181 137.614 187.146 136.805 175.576C135.996 164.006 125.961 155.283 114.392 156.092C102.822 156.901 94.0986 166.936 94.9076 178.506C95.7167 190.076 105.752 198.799 117.321 197.99Z" fill="#D2F4FD"/>
<path d="M176.178 193.874C187.747 193.065 196.471 183.03 195.662 171.46C194.853 159.891 184.818 151.167 173.248 151.976C161.678 152.785 152.955 162.82 153.764 174.39C154.573 185.96 164.608 194.683 176.178 193.874Z" fill="#D2F4FD"/>
<g style="mix-blend-mode:color-burn" opacity="0.2">
<g style="mix-blend-mode:color-burn" opacity="0.2">
<path d="M75.8422 206.905L41.925 209.277C40.8232 209.354 39.9924 210.309 40.0694 211.411C40.1465 212.513 41.1022 213.344 42.2041 213.267L76.1212 210.895C77.2231 210.818 78.0539 209.862 77.9768 208.761C77.8998 207.659 76.9441 206.828 75.8422 206.905Z" fill="#515979"/>
</g>
<g style="mix-blend-mode:color-burn" opacity="0.2">
<path d="M76.4003 214.885L42.4831 217.257C41.3812 217.334 40.5504 218.29 40.6275 219.392C40.7045 220.494 41.6602 221.325 42.7621 221.247L76.6793 218.876C77.7812 218.799 78.6119 217.843 78.5349 216.741C78.4578 215.639 77.5021 214.808 76.4003 214.885Z" fill="#515979"/>
</g>
<g style="mix-blend-mode:color-burn" opacity="0.2">
<path d="M66.9827 223.564L43.0411 225.238C41.9393 225.315 41.1085 226.27 41.1855 227.372C41.2626 228.474 42.2183 229.305 43.3202 229.228L67.2617 227.554C68.3636 227.477 69.1944 226.521 69.1173 225.419C69.0403 224.317 68.0846 223.486 66.9827 223.564Z" fill="#515979"/>
</g>
</g>
<g style="mix-blend-mode:color-burn" opacity="0.2">
<g style="mix-blend-mode:color-burn" opacity="0.2">
<path d="M134.699 202.789L100.781 205.161C99.6794 205.238 98.8487 206.194 98.9257 207.296C99.0028 208.398 99.9585 209.228 101.06 209.151L134.978 206.78C136.079 206.703 136.91 205.747 136.833 204.645C136.756 203.543 135.8 202.712 134.699 202.789Z" fill="#515979"/>
</g>
<g style="mix-blend-mode:color-burn" opacity="0.2">
<path d="M135.257 210.77L101.339 213.142C100.237 213.219 99.4067 214.174 99.4838 215.276C99.5608 216.378 100.517 217.209 101.618 217.132L135.536 214.76C136.637 214.683 137.468 213.727 137.391 212.626C137.314 211.524 136.358 210.693 135.257 210.77Z" fill="#515979"/>
</g>
<g style="mix-blend-mode:color-burn" opacity="0.2">
<path d="M125.839 219.448L101.897 221.122C100.796 221.199 99.9647 222.155 100.042 223.257C100.119 224.359 101.075 225.189 102.176 225.112L126.118 223.438C127.22 223.361 128.051 222.405 127.974 221.304C127.897 220.202 126.941 219.371 125.839 219.448Z" fill="#515979"/>
</g>
</g>
<g style="mix-blend-mode:color-burn" opacity="0.2">
<g style="mix-blend-mode:color-burn" opacity="0.2">
<path d="M193.555 198.674L159.638 201.045C158.536 201.122 157.705 202.078 157.782 203.18C157.859 204.282 158.815 205.113 159.917 205.036L193.834 202.664C194.936 202.587 195.766 201.631 195.689 200.529C195.612 199.427 194.657 198.597 193.555 198.674Z" fill="#515979"/>
</g>
<g style="mix-blend-mode:color-burn" opacity="0.2">
<path d="M194.113 206.654L160.196 209.026C159.094 209.103 158.263 210.059 158.34 211.161C158.417 212.262 159.373 213.093 160.475 213.016L194.392 210.644C195.494 210.567 196.324 209.612 196.247 208.51C196.17 207.408 195.215 206.577 194.113 206.654Z" fill="#515979"/>
</g>
<g style="mix-blend-mode:color-burn" opacity="0.2">
<path d="M184.695 215.332L160.754 217.006C159.652 217.083 158.821 218.039 158.898 219.141C158.975 220.243 159.931 221.074 161.033 220.997L184.974 219.323C186.076 219.245 186.907 218.29 186.83 217.188C186.753 216.086 185.797 215.255 184.695 215.332Z" fill="#515979"/>
</g>
</g>
<path d="M132.504 106.899C132.157 106.935 131.807 106.876 131.49 106.729C130.341 106.309 129.116 106.136 127.896 106.221C126.675 106.307 125.487 106.649 124.407 107.224C123.959 107.508 123.417 107.603 122.899 107.487C122.381 107.37 121.931 107.054 121.647 106.605C121.363 106.157 121.269 105.615 121.385 105.097C121.501 104.58 121.818 104.129 122.266 103.846C123.908 102.919 125.736 102.37 127.617 102.238C129.498 102.107 131.385 102.396 133.14 103.085C133.545 103.269 133.878 103.582 134.085 103.977C134.292 104.371 134.362 104.822 134.283 105.261C134.205 105.699 133.982 106.098 133.651 106.396C133.319 106.693 132.898 106.871 132.454 106.902L132.504 106.899Z" fill="#515979"/>
<path d="M127.823 104.469C132.231 104.161 135.554 100.338 135.246 95.9308C134.938 91.5233 131.115 88.2002 126.707 88.5084C122.3 88.8166 118.977 92.6394 119.285 97.047C119.593 101.454 123.416 104.778 127.823 104.469Z" fill="#515979"/>
<path d="M129.4 98.3445C130.502 98.2675 131.333 97.3118 131.256 96.2099C131.178 95.108 130.223 94.2772 129.121 94.3543C128.019 94.4313 127.188 95.387 127.265 96.4889C127.342 97.5908 128.298 98.4216 129.4 98.3445Z" fill="white"/>
<path d="M120.282 80.6274C120.854 80.0653 121.493 79.5762 122.185 79.1711C122.834 78.7666 123.522 78.4296 124.24 78.1653C125.742 77.599 127.345 77.347 128.95 77.425C129.365 77.4416 129.78 77.4829 130.191 77.5487C130.608 77.6298 131.016 77.7316 131.424 77.8333C131.832 77.9351 132.217 78.1388 132.609 78.2918C133.004 78.4412 133.379 78.6407 133.723 78.8855C135.102 79.7262 136.225 80.9264 136.973 82.3573C137.202 82.7243 137.306 83.1557 137.27 83.5868C137.233 84.018 137.057 84.4256 136.769 84.7485C136.481 85.0714 136.096 85.2921 135.672 85.3776C135.248 85.4631 134.807 85.4087 134.417 85.2226L134.024 85.0596C133.104 84.6138 132.157 84.2281 131.187 83.9047C130.34 83.6213 129.458 83.4536 128.566 83.4063C127.588 83.3452 126.607 83.3769 125.635 83.501C125.117 83.5372 124.582 83.6348 124.038 83.7429C123.494 83.8511 122.902 83.9728 122.432 83.9956L121.823 84.0382C121.418 84.0621 121.016 83.9624 120.669 83.7521C120.322 83.5418 120.047 83.231 119.881 82.8609C119.715 82.4907 119.665 82.0788 119.738 81.6797C119.812 81.2807 120.005 80.9134 120.292 80.6267L120.282 80.6274Z" fill="#515979"/>
<path d="M98.587 109.271C98.2398 109.306 97.8894 109.248 97.5727 109.101C96.4236 108.681 95.1989 108.508 93.9785 108.593C92.7581 108.678 91.5694 109.02 90.49 109.596C90.0419 109.88 89.4994 109.974 88.9818 109.858C88.4642 109.742 88.014 109.425 87.7301 108.977C87.4462 108.529 87.3519 107.987 87.468 107.469C87.584 106.951 87.901 106.501 88.3491 106.217C89.9912 105.291 91.8191 104.742 93.7 104.61C95.5809 104.479 97.4674 104.768 99.2225 105.457C99.6323 105.642 99.9677 105.96 100.175 106.359C100.382 106.759 100.448 107.216 100.363 107.657C100.278 108.099 100.047 108.499 99.7062 108.793C99.3659 109.087 98.9365 109.258 98.4872 109.278L98.587 109.271Z" fill="#515979"/>
<path d="M93.9061 106.841C98.3136 106.533 101.637 102.71 101.329 98.3026C101.02 93.8951 97.1975 90.5719 92.79 90.8801C88.3825 91.1883 85.0594 95.0112 85.3676 99.4187C85.6758 103.826 89.4986 107.149 93.9061 106.841Z" fill="#515979"/>
<path d="M95.4827 100.716C96.5846 100.639 97.4154 99.6835 97.3383 98.5816C97.2613 97.4797 96.3056 96.6489 95.2037 96.726C94.1018 96.803 93.271 97.7588 93.3481 98.8606C93.4251 99.9625 94.3808 100.793 95.4827 100.716Z" fill="white"/>
<path d="M96.4454 85.8128C95.9766 85.8456 95.3504 85.7791 94.8196 85.7861C94.2888 85.7932 93.726 85.7724 93.2045 85.7688C92.225 85.7811 91.2489 85.8863 90.2893 86.0829C89.4124 86.2539 88.5626 86.5426 87.763 86.9412C86.8477 87.3964 85.9628 87.9103 85.1139 88.4797L84.758 88.6951C84.3971 88.9627 83.9566 89.101 83.5074 89.0877C83.0583 89.0743 82.6267 88.9101 82.2823 88.6216C81.9379 88.333 81.7007 87.9369 81.6089 87.497C81.5172 87.0571 81.5762 86.5992 81.7765 86.197C82.3153 84.6745 83.2614 83.3289 84.5118 82.3067C84.8188 82.0163 85.1618 81.7666 85.5325 81.5637C85.899 81.3576 86.2534 81.1223 86.642 80.9448C87.0305 80.7672 87.4219 80.6296 87.8232 80.4913C88.222 80.3757 88.6273 80.2837 89.037 80.2159C90.6146 79.9155 92.237 79.9419 93.804 80.2936C94.5513 80.4555 95.28 80.6934 95.9788 81.0036C96.7205 81.3084 97.4215 81.7039 98.066 82.1809C98.4893 82.4966 98.7705 82.9669 98.8483 83.4892C98.9262 84.0114 98.7943 84.5433 98.4815 84.9687C98.3115 85.1981 98.0944 85.3884 97.8447 85.5269C97.5951 85.6654 97.3186 85.7489 97.034 85.7716L96.4454 85.8128Z" fill="#515979"/>
<path d="M70.1146 110.66C71.4919 110.564 72.5304 109.369 72.4341 107.992C72.3378 106.614 71.1431 105.576 69.7658 105.672C68.3884 105.769 67.3499 106.963 67.4463 108.341C67.5426 109.718 68.7372 110.756 70.1146 110.66Z" fill="#6ADAF7"/>
<path d="M76.3685 121.25C77.7458 121.153 78.7843 119.959 78.688 118.581C78.5917 117.204 77.397 116.165 76.0197 116.262C74.6423 116.358 73.6039 117.553 73.7002 118.93C73.7965 120.307 74.9911 121.346 76.3685 121.25Z" fill="#6ADAF7"/>
<path d="M65.3953 122.017C66.7726 121.921 67.8111 120.726 67.7148 119.349C67.6185 117.971 66.4238 116.933 65.0465 117.029C63.6691 117.125 62.6307 118.32 62.727 119.697C62.8233 121.075 64.0179 122.113 65.3953 122.017Z" fill="#6ADAF7"/>
<path d="M151.915 104.94C153.292 104.844 154.331 103.649 154.234 102.272C154.138 100.894 152.943 99.8559 151.566 99.9522C150.189 100.049 149.15 101.243 149.247 102.62C149.343 103.998 150.537 105.036 151.915 104.94Z" fill="#6ADAF7"/>
<path d="M158.169 115.53C159.546 115.433 160.585 114.239 160.488 112.861C160.392 111.484 159.197 110.445 157.82 110.542C156.443 110.638 155.404 111.833 155.5 113.21C155.597 114.587 156.791 115.626 158.169 115.53Z" fill="#6ADAF7"/>
<path d="M147.196 116.297C148.573 116.201 149.611 115.006 149.515 113.629C149.419 112.251 148.224 111.213 146.847 111.309C145.469 111.405 144.431 112.6 144.527 113.977C144.624 115.355 145.818 116.393 147.196 116.297Z" fill="#6ADAF7"/>
<path d="M113.072 137.228C107.65 137.602 102.301 135.809 98.1987 132.243C94.0966 128.678 91.5769 123.63 91.1924 118.208C91.1462 117.547 91.3646 116.894 91.7996 116.394C92.2346 115.893 92.8505 115.586 93.5119 115.54L129.424 113.029C130.086 112.982 130.738 113.201 131.239 113.636C131.739 114.071 132.046 114.687 132.093 115.348C132.466 120.771 130.674 126.12 127.108 130.222C123.542 134.324 118.494 136.844 113.072 137.228Z" fill="#515979"/>
<path d="M129.599 115.523C129.932 120.285 128.359 124.984 125.227 128.587C122.095 132.19 117.66 134.401 112.898 134.734C108.136 135.067 103.436 133.495 99.8334 130.363C96.2305 127.231 94.0194 122.796 93.6863 118.034L129.599 115.523ZM129.25 110.535L93.3376 113.046C92.0147 113.138 90.7828 113.753 89.9128 114.753C89.0428 115.754 88.606 117.06 88.6985 118.383C89.1002 124.469 91.9034 130.147 96.4915 134.167C101.08 138.187 107.077 140.22 113.163 139.818C119.25 139.416 124.928 136.613 128.948 132.025C132.968 127.437 135.001 121.44 134.599 115.353L134.586 115.174C134.494 113.851 133.88 112.619 132.879 111.749C131.878 110.879 130.573 110.442 129.25 110.535Z" fill="#515979"/>
<path d="M112.898 134.734C120.275 134.218 126.068 131.12 125.837 127.815C125.606 124.509 119.438 122.248 112.061 122.764C104.684 123.279 98.891 126.377 99.1222 129.683C99.3533 132.989 105.521 135.25 112.898 134.734Z" fill="#EF7D7D"/>
<path d="M1026.24 115.688L853.217 66.0737C846.315 64.0947 839.116 68.0852 837.137 74.9868L774.843 292.232C772.864 299.133 776.855 306.333 783.756 308.312L956.783 357.926C963.685 359.905 970.884 355.915 972.863 349.013L1035.16 131.768C1037.14 124.867 1033.15 117.667 1026.24 115.688Z" fill="white"/>
<path d="M1025.42 118.572C1027.97 119.303 1030.12 121.017 1031.41 123.337C1032.69 125.656 1033 128.392 1032.27 130.941L969.979 348.186C969.248 350.736 967.534 352.89 965.215 354.176C962.895 355.462 960.16 355.774 957.61 355.043L784.583 305.428C782.034 304.697 779.879 302.983 778.593 300.663C777.307 298.344 776.996 295.608 777.727 293.059L840.021 75.8137C840.752 73.2643 842.466 71.1097 844.785 69.8239C847.105 68.5381 849.84 68.2264 852.39 68.9575L1025.42 118.572ZM1027.07 112.805L854.044 63.1899C849.965 62.0202 845.588 62.5189 841.876 64.5762C838.165 66.6334 835.423 70.0808 834.253 74.1599L771.959 291.405C770.79 295.484 771.288 299.861 773.345 303.572C775.403 307.284 778.85 310.026 782.929 311.195L955.956 360.81C960.035 361.98 964.412 361.481 968.123 359.424C971.835 357.367 974.577 353.919 975.747 349.84L1038.04 132.595C1039.21 128.516 1038.71 124.139 1036.65 120.428C1034.6 116.716 1031.15 113.974 1027.07 112.805V112.805Z" fill="#515979"/>
<path d="M957.61 355.043L784.583 305.428C782.034 304.697 779.879 302.983 778.593 300.663C777.307 298.344 776.996 295.608 777.727 293.059L794.816 233.461L987.069 288.588L969.979 348.186C969.248 350.736 967.534 352.89 965.215 354.176C962.895 355.462 960.16 355.774 957.61 355.043Z" fill="#F89D81"/>
<path d="M1025.66 154.011L833.406 98.884L812.457 171.94L1004.71 227.067L1025.66 154.011Z" fill="#F89D81"/>
<path d="M834.232 96.0002C833.468 95.7809 832.821 95.2667 832.436 94.5708C832.05 93.8749 831.956 93.0543 832.176 92.2895L837.137 74.9868C838.087 71.6725 840.315 68.8716 843.331 67.2C846.346 65.5285 849.902 65.1233 853.217 66.0737L1026.24 115.688C1029.56 116.639 1032.36 118.867 1034.03 121.882C1035.7 124.898 1036.11 128.454 1035.16 131.768L1030.2 149.071C1029.98 149.836 1029.46 150.482 1028.77 150.868C1028.07 151.253 1027.25 151.347 1026.48 151.128L834.232 96.0002Z" fill="#667683"/>
<path d="M1025.42 118.572C1027.97 119.303 1030.12 121.017 1031.41 123.337C1032.69 125.656 1033 128.392 1032.27 130.941L1027.31 148.244L835.059 93.1164L840.021 75.8137C840.752 73.2643 842.466 71.1097 844.785 69.8239C847.105 68.5381 849.84 68.2264 852.39 68.9575L1025.42 118.572ZM1027.07 112.805L854.044 63.1899C849.965 62.0202 845.588 62.5189 841.876 64.5762C838.165 66.6334 835.423 70.0808 834.253 74.1599L829.292 91.4626C828.853 92.9922 829.04 94.6335 829.812 96.0253C830.583 97.4171 831.876 98.4454 833.406 98.884L1025.66 154.011C1027.19 154.45 1028.83 154.263 1030.22 153.492C1031.61 152.72 1032.64 151.427 1033.08 149.898L1038.04 132.595C1039.21 128.516 1038.71 124.139 1036.65 120.428C1034.6 116.716 1031.15 113.974 1027.07 112.805V112.805Z" fill="#515979"/>
<path d="M923.502 111.195C921.718 110.683 920.21 109.484 919.309 107.86C918.409 106.236 918.191 104.321 918.703 102.537C919.215 100.752 920.414 99.2438 922.038 98.3438C923.662 97.4437 925.577 97.2256 927.361 97.7373L1017.72 123.647C1019.5 124.159 1021.01 125.359 1021.91 126.982C1022.81 128.606 1023.03 130.521 1022.52 132.305C1022.01 134.09 1020.81 135.598 1019.18 136.498C1017.56 137.398 1015.65 137.617 1013.86 137.105L923.502 111.195Z" fill="white"/>
<path d="M1016.89 126.531C1017.91 126.823 1018.77 127.509 1019.29 128.437C1019.8 129.365 1019.93 130.459 1019.64 131.479C1019.34 132.498 1018.66 133.36 1017.73 133.874C1016.8 134.389 1015.71 134.513 1014.69 134.221L924.329 108.311C923.309 108.019 922.448 107.333 921.933 106.405C921.419 105.477 921.294 104.383 921.587 103.364C921.879 102.344 922.565 101.482 923.493 100.968C924.42 100.453 925.515 100.329 926.534 100.621L1016.89 126.531ZM1018.55 120.763L928.188 94.8535C925.639 94.1224 922.903 94.4341 920.584 95.7199C918.264 97.0057 916.55 99.1603 915.819 101.71C915.088 104.259 915.4 106.995 916.686 109.314C917.971 111.634 920.126 113.348 922.675 114.079L1013.03 139.989C1015.58 140.72 1018.32 140.408 1020.64 139.122C1022.96 137.836 1024.67 135.682 1025.4 133.132C1026.13 130.583 1025.82 127.848 1024.54 125.528C1023.25 123.208 1021.1 121.494 1018.55 120.763Z" fill="#515979"/>
<path d="M852.369 90.7978C856.085 91.8634 859.962 89.7146 861.027 85.9984C862.093 82.2822 859.944 78.4057 856.228 77.3401C852.512 76.2745 848.635 78.4232 847.57 82.1395C846.504 85.8557 848.653 89.7322 852.369 90.7978Z" fill="#EF7D7D"/>
<path d="M855.401 80.2239C856.161 80.442 856.84 80.8806 857.351 81.4844C857.863 82.0883 858.183 82.8301 858.273 83.6161C858.362 84.4022 858.217 85.1971 857.855 85.9004C857.492 86.6038 856.93 87.1839 856.238 87.5674C855.546 87.951 854.756 88.1207 853.967 88.0552C853.179 87.9897 852.428 87.6919 851.808 87.1994C851.189 86.7069 850.73 86.0419 850.489 85.2884C850.248 84.5349 850.235 83.7269 850.453 82.9664C850.746 81.9466 851.431 81.0848 852.359 80.5705C853.287 80.0561 854.381 79.9315 855.401 80.2239ZM857.055 74.4563C855.154 73.9112 853.133 73.942 851.25 74.545C849.366 75.1479 847.704 76.2959 846.472 77.8438C845.241 79.3916 844.497 81.2698 844.333 83.2409C844.169 85.2119 844.593 87.1872 845.552 88.917C846.511 90.6469 847.961 92.0535 849.72 92.9591C851.478 93.8647 853.465 94.2286 855.43 94.0047C857.396 93.7808 859.25 92.9792 860.76 91.7013C862.269 90.4234 863.366 88.7265 863.911 86.8253C864.642 84.2759 864.33 81.5405 863.045 79.2208C861.759 76.9012 859.604 75.1874 857.055 74.4563Z" fill="#515979"/>
<path d="M875.439 97.4131C879.155 98.4787 883.032 96.3299 884.098 92.6137C885.163 88.8975 883.014 85.021 879.298 83.9554C875.582 82.8898 871.705 85.0385 870.64 88.7548C869.574 92.471 871.723 96.3475 875.439 97.4131Z" fill="#FFE8A0"/>
<path d="M878.471 86.8392C879.232 87.0573 879.91 87.4959 880.422 88.0997C880.933 88.7036 881.253 89.4454 881.343 90.2314C881.433 91.0175 881.287 91.8124 880.925 92.5157C880.563 93.2191 880 93.7992 879.308 94.1827C878.616 94.5663 877.826 94.736 877.037 94.6705C876.249 94.605 875.498 94.3072 874.879 93.8147C874.259 93.3222 873.8 92.6572 873.559 91.9037C873.318 91.1502 873.306 90.3422 873.524 89.5817C873.816 88.5619 874.502 87.7001 875.429 87.1858C876.357 86.6714 877.451 86.5468 878.471 86.8392ZM880.125 81.0716C878.224 80.5265 876.204 80.5573 874.32 81.1603C872.436 81.7632 870.774 82.9112 869.543 84.4591C868.311 86.0069 867.567 87.8851 867.403 89.8562C867.239 91.8272 867.664 93.8025 868.623 95.5323C869.581 97.2622 871.032 98.6688 872.79 99.5744C874.548 100.48 876.536 100.844 878.501 100.62C880.466 100.396 882.32 99.5945 883.83 98.3166C885.339 97.0386 886.436 95.3418 886.981 93.4406C887.712 90.8912 887.401 88.1558 886.115 85.8361C884.829 83.5165 882.674 81.8027 880.125 81.0716Z" fill="#515979"/>
<path d="M898.51 104.028C902.226 105.094 906.102 102.945 907.168 99.229C908.233 95.5128 906.085 91.6363 902.368 90.5707C898.652 89.5051 894.776 91.6538 893.71 95.3701C892.645 99.0863 894.793 102.963 898.51 104.028Z" fill="#7DDF96"/>
<path d="M901.542 93.4545C902.302 93.6726 902.981 94.1112 903.492 94.715C904.003 95.3189 904.324 96.0607 904.413 96.8467C904.503 97.6328 904.357 98.4277 903.995 99.131C903.633 99.8344 903.07 100.414 902.378 100.798C901.686 101.182 900.896 101.351 900.108 101.286C899.319 101.22 898.568 100.922 897.949 100.43C897.33 99.9375 896.871 99.2725 896.629 98.519C896.388 97.7655 896.376 96.9575 896.594 96.197C896.886 95.1772 897.572 94.3154 898.5 93.8011C899.428 93.2867 900.522 93.1621 901.542 93.4545ZM903.195 87.6869C901.294 87.1418 899.274 87.1726 897.39 87.7756C895.507 88.3785 893.844 89.5265 892.613 91.0744C891.382 92.6222 890.637 94.5004 890.473 96.4715C890.31 98.4425 890.734 100.418 891.693 102.148C892.652 103.877 894.102 105.284 895.86 106.19C897.619 107.095 899.606 107.459 901.571 107.235C903.536 107.011 905.391 106.21 906.9 104.932C908.41 103.654 909.506 101.957 910.052 100.056C910.783 97.5065 910.471 94.7711 909.185 92.4514C907.899 90.1318 905.745 88.418 903.195 87.6869Z" fill="#515979"/>
<g style="mix-blend-mode:color-burn" opacity="0.3">
<g style="mix-blend-mode:color-burn" opacity="0.3">
<path d="M885.138 154.29C886.465 154.67 887.849 153.903 888.23 152.576C888.61 151.248 887.843 149.864 886.516 149.483C885.189 149.103 883.804 149.87 883.424 151.197C883.043 152.525 883.81 153.909 885.138 154.29Z" fill="#6B6B6B"/>
</g>
</g>
<g style="mix-blend-mode:color-burn" opacity="0.3">
<g style="mix-blend-mode:color-burn" opacity="0.3">
<path d="M887.393 166.379C888.72 166.76 890.104 165.993 890.485 164.665C890.865 163.338 890.098 161.954 888.771 161.573C887.444 161.193 886.059 161.96 885.679 163.287C885.298 164.614 886.065 165.999 887.393 166.379Z" fill="#6B6B6B"/>
</g>
</g>
<g style="mix-blend-mode:color-burn" opacity="0.3">
<g style="mix-blend-mode:color-burn" opacity="0.3">
<path d="M876.819 163.348C878.146 163.728 879.53 162.961 879.911 161.633C880.291 160.306 879.524 158.922 878.197 158.541C876.87 158.161 875.485 158.928 875.105 160.255C874.724 161.582 875.491 162.967 876.819 163.348Z" fill="#6B6B6B"/>
</g>
</g>
<g style="mix-blend-mode:color-burn" opacity="0.3">
<g style="mix-blend-mode:color-burn" opacity="0.3">
<path d="M952.426 173.584C953.753 173.965 955.138 173.197 955.518 171.87C955.899 170.543 955.131 169.158 953.804 168.778C952.477 168.397 951.092 169.165 950.712 170.492C950.331 171.819 951.099 173.204 952.426 173.584Z" fill="#6B6B6B"/>
</g>
</g>
<g style="mix-blend-mode:color-burn" opacity="0.3">
<g style="mix-blend-mode:color-burn" opacity="0.3">
<path d="M954.681 185.674C956.008 186.055 957.393 185.287 957.773 183.96C958.154 182.633 957.386 181.248 956.059 180.868C954.732 180.487 953.347 181.255 952.967 182.582C952.586 183.909 953.354 185.294 954.681 185.674Z" fill="#6B6B6B"/>
</g>
</g>
<g style="mix-blend-mode:color-burn" opacity="0.3">
<g style="mix-blend-mode:color-burn" opacity="0.3">
<path d="M944.107 182.642C945.434 183.023 946.819 182.255 947.199 180.928C947.58 179.601 946.812 178.216 945.485 177.836C944.158 177.455 942.774 178.223 942.393 179.55C942.012 180.877 942.78 182.261 944.107 182.642Z" fill="#6B6B6B"/>
</g>
</g>
<path d="M1004.99 226.106L812.733 170.979L792.336 242.112L984.588 297.239L1004.99 226.106Z" fill="#FDE1D9"/>
<path d="M867.235 202.211L826.862 190.635C824.739 190.026 822.523 191.254 821.915 193.377L811.992 227.983C811.383 230.106 812.611 232.321 814.734 232.93L855.107 244.507C857.231 245.116 859.446 243.888 860.055 241.764L869.978 207.159C870.587 205.035 869.359 202.82 867.235 202.211Z" fill="white"/>
<path d="M829.591 210.142C832.776 211.056 836.099 209.214 837.012 206.029C837.926 202.843 836.084 199.521 832.898 198.607C829.713 197.694 826.39 199.536 825.477 202.721C824.564 205.906 826.405 209.229 829.591 210.142Z" fill="#FDE1D9"/>
<path d="M857.326 222.257L824.643 212.885C823.581 212.58 822.474 213.194 822.169 214.256C821.865 215.318 822.479 216.426 823.541 216.73L856.224 226.102C857.285 226.406 858.393 225.792 858.697 224.73C859.002 223.669 858.388 222.561 857.326 222.257Z" fill="#F89D81"/>
<path d="M841.663 226.088L822.438 220.575C821.376 220.271 820.269 220.884 819.964 221.946C819.66 223.008 820.274 224.116 821.336 224.42L840.561 229.933C841.623 230.237 842.73 229.623 843.035 228.562C843.339 227.5 842.725 226.392 841.663 226.088Z" fill="#F89D81"/>
<path d="M982.587 235.288L942.214 223.711C940.09 223.102 937.875 224.33 937.266 226.454L927.343 261.059C926.734 263.183 927.962 265.398 930.086 266.007L970.459 277.583C972.582 278.192 974.797 276.964 975.406 274.841L985.329 240.235C985.938 238.112 984.71 235.897 982.587 235.288Z" fill="white"/>
<path d="M944.942 243.219C948.127 244.132 951.45 242.291 952.363 239.105C953.277 235.92 951.435 232.597 948.25 231.684C945.064 230.77 941.742 232.612 940.828 235.798C939.915 238.983 941.757 242.306 944.942 243.219Z" fill="#FDE1D9"/>
<path d="M972.677 255.333L939.995 245.961C938.933 245.657 937.825 246.271 937.521 247.333C937.216 248.394 937.83 249.502 938.892 249.806L971.575 259.178C972.637 259.483 973.744 258.869 974.049 257.807C974.353 256.745 973.739 255.638 972.677 255.333Z" fill="#F89D81"/>
<path d="M949.325 256.959L937.789 253.651C936.728 253.347 935.62 253.961 935.316 255.023C935.011 256.085 935.625 257.192 936.687 257.497L948.222 260.804C949.284 261.109 950.391 260.495 950.696 259.433C951 258.371 950.386 257.264 949.325 256.959Z" fill="#F89D81"/>
<path d="M924.911 218.75L884.538 207.173C882.414 206.564 880.199 207.792 879.59 209.915L869.667 244.521C869.058 246.644 870.286 248.859 872.41 249.468L912.783 261.045C914.906 261.654 917.121 260.426 917.73 258.303L927.653 223.697C928.262 221.574 927.034 219.359 924.911 218.75Z" fill="white"/>
<path d="M887.266 226.681C890.452 227.594 893.774 225.752 894.688 222.567C895.601 219.382 893.759 216.059 890.574 215.146C887.389 214.232 884.066 216.074 883.153 219.259C882.239 222.445 884.081 225.767 887.266 226.681Z" fill="#FDE1D9"/>
<path d="M915.002 238.795L882.319 229.423C881.257 229.119 880.15 229.733 879.845 230.794C879.541 231.856 880.155 232.964 881.216 233.268L913.899 242.64C914.961 242.944 916.069 242.33 916.373 241.269C916.677 240.207 916.064 239.099 915.002 238.795Z" fill="#F89D81"/>
<path d="M905.107 244.28L880.114 237.113C879.052 236.809 877.944 237.423 877.64 238.485C877.336 239.546 877.949 240.654 879.011 240.958L904.004 248.125C905.066 248.429 906.173 247.815 906.478 246.754C906.782 245.692 906.168 244.584 905.107 244.28Z" fill="#F89D81"/>
<path d="M815.075 307.929C827.816 311.583 841.107 304.216 844.76 291.474C848.414 278.733 841.047 265.442 828.305 261.789C815.564 258.135 802.273 265.502 798.62 278.244C794.966 290.985 802.333 304.276 815.075 307.929Z" fill="#FDE1D9"/>
<path d="M872.75 324.468C885.492 328.121 898.782 320.754 902.436 308.013C906.089 295.271 898.722 281.981 885.981 278.327C873.24 274.673 859.949 282.041 856.295 294.782C852.642 307.523 860.009 320.814 872.75 324.468Z" fill="#FDE1D9"/>
<path d="M930.426 341.006C943.167 344.659 956.458 337.292 960.112 324.551C963.765 311.81 956.398 298.519 943.657 294.865C930.915 291.212 917.625 298.579 913.971 311.32C910.318 324.062 917.685 337.352 930.426 341.006Z" fill="#FDE1D9"/>
<path d="M937.67 168.812C937.333 168.722 937.025 168.547 936.775 168.306C935.841 167.513 934.75 166.929 933.573 166.592C932.396 166.254 931.161 166.171 929.95 166.349C929.43 166.462 928.887 166.364 928.44 166.077C927.993 165.789 927.678 165.336 927.565 164.817C927.451 164.297 927.549 163.754 927.836 163.307C928.124 162.86 928.577 162.545 929.096 162.432C930.956 162.123 932.862 162.232 934.674 162.752C936.487 163.271 938.161 164.188 939.574 165.436C939.902 165.749 940.114 166.164 940.175 166.613C940.236 167.063 940.142 167.519 939.91 167.909C939.677 168.298 939.32 168.596 938.895 168.755C938.471 168.915 938.005 168.925 937.574 168.784L937.67 168.812Z" fill="#515979"/>
<path d="M934.105 164.919C938.352 166.136 942.782 163.681 944 159.434C945.218 155.186 942.762 150.756 938.515 149.538C934.268 148.321 929.838 150.776 928.62 155.023C927.402 159.27 929.858 163.701 934.105 164.919Z" fill="#515979"/>
<path d="M937.681 159.702C938.743 160.007 939.851 159.393 940.155 158.331C940.459 157.269 939.846 156.162 938.784 155.857C937.722 155.553 936.614 156.167 936.31 157.228C936.005 158.29 936.619 159.398 937.681 159.702Z" fill="white"/>
<path d="M934.887 140.821C935.619 140.48 936.39 140.23 937.182 140.074C937.934 139.909 938.702 139.822 939.472 139.816C941.099 139.784 942.715 140.098 944.212 140.738C944.992 141.079 945.731 141.507 946.415 142.014C946.755 142.278 947.05 142.592 947.363 142.879C947.682 143.162 947.964 143.484 948.202 143.838C949.216 145.119 949.856 146.656 950.049 148.279C950.085 148.547 950.067 148.819 949.995 149.079C949.923 149.34 949.799 149.583 949.631 149.794C949.462 150.006 949.253 150.181 949.015 150.309C948.777 150.437 948.515 150.515 948.246 150.539C947.946 150.582 947.64 150.555 947.351 150.461C947.062 150.368 946.799 150.21 946.58 149.999L946.267 149.712C945.571 148.955 944.826 148.245 944.037 147.585C943.348 147.017 942.582 146.549 941.763 146.194C940.873 145.799 939.946 145.495 938.996 145.286C938.505 145.146 937.957 145.061 937.419 144.98C936.881 144.898 936.26 144.814 935.815 144.697L935.209 144.523C934.7 144.377 934.269 144.034 934.011 143.57C933.754 143.106 933.692 142.559 933.838 142.049C933.921 141.784 934.057 141.539 934.237 141.328C934.418 141.117 934.639 140.944 934.887 140.821Z" fill="#515979"/>
<path d="M908.832 160.543C908.496 160.452 908.188 160.278 907.937 160.037C907.003 159.244 905.912 158.66 904.735 158.323C903.558 157.985 902.323 157.902 901.112 158.08C900.855 158.136 900.589 158.14 900.33 158.094C900.071 158.047 899.823 157.95 899.602 157.808C899.381 157.665 899.189 157.481 899.039 157.265C898.889 157.049 898.783 156.805 898.727 156.548C898.671 156.291 898.666 156.025 898.712 155.766C898.759 155.507 898.856 155.259 898.999 155.038C899.141 154.816 899.325 154.625 899.541 154.475C899.758 154.325 900.001 154.219 900.258 154.163C902.118 153.853 904.024 153.963 905.836 154.482C907.649 155.002 909.323 155.919 910.736 157.167C911.064 157.48 911.276 157.895 911.337 158.344C911.398 158.794 911.305 159.25 911.072 159.639C910.84 160.029 910.482 160.327 910.057 160.486C909.633 160.646 909.167 160.656 908.736 160.515L908.832 160.543Z" fill="#515979"/>
<path d="M905.267 156.649C909.514 157.867 913.944 155.412 915.162 151.164C916.38 146.917 913.924 142.487 909.677 141.269C905.43 140.051 901 142.507 899.782 146.754C898.564 151.001 901.02 155.432 905.267 156.649Z" fill="#515979"/>
<path d="M908.843 151.433C909.905 151.738 911.013 151.124 911.317 150.062C911.622 149 911.008 147.893 909.946 147.588C908.884 147.284 907.777 147.898 907.472 148.959C907.168 150.021 907.782 151.129 908.843 151.433Z" fill="white"/>
<path d="M914.527 138.613C914.085 138.486 913.525 138.191 913.017 138.003C912.509 137.816 911.997 137.607 911.517 137.428C910.601 137.101 909.653 136.868 908.69 136.731C907.807 136.598 906.909 136.589 906.024 136.705C905.005 136.847 903.997 137.055 903.005 137.327L902.597 137.408C902.177 137.522 901.731 137.495 901.327 137.331C900.923 137.168 900.584 136.878 900.36 136.504C900.137 136.13 900.041 135.694 900.088 135.261C900.135 134.828 900.322 134.422 900.621 134.105C901.645 132.832 903.002 131.867 904.541 131.318C904.93 131.144 905.34 131.02 905.76 130.95C906.178 130.872 906.594 130.762 907.022 130.719C907.868 130.651 908.719 130.679 909.558 130.801C911.166 131.052 912.703 131.641 914.066 132.53C914.716 132.944 915.321 133.424 915.871 133.963C916.463 134.513 916.983 135.134 917.421 135.812C917.706 136.257 917.803 136.795 917.692 137.311C917.581 137.827 917.271 138.278 916.829 138.566C916.588 138.721 916.315 138.822 916.031 138.863C915.746 138.903 915.456 138.882 915.181 138.801L914.527 138.613Z" fill="#515979"/>
<path d="M915.944 175.357C909.951 173.623 904.601 170.164 900.56 165.411C900.216 165.007 900.048 164.482 900.091 163.953C900.134 163.424 900.386 162.934 900.791 162.591C901.196 162.247 901.72 162.079 902.249 162.122C902.778 162.166 903.268 162.418 903.611 162.822C910.761 171.229 922.758 174.669 932.142 171.003C932.387 170.908 932.648 170.862 932.911 170.868C933.174 170.874 933.433 170.932 933.674 171.038C933.914 171.144 934.131 171.297 934.313 171.487C934.495 171.677 934.637 171.901 934.732 172.146C934.827 172.392 934.873 172.653 934.867 172.916C934.861 173.179 934.803 173.438 934.697 173.678C934.591 173.919 934.438 174.136 934.248 174.318C934.058 174.499 933.834 174.642 933.589 174.737C927.933 176.865 921.736 177.083 915.944 175.357Z" fill="#515979"/>
<path d="M910.668 177.069C911.867 177.819 913.161 178.407 914.515 178.817C915.193 179.014 915.886 179.157 916.587 179.245C917.284 179.358 917.99 179.4 918.694 179.371C918.868 179.361 919.041 179.386 919.205 179.444C919.369 179.502 919.519 179.592 919.648 179.708C919.777 179.824 919.882 179.965 919.957 180.122C920.032 180.279 920.074 180.449 920.083 180.622C920.097 180.864 920.044 181.104 919.93 181.318C919.815 181.531 919.644 181.708 919.435 181.83L918.524 182.36C917.737 182.804 916.849 183.04 915.945 183.045C915.086 183.059 914.23 182.926 913.415 182.653C913.005 182.527 912.605 182.367 912.221 182.175C911.834 181.997 911.462 181.786 911.111 181.545C910.375 181.061 909.741 180.437 909.245 179.709L908.754 178.955C908.58 178.69 908.504 178.373 908.537 178.058C908.571 177.743 908.713 177.45 908.938 177.228C909.164 177.005 909.459 176.868 909.775 176.839C910.09 176.81 910.406 176.892 910.668 177.069Z" fill="#515979"/>
<path d="M290.284 177.414C289.758 177.412 289.241 177.274 288.784 177.014L202.184 127.014C201.842 126.818 201.543 126.555 201.303 126.243C201.062 125.93 200.886 125.573 200.784 125.192C200.682 124.812 200.656 124.414 200.707 124.024C200.759 123.633 200.887 123.256 201.084 122.914L225.084 81.3444C225.28 81.003 225.542 80.7036 225.855 80.4634C226.167 80.2232 226.523 80.0468 226.904 79.9444C227.158 79.877 227.421 79.8433 227.684 79.8444C228.21 79.8466 228.727 79.9843 229.184 80.2444L315.784 130.244C316.125 130.441 316.425 130.703 316.665 131.016C316.905 131.329 317.081 131.686 317.184 132.066C317.286 132.447 317.312 132.844 317.26 133.235C317.209 133.626 317.081 134.003 316.884 134.344L292.884 175.914C292.687 176.256 292.425 176.555 292.113 176.795C291.801 177.036 291.444 177.212 291.064 177.314C290.809 177.382 290.547 177.415 290.284 177.414V177.414Z" fill="#7DDF96"/>
<path d="M227.684 82.8444L314.284 132.844L290.284 174.414L203.684 124.414L227.684 82.8444ZM227.684 76.8444C227.161 76.8463 226.64 76.9134 226.134 77.0444C225.371 77.2481 224.656 77.6002 224.03 78.0807C223.403 78.5612 222.878 79.1605 222.484 79.8444L198.484 121.414C198.089 122.097 197.833 122.851 197.731 123.633C197.628 124.414 197.68 125.209 197.884 125.97C198.089 126.732 198.441 127.446 198.921 128.071C199.402 128.696 200.001 129.221 200.684 129.614L287.284 179.614C288.196 180.14 289.231 180.416 290.284 180.414C290.811 180.414 291.335 180.344 291.844 180.204C293.379 179.793 294.688 178.79 295.484 177.414L319.484 135.844C319.878 135.162 320.134 134.408 320.237 133.626C320.34 132.844 320.288 132.05 320.083 131.288C319.879 130.527 319.527 129.813 319.046 129.188C318.566 128.562 317.967 128.038 317.284 127.644L230.684 77.6444C229.771 77.1191 228.737 76.8432 227.684 76.8444V76.8444Z" fill="#515979"/>
<path d="M274.944 137.844C270.684 145.134 263.684 149.514 256.804 149.844L282.064 164.444C283.112 162.631 284.837 161.307 286.86 160.765C288.884 160.223 291.04 160.507 292.854 161.554L304.434 141.494C303.536 140.976 302.749 140.287 302.118 139.465C301.487 138.643 301.024 137.704 300.755 136.703C300.487 135.702 300.419 134.658 300.554 133.63C300.689 132.603 301.026 131.612 301.544 130.714L276.274 116.124C279.414 122.244 279.154 130.544 274.944 137.844ZM290.214 138.754C291.645 139.729 292.655 141.208 293.042 142.896C293.428 144.584 293.161 146.355 292.296 147.855C291.43 149.355 290.029 150.472 288.374 150.981C286.72 151.491 284.933 151.357 283.374 150.604C281.942 149.63 280.932 148.151 280.546 146.463C280.16 144.775 280.426 143.003 281.292 141.504C282.158 140.004 283.558 138.887 285.213 138.377C286.868 137.867 288.654 138.002 290.214 138.754V138.754Z" fill="#00C853"/>
<path d="M216.434 126.544L241.684 141.134C238.554 135.014 238.814 126.714 243.024 119.414C247.234 112.114 254.294 107.744 261.164 107.414L235.904 92.8444C235.386 93.7422 234.696 94.5291 233.874 95.1602C233.052 95.7914 232.114 96.2543 231.113 96.5227C230.111 96.7911 229.067 96.8596 228.04 96.7243C227.012 96.5891 226.021 96.2527 225.124 95.7344L213.544 115.764C215.355 116.812 216.676 118.536 217.218 120.557C217.76 122.578 217.478 124.731 216.434 126.544V126.544ZM234.604 106.654C236.07 107.596 237.103 109.08 237.478 110.782C237.853 112.483 237.539 114.264 236.604 115.734C235.789 117.278 234.397 118.435 232.731 118.954C231.065 119.473 229.261 119.312 227.714 118.504C226.247 117.561 225.213 116.075 224.839 114.372C224.464 112.669 224.779 110.886 225.714 109.414C226.528 107.871 227.922 106.714 229.588 106.196C231.255 105.679 233.059 105.844 234.604 106.654V106.654Z" fill="#00C853"/>
<path d="M257.764 124.164C257.164 125.164 257.984 126.164 259.914 127.514C263.234 129.984 265.684 132.344 263.424 136.744C261.844 139.474 259.024 140.344 255.504 139.004L254.354 141.004L250.454 138.754L251.604 136.754C250.701 136.057 249.996 135.138 249.556 134.086C249.116 133.034 248.957 131.886 249.094 130.754C249.079 130.665 249.079 130.574 249.094 130.484L249.164 129.764L253.944 130.234V131.234C253.874 131.856 254.007 132.484 254.322 133.024C254.637 133.564 255.118 133.989 255.694 134.234C257.544 135.304 258.544 135.364 259.194 134.234C259.744 133.234 258.864 132.284 256.984 130.914C253.764 128.574 251.094 125.994 253.544 121.764C255.144 118.984 258.074 118.104 261.644 119.374L262.844 117.294L266.684 119.594L265.514 121.594C266.571 122.327 267.397 123.345 267.896 124.529C268.396 125.714 268.548 127.017 268.334 128.284L268.164 129.234L263.474 128.354L263.684 127.444C263.884 126.144 263.214 125.064 261.684 124.214C259.684 123.074 258.414 123.044 257.764 124.164Z" fill="#00C853"/>
<path d="M120.601 382.697C120.211 382.344 119.919 381.896 119.754 381.397L88.8538 286.293C88.7317 285.918 88.6846 285.523 88.7153 285.129C88.746 284.736 88.8539 284.353 89.0327 284.002C89.2116 283.651 89.458 283.338 89.7577 283.082C90.0575 282.826 90.4048 282.631 90.7798 282.51L136.431 267.676C136.806 267.554 137.201 267.507 137.593 267.537C137.986 267.568 138.369 267.675 138.72 267.854C138.955 267.974 139.172 268.124 139.367 268.301C139.756 268.655 140.048 269.103 140.214 269.602L171.114 364.706C171.236 365.081 171.283 365.476 171.252 365.869C171.222 366.262 171.114 366.646 170.935 366.997C170.756 367.348 170.51 367.661 170.21 367.917C169.91 368.173 169.563 368.367 169.188 368.489L123.537 383.323C123.162 383.445 122.767 383.492 122.374 383.462C121.981 383.431 121.599 383.324 121.247 383.145C121.013 383.025 120.796 382.874 120.601 382.697V382.697Z" fill="#7DDF96"/>
<path d="M137.36 270.531L168.259 365.635L122.608 380.468L91.7083 285.364L137.36 270.531ZM141.374 266.072C140.984 265.723 140.552 265.425 140.089 265.183C139.386 264.824 138.619 264.608 137.832 264.546C137.045 264.484 136.253 264.577 135.503 264.822L89.8513 279.655C89.1014 279.899 88.4067 280.288 87.8072 280.8C87.2076 281.312 86.7149 281.937 86.3572 282.64C85.9994 283.342 85.7837 284.109 85.7223 284.895C85.6609 285.681 85.755 286.471 85.9994 287.221L116.899 382.325C117.226 383.326 117.81 384.223 118.593 384.927C118.985 385.279 119.422 385.578 119.893 385.815C121.309 386.536 122.953 386.666 124.465 386.177L170.116 371.344C170.866 371.1 171.561 370.711 172.16 370.199C172.76 369.687 173.253 369.062 173.61 368.359C173.968 367.656 174.184 366.89 174.245 366.104C174.307 365.318 174.213 364.527 173.968 363.778L143.068 268.674C142.742 267.673 142.158 266.775 141.374 266.072V266.072Z" fill="#515979"/>
<path d="M135.678 343.027C127.635 345.594 119.502 344.165 114.168 339.806L123.171 367.559C125.163 366.912 127.331 367.083 129.197 368.034C131.063 368.985 132.476 370.639 133.123 372.631L155.151 365.472C154.831 364.486 154.707 363.447 154.789 362.414C154.87 361.381 155.153 360.374 155.624 359.45C156.094 358.526 156.742 357.705 157.53 357.032C158.318 356.358 159.231 355.847 160.217 355.527L151.2 327.776C149.439 334.425 143.692 340.419 135.678 343.027ZM146.417 353.921C146.829 355.602 146.59 357.378 145.747 358.891C144.905 360.403 143.521 361.541 141.875 362.077C140.228 362.612 138.44 362.505 136.869 361.776C135.298 361.048 134.061 359.753 133.405 358.15C132.993 356.468 133.232 354.693 134.075 353.18C134.917 351.667 136.301 350.529 137.947 349.994C139.594 349.459 141.382 349.566 142.953 350.294C144.524 351.023 145.762 352.318 146.417 353.921V353.921Z" fill="#00C853"/>
<path d="M99.7581 295.478L108.76 323.216C110.529 316.574 116.276 310.58 124.289 307.972C132.303 305.364 140.473 306.841 145.799 311.192L136.777 283.462C135.791 283.783 134.752 283.906 133.719 283.825C132.686 283.744 131.678 283.46 130.755 282.99C129.831 282.52 129.01 281.872 128.337 281.084C127.663 280.296 127.152 279.383 126.832 278.397L104.824 285.534C105.468 287.524 105.297 289.689 104.348 291.554C103.398 293.418 101.747 294.83 99.7581 295.478V295.478ZM126.57 292.855C127.029 294.536 126.804 296.33 125.944 297.846C125.084 299.361 123.659 300.474 121.981 300.941C120.343 301.543 118.533 301.472 116.948 300.743C115.362 300.014 114.13 298.686 113.521 297.051C113.062 295.369 113.288 293.573 114.149 292.057C115.01 290.54 116.437 289.426 118.117 288.958C119.755 288.356 121.564 288.428 123.149 289.159C124.734 289.889 125.964 291.219 126.57 292.855V292.855Z" fill="#00C853"/>
<path d="M132.065 321.365C130.95 321.707 130.89 322.998 131.421 325.293C132.235 329.35 132.477 332.743 127.853 334.501C124.852 335.472 122.175 334.232 120.455 330.881L118.263 331.598L116.87 327.316L119.063 326.599C118.858 325.478 118.949 324.322 119.326 323.246C119.703 322.17 120.353 321.21 121.212 320.461C121.261 320.384 121.322 320.316 121.393 320.26L121.927 319.772L125.164 323.32L124.495 324.063C124.028 324.478 123.706 325.034 123.579 325.646C123.452 326.259 123.525 326.896 123.788 327.463C124.447 329.496 125.15 330.21 126.389 329.805C127.467 329.43 127.449 328.135 126.969 325.859C126.141 321.966 125.884 318.262 130.535 316.758C133.584 315.762 136.35 317.069 138.153 320.401L140.437 319.659L141.752 323.937L139.544 324.641C139.839 325.892 139.772 327.202 139.351 328.416C138.929 329.631 138.17 330.7 137.163 331.499L136.401 332.092L133.505 328.299L134.27 327.764C135.288 326.931 135.513 325.68 134.945 324.025C134.221 321.84 133.297 320.968 132.065 321.365Z" fill="#00C853"/>
<path d="M326.942 360.274C326.479 360.025 326.087 359.661 325.806 359.216L272.816 274.413C272.607 274.078 272.465 273.706 272.4 273.318C272.335 272.929 272.347 272.531 272.435 272.147C272.524 271.763 272.687 271.4 272.916 271.079C273.145 270.758 273.435 270.485 273.769 270.276L314.476 244.839C314.81 244.63 315.182 244.489 315.57 244.423C315.959 244.358 316.356 244.369 316.74 244.458C316.997 244.518 317.244 244.611 317.476 244.735C317.939 244.984 318.331 245.349 318.613 245.793L371.602 330.596C371.812 330.931 371.953 331.303 372.018 331.692C372.083 332.08 372.071 332.478 371.983 332.862C371.894 333.247 371.731 333.61 371.502 333.93C371.273 334.251 370.983 334.524 370.649 334.733L329.942 360.17C329.608 360.379 329.236 360.52 328.848 360.586C328.459 360.651 328.062 360.64 327.678 360.551C327.421 360.492 327.174 360.398 326.942 360.274V360.274Z" fill="#7DDF96"/>
<path d="M316.068 247.384L369.057 332.188L328.351 357.625L275.361 272.821L316.068 247.384ZM318.884 242.087C318.422 241.843 317.93 241.658 317.422 241.536C316.653 241.357 315.856 241.333 315.078 241.463C314.299 241.593 313.554 241.876 312.885 242.294L272.178 267.731C271.509 268.149 270.929 268.694 270.471 269.336C270.014 269.978 269.687 270.704 269.51 271.472C269.333 272.241 269.309 273.036 269.439 273.814C269.57 274.592 269.852 275.336 270.271 276.004L323.261 360.808C323.82 361.7 324.604 362.429 325.534 362.922C325.999 363.17 326.496 363.354 327.01 363.469C328.558 363.827 330.185 363.556 331.534 362.715L372.24 337.278C372.909 336.86 373.489 336.315 373.947 335.673C374.405 335.031 374.731 334.305 374.909 333.537C375.086 332.769 375.11 331.973 374.979 331.195C374.848 330.418 374.566 329.673 374.147 329.005L321.158 244.201C320.599 243.309 319.815 242.58 318.884 242.087V242.087Z" fill="#515979"/>
<path d="M331.975 318.134C324.791 322.57 316.554 323.151 310.324 320.213L325.773 344.963C327.55 343.853 329.695 343.495 331.736 343.966C333.777 344.438 335.547 345.7 336.657 347.477L356.299 335.201C355.75 334.322 355.379 333.344 355.207 332.322C355.036 331.3 355.068 330.254 355.301 329.244C355.534 328.234 355.964 327.28 356.565 326.436C357.167 325.592 357.929 324.875 358.808 324.326L343.346 299.58C343.245 306.458 339.119 313.665 331.975 318.134ZM345.03 326.106C345.837 327.638 346.034 329.419 345.583 331.09C345.131 332.762 344.064 334.201 342.596 335.119C341.127 336.036 339.366 336.365 337.666 336.038C335.965 335.712 334.451 334.754 333.428 333.358C332.621 331.826 332.424 330.045 332.875 328.373C333.327 326.702 334.394 325.263 335.862 324.345C337.33 323.427 339.091 323.099 340.792 323.425C342.492 323.752 344.006 324.71 345.03 326.106V326.106Z" fill="#00C853"/>
<path d="M285.619 280.688L301.063 305.424C301.173 298.551 305.299 291.344 312.443 286.875C319.588 282.406 327.873 281.862 334.094 284.796L318.631 260.073C317.752 260.622 316.774 260.993 315.751 261.165C314.729 261.336 313.683 261.304 312.673 261.071C311.664 260.838 310.709 260.409 309.866 259.807C309.022 259.205 308.305 258.443 307.756 257.564L288.128 269.813C289.235 271.588 289.592 273.73 289.122 275.769C288.652 277.808 287.392 279.577 285.619 280.688V280.688ZM310.999 271.656C311.852 273.176 312.068 274.971 311.6 276.65C311.132 278.328 310.018 279.753 308.503 280.612C307.059 281.592 305.286 281.961 303.571 281.637C301.856 281.313 300.34 280.323 299.353 278.884C298.501 277.363 298.286 275.566 298.754 273.886C299.223 272.206 300.338 270.78 301.854 269.919C303.298 268.939 305.072 268.571 306.786 268.897C308.5 269.222 310.016 270.215 310.999 271.656V271.656Z" fill="#00C853"/>
<path d="M323.228 297.989C322.229 298.591 322.483 299.859 323.554 301.957C325.325 305.696 326.381 308.93 322.32 311.754C319.643 313.423 316.745 312.867 314.266 310.031L312.311 311.257L309.924 307.44L311.878 306.214C311.409 305.175 311.217 304.032 311.323 302.896C311.428 301.761 311.827 300.673 312.479 299.738C312.508 299.652 312.55 299.571 312.606 299.499L313.006 298.897L317.006 301.556L316.536 302.439C316.183 302.955 316.005 303.571 316.03 304.196C316.055 304.821 316.28 305.422 316.673 305.909C317.804 307.722 318.659 308.245 319.763 307.552C320.718 306.927 320.387 305.675 319.37 303.583C317.626 300.005 316.48 296.474 320.629 293.889C323.347 292.186 326.347 292.784 328.903 295.582L330.939 294.309L333.249 298.142L331.277 299.359C331.867 300.501 332.119 301.788 332.003 303.069C331.888 304.349 331.411 305.57 330.627 306.59L330.031 307.349L326.303 304.37L326.915 303.665C327.702 302.611 327.618 301.343 326.666 299.874C325.435 297.928 324.328 297.306 323.228 297.989Z" fill="#00C853"/>
<path d="M539.741 360.503C539.246 360.681 538.714 360.728 538.195 360.64L439.717 343.275C439.328 343.207 438.957 343.063 438.625 342.851C438.292 342.639 438.004 342.364 437.778 342.041C437.552 341.718 437.392 341.354 437.306 340.969C437.221 340.584 437.212 340.186 437.281 339.798L445.616 292.527C445.684 292.139 445.827 291.768 446.039 291.435C446.25 291.103 446.525 290.815 446.847 290.589C447.063 290.438 447.298 290.317 447.546 290.228C448.041 290.05 448.573 290.003 449.092 290.091L547.571 307.456C547.959 307.525 548.33 307.669 548.663 307.88C548.995 308.092 549.283 308.367 549.509 308.69C549.735 309.013 549.896 309.377 549.981 309.762C550.066 310.147 550.075 310.545 550.006 310.933L541.672 358.204C541.604 358.593 541.46 358.963 541.249 359.296C541.037 359.628 540.763 359.916 540.44 360.143C540.224 360.293 539.989 360.414 539.741 360.503V360.503Z" fill="#7DDF96"/>
<path d="M448.572 293.047L547.05 310.413L538.715 357.684L440.237 340.318L448.572 293.047ZM446.52 287.409C446.029 287.589 445.563 287.831 445.132 288.127C444.485 288.579 443.933 289.155 443.509 289.82C443.085 290.486 442.796 291.229 442.659 292.006L434.325 339.278C434.187 340.054 434.205 340.85 434.375 341.62C434.546 342.39 434.867 343.118 435.319 343.764C435.772 344.41 436.347 344.96 437.012 345.383C437.678 345.807 438.42 346.095 439.196 346.231L537.675 363.597C538.712 363.778 539.779 363.684 540.767 363.322C541.263 363.142 541.731 362.896 542.162 362.591C543.463 361.68 544.35 360.289 544.628 358.725L552.963 311.453C553.1 310.677 553.082 309.881 552.912 309.111C552.741 308.341 552.42 307.613 551.968 306.967C551.515 306.321 550.94 305.771 550.275 305.348C549.61 304.924 548.867 304.636 548.091 304.5L449.612 287.134C448.575 286.953 447.509 287.048 446.52 287.409V287.409Z" fill="#515979"/>
<path d="M511.793 328.566C510.283 336.874 505.203 343.384 498.851 346.047L527.581 351.127C527.945 349.064 529.114 347.23 530.83 346.029C532.546 344.828 534.669 344.357 536.732 344.721L540.753 321.91C539.732 321.73 538.757 321.351 537.882 320.795C537.008 320.238 536.252 319.515 535.658 318.666C535.063 317.817 534.641 316.859 534.417 315.847C534.193 314.835 534.17 313.789 534.35 312.768L505.614 307.701C510.658 312.378 513.252 320.267 511.793 328.566ZM526.453 324.199C528.132 324.624 529.587 325.669 530.527 327.123C531.467 328.577 531.822 330.333 531.522 332.038C531.221 333.744 530.287 335.272 528.907 336.317C527.526 337.363 525.801 337.847 524.079 337.673C522.4 337.248 520.945 336.203 520.005 334.749C519.065 333.295 518.709 331.539 519.01 329.834C519.31 328.128 520.245 326.6 521.625 325.555C523.006 324.51 524.73 324.025 526.453 324.199V324.199Z" fill="#00C853"/>
<path d="M452.947 337.959L481.664 343.033C476.629 338.353 474.035 330.465 475.494 322.165C476.954 313.865 482.093 307.344 488.436 304.684L459.716 299.632C459.537 300.653 459.158 301.629 458.601 302.503C458.044 303.377 457.321 304.133 456.472 304.728C455.623 305.322 454.665 305.744 453.654 305.968C452.642 306.192 451.596 306.215 450.575 306.035L446.544 328.818C448.604 329.183 450.435 330.351 451.636 332.064C452.836 333.778 453.307 335.898 452.947 337.959V337.959ZM463.218 313.054C464.918 313.438 466.396 314.479 467.33 315.949C468.265 317.42 468.578 319.201 468.203 320.903C467.965 322.631 467.053 324.196 465.665 325.253C464.277 326.311 462.526 326.776 460.796 326.546C459.096 326.161 457.616 325.119 456.681 323.646C455.747 322.174 455.433 320.391 455.808 318.688C456.046 316.96 456.959 315.395 458.348 314.339C459.737 313.283 461.489 312.821 463.218 313.054V313.054Z" fill="#00C853"/>
<path d="M490.97 321.587C490.748 322.732 491.861 323.391 494.136 324C498.101 325.185 501.21 326.565 500.591 331.473C500.04 334.578 497.688 336.36 493.922 336.305L493.525 338.578L489.091 337.797L489.488 335.525C488.401 335.178 487.424 334.556 486.65 333.718C485.877 332.88 485.335 331.856 485.077 330.745C485.032 330.666 485.001 330.58 484.984 330.491L484.804 329.791L489.456 328.598L489.798 329.537C489.946 330.145 490.285 330.69 490.766 331.09C491.247 331.49 491.844 331.724 492.469 331.758C494.573 332.131 495.534 331.845 495.758 330.561C495.933 329.433 494.781 328.841 492.546 328.197C488.72 327.099 485.328 325.588 486.184 320.775C486.736 317.616 489.189 315.787 492.978 315.759L493.394 313.394L497.789 314.242L497.374 316.521C498.617 316.848 499.742 317.522 500.616 318.465C501.491 319.407 502.079 320.579 502.312 321.843L502.477 322.794L497.769 323.571L497.655 322.645C497.398 321.355 496.399 320.569 494.671 320.293C492.401 319.906 491.198 320.312 490.97 321.587Z" fill="#00C853"/>
<path d="M650.177 194.592C649.996 195.086 649.689 195.524 649.289 195.865L572.685 260.141C572.383 260.395 572.034 260.586 571.658 260.705C571.283 260.824 570.887 260.868 570.494 260.833C570.101 260.799 569.719 260.688 569.37 260.506C569.02 260.324 568.709 260.075 568.456 259.772L537.602 223.002C537.348 222.701 537.156 222.352 537.037 221.976C536.918 221.601 536.875 221.206 536.908 220.813C536.932 220.551 536.99 220.293 537.081 220.046C537.263 219.552 537.569 219.114 537.97 218.773L614.574 154.497C614.875 154.243 615.224 154.051 615.6 153.933C615.976 153.814 616.372 153.77 616.765 153.805C617.157 153.839 617.54 153.95 617.889 154.132C618.239 154.314 618.549 154.563 618.803 154.865L649.657 191.636C649.911 191.937 650.103 192.286 650.221 192.661C650.34 193.037 650.384 193.432 650.35 193.825C650.327 194.087 650.269 194.345 650.177 194.592V194.592Z" fill="#7DDF96"/>
<path d="M539.9 221.072L616.504 156.796L647.358 193.566L570.755 257.842L539.9 221.072ZM534.262 219.02C534.085 219.512 533.97 220.024 533.92 220.545C533.85 221.331 533.937 222.123 534.174 222.876C534.411 223.629 534.795 224.328 535.303 224.932L566.157 261.703C566.664 262.307 567.285 262.805 567.984 263.169C568.684 263.533 569.448 263.756 570.233 263.824C571.019 263.893 571.81 263.806 572.562 263.568C573.314 263.331 574.012 262.947 574.615 262.44L651.219 198.164C652.024 197.486 652.638 196.608 652.997 195.618C653.177 195.123 653.29 194.606 653.333 194.08C653.471 192.497 652.976 190.924 651.956 189.706L621.101 152.935C620.595 152.331 619.974 151.833 619.275 151.469C618.575 151.105 617.811 150.882 617.025 150.813C616.24 150.745 615.449 150.832 614.697 151.07C613.945 151.307 613.247 151.691 612.644 152.198L536.04 216.474C535.234 217.152 534.621 218.03 534.262 219.02V219.02Z" fill="#515979"/>
<path d="M607.747 195.473C613.141 201.97 614.862 210.045 612.819 216.623L635.178 197.88C633.832 196.275 633.179 194.201 633.362 192.115C633.544 190.028 634.548 188.099 636.153 186.753L621.263 169.01C620.47 169.676 619.552 170.18 618.564 170.492C617.576 170.804 616.535 170.918 615.503 170.828C614.47 170.738 613.466 170.445 612.547 169.966C611.627 169.488 610.811 168.833 610.145 168.039L587.792 186.795C594.617 185.937 602.327 189.02 607.747 195.473ZM613.825 181.435C615.23 180.423 616.966 179.98 618.684 180.195C620.402 180.409 621.976 181.265 623.089 182.592C624.202 183.918 624.772 185.616 624.686 187.346C624.599 189.075 623.861 190.708 622.621 191.916C621.216 192.928 619.48 193.371 617.762 193.156C616.044 192.942 614.47 192.086 613.357 190.759C612.244 189.433 611.674 187.735 611.76 186.005C611.847 184.276 612.585 182.644 613.825 181.435V181.435Z" fill="#00C853"/>
<path d="M577.117 246.59L599.463 227.853C592.642 228.701 584.931 225.618 579.511 219.165C574.092 212.712 572.4 204.583 574.439 198.014L552.109 216.768C552.775 217.562 553.279 218.479 553.591 219.467C553.902 220.456 554.017 221.496 553.926 222.528C553.836 223.561 553.543 224.565 553.065 225.485C552.586 226.404 551.931 227.22 551.137 227.886L565.999 245.618C567.603 244.275 569.674 243.623 571.759 243.805C573.843 243.987 575.77 244.988 577.117 246.59V246.59ZM564.641 222.713C566.027 221.657 567.775 221.194 569.502 221.423C571.23 221.653 572.796 222.558 573.858 223.939C575.029 225.232 575.641 226.937 575.559 228.68C575.477 230.423 574.708 232.063 573.42 233.24C572.032 234.296 570.282 234.759 568.553 234.528C566.825 234.298 565.258 233.393 564.194 232.011C563.022 230.717 562.411 229.012 562.495 227.269C562.579 225.526 563.351 223.888 564.641 222.713V222.713Z" fill="#00C853"/>
<path d="M589.016 206.938C589.751 207.844 590.971 207.416 592.9 206.064C596.356 203.789 599.412 202.294 602.774 205.922C604.798 208.341 604.652 211.288 602.188 214.138L603.674 215.902L600.226 218.797L598.74 217.033C597.777 217.642 596.671 217.991 595.532 218.045C594.394 218.099 593.26 217.855 592.244 217.339C592.154 217.323 592.069 217.292 591.99 217.247L591.337 216.935L593.414 212.604L594.353 212.946C594.914 213.224 595.549 213.314 596.165 213.203C596.78 213.091 597.344 212.784 597.771 212.328C599.409 210.955 599.808 210.036 598.968 209.039C598.217 208.18 597.023 208.682 595.093 209.98C591.792 212.205 588.455 213.832 585.318 210.083C583.253 207.629 583.428 204.574 585.842 201.654L584.298 199.815L587.773 196.993L589.252 198.777C590.302 198.034 591.541 197.606 592.825 197.542C594.109 197.477 595.385 197.78 596.503 198.415L597.338 198.899L594.907 203.006L594.123 202.497C592.97 201.865 591.726 202.125 590.404 203.272C588.649 204.761 588.186 205.944 589.016 206.938Z" fill="#00C853"/>
<path d="M737.928 281.334C738.017 281.852 737.971 282.385 737.794 282.88L703.592 376.847C703.457 377.218 703.251 377.558 702.985 377.849C702.719 378.14 702.398 378.375 702.04 378.542C701.683 378.709 701.297 378.803 700.903 378.821C700.509 378.838 700.115 378.777 699.745 378.642L654.639 362.225C654.269 362.091 653.928 361.885 653.637 361.619C653.347 361.353 653.111 361.033 652.944 360.676C652.834 360.437 652.755 360.185 652.71 359.925C652.621 359.407 652.667 358.874 652.844 358.379L687.046 264.412C687.181 264.041 687.387 263.701 687.653 263.41C687.919 263.119 688.24 262.884 688.597 262.717C688.955 262.55 689.341 262.456 689.735 262.438C690.129 262.421 690.522 262.482 690.893 262.617L735.999 279.034C736.369 279.168 736.71 279.374 737 279.64C737.291 279.905 737.527 280.226 737.694 280.583C737.804 280.822 737.883 281.074 737.928 281.334V281.334Z" fill="#7DDF96"/>
<path d="M655.665 359.404L689.867 265.438L734.973 281.854L700.771 375.821L655.665 359.404ZM649.756 360.446C649.848 360.961 650.005 361.462 650.222 361.938C650.555 362.654 651.026 363.297 651.608 363.83C652.19 364.363 652.871 364.777 653.613 365.046L698.719 381.463C699.46 381.733 700.247 381.854 701.035 381.82C701.822 381.785 702.596 381.596 703.31 381.263C704.025 380.929 704.666 380.458 705.199 379.876C705.731 379.295 706.144 378.614 706.413 377.873L740.615 283.906C740.974 282.916 741.066 281.849 740.882 280.813C740.79 280.294 740.63 279.789 740.404 279.313C739.733 277.873 738.517 276.758 737.025 276.213L691.919 259.796C691.178 259.526 690.391 259.405 689.603 259.439C688.815 259.474 688.042 259.663 687.328 259.996C686.613 260.33 685.971 260.801 685.439 261.382C684.907 261.964 684.494 262.645 684.225 263.386L650.023 357.353C649.664 358.343 649.572 359.41 649.756 360.446V360.446Z" fill="#515979"/>
<path d="M701.622 303.312C709.541 306.241 715.07 312.374 716.59 319.092L726.582 291.681C724.614 290.964 723.011 289.495 722.126 287.596C721.241 285.697 721.146 283.525 721.862 281.557L700.096 273.636C699.742 274.61 699.199 275.505 698.499 276.269C697.799 277.033 696.956 277.652 696.016 278.09C695.077 278.528 694.061 278.777 693.025 278.822C691.99 278.868 690.956 278.709 689.982 278.354L680.002 305.774C685.483 301.619 693.702 300.433 701.622 303.312ZM699.867 288.116C700.578 286.537 701.859 285.285 703.455 284.612C705.05 283.938 706.841 283.893 708.468 284.485C710.095 285.077 711.438 286.263 712.228 287.804C713.017 289.345 713.195 291.128 712.725 292.794C712.014 294.373 710.732 295.625 709.137 296.298C707.542 296.971 705.751 297.016 704.124 296.424C702.497 295.832 701.154 294.647 700.364 293.106C699.575 291.565 699.397 289.782 699.867 288.116V288.116Z" fill="#00C853"/>
<path d="M700.654 362.895L710.638 335.495C705.155 339.64 696.935 340.826 689.015 337.947C681.095 335.069 675.566 328.875 674.048 322.166L664.085 349.573C665.059 349.927 665.954 350.469 666.718 351.17C667.483 351.87 668.102 352.713 668.54 353.653C668.978 354.592 669.227 355.608 669.272 356.644C669.317 357.679 669.158 358.713 668.803 359.687L690.54 367.613C691.257 365.648 692.725 364.047 694.621 363.162C696.518 362.278 698.687 362.182 700.654 362.895V362.895ZM677.911 348.455C678.584 346.848 679.866 345.572 681.477 344.908C683.087 344.243 684.896 344.243 686.506 344.909C688.167 345.443 689.549 346.613 690.35 348.164C691.15 349.714 691.304 351.519 690.778 353.183C690.103 354.791 688.82 356.067 687.207 356.732C685.595 357.396 683.785 357.396 682.173 356.731C680.512 356.197 679.13 355.025 678.331 353.474C677.532 351.923 677.381 350.118 677.911 348.455V348.455Z" fill="#00C853"/>
<path d="M691.134 322.606C692.223 323.023 693.065 322.042 694.059 319.907C695.915 316.209 697.814 313.386 702.54 314.848C705.503 315.93 706.849 318.556 706.141 322.255L708.31 323.04L706.771 327.272L704.602 326.486C704.072 327.496 703.289 328.351 702.33 328.967C701.371 329.583 700.268 329.939 699.129 330C699.044 330.031 698.954 330.047 698.863 330.047L698.142 330.103L697.775 325.314L698.76 325.141C699.384 325.101 699.979 324.861 700.456 324.457C700.934 324.053 701.268 323.505 701.41 322.896C702.143 320.888 702.028 319.893 700.802 319.449C699.722 319.081 698.939 320.113 697.917 322.202C696.171 325.78 694.094 328.857 689.503 327.179C686.487 326.086 685.112 323.353 685.743 319.617L683.486 318.796L685.084 314.615L687.257 315.42C687.795 314.252 688.654 313.262 689.734 312.564C690.814 311.867 692.07 311.491 693.356 311.481L694.321 311.484L694.268 316.255L693.336 316.207C692.021 316.235 691.074 317.083 690.502 318.737C689.727 320.905 689.918 322.161 691.134 322.606Z" fill="#00C853"/>
<path d="M1028.05 126.177C1027.55 125.996 1027.11 125.689 1026.77 125.289L962.497 48.685C962.243 48.3832 962.051 48.0344 961.933 47.6585C961.814 47.2825 961.77 46.8869 961.804 46.4941C961.839 46.1014 961.95 45.7192 962.132 45.3695C962.314 45.0198 962.563 44.7094 962.865 44.4561L999.636 13.6015C999.937 13.3479 1000.29 13.1562 1000.66 13.0372C1001.04 12.9183 1001.43 12.8746 1001.82 12.9084C1002.09 12.9321 1002.34 12.9902 1002.59 13.0812C1003.09 13.2632 1003.52 13.5694 1003.86 13.9701L1068.14 90.5737C1068.39 90.8755 1068.59 91.2243 1068.71 91.6003C1068.82 91.9762 1068.87 92.3718 1068.83 92.7646C1068.8 93.1574 1068.69 93.5395 1068.51 93.8892C1068.32 94.2389 1068.07 94.5493 1067.77 94.8027L1031 125.657C1030.7 125.911 1030.35 126.103 1029.98 126.221C1029.6 126.34 1029.21 126.384 1028.81 126.35C1028.55 126.327 1028.29 126.269 1028.05 126.177V126.177Z" fill="#7DDF96"/>
<path d="M1001.57 15.9003L1065.84 92.5039L1029.07 123.358L964.796 46.7549L1001.57 15.9003ZM1003.62 10.2622C1003.13 10.085 1002.61 9.9701 1002.09 9.91997C1001.31 9.8505 1000.51 9.93688 999.762 10.1742C999.009 10.4114 998.31 10.795 997.706 11.3027L960.935 42.1573C960.331 42.664 959.833 43.2848 959.469 43.9842C959.105 44.6836 958.882 45.4479 958.813 46.2334C958.745 47.0189 958.832 47.8103 959.07 48.5621C959.307 49.314 959.691 50.0116 960.198 50.6152L1024.47 127.219C1025.15 128.024 1026.03 128.638 1027.02 128.997C1027.52 129.177 1028.03 129.29 1028.56 129.333C1030.14 129.471 1031.71 128.976 1032.93 127.956L1069.7 97.1015C1070.31 96.5948 1070.81 95.974 1071.17 95.2746C1071.53 94.5752 1071.76 93.8108 1071.82 93.0253C1071.89 92.2398 1071.81 91.4485 1071.57 90.6966C1071.33 89.9448 1070.95 89.2471 1070.44 88.6436L1006.16 12.04C1005.49 11.2343 1004.61 10.6212 1003.62 10.2622V10.2622Z" fill="#515979"/>
<path d="M1027.16 83.7473C1020.67 89.1406 1012.59 90.8623 1006.01 88.8193L1024.76 111.178C1026.36 109.832 1028.44 109.179 1030.52 109.362C1032.61 109.544 1034.54 110.548 1035.89 112.153L1053.63 97.2633C1052.96 96.4696 1052.46 95.5524 1052.15 94.564C1051.83 93.5756 1051.72 92.5354 1051.81 91.5029C1051.9 90.4704 1052.19 89.4658 1052.67 88.5465C1053.15 87.6272 1053.81 86.8111 1054.6 86.145L1035.84 63.792C1036.7 70.6169 1033.62 78.3274 1027.16 83.7473ZM1041.2 89.825C1042.21 91.2301 1042.66 92.9658 1042.44 94.684C1042.23 96.4022 1041.37 97.9757 1040.05 99.0889C1038.72 100.202 1037.02 100.772 1035.29 100.686C1033.56 100.599 1031.93 99.8613 1030.72 98.621C1029.71 97.2159 1029.27 95.4802 1029.48 93.762C1029.7 92.0438 1030.55 90.4703 1031.88 89.3571C1033.2 88.244 1034.9 87.6736 1036.63 87.7604C1038.36 87.8472 1039.99 88.5847 1041.2 89.825V89.825Z" fill="#00C853"/>
<path d="M976.048 53.1172L994.785 75.4633C993.937 68.6419 997.02 60.9313 1003.47 55.5115C1009.93 50.0916 1018.05 48.3998 1024.62 50.4394L1005.87 28.1087C1005.08 28.7751 1004.16 29.2787 1003.17 29.5906C1002.18 29.9025 1001.14 30.0166 1000.11 29.9264C999.077 29.8362 998.072 29.5435 997.153 29.065C996.234 28.5864 995.418 27.9314 994.752 27.1374L977.019 41.9988C978.363 43.6029 979.015 45.6744 978.833 47.7589C978.651 49.8433 977.649 51.7703 976.048 53.1172V53.1172ZM999.925 40.6412C1000.98 42.0275 1001.44 43.7753 1001.21 45.5025C1000.98 47.2297 1000.08 48.7956 998.699 49.8576C997.406 51.0291 995.701 51.6407 993.958 51.5587C992.215 51.4767 990.575 50.7077 989.398 49.42C988.342 48.0318 987.879 46.2822 988.109 44.5535C988.34 42.8248 989.245 41.2575 990.627 40.1942C991.92 39.0225 993.625 38.4115 995.369 38.4953C997.112 38.5791 998.75 39.3508 999.925 40.6412V40.6412Z" fill="#00C853"/>
<path d="M1015.7 65.0164C1014.79 65.7509 1015.22 66.971 1016.57 68.8997C1018.85 72.3563 1020.34 75.4119 1016.72 78.7736C1014.3 80.7985 1011.35 80.6516 1008.5 78.1885L1006.74 79.6745L1003.84 76.2263L1005.61 74.7403C1005 73.7768 1004.65 72.6714 1004.59 71.5325C1004.54 70.3936 1004.78 69.2603 1005.3 68.2437C1005.31 68.1545 1005.35 68.0687 1005.39 67.9899L1005.7 67.3373L1010.03 69.4138L1009.69 70.3535C1009.41 70.914 1009.32 71.5491 1009.44 72.1647C1009.55 72.7803 1009.85 73.3436 1010.31 73.7711C1011.68 75.4093 1012.6 75.8077 1013.6 74.9682C1014.46 74.2166 1013.96 73.0229 1012.66 71.0925C1010.43 67.7924 1008.81 64.4548 1012.55 61.3178C1015.01 59.2527 1018.06 59.4279 1020.98 61.8423L1022.82 60.2982L1025.64 63.7728L1023.86 65.252C1024.6 66.3016 1025.03 67.5409 1025.1 68.825C1025.16 70.109 1024.86 71.3848 1024.22 72.5031L1023.74 73.3376L1019.63 70.9066L1020.14 70.1233C1020.77 68.9701 1020.51 67.7261 1019.37 66.4041C1017.88 64.6488 1016.69 64.1862 1015.7 65.0164Z" fill="#00C853"/>
<path d="M1062.49 260.417C1062.31 259.922 1062.27 259.389 1062.35 258.87L1079.72 160.392C1079.79 160.004 1079.93 159.633 1080.14 159.3C1080.36 158.967 1080.63 158.68 1080.95 158.454C1081.28 158.227 1081.64 158.067 1082.03 157.982C1082.41 157.896 1082.81 157.888 1083.2 157.956L1130.47 166.291C1130.86 166.359 1131.23 166.503 1131.56 166.714C1131.89 166.925 1132.18 167.2 1132.41 167.522C1132.56 167.738 1132.68 167.973 1132.77 168.221C1132.94 168.716 1132.99 169.249 1132.9 169.767L1115.54 268.246C1115.47 268.634 1115.33 269.005 1115.11 269.338C1114.9 269.671 1114.63 269.958 1114.31 270.184C1113.98 270.411 1113.62 270.571 1113.23 270.656C1112.85 270.742 1112.45 270.75 1112.06 270.682L1064.79 262.347C1064.4 262.279 1064.03 262.135 1063.7 261.924C1063.37 261.713 1063.08 261.438 1062.85 261.116C1062.7 260.899 1062.58 260.665 1062.49 260.417V260.417Z" fill="#7DDF96"/>
<path d="M1129.95 169.247L1112.58 267.726L1065.31 259.391L1082.68 160.912L1129.95 169.247ZM1135.59 167.195C1135.41 166.704 1135.16 166.238 1134.87 165.807C1134.42 165.16 1133.84 164.608 1133.17 164.184C1132.51 163.76 1131.77 163.471 1130.99 163.335L1083.72 155C1082.94 154.863 1082.14 154.88 1081.37 155.051C1080.61 155.221 1079.88 155.542 1079.23 155.995C1078.58 156.447 1078.03 157.022 1077.61 157.688C1077.19 158.353 1076.9 159.095 1076.76 159.872L1059.4 258.35C1059.22 259.387 1059.31 260.454 1059.67 261.443C1059.85 261.938 1060.1 262.407 1060.4 262.837C1061.31 264.139 1062.71 265.026 1064.27 265.303L1111.54 273.638C1112.32 273.775 1113.11 273.758 1113.88 273.587C1114.65 273.416 1115.38 273.096 1116.03 272.643C1116.67 272.191 1117.22 271.615 1117.65 270.95C1118.07 270.285 1118.36 269.543 1118.49 268.766L1135.86 170.288C1136.04 169.251 1135.95 168.184 1135.59 167.195V167.195Z" fill="#515979"/>
<path d="M1094.43 232.468C1086.12 230.958 1079.61 225.879 1076.95 219.526L1071.87 248.257C1073.93 248.621 1075.76 249.79 1076.97 251.506C1078.17 253.222 1078.64 255.344 1078.27 257.407L1101.09 261.428C1101.26 260.407 1101.64 259.432 1102.2 258.558C1102.76 257.683 1103.48 256.927 1104.33 256.333C1105.18 255.738 1106.14 255.317 1107.15 255.092C1108.16 254.868 1109.21 254.845 1110.23 255.025L1115.29 226.289C1110.62 231.333 1102.73 233.928 1094.43 232.468ZM1098.8 247.129C1098.37 248.807 1097.33 250.262 1095.87 251.202C1094.42 252.142 1092.66 252.498 1090.96 252.197C1089.25 251.897 1087.72 250.963 1086.68 249.582C1085.63 248.201 1085.15 246.477 1085.32 244.754C1085.75 243.076 1086.79 241.62 1088.25 240.68C1089.7 239.74 1091.46 239.385 1093.16 239.685C1094.87 239.986 1096.4 240.92 1097.44 242.3C1098.49 243.681 1098.97 245.406 1098.8 247.129V247.129Z" fill="#00C853"/>
<path d="M1085.04 173.622L1079.96 202.339C1084.64 197.305 1092.53 194.71 1100.83 196.17C1109.13 197.629 1115.65 202.769 1118.31 209.112L1123.36 180.392C1122.34 180.212 1121.37 179.833 1120.49 179.276C1119.62 178.72 1118.86 177.996 1118.27 177.147C1117.67 176.298 1117.25 175.341 1117.03 174.329C1116.8 173.317 1116.78 172.271 1116.96 171.25L1094.18 167.219C1093.81 169.279 1092.64 171.111 1090.93 172.311C1089.22 173.511 1087.1 173.983 1085.04 173.622V173.622ZM1109.94 183.893C1109.56 185.593 1108.52 187.072 1107.05 188.006C1105.57 188.94 1103.79 189.254 1102.09 188.878C1100.36 188.641 1098.8 187.728 1097.74 186.34C1096.68 184.952 1096.22 183.202 1096.45 181.472C1096.83 179.771 1097.88 178.291 1099.35 177.357C1100.82 176.422 1102.6 176.108 1104.31 176.483C1106.04 176.721 1107.6 177.634 1108.66 179.024C1109.71 180.413 1110.17 182.164 1109.94 183.893V183.893Z" fill="#00C853"/>
<path d="M1101.41 211.645C1100.26 211.424 1099.6 212.536 1099 214.811C1097.81 218.776 1096.43 221.885 1091.52 221.267C1088.42 220.716 1086.63 218.363 1086.69 214.597L1084.42 214.201L1085.2 209.766L1087.47 210.163C1087.82 209.077 1088.44 208.099 1089.28 207.326C1090.11 206.552 1091.14 206.01 1092.25 205.752C1092.33 205.707 1092.41 205.676 1092.5 205.66L1093.2 205.479L1094.4 210.132L1093.46 210.474C1092.85 210.621 1092.31 210.96 1091.91 211.442C1091.51 211.923 1091.27 212.52 1091.24 213.144C1090.86 215.249 1091.15 216.209 1092.43 216.433C1093.56 216.608 1094.15 215.456 1094.8 213.221C1095.9 209.395 1097.41 206.004 1102.22 206.859C1105.38 207.412 1107.21 209.864 1107.24 213.653L1109.6 214.069L1108.75 218.464L1106.47 218.049C1106.15 219.293 1105.47 220.417 1104.53 221.292C1103.59 222.166 1102.42 222.754 1101.15 222.987L1100.2 223.152L1099.42 218.444L1100.35 218.33C1101.64 218.074 1102.43 217.075 1102.7 215.346C1103.09 213.077 1102.68 211.873 1101.41 211.645Z" fill="#00C853"/>
</svg>
