<?xml version="1.0" encoding="utf-8"?>
<!-- Generator: Adobe Illustrator 25.0.0, SVG Export Plug-In . SVG Version: 6.00 Build 0)  -->
<svg version="1.1" id="Layer_1" xmlns="http://www.w3.org/2000/svg" xmlns:xlink="http://www.w3.org/1999/xlink" x="0px" y="0px"
	 viewBox="0 0 477.6 430" style="enable-background:new 0 0 477.6 430;" xml:space="preserve">
<style type="text/css">
	.st0{fill:#3A70BF;}
	.st1{fill:#EDF4FC;}
	.st2{fill:#C7D7E5;}
	.st3{fill:#F9D0B4;}
	.st4{fill:#5B5D60;}
	.st5{fill:#5290DB;}
	.st6{fill:#35414D;}
	.st7{fill:#F5C84C;}
	.st8{fill:#FC657E;}
	.st9{fill:#70D6F9;}
	.st10{fill:#87D147;}
	.st11{fill:#FFFFFF;}
	.st12{fill:#67CAE5;}
	.st13{fill:#6583FE;}
	.st14{fill:#2626BC;}
	.st15{fill:#4369FD;}
	.st16{fill:#FF5BA8;}
	.st17{fill:#9FB0FE;}
	.st18{fill:#FF7EB8;}
	.st19{fill:#B7C5FF;}
</style>
<g>
	<g id="Layer_1_1_">
		<g>
			<g>
				<g>
					<g>
						<g>
							<path class="st0" d="M244.2,410.3c0-3.4,2.8-6.2,6.2-6.2h18.1c-5.5,0-10-4.5-10-10V263.4c0-5.5,4.5-10,10-10h7.4l14.8-15.6
								c-4.2-4.3-6.7-10.1-6.7-16.4V210c-9.6,5.2-20.5,8.2-32.1,8.2c-10.8,0-21-2.6-30.1-7.2v10.5c0,6.2-2.5,12.1-6.7,16.4
								l26.6,27.9c1.4,1.5,1.4,3.8,0,5.3l-14.8,16c-1.7,1.8-4.6,1.8-6.2-0.2l-27.3-33c-0.9-1.1-1-2.5-0.4-3.7l-2.7,1.3l-52.4,13.2
								c-11.3,2.8-19.4,12.7-20.1,24.3l-7.5,128.6c-0.2,4.2,3.1,7.8,7.4,7.8h141.7C251,425.5,244.2,418.7,244.2,410.3L244.2,410.3z"
								/>
						</g>
					</g>
				</g>
			</g>
			<g>
				<g>
					<g>
						<path class="st1" d="M448.9,253.4H268.5c-5.5,0-10,4.5-10,10v130.7c0,5.5,4.5,10,10,10h180.4c5.5,0,10-4.5,10-10V263.4
							C458.9,257.9,454.4,253.4,448.9,253.4z"/>
					</g>
				</g>
			</g>
			<g>
				<g>
					<g>
						<path class="st2" d="M466.9,404.2H250.4c-3.4,0-6.2,2.8-6.2,6.2c0,8.4,6.8,15.1,15.1,15.1H458c8.4,0,15.1-6.8,15.1-15.1
							C473.1,406.9,470.3,404.2,466.9,404.2z"/>
					</g>
				</g>
			</g>
			<g>
				<g>
					<g>
						<path class="st3" d="M261.9,68.8c-24.6,31-61,26.6-73.2,24.1c-2.2-0.5-4.4,1.2-4.4,3.5v0v54.3c0,37.1,30.4,67.5,67.5,67.5
							s67.5-30.4,67.5-67.5V90.5c0-0.4,0-0.7,0-1.1c0-1.9-1.6-3.5-3.5-3.5c-28-0.8-42.8-11.9-48.5-17.5
							C265.8,66.9,263.3,67.1,261.9,68.8L261.9,68.8z"/>
					</g>
				</g>
			</g>
			<g>
				<g>
					<g>
						<g>
							<path class="st4" d="M180,99.2c1.5,0,2.9,0.1,4.3,0.3v-3.2c0,0,0,0,0,0c0-2.3,2.1-3.9,4.4-3.5c12.2,2.6,48.6,6.9,73.2-24.1
								c1.4-1.7,3.9-1.9,5.4-0.3c5.7,5.6,20.4,16.7,48.5,17.5c1.9,0.1,3.4,1.6,3.5,3.5c0,0.4,0,0.7,0,1.1v9c1.4-0.2,2.9-0.3,4.3-0.3
								c7.6,0,14.5,3,19.5,7.9V56.4c0-21.2-17.3-38.5-38.5-38.5c-7.2,0-13.9,2-19.7,5.5c-6.7-11.3-19-18.9-33.1-18.9h-19.8
								c-38.3,0-69.6,31.3-69.6,69.6v31.2C167.3,101.5,173.4,99.2,180,99.2z"/>
						</g>
					</g>
				</g>
			</g>
			<g>
				<g>
					<g>
						<path class="st3" d="M323.6,99.2c-1.5,0-2.9,0.1-4.3,0.3v51.1c0,1.5-0.1,3-0.2,4.5c1.5,0.2,3,0.4,4.5,0.4
							c15.6,0,28.2-12.6,28.2-28.2S339.2,99.2,323.6,99.2L323.6,99.2z"/>
					</g>
				</g>
			</g>
			<g>
				<g>
					<g>
						<path class="st3" d="M184.3,150.6c0-7,0-37.2,0-51.1c-1.4-0.2-2.9-0.3-4.3-0.3c-15.6,0-28.2,12.6-28.2,28.2
							s12.6,28.2,28.2,28.2c1.5,0,3-0.2,4.5-0.4v0C184.4,153.7,184.3,152.2,184.3,150.6z"/>
					</g>
				</g>
			</g>
			<g>
				<g>
					<g>
						<path class="st5" d="M312.6,253.4c0.8-1.4,0.6-3.1-0.6-4.2l-14.7-13.5c-1.4-1.2-3.5-1.2-4.7,0.2l-16.7,17.5H312.6z"/>
					</g>
				</g>
			</g>
			<g>
				<g>
					<g>
						<path class="st5" d="M193.6,249.2l14.7-13.5c1.4-1.2,3.5-1.2,4.7,0.2l28.4,29.9c1.4,1.5,1.4,3.8,0,5.3l-14.8,16
							c-1.7,1.8-4.6,1.8-6.2-0.2l-27.3-33C192.1,252.4,192.3,250.4,193.6,249.2L193.6,249.2z"/>
					</g>
				</g>
			</g>
			<g>
				<g>
					<g>
						<path class="st3" d="M241,271.6c3.5,0.6,7.1,0.9,10.8,0.9c2.2,0,4.4-0.1,6.6-0.3v-8.7c0-5.5,4.5-10,10-10h7.4l14.8-15.6
							c-4.2-4.3-6.7-10.1-6.7-16.4V210c-9.6,5.2-20.5,8.2-32.1,8.2c-10.8,0-21-2.6-30.1-7.2v10.5c0,6.2-2.5,12.1-6.7,16.4l26.6,27.9
							c1.4,1.5,1.4,3.8,0,5.3L241,271.6z"/>
					</g>
				</g>
			</g>
			<g>
				<g>
					<g>
						<path class="st6" d="M251.8,277c-3.5,0-7.1-0.3-10.6-0.8c-2.5-0.4-4.2-2.7-3.8-5.2c0.4-2.5,2.7-4.2,5.2-3.8
							c4.9,0.7,9.6,0.9,14.5,0.5c2.5-0.2,4.7,1.6,4.9,4.1c0.2,2.5-1.6,4.7-4.1,4.9C255.8,277,253.8,277,251.8,277z"/>
					</g>
				</g>
			</g>
			<g>
				<g>
					<g>
						<path class="st6" d="M215.5,241.8c-1.1,0-2.2-0.4-3.1-1.2c-1.8-1.7-2-4.6-0.3-6.4c3.2-3.5,5-8,5-12.7v-9.8
							c0-2.5,2-4.5,4.5-4.5c2.5,0,4.5,2,4.5,4.5v9.8c0,7-2.6,13.7-7.4,18.9C217.9,241.3,216.7,241.8,215.5,241.8L215.5,241.8z"/>
					</g>
				</g>
			</g>
			<g>
				<g>
					<g>
						<path class="st6" d="M289.9,241.6c-1.2,0-2.5-0.5-3.4-1.5c-4.6-5.1-7.2-11.8-7.2-18.7V211c0-2.5,2-4.5,4.5-4.5
							c2.5,0,4.5,2,4.5,4.5v10.5c0,4.7,1.7,9.1,4.9,12.6c1.7,1.9,1.5,4.7-0.3,6.4C292.1,241.2,291,241.6,289.9,241.6z"/>
					</g>
				</g>
			</g>
			<g>
				<g>
					<g>
						<path class="st3" d="M244.2,410.3c0-3.4,2.8-6.1,6.2-6.1h18.1c-5.5,0-10-4.5-10-10v-14h-13.8c-5.7,0-10.9,2.2-14.8,5.9
							c-3.6,3.4-8.4,5-13.3,5h-53.7c-1.9,0-3.5-1.6-3.5-3.5V362h-45.9l-3.2,55.6c-0.2,4.2,3.1,7.8,7.4,7.8h141.7
							C251,425.5,244.2,418.7,244.2,410.3L244.2,410.3z"/>
					</g>
				</g>
			</g>
			<g>
				<g>
					<g>
						<path class="st6" d="M159.3,367.2c-2.5,0-4.5-2-4.5-4.5V321c0-2.5,2-4.5,4.5-4.5s4.5,2,4.5,4.5v41.7
							C163.9,365.2,161.8,367.2,159.3,367.2z"/>
					</g>
				</g>
			</g>
			<g>
				<g>
					<g>
						<g>
							<path class="st6" d="M257.7,430h-140c-3.3,0-6.4-1.4-8.7-3.7c-2.2-2.4-3.4-5.6-3.2-8.9l7.5-128.7
								c0.8-13.7,10.2-25.1,23.5-28.5l51.9-13.1l1.2-0.6c2.2-1.1,5-0.2,6.1,2.1c1.1,2.2,0.2,5-2.1,6.1l-1.7,0.8
								c-0.3,0.1-0.6,0.3-0.9,0.3l-52.4,13.2c-9.4,2.4-16.1,10.5-16.7,20.2l-7.5,128.7c0,0.8,0.2,1.5,0.8,2.1
								c0.5,0.6,1.3,0.9,2.1,0.9h140c2.5,0,4.5,2,4.5,4.5C262.2,428,260.2,430,257.7,430L257.7,430z"/>
						</g>
					</g>
				</g>
			</g>
			<g>
				<g>
					<g>
						<path class="st6" d="M252.8,180.8c-8.7,0-16.8-3.5-21.8-9.5c-1.6-1.9-1.4-4.8,0.6-6.4c1.9-1.6,4.8-1.4,6.4,0.6
							c3.3,3.9,8.8,6.2,14.8,6.2c6,0,11.5-2.3,14.8-6.2c1.6-1.9,4.5-2.2,6.4-0.6c1.9,1.6,2.2,4.5,0.6,6.4
							C269.6,177.3,261.5,180.8,252.8,180.8z"/>
					</g>
				</g>
			</g>
			<g>
				<g>
					<g>
						<circle class="st6" cx="283.2" cy="130.5" r="7.3"/>
					</g>
				</g>
			</g>
			<g>
				<g>
					<g>
						<circle class="st6" cx="222.4" cy="130.5" r="7.3"/>
					</g>
				</g>
			</g>
			<g>
				<g>
					<g>
						<path class="st6" d="M298.1,158.1h-16.7c-13.5,0-24.5-11-24.5-24.5v-11.6c0-10.1,8.2-18.3,18.3-18.3h29.1
							c10.1,0,18.3,8.2,18.3,18.3v11.6C322.6,147.1,311.6,158.1,298.1,158.1z M275.1,112.7c-5.1,0-9.3,4.2-9.3,9.3v11.6
							c0,8.5,6.9,15.5,15.5,15.5h16.7c8.5,0,15.5-6.9,15.5-15.5v-11.6c0-5.1-4.2-9.3-9.3-9.3H275.1z"/>
					</g>
				</g>
			</g>
			<g>
				<g>
					<g>
						<path class="st6" d="M222.4,158.1h-16.7c-13.5,0-24.5-11-24.5-24.5v-11.6c0-10.1,8.2-18.3,18.3-18.3h29.1
							c10.1,0,18.3,8.2,18.3,18.3v11.6C247,147.1,236,158.1,222.4,158.1L222.4,158.1z M199.5,112.7c-5.1,0-9.3,4.2-9.3,9.3v11.6
							c0,8.5,6.9,15.5,15.5,15.5h16.7c8.5,0,15.5-6.9,15.5-15.5v-11.6c0-5.1-4.2-9.3-9.3-9.3H199.5z"/>
					</g>
				</g>
			</g>
			<g>
				<g>
					<g>
						<path class="st6" d="M259.5,128.9h-15.1c-2.5,0-4.5-2-4.5-4.5c0-2.5,2-4.5,4.5-4.5h15.1c2.5,0,4.5,2,4.5,4.5
							C264,126.9,262,128.9,259.5,128.9z"/>
					</g>
				</g>
			</g>
			<g>
				<g>
					<g>
						<path class="st6" d="M449.2,408.7c-2.4,0-4.5-1.9-4.5-4.4c-0.1-2.5,1.9-4.6,4.4-4.7c2.9-0.1,5.3-2.6,5.3-5.5V263.4
							c0-3-2.5-5.5-5.5-5.5H268.5c-3,0-5.5,2.5-5.5,5.5v130.7c0,2.9,2.4,5.4,5.3,5.5c2.5,0.1,4.5,2.2,4.4,4.7
							c-0.1,2.5-2.1,4.5-4.7,4.4c-7.8-0.2-14.1-6.8-14.1-14.6V263.4c0-8,6.5-14.6,14.6-14.6h180.4c8,0,14.6,6.5,14.6,14.6v130.7
							c0,7.8-6.3,14.3-14.1,14.6C449.3,408.7,449.2,408.7,449.2,408.7L449.2,408.7z"/>
					</g>
				</g>
			</g>
			<g>
				<g>
					<g>
						<path class="st6" d="M458,430H259.4c-10.8,0-19.7-8.8-19.7-19.7c0-5.9,4.8-10.7,10.7-10.7h216.5c5.9,0,10.7,4.8,10.7,10.7
							C477.6,421.2,468.8,430,458,430z M250.4,408.7c-0.9,0-1.6,0.7-1.6,1.6c0,5.8,4.8,10.6,10.6,10.6H458c5.8,0,10.6-4.8,10.6-10.6
							c0-0.9-0.7-1.6-1.6-1.6H250.4z"/>
					</g>
				</g>
			</g>
			<g>
				<g>
					<g>
						<path class="st7" d="M175.3,204c-8.2-1.5-14.6-7.8-16.1-15.8c-0.1-0.4-0.6-0.4-0.7,0c-1.6,8-8,14.3-16.1,15.8
							c-0.4,0.1-0.4,0.6,0,0.7c8.2,1.5,14.6,7.8,16.1,15.8c0.1,0.4,0.6,0.4,0.7,0c1.6-8,8-14.3,16.1-15.8
							C175.7,204.6,175.7,204,175.3,204z"/>
					</g>
				</g>
			</g>
			<g>
				<g>
					<g>
						<path class="st8" d="M374.2,169.1c-5.2-1-9.3-5-10.3-10.1c0-0.3-0.4-0.3-0.5,0c-1,5.1-5.1,9.1-10.3,10.1c-0.3,0-0.3,0.4,0,0.4
							c5.2,1,9.3,5,10.3,10.1c0,0.3,0.4,0.3,0.5,0c1-5.1,5.1-9.1,10.3-10.1C374.4,169.5,374.4,169.1,374.2,169.1z"/>
					</g>
				</g>
			</g>
			<g>
				<g>
					<g>
						<path class="st9" d="M370.3,67.9h4.2v-4.2c0-3.2,2.6-5.7,5.7-5.7c3.2,0,5.7,2.6,5.7,5.7v4.2h4.2c3.2,0,5.7,2.6,5.7,5.7
							c0,3.2-2.6,5.7-5.7,5.7H386v4.2c0,3.2-2.6,5.7-5.7,5.7c-3.2,0-5.7-2.6-5.7-5.7v-4.2h-4.2c-3.2,0-5.7-2.6-5.7-5.7
							C364.6,70.5,367.2,67.9,370.3,67.9z"/>
					</g>
				</g>
			</g>
			<g>
				<g>
					<g>
						<circle class="st8" cx="117.2" cy="242.9" r="6.1"/>
					</g>
				</g>
			</g>
			<g>
				<g>
					<g>
						<circle class="st10" cx="144.5" cy="13.3" r="6.1"/>
					</g>
				</g>
			</g>
			<g>
				<g>
					<g>
						<path class="st6" d="M251.8,222.6c-39.7,0-72-32.3-72-72V96.4c0-2.5,1.1-4.8,3-6.3c1.9-1.6,4.4-2.2,6.8-1.7
							c13.1,2.7,46.1,6.1,68.7-22.4c1.4-1.8,3.6-2.9,5.9-3.1c2.3-0.1,4.6,0.7,6.2,2.3c4.7,4.6,18.5,15.4,45.4,16.2
							c4.3,0.1,7.8,3.6,7.9,8c0,0.4,0,0.8,0,1.1v60.1C323.8,190.3,291.5,222.6,251.8,222.6L251.8,222.6z M188.9,97.5v53.1
							c0,34.7,28.2,62.9,62.9,62.9s62.9-28.2,62.9-62.9V90.5c0,0,0-0.1,0-0.1c-27.5-1-42.8-11.4-49.9-18.1
							C239.1,103.9,201.5,99.9,188.9,97.5L188.9,97.5z M265.5,71.6C265.5,71.6,265.5,71.6,265.5,71.6
							C265.5,71.6,265.5,71.6,265.5,71.6z"/>
					</g>
				</g>
			</g>
			<g>
				<g>
					<g>
						<g>
							<path class="st6" d="M343.2,110c-2.5,0-4.5-2-4.5-4.5v-49c0-18.8-15.3-34-34-34c-6.1,0-12.1,1.7-17.4,4.9
								c-1,0.6-2.3,0.8-3.4,0.5c-1.2-0.3-2.2-1-2.8-2.1c-6.2-10.3-17.3-16.7-29.2-16.7h-19.8c-35.9,0-65.1,29.2-65.1,65.1v30.6
								c0,2.5-2,4.5-4.5,4.5c-2.5,0-4.5-2-4.5-4.5V74.2c0-40.9,33.3-74.2,74.2-74.2h19.8c13.6,0,26.4,6.6,34.5,17.5
								c5.7-2.7,11.9-4.1,18.2-4.1c23.8,0,43.1,19.3,43.1,43.1v49C347.7,108,345.7,110,343.2,110L343.2,110z"/>
						</g>
					</g>
				</g>
			</g>
			<g>
				<g>
					<g>
						<path class="st6" d="M323.6,160.1c-1.1,0-2.3-0.1-3.5-0.2c-2.5-0.3-4.3-2.5-4-5c0.3-2.5,2.5-4.3,5-4c0.9,0.1,1.7,0.2,2.5,0.2
							c13,0,23.6-10.6,23.6-23.6s-10.6-23.6-23.6-23.6c-0.7,0-1.5,0-2.3,0.1c-2.5,0.2-4.7-1.6-5-4.1c-0.2-2.5,1.6-4.7,4.1-5
							c1.1-0.1,2.2-0.2,3.2-0.2c18,0,32.7,14.7,32.7,32.7S341.7,160.1,323.6,160.1L323.6,160.1z"/>
					</g>
				</g>
			</g>
			<g>
				<g>
					<g>
						<path class="st6" d="M180,160.1c-18,0-32.7-14.7-32.7-32.7S162,94.7,180,94.7c0.9,0,1.7,0,2.6,0.1c2.5,0.2,4.4,2.4,4.1,4.9
							c-0.2,2.5-2.4,4.4-4.9,4.1c-0.6,0-1.2-0.1-1.8-0.1c-13,0-23.6,10.6-23.6,23.6S167,151,180,151c0.6,0,1.2,0,1.9-0.1
							c2.5-0.2,4.7,1.6,4.9,4.1c0.2,2.5-1.6,4.7-4.1,4.9C181.8,160,180.9,160.1,180,160.1L180,160.1z"/>
					</g>
				</g>
			</g>
			<g>
				<g>
					<g>
						<path class="st6" d="M276.5,257.2c-1.1,0-2.2-0.4-3.1-1.2c-1.8-1.7-1.9-4.6-0.2-6.4l16-16.8c3-3.1,7.9-3.3,11.1-0.4l14.7,13.5
							c2.1,2,3,4.9,2.3,7.7c-0.6,2.4-3,3.9-5.5,3.3c-2.2-0.5-3.6-2.6-3.4-4.8L295,239.8l-15.2,16
							C278.9,256.8,277.7,257.2,276.5,257.2L276.5,257.2z"/>
					</g>
				</g>
			</g>
			<g>
				<g>
					<g>
						<path class="st6" d="M223.8,292.9c-0.1,0-0.2,0-0.2,0c-2.5-0.1-4.8-1.2-6.4-3.1l-27.3-33c-2.7-3.3-2.4-8,0.8-10.9l14.7-13.5
							c3.2-2.9,8.1-2.7,11.1,0.4l28.4,29.9c3,3.2,3.1,8.2,0.1,11.5l-14.8,16C228.5,291.9,226.2,292.9,223.8,292.9L223.8,292.9z
							 M197.5,251.8l26.3,31.9l14-15.2l-27.2-28.6L197.5,251.8z M196.7,252.5C196.7,252.5,196.7,252.5,196.7,252.5L196.7,252.5z"/>
					</g>
				</g>
			</g>
			<g>
				<g>
					<g>
						<g>
							<circle class="st9" cx="358.7" cy="330.3" r="42.5"/>
						</g>
					</g>
				</g>
				<g>
					<g>
						<g>
							<g>
								<path class="st6" d="M341.2,347.1c-1.2,0-2.5-0.5-3.4-1.5L327,333.4c-1.5-1.7-1.5-4.3,0-6l10.8-12.1c1.7-1.9,4.5-2,6.4-0.4
									c1.9,1.7,2,4.5,0.4,6.4l-8.1,9.1l8.1,9.1c1.7,1.9,1.5,4.7-0.4,6.4C343.4,346.7,342.3,347.1,341.2,347.1z"/>
							</g>
						</g>
					</g>
					<g>
						<g>
							<g>
								<path class="st6" d="M376.1,347.1c-1.1,0-2.2-0.4-3-1.1c-1.9-1.7-2-4.5-0.4-6.4l8.1-9.1l-8.1-9.1c-1.7-1.9-1.5-4.7,0.4-6.4
									c1.9-1.7,4.7-1.5,6.4,0.4l10.8,12.1c1.5,1.7,1.5,4.3,0,6l-10.8,12.1C378.6,346.6,377.4,347.1,376.1,347.1z"/>
							</g>
						</g>
					</g>
					<g>
						<g>
							<g>
								<path class="st6" d="M353.4,346.7c-0.6,0-1.2-0.1-1.8-0.4c-2.3-1-3.3-3.7-2.3-6l10.6-24.1c1-2.3,3.7-3.3,6-2.3
									c2.3,1,3.3,3.7,2.3,6L357.5,344C356.8,345.7,355.1,346.7,353.4,346.7L353.4,346.7z"/>
							</g>
						</g>
					</g>
				</g>
				<g>
					<g>
						<g>
							<path class="st6" d="M358.7,377.3c-25.9,0-47.1-21.1-47.1-47.1c0-25.9,21.1-47.1,47.1-47.1c25.9,0,47.1,21.1,47.1,47.1
								C405.7,356.2,384.6,377.3,358.7,377.3z M358.7,292.3c-20.9,0-38,17-38,38c0,20.9,17,38,38,38c20.9,0,38-17,38-38
								C396.7,309.3,379.6,292.3,358.7,292.3z"/>
						</g>
					</g>
				</g>
			</g>
			<g>
				<g>
					<g>
						<path class="st6" d="M216.5,395.6h-53.7c-4.4,0-8-3.6-8-8v-21h-40.6c-2.5,0-4.5-2-4.5-4.5c0-2.5,2-4.5,4.5-4.5h45.1
							c2.5,0,4.5,2,4.5,4.5v24.5h52.6c4,0,7.6-1.3,10.2-3.8c4.9-4.6,11.3-7.1,17.9-7.1H257c2.5,0,4.5,2,4.5,4.5c0,2.5-2,4.5-4.5,4.5
							h-12.3c-4.4,0-8.5,1.7-11.7,4.7C228.6,393.3,222.8,395.6,216.5,395.6L216.5,395.6z"/>
					</g>
				</g>
			</g>
		</g>
	</g>
	<g>
		<g id="g9177" transform="translate(396.0977,429.2861)">
			<g id="path9179">
				<path class="st11" d="M-264.8-388.2v173.1c0,3.8-3.1,6.9-6.9,6.9h-115.7c-3.8,0-6.9-3.1-6.9-6.9v-173.1c0-3.8,3.1-6.9,6.9-6.9
					h115.7C-267.9-395.2-264.8-392.1-264.8-388.2"/>
			</g>
		</g>
		<g id="path9181">
			<path class="st9" d="M131.3,132.8H1.7V70.3h129.5L131.3,132.8z"/>
		</g>
		<g id="g9183" transform="translate(396.0977,365.9668)">
			<g id="path9185">
				<path class="st12" d="M-264.8-295.6v48.7c-5.4,2.2-11.2,3.5-17.4,3.5c-25.1,0-45.4-20.3-45.4-45.4c0-2.3,0.2-4.5,0.5-6.7H-264.8
					z"/>
			</g>
		</g>
		<g id="g9187" transform="translate(396.0977,396.0908)">
			<g id="path9189">
				<path class="st13" d="M-264.8-339.7V-355c0-3.8-3.1-6.9-6.9-6.9h-115.7c-3.8,0-6.9,3.1-6.9,6.9v15.3H-264.8z"/>
			</g>
		</g>
		<g id="g9191" transform="translate(115.9023,396.0908)">
			<g id="path9193">
				<path class="st6" d="M15.4-337.9h-129.5c-1,0-1.7-0.8-1.7-1.7s0.8-1.7,1.7-1.7H15.4c1,0,1.7,0.8,1.7,1.7S16.3-337.9,15.4-337.9z
					"/>
			</g>
		</g>
		<g id="g9195" transform="translate(154.0107,420.2666)">
			<g id="path9197">
				<g>
					<path class="st6" d="M-134.7-371.7c-1.8,0-3.3-1.5-3.3-3.3s1.5-3.3,3.3-3.3s3.3,1.4,3.3,3.2v0.1
						C-131.4-373.2-132.9-371.7-134.7-371.7z"/>
				</g>
			</g>
		</g>
		<g id="g9199" transform="translate(173.3491,420.2666)">
			<g id="path9201">
				<g>
					<path class="st6" d="M-145.1-371.7c-1.8,0-3.3-1.5-3.3-3.3s1.5-3.3,3.3-3.3s3.3,1.4,3.3,3.2v0.1
						C-141.8-373.2-143.3-371.7-145.1-371.7z"/>
				</g>
			</g>
		</g>
		<g id="g9203" transform="translate(192.6875,420.2666)">
			<g id="path9205">
				<g>
					<path class="st6" d="M-155.5-371.7c-1.8,0-3.3-1.5-3.3-3.3s1.5-3.3,3.3-3.3c1.8,0,3.3,1.4,3.3,3.2v0.1
						C-152.2-373.2-153.6-371.7-155.5-371.7z"/>
				</g>
			</g>
		</g>
		<g id="g9207" transform="translate(396.0977,338.5303)">
			<g id="path9209">
				<path class="st6" d="M-271.8-115.7h-115.7c-4.8,0-8.7-3.9-8.7-8.7v-173.1c0-4.8,3.9-8.7,8.7-8.7h115.7c4.8,0,8.7,3.9,8.7,8.7
					v173.1C-263.1-119.6-267-115.7-271.8-115.7z M-387.4-302.7c-2.9,0-5.2,2.3-5.2,5.2v173.1c0,2.9,2.3,5.2,5.2,5.2h115.7
					c2.9,0,5.2-2.3,5.2-5.2v-173.1c0-2.9-2.3-5.2-5.2-5.2H-387.4z"/>
			</g>
		</g>
		<g id="g9211" transform="translate(358.4614,298.3418)">
			<g id="path9213">
				<path class="st14" d="M-241.5-196c-0.1,0-0.3-0.1-0.4-0.2c-0.2-0.2-0.2-0.6,0-0.8l2.5-2.5l-2.5-2.5c-0.2-0.2-0.2-0.6,0-0.8
					c0.2-0.2,0.6-0.2,0.8,0l2.9,2.9c0.2,0.2,0.2,0.6,0,0.8l-2.9,2.9C-241.2-196.1-241.3-196-241.5-196z"/>
			</g>
		</g>
		<g id="g9215" transform="translate(153.5386,298.3418)">
			<g id="path9217">
				<path class="st14" d="M-137.5-196c-0.1,0-0.3-0.1-0.4-0.2l-2.9-2.9c-0.2-0.2-0.2-0.6,0-0.8l2.9-2.9c0.2-0.2,0.6-0.2,0.8,0
					c0.2,0.2,0.2,0.6,0,0.8l-2.5,2.5l2.5,2.5c0.2,0.2,0.2,0.6,0,0.8C-137.2-196.1-137.4-196-137.5-196z"/>
			</g>
		</g>
		<g id="g9219" transform="translate(244.6719,249.1592)">
			<g id="path9221">
				<path class="st15" d="M-183.4-124.8c0,1.4-1.2,2.6-2.6,2.6c-1.4,0-2.6-1.2-2.6-2.6c0-1.4,1.2-2.6,2.6-2.6
					C-184.6-127.4-183.4-126.3-183.4-124.8"/>
			</g>
		</g>
		<g id="g9223" transform="translate(261.5937,249.1592)">
			<g id="path9225">
				<path class="st16" d="M-192.5-124.8c0,1.4-1.2,2.6-2.6,2.6c-1.4,0-2.6-1.2-2.6-2.6c0-1.4,1.2-2.6,2.6-2.6
					C-193.7-127.4-192.5-126.3-192.5-124.8"/>
			</g>
		</g>
		<g id="g9227" transform="translate(278.5156,249.1592)">
			<g id="path9229">
				<path class="st16" d="M-201.6-124.8c0,1.4-1.2,2.6-2.6,2.6c-1.4,0-2.6-1.2-2.6-2.6c0-1.4,1.2-2.6,2.6-2.6
					C-202.8-127.4-201.6-126.3-201.6-124.8"/>
			</g>
		</g>
		<g id="g9231" transform="translate(199.4058,152.8955)">
			<g id="path9233">
				<path class="st13" d="M-159.1,15.9h-29c-0.8,0-1.4-0.6-1.4-1.4V-6.1c0-0.8,0.6-1.4,1.4-1.4h29c0.8,0,1.4,0.6,1.4,1.4v20.7
					C-157.7,15.3-158.3,15.9-159.1,15.9"/>
			</g>
		</g>
		<g id="g9235" transform="translate(188.9829,152.8975)">
			<g id="path9237">
				<path class="st17" d="M-153.5,15.9h-11.1V2.3c0-0.8,0.6-1.4,1.4-1.4h8.3c0.8,0,1.4,0.6,1.4,1.4V15.9z"/>
			</g>
		</g>
		<g id="g9239" transform="translate(185.4336,127.335)">
			<g id="path9241">
				<path class="st18" d="M-151.6,53.3h-16.1c-1.3,0-2.3-1-2.3-2.3c0-1.3,1-2.3,2.3-2.3h16.1c1.3,0,2.3,1,2.3,2.3
					C-149.2,52.3-150.3,53.3-151.6,53.3"/>
			</g>
		</g>
		<g id="g9243" transform="translate(199.9019,91.3535)">
			<g id="path9245">
				<path class="st19" d="M-159.3,105.9h-28.3c-1.3,0-2.3-1-2.3-2.3c0-1.3,1-2.3,2.3-2.3h28.3c1.3,0,2.3,1,2.3,2.3
					C-157,104.9-158.1,105.9-159.3,105.9"/>
			</g>
		</g>
		<g id="g9247" transform="translate(199.9019,71.8398)">
			<g id="path9249">
				<path class="st19" d="M-159.3,134.5h-28.3c-1.3,0-2.3-1-2.3-2.3c0-1.3,1-2.3,2.3-2.3h28.3c1.3,0,2.3,1,2.3,2.3
					C-157,133.4-158.1,134.5-159.3,134.5"/>
			</g>
		</g>
		<g id="g9251" transform="translate(286.1025,152.8955)">
			<g id="path9253">
				<path class="st13" d="M-205.7,15.9h-29c-0.8,0-1.4-0.6-1.4-1.4V-6.1c0-0.8,0.6-1.4,1.4-1.4h29c0.8,0,1.4,0.6,1.4,1.4v20.7
					C-204.3,15.3-204.9,15.9-205.7,15.9"/>
			</g>
		</g>
		<g id="g9255" transform="translate(275.6797,152.8975)">
			<g id="path9257">
				<path class="st17" d="M-200.1,15.9h-11.1V2.3c0-0.8,0.6-1.4,1.4-1.4h8.3c0.8,0,1.4,0.6,1.4,1.4V15.9z"/>
			</g>
		</g>
		<g id="g9259" transform="translate(272.1304,127.335)">
			<g id="path9261">
				<path class="st18" d="M-198.2,53.3h-16.1c-1.3,0-2.3-1-2.3-2.3c0-1.3,1-2.3,2.3-2.3h16.1c1.3,0,2.3,1,2.3,2.3
					C-195.9,52.3-196.9,53.3-198.2,53.3"/>
			</g>
		</g>
		<g id="g9263" transform="translate(286.5986,91.3535)">
			<g id="path9265">
				<path class="st19" d="M-206,105.9h-28.3c-1.3,0-2.3-1-2.3-2.3c0-1.3,1-2.3,2.3-2.3h28.3c1.3,0,2.3,1,2.3,2.3
					C-203.6,104.9-204.7,105.9-206,105.9"/>
			</g>
		</g>
		<g id="g9267" transform="translate(286.5986,71.8398)">
			<g id="path9269">
				<path class="st19" d="M-206,134.5h-28.3c-1.3,0-2.3-1-2.3-2.3c0-1.3,1-2.3,2.3-2.3h28.3c1.3,0,2.3,1,2.3,2.3
					C-203.6,133.4-204.7,134.5-206,134.5"/>
			</g>
		</g>
		<g id="g9271" transform="translate(372.7988,152.8955)">
			<g id="path9273">
				<path class="st13" d="M-252.3,15.9h-29c-0.8,0-1.4-0.6-1.4-1.4V-6.1c0-0.8,0.6-1.4,1.4-1.4h29c0.8,0,1.4,0.6,1.4,1.4v20.7
					C-250.9,15.3-251.5,15.9-252.3,15.9"/>
			</g>
		</g>
		<g id="g9275" transform="translate(362.3765,152.8975)">
			<g id="path9277">
				<path class="st17" d="M-246.7,15.9h-11.1V2.3c0-0.8,0.6-1.4,1.4-1.4h8.3c0.8,0,1.4,0.6,1.4,1.4V15.9z"/>
			</g>
		</g>
		<g id="g9279" transform="translate(358.8271,127.335)">
			<g id="path9281">
				<path class="st18" d="M-244.8,53.3h-16.1c-1.3,0-2.3-1-2.3-2.3c0-1.3,1-2.3,2.3-2.3h16.1c1.3,0,2.3,1,2.3,2.3
					C-242.5,52.3-243.5,53.3-244.8,53.3"/>
			</g>
		</g>
		<g id="g9283" transform="translate(373.2954,91.3535)">
			<g id="path9285">
				<path class="st19" d="M-252.6,105.9h-28.3c-1.3,0-2.3-1-2.3-2.3c0-1.3,1-2.3,2.3-2.3h28.3c1.3,0,2.3,1,2.3,2.3
					C-250.3,104.9-251.3,105.9-252.6,105.9"/>
			</g>
		</g>
		<g id="g9287" transform="translate(373.2954,71.8398)">
			<g id="path9289">
				<path class="st19" d="M-252.6,134.5h-28.3c-1.3,0-2.3-1-2.3-2.3c0-1.3,1-2.3,2.3-2.3h28.3c1.3,0,2.3,1,2.3,2.3
					C-250.3,133.4-251.3,134.5-252.6,134.5"/>
			</g>
		</g>
	</g>
</g>
</svg>
