<?xml version="1.0" encoding="utf-8"?>
<!-- Generator: Adobe Illustrator 25.0.0, SVG Export Plug-In . SVG Version: 6.00 Build 0)  -->
<svg version="1.1" id="Layer_1" xmlns="http://www.w3.org/2000/svg" xmlns:xlink="http://www.w3.org/1999/xlink" x="0px" y="0px"
	 viewBox="0 0 420 430" style="enable-background:new 0 0 420 430;" xml:space="preserve">
<style type="text/css">
	.st0{fill:#6F6571;stroke:#35414D;stroke-width:4.4962;stroke-miterlimit:10;}
	.st1{fill:#D7FFDF;}
	.st2{fill-rule:evenodd;clip-rule:evenodd;fill:#7DDF96;}
	.st3{fill:#0D9353;}
	.st4{fill:#35414D;}
	.st5{fill-rule:evenodd;clip-rule:evenodd;fill:#0D9353;}
	.st6{fill:#87D147;}
	.st7{fill:#FC657E;}
	.st8{fill:#70D6F9;}
	.st9{fill:#F5C84C;}
	.st10{fill:#90A4AE;}
	.st11{fill:#78909C;}
	.st12{fill:#CFD8DC;}
	.st13{fill:#B0BEC5;}
	.st14{fill:#FFE081;}
	.st15{fill:#FFCB29;}
	.st16{fill:#FEC111;}
	.st17{fill:#757576;}
	.st18{fill:#E2F4FD;}
</style>
<g>
	<ellipse class="st0" cx="210" cy="407.7" rx="204.1" ry="22.3"/>
	<g>
		<ellipse class="st1" cx="208" cy="163.7" rx="158.5" ry="158.4"/>
		<g>
			<path id="_409268072_15_" class="st2" d="M102.2,201.1c4.7,3.6,10.1,8.3,14.1,12.8c0.5,0.5,0.5,1.4,0,2L87.1,254
				c-1.5,2-3.3-0.8-5.3-2.8c-8.8-8.6-19.6-16-30.9-22.5c-14.2-8.1-30.5-19.5-43.6-30.9c-0.6-0.5-0.6-1.4-0.1-2.1l29.3-38.2
				c0.6-0.7,1.5-0.9,2.2-0.4c13.3,11.5,29.7,23,44.6,31.5C90.3,192.7,96.7,196.9,102.2,201.1L102.2,201.1z"/>
			<path id="_409267760_30_" class="st3" d="M21.7,206.8c-5.3-4.1-10.1-8-13.9-11.4l28.9-37.7c3.9,3.5,8.7,7.4,14,11.5
				c9.9,7.6,20.9,15.1,30.3,20.7c6.5,3.9,12.4,7.9,17.7,11.9c9.4,7.2,14.3,12.7,16.1,15L86,254.3c-4.2-5.1-10.7-10.6-15.8-14.5
				c-5.8-4.5-12.4-8.9-18.4-12.5C42.5,221.8,31.5,214.3,21.7,206.8 M19.8,209.3c9.6,7.4,20.6,14.9,30.3,20.7
				c5.9,3.5,12.3,7.9,18.1,12.3c7.3,5.6,13.7,11.4,16.7,15.9c0.1,0.1,0.2,0.2,0.3,0.3c0.6,0.4,1.4,0.4,1.8-0.2l31.3-40.8
				c0.3-0.4,0.3-1,0-1.5c-0.2-0.3-4.9-7-17.6-16.8l0,0c-5.4-4.1-11.5-8.2-18-12.1c-9.6-5.7-20.5-13.2-29.9-20.4
				c-5.8-4.5-11.2-8.9-15.3-12.7c0,0-0.1-0.1-0.1-0.1c-0.6-0.4-1.4-0.3-1.8,0.2L4.2,194.8c-0.4,0.5-0.3,1.3,0.2,1.7
				C8.5,200.4,13.9,204.8,19.8,209.3L19.8,209.3z M100.7,199.2L100.7,199.2C100.7,199.2,100.7,199.2,100.7,199.2L100.7,199.2z"/>
			<path id="_409267760_29_" class="st4" d="M18.8,207.7c-5.6-4.3-10.6-8.4-14.6-12.1l31.9-41.6c4.1,3.7,9.1,7.9,14.7,12.1
				c10.4,8,22,15.9,31.9,21.7c6.9,4,13.2,8.2,18.7,12.5c9.9,7.6,15,13.4,16.9,15.8l-31.8,41.5c-4.3-5.4-11.3-11.2-16.6-15.3
				c-6.1-4.7-13-9.4-19.5-13.1C40.7,223.5,29.2,215.7,18.8,207.7 M16.7,210.5c10.1,7.7,21.8,15.7,32,21.7c6.2,3.7,13,8.2,19.1,12.9
				c7.7,5.9,14.4,12,17.6,16.8c0.1,0.1,0.2,0.2,0.3,0.3c0.6,0.4,1.5,0.4,2-0.3l34.5-45c0.4-0.5,0.4-1.1,0.1-1.6
				c-0.2-0.3-5.1-7.5-18.5-17.8l0,0c-5.7-4.3-12.1-8.6-19.1-12.7C74.5,178.9,63,171,53,163.4c-6.2-4.7-11.8-9.4-16.1-13.5
				c0,0-0.1-0.1-0.1-0.1c-0.6-0.5-1.5-0.3-2,0.3l-34.5,45c-0.4,0.6-0.4,1.4,0.1,1.9C4.8,201.1,10.4,205.8,16.7,210.5L16.7,210.5z
				 M103.7,197.6L103.7,197.6C103.7,197.6,103.7,197.6,103.7,197.6L103.7,197.6z"/>
			<g>
				<path id="_409267496_15_" class="st5" d="M14.5,201.4c-2.1-1.7-4.2-3.4-6.2-5.1c-0.5-0.4-0.6-1.1-0.2-1.6l4.8-6.3
					C17.7,192.4,16.5,199,14.5,201.4L14.5,201.4z"/>
				<path id="_409268120_15_" class="st5" d="M31.7,164l4.9-6.3c0.4-0.5,1.2-0.6,1.7-0.2c2,1.7,4.1,3.4,6.2,5.1
					C42.7,165,36.6,167.4,31.7,164L31.7,164z"/>
				<path id="_409267040_15_" class="st5" d="M109.8,210c2,1.7,3.9,3.5,5.5,5.3c0.4,0.4,0.4,1,0.1,1.4l-4.6,6
					C108.3,221,105.8,214.7,109.8,210L109.8,210z"/>
				<path id="_409266752_15_" class="st5" d="M91.7,247.6l-4.8,6.2c-1.1,1.5-2.7-0.8-4.3-2.4c-1-0.9-2-1.8-3-2.7
					C82.8,245.4,87.9,245,91.7,247.6L91.7,247.6z"/>
			</g>
			<path id="_409266968_15_" class="st5" d="M75.5,187.1c9.9,7.6,11.8,21.8,4.2,31.7s-21.8,11.7-31.7,4.1
				c-9.9-7.6-11.8-21.8-4.2-31.7C51.4,181.4,65.6,179.6,75.5,187.1L75.5,187.1z"/>
			
				<ellipse transform="matrix(0.5381 -0.8429 0.8429 0.5381 -148.8645 179.5628)" class="st3" cx="89.4" cy="225.6" rx="5.4" ry="5.4"/>
			
				<ellipse transform="matrix(0.5381 -0.8429 0.8429 0.5381 -138.7637 113.8931)" class="st3" cx="34.5" cy="183.6" rx="5.4" ry="5.4"/>
			<g>
				<path id="_409266824_15_" class="st2" d="M68.1,196.7c4.4,3.4,1.6,10.5-0.9,8.6c-0.6-0.5-0.7-1.4-0.3-2c2.5-3.3-2.5-7.1-5-3.8
					c-3.2,4.2,6.6,6.3,1.7,12.7c-4.8,6.2-14.2-1-9.5-7.2c1.1-1.5,3.4,0.2,2.2,1.7c-2.5,3.3,2.5,7.1,5,3.8c3.2-4.2-6.6-6.3-1.7-12.7
					C61.8,195.2,65.5,194.7,68.1,196.7L68.1,196.7z"/>
				<path id="_409267328_15_" class="st2" d="M57.1,211.1c1.4,1.1-0.2,2.6-1.2,3.9c-1.1,1.5-3.4-0.2-2.2-1.7
					C54.6,212,55.6,210,57.1,211.1z"/>
				<path id="_409266872_15_" class="st2" d="M69.6,194.8c1.4,1.1-0.2,2.6-1.2,3.9c-1.1,1.5-3.4-0.2-2.2-1.7
					C67.1,195.7,68.2,193.7,69.6,194.8z"/>
			</g>
		</g>
		<g>
			<path id="_409268072_14_" class="st2" d="M317.7,198.1c-4.7,3.5-10.2,8.2-14.3,12.7c-0.5,0.5-0.5,1.3,0,2l28.8,38.4
				c1.5,2,3.3-0.8,5.3-2.7c8.9-8.5,19.7-15.8,31.2-22.1c14.3-8,30.8-19.2,43.9-30.4c0.6-0.5,0.6-1.4,0.1-2.1l-28.9-38.6
				c-0.5-0.7-1.5-0.9-2.1-0.4c-13.5,11.3-30,22.7-45,31C329.7,189.9,323.3,194,317.7,198.1L317.7,198.1z"/>
			<path id="_409267760_28_" class="st3" d="M398.2,204.7c-9.9,7.4-20.9,14.7-30.2,20.1c-6.1,3.5-12.7,7.9-18.6,12.3
				c-5.1,3.8-11.8,9.2-16,14.3L305,213.5c1.8-2.2,6.8-7.7,16.2-14.8c5.3-4,11.3-7.9,17.9-11.7c9.4-5.5,20.5-12.9,30.5-20.3
				c5.3-4,10.2-7.9,14.1-11.3l28.5,38C408.3,196.8,403.5,200.7,398.2,204.7 M400.1,207.3c6-4.5,11.4-8.8,15.6-12.7
				c0.5-0.5,0.6-1.2,0.2-1.7L385,151.8c-0.4-0.6-1.2-0.7-1.8-0.2c0,0-0.1,0.1-0.1,0.1c-4.2,3.8-9.6,8.2-15.5,12.6
				c-9.5,7.1-20.5,14.5-30.2,20.1c-6.6,3.8-12.8,7.9-18.2,11.9l0,0c-12.9,9.6-17.6,16.3-17.8,16.6c-0.3,0.5-0.3,1.1,0,1.5l30.8,41.1
				c0.4,0.6,1.3,0.7,1.8,0.2c0.1-0.1,0.2-0.2,0.3-0.3c3.1-4.4,9.5-10.1,16.9-15.7c5.8-4.4,12.3-8.6,18.3-12.1
				C379.3,222,390.4,214.5,400.1,207.3L400.1,207.3z M319.3,196.2C319.3,196.2,319.3,196.2,319.3,196.2L319.3,196.2L319.3,196.2z"/>
			<path id="_409267760_27_" class="st4" d="M401,205.7c-10.4,7.8-22,15.5-31.9,21.1c-6.5,3.7-13.4,8.3-19.6,12.9
				c-5.4,4.1-12.4,9.8-16.8,15.1L301.4,213c1.9-2.4,7.1-8.2,17.1-15.6c5.6-4.2,12-8.3,18.9-12.3c10-5.7,21.7-13.5,32.2-21.3
				c5.6-4.2,10.7-8.3,14.9-12l31.5,42C411.8,197.4,406.7,201.4,401,205.7 M403.2,208.5c6.3-4.7,12-9.3,16.4-13.4
				c0.5-0.5,0.6-1.3,0.2-1.9l-34-45.4c-0.5-0.6-1.4-0.8-2-0.3c0,0-0.1,0.1-0.1,0.1c-4.4,4-10.1,8.6-16.3,13.3
				c-10.1,7.5-21.6,15.2-31.8,21.1c-7,4-13.5,8.2-19.2,12.5l0,0c-13.5,10.1-18.5,17.3-18.7,17.6c-0.3,0.5-0.3,1.2,0.1,1.6l34,45.4
				c0.5,0.6,1.4,0.7,2,0.3c0.1-0.1,0.2-0.2,0.3-0.3c3.2-4.8,10-10.8,17.7-16.6c6.2-4.6,13-9.1,19.3-12.7
				C381.2,224,393,216.1,403.2,208.5L403.2,208.5z M316.3,194.6C316.3,194.6,316.3,194.6,316.3,194.6L316.3,194.6L316.3,194.6z"/>
			<g>
				<path id="_409267496_14_" class="st5" d="M405.5,199.4c2.2-1.7,4.2-3.4,6.3-5c0.5-0.4,0.6-1.1,0.2-1.6l-4.7-6.3
					C402.4,190.3,403.4,197,405.5,199.4L405.5,199.4z"/>
				<path id="_409268120_14_" class="st5" d="M388.7,161.8l-4.8-6.4c-0.4-0.5-1.2-0.6-1.7-0.2c-2,1.7-4.1,3.3-6.3,5
					C377.7,162.6,383.7,165.1,388.7,161.8L388.7,161.8z"/>
				<path id="_409267040_14_" class="st5" d="M310.1,207c-2,1.7-3.9,3.5-5.6,5.2c-0.4,0.4-0.4,1-0.1,1.4l4.5,6
					C311.4,217.9,314,211.7,310.1,207L310.1,207z"/>
				<path id="_409266752_14_" class="st5" d="M327.8,244.7l4.7,6.3c1.1,1.5,2.7-0.8,4.4-2.3c1-0.9,2-1.8,3-2.7
					C336.7,242.6,331.6,242.1,327.8,244.7L327.8,244.7z"/>
			</g>
			<path id="_409266968_14_" class="st5" d="M344.6,184.4c-10,7.5-12,21.7-4.6,31.6c7.5,10,21.7,12,31.6,4.5
				c10-7.5,12-21.7,4.6-31.6C368.8,179,354.6,177,344.6,184.4L344.6,184.4z"/>
			
				<ellipse transform="matrix(0.8485 -0.5292 0.5292 0.8485 -67.837 208.5377)" class="st3" cx="330.3" cy="222.7" rx="5.4" ry="5.4"/>
			
				<ellipse transform="matrix(0.8485 -0.5292 0.5292 0.8485 -37.5301 231.5551)" class="st3" cx="385.6" cy="181.3" rx="5.4" ry="5.4"/>
			<g>
				<path id="_409266824_14_" class="st2" d="M352.1,194c4.5-3.2,10.5,1.6,8,3.3c-0.6,0.4-1.5,0.3-2-0.3c-2.4-3.4-7.5,0.3-5.1,3.7
					c3.1,4.3,8-4.5,12.7,2.1c4.5,6.4-5.2,13.3-9.7,6.9c-1.1-1.5,1.2-3.1,2.3-1.6c2.4,3.4,7.5-0.3,5.1-3.7c-3.1-4.3-8,4.5-12.7-2.1
					C348.8,199.6,349.4,195.9,352.1,194L352.1,194z"/>
				<path id="_409267328_14_" class="st2" d="M362.6,208.8c1.5-1,2.4,1,3.4,2.3c1.1,1.5-1.2,3.1-2.3,1.6
					C362.8,211.4,361.2,209.8,362.6,208.8z"/>
				<path id="_409266872_14_" class="st2" d="M350.7,192c1.5-1,2.4,1,3.4,2.3c1.1,1.5-1.2,3.1-2.3,1.6
					C350.8,194.6,349.2,193.1,350.7,192z"/>
			</g>
		</g>
		<g>
			<g>
				<path class="st6" d="M293.5,5.2c-2.7-0.5-4.7-2.5-5.3-5.1c0-0.1-0.2-0.1-0.2,0c-0.5,2.6-2.6,4.7-5.3,5.1c-0.1,0-0.1,0.2,0,0.2
					c2.7,0.5,4.7,2.5,5.3,5.1c0,0.1,0.2,0.1,0.2,0c0.5-2.6,2.6-4.7,5.3-5.1C293.6,5.4,293.6,5.2,293.5,5.2z"/>
			</g>
		</g>
		<g>
			<g>
				<path class="st7" d="M226.4,22.5c-1.6,0-2.9,1.3-2.9,2.9c0,1.6,1.3,2.9,2.9,2.9s2.9-1.3,2.9-2.9C229.3,23.8,228,22.5,226.4,22.5
					z"/>
			</g>
		</g>
		<g>
			<g>
				<path class="st8" d="M128,13H126V11c0-1.4-1.2-2.7-2.7-2.7c-1.5,0-2.7,1.2-2.7,2.7V13h-1.9c-1.4,0-2.7,1.2-2.7,2.7
					s1.2,2.7,2.7,2.7h1.9v1.9c0,1.4,1.2,2.7,2.7,2.7c1.5,0,2.7-1.2,2.7-2.7v-1.9h1.9c1.4,0,2.7-1.2,2.7-2.7S129.5,13,128,13z"/>
			</g>
		</g>
		<g>
			<g>
				<path class="st9" d="M156.4,37.9c-1.6,0-2.9,1.3-2.9,2.9c0,1.6,1.3,2.9,2.9,2.9s2.9-1.3,2.9-2.9C159.3,39.1,158,37.9,156.4,37.9
					z"/>
			</g>
		</g>
		<g>
			<path id="_409268072_13_" class="st2" d="M111.4,88c3.6,4.6,7.7,10.6,10.5,15.9c0.3,0.6,0.1,1.4-0.5,1.9l-37.9,29.6
				c-2,1.6-3-1.6-4.4-4c-6.4-10.5-14.9-20.4-24.3-29.5C43,90.5,30.1,75.3,20.3,61.1c-0.4-0.6-0.2-1.5,0.4-2l38-29.7
				c0.7-0.6,1.7-0.5,2.2,0.2c10,14.4,23,29.7,35.3,41.7C102,76.9,107.1,82.5,111.4,88L111.4,88z"/>
			<path id="_409267760_26_" class="st3" d="M32,73.3c-4.1-5.3-7.8-10.3-10.6-14.5l37.5-29.3c2.9,4.4,6.5,9.4,10.7,14.6
				C77.2,54,86,64,93.7,71.7c5.3,5.4,10.1,10.7,14.2,16c7.3,9.3,10.6,15.9,11.8,18.5l-37.4,29.2c-2.8-6-7.8-12.9-11.7-18
				c-4.5-5.8-9.7-11.7-14.7-16.7C48.4,93,39.7,83.1,32,73.3 M29.5,75.3c7.4,9.5,16.2,19.6,24.1,27.6c4.8,4.9,10,10.7,14.5,16.4
				c5.7,7.3,10.4,14.4,12.2,19.5c0,0.1,0.1,0.3,0.2,0.4c0.4,0.5,1.2,0.7,1.8,0.2l40.5-31.6c0.4-0.3,0.6-0.9,0.4-1.5
				c-0.1-0.3-3-8-12.9-20.7l0,0c-4.2-5.3-9-10.8-14.4-16.3c-7.9-7.9-16.5-17.9-23.9-27.3c-4.5-5.8-8.6-11.4-11.7-16.2
				c0,0,0-0.1-0.1-0.1c-0.4-0.6-1.3-0.7-1.8-0.2L18.1,57.3c-0.5,0.4-0.6,1.2-0.3,1.7C20.9,63.8,24.9,69.5,29.5,75.3L29.5,75.3z
				 M110.4,85.7L110.4,85.7C110.4,85.7,110.4,85.7,110.4,85.7L110.4,85.7z"/>
			<path id="_409267760_25_" class="st4" d="M29,73.5c-4.4-5.6-8.2-10.8-11.1-15.3l41.3-32.3c3,4.6,6.9,9.9,11.2,15.4
				c8.1,10.3,17.4,20.9,25.5,29c5.6,5.6,10.7,11.3,15,16.8c7.7,9.8,11.1,16.8,12.4,19.6l-41.2,32.2c-2.8-6.4-8.1-13.7-12.3-19
				c-4.8-6.1-10.3-12.3-15.6-17.6C46.2,94.2,37,83.8,29,73.5 M26.2,75.7c7.8,10,17.1,20.7,25.5,29C56.9,109.8,62.3,116,67,122
				c6,7.7,10.9,15.2,12.8,20.7c0.1,0.1,0.1,0.3,0.2,0.4c0.5,0.6,1.3,0.7,2,0.2l44.7-34.9c0.5-0.4,0.7-1,0.5-1.6
				c-0.1-0.3-3-8.6-13.4-21.9l0,0c-4.4-5.6-9.5-11.4-15.3-17.1C90.1,59.5,81,49,73.2,39.1c-4.8-6.1-9-12-12.2-17.1
				c0,0,0-0.1-0.1-0.1c-0.5-0.6-1.3-0.7-2-0.2L14.2,56.7c-0.6,0.5-0.7,1.3-0.3,1.9C17.1,63.6,21.4,69.5,26.2,75.7L26.2,75.7z
				 M113.7,84.9L113.7,84.9C113.7,84.9,113.7,84.9,113.7,84.9L113.7,84.9z"/>
			<g>
				<path id="_409267496_13_" class="st5" d="M26.4,66.3c-1.6-2.2-3.2-4.4-4.7-6.5c-0.4-0.5-0.3-1.2,0.2-1.6l6.2-4.9
					C31.7,58.3,29,64.5,26.4,66.3L26.4,66.3z"/>
				<path id="_409268120_13_" class="st5" d="M52.4,34.4l6.3-4.9c0.5-0.4,1.3-0.3,1.7,0.3c1.5,2.1,3.1,4.3,4.7,6.5
					C62.8,38.1,56.3,38.9,52.4,34.4L52.4,34.4z"/>
				<path id="_409267040_13_" class="st5" d="M116.5,98.5c1.5,2.2,2.9,4.4,4,6.5c0.3,0.5,0.1,1.1-0.3,1.4l-5.9,4.6
					C112.3,108.7,111.4,102.1,116.5,98.5L116.5,98.5z"/>
				<path id="_409266752_13_" class="st5" d="M89.5,130.3l-6.2,4.8c-1.5,1.1-2.4-1.4-3.6-3.4c-0.7-1.1-1.5-2.3-2.2-3.4
					C81.5,126,86.5,126.9,89.5,130.3L89.5,130.3z"/>
			</g>
			<path id="_409266968_13_" class="st5" d="M89,67.8c7.7,9.8,6,24.1-3.8,31.7s-24,5.9-31.7-3.9c-7.7-9.8-6-24.1,3.8-31.7
				C67.1,56.2,81.3,57.9,89,67.8L89,67.8z"/>
			<ellipse transform="matrix(0.726 -0.6877 0.6877 0.726 -49.1597 93.563)" class="st3" cx="92.8" cy="108.5" rx="5.4" ry="5.4"/>
			<ellipse transform="matrix(0.7261 -0.6876 0.6876 0.7261 -23.3866 49.372)" class="st3" cx="50.3" cy="54" rx="5.4" ry="5.4"/>
			<g>
				<path id="_409266824_13_" class="st2" d="M79.5,75.2c3.4,4.4-1.1,10.5-3,8.1c-0.5-0.6-0.4-1.5,0.2-2c3.3-2.5-0.6-7.5-3.9-5
					c-4.2,3.3,4.8,7.8-1.5,12.8c-6.2,4.8-13.5-4.6-7.3-9.4c1.5-1.1,3.2,1.1,1.7,2.2c-3.3,2.5,0.6,7.5,3.9,5
					c4.2-3.3-4.8-7.8,1.5-12.8C73.7,72.2,77.5,72.6,79.5,75.2L79.5,75.2z"/>
				<path id="_409267328_13_" class="st2" d="M65.2,86.4c1.1,1.4-0.9,2.5-2.1,3.5c-1.5,1.1-3.2-1.1-1.7-2.2
					C62.6,86.6,64.1,85,65.2,86.4z"/>
				<path id="_409266872_13_" class="st2" d="M81.4,73.7c1.1,1.4-0.9,2.5-2.1,3.5c-1.5,1.1-3.2-1.1-1.7-2.2
					C78.8,74,80.3,72.3,81.4,73.7z"/>
			</g>
		</g>
		<g>
			<path id="_409268072_12_" class="st2" d="M302,89.3c-3.6,4.6-7.7,10.6-10.5,15.9c-0.3,0.6-0.1,1.4,0.5,1.9l37.9,29.6
				c2,1.6,3-1.6,4.4-4c6.4-10.5,14.9-20.4,24.3-29.5c11.7-11.4,24.7-26.6,34.5-40.8c0.4-0.6,0.2-1.5-0.4-2l-38-29.7
				c-0.7-0.6-1.7-0.5-2.2,0.2c-10,14.4-23,29.7-35.3,41.7C311.4,78.2,306.3,83.8,302,89.3L302,89.3z"/>
			<path id="_409267760_24_" class="st3" d="M381.3,74.7c-7.6,9.7-16.3,19.7-23.9,27.3c-5,5-10.2,11-14.7,16.7
				c-4,5.1-8.9,12-11.7,18l-37.4-29.2c1.2-2.6,4.5-9.2,11.8-18.5c4.1-5.2,8.9-10.6,14.2-16c7.7-7.7,16.5-17.8,24.1-27.6
				c4.1-5.3,7.8-10.3,10.7-14.6l37.5,29.3C389.1,64.4,385.5,69.4,381.3,74.7 M383.9,76.6c4.6-5.9,8.7-11.5,11.7-16.3
				c0.4-0.6,0.2-1.3-0.3-1.7L354.8,27c-0.6-0.4-1.4-0.3-1.8,0.2c0,0,0,0.1-0.1,0.1c-3.1,4.8-7.1,10.4-11.7,16.2
				c-7.3,9.4-16,19.3-23.9,27.3C312,76.2,307.1,81.7,303,87l0,0c-9.9,12.6-12.7,20.4-12.9,20.7c-0.2,0.5,0,1.1,0.4,1.5l40.5,31.6
				c0.6,0.5,1.4,0.3,1.8-0.2c0.1-0.1,0.2-0.2,0.2-0.4c1.9-5.1,6.5-12.3,12.2-19.5c4.5-5.8,9.6-11.6,14.5-16.4
				C367.6,96.3,376.4,86.1,383.9,76.6L383.9,76.6z M303,87C303,87,303,87,303,87L303,87L303,87z"/>
			<path id="_409267760_23_" class="st4" d="M384.4,74.8c-8,10.3-17.2,20.7-25.2,28.7c-5.3,5.3-10.8,11.5-15.6,17.6
				c-4.2,5.3-9.4,12.7-12.3,19L290.1,108c1.2-2.8,4.7-9.7,12.4-19.6c4.3-5.5,9.4-11.2,15-16.8c8.1-8.1,17.4-18.7,25.5-29
				c4.3-5.5,8.2-10.8,11.2-15.4l41.3,32.3C392.5,64,388.7,69.3,384.4,74.8 M387.2,77c4.8-6.2,9.1-12.1,12.3-17.2
				c0.4-0.6,0.2-1.4-0.3-1.9l-44.7-34.9c-0.6-0.5-1.5-0.4-2,0.2c0,0-0.1,0.1-0.1,0.1c-3.2,5-7.5,11-12.2,17.1
				c-7.7,9.9-16.9,20.4-25.2,28.7c-5.7,5.7-10.9,11.5-15.3,17.1l0,0c-10.4,13.3-13.3,21.5-13.4,21.9c-0.2,0.6,0,1.2,0.5,1.6
				l44.7,34.9c0.6,0.5,1.5,0.4,2-0.2c0.1-0.1,0.2-0.2,0.2-0.4c1.9-5.4,6.8-13,12.8-20.7c4.7-6.1,10.2-12.2,15.3-17.3
				C370,97.7,379.3,87,387.2,77L387.2,77z M299.7,86.2C299.7,86.2,299.7,86.2,299.7,86.2L299.7,86.2L299.7,86.2z"/>
			<g>
				<path id="_409267496_12_" class="st5" d="M387,67.6c1.6-2.2,3.2-4.4,4.7-6.5c0.4-0.5,0.3-1.2-0.2-1.6l-6.2-4.9
					C381.7,59.7,384.4,65.8,387,67.6L387,67.6z"/>
				<path id="_409268120_12_" class="st5" d="M361,35.7l-6.3-4.9c-0.5-0.4-1.3-0.3-1.7,0.3c-1.5,2.1-3.1,4.3-4.7,6.5
					C350.6,39.4,357.1,40.2,361,35.7L361,35.7z"/>
				<path id="_409267040_12_" class="st5" d="M296.9,99.8c-1.5,2.2-2.9,4.4-4,6.5c-0.3,0.5-0.1,1.1,0.3,1.4l5.9,4.6
					C301,110.1,302,103.4,296.9,99.8L296.9,99.8z"/>
				<path id="_409266752_12_" class="st5" d="M323.8,131.7l6.2,4.8c1.5,1.1,2.4-1.4,3.6-3.4c0.7-1.1,1.5-2.3,2.2-3.4
					C331.9,127.3,326.8,128.2,323.8,131.7L323.8,131.7z"/>
			</g>
			<path id="_409266968_12_" class="st5" d="M324.4,69.1c-7.7,9.8-6,24.1,3.8,31.7c9.8,7.7,24,5.9,31.7-3.9c7.7-9.8,6-24.1-3.8-31.7
				C346.3,57.5,332,59.2,324.4,69.1L324.4,69.1z"/>
			
				<ellipse transform="matrix(0.6877 -0.726 0.726 0.6877 20.4084 267.0096)" class="st3" cx="320.5" cy="109.8" rx="5.4" ry="5.4"/>
			
				<ellipse transform="matrix(0.6876 -0.7261 0.7261 0.6876 73.2378 280.9227)" class="st3" cx="363.1" cy="55.3" rx="5.4" ry="5.4"/>
			<g>
				<path id="_409266824_12_" class="st2" d="M334.1,76.3c3.5-4.3,10.5-1.2,8.6,1.1c-0.5,0.6-1.4,0.7-2,0.2c-3.2-2.6-7.2,2.2-4,4.9
					c4.1,3.4,6.5-6.4,12.8-1.3c6,5-1.5,14.2-7.6,9.2c-1.4-1.2,0.4-3.3,1.8-2.2c3.2,2.6,7.2-2.2,4-4.9c-4.1-3.4-6.5,6.4-12.8,1.3
					C332.3,82.6,332,78.9,334.1,76.3L334.1,76.3z"/>
				<path id="_409267328_12_" class="st2" d="M348.1,87.8c1.1-1.4,2.6,0.3,3.8,1.3c1.4,1.2-0.4,3.3-1.8,2.2
					C348.9,90.3,346.9,89.2,348.1,87.8z"/>
				<path id="_409266872_12_" class="st2" d="M332.2,74.8c1.1-1.4,2.6,0.3,3.8,1.3c1.4,1.2-0.4,3.3-1.8,2.2
					C333,77.3,331.1,76.2,332.2,74.8z"/>
			</g>
		</g>
	</g>
	<g id="fildoutline">
		<g id="_29-Flask_copy_4">
			<path class="st10" d="M331.2,186.3v177.1c0,10.3-8.3,18.6-18.6,18.6c0,0,0,0,0,0H107.4c-10.3,0-18.6-8.3-18.6-18.6c0,0,0,0,0,0
				V186.3c0-10.3,8.3-18.6,18.6-18.6c0,0,0,0,0,0h49.8c-2.1,6-3.2,12.3-3.2,18.6c0,30.9,25,55.9,55.9,55.9s55.9-25,55.9-55.9
				c0-6.4-1.1-12.7-3.2-18.6h49.8C322.9,167.6,331.2,176,331.2,186.3C331.2,186.3,331.2,186.3,331.2,186.3z"/>
			<path class="st11" d="M321.9,377.3H116.8c-10.3,0-18.6-8.3-18.6-18.6V181.6c0-5.2,2.2-10.1,6-13.6c-8.9,1.6-15.3,9.3-15.4,18.3
				v177.1c0,10.3,8.3,18.6,18.6,18.6h205.1c4.7,0,9.2-1.8,12.6-5C324.1,377.2,323,377.3,321.9,377.3z"/>
			<path class="st12" d="M312.6,195.6V354c0,5.1-4.2,9.3-9.3,9.3H116.8c-5.1,0-9.3-4.2-9.3-9.3V195.6c0-5.1,4.2-9.3,9.3-9.3h37.3
				c0,30.9,25,55.9,55.9,55.9s55.9-25,55.9-55.9h37.3C308.4,186.3,312.6,190.5,312.6,195.6z"/>
			<path class="st13" d="M126.1,344.7V186.3h-9.3c-5.1,0-9.3,4.2-9.3,9.3V354c0,5.1,4.2,9.3,9.3,9.3h186.5c5.1,0,9.3-4.2,9.3-9.3
				H135.4C130.3,354,126.1,349.9,126.1,344.7z"/>
			<ellipse class="st14" cx="210" cy="186.3" rx="55.9" ry="55.9"/>
			<path class="st15" d="M163.4,186.3c0-29.1,22.3-53.3,51.3-55.7c-1.5-0.1-3.1-0.2-4.7-0.2c-30.9,0-55.9,25-55.9,55.9
				c0,30.9,25,55.9,55.9,55.9c1.6,0,3.1-0.1,4.7-0.2C185.7,239.6,163.4,215.3,163.4,186.3z"/>
			<ellipse class="st15" cx="210" cy="186.3" rx="37.3" ry="37.3"/>
			<path class="st16" d="M182,186.3c0-18.8,14-34.6,32.6-37c-20.4-2.7-39.2,11.7-41.9,32.1s11.7,39.1,32.1,41.8
				c3.2,0.4,6.5,0.4,9.8,0C196,220.9,182,205.1,182,186.3z"/>
			<path class="st17" d="M121.4,382h37.3l0,0v9.3c0,5.1-4.2,9.3-9.3,9.3h-18.6c-5.1,0-9.3-4.2-9.3-9.3V382L121.4,382z"/>
			<path class="st17" d="M261.3,382h37.3l0,0v9.3c0,5.1-4.2,9.3-9.3,9.3h-18.6c-5.1,0-9.3-4.2-9.3-9.3V382L261.3,382z"/>
			<rect x="158.7" y="256.2" class="st18" width="102.6" height="28"/>
			<path class="st4" d="M191.4,177c0.3-7.6,6.4-13.7,14-14c0-2.6,2.1-4.7,4.7-4.7s4.7,2.1,4.7,4.7h4.7c2.6,0,4.7,2.1,4.7,4.7
				c0,2.6-2.1,4.7-4.7,4.7h-14c-2.4,0.3-4.4,2.2-4.7,4.7c0.3,2.4,2.2,4.4,4.7,4.7h9.3c7.6,0.3,13.7,6.4,14,14
				c-0.3,7.6-6.4,13.7-14,14c0,2.6-2.1,4.7-4.7,4.7s-4.7-2.1-4.7-4.7h-4.7c-2.6,0-4.7-2.1-4.7-4.7c0-2.6,2.1-4.7,4.7-4.7h14
				c2.4-0.3,4.4-2.2,4.7-4.7c-0.3-2.4-2.2-4.4-4.7-4.7h-9.3C197.7,190.7,191.6,184.6,191.4,177z M168,186.3
				c0-23.2,18.8-41.9,42-41.9s42,18.8,42,41.9s-18.8,41.9-42,41.9C186.8,228.2,168.1,209.4,168,186.3z M177.4,186.3
				c0,18,14.6,32.6,32.6,32.6s32.6-14.6,32.6-32.6S228,153.7,210,153.7C192,153.7,177.4,168.3,177.4,186.3z M335.9,186.3v177.1
				c0,12.9-10.4,23.3-23.3,23.3h-9.3v4.7c0,7.7-6.3,14-14,14h-18.6c-7.7,0-14-6.3-14-14v-4.7h-93.2v4.7c0,7.7-6.3,14-14,14h-18.6
				c-7.7,0-14-6.3-14-14v-4.7h-9.3c-12.9,0-23.3-10.4-23.3-23.3V186.3c0-12.9,10.4-23.3,23.3-23.3h46.6
				c12.9-30.9,48.3-45.5,79.2-32.6c14.8,6.1,26.5,17.9,32.6,32.6h46.6C325.4,163,335.9,173.4,335.9,186.3z M270.4,190.9
				c-2.5,33.3-31.6,58.3-65,55.7c-29.8-2.3-53.5-25.9-55.8-55.7h-32.9c-2.6,0-4.7,2.1-4.7,4.7V354c0,2.6,2.1,4.7,4.7,4.7h186.5
				c2.6,0,4.7-2.1,4.7-4.7V195.6c0-2.6-2.1-4.7-4.7-4.7H270.4z M158.7,186.3c0,28.3,23,51.3,51.3,51.3s51.3-22.9,51.3-51.3
				S238.3,135,210,135C181.7,135.1,158.7,158,158.7,186.3z M154.1,386.6h-28v4.7c0,2.6,2.1,4.7,4.7,4.7h18.6c2.6,0,4.7-2.1,4.7-4.7
				V386.6z M293.9,386.6h-28v4.7c0,2.6,2.1,4.7,4.7,4.7h18.6c2.6,0,4.7-2.1,4.7-4.7V386.6z M326.6,186.3c0-7.7-6.3-14-14-14h-43.7
				c0.7,3.1,1.2,6.2,1.5,9.3h32.9c7.7,0,14,6.3,14,14V354c0,7.7-6.3,14-14,14H116.8c-7.7,0-14-6.3-14-14V195.6c0-7.7,6.3-14,14-14
				h32.9c0.2-3.1,0.7-6.3,1.5-9.3h-43.7c-7.7,0-14,6.3-14,14v177.1c0,7.7,6.3,14,14,14h205.1c7.7,0,14-6.3,14-14V186.3z
				 M200.7,316.8h-9.3c-2.6,0-4.7,2.1-4.7,4.7s2.1,4.7,4.7,4.7h9.3c2.6,0,4.7-2.1,4.7-4.7S203.3,316.8,200.7,316.8z M228.6,316.8
				h-9.3c-2.6,0-4.7,2.1-4.7,4.7s2.1,4.7,4.7,4.7h9.3c2.6,0,4.7-2.1,4.7-4.7S231.2,316.8,228.6,316.8z M256.6,316.8h-9.3
				c-2.6,0-4.7,2.1-4.7,4.7s2.1,4.7,4.7,4.7h9.3c2.6,0,4.7-2.1,4.7-4.7S259.2,316.8,256.6,316.8z M200.7,335.4h-9.3
				c-2.6,0-4.7,2.1-4.7,4.7c0,2.6,2.1,4.7,4.7,4.7h9.3c2.6,0,4.7-2.1,4.7-4.7C205.3,337.5,203.3,335.4,200.7,335.4z M228.6,335.4
				h-9.3c-2.6,0-4.7,2.1-4.7,4.7c0,2.6,2.1,4.7,4.7,4.7h9.3c2.6,0,4.7-2.1,4.7-4.7C233.3,337.5,231.2,335.4,228.6,335.4z
				 M256.6,335.4h-9.3c-2.6,0-4.7,2.1-4.7,4.7c0,2.6,2.1,4.7,4.7,4.7h9.3c2.6,0,4.7-2.1,4.7-4.7
				C261.3,337.5,259.2,335.4,256.6,335.4z M200.7,298.1h-9.3c-2.6,0-4.7,2.1-4.7,4.7c0,2.6,2.1,4.7,4.7,4.7h9.3
				c2.6,0,4.7-2.1,4.7-4.7C205.3,300.2,203.3,298.1,200.7,298.1z M172.7,316.8h-9.3c-2.6,0-4.7,2.1-4.7,4.7s2.1,4.7,4.7,4.7h9.3
				c2.6,0,4.7-2.1,4.7-4.7S175.3,316.8,172.7,316.8z M172.7,335.4h-9.3c-2.6,0-4.7,2.1-4.7,4.7c0,2.6,2.1,4.7,4.7,4.7h9.3
				c2.6,0,4.7-2.1,4.7-4.7C177.4,337.5,175.3,335.4,172.7,335.4z M172.7,298.1h-9.3c-2.6,0-4.7,2.1-4.7,4.7c0,2.6,2.1,4.7,4.7,4.7
				h9.3c2.6,0,4.7-2.1,4.7-4.7C177.4,300.2,175.3,298.1,172.7,298.1z M228.6,298.1h-9.3c-2.6,0-4.7,2.1-4.7,4.7
				c0,2.6,2.1,4.7,4.7,4.7h9.3c2.6,0,4.7-2.1,4.7-4.7C233.3,300.2,231.2,298.1,228.6,298.1z M256.6,298.1h-9.3
				c-2.6,0-4.7,2.1-4.7,4.7c0,2.6,2.1,4.7,4.7,4.7h9.3c2.6,0,4.7-2.1,4.7-4.7C261.3,300.2,259.2,298.1,256.6,298.1z M158.7,256.2
				h102.6c2.6,0,4.7,2.1,4.7,4.7v23.3c0,2.6-2.1,4.7-4.7,4.7H158.7c-2.6,0-4.7-2.1-4.7-4.7v-23.3
				C154.1,258.3,156.1,256.2,158.7,256.2z M163.4,279.5h93.2v-14h-93.2V279.5z"/>
		</g>
	</g>
</g>
</svg>
