<?xml version="1.0" encoding="utf-8"?>
<!-- Generator: Adobe Illustrator 25.0.0, SVG Export Plug-In . SVG Version: 6.00 Build 0)  -->
<svg version="1.1" id="Layer_1" xmlns="http://www.w3.org/2000/svg" xmlns:xlink="http://www.w3.org/1999/xlink" x="0px" y="0px"
	 viewBox="0 0 130 535.6" style="enable-background:new 0 0 130 535.6;" xml:space="preserve">
<style type="text/css">
	.st0{fill:#4AA5FF;}
	.st1{fill:#E6F3FF;}
	.st2{fill:#35414D;}
	.st3{fill:#EF6D7A;}
	.st4{fill:#FFFFFF;}
	.st5{fill:#FEC200;}
	.st6{fill:#009AFF;}
	.st7{fill:#AAB2BD;}
	.st8{fill:#F9CF58;}
	.st9{opacity:0.1;}
	.st10{fill:#E5D3B3;}
	.st11{fill-rule:evenodd;clip-rule:evenodd;fill:#F17171;}
	.st12{fill-rule:evenodd;clip-rule:evenodd;fill:#85CFF5;}
	.st13{fill-rule:evenodd;clip-rule:evenodd;fill:#C9EBFA;}
	.st14{fill-rule:evenodd;clip-rule:evenodd;fill:#FEE97E;}
	.st15{fill-rule:evenodd;clip-rule:evenodd;fill:#76D6B2;}
	.st16{fill-rule:evenodd;clip-rule:evenodd;fill:#FFFFFF;}
</style>
<g>
	<g>
		<path class="st0" d="M84.9,103.4L5.2,71.9c-2.8-1.1-4.1-4.2-3-6.9L25.8,5.2c1.1-2.8,4.2-4.1,6.9-3l79.7,31.5
			c2.8,1.1,4.1,4.2,3,6.9l-23.6,59.8C90.8,103.1,87.6,104.5,84.9,103.4z"/>
		<path class="st1" d="M28.8,12.1l79.7,31.5c2.8,1.1,4.1,4.2,3,6.9l-19.7,49.8c-1.1,2.8-4.2,4.1-6.9,3L5.2,71.9
			c-2.8-1.1-4.1-4.2-3-6.9l19.7-49.8C22.9,12.4,26,11,28.8,12.1z"/>
		<g>
			<path class="st0" d="M89.4,54.7c0.2,8.1-4.1,15.6-11.1,19.5c7,0.8,14.1-1.4,19.4-6c4.5-4.1,7.3-9.7,7.9-15.7
				C100.2,53.2,94.8,53.9,89.4,54.7L89.4,54.7z"/>
			<path class="st0" d="M80.5,34.1c-5.7-5.7-14.2-7.7-21.8-5.2c4.2-5.7,10.6-9.4,17.6-10.1c6-0.5,12,1.3,16.8,4.9
				C88.9,27.1,84.7,30.6,80.5,34.1L80.5,34.1z"/>
			<path class="st0" d="M64,68c-13.1,5.7-26.3-2.2-26.3-2.2S41,50.7,54.1,45c6.3-2.7,13.7,0.2,16.4,6.5C73.3,57.9,70.4,65.2,64,68
				L64,68L64,68z"/>
		</g>
		<ellipse transform="matrix(0.9174 -0.3981 0.3981 0.9174 -16.3527 29.9501)" class="st1" cx="64" cy="54.4" rx="7.1" ry="5.4"/>
		<path class="st1" d="M83.3,57.3l-8.9-20.6c5-8.2,12.8-14.2,22-16.9c6.2-1.7,12.8-1.7,19-0.1c4.6,1.2,8.9,3.2,12.8,5.8
			c-0.7,4.7-2.2,9.2-4.5,13.4c-3.1,5.7-7.6,10.5-13.1,13.8C102.4,57.7,92.6,59.3,83.3,57.3L83.3,57.3z"/>
		<circle class="st0" cx="104.9" cy="35.7" r="10.7"/>
		<path class="st2" d="M108.9,59c-0.7-0.7-1.8-0.7-2.5,0c-0.2,0.2-0.3,0.4-0.4,0.6L90.2,99.7c-0.7,1.8-2.8,2.7-4.6,2L5.8,70.3
			c-1.8-0.7-2.7-2.8-2-4.6l19.7-49.8c0.7-1.8,2.8-2.7,4.6-2l27.7,10.9c0.9,0.4,2-0.1,2.3-1c0.3-0.9-0.1-1.9-1-2.3L29.4,10.5
			c-1.2-0.5-2.4-0.6-3.7-0.4l1.7-4.2c0.7-1.8,2.8-2.7,4.6-2l34.2,13.5c0.9,0.4,2-0.1,2.3-1c0.3-0.9-0.1-1.9-1-2.3L33.4,0.5
			c-3.7-1.4-7.8,0.4-9.3,4L0.5,64.3c-1.4,3.7,0.4,7.8,4,9.3l79.7,31.5c3.7,1.4,7.8-0.4,9.3-4L109.3,61
			C109.6,60.3,109.4,59.5,108.9,59z"/>
		<path class="st2" d="M21.1,72c0.4,0.9,1.5,1.3,2.4,0.8c4.1-2,9.1-0.7,11.7,3c0.6,0.8,1.7,1,2.5,0.4c0,0,0,0,0,0
			c2.3-1.8-1.4-5.2-4.8-6.8c1.2-4.9-1.6-8.9-5.6-11c3.8-3,4.5-8.5,1.6-12.4c-1.2-1.5-2.9-2.7-4.8-3.1c-1-0.3-1.9,0.3-2.2,1.3
			c-0.3,0.9,0.3,1.9,1.3,2.2c2.8,0.7,4.6,3.6,3.9,6.4c-0.4,1.8-1.8,3.3-3.6,3.8c-0.2,0.1-0.5,0.2-0.6,0.4
			c-7.5-1.4-13.3,4.6-14.2,6.4c-0.5,0.8-0.3,1.9,0.6,2.5c0.8,0.5,1.9,0.3,2.4-0.5c1.9-2.8,5-4.6,8.5-4.9c4.7-0.2,10.6,2.9,9.3,8
			C25.2,67.9,19.9,69.3,21.1,72L21.1,72z"/>
		<path class="st2" d="M129.2,24.1c-10.4-7.4-26.2-10-38.5-4.1c-13.2-7.4-27.7-0.8-33.5,7.7c-0.6,0.8-0.4,1.9,0.4,2.5
			c0.5,0.3,1,0.4,1.6,0.3c3.8-1.6,11.2-1.2,16,1.6c-0.9,1.6-3.2,3.4-2.6,5.3l1.1,2.5c-3.1,0.7-5,3.7-4.3,6.8c0,0,0,0,0,0
			c-4.1-4.4-10.5-5.7-16.1-3.3c-13.8,6-17.2,21.3-17.4,22c-0.2,0.7,0.2,1.5,0.8,1.9c10.3,6.7,37.3,8.2,36.4-12.4
			c1.9,2.2,4.8,2,7.3,0.7l1.1,2.5c0.2,0.4,0.5,0.8,1,1c1.5,0.3,3.1,0.6,4.6,0.7c-1.2,5.5-6,11.2-9.7,12.9c-0.9,0.5-1.2,1.6-0.7,2.5
			c0.2,0.3,0.5,0.6,0.9,0.8c13.1,1.9,25.5-6.2,29-19c12.4-4.5,22.2-19.4,23.3-31C130.1,25.2,129.8,24.5,129.2,24.1L129.2,24.1z
			 M63.7,26.1c6.3-5.6,15.3-7.1,23.1-4c-3.4,2-6.5,4.5-9.3,7.4C73.4,26.9,68.5,25.8,63.7,26.1L63.7,26.1z M63.3,66.3
			c-9.9,4.3-20.1,0.2-23.5-1.5c1.1-3.6,5-13.9,14.9-18.2C68,41.5,76.1,60.2,63.3,66.3L63.3,66.3z M83.7,72.4c3.6-3.3,6-7.7,7-12.5
			c4,0.1,7.9-0.5,11.7-1.6C99.3,66.1,92.1,71.6,83.7,72.4L83.7,72.4z M89.6,56.4c-1.7-0.1-3.4-0.3-5.1-0.6l-8.2-18.9
			c10.5-16.6,32.4-21.6,49-11.1c0.3,0.2,0.6,0.4,1,0.6C123.4,44.3,107.6,57.2,89.6,56.4L89.6,56.4z"/>
		<circle class="st1" cx="32.4" cy="7.8" r="1.8"/>
		<circle class="st1" cx="37.4" cy="9.8" r="1.8"/>
		<circle class="st1" cx="42.4" cy="11.7" r="1.8"/>
	</g>
	<g>
		<g>
			<g>
				<path class="st3" d="M94.5,198.1c-1.3-3.2-5-4.7-8.2-3.4L5.1,228.6c-3.2,1.3-4.7,5-3.4,8.2l4.8,11.6l92.8-38.6L94.5,198.1z"/>
			</g>
			<g>
				<path class="st4" d="M6.5,248.4l29,69.6c1.3,3.2,5,4.7,8.2,3.4l81.2-33.8c3.2-1.3,4.7-5,3.4-8.2l-29-69.6L6.5,248.4z"/>
			</g>
			<g>
				<circle class="st5" cx="11.6" cy="236.1" r="3.1"/>
			</g>
			<g>
				<circle class="st4" cx="22.7" cy="231.5" r="3.1"/>
			</g>
			<g>
				<circle class="st5" cx="33.8" cy="226.8" r="3.1"/>
			</g>
			<g>
				<path class="st6" d="M17.7,250.5c-1.6,0.7-2.4,2.6-1.7,4.2l24.1,57.8c0.7,1.6,2.6,2.4,4.2,1.7l17.8-7.4l-26.6-63.8L17.7,250.5z"
					/>
			</g>
			<g>
				<path class="st7" d="M93,219.2l-57.4,23.9l26.6,63.8l57.4-23.9c1.6-0.7,2.4-2.6,1.7-4.2L97.2,221
					C96.5,219.3,94.6,218.5,93,219.2L93,219.2z"/>
			</g>
			<g>
				<path class="st8" d="M45.2,245.9l45.8-19.1c0.8-0.3,1.8,0.1,2.1,0.9l7.6,18.3c0.3,0.8-0.1,1.8-0.9,2.1l-45.8,19.1
					c-0.8,0.3-1.8-0.1-2.1-0.9L44.4,248C44,247.2,44.4,246.2,45.2,245.9L45.2,245.9z"/>
			</g>
			<g class="st9">
				<path d="M71.9,254.3c-9.2,3.8-19.7-0.5-23.5-9.7l-3.1,1.3c-0.8,0.3-1.2,1.3-0.9,2.1l7.6,18.3c0.3,0.8,1.3,1.2,2.1,0.9l45.8-19.1
					c0.8-0.3,1.2-1.3,0.9-2.1l-1.3-3.1L71.9,254.3z"/>
			</g>
			<g>
				<path class="st10" d="M107.2,265.5l-18.5,7.7c-0.8,0.3-1.2,1.3-0.9,2.1l4.4,10.5c0.3,0.8,1.3,1.2,2.1,0.9l18.5-7.7
					c0.8-0.3,1.2-1.3,0.9-2.1l-4.4-10.5C108.9,265.5,108,265.1,107.2,265.5z"/>
			</g>
			<g class="st9">
				<path d="M105.2,279.1c-6,2.5-12.9-0.3-15.4-6.3l-1.2,0.5c-0.8,0.3-1.2,1.3-0.9,2.1l4.4,10.5c0.3,0.8,1.3,1.2,2.1,0.9l18.5-7.7
					c0.8-0.3,1.2-1.3,0.9-2.1l-0.5-1.2L105.2,279.1z"/>
			</g>
			<g>
				<path class="st10" d="M60.5,286.7l4.4,10.5c0.3,0.8,1.3,1.2,2.1,0.9l18.5-7.7c0.8-0.3,1.2-1.3,0.9-2.1L82,277.7
					c-0.3-0.8-1.3-1.2-2.1-0.9l-18.5,7.7C60.5,284.9,60.1,285.9,60.5,286.7L60.5,286.7z"/>
			</g>
			<g class="st9">
				<path d="M24.7,232.4c-1.6,0.7-3.4-0.1-4.1-1.7c-0.2-0.4-0.3-0.9-0.2-1.3c-0.8,0.9-1.1,2.1-0.6,3.3c0.7,1.6,2.5,2.4,4.1,1.7
					c1.2-0.5,1.9-1.6,1.9-2.8C25.5,231.9,25.2,232.2,24.7,232.4z"/>
			</g>
			<g class="st9">
				<path d="M35.8,227.8c-1.6,0.7-3.4-0.1-4.1-1.7c-0.2-0.4-0.3-0.9-0.2-1.3c-0.8,0.9-1.1,2.1-0.6,3.3c0.7,1.6,2.5,2.4,4.1,1.7
					c1.2-0.5,1.9-1.6,1.9-2.8C36.6,227.3,36.3,227.6,35.8,227.8z"/>
			</g>
			<g class="st9">
				<path d="M20.8,237.3c-6.4,2.7-13.8-0.4-16.5-6.8c-0.2-0.4-0.3-0.9-0.4-1.3c-2.4,1.7-3.4,4.8-2.3,7.6l4.8,11.6l92.8-38.6
					l-1.8-4.4L20.8,237.3z"/>
			</g>
			<g class="st9">
				<path d="M109.1,282.4c-36.1,15-77.6-2-92.6-38.2l-10,4.2l29,69.6c1.3,3.2,5,4.7,8.2,3.4l81.2-33.8c3.2-1.3,4.7-5,3.4-8.2
					l-1.7-4.2L109.1,282.4z"/>
			</g>
		</g>
		<g>
			<g>
				<path class="st2" d="M99.8,210.9L7,249.5c-0.6,0.3-1.3,0-1.6-0.7l-4.8-11.6c-1.6-3.8,0.2-8.2,4-9.8l81.2-33.8
					c3.8-1.6,8.2,0.2,9.8,4l4.8,11.6C100.7,209.9,100.4,210.6,99.8,210.9z M7.2,246.8l90.6-37.7l-4.4-10.5c-1.1-2.6-4-3.8-6.6-2.7
					L5.6,229.7c-2.6,1.1-3.8,4-2.7,6.6L7.2,246.8z"/>
			</g>
			<g>
				<path class="st2" d="M125.4,288.7l-81.2,33.8c-3.8,1.6-8.2-0.2-9.8-4l-29-69.6c-0.3-0.6,0-1.3,0.7-1.6l92.8-38.6
					c0.6-0.3,1.3,0,1.6,0.7l29,69.6C131,282.7,129.2,287.1,125.4,288.7z M8.1,249.1l28.5,68.5c1.1,2.6,4,3.8,6.6,2.7l81.2-33.8
					c2.6-1.1,3.8-4,2.7-6.6l-28.5-68.5L8.1,249.1z"/>
			</g>
			<g>
				<g>
					<path class="st2" d="M13.3,240.1c-2.2,0.9-4.8-0.1-5.7-2.3c-0.9-2.2,0.1-4.8,2.3-5.7c2.2-0.9,4.8,0.1,5.7,2.3
						C16.5,236.6,15.5,239.2,13.3,240.1z M10.9,234.3c-1,0.4-1.5,1.5-1,2.5c0.4,1,1.5,1.4,2.5,1s1.5-1.5,1-2.5
						C13,234.4,11.8,233.9,10.9,234.3z"/>
				</g>
				<g>
					<path class="st2" d="M24.4,235.5c-2.2,0.9-4.8-0.1-5.7-2.3c-0.9-2.2,0.1-4.8,2.3-5.7s4.8,0.1,5.7,2.3
						C27.7,232,26.6,234.6,24.4,235.5z M22,229.7c-1,0.4-1.5,1.5-1,2.5c0.4,1,1.5,1.4,2.5,1c1-0.4,1.5-1.5,1-2.5
						C24.1,229.7,22.9,229.3,22,229.7z"/>
				</g>
				<g>
					<path class="st2" d="M35.5,230.9c-2.2,0.9-4.8-0.1-5.7-2.3c-0.9-2.2,0.1-4.8,2.3-5.7c2.2-0.9,4.8,0.1,5.7,2.3
						C38.7,227.4,37.7,229.9,35.5,230.9z M33.1,225.1c-1,0.4-1.5,1.5-1,2.5s1.5,1.4,2.5,1c1-0.4,1.5-1.5,1-2.5
						C35.2,225.1,34,224.7,33.1,225.1z"/>
				</g>
			</g>
			<g>
				<path class="st2" d="M62.5,308.1l-20.8,8.6c-0.6,0.3-1.3,0-1.6-0.7l-26.6-63.8c-0.3-0.6,0-1.3,0.7-1.6l20.8-8.7
					c0.6-0.3,1.3,0,1.6,0.7l26.6,63.8C63.5,307.1,63.2,307.8,62.5,308.1z M42,314l18.5-7.7l-25.6-61.5l-18.5,7.7L42,314z"/>
			</g>
			<g>
				<path class="st2" d="M123,282.9l-60.4,25.2c-0.6,0.3-1.3,0-1.6-0.7l-26.6-63.8c-0.3-0.6,0-1.3,0.7-1.6l60.4-25.2
					c0.6-0.3,1.3,0,1.6,0.7l26.6,63.8C123.9,281.9,123.6,282.6,123,282.9L123,282.9z M62.7,305.3l58.2-24.2l-25.6-61.5l-58.2,24.2
					L62.7,305.3z"/>
			</g>
			<g>
				<path class="st2" d="M101.9,248.6l-48.8,20.3c-0.6,0.3-1.3,0-1.6-0.7L42.6,247c-0.3-0.6,0-1.3,0.7-1.6l48.8-20.3
					c0.6-0.3,1.3,0,1.6,0.7l8.9,21.3C102.8,247.6,102.5,248.3,101.9,248.6z M53.2,266.2l46.6-19.4l-7.9-19l-46.6,19.4L53.2,266.2z"
					/>
			</g>
			<g>
				<path class="st2" d="M114.8,279.5l-21.5,9c-0.6,0.3-1.3,0-1.6-0.7L86,274.3c-0.3-0.6,0-1.3,0.7-1.6l21.5-9
					c0.6-0.3,1.3,0,1.6,0.7l5.6,13.5C115.7,278.5,115.4,279.2,114.8,279.5L114.8,279.5z M93.4,285.7l19.3-8l-4.7-11.3l-19.3,8
					L93.4,285.7z"/>
			</g>
			<g>
				<path class="st2" d="M87.4,290.9l-21.5,9c-0.6,0.3-1.3,0-1.6-0.7l-5.6-13.5c-0.3-0.6,0-1.3,0.7-1.6l21.5-9
					c0.6-0.3,1.3,0,1.6,0.7l5.6,13.5C88.4,289.9,88.1,290.6,87.4,290.9z M66.1,297.1l19.3-8l-4.7-11.3l-19.3,8L66.1,297.1z"/>
			</g>
			<g>
				<g>
					<path class="st2" d="M77,265.7l-21.5,9c-0.6,0.3-1.3,0-1.6-0.7s0-1.3,0.7-1.6l21.5-9c0.6-0.3,1.3,0,1.6,0.7
						S77.6,265.5,77,265.7z"/>
				</g>
				<g>
					<path class="st2" d="M70.7,275.2l-12.8,5.3c-0.6,0.3-1.3,0-1.6-0.7s0-1.3,0.7-1.6l12.8-5.3c0.6-0.3,1.3,0,1.6,0.7
						S71.3,274.9,70.7,275.2z"/>
				</g>
			</g>
			<g>
				<g>
					<path class="st2" d="M104.3,254.4l-21.5,9c-0.6,0.3-1.3,0-1.6-0.7s0-1.3,0.7-1.6l21.5-9c0.6-0.3,1.3,0,1.6,0.7
						S104.9,254.1,104.3,254.4z"/>
				</g>
				<g>
					<path class="st2" d="M98,263.8l-12.8,5.3c-0.6,0.3-1.3,0-1.6-0.7s0-1.3,0.7-1.6l12.8-5.3c0.6-0.3,1.3,0,1.6,0.7
						S98.6,263.5,98,263.8z"/>
				</g>
			</g>
			<g>
				<path class="st2" d="M32.6,252.5l-9.2,3.8c-0.6,0.3-1.3,0-1.6-0.7c-0.3-0.6,0-1.3,0.7-1.6l9.2-3.8c0.6-0.3,1.3,0,1.6,0.7
					S33.2,252.2,32.6,252.5z"/>
			</g>
			<g>
				<path class="st2" d="M35.7,259.9l-9.2,3.8c-0.6,0.3-1.3,0-1.6-0.7c-0.3-0.6,0-1.3,0.7-1.6l9.2-3.8c0.6-0.3,1.3,0,1.6,0.7
					C36.6,259,36.3,259.7,35.7,259.9z"/>
			</g>
			<g>
				<path class="st2" d="M38.8,267.4l-9.2,3.8c-0.6,0.3-1.3,0-1.6-0.7s0-1.3,0.7-1.6l9.2-3.8c0.6-0.3,1.3,0,1.6,0.7
					S39.4,267.1,38.8,267.4z"/>
			</g>
			<g>
				<path class="st2" d="M41.9,274.9l-9.2,3.8c-0.6,0.3-1.3,0-1.6-0.7s0-1.3,0.7-1.6l9.2-3.8c0.6-0.3,1.3,0,1.6,0.7
					C42.8,273.9,42.5,274.6,41.9,274.9z"/>
			</g>
			<g>
				<path class="st2" d="M45,282.3l-9.2,3.8c-0.6,0.3-1.3,0-1.6-0.7s0-1.3,0.7-1.6l9.2-3.8c0.6-0.3,1.3,0,1.6,0.7
					S45.6,282.1,45,282.3z"/>
			</g>
			<g>
				<path class="st2" d="M48.1,289.8l-9.2,3.8c-0.6,0.3-1.3,0-1.6-0.7s0-1.3,0.7-1.6l9.2-3.8c0.6-0.3,1.3,0,1.6,0.7
					S48.7,289.5,48.1,289.8z"/>
			</g>
			<g>
				<path class="st2" d="M51.2,297.2l-9.2,3.8c-0.6,0.3-1.3,0-1.6-0.7s0-1.3,0.7-1.6l9.2-3.8c0.6-0.3,1.3,0,1.6,0.7
					S51.8,297,51.2,297.2z"/>
			</g>
			<g>
				<path class="st2" d="M54.3,304.7l-9.2,3.8c-0.6,0.3-1.3,0-1.6-0.7c-0.3-0.6,0-1.3,0.7-1.6l9.2-3.8c0.6-0.3,1.3,0,1.6,0.7
					C55.2,303.7,54.9,304.4,54.3,304.7z"/>
			</g>
		</g>
	</g>
	<g id="Layer_35_3_">
		<g>
			<g>
				<path class="st11" d="M74.9,499.3l16.4,7.8l-4.2,8.7L70.8,508L74.9,499.3z"/>
			</g>
			<g>
				<path class="st11" d="M48.4,486.7l16.4,7.8l-4.2,8.7l-16.4-7.8L48.4,486.7z"/>
			</g>
			<g>
				<path class="st11" d="M22,474.1l16.4,7.8l-4.2,8.7l-16.4-7.8L22,474.1z"/>
			</g>
			<g>
				<path class="st12" d="M40.9,414.8l-5,10.6l84.5,40.3l5-10.6c1.1-2.2,0.1-5-2.1-6L47,412.6C44.7,411.6,42,412.5,40.9,414.8
					L40.9,414.8z"/>
			</g>
			<g>
				<path class="st13" d="M39.9,436.6l-14.3,29.9l15.6,7.5l29.3-13.6l5.9,23.6l13.2-6.1l5.5,21.8l14.3-29.9L39.9,436.6z M48.9,450.1
					c2.6,1.3,3.6,4.4,2.4,7c-1.3,2.6-4.4,3.6-6.9,2.4c-2.6-1.3-3.7-4.4-2.5-6.9C43.2,450,46.3,448.8,48.9,450.1z"/>
			</g>
			<g>
				<path class="st14" d="M42,452.5c-1.3,2.6-0.1,5.7,2.5,6.9c2.6,1.3,5.7,0.1,6.9-2.4c1.3-2.6,0.1-5.8-2.4-7
					C46.3,448.8,43.2,450,42,452.5z"/>
			</g>
			<g>
				<path class="st15" d="M70.5,460.3l-29.3,13.6l37.1,17.7l-2-7.8L70.5,460.3z"/>
			</g>
			<g>
				<path class="st15" d="M89.5,477.7l-13.2,6.1l2,7.8l16.6,7.9L89.5,477.7z"/>
			</g>
			<g>
				<path class="st16" d="M38.4,481.9l-4.2,8.7l-16.4-7.8l4.2-8.7L38.4,481.9z M35.9,425.4L4.5,491.1c-1.1,2.2-0.1,5,2.1,6L83,533.6
					c2.2,1.1,5,0.1,6-2.1l31.4-65.8L35.9,425.4z M78.3,491.6l-37.1-17.7l-15.6-7.5l14.3-29.9l69.4,33.1L95,499.5L78.3,491.6z
					 M44.3,495.3l4.2-8.7l16.4,7.8l-4.2,8.7L44.3,495.3z M70.8,507.9l4.2-8.7l16.4,7.8l-4.2,8.7L70.8,507.9z"/>
			</g>
			<g>
				<path class="st2" d="M65,432c0.8,0.4,1.8,0,2.2-0.8s0-1.8-0.8-2.2c-0.8-0.4-1.8,0-2.2,0.8C63.9,430.7,64.3,431.6,65,432z"/>
				<path class="st2" d="M56.9,428.1c0.8,0.4,1.8,0,2.2-0.8s0-1.8-0.8-2.2c-0.8-0.4-1.8,0-2.2,0.8C55.7,426.8,56.1,427.7,56.9,428.1
					z"/>
				<path class="st2" d="M48.8,424.3c0.8,0.4,1.8,0,2.2-0.8s0-1.8-0.8-2.2c-0.8-0.4-1.8,0-2.2,0.8C47.6,423,47.9,423.8,48.8,424.3z"
					/>
				<path class="st2" d="M124,447.6l-76.4-36.4c-3-1.4-6.7-0.1-8.2,2.9L3.1,490.4c-1.4,3-0.1,6.7,2.9,8.2L82.3,535
					c3,1.4,6.7,0.1,8.2-2.9l36.4-76.4C128.4,452.7,127,449,124,447.6L124,447.6z M46.3,414.1l76.4,36.4c1.5,0.7,2.1,2.4,1.4,3.9
					l-4.4,9.1L38,424.6l4.4-9.1C43.1,414,44.8,413.4,46.3,414.1L46.3,414.1z M83.7,532.1L7.4,495.7c-1.5-0.7-2.1-2.4-1.4-3.9
					l30.7-64.3l81.6,38.9l-30.7,64.3C86.9,532.2,85.2,532.8,83.7,532.1L83.7,532.1z"/>
				<path class="st2" d="M85.3,441.7l27.9,13.3c0.8,0.4,1.8,0,2.2-0.8s0-1.8-0.8-2.2l-27.9-13.3c-0.8-0.4-1.8,0-2.2,0.8
					S84.6,441.3,85.3,441.7L85.3,441.7z"/>
				<path class="st2" d="M109.9,468.2l-69.4-33.1c-0.8-0.4-1.8,0-2.2,0.8l-14.3,29.9c-0.4,0.8,0,1.8,0.8,2.2L94.3,501
					c0.8,0.4,1.8,0,2.2-0.8l14.3-29.9C111.1,469.4,110.7,468.5,109.9,468.2z M79.7,490.5l-1.5-5.7l10.1-4.7l4.2,16.5L79.7,490.5z
					 M75.9,488.7L45,474l24.3-11.3L75.9,488.7z M40.6,438.7l66.5,31.7l-11.6,24.4l-4.3-17.4c-0.2-0.4-0.4-0.8-0.9-1s-1-0.2-1.4-0.1
					l-11.4,5.3L72,459.9c-0.2-0.4-0.4-0.8-0.9-1s-1-0.2-1.4-0.1l-28.4,13.4l-13.5-6.4L40.6,438.7z"/>
				<path class="st2" d="M83.8,522.9L67.4,515c-0.8-0.4-1.8,0-2.2,0.8s0,1.8,0.8,2.2l16.4,7.8c0.8,0.4,1.8,0,2.2-0.8
					S84.6,523.2,83.8,522.9z"/>
				<path class="st2" d="M57.3,510.2l-16.4-7.8c-0.8-0.4-1.8,0-2.2,0.8c-0.4,0.8,0,1.8,0.8,2.2l16.4,7.8c0.8,0.4,1.8,0,2.2-0.8
					C58.5,511.6,58.2,510.6,57.3,510.2z"/>
				<path class="st2" d="M30.9,497.6l-16.4-7.8c-0.8-0.4-1.8,0-2.2,0.8s0,1.8,0.8,2.2l16.4,7.8c0.8,0.4,1.8,0,2.2-0.8
					S31.7,498,30.9,497.6z"/>
				<path class="st2" d="M39.1,480.4l-16.4-7.8c-0.8-0.4-1.8,0-2.2,0.8l-4.2,8.7c-0.4,0.8,0,1.8,0.8,2.2l16.4,7.8
					c0.8,0.4,1.8,0,2.2-0.8l4.2-8.7C40.3,481.7,39.9,480.8,39.1,480.4z M33.5,488.4L20,481.9l2.8-5.8l13.5,6.4L33.5,488.4z"/>
				<path class="st2" d="M65.5,493l-16.4-7.8c-0.8-0.4-1.8,0-2.2,0.8l-4.2,8.7c-0.4,0.8,0,1.8,0.8,2.2l16.4,7.8
					c0.8,0.4,1.8,0,2.2-0.8l4.2-8.7C66.7,494.3,66.4,493.4,65.5,493z M59.9,501l-13.5-6.4l2.8-5.8l13.5,6.4L59.9,501z"/>
				<path class="st2" d="M92,505.7l-16.4-7.8c-0.8-0.4-1.8,0-2.2,0.8l-4.2,8.7c-0.4,0.8,0,1.8,0.8,2.2l16.4,7.8
					c0.8,0.4,1.8,0,2.2-0.8l4.2-8.7C93.2,506.9,92.8,506,92,505.7z M86.5,513.6L73,507.2l2.8-5.8l13.5,6.4L86.5,513.6z"/>
				<path class="st2" d="M52.9,457.7c1.6-3.4,0.2-7.5-3.2-9.1c-3.4-1.6-7.5-0.2-9.2,3.3c-1.6,3.4-0.2,7.4,3.3,9.1
					C47.1,462.6,51.3,461.1,52.9,457.7z M43.5,453.2c0.8-1.7,3-2.6,4.9-1.7c1.7,0.8,2.5,3,1.6,4.8c-0.8,1.7-3,2.5-4.7,1.7
					C43.4,457.2,42.6,455,43.5,453.2z"/>
			</g>
		</g>
	</g>
</g>
</svg>
