<?xml version="1.0" encoding="utf-8"?>
<!-- Generator: Adobe Illustrator 25.0.0, SVG Export Plug-In . SVG Version: 6.00 Build 0)  -->
<svg version="1.1" id="Layer_1" xmlns="http://www.w3.org/2000/svg" xmlns:xlink="http://www.w3.org/1999/xlink" x="0px" y="0px"
	 viewBox="0 0 130 535.6" style="enable-background:new 0 0 130 535.6;" xml:space="preserve">
<style type="text/css">
	.st0{fill:#4AA5FF;}
	.st1{fill:#E6F3FF;}
	.st2{fill:#35414D;}
	.st3{fill:#EF6D7A;}
	.st4{fill:#FFFFFF;}
	.st5{fill:#FEC200;}
	.st6{fill:#009AFF;}
	.st7{fill:#AAB2BD;}
	.st8{fill:#F9CF58;}
	.st9{opacity:0.1;}
	.st10{fill:#E5D3B3;}
	.st11{fill-rule:evenodd;clip-rule:evenodd;fill:#F17171;}
	.st12{fill-rule:evenodd;clip-rule:evenodd;fill:#85CFF5;}
	.st13{fill-rule:evenodd;clip-rule:evenodd;fill:#C9EBFA;}
	.st14{fill-rule:evenodd;clip-rule:evenodd;fill:#FEE97E;}
	.st15{fill-rule:evenodd;clip-rule:evenodd;fill:#76D6B2;}
	.st16{fill-rule:evenodd;clip-rule:evenodd;fill:#FFFFFF;}
</style>
<g>
	<g>
		<path class="st0" d="M38.2,100.4L14.5,40.6c-1.1-2.8,0.3-5.9,3-6.9L97.3,2.2c2.8-1.1,5.9,0.3,6.9,3L127.8,65
			c1.1,2.8-0.3,5.9-3,6.9l-79.7,31.5C42.4,104.5,39.2,103.1,38.2,100.4z"/>
		<path class="st1" d="M108.2,15.1L127.8,65c1.1,2.8-0.3,5.9-3,6.9l-79.7,31.5c-2.8,1.1-5.9-0.3-6.9-3L18.5,50.5
			c-1.1-2.8,0.3-5.9,3-6.9l79.7-31.5C104,11,107.1,12.4,108.2,15.1z"/>
		<g>
			<path class="st0" d="M40.6,54.7c-5.4-0.7-10.8-1.4-16.2-2.1c0.6,6,3.4,11.6,7.9,15.7c5.4,4.6,12.4,6.8,19.4,6
				C44.6,70.3,40.3,62.7,40.6,54.7L40.6,54.7z"/>
			<path class="st0" d="M49.5,34.1c-4.2-3.5-8.4-6.9-12.6-10.4c4.8-3.6,10.8-5.4,16.8-4.9c7,0.7,13.4,4.4,17.6,10.1
				C63.7,26.4,55.2,28.4,49.5,34.1L49.5,34.1z"/>
			<path class="st0" d="M66,68L66,68c-6.3-2.7-9.2-10.1-6.5-16.4c2.7-6.3,10.1-9.2,16.4-6.5C89,50.7,92.2,65.7,92.2,65.7
				S79.1,73.6,66,68L66,68z"/>
		</g>
		<ellipse transform="matrix(0.3981 -0.9174 0.9174 0.3981 -10.1113 93.3078)" class="st1" cx="66" cy="54.4" rx="5.4" ry="7.1"/>
		<path class="st1" d="M46.7,57.3c-9.4,2-19.2,0.3-27.4-4.5c-5.5-3.4-10-8.2-13.1-13.8C4,34.8,2.5,30.3,1.8,25.6
			c3.9-2.7,8.3-4.6,12.8-5.8c6.2-1.7,12.8-1.6,19,0.1c9.2,2.7,17.1,8.7,22,16.9L46.7,57.3L46.7,57.3z"/>
		<circle class="st0" cx="25.1" cy="35.7" r="10.7"/>
		<path class="st2" d="M20.7,61L36.5,101c1.5,3.7,5.6,5.5,9.3,4l79.7-31.5c3.7-1.5,5.5-5.6,4-9.3L105.9,4.5c-1.5-3.7-5.6-5.5-9.3-4
			L62.4,14c-0.9,0.4-1.3,1.4-1,2.3c0.4,0.9,1.4,1.4,2.3,1L97.9,3.8c1.8-0.7,3.9,0.2,4.6,2l1.7,4.2c-1.2-0.2-2.5-0.1-3.7,0.4
			L72.8,21.4c-0.9,0.4-1.3,1.4-1,2.3c0.4,0.9,1.4,1.4,2.3,1l27.7-10.9c1.8-0.7,3.9,0.2,4.6,2l19.7,49.8c0.7,1.8-0.2,3.9-2,4.6
			l-79.7,31.5c-1.8,0.7-3.9-0.2-4.6-2L24,59.6c-0.1-0.2-0.2-0.4-0.4-0.6c-0.7-0.7-1.8-0.7-2.5,0C20.6,59.5,20.4,60.3,20.7,61z"/>
		<path class="st2" d="M108.9,72c1.2-2.7-4.1-4.1-8.3-3.6c-1.2-5.1,4.6-8.3,9.3-8c3.4,0.2,6.5,2,8.5,4.9c0.5,0.8,1.6,1,2.4,0.5
			c0.8-0.5,1.1-1.6,0.6-2.5c-0.9-1.8-6.7-7.8-14.2-6.4c-0.2-0.2-0.4-0.3-0.6-0.4c-1.8-0.5-3.1-2-3.6-3.8c-0.7-2.8,1-5.7,3.9-6.4
			c0.9-0.3,1.5-1.2,1.3-2.2c-0.3-1-1.2-1.5-2.2-1.3c-1.9,0.5-3.6,1.6-4.8,3.1c-3,3.8-2.3,9.4,1.6,12.4c-4,2.1-6.7,6.1-5.6,11
			c-3.4,1.6-7.1,5-4.8,6.8c0,0,0,0,0,0c0.8,0.6,1.9,0.4,2.5-0.4c2.6-3.8,7.6-5,11.7-3C107.4,73.2,108.4,72.8,108.9,72L108.9,72z"/>
		<path class="st2" d="M0.8,24.1c-0.6,0.4-0.8,1.1-0.7,1.7c1.2,11.5,10.9,26.5,23.3,31c3.4,12.8,15.9,20.9,29,19
			c0.4-0.2,0.7-0.4,0.9-0.8c0.5-0.9,0.2-2-0.7-2.5c-3.8-1.7-8.5-7.4-9.7-12.9c1.5-0.2,3.1-0.4,4.6-0.7c0.4-0.2,0.8-0.5,1-1l1.1-2.5
			c2.5,1.3,5.4,1.4,7.3-0.7c-0.9,20.7,26.1,19.1,36.4,12.4c0.7-0.4,1-1.2,0.8-1.9c-0.1-0.7-3.6-16-17.4-22
			c-5.5-2.4-11.9-1.1-16.1,3.3c0,0,0,0,0,0c0.7-3.1-1.3-6.1-4.3-6.8l1.1-2.5c0.6-1.8-1.6-3.7-2.6-5.3c4.8-2.8,12.3-3.2,16-1.6
			c0.5,0.2,1.1,0.1,1.6-0.3c0.8-0.6,1-1.7,0.4-2.5c-5.9-8.6-20.4-15.1-33.5-7.7C27,14.1,11.1,16.7,0.8,24.1L0.8,24.1z M66.3,26.1
			c-4.9-0.3-9.7,0.9-13.9,3.4c-2.7-2.9-5.8-5.4-9.3-7.4C51.1,19,60,20.5,66.3,26.1L66.3,26.1z M66.7,66.3
			c-12.8-6.1-4.7-24.8,8.5-19.7C85.1,51,89,61.2,90.1,64.8C86.7,66.5,76.6,70.6,66.7,66.3L66.7,66.3z M46.3,72.4
			c-8.4-0.8-15.6-6.3-18.7-14.1c3.8,1.1,7.7,1.7,11.7,1.6C40.2,64.7,42.7,69.1,46.3,72.4L46.3,72.4z M40.4,56.4
			C22.4,57.2,6.6,44.3,3.7,26.4c0.3-0.2,0.6-0.4,1-0.6c16.6-10.5,38.5-5.5,49,11.1l-8.2,18.9C43.8,56.1,42.1,56.3,40.4,56.4
			L40.4,56.4z"/>
		<circle class="st1" cx="97.6" cy="7.8" r="1.8"/>
		<circle class="st1" cx="92.6" cy="9.8" r="1.8"/>
		<circle class="st1" cx="87.6" cy="11.7" r="1.8"/>
	</g>
	<g>
		<g>
			<g>
				<path class="st3" d="M30.7,209.8l92.8,38.6l4.8-11.6c1.3-3.2-0.2-6.9-3.4-8.2l-81.2-33.8c-3.2-1.3-6.9,0.2-8.2,3.4L30.7,209.8z"
					/>
			</g>
			<g>
				<path class="st4" d="M30.7,209.8l-29,69.6c-1.3,3.2,0.2,6.9,3.4,8.2l81.2,33.8c3.2,1.3,6.9-0.2,8.2-3.4l29-69.6L30.7,209.8z"/>
			</g>
			<g>
				<circle class="st5" cx="118.4" cy="236.1" r="3.1"/>
			</g>
			<g>
				<circle class="st4" cx="107.3" cy="231.5" r="3.1"/>
			</g>
			<g>
				<circle class="st5" cx="96.2" cy="226.8" r="3.1"/>
			</g>
			<g>
				<path class="st6" d="M94.5,243.1l-26.6,63.8l17.8,7.4c1.6,0.7,3.6-0.1,4.2-1.7l24.1-57.8c0.7-1.6-0.1-3.6-1.7-4.2L94.5,243.1z"
					/>
			</g>
			<g>
				<path class="st7" d="M37,219.2c-1.6-0.7-3.5,0.1-4.2,1.8L8.7,278.8c-0.7,1.6,0.1,3.6,1.7,4.2l57.4,23.9l26.6-63.8L37,219.2
					L37,219.2z"/>
			</g>
			<g>
				<path class="st8" d="M84.8,245.9c0.8,0.3,1.2,1.3,0.9,2.1L78,266.3c-0.3,0.8-1.3,1.2-2.1,0.9l-45.8-19.1
					c-0.8-0.3-1.2-1.3-0.9-2.1l7.6-18.3c0.3-0.8,1.3-1.2,2.1-0.9L84.8,245.9L84.8,245.9z"/>
			</g>
			<g class="st9">
				<path d="M30.5,242.8l-1.3,3.1c-0.3,0.8,0.1,1.8,0.9,2.1l45.8,19.1c0.8,0.3,1.8-0.1,2.1-0.9l7.6-18.3c0.3-0.8-0.1-1.8-0.9-2.1
					l-3.1-1.3c-3.8,9.2-14.4,13.5-23.5,9.7L30.5,242.8z"/>
			</g>
			<g>
				<path class="st10" d="M20.7,266.3l-4.4,10.5c-0.3,0.8,0.1,1.8,0.9,2.1l18.5,7.7c0.8,0.3,1.8-0.1,2.1-0.9l4.4-10.5
					c0.3-0.8-0.1-1.8-0.9-2.1l-18.5-7.7C22,265.1,21.1,265.5,20.7,266.3z"/>
			</g>
			<g class="st9">
				<path d="M16.8,275.7l-0.5,1.2c-0.3,0.8,0.1,1.8,0.9,2.1l18.5,7.7c0.8,0.3,1.8-0.1,2.1-0.9l4.4-10.5c0.3-0.8-0.1-1.8-0.9-2.1
					l-1.2-0.5c-2.5,6-9.4,8.8-15.4,6.3L16.8,275.7z"/>
			</g>
			<g>
				<path class="st10" d="M69.5,286.7c0.3-0.8,0-1.8-0.9-2.1l-18.5-7.7c-0.8-0.3-1.8,0.1-2.1,0.9l-4.4,10.5
					c-0.3,0.8,0.1,1.8,0.9,2.1l18.5,7.7c0.8,0.3,1.8-0.1,2.1-0.9L69.5,286.7L69.5,286.7z"/>
			</g>
			<g class="st9">
				<path d="M104.2,231.6c0.1,1.2,0.8,2.3,1.9,2.8c1.6,0.7,3.4-0.1,4.1-1.7c0.5-1.2,0.2-2.4-0.6-3.3c0,0.4,0,0.9-0.2,1.3
					c-0.7,1.6-2.5,2.4-4.1,1.7C104.8,232.2,104.5,231.9,104.2,231.6z"/>
			</g>
			<g class="st9">
				<path d="M93.1,227c0.1,1.2,0.8,2.3,1.9,2.8c1.6,0.7,3.4-0.1,4.1-1.7c0.5-1.2,0.2-2.4-0.6-3.3c0,0.4,0,0.9-0.2,1.3
					c-0.7,1.6-2.5,2.4-4.1,1.7C93.7,227.6,93.4,227.3,93.1,227z"/>
			</g>
			<g class="st9">
				<path d="M32.5,205.4l-1.8,4.4l92.8,38.6l4.8-11.6c1.2-2.8,0.1-6-2.3-7.6c-0.1,0.5-0.2,0.9-0.4,1.3c-2.7,6.4-10,9.5-16.5,6.8
					L32.5,205.4z"/>
			</g>
			<g class="st9">
				<path d="M3.4,275.1l-1.7,4.2c-1.3,3.2,0.2,6.9,3.4,8.2l81.2,33.8c3.2,1.3,6.9-0.2,8.2-3.4l29-69.6l-10-4.2
					c-15,36.1-56.5,53.2-92.6,38.2L3.4,275.1z"/>
			</g>
		</g>
		<g>
			<g>
				<path class="st2" d="M29.5,209.3l4.8-11.6c1.6-3.8,6-5.6,9.8-4l81.2,33.8c3.8,1.6,5.6,6,4,9.8l-4.8,11.6c-0.3,0.6-1,0.9-1.6,0.7
					l-92.8-38.6C29.6,210.6,29.3,209.9,29.5,209.3z M127.2,236.3c1.1-2.6-0.2-5.6-2.7-6.6l-81.2-33.8c-2.6-1.1-5.6,0.2-6.6,2.7
					l-4.4,10.5l90.6,37.7L127.2,236.3z"/>
			</g>
			<g>
				<path class="st2" d="M0.6,278.9l29-69.6c0.3-0.6,1-0.9,1.6-0.7l92.8,38.6c0.6,0.3,0.9,1,0.7,1.6l-29,69.6c-1.6,3.8-6,5.6-9.8,4
					L4.6,288.7C0.8,287.1-1,282.7,0.6,278.9z M31.3,211.3L2.8,279.8c-1.1,2.6,0.2,5.6,2.7,6.6l81.2,33.8c2.6,1.1,5.6-0.2,6.6-2.7
					l28.5-68.5L31.3,211.3z"/>
			</g>
			<g>
				<g>
					<path class="st2" d="M114.4,234.4c0.9-2.2,3.5-3.3,5.7-2.3c2.2,0.9,3.3,3.5,2.3,5.7c-0.9,2.2-3.5,3.3-5.7,2.3
						C114.5,239.2,113.5,236.6,114.4,234.4z M116.6,235.3c-0.4,1,0.1,2.1,1,2.5c1,0.4,2.1,0,2.5-1s-0.1-2.1-1-2.5
						C118.2,233.9,117,234.4,116.6,235.3z"/>
				</g>
				<g>
					<path class="st2" d="M103.3,229.8c0.9-2.2,3.5-3.3,5.7-2.3c2.2,0.9,3.3,3.5,2.3,5.7c-0.9,2.2-3.5,3.3-5.7,2.3
						C103.4,234.6,102.3,232,103.3,229.8z M105.5,230.7c-0.4,1,0.1,2.1,1,2.5c1,0.4,2.1,0,2.5-1c0.4-1-0.1-2.1-1-2.5
						C107.1,229.3,105.9,229.7,105.5,230.7z"/>
				</g>
				<g>
					<path class="st2" d="M92.2,225.2c0.9-2.2,3.5-3.3,5.7-2.3c2.2,0.9,3.3,3.5,2.3,5.7c-0.9,2.2-3.5,3.3-5.7,2.3
						C92.3,229.9,91.3,227.4,92.2,225.2z M94.4,226.1c-0.4,1,0.1,2.1,1,2.5s2.1,0,2.5-1c0.4-1-0.1-2.1-1-2.5
						C96,224.7,94.8,225.1,94.4,226.1z"/>
				</g>
			</g>
			<g>
				<path class="st2" d="M66.8,306.5l26.6-63.8c0.3-0.6,1-0.9,1.6-0.7l20.8,8.7c0.6,0.3,0.9,1,0.7,1.6l-26.6,63.8
					c-0.3,0.6-1,0.9-1.6,0.7l-20.8-8.6C66.8,307.8,66.5,307.1,66.8,306.5z M113.7,252.4l-18.5-7.7l-25.6,61.5L88,314L113.7,252.4z"
					/>
			</g>
			<g>
				<path class="st2" d="M7,282.9c-0.6-0.3-0.9-1-0.6-1.6l26.6-63.8c0.3-0.6,1-0.9,1.6-0.7L95,242c0.6,0.3,0.9,1,0.7,1.6L69,307.4
					c-0.3,0.6-1,0.9-1.6,0.7L7,282.9L7,282.9z M92.9,243.8l-58.2-24.2L9.1,281.1l58.2,24.2L92.9,243.8z"/>
			</g>
			<g>
				<path class="st2" d="M27.5,247l8.9-21.3c0.3-0.6,1-0.9,1.6-0.7l48.8,20.3c0.6,0.3,0.9,1,0.7,1.6l-8.9,21.3
					c-0.3,0.6-1,0.9-1.6,0.7l-48.8-20.3C27.5,248.3,27.2,247.6,27.5,247z M84.7,247.2l-46.6-19.4l-7.9,19l46.6,19.4L84.7,247.2z"/>
			</g>
			<g>
				<path class="st2" d="M15.2,279.5c-0.6-0.3-0.9-1-0.7-1.6l5.6-13.5c0.3-0.6,1-0.9,1.6-0.7l21.5,9c0.6,0.3,0.9,1,0.7,1.6
					l-5.6,13.5c-0.3,0.6-1,0.9-1.6,0.7L15.2,279.5L15.2,279.5z M41.3,274.5l-19.3-8l-4.7,11.3l19.3,8L41.3,274.5z"/>
			</g>
			<g>
				<path class="st2" d="M41.9,289.3l5.6-13.5c0.3-0.6,1-0.9,1.6-0.7l21.5,9c0.6,0.3,0.9,1,0.7,1.6l-5.6,13.5
					c-0.3,0.6-1,0.9-1.6,0.7l-21.5-9C41.9,290.6,41.6,289.9,41.9,289.3z M68.6,285.8l-19.3-8l-4.7,11.3l19.3,8L68.6,285.8z"/>
			</g>
			<g>
				<g>
					<path class="st2" d="M52.4,264.2c0.3-0.6,1-0.9,1.6-0.7l21.5,9c0.6,0.3,0.9,1,0.7,1.6s-1,0.9-1.6,0.7l-21.5-9
						C52.4,265.5,52.1,264.8,52.4,264.2z"/>
				</g>
				<g>
					<path class="st2" d="M58.7,273.6c0.3-0.6,1-0.9,1.6-0.7l12.8,5.3c0.6,0.3,0.9,1,0.7,1.6c-0.3,0.6-1,0.9-1.6,0.7l-12.8-5.3
						C58.7,274.9,58.4,274.2,58.7,273.6z"/>
				</g>
			</g>
			<g>
				<g>
					<path class="st2" d="M25.1,252.8c0.3-0.6,1-0.9,1.6-0.7l21.5,9c0.6,0.3,0.9,1,0.7,1.6s-1,0.9-1.6,0.7l-21.5-9
						C25.1,254.1,24.8,253.4,25.1,252.8z"/>
				</g>
				<g>
					<path class="st2" d="M31.3,262.2c0.3-0.6,1-0.9,1.6-0.7l12.8,5.3c0.6,0.3,0.9,1,0.7,1.6s-1,0.9-1.6,0.7L32,263.8
						C31.4,263.5,31.1,262.8,31.3,262.2z"/>
				</g>
			</g>
			<g>
				<path class="st2" d="M96.7,250.9c0.3-0.6,1-0.9,1.6-0.7l9.2,3.8c0.6,0.3,0.9,1,0.7,1.6c-0.3,0.6-1,0.9-1.6,0.7l-9.2-3.8
					C96.8,252.2,96.5,251.5,96.7,250.9z"/>
			</g>
			<g>
				<path class="st2" d="M93.6,258.4c0.3-0.6,1-0.9,1.6-0.7l9.2,3.8c0.6,0.3,0.9,1,0.7,1.6c-0.3,0.6-1,0.9-1.6,0.7l-9.2-3.8
					C93.7,259.7,93.4,259,93.6,258.4z"/>
			</g>
			<g>
				<path class="st2" d="M90.5,265.8c0.3-0.6,1-0.9,1.6-0.7l9.2,3.8c0.6,0.3,0.9,1,0.7,1.6s-1,0.9-1.6,0.7l-9.2-3.8
					C90.6,267.1,90.3,266.4,90.5,265.8z"/>
			</g>
			<g>
				<path class="st2" d="M87.4,273.3c0.3-0.6,1-0.9,1.6-0.7l9.2,3.8c0.6,0.3,0.9,1,0.7,1.6s-1,0.9-1.6,0.7l-9.2-3.8
					C87.5,274.6,87.2,273.9,87.4,273.3z"/>
			</g>
			<g>
				<path class="st2" d="M84.3,280.7c0.3-0.6,1-0.9,1.6-0.7l9.2,3.8c0.6,0.3,0.9,1,0.7,1.6s-1,0.9-1.6,0.7l-9.2-3.8
					C84.4,282.1,84.1,281.3,84.3,280.7z"/>
			</g>
			<g>
				<path class="st2" d="M81.2,288.2c0.3-0.6,1-0.9,1.6-0.7l9.2,3.8c0.6,0.3,0.9,1,0.7,1.6s-1,0.9-1.6,0.7l-9.2-3.8
					C81.3,289.5,81,288.8,81.2,288.2z"/>
			</g>
			<g>
				<path class="st2" d="M78.1,295.6c0.3-0.6,1-0.9,1.6-0.7l9.2,3.8c0.6,0.3,0.9,1,0.7,1.6s-1,0.9-1.6,0.7l-9.2-3.8
					C78.2,297,77.9,296.2,78.1,295.6z"/>
			</g>
			<g>
				<path class="st2" d="M75,303.1c0.3-0.6,1-0.9,1.6-0.7l9.2,3.8c0.6,0.3,0.9,1,0.7,1.6c-0.3,0.6-1,0.9-1.6,0.7l-9.2-3.8
					C75.1,304.4,74.8,303.7,75,303.1z"/>
			</g>
		</g>
	</g>
	<g id="Layer_35_2_">
		<g>
			<g>
				<path class="st11" d="M59.2,508l-16.4,7.8l-4.2-8.7l16.4-7.8L59.2,508z"/>
			</g>
			<g>
				<path class="st11" d="M85.8,495.4l-16.4,7.8l-4.2-8.7l16.4-7.8L85.8,495.4z"/>
			</g>
			<g>
				<path class="st11" d="M112.2,482.8l-16.4,7.8l-4.2-8.7l16.4-7.8L112.2,482.8z"/>
			</g>
			<g>
				<path class="st12" d="M89.1,414.8c-1.1-2.2-3.8-3.2-6-2.1L6.7,449c-2.2,1.1-3.2,3.8-2.1,6l5,10.6l84.5-40.3L89.1,414.8
					L89.1,414.8z"/>
			</g>
			<g>
				<path class="st13" d="M20.7,469.7l14.3,29.9l5.5-21.8l13.2,6.1l5.9-23.6l29.3,13.6l15.6-7.5l-14.3-29.9L20.7,469.7z M88.1,452.5
					c1.2,2.5,0.1,5.7-2.5,6.9c-2.5,1.2-5.6,0.2-6.9-2.4c-1.3-2.6-0.2-5.7,2.4-7C83.7,448.8,86.8,450,88.1,452.5z"/>
			</g>
			<g>
				<path class="st14" d="M80.9,450c-2.5,1.2-3.6,4.4-2.4,7c1.2,2.5,4.3,3.7,6.9,2.4c2.6-1.3,3.8-4.3,2.5-6.9
					C86.8,450,83.7,448.8,80.9,450z"/>
			</g>
			<g>
				<path class="st15" d="M53.7,483.9l-2,7.8l37.1-17.7l-29.3-13.6L53.7,483.9z"/>
			</g>
			<g>
				<path class="st15" d="M35,499.5l16.6-7.9l2-7.8l-13.2-6.1L35,499.5z"/>
			</g>
			<g>
				<path class="st16" d="M108,474.1l4.2,8.7l-16.4,7.8l-4.2-8.7L108,474.1z M9.6,465.7l31.4,65.8c1.1,2.2,3.8,3.2,6,2.1l76.4-36.4
					c2.2-1.1,3.2-3.8,2.1-6l-31.4-65.8L9.6,465.7z M35,499.5l-14.3-29.9l69.4-33.1l14.3,29.9l-15.6,7.5l-37.1,17.7L35,499.5z
					 M69.3,503.1l-4.2-8.7l16.4-7.8l4.2,8.7L69.3,503.1z M42.8,515.8l-4.2-8.7l16.4-7.8l4.2,8.7L42.8,515.8z"/>
			</g>
			<g>
				<path class="st2" d="M65.7,429.8c-0.4-0.8-1.4-1.1-2.2-0.8c-0.8,0.4-1.1,1.4-0.8,2.2s1.4,1.1,2.2,0.8
					C65.7,431.6,66.1,430.7,65.7,429.8z"/>
				<path class="st2" d="M73.9,425.9c-0.4-0.8-1.4-1.1-2.2-0.8c-0.8,0.4-1.1,1.4-0.8,2.2s1.4,1.1,2.2,0.8
					C73.9,427.7,74.3,426.8,73.9,425.9z"/>
				<path class="st2" d="M81.9,422.1c-0.4-0.8-1.4-1.1-2.2-0.8c-0.8,0.4-1.1,1.4-0.8,2.2s1.4,1.1,2.2,0.8
					C82.1,423.8,82.4,423,81.9,422.1z"/>
				<path class="st2" d="M6,447.6c-3,1.4-4.3,5.2-2.9,8.2l36.4,76.4c1.4,3,5.2,4.3,8.2,2.9l76.4-36.4c3-1.4,4.3-5.2,2.9-8.2
					l-36.4-76.4c-1.4-3-5.2-4.3-8.2-2.9L6,447.6L6,447.6z M83.7,414.1c1.5-0.7,3.2-0.1,3.9,1.4l4.4,9.1l-81.6,38.9L6,454.4
					c-0.7-1.5-0.1-3.2,1.4-3.9L83.7,414.1L83.7,414.1z M46.3,532.1c-1.5,0.7-3.2,0.1-3.9-1.4l-30.7-64.3l81.6-38.9l30.7,64.3
					c0.7,1.5,0.1,3.2-1.4,3.9L46.3,532.1L46.3,532.1z"/>
				<path class="st2" d="M44.7,441.7c0.8-0.4,1.1-1.4,0.8-2.2s-1.4-1.1-2.2-0.8L15.4,452c-0.8,0.4-1.1,1.4-0.8,2.2
					c0.4,0.8,1.4,1.1,2.2,0.8L44.7,441.7L44.7,441.7z"/>
				<path class="st2" d="M19.3,470.3l14.3,29.9c0.4,0.8,1.4,1.1,2.2,0.8l69.4-33.1c0.8-0.4,1.1-1.4,0.8-2.2l-14.3-29.9
					c-0.4-0.8-1.4-1.1-2.2-0.8l-69.4,33.1C19.3,468.5,18.9,469.4,19.3,470.3z M37.5,496.6l4.2-16.5l10.1,4.7l-1.5,5.7L37.5,496.6z
					 M60.6,462.7L85,474l-30.9,14.7L60.6,462.7z M102.3,465.7l-13.5,6.4l-28.4-13.4c-0.4-0.2-0.9-0.2-1.4,0.1s-0.8,0.6-0.9,1
					l-5.4,21.7l-11.4-5.3c-0.4-0.2-0.9-0.2-1.4,0.1c-0.5,0.2-0.8,0.6-0.9,1l-4.3,17.4l-11.6-24.4l66.5-31.7L102.3,465.7z"/>
				<path class="st2" d="M45.4,525c0.4,0.8,1.4,1.1,2.2,0.8l16.4-7.8c0.8-0.4,1.1-1.4,0.8-2.2s-1.4-1.1-2.2-0.8l-16.4,7.8
					C45.4,523.2,45,524.2,45.4,525z"/>
				<path class="st2" d="M71.9,512.4c0.4,0.8,1.4,1.1,2.2,0.8l16.4-7.8c0.8-0.4,1.1-1.4,0.8-2.2c-0.4-0.8-1.4-1.1-2.2-0.8l-16.4,7.8
					C71.8,510.6,71.5,511.6,71.9,512.4z"/>
				<path class="st2" d="M98.3,499.8c0.4,0.8,1.4,1.1,2.2,0.8l16.4-7.8c0.8-0.4,1.1-1.4,0.8-2.2s-1.4-1.1-2.2-0.8l-16.4,7.8
					C98.3,498,98,499,98.3,499.8z"/>
				<path class="st2" d="M90.1,482.6l4.2,8.7c0.4,0.8,1.4,1.1,2.2,0.8l16.4-7.8c0.8-0.4,1.1-1.4,0.8-2.2l-4.2-8.7
					c-0.4-0.8-1.4-1.1-2.2-0.8l-16.4,7.8C90.1,480.8,89.7,481.7,90.1,482.6z M93.7,482.5l13.5-6.4l2.8,5.8l-13.5,6.4L93.7,482.5z"/>
				<path class="st2" d="M63.7,495.2l4.2,8.7c0.4,0.8,1.4,1.1,2.2,0.8l16.4-7.8c0.8-0.4,1.1-1.4,0.8-2.2l-4.2-8.7
					c-0.4-0.8-1.4-1.1-2.2-0.8L64.5,493C63.6,493.4,63.3,494.3,63.7,495.2z M67.3,495.1l13.5-6.4l2.8,5.8L70.1,501L67.3,495.1z"/>
				<path class="st2" d="M37.2,507.8l4.2,8.7c0.4,0.8,1.4,1.1,2.2,0.8l16.4-7.8c0.8-0.4,1.1-1.4,0.8-2.2l-4.2-8.7
					c-0.4-0.8-1.4-1.1-2.2-0.8L38,505.7C37.2,506,36.8,506.9,37.2,507.8z M40.8,507.8l13.5-6.4l2.8,5.8l-13.5,6.4L40.8,507.8z"/>
				<path class="st2" d="M86.1,460.9c3.5-1.7,4.9-5.7,3.3-9.1c-1.7-3.5-5.8-4.9-9.2-3.3c-3.4,1.6-4.8,5.7-3.2,9.1
					C78.7,461.1,82.9,462.6,86.1,460.9z M84.7,458c-1.7,0.8-3.9,0.1-4.7-1.7c-0.9-1.8-0.1-4,1.6-4.8c1.8-0.9,4,0,4.9,1.7
					C87.4,455,86.6,457.2,84.7,458z"/>
			</g>
		</g>
	</g>
</g>
</svg>
