<?xml version="1.0" encoding="utf-8"?>
<!-- Generator: Adobe Illustrator 25.0.0, SVG Export Plug-In . SVG Version: 6.00 Build 0)  -->
<svg version="1.1" id="Layer_1" xmlns="http://www.w3.org/2000/svg" xmlns:xlink="http://www.w3.org/1999/xlink" x="0px" y="0px"
	 viewBox="0 0 198.6 150" style="enable-background:new 0 0 198.6 150;" xml:space="preserve">
<style type="text/css">
	.st0{fill:#F4EAE6;}
	.st1{fill:#BECAF5;}
	.st2{fill:#3C58A0;}
	.st3{fill:#DEEEFF;}
	.st4{fill:#2A428C;}
	.st5{fill:#1C2E7A;}
	.st6{fill:#FF4155;}
	.st7{fill:#FFDD40;}
	.st8{fill:#88CE65;}
	.st9{fill:#6289CC;}
	.st10{fill:#4369FD;}
	.st11{fill:#B5A7A3;}
	.st12{fill:#748FA5;}
	.st13{fill:#6A8291;}
	.st14{fill:#70D6F9;}
	.st15{fill:#67CAE5;}
	.st16{fill:#35414D;}
	.st17{fill:#8AC5DC;}
	.st18{fill:#7FB8C9;}
	.st19{fill:#B7C0D7;}
	.st20{fill:#57B7EB;}
	.st21{fill:#A7AFC1;}
	.st22{fill:#AAE1F9;}
	.st23{fill:#F89C8D;}
	.st24{fill:#F8664F;}
	.st25{fill:#FFE4CF;}
	.st26{fill:#E8CFBF;}
	.st27{fill-rule:evenodd;clip-rule:evenodd;fill:#7DDF96;}
	.st28{fill:#0D9353;}
	.st29{fill-rule:evenodd;clip-rule:evenodd;fill:#0D9353;}
</style>
<g>
	<g>
		<path class="st0" d="M156.8,145.9H56.3c-3.3,0-5.9-2.7-5.9-5.9V76.8c0-3.3,2.7-5.9,5.9-5.9h100.5c3.3,0,5.9,2.7,5.9,5.9V140
			C162.7,143.3,160.1,145.9,156.8,145.9z"/>
		<g>
			<path class="st1" d="M82.8,19.9c0,5-4.1,9.1-9.1,9.1h89v-9.1L82.8,19.9z"/>
			<path class="st2" d="M50.3,19.9V29h24c5,0,9.1-4.1,9.1-9.1L50.3,19.9z"/>
			<path class="st0" d="M162.7,28.4v87.7c-12.2,18-32.8,29.8-56.2,29.8c-3.4,0-6.7-0.2-9.9-0.7c-0.2,0-0.4-0.1-0.6-0.1
				c-19-2.9-35.3-13.7-45.7-29V28.4H162.7z"/>
			<path class="st3" d="M96.6,145.2c-0.2,0-0.4-0.1-0.6-0.1C96.2,145.2,96.4,145.2,96.6,145.2L96.6,145.2z"/>
			<path class="st4" d="M155,4.1H81.2c0,0-2.7,2.8,0,5.4l0.4,5.3c0,0-2.3,3.4,1.3,5.7h82.3V14C165.2,8.5,160.6,4.1,155,4.1z"/>
			<path class="st5" d="M59.3,3.7c-5.7,0-10.3,4.5-10.3,10.1v6.7h34.4c-3.7-2.3-1.3-5.8-1.3-5.8l-0.4-5.4c-2.8-2.7,0-5.6,0-5.6
				L59.3,3.7L59.3,3.7z"/>
			<path class="st6" d="M65.7,12.3c0,1.8-1.4,3.2-3.2,3.2c-1.8,0-3.2-1.4-3.2-3.2s1.4-3.2,3.2-3.2C64.3,9.1,65.7,10.5,65.7,12.3z"/>
			<path class="st7" d="M74.5,12.3c0,1.8-1.4,3.2-3.2,3.2s-3.2-1.4-3.2-3.2s1.4-3.2,3.2-3.2S74.5,10.5,74.5,12.3z"/>
			<path class="st8" d="M83.4,12.3c0,1.8-1.4,3.2-3.2,3.2c-1.8,0-3.2-1.4-3.2-3.2s1.4-3.2,3.2-3.2S83.4,10.5,83.4,12.3L83.4,12.3z"
				/>
			<path class="st2" d="M110.7,12.3c0-1.2,1-2.1,2.1-2.1h-19c-1.2,0-2.1,1-2.1,2.1s1,2.1,2.1,2.1h19
				C111.7,14.4,110.7,13.4,110.7,12.3z"/>
			<path class="st9" d="M128.3,12.3c0-1.2-1-2.1-2.1-2.1h-13.9c-1.2,0-2.1,1-2.1,2.1s1,2.1,2.1,2.1h13.9
				C127.3,14.4,128.3,13.4,128.3,12.3z"/>
			<g>
				<path class="st9" d="M151.9,14.4h-2.8c-1.2,0-2.1-1-2.1-2.1s1-2.1,2.1-2.1h2.8c1.2,0,2.1,1,2.1,2.1S153,14.4,151.9,14.4z"/>
			</g>
			<g>
				<path class="st2" d="M142.2,14.4h-2.8c-1.2,0-2.1-1-2.1-2.1s1-2.1,2.1-2.1h2.8c1.2,0,2.1,1,2.1,2.1S143.4,14.4,142.2,14.4z"/>
			</g>
			<g id="g9219_9_" transform="translate(244.6719,249.1592)">
				<path id="path9221_9_" class="st10" d="M-140.7-180.3c0,1.1-0.9,1.9-1.9,1.9c-1.1,0-1.9-0.9-1.9-1.9c0-1.1,0.9-1.9,1.9-1.9
					C-141.6-182.2-140.7-181.4-140.7-180.3"/>
			</g>
			<g id="g9223_9_" transform="translate(261.5937,249.1592)">
				<path id="path9225_9_" class="st11" d="M-151.8-180.3c0,1.1-0.9,1.9-1.9,1.9c-1.1,0-1.9-0.9-1.9-1.9c0-1.1,0.9-1.9,1.9-1.9
					C-152.7-182.2-151.8-181.4-151.8-180.3"/>
			</g>
			<g id="g9227_9_" transform="translate(278.5156,249.1592)">
				<path id="path9229_9_" class="st11" d="M-162.9-180.3c0,1.1-0.9,1.9-1.9,1.9c-1.1,0-1.9-0.9-1.9-1.9c0-1.1,0.9-1.9,1.9-1.9
					C-163.7-182.2-162.9-181.4-162.9-180.3"/>
			</g>
			<g>
				<g id="g9231_9_" transform="translate(199.4058,152.8955)">
					<path id="path9233_9_" class="st12" d="M-112-53.7h-21.7c-0.6,0-1-0.5-1-1v-15.5c0-0.6,0.5-1,1-1h21.7c0.6,0,1,0.5,1,1v15.5
						C-111-54.2-111.4-53.7-112-53.7"/>
				</g>
				<g id="g9235_9_" transform="translate(188.9829,152.8975)">
					<path id="path9237_9_" class="st13" d="M-105.2-53.7h-8.3v-10.2c0-0.6,0.5-1,1-1h6.2c0.6,0,1,0.5,1,1V-53.7z"/>
				</g>
				<g id="g9239_9_" transform="translate(185.4336,127.335)">
					<path id="path9241_9_" class="st11" d="M-102.9-19.3h-12c-1,0-1.7-0.8-1.7-1.7c0-1,0.8-1.7,1.7-1.7h12c1,0,1.7,0.8,1.7,1.7
						C-101.1-20.1-101.9-19.3-102.9-19.3"/>
				</g>
				<g id="g9251_9_" transform="translate(286.1025,152.8955)">
					<path id="path9253_9_" class="st12" d="M-168.7-53.7h-21.7c-0.6,0-1-0.5-1-1v-15.5c0-0.6,0.5-1,1-1h21.7c0.6,0,1,0.5,1,1v15.5
						C-167.6-54.2-168.1-53.7-168.7-53.7"/>
				</g>
				<g id="g9255_9_" transform="translate(275.6797,152.8975)">
					<path id="path9257_9_" class="st13" d="M-161.8-53.7h-8.3v-10.2c0-0.6,0.5-1,1-1h6.2c0.6,0,1,0.5,1,1V-53.7z"/>
				</g>
				<g id="g9259_9_" transform="translate(272.1304,127.335)">
					<path id="path9261_9_" class="st11" d="M-159.5-19.3h-12c-1,0-1.7-0.8-1.7-1.7c0-1,0.8-1.7,1.7-1.7h12c1,0,1.7,0.8,1.7,1.7
						C-157.8-20.1-158.6-19.3-159.5-19.3"/>
				</g>
				<g id="g9271_9_" transform="translate(372.7988,152.8955)">
					<path id="path9273_9_" class="st12" d="M-225.3-53.7H-247c-0.6,0-1-0.5-1-1v-15.5c0-0.6,0.5-1,1-1h21.7c0.6,0,1,0.5,1,1v15.5
						C-224.3-54.2-224.8-53.7-225.3-53.7"/>
				</g>
				<g id="g9275_9_" transform="translate(362.3765,152.8975)">
					<path id="path9277_9_" class="st13" d="M-218.5-53.7h-8.3v-10.2c0-0.6,0.5-1,1-1h6.2c0.6,0,1,0.5,1,1V-53.7z"/>
				</g>
				<g id="g9279_9_" transform="translate(358.8271,127.335)">
					<path id="path9281_9_" class="st11" d="M-216.2-19.3h-12c-1,0-1.7-0.8-1.7-1.7c0-1,0.8-1.7,1.7-1.7h12c1,0,1.7,0.8,1.7,1.7
						C-214.5-20.1-215.2-19.3-216.2-19.3"/>
				</g>
			</g>
			<g>
				<g id="g9243_9_" transform="translate(199.9019,91.3535)">
					<path id="path9245_9_" class="st12" d="M-110.2,29.3h-18.4c-0.8,0-1.5-0.7-1.5-1.5c0-0.8,0.7-1.5,1.5-1.5h18.4
						c0.8,0,1.5,0.7,1.5,1.5C-108.7,28.7-109.4,29.3-110.2,29.3"/>
				</g>
				<g id="g9247_9_" transform="translate(199.9019,71.8398)">
					<path id="path9249_9_" class="st12" d="M-110.2,54.7h-18.4c-0.8,0-1.5-0.7-1.5-1.5c0-0.8,0.7-1.5,1.5-1.5h18.4
						c0.8,0,1.5,0.7,1.5,1.5C-108.7,54-109.4,54.7-110.2,54.7"/>
				</g>
				<g id="g9263_9_" transform="translate(286.5986,91.3535)">
					<path id="path9265_9_" class="st12" d="M-170.8,29.3h-18.4c-0.8,0-1.5-0.7-1.5-1.5c0-0.8,0.7-1.5,1.5-1.5h18.4
						c0.8,0,1.5,0.7,1.5,1.5C-169.3,28.7-170,29.3-170.8,29.3"/>
				</g>
				<g id="g9267_9_" transform="translate(286.5986,71.8398)">
					<path id="path9269_9_" class="st12" d="M-170.8,54.7h-18.4c-0.8,0-1.5-0.7-1.5-1.5c0-0.8,0.7-1.5,1.5-1.5h18.4
						c0.8,0,1.5,0.7,1.5,1.5C-169.3,54-170,54.7-170.8,54.7"/>
				</g>
				<g id="g9283_9_" transform="translate(373.2954,91.3535)">
					<path id="path9285_9_" class="st12" d="M-231.4,29.3h-18.4c-0.8,0-1.5-0.7-1.5-1.5c0-0.8,0.7-1.5,1.5-1.5h18.4
						c0.8,0,1.5,0.7,1.5,1.5C-229.9,28.7-230.6,29.3-231.4,29.3"/>
				</g>
				<g id="g9287_9_" transform="translate(373.2954,71.8398)">
					<path id="path9289_9_" class="st12" d="M-231.4,54.7h-18.4c-0.8,0-1.5-0.7-1.5-1.5c0-0.8,0.7-1.5,1.5-1.5h18.4
						c0.8,0,1.5,0.7,1.5,1.5C-229.9,54-230.6,54.7-231.4,54.7"/>
				</g>
			</g>
			<rect x="64.6" y="112.9" class="st2" width="83.9" height="0.2"/>
			<g>
				<path class="st14" d="M57.8,32.4h97.4v43.7H57.8L57.8,32.4z"/>
				<path class="st15" d="M155.2,32.4v43.7H57.8v-9.3h62c15.3,0,27.7-14.9,27.7-33.3v-1L155.2,32.4z"/>
			</g>
		</g>
		<path class="st16" d="M149.5,4.3c7.2,0,13.1,5.9,13.1,13.1v115.2c0,7.2-5.9,13.1-13.1,13.1H63.6c-7.2,0-13.1-5.9-13.1-13.1V17.4
			c0-7.2,5.9-13.1,13.1-13.1H149.5 M149.5,0H63.6C54,0,46.2,7.8,46.2,17.4v115.2c0,9.6,7.8,17.4,17.4,17.4h85.8
			c9.6,0,17.4-7.8,17.4-17.4V17.4C166.8,7.8,159,0,149.5,0L149.5,0z"/>
	</g>
	<g>
		<g>
			<path class="st17" d="M5.7,4.9h23.4c2.2,0,3.9,1.7,3.9,3.9v23.4c0,2.2-1.7,3.9-3.9,3.9H5.7c-2.2,0-3.9-1.7-3.9-3.9V8.8
				C1.8,6.6,3.6,4.9,5.7,4.9z"/>
			<path class="st18" d="M7.7,14.7V4.9h-2c-2.2,0-3.9,1.7-3.9,3.9v23.4c0,2.2,1.7,3.9,3.9,3.9h23.4c2.2,0,3.9-1.7,3.9-3.9v-2h-9.8
				C14.7,30.3,7.7,23.3,7.7,14.7z"/>
			<path class="st16" d="M15.5,29.5c-0.7,0-1.2-0.5-1.2-1.2v-6.6h-2.7c-0.7,0-1.2-0.5-1.2-1.2c0-0.7,0.5-1.2,1.2-1.2h2.7v-2.7
				c0-2.8,2.3-5.1,5.1-5.1h3.9c0.7,0,1.2,0.5,1.2,1.2s-0.5,1.2-1.2,1.2h-3.9c-1.5,0-2.7,1.2-2.7,2.7v2.7h2.7c0.7,0,1.2,0.5,1.2,1.2
				c0,0.7-0.5,1.2-1.2,1.2h-2.7v6.6C16.7,29,16.2,29.5,15.5,29.5z"/>
			<path class="st16" d="M5.7,37.3c-2.8,0-5.1-2.3-5.1-5.1V20.5c0-0.7,0.5-1.2,1.2-1.2S3,19.8,3,20.5v11.7c0,1.5,1.2,2.7,2.7,2.7
				h23.4c1.5,0,2.7-1.2,2.7-2.7V8.8c0-1.5-1.2-2.7-2.7-2.7H5.7C4.2,6.1,3,7.3,3,8.8v3.9c0,0.7-0.5,1.2-1.2,1.2s-1.2-0.5-1.2-1.2V8.8
				c0-2.8,2.3-5.1,5.1-5.1h23.4c2.8,0,5.1,2.3,5.1,5.1v23.4c0,2.8-2.3,5.1-5.1,5.1H5.7z"/>
		</g>
		<g>
			<path class="st19" d="M5.3,59.2h24.3c2.2,0,4,1.7,4,3.9v23.2c0,2.1-1.8,3.9-4,3.9H5.3c-2.2,0-4-1.7-4-3.9V63.1
				C1.3,60.9,3.1,59.2,5.3,59.2z"/>
			<ellipse class="st20" cx="17.4" cy="74.7" rx="6.1" ry="5.8"/>
			<path class="st21" d="M7.3,68.9v-9.7h-2c-2.2,0-4,1.7-4,3.9v23.2c0,2.1,1.8,3.9,4,3.9h24.3c2.2,0,4-1.7,4-3.9v-1.9H23.5
				C14.6,84.4,7.3,77.4,7.3,68.9z"/>
			<ellipse class="st22" cx="19.5" cy="72.8" rx="2" ry="1.9"/>
			<path class="st16" d="M17.4,81.7c-4,0-7.3-3.1-7.3-7s3.3-7,7.3-7s7.3,3.1,7.3,7S21.5,81.7,17.4,81.7z M17.4,70.1
				c-2.6,0-4.8,2.1-4.8,4.6c0,2.5,2.2,4.6,4.8,4.6s4.8-2.1,4.8-4.6C22.2,72.2,20.1,70.1,17.4,70.1z"/>
			<path class="st16" d="M5.3,91.4c-2.9,0-5.3-2.3-5.3-5.1V63.1C0,60.3,2.4,58,5.3,58h24.3c2.9,0,5.3,2.3,5.3,5.1v11.6
				c0,0.7-0.6,1.2-1.3,1.2s-1.3-0.5-1.3-1.2V63.1c0-1.5-1.2-2.7-2.8-2.7H5.3c-1.5,0-2.8,1.2-2.8,2.7v23.2c0,1.5,1.2,2.7,2.8,2.7
				h24.3c1.5,0,2.8-1.2,2.8-2.7v-3.9c0-0.7,0.6-1.2,1.3-1.2s1.3,0.5,1.3,1.2v3.9c0,2.8-2.4,5.1-5.3,5.1H5.3z"/>
		</g>
		<g>
			<circle class="st23" cx="17.4" cy="128.9" r="15.6"/>
			<path class="st22" d="M13.5,134.7V123l11.7,5.9L13.5,134.7z"/>
			<path class="st24" d="M23.3,138.6c-8.6,0-15.6-7-15.6-15.6c0-2.7,0.7-5.4,2-7.7c-7.4,4.4-9.9,13.9-5.6,21.4
				c4.4,7.4,13.9,9.9,21.4,5.6c2.3-1.3,4.2-3.3,5.6-5.6C28.7,138,26,138.7,23.3,138.6z"/>
			<path class="st16" d="M13.5,135.9c-0.2,0-0.4-0.1-0.6-0.2c-0.4-0.2-0.6-0.6-0.6-1V123c0-0.2,0-0.4,0.1-0.5
				c0.2-0.4,0.6-0.7,1.1-0.7c0.2,0,0.4,0,0.5,0.1l11.7,5.9c0.2,0.1,0.4,0.3,0.5,0.5c0.3,0.6,0.1,1.3-0.5,1.6l-11.7,5.9
				C13.9,135.9,13.7,135.9,13.5,135.9L13.5,135.9z M14.7,132.8l7.8-3.9l-7.8-3.9V132.8z"/>
			<path class="st16" d="M17.4,145.7c-9.3,0-16.8-7.6-16.8-16.8c0-9.3,7.6-16.8,16.8-16.8s16.8,7.6,16.8,16.8
				C34.3,138.2,26.7,145.7,17.4,145.7z M17.4,114.5c-7.9,0-14.4,6.5-14.4,14.4s6.5,14.4,14.4,14.4s14.4-6.5,14.4-14.4
				S25.4,114.5,17.4,114.5z"/>
		</g>
	</g>
	<g>
		<path class="st25" d="M173.3,15h23.4v31.2h-23.4V15z"/>
		<path class="st26" d="M179.1,28.7V15h-5.9v31.2h23.4v-5.9h-5.9C184.4,40.4,179.1,35.1,179.1,28.7z"/>
		<path class="st16" d="M173.3,47.4c-0.7,0-1.2-0.5-1.2-1.2V15c0-0.7,0.5-1.2,1.2-1.2h23.4c0.7,0,1.2,0.5,1.2,1.2v31.2
			c0,0.7-0.5,1.2-1.2,1.2H173.3z M174.5,45h21V16.2h-21V45z"/>
		<path class="st16" d="M185,24c-0.7,0-1.2-0.5-1.2-1.2c0-0.7,0.5-1.2,1.2-1.2h3.9c0.7,0,1.2,0.5,1.2,1.2c0,0.7-0.5,1.2-1.2,1.2H185
			z"/>
		<path class="st16" d="M181.1,31.8c-0.7,0-1.2-0.5-1.2-1.2c0-0.7,0.5-1.2,1.2-1.2h7.8c0.7,0,1.2,0.5,1.2,1.2c0,0.7-0.5,1.2-1.2,1.2
			H181.1z"/>
		<path class="st16" d="M181.1,39.6c-0.7,0-1.2-0.5-1.2-1.2c0-0.7,0.5-1.2,1.2-1.2h7.8c0.7,0,1.2,0.5,1.2,1.2c0,0.7-0.5,1.2-1.2,1.2
			H181.1z"/>
	</g>
	<g>
		<path id="_409268072_48_" class="st27" d="M195.4,127.8c0,5.1-0.4,11.4-1.4,16.6c-0.1,0.6-0.7,1-1.4,1h-41.8
			c-2.2,0-1.2-2.7-0.9-5.1c1.2-10.6,0.7-22-0.8-33.3c-1.9-14.1-2.7-31.4-1.8-46.4c0-0.7,0.7-1.2,1.4-1.2h42c0.8,0,1.4,0.6,1.4,1.3
			c-0.9,15.3-0.2,32.7,1.9,47.5C194.9,115.2,195.4,121.8,195.4,127.8L195.4,127.8z"/>
		<path id="_409267760_96_" class="st28" d="M148.8,75.3c0-5.8,0.2-11.2,0.5-15.6l41.4,0c-0.4,4.5-0.5,9.9-0.5,15.7
			c0,10.8,0.6,22.4,1.7,31.8c0.8,6.5,1.2,12.8,1.2,18.5c0,10.3-1.2,16.6-1.8,19l-41.3,0c1.3-5.6,1.6-13,1.6-18.6
			c0-6.4-0.4-13.2-1.1-19.4C149.5,97.5,148.8,86,148.8,75.3 M146,75.3c0,10.5,0.6,22.2,1.7,31.9c0.7,5.9,1.1,12.7,1.1,19
			c0,8-0.6,15.5-2.1,20c0,0.1-0.1,0.2-0.1,0.4c0,0.6,0.5,1.1,1.1,1.1l44.7,0c0.5,0,0.9-0.3,1.1-0.8c0.1-0.3,2.3-7.1,2.3-21.1l0,0
			c0-5.9-0.4-12.3-1.2-18.9c-1.1-9.7-1.7-21.1-1.7-31.5c0-6.4,0.2-12.4,0.7-17.3c0,0,0-0.1,0-0.1c0-0.6-0.5-1.1-1.1-1.1h-44.7
			c-0.6,0-1.1,0.4-1.1,1C146.3,62.7,146,68.8,146,75.3L146,75.3z M195.9,125.7L195.9,125.7C195.9,125.7,195.9,125.7,195.9,125.7
			L195.9,125.7z"/>
		<path id="_409267760_95_" class="st16" d="M146.7,73.8c0-6.2,0.2-11.8,0.6-16.5l45.7,0c-0.4,4.8-0.6,10.5-0.6,16.6
			c0,11.4,0.7,23.6,1.9,33.5c0.8,6.9,1.3,13.4,1.3,19.5c0,10.8-1.4,17.5-2,20l-45.5,0c1.5-5.9,1.8-13.7,1.8-19.6
			c0-6.7-0.4-14-1.2-20.4C147.3,97.2,146.7,85.1,146.7,73.8 M143.6,73.8c0,11.1,0.7,23.4,1.9,33.6c0.8,6.3,1.2,13.4,1.2,20.1
			c0,8.5-0.7,16.3-2.3,21c0,0.1-0.1,0.3-0.1,0.4c0,0.6,0.5,1.2,1.2,1.2l49.4,0c0.5,0,1-0.3,1.2-0.8c0.1-0.3,2.5-7.5,2.5-22.2l0,0
			c0-6.2-0.4-12.9-1.3-19.9c-1.3-10.2-1.9-22.3-1.9-33.2c0-6.8,0.2-13.1,0.8-18.3c0,0,0-0.1,0-0.1c0-0.7-0.5-1.2-1.2-1.2h-49.4
			c-0.6,0-1.2,0.5-1.2,1.1C143.8,60.6,143.6,66.9,143.6,73.8L143.6,73.8z M198.6,127L198.6,127C198.6,127,198.6,127,198.6,127
			L198.6,127z"/>
		<g>
			<path id="_409267496_48_" class="st29" d="M148.7,67.4c0-2.4,0.1-4.7,0.2-7c0-0.5,0.5-1,1-1h6.9
				C156.7,64.8,151.5,67.5,148.7,67.4L148.7,67.4z"/>
			<path id="_409268120_48_" class="st29" d="M183.7,59.4h7c0.6,0,1.1,0.5,1,1.1c-0.1,2.3-0.2,4.6-0.2,7
				C188.8,67.6,183.9,64.6,183.7,59.4L183.7,59.4z"/>
			<path id="_409267040_48_" class="st29" d="M193.2,137.8c-0.2,2.3-0.4,4.6-0.7,6.6c-0.1,0.5-0.5,0.8-1,0.8H185
				C184.9,142.6,187.9,137.5,193.2,137.8L193.2,137.8z"/>
			<path id="_409266752_48_" class="st29" d="M157.7,145.2h-6.8c-1.6,0-0.9-2.3-0.6-4.3c0.1-1.2,0.2-2.3,0.3-3.5
				C154.5,137.9,157.5,141.2,157.7,145.2L157.7,145.2z"/>
		</g>
		<path id="_409266968_48_" class="st29" d="M190.9,102c0,10.9-8.8,19.7-19.6,19.7c-10.8,0-19.6-8.8-19.6-19.7
			c0-10.9,8.8-19.7,19.6-19.7C182.1,82.3,190.9,91.1,190.9,102L190.9,102z"/>
		<ellipse class="st28" cx="171.7" cy="131.9" rx="4.7" ry="4.7"/>
		<ellipse class="st28" cx="171.7" cy="71.8" rx="4.7" ry="4.7"/>
		<g>
			<path id="_409266824_49_" class="st27" d="M180.4,102c0,4.8-6.4,6.6-6.4,4c0-0.7,0.5-1.2,1.2-1.2c3.6,0,3.6-5.5,0-5.5
				c-4.6,0-0.9,7.9-7.9,7.9c-6.8,0-6.8-10.4,0-10.4c1.6,0,1.6,2.4,0,2.4c-3.6,0-3.6,5.5,0,5.5c4.6,0,0.9-7.9,7.9-7.9
				C178,96.8,180.4,99.1,180.4,102L180.4,102z"/>
			<path id="_409267328_49_" class="st27" d="M164.6,102c0,1.6-1.9,1.2-3.3,1.2c-1.6,0-1.6-2.4,0-2.4
				C162.6,100.7,164.6,100.4,164.6,102z"/>
			<path id="_409266872_49_" class="st27" d="M182.5,102c0,1.6-1.9,1.2-3.3,1.2c-1.6,0-1.6-2.4,0-2.4
				C180.5,100.7,182.5,100.4,182.5,102z"/>
		</g>
	</g>
</g>
</svg>
