<svg width="350" height="260" viewBox="0 0 350 260" fill="none" xmlns="http://www.w3.org/2000/svg">
<rect x="0.5" y="0.5" width="349" height="259" fill="#FCFCFC" stroke="#FFC5BC"/>
<g clip-path="url(#clip0_788_107361)">
<path d="M252.716 119.648C252.32 120.539 251.924 121.431 251.527 122.323L237.361 156.401L232.804 149.862L221.016 132.922L229.238 113.01C229.634 112.119 229.931 111.227 230.229 110.435L246.376 117.072L252.716 119.648Z" fill="#C81E1E"/>
<path d="M246.475 117.171C246.178 117.865 245.881 118.657 245.485 119.351L232.804 149.962L221.016 133.022L229.238 113.11C229.634 112.218 229.931 111.326 230.229 110.534L246.475 117.171Z" fill="#F44335"/>
<path d="M207.245 109.147C206.948 115.19 206.354 121.233 205.363 127.177L184.362 130.545C184.362 130.248 184.362 129.95 184.263 129.554C183.866 122.421 184.064 115.19 184.758 108.057C184.758 107.958 184.758 107.859 184.758 107.661L207.245 109.147Z" fill="#0377BC"/>
<path d="M201.302 109.147C201.005 115.19 200.411 121.233 199.42 127.177L184.362 129.653C183.966 122.521 184.164 115.289 184.857 108.156L201.302 109.147Z" fill="#02A9F4"/>
<path d="M150.186 97.8535C149.591 98.0517 148.997 98.0517 148.403 97.9526C140.279 97.061 132.85 77.9416 132.85 77.9416L133.444 62.4875C134.732 62.9829 135.425 60.3081 136.218 57.6334C136.911 55.2558 137.704 52.6802 138.992 52.383C141.864 51.6895 147.115 60.8034 148.997 58.8222L156.328 72.2949C156.328 72.2949 158.904 95.7732 150.186 97.8535Z" fill="#DFC49C"/>
<path d="M148.303 97.8536C140.18 96.9621 132.75 77.8426 132.75 77.8426L133.344 62.3886C134.632 62.8839 135.326 60.2092 136.118 57.5344C138.694 59.8129 141.666 63.7755 142.954 62.4876L150.383 75.9604C150.383 75.9604 152.068 90.8201 148.303 97.8536Z" fill="#FFE0B2"/>
<path d="M172.178 140.055L166.036 160.066L164.352 158.58L158.904 153.825L148.7 144.909L134.336 84.1826L132.85 77.8425C134.435 80.2201 136.713 82.1023 139.388 83.2911C141.666 84.2817 144.242 84.4798 146.719 83.8855C147.808 83.5883 148.799 83.2911 149.79 82.6967C153.356 80.4182 155.833 76.6538 156.328 72.2949L172.178 140.055Z" fill="#C81E1E"/>
<path d="M163.063 140.055L158.803 153.924L148.599 145.008L134.334 84.1827C135.424 84.2818 136.513 84.1827 137.603 83.8856C138.197 83.7865 138.792 83.5884 139.386 83.2912C141.665 84.2818 144.24 84.4799 146.717 83.8856C147.807 83.5884 148.797 83.2912 149.788 82.6968L163.063 140.055Z" fill="#F44335"/>
<path d="M136.119 146.791L135.921 184.238L126.906 180.869L112.145 175.421L88.0725 117.468C87.7753 116.775 87.7753 115.883 88.0725 115.19C88.3697 114.496 88.9641 113.902 89.6575 113.506L107.687 106.076L114.721 103.203C116.306 102.609 117.99 103.302 118.683 104.788L120.962 110.336L122.151 113.109L123.339 115.883L125.618 121.431L126.807 124.205L127.995 126.978L130.274 132.526L131.463 135.3L132.651 138.074L136.119 146.494V146.791Z" fill="#FEC108"/>
<path d="M127.005 149.763L126.807 180.87L112.046 175.421L88.0725 117.468C87.7753 116.775 87.7753 115.883 88.0725 115.19C88.3697 114.496 88.9641 113.902 89.6575 113.506L107.687 106.076C108.579 106.373 109.272 106.968 109.569 107.859L111.848 113.407L113.037 116.181L114.226 118.954L116.504 124.502L117.693 127.276L118.882 130.05L121.16 135.597L122.349 138.371L123.538 141.145L127.005 149.565V149.763Z" fill="#FFDC00"/>
<path d="M262.325 196.224C262.325 201.772 260.146 207.221 256.183 211.084C252.221 215.047 246.871 217.226 241.324 217.226H108.775C97.9774 217.226 88.9625 209.103 87.7738 198.404C86.585 187.705 93.7176 177.799 104.218 175.52C104.714 175.421 105.209 175.322 105.704 175.322C106.695 175.124 107.686 175.025 108.676 175.124C110.757 175.124 112.738 175.421 114.719 176.015C115.016 160.561 126.508 147.584 141.764 145.305C143.25 145.107 144.835 145.008 146.321 145.008C150.382 145.008 154.345 145.801 158.109 147.287C160.685 148.277 163.063 149.664 165.341 151.348C170.294 138.173 182.182 128.861 196.15 127.177C197.636 126.978 199.122 126.879 200.608 126.879C212.496 126.879 223.789 132.526 230.823 142.135C237.856 151.745 240.036 164.128 236.568 175.52C236.568 175.52 236.568 175.52 236.568 175.619C236.668 175.619 236.668 175.619 236.767 175.619C238.253 175.322 239.739 175.124 241.324 175.124C246.871 175.124 252.32 177.303 256.183 181.266C260.146 185.327 262.325 190.677 262.325 196.224Z" fill="#CFD8DC"/>
<path d="M253.31 196.225C253.31 201.772 251.131 207.221 247.168 211.084C243.206 214.948 237.856 217.226 232.309 217.226H108.775C97.9774 217.226 88.9625 209.103 87.7738 198.404C86.585 187.705 93.7176 177.799 104.218 175.52C104.714 175.619 105.209 175.718 105.704 175.916C105.704 175.718 105.704 175.52 105.704 175.322C106.695 175.124 107.686 175.025 108.676 175.124C110.757 175.124 112.738 175.421 114.719 176.016C115.016 160.561 126.508 147.584 141.764 145.306C147.113 146.098 152.067 144.711 156.227 147.881C156.723 146.494 157.416 148.575 158.109 147.287C160.685 148.277 163.063 149.664 165.341 151.348C170.294 138.173 182.182 128.861 196.15 127.177C214.972 129.554 229.139 145.504 229.238 164.524C229.238 168.288 228.643 171.954 227.554 175.619C229.04 175.322 230.625 175.124 232.21 175.124C233.696 175.124 235.182 175.223 236.568 175.619H236.668C246.376 177.799 253.31 186.318 253.31 196.225Z" fill="#F5F5F5"/>
<path d="M148.897 58.8224C147.015 61.0018 144.538 62.5868 141.764 63.3793C138.891 63.8746 136.018 63.5775 133.344 62.4877L133.938 46.5384C134.037 44.7552 135.226 43.2692 136.91 42.873C137.207 42.7739 137.504 42.7739 137.802 42.7739C139.288 42.7739 140.575 43.5664 141.269 44.8543L148.897 58.8224Z" fill="#37474F"/>
<path d="M207.245 109.147C204.472 109.345 201.698 109.444 198.924 109.246C193.872 109.048 189.216 108.255 184.758 107.661C185.253 102.906 185.848 98.1509 186.64 93.3958C186.64 93.2967 186.64 93.1976 186.739 92.9995C193.475 93.3958 200.311 93.8911 207.344 94.2873C207.543 99.3396 207.543 104.293 207.245 109.147Z" fill="#707070"/>
<path d="M201.302 109.147C200.51 109.246 199.717 109.246 199.024 109.246C193.971 109.048 189.315 108.255 184.857 107.661C185.353 102.906 185.947 98.1508 186.74 93.3958C191.594 93.6929 196.448 93.9901 201.302 94.2873C201.5 99.3396 201.5 104.293 201.302 109.147Z" fill="#9E9E9E"/>
<path d="M207.148 94.4855L198.529 93.9902L186.741 93.2967C186.741 93.2967 174.655 82.3006 185.651 70.2147C192.288 62.884 196.053 57.2373 197.44 52.185C197.935 50.4018 198.232 48.6187 198.133 46.7365C198.133 46.1421 198.43 45.5477 199.025 45.3496C199.619 45.1514 200.214 45.2505 200.709 45.6467C208.139 52.7794 224.881 72.9885 207.148 94.4855Z" fill="#624421"/>
<path d="M198.529 93.8911L186.741 93.1977C186.741 93.1977 174.655 82.2015 185.651 70.1157C192.288 62.7849 196.053 57.1382 197.44 52.0859C204.671 61.5961 211.804 77.3474 198.529 93.8911Z" fill="#825A2C"/>
<path d="M262.129 103.203C262.228 103.698 262.129 104.194 261.732 104.59C257.869 109.048 254.798 114.199 252.618 119.648C251.529 120.44 250.34 121.035 249.052 121.332C246.576 122.025 243.901 122.025 241.325 121.233C240.533 121.035 239.839 120.837 239.146 120.539C239.146 120.539 239.146 120.539 239.047 120.539C235.877 119.351 233.103 117.072 231.419 114.1C230.824 113.01 230.329 111.822 230.131 110.534C232.508 105.085 233.895 99.2405 234.391 93.2966C234.391 92.8013 234.688 92.306 235.084 92.1078L249.448 83.093L252.024 81.5079L256.383 78.7341L257.572 83.7864L262.129 103.203Z" fill="#FEC108"/>
<path d="M254.302 103.203C254.401 103.698 254.203 104.194 253.905 104.59C250.042 109.048 246.971 114.199 244.792 119.648C243.801 120.341 242.711 120.936 241.522 121.233C240.73 121.035 240.036 120.837 239.343 120.539C239.343 120.539 239.343 120.539 239.244 120.539C236.074 119.351 233.3 117.072 231.616 114.1C231.022 113.01 230.526 111.822 230.328 110.534C232.706 105.085 234.093 99.2405 234.588 93.2966C234.588 92.8013 234.885 92.306 235.281 92.1079L249.646 83.093L249.844 83.7865L254.302 103.203Z" fill="#FFDC00"/>
<path d="M108.776 219.207C100.158 219.207 92.4306 214.452 88.468 206.824C84.5054 199.196 85.0998 190.082 90.053 183.148C94.3128 177.105 101.346 173.44 108.776 173.44C109.767 173.44 110.857 173.539 111.847 173.638C111.946 173.638 111.946 173.638 112.045 173.638C112.343 173.638 112.541 173.539 112.739 173.341C113.036 173.142 113.135 172.845 113.234 172.548C115.414 155.905 129.679 143.324 146.421 143.225C152.464 143.225 158.308 144.81 163.46 147.881C163.658 147.98 163.856 148.079 164.054 148.079C164.153 148.079 164.252 148.079 164.45 147.98C164.748 147.881 165.045 147.683 165.144 147.386C171.682 133.913 185.551 125.195 200.609 125.195C204.77 125.195 208.93 125.889 212.992 127.177C231.715 133.319 243.008 152.636 239.343 171.954C239.244 172.35 239.343 172.647 239.64 172.944C239.838 173.242 240.235 173.341 240.532 173.341H240.928C248.952 173.341 256.481 177.6 260.543 184.535C264.704 191.568 264.803 200.286 260.84 207.419C256.877 214.551 249.349 219.009 241.225 219.108H108.776V219.207ZM108.677 177.006C98.0772 177.006 89.3596 185.625 89.3596 196.324C89.3596 207.023 97.9782 215.641 108.677 215.641H241.225C251.825 215.641 260.543 207.023 260.543 196.324C260.543 185.625 251.924 177.006 241.225 177.006C239.739 177.006 238.352 177.204 236.966 177.501C236.866 177.501 236.668 177.501 236.569 177.501C236.074 177.501 235.579 177.303 235.281 176.907C234.885 176.412 234.687 175.718 234.885 175.124C235.975 171.756 236.47 168.189 236.47 164.623C236.47 147.287 224.087 132.427 207.048 129.356C204.968 128.96 202.788 128.762 200.609 128.762C185.749 128.762 172.276 138.074 167.125 152.042C166.927 152.537 166.531 152.933 165.936 153.131C165.738 153.131 165.639 153.231 165.441 153.231C165.045 153.231 164.649 153.131 164.351 152.834C159.2 148.971 152.86 146.89 146.421 146.89C141.963 146.89 137.406 147.98 133.344 149.862C123.24 154.816 116.8 164.821 116.602 176.114C116.602 176.709 116.305 177.204 115.909 177.501C115.612 177.699 115.215 177.898 114.819 177.898C114.621 177.898 114.423 177.898 114.324 177.799C112.442 177.303 110.658 177.006 108.677 177.006Z" fill="#35414D" stroke="#35414D" stroke-width="1.711" stroke-miterlimit="10"/>
<path d="M112.045 177.204C111.352 177.204 110.658 176.808 110.361 176.114L86.3875 118.162C85.3968 115.685 86.5856 112.911 88.9631 111.822L114.026 101.42C114.621 101.222 115.215 101.024 115.81 101.024C117.791 101.024 119.475 102.212 120.267 103.996L137.604 145.801C138 146.791 137.604 147.881 136.712 148.277C136.514 148.376 136.217 148.476 136.019 148.476C135.821 148.476 135.622 148.476 135.424 148.376C135.028 148.178 134.632 147.881 134.434 147.485L134.335 147.188L116.998 105.482C116.8 104.986 116.404 104.689 115.909 104.689C115.711 104.689 115.611 104.689 115.413 104.788L90.35 115.19C90.0528 115.289 89.8547 115.586 89.6566 115.883C89.5575 116.181 89.5575 116.478 89.6566 116.775L113.729 174.728C113.927 175.322 113.927 175.916 113.531 176.412C113.234 176.907 112.739 177.204 112.144 177.204C112.144 177.204 112.144 177.204 112.045 177.204Z" fill="#35414D" stroke="#35414D" stroke-width="1.711" stroke-miterlimit="10"/>
<path d="M108.182 120.638C107.291 120.638 106.597 120.044 106.399 119.153C106.201 118.261 106.696 117.468 107.489 117.171L121.358 111.425C121.655 111.326 121.853 111.326 122.15 111.326C122.844 111.326 123.537 111.723 123.834 112.416C124.231 113.308 123.735 114.397 122.844 114.794L108.975 120.539C108.678 120.638 108.48 120.638 108.182 120.638Z" fill="#35414D" stroke="#35414D" stroke-width="1.711" stroke-miterlimit="10"/>
<path d="M118.385 129.554C117.494 129.554 116.8 128.96 116.602 128.068C116.404 127.177 116.899 126.384 117.692 126.087L126.013 122.62C126.212 122.521 126.509 122.521 126.707 122.521C127.4 122.521 128.094 122.917 128.391 123.61C128.589 124.106 128.589 124.502 128.391 124.997C128.193 125.493 127.896 125.79 127.4 125.988L119.079 129.455C118.881 129.455 118.584 129.554 118.385 129.554Z" fill="#35414D" stroke="#35414D" stroke-width="1.711" stroke-miterlimit="10"/>
<path d="M117.395 142.928C116.504 142.928 115.81 142.334 115.612 141.442C115.414 140.55 115.909 139.758 116.702 139.461L130.571 133.715C130.769 133.616 131.066 133.616 131.264 133.616C131.958 133.616 132.651 134.012 132.948 134.706C133.146 135.201 133.146 135.597 132.948 136.093C132.75 136.588 132.453 136.885 131.958 137.083L118.089 142.829C117.891 142.928 117.692 142.928 117.395 142.928Z" fill="#35414D" stroke="#35414D" stroke-width="1.711" stroke-miterlimit="10"/>
<path d="M148.6 146.89C147.807 146.89 147.015 146.296 146.817 145.504L131.065 78.2388C130.867 77.3472 131.462 76.3566 132.452 76.1584C132.551 76.1584 132.749 76.1584 132.848 76.1584C133.641 76.1584 134.433 76.7528 134.632 77.5454L150.383 144.612C150.482 145.107 150.383 145.702 150.086 146.098C149.689 146.593 149.095 146.89 148.6 146.89Z" fill="#35414D" stroke="#35414D" stroke-width="1.711" stroke-miterlimit="10"/>
<path d="M172.178 141.838C171.287 141.838 170.593 141.244 170.395 140.451L154.545 72.6914C154.446 72.097 154.644 71.4035 155.04 71.0073C155.337 70.7101 155.833 70.512 156.229 70.512C156.427 70.512 156.625 70.512 156.724 70.611C157.319 70.8092 157.814 71.3045 157.913 71.8989L173.763 139.659C173.961 140.65 173.367 141.64 172.376 141.838C172.376 141.838 172.277 141.838 172.178 141.838Z" fill="#35414D" stroke="#35414D" stroke-width="1.711" stroke-miterlimit="10"/>
<path d="M143.746 86.065C138.694 85.7678 134.038 83.093 131.264 78.8333C131.066 78.5361 130.967 78.2389 130.967 77.8426L132.057 46.5383C132.156 43.9626 133.939 41.7832 136.514 41.1888C137.01 40.9907 137.505 40.8916 137.901 40.8916C139.982 40.8916 141.963 42.0804 142.954 43.8635L157.912 71.4034C158.11 71.7006 158.11 72.0969 158.11 72.3941C158.11 72.7903 157.021 83.1921 147.015 85.5696C145.926 85.8668 144.836 86.065 143.746 86.065ZM137.901 44.557C137.703 44.557 137.604 44.557 137.406 44.656C136.514 44.8542 135.821 45.7458 135.722 46.6373L134.632 76.951C134.632 77.2482 134.731 77.4464 134.83 77.6445C136.911 80.6164 140.378 82.3996 143.944 82.3996C144.638 82.3996 145.331 82.3005 146.124 82.2015C150.482 81.0127 153.653 77.4464 154.346 73.0875C154.346 72.7903 154.346 72.5922 154.247 72.295L139.784 45.6467C139.387 44.9532 138.694 44.557 137.901 44.557Z" fill="#35414D" stroke="#35414D" stroke-width="1.711" stroke-miterlimit="10"/>
<path d="M245.484 123.709C243.107 123.709 240.729 123.214 238.55 122.223C233.2 120.44 229.436 115.883 228.544 110.435C228.445 109.84 228.742 109.246 229.337 108.85C229.634 108.652 230.03 108.552 230.327 108.552C230.625 108.552 230.922 108.652 231.12 108.751C231.714 109.048 232.11 109.642 232.11 110.336C232.11 110.435 232.11 110.435 232.11 110.534C233.002 114.496 235.875 117.765 239.838 118.954C241.423 119.747 243.206 120.242 245.088 120.242C247.267 120.242 249.447 119.648 251.329 118.36L251.428 118.261C251.725 117.964 252.121 117.865 252.617 117.865C253.112 117.865 253.607 118.063 254.004 118.459C254.598 119.251 254.598 120.341 253.806 120.936C251.527 122.719 248.654 123.709 245.682 123.709H245.484Z" fill="#35414D" stroke="#35414D" stroke-width="1.711" stroke-miterlimit="10"/>
<path d="M139.387 65.4595C137.109 65.4595 134.929 64.9642 132.75 64.1717C132.255 63.9736 131.957 63.6764 131.66 63.2801C131.561 62.7848 131.561 62.2895 131.66 61.7942C131.957 61.1007 132.651 60.6054 133.344 60.6054C133.542 60.6054 133.741 60.6054 133.939 60.7044C135.524 61.3979 137.307 61.7942 139.189 61.7942C139.883 61.7942 140.576 61.6951 141.269 61.596C141.369 61.596 141.369 61.596 141.468 61.596C143.845 60.8035 146.025 59.4166 147.709 57.5344C148.006 57.2372 148.501 57.0391 148.997 57.0391C149.492 57.0391 149.888 57.2372 150.284 57.5344C150.681 57.8316 150.78 58.3269 150.879 58.8222C150.879 59.3175 150.681 59.7138 150.383 60.1101C148.204 62.5867 145.43 64.3698 142.359 65.1623C141.269 65.3605 140.378 65.4595 139.387 65.4595Z" fill="#35414D" stroke="#35414D" stroke-width="1.711" stroke-miterlimit="10"/>
<path d="M161.577 149.763C160.686 149.763 159.992 149.169 159.794 148.376L150.977 110.732C150.779 109.84 151.374 108.85 152.364 108.652C152.463 108.652 152.662 108.652 152.761 108.652C153.553 108.652 154.346 109.246 154.544 110.039L163.36 147.683C163.46 148.178 163.36 148.773 163.063 149.169C162.667 149.466 162.172 149.763 161.577 149.763Z" fill="#35414D" stroke="#35414D" stroke-width="1.711" stroke-miterlimit="10"/>
<path d="M149.393 97.4573C148.501 97.4573 147.808 96.8629 147.61 96.0704L144.836 84.3808C144.737 83.8855 144.836 83.3902 145.034 82.9939C145.331 82.5977 145.727 82.3005 146.124 82.2014C146.223 82.2014 146.421 82.2014 146.52 82.2014C147.411 82.2014 148.105 82.7958 148.303 83.5883L151.077 95.2779C151.176 95.7732 151.077 96.3676 150.78 96.7639C150.482 97.1601 149.888 97.4573 149.393 97.4573Z" fill="#35414D" stroke="#35414D" stroke-width="1.711" stroke-miterlimit="10"/>
<path d="M221.016 134.805C220.421 134.805 219.827 134.507 219.53 134.012C219.233 133.517 219.133 132.922 219.332 132.328L227.554 112.416C227.752 111.822 228.346 111.326 229.04 111.227C229.139 111.227 229.238 111.227 229.337 111.227C229.931 111.227 230.427 111.524 230.823 111.921C231.219 112.416 231.318 113.11 231.021 113.704L222.7 133.715C222.403 134.408 221.709 134.805 221.016 134.805Z" fill="#35414D" stroke="#35414D" stroke-width="1.711" stroke-miterlimit="10"/>
<path d="M237.361 158.283C236.767 158.283 236.173 157.986 235.875 157.49C235.578 156.995 235.479 156.401 235.677 155.806L249.843 121.728C250.042 121.134 250.636 120.638 251.329 120.539C251.429 120.539 251.528 120.539 251.627 120.539C252.221 120.539 252.716 120.836 253.113 121.233C253.509 121.728 253.608 122.422 253.311 123.016L239.145 157.094C238.748 157.887 238.055 158.283 237.361 158.283Z" fill="#35414D" stroke="#35414D" stroke-width="1.711" stroke-miterlimit="10"/>
<path d="M251.528 124.205C251.33 124.205 251.033 124.205 250.834 124.106C250.438 123.908 250.042 123.61 249.844 123.115C249.646 122.62 249.646 122.223 249.844 121.728C252.32 115.289 255.689 109.345 260.047 103.996C260.246 103.698 260.345 103.302 260.246 103.005L256.877 88.5416C256.778 88.0463 256.283 87.65 255.788 87.65H255.689C255.193 87.65 254.797 87.9472 254.599 88.3434L250.141 99.1415C249.844 99.8349 249.249 100.231 248.457 100.231C248.259 100.231 247.962 100.231 247.764 100.132C246.872 99.7359 246.377 98.6461 246.773 97.7546L254.797 78.2389C255.094 77.5454 255.689 77.1492 256.481 77.1492C256.481 77.1492 256.58 77.1492 256.679 77.1492C257.472 77.2482 258.165 77.7436 258.264 78.5361L263.911 103.005C264.208 104.095 263.812 105.184 263.118 105.977C258.76 111.128 255.491 116.973 253.113 123.214C252.915 123.709 252.221 124.205 251.528 124.205Z" fill="#35414D" stroke="#35414D" stroke-width="1.711" stroke-miterlimit="10"/>
<path d="M229.239 114.992C229.041 114.992 228.744 114.992 228.545 114.893C228.149 114.695 227.753 114.397 227.555 113.902C227.357 113.506 227.357 113.01 227.555 112.515C230.329 106.472 232.112 100.033 232.706 93.3957C232.706 92.2069 233.301 91.2163 234.291 90.6219L255.59 77.3472C255.887 77.1491 256.184 77.05 256.581 77.05C256.977 77.05 257.472 77.2482 257.769 77.4463C258.364 77.9416 258.562 78.8332 258.265 79.5267L250.241 99.0423C249.943 99.7358 249.349 100.132 248.557 100.132C248.358 100.132 248.061 100.132 247.863 100.033C246.971 99.6367 246.476 98.547 246.872 97.6554L251.33 86.8574C251.528 86.3621 251.429 85.7677 251.033 85.4705C250.835 85.2724 250.538 85.1733 250.241 85.1733C250.042 85.1733 249.844 85.2724 249.646 85.3715L237.065 93.2966C236.768 93.4947 236.57 93.7919 236.471 94.1882C235.777 101.024 233.895 107.661 231.121 113.902C230.626 114.496 229.932 114.992 229.239 114.992Z" fill="#35414D" stroke="#35414D" stroke-width="1.711" stroke-miterlimit="10"/>
<path d="M184.363 132.526C183.372 132.526 182.58 131.734 182.58 130.842C182.184 123.115 182.283 115.289 183.075 107.661C183.471 102.906 184.165 98.0519 184.957 92.9005C185.057 92.0089 185.849 91.4146 186.741 91.4146H186.84C193.576 91.8108 200.511 92.3061 207.445 92.7024C208.337 92.8015 209.129 93.4949 209.129 94.3865C209.624 105.482 209.03 116.676 207.247 127.573C207.148 128.267 206.752 128.762 206.157 129.059C205.959 129.158 205.761 129.158 205.464 129.158C205.068 129.158 204.671 129.059 204.374 128.762C203.879 128.366 203.582 127.672 203.681 127.078C205.266 117.27 205.86 107.265 205.662 97.2593C205.662 96.665 205.167 96.1696 204.572 96.0706L189.415 95.179C188.821 95.179 188.326 95.5753 188.227 96.1696C187.632 100.528 187.137 104.392 186.741 107.958C186.047 115.388 185.849 123.016 186.344 130.545C186.344 131.04 186.245 131.536 185.849 131.833C185.552 132.229 185.057 132.427 184.561 132.427L184.363 132.526Z" fill="#35414D" stroke="#35414D" stroke-width="1.711" stroke-miterlimit="10"/>
<path d="M207.147 96.2687C206.454 96.2687 205.76 95.8724 205.463 95.278C205.166 94.6836 205.265 93.8911 205.661 93.3958C210.912 87.551 213.586 79.6258 212.893 71.7007C211.506 63.1811 207.643 55.4541 201.699 49.4112C201.501 49.2131 201.203 49.0149 200.807 49.0149C200.708 49.0149 200.609 49.0149 200.411 49.114C200.015 49.2131 199.618 49.6093 199.618 50.1046C198.727 56.0485 194.764 62.6858 186.839 71.5026C184.164 74.2764 182.678 78.1399 182.876 82.0034C183.075 85.8669 184.858 89.6313 187.929 92.1079C188.226 92.4051 188.424 92.8014 188.523 93.2967C188.622 93.792 188.424 94.2874 188.028 94.5846C187.632 94.9808 187.235 95.1789 186.641 95.1789C186.146 95.1789 185.749 94.9808 185.452 94.6836C183.174 92.5042 181.49 89.9285 180.301 86.9566C177.824 80.7155 179.31 73.682 184.164 69.0259C196.052 55.9494 197.439 49.4112 195.755 43.2692C195.557 42.4767 195.854 41.6842 196.448 41.2879C196.746 41.0898 197.043 40.9907 197.439 40.9907C197.835 40.9907 198.231 41.0898 198.529 41.387C199.222 41.8823 214.676 54.2653 216.459 71.3044C217.252 80.1212 214.379 89.037 208.435 95.6743C208.237 95.9715 207.742 96.2687 207.147 96.2687Z" fill="#35414D" stroke="#35414D" stroke-width="1.711" stroke-miterlimit="10"/>
<path d="M201.104 85.7678C200.41 85.7678 199.816 85.3716 199.519 84.7772C199.221 84.1828 199.32 83.3903 199.717 82.895C202.49 79.0315 203.679 74.0783 202.986 69.4222V69.3232C202.788 68.7288 202.986 68.0353 203.481 67.54C203.778 67.2428 204.274 67.0447 204.769 67.0447C204.967 67.0447 205.066 67.0447 205.264 67.1437C205.859 67.3419 206.354 67.8372 206.552 68.4316C207.642 74.2764 206.255 80.3193 202.788 85.1735C202.292 85.4707 201.698 85.7678 201.104 85.7678Z" fill="#35414D" stroke="#35414D" stroke-width="1.711" stroke-miterlimit="10"/>
<path d="M200.213 111.029C196.349 110.93 192.486 110.633 188.622 110.039L188.127 109.939C187.236 109.84 186.344 109.741 185.551 109.642C184.561 109.543 183.867 108.652 183.966 107.661C184.066 106.769 184.858 106.076 185.75 106.076C185.849 106.076 185.849 106.076 185.948 106.076C186.938 106.175 188.028 106.373 189.019 106.472C192.486 107.067 196.151 107.364 199.718 107.364C201.402 107.364 203.086 107.265 204.77 107.166H204.869C205.761 107.166 206.553 107.859 206.652 108.751C206.751 109.741 206.058 110.633 205.067 110.732C203.68 110.93 201.996 111.029 200.213 111.029Z" fill="#35414D" stroke="#35414D" stroke-width="1.711" stroke-miterlimit="10"/>
<path d="M162.27 198.107C161.577 198.107 160.883 197.71 160.586 197.017C159.695 194.838 159.199 192.658 159.199 190.281C159.199 182.355 164.648 175.52 172.375 173.836C173.564 173.539 174.851 173.44 176.04 173.44C182.578 173.44 188.522 177.204 191.296 183.148C191.692 184.04 191.296 185.129 190.405 185.526C190.206 185.625 189.909 185.724 189.612 185.724C188.919 185.724 188.225 185.327 187.928 184.733C185.748 180.077 181.092 177.105 176.04 177.105C168.61 177.105 162.666 183.049 162.666 190.38C162.666 192.262 163.063 194.045 163.756 195.729C163.954 196.125 163.954 196.621 163.756 197.116C163.558 197.611 163.261 197.909 162.766 198.107C162.766 198.008 162.567 198.107 162.27 198.107Z" fill="#35414D" stroke="#35414D" stroke-width="1.711" stroke-miterlimit="10"/>
<path d="M208.137 190.083C207.443 190.083 206.75 189.686 206.453 188.993C204.769 185.427 201.103 183.049 197.141 183.049C194.862 183.049 192.584 183.842 190.801 185.328C190.503 185.625 190.107 185.724 189.711 185.724C189.117 185.724 188.621 185.427 188.324 185.03C188.027 184.634 187.928 184.139 187.928 183.743C188.027 183.247 188.225 182.851 188.621 182.554C190.999 180.572 194.07 179.582 197.141 179.582C202.589 179.582 207.542 182.752 209.722 187.705C210.019 188.299 209.92 188.894 209.623 189.389C209.326 189.686 208.731 190.083 208.137 190.083Z" fill="#35414D" stroke="#35414D" stroke-width="1.711" stroke-miterlimit="10"/>
<path d="M129.777 173.935C128.787 173.935 127.994 173.143 127.994 172.152C127.994 161.849 138.198 158.382 138.297 158.382C138.495 158.283 138.693 158.283 138.891 158.283C139.684 158.283 140.377 158.778 140.575 159.472C140.773 159.967 140.674 160.462 140.476 160.859C140.278 161.255 139.882 161.651 139.387 161.75C134.929 163.236 131.858 167.298 131.56 172.053C131.66 173.143 130.768 173.935 129.777 173.935Z" fill="#35414D" stroke="#35414D" stroke-width="1.711" stroke-miterlimit="10"/>
<path d="M180.993 152.933C180.894 152.933 180.696 152.933 180.597 152.834C179.606 152.636 179.012 151.646 179.309 150.655C181.191 142.829 188.126 137.38 196.15 137.281C197.141 137.281 197.933 138.074 197.933 139.064C197.933 140.055 197.141 140.848 196.15 140.848C189.81 141.046 184.361 145.405 182.876 151.547C182.578 152.339 181.885 152.933 180.993 152.933Z" fill="#35414D" stroke="#35414D" stroke-width="1.711" stroke-miterlimit="10"/>
</g>
<defs>
<clipPath id="clip0_788_107361">
<rect width="179.901" height="180" fill="white" transform="translate(85 40)"/>
</clipPath>
</defs>
</svg>
