<svg width="350" height="260" viewBox="0 0 350 260" fill="none" xmlns="http://www.w3.org/2000/svg">
<rect x="0.5" y="0.5" width="349" height="259" fill="#FCFCFC" stroke="#FFC5BC"/>
<g clip-path="url(#clip0_788_104115)">
<path d="M265.1 123V199.4C265.1 205 262.6 210 258.7 213.4C255.5 216.2 251.2 217.9 246.6 217.9H102.6C97.9996 217.9 93.7996 216.2 90.4996 213.4C86.5996 210 84.0996 205 84.0996 199.4V123C84.0996 117.6 86.3996 112.5 90.3996 109.1L162.4 46.7C169.3 40.6 179.7 40.6 186.6 46.7L258.6 109.1C262.8 112.5 265.1 117.6 265.1 123Z" fill="#FFCD57"/>
<path d="M265.1 175.8V199.5C265.1 205.1 262.6 210.1 258.7 213.5C255.5 216.3 251.2 218 246.6 218H102.6C97.9996 218 93.7996 216.3 90.4996 213.5C86.5996 210.1 84.0996 205.1 84.0996 199.5V123C84.0996 120.3 84.6996 117.6 85.7996 115.3C98.1996 151.5 156 178.9 225.3 178.9C239.1 178.9 252.5 177.8 265.1 175.8Z" fill="#F4BA43"/>
<path d="M258.7 213.4C255.5 216.2 251.2 217.9 246.6 217.9H102.6C98 217.9 93.8 216.2 90.5 213.4L158.3 166L170.8 174.7C173.1 176.3 176.2 176.3 178.4 174.7L190.9 166L258.7 213.4Z" fill="#FFCD57"/>
<path d="M246.7 220H102.7C97.6996 220 92.9996 218.2 89.1996 215C88.6996 214.6 88.3996 213.9 88.4996 213.3C88.4996 212.7 88.8996 212.1 89.3996 211.7L157.2 164.3C157.9 163.8 158.9 163.8 159.6 164.3L172 173C173.6 174.1 175.7 174.1 177.2 173L189.7 164.3C190.4 163.8 191.4 163.8 192.1 164.3L259.9 211.7C260.4 212.1 260.8 212.7 260.8 213.3C260.8 213.9 260.6 214.6 260.1 215C256.4 218.2 251.6 220 246.7 220ZM94.1996 213.4C96.6996 214.9 99.5996 215.8 102.7 215.8H246.7C249.7 215.8 252.6 215 255.2 213.4L191 168.5L179.7 176.4C176.7 178.5 172.6 178.5 169.6 176.4L158.3 168.5L94.1996 213.4Z" fill="#35414D"/>
<path d="M174.6 178C172.8 178 171.1 177.5 169.6 176.4L85.0996 117.3C84.1996 116.6 83.8996 115.3 84.5996 114.4C85.2996 113.5 86.5996 113.2 87.4996 113.9L172 172.9C173.6 174 175.7 174 177.2 172.9L262.2 113.5C263.1 112.8 264.5 113.1 265.1 114C265.8 114.9 265.5 116.3 264.6 116.9L179.6 176.4C178.2 177.5 176.4 178 174.6 178Z" fill="#35414D"/>
<path d="M246.7 220H102.7C97.6996 220 92.9996 218.2 89.1996 215C84.6996 211.1 82.0996 205.4 82.0996 199.4V123C82.0996 117 84.6996 111.4 89.1996 107.5L161.1 45C168.8 38.3 180.4 38.3 188.1 45L260.1 107.4C264.6 111.3 267.2 117 267.2 122.9V199.3C267.2 205.3 264.6 211 260.1 214.9C256.4 218.2 251.6 220 246.7 220ZM174.6 44.2C170.8 44.2 166.9 45.5 163.9 48.2L91.8996 110.6C88.2996 113.7 86.1996 118.2 86.1996 123V199.4C86.1996 204.2 88.2996 208.7 91.8996 211.8C94.8996 214.4 98.6996 215.8 102.6 215.8H246.6C250.5 215.8 254.3 214.4 257.3 211.8C260.9 208.7 263 204.2 263 199.4V123C263 118.2 260.9 113.7 257.4 110.7L185.4 48.2C182.3 45.5 178.5 44.2 174.6 44.2Z" fill="#35414D"/>
<path d="M245.2 69.5V128L178.4 174.7C176.1 176.3 173 176.3 170.7 174.7L104 128V69.5C104 60.5 111.3 53.1 120.4 53.1H228.8C237.9 53.1 245.2 60.5 245.2 69.5Z" fill="white"/>
<path d="M245.2 117.9V128L178.4 174.7C176.1 176.3 173 176.3 170.7 174.7L104 128V69.5C104 60.5 111.3 53.1 120.4 53.1H180.3C159.3 59.6 145.5 70.5 145.5 83C145.5 103 181 119.1 224.8 119.1C231.9 119.1 238.7 118.7 245.2 117.9Z" fill="#E5E8EC"/>
<path d="M174.6 178C172.8 178 171.1 177.5 169.5 176.4L102.8 129.7C102.2 129.3 101.9 128.7 101.9 128V69.5C101.9 59.3 110.2 51 120.4 51H228.8C239 51 247.3 59.3 247.3 69.5V128C247.3 128.7 247 129.3 246.4 129.7L179.7 176.4C178.2 177.5 176.4 178 174.6 178ZM106.1 126.9L172 173C173.6 174.1 175.7 174.1 177.3 173L243.2 126.9V69.5C243.2 61.6 236.8 55.2 228.9 55.2H120.4C112.5 55.2 106.1 61.6 106.1 69.5V126.9Z" fill="#35414D"/>
<path d="M209.798 106.6C209.798 115.2 206.698 123 201.698 129.1C195.198 136.9 185.498 141.8 174.598 141.8C163.698 141.8 153.998 136.9 147.498 129.1C142.398 123 139.398 115.2 139.398 106.6C139.398 87.0999 155.198 71.3999 174.598 71.3999C194.098 71.2999 209.798 87.0999 209.798 106.6Z" fill="#EF5564"/>
<path d="M209.598 110.3C208.898 117.4 205.998 123.9 201.698 129.1C195.198 136.9 185.498 141.8 174.598 141.8C163.698 141.8 153.998 136.9 147.498 129.1C142.398 123 139.398 115.2 139.398 106.6C139.398 89.1999 151.998 74.7999 168.498 71.8999C168.398 73.0999 168.298 74.3999 168.298 75.5999C168.298 84.1999 171.398 91.9999 176.398 98.0999C182.898 105.9 192.598 110.8 203.498 110.8C205.598 110.8 207.698 110.6 209.598 110.3Z" fill="#DB4554"/>
<path d="M174.599 143.9C163.499 143.9 153.099 139 145.899 130.5C140.299 123.8 137.299 115.3 137.299 106.6C137.299 85.9999 153.999 69.2999 174.599 69.2999C195.199 69.2999 211.899 86.0999 211.899 106.6C211.899 115.3 208.799 123.8 203.299 130.5C196.199 139 185.699 143.9 174.599 143.9ZM174.599 73.4999C156.299 73.4999 141.499 88.2999 141.499 106.6C141.499 114.4 144.099 121.8 149.099 127.8C155.399 135.4 164.699 139.7 174.599 139.7C184.499 139.7 193.699 135.3 200.099 127.8C205.099 121.8 207.699 114.5 207.699 106.6C207.699 88.2999 192.899 73.4999 174.599 73.4999Z" fill="#35414D"/>
<path d="M174.599 143.9C163.499 143.9 153.099 139 145.899 130.5C140.299 123.8 137.299 115.3 137.299 106.6C137.299 85.9999 153.999 69.2999 174.599 69.2999C195.199 69.2999 211.899 86.0999 211.899 106.6C211.899 115.3 208.799 123.8 203.299 130.5C196.199 139 185.699 143.9 174.599 143.9ZM174.599 73.4999C156.299 73.4999 141.499 88.2999 141.499 106.6C141.499 114.4 144.099 121.8 149.099 127.8C155.399 135.4 164.699 139.7 174.599 139.7C184.499 139.7 193.699 135.3 200.099 127.8C205.099 121.8 207.699 114.5 207.699 106.6C207.699 88.2999 192.899 73.4999 174.599 73.4999Z" fill="#35414D"/>
<path d="M174.6 119.2C167.7 119.2 162 113.6 162 106.6C162 99.6999 167.6 93.9999 174.6 93.9999C181.5 93.9999 187.2 99.5999 187.2 106.6C187.1 113.6 181.5 119.2 174.6 119.2ZM174.6 98.2999C170 98.2999 166.2 102.1 166.2 106.7C166.2 111.3 170 115 174.6 115C179.2 115 182.9 111.3 182.9 106.7C182.9 102 179.2 98.2999 174.6 98.2999Z" fill="#35414D"/>
<path d="M179.3 129H174.1C162.3 129 152.6 119.4 152.6 107.5V106.3C152.6 94.4999 162.2 84.7999 174.1 84.7999C185.9 84.7999 195.6 94.3999 195.6 106.3V109.3C195.6 112.8 192.7 115.6 189.3 115.6C185.8 115.6 183 112.7 183 109.3V106.6C183 105.5 183.9 104.5 185.1 104.5C186.2 104.5 187.2 105.4 187.2 106.6V109.3C187.2 110.5 188.2 111.4 189.3 111.4C190.4 111.4 191.4 110.4 191.4 109.3V106.3C191.4 96.7999 183.6 88.9999 174.1 88.9999C164.6 88.9999 156.8 96.7999 156.8 106.3V107.5C156.8 117 164.6 124.8 174.1 124.8H179.3C180.4 124.8 181.4 125.7 181.4 126.9C181.4 128 180.5 129 179.3 129Z" fill="#35414D"/>
</g>
<defs>
<clipPath id="clip0_788_104115">
<rect width="185.2" height="180" fill="white" transform="translate(82 40)"/>
</clipPath>
</defs>
</svg>
