<svg width="350" height="260" viewBox="0 0 350 260" fill="none" xmlns="http://www.w3.org/2000/svg">
<rect x="0.5" y="0.5" width="349" height="259" fill="#FCFCFC" stroke="#FFC5BC"/>
<g clip-path="url(#clip0_788_105197)">
<path d="M137.5 204.4C147.3 188.1 144.3 168.1 127.8 158.5C111.3 148.9 89.8996 154.3 80.0996 170.5L144.6 60.8C138.6 71.5 138.9 84.6 145.4 95C144.9 95 145.1 90.7001 174.1 140.3L137.5 204.4Z" fill="#FFCC66"/>
<path d="M270.598 184.5C270.598 218.5 227.898 229.2 210.998 200.2C147.098 89.5 146.298 93.8 146.698 93.8C136.598 78.5 140.798 57.9 156.198 47.8C171.598 37.7 192.098 41.9 202.198 57.3C202.998 58.4 203.598 59.6 204.198 60.9C270.598 175.7 270.598 172.1 270.598 184.5Z" fill="#6FABE6"/>
<path d="M270.599 184.5C270.599 188.5 269.899 192.5 268.399 196.3C254.999 208.9 233.999 208.2 221.399 194.9C219.599 193 218.099 191 216.799 188.7C152.999 77.9 154.599 81.3 154.999 81.3C149.699 72.5 148.699 61.8 152.399 52.2C165.799 39.8 186.799 40.5 199.299 54C201.199 56 202.799 58.3 204.199 60.8C270.599 175.7 270.599 172.1 270.599 184.5Z" fill="#82BCF4"/>
<path d="M172.899 135.4C158.299 160.7 127.199 173.7 98.2988 169.4L84.2988 167.3L145.999 60.8C140.299 71.2 142.599 82.9 148.799 93.1C148.299 92.9 147.599 91.8001 171.499 133.1L172.899 135.4Z" fill="#FFDE76"/>
<path d="M142.999 185.2C142.999 190.9 141.499 196.5 138.799 201.5C122.599 230.3 79.6992 218.4 79.6992 185.2C79.6992 167.2 93.8992 152.6 111.399 152.6C128.899 152.6 142.999 167.2 142.999 185.2Z" fill="#9DCC6B"/>
<path d="M138 203C108.6 219.6 76.9996 187.3 93.7996 158.5C122.6 141.6 154.6 173.9 138 203Z" fill="#B5E08C"/>
<path d="M240.499 220C228.499 220 217.199 213.5 211.199 203.1L174.999 140.5L138.799 203.1C132.799 213.5 121.599 220 109.499 220C97.3992 220 86.4992 213.7 80.3992 203.1C74.2992 192.5 74.2992 179.9 80.3992 169.4L145.399 56.9C151.599 46.3 162.699 40 175.099 40C187.499 40 198.599 46.3 204.699 56.9L269.699 169.4C275.799 179.9 275.799 192.5 269.699 203.1C263.499 213.7 252.599 220 240.499 220ZM175.099 45C165.099 45 155.699 50.6 150.499 59.6C145.299 68.6 145.399 79 150.599 88.1L215.599 200.6C220.699 209.5 230.299 215 240.499 215C245.499 215 250.499 213.7 254.899 211.1C268.599 203.2 273.299 185.6 265.399 171.8C257.299 157.9 250.299 145.6 243.999 134.7C197.099 53.3 197.099 53.3 189.499 49L189.099 48.8C184.599 46.3 179.899 45 175.099 45ZM109.799 157.5C99.5992 157.5 89.9992 163 84.8992 171.9C80.4992 179.6 79.7992 188.7 83.0992 197C86.3992 205.3 93.1992 211.4 101.799 213.9C104.399 214.6 107.099 215 109.799 215C119.999 215 129.599 209.5 134.699 200.6C138.499 194 139.499 186.2 137.599 178.8C135.599 171.4 130.899 165.2 124.199 161.3C119.699 158.8 114.799 157.5 109.799 157.5ZM109.799 152.5C123.999 152.5 136.799 161.5 141.499 175L144.499 183.5L172.199 135.5L170.999 133.5C165.499 123.9 161.099 116.4 157.699 110.4C144.599 87.8 144.599 87.8 143.599 84.6L140.599 75.4L94.7992 154.8L103.699 153.1C105.599 152.7 107.699 152.5 109.799 152.5Z" fill="#35414D"/>
</g>
<defs>
<clipPath id="clip0_788_105197">
<rect width="198.2" height="180" fill="white" transform="translate(76 40)"/>
</clipPath>
</defs>
</svg>
