<svg width="350" height="260" viewBox="0 0 350 260" fill="none" xmlns="http://www.w3.org/2000/svg">
<rect x="0.5" y="0.5" width="349" height="259" fill="#FCFCFC" stroke="#FFC5BC"/>
<g clip-path="url(#clip0_788_101951)">
<path fill-rule="evenodd" clip-rule="evenodd" d="M85.8789 83.8564V49.9448C85.8789 46.4641 88.4645 43.6796 91.5474 43.6796H258.221C261.404 43.6796 263.89 46.4641 263.89 49.9448V83.8564H85.8789Z" fill="#00D387"/>
<path fill-rule="evenodd" clip-rule="evenodd" d="M217.149 127.514L227.094 144.818L214.464 154.762C213.37 155.657 212.773 157.05 212.972 158.442C213.37 161.724 213.37 165.006 212.972 168.287C212.773 169.68 213.37 171.072 214.464 171.967L227.094 181.912L217.149 199.215L202.133 193.249C200.84 192.751 199.348 192.95 198.155 193.746C195.569 195.735 192.685 197.425 189.602 198.718C188.309 199.215 187.414 200.409 187.215 201.801L184.928 217.713H164.939L162.652 201.801C162.453 200.409 161.558 199.215 160.265 198.718C157.182 197.425 154.298 195.735 151.713 193.746C150.619 192.851 149.127 192.652 147.735 193.249L132.718 199.215L122.773 181.912L135.403 171.967C136.497 171.072 137.094 169.68 136.895 168.287C136.497 165.006 136.497 161.724 136.895 158.442C137.094 157.05 136.497 155.657 135.403 154.762L122.773 144.818L132.718 127.514L147.735 133.481C149.028 133.978 150.519 133.779 151.713 132.983C154.298 130.994 157.182 129.304 160.265 128.011C161.558 127.514 162.453 126.32 162.652 124.928L164.939 109.017H184.928L187.215 124.928C187.414 126.32 188.309 127.514 189.602 128.011C192.685 129.304 195.569 130.994 198.155 132.983C199.249 133.878 200.74 134.077 202.133 133.481L217.149 127.514Z" fill="#00D387"/>
<path fill-rule="evenodd" clip-rule="evenodd" d="M162.553 219.503C161.36 219.503 160.365 218.608 160.167 217.414L157.78 200.906L156.785 200.409C155.095 199.613 153.404 198.619 151.813 197.525L150.918 196.928L135.404 203.094C135.106 203.193 134.807 203.293 134.509 203.293C133.614 203.293 132.818 202.796 132.421 202.099L123.272 186.287H94.1334C87.7688 186.287 82.498 181.116 82.498 174.652V52.1326C82.498 45.768 87.7688 40.4972 94.1334 40.4972H255.736C262.1 40.4972 267.371 45.6685 267.371 52.1326V174.751C267.371 181.116 262.2 186.387 255.736 186.387H226.399L217.249 202.199C216.852 202.895 216.056 203.392 215.161 203.392C214.863 203.392 214.564 203.293 214.266 203.193L198.752 197.028L197.857 197.624C196.266 198.718 194.575 199.713 192.885 200.508L191.89 201.006L189.504 217.514C189.305 218.707 188.31 219.602 187.117 219.602H162.553V219.503ZM151.316 191.856C151.813 191.856 152.31 192.055 152.807 192.354C155.294 194.243 158.078 195.834 160.962 197.028C161.758 197.326 162.255 198.022 162.454 198.917L164.741 214.729H185.327L187.614 198.917C187.714 198.122 188.31 197.326 189.106 197.028C191.99 195.834 194.774 194.243 197.26 192.354C197.658 192.055 198.156 191.856 198.752 191.856C199.051 191.856 199.349 191.956 199.647 192.055L214.465 197.923L224.708 180.122L212.178 170.276C211.481 169.779 211.183 168.884 211.283 168.088C211.68 165.006 211.68 161.823 211.283 158.641C211.183 157.845 211.481 156.95 212.178 156.453L224.708 146.608L214.266 128.807L199.448 134.674C199.15 134.773 198.852 134.873 198.553 134.873C198.056 134.873 197.559 134.674 197.062 134.376C194.575 132.486 191.791 130.895 188.907 129.702C188.111 129.403 187.614 128.707 187.415 127.812L185.128 112.099H164.642L162.354 127.812C162.255 128.608 161.658 129.403 160.863 129.702C157.979 130.895 155.194 132.486 152.708 134.376C152.31 134.674 151.813 134.873 151.216 134.873C150.918 134.873 150.62 134.773 150.321 134.674L135.504 128.807L125.26 146.608L137.791 156.453C138.487 156.95 138.785 157.845 138.686 158.641C138.288 161.724 138.288 164.906 138.686 168.088C138.785 168.884 138.487 169.779 137.791 170.276L125.26 180.122L135.504 197.923L150.321 192.055C150.719 191.956 151.017 191.856 151.316 191.856ZM215.26 123.436C216.156 123.436 216.951 123.934 217.349 124.63L229.68 146.011C230.277 147.006 229.979 148.398 229.084 149.094L215.957 159.436L216.056 160.53C216.156 161.525 216.155 162.42 216.155 163.414C216.155 164.409 216.156 165.403 216.056 166.298L215.957 167.392L229.084 177.735C229.68 178.232 229.979 178.829 229.979 179.624V181.613H255.736C259.515 181.613 262.597 178.53 262.597 174.751V87.9337H87.2715V174.751C87.2715 178.53 90.3544 181.613 94.1334 181.613H119.89V179.624C119.89 178.928 120.189 178.232 120.785 177.735L133.813 167.392L133.714 166.298C133.614 165.304 133.614 164.409 133.614 163.414C133.614 162.42 133.614 161.425 133.714 160.53L133.813 159.436L120.785 149.094C119.89 148.398 119.592 147.006 120.189 146.011L132.52 124.63C132.918 123.934 133.714 123.436 134.609 123.436C134.907 123.436 135.205 123.536 135.504 123.635L151.017 129.801L151.912 129.204C153.504 128.11 155.194 127.116 156.885 126.32L157.879 125.823L160.266 109.315C160.465 108.122 161.459 107.227 162.653 107.227H187.316C188.509 107.227 189.504 108.122 189.702 109.315L192.089 125.823L193.084 126.32C194.774 127.116 196.465 128.11 198.056 129.204L198.951 129.801L214.465 123.635C214.664 123.536 214.962 123.436 215.26 123.436ZM94.1334 45.2707C90.3544 45.2707 87.2715 48.3536 87.2715 52.1326V83.1602H262.597V52.1326C262.597 48.3536 259.515 45.2707 255.736 45.2707H94.1334ZM174.984 183.801C163.747 183.801 154.597 174.652 154.597 163.414C154.597 152.177 163.747 143.028 174.984 143.028C186.222 143.028 195.371 152.177 195.371 163.414C195.371 174.652 186.222 183.801 174.984 183.801ZM174.984 147.801C166.432 147.801 159.371 154.762 159.371 163.414C159.371 172.066 166.332 179.028 174.984 179.028C183.537 179.028 190.597 172.066 190.597 163.414C190.498 154.762 183.537 147.801 174.984 147.801ZM191.99 66.6519C190.697 66.6519 189.603 65.558 189.603 64.2652C189.603 63.6685 189.802 63.0718 190.299 62.5746C190.796 62.0773 191.393 61.8785 191.99 61.8785H244.299C245.592 61.8785 246.686 62.9724 246.686 64.2652C246.686 65.558 245.592 66.6519 244.299 66.6519H191.99ZM135.305 66.6519C134.012 66.6519 132.918 65.558 132.918 64.2652C132.918 62.9724 134.012 61.8785 135.305 61.8785H135.603C136.896 61.8785 137.99 62.9724 137.99 64.2652C137.99 65.558 136.896 66.6519 135.603 66.6519H135.305ZM120.487 66.6519C119.194 66.6519 118.1 65.558 118.1 64.2652C118.1 62.9724 119.194 61.8785 120.487 61.8785H120.785C122.078 61.8785 123.172 62.9724 123.172 64.2652C123.172 65.558 122.078 66.6519 120.785 66.6519H120.487ZM105.57 66.6519C104.277 66.6519 103.183 65.558 103.183 64.2652C103.183 62.9724 104.277 61.8785 105.57 61.8785H105.868C107.161 61.8785 108.255 62.9724 108.255 64.2652C108.255 65.558 107.161 66.6519 105.868 66.6519H105.57Z" fill="#35414D"/>
<path d="M187.315 220H162.552C161.16 220 159.867 218.906 159.669 217.514L157.282 201.304L156.586 200.906C154.796 200.011 153.105 199.116 151.514 198.022L150.818 197.525L135.702 203.591C134.409 204.088 132.818 203.591 132.122 202.398L123.171 186.884H94.1326C87.4696 186.884 82 181.414 82 174.751V52.1326C82 45.4696 87.4696 40 94.1326 40H255.735C262.398 40 267.867 45.4696 267.867 52.1326V174.751C267.867 181.414 262.398 186.884 255.735 186.884H226.696L217.746 202.398C217.05 203.591 215.459 204.188 214.166 203.591L198.95 197.525L198.254 198.022C196.663 199.116 194.972 200.11 193.182 200.906L192.486 201.304L190.099 217.514C190 218.906 188.707 220 187.315 220ZM151.017 196.431L152.111 197.227C153.702 198.32 155.293 199.215 157.083 200.11L158.276 200.707L160.663 217.414C160.762 218.309 161.558 219.006 162.552 219.006H187.215C188.111 219.006 189.006 218.309 189.105 217.414L191.492 200.707L192.685 200.11C194.376 199.315 196.066 198.32 197.657 197.227L198.751 196.431L214.464 202.696C215.359 202.994 216.354 202.696 216.851 201.901L226.099 185.889H255.735C261.901 185.889 266.873 180.917 266.873 174.751V52.1326C266.873 45.9669 261.901 40.9945 255.735 40.9945H94.1326C87.9669 40.9945 82.9945 45.9669 82.9945 52.1326V174.751C82.9945 180.917 87.9669 185.889 94.1326 185.889H123.768L133.017 201.901C133.514 202.696 134.508 203.094 135.403 202.696L151.017 196.431ZM185.624 215.227H164.243L161.856 199.017C161.757 198.32 161.359 197.823 160.663 197.525C157.68 196.331 154.994 194.74 152.409 192.751C151.912 192.354 151.215 192.254 150.519 192.453L135.304 198.519L124.762 180.022L137.591 169.878C138.088 169.481 138.387 168.785 138.287 168.188C137.89 165.006 137.89 161.823 138.287 158.641C138.387 157.945 138.088 157.348 137.591 156.95L124.762 146.807L135.503 128.21L150.619 134.276C151.215 134.475 151.912 134.376 152.508 133.978C154.994 132.088 157.779 130.398 160.762 129.204C161.359 128.906 161.856 128.409 161.956 127.713L164.243 111.602H185.624L188.011 127.812C188.111 128.508 188.508 129.006 189.204 129.304C192.188 130.497 194.873 132.088 197.459 134.077C197.956 134.475 198.751 134.575 199.348 134.376L214.564 128.309L225.304 146.906L212.276 156.851C211.779 157.249 211.481 157.945 211.58 158.641C211.978 161.823 211.978 165.006 211.58 168.188C211.481 168.884 211.779 169.481 212.276 169.878L225.105 180.022L214.365 198.619L199.149 192.552C198.552 192.354 197.856 192.453 197.26 192.851C194.773 194.84 191.989 196.431 189.006 197.624C188.409 197.923 187.912 198.42 187.812 199.116L185.624 215.227ZM165.138 214.232H184.829L187.017 198.917C187.116 197.923 187.812 197.028 188.807 196.63C191.691 195.436 194.376 193.845 196.862 191.956C197.657 191.359 198.751 191.16 199.646 191.558L214.066 197.326L223.912 180.221L211.779 170.575C210.983 169.978 210.586 168.983 210.685 167.89C211.083 164.807 211.083 161.724 210.685 158.641C210.586 157.646 210.983 156.652 211.779 155.956L223.912 146.309L214.066 129.503L199.646 135.271C198.751 135.669 197.657 135.47 196.862 134.873C194.376 132.983 191.691 131.392 188.807 130.199C187.912 129.801 187.215 128.906 187.017 127.912L184.829 112.597H165.138L162.95 127.912C162.851 128.906 162.155 129.801 161.16 130.199C158.276 131.392 155.591 132.983 153.105 134.873C152.309 135.47 151.215 135.669 150.32 135.271L135.901 129.503L126.055 146.608L138.188 156.254C138.983 156.851 139.381 157.845 139.282 158.939C138.884 162.022 138.884 165.105 139.282 168.188C139.381 169.182 138.983 170.177 138.188 170.873L126.055 180.519L135.901 197.624L150.32 191.856C151.315 191.459 152.409 191.657 153.105 192.254C155.591 194.144 158.276 195.735 161.16 196.928C162.055 197.326 162.751 198.221 162.95 199.215L165.138 214.232ZM174.983 184.298C163.448 184.298 154.099 174.95 154.099 163.414C154.099 151.878 163.448 142.53 174.983 142.53C186.519 142.53 195.867 151.878 195.867 163.414C195.867 174.95 186.42 184.298 174.983 184.298ZM174.983 143.525C164.044 143.525 155.094 152.475 155.094 163.414C155.094 174.354 164.044 183.304 174.983 183.304C185.923 183.304 194.873 174.354 194.873 163.414C194.773 152.475 185.923 143.525 174.983 143.525ZM255.735 182.11H229.481V179.624C229.481 179.028 229.182 178.53 228.785 178.133L215.459 167.691L215.558 166.398C215.657 165.503 215.657 164.508 215.657 163.514C215.657 162.519 215.657 161.624 215.558 160.63L215.459 159.337L228.785 148.895C229.481 148.298 229.68 147.304 229.282 146.409L216.95 125.028C216.453 124.232 215.459 123.834 214.564 124.232L198.851 130.497L197.757 129.702C196.166 128.608 194.475 127.713 192.785 126.818L191.591 126.221L189.204 109.514C189.105 108.619 188.309 107.923 187.315 107.923H162.552C161.657 107.923 160.862 108.619 160.663 109.514L158.276 126.221L157.083 126.818C155.392 127.613 153.702 128.608 152.111 129.702L151.017 130.497L135.304 124.232C134.409 123.934 133.414 124.232 132.917 125.028L120.586 146.409C120.088 147.204 120.287 148.298 121.083 148.895L134.409 159.337L134.309 160.63C134.21 161.525 134.21 162.519 134.21 163.514C134.21 164.508 134.21 165.403 134.309 166.398L134.409 167.691L121.083 178.133C120.586 178.53 120.387 179.028 120.387 179.624V182.11H94.1326C90.0552 182.11 86.7735 178.829 86.7735 174.751V87.4365H263.094V174.751C263.094 178.729 259.812 182.11 255.735 182.11ZM230.475 181.116H255.735C259.215 181.116 262.099 178.232 262.099 174.751V88.4309H87.768V174.751C87.768 178.232 90.6519 181.116 94.1326 181.116H119.392V179.624C119.392 178.729 119.79 177.934 120.486 177.337L133.315 167.193L133.215 166.398C133.116 165.403 133.116 164.409 133.116 163.514C133.116 162.519 133.116 161.525 133.215 160.63L133.315 159.834L120.486 149.691C119.392 148.796 119.094 147.204 119.79 146.011L132.122 124.63C132.818 123.436 134.409 122.84 135.702 123.436L150.917 129.503L151.613 129.006C153.204 127.912 154.895 126.917 156.685 126.122L157.381 125.724L159.768 109.514C159.967 108.122 161.16 107.028 162.652 107.028H187.315C188.707 107.028 190 108.122 190.199 109.514L192.586 125.724L193.282 126.122C195.072 127.017 196.762 127.912 198.354 129.006L199.05 129.503L214.265 123.436C215.558 122.939 217.149 123.436 217.845 124.63L230.177 146.011C230.873 147.204 230.575 148.796 229.481 149.691L216.652 159.834L216.751 160.63C216.851 161.525 216.851 162.519 216.851 163.514C216.851 164.508 216.851 165.503 216.751 166.398L216.652 167.193L229.481 177.337C230.177 177.934 230.575 178.729 230.575 179.624L230.475 181.116ZM174.983 179.525C166.133 179.525 158.873 172.265 158.873 163.414C158.873 154.564 166.133 147.304 174.983 147.304C183.834 147.304 191.094 154.564 191.094 163.414C190.994 172.265 183.834 179.525 174.983 179.525ZM174.983 148.298C166.63 148.298 159.867 155.061 159.867 163.414C159.867 171.768 166.63 178.53 174.983 178.53C183.337 178.53 190.099 171.768 190.099 163.414C190 155.061 183.238 148.298 174.983 148.298ZM263.094 83.6575H86.7735V52.1326C86.7735 48.0552 90.0552 44.7735 94.1326 44.7735H255.834C259.912 44.7735 263.193 48.0552 263.193 52.1326V83.6575H263.094ZM87.768 82.663H262.099V52.1326C262.099 48.6519 259.215 45.768 255.735 45.768H94.1326C90.6519 45.768 87.768 48.6519 87.768 52.1326V82.663ZM244.298 67.1492H191.989C190.398 67.1492 189.105 65.8564 189.105 64.2652C189.105 63.4696 189.403 62.7735 190 62.1768C190.497 61.6796 191.293 61.2818 192.088 61.2818H244.398C245.989 61.2818 247.282 62.5746 247.282 64.1657C247.282 65.7569 245.89 67.1492 244.298 67.1492ZM191.989 66.1547H244.298C245.392 66.1547 246.188 65.2597 246.188 64.2652C246.188 63.2707 245.293 62.3757 244.298 62.3757H191.989C191.492 62.3757 190.994 62.5746 190.696 62.9724C190.298 63.3702 190.099 63.768 190.099 64.2652C190.099 65.2597 190.895 66.1547 191.989 66.1547ZM135.602 67.1492H135.304C133.713 67.1492 132.42 65.8564 132.42 64.2652C132.42 62.674 133.713 61.3812 135.304 61.3812H135.602C137.193 61.3812 138.486 62.674 138.486 64.2652C138.486 65.8564 137.193 67.1492 135.602 67.1492ZM135.304 62.2762C134.21 62.2762 133.414 63.1713 133.414 64.1657C133.414 65.2597 134.309 66.0552 135.304 66.0552H135.602C136.696 66.0552 137.492 65.1602 137.492 64.1657C137.492 63.1713 136.597 62.2762 135.602 62.2762H135.304ZM120.785 67.1492H120.486C118.895 67.1492 117.602 65.8564 117.602 64.2652C117.602 62.674 118.895 61.3812 120.486 61.3812H120.785C122.376 61.3812 123.669 62.674 123.669 64.2652C123.669 65.8564 122.376 67.1492 120.785 67.1492ZM120.486 66.1547H120.785C121.878 66.1547 122.674 65.2597 122.674 64.2652C122.674 63.2707 121.779 62.2762 120.785 62.2762H120.486C119.392 62.2762 118.597 63.1713 118.597 64.1657C118.597 65.2597 119.392 66.1547 120.486 66.1547ZM105.867 67.1492H105.569C103.978 67.1492 102.685 65.8564 102.685 64.2652C102.685 62.674 103.978 61.3812 105.569 61.3812H105.867C107.459 61.3812 108.751 62.674 108.751 64.2652C108.751 65.8564 107.459 67.1492 105.867 67.1492ZM105.569 66.1547H105.867C106.961 66.1547 107.757 65.2597 107.757 64.2652C107.757 63.2707 106.862 62.3757 105.867 62.3757H105.569C104.475 62.3757 103.68 63.2707 103.68 64.2652C103.68 65.2597 104.575 66.1547 105.569 66.1547Z" fill="#35414D"/>
</g>
<defs>
<clipPath id="clip0_788_101951">
<rect width="185.867" height="180" fill="white" transform="translate(82 40)"/>
</clipPath>
</defs>
</svg>
