<svg width="1800" height="501" viewBox="0 0 1800 501" fill="none" xmlns="http://www.w3.org/2000/svg">
<g opacity="0.2">
<path d="M1913.2 272.3L1848.6 268.7H1848.5L1785.6 299.4L1715.9 261.7L1700.6 283.4L1652.8 274.4L1623.4 158.7L1623 159L1528.3 227.3L1526 226.4L1527.2 227.2L1447.2 221.6L1377.7 106.8L1378 108.4L1339.1 211.7L1338.9 211.6V212L1291.7 254.1L1291.5 254.2V254.4L1268.8 320.5L1192.9 343.1L1193 343.4L1197.5 369.3L1157.3 396.8L1054.7 335.8L1054.6 336.2L1036.2 451.5L1034 452.5L1035.4 452.2L974.901 504.8L922.602 491.9L879.102 383.3L880.502 383L878.901 382.7L878.702 382.1L878.502 382.6L768.102 364L768.002 363.9L767.902 364H767.802L767.702 364.1L671.602 419.9H671.502V420L671.302 420.1L671.402 420.3L638.602 531.9L571.002 578.6L473.102 574.2L474.302 574.8L507.602 637.5L512.002 663.1L466.402 697.1L465.802 696.9L466.102 697.4L465.502 697.8H466.302L521.002 799.1L498.202 819.7L367.802 812.1L367.702 812L289.102 781.9L323.602 836.1L265.402 867.9L184.502 853.1L119.502 782V781.9H119.402L108.202 738.7L23.0016 743.9L22.1016 743.5L97.9016 850.1L83.0016 871.1L25.6016 862.7L26.3016 863.3L50.8016 916.4L-14.8984 999.5L45.6016 976.7L45.7016 976.6L90.8016 923L91.6016 923.1L91.5016 923L169.702 929.1L169.802 928.8L174.902 903L222.302 891.8L296.102 985.7L296.302 985.3L355.102 884.5L357.502 884.4L356.102 884.1L431.502 856.8L540.002 932.5V932.6H540.202L541.602 933.6L540.902 932.7L566.402 933.3L583.302 990.8L671.902 935.2H671.002L611.402 885.7L688.302 834.6L687.902 834.4L601.902 786.7L554.702 694.2L614.802 642.8L614.602 642.6L600.002 620.8L625.602 579.4L744.202 593.6L744.102 593.2L714.402 480.3L716.002 478.5L714.802 479.3L733.602 439.2L846.602 473.8L940.002 536V536.1H940.102L940.202 536.2L940.302 536.1L1050.7 524.1H1050.8V524H1051V523.8L1126.2 435L1207 419.7L1294.7 463.4L1293.8 462.3L1288.8 391.5L1295.2 366.3L1350.7 353.7L1351.2 354.2V353.6L1351.9 353.4L1351.2 353.1L1342.2 238.3L1371.4 228.7L1487.6 288.5V288.6H1487.7L1487.9 288.7L1488 288.5L1603.9 278.9L1671.9 325.2L1703 418.1L1703.1 416.7L1749.6 363.1L1771.9 349.8L1821 380.7L1820.6 379.8L1819.7 321.3H1819.8L1913.2 272.3ZM1848.9 269.2L1911 272.7L1819.9 320.7L1848.9 269.2ZM1819.7 378.6L1800.2 333L1818.9 321.9L1819.7 378.6ZM1772.2 349.6L1799.7 333.3L1819.4 379.4L1772.2 349.6ZM1716.4 262.6L1783.8 299L1714.4 285.9L1716.4 262.6ZM1785.4 300L1799.4 332.7L1771.6 349.2L1712 311.7L1714.2 286.6L1785.4 300ZM1690.1 298.6L1671.9 324.5L1653.3 275.4L1690.1 298.6ZM1690.6 298.9L1711.4 312L1708.7 342.8L1672.2 325L1690.6 298.9ZM1690.9 298.4L1701 284.1L1713.6 286.5L1711.4 311.4L1690.9 298.4ZM1771 349.6L1749.1 362.6L1709.3 343.1L1712 312.3L1771 349.6ZM1702.8 415.8L1709.2 343.8L1748.6 363.1L1702.8 415.8ZM1702.3 415.3L1672.3 325.8L1708.6 343.6L1702.3 415.3ZM1604.5 279L1652.4 275L1671.1 324.3L1604.5 279ZM1603.7 278.4L1530.8 228.8L1651.2 274.5L1603.7 278.4ZM1371.8 228.6L1400.6 219.1L1484.8 286.7L1371.8 228.6ZM1341.1 212.7L1399.2 218.8L1371.1 228.1L1341.1 212.7ZM1341.8 237.8L1339.8 212.8L1370.2 228.4L1341.8 237.8ZM1341.2 238L1330.8 241.4L1339.3 213.8L1341.2 238ZM1341.3 238.7L1350.2 352.7L1308.8 312.5L1330.6 242.3L1341.3 238.7ZM1292.5 254.8L1329.8 242.5L1308.4 311.6L1292.5 254.8ZM1269.4 321.3L1302.4 334.5L1294.4 365.9L1225.7 381.5L1209.5 362.1L1269.4 321.3ZM1209.2 361.6L1194.1 343.6L1267.5 321.7L1209.2 361.6ZM1158.6 397.3L1201 387.7L1206.4 418.9L1158.6 397.3ZM1201.6 387.6L1225.6 382.2L1245.5 405.9L1207.1 419L1201.6 387.6ZM1201.5 387L1198.5 369.7L1209.1 362.5L1225.1 381.7L1201.5 387ZM1270.4 321L1307.9 312.8L1302.5 333.9L1270.4 321ZM1349.2 352.6L1303.2 334.1L1308.5 313.1L1349.2 352.6ZM1295.1 365.7L1303 334.7L1349.5 353.4L1295.1 365.7ZM1294.3 366.6L1288 391.3L1246.1 405.7L1226.2 382L1294.3 366.6ZM1292.9 461.6L1246.5 406.2L1288 392L1292.9 461.6ZM1207.6 419.5L1245.9 406.4L1292.1 461.6L1207.6 419.5ZM1126.6 434.4L1157.7 397.7L1205.8 419.4L1126.6 434.4ZM1125.6 434.5L1039 450.9L1156.5 398L1125.6 434.5ZM848.002 474.3L922.202 492.5L939.202 535L848.002 474.3ZM733.502 438.7L748.402 406.8L792.402 399L845.502 473.1L733.502 438.7ZM742.902 593L625.602 579L713.402 481L742.902 593ZM534.302 822.9L610.002 885.8L562.102 917.6L534.302 822.9ZM561.602 918L540.302 932.1L534.202 824.7L561.602 918ZM522.102 717.9L553.602 694.8L559.502 763.2L522.102 717.9ZM601.002 787.3L615.702 816.2L534.202 821.7L560.002 764.6L601.002 787.3ZM533.202 820.5L521.702 799.2L529.802 791.8L533.202 820.5ZM530.402 791.3L559.002 765.4L533.902 820.9L530.402 791.3ZM530.302 790.5L521.902 718.6L559.402 764.1L530.302 790.5ZM521.802 717.3L518.102 695.8L552.802 694.6L521.802 717.3ZM518.102 695.2L512.702 663.3L569.202 621.2L591.902 632.3L553.802 693.9L518.102 695.2ZM592.302 632.6L613.402 642.9L555.202 692.7L592.302 632.6ZM569.702 620.8L589.102 606.3L598.802 620.9L592.002 631.8L569.702 620.8ZM569.002 620.5L541.202 606.9L571.002 579.3L588.702 605.8L569.002 620.5ZM571.702 579.1L624.202 579.4L589.302 605.4L571.702 579.1ZM625.702 578L639.102 532.2L711.602 482.1L625.702 578ZM599.202 620.3L589.602 605.9L623.902 580.3L599.202 620.3ZM599.202 621.5L613.002 642.1L592.602 632.1L599.202 621.5ZM600.502 786.3L560.202 764L554.302 695.8L600.502 786.3ZM610.502 885.4L534.502 822.2L616.702 816.7L616.502 816.3L602.002 787.8L686.802 834.8L610.502 885.4ZM669.702 935.4L566.602 933L562.302 918.3L610.502 886.3L669.702 935.4ZM566.802 933.6L669.502 936L583.402 990.1L566.802 933.6ZM541.002 932.4L561.702 918.6L565.902 933L541.002 932.4ZM475.702 841.1L533.502 822.4L539.702 931.6L475.702 841.1ZM432.002 856.9L475.002 841.3L538.702 931.4L432.002 856.9ZM369.302 813.1L474.202 840.9L431.402 856.4L369.302 813.1ZM430.702 856.7L355.102 884.1L367.902 812.9L430.702 856.7ZM222.702 892.1L354.102 884.9L295.702 985L222.702 892.1ZM143.302 852.2L183.902 853.7L177.702 885L153.402 881.4L143.302 852.2ZM142.402 851.5L98.6016 849.8L119.102 783.1L142.402 851.5ZM64.4016 898.3L83.1016 871.9L152.802 882.1L161.002 906L90.5016 922.6L64.4016 898.3ZM89.4016 922.4L51.4016 916.6L64.0016 898.8L89.4016 922.4ZM168.802 928.7L92.4016 922.7L161.202 906.5L168.802 928.7ZM153.502 882.1L177.502 885.6L174.102 902.8L161.602 905.7L153.502 882.1ZM221.302 891.4L178.302 885.1L184.502 854L221.302 891.4ZM223.502 891.5L265.402 868.6L352.102 884.4L223.502 891.5ZM174.802 902.7L178.202 885.8L220.502 892L174.802 902.7ZM174.002 903.5L169.202 927.9L161.902 906.4L174.002 903.5ZM89.8016 923.1L45.6016 975.6L51.2016 917.2L89.8016 923.1ZM-13.1984 998.3L50.6016 917.5L44.9016 976.3L-13.1984 998.3ZM27.3016 864.6L63.6016 898.4L51.0016 916.1L27.3016 864.6ZM82.5016 871.8L64.0016 897.9L27.3016 863.8L82.5016 871.8ZM98.3016 850.5L142.602 852.2L152.602 881.4L83.5016 871.3L98.3016 850.5ZM23.7016 744.9L118.702 782.3L98.1016 849.5L23.7016 744.9ZM107.602 739.4L118.402 781L118.202 780.8L118.502 781.6L24.2016 744.4L107.602 739.4ZM183.502 853.1L143.102 851.6L119.802 783.5L183.502 853.1ZM264.402 868.4L222.202 891.5L185.102 854L264.402 868.4ZM323.802 836.6L354.002 884.1L266.202 868.1L323.802 836.6ZM366.902 812.4L324.102 835.8L290.602 783.2L366.902 812.4ZM367.202 813L354.502 883.8L324.302 836.4L367.202 813ZM497.502 820.2L475.102 840.5L370.702 812.8L497.502 820.2ZM532.002 822.2L476.402 840.1L498.402 820.2L532.002 822.2ZM521.202 799.6L533.102 821.7L499.002 819.7L521.202 799.6ZM467.102 698L521.202 718V718.1L529.802 791.1L521.402 798.7L467.102 698ZM468.002 697.7L517.602 695.9L521.202 717.3L468.002 697.7ZM512.102 663.7L517.502 695.2L467.402 697L512.102 663.7ZM512.502 662.6L508.202 637.4L540.702 607.3L568.402 620.9L512.502 662.6ZM475.302 575.2L540.202 607.1L508.002 636.9L475.302 575.2ZM570.302 579.1L540.602 606.6L476.002 574.9L570.302 579.1ZM638.402 532.7L624.802 578.9L572.102 578.6L638.402 532.7ZM713.202 480.2L639.402 531.2L671.802 420.8L713.202 480.2ZM672.502 420.6L732.602 439L713.602 479.6L672.502 420.6ZM673.102 420.2L747.702 406.9L732.902 438.5L673.102 420.2ZM767.202 365L747.902 406.2L673.302 419.5L767.202 365ZM792.002 398.4L748.702 406.1L768.002 364.9L792.002 398.4ZM876.901 383.2L792.702 398.2L768.702 364.6L876.901 383.2ZM878.202 383.6L846.202 472.9L793.102 398.7L878.202 383.6ZM921.901 491.9L846.702 473.4L878.702 384.1L921.901 491.9ZM974.401 505.4L940.002 535.3L922.901 492.7L974.401 505.4ZM1048.7 523.7L940.802 535.5L975.102 505.7L1048.7 523.7ZM975.702 505.1L1036.3 452.3L1050 523.3L975.702 505.1ZM1036.9 452L1125 435.3L1050.6 523.1L1036.9 452ZM1156.9 397.2L1036.9 451.2L1055.4 336.8L1156.9 397.2ZM1197.9 370.1L1200.9 387.1L1159.2 396.6L1197.9 370.1ZM1198.3 369L1194 344.5L1208.6 361.9L1198.3 369ZM1292.1 255.6L1307.9 312.2L1269.8 320.5L1292.1 255.6ZM1338.9 213.2L1330.1 241.7L1293.5 253.8L1338.9 213.2ZM1378.5 109.7L1400.3 218.4L1339.9 212L1378.5 109.7ZM1446.6 221.6L1400.9 218.4L1379.2 110.2L1446.6 221.6ZM1486.2 287L1401.6 219.1L1447 222.2L1486.2 287ZM1447.8 222.3L1528 227.9L1487.5 287.8L1447.8 222.3ZM1528.6 228L1602.7 278.5L1488 288L1528.6 228ZM1623.1 159.7L1652.2 274.2L1529.2 227.5L1623.1 159.7ZM1700.3 284L1690.4 298.1L1654.2 275.3L1700.3 284ZM1701.4 283.5L1715.7 263.2L1713.7 285.8L1701.4 283.5ZM1786.3 300.5L1818.7 321.2L1800 332.3L1786.3 300.5ZM1786.3 299.7L1848 269.6L1819.2 320.8L1786.3 299.7Z" fill="#AAAAAA"/>
<path d="M715.499 475C712.599 474 709.399 475.5 708.399 478.4C707.399 481.3 708.899 484.5 711.799 485.5C714.699 486.5 717.899 485 718.899 482.1C719.899 479.2 718.399 476 715.499 475Z" fill="#646464"/>
<path d="M769.4 360.2C767.1 359.4 764.7 360.6 763.9 362.9C763.1 365.2 764.3 367.6 766.6 368.4C768.9 369.2 771.3 368 772.1 365.7C772.8 363.4 771.6 360.9 769.4 360.2Z" fill="#646464"/>
<path d="M880.099 379.1C877.799 378.3 875.399 379.5 874.599 381.8C873.799 384.1 874.999 386.5 877.299 387.3C879.599 388.1 881.999 386.9 882.799 384.6C883.599 382.4 882.399 379.9 880.099 379.1Z" fill="#646464"/>
<path d="M672.802 417.2C671.202 416.6 669.402 417.5 668.902 419.1C668.302 420.7 669.202 422.5 670.802 423C672.402 423.6 674.202 422.7 674.702 421.1C675.202 419.5 674.402 417.7 672.802 417.2Z" fill="#646464"/>
<path d="M1666.2 325.3C1666.3 328.4 1668.9 330.8 1672 330.7C1675.1 330.6 1677.5 328 1677.4 325C1677.3 321.9 1674.7 319.5 1671.7 319.6C1668.5 319.7 1666.1 322.3 1666.2 325.3Z" fill="#646464"/>
<path d="M1522.9 227.8C1523 230.9 1525.6 233.3 1528.6 233.2C1531.7 233.1 1534.1 230.5 1534 227.5C1533.9 224.4 1531.3 222 1528.3 222.1C1525.2 222.1 1522.8 224.7 1522.9 227.8Z" fill="#646464"/>
<path d="M1711.8 262.2C1711.9 264.6 1713.9 266.5 1716.3 266.4C1718.7 266.3 1720.6 264.3 1720.5 261.9C1720.4 259.5 1718.4 257.6 1716 257.7C1713.6 257.9 1711.7 259.9 1711.8 262.2Z" fill="#646464"/>
<path d="M1619 159.3C1619.1 161.7 1621.1 163.6 1623.5 163.5C1625.9 163.4 1627.8 161.4 1627.7 159C1627.6 156.6 1625.6 154.7 1623.2 154.8C1620.8 154.9 1618.9 156.9 1619 159.3Z" fill="#646464"/>
<path d="M1744.8 363.2C1744.9 365.6 1746.9 367.5 1749.3 367.4C1751.7 367.3 1753.6 365.3 1753.5 362.9C1753.4 360.5 1751.4 358.6 1749 358.7C1746.6 358.8 1744.7 360.8 1744.8 363.2Z" fill="#646464"/>
<path d="M1396.4 218.9C1396.5 221.3 1398.5 223.2 1400.9 223.1C1403.3 223 1405.2 221 1405.1 218.6C1405 216.2 1403 214.3 1400.6 214.4C1398.2 214.5 1396.3 216.5 1396.4 218.9Z" fill="#646464"/>
<path d="M1374.2 108.7C1374.3 111.1 1376.3 113 1378.7 112.9C1381.1 112.8 1383 110.8 1382.9 108.4C1382.8 106 1380.8 104.1 1378.4 104.2C1376 104.3 1374.2 106.3 1374.2 108.7Z" fill="#646464"/>
<path d="M1782.6 299.8C1782.7 301.5 1784.1 302.9 1785.8 302.8C1787.5 302.7 1788.9 301.3 1788.8 299.6C1788.7 297.9 1787.3 296.6 1785.6 296.6C1783.9 296.7 1782.5 298.1 1782.6 299.8Z" fill="#646464"/>
<path d="M1699.4 416.9C1699.5 418.6 1700.9 419.9 1702.6 419.9C1704.3 419.9 1705.7 418.4 1705.6 416.7C1705.5 415 1704.1 413.6 1702.4 413.7C1700.6 413.7 1699.3 415.2 1699.4 416.9Z" fill="#646464"/>
<path d="M1649.6 274.8C1649.7 276.5 1651.1 277.9 1652.8 277.8C1654.5 277.7 1655.9 276.3 1655.8 274.6C1655.7 272.9 1654.3 271.6 1652.6 271.6C1650.8 271.6 1649.5 273.1 1649.6 274.8Z" fill="#646464"/>
<path d="M1484.3 288.5C1484.3 290.2 1485.8 291.5 1487.5 291.5C1489.2 291.4 1490.6 290 1490.5 288.3C1490.4 286.6 1489 285.3 1487.3 285.3C1485.6 285.3 1484.3 286.8 1484.3 288.5Z" fill="#646464"/>
<path d="M1203 423.5C1205.2 425.6 1208.8 425.5 1210.9 423.2C1213 421 1212.9 417.4 1210.6 415.3C1208.4 413.2 1204.8 413.3 1202.7 415.6C1200.6 417.9 1200.7 421.4 1203 423.5Z" fill="#646464"/>
<path d="M1032.7 455.8C1034.9 457.9 1038.5 457.8 1040.6 455.5C1042.7 453.3 1042.6 449.7 1040.3 447.6C1038.1 445.5 1034.5 445.6 1032.4 447.9C1030.3 450.2 1030.5 453.7 1032.7 455.8Z" fill="#646464"/>
<path d="M1190.6 346.7C1192.3 348.3 1195.1 348.2 1196.7 346.5C1198.3 344.8 1198.2 342 1196.5 340.4C1194.8 338.8 1192 338.8 1190.4 340.6C1188.8 342.3 1188.9 345 1190.6 346.7Z" fill="#646464"/>
<path d="M1052.2 339.5C1053.9 341.1 1056.7 341 1058.3 339.3C1059.9 337.6 1059.8 334.8 1058.1 333.2C1056.4 331.6 1053.6 331.7 1052 333.4C1050.4 335.1 1050.5 337.9 1052.2 339.5Z" fill="#646464"/>
<path d="M1347.6 356.6C1349.3 358.2 1352.1 358.1 1353.7 356.4C1355.3 354.7 1355.2 351.9 1353.5 350.3C1351.8 348.7 1349 348.7 1347.4 350.5C1345.7 352.3 1345.8 355 1347.6 356.6Z" fill="#646464"/>
<path d="M1285.3 394.7C1287 396.3 1289.8 396.3 1291.4 394.5C1293 392.8 1293 390 1291.2 388.4C1289.5 386.8 1286.7 386.9 1285.1 388.6C1283.5 390.3 1283.6 393.1 1285.3 394.7Z" fill="#646464"/>
<path d="M843.301 476.8C845.001 478.4 847.801 478.4 849.401 476.6C851.001 474.9 850.901 472.1 849.201 470.5C847.401 468.9 844.701 469 843.101 470.7C841.501 472.4 841.601 475.1 843.301 476.8Z" fill="#646464"/>
<path d="M1289.2 257.7C1290.9 259.3 1293.7 259.2 1295.3 257.5C1296.9 255.8 1296.8 253 1295.1 251.4C1293.3 249.8 1290.6 249.9 1289 251.6C1287.4 253.3 1287.4 256.1 1289.2 257.7Z" fill="#646464"/>
<path d="M1267.2 323.2C1268.5 324.4 1270.4 324.3 1271.6 323.1C1272.8 321.8 1272.7 319.9 1271.5 318.7C1270.3 317.5 1268.3 317.6 1267.1 318.8C1265.9 320 1266 322 1267.2 323.2Z" fill="#646464"/>
<path d="M1337.4 214.5C1338.6 215.7 1340.6 215.6 1341.8 214.4C1343 213.2 1342.9 211.2 1341.7 210C1340.5 208.8 1338.5 208.9 1337.3 210.1C1336.1 211.4 1336.1 213.4 1337.4 214.5Z" fill="#646464"/>
<path d="M1306.4 314.6C1307.7 315.8 1309.6 315.7 1310.8 314.5C1312 313.3 1311.9 311.3 1310.7 310.1C1309.5 308.9 1307.5 309 1306.3 310.2C1305.1 311.5 1305.1 313.4 1306.4 314.6Z" fill="#646464"/>
<path d="M1291.2 464.8C1292.5 466 1294.4 465.9 1295.6 464.7C1296.8 463.5 1296.7 461.5 1295.5 460.3C1294.2 459.1 1292.3 459.2 1291.1 460.4C1289.9 461.7 1289.9 463.6 1291.2 464.8Z" fill="#646464"/>
<path d="M1155.5 399.5C1156.7 400.7 1158.7 400.6 1159.9 399.4C1161.1 398.2 1161 396.2 1159.8 395C1158.5 393.8 1156.6 393.9 1155.4 395.1C1154.2 396.4 1154.2 398.3 1155.5 399.5Z" fill="#646464"/>
</g>
<g opacity="0.4">
<path d="M454.703 568.7L507.803 566H507.903L556.603 535.4L616.803 560.1L627.403 541L667.303 544.2L701.503 636.2L701.803 636L773.203 571.9L775.103 572.4L774.003 571.8L839.903 569.4L906.703 657.1L906.303 655.8L929.103 568L929.303 568.1L929.203 567.8L964.103 529.2L964.303 529.1L964.203 528.9L977.003 472.9L1037 447.8L1036.9 447.6L1031 426.8L1061.4 400.8L1150.6 441.7V441.3L1155.8 345.5L1157.5 344.5L1156.3 344.8L1201.1 296.5L1245 302.4L1290.1 387.3L1289 387.6L1290.3 387.7L1290.5 388.2L1290.6 387.8L1382.4 393.6L1382.5 393.7L1382.6 393.6H1382.7V393.5L1456.3 339.5H1456.4V339.4L1456.5 339.3L1456.4 339.2L1473.4 245.1L1524.6 201L1605 196L1603.9 195.6L1571.2 147.2L1565.4 126.7L1599.7 94.9001L1600.2 95L1599.9 94.6L1600.3 94.2L1599.7 94.3L1546.1 16.3L1562.9 -2.49997L1670.1 -7.69998H1670.2L1737 10L1704.1 -31.3L1748.9 -62.4L1816.3 -57.4L1875.6 -4.99997V-4.89996H1875.7L1888.6 29.4001L1957.8 17.7L1958.6 17.9001L1887.3 -62.6L1897.7 -81.1L1945.4 -79.3L1944.8 -79.8L1920.1 -121L1966.5 -194.6L1919 -170.6L1886.9 -122.9H1886.2L1886.3 -122.8L1821.8 -121V-120.8L1819.9 -99.3L1782.2 -86L1713.7 -156.3L1713.5 -156L1674.2 -68.5L1672.2 -68.2L1673.4 -68.1L1614.2 -39.2L1519 -91.6V-91.7H1518.8L1517.6 -92.4L1518.2 -91.7L1497.3 -90L1478.5 -135.5L1411 -82.3L1411.8 -82.4L1464.9 -47.1L1406.5 1.40002L1406.9 1.60004L1481.4 33L1528.1 104.5L1483.4 151.7L1483.5 151.9L1497.3 168.5L1480 204.6L1381.9 203.4L1382 203.7L1416.1 293.4L1414.9 295L1415.8 294.2L1404 328.6L1308.6 310.2L1226.8 267.6L1226.7 267.5H1226.6H1226.5L1226.4 267.6L1137.2 287.1H1137.1H1136.9V287.2L1083.2 366.3L1018.5 385.9L943.003 357.9L943.803 358.7L954.103 416.1L951.103 437.2L906.903 452.3L906.503 452L906.603 452.4L906.003 452.6L906.603 452.8L924.003 545.8L901.003 556.2L800.803 517.5L800.703 517.4H800.603L800.503 517.3L800.403 517.4L706.503 535.4L646.903 503.5L613.303 430.3V431.4L580.703 480L563.603 492.8L520.803 471.8L521.203 472.5L527.003 520.2L454.703 568.7ZM507.503 565.5L456.503 568.1L526.803 520.9L507.503 565.5ZM521.803 473.6L541.703 509.2L527.403 519.9L521.803 473.6ZM563.203 493.1L542.203 508.9L522.003 473L563.203 493.1ZM616.403 559.4L558.103 535.5L616.003 540.1L616.403 559.4ZM556.703 534.9L542.403 509.4L563.703 493.4L615.703 518.9L616.103 539.6L556.703 534.9ZM634.803 527.6L647.403 504.8L666.903 543.3L634.803 527.6ZM634.303 527.4L616.103 518.5L615.603 493.1L646.903 504.5L634.303 527.4ZM634.103 527.9L627.103 540.5L616.603 539.7L616.203 519.2L634.103 527.9ZM564.203 493L581.003 480.4L615.203 492.9L615.703 518.3L564.203 493ZM614.103 432.9L615.203 492.3L581.303 480L614.103 432.9ZM614.603 433.4L646.903 503.9L615.703 492.5L614.603 433.4ZM706.403 536.2L667.603 543.6L648.003 504.9L706.403 536.2ZM707.103 536.6L771.003 570.8L668.603 544L707.103 536.6ZM900.903 557.1L878.203 567.4L803.503 519.5L900.903 557.1ZM927.403 567.3L879.403 567.4L901.603 557.3L927.403 567.3ZM924.703 546.9L928.503 567.2L902.303 557.1L924.703 546.9ZM925.203 546.7L933.403 543L928.803 566.3L925.203 546.7ZM925.103 546.1L907.903 453.7L945.203 483L933.503 542.3L925.103 546.1ZM963.503 528.7L934.103 542L945.603 483.6L963.503 528.7ZM976.603 472.4L948.503 464.5L952.303 438.2L1007.1 419.5L1022 433.9L976.603 472.4ZM1022.3 434.1L1036.2 447.5L978.103 471.8L1022.3 434.1ZM1060.5 400.5L1026.7 412.1L1019.5 387.1L1060.5 400.5ZM1026.2 412.2L1007.1 418.8L988.803 401.1L1019 387L1026.2 412.2ZM1026.4 412.7L1030.4 426.6L1022.4 433.4L1007.6 419.2L1026.4 412.7ZM975.803 472.7L945.803 482.7L948.303 465L975.803 472.7ZM908.603 453.7L947.803 464.8L945.303 482.5L908.603 453.7ZM951.703 438.3L948.003 464.3L908.403 453.1L951.703 438.3ZM952.303 437.5L955.303 416.7L988.303 401.3L1006.6 418.9L952.303 437.5ZM945.103 359.7L987.903 400.9L955.203 416.1L945.103 359.7ZM1018.5 386.7L988.403 400.8L945.803 359.7L1018.5 386.7ZM1083.4 367.5L1061.2 400.2L1020 386.7L1083.4 367.5ZM1084.2 367.2L1153.5 346.2L1062.1 399.7L1084.2 367.2ZM1307.6 310.4L1245.4 302L1227.8 268.8L1307.6 310.4ZM1404.3 329.6L1394.9 357L1359.6 367.2L1309.7 311.3L1404.3 329.6ZM1383.1 204.3L1480.2 205.5L1417 293.3L1383.1 204.3ZM1533.5 -1.79996L1466.1 -46.6L1502.5 -76.8L1533.5 -1.79996ZM1502.9 -77.1L1519 -90.5L1533.4 -3.29996L1502.9 -77.1ZM1552.6 82.9001L1528.9 104.5L1518.1 49.2L1552.6 82.9001ZM1482.1 33.1L1467.5 10.8L1533.6 -0.799957L1517.5 48.1L1482.1 33.1ZM1534.6 0.100037L1545.9 16.5L1539.9 23.2L1534.6 0.100037ZM1539.4 23.7L1518.3 47.3L1534 -0.199982L1539.4 23.7ZM1539.5 24.3L1552.7 82.3L1518.1 48.4001L1539.5 24.3ZM1552.9 83.4001L1557.8 100.6L1529.6 104.6L1552.9 83.4001ZM1557.9 101.1L1565.1 126.7L1522.6 166L1503.1 158.9L1528.9 105.2L1557.9 101.1ZM1502.7 158.7L1484.6 152.1L1527.8 106.4L1502.7 158.7ZM1522.2 166.4L1507.6 179.9L1498.4 168.9L1503 159.4L1522.2 166.4ZM1522.8 166.6L1546.7 175.3L1524.8 200.4L1508 180.3L1522.8 166.6ZM1524.2 200.7L1481.3 205L1507.5 180.7L1524.2 200.7ZM1480.2 206.4L1473.2 245L1418.3 292.3L1480.2 206.4ZM1498.1 169.4L1507.2 180.3L1481.4 204.2L1498.1 169.4ZM1498 168.5L1484.9 152.8L1502.4 159.2L1498 168.5ZM1482.6 33.9001L1517.5 48.6L1528.3 103.8L1482.6 33.9001ZM1465.7 -46.3L1533.4 -1.29996L1466.7 10.4L1466.9 10.7L1481.3 32.7L1407.9 1.70004L1465.7 -46.3ZM1413 -81.9L1497.4 -88.9L1502.2 -77.2L1465.6 -46.8L1413 -81.9ZM1497.3 -89.4L1413.1 -82.4L1478.8 -134.1L1497.3 -89.4ZM1518.4 -90.7L1502.7 -77.6L1498 -89L1518.4 -90.7ZM1579.8 -21.8L1534.2 -1.49997L1519.6 -90.2L1579.8 -21.8ZM1614.1 -38.5L1580.3 -22L1520.4 -90.1L1614.1 -38.5ZM1669.2 -8.19998L1581.1 -21.8L1614.7 -38.2L1669.2 -8.19998ZM1615.2 -38.5L1674.5 -67.5L1670.3 -8.19998L1615.2 -38.5ZM1782 -85.6L1675.2 -68.2L1714.2 -155.1L1782 -85.6ZM1850.5 -59.9L1817.2 -57.6L1819.5 -83.7L1839.7 -82.9L1850.5 -59.9ZM1851.2 -59.5L1887.2 -62L1876.3 -5.69998L1851.2 -59.5ZM1910.9 -104.5L1897.9 -81.3L1840.1 -83.5L1831.3 -102.3L1887.5 -122L1910.9 -104.5ZM1888.3 -122L1919.9 -120.5L1911.2 -104.9L1888.3 -122ZM1822.9 -120.2L1885.8 -122L1831 -102.8L1822.9 -120.2ZM1839.5 -83.5L1819.6 -84.3L1820.9 -98.6L1830.9 -102.1L1839.5 -83.5ZM1783.3 -85.2L1819 -83.8L1816.7 -57.9L1783.3 -85.2ZM1781.5 -85L1749.3 -62.6L1677.1 -68L1781.5 -85ZM1820.3 -98.4L1819 -84.3L1783.8 -85.7L1820.3 -98.4ZM1820.9 -99.2L1822.7 -119.5L1830.6 -102.6L1820.9 -99.2ZM1888 -122.5L1919.5 -169.3L1920 -121.1L1888 -122.5ZM1965.6 -193L1920.5 -121.4L1920 -170L1965.6 -193ZM1944.2 -80.2L1911.6 -104.6L1920.3 -120.2L1944.2 -80.2ZM1898.5 -81.2L1911.3 -104.1L1944.3 -79.4L1898.5 -81.2ZM1887.4 -62.4L1851 -59.9L1840.3 -82.9L1897.6 -80.7L1887.4 -62.4ZM1957.6 17.3L1876.7 -4.99997L1887.7 -61.7L1957.6 17.3ZM1889.4 29.1L1877 -3.99997L1877.1 -3.89996L1876.8 -4.49997L1957.1 17.6L1889.4 29.1ZM1817.5 -57.2L1850.7 -59.5L1875.7 -5.89996L1817.5 -57.2ZM1750.1 -62.6L1782.6 -85.1L1816.2 -57.7L1750.1 -62.6ZM1704.3 -31.4L1675.5 -67.6L1748.7 -62.2L1704.3 -31.4ZM1671.2 -7.89996L1704.2 -30.8L1736.2 9.30002L1671.2 -7.89996ZM1670.9 -8.29996L1675.1 -67.3L1703.9 -31.2L1670.9 -8.29996ZM1563.8 -2.79996L1580.4 -21.4L1668.1 -7.89996L1563.8 -2.79996ZM1535.4 -1.49997L1579.2 -21L1563 -2.79996L1535.4 -1.49997ZM1546.2 16.1L1534.5 -0.899963L1562.6 -2.29996L1546.2 16.1ZM1599.3 94.4001L1553.3 82.8L1539.9 23.9001L1546.1 17L1599.3 94.4001ZM1598.6 94.8L1558.2 100.6L1553.3 83.4001L1598.6 94.8ZM1565.5 126.3L1558.4 101L1599.2 95.2L1565.5 126.3ZM1565.3 127.3L1571 147.5L1547.1 175L1523.3 166.3L1565.3 127.3ZM1603.4 195.5L1547.6 175.1L1571.3 147.9L1603.4 195.5ZM1525.3 200.6L1547.1 175.5L1602.7 195.8L1525.3 200.6ZM1473.8 244.4L1480.8 205.5L1523.9 201.2L1473.8 244.4ZM1417.2 293.9L1473 245.8L1456.2 338.9L1417.2 293.9ZM1455.7 339L1405 329.2L1417 294.4L1455.7 339ZM1455.3 339.4L1395.5 356.8L1404.8 329.7L1455.3 339.4ZM1383.1 392.7L1395.3 357.4L1455.1 340L1383.1 392.7ZM1360 367.7L1394.7 357.6L1382.5 393L1360 367.7ZM1291.9 387.4L1359.4 367.8L1382 393.1L1291.9 387.4ZM1290.8 387.2L1309.1 311.4L1359 367.4L1290.8 387.2ZM1245.6 302.6L1308.6 311.1L1290.3 386.9L1245.6 302.6ZM1201.6 296.1L1227.1 268.6L1244.8 301.9L1201.6 296.1ZM1139.3 287.7L1226.4 268.7L1201 296.1L1139.3 287.7ZM1200.5 296.5L1155.6 344.9L1138.2 288L1200.5 296.5ZM1155.2 345.2L1084.7 366.6L1137.8 288.3L1155.2 345.2ZM1061.8 400.5L1155.2 345.9L1150.1 441L1061.8 400.5ZM1030.7 426.2L1026.8 412.6L1060.1 401.2L1030.7 426.2ZM1030.5 427.1L1036.1 446.7L1022.7 433.7L1030.5 427.1ZM963.703 528L945.903 483.2L976.303 473L963.703 528ZM929.203 566.7L933.903 542.7L962.703 529.6L929.203 566.7ZM905.903 654.8L878.603 567.9L928.503 567.8L905.903 654.8ZM840.403 569.3L878.003 567.9L905.203 654.4L840.403 569.3ZM802.303 519.3L877.403 567.4L840.103 568.8L802.303 519.3ZM839.403 568.8L773.403 571.3L801.303 518.8L839.403 568.8ZM772.903 571.2L707.903 536.4L800.803 518.6L772.903 571.2ZM701.603 635.3L667.803 544.3L772.403 571.7L701.603 635.3ZM627.603 540.5L634.503 528.1L666.103 543.6L627.603 540.5ZM626.803 540.9L616.903 558.7L616.603 540L626.803 540.9ZM555.903 534.5L527.603 520.4L541.903 509.7L555.903 534.5ZM556.003 535.1L508.203 565.1L527.303 520.8L556.003 535.1Z" fill="#AAAAAA"/>
<path d="M1404.4 3.7C1405.4 5.4 1407.6 5.89997 1409.3 4.79997C1411 3.79997 1411.5 1.59998 1410.4 -0.10002C1409.4 -1.80002 1407.2 -2.30003 1405.5 -1.20003C1403.8 -0.100026 1403.3 2.1 1404.4 3.7Z" fill="#646464"/>
<path d="M1734.6 11.1C1735.3 12.3 1736.9 12.7 1738.1 11.9C1739.3 11.2 1739.7 9.60001 1738.9 8.40001C1738.2 7.20001 1736.6 6.80002 1735.4 7.60002C1734.3 8.40002 1733.9 9.89999 1734.6 11.1Z" fill="#646464"/>
<path d="M1523.7 205.3C1526.2 205.9 1528.6 204.3 1529.2 201.9C1529.8 199.4 1528.2 197 1525.8 196.4C1523.3 195.8 1520.9 197.4 1520.3 199.8C1519.7 202.3 1521.2 204.7 1523.7 205.3Z" fill="#646464"/>
<path d="M1415.8 298.3C1418.3 298.9 1420.7 297.3 1421.3 294.9C1421.9 292.4 1420.3 290 1417.9 289.4C1415.4 288.8 1413 290.4 1412.4 292.8C1411.8 295.3 1413.3 297.7 1415.8 298.3Z" fill="#646464"/>
<path d="M1483.3 155.7C1485.2 156.1 1487.1 155 1487.6 153C1488 151.1 1486.9 149.2 1484.9 148.7C1483 148.3 1481.1 149.4 1480.6 151.4C1480.2 153.3 1481.4 155.3 1483.3 155.7Z" fill="#646464"/>
<path d="M1381.9 207.5C1383.8 207.9 1385.7 206.8 1386.2 204.8C1386.6 202.9 1385.5 201 1383.5 200.5C1381.6 200.1 1379.7 201.2 1379.2 203.2C1378.8 205.2 1380 207.1 1381.9 207.5Z" fill="#646464"/>
<path d="M1599.1 98.3C1601 98.7 1602.9 97.6 1603.4 95.6C1603.9 93.7 1602.7 91.8 1600.7 91.3C1598.8 90.9 1596.9 92 1596.4 94C1596 95.9 1597.2 97.8 1599.1 98.3Z" fill="#646464"/>
<path d="M1570.4 151C1572.3 151.4 1574.2 150.3 1574.7 148.3C1575.1 146.4 1574 144.5 1572 144C1570.1 143.6 1568.2 144.7 1567.7 146.7C1567.3 148.6 1568.5 150.5 1570.4 151Z" fill="#646464"/>
<path d="M1381.8 396.9C1383.7 397.3 1385.6 396.2 1386.1 394.3C1386.5 392.4 1385.4 390.5 1383.4 390C1381.5 389.6 1379.6 390.7 1379.1 392.7C1378.7 394.5 1379.9 396.4 1381.8 396.9Z" fill="#646464"/>
<path d="M1289.6 391C1291.5 391.5 1293.4 390.3 1293.9 388.4C1294.3 386.5 1293.2 384.6 1291.2 384.1C1289.3 383.7 1287.4 384.8 1286.9 386.8C1286.5 388.7 1287.7 390.6 1289.6 391Z" fill="#646464"/>
<path d="M1516.9 51.9C1518.8 52.3 1520.7 51.2 1521.2 49.2C1521.6 47.3 1520.5 45.4 1518.5 44.9C1516.6 44.5 1514.7 45.6 1514.2 47.6C1513.8 49.5 1515 51.4 1516.9 51.9Z" fill="#646464"/>
<path d="M1528.2 107.5C1529.6 107.8 1530.9 107 1531.3 105.6C1531.6 104.2 1530.8 102.9 1529.4 102.5C1528 102.2 1526.7 103 1526.3 104.4C1526 105.8 1526.8 107.2 1528.2 107.5Z" fill="#646464"/>
<path d="M1533.5 1.3C1534.9 1.6 1536.2 0.800004 1536.6 -0.599996C1536.9 -2 1536.1 -3.3 1534.7 -3.7C1533.3 -4 1532 -3.19998 1531.6 -1.79998C1531.2 -0.399978 1532.1 0.999998 1533.5 1.3Z" fill="#646464"/>
<path d="M1466.5 13.1C1467.9 13.4 1469.2 12.6 1469.6 11.2C1469.9 9.80002 1469.1 8.50002 1467.7 8.10002C1466.3 7.80002 1465 8.60001 1464.6 10C1464.3 11.4 1465.2 12.8 1466.5 13.1Z" fill="#646464"/>
<path d="M1552.5 85.3C1553.9 85.6 1555.2 84.8 1555.6 83.4C1555.9 82 1555.1 80.7 1553.7 80.3C1552.3 80 1551 80.8 1550.6 82.2C1550.3 83.6 1551.1 85 1552.5 85.3Z" fill="#646464"/>
<path d="M1603.4 198.4C1604.8 198.7 1606.1 197.9 1606.5 196.5C1606.8 195.1 1606 193.8 1604.6 193.4C1603.2 193.1 1601.9 193.9 1601.5 195.3C1601.2 196.8 1602.1 198.1 1603.4 198.4Z" fill="#646464"/>
<path d="M1480 207.8C1481.4 208.1 1482.7 207.3 1483.1 205.9C1483.4 204.5 1482.6 203.2 1481.2 202.8C1479.8 202.5 1478.5 203.3 1478.1 204.7C1477.8 206.1 1478.7 207.5 1480 207.8Z" fill="#646464"/>
<path d="M1455.8 341.9C1457.2 342.2 1458.5 341.4 1458.9 340C1459.2 338.6 1458.4 337.3 1457 336.9C1455.6 336.6 1454.3 337.4 1453.9 338.8C1453.6 340.2 1454.4 341.5 1455.8 341.9Z" fill="#646464"/>
<path d="M652.003 503.7C651.603 501.2 649.303 499.4 646.803 499.8C644.303 500.1 642.503 502.5 642.903 505C643.203 507.5 645.603 509.3 648.103 508.9C650.603 508.5 652.303 506.2 652.003 503.7Z" fill="#646464"/>
<path d="M524.902 471.9C524.602 470 522.802 468.6 520.902 468.9C518.902 469.2 517.602 471 517.902 472.9C518.202 474.9 520.002 476.2 521.902 475.9C523.902 475.6 525.202 473.8 524.902 471.9Z" fill="#646464"/>
<path d="M584.404 479.7C584.104 477.8 582.304 476.4 580.404 476.7C578.504 477 577.104 478.8 577.404 480.7C577.704 482.7 579.504 484 581.404 483.7C583.304 483.4 584.704 481.6 584.404 479.7Z" fill="#646464"/>
<path d="M616.801 431.8C616.601 430.4 615.301 429.4 613.901 429.6C612.501 429.8 611.501 431.1 611.701 432.5C611.901 433.9 613.201 434.9 614.601 434.7C616.101 434.5 617.001 433.2 616.801 431.8Z" fill="#646464"/>
<path d="M1021.9 383C1019.9 381.5 1017 381.9 1015.5 383.9C1014 385.9 1014.4 388.8 1016.4 390.3C1018.4 391.8 1021.3 391.4 1022.8 389.4C1024.3 387.4 1023.9 384.5 1021.9 383Z" fill="#646464"/>
<path d="M1158.2 341.7C1156.2 340.2 1153.3 340.6 1151.8 342.6C1150.3 344.6 1150.7 347.5 1152.7 349C1154.7 350.5 1157.6 350.1 1159.1 348.1C1160.7 346.1 1160.3 343.2 1158.2 341.7Z" fill="#646464"/>
<path d="M1038.7 444.7C1037.1 443.5 1034.9 443.8 1033.7 445.4C1032.5 447 1032.8 449.2 1034.4 450.4C1036 451.6 1038.2 451.3 1039.4 449.7C1040.6 448.1 1040.3 445.9 1038.7 444.7Z" fill="#646464"/>
<path d="M1152.5 438.5C1150.9 437.3 1148.7 437.6 1147.5 439.2C1146.3 440.8 1146.6 443 1148.2 444.2C1149.8 445.4 1152 445.1 1153.2 443.5C1154.3 441.9 1154 439.6 1152.5 438.5Z" fill="#646464"/>
<path d="M909.601 450.3C908.001 449.1 905.801 449.4 904.601 451C903.401 452.6 903.7 454.8 905.3 456C906.9 457.2 909.1 456.9 910.3 455.3C911.5 453.7 911.201 451.5 909.601 450.3Z" fill="#646464"/>
<path d="M957.202 413.7C955.602 412.5 953.402 412.8 952.202 414.4C951.002 416 951.302 418.2 952.902 419.4C954.502 420.6 956.702 420.3 957.902 418.7C959.002 417.2 958.702 414.9 957.202 413.7Z" fill="#646464"/>
<path d="M1229.3 265.4C1227.7 264.2 1225.5 264.5 1224.3 266.1C1223.1 267.7 1223.4 269.9 1225 271.1C1226.6 272.3 1228.8 272 1230 270.4C1231.2 268.8 1230.8 266.5 1229.3 265.4Z" fill="#646464"/>
<path d="M1311.2 308.1C1309.6 306.9 1307.4 307.2 1306.2 308.8C1305 310.4 1305.3 312.6 1306.9 313.8C1308.5 315 1310.7 314.7 1311.9 313.1C1313 311.5 1312.7 309.2 1311.2 308.1Z" fill="#646464"/>
<path d="M978.204 470.6C977.104 469.7 975.504 470 974.604 471.1C973.704 472.2 974.004 473.8 975.104 474.7C976.204 475.5 977.804 475.3 978.704 474.2C979.504 473.1 979.304 471.5 978.204 470.6Z" fill="#646464"/>
<path d="M946.903 481C945.803 480.2 944.203 480.4 943.303 481.5C942.403 482.6 942.703 484.2 943.803 485.1C944.903 486 946.503 485.7 947.403 484.6C948.303 483.5 948.103 481.9 946.903 481Z" fill="#646464"/>
<path d="M946.204 357C945.104 356.1 943.504 356.4 942.604 357.5C941.804 358.6 942.004 360.2 943.104 361.1C944.204 361.9 945.804 361.7 946.704 360.6C947.604 359.4 947.404 357.8 946.204 357Z" fill="#646464"/>
<path d="M1062.8 398.5C1061.7 397.7 1060.1 397.9 1059.2 399C1058.4 400.1 1058.6 401.7 1059.7 402.6C1060.8 403.4 1062.4 403.2 1063.3 402.1C1064.2 400.9 1064 399.3 1062.8 398.5Z" fill="#646464"/>
<path d="M1139.3 285.7C1138.2 284.9 1136.6 285.1 1135.7 286.2C1134.8 287.3 1135.1 288.9 1136.2 289.8C1137.3 290.6 1138.9 290.4 1139.8 289.3C1140.7 288.1 1140.5 286.5 1139.3 285.7Z" fill="#646464"/>
</g>
<path d="M1518.9 303.5L1471.2 305.9L1427.4 333.4L1373.3 311.2L1363.8 328.3L1328 325.4L1297.3 242.7L1297.1 242.9L1233 300.5L1231.2 300L1232.2 300.5L1173 302.7L1113 223.9L1113.4 225.1L1092.9 304L1092.8 303.9L1092.9 304.2L1061.5 338.9L1061.3 339L1061.4 339.1L1049.9 389.4L995.901 412L996.001 412.2L1001.3 430.8L973.901 454.1L893.701 417.3V417.6L889.101 503.7L887.501 504.6L888.501 504.3L848.201 547.7L808.801 542.4L768.201 466.4L769.201 466.1L768.001 466L767.801 465.6L767.701 466L685.201 460.8L685.101 460.7L685.001 460.8H684.901V460.9L618.701 509.4H618.601V509.5L618.501 509.6L618.601 509.7L603.301 594.3L557.301 634L485.001 638.5L486.001 638.8L515.401 682.3L520.601 700.8L489.801 729.4L489.301 729.3L489.501 729.6L489.101 730L489.701 729.9L537.801 800L522.701 816.9L426.301 821.6H426.201L366.101 805.7L395.701 842.8L355.401 870.7L294.801 866.2L241.501 819.1V819H241.401L229.801 788.2L167.601 798.7L166.901 798.5L230.901 870.8L221.601 887.4L178.801 885.7L179.301 886.1L201.501 923.2L159.801 989.4L202.501 967.9L231.401 925H232.001L231.901 924.9L289.801 923.3V923.1L291.501 903.8L325.401 891.9L387.001 955.1L387.101 954.8L422.401 876.1L424.201 875.8L423.101 875.7L476.301 849.7L561.901 896.8V896.9H562.001L563.101 897.5L562.501 896.9L581.301 895.3L598.201 936.2L658.901 888.4L658.201 888.5L610.501 856.8L663.001 813.2L662.701 813L595.801 784.8L553.801 720.6L593.901 678.1L593.801 677.9L581.401 663L597.001 630.6L685.201 631.7L685.101 631.4L654.401 550.8L655.501 549.3L654.701 550L665.301 519L751.001 535.6L824.501 573.9V574H824.601H824.701L824.801 573.9L905.001 556.4H905.101H905.301V556.3L953.501 485.2L1011.6 467.6L1079.5 492.8L1078.8 492.1L1069.6 440.5L1072.3 421.5L1112.1 407.9L1112.5 408.2L1112.4 407.8L1112.9 407.6L1112.3 407.4L1096.7 323.8L1117.4 314.4L1207.4 349.2V349.3H1207.5L1207.6 349.4L1207.7 349.3L1292.1 333.1L1345.7 361.8L1375.9 427.6V426.6L1405.9 383.6L1421.2 372.1L1459.7 391L1459.4 390.4L1454.2 347.5L1518.9 303.5ZM1471.5 306.4L1517.4 304.1L1454.3 346.5L1471.5 306.4ZM1458.6 389L1440.7 357L1453.5 347.4L1458.6 389ZM1421.5 371.4L1440.4 357.2L1458.5 389.5L1421.5 371.4ZM1373.6 311.9L1426 333.4L1374 329.3L1373.6 311.9ZM1427.3 333.9L1440.2 356.8L1421.1 371.1L1374.4 348.2L1374.1 329.6L1427.3 333.9ZM1357.1 340.4L1345.8 360.8L1328.3 326.2L1357.1 340.4ZM1357.5 340.6L1373.8 348.6L1374.2 371.5L1346 361.2L1357.5 340.6ZM1357.7 340.2L1364 328.9L1373.5 329.7L1373.8 348.1L1357.7 340.2ZM1420.6 371.5L1405.5 382.8L1374.7 371.6L1374.3 348.8L1420.6 371.5ZM1375.7 425.5L1374.7 372.1L1405.1 383.2L1375.7 425.5ZM1375.3 425.1L1346.2 361.7L1374.3 371.9L1375.3 425.1ZM1292.8 332.7L1327.7 326L1345.3 360.8L1292.8 332.7ZM1292.1 332.4L1234.7 301.7L1326.7 325.8L1292.1 332.4ZM1117.9 314L1138.3 304.8L1205.5 347.9L1117.9 314ZM1094.1 304.8L1137.3 304.7L1117.4 313.7L1094.1 304.8ZM1096.6 323.1L1093.2 304.9L1116.8 314L1096.6 323.1ZM1096.2 323.3L1088.8 326.6L1092.9 305.7L1096.2 323.3ZM1096.3 323.8L1111.8 406.8L1078.2 380.5L1088.7 327.2L1096.3 323.8ZM1061.7 339.4L1088.1 327.4L1077.8 379.9L1061.7 339.4ZM1049.9 390.1L1075.2 397.2L1071.8 420.9L1022.6 437.7L1009.2 424.8L1049.9 390.1ZM1008.9 424.5L996.401 412.5L1048.6 390.7L1008.9 424.5ZM974.501 454.7L1004.9 444.3L1011.3 466.8L974.501 454.7ZM1005.3 444.1L1022.5 438.2L1039 454.1L1011.8 466.8L1005.3 444.1ZM1005.2 443.7L1001.6 431.3L1008.8 425.1L1022.1 437.9L1005.2 443.7ZM1050.7 389.8L1077.6 380.8L1075.3 396.7L1050.7 389.8ZM1111 406.8L1075.7 396.9L1078 381L1111 406.8ZM1072.4 420.7L1075.7 397.3L1111.3 407.3L1072.4 420.7ZM1071.8 421.4L1069.1 440.1L1039.4 453.9L1023 438.1L1071.8 421.4ZM1078.2 491.3L1039.8 454.2L1069.2 440.5L1078.2 491.3ZM1012.3 467.1L1039.4 454.5L1077.7 491.4L1012.3 467.1ZM954.001 484.3L973.901 454.9L1010.9 467.1L954.001 484.3ZM953.301 484.6L891.001 503.5L973.101 455.4L953.301 484.6ZM752.501 535.6L808.401 543.2L824.201 573L752.501 535.6ZM665.601 518.4L674.101 493.8L705.801 484.6L750.601 534.9L665.601 518.4ZM684.601 631L597.401 629.9L654.201 551L684.601 631ZM549.501 816.2L610.001 856.4L577.301 883.5L549.501 816.2ZM577.001 883.9L562.501 895.9L549.601 817.5L577.001 883.9ZM532.301 740.1L553.601 720.7L563.301 770.5L532.301 740.1ZM595.601 784.8L608.701 804.8L549.301 815.2L563.801 771.3L595.601 784.8ZM548.501 814.5L538.401 799.8L543.801 793.7L548.501 814.5ZM544.101 793.3L563.001 772.1L548.901 814.8L544.101 793.3ZM544.001 792.7L532.201 740.6L563.301 771.1L544.001 792.7ZM532.001 739.7L527.601 724.2L553.001 720.6L532.001 739.7ZM527.501 723.7L521.001 700.7L559.201 665.4L576.701 671.8L553.501 720L527.501 723.7ZM577.101 671.9L593.401 677.8L554.501 718.9L577.101 671.9ZM559.601 665L572.701 652.8L581.001 662.7L576.901 671.3L559.601 665ZM559.101 664.9L537.601 657.1L557.301 634.5L572.401 652.6L559.101 664.9ZM557.801 634.3L596.401 630.4L572.801 652.2L557.801 634.3ZM597.401 629.2L603.701 594.5L653.001 552L597.401 629.2ZM581.201 662.4L573.001 652.6L596.201 631.1L581.201 662.4ZM581.301 663.2L593.101 677.3L577.301 671.6L581.301 663.2ZM595.201 784.2L563.801 771L554.101 721.4L595.201 784.2ZM610.401 856.2L549.601 815.8L609.501 805.3L609.301 805L596.401 785.2L662.401 813L610.401 856.2ZM657.701 888.2L581.801 894.5L577.501 884L610.401 856.7L657.701 888.2ZM582.001 895L657.601 888.7L598.601 935.2L582.001 895ZM563.001 896.1L577.101 884.4L581.301 894.6L563.001 896.1ZM507.801 834.2L548.801 816L562.001 895.7L507.801 834.2ZM477.001 849.2L507.401 834.4L561.301 895.6L477.001 849.2ZM427.501 822L506.701 834.2L476.501 848.9L427.501 822ZM476.001 849.2L422.701 875.3L426.501 822L476.001 849.2ZM326.101 891.5L422.101 875.9L387.101 954L326.101 891.5ZM264.601 868.5L294.501 866.5L292.401 890L274.201 889.3L264.601 868.5ZM263.901 868L231.601 870.2L241.401 819.6L263.901 868ZM210.301 908.5L222.001 887.6L274.001 889.6L281.901 906.5L231.401 924.2L210.301 908.5ZM230.601 924.2L202.201 922.9L210.101 908.9L230.601 924.2ZM289.301 922.6L232.701 924.2L282.001 906.9L289.301 922.6ZM274.501 889.6L292.401 890.3L291.201 903.2L282.201 906.3L274.501 889.6ZM324.901 891.1L292.801 889.9L294.901 866.6L324.901 891.1ZM326.601 891L355.601 870.9L420.501 875.7L326.601 891ZM291.701 903.1L292.801 890.4L324.401 891.6L291.701 903.1ZM291.201 903.7L289.601 922L282.501 906.8L291.201 903.7ZM230.901 924.7L202.601 966.7L202.101 923.3L230.901 924.7ZM161.101 988L201.601 923.7L202.101 967.4L161.101 988ZM180.401 886.6L209.701 908.6L201.901 922.6L180.401 886.6ZM221.501 887.6L210.001 908.2L180.401 886L221.501 887.6ZM231.401 870.7L264.101 868.5L273.701 889.2L222.201 887.2L231.401 870.7ZM168.301 799L241.001 819L231.201 870L168.301 799ZM229.601 788.4L240.801 818.1L240.701 818L241.001 818.5L168.901 798.6L229.601 788.4ZM294.201 866L264.401 868L242.001 819.8L294.201 866ZM354.801 870.8L325.601 891.1L295.401 866.4L354.801 870.8ZM396.001 842.9L421.901 875.4L356.101 870.5L396.001 842.9ZM425.701 821.7L396.101 842.2L367.401 806.2L425.701 821.7ZM426.001 822L422.301 875L396.401 842.6L426.001 822ZM522.201 817.2L507.301 833.9L428.501 821.7L522.201 817.2ZM547.801 815.9L508.401 833.4L523.001 817.1L547.801 815.9ZM538.001 800.1L548.501 815.4L523.301 816.6L538.001 800.1ZM490.301 729.8L531.601 740.2L543.601 793.2L538.101 799.4L490.301 729.8ZM490.901 729.5L527.201 724.3L531.601 739.7L490.901 729.5ZM520.601 701.1L527.001 723.8L490.401 729.1L520.601 701.1ZM520.901 700.2L515.801 682L537.301 657.3L558.701 665.1L520.901 700.2ZM486.701 638.9L536.901 657.2L515.601 681.6L486.701 638.9ZM556.801 634.3L537.201 656.8L487.201 638.6L556.801 634.3ZM603.101 594.9L596.801 629.9L558.001 633.8L603.101 594.9ZM654.001 550.5L603.801 593.7L618.901 510.1L654.001 550.5ZM619.401 510L665.001 518.8L654.201 550.1L619.401 510ZM619.701 509.6L673.501 494L665.101 518.4L619.701 509.6ZM684.601 461.6L673.701 493.4L620.001 509L684.601 461.6ZM705.401 484.2L674.201 493.3L685.101 461.5L705.401 484.2ZM766.501 466.4L705.801 484L685.501 461.2L766.501 466.4ZM767.501 466.6L751.001 534.7L706.201 484.4L767.501 466.6ZM808.101 542.7L751.401 535L767.901 466.9L808.101 542.7ZM847.701 548.5L824.801 573.2L808.901 543.3L847.701 548.5ZM903.701 556.1L825.401 573.2L848.301 548.6L903.701 556.1ZM848.701 548.2L889.101 504.7L904.801 555.8L848.701 548.2ZM889.401 504.4L952.801 485.2L905.101 555.5L889.401 504.4ZM973.301 454.7L889.401 503.8L894.001 418.4L973.301 454.7ZM1001.3 431.6L1004.8 443.9L974.901 454.1L1001.3 431.6ZM1001.5 430.8L996.501 413.2L1008.6 424.8L1001.5 430.8ZM1061.5 340.1L1077.5 380.4L1050.2 389.5L1061.5 340.1ZM1092.5 305.3L1088.2 326.9L1062.3 338.6L1092.5 305.3ZM1113.4 226.1L1138 304.2L1093.2 304.3L1113.4 226.1ZM1172.3 303L1138.5 304.3L1114 226.6L1172.3 303ZM1206.5 347.9L1139 304.6L1172.6 303.3L1206.5 347.9ZM1173.2 303.4L1232.5 301.2L1207.5 348.4L1173.2 303.4ZM1233 301.3L1291.4 332.6L1207.9 348.6L1233 301.3ZM1297 243.7L1327.4 325.5L1233.4 300.9L1297 243.7ZM1363.5 328.9L1357.3 340.1L1328.9 326.2L1363.5 328.9ZM1364.3 328.5L1373.2 312.5L1373.5 329.3L1364.3 328.5ZM1428 334.3L1453.4 347L1440.5 356.7L1428 334.3ZM1427.9 333.7L1470.8 306.7L1453.6 346.5L1427.9 333.7Z" fill="#AAAAAA"/>
<path d="M685.8 457.9C684.1 457.5 682.4 458.6 682 460.3C681.6 462 682.7 463.7 684.4 464.1C686.1 464.5 687.8 463.4 688.2 461.7C688.6 460 687.5 458.3 685.8 457.9Z" fill="#646464"/>
<path d="M768.601 463.2C766.901 462.8 765.201 463.9 764.801 465.6C764.401 467.3 765.501 469 767.201 469.4C768.901 469.8 770.601 468.7 771.001 467C771.401 465.3 770.301 463.6 768.601 463.2Z" fill="#646464"/>
<path d="M1341.7 361.9C1342 364.1 1344.1 365.7 1346.3 365.4C1348.6 365.1 1350.1 363 1349.8 360.8C1349.5 358.5 1347.4 357 1345.2 357.3C1342.9 357.6 1341.4 359.7 1341.7 361.9Z" fill="#646464"/>
<path d="M1228.8 301.5C1229.1 303.8 1231.2 305.3 1233.5 305C1235.7 304.7 1237.3 302.6 1237 300.4C1236.7 298.1 1234.6 296.6 1232.4 296.9C1230.1 297.2 1228.5 299.3 1228.8 301.5Z" fill="#646464"/>
<path d="M1370.2 312C1370.4 313.7 1372.1 315 1373.8 314.7C1375.5 314.5 1376.8 312.8 1376.5 311.1C1376.3 309.4 1374.6 308.1 1372.9 308.4C1371.2 308.6 1370 310.3 1370.2 312Z" fill="#646464"/>
<path d="M1294 243.7C1294.2 245.4 1295.9 246.7 1297.6 246.4C1299.3 246.2 1300.6 244.5 1300.3 242.8C1300.1 241.1 1298.4 239.8 1296.7 240.1C1294.9 240.3 1293.7 242 1294 243.7Z" fill="#646464"/>
<path d="M1455.8 390.5C1456 392.2 1457.7 393.5 1459.4 393.2C1461.2 393 1462.4 391.3 1462.1 389.6C1461.9 387.8 1460.2 386.6 1458.5 386.9C1456.8 387.2 1455.6 388.8 1455.8 390.5Z" fill="#646464"/>
<path d="M1402.4 383.5C1402.7 385.3 1404.3 386.5 1406 386.2C1407.8 386 1409 384.3 1408.7 382.6C1408.4 380.9 1406.8 379.6 1405.1 379.9C1403.3 380.2 1402.1 381.8 1402.4 383.5Z" fill="#646464"/>
<path d="M1135.2 304.9C1135.4 306.7 1137.1 307.9 1138.8 307.6C1140.6 307.4 1141.8 305.7 1141.5 304C1141.2 302.3 1139.6 301 1137.9 301.3C1136.1 301.5 1134.9 303.2 1135.2 304.9Z" fill="#646464"/>
<path d="M1110.3 225.7C1110.5 227.5 1112.2 228.7 1113.9 228.4C1115.6 228.2 1116.9 226.5 1116.6 224.8C1116.4 223 1114.7 221.8 1113 222.1C1111.2 222.4 1110 224 1110.3 225.7Z" fill="#646464"/>
<path d="M1468.1 306.6C1468.4 308.4 1470 309.6 1471.7 309.3C1473.5 309.1 1474.7 307.4 1474.4 305.7C1474.2 303.9 1472.5 302.7 1470.8 303C1469.1 303.2 1467.9 304.8 1468.1 306.6Z" fill="#646464"/>
<path d="M1425.2 334C1425.4 335.3 1426.5 336.1 1427.8 336C1429.1 335.8 1429.9 334.7 1429.7 333.4C1429.5 332.1 1428.4 331.3 1427.1 331.4C1425.9 331.6 1425 332.8 1425.2 334Z" fill="#646464"/>
<path d="M1515.9 304.1C1516.1 305.3 1517.2 306.2 1518.5 306C1519.8 305.8 1520.6 304.7 1520.5 303.4C1520.3 302.2 1519.2 301.3 1517.9 301.5C1516.6 301.7 1515.7 302.9 1515.9 304.1Z" fill="#646464"/>
<path d="M1451.6 347.3C1451.8 348.5 1452.9 349.4 1454.2 349.3C1455.4 349.1 1456.3 348 1456.1 346.7C1455.9 345.4 1454.8 344.6 1453.5 344.7C1452.3 344.9 1451.4 346 1451.6 347.3Z" fill="#646464"/>
<path d="M1373.2 426.5C1373.4 427.8 1374.5 428.6 1375.8 428.5C1377.1 428.3 1377.9 427.2 1377.8 425.9C1377.6 424.6 1376.5 423.8 1375.2 423.9C1373.9 424.1 1373.1 425.3 1373.2 426.5Z" fill="#646464"/>
<path d="M1325.5 326.1C1325.7 327.4 1326.8 328.2 1328.1 328C1329.4 327.8 1330.2 326.7 1330.1 325.4C1329.9 324.1 1328.8 323.3 1327.5 323.5C1326.2 323.7 1325.3 324.8 1325.5 326.1Z" fill="#646464"/>
<path d="M1205.2 349.1C1205.4 350.4 1206.5 351.2 1207.8 351.1C1209 350.9 1209.9 349.8 1209.7 348.5C1209.5 347.2 1208.4 346.4 1207.1 346.5C1205.9 346.7 1205.1 347.9 1205.2 349.1Z" fill="#646464"/>
<path d="M1009.2 470.4C1011 471.8 1013.6 471.4 1015 469.6C1016.4 467.8 1016 465.2 1014.2 463.8C1012.4 462.4 1009.8 462.8 1008.4 464.6C1007 466.4 1007.4 469 1009.2 470.4Z" fill="#646464"/>
<path d="M886.7 507.5C888.5 508.9 891.101 508.5 892.501 506.7C893.901 504.9 893.5 502.3 891.7 500.9C889.9 499.5 887.3 499.9 885.9 501.7C884.5 503.5 884.9 506.1 886.7 507.5Z" fill="#646464"/>
<path d="M994.1 414.9C995.5 416 997.5 415.7 998.6 414.3C999.7 412.9 999.4 410.9 998 409.8C996.6 408.7 994.6 409 993.5 410.4C992.4 411.9 992.7 413.9 994.1 414.9Z" fill="#646464"/>
<path d="M891.9 420.6C893.3 421.7 895.3 421.4 896.4 420C897.5 418.6 897.2 416.6 895.8 415.5C894.4 414.4 892.4 414.7 891.3 416.1C890.2 417.5 890.5 419.5 891.9 420.6Z" fill="#646464"/>
<path d="M1110.2 409.9C1111.6 411 1113.6 410.7 1114.7 409.3C1115.8 407.9 1115.5 405.9 1114.1 404.8C1112.7 403.7 1110.7 404 1109.6 405.4C1108.5 406.8 1108.7 408.9 1110.2 409.9Z" fill="#646464"/>
<path d="M1067.4 442.8C1068.8 443.9 1070.8 443.6 1071.9 442.2C1073 440.8 1072.7 438.8 1071.3 437.7C1069.9 436.6 1067.9 436.9 1066.8 438.3C1065.7 439.7 1066 441.7 1067.4 442.8Z" fill="#646464"/>
<path d="M1059.5 341.9C1060.9 343 1062.9 342.7 1064 341.3C1065.1 339.9 1064.8 337.9 1063.4 336.8C1062 335.7 1060 336 1058.9 337.4C1057.8 338.8 1058.1 340.8 1059.5 341.9Z" fill="#646464"/>
<path d="M1048.5 391.7C1049.5 392.5 1050.9 392.3 1051.7 391.3C1052.5 390.3 1052.3 388.9 1051.3 388.1C1050.3 387.3 1048.9 387.5 1048.1 388.5C1047.3 389.5 1047.5 390.9 1048.5 391.7Z" fill="#646464"/>
<path d="M1091.5 306.4C1092.5 307.2 1093.9 307 1094.7 306C1095.5 305 1095.3 303.6 1094.3 302.8C1093.3 302 1091.9 302.2 1091.1 303.2C1090.3 304.2 1090.5 305.6 1091.5 306.4Z" fill="#646464"/>
<path d="M1076.6 382.3C1077.6 383.1 1079 382.9 1079.8 381.9C1080.6 380.9 1080.4 379.5 1079.4 378.7C1078.4 377.9 1077 378.2 1076.2 379.2C1075.4 380.1 1075.6 381.5 1076.6 382.3Z" fill="#646464"/>
<path d="M1077.2 493.8C1078.2 494.6 1079.6 494.4 1080.4 493.4C1081.2 492.4 1081 491 1080 490.2C1079 489.4 1077.6 489.6 1076.8 490.6C1076 491.6 1076.2 493 1077.2 493.8Z" fill="#646464"/>
<path d="M972.397 456.5C973.397 457.3 974.798 457.1 975.598 456.1C976.398 455.1 976.198 453.7 975.198 452.9C974.198 452.1 972.798 452.3 971.998 453.3C971.198 454.3 971.397 455.7 972.397 456.5Z" fill="#646464"/>
<g opacity="0.2">
<path d="M-113.203 228.8L-48.6031 232.4H-48.5031L14.3969 201.7L84.0969 239.4L99.3969 217.7L147.197 226.7L176.597 342.4L176.997 342.1L271.697 273.8L273.997 274.7L272.797 273.9L352.797 279.5L422.297 394.3L421.997 392.6L460.897 289.3L461.097 289.4V289L508.297 246.9L508.497 246.8V246.6L531.197 180.5L607.097 157.9V157.6L602.597 131.7L642.797 104.2L745.397 165.2L745.497 164.7L764.097 49.5L766.297 48.5L764.797 48.8L825.297 -3.79996L877.597 9.10004L921.097 117.7L919.697 117.9L921.297 118.2L921.497 118.8L921.697 118.3L1032 137.2L1032.1 137.3L1032.3 137.2H1032.4L1032.5 137.1L1128.6 81.3H1128.7V81.2L1128.9 81.1L1128.8 80.9L1161.6 -30.7L1229.2 -77.4L1327.1 -73L1325.9 -73.6L1292.6 -136.3L1288.2 -161.9L1333.8 -195.9L1334.4 -195.7L1334.1 -196.2L1334.7 -196.6H1333.9L1279.2 -297.9L1302 -318.5L1432.4 -310.9L1432.5 -310.8L1511.1 -280.7L1476.6 -334.9L1534.8 -366.7L1615.7 -351.9L1680.7 -280.8V-280.7H1680.8L1692 -237.5L1777.2 -242.7L1778.1 -242.3L1702.3 -348.9L1717.2 -369.9L1774.6 -361.5L1773.9 -362.1L1749.4 -415.2L1815.2 -498.6L1754.7 -475.8L1754.6 -475.7L1709.5 -422.1L1708.7 -422.2L1708.8 -422.1L1630.6 -428.2V-427.9L1625.5 -402.1L1578.1 -390.9L1504.2 -485L1504 -484.6L1445.2 -383.8L1442.8 -383.7L1444.2 -383.4L1368.8 -356.1L1260.3 -431.8V-431.9H1260.1L1258.7 -432.9L1259.4 -432L1233.9 -432.6L1217 -490L1128.4 -434.4H1129.3L1188.9 -384.9L1112 -333.8L1112.4 -333.6L1198.4 -285.9L1245.6 -193.4L1185.5 -142L1185.7 -141.8L1200.3 -120L1174.7 -78.6L1056.1 -92.8L1056.2 -92.4L1085.9 20.5L1084.3 22.3L1085.5 21.5L1066.7 61.6L953.697 27L860.297 -35.2V-35.3H860.197L860.097 -35.4L859.997 -35.3L749.597 -23H749.497H749.297V-22.8L674.097 66L593.297 81.3L505.597 37.6L506.497 38.7L511.497 109.5L505.097 134.7L449.597 147.3L449.097 146.8V147.3L448.397 147.5L449.097 147.8L458.097 262.6L428.897 272.2L312.697 212.4V212.3H312.597L312.397 212.2L312.297 212.4L196.497 222L128.497 175.7L97.3969 82.8L97.2969 84.2L50.7969 137.8L28.4969 151.1L-20.6031 120.2L-20.2031 121.1L-19.3031 179.6H-19.4031L-113.203 228.8ZM-48.8031 231.8L-110.903 228.3L-19.8031 180.3L-48.8031 231.8ZM-19.7031 122.5L-0.203117 168.1L-18.8031 179.2L-19.7031 122.5ZM27.8969 151.4L0.396873 167.8L-19.3031 121.7L27.8969 151.4ZM83.6969 238.5L16.2969 202L85.6969 215.1L83.6969 238.5ZM14.5969 201.1L0.59687 168.4L28.3969 151.8L87.9969 189.3L85.7969 214.4L14.5969 201.1ZM109.997 202.5L128.197 176.6L146.797 225.7L109.997 202.5ZM109.497 202.1L88.6969 189L91.3969 158.2L127.897 176.1L109.497 202.1ZM109.097 202.6L98.9969 217L86.3969 214.6L88.5969 189.7L109.097 202.6ZM28.9969 151.5L50.8969 138.4L90.6969 157.9L87.9969 188.7L28.9969 151.5ZM97.1969 85.2L90.7969 157.2L51.3969 137.9L97.1969 85.2ZM97.7969 85.8L127.797 175.3L91.4969 157.5L97.7969 85.8ZM195.597 222.1L147.697 226.1L128.997 176.8L195.597 222.1ZM196.397 222.7L269.297 272.3L148.897 226.6L196.397 222.7ZM428.197 272.5L399.397 282L315.197 214.4L428.197 272.5ZM458.897 288.3L400.797 282.2L428.897 272.9L458.897 288.3ZM458.197 263.2L460.197 288.2L429.797 272.6L458.197 263.2ZM458.797 263L469.197 259.6L460.697 287.2L458.797 263ZM458.797 262.4L449.897 148.4L491.297 188.6V188.7L469.497 258.9L458.797 262.4ZM507.497 246.3L470.197 258.6L491.597 189.5L507.497 246.3ZM530.697 179.8L497.697 166.5L505.697 135.1L574.397 119.5L590.597 138.8L530.697 179.8ZM590.897 139.4L605.997 157.4L532.597 179.3L590.897 139.4ZM641.497 103.7L599.097 113.3L593.697 82.1L641.497 103.7ZM598.497 113.5L574.497 118.9L554.597 95.2L592.997 82.1L598.497 113.5ZM598.597 114.1L601.597 131.4L590.997 138.6L574.997 119.5L598.597 114.1ZM529.697 180.1L492.197 188.3L497.597 167.2L529.697 180.1ZM450.897 148.5L496.897 167L491.597 188L450.897 148.5ZM504.897 135.3L496.997 166.3L450.497 147.7L504.897 135.3ZM505.797 134.5L512.097 109.8L553.997 95.4L573.797 119.1L505.797 134.5ZM507.097 39.5L553.497 94.9L511.997 109.1L507.097 39.5ZM592.497 81.6L554.197 94.7L507.997 39.5L592.497 81.6ZM673.497 66.7L642.397 103.4L594.297 81.7L673.497 66.7ZM674.397 66.5L760.997 50.1L643.597 103L674.397 66.5ZM952.097 26.7L877.897 8.50003L860.897 -34L952.097 26.7ZM1066.6 62.4L1051.7 94.3L1007.7 102.1L954.597 28L1066.6 62.4ZM1057.1 -91.9L1174.4 -77.9L1086.6 20.1L1057.1 -91.9ZM1265.8 -321.8L1190.1 -384.7L1238 -416.5L1265.8 -321.8ZM1238.5 -416.9L1259.8 -431L1265.9 -323.6L1238.5 -416.9ZM1277.9 -216.8L1246.4 -193.7L1240.5 -262.1L1277.9 -216.8ZM1199.1 -286.2L1184.4 -315.1L1265.9 -320.6L1240.1 -263.5L1199.1 -286.2ZM1266.8 -319.4L1278.3 -298.1L1270.2 -290.7L1266.8 -319.4ZM1269.6 -290.2L1241 -264.3L1266.1 -319.8L1269.6 -290.2ZM1269.7 -289.4L1278.1 -217.5L1240.6 -263L1269.7 -289.4ZM1278.2 -216.3L1281.9 -194.8L1247.2 -193.6L1278.2 -216.3ZM1282 -194.2L1287.4 -162.3L1230.9 -120.2L1208.2 -131.3L1246.3 -192.9L1282 -194.2ZM1207.7 -131.6L1186.6 -141.9L1244.8 -191.7L1207.7 -131.6ZM1230.4 -119.8L1211 -105.3L1201.3 -119.9L1208.1 -130.8L1230.4 -119.8ZM1231 -119.4L1258.8 -105.8L1229 -78.2L1211.3 -104.7L1231 -119.4ZM1228.4 -78.1L1175.9 -78.4L1210.8 -104.4L1228.4 -78.1ZM1174.3 -76.9L1160.9 -31.1L1088.4 19L1174.3 -76.9ZM1200.8 -119.3L1210.4 -104.9L1176.1 -79.3L1200.8 -119.3ZM1200.8 -120.4L1187 -141L1207.4 -131L1200.8 -120.4ZM1199.6 -285.2L1239.9 -262.9L1245.8 -194.7L1199.6 -285.2ZM1189.5 -384.4L1265.5 -321.2L1183.3 -315.6L1183.5 -315.2L1198 -286.7L1113.2 -333.7L1189.5 -384.4ZM1130.4 -434.3L1233.5 -431.9L1237.8 -417.2L1189.6 -385.2L1130.4 -434.3ZM1233.3 -432.5L1130.6 -434.9L1216.7 -489L1233.3 -432.5ZM1259 -431.3L1238.3 -417.5L1234.1 -431.9L1259 -431.3ZM1324.4 -340L1266.6 -321.4L1260.4 -430.6L1324.4 -340ZM1368.1 -355.8L1325 -340.2L1261.3 -430.3L1368.1 -355.8ZM1430.8 -312L1325.9 -339.8L1368.6 -355.3L1430.8 -312ZM1369.4 -355.6L1444.9 -383L1432.2 -311.8L1369.4 -355.6ZM1577.3 -391L1445.9 -383.8L1504.3 -483.8L1577.3 -391ZM1656.8 -351.1L1616.2 -352.6L1622.4 -383.9L1646.7 -380.3L1656.8 -351.1ZM1657.6 -350.5L1701.4 -348.8L1680.9 -282.1L1657.6 -350.5ZM1735.6 -397.2L1716.9 -370.8L1647.2 -381L1639 -404.9L1709.5 -421.5L1735.6 -397.2ZM1710.6 -421.3L1748.6 -415.5L1736 -397.7L1710.6 -421.3ZM1631.3 -427.6L1707.7 -421.6L1638.9 -405.4L1631.3 -427.6ZM1646.5 -381.1L1622.5 -384.6L1625.9 -401.8L1638.4 -404.7L1646.5 -381.1ZM1578.8 -390.3L1621.8 -384L1615.6 -352.9L1578.8 -390.3ZM1576.6 -390.4L1534.7 -367.5L1448 -383.3L1576.6 -390.4ZM1625.3 -401.6L1621.9 -384.7L1579.5 -390.9L1625.3 -401.6ZM1626.1 -402.4L1630.9 -426.8L1638.2 -405.3L1626.1 -402.4ZM1710.3 -422L1754.5 -474.5L1748.9 -416.1L1710.3 -422ZM1813.3 -497.2L1749.5 -416.4L1755.2 -475.2L1813.3 -497.2ZM1772.8 -363.5L1736.5 -397.3L1749.1 -415L1772.8 -363.5ZM1717.6 -370.7L1736.1 -396.8L1772.8 -362.7L1717.6 -370.7ZM1701.7 -349.4L1657.4 -351.1L1647.4 -380.3L1716.5 -370.2L1701.7 -349.4ZM1776.4 -243.8L1681.5 -281.2L1702.1 -348.4L1776.4 -243.8ZM1692.4 -238.3L1681.6 -279.9L1681.8 -279.7L1681.5 -280.5L1775.8 -243.4L1692.4 -238.3ZM1616.6 -352L1657 -350.5L1680.3 -282.4L1616.6 -352ZM1535.6 -367.3L1577.8 -390.4L1614.9 -352.9L1535.6 -367.3ZM1476.2 -335.6L1446 -383.1L1533.8 -367.1L1476.2 -335.6ZM1433.2 -311.3L1476.1 -334.7L1509.6 -282.1L1433.2 -311.3ZM1432.8 -311.9L1445.5 -382.7L1475.7 -335.3L1432.8 -311.9ZM1302.5 -319.2L1325 -339.5L1429.4 -311.8L1302.5 -319.2ZM1268 -321.2L1323.6 -339.1L1301.6 -319.2L1268 -321.2ZM1278.8 -298.5L1266.9 -320.6L1301 -318.6L1278.8 -298.5ZM1333 -196.9L1278.9 -216.9V-217L1270.3 -290L1278.7 -297.6L1333 -196.9ZM1332.1 -196.6L1282.5 -194.8L1278.9 -216.2L1332.1 -196.6ZM1288 -162.7L1282.6 -194.2L1332.7 -196L1288 -162.7ZM1287.5 -161.6L1291.8 -136.4L1259.3 -106.3L1231.6 -119.9L1287.5 -161.6ZM1324.8 -74.1L1259.9 -106L1292.1 -135.8L1324.8 -74.1ZM1229.7 -78L1259.4 -105.5L1324 -73.8L1229.7 -78ZM1161.7 -31.6L1175.3 -77.8L1228 -77.5L1161.7 -31.6ZM1086.8 20.9L1160.6 -30.1L1128.2 80.3L1086.8 20.9ZM1127.6 80.4L1067.5 62L1086.5 21.4L1127.6 80.4ZM1127 80.9L1052.4 94.2L1067.2 62.6L1127 80.9ZM1032.8 136.1L1052.1 94.9L1126.7 81.6L1032.8 136.1ZM1008 102.7L1051.3 95L1032 136.2L1008 102.7ZM923.197 117.8L1007.4 102.8L1031.4 136.4L923.197 117.8ZM921.797 117.4L953.797 28.1L1006.9 102.3L921.797 117.4ZM878.197 9.20004L953.397 27.7L921.397 117L878.197 9.20004ZM825.697 -4.29996L860.097 -34.2L877.197 8.40002L825.697 -4.29996ZM751.397 -22.6L859.297 -34.4L824.997 -4.59998L751.397 -22.6ZM824.397 -3.99997L763.797 48.7L750.097 -22.3L824.397 -3.99997ZM763.197 49.1L675.097 65.8L749.497 -22L763.197 49.1ZM643.097 103.9L763.097 49.9L744.597 164.3L643.097 103.9ZM602.197 131L599.197 114L640.897 104.5L602.197 131ZM601.697 132L605.997 156.5L591.397 139.1L601.697 132ZM507.897 245.5L492.097 188.9L530.197 180.6L507.897 245.5ZM461.197 287.8L469.997 259.3L506.597 247.2L461.197 287.8ZM421.597 391.4L399.797 282.7L460.197 289.1L421.597 391.4ZM353.397 279.5L399.097 282.7L420.797 390.9L353.397 279.5ZM313.797 214L398.397 282L352.997 278.8L313.797 214ZM352.297 278.8L272.097 273.2L312.597 213.3L352.297 278.8ZM271.497 273.1L197.397 222.6L312.097 213.1L271.497 273.1ZM176.997 341.4L147.897 226.9L270.997 273.6L176.997 341.4ZM99.6969 217.1L109.597 203L145.797 225.8L99.6969 217.1ZM98.5969 217.5L84.2969 237.8L86.2969 215.2L98.5969 217.5ZM13.6969 200.6L-18.7031 179.9L-0.00312042 168.8L13.6969 200.6ZM13.7969 201.3L-47.9031 231.4L-19.1031 180.2L13.7969 201.3Z" fill="#AAAAAA"/>
<path d="M1084.6 26C1087.5 27 1090.7 25.5 1091.7 22.6C1092.7 19.7 1091.2 16.5 1088.3 15.5C1085.4 14.5 1082.2 16 1081.2 18.9C1080.1 21.9 1081.7 25 1084.6 26Z" fill="#646464"/>
<path d="M1030.7 140.9C1033 141.7 1035.4 140.5 1036.2 138.2C1037 135.9 1035.8 133.5 1033.5 132.7C1031.2 131.9 1028.8 133.1 1028 135.4C1027.2 137.7 1028.4 140.1 1030.7 140.9Z" fill="#646464"/>
<path d="M919.899 121.9C922.199 122.7 924.599 121.5 925.399 119.2C926.199 116.9 924.999 114.5 922.699 113.7C920.399 112.9 917.999 114.1 917.199 116.4C916.499 118.7 917.699 121.1 919.899 121.9Z" fill="#646464"/>
<path d="M1127.3 83.9C1128.9 84.5 1130.7 83.6 1131.2 82C1131.8 80.4 1130.9 78.6 1129.3 78.1C1127.7 77.5 1125.9 78.4 1125.4 80C1124.8 81.6 1125.7 83.4 1127.3 83.9Z" fill="#646464"/>
<path d="M133.898 175.8C133.798 172.7 131.198 170.3 128.098 170.4C124.998 170.5 122.598 173.1 122.698 176.2C122.798 179.3 125.398 181.7 128.398 181.6C131.598 181.4 133.998 178.8 133.898 175.8Z" fill="#646464"/>
<path d="M277.099 273.3C276.999 270.2 274.399 267.8 271.399 267.9C268.299 268 265.899 270.6 265.999 273.6C266.099 276.7 268.699 279.1 271.799 279C274.799 279 277.199 276.4 277.099 273.3Z" fill="#646464"/>
<path d="M88.2975 238.8C88.1975 236.4 86.1975 234.5 83.7975 234.6C81.3975 234.7 79.4975 236.7 79.5975 239.1C79.6975 241.5 81.6975 243.4 84.0975 243.3C86.4975 243.2 88.3975 241.2 88.2975 238.8Z" fill="#646464"/>
<path d="M181.098 341.7C180.998 339.3 178.998 337.4 176.598 337.5C174.198 337.6 172.298 339.6 172.398 342C172.498 344.4 174.498 346.3 176.898 346.2C179.298 346.1 181.198 344.1 181.098 341.7Z" fill="#646464"/>
<path d="M55.2975 137.9C55.1975 135.5 53.1975 133.6 50.7975 133.7C48.3975 133.8 46.4975 135.8 46.5975 138.2C46.6975 140.6 48.6975 142.5 51.0975 142.4C53.4975 142.3 55.3975 140.3 55.2975 137.9Z" fill="#646464"/>
<path d="M403.7 282.2C403.6 279.8 401.6 277.9 399.2 278C396.8 278.1 394.9 280.1 395 282.5C395.1 284.9 397.1 286.8 399.5 286.7C401.9 286.6 403.8 284.6 403.7 282.2Z" fill="#646464"/>
<path d="M425.797 392.4C425.697 390 423.697 388.1 421.297 388.2C418.897 388.3 416.998 390.3 417.098 392.7C417.198 395.1 419.198 397 421.598 396.9C423.998 396.8 425.897 394.8 425.797 392.4Z" fill="#646464"/>
<path d="M17.498 201.3C17.398 199.6 15.998 198.2 14.298 198.3C12.598 198.4 11.198 199.8 11.298 201.5C11.398 203.2 12.798 204.5 14.498 204.5C16.198 204.4 17.498 203 17.498 201.3Z" fill="#646464"/>
<path d="M100.7 84.2C100.6 82.5 99.2 81.2 97.5 81.2C95.8 81.3 94.5 82.7 94.5 84.4C94.5 86.1 96 87.5 97.7 87.4C99.4 87.3 100.8 85.9 100.7 84.2Z" fill="#646464"/>
<path d="M150.497 226.3C150.397 224.6 148.997 223.3 147.297 223.3C145.597 223.4 144.297 224.8 144.297 226.5C144.397 228.2 145.797 229.5 147.497 229.5C149.197 229.4 150.597 228 150.497 226.3Z" fill="#646464"/>
<path d="M315.697 212.6C315.597 210.9 314.197 209.6 312.497 209.6C310.797 209.7 309.397 211.1 309.497 212.8C309.597 214.5 310.997 215.8 312.697 215.8C314.397 215.7 315.797 214.3 315.697 212.6Z" fill="#646464"/>
<path d="M597.099 77.6C594.899 75.5 591.299 75.6001 589.199 77.9001C587.099 80.1001 587.199 83.7 589.499 85.8C591.699 87.9 595.299 87.8 597.399 85.5C599.399 83.2 599.299 79.7 597.099 77.6Z" fill="#646464"/>
<path d="M767.298 45.3C765.098 43.2 761.498 43.3 759.398 45.6C757.298 47.8 757.398 51.4 759.698 53.5C761.898 55.6 765.498 55.5 767.598 53.2C769.698 50.9 769.598 47.4 767.298 45.3Z" fill="#646464"/>
<path d="M609.4 154.4C607.7 152.8 604.9 152.9 603.3 154.6C601.7 156.3 601.8 159.1 603.5 160.7C605.2 162.3 608 162.2 609.6 160.5C611.3 158.8 611.2 156 609.4 154.4Z" fill="#646464"/>
<path d="M747.799 161.6C746.099 160 743.299 160 741.699 161.8C740.099 163.5 740.199 166.3 741.899 167.9C743.599 169.5 746.399 169.4 747.999 167.7C749.699 165.9 749.599 163.2 747.799 161.6Z" fill="#646464"/>
<path d="M452.498 144.4C450.798 142.8 447.998 142.9 446.398 144.6C444.798 146.3 444.898 149.1 446.598 150.7C448.298 152.3 451.098 152.3 452.698 150.5C454.298 148.8 454.198 146.1 452.498 144.4Z" fill="#646464"/>
<path d="M514.8 106.4C513.1 104.8 510.3 104.9 508.7 106.6C507.1 108.3 507.1 111.1 508.9 112.7C510.6 114.3 513.4 114.3 515 112.5C516.6 110.7 516.5 108 514.8 106.4Z" fill="#646464"/>
<path d="M956.697 24.3C954.997 22.7 952.197 22.8 950.597 24.5C948.997 26.2 949.097 28.9999 950.797 30.5999C952.597 32.2 955.297 32.1 956.897 30.4C958.497 28.7 958.497 25.9 956.697 24.3Z" fill="#646464"/>
<path d="M510.9 243.4C509.2 241.8 506.4 241.9 504.8 243.6C503.2 245.3 503.3 248.1 505 249.7C506.7 251.3 509.5 251.3 511.1 249.5C512.7 247.7 512.6 245 510.9 243.4Z" fill="#646464"/>
<path d="M532.798 177.9C531.598 176.7 529.598 176.8 528.398 178C527.198 179.2 527.298 181.2 528.498 182.4C529.698 183.6 531.698 183.5 532.898 182.3C534.098 181 534.098 179.1 532.798 177.9Z" fill="#646464"/>
<path d="M462.697 286.6C461.497 285.4 459.497 285.5 458.297 286.7C457.097 287.9 457.197 289.9 458.397 291.1C459.597 292.3 461.597 292.2 462.797 291C463.997 289.7 463.897 287.7 462.697 286.6Z" fill="#646464"/>
<path d="M493.697 186.5C492.497 185.3 490.497 185.4 489.297 186.6C488.097 187.8 488.197 189.8 489.397 191C490.697 192.2 492.597 192.1 493.797 190.9C494.997 189.6 494.897 187.6 493.697 186.5Z" fill="#646464"/>
<path d="M508.9 36.3C507.7 35.1 505.7 35.2 504.5 36.4C503.3 37.6 503.4 39.6 504.6 40.8C505.9 42 507.8 41.9 509 40.7C510.2 39.4 510.1 37.5 508.9 36.3Z" fill="#646464"/>
<path d="M644.599 101.6C643.399 100.4 641.399 100.5 640.199 101.7C638.999 102.9 639.099 104.9 640.299 106.1C641.499 107.3 643.499 107.2 644.699 106C645.899 104.7 645.799 102.7 644.599 101.6Z" fill="#646464"/>
</g>
<g opacity="0.4">
<path d="M1345.4 -67.6L1292.3 -64.9H1292.2L1243.5 -34.3L1183.3 -59L1172.7 -39.9L1132.8 -43.1L1098.6 -135.1L1098.3 -134.9L1026.9 -70.8L1024.9 -71.3L1026 -70.7L960.102 -68.3L893.302 -156L893.702 -154.7L870.901 -66.9L870.702 -67L870.802 -66.7L835.902 -28.1L835.702 -28L835.802 -27.8L823.002 28.2L763.002 53.3L763.102 53.5L769.002 74.3L738.602 100.3L649.402 59.4V59.8L644.202 155.6L642.502 156.6L643.702 156.2L598.902 204.5L555.002 198.6L509.902 113.7L511.002 113.4L509.702 113.3L509.502 112.8L509.402 113.2L417.602 107.4L417.502 107.3L417.402 107.4H417.302V107.5L343.702 161.5H343.602V161.6L343.502 161.7L343.602 161.8L326.602 255.9L275.202 300L194.802 305L195.902 305.4L228.602 353.8L234.402 374.3L200.102 406L199.602 405.9L199.902 406.3L199.502 406.7L200.202 406.6L253.802 484.6L237.002 503.4L129.802 508.6H129.702L62.9016 490.9L95.8016 532.2L51.0016 563.3L-16.3984 558.3L-75.6984 505.9V505.8H-75.7984L-88.6984 471.5L-158.298 483L-159.098 482.8L-87.7984 563.3L-98.1984 581.8L-145.798 580L-145.198 580.5L-120.498 621.7L-166.898 695.3L-119.398 671.3V671.2L-87.2984 623.5H-86.5984L-86.6984 623.4L-22.1984 621.6V621.4L-20.2984 599.9L17.4016 586.6L85.9016 656.9L86.1016 656.6L125.402 569.1L127.402 568.8L126.202 568.7L185.402 539.8L280.602 592.2V592.3H280.802L282.002 593L281.402 592.3L302.302 590.6L321.102 636.1L388.602 582.9L387.802 583L334.702 547.7L393.102 499.2L392.702 499L318.202 467.6L271.502 396.1L316.202 348.9L316.102 348.7L302.302 332.1L319.602 296L417.702 297.2L417.602 296.9L383.502 207.2L384.702 205.6L383.802 206.4L395.602 172L491.002 190.4L572.802 233L572.902 233.1H573.002H573.102L573.202 233L662.402 213.5H662.502H662.702V213.4L716.402 134.3L781.102 114.7L856.602 142.7L855.802 141.9L845.502 84.5L848.502 63.4L892.702 48.3L893.102 48.6L893.002 48.2L893.602 48L893.002 47.8L875.602 -45.2L898.602 -55.6L998.802 -16.9L998.901 -16.8H999.002L999.102 -16.7L999.202 -16.8L1093.1 -34.8L1152.7 -2.89999L1186.3 70.3V69.2L1219.7 21.3L1236.8 8.5L1279.6 29.5L1279.2 28.8L1273.4 -18.9L1345.4 -67.6ZM1292.5 -64.4L1343.5 -67L1273.2 -19.8L1292.5 -64.4ZM1278.2 27.5L1258.3 -8.10001L1272.6 -18.8L1278.2 27.5ZM1236.9 8L1257.9 -7.79999L1278 28.1L1236.9 8ZM1183.6 -58.3L1241.9 -34.4L1184 -39L1183.6 -58.3ZM1243.3 -33.8L1257.6 -8.29999L1236.3 7.70001L1184.3 -17.8L1183.9 -38.5L1243.3 -33.8ZM1165.3 -26.6L1152.7 -3.89999L1133.2 -42.4L1165.3 -26.6ZM1165.7 -26.3L1183.9 -17.4L1184.4 8L1153.1 -3.39999L1165.7 -26.3ZM1166 -26.8L1173 -39.4L1183.5 -38.6L1183.9 -18.1L1166 -26.8ZM1235.9 8.10001L1219.1 20.7L1184.9 8.20001L1184.4 -17.2L1235.9 8.10001ZM1186 68.1L1184.9 8.70001L1218.8 21L1186 68.1ZM1185.5 67.7L1153.2 -2.79999L1184.4 8.60001L1185.5 67.7ZM1093.7 -35.1L1132.5 -42.5L1152.1 -3.79999L1093.7 -35.1ZM1092.9 -35.5L1029 -69.7L1131.4 -42.9L1092.9 -35.5ZM899.102 -56L921.802 -66.3L996.502 -18.4L899.102 -56ZM872.602 -66.2L920.602 -66.3L898.401 -56.2L872.602 -66.2ZM875.401 -45.8L871.602 -66.1L897.802 -56L875.401 -45.8ZM874.901 -45.6L866.702 -41.9L871.302 -65.2L874.901 -45.6ZM875.002 -45.1L892.202 47.3L854.802 18.1L866.502 -41.2L875.002 -45.1ZM836.602 -27.7L866.002 -41L854.502 17.4L836.602 -27.7ZM823.502 28.7L851.702 36.6L847.902 62.9L793.102 81.6L778.202 67.3L823.502 28.7ZM777.802 67L763.902 53.6L822.002 29.3L777.802 67ZM739.502 100.6L773.302 89L780.502 114L739.502 100.6ZM773.802 88.8L792.902 82.3L811.202 100L781.002 114.1L773.802 88.8ZM773.702 88.4L769.702 74.5L777.702 67.6L792.502 81.8L773.702 88.4ZM824.302 28.4L854.302 18.4L851.802 36.1L824.302 28.4ZM891.401 47.4L852.202 36.3L854.702 18.6L891.401 47.4ZM848.402 62.8L852.102 36.8L891.702 48L848.402 62.8ZM847.802 63.5L844.802 84.3L811.802 99.7L793.502 82.1L847.802 63.5ZM855.002 141.3L812.202 100.1L844.902 84.9L855.002 141.3ZM781.602 114.4L811.702 100.3L854.302 141.4L781.602 114.4ZM716.702 133.6L738.902 100.9L780.102 114.4L716.702 133.6ZM715.902 133.8L646.602 154.8L738.002 101.3L715.902 133.8ZM492.402 190.6L554.602 199L572.202 232.2L492.402 190.6ZM395.802 171.5L405.202 144.1L440.502 133.9L490.402 189.8L395.802 171.5ZM417.002 296.8L319.902 295.6L383.102 207.8L417.002 296.8ZM266.602 502.9L334.002 547.7L297.602 577.9L266.602 502.9ZM297.202 578.2L281.102 591.6L266.702 504.4L297.202 578.2ZM247.502 418.1L271.202 396.5L282.002 451.9L247.502 418.1ZM318.002 468L332.602 490.3L266.502 501.9L282.602 453L318.002 468ZM265.502 501L254.202 484.6L260.202 477.9L265.502 501ZM260.602 477.4L281.702 453.8L266.002 501.3L260.602 477.4ZM260.502 476.8L247.302 418.8L281.902 452.7L260.502 476.8ZM247.202 417.7L242.302 400.5L270.502 396.5L247.202 417.7ZM242.202 400L235.002 374.4L277.502 335.1L297.002 342.2L271.202 395.9L242.202 400ZM297.402 342.3L315.502 348.9L272.202 394.7L297.402 342.3ZM277.802 334.7L292.402 321.2L301.602 332.3L297.002 341.8L277.802 334.7ZM277.302 334.5L253.402 325.8L275.302 300.7L292.102 320.8L277.302 334.5ZM275.802 300.4L318.702 296.1L292.502 320.4L275.802 300.4ZM319.902 294.7L326.902 256.1L381.802 208.8L319.902 294.7ZM301.902 331.7L292.802 320.8L318.602 296.9L301.902 331.7ZM302.002 332.6L315.102 348.3L297.602 341.9L302.002 332.6ZM317.502 467.2L282.602 452.5L271.802 397.3L317.502 467.2ZM334.302 547.3L266.602 502.3L333.302 490.6L333.102 490.3L318.702 468.3L392.102 499.3L334.302 547.3ZM387.002 583L302.602 590L297.802 578.3L334.402 547.9L387.002 583ZM302.802 590.5L387.002 583.5L321.302 635.2L302.802 590.5ZM281.602 591.8L297.302 578.7L302.002 590.1L281.602 591.8ZM220.202 522.9L265.802 502.6L280.402 591.3L220.202 522.9ZM185.902 539.6L219.702 523.1L279.602 591.2L185.902 539.6ZM130.802 509.3L218.902 522.9L185.302 539.3L130.802 509.3ZM184.802 539.6L125.502 568.6L129.702 509.3L184.802 539.6ZM18.0016 586.7L124.802 569.3L85.8016 656.2L18.0016 586.7ZM-50.3984 561L-17.0984 558.7L-19.3984 584.8L-39.5984 584L-50.3984 561ZM-51.1984 560.5L-87.1984 563L-76.2984 506.7L-51.1984 560.5ZM-110.798 605.5L-97.7984 582.3L-39.9984 584.5L-31.1984 603.3L-87.3984 623L-110.798 605.5ZM-88.2984 623.1L-119.898 621.6L-111.098 606L-88.2984 623.1ZM-22.8984 621.3L-85.7984 623.1L-30.9984 603.9L-22.8984 621.3ZM-39.3984 584.6L-19.4984 585.4L-20.7984 599.7L-30.7984 603.2L-39.3984 584.6ZM16.8016 586.2L-18.8984 584.8L-16.5984 558.9L16.8016 586.2ZM18.6016 586.1L50.8016 563.7L123.002 569.1L18.6016 586.1ZM-20.2984 599.5L-18.9984 585.4L16.2016 586.8L-20.2984 599.5ZM-20.7984 600.3L-22.5984 620.6L-30.4984 603.7L-20.7984 600.3ZM-87.8984 623.6L-119.398 670.4L-119.898 622.1L-87.8984 623.6ZM-165.598 694.1L-120.498 622.5L-119.998 671.1L-165.598 694.1ZM-144.098 581.2L-111.498 605.7L-120.198 621.3L-144.098 581.2ZM-98.3984 582.3L-111.198 605.2L-144.198 580.5L-98.3984 582.3ZM-87.2984 563.5L-50.8984 561L-40.1984 584L-97.4984 581.8L-87.2984 563.5ZM-157.498 483.8L-76.5984 506.1L-87.5984 562.8L-157.498 483.8ZM-89.3984 471.9L-76.9984 505L-77.1984 504.9L-76.8984 505.5L-157.198 483.4L-89.3984 471.9ZM-17.4984 558.2L-50.6984 560.5L-75.6984 506.9L-17.4984 558.2ZM50.0016 563.7L17.5016 586.2L-16.0984 558.8L50.0016 563.7ZM95.8016 532.5L124.702 568.7L51.5016 563.3L95.8016 532.5ZM128.902 509L95.9016 531.9L63.9016 491.8L128.902 509ZM129.202 509.4L125.002 568.4L96.2016 532.3L129.202 509.4ZM236.302 503.9L219.702 522.5L132.002 509L236.302 503.9ZM264.702 502.5L220.802 522L237.002 503.8L264.702 502.5ZM253.902 485L265.602 502L237.502 503.4L253.902 485ZM200.702 406.7L246.702 418.3L260.102 477.2L253.902 484.1L200.702 406.7ZM201.402 406.3L241.802 400.5L246.702 417.7L201.402 406.3ZM234.502 374.8L241.602 400.1L200.802 405.9L234.502 374.8ZM234.802 373.8L229.102 353.6L253.002 326.1L276.802 334.8L234.802 373.8ZM196.702 305.6L252.502 326L228.802 353.2L196.702 305.6ZM274.702 300.5L252.902 325.6L197.302 305.3L274.702 300.5ZM326.302 256.6L319.302 295.5L276.202 299.8L326.302 256.6ZM382.902 207.2L327.102 255.3L343.902 162.2L382.902 207.2ZM344.402 162.1L395.102 171.9L383.102 206.7L344.402 162.1ZM344.802 161.6L404.602 144.2L395.302 171.3L344.802 161.6ZM416.902 108.3L404.802 143.6L345.002 161L416.902 108.3ZM440.102 133.4L405.402 143.5L417.602 108.1L440.102 133.4ZM508.102 113.7L440.602 133.3L418.002 108L508.102 113.7ZM509.202 113.9L490.902 189.7L441.002 133.7L509.202 113.9ZM554.402 198.5L491.402 190L509.702 114.2L554.402 198.5ZM598.502 205L573.002 232.5L555.302 199.2L598.502 205ZM660.802 213.4L573.702 232.4L599.102 205L660.802 213.4ZM599.502 204.6L644.402 156.2L661.802 213L599.502 204.6ZM644.902 155.9L715.402 134.5L662.302 212.8L644.902 155.9ZM738.202 100.6L644.802 155.2L649.902 60.1L738.202 100.6ZM769.302 74.9L773.202 88.6L739.902 100L769.302 74.9ZM769.602 74L764.002 54.4L777.402 67.4L769.602 74ZM836.302 -26.9L854.102 17.9L823.802 28L836.302 -26.9ZM870.802 -65.6L866.102 -41.6L837.302 -28.5L870.802 -65.6ZM894.102 -153.7L921.401 -66.8L871.502 -66.7L894.102 -153.7ZM959.602 -68.2L922.002 -66.8L894.802 -153.3L959.602 -68.2ZM997.702 -18.2L922.602 -66.3L959.901 -67.7L997.702 -18.2ZM960.602 -67.8L1026.6 -70.3L998.702 -17.8L960.602 -67.8ZM1027.2 -70.1L1092.2 -35.3L999.302 -17.5L1027.2 -70.1ZM1098.4 -134.2L1132.2 -43.2L1027.6 -70.6L1098.4 -134.2ZM1172.4 -39.4L1165.5 -27L1133.9 -42.5L1172.4 -39.4ZM1173.2 -39.9L1183.1 -57.7L1183.4 -39L1173.2 -39.9ZM1244.1 -33.4L1272.4 -19.3L1258.1 -8.60001L1244.1 -33.4ZM1244 -34L1291.8 -64L1272.7 -19.7L1244 -34Z" fill="#AAAAAA"/>
<path d="M395.702 497.3C394.702 495.6 392.502 495.1 390.802 496.2C389.102 497.2 388.602 499.4 389.702 501.1C390.702 502.8 392.902 503.3 394.602 502.2C396.202 501.2 396.702 499 395.702 497.3Z" fill="#646464"/>
<path d="M65.3998 490C64.6998 488.8 63.0998 488.4 61.8998 489.2C60.6998 489.9 60.2998 491.5 61.0998 492.7C61.7998 493.9 63.3998 494.3 64.5998 493.5C65.7998 492.7 66.1998 491.2 65.3998 490Z" fill="#646464"/>
<path d="M276.4 295.8C273.9 295.2 271.5 296.8 270.9 299.2C270.3 301.7 271.9 304.1 274.3 304.7C276.8 305.3 279.2 303.8 279.8 301.3C280.4 298.8 278.8 296.3 276.4 295.8Z" fill="#646464"/>
<path d="M384.298 202.8C381.798 202.2 379.398 203.8 378.798 206.2C378.198 208.7 379.798 211.1 382.198 211.7C384.698 212.3 387.098 210.7 387.698 208.3C388.298 205.8 386.698 203.3 384.298 202.8Z" fill="#646464"/>
<path d="M316.698 345.4C314.798 344.9 312.898 346.1 312.398 348.1C311.998 350 313.098 351.9 315.098 352.4C316.998 352.8 318.898 351.7 319.398 349.7C319.898 347.7 318.698 345.8 316.698 345.4Z" fill="#646464"/>
<path d="M418.202 293.6C416.302 293.1 414.402 294.3 413.902 296.3C413.502 298.2 414.602 300.1 416.602 300.6C418.502 301 420.402 299.9 420.902 297.9C421.302 295.9 420.102 294 418.202 293.6Z" fill="#646464"/>
<path d="M200.902 402.8C199.002 402.4 197.102 403.5 196.602 405.5C196.102 407.4 197.302 409.3 199.302 409.8C201.202 410.3 203.102 409.1 203.602 407.1C204.002 405.1 202.802 403.2 200.902 402.8Z" fill="#646464"/>
<path d="M229.6 350.1C227.7 349.7 225.8 350.8 225.3 352.8C224.9 354.7 226 356.6 228 357.1C229.9 357.5 231.8 356.4 232.3 354.4C232.7 352.5 231.5 350.5 229.6 350.1Z" fill="#646464"/>
<path d="M418.299 104.2C416.399 103.7 414.499 104.9 413.999 106.9C413.599 108.8 414.699 110.7 416.699 111.2C418.599 111.6 420.499 110.5 420.999 108.5C421.399 106.5 420.199 104.6 418.299 104.2Z" fill="#646464"/>
<path d="M510.401 110C508.501 109.5 506.601 110.7 506.101 112.7C505.701 114.6 506.801 116.5 508.801 117C510.701 117.4 512.601 116.3 513.101 114.3C513.501 112.4 512.301 110.5 510.401 110Z" fill="#646464"/>
<path d="M283.198 449.2C281.298 448.8 279.398 449.9 278.898 451.9C278.498 453.8 279.598 455.7 281.598 456.2C283.498 456.6 285.398 455.5 285.898 453.5C286.298 451.5 285.098 449.6 283.198 449.2Z" fill="#646464"/>
<path d="M271.901 393.6C270.501 393.3 269.201 394.1 268.801 395.5C268.501 396.9 269.301 398.2 270.701 398.6C272.101 398.9 273.401 398.1 273.801 396.7C274.101 395.3 273.201 393.9 271.901 393.6Z" fill="#646464"/>
<path d="M266.6 499.7C265.2 499.4 263.9 500.2 263.5 501.6C263.2 503 264 504.3 265.4 504.7C266.8 505 268.1 504.2 268.5 502.8C268.8 501.4 268 500.1 266.6 499.7Z" fill="#646464"/>
<path d="M333.499 488C332.099 487.7 330.799 488.5 330.399 489.9C330.099 491.3 330.899 492.6 332.299 493C333.699 493.3 334.999 492.5 335.399 491.1C335.799 489.7 334.899 488.3 333.499 488Z" fill="#646464"/>
<path d="M247.6 415.8C246.2 415.5 244.9 416.3 244.5 417.7C244.2 419.1 245 420.4 246.4 420.8C247.8 421.1 249.1 420.3 249.5 418.9C249.8 417.5 248.9 416.1 247.6 415.8Z" fill="#646464"/>
<path d="M196.6 302.6C195.2 302.3 193.9 303.1 193.5 304.5C193.2 305.9 194 307.2 195.4 307.6C196.8 307.9 198.1 307.1 198.5 305.7C198.9 304.3 198 303 196.6 302.6Z" fill="#646464"/>
<path d="M319.999 293.3C318.599 293 317.299 293.8 316.899 295.2C316.599 296.6 317.399 297.9 318.799 298.3C320.199 298.6 321.499 297.8 321.899 296.4C322.199 295 321.399 293.6 319.999 293.3Z" fill="#646464"/>
<path d="M344.299 159.2C342.899 158.9 341.599 159.7 341.199 161.1C340.899 162.5 341.699 163.8 343.099 164.2C344.499 164.5 345.799 163.7 346.199 162.3C346.499 160.9 345.699 159.5 344.299 159.2Z" fill="#646464"/>
<path d="M1148.1 -2.59997C1148.5 -0.0999722 1150.8 1.70002 1153.3 1.30002C1155.8 0.900023 1157.6 -1.39996 1157.2 -3.89996C1156.9 -6.39996 1154.5 -8.19995 1152 -7.79995C1149.5 -7.49995 1147.8 -5.09997 1148.1 -2.59997Z" fill="#646464"/>
<path d="M1275.1 29.2C1275.4 31.2 1277.2 32.5 1279.1 32.2C1281.1 31.9 1282.4 30.1 1282.1 28.2C1281.8 26.3 1280 24.9 1278.1 25.2C1276.2 25.5 1274.8 27.3 1275.1 29.2Z" fill="#646464"/>
<path d="M1215.6 21.4C1215.9 23.3 1217.7 24.7 1219.6 24.4C1221.5 24.1 1222.9 22.3 1222.6 20.4C1222.3 18.5 1220.5 17.1 1218.6 17.4C1216.7 17.7 1215.4 19.5 1215.6 21.4Z" fill="#646464"/>
<path d="M1183.2 69.3C1183.4 70.7 1184.7 71.7 1186.1 71.5C1187.5 71.3 1188.5 70 1188.3 68.6C1188.1 67.2 1186.8 66.2 1185.4 66.4C1184 66.6 1183 67.9 1183.2 69.3Z" fill="#646464"/>
<path d="M778.101 118.1C780.101 119.6 783 119.2 784.5 117.2C786 115.2 785.601 112.3 783.601 110.8C781.601 109.3 778.7 109.7 777.2 111.7C775.7 113.7 776.101 116.5 778.101 118.1Z" fill="#646464"/>
<path d="M641.8 159.4C643.8 160.9 646.7 160.5 648.2 158.5C649.7 156.5 649.3 153.6 647.3 152.1C645.3 150.6 642.4 151 640.9 153C639.4 155 639.8 157.8 641.8 159.4Z" fill="#646464"/>
<path d="M761.3 56.4001C762.9 57.6001 765.1 57.3 766.3 55.7C767.5 54.1 767.201 51.9 765.601 50.7C764.001 49.5 761.801 49.8001 760.601 51.4001C759.401 52.9001 759.7 55.2001 761.3 56.4001Z" fill="#646464"/>
<path d="M647.601 62.6C649.201 63.8 651.401 63.5001 652.601 61.9001C653.801 60.3001 653.501 58.1001 651.901 56.9001C650.301 55.7001 648.101 56 646.901 57.6C645.701 59.2 646.001 61.4 647.601 62.6Z" fill="#646464"/>
<path d="M890.5 50.8C892.1 52 894.3 51.7 895.5 50.1C896.7 48.5 896.4 46.3 894.8 45.1C893.2 43.9 891 44.2 889.8 45.8C888.6 47.4 888.9 49.6 890.5 50.8Z" fill="#646464"/>
<path d="M842.898 87.3C844.498 88.5 846.698 88.2 847.898 86.6C849.098 85 848.798 82.8 847.198 81.6C845.598 80.4 843.398 80.7 842.198 82.3C840.998 83.9 841.298 86.1 842.898 87.3Z" fill="#646464"/>
<path d="M570.8 235.7C572.4 236.9 574.6 236.6 575.8 235C577 233.4 576.701 231.2 575.101 230C573.501 228.8 571.301 229.1 570.101 230.7C568.901 232.3 569.2 234.5 570.8 235.7Z" fill="#646464"/>
<path d="M488.898 193C490.498 194.2 492.698 193.9 493.898 192.3C495.098 190.7 494.798 188.5 493.198 187.3C491.598 186.1 489.398 186.4 488.198 188C486.998 189.6 487.298 191.8 488.898 193Z" fill="#646464"/>
<path d="M821.901 30.5001C823.001 31.3001 824.601 31.1001 825.501 30.0001C826.301 28.9001 826.101 27.3001 825.001 26.4001C823.901 25.6001 822.301 25.8001 821.401 26.9001C820.501 28.0001 820.801 29.6001 821.901 30.5001Z" fill="#646464"/>
<path d="M853.1 20.0001C854.2 20.8001 855.8 20.6001 856.7 19.5001C857.5 18.4001 857.3 16.8001 856.2 15.9001C855.1 15.1001 853.5 15.3001 852.6 16.4001C851.8 17.6001 852 19.2001 853.1 20.0001Z" fill="#646464"/>
<path d="M853.799 144.1C854.899 144.9 856.499 144.7 857.399 143.6C858.199 142.5 857.999 140.9 856.899 140C855.799 139.2 854.199 139.4 853.299 140.5C852.499 141.6 852.699 143.2 853.799 144.1Z" fill="#646464"/>
<path d="M737.201 102.6C738.301 103.4 739.901 103.2 740.801 102.1C741.601 101 741.401 99.4001 740.301 98.5001C739.201 97.7001 737.601 97.9001 736.701 99.0001C735.901 100.2 736.101 101.8 737.201 102.6Z" fill="#646464"/>
<path d="M660.701 215.4C661.801 216.3 663.401 216 664.301 214.9C665.101 213.8 664.901 212.2 663.801 211.3C662.701 210.5 661.101 210.7 660.201 211.8C659.401 212.9 659.601 214.5 660.701 215.4Z" fill="#646464"/>
</g>
<path d="M281.102 197.5L328.802 195.1L372.602 167.6L426.702 189.8L436.202 172.7L472.002 175.6L502.702 258.3L502.902 258.1L567.102 200.5L568.802 201L567.802 200.5L627.002 198.3L687.002 277.1L686.602 275.9L707.102 197L707.202 197.1L707.102 196.8L738.402 162.1L738.602 162L738.502 161.9L750.002 111.6L804.002 89L803.902 88.8L798.602 70.1L826.002 46.8L906.202 83.6V83.3L910.802 -2.79996L912.401 -3.69998L911.401 -3.39996L951.702 -46.8L991.102 -41.5L1031.6 34.8L1030.6 35.1L1031.8 35.2L1032 35.6L1032.1 35.2L1114.6 40.4L1114.7 40.5L1114.8 40.4H1114.9V40.3L1181.1 -8.19998H1181.2V-8.29996L1181.3 -8.39996L1181.2 -8.49997L1196.5 -93.1L1242.5 -132.7L1314.7 -137.2L1313.7 -137.6L1284.3 -181.1L1279.1 -199.6L1309.9 -228.1L1310.4 -228L1310.2 -228.3L1310.6 -228.7L1310 -228.6L1261.9 -298.7L1277 -315.6L1373.4 -320.3H1373.5L1433.6 -304.4L1404 -341.5L1444.3 -369.4L1504.9 -364.9L1558.2 -317.8V-317.7H1558.3L1569.9 -286.9L1632.1 -297.4L1632.8 -297.2L1568.8 -369.5L1578.1 -386.1L1620.9 -384.4L1620.4 -384.8L1598.2 -421.9L1639.9 -488.1L1597.2 -466.6L1568.3 -423.7H1567.7L1567.8 -423.6L1510.2 -422V-421.8L1508.5 -402.5L1474.6 -390.6L1413 -453.8L1412.9 -453.5L1377.6 -374.9L1375.8 -374.6L1376.9 -374.5L1323.7 -348.5L1238.1 -395.6V-395.7H1238L1236.9 -396.3L1237.5 -395.7L1218.7 -394.1L1201.8 -435L1141.1 -387.2L1141.8 -387.3L1189.5 -355.6L1137 -312L1137.3 -311.9L1204.2 -283.6L1246.2 -219.4L1206.1 -176.9L1206.2 -176.7L1218.6 -161.8L1203 -129.4L1114.8 -130.5L1114.9 -130.2L1145.5 -49.6L1144.4 -48.1L1145.2 -48.8L1134.6 -17.9L1048.9 -34.5L975.401 -72.8V-72.9H975.302H975.202L975.102 -72.8L894.901 -55.3H894.802H894.602V-55.2L846.402 15.9001L788.302 33.5L720.402 8.30002L721.102 9.00003L730.302 60.6L727.602 79.6L687.802 93.2L687.402 92.9L687.502 93.3L687.002 93.5L687.602 93.7L703.202 177.3L682.502 186.7L592.502 151.9V151.8L592.402 151.7L592.302 151.8L507.902 168L454.302 139.3L424.102 73.5V74.5L394.102 117.5L378.802 129L340.302 110.1L340.602 110.7L345.802 153.6L281.102 197.5ZM328.602 194.7L282.702 197L345.802 154.6L328.602 194.7ZM341.402 112.1L359.302 144.1L346.502 153.7L341.402 112.1ZM378.602 129.6L359.702 143.8L341.602 111.5L378.602 129.6ZM426.402 189.2L374.002 167.7L426.002 171.8L426.402 189.2ZM372.802 167.1L360.002 144.2L379.102 129.9L425.802 152.8L426.102 171.4L372.802 167.1ZM442.902 160.7L454.202 140.3L471.702 174.9L442.902 160.7ZM442.502 160.5L426.202 152.5L425.802 129.6L454.002 139.9L442.502 160.5ZM442.302 160.9L436.002 172.2L426.502 171.4L426.202 153L442.302 160.9ZM379.502 129.6L394.602 118.3L425.402 129.5L425.802 152.3L379.502 129.6ZM424.302 75.6L425.302 129L394.902 117.9L424.302 75.6ZM424.802 75.9L453.902 139.3L425.802 129.1L424.802 75.9ZM507.302 168.4L472.402 175.1L454.802 140.3L507.302 168.4ZM507.902 168.7L565.302 199.4L473.302 175.3L507.902 168.7ZM682.102 187.1L661.702 196.3L594.502 153.2L682.102 187.1ZM705.902 196.3L662.702 196.4L682.602 187.4L705.902 196.3ZM703.502 178L706.902 196.2L683.302 187.1L703.502 178ZM703.902 177.8L711.302 174.4L707.202 195.3L703.902 177.8ZM703.802 177.3L688.302 94.3L721.902 120.6L711.402 173.9L703.802 177.3ZM738.302 161.6L711.902 173.6L722.202 121.1L738.302 161.6ZM750.102 111L724.802 103.9L728.202 80.2L777.402 63.4L790.802 76.3L750.102 111ZM791.202 76.6L803.702 88.6L751.502 110.4L791.202 76.6ZM825.502 46.4L795.102 56.8L788.702 34.3L825.502 46.4ZM794.702 56.9L777.502 62.8L761.102 47L788.302 34.3L794.702 56.9ZM794.802 57.4L798.402 69.8L791.202 76L777.902 63.2L794.802 57.4ZM749.402 111.3L722.502 120.3L724.802 104.4L749.402 111.3ZM689.002 94.2L724.302 104.1L722.002 120L689.002 94.2ZM727.702 80.4L724.402 103.8L688.802 93.8L727.702 80.4ZM728.302 79.7L731.002 61L760.702 47.2L777.102 63L728.302 79.7ZM721.802 9.80002L760.202 46.9L730.802 60.6L721.802 9.80002ZM787.802 34L760.702 46.6L722.402 9.70004L787.802 34ZM846.102 16.7L826.202 46.1L789.202 33.9L846.102 16.7ZM846.802 16.5L909.102 -2.39996L827.002 45.6L846.802 16.5ZM1047.6 -34.5L991.702 -42.1L975.901 -71.9L1047.6 -34.5ZM1134.5 -17.3L1126 7.30002L1094.3 16.5L1049.5 -33.8L1134.5 -17.3ZM1115.4 -129.9L1202.6 -128.8L1145.8 -49.9L1115.4 -129.9ZM1250.6 -315.2L1190.1 -355.4L1222.8 -382.5L1250.6 -315.2ZM1223.1 -382.8L1237.6 -394.8L1250.5 -316.4L1223.1 -382.8ZM1267.8 -239L1246.5 -219.6L1236.8 -269.4L1267.8 -239ZM1204.4 -283.8L1191.3 -303.8L1250.7 -314.3L1236.2 -270.4L1204.4 -283.8ZM1251.6 -313.4L1261.7 -298.7L1256.3 -292.6L1251.6 -313.4ZM1255.9 -292.2L1237 -271L1251.1 -313.7L1255.9 -292.2ZM1256 -291.7L1267.8 -239.6L1236.7 -270.1L1256 -291.7ZM1268 -238.6L1272.4 -223.1L1247 -219.5L1268 -238.6ZM1272.5 -222.7L1279 -199.7L1240.8 -164.4L1223.3 -170.8L1246.5 -219L1272.5 -222.7ZM1222.9 -170.9L1206.6 -176.8L1245.5 -217.9L1222.9 -170.9ZM1240.5 -164L1227.4 -151.8L1219.1 -161.7L1223.2 -170.3L1240.5 -164ZM1241 -163.8L1262.5 -156L1242.8 -133.4L1227.7 -151.5L1241 -163.8ZM1242.3 -133.2L1203.7 -129.3L1227.3 -151.1L1242.3 -133.2ZM1202.7 -128.1L1196.4 -93.4L1147.1 -50.9L1202.7 -128.1ZM1218.8 -161.3L1227 -151.5L1203.8 -130L1218.8 -161.3ZM1218.7 -162.1L1206.9 -176.2L1222.7 -170.4L1218.7 -162.1ZM1204.9 -283.1L1236.3 -269.9L1246 -220.3L1204.9 -283.1ZM1189.7 -355.1L1250.5 -314.7L1190.6 -304.2L1190.8 -303.9L1203.7 -284.1L1137.7 -311.9L1189.7 -355.1ZM1142.3 -387.1L1218.2 -393.4L1222.5 -382.9L1189.6 -355.6L1142.3 -387.1ZM1218 -393.9L1142.4 -387.6L1201.4 -434.1L1218 -393.9ZM1237.1 -395L1223 -383.3L1218.8 -393.5L1237.1 -395ZM1292.2 -333.1L1251.2 -314.9L1238 -394.6L1292.2 -333.1ZM1323.1 -348.2L1292.7 -333.4L1238.8 -394.6L1323.1 -348.2ZM1372.6 -320.9L1293.4 -333.1L1323.6 -347.8L1372.6 -320.9ZM1324.1 -348.1L1377.4 -374.2L1373.6 -320.9L1324.1 -348.1ZM1474 -390.5L1378 -374.9L1413 -453L1474 -390.5ZM1535.5 -367.4L1505.6 -365.4L1507.7 -388.9L1525.9 -388.2L1535.5 -367.4ZM1536.2 -367L1568.5 -369.2L1558.7 -318.6L1536.2 -367ZM1589.8 -407.4L1578.1 -386.5L1526.1 -388.5L1518.2 -405.4L1568.7 -423.1L1589.8 -407.4ZM1569.5 -423.2L1597.9 -421.9L1590 -407.9L1569.5 -423.2ZM1510.7 -421.6L1567.3 -423.2L1518.1 -405.9L1510.7 -421.6ZM1525.6 -388.6L1507.7 -389.3L1508.9 -402.2L1517.9 -405.3L1525.6 -388.6ZM1475.1 -390.1L1507.2 -388.9L1505.1 -365.6L1475.1 -390.1ZM1473.5 -389.9L1444.5 -369.8L1379.6 -374.6L1473.5 -389.9ZM1508.4 -402L1507.3 -389.3L1475.7 -390.5L1508.4 -402ZM1508.9 -402.7L1510.5 -421L1517.6 -405.8L1508.9 -402.7ZM1569.2 -423.6L1597.5 -465.6L1598 -422.2L1569.2 -423.6ZM1638.9 -487L1598.4 -422.7L1597.9 -466.4L1638.9 -487ZM1619.7 -385.6L1590.4 -407.6L1598.2 -421.6L1619.7 -385.6ZM1578.6 -386.5L1590.1 -407.1L1619.7 -384.9L1578.6 -386.5ZM1568.6 -369.6L1535.9 -367.4L1526.3 -388.1L1577.8 -386.1L1568.6 -369.6ZM1631.7 -298L1559 -318L1568.9 -368.9L1631.7 -298ZM1570.5 -287.3L1559.3 -317L1559.4 -316.9L1559.1 -317.4L1631.2 -297.5L1570.5 -287.3ZM1505.9 -364.9L1535.7 -366.9L1558.1 -318.7L1505.9 -364.9ZM1445.2 -369.8L1474.4 -390.1L1504.6 -365.4L1445.2 -369.8ZM1404.1 -341.8L1378.2 -374.3L1444 -369.4L1404.1 -341.8ZM1374.4 -320.6L1404 -341.2L1432.7 -305.2L1374.4 -320.6ZM1374.1 -321L1377.8 -374L1403.7 -341.6L1374.1 -321ZM1277.8 -316.1L1292.7 -332.8L1371.5 -320.6L1277.8 -316.1ZM1252.3 -314.8L1291.7 -332.3L1277.2 -316L1252.3 -314.8ZM1262 -299.1L1251.5 -314.4L1276.7 -315.6L1262 -299.1ZM1309.8 -228.7L1268.5 -239.1L1256.5 -292.1L1262 -298.3L1309.8 -228.7ZM1309.1 -228.4L1272.8 -223.2L1268.5 -238.6L1309.1 -228.4ZM1279.4 -200L1273 -222.7L1309.6 -228L1279.4 -200ZM1279.2 -199.2L1284.3 -181.1L1262.8 -156.4L1241.4 -164.2L1279.2 -199.2ZM1313.4 -137.9L1263.2 -156.2L1284.5 -180.6L1313.4 -137.9ZM1243.3 -133.3L1262.9 -155.8L1312.9 -137.6L1243.3 -133.3ZM1196.9 -93.9L1203.2 -128.9L1242 -132.8L1196.9 -93.9ZM1146.1 -49.4L1196.3 -92.6L1181.2 -8.99997L1146.1 -49.4ZM1180.7 -8.89996L1135.1 -17.7L1145.9 -49L1180.7 -8.89996ZM1180.3 -8.49997L1126.5 7.10004L1134.9 -17.3L1180.3 -8.49997ZM1115.5 39.4L1126.4 7.60004L1180.1 -7.99997L1115.5 39.4ZM1094.7 16.9001L1125.9 7.80002L1115 39.6L1094.7 16.9001ZM1033.5 34.6L1094.2 17L1114.5 39.8L1033.5 34.6ZM1032.5 34.5L1049 -33.6L1093.9 16.7L1032.5 34.5ZM991.901 -41.6L1048.6 -33.9L1032.1 34.2L991.901 -41.6ZM952.302 -47.4L975.202 -72.1L991.102 -42.2L952.302 -47.4ZM896.302 -55L974.602 -72.1L951.702 -47.5L896.302 -55ZM951.401 -47.1L911.002 -3.59998L895.302 -54.7L951.401 -47.1ZM910.602 -3.29996L847.202 15.9001L894.901 -54.4L910.602 -3.29996ZM826.702 46.4L910.602 -2.69998L906.002 82.7L826.702 46.4ZM798.802 69.5L795.302 57.2L825.202 47L798.802 69.5ZM798.502 70.3L803.502 87.9L791.402 76.3L798.502 70.3ZM738.602 161L722.602 120.7L749.902 111.6L738.602 161ZM707.602 195.8L711.902 174.2L737.802 162.5L707.602 195.8ZM686.602 274.9L662.002 196.8L706.802 196.7L686.602 274.9ZM627.802 198.1L661.602 196.8L686.102 274.5L627.802 198.1ZM593.502 153.2L661.002 196.5L627.402 197.7L593.502 153.2ZM626.902 197.7L567.602 199.9L592.602 152.7L626.902 197.7ZM567.102 199.8L508.702 168.5L592.202 152.5L567.102 199.8ZM503.002 257.4L472.602 175.6L566.602 200.2L503.002 257.4ZM436.502 172.2L442.702 161L471.102 174.9L436.502 172.2ZM435.802 172.6L426.902 188.6L426.602 171.8L435.802 172.6ZM372.102 166.8L346.702 154.1L359.602 144.4L372.102 166.8ZM372.202 167.4L329.302 194.4L346.502 154.6L372.202 167.4Z" fill="#AAAAAA"/>
<path d="M1114.3 43.2C1116 43.6 1117.7 42.5 1118.1 40.8C1118.5 39.1 1117.4 37.4 1115.7 37C1114 36.6 1112.3 37.7 1111.9 39.4C1111.5 41 1112.6 42.8 1114.3 43.2Z" fill="#646464"/>
<path d="M1031.5 37.9C1033.2 38.3 1034.9 37.2 1035.3 35.5C1035.7 33.8 1034.6 32.1 1032.9 31.7C1031.2 31.3 1029.5 32.4 1029.1 34.1C1028.7 35.8 1029.7 37.5 1031.5 37.9Z" fill="#646464"/>
<path d="M458.4 139.2C458.1 136.9 456 135.4 453.8 135.7C451.5 136 450 138.1 450.3 140.3C450.6 142.6 452.7 144.1 454.9 143.8C457.1 143.5 458.7 141.4 458.4 139.2Z" fill="#646464"/>
<path d="M571.201 199.6C570.901 197.3 568.801 195.8 566.601 196.1C564.301 196.4 562.801 198.5 563.101 200.7C563.401 203 565.501 204.5 567.701 204.2C570.001 203.9 571.601 201.8 571.201 199.6Z" fill="#646464"/>
<path d="M429.8 189.1C429.6 187.3 427.9 186.1 426.2 186.4C424.5 186.6 423.2 188.3 423.5 190C423.8 191.8 425.4 193 427.1 192.7C428.9 192.4 430.1 190.8 429.8 189.1Z" fill="#646464"/>
<path d="M506.101 257.4C505.901 255.6 504.201 254.4 502.501 254.7C500.801 254.9 499.501 256.6 499.801 258.3C500.001 260.1 501.701 261.3 503.401 261C505.101 260.7 506.301 259.1 506.101 257.4Z" fill="#646464"/>
<path d="M344.201 110.5C344.001 108.7 342.301 107.5 340.601 107.8C338.801 108 337.601 109.7 337.901 111.4C338.101 113.1 339.801 114.4 341.501 114.1C343.301 113.9 344.501 112.3 344.201 110.5Z" fill="#646464"/>
<path d="M397.699 117.5C397.499 115.8 395.799 114.5 394.099 114.8C392.399 115 391.099 116.7 391.399 118.4C391.699 120.2 393.299 121.4 394.999 121.1C396.699 120.9 397.899 119.3 397.699 117.5Z" fill="#646464"/>
<path d="M664.901 196.2C664.701 194.5 663.001 193.2 661.301 193.5C659.501 193.7 658.301 195.4 658.601 197.1C658.801 198.8 660.501 200.1 662.201 199.8C663.901 199.5 665.101 197.9 664.901 196.2Z" fill="#646464"/>
<path d="M689.8 275.3C689.6 273.5 687.9 272.3 686.2 272.6C684.5 272.8 683.2 274.5 683.5 276.2C683.7 278 685.4 279.2 687.1 278.9C688.8 278.7 690 277.1 689.8 275.3Z" fill="#646464"/>
<path d="M331.901 194.5C331.701 192.7 330.001 191.5 328.301 191.8C326.501 192 325.301 193.7 325.601 195.4C325.801 197.2 327.501 198.4 329.201 198.1C330.901 197.9 332.201 196.2 331.901 194.5Z" fill="#646464"/>
<path d="M374.901 167C374.701 165.8 373.601 164.9 372.301 165.1C371.001 165.3 370.201 166.4 370.301 167.7C370.501 168.9 371.601 169.8 372.901 169.6C374.201 169.4 375.101 168.3 374.901 167Z" fill="#646464"/>
<path d="M284.2 197C284 195.7 282.9 194.9 281.6 195C280.4 195.2 279.5 196.3 279.7 197.6C279.9 198.8 281 199.7 282.3 199.5C283.5 199.4 284.4 198.2 284.2 197Z" fill="#646464"/>
<path d="M348.399 153.8C348.199 152.5 347.099 151.7 345.799 151.9C344.599 152.1 343.699 153.2 343.899 154.5C344.099 155.8 345.199 156.6 346.499 156.4C347.699 156.2 348.599 155.1 348.399 153.8Z" fill="#646464"/>
<path d="M426.8 74.5C426.6 73.2 425.5 72.4 424.2 72.6C422.9 72.8 422.1 73.9 422.2 75.2C422.4 76.5 423.5 77.3 424.8 77.2C426.1 76.9 427 75.8 426.8 74.5Z" fill="#646464"/>
<path d="M474.499 175C474.299 173.8 473.199 172.9 471.899 173.1C470.599 173.3 469.799 174.4 469.999 175.7C470.199 176.9 471.299 177.8 472.599 177.6C473.899 177.4 474.699 176.2 474.499 175Z" fill="#646464"/>
<path d="M594.801 151.9C594.601 150.7 593.501 149.8 592.201 150C591.001 150.2 590.101 151.3 590.301 152.6C590.501 153.8 591.601 154.7 592.901 154.5C594.101 154.4 595.001 153.2 594.801 151.9Z" fill="#646464"/>
<path d="M790.9 30.7C789.1 29.3 786.5 29.7 785.1 31.5C783.7 33.3 784.1 35.9 785.9 37.3C787.7 38.7 790.3 38.3 791.7 36.5C793 34.6 792.7 32.1 790.9 30.7Z" fill="#646464"/>
<path d="M913.4 -6.39998C911.6 -7.79998 909 -7.4 907.6 -5.6C906.2 -3.8 906.6 -1.19998 908.4 0.200022C910.2 1.60002 912.8 1.2 914.2 -0.599996C915.6 -2.5 915.2 -4.99998 913.4 -6.39998Z" fill="#646464"/>
<path d="M806 86.1C804.6 85 802.6 85.3 801.5 86.7C800.4 88.1 800.7 90.1 802.1 91.2C803.5 92.3 805.5 92 806.6 90.6C807.7 89.2 807.4 87.2 806 86.1Z" fill="#646464"/>
<path d="M908.199 80.5C906.799 79.4 904.799 79.7 903.699 81.1C902.599 82.5 902.899 84.5 904.299 85.6C905.699 86.7 907.699 86.4 908.799 85C909.899 83.6 909.599 81.6 908.199 80.5Z" fill="#646464"/>
<path d="M689.898 91.2C688.498 90.1 686.498 90.4 685.398 91.8C684.298 93.2 684.598 95.2 685.998 96.3C687.398 97.4 689.398 97.1 690.498 95.7C691.598 94.2 691.298 92.2 689.898 91.2Z" fill="#646464"/>
<path d="M732.699 58.3C731.299 57.2 729.299 57.5 728.199 58.9C727.099 60.3 727.399 62.3 728.799 63.4C730.199 64.5 732.199 64.2 733.299 62.8C734.299 61.4 734.099 59.4 732.699 58.3Z" fill="#646464"/>
<path d="M740.601 159.2C739.201 158.1 737.201 158.4 736.101 159.8C735.001 161.2 735.301 163.2 736.701 164.3C738.101 165.4 740.101 165.1 741.201 163.7C742.201 162.3 742.001 160.3 740.601 159.2Z" fill="#646464"/>
<path d="M751.498 109.4C750.498 108.6 749.098 108.8 748.298 109.8C747.498 110.8 747.698 112.2 748.698 113C749.698 113.8 751.098 113.6 751.898 112.6C752.798 111.6 752.598 110.2 751.498 109.4Z" fill="#646464"/>
<path d="M708.499 194.7C707.499 193.9 706.099 194.1 705.299 195.1C704.499 196.1 704.699 197.5 705.799 198.3C706.799 199.1 708.199 198.9 708.999 197.9C709.799 196.9 709.599 195.5 708.499 194.7Z" fill="#646464"/>
<path d="M723.498 118.8C722.498 118 721.098 118.2 720.298 119.2C719.498 120.2 719.698 121.6 720.698 122.4C721.698 123.2 723.098 123 723.898 121.9C724.698 121 724.498 119.5 723.498 118.8Z" fill="#646464"/>
<path d="M722.799 7.29999C721.799 6.49999 720.399 6.70002 719.599 7.70002C718.799 8.70002 718.999 10.1 719.999 10.9C720.999 11.7 722.399 11.5 723.199 10.4C724.099 9.5 723.899 8.09999 722.799 7.29999Z" fill="#646464"/>
<path d="M827.6 44.6C826.6 43.8 825.2 44 824.4 45.1C823.6 46.1 823.8 47.5 824.8 48.3C825.8 49.1 827.2 48.9001 828 47.9001C828.8 46.8001 828.6 45.3 827.6 44.6Z" fill="#646464"/>
</svg>
