<svg width="194" height="200" viewBox="0 0 194 200" fill="none" xmlns="http://www.w3.org/2000/svg">
<g clip-path="url(#clip0_844_140099)">
<path d="M116.719 3.35999C85.7586 3.35999 59.3586 28.64 48.5586 64.32V135.68C59.3586 171.44 85.7586 196.64 116.719 196.64C157.199 196.64 190.079 153.36 190.079 100C190.079 46.64 157.199 3.35999 116.719 3.35999ZM116.719 180C111.199 180 106.719 175.52 106.719 170C106.719 164.48 111.199 160 116.719 160C122.239 160 126.719 164.48 126.719 170C126.719 175.52 122.239 180 116.719 180ZM116.719 40C111.199 40 106.719 35.52 106.719 30C106.719 24.48 111.119 20 116.719 20C122.319 20 126.719 24.48 126.719 30C126.719 32.64 125.679 35.2 123.759 37.04C121.839 38.96 119.359 40 116.719 40Z" fill="#9E9E9E"/>
<path fill-rule="evenodd" clip-rule="evenodd" d="M116.72 3.35999C115.04 3.35999 113.36 3.43999 111.76 3.59999C149.84 7.03999 180 48.8 180 100C180 151.2 149.84 192.96 111.68 196.4C113.28 196.56 114.96 196.64 116.64 196.64C157.12 196.64 190 153.36 190 100C190 46.64 157.2 3.35999 116.72 3.35999Z" fill="#707070"/>
<path fill-rule="evenodd" clip-rule="evenodd" d="M139.999 80C139.999 83.44 139.279 86.88 137.759 90H95.5994C94.0794 86.88 93.3594 83.44 93.3594 80C93.3594 67.12 103.839 56.64 116.719 56.64C129.599 56.64 139.999 67.12 139.999 80Z" fill="#37474F"/>
<path fill-rule="evenodd" clip-rule="evenodd" d="M133.281 137.04C133.441 138.64 132.881 140.24 131.841 141.44C130.721 142.64 129.201 143.36 127.601 143.36H105.761C104.161 143.36 102.641 142.64 101.521 141.44C100.401 140.24 99.9208 138.64 100.081 137.04L102.641 110H130.801L133.281 137.04Z" fill="#37474F"/>
<path d="M137.759 90H75.2794C70.3194 72.4 53.1194 61.2 34.9594 63.68C16.7994 66.24 3.35938 81.68 3.35938 100C3.35938 118.32 16.8794 133.76 34.9594 136.32C53.1194 138.8 70.3194 127.6 75.2794 110H130.719L129.759 99.36C133.199 97.04 135.999 93.76 137.759 90ZM26.7194 110C21.1994 110 16.7194 105.52 16.7194 100C16.7194 94.48 21.1994 90 26.7194 90C32.2394 90 36.7194 94.48 36.7194 100C36.7194 105.52 32.2394 110 26.7194 110Z" fill="#FFCD57"/>
<path fill-rule="evenodd" clip-rule="evenodd" d="M137.758 90H127.758C125.998 93.76 123.198 97.04 119.758 99.36L120.718 110H130.718L129.758 99.36C133.198 97.04 135.998 93.76 137.758 90Z" fill="#F4BA43"/>
<path d="M116.719 43.36C124.079 43.36 130.079 37.36 130.079 30C130.079 22.64 124.079 16.64 116.719 16.64C109.359 16.64 103.359 22.64 103.359 30C103.359 37.36 109.279 43.36 116.719 43.36ZM116.719 23.36C120.399 23.36 123.359 26.32 123.359 30C123.359 33.68 120.399 36.64 116.719 36.64C113.039 36.64 110.079 33.68 110.079 30C110.079 26.32 112.959 23.36 116.719 23.36Z" fill="#35414D"/>
<path d="M116.719 156.64C109.359 156.64 103.359 162.64 103.359 170C103.359 177.36 109.359 183.36 116.719 183.36C124.079 183.36 130.079 177.36 130.079 170C130.079 162.64 124.079 156.64 116.719 156.64ZM116.719 176.64C113.039 176.64 110.079 173.68 110.079 170C110.079 166.32 113.039 163.36 116.719 163.36C120.399 163.36 123.359 166.32 123.359 170C123.359 173.68 120.399 176.64 116.719 176.64Z" fill="#35414D"/>
<path d="M26.7194 113.36C34.0794 113.36 40.0794 107.36 40.0794 100C40.0794 92.64 34.0794 86.64 26.7194 86.64C19.3594 86.64 13.3594 92.64 13.3594 100C13.3594 107.36 19.2794 113.36 26.7194 113.36ZM26.7194 93.36C30.3994 93.36 33.3594 96.32 33.3594 100C33.3594 103.68 30.3994 106.64 26.7194 106.64C23.0394 106.64 19.9994 103.68 19.9994 100C19.9994 96.32 22.9594 93.36 26.7194 93.36Z" fill="#35414D"/>
<path d="M39.9989 140C42.0789 140 44.1589 139.84 46.2389 139.52C58.3189 176.32 85.679 200 116.639 200C158.879 200 193.279 155.12 193.279 100C193.279 44.88 158.959 0 116.719 0C85.7589 0 58.3989 23.68 46.319 60.48C31.4389 58.08 16.5589 64.32 7.67895 76.48C-1.20105 88.64 -2.40105 104.72 4.39895 118.16C11.1989 131.6 24.9589 140 39.9989 140ZM116.719 6.64C155.359 6.64 186.719 48.48 186.719 100C186.719 151.52 155.359 193.36 116.719 193.36C88.8789 193.36 64.0789 171.68 52.7989 137.92C64.3989 134 73.5989 124.96 77.7589 113.36H98.9589L96.7189 136.72C96.479 139.28 97.2789 141.76 99.0389 143.68C100.719 145.6 103.199 146.64 105.759 146.64H127.599C130.159 146.64 132.559 145.52 134.319 143.68C136.079 141.84 136.879 139.28 136.639 136.72L133.279 100.96C143.039 93.2 146.159 79.76 140.799 68.56C135.439 57.36 122.959 51.28 110.879 54.08C98.799 56.88 90.0789 67.6 90.0789 80.08C90.0789 82.32 90.3989 84.56 90.9589 86.72H77.7589C73.5989 75.12 64.3989 66.08 52.7989 62.16C63.9989 28.32 88.7989 6.64 116.719 6.64ZM39.9989 66.64C54.8789 66.64 67.9989 76.56 72.0789 90.88C72.4789 92.32 73.7589 93.28 75.2789 93.28H123.359C125.199 93.28 126.719 91.76 126.719 89.92C126.719 88.08 125.199 86.56 123.359 86.56H97.839C97.0389 84.4 96.7189 82.16 96.7189 79.92C96.7189 70.4 103.439 62.24 112.799 60.32C122.159 58.4 131.519 63.44 135.199 72.24C138.879 81.04 135.839 91.2 127.919 96.48C126.879 97.2 126.399 98.32 126.479 99.52L130.079 137.2C130.159 137.84 129.919 138.56 129.439 139.04C128.959 139.52 128.319 139.84 127.679 139.84H105.839C105.199 139.84 104.559 139.52 104.079 139.04C103.599 138.56 103.359 137.84 103.439 137.2L105.679 113.2H116.719C118.559 113.2 120.079 111.68 120.079 109.84C120.079 108 118.559 106.48 116.719 106.48H75.2789C73.7589 106.48 72.4789 107.44 72.0789 108.88C67.3589 125.44 50.799 135.68 33.9189 132.56C17.0389 129.44 5.19895 114.08 6.79895 96.96C8.39895 79.84 22.7989 66.64 39.9989 66.64Z" fill="#35414D"/>
</g>
<defs>
<clipPath id="clip0_844_140099">
<rect width="193.36" height="200" fill="white"/>
</clipPath>
</defs>
</svg>
