<svg width="200" height="200" viewBox="0 0 200 200" fill="none" xmlns="http://www.w3.org/2000/svg">
<g clip-path="url(#clip0_844_137903)">
<path fill-rule="evenodd" clip-rule="evenodd" d="M157.361 79.7736C157.361 98.0377 150.946 115.698 139.172 129.66C136.304 133.132 133.134 136.302 129.663 139.17C101.814 162.566 61.4361 163.396 32.606 141.283C3.77577 119.17 -5.80913 79.9245 9.58709 46.9434C24.9833 13.9623 61.1343 -3.84906 96.6814 4.07547C132.229 12 157.436 43.4717 157.361 79.7736Z" fill="#9E9E9E"/>
<path fill-rule="evenodd" clip-rule="evenodd" d="M79.7738 2.18867C78.1134 2.18867 76.3776 2.26415 74.7172 2.33962C103.925 4.22641 129.51 22.3396 140.981 49.283C152.453 76.2264 147.849 107.245 129.057 129.585C126.189 133.057 123.019 136.226 119.547 139.094C106.793 149.811 90.9436 156.075 74.3398 157.057C76.1512 157.208 77.9625 157.283 79.7738 157.283C98.038 157.283 115.698 150.868 129.661 139.094C133.132 136.226 136.302 133.057 139.17 129.585C158.566 106.491 162.868 74.2641 150.113 46.9434C137.359 19.6226 109.962 2.18867 79.7738 2.18867Z" fill="#707070"/>
<path d="M79.7747 143.849C115.163 143.849 143.85 115.162 143.85 79.7736C143.85 44.3857 115.163 15.6981 79.7747 15.6981C44.3868 15.6981 15.6992 44.3857 15.6992 79.7736C15.6992 115.162 44.3868 143.849 79.7747 143.849Z" fill="#84D2F6"/>
<path fill-rule="evenodd" clip-rule="evenodd" d="M79.7754 15.6981C78.0395 15.6981 76.3791 15.8491 74.7188 15.9245C108.002 18.566 133.738 46.3396 133.738 79.7736C133.738 113.208 108.002 140.981 74.7188 143.623C76.3791 143.774 78.0395 143.849 79.7754 143.849C115.172 143.849 143.851 115.17 143.851 79.7736C143.851 44.3774 115.172 15.6981 79.7754 15.6981Z" fill="#68AABC"/>
<path fill-rule="evenodd" clip-rule="evenodd" d="M193.889 193.887C188.606 199.17 180.077 199.17 174.794 193.887L139.021 158.113C137.738 156.83 137.738 154.642 139.021 153.358L141.436 150.943L150.945 141.434L153.36 139.019C154.643 137.736 156.832 137.736 158.115 139.019L193.889 174.792C199.172 180.075 199.172 188.604 193.889 193.887Z" fill="#FD646F"/>
<path fill-rule="evenodd" clip-rule="evenodd" d="M193.886 174.792L158.112 139.019C156.829 137.736 154.641 137.736 153.358 139.019L150.943 141.434L150.641 141.736L183.773 174.868C186.943 178.038 188.376 182.642 187.471 187.094C186.565 191.547 183.471 195.245 179.32 196.906C185.282 199.321 192.075 197.208 195.622 191.849C199.169 186.491 198.49 179.396 193.886 174.792Z" fill="#E85D6E"/>
<path fill-rule="evenodd" clip-rule="evenodd" d="M150.943 141.434L141.434 150.943L129.66 139.17C133.132 136.302 136.302 133.132 139.17 129.66L150.943 141.434Z" fill="#7F8E94"/>
<path fill-rule="evenodd" clip-rule="evenodd" d="M146.188 165.283L165.282 146.189L174.791 155.698L155.697 174.792L146.188 165.283Z" fill="#D6586D"/>
<path fill-rule="evenodd" clip-rule="evenodd" d="M88.9828 77.0566C95.2469 72.9811 98.0394 65.283 95.9262 58.1132C93.813 50.9434 87.2469 46.0377 79.7752 46.0377C72.3035 46.0377 65.7375 50.9434 63.6243 58.1132C61.5111 65.283 64.3036 72.9811 70.5677 77.0566L60.8319 109.208C60.53 110.264 60.6809 111.321 61.3602 112.226C61.9639 113.057 63.0205 113.585 64.0771 113.585H95.4734C96.53 113.585 97.5111 113.057 98.1903 112.226C98.7941 111.396 99.0205 110.264 98.7186 109.208L88.9828 77.0566Z" fill="#FFCD57"/>
<path fill-rule="evenodd" clip-rule="evenodd" d="M98.7188 109.208L88.9829 77.0566C94.6433 73.3585 97.5867 66.566 96.3791 59.9245C95.1716 53.2076 90.0395 47.9245 83.398 46.4906C80.5301 45.8868 77.5112 46.0377 74.7188 46.8679C80.9829 48.8302 85.5112 54.1887 86.3414 60.6792C87.1716 67.1698 84.3037 73.5094 78.7942 77.0566L88.5301 109.208C88.832 110.264 88.681 111.321 88.0018 112.226C87.398 113.057 86.3414 113.585 85.2848 113.585H95.398C96.4546 113.585 97.4357 113.057 98.115 112.226C98.8697 111.321 99.0206 110.189 98.7188 109.208Z" fill="#F4BA43"/>
<path fill-rule="evenodd" clip-rule="evenodd" d="M49.4358 42.717C48.0018 42.717 46.7188 41.8113 46.266 40.3774C45.8132 39.0189 46.266 37.5094 47.4735 36.6038C56.832 29.5849 68.1528 25.8113 79.8509 25.8113C81.7377 25.8113 83.2471 27.3208 83.2471 29.2076C83.2471 31.0943 81.7377 32.6038 79.8509 32.6038C69.6622 32.6038 59.7 35.9245 51.549 42.0377C50.8698 42.4906 50.1905 42.717 49.4358 42.717Z" fill="#F5F5F5"/>
<path d="M79.7738 145.208C43.6983 145.208 14.3398 115.849 14.3398 79.7736C14.3398 43.6981 43.6983 14.3396 79.7738 14.3396C97.2078 14.3396 113.661 21.2076 126.038 33.5094C138.415 45.8868 145.208 62.2642 145.208 79.7736C145.208 115.849 115.849 145.208 79.7738 145.208ZM79.7738 17.0566C45.1323 17.0566 16.9814 45.2076 16.9814 79.8491C16.9814 114.491 45.1323 142.642 79.7738 142.642C114.34 142.566 142.491 114.415 142.566 79.8491C142.566 45.2076 114.415 17.0566 79.7738 17.0566Z" fill="#35414D"/>
<path d="M79.7721 145.811C43.3948 145.811 13.7344 116.226 13.7344 79.7736C13.7344 43.3208 43.3193 13.7359 79.7721 13.7359C97.4325 13.7359 113.961 20.6038 126.414 33.1321C138.866 45.5849 145.734 62.1887 145.81 79.7736C145.81 116.226 116.225 145.811 79.7721 145.811ZM79.7721 15.0189C44.074 15.0189 14.9419 44.0755 14.9419 79.8491C14.9419 115.623 43.9985 144.679 79.7721 144.679C115.47 144.679 144.602 115.623 144.602 79.8491C144.602 62.566 137.81 46.2642 125.583 34.0377C113.357 21.7359 97.1306 15.0189 79.7721 15.0189ZM79.7721 143.17C44.8287 143.17 16.3759 114.717 16.3759 79.7736C16.3759 44.8302 44.8287 16.3774 79.7721 16.3774C114.716 16.3774 143.168 44.8302 143.168 79.7736C143.168 114.717 114.716 143.17 79.7721 143.17ZM79.7721 17.6604C45.508 17.6604 17.6589 45.5094 17.6589 79.7736C17.6589 114.038 45.508 141.887 79.7721 141.887C114.036 141.811 141.885 113.962 141.885 79.7736C141.961 45.5094 114.036 17.6604 79.7721 17.6604Z" fill="#35414D"/>
<path d="M184.602 199.396C180.602 199.396 176.753 197.736 173.961 194.868L138.112 159.094C136.301 157.283 136.301 154.264 138.112 152.453L139.546 151.019L129.508 141.057L128.074 142.189C114.112 153.057 97.3571 158.792 79.6213 158.792C56.9043 158.792 35.3194 149.057 20.3005 132C7.01751 116.83 -0.00135881 97.3585 0.677886 77.2076C1.35713 57.0566 9.50808 38.0377 23.7722 23.7736C38.7156 8.83019 58.5647 0.603775 79.6968 0.603775C98.942 0.603775 117.508 7.62264 131.999 20.3774C147.168 33.7359 156.527 52.1509 158.414 72.2264C160.301 92.3019 154.565 112.151 142.187 128.151L141.055 129.585L151.018 139.547L152.451 138.113C153.357 137.208 154.489 136.755 155.772 136.755C157.055 136.755 158.187 137.208 159.093 138.113L175.772 154.792L194.867 173.887C198.716 177.66 200.301 183.17 198.942 188.302C197.584 193.509 193.508 197.509 188.376 198.868C187.093 199.245 185.81 199.396 184.602 199.396ZM157.659 174.792L175.848 192.981C178.187 195.17 181.206 196.377 184.376 196.377C187.546 196.377 190.64 195.17 192.904 192.981C197.659 188.226 197.659 180.528 192.904 175.774L174.791 157.66L157.659 174.792ZM148.074 165.283L155.772 172.906L172.98 155.698L165.282 148.075L148.074 165.283ZM138.565 155.774L146.263 163.396L163.47 146.189L155.848 138.491L138.565 155.774ZM79.7722 3.54717C37.7345 3.54717 3.54581 37.7358 3.54581 79.7736C3.62128 121.736 37.81 156 79.7722 156C121.81 156 155.999 121.811 155.999 79.7736C156.074 37.7358 121.81 3.54717 79.7722 3.54717ZM137.885 133.208C136.376 134.792 134.867 136.377 133.206 137.887L131.621 139.321L141.433 149.132L149.131 141.434L139.319 131.623L137.885 133.208Z" fill="#35414D"/>
<path d="M184.604 200C180.453 200 176.378 198.264 173.51 195.321L137.736 159.547C135.699 157.509 135.699 154.113 137.736 152L138.717 151.019L129.51 141.887L128.529 142.642C114.416 153.585 97.5098 159.396 79.6985 159.396C56.8306 159.396 35.0193 149.585 19.9249 132.453C6.49098 117.132 -0.603361 97.5094 0.075884 77.1321C0.679658 56.8302 8.98154 37.7359 23.3212 23.3208C38.4155 8.30189 58.4155 0 79.6985 0C99.0947 0 117.812 7.09434 132.378 19.9245C147.623 33.3585 157.057 51.9245 159.019 72.2264C160.906 92.4528 155.095 112.453 142.642 128.528L141.887 129.509L151.019 138.717L152 137.736C152.982 136.755 154.34 136.151 155.774 136.151C157.208 136.151 158.491 136.679 159.548 137.736L195.321 173.509C199.321 177.358 200.982 183.17 199.548 188.528C198.114 193.887 193.887 198.113 188.529 199.547C187.17 199.849 185.887 200 184.604 200ZM129.585 140.151L140.378 150.943L138.491 152.83C136.906 154.415 136.906 156.981 138.491 158.642L174.265 194.415C176.906 197.208 180.68 198.792 184.529 198.792C185.736 198.792 186.944 198.642 188.151 198.34C193.132 197.057 196.982 193.132 198.265 188.226C199.548 183.245 198.038 177.962 194.34 174.415L158.566 138.642C157.812 137.887 156.755 137.434 155.699 137.434C154.642 137.434 153.585 137.887 152.831 138.642L150.944 140.528L140.151 129.736L141.585 127.925C153.887 112.075 159.623 92.3774 157.736 72.4528C155.849 52.5283 146.566 34.2642 131.548 20.9811C117.208 8.30189 98.7929 1.35849 79.6985 1.35849C58.7174 1.35849 39.0193 9.50943 24.2268 24.3019C10.0381 38.3396 1.8872 57.2076 1.28343 77.2076C0.679658 97.2076 7.62305 116.528 20.8306 131.547C35.6985 148.453 57.1325 158.113 79.6985 158.113C97.2834 158.113 113.887 152.377 127.774 141.66L129.585 140.151ZM184.378 197.057C180.982 197.057 177.812 195.774 175.397 193.434L156.755 174.792L174.793 156.755L193.359 175.321C198.34 180.302 198.34 188.377 193.359 193.359L193.283 193.434C190.944 195.774 187.699 197.057 184.378 197.057ZM158.491 174.792L176.227 192.528C178.416 194.642 181.283 195.774 184.378 195.774C187.397 195.774 190.34 194.642 192.529 192.528C197.057 188 197.057 180.679 192.529 176.226L174.793 158.491L158.491 174.792ZM155.774 173.811L147.246 165.283L165.283 147.245L173.812 155.774L155.774 173.811ZM148.982 165.283L155.774 172.075L172.076 155.774L165.283 148.981L148.982 165.283ZM146.189 164.302L137.661 155.774L155.699 137.736L164.227 146.264L146.189 164.302ZM139.397 155.774L146.189 162.566L162.491 146.264L155.699 139.472L139.397 155.774ZM79.774 156.679C37.4344 156.604 3.01928 122.113 2.94381 79.7736C2.94381 37.434 37.4344 2.9434 79.774 2.9434C122.189 2.9434 156.604 37.434 156.604 79.7736C156.68 122.189 122.189 156.679 79.774 156.679ZM79.774 4.15094C38.1136 4.15094 4.15136 38.1132 4.15136 79.7736C4.22683 121.434 38.1136 155.396 79.774 155.396C121.51 155.472 155.472 121.509 155.472 79.7736C155.472 38.1132 121.51 4.15094 79.774 4.15094ZM141.434 149.962L130.717 139.245L132.755 137.358C134.34 135.925 135.925 134.34 137.359 132.755L139.246 130.717L149.963 141.434L141.434 149.962ZM132.529 139.321L141.434 148.226L148.227 141.434L139.321 132.528L138.34 133.66C136.831 135.321 135.246 136.83 133.661 138.34L132.529 139.321Z" fill="#35414D"/>
<path d="M64.078 114.868C62.5685 114.868 61.21 114.189 60.3044 112.981C59.3987 111.774 59.1723 110.264 59.5496 108.83L68.9836 77.6604L68.0025 76.8302C62.1912 71.9245 60.0779 63.8491 62.7195 56.6792C65.361 49.5849 72.2289 44.7547 79.7761 44.7547C87.3232 44.7547 94.2666 49.5094 96.8327 56.6792C99.4742 63.7736 97.361 71.9245 91.5497 76.8302L90.5685 77.6604L100.002 108.83C100.455 110.264 100.153 111.774 99.2478 112.981C98.3421 114.189 96.9836 114.868 95.4742 114.868H64.078ZM79.7006 47.3962C76.1534 47.3962 72.6817 48.6038 69.9647 50.8679C66.1157 53.9623 64.0025 58.7925 64.2289 63.6981C64.5308 68.6792 67.1723 73.2075 71.3232 75.9245C71.7761 76.2264 72.0025 76.8302 71.8515 77.434L61.361 112.226H98.2666L87.7761 77.434C87.6251 76.9057 87.8515 76.2264 88.3044 75.9245C93.6629 72.3774 96.3798 65.8113 95.0213 59.5472C93.7383 53.6604 89.1346 49.0566 83.2478 47.7736C82.0402 47.5472 80.9081 47.3962 79.7006 47.3962Z" fill="#35414D"/>
<path d="M95.4724 115.472H64.0762C62.4158 115.472 60.8309 114.642 59.7743 113.358C58.7932 112 58.4913 110.264 58.9441 108.679L68.2272 77.8868L67.5479 77.283C61.5857 72.2264 59.397 63.8491 62.114 56.4528C64.8309 49.0566 71.9253 44.1509 79.7743 44.1509C87.6234 44.1509 94.7177 49.1321 97.4347 56.4528C100.152 63.8491 97.963 72.1509 92.0007 77.283L91.3215 77.8868L100.605 108.679C101.057 110.264 100.755 112.075 99.7743 113.358C98.7932 114.642 97.1328 115.472 95.4724 115.472ZM60.9819 112.83C61.7366 113.736 62.8687 114.264 64.0762 114.264H95.4724C96.68 114.264 97.8121 113.736 98.5668 112.83H60.9819ZM79.7743 45.3585C72.4536 45.3585 65.8121 49.9623 63.246 56.9057C60.68 63.7736 62.7932 71.6226 68.3781 76.3774L69.7366 77.5094L60.2272 109.057C59.8498 110.189 60.0762 111.472 60.68 112.453L71.3215 77.3585C71.397 77.0566 71.3215 76.7547 71.0196 76.5283C66.7177 73.7358 64.0007 68.9811 63.6989 63.8491C63.397 58.6415 65.6611 53.6604 69.5856 50.4151C72.4536 48.0755 76.0007 46.7924 79.6989 46.7924H79.7743C80.9819 46.7924 82.114 46.9434 83.3215 47.1698C89.4347 48.5283 94.2649 53.283 95.5479 59.3962C96.9819 65.9623 94.1894 72.7547 88.6045 76.4528C88.3026 76.6038 88.2272 76.9811 88.3026 77.283L98.9441 112.377C99.5479 111.396 99.7743 110.113 99.397 108.981L89.8875 77.434L91.246 76.3019C96.8309 71.5472 98.8687 63.6981 96.3781 56.8302C93.7366 49.9623 87.1706 45.3585 79.7743 45.3585ZM62.1894 111.623H97.4347L87.1706 77.6604C86.9441 76.8302 87.246 75.9245 88.0007 75.4717C93.2083 72.0755 95.7743 65.7358 94.4158 59.6981C93.2083 54.0377 88.7555 49.6604 83.0951 48.3774C82.0385 48.1509 80.9064 48 79.8498 48H79.7743C76.3781 48 73.0574 49.2075 70.4158 51.3208C66.7177 54.3396 64.68 58.9434 64.9064 63.6981C65.1328 68.4528 67.6989 72.8302 71.6989 75.3962C72.3781 75.8491 72.7555 76.7547 72.529 77.5849L62.1894 111.623Z" fill="#35414D"/>
</g>
<defs>
<clipPath id="clip0_844_137903">
<rect width="200" height="200" fill="white"/>
</clipPath>
</defs>
</svg>
