<svg width="113" height="94" viewBox="0 0 113 94" fill="none" xmlns="http://www.w3.org/2000/svg">
<path opacity="0.5" fill-rule="evenodd" clip-rule="evenodd" d="M94.7 0.961517C94.7 0.961517 96.7 6.15095 96.8 8.44627C97 10.7416 97.1 13.4361 97.1 13.4361L102.8 16.3302L106.6 17.927C106.6 17.927 106.8 20.9209 107 23.0166C107.2 25.1123 109.7 29.5034 109.7 29.5034L112.5 33.4953C112.5 33.4953 79.4 54.4526 72.5 58.644C65.7 62.9353 36 81.7969 36 81.7969L17.6 93.5729C17.6 93.5729 17.9 87.3855 16.2 84.7908C14.6 82.1961 11.4 80.9985 11.4 80.9985L7.10001 76.4079C7.10001 76.4079 8.59999 71.418 6.29999 68.1247C3.99999 64.8314 0 60.4404 0 60.4404C0 60.4404 23.9 47.2672 32.8 41.3792C41.7 35.4912 70.7 17.8272 77.9 13.3363C85.2 8.84546 94.7 0.961517 94.7 0.961517Z" fill="#B2966B"/>
</svg>
