<svg width="90" height="91" viewBox="0 0 90 91" fill="none" xmlns="http://www.w3.org/2000/svg">
<mask id="mask0_1048_579" style="mask-type:alpha" maskUnits="userSpaceOnUse" x="0" y="0" width="90" height="91">
<circle cx="45" cy="45.3416" r="45" fill="#C4C4C4"/>
</mask>
<g mask="url(#mask0_1048_579)">
<path d="M82.8645 54.1798L46.395 73.1912C46.1154 73.3465 45.7737 73.4397 45.4631 73.4397C45.1524 73.4397 44.8107 73.3776 44.5311 73.2223L8.12372 54.6458C7.16072 54.1488 6.75689 52.9683 7.19179 51.9743L21.3261 21.5001C21.6678 20.7857 22.3823 20.3197 23.1899 20.3197H68.14C68.9166 20.3197 69.6622 20.7857 70.0039 21.5001L83.7965 51.5083C84.2314 52.5024 83.8586 53.6828 82.8645 54.1798Z" fill="#1A171B"/>
<path d="M28.4647 15.9707C28.4026 15.6912 28.1851 15.4737 27.9056 15.3805C27.657 15.2873 27.3464 15.3184 27.1289 15.5048C27.0047 15.598 24.1778 17.7725 21.9101 20.5993C19.8599 23.1777 18.6173 25.3211 18.5552 25.4143C18.4931 25.5075 18.462 25.6318 18.462 25.725C18.462 25.8181 17.3747 33.9881 16.1011 40.5426C14.8275 47.0972 12.1249 52.782 12.0938 52.8441C11.9385 53.1237 12.0006 53.4654 12.187 53.7139C12.2491 53.8071 13.6781 55.702 15.107 57.2553C16.5049 58.8395 19.6114 61.5111 19.7667 61.6353C20.0152 61.8217 20.3259 61.8839 20.6054 61.7907C20.885 61.6975 21.1025 61.449 21.1646 61.1383L22.2208 54.9254C22.6246 55.0497 23.0906 55.205 23.6497 55.3603C24.4574 55.6089 25.234 55.7952 25.731 55.9195L26.8494 65.8601C26.8804 66.1397 27.0668 66.4192 27.3153 66.5124C27.3775 66.5435 28.5579 67.1027 30.7324 67.8793C32.969 68.6869 35.6095 68.9665 35.7338 68.9665C35.7648 68.9665 35.7959 68.9665 35.827 68.9665C36.0444 68.9665 36.2619 68.8733 36.3861 68.7491C36.5725 68.5937 36.6657 68.3452 36.6657 68.0967C36.6657 67.9725 36.1997 55.702 34.0874 42.4997C31.9439 29.2973 28.4958 16.095 28.4647 15.9707ZM25.0166 47.6874L23.277 47.5943C23.4634 46.3827 23.8361 44.1461 24.1157 42.2822C24.1778 41.9095 24.24 41.4124 24.271 40.8844C24.6127 43.587 24.8923 46.2896 25.0166 47.6874Z" fill="#1A171B"/>
<path d="M79.287 52.8441C79.256 52.782 76.5534 47.1282 75.2797 40.5426C74.0061 33.988 72.9188 25.8181 72.9188 25.7249C72.8878 25.6006 72.8567 25.5075 72.8256 25.4143C72.7635 25.3211 71.5209 23.1776 69.4707 20.5993C67.203 17.7414 64.3761 15.5979 64.2519 15.5047C64.0344 15.3494 63.7238 15.2873 63.4753 15.3805C63.2268 15.4737 63.0093 15.6911 62.9161 15.9707C62.8851 16.095 59.4369 29.2973 57.3245 42.4996C55.2122 55.702 54.7462 67.9724 54.7462 68.0967C54.7462 68.3452 54.8394 68.5626 55.0258 68.749C55.1811 68.9044 55.3985 68.9665 55.5849 68.9665C55.616 68.9665 55.6471 68.9665 55.6781 68.9665C55.8024 68.9665 58.4118 68.6558 60.6795 67.8792C62.8851 67.1026 64.0655 66.5435 64.0966 66.5124C64.3451 66.3881 64.5315 66.1396 64.5625 65.86L65.6498 55.9194C66.1468 55.7952 66.9234 55.6088 67.7311 55.3603C68.2903 55.205 68.7873 55.0496 69.1601 54.9254L70.2162 61.1383C70.2784 61.4489 70.4648 61.6974 70.7754 61.7906C71.055 61.8838 71.3967 61.8527 71.6141 61.6353C71.7384 61.511 74.8448 58.8706 76.2738 57.2552C77.6717 55.702 79.1006 53.776 79.1938 53.7139C79.3802 53.4654 79.4113 53.1237 79.287 52.8441ZM68.0728 47.5942L66.3332 47.6874C66.4575 46.2895 66.706 43.5869 67.0788 40.8843C67.1409 41.4124 67.1719 41.8784 67.2341 42.2822C67.5136 44.1461 67.8864 46.3516 68.0728 47.5942Z" fill="#1A171B"/>
<path d="M45.5206 15.6911C41.7929 15.6911 39.3077 18.4248 39.1835 18.518C39.0281 18.6733 38.966 18.9218 38.966 19.1393C38.966 19.2946 40.0533 33.988 40.0533 44.3946C40.0533 50.856 39.5252 72.4457 39.4941 72.6632C39.4941 72.8806 39.5562 73.0981 39.7426 73.2534C39.8358 73.3466 41.855 75.4279 45.3963 75.4279C48.9377 75.4279 50.9568 73.3155 51.05 73.2223C51.2054 73.067 51.2986 72.8495 51.2675 72.6321C51.2675 72.4457 50.7705 54.4905 50.7705 44.3946C50.7705 34.3298 51.7956 19.3878 51.8266 19.2325C51.8577 19.015 51.7645 18.8286 51.6403 18.6733C51.6092 18.5801 49.3104 15.6911 45.5206 15.6911Z" fill="#1A171B"/>
<path d="M45.4288 74.527C42.5087 74.527 40.7381 72.9117 40.4896 72.6942C40.5206 71.638 41.0487 50.7628 41.0487 44.4567C41.0487 34.2987 40.0236 20.0402 39.9615 19.1704C40.21 18.8908 42.4466 16.6852 45.5531 16.6852C48.6906 16.6852 50.7097 19.015 50.9272 19.2946C50.8651 20.1333 49.871 34.6404 49.871 44.4878C49.871 54.3352 50.337 71.7312 50.368 72.6942C50.1506 72.8806 48.3799 74.527 45.4288 74.527ZM35.6746 68.0035C35.1465 67.9414 32.9099 67.6307 31.0149 66.9473C29.12 66.2639 27.9706 65.7358 27.7221 65.6426L26.5417 55.1118L26.4795 55.0807C26.4795 55.0807 25.1748 54.8012 23.8701 54.4284C22.5654 54.0556 21.5403 53.7139 21.5403 53.7139L21.4471 53.6828L20.2356 60.7966C19.6454 60.2685 17.0049 58.0008 15.7934 56.634C14.5198 55.2361 13.2151 53.4965 12.9666 53.1858C13.2461 52.5956 15.7934 47.0661 17.0049 40.6979C18.2475 34.2676 19.3037 26.2841 19.3658 25.8492C19.4901 25.6317 20.7326 23.5815 22.6276 21.1895C24.5846 18.7354 27.0076 16.7473 27.5668 16.3435C27.9396 17.7725 31.1081 30.2293 33.0963 42.6239C35.1154 55.1118 35.6125 66.7609 35.6746 68.0035ZM23.808 31.9999C23.808 32.0621 23.5906 39.4243 23.1867 42.158C22.7829 44.8606 22.2237 48.3398 22.1927 48.3708L22.1616 48.464L26.0136 48.6815V48.5883C26.0136 48.5262 25.6408 44.084 25.0816 39.8903C24.5225 35.7276 23.9944 32.031 23.9633 31.9999H23.808ZM55.68 68.0035C55.7422 66.7609 56.2392 55.1118 58.2273 42.6239C60.2154 30.1982 63.384 17.7725 63.7568 16.3435C64.3159 16.7784 66.7389 18.7354 68.696 21.1895C70.622 23.5815 71.8335 25.6628 71.9577 25.8492C72.0199 26.2841 73.0761 34.2676 74.3186 40.6979C75.5612 47.0661 78.0774 52.5956 78.357 53.1858C78.1396 53.4965 76.8038 55.2361 75.5302 56.634C74.3186 58.0008 71.7092 60.2685 71.0879 60.7966L69.8764 53.6828L69.7832 53.7139C69.7832 53.7139 68.7581 54.0556 67.4534 54.4284C66.1487 54.8012 64.844 55.0807 64.844 55.0807L64.7819 55.1118L63.6014 65.6426C63.3529 65.7669 62.2346 66.2639 60.3086 66.9473C58.4758 67.6618 56.2081 67.9414 55.68 68.0035ZM67.3913 31.9689C67.3913 31.9999 66.8632 35.6966 66.273 39.8592C65.7138 44.0218 65.341 48.4951 65.341 48.5572V48.6504L69.193 48.433L69.162 48.3398C69.162 48.3087 68.5717 44.8295 68.1679 42.1269C67.7641 39.4243 67.5466 32.0621 67.5466 31.9689H67.3913Z" fill="url(#paint0_linear_1048_579)"/>
<path d="M63.8481 16.4989C64.5625 17.058 66.8302 18.9529 68.663 21.2517C70.5269 23.5815 71.7384 25.6318 71.8937 25.8803C71.9869 26.5016 73.0431 34.3609 74.2546 40.7291C75.4661 46.9419 77.8891 52.3782 78.293 53.1859C77.9823 53.5897 76.7087 55.2361 75.4972 56.5719C74.3478 57.8455 71.9558 59.9579 71.2103 60.6102L70.0299 53.7761L69.9988 53.5586L69.7813 53.6208C69.7813 53.6208 68.7562 53.9625 67.4515 54.3352C66.1468 54.708 64.8421 54.9876 64.8421 54.9876L64.7179 55.0187L64.6868 55.1429L63.5374 65.5495C63.2268 65.7048 62.1084 66.2018 60.3067 66.8231C58.536 67.4755 56.4547 67.755 55.7713 67.8482C55.8335 66.1397 56.3926 54.7701 58.3186 42.5929C60.2756 30.571 63.32 18.487 63.8481 16.4989ZM65.2149 48.7747H65.4323L69.0669 48.5573H69.2843L69.2533 48.3398C69.2533 48.3088 68.663 44.8295 68.2592 42.1269C67.8554 39.4243 67.6379 32.0621 67.6379 32L67.2651 31.9689C67.2651 32 66.737 35.6966 66.1468 39.8903C65.5877 44.0529 65.2149 48.5262 65.2149 48.5883V48.7747ZM27.5338 16.4989C28.0309 18.4559 31.1062 30.571 33.0322 42.624C34.9582 54.8012 35.5174 66.1708 35.5795 67.8793C34.9271 67.7861 32.8148 67.5065 31.0441 66.8542C29.2424 66.2018 28.124 65.7048 27.8134 65.5805L26.664 55.174L26.633 55.0497L26.5087 55.0187C26.5087 55.0187 25.2351 54.7391 23.8993 54.3663C22.5946 53.9935 21.5695 53.6518 21.5695 53.6518L21.352 53.5897L21.321 53.8071L20.1405 60.6413C19.3639 59.9579 16.9719 57.8766 15.8536 56.6029C14.6421 55.2672 13.3685 53.6208 13.0578 53.2169C13.4306 52.4092 15.8847 47.0041 17.0962 40.7601C18.3388 34.3919 19.395 26.5326 19.4571 25.9114C19.6124 25.6318 20.8239 23.6126 22.6878 21.2828C24.5516 18.9529 26.8193 17.0891 27.5338 16.4989ZM26.1359 48.7747L26.1049 48.5573C26.1049 48.4951 25.7321 44.0219 25.1729 39.8592C24.6138 35.6966 24.0857 32 24.0546 31.9378L23.6818 31.9689C23.6818 32.031 23.4644 39.3933 23.0606 42.0959C22.6567 44.7985 22.0976 48.2777 22.0665 48.3088L22.0354 48.5262H22.2529L25.8874 48.7437L26.1359 48.7747ZM45.5201 16.7163C48.5333 16.7163 50.4904 18.8908 50.801 19.2636C50.7389 20.413 49.7448 34.7026 49.7448 44.4257C49.7448 54.1799 50.2108 71.2653 50.2419 72.6011C49.9312 72.9117 48.1916 74.4339 45.3958 74.4339C42.6 74.4339 40.8604 72.9428 40.5498 72.6632C40.5809 71.2032 41.0779 50.7007 41.0779 44.4568C41.0779 34.423 40.0838 20.413 39.9906 19.2015C40.3945 18.7976 42.5379 16.7163 45.5201 16.7163ZM63.7238 16.1882C63.7238 16.1882 60.2757 29.3284 58.1633 42.624C56.0509 55.9195 55.5849 68.1278 55.5849 68.1278C55.5849 68.1278 58.1943 67.8482 60.3688 67.0716C62.5433 66.295 63.7238 65.7359 63.7238 65.7359L64.9042 55.205C64.9042 55.205 66.1779 54.9255 67.5136 54.5527C68.8494 54.1799 69.8435 53.8382 69.8435 53.8382L71.055 61.0141C71.055 61.0141 74.2235 58.2804 75.6214 56.7272C77.0193 55.174 78.4794 53.248 78.4794 53.248C78.4794 53.248 75.7146 47.5011 74.4099 40.7291C73.1363 34.0813 72.049 25.8803 72.049 25.8803C72.049 25.8803 70.8065 23.7369 68.7562 21.1896C66.5817 18.3317 63.7238 16.1882 63.7238 16.1882ZM65.4323 48.5883C65.4323 48.5883 65.8051 44.1151 66.3643 39.8903C66.9234 35.6656 67.4826 32 67.4826 32C67.4826 32 67.7 39.4243 68.1039 42.158C68.5077 44.8917 69.0979 48.3709 69.0979 48.3709L65.4323 48.5883ZM27.627 16.1882C27.627 16.1882 24.8002 18.3627 22.5635 21.1274C20.5443 23.6747 19.2707 25.8182 19.2707 25.8182C19.2707 25.8182 18.2145 34.0502 16.9098 40.698C15.6051 47.47 12.8404 53.2169 12.8404 53.2169C12.8404 53.2169 14.3004 55.1429 15.6983 56.6961C17.0962 58.2493 20.2648 60.983 20.2648 60.983L21.4763 53.8071C21.4763 53.8071 22.4703 54.1488 23.8061 54.5216C25.1419 54.8944 26.4155 55.174 26.4155 55.174L27.596 65.7048C27.596 65.7048 28.7764 66.2639 30.9509 67.0406C33.1254 67.8172 35.7348 68.0967 35.7348 68.0967C35.7348 68.0967 35.2999 55.9195 33.1565 42.5929C31.013 29.2663 27.627 16.1882 27.627 16.1882ZM25.9495 48.5883L22.315 48.3709C22.315 48.3709 22.8742 44.8917 23.3091 42.158C23.7129 39.4243 23.9304 32 23.9304 32C23.9304 32 24.4585 35.6966 25.0487 39.8903C25.5768 44.1151 25.9495 48.5883 25.9495 48.5883ZM45.5201 16.5299C42.103 16.5299 39.8353 19.0772 39.8353 19.0772C39.8353 19.0772 40.9226 33.8638 40.9226 44.3946C40.9226 50.9492 40.3634 72.6943 40.3634 72.6943C40.3634 72.6943 42.1651 74.5892 45.3958 74.5892C48.6265 74.5892 50.4282 72.6321 50.4282 72.6321C50.4282 72.6321 49.9312 54.5838 49.9312 44.3946C49.9312 34.2055 50.9874 19.1704 50.9874 19.1704C50.9874 19.1704 48.9372 16.5299 45.5201 16.5299Z" fill="#EFE285"/>
<path d="M9.14282 52.8131L23.215 22.4632H68.0719L81.8334 52.3471L45.457 71.2964L9.14282 52.8131Z" fill="#B78612"/>
<path d="M68.0108 22.5253L81.7101 52.2849L45.427 71.2031L9.26807 52.7509L23.2781 22.5253H68.0108ZM68.135 22.3699H23.1849L9.05062 52.8441L45.458 71.3895L81.9586 52.3781L68.135 22.3699Z" fill="#EFE285"/>
<path d="M11.1323 52.2538L45.4274 69.712L79.8467 51.7879L67.0171 23.8921H24.3036L11.1323 52.2538Z" fill="url(#paint1_linear_1048_579)"/>
<path d="M34.866 42.3443C32.7537 29.0799 29.2745 15.8775 29.2434 15.7222C29.0881 15.132 28.6532 14.6349 28.063 14.4486C27.4727 14.2311 26.8204 14.3554 26.3233 14.7281C26.1991 14.8213 23.279 17.058 20.9182 20.0091C18.8058 22.6185 17.5321 24.8551 17.5011 24.9172C17.3768 25.1347 17.3147 25.3521 17.2526 25.6007C17.2526 25.6938 16.1653 33.8638 14.8917 40.3562C13.6491 46.7555 11.0086 52.3471 10.9776 52.4092C10.6669 53.0305 10.7601 53.776 11.1639 54.3352C11.195 54.3662 12.655 56.3233 14.1151 57.9386C15.5751 59.554 18.7126 62.2877 18.8679 62.4119C19.3649 62.8468 20.0794 62.9711 20.7007 62.7536C21.322 62.5362 21.788 61.977 21.9122 61.3247L22.782 56.2301C22.9063 56.2612 23.0305 56.2922 23.1237 56.3233C23.6207 56.4786 24.1178 56.6029 24.5527 56.6961L25.5778 65.9222C25.6399 66.5745 26.0438 67.1026 26.634 67.3822C26.6961 67.4133 27.9076 68.0035 30.1443 68.7801C32.5052 69.6188 35.2388 69.9295 35.3631 69.9295C35.4252 69.9295 35.4873 69.9295 35.5495 69.9295C36.0154 69.9295 36.4814 69.7431 36.8231 69.4325C37.2269 69.0597 37.4444 68.5627 37.4133 68.0035C37.4444 67.9103 36.9784 55.6399 34.866 42.3443Z" fill="#1A171B"/>
<path d="M80.0028 52.4092C79.9718 52.316 77.3313 46.7555 76.0887 40.3562C74.8462 33.9259 73.79 25.9424 73.7278 25.6006C73.6968 25.3521 73.6036 25.1347 73.4793 24.9172C73.4172 24.824 72.1436 22.6185 70.0622 20.0091C67.7014 17.0579 64.7813 14.8213 64.6571 14.7281C64.16 14.3554 63.5077 14.2622 62.9174 14.4485C62.3272 14.666 61.8923 15.132 61.737 15.7222C61.5817 16.2813 58.2267 29.2041 56.1144 42.3443C54.002 55.5777 53.536 67.9414 53.536 68.0656C53.5049 68.5937 53.7224 69.1218 54.1262 69.4946C54.4679 69.8052 54.9339 69.9916 55.3999 69.9916C55.462 69.9916 55.5241 69.9916 55.5863 69.9916C55.7105 69.9916 58.4442 69.681 60.8051 68.8422C63.0417 68.0345 64.2532 67.4754 64.3153 67.4443C64.9056 67.1647 65.2783 66.6056 65.3715 65.9843L66.3967 56.7582C66.8316 56.6339 67.3286 56.5097 67.8256 56.3854C67.9499 56.3544 68.0431 56.3233 68.1673 56.2922L69.0371 61.3868C69.1614 62.0391 69.5963 62.5983 70.2486 62.8157C70.8699 63.0332 71.5844 62.9089 72.0814 62.474C72.2057 62.3498 75.3743 59.6472 76.8343 58.0008C78.2632 56.3854 79.7233 54.4594 79.7854 54.3973C80.2203 53.776 80.3135 53.0305 80.0028 52.4092Z" fill="#1A171B"/>
<path d="M45.3345 14.666C41.1408 14.666 38.3761 17.7103 38.2519 17.8345C37.9102 18.2073 37.7548 18.7044 37.7859 19.2014C37.7859 19.3567 38.8731 34.0191 38.8731 44.3946C38.8731 50.856 38.3451 72.4146 38.314 72.6321C38.314 73.1291 38.4693 73.5951 38.811 73.9678C39.0595 74.2163 41.2651 76.453 45.1792 76.453C49.1554 76.453 51.4853 74.03 51.5785 73.9368C51.9202 73.5951 52.1066 73.098 52.0755 72.601C52.0755 72.4146 51.5785 54.4594 51.5785 44.3946C51.5785 34.3297 52.6036 19.4499 52.6347 19.2946C52.6657 18.8286 52.5415 18.3937 52.2619 18.0209C52.1998 17.9277 49.6214 14.666 45.3345 14.666Z" fill="#1A171B"/>
<path d="M45.2444 74.527C42.3244 74.527 40.5537 72.9117 40.3052 72.6942C40.3362 71.638 40.8643 50.7939 40.8643 44.4567C40.8643 34.2987 39.8392 20.0402 39.7771 19.1704C40.0256 18.8908 42.2622 16.6852 45.3687 16.6852C48.5062 16.6852 50.5253 19.015 50.7428 19.2946C50.6807 20.1333 49.6866 34.6404 49.6866 44.4878C49.6866 54.3352 50.1526 71.7312 50.1836 72.6942C49.9662 72.8806 48.1955 74.527 45.2444 74.527ZM35.4902 68.0035C34.9621 67.9414 32.7255 67.6307 30.8305 66.9473C28.9356 66.2639 27.7862 65.7358 27.5377 65.6426L26.3573 55.1118L26.2951 55.0807C26.2951 55.0807 24.9904 54.8012 23.6857 54.4284C22.381 54.0556 21.3559 53.7139 21.3559 53.7139L21.2627 53.6828L20.0512 60.8276C19.461 60.2995 16.8205 58.0319 15.609 56.665C14.3354 55.2671 12.9996 53.5275 12.7822 53.2169C13.0617 52.6267 15.609 47.0972 16.8205 40.729C18.0631 34.2987 19.1193 26.3152 19.1814 25.8802C19.3057 25.6939 20.5482 23.6126 22.4432 21.2206C24.4002 18.7665 26.8543 16.7784 27.3824 16.3435C27.7552 17.7725 30.9237 30.1982 32.9119 42.6239C34.931 55.1118 35.4281 66.7609 35.4902 68.0035ZM23.6236 31.9999C23.6236 32.0621 23.4062 39.4243 23.0023 42.158C22.5985 44.8606 22.0393 48.3398 22.0083 48.3708L21.9772 48.464L25.8292 48.6815V48.5883C25.8292 48.5262 25.4564 44.084 24.8973 39.8903C24.3381 35.7276 23.81 32.031 23.7789 31.9999H23.6236ZM55.4956 68.0035C55.5578 66.7609 56.0548 55.1118 58.0429 42.6239C60.031 30.1982 63.1996 17.7725 63.5724 16.3435C64.1315 16.7784 66.5546 18.7354 68.5116 21.1895C70.4376 23.5815 71.6491 25.6628 71.7734 25.8492C71.8355 26.2841 72.8917 34.2676 74.1342 40.6979C75.3768 47.0661 77.893 52.5956 78.1726 53.1858C77.9552 53.4965 76.6194 55.2361 75.3458 56.634C74.1343 58.0008 71.4938 60.2685 70.9036 60.7966L69.692 53.6828L69.5989 53.7139C69.5989 53.7139 68.5737 54.0556 67.269 54.4284C65.9643 54.8012 64.6596 55.0807 64.6596 55.0807L64.5975 55.1118L63.417 65.6426C63.1685 65.7669 62.0502 66.2639 60.1242 66.9473C58.2604 67.6618 56.0237 67.9414 55.4956 68.0035ZM67.2069 31.9689C67.2069 31.9999 66.6788 35.6966 66.0886 39.8592C65.5294 44.0218 65.1567 48.4951 65.1567 48.5572V48.6504L69.0086 48.433L68.9776 48.3398C68.9776 48.3087 68.3873 44.8295 67.9835 42.1269C67.5797 39.4243 67.3622 32.0621 67.3622 31.9689H67.2069Z" fill="url(#paint2_linear_1048_579)"/>
<path d="M27.3494 16.4989C27.8465 18.4559 30.9218 30.571 32.8478 42.655C34.7738 54.8323 35.333 66.2018 35.3951 67.9104C34.7427 67.8172 32.6304 67.5376 30.8597 66.8852C29.058 66.2329 27.9397 65.7359 27.629 65.6116L26.4796 55.174L26.4486 55.0497L26.3243 55.0187C26.3243 55.0187 25.0507 54.7391 23.7149 54.3663C22.4102 53.9935 21.3851 53.6518 21.3851 53.6518L21.1676 53.5897L21.1366 53.8071L19.9561 60.6724C19.1795 59.9889 16.7876 57.9076 15.6692 56.634C14.4577 55.2982 13.1841 53.6518 12.8734 53.248C13.2462 52.4403 15.7003 47.0351 16.9118 40.7912C18.1544 34.423 19.2106 26.5637 19.2727 25.9424C19.428 25.6628 20.6395 23.6437 22.5034 21.3138C24.3673 18.9529 26.635 17.0891 27.3494 16.4989ZM25.9515 48.7747L25.9205 48.5573C25.9205 48.4951 25.5477 44.0219 24.9885 39.8592C24.4294 35.6966 23.9013 32 23.8702 31.9378L23.4974 31.9689C23.4974 32.031 23.28 39.3933 22.8762 42.0959C22.4723 44.7985 21.9132 48.2777 21.8821 48.3088L21.851 48.5262H22.0685L25.703 48.7437L25.9515 48.7747ZM63.6326 16.4989C64.3471 17.058 66.6148 18.9529 68.4476 21.2517C70.3114 23.5815 71.5229 25.6318 71.6783 25.8803C71.7714 26.5016 72.8276 34.3609 74.0391 40.7291C75.2507 46.9419 77.6737 52.3782 78.0775 53.1859C77.7669 53.5897 76.4932 55.2361 75.2817 56.5719C74.1323 57.8455 71.7404 59.9579 70.9948 60.6102L69.8144 53.745L69.7833 53.5276L69.5659 53.5897C69.5659 53.5897 68.5408 53.9314 67.2361 54.3042C65.9314 54.6769 64.6267 54.9565 64.6267 54.9565L64.5024 54.9876L64.4713 55.1118L63.3219 65.5184C63.0113 65.6737 61.893 66.1707 60.0913 66.792C58.3206 67.4444 56.2393 67.724 55.5559 67.8172C55.618 66.1086 56.1771 54.7391 58.1031 42.5618C60.0602 30.571 63.1356 18.487 63.6326 16.4989ZM65.0305 48.7747H65.2479L68.8825 48.5573H69.0999L69.0689 48.3398C69.0689 48.3088 68.4786 44.8295 68.0748 42.1269C67.671 39.4243 67.4535 32.0621 67.4535 32L67.0807 31.9689C67.0807 32 66.5526 35.6966 65.9624 39.8903C65.4033 44.0529 65.0305 48.5262 65.0305 48.5883V48.7747ZM45.3357 16.7163C48.3489 16.7163 50.306 18.8908 50.6166 19.2636C50.5545 20.413 49.5604 34.7026 49.5604 44.4257C49.5604 54.1799 50.0264 71.2653 50.0575 72.6011C49.7468 72.9117 48.0072 74.4339 45.2114 74.4339C42.4156 74.4339 40.676 72.9428 40.3654 72.6632C40.3965 71.2032 40.8935 50.7007 40.8935 44.4568C40.8935 34.423 39.8994 20.413 39.8062 19.2015C40.2101 18.7976 42.3535 16.7163 45.3357 16.7163ZM63.5394 16.1882C63.5394 16.1882 60.0913 29.3284 57.9789 42.624C55.8665 55.9195 55.4005 68.1278 55.4005 68.1278C55.4005 68.1278 58.0099 67.8482 60.1844 67.0716C62.359 66.295 63.5394 65.7359 63.5394 65.7359L64.7198 55.205C64.7198 55.205 65.9935 54.9255 67.3293 54.5527C68.665 54.1799 69.6591 53.8382 69.6591 53.8382L70.8706 61.0141C70.8706 61.0141 74.0391 58.2804 75.437 56.7272C76.8349 55.174 78.295 53.248 78.295 53.248C78.295 53.248 75.5302 47.5011 74.2255 40.7291C72.9519 34.0813 71.8646 25.8803 71.8646 25.8803C71.8646 25.8803 70.6221 23.7369 68.5718 21.1896C66.3662 18.3317 63.5394 16.1882 63.5394 16.1882ZM65.2479 48.5883C65.2479 48.5883 65.6207 44.1151 66.1799 39.8903C66.739 35.6656 67.2982 32 67.2982 32C67.2982 32 67.5156 39.4243 67.9195 42.158C68.3233 44.8917 68.9135 48.3709 68.9135 48.3709L65.2479 48.5883ZM27.4426 16.1882C27.4426 16.1882 24.6158 18.3627 22.3791 21.1274C20.36 23.6747 19.0863 25.8182 19.0863 25.8182C19.0863 25.8182 17.9991 34.0502 16.7254 40.698C15.4207 47.47 12.656 53.2169 12.656 53.2169C12.656 53.2169 14.116 55.1429 15.5139 56.6961C16.9118 58.2493 20.0804 60.983 20.0804 60.983L21.2919 53.8071C21.2919 53.8071 22.2859 54.1488 23.6217 54.5216C24.9575 54.8944 26.2311 55.174 26.2311 55.174L27.4116 65.7048C27.4116 65.7048 28.592 66.2639 30.7665 67.0406C32.941 67.8172 35.5504 68.0967 35.5504 68.0967C35.5504 68.0967 35.1155 55.9195 32.9721 42.5929C30.8908 29.3284 27.4426 16.1882 27.4426 16.1882ZM25.7341 48.5883L22.0996 48.3709C22.0996 48.3709 22.6587 44.8917 23.0936 42.158C23.4975 39.4243 23.7149 32 23.7149 32C23.7149 32 24.243 35.6966 24.8332 39.8903C25.3924 44.1151 25.7341 48.5883 25.7341 48.5883ZM45.3357 16.5299C41.9186 16.5299 39.6509 19.0772 39.6509 19.0772C39.6509 19.0772 40.7382 33.8638 40.7382 44.3946C40.7382 50.9492 40.179 72.6943 40.179 72.6943C40.179 72.6943 41.9807 74.5892 45.2114 74.5892C48.4421 74.5892 50.2439 72.6321 50.2439 72.6321C50.2439 72.6321 49.7468 54.5838 49.7468 44.3946C49.7468 34.2055 50.803 19.1704 50.803 19.1704C50.803 19.1704 48.7528 16.5299 45.3357 16.5299Z" fill="#EFE285"/>
<path d="M88.8249 37.3119C88.5763 36.5353 88.0482 35.8519 87.2406 35.3238C86.6193 34.92 85.8427 34.6404 84.9729 34.5161C84.1652 34.3919 83.3886 34.454 82.7052 34.6404C82.4256 34.4229 82.0839 34.2987 81.7111 34.2366L78.0145 33.7706C77.5796 33.7085 77.1447 33.8017 76.7408 34.0191C76.5234 33.8948 76.3059 33.8017 76.0885 33.7085C75.7157 33.5842 75.1255 33.4289 73.5412 33.2425L71.9569 33.0561C71.7705 33.025 71.5841 33.025 71.3978 33.0561C71.2114 32.994 71.025 32.9319 70.8386 32.9319L68.602 32.7144C68.5088 32.7144 68.3845 32.7144 68.2913 32.7144C68.1981 32.6833 68.0739 32.6523 67.9807 32.6523L65.744 32.4348C65.6198 32.4348 65.4955 32.4348 65.3713 32.4348C65.247 32.4038 65.1228 32.3727 64.9985 32.3727L60.1214 31.9999C59.9971 31.9999 59.8729 31.9999 59.7176 31.9999C59.5622 31.9689 59.438 31.9378 59.3137 31.9378L57.4499 31.8446C57.2324 31.8446 57.015 31.8446 56.8286 31.9067C56.6422 31.8446 56.4247 31.7825 56.2073 31.7825L54.3434 31.6893C54.157 31.6893 53.9707 31.6893 53.7843 31.7514C53.5979 31.6893 53.4115 31.6582 53.2251 31.6582L49.4974 31.534C49.3731 31.534 49.2799 31.534 49.1557 31.565C49.0314 31.534 48.9072 31.534 48.7829 31.534H46.422C46.2356 31.534 46.0492 31.565 45.8629 31.5961C45.6765 31.534 45.4901 31.534 45.3037 31.534H42.9428C42.539 31.534 42.1351 31.6582 41.7624 31.8757C41.6692 31.8446 41.5449 31.8135 41.4517 31.7825C41.0479 31.6893 40.3955 31.5961 38.7181 31.6271L37.0406 31.6893C36.6989 31.6893 36.3572 31.7825 36.0465 31.9689C35.7359 31.8135 35.3942 31.7514 35.0835 31.7825L31.8528 31.8757C31.0141 31.9378 30.2686 32.4659 29.989 33.2425C29.8647 33.025 29.7094 32.8076 29.4919 32.6523C29.057 32.2795 28.529 32.0931 27.9387 32.1552L26.0749 32.3106C25.8574 32.3416 25.64 32.3727 25.4536 32.4659C25.2361 32.4038 25.0497 32.4038 24.8323 32.4038L22.9684 32.5591C22.7821 32.5901 22.5957 32.6212 22.4093 32.6833C22.2229 32.6523 22.0365 32.6523 21.8501 32.6523L19.6135 32.8697C19.0543 32.9319 18.5262 33.1804 18.1845 33.6153C17.9049 33.957 17.7496 34.3297 17.7186 34.7336C17.5943 34.3297 17.3458 33.988 17.0351 33.7085C16.6002 33.3668 16.0411 33.1804 15.4819 33.2425L13.2453 33.491C12.8725 33.5221 12.5308 33.6774 12.2202 33.8948C11.8785 33.7395 11.5057 33.7085 11.1329 33.7395L8.89629 33.988C8.55458 34.0191 8.275 34.1434 7.99542 34.3298C7.68478 34.2366 7.37413 34.1744 7.03242 34.2366L3.86386 34.6093C2.80767 34.7647 2.03106 35.6345 2.03106 36.6906L2 45.3576C2 45.9789 2.24851 46.538 2.71448 46.9419C3.18045 47.3457 3.77067 47.5321 4.39195 47.4389L6.69072 47.1283C6.8771 47.0972 7.03242 47.0661 7.21881 47.004C7.4052 47.0351 7.59158 47.0351 7.7469 47.004L10.0146 46.7244C10.0767 46.7244 10.1389 46.6934 10.201 46.6934C10.2942 46.6934 10.3563 46.6934 10.4495 46.6623L14.0219 46.2274C14.1151 46.2274 14.2083 46.1963 14.3015 46.1653C14.3947 46.1653 14.5189 46.1653 14.6121 46.1653L18.1845 45.7925C18.6505 45.7304 19.0854 45.544 19.4271 45.2023C19.8309 45.4508 20.2969 45.575 20.7939 45.544L23.0306 45.3265C23.1859 45.2955 23.3723 45.2644 23.5276 45.2333C23.6829 45.2644 23.8382 45.2644 23.9936 45.2644L25.8574 45.1091C26.0438 45.078 26.2613 45.0469 26.4166 44.9848C26.603 45.0159 26.7894 45.047 27.0068 45.0159L28.9639 44.8606C29.3988 44.8295 29.8337 44.6431 30.1443 44.3946C30.486 44.612 30.8588 44.7052 31.2626 44.7052C31.2937 44.7052 31.3247 44.7052 31.3869 44.7052L33.6856 44.581C33.872 44.581 34.0584 44.5499 34.2137 44.4878C34.4001 44.5189 34.5554 44.5499 34.7418 44.5189L37.0406 44.3946C37.1027 44.3946 37.1648 44.3946 37.227 44.3635C37.2891 44.3635 37.3202 44.3635 37.3823 44.3635L40.2713 44.3014C40.9858 44.2703 41.5139 44.2393 41.9177 44.115C42.2594 44.0218 42.57 43.8976 42.8807 43.7422C43.2535 44.0529 43.7194 44.2082 44.2164 44.2393L47.6335 44.2703C47.882 44.2703 48.1616 44.2082 48.3791 44.115C48.6276 44.2082 48.8761 44.2703 49.1246 44.2703L53.0077 44.3946C53.1319 44.3946 53.2251 44.3946 53.3494 44.3635C53.4426 44.3946 53.5668 44.3946 53.66 44.3946L55.5239 44.4878C55.7103 44.4878 55.9277 44.4878 56.1141 44.4257C56.3005 44.4878 56.4869 44.5189 56.6733 44.5499L58.6303 44.6742C58.941 44.7052 59.2516 44.6431 59.5622 44.5189C59.8418 44.6742 60.1525 44.7984 60.4942 44.8295L62.7308 45.0159C63.321 45.078 63.8802 44.8606 64.3151 44.4878C64.5325 44.6742 64.781 44.8295 65.0296 44.9538C65.6508 45.2955 66.3653 45.5129 67.173 45.6061C67.9185 45.6682 68.602 45.6061 69.2233 45.4197C69.3164 45.3887 69.4096 45.3576 69.5028 45.3265C69.8135 45.575 70.1552 45.6993 70.559 45.7614L72.7646 46.0099C72.8888 46.0099 72.982 46.041 73.1063 46.0099C73.2306 46.041 73.3237 46.0721 73.448 46.0721L75.4983 46.3206C75.6536 46.3517 75.7778 46.3517 75.9642 46.3206C76.1195 46.3827 76.2749 46.4138 76.4302 46.4448L80.2822 46.9419C80.6239 47.004 80.9656 46.9419 81.2762 46.8176C81.8664 47.1904 82.5809 47.4389 83.3575 47.5632C83.6371 47.6253 83.9478 47.6253 84.2273 47.6253C84.7554 47.6253 85.2835 47.5632 85.7495 47.4078C86.6504 47.1283 87.3338 46.6623 87.7997 45.9789C88.1725 45.4197 88.421 44.7363 88.5453 43.7733C88.7006 42.7171 88.6385 41.8163 88.39 41.1018C88.6695 40.7911 88.8249 40.4184 88.887 40.0145L88.9491 39.6728C89.0423 38.6788 89.0112 37.9332 88.8249 37.3119Z" fill="#1A171B"/>
<path d="M9.48925 36.2868L11.1667 36.1004L11.9744 42.9346L13.3102 42.7793L13.4655 43.9286L10.4212 44.2703L9.48925 36.2868Z" fill="#E4C96E"/>
<path d="M13.774 35.7897L15.4514 35.6033L16.1659 42.4375L17.5328 42.3132L17.657 43.4626L14.6127 43.7733L13.774 35.7897Z" fill="#E4C96E"/>
<path d="M20.1113 35.1685L21.7888 35.0132L22.5343 42.9967L20.8568 43.152L20.1113 35.1685Z" fill="#E4C96E"/>
<path d="M37.386 33.9881L38.7839 33.957C39.0635 33.957 39.312 33.957 39.5295 33.957C40.3682 33.957 40.741 34.0191 40.9274 34.0502C41.238 34.1123 41.4865 34.2366 41.6729 34.423C41.8593 34.6094 41.9525 34.8268 42.0146 35.0443C42.0767 35.2928 42.1078 35.7898 42.1389 36.6285L42.2321 39.6418C42.2631 40.3873 42.2321 40.8844 42.1699 41.1329C42.1078 41.3503 42.0146 41.5056 41.8903 41.6299C41.7661 41.7542 41.5797 41.8473 41.3312 41.9095C41.1137 41.9716 40.741 42.0027 40.1818 42.0337L37.6345 42.0959L37.386 33.9881ZM39.0946 35.0753L39.2499 41.0397H39.4673C39.778 41.0397 40.1818 40.9775 40.3371 40.698C40.3993 40.5737 40.4925 40.3252 40.4614 39.4865L40.3682 36.1626C40.3682 35.6034 40.3371 35.4481 40.3061 35.3549C40.275 35.1685 40.1507 35.0443 39.9954 34.9511C39.8712 34.8889 39.6848 34.8579 39.4363 34.8579H39.1256L39.0946 35.0753Z" fill="#E4C96E"/>
<path d="M49.4395 41.9094L49.688 33.8948L52.8566 33.988L52.8255 35.1374L51.3344 35.1063L51.2723 37.2808L52.6702 37.3119L52.6392 38.3992L51.2413 38.3681L51.1481 40.8222L52.7945 40.8532L52.7634 42.0337L49.4395 41.9094Z" fill="#E4C96E"/>
<path d="M60.9012 42.4997L61.4293 35.6345L60.1246 35.5413L60.2178 34.3919L64.5358 34.7336L64.4426 35.883L63.1068 35.7898L62.5787 42.624L60.9012 42.4997Z" fill="#E4C96E"/>
<path d="M67.702 43.2763C67.5777 43.2763 67.4534 43.2763 67.3292 43.2452C66.8632 43.2142 66.4594 43.0899 66.1177 42.9035C65.807 42.7171 65.5585 42.4997 65.4032 42.2512C65.2789 42.0027 65.1857 41.7542 65.1857 41.4746C65.1857 41.195 65.2168 40.5737 65.31 39.6107L65.776 34.8268L67.4534 34.9821L66.8632 41.1329C66.8322 41.5367 66.8322 41.7852 66.8632 41.9405C66.9253 42.158 67.1117 42.3133 67.3292 42.3444H67.4224C67.6398 42.3444 67.8262 42.2201 67.9194 42.0027C67.9505 41.9405 68.0126 41.7231 68.0747 41.1329L68.665 35.1064L70.3424 35.2617L69.8143 40.698C69.7522 41.3503 69.6901 41.7852 69.6279 42.0027C69.5658 42.2201 69.4416 42.4376 69.2241 42.655C69.0067 42.8725 68.7581 43.0278 68.4475 43.121C68.23 43.2452 67.9815 43.2763 67.702 43.2763Z" fill="#E4C96E"/>
<path d="M76.9627 44.1461L77.9878 36.1625L81.1253 36.5664L81.001 37.7468L79.5099 37.5293L79.2303 39.7039L80.5972 39.8902L80.4729 40.9464L79.075 40.7911L78.7644 43.1831L80.3797 43.4005L80.2555 44.581L76.9627 44.1461Z" fill="#E4C96E"/>
<path d="M84.1669 45.2644C83.9805 45.2644 83.7941 45.2644 83.6388 45.2333C83.0797 45.1401 82.6448 44.9848 82.3031 44.7363C81.9613 44.4878 81.775 44.2393 81.7128 43.9286C81.6507 43.5869 81.6507 43.0899 81.7439 42.5307L81.775 42.2511L83.2971 42.4686L83.2039 43.2141C83.1418 43.5869 83.1418 43.8354 83.235 43.9907C83.2971 44.1771 83.4835 44.3014 83.732 44.3324C83.7941 44.3324 83.8252 44.3324 83.8252 44.3324C84.0427 44.3324 84.198 44.2393 84.3222 44.0839C84.4465 43.9286 84.5397 43.7112 84.5707 43.4316C84.6639 42.8724 84.6329 42.4686 84.4465 42.2511C84.3222 42.0647 84.0116 41.7541 83.4835 41.2881C82.8933 40.76 82.6448 40.4805 82.5205 40.3562C82.3962 40.2009 82.3031 39.9834 82.2409 39.7039C82.1788 39.4553 82.1788 39.1136 82.2409 38.6787C82.3652 37.9332 82.5205 37.5915 82.6448 37.4051C82.8311 37.1876 83.0797 37.0013 83.4214 36.9081C83.6388 36.8459 83.8873 36.8149 84.1358 36.8149C84.2912 36.8149 84.4465 36.8149 84.695 36.8459C85.2231 36.9391 85.6891 37.0634 85.9997 37.2808C86.3103 37.4672 86.4967 37.7157 86.5899 37.9332C86.6521 38.1196 86.6831 38.4923 86.5589 39.269V39.3311L85.0678 39.1136L85.1299 38.7719C85.192 38.3991 85.192 38.1817 85.0988 38.0574C85.0056 37.8711 84.8503 37.7779 84.6329 37.7468C84.6018 37.7468 84.5708 37.7468 84.5397 37.7468C84.3533 37.7468 84.198 37.8089 84.0737 37.9642C83.9495 38.0885 83.8873 38.306 83.8252 38.5855C83.7631 38.9583 83.7941 39.2068 83.8563 39.3932C83.9184 39.5796 84.1048 39.797 84.4776 40.1077C85.5648 40.9775 85.9376 41.4745 86.0618 41.723C86.2482 42.0647 86.2793 42.655 86.155 43.4316C86.0618 44.1461 85.9065 44.4567 85.8133 44.612C85.658 44.8295 85.4095 44.9848 85.0367 45.109C84.7261 45.2333 84.4776 45.2644 84.1669 45.2644Z" fill="#E4C96E"/>
<path d="M56.9519 42.22L55.6472 36.7838L55.3366 42.1268L54.0008 42.0647L54.4668 34.0501L55.8647 34.1433L57.2626 39.4242L57.5422 34.2365L58.909 34.2986L58.443 42.3132L56.9519 42.22Z" fill="#E4C96E"/>
<path d="M23.4012 34.8267L24.8302 34.7335L26.9426 39.797L26.5077 34.5782L27.8745 34.485L28.4958 42.5307L27.0047 42.6549L24.9855 37.4051L25.3894 42.7792L24.0225 42.8724L23.4012 34.8267Z" fill="#E4C96E"/>
<path d="M32.1941 34.2365L34.9588 34.1123L36.5741 42.0958L34.8656 42.189L34.6792 40.6358L33.3745 40.6979L33.3124 42.2511L31.5728 42.3443L32.1941 34.2365ZM33.4677 38.3992L33.3434 39.7039L33.7783 39.6728L34.6171 39.6417L34.555 39.3932C34.3064 38.2128 34.3064 38.2128 34.0269 36.7528L33.7473 35.3549" fill="#E4C96E"/>
<path d="M4.39417 36.9392L7.12783 36.5664L9.36447 44.3946L7.68699 44.6121L7.37635 43.0899L6.07164 43.2763L6.13377 44.8295L4.39417 45.047V36.9392ZM5.94739 41.6299V42.2822L6.10271 42.2512L7.22102 42.0959L7.1589 41.8473C6.81719 40.6669 6.75506 40.4184 6.35122 38.9894L6.04058 37.9022" fill="#E4C96E"/>
<path d="M73.9433 43.7733L74.2229 41.2261C74.3161 40.5426 74.2539 40.3252 74.1918 40.2009C74.0986 39.9835 73.8501 39.8592 73.4152 39.8282L73.1977 39.7971L73.1667 40.0146L72.7007 43.6491L71.0232 43.4627L71.9552 35.4792L73.2599 35.6345C74.285 35.7587 74.9684 35.883 75.3101 35.9762C75.5897 36.0694 75.8382 36.2868 75.9935 36.5664C76.1489 36.8771 76.211 37.3741 76.1178 38.0264C76.0246 38.803 75.8693 39.0826 75.7761 39.1758C75.6829 39.269 75.5586 39.3311 75.3723 39.3933C75.1237 39.4554 75.1859 39.4243 74.751 39.5175L74.4714 39.5797L74.8131 39.766C74.9684 39.8592 75.1237 39.9524 75.248 40.0456C75.4344 40.1699 75.4965 40.2631 75.5897 40.3563C75.745 40.5426 75.745 40.6669 75.7761 40.7912C75.7761 40.8533 75.8072 41.0707 75.6829 42.0027L75.4654 43.9908L73.9433 43.7733ZM73.5084 36.7839L73.2599 38.9894L73.5395 39.0516C73.6327 39.0516 73.7258 39.0826 73.788 39.0826C73.9744 39.0826 74.1297 39.0516 74.2539 38.9894C74.4403 38.8962 74.5646 38.6167 74.6267 38.1507L74.6888 37.6847C74.7199 37.343 74.6888 37.0945 74.5335 36.9081C74.4093 36.7528 74.1918 36.6596 73.8501 36.6285L73.5705 36.5975L73.5084 36.7839Z" fill="#E4C96E"/>
<path d="M45.8348 39.8902C46.0834 38.3059 46.2697 36.6595 46.4561 35.1684L46.6425 33.8327H48.4442L47.3259 41.8783H44.4059L43.2254 33.8327H45.0272C45.3378 36.1935 45.5863 38.1817 45.8348 39.8902Z" fill="#E4C96E"/>
</g>
<defs>
<linearGradient id="paint0_linear_1048_579" x1="45.528" y1="76.4435" x2="45.528" y2="14.3305" gradientUnits="userSpaceOnUse">
<stop offset="0.0858277" stop-color="#905E36"/>
<stop offset="0.2669" stop-color="#CF9A41"/>
<stop offset="0.331" stop-color="#D2A248"/>
<stop offset="0.4294" stop-color="#DCB75D"/>
<stop offset="0.5491" stop-color="#EBDA7D"/>
<stop offset="0.5737" stop-color="#EFE285"/>
<stop offset="0.6506" stop-color="#E4C96E"/>
<stop offset="0.7733" stop-color="#CF9A41"/>
<stop offset="0.9729" stop-color="#7C4D25"/>
</linearGradient>
<linearGradient id="paint1_linear_1048_579" x1="45.4991" y1="76.4748" x2="45.4991" y2="14.3314" gradientUnits="userSpaceOnUse">
<stop stop-color="#8A0E13"/>
<stop offset="0.9729" stop-color="#E1001A"/>
</linearGradient>
<linearGradient id="paint2_linear_1048_579" x1="45.5258" y1="76.4435" x2="45.5258" y2="14.3506" gradientUnits="userSpaceOnUse">
<stop offset="0.0858277" stop-color="#905E36"/>
<stop offset="0.2669" stop-color="#CF9A41"/>
<stop offset="0.331" stop-color="#D2A248"/>
<stop offset="0.4294" stop-color="#DCB75D"/>
<stop offset="0.5491" stop-color="#EBDA7D"/>
<stop offset="0.5737" stop-color="#EFE285"/>
<stop offset="0.6506" stop-color="#E4C96E"/>
<stop offset="0.7733" stop-color="#CF9A41"/>
<stop offset="0.9729" stop-color="#7C4D25"/>
</linearGradient>
</defs>
</svg>
