<svg width="130" height="150" viewBox="0 0 130 150" fill="none" xmlns="http://www.w3.org/2000/svg">
<path d="M10 82.5H22.5C26.6 82.5 30 85.9 30 90V140C30 144.1 26.6 147.5 22.5 147.5H10C5.9 147.5 2.5 144.1 2.5 140V90C2.5 85.9 5.9 82.5 10 82.5Z" fill="#FF9801"/>
<path d="M22.5 82.5H15C19.1 82.5 22.5 85.9 22.5 90V140C22.5 144.1 19.1 147.5 15 147.5H22.5C26.6 147.5 30 144.1 30 140V90C30 85.9 26.6 82.5 22.5 82.5Z" fill="#F57C00"/>
<path d="M112.5 117.5H107.5C111.6 117.5 115 120.9 115 125C115 129.1 111.6 132.5 107.5 132.5H102.5C106.6 132.5 110 135.9 110 140C110 144.1 106.6 147.5 102.5 147.5H57.5C53.7 147.6 49.9 146.9 46.3 145.5C43.9 144.5 41.7 143 39.3 141.8C36.8 140.6 34 140 31.2 140H30V90C35.1 90 40.1 88.5 44.3 85.8C53.3 80.1 67 69.6 64 56.3C63 51.8 62.6 47.5 67.4 45C72.7 42.3 77.8 45.7 80.2 50C88.5 64.6 74 87.4 74 87.4H110C114.1 87.4 117.5 90.8 117.5 94.9C117.5 99 114.1 102.4 110 102.4H112.5C116.6 102.4 120 105.8 120 109.9C120 114.1 116.6 117.5 112.5 117.5Z" fill="#FFE0B2"/>
<path d="M117.8 115.3C119.9 113.2 120.6 109.9 119.4 107.1C118.2 104.3 115.5 102.5 112.5 102.5H110C114.1 102.5 117.5 99.1 117.5 95C117.5 90.9 114.1 87.5 110 87.5H102.5C106.6 87.5 110 90.9 110 95C110 99.1 106.6 102.5 102.5 102.5H105C109.1 102.5 112.5 105.9 112.5 110C112.5 114.1 109.1 117.5 105 117.5H100C104.1 117.5 107.5 120.9 107.5 125C107.5 129.1 104.1 132.5 100 132.5H95C99.1 132.5 102.5 135.9 102.5 140C102.5 144.1 99.1 147.5 95 147.5H102.5C106.6 147.5 110 144.1 110 140C110 135.9 106.6 132.5 102.5 132.5H107.5C111.6 132.5 115 129.1 115 125C115 120.9 111.6 117.5 107.5 117.5H112.5C114.5 117.5 116.4 116.7 117.8 115.3Z" fill="#DFC49C"/>
<path d="M72.8 50C78.4 59.7 73.7 73.1 70 81C69.3 82.4 69.4 84 70.2 85.3C71 86.6 72.5 87.4 74 87.4C74 87.4 88.5 64.5 80.2 50C77.7 45.7 72.7 42.3 67.5 44.9C69.8 46.1 71.6 47.9 72.8 50Z" fill="#DFC49C"/>
<path d="M120 27.5C97.5 27.5 97.5 2.5 97.5 2.5C97.5 2.5 97.5 27.5 75 27.5C97.5 27.5 97.5 52.5 97.5 52.5C97.5 52.5 97.5 27.5 120 27.5Z" fill="#FFDC00"/>
<path d="M45 50C30 50 30 32.5 30 32.5C30 32.5 30 50 15 50C30 50 30 67.5 30 67.5C30 67.5 30 50 45 50Z" fill="#FFDC00"/>
<path d="M122.5 110C122.5 106.5 120.6 103.2 117.6 101.4C119.1 99.6 120 97.3 120 95C120 89.5 115.5 85 110 85H78.4C82.3 77.6 89.4 60.9 82.5 48.8C79.5 43.5 73.1 39.3 66.3 42.8C59.3 46.4 60.8 53.5 61.6 56.8C63.5 65.5 57.3 74.5 43 83.6C39.7 85.7 36 86.9 32.1 87.3C30.9 83 27 80 22.5 80H10C4.5 80 0 84.5 0 90V140C0 145.5 4.5 150 10 150H22.5C27 150 31 146.9 32.1 142.6C34.2 142.7 36.3 143.2 38.2 144.1C39.2 144.6 40.1 145.1 41 145.6C42.4 146.4 43.8 147.2 45.3 147.8C49.2 149.3 53.3 150 57.4 149.9H102.4C106.1 149.9 109.5 147.9 111.2 144.6C112.9 141.3 112.7 137.4 110.7 134.3C113.6 133.3 115.9 131 116.9 128C117.9 125.1 117.4 121.8 115.7 119.3C119.8 118 122.5 114.3 122.5 110ZM22.5 145H10C7.2 145 5 142.8 5 140V90C5 87.2 7.2 85 10 85H22.5C25.3 85 27.5 87.2 27.5 90V140C27.5 142.8 25.3 145 22.5 145ZM116 113.5C115.1 114.4 113.8 115 112.5 115H95C93.6 115 92.5 116.1 92.5 117.5C92.5 118.9 93.6 120 95 120H107.5C110.3 120 112.5 122.2 112.5 125C112.5 127.8 110.3 130 107.5 130H95C93.6 130 92.5 131.1 92.5 132.5C92.5 133.9 93.6 135 95 135H102.5C105.3 135 107.5 137.2 107.5 140C107.5 142.8 105.3 145 102.5 145H57.5C54 145.1 50.5 144.5 47.3 143.2C46 142.6 44.8 142 43.6 141.3C42.6 140.7 41.5 140.1 40.4 139.6C37.9 138.4 35.2 137.8 32.5 137.6V92.4C37.2 92 41.7 90.4 45.7 87.9C62 77.5 69 66.7 66.5 55.7C65.4 50.6 65.9 48.6 68.6 47.2C73 45 76.7 48.7 78.1 51.3C85.6 64.4 72.1 86 71.9 86.2C71.4 87 71.4 87.9 71.8 88.7C72.2 89.5 73.1 90 74 90H110C112.8 90 115 92.2 115 95C115 97.8 112.8 100 110 100H95C93.6 100 92.5 101.1 92.5 102.5C92.5 103.9 93.6 105 95 105H112.5C114.5 105 116.3 106.2 117.1 108.1C117.9 110 117.5 112.1 116 113.5Z" fill="#35414D"/>
<path d="M97.5 0C96.1 0 95 1.1 95 2.4V2.5C95 3.4 94.8 25 75 25C73.6 25 72.5 26.1 72.5 27.5C72.5 28.9 73.6 30 75 30C94.7 30 95 51.6 95 52.5C95 53.9 96.1 55 97.5 55C98.9 55 100 53.9 100 52.5V52.4C100 51.5 100.2 29.9 120 29.9C121.4 29.9 122.5 28.8 122.5 27.4C122.5 26 121.4 24.9 120 24.9C100.3 24.9 100 3.3 100 2.4C100 1.1 98.9 0 97.5 0ZM108.6 27.5C103.5 30.2 99.5 34.7 97.5 40.1C95.5 34.7 91.5 30.2 86.4 27.5C91.5 24.8 95.5 20.3 97.5 14.9C99.6 20.3 103.5 24.8 108.6 27.5Z" fill="#35414D"/>
<path d="M32.5 32.5C32.5 31.1 31.4 30 30 30C28.6 30 27.5 31.1 27.5 32.5C27.5 33.1 27.3 47.5 15 47.5C13.6 47.5 12.5 48.6 12.5 50C12.5 51.4 13.6 52.5 15 52.5C27.3 52.5 27.5 66.9 27.5 67.5C27.5 68.9 28.6 70 30 70C31.4 70 32.5 68.9 32.5 67.5C32.5 66.9 32.7 52.5 45 52.5C46.4 52.5 47.5 51.4 47.5 50C47.5 48.6 46.4 47.5 45 47.5C32.7 47.5 32.5 33.1 32.5 32.5ZM35.9 50C33.4 51.7 31.3 54 30 56.8C28.7 54.1 26.7 51.7 24.1 50C26.6 48.3 28.7 46 30 43.2C31.3 46 33.3 48.3 35.9 50Z" fill="#35414D"/>
<path d="M120 55C120 53.6 118.9 52.5 117.5 52.5C116.1 52.5 115 53.6 115 55V60C115 61.4 116.1 62.5 117.5 62.5C118.9 62.5 120 61.4 120 60V55Z" fill="#35414D"/>
<path d="M117.5 77.5C118.9 77.5 120 76.4 120 75V70C120 68.6 118.9 67.5 117.5 67.5C116.1 67.5 115 68.6 115 70V75C115 76.4 116.1 77.5 117.5 77.5Z" fill="#35414D"/>
<path d="M127.5 67.5C128.9 67.5 130 66.4 130 65C130 63.6 128.9 62.5 127.5 62.5H122.5C121.1 62.5 120 63.6 120 65C120 66.4 121.1 67.5 122.5 67.5H127.5Z" fill="#35414D"/>
<path d="M112.5 62.5H107.5C106.1 62.5 105 63.6 105 65C105 66.4 106.1 67.5 107.5 67.5H112.5C113.9 67.5 115 66.4 115 65C115 63.6 113.9 62.5 112.5 62.5Z" fill="#35414D"/>
<path d="M54.5001 23L58.2001 26.7C59.2001 27.6 60.7001 27.6 61.7001 26.7C62.7001 25.8 62.7001 24.2 61.7001 23.2L58.0001 19.5C57.4001 18.9 56.4001 18.6 55.6001 18.8C54.7001 19 54.0001 19.7 53.8001 20.6C53.6001 21.5 53.8001 22.4 54.5001 23Z" fill="#35414D"/>
<path d="M47.0008 15.5C48.0008 16.4 49.5008 16.4 50.5008 15.5C51.5008 14.5 51.5008 13 50.5008 12L46.8008 8.3C45.8008 7.4 44.3008 7.4 43.3008 8.3C42.3008 9.2 42.3008 10.8 43.3008 11.8L47.0008 15.5Z" fill="#35414D"/>
<path d="M43.1984 26.8C44.1984 27.8 45.7984 27.8 46.6984 26.8L50.3984 23.1C50.9984 22.5 51.2984 21.5 51.0984 20.7C50.8984 19.8 50.1984 19.1 49.2984 18.9C48.3984 18.7 47.4984 18.9 46.8984 19.6L43.1984 23.3C42.2984 24.2 42.2984 25.8 43.1984 26.8Z" fill="#35414D"/>
<path d="M56.2007 16.2C56.9007 16.2 57.5007 15.9 58.0007 15.5L61.7007 11.8C62.3007 11.2 62.6007 10.2 62.4007 9.4C62.2007 8.5 61.5007 7.8 60.6007 7.6C59.7007 7.4 58.8007 7.6 58.2007 8.3L54.5007 12C53.8007 12.7 53.6007 13.8 54.0007 14.7C54.4007 15.6 55.2007 16.2 56.2007 16.2Z" fill="#35414D"/>
</svg>
