<svg width="221" height="100" viewBox="0 0 221 100" fill="none" xmlns="http://www.w3.org/2000/svg">
<path d="M217.099 25.9312C218.909 24.2169 217.861 21.1693 215.48 20.8836L201.004 18.7884C200.052 18.6931 199.194 18.0265 198.718 17.1693L192.242 4.02645C191.194 1.83598 187.956 1.83598 186.909 4.02645L180.433 17.1693C179.956 18.0265 179.194 18.6931 178.147 18.7884L163.671 20.8836C161.194 21.2646 160.242 24.2169 162.052 25.9312L172.528 36.1217C173.194 36.7884 173.575 37.836 173.385 38.7884L170.909 53.1693C170.528 55.6455 173.004 57.455 175.194 56.3122L188.147 49.5503C189.004 49.0741 190.052 49.0741 190.909 49.5503L203.861 56.3122C206.052 57.455 208.623 55.6455 208.147 53.1693L205.671 38.7884C205.48 37.836 205.861 36.8836 206.528 36.1217L217.099 25.9312Z" fill="#FEE55A"/>
<path d="M188.138 43.4153C188.328 42.4629 187.947 41.5106 187.28 40.7487L176.804 30.5582C174.995 28.8439 176.042 25.7963 178.423 25.5106L192.899 23.4153C193.852 23.3201 194.709 22.6534 195.185 21.7963L198.138 15.8915L192.328 4.08199C191.28 1.89152 188.042 1.89152 186.995 4.08199L180.519 17.2248C180.042 18.082 179.28 18.7487 178.233 18.8439L163.757 20.9391C161.28 21.3201 160.328 24.2725 162.138 25.9868L172.614 36.1772C173.28 36.8439 173.661 37.8915 173.471 38.8439L170.995 53.2248C170.614 55.701 173.09 57.5106 175.28 56.3677L186.995 50.1772L188.138 43.4153Z" fill="#FFD301"/>
<path d="M3.34112 25.9312C1.5316 24.2169 2.57921 21.1693 4.96017 20.8836L19.4364 18.7884C20.3887 18.6931 21.2459 18.0265 21.7221 17.1693L28.1983 4.02645C29.2459 1.83598 32.484 1.83598 33.5316 4.02645L40.0078 17.1693C40.484 18.0265 41.2459 18.6931 42.2935 18.7884L56.7697 20.8836C59.2459 21.2646 60.1983 24.2169 58.3887 25.9312L47.9126 36.1217C47.2459 36.7884 46.8649 37.836 47.0554 38.7884L49.5316 53.1693C49.9126 55.6455 47.4364 57.455 45.2459 56.3122L32.2935 49.5503C31.4364 49.0741 30.3887 49.0741 29.5316 49.5503L16.5792 56.3122C14.3887 57.455 11.8173 55.6455 12.2935 53.1693L14.7697 38.7884C14.9602 37.836 14.5792 36.8836 13.9125 36.1217L3.34112 25.9312Z" fill="#FEE55A"/>
<path d="M25.9995 42.1738C26.19 41.2214 25.8091 40.269 25.1424 39.5071L14.6662 29.3167C12.8567 27.6024 13.9043 24.5548 16.2852 24.2691L30.7614 22.1738C31.7138 22.0786 32.571 21.4119 33.0471 20.5548L37.3329 11.7929L33.5233 3.98335C32.4757 1.79287 29.2376 1.79287 28.19 3.98335L21.7138 17.1262C21.2376 17.9833 20.4757 18.65 19.4281 18.7452L4.95191 20.8405C2.47572 21.2214 1.52334 24.1738 3.33286 25.8881L13.8091 36.0786C14.4757 36.7452 14.8567 37.7929 14.6662 38.7452L12.19 53.1262C11.8091 55.6024 14.2852 57.4119 16.4757 56.2691L24.2852 52.1738L25.9995 42.1738Z" fill="#FFD301"/>
<path d="M188.524 36.9145C190.715 34.8192 189.476 31.1049 186.524 30.724L168.715 28.1525C167.572 27.9621 166.524 27.2002 165.953 26.1525L158.048 10.0573C156.714 7.39064 152.81 7.39064 151.476 10.0573L143.572 26.1525C143 27.2002 142.048 27.9621 140.81 28.1525L123 30.724C120.048 31.2002 118.81 34.8192 121 36.9145L133.857 49.4859C134.715 50.343 135.095 51.4859 134.905 52.724L131.857 70.4383C131.381 73.3907 134.524 75.6764 137.191 74.2478L153.095 65.8668C154.143 65.2954 155.476 65.2954 156.524 65.8668L172.429 74.2478C175.095 75.6764 178.238 73.3907 177.762 70.4383L174.715 52.724C174.524 51.5811 174.905 50.343 175.762 49.4859L188.524 36.9145Z" fill="#FEE55A"/>
<path d="M149.551 57.161C149.741 56.0182 149.36 54.7801 148.503 53.923L135.646 41.3515C133.455 39.2563 134.693 35.542 137.646 35.161L155.455 32.5896C156.598 32.3991 157.646 31.6372 158.217 30.5896L163.265 20.3991L158.122 10.0182C156.789 7.35152 152.884 7.35152 151.551 10.0182L143.646 26.1134C143.074 27.161 142.122 27.9229 140.884 28.1134L123.074 30.6849C120.122 31.161 118.884 34.7801 121.074 36.8753L133.932 49.4468C134.789 50.3039 135.17 51.542 134.979 52.6849L131.932 70.3991C131.455 73.3515 134.598 75.6372 137.265 74.2087L147.646 68.7801L149.551 57.161Z" fill="#FFD301"/>
<path d="M31.8205 36.9145C29.6301 34.8192 30.8681 31.1049 33.8205 30.724L51.6301 28.1525C52.7729 27.9621 53.8205 27.2002 54.392 26.1525L62.2967 10.0573C63.6301 7.39064 67.5348 7.39064 68.8682 10.0573L76.7729 26.1525C77.3443 27.2002 78.2967 27.9621 79.5348 28.1525L97.3443 30.724C100.297 31.2002 101.535 34.8192 99.3443 36.9145L86.4872 49.4859C85.6301 50.343 85.2491 51.4859 85.4396 52.724L88.4872 70.4383C88.9634 73.3907 85.8205 75.6764 83.1539 74.2478L67.3443 65.8668C66.2967 65.2954 64.9634 65.2954 63.9158 65.8668L48.011 74.2478C45.3443 75.6764 42.2015 73.3907 42.6777 70.4383L45.7253 52.724C45.9158 51.5811 45.5348 50.343 44.6777 49.4859L31.8205 36.9145Z" fill="#FEE55A"/>
<path d="M61.9314 57.161C62.1219 56.0182 61.7409 54.7801 60.8838 53.923L48.0266 41.3515C45.8362 39.2563 47.0743 35.542 50.0266 35.161L67.8362 32.5896C68.979 32.3991 70.0266 31.6372 70.5981 30.5896L74.7885 22.0182L68.8838 10.0182C67.5504 7.35152 63.6457 7.35152 62.3123 10.0182L54.4076 26.1134C53.8362 27.161 52.8838 27.9229 51.6457 28.1134L33.8362 30.6849C30.8838 31.161 29.6457 34.7801 31.8362 36.8753L44.6933 49.4468C45.5504 50.3039 45.9314 51.542 45.7409 52.6849L42.6933 70.3991C42.2171 73.3515 45.36 75.6372 48.0266 74.2087L60.1219 67.8277L61.9314 57.161Z" fill="#FFD301"/>
<path d="M153.325 49.4131C156.087 46.7465 154.563 41.9846 150.754 41.4131L128.087 38.0798C126.563 37.8893 125.23 36.9369 124.563 35.5084L114.373 14.9369C112.659 11.5084 107.706 11.5084 105.992 14.9369L95.8016 35.5084C95.1349 36.8417 93.8016 37.7941 92.2778 38.0798L69.6111 41.4131C65.8016 41.9846 64.2778 46.6512 67.0397 49.4131L83.5159 65.4131C84.6587 66.4608 85.1349 67.9846 84.8492 69.5084L80.9444 92.0798C80.2778 95.8893 84.2778 98.8417 87.7063 97.0322L107.992 86.3655C109.325 85.6036 110.944 85.6036 112.373 86.3655L132.659 97.0322C136.087 98.8417 140.087 95.8893 139.421 92.0798L135.516 69.5084C135.23 67.9846 135.802 66.4608 136.849 65.4131L153.325 49.4131Z" fill="#FEE55A"/>
<path d="M106.393 75.7218C106.678 74.198 106.107 72.6742 105.059 71.6266L88.583 55.6266C85.8211 52.9599 87.3449 48.198 91.1544 47.6266L113.821 44.2932C115.345 44.1028 116.678 43.1504 117.345 41.7218L122.488 31.4361L114.393 14.9599C112.678 11.5313 107.726 11.5313 106.012 14.9599L95.8211 35.5313C95.1544 36.8647 93.8211 37.817 92.2973 38.1028L69.6306 41.4361C65.8211 42.0075 64.2973 46.6742 67.0592 49.4361L83.5354 65.4361C84.6782 66.4837 85.1544 68.0075 84.8687 69.5313L80.964 92.1028C80.2973 95.9123 84.2973 98.8647 87.7259 97.0551L104.202 88.3885L106.393 75.7218Z" fill="#FFD301"/>
<path d="M174.019 77.0882C173.067 77.0882 172.115 76.8977 171.162 76.4215L155.258 68.0406C154.877 67.8501 154.4 67.8501 154.115 68.0406L138.21 76.4215C137.829 76.612 137.448 76.8025 137.067 76.8977C136.4 77.0882 135.734 76.993 135.162 76.612C134.591 76.2311 134.21 75.6596 134.115 74.993L133.258 69.9453C132.877 67.6596 133.639 65.3739 135.258 63.7549L151.639 47.7549C152.305 47.0882 152.496 46.2311 152.21 45.3739C151.924 44.5168 151.258 43.9453 150.4 43.8501L127.734 40.5168C125.448 40.231 123.448 38.7072 122.4 36.7072L120.115 32.0406C119.829 31.4691 119.829 30.7072 120.019 30.1358C120.21 29.5644 120.781 28.993 121.448 28.8025C121.924 28.612 122.305 28.5168 122.686 28.5168L140.496 25.9453C140.877 25.8501 141.258 25.6596 141.448 25.2787L149.353 9.18343C150.4 7.0882 152.496 5.8501 154.781 5.8501C157.067 5.8501 159.162 7.18343 160.21 9.18343L168.21 25.2787C168.4 25.6596 168.781 25.9453 169.162 25.9453L186.972 28.5168C189.258 28.8025 191.162 30.4215 191.829 32.612C192.591 34.8025 191.924 37.1834 190.305 38.8025L177.448 51.3739C177.162 51.6596 176.972 52.0406 177.067 52.5168L180.115 70.2311C180.496 72.5168 179.543 74.8025 177.734 76.1358C176.496 76.7072 175.258 77.0882 174.019 77.0882ZM154.686 63.0882C155.639 63.0882 156.591 63.2787 157.448 63.7549L173.353 72.1358C174.019 72.5168 174.496 72.1358 174.686 72.0406C174.877 71.9453 175.353 71.4691 175.162 70.8025L172.115 53.0882C171.734 51.0882 172.4 49.0882 173.829 47.7549L186.686 35.1834C187.162 34.7072 187.067 34.1358 186.972 33.8501C186.877 33.5644 186.686 33.0882 185.924 32.993L168.115 30.4215C166.115 30.1358 164.496 28.8977 163.543 27.0882L155.543 10.993C155.258 10.3263 154.686 10.3263 154.4 10.3263C154.115 10.3263 153.543 10.4215 153.258 10.993L145.353 27.0882C144.496 28.8977 142.781 30.1358 140.781 30.4215L125.448 32.612L126.4 34.4215C126.686 35.0882 127.353 35.5644 128.115 35.6596L150.781 38.993C153.448 39.3739 155.639 41.1834 156.496 43.7549C157.353 46.3263 156.686 49.0882 154.686 50.993L138.305 66.993C137.734 67.5644 137.543 68.2311 137.639 68.993L137.924 70.8977L151.639 63.6596C152.781 63.3739 153.734 63.0882 154.686 63.0882Z" fill="#35414D"/>
<path d="M46.3202 77.0546C45.0821 77.0546 43.844 76.6736 42.7964 75.9117C40.8916 74.5784 40.0345 72.2927 40.4154 70.007L43.4631 52.2927C43.5583 51.9117 43.3678 51.4355 43.0821 51.1498L30.225 38.5784C28.6059 36.9593 27.9393 34.5784 28.7012 32.3879C29.4631 30.1974 31.2726 28.5784 33.5583 28.2927L51.3678 25.7212C51.7488 25.626 52.1297 25.4355 52.3202 25.0546L60.3202 8.95934C61.3678 6.8641 63.4631 5.626 65.7488 5.626C68.0345 5.626 70.1297 6.95934 71.1774 8.95934L79.1774 25.0546C79.3678 25.4355 79.7488 25.7212 80.1297 25.7212L97.9393 28.2927C98.3202 28.3879 98.7964 28.4832 99.1774 28.5784C99.844 28.7689 100.32 29.3403 100.606 29.9117C100.892 30.5784 100.796 31.2451 100.511 31.8165L98.225 36.4831C97.1774 38.5784 95.1774 40.007 92.8916 40.2927L70.225 43.626C69.3678 43.7212 68.7012 44.2927 68.4155 45.1498C68.1297 46.007 68.3202 46.8641 68.9869 47.5308L85.4631 63.5308C87.0821 65.1498 87.844 67.4355 87.4631 69.7212L86.6059 74.7689C86.5107 75.4355 86.1297 76.007 85.5583 76.3879C84.9869 76.7689 84.3202 76.8641 83.6536 76.6736C83.1774 76.5784 82.7964 76.3879 82.5107 76.1974L66.225 68.007C65.844 67.8165 65.3678 67.8165 65.0821 68.007L49.1774 76.3879C48.225 76.8641 47.2726 77.0546 46.3202 77.0546ZM65.6536 10.3879C65.4631 10.3879 64.7964 10.4831 64.5107 11.0546L56.5107 27.1498C55.6536 28.9593 53.9393 30.1974 51.9393 30.4832L34.1297 33.0546C33.4631 33.1498 33.1774 33.7212 33.0821 33.9117C32.9869 34.1022 32.8916 34.6736 33.3678 35.2451L46.225 47.8165C47.6535 49.2451 48.3202 51.245 47.9393 53.1498L44.8917 70.8641C44.7964 71.5308 45.1774 72.007 45.3678 72.1022C45.5583 72.1974 46.0345 72.5784 46.7012 72.1974L62.6059 63.8165C64.3202 62.8641 66.4155 62.8641 68.225 63.8165L81.9393 71.0546L82.225 69.1498C82.3202 68.3879 82.1297 67.626 81.5583 67.1498L65.0821 51.1498C63.1774 49.2451 62.5107 46.4831 63.2726 43.9117C64.1297 41.3403 66.3202 39.5308 68.9869 39.1498L91.6535 35.8165C92.4155 35.7212 93.0821 35.245 93.3678 34.5784L94.3202 32.7689L78.9869 30.5784C76.9869 30.2927 75.3678 29.0546 74.4155 27.245L66.4155 11.1498C66.4155 10.3879 65.844 10.3879 65.6536 10.3879Z" fill="#35414D"/>
<path d="M15.0235 59.1125C13.8806 59.1125 12.833 58.7315 11.8806 58.0649C10.2615 56.8268 9.4044 54.8268 9.78536 52.8268L12.2615 38.4458C12.2615 38.2553 12.2615 38.0649 12.0711 37.8744L1.59487 27.6839C0.166302 26.2553 -0.405121 24.1601 0.261546 22.1601C0.928212 20.2553 2.54726 18.8268 4.54726 18.541L19.0234 16.4458C19.2139 16.4458 19.4044 16.2553 19.4996 16.1601L25.9758 3.01723C26.9282 1.20771 28.7377 0.0648575 30.7377 0.0648575C32.7377 0.0648575 34.6425 1.20771 35.4996 3.01723L41.9758 16.1601C42.0711 16.3506 42.2615 16.4458 42.452 16.4458L56.9282 18.541C57.1187 18.541 57.2139 18.6363 57.4044 18.6363C58.0711 18.8268 58.7377 19.3029 59.0235 19.9696C59.3092 20.6363 59.3092 21.3982 59.0235 22.0648L56.452 27.2077C55.5949 29.0172 53.8806 30.2553 51.8806 30.541L34.0711 33.1125C33.4044 33.2077 33.1187 33.7791 33.0234 33.9696C32.9282 34.1601 32.833 34.7315 33.3092 35.303L46.1663 47.8744C47.5949 49.303 48.2615 51.303 47.8806 53.2077L47.2139 56.8268C47.1187 57.5887 46.6425 58.2553 45.8806 58.541C45.2139 58.922 44.3568 58.8268 43.6901 58.541L30.7377 51.7791C30.5473 51.6839 30.3568 51.6839 30.1663 51.7791L17.2139 58.541C16.7377 58.922 15.8806 59.1125 15.0235 59.1125ZM30.833 4.73152C30.6425 4.73152 30.452 4.82676 30.2615 5.01724L23.7854 18.1601C23.0234 19.7791 21.4996 20.8268 19.7854 21.1125L5.30916 23.2077C5.02345 23.2077 4.92821 23.4934 4.83297 23.5887C4.73773 23.6839 4.73774 23.9696 5.02345 24.1601L15.4996 34.3506C16.7377 35.5887 17.3092 37.3982 17.0234 39.1125L14.5473 53.4934C14.452 53.7791 14.6425 53.9696 14.7377 54.0649C14.833 54.1601 15.1187 54.2553 15.4044 54.0649L28.3568 47.3029C29.8806 46.4458 31.7854 46.4458 33.3092 47.3029L43.3092 52.541L43.4044 52.1601C43.4996 51.7791 43.3092 51.303 43.0235 51.0172L30.1663 38.4458C28.5473 36.8268 27.8806 34.4458 28.6425 32.2553C29.4044 30.0649 31.2139 28.4458 33.4996 28.1601L51.3092 25.5887C51.6901 25.4934 52.0711 25.3029 52.2616 24.922L53.4044 22.6363L41.8806 20.922C40.1663 20.6363 38.6425 19.5887 37.8806 17.9696L31.4044 4.82676C31.2139 4.82676 30.9282 4.73152 30.833 4.73152Z" fill="#35414D"/>
<path d="M205.301 59.1274C204.444 59.1274 203.586 58.9369 202.825 58.4608L189.872 51.6988C189.682 51.6036 189.491 51.6036 189.301 51.6988L176.348 58.4608C175.682 58.8417 174.825 58.8417 174.158 58.4608C173.491 58.0798 173.015 57.5084 172.825 56.7465L172.158 53.1274C171.777 51.1274 172.444 49.1274 173.872 47.7941L186.729 35.2227C187.206 34.7465 187.11 34.175 187.015 33.8893C186.92 33.6036 186.729 33.1274 185.967 33.0322L168.158 30.4608C166.158 30.175 164.539 28.9369 163.587 27.1274L161.015 21.9846C160.729 21.3179 160.729 20.556 161.015 19.8893C161.301 19.2227 161.872 18.7465 162.634 18.556C162.825 18.556 162.92 18.4608 163.11 18.4608L177.586 16.3655C177.777 16.3655 177.967 16.175 178.063 16.0798L184.539 2.93695C185.491 1.12743 187.301 -0.0154343 189.301 -0.0154343C191.396 -0.0154343 193.206 1.12743 194.063 2.93695L200.539 16.0798C200.634 16.2703 200.825 16.3655 201.015 16.3655L215.491 18.4608C217.491 18.7465 219.206 20.175 219.777 22.0798C220.348 23.9845 219.872 26.175 218.444 27.6036L213.11 32.8417C212.158 33.7941 210.634 33.6989 209.777 32.8417C208.825 31.8893 208.92 30.3655 209.777 29.5084L215.11 24.2703C215.301 24.0798 215.301 23.7941 215.301 23.6988C215.206 23.5084 215.11 23.3179 214.825 23.3179L200.348 21.2226C198.634 20.9369 197.11 19.8893 196.348 18.2703L189.872 5.12742C189.777 4.8417 189.491 4.84171 189.301 4.84171C189.11 4.84171 188.92 4.93694 188.729 5.12742L182.253 18.2703C181.491 19.8893 179.967 20.9369 178.253 21.2226L166.729 22.937L167.872 25.2227C168.063 25.6036 168.444 25.8893 168.825 25.8893L186.634 28.4608C188.92 28.7465 190.825 30.3655 191.491 32.556C192.253 34.7465 191.586 37.1274 189.967 38.7465L177.11 51.3179C176.825 51.6036 176.634 51.9846 176.729 52.4607L176.825 52.8417L186.825 47.6036C188.348 46.7465 190.253 46.7465 191.777 47.6036L204.729 54.3655C205.015 54.4607 205.206 54.4607 205.396 54.3655C205.587 54.2703 205.682 54.0798 205.586 53.7941L204.253 46.2703C204.063 44.9369 204.92 43.6988 206.158 43.5084C207.491 43.3179 208.729 44.175 208.92 45.4131L210.253 52.9369C210.634 54.9369 209.777 56.9369 208.158 58.175C207.491 58.7465 206.348 59.1274 205.301 59.1274Z" fill="#35414D"/>
<path d="M85.5257 100.013C84.0972 100.013 82.6686 99.5369 81.4305 98.6797C79.24 97.0607 78.1924 94.4892 78.6686 91.8226L82.5733 69.2511C82.6686 68.4892 82.4781 67.7273 81.9067 67.2511L65.4305 51.2511C63.5257 49.3464 62.8591 46.5845 63.621 44.013C64.4781 41.4416 66.6686 39.6321 69.3353 39.2511L92.0019 35.9178C92.7638 35.8226 93.4305 35.3464 93.7162 34.6797L103.907 14.1083C105.145 11.7273 107.526 10.2035 110.192 10.2035C112.859 10.2035 115.335 11.7273 116.478 14.1083L126.669 34.6797C126.954 35.3464 127.621 35.8226 128.383 35.9178L151.05 39.2511C153.716 39.6321 155.907 41.4416 156.764 44.013C157.621 46.5845 156.954 49.3464 154.954 51.2511L138.573 67.1559C138.002 67.7273 137.811 68.394 137.907 69.1559L141.811 91.7273C142.288 94.394 141.24 97.0607 139.05 98.5845C136.859 100.204 134.002 100.394 131.621 99.1559L116.764 91.3464C115.621 90.775 115.145 89.2511 115.811 88.1083C116.383 86.9654 117.907 86.4892 119.05 87.1559L133.907 94.9654C134.669 95.3464 135.621 95.3464 136.288 94.775C137.05 94.2988 137.335 93.4416 137.24 92.5845L133.335 70.0131C132.954 67.7273 133.716 65.4416 135.335 63.8226L151.716 47.8226C152.383 47.1559 152.573 46.2988 152.288 45.4416C152.002 44.5845 151.335 44.013 150.478 43.9178L127.811 40.5845C125.526 40.2988 123.526 38.775 122.478 36.775L112.288 16.2035C111.907 15.4416 111.145 14.9654 110.288 14.9654C109.431 14.9654 108.669 15.4416 108.288 16.2035L98.0972 36.775C97.0495 38.8702 95.0495 40.2988 92.7638 40.5845L70.0972 43.9178C69.24 44.013 68.5734 44.5845 68.2876 45.4416C68.0019 46.2988 68.1924 47.1559 68.8591 47.8226L85.3353 63.8226C86.9543 65.4416 87.7162 67.7273 87.3353 70.0131L83.4305 92.5845C83.24 93.4416 83.621 94.2988 84.3829 94.775C85.1448 95.2511 86.0019 95.3464 86.7638 94.9654L101.43 87.1559C102.573 86.5845 104.002 86.9654 104.669 88.1083C105.24 89.2511 104.859 90.6797 103.716 91.3464L88.8591 99.1559C87.7162 99.7273 86.6686 100.013 85.5257 100.013Z" fill="#35414D"/>
</svg>
