<svg width="140" height="150" viewBox="0 0 140 150" fill="none" xmlns="http://www.w3.org/2000/svg">
<path d="M102.497 65V87.5C102.497 105 102.497 107.5 97.4972 115C94.7972 119.1 92.4972 122.5 92.4972 127.5H52.4972C52.4972 117.5 49.2972 115 43.7972 110.7C41.9972 109.4 40.2972 107.9 38.6972 106.3C36.2972 104 34.8972 100.7 34.9972 97.4V75.3C34.9972 70.3 37.8972 65.8 42.4972 63.9C42.7972 63.8 43.0972 63.6 43.3972 63.6C47.9972 62 52.6972 60.9 57.4972 60.4C60.0972 60.1 62.7972 60 65.4972 60.2C69.0972 60.4 72.0972 63.2 72.4972 66.8C72.4972 67.1 72.4972 67.3 72.4972 67.6V67.7C72.4972 71.8 75.8972 75.2 79.9972 75.2C84.0972 75.2 87.4972 71.8 87.4972 67.7V65C87.4972 69.1 90.8972 72.5 94.9972 72.5C99.0972 72.5 102.497 69.1 102.497 65Z" fill="#FFE0B2"/>
<path d="M95 72.5V87.5C95 105 95 107.5 90 115C87.3 119.1 85 122.5 85 127.5H92.5C92.5 122.5 94.8 119.1 97.5 115C102.5 107.5 102.5 105 102.5 87.5V65C102.5 69.1 99.1 72.5 95 72.5Z" fill="#DFC49C"/>
<path d="M57.5 50V60.3C52.7 60.8 47.9 61.9 43.4 63.5C43.1 63.6 42.8 63.7 42.5 63.8V50C42.5 45.9 45.9 42.5 50 42.5C54.1 42.5 57.5 45.9 57.5 50Z" fill="#FFE0B2"/>
<path d="M57.4992 50V60.3C56.6992 60.4 55.7992 60.5 54.9992 60.6C53.2992 60.8 51.6992 61.2 49.9992 61.6V50C49.9992 48 49.1992 46.1 47.7992 44.7C47.2992 44.3 46.7992 43.9 46.1992 43.6C47.2992 42.9 48.5992 42.6 49.9992 42.6C54.0992 42.5 57.4992 45.9 57.4992 50Z" fill="#DFC49C"/>
<path d="M87.5 50V67.5C87.5 71.6 84.2 75 80 75C75.9 75 72.5 71.7 72.5 67.5V50C72.5 45.9 75.9 42.5 80 42.5C84.1 42.5 87.5 45.9 87.5 50Z" fill="#FFE0B2"/>
<path d="M85.2992 44.7C82.8992 42.3 79.1992 41.8 76.1992 43.5C76.7992 43.8 77.2992 44.2 77.7992 44.7C79.1992 46.1 79.9992 48 79.9992 50V67.5C79.9992 70.2 78.5992 72.6 76.1992 74C79.6992 76.1 84.2992 74.9 86.3992 71.4C87.0992 70.2 87.3992 68.9 87.3992 67.6V50C87.4992 48 86.6992 46.1 85.2992 44.7Z" fill="#DFC49C"/>
<path d="M102.5 52.5V65C102.5 69.1 99.1 72.5 95 72.5C90.9 72.5 87.5 69.1 87.5 65V52.5C87.5 48.4 90.9 45 95 45C99.1 45 102.5 48.4 102.5 52.5Z" fill="#FFE0B2"/>
<path d="M100.299 47.2C97.8992 44.8 94.1992 44.3 91.1992 46C91.7992 46.3 92.2992 46.7 92.7992 47.2C94.1992 48.6 94.9992 50.5 94.9992 52.5V65C94.9992 67.7 93.5992 70.1 91.1992 71.5C94.6992 73.6 99.2992 72.4 101.399 68.9C102.099 67.7 102.399 66.4 102.399 65.1V52.5C102.499 50.5 101.699 48.6 100.299 47.2Z" fill="#DFC49C"/>
<path d="M72.5 47.5V67.5C72.5 67.2 72.5 67 72.5 66.7C72.1 63.1 69.1 60.3 65.5 60.1C62.8 59.9 60.2 60 57.5 60.3V47.5C57.5 43.4 60.9 40 65 40C69.1 40 72.5 43.4 72.5 47.5Z" fill="#FFE0B2"/>
<path d="M70.2992 42.2C67.8992 39.8 64.1992 39.3 61.1992 41C61.7992 41.3 62.2992 41.7 62.7992 42.2C64.1992 43.6 64.9992 45.5 64.9992 47.5V60.1H65.4992C69.0992 60.3 72.0992 63.1 72.4992 66.7C72.4992 67 72.4992 67.2 72.4992 67.5V47.5C72.4992 45.5 71.6992 43.6 70.2992 42.2Z" fill="#DFC49C"/>
<path d="M71.8 3.7L74.6 9.6L80.8 10.5C81.9 10.7 82.7 11.8 82.5 12.9C82.4 13.3 82.2 13.7 81.9 14L77.4 18.6L78.5 25.1C78.7 26.2 78 27.2 76.9 27.5C76.4 27.6 76 27.5 75.6 27.3L70.1 24.3L64.6 27.3C63.6 27.8 62.4 27.4 61.9 26.4C61.7 26 61.6 25.5 61.7 25.1L62.8 18.6L58.1 14C57.3 13.2 57.3 11.8 58.1 11C58.4 10.7 58.8 10.5 59.2 10.4L65.4 9.5L68.2 3.6C68.7 2.6 69.8 2.2 70.8 2.6C71.3 2.9 71.6 3.2 71.8 3.7Z" fill="#FFDF00"/>
<path d="M80.7969 10.5L74.5969 9.6L71.7969 3.7C71.2969 2.7 70.1969 2.3 69.1969 2.7C68.7969 2.9 68.3969 3.2 68.1969 3.7L66.2969 7.8L67.0969 9.5L73.2969 10.4C74.3969 10.6 75.1969 11.7 74.9969 12.8C74.8969 13.2 74.6969 13.6 74.3969 13.9L69.8969 18.5L70.8969 24.6L75.5969 27.2C76.5969 27.7 77.7969 27.4 78.2969 26.4C78.4969 26 78.5969 25.5 78.4969 25.1L77.3969 18.6L81.8969 14C82.6969 13.2 82.6969 11.9 81.8969 11C81.5969 10.7 81.1969 10.5 80.7969 10.5Z" fill="#FEC108"/>
<path d="M3.69859 58.2L9.59859 55.4L10.4986 49.2C10.6986 48.1 11.7986 47.3 12.8986 47.5C13.2986 47.6 13.6986 47.8 13.9986 48.1L18.5986 52.6L25.0986 51.5C26.1986 51.3 27.1986 52 27.4986 53.1C27.5986 53.6 27.4986 54 27.2986 54.4L24.2986 59.9L27.2986 65.4C27.7986 66.4 27.3986 67.6 26.3986 68.1C25.9986 68.3 25.4986 68.4 25.0986 68.3L18.5986 67.2L13.9986 71.9C13.1986 72.7 11.7986 72.7 10.9986 71.9C10.6986 71.6 10.4986 71.2 10.3986 70.8L9.49859 64.6L3.59859 61.8C2.59859 61.3 2.19859 60.2 2.59859 59.2C2.89859 58.8 3.19859 58.4 3.69859 58.2Z" fill="#FFDF00"/>
<path d="M24.1969 60L27.1969 54.5C27.6969 53.5 27.3969 52.3 26.3969 51.8C25.9969 51.6 25.4969 51.5 25.0969 51.6L19.6969 52.5C20.0969 53.1 20.0969 53.9 19.7969 54.5L16.7969 60L19.7969 65.5C20.1969 66.1 20.0969 66.9 19.6969 67.5L25.0969 68.4C26.1969 68.6 27.2969 67.9 27.4969 66.8C27.5969 66.3 27.4969 65.9 27.2969 65.5L24.1969 60Z" fill="#FEC108"/>
<path d="M11.0977 67.4L10.0977 68.4L10.4977 70.8C10.6977 71.9 11.7977 72.7 12.8977 72.5C13.2977 72.4 13.6977 72.2 13.9977 71.9L17.4977 68.5L11.0977 67.4Z" fill="#FEC108"/>
<path d="M41.3 28.5L35.2 30.3L33.4 36.3C33.1 37.4 31.9 38 30.9 37.6C30.5 37.5 30.1 37.2 29.8 36.8L26 31.5L19.6 31.4C18.4 31.4 17.5 30.5 17.5 29.3C17.5 28.9 17.6 28.4 17.9 28.1L21.6 23.1L19.4 17C19 16 19.5 14.8 20.5 14.5C20.9 14.3 21.4 14.3 21.9 14.5L28 16.7L33.1 13C34 12.3 35.3 12.6 36 13.5C36.2 13.9 36.4 14.3 36.4 14.7V21.2L41.7 25C42.6 25.6 42.9 26.9 42.2 27.8C42.1 28.1 41.7 28.3 41.3 28.5Z" fill="#FFDF00"/>
<path d="M41.3 28.5L35.2 30.3L33.4 36.3C33.1 37.4 31.9 38 30.9 37.6C30.5 37.5 30.1 37.2 29.8 36.8L26 31.5L19.6 31.4C18.4 31.4 17.5 30.5 17.5 29.3C17.5 28.9 17.6 28.4 17.9 28.1L21.6 23.1L19.4 17C19 16 19.5 14.8 20.5 14.5C20.9 14.3 21.4 14.3 21.9 14.5L28 16.7L33.1 13C34 12.3 35.3 12.6 36 13.5C36.2 13.9 36.4 14.3 36.4 14.7V21.2L41.7 25C42.6 25.6 42.9 26.9 42.2 27.8C42.1 28.1 41.7 28.3 41.3 28.5Z" fill="#FFDF00"/>
<path d="M41.8 24.9L36.5 21.1V14.7C36.5 13.5 35.6 12.6 34.4 12.6C34 12.6 33.6 12.7 33.2 13L28.9 16V21L34.3 24.8C35.2 25.4 35.5 26.7 34.8 27.6C34.5 28 34.2 28.3 33.7 28.4L27.6 30.2L27 32.8L29.9 36.8C30.5 37.7 31.8 38 32.7 37.3C33.1 37 33.4 36.7 33.5 36.2L35.3 30.2L41.4 28.4C42.5 28.1 43.1 26.9 42.7 25.9C42.5 25.5 42.2 25.1 41.8 24.9Z" fill="#FEC108"/>
<path d="M136.3 58.2L130.4 55.4L129.5 49.2C129.3 48.1 128.2 47.3 127.1 47.5C126.7 47.6 126.3 47.8 126 48.1L121.4 52.6L114.9 51.5C113.8 51.3 112.8 52 112.5 53.1C112.4 53.6 112.5 54 112.7 54.4L115.7 59.9L112.7 65.4C112.2 66.4 112.6 67.6 113.6 68.1C114 68.3 114.5 68.4 114.9 68.3L121.4 67.2L126 71.7C126.8 72.5 128.2 72.5 129 71.7C129.3 71.4 129.5 71 129.6 70.6L130.5 64.4L136.4 61.6C137.4 61.1 137.8 60 137.4 59C137.1 58.7 136.8 58.4 136.3 58.2Z" fill="#FFDF00"/>
<path d="M136.298 58.2L130.398 55.4L129.498 49.2C129.298 48.1 128.198 47.3 127.098 47.5C126.698 47.6 126.298 47.8 125.998 48.1L122.398 51.6L122.998 55.4L128.898 58.2C129.898 58.7 130.298 59.8 129.898 60.8C129.698 61.2 129.398 61.6 128.898 61.8L122.998 64.6L122.398 68.4L125.998 71.9C126.798 72.7 128.198 72.7 128.998 71.9C129.298 71.6 129.498 71.2 129.598 70.8L130.498 64.6L136.398 61.8C137.398 61.3 137.798 60.2 137.398 59.2C137.098 58.8 136.798 58.4 136.298 58.2Z" fill="#FEC108"/>
<path d="M98.6985 28.5L104.798 30.3L106.598 36.4C106.898 37.5 108.098 38.1 109.098 37.7C109.498 37.6 109.898 37.3 110.198 36.9L113.998 31.6L120.398 31.5C121.598 31.5 122.498 30.6 122.498 29.4C122.498 29 122.398 28.5 122.098 28.2L118.398 23.1L120.598 17C120.998 16 120.498 14.8 119.498 14.5C119.098 14.3 118.598 14.3 118.098 14.5L111.998 16.7L106.998 13C106.098 12.3 104.798 12.6 104.098 13.5C103.898 13.9 103.698 14.3 103.698 14.7V21.2L98.3985 25C97.4985 25.6 97.1985 26.9 97.8985 27.8C97.8985 28.1 98.2985 28.3 98.6985 28.5Z" fill="#FFDF00"/>
<path d="M122.098 28.1L118.398 23.1L120.598 17C120.998 16 120.498 14.8 119.498 14.5C119.098 14.3 118.598 14.3 118.098 14.5L113.198 16.2C113.198 16.5 113.198 16.7 113.098 17L110.898 23.1L114.598 28.2C115.298 29.1 115.098 30.4 114.098 31.1C113.698 31.4 113.298 31.5 112.898 31.5L106.498 31.6L105.598 32.9L106.598 36.4C106.898 37.5 108.098 38.1 109.098 37.7C109.498 37.6 109.898 37.3 110.198 36.9L113.998 31.6L120.398 31.5C121.598 31.5 122.498 30.6 122.498 29.4C122.498 28.9 122.398 28.5 122.098 28.1Z" fill="#FEC108"/>
<path d="M52.5 127.5H92.5C93.9 127.5 95 128.6 95 130V145C95 146.4 93.9 147.5 92.5 147.5H52.5C51.1 147.5 50 146.4 50 145V130C50 128.6 51.1 127.5 52.5 127.5Z" fill="#02A9F4"/>
<path d="M92.5 127.5H85C86.4 127.5 87.5 128.6 87.5 130V145C87.5 146.4 86.4 147.5 85 147.5H92.5C93.9 147.5 95 146.4 95 145V130C95 128.6 93.9 127.5 92.5 127.5Z" fill="#0377BC"/>
<path d="M40 50V62.4C35.4 65.1 32.5 70 32.5 75.4V97.6C32.5 101.6 34.1 105.5 37 108.3C38.6 110 40.4 111.5 42.3 112.8C47.2 116.6 49.7 118.5 50 125.8C48.5 126.7 47.5 128.3 47.5 130.1V145.1C47.5 147.9 49.7 150.1 52.5 150.1H92.5C95.3 150.1 97.5 147.9 97.5 145.1V130.1C97.5 128.4 96.6 126.8 95.1 125.9C95.8 122.5 97.4 119.3 99.6 116.5C105 108.4 105 105.2 105 87.6V52.6C105 47.1 100.5 42.6 95 42.6C92.6 42.6 90.4 43.5 88.6 45C85.9 40.3 79.8 38.7 75.1 41.4C74.6 41.7 74.1 42.1 73.6 42.5C73.2 41.8 72.7 41.1 72.1 40.5C68.2 36.6 61.9 36.6 58 40.5C57.4 41.1 56.9 41.8 56.4 42.5C54.6 40.9 52.4 40 50 40C44.5 40 40 44.5 40 50ZM52.5 145V130H92.5V145H52.5ZM95.4 113.6C92.8 116.9 91 120.8 90.2 125H54.9C54.3 115.8 50.5 112.8 45.2 108.7C43.5 107.5 41.9 106.1 40.5 104.6C38.6 102.7 37.5 100.1 37.5 97.4V75.3C37.5 71.1 40.2 67.3 44.2 65.8C51 63.3 58.1 62.2 65.3 62.5C68.1 62.6 70.2 64.9 70.1 67.7C70 70.2 68.1 72.2 65.7 72.5C60.9 72.6 56.1 73.6 51.8 75.7C49.2 76.9 47.5 79.6 47.5 82.5V92.5C47.5 93.9 48.6 95 50 95C51.4 95 52.5 93.9 52.5 92.5V82.5C52.5 81.5 53.1 80.7 53.9 80.2C57.7 78.4 61.9 77.5 66.1 77.5C68.6 77.2 70.9 76 72.5 74.1C76.1 78.2 82.3 78.7 86.5 75.1C87.3 74.4 88 73.6 88.6 72.6C91.8 75.4 96.4 75.8 100 73.6V87.5C100 104.9 100 106.7 95.4 113.6ZM95 47.5C97.8 47.5 100 49.7 100 52.5V65C100 67.8 97.8 70 95 70C92.2 70 90 67.8 90 65V52.5C90 49.7 92.2 47.5 95 47.5ZM80 45C82.8 45 85 47.2 85 50V67.5C85 70.3 82.8 72.5 80 72.5C77.2 72.5 75 70.3 75 67.5V50C75 47.2 77.2 45 80 45ZM60 47.5C60 44.7 62.2 42.5 65 42.5C67.8 42.5 70 44.7 70 47.5V59C68.7 58.2 67.2 57.7 65.6 57.6C63.7 57.5 61.8 57.5 60 57.6V47.5ZM50 45C52.8 45 55 47.2 55 50V58.1C51.6 58.6 48.3 59.3 45 60.3V50C45 47.2 47.2 45 50 45Z" fill="#35414D"/>
<path d="M59.9011 19.4L59.0011 24.6C58.7011 26.3 59.4011 28.1 60.9011 29.1C62.3011 30.1 64.1011 30.2 65.6011 29.4L69.9011 27L74.2011 29.4C75.7011 30.2 77.5011 30.1 78.9011 29.1C80.3011 28.1 81.1011 26.3 80.8011 24.6L79.9011 19.4L83.5011 15.7C84.7011 14.5 85.1011 12.6 84.6011 11C84.1011 9.4 82.7011 8.2 81.0011 7.9L76.1011 7.1L73.9011 2.4C73.3011 1 71.7011 0 70.0011 0C68.3011 0 66.7011 1 65.9011 2.6L63.7011 7.3L58.9011 8C57.2011 8.3 55.8011 9.4 55.3011 11.1C54.7011 12.7 55.2011 14.6 56.4011 15.8L59.9011 19.4ZM65.8011 12C66.6011 11.9 67.3011 11.3 67.7011 10.6L70.0011 5.7L72.3011 10.6C72.7011 11.4 73.4011 11.9 74.2011 12L79.6011 12.8L75.6011 16.8C75.0011 17.4 74.8011 18.2 74.9011 19L75.8011 24.6L71.2011 22C70.5011 21.6 69.5011 21.6 68.8011 22L64.2011 24.5L65.1011 18.9C65.2011 18.1 65.0011 17.3 64.4011 16.7L60.4011 12.7L65.8011 12Z" fill="#35414D"/>
<path d="M2.60026 64.1L7.30026 66.3L8.00026 71.1C8.30026 72.8 9.40026 74.2 11.1003 74.7C12.7003 75.3 14.6003 74.8 15.8003 73.6L19.5003 70L24.7003 70.9C26.4003 71.2 28.2003 70.5 29.2003 69C30.2003 67.6 30.3003 65.8 29.5003 64.3L27.1003 60L29.5003 55.7C30.3003 54.2 30.2003 52.4 29.2003 51C28.2003 49.6 26.4003 48.8 24.7003 49.1L19.5003 50L15.8003 46.4C14.6003 45.2 12.7003 44.8 11.1003 45.3C9.50026 45.8 8.30026 47.2 8.00026 48.9L7.20026 53.8L2.60026 56C0.400262 57 -0.599737 59.7 0.400263 61.9C0.900263 62.9 1.60026 63.6 2.60026 64.1ZM10.6003 57.7C11.4003 57.3 11.9003 56.6 12.0003 55.8L12.8003 50.4L16.8003 54.4C17.4003 55 18.2003 55.2 19.0003 55.1L24.6003 54.2L22.0003 58.8C21.6003 59.5 21.6003 60.5 22.0003 61.2L24.5003 65.8L19.0003 64.9C18.2003 64.8 17.4003 65 16.8003 65.6L12.8003 69.6L12.0003 64.2C11.9003 63.4 11.3003 62.7 10.6003 62.3L5.70026 60L10.6003 57.7Z" fill="#35414D"/>
<path d="M19.5995 33.9L24.7995 34L27.8995 38.3C28.7995 39.5 30.0995 40.2 31.5995 40.2C31.8995 40.2 32.0995 40.2 32.3995 40.1C34.0995 39.8 35.3995 38.6 35.8995 37L37.2995 32.3L42.0995 30.9C43.6995 30.4 44.9995 29 45.1995 27.4C45.4995 25.7 44.7995 23.9 43.2995 22.9L38.9995 19.8V14.6C38.9995 12.9 37.9995 11.3 36.3995 10.5C34.8995 9.7 33.0995 9.9 31.6995 10.9L27.6995 13.8L22.7995 12.1C21.1995 11.5 19.2995 11.9 18.0995 13.1C16.8995 14.3 16.3995 16.2 17.0995 17.8L18.7995 22.6L15.8995 26.6C14.3995 28.6 14.8995 31.5 16.8995 33C17.6995 33.6 18.5995 33.9 19.5995 33.9ZM23.5995 24.6C24.0995 23.9 24.1995 23.1 23.8995 22.3L22.0995 17.2L27.1995 19C27.9995 19.3 28.8995 19.2 29.4995 18.7L33.8995 15.5V21.2C33.8995 22 34.2995 22.7 34.8995 23.2L39.4995 26.5L34.3995 28C33.5995 28.2 32.8995 28.9 32.6995 29.7L31.1995 34.8L28.0995 30C27.5995 29.4 26.8995 29 26.0995 29L20.4995 28.9L23.5995 24.6Z" fill="#35414D"/>
<path d="M120.6 49.9L115.4 49C113.7 48.7 111.9 49.4 110.9 50.9C109.9 52.3 109.8 54.1 110.6 55.6L113 59.9L110.6 64.2C109.8 65.7 109.9 67.6 110.9 69C111.9 70.4 113.7 71.2 115.4 70.9L120.6 70L124.3 73.6C125.2 74.4 126.3 74.9 127.5 74.9C128 74.9 128.5 74.8 129 74.7C130.6 74.2 131.8 72.8 132.1 71.1L132.9 66.2L137.6 64C139.8 63 140.8 60.3 139.8 58.1C139.4 57.1 138.6 56.4 137.6 55.9L132.9 53.7L132.1 48.8C131.8 47.1 130.7 45.7 129 45.2C127.4 44.6 125.5 45.1 124.3 46.3L120.6 49.9ZM128 55.8C128.1 56.6 128.7 57.3 129.4 57.7L134.3 60L129.4 62.3C128.6 62.7 128.1 63.4 128 64.2L127.2 69.6L123.2 65.6C122.7 65.1 122.1 64.9 121.4 64.9C121.3 64.9 121.1 64.9 121 64.9L115.4 65.8L117.9 61.2C118.3 60.5 118.3 59.5 117.9 58.8L115.4 54.2L121 55.1C121.8 55.2 122.6 55 123.2 54.4L127.2 50.4L128 55.8Z" fill="#35414D"/>
<path d="M97.9994 30.9L102.799 32.3L104.199 37C104.699 38.6 105.999 39.9 107.699 40.2C107.999 40.2 108.199 40.3 108.499 40.3C109.999 40.3 111.399 39.6 112.199 38.4L115.299 34.1L120.399 34C122.099 34 123.699 33 124.499 31.5C125.299 30 125.099 28.1 124.099 26.8L121.199 22.8L122.899 17.9C123.799 15.6 122.599 13 120.199 12.2C119.199 11.8 118.099 11.8 117.099 12.2L112.199 14L108.199 11.1C106.799 10.1 104.999 9.9 103.499 10.7C101.899 11.5 100.899 13.1 100.899 14.8V20L96.5994 23.1C95.1994 24.1 94.3994 25.9 94.6994 27.6C95.0994 29 96.3994 30.4 97.9994 30.9ZM104.999 23.1C105.699 22.6 105.999 21.9 105.999 21.1V15.4L110.399 18.6C111.099 19.1 111.899 19.2 112.699 18.9L117.799 17.1L115.999 22.2C115.699 23 115.799 23.8 116.299 24.5L119.499 28.9L113.999 29C113.199 29 112.499 29.4 111.999 30L108.699 34.6L107.199 29.5C106.999 28.7 106.299 28 105.499 27.8L100.399 26.3L104.999 23.1Z" fill="#35414D"/>
</svg>
