<svg width="125" height="22" viewBox="0 0 125 22" fill="none" xmlns="http://www.w3.org/2000/svg">
<path d="M19 22.0732H3C1.3 22.0732 0 20.7732 0 19.0732V3.07324C0 1.37324 1.3 0.0732422 3 0.0732422H19C20.7 0.0732422 22 1.37324 22 3.07324V19.0732C22 20.7732 20.6 22.0732 19 22.0732Z" fill="#008E5B"/>
<path d="M13.9008 12.7733L18.7008 9.37325H12.8008L11.0008 3.77325L10.3008 5.87325L9.20078 9.37325H3.30078L8.10078 12.7733L6.30078 18.3733V18.2733V18.3733L11.0008 14.9733L15.7008 18.3733H15.8008L13.9008 12.7733Z" fill="white"/>
<path d="M44.6016 22.0732H28.6016C26.9016 22.0732 25.6016 20.7732 25.6016 19.0732V3.07324C25.6016 1.37324 26.9016 0.0732422 28.6016 0.0732422H44.6016C46.3016 0.0732422 47.6016 1.37324 47.6016 3.07324V19.0732C47.6016 20.6732 46.2016 22.0732 44.6016 22.0732Z" fill="#008E5B"/>
<path d="M39.5023 12.7733L44.3023 9.37325H38.4023L36.6023 3.77325L35.9023 5.87325L34.8023 9.37325H34.7023H28.9023L33.6023 12.7733L31.8023 18.3733L31.9023 18.2733V18.3733L36.6023 14.8733L41.3023 18.3733L39.5023 12.7733Z" fill="white"/>
<path d="M70.1016 22.0732H54.1016C52.4016 22.0732 51.1016 20.7732 51.1016 19.0732V3.07324C51.1016 1.37324 52.4016 0.0732422 54.1016 0.0732422H70.1016C71.8016 0.0732422 73.1016 1.37324 73.1016 3.07324V19.0732C73.1016 20.6732 71.8016 22.0732 70.1016 22.0732Z" fill="#008E5B"/>
<path d="M65.1023 12.7733L69.8023 9.37325H63.9023H64.0023L62.1023 3.77325L61.5023 5.87325L60.3023 9.37325H54.5023H54.4023L59.2023 12.7733L57.4023 18.3733V18.2733V18.3733L62.1023 14.8733L66.9023 18.3733L65.1023 12.7733Z" fill="white"/>
<path d="M95.6992 22.0732H79.6992C77.9992 22.0732 76.6992 20.7732 76.6992 19.0732V3.07324C76.6992 1.37324 77.9992 0.0732422 79.6992 0.0732422H95.6992C97.3992 0.0732422 98.6992 1.37324 98.6992 3.07324V19.0732C98.6992 20.6732 97.3992 22.0732 95.6992 22.0732Z" fill="#008E5B"/>
<path d="M90.6 12.7733H90.7L95.4 9.37325H89.5L87.7 3.77325L87 5.87325L85.9 9.37325H80H80.1H80L84.8 12.7733L83 18.3733V18.2733V18.3733L87.7 14.8733L92.4 18.3733H92.5L90.6 12.7733Z" fill="white"/>
<path d="M121.301 22.0732H105.301C103.601 22.0732 102.301 20.7732 102.301 19.0732V3.07324C102.301 1.37324 103.601 0.0732422 105.301 0.0732422H121.301C123.001 0.0732422 124.301 1.37324 124.301 3.07324V19.0732C124.301 20.6732 122.901 22.0732 121.301 22.0732Z" fill="#008E5B"/>
<path d="M116.202 12.7733L121.002 9.37325H115.102L113.302 3.77325L112.602 5.87325L111.502 9.37325H111.402H105.602L110.302 12.7733L108.502 18.3733L108.602 18.2733V18.3733L113.302 14.8733L118.002 18.3733L116.202 12.7733Z" fill="white"/>
</svg>
