<svg width="56" height="57" viewBox="0 0 56 57" fill="none" xmlns="http://www.w3.org/2000/svg">
<mask id="mask0_683_3237" style="mask-type:alpha" maskUnits="userSpaceOnUse" x="0" y="0" width="56" height="57">
<rect y="0.5" width="56" height="56" fill="#D9D9D9"/>
</mask>
<g mask="url(#mask0_683_3237)">
</g>
<g clip-path="url(#clip0_683_3237)">
<path d="M27.5001 8.61C17.1501 8.61 8.69007 16.44 7.70007 26.52L12.9201 26.25C14.0001 19.23 20.1201 13.83 27.5001 13.83V15.81L32.5401 11.67L27.5001 6.81V8.61Z" fill="#FFE27A"/>
<path d="M27.5001 15.81L31.2801 12.75C30.0201 12.39 28.7601 12.21 27.5001 12.21C19.5801 12.21 13.1901 18.42 12.8301 26.25H13.0101C14.0901 19.23 20.2101 13.83 27.5901 13.83V15.81H27.5001Z" fill="#F9CF58"/>
<path d="M7.61006 28.5C7.61006 38.85 15.4401 47.31 25.5201 48.3L25.2501 43.08C18.2301 42 12.8301 35.88 12.8301 28.59H14.8101L10.6701 23.55L5.81006 28.5H7.61006Z" fill="#8BCAFF"/>
<path d="M27.5 43.17C34.88 43.17 41 37.77 42.08 30.75L47.39 30.39C46.4 40.47 37.94 48.3 27.59 48.3V50.1L22.55 45.24L27.59 41.1L27.5 43.17Z" fill="#98DB7C"/>
<path d="M27.5 46.86C26.15 46.86 24.8 46.68 23.54 46.5L27.41 50.28V48.48C37.76 48.48 46.22 40.65 47.21 30.57L46.94 30.84C45.23 39.93 37.22 46.86 27.5 46.86Z" fill="#82D361"/>
<path d="M23.5401 46.41C14.9901 44.7 8.42011 37.41 7.70011 28.5H7.61011C7.61011 38.85 15.4401 47.31 25.5201 48.3L23.5401 46.41Z" fill="#6CC4FF"/>
<path d="M47.3901 28.5C47.3901 18.15 39.5601 9.69 29.4801 8.7L32.6301 11.67L29.8401 13.92C36.8601 15 42.2601 21.12 42.2601 28.5H40.2801L44.4201 33.54L49.2801 28.5H47.3901Z" fill="#FFBA57"/>
<path d="M31.3701 12.75L29.8401 14.01C36.5901 15.09 41.9001 20.76 42.2601 27.78C42.2601 27.51 42.2601 27.24 42.2601 26.97C42.2601 20.13 37.5801 14.37 31.3701 12.75Z" fill="#FFAC3E"/>
<path d="M49.82 28.23C49.73 27.96 49.46 27.87 49.19 27.87H48.02C47.84 22.92 45.95 18.24 42.62 14.64C39.2 10.95 34.61 8.60999 29.66 8.06999L27.86 6.35999C27.5 5.99999 26.69 6.26999 26.78 6.80999V7.97999C22.73 8.06999 18.86 9.41999 15.62 11.76C15.35 11.94 15.26 12.39 15.44 12.66C15.62 12.93 16.07 13.02 16.34 12.84C19.58 10.5 23.45 9.32999 27.41 9.32999C27.77 9.32999 28.04 9.05999 28.04 8.69999V8.33999L31.46 11.67L28.04 14.46V13.74C28.04 13.38 27.77 13.11 27.41 13.11C23.72 13.11 20.12 14.46 17.33 16.89C14.9 18.96 13.19 21.75 12.47 24.81L11.03 23.1C10.76 22.83 10.31 22.74 10.04 23.1L8.51 24.72C9.32 20.85 11.3 17.25 14.27 14.55C14.54 14.28 14.54 13.92 14.27 13.65C14 13.38 13.64 13.38 13.37 13.65C9.95 16.71 7.61 21.3 7.07 26.16L5.27 27.96C4.91 28.32 5.18 29.13 5.72 29.04H6.89C7.07 33.99 8.96 38.58 12.2 42.27C15.62 45.96 20.12 48.3 25.16 48.84L26.96 50.55C27.32 50.91 28.13 50.64 28.04 50.1V48.93C32.18 48.84 36.05 47.49 39.38 45.06C39.65 44.88 39.74 44.43 39.56 44.16C39.38 43.89 38.93 43.8 38.66 43.98C35.33 46.32 31.46 47.58 27.41 47.58C27.05 47.58 26.78 47.85 26.78 48.21V48.48L23.36 45.15L26.78 42.36V42.99C26.78 43.35 27.05 43.62 27.41 43.62C31.1 43.62 34.7 42.27 37.49 39.93C39.92 37.86 41.63 35.07 42.35 32.1L43.7 33.81C43.97 34.08 44.42 34.17 44.69 33.81L46.31 32.19C45.5 36.06 43.52 39.57 40.64 42.36C40.37 42.63 40.37 42.99 40.64 43.26C40.91 43.53 41.27 43.53 41.54 43.26C45.14 39.93 47.39 35.34 47.93 30.48L49.64 28.68C49.91 28.77 49.91 28.5 49.82 28.23ZM22.01 44.79C21.74 45.06 21.65 45.51 22.01 45.78L23.63 47.31C19.67 46.5 16.07 44.43 13.37 41.37C10.04 37.95 8.24 33.27 8.24 28.5C8.24 28.14 7.97 27.87 7.61 27.87H7.34L10.67 24.45L13.46 27.87H12.74C12.38 27.87 12.11 28.14 12.11 28.5C12.11 32.19 13.46 35.79 15.8 38.58C17.87 41.01 20.66 42.72 23.63 43.44L22.01 44.79ZM36.68 39.21C34.25 41.28 31.28 42.45 28.13 42.63V41.28C28.13 40.74 27.5 40.38 27.05 40.74L24.98 42.36C21.83 41.82 18.95 40.11 16.79 37.68C14.72 35.25 13.55 32.28 13.37 29.13H14.72C15.26 29.13 15.62 28.5 15.26 28.05L13.64 25.98C14.18 22.83 15.89 19.86 18.32 17.79C20.75 15.72 23.72 14.55 26.87 14.37V15.72C26.87 16.26 27.5 16.62 27.95 16.26L30.02 14.64C33.17 15.18 36.05 16.89 38.21 19.32C40.28 21.75 41.45 24.72 41.63 27.87H40.28C39.74 27.87 39.38 28.5 39.74 28.95L41.45 31.02C40.82 34.17 39.2 37.05 36.68 39.21ZM44.33 32.64L41.54 29.22H42.17C42.53 29.22 42.8 28.95 42.8 28.59C42.8 24.9 41.45 21.3 39.02 18.51C36.95 16.08 34.16 14.37 31.1 13.65L32.81 12.3C33.08 12.03 33.17 11.58 32.81 11.31L31.46 9.59999C35.42 10.41 39.02 12.48 41.81 15.45C45.05 19.05 46.85 23.64 46.85 28.41C46.85 28.77 47.12 29.04 47.48 29.04H47.75L44.33 32.64Z" fill="#35414D"/>
<path d="M27.5001 51C27.3201 51 27.1401 50.91 26.9601 50.82L25.1601 49.11C20.2101 48.57 15.6201 46.23 12.2001 42.45C8.87006 38.85 6.98006 34.17 6.80006 29.31H5.81006C5.54006 29.31 5.27006 29.13 5.09006 28.86C4.91006 28.5 5.00006 28.14 5.18006 27.96L6.89006 26.16C7.43006 21.21 9.77006 16.71 13.4601 13.29C13.7301 13.02 14.2701 13.02 14.5401 13.29C14.8101 13.56 14.8101 14.1 14.5401 14.37C11.6601 17.07 9.68006 20.4 8.87006 24.18L10.1301 22.83C10.3101 22.65 10.4901 22.56 10.7601 22.56C11.0301 22.56 11.2101 22.65 11.3001 22.83L12.5601 24.36C13.3701 21.39 15.0801 18.69 17.4201 16.62C20.2101 14.19 23.8101 12.84 27.5901 12.84C28.0401 12.84 28.4001 13.2 28.4001 13.65V14.1L31.5501 11.58L28.4001 8.52C28.4001 8.97 28.0401 9.24 27.5901 9.24C23.6301 9.24 19.7601 10.41 16.5201 12.75C16.3401 12.84 16.1601 12.93 15.9801 12.84C15.8001 12.84 15.6201 12.66 15.4401 12.57C15.3501 12.39 15.2601 12.21 15.3501 12.03C15.3501 11.85 15.5301 11.67 15.6201 11.49C18.8601 9.15 22.7301 7.89 26.7801 7.71V6.81C26.7801 6.54 26.9601 6.27 27.2301 6.09C27.5001 5.91 27.8601 6 28.0401 6.18L29.8401 7.89C34.7901 8.52 39.4701 10.86 42.8001 14.55C46.1301 18.15 48.0201 22.83 48.2001 27.78H49.1901C49.4601 27.78 49.8201 27.96 49.9101 28.23C50.0001 28.5 50.0001 28.86 49.7301 29.04L48.0201 30.75C47.5701 35.7 45.3201 40.2 41.7201 43.62C41.5401 43.8 41.3601 43.8 41.1801 43.8C41.0001 43.8 40.8201 43.71 40.6401 43.53C40.4601 43.35 40.4601 43.17 40.4601 42.99C40.4601 42.81 40.5501 42.63 40.7301 42.45C43.5201 39.84 45.4101 36.51 46.3101 32.73L44.9601 34.08C44.7801 34.26 44.6001 34.35 44.3301 34.35C44.0601 34.35 43.8801 34.26 43.7901 34.08L42.5301 32.55C41.7201 35.52 40.0101 38.22 37.6701 40.29C34.8801 42.72 31.2801 44.07 27.5901 44.07C27.1401 44.07 26.7801 43.71 26.7801 43.26V42.81L23.6301 45.33L26.7801 48.39C26.7801 47.94 27.1401 47.67 27.5901 47.67C31.6401 47.67 35.5101 46.41 38.7501 44.07C39.1101 43.8 39.5601 43.89 39.8301 44.25C39.9201 44.43 40.0101 44.61 39.9201 44.79C39.9201 44.97 39.7401 45.15 39.6501 45.33C36.3201 47.67 32.4501 49.02 28.3101 49.2V50.28C28.3101 50.55 28.1301 50.82 27.8601 51C27.6801 51 27.5901 51 27.5001 51ZM6.98006 29.04H7.07006V29.13C7.25006 33.99 9.14006 38.67 12.3801 42.27C15.7101 45.96 20.3001 48.3 25.2501 48.84L27.0501 50.55C27.2301 50.73 27.5001 50.73 27.6801 50.64C27.8601 50.55 28.0401 50.37 28.0401 50.19V48.93H28.1301C32.1801 48.84 36.1401 47.49 39.4701 45.15C39.5601 45.06 39.6501 44.97 39.6501 44.79C39.6501 44.61 39.6501 44.52 39.5601 44.34C39.3801 44.07 39.0201 44.07 38.8401 44.25C35.5101 46.59 31.6401 47.85 27.5001 47.85C27.2301 47.85 26.9601 48.12 26.9601 48.39V48.93L23.2701 45.33L23.3601 45.24L26.9601 42.27V43.17C26.9601 43.44 27.2301 43.71 27.5001 43.71C31.1901 43.71 34.7001 42.36 37.4901 40.02C39.9201 37.95 41.5401 35.25 42.3501 32.19L42.4401 32.01L43.9701 33.9C44.0601 33.99 44.2401 34.08 44.3301 34.08C44.5101 34.08 44.6001 33.99 44.7801 33.9L46.6701 31.92L46.5801 32.28C45.7701 36.24 43.7901 39.75 40.8201 42.45C40.7301 42.54 40.6401 42.72 40.6401 42.81C40.6401 42.99 40.7301 43.08 40.8201 43.17C40.9101 43.26 41.0901 43.35 41.1801 43.35C41.3601 43.35 41.4501 43.26 41.5401 43.17C45.1401 39.84 47.3901 35.34 47.8401 30.48L49.5501 28.68C49.7301 28.5 49.7301 28.32 49.6401 28.05C49.5501 27.87 49.3701 27.69 49.1001 27.69H47.8401V27.6C47.6601 22.74 45.7701 18.06 42.5301 14.46C39.2901 11.04 34.7001 8.7 29.7501 8.16L27.9501 6.45C27.7701 6.27 27.5001 6.27 27.3201 6.36C27.1401 6.45 26.9601 6.63 26.9601 6.81V8.07H26.8701C22.8201 8.16 19.0401 9.51 15.7101 11.76C15.6201 11.85 15.5301 11.94 15.5301 12.12C15.5301 12.3 15.5301 12.39 15.6201 12.57C15.7101 12.66 15.8001 12.75 15.9801 12.75C16.1601 12.75 16.2501 12.75 16.4301 12.66C19.6701 10.32 23.5401 9.15 27.5901 9.15C27.8601 9.15 28.1301 8.88 28.1301 8.61V8.07L31.8201 11.67L31.7301 11.76L28.1301 14.73V13.83C28.0401 13.47 27.8601 13.2 27.5001 13.2C23.8101 13.2 20.3001 14.55 17.5101 16.89C15.0801 18.96 13.4601 21.66 12.6501 24.72L12.5601 24.9L11.0301 23.01C10.9401 22.92 10.7601 22.83 10.6701 22.83C10.4901 22.83 10.4001 22.92 10.3101 23.01L8.51006 24.9L8.60006 24.54C9.41006 20.58 11.4801 17.07 14.4501 14.28C14.6301 14.1 14.7201 13.74 14.4501 13.47C14.2701 13.29 13.9101 13.2 13.6401 13.47C10.0401 16.8 7.70006 21.3 7.16006 26.25L5.36006 28.05C5.18006 28.23 5.18006 28.5 5.27006 28.68C5.36006 28.86 5.54006 29.04 5.72006 29.04H6.98006ZM23.9001 47.58L23.5401 47.49C19.4901 46.68 15.9801 44.61 13.1901 41.55C9.95006 37.95 8.15006 33.36 8.15006 28.5C8.15006 28.14 7.88006 27.96 7.61006 27.96H7.07006L10.6701 24.27L10.7601 24.36L13.7301 27.96H12.8301C12.4701 27.96 12.2001 28.14 12.2001 28.5C12.2001 32.19 13.5501 35.7 15.8901 38.49C17.9601 40.92 20.6601 42.54 23.7201 43.35L23.9001 43.44L22.0101 44.97C21.9201 45.06 21.8301 45.24 21.8301 45.33C21.8301 45.51 21.9201 45.6 22.0101 45.78L23.9001 47.58ZM7.61006 27.69C8.06006 27.69 8.42006 28.05 8.42006 28.5C8.42006 33.27 10.2201 37.86 13.3701 41.46C15.9801 44.34 19.4001 46.32 23.1801 47.22L21.8301 45.96C21.6501 45.78 21.5601 45.6 21.5601 45.33C21.5601 45.06 21.6501 44.88 21.8301 44.79L23.3601 43.53C20.3901 42.72 17.6901 41.01 15.6201 38.67C13.3701 35.79 12.0201 32.19 12.0201 28.5C12.0201 28.05 12.3801 27.69 12.8301 27.69H13.1901L10.6701 24.54L7.61006 27.69ZM28.0401 42.72V41.28C28.0401 41.01 27.8601 40.83 27.7701 40.83C27.5901 40.74 27.4101 40.74 27.2301 40.92L25.1601 42.63H25.0701C21.9201 42.09 18.9501 40.38 16.7901 37.95C14.7201 35.52 13.5501 32.46 13.3701 29.31V29.22H14.8101C15.0801 29.22 15.1701 29.04 15.2601 28.95C15.3501 28.77 15.3501 28.59 15.1701 28.41L13.4601 26.34V26.25C14.0001 23.01 15.7101 20.13 18.1401 17.97C20.5701 15.9 23.6301 14.64 26.7801 14.55H26.8701V15.99C26.8701 16.26 27.0501 16.44 27.1401 16.44C27.3201 16.53 27.5001 16.53 27.6801 16.35L29.7501 14.64H29.8401C32.9901 15.18 35.9601 16.89 38.1201 19.32C40.1901 21.75 41.4501 24.81 41.5401 27.96V28.05H40.0101C39.7401 28.05 39.6501 28.23 39.5601 28.32C39.4701 28.5 39.4701 28.68 39.6501 28.86L41.3601 31.02V31.11C40.8201 34.26 39.1101 37.23 36.6801 39.3C34.2501 41.37 31.1901 42.63 28.0401 42.72ZM27.5001 40.47C27.5901 40.47 27.7701 40.47 27.8601 40.56C28.1301 40.65 28.3101 40.92 28.3101 41.28V42.54C31.3701 42.36 34.3401 41.19 36.6801 39.21C39.1101 37.14 40.7301 34.26 41.2701 31.2L39.6501 29.13C39.4701 28.95 39.4701 28.59 39.5601 28.32C39.6501 28.05 39.9201 27.87 40.1901 27.87H41.4501C41.2701 24.81 40.1001 21.84 38.0301 19.5C35.9601 17.07 33.0801 15.45 29.9301 14.91L27.9501 16.53C27.7701 16.71 27.4101 16.71 27.1401 16.62C26.8701 16.53 26.6901 16.26 26.6901 15.9V14.55C23.6301 14.73 20.6601 15.9 18.3201 17.97C15.8901 20.04 14.2701 22.92 13.7301 26.07L15.3501 28.05C15.5301 28.23 15.5301 28.59 15.4401 28.86C15.3501 29.13 15.0801 29.31 14.7201 29.31H13.5501C13.7301 32.37 14.9001 35.34 16.8801 37.68C18.9501 40.11 21.8301 41.73 24.9801 42.27L26.9601 40.65C27.1401 40.47 27.3201 40.47 27.5001 40.47ZM44.3301 32.82L44.2401 32.73L41.2701 29.13H42.1701C42.4401 29.13 42.7101 28.86 42.7101 28.59C42.7101 24.9 41.3601 21.39 39.0201 18.6C36.9501 16.17 34.2501 14.55 31.1901 13.74L31.1001 13.65L32.9901 12.12C33.0801 12.03 33.1701 11.85 33.1701 11.76C33.1701 11.58 33.0801 11.49 32.9901 11.31L31.1001 9.51L31.4601 9.6C35.5101 10.41 39.1101 12.48 41.9001 15.54C45.1401 19.14 46.9401 23.73 46.9401 28.59C46.9401 28.95 47.2101 29.13 47.4801 29.13H47.9301L44.3301 32.82ZM41.8101 29.31L44.3301 32.46L47.3901 29.31C46.9401 29.31 46.6701 28.95 46.6701 28.5C46.6701 23.73 44.8701 19.14 41.6301 15.54C38.9301 12.66 35.6001 10.59 31.7301 9.78L33.0801 11.04C33.2601 11.22 33.3501 11.4 33.3501 11.67C33.3501 11.94 33.2601 12.12 33.0801 12.21L31.5501 13.47C34.5201 14.28 37.2201 15.99 39.2901 18.33C41.7201 21.12 43.0701 24.72 43.0701 28.5C43.0701 28.95 42.7101 29.31 42.2601 29.31H41.8101Z" fill="#35414D"/>
<path d="M30.2001 31.92V34.26C30.2001 35.07 30.8301 35.7 31.6401 35.7C32.4501 35.7 33.0801 35.07 33.0801 34.26V31.92C33.0801 31.11 32.4501 30.48 31.6401 30.48C30.8301 30.39 30.2001 31.02 30.2001 31.92ZM32.6301 31.92V34.26C32.6301 34.8 32.1801 35.25 31.6401 35.25C31.1001 35.25 30.6501 34.8 30.6501 34.26V31.92C30.6501 31.38 31.1001 30.93 31.6401 30.93C32.1801 30.93 32.6301 31.38 32.6301 31.92Z" fill="#35414D"/>
<path d="M31.7301 36.15C30.6501 36.15 29.8401 35.25 29.8401 34.26V31.92C29.8401 30.84 30.7401 30.03 31.7301 30.03C32.7201 30.03 33.6201 30.93 33.6201 31.92V34.26C33.6201 35.25 32.7201 36.15 31.7301 36.15ZM31.7301 31.38C31.4601 31.38 31.1901 31.65 31.1901 31.92V34.26C31.1901 34.53 31.4601 34.8 31.7301 34.8C32.0001 34.8 32.2701 34.53 32.2701 34.26V31.92C32.1801 31.56 32.0001 31.38 31.7301 31.38Z" fill="#35414D"/>
<path d="M23.2701 26.61C24.0801 26.61 24.7101 25.98 24.7101 25.17V24.45C24.7101 24.27 24.6201 24.18 24.4401 24.18C24.2601 24.18 24.1701 24.27 24.1701 24.45V25.17C24.1701 25.71 23.7201 26.16 23.1801 26.16C22.6401 26.16 22.1901 25.71 22.1901 25.17V22.83C22.1901 22.29 22.6401 21.84 23.1801 21.84C23.7201 21.84 24.1701 22.29 24.1701 22.83V23.37C24.1701 23.55 24.2601 23.64 24.4401 23.64C24.6201 23.64 24.7101 23.55 24.7101 23.37V22.83C24.7101 22.02 24.0801 21.39 23.2701 21.39C22.4601 21.39 21.8301 22.02 21.8301 22.83V25.17C21.8301 25.98 22.4601 26.61 23.2701 26.61Z" fill="#35414D"/>
<path d="M23.2701 27.06C22.1901 27.06 21.3801 26.16 21.3801 25.17V22.83C21.3801 21.75 22.2801 20.94 23.2701 20.94C24.3501 20.94 25.1601 21.84 25.1601 22.83V23.37C25.1601 23.55 25.0701 23.73 24.8901 23.91C25.0701 24 25.1601 24.18 25.1601 24.45V25.17C25.2501 26.16 24.3501 27.06 23.2701 27.06ZM23.2701 22.29C23.0001 22.29 22.7301 22.56 22.7301 22.83V25.17C22.7301 25.44 23.0001 25.71 23.2701 25.71C23.5401 25.71 23.8101 25.44 23.8101 25.17V24.45C23.8101 24.27 23.9001 24.09 24.0801 23.91C23.9001 23.82 23.8101 23.64 23.8101 23.37V22.83C23.8101 22.47 23.6301 22.29 23.2701 22.29Z" fill="#35414D"/>
<path d="M23.27 28.32C25.07 28.32 26.51 26.88 26.51 25.08V22.74C26.51 21.84 26.15 21.03 25.52 20.49C24.89 19.86 24.08 19.5 23.27 19.5C21.47 19.5 20.03 20.94 20.03 22.74V25.08C20.12 26.88 21.56 28.32 23.27 28.32ZM20.57 22.83C20.57 21.3 21.74 20.13 23.27 20.13C23.99 20.13 24.71 20.4 25.16 20.94C25.7 21.48 25.97 22.11 25.97 22.83V25.17C25.97 26.7 24.8 27.87 23.27 27.87C21.74 27.87 20.57 26.7 20.57 25.17V22.83Z" fill="#35414D"/>
<path d="M23.2701 28.77C21.2001 28.77 19.5801 27.15 19.5801 25.08V22.74C19.5801 20.67 21.2001 19.05 23.2701 19.05C24.2601 19.05 25.1601 19.41 25.8801 20.13C26.6001 20.85 26.9601 21.75 26.9601 22.74V25.08C26.9601 27.15 25.3401 28.77 23.2701 28.77ZM23.2701 20.49C22.0101 20.49 21.0201 21.48 21.0201 22.74V25.08C21.0201 26.34 22.0101 27.33 23.2701 27.33C24.5301 27.33 25.5201 26.34 25.5201 25.08V22.74C25.5201 22.11 25.2501 21.57 24.8901 21.12C24.4401 20.76 23.9001 20.49 23.2701 20.49Z" fill="#35414D"/>
<path d="M33.98 29.58C33.35 28.95 32.54 28.59 31.73 28.59C29.93 28.59 28.49 30.03 28.49 31.83V34.17C28.49 35.97 29.93 37.41 31.73 37.41C32.45 37.41 33.17 37.14 33.8 36.69C33.89 36.6 33.89 36.42 33.8 36.33C33.71 36.24 33.53 36.24 33.44 36.33C32.99 36.69 32.36 36.96 31.73 36.96C30.2 36.96 29.03 35.79 29.03 34.26V31.92C29.03 30.39 30.2 29.22 31.73 29.22C32.45 29.22 33.17 29.49 33.62 30.03C34.16 30.57 34.43 31.2 34.43 31.92V34.26C34.43 34.71 34.34 35.25 34.07 35.61C33.98 35.7 34.07 35.88 34.16 35.97C34.25 36.06 34.43 35.97 34.52 35.88C34.79 35.34 34.97 34.8 34.97 34.26V31.92C34.88 31.02 34.61 30.21 33.98 29.58Z" fill="#35414D"/>
<path d="M31.73 37.86C29.66 37.86 28.04 36.24 28.04 34.17V31.83C28.04 29.76 29.66 28.14 31.73 28.14C32.72 28.14 33.62 28.5 34.34 29.22C35.06 29.94 35.42 30.84 35.42 31.83V34.17C35.42 34.8 35.24 35.52 34.88 36.06C34.79 36.24 34.52 36.42 34.34 36.42C34.34 36.69 34.25 36.87 34.07 37.05C33.35 37.59 32.54 37.86 31.73 37.86ZM31.73 29.67C30.47 29.67 29.48 30.66 29.48 31.92V34.26C29.48 35.52 30.47 36.51 31.73 36.51C32.27 36.51 32.72 36.33 33.17 35.97C33.26 35.88 33.44 35.79 33.62 35.79C33.62 35.61 33.62 35.52 33.71 35.34C33.89 34.98 34.07 34.62 34.07 34.17V31.83C34.07 31.2 33.8 30.66 33.44 30.21C32.9 29.85 32.27 29.67 31.73 29.67Z" fill="#35414D"/>
<path d="M34.1601 22.83C34.1601 22.56 34.0701 22.38 33.8901 22.2C33.7101 22.02 33.4401 21.93 33.2601 21.93C32.9901 21.93 32.8101 22.02 32.6301 22.2L21.1101 33.54C20.7501 33.9 20.7501 34.53 21.1101 34.89C21.2901 35.07 21.5601 35.16 21.7401 35.16C22.0101 35.16 22.1901 35.07 22.3701 34.89L33.8001 23.46C34.0701 23.28 34.1601 23.01 34.1601 22.83ZM33.5301 23.1L22.1001 34.53C22.0101 34.62 21.9201 34.62 21.8301 34.62C21.7401 34.62 21.6501 34.62 21.5601 34.53C21.3801 34.35 21.3801 34.08 21.5601 33.9L32.9001 22.47C32.9901 22.38 33.0801 22.38 33.1701 22.38C33.2601 22.38 33.3501 22.38 33.4401 22.47C33.5301 22.56 33.5301 22.65 33.5301 22.74C33.5301 22.83 33.6201 23.01 33.5301 23.1Z" fill="#35414D"/>
<path d="M21.8301 35.61C21.4701 35.61 21.1101 35.43 20.8401 35.16C20.5701 34.89 20.3901 34.53 20.3901 34.17C20.3901 33.81 20.5701 33.45 20.8401 33.18L32.2701 21.75C32.8101 21.21 33.7101 21.21 34.2501 21.75C34.5201 22.02 34.7001 22.38 34.7001 22.74C34.7001 23.1 34.5201 23.46 34.2501 23.73L22.7301 35.16C22.5501 35.43 22.1901 35.61 21.8301 35.61Z" fill="#35414D"/>
<path d="M21.8301 34.89C21.6501 34.89 21.4701 34.8 21.3801 34.71C21.1101 34.44 21.1101 33.99 21.3801 33.72L32.8101 22.29C33.0801 22.02 33.5301 22.02 33.8001 22.29C34.0701 22.56 34.0701 23.01 33.8001 23.28L22.2801 34.71C22.1001 34.8 21.9201 34.89 21.8301 34.89Z" fill="#FD646F"/>
<path d="M33.8901 22.56C33.6201 22.47 33.3501 22.56 33.1701 22.74L21.7401 34.17C21.5601 34.35 21.4701 34.62 21.5601 34.89C21.4701 34.89 21.3801 34.8 21.2901 34.71C21.0201 34.44 21.0201 33.99 21.2901 33.72L32.7201 22.29C32.9901 22.02 33.4401 22.02 33.7101 22.29C33.8001 22.38 33.8001 22.47 33.8901 22.56Z" fill="#CC5266"/>
<path d="M25.4301 20.67C24.8901 20.13 24.1701 19.77 23.3601 19.77C21.7401 19.77 20.3901 21.12 20.3901 22.74V25.08C20.3901 26.7 21.7401 28.05 23.3601 28.05C24.9801 28.05 26.3301 26.7 26.3301 25.08V22.74C26.2401 21.93 25.9701 21.21 25.4301 20.67ZM24.5301 25.08C24.5301 25.71 23.9901 26.34 23.2701 26.34C22.5501 26.34 22.1001 25.8 22.1001 25.08V22.74C22.1001 22.11 22.6401 21.48 23.3601 21.48C24.0801 21.48 24.6201 22.02 24.6201 22.74V25.08H24.5301Z" fill="#FD646F"/>
<path d="M33.8001 29.76C33.2601 29.22 32.5401 28.86 31.7301 28.86C30.1101 28.86 28.7601 30.21 28.7601 31.83V34.17C28.7601 35.79 30.1101 37.14 31.7301 37.14C33.3501 37.14 34.7001 35.79 34.7001 34.17V31.83C34.7001 31.02 34.3401 30.3 33.8001 29.76ZM32.9001 34.17C32.9001 34.8 32.3601 35.43 31.6401 35.43C31.0101 35.43 30.3801 34.89 30.3801 34.17V31.83C30.3801 31.2 30.9201 30.57 31.6401 30.57C32.2701 30.57 32.9001 31.11 32.9001 31.83V34.17Z" fill="#FD646F"/>
<path d="M23.7201 26.25C23.8101 26.25 23.9901 26.34 24.0801 26.34C24.7101 26.34 25.3401 25.8 25.3401 25.08V22.74C25.3401 22.11 24.8001 21.48 24.0801 21.48C23.9901 21.48 23.8101 21.48 23.7201 21.57C24.1701 21.75 24.5301 22.2 24.5301 22.74V25.08C24.5301 25.62 24.1701 26.16 23.7201 26.25Z" fill="#CC5266"/>
<path d="M21.1101 25.08V22.74C21.1101 21.21 22.2801 19.95 23.7201 19.77C23.6301 19.77 23.4501 19.77 23.3601 19.77C21.7401 19.77 20.3901 21.12 20.3901 22.74V25.08C20.3901 26.7 21.7401 28.05 23.3601 28.05C23.4501 28.05 23.6301 28.05 23.7201 28.05C22.1901 27.87 21.1101 26.61 21.1101 25.08Z" fill="#CC5266"/>
<path d="M32.0901 35.34C32.1801 35.34 32.3601 35.43 32.4501 35.43C33.0801 35.43 33.7101 34.89 33.7101 34.17V31.83C33.7101 31.2 33.1701 30.57 32.4501 30.57C32.3601 30.57 32.1801 30.57 32.0901 30.66C32.5401 30.84 32.9001 31.29 32.9001 31.83V34.17C32.9001 34.71 32.5401 35.25 32.0901 35.34Z" fill="#CC5266"/>
<path d="M29.4801 34.17V31.83C29.4801 30.3 30.6501 29.04 32.0901 28.86C32.0001 28.86 31.8201 28.86 31.7301 28.86C30.1101 28.86 28.7601 30.21 28.7601 31.83V34.17C28.7601 35.79 30.1101 37.14 31.7301 37.14C31.8201 37.14 32.0001 37.14 32.0901 37.14C30.5601 36.96 29.4801 35.7 29.4801 34.17Z" fill="#CC5266"/>
</g>
<defs>
<clipPath id="clip0_683_3237">
<rect width="45" height="45" fill="white" transform="translate(5 6)"/>
</clipPath>
</defs>
</svg>
