<svg width="56" height="57" viewBox="0 0 56 57" fill="none" xmlns="http://www.w3.org/2000/svg">
<mask id="mask0_662_8320" style="mask-type:alpha" maskUnits="userSpaceOnUse" x="0" y="0" width="56" height="57">
<rect y="0.5" width="56" height="56" fill="#D9D9D9"/>
</mask>
<g mask="url(#mask0_662_8320)">
</g>
<g clip-path="url(#clip0_662_8320)">
<path d="M13.9 21.7L8.69995 25.8V45C8.69995 46.8 10.1 48.2 11.9 48.2H44C45.7999 48.2 47.2 46.8 47.2 45V25.9L42 21.9" fill="#87796F"/>
<path d="M41.7 9.8H14.2V39.6H41.7V9.8Z" fill="#F9EDE1"/>
<path d="M33.2 39.9H22.3L8.69995 25.9V45C8.69995 46.8 10.1 48.2 11.9 48.2H44C45.7999 48.2 47.2 46.8 47.2 45V25.9L33.2 39.9Z" fill="#FEDA9B"/>
<path d="M11.3999 47.7L22.6999 37.4C25.6999 34.7 30.1999 34.7 33.1999 37.4L44.4999 47.7H11.3999Z" fill="#FFB954"/>
<path d="M36.0001 19.2C37.0001 18.2 37.0001 16.6 36.0001 15.6C35.0001 14.6 33.4001 14.6 32.4001 15.6L36.0001 19.2Z" fill="#FF5D5D"/>
<path d="M27.7001 28.7L24.8 31.6C23.5 32.9 21.3 32.9 19.9 31.6C18.6 30.3 18.6 28.1 19.9 26.7L22.8 23.8L27.7001 28.7Z" fill="#FF5A5A"/>
<path d="M27.7001 28.7L31.1001 32.2L29.0001 34.3L25.6001 30.8L27.7001 28.7Z" fill="#87796F"/>
<path d="M27.7 28.7L22.8 23.8L28.1 11.3L40.2001 23.4L27.7 28.7Z" fill="#C1A897"/>
<path d="M37 24.7L40.2001 23.4L28.1 11.3L26.8 14.5L37 24.7Z" fill="white"/>
<path d="M23.4999 14.7C23.3999 14.7 23.1999 14.6 23.0999 14.5C22.9999 14.4 22.8999 14.3 22.8999 14.1C22.8999 13.9 22.9999 13.8 23.0999 13.7C23.1999 13.6 23.2999 13.5 23.4999 13.5C23.6999 13.5 23.7999 13.6 23.8999 13.7C23.9999 13.8 23.9999 14 23.9999 14.1C23.9999 14.2 23.8999 14.4 23.7999 14.5C23.6999 14.6 23.5999 14.7 23.4999 14.7Z" fill="#35414D"/>
<path d="M17.3999 14.7C17.0999 14.7 16.8999 14.5 16.8999 14.2C16.8999 13.9 17.0999 13.7 17.3999 13.7H20.4999C20.7999 13.7 20.9999 13.9 20.9999 14.2C20.9999 14.5 20.7999 14.7 20.4999 14.7H17.3999Z" fill="#35414D"/>
<path d="M17.3999 19C17.0999 19 16.8999 18.8 16.8999 18.5C16.8999 18.2 17.0999 18 17.3999 18H21.1999C21.4999 18 21.6999 18.2 21.6999 18.5C21.6999 18.8 21.4999 19 21.1999 19H17.3999Z" fill="#35414D"/>
<path d="M12 48.8C9.90005 48.8 8.30005 47.1 8.30005 45.1V25.9C8.30005 25.7 8.40005 25.6 8.50005 25.5L13.7 21.4L13.8 21.3V9.8C13.8 9.5 14 9.3 14.3 9.3H23.8C24.1 9.3 24.3 9.5 24.3 9.8C24.3 10.1 24.1 10.3 23.8 10.3H14.8V31V31.1L21.5 37.8L22.4 36.9C23.9 35.5 25.9 34.7 28 34.7C28.1 34.7 28.2001 34.7 28.2001 34.7H28.9L25.6 31.4L25.1 32C24.4 32.7 23.4 33.2 22.3 33.2C21.2 33.2 20.3 32.8 19.5 32C18.8 31.3 18.3 30.3 18.3 29.2C18.3 28.1 18.7 27.2 19.5 26.4L22.4 23.5L27.7001 11.1C27.7001 11 27.9 10.9 28 10.8H28.1C28.2001 10.8 28.4 10.9 28.5 11L32.4 14.9L32.6 14.8C33.1 14.5 33.6 14.4 34.2001 14.4C35 14.4 35.8 14.7 36.4 15.3C37 15.9 37.3 16.6 37.3 17.5C37.3 18.1 37.1 18.6 36.9 19.1L36.8 19.3L40.7001 23.2C40.8 23.3 40.9 23.5 40.8 23.7C40.8 23.9 40.7001 24 40.5 24.1L28.7001 29.1L31.6 32C31.8001 32.2 31.8001 32.5 31.6 32.7L29.2001 35.1L29.7001 35.2C31.2001 35.5 32.6 36.2 33.7001 37.2L34.6 38.1L41.3 31.4V31V20.4C41.3 20.1 41.5 19.9 41.8 19.9C42.1 19.9 42.3 20.1 42.3 20.4V21.4L42.4001 21.5L47.4001 25.4L47.6 25.5C47.7 25.6 47.8 25.7 47.8 25.9V45C47.8 47.1 46.1 48.7 44.1 48.7H12V48.8ZM12.2 47.7H43.9001L32.9 37.7C31.6 36.5 29.8 35.8 28 35.8C26.2001 35.8 24.5 36.5 23.1 37.7L16.5 43.7H21.2C21.5 43.7 21.7 43.9 21.7 44.2C21.7 44.5 21.5 44.7 21.2 44.7H15.3L12.2 47.7ZM35.3 38.6L44.9001 47.4L45 47.6L45.2001 47.5C46.1001 47 46.6 46.1 46.6 45.1V27.1L35.3 38.6ZM9.30005 45C9.30005 46 9.90005 46.9 10.7 47.4L10.9 47.5L11 47.4L20.6 38.6L9.30005 27.1V45ZM26.3 30.8L29 33.5L30.4 32.1L27.7001 29.4L26.3 30.8ZM20.2 27.2C19.6 27.8 19.3 28.5 19.3 29.3C19.3 30.1 19.6 30.8 20.2 31.4C20.8 32 21.5 32.3 22.3 32.3C23.1 32.3 23.8 32 24.4 31.4L27 28.8L22.9 24.7L20.2 27.2ZM42.3 30.1L46.5 25.9L42.3 22.6V30.1ZM9.50005 25.9L13.7 30.1V22.5L9.50005 25.9ZM23.4 23.7L27.8 28.1L36.1 24.6L27 15.5L23.4 23.7ZM27.4 14.4L37.1 24.1L39.3 23.2L28.3 12.2L27.4 14.4ZM34.2001 15.3C34 15.3 33.8001 15.3 33.6 15.4L33.2001 15.5L36 18.3L36.1 18C36.2001 17.8 36.2001 17.6 36.2001 17.4C36.2001 16.9 36 16.3 35.6 16C35.2001 15.5 34.7001 15.3 34.2001 15.3Z" fill="#35414D"/>
<path d="M44 49H12C9.8 49 8 47.2 8 45V25.9C8 25.7 8.1 25.5 8.3 25.3L13.5 21.1V9.8C13.5 9.3 13.8 9 14.2 9H23.7C24.1 9 24.5 9.3 24.5 9.8C24.5 10.3 24.2 10.6 23.7 10.6H15V31L21.5 37.5L22.3 36.8C23.9 35.4 25.9 34.6 28 34.6H28.3L25.6 31.9L25.3 32.2C24.5 33 23.5 33.4 22.3 33.4C21.1 33.4 20.1 33 19.3 32.2C18.5 31.4 18.1 30.4 18.1 29.2C18.1 28.1 18.5 27 19.3 26.2L22.1 23.4L27.4 11C27.5 10.8 27.7 10.6 28 10.6C28.3 10.5 28.5 10.6 28.7 10.8L32.4 14.5C32.9 14.2 33.5 14 34.1 14C35 14 35.8 14.3 36.4 15C37 15.6 37.4 16.5 37.4 17.3C37.4 17.9 37.2 18.5 36.9 19L40.6 22.7C40.8 22.9 40.9 23.1 40.8 23.4C40.8 23.6 40.6 23.9 40.3 24L29 29L31.6 31.6C31.9 31.9 31.9 32.4 31.6 32.7L29.5 34.8C31 35.1 32.5 35.8 33.6 36.9L34.4 37.6L41 31V20.4C41 20 41.3 19.6 41.8 19.6C42.3 19.6 42.6 19.9 42.6 20.4V21.2L47.8 25.2C48 25.3 48.1 25.6 48.1 25.8V45C48 47.2 46.2 49 44 49ZM14.2 9.5C14.1 9.5 14 9.6 14 9.8V21.4L13.8 21.6L8.6 25.7C8.5 25.8 8.5 25.8 8.5 25.9V45C8.5 46.9 10.1 48.5 12 48.5H44C45.9 48.5 47.5 46.9 47.5 45V25.9C47.5 25.8 47.5 25.7 47.4 25.7L42 21.5V20.4C42 20.3 41.9 20.1 41.7 20.1C41.6 20.1 41.4 20.2 41.4 20.4V31.2L34.4 38.2L33.3 37.2C32.2 36.2 30.9 35.5 29.4 35.3L28.8 35.2H27.9C25.9 35.2 24 35.9 22.5 37.3L21.4 38.3L14.4 31.3V10H23.7C23.9 10 24 9.9 24 9.8C24 9.7 23.9 9.5 23.7 9.5H14.2ZM25.6 31.2L29 34.6L31.3 32.3C31.4 32.2 31.4 32 31.3 31.9L28.1 28.7L40.2 23.5C40.3 23.5 40.3 23.4 40.4 23.3C40.4 23.2 40.4 23.1 40.3 23.1L36.3 19.1L36.5 18.8C36.8 18.4 37 17.9 37 17.4C37 16.6 36.7 15.9 36.2 15.4C35.7 14.9 35 14.6 34.2 14.6C33.7 14.6 33.2 14.7 32.7 15L32.4 15.2L28.4 11.2C28.3 11.1 28.3 11.1 28.2 11.1C28.1 11.1 28 11.2 28 11.3L22.7 23.8L19.8 26.7C19.1 27.4 18.7 28.3 18.7 29.3C18.7 30.3 19.1 31.2 19.8 31.9C20.5 32.6 21.4 33 22.4 33C23.4 33 24.3 32.6 25 31.9L25.6 31.2ZM44.5 48H11.5L15.2 44.6H21.1C21.2 44.6 21.4 44.5 21.4 44.3C21.4 44.2 21.3 44 21.1 44H15.8L22.9 37.5C24.3 36.2 26.1 35.5 28 35.5C29.9 35.5 31.7 36.2 33.1 37.5L44.5 48ZM12.8 47.5H43.2L32.7 38C31.4 36.8 29.7 36.2 28 36.2C26.3 36.2 24.6 36.9 23.3 38L17.1 43.6H21.2C21.6 43.6 22 43.9 22 44.4C22 44.9 21.7 45.2 21.2 45.2H15.4L12.8 47.5ZM45 47.8L44.7 47.5L34.9 38.6L46.9 26.6V45C46.9 46.1 46.3 47.1 45.3 47.6L45 47.8ZM35.6 38.5L45.1 47.2C45.9 46.8 46.4 45.9 46.4 45V27.7L35.6 38.5ZM11 47.8L10.6 47.6C9.6 47.1 9 46.1 9 45V26.5L21 38.5L11 47.8ZM9.5 27.7V45C9.5 45.9 10 46.7 10.8 47.2L10.9 47.1L20.3 38.5L9.5 27.7ZM29 33.9L26 30.8L27.7 29.1L30.8 32.2L29 33.9ZM26.7 30.8L29.1 33.2L30.1 32.2L27.7 29.8L26.7 30.8ZM22.3 32.4C21.5 32.4 20.7 32.1 20.1 31.5C19.5 30.9 19.2 30.1 19.2 29.3C19.2 28.5 19.5 27.7 20.1 27.1L22.9 24.3L27.4 28.8L24.6 31.6C23.9 32.1 23.1 32.4 22.3 32.4ZM22.8 24.9L20.4 27.3C19.9 27.8 19.6 28.5 19.6 29.2C19.6 29.9 19.9 30.6 20.4 31.1C20.9 31.6 21.6 31.9 22.3 31.9C23 31.9 23.7 31.6 24.2 31.1L26.6 28.7L22.8 24.9ZM42 30.7V22.2L46.8 25.9L42 30.7ZM42.5 23.2V29.5L46.1 25.9L42.5 23.2ZM14 30.7L9.2 25.9L14 22V30.7ZM9.9 25.9L13.5 29.5V23.1L9.9 25.9ZM27.7 28.4L23.1 23.8L23.2 23.6L26.9 15L36.5 24.6L27.7 28.4ZM23.7 23.7L27.8 27.8L35.6 24.5L27 15.9L23.7 23.7ZM37 24.4L27.1 14.5L28.2 11.8L39.7 23.3L37 24.4ZM27.7 14.4L37.2 23.9L38.9 23.2L28.4 12.7L27.7 14.4ZM36 18.9L32.6 15.5L33.4 15.2C34.2 14.9 35.1 15.1 35.7 15.7C36.1 16.1 36.4 16.7 36.4 17.3C36.4 17.5 36.4 17.8 36.3 18L36 18.9ZM33.6 15.7L35.8 18C35.9 17.8 35.9 17.6 35.9 17.4C35.9 16.9 35.7 16.5 35.4 16.1C34.9 15.6 34.2 15.5 33.6 15.7Z" fill="#35414D"/>
<path d="M38.6 13.5C38.5 13.5 38.3 13.4 38.2 13.3C38 13.1 38 12.8 38.2 12.6L41.4 9.4C41.5 9.3 41.6 9.2 41.8 9.2C41.9 9.2 42.1 9.3 42.2 9.4C42.4 9.6 42.4 9.9 42.2 10.1L39 13.3C38.9 13.4 38.8 13.5 38.6 13.5Z" fill="#FF5A5A"/>
<path d="M35.7 11.8C35.4 11.8 35.2 11.6 35.2 11.3V9.8C35.2 9.5 35.4 9.3 35.7 9.3C36 9.3 36.2 9.5 36.2 9.8V11.4C36.2 11.6 36 11.8 35.7 11.8Z" fill="#FF5A5A"/>
<path d="M40.2 16.3C39.9 16.3 39.7 16.1 39.7 15.8C39.7 15.5 39.9 15.3 40.2 15.3H41.7999C42.0999 15.3 42.2999 15.5 42.2999 15.8C42.2999 16.1 42.0999 16.3 41.7999 16.3H40.2Z" fill="#FF5A5A"/>
<path d="M24.4 45C24.2 45 24.1 44.9 23.9 44.8C23.8 44.7 23.7 44.5 23.7 44.3C23.7 44.1 23.8 44 23.9 43.8C24 43.7 24.2 43.6 24.4 43.6C24.6 43.6 24.7 43.7 24.9 43.8C25 44 25 44.2 25 44.3C25 44.5 24.9 44.6 24.8 44.8C24.7 44.9 24.5 45 24.4 45Z" fill="#35414D"/>
</g>
<defs>
<clipPath id="clip0_662_8320">
<rect width="40" height="40" fill="white" transform="translate(8 9)"/>
</clipPath>
</defs>
</svg>
