<svg width="56" height="57" viewBox="0 0 56 57" fill="none" xmlns="http://www.w3.org/2000/svg">
<mask id="mask0_684_3477" style="mask-type:alpha" maskUnits="userSpaceOnUse" x="0" y="0" width="56" height="57">
<rect y="0.5" width="56" height="56" fill="#D9D9D9"/>
</mask>
<g mask="url(#mask0_684_3477)">
</g>
<g clip-path="url(#clip0_684_3477)">
<path d="M8.20002 48.1C7.00002 48.1 5.90002 47.1 5.90002 45.8V12.2C5.90002 11 6.90002 9.9 8.20002 9.9H46.9C48.1 9.9 49.2 10.9 49.2 12.2V45.9C49.2 47.1 48.2 48.2 46.9 48.2H8.20002V48.1Z" fill="#FFF1DE"/>
<path d="M46.8 10.8C47.6 10.8 48.2 11.4 48.2 12.2V45.9C48.2 46.7 47.6 47.3 46.8 47.3H8.2C7.4 47.3 6.8 46.7 6.8 45.9V12.2C6.8 11.4 7.4 10.8 8.2 10.8H46.8ZM46.8 9H8.2C6.4 9 5 10.4 5 12.2V45.9C5 47.6 6.4 49 8.2 49H46.9C48.6 49 50.1 47.6 50.1 45.8V12.2C50 10.4 48.6 9 46.8 9Z" fill="#35414D"/>
<path d="M18.3001 15.3H17.3001C16.7001 15.3 16.2001 14.8 16.2001 14.2C16.2001 13.6 16.7001 13.1 17.3001 13.1H18.3001C18.9001 13.1 19.4001 13.6 19.4001 14.2C19.4001 14.8 18.9001 15.3 18.3001 15.3Z" fill="#4489F1"/>
<path d="M23.9 15.3H22.9C22.3 15.3 21.8 14.8 21.8 14.2C21.8 13.6 22.3 13.1 22.9 13.1H23.9C24.5 13.1 25 13.6 25 14.2C25 14.8 24.5 15.3 23.9 15.3Z" fill="#E74339"/>
<path d="M11.9 15.3H10.9C10.3 15.3 9.80005 14.8 9.80005 14.2C9.80005 13.6 10.3 13.1 10.9 13.1H11.9C12.5 13.1 13 13.6 13 14.2C13 14.8 12.5 15.3 11.9 15.3Z" fill="#38A856"/>
<path d="M43.9 15.5H31.4C30.7 15.5 30.2 14.9 30.2 14.3C30.2 13.6 30.8 13.1 31.4 13.1H43.9C44.6 13.1 45.0999 13.7 45.0999 14.3C45.1999 14.9 44.6 15.5 43.9 15.5Z" fill="#6E808E"/>
<path d="M45.2001 18.7H9.80005V30H45.2001V18.7Z" fill="#1C74BB"/>
<path d="M45.2 30H23.4C23.4 23.8 28.4 18.7 34.7 18.7H45.2V30Z" fill="#035FA1"/>
<path d="M18.5 32.7H9.80005V43.2H18.5V32.7Z" fill="#D7E057"/>
<path d="M31.9 32.7H23.2V43.2H31.9V32.7Z" fill="#8BCAFF"/>
<path d="M45.2 32.7H36.5V43.2H45.2V32.7Z" fill="#F78F9C"/>
</g>
<defs>
<clipPath id="clip0_684_3477">
<rect width="45" height="40" fill="white" transform="translate(5 9)"/>
</clipPath>
</defs>
</svg>
