<svg width="56" height="57" viewBox="0 0 56 57" fill="none" xmlns="http://www.w3.org/2000/svg">
<mask id="mask0_684_3353" style="mask-type:alpha" maskUnits="userSpaceOnUse" x="0" y="0" width="56" height="57">
<rect y="0.5" width="56" height="56" fill="#D9D9D9"/>
</mask>
<g mask="url(#mask0_684_3353)">
</g>
<g clip-path="url(#clip0_684_3353)">
<path d="M8.20002 47.1C7.00002 47.1 5.90002 46.1 5.90002 44.8V11.2C5.90002 10 6.90002 8.9 8.20002 8.9H46.9C48.1 8.9 49.2 9.9 49.2 11.2V44.9C49.2 46.1 48.2 47.2 46.9 47.2H8.20002V47.1Z" fill="#FFF9EE"/>
<path d="M46.8 9.8C47.6 9.8 48.2 10.4 48.2 11.2V44.9C48.2 45.7 47.6 46.3 46.8 46.3H8.2C7.4 46.3 6.8 45.7 6.8 44.9V11.2C6.8 10.4 7.4 9.8 8.2 9.8H46.8ZM46.8 8H8.2C6.4 8 5 9.4 5 11.2V44.9C5 46.6 6.4 48 8.2 48H46.9C48.6 48 50.1 46.6 50.1 44.8V11.2C50 9.4 48.6 8 46.8 8Z" fill="#35414D"/>
<path d="M41.5 24.9C40.8 24.9 40.2001 24.4 40.2001 23.8C40.2001 23.2 40.8 22.7 41.5 22.7H45.2001V20.3H38.8C38.1 20.3 37.5 19.8 37.5 19.2C37.5 18.6 38.1 18.1 38.8 18.1H45.2001V16.2H9.80005V44H45.2001V24.9H41.5Z" fill="#FFDC97"/>
<path d="M18.3001 14.3H17.3001C16.7001 14.3 16.2001 13.8 16.2001 13.2C16.2001 12.6 16.7001 12.1 17.3001 12.1H18.3001C18.9001 12.1 19.4001 12.6 19.4001 13.2C19.4001 13.8 18.9001 14.3 18.3001 14.3Z" fill="#4489F1"/>
<path d="M23.9 14.3H22.9C22.3 14.3 21.8 13.8 21.8 13.2C21.8 12.6 22.3 12.1 22.9 12.1H23.9C24.5 12.1 25 12.6 25 13.2C25 13.8 24.5 14.3 23.9 14.3Z" fill="#E74339"/>
<path d="M11.9 14.3H10.9C10.3 14.3 9.80005 13.8 9.80005 13.2C9.80005 12.6 10.3 12.1 10.9 12.1H11.9C12.5 12.1 13 12.6 13 13.2C13 13.8 12.5 14.3 11.9 14.3Z" fill="#38A856"/>
<path d="M36.8 28.1H36.4C36.2 27.1 35.8001 26.1 35.2001 25.2L35.5 24.9C35.8 24.6 35.8 24 35.5 23.7L33.9 22.1C33.6 21.8 33 21.8 32.7 22.1L32.4 22.4C31.5 21.9 30.6 21.5 29.5 21.2V20.8C29.5 20.3 29.1 19.9 28.6 19.9H26.4C25.9 19.9 25.5 20.3 25.5 20.8V21.2C25 21.3 23.5 21.8 22.6 22.4L22.3 22.1C22 21.8 21.4 21.8 21.1 22.1L19.5 23.7C19.2 24 19.2 24.6 19.5 24.9L19.8 25.2C19.2 26.1 18.8 27 18.6 28.1H18.2C17.7 28.1 17.3 28.5 17.3 29V31.2C17.3 31.7 17.7 32.1 18.2 32.1H18.6C18.8 33.1 19.2 34.1 19.8 35L19.5 35.3C19.2 35.6 19.2 36.2 19.5 36.5L21.1 38.1C21.4 38.4 22 38.4 22.3 38.1L22.5 37.9C23.4 38.5 24.4 38.9 25.4 39.1V39.4C25.4 39.9 25.8 40.3 26.3 40.3H28.5C29 40.3 29.4 39.9 29.4 39.4V39C30.5 38.8 31.4 38.3 32.3 37.8L32.5 38C32.8 38.3 33.4001 38.3 33.7001 38L35.3 36.4C35.6 36.1 35.6 35.5 35.3 35.2L35.2001 35C35.8001 34.1 36.2 33.1 36.4 32.1H36.8C37.3 32.1 37.7001 31.7 37.7001 31.2V29C37.7001 28.5 37.3 28.1 36.8 28.1ZM27.5 34.7C25 34.7 22.9 32.7 22.9 30.1C22.9 27.6 24.9 25.5 27.5 25.5C30 25.5 32.1 27.5 32.1 30.1C32.1 32.6 30 34.7 27.5 34.7Z" fill="#D7E057"/>
<path d="M28.6 40.7H26.4C25.7 40.7 25.1 40.1 25.1 39.4C24.3 39.2 23.4 38.8 22.7 38.4C22.5 38.6 22.1 38.8 21.8 38.8C21.4 38.8 21.1 38.7 20.9 38.4L19.3 36.8C18.8 36.3 18.8 35.5 19.3 34.9C18.9 34.1 18.5 33.3 18.3 32.5C17.6 32.5 17 31.9 17 31.2V29C17 28.3 17.6 27.7 18.3 27.7H18.4C18.6 26.9 19 26.1 19.4 25.3L19.3 25.2C18.8 24.7 18.8 23.9 19.3 23.3L20.9 21.7C21.1 21.5 21.5 21.3 21.8 21.3C22.2 21.3 22.5 21.4 22.7 21.7L22.8 21.8C23.6 21.4 24.6 21 25.1 20.8V20.7C25.1 20 25.7 19.4 26.4 19.4H28.6C29.3 19.4 29.9 20 29.9 20.7V20.8C30.7 21 31.5 21.3 32.3 21.8L32.4 21.7C32.9 21.2 33.7 21.2 34.3 21.7L35.9 23.3C36.4 23.8 36.4 24.6 35.9 25.2L35.8 25.3C36.2 26 36.6 26.8 36.8 27.7H36.9C37.6 27.7 38.2 28.3 38.2 29V31.2C38.2 31.9 37.6 32.5 36.9 32.5C36.7 33.3 36.4 34.1 35.9 34.9C36.4 35.4 36.4 36.2 35.9 36.8L34.3 38.4C33.8 38.9 33 38.9 32.4 38.4C31.6 38.8 30.8 39.2 30 39.4C29.9 40.1 29.3 40.7 28.6 40.7ZM22.6 37.4C22.7 37.4 22.8 37.4 22.8 37.5C23.7 38 24.6 38.4 25.6 38.7C25.8 38.7 25.9 38.9 25.9 39.1V39.4C25.9 39.6 26.1 39.8 26.3 39.8H28.5C28.7 39.8 28.9 39.6 28.9 39.4V39C28.9 38.8 29 38.6 29.2 38.6C30.2 38.4 31.1 38 32 37.4C32.2 37.3 32.4 37.3 32.5 37.5L32.7 37.7C32.9 37.9 33.1 37.9 33.3 37.7L34.9 36.1C35.1 35.9 35.1 35.7 34.9 35.5L34.6 35.2C34.5 35.1 34.4 34.8 34.5 34.7C35 33.8 35.4 32.9 35.6 31.9C35.6 31.7 35.8 31.6 36 31.6H36.4C36.6 31.6 36.8 31.4 36.8 31.2V29C36.8 28.8 36.6 28.6 36.4 28.6H36C35.8 28.6 35.6 28.5 35.6 28.3C35.4 27.3 35 26.4 34.5 25.6C34.4 25.4 34.4 25.2 34.6 25.1L34.9 24.8C35.1 24.6 35.1 24.4 34.9 24.2L33.3 22.6C33.1 22.4 32.9 22.4 32.7 22.6L32.4 22.9C32.3 23 32 23.1 31.9 23C31.1 22.5 30.1 22.1 29.2 21.9C29 21.9 28.9 21.7 28.9 21.5V21.1C28.9 20.9 28.7 20.7 28.5 20.7H26.3C26.1 20.7 25.9 20.9 25.9 21.1V21.5C25.9 21.7 25.8 21.9 25.6 21.9C25.1 22 23.7 22.5 22.9 23C22.7 23.1 22.5 23.1 22.4 22.9L22 22.4C21.8 22.2 21.5 22.2 21.4 22.4L19.8 24C19.6 24.2 19.6 24.4 19.8 24.6L20.1 24.9C20.2 25 20.3 25.3 20.2 25.4C19.7 26.2 19.3 27.2 19.1 28.1C19.1 28.3 18.9 28.4 18.7 28.4H18.3C18.1 28.4 17.9 28.6 17.9 28.8V31C17.9 31.2 18.1 31.4 18.3 31.4H18.7C18.9 31.4 19.1 31.5 19.1 31.7C19.3 32.7 19.7 33.6 20.2 34.5C20.3 34.7 20.3 34.9 20.1 35L19.8 35.3C19.6 35.5 19.6 35.7 19.8 35.9L21.4 37.5C21.6 37.7 21.9 37.7 22 37.5L22.2 37.3C22.4 37.4 22.5 37.4 22.6 37.4ZM27.5 35.1C24.7 35.1 22.5 32.9 22.5 30.1C22.5 27.3 24.7 25.1 27.5 25.1C30.3 25.1 32.5 27.3 32.5 30.1C32.5 32.9 30.3 35.1 27.5 35.1ZM27.5 26C25.2 26 23.4 27.8 23.4 30.1C23.4 32.4 25.2 34.2 27.5 34.2C29.8 34.2 31.6 32.4 31.6 30.1C31.6 27.8 29.8 26 27.5 26Z" fill="#35414D"/>
<path d="M28.6 41.1H26.4C25.6 41.1 24.9 40.5 24.7 39.7C24 39.5 23.3 39.2 22.7 38.9C22 39.4 21.1 39.3 20.5 38.7L18.9 37.1C18.6 36.8 18.4 36.3 18.4 35.9C18.4 35.5 18.5 35.2 18.7 34.9C18.4 34.3 18.1 33.6 17.9 32.9C17.1 32.8 16.5 32.1 16.5 31.2V29C16.5 28.1 17.1 27.4 18 27.3C18.2 26.6 18.5 26 18.8 25.4C18.3 24.7 18.4 23.8 19 23.2L20.6 21.6C21.2 21 22.2 20.9 22.9 21.5C23.6 21.2 24.3 20.9 24.8 20.7C24.9 19.8 25.6 19.2 26.5 19.2H28.7C29.6 19.2 30.3 19.9 30.4 20.7C31.1 20.9 31.7 21.2 32.3 21.5C33 21 34 21 34.6 21.6L36.2 23.2C36.8 23.8 36.9 24.8 36.4 25.4C36.7 26 37 26.7 37.2 27.3C38.1 27.4 38.7 28.1 38.7 29V31.2C38.7 32.1 38.1 32.8 37.3 32.9C37.1 33.6 36.8 34.2 36.5 34.9C37 35.6 36.9 36.5 36.3 37.1L34.7 38.7C34.1 39.3 33.2 39.4 32.5 38.9C31.9 39.3 31.2 39.5 30.5 39.7C30.2 40.5 29.5 41.1 28.6 41.1ZM22.6 37.9L22.9 38.1C23.6 38.5 24.4 38.9 25.2 39.1L25.5 39.2V39.5C25.5 40 25.9 40.4 26.4 40.4H28.6C29.1 40.4 29.5 40 29.5 39.5V39.2L29.8 39.1C30.6 38.9 31.4 38.6 32.1 38.1L32.4 37.9L32.6 38.1C33 38.5 33.5 38.5 33.9 38.1L35.5 36.5C35.9 36.1 35.9 35.6 35.5 35.2L35.3 35L35.4 34.7C35.8 34 36.1 33.2 36.3 32.4L36.4 32.1H36.7C37.2 32.1 37.6 31.7 37.6 31.2V29C37.6 28.5 37.2 28.1 36.7 28.1H36.4L36.3 27.8C36.1 27 35.8 26.2 35.3 25.5L35.1 25.2L35.3 25C35.7 24.6 35.7 24 35.4 23.7L33.8 22.1C33.4 21.7 32.9 21.7 32.5 22.1L32.3 22.3L32 22.2C31.3 21.8 30.5 21.5 29.7 21.3L29.4 21.2V20.9C29.4 20.3 29 19.9 28.5 19.9H26.3C25.8 19.9 25.4 20.3 25.4 20.8V21.2L25.1 21.3C24.8 21.4 23.7 21.8 22.8 22.2L22.5 22.3L22.3 22.1C21.8 21.6 21.3 21.7 20.9 22L19.3 23.6C18.9 24 18.9 24.5 19.3 24.9L19.5 25.1L19.4 25.4C19 26.1 18.7 26.9 18.4 27.7L18.3 28H18C17.4 28 17 28.4 17 28.9V31.1C17 31.6 17.4 32 17.9 32H18.2L18.3 32.3C18.5 33.1 18.8 33.9 19.2 34.6L19.4 34.9L19.2 35.1C19 35.3 18.9 35.5 18.9 35.8C18.9 36 19 36.3 19.2 36.4L20.8 38C21.1 38.3 21.7 38.3 22.1 38L22.6 37.9ZM28.6 40.2H26.4C25.9 40.2 25.6 39.8 25.6 39.4V39C24.5 38.7 23.6 38.3 22.7 37.8L22.3 38C22.1 38.2 21.9 38.2 21.7 38.2C21.5 38.2 21.3 38.1 21.1 38L19.5 36.4C19.3 36.2 19.3 36 19.3 35.8C19.3 35.6 19.4 35.4 19.5 35.2L19.8 34.9C19.2 34 18.8 33 18.6 32H18.2C17.7 32 17.4 31.6 17.4 31.2V29C17.4 28.5 17.8 28.2 18.2 28.2H18.6C18.9 27.2 19.3 26.2 19.8 25.3L19.5 25C19.3 24.8 19.3 24.6 19.3 24.4C19.3 24.2 19.4 24 19.5 23.8L21.1 22.2C21.4 21.9 22 21.9 22.3 22.2L22.6 22.5C23.5 22 24.9 21.5 25.5 21.3V20.8C25.5 20.3 25.9 20 26.3 20H28.5C29 20 29.3 20.4 29.3 20.8V21.2C30.3 21.5 31.3 21.9 32.2 22.4L32.6 22.1C32.9 21.8 33.5 21.8 33.8 22.1L35.4 23.7C35.6 23.9 35.6 24.1 35.6 24.3C35.6 24.5 35.5 24.7 35.4 24.9L35.1 25.2C35.7 26.1 36.1 27.1 36.3 28.1H36.7C37.2 28.1 37.5 28.5 37.5 28.9V31.1C37.5 31.6 37.1 31.9 36.7 31.9H36.3C36 33 35.6 33.9 35.1 34.8L35.4 35.1C35.7 35.4 35.7 36 35.4 36.3L33.9 38C33.6 38.3 33 38.3 32.7 38L32.5 37.8C31.6 38.4 30.6 38.8 29.6 39V39.4C29.5 39.8 29.1 40.2 28.6 40.2ZM22.6 37C22.8 37 22.9 37 23.1 37.1C23.9 37.6 24.8 38 25.7 38.2C26.1 38.3 26.4 38.6 26.4 39V39.3H28.7V38.9C28.7 38.5 29 38.2 29.4 38.1C30.3 37.9 31.2 37.5 32 37C32.3 36.8 32.8 36.8 33 37.1L33.2 37.3L34.8 35.7L34.5 35.4C34.2 35.1 34.2 34.7 34.4 34.4C34.9 33.6 35.3 32.7 35.5 31.8C35.6 31.4 35.9 31.1 36.3 31.1H36.7V28.8H36.3C35.9 28.8 35.6 28.5 35.5 28.1C35.3 27.2 34.9 26.3 34.4 25.5C34.2 25.2 34.2 24.7 34.5 24.5L34.8 24.2L33.2 22.6L32.9 23C32.6 23.3 32.2 23.3 31.9 23.1C31.1 22.6 30.2 22.2 29.3 22C28.9 21.9 28.6 21.6 28.6 21.2V20.8H26.3V21.3C26.3 21.7 26 22 25.7 22.1C25.2 22.2 23.8 22.7 23.1 23.2C22.8 23.4 22.3 23.4 22.1 23.1L21.8 22.8L20.2 24.4L20.5 24.7C20.8 25 20.8 25.4 20.6 25.7C20.1 26.5 19.7 27.4 19.5 28.3C19.4 28.7 19.1 29 18.7 29H18.3V31.3H18.7C19.1 31.3 19.4 31.6 19.5 32C19.7 32.9 20.1 33.8 20.6 34.6C20.8 34.9 20.8 35.4 20.5 35.6L20.2 35.9L21.8 37.5L22.1 37.3C22.2 37.1 22.4 37 22.6 37ZM27.5 35.5C24.5 35.5 22.1 33.1 22.1 30.1C22.1 27.1 24.5 24.7 27.5 24.7C30.5 24.7 32.9 27.1 32.9 30.1C32.9 33.1 30.5 35.5 27.5 35.5ZM27.5 25.5C25 25.5 22.9 27.6 22.9 30.1C22.9 32.6 25 34.7 27.5 34.7C30 34.7 32.1 32.6 32.1 30.1C32.1 27.6 30 25.5 27.5 25.5ZM27.5 34.6C25 34.6 23 32.6 23 30.1C23 27.6 25 25.6 27.5 25.6C30 25.6 32 27.6 32 30.1C32 32.6 30 34.6 27.5 34.6ZM27.5 26.4C25.5 26.4 23.8 28.1 23.8 30.1C23.8 32.1 25.5 33.8 27.5 33.8C29.5 33.8 31.2 32.1 31.2 30.1C31.2 28.1 29.5 26.4 27.5 26.4Z" fill="#36414D"/>
<path d="M43.9 14.5H31.4C30.7 14.5 30.2 13.9 30.2 13.3C30.2 12.6 30.8 12.1 31.4 12.1H43.9C44.6 12.1 45.0999 12.7 45.0999 13.3C45.1999 13.9 44.6 14.5 43.9 14.5Z" fill="#6E808E"/>
</g>
<defs>
<clipPath id="clip0_684_3353">
<rect width="45" height="40" fill="white" transform="translate(5 8)"/>
</clipPath>
</defs>
</svg>
