<svg width="56" height="57" viewBox="0 0 56 57" fill="none" xmlns="http://www.w3.org/2000/svg">
<mask id="mask0_662_7800" style="mask-type:alpha" maskUnits="userSpaceOnUse" x="0" y="0" width="56" height="57">
<rect y="0.5" width="56" height="56" fill="#D9D9D9"/>
</mask>
<g mask="url(#mask0_662_7800)">
</g>
<g clip-path="url(#clip0_662_7800)">
<path d="M31.21 24.4803C32.11 26.0803 32.41 27.9803 32.31 29.6803C32.31 29.9803 32.21 30.2803 32.21 30.5803C32.21 30.8803 32.11 31.1803 32.01 31.4803C31.81 32.1803 31.61 32.7803 31.21 33.4803C29.71 36.3803 26.71 38.2803 23.41 38.2803H14.61C9.70995 38.2803 5.70996 34.1803 5.70996 28.9803C5.70996 23.8803 9.70995 19.6803 14.61 19.6803H23.41C25.01 19.6803 26.51 20.1803 27.91 20.8803C27.21 21.2803 26.61 21.7803 26.11 22.3803C25.51 22.9803 25.01 23.6803 24.61 24.4803C24.21 24.3803 23.91 24.3803 23.51 24.3803H14.71C12.21 24.3803 10.21 26.4803 10.21 28.9803C10.21 31.5803 12.21 33.5803 14.71 33.5803H23.51C26.01 33.5803 28.01 31.4803 28.01 28.9803C27.91 26.7803 29.31 24.9803 31.21 24.4803Z" fill="#FBBC05"/>
<path d="M50.0497 28.9496C50.0497 23.8496 46.0497 19.6496 41.1497 19.6496H32.3497C27.4497 19.6496 23.4497 23.7496 23.4497 28.9496C23.4497 30.5496 23.8497 32.1496 24.5497 33.4496C26.4497 32.9496 27.8497 31.1496 27.8497 28.9496C27.8497 26.3496 29.8497 24.3496 32.3497 24.3496H41.2497C43.6497 24.4496 45.5497 26.4496 45.5497 28.9496C45.5497 31.5496 43.5497 33.5496 41.0497 33.5496H32.2497C31.8497 33.5496 31.5497 33.5496 31.1497 33.4496C30.7497 34.2496 30.2497 34.9496 29.6497 35.5496C29.1497 36.1496 28.4497 36.6496 27.8497 37.0496C29.1497 37.8496 30.6497 38.2496 32.3497 38.2496H41.1497C46.0497 38.2496 50.0497 34.0496 50.0497 28.9496Z" fill="#4285F4"/>
<path d="M23.4452 38.9209H14.6452C9.34516 38.9209 5.04517 34.4209 5.04517 28.9209C5.04517 23.4209 9.34516 18.9209 14.6452 18.9209H23.4452C25.1452 18.9209 26.8452 19.4209 28.2452 20.2209C28.4452 20.3209 28.6452 20.6209 28.6452 20.8209C28.6452 20.9209 28.6452 21.1209 28.5452 21.2209C28.3452 21.5209 27.8452 21.7209 27.5452 21.4209C26.3452 20.7209 24.8452 20.3209 23.4452 20.3209H14.6452C10.1452 20.3209 6.44516 24.1209 6.44516 28.8209C6.44516 33.5209 10.1452 37.3209 14.6452 37.3209H23.4452C27.9452 37.3209 31.6452 33.5209 31.6452 28.8209C31.6452 27.3209 31.2452 25.9209 30.6452 24.7209C30.5452 24.6209 30.5452 24.5209 30.5452 24.4209C30.5452 24.1209 30.6452 23.9209 30.9452 23.8209C31.3452 23.6209 31.7452 23.7209 31.9452 24.1209C32.7452 25.6209 33.1452 27.2209 33.1452 28.9209C33.0452 34.5209 28.7452 38.9209 23.4452 38.9209Z" fill="#35414D"/>
<path d="M41.1211 34.3451H32.3211C31.9211 34.3451 31.4211 34.2451 31.0211 34.1451C30.6211 34.0451 30.4211 33.6451 30.5211 33.2451C30.6211 32.8451 31.0211 32.6451 31.4211 32.7451C31.7211 32.8451 32.0211 32.8451 32.3211 32.8451H41.1211C43.2211 32.8451 44.8211 31.0451 44.8211 28.9451C44.8211 27.0451 43.5211 25.4451 41.7211 25.0451C41.3211 24.9451 41.0211 24.6451 41.1211 24.2451C41.2211 23.8451 41.5211 23.6451 41.9211 23.6451C44.4211 24.0451 46.2211 26.3451 46.2211 28.9451C46.3211 31.9451 44.0211 34.3451 41.1211 34.3451Z" fill="#35414D"/>
<path d="M23.4763 34.3287H14.6763C11.7763 34.3287 9.47632 31.9287 9.47632 28.9287C9.47632 25.9287 11.7763 23.5287 14.6763 23.5287H23.4763C23.8763 23.5287 24.3763 23.6287 24.7763 23.7287C25.1763 23.8287 25.3763 24.2287 25.2763 24.6287C25.1763 25.0287 24.7763 25.2287 24.3763 25.1287C24.0763 25.0287 23.7763 25.0287 23.4763 25.0287H14.6763C12.5763 25.0287 10.9763 26.8287 10.9763 28.9287C10.9763 31.1287 12.6763 32.8287 14.6763 32.8287H23.4763C25.5763 32.8287 27.1763 31.0287 27.1763 28.9287C27.1763 25.9287 29.4763 23.5287 32.3763 23.5287H35.9763C36.3763 23.5287 36.6763 23.8287 36.6763 24.2287C36.6763 24.6287 36.3763 24.9287 35.9763 24.9287H32.3763C30.2763 24.9287 28.6763 26.7287 28.6763 28.8287C28.5763 31.9287 26.2763 34.3287 23.4763 34.3287Z" fill="#35414D"/>
<path d="M41.155 38.9791H32.355C30.655 38.9791 28.955 38.4791 27.555 37.6791C27.355 37.5791 27.155 37.2791 27.155 37.0791C27.155 36.9791 27.155 36.7791 27.255 36.6791C27.455 36.3791 27.855 36.1791 28.255 36.4791C29.455 37.1791 30.955 37.5791 32.355 37.5791H41.155C45.655 37.5791 49.355 33.7791 49.355 29.0791C49.355 26.7791 48.455 24.6791 46.955 23.0791C45.455 21.4791 43.355 20.5791 41.155 20.5791H32.355C27.855 20.5791 24.155 24.3791 24.155 29.0791C24.155 30.4791 24.555 31.9791 25.155 33.1791C25.255 33.2791 25.255 33.3791 25.255 33.4791C25.255 33.7791 25.155 33.9791 24.855 34.0791C24.455 34.2791 24.055 34.1791 23.855 33.7791C23.055 32.2791 22.655 30.6791 22.655 28.9791C22.655 23.4791 26.955 18.9791 32.255 18.9791H41.055C43.655 18.9791 46.055 19.9791 47.855 21.8791C49.655 23.7791 50.655 26.2791 50.655 28.8791C50.755 34.4791 46.455 38.9791 41.155 38.9791Z" fill="#35414D"/>
<path d="M38.9317 25.1416C38.5317 25.1416 38.2317 24.8416 38.2317 24.3416C38.2317 23.9416 38.5317 23.5416 38.9317 23.5416C39.3317 23.5416 39.6317 23.8416 39.6317 24.3416C39.6317 24.7416 39.3317 25.1416 38.9317 25.1416Z" fill="#35414D"/>
<path d="M27.8792 49.0207C27.4792 49.0207 27.1792 48.7207 27.1792 48.3207V43.7207C27.1792 43.3207 27.4792 43.0207 27.8792 43.0207C28.2792 43.0207 28.5792 43.3207 28.5792 43.7207V48.3207C28.5792 48.7207 28.2792 49.0207 27.8792 49.0207Z" fill="#35414D"/>
<path d="M20.3 46.7C20.1 46.7 19.9 46.6 19.8 46.5C19.5 46.2 19.5 45.8 19.8 45.5L23 42.2C23.3 41.9 23.7 41.9 24 42.2C24.3 42.5 24.3 42.9 24 43.2L20.8 46.5C20.7 46.7 20.5 46.7 20.3 46.7Z" fill="#35414D"/>
<path d="M35.5 46.7C35.3 46.7 35.1 46.6 35 46.5L31.8 43.2C31.5 42.9 31.5 42.5 31.8 42.2C32.1 41.9 32.5 41.9 32.8 42.2L36 45.5C36.3 45.8 36.3 46.2 36 46.5C35.8 46.7 35.6 46.7 35.5 46.7Z" fill="#35414D"/>
<path d="M27.8792 15.1207C27.4792 15.1207 27.1792 14.8207 27.1792 14.4207V9.8207C27.1792 9.4207 27.4792 9.1207 27.8792 9.1207C28.2792 9.1207 28.5792 9.4207 28.5792 9.8207V14.4207C28.5792 14.7207 28.2792 15.1207 27.8792 15.1207Z" fill="#35414D"/>
<path d="M23.5 16C23.3 16 23.1 15.9 23 15.8L19.8 12.5C19.5 12.2 19.5 11.8 19.8 11.5C20.1 11.2 20.5 11.2 20.8 11.5L24 14.8C24.3 15.1 24.3 15.5 24 15.8C23.8 15.9 23.7 16 23.5 16Z" fill="#35414D"/>
<path d="M32.3 16C32.1 16 31.9 15.9 31.8 15.8C31.5 15.5 31.5 15.1 31.8 14.8L35 11.5C35.3 11.2 35.7 11.2 36 11.5C36.3 11.8 36.3 12.2 36 12.5L32.8 15.8C32.7 15.9 32.5 16 32.3 16Z" fill="#35414D"/>
</g>
<defs>
<clipPath id="clip0_662_7800">
<rect width="45.8" height="40" fill="white" transform="translate(5 9)"/>
</clipPath>
</defs>
</svg>
