<svg width="56" height="57" viewBox="0 0 56 57" fill="none" xmlns="http://www.w3.org/2000/svg">
<mask id="mask0_682_2388" style="mask-type:alpha" maskUnits="userSpaceOnUse" x="0" y="0" width="56" height="57">
<rect y="0.5" width="56" height="56" fill="#D9D9D9"/>
</mask>
<g mask="url(#mask0_682_2388)">
</g>
<g clip-path="url(#clip0_682_2388)">
<path d="M22.3799 13.11C27.5099 13.11 31.7399 17.34 31.7399 22.56V22.2H36.4199C36.2399 14.64 30.2099 8.61 22.8299 8.43V13.11H22.3799Z" fill="#E74339"/>
<path d="M43.1699 40.29L39.8399 43.62L28.6799 32.28L32.0099 28.95L43.1699 40.29Z" fill="#4489F1"/>
<path d="M36.4199 22.2H31.7399V22.56C31.7399 27.78 27.5099 32.01 22.3799 32.01H22.7399V36.78C30.2099 36.6 36.1499 30.48 36.3299 23.01C36.3299 22.92 36.3299 22.74 36.3299 22.65L36.4199 22.2Z" fill="#4489F1"/>
<path d="M22.3799 32.01C17.2499 32.01 13.0199 27.78 13.0199 22.56V22.92H12.6599H8.42993C8.60993 30.48 14.6399 36.6 22.0199 36.78C22.1099 36.78 22.2899 36.78 22.3799 36.78H22.7399V32.01H22.3799Z" fill="#38A856"/>
<path d="M13.1099 23.01V22.65C13.1099 17.43 17.3399 13.2 22.4699 13.2H22.8299V8.43H22.4699C22.3799 8.43 22.1999 8.43 22.1099 8.43C14.6399 8.61 8.60993 14.64 8.42993 22.2C8.42993 22.29 8.42993 22.47 8.42993 22.56V22.92H12.7499L13.1099 23.01Z" fill="#FABC2D"/>
<path d="M31.47 36.24L33.36 38.04L35.52 40.2L43.17 47.94L45.51 41.73L35.79 31.92L31.47 36.24Z" fill="#5D6D7E"/>
<path d="M45.6001 50.55C44.5201 50.55 43.4401 50.1 42.7201 49.29L33.9001 40.38C33.7201 40.2 33.7201 39.93 33.9001 39.75L39.0301 34.53C39.1201 34.44 39.2101 34.44 39.3901 34.44C39.4801 34.44 39.6601 34.53 39.7501 34.53L48.5701 43.44C49.3801 44.25 49.7401 45.24 49.7401 46.41C49.7401 47.49 49.2901 48.57 48.5701 49.38C47.6701 50.1 46.6801 50.55 45.6001 50.55Z" fill="#FF8E31"/>
<path d="M39.3 34.89L48.12 43.8C48.75 44.43 49.2 45.42 49.2 46.41C49.2 47.4 48.75 48.39 48.12 49.02C47.49 49.65 46.59 50.1 45.6 50.1C44.61 50.1 43.71 49.65 42.99 49.02L34.17 40.11L39.3 34.89ZM39.3 33.99C39.03 33.99 38.85 34.08 38.67 34.26L33.54 39.48C33.18 39.84 33.18 40.38 33.54 40.74L42.36 49.65C43.26 50.55 44.34 51 45.6 51C46.86 51 47.94 50.55 48.84 49.65C49.74 48.75 50.19 47.58 50.19 46.41C50.19 45.15 49.74 44.07 48.84 43.17L40.02 34.26C39.84 34.08 39.57 33.99 39.3 33.99Z" fill="#35414D"/>
<path d="M38.1299 36.06L38.8499 35.34L47.6699 44.25C48.2099 44.79 48.5699 45.6 48.5699 46.32C48.5699 47.13 48.2999 47.85 47.6699 48.39C47.5799 48.48 47.3999 48.57 47.3099 48.57C47.2199 48.57 47.0399 48.48 46.9499 48.39C46.7699 48.21 46.7699 47.85 46.9499 47.67C47.3099 47.31 47.4899 46.77 47.4899 46.32C47.4899 45.78 47.3099 45.33 46.9499 44.97L38.1299 36.06Z" fill="#FECE59"/>
<path d="M33.63 40.83L40.02 34.35L39.57 33.9C39.3 33.63 38.85 33.45 38.49 33.45C38.04 33.45 37.68 33.63 37.32 33.9L33.18 38.13C32.91 38.4 32.73 38.85 32.73 39.3C32.73 39.75 32.91 40.11 33.18 40.47L33.63 40.83Z" fill="#35414D"/>
<path opacity="0.05" d="M22.56 8.97C15.09 8.97 8.96997 15.09 8.96997 22.74C8.96997 30.3 15.09 36.51 22.56 36.51C30.03 36.51 36.15 30.39 36.15 22.74C36.15 15.18 30.03 8.97 22.56 8.97Z" fill="#34495E"/>
<path d="M22.56 6C13.38 6 6 13.47 6 22.74C6 32.01 13.38 39.48 22.56 39.48C31.65 39.48 39.12 32.01 39.12 22.74C39.12 13.47 31.65 6 22.56 6ZM22.56 37.68C14.37 37.68 7.8 31.02 7.8 22.74C7.8 14.46 14.37 7.8 22.56 7.8C30.66 7.8 37.32 14.46 37.32 22.74C37.32 31.02 30.66 37.68 22.56 37.68Z" fill="#35414D"/>
<path d="M22.56 7.8C14.37 7.8 7.80005 14.46 7.80005 22.74C7.80005 31.02 14.37 37.68 22.56 37.68C30.66 37.68 37.32 31.02 37.32 22.74C37.32 14.46 30.66 7.8 22.56 7.8ZM22.56 36.51C15.09 36.51 8.97005 30.39 8.97005 22.74C8.97005 15.18 15.09 8.97 22.56 8.97C30.03 8.97 36.15 15.09 36.15 22.74C36.15 30.3 30.03 36.51 22.56 36.51Z" fill="#5D6D7E"/>
<path opacity="0.2" d="M22.9199 11.22C22.6499 10.86 22.2899 10.68 21.8399 10.68C19.9499 10.77 18.2399 11.31 16.6199 12.3C16.0799 12.66 15.8999 13.38 16.1699 13.92C16.5299 14.46 17.2499 14.73 17.7899 14.37C19.0499 13.65 20.4899 13.2 22.0199 13.11C22.6499 13.11 23.1899 12.48 23.0999 11.85C23.0999 11.67 23.0099 11.4 22.9199 11.22Z" fill="white"/>
<path opacity="0.2" d="M15.18 15.27C15.09 15.18 15 15.09 14.91 15C14.37 14.55 13.65 14.64 13.2 15.18C11.94 16.71 11.13 18.51 10.77 20.49C10.32 22.83 10.59 25.17 11.4 27.33C11.67 27.96 12.39 28.23 12.93 27.96C13.56 27.69 13.83 26.97 13.56 26.34C12.84 24.63 12.66 22.74 13.02 20.94C13.29 19.41 14.01 17.97 15 16.71C15.45 16.26 15.54 15.63 15.18 15.27Z" fill="white"/>
</g>
<defs>
<clipPath id="clip0_682_2388">
<rect width="44.1" height="45" fill="white" transform="translate(6 6)"/>
</clipPath>
</defs>
</svg>
