<svg width="198" height="180" viewBox="0 0 198 180" fill="none" xmlns="http://www.w3.org/2000/svg">
<g clip-path="url(#clip0_836_5175)">
<path d="M185.4 137.3C183.3 136.9 181.7 135.3 181.3 133.2C181.3 133.1 181.1 133.1 181.1 133.2C180.7 135.3 179 136.9 177 137.3C176.9 137.3 176.9 137.4 177 137.5C179.1 137.9 180.7 139.5 181.1 141.6C181.1 141.7 181.3 141.7 181.3 141.6C181.7 139.5 183.4 137.9 185.4 137.5C185.5 137.4 185.5 137.3 185.4 137.3Z" fill="#F5C84C"/>
<path d="M185.3 31C188.3 30.5 190.6 28.1 191.2 25.2C191.2 25.1 191.5 25.1 191.5 25.2C192.1 28.1 194.4 30.4 197.4 31C197.5 31 197.5 31.2 197.4 31.3C194.4 31.8 192.1 34.2 191.5 37.1C191.5 37.2 191.2 37.2 191.2 37.1C190.6 34.2 188.3 31.9 185.3 31.3C185.1 31.2 185.1 31 185.3 31Z" fill="#FC657E"/>
<path d="M124.9 127.6C116.8 133.1 111.6 141.3 109.6 150.2C109.4 151 108.5 151.4 107.8 151.1C105.5 150 102.9 149.5 100.2 149.8C95.5 150.2 91.5 152.8 89.1 156.4C88.6 157.1 88.7 158.2 89.3 158.8C92.1 161.7 96 163.4 100.2 163.4C101.2 163.4 101.9 164.4 101.5 165.4C99.9 169.3 100.1 173.5 101.8 177.2C102.2 178 103.1 178.5 103.9 178.3C108.2 177.4 112 174.6 114.1 170.4C115.3 168 115.8 165.4 115.7 162.8C115.7 162 116.4 161.3 117.2 161.4C126.2 162.8 135.7 160.9 143.8 155.4C152.8 149.2 158.2 139.8 159.6 129.8C160.1 126.3 157.8 123 154.4 122.2C144.7 119.8 133.9 121.5 124.9 127.6Z" fill="#FC657E"/>
<path d="M124.9 127.6C127.8 125.6 130.8 124.1 134 123.1C132 122.2 129.8 121.6 127.4 121.4C120.4 120.7 113.9 123.2 109.3 127.9C108.4 128.8 108.2 130.3 108.9 131.4C110.5 133.9 112.5 136 114.9 137.6C117.6 133.8 120.9 130.4 124.9 127.6Z" fill="#F98FA6"/>
<path d="M124.6 161.9C125 164.4 126.1 166.8 127.7 168.8C128.3 169.5 129.2 169.7 130 169.3C133.9 167.3 136.9 163.7 137.9 159.1C137.9 159 137.9 158.9 138 158.7C133.8 160.6 129.2 161.7 124.6 161.9Z" fill="#F98FA6"/>
<path d="M139.3 121.7C137.4 126.7 137.9 132.4 141.2 137.1C144.3 141.7 149.3 144.2 154.5 144.4C157.3 139.9 159.1 134.9 159.8 129.8C160.3 126.3 158 123 154.6 122.2C149.6 121 144.4 120.8 139.3 121.7Z" fill="#F98FA6"/>
<path d="M104.3 179.9C102.7 180.2 101 179.4 100.3 177.9C98.5 173.9 98.3 169.2 99.9 165.1C95.5 165.1 91.2 163.2 88.1 160C86.9 158.8 86.8 156.9 87.7 155.5C90.5 151.3 95 148.6 100 148.1C102.8 147.8 105.5 148.3 108.1 149.4C110.3 139.9 115.9 131.7 124 126.2C133 120 144.3 118 154.9 120.5C159.2 121.5 162 125.6 161.4 130C159.9 140.8 153.9 150.6 144.9 156.7C136.9 162.2 127.2 164.4 117.5 163C117.6 165.7 117 168.5 115.7 171C113.4 175.6 109.3 178.8 104.3 179.9ZM98.9 151.7C95.5 152.4 92.5 154.4 90.5 157.4C90.4 157.5 90.5 157.6 90.5 157.7C93 160.3 96.6 161.8 100.2 161.7C101.2 161.7 102.2 162.2 102.8 163C103.4 163.8 103.5 164.9 103.1 165.9C101.7 169.3 101.8 173.1 103.3 176.4C103.3 176.5 103.5 176.6 103.6 176.5C107.6 175.6 110.9 173.1 112.7 169.4C113.7 167.3 114.2 165 114.1 162.7C114 161.8 114.4 161 115.1 160.3C115.8 159.7 116.7 159.4 117.5 159.6C126.4 161 135.5 159 142.9 153.9C151.1 148.3 156.7 139.4 158 129.5C158.4 126.8 156.7 124.3 154 123.7C144.3 121.4 134 123.3 125.7 128.9C118.2 134 113.1 141.7 111.1 150.5C110.9 151.4 110.3 152.1 109.5 152.5C108.7 152.9 107.8 152.9 107 152.5C104.9 151.5 102.6 151.1 100.2 151.3C99.9 151.5 99.4 151.6 98.9 151.7Z" fill="#35414D"/>
<path d="M115.4 139.2C115.3 139.2 115.3 139.2 115.4 139.2C114.9 139.3 114.5 139.2 114.1 138.9C111.5 137.1 109.3 134.8 107.6 132.2C106.5 130.4 106.7 128.1 108.2 126.6C113.3 121.4 120.4 118.9 127.7 119.7C130.1 120 132.5 120.6 134.7 121.6C135.3 121.9 135.7 122.5 135.7 123.2C135.7 123.9 135.2 124.5 134.6 124.7C131.5 125.7 128.6 127.2 125.9 129C122.1 131.6 119 134.8 116.4 138.5C116.2 138.9 115.8 139.2 115.4 139.2ZM121 123.3C117.1 124.1 113.5 126 110.6 129C110.2 129.4 110.2 130 110.5 130.5C111.7 132.3 113.1 133.9 114.8 135.3C117.4 131.8 120.5 128.8 124.1 126.3C125.7 125.2 127.5 124.2 129.2 123.3C128.6 123.2 128 123.1 127.4 123C125.1 122.8 123 122.9 121 123.3Z" fill="#35414D"/>
<path d="M130 171C128.7 171.3 127.3 170.8 126.5 169.7C124.7 167.5 123.5 164.8 123 162C122.9 161.5 123 161 123.3 160.7C123.6 160.3 124 160.1 124.5 160.1C129 159.9 133.3 158.9 137.4 157.1C138 156.8 138.6 156.9 139.1 157.3C139.6 157.7 139.8 158.3 139.7 158.9V159C139.7 159.1 139.7 159.2 139.6 159.3C138.5 164.3 135.3 168.4 130.8 170.7C130.5 170.9 130.3 171 130 171ZM126.7 163.4C127.2 165 128 166.4 129 167.7C129.1 167.8 129.2 167.8 129.3 167.8C132 166.4 134.2 164.2 135.4 161.5C132.6 162.5 129.7 163.1 126.7 163.4Z" fill="#35414D"/>
<path d="M147.6 131.4C147 131.5 146.3 131.3 145.9 130.7C145.4 129.9 145.6 128.9 146.3 128.4L146.9 128C147.7 127.5 148.7 127.7 149.2 128.4C149.7 129.2 149.5 130.2 148.8 130.7L148.2 131.1C148 131.3 147.8 131.4 147.6 131.4Z" fill="#35414D"/>
<path d="M120.8 149.3C120 149.5 119.2 149.1 118.9 148.3C117.8 145.6 118.7 142.4 121.1 140.7C122.3 139.9 123.8 139.5 125.3 139.6C125.7 138.2 126.6 137 127.8 136.1C130.2 134.4 133.6 134.7 135.7 136.8C136.4 137.4 136.4 138.5 135.7 139.1C135.1 139.8 134 139.8 133.4 139.1C132.4 138.1 130.9 138 129.7 138.8C128.8 139.4 128.3 140.5 128.4 141.5C128.5 142.1 128.2 142.7 127.7 143.1C127.2 143.4 126.5 143.5 126 143.2C125 142.7 123.9 142.8 123 143.4C121.9 144.2 121.4 145.7 122 146.9C122.4 147.7 122 148.7 121.1 149.1C121 149.2 120.9 149.3 120.8 149.3Z" fill="#35414D"/>
<path d="M129.1 153.2C129 153.2 129 153.2 128.9 153.2C128 153.3 127.2 152.6 127.1 151.7C126.9 149.4 127.9 147.2 129.8 145.9C131.8 144.6 134.3 144.4 136.3 145.6C137.1 146 137.4 147.1 136.9 147.9C136.5 148.7 135.4 149 134.6 148.5C133.6 148 132.5 148 131.5 148.6C130.6 149.2 130.1 150.3 130.2 151.3C130.5 152.3 129.9 153 129.1 153.2Z" fill="#35414D"/>
<path d="M154.8 146.1C154.7 146.1 154.5 146.1 154.4 146.1C148.6 145.9 143.1 142.9 139.8 138C136.4 133 135.6 126.7 137.8 121.1C138 120.6 138.5 120.2 139.1 120C144.4 119.1 149.7 119.2 155 120.5C159.3 121.5 162.1 125.6 161.5 130C160.7 135.5 158.9 140.6 156 145.3C155.6 145.8 155.2 146 154.8 146.1ZM140.6 123.2C139.3 127.6 140 132.4 142.6 136.2C145.2 139.9 149.1 142.3 153.6 142.7C156 138.7 157.5 134.2 158.2 129.6C158.6 126.9 156.9 124.4 154.2 123.8C149.6 122.7 145.1 122.5 140.6 123.2Z" fill="#35414D"/>
<path d="M76.3411 89.9312C77.9917 82.9439 73.5783 75.9209 66.4835 74.2449C59.3887 72.5689 52.2992 76.8745 50.6486 83.8618C48.998 90.8491 53.4113 97.8721 60.5061 99.5481C67.6009 101.224 74.6905 96.9185 76.3411 89.9312Z" fill="#DAE6F1"/>
<path d="M56.5 75.8C59.7 73.8 63.4 73.4 66.8 74.3L67 74.2C70.2 72.3 71.1 68.1 69.1 65C67.1 61.9 62.9 60.9 59.8 62.8L4.99998 96.5C1.79998 98.4 0.89998 102.6 2.89998 105.7C4.89998 108.8 9.09998 109.8 12.2 107.9L50.6 84.3C51.3 80.9 53.3 77.8 56.5 75.8Z" fill="#FCA265"/>
<path d="M68.2 66C66.2 62.9 62 61.9 58.9 63.8L50.6 68.9L55.6 76.8C58.8 74.8 62.5 74.4 65.9 75.3L66.1 75.2C69.2 73.2 70.2 69.1 68.2 66Z" fill="#FC8C48"/>
<path d="M162.4 2.50001L65.4 62.1C66.9 62.6 68.2 63.5 69.1 65C70 66.4 70.3 68 70 69.6L167 10C169.1 8.70001 169.7 6.00001 168.4 4.00001C167.2 1.90001 164.4 1.20001 162.4 2.50001Z" fill="#9BE5F9"/>
<path d="M30.5 55.2001L31.8 55.8001L31.2 57.1001C30.7 58.1001 31.1 59.2001 32.1 59.7001C33 60.1001 34.2 59.8001 34.7 58.8001V58.7001L35.3 57.4001L36.6 58.0001C37.6 58.5001 38.7 58.1001 39.2 57.1001C39.6 56.2001 39.3 55.0001 38.3 54.5001H38.2L37 54.0001L37.6 52.7001C38.1 51.7001 37.7 50.6001 36.7 50.1001C35.8 49.7001 34.6 50.0001 34.1 51.0001V51.1001L33.5 52.4001L32.2 51.8001C31.2 51.3001 30.1 51.7001 29.6 52.7001C29.1 53.6001 29.5 54.8001 30.5 55.2001Z" fill="#70D6F9"/>
<path d="M61.3527 41.2098C61.8492 40.1617 61.4021 38.9095 60.354 38.413C59.3059 37.9165 58.0537 38.3637 57.5572 39.4118C57.0607 40.4599 57.5078 41.7121 58.5559 42.2086C59.6041 42.7051 60.8562 42.2579 61.3527 41.2098Z" fill="#F5C84C"/>
<path d="M181 58.7001C182.27 58.7001 183.3 57.6704 183.3 56.4001C183.3 55.1298 182.27 54.1001 181 54.1001C179.73 54.1001 178.7 55.1298 178.7 56.4001C178.7 57.6704 179.73 58.7001 181 58.7001Z" fill="#87D147"/>
<path d="M60.1 101.4C56.4 100.5 52.9 98.2001 50.7 94.8001C46.3 87.8001 48.4 78.6001 55.5 74.3001C62.5 70.0001 71.8 72.1001 76.2 79.1001C80.6 86.1001 78.5 95.3001 71.4 99.6001C68 101.7 63.9 102.2 60.1 101.4ZM66 76.0001C63.2 75.3001 60.1 75.8001 57.5 77.4001C52.2 80.6001 50.6 87.5001 53.9 92.8001C57.2 98.0001 64.2 99.6001 69.4 96.4001C74.7 93.2001 76.3 86.3001 73 81.0001C71.4 78.4001 68.8 76.7001 66 76.0001Z" fill="#35414D"/>
<path d="M6.69999 110.5C4.49999 110 2.59999 108.7 1.29999 106.7C-1.20001 102.7 -8.58307e-06 97.4001 3.99999 94.9001L58.8 61.2001C62.8 58.7001 68.2 60.0001 70.7 64.0001C73.2 68.0001 72 73.3001 68 75.8001L67.8 75.9001C67.4 76.2001 66.8 76.2001 66.3 76.1001C63.3 75.3001 60.1 75.8001 57.5 77.4001C54.9 79.0001 53.1 81.6001 52.4 84.6001C52.3 85.1001 52 85.5001 51.6 85.8001L13.2 109.4C11.2 110.7 8.89999 111 6.69999 110.5ZM64.5 63.8001C63.3 63.5001 62 63.7001 60.8 64.4001L5.99999 98.1001C3.69999 99.5001 2.99999 102.5 4.49999 104.8C5.89999 107.1 8.99999 107.8 11.2 106.4L49 83.1001C50 79.4001 52.3 76.3001 55.6 74.2001C58.9 72.2001 62.7 71.5001 66.5 72.3001C68.4 70.8001 68.9 68.1001 67.6 65.9001C66.8 64.9001 65.7 64.1001 64.5 63.8001Z" fill="#35414D"/>
<path d="M74.8 107.3C74.3 107.2 73.9 106.9 73.6 106.5L61.8 87.6C61.2 86.7 61.5 85.6 62.4 85C63.3 84.5 64.4 84.7 65 85.6L76.9 104.4C77.5 105.3 77.2 106.4 76.3 107C75.8 107.3 75.3 107.4 74.8 107.3Z" fill="#35414D"/>
<path d="M70.1 110.2C69.6 110.1 69.2 109.8 68.9 109.4C68.3 108.5 68.6 107.4 69.5 106.8L79 101C79.9 100.5 81 100.7 81.6 101.6C82.2 102.5 81.9 103.6 81 104.2L71.5 110C71 110.2 70.5 110.3 70.1 110.2Z" fill="#35414D"/>
<path d="M163.1 17.5C162.6 17.4 162.2 17.1 161.9 16.7L154.7 5.29999C154.1 4.39999 154.4 3.29999 155.3 2.69999C156.2 2.19999 157.3 2.39999 157.9 3.29999L165.1 14.7C165.7 15.6 165.4 16.7 164.5 17.3C164.1 17.6 163.6 17.7 163.1 17.5Z" fill="#35414D"/>
<path d="M144.2 33.1C141.8 32.5 139.5 31.4 137.4 29.7C136.6 29 136.5 27.9 137.2 27.1C137.9 26.3 139.1 26.2 139.8 26.9C143.9 30.3 149.8 30.8 154.3 28C158.9 25.2 161 19.8 159.7 14.7C159.4 13.7 160.1 12.7 161.1 12.5C162.1 12.3 163.1 12.9 163.4 13.9C165.1 20.6 162.3 27.6 156.3 31.3C152.7 33.4 148.3 34 144.2 33.1Z" fill="#35414D"/>
<path d="M138.9 32.4001C138.4 32.3001 138 32.0001 137.7 31.6001L130.5 20.2001C129.9 19.3001 130.2 18.2001 131.1 17.6001C132 17.1001 133.1 17.3001 133.7 18.2001L140.9 29.6001C141.5 30.5001 141.2 31.6001 140.3 32.2001C139.9 32.5001 139.4 32.5001 138.9 32.4001Z" fill="#35414D"/>
<path d="M114.7 47.3C114.2 47.2 113.8 46.9 113.5 46.5L106.3 35.1C105.7 34.2 106 33.1 106.9 32.5C107.8 32 108.9 32.2 109.5 33.1L116.7 44.5C117.3 45.4 117 46.5 116.1 47.1C115.7 47.3 115.2 47.4 114.7 47.3Z" fill="#35414D"/>
<path d="M120 47.9C117.6 47.3 115.3 46.2 113.2 44.5C112.4 43.8 112.3 42.7 113 41.9C113.7 41.1 114.9 41 115.6 41.7C119.7 45.1 125.6 45.6 130.1 42.8C134.7 40 136.8 34.6 135.5 29.5C135.2 28.5 135.9 27.5 136.9 27.3C137.9 27.1 138.9 27.7 139.2 28.7C140.9 35.4 138.1 42.4 132.1 46.1C128.5 48.2 124.1 48.9 120 47.9Z" fill="#35414D"/>
<path d="M90.5 62.2002C90 62.1002 89.6 61.8002 89.3 61.4002L82.2 50.0002C81.6 49.1002 81.9 48.0002 82.8 47.4002C83.7 46.9002 84.8 47.1002 85.4 48.0002L92.6 59.4002C93.2 60.3002 92.9 61.4002 92 62.0002C91.5 62.2002 91 62.3002 90.5 62.2002Z" fill="#35414D"/>
<path d="M95.8 62.8002C93.4 62.2002 91.1 61.1002 89 59.4002C88.2 58.7002 88.1 57.6002 88.8 56.8002C89.5 56.0002 90.7 55.9002 91.4 56.6002C95.5 60.0002 101.4 60.5002 105.9 57.7002C110.5 54.9002 112.6 49.5002 111.3 44.4002C111 43.4002 111.7 42.4002 112.7 42.2002C113.7 42.0002 114.7 42.6002 115 43.6002C116.7 50.3002 113.9 57.3002 107.9 61.0002C104.3 63.1002 99.9 63.8002 95.8 62.8002Z" fill="#35414D"/>
<path d="M71.6 77.7001C70.2 77.4001 68.8 76.8001 67.4 76.1001C66.5 75.6001 66.2 74.5001 66.7 73.6001C67.2 72.7001 68.3 72.4001 69.3 72.9001C73.2 75.1001 78.1 75.0001 81.9 72.6001C86.5 69.8001 88.6 64.4001 87.3 59.3001C87 58.3001 87.7 57.3001 88.7 57.1001C89.7 56.9001 90.7 57.5001 91 58.5001C92.7 65.2001 89.9 72.2001 83.9 75.9001C80.2 78.0001 75.8 78.6001 71.6 77.7001Z" fill="#35414D"/>
<path d="M164.3 79.7001C163.5 79.7001 162.8 78.9001 162.8 77.9001V12.4001C162.8 11.4001 163.5 10.6001 164.3 10.6001C165.1 10.6001 165.8 11.4001 165.8 12.4001V77.9001C165.8 78.9001 165.1 79.7001 164.3 79.7001Z" fill="#35414D"/>
<path d="M56.1 77.6001C55.6 77.5001 55.2 77.2001 54.9 76.8001L49.9 68.9001C49.3 68.0001 49.6 66.9001 50.5 66.3001L58.8 61.2001C62.8 58.7001 68.2 60.0001 70.7 64.0001C73.2 68.0001 72 73.3001 68 75.8001L67.8 75.9001C67.4 76.2001 66.8 76.2001 66.3 76.1001C63.3 75.3001 60.1 75.8001 57.5 77.4001C57.1 77.7001 56.6 77.8001 56.1 77.6001ZM54.1 68.5001L57.2 73.3001C60.1 72.0001 63.3 71.6001 66.5 72.3001C68.4 70.8001 68.9 68.1001 67.6 65.9001C66.2 63.6001 63.1 62.9001 60.9 64.3001L54.1 68.5001Z" fill="#35414D"/>
<path d="M69.7 71.4001C69.5 71.4001 69.3 71.3001 69.1 71.1001C68.5 70.7001 68.2 70.0001 68.3 69.3001C68.5 68.2001 68.2 67.0001 67.6 66.0001C67 65.0001 66 64.3001 64.9 63.9001C64.2 63.7001 63.7 63.1001 63.6 62.4001C63.5 61.7001 63.8 61.0001 64.5 60.6001L161.5 1.0001C162.9 0.100103 164.6 -0.0998969 166.2 0.200103C167.8 0.600103 169.2 1.6001 170.1 3.0001C171.9 5.9001 171 9.8001 168.1 11.6001L71.1 71.2001C70.6 71.4001 70.1 71.5001 69.7 71.4001ZM69 62.1001C69.6 62.7001 70.2 63.3001 70.7 64.0001C71.2 64.7001 71.5 65.5001 71.7 66.3001L166 8.3001C167.2 7.6001 167.5 6.0001 166.8 4.8001C166.1 3.7001 164.5 3.3001 163.3 4.0001L69 62.1001Z" fill="#35414D"/>
<path d="M161.9 93.7002C161.9 94.8002 161.7 95.7002 161.2 96.7002C160.7 96.5002 160.2 96.4002 159.8 96.5002C158.9 96.6002 158.1 97.1002 157.6 98.0002L156.3 100.3L153.6 105.1C149.2 113 138.1 105.3 143.8 98.5002L144.8 97.3002C145.1 98.4002 145.7 99.4002 146.3 100.3C146.1 100.6 145.7 101 145.5 101.5C144.5 104.3 148.7 106.8 150.6 104C150.7 103.8 150.6 104.1 153 99.7002C153.8 98.2002 153.4 98.9002 154.8 96.4002C156 94.3002 158.2 93.2002 160.5 93.4002C161 93.5002 161.5 93.6002 161.9 93.7002Z" fill="#FEB69F"/>
<path d="M152.3 93.3001C150.4 95.5001 151.1 94.8001 149.7 96.4001C149.4 95.7001 149.2 94.9001 149.2 94.0001V92.1001L149.9 91.3001C150.9 90.1001 150.9 88.2001 149.2 87.1001C148.8 86.9001 148.4 86.7001 147.9 86.5001C146.6 86.1001 145.4 85.6001 144.3 85.0001C140.3 82.7001 137.5 78.7001 136.6 74.2001C136.4 73.4001 137 72.5001 137.8 72.4001C138.6 72.2001 139.5 72.8001 139.6 73.6001C140.2 76.7001 141.9 79.4001 144.3 81.3001C145.6 82.3001 147.1 83.1001 148.7 83.6001C148.9 83.6001 149 83.7001 149.1 83.7001C154.2 85.4001 154.7 90.4001 152.3 93.3001Z" fill="#FEB69F"/>
<path d="M166.8 72.6001V76.7001H161.9V72.6001C162.6 72.9001 163.5 73.1001 164.3 73.1001C165.2 73.1001 166 72.9001 166.8 72.6001Z" fill="#EFEFEF"/>
<path d="M161.9 75.5H166.8V76.7H161.9V75.5Z" fill="#AFAFAF"/>
<path d="M164.4 73.1001C163.5 73.1001 162.7 72.9001 162 72.6001V73.9001C163.6 74.5001 165.3 74.4001 166.9 73.9001V72.6001C166 72.9001 165.2 73.1001 164.4 73.1001Z" fill="#AFAFAF"/>
<path d="M164.4 69.5001C162.9 69.5001 161.7 68.3001 161.7 66.8001C161.7 65.3001 162.9 64.1001 164.4 64.1001C165.9 64.1001 167.1 65.3001 167.1 66.8001C167 68.3001 165.8 69.5001 164.4 69.5001ZM164.4 60.6001C161 60.6001 158.2 63.4001 158.2 66.8001C158.2 69.4001 159.8 71.6001 162 72.5001C162.7 72.8001 163.6 73.0001 164.4 73.0001C165.3 73.0001 166.1 72.8001 166.8 72.5001C169 71.6001 170.6 69.3001 170.6 66.8001C170.6 63.4001 167.8 60.6001 164.4 60.6001Z" fill="#72C2E9"/>
<path d="M152.2 81.9002H149.2V83.7001C149.1 83.6001 148.9 83.6002 148.8 83.6002C147.2 83.1002 145.7 82.3002 144.4 81.3002V72.8002C144.4 72.0002 145.3 71.7002 145.8 72.3002L152.9 80.6002C153.3 81.1002 152.9 81.9002 152.2 81.9002Z" fill="#EFEFEF"/>
<path d="M144.9 97.3C145.2 98.4 145.8 99.4 146.4 100.3C146.2 100.6 145.8 101 145.6 101.5C145.5 101.3 145.4 101.2 145.3 101C144.7 100.2 144.3 99.3 143.9 98.4L144.9 97.3Z" fill="#EA8F7C"/>
<path d="M149.7 96.4C149.4 95.7 149.2 94.9 149.2 94V92.1L149.9 91.3C150.2 90.9 150.5 90.4 150.6 89.8V94C150.6 94.4 150.6 94.8 150.7 95.2L149.7 96.4Z" fill="#EA8F7C"/>
<path d="M153.1 99.8C150.7 104.1 150.9 103.8 150.7 104.1C150.3 103.9 149.9 103.7 149.5 103.4C148.3 102.6 147.2 101.5 146.3 100.3C145.7 99.4 145.2 98.4 144.8 97.3C144.4 96.2 144.3 95 144.3 93.8V85C145.4 85.6 146.6 86.2 147.9 86.5C148.4 86.7 148.9 86.8 149.2 87.1V94C149.2 94.8 149.4 95.7 149.7 96.4C150.1 97.5 150.9 98.5 151.9 99.2C152.3 99.4 152.6 99.6 153.1 99.8Z" fill="#EFEFEF"/>
<path d="M166.8 84.2002V94.0002C166.8 95.0002 166.7 96.0002 166.4 96.9002C166.1 98.0002 165.7 98.9002 165.1 99.9002C162.9 103.6 158.8 105.5 155.1 105.3C154.6 105.3 154.1 105.2 153.6 105.2L156.3 100.4C157 100.3 157.6 100.1 158.1 99.9002C159.4 99.3002 160.5 98.2002 161.1 96.9002C161.6 95.9002 161.8 94.9002 161.8 93.9002V85.5002V84.3002L166.8 84.2002Z" fill="#EFEFEF"/>
<path d="M151.9 99.2002C152.3 99.5002 152.7 99.7002 153.1 99.9002C150.7 104.2 150.9 103.9 150.7 104.2C150.3 104 149.9 103.8 149.5 103.5C149.7 103.2 149.5 103.5 151.9 99.2002Z" fill="#AFAFAF"/>
<path d="M158.2 99.7002L155.2 105.2C154.7 105.2 154.2 105.1 153.7 105.1L156.4 100.3C157 100.2 157.6 100 158.2 99.7002Z" fill="#AFAFAF"/>
<path d="M161.9 84.2002H166.8V85.4002H161.9V84.2002Z" fill="#AFAFAF"/>
<path d="M169.1 78.5001C169.1 79.5001 168.3 80.4001 167.2 80.4001H161.5C160.5 80.4001 159.6 79.6001 159.6 78.5001C159.6 77.5001 160.4 76.6001 161.5 76.6001H167.2C168.3 76.7001 169.1 77.5001 169.1 78.5001Z" fill="#72C2E9"/>
<path d="M169.1 82.3001C169.1 83.3001 168.3 84.2001 167.2 84.2001H161.5C160.5 84.2001 159.6 83.4001 159.6 82.3001C159.6 81.3001 160.4 80.4001 161.5 80.4001H167.2C168.3 80.4001 169.1 81.3001 169.1 82.3001Z" fill="#72C2E9"/>
<path d="M148.5 88.2C148.2 88 147.9 87.9 147.5 87.8C146.4 87.5 145.3 87 144.3 86.5V85C145.4 85.6 146.6 86.2 147.9 86.5C148.4 86.7 148.9 86.8 149.2 87.1V89.2C149.1 88.8 148.9 88.5 148.5 88.2Z" fill="#AFAFAF"/>
<path d="M149.2 82.2001V83.6001C149.1 83.5001 148.9 83.5001 148.8 83.5001C147.2 83.0001 145.7 82.2001 144.4 81.2001V79.4001C145.7 80.6001 147.3 81.5001 149.2 82.2001Z" fill="#AFAFAF"/>
<path d="M182.5 92.6002C182.3 93.4002 181.5 93.9002 180.6 93.8002L178.4 93.3002C177 93.0002 175.6 93.7002 175.1 95.0002L174.2 97.2002C172.9 100.4 169.3 101.8 166.3 100.5C165.9 100.3 165.5 100.1 165.1 99.8002C165.7 98.9002 166.1 97.9002 166.4 96.8002L166.9 97.2002C167.1 97.4002 167.4 97.5002 167.6 97.6002C169 98.2002 170.8 97.5002 171.4 96.0002L172.3 93.8002C173.4 91.1002 176.3 89.5002 179.2 90.2002L181.4 90.7002C182.1 90.9002 182.7 91.7002 182.5 92.6002Z" fill="#FEB69F"/>
<path d="M160.6 93.5C161.1 93.5 161.5 93.6 162 93.8C162 94.9 161.8 95.8 161.3 96.8C160.8 96.6 160.3 96.5 159.9 96.6C160.4 95.8 160.7 94.8 160.7 93.8V93.5H160.6Z" fill="#EA8F7C"/>
<path d="M167.6 97.7C167.3 98.7 166.9 99.7 166.3 100.5C165.9 100.3 165.5 100.1 165.1 99.8C165.7 98.9 166.1 97.9 166.4 96.8L166.9 97.2C167.1 97.4 167.3 97.6 167.6 97.7Z" fill="#EA8F7C"/>
<path d="M176.9 84.0002C176.2 83.8002 175.6 83.6002 175.2 82.0002C175.1 81.5002 174.3 81.5002 174.2 82.0002C173.8 83.6002 173.3 83.8002 172.5 84.0002C172 84.2002 172 84.8002 172.5 85.0002C173.8 85.4002 173.9 86.1002 174.2 87.0002C174.3 87.5002 175.1 87.5002 175.2 87.0002C175.6 85.4002 176.1 85.2002 176.9 85.0002C177.4 84.8002 177.4 84.2002 176.9 84.0002Z" fill="#35414D"/>
<path d="M174.8 87.6001C174.4 87.6001 174.1 87.4001 174.1 87.0001C173.9 86.1001 173.8 85.5001 172.6 85.2001C172.3 85.1001 172.1 84.8001 172.1 84.5001C172.1 84.2001 172.3 83.9001 172.6 83.8001C173.4 83.6001 173.8 83.4001 174.1 82.0001C174.2 81.7001 174.5 81.4001 174.8 81.4001C175.2 81.4001 175.5 81.6001 175.5 82.0001C175.8 83.5001 176.3 83.6001 177 83.8001C177.3 83.9001 177.5 84.2001 177.5 84.5001C177.5 84.8001 177.3 85.1001 177 85.2001C176.3 85.4001 175.8 85.6001 175.5 87.0001C175.4 87.4001 175.1 87.6001 174.8 87.6001ZM174.8 81.8001C174.7 81.8001 174.6 81.9001 174.5 82.0001C174.1 83.7001 173.5 83.9001 172.7 84.2001C172.5 84.3001 172.5 84.4001 172.5 84.5001C172.5 84.6001 172.5 84.7001 172.7 84.8001C174.1 85.3001 174.3 86.0001 174.5 87.0001C174.6 87.3001 175 87.3001 175 87.0001C175.4 85.3001 176.1 85.1001 176.8 84.8001C177 84.7001 177 84.6001 177 84.5001C177 84.5001 177 84.3001 176.8 84.2001C176.1 84.0001 175.4 83.7001 175 82.0001C175 81.9001 174.9 81.8001 174.8 81.8001Z" fill="#35414D"/>
<path d="M175.5 84.5001C175.2 84.7001 175 85.0001 174.7 85.4001C174.5 85.1001 174.3 84.8001 173.9 84.5001C174.2 84.3001 174.5 84.0001 174.7 83.6001C175 84.1001 175.3 84.3001 175.5 84.5001Z" fill="#F0C020"/>
<path d="M155.2 71.8003C154.5 71.6003 153.9 71.4003 153.5 69.8003C153.4 69.3003 152.6 69.3003 152.5 69.8003C152.1 71.4003 151.6 71.6003 150.8 71.8003C150.3 72.0003 150.3 72.6003 150.8 72.8003C152.1 73.2003 152.2 73.9003 152.5 74.8003C152.6 75.3003 153.4 75.3003 153.5 74.8003C153.9 73.2003 154.4 73.0003 155.2 72.8003C155.6 72.6003 155.6 72.0003 155.2 71.8003Z" fill="#35414D"/>
<path d="M153 75.4002C152.6 75.4002 152.3 75.2002 152.3 74.8002C152.1 73.9002 152 73.3002 150.8 73.0002C150.5 72.9002 150.3 72.6002 150.3 72.3002C150.3 72.0002 150.5 71.7002 150.8 71.6002C151.6 71.4002 152 71.2002 152.3 69.8002C152.4 69.5002 152.7 69.2002 153 69.2002C153.4 69.2002 153.6 69.4002 153.7 69.8002C154 71.3002 154.5 71.4002 155.2 71.6002C155.5 71.7002 155.7 72.0002 155.7 72.3002C155.7 72.6002 155.5 72.9002 155.2 73.0002C154.5 73.2002 154 73.4002 153.7 74.8002C153.6 75.2002 153.4 75.4002 153 75.4002ZM153 69.6002C152.9 69.6002 152.8 69.7002 152.7 69.8002C152.3 71.5002 151.7 71.7002 150.9 72.0002C150.7 72.1002 150.7 72.2002 150.7 72.3002C150.7 72.3002 150.7 72.5002 150.9 72.6002C152.3 73.1002 152.5 73.8002 152.7 74.8002C152.8 75.1002 153.2 75.1002 153.2 74.8002C153.6 73.1002 154.3 72.9002 155 72.6002C155.2 72.5002 155.2 72.4002 155.2 72.3002C155.2 72.3002 155.2 72.1002 155 72.0002C154.3 71.8002 153.6 71.5002 153.2 69.8002C153.2 69.7002 153.1 69.6002 153 69.6002Z" fill="#35414D"/>
<path d="M153.8 72.3001C153.5 72.5001 153.3 72.8001 153 73.2001C152.8 72.9001 152.6 72.6001 152.2 72.3001C152.5 72.1001 152.8 71.8001 153 71.4001C153.2 71.9001 153.5 72.1001 153.8 72.3001Z" fill="#F0C020"/>
<path d="M157.7 103C157.6 102.7 157.8 102.5 158 102.4C161.7 101.3 164.3 97.8002 164.3 93.9002V89.2002C164.3 88.9002 164.5 88.7002 164.8 88.7002C165.1 88.7002 165.3 88.9002 165.3 89.2002V94.0002C165.3 98.3002 162.4 102.1 158.3 103.4C158.1 103.4 157.8 103.3 157.7 103ZM164.9 87.8002C164.6 87.8002 164.4 87.6002 164.4 87.3002V86.7002C164.4 86.4002 164.6 86.2002 164.9 86.2002C165.2 86.2002 165.4 86.4002 165.4 86.7002V87.3002C165.3 87.6002 165.1 87.8002 164.9 87.8002Z" fill="white"/>
<path d="M148.8 101.3C146.7 99.4001 145.5 96.6001 145.5 93.8001V91.7001C145.5 91.4001 145.7 91.2001 146 91.2001C146.3 91.2001 146.5 91.4001 146.5 91.7001V93.8001C146.5 96.4001 147.6 98.8001 149.5 100.6C149.7 100.8 149.7 101.1 149.5 101.3C149.3 101.5 149 101.5 148.8 101.3ZM146 90.2001C145.7 90.2001 145.5 90.0001 145.5 89.7001V89.1001C145.5 88.8001 145.7 88.6001 146 88.6001C146.3 88.6001 146.5 88.8001 146.5 89.1001V89.7001C146.5 90.0001 146.3 90.2001 146 90.2001Z" fill="white"/>
<path d="M146 79.3002C145.7 79.3002 145.5 79.1002 145.5 78.8002V75.2002C145.5 74.9002 145.7 74.7002 146 74.7002C146.3 74.7002 146.5 74.9002 146.5 75.2002V78.8002C146.5 79.1002 146.3 79.3002 146 79.3002Z" fill="white"/>
<path d="M164.4 70C166.1 70 167.5 68.6001 167.5 66.9001C167.5 65.2001 166.1 63.8 164.4 63.8C162.7 63.8 161.3 65.2001 161.3 66.9001C161.2 68.6001 162.6 70 164.4 70ZM164.4 64.7C165.6 64.7 166.6 65.7001 166.6 66.9001C166.6 68.1001 165.6 69.1 164.4 69.1C163.2 69.1 162.2 68.1001 162.2 66.9001C162.2 65.7001 163.2 64.7 164.4 64.7Z" fill="#35414D"/>
<path d="M164.4 70.2001C162.5 70.2001 161 68.7001 161 66.8001C161 64.9001 162.5 63.4001 164.4 63.4001C166.3 63.4001 167.8 64.9001 167.8 66.8001C167.7 68.7001 166.2 70.2001 164.4 70.2001ZM164.4 64.0001C162.8 64.0001 161.5 65.3001 161.5 66.9001C161.5 68.5001 162.8 69.8001 164.4 69.8001C166 69.8001 167.3 68.5001 167.3 66.9001C167.2 65.3001 165.9 64.0001 164.4 64.0001ZM164.4 69.3001C163.1 69.3001 162 68.2001 162 66.9001C162 65.6001 163.1 64.5001 164.4 64.5001C165.7 64.5001 166.8 65.6001 166.8 66.9001C166.8 68.2001 165.7 69.3001 164.4 69.3001ZM164.4 64.9001C163.3 64.9001 162.5 65.8001 162.5 66.8001C162.5 67.9001 163.4 68.7001 164.4 68.7001C165.5 68.7001 166.3 67.8001 166.3 66.8001C166.3 65.8001 165.4 64.9001 164.4 64.9001Z" fill="#35414D"/>
<path d="M163.9 80.9001C164.176 80.9001 164.4 80.6763 164.4 80.4001C164.4 80.124 164.176 79.9001 163.9 79.9001C163.624 79.9001 163.4 80.124 163.4 80.4001C163.4 80.6763 163.624 80.9001 163.9 80.9001Z" fill="#35414D"/>
<path d="M163.9 81.1002C163.5 81.1002 163.2 80.8002 163.2 80.4002C163.2 80.0002 163.5 79.7002 163.9 79.7002C164.3 79.7002 164.6 80.0002 164.6 80.4002C164.7 80.8002 164.3 81.1002 163.9 81.1002ZM163.9 80.2002C163.8 80.2002 163.7 80.3002 163.7 80.4002C163.7 80.5002 163.8 80.6002 163.9 80.6002C164 80.6002 164.1 80.5002 164.1 80.4002C164.2 80.3002 164.1 80.2002 163.9 80.2002Z" fill="#35414D"/>
<path d="M166.8 89.3C167.076 89.3 167.3 89.0762 167.3 88.8C167.3 88.5239 167.076 88.3 166.8 88.3C166.524 88.3 166.3 88.5239 166.3 88.8C166.3 89.0762 166.524 89.3 166.8 89.3Z" fill="#35414D"/>
<path d="M166.8 89.5001C166.4 89.5001 166.1 89.2001 166.1 88.8001C166.1 88.4001 166.4 88.1001 166.8 88.1001C167.2 88.1001 167.5 88.4001 167.5 88.8001C167.5 89.2001 167.2 89.5001 166.8 89.5001ZM166.8 88.5001C166.7 88.5001 166.6 88.6001 166.6 88.7001C166.6 88.8001 166.7 88.9001 166.8 88.9001C166.9 88.9001 167 88.8001 167 88.7001C167 88.6001 166.9 88.5001 166.8 88.5001Z" fill="#35414D"/>
<path d="M144.3 89.9001C144.576 89.9001 144.8 89.6763 144.8 89.4001C144.8 89.124 144.576 88.9001 144.3 88.9001C144.024 88.9001 143.8 89.124 143.8 89.4001C143.8 89.6763 144.024 89.9001 144.3 89.9001Z" fill="#35414D"/>
<path d="M144.3 90.1002C143.9 90.1002 143.6 89.8002 143.6 89.4002C143.6 89.0002 143.9 88.7002 144.3 88.7002C144.7 88.7002 145 89.0002 145 89.4002C145 89.8002 144.7 90.1002 144.3 90.1002ZM144.3 89.1002C144.2 89.1002 144.1 89.2002 144.1 89.3002C144.1 89.4002 144.2 89.5002 144.3 89.5002C144.4 89.5002 144.5 89.4002 144.5 89.3002C144.6 89.2002 144.5 89.1002 144.3 89.1002Z" fill="#35414D"/>
<path d="M181.4 90.2002L179.2 89.7002C176.1 89.0002 172.9 90.7002 171.7 93.6002L170.8 95.8002C170.3 97.1002 168.9 97.6002 167.7 97.1002C167.3 96.9002 167.1 96.8002 166.9 96.6002C167.1 95.7002 167.2 94.8002 167.2 93.9002V90.7002C167.2 90.4002 167 90.2002 166.7 90.2002C166.4 90.2002 166.2 90.4002 166.2 90.7002V94.0002C166.2 100.3 160.7 105.3 154.4 104.7L156.6 100.8C159.7 100.3 162.3 97.6002 162.3 93.8002V84.7002H166.2V86.9002C166.2 87.2002 166.4 87.4002 166.7 87.4002C167 87.4002 167.2 87.2002 167.2 86.9002V84.7002C168.5 84.7002 169.5 83.6002 169.5 82.3002C169.5 81.5002 169.1 80.9002 168.6 80.4002C169.2 80.0002 169.5 79.3002 169.5 78.5002C169.5 77.2002 168.5 76.2002 167.2 76.2002V72.9002C169.5 71.8002 171 69.4002 171 66.9002C171 63.2002 168 60.2002 164.3 60.2002C160.6 60.2002 157.6 63.2002 157.6 66.9002C157.6 69.5002 159.1 71.8002 161.4 72.9002V76.2002C160.1 76.2002 159.1 77.3002 159.1 78.5002C159.1 79.3002 159.5 79.9002 160 80.4002C159.4 80.8002 159.1 81.5002 159.1 82.3002C159.1 83.6002 160.1 84.6002 161.4 84.7002V93.2002C158.6 92.6002 155.8 94.0002 154.5 96.4002L152.9 99.3002C152.7 99.2002 152.4 99.0002 152.2 98.9002C151.4 98.3002 150.7 97.5002 150.3 96.6002L152.7 93.7002C155.3 90.6002 154.7 85.4002 149.7 83.5002V82.5002H152.2C153.3 82.5002 153.9 81.2002 153.2 80.4002L146.1 72.1002C145.3 71.2002 143.8 71.7002 143.8 72.9002V80.4002C141.9 78.6002 140.6 76.3002 140.1 73.7002C139.9 72.6002 138.8 71.9002 137.7 72.1002C136.6 72.3002 135.9 73.4002 136.1 74.5002C137 79.0002 139.7 83.0002 143.8 85.5002V87.7002C143.8 88.0002 144 88.2002 144.3 88.2002C144.6 88.2002 144.8 88.0002 144.8 87.7002V86.1002C145.7 86.6002 146.7 87.0002 147.8 87.3002C148.1 87.4002 148.5 87.5002 148.8 87.7002V94.0002C148.8 96.3002 149.9 98.3002 151.7 99.6002C152 99.8002 152.2 99.9002 152.5 100.1C150.8 103.1 150.7 103.3 150.6 103.5C147.2 101.7 144.9 98.1002 144.9 93.9002V91.4002C144.9 91.1002 144.7 90.9002 144.4 90.9002C144.1 90.9002 143.9 91.1002 143.9 91.4002V93.9002C143.9 95.0002 144.1 96.2002 144.4 97.3002C143.4 98.5002 140.8 101.2 142.4 104.9C143.3 106.9 145.3 108.5 147.6 108.9C149.9 109.3 152.4 108.5 154.1 105.7C158.8 106.4 163.1 104.1 165.4 100.6C168.7 102.7 173.3 101.3 174.8 97.5002L175.7 95.3002C176.1 94.2002 177.3 93.6002 178.5 93.8002L180.7 94.3002C181.8 94.6002 182.9 93.9002 183.1 92.8002C183.2 91.6002 182.5 90.5002 181.4 90.2002ZM158.6 66.9002C158.6 63.7002 161.2 61.2002 164.3 61.2002C167.5 61.2002 170 63.8002 170 66.9002C170 70.1002 167.4 72.6002 164.3 72.6002C161.2 72.6002 158.6 70.1002 158.6 66.9002ZM166.3 73.3002V76.2002H162.4V73.3002C163 73.5002 163.7 73.6002 164.4 73.6002C165 73.6002 165.7 73.5002 166.3 73.3002ZM160.1 82.3002C160.1 81.5002 160.7 80.9002 161.5 80.9002H162C162.3 80.9002 162.5 80.7002 162.5 80.4002C162.5 80.1002 162.3 79.9002 162 79.9002H161.5C160.7 79.9002 160.1 79.3002 160.1 78.5002C160.1 77.7002 160.7 77.1002 161.5 77.1002H167.2C168 77.1002 168.6 77.7002 168.6 78.5002C168.6 79.3002 168 79.9002 167.2 79.9002H165.8C165.5 79.9002 165.3 80.1002 165.3 80.4002C165.3 80.7002 165.5 80.9002 165.8 80.9002H167.2C168 80.9002 168.6 81.5002 168.6 82.3002C168.6 83.1002 168 83.7002 167.2 83.7002C166.5 83.7002 161.8 83.7002 161.5 83.7002C160.7 83.7002 160.1 83.1002 160.1 82.3002ZM152.9 87.8002C153.5 89.5002 153.1 91.4002 152 92.8002C151.3 92.7002 150.7 91.9002 150.4 91.4002C150.9 90.7002 151.1 89.8002 150.9 88.9002C151.5 88.7002 152.3 88.5002 152.9 87.8002ZM144.8 72.7002C144.8 72.4002 145.2 72.3002 145.4 72.5002L152.5 80.8002C152.7 81.0002 152.5 81.3002 152.2 81.3002H149.2C148.9 81.3002 148.7 81.5002 148.7 81.8002V83.0002C147.3 82.6002 146 81.9002 144.8 81.0002V72.7002ZM137.1 74.1002C137 73.5002 137.4 73.0002 137.9 72.9002C138.5 72.8002 139 73.2002 139.1 73.7002C139.4 75.1002 139.9 76.4002 140.6 77.7002C140.2 78.2002 139.6 78.7002 138.9 79.0002C138.1 77.5002 137.4 75.8002 137.1 74.1002ZM141.7 82.4002C140.9 81.6002 140.1 80.7002 139.5 79.8002C140.2 79.5002 140.7 79.0002 141.2 78.5002C141.7 79.3002 142.3 80.0002 143 80.7002C142.7 81.7002 142.1 82.2002 141.7 82.4002ZM145.8 85.2002C144.6 84.7002 143.5 84.0002 142.5 83.1002C142.9 82.8002 143.5 82.3002 143.8 81.4002C144.8 82.2002 145.8 82.9002 147 83.4002C146.6 84.4002 146.1 85.0002 145.8 85.2002ZM146.7 85.6002C147.1 85.2002 147.5 84.6002 147.8 83.7002C148.8 84.0002 151.1 84.5002 152.4 86.7002C151.9 87.6002 151 87.8002 150.6 87.9002C149.8 86.4002 148.2 86.2002 146.7 85.6002ZM149.7 90.8002V88.2002C150.3 89.0002 150.2 90.0002 149.7 90.8002ZM149.7 94.0002V92.3002L149.8 92.1002C150.1 92.6002 150.7 93.2002 151.4 93.5002L149.9 95.3002C149.7 94.9002 149.7 94.4002 149.7 94.0002ZM157.3 99.6002L158 98.3002C158.5 97.4002 159.5 96.9002 160.5 97.1002C159.8 98.2002 158.7 99.1002 157.3 99.6002ZM161.4 94.1002C161.4 94.9002 161.2 95.6002 160.9 96.2002C160 96.0002 159 96.1002 158.1 96.7002C157.5 96.2002 156.8 95.8002 156.1 95.6002C157.6 94.2002 159.6 93.6002 161.4 94.1002ZM146.3 101.1C147.3 102.4 148.5 103.4 149.9 104.2C148.1 105.9 144.7 103.5 146.3 101.1ZM144.7 98.2002C145 98.9002 145.3 99.6002 145.8 100.2C145.3 100.9 144.9 101.7 145 102.5C144.2 102.6 143.4 102.2 142.8 101.8C143 100.2 144 99.0002 144.7 98.2002ZM142.8 103.1C143.5 103.5 144.3 103.7 145.2 103.6C145.7 104.8 146.9 105.6 148.2 105.8C148.1 106.4 147.8 107.1 147.3 107.8C145.1 107.2 143.1 105.4 142.8 103.1ZM153.3 104.8C152.2 106.7 150.5 108 148.4 107.9C148.8 107.2 149.1 106.4 149.2 105.7C150 105.5 150.6 105.1 151.2 104.3C151.3 104.1 151.5 103.7 152.3 102.4L153.9 103.9C153.6 104.2 153.4 104.5 153.3 104.8ZM152.7 101.6L153.5 100.1C155.5 96.5002 155.4 96.7002 155.6 96.4002C156.2 96.6002 156.9 96.9002 157.5 97.4002C157.4 97.5002 157.3 97.7002 157.2 97.8002L154.3 103L152.7 101.6ZM165.8 99.7002C166.1 99.1002 166.4 98.4002 166.7 97.7002C166.9 97.9002 167.2 98.0002 167.4 98.1002C168 98.4002 168.8 98.4002 169.4 98.3002C169.5 98.9002 169.6 99.6002 169.8 100.4C168.5 100.7 167 100.4 165.8 99.7002ZM174.7 94.8002L173.8 97.0002C173.3 98.4002 172.2 99.5002 170.8 100.1C170.6 99.3002 170.5 98.5002 170.4 97.9002C171 97.5002 171.6 96.9002 171.8 96.2002L172.7 94.0002C173 93.3002 173.4 92.7002 173.9 92.2002C174.1 92.8002 174.5 93.6002 174.9 94.3002C174.8 94.5002 174.7 94.6002 174.7 94.8002ZM182 92.4002C181.9 93.0002 181.3 93.3002 180.7 93.2002L178.5 92.7002C177.4 92.4002 176.3 92.8002 175.5 93.5002C175.1 92.8002 174.8 92.1002 174.6 91.5002C175.8 90.6002 177.4 90.3002 179 90.6002L181.2 91.1002C181.8 91.3002 182.1 91.9002 182 92.4002Z" fill="#35414D"/>
<path d="M148.6 109.1C148.2 109.1 147.8 109.1 147.4 109C145.1 108.6 143 106.9 142.1 104.8C140.6 101.2 142.8 98.6001 143.9 97.3001L144 97.1001C143.7 96.0001 143.5 94.9001 143.5 93.8001V91.3001C143.5 90.9001 143.8 90.6001 144.2 90.6001C144.6 90.6001 144.9 90.9001 144.9 91.3001V93.8001C144.9 97.7001 147 101.2 150.3 103.1C150.4 102.9 150.6 102.6 151 101.8L151.9 100.2C151.7 100.1 151.5 100 151.3 99.8001C149.4 98.5001 148.3 96.3001 148.3 94.0001V87.5001C148.1 87.4001 147.8 87.3001 147.5 87.2001C146.6 86.9001 145.7 86.6001 144.9 86.2001V87.5001C144.9 87.9001 144.6 88.2001 144.2 88.2001C143.8 88.2001 143.5 87.9001 143.5 87.5001V85.5001C139.5 83.1001 136.7 79.0001 135.8 74.4001C135.7 73.8001 135.8 73.2001 136.1 72.7001C136.4 72.2001 137 71.9001 137.5 71.7001C138.7 71.5001 139.9 72.3001 140.2 73.5001C140.7 75.9001 141.8 78.0001 143.5 79.7001V72.8001C143.5 72.1001 143.9 71.6001 144.5 71.4001C145.1 71.2001 145.8 71.4001 146.2 71.8001L153.3 80.1001C153.7 80.6001 153.8 81.2001 153.5 81.7001C153.2 82.2001 152.7 82.6001 152.1 82.6001H149.8V83.2001C152 84.1001 153.5 85.7001 154.1 87.8001C154.6 89.9001 154.1 92.1001 152.7 93.7001L150.4 96.5001C150.8 97.3001 151.4 98.1001 152.2 98.6001C152.3 98.7001 152.5 98.8001 152.7 98.9001L154.2 96.2001C155.6 93.8001 158.4 92.4001 161.1 92.9001V84.9001C159.8 84.8001 158.8 83.6001 158.8 82.3001C158.8 81.6001 159.1 80.9001 159.6 80.4001C159.1 79.9001 158.8 79.2001 158.8 78.5001C158.8 77.2001 159.8 76.1001 161.1 75.9001V73.0001C158.8 71.8001 157.3 69.4001 157.3 66.8001C157.3 63.0001 160.4 59.9001 164.2 59.9001C168 59.9001 171.1 63.0001 171.1 66.8001C171.1 69.4001 169.7 71.8001 167.3 73.0001V76.0001C168.6 76.1001 169.6 77.3001 169.6 78.6001C169.6 79.3001 169.3 80.0001 168.8 80.5001C169.3 81.0001 169.6 81.7001 169.6 82.4001C169.6 83.7001 168.6 84.8001 167.3 85.0001V87.0001C167.3 87.4001 167 87.7001 166.6 87.7001C166.2 87.7001 165.9 87.4001 165.9 87.0001V85.0001H162.5V93.9001C162.5 97.5001 160.1 100.5 156.7 101.1L154.7 104.6C157.5 104.8 160.3 103.8 162.4 101.9C164.6 99.9001 165.9 97.1001 165.9 94.1001V90.9001C165.9 90.5001 166.2 90.2001 166.6 90.2001C167 90.2001 167.3 90.5001 167.3 90.9001V94.0001C167.3 94.9001 167.2 95.8001 167 96.6001C167.2 96.8001 167.4 96.9001 167.6 97.0001C168.1 97.2001 168.7 97.2001 169.3 97.0001C169.8 96.8001 170.2 96.3001 170.5 95.8001L171.4 93.6001C172.6 90.5001 175.9 88.8001 179.1 89.5001L181.3 90.0001C181.9 90.1001 182.4 90.5001 182.7 91.0001C183 91.5001 183.1 92.1001 183 92.7001C182.7 93.9001 181.5 94.7001 180.3 94.4001L178.1 93.9001C177.1 93.7001 176 94.2001 175.6 95.2001L174.7 97.4001C174 99.3001 172.5 100.7 170.6 101.3C168.8 101.9 166.8 101.7 165.2 100.8C162.6 104.5 158.3 106.4 153.9 105.8C152.7 108 150.8 109.1 148.6 109.1ZM144.3 91.0001C144.2 91.0001 144.1 91.1001 144.1 91.2001V93.7001C144.1 94.8001 144.3 95.9001 144.6 97.0001V97.1001L144.3 97.5001C143.2 98.8001 141.1 101.2 142.5 104.5C143.4 106.5 145.3 108 147.5 108.4C150 108.9 152.3 107.7 153.8 105.3L153.9 105.2H154.1C158.5 105.8 162.7 103.9 165.2 100.2L165.3 100L165.5 100.1C167.1 101.1 169 101.3 170.7 100.7C172.4 100.1 173.8 98.8001 174.5 97.1001L175.4 94.9001C175.9 93.7001 177.2 93.0001 178.4 93.3001L180.6 93.8001C181.6 94.0001 182.5 93.4001 182.8 92.5001C182.9 92.0001 182.8 91.6001 182.6 91.1001C182.3 90.7001 181.9 90.4001 181.5 90.3001L179.3 89.8001C176.3 89.1001 173.2 90.7001 172.1 93.6001L171.2 95.8001C170.9 96.5001 170.4 97.0001 169.8 97.3001C169.2 97.6001 168.4 97.6001 167.8 97.3001C167.4 97.1001 167.2 97.0001 167 96.8001L166.8 96.6001V96.5001C167 95.6001 167.1 94.7001 167.1 93.8001V90.6001C167.1 90.5001 167 90.4001 166.9 90.4001C166.8 90.4001 166.7 90.5001 166.7 90.6001V94.0001C166.7 97.1001 165.4 100.1 163.1 102.2C160.8 104.3 157.7 105.3 154.6 105H154.2L156.6 100.6H156.7C159.5 100.1 162.2 97.7001 162.2 93.8001V84.5001H166.6V87.0001C166.6 87.1001 166.7 87.2001 166.8 87.2001C166.9 87.2001 167 87.1001 167 87.0001V84.5001H167.2C168.3 84.5001 169.3 83.5001 169.3 82.4001C169.3 81.7001 169 81.1001 168.5 80.7001L168.3 80.5001L168.5 80.3001C169 79.9001 169.3 79.3001 169.3 78.6001C169.3 77.5001 168.4 76.5001 167.2 76.5001H167V72.8001L167.1 72.7001C169.4 71.6001 170.8 69.4001 170.8 66.9001C170.8 63.3001 167.9 60.4001 164.3 60.4001C160.7 60.4001 157.8 63.3001 157.8 66.9001C157.8 69.4001 159.2 71.6001 161.5 72.7001L161.6 72.8001V76.5001H161.4C160.3 76.5001 159.3 77.5001 159.3 78.6001C159.3 79.3001 159.6 79.9001 160.1 80.3001L160.3 80.5001L160.1 80.7001C159.6 81.1001 159.3 81.7001 159.3 82.4001C159.3 83.5001 160.2 84.5001 161.4 84.5001H161.6V93.5001L161.3 93.4001C158.7 92.9001 155.9 94.1001 154.6 96.5001L152.9 99.6001L152.7 99.5001C152.4 99.4001 152.2 99.2001 152 99.1001C151.1 98.5001 150.4 97.6001 150 96.7001L149.9 96.6001L152.4 93.6001C153.7 92.1001 154.2 90.0001 153.7 88.1001C153.2 86.1001 151.7 84.6001 149.6 83.7001L149.4 83.6001V82.3001H152.1C152.5 82.3001 152.9 82.1001 153.1 81.7001C153.3 81.3001 153.2 80.9001 152.9 80.6001L145.8 72.3001C145.4 71.9001 145 71.9001 144.6 72.0001C144.3 72.1001 143.9 72.4001 143.9 73.0001V81.0001L143.5 80.6001C141.5 78.8001 140.2 76.4001 139.7 73.7001C139.5 72.7001 138.6 72.1001 137.6 72.3001C137.1 72.4001 136.7 72.7001 136.5 73.1001C136.2 73.5001 136.1 74.0001 136.2 74.4001C137.1 78.9001 139.9 82.9001 143.8 85.3001L143.9 85.4001V87.7001C143.9 87.8001 144 87.9001 144.1 87.9001C144.2 87.9001 144.3 87.8001 144.3 87.7001V85.7001L144.6 85.9001C145.5 86.4001 146.5 86.8001 147.5 87.1001C147.9 87.2001 148.2 87.3001 148.5 87.5001L148.6 87.6001V94.0001C148.6 96.1001 149.6 98.2001 151.4 99.4001C151.6 99.6001 151.9 99.7001 152.2 99.9001L152.4 100L151.3 102.1C150.6 103.4 150.5 103.5 150.4 103.7L150.3 103.9L150.1 103.8C146.5 101.9 144.3 98.1001 144.3 94.0001V91.5001C144.6 91.2001 144.5 91.0001 144.3 91.0001ZM148.6 108.1C148.5 108.1 148.4 108.1 148.4 108.1H148L148.2 107.8C148.6 107.2 148.8 106.5 149 105.7V105.5H149.2C149.9 105.4 150.6 104.9 151 104.2C151.1 104.1 151.3 103.8 151.6 103.1L152.2 102.1L154.2 103.9L153.6 105C152.3 107 150.6 108.1 148.6 108.1ZM149.3 105.9C149.2 106.5 149 107.1 148.7 107.7C150.5 107.6 152 106.6 153 104.8L153.4 104L152.1 102.9L151.8 103.4C151.4 104.1 151.2 104.4 151.1 104.6C150.8 105.2 150.1 105.7 149.3 105.9ZM147.4 108H147.2C144.8 107.4 142.9 105.4 142.6 103.2L142.5 102.7L142.9 102.9C143.7 103.3 144.4 103.5 145.1 103.4H145.3L145.4 103.6C145.9 104.7 147 105.5 148.2 105.6H148.5L148.4 105.9C148.2 106.7 147.9 107.4 147.5 108H147.4ZM143.1 103.5C143.6 105.3 145.1 106.9 147.1 107.5C147.4 107.1 147.6 106.6 147.8 106C146.6 105.8 145.5 105 145 103.9C144.4 103.9 143.8 103.8 143.1 103.5ZM148.5 105C147.8 105 147.1 104.7 146.6 104.3C145.8 103.6 145.2 102.3 146.1 101L146.3 100.7L146.5 101C147.5 102.3 148.7 103.3 150 104L150.3 104.2L150.1 104.4C149.6 104.9 149.1 105 148.5 105ZM146.4 101.5C145.9 102.5 146.4 103.4 147 103.9C147.7 104.5 148.8 104.8 149.6 104.2C148.3 103.5 147.2 102.6 146.4 101.5ZM154.3 103.4L152.3 101.6L154.2 98.1001C155.1 96.4001 155.1 96.4001 155.3 96.2001L155.4 96.0001H155.6C156.3 96.3001 157 96.6001 157.6 97.0001L157.8 97.1001L157.6 97.3001C157.5 97.4001 157.4 97.6001 157.3 97.7001L154.3 103.4ZM153 101.5L154.3 102.6L157.1 97.6001C157.2 97.5001 157.2 97.4001 157.3 97.3001C156.9 97.0001 156.4 96.8001 155.8 96.5001C155.7 96.7001 155.5 97.0001 154.8 98.2001L153 101.5ZM144.7 102.9C144 102.9 143.3 102.7 142.6 102.2L142.5 102.1V102C142.7 100.3 143.7 99.1001 144.3 98.3001L144.7 97.8001L144.8 98.2001C145.1 98.9001 145.4 99.6001 145.8 100.2L145.9 100.3L145.8 100.4C145.2 101.1 145 101.8 145 102.6V102.8H144.8C144.9 102.9 144.8 102.9 144.7 102.9ZM143 101.8C143.6 102.2 144.1 102.4 144.7 102.4C144.7 101.7 145 101 145.5 100.3C145.2 99.8001 144.9 99.2001 144.7 98.7001C144 99.4001 143.2 100.4 143 101.8ZM168.7 100.7C167.6 100.7 166.6 100.4 165.7 99.8001L165.5 99.7001L165.6 99.5001C165.9 98.9001 166.2 98.2001 166.5 97.6001L166.6 97.3001L166.9 97.5001C167.1 97.7001 167.3 97.8001 167.6 97.9001C168.2 98.1001 168.9 98.2001 169.5 98.0001L169.8 97.9001V98.2001C169.9 98.9001 170 99.6001 170.2 100.3L170.3 100.5L170.1 100.6C169.5 100.7 169.1 100.7 168.7 100.7ZM166.1 99.6001C167.1 100.2 168.4 100.4 169.6 100.2C169.5 99.7001 169.4 99.1001 169.3 98.6001C168.6 98.7001 168 98.6001 167.4 98.4001C167.2 98.3001 167 98.2001 166.9 98.1001C166.6 98.6001 166.4 99.1001 166.1 99.6001ZM170.6 100.4L170.5 100.1C170.3 99.4001 170.2 98.6001 170.1 97.9001V97.7001L170.2 97.6001C170.8 97.2001 171.3 96.7001 171.5 96.0001L172.4 93.8001C172.7 93.1001 173.1 92.5001 173.6 91.9001L173.9 91.6001L174 92.0001C174.3 92.8001 174.6 93.4001 175 94.1001L175.1 94.2001L175 94.3001C174.9 94.4001 174.9 94.6001 174.8 94.7001L173.9 96.9001C173.3 98.4001 172.2 99.5001 170.8 100.1L170.6 100.4ZM170.6 98.0001C170.7 98.6001 170.8 99.2001 170.9 99.7001C172.1 99.1001 173 98.1001 173.5 96.9001L174.4 94.7001C174.4 94.6001 174.5 94.5001 174.6 94.4001C174.3 93.9001 174 93.3001 173.7 92.7001C173.3 93.1001 173.1 93.6001 172.9 94.1001L172 96.3001C171.7 97.0001 171.3 97.6001 170.6 98.0001ZM156.8 100L157.8 98.2001C158.3 97.2001 159.4 96.7001 160.5 96.9001L160.9 97.0001L160.7 97.3001C159.9 98.6001 158.8 99.5001 157.4 99.9001L156.8 100ZM160.1 97.3001C159.3 97.3001 158.6 97.7001 158.3 98.4001L157.9 99.2001C158.7 98.7001 159.5 98.1001 160.1 97.3001ZM158.2 97.0001L158.1 96.9001C157.6 96.5001 156.9 96.1001 156.2 95.8001L155.9 95.7001L156.2 95.4001C157.6 94.0001 159.7 93.4001 161.6 93.9001H161.8V94.1001C161.8 94.9001 161.6 95.6001 161.3 96.3001L161.2 96.5001L161 96.4001C160.1 96.2001 159.2 96.3001 158.4 96.9001L158.2 97.0001ZM156.7 95.5001C157.3 95.8001 157.8 96.1001 158.3 96.4001C159.1 95.9001 160 95.7001 160.9 95.9001C161.1 95.4001 161.2 94.9001 161.2 94.3001C159.6 94.0001 157.9 94.4001 156.7 95.5001ZM149.7 95.9001L149.6 95.4001C149.5 94.9001 149.4 94.4001 149.4 93.9001V92.1001L149.8 91.6001L150 92.0001C150.3 92.5001 150.8 93.1001 151.5 93.4001L151.8 93.5001L149.7 95.9001ZM149.9 92.7001V94.0001C149.9 94.3001 149.9 94.6001 150 94.9001L151 93.7001C150.6 93.4001 150.2 93.0001 149.9 92.7001ZM175.5 93.9001L175.4 93.7001C174.9 92.9001 174.6 92.1001 174.5 91.6001V91.4001L174.6 91.3001C175.9 90.4001 177.6 90.0001 179.2 90.4001L181.4 90.9001C181.7 91.0001 182 91.2001 182.2 91.5001C182.4 91.8001 182.4 92.1001 182.4 92.5001C182.2 93.2001 181.5 93.6001 180.8 93.5001L178.6 93.0001C177.6 92.8001 176.6 93.0001 175.8 93.7001L175.5 93.9001ZM174.9 91.6001C175 92.0001 175.2 92.6001 175.6 93.1001C176.5 92.4001 177.6 92.2001 178.6 92.4001L180.8 92.9001C181.2 93.0001 181.7 92.7001 181.8 92.3001C181.9 92.1001 181.8 91.9001 181.7 91.7001C181.6 91.5001 181.4 91.4001 181.2 91.3001L179 90.8001C177.6 90.6001 176.1 90.8001 174.9 91.6001ZM152.1 93.0001H152C151.1 92.9001 150.5 91.9001 150.2 91.4001L150.1 91.3001L150.2 91.2001C150.7 90.5001 150.9 89.7001 150.7 88.9001V88.7001H150.9C151.4 88.6001 152.1 88.4001 152.7 87.7001L153 87.4001L153.1 87.8001C153.7 89.5001 153.3 91.5001 152.2 93.0001H152.1ZM150.7 91.3001C151 91.8001 151.4 92.3001 151.9 92.5001C152.8 91.3001 153.1 89.7001 152.8 88.2001C152.3 88.7001 151.7 88.9001 151.3 89.0001C151.4 89.8001 151.2 90.6001 150.7 91.3001ZM149.4 91.5001V87.4001L149.8 88.0001C150.4 88.8001 150.4 90.0001 149.8 90.8001L149.4 91.5001ZM150.5 88.1001L150.4 88.0001C149.7 86.9001 148.7 86.5001 147.5 86.1001C147.2 86.0001 146.9 85.9001 146.6 85.8001L146.3 85.7001L146.5 85.4001C146.8 85.1001 147.3 84.5001 147.6 83.6001L147.7 83.4001L147.9 83.5001C148 83.5001 148.2 83.6001 148.3 83.6001C149.5 84.0001 151.4 84.6001 152.6 86.6001L152.7 86.7001L152.6 86.8001C152 87.9001 151 88.1001 150.6 88.1001H150.5ZM147.1 85.5001C147.3 85.6001 147.5 85.6001 147.7 85.7001C148.8 86.1001 150 86.5001 150.8 87.7001C151.2 87.6001 151.8 87.4001 152.2 86.8001C151.1 85.1001 149.3 84.5001 148.3 84.2001C148.2 84.2001 148.1 84.1001 148.1 84.1001C147.7 84.7001 147.4 85.2001 147.1 85.5001ZM145.8 85.5001L145.7 85.4001C144.5 84.8001 143.4 84.1001 142.3 83.3001L142.1 83.1001L142.4 82.9001C142.8 82.6001 143.3 82.1001 143.6 81.3001L143.7 81.0001L144 81.2001C145 82.0001 146 82.7001 147.2 83.2001L147.4 83.3001L147.3 83.5001C146.9 84.6001 146.3 85.2001 146 85.4001L145.8 85.5001ZM142.8 83.1001C143.7 83.8001 144.7 84.4001 145.7 84.9001C146 84.7001 146.3 84.2001 146.6 83.5001C145.6 83.0001 144.6 82.5001 143.8 81.8001C143.6 82.4001 143.2 82.8001 142.8 83.1001ZM167.2 83.9001H161.5C160.6 83.9001 159.9 83.2001 159.9 82.3001C159.9 81.4001 160.6 80.7001 161.5 80.7001H162C162.1 80.7001 162.2 80.6001 162.2 80.5001C162.2 80.4001 162.1 80.3001 162 80.3001H161.5C160.6 80.3001 159.9 79.6001 159.9 78.7001C159.9 77.8001 160.6 77.1001 161.5 77.1001H167.2C168.1 77.1001 168.8 77.8001 168.8 78.7001C168.8 79.6001 168.1 80.3001 167.2 80.3001H165.8C165.7 80.3001 165.6 80.4001 165.6 80.5001C165.6 80.6001 165.7 80.7001 165.8 80.7001H167.2C168.1 80.7001 168.8 81.4001 168.8 82.3001C168.8 83.2001 168.1 83.9001 167.2 83.9001ZM161.5 81.1001C160.9 81.1001 160.3 81.6001 160.3 82.2001C160.3 82.8001 160.8 83.4001 161.4 83.4001H167.1C167.7 83.4001 168.2 82.9001 168.2 82.2001C168.2 81.6001 167.7 81.1001 167.1 81.1001H165.7C165.3 81.1001 165 80.8001 165 80.4001C165 80.0001 165.3 79.7001 165.7 79.7001H167.1C167.7 79.7001 168.2 79.2001 168.2 78.5001C168.2 77.9001 167.7 77.4001 167.1 77.4001H161.4C160.8 77.4001 160.3 77.9001 160.3 78.5001C160.3 79.1001 160.8 79.7001 161.4 79.7001H161.9C162.3 79.7001 162.6 80.0001 162.6 80.4001C162.6 80.8001 162.3 81.1001 161.9 81.1001H161.5ZM148.9 83.3001L148.6 83.2001C147.1 82.7001 145.8 82.1001 144.6 81.2001L144.5 81.1001V72.7001C144.5 72.5001 144.6 72.2001 144.9 72.2001C145.1 72.1001 145.4 72.2001 145.5 72.4001L152.6 80.7001C152.7 80.9001 152.8 81.1001 152.7 81.3001C152.6 81.5001 152.4 81.6001 152.2 81.6001H149.2C149.1 81.6001 149 81.7001 149 81.8001V83.3001H148.9ZM145 80.9001C146.1 81.7001 147.2 82.3001 148.4 82.7001V81.9001C148.4 81.5001 148.7 81.2001 149.1 81.2001H152.1C152.2 81.2001 152.2 81.2001 152.2 81.1001V81.0001L145.1 72.7001H145C145 72.7001 144.9 72.7001 144.9 72.8001V80.9001H145ZM141.7 82.7001L141.6 82.6001C140.7 81.8001 140 80.9001 139.3 79.9001L139.2 79.7001L139.4 79.6001C140 79.3001 140.5 78.9001 141 78.3001L141.2 78.1001L141.4 78.4001C141.9 79.2001 142.5 79.9001 143.1 80.5001L143.2 80.6001V80.7001C143 81.9001 142.3 82.4001 141.9 82.7001H141.7ZM139.8 79.9001C140.4 80.7001 141 81.5001 141.7 82.2001C142 82.0001 142.5 81.6001 142.6 80.8001C142 80.2001 141.5 79.6001 141.1 78.9001C140.7 79.3001 140.2 79.6001 139.8 79.9001ZM138.8 79.3001L138.7 79.1001C137.8 77.5001 137.2 75.9001 136.8 74.1001C136.7 73.8001 136.8 73.4001 137 73.1001C137.2 72.8001 137.5 72.6001 137.8 72.5001C138.5 72.4001 139.2 72.8001 139.3 73.5001C139.6 74.9001 140 76.2001 140.7 77.4001L140.8 77.5001L140.7 77.6001C140.2 78.2001 139.6 78.7001 138.9 79.0001L138.8 79.3001ZM138.1 73.0001C138 73.0001 138 73.0001 137.9 73.0001C137.7 73.0001 137.5 73.2001 137.4 73.4001C137.3 73.6001 137.2 73.8001 137.3 74.0001C137.6 75.6001 138.2 77.2001 139 78.6001C139.4 78.4001 139.9 78.0001 140.3 77.5001C139.6 76.3001 139.2 75.0001 138.9 73.6001C138.8 73.3001 138.5 73.0001 138.1 73.0001ZM166.5 76.4001H162.1V73.0001L162.4 73.1001C163.6 73.5001 165 73.5001 166.2 73.1001L166.5 73.0001V76.4001ZM162.6 76.0001H166V73.6001C164.9 73.9001 163.7 73.9001 162.6 73.6001V76.0001ZM164.4 72.9001C161.1 72.9001 158.4 70.2001 158.4 66.9001C158.4 63.6001 161.1 60.9001 164.4 60.9001C167.7 60.9001 170.4 63.6001 170.4 66.9001C170.3 70.2001 167.6 72.9001 164.4 72.9001ZM164.4 61.4001C161.4 61.4001 158.9 63.9001 158.9 66.9001C158.9 69.9001 161.4 72.4001 164.4 72.4001C167.4 72.4001 169.9 69.9001 169.9 66.9001C169.9 63.8001 167.4 61.4001 164.4 61.4001Z" fill="#35414D"/>
<path d="M164.4 69.7001C165.946 69.7001 167.2 68.4465 167.2 66.9001C167.2 65.3537 165.946 64.1001 164.4 64.1001C162.854 64.1001 161.6 65.3537 161.6 66.9001C161.6 68.4465 162.854 69.7001 164.4 69.7001Z" fill="#35414D"/>
</g>
<defs>
<clipPath id="clip0_836_5175">
<rect width="197.5" height="180" fill="white"/>
</clipPath>
</defs>
</svg>
