<?xml version="1.0" encoding="utf-8"?>
<!-- Generator: Adobe Illustrator 25.0.0, SVG Export Plug-In . SVG Version: 6.00 Build 0)  -->
<svg version="1.1" id="Layer_1" xmlns="http://www.w3.org/2000/svg" xmlns:xlink="http://www.w3.org/1999/xlink" x="0px" y="0px"
	 viewBox="0 0 198 180" style="enable-background:new 0 0 198 180;" xml:space="preserve">
<style type="text/css">
	.st0{fill:#F5C84C;}
	.st1{fill:#FC657E;}
	.st2{fill:#F98FA6;}
	.st3{fill:#35414D;}
	.st4{fill:#DAE6F1;}
	.st5{fill:#FCA265;}
	.st6{fill:#FC8C48;}
	.st7{fill:#9BE5F9;}
	.st8{fill:#70D6F9;}
	.st9{fill:#87D147;}
	.st10{fill:#FEB69F;}
	.st11{fill:#EFEFEF;}
	.st12{fill:#AFAFAF;}
	.st13{fill:#72C2E9;}
	.st14{fill:#EA8F7C;}
	.st15{fill:#F0C020;}
	.st16{fill:#FFFFFF;}
</style>
<g>
	<g>
		<path class="st0" d="M185.7,137.3c-2.1-0.4-3.7-2-4.1-4.1c0-0.1-0.2-0.1-0.2,0c-0.4,2.1-2.1,3.7-4.1,4.1c-0.1,0-0.1,0.1,0,0.2
			c2.1,0.4,3.7,2,4.1,4.1c0,0.1,0.2,0.1,0.2,0c0.4-2.1,2.1-3.7,4.1-4.1C185.7,137.4,185.7,137.3,185.7,137.3z"/>
	</g>
	<g>
		<path class="st1" d="M185.5,31c3-0.5,5.3-2.9,5.9-5.8c0-0.1,0.3-0.1,0.3,0c0.6,2.9,2.9,5.2,5.9,5.8c0.1,0,0.1,0.2,0,0.3
			c-3,0.5-5.3,2.9-5.9,5.8c0,0.1-0.3,0.1-0.3,0c-0.6-2.9-2.9-5.2-5.9-5.8C185.4,31.2,185.4,31,185.5,31z"/>
	</g>
	<g>
		<g>
			<path class="st1" d="M125.2,127.6c-8.1,5.5-13.3,13.7-15.3,22.6c-0.2,0.8-1.1,1.2-1.8,0.9c-2.3-1.1-4.9-1.6-7.6-1.3
				c-4.7,0.4-8.7,3-11.1,6.6c-0.5,0.7-0.4,1.8,0.2,2.4c2.8,2.9,6.7,4.6,10.9,4.6c1,0,1.7,1,1.3,2c-1.6,3.9-1.4,8.1,0.3,11.8
				c0.4,0.8,1.3,1.3,2.1,1.1c4.3-0.9,8.1-3.7,10.2-7.9c1.2-2.4,1.7-5,1.6-7.6c0-0.8,0.7-1.5,1.5-1.4c9,1.4,18.5-0.5,26.6-6
				c9-6.2,14.4-15.6,15.8-25.6c0.5-3.5-1.8-6.8-5.2-7.6C145,119.8,134.2,121.5,125.2,127.6L125.2,127.6z"/>
		</g>
		<g>
			<g>
				<path class="st2" d="M125.2,127.6c2.9-2,5.9-3.5,9.1-4.5c-2-0.9-4.2-1.5-6.6-1.7c-7-0.7-13.5,1.8-18.1,6.5
					c-0.9,0.9-1.1,2.4-0.4,3.5c1.6,2.5,3.6,4.6,6,6.2C117.8,133.8,121.2,130.4,125.2,127.6L125.2,127.6z"/>
			</g>
		</g>
		<g>
			<g>
				<path class="st2" d="M124.9,161.9c0.4,2.5,1.5,4.9,3.1,6.9c0.6,0.7,1.5,0.9,2.3,0.5c3.9-2,6.9-5.6,7.9-10.2c0-0.1,0-0.2,0.1-0.4
					C134,160.6,129.5,161.7,124.9,161.9z"/>
			</g>
		</g>
		<g>
			<path class="st2" d="M139.6,121.7c-1.9,5-1.4,10.7,1.9,15.4c3.1,4.6,8.1,7.1,13.3,7.3c2.8-4.5,4.6-9.5,5.3-14.6
				c0.5-3.5-1.8-6.8-5.2-7.6C149.8,121,144.7,120.8,139.6,121.7z"/>
		</g>
		<g>
			<path class="st3" d="M104.6,179.9c-1.6,0.3-3.3-0.5-4-2c-1.8-4-2-8.7-0.4-12.8c-4.4,0-8.7-1.9-11.8-5.1c-1.2-1.2-1.3-3.1-0.4-4.5
				c2.8-4.2,7.3-6.9,12.3-7.4c2.8-0.3,5.5,0.2,8.1,1.3c2.2-9.5,7.8-17.7,15.9-23.2c9-6.2,20.3-8.2,30.9-5.7c4.3,1,7.1,5.1,6.5,9.5
				c-1.5,10.8-7.5,20.6-16.5,26.7c-8,5.5-17.7,7.7-27.4,6.3c0.1,2.7-0.5,5.5-1.8,8C113.7,175.6,109.6,178.8,104.6,179.9
				C104.6,179.9,104.6,179.9,104.6,179.9z M99.2,151.7c-3.4,0.7-6.4,2.7-8.4,5.7c-0.1,0.1,0,0.2,0,0.3c2.5,2.6,6.1,4.1,9.7,4
				c1,0,2,0.5,2.6,1.3s0.7,1.9,0.3,2.9c-1.4,3.4-1.3,7.2,0.2,10.5c0,0.1,0.2,0.2,0.3,0.1c4-0.9,7.3-3.4,9.1-7.1
				c1-2.1,1.5-4.4,1.4-6.7c-0.1-0.9,0.3-1.7,1-2.4c0.7-0.6,1.6-0.9,2.4-0.7c8.9,1.4,18-0.6,25.4-5.7c8.2-5.6,13.8-14.5,15.1-24.4
				c0.4-2.7-1.3-5.2-4-5.8c-9.7-2.3-20-0.4-28.3,5.2c-7.5,5.1-12.6,12.8-14.6,21.6c-0.2,0.9-0.8,1.6-1.6,2c-0.8,0.4-1.7,0.4-2.5,0
				c-2.1-1-4.4-1.4-6.8-1.2C100.1,151.5,99.6,151.6,99.2,151.7L99.2,151.7z"/>
		</g>
		<g>
			<g>
				<path class="st3" d="M115.6,139.2C115.6,139.2,115.6,139.2,115.6,139.2c-0.5,0.1-0.9,0-1.3-0.3c-2.6-1.8-4.8-4.1-6.5-6.7
					c-1.1-1.8-0.9-4.1,0.6-5.6c5.1-5.2,12.2-7.7,19.5-6.9c2.4,0.3,4.8,0.9,7,1.9c0.6,0.3,1,0.9,1,1.6s-0.5,1.3-1.1,1.5
					c-3.1,1-6,2.5-8.7,4.3c-3.8,2.6-6.9,5.8-9.5,9.5C116.4,138.9,116.1,139.2,115.6,139.2z M121.2,123.3c-3.9,0.8-7.5,2.7-10.4,5.7
					c-0.4,0.4-0.4,1-0.1,1.5c1.2,1.8,2.6,3.4,4.3,4.8c2.6-3.5,5.7-6.5,9.3-9c1.6-1.1,3.4-2.1,5.1-3c-0.6-0.1-1.2-0.2-1.8-0.3
					C125.4,122.8,123.3,122.9,121.2,123.3L121.2,123.3z M125.2,127.6L125.2,127.6L125.2,127.6z"/>
			</g>
		</g>
		<g>
			<g>
				<path class="st3" d="M130.2,171c-1.3,0.3-2.7-0.2-3.5-1.3c-1.8-2.2-3-4.9-3.5-7.7c-0.1-0.5,0-1,0.3-1.3c0.3-0.4,0.7-0.6,1.2-0.6
					c4.5-0.2,8.8-1.2,12.9-3c0.6-0.3,1.2-0.2,1.7,0.2c0.5,0.4,0.7,1,0.6,1.6l0,0.1c0,0.1,0,0.2-0.1,0.3c-1.1,5-4.3,9.1-8.8,11.4
					C130.8,170.9,130.5,171,130.2,171z M127,163.4c0.5,1.6,1.3,3,2.3,4.3c0.1,0.1,0.2,0.1,0.3,0.1c2.7-1.4,4.9-3.6,6.1-6.3
					C132.9,162.5,130,163.1,127,163.4z"/>
			</g>
		</g>
		<g>
			<path class="st3" d="M147.8,131.4c-0.6,0.1-1.3-0.1-1.7-0.7c-0.5-0.8-0.3-1.8,0.4-2.3l0.6-0.4c0.8-0.5,1.8-0.3,2.3,0.4
				c0.5,0.8,0.3,1.8-0.4,2.3l-0.6,0.4C148.3,131.3,148,131.4,147.8,131.4L147.8,131.4z"/>
		</g>
		<g>
			<path class="st3" d="M121,149.3c-0.8,0.2-1.6-0.2-1.9-1c-1.1-2.7-0.2-5.9,2.2-7.6c1.2-0.8,2.7-1.2,4.2-1.1
				c0.4-1.4,1.3-2.6,2.5-3.5c2.4-1.7,5.8-1.4,7.9,0.7c0.7,0.6,0.7,1.7,0,2.3c-0.6,0.7-1.7,0.7-2.3,0c-1-1-2.5-1.1-3.7-0.3
				c-0.9,0.6-1.4,1.7-1.3,2.7c0.1,0.6-0.2,1.2-0.7,1.6c-0.5,0.3-1.2,0.4-1.7,0.1c-1-0.5-2.1-0.4-3,0.2c-1.1,0.8-1.6,2.3-1,3.5
				c0.4,0.8,0,1.8-0.9,2.2C121.2,149.2,121.1,149.3,121,149.3L121,149.3z"/>
		</g>
		<g>
			<path class="st3" d="M129.4,153.2c-0.1,0-0.1,0-0.2,0c-0.9,0.1-1.7-0.6-1.8-1.5c-0.2-2.3,0.8-4.5,2.7-5.8c2-1.3,4.5-1.5,6.5-0.3
				c0.8,0.4,1.1,1.5,0.6,2.3c-0.4,0.8-1.5,1.1-2.3,0.6c-1-0.5-2.1-0.5-3.1,0.1c-0.9,0.6-1.4,1.7-1.3,2.7
				C130.8,152.3,130.2,153,129.4,153.2L129.4,153.2z"/>
		</g>
		<g>
			<path class="st3" d="M155,146.1c-0.1,0-0.3,0-0.4,0c-5.8-0.2-11.3-3.2-14.6-8.1c-3.4-5-4.2-11.3-2-16.9c0.2-0.5,0.7-0.9,1.3-1.1
				c5.3-0.9,10.6-0.8,15.9,0.5c4.3,1,7.1,5.1,6.5,9.5c-0.8,5.5-2.6,10.6-5.5,15.3C155.9,145.8,155.5,146,155,146.1L155,146.1z
				 M140.8,123.2c-1.3,4.4-0.6,9.2,2,13c2.6,3.7,6.5,6.1,11,6.5c2.4-4,3.9-8.5,4.6-13.1c0.4-2.7-1.3-5.2-4-5.8
				C149.9,122.7,145.4,122.5,140.8,123.2L140.8,123.2z"/>
		</g>
	</g>
	<g>
		
			<ellipse transform="matrix(0.2299 -0.9732 0.9732 0.2299 -35.4664 128.9797)" class="st4" cx="63.8" cy="86.9" rx="13" ry="13.2"/>
	</g>
	<g>
		<path class="st5" d="M56.8,75.8c3.2-2,6.9-2.4,10.3-1.5l0.2-0.1c3.2-1.9,4.1-6.1,2.1-9.2c-2-3.1-6.2-4.1-9.3-2.2L5.3,96.5
			c-3.2,1.9-4.1,6.1-2.1,9.2s6.2,4.1,9.3,2.2l38.4-23.6C51.6,80.9,53.6,77.8,56.8,75.8z"/>
	</g>
	<g>
		<path class="st6" d="M68.4,66c-2-3.1-6.2-4.1-9.3-2.2l-8.3,5.1l5,7.9c3.2-2,6.9-2.4,10.3-1.5l0.2-0.1C69.5,73.2,70.4,69.1,68.4,66
			z"/>
	</g>
	<g>
		<path class="st7" d="M162.6,2.5l-97,59.6c1.5,0.5,2.8,1.4,3.7,2.9c0.9,1.4,1.2,3,0.9,4.6l97-59.6c2.1-1.3,2.7-4,1.4-6
			C167.4,1.9,164.7,1.2,162.6,2.5L162.6,2.5z"/>
	</g>
	<g>
		<path class="st8" d="M30.8,55.2l1.3,0.6l-0.6,1.3c-0.5,1-0.1,2.1,0.9,2.6c0.9,0.4,2.1,0.1,2.6-0.9l0-0.1l0.6-1.3l1.3,0.6
			c1,0.5,2.1,0.1,2.6-0.9c0.4-0.9,0.1-2.1-0.9-2.6l-0.1,0L37.2,54l0.6-1.3c0.5-1,0.1-2.1-0.9-2.6c-0.9-0.4-2.1-0.1-2.6,0.9l0,0.1
			l-0.6,1.3l-1.3-0.6c-1-0.5-2.1-0.1-2.6,0.9C29.4,53.6,29.8,54.8,30.8,55.2C30.7,55.2,30.7,55.2,30.8,55.2L30.8,55.2z"/>
	</g>
	<g>
		<ellipse transform="matrix(0.4281 -0.9037 0.9037 0.4281 -2.2385 76.9825)" class="st0" cx="59.7" cy="40.3" rx="2.1" ry="2.1"/>
	</g>
	<g>
		<circle class="st9" cx="181.3" cy="56.4" r="2.3"/>
	</g>
	<g>
		<path class="st3" d="M60.4,101.4c-3.7-0.9-7.2-3.2-9.4-6.6c-4.4-7-2.3-16.2,4.8-20.5c7-4.3,16.3-2.2,20.7,4.8
			c4.4,7,2.3,16.2-4.8,20.5C68.2,101.7,64.2,102.2,60.4,101.4L60.4,101.4z M66.3,76c-2.8-0.7-5.9-0.2-8.5,1.4
			c-5.3,3.2-6.9,10.1-3.6,15.4c3.3,5.2,10.3,6.8,15.5,3.6c5.3-3.2,6.9-10.1,3.6-15.4C71.7,78.4,69.1,76.7,66.3,76L66.3,76z M70.7,98
			L70.7,98L70.7,98z"/>
	</g>
	<g>
		<path class="st3" d="M7,110.5c-2.2-0.5-4.1-1.8-5.4-3.8c-2.5-4-1.3-9.3,2.7-11.8l54.8-33.7c4-2.5,9.4-1.2,11.9,2.8
			c2.5,4,1.3,9.3-2.7,11.8l-0.2,0.1c-0.4,0.3-1,0.3-1.5,0.2c-3-0.8-6.2-0.3-8.8,1.3c-2.6,1.6-4.4,4.2-5.1,7.2
			c-0.1,0.5-0.4,0.9-0.8,1.2l-38.4,23.6C11.5,110.7,9.1,111,7,110.5L7,110.5z M64.8,63.8c-1.2-0.3-2.5-0.1-3.7,0.6L6.3,98.1
			c-2.3,1.4-3,4.4-1.5,6.7c1.4,2.3,4.5,3,6.7,1.6l37.7-23.2c1-3.7,3.3-6.8,6.6-8.9c3.3-2,7.1-2.7,10.9-1.9c1.9-1.5,2.4-4.2,1.1-6.4
			C67.1,64.9,66,64.1,64.8,63.8L64.8,63.8z"/>
	</g>
	<g>
		<path class="st3" d="M75.1,107.3c-0.5-0.1-0.9-0.4-1.2-0.8L62,87.6c-0.6-0.9-0.3-2,0.6-2.6c0.9-0.5,2-0.3,2.6,0.6l11.9,18.8
			c0.6,0.9,0.3,2-0.6,2.6C76,107.3,75.5,107.4,75.1,107.3z"/>
	</g>
	<g>
		<path class="st3" d="M70.3,110.2c-0.5-0.1-0.9-0.4-1.2-0.8c-0.6-0.9-0.3-2,0.6-2.6l9.5-5.8c0.9-0.5,2-0.3,2.6,0.6
			c0.6,0.9,0.3,2-0.6,2.6l-9.5,5.8C71.3,110.2,70.8,110.3,70.3,110.2L70.3,110.2z"/>
	</g>
	<g>
		<path class="st3" d="M163.4,17.5c-0.5-0.1-0.9-0.4-1.2-0.8L155,5.3c-0.6-0.9-0.3-2,0.6-2.6c0.9-0.5,2-0.3,2.6,0.6l7.2,11.4
			c0.6,0.9,0.3,2-0.6,2.6C164.3,17.6,163.8,17.7,163.4,17.5z"/>
	</g>
	<g>
		<g>
			<path class="st3" d="M144.5,33.1c-2.4-0.6-4.7-1.7-6.8-3.4c-0.8-0.7-0.9-1.8-0.2-2.6c0.7-0.8,1.9-0.9,2.6-0.2
				c4.1,3.4,10,3.9,14.5,1.1c4.6-2.8,6.7-8.2,5.4-13.3c-0.3-1,0.4-2,1.4-2.2c1-0.2,2,0.4,2.3,1.4c1.7,6.7-1.1,13.7-7.1,17.4
				C153,33.4,148.6,34,144.5,33.1z"/>
		</g>
	</g>
	<g>
		<path class="st3" d="M139.2,32.4c-0.5-0.1-0.9-0.4-1.2-0.8l-7.2-11.4c-0.6-0.9-0.3-2,0.6-2.6c0.9-0.5,2-0.3,2.6,0.6l7.2,11.4
			c0.6,0.9,0.3,2-0.6,2.6C140.2,32.5,139.6,32.5,139.2,32.4z"/>
	</g>
	<g>
		<path class="st3" d="M115,47.3c-0.5-0.1-0.9-0.4-1.2-0.8l-7.2-11.4c-0.6-0.9-0.3-2,0.6-2.6c0.9-0.5,2-0.3,2.6,0.6l7.2,11.4
			c0.6,0.9,0.3,2-0.6,2.6C116,47.3,115.5,47.4,115,47.3z"/>
	</g>
	<g>
		<g>
			<path class="st3" d="M120.3,47.9c-2.4-0.6-4.7-1.7-6.8-3.4c-0.8-0.7-0.9-1.8-0.2-2.6c0.7-0.8,1.9-0.9,2.6-0.2
				c4.1,3.4,10,3.9,14.5,1.1c4.6-2.8,6.7-8.2,5.4-13.3c-0.3-1,0.4-2,1.4-2.2c1-0.2,2,0.4,2.3,1.4c1.7,6.7-1.1,13.7-7.1,17.4
				C128.8,48.2,124.4,48.9,120.3,47.9z"/>
		</g>
	</g>
	<g>
		<path class="st3" d="M90.8,62.2c-0.5-0.1-0.9-0.4-1.2-0.8L82.4,50c-0.6-0.9-0.3-2,0.6-2.6c0.9-0.5,2-0.3,2.6,0.6l7.2,11.4
			c0.6,0.9,0.3,2-0.6,2.6C91.8,62.2,91.3,62.3,90.8,62.2L90.8,62.2z"/>
	</g>
	<g>
		<g>
			<path class="st3" d="M96.1,62.8c-2.4-0.6-4.7-1.7-6.8-3.4c-0.8-0.7-0.9-1.8-0.2-2.6c0.7-0.8,1.9-0.9,2.6-0.2
				c4.1,3.4,10,3.9,14.5,1.1c4.6-2.8,6.7-8.2,5.4-13.3c-0.3-1,0.4-2,1.4-2.2c1-0.2,2,0.4,2.3,1.4c1.7,6.7-1.1,13.7-7.1,17.4
				C104.6,63.1,100.2,63.8,96.1,62.8L96.1,62.8z"/>
		</g>
	</g>
	<g>
		<g>
			<g>
				<path class="st3" d="M71.9,77.7c-1.4-0.3-2.8-0.9-4.2-1.6c-0.9-0.5-1.2-1.6-0.7-2.5c0.5-0.9,1.6-1.2,2.6-0.7
					c3.9,2.2,8.8,2.1,12.6-0.3c4.6-2.8,6.7-8.2,5.4-13.3c-0.3-1,0.4-2,1.4-2.2c1-0.2,2,0.4,2.3,1.4c1.7,6.7-1.1,13.7-7.1,17.4
					C80.4,78,76,78.6,71.9,77.7L71.9,77.7z"/>
			</g>
		</g>
	</g>
	<g>
		<path class="st3" d="M164.5,79.7c-0.8,0-1.5-0.8-1.5-1.8V12.4c0-1,0.7-1.8,1.5-1.8s1.5,0.8,1.5,1.8v65.5
			C166.1,78.9,165.4,79.7,164.5,79.7z"/>
	</g>
	<g>
		<path class="st3" d="M56.4,77.6c-0.5-0.1-0.9-0.4-1.2-0.8l-5-7.9c-0.6-0.9-0.3-2,0.6-2.6l8.3-5.1c4-2.5,9.4-1.2,11.9,2.8
			c2.5,4,1.3,9.3-2.7,11.8l-0.2,0.1c-0.4,0.3-1,0.3-1.5,0.2c-3-0.8-6.2-0.3-8.8,1.3C57.3,77.7,56.8,77.8,56.4,77.6L56.4,77.6z
			 M54.4,68.5l3.1,4.8c2.9-1.3,6.1-1.7,9.3-1c1.9-1.5,2.4-4.2,1.1-6.4c-1.4-2.3-4.5-3-6.7-1.6L54.4,68.5z"/>
	</g>
	<g>
		<path class="st3" d="M69.9,71.4c-0.2,0-0.4-0.1-0.6-0.3c-0.6-0.4-0.9-1.1-0.8-1.8c0.2-1.1-0.1-2.3-0.7-3.3c-0.6-1-1.6-1.7-2.7-2.1
			c-0.7-0.2-1.2-0.8-1.3-1.5c-0.1-0.7,0.2-1.4,0.9-1.8l97-59.6c1.4-0.9,3.1-1.1,4.7-0.8c1.6,0.4,3,1.4,3.9,2.8
			c1.8,2.9,0.9,6.8-2,8.6l-97,59.6C70.9,71.4,70.4,71.5,69.9,71.4L69.9,71.4z M69.3,62.1c0.6,0.6,1.2,1.2,1.7,1.9
			c0.5,0.7,0.8,1.5,1,2.3l94.3-58c1.2-0.7,1.5-2.3,0.8-3.5c-0.7-1.1-2.3-1.5-3.5-0.8L69.3,62.1z M162.6,2.5L162.6,2.5L162.6,2.5z"/>
	</g>
	<g id="Layer_1_2_">
		<g>
			<g>
				<path class="st10" d="M162.2,93.7c0,1.1-0.2,2-0.7,3c-0.5-0.2-1-0.3-1.4-0.2c-0.9,0.1-1.7,0.6-2.2,1.5l-1.3,2.3l-2.7,4.8
					c-4.4,7.9-15.5,0.2-9.8-6.6l1-1.2c0.3,1.1,0.9,2.1,1.5,3c-0.2,0.3-0.6,0.7-0.8,1.2c-1,2.8,3.2,5.3,5.1,2.5
					c0.1-0.2,0,0.1,2.4-4.3c0.8-1.5,0.4-0.8,1.8-3.3c1.2-2.1,3.4-3.2,5.7-3C161.3,93.5,161.7,93.6,162.2,93.7L162.2,93.7z"/>
				<path class="st10" d="M152.5,93.3c-1.9,2.2-1.2,1.5-2.6,3.1c-0.3-0.7-0.5-1.5-0.5-2.4v-1.9l0.7-0.8c1-1.2,1-3.1-0.7-4.2
					c-0.4-0.2-0.8-0.4-1.3-0.6c-1.3-0.4-2.5-0.9-3.6-1.5c-4-2.3-6.8-6.3-7.7-10.8c-0.2-0.8,0.4-1.7,1.2-1.8c0.8-0.2,1.7,0.4,1.8,1.2
					c0.6,3.1,2.3,5.8,4.7,7.7c1.3,1,2.8,1.8,4.4,2.3c0.2,0,0.3,0.1,0.4,0.1C154.4,85.4,154.9,90.4,152.5,93.3L152.5,93.3z"/>
				<path class="st11" d="M167.1,72.6v4.1h-4.9v-4.1c0.7,0.3,1.6,0.5,2.4,0.5C165.5,73.1,166.3,72.9,167.1,72.6z"/>
				<path class="st12" d="M162.2,75.5h4.9v1.2h-4.9V75.5z"/>
				<path class="st12" d="M164.6,73.1c-0.9,0-1.7-0.2-2.4-0.5v1.3c1.6,0.6,3.3,0.5,4.9,0v-1.3C166.3,72.9,165.5,73.1,164.6,73.1z"/>
				<path class="st13" d="M164.6,69.5c-1.5,0-2.7-1.2-2.7-2.7c0-1.5,1.2-2.7,2.7-2.7c1.5,0,2.7,1.2,2.7,2.7
					C167.3,68.3,166.1,69.5,164.6,69.5z M164.6,60.6c-3.4,0-6.2,2.8-6.2,6.2c0,2.6,1.6,4.8,3.8,5.7c0.7,0.3,1.6,0.5,2.4,0.5
					c0.9,0,1.7-0.2,2.4-0.5c2.2-0.9,3.8-3.2,3.8-5.7C170.9,63.4,168.1,60.6,164.6,60.6L164.6,60.6z"/>
				<path class="st11" d="M152.5,81.9h-3v1.8c-0.1-0.1-0.3-0.1-0.4-0.1c-1.6-0.5-3.1-1.3-4.4-2.3v-8.5c0-0.8,0.9-1.1,1.4-0.5
					l7.1,8.3C153.5,81.1,153.1,81.9,152.5,81.9L152.5,81.9z"/>
				<path class="st14" d="M145.1,97.3c0.3,1.1,0.9,2.1,1.5,3c-0.2,0.3-0.6,0.7-0.8,1.2c-0.1-0.2-0.2-0.3-0.3-0.5
					c-0.6-0.8-1-1.7-1.4-2.6L145.1,97.3z"/>
				<path class="st14" d="M149.9,96.4c-0.3-0.7-0.5-1.5-0.5-2.4v-1.9l0.7-0.8c0.3-0.4,0.6-0.9,0.7-1.5V94c0,0.4,0,0.8,0.1,1.2
					L149.9,96.4z"/>
				<path class="st11" d="M153.3,99.8c-2.4,4.3-2.2,4-2.4,4.3c-0.4-0.2-0.8-0.4-1.2-0.7c-1.2-0.8-2.3-1.9-3.2-3.1
					c-0.6-0.9-1.1-1.9-1.5-3c-0.4-1.1-0.5-2.3-0.5-3.5V85c1.1,0.6,2.3,1.2,3.6,1.5c0.5,0.2,1,0.3,1.3,0.6V94c0,0.8,0.2,1.7,0.5,2.4
					c0.4,1.1,1.2,2.1,2.2,2.8C152.5,99.4,152.9,99.6,153.3,99.8z"/>
				<path class="st11" d="M167.1,84.2V94c0,1-0.1,2-0.4,2.9c-0.3,1.1-0.7,2-1.3,3c-2.2,3.7-6.3,5.6-10,5.4c-0.5,0-1-0.1-1.5-0.1
					l2.7-4.8c0.7-0.1,1.3-0.3,1.8-0.5c1.3-0.6,2.4-1.7,3-3c0.5-1,0.7-2,0.7-3l0-8.4v-1.2L167.1,84.2z"/>
				<g>
					<path class="st12" d="M152.2,99.2c0.4,0.3,0.8,0.5,1.2,0.7c-2.4,4.3-2.2,4-2.4,4.3c-0.4-0.2-0.8-0.4-1.2-0.7
						C149.9,103.2,149.8,103.5,152.2,99.2z"/>
					<path class="st12" d="M158.5,99.7l-3,5.5c-0.5,0-1-0.1-1.5-0.1l2.7-4.8C157.3,100.2,157.9,100,158.5,99.7z"/>
					<path class="st12" d="M162.2,84.2h4.9v1.2h-4.9V84.2z"/>
				</g>
				<path class="st13" d="M169.4,78.5c0,1-0.8,1.9-1.9,1.9h-5.7c-1,0-1.9-0.8-1.9-1.9c0-1,0.8-1.9,1.9-1.9h5.7
					C168.5,76.7,169.4,77.5,169.4,78.5z"/>
				<path class="st13" d="M169.4,82.3c0,1-0.8,1.9-1.9,1.9h-5.7c-1,0-1.9-0.8-1.9-1.9c0-1,0.8-1.9,1.9-1.9h5.7
					C168.5,80.4,169.4,81.3,169.4,82.3z"/>
				<path class="st12" d="M148.7,88.2c-0.3-0.2-0.6-0.3-1-0.4c-1.1-0.3-2.2-0.8-3.2-1.3V85c1.1,0.6,2.3,1.2,3.6,1.5
					c0.5,0.2,1,0.3,1.3,0.6v2.1C149.4,88.8,149.1,88.5,148.7,88.2z"/>
				<path class="st12" d="M149.5,82.2v1.4c-0.1-0.1-0.3-0.1-0.4-0.1c-1.6-0.5-3.1-1.3-4.4-2.3v-1.8
					C145.9,80.6,147.6,81.5,149.5,82.2L149.5,82.2z"/>
				<path class="st10" d="M182.7,92.6c-0.2,0.8-1,1.3-1.9,1.2l-2.2-0.5c-1.4-0.3-2.8,0.4-3.3,1.7l-0.9,2.2c-1.3,3.2-4.9,4.6-7.9,3.3
					c-0.4-0.2-0.8-0.4-1.2-0.7c0.6-0.9,1-1.9,1.3-3l0.5,0.4c0.2,0.2,0.5,0.3,0.7,0.4c1.4,0.6,3.2-0.1,3.8-1.6l0.9-2.2
					c1.1-2.7,4-4.3,6.9-3.6l2.2,0.5C182.4,90.9,182.9,91.7,182.7,92.6L182.7,92.6z"/>
				<path class="st14" d="M160.8,93.5c0.5,0,0.9,0.1,1.4,0.3c0,1.1-0.2,2-0.7,3c-0.5-0.2-1-0.3-1.4-0.2c0.5-0.8,0.8-1.8,0.8-2.8
					V93.5z"/>
				<path class="st14" d="M167.9,97.7c-0.3,1-0.7,2-1.3,2.8c-0.4-0.2-0.8-0.4-1.2-0.7c0.6-0.9,1-1.9,1.3-3l0.5,0.4
					C167.4,97.4,167.6,97.6,167.9,97.7z"/>
			</g>
			<g>
				<g>
					<path class="st3" d="M177.2,84c-0.7-0.2-1.3-0.4-1.7-2c-0.1-0.5-0.9-0.5-1,0c-0.4,1.6-0.9,1.8-1.7,2c-0.5,0.2-0.5,0.8,0,1
						c1.3,0.4,1.4,1.1,1.7,2c0.1,0.5,0.9,0.5,1,0c0.4-1.6,0.9-1.8,1.7-2C177.7,84.8,177.7,84.2,177.2,84z"/>
					<path class="st3" d="M175,87.6c-0.4,0-0.7-0.2-0.7-0.6c-0.2-0.9-0.3-1.5-1.5-1.8c-0.3-0.1-0.5-0.4-0.5-0.7
						c0-0.3,0.2-0.6,0.5-0.7c0.8-0.2,1.2-0.4,1.5-1.8c0.1-0.3,0.4-0.6,0.7-0.6l0,0c0.4,0,0.7,0.2,0.7,0.6c0.3,1.5,0.8,1.6,1.5,1.8
						l0,0c0.3,0.1,0.5,0.4,0.5,0.7c0,0.3-0.2,0.6-0.5,0.7c-0.7,0.2-1.2,0.4-1.5,1.8C175.7,87.4,175.4,87.6,175,87.6z M175,81.8
						c-0.1,0-0.2,0.1-0.3,0.2c-0.4,1.7-1,1.9-1.8,2.2c-0.2,0.1-0.2,0.2-0.2,0.3s0,0.2,0.2,0.3c1.4,0.5,1.6,1.2,1.8,2.2
						c0.1,0.3,0.5,0.3,0.5,0c0.4-1.7,1.1-1.9,1.8-2.2c0.2-0.1,0.2-0.2,0.2-0.3c0,0,0-0.2-0.2-0.3l0,0l0,0l0.1-0.2l-0.1,0.2
						c-0.7-0.2-1.4-0.5-1.8-2.2C175.3,81.9,175.1,81.8,175,81.8L175,81.8z"/>
				</g>
				<path class="st15" d="M175.8,84.5c-0.3,0.2-0.5,0.5-0.8,0.9c-0.2-0.3-0.4-0.6-0.8-0.9c0.3-0.2,0.6-0.5,0.8-0.9
					C175.3,84.1,175.5,84.3,175.8,84.5L175.8,84.5z"/>
			</g>
			<g>
				<g>
					<path class="st3" d="M155.4,71.8c-0.7-0.2-1.3-0.4-1.7-2c-0.1-0.5-0.9-0.5-1,0c-0.4,1.6-0.9,1.8-1.7,2c-0.5,0.2-0.5,0.8,0,1
						c1.3,0.4,1.4,1.1,1.7,2c0.1,0.5,0.9,0.5,1,0c0.4-1.6,0.9-1.8,1.7-2C155.9,72.6,155.9,72,155.4,71.8z"/>
					<path class="st3" d="M153.3,75.4c-0.4,0-0.7-0.2-0.7-0.6c-0.2-0.9-0.3-1.5-1.5-1.8c-0.3-0.1-0.5-0.4-0.5-0.7s0.2-0.6,0.5-0.7
						c0.8-0.2,1.2-0.4,1.5-1.8c0.1-0.3,0.4-0.6,0.7-0.6l0,0c0.4,0,0.6,0.2,0.7,0.6c0.3,1.5,0.8,1.6,1.5,1.8l0,0
						c0.3,0.1,0.5,0.4,0.5,0.7c0,0.3-0.2,0.6-0.5,0.7c-0.7,0.2-1.2,0.4-1.5,1.8C153.9,75.2,153.6,75.4,153.3,75.4z M153.3,69.6
						c-0.1,0-0.2,0.1-0.3,0.2c-0.4,1.7-1,1.9-1.8,2.2c-0.2,0.1-0.2,0.2-0.2,0.3c0,0,0,0.2,0.2,0.3c1.4,0.5,1.6,1.2,1.8,2.2
						c0.1,0.3,0.5,0.3,0.5,0c0.4-1.7,1.1-1.9,1.8-2.2c0.2-0.1,0.2-0.2,0.2-0.3c0,0,0-0.2-0.2-0.3l0,0l0,0l0.1-0.2l-0.1,0.2
						c-0.7-0.2-1.4-0.5-1.8-2.2C153.5,69.7,153.4,69.6,153.3,69.6L153.3,69.6z"/>
				</g>
				<path class="st15" d="M154.1,72.3c-0.3,0.2-0.5,0.5-0.8,0.9c-0.2-0.3-0.4-0.6-0.8-0.9c0.3-0.2,0.6-0.5,0.8-0.9
					C153.5,71.9,153.8,72.1,154.1,72.3L154.1,72.3z"/>
			</g>
			<g>
				<path class="st16" d="M158,103c-0.1-0.3,0.1-0.5,0.3-0.6c3.7-1.1,6.3-4.6,6.3-8.5v-4.7c0-0.3,0.2-0.5,0.5-0.5
					c0.3,0,0.5,0.2,0.5,0.5V94c0,4.3-2.9,8.1-7,9.4C158.4,103.4,158.1,103.3,158,103z M165.1,87.8c-0.3,0-0.5-0.2-0.5-0.5v-0.6
					c0-0.3,0.2-0.5,0.5-0.5c0.3,0,0.5,0.2,0.5,0.5v0.6C165.6,87.6,165.4,87.8,165.1,87.8z"/>
				<path class="st16" d="M149.1,101.3c-2.1-1.9-3.3-4.7-3.3-7.5v-2.1c0-0.3,0.2-0.5,0.5-0.5s0.5,0.2,0.5,0.5v2.1c0,2.6,1.1,5,3,6.8
					c0.2,0.2,0.2,0.5,0,0.7C149.6,101.5,149.3,101.5,149.1,101.3z M146.3,90.2c-0.3,0-0.5-0.2-0.5-0.5v-0.6c0-0.3,0.2-0.5,0.5-0.5
					s0.5,0.2,0.5,0.5v0.6C146.8,90,146.6,90.2,146.3,90.2z"/>
				<path class="st16" d="M146.3,79.3c-0.3,0-0.5-0.2-0.5-0.5v-3.6c0-0.3,0.2-0.5,0.5-0.5s0.5,0.2,0.5,0.5v3.6
					C146.8,79.1,146.6,79.3,146.3,79.3z"/>
			</g>
			<g>
				<path class="st3" d="M164.6,70c1.7,0,3.1-1.4,3.1-3.1c0-1.7-1.4-3.1-3.1-3.1c-1.7,0-3.1,1.4-3.1,3.1
					C161.5,68.6,162.9,70,164.6,70z M164.6,64.7c1.2,0,2.2,1,2.2,2.2c0,1.2-1,2.2-2.2,2.2c-1.2,0-2.2-1-2.2-2.2
					C162.5,65.7,163.4,64.7,164.6,64.7z"/>
				<path class="st3" d="M164.6,70.2c-1.9,0-3.4-1.5-3.4-3.4c0-1.9,1.5-3.4,3.4-3.4c1.9,0,3.4,1.5,3.4,3.4
					C168,68.7,166.5,70.2,164.6,70.2z M164.6,64c-1.6,0-2.9,1.3-2.9,2.9c0,1.6,1.3,2.9,2.9,2.9c1.6,0,2.9-1.3,2.9-2.9
					C167.5,65.3,166.2,64,164.6,64z M164.6,69.3c-1.3,0-2.4-1.1-2.4-2.4c0-1.3,1.1-2.4,2.4-2.4c1.3,0,2.4,1.1,2.4,2.4
					C167,68.2,165.9,69.3,164.6,69.3z M164.6,64.9c-1.1,0-1.9,0.9-1.9,1.9c0,1.1,0.9,1.9,1.9,1.9c1.1,0,1.9-0.9,1.9-1.9
					C166.6,65.8,165.7,64.9,164.6,64.9z"/>
			</g>
			<g>
				<circle class="st3" cx="164.2" cy="80.4" r="0.5"/>
				<path class="st3" d="M164.2,81.1c-0.4,0-0.7-0.3-0.7-0.7c0-0.4,0.3-0.7,0.7-0.7c0.4,0,0.7,0.3,0.7,0.7
					C164.9,80.8,164.6,81.1,164.2,81.1z M164.2,80.2c-0.1,0-0.2,0.1-0.2,0.2c0,0.1,0.1,0.2,0.2,0.2c0.1,0,0.2-0.1,0.2-0.2
					C164.5,80.3,164.3,80.2,164.2,80.2z"/>
			</g>
			<g>
				<circle class="st3" cx="167.1" cy="88.8" r="0.5"/>
				<path class="st3" d="M167.1,89.5c-0.4,0-0.7-0.3-0.7-0.7s0.3-0.7,0.7-0.7s0.7,0.3,0.7,0.7S167.5,89.5,167.1,89.5z M167.1,88.5
					c-0.1,0-0.2,0.1-0.2,0.2s0.1,0.2,0.2,0.2c0.1,0,0.2-0.1,0.2-0.2S167.2,88.5,167.1,88.5z"/>
			</g>
			<g>
				<circle class="st3" cx="144.6" cy="89.4" r="0.5"/>
				<path class="st3" d="M144.6,90.1c-0.4,0-0.7-0.3-0.7-0.7c0-0.4,0.3-0.7,0.7-0.7s0.7,0.3,0.7,0.7C145.3,89.8,145,90.1,144.6,90.1
					z M144.6,89.1c-0.1,0-0.2,0.1-0.2,0.2c0,0.1,0.1,0.2,0.2,0.2c0.1,0,0.2-0.1,0.2-0.2C144.8,89.2,144.7,89.1,144.6,89.1z"/>
			</g>
			<g>
				<path class="st3" d="M181.7,90.2l-2.2-0.5c-3.1-0.7-6.3,1-7.5,3.9l-0.9,2.2c-0.5,1.3-1.9,1.8-3.1,1.3c-0.4-0.2-0.6-0.3-0.8-0.5
					c0.2-0.9,0.3-1.8,0.3-2.7c0,0,0,0,0,0v-3.2c0-0.3-0.2-0.5-0.5-0.5c-0.3,0-0.5,0.2-0.5,0.5V94c0,0,0,0,0,0
					c0,6.3-5.5,11.3-11.8,10.7l2.2-3.9c3.1-0.5,5.7-3.2,5.7-7l0-9.1h3.9v2.2c0,0.3,0.2,0.5,0.5,0.5c0.3,0,0.5-0.2,0.5-0.5v-2.2
					c1.3,0,2.3-1.1,2.3-2.4c0-0.8-0.4-1.4-0.9-1.9c0.6-0.4,0.9-1.1,0.9-1.9c0-1.3-1-2.3-2.3-2.3v-3.3c2.3-1.1,3.8-3.5,3.8-6
					c0-3.7-3-6.7-6.7-6.7c-3.7,0-6.7,3-6.7,6.7c0,2.6,1.5,4.9,3.8,6v3.3c-1.3,0-2.3,1.1-2.3,2.3c0,0.8,0.4,1.4,0.9,1.9
					c-0.6,0.4-0.9,1.1-0.9,1.9c0,1.3,1,2.3,2.3,2.4l0,8.5c-2.8-0.6-5.6,0.8-6.9,3.2l-1.6,2.9c-0.2-0.1-0.5-0.3-0.7-0.4
					c-0.8-0.6-1.5-1.4-1.9-2.3l2.4-2.9c2.6-3.1,2-8.3-3-10.2v-1h2.5c1.1,0,1.7-1.3,1-2.1l-7.1-8.3c-0.8-0.9-2.3-0.4-2.3,0.8v7.5
					c-1.9-1.8-3.2-4.1-3.7-6.7c-0.2-1.1-1.3-1.8-2.4-1.6c-1.1,0.2-1.8,1.3-1.6,2.4c0.9,4.5,3.6,8.5,7.7,11v2.2
					c0,0.3,0.2,0.5,0.5,0.5s0.5-0.2,0.5-0.5v-1.6c0.9,0.5,1.9,0.9,3,1.2c0.3,0.1,0.7,0.2,1,0.4V94c0,2.3,1.1,4.3,2.9,5.6
					c0.3,0.2,0.5,0.3,0.8,0.5c-1.7,3-1.8,3.2-1.9,3.4c-3.4-1.8-5.7-5.4-5.7-9.6v-2.5c0-0.3-0.2-0.5-0.5-0.5s-0.5,0.2-0.5,0.5v2.5
					c0,1.1,0.2,2.3,0.5,3.4c-1,1.2-3.6,3.9-2,7.6c0.9,2,2.9,3.6,5.2,4c2.3,0.4,4.8-0.4,6.5-3.2c4.7,0.7,9-1.6,11.3-5.1
					c3.3,2.1,7.9,0.7,9.4-3.1l0.9-2.2c0.4-1.1,1.6-1.7,2.8-1.5l2.2,0.5c1.1,0.3,2.2-0.4,2.4-1.5C183.5,91.6,182.8,90.5,181.7,90.2
					L181.7,90.2z M158.9,66.9c0-3.2,2.6-5.7,5.7-5.7c3.2,0,5.7,2.6,5.7,5.7c0,3.2-2.6,5.7-5.7,5.7C161.5,72.6,158.9,70.1,158.9,66.9
					L158.9,66.9z M166.6,73.3v2.9h-3.9v-2.9c0.6,0.2,1.3,0.3,2,0.3C165.3,73.6,166,73.5,166.6,73.3z M160.4,82.3
					c0-0.8,0.6-1.4,1.4-1.4h0h0.5c0.3,0,0.5-0.2,0.5-0.5c0-0.3-0.2-0.5-0.5-0.5h-0.5c0,0,0,0,0,0c-0.8,0-1.4-0.6-1.4-1.4
					c0-0.8,0.6-1.4,1.4-1.4h5.7c0.8,0,1.4,0.6,1.4,1.4c0,0.8-0.6,1.4-1.4,1.4c0,0,0,0,0,0h-1.4c-0.3,0-0.5,0.2-0.5,0.5
					c0,0.3,0.2,0.5,0.5,0.5h1.4h0c0.8,0,1.4,0.6,1.4,1.4c0,0.8-0.6,1.4-1.4,1.4c-0.7,0-5.4,0-5.7,0C161,83.7,160.4,83.1,160.4,82.3
					L160.4,82.3z M153.2,87.8c0.6,1.7,0.2,3.6-0.9,5c-0.7-0.1-1.3-0.9-1.6-1.4c0.5-0.7,0.7-1.6,0.5-2.5
					C151.8,88.7,152.6,88.5,153.2,87.8L153.2,87.8z M145.1,72.7c0-0.3,0.4-0.4,0.6-0.2l7.1,8.3c0.2,0.2,0,0.5-0.3,0.5h-3
					c-0.3,0-0.5,0.2-0.5,0.5V83c-1.4-0.4-2.7-1.1-3.9-2L145.1,72.7L145.1,72.7z M137.3,74.1c-0.1-0.6,0.3-1.1,0.8-1.2
					c0.6-0.1,1.1,0.3,1.2,0.8c0.3,1.4,0.8,2.7,1.5,4c-0.4,0.5-1,1-1.7,1.3C138.3,77.5,137.7,75.8,137.3,74.1z M142,82.4
					c-0.8-0.8-1.6-1.7-2.2-2.6c0.7-0.3,1.2-0.8,1.7-1.3c0.5,0.8,1.1,1.5,1.8,2.2C143,81.7,142.3,82.2,142,82.4z M146,85.2
					c-1.2-0.5-2.3-1.2-3.3-2.1c0.4-0.3,1-0.8,1.3-1.7c1,0.8,2,1.5,3.2,2C146.9,84.4,146.3,85,146,85.2z M147,85.6
					c0.4-0.4,0.8-1,1.1-1.9c1,0.3,3.3,0.8,4.6,3c-0.5,0.9-1.4,1.1-1.8,1.2C150,86.4,148.4,86.2,147,85.6z M149.9,90.8v-2.6
					C150.5,89,150.5,90,149.9,90.8z M149.9,94v-1.7l0.1-0.2c0.3,0.5,0.9,1.1,1.6,1.4l-1.5,1.8C150,94.9,149.9,94.4,149.9,94
					L149.9,94z M157.6,99.6l0.7-1.3c0.5-0.9,1.5-1.4,2.5-1.2C160.1,98.2,159,99.1,157.6,99.6z M161.7,94.1c0,0.8-0.2,1.5-0.5,2.1
					c-0.9-0.2-1.9-0.1-2.8,0.5c-0.6-0.5-1.3-0.9-2-1.1C157.9,94.2,159.8,93.6,161.7,94.1z M146.6,101.1c1,1.3,2.2,2.3,3.6,3.1
					C148.4,105.9,145,103.5,146.6,101.1z M145,98.2c0.3,0.7,0.6,1.4,1.1,2c-0.5,0.7-0.9,1.5-0.8,2.3c-0.8,0.1-1.6-0.3-2.2-0.7
					C143.2,100.2,144.3,99,145,98.2z M143.1,103.1c0.7,0.4,1.5,0.6,2.4,0.5c0.5,1.2,1.7,2,3,2.2c-0.1,0.6-0.4,1.3-0.9,2
					C145.4,107.2,143.4,105.4,143.1,103.1z M153.5,104.8c-1.1,1.9-2.8,3.2-4.9,3.1c0.4-0.7,0.7-1.5,0.8-2.2c0.8-0.2,1.4-0.6,2-1.4
					c0.1-0.2,0.3-0.6,1.1-1.9l1.6,1.5C153.9,104.2,153.7,104.5,153.5,104.8L153.5,104.8z M152.9,101.6l0.8-1.5c0,0,0,0,0,0
					c2-3.6,1.9-3.4,2.1-3.7c0.6,0.2,1.3,0.5,1.9,1c-0.1,0.1-0.2,0.3-0.3,0.4l-2.9,5.2L152.9,101.6z M166.1,99.7
					c0.3-0.6,0.6-1.3,0.9-2c0.2,0.2,0.5,0.3,0.7,0.4c0.6,0.3,1.4,0.3,2,0.2c0.1,0.6,0.2,1.3,0.4,2.1
					C168.8,100.7,167.3,100.4,166.1,99.7z M174.9,94.8l-0.9,2.2c-0.5,1.4-1.6,2.5-3,3.1c-0.2-0.8-0.3-1.6-0.4-2.2
					c0.6-0.4,1.2-1,1.4-1.7l0.9-2.2c0.3-0.7,0.7-1.3,1.2-1.8c0.2,0.6,0.6,1.4,1,2.1C175.1,94.5,175,94.6,174.9,94.8L174.9,94.8z
					 M182.3,92.4L182.3,92.4c-0.1,0.6-0.7,0.9-1.3,0.8l-2.2-0.5c-1.1-0.3-2.2,0.1-3,0.8c-0.4-0.7-0.7-1.4-0.9-2
					c1.2-0.9,2.8-1.2,4.4-0.9l2.2,0.5C182,91.3,182.4,91.9,182.3,92.4L182.3,92.4z"/>
				<path class="st3" d="M148.9,109.1c-0.4,0-0.8,0-1.2-0.1c-2.3-0.4-4.4-2.1-5.3-4.2c-1.5-3.6,0.7-6.2,1.8-7.5l0.1-0.2
					c-0.3-1.1-0.5-2.2-0.5-3.3v-2.5c0-0.4,0.3-0.7,0.7-0.7s0.7,0.3,0.7,0.7v2.5c0,3.9,2.1,7.4,5.4,9.3c0.1-0.2,0.3-0.5,0.7-1.3
					l0.9-1.6c-0.2-0.1-0.4-0.2-0.6-0.4c-1.9-1.3-3-3.5-3-5.8v-6.5c-0.2-0.1-0.5-0.2-0.8-0.3c-0.9-0.3-1.8-0.6-2.6-1v1.3
					c0,0.4-0.3,0.7-0.7,0.7s-0.7-0.3-0.7-0.7v-2c-4-2.4-6.8-6.5-7.7-11.1c-0.1-0.6,0-1.2,0.3-1.7s0.9-0.8,1.4-1
					c1.2-0.2,2.4,0.6,2.7,1.8c0.5,2.4,1.6,4.5,3.3,6.2v-6.9c0-0.7,0.4-1.2,1-1.4c0.6-0.2,1.3,0,1.7,0.4l7.1,8.3
					c0.4,0.5,0.5,1.1,0.2,1.6c-0.3,0.5-0.8,0.9-1.4,0.9h-2.3v0.6c2.2,0.9,3.7,2.5,4.3,4.6c0.5,2.1,0,4.3-1.4,5.9l-2.3,2.8
					c0.4,0.8,1,1.6,1.8,2.1c0.1,0.1,0.3,0.2,0.5,0.3l1.5-2.7c1.4-2.4,4.2-3.8,6.9-3.3l0-8c-1.3-0.1-2.3-1.3-2.3-2.6
					c0-0.7,0.3-1.4,0.8-1.9c-0.5-0.5-0.8-1.2-0.8-1.9c0-1.3,1-2.4,2.3-2.6v-2.9c-2.3-1.2-3.8-3.6-3.8-6.2c0-3.8,3.1-6.9,6.9-6.9
					c3.8,0,6.9,3.1,6.9,6.9c0,2.6-1.4,5-3.8,6.2V76c1.3,0.1,2.3,1.3,2.3,2.6c0,0.7-0.3,1.4-0.8,1.9c0.5,0.5,0.8,1.2,0.8,1.9
					c0,1.3-1,2.4-2.3,2.6v2c0,0.4-0.3,0.7-0.7,0.7s-0.7-0.3-0.7-0.7v-2h-3.4l0,8.9c0,3.6-2.4,6.6-5.8,7.2l-2,3.5
					c2.8,0.2,5.6-0.8,7.7-2.7c2.2-2,3.5-4.8,3.5-7.8l0-3.2c0-0.4,0.3-0.7,0.7-0.7s0.7,0.3,0.7,0.7V94c0,0.9-0.1,1.8-0.3,2.6
					c0.2,0.2,0.4,0.3,0.6,0.4c0.5,0.2,1.1,0.2,1.7,0c0.5-0.2,0.9-0.7,1.2-1.2l0.9-2.2c1.2-3.1,4.5-4.8,7.7-4.1l2.2,0.5
					c0.6,0.1,1.1,0.5,1.4,1c0.3,0.5,0.4,1.1,0.3,1.7c-0.3,1.2-1.5,2-2.7,1.7l-2.2-0.5c-1-0.2-2.1,0.3-2.5,1.3l-0.9,2.2
					c-0.7,1.9-2.2,3.3-4.1,3.9c-1.8,0.6-3.8,0.4-5.4-0.5c-2.6,3.7-6.9,5.6-11.3,5C153,108,151,109.1,148.9,109.1z M144.6,91
					c-0.1,0-0.2,0.1-0.2,0.2v2.5c0,1.1,0.2,2.2,0.5,3.3l0,0.1l-0.3,0.4c-1.1,1.3-3.2,3.7-1.8,7c0.9,2,2.8,3.5,5,3.9
					c2.5,0.5,4.8-0.7,6.3-3.1l0.1-0.1l0.2,0c4.4,0.6,8.6-1.3,11.1-5l0.1-0.2l0.2,0.1c1.6,1,3.5,1.2,5.2,0.6c1.7-0.6,3.1-1.9,3.8-3.6
					l0.9-2.2c0.5-1.2,1.8-1.9,3-1.6l2.2,0.5c1,0.2,1.9-0.4,2.2-1.3c0.1-0.5,0-0.9-0.2-1.4c-0.3-0.4-0.7-0.7-1.1-0.8l-2.2-0.5
					c-3-0.7-6.1,0.9-7.2,3.8l-0.9,2.2c-0.3,0.7-0.8,1.2-1.4,1.5c-0.6,0.3-1.4,0.3-2,0c-0.4-0.2-0.6-0.3-0.8-0.5l-0.2-0.2l0-0.1
					c0.2-0.9,0.3-1.8,0.3-2.7l0-3.2c0-0.1-0.1-0.2-0.2-0.2c-0.1,0-0.2,0.1-0.2,0.2V94c0,3.1-1.3,6.1-3.6,8.2
					c-2.3,2.1-5.4,3.1-8.5,2.8l-0.4,0l2.4-4.4l0.1,0c2.8-0.5,5.5-2.9,5.5-6.8l0-9.3h4.4v2.5c0,0.1,0.1,0.2,0.2,0.2
					c0.1,0,0.2-0.1,0.2-0.2v-2.5l0.2,0c1.1,0,2.1-1,2.1-2.1c0-0.7-0.3-1.3-0.8-1.7l-0.2-0.2l0.2-0.2c0.5-0.4,0.8-1,0.8-1.7
					c0-1.1-0.9-2.1-2.1-2.1l-0.2,0v-3.7l0.1-0.1c2.3-1.1,3.7-3.3,3.7-5.8c0-3.6-2.9-6.5-6.5-6.5c-3.6,0-6.5,2.9-6.5,6.5
					c0,2.5,1.4,4.7,3.7,5.8l0.1,0.1v3.7l-0.2,0c-1.1,0-2.1,1-2.1,2.1c0,0.7,0.3,1.3,0.8,1.7l0.2,0.2l-0.2,0.2
					c-0.5,0.4-0.8,1-0.8,1.7c0,1.1,0.9,2.1,2.1,2.1l0.2,0l0,9l-0.3-0.1c-2.6-0.5-5.4,0.7-6.7,3.1l-1.7,3.1l-0.2-0.1
					c-0.3-0.1-0.5-0.3-0.7-0.4c-0.9-0.6-1.6-1.5-2-2.4l-0.1-0.1l2.5-3c1.3-1.5,1.8-3.6,1.3-5.5c-0.5-2-2-3.5-4.1-4.4l-0.2-0.1v-1.3
					h2.7c0.4,0,0.8-0.2,1-0.6c0.2-0.4,0.1-0.8-0.2-1.1l-7.1-8.3c-0.4-0.4-0.8-0.4-1.2-0.3c-0.3,0.1-0.7,0.4-0.7,1v8l-0.4-0.4
					c-2-1.8-3.3-4.2-3.8-6.9c-0.2-1-1.1-1.6-2.1-1.4c-0.5,0.1-0.9,0.4-1.1,0.8c-0.3,0.4-0.4,0.9-0.3,1.3c0.9,4.5,3.7,8.5,7.6,10.9
					l0.1,0.1v2.3c0,0.1,0.1,0.2,0.2,0.2c0.1,0,0.2-0.1,0.2-0.2v-2l0.3,0.2c0.9,0.5,1.9,0.9,2.9,1.2c0.4,0.1,0.7,0.2,1,0.4l0.1,0.1
					V94c0,2.1,1,4.2,2.8,5.4c0.2,0.2,0.5,0.3,0.8,0.5l0.2,0.1l-1.1,2.1c-0.7,1.3-0.8,1.4-0.9,1.6l-0.1,0.2l-0.2-0.1
					c-3.6-1.9-5.8-5.7-5.8-9.8v-2.5C144.8,91.2,144.7,91,144.6,91z M148.8,108.1c-0.1,0-0.2,0-0.2,0l-0.4,0l0.2-0.3
					c0.4-0.6,0.6-1.3,0.8-2.1l0-0.2l0.2,0c0.7-0.1,1.4-0.6,1.8-1.3c0.1-0.1,0.3-0.4,0.6-1.1l0.6-1l2,1.8l-0.6,1.1
					C152.6,107,150.9,108.1,148.8,108.1z M149.6,105.9c-0.1,0.6-0.3,1.2-0.6,1.8c1.8-0.1,3.3-1.1,4.3-2.9l0.4-0.8l-1.3-1.1l-0.3,0.5
					c-0.4,0.7-0.6,1-0.7,1.2C151.1,105.2,150.4,105.7,149.6,105.9z M147.6,108l-0.2,0c-2.4-0.6-4.3-2.6-4.6-4.8l-0.1-0.5l0.4,0.2
					c0.8,0.4,1.5,0.6,2.2,0.5l0.2,0l0.1,0.2c0.5,1.1,1.6,1.9,2.8,2l0.3,0l-0.1,0.3c-0.2,0.8-0.5,1.5-0.9,2.1L147.6,108z
					 M143.4,103.5c0.5,1.8,2,3.4,4,4c0.3-0.4,0.5-0.9,0.7-1.5c-1.2-0.2-2.3-1-2.8-2.1C144.7,103.9,144,103.8,143.4,103.5z
					 M148.8,105c-0.7,0-1.4-0.3-1.9-0.7c-0.8-0.7-1.4-2-0.5-3.3l0.2-0.3l0.2,0.3c1,1.3,2.2,2.3,3.5,3l0.3,0.2l-0.2,0.2
					C149.9,104.9,149.3,105,148.8,105z M146.6,101.5c-0.5,1,0,1.9,0.6,2.4c0.7,0.6,1.8,0.9,2.6,0.3
					C148.6,103.5,147.5,102.6,146.6,101.5z M154.6,103.4l-2-1.8l1.9-3.5c0.9-1.7,0.9-1.7,1.1-1.9l0.1-0.2l0.2,0c0.7,0.3,1.4,0.6,2,1
					l0.2,0.1l-0.2,0.2c-0.1,0.1-0.2,0.3-0.3,0.4L154.6,103.4z M153.2,101.5l1.3,1.1l2.8-5c0.1-0.1,0.1-0.2,0.2-0.3
					c-0.4-0.3-0.9-0.5-1.5-0.8c-0.1,0.2-0.3,0.5-1,1.7L153.2,101.5z M145,102.9c-0.7,0-1.4-0.2-2.1-0.7l-0.1-0.1l0-0.1
					c0.2-1.7,1.2-2.9,1.8-3.7l0.4-0.5l0.1,0.4c0.3,0.7,0.6,1.4,1,2l0.1,0.1l-0.1,0.1c-0.6,0.7-0.8,1.4-0.8,2.2l0,0.2l-0.2,0
					C145.2,102.9,145.1,102.9,145,102.9z M143.3,101.8c0.6,0.4,1.1,0.6,1.7,0.6c0-0.7,0.3-1.4,0.8-2.1c-0.3-0.5-0.6-1.1-0.8-1.6
					C144.3,99.4,143.5,100.4,143.3,101.8z M168.9,100.7c-1.1,0-2.1-0.3-3-0.9l-0.2-0.1l0.1-0.2c0.3-0.6,0.6-1.3,0.9-1.9l0.1-0.3
					l0.3,0.2c0.2,0.2,0.4,0.3,0.7,0.4c0.6,0.2,1.3,0.3,1.9,0.1l0.3-0.1l0,0.3c0.1,0.7,0.2,1.4,0.4,2.1l0.1,0.2l-0.2,0.1
					C169.8,100.7,169.3,100.7,168.9,100.7z M166.4,99.6c1,0.6,2.3,0.8,3.5,0.6c-0.1-0.5-0.2-1.1-0.3-1.6c-0.7,0.1-1.3,0-1.9-0.2
					c-0.2-0.1-0.4-0.2-0.5-0.3C166.9,98.6,166.6,99.1,166.4,99.6z M170.9,100.4l-0.1-0.3c-0.2-0.7-0.3-1.5-0.4-2.2l0-0.2l0.1-0.1
					c0.6-0.4,1.1-0.9,1.3-1.6l0.9-2.2c0.3-0.7,0.7-1.3,1.2-1.9l0.3-0.3l0.1,0.4c0.3,0.8,0.6,1.4,1,2.1l0.1,0.1l-0.1,0.1
					c-0.1,0.1-0.1,0.3-0.2,0.4l-0.9,2.2c-0.6,1.5-1.7,2.6-3.1,3.2L170.9,100.4z M170.9,98c0.1,0.6,0.2,1.2,0.3,1.7
					c1.2-0.6,2.1-1.6,2.6-2.8l0.9-2.2c0-0.1,0.1-0.2,0.2-0.3c-0.3-0.5-0.6-1.1-0.9-1.7c-0.4,0.4-0.6,0.9-0.8,1.4l-0.9,2.2
					C172,97,171.5,97.6,170.9,98z M157.1,100l1-1.8c0.5-1,1.6-1.5,2.7-1.3l0.4,0.1l-0.2,0.3c-0.8,1.3-1.9,2.2-3.3,2.6L157.1,100z
					 M160.4,97.3c-0.8,0-1.5,0.4-1.8,1.1l-0.4,0.8C159,98.7,159.8,98.1,160.4,97.3z M158.5,97l-0.1-0.1c-0.5-0.4-1.2-0.8-1.9-1.1
					l-0.3-0.1l0.3-0.3c1.4-1.4,3.5-2,5.4-1.5l0.2,0l0,0.2c0,0.8-0.2,1.5-0.5,2.2l-0.1,0.2l-0.2-0.1c-0.9-0.2-1.8-0.1-2.6,0.5
					L158.5,97z M156.9,95.5c0.6,0.3,1.1,0.6,1.6,0.9c0.8-0.5,1.7-0.7,2.6-0.5c0.2-0.5,0.3-1,0.3-1.6C159.8,94,158.2,94.4,156.9,95.5
					z M150,95.9l-0.1-0.5c-0.1-0.5-0.2-1-0.2-1.5v-1.8l0.4-0.5l0.2,0.3c0.3,0.5,0.8,1.1,1.5,1.4l0.3,0.1L150,95.9z M150.2,92.7V94
					c0,0.3,0,0.6,0.1,0.9l1-1.2C150.8,93.4,150.5,93,150.2,92.7z M175.7,93.9l-0.1-0.2c-0.5-0.8-0.8-1.6-0.9-2.1l0-0.2l0.1-0.1
					c1.3-0.9,3-1.3,4.6-0.9l2.2,0.5c0.3,0.1,0.6,0.3,0.8,0.6c0.2,0.3,0.2,0.6,0.2,1l0,0c-0.2,0.7-0.9,1.1-1.6,1l-2.2-0.5
					c-1-0.2-2,0-2.8,0.7L175.7,93.9z M175.2,91.6c0.1,0.4,0.3,1,0.7,1.5c0.9-0.7,2-0.9,3-0.7L181,93c0.4,0.1,0.9-0.2,1-0.6l0,0
					c0.1-0.2,0-0.4-0.1-0.6c-0.1-0.2-0.3-0.3-0.5-0.4l-2.2-0.5C177.8,90.6,176.4,90.8,175.2,91.6z M152.4,93l-0.1,0
					c-0.9-0.1-1.5-1.1-1.8-1.6l-0.1-0.1l0.1-0.1c0.5-0.7,0.7-1.5,0.5-2.3l0-0.2l0.2,0c0.5-0.1,1.2-0.3,1.8-1l0.3-0.3l0.1,0.4
					c0.6,1.7,0.2,3.7-0.9,5.2L152.4,93z M151,91.3c0.3,0.5,0.7,1,1.2,1.2c0.9-1.2,1.2-2.8,0.9-4.3c-0.5,0.5-1.1,0.7-1.5,0.8
					C151.6,89.8,151.4,90.6,151,91.3z M149.7,91.5v-4.1l0.4,0.6c0.6,0.8,0.6,2,0,2.8L149.7,91.5z M150.8,88.1l-0.1-0.1
					c-0.7-1.1-1.7-1.5-2.9-1.9c-0.3-0.1-0.6-0.2-0.9-0.3l-0.3-0.1l0.2-0.3c0.3-0.3,0.8-0.9,1.1-1.8l0.1-0.2l0.2,0.1
					c0.1,0,0.3,0.1,0.4,0.1c1.2,0.4,3.1,1,4.3,3l0.1,0.1l-0.1,0.1c-0.6,1.1-1.6,1.3-2,1.3L150.8,88.1z M147.4,85.5
					c0.2,0.1,0.4,0.1,0.6,0.2c1.1,0.4,2.3,0.8,3.1,2c0.4-0.1,1-0.3,1.4-0.9c-1.1-1.7-2.9-2.3-3.9-2.6c-0.1,0-0.2-0.1-0.2-0.1
					C148,84.7,147.7,85.2,147.4,85.5z M146.1,85.5l-0.1-0.1c-1.2-0.6-2.3-1.3-3.4-2.1l-0.2-0.2l0.3-0.2c0.4-0.3,0.9-0.8,1.2-1.6
					l0.1-0.3l0.3,0.2c1,0.8,2,1.5,3.2,2l0.2,0.1l-0.1,0.2c-0.4,1.1-1,1.7-1.3,1.9L146.1,85.5z M143.1,83.1c0.9,0.7,1.9,1.3,2.9,1.8
					c0.3-0.2,0.6-0.7,0.9-1.4c-1-0.5-2-1-2.8-1.7C143.8,82.4,143.4,82.8,143.1,83.1z M167.5,83.9h-5.7c-0.9,0-1.6-0.7-1.6-1.6
					c0-0.9,0.7-1.6,1.6-1.6h0.5c0.1,0,0.2-0.1,0.2-0.2s-0.1-0.2-0.2-0.2h-0.5c-0.9,0-1.6-0.7-1.6-1.6c0-0.9,0.7-1.6,1.6-1.6h5.7
					c0.9,0,1.6,0.7,1.6,1.6c0,0.9-0.7,1.6-1.6,1.6h-1.4c-0.1,0-0.2,0.1-0.2,0.2s0.1,0.2,0.2,0.2h1.4c0.9,0,1.6,0.7,1.6,1.6
					C169.1,83.2,168.4,83.9,167.5,83.9z M161.8,81.1c-0.6,0-1.2,0.5-1.2,1.1c0,0.6,0.5,1.2,1.1,1.2h5.7c0.6,0,1.2-0.5,1.2-1.2
					c0-0.6-0.5-1.1-1.2-1.1h-1.4c-0.4,0-0.7-0.3-0.7-0.7c0-0.4,0.3-0.7,0.7-0.7h1.4c0.6,0,1.1-0.5,1.1-1.2c0-0.6-0.5-1.1-1.2-1.1
					h-5.7c-0.6,0-1.2,0.5-1.2,1.1c0,0.6,0.5,1.2,1.1,1.2h0.5c0.4,0,0.7,0.3,0.7,0.7c0,0.4-0.3,0.7-0.7,0.7H161.8z M149.2,83.3
					l-0.3-0.1c-1.5-0.5-2.8-1.1-4-2l-0.1-0.1v-8.4c0-0.2,0.1-0.5,0.4-0.5c0.2-0.1,0.5,0,0.6,0.2l7.1,8.3c0.1,0.2,0.2,0.4,0.1,0.6
					c-0.1,0.2-0.3,0.3-0.5,0.3h-3c-0.1,0-0.2,0.1-0.2,0.2V83.3z M145.3,80.9c1.1,0.8,2.2,1.4,3.4,1.8v-0.8c0-0.4,0.3-0.7,0.7-0.7h3
					c0.1,0,0.1,0,0.1-0.1c0,0,0-0.1,0-0.1l-7.1-8.3c0,0-0.1,0-0.1,0c0,0-0.1,0-0.1,0.1V80.9z M141.9,82.7l-0.1-0.1
					c-0.9-0.8-1.6-1.7-2.3-2.7l-0.1-0.2l0.2-0.1c0.6-0.3,1.1-0.7,1.6-1.3l0.2-0.2l0.2,0.3c0.5,0.8,1.1,1.5,1.7,2.1l0.1,0.1l0,0.1
					c-0.2,1.2-0.9,1.7-1.3,2L141.9,82.7z M140.1,79.9c0.6,0.8,1.2,1.6,1.9,2.3c0.3-0.2,0.8-0.6,0.9-1.4c-0.6-0.6-1.1-1.2-1.5-1.9
					C141,79.3,140.5,79.6,140.1,79.9z M139.1,79.3l-0.1-0.2c-0.9-1.6-1.5-3.2-1.9-5l0,0c-0.1-0.3,0-0.7,0.2-1
					c0.2-0.3,0.5-0.5,0.8-0.6c0.7-0.1,1.4,0.3,1.5,1c0.3,1.4,0.7,2.7,1.4,3.9l0.1,0.1l-0.1,0.1c-0.5,0.6-1.1,1.1-1.8,1.4L139.1,79.3
					z M138.4,73c-0.1,0-0.1,0-0.2,0c-0.2,0-0.4,0.2-0.5,0.4c-0.1,0.2-0.2,0.4-0.1,0.6v0c0.3,1.6,0.9,3.2,1.7,4.6
					c0.4-0.2,0.9-0.6,1.3-1.1c-0.7-1.2-1.1-2.5-1.4-3.9C139.1,73.3,138.8,73,138.4,73z M166.8,76.4h-4.4V73l0.3,0.1
					c1.2,0.4,2.6,0.4,3.8,0l0.3-0.1V76.4z M162.9,76h3.4v-2.4c-1.1,0.3-2.3,0.3-3.4,0V76z M164.6,72.9c-3.3,0-6-2.7-6-6
					c0-3.3,2.7-6,6-6c3.3,0,6,2.7,6,6C170.6,70.2,167.9,72.9,164.6,72.9z M164.6,61.4c-3,0-5.5,2.5-5.5,5.5c0,3,2.5,5.5,5.5,5.5
					c3,0,5.5-2.5,5.5-5.5C170.1,63.8,167.7,61.4,164.6,61.4z"/>
			</g>
		</g>
	</g>
	<circle class="st3" cx="164.6" cy="66.9" r="2.8"/>
</g>
</svg>
