<svg width="180" height="180" viewBox="0 0 180 180" fill="none" xmlns="http://www.w3.org/2000/svg">
<g clip-path="url(#clip0_836_5002)">
<path d="M2 90.8999L42.3 97.9999L33.5 120.2C33.2 120.9 33.1 121.6 33.1 122.2C34.4 125.6 38.6 124.6 39.7 123.4L71.8 91.2999C73.9 89.1999 72.8 84.7999 69 80.8999L42.2 54.0999C38.1 49.9999 31.4 54.4999 33.5 59.7999L42.3 81.9999H2V90.8999Z" fill="#D6DF58"/>
<path d="M2 98H42.3L43.7 94.6C44.4 92.9 43.1 91 41.2 91H2V98Z" fill="#BAC14E"/>
<path d="M74.3 86.1999L69 80.8999C71.1 82.9999 71.1 86.2999 69 88.3999L36.9 120.5C35.8 121.6 34.4 122.1 33.1 122.1C33.1 126.5 38.6 129.4 42.2 125.8L74.3 93.6999C76.3 91.6999 76.3 88.2999 74.3 86.1999Z" fill="#BAC14E"/>
<path d="M178 82.0001H137.7L140.9 52.6001C139.8 52.7001 138.8 53.2001 137.8 54.2001L105.7 86.3001C103.6 88.4001 103.6 91.7001 105.7 93.8001L137.8 125.9C138.3 126.4 138.8 126.8 139.4 127C142.9 127 145.6 123.4 144.6 120.8L134.1 94.4001H174.4L178 82.0001Z" fill="#EF6D7A"/>
<path d="M137.7 98H178V82H171V88.2C171 89.7 169.8 90.9 168.3 90.9H133.1C131.2 90.9 129.9 92.8 130.6 94.5L141.1 120.8C142.1 123.3 141.1 125.7 139.4 127C143.4 128.9 148.4 124.9 146.5 120.2L137.7 98Z" fill="#D5636E"/>
<path d="M130.7 78.4L140.9 52.6C144.5 52.1 148.2 55.7 146.5 59.9L137.7 82H133.2C131.3 82 130 80.1 130.7 78.4Z" fill="#D5636E"/>
<path d="M90.9 2L98 42.3L120.2 33.5C120.9 33.2 121.6 33.1 122.2 33.1C125.6 34.4 124.6 38.6 123.4 39.7L91.3 71.8C89.2 73.9 84.8 72.8 80.9 69L54.1 42.2C50 38.1 54.5 31.4 59.8 33.5L82 42.3V2H90.9Z" fill="#FFE07D"/>
<path d="M98 2V42.3L94.6 43.7C92.9 44.4 91 43.1 91 41.2V2H98Z" fill="#FFD064"/>
<path d="M86.2 74.3001L80.9 69.0001C83 71.1001 86.3 71.1001 88.4 69.0001L120.5 36.9001C121.6 35.8001 122.1 34.4001 122.1 33.1001C126.5 33.1001 129.4 38.6001 125.8 42.2001L93.8 74.3001C91.7 76.3001 88.3 76.3001 86.2 74.3001Z" fill="#FFD064"/>
<path d="M82 178V137.7L52.6 140.9C52.7 139.8 53.2 138.8 54.2 137.8L86.3 105.7C88.4 103.6 91.7 103.6 93.8 105.7L125.9 137.8C126.4 138.3 126.8 138.8 127 139.4C127 142.9 123.4 145.6 120.8 144.6L94.4 134.1V174.4L82 178Z" fill="#A2BBE3"/>
<path d="M98 137.7V178H82V171H88.2C89.7 171 90.9 169.8 90.9 168.3V133.1C90.9 131.2 92.8 129.9 94.5 130.6L120.8 141.1C123.3 142.1 125.7 141.1 127 139.4C128.9 143.4 124.9 148.4 120.2 146.5L98 137.7Z" fill="#7398D4"/>
<path d="M78.4 130.7L52.6 140.9C52.1 144.5 55.7 148.2 59.9 146.5L82.1 137.7V133.2C82 131.3 80.1 130 78.4 130.7Z" fill="#7398D4"/>
<path d="M141.6 129.4C139.8 129.4 137.9 128.7 136.5 127.2L104.4 95.0999C101.6 92.2999 101.6 87.6999 104.4 84.7999L136.5 52.6999C139 50.1999 142.7 49.7999 145.6 51.7999C148.6 53.6999 149.7 57.2999 148.4 60.5999L140.6 80.0999H178C179.1 80.0999 180 80.9999 180 82.0999V97.9999C180 99.0999 179.1 99.9999 178 99.9999H140.5L148.3 119.5C149.6 122.8 148.5 126.3 145.5 128.3C144.3 129 142.9 129.4 141.6 129.4ZM141.5 54.4999C140.7 54.4999 139.9 54.7999 139.2 55.4999L107.1 87.5999C105.8 88.8999 105.8 90.9999 107.1 92.2999L139.2 124.4C140.6 125.8 142.3 125.6 143.4 124.8C144.5 124.1 145.4 122.6 144.7 120.8L135.9 98.5999C135.7 97.9999 135.7 97.2999 136.1 96.7999C136.5 96.2999 137.1 95.8999 137.7 95.8999H176.1V83.9999H137.7C137.1 83.9999 136.4 83.6999 136.1 83.0999C135.7 82.5999 135.7 81.8999 135.9 81.2999L144.7 59.0999C145.4 57.1999 144.5 55.7999 143.4 55.0999C142.9 54.6999 142.2 54.4999 141.5 54.4999Z" fill="#35414D"/>
<path d="M38.4 129.4C37 129.4 35.6 129 34.4 128.2C31.4 126.3 30.3 122.7 31.6 119.4L39.4 99.8999H31.5C30.4 99.8999 29.5 98.9999 29.5 97.8999C29.5 96.7999 30.4 95.8999 31.5 95.8999H42.3C42.9 95.8999 43.6 96.1999 43.9 96.7999C44.3 97.2999 44.3 97.9999 44.1 98.5999L35.3 120.8C34.6 122.7 35.5 124.1 36.6 124.8C37.7 125.5 39.4 125.8 40.8 124.4L72.9 92.2999C73.5 91.6999 73.9 90.7999 73.9 89.8999C73.9 88.9999 73.6 88.1999 72.9 87.4999L40.8 55.4999C39.4 54.0999 37.7 54.2999 36.6 55.0999C35.5 55.7999 34.6 57.2999 35.3 59.0999L44.1 81.2999C44.3 81.8999 44.3 82.5999 43.9 83.0999C43.5 83.5999 42.9 83.9999 42.3 83.9999H3.9V95.9999H20.9C22 95.9999 22.9 96.8999 22.9 97.9999C22.9 99.0999 22 99.9999 20.9 99.9999H2C0.9 99.9999 0 99.0999 0 97.9999V81.9999C0 80.8999 0.9 79.9999 2 79.9999H39.5L31.7 60.4999C30.4 57.1999 31.5 53.6999 34.5 51.6999C37.5 49.7999 41.1 50.0999 43.6 52.5999L75.7 84.6999C77.1 86.0999 77.8 87.8999 77.8 89.7999C77.8 91.6999 77 93.5999 75.7 94.8999L43.6 127C42.1 128.7 40.3 129.4 38.4 129.4Z" fill="#35414D"/>
<path d="M98 180H82C80.9 180 80 179.1 80 178V140.5L60.5 148.3C57.2 149.6 53.7 148.5 51.7 145.5C49.8 142.5 50.1 138.9 52.6 136.4L84.7 104.3C87.5 101.5 92.1 101.5 95 104.3L127.1 136.4C129.6 138.9 130 142.6 128 145.5C126.1 148.5 122.5 149.6 119.2 148.3L99.7 140.5V149.4C99.7 150.5 98.8 151.4 97.7 151.4C96.6 151.4 95.7 150.5 95.7 149.4V137.7C95.7 137.1 96 136.4 96.6 136.1C97.1 135.7 97.8 135.7 98.4 135.9L120.6 144.7C122.5 145.4 123.9 144.5 124.6 143.4C125.3 142.3 125.6 140.6 124.2 139.2L92.1 107.1C90.8 105.8 88.7 105.8 87.4 107.1L55.3 139.2C53.9 140.6 54.1 142.3 54.9 143.4C55.6 144.5 57.1 145.4 58.9 144.7L81.1 135.9C81.7 135.7 82.4 135.7 82.9 136.1C83.4 136.5 83.8 137.1 83.8 137.7V176.1H95.8V160.1C95.8 159 96.7 158.1 97.8 158.1C98.9 158.1 99.8 159 99.8 160.1V178.1C99.9 179.1 99.1 180 98 180Z" fill="#35414D"/>
<path d="M90 77.8C88.1 77.8 86.3 77.1 84.9 75.7L52.8 43.5C50.3 41 49.9 37.3 51.9 34.4C53.8 31.4 57.4 30.3 60.7 31.6L80.2 39.4V2C80.2 0.9 81.1 0 82.2 0H98C99.1 0 100 0.9 100 2V14.7C100 15.8 99.1 16.7 98 16.7C96.9 16.7 96 15.8 96 14.7V3.9H84V42.3C84 42.9 83.7 43.6 83.1 43.9C82.6 44.3 81.9 44.3 81.3 44.1L59.1 35.3C57.2 34.6 55.8 35.5 55.1 36.6C54.4 37.7 54.1 39.4 55.5 40.8L87.6 72.9C88.9 74.2 91 74.2 92.3 72.9L124.4 40.8C125.8 39.4 125.6 37.7 124.8 36.6C124.1 35.5 122.6 34.6 120.8 35.3L98.6 44.1C98 44.3 97.3 44.3 96.8 43.9C96.3 43.5 95.9 42.9 95.9 42.3V25.3C95.9 24.2 96.8 23.3 97.9 23.3C99 23.3 99.9 24.2 99.9 25.3V39.4L119.4 31.6C122.7 30.3 126.2 31.4 128.2 34.4C130.1 37.4 129.8 41 127.3 43.5L95.1 75.7C93.7 77.1 91.9 77.8 90 77.8Z" fill="#35414D"/>
</g>
<defs>
<clipPath id="clip0_836_5002">
<rect width="180" height="180" fill="white"/>
</clipPath>
</defs>
</svg>
