<svg width="186" height="180" viewBox="0 0 186 180" fill="none" xmlns="http://www.w3.org/2000/svg">
<g clip-path="url(#clip0_838_5977)">
<path d="M183.1 83V159.4C183.1 165 180.6 170 176.7 173.4C173.5 176.2 169.2 177.9 164.6 177.9H20.6C16 177.9 11.8 176.2 8.50001 173.4C4.60001 170 2.10001 165 2.10001 159.4V83C2.10001 77.6 4.40001 72.5 8.40001 69.1L80.4 6.7C87.3 0.6 97.7 0.6 104.6 6.7L176.6 69.1C180.8 72.5 183.1 77.6 183.1 83Z" fill="#FFCD57"/>
<path d="M183.1 135.8V159.5C183.1 165.1 180.6 170.1 176.7 173.5C173.5 176.3 169.2 178 164.6 178H20.6C16 178 11.8 176.3 8.50001 173.5C4.60001 170.1 2.10001 165.1 2.10001 159.5V83.0003C2.10001 80.3003 2.70001 77.6003 3.80001 75.3003C16.2 111.5 74 138.9 143.3 138.9C157.1 138.9 170.5 137.8 183.1 135.8Z" fill="#F4BA43"/>
<path d="M176.7 173.4C173.5 176.2 169.2 177.9 164.6 177.9H20.6C16 177.9 11.8 176.2 8.5 173.4L76.3 126L88.8 134.7C91.1 136.3 94.2 136.3 96.4 134.7L108.9 126L176.7 173.4Z" fill="#FFCD57"/>
<path d="M164.7 180H20.7C15.7 180 11 178.2 7.19999 175C6.69999 174.6 6.4 173.9 6.5 173.3C6.5 172.7 6.9 172.1 7.4 171.7L75.2 124.3C75.9 123.8 76.9 123.8 77.6 124.3L90 133C91.6 134.1 93.7 134.1 95.2 133L107.7 124.3C108.4 123.8 109.4 123.8 110.1 124.3L177.9 171.7C178.4 172.1 178.8 172.7 178.8 173.3C178.8 173.9 178.6 174.6 178.1 175C174.4 178.2 169.6 180 164.7 180ZM12.2 173.4C14.7 174.9 17.6 175.8 20.7 175.8H164.7C167.7 175.8 170.6 175 173.2 173.4L109 128.5L97.7 136.4C94.7 138.5 90.6 138.5 87.6 136.4L76.3 128.5L12.2 173.4Z" fill="#35414D"/>
<path d="M92.6 138C90.8 138 89.1 137.5 87.6 136.4L3.10001 77.3C2.20001 76.6 1.90001 75.3 2.60001 74.4C3.30001 73.5 4.60001 73.2 5.50001 73.9L90 132.9C91.6 134 93.7 134 95.2 132.9L180.2 73.5C181.1 72.8 182.5 73.1 183.1 74C183.8 74.9 183.5 76.3 182.6 76.9L97.6 136.4C96.2 137.5 94.4 138 92.6 138Z" fill="#35414D"/>
<path d="M164.7 180H20.7C15.7 180 11 178.2 7.20001 175C2.70001 171.1 0.100006 165.4 0.100006 159.4V83.0001C0.100006 77.0001 2.70001 71.4001 7.20001 67.5001L79.1 5.0001C86.8 -1.6999 98.4 -1.6999 106.1 5.0001L178.1 67.4001C182.6 71.3001 185.2 77.0001 185.2 82.9001V159.3C185.2 165.3 182.6 171 178.1 174.9C174.4 178.2 169.6 180 164.7 180ZM92.6 4.2001C88.8 4.2001 84.9 5.5001 81.9 8.2001L9.90001 70.6001C6.30001 73.7001 4.20001 78.2001 4.20001 83.0001V159.4C4.20001 164.2 6.30001 168.7 9.90001 171.8C12.9 174.4 16.7 175.8 20.6 175.8H164.6C168.5 175.8 172.3 174.4 175.3 171.8C178.9 168.7 181 164.2 181 159.4V83.0001C181 78.2001 178.9 73.7001 175.4 70.7001L103.4 8.2001C100.3 5.5001 96.5 4.2001 92.6 4.2001Z" fill="#35414D"/>
<path d="M163.2 29.5001V88.0001L96.4 134.7C94.1 136.3 91 136.3 88.7 134.7L22 88.0001V29.5001C22 20.5001 29.3 13.1001 38.4 13.1001H146.8C155.9 13.1001 163.2 20.5001 163.2 29.5001Z" fill="white"/>
<path d="M163.2 77.9001V88.0001L96.4 134.7C94.1 136.3 91 136.3 88.7 134.7L22 88.0001V29.5001C22 20.5001 29.3 13.1001 38.4 13.1001H98.3C77.3 19.6001 63.5 30.5001 63.5 43.0001C63.5 63.0001 99 79.1001 142.8 79.1001C149.9 79.1001 156.7 78.7001 163.2 77.9001Z" fill="#E5E8EC"/>
<path d="M92.6 138C90.8 138 89.1 137.5 87.5 136.4L20.8 89.7C20.2 89.3 19.9 88.7 19.9 88V29.5C19.9 19.3 28.2 11 38.4 11H146.8C157 11 165.3 19.3 165.3 29.5V88C165.3 88.7 165 89.3 164.4 89.7L97.7 136.4C96.2 137.5 94.4 138 92.6 138ZM24.1 86.9L90 133C91.6 134.1 93.7 134.1 95.3 133L161.2 86.9V29.5C161.2 21.6 154.8 15.2 146.9 15.2H38.4C30.5 15.2 24.1 21.6 24.1 29.5V86.9Z" fill="#35414D"/>
<path d="M107.4 86.4001L122.1 71.7001C130.2 63.6001 130.2 50.4001 122.1 42.3001C114 34.2001 100.8 34.2001 92.7 42.3001C84.6 34.2001 71.4 34.2001 63.3 42.3001C55.2 50.4001 55.2 63.6001 63.3 71.7001C71.4 79.8001 78 86.4001 78 86.4001L85.5 93.9001C89.5 97.9001 95.9 97.9001 99.9 93.9001L107.4 86.4001Z" fill="#FF3B65"/>
<path opacity="0.75" d="M122.1 42.3003C121.3 41.5003 120.5 40.9003 119.7 40.3003C118.5 63.9003 100 83.0003 76.5 85.1003L77.9 86.5003L85.4 94.0003C89.4 98.0003 95.8 98.0003 99.8 94.0003L107.3 86.5003L122 71.8003C130.2 63.6003 130.2 50.4003 122.1 42.3003Z" fill="#D82B50"/>
<path d="M68.1 58.2C67.2 58.2 66.4 57.4 66.4 56.5C66.4 50.4 71.3 45.5 77.4 45.5C78.3 45.5 79.1 46.3 79.1 47.2C79.1 48.1 78.3 48.9 77.4 48.9C73.2 48.9 69.8 52.3 69.8 56.5C69.8 57.4 69 58.2 68.1 58.2Z" fill="#FF8098"/>
<path d="M92.6 98.6001C89.6 98.6001 86.5 97.4001 84.2 95.1001L62 72.9001C53.2 64.1001 53.2 49.8001 62 41.1001C70.4 32.7001 83.8 32.3001 92.6 40.0001C101.4 32.4001 114.9 32.7001 123.2 41.1001C132 49.9001 132 64.2001 123.2 72.9001L101 95.2001C98.7 97.5001 95.7 98.6001 92.6 98.6001ZM77.9 37.9001C73 37.9001 68.1 39.8001 64.4 43.5001C56.9 51.0001 56.9 63.1001 64.4 70.6001L86.7 92.9001C90 96.2001 95.4 96.2001 98.7 92.9001L106.2 85.4001L120.9 70.7001C128.4 63.2001 128.4 51.1001 120.9 43.6001C113.4 36.1001 101.3 36.1001 93.8 43.6001C93.1 44.3001 92.1 44.3001 91.4 43.6001C87.7 39.7001 82.8 37.9001 77.9 37.9001Z" fill="#35414D"/>
</g>
<defs>
<clipPath id="clip0_838_5977">
<rect width="185.2" height="180" fill="white"/>
</clipPath>
</defs>
</svg>
