<svg width="181" height="180" viewBox="0 0 181 180" fill="none" xmlns="http://www.w3.org/2000/svg">
<g clip-path="url(#clip0_836_5916)">
<path d="M156.254 91.4657C155.765 90.5862 154.788 90.0976 153.713 89.9999L41.5309 86.9706C40.456 86.8729 39.4788 87.4592 38.8925 88.3387C38.3062 89.2181 38.2085 90.2931 38.6971 91.2703L53.8436 124.593C54.5277 126.156 56.2866 126.84 57.8502 126.059C58.3388 125.863 58.7296 125.57 59.0228 125.081L64.7883 117.361L87.0684 175.896C87.4593 176.873 88.3388 177.655 89.4137 177.85C89.6091 177.85 89.8046 177.85 89.9023 177.85C90.7818 177.85 91.6612 177.459 92.2476 176.775L126.547 136.808L130.261 140.521C131.433 141.694 133.388 141.694 134.56 140.521C134.853 140.228 135.049 139.935 135.147 139.642L156.352 94.1041C156.84 93.4201 156.84 92.3452 156.254 91.4657Z" fill="#00579B"/>
<path d="M90 180C89.7068 180 89.4137 180 89.1205 179.902C87.3616 179.609 85.8958 178.339 85.2117 176.677L64.202 121.563L60.684 126.352C60.1954 127.036 59.5114 127.622 58.7296 127.915C57.4593 128.502 56.0912 128.502 54.8208 128.013C53.5505 127.524 52.5733 126.547 51.987 125.374L36.8404 92.1497C36.1564 90.5862 36.2541 88.7295 37.2313 87.2637C38.1107 85.7979 39.8697 84.9184 41.7264 85.0162L153.811 87.9478C155.57 87.9478 157.134 88.925 158.013 90.3908C158.893 91.8566 158.99 93.6155 158.306 95.179L137.101 140.716C136.808 141.303 136.515 141.694 136.124 142.182C134.169 144.137 130.945 144.137 128.893 142.182L126.743 140.032L93.8111 178.241C92.9316 179.316 91.4658 180 90 180ZM65.4723 113.257L89.1205 175.309C89.2182 175.602 89.5114 175.896 89.9023 175.896C89.9023 175.896 90 175.896 90.0977 175.896C90.3909 175.896 90.684 175.798 90.8795 175.602L126.547 133.974L131.824 139.251C132.215 139.642 132.801 139.642 133.192 139.251C133.29 139.153 133.388 139.055 133.388 138.958L154.593 93.4201C154.691 93.1269 154.691 92.736 154.495 92.4429C154.3 92.1497 154.007 91.9543 153.713 91.9543L41.5309 89.0227C41.1401 89.0227 40.8469 89.1204 40.7492 89.4136C40.5537 89.8044 40.456 90.0976 40.6515 90.3908L55.798 123.713C55.8958 124.006 56.1889 124.202 56.3844 124.202C56.4821 124.3 56.7752 124.3 57.1661 124.202C57.3616 124.104 57.4593 124.006 57.557 123.909L65.4723 113.257Z" fill="#35414D"/>
<path d="M156.254 91.3681C155.668 90.4886 154.691 90 153.616 90L105.049 92.0521C103.876 92.1498 102.801 92.8339 102.41 93.9088L93.3225 115.114C93.0293 115.896 93.0293 116.775 93.3225 117.557L108.469 151.466C108.86 152.443 109.739 153.127 110.814 153.225C110.912 153.225 111.108 153.225 111.205 153.225C112.085 153.225 112.964 152.834 113.55 152.15L126.547 136.906L130.261 140.619C131.433 141.792 133.388 141.792 134.56 140.619C134.853 140.326 135.049 140.033 135.147 139.739L156.352 94.202C156.84 93.3225 156.84 92.2476 156.254 91.3681Z" fill="#1B87C9"/>
<path d="M111.205 155.277C110.912 155.277 110.717 155.277 110.521 155.179C108.762 154.886 107.296 153.811 106.612 152.247L91.4658 118.339C90.8795 117.068 90.8795 115.603 91.4658 114.234L100.554 93.0292C101.336 91.2703 103.094 89.9999 105.049 89.9999L153.616 87.9478C155.375 87.8501 157.134 88.7296 158.111 90.1954C159.088 91.6612 159.186 93.5178 158.502 95.1791L137.101 140.717C136.808 141.303 136.515 141.694 136.124 142.182C134.169 144.137 130.945 144.137 128.893 142.182L126.743 140.033L115.114 153.42C114.137 154.593 112.671 155.277 111.205 155.277ZM153.713 92.052L105.147 94.1042C104.756 94.1042 104.463 94.3973 104.267 94.6905L95.1792 115.896C95.0814 116.189 95.0814 116.482 95.1792 116.677L110.326 150.586C110.423 150.879 110.717 151.075 111.107 151.173C111.498 151.27 111.792 151.075 111.987 150.879L126.45 133.974L131.726 139.251C132.117 139.642 132.704 139.642 133.094 139.251C133.192 139.153 133.29 139.055 133.29 138.958L154.495 93.4201C154.593 93.127 154.593 92.7361 154.397 92.4429C154.3 92.2475 154.007 92.052 153.713 92.052Z" fill="#35414D"/>
<path d="M20.228 133.681C18.4691 133.681 16.8078 132.899 15.6352 131.629C15.5375 131.531 15.342 131.336 15.1466 131.238C15.0489 131.238 14.8534 131.531 14.7557 131.629C12.4104 134.169 8.50162 134.365 5.96091 132.117C5.76547 132.02 5.66775 131.824 5.47231 131.629C5.37459 131.531 5.17915 131.336 4.98371 131.238C3.32247 131.238 1.95439 129.87 1.95439 128.209C1.95439 126.547 3.32247 125.179 4.98371 125.179C6.74267 125.179 8.4039 125.961 9.57654 127.231C9.67426 127.329 9.8697 127.524 10.0651 127.622C10.1629 127.622 10.3583 127.329 10.456 127.231C12.8013 124.691 16.7101 124.495 19.2508 126.743C19.4462 126.84 19.544 127.036 19.7394 127.231C19.8371 127.329 20.0326 127.524 20.228 127.622C21.8892 127.622 23.2573 128.893 23.355 130.554C23.355 132.215 22.0847 133.583 20.4234 133.681C20.3257 133.681 20.3257 133.681 20.228 133.681Z" fill="#00579B"/>
<path d="M20.228 135.733C18.3713 135.733 16.6124 135.147 15.1466 133.974C13.7785 135.049 12.215 135.635 10.5537 135.733C8.30619 135.831 6.25407 135.049 4.59283 133.583C4.49511 133.485 4.29967 133.29 4.20195 133.192C3.22476 132.997 2.24756 132.508 1.4658 131.824C0.488599 130.847 0 129.576 0 128.208C0 126.84 0.488599 125.57 1.4658 124.593C2.443 123.616 3.71336 123.127 5.08143 123.127C6.93811 123.127 8.69707 123.713 10.1629 124.886C13.2899 122.443 17.785 122.541 20.8143 125.277C20.9121 125.375 21.1075 125.57 21.2052 125.668C23.5505 126.059 25.4072 128.111 25.5049 130.554C25.6026 133.388 23.355 135.635 20.5212 135.733H20.228ZM15.0489 128.502L16.4169 129.576C16.6124 129.772 16.9055 129.967 17.101 130.163C17.9805 131.042 19.0554 131.629 20.228 131.629H20.3257C20.8143 131.629 21.3029 131.14 21.3029 130.651C21.3029 130.163 20.9121 129.674 20.3257 129.674H19.6417L19.0554 129.186C18.8599 128.99 18.5668 128.795 18.3713 128.599C18.2736 128.404 18.0782 128.306 17.9805 128.208C16.3192 126.645 13.5831 126.84 12.1173 128.502L12.0195 128.599C11.8241 128.795 11.6287 128.99 11.5309 128.99L10.2606 130.163L8.89251 129.088C8.69707 128.892 8.50163 128.697 8.30619 128.502C7.42671 127.524 6.35179 127.036 5.08143 127.036C4.78827 127.036 4.49511 127.231 4.39739 127.329C4.29967 127.427 4.10423 127.622 4.10423 128.013C4.10423 128.404 4.29967 128.599 4.39739 128.697C4.49511 128.795 4.69055 128.99 5.08143 128.99H5.76547L6.35179 129.381C6.54723 129.576 6.74267 129.772 6.93811 129.967L7.03583 130.065C7.13355 130.163 7.23127 130.26 7.32899 130.358C8.20847 131.14 9.18567 131.531 10.3583 131.433C11.4332 131.335 12.5081 130.847 13.2899 130.065L13.3876 129.967C13.5831 129.772 13.7785 129.576 13.8762 129.576L15.0489 128.502Z" fill="#35414D"/>
<path d="M38.4039 160.944C36.645 160.944 34.9837 160.163 33.8111 158.892C33.7134 158.795 33.5179 158.599 33.3225 158.502C33.2248 158.502 33.0293 158.795 32.9316 158.892C30.5863 161.433 26.6775 161.629 24.1368 159.381C23.9414 159.283 23.8437 159.088 23.6482 158.892C23.5505 158.795 23.3551 158.599 23.1596 158.502C21.4984 158.502 20.1303 157.133 20.1303 155.472C20.1303 153.811 21.4984 152.443 23.1596 152.443C24.9186 152.443 26.5798 153.225 27.7524 154.495C27.8502 154.593 28.0456 154.788 28.241 154.886C28.3388 154.886 28.5342 154.593 28.6319 154.495C30.9772 151.954 34.886 151.759 37.4267 154.006C37.6222 154.104 37.7199 154.3 37.9153 154.495C38.013 154.593 38.2085 154.788 38.4039 154.886C40.0651 154.886 41.4332 156.156 41.5309 157.817C41.5309 159.479 40.2606 160.847 38.5993 160.944C38.5016 160.944 38.5016 160.944 38.4039 160.944Z" fill="#00579B"/>
<path d="M38.4039 162.997C36.5472 162.997 34.7883 162.411 33.3225 161.238C30.1954 163.681 25.7003 163.583 22.671 160.847C22.5733 160.749 22.3779 160.554 22.2801 160.456C19.9349 160.065 18.0782 157.915 18.0782 155.472C18.0782 152.639 20.3257 150.391 23.1596 150.391C25.0163 150.391 26.7752 150.977 28.241 152.15C29.6091 151.075 31.1726 150.489 32.8339 150.391C35.0814 150.293 37.1336 151.075 38.7948 152.541C38.8925 152.639 39.0879 152.834 39.1857 152.932C40.1629 153.127 41.1401 153.518 41.9218 154.3C42.899 155.277 43.4853 156.547 43.4853 157.818C43.5831 160.652 41.3355 162.899 38.5016 162.997H38.4039ZM33.3225 155.863L34.6906 156.938C34.886 157.134 35.1792 157.329 35.3746 157.525C36.2541 158.404 37.329 158.99 38.5016 158.99H38.5994C39.088 158.99 39.5765 158.502 39.5765 158.013C39.5765 157.622 39.3811 157.427 39.2834 157.329C39.1857 157.231 38.8925 157.036 38.5994 157.036H37.9153L37.329 156.547C37.1336 156.352 36.8404 156.156 36.645 155.961C36.4495 155.766 36.3518 155.668 36.2541 155.57C35.4723 154.788 34.3974 154.398 33.2248 154.495C32.1498 154.593 31.0749 155.082 30.2932 155.863L30.1954 155.961C30 156.156 29.8046 156.352 29.7068 156.352L28.4365 157.525L27.0684 156.45C26.873 156.254 26.6775 156.059 26.4821 155.863C25.6026 154.886 24.5277 154.398 23.2573 154.398C22.7687 154.398 22.2801 154.788 22.2801 155.375C22.2801 155.863 22.671 156.352 23.2573 156.352H23.9414L24.5277 156.743C24.7231 156.938 25.0163 157.134 25.2117 157.329C25.4072 157.525 25.5049 157.622 25.6026 157.72C27.3616 159.283 30 159.088 31.4658 157.427L31.5635 157.329C31.759 157.134 31.9544 156.938 32.0521 156.841L33.3225 155.863Z" fill="#35414D"/>
<path d="M156.743 167.003C154.984 167.003 153.322 166.221 152.15 164.951C152.052 164.853 151.857 164.658 151.661 164.56C151.564 164.56 151.368 164.853 151.27 164.951C148.925 167.492 145.016 167.687 142.476 165.44C142.28 165.342 142.182 165.146 141.987 164.951C141.889 164.853 141.694 164.658 141.498 164.56C139.837 164.56 138.469 163.192 138.469 161.531C138.469 159.87 139.837 158.501 141.498 158.501C143.257 158.501 144.919 159.283 146.091 160.554C146.189 160.651 146.384 160.847 146.58 160.944C146.678 160.944 146.873 160.651 146.971 160.554C149.316 158.013 153.225 157.817 155.765 160.065C155.961 160.163 156.059 160.358 156.254 160.554C156.352 160.651 156.547 160.847 156.743 160.944C158.404 160.944 159.772 162.215 159.87 163.876C159.87 165.537 158.599 166.905 156.938 167.003C156.84 167.003 156.743 167.003 156.743 167.003Z" fill="#00579B"/>
<path d="M156.743 169.055C154.886 169.055 153.127 168.469 151.661 167.296C148.534 169.739 144.039 169.641 141.01 166.905C140.912 166.808 140.717 166.612 140.619 166.514C139.642 166.319 138.665 165.83 137.883 165.146C136.906 164.169 136.417 162.899 136.417 161.531C136.417 160.163 136.906 158.892 137.883 157.915C138.86 156.938 140.13 156.449 141.498 156.449C143.355 156.449 145.114 157.036 146.58 158.208C149.707 155.765 154.202 155.863 157.231 158.599C157.329 158.697 157.524 158.892 157.622 158.99C158.599 159.185 159.577 159.576 160.358 160.358C161.336 161.335 161.922 162.606 161.922 163.876C162.02 166.71 159.772 168.957 156.938 169.055H156.743ZM151.564 161.922L152.932 162.996C153.127 163.192 153.42 163.387 153.616 163.583C154.495 164.462 155.57 165.049 156.743 165.049H156.84C157.329 165.049 157.818 164.56 157.818 164.071C157.818 163.68 157.622 163.485 157.524 163.387C157.427 163.29 157.134 163.094 156.84 163.094H156.156L155.57 162.606C155.375 162.41 155.081 162.215 154.886 162.019C154.788 161.824 154.593 161.726 154.495 161.628C152.834 160.065 150.098 160.26 148.632 161.922L148.534 162.019C148.339 162.215 148.143 162.41 148.046 162.41L146.775 163.583L145.407 162.508C145.212 162.312 145.016 162.117 144.821 161.922C143.941 160.944 142.866 160.456 141.596 160.456C141.303 160.456 141.01 160.651 140.912 160.749C140.814 160.847 140.619 161.042 140.619 161.433C140.619 161.824 140.814 162.019 140.912 162.117C141.01 162.215 141.205 162.41 141.596 162.41H142.28L142.866 162.801C143.062 162.996 143.257 163.192 143.55 163.387C143.746 163.583 143.844 163.68 143.941 163.778C145.7 165.342 148.339 165.146 149.805 163.485L149.902 163.387C150.098 163.192 150.293 162.996 150.391 162.899L151.564 161.922Z" fill="#35414D"/>
<path d="M168.86 142.769C167.101 142.769 165.44 141.987 164.267 140.717C164.169 140.619 163.974 140.423 163.779 140.326C163.681 140.326 163.485 140.619 163.388 140.717C161.042 143.257 157.134 143.453 154.593 141.205C154.397 141.107 154.3 140.912 154.104 140.717C154.007 140.619 153.811 140.423 153.616 140.326C151.954 140.326 150.586 138.958 150.586 137.296C150.586 135.635 151.954 134.267 153.616 134.267C155.375 134.267 157.036 135.049 158.208 136.319C158.306 136.417 158.502 136.612 158.697 136.71C158.795 136.71 158.99 136.417 159.088 136.319C161.433 133.778 165.342 133.583 167.883 135.831C168.078 135.928 168.176 136.124 168.371 136.319C168.469 136.417 168.665 136.612 168.86 136.71C170.521 136.71 171.889 137.98 171.987 139.642C172.085 141.303 170.717 142.671 169.055 142.769C168.958 142.769 168.86 142.769 168.86 142.769Z" fill="#00579B"/>
<path d="M168.958 144.821H168.86C167.003 144.821 165.244 144.234 163.876 143.062C160.749 145.505 156.254 145.407 153.225 142.671C153.127 142.573 152.932 142.378 152.834 142.28C151.857 142.085 150.879 141.596 150.098 140.912C149.121 139.935 148.632 138.664 148.632 137.296C148.632 135.928 149.121 134.658 150.098 133.681C151.075 132.703 152.345 132.215 153.713 132.215C155.57 132.215 157.329 132.801 158.795 133.974C161.922 131.531 166.417 131.629 169.446 134.365C169.544 134.462 169.739 134.658 169.837 134.756C172.182 135.146 174.039 137.199 174.137 139.642C174.235 142.475 171.987 144.723 169.153 144.821C168.958 144.821 168.958 144.821 168.958 144.821ZM163.681 137.589L165.049 138.664C165.244 138.86 165.44 139.055 165.733 139.251C166.612 140.13 167.687 140.716 168.86 140.716H168.958C169.544 140.716 169.935 140.228 169.935 139.739C169.935 139.251 169.446 138.762 168.958 138.762H168.274L167.687 138.273C167.492 138.078 167.199 137.883 167.003 137.687C166.808 137.492 166.71 137.394 166.612 137.296C164.853 135.733 162.215 135.928 160.749 137.589L160.261 138.078L158.99 139.348L157.622 138.273C157.427 138.078 157.134 137.883 156.938 137.687C156.059 136.71 154.984 136.221 153.811 136.221C153.518 136.221 153.225 136.417 153.127 136.515C153.029 136.612 152.834 136.808 152.834 137.199C152.834 137.589 153.029 137.785 153.127 137.883C153.225 137.98 153.42 138.176 153.811 138.176H154.495L155.081 138.664C155.277 138.86 155.472 139.055 155.668 139.251C155.863 139.446 155.961 139.544 156.059 139.642C157.72 141.205 160.456 141.01 161.922 139.348L162.02 139.251C162.215 139.055 162.41 138.86 162.41 138.86L163.681 137.589Z" fill="#35414D"/>
<path d="M120.293 46.9055L111.205 4.4951C110.814 2.83386 109.251 1.85666 107.59 2.14982C106.808 2.34526 106.124 2.73614 105.733 3.42018L89.8046 27.2638L80.228 15.342C79.6417 14.5602 78.7622 14.1694 77.785 14.1694C76.8078 14.1694 75.9283 14.658 75.4397 15.4397L41.0423 64.1042L34.4951 57.557C33.3225 56.3843 31.3681 56.3843 30.1954 57.557C29.9023 57.8502 29.7068 58.1433 29.6091 58.4365L17.4919 85.7003C16.8078 87.2638 17.4919 89.0228 19.0554 89.7068C19.1531 89.7068 19.1531 89.8046 19.2508 89.8046C26.1889 92.3453 53.355 92.9316 56.4821 93.0293H56.5798C57.3616 93.0293 58.1433 92.7361 58.7296 92.1498L77.9805 73.3876L89.316 76.2215C90.2932 76.4169 91.3681 76.2215 92.1498 75.4397L119.414 49.6417C120.195 49.0554 120.489 47.9804 120.293 46.9055Z" fill="#84D2F6"/>
<path d="M56.4821 95.0813C51.3029 94.9836 25.6026 94.2996 18.5668 91.7589C18.4691 91.7589 18.3713 91.6611 18.2736 91.6611C17.0033 91.0748 16.1238 90.0976 15.6352 88.8273C15.1466 87.5569 15.1466 86.1888 15.7329 84.9185L27.7524 57.6546C28.0456 57.0683 28.3388 56.5797 28.8274 56.0911C30.7818 54.1367 34.0065 54.1367 36.0586 56.0911L40.8469 60.8794L73.7785 14.267C74.658 12.9967 76.2215 12.1172 77.785 12.1172C79.3485 12.0195 81.0098 12.7035 81.987 14.0716L89.7068 23.7458L104.072 2.24747C104.853 1.17255 105.928 0.390788 107.199 0.097628C109.935 -0.488691 112.671 1.27027 113.257 4.00642L122.345 46.4168C122.736 48.1758 122.15 49.9348 120.879 51.2051L93.5179 77.0032C92.2476 78.1758 90.4886 78.6644 88.8274 78.2735L78.4691 75.7328L60 93.6155C59.0228 94.5928 57.7524 95.0813 56.4821 95.0813ZM32.3453 58.7295C32.0521 58.7295 31.8567 58.8273 31.6612 59.0227C31.5635 59.1204 31.4658 59.2182 31.4658 59.3159L19.3485 86.5797C19.2508 86.8729 19.2508 87.166 19.3485 87.3615C19.4462 87.5569 19.544 87.7523 19.8371 87.9478C25.2117 89.9022 45.342 90.8794 56.3844 91.0748C56.6775 91.0748 56.873 90.9771 57.0684 90.7817L77.101 71.2377L89.8046 74.267C90.0977 74.3647 90.4886 74.267 90.684 73.9738L117.948 48.1758C118.241 47.9804 118.339 47.5895 118.241 47.2963L109.153 4.8859C109.055 4.49502 108.86 4.3973 108.762 4.29958C108.664 4.20186 108.371 4.10414 107.98 4.20186C107.687 4.29958 107.492 4.3973 107.394 4.59274L89.9023 30.6839L78.6645 16.6123C78.469 16.3191 78.1759 16.2214 77.9805 16.2214C77.5896 16.2214 77.2964 16.4168 77.101 16.6123L41.3355 67.2312L33.0293 58.925C32.8339 58.8273 32.6384 58.7295 32.3453 58.7295Z" fill="#35414D"/>
<path d="M107.785 93.5178C107.296 92.6383 106.417 92.1497 105.44 92.052L41.7264 86.9705C40.0651 86.8728 38.5994 88.0454 38.5016 89.7067C38.5016 90.1953 38.5994 90.7816 38.7948 91.1725L53.9414 124.495C54.6254 126.058 56.3844 126.743 57.9479 125.961C58.4365 125.765 58.8274 125.472 59.1205 124.984L64.886 117.264L69.9674 130.749C70.0652 131.042 70.2606 131.335 70.456 131.629L70.9446 132.215C71.9218 133.387 73.5831 133.681 74.8534 132.899L97.6222 118.729C98.1108 118.436 98.5994 117.948 98.7948 117.361L107.883 96.1562C108.371 95.3744 108.274 94.2995 107.785 93.5178Z" fill="#0377BE"/>
<path d="M73.2899 135.538C71.8241 135.538 70.3583 134.853 69.3811 133.681L68.8925 133.095C68.5016 132.704 68.3062 132.215 68.1108 131.726L64.2997 121.759L60.7818 126.547C60.2932 127.231 59.6091 127.818 58.8274 128.111C56.2866 129.283 53.2573 128.111 52.0847 125.57L36.8404 92.1499C36.4495 91.3681 36.3518 90.4887 36.4495 89.6092C36.645 86.7753 39.088 84.7232 41.9218 84.9186L105.635 90.0001C107.296 90.0978 108.762 91.075 109.544 92.4431C110.423 93.8111 110.521 95.5701 109.837 97.0359L100.749 118.241C100.358 119.218 99.6743 120 98.7948 120.586L76.0261 134.756C75.1466 135.244 74.2671 135.538 73.2899 135.538ZM65.4723 113.257L71.9218 130.163C71.9218 130.261 72.0196 130.358 72.1173 130.456L72.6059 131.042C72.899 131.433 73.4853 131.531 73.8762 131.238L96.645 117.068C96.8404 116.971 96.9381 116.775 97.0358 116.58L106.124 95.3747C106.222 95.0815 106.222 94.7883 106.026 94.4952C105.831 94.202 105.537 94.0066 105.244 94.0066L41.5309 88.9251C41.0423 88.9251 40.5538 89.316 40.456 89.8046C40.456 90.0001 40.456 90.0978 40.5537 90.2932L55.7003 123.811C55.798 124.104 56.0912 124.3 56.2866 124.3C56.3844 124.397 56.6775 124.397 57.0684 124.3C57.2638 124.202 57.3616 124.104 57.4593 124.007L65.4723 113.257Z" fill="#35414D"/>
<path d="M171.498 88.5344L156.352 61.2705C155.57 59.8047 153.713 59.3161 152.248 60.0979C151.954 60.1956 151.759 60.3911 151.564 60.5865L148.827 63.3227L135.342 28.2412C134.756 26.6777 132.997 25.8959 131.433 26.4823C130.945 26.6777 130.554 26.9709 130.163 27.3617L115.114 45.4399L87.9479 71.1402C87.0684 71.922 86.7752 73.1924 87.1661 74.365L94.5928 94.9839C94.9837 96.1565 96.0586 96.9383 97.2313 97.036C98.4039 97.1337 127.818 96.2543 127.818 96.2543C127.818 96.2543 162.606 97.036 170.326 92.7363C171.792 91.8569 172.28 90.0002 171.498 88.5344Z" fill="#B5E4FA"/>
<path d="M97.4267 99.0881C97.2313 99.0881 97.0358 99.0881 97.0358 99.0881C94.9837 98.8926 93.3225 97.6223 92.6384 95.7656L85.2117 75.1467C84.5277 73.29 85.0163 71.1402 86.4821 69.7721L113.55 44.1695L128.502 26.189C129.088 25.505 129.772 25.0164 130.554 24.7232C131.824 24.2346 133.192 24.2346 134.463 24.821C135.733 25.4073 136.612 26.3845 137.101 27.6548L149.511 59.6092L150 59.1206C150.293 58.8275 150.684 58.5343 151.075 58.2411C153.518 56.8731 156.645 57.7525 158.013 60.1955L173.16 87.4594C174.528 89.9024 173.648 93.0294 171.205 94.3975C163.192 98.8926 131.531 98.3063 127.622 98.2086C121.173 98.404 100.749 99.0881 97.4267 99.0881ZM132.41 28.3389C132.313 28.3389 132.215 28.3389 132.02 28.4366C131.824 28.5343 131.726 28.632 131.629 28.7297L116.384 47.0034L89.316 72.606C89.0228 72.8991 88.9251 73.29 89.0228 73.6809L96.4495 94.2998C96.5472 94.6907 96.9381 94.8861 97.329 94.9838C98.5016 95.0815 116.091 94.4952 127.72 94.2021H127.818H127.915C137.394 94.3975 163.388 94.2998 169.446 90.8796C169.935 90.5864 170.13 90.0001 169.837 89.5115L154.691 62.2477C154.397 61.7591 153.811 61.5636 153.322 61.8568C153.225 61.8568 153.127 61.9545 153.127 62.0522L148.143 67.0359L133.485 29.0229C133.388 28.7297 133.094 28.5343 132.997 28.4366C132.801 28.4366 132.606 28.3389 132.41 28.3389Z" fill="#35414D"/>
<path d="M99.9674 92.0518L92.8339 72.3124C92.5407 71.5306 91.8567 70.8466 91.0749 70.5534L79.4463 65.9606C78.3713 65.5697 77.101 65.7651 76.3192 66.5469L53.0619 87.7521C51.7915 88.9247 51.6938 90.7814 52.8665 92.0518C53.3551 92.6381 54.1368 92.9313 54.9186 93.029L96.8404 96.0583C96.9381 96.0583 97.0358 96.0583 97.0358 96.0583C98.6971 96.0583 100.065 94.6902 100.065 93.029C100.065 92.6381 100.065 92.3449 99.9674 92.0518Z" fill="#E2F4FD"/>
<path d="M97.0358 98.1106C96.9381 98.1106 96.8404 98.1106 96.7427 98.1106L54.7231 95.0813C53.4528 94.9836 52.1824 94.3973 51.3029 93.4201C49.4463 91.368 49.544 88.1432 51.5961 86.1888L74.8534 64.9836C76.2215 63.7132 78.3713 63.3224 80.1303 64.0064L91.8567 68.5992C93.2248 69.0878 94.2997 70.2605 94.7883 71.6286L101.824 91.368C102.02 91.9543 102.117 92.5406 102.117 93.1269C102.117 94.495 101.629 95.7654 100.651 96.7426C99.6743 97.7198 98.4039 98.1106 97.0358 98.1106ZM78.3713 67.8175C78.1759 67.8175 77.8827 67.9152 77.6873 68.1106L54.43 89.3158C54.0391 89.7067 54.0391 90.293 54.3322 90.6839C54.5277 90.8794 54.7231 90.9771 55.0163 90.9771L97.0358 94.0064C97.4267 94.0064 97.6222 93.811 97.7199 93.7132C97.8176 93.6155 98.013 93.4201 98.013 93.0292C98.013 92.9315 98.013 92.8338 97.9153 92.736L90.8795 72.9966C90.7818 72.7035 90.5863 72.508 90.2932 72.4103L78.6645 67.8175C78.6645 67.8175 78.4691 67.8175 78.3713 67.8175Z" fill="#35414D"/>
<path d="M123.713 97.7198C103.485 97.7198 83.5505 96.0586 65.0814 94.3974C41.4332 92.3452 21.0098 90.5863 5.57003 92.9316C3.90879 93.2247 2.34527 92.0521 2.14983 90.3908C1.85667 88.7296 3.02931 87.1661 4.69055 86.9706C20.8143 84.5276 41.5309 86.3843 65.57 88.4364C99.4788 91.368 137.883 94.5928 174.332 87.0684C175.993 86.6775 177.557 87.7524 177.948 89.3159C178.339 90.9772 177.264 92.5407 175.7 92.9316H175.603C158.502 96.3518 141.107 97.9153 123.713 97.7198Z" fill="#57C1EF"/>
<path d="M126.254 99.772C125.375 99.772 124.495 99.772 123.713 99.772C103.388 99.772 83.8437 98.1107 64.9837 96.4495H64.886C41.3355 94.4951 21.0098 92.7361 5.86319 94.9837C3.12703 95.3746 0.488596 93.5179 0.0977167 90.684C-0.390883 87.9479 1.56352 85.4071 4.29967 85.0163C20.6189 82.5733 41.5309 84.3322 65.6677 86.3843C99.4788 89.2182 137.687 92.5407 173.844 85.0163C175.114 84.7231 176.482 84.9185 177.655 85.7003C178.827 86.3843 179.609 87.557 179.902 88.9251C180.195 90.2931 180 91.5635 179.218 92.7361C178.534 93.9088 177.362 94.6905 175.993 94.9837H175.798C159.577 98.2084 142.964 99.772 126.254 99.772ZM22.7687 89.9022C35.1792 89.9022 49.4463 91.0749 65.1792 92.443H65.3746C84.1368 94.0065 103.681 95.6677 123.713 95.6677C140.912 95.8632 158.208 94.2019 175.114 90.8794C175.505 90.7817 175.7 90.5863 175.798 90.3908C175.896 90.2931 175.993 90 175.896 89.6091C175.798 89.2182 175.603 89.1205 175.505 89.0228C175.407 88.925 175.114 88.8273 174.723 88.9251C137.98 96.5472 99.3811 93.2247 65.3746 90.3908C41.4332 88.3387 20.8143 86.5798 4.88599 88.9251C4.39739 89.0228 4.00651 89.5114 4.10423 90C4.20195 90.4886 4.69055 90.8794 5.17915 90.7817C10.5537 90.1954 16.4169 89.9022 22.7687 89.9022Z" fill="#35414D"/>
</g>
<defs>
<clipPath id="clip0_836_5916">
<rect width="180.098" height="180" fill="white"/>
</clipPath>
</defs>
</svg>
