<?xml version="1.0" encoding="utf-8"?>
<!-- Generator: Adobe Illustrator 25.0.0, SVG Export Plug-In . SVG Version: 6.00 Build 0)  -->
<svg version="1.1" id="Layer_1" xmlns="http://www.w3.org/2000/svg" xmlns:xlink="http://www.w3.org/1999/xlink" x="0px" y="0px"
	 viewBox="0 0 180.1 180" style="enable-background:new 0 0 180.1 180;" xml:space="preserve">
<style type="text/css">
	.st0{fill:#00579B;}
	.st1{fill:#35414D;}
	.st2{fill:#1B87C9;}
	.st3{fill:#84D2F6;}
	.st4{fill:#0377BE;}
	.st5{fill:#B5E4FA;}
	.st6{fill:#E2F4FD;}
	.st7{fill:#57C1EF;}
</style>
<g id="Iceberg">
	<g>
		<path class="st0" d="M156.3,91.4c-0.5-0.9-1.5-1.4-2.5-1.4L41.6,87c-1.1-0.1-2.1,0.5-2.6,1.4c-0.6,0.9-0.7,2-0.2,2.9l15.2,33.4
			c0.7,1.5,2.5,2.2,4,1.5c0.5-0.2,0.9-0.5,1.2-0.9l5.8-7.7L87.2,176c0.4,1,1.3,1.7,2.3,1.9c0.2,0,0.3,0,0.5,0c0.9,0,1.7-0.4,2.3-1.1
			l34.3-40l3.7,3.7c1.2,1.2,3.1,1.2,4.3,0c0.2-0.2,0.5-0.5,0.6-0.9l21.2-45.5C156.9,93.4,156.8,92.3,156.3,91.4L156.3,91.4z"/>
		<path class="st1" d="M90,180c-0.3,0-0.6,0-0.9-0.1c-1.8-0.3-3.3-1.5-3.9-3.2l-21-55.1l-3.6,4.8c-0.5,0.7-1.2,1.2-2,1.6
			c-1.2,0.6-2.6,0.6-3.9,0.1c-1.3-0.5-2.3-1.4-2.8-2.7L36.9,92.1c-0.7-1.6-0.6-3.4,0.4-4.9c0.9-1.5,2.6-2.4,4.4-2.3l112.1,3
			c1.7,0,3.3,0.9,4.2,2.4l0,0c0.9,1.5,1,3.3,0.3,4.8l-21.2,45.5c-0.3,0.5-0.6,1-1,1.4c-2,2-5.2,2-7.2,0l-2.2-2.2l-32.8,38.3
			C92.9,179.4,91.5,180,90,180z M65.5,113.2l23.6,62c0.1,0.3,0.4,0.6,0.8,0.6c0,0,0.1,0,0.2,0c0.3,0,0.6-0.1,0.7-0.3l35.7-41.7
			l5.3,5.3c0.4,0.4,1,0.4,1.4,0c0.1-0.1,0.1-0.2,0.2-0.3l21.2-45.5c0.1-0.3,0.1-0.6-0.1-0.9v0c-0.2-0.3-0.5-0.5-0.8-0.5L41.5,89
			c-0.4,0-0.6,0.1-0.8,0.4c-0.2,0.3-0.3,0.7-0.1,1l15.2,33.4c0.1,0.3,0.4,0.5,0.5,0.5c0.1,0.1,0.4,0.1,0.7,0
			c0.2-0.1,0.3-0.2,0.4-0.3L65.5,113.2z"/>
	</g>
	<g>
		<path class="st2" d="M156.2,91.4c-0.6-0.9-1.6-1.4-2.7-1.3L105,92c-1.2,0-2.2,0.8-2.7,1.8l-9.1,21.2c-0.3,0.8-0.3,1.7,0,2.4
			l15.2,33.9c0.4,0.9,1.3,1.6,2.3,1.8c0.1,0,0.3,0,0.4,0c0.9,0,1.7-0.4,2.3-1.1l13-15.2l3.7,3.7c1.2,1.2,3.1,1.2,4.3,0
			c0.2-0.2,0.5-0.5,0.6-0.9l21.2-45.5C156.9,93.4,156.8,92.2,156.2,91.4L156.2,91.4z"/>
		<path class="st1" d="M111.2,155.2c-0.2,0-0.5,0-0.7-0.1c-1.7-0.3-3.2-1.4-3.9-3l-15.2-33.9c-0.6-1.3-0.6-2.8,0-4.1l9.1-21.2
			c0.8-1.8,2.5-3,4.5-3.1l48.5-2c1.8-0.1,3.5,0.8,4.5,2.3c1,1.5,1.1,3.4,0.4,5l-21.2,45.5c-0.3,0.5-0.6,1-1,1.4c-2,2-5.2,2-7.2,0
			l-2.2-2.2l-11.6,13.5C114.1,154.6,112.7,155.2,111.2,155.2z M153.7,92.1C153.7,92.1,153.7,92.1,153.7,92.1l-48.6,2
			c-0.4,0-0.7,0.2-0.9,0.6l-9.1,21.2c-0.1,0.3-0.1,0.5,0,0.8l15.2,33.9c0.1,0.3,0.4,0.5,0.8,0.6c0.3,0.1,0.7-0.1,0.9-0.3l14.5-16.9
			l5.3,5.3c0.4,0.4,1,0.4,1.4,0c0.1-0.1,0.1-0.2,0.2-0.3l21.2-45.5c0.1-0.3,0.1-0.7-0.1-1l0,0C154.3,92.2,154,92.1,153.7,92.1z"/>
	</g>
	<g>
		<g>
			<path class="st0" d="M20.2,133.7c-1.8,0-3.4-0.8-4.6-2.1c-0.1-0.1-0.3-0.3-0.4-0.4c-0.1,0-0.3,0.2-0.4,0.4
				c-2.3,2.6-6.2,2.8-8.8,0.5c-0.2-0.1-0.3-0.3-0.5-0.5c-0.1-0.1-0.3-0.3-0.4-0.4c-1.7,0-3-1.4-3-3s1.4-3,3-3c1.8,0,3.4,0.8,4.6,2.1
				c0.1,0.1,0.3,0.3,0.4,0.4c0.1,0,0.3-0.2,0.4-0.4c2.3-2.6,6.2-2.8,8.8-0.5c0.2,0.1,0.3,0.3,0.5,0.5c0.1,0.1,0.3,0.3,0.4,0.4
				c1.7,0,3,1.3,3.1,3c0,1.7-1.3,3-3,3.1C20.3,133.7,20.3,133.7,20.2,133.7L20.2,133.7z"/>
			<path class="st1" d="M20.2,135.7c-1.8,0-3.6-0.6-5-1.7c-1.3,1-2.9,1.6-4.6,1.7c-2.2,0.1-4.3-0.6-6-2.1c-0.1-0.1-0.3-0.3-0.4-0.4
				c-1-0.2-2-0.7-2.7-1.4c-1-1-1.5-2.2-1.5-3.6c0-1.4,0.5-2.6,1.5-3.6c1-1,2.2-1.5,3.6-1.5c1.8,0,3.6,0.6,5,1.7
				c3.1-2.4,7.6-2.3,10.6,0.4c0.1,0.1,0.3,0.3,0.4,0.4c2.4,0.4,4.2,2.4,4.3,4.9c0.1,2.8-2.2,5.1-5,5.2H20.2z M15.1,128.5l1.4,1.1
				c0.2,0.2,0.4,0.4,0.7,0.6c0.8,0.9,2,1.4,3.2,1.4h0.1c0.5,0,1-0.5,0.9-1c0-0.5-0.4-1-1-0.9l-0.7,0l-0.6-0.4
				c-0.2-0.2-0.5-0.4-0.7-0.6c-0.1-0.2-0.2-0.3-0.4-0.4c-1.7-1.5-4.4-1.4-5.9,0.3l-0.1,0.1c-0.2,0.2-0.4,0.4-0.5,0.4l-1.3,1.2
				l-1.4-1.1c-0.2-0.2-0.4-0.4-0.6-0.6c-0.9-0.9-2-1.4-3.2-1.5c0,0,0,0,0,0c-0.3,0-0.6,0.2-0.7,0.3c-0.1,0.1-0.3,0.3-0.3,0.7
				c0,0.3,0.2,0.6,0.3,0.7s0.3,0.3,0.7,0.3l0.7,0l0.6,0.4c0.2,0.2,0.4,0.4,0.6,0.6l0.1,0.1c0.1,0.1,0.2,0.2,0.3,0.3
				c0.8,0.8,1.9,1.1,3,1.1c1.1-0.1,2.1-0.5,2.9-1.4l0.1-0.1c0.2-0.2,0.4-0.4,0.5-0.4L15.1,128.5z"/>
		</g>
		<g>
			<path class="st0" d="M38.4,161c-1.8,0-3.4-0.8-4.6-2.1c-0.1-0.1-0.3-0.3-0.4-0.4c-0.1,0-0.3,0.2-0.4,0.4
				c-2.3,2.6-6.2,2.8-8.8,0.5c-0.2-0.1-0.3-0.3-0.5-0.5c-0.1-0.1-0.3-0.3-0.4-0.4c-1.7,0-3-1.4-3-3c0-1.7,1.4-3,3-3l0,0
				c1.8,0,3.4,0.8,4.6,2.1c0.1,0.1,0.3,0.3,0.4,0.4c0.1,0,0.3-0.2,0.4-0.4c2.3-2.6,6.2-2.8,8.8-0.5c0.2,0.1,0.3,0.3,0.5,0.5
				c0.1,0.1,0.3,0.3,0.4,0.4c1.7,0,3,1.3,3.1,3c0,1.7-1.3,3-3,3.1C38.5,161,38.5,161,38.4,161L38.4,161z"/>
			<path class="st1" d="M38.4,163c-1.8,0-3.6-0.6-5-1.7c-3.1,2.4-7.6,2.3-10.6-0.4c-0.1-0.1-0.3-0.3-0.4-0.4c-2.4-0.4-4.2-2.5-4.2-5
				c0-2.8,2.3-5.1,5.1-5.1c0,0,0,0,0,0c1.8,0,3.6,0.6,5,1.7c1.3-1,2.9-1.6,4.6-1.7c2.2-0.1,4.3,0.6,6,2.1c0.1,0.1,0.3,0.2,0.4,0.4
				c1,0.2,1.9,0.6,2.7,1.3c1,0.9,1.5,2.2,1.6,3.6c0.1,2.8-2.2,5.1-5,5.2H38.4z M33.3,155.8l1.4,1.1c0.2,0.2,0.5,0.4,0.7,0.6
				c0.8,0.9,2,1.4,3.2,1.4h0.1c0.5,0,1-0.5,0.9-1c0-0.3-0.2-0.6-0.3-0.7c-0.1-0.1-0.4-0.3-0.7-0.3l-0.7,0l-0.6-0.4
				c-0.2-0.2-0.4-0.4-0.7-0.6c-0.1-0.2-0.3-0.3-0.4-0.4c-0.8-0.7-1.9-1.1-3-1.1c-1.1,0.1-2.1,0.5-2.9,1.4l-0.1,0.1
				c-0.2,0.2-0.4,0.4-0.5,0.4l-1.3,1.2l-1.4-1.1c-0.2-0.2-0.4-0.4-0.6-0.5c-0.9-0.9-2-1.5-3.2-1.5c0,0,0,0,0,0c-0.5,0-1,0.4-1,1
				c0,0.5,0.4,1,1,1l0.7,0l0.6,0.4c0.2,0.2,0.4,0.4,0.6,0.6c0.2,0.2,0.3,0.3,0.4,0.4c1.7,1.5,4.4,1.4,5.9-0.3l0.1-0.1
				c0.2-0.2,0.4-0.4,0.5-0.4L33.3,155.8z"/>
		</g>
		<g>
			<path class="st0" d="M156.7,167c-1.8,0-3.4-0.8-4.6-2.1c-0.1-0.1-0.3-0.3-0.4-0.4c-0.1,0-0.3,0.2-0.4,0.4
				c-2.3,2.6-6.2,2.8-8.8,0.5c-0.2-0.1-0.3-0.3-0.5-0.5c-0.1-0.1-0.3-0.3-0.4-0.4c-1.7,0-3-1.4-3-3c0-1.7,1.4-3,3-3
				c1.8,0,3.4,0.8,4.6,2.1c0.1,0.1,0.3,0.3,0.4,0.4c0.1,0,0.3-0.2,0.4-0.4c2.3-2.6,6.2-2.8,8.8-0.5c0.2,0.1,0.3,0.3,0.5,0.5
				c0.1,0.1,0.3,0.3,0.4,0.4c1.7,0,3,1.3,3.1,3c0,1.7-1.3,3-3,3.1C156.8,167,156.8,167,156.7,167L156.7,167z"/>
			<path class="st1" d="M156.7,169.1c-1.8,0-3.6-0.6-5-1.7c-3.1,2.4-7.6,2.3-10.6-0.4c-0.1-0.1-0.3-0.3-0.4-0.4
				c-1-0.2-2-0.7-2.7-1.4c-1-1-1.5-2.2-1.5-3.6c0-1.4,0.5-2.6,1.5-3.6c1-1,2.2-1.5,3.6-1.5c0,0,0,0,0,0c1.8,0,3.6,0.6,5,1.7
				c3.1-2.4,7.6-2.3,10.6,0.4c0.1,0.1,0.3,0.3,0.4,0.4c1,0.2,1.9,0.6,2.7,1.3c1,0.9,1.5,2.2,1.6,3.6c0.1,2.8-2.2,5.1-5,5.2H156.7z
				 M151.6,161.9l1.4,1.1c0.2,0.2,0.4,0.4,0.7,0.6c0.8,0.9,2,1.4,3.2,1.4h0.1c0.5,0,1-0.5,0.9-1c0-0.3-0.2-0.6-0.3-0.7
				c-0.1-0.1-0.4-0.3-0.7-0.3l-0.7,0l-0.6-0.4c-0.2-0.2-0.5-0.4-0.7-0.6c-0.1-0.2-0.2-0.3-0.4-0.4c-1.7-1.5-4.4-1.4-5.9,0.3
				l-0.1,0.1c-0.2,0.2-0.4,0.4-0.4,0.4l-1.3,1.2l-1.4-1.1c-0.2-0.2-0.4-0.4-0.6-0.6c-0.9-0.9-2-1.4-3.2-1.5c0,0,0,0,0,0
				c-0.3,0-0.6,0.2-0.7,0.3c-0.1,0.1-0.3,0.3-0.3,0.7c0,0.3,0.2,0.6,0.3,0.7c0.1,0.1,0.3,0.3,0.7,0.3l0.7,0l0.6,0.4
				c0.2,0.2,0.4,0.4,0.6,0.6c0.2,0.2,0.3,0.3,0.4,0.4c1.7,1.5,4.4,1.4,5.9-0.3l0.1-0.1c0.2-0.2,0.4-0.4,0.5-0.4L151.6,161.9z"/>
		</g>
		<g>
			<path class="st0" d="M168.8,142.8c-1.8,0-3.4-0.8-4.6-2.1c-0.1-0.1-0.3-0.3-0.4-0.4c-0.1,0-0.3,0.2-0.4,0.4
				c-2.3,2.6-6.2,2.8-8.8,0.5c-0.2-0.1-0.3-0.3-0.5-0.5c-0.1-0.1-0.3-0.3-0.4-0.4c-1.7,0-3-1.4-3-3s1.4-3,3-3c1.8,0,3.4,0.8,4.6,2.1
				c0.1,0.1,0.3,0.3,0.4,0.4c0.1,0,0.3-0.2,0.4-0.4c2.3-2.6,6.2-2.8,8.8-0.5c0.2,0.1,0.3,0.3,0.5,0.5c0.1,0.1,0.3,0.3,0.4,0.4
				c1.7,0,3,1.3,3.1,3c0,1.7-1.3,3-3,3.1C168.9,142.8,168.9,142.8,168.8,142.8z"/>
			<path class="st1" d="M168.9,144.8c0,0-0.1,0-0.1,0c-1.8,0-3.6-0.6-5-1.7c-3.1,2.4-7.6,2.3-10.6-0.4c-0.1-0.1-0.3-0.3-0.4-0.4
				c-1-0.2-2-0.7-2.7-1.4c-1-1-1.5-2.2-1.5-3.6c0-1.4,0.5-2.6,1.5-3.6c1-1,2.2-1.5,3.6-1.5c0,0,0,0,0,0c1.8,0,3.6,0.6,5,1.7
				c3.1-2.4,7.6-2.3,10.6,0.4c0.1,0.1,0.3,0.2,0.4,0.4c2.4,0.4,4.2,2.4,4.3,4.9C174,142.4,171.8,144.8,168.9,144.8
				C169,144.8,169,144.8,168.9,144.8z M163.7,137.6l1.4,1.1c0.2,0.2,0.4,0.4,0.6,0.6c0.8,0.9,2,1.4,3.2,1.4l0.1,0c0.5,0,1-0.5,1-1
				c0-0.5-0.4-0.9-1-0.9c0,0,0,0,0,0l-0.7,0l-0.6-0.4c-0.2-0.2-0.4-0.4-0.7-0.6c-0.1-0.2-0.3-0.3-0.4-0.4c-1.7-1.5-4.4-1.4-5.9,0.3
				l-0.5,0.5l-1.3,1.2l-1.4-1.1c-0.2-0.2-0.4-0.4-0.6-0.6c-0.8-0.9-2-1.4-3.2-1.4c0,0,0,0,0,0c-0.3,0-0.6,0.2-0.7,0.3
				c-0.1,0.1-0.3,0.3-0.3,0.7c0,0.3,0.2,0.6,0.3,0.7c0.1,0.1,0.3,0.3,0.7,0.3l0.7,0l0.6,0.4c0.2,0.2,0.4,0.4,0.6,0.6
				c0.2,0.2,0.3,0.3,0.4,0.4c1.7,1.5,4.4,1.4,5.9-0.3l0.1-0.1c0.2-0.2,0.4-0.4,0.4-0.4L163.7,137.6z"/>
		</g>
	</g>
	<g>
		<path class="st3" d="M120.3,46.9l-9.1-42.5c-0.4-1.6-2-2.7-3.6-2.3c-0.8,0.2-1.5,0.6-1.9,1.3L89.8,27.2l-9.5-11.9
			c-0.6-0.8-1.5-1.2-2.5-1.1c-1,0-1.8,0.5-2.4,1.3L41.1,64.1l-6.6-6.6c-1.2-1.2-3.1-1.2-4.3,0c-0.3,0.3-0.5,0.6-0.6,0.9L17.5,85.7
			c-0.7,1.5,0,3.3,1.5,4c0.1,0,0.1,0,0.2,0.1c6.9,2.6,34.1,3.2,37.2,3.2h0.1c0.8,0,1.5-0.3,2.1-0.9l19.3-18.7l11.4,2.8
			c1,0.2,2.1,0,2.8-0.7l27.3-25.8C120.1,49,120.5,47.9,120.3,46.9z"/>
		<path class="st1" d="M56.4,95.1L56.4,95.1c-5.2-0.1-30.9-0.7-38-3.4c-0.1,0-0.2-0.1-0.3-0.1c-1.2-0.6-2.2-1.6-2.7-2.8
			c-0.5-1.3-0.5-2.7,0.1-3.9l12.1-27.3c0.3-0.6,0.6-1.1,1.1-1.5c2-2,5.2-2,7.2,0l4.8,4.8l32.9-46.6c0.9-1.3,2.4-2.1,4-2.2
			c1.6-0.1,3.2,0.6,4.2,2l7.7,9.7L104,2.3c0.7-1.1,1.9-1.9,3.2-2.2c2.7-0.6,5.5,1.2,6,3.9l9.1,42.5v0c0.4,1.7-0.2,3.5-1.5,4.8
			L93.5,77c-1.3,1.2-3,1.7-4.7,1.2l-10.3-2.5L60,93.6C59,94.6,57.8,95.1,56.4,95.1L56.4,95.1z M32.4,58.7c-0.3,0-0.5,0.1-0.7,0.3
			c-0.1,0.1-0.2,0.2-0.2,0.3L19.4,86.6c-0.1,0.3-0.1,0.6,0,0.8c0.1,0.1,0.2,0.4,0.5,0.5c5.4,2,25.5,2.9,36.6,3.1
			c0.3,0,0.5-0.1,0.7-0.3l20.1-19.5l12.5,3.1c0.3,0.1,0.7,0,0.9-0.2L118,48.3c0.2-0.2,0.4-0.6,0.3-0.9l-9.1-42.5
			c-0.1-0.3-0.3-0.5-0.4-0.6c-0.1-0.1-0.4-0.2-0.7-0.1c-0.3,0.1-0.5,0.2-0.6,0.4L89.9,30.7L78.6,16.6c-0.2-0.3-0.5-0.4-0.7-0.4
			c-0.4,0-0.7,0.2-0.8,0.4L41.3,67.3L33.1,59C32.9,58.8,32.6,58.7,32.4,58.7z"/>
	</g>
	<g>
		<path class="st4" d="M107.8,93.5c-0.5-0.8-1.4-1.4-2.4-1.5L41.7,87c-1.7-0.1-3.1,1.1-3.3,2.8c0,0.5,0,1,0.3,1.5l15.2,33.4
			c0.7,1.5,2.5,2.2,4,1.5c0.5-0.2,0.9-0.5,1.2-0.9l5.8-7.7l5.1,13.4c0.1,0.3,0.3,0.6,0.5,0.8l0.5,0.6c1,1.2,2.7,1.5,4,0.7l22.7-14.2
			c0.5-0.3,0.9-0.8,1.2-1.4l9.1-21.2C108.3,95.4,108.3,94.3,107.8,93.5L107.8,93.5z"/>
		<path class="st1" d="M73.3,135.5c-1.5,0-3-0.7-4-1.9l-0.5-0.6c-0.3-0.4-0.6-0.9-0.8-1.4l-3.8-10l-3.6,4.7c-0.5,0.7-1.2,1.2-2,1.6
			c-2.6,1.2-5.6,0-6.7-2.5L36.8,92.1c-0.4-0.8-0.5-1.6-0.4-2.5c0.2-2.8,2.7-4.9,5.5-4.7l63.7,5.1c1.6,0.1,3.1,1,4,2.4l0,0
			c0.8,1.4,1,3.1,0.3,4.6l-9.1,21.2c-0.4,1-1.1,1.8-2,2.3L76,134.8C75.2,135.3,74.2,135.5,73.3,135.5z M65.5,113.2l6.4,16.9
			c0,0.1,0.1,0.2,0.2,0.3l0.5,0.6c0.3,0.4,0.9,0.5,1.3,0.2l22.7-14.2c0.2-0.1,0.3-0.3,0.4-0.4l9.1-21.2c0.1-0.3,0.1-0.6-0.1-0.9
			c-0.2-0.3-0.4-0.4-0.8-0.5L41.6,89c-0.5,0-1,0.4-1.1,0.9c0,0.2,0,0.3,0.1,0.5l15.2,33.4c0.1,0.3,0.4,0.5,0.5,0.5
			c0.1,0.1,0.4,0.1,0.8,0c0.1-0.1,0.3-0.2,0.4-0.3L65.5,113.2z"/>
	</g>
	<g>
		<path class="st5" d="M171.5,88.5l-15.2-27.3c-0.8-1.5-2.7-2-4.1-1.2c-0.2,0.1-0.5,0.3-0.7,0.5l-2.8,2.8l-13.5-35.1
			c-0.6-1.6-2.4-2.3-3.9-1.7c-0.5,0.2-0.9,0.5-1.2,0.9l-15,18.1L87.9,71.1c-0.9,0.8-1.2,2.1-0.8,3.2L94.5,95c0.4,1.1,1.4,1.9,2.6,2
			c1.2,0.1,30.6-0.8,30.6-0.8s34.8,0.8,42.5-3.5C171.8,91.8,172.3,90,171.5,88.5L171.5,88.5z"/>
		<path class="st1" d="M97.4,99.1c-0.2,0-0.3,0-0.4,0c-2-0.1-3.7-1.5-4.4-3.4L85.2,75c-0.7-1.9-0.2-4,1.3-5.4l27.1-25.6l15-18
			c0.6-0.7,1.3-1.2,2.1-1.5c1.3-0.5,2.6-0.5,3.9,0.1c1.2,0.6,2.2,1.6,2.7,2.8l12.4,32.1l0.5-0.5c0.3-0.3,0.7-0.6,1.1-0.8
			c2.5-1.4,5.6-0.5,6.9,2l15.2,27.3c1.4,2.4,0.5,5.5-2,6.9c-8,4.5-39.7,3.9-43.5,3.8C121.2,98.4,100.8,99.1,97.4,99.1z M132.5,28.4
			c-0.1,0-0.2,0-0.3,0.1c-0.2,0.1-0.3,0.2-0.4,0.3L116.5,47L89.3,72.6c-0.3,0.3-0.4,0.7-0.3,1l7.4,20.7c0.1,0.4,0.5,0.6,0.9,0.6
			c1.1,0.1,18.8-0.5,30.4-0.8l0.1,0l0.1,0c9.5,0.2,35.5,0.1,41.5-3.3c0.5-0.3,0.6-0.9,0.4-1.3l0,0l-15.2-27.3
			c-0.3-0.5-0.9-0.6-1.3-0.4c-0.1,0-0.2,0.1-0.2,0.2l-5,5l-14.6-38c-0.1-0.3-0.4-0.5-0.5-0.5C132.8,28.4,132.6,28.4,132.5,28.4z"/>
	</g>
	<g>
		<path class="st6" d="M99.9,92l-7.1-19.7c-0.3-0.8-0.9-1.5-1.8-1.8l-11.6-4.5c-1.1-0.4-2.3-0.2-3.1,0.6L53.1,87.8
			c-1.2,1.1-1.3,3-0.2,4.3c0.5,0.6,1.2,0.9,2,1l42,3c0.1,0,0.1,0,0.2,0c1.7,0,3-1.4,3-3C100.1,92.7,100,92.3,99.9,92L99.9,92z"/>
		<path class="st1" d="M97.1,98.1c-0.1,0-0.2,0-0.3,0l-42-3c-1.3-0.1-2.5-0.7-3.4-1.6c-1.9-2.1-1.7-5.3,0.3-7.2L74.9,65
			c1.4-1.3,3.5-1.7,5.3-1l11.6,4.5c1.4,0.5,2.4,1.6,2.9,3l7.1,19.7c0.2,0.6,0.3,1.1,0.3,1.7c0,1.4-0.5,2.6-1.5,3.6
			C99.7,97.6,98.4,98.1,97.1,98.1z M78.4,67.8c-0.2,0-0.5,0.1-0.7,0.3L54.5,89.3c-0.4,0.4-0.4,1-0.1,1.4c0.2,0.2,0.4,0.3,0.7,0.3
			l42,3h0c0.4,0,0.6-0.2,0.7-0.3c0.1-0.1,0.3-0.3,0.3-0.7c0-0.1,0-0.2-0.1-0.3l0,0L90.9,73c-0.1-0.3-0.3-0.5-0.6-0.6l-11.6-4.6
			C78.6,67.8,78.5,67.8,78.4,67.8z"/>
	</g>
	<g>
		<path class="st7" d="M123.7,97.8c-20.2,0-40.1-1.7-58.7-3.3c-23.7-2-44.1-3.8-59.5-1.5c-1.7,0.2-3.2-0.9-3.4-2.6
			C1.8,88.8,3,87.2,4.6,87c16.1-2.4,36.9-0.6,60.9,1.4c33.9,2.9,72.3,6.2,108.7-1.4c1.6-0.4,3.3,0.7,3.6,2.3s-0.7,3.3-2.3,3.6
			c0,0-0.1,0-0.1,0C158.5,96.3,141.1,97.9,123.7,97.8L123.7,97.8z"/>
		<path class="st1" d="M126.3,99.8c-0.9,0-1.7,0-2.6,0c-20.3,0-39.8-1.7-58.7-3.3l-0.1,0c-23.6-2-43.9-3.7-59-1.5
			c-2.8,0.4-5.4-1.5-5.8-4.3C-0.4,88,1.6,85.4,4.3,85c16.3-2.4,37.2-0.6,61.4,1.4c33.8,2.9,72,6.1,108.2-1.4
			c1.3-0.3,2.7-0.1,3.8,0.7c1.1,0.7,1.9,1.9,2.2,3.2c0.3,1.3,0.1,2.7-0.7,3.8c-0.7,1.1-1.9,1.9-3.2,2.2l-0.2,0
			C159.6,98.2,142.9,99.8,126.3,99.8z M22.7,89.9c12.4,0,26.7,1.2,42.4,2.6l0.2,0c18.8,1.6,38.3,3.3,58.4,3.3h0
			c17.2,0.2,34.5-1.4,51.4-4.7c0.4-0.1,0.6-0.3,0.7-0.4c0.1-0.1,0.2-0.4,0.1-0.7c-0.1-0.3-0.3-0.5-0.4-0.6c-0.1-0.1-0.4-0.2-0.7-0.1
			c-36.8,7.6-75.3,4.3-109.3,1.4c-24-2-44.6-3.8-60.5-1.4c-0.5,0.1-0.9,0.6-0.8,1.1C4.2,90.7,4.7,91,5.2,91
			C10.5,90.2,16.4,89.9,22.7,89.9z"/>
	</g>
</g>
</svg>
