<?xml version="1.0" encoding="utf-8"?>
<!-- Generator: Adobe Illustrator 25.0.0, SVG Export Plug-In . SVG Version: 6.00 Build 0)  -->
<svg version="1.1" id="Layer_1" xmlns="http://www.w3.org/2000/svg" xmlns:xlink="http://www.w3.org/1999/xlink" x="0px" y="0px"
	 viewBox="0 0 234.6 180" style="enable-background:new 0 0 234.6 180;" xml:space="preserve">
<style type="text/css">
	.st0{fill:#76A2E2;}
	.st1{fill:#668EBF;}
	.st2{fill:#FD8AA0;}
	.st3{fill:#FD7791;}
	.st4{fill:#35414D;}
	.st5{fill:#CCB266;}
	.st6{fill:#FFE07D;}
</style>
<g>
	<g>
		<g>
			<path class="st0" d="M102.8,53.5c19.1,46.2,49.4,39,83.5,57.6l5.2-10l-81.3-53.7C106.1,44.8,101,49,102.8,53.5z"/>
		</g>
		<g>
			<path class="st1" d="M153.5,98.1l5.6-18.3L135,63.9l-0.3,26.8C140.6,93.7,146.9,95.9,153.5,98.1L153.5,98.1z"/>
		</g>
		<g>
			<path class="st1" d="M191.5,101.2l-13.7-9c-3.3,3.4-5.6,7.4-7,11.9c5,1.9,10.2,4.2,15.4,7.1L191.5,101.2z"/>
		</g>
		<g>
			<path class="st2" d="M188.1,136c11.4,11.7,28.5,13.6,38,4.2c9.6-9.4,8-26.4-3.4-38.1c-11.4-11.7-28.5-13.6-38-4.2
				C175.1,107.3,176.6,124.3,188.1,136z M194.5,107.9c3.4-3.4,11.8-2.6,18.2,4c6.4,6.6,7.1,14.9,3.6,18.3c-3.4,3.4-11.8,2.6-18.2-4
				C191.7,119.6,191,111.3,194.5,107.9z"/>
		</g>
		<g>
			<path class="st3" d="M203.6,145.2c8.3,2.2,16.8,0.6,22.5-5c9.6-9.4,8-26.4-3.4-38.1c-7.1-7.3-16.4-10.7-24.7-10.1
				c5,4.6,8.8,10.5,11,16.9c1.3,0.8,2.5,1.8,3.7,3c6.4,6.6,7.1,14.9,3.6,18.3c-1.5,1.4-3.8,2.1-6.5,1.9c-0.1,0.5-0.3,1-0.4,1.5
				C208,137.8,206.1,141.7,203.6,145.2z"/>
		</g>
		<g>
			<path class="st4" d="M213.9,148.2c-1.1,0-2.1-0.8-2.2-1.9c-0.2-1.2,0.7-2.3,1.9-2.5c4.3-0.5,8-2.3,10.9-5.1
				c4.1-4.1,6.1-9.9,5.5-16.4c-0.6-6.7-3.8-13.3-9-18.6c-10.6-10.8-26.2-12.7-34.9-4.2c-8.7,8.5-7.1,24.2,3.4,35
				c4.5,4.6,10.2,7.8,16,9c1.2,0.2,2,1.4,1.7,2.6c-0.2,1.2-1.4,2-2.6,1.7c-6.7-1.4-13.2-5-18.3-10.2c-12.3-12.5-13.8-31-3.4-41.3
				c10.4-10.2,28.9-8.3,41.2,4.2c5.9,6,9.5,13.6,10.2,21.3c0.7,7.9-1.7,15-6.8,20c-3.6,3.5-8.2,5.7-13.5,6.4
				C214.1,148.2,214,148.2,213.9,148.2z M210.6,134.3c-4.4,0-9.6-2-14.1-6.6c-7.4-7.6-7.9-17.2-3.6-21.4l0,0
				c4.3-4.2,13.9-3.6,21.3,4c3.3,3.4,5.5,7.5,6.1,11.5c0.7,4.1-0.3,7.7-2.5,9.9C216.1,133.4,213.5,134.3,210.6,134.3z M196,109.5
				c-2.4,2.3-2.1,9.2,3.6,15.1c5.8,5.9,12.7,6.3,15.1,4c1.2-1.2,1.7-3.4,1.3-6c-0.5-3.2-2.2-6.4-4.9-9.1
				C205.3,107.5,198.4,107.2,196,109.5L196,109.5z"/>
		</g>
		<g>
			<path class="st4" d="M143.5,96.8c-0.3,0-0.5-0.1-0.8-0.2c-17.5-6.8-31.3-16.6-41.9-42.3c-1.2-3-0.4-6.2,2.1-8.3
				c2.5-2,5.8-2.2,8.5-0.4l10,6.6c1,0.7,1.3,2,0.6,3.1c-0.7,1-2,1.3-3.1,0.6l-10-6.6c-1.6-1-2.9-0.1-3.2,0.2
				c-0.8,0.6-1.4,1.8-0.8,3.2c9.4,22.7,21.4,32.2,36.4,38.6l0.2-20.4l-15.4-10.2c-1-0.7-1.3-2-0.6-3.1c0.7-1,2.1-1.3,3.1-0.6
				L145,67.9c0.6,0.4,1,1.1,1,1.9l-0.3,24.9c0,0.7-0.4,1.4-1,1.8C144.4,96.7,143.9,96.8,143.5,96.8z"/>
		</g>
		<g>
			<path class="st4" d="M179.1,109.8c-0.3,0-0.6-0.1-0.9-0.2c-6.7-3.1-13.3-5.3-18.9-7.2c-1.1-0.4-1.8-1.6-1.4-2.7
				c0.3-1.1,0.6-2.3,0.9-3.4c1.3-4.6,2.6-9,3.6-13.4c0.2-0.7,0.7-1.3,1.3-1.6c0.7-0.3,1.4-0.2,2,0.2l20.9,13.8c0.6,0.4,0.9,1,1,1.7
				c0,0.7-0.2,1.4-0.7,1.8c-0.2,0.2-0.5,0.4-0.7,0.6c-2.4,2.3-4.1,5.3-4.9,8.7c-0.2,0.6-0.6,1.2-1.2,1.4
				C179.8,109.7,179.4,109.8,179.1,109.8z M162.7,98.8c4.6,1.5,9.7,3.4,15,5.7c1-2.6,2.4-4.9,4.2-7L166,87
				c-0.9,3.5-1.8,6.9-2.9,10.5C163,98,162.8,98.4,162.7,98.8z"/>
		</g>
	</g>
	<g>
		<g>
			<g>
				<path class="st5" d="M149.6,73.1h-137c-5.5,0-10-4.5-10-10V12.6c0-5.5,4.5-10,10-10h137c5.5,0,10,4.5,10,10v50.5
					C159.6,68.7,155.2,73.1,149.6,73.1z"/>
			</g>
			<g>
				<path class="st4" d="M144.9,75.8H17.3C7.8,75.8,0,68,0,58.5V17.3C0,7.8,7.8,0,17.3,0h127.6c9.5,0,17.3,7.8,17.3,17.3v41.1
					C162.3,68,154.5,75.8,144.9,75.8z M17.3,5.2c-6.7,0-12.1,5.4-12.1,12.1v41.1c0,6.7,5.4,12.1,12.1,12.1h127.6
					c6.7,0,12.1-5.4,12.1-12.1V17.3c0-6.7-5.4-12.1-12.1-12.1H17.3z"/>
			</g>
		</g>
		<g>
			<g>
				<path class="st6" d="M169.9,73.1h-137c-5.5,0-10-4.5-10-10V12.6c0-5.5,4.5-10,10-10h137c5.5,0,10,4.5,10,10v50.5
					C179.9,68.7,175.4,73.1,169.9,73.1z"/>
			</g>
			<g>
				<path class="st4" d="M165.2,75.8H37.5c-9.5,0-17.3-7.8-17.3-17.3V17.3C20.2,7.8,28,0,37.5,0h127.6c9.5,0,17.3,7.8,17.3,17.3
					v41.1C182.5,68,174.7,75.8,165.2,75.8z M37.5,5.2c-6.7,0-12.1,5.4-12.1,12.1v41.1c0,6.7,5.4,12.1,12.1,12.1h127.6
					c6.7,0,12.1-5.4,12.1-12.1V17.3c0-6.7-5.4-12.1-12.1-12.1H37.5z"/>
			</g>
		</g>
		<g>
			<g>
				<g>
					<path class="st4" d="M81.1,54.6c-3.2,0-5.1-0.3-5.4-0.9L70.9,46l-0.1-0.1C70.5,45.3,70,45,69.5,45c-0.1,0-0.2,0-0.3,0
						c-0.6,0.1-1.1,0.7-1.1,1.3c0,0.4-0.3,5.6-0.4,6.1c0,0.8-0.2,1.4-0.4,1.7c0,0,0,0,0,0H62c-0.5,0-1.4-0.3-1.4-0.8
						c-0.1-11.2-0.1-25.7-0.2-31.1c0,0,0,0,0,0c2.9-0.4,3.6-0.5,3.8-0.5c0.1,0,0.2,0,0.4,0c0.4,0,1.1,0,1.4,0c0.2,0,0.6,0,1,0
						c0.3,0,0.6,0,0.8,0c0.2,0,0.3,0.1,0.3,0.6c0,1.2-0.1,2.5-0.1,3.7c-0.1,1.3-0.2,2.6-0.2,3.9l0,0.6c0,0.6,0.3,1.2,0.9,1.4
						c0.2,0.1,0.4,0.1,0.6,0.1c0.5,0,1.1-0.3,1.3-0.8l3.7-7.6c1.1-2.2,2.2-2.5,3.1-2.5h0.6c0,0,0,0,0,0c0.5,0.1,2.1,0.4,2.5,0.5
						c0.1,0,0.1,0,0.2,0c0.2,0,0.8,0.2,1.2,0.3c0.4,0.1,0.9,0.2,1.1,0.3c0.2,0.1,0.3,0.2,0.4,0.2c0,0.2,0,0.3,0,0.3L75,37.6
						c-0.1,0.2-0.2,0.5-0.2,0.7v0.2c0,0.3,0.1,0.7,0.3,0.9c0.8,1,4.4,5.6,5.1,6.5c0.2,0.3,1.4,2.1,1.7,2.7c0,0,0,0,0,0
						c0.3,0.5,1.4,2.9,1.7,3.6c0,0,0,0.1,0,0.1c0.1,0.3,0.3,0.8,0.3,1.1c0,0.5-0.3,1-0.9,1.2c0,0,0,0,0,0H81.1z"/>
				</g>
			</g>
			<g>
				<g>
					<path class="st4" d="M98.8,53.8c-2.7,0-3.5-0.5-4-2.6c-0.1-0.7-0.6-2.8-0.7-3.4c0,0,0,0,0,0l-3.1-25.3v-0.3
						c0.2-0.1,0.8-0.3,2.2-0.3c0.4,0,0.7,0,1,0c0.2,0,0.4,0,0.6,0c4.5,0,4.6,1.9,4.6,2.8l0.8,15.5c0,0.7,0.6,1.3,1.2,1.4
						c0.1,0,0.1,0,0.2,0c0.6,0,1.2-0.4,1.4-1c0.2-0.6,1.4-3.4,2-4.7l0.3-0.8c1.3-2.9,2-3.6,5.1-3.6h1.3c0,0,0,0,0,0
						c0.7,0.2,1.5,0.6,2.1,2.3c0.1,0.4,0.4,1.3,0.7,2.3c0.5,1.5,1,3.2,1.2,3.9c0.1,0.2,0.2,0.5,0.4,1c0.3,0.5,0.8,0.9,1.4,0.8
						c0,0,0,0,0,0c0.6,0,1.1-0.4,1.3-0.9l0.2-0.4c0-0.1,0-0.1,0.1-0.2c3.1-14,4.4-18.9,6.7-18.9c0.8,0,4.9,0.1,4.9,2.6
						c0,0.8,0,1.1-0.3,2L124,48.8l-0.2,0.6l0,0.1c-0.6,2.2-1.2,4.1-2.5,4.1c-1.5,0-3.1-0.1-4.3-0.1c-1.4-0.1-1.7-0.4-1.8-0.4
						c0,0,0,0,0,0l-5-7.3c-0.1-0.1-0.2-0.2-0.3-0.3l-0.4-0.3c-0.3-0.2-0.6-0.3-0.9-0.3c-0.1,0-0.3,0-0.4,0.1
						c-0.4,0.1-0.8,0.4-0.9,0.8c-0.1,0.2-0.4,0.7-0.6,0.9c0,0,0,0.1-0.1,0.1c-0.4,0.8-2.3,4.2-2.7,4.9
						C103,53.4,101.3,53.8,98.8,53.8z"/>
				</g>
			</g>
		</g>
	</g>
	<g>
		<g>
			<path class="st0" d="M144.2,29.4l-1.1,97.5l11.2,1.3c3.6-38.7,26.6-59.8-1-101.4C150.6,22.6,144.3,24.5,144.2,29.4z"/>
		</g>
		<g>
			<path class="st1" d="M143.3,110.5l-0.2,16.4l11.2,1.3c0.6-5.9,1.6-11.5,2.8-16.7c0,0-0.1,0-0.1,0
				C152.5,110,147.9,109.7,143.3,110.5z"/>
		</g>
		<g>
			<path class="st2" d="M126.4,153.2c3.3,16,16.5,26.9,29.7,24.2c13.1-2.7,21.1-17.8,17.8-33.9c-3.3-16-16.5-26.9-29.7-24.2
				C131.1,122,123.1,137.2,126.4,153.2z M147,133.1c4.7-1,11.3,4.2,13.1,13.2c1.8,9-2.2,16.3-6.9,17.3c-4.7,1-11.3-4.2-13.1-13.2
				C138.3,141.4,142.3,134.1,147,133.1z"/>
		</g>
		<g>
			<path class="st3" d="M132.8,167.4c5.9,7.6,14.6,11.7,23.3,10c13.1-2.7,21.1-17.8,17.8-33.9c-1.9-9.2-7-16.6-13.5-20.8
				c0.9,5.9,0.6,12-1.3,18.1c-0.1,0.4-0.2,0.7-0.4,1.1c0.6,1.3,1.1,2.8,1.4,4.4c1.8,9-2.2,16.3-6.9,17.3c-2.4,0.5-5.3-0.6-7.7-3
				C141.7,163.6,137.4,165.9,132.8,167.4z"/>
		</g>
		<g>
			<path class="st4" d="M152,180c-5.5,0-11.1-2.1-15.9-6c-6-4.9-10.2-12.1-11.9-20.4c-1.7-8.3-0.6-16.6,3-23.4
				c3.7-7,9.6-11.6,16.6-13.1c7-1.4,14.2,0.5,20.4,5.5c6,4.9,10.2,12.1,11.9,20.4c1.7,8.3,0.6,16.6-3,23.4
				c-3.7,7-9.6,11.6-16.6,13.1C155,179.8,153.5,180,152,180z M148.3,121.1c-1.2,0-2.4,0.1-3.6,0.4c-5.7,1.2-10.5,5-13.5,10.8
				c-3.1,5.9-4,13.2-2.6,20.5l0,0c1.5,7.3,5.2,13.6,10.4,17.8c5.1,4.1,11,5.8,16.7,4.6c5.7-1.2,10.5-5,13.5-10.8
				c3.1-5.9,4-13.2,2.6-20.5c-1.5-7.3-5.2-13.6-10.4-17.8C157.3,122.9,152.8,121.1,148.3,121.1z M152.1,165.9
				c-5.6,0-12.2-5.6-14.1-15.1c-2.1-10.4,2.7-18.7,8.6-19.9h0c5.9-1.2,13.6,4.5,15.7,15c2.1,10.4-2.7,18.7-8.6,19.9
				C153.2,165.9,152.6,165.9,152.1,165.9z M147.5,135.3c-3.3,0.7-6.8,6.6-5.2,14.7c1.7,8.1,7.2,12.2,10.5,11.5
				c3.3-0.7,6.8-6.6,5.2-14.7C156.3,138.7,150.7,134.6,147.5,135.3L147.5,135.3z"/>
		</g>
		<g>
			<path class="st4" d="M155.4,122.4c-0.3,0-0.5,0-0.7-0.1c-3.3-1.2-6.6-1.4-9.9-0.8c-0.3,0.1-0.6,0.1-0.9,0.2
				c-0.7,0.2-1.4,0-1.9-0.4c-0.5-0.4-0.9-1.1-0.8-1.8l1-90.2c0-3.2,2.1-5.9,5.1-6.8c3.1-0.9,6.2,0.2,8,2.9c19.8,30,14.3,49.5,7.9,72
				c-2.1,7.3-4.2,14.8-5.6,23c-0.1,0.6-0.5,1.2-1.1,1.5C156.1,122.3,155.7,122.4,155.4,122.4z M148.3,116.7c1.8,0,3.6,0.2,5.3,0.6
				c1.4-7.5,3.3-14.4,5.2-21c6.1-21.5,11.4-40.1-7.3-68.4c-0.8-1.3-2.1-1.4-3.1-1.1c-0.5,0.1-1.9,0.7-2,2.6l0,0l-1,87.5
				C146.4,116.8,147.3,116.7,148.3,116.7z M144.2,29.4L144.2,29.4L144.2,29.4z"/>
		</g>
	</g>
</g>
</svg>
