<svg width="216" height="180" viewBox="0 0 216 180" fill="none" xmlns="http://www.w3.org/2000/svg">
<g clip-path="url(#clip0_836_5763)">
<path d="M17.1 2.30005H141.4C149.6 2.30005 156.2 8.90005 156.2 17.1V141.4C156.2 149.6 149.6 156.2 141.4 156.2H17.1C8.89999 156.2 2.29999 149.6 2.29999 141.4V17.1C2.29999 9.00005 8.99999 2.30005 17.1 2.30005Z" fill="#F5F5F5"/>
<path d="M156.2 17.1V35.6H2.29999V17.1C2.29999 9.00005 8.99999 2.30005 17.1 2.30005H141.4C149.6 2.30005 156.2 9.00005 156.2 17.1Z" fill="#FD646F"/>
<path d="M19.6 23.2999C21.6434 23.2999 23.3 21.6434 23.3 19.5999C23.3 17.5564 21.6434 15.8999 19.6 15.8999C17.5565 15.8999 15.9 17.5564 15.9 19.5999C15.9 21.6434 17.5565 23.2999 19.6 23.2999Z" fill="white"/>
<path d="M59 23.2999C61.0434 23.2999 62.7 21.6434 62.7 19.5999C62.7 17.5564 61.0434 15.8999 59 15.8999C56.9565 15.8999 55.3 17.5564 55.3 19.5999C55.3 21.6434 56.9565 23.2999 59 23.2999Z" fill="white"/>
<path d="M39.3 23.2999C41.3435 23.2999 43 21.6434 43 19.5999C43 17.5564 41.3435 15.8999 39.3 15.8999C37.2566 15.8999 35.6 17.5564 35.6 19.5999C35.6 21.6434 37.2566 23.2999 39.3 23.2999Z" fill="white"/>
<path d="M137.7 15.8999H118C116 15.8999 114.3 17.5999 114.3 19.5999C114.3 21.5999 116 23.2999 118 23.2999H137.7C139.7 23.2999 141.4 21.5999 141.4 19.5999C141.4 17.5999 139.8 15.8999 137.7 15.8999Z" fill="white"/>
<path d="M66 69.1001C62.9 56.6001 50.3 48.9001 37.7 51.9001C25.1 54.9001 17.5 67.7001 20.5 80.2001C23.5 92.7001 36.2 100.4 48.8 97.4001C57.3 95.3001 63.9 88.7001 66 80.2001H107.9V86.4001C107.9 88.4001 109.6 90.1001 111.6 90.1001H123.9C125.9 90.1001 127.6 88.4001 127.6 86.4001V80.2001H135C137 80.2001 138.7 78.5001 138.7 76.5001V72.8001C138.7 70.8001 137 69.1001 135 69.1001H66ZM43.3 87.2001C36.4 87.2001 30.8 81.6001 30.8 74.7001C30.8 67.8001 36.4 62.2001 43.3 62.2001C50.2 62.2001 55.8 67.8001 55.8 74.7001C55.8 81.6001 50.2 87.2001 43.3 87.2001Z" fill="#FFB300"/>
<path d="M134.7 122H94C93 122 92.2 121.2 92.2 120.2V115.3C92.2 114.3 93 113.5 94 113.5H134.6C135.6 113.5 136.4 114.3 136.4 115.3V120.2C136.5 121.2 135.7 122 134.7 122Z" fill="#BDBDBD"/>
<path d="M134.7 141.7H94C93 141.7 92.2 140.9 92.2 139.9V135C92.2 134 93 133.2 94 133.2H134.6C135.6 133.2 136.4 134 136.4 135V139.9C136.5 140.9 135.7 141.7 134.7 141.7Z" fill="#BDBDBD"/>
<path d="M141.4 0.5H17.1C7.9 0.5 0.5 7.9 0.5 17.1V141.4C0.5 150.6 7.9 158 17.1 158H141.4C150.6 158 158 150.6 158 141.4V17.1C158 7.9 150.6 0.5 141.4 0.5ZM154.4 141.4C154.4 148.5 148.6 154.3 141.5 154.3H17.1C10 154.3 4.2 148.5 4.2 141.4V37.4H154.4V141.4ZM154.4 33.7H4.2V17.1C4.2 10 10 4.2 17.1 4.2H141.4C148.5 4.2 154.3 10 154.3 17.1V33.7H154.4Z" fill="#35414D"/>
<path d="M17.1 158.6C7.7 158.6 0 150.9 0 141.5V17.1C0 7.7 7.7 0 17.1 0H141.4C150.8 0 158.5 7.7 158.5 17.1V141.4C158.5 150.8 150.8 158.5 141.4 158.5H17.1V158.6ZM17.1 1C8.2 1 1 8.2 1 17.1V141.4C1 150.3 8.2 157.5 17.1 157.5H141.4C150.3 157.5 157.5 150.3 157.5 141.4V17.1C157.5 8.2 150.3 1 141.4 1H17.1ZM17.1 154.9C9.7 154.9 3.7 148.9 3.7 141.5V36.9H154.9V141.4C154.9 148.8 148.9 154.8 141.5 154.8H17.1V154.9ZM4.7 37.9V141.4C4.7 148.2 10.3 153.8 17.1 153.8H141.4C148.2 153.8 153.8 148.2 153.8 141.4V37.9H4.7ZM154.9 34.2H3.7V17.1C3.7 9.7 9.7 3.7 17.1 3.7H141.4C148.8 3.7 154.8 9.7 154.8 17.1V34.2H154.9ZM4.7 33.2H153.9V17.1C153.9 10.3 148.3 4.7 141.5 4.7H17.1C10.3 4.7 4.7 10.3 4.7 17.1V33.2Z" fill="#35414D"/>
<path d="M19.6 14C16.5 14 14.1 16.5 14.1 19.5C14.1 22.5 16.6 25 19.6 25C22.6 25 25.1 22.5 25.1 19.5C25.1 16.5 22.6 14 19.6 14ZM19.6 21.4C18.6 21.4 17.8 20.6 17.8 19.6C17.8 18.6 18.6 17.8 19.6 17.8C20.6 17.8 21.4 18.6 21.4 19.6C21.4 20.6 20.6 21.4 19.6 21.4Z" fill="#35414D"/>
<path d="M59 14C55.9 14 53.5 16.5 53.5 19.5C53.5 22.5 56 25 59 25C62.1 25 64.5 22.5 64.5 19.5C64.5 16.5 62 14 59 14ZM59 21.4C58 21.4 57.2 20.6 57.2 19.6C57.2 18.6 58 17.8 59 17.8C60 17.8 60.8 18.6 60.8 19.6C60.8 20.6 60 21.4 59 21.4Z" fill="#35414D"/>
<path d="M39.3 14C36.2 14 33.8 16.5 33.8 19.5C33.8 22.5 36.3 25 39.3 25C42.4 25 44.8 22.5 44.8 19.5C44.8 16.5 42.3 14 39.3 14ZM39.3 21.4C38.3 21.4 37.5 20.6 37.5 19.6C37.5 18.6 38.3 17.8 39.3 17.8C40.3 17.8 41.1 18.6 41.1 19.6C41.1 20.6 40.3 21.4 39.3 21.4Z" fill="#35414D"/>
<path d="M137.7 14H118C114.9 14 112.5 16.5 112.5 19.5C112.5 22.5 115 25 118 25H137.7C140.8 25 143.2 22.5 143.2 19.5C143.2 16.5 140.8 14 137.7 14ZM137.7 21.4H118C117 21.4 116.2 20.6 116.2 19.6C116.2 18.6 117 17.8 118 17.8H137.7C138.7 17.8 139.5 18.6 139.5 19.6C139.5 20.6 138.8 21.4 137.7 21.4Z" fill="#35414D"/>
<path d="M43.3 89C51.2 89 57.7 82.5999 57.7 74.5999C57.7 66.5999 51.3 60.2 43.3 60.2C35.3 60.2 28.9 66.5999 28.9 74.5999C28.9 82.5999 35.3 89 43.3 89ZM43.3 64C49.2 64 54 68.7999 54 74.6999C54 80.5999 49.2 85.4 43.3 85.4C37.4 85.4 32.6 80.5999 32.6 74.6999C32.6 68.7999 37.4 64 43.3 64Z" fill="#35414D"/>
<path d="M43.3 99.8999C54.4 99.8999 64.2 92.5999 67.4 82.0999H106V86.3999C106 89.4999 108.5 91.8999 111.5 91.8999H123.8C126.9 91.8999 129.3 89.3999 129.3 86.3999V81.9999H134.8C137.9 81.9999 140.3 79.4999 140.3 76.4999V72.7999C140.3 69.6999 137.8 67.2999 134.8 67.2999H67.4C63.3 53.9999 49.2 46.4999 35.9 50.4999C26.3 53.3999 19.4 61.7999 18.2 71.6999C16.4 86.3999 28.5 99.9999 43.3 99.8999ZM21.9 72.1999C23.3 60.3999 33.9 51.8999 45.8 53.2999C54.8 54.2999 62.1 60.7999 64.2 69.5999C64.4 70.3999 65.1 70.9999 66 70.9999H135C136 70.9999 136.8 71.7999 136.8 72.7999V76.4999C136.8 77.4999 136 78.2999 135 78.2999H127.6C126.6 78.2999 125.8 79.0999 125.8 80.0999V86.2999C125.8 87.2999 125 88.0999 124 88.0999H111.7C110.7 88.0999 109.9 87.2999 109.9 86.2999V80.0999C109.9 79.0999 109.1 78.2999 108.1 78.2999H66C65.1 78.2999 64.4 78.8999 64.2 79.6999C61.8 89.2999 53.2 96.0999 43.3 96.0999C31.3 95.9999 21.6 86.0999 21.8 73.9999C21.8 73.4999 21.8 72.7999 21.9 72.1999Z" fill="#35414D"/>
<path d="M134.7 111.6H94C92 111.6 90.3 113.3 90.3 115.3V120.2C90.3 122.2 92 123.9 94 123.9H134.6C136.6 123.9 138.3 122.2 138.3 120.2V115.3C138.4 113.2 136.7 111.6 134.7 111.6ZM134.7 120.2H94V115.3H134.6V120.2H134.7Z" fill="#35414D"/>
<path d="M134.7 131.3H94C92 131.3 90.3 133 90.3 135V139.9C90.3 141.9 92 143.6 94 143.6H134.6C136.6 143.6 138.3 141.9 138.3 139.9V135C138.4 132.9 136.7 131.3 134.7 131.3ZM134.7 139.9H94V135H134.6V139.9H134.7Z" fill="#35414D"/>
<path d="M37.1 139.6C34.8 139.6 33.5 139.4 33.2 139L29.7 133.4L29.6 133.3C29.4 132.9 29.1 132.7 28.7 132.7C28.6 132.7 28.6 132.7 28.5 132.7C28 132.8 27.7 133.2 27.7 133.7C27.7 134 27.5 137.7 27.4 138.1C27.4 138.7 27.2 139.1 27.1 139.3H23.3C23 139.3 22.3 139.1 22.3 138.7C22.3 130.6 22.2 120.2 22.2 116.3C24.3 116 24.8 115.9 24.9 115.9C25 115.9 25.1 115.9 25.2 115.9C25.5 115.9 26 115.9 26.2 115.9C26.3 115.9 26.6 115.9 26.9 115.9C27.1 115.9 27.4 115.9 27.5 115.9C27.7 115.9 27.7 116 27.7 116.4C27.7 117.3 27.6 118.2 27.6 119.1C27.5 120 27.5 121 27.5 121.9V122.3C27.5 122.7 27.7 123.1 28.1 123.3C28.2 123.4 28.4 123.4 28.5 123.4C28.9 123.4 29.3 123.2 29.4 122.8L32 117.4C32.8 115.8 33.6 115.6 34.2 115.6H34.6C35 115.7 36.1 115.9 36.4 115.9H36.5C36.6 115.9 37.1 116 37.4 116.1C37.7 116.2 38 116.2 38.2 116.3C38.4 116.3 38.4 116.4 38.5 116.4C38.5 116.5 38.5 116.6 38.5 116.6L32.5 127.3C32.4 127.5 32.4 127.6 32.4 127.8V127.9C32.4 128.1 32.5 128.4 32.6 128.6C33.2 129.3 35.8 132.6 36.3 133.3C36.5 133.5 37.3 134.8 37.6 135.2C37.8 135.6 38.6 137.3 38.8 137.8C38.8 137.8 38.8 137.8 38.8 137.9C38.9 138.1 39 138.5 39 138.7C39 139.1 38.8 139.4 38.4 139.6H37.1Z" fill="#35414D"/>
<path d="M49.7 139C47.7 139 47.2 138.7 46.8 137.2C46.7 136.7 46.4 135.2 46.3 134.8L44.1 116.6V116.4C44.2 116.3 44.6 116.2 45.7 116.2C46 116.2 46.2 116.2 46.4 116.2C46.6 116.2 46.7 116.2 46.8 116.2C50 116.2 50.1 117.6 50.1 118.2L50.6 129.4C50.6 129.9 51 130.3 51.5 130.4C51.6 130.4 51.6 130.4 51.7 130.4C52.1 130.4 52.5 130.1 52.7 129.7C52.9 129.2 53.7 127.3 54.1 126.4L54.3 125.8C55.2 123.7 55.7 123.2 57.9 123.2H59C59.5 123.3 60.1 123.6 60.5 124.8C60.6 125.1 60.8 125.7 61 126.5C61.3 127.6 61.7 128.8 61.9 129.3C61.9 129.5 62 129.7 62.2 130C62.4 130.4 62.8 130.6 63.2 130.6C63.6 130.6 64 130.3 64.1 129.9L64.2 129.6V129.5C66.5 119.5 67.4 116 69 116C69.6 116 72.5 116.1 72.5 117.9C72.5 118.5 72.5 118.7 72.3 119.3L67.8 135.6L67.7 136.1C67.3 137.7 66.8 139 65.9 139C64.8 139 63.7 139 62.8 138.9C61.8 138.8 61.6 138.6 61.5 138.6L57.9 133.4C57.8 133.3 57.8 133.3 57.7 133.2L57.4 133C57.2 132.8 57 132.8 56.7 132.8C56.6 132.8 56.5 132.8 56.4 132.8C56.1 132.9 55.8 133.1 55.7 133.4C55.6 133.5 55.4 133.9 55.3 134.1C55.3 134.1 55.3 134.2 55.2 134.2C54.9 134.8 53.6 137.2 53.3 137.7C52.8 138.7 51.6 139 49.7 139Z" fill="#35414D"/>
<path d="M190.5 151.2C182.9 172.4 159.5 183.4 138.3 175.8C117.1 168.2 106.1 144.8 113.7 123.6C121.3 102.4 144.7 91.4001 165.9 99.0001C187.1 106.7 198.1 130 190.5 151.2Z" fill="#FD646F"/>
<path d="M190.5 151.2C182.9 172.4 159.5 183.4 138.3 175.8C126.8 171.7 118.3 162.9 114.1 152.4C118.7 160.8 126.3 167.5 136 171C157.2 178.6 180.6 167.6 188.2 146.4C191.7 136.7 191.3 126.6 187.8 117.7C193.3 127.6 194.6 139.7 190.5 151.2Z" fill="#FC4755"/>
<path d="M181.1 147.8C186.8 131.8 178.5 114.2 162.5 108.4C146.5 102.6 128.9 111 123.1 127C117.3 143 125.7 160.6 141.7 166.4C157.7 172.2 175.3 163.8 181.1 147.8Z" fill="#F5F5F5"/>
<path d="M181.1 147.8C175.4 163.8 157.7 172.1 141.7 166.4C132.8 163.2 126.3 156.3 123.2 148.1C126.7 154.1 132.3 159 139.4 161.6C155.4 167.3 173 159 178.8 143C181.3 135.9 181.1 128.5 178.7 121.9C183.1 129.5 184.3 138.9 181.1 147.8Z" fill="#E6E6E6"/>
<path d="M171.6 144.5C175.5 133.7 169.9 121.8 159.1 117.9C148.3 114 136.4 119.6 132.5 130.4C128.6 141.2 134.2 153.1 145 157C155.9 160.9 167.8 155.3 171.6 144.5Z" fill="#FD646F"/>
<path d="M171.6 144.5C167.7 155.3 155.8 160.9 145 157C138.7 154.7 134.2 149.7 132.2 143.8C134.6 147.5 138.2 150.5 142.7 152.1C153.5 156 165.4 150.4 169.3 139.6C170.9 135.1 170.9 130.4 169.5 126.2C172.9 131.5 173.9 138.1 171.6 144.5Z" fill="#FC4755"/>
<path d="M142.1 133.9C144.1 128.4 150.1 125.5 155.6 127.5C161.1 129.5 164 135.5 162 141C160 146.5 154 149.4 148.5 147.4C143 145.4 140.2 139.4 142.1 133.9Z" fill="#F5F5F5"/>
<path d="M183.97 162.91C182.47 164.81 180.67 166.61 178.87 168.21L171.77 161.11C173.67 159.51 175.37 157.81 176.87 155.81L183.97 162.91Z" fill="#FC4755"/>
<path d="M176.76 155.88C175.26 157.88 173.56 159.68 171.66 161.18L164.46 154.08C166.46 152.58 168.16 150.78 169.46 148.68L176.76 155.88Z" fill="#E6E6E6"/>
<path d="M169.59 148.72C168.19 150.82 166.49 152.62 164.59 154.12L157.19 146.82C159.39 145.62 161.09 143.72 161.99 141.22L169.59 148.72Z" fill="#FC4755"/>
<path d="M161.99 141.2C161.09 143.7 159.29 145.6 157.19 146.8L150.29 139.9C148.89 138.6 148.89 136.4 149.99 135C150.09 134.9 150.19 134.8 150.19 134.7C150.89 134 151.89 133.6 152.79 133.6C153.69 133.6 154.69 134 155.39 134.7L161.99 141.2Z" fill="#E6E6E6"/>
<path d="M213.379 121.638C213.679 121.738 213.679 122.138 213.379 122.338L208.279 124.738L205.179 126.238L196.579 130.338C195.979 130.638 195.379 130.538 194.879 130.238L186.079 125.338L195.579 120.838L198.779 119.338L204.579 116.638L213.379 121.638Z" fill="#50758D"/>
<path d="M208.21 124.7L205.11 126.2L195.51 120.8L198.71 119.3L208.21 124.7Z" fill="#2B597F"/>
<path d="M201.43 110.91L195.63 113.51L192.53 114.91L183.03 119.21L184.93 109.11C185.03 108.51 185.43 108.01 186.03 107.71L194.63 103.61L197.73 102.11L202.93 99.61C203.23 99.51 203.53 99.71 203.43 100.01L201.43 110.91Z" fill="#50758D"/>
<path d="M195.7 113.5L192.6 114.9L194.6 103.7L197.7 102.2L195.7 113.5Z" fill="#2B597F"/>
<path d="M209.84 113.24C209.54 114.14 208.84 114.94 207.94 115.34L154.44 140.64C152.74 141.44 150.64 140.84 149.74 139.24C149.64 139.14 149.64 139.04 149.54 138.94C149.14 138.04 149.04 137.04 149.44 136.14C149.74 135.24 150.44 134.44 151.34 134.04L204.84 108.74C206.64 107.84 208.84 108.64 209.74 110.54C209.84 110.64 209.84 110.74 209.84 110.84C210.14 111.54 210.04 112.44 209.84 113.24Z" fill="#918291"/>
<path d="M209.84 113.24C209.54 114.14 208.84 114.94 207.94 115.34L154.44 140.64C152.74 141.44 150.64 140.84 149.74 139.24L209.94 110.84C210.14 111.54 210.04 112.44 209.84 113.24Z" fill="#7A6E79"/>
<path d="M182.744 142.428C182.644 142.428 182.644 142.428 182.544 142.428C181.544 142.328 180.844 141.428 180.944 140.528C181.344 136.428 180.944 132.328 179.644 128.428C179.344 127.528 179.844 126.528 180.744 126.228C181.644 125.928 182.644 126.428 182.944 127.328C184.344 131.728 184.844 136.328 184.344 140.928C184.344 141.828 183.544 142.428 182.744 142.428Z" fill="#35414D"/>
<path d="M152.106 169.983C148.406 169.983 144.706 169.383 141.106 168.083C132.906 165.183 126.406 159.183 122.706 151.383C119.006 143.483 118.606 134.683 121.506 126.483C124.406 118.283 130.406 111.783 138.206 108.083C146.106 104.383 154.906 103.983 163.106 106.883C170.106 109.383 175.806 114.083 179.706 120.283C180.206 121.083 180.006 122.183 179.106 122.683C178.306 123.183 177.206 122.983 176.706 122.083C173.206 116.483 168.106 112.283 161.906 110.083C154.606 107.483 146.706 107.883 139.706 111.183C132.706 114.483 127.406 120.383 124.806 127.583C122.206 134.883 122.606 142.783 125.906 149.783C129.206 156.783 135.106 162.083 142.306 164.683C149.606 167.283 157.506 166.883 164.506 163.583C171.506 160.283 176.806 154.383 179.406 147.183C179.506 146.883 179.606 146.683 179.706 146.383C180.006 145.483 181.006 144.983 181.906 145.283C182.806 145.583 183.306 146.583 183.006 147.483C182.906 147.783 182.806 148.083 182.706 148.383C179.806 156.583 173.806 163.083 166.006 166.783C161.606 168.983 156.806 169.983 152.106 169.983Z" fill="#35414D"/>
<path d="M152.105 159.916C149.605 159.916 147.005 159.516 144.505 158.616C136.805 155.816 131.205 149.216 129.905 141.216C129.705 140.216 130.405 139.316 131.305 139.216C132.305 139.016 133.205 139.716 133.305 140.616C134.405 147.316 139.205 153.016 145.705 155.316C155.605 158.816 166.505 153.716 170.005 143.816C171.305 140.216 171.505 136.416 170.505 132.716C170.305 131.816 170.805 130.816 171.805 130.616C172.705 130.416 173.705 130.916 173.905 131.916C175.005 136.316 174.805 140.816 173.305 145.116C170.005 154.216 161.305 159.916 152.105 159.916Z" fill="#35414D"/>
<path d="M131.527 136.166C131.427 136.166 131.327 136.166 131.227 136.166C130.227 136.066 129.627 135.166 129.727 134.166C129.927 132.666 130.327 131.266 130.827 129.866C135.027 118.166 147.927 112.066 159.627 116.266C164.027 117.866 167.727 120.666 170.427 124.566C171.027 125.366 170.827 126.466 170.027 126.966C169.227 127.566 168.127 127.366 167.627 126.566C165.327 123.366 162.227 120.966 158.527 119.566C148.627 116.066 137.727 121.166 134.227 131.066C133.827 132.266 133.527 133.466 133.327 134.666C133.127 135.566 132.427 136.166 131.527 136.166Z" fill="#35414D"/>
<path d="M184.373 114.157C183.873 114.157 183.373 113.957 182.973 113.457C178.473 107.557 172.273 103.157 165.273 100.657C158.173 98.0574 150.473 97.6574 143.173 99.3574C142.273 99.5574 141.273 98.9574 141.073 98.0574C140.873 97.1574 141.473 96.1574 142.373 95.9574C150.373 94.0574 158.673 94.5574 166.473 97.3574C174.173 100.057 180.773 104.957 185.773 111.357C186.373 112.157 186.273 113.257 185.473 113.857C185.073 114.057 184.673 114.157 184.373 114.157Z" fill="#35414D"/>
<path d="M152.134 179.982C147.334 179.982 142.434 179.182 137.734 177.482C127.034 173.682 118.434 165.882 113.634 155.582C108.834 145.282 108.234 133.782 112.034 123.082C116.134 111.782 124.834 102.682 135.934 98.0818C136.834 97.6818 137.834 98.1818 138.234 99.0818C138.634 99.9818 138.134 100.982 137.234 101.382C127.034 105.582 119.034 113.982 115.234 124.282C111.734 134.082 112.234 144.682 116.634 154.082C121.034 163.482 128.934 170.682 138.734 174.182C148.534 177.682 159.134 177.182 168.534 172.782C177.934 168.382 185.134 160.482 188.634 150.682C191.134 143.682 191.634 136.182 190.034 128.982C189.834 128.082 190.434 127.082 191.334 126.882C192.234 126.682 193.234 127.282 193.434 128.182C195.234 135.982 194.634 144.182 191.934 151.782C188.134 162.482 180.334 171.082 170.034 175.882C164.434 178.582 158.334 179.982 152.134 179.982Z" fill="#35414D"/>
<path d="M152.129 149.751C150.729 149.751 149.329 149.551 147.929 149.051C144.829 147.951 142.329 145.651 140.929 142.751C139.529 139.751 139.329 136.451 140.429 133.351C142.729 126.951 149.829 123.651 156.229 125.951C157.929 126.551 159.529 127.551 160.829 128.851C161.529 129.551 161.529 130.651 160.829 131.351C160.129 132.051 159.029 132.051 158.329 131.351C157.429 130.451 156.329 129.751 155.029 129.251C150.429 127.651 145.429 129.951 143.729 134.551C142.929 136.751 143.029 139.151 144.029 141.251C145.029 143.351 146.829 144.951 149.029 145.751C151.229 146.551 153.629 146.451 155.729 145.451C157.829 144.451 159.429 142.651 160.229 140.451C160.629 139.251 160.829 138.051 160.729 136.851C160.629 135.851 161.429 135.051 162.329 134.951C163.329 134.851 164.129 135.651 164.229 136.551C164.329 138.251 164.129 139.951 163.529 141.551C162.429 144.651 160.129 147.151 157.229 148.551C155.729 149.351 153.929 149.751 152.129 149.751Z" fill="#35414D"/>
<path d="M152.767 142.644C152.167 142.644 151.567 142.544 150.967 142.344C149.567 141.844 148.467 140.844 147.867 139.544C146.567 136.844 147.767 133.544 150.467 132.344L203.967 107.044C206.667 105.744 209.967 106.944 211.167 109.644C211.767 110.944 211.867 112.444 211.367 113.844C210.867 115.244 209.867 116.344 208.567 116.944L155.067 142.244C154.367 142.544 153.567 142.644 152.767 142.644ZM151.967 135.544C150.967 136.044 150.567 137.144 151.067 138.144C151.267 138.644 151.667 138.944 152.167 139.144C152.667 139.344 153.167 139.244 153.667 139.044L207.167 113.744C207.667 113.544 207.967 113.144 208.167 112.644C208.367 112.144 208.267 111.644 208.067 111.144C207.567 110.144 206.467 109.744 205.467 110.244L151.967 135.544Z" fill="#35414D"/>
<path d="M194.361 115.003C194.261 115.003 194.161 115.003 194.061 115.003C193.061 114.803 192.461 113.903 192.661 113.003L194.461 103.103C194.661 102.103 195.561 101.503 196.461 101.703C197.461 101.903 198.061 102.803 197.861 103.703L196.061 113.603C195.861 114.403 195.161 115.003 194.361 115.003Z" fill="#35414D"/>
<path d="M183.16 120.531C183.06 120.531 182.96 120.531 182.86 120.531C181.86 120.331 181.26 119.431 181.46 118.531L183.36 108.031C183.46 107.431 183.86 107.031 184.36 106.731L202.86 98.0306C203.46 97.7306 204.16 97.8306 204.66 98.2306C205.16 98.6306 205.46 99.3306 205.26 99.9306L203.26 110.531C203.06 111.531 202.16 112.131 201.26 111.931C200.26 111.731 199.66 110.831 199.86 109.931L201.26 102.731L186.66 109.631L184.86 119.231C184.76 119.931 183.96 120.531 183.16 120.531Z" fill="#35414D"/>
<path d="M206.51 127.054C206.21 127.054 205.91 126.954 205.61 126.854L196.81 121.954C196.01 121.454 195.71 120.454 196.11 119.554C196.61 118.754 197.61 118.454 198.51 118.854L207.31 123.754C208.11 124.254 208.41 125.254 208.01 126.154C207.71 126.754 207.11 127.054 206.51 127.054Z" fill="#35414D"/>
<path d="M195.689 132.411C195.389 132.411 195.089 132.311 194.789 132.211L185.489 127.011C184.689 126.511 184.389 125.511 184.789 124.611C185.289 123.811 186.289 123.511 187.189 123.911L195.689 128.611L210.189 121.711L203.889 118.211C203.089 117.711 202.789 116.711 203.189 115.811C203.689 115.011 204.689 114.711 205.589 115.111L214.789 120.311C215.389 120.611 215.689 121.211 215.689 121.911C215.689 122.611 215.289 123.111 214.689 123.411L196.289 132.111C196.189 132.311 195.889 132.411 195.689 132.411Z" fill="#35414D"/>
</g>
<defs>
<clipPath id="clip0_836_5763">
<rect width="215.8" height="180" fill="white"/>
</clipPath>
</defs>
</svg>
