<svg width="392" height="430" viewBox="0 0 392 430" fill="none" xmlns="http://www.w3.org/2000/svg">
<g clip-path="url(#clip0_831_110186)">
<path d="M121.922 97.3919L135.442 90.1867C142.08 86.6245 150.419 89.1342 153.9 95.8537C155.681 99.1729 155.924 102.897 154.872 106.297C153.819 109.616 151.552 112.612 148.233 114.393L138.923 119.331" fill="#EFEFEF"/>
<path d="M139.004 119.25L148.314 114.312C154.953 110.75 163.291 113.26 166.772 119.979C168.553 123.298 168.796 127.022 167.744 130.423C166.691 133.742 164.425 136.737 161.105 138.518L153.657 142.485" fill="#EFEFEF"/>
<path d="M76.5048 222.876L44.7695 163.372C31.2496 138.033 40.8835 106.621 66.1423 93.1011C91.482 79.5812 122.893 89.2152 136.413 114.474L148.8 137.709L207.818 194.784L185.555 206.604L192.274 219.233C205.308 243.763 196.079 274.203 171.549 287.237L170.092 288.047C144.752 301.567 113.34 291.933 99.8206 266.674L93.8297 255.421" fill="#FFDC8D"/>
<path d="M114.312 258.902L108.321 247.649L90.9153 215.104L59.1799 155.6C46.9553 132.77 53.5938 104.84 73.6713 89.7819C71.0807 90.6724 68.571 91.7248 66.1423 93.1011C40.8026 106.621 31.2496 138.033 44.7695 163.372L76.5048 222.876L93.9107 255.421L99.9015 266.674C113.421 292.014 144.833 301.567 170.173 288.047L171.63 287.237C173.816 286.104 175.921 284.728 177.864 283.351C153.9 292.014 126.618 282.056 114.312 258.902Z" fill="#E8C57E"/>
<path d="M89.2961 222.147C79.5002 219.152 69.1377 224.657 66.2232 234.453C63.2278 244.249 68.7329 254.611 78.5287 257.526C88.3246 260.521 98.6871 255.016 101.602 245.22" fill="#E8C57E"/>
<path d="M225.524 395.563C225.524 401.267 224.232 410.674 222.455 421.981H109.625C108.736 410.774 108.252 401.768 108.252 395.563C108.252 343.128 118.59 300.699 160.911 300.699C203.152 300.699 225.524 343.128 225.524 395.563Z" fill="#EFEFEF"/>
<path d="M174.405 302.1C170.332 301.2 165.933 300.699 161.37 300.699C118.68 300.699 108.252 343.228 108.252 395.563C108.252 401.768 108.74 410.874 109.637 421.981H135.3C134.404 410.774 133.915 401.768 133.915 395.563C133.915 348.832 142.225 309.906 174.405 302.1Z" fill="#CCCCCC"/>
<path d="M139.004 208.628C150.763 208.628 160.296 199.095 160.296 187.336C160.296 175.577 150.763 166.044 139.004 166.044C127.245 166.044 117.712 175.577 117.712 187.336C117.712 199.095 127.245 208.628 139.004 208.628Z" fill="#78CAEF"/>
<path d="M59.9085 130.504L13.277 155.357C6.63848 158.92 4.12879 167.177 7.60997 173.816C11.1721 180.454 19.4298 182.964 26.0683 179.483L72.6998 154.629" fill="#EFEFEF"/>
<path d="M72.6998 154.548L33.1925 175.678C26.554 179.24 24.0443 187.498 27.5255 194.136C31.0876 200.775 39.3453 203.284 45.9838 199.803L85.572 178.673" fill="#EFEFEF"/>
<path d="M281.181 69.4456L198.201 130.429L219.727 159.72L302.707 98.7363L281.181 69.4456Z" fill="#756E75"/>
<path d="M291.926 84.1356L208.946 145.119L219.734 159.797L302.713 98.8136L291.926 84.1356Z" fill="#595259"/>
<path d="M203.297 118.254L182.552 133.5L212.133 173.75L232.878 158.504L203.297 118.254Z" fill="#756E75"/>
<path d="M221.681 143.348L200.936 158.593L212.155 173.859L232.9 158.613L221.681 143.348Z" fill="#595259"/>
<path d="M355.996 6.05239L267.993 70.7275L297.574 110.978L385.577 46.3027L355.996 6.05239Z" fill="#756E75"/>
<path d="M374.888 31.6688L286.886 96.3439L297.673 111.022L385.676 46.3468L374.888 31.6688Z" fill="#595259"/>
<path d="M155.196 250.402C164.668 250.402 173.978 245.787 179.483 237.205C181.264 234.453 180.454 230.729 177.702 228.867C174.949 227.086 171.225 227.895 169.363 230.648C164.344 238.42 153.9 240.687 146.128 235.667C143.376 233.886 139.652 234.696 137.79 237.448C136.009 240.201 136.818 243.925 139.571 245.787C144.428 248.944 149.771 250.402 155.196 250.402Z" fill="#35414D"/>
<path d="M136.09 299.3C128.965 302.376 122.974 307.072 118.117 313.225C109.859 323.668 105.002 338.159 103.14 357.589C102.816 360.909 105.245 363.823 108.564 364.147C108.726 364.147 108.969 364.147 109.131 364.147C112.207 364.147 114.798 361.799 115.122 358.723C116.741 341.641 120.87 329.173 127.589 320.673C135.118 311.201 146.047 306.586 161.105 306.586C175.03 306.586 186.85 310.553 196.484 318.325C199.074 320.43 202.799 320.025 204.903 317.434C207.008 314.844 206.604 311.12 204.013 309.015C194.298 301.081 182.721 296.385 169.606 295.009C170.739 294.523 171.873 293.957 173.087 293.309L174.544 292.499C187.821 285.456 197.536 273.636 201.908 259.226C206.28 244.815 204.822 229.595 197.698 216.318L193.812 209.032L210.732 199.965C212.432 199.074 213.566 197.374 213.89 195.512C214.133 193.65 213.485 191.707 212.109 190.331L163.858 143.619L164.02 143.538C168.634 141.028 172.035 136.899 173.573 131.88C175.111 126.86 174.625 121.517 172.116 116.903C169.606 112.207 165.477 108.969 160.782 107.431C162.239 102.492 161.672 97.3109 159.243 92.7773C154.143 83.2243 142.242 79.5812 132.608 84.6815L122.327 90.1867C117.793 87.1912 112.774 84.9244 107.512 83.2243C92.6963 78.6907 76.9906 80.2289 63.3897 87.5151C44.6885 97.4728 32.9497 116.984 32.7068 137.952L10.4435 149.771C5.82891 152.281 2.4287 156.41 0.890504 161.429C-0.647689 166.449 -0.0809861 171.792 2.34774 176.406C5.90987 183.045 12.7103 186.85 19.7536 186.85C19.8346 186.85 19.9155 186.85 19.9965 186.85C19.8346 190.169 20.5632 193.65 22.2633 196.808C24.773 201.422 28.9018 204.822 33.9212 206.361C35.7832 206.927 37.7262 207.251 39.6692 207.251C42.8265 207.251 45.9838 206.442 48.8983 204.903L88.4865 183.774C91.401 182.235 92.5344 178.592 90.9962 175.678C89.458 172.763 85.8149 171.63 82.9005 173.168L43.3122 194.298C41.5312 195.269 39.4263 195.431 37.4833 194.865C35.5403 194.298 33.9212 192.922 32.9497 191.141C30.9257 187.417 32.383 182.802 36.107 180.778L75.6952 159.648C75.8572 159.567 76.0191 159.405 76.2619 159.324C77.9621 158.191 78.9335 156.329 78.9335 154.386C78.9335 153.414 78.6907 152.443 78.2049 151.552C76.6667 148.638 73.0236 147.505 70.1092 149.043L30.521 170.173L23.4776 173.897C21.6966 174.868 19.5917 175.03 17.6487 174.463C15.7057 173.897 14.0866 172.52 13.1151 170.739C12.1436 168.958 11.9817 166.853 12.5484 164.91C13.1151 162.967 14.4914 161.348 16.2724 160.377L62.904 135.523C65.8184 133.985 66.9518 130.342 65.4136 127.427C63.8755 124.513 60.2324 123.379 57.3179 124.917L45.579 131.232C47.9268 117.307 56.5893 104.921 69.2996 98.1205C80.1479 92.3725 92.5344 91.1581 104.273 94.7203C116.012 98.2824 125.646 106.216 131.394 117.065L143.781 140.299C144.104 140.866 144.428 141.352 144.914 141.757L167.582 163.696L159.648 168.877C151.471 159.729 137.709 156.977 126.456 162.967C114.96 169.12 109.616 182.316 112.936 194.298L98.8491 201.827C95.9346 203.365 94.8012 207.008 96.3394 209.923C97.3919 211.947 99.4967 213.08 101.683 213.08C102.654 213.08 103.626 212.837 104.516 212.352L118.603 204.822C121.922 208.708 126.294 211.623 131.313 213.161C133.985 213.971 136.656 214.375 139.328 214.375C143.781 214.375 148.152 213.323 152.119 211.137C163.777 204.903 169.039 191.464 165.477 179.321L176.406 172.197L197.941 193.084L182.964 201.017C181.588 201.746 180.535 203.041 180.049 204.58C179.564 206.118 179.726 207.737 180.535 209.113L187.255 221.743C192.841 232.186 193.974 244.168 190.574 255.502C187.093 266.836 179.483 276.146 169.039 281.651L167.582 282.461C145.238 294.361 117.307 285.861 105.407 263.517L101.683 256.554C104.354 253.883 106.378 250.483 107.592 246.597C108.564 243.439 106.783 240.039 103.626 239.067C100.468 238.096 97.068 239.877 96.0965 243.034C94.0726 249.673 87.1103 253.397 80.4717 251.373C77.3144 250.402 74.6428 248.216 73.1046 245.301C71.5664 242.387 71.1616 238.987 72.2141 235.748C73.1856 232.591 75.3714 229.919 78.2859 228.381C81.2004 226.843 84.6006 226.438 87.8389 227.491C90.9962 228.462 94.3964 226.681 95.3679 223.524C96.3394 220.366 94.5583 216.966 91.401 215.995C87.596 214.861 83.71 214.618 79.905 215.347L73.8332 203.932C72.295 201.017 68.6519 199.884 65.7375 201.422C62.823 202.96 61.6896 206.604 63.2278 209.518L68.9758 220.285C65.1708 223.362 62.3373 227.491 60.88 232.267C58.937 238.501 59.5847 245.139 62.6611 250.968C65.7375 256.716 70.9188 261.007 77.1525 262.869C79.5003 263.598 81.929 263.921 84.2767 263.921C86.7864 263.921 89.2961 263.517 91.6439 262.788L94.9631 269.022C103.383 285.942 119.008 296.466 136.09 299.3ZM153.657 191.788C152.443 195.674 149.852 198.913 146.209 200.856C142.566 202.799 138.437 203.203 134.551 201.989C130.665 200.775 127.427 198.184 125.484 194.541C121.517 187.093 124.351 177.783 131.799 173.816C134.066 172.601 136.575 172.035 139.004 172.035C144.509 172.035 149.771 174.949 152.524 180.13C154.467 183.774 154.872 187.902 153.657 191.788ZM162.077 128.561C161.51 130.503 160.134 132.123 158.353 133.094L154.791 135.037L153.738 134.066L147.181 121.76L151.148 119.655C154.872 117.631 159.486 119.088 161.51 122.813C162.482 124.513 162.644 126.618 162.077 128.561ZM138.275 95.4489C141.999 93.425 146.614 94.8822 148.638 98.6062C149.609 100.387 149.771 102.492 149.205 104.435C148.638 106.378 147.262 107.997 145.481 108.969L141.514 111.074C139.004 106.459 135.928 102.249 132.365 98.6062L138.275 95.4489Z" fill="#35414D"/>
<path d="M390.458 42.7456L360.828 2.42872C358.885 -0.242873 355.08 -0.809575 352.408 1.1334L313.306 29.9543C310.634 31.8973 310.067 35.7023 312.01 38.3739C313.953 41.0455 317.758 41.6122 320.43 39.6692L354.756 14.4104L377.262 45.0124L298.895 102.573L276.875 72.6189L276.389 71.9712L304.4 51.408C307.072 49.465 307.639 45.66 305.696 42.9884C303.753 40.3168 299.948 39.7501 297.276 41.6931L264.407 65.8185C263.112 66.7899 262.302 68.1662 262.059 69.7854C261.817 71.3236 262.221 72.9427 263.193 74.238L263.679 74.8857L208.627 115.364L208.142 114.717C207.17 113.421 205.794 112.612 204.175 112.369C202.637 112.126 201.017 112.531 199.722 113.502L178.997 128.722C176.325 130.665 175.759 134.47 177.702 137.142L207.332 177.378C208.547 178.997 210.328 179.807 212.19 179.807C213.404 179.807 214.699 179.402 215.752 178.673L236.477 163.453C237.772 162.482 238.582 161.105 238.825 159.486C239.068 157.948 238.663 156.329 237.691 155.034L237.205 154.386L247.325 146.938C249.997 144.995 250.563 141.19 248.62 138.518C246.678 135.847 242.873 135.28 240.201 137.223L230.081 144.671L215.671 125.079L270.722 84.6006L292.742 114.555C293.957 116.174 295.738 116.984 297.6 116.984C298.814 116.984 300.109 116.579 301.162 115.85L389.163 51.1651C390.458 50.1937 391.268 48.8174 391.51 47.1982C391.753 45.5791 391.43 44.0409 390.458 42.7456ZM213.404 165.396L190.898 134.794L201.989 126.618L208.142 134.956L224.009 156.572L224.495 157.219L213.404 165.396Z" fill="#35414D"/>
<path d="M287.075 115.85L279.303 100.792C277.765 97.8776 274.122 96.6633 271.208 98.2014C268.293 99.7396 267.079 103.383 268.617 106.297L276.389 121.355C277.037 122.57 276.875 124.027 276.146 125.16L265.298 104.759C263.76 101.845 260.116 100.711 257.202 102.249C254.288 103.788 253.154 107.431 254.692 110.345L265.945 131.556C264.893 131.961 263.921 131.799 263.436 131.637C262.869 131.475 261.736 130.989 261.169 129.694L258.578 124.189C257.121 121.193 253.559 119.898 250.563 121.355C247.568 122.813 246.273 126.375 247.73 129.37L250.321 134.875C252.183 138.842 255.745 141.918 259.955 143.214C261.493 143.7 263.031 143.861 264.569 143.861C266.188 143.861 267.807 143.619 269.427 143.133C277.279 175.516 278.008 205.389 271.531 232.186C265.864 255.826 254.53 277.199 238.015 295.657C209.68 327.23 175.111 339.698 174.544 339.941C171.387 340.993 169.768 344.474 170.82 347.551C171.711 350.06 173.978 351.598 176.487 351.598C177.135 351.598 177.783 351.517 178.43 351.275C179.969 350.708 215.995 337.917 246.516 304.076C264.569 284.08 276.794 261.007 283.027 235.343C290.233 205.713 289.261 172.682 280.194 137.142L281.004 136.656C288.29 132.446 290.88 123.298 287.075 115.85Z" fill="#35414D"/>
<path d="M201.827 300.919C202.96 302.133 204.58 302.7 206.118 302.7C207.656 302.7 209.194 302.133 210.328 300.919C241.334 270.155 247.649 237.367 247.487 215.266C247.325 191.303 239.796 174.625 239.472 173.978C238.096 170.982 234.534 169.687 231.538 171.063C228.543 172.439 227.167 176.002 228.543 178.997C228.624 179.159 235.424 194.379 235.505 215.914C235.586 244.492 224.252 270.317 201.908 292.419C199.479 294.766 199.479 298.571 201.827 300.919Z" fill="#35414D"/>
<path d="M356.456 264.893H343.26V251.697C343.26 248.378 340.588 245.706 337.269 245.706C333.95 245.706 331.278 248.378 331.278 251.697V264.893H318.082C314.763 264.893 312.091 267.565 312.091 270.884C312.091 274.203 314.763 276.875 318.082 276.875H331.278V290.071C331.278 293.39 333.95 296.062 337.269 296.062C340.588 296.062 343.26 293.39 343.26 290.071V276.875H356.456C359.775 276.875 362.447 274.203 362.447 270.884C362.447 267.565 359.775 264.893 356.456 264.893Z" fill="#35414D"/>
<path d="M171.468 58.3704H184.664V71.5664C184.664 74.8857 187.336 77.5573 190.655 77.5573C193.974 77.5573 196.646 74.8857 196.646 71.5664V58.3704H209.842C213.161 58.3704 215.833 55.6988 215.833 52.3795C215.833 49.0602 213.161 46.3886 209.842 46.3886H196.727V33.1116C196.727 29.7924 194.055 27.1208 190.736 27.1208C187.417 27.1208 184.745 29.7924 184.745 33.1116V46.3077H171.549C168.23 46.3077 165.558 48.9793 165.558 52.2985C165.558 55.6178 168.149 58.3704 171.468 58.3704Z" fill="#35414D"/>
<path d="M16.1915 53.1891H39.4263V76.4239C39.4263 79.7431 42.0979 82.4147 45.4171 82.4147C48.7364 82.4147 51.408 79.7431 51.408 76.4239V53.1891H74.6428C77.9621 53.1891 80.6337 50.5175 80.6337 47.1982C80.6337 43.879 77.9621 41.2074 74.6428 41.2074H51.408V17.8916C51.408 14.5724 48.7364 11.9008 45.4171 11.9008C42.0979 11.9008 39.4263 14.5724 39.4263 17.8916V41.1264H16.1915C12.8722 41.1264 10.2006 43.798 10.2006 47.1173C10.2006 50.4365 12.8722 53.1891 16.1915 53.1891Z" fill="#35414D"/>
<path d="M350.627 211.785C353.622 216.238 360.747 214.618 361.556 209.356C362.366 204.094 356.132 200.532 351.922 203.77C349.494 205.632 348.927 209.194 350.627 211.785Z" fill="#35414D"/>
<path d="M253.235 40.5597C254.207 42.9075 256.635 44.4457 259.145 44.2838C261.655 44.1218 263.76 42.4217 264.488 39.993C266.026 34.8927 260.359 30.3591 255.745 33.1116C253.154 34.5689 252.021 37.8072 253.235 40.5597Z" fill="#35414D"/>
<path d="M52.9462 290.233C51.9747 287.966 49.7079 286.428 47.2792 286.509C44.8505 286.59 42.5837 288.209 41.7741 290.476C39.9121 295.738 45.822 300.514 50.5985 297.6C53.0272 296.143 54.0796 292.904 52.9462 290.233Z" fill="#35414D"/>
<path d="M217.128 362.256C214.052 363.471 212.513 366.952 213.728 370.028C217.776 380.229 219.8 391.806 219.8 404.435C219.8 407.916 218.909 413.826 217.776 419.817H115.041C114.474 413.422 114.15 408.159 114.15 404.435C114.15 401.116 111.479 398.444 108.159 398.444C104.84 398.444 102.168 401.116 102.168 404.435C102.168 409.697 102.654 417.065 103.626 426.456C103.949 429.532 106.54 431.88 109.616 431.88H222.795C225.71 431.88 228.138 429.856 228.705 427.022C230.567 417.146 231.862 409.536 231.862 404.516C231.862 390.349 229.515 377.314 224.981 365.738C223.686 362.58 220.204 361.042 217.128 362.256Z" fill="#35414D"/>
</g>
<defs>
<clipPath id="clip0_831_110186">
<rect width="391.911" height="430" fill="white"/>
</clipPath>
</defs>
</svg>
