<?xml version="1.0" encoding="utf-8"?>
<!-- Generator: Adobe Illustrator 25.0.0, SVG Export Plug-In . SVG Version: 6.00 Build 0)  -->
<svg version="1.1" id="Layer_1" xmlns="http://www.w3.org/2000/svg" xmlns:xlink="http://www.w3.org/1999/xlink" x="0px" y="0px"
	 viewBox="0 0 180.8 180" style="enable-background:new 0 0 180.8 180;" xml:space="preserve">
<style type="text/css">
	.st0{fill:#CC5468;}
	.st1{fill:#35414D;}
	.st2{fill:#FD646F;}
	.st3{fill:#CCB266;}
	.st4{fill:#FFE07D;}
	.st5{fill:#8398B2;}
	.st6{fill:#A2BBE3;}
</style>
<g>
	<g>
		<g>
			<path class="st0" d="M155.6,48.8H70.8c-5.5,0-10-4.5-10-10V11.7c0-5.5,4.5-10,10-10h84.8c5.5,0,10,4.5,10,10v27.1
				C165.6,44.4,161.1,48.8,155.6,48.8z"/>
			<path class="st1" d="M155.8,50.6H70.6C64.2,50.6,59,45.4,59,39V11.6C59,5.2,64.2,0,70.6,0h85.2c6.4,0,11.6,5.2,11.6,11.6V39
				C167.3,45.4,162.1,50.6,155.8,50.6z M70.6,3.5c-4.4,0-8.1,3.6-8.1,8.1V39c0,4.4,3.6,8.1,8.1,8.1h85.2c4.4,0,8.1-3.6,8.1-8.1V11.6
				c0-4.4-3.6-8.1-8.1-8.1H70.6z"/>
		</g>
		<g>
			<path class="st2" d="M169.1,48.8H84.3c-5.5,0-10-4.5-10-10V11.7c0-5.5,4.5-10,10-10h84.8c5.5,0,10,4.5,10,10v27.1
				C179.1,44.4,174.6,48.8,169.1,48.8z"/>
			<path class="st1" d="M169.3,50.6H84.1c-6.4,0-11.6-5.2-11.6-11.6V11.6C72.5,5.2,77.7,0,84.1,0h85.2c6.4,0,11.6,5.2,11.6,11.6V39
				C180.8,45.4,175.7,50.6,169.3,50.6z M84.1,3.5c-4.4,0-8.1,3.6-8.1,8.1V39c0,4.4,3.6,8.1,8.1,8.1h85.2c4.4,0,8.1-3.6,8.1-8.1V11.6
				c0-4.4-3.6-8.1-8.1-8.1H84.1z"/>
		</g>
		<g>
			<g>
				<path class="st1" d="M117.1,36.5c-2.2,0-3.4-0.2-3.6-0.6l-3.2-5.2l0-0.1c-0.2-0.3-0.5-0.5-0.9-0.5c-0.1,0-0.1,0-0.2,0
					c-0.4,0.1-0.7,0.5-0.8,0.9c0,0.3-0.2,3.8-0.2,4.1c0,0.5-0.2,0.9-0.3,1.1c0,0,0,0,0,0h-3.5c-0.3,0-0.9-0.2-0.9-0.6
					c0-7.5-0.1-17.2-0.1-20.8c0,0,0,0,0,0c1.9-0.3,2.4-0.3,2.5-0.3c0.1,0,0.1,0,0.3,0c0.3,0,0.8,0,1,0c0.1,0,0.4,0,0.6,0
					c0.2,0,0.4,0,0.5,0c0.2,0,0.2,0.1,0.2,0.4c0,0.8-0.1,1.7-0.1,2.5c-0.1,0.8-0.1,1.7-0.1,2.6v0.4c0,0.4,0.2,0.8,0.6,0.9
					c0.1,0.1,0.3,0.1,0.4,0.1c0.4,0,0.7-0.2,0.9-0.5l2.4-5c0.7-1.5,1.5-1.7,2.1-1.7h0.4c0,0,0,0,0,0c0.3,0.1,1.4,0.3,1.7,0.3
					c0,0,0.1,0,0.1,0c0.1,0,0.6,0.1,0.8,0.2c0.3,0.1,0.6,0.1,0.8,0.2c0.1,0,0.2,0.1,0.3,0.1c0,0.1,0,0.2,0,0.2l-5.6,9.9
					c-0.1,0.1-0.1,0.3-0.1,0.5v0.1c0,0.2,0.1,0.4,0.2,0.6c0.6,0.7,3,3.7,3.4,4.4c0.1,0.2,0.9,1.4,1.2,1.8c0,0,0,0,0,0
					c0.2,0.3,1,2,1.2,2.4c0,0,0,0,0,0.1c0.1,0.2,0.2,0.5,0.2,0.7c0,0.4-0.2,0.7-0.6,0.8c0,0,0,0,0,0H117.1z"/>
			</g>
			<g>
				<path class="st1" d="M128.9,35.9c-1.8,0-2.3-0.3-2.7-1.7c-0.1-0.5-0.4-1.9-0.5-2.3c0,0,0,0,0,0L123.6,15v-0.2
					c0.1-0.1,0.5-0.2,1.5-0.2c0.2,0,0.5,0,0.7,0c0.2,0,0.3,0,0.4,0c3,0,3,1.3,3.1,1.9l0.5,10.4c0,0.5,0.4,0.8,0.8,0.9
					c0,0,0.1,0,0.1,0c0.4,0,0.8-0.3,0.9-0.6c0.2-0.4,1-2.2,1.3-3.1l0.2-0.5c0.9-1.9,1.3-2.4,3.4-2.4h0.9c0,0,0,0,0,0
					c0.5,0.1,1,0.4,1.4,1.5c0.1,0.2,0.3,0.9,0.5,1.6c0.3,1,0.6,2.1,0.8,2.6c0,0.2,0.1,0.3,0.3,0.6c0.2,0.3,0.5,0.6,0.9,0.6
					c0,0,0,0,0,0c0.4,0,0.7-0.3,0.9-0.6l0.1-0.3c0,0,0-0.1,0-0.1c2.1-9.3,3-12.6,4.5-12.6c0.5,0,3.3,0.1,3.3,1.7
					c0,0.5,0,0.7-0.2,1.3l-4.2,15.2l-0.1,0.4l0,0c-0.4,1.5-0.8,2.7-1.7,2.7c-1,0-2.1,0-2.9-0.1c-1-0.1-1.2-0.2-1.2-0.3c0,0,0,0,0,0
					l-3.3-4.9c0-0.1-0.1-0.1-0.2-0.2l-0.2-0.2c-0.2-0.2-0.4-0.2-0.6-0.2c-0.1,0-0.2,0-0.3,0c-0.3,0.1-0.5,0.3-0.6,0.5
					c-0.1,0.1-0.3,0.5-0.4,0.6c0,0,0,0.1,0,0.1c-0.3,0.5-1.5,2.8-1.8,3.3C131.7,35.7,130.6,35.9,128.9,35.9z"/>
			</g>
		</g>
	</g>
	<g>
		<g>
			<path class="st3" d="M96.6,113.5H11.7c-5.5,0-10-4.5-10-10V76.5c0-5.5,4.5-10,10-10h84.8c5.5,0,10,4.5,10,10v27.1
				C106.6,109.1,102.1,113.5,96.6,113.5z"/>
			<path class="st1" d="M96.8,115.3H11.6c-6.4,0-11.6-5.2-11.6-11.6V76.3c0-6.4,5.2-11.6,11.6-11.6h85.2c6.4,0,11.6,5.2,11.6,11.6
				v27.5C108.3,110.1,103.1,115.3,96.8,115.3z M11.6,68.2c-4.4,0-8.1,3.6-8.1,8.1v27.5c0,4.4,3.6,8.1,8.1,8.1h85.2
				c4.4,0,8.1-3.6,8.1-8.1V76.3c0-4.4-3.6-8.1-8.1-8.1H11.6z"/>
		</g>
		<g>
			<path class="st4" d="M110.1,113.5H25.3c-5.5,0-10-4.5-10-10V76.5c0-5.5,4.5-10,10-10h84.8c5.5,0,10,4.5,10,10v27.1
				C120.1,109.1,115.6,113.5,110.1,113.5z"/>
			<path class="st1" d="M110.3,115.3H25.1c-6.4,0-11.6-5.2-11.6-11.6V76.3c0-6.4,5.2-11.6,11.6-11.6h85.2c6.4,0,11.6,5.2,11.6,11.6
				v27.5C121.8,110.1,116.6,115.3,110.3,115.3z M25.1,68.2c-4.4,0-8.1,3.6-8.1,8.1v27.5c0,4.4,3.6,8.1,8.1,8.1h85.2
				c4.4,0,8.1-3.6,8.1-8.1V76.3c0-4.4-3.6-8.1-8.1-8.1H25.1z"/>
		</g>
		<g>
			<g>
				<path class="st1" d="M58.1,101.2c-2.2,0-3.4-0.2-3.6-0.6l-3.2-5.2l0-0.1c-0.2-0.3-0.5-0.5-0.9-0.5c-0.1,0-0.1,0-0.2,0
					c-0.4,0.1-0.7,0.5-0.8,0.9c0,0.3-0.2,3.8-0.2,4.1c0,0.5-0.2,0.9-0.3,1.1c0,0,0,0,0,0h-3.5c-0.3,0-0.9-0.2-0.9-0.6
					c0-7.5-0.1-17.2-0.1-20.8c0,0,0,0,0,0c1.9-0.3,2.4-0.3,2.5-0.3c0.1,0,0.1,0,0.3,0c0.3,0,0.8,0,1,0c0.1,0,0.4,0,0.6,0
					c0.2,0,0.4,0,0.5,0c0.2,0,0.2,0.1,0.2,0.4c0,0.8-0.1,1.7-0.1,2.5c-0.1,0.8-0.1,1.7-0.1,2.6l0,0.4c0,0.4,0.2,0.8,0.6,0.9
					c0.1,0.1,0.3,0.1,0.4,0.1c0.4,0,0.7-0.2,0.9-0.5l2.4-5c0.7-1.5,1.5-1.7,2.1-1.7H56c0,0,0,0,0,0c0.3,0.1,1.4,0.3,1.7,0.3
					c0,0,0.1,0,0.1,0c0.1,0,0.6,0.1,0.8,0.2c0.3,0.1,0.6,0.1,0.8,0.2c0.1,0,0.2,0.1,0.3,0.1c0,0.1,0,0.2,0,0.2L54,89.8
					c-0.1,0.1-0.1,0.3-0.1,0.5v0.1c0,0.2,0.1,0.4,0.2,0.6c0.6,0.7,3,3.7,3.4,4.4c0.1,0.2,0.9,1.4,1.2,1.8c0,0,0,0,0,0
					c0.2,0.3,1,2,1.2,2.4c0,0,0,0,0,0.1c0.1,0.2,0.2,0.5,0.2,0.7c0,0.4-0.2,0.7-0.6,0.8c0,0,0,0,0,0H58.1z"/>
			</g>
			<g>
				<path class="st1" d="M69.9,100.6c-1.8,0-2.3-0.3-2.7-1.7c-0.1-0.5-0.4-1.9-0.5-2.3c0,0,0,0,0,0l-2.1-16.9v-0.2
					c0.1-0.1,0.5-0.2,1.5-0.2c0.2,0,0.5,0,0.7,0c0.2,0,0.3,0,0.4,0c3,0,3,1.3,3.1,1.9l0.5,10.4c0,0.5,0.4,0.8,0.8,0.9
					c0,0,0.1,0,0.1,0c0.4,0,0.8-0.3,0.9-0.6c0.2-0.4,1-2.2,1.3-3.1l0.2-0.5c0.9-1.9,1.3-2.4,3.4-2.4h0.9c0,0,0,0,0,0
					c0.5,0.1,1,0.4,1.4,1.5c0.1,0.2,0.3,0.9,0.5,1.6c0.3,1,0.6,2.1,0.8,2.6c0,0.2,0.1,0.3,0.3,0.6c0.2,0.3,0.5,0.6,0.9,0.6
					c0,0,0,0,0,0c0.4,0,0.7-0.3,0.9-0.6l0.1-0.3c0,0,0-0.1,0-0.1c2.1-9.3,3-12.6,4.5-12.6c0.5,0,3.3,0.1,3.3,1.7
					c0,0.5,0,0.7-0.2,1.3l-4.2,15.2l-0.1,0.4l0,0c-0.4,1.5-0.8,2.7-1.7,2.7c-1,0-2.1,0-2.9-0.1c-1-0.1-1.2-0.2-1.2-0.3c0,0,0,0,0,0
					l-3.3-4.9c0-0.1-0.1-0.1-0.2-0.2l-0.2-0.2c-0.2-0.2-0.4-0.2-0.6-0.2c-0.1,0-0.2,0-0.3,0c-0.3,0.1-0.5,0.3-0.6,0.5
					c-0.1,0.1-0.3,0.5-0.4,0.6c0,0,0,0.1,0,0.1c-0.3,0.5-1.5,2.8-1.8,3.3C72.7,100.4,71.6,100.6,69.9,100.6z"/>
			</g>
		</g>
	</g>
	<g>
		<g>
			<path class="st5" d="M155.6,178.3H70.8c-5.5,0-10-4.5-10-10v-27.1c0-5.5,4.5-10,10-10h84.8c5.5,0,10,4.5,10,10v27.1
				C165.6,173.8,161.1,178.3,155.6,178.3z"/>
			<path class="st1" d="M155.8,180H70.6c-6.4,0-11.6-5.2-11.6-11.6V141c0-6.4,5.2-11.6,11.6-11.6h85.2c6.4,0,11.6,5.2,11.6,11.6
				v27.5C167.3,174.8,162.1,180,155.8,180z M70.6,132.9c-4.4,0-8.1,3.6-8.1,8.1v27.5c0,4.4,3.6,8.1,8.1,8.1h85.2
				c4.4,0,8.1-3.6,8.1-8.1V141c0-4.4-3.6-8.1-8.1-8.1H70.6z"/>
		</g>
		<g>
			<path class="st6" d="M169.1,178.3H84.3c-5.5,0-10-4.5-10-10v-27.1c0-5.5,4.5-10,10-10h84.8c5.5,0,10,4.5,10,10v27.1
				C179.1,173.8,174.6,178.3,169.1,178.3z"/>
			<path class="st1" d="M169.3,180H84.1c-6.4,0-11.6-5.2-11.6-11.6V141c0-6.4,5.2-11.6,11.6-11.6h85.2c6.4,0,11.6,5.2,11.6,11.6
				v27.5C180.8,174.8,175.7,180,169.3,180z M84.1,132.9c-4.4,0-8.1,3.6-8.1,8.1v27.5c0,4.4,3.6,8.1,8.1,8.1h85.2
				c4.4,0,8.1-3.6,8.1-8.1V141c0-4.4-3.6-8.1-8.1-8.1H84.1z"/>
		</g>
		<g>
			<g>
				<path class="st1" d="M117.1,165.9c-2.2,0-3.4-0.2-3.6-0.6l-3.2-5.2l0-0.1c-0.2-0.3-0.5-0.5-0.9-0.5c-0.1,0-0.1,0-0.2,0
					c-0.4,0.1-0.7,0.5-0.8,0.9c0,0.3-0.2,3.8-0.2,4.1c0,0.5-0.2,0.9-0.3,1.1c0,0,0,0,0,0h-3.5c-0.3,0-0.9-0.2-0.9-0.6
					c0-7.5-0.1-17.2-0.1-20.8c0,0,0,0,0,0c1.9-0.3,2.4-0.3,2.5-0.3c0.1,0,0.1,0,0.3,0c0.3,0,0.8,0,1,0c0.1,0,0.4,0,0.6,0
					c0.2,0,0.4,0,0.5,0c0.2,0,0.2,0.1,0.2,0.4c0,0.8-0.1,1.7-0.1,2.5c-0.1,0.8-0.1,1.7-0.1,2.6v0.4c0,0.4,0.2,0.8,0.6,0.9
					c0.1,0.1,0.3,0.1,0.4,0.1c0.4,0,0.7-0.2,0.9-0.5l2.4-5c0.7-1.5,1.5-1.7,2.1-1.7h0.4c0,0,0,0,0,0c0.3,0.1,1.4,0.3,1.7,0.3
					c0,0,0.1,0,0.1,0c0.1,0,0.6,0.1,0.8,0.2c0.3,0.1,0.6,0.1,0.8,0.2c0.1,0,0.2,0.1,0.3,0.1c0,0.1,0,0.2,0,0.2l-5.6,9.9
					c-0.1,0.1-0.1,0.3-0.1,0.5v0.1c0,0.2,0.1,0.4,0.2,0.6c0.6,0.7,3,3.7,3.4,4.4c0.1,0.2,0.9,1.4,1.2,1.8c0,0,0,0,0,0
					c0.2,0.3,1,2,1.2,2.4c0,0,0,0,0,0.1c0.1,0.2,0.2,0.5,0.2,0.7c0,0.4-0.2,0.7-0.6,0.8c0,0,0,0,0,0H117.1z"/>
			</g>
			<g>
				<path class="st1" d="M128.9,165.3c-1.8,0-2.3-0.3-2.7-1.7c-0.1-0.5-0.4-1.9-0.5-2.3c0,0,0,0,0,0l-2.1-16.9v-0.2
					c0.1-0.1,0.5-0.2,1.5-0.2c0.2,0,0.5,0,0.7,0c0.2,0,0.3,0,0.4,0c3,0,3,1.3,3.1,1.9l0.5,10.4c0,0.5,0.4,0.8,0.8,0.9
					c0,0,0.1,0,0.1,0c0.4,0,0.8-0.3,0.9-0.6c0.2-0.4,1-2.2,1.3-3.1l0.2-0.5c0.9-1.9,1.3-2.4,3.4-2.4h0.9c0,0,0,0,0,0
					c0.5,0.1,1,0.4,1.4,1.5c0.1,0.2,0.3,0.9,0.5,1.6c0.3,1,0.6,2.1,0.8,2.6c0,0.2,0.1,0.3,0.3,0.6c0.2,0.3,0.5,0.6,0.9,0.6
					c0,0,0,0,0,0c0.4,0,0.7-0.3,0.9-0.6l0.1-0.3c0,0,0-0.1,0-0.1c2.1-9.3,3-12.6,4.5-12.6c0.5,0,3.3,0.1,3.3,1.7
					c0,0.5,0,0.7-0.2,1.3l-4.2,15.2l-0.1,0.4l0,0c-0.4,1.5-0.8,2.7-1.7,2.7c-1,0-2.1,0-2.9-0.1c-1-0.1-1.2-0.2-1.2-0.3c0,0,0,0,0,0
					l-3.3-4.9c0-0.1-0.1-0.1-0.2-0.2l-0.2-0.2c-0.2-0.2-0.4-0.2-0.6-0.2c-0.1,0-0.2,0-0.3,0c-0.3,0.1-0.5,0.3-0.6,0.5
					c-0.1,0.1-0.3,0.5-0.4,0.6c0,0,0,0.1,0,0.1c-0.3,0.5-1.5,2.8-1.8,3.3C131.7,165.1,130.6,165.3,128.9,165.3z"/>
			</g>
		</g>
	</g>
</g>
</svg>
