<svg width="208" height="180" viewBox="0 0 208 180" fill="none" xmlns="http://www.w3.org/2000/svg">
<path d="M119.8 127.6C119.8 107.5 136.1 91.1999 156.2 91.1999C166.2 91.1999 175.3 95.2999 181.9 101.9V19.7999C181.9 17.2999 181.3 14.9999 180.2 12.8999H6.30001C5.20001 14.9999 4.60001 17.2999 4.60001 19.7999V139.3C4.60001 147.7 11.4 154.4 19.7 154.4H131.5C124.3 147.7 119.8 138.2 119.8 127.6Z" fill="#FFF2E8"/>
<path d="M99.8 4.69995H16.6C9.8 4.69995 4.3 10.1 4.3 16.8V28H182.4V16.8C182.4 10.1 176.9 4.69995 170.1 4.69995H110H99.8Z" fill="#87796F"/>
<path d="M23.9 21.4999C26.7719 21.4999 29.1 19.1717 29.1 16.2999C29.1 13.428 26.7719 11.0999 23.9 11.0999C21.0281 11.0999 18.7 13.428 18.7 16.2999C18.7 19.1717 21.0281 21.4999 23.9 21.4999Z" fill="#F16C7A"/>
<path d="M23.9 22.6999C20.4 22.6999 17.5 19.7999 17.5 16.2999C17.5 12.7999 20.4 9.8999 23.9 9.8999C27.4 9.8999 30.3 12.7999 30.3 16.2999C30.3 19.7999 27.4 22.6999 23.9 22.6999ZM23.9 12.2999C21.7 12.2999 19.8 14.0999 19.8 16.3999C19.8 18.6999 21.6 20.4999 23.9 20.4999C26.2 20.4999 28 18.6999 28 16.3999C27.9 14.0999 26.1 12.2999 23.9 12.2999Z" fill="#3A312A"/>
<path d="M45.7 21.4999C48.5719 21.4999 50.9 19.1717 50.9 16.2999C50.9 13.428 48.5719 11.0999 45.7 11.0999C42.8281 11.0999 40.5 13.428 40.5 16.2999C40.5 19.1717 42.8281 21.4999 45.7 21.4999Z" fill="#D7E057"/>
<path d="M45.7 22.6999C42.2 22.6999 39.3 19.7999 39.3 16.2999C39.3 12.7999 42.2 9.8999 45.7 9.8999C49.2 9.8999 52.1 12.7999 52.1 16.2999C52.1 19.7999 49.2 22.6999 45.7 22.6999ZM45.7 12.2999C43.5 12.2999 41.6 14.0999 41.6 16.3999C41.6 18.6999 43.4 20.4999 45.7 20.4999C47.9 20.4999 49.8 18.6999 49.8 16.3999C49.7 14.0999 47.9 12.2999 45.7 12.2999Z" fill="#3A312A"/>
<path d="M67.5 21.4999C70.3719 21.4999 72.7 19.1717 72.7 16.2999C72.7 13.428 70.3719 11.0999 67.5 11.0999C64.6281 11.0999 62.3 13.428 62.3 16.2999C62.3 19.1717 64.6281 21.4999 67.5 21.4999Z" fill="#8AC6DD"/>
<path d="M67.5 22.6999C64 22.6999 61.1 19.7999 61.1 16.2999C61.1 12.7999 64 9.8999 67.5 9.8999C71 9.8999 73.9 12.7999 73.9 16.2999C73.9 19.7999 71 22.6999 67.5 22.6999ZM67.5 12.2999C65.3 12.2999 63.4 14.0999 63.4 16.3999C63.4 18.6999 65.2 20.4999 67.5 20.4999C69.7 20.4999 71.6 18.6999 71.6 16.3999C71.5 14.0999 69.7 12.2999 67.5 12.2999Z" fill="#3A312A"/>
<path d="M23.7 120.9H38.3V141.8H23.7V120.9Z" fill="#EF6D7A"/>
<path d="M38.3 142.9H23.7C23.1 142.9 22.5 142.4 22.5 141.7V120.8C22.5 120.2 23 119.6 23.7 119.6H38.3C38.9 119.6 39.5 120.1 39.5 120.8V141.7C39.5 142.4 39 142.9 38.3 142.9ZM24.8 140.6H37.1V122H24.8V140.6Z" fill="#3A312A"/>
<path d="M44 99.5999H58.6V141.8H44V99.5999Z" fill="#D6DF58"/>
<path d="M58.6 142.9H44C43.4 142.9 42.8 142.4 42.8 141.7V99.5999C42.8 98.9999 43.3 98.3999 44 98.3999H58.6C59.2 98.3999 59.8 98.8999 59.8 99.5999V141.8C59.8 142.4 59.3 142.9 58.6 142.9ZM45.2 140.6H57.5V100.8H45.2V140.6Z" fill="#3A312A"/>
<path d="M64.3 110.4H78.9V141.8H64.3V110.4Z" fill="#8AC5DC"/>
<path d="M78.9 142.9H64.3C63.7 142.9 63.1 142.4 63.1 141.7V110.3C63.1 109.7 63.6 109.1 64.3 109.1H78.9C79.5 109.1 80.1 109.6 80.1 110.3V141.7C80.1 142.4 79.6 142.9 78.9 142.9ZM65.5 140.6H77.8V111.5H65.5V140.6Z" fill="#3A312A"/>
<path d="M84.6 91.3999H99.2V141.8H84.6V91.3999Z" fill="#87796F"/>
<path d="M99.3 142.9H84.6C84 142.9 83.4 142.4 83.4 141.7V91.4C83.4 90.8 83.9 90.2 84.6 90.2H99.2C99.8 90.2 100.4 90.7 100.4 91.4V141.8C100.4 142.4 99.9 142.9 99.3 142.9ZM85.8 140.6H98.1V92.5H85.8V140.6Z" fill="#3A312A"/>
<path d="M139.8 65.8999H165.1C166.4 65.8999 167.5 64.7999 167.5 63.4999C167.5 62.1999 166.4 61.0999 165.1 61.0999H139.8C138.5 61.0999 137.4 62.1999 137.4 63.4999C137.4 64.8999 138.4 65.8999 139.8 65.8999Z" fill="#35414D"/>
<path d="M139.8 42.6999H165.1C166.4 42.6999 167.5 41.5999 167.5 40.2999C167.5 38.9999 166.4 37.8999 165.1 37.8999H139.8C138.5 37.8999 137.4 38.9999 137.4 40.2999C137.4 41.5999 138.4 42.6999 139.8 42.6999Z" fill="#35414D"/>
<path d="M139.8 54.3H165.1C166.4 54.3 167.5 53.2 167.5 51.9C167.5 50.6 166.4 49.5 165.1 49.5H139.8C138.5 49.5 137.4 50.6 137.4 51.9C137.4 53.2 138.4 54.3 139.8 54.3Z" fill="#35414D"/>
<path d="M125.5 42.6999H129.3C130.6 42.6999 131.7 41.5999 131.7 40.2999C131.7 38.9999 130.6 37.8999 129.3 37.8999H125.5C124.2 37.8999 123.1 38.9999 123.1 40.2999C123.1 41.5999 124.2 42.6999 125.5 42.6999Z" fill="#FFA733"/>
<path d="M125.5 54.3H129.3C130.6 54.3 131.7 53.2 131.7 51.9C131.7 50.6 130.6 49.5 129.3 49.5H125.5C124.2 49.5 123.1 50.6 123.1 51.9C123.1 53.2 124.2 54.3 125.5 54.3Z" fill="#FF5A5A"/>
<path d="M125.5 65.8999H129.3C130.6 65.8999 131.7 64.7999 131.7 63.4999C131.7 62.1999 130.6 61.0999 129.3 61.0999H125.5C124.2 61.0999 123.1 62.1999 123.1 63.4999C123.1 64.8999 124.2 65.8999 125.5 65.8999Z" fill="#35414D"/>
<path d="M163.1 20.6999H95.4C93 20.6999 91 18.6999 91 16.2999C91 13.8999 93 11.8999 95.4 11.8999H163.1C165.5 11.8999 167.5 13.8999 167.5 16.2999C167.5 18.6999 165.5 20.6999 163.1 20.6999Z" fill="#FDF6EC" stroke="#35414D" stroke-width="2.4091" stroke-miterlimit="10"/>
<path d="M45.5 73.5999C41.9 73.5999 39.9 73.2999 39.5 72.6999L34.1 63.9999L34 63.7999C33.7 63.1999 33.2 62.8999 32.6 62.8999C32.5 62.8999 32.4 62.8999 32.3 62.8999C31.6 62.9999 31.1 63.6999 31 64.3999C31 64.8999 30.6 70.5999 30.6 71.1999C30.5 72.0999 30.3 72.7999 30.2 72.9999H24.4C23.9 72.9999 22.9 72.6999 22.9 72.0999C22.8 59.5999 22.7 43.5999 22.7 37.5999C25.9 37.0999 26.7 36.9999 26.9 36.9999C27 36.9999 27.1 36.9999 27.3 36.9999C27.8 36.9999 28.5 36.9999 28.9 36.9999C29.1 36.9999 29.5 36.9999 30 36.9999C30.4 36.9999 30.7 36.9999 30.9 36.9999C31.2 36.9999 31.3 37.0999 31.3 37.6999C31.3 39.0999 31.2 40.4999 31.1 41.7999C31 43.1999 30.9 44.6999 30.9 46.0999V46.7999C30.9 47.4999 31.3 48.0999 31.9 48.3999C32.1 48.4999 32.3 48.4999 32.5 48.4999C33.1 48.4999 33.7 48.1999 33.9 47.5999L38 39.1999C39.2 36.6999 40.5 36.3999 41.5 36.3999H42.1C42.7 36.4999 44.4 36.7999 44.9 36.8999C45 36.8999 45 36.8999 45.1 36.8999C45.3 36.8999 46 37.0999 46.5 37.1999C47 37.2999 47.5 37.3999 47.8 37.4999C48 37.5999 48.2 37.6999 48.2 37.6999C48.2 37.8999 48.2 37.9999 48.2 38.0999L38.9 54.5999C38.8 54.7999 38.7 55.0999 38.7 55.3999V55.5999C38.7 55.9999 38.8 56.2999 39.1 56.5999C40 57.6999 44 62.7999 44.8 63.8999C45 64.1999 46.3 66.2999 46.7 66.8999C47 67.4999 48.3 70.1999 48.6 70.7999C48.6 70.7999 48.6 70.8999 48.7 70.8999C48.9 71.1999 49 71.7999 49 72.0999C49 72.6999 48.6 73.1999 48 73.3999H45.5V73.5999Z" fill="#35414D"/>
<path d="M65 72.5999C62 72.5999 61.2 72.0999 60.5 69.6999C60.3 68.8999 59.9 66.5 59.7 65.9L56.2 37.7999V37.5C56.4 37.4 57 37.2 58.7 37.2C59.1 37.2 59.5 37.2 59.8 37.2C60.1 37.2 60.3 37.2 60.5 37.2C65.5 37.2 65.6 39.3999 65.6 40.2999L66.4 57.5C66.4 58.2999 67 58.9 67.8 59C67.9 59 68 59 68 59C68.7 59 69.3 58.6 69.5 57.9C69.8 57.2 71.1 54.2 71.7 52.7L72.1 51.7999C73.5 48.5999 74.3 47.7999 77.7 47.7999H79.2C80 47.9999 80.9 48.4999 81.5 50.2999C81.6 50.6999 81.9 51.7 82.3 52.9C82.8 54.6 83.4 56.5 83.6 57.2C83.7 57.5 83.8 57.7999 84 58.2999C84.3 58.9 84.9 59.3 85.5 59.2C86.1 59.2 86.7 58.8 86.9 58.2L87.1 57.7999C87.1 57.6999 87.1 57.6999 87.2 57.5999C90.7 42.0999 92.1 36.7 94.6 36.7C95.5 36.7 100 36.7999 100 39.5999C100 40.4999 100 40.7999 99.7 41.7999L93 67.1999L92.8 67.9V68C92.1 70.5 91.4 72.5 90 72.5C88.3 72.5 86.6 72.4 85.2 72.3C83.6 72.2 83.3 71.9 83.2 71.9L77.6 63.7999C77.5 63.6999 77.4 63.6 77.3 63.5L76.9 63.2C76.6 62.9 76.2 62.7999 75.9 62.7999C75.8 62.7999 75.6 62.8 75.5 62.9C75 63 74.6 63.4 74.5 63.7999C74.4 64 74 64.6 73.9 64.8L73.8 64.9C73.3 65.8 71.3 69.6 70.8 70.3C69.7 72.2 67.9 72.5999 65 72.5999Z" fill="#35414D"/>
<path d="M4.7 152V154.4H7.1C6.2 153.6 5.4 152.8 4.7 152Z" fill="#FFF2E8"/>
<path d="M181.9 154.4V153.3C181.5 153.7 181.2 154 180.8 154.4H181.9Z" fill="#FFF2E8"/>
<path d="M7.10001 154.4C10.5 157.3 15 159.1 19.8 159.1H137.9C135.6 157.8 133.5 156.2 131.6 154.4H7.10001Z" fill="#35414D"/>
<path d="M4.7 19.8V12.9H6.4C8.8 8 13.9 4.7 19.8 4.7H166.8C172.7 4.7 177.8 8.1 180.3 13H182V101.9C183.7 103.6 185.3 105.6 186.7 107.6V19.8C186.7 8.9 177.8 0 166.9 0H19.9C8.9 0 0 8.9 0 19.8V139.3C0 144.1 1.8 148.6 4.7 152V139.3V19.8Z" fill="#35414D"/>
<path d="M4.7 12.8999V19.7999C4.7 17.2999 5.3 14.9999 6.4 12.8999H4.7Z" fill="#35414D"/>
<path d="M181.9 101.8V12.8999H180.2C181.3 14.9999 181.9 17.2999 181.9 19.7999V101.8Z" fill="#35414D"/>
<path d="M131.5 154.4H19.8C11.4 154.4 4.7 147.6 4.7 139.3V152C5.4 152.9 6.2 153.7 7.1 154.4H131.5Z" fill="#35414D"/>
<path d="M179.5 154.4H180.8C181.2 154.1 181.6 153.7 181.9 153.3V152C181.1 152.8 180.3 153.6 179.5 154.4Z" fill="white"/>
<path d="M172.5 152.9L175.8 156.2L179.8 160.1L193.8 174.1L198.1 162.8L180.4 145.2L172.5 152.9Z" fill="#5D6D7E"/>
<path d="M189.6 152.5L205.7 168.6C206.9 169.8 207.7 171.5 207.7 173.3C207.7 175.1 207 176.8 205.7 178C204.5 179.2 202.8 179.9 201 179.9C199.2 179.9 197.5 179.2 196.3 177.9L180.2 162L189.6 152.5Z" fill="#FF8E31"/>
<path d="M187.4 154.7L188.7 153.4L204.8 169.5C205.8 170.5 206.4 171.9 206.4 173.3C206.4 174.7 205.8 176.1 204.8 177.1C204.6 177.3 204.4 177.4 204.1 177.4C203.9 177.4 203.6 177.3 203.4 177.1C203 176.7 203 176.2 203.4 175.8C204.1 175.1 204.4 174.2 204.4 173.3C204.4 172.4 204 171.5 203.4 170.8L187.4 154.7Z" fill="#FECE59"/>
<path d="M180.2 162L189.6 152.5L188.9 151.8C188.5 151.4 187.9 151.1 187.2 151.1C186.5 151.1 186 151.4 185.5 151.8L179.4 157.9C179 158.3 178.7 158.9 178.7 159.6C178.7 160.2 179 160.8 179.4 161.2L180.2 162Z" fill="#34495E"/>
<path opacity="0.3" d="M156.2 103.8C142.5 103.8 131.4 114.9 131.4 128.6C131.4 142.3 142.5 153.4 156.2 153.4C169.9 153.4 181 142.3 181 128.6C180.9 114.9 169.8 103.8 156.2 103.8Z" fill="#34495E"/>
<path d="M156.2 98.3999C139.5 98.3999 126 111.9 126 128.6C126 145.3 139.5 158.8 156.2 158.8C172.9 158.8 186.4 145.3 186.4 128.6C186.4 111.9 172.8 98.3999 156.2 98.3999ZM156.2 155.5C141.3 155.5 129.3 143.4 129.3 128.6C129.3 113.7 141.4 101.7 156.2 101.7C171.1 101.7 183.1 113.8 183.1 128.6C183.1 143.5 171 155.5 156.2 155.5Z" fill="#34495E"/>
<path d="M156.2 101.6C141.3 101.6 129.3 113.7 129.3 128.5C129.3 143.4 141.4 155.4 156.2 155.4C171.1 155.4 183.1 143.3 183.1 128.5C183.1 113.7 171 101.6 156.2 101.6ZM156.2 153.4C142.5 153.4 131.4 142.3 131.4 128.6C131.4 114.9 142.5 103.8 156.2 103.8C169.9 103.8 181 114.9 181 128.6C180.9 142.3 169.8 153.4 156.2 153.4Z" fill="#5D6D7E"/>
<path opacity="0.2" d="M156.8 107.9C156.4 107.3 155.7 106.9 154.9 106.9C151.5 107.1 148.2 108.1 145.3 109.8C144.3 110.4 143.9 111.7 144.5 112.8C145.1 113.8 146.4 114.2 147.5 113.6C149.9 112.2 152.4 111.5 155.2 111.3C156.4 111.2 157.3 110.2 157.3 109C157.2 108.5 157 108.2 156.8 107.9Z" fill="white"/>
<path opacity="0.2" d="M142.8 115.1C142.7 114.9 142.5 114.8 142.4 114.6C141.5 113.8 140.1 114 139.3 114.9C137.1 117.6 135.5 120.9 134.9 124.4C134.1 128.6 134.5 132.8 136.1 136.7C136.6 137.8 137.8 138.4 139 137.9C140.1 137.4 140.7 136.2 140.2 135C138.9 131.9 138.6 128.5 139.2 125.2C139.7 122.4 141 119.8 142.7 117.6C143.3 116.9 143.3 115.8 142.8 115.1Z" fill="white"/>
</svg>
