<svg width="418" height="430" viewBox="0 0 418 430" fill="none" xmlns="http://www.w3.org/2000/svg">
<g clip-path="url(#clip0_831_110220)">
<path fill-rule="evenodd" clip-rule="evenodd" d="M305.617 403.159C305.617 406.996 302.531 410.083 298.693 410.083H117.926C114.089 410.083 111.003 406.996 111.003 403.159C111.003 391.648 120.346 382.305 131.857 382.305C158.718 382.305 180.49 360.533 180.49 333.672L180.323 298.887C180.407 293.465 179.739 288.126 178.488 282.87C176.319 271.692 169.646 261.849 160.053 255.593C153.379 252.006 150.793 243.664 154.213 236.907C157.633 230.15 165.892 227.398 172.732 230.818C181.408 235.739 188.832 242.663 194.421 251.005V208.545C194.421 200.871 200.677 194.698 208.352 194.614C216.026 194.698 222.199 200.871 222.282 208.545V250.838C227.788 242.58 235.212 235.739 243.888 230.818C250.645 227.481 258.903 230.15 262.323 236.907C265.743 243.664 263.157 252.006 256.484 255.593C246.891 261.766 240.301 271.609 238.048 282.787C236.797 288.042 236.13 293.465 236.213 298.803V333.672C236.213 360.533 257.985 382.305 284.846 382.305C296.274 382.305 305.617 391.648 305.617 403.159Z" fill="#A0522D"/>
<path fill-rule="evenodd" clip-rule="evenodd" d="M299.444 388.478C295.523 384.557 290.268 382.388 284.679 382.388C257.818 382.388 236.046 360.616 236.046 333.755V298.97C235.963 293.548 236.63 288.126 237.882 282.954C240.05 271.776 246.724 261.933 256.317 255.76C262.99 252.173 265.576 243.831 262.156 237.074C258.736 230.317 250.478 227.564 243.721 230.984C242.052 231.819 240.468 232.82 238.966 233.904C242.052 236.991 243.471 241.412 242.72 245.749C242.052 250.087 239.383 253.841 235.462 255.843C225.869 262.016 219.279 271.859 217.027 283.037C215.692 288.293 215.108 293.715 215.108 299.054V333.672C215.108 360.533 236.881 382.305 263.741 382.305C275.253 382.305 284.596 391.648 284.596 403.159C284.596 406.996 281.509 410.083 277.672 410.083H298.526C302.364 410.083 305.45 406.996 305.45 403.159C305.617 397.654 303.365 392.315 299.444 388.478Z" fill="#783E22"/>
<path fill-rule="evenodd" clip-rule="evenodd" d="M408.471 268.105C405.302 279.951 396.96 289.794 385.865 294.966C374.771 300.138 361.924 300.221 350.746 295.05C348.244 293.965 345.324 294.466 343.322 296.384C335.898 303.391 325.804 306.728 315.627 305.644C305.45 304.559 296.358 298.97 290.602 290.545C288.683 287.542 284.846 286.457 281.676 287.959C276.087 290.545 269.998 291.88 263.908 291.88C254.482 291.963 245.306 288.71 237.965 282.787C240.134 271.609 246.807 261.766 256.4 255.593C263.074 252.006 265.66 243.664 262.24 236.907C258.82 230.15 250.561 227.398 243.804 230.818C235.129 235.739 227.705 242.58 222.199 250.838V208.545C222.116 200.871 215.943 194.698 208.268 194.614C200.594 194.614 194.421 200.871 194.337 208.545V251.005C188.748 242.663 181.324 235.823 172.649 230.818C165.808 227.481 157.633 230.15 154.13 236.907C150.71 243.664 153.296 252.006 159.969 255.593C169.562 261.766 176.236 271.609 178.405 282.87C171.064 288.71 161.971 291.963 152.628 291.88C146.455 291.88 140.366 290.545 134.86 287.959C131.69 286.457 127.853 287.542 125.935 290.545C120.179 298.97 111.086 304.476 100.909 305.644C90.7322 306.728 80.6386 303.391 73.2144 296.384C71.2124 294.466 68.2928 293.965 65.7902 295.05C54.6122 300.221 41.7658 300.138 30.6712 294.966C19.5766 289.794 11.3183 279.951 8.06496 268.105C3.56039 251.005 10.6509 232.987 25.6662 223.56C28.0853 221.892 29.1697 218.972 28.419 216.136C27.835 213.634 27.5014 211.131 27.5014 208.545C27.5014 204.624 28.1687 200.62 29.5034 196.95C30.6712 193.863 29.5034 190.36 26.6672 188.608C12.5695 180.016 4.81166 163.916 6.98052 147.483C9.14939 131.05 20.7445 117.536 36.5939 112.865C39.597 111.947 41.599 109.111 41.3487 106.024V104.606C41.0151 85.42 53.9449 68.5696 72.5471 63.8982C78.0527 62.5635 83.8085 62.3133 89.3975 63.1474C91.2327 63.4811 93.2347 63.064 94.7363 61.8962C96.3212 60.8117 97.3222 59.06 97.5725 57.2248C99.8248 36.3703 117.593 20.6042 138.614 20.9379C146.372 20.9379 154.046 23.1068 160.636 27.2777C163.723 29.1963 167.727 28.4455 169.896 25.6093C179.155 13.9308 193.253 7.09053 208.101 7.09053C222.95 7.09053 237.131 13.9308 246.307 25.6093C248.476 28.4455 252.48 29.1963 255.566 27.2777C262.156 23.1068 269.831 20.9379 277.589 20.9379C298.61 20.6042 316.378 36.3703 318.63 57.2248C318.88 59.1434 319.965 60.8117 321.466 61.8962C323.051 62.9806 324.97 63.4811 326.805 63.1474C332.394 62.3133 338.15 62.5635 343.656 63.8982C362.258 68.5696 375.188 85.42 374.854 104.606V106.024C374.687 109.194 376.606 112.03 379.609 112.865C395.458 117.536 407.053 131.133 409.222 147.483C411.391 163.833 403.633 179.933 389.536 188.608C386.699 190.36 385.531 193.863 386.699 196.95C388.034 200.704 388.701 204.624 388.701 208.545C388.701 211.131 388.368 213.634 387.784 216.136C387.033 218.972 388.117 221.975 390.537 223.56C405.885 232.987 412.976 251.005 408.471 268.105Z" fill="#60A917"/>
<path d="M90.0648 236.323C124.618 236.323 152.628 208.313 152.628 173.76C152.628 139.207 124.618 111.196 90.0648 111.196C55.512 111.196 27.5013 139.207 27.5013 173.76C27.5013 208.313 55.512 236.323 90.0648 236.323Z" fill="#FFDC00"/>
<path fill-rule="evenodd" clip-rule="evenodd" d="M90.0649 111.196C86.5613 111.196 83.0578 111.53 79.6376 112.114C109.752 117.202 131.774 143.229 131.774 173.76C131.774 204.291 109.752 230.317 79.6376 235.406C102.995 239.493 126.602 230.067 140.7 210.964C154.797 191.861 156.966 166.586 146.205 145.398C135.444 124.209 113.756 111.113 90.0649 111.196Z" fill="#FEC108"/>
<path d="M208.268 132.134C242.821 132.134 270.832 104.123 270.832 69.5706C270.832 35.0177 242.821 7.00711 208.268 7.00711C173.715 7.00711 145.705 35.0177 145.705 69.5706C145.705 104.123 173.715 132.134 208.268 132.134Z" fill="#FFDC00"/>
<path fill-rule="evenodd" clip-rule="evenodd" d="M208.268 7.00711C204.765 7.00711 201.261 7.34079 197.841 7.92471C227.955 13.0132 249.977 39.0396 249.977 69.5706C249.977 100.102 227.955 126.128 197.841 131.217C221.198 135.304 244.805 125.878 258.903 106.775C273.001 87.7557 275.169 62.3967 264.409 41.2085C253.648 20.1037 231.959 6.84028 208.268 7.00711Z" fill="#FEC108"/>
<path d="M326.472 236.323C361.024 236.323 389.035 208.313 389.035 173.76C389.035 139.207 361.024 111.196 326.472 111.196C291.919 111.196 263.908 139.207 263.908 173.76C263.908 208.313 291.919 236.323 326.472 236.323Z" fill="#FFDC00"/>
<path fill-rule="evenodd" clip-rule="evenodd" d="M326.472 111.196C322.968 111.196 319.464 111.53 316.044 112.114C346.158 117.202 368.181 143.229 368.181 173.76C368.181 204.291 346.158 230.317 316.044 235.406C339.401 239.493 363.009 230.067 377.106 210.964C391.204 191.861 393.373 166.586 382.612 145.398C371.851 124.376 350.162 111.113 326.472 111.196Z" fill="#FEC108"/>
<path d="M382.228 107.56V106.122C382.562 83.3572 367.466 63.3853 345.698 57.8846C339.193 56.2767 332.521 56.0228 325.932 56.9537C323.263 32.2427 302.496 13.6249 278.06 14.1326C268.969 14.1326 260.045 16.6714 252.289 21.5798C241.613 7.9549 225.517 0 208.42 0C191.322 0 175.226 7.9549 164.717 21.6644C150.706 12.7786 133.191 11.7631 118.263 18.8717C103.334 25.9804 92.9919 40.4515 90.9068 57.0383C84.4015 56.0228 77.8128 56.3613 71.3909 57.8846C49.6231 63.3853 34.444 83.3572 34.7776 106.122L34.9444 107.814C16.4293 113.315 2.91826 129.394 0.416215 148.774C-2.08583 168.153 6.83813 187.194 23.2682 197.434C21.6002 202.004 20.8496 206.827 20.8496 211.651C20.8496 214.782 21.2666 217.998 22.1006 220.96C4.66969 232.131 -3.58706 253.541 1.58384 273.767C6.50452 292.724 22.1006 306.772 41.1161 309.733C50.4571 311.257 60.0483 309.903 68.6386 305.841C76.395 313.203 86.57 317.265 97.2453 317.265C111.173 317.181 124.267 310.157 132.107 298.478C145.201 304.656 160.297 304.571 173.391 298.393C173.474 299.917 173.558 301.525 173.558 303.217L173.725 338.422C173.725 361.779 155.043 380.735 132.024 380.735C116.678 380.735 104.251 393.345 104.251 408.916C104.251 416.702 110.506 423.048 118.179 423.048H298.91C306.583 423.048 312.838 416.702 312.838 408.916C312.838 393.345 300.411 380.735 285.065 380.735C262.047 380.735 243.365 361.779 243.365 338.422V303.133C243.365 301.44 243.448 299.832 243.532 298.309C256.792 304.317 271.888 304.487 285.232 298.647C292.989 310.241 305.999 317.265 319.844 317.265C330.436 317.35 340.611 313.119 348.117 305.671C361.128 311.764 376.14 311.764 389.151 305.587C402.161 299.409 411.836 287.731 415.505 273.682C420.676 253.457 412.503 232.131 395.155 220.876C395.906 217.829 396.24 214.613 396.24 211.482C396.24 206.658 395.406 201.835 393.738 197.265C408.25 188.294 417.09 172.3 417.09 155.121C416.84 133.287 402.828 114.077 382.228 107.56ZM284.982 394.952C292.655 394.952 298.91 401.299 298.91 409.085H118.179C118.179 401.299 124.434 394.952 132.107 394.952C162.799 394.952 187.736 369.734 187.736 338.507L187.569 303.217C187.569 265.643 163.633 253.118 163.633 253.118C160.297 251.256 158.962 247.11 160.63 243.64C161.798 241.271 164.217 239.747 166.886 239.747C167.97 239.747 168.971 240.001 169.888 240.424C177.478 244.909 184.066 251.172 188.987 258.619C190.738 261.158 193.824 262.258 196.743 261.327C199.662 260.396 201.581 257.688 201.664 254.642V211.567C201.664 207.674 204.75 204.543 208.586 204.543C210.421 204.543 212.256 205.304 213.507 206.743C214.841 208.012 215.509 209.789 215.509 211.651V254.557C215.509 257.603 217.51 260.396 220.346 261.327C223.182 262.258 226.434 261.158 228.102 258.619C233.023 251.172 239.528 244.994 247.118 240.593C250.537 238.901 254.541 240.34 256.209 243.725C257.877 247.11 256.626 251.256 253.456 253.118C253.206 253.288 229.353 265.728 229.353 303.302V338.507C229.353 369.649 254.29 394.868 284.982 394.952ZM386.398 185.332C380.727 188.802 378.308 195.911 380.644 202.258C381.728 205.22 382.228 208.435 382.228 211.567C382.228 213.598 381.978 215.629 381.561 217.575C380.143 223.33 382.395 229.338 387.232 232.723C399.743 240.594 405.664 255.826 401.911 270.297C399.242 280.283 392.32 288.577 383.062 292.977C373.805 297.378 363.046 297.378 353.788 292.977C348.701 290.692 342.779 291.708 338.776 295.601C332.855 301.271 324.765 304.063 316.591 303.133C308.418 302.202 301.162 297.716 296.575 290.862C292.738 284.938 285.232 282.822 278.894 285.784C268.385 290.692 256.209 290.1 246.2 284.092C248.536 276.475 253.29 269.959 259.795 265.558C270.053 260.227 274.14 247.448 268.886 237.039C263.631 226.63 251.038 222.483 240.779 227.815C236.609 230.1 232.689 232.808 229.186 236.024V211.482C229.103 199.803 219.846 190.41 208.336 190.325C196.827 190.325 187.486 199.803 187.486 211.482V236.108C183.983 232.892 180.063 230.1 175.893 227.815C165.718 222.653 153.291 226.799 148.12 237.039C142.949 247.364 146.869 260.058 156.961 265.558C163.466 269.959 168.22 276.475 170.472 284.092C160.547 290.015 148.37 290.692 137.945 285.699C131.607 282.738 124.184 284.853 120.264 290.692C115.677 297.547 108.338 302.032 100.248 302.963C92.1579 303.894 83.9845 301.102 78.063 295.432C73.9763 291.539 67.9714 290.523 62.8839 292.893C53.6264 297.209 42.951 297.124 33.6934 292.724C24.4358 288.323 17.5969 280.03 14.9281 270.128C11.175 255.742 17.0965 240.509 29.6067 232.554C34.444 229.254 36.7793 223.16 35.278 217.406C34.7776 215.459 34.6108 213.428 34.6108 211.397C34.6108 208.182 35.1112 204.966 36.1955 202.004C38.5307 195.741 36.1121 188.633 30.4408 185.163C18.6811 177.885 12.2592 164.345 14.0107 150.466C15.7621 136.587 25.4367 125.163 38.6141 121.185C44.619 119.493 48.7057 113.823 48.4555 107.476V105.953C48.1219 89.7888 58.8807 75.487 74.3099 71.5095C78.9804 70.3247 83.8177 70.1555 88.4882 70.8325C92.2413 71.4249 96.0777 70.494 99.1636 68.2091C102.166 66.0088 104.084 62.6237 104.668 58.9001C106.336 41.1285 121.265 27.6729 138.779 28.096C145.285 28.096 151.707 29.9578 157.211 33.5121C163.299 37.3203 171.222 35.8817 175.559 30.1271C183.482 19.9719 195.492 14.048 208.253 14.048C221.013 14.048 233.106 19.9719 240.946 30.1271C245.283 35.9663 253.29 37.405 259.378 33.5121C264.882 30.0425 271.221 28.1807 277.726 28.1807C295.324 27.7575 310.169 41.1285 311.837 58.9001C312.338 62.6237 314.339 66.0088 317.342 68.2937C320.428 70.5786 324.264 71.5095 328.017 70.9171C332.771 70.2401 337.608 70.4094 342.279 71.5941C357.708 75.5716 368.384 89.8735 368.05 106.037V107.222C367.716 113.654 371.72 119.493 377.808 121.27C390.985 125.247 400.66 136.672 402.495 150.551C404.33 164.43 398.158 178.054 386.398 185.332Z" fill="#35414D"/>
<path fill-rule="evenodd" clip-rule="evenodd" d="M90.0649 180.767C93.4016 180.767 96.3212 183.186 96.9051 186.523C97.4891 189.859 95.5705 193.113 92.4006 194.281C89.2307 195.448 85.7271 194.114 83.9754 191.194C81.9733 188.024 77.8024 186.94 74.5491 188.858C71.2958 190.777 70.128 194.864 71.8797 198.201C74.3823 202.456 78.3029 205.625 82.9743 207.21V208.628C82.9743 212.466 86.0608 215.552 89.898 215.552C93.7353 215.552 96.8217 212.466 96.8217 208.628V207.377C106.415 204.04 112.171 194.197 110.419 184.187C108.667 174.177 99.9916 166.919 89.898 166.919C86.5613 166.919 83.6417 164.5 83.0578 161.164C82.4738 157.827 84.3924 154.574 87.5623 153.406C90.7322 152.238 94.2358 153.573 95.9876 156.492C97.9896 159.662 102.16 160.747 105.414 158.828C108.667 156.909 109.835 152.822 108.083 149.485C105.581 145.231 101.66 142.061 96.9886 140.476V139.058C96.9886 135.221 93.9021 132.134 90.0649 132.134C86.2276 132.134 83.1412 135.221 83.1412 139.058V140.309C73.5481 143.646 67.7923 153.489 69.544 163.499C71.2958 173.509 79.9713 180.767 90.0649 180.767Z" fill="#35414D"/>
<path fill-rule="evenodd" clip-rule="evenodd" d="M133.776 119.705C131.857 118.036 129.188 117.619 126.852 118.454C124.517 119.288 122.765 121.457 122.431 123.959C122.097 126.462 123.098 128.964 125.1 130.466C148.291 149.151 152.628 182.769 135.027 206.71C117.426 230.651 83.9754 236.49 59.2836 219.973C56.1137 217.888 51.8594 218.805 49.774 221.975C47.6885 225.145 48.4393 229.4 51.6092 231.568C82.4738 252.256 124.183 244.915 146.205 214.968C168.228 185.021 162.722 143.062 133.776 119.705Z" fill="#35414D"/>
<path fill-rule="evenodd" clip-rule="evenodd" d="M326.472 180.767C329.808 180.767 332.728 183.186 333.312 186.523C333.896 189.859 331.977 193.113 328.807 194.281C325.637 195.448 322.134 194.114 320.382 191.194C318.38 188.024 314.209 186.94 310.956 188.858C307.702 190.777 306.535 194.864 308.286 198.201C310.789 202.456 314.71 205.625 319.381 207.21V208.628C319.381 212.466 322.467 215.552 326.305 215.552C330.142 215.552 333.228 212.466 333.228 208.628V207.377C342.821 204.04 348.577 194.197 346.826 184.187C345.074 174.177 336.398 166.919 326.305 166.919C322.968 166.919 320.048 164.5 319.464 161.164C318.88 157.827 320.799 154.574 323.969 153.406C327.139 152.238 330.642 153.573 332.394 156.492C334.396 159.662 338.567 160.747 341.82 158.828C345.074 156.909 346.242 152.822 344.49 149.485C341.987 145.231 338.067 142.061 333.395 140.476V139.058C333.395 135.221 330.309 132.134 326.472 132.134C322.634 132.134 319.548 135.221 319.548 139.058V140.309C309.955 143.646 304.199 153.489 305.951 163.499C307.619 173.426 316.295 180.767 326.472 180.767Z" fill="#35414D"/>
<path fill-rule="evenodd" clip-rule="evenodd" d="M208.268 76.4943C211.605 76.4943 214.525 78.9134 215.108 82.2502C215.692 85.5869 213.774 88.8402 210.604 90.008C207.434 91.1759 203.93 89.8412 202.179 86.9216C200.177 83.7517 196.006 82.6673 192.752 84.5859C189.499 86.5045 188.331 90.592 190.083 93.9287C192.586 98.183 196.506 101.353 201.178 102.938V104.356C201.178 108.193 204.264 111.28 208.101 111.28C211.939 111.28 215.025 108.193 215.025 104.356V103.105C224.618 99.768 230.374 89.9246 228.622 79.9145C227.121 69.8209 218.445 62.5635 208.268 62.5635C204.931 62.5635 202.012 60.1444 201.428 56.8077C200.844 53.4709 202.763 50.2176 205.933 49.0498C209.102 47.8819 212.606 49.2166 214.358 52.1363C216.36 55.3061 220.531 56.3906 223.784 54.472C227.037 52.5534 228.205 48.4659 226.453 45.1291C223.951 40.8748 220.03 37.7049 215.359 36.12V34.7019C215.359 30.8647 212.272 27.7782 208.435 27.7782C204.598 27.7782 201.511 30.8647 201.511 34.7019V35.9532C191.918 39.2899 186.162 49.1332 187.914 59.1434C189.416 69.237 198.091 76.4943 208.268 76.4943Z" fill="#35414D"/>
<path fill-rule="evenodd" clip-rule="evenodd" d="M357.336 220.057C332.644 236.573 299.277 230.734 281.593 206.793C263.908 182.852 268.329 149.235 291.436 130.549C293.438 129.048 294.439 126.545 294.105 124.043C293.772 121.54 292.02 119.455 289.684 118.537C287.348 117.619 284.679 118.12 282.76 119.788C253.814 143.145 248.392 185.105 270.415 215.052C292.437 244.999 334.146 252.34 365.094 231.652C368.264 229.483 369.098 225.229 367.013 221.975C364.844 218.722 360.506 217.888 357.336 220.057Z" fill="#35414D"/>
<path fill-rule="evenodd" clip-rule="evenodd" d="M277.755 69.5706C277.755 65.7334 274.669 62.6469 270.832 62.6469C266.995 62.6469 263.908 65.7334 263.908 69.5706C263.908 100.268 239.049 125.21 208.268 125.21C177.487 125.21 152.628 100.352 152.628 69.5706C152.628 65.7334 149.542 62.6469 145.705 62.6469C141.867 62.6469 138.781 65.7334 138.781 69.5706C138.781 107.943 169.896 139.058 208.268 139.058C246.641 139.058 277.755 107.943 277.755 69.5706Z" fill="#35414D"/>
</g>
<defs>
<clipPath id="clip0_831_110220">
<rect width="417.09" height="430" fill="white"/>
</clipPath>
</defs>
</svg>
