<svg width="1251" height="353" viewBox="0 0 1251 353" fill="none" xmlns="http://www.w3.org/2000/svg">
<path d="M605.879 175.395C605.391 174.679 605.141 173.828 605.164 172.961C605.188 172.095 605.484 171.259 606.01 170.571L657.433 109.287C657.657 108.995 657.95 108.762 658.285 108.609C658.621 108.456 658.988 108.388 659.356 108.41C659.724 108.433 660.081 108.545 660.395 108.738C660.709 108.93 660.971 109.197 661.158 109.515C695.39 156.306 758.47 168.703 792.682 215.517C793.168 216.234 793.416 217.085 793.392 217.95C793.369 218.815 793.074 219.651 792.551 220.341L741.128 281.624C740.904 281.917 740.611 282.15 740.276 282.303C739.94 282.456 739.573 282.524 739.205 282.501C738.837 282.479 738.48 282.366 738.166 282.174C737.852 281.981 737.59 281.714 737.403 281.397C703.196 234.575 640.111 222.186 605.879 175.395Z" fill="#7DDF96"/>
<path d="M790.754 217.815L739.331 279.098C705.118 232.284 642.039 219.888 607.807 173.097L659.23 111.813C693.462 158.604 756.541 171.001 790.754 217.815ZM794.611 213.219C760.398 166.405 697.319 154.008 663.087 107.217C661.072 104.469 657.848 104.126 655.694 106.692L604.271 167.976C603.213 169.361 602.613 171.041 602.555 172.783C602.498 174.525 602.985 176.241 603.95 177.693C638.157 224.515 701.236 236.911 735.449 283.725C737.464 286.473 740.688 286.816 742.841 284.25L794.264 222.966C795.323 221.582 795.922 219.901 795.98 218.159C796.038 216.417 795.55 214.701 794.585 213.249L794.611 213.219Z" fill="#515979"/>
<path d="M748.007 257.698L773.146 227.738C768.362 221.974 767.844 213.303 772.569 207.673C741.991 177.747 698.846 162.782 668.248 132.865C663.53 138.488 655.295 138.967 650.561 133.206L625.466 163.112C630.243 168.869 630.76 177.541 626.036 183.171C656.621 213.104 699.766 228.068 730.363 257.971C735.017 252.425 743.222 251.934 748.007 257.698Z" fill="#00C853"/>
<path d="M725.816 212.239C712.606 227.981 690.23 232.977 675.294 224.034C660.358 215.091 659.472 194.492 672.765 178.65C686.057 162.808 708.356 157.904 723.272 166.856C738.187 175.808 739.115 196.389 725.816 212.239Z" fill="#7DDF96"/>
<path d="M662.644 171.358C658.549 176.238 651.384 177.34 646.917 173.501C642.45 169.661 642.402 162.298 646.497 157.418C650.591 152.538 657.299 151.966 661.772 155.798C666.245 159.63 666.77 166.44 662.644 171.358Z" fill="#7DDF96"/>
<path d="M752.084 233.471C747.983 238.358 741.282 238.923 736.808 235.091C732.335 231.259 731.829 224.425 735.937 219.53C740.044 214.635 747.196 213.548 751.663 217.388C756.13 221.227 756.185 228.583 752.084 233.471Z" fill="#7DDF96"/>
<path d="M701.6 201.24C701.334 201.016 701.155 200.706 701.092 200.364C701.029 200.023 701.087 199.669 701.256 199.365C701.424 199.062 701.693 198.826 702.017 198.698C702.34 198.57 702.698 198.559 703.029 198.666C705.582 199.623 707.804 201.297 709.427 203.487C709.643 203.818 709.718 204.222 709.638 204.609C709.557 204.996 709.327 205.336 708.998 205.554C708.668 205.771 708.266 205.848 707.88 205.768C707.494 205.689 707.155 205.46 706.938 205.131C705.698 203.511 704.04 202.26 702.142 201.512C701.943 201.463 701.758 201.37 701.6 201.24Z" fill="#515979"/>
<path d="M705.543 201.442C708.081 203.572 711.866 203.241 713.996 200.702C716.126 198.164 715.795 194.379 713.256 192.249C710.718 190.119 706.933 190.45 704.803 192.989C702.673 195.527 703.005 199.312 705.543 201.442Z" fill="#515979"/>
<path d="M709.622 198.899C710.257 199.431 711.203 199.348 711.735 198.714C712.268 198.079 712.185 197.133 711.55 196.6C710.916 196.068 709.97 196.151 709.437 196.785C708.905 197.42 708.987 198.366 709.622 198.899Z" fill="white"/>
<path d="M685.65 189.227C685.384 189.003 685.205 188.694 685.142 188.352C685.079 188.01 685.137 187.657 685.306 187.353C685.475 187.049 685.744 186.813 686.067 186.685C686.39 186.558 686.748 186.546 687.079 186.653C689.636 187.603 691.86 189.278 693.477 191.474C693.701 191.804 693.784 192.209 693.71 192.6C693.635 192.991 693.407 193.337 693.078 193.56C692.748 193.784 692.343 193.867 691.952 193.793C691.561 193.718 691.215 193.49 690.991 193.161C689.756 191.536 688.097 190.284 686.196 189.541C685.994 189.475 685.809 189.368 685.65 189.227Z" fill="#515979"/>
<path d="M689.563 189.403C692.101 191.533 695.885 191.202 698.015 188.664C700.146 186.125 699.814 182.341 697.276 180.211C694.738 178.081 690.953 178.412 688.823 180.95C686.693 183.489 687.024 187.273 689.563 189.403Z" fill="#515979"/>
<path d="M693.656 186.859C694.29 187.391 695.236 187.309 695.769 186.674C696.301 186.039 696.218 185.093 695.584 184.561C694.949 184.028 694.003 184.111 693.471 184.746C692.938 185.38 693.021 186.326 693.656 186.859Z" fill="white"/>
<path d="M714.895 183.638C715.926 183.737 716.929 184.03 717.852 184.501C718.779 184.951 719.63 185.542 720.376 186.253C721.159 186.996 721.795 187.879 722.251 188.857C722.73 189.856 722.944 190.962 722.873 192.068C722.862 192.296 722.805 192.519 722.708 192.725C722.61 192.931 722.472 193.116 722.303 193.268C722.134 193.421 721.936 193.539 721.721 193.615C721.506 193.691 721.278 193.723 721.05 193.711C720.62 193.677 720.218 193.488 719.918 193.178L719.643 192.883C719.096 192.306 718.725 191.799 718.271 191.314C717.817 190.828 717.406 190.353 716.887 189.852L715.346 188.389C714.776 187.894 714.232 187.368 713.718 186.814L713.433 186.484C713.284 186.312 713.172 186.112 713.101 185.895C713.031 185.678 713.005 185.45 713.025 185.223C713.045 184.996 713.11 184.776 713.217 184.575C713.324 184.373 713.47 184.196 713.647 184.052C713.992 183.755 714.441 183.606 714.895 183.638Z" fill="#515979"/>
<path d="M701.904 177.854C701.253 177.556 700.566 177.084 699.945 176.719L698.111 175.637C697.521 175.299 696.93 175.038 696.356 174.726C695.782 174.414 695.168 174.213 694.477 173.854L694.12 173.673C693.731 173.455 693.441 173.095 693.312 172.667C693.184 172.24 693.226 171.78 693.43 171.383C693.625 171 693.96 170.706 694.366 170.563C695.407 170.184 696.528 170.081 697.62 170.264C698.684 170.425 699.707 170.792 700.631 171.343C701.495 171.87 702.274 172.528 702.938 173.291C703.638 174.063 704.181 174.963 704.54 175.941C704.621 176.149 704.66 176.371 704.654 176.595C704.649 176.818 704.599 177.038 704.508 177.242C704.417 177.446 704.286 177.63 704.124 177.783C703.961 177.936 703.77 178.056 703.561 178.135C703.145 178.294 702.684 178.286 702.274 178.112L701.904 177.854Z" fill="#515979"/>
<path d="M684.358 212.267C681.708 210.045 680.012 206.89 679.623 203.453C679.234 200.016 680.181 196.562 682.267 193.803C682.384 193.645 682.532 193.511 682.701 193.41C682.87 193.309 683.057 193.242 683.252 193.214C683.447 193.186 683.645 193.197 683.836 193.245C684.027 193.294 684.206 193.381 684.363 193.499L703.558 207.961C703.849 208.21 704.034 208.56 704.078 208.941C704.122 209.321 704.021 209.704 703.794 210.013C701.646 212.871 698.451 214.759 694.912 215.264C691.373 215.77 687.777 214.85 684.915 212.708C684.731 212.554 684.555 212.406 684.371 212.252L684.358 212.267Z" fill="#515979"/>
<path d="M702.626 209.15C701.678 210.409 700.492 211.47 699.134 212.271C697.777 213.071 696.274 213.597 694.714 213.817C693.153 214.038 691.564 213.948 690.038 213.554C688.512 213.16 687.078 212.47 685.819 211.522L685.329 211.11C682.97 209.136 681.458 206.331 681.108 203.275C680.757 200.218 681.594 197.144 683.445 194.687L702.64 209.149L702.626 209.15ZM704.568 206.851L704.446 206.748L685.257 192.278C684.615 191.803 683.812 191.599 683.021 191.707C682.63 191.763 682.255 191.896 681.915 192.097C681.576 192.299 681.28 192.565 681.044 192.881C678.731 195.953 677.686 199.795 678.124 203.615C678.563 207.435 680.452 210.941 683.401 213.408L684.006 213.916C685.578 215.102 687.37 215.967 689.276 216.461C691.183 216.955 693.169 217.068 695.12 216.795C697.071 216.521 698.948 215.866 700.646 214.867C702.344 213.868 703.828 212.544 705.014 210.971C705.479 210.357 705.69 209.587 705.603 208.822C705.516 208.057 705.138 207.354 704.548 206.859L704.568 206.851Z" fill="#515979"/>
<path d="M685.587 211.728C689.523 214.709 693.797 215.697 695.132 213.933C696.468 212.17 694.359 208.324 690.423 205.343C686.486 202.361 682.212 201.374 680.877 203.137C679.541 204.901 681.65 208.747 685.587 211.728Z" fill="#EF7D7D"/>
<path d="M44.5268 334.832C43.6695 334.957 42.7947 334.808 42.0266 334.407C41.2586 334.006 40.6365 333.374 40.2487 332.599L7.70979 259.515C7.54514 259.186 7.46402 258.82 7.47356 258.452C7.48309 258.083 7.58299 257.723 7.76448 257.402C7.94596 257.081 8.20347 256.81 8.51436 256.612C8.82526 256.414 9.18002 256.296 9.54747 256.267C66.6093 246.011 105.404 194.75 162.478 184.522C163.335 184.4 164.208 184.55 164.976 184.951C165.743 185.351 166.366 185.982 166.756 186.755L199.295 259.839C199.459 260.168 199.54 260.534 199.531 260.902C199.521 261.27 199.421 261.631 199.24 261.952C199.059 262.272 198.801 262.544 198.49 262.742C198.179 262.94 197.824 263.058 197.457 263.087C140.379 273.306 101.589 324.576 44.5268 334.832Z" fill="#7DDF96"/>
<path d="M163.698 187.263L196.237 260.346C139.163 270.575 100.368 321.835 43.3066 332.091L10.7677 259.008C67.8295 248.752 106.624 197.491 163.698 187.263ZM161.257 181.781C104.183 192.01 65.3891 243.271 8.32726 253.526C4.97397 254.133 3.25272 256.88 4.61529 259.941L37.1542 333.024C37.9347 334.583 39.1821 335.859 40.7226 336.674C42.263 337.489 44.0195 337.803 45.747 337.573C102.825 327.353 141.619 276.092 198.693 265.864C202.047 265.258 203.768 262.51 202.405 259.45L169.867 186.366C169.086 184.808 167.839 183.532 166.298 182.716C164.758 181.901 163.001 181.587 161.274 181.818L161.257 181.781Z" fill="#515979"/>
<path d="M180.805 243.168L164.898 207.439C157.62 209.212 149.6 205.876 146.61 199.162C106.308 213.526 73.945 245.744 33.6421 260.131C36.6276 266.836 33.4484 274.447 26.1949 276.177L42.0739 311.842C49.3426 310.073 57.363 313.409 60.3525 320.123C100.664 305.755 133.027 273.536 173.317 259.145C170.372 252.531 173.528 244.941 180.805 243.168Z" fill="#00C853"/>
<path d="M130.219 243.184C138.577 261.958 133.258 284.259 118.673 293.763C104.088 303.267 85.1847 295.034 76.7734 276.142C68.3621 257.25 73.7299 235.058 88.3142 225.576C102.899 216.095 121.804 224.283 130.219 243.184Z" fill="#7DDF96"/>
<path d="M65.7831 282.042C68.374 287.862 66.2239 294.785 60.8147 297.116C55.4054 299.448 48.766 296.263 46.1751 290.444C43.5842 284.625 46.0098 278.345 51.415 276.004C56.8202 273.663 63.1718 276.177 65.7831 282.042Z" fill="#7DDF96"/>
<path d="M160.817 228.883C163.412 234.711 160.982 240.981 155.577 243.322C150.172 245.663 143.808 243.122 141.209 237.284C138.61 231.447 140.768 224.542 146.178 222.21C151.587 219.878 158.222 223.054 160.817 228.883Z" fill="#7DDF96"/>
<path d="M109.718 260.128C109.4 260.268 109.043 260.294 108.708 260.201C108.373 260.107 108.081 259.9 107.882 259.616C107.683 259.331 107.589 258.985 107.616 258.639C107.643 258.292 107.79 257.966 108.031 257.715C110.01 255.84 112.488 254.577 115.168 254.078C115.561 254.03 115.957 254.138 116.269 254.38C116.582 254.622 116.787 254.978 116.839 255.37C116.888 255.761 116.781 256.156 116.541 256.468C116.3 256.781 115.946 256.985 115.555 257.036C113.556 257.44 111.704 258.382 110.2 259.76C110.069 259.917 109.904 260.043 109.718 260.128Z" fill="#515979"/>
<path d="M111.628 256.672C114.655 255.324 116.016 251.778 114.668 248.751C113.321 245.723 109.774 244.362 106.747 245.71C103.72 247.058 102.358 250.604 103.706 253.631C105.054 256.659 108.6 258.02 111.628 256.672Z" fill="#515979"/>
<path d="M111.13 251.891C111.887 251.554 112.227 250.668 111.89 249.911C111.553 249.154 110.667 248.814 109.91 249.151C109.153 249.488 108.813 250.374 109.15 251.131C109.487 251.888 110.373 252.228 111.13 251.891Z" fill="white"/>
<path d="M91.929 269.197C91.611 269.338 91.2541 269.364 90.9192 269.27C90.5844 269.177 90.2923 268.97 90.0931 268.685C89.8939 268.4 89.7998 268.055 89.8269 267.708C89.8541 267.362 90.0007 267.035 90.2419 266.785C92.216 264.903 94.6967 263.639 97.3794 263.147C97.7738 263.091 98.1744 263.193 98.4932 263.432C98.812 263.671 99.0229 264.027 99.0795 264.421C99.136 264.815 99.0336 265.216 98.7947 265.535C98.5559 265.854 98.2001 266.064 97.8058 266.121C95.8043 266.519 93.9514 267.462 92.4506 268.845C92.3027 268.997 92.1251 269.117 91.929 269.197Z" fill="#515979"/>
<path d="M93.8021 265.758C96.8293 264.41 98.1907 260.864 96.8429 257.836C95.4951 254.809 91.9484 253.448 88.9212 254.796C85.894 256.143 84.5326 259.69 85.8804 262.717C87.2282 265.744 90.7748 267.106 93.8021 265.758Z" fill="#515979"/>
<path d="M93.3095 260.964C94.0663 260.627 94.4067 259.74 94.0697 258.984C93.7328 258.227 92.8461 257.886 92.0893 258.223C91.3325 258.56 90.9921 259.447 91.3291 260.204C91.6661 260.961 92.5527 261.301 93.3095 260.964Z" fill="white"/>
<path d="M99.7253 240.462C100.267 239.579 100.97 238.805 101.797 238.182C102.608 237.547 103.513 237.041 104.479 236.682C105.489 236.304 106.562 236.12 107.641 236.139C108.749 236.146 109.837 236.438 110.799 236.987C110.999 237.097 111.175 237.245 111.318 237.424C111.46 237.602 111.566 237.806 111.629 238.025C111.692 238.245 111.711 238.474 111.685 238.701C111.659 238.927 111.588 239.146 111.477 239.346C111.258 239.717 110.912 239.996 110.502 240.13L110.116 240.247C109.358 240.486 108.74 240.597 108.104 240.793C107.469 240.988 106.862 241.149 106.183 241.396L104.194 242.139C103.498 242.435 102.787 242.693 102.064 242.913L101.643 243.023C101.423 243.082 101.193 243.096 100.968 243.064C100.742 243.032 100.526 242.955 100.33 242.838C100.135 242.72 99.9657 242.565 99.8317 242.381C99.6977 242.197 99.6021 241.988 99.5505 241.766C99.4348 241.325 99.4976 240.857 99.7253 240.462Z" fill="#515979"/>
<path d="M88.8315 249.603C88.2784 250.057 87.5527 250.468 86.9529 250.866L85.1768 252.04C84.6136 252.423 84.1204 252.839 83.5886 253.218C83.0568 253.597 82.6063 254.061 81.9811 254.525L81.6615 254.766C81.2952 255.02 80.8443 255.123 80.404 255.051C79.9637 254.98 79.5684 254.74 79.3016 254.383C79.042 254.039 78.9249 253.609 78.9748 253.182C79.0895 252.08 79.4883 251.027 80.1324 250.127C80.7435 249.241 81.521 248.482 82.4215 247.892C83.2747 247.347 84.2065 246.936 85.1845 246.673C86.1849 246.383 87.2318 246.289 88.2679 246.395C88.4906 246.414 88.7073 246.476 88.9057 246.579C89.104 246.682 89.28 246.823 89.4234 246.994C89.5669 247.165 89.675 247.363 89.7414 247.577C89.8078 247.79 89.8313 248.014 89.8104 248.237C89.7714 248.68 89.5621 249.091 89.2263 249.384L88.8315 249.603Z" fill="#515979"/>
<path d="M112.071 280.459C108.912 281.867 105.332 282.007 102.073 280.851C98.8135 279.694 96.1233 277.329 94.559 274.244C94.4679 274.069 94.4124 273.878 94.3956 273.682C94.3788 273.486 94.401 273.288 94.461 273.101C94.521 272.913 94.6176 272.739 94.7452 272.589C94.8728 272.439 95.0289 272.316 95.2044 272.227L116.617 261.314C116.969 261.162 117.364 261.149 117.726 261.276C118.087 261.404 118.386 261.663 118.565 262.001C120.191 265.185 120.489 268.884 119.391 272.287C118.294 275.69 115.891 278.518 112.711 280.151C112.492 280.249 112.282 280.343 112.063 280.44L112.071 280.459Z" fill="#515979"/>
<path d="M117.277 262.673C117.993 264.077 118.426 265.608 118.551 267.18C118.676 268.751 118.49 270.331 118.004 271.831C117.517 273.33 116.741 274.719 115.717 275.918C114.694 277.117 113.445 278.103 112.041 278.819L111.456 279.079C108.648 280.334 105.464 280.463 102.564 279.438C99.6628 278.413 97.2664 276.314 95.8693 273.573L117.282 262.66L117.277 262.673ZM116.062 259.919L115.916 259.985L94.4989 270.888C93.7905 271.257 93.2545 271.889 93.0055 272.648C92.8846 273.023 92.8391 273.419 92.8714 273.812C92.9037 274.205 93.0132 274.588 93.1938 274.939C94.9405 278.365 97.936 280.988 101.562 282.269C105.187 283.549 109.166 283.388 112.677 281.82L113.398 281.498C115.154 280.605 116.716 279.374 117.996 277.877C119.276 276.379 120.248 274.644 120.858 272.771C121.467 270.898 121.701 268.923 121.547 266.959C121.394 264.995 120.854 263.081 119.961 261.325C119.612 260.638 119.013 260.111 118.287 259.854C117.561 259.596 116.764 259.628 116.061 259.942L116.062 259.919Z" fill="#515979"/>
<path d="M112.125 279.118C116.53 276.887 119.291 273.479 118.291 271.505C117.292 269.532 112.911 269.741 108.505 271.973C104.1 274.204 101.339 277.612 102.339 279.585C103.338 281.559 107.719 281.349 112.125 279.118Z" fill="#EF7D7D"/>
<path d="M260.345 141.886C259.585 141.47 258.976 140.825 258.604 140.043C258.232 139.26 258.116 138.381 258.272 137.528L276.268 59.5789C276.335 59.2164 276.49 58.876 276.719 58.5875C276.949 58.299 277.245 58.0712 277.583 57.9242C277.921 57.7773 278.29 57.7156 278.658 57.7446C279.025 57.7736 279.38 57.8924 279.691 58.0906C331.434 84.2406 393.266 66.6489 445.003 92.8282C445.761 93.2467 446.369 93.8922 446.74 94.6739C447.112 95.4556 447.23 96.3342 447.076 97.1862L429.08 175.136C429.013 175.498 428.858 175.839 428.629 176.127C428.399 176.416 428.103 176.643 427.765 176.79C427.427 176.937 427.058 176.999 426.69 176.97C426.323 176.941 425.968 176.822 425.658 176.624C373.921 150.445 312.089 168.036 260.345 141.886Z" fill="#7DDF96"/>
<path d="M444.328 95.7513L426.332 173.701C374.595 147.522 312.763 165.113 261.02 138.963L279.016 61.0137C330.76 87.1637 392.592 69.572 444.328 95.7513ZM445.678 89.9051C393.941 63.7258 332.109 81.3175 280.366 55.1675C277.323 53.6337 274.294 54.7922 273.541 58.0563L255.545 136.006C255.23 137.72 255.459 139.49 256.198 141.068C256.938 142.646 258.151 143.954 259.67 144.81C311.405 170.999 373.237 153.407 424.974 179.586C428.017 181.12 431.045 179.961 431.798 176.697L449.795 98.7477C450.109 97.0334 449.881 95.2637 449.141 93.6855C448.402 92.1073 447.188 90.7993 445.669 89.9441L445.678 89.9051Z" fill="#515979"/>
<path d="M424.347 150.695L433.145 112.587C426.265 109.623 421.867 102.132 423.521 94.9706C382.69 82.188 337.453 88.4423 296.608 75.6769C294.957 82.8288 287.838 86.994 281.004 84.0103L272.222 122.05C279.091 125.011 283.489 132.502 281.836 139.664C322.676 152.449 367.913 146.194 408.748 158.957C410.379 151.893 417.467 147.731 424.347 150.695Z" fill="#00C853"/>
<path d="M383.936 120.264C379.314 140.288 361.644 154.897 344.276 153.71C326.908 152.523 316.767 134.571 321.419 114.421C326.071 94.2711 343.713 79.7783 361.067 80.9829C378.42 82.1876 388.591 100.105 383.936 120.264Z" fill="#7DDF96"/>
<path d="M309.09 112.519C307.657 118.726 301.774 122.961 296.051 121.568C290.327 120.175 286.942 113.635 288.375 107.429C289.808 101.222 295.524 97.6666 301.249 99.05C306.975 100.433 310.535 106.264 309.09 112.519Z" fill="#7DDF96"/>
<path d="M416.98 127.257C415.545 133.473 409.831 137.019 404.106 135.635C398.38 134.252 394.827 128.392 396.265 122.166C397.702 115.94 403.581 111.724 409.304 113.118C415.028 114.511 418.416 121.04 416.98 127.257Z" fill="#7DDF96"/>
<path d="M1063.87 310.898C1063.08 310.549 1062.41 309.96 1061.97 309.213C1061.53 308.466 1061.34 307.6 1061.42 306.737L1072.56 227.516C1072.59 227.149 1072.72 226.796 1072.92 226.489C1073.12 226.181 1073.4 225.929 1073.72 225.753C1074.05 225.577 1074.41 225.483 1074.78 225.48C1075.15 225.477 1075.51 225.564 1075.84 225.735C1129.66 247.276 1189.73 224.362 1243.55 245.932C1244.34 246.283 1245 246.873 1245.44 247.62C1245.88 248.366 1246.07 249.231 1245.99 250.093L1234.86 329.314C1234.82 329.681 1234.7 330.034 1234.5 330.341C1234.29 330.649 1234.02 330.902 1233.69 331.077C1233.37 331.253 1233.01 331.347 1232.64 331.35C1232.27 331.353 1231.91 331.266 1231.58 331.095C1177.76 309.525 1117.69 332.439 1063.87 310.898Z" fill="#7DDF96"/>
<path d="M1243.13 248.903L1232 328.125C1178.18 306.554 1118.11 329.468 1064.29 307.927L1075.42 228.706C1129.25 250.246 1189.31 227.333 1243.13 248.903ZM1243.97 242.962C1190.14 221.391 1130.08 244.305 1076.26 222.764C1073.09 221.501 1070.17 222.919 1069.71 226.237L1058.57 305.458C1058.41 307.193 1058.79 308.936 1059.67 310.444C1060.54 311.952 1061.86 313.149 1063.45 313.869C1117.27 335.449 1177.34 312.535 1231.16 334.106C1234.32 335.369 1237.24 333.951 1237.7 330.633L1248.84 251.412C1249 249.677 1248.62 247.933 1247.75 246.426C1246.87 244.918 1245.55 243.721 1243.96 243.001L1243.97 242.962Z" fill="#515979"/>
<path d="M1228.01 305.379L1233.46 266.649C1226.35 264.297 1221.31 257.217 1222.33 249.939C1180.55 240.764 1136.03 250.937 1094.22 241.78C1093.2 249.048 1086.47 253.818 1079.4 251.441L1073.97 290.102C1081.07 292.453 1086.11 299.532 1085.08 306.811C1126.88 315.987 1171.4 305.814 1213.2 314.97C1214.2 307.79 1220.9 303.026 1228.01 305.379Z" fill="#00C853"/>
<path d="M1185.11 278.586C1182.25 298.936 1165.92 315.03 1148.51 315.361C1131.11 315.692 1119.44 298.693 1122.32 278.214C1125.19 257.735 1141.51 241.76 1158.9 241.448C1176.29 241.135 1187.99 258.098 1185.11 278.586Z" fill="#7DDF96"/>
<path d="M1109.87 277.394C1108.98 283.702 1103.49 288.434 1097.67 287.545C1091.84 286.656 1087.9 280.436 1088.79 274.128C1089.68 267.82 1095.06 263.78 1100.88 264.659C1106.71 265.539 1110.76 271.036 1109.87 277.394Z" fill="#7DDF96"/>
<path d="M1218.63 282.672C1217.75 288.99 1212.36 293.02 1206.54 292.141C1200.71 291.262 1196.66 285.734 1197.55 279.407C1198.44 273.079 1203.93 268.367 1209.75 269.256C1215.58 270.145 1219.52 276.354 1218.63 282.672Z" fill="#7DDF96"/>
<path d="M360 342.997C359.166 342.762 358.427 342.271 357.889 341.592C357.35 340.914 357.039 340.083 357 339.217V259.217C356.984 258.849 357.058 258.482 357.217 258.15C357.375 257.817 357.613 257.528 357.909 257.309C358.206 257.09 358.551 256.947 358.916 256.892C359.28 256.838 359.653 256.874 360 256.997C416.3 270.837 472.59 239.787 528.89 253.657C529.722 253.894 530.46 254.387 530.998 255.065C531.536 255.743 531.848 256.573 531.89 257.437V337.437C531.906 337.805 531.832 338.172 531.673 338.505C531.515 338.837 531.277 339.126 530.981 339.345C530.684 339.564 530.339 339.708 529.974 339.762C529.61 339.816 529.237 339.78 528.89 339.657C472.59 325.787 416.3 356.837 360 342.997Z" fill="#7DDF96"/>
<path d="M528.89 256.657V336.657C472.59 322.787 416.3 353.837 360 339.997V259.997C416.3 273.837 472.59 242.787 528.89 256.657ZM528.89 250.657C472.59 236.787 416.3 267.837 360 253.997C356.69 253.187 354 254.997 354 258.347V338.347C354.079 340.088 354.7 341.761 355.775 343.133C356.851 344.504 358.328 345.505 360 345.997C416.3 359.877 472.59 328.827 528.89 342.697C532.2 343.507 534.89 341.697 534.89 338.347V258.347C534.811 256.606 534.19 254.933 533.115 253.562C532.039 252.19 530.562 251.189 528.89 250.697V250.657Z" fill="#515979"/>
<path d="M521.78 314.687V275.577C514.41 274.237 508.44 267.927 508.44 260.577C465.78 257.307 423.11 273.577 380.44 270.327C380.44 277.667 374.44 283.327 367.11 281.957V320.997C374.47 322.337 380.44 328.647 380.44 335.997C423.11 339.267 465.78 322.997 508.44 326.247C508.44 318.997 514.41 313.347 521.78 314.687Z" fill="#00C853"/>
<path d="M475.56 294.127C475.56 314.677 461.63 332.887 444.44 335.637C427.25 338.387 413.33 323.177 413.33 302.497C413.33 281.817 427.26 263.727 444.44 260.997C461.62 258.267 475.56 273.437 475.56 294.127Z" fill="#7DDF96"/>
<path d="M400.89 303.417C400.89 309.787 396.11 315.237 390.22 315.167C384.33 315.097 379.56 309.487 379.56 303.117C379.56 296.747 384.33 291.997 390.22 292.057C396.11 292.117 400.89 296.997 400.89 303.417Z" fill="#7DDF96"/>
<path d="M509.33 293.507C509.33 299.887 504.56 304.627 498.67 304.567C492.78 304.507 488 299.597 488 293.207C488 286.817 492.78 281.387 498.67 281.457C504.56 281.527 509.33 287.127 509.33 293.507Z" fill="#7DDF96"/>
<path d="M449.08 297.157C448.566 297.158 448.072 296.961 447.7 296.607C447.328 296.253 447.106 295.77 447.08 295.257C446.996 293.666 447.548 292.106 448.615 290.922C449.681 289.738 451.174 289.026 452.765 288.942C454.356 288.859 455.916 289.411 457.1 290.477C458.284 291.543 458.996 293.036 459.08 294.627C459.094 294.89 459.056 295.153 458.968 295.4C458.88 295.648 458.744 295.877 458.568 296.072C458.392 296.268 458.18 296.426 457.942 296.54C457.705 296.653 457.448 296.718 457.185 296.732C456.922 296.746 456.66 296.708 456.412 296.62C456.164 296.532 455.935 296.397 455.74 296.221C455.545 296.045 455.386 295.832 455.272 295.594C455.159 295.357 455.094 295.1 455.08 294.837C455.039 294.321 454.799 293.84 454.411 293.497C454.023 293.154 453.517 292.975 453 292.997C452.471 293.026 451.974 293.263 451.62 293.657C451.443 293.851 451.306 294.078 451.217 294.325C451.128 294.572 451.088 294.835 451.1 295.097C451.127 295.626 450.944 296.144 450.589 296.538C450.235 296.932 449.739 297.169 449.21 297.197L449.08 297.157Z" fill="#515979"/>
<path d="M429.11 298.197C428.598 298.198 428.105 298.002 427.733 297.651C427.361 297.299 427.138 296.818 427.11 296.307C427.068 295.519 427.182 294.73 427.446 293.986C427.709 293.242 428.117 292.558 428.646 291.971C429.174 291.385 429.813 290.909 430.526 290.57C431.239 290.232 432.012 290.037 432.8 289.997C433.587 289.955 434.375 290.069 435.119 290.332C435.862 290.595 436.546 291.002 437.132 291.529C437.718 292.057 438.195 292.695 438.534 293.406C438.873 294.118 439.069 294.89 439.11 295.677C439.138 296.208 438.954 296.727 438.598 297.122C438.243 297.517 437.745 297.754 437.215 297.782C436.685 297.81 436.165 297.626 435.77 297.271C435.375 296.915 435.138 296.418 435.11 295.887C435.096 295.624 435.03 295.367 434.916 295.13C434.803 294.892 434.643 294.68 434.447 294.504C434.251 294.329 434.023 294.193 433.774 294.106C433.526 294.019 433.263 293.982 433 293.997C432.736 294.01 432.478 294.075 432.239 294.188C432.001 294.301 431.787 294.46 431.611 294.656C431.434 294.853 431.298 295.082 431.21 295.331C431.123 295.58 431.085 295.844 431.1 296.107C431.127 296.636 430.944 297.154 430.589 297.548C430.235 297.942 429.739 298.179 429.21 298.207L429.11 298.197Z" fill="#515979"/>
<path d="M449 280.767C449.897 280.25 450.885 279.91 451.91 279.767C452.93 279.607 453.97 279.607 454.99 279.767C456.048 279.927 457.066 280.287 457.99 280.827C458.957 281.371 459.767 282.157 460.34 283.107C460.512 283.393 460.597 283.724 460.584 284.057C460.571 284.391 460.462 284.714 460.269 284.986C460.076 285.259 459.808 285.469 459.497 285.592C459.187 285.714 458.847 285.744 458.52 285.677L458.12 285.597C457.35 285.437 456.75 285.227 456.12 285.097C455.49 284.967 454.85 284.807 454.18 284.697L452.07 284.377C451.32 284.291 450.576 284.164 449.84 283.997L449.42 283.887C449.09 283.807 448.791 283.628 448.564 283.376C448.336 283.123 448.19 282.808 448.145 282.471C448.099 282.134 448.157 281.791 448.309 281.487C448.462 281.183 448.703 280.932 449 280.767Z" fill="#515979"/>
<path d="M435.18 284.757C434.464 284.99 433.736 285.187 433 285.347L430.94 285.877C430.28 286.057 429.68 286.287 429.05 286.477C428.42 286.667 427.84 286.947 427.05 287.187L426.67 287.307C426.455 287.375 426.228 287.401 426.003 287.381C425.778 287.362 425.559 287.299 425.358 287.195C425.157 287.091 424.979 286.948 424.834 286.775C424.688 286.602 424.578 286.403 424.51 286.187C424.375 285.776 424.403 285.328 424.59 284.937C425.06 283.935 425.78 283.071 426.68 282.427C427.555 281.792 428.543 281.327 429.59 281.057C430.588 280.795 431.621 280.693 432.65 280.757C433.686 280.799 434.705 281.04 435.65 281.467C435.957 281.605 436.216 281.83 436.395 282.115C436.574 282.4 436.664 282.731 436.654 283.067C436.644 283.403 436.535 283.729 436.341 284.003C436.146 284.277 435.874 284.487 435.56 284.607L435.18 284.757Z" fill="#515979"/>
<path d="M443.82 317.797C440.361 317.799 437.034 316.471 434.527 314.089C432.02 311.706 430.524 308.451 430.35 304.997C430.338 304.8 430.365 304.602 430.43 304.415C430.495 304.229 430.597 304.057 430.729 303.91C430.861 303.763 431.021 303.643 431.2 303.559C431.379 303.474 431.572 303.426 431.77 303.417L455.77 302.157C456.154 302.157 456.524 302.304 456.803 302.568C457.082 302.832 457.249 303.193 457.27 303.577C457.461 307.149 456.226 310.65 453.838 313.313C451.449 315.975 448.101 317.581 444.53 317.777C444.29 317.777 444.05 317.777 443.82 317.777V317.797Z" fill="#515979"/>
<path d="M455.81 303.667C455.894 305.241 455.666 306.816 455.141 308.302C454.616 309.788 453.803 311.156 452.749 312.328C451.695 313.5 450.421 314.453 448.998 315.132C447.576 315.812 446.034 316.204 444.46 316.287H443.82C440.744 316.291 437.783 315.114 435.55 312.998C433.317 310.882 431.982 307.989 431.82 304.917L455.82 303.657L455.81 303.667ZM455.82 300.657H455.66L431.66 301.907C430.863 301.956 430.116 302.315 429.58 302.907C429.317 303.201 429.114 303.544 428.984 303.916C428.853 304.289 428.798 304.683 428.82 305.077C429.023 308.917 430.692 312.532 433.483 315.177C436.275 317.821 439.975 319.292 443.82 319.287H444.61C446.577 319.185 448.505 318.696 450.283 317.848C452.062 317.001 453.656 315.812 454.974 314.348C456.293 312.885 457.31 311.176 457.968 309.319C458.626 307.462 458.912 305.494 458.81 303.527C458.771 302.758 458.439 302.033 457.88 301.502C457.322 300.972 456.58 300.676 455.81 300.677L455.82 300.657Z" fill="#515979"/>
<path d="M444.424 316.585C449.356 316.338 453.265 314.347 453.154 312.138C453.044 309.929 448.956 308.338 444.024 308.585C439.093 308.831 435.184 310.822 435.294 313.031C435.405 315.24 439.493 316.831 444.424 316.585Z" fill="#EF7D7D"/>
<path d="M202.023 212.772C191.46 219.362 179.181 222.675 166.736 222.291C154.291 221.908 142.239 217.845 132.102 210.617C121.964 203.388 114.196 193.318 109.777 181.678C105.359 170.038 104.489 157.349 107.276 145.215L123.024 77.0055C126.827 60.7713 136.911 46.707 151.066 37.8946C165.221 29.0823 182.292 26.2406 198.538 29.9923C214.784 33.744 228.881 43.7831 237.738 57.9096C246.596 72.0361 249.492 89.0979 245.792 105.356L230.045 173.565C228.195 181.627 224.766 189.243 219.957 195.972C215.147 202.702 209.052 208.412 202.023 212.772ZM170.07 68.2437C167.057 70.1154 164.445 72.5661 162.385 75.454C160.326 78.3419 158.86 81.6096 158.072 85.0679L142.325 153.277C140.715 160.255 141.942 167.587 145.738 173.659C149.534 179.731 155.586 184.047 162.564 185.657C169.542 187.267 176.873 186.039 182.945 182.244C189.018 178.448 193.334 172.396 194.944 165.418L210.691 97.2088C211.892 92.0051 211.523 86.5623 209.63 81.5685C207.737 76.5748 204.406 72.2545 200.058 69.154C195.71 66.0535 190.54 64.3122 185.202 64.1501C179.864 63.9881 174.598 65.4127 170.07 68.2437Z" fill="#75A5C3"/>
<path d="M152.582 40.2581C162.646 33.9679 174.349 30.8035 186.212 31.1651C198.074 31.5267 209.563 35.3981 219.225 42.2897C228.887 49.1812 236.288 58.7834 240.492 69.8816C244.697 80.9799 245.515 93.0757 242.844 104.639L227.092 172.84C223.406 188.233 213.786 201.546 200.329 209.879C186.872 218.212 170.667 220.89 155.244 217.33C139.822 213.769 126.431 204.258 117.988 190.87C109.546 177.481 106.736 161.298 110.171 145.847L125.919 77.6375C127.682 69.958 130.946 62.7025 135.521 56.2878C140.097 49.8731 145.895 44.4256 152.582 40.2581ZM184.536 184.787C187.88 182.702 190.778 179.978 193.066 176.769C195.353 173.561 196.984 169.933 197.865 166.093L213.612 97.8832C214.534 94.0318 214.684 90.036 214.054 86.1262C213.424 82.2165 212.026 78.4702 209.941 75.1035C207.855 71.7368 205.124 68.8162 201.904 66.5103C198.685 64.2045 195.04 62.5589 191.182 61.6685C187.323 60.7781 183.326 60.6605 179.421 61.3225C175.517 61.9846 171.782 63.4131 168.432 65.5257C165.083 67.6384 162.185 70.3933 159.905 73.6316C157.625 76.87 156.01 80.5276 155.151 84.3935L139.398 152.594C138.061 158.377 138.469 164.427 140.571 169.977C142.674 175.528 146.375 180.331 151.207 183.777C156.04 187.223 161.786 189.159 167.719 189.339C173.651 189.518 179.504 187.934 184.536 184.787ZM149.403 35.1699C142.039 39.7452 135.656 45.735 130.622 52.7929C125.588 59.8508 122.004 67.8367 120.076 76.2887L104.346 144.487C100.408 161.543 103.407 179.465 112.683 194.31C121.959 209.155 136.752 219.707 153.808 223.644C170.864 227.582 188.786 224.583 203.631 215.307C218.476 206.031 229.027 191.238 232.965 174.182L248.704 105.978C251.641 93.2566 250.74 79.9504 246.113 67.742C241.487 55.5337 233.344 44.9716 222.714 37.3918C212.084 29.8121 199.445 25.5552 186.395 25.1597C173.346 24.7642 160.472 28.2478 149.403 35.1699ZM181.356 179.698C177.33 182.228 172.643 183.505 167.889 183.366C163.136 183.228 158.531 181.68 154.659 178.92C150.786 176.16 147.821 172.312 146.139 167.864C144.458 163.416 144.135 158.569 145.213 153.937L160.977 85.7169C162.416 79.5109 166.261 74.1305 171.666 70.7593C177.072 67.3882 183.595 66.3025 189.801 67.741C196.007 69.1796 201.388 73.0246 204.759 78.4301C208.13 83.8357 209.216 90.3591 207.777 96.5651L192.038 164.769C191.33 167.844 190.019 170.749 188.181 173.314C186.343 175.879 184.015 178.055 181.331 179.714L181.356 179.698Z" fill="#515979"/>
<path d="M197.876 32.6738C182.371 29.0949 166.08 31.8214 152.585 40.2536C139.091 48.6859 129.499 62.1332 125.919 77.6375L124.575 83.4886C128.261 68.0954 137.88 54.7824 151.338 46.4493C164.795 38.1163 181 35.4385 196.423 38.9991C211.845 42.5597 225.236 52.0703 233.678 65.4592C242.121 78.8481 244.931 95.0306 241.496 110.482L242.844 104.639C244.618 96.9612 244.861 89.009 243.561 81.2369C242.261 73.4647 239.442 66.0248 235.266 59.342C231.09 52.6593 225.639 46.8646 219.224 42.2888C212.808 37.713 205.554 34.4458 197.876 32.6738Z" fill="#9FC0D5"/>
<g style="mix-blend-mode:multiply" opacity="0.3">
<g style="mix-blend-mode:multiply" opacity="0.3">
<path d="M205.987 130.913L198.759 162.221C203.795 160.679 209.148 160.491 214.28 161.674C219.412 162.858 224.142 165.372 227.994 168.963L235.222 137.655C230.73 135.329 225.963 133.578 221.033 132.442C216.103 131.295 211.047 130.782 205.987 130.913Z" fill="#515979"/>
</g>
</g>
<path d="M230.143 291.08C219.578 297.688 207.29 301.014 194.835 300.637C182.379 300.261 170.314 296.199 160.167 288.966C150.02 281.732 142.246 271.652 137.829 260C133.411 248.348 132.548 235.647 135.35 223.505L151.097 155.295C152.852 147.127 156.214 139.39 160.987 132.533C165.761 125.677 171.85 119.838 178.901 115.357C185.952 110.876 193.824 107.842 202.059 106.432C210.294 105.022 218.726 105.264 226.867 107.144C235.007 109.024 242.692 112.504 249.475 117.382C256.257 122.26 262.002 128.438 266.374 135.557C270.747 142.676 273.66 150.593 274.943 158.849C276.227 167.104 275.856 175.532 273.852 183.643L258.113 251.847C256.274 259.91 252.856 267.529 248.055 274.263C243.254 280.997 237.166 286.713 230.143 291.08ZM198.203 146.555C195.189 148.425 192.576 150.875 190.517 153.764C188.457 156.652 186.992 159.92 186.205 163.379L170.453 231.58C168.841 238.557 170.067 245.889 173.861 251.962C177.655 258.036 183.706 262.353 190.683 263.965C197.661 265.577 204.993 264.351 211.066 260.557C217.139 256.763 221.457 250.712 223.069 243.735L238.816 175.525C240.017 170.322 239.648 164.88 237.756 159.887C235.864 154.894 232.534 150.574 228.187 147.473C223.84 144.372 218.671 142.63 213.334 142.467C207.997 142.303 202.732 143.726 198.203 146.555Z" fill="#75A5C3"/>
<path d="M180.69 118.585C190.754 112.3 202.455 109.139 214.314 109.503C226.174 109.867 237.659 113.739 247.318 120.629C256.977 127.519 264.377 137.119 268.581 148.214C272.786 159.309 273.606 171.402 270.939 182.963L255.2 251.167C251.621 266.673 242.029 280.122 228.534 288.555C215.039 296.989 198.747 299.716 183.241 296.138C167.736 292.559 154.287 282.967 145.853 269.472C137.419 255.977 134.692 239.685 138.271 224.179L153.984 155.991C155.749 148.31 159.014 141.054 163.591 134.638C168.168 128.223 173.968 122.774 180.656 118.606L180.69 118.585ZM212.656 263.094C215.994 261.008 218.886 258.282 221.168 255.073C223.449 251.865 225.074 248.238 225.949 244.399L241.696 176.19C243.279 168.515 241.796 160.526 237.564 153.931C233.332 147.336 226.688 142.658 219.052 140.898C211.417 139.138 203.395 140.435 196.704 144.513C190.012 148.59 185.181 155.124 183.245 162.717L167.506 230.921C166.172 236.704 166.583 242.753 168.687 248.303C170.792 253.852 174.495 258.653 179.328 262.097C184.162 265.541 189.908 267.475 195.841 267.652C201.773 267.83 207.625 266.243 212.656 263.094ZM177.536 113.481C170.163 118.054 163.771 124.045 158.731 131.107C153.691 138.169 150.103 146.161 148.176 154.621L132.428 222.83C128.651 239.827 131.742 257.627 141.03 272.355C150.317 287.082 165.048 297.543 182.013 301.459C198.978 305.374 216.803 302.428 231.606 293.261C246.408 284.094 256.989 269.449 261.042 252.516L276.8 184.323C279.74 171.603 278.841 158.296 274.217 146.086C269.593 133.877 261.452 123.313 250.823 115.731C240.195 108.149 227.556 103.89 214.506 103.492C201.456 103.095 188.581 106.576 177.511 113.497L177.536 113.481ZM209.476 258.006C205.45 260.536 200.762 261.813 196.009 261.674C191.256 261.536 186.651 259.988 182.778 257.228C178.906 254.468 175.941 250.62 174.259 246.172C172.577 241.724 172.255 236.876 173.333 232.245L189.085 164.044C190.56 157.887 194.408 152.561 199.79 149.228C205.173 145.895 211.655 144.824 217.824 146.248C223.993 147.672 229.35 151.477 232.727 156.832C236.104 162.188 237.228 168.661 235.854 174.841L220.106 243.051C219.399 246.126 218.089 249.031 216.251 251.597C214.413 254.162 212.084 256.337 209.399 257.995L209.476 258.006Z" fill="#515979"/>
<g style="mix-blend-mode:soft-light">
<g style="mix-blend-mode:soft-light">
<path d="M184.592 290.288C169.087 286.708 155.64 277.116 147.208 263.622C138.776 250.127 136.049 233.836 139.628 218.331L138.271 224.179C134.692 239.685 137.419 255.977 145.853 269.472C154.287 282.967 167.736 292.559 183.241 296.138C198.747 299.716 215.039 296.989 228.534 288.555C242.029 280.122 251.621 266.673 255.2 251.167L256.549 245.324C252.969 260.829 243.377 274.276 229.882 282.708C216.388 291.141 200.096 293.867 184.592 290.288Z" fill="#515979"/>
</g>
</g>
<g style="mix-blend-mode:multiply" opacity="0.3">
<g style="mix-blend-mode:multiply" opacity="0.3">
<path d="M167.344 243.664C166.474 239.455 166.529 235.107 167.506 230.921L173.258 206.008C168.266 207.915 162.82 208.292 157.613 207.091C152.406 205.89 147.675 203.166 144.023 199.265L138.271 224.179C137.25 228.619 136.738 233.161 136.742 237.716C146.278 242.247 156.805 244.293 167.344 243.664Z" fill="#515979"/>
</g>
</g>
<path d="M162.557 185.656C155.981 184.128 150.215 180.192 146.397 174.624C142.58 169.056 140.987 162.259 141.932 155.574L106.774 147.486C103.863 163.427 107.207 179.876 116.109 193.415C125.012 206.954 138.789 216.543 154.577 220.188C170.366 223.833 186.952 221.254 200.889 212.988C214.825 204.721 225.041 191.403 229.413 175.8L194.311 167.689C192.224 174.112 187.806 179.521 181.928 182.847C176.049 186.173 169.138 187.175 162.557 185.656Z" fill="#75A5C3"/>
<path d="M192.023 164.744C190.548 170.901 186.7 176.226 181.317 179.559C175.935 182.893 169.453 183.964 163.284 182.54C157.115 181.115 151.758 177.311 148.381 171.956C145.004 166.6 143.88 160.127 145.254 153.946L145.962 150.851L140.098 149.469L139.377 152.561C137.587 160.314 138.95 168.46 143.167 175.209C147.383 181.957 154.108 186.753 161.861 188.543C169.614 190.333 177.761 188.97 184.509 184.753C191.257 180.537 196.054 173.812 197.844 166.059L198.56 162.958L192.709 161.615L192.023 164.744Z" fill="#515979"/>
<path d="M227.092 172.84C223.406 188.233 213.786 201.546 200.329 209.879C186.872 218.212 170.667 220.89 155.244 217.33C139.822 213.769 126.431 204.258 117.988 190.869C109.546 177.481 106.736 161.298 110.171 145.847L110.887 142.746L105.036 141.403L104.346 144.487C100.408 161.543 103.407 179.465 112.683 194.31C121.959 209.155 136.752 219.707 153.808 223.644C170.864 227.582 188.786 224.583 203.631 215.307C218.476 206.031 229.027 191.238 232.965 174.182L233.672 171.086L227.83 169.738L227.092 172.84Z" fill="#515979"/>
<path d="M225.975 111.006C210.47 107.427 194.179 110.154 180.685 118.586C167.19 127.018 157.598 140.465 154.018 155.97L152.669 161.812C156.251 146.306 165.846 132.858 179.343 124.427C192.84 115.995 209.134 113.27 224.64 116.852C240.146 120.434 253.594 130.028 262.026 143.526C270.458 157.023 273.182 173.317 269.6 188.823L270.944 182.971C272.717 175.293 272.961 167.341 271.661 159.569C270.36 151.797 267.542 144.357 263.366 137.674C259.19 130.992 253.739 125.197 247.323 120.621C240.908 116.045 233.653 112.778 225.975 111.006Z" fill="#9FC0D5"/>
<g style="mix-blend-mode:soft-light">
<g style="mix-blend-mode:soft-light">
<path d="M156.484 211.961C140.979 208.381 127.532 198.789 119.1 185.295C110.668 171.8 107.941 155.509 111.52 140.004L110.171 145.847C106.736 161.298 109.546 177.481 117.988 190.869C126.431 204.258 139.822 213.769 155.244 217.33C170.667 220.89 186.872 218.212 200.329 209.879C213.786 201.546 223.406 188.233 227.092 172.84L228.449 166.992C226.677 174.671 223.41 181.925 218.834 188.34C214.258 194.756 208.464 200.207 201.781 204.383C195.098 208.559 187.658 211.377 179.886 212.678C172.114 213.978 164.162 213.734 156.484 211.961Z" fill="#515979"/>
</g>
</g>
<path d="M200.615 58.59C199.272 59.4296 197.775 59.9948 196.212 60.2531C194.649 60.5114 193.05 60.4576 191.508 60.0948C189.966 59.732 188.511 59.0674 187.227 58.1393C185.943 57.2113 184.855 56.0382 184.027 54.6876C183.746 54.2378 183.655 53.6947 183.774 53.1779C183.893 52.6611 184.213 52.2128 184.663 51.9317C185.113 51.6506 185.656 51.5597 186.173 51.6791C186.69 51.7984 187.138 52.1181 187.419 52.568C187.972 53.4674 188.697 54.2485 189.553 54.8663C190.409 55.4842 191.378 55.9265 192.406 56.1678C193.434 56.4091 194.499 56.4446 195.541 56.2723C196.582 56.1 197.579 55.7233 198.474 55.1639L198.559 55.1109C199.009 54.8298 199.552 54.7389 200.069 54.8582C200.586 54.9776 201.034 55.2973 201.315 55.7471C201.596 56.197 201.687 56.74 201.568 57.2569C201.448 57.7737 201.129 58.222 200.679 58.5031L200.615 58.59Z" fill="#515979"/>
<path d="M191.665 37.3214C191.009 37.3298 190.408 37.2926 189.82 37.2947L187.986 37.1906L186.149 37.1004C185.54 37.0685 184.936 37.0451 184.277 36.973L183.868 36.9221C183.544 36.8825 183.237 36.7523 182.983 36.5465C182.73 36.3407 182.539 36.0676 182.433 35.7584C182.327 35.4492 182.311 35.1165 182.385 34.7983C182.46 34.4801 182.622 34.1894 182.854 33.9593C183.581 33.273 184.469 32.7793 185.435 32.5232C186.33 32.2361 187.268 32.1088 188.207 32.1472C189.156 32.1991 190.088 32.4143 190.963 32.7835C191.898 33.139 192.728 33.7225 193.38 34.4807C193.59 34.7324 193.724 35.0387 193.767 35.3638C193.81 35.6888 193.759 36.0194 193.621 36.3169C193.483 36.6143 193.264 36.8665 192.988 37.044C192.713 37.2215 192.392 37.3169 192.064 37.3193L191.665 37.3214Z" fill="#515979"/>
<path d="M208.255 42.4724C207.623 42.254 207.081 42.0271 206.517 41.7663L204.806 41.0665L203.158 40.3159C202.588 40.0826 202.026 39.8441 201.446 39.5578L201.075 39.4359C200.665 39.2269 200.354 38.8647 200.209 38.4278C200.064 37.9909 200.097 37.5144 200.3 37.1017C200.483 36.7468 200.778 36.4628 201.14 36.2941C202.061 35.9026 203.065 35.7454 204.061 35.8364C205.939 35.9536 207.724 36.6925 209.135 37.9367C209.907 38.5993 210.5 39.4449 210.861 40.3961C210.973 40.7049 210.995 41.0391 210.924 41.3598C210.853 41.6805 210.692 41.9744 210.46 42.2071C210.228 42.4398 209.935 42.6016 209.615 42.6738C209.294 42.7459 208.96 42.7253 208.651 42.6145L208.255 42.4724Z" fill="#515979"/>
<path d="M234.014 131.382C233.678 131.595 233.285 131.703 232.887 131.691C232.488 131.68 232.103 131.55 231.779 131.317C231.455 131.085 231.208 130.761 231.069 130.388C230.931 130.014 230.907 129.608 231.001 129.221C231.059 128.965 231.014 128.696 230.876 128.473C230.735 128.248 230.511 128.088 230.253 128.029C229.994 127.969 229.723 128.015 229.498 128.155C229.386 128.224 229.289 128.315 229.212 128.421C229.135 128.528 229.08 128.649 229.05 128.777C228.93 129.294 228.61 129.743 228.16 130.024C227.71 130.305 227.167 130.396 226.65 130.277C226.132 130.158 225.684 129.838 225.403 129.388C225.121 128.937 225.03 128.394 225.15 127.877C225.447 126.584 226.246 125.462 227.371 124.758C227.928 124.41 228.548 124.174 229.196 124.065C229.844 123.956 230.507 123.976 231.147 124.124C231.787 124.271 232.392 124.543 232.927 124.924C233.463 125.305 233.917 125.788 234.266 126.345C234.615 126.902 234.85 127.522 234.959 128.17C235.068 128.818 235.048 129.481 234.901 130.121C234.844 130.379 234.736 130.624 234.584 130.84C234.432 131.057 234.238 131.241 234.014 131.382Z" fill="#515979"/>
<path d="M218.424 127.776C218.089 127.985 217.7 128.091 217.305 128.079C216.91 128.068 216.527 127.94 216.205 127.711C215.883 127.482 215.635 127.163 215.494 126.793C215.354 126.424 215.325 126.022 215.413 125.636C215.454 125.505 215.468 125.366 215.453 125.229C215.438 125.092 215.395 124.96 215.327 124.84C215.258 124.72 215.166 124.616 215.055 124.534C214.945 124.452 214.818 124.393 214.684 124.362C214.55 124.331 214.41 124.329 214.275 124.354C214.139 124.379 214.011 124.432 213.897 124.51C213.783 124.587 213.686 124.688 213.612 124.804C213.539 124.921 213.491 125.051 213.47 125.188C213.351 125.705 213.031 126.153 212.581 126.435C212.131 126.716 211.587 126.807 211.07 126.687C210.553 126.568 210.104 126.248 209.823 125.798C209.542 125.348 209.451 124.804 209.57 124.287C209.708 123.638 209.974 123.023 210.353 122.477C210.731 121.932 211.215 121.467 211.775 121.11C212.335 120.754 212.96 120.512 213.614 120.399C214.269 120.287 214.939 120.306 215.586 120.455C216.233 120.605 216.843 120.881 217.382 121.269C217.921 121.657 218.377 122.149 218.724 122.715C219.071 123.281 219.302 123.91 219.403 124.566C219.504 125.223 219.473 125.892 219.313 126.537C219.192 127.051 218.872 127.496 218.424 127.776Z" fill="#515979"/>
<path d="M228.699 136.897C227.355 137.736 225.859 138.302 224.296 138.56C222.733 138.818 221.134 138.764 219.592 138.402C218.049 138.039 216.594 137.374 215.31 136.446C214.026 135.518 212.939 134.345 212.11 132.994C211.829 132.545 211.738 132.002 211.858 131.485C211.977 130.968 212.297 130.52 212.747 130.239C213.196 129.957 213.74 129.867 214.256 129.986C214.773 130.105 215.221 130.425 215.503 130.875C216.055 131.776 216.78 132.558 217.636 133.177C218.492 133.796 219.462 134.24 220.49 134.482C221.519 134.724 222.585 134.76 223.627 134.588C224.67 134.416 225.667 134.039 226.563 133.479L226.64 133.431C227.09 133.15 227.633 133.06 228.149 133.179C228.666 133.298 229.115 133.618 229.396 134.068C229.677 134.518 229.768 135.061 229.648 135.577C229.529 136.094 229.209 136.543 228.759 136.824L228.699 136.897Z" fill="#515979"/>
<path d="M219.342 117.639C218.682 117.639 218.081 117.602 217.498 117.612L215.655 117.514L213.853 117.46C213.235 117.434 212.64 117.405 211.981 117.333L211.572 117.282C211.259 117.233 210.964 117.098 210.722 116.894C210.479 116.689 210.297 116.422 210.195 116.121C210.093 115.82 210.076 115.497 210.144 115.187C210.213 114.877 210.365 114.591 210.585 114.362C211.314 113.678 212.201 113.185 213.166 112.926C214.078 112.665 215.028 112.558 215.975 112.609C216.923 112.664 217.855 112.879 218.731 113.245C219.665 113.601 220.496 114.184 221.147 114.942C221.358 115.194 221.492 115.5 221.535 115.826C221.577 116.151 221.527 116.481 221.389 116.779C221.251 117.076 221.031 117.328 220.756 117.506C220.48 117.683 220.16 117.779 219.832 117.781L219.342 117.639Z" fill="#515979"/>
<path d="M235.898 122.753C235.274 122.529 234.732 122.302 234.165 122.055L232.516 121.305L230.831 120.589C230.261 120.356 229.699 120.117 229.156 119.796L228.784 119.616C228.372 119.409 228.059 119.047 227.914 118.609C227.769 118.171 227.803 117.694 228.01 117.282C228.19 116.925 228.489 116.643 228.855 116.482C229.773 116.086 230.775 115.926 231.771 116.016C233.674 116.144 235.479 116.911 236.892 118.193C237.664 118.856 238.257 119.701 238.618 120.652C238.73 120.962 238.751 121.297 238.68 121.618C238.609 121.94 238.448 122.234 238.217 122.468C237.985 122.702 237.692 122.865 237.371 122.939C237.05 123.012 236.715 122.993 236.404 122.884L235.898 122.753Z" fill="#515979"/>
<path d="M204.768 54.2147C204.505 54.3794 204.198 54.4582 203.889 54.4401C203.579 54.422 203.284 54.308 203.042 54.1139C201.996 53.3922 200.716 53.0891 199.457 53.2645C199.263 53.3087 199.061 53.3141 198.865 53.2804C198.668 53.2468 198.48 53.1747 198.311 53.0683C198.142 52.9619 197.996 52.8234 197.88 52.6605C197.765 52.4976 197.683 52.3136 197.639 52.119C197.595 51.9244 197.589 51.723 197.623 51.5263C197.657 51.3296 197.729 51.1414 197.835 50.9726C197.941 50.8037 198.08 50.6575 198.243 50.5422C198.406 50.4269 198.59 50.3448 198.784 50.3007C199.851 50.1083 200.947 50.1349 202.003 50.3788C203.06 50.6228 204.055 51.0789 204.93 51.7195C205.238 51.9699 205.435 52.3313 205.478 52.7256C205.522 53.1199 205.408 53.5155 205.162 53.8268C205.053 53.9769 204.92 54.108 204.768 54.2147Z" fill="#515979"/>
<path d="M205.474 51.0613C207.816 49.598 208.528 46.5133 207.065 44.1715C205.601 41.8296 202.517 41.1175 200.175 42.5808C197.833 44.0441 197.121 47.1288 198.584 49.4706C200.047 51.8125 203.132 52.5246 205.474 51.0613Z" fill="#515979"/>
<path d="M204.699 48.1611C205.285 47.7952 205.463 47.0241 205.097 46.4386C204.731 45.8531 203.96 45.6751 203.375 46.0409C202.789 46.4068 202.611 47.1779 202.977 47.7634C203.343 48.3489 204.114 48.5269 204.699 48.1611Z" fill="white"/>
<path d="M189.183 50.6167C188.92 50.7814 188.613 50.8601 188.304 50.8421C187.995 50.824 187.699 50.71 187.457 50.5158C186.403 49.7958 185.115 49.5011 183.852 49.6908C183.463 49.7779 183.054 49.7067 182.717 49.4927C182.38 49.2788 182.142 48.9397 182.055 48.5501C181.968 48.1604 182.039 47.7521 182.253 47.415C182.467 47.0779 182.806 46.8395 183.195 46.7524C184.262 46.5601 185.357 46.5867 186.414 46.8306C187.47 47.0745 188.466 47.5306 189.341 48.1713C189.651 48.4201 189.85 48.7818 189.893 49.1769C189.937 49.572 189.821 49.9683 189.573 50.2786C189.464 50.4134 189.332 50.5279 189.183 50.6167Z" fill="#515979"/>
<path d="M189.889 47.4632C192.231 45.9999 192.943 42.9152 191.48 40.5734C190.017 38.2316 186.932 37.5194 184.59 38.9828C182.248 40.4461 181.536 43.5308 182.999 45.8726C184.463 48.2144 187.547 48.9266 189.889 47.4632Z" fill="#515979"/>
<path d="M189.115 44.563C189.7 44.1972 189.878 43.426 189.512 42.8406C189.146 42.2551 188.375 42.0771 187.79 42.4429C187.204 42.8088 187.026 43.5799 187.392 44.1654C187.758 44.7508 188.529 44.9289 189.115 44.563Z" fill="white"/>
<path d="M955.104 241.024C949.638 252.211 940.98 261.527 930.223 267.796C919.466 274.065 907.093 277.007 894.665 276.249C882.238 275.491 870.313 271.068 860.398 263.538C850.483 256.008 843.021 245.708 838.955 233.94L816.164 167.751C810.787 151.968 811.885 134.697 819.219 119.723C826.554 104.748 839.525 93.2923 855.29 87.8648C871.056 82.4372 888.33 83.4809 903.328 90.7671C918.325 98.0533 929.823 110.988 935.301 126.736L958.092 192.926C960.795 200.743 961.923 209.018 961.41 217.274C960.898 225.529 958.754 233.601 955.104 241.024ZM851.418 135.39C849.854 138.574 848.938 142.036 848.722 145.577C848.506 149.117 848.994 152.665 850.159 156.015L872.95 222.205C875.282 228.976 880.208 234.543 886.645 237.681C893.082 240.819 900.502 241.272 907.272 238.94C914.043 236.607 919.61 231.681 922.748 225.244C925.886 218.808 926.339 211.388 924.007 204.617L901.216 138.427C899.477 133.378 896.279 128.958 892.028 125.726C887.777 122.494 882.662 120.596 877.332 120.27C872.001 119.945 866.694 121.208 862.081 123.899C857.469 126.591 853.758 130.589 851.418 135.39Z" fill="#75A5C3"/>
<path d="M821.757 120.924C826.959 110.256 835.207 101.371 845.458 95.3914C855.71 89.412 867.504 86.607 879.35 87.3313C891.196 88.0556 902.561 92.2767 912.008 99.4606C921.454 106.644 928.558 116.469 932.421 127.69L955.203 193.875C960.234 208.883 959.131 225.271 952.135 239.469C945.138 253.667 932.815 264.525 917.849 269.678C902.883 274.831 886.487 273.862 872.232 266.981C857.978 260.101 847.019 247.866 841.745 232.942L818.954 166.753C816.38 159.306 815.302 151.423 815.784 143.558C816.265 135.694 818.295 128.002 821.757 120.924ZM925.444 226.558C927.175 223.018 928.19 219.172 928.429 215.239C928.669 211.306 928.13 207.365 926.842 203.641L904.051 137.451C902.792 133.697 900.801 130.229 898.195 127.247C895.589 124.265 892.418 121.829 888.865 120.079C885.313 118.329 881.449 117.299 877.497 117.05C873.544 116.801 869.582 117.336 865.837 118.626C862.093 119.916 858.641 121.934 855.681 124.565C852.72 127.195 850.31 130.386 848.589 133.952C846.868 137.519 845.87 141.391 845.653 145.345C845.436 149.3 846.004 153.258 847.324 156.992L870.106 223.177C872.036 228.789 875.589 233.703 880.313 237.297C885.037 240.89 890.721 243.001 896.645 243.363C902.569 243.725 908.468 242.321 913.594 239.33C918.721 236.339 922.845 231.894 925.444 226.558ZM816.365 118.293C812.545 126.076 810.306 134.538 809.777 143.191C809.248 151.844 810.44 160.516 813.284 168.705L836.084 234.877C841.783 251.428 853.823 265.037 869.556 272.71C885.289 280.384 903.426 281.493 919.977 275.794C936.528 270.095 950.137 258.055 957.811 242.322C965.484 226.589 966.594 208.452 960.895 191.901L938.099 125.72C933.849 113.376 926.033 102.569 915.641 94.6674C905.248 86.7657 892.745 82.1237 879.714 81.3287C866.682 80.5337 853.708 83.6214 842.432 90.2012C831.156 96.781 822.084 106.557 816.365 118.293ZM920.052 223.928C917.977 228.207 914.679 231.773 910.574 234.175C906.47 236.576 901.745 237.704 896.998 237.415C892.252 237.127 887.698 235.435 883.914 232.554C880.131 229.673 877.289 225.733 875.749 221.234L852.966 155.026C850.898 149.001 851.307 142.4 854.105 136.677C856.903 130.954 861.86 126.576 867.885 124.507C873.91 122.439 880.511 122.848 886.234 125.646C891.957 128.444 896.335 133.4 898.404 139.426L921.199 205.606C922.228 208.59 922.655 211.747 922.456 214.897C922.257 218.046 921.435 221.125 920.038 223.954L920.052 223.928Z" fill="#515979"/>
<path d="M856.149 90.49C841.104 95.671 828.733 106.616 821.758 120.918C814.782 135.22 813.774 151.707 818.954 166.753L820.915 172.427C815.884 157.419 816.986 141.032 823.983 126.834C830.98 112.636 843.303 101.777 858.269 96.6241C873.235 91.4709 889.631 92.4402 903.886 99.3209C918.14 106.202 929.098 118.436 934.373 133.36L932.421 127.69C929.856 120.239 925.849 113.366 920.627 107.464C915.406 101.562 909.073 96.7463 901.991 93.2918C894.908 89.8374 887.214 87.812 879.349 87.3312C871.483 86.8505 863.6 87.9238 856.149 90.49Z" fill="#9FC0D5"/>
<g style="mix-blend-mode:multiply" opacity="0.3">
<g style="mix-blend-mode:multiply" opacity="0.3">
<path d="M915.087 169.503L925.548 199.884C929.002 195.908 933.442 192.911 938.421 191.196C943.4 189.48 948.744 189.105 953.914 190.109L943.453 159.729C938.411 160.136 933.44 161.177 928.657 162.826C923.869 164.467 919.309 166.71 915.087 169.503Z" fill="#515979"/>
</g>
</g>
<path d="M1020.45 292.532C1014.99 303.734 1006.33 313.066 995.569 319.347C984.807 325.629 972.423 328.577 959.985 327.82C947.547 327.063 935.612 322.634 925.691 315.093C915.77 307.553 908.308 297.239 904.249 285.457L881.458 219.268C878.618 211.411 877.369 203.068 877.784 194.723C878.198 186.379 880.268 178.201 883.874 170.664C887.479 163.128 892.547 156.383 898.783 150.824C905.019 145.264 912.299 141.001 920.199 138.281C928.098 135.562 936.46 134.441 944.796 134.983C953.133 135.526 961.279 137.721 968.759 141.441C976.24 145.161 982.906 150.332 988.369 156.653C993.832 162.973 997.984 170.318 1000.58 178.258L1023.38 244.438C1026.09 252.251 1027.23 260.523 1026.73 268.778C1026.22 277.033 1024.09 285.107 1020.45 292.532ZM916.775 186.893C915.21 190.076 914.293 193.539 914.077 197.079C913.86 200.62 914.35 204.168 915.516 207.518L938.298 273.704C940.628 280.475 945.553 286.043 951.989 289.183C958.425 292.323 965.845 292.778 972.616 290.447C979.387 288.117 984.955 283.192 988.095 276.756C991.235 270.32 991.69 262.9 989.36 256.129L966.569 189.94C964.83 184.891 961.633 180.472 957.383 177.24C953.132 174.008 948.019 172.109 942.689 171.783C937.36 171.457 932.053 172.718 927.441 175.408C922.828 178.097 919.116 182.094 916.775 186.893Z" fill="#75A5C3"/>
<path d="M887.101 172.454C892.305 161.791 900.553 152.91 910.803 146.934C921.054 140.958 932.845 138.155 944.688 138.879C956.531 139.604 967.893 143.824 977.338 151.005C986.783 158.186 993.887 168.007 997.752 179.225L1020.55 245.405C1025.73 260.452 1024.72 276.94 1017.75 291.243C1010.77 305.546 998.4 316.493 983.353 321.675C968.307 326.857 951.819 325.849 937.516 318.874C923.212 311.899 912.266 299.527 907.084 284.481L884.276 218.328C881.702 210.879 880.626 202.995 881.107 195.129C881.589 187.262 883.62 179.569 887.084 172.49L887.101 172.454ZM990.788 278.065C992.513 274.527 993.522 270.682 993.756 266.752C993.991 262.823 993.446 258.886 992.154 255.167L969.363 188.977C966.639 181.63 961.147 175.641 954.064 172.29C946.98 168.94 938.867 168.493 931.458 171.047C924.05 173.601 917.935 178.952 914.421 185.956C910.907 192.96 910.273 201.061 912.654 208.526L935.45 274.707C937.383 280.318 940.937 285.23 945.662 288.821C950.388 292.412 956.072 294.521 961.996 294.88C967.921 295.24 973.818 293.834 978.943 290.841C984.068 287.848 988.19 283.402 990.788 278.065ZM881.722 169.796C877.892 177.582 875.646 186.05 875.114 194.71C874.582 203.369 875.775 212.049 878.624 220.244L901.414 286.434C907.218 302.849 919.273 316.307 934.953 323.874C950.633 331.442 968.669 332.508 985.131 326.838C1001.59 321.169 1015.15 309.224 1022.84 293.606C1030.54 277.988 1031.75 259.961 1026.22 243.453L1003.44 177.272C999.196 164.927 991.382 154.118 980.991 146.214C970.599 138.31 958.097 133.666 945.065 132.868C932.034 132.071 919.058 135.157 907.781 141.735C896.503 148.313 887.43 158.088 881.709 169.823L881.722 169.796ZM985.395 275.435C983.321 279.714 980.023 283.281 975.918 285.682C971.814 288.084 967.088 289.212 962.342 288.923C957.595 288.634 953.041 286.942 949.258 284.061C945.475 281.18 942.633 277.24 941.092 272.741L918.31 206.556C916.298 200.553 916.739 193.998 919.538 188.319C922.336 182.64 927.266 178.296 933.252 176.235C939.238 174.174 945.797 174.562 951.499 177.314C957.201 180.066 961.584 184.96 963.694 190.929L986.485 257.119C987.515 260.102 987.943 263.26 987.744 266.41C987.545 269.559 986.722 272.638 985.324 275.467L985.395 275.435Z" fill="#515979"/>
<g style="mix-blend-mode:soft-light">
<g style="mix-blend-mode:soft-light">
<path d="M981.399 315.999C966.353 321.179 949.866 320.17 935.564 313.194C921.263 306.219 910.317 293.848 905.136 278.803L907.084 284.481C912.266 299.527 923.212 311.899 937.516 318.874C951.819 325.849 968.307 326.857 983.353 321.675C998.4 316.493 1010.77 305.547 1017.75 291.243C1024.72 276.94 1025.73 260.452 1020.55 245.406L1018.59 239.736C1023.77 254.781 1022.77 271.269 1015.79 285.57C1008.82 299.872 996.444 310.818 981.399 315.999Z" fill="#515979"/>
</g>
</g>
<g style="mix-blend-mode:multiply" opacity="0.3">
<g style="mix-blend-mode:multiply" opacity="0.3">
<path d="M942.064 285.599C939.096 282.49 936.839 278.774 935.45 274.707L927.125 250.531C923.903 254.793 919.484 257.999 914.432 259.74C909.38 261.481 903.924 261.678 898.76 260.305L907.084 284.481C908.572 288.787 910.543 292.911 912.961 296.772C923.449 295.561 933.46 291.717 942.064 285.599Z" fill="#515979"/>
</g>
</g>
<path d="M907.266 238.942C900.879 241.132 893.904 240.849 887.716 238.15C881.527 235.451 876.575 230.531 873.834 224.361L839.732 236.133C845.711 251.194 857.263 263.371 871.987 270.136C886.712 276.9 903.477 277.731 918.798 272.455C934.119 267.18 946.818 256.204 954.256 241.808C961.695 227.413 963.301 210.704 958.74 195.155L924.673 206.878C926.308 213.431 925.427 220.359 922.205 226.295C918.982 232.231 913.652 236.743 907.266 238.942Z" fill="#75A5C3"/>
<path d="M921.172 205.593C923.185 211.596 922.743 218.151 919.945 223.83C917.146 229.51 912.217 233.853 906.23 235.914C900.244 237.976 893.686 237.588 887.984 234.836C882.282 232.083 877.899 227.189 875.789 221.22L874.748 218.22L869.043 220.155L870.07 223.159C872.66 230.683 878.134 236.869 885.286 240.357C892.437 243.846 900.682 244.35 908.206 241.759C915.729 239.169 921.916 233.695 925.404 226.544C928.892 219.392 929.396 211.147 926.806 203.624L925.77 200.615L920.096 202.576L921.172 205.593Z" fill="#515979"/>
<path d="M955.203 193.875C960.234 208.883 959.131 225.271 952.135 239.469C945.138 253.667 932.815 264.525 917.849 269.678C902.883 274.831 886.487 273.862 872.232 266.981C857.978 260.101 847.019 247.866 841.745 232.942L840.709 229.934L835.035 231.895L836.084 234.877C841.783 251.428 853.823 265.037 869.556 272.71C885.289 280.384 903.426 281.493 919.977 275.794C936.528 270.095 950.137 258.055 957.811 242.322C965.484 226.589 966.594 208.452 960.895 191.901L959.854 188.901L954.185 190.853L955.203 193.875Z" fill="#515979"/>
<path d="M921.489 142.029C906.444 147.21 894.073 158.155 887.097 172.457C880.122 186.759 879.113 203.246 884.293 218.292L886.245 223.961C881.066 208.913 882.076 192.424 889.054 178.121C896.033 163.818 908.407 152.873 923.455 147.694C938.502 142.515 954.992 143.525 969.294 150.503C983.597 157.481 994.542 169.855 999.722 184.903L997.761 179.229C995.196 171.778 991.188 164.905 985.967 159.003C980.746 153.101 974.413 148.285 967.33 144.831C960.247 141.376 952.554 139.351 944.688 138.87C936.823 138.389 928.94 139.463 921.489 142.029Z" fill="#9FC0D5"/>
<g style="mix-blend-mode:soft-light">
<g style="mix-blend-mode:soft-light">
<path d="M916.055 264.469C901.009 269.649 884.522 268.64 870.221 261.664C855.919 254.689 844.973 242.318 839.792 227.273L841.745 232.942C847.019 247.866 857.978 260.1 872.232 266.981C886.487 273.862 902.883 274.831 917.849 269.678C932.815 264.525 945.138 253.667 952.135 239.469C959.131 225.27 960.234 208.883 955.203 193.875L953.255 188.197C955.821 195.647 956.895 203.531 956.414 211.396C955.933 219.262 953.908 226.955 950.453 234.038C946.999 241.121 942.183 247.453 936.281 252.675C930.379 257.896 923.506 261.904 916.055 264.469Z" fill="#515979"/>
</g>
</g>
<path d="M872.206 111.016C871.512 112.44 870.542 113.713 869.354 114.76C868.165 115.807 866.78 116.609 865.28 117.119C863.78 117.628 862.194 117.836 860.613 117.729C859.033 117.622 857.489 117.204 856.07 116.498C855.594 116.265 855.229 115.853 855.056 115.351C854.883 114.85 854.917 114.3 855.15 113.823C855.382 113.346 855.795 112.982 856.296 112.809C856.798 112.636 857.347 112.67 857.824 112.902C858.769 113.372 859.798 113.65 860.852 113.721C861.905 113.791 862.962 113.652 863.961 113.312C864.96 112.972 865.883 112.438 866.675 111.74C867.467 111.042 868.112 110.194 868.575 109.245L868.619 109.155C868.852 108.679 869.264 108.314 869.765 108.141C870.267 107.968 870.817 108.002 871.293 108.235C871.77 108.467 872.135 108.879 872.308 109.381C872.48 109.883 872.447 110.432 872.214 110.909L872.206 111.016Z" fill="#515979"/>
<path d="M853.345 97.7226C852.794 98.0769 852.265 98.3639 851.767 98.6774L850.156 99.5609L848.551 100.458C848.017 100.754 847.492 101.054 846.896 101.342L846.522 101.515C846.226 101.654 845.897 101.706 845.572 101.666C845.248 101.626 844.942 101.495 844.688 101.289C844.434 101.083 844.244 100.81 844.139 100.5C844.033 100.191 844.017 99.8583 844.092 99.5402C844.345 98.5728 844.836 97.6839 845.52 96.9545C846.126 96.2368 846.855 95.6317 847.671 95.1667C848.503 94.7081 849.408 94.3966 850.346 94.2459C851.326 94.0523 852.34 94.1069 853.294 94.4046C853.606 94.5067 853.882 94.6953 854.091 94.9483C854.299 95.2014 854.431 95.5085 854.472 95.8338C854.513 96.1591 854.46 96.4894 854.32 96.786C854.181 97.0826 853.96 97.3333 853.683 97.5091L853.345 97.7226Z" fill="#515979"/>
<path d="M870.144 93.2993C869.493 93.4488 868.912 93.544 868.296 93.6216L866.474 93.9347L864.679 94.1716C864.072 94.276 863.469 94.3714 862.825 94.4359L862.446 94.529C861.987 94.5692 861.532 94.427 861.177 94.1333C860.823 93.8396 860.598 93.4181 860.552 92.96C860.519 92.5623 860.619 92.1649 860.836 91.8302C861.41 91.0101 862.178 90.3449 863.071 89.894C864.726 88.9983 866.631 88.679 868.487 88.9863C869.493 89.1392 870.444 89.5419 871.254 90.1577C871.512 90.3602 871.708 90.6321 871.818 90.9417C871.927 91.2512 871.947 91.5857 871.874 91.9058C871.8 92.226 871.637 92.5187 871.404 92.7497C871.17 92.9807 870.876 93.1404 870.555 93.2102L870.144 93.2993Z" fill="#515979"/>
<path d="M939.104 155.049C938.932 155.408 938.656 155.707 938.312 155.909C937.968 156.11 937.572 156.204 937.174 156.179C936.776 156.153 936.395 156.01 936.08 155.766C935.764 155.523 935.529 155.191 935.403 154.812C935.317 154.565 935.137 154.361 934.901 154.245C934.663 154.129 934.388 154.112 934.137 154.198C933.887 154.285 933.68 154.467 933.564 154.705C933.506 154.823 933.471 154.952 933.462 155.083C933.454 155.214 933.471 155.346 933.513 155.471C933.686 155.972 933.653 156.522 933.42 156.999C933.187 157.476 932.775 157.841 932.273 158.014C931.771 158.187 931.221 158.153 930.744 157.921C930.267 157.688 929.902 157.275 929.729 156.774C929.296 155.519 929.38 154.145 929.96 152.952C930.248 152.361 930.649 151.833 931.141 151.397C931.633 150.961 932.205 150.627 932.826 150.412C933.447 150.198 934.104 150.108 934.76 150.148C935.416 150.188 936.058 150.356 936.648 150.644C937.239 150.931 937.767 151.332 938.203 151.824C938.639 152.316 938.973 152.888 939.187 153.509C939.276 153.759 939.314 154.023 939.3 154.287C939.286 154.552 939.219 154.81 939.104 155.049Z" fill="#515979"/>
<path d="M923.972 160.252C923.799 160.607 923.525 160.903 923.184 161.103C922.842 161.302 922.45 161.396 922.055 161.373C921.661 161.35 921.282 161.21 920.967 160.971C920.652 160.733 920.414 160.406 920.285 160.033C920.25 159.9 920.188 159.775 920.103 159.667C920.018 159.558 919.911 159.469 919.789 159.404C919.668 159.338 919.534 159.299 919.397 159.288C919.26 159.277 919.121 159.294 918.991 159.339C918.861 159.384 918.741 159.456 918.64 159.549C918.538 159.642 918.457 159.755 918.402 159.881C918.346 160.008 918.317 160.144 918.317 160.282C918.316 160.419 918.344 160.556 918.399 160.682C918.572 161.184 918.538 161.734 918.306 162.211C918.073 162.688 917.66 163.053 917.159 163.226C916.657 163.399 916.107 163.365 915.63 163.132C915.153 162.9 914.788 162.487 914.615 161.985C914.388 161.361 914.287 160.699 914.319 160.035C914.351 159.372 914.515 158.722 914.801 158.123C915.087 157.524 915.489 156.987 915.984 156.545C916.48 156.103 917.058 155.764 917.686 155.548C918.313 155.332 918.978 155.243 919.64 155.286C920.303 155.33 920.95 155.505 921.544 155.801C922.139 156.097 922.668 156.509 923.101 157.012C923.535 157.515 923.864 158.099 924.069 158.73C924.239 159.23 924.204 159.777 923.972 160.252Z" fill="#515979"/>
<path d="M937.519 162.542C936.824 163.966 935.855 165.239 934.666 166.286C933.477 167.333 932.093 168.135 930.593 168.644C929.093 169.154 927.507 169.361 925.926 169.255C924.345 169.148 922.801 168.73 921.383 168.023C920.906 167.791 920.541 167.378 920.369 166.877C920.196 166.375 920.23 165.826 920.462 165.349C920.695 164.872 921.107 164.507 921.609 164.335C922.11 164.162 922.66 164.196 923.137 164.428C924.082 164.9 925.111 165.179 926.166 165.251C927.22 165.322 928.277 165.184 929.278 164.844C930.278 164.505 931.202 163.97 931.994 163.272C932.787 162.574 933.434 161.725 933.897 160.776L933.936 160.695C934.169 160.218 934.581 159.853 935.083 159.68C935.584 159.508 936.134 159.541 936.611 159.774C937.087 160.006 937.452 160.419 937.625 160.92C937.798 161.422 937.764 161.971 937.531 162.448L937.519 162.542Z" fill="#515979"/>
<path d="M919.379 151.169C918.819 151.519 918.289 151.806 917.8 152.124L916.186 153.016L914.629 153.926C914.091 154.231 913.571 154.522 912.974 154.81L912.6 154.984C912.308 155.108 911.987 155.15 911.673 155.105C911.359 155.06 911.063 154.93 910.817 154.729C910.571 154.527 910.385 154.263 910.279 153.963C910.173 153.664 910.151 153.341 910.215 153.03C910.472 152.064 910.962 151.176 911.643 150.445C912.279 149.741 913.027 149.147 913.858 148.688C914.691 148.232 915.595 147.921 916.532 147.767C917.513 147.573 918.526 147.628 919.481 147.925C919.792 148.028 920.069 148.216 920.277 148.469C920.486 148.722 920.618 149.029 920.659 149.355C920.699 149.68 920.647 150.01 920.507 150.307C920.367 150.603 920.146 150.854 919.869 151.03L919.379 151.169Z" fill="#515979"/>
<path d="M936.129 146.733C935.482 146.873 934.901 146.968 934.289 147.059L932.494 147.296L930.685 147.582C930.078 147.687 929.475 147.782 928.845 147.797L928.434 147.842C927.975 147.884 927.517 147.743 927.162 147.449C926.807 147.155 926.583 146.732 926.54 146.273C926.504 145.875 926.607 145.477 926.833 145.147C927.402 144.325 928.167 143.658 929.059 143.207C930.741 142.306 932.678 142 934.556 142.338C935.561 142.492 936.512 142.894 937.322 143.51C937.581 143.713 937.777 143.986 937.887 144.296C937.997 144.606 938.017 144.941 937.944 145.262C937.871 145.583 937.709 145.877 937.476 146.109C937.243 146.342 936.949 146.504 936.628 146.576L936.129 146.733Z" fill="#515979"/>
<path d="M873.409 105.105C873.274 105.384 873.055 105.614 872.783 105.762C872.511 105.911 872.2 105.971 871.892 105.934C870.622 105.877 869.377 106.298 868.402 107.114C868.26 107.254 868.093 107.366 867.908 107.441C867.723 107.517 867.526 107.556 867.326 107.555C867.126 107.554 866.929 107.514 866.745 107.437C866.561 107.36 866.394 107.247 866.253 107.106C866.112 106.964 866.001 106.796 865.925 106.612C865.85 106.427 865.811 106.229 865.812 106.03C865.813 105.83 865.853 105.633 865.93 105.449C866.007 105.264 866.119 105.097 866.261 104.957C867.064 104.228 868.007 103.67 869.032 103.317C870.057 102.964 871.143 102.824 872.225 102.903C872.618 102.953 872.977 103.155 873.223 103.466C873.468 103.778 873.582 104.173 873.538 104.567C873.525 104.753 873.481 104.934 873.409 105.105Z" fill="#515979"/>
<path d="M872.337 102.057C873.548 99.5749 872.517 96.5816 870.035 95.371C867.553 94.1605 864.56 95.1912 863.349 97.6731C862.139 100.155 863.169 103.148 865.651 104.359C868.133 105.569 871.127 104.539 872.337 102.057Z" fill="#515979"/>
<path d="M870.143 100.008C870.446 99.3873 870.188 98.639 869.568 98.3363C868.947 98.0337 868.199 98.2914 867.896 98.9119C867.594 99.5324 867.851 100.281 868.472 100.583C869.092 100.886 869.841 100.628 870.143 100.008Z" fill="white"/>
<path d="M858.286 110.313C858.151 110.591 857.932 110.821 857.66 110.97C857.388 111.118 857.077 111.178 856.769 111.142C855.493 111.09 854.245 111.522 853.275 112.352C852.99 112.633 852.606 112.789 852.207 112.786C851.808 112.783 851.426 112.622 851.146 112.338C850.865 112.053 850.709 111.669 850.712 111.27C850.715 110.871 850.876 110.489 851.16 110.209C851.963 109.48 852.906 108.922 853.931 108.569C854.957 108.216 856.043 108.075 857.124 108.155C857.519 108.202 857.879 108.403 858.125 108.715C858.371 109.027 858.484 109.424 858.438 109.819C858.417 109.991 858.365 110.158 858.286 110.313Z" fill="#515979"/>
<path d="M857.214 107.264C858.424 104.782 857.394 101.789 854.912 100.578C852.43 99.3679 849.436 100.399 848.226 102.881C847.015 105.362 848.046 108.356 850.528 109.566C853.01 110.777 856.003 109.746 857.214 107.264Z" fill="#515979"/>
<path d="M855.02 105.215C855.323 104.595 855.065 103.846 854.444 103.544C853.824 103.241 853.076 103.499 852.773 104.119C852.47 104.74 852.728 105.488 853.349 105.791C853.969 106.093 854.717 105.836 855.02 105.215Z" fill="white"/>
</svg>
