<?xml version="1.0" encoding="utf-8"?>
<!-- Generator: Adobe Illustrator 25.0.0, SVG Export Plug-In . SVG Version: 6.00 Build 0)  -->
<svg version="1.1" id="Layer_1" xmlns="http://www.w3.org/2000/svg" xmlns:xlink="http://www.w3.org/1999/xlink" x="0px" y="0px"
	 viewBox="0 0 140.1 150" style="enable-background:new 0 0 140.1 150;" xml:space="preserve">
<style type="text/css">
	.st0{fill:#07BEEF;}
	.st1{fill:#FC635B;}
	.st2{fill:#7EC927;}
	.st3{fill:#FFA733;}
	.st4{fill:#00B6E0;}
	.st5{fill:#F34234;}
	.st6{fill:#60A917;}
	.st7{fill:#FF9801;}
	.st8{fill:#35414D;}
	.st9{fill:#EF6D7A;}
	.st10{fill:#3A312A;}
	.st11{fill:#D6DF58;}
	.st12{fill:#8AC5DC;}
	.st13{fill:#87796F;}
</style>
<g>
	<g>
		<path class="st0" d="M17.3,58.7c0,4.1-3.3,7.5-7.4,7.5s-7.5-3.3-7.5-7.5c0-4.1,3.3-7.4,7.5-7.4S17.3,54.6,17.3,58.7L17.3,58.7z"/>
		<path class="st1" d="M57.4,24.2c0,4.1-3.3,7.5-7.4,7.5s-7.5-3.3-7.5-7.5c0-4.1,3.3-7.4,7.5-7.4S57.4,20.1,57.4,24.2z"/>
		<path class="st2" d="M97.6,48.6c0,4.1-3.3,7.5-7.4,7.5c-4.1,0-7.5-3.3-7.5-7.5c0-4.1,3.3-7.4,7.5-7.4
			C94.3,41.2,97.6,44.5,97.6,48.6L97.6,48.6z"/>
		<path class="st3" d="M137.7,9.9c0,4.1-3.3,7.5-7.4,7.5c-4.1,0-7.5-3.3-7.5-7.5c0-4.1,3.3-7.4,7.5-7.4
			C134.3,2.5,137.7,5.8,137.7,9.9z"/>
		<path class="st4" d="M17.3,58.4v0.3c0,4.1-3.3,7.5-7.4,7.5s-7.5-3.3-7.5-7.5c0-2.2,1-4.2,2.5-5.6c0.2,4,3.4,7.1,7.5,7.1
			C14.4,60.2,16,59.5,17.3,58.4z"/>
		<path class="st5" d="M57.4,23.9v0.3c0,4.1-3.3,7.5-7.4,7.5c-4.1,0-7.5-3.3-7.5-7.5c0-2.3,1-4.2,2.5-5.6c0.1,4,3.4,7.2,7.5,7.2
			C54.5,25.7,56.1,25,57.4,23.9L57.4,23.9z"/>
		<path class="st6" d="M97.6,48.3v0.3c0,4.1-3.3,7.5-7.4,7.5c-4.1,0-7.5-3.3-7.5-7.5c0-2.3,1-4.2,2.5-5.6c0.2,3.9,3.5,7.1,7.5,7.1
			C94.5,50.1,96.3,49.4,97.6,48.3L97.6,48.3z"/>
		<path class="st7" d="M137.6,9.6v0.3c0,4.1-3.3,7.5-7.4,7.5c-4.1,0-7.5-3.3-7.5-7.5c0-2.2,1-4.2,2.5-5.6c0.2,4,3.5,7.1,7.5,7.1
			C134.6,11.4,136.3,10.7,137.6,9.6z"/>
		<path class="st8" d="M9.9,68.6c5.4,0,9.9-4.4,9.9-9.9c0-1.6-0.4-3.1-1.1-4.5l25.1-22.4c1.7,1.4,3.9,2.3,6.3,2.3
			c2.9,0,5.5-1.3,7.3-3.3l23.2,15.6c-0.1,0.7-0.2,1.4-0.2,2.1c0,5.5,4.4,9.9,9.9,9.9c5.4,0,9.9-4.4,9.9-9.9c0-1.5-0.3-2.9-0.9-4.1
			L125,18.3c1.5,0.9,3.3,1.5,5.2,1.5c5.4,0,9.9-4.4,9.9-9.9c0-5.4-4.4-9.9-9.9-9.9c-5.5,0-9.9,4.4-9.9,9.9c0,1.8,0.5,3.4,1.3,4.8
			L95.9,40.6c-1.6-1.2-3.6-1.9-5.8-1.9c-2.9,0-5.6,1.3-7.4,3.4L59.6,26.5c0.2-0.7,0.3-1.5,0.3-2.3c0-5.4-4.4-9.9-9.9-9.9
			c-5.5,0-9.9,4.4-9.9,9.9c0,1.3,0.3,2.5,0.7,3.6L15.4,50.5c-1.6-1.1-3.5-1.7-5.5-1.7c-5.5,0-9.9,4.4-9.9,9.9
			C0,64.2,4.5,68.6,9.9,68.6z M130.2,4.9c2.7,0,5,2.2,5,5s-2.2,5-5,5c-2.7,0-5-2.2-5-5S127.5,4.9,130.2,4.9z M90.1,43.6
			c2.7,0,5,2.2,5,5s-2.2,5-5,5c-2.7,0-5-2.2-5-5C85.2,45.9,87.4,43.6,90.1,43.6L90.1,43.6z M50,19.2c2.7,0,5,2.2,5,5s-2.2,5-5,5
			s-5-2.2-5-5C45,21.5,47.3,19.2,50,19.2L50,19.2z M9.9,53.7c2.7,0,5,2.2,5,5c0,2.7-2.2,5-5,5s-5-2.2-5-5C4.9,56,7.2,53.7,9.9,53.7
			L9.9,53.7z"/>
	</g>
	<g>
		<path class="st9" d="M4.4,111.1h25.8V148H4.4L4.4,111.1z"/>
		<path class="st10" d="M30.2,150H4.4c-1.1,0-2-0.9-2-2v-36.8c0-1.1,0.9-2,2-2h25.8c1.1,0,2,0.9,2,2V148
			C32.2,149.1,31.3,150,30.2,150z M6.5,145.9h21.7v-32.7H6.5L6.5,145.9z"/>
		<path class="st11" d="M40.2,73.8h25.8V148H40.2V73.8z"/>
		<path class="st10" d="M65.9,150H40.2c-1.1,0-2-0.9-2-2V73.8c0-1.1,0.9-2,2-2h25.8c1.1,0,2,0.9,2,2V148C68,149.1,67.1,150,65.9,150
			z M42.2,145.9h21.7V75.8H42.2V145.9z"/>
		<path class="st12" d="M75.9,92.7h25.8V148H75.9V92.7z"/>
		<path class="st10" d="M101.7,150H75.9c-1.1,0-2-0.9-2-2V92.7c0-1.1,0.9-2,2-2h25.8c1.1,0,2,0.9,2,2V148
			C103.7,149.1,102.8,150,101.7,150z M78,145.9h21.7V94.7H78V145.9z"/>
		<path class="st13" d="M111.7,59.3h25.8V148h-25.8V59.3z"/>
		<path class="st10" d="M137.4,150h-25.8c-1.1,0-2-0.9-2-2V59.3c0-1.1,0.9-2,2-2h25.8c1.1,0,2,0.9,2,2V148
			C139.5,149.1,138.6,150,137.4,150L137.4,150z M113.7,145.9h21.7V61.3h-21.7V145.9z"/>
	</g>
</g>
</svg>
