<?xml version="1.0" encoding="utf-8"?>
<!-- Generator: Adobe Illustrator 25.0.0, SVG Export Plug-In . SVG Version: 6.00 Build 0)  -->
<svg version="1.1" id="Layer_1" xmlns="http://www.w3.org/2000/svg" xmlns:xlink="http://www.w3.org/1999/xlink" x="0px" y="0px"
	 viewBox="0 0 128.1 150" style="enable-background:new 0 0 128.1 150;" xml:space="preserve">
<style type="text/css">
	.st0{fill:#656D78;}
	.st1{fill:#F4F6F8;}
	.st2{fill:#E4E8EB;}
	.st3{fill:#F16C7A;}
	.st4{fill:#3A312A;}
	.st5{fill:#D7E057;}
	.st6{fill:#8AC6DD;}
	.st7{fill:#FDF6EC;stroke:#35414D;stroke-width:1.7447;stroke-miterlimit:10;}
	.st8{fill:#35414D;}
	.st9{clip-path:url(#SVGID_1_);}
	.st10{fill:#FBBC05;}
	.st11{fill:#4285F4;}
	.st12{fill:none;stroke:#35414D;stroke-width:2.1213;stroke-linecap:round;stroke-linejoin:round;stroke-miterlimit:13.3333;}
	.st13{fill-rule:evenodd;clip-rule:evenodd;fill:#FFB54C;}
	.st14{fill-rule:evenodd;clip-rule:evenodd;fill:#35414D;}
	.st15{fill-rule:evenodd;clip-rule:evenodd;fill:#FFA733;}
	.st16{fill-rule:evenodd;clip-rule:evenodd;fill:#2FB1D4;}
	.st17{fill-rule:evenodd;clip-rule:evenodd;fill:#FF5A5A;}
	.st18{fill:#FF6666;}
	.st19{fill:#07BEEF;}
	.st20{fill:#FC635B;}
	.st21{fill:#7EC927;}
	.st22{fill:#FFA733;}
	.st23{fill:#00B6E0;}
	.st24{fill:#F34234;}
	.st25{fill:#60A917;}
	.st26{fill:#FF9801;}
	.st27{fill:#5D6D7E;}
	.st28{fill:#FF8E31;}
	.st29{fill:#FECE59;}
	.st30{fill:#34495E;}
	.st31{opacity:0.3;fill:#34495E;}
	.st32{opacity:0.2;fill:#FFFFFF;}
</style>
<g>
	<polygon class="st0" points="124.4,16.7 123.9,16.7 123.9,29.2 4.2,29.2 4.2,15.3 2.6,13.3 3.4,5.5 7.2,2.9 15,4.2 111.4,4.2 
		111.4,2.9 123.9,4.2 	"/>
	<path class="st1" d="M123.9,29.2v103.6c0,7.2-4.8,13-10.8,13H15c-7.7,2.6-14.7,0-10.8-13l0,0V29.2L123.9,29.2z"/>
	<path class="st2" d="M123.9,29.2v103.6c0.5,6.9,4.1,15.4-10.8,13H15c-13,1.6-13-4.9-11.6-10.1c0.8,0.2,2.7,0.3,3.5,0.3h12.3
		c50.2,0,92.1-46.4,96.3-106.8L123.9,29.2z"/>
	<g>
		<g>
			<circle class="st3" cx="19.4" cy="16.7" r="4.3"/>
			<path class="st4" d="M19.4,22c-2.9,0-5.3-2.4-5.3-5.3s2.4-5.3,5.3-5.3s5.3,2.4,5.3,5.3S22.3,22,19.4,22z M19.4,13.3
				c-1.9,0-3.4,1.5-3.4,3.4s1.5,3.4,3.4,3.4c1.9,0,3.4-1.5,3.4-3.4C22.8,14.8,21.3,13.3,19.4,13.3z"/>
		</g>
		<g>
			<circle class="st5" cx="32.8" cy="16.7" r="4.3"/>
			<path class="st4" d="M32.8,22c-2.9,0-5.3-2.4-5.3-5.3s2.4-5.3,5.3-5.3s5.3,2.4,5.3,5.3S35.7,22,32.8,22z M32.8,13.3
				c-1.9,0-3.4,1.5-3.4,3.4s1.5,3.4,3.4,3.4c1.9,0,3.4-1.5,3.4-3.4C36.2,14.8,34.7,13.3,32.8,13.3z"/>
		</g>
		<g>
			<circle class="st6" cx="46.2" cy="16.7" r="4.3"/>
			<path class="st4" d="M46.2,22c-2.9,0-5.3-2.4-5.3-5.3s2.4-5.3,5.3-5.3c2.9,0,5.3,2.4,5.3,5.3S49.2,22,46.2,22z M46.2,13.3
				c-1.9,0-3.4,1.5-3.4,3.4s1.5,3.4,3.4,3.4c1.9,0,3.4-1.5,3.4-3.4C49.6,14.8,48.1,13.3,46.2,13.3z"/>
		</g>
		<path class="st7" d="M110.4,20.3H69.2c-2,0-3.6-1.6-3.6-3.6v0c0-2,1.6-3.6,3.6-3.6h41.1c2,0,3.6,1.6,3.6,3.6v0
			C114,18.7,112.3,20.3,110.4,20.3z"/>
	</g>
	<path class="st8" d="M115.3,4.2c4.8,0,8.6,3.9,8.6,8.6v124.4c0,4.8-3.9,8.6-8.6,8.6H12.8c-4.8,0-8.6-3.9-8.6-8.6V12.8
		C4.2,8,8,4.2,12.8,4.2H115.3 M115.3,0H12.8C5.7,0,0,5.7,0,12.8v124.4c0,7.1,5.7,12.8,12.8,12.8h102.5c7.1,0,12.8-5.7,12.8-12.8
		V12.8C128.1,5.7,122.3,0,115.3,0L115.3,0z"/>
	<g id="g5160_3_" transform="matrix(1.3333333,0,0,-1.3333333,0,682.66667)">
		<g id="g5162_3_">
			<g>
				<defs>
					
						<rect id="SVGID_4_" x="26.4" y="401.4" transform="matrix(0.7071 -0.7071 0.7071 0.7071 -284.922 157.4546)" width="42.4" height="42.4"/>
				</defs>
				<clipPath id="SVGID_1_">
					<use xlink:href="#SVGID_4_"  style="overflow:visible;"/>
				</clipPath>
				<g id="g5164_5_" class="st9">
					<g id="g5170_5_" transform="translate(247.21,328.7803)">
						<path id="path5172_5_" class="st10" d="M-196.8,97.5c0.7-1.3,1-2.8,0.9-4.2c0,0,0,0,0,0c0-0.3-0.1-0.5-0.1-0.7l0,0
							c0-0.2-0.1-0.5-0.2-0.7c0,0,0,0,0,0c-0.1-0.5-0.4-1.1-0.7-1.6c0,0,0,0,0,0c-1.3-2.3-3.7-3.8-6.5-3.8l-7.3,0
							c-4.1,0-7.5,3.3-7.5,7.5c0,4.1,3.3,7.5,7.5,7.5l7.3,0c1.4,0,2.6-0.4,3.7-1c-0.6-0.3-1.1-0.7-1.5-1.2c-0.5-0.5-0.9-1.1-1.3-1.7
							c-0.3,0.1-0.6,0.1-0.9,0.1l-7.3,0c-2.1,0-3.7-1.7-3.7-3.7c0-2.1,1.7-3.7,3.7-3.7l7.3,0c2.1,0,3.7,1.7,3.7,3.7
							C-199.6,95.6-198.4,97.1-196.8,97.5C-196.8,97.5-196.8,97.5-196.8,97.5"/>
					</g>
					<g id="g5174_5_" transform="translate(466.8496,466.8496)">
						<path id="path5176_5_" class="st11" d="M-400.7-44.2c0,4.1-3.3,7.5-7.5,7.5l-7.3,0c-4.1,0-7.5-3.3-7.5-7.5
							c0-1.3,0.3-2.5,0.9-3.6c1.6,0.4,2.8,1.9,2.8,3.6c0,2.1,1.7,3.7,3.7,3.7l7.5,0l0,0c2-0.1,3.6-1.7,3.6-3.7
							c0-2.1-1.7-3.7-3.7-3.7l-7.3,0c-0.3,0-0.6,0-0.9,0.1c-0.3-0.6-0.8-1.2-1.3-1.7c-0.5-0.5-1-0.9-1.5-1.2c1.1-0.6,2.4-1,3.7-1
							l7.3,0C-404.1-51.6-400.7-48.3-400.7-44.2"/>
					</g>
					<g id="g5178_5_" transform="translate(246.7451,328.9209)">
						<path id="path5180_5_" class="st12" d="M-196.3,97.3c0.6-1.1,0.9-2.3,0.9-3.6c0-4.1-3.3-7.5-7.5-7.5l-7.3,0
							c-4.1,0-7.5,3.3-7.5,7.5c0,4.1,3.3,7.5,7.5,7.5h7.3c1.4,0,2.6-0.4,3.7-1c-1.1,0.6-2.4,1-3.7,1h-7.3c-4.1,0-7.5-3.3-7.5-7.5
							c0-4.1,3.3-7.5,7.5-7.5l7.3,0c4.1,0,7.5,3.3,7.5,7.5C-195.4,95-195.8,96.3-196.3,97.3z"/>
					</g>
					<g id="g5182_5_" transform="translate(328.9209,246.7451)">
						<path id="path5184_5_" class="st12" d="M-278.5,172.3c0.3-0.1,0.6-0.1,0.9-0.1l7.3,0c2.1,0,3.7,1.7,3.7,3.7
							c0,1.8-1.4,3.4-3.1,3.7"/>
					</g>
					<g id="g5186_5_" transform="translate(290.0762,374.9287)">
						<path id="path5188_5_" class="st12" d="M-235.7,51.5h-3c-2.1,0-3.7-1.7-3.7-3.7c0-2.1-1.7-3.7-3.7-3.7l-7.3,0
							c-2.1,0-3.7,1.7-3.7,3.7c0,2.1,1.7,3.7,3.7,3.7l7.3,0c0.3,0,0.6,0,0.9-0.1"/>
					</g>
					<g id="g5190_5_" transform="translate(265.2549,183.0791)">
						<path id="path5192_5_" class="st12" d="M-220.4,236c-0.6,1.1-0.9,2.3-0.9,3.6c0,4.1,3.3,7.5,7.5,7.5l7.3,0
							c4.1,0,7.5-3.3,7.5-7.5c0-4.1-3.3-7.5-7.5-7.5h-7.3c-1.4,0-2.6,0.4-3.7,1c1.1-0.6,2.4-1,3.7-1h7.3c4.1,0,7.5,3.3,7.5,7.5
							c0,4.1-3.3,7.5-7.5,7.5l-7.3,0c-4.1,0-7.5-3.3-7.5-7.5C-221.4,238.3-221,237-220.4,236z"/>
					</g>
					<g id="g5194_5_" transform="translate(325.4316,396.1416)">
						<path id="path5196_5_" d="M-268.6,29.6c-0.3,0-0.6,0.3-0.6,0.6c0,0.3,0.3,0.6,0.6,0.6c0.3,0,0.6-0.3,0.6-0.6
							C-268,29.9-268.3,29.6-268.6,29.6"/>
					</g>
					<g id="g5210_6_" transform="translate(383.2793,128.7207)">
						<path id="path5212_6_" class="st12" d="M-335.7,282.8V279"/>
					</g>
					<g id="g5214_6_" transform="translate(333,95)">
						<path id="path5216_6_" class="st12" d="M-289.1,317.2l-2.6-2.6"/>
					</g>
					<g id="g5218_6_" transform="translate(417,179)">
						<path id="path5220_6_" class="st12" d="M-365.7,233.2l2.6-2.6"/>
					</g>
				</g>
			</g>
		</g>
	</g>
	<g>
		<g>
			<g>
				<path class="st13" d="M49.3,54.4c0,5.4-2.5,10.7-7.2,14.1L31.9,54.4h2.9L49.3,54.4z"/>
				<circle class="st14" cx="31.9" cy="54.5" r="18"/>
				<circle class="st14" cx="31.9" cy="54.4" r="17.4"/>
				<path class="st14" d="M31.9,37.1c9.6,0,17.4,7.8,17.4,17.4H31.9V37.1z"/>
				<path class="st15" d="M42.4,66.1l-7.1-9.9h12.2C47,60.1,45.2,63.5,42.4,66.1L42.4,66.1z"/>
				<path class="st16" d="M16.2,54.4c0,8.6,7,15.7,15.7,15.7c2.8,0,5.4-0.7,7.7-2l-9.1-12.6l0,0c-0.2-0.3-0.3-0.6-0.3-1V38.9
					C22.4,39.7,16.2,46.4,16.2,54.4z"/>
				<path class="st17" d="M47.5,52.7H33.6V38.9C40.9,39.7,46.7,45.5,47.5,52.7z"/>
			</g>
			<g>
				<g>
					<path class="st8" d="M45.7,86.1c-0.2-0.6-0.5-1.1-0.9-1.7c-0.3-0.4-0.6-0.7-0.9-1.1c-0.2-0.2-0.5-0.5-0.8-0.7
						c-0.3-0.2-0.5-0.4-0.8-0.5c-0.3-0.2-0.6-0.3-0.9-0.4c-0.1,0-0.3-0.1-0.4-0.1c-0.1,0-0.3-0.1-0.4-0.1c-0.2,0-0.3,0-0.5-0.1
						c0,0-0.1,0-0.1,0c0,0-0.1,0-0.1,0c-0.1,0-0.2,0-0.3,0c0,0,0,0,0,0c0,0-0.1,0-0.1,0c-0.5,0-2.3,0.1-3.7,1.3
						c-0.1,0.1-0.2,0.2-0.4,0.3c-0.4,0.4-0.8,0.9-1.3,1.4c-1.2,1.5-2.1,2.9-2.1,2.9c0,0,0,0,0,0c-0.9-1.4-2-2.9-3.4-4.3
						c-0.1-0.2-0.3-0.3-0.5-0.4c-0.3-0.2-0.6-0.4-0.9-0.5c0,0-0.1,0-0.1-0.1c-0.3-0.1-0.6-0.3-0.9-0.4c-0.3-0.1-0.5-0.1-0.8-0.2
						c-0.2,0-0.4-0.1-0.6-0.1c-0.1,0-0.2,0-0.4,0c0,0-0.1,0-0.1,0c-0.2,0-0.4,0-0.7,0c-0.2,0-0.4,0.1-0.6,0.1
						c-0.2,0.1-0.4,0.1-0.6,0.2C22.4,82,22.2,82,22,82.1c-0.2,0.1-0.4,0.2-0.6,0.3c-0.2,0.1-0.4,0.3-0.5,0.4
						c-0.2,0.1-0.3,0.3-0.5,0.4c-0.1,0.1-0.2,0.2-0.2,0.2c-0.1,0.1-0.2,0.2-0.3,0.3c0,0.1-0.1,0.1-0.1,0.2c0,0,0,0.1-0.1,0.1
						c0,0,0,0,0,0c0,0,0,0,0,0c-0.1,0.1-0.1,0.2-0.2,0.3c-0.1,0.2-0.2,0.3-0.3,0.5c-0.1,0.2-0.2,0.4-0.3,0.6
						c-0.1,0.1-0.1,0.2-0.2,0.3c0,0,0,0,0,0c0,0.1-0.1,0.2-0.1,0.3c0,0,0,0,0,0c0,0.1-0.1,0.2-0.1,0.3c0,0,0,0,0,0
						c0,0.1-0.1,0.3-0.1,0.4c0,0.1-0.1,0.2-0.1,0.3c0,0,0,0,0,0c0,0.1,0,0.2-0.1,0.3c0,0,0,0,0,0.1c-0.5,2.6-0.4,6.2,2.9,9.2
						c0.1,0.1,0.2,0.2,0.4,0.3c0.1,0.1,0.3,0.2,0.4,0.3c0.1,0.1,0.3,0.1,0.4,0.2c0.1,0.1,0.3,0.1,0.4,0.2c0.1,0,0.2,0.1,0.4,0.1
						c0.1,0,0.2,0.1,0.4,0.1c0.3,0.1,0.7,0.1,1,0.1c0.3,0,0.7,0,1,0c0.3,0,0.6-0.1,0.9-0.1c0.1,0,0.2-0.1,0.3-0.1
						c0.1,0,0.2-0.1,0.3-0.1c0.1,0,0.2-0.1,0.4-0.1c0.1-0.1,0.2-0.1,0.4-0.2c0.1-0.1,0.2-0.1,0.4-0.2c0.1-0.1,0.2-0.1,0.3-0.2
						c0.1-0.1,0.2-0.2,0.3-0.3c0,0,0.1-0.1,0.1-0.1c0,0,0.1-0.1,0.1-0.1c0.8-0.7,2.3-2.8,3.4-4.3c0,0,0.3,0.5,0.4,0.6
						c0.1,0.2,0.3,0.4,0.4,0.6c0.2,0.3,0.5,0.6,0.7,1c0.5,0.7,1,1.3,1.5,1.9c0.4,0.4,0.8,0.8,1.3,1c1.4,0.9,3.2,1.1,4.8,0.7
						c0.3-0.1,0.6-0.2,1-0.3c1-0.5,1.9-1.3,2.6-2.2c1.5-2.2,2.1-5,1.6-7.7C46.2,87.4,46,86.7,45.7,86.1z M27.2,94.2
						c-0.1,0.1-0.2,0.1-0.2,0.2c-0.1,0-0.1,0.1-0.2,0.1c-0.5,0.4-1.2,0.5-1.8,0.6c-0.5,0-1,0-1.4-0.1c-0.1,0-0.1,0-0.2,0
						c-0.1,0-0.1,0-0.2-0.1c-0.1,0-0.2-0.1-0.2-0.1c-0.1,0-0.2-0.1-0.2-0.1c-0.1,0-0.2-0.1-0.2-0.1c-0.1-0.1-0.1-0.1-0.2-0.2
						c-0.1-0.1-0.1-0.1-0.2-0.2C22,94.1,22,94.1,21.9,94c-0.1-0.1-0.1-0.1-0.2-0.2c-0.1-0.1-0.1-0.1-0.2-0.2
						c-0.1-0.1-0.1-0.2-0.2-0.2c-0.1-0.1-0.1-0.2-0.2-0.2c-0.1-0.1-0.1-0.2-0.1-0.3c0-0.1-0.1-0.2-0.1-0.3c0-0.1-0.1-0.2-0.1-0.3
						c0-0.1-0.1-0.2-0.1-0.3c0-0.1-0.1-0.2-0.1-0.3c0-0.1-0.1-0.2-0.1-0.3c0-0.1,0-0.2-0.1-0.3c0-0.1,0-0.2,0-0.3c0-0.1,0-0.2,0-0.3
						c0-0.1,0-0.2,0-0.3c0,0,0-0.1,0-0.1c0-3.3,3-6.8,6.3-4.6c0.5,0.3,1,0.8,1.4,1.3c0.8,1.1,1.7,2.2,2.4,3.3
						c-0.4,0.6-0.8,1.2-1.2,1.7c-0.3,0.5-0.7,0.9-1,1.4C28,93.5,27.6,93.9,27.2,94.2z M41.6,94.7C41,95,40.4,95.1,40,95.2
						c-0.4,0.1-0.8,0-1.2,0c-0.4-0.1-0.8-0.2-1.1-0.5c-0.4-0.2-0.7-0.5-1-0.8c-0.2-0.3-0.5-0.5-0.7-0.8c-0.2-0.3-0.5-0.6-0.7-0.9
						c-0.3-0.4-0.5-0.7-0.8-1.1c-0.1-0.1-0.1-0.2-0.2-0.2c-0.2-0.3-0.3-0.5-0.5-0.8c0.9-1.4,1.9-2.9,3.1-4.1
						c0.4-0.4,0.9-0.8,1.5-0.9l0,0c0.9-0.3,1.8-0.3,2.7,0.1c0.6,0.3,1.1,0.7,1.5,1.1c0.9,1,1.3,2.4,1.3,3.8
						C43.9,92,43,93.8,41.6,94.7z"/>
				</g>
				<path class="st18" d="M45.4,85.1c-0.2-0.6-0.5-1.1-0.9-1.7c-0.3-0.4-0.6-0.7-0.9-1.1c-0.2-0.2-0.5-0.5-0.8-0.7
					c-0.3-0.2-0.5-0.4-0.8-0.5c-0.3-0.2-0.6-0.3-0.9-0.4c-0.1,0-0.3-0.1-0.4-0.1c-0.1,0-0.3-0.1-0.4-0.1c-0.2,0-0.3,0-0.5-0.1
					c0,0-0.1,0-0.1,0c0,0-0.1,0-0.1,0c-0.1,0-0.2,0-0.3,0c0,0,0,0,0,0c0,0-0.1,0-0.1,0c-0.5,0-2.3,0.1-3.7,1.3
					c-0.1,0.1-0.2,0.2-0.4,0.3c-0.4,0.4-0.8,0.9-1.3,1.4c-1.2,1.5-2.1,2.9-2.1,2.9c0,0,0,0,0,0c-0.9-1.4-2-2.9-3.4-4.3
					c-0.1-0.2-0.3-0.3-0.5-0.4c-0.3-0.2-0.6-0.4-0.9-0.5c0,0-0.1,0-0.1-0.1c-0.3-0.1-0.6-0.3-0.9-0.4c-0.3-0.1-0.5-0.1-0.8-0.2
					c-0.2,0-0.4-0.1-0.6-0.1c-0.1,0-0.2,0-0.4,0c0,0-0.1,0-0.1,0c-0.2,0-0.4,0-0.7,0c-0.2,0-0.4,0.1-0.6,0.1
					c-0.2,0.1-0.4,0.1-0.6,0.2c-0.2,0.1-0.4,0.2-0.6,0.3c-0.2,0.1-0.4,0.2-0.6,0.3c-0.2,0.1-0.4,0.3-0.5,0.4
					c-0.2,0.1-0.3,0.3-0.5,0.4c-0.1,0.1-0.2,0.2-0.2,0.2c-0.1,0.1-0.2,0.2-0.3,0.3c0,0.1-0.1,0.1-0.1,0.2c0,0,0,0.1-0.1,0.1
					c0,0,0,0,0,0c0,0,0,0,0,0c-0.1,0.1-0.1,0.2-0.2,0.3c-0.1,0.2-0.2,0.3-0.3,0.5c-0.1,0.2-0.2,0.4-0.3,0.6
					c-0.1,0.1-0.1,0.2-0.2,0.3c0,0,0,0,0,0c0,0.1-0.1,0.2-0.1,0.3c0,0,0,0,0,0c0,0.1-0.1,0.2-0.1,0.3c0,0,0,0,0,0
					c0,0.1-0.1,0.3-0.1,0.4c0,0.1-0.1,0.2-0.1,0.3c0,0,0,0,0,0c0,0.1,0,0.2-0.1,0.3c0,0,0,0,0,0.1c-0.5,2.6-0.4,6.2,2.9,9.2
					c0.1,0.1,0.2,0.2,0.4,0.3c0.1,0.1,0.3,0.2,0.4,0.3c0.1,0.1,0.3,0.1,0.4,0.2c0.1,0.1,0.3,0.1,0.4,0.2c0.1,0,0.2,0.1,0.4,0.1
					c0.1,0,0.2,0.1,0.4,0.1c0.3,0.1,0.7,0.1,1,0.1c0.3,0,0.7,0,1,0c0.3,0,0.6-0.1,0.9-0.1c0.1,0,0.2-0.1,0.3-0.1
					c0.1,0,0.2-0.1,0.3-0.1c0.1,0,0.2-0.1,0.4-0.1c0.1-0.1,0.2-0.1,0.4-0.2c0.1-0.1,0.2-0.1,0.4-0.2c0.1-0.1,0.2-0.1,0.3-0.2
					c0.1-0.1,0.2-0.2,0.3-0.3c0,0,0.1-0.1,0.1-0.1c0,0,0.1-0.1,0.1-0.1c0.8-0.7,2.3-2.8,3.4-4.3c0,0,0.3,0.5,0.4,0.6
					c0.1,0.2,0.3,0.4,0.4,0.6c0.2,0.3,0.5,0.6,0.7,1c0.5,0.7,1,1.3,1.5,1.9c0.4,0.4,0.8,0.8,1.3,1c1.4,0.9,3.2,1.1,4.8,0.7
					c0.3-0.1,0.6-0.2,1-0.3c1-0.5,1.9-1.3,2.6-2.2c1.5-2.2,2.1-5,1.6-7.7C45.8,86.3,45.6,85.7,45.4,85.1z M26.9,93.2
					c-0.1,0.1-0.2,0.1-0.2,0.2c-0.1,0-0.1,0.1-0.2,0.1c-0.5,0.4-1.2,0.5-1.8,0.6c-0.5,0-1,0-1.4-0.1c-0.1,0-0.1,0-0.2,0
					c-0.1,0-0.1,0-0.2-0.1c-0.1,0-0.2-0.1-0.2-0.1c-0.1,0-0.2-0.1-0.2-0.1c-0.1,0-0.2-0.1-0.2-0.1c-0.1-0.1-0.1-0.1-0.2-0.2
					c-0.1-0.1-0.1-0.1-0.2-0.2c-0.1-0.1-0.1-0.1-0.2-0.2c-0.1-0.1-0.1-0.1-0.2-0.2c-0.1-0.1-0.1-0.1-0.2-0.2
					c-0.1-0.1-0.1-0.2-0.2-0.2c-0.1-0.1-0.1-0.2-0.2-0.2c-0.1-0.1-0.1-0.2-0.1-0.3c0-0.1-0.1-0.2-0.1-0.3c0-0.1-0.1-0.2-0.1-0.3
					c0-0.1-0.1-0.2-0.1-0.3c0-0.1-0.1-0.2-0.1-0.3c0-0.1-0.1-0.2-0.1-0.3c0-0.1,0-0.2-0.1-0.3c0-0.1,0-0.2,0-0.3c0-0.1,0-0.2,0-0.3
					c0-0.1,0-0.2,0-0.3c0,0,0-0.1,0-0.1c0-3.3,3-6.8,6.3-4.6c0.5,0.3,1,0.8,1.4,1.3c0.8,1.1,1.7,2.2,2.4,3.3
					c-0.4,0.6-0.8,1.2-1.2,1.7c-0.3,0.5-0.7,0.9-1,1.4C27.6,92.4,27.2,92.8,26.9,93.2z M41.2,93.6c-0.6,0.3-1.2,0.5-1.6,0.5
					c-0.4,0.1-0.8,0-1.2,0c-0.4-0.1-0.8-0.2-1.1-0.5c-0.4-0.2-0.7-0.5-1-0.8c-0.2-0.3-0.5-0.5-0.7-0.8c-0.2-0.3-0.5-0.6-0.7-0.9
					c-0.3-0.4-0.5-0.7-0.8-1.1c-0.1-0.1-0.1-0.2-0.2-0.2c-0.2-0.3-0.3-0.5-0.5-0.8c0.9-1.4,1.9-2.9,3.1-4.1c0.4-0.4,0.9-0.8,1.5-0.9
					l0,0c0.9-0.3,1.8-0.3,2.7,0.1c0.6,0.3,1.1,0.7,1.5,1.1c0.9,1,1.3,2.4,1.3,3.8C43.5,91,42.6,92.7,41.2,93.6z"/>
			</g>
		</g>
		<g>
			<g>
				<path class="st19" d="M68.9,69.9c0,1.5-1.2,2.7-2.7,2.7s-2.7-1.2-2.7-2.7c0-1.5,1.2-2.7,2.7-2.7S68.9,68.4,68.9,69.9L68.9,69.9z
					"/>
				<path class="st20" d="M83.3,57.5c0,1.5-1.2,2.7-2.7,2.7s-2.7-1.2-2.7-2.7c0-1.5,1.2-2.7,2.7-2.7S83.3,56,83.3,57.5z"/>
				<path class="st21" d="M97.7,66.3c0,1.5-1.2,2.7-2.7,2.7c-1.5,0-2.7-1.2-2.7-2.7c0-1.5,1.2-2.7,2.7-2.7S97.7,64.8,97.7,66.3
					L97.7,66.3z"/>
				<path class="st22" d="M112.1,52.3c0,1.5-1.2,2.7-2.7,2.7c-1.5,0-2.7-1.2-2.7-2.7c0-1.5,1.2-2.7,2.7-2.7
					C110.9,49.7,112.1,50.9,112.1,52.3z"/>
				<path class="st23" d="M68.9,69.8v0.1c0,1.5-1.2,2.7-2.7,2.7c-1.5,0-2.7-1.2-2.7-2.7c0-0.8,0.4-1.5,0.9-2
					c0.1,1.4,1.2,2.6,2.7,2.6C67.8,70.4,68.4,70.2,68.9,69.8z"/>
				<path class="st24" d="M83.3,57.4v0.1c0,1.5-1.2,2.7-2.7,2.7c-1.5,0-2.7-1.2-2.7-2.7c0-0.8,0.4-1.5,0.9-2
					c0.1,1.4,1.2,2.6,2.7,2.6C82.2,58,82.8,57.8,83.3,57.4L83.3,57.4z"/>
				<path class="st25" d="M97.7,66.1v0.1c0,1.5-1.2,2.7-2.7,2.7c-1.5,0-2.7-1.2-2.7-2.7c0-0.8,0.4-1.5,0.9-2
					c0.1,1.4,1.2,2.6,2.7,2.6C96.6,66.8,97.2,66.6,97.7,66.1L97.7,66.1z"/>
				<path class="st26" d="M112.1,52.2v0.1c0,1.5-1.2,2.7-2.7,2.7c-1.5,0-2.7-1.2-2.7-2.7c0-0.8,0.4-1.5,0.9-2
					c0.1,1.4,1.2,2.6,2.7,2.6C111,52.9,111.6,52.7,112.1,52.2z"/>
				<path class="st8" d="M66.2,73.5c2,0,3.6-1.6,3.6-3.6c0-0.6-0.2-1.1-0.4-1.6l9-8.1c0.6,0.5,1.4,0.8,2.3,0.8c1,0,2-0.5,2.6-1.2
					l8.3,5.6c-0.1,0.2-0.1,0.5-0.1,0.8c0,2,1.6,3.6,3.6,3.6c2,0,3.6-1.6,3.6-3.6c0-0.5-0.1-1-0.3-1.5l9.3-9.4
					c0.5,0.3,1.2,0.5,1.9,0.5c2,0,3.6-1.6,3.6-3.6c0-2-1.6-3.6-3.6-3.6c-2,0-3.6,1.6-3.6,3.6c0,0.6,0.2,1.2,0.5,1.7l-9.2,9.3
					c-0.6-0.4-1.3-0.7-2.1-0.7c-1.1,0-2,0.5-2.7,1.2L84,58.3c0.1-0.3,0.1-0.5,0.1-0.8c0-2-1.6-3.6-3.6-3.6c-2,0-3.6,1.6-3.6,3.6
					c0,0.5,0.1,0.9,0.3,1.3l-9.1,8.2c-0.6-0.4-1.3-0.6-2-0.6c-2,0-3.6,1.6-3.6,3.6C62.6,71.9,64.2,73.5,66.2,73.5z M109.4,50.6
					c1,0,1.8,0.8,1.8,1.8c0,1-0.8,1.8-1.8,1.8s-1.8-0.8-1.8-1.8S108.4,50.6,109.4,50.6z M95,64.5c1,0,1.8,0.8,1.8,1.8
					S96,68.1,95,68.1s-1.8-0.8-1.8-1.8C93.2,65.3,94,64.5,95,64.5L95,64.5z M80.6,55.7c1,0,1.8,0.8,1.8,1.8c0,1-0.8,1.8-1.8,1.8
					s-1.8-0.8-1.8-1.8C78.8,56.5,79.6,55.7,80.6,55.7L80.6,55.7z M66.2,68.1c1,0,1.8,0.8,1.8,1.8c0,1-0.8,1.8-1.8,1.8
					c-1,0-1.8-0.8-1.8-1.8C64.4,68.9,65.2,68.1,66.2,68.1L66.2,68.1z"/>
			</g>
			<g>
				<polygon class="st27" points="94.1,74.7 95.8,76.4 97.9,78.5 105.3,85.9 107.6,79.9 98.2,70.6 				"/>
				<g>
					<path class="st28" d="M103.1,74.5l8.5,8.5c0.6,0.6,1,1.5,1,2.5c0,1-0.4,1.9-1,2.5c-0.6,0.6-1.5,1-2.5,1c-1,0-1.9-0.4-2.5-1
						l-8.5-8.5L103.1,74.5z"/>
					<path class="st29" d="M101.9,75.7L101.9,75.7l0.7-0.7l8.5,8.5c0.5,0.5,0.8,1.2,0.8,2c0,0.8-0.3,1.5-0.8,2
						c-0.1,0.1-0.2,0.1-0.3,0.1c-0.1,0-0.2,0-0.3-0.1c-0.2-0.2-0.2-0.5,0-0.7c0.4-0.4,0.5-0.8,0.5-1.3c0-0.5-0.2-1-0.5-1.3
						L101.9,75.7z"/>
					<path class="st30" d="M98.1,79.5l5-5l-0.4-0.4c-0.2-0.2-0.5-0.4-0.9-0.4c-0.3,0-0.6,0.1-0.9,0.4l-3.2,3.2
						c-0.2,0.2-0.4,0.5-0.4,0.9c0,0.3,0.1,0.6,0.4,0.9L98.1,79.5z"/>
				</g>
				<path class="st31" d="M85.5,48.8c-7.2,0-13.1,5.8-13.1,13.1c0,7.2,5.8,13.1,13.1,13.1c7.2,0,13.1-5.8,13.1-13.1
					C98.5,54.7,92.7,48.8,85.5,48.8z"/>
				<path class="st30" d="M85.5,46c-8.8,0-15.9,7.1-15.9,15.9c0,8.8,7.1,15.9,15.9,15.9c8.8,0,15.9-7.1,15.9-15.9
					C101.4,53.1,94.3,46,85.5,46z M85.5,76.1c-7.8,0-14.2-6.4-14.2-14.2c0-7.8,6.4-14.2,14.2-14.2c7.8,0,14.2,6.4,14.2,14.2
					C99.7,69.7,93.3,76.1,85.5,76.1z"/>
				<path class="st27" d="M85.5,47.7c-7.8,0-14.2,6.4-14.2,14.2c0,7.8,6.4,14.2,14.2,14.2c7.8,0,14.2-6.4,14.2-14.2
					C99.7,54,93.3,47.7,85.5,47.7z M85.5,74.9c-7.2,0-13.1-5.8-13.1-13.1c0-7.2,5.8-13.1,13.1-13.1c7.2,0,13.1,5.8,13.1,13.1
					C98.5,69.1,92.7,74.9,85.5,74.9z"/>
				<g>
					<path class="st32" d="M85.8,51c-0.2-0.3-0.6-0.5-1-0.5c-1.8,0.1-3.5,0.6-5.1,1.5c-0.5,0.3-0.7,1-0.4,1.6c0.3,0.5,1,0.7,1.6,0.4
						c1.2-0.7,2.6-1.1,4-1.2c0.6,0,1.1-0.6,1.1-1.2C86,51.3,85.9,51.1,85.8,51z"/>
					<path class="st32" d="M78.4,54.8c-0.1-0.1-0.1-0.2-0.2-0.2c-0.5-0.4-1.2-0.3-1.6,0.2c-1.2,1.4-2,3.2-2.3,5
						c-0.4,2.2-0.2,4.4,0.6,6.5c0.2,0.6,0.9,0.9,1.5,0.6c0.6-0.2,0.9-0.9,0.6-1.5c-0.7-1.6-0.8-3.4-0.5-5.2c0.3-1.5,0.9-2.9,1.9-4
						C78.7,55.7,78.7,55.2,78.4,54.8z"/>
				</g>
			</g>
		</g>
	</g>
</g>
</svg>
