<?xml version="1.0" encoding="utf-8"?>
<!-- Generator: Adobe Illustrator 25.0.0, SVG Export Plug-In . SVG Version: 6.00 Build 0)  -->
<svg version="1.1" id="Layer_1" xmlns="http://www.w3.org/2000/svg" xmlns:xlink="http://www.w3.org/1999/xlink" x="0px" y="0px"
	 viewBox="0 0 422.6 430" style="enable-background:new 0 0 422.6 430;" xml:space="preserve">
<style type="text/css">
	.st0{clip-path:url(#SVGID_2_);}
	.st1{fill:#CC9E83;}
	.st2{fill:#B8866B;}
	.st3{fill:#75C11B;}
	.st4{fill:#60A917;}
	.st5{fill:none;stroke:#35414D;stroke-width:9;stroke-linecap:round;stroke-linejoin:round;stroke-miterlimit:13.3333;}
	.st6{fill-rule:evenodd;clip-rule:evenodd;fill:#7DDF96;}
	.st7{fill:#0D9353;}
	.st8{fill:#35414D;}
	.st9{fill-rule:evenodd;clip-rule:evenodd;fill:#0D9353;}
</style>
<g>
	<g id="g483_1_" transform="matrix(1.3333333,0,0,-1.3333333,0,682.66667)">
		<g id="g485_1_">
			<g>
				<defs>
					<rect id="SVGID_1_" x="-52.8" y="136.7" width="422.6" height="422.6"/>
				</defs>
				<clipPath id="SVGID_2_">
					<use xlink:href="#SVGID_1_"  style="overflow:visible;"/>
				</clipPath>
				<g id="g487_1_" class="st0">
					<g id="g493_1_" transform="translate(317.0273,24.875)">
						<path id="path495_1_" class="st1" d="M-120.8,180l-7.9,7.2c-1.3,1.2-2,2.8-2,4.6v70c0,3.2,1.2,6.2,3.4,8.5l64.4,68l-12.4,21.4
							l-50.1-52.9c-1.9-2-5.3-0.7-5.3,2.1V355h-0.6v-0.3C-171.6,341-190,272.6-169.7,217c1.1-3,2.4-6,4-9c0,0,5.1-38.8,10.7-38.8h30
							C-119.3,169.3-116.6,176.2-120.8,180"/>
					</g>
					<g id="g497_1_" transform="translate(300,307.0498)">
						<path id="path499_1_" class="st2" d="M-114.3,72.5v0.3h-55.1V0.6c0-2.4-2.6-3.9-4.6-2.7l-73.7,42.6L-260.1,19l84.6-48.8
							c3.8-2.2,6.2-6.3,6.2-10.7v-49.8c0-1.7-0.7-3.4-2-4.6l-7.9-7.2c-4.2-3.8-1.5-10.8,4.2-10.8h54.5
							C-165-63.7-169.5,47-114.3,72.5"/>
					</g>
					<g id="g501_1_" transform="translate(149.5,424.9619)">
						<path id="path503_1_" class="st3" d="M-57,27.6h-14c2.8,4.2,4.3,9.3,4.1,14.8c-0.6,12.7-10.9,23-23.6,23.6
							c-9.8,0.5-18.4-4.8-22.8-12.7c-0.9-1.6-2.4-2.7-4.2-3c-10.2-1.7-18.1-10.6-18.1-21.4c0-0.1,0-0.2,0-0.3c0-2-0.9-3.8-2.4-5
							c-4.2-3.4-6.9-8.6-6.9-14.4c0-10.3,8.3-18.6,18.6-18.6H-57c10.3,0,18.6,8.3,18.6,18.6C-38.4,19.3-46.7,27.6-57,27.6"/>
					</g>
					<g id="g505_1_" transform="translate(473.3613,438.8247)">
						<path id="path507_1_" class="st3" d="M-180.4,22.3c-1.5,1.2-2.4,3.1-2.4,5c0,0.1,0,0.2,0,0.3c0,12-9.7,21.7-21.7,21.7
							c-1.4,0-2.7-0.1-4-0.4c-2.1-0.4-4.3,0.3-5.8,1.9c-4.6,4.9-11.1,7.9-18.3,7.8c-13.6-0.1-24.7-11.6-24.5-25.2
							c0-2.4,0.4-4.8,1.1-7h-5.5c-10.3,0-18.6-8.3-18.6-18.6c0-10.3,8.3-18.6,18.6-18.6h69.3c10.3,0,18.6,8.3,18.6,18.6
							C-173.5,13.7-176.2,18.9-180.4,22.3"/>
					</g>
					<g id="g509_1_" transform="translate(441,334.5)">
						<path id="path511_1_" class="st4" d="M-168,62c0-10.1-6.1-18.8-14.8-22.7c-2.3-1-3.8-3.2-3.8-5.7v-0.4c0-3.4-2.8-6.2-6.2-6.2
							h-95.9c-35,12.1-53,44.1-53,73.7c0,21.7,18,44.4,37.9,57.8c1.5,0.1,2.9,0.7,4,1.8c4.5,4.3,10.5,7,17.3,7
							c6.7,0,12.8-2.7,17.3-7c1.8-1.8,4.5-2.3,6.8-1.3c6.3,2.8,13.7,2.9,20.5-0.2c5.8-2.7,10-7.3,12.3-12.7c0.9-2,2.7-3.4,4.9-3.7
							c6-0.7,11.8-3.6,16-8.7c3.2-3.8,5-8.3,5.6-12.9c0.3-2.2,1.7-4.2,3.8-5.1c8.8-3.8,15-12.6,15-22.8c0-1.6-0.2-3.2-0.4-4.7
							c-0.4-2.3,0.5-4.7,2.4-6.1C-172.1,77.7-168,70.4-168,62"/>
					</g>
					<g id="g513_1_" transform="translate(246.1099,277.9502)">
						<path id="path515_1_" class="st3" d="M-93.8,83.6h-83.6c-3.4,0-6.2,2.8-6.2,6.2v0.4c0,2.5-1.5,4.7-3.8,5.7
							c-8.7,3.8-14.8,12.5-14.8,22.7c0,8.3,4.1,15.7,10.4,20.2c1.9,1.4,2.9,3.8,2.4,6.1c-0.3,1.5-0.4,3.1-0.4,4.7
							c0,10.2,6.2,19,15,22.8c2.1,0.9,3.5,2.8,3.8,5.1c0.6,4.6,2.4,9.1,5.6,12.9c4.2,5,10,7.9,16,8.7c2.2,0.3,4.1,1.7,5,3.8
							c2,4.7,5.6,8.9,10.3,11.6c7.1,4.1,15.4,4.3,22.3,1.2c0.9-0.4,1.9-0.6,2.9-0.5c-12.1-16.1-19.3-36.1-19.3-57.8
							C-128.2,127.7-114.8,101.2-93.8,83.6"/>
					</g>
					<g id="g517_1_" transform="translate(179.5,217.9502)">
						<path id="path519_1_" class="st4" d="M-68.4,106.5c0-10.3-8.3-18.6-18.6-18.6h-23.7c-28.9,6.2-35.9,23.1-35.9,44.6
							c0,7.5,6.4,19.7,10.5,26.3c4.1,2.9,9,4.6,14.4,4.6c9.3,0,17.4-5.1,21.6-12.7c0.9-1.6,2.4-2.8,4.2-3.1
							c10.3-1.7,18.1-10.6,18.1-21.4v-0.3c0-2,0.9-3.8,2.4-5c2.1-1.7,3.8-3.9,5-6.3C-69.1,112.1-68.4,109.4-68.4,106.5"/>
					</g>
					<g id="g521_1_" transform="translate(111.1899,187.9502)">
						<path id="path523_1_" class="st3" d="M-42.4,117.9H-88c-5.1,0-9.8,2.1-13.1,5.4c-3.4,3.4-5.4,8-5.4,13.1
							c0,5.8,2.7,11,6.9,14.4c1.5,1.2,2.4,3.1,2.4,5v0.3c0,10.8,7.8,19.7,18.1,21.4c1.8,0.3,3.3,1.5,4.2,3.1c1.8,3.2,4.2,5.9,7.2,8
							c-2.6-6.5-4.1-13.7-4.1-21.1C-71.8,146.2-59.9,127.5-42.4,117.9"/>
					</g>
					<g id="g529_1_" transform="translate(504.5,287.9502)">
						<path id="path531_1_" class="st4" d="M-192.2,79.8c0-10.3-8.3-18.6-18.6-18.6h-28.1c-23.7,9.6-32.1,26.6-32.1,44.1
							c0,14.3,14.9,29.9,25.9,37.6c11.2-0.2,20.6-7.7,23.5-18c0.6-2.1,2.2-3.8,4.3-4.4c9.1-2.5,15.8-10.9,15.8-20.9v-0.3
							c0-2,0.9-3.8,2.4-5c2.1-1.7,3.8-3.9,5-6.3C-192.9,85.5-192.2,82.7-192.2,79.8"/>
					</g>
					<g id="g533_1_" transform="translate(429.0996,257.9502)">
						<path id="path535_1_" class="st3" d="M-163.5,91.2h-41.2c-5.1,0-9.8,2.1-13.1,5.4c-3.4,3.4-5.4,8-5.4,13.1
							c0,5.8,2.7,11,6.9,14.4c1.5,1.2,2.4,3.1,2.4,5v0.3c0,9.9,6.7,18.3,15.8,20.9c2.1,0.6,3.7,2.3,4.3,4.4
							c2.9,10.4,12.5,18.1,23.8,18.1c0.1,0,0.3,0,0.4,0c-8.4-10.2-13.5-23.3-13.5-37.6C-183.2,117.8-175.6,102-163.5,91.2"/>
					</g>
					<g id="g561_1_" transform="translate(211,277.9502)">
						<path id="path563_1_" class="st5" d="M-80.4,83.6V29.7c0-2.4-2.6-3.9-4.6-2.7L-102.5,37"/>
					</g>
					<g id="g565_1_" transform="translate(67.8799,364.96)">
						<path id="path567_1_" class="st5" d="M-25.9,50.4h-18.8c-5.1,0-9.8,2.1-13.1,5.4s-5.4,8-5.4,13.1c0,5.8,2.7,11,6.9,14.4
							c1.5,1.2,2.4,3.1,2.4,5v0.3c0,10.7,7.8,19.6,18,21.4c1.8,0.3,3.4,1.4,4.2,3c4.4,7.9,13,13.2,22.8,12.7
							c11.8-0.5,21.5-9.5,23.3-20.9"/>
					</g>
					<g id="g569_1_" transform="translate(350.54,466.48)">
						<path id="path571_1_" class="st5" d="M-133.6,11.8c2.5,10.8,12.3,19.1,23.8,19.2c7.2,0.1,13.7-2.9,18.3-7.8
							c1.5-1.6,3.6-2.3,5.8-1.9c1.3,0.2,2.7,0.4,4,0.4c12,0,21.7-9.7,21.7-21.7v-0.3c0-2,0.9-3.8,2.4-5c2.1-1.7,3.8-3.9,5-6.3
							c1.2-2.5,1.9-5.2,1.9-8.1c0-10.3-8.3-18.6-18.6-18.6h-10.5"/>
					</g>
					<g id="g573_1_" transform="translate(343.0703,265.1099)">
						<path id="path575_1_" class="st5" d="M-130.7,88.5l-20.7-21.8c-1.9-2-5.3-0.7-5.3,2.1v27.7"/>
					</g>
					<g id="g577_1_" transform="translate(389.1104,257.9502)">
						<path id="path579_1_" class="st5" d="M-148.3,91.2l-51.1-54c-2.2-2.3-3.4-5.3-3.4-8.5V5.5"/>
					</g>
					<g id="g581_1_" transform="translate(238.1299,277.9502)">
						<path id="path583_1_" class="st5" d="M-90.7,83.6h-37.8"/>
					</g>
					<g id="g585_1_" transform="translate(334.21,277.9502)">
						<path id="path587_1_" class="st5" d="M-127.3,83.6h-37.8"/>
					</g>
					<g id="g589_1_" transform="translate(98.8398,408.2798)">
						<path id="path591_1_" class="st5" d="M-37.7,33.9c2.6,3.5,6.1,6.3,10.1,8c2.1,0.9,3.5,2.8,3.8,5.1c0.6,4.6,2.4,9.1,5.6,12.9
							c4.2,5,10,7.9,16,8.7c2.2,0.3,4.1,1.7,5,3.8c2,4.7,5.6,8.9,10.3,11.6c7.1,4.1,15.4,4.3,22.3,1.2c2.3-1,5-0.5,6.8,1.3
							c4.5,4.3,10.5,7,17.3,7s12.8-2.7,17.3-7c1.8-1.8,4.5-2.3,6.8-1.3C90,88,97.4,88.1,104.1,85c5.8-2.7,10-7.3,12.3-12.7
							c0.9-2,2.7-3.4,4.9-3.7c6-0.7,11.8-3.6,16-8.7c3.2-3.8,5-8.3,5.6-12.9c0.1-1,0.5-2,1.1-2.8"/>
					</g>
					<g id="g593_1_" transform="translate(81.0601,307.98)">
						<path id="path595_1_" class="st5" d="M-30.9,72.2c-3.9,4.4-6.2,10.1-6.2,16.4c0,5.1,1.5,9.8,4.1,13.7"/>
					</g>
					<g id="g597_1_" transform="translate(389.1504,257.9502)">
						<path id="path599_1_" class="st5" d="M-148.3,91.2h-16.5c-5.1,0-9.8,2.1-13.1,5.4c-3.4,3.4-5.4,8-5.4,13.1
							c0,5.8,2.7,11,6.9,14.4c1.5,1.2,2.4,3.1,2.4,5v0.3c0,9.9,6.7,18.3,15.8,20.9c2.1,0.6,3.7,2.3,4.3,4.4c1.5,5.3,4.7,9.9,9,13.1"
							/>
					</g>
					<g id="g601_1_" transform="translate(437.3896,385.21)">
						<path id="path603_1_" class="st5" d="M-166.7,42.7c5.9-3.1,10.3-8.6,12.1-15.1c0.6-2.1,2.2-3.8,4.3-4.4
							c9.1-2.5,15.8-10.9,15.8-20.9V2c0-2,0.9-3.8,2.4-5c2.1-1.7,3.8-3.9,5-6.3c1.2-2.5,1.9-5.2,1.9-8.1c0-10.3-8.3-18.6-18.6-18.6
							h-16.2"/>
					</g>
					<g id="g605_1_" transform="translate(46.2598,283.0801)">
						<path id="path607_1_" class="st5" d="M-17.6,81.6c1.1,0.4,2.2,0.7,3.4,0.9c1.8,0.3,3.3,1.5,4.2,3.1
							c4.2,7.6,12.3,12.7,21.6,12.7c6.6,0,12.6-2.6,17-6.8"/>
					</g>
					<g id="g609_1_" transform="translate(23.1602,256.7002)">
						<path id="path611_1_" class="st5" d="M-8.8,91.7c-0.3-1.3-0.4-2.7-0.4-4.2v-0.3c0-2-0.9-3.8-2.4-5c-4.2-3.4-6.9-8.6-6.9-14.4
							c0-5.1,2.1-9.8,5.4-13.1c3.4-3.4,8-5.4,13.1-5.4h16.7"/>
					</g>
					<g id="g613_1_" transform="translate(162.4199,261.8501)">
						<path id="path615_1_" class="st5" d="M-61.9,89.7c0.8-2.3,1.3-4.8,1.3-7.4V82c0-2,0.9-3.8,2.4-5c2.1-1.7,3.8-3.9,5-6.3
							c1.2-2.5,1.9-5.2,1.9-8.1c0-10.3-8.3-18.6-18.6-18.6h-16.7"/>
					</g>
					<g id="g653_1_" transform="translate(301,84.4702)">
						<path id="path655_1_" class="st5" d="M-114.7,157.3v-25.1c0-1.7,0.7-3.4,2-4.6l7.9-7.2c4.2-3.8,1.5-10.8-4.2-10.8h-67.2
							c-5.7,0-8.3,6.9-4.2,10.8l7.9,7.2c1.3,1.2,2,2.8,2,4.6v49.8c0,4.4-2.4,8.5-6.2,10.7l-48.7,28.1"/>
					</g>
				</g>
			</g>
		</g>
	</g>
	<g>
		<path id="_409268072_29_" class="st6" d="M94.3,314.9c0,5.7-0.4,12.6-1.5,18.3c-0.1,0.7-0.8,1.1-1.5,1.1l-46.2,0.1
			c-2.4,0-1.3-3-1-5.7c1.3-11.8,0.7-24.3-1-36.8c-2.2-15.6-3-34.7-2.1-51.3c0-0.7,0.7-1.3,1.5-1.3l46.3-0.1c0.9,0,1.6,0.6,1.5,1.4
			c-0.9,16.9-0.1,36.1,2.2,52.5C93.7,300.9,94.2,308.2,94.3,314.9L94.3,314.9z"/>
		<path id="_409267760_58_" class="st7" d="M42.7,257c0-6.5,0.2-12.4,0.6-17.3l45.7-0.1c-0.4,5-0.6,11-0.5,17.4
			c0,12,0.8,24.8,2,35.2c0.9,7.2,1.3,14.1,1.3,20.5c0,11.4-1.3,18.3-2,21l-45.6,0.1c1.4-6.2,1.8-14.4,1.7-20.6
			c0-7-0.5-14.6-1.3-21.4C43.4,281.5,42.7,268.9,42.7,257 M39.6,257c0,11.6,0.7,24.5,2,35.2c0.8,6.6,1.3,14,1.3,21
			c0,8.9-0.7,17.1-2.3,22.1c0,0.1-0.1,0.3-0.1,0.4c0,0.7,0.5,1.3,1.2,1.3l49.4-0.1c0.5,0,1-0.3,1.2-0.9c0.1-0.3,2.5-7.9,2.5-23.3
			l0,0c0-6.5-0.5-13.5-1.4-20.9c-1.3-10.7-2-23.3-2-34.8c0-7.1,0.2-13.7,0.7-19.2c0,0,0-0.1,0-0.1c0-0.7-0.6-1.3-1.2-1.3l-49.4,0.1
			c-0.6,0-1.2,0.5-1.2,1.1C39.8,243.1,39.6,249.8,39.6,257L39.6,257z M94.8,312.6L94.8,312.6C94.8,312.6,94.8,312.6,94.8,312.6
			L94.8,312.6z"/>
		<path id="_409267760_57_" class="st8" d="M40.3,255.3c0-6.8,0.2-13.1,0.6-18.2l50.4-0.1c-0.4,5.3-0.6,11.6-0.6,18.3
			c0,12.6,0.8,26.1,2.2,37.1c1,7.6,1.5,14.9,1.5,21.6c0,12-1.4,19.3-2.2,22.2L42,336.2c1.6-6.5,1.9-15.2,1.9-21.7
			c0-7.4-0.5-15.4-1.4-22.5C41.1,281.2,40.3,267.8,40.3,255.3 M36.9,255.3c0,12.2,0.8,25.8,2.2,37.1c0.9,6.9,1.4,14.7,1.4,22.2
			c0,9.3-0.7,18-2.5,23.2c0,0.1-0.1,0.3-0.1,0.4c0,0.7,0.6,1.3,1.4,1.3l54.5-0.1c0.6,0,1.1-0.4,1.3-0.9c0.1-0.3,2.8-8.3,2.7-24.6
			l0,0c0-6.9-0.5-14.3-1.5-22c-1.4-11.2-2.2-24.6-2.2-36.7c0-7.5,0.2-14.5,0.8-20.2c0,0,0-0.1,0-0.1c0-0.7-0.6-1.3-1.4-1.3L39,233.8
			c-0.7,0-1.3,0.5-1.4,1.2C37.1,240.7,36.8,247.8,36.9,255.3L36.9,255.3z M97.8,313.9L97.8,313.9C97.8,313.9,97.8,313.9,97.8,313.9
			L97.8,313.9z"/>
		<g>
			<path id="_409267496_29_" class="st9" d="M42.6,248.3c0-2.6,0.1-5.2,0.3-7.7c0-0.6,0.5-1.1,1.1-1.1l7.6,0
				C51.3,245.4,45.6,248.4,42.6,248.3L42.6,248.3z"/>
			<path id="_409268120_29_" class="st9" d="M81.1,239.4l7.7,0c0.7,0,1.2,0.6,1.2,1.2c-0.1,2.5-0.2,5.1-0.2,7.7
				C86.8,248.3,81.4,245.1,81.1,239.4L81.1,239.4z"/>
			<path id="_409267040_29_" class="st9" d="M91.9,325.9c-0.2,2.5-0.4,5-0.8,7.3c-0.1,0.5-0.5,0.9-1.1,0.9l-7.2,0
				C82.7,331.2,86,325.6,91.9,325.9L91.9,325.9z"/>
			<path id="_409266752_29_" class="st9" d="M52.7,334.2l-7.5,0c-1.8,0-0.9-2.5-0.7-4.7c0.1-1.3,0.2-2.6,0.3-3.9
				C49.1,326.1,52.4,329.8,52.7,334.2L52.7,334.2z"/>
		</g>
		<path id="_409266968_29_" class="st9" d="M89.2,286.4c0,12-9.7,21.8-21.6,21.8s-21.7-9.7-21.7-21.7c0-12,9.7-21.8,21.6-21.8
			C79.4,264.6,89.2,274.4,89.2,286.4L89.2,286.4z"/>
		
			<ellipse transform="matrix(1 -2.577514e-03 2.577514e-03 1 -0.8234 0.1765)" class="st7" cx="68.1" cy="319.5" rx="5.2" ry="5.2"/>
		<ellipse transform="matrix(1 -2.564782e-03 2.564782e-03 1 -0.6488 0.175)" class="st7" cx="67.9" cy="253.1" rx="5.2" ry="5.2"/>
		<g>
			<path id="_409266824_29_" class="st6" d="M77.6,286.4c0,5.3-7,7.3-7,4.4c0-0.7,0.6-1.4,1.3-1.4c4,0,4-6.1,0-6.1
				c-5.1,0-0.9,8.8-8.7,8.8c-7.5,0-7.5-11.4,0-11.5c1.8,0,1.8,2.7,0,2.7c-4,0-4,6.1,0,6.1c5.1,0,0.9-8.8,8.7-8.8
				C75,280.7,77.6,283.2,77.6,286.4L77.6,286.4z"/>
			<path id="_409267328_29_" class="st6" d="M60.1,286.4c0,1.7-2.1,1.4-3.7,1.4c-1.8,0-1.8-2.7,0-2.7
				C58,285.1,60.1,284.7,60.1,286.4z"/>
			<path id="_409266872_29_" class="st6" d="M79.9,286.4c0,1.7-2.1,1.4-3.7,1.4c-1.8,0-1.8-2.7,0-2.7
				C77.8,285,79.9,284.6,79.9,286.4z"/>
		</g>
	</g>
	<g>
		<path id="_409268072_28_" class="st6" d="M99.6,89.3c3.6,4.3,7.8,9.9,10.6,15c0.3,0.6,0.1,1.4-0.4,1.9l-35.4,29.7
			c-1.9,1.6-2.9-1.5-4.4-3.7c-6.5-9.9-15-19.1-24.4-27.6C34.1,94,21.1,79.9,11.2,66.6c-0.4-0.6-0.3-1.4,0.4-2L47,34.8
			c0.7-0.6,1.6-0.5,2.1,0.1c10.1,13.5,23.1,27.8,35.3,38.9C90.3,79,95.4,84.2,99.6,89.3L99.6,89.3z"/>
		<path id="_409267760_56_" class="st7" d="M22.9,77.9c-4.2-4.9-7.8-9.6-10.7-13.6l35-29.4c2.9,4.1,6.6,8.8,10.7,13.7
			c7.7,9.1,16.5,18.5,24.1,25.7c5.3,5,10,10,14.2,14.9c7.3,8.7,10.7,14.9,12,17.4l-34.9,29.3c-2.9-5.7-7.9-12.2-11.9-16.9
			c-4.5-5.4-9.8-10.9-14.7-15.6C39.3,96.3,30.6,87,22.9,77.9 M20.6,79.9c7.5,8.9,16.3,18.3,24.1,25.7c4.8,4.5,9.9,9.9,14.5,15.3
			c5.7,6.8,10.5,13.5,12.4,18.4c0.1,0.1,0.1,0.2,0.2,0.3c0.4,0.5,1.2,0.6,1.8,0.2l37.8-31.8c0.4-0.3,0.5-0.9,0.3-1.4
			c-0.1-0.3-3.1-7.6-13.1-19.5l0,0c-4.2-5-9.1-10.1-14.4-15.1c-7.8-7.4-16.5-16.6-23.9-25.4c-4.6-5.4-8.6-10.7-11.8-15.2
			c0,0,0-0.1-0.1-0.1c-0.4-0.5-1.2-0.6-1.8-0.2L8.9,63c-0.5,0.4-0.6,1.1-0.2,1.7C11.8,69.2,15.9,74.5,20.6,79.9L20.6,79.9z
			 M98.6,87.2L98.6,87.2C98.6,87.2,98.6,87.2,98.6,87.2L98.6,87.2z"/>
		<path id="_409267760_55_" class="st8" d="M20,78.2C15.6,73,11.8,68.1,8.8,63.8l38.6-32.5c3.1,4.3,6.9,9.3,11.3,14.5
			c8.1,9.6,17.4,19.5,25.5,27c5.6,5.2,10.6,10.5,15,15.6c7.7,9.2,11.3,15.7,12.6,18.4l-38.5,32.4c-3-6-8.2-12.9-12.4-17.9
			c-4.8-5.7-10.3-11.5-15.6-16.4C37.3,97.6,28.1,87.8,20,78.2 M17.4,80.4c7.9,9.4,17.2,19.3,25.5,27c5.1,4.7,10.5,10.4,15.3,16.1
			c6,7.2,11,14.3,13,19.4c0.1,0.1,0.1,0.3,0.2,0.4c0.5,0.5,1.3,0.6,1.9,0.1l41.8-35.1c0.4-0.4,0.6-1,0.4-1.5
			c-0.1-0.3-3.2-8.1-13.7-20.6l0,0c-4.4-5.3-9.6-10.6-15.2-15.9c-8.3-7.7-17.4-17.5-25.2-26.7c-4.8-5.7-9.1-11.2-12.4-16
			c0,0,0-0.1-0.1-0.1c-0.5-0.6-1.3-0.6-1.9-0.1L5.2,62.5C4.7,63,4.6,63.7,5,64.3C8.2,69.1,12.5,74.6,17.4,80.4L17.4,80.4z
			 M101.8,86.3L101.8,86.3C101.8,86.3,101.8,86.3,101.8,86.3L101.8,86.3z"/>
		<g>
			<path id="_409267496_28_" class="st9" d="M17.2,71.3c-1.7-2-3.2-4.1-4.8-6.1c-0.4-0.5-0.3-1.2,0.2-1.6l5.8-4.9
				C22.1,63.5,19.7,69.6,17.2,71.3L17.2,71.3z"/>
			<path id="_409268120_28_" class="st9" d="M41.1,39.8l5.9-4.9c0.5-0.4,1.3-0.3,1.7,0.2c1.5,2,3.1,4,4.8,6.1
				C51.3,43,45.1,44,41.1,39.8L41.1,39.8z"/>
			<path id="_409267040_28_" class="st9" d="M104.9,99.3c1.5,2,2.9,4.1,4.1,6.1c0.3,0.5,0.2,1-0.2,1.4l-5.5,4.7
				C101.3,109.2,100.2,102.8,104.9,99.3L104.9,99.3z"/>
			<path id="_409266752_28_" class="st9" d="M80.1,130.8l-5.8,4.8c-1.4,1.1-2.3-1.3-3.6-3.1c-0.7-1.1-1.5-2.1-2.3-3.2
				C72.2,126.9,77.1,127.5,80.1,130.8L80.1,130.8z"/>
		</g>
		<path id="_409266968_28_" class="st9" d="M77.5,70.6c7.7,9.2,6.6,22.9-2.6,30.6s-22.9,6.5-30.6-2.7c-7.7-9.2-6.6-22.9,2.6-30.6
			C56,60.2,69.7,61.5,77.5,70.6L77.5,70.6z"/>
		
			<ellipse transform="matrix(0.7655 -0.6434 0.6434 0.7655 -51.1959 78.8134)" class="st7" cx="82.5" cy="109.6" rx="5.2" ry="5.2"/>
		<ellipse transform="matrix(0.7655 -0.6434 0.6434 0.7655 -28.4839 39.3653)" class="st7" cx="39.8" cy="58.8" rx="5.2" ry="5.2"/>
		<g>
			<path id="_409266824_28_" class="st6" d="M68.6,78.1C72,82.2,67.9,88.3,66,86c-0.5-0.6-0.4-1.4,0.2-1.9c3-2.6-0.9-7.2-3.9-4.6
				c-3.9,3.3,4.9,7.3-1,12.3c-5.8,4.8-13.1-3.9-7.4-8.8c1.4-1.1,3.1,0.9,1.7,2.1c-3,2.6,0.9,7.2,3.9,4.6c3.9-3.3-4.9-7.3,1-12.3
				C62.9,75.4,66.5,75.7,68.6,78.1L68.6,78.1z"/>
			<path id="_409267328_28_" class="st6" d="M55.2,89.3c1.1,1.3-0.8,2.4-1.9,3.4c-1.4,1.1-3.1-0.9-1.7-2.1
				C52.7,89.7,54.1,88,55.2,89.3z"/>
			<path id="_409266872_28_" class="st6" d="M70.3,76.6c1.1,1.3-0.8,2.4-1.9,3.4c-1.4,1.1-3.1-0.9-1.7-2.1
				C67.8,77,69.2,75.3,70.3,76.6z"/>
		</g>
	</g>
	<g>
		<path id="_409268072_27_" class="st6" d="M218.1,80.1c0.9,5.6,1.6,12.5,1.5,18.3c0,0.7-0.6,1.2-1.3,1.4l-45.6,7.4
			c-2.4,0.4-1.8-2.8-1.9-5.4c-0.5-11.8-3.1-24.1-6.8-36.1c-4.6-15.1-8.5-33.8-10.2-50.3c-0.1-0.7,0.5-1.4,1.3-1.5l45.7-7.5
			c0.9-0.1,1.7,0.4,1.8,1.2c1.8,16.8,5.6,35.7,10.5,51.5C215.4,66.4,217.1,73.6,218.1,80.1L218.1,80.1z"/>
		<path id="_409267760_54_" class="st7" d="M158,31.1c-1-6.4-1.8-12.3-2.2-17.2L201,6.6c0.4,5,1.2,10.9,2.2,17.3
			c1.9,11.8,4.7,24.3,7.6,34.4c2,7,3.5,13.7,4.6,20c1.8,11.2,1.6,18.3,1.4,21.1l-45,7.3c0.4-6.3-0.5-14.5-1.5-20.6
			c-1.1-6.9-2.8-14.4-4.7-20.9C162.7,55.2,159.9,42.8,158,31.1 M155,31.6c1.9,11.5,4.6,24.1,7.6,34.4c1.8,6.4,3.4,13.6,4.6,20.6
			c1.4,8.8,2.1,17,1.3,22.1c0,0.1,0,0.3,0,0.4c0.1,0.7,0.7,1.2,1.4,1l48.8-7.9c0.5-0.1,0.9-0.5,1-1c0.1-0.3,1.2-8.2-1.3-23.4l0,0
			c-1-6.4-2.6-13.3-4.6-20.4c-3-10.3-5.6-22.7-7.5-34c-1.1-7-2-13.6-2.3-19c0,0,0-0.1,0-0.1c-0.1-0.7-0.7-1.2-1.4-1l-48.8,7.9
			c-0.6,0.1-1.1,0.7-1,1.3C153,17.9,153.8,24.5,155,31.6L155,31.6z M218.3,77.8L218.3,77.8C218.3,77.8,218.3,77.8,218.3,77.8
			L218.3,77.8z"/>
		<path id="_409267760_53_" class="st8" d="M155.4,29.8c-1.1-6.7-1.9-12.9-2.3-18.1l49.8-8.1c0.4,5.3,1.2,11.5,2.3,18.2
			c2,12.4,5,25.6,8.1,36.2c2.1,7.3,3.8,14.4,4.9,21.1c1.9,11.8,1.6,19.3,1.4,22.2l-49.6,8.1c0.5-6.7-0.5-15.3-1.5-21.7
			c-1.2-7.3-3-15.1-5-22C160.3,55.3,157.4,42.2,155.4,29.8 M152,30.4c2,12.1,4.9,25.3,8.1,36.3c2,6.7,3.7,14.3,4.9,21.7
			c1.5,9.2,2.1,17.9,1.2,23.3c0,0.1,0,0.3,0,0.4c0.1,0.7,0.8,1.2,1.6,1.1l53.8-8.8c0.6-0.1,1-0.5,1.1-1.1c0.1-0.3,1.4-8.6-1.2-24.7
			l0,0c-1.1-6.8-2.8-14-5-21.5c-3.2-10.9-6-23.9-8-35.9c-1.2-7.4-2.1-14.3-2.4-20.1c0,0,0-0.1,0-0.1c-0.1-0.7-0.8-1.2-1.6-1.1
			l-53.8,8.8c-0.7,0.1-1.2,0.7-1.1,1.4C150,15.9,150.8,22.9,152,30.4L152,30.4z M221.5,78.6L221.5,78.6
			C221.5,78.6,221.5,78.6,221.5,78.6L221.5,78.6z"/>
		<g>
			<path id="_409267496_27_" class="st9" d="M156.5,22.5c-0.4-2.6-0.7-5.2-1-7.7c-0.1-0.6,0.4-1.2,0.9-1.3l7.5-1.2
				C164.7,18.3,159.5,22.2,156.5,22.5L156.5,22.5z"/>
			<path id="_409268120_27_" class="st9" d="M193.2,7.6l7.6-1.2c0.6-0.1,1.3,0.4,1.3,1c0.3,2.5,0.6,5.1,1,7.6
				C200.3,15.6,194.4,13.3,193.2,7.6L193.2,7.6z"/>
			<path id="_409267040_27_" class="st9" d="M217.5,91.4c0.2,2.5,0.4,5,0.4,7.3c0,0.5-0.4,1-0.9,1.1l-7.1,1.2
				C209.3,98.1,211.6,92,217.5,91.4L217.5,91.4z"/>
			<path id="_409266752_27_" class="st9" d="M180.1,105.8l-7.4,1.2c-1.8,0.3-1.3-2.3-1.5-4.5c-0.1-1.3-0.2-2.6-0.3-3.9
				C175.3,98.4,179.2,101.4,180.1,105.8L180.1,105.8z"/>
		</g>
		<path id="_409266968_27_" class="st9" d="M208.6,52.7c1.9,11.8-6.1,23-17.9,25c-11.8,1.9-23-6.1-24.9-18c-1.9-11.8,6.1-23,17.9-25
			C195.5,32.8,206.7,40.9,208.6,52.7L208.6,52.7z"/>
		<ellipse transform="matrix(0.987 -0.1608 0.1608 0.987 -11.7732 32.1859)" class="st7" cx="193" cy="88.8" rx="5.2" ry="5.2"/>
		<ellipse transform="matrix(0.987 -0.1608 0.1608 0.987 -1.365 29.6124)" class="st7" cx="182.3" cy="23.2" rx="5.2" ry="5.2"/>
		<g>
			<path id="_409266824_27_" class="st6" d="M197.1,54.6c0.9,5.3-5.8,8.4-6.3,5.5c-0.1-0.7,0.4-1.4,1.1-1.5c3.9-0.6,2.9-6.6-1-6
				c-5.1,0.8,0.5,8.8-7.2,10c-7.4,1.2-9.3-10.1-1.8-11.3c1.7-0.3,2.2,2.4,0.4,2.7c-3.9,0.6-2.9,6.6,1,6c5.1-0.8-0.5-8.8,7.2-10
				C193.7,49.4,196.6,51.5,197.1,54.6L197.1,54.6z"/>
			<path id="_409267328_27_" class="st6" d="M179.9,57.4c0.3,1.7-1.9,1.7-3.4,1.9c-1.7,0.3-2.2-2.4-0.4-2.7
				C177.6,56.4,179.6,55.7,179.9,57.4z"/>
			<path id="_409266872_27_" class="st6" d="M199.4,54.2c0.3,1.7-1.9,1.7-3.4,1.9c-1.7,0.3-2.2-2.4-0.4-2.7
				C197.1,53.2,199.2,52.5,199.4,54.2z"/>
		</g>
	</g>
	<g>
		<path id="_409268072_26_" class="st6" d="M369.6,269.2c-0.3,5.6-1,12.5-2.4,18.2c-0.2,0.6-0.8,1.1-1.6,1.1l-46.2-2.2
			c-2.4-0.1-1.1-3.1-0.7-5.7c1.9-11.7,1.9-24.2,0.8-36.8c-1.4-15.7-1.3-34.8,0.5-51.4c0.1-0.7,0.8-1.3,1.6-1.2l46.3,2.2
			c0.9,0,1.6,0.7,1.5,1.5c-1.8,16.8-1.9,36.1-0.5,52.5C369.8,255.3,369.9,262.6,369.6,269.2L369.6,269.2z"/>
		<path id="_409267760_52_" class="st7" d="M321,208.8c0.3-6.5,0.8-12.4,1.4-17.2l45.7,2.2c-0.6,5-1.1,10.9-1.4,17.3
			c-0.6,11.9-0.5,24.8,0.2,35.2c0.5,7.2,0.6,14.1,0.3,20.5c-0.5,11.4-2.2,18.2-3,20.9l-45.5-2.2c1.8-6.1,2.5-14.3,2.8-20.5
			c0.3-7,0.3-14.6-0.2-21.4C320.5,233.4,320.5,220.6,321,208.8 M317.9,208.6c-0.6,11.6-0.5,24.5,0.2,35.3c0.5,6.6,0.5,14,0.2,21.1
			c-0.4,8.9-1.5,17-3.4,21.9c0,0.1-0.1,0.3-0.1,0.4c0,0.7,0.5,1.3,1.2,1.3l49.4,2.4c0.5,0,1-0.3,1.2-0.8c0.1-0.3,2.9-7.7,3.6-23.2
			l0,0c0.3-6.5,0.2-13.6-0.3-20.9c-0.7-10.7-0.8-23.4-0.2-34.9c0.3-7.1,0.9-13.7,1.7-19.1c0,0,0-0.1,0-0.1c0-0.7-0.5-1.3-1.2-1.3
			l-49.4-2.4c-0.6,0-1.2,0.4-1.3,1.1C318.8,194.8,318.3,201.5,317.9,208.6L317.9,208.6z M370.3,267L370.3,267
			C370.3,267,370.3,267,370.3,267L370.3,267z"/>
		<path id="_409267760_51_" class="st8" d="M318.7,207c0.3-6.8,0.9-13,1.5-18.2l50.4,2.4c-0.7,5.3-1.2,11.5-1.5,18.3
			c-0.6,12.6-0.5,26.1,0.4,37.1c0.6,7.6,0.7,14.9,0.4,21.6c-0.6,12-2.4,19.2-3.3,22l-50.2-2.4c1.9-6.4,2.7-15.1,3-21.5
			c0.4-7.4,0.3-15.4-0.3-22.6C318.2,232.9,318.1,219.5,318.7,207 M315.3,206.8c-0.6,12.2-0.5,25.8,0.4,37.2
			c0.5,6.9,0.6,14.8,0.3,22.2c-0.4,9.3-1.6,17.9-3.7,23.1c-0.1,0.1-0.1,0.3-0.1,0.4c0,0.7,0.5,1.4,1.3,1.4l54.5,2.6
			c0.6,0,1.1-0.3,1.3-0.8c0.1-0.3,3.2-8.1,3.9-24.4h0c0.3-6.9,0.2-14.3-0.4-22c-0.9-11.3-0.9-24.7-0.4-36.7c0.4-7.5,1-14.4,1.8-20.1
			c0,0,0-0.1,0-0.1c0-0.7-0.5-1.4-1.3-1.4l-54.5-2.6c-0.7,0-1.3,0.5-1.4,1.1C316.3,192.3,315.7,199.3,315.3,206.8L315.3,206.8z
			 M373.2,268.5L373.2,268.5C373.2,268.5,373.2,268.5,373.2,268.5L373.2,268.5z"/>
		<g>
			<path id="_409267496_26_" class="st9" d="M321.3,200.1c0.2-2.6,0.4-5.2,0.6-7.7c0.1-0.6,0.6-1.1,1.2-1l7.6,0.4
				C330.2,197.6,324.3,200.4,321.3,200.1L321.3,200.1z"/>
			<path id="_409268120_26_" class="st9" d="M360.3,193.2l7.7,0.4c0.7,0,1.2,0.6,1.1,1.3c-0.2,2.5-0.5,5.1-0.6,7.7
				C365.6,202.4,360.3,198.9,360.3,193.2L360.3,193.2z"/>
			<path id="_409267040_26_" class="st9" d="M366.7,280.1c-0.3,2.5-0.7,5-1.2,7.3c-0.1,0.5-0.6,0.9-1.1,0.8l-7.2-0.3
				C357.3,285,360.8,279.5,366.7,280.1L366.7,280.1z"/>
			<path id="_409266752_26_" class="st9" d="M327.1,286.4l-7.5-0.4c-1.8-0.1-0.8-2.5-0.5-4.7c0.2-1.3,0.4-2.6,0.5-3.9
				C324,278.2,327.1,282,327.1,286.4L327.1,286.4z"/>
		</g>
		<path id="_409266968_26_" class="st9" d="M366,240.5c-0.6,12-10.8,21.3-22.7,20.7c-11.9-0.6-21.2-10.8-20.6-22.8
			c0.6-12,10.8-21.3,22.7-20.7C357.3,218.3,366.6,228.5,366,240.5L366,240.5z"/>
		
			<ellipse transform="matrix(4.773089e-02 -0.9989 0.9989 4.773089e-02 54.6302 602.3829)" class="st7" cx="343.2" cy="272.5" rx="5.2" ry="5.2"/>
		
			<ellipse transform="matrix(4.774361e-02 -0.9989 0.9989 4.774361e-02 123.9656 542.3256)" class="st7" cx="346.4" cy="206.1" rx="5.2" ry="5.2"/>
		<g>
			<path id="_409266824_26_" class="st6" d="M354.4,239.9c-0.3,5.3-7.4,7-7.3,4c0-0.7,0.7-1.3,1.4-1.3c4,0.2,4.3-5.9,0.3-6
				c-5.1-0.2-1.4,8.7-9.1,8.3c-7.5-0.4-7-11.8,0.5-11.4c1.8,0.1,1.6,2.8-0.1,2.7c-4-0.2-4.3,5.9-0.3,6c5.1,0.2,1.4-8.7,9.1-8.3
				C352.1,234.1,354.6,236.7,354.4,239.9L354.4,239.9z"/>
			<path id="_409267328_26_" class="st6" d="M337,239.1c-0.1,1.7-2.2,1.2-3.7,1.2c-1.8-0.1-1.6-2.8,0.1-2.7
				C334.9,237.6,337.1,237.3,337,239.1z"/>
			<path id="_409266872_26_" class="st6" d="M356.7,240c-0.1,1.7-2.2,1.2-3.7,1.2c-1.8-0.1-1.6-2.8,0.1-2.7
				C354.7,238.6,356.8,238.3,356.7,240z"/>
		</g>
	</g>
	<g>
		<path id="_409268072_25_" class="st6" d="M342.8,109.2c-4.3,3.7-9.9,7.8-14.9,10.7c-0.6,0.3-1.4,0.2-1.9-0.4l-29.9-35.2
			c-1.6-1.9,1.5-2.9,3.7-4.4c9.9-6.6,19-15.1,27.4-24.5c10.5-11.7,24.6-24.7,37.9-34.7c0.6-0.4,1.4-0.3,2,0.3l30,35.3
			c0.6,0.7,0.5,1.6-0.1,2.1c-13.5,10.2-27.7,23.3-38.7,35.5C353.1,99.7,347.9,104.9,342.8,109.2L342.8,109.2z"/>
		<path id="_409267760_50_" class="st7" d="M353.7,32.4c4.9-4.2,9.6-7.9,13.6-10.7l29.6,34.8c-4.1,2.9-8.7,6.6-13.6,10.8
			c-9.1,7.7-18.4,16.6-25.6,24.2c-4.9,5.3-9.9,10.1-14.8,14.2c-8.7,7.4-14.8,10.8-17.3,12.1l-29.5-34.7c5.6-2.9,12.1-8,16.8-11.9
			c5.4-4.6,10.9-9.8,15.5-14.8C335.5,48.8,344.7,40.1,353.7,32.4 M351.7,30c-8.9,7.5-18.2,16.3-25.6,24.3c-4.5,4.8-9.9,10-15.2,14.5
			c-6.8,5.7-13.5,10.5-18.3,12.5c-0.1,0.1-0.2,0.1-0.3,0.2c-0.5,0.4-0.6,1.2-0.2,1.8l32,37.7c0.3,0.4,0.9,0.5,1.4,0.3
			c0.3-0.1,7.6-3.2,19.4-13.2l0,0c5-4.2,10-9.1,15.1-14.5c7.3-7.9,16.5-16.6,25.3-24c5.4-4.6,10.6-8.7,15.1-11.8c0,0,0.1,0,0.1-0.1
			c0.5-0.4,0.6-1.2,0.2-1.8l-32-37.7c-0.4-0.5-1.1-0.6-1.7-0.2C362.5,21.3,357.2,25.4,351.7,30L351.7,30z M344.9,108.2L344.9,108.2
			C344.9,108.2,344.9,108.2,344.9,108.2L344.9,108.2z"/>
		<path id="_409267760_49_" class="st8" d="M353.4,29.5c5.2-4.4,10.1-8.3,14.3-11.3l32.7,38.4c-4.3,3.1-9.2,7-14.4,11.4
			c-9.6,8.2-19.4,17.5-26.9,25.6c-5.2,5.6-10.4,10.7-15.5,15.1c-9.1,7.8-15.7,11.4-18.3,12.6L292.7,83c6-3,12.8-8.3,17.8-12.5
			c5.7-4.8,11.4-10.4,16.3-15.6C334.2,46.8,343.9,37.6,353.4,29.5 M351.2,26.9c-9.3,7.9-19.2,17.3-26.9,25.6
			c-4.7,5.1-10.4,10.6-16,15.4c-7.1,6-14.2,11.1-19.4,13.1c-0.1,0.1-0.3,0.1-0.4,0.2c-0.5,0.5-0.6,1.3-0.1,1.9l35.3,41.6
			c0.4,0.4,1,0.6,1.5,0.4c0.3-0.1,8.1-3.2,20.5-13.8l0,0c5.2-4.5,10.6-9.6,15.8-15.3c7.7-8.3,17.4-17.5,26.6-25.3
			c5.7-4.8,11.2-9.2,15.9-12.4c0,0,0.1,0,0.1-0.1c0.5-0.5,0.6-1.3,0.1-1.9l-35.3-41.6c-0.5-0.5-1.2-0.6-1.8-0.3
			C362.5,17.7,357,22,351.2,26.9L351.2,26.9z M345.8,111.3L345.8,111.3C345.8,111.3,345.8,111.3,345.8,111.3L345.8,111.3z"/>
		<g>
			<path id="_409267496_25_" class="st9" d="M360.3,26.7c2-1.7,4.1-3.3,6.1-4.8c0.5-0.4,1.2-0.3,1.6,0.2l4.9,5.8
				C368.1,31.5,362.1,29.1,360.3,26.7L360.3,26.7z"/>
			<path id="_409268120_25_" class="st9" d="M392,50.4l5,5.9c0.4,0.5,0.3,1.3-0.2,1.7c-2,1.5-4,3.1-6,4.8
				C388.8,60.6,387.8,54.4,392,50.4L392,50.4z"/>
			<path id="_409267040_25_" class="st9" d="M332.8,114.5c-2,1.5-4.1,2.9-6.1,4.1c-0.5,0.3-1,0.2-1.4-0.2l-4.7-5.5
				C322.8,110.9,329.2,109.8,332.8,114.5L332.8,114.5z"/>
			<path id="_409266752_25_" class="st9" d="M301.2,89.8l-4.9-5.7c-1.2-1.4,1.3-2.3,3.1-3.6c1.1-0.7,2.1-1.5,3.2-2.3
				C305,82,304.4,86.8,301.2,89.8L301.2,89.8z"/>
		</g>
		<path id="_409266968_25_" class="st9" d="M361.3,86.9c-9.1,7.8-22.9,6.7-30.6-2.4c-7.7-9.1-6.6-22.9,2.5-30.6
			c9.1-7.8,22.9-6.7,30.6,2.4C371.6,65.4,370.5,79.1,361.3,86.9L361.3,86.9z"/>
		
			<ellipse transform="matrix(0.7622 -0.6473 0.6473 0.7622 16.9715 230.5626)" class="st7" cx="322.3" cy="92.2" rx="5.2" ry="5.2"/>
		<ellipse transform="matrix(0.7623 -0.6473 0.6473 0.7623 56.8643 253.125)" class="st7" cx="373" cy="49.2" rx="5.2" ry="5.2"/>
		<g>
			<path id="_409266824_25_" class="st6" d="M353.8,78c-4.1,3.5-10.2-0.6-7.9-2.5c0.6-0.5,1.4-0.4,1.9,0.2c2.6,3,7.2-0.9,4.6-3.9
				c-3.3-3.9-7.3,4.9-12.3-1c-4.9-5.7,3.9-13.1,8.7-7.4c1.1,1.4-0.9,3.1-2.1,1.7c-2.6-3-7.2,0.9-4.6,3.9c3.3,3.9,7.3-4.9,12.3,1
				C356.5,72.4,356.2,76,353.8,78L353.8,78z"/>
			<path id="_409267328_25_" class="st6" d="M342.5,64.7c-1.3,1.1-2.4-0.7-3.4-1.9c-1.1-1.4,0.9-3.1,2.1-1.7
				C342.2,62.2,343.8,63.6,342.5,64.7z"/>
			<path id="_409266872_25_" class="st6" d="M355.3,79.8c-1.3,1.1-2.4-0.7-3.4-1.9c-1.1-1.4,0.9-3.1,2.1-1.7
				C355,77.3,356.6,78.7,355.3,79.8z"/>
		</g>
	</g>
	<path class="st3" d="M97.8,255.5c0,0-30.1,8.5-41.7-23.1H30.7l2.3,20.7c0,0,10.5,14,70.5-3L97.8,255.5z"/>
	<path class="st4" d="M53.2,218.7c0,0,3.4,52.2,52.7,34.3s0-37.8,0-37.8L53.2,218.7z"/>
	<g>
		<path id="_409268072_24_" class="st6" d="M182.3,226.9c2.6,5,5.4,11.4,7.1,16.9c0.2,0.6-0.2,1.4-0.8,1.7l-41,21.2
			c-2.2,1.1-2.5-2.1-3.5-4.6c-4.2-11.1-10.5-21.9-17.7-32.2c-9.1-12.9-18.6-29.5-25.3-44.7c-0.3-0.7,0-1.5,0.8-1.9l41.2-21.3
			c0.8-0.4,1.7-0.2,2,0.6c6.9,15.4,16.5,32.2,25.9,45.7C175.4,214.7,179.2,221,182.3,226.9L182.3,226.9z"/>
		<path id="_409267760_48_" class="st7" d="M109.9,199c-3-5.7-5.5-11.1-7.4-15.6l40.6-21c2,4.6,4.5,10,7.5,15.7
			c5.5,10.6,12,21.7,17.9,30.4c4.1,6,7.6,11.9,10.6,17.6c5.2,10.1,7.2,16.9,7.9,19.6l-40.5,20.9c-1.5-6.2-5-13.6-7.9-19.1
			c-3.2-6.3-7.1-12.8-10.9-18.4C121.9,220.5,115.4,209.5,109.9,199 M107.2,200.4c5.3,10.3,11.8,21.4,17.9,30.4
			c3.7,5.5,7.5,11.9,10.7,18.1c4.1,7.9,7.2,15.5,8.1,20.7c0,0.1,0.1,0.3,0.1,0.4c0.3,0.6,1.1,0.9,1.7,0.5l43.9-22.7
			c0.5-0.2,0.7-0.8,0.6-1.3c-0.1-0.3-1.4-8.1-8.5-21.8l0,0c-3-5.8-6.6-11.8-10.7-17.9c-6-8.9-12.4-19.8-17.7-30
			c-3.3-6.3-6.1-12.3-8.1-17.4c0,0,0-0.1,0-0.1c-0.3-0.6-1.1-0.9-1.7-0.5l-43.9,22.7c-0.6,0.3-0.8,1-0.6,1.6
			C101.1,188,103.9,194,107.2,200.4L107.2,200.4z M181.8,224.6L181.8,224.6C181.8,224.6,181.8,224.6,181.8,224.6L181.8,224.6z"/>
		<path id="_409267760_47_" class="st8" d="M107,198.6c-3.1-6-5.8-11.7-7.8-16.5l44.8-23.2c2,4.9,4.7,10.6,7.8,16.6
			c5.8,11.2,12.7,22.8,18.9,31.9c4.3,6.3,8.1,12.5,11.2,18.5c5.5,10.6,7.5,17.8,8.2,20.7l-44.7,23.1c-1.6-6.5-5.2-14.4-8.2-20.2
			c-3.4-6.6-7.5-13.5-11.6-19.4C119.6,221.2,112.8,209.7,107,198.6 M104,200.2c5.6,10.9,12.5,22.6,18.9,32c3.9,5.7,8,12.5,11.4,19.1
			c4.3,8.3,7.6,16.3,8.4,21.8c0,0.1,0.1,0.3,0.1,0.4c0.3,0.6,1.1,0.9,1.8,0.5l48.4-25.1c0.5-0.3,0.8-0.8,0.7-1.4
			c-0.1-0.3-1.3-8.6-8.8-23.1l0,0c-3.2-6.1-7-12.5-11.4-18.9c-6.4-9.3-13.2-20.9-18.7-31.6c-3.4-6.6-6.4-13-8.5-18.3
			c0,0,0-0.1-0.1-0.1c-0.3-0.6-1.1-0.9-1.8-0.5L96.1,180c-0.6,0.3-0.9,1.1-0.7,1.7C97.6,187.1,100.5,193.5,104,200.2L104,200.2z
			 M185,224.4L185,224.4C185,224.4,185,224.4,185,224.4L185,224.4z"/>
		<g>
			<path id="_409267496_24_" class="st9" d="M105.9,191.3c-1.2-2.4-2.3-4.7-3.3-7c-0.3-0.6,0-1.2,0.5-1.5l6.8-3.5
				C112.3,184.7,108.6,190.1,105.9,191.3L105.9,191.3z"/>
			<path id="_409268120_24_" class="st9" d="M136.1,165.7l6.8-3.5c0.6-0.3,1.3-0.1,1.6,0.5c1,2.3,2.2,4.6,3.3,7
				C145.3,171.1,139,170.7,136.1,165.7L136.1,165.7z"/>
			<path id="_409267040_24_" class="st9" d="M185.3,237.8c1,2.3,1.9,4.7,2.6,6.9c0.2,0.5-0.1,1-0.5,1.3l-6.4,3.3
				C179.5,246.7,179.8,240.2,185.3,237.8L185.3,237.8z"/>
			<path id="_409266752_24_" class="st9" d="M154.1,263.1l-6.7,3.5c-1.6,0.8-2-1.8-2.8-3.9c-0.5-1.2-1-2.4-1.5-3.6
				C147.3,257.5,151.9,259.2,154.1,263.1L154.1,263.1z"/>
		</g>
		<path id="_409266968_24_" class="st9" d="M164.8,203.8c5.5,10.7,1.4,23.8-9.3,29.3s-23.8,1.3-29.3-9.4
			c-5.5-10.7-1.4-23.8,9.3-29.3C146.1,189,159.2,193.2,164.8,203.8L164.8,203.8z"/>
		<ellipse transform="matrix(0.8881 -0.4596 0.4596 0.8881 -93.6532 101.257)" class="st7" cx="161.1" cy="243" rx="5.2" ry="5.2"/>
		<ellipse transform="matrix(0.8881 -0.4596 0.4596 0.8881 -69.9369 80.6066)" class="st7" cx="130.6" cy="184" rx="5.2" ry="5.2"/>
		<g>
			<path id="_409266824_24_" class="st6" d="M154.4,209.2c2.5,4.7-2.9,9.7-4.3,7.1c-0.3-0.7-0.1-1.5,0.6-1.8
				c3.5-1.8,0.7-7.2-2.8-5.4c-4.6,2.4,3.2,8.2-3.7,11.8c-6.7,3.5-11.9-6.7-5.3-10.2c1.6-0.8,2.8,1.6,1.2,2.4
				c-3.5,1.8-0.7,7.2,2.8,5.4c4.6-2.4-3.2-8.2,3.7-11.8C149.5,205.2,153,206.3,154.4,209.2L154.4,209.2z"/>
			<path id="_409267328_24_" class="st6" d="M138.9,217.2c0.8,1.5-1.3,2.2-2.6,2.9c-1.6,0.8-2.8-1.6-1.2-2.4
				C136.4,216.9,138.1,215.6,138.9,217.2z"/>
			<path id="_409266872_24_" class="st6" d="M156.5,208.1c0.8,1.5-1.3,2.2-2.6,2.9c-1.6,0.8-2.8-1.6-1.2-2.4
				C154,207.9,155.7,206.6,156.5,208.1z"/>
		</g>
	</g>
	<path class="st3" d="M115.5,83.6c0,0-61.6,61.5-44.9,71.2c16.7,9.7,53.1-14.7,53.1-14.7l15.3-44L115.5,83.6z"/>
	<path class="st4" d="M234.3,80.3c0,0-82.8-15.4-74.5,29.3c8.3,44.7,39.6,18.2,39.6,18.2l34.8-23.4V80.3z"/>
	<path class="st4" d="M295.7,61.3c0,0,48.3,25.4,16.5,56.6l-34,7.3l-14.6-47.4L295.7,61.3z"/>
	<path class="st3" d="M94.3,162.1c0,0,36.7,39.7,79.9,14.1l-29-37l-47.3,0.9l-3.6,26.1"/>
	<path class="st4" d="M389.1,200.9c0,0-90.1,19.4-72.7-30.5c17.3-50,44-1.4,44-1.4L389.1,200.9z"/>
	<path class="st3" d="M296.1,191.3c0,0,62.3,39.1,32.2-40.7L302,161.9L296.1,191.3z"/>
	<g>
		<path id="_409268072_23_" class="st6" d="M240.6,154.8c-3.9,4.1-9.1,8.7-13.8,12.1c-0.5,0.4-1.3,0.3-1.9-0.2l-33.2-32.2
			c-1.7-1.7,1.2-3.1,3.2-4.7c9.2-7.5,17.5-16.9,24.9-27c9.3-12.7,22.1-27,34.3-38.2c0.5-0.5,1.4-0.4,2,0.1l33.3,32.3
			c0.6,0.6,0.7,1.6,0.1,2.1c-12.4,11.5-25.3,25.8-35,39.1C250,144.4,245.3,150,240.6,154.8L240.6,154.8z"/>
		<path id="_409267760_46_" class="st7" d="M244.1,77.3c4.5-4.6,8.8-8.8,12.5-12l32.8,31.8c-3.8,3.3-8.1,7.5-12.5,12.1
			c-8.3,8.6-16.7,18.3-23.1,26.6c-4.4,5.8-8.9,11-13.3,15.6c-7.9,8.2-13.7,12.2-16.1,13.7l-32.7-31.7c5.3-3.4,11.3-9.1,15.6-13.5
			c4.9-5.1,9.9-10.8,14-16.2C227.5,95.4,235.9,85.8,244.1,77.3 M241.9,75.1c-8.1,8.3-16.6,18-23.1,26.6c-4,5.3-8.9,10.9-13.8,15.9
			c-6.2,6.4-12.4,11.8-17,14.2c-0.1,0.1-0.2,0.1-0.3,0.2c-0.5,0.5-0.5,1.3,0,1.8l35.5,34.4c0.4,0.4,1,0.4,1.4,0.2
			c0.3-0.2,7.3-3.9,18-15l0,0c4.5-4.7,9.1-10,13.6-15.9c6.5-8.5,14.9-18.1,22.8-26.3c4.9-5.1,9.7-9.7,13.9-13.2c0,0,0.1-0.1,0.1-0.1
			c0.5-0.5,0.5-1.3,0-1.8l-35.5-34.4c-0.5-0.4-1.2-0.5-1.7,0C251.7,65.4,246.9,70,241.9,75.1L241.9,75.1z M242.7,153.6L242.7,153.6
			C242.7,153.6,242.7,153.6,242.7,153.6L242.7,153.6z"/>
		<path id="_409267760_45_" class="st8" d="M243.6,74.4c4.7-4.9,9.2-9.2,13.2-12.6l36.2,35.1c-4,3.5-8.5,7.8-13.2,12.7
			c-8.8,9-17.6,19.3-24.3,28.1c-4.6,6.1-9.3,11.7-14,16.5c-8.3,8.6-14.5,12.8-17,14.4l-36.1-35c5.7-3.5,12-9.5,16.5-14.2
			c5.2-5.3,10.4-11.4,14.7-17.1C226.1,93.6,234.8,83.4,243.6,74.4 M241.1,72.1c-8.5,8.8-17.4,19-24.3,28.1
			c-4.2,5.6-9.3,11.5-14.5,16.8c-6.5,6.7-13.1,12.4-18,14.9c-0.1,0.1-0.2,0.2-0.3,0.3c-0.5,0.5-0.5,1.4,0.1,1.9l39.2,38
			c0.4,0.4,1,0.5,1.6,0.2c0.3-0.2,7.8-4,19.1-15.7l0,0c4.8-4.9,9.6-10.6,14.3-16.8c6.8-9,15.6-19.1,24-27.8
			c5.2-5.4,10.3-10.2,14.6-13.9c0,0,0.1-0.1,0.1-0.1c0.5-0.5,0.5-1.4-0.1-1.9l-39.2-38c-0.5-0.5-1.3-0.5-1.8-0.1
			C251.5,61.8,246.4,66.6,241.1,72.1L241.1,72.1z M243.9,156.6L243.9,156.6C243.9,156.6,243.9,156.6,243.9,156.6L243.9,156.6z"/>
		<g>
			<path id="_409267496_23_" class="st9" d="M250.1,71c1.9-1.9,3.7-3.6,5.6-5.4c0.4-0.4,1.1-0.4,1.6,0l5.5,5.3
				C258.4,75,252.1,73.2,250.1,71L250.1,71z"/>
			<path id="_409268120_23_" class="st9" d="M283.9,91.5l5.5,5.4c0.5,0.5,0.5,1.2,0,1.7c-1.8,1.7-3.7,3.5-5.5,5.4
				C281.8,101.9,280.1,95.9,283.9,91.5L283.9,91.5z"/>
			<path id="_409267040_23_" class="st9" d="M231.3,161c-1.9,1.7-3.8,3.3-5.7,4.7c-0.4,0.3-1,0.3-1.4-0.1l-5.2-5
				C221,158.4,227.2,156.7,231.3,161L231.3,161z"/>
			<path id="_409266752_23_" class="st9" d="M197.4,139.6l-5.4-5.2c-1.3-1.2,1.1-2.5,2.8-3.9c1-0.8,2-1.7,2.9-2.6
				C200.5,131.3,200.3,136.2,197.4,139.6L197.4,139.6z"/>
		</g>
		<path id="_409266968_23_" class="st9" d="M257,130.8c-8.4,8.6-22.1,8.9-30.7,0.5c-8.6-8.3-8.8-22.1-0.4-30.7
			c8.4-8.6,22.1-8.9,30.7-0.5C265.1,108.4,265.3,122.2,257,130.8L257,130.8z"/>
		<ellipse transform="matrix(0.696 -0.7181 0.7181 0.696 -33.9255 199.537)" class="st7" cx="218.7" cy="139.8" rx="5.2" ry="5.2"/>
		<ellipse transform="matrix(0.696 -0.7181 0.7181 0.696 14.4124 218.2404)" class="st7" cx="264.9" cy="92.1" rx="5.2" ry="5.2"/>
		<g>
			<path id="_409266824_23_" class="st6" d="M248.6,122.7c-3.7,3.8-10.2,0.4-8.1-1.8c0.5-0.5,1.4-0.6,1.9,0c2.9,2.8,7.1-1.6,4.2-4.3
				c-3.7-3.6-6.8,5.6-12.4,0.2c-5.4-5.2,2.6-13.5,8-8.2c1.3,1.2-0.6,3.2-1.9,1.9c-2.9-2.8-7.1,1.6-4.2,4.3c3.7,3.6,6.8-5.6,12.4-0.2
				C250.8,116.8,250.8,120.4,248.6,122.7L248.6,122.7z"/>
			<path id="_409267328_23_" class="st6" d="M236.1,110.6c-1.2,1.2-2.5-0.5-3.6-1.6c-1.3-1.2,0.6-3.2,1.9-1.9
				C235.5,108.1,237.3,109.3,236.1,110.6z"/>
			<path id="_409266872_23_" class="st6" d="M250.3,124.3c-1.2,1.2-2.5-0.5-3.6-1.6c-1.3-1.2,0.6-3.2,1.9-1.9
				C249.7,121.9,251.5,123.1,250.3,124.3z"/>
		</g>
	</g>
	<path class="st4" d="M250.1,167.9c0,0-37.1-75.6-68-42.3s9.1,42.7,9.1,42.7l39.6,14L250.1,167.9z"/>
</g>
</svg>
