<?xml version="1.0" encoding="utf-8"?>
<!-- Generator: Adobe Illustrator 25.0.0, SVG Export Plug-In . SVG Version: 6.00 Build 0)  -->
<svg version="1.1" id="Layer_1" xmlns="http://www.w3.org/2000/svg" xmlns:xlink="http://www.w3.org/1999/xlink" x="0px" y="0px"
	 viewBox="0 0 130 535.6" style="enable-background:new 0 0 130 535.6;" xml:space="preserve">
<style type="text/css">
	.st0{fill:#FFFFFF;}
	.st1{fill:#35414D;}
	.st2{fill:#FAFAFA;}
	.st3{fill:#64FFDA;}
	.st4{fill:#8AC6DD;}
	.st5{fill:#D7E057;}
	.st6{fill:#F16C7A;}
	.st7{fill:#EEEEEE;}
	.st8{fill:#8C9EFF;}
	.st9{fill:#FBBC05;}
	.st10{fill:#4285F4;}
	.st11{fill:#B598F9;}
	.st12{fill:#754E34;}
	.st13{fill:#F9D0B4;}
	.st14{fill:#9BE5F9;}
	.st15{fill:#70D6F9;}
	.st16{fill:#FC657E;}
	.st17{fill:#F5C84C;}
	.st18{fill:#87D147;}
	.st19{fill:#5290DB;}
	.st20{fill:#F4F4F4;}
	.st21{fill:#E8E8E8;}
	.st22{fill:#5994CE;}
	.st23{fill:#4C7EB0;}
	.st24{fill:#FA5D72;}
	.st25{fill:#F6D867;}
	.st26{fill:#2CAB72;}
</style>
<g>
	<g>
		<g>
			<g>
				<g>
					<g>
						<path class="st0" d="M24.2,87.1l15.9-51.7l85,26.2l-15.9,51.7c-0.2,0.6-0.9,1-1.5,0.8L25,88.6C24.4,88.4,24,87.8,24.2,87.1z"
							/>
					</g>
					<g>
						<g>
							<path class="st1" d="M96.2,110.6c0.2-0.6,0.9-1,1.5-0.8l10.3,3.2L124,61.3c0.2-0.6,0.9-1,1.5-0.8s1,0.9,0.8,1.5l-15.9,51.7
								c-0.4,1.3-1.7,2-3,1.6L97,112.1C96.4,111.9,96,111.2,96.2,110.6z"/>
						</g>
					</g>
					<g>
						<path class="st2" d="M31,85.5l13.5-43.6c0.2-0.6,0.9-1,1.5-0.8l73.5,22.7c0.6,0.2,1,0.9,0.8,1.5l-13.5,43.6
							c-0.2,0.6-0.9,1-1.5,0.8L31.8,87C31.2,86.8,30.9,86.1,31,85.5z"/>
					</g>
					<g>
						<path class="st3" d="M44.9,24.3c0.4-1.3,1.7-2,3-1.6l79.2,24.4c1.3,0.4,2,1.7,1.6,3l-3.5,11.5L41.3,35.8L44.9,24.3z"/>
					</g>
					<g>
						<g>
							<path class="st1" d="M68.9,44.3c0.2-0.6,0.9-1,1.5-0.8l54,16.7l3.2-10.3c0.2-0.6-0.2-1.3-0.8-1.5L68.2,30.3
								c-0.6-0.2-1-0.9-0.8-1.5c0.2-0.6,0.9-1,1.5-0.8L127.5,46c1.9,0.6,3,2.6,2.4,4.5L126.3,62c-0.2,0.6-0.9,1-1.5,0.8l-55.1-17
								C69,45.6,68.7,45,68.9,44.3z"/>
						</g>
					</g>
					<g>
						<g>
							<circle class="st4" cx="95.1" cy="44.9" r="2.4"/>
							<path class="st1" d="M92.2,44c0.5-1.6,2.2-2.5,3.9-2c1.6,0.5,2.5,2.2,2,3.9c-0.5,1.6-2.2,2.5-3.9,2
								C92.6,47.3,91.7,45.6,92.2,44z M93.5,44.4c-0.3,0.9,0.2,1.9,1.1,2.1c0.9,0.3,1.9-0.2,2.1-1.1c0.3-0.9-0.2-1.9-1.1-2.1
								S93.8,43.5,93.5,44.4z"/>
						</g>
						<g>
							<circle class="st5" cx="106.6" cy="48.4" r="2.4"/>
							<path class="st1" d="M103.7,47.5c0.5-1.6,2.2-2.5,3.9-2c1.6,0.5,2.5,2.2,2,3.9c-0.5,1.6-2.2,2.5-3.9,2
								C104.1,50.9,103.2,49.1,103.7,47.5z M105,47.9c-0.3,0.9,0.2,1.9,1.1,2.1s1.9-0.2,2.1-1.1c0.3-0.9-0.2-1.9-1.1-2.1
								S105.2,47,105,47.9z"/>
						</g>
						<g>
							<circle class="st6" cx="118.1" cy="52" r="2.4"/>
							<path class="st1" d="M115.1,51c0.5-1.6,2.2-2.5,3.9-2c1.6,0.5,2.5,2.2,2,3.9c-0.5,1.6-2.2,2.5-3.9,2
								C115.5,54.4,114.6,52.7,115.1,51z M116.5,51.5c-0.3,0.9,0.2,1.9,1.1,2.1c0.9,0.3,1.9-0.2,2.1-1.1c0.3-0.9-0.2-1.9-1.1-2.1
								C117.7,50,116.7,50.6,116.5,51.5z"/>
						</g>
					</g>
				</g>
				<g>
					<g>
						<path class="st7" d="M36.3,84.6l5-16.1c0.2-0.6,0.9-1,1.5-0.8l64.3,19.8c0.6,0.2,1,0.9,0.8,1.5l-5,16.1
							c-0.2,0.6-0.9,1-1.5,0.8L37.1,86.1C36.5,85.9,36.2,85.2,36.3,84.6z"/>
					</g>
					<g>
						<path class="st7" d="M43.4,61.6l5-16.1c0.2-0.6,0.9-1,1.5-0.8l64.3,19.8c0.6,0.2,1,0.9,0.8,1.5l-5,16.1
							c-0.2,0.6-0.9,1-1.5,0.8L44.2,63.1C43.6,62.9,43.2,62.3,43.4,61.6z"/>
					</g>
				</g>
			</g>
			<g>
				<g>
					<g>
						<path class="st0" d="M1.3,112.7l15.9-51.7l82.7,25.5l-15.9,51.7c-0.2,0.6-0.9,1-1.5,0.8L2,114.2C1.4,114,1.1,113.4,1.3,112.7z
							"/>
					</g>
					<g>
						<g>
							<path class="st1" d="M0.1,112.4L16,60.7l2.3,0.7L2.4,113.1l80.4,24.8l15.9-51.7l2.3,0.7l-15.9,51.7c-0.4,1.3-1.7,2-3,1.6
								L1.7,115.4C0.4,115-0.3,113.6,0.1,112.4z"/>
						</g>
					</g>
					<g>
						<path class="st2" d="M5.8,110.4l13.5-43.6c0.2-0.6,0.9-1,1.5-0.8l73.5,22.7c0.6,0.2,1,0.9,0.8,1.5l-13.5,43.6
							c-0.2,0.6-0.9,1-1.5,0.8L6.6,111.9C5.9,111.7,5.6,111,5.8,110.4z"/>
					</g>
					<g>
						<path class="st8" d="M20.7,49.6c0.4-1.3,1.7-2,3-1.6l78.1,24.1c1.3,0.4,2,1.7,1.6,3l-3.5,11.5L17.2,61.1L20.7,49.6z"/>
					</g>
					<g>
						<g>
							<path class="st1" d="M59.7,74.2c0.2-0.6,0.9-1,1.5-0.8l37.9,11.7l3.2-10.3c0.2-0.6-0.2-1.3-0.8-1.5L64.7,61.9
								c-0.6-0.2-1-0.9-0.8-1.5c0.2-0.6,0.9-1,1.5-0.8l36.7,11.3c1.9,0.6,3,2.6,2.4,4.5L101,86.9c-0.2,0.6-0.9,1-1.5,0.8l-39-12
								C59.8,75.5,59.5,74.8,59.7,74.2z"/>
						</g>
					</g>
					<g>
						<g>
							<path class="st1" d="M16,60.7l3.5-11.5c0.6-1.9,2.6-3,4.5-2.4c0.6,0.2,1,0.9,0.8,1.5c-0.2,0.6-0.9,1-1.5,0.8
								c-0.6-0.2-1.3,0.2-1.5,0.8l-3.5,11.5c-0.2,0.6-0.9,1-1.5,0.8C16.2,62,15.9,61.3,16,60.7z"/>
						</g>
					</g>
					<g>
						<g>
							<circle class="st4" cx="69.8" cy="69.8" r="2.4"/>
							<path class="st1" d="M66.9,68.9c0.5-1.6,2.2-2.5,3.9-2s2.5,2.2,2,3.9s-2.2,2.5-3.9,2S66.4,70.5,66.9,68.9z M68.2,69.3
								c-0.3,0.9,0.2,1.9,1.1,2.1s1.9-0.2,2.1-1.1s-0.2-1.9-1.1-2.1S68.5,68.4,68.2,69.3z"/>
						</g>
						<g>
							<circle class="st5" cx="81.3" cy="73.3" r="2.4"/>
							<path class="st1" d="M78.4,72.4c0.5-1.6,2.2-2.5,3.9-2s2.5,2.2,2,3.9c-0.5,1.6-2.2,2.5-3.9,2S77.9,74,78.4,72.4z M79.7,72.8
								c-0.3,0.9,0.2,1.9,1.1,2.1s1.9-0.2,2.1-1.1c0.3-0.9-0.2-1.9-1.1-2.1C80.9,71.4,80,71.9,79.7,72.8z"/>
						</g>
						<g>
							<circle class="st6" cx="92.8" cy="76.9" r="2.4"/>
							<path class="st1" d="M89.8,75.9c0.5-1.6,2.2-2.5,3.9-2c1.6,0.5,2.5,2.2,2,3.9c-0.5,1.6-2.2,2.5-3.9,2
								C90.3,79.3,89.3,77.6,89.8,75.9z M91.2,76.3c-0.3,0.9,0.2,1.9,1.1,2.1s1.9-0.2,2.1-1.1c0.3-0.9-0.2-1.9-1.1-2.1
								S91.4,75.4,91.2,76.3z"/>
						</g>
					</g>
				</g>
				<g>
					<g>
						<path class="st7" d="M11.1,109.5l5-16.1c0.2-0.6,0.9-1,1.5-0.8l64.3,19.8c0.6,0.2,1,0.9,0.8,1.5l-5,16.1
							c-0.2,0.6-0.9,1-1.5,0.8L11.9,111C11.2,110.8,10.9,110.1,11.1,109.5z"/>
					</g>
					<g>
						<path class="st7" d="M18.1,86.5l5-16.1c0.2-0.6,0.9-1,1.5-0.8l64.3,19.8c0.6,0.2,1,0.9,0.8,1.5l-5,16.1
							c-0.2,0.6-0.9,1-1.5,0.8L18.9,88C18.3,87.8,18,87.1,18.1,86.5z"/>
					</g>
				</g>
			</g>
		</g>
		<g>
			<g>
				<g id="path5172_7_">
					<path class="st9" d="M45.8,47.2c-3.1,0.6-6.3,0.3-9-0.8c0,0,0,0,0,0c-0.5-0.2-1-0.4-1.5-0.7l0,0c-0.4-0.2-1-0.5-1.3-0.8
						c0,0,0,0,0,0c-1-0.6-2-1.4-2.8-2.3c0,0,0,0,0,0c-3.9-4.1-5.4-10-3.7-15.6l4.6-14.9c2.6-8.3,11.4-13,19.8-10.4
						c8.3,2.6,13,11.4,10.4,19.8l-4.6,14.9c-0.9,2.7-2.4,5.1-4.4,6.9c-0.3-1.4-0.8-2.7-1.4-3.9c-0.7-1.3-1.6-2.5-2.6-3.6
						c0.3-0.6,0.6-1.2,0.8-1.8l4.6-14.9c1.3-4.2-1-8.6-5.2-9.9c-4.2-1.3-8.6,1-9.9,5.2l-4.6,14.9c-1.3,4.2,1,8.6,5.2,9.9
						C43.8,40.4,46,43.7,45.8,47.2C45.8,47.2,45.8,47.2,45.8,47.2"/>
				</g>
			</g>
			<g id="g5174_7_" transform="translate(466.8496,466.8496)">
				<g id="path5176_7_">
					<path class="st10" d="M-438.2-390.1c8.3,2.6,17.2-2.1,19.8-10.4l4.6-14.9c2.6-8.3-2.1-17.2-10.4-19.8c-2.7-0.8-5.4-0.9-7.9-0.4
						c-0.2,3.5,2,6.8,5.6,7.9c4.2,1.3,6.5,5.7,5.2,9.9l-4.7,15.1l0,0c-1.4,4-5.7,6.2-9.8,4.9c-4.2-1.3-6.5-5.7-5.2-9.9l4.6-14.9
						c0.2-0.6,0.5-1.2,0.8-1.8c-1-1.1-1.9-2.3-2.6-3.6c-0.6-1.2-1.1-2.5-1.4-3.9c-2,1.8-3.5,4.2-4.4,6.9l-4.6,14.9
						C-451.2-401.5-446.5-392.7-438.2-390.1"/>
				</g>
			</g>
			<g id="g5178_7_" transform="translate(246.7451,328.9209)">
				<g id="path5180_7_">
					<path class="st1" d="M-209.1-281.1c2.7,0.8,5.6,1,8.4,0.4c0.4-0.1,0.7-0.4,0.8-0.7c0.1-0.2,0.1-0.3,0-0.5
						c-0.1-0.6-0.7-0.9-1.2-0.8c-2.4,0.5-5,0.4-7.4-0.4c0,0,0,0,0,0c-7.8-2.4-12.1-10.7-9.7-18.5c0,0,0,0,0,0l4.6-14.9
						c1.2-3.8,3.7-6.9,7.2-8.7c3.5-1.8,7.5-2.2,11.3-1c3.8,1.2,6.9,3.7,8.7,7.2c1.8,3.5,2.2,7.5,1,11.2c0,0,0,0,0,0l-4.6,14.9
						c-0.8,2.5-2.2,4.7-4.1,6.5c-0.1,0.1-0.2,0.3-0.3,0.5c-0.1,0.3,0,0.7,0.2,1c0.4,0.4,1,0.4,1.5,0.1c2.2-2,3.8-4.5,4.6-7.4
						l4.6-14.9c0,0,0,0,0,0c1.3-4.3,0.9-8.8-1.2-12.8c-2.1-4-5.6-6.9-9.9-8.2c0,0,0,0,0,0c-4.3-1.3-8.8-0.9-12.8,1.2
						c-4,2.1-6.9,5.6-8.2,9.9l-4.6,14.9c0,0,0,0,0,0C-223-293.3-218-283.9-209.1-281.1C-209.1-281.1-209.1-281.1-209.1-281.1z"/>
				</g>
			</g>
			<g id="g5182_7_" transform="translate(328.9209,246.7451)">
				<g id="path5184_7_">
					<path class="st1" d="M-298.2-176.5c4.2,1.3,8.7-0.6,10.6-4.5c0.3-0.5,0-1.1-0.5-1.4c-0.5-0.3-1.1,0-1.4,0.5
						c-1.5,3-4.9,4.5-8.2,3.5c0,0,0,0,0,0c-1.7-0.5-3.2-1.7-4-3.4c-0.9-1.6-1-3.5-0.5-5.2l4.6-14.9c0.2-0.6,0.4-1.1,0.7-1.6
						c0.3-0.5,0.1-1.1-0.3-1.4c-0.5-0.3-1.1-0.1-1.4,0.3c-0.4,0.6-0.7,1.3-0.9,2l-4.6,14.9c-0.7,2.3-0.5,4.7,0.6,6.8
						C-302.4-178.8-300.5-177.2-298.2-176.5C-298.2-176.5-298.2-176.5-298.2-176.5z"/>
				</g>
			</g>
			<g id="g5186_7_" transform="translate(290.0762,374.9287)">
				<g id="path5188_7_">
					<path class="st1" d="M-246.8-318.7c0.5,0.2,1.1-0.1,1.3-0.7l1.9-6.1c1.5-4.7-1.2-9.7-5.9-11.2c-1.7-0.5-3.2-1.7-4-3.4
						c-0.9-1.6-1-3.5-0.5-5.2l4.6-14.9c0.5-1.7,1.7-3.2,3.4-4c1.6-0.9,3.5-1,5.2-0.5c0,0,0,0,0,0c1.7,0.5,3.2,1.7,4,3.4
						c0.9,1.6,1,3.5,0.5,5.2l-4.6,14.9c-0.2,0.6-0.4,1.1-0.7,1.6c-0.3,0.5-0.1,1.1,0.3,1.4c0.5,0.3,1.1,0.1,1.4-0.3
						c0.4-0.6,0.7-1.3,0.9-2l4.6-14.9c1.5-4.7-1.2-9.7-5.9-11.2c0,0,0,0,0,0c-4.7-1.5-9.7,1.2-11.2,5.9l-4.6,14.9
						c-0.7,2.3-0.5,4.7,0.6,6.8c1.1,2.1,3,3.7,5.3,4.4c1.7,0.5,3.2,1.7,4,3.4c0.9,1.6,1,3.5,0.5,5.2l-1.9,6.1
						C-247.6-319.5-247.3-318.9-246.8-318.7L-246.8-318.7z"/>
				</g>
			</g>
			<g id="path5192_7_">
				<path class="st1" d="M28.4,77.8c4.3,1.3,8.8,0.9,12.8-1.2c4-2.1,6.9-5.6,8.2-9.9L54,51.8c0,0,0,0,0,0c1.3-4.3,0.9-8.8-1.2-12.8
					c-2.1-4-5.6-6.9-9.9-8.2c0,0,0,0,0,0c-2.7-0.8-5.6-1-8.4-0.4c-0.4,0.1-0.7,0.4-0.8,0.7c0,0.2-0.1,0.3,0,0.5
					c0.1,0.6,0.7,0.9,1.2,0.8c2.4-0.5,5-0.4,7.4,0.4c0,0,0,0,0,0c3.8,1.2,6.9,3.7,8.7,7.2c1.8,3.5,2.2,7.5,1,11.2c0,0,0,0,0,0
					l-4.6,14.9c-1.2,3.8-3.7,6.9-7.2,8.7c-3.5,1.8-7.5,2.2-11.2,1c0,0,0,0,0,0c-3.8-1.2-6.9-3.7-8.7-7.2c-1.8-3.5-2.2-7.5-1-11.2
					c0,0,0,0,0,0l4.6-14.9c0.8-2.5,2.2-4.7,4.1-6.5c0.1-0.1,0.2-0.3,0.3-0.5c0.1-0.3,0-0.7-0.2-1c-0.4-0.4-1-0.4-1.5-0.1
					c-2.2,2-3.8,4.5-4.6,7.4l-4.6,14.9c0,0,0,0,0,0c-1.3,4.3-0.9,8.8,1.2,12.8C20.5,73.5,24,76.4,28.4,77.8
					C28.3,77.8,28.4,77.8,28.4,77.8z"/>
			</g>
			<g id="g5194_7_" transform="translate(325.4316,396.1416)">
				<g id="path5196_7_">
					<path d="M-284.6-336.3c0.2-0.7,1-1.1,1.6-0.9c0.7,0.2,1.1,1,0.9,1.6c-0.2,0.7-1,1.1-1.6,0.9
						C-284.5-334.8-284.9-335.6-284.6-336.3"/>
				</g>
			</g>
			<g id="g5210_8_" transform="translate(383.2793,128.7207)">
				<g id="path5212_8_">
					<path class="st1" d="M-366-95.5c0.5,0.2,1.1-0.1,1.3-0.7c0.2-0.5-0.1-1.1-0.7-1.3l-7.5-2.3l0,0c-0.5-0.2-1.1,0.1-1.3,0.7
						c-0.2,0.5,0.1,1.1,0.7,1.3L-366-95.5L-366-95.5z"/>
				</g>
			</g>
			<g id="g5214_8_" transform="translate(333,95)">
				<g id="path5216_8_">
					<path class="st1" d="M-311.9-68.8c0.3,0.1,0.5,0.1,0.8-0.1c0.5-0.3,0.7-0.9,0.4-1.4l-3.7-7c-0.3-0.5-0.9-0.7-1.4-0.4
						c-0.5,0.3-0.7,0.9-0.4,1.4l3.7,7C-312.4-69-312.1-68.9-311.9-68.8z"/>
				</g>
			</g>
			<g id="g5218_8_" transform="translate(417,179)">
				<g id="path5220_8_">
					<path class="st1" d="M-407.5-134.1c0.3,0.1,0.5,0.1,0.8-0.1l7-3.7c0.5-0.3,0.7-0.9,0.4-1.4c-0.3-0.5-0.9-0.7-1.4-0.4l-7,3.7
						c-0.5,0.3-0.7,0.9-0.4,1.4C-408-134.4-407.8-134.2-407.5-134.1z"/>
				</g>
			</g>
		</g>
	</g>
	<g id="Layer_63_2_">
		<g>
			<g>
				<circle class="st11" cx="66.6" cy="267.8" r="27.4"/>
			</g>
			<g>
				<g>
					<path class="st12" d="M55.7,263.5c0.2,0,0.4-0.1,0.6-0.1l-0.1-0.4c0,0,0,0,0,0c-0.1-0.3,0.2-0.6,0.5-0.6
						c1.7,0.1,6.8-0.2,9.5-5.1c0.1-0.3,0.5-0.3,0.7-0.2c0.9,0.6,3.2,1.8,7.1,1.2c0.3,0,0.5,0.1,0.6,0.4c0,0,0,0.1,0,0.1l0.2,1.2
						c0.2-0.1,0.4-0.1,0.6-0.2c1-0.2,2.1,0.1,2.9,0.6l-1.2-7c-0.5-2.9-3.3-4.9-6.2-4.4c-1,0.2-1.9,0.6-2.6,1.2
						c-1.2-1.4-3.1-2.1-5-1.8l-2.7,0.5c-5.3,0.9-8.8,6-7.9,11.3l0.8,4.3C54,264.1,54.8,263.7,55.7,263.5z"/>
				</g>
			</g>
			<g>
				<path class="st13" d="M75.4,260c-0.2,0-0.4,0.1-0.6,0.2l1.2,7c0,0.2,0.1,0.4,0.1,0.6c0.2,0,0.4,0,0.6-0.1
					c2.1-0.4,3.6-2.4,3.2-4.6C79.6,261,77.6,259.6,75.4,260L75.4,260z"/>
			</g>
			<g>
				<path class="st13" d="M57.5,270.5c-0.2-1-0.9-5.1-1.2-7c-0.2,0-0.4,0-0.6,0.1c-2.1,0.4-3.6,2.4-3.2,4.6s2.4,3.6,4.6,3.2
					c0.2,0,0.4-0.1,0.6-0.2C57.6,270.9,57.6,270.7,57.5,270.5z"/>
			</g>
			<g>
				<path class="st13" d="M66.2,257.3c-2.6,4.9-7.7,5.1-9.5,5.1c-0.3,0-0.6,0.3-0.5,0.6l0,0l1.3,7.5c0.9,5.1,5.8,8.5,10.9,7.6
					c5.1-0.9,8.5-5.8,7.6-10.9l-1.5-8.3c0,0,0-0.1,0-0.1c-0.1-0.3-0.3-0.4-0.6-0.4c-3.9,0.6-6.2-0.6-7.1-1.2
					C66.7,257,66.3,257,66.2,257.3L66.2,257.3z"/>
			</g>
			<g>
				<path class="st14" d="M64.7,288.6c0.5,0.3,1.1,0.2,1.4-0.3l2-2.8c0.3-0.5,0.2-1.1-0.3-1.4l-3.9-2.7c-0.2,0.4-0.5,0.7-0.8,1
					c0,0-0.4,0.3-0.8,0.6c-0.9,0.7-1.9,1.3-3,1.8L64.7,288.6z"/>
			</g>
			<g>
				<path class="st14" d="M74.2,286.9c0.5,0.3,1.1,0.2,1.4-0.3l3.8-5.4c-1.2-0.1-2.4-0.3-3.5-0.7c-0.6-0.2-1.1-0.3-1.1-0.4
					c-0.3-0.1-0.6-0.3-0.9-0.6l-2.7,3.9c-0.3,0.5-0.2,1.1,0.3,1.4L74.2,286.9z"/>
			</g>
			<g>
				<path class="st15" d="M71.4,294.8c7.2-1.3,13.2-5.2,17.2-10.6c-0.5-1.4-1.7-2.3-3.2-2.4l-5.6-0.4c-0.1,0-0.3,0-0.4,0l-3.8,5.4
					c-0.3,0.5-1,0.6-1.4,0.3l-2.8-2c-0.5-0.3-0.6-1-0.3-1.4l2.7-3.9c-0.5-0.5-0.9-1.1-1-1.9l-0.3-1.5c-1.2,0.9-2.5,1.5-4.1,1.8
					c-1.5,0.3-3.1,0.1-4.5-0.3l0.3,1.5c0.1,0.7,0,1.5-0.3,2.1l3.9,2.7c0.5,0.3,0.6,1,0.3,1.4l-2,2.8c-0.3,0.5-1,0.6-1.4,0.3
					l-5.4-3.8c-0.1,0.1-0.3,0.1-0.4,0.2l-5.1,2.3c-1.3,0.6-2.2,1.9-2.2,3.4C57.2,294.4,64.2,296,71.4,294.8z"/>
			</g>
			<g>
				<path class="st13" d="M68.2,285.1l2.8-0.5c-0.2-0.3-0.2-0.7,0.1-1.1l2.7-3.9c-0.5-0.5-0.9-1.1-1-1.9l-0.3-1.5
					c-1.2,0.9-2.5,1.5-4.1,1.8c-1.5,0.3-3.1,0.1-4.5-0.3l0.3,1.5c0.1,0.7,0,1.5-0.3,2.1l3.9,2.7C68.1,284.4,68.3,284.7,68.2,285.1
					L68.2,285.1z"/>
			</g>
			<g>
				<g>
					<path class="st1" d="M78.4,261.4c-0.7,0.1-1.3-0.3-1.4-1l-1.2-6.6c-0.4-2.3-2.6-3.8-4.8-3.4c-0.7,0.1-1.4,0.5-2,1
						c-0.2,0.2-0.6,0.3-0.9,0.3c-0.3,0-0.6-0.2-0.8-0.4c-1-1.1-2.4-1.6-3.9-1.4l-2.7,0.5c-4.6,0.8-7.7,5.2-6.9,9.9l0.7,4
						c0.1,0.7-0.3,1.3-1,1.4c-0.7,0.1-1.3-0.3-1.4-1l-0.7-4c-1.1-5.9,2.9-11.6,8.9-12.7l2.7-0.5c1.9-0.3,3.8,0.2,5.3,1.4
						c0.7-0.4,1.5-0.7,2.2-0.8c3.6-0.6,7,1.8,7.7,5.4l1.2,6.6C79.6,260.7,79.1,261.3,78.4,261.4L78.4,261.4z"/>
				</g>
			</g>
			<g>
				<path class="st1" d="M77,268.9c-0.1,0-0.2,0-0.4,0c-0.7,0.1-1.3-0.4-1.3-1.1c-0.1-0.7,0.4-1.3,1.1-1.3c0.1,0,0.1,0,0.2,0
					c1.5-0.3,2.5-1.7,2.2-3.1c-0.3-1.5-1.7-2.5-3.1-2.2c-0.1,0-0.1,0-0.2,0c-0.6,0.2-1.3-0.2-1.5-0.9c-0.2-0.7,0.2-1.3,0.9-1.5
					c0.1,0,0.3-0.1,0.4-0.1c2.8-0.5,5.5,1.4,6,4.2C81.7,265.8,79.8,268.5,77,268.9L77,268.9z"/>
			</g>
			<g>
				<path class="st1" d="M57.3,272.4c-2.8,0.5-5.5-1.4-6-4.2s1.4-5.5,4.2-6c0.2,0,0.3,0,0.5-0.1c0.7-0.1,1.3,0.5,1.3,1.1
					s-0.4,1.3-1.1,1.3c-0.1,0-0.2,0-0.3,0c-1.5,0.3-2.5,1.7-2.2,3.1c0.3,1.5,1.7,2.5,3.1,2.2c0.1,0,0.1,0,0.2,0
					c0.6-0.2,1.3,0.2,1.5,0.9c0.2,0.7-0.2,1.3-0.9,1.5C57.5,272.4,57.4,272.4,57.3,272.4z"/>
			</g>
			<g>
				<path class="st1" d="M68.7,279.3c-5.8,1-11.3-2.8-12.3-8.6l-1.3-7.5c-0.1-0.5,0.1-1,0.4-1.4c0.3-0.4,0.8-0.6,1.4-0.6
					c1.8,0.1,6.1-0.3,8.4-4.4c0.2-0.4,0.6-0.7,1.1-0.9c0.5-0.1,1,0,1.4,0.3c0.7,0.5,2.7,1.5,6.2,1c0.9-0.1,1.8,0.5,1.9,1.4l0,0.2
					l1.5,8.3C78.3,272.7,74.4,278.3,68.7,279.3z M57.6,263.6l1.2,6.6c0.8,4.5,5,7.4,9.5,6.6c4.5-0.8,7.4-5,6.6-9.5l-1.4-7.7
					c-3.2,0.3-5.3-0.4-6.6-1.1C64.2,262.8,59.8,263.5,57.6,263.6L57.6,263.6z M74.2,259.6L74.2,259.6
					C74.2,259.6,74.2,259.6,74.2,259.6z M66.2,257.3L66.2,257.3L66.2,257.3z"/>
			</g>
			<g>
				<path class="st1" d="M65.7,290c-0.6,0.1-1.2,0-1.7-0.4l-5.4-3.8c-0.4-0.2-0.6-0.7-0.5-1.1c0-0.4,0.3-0.8,0.7-1
					c1-0.5,1.9-1,2.8-1.7c0.4-0.3,0.7-0.5,0.8-0.6c0.2-0.2,0.4-0.4,0.5-0.6c0.2-0.3,0.5-0.5,0.8-0.6c0.3-0.1,0.7,0,1,0.2l3.9,2.7
					c1,0.7,1.3,2.1,0.6,3.1l-2,2.8C66.8,289.6,66.2,289.9,65.7,290z M65.4,287.6L65.4,287.6L65.4,287.6z M61.6,284.9l3.7,2.6L67,285
					l-2.8-2c-0.1,0.1-0.2,0.2-0.3,0.3c0,0-0.4,0.3-0.9,0.6C62.5,284.3,62.1,284.6,61.6,284.9L61.6,284.9z"/>
			</g>
			<g>
				<path class="st1" d="M75.1,288.3c-0.6,0.1-1.2,0-1.7-0.4l-2.8-2c-0.5-0.3-0.8-0.9-0.9-1.4c-0.1-0.6,0-1.2,0.4-1.7l2.7-3.9
					c0.2-0.3,0.5-0.5,0.9-0.5c0.3,0,0.7,0.1,1,0.3c0.2,0.2,0.4,0.3,0.6,0.4c0,0,0.2,0.1,1,0.3c1,0.3,2.1,0.5,3.3,0.6
					c0.4,0,0.8,0.3,1,0.7c0.2,0.4,0.1,0.9-0.1,1.2l-3.8,5.4C76.2,287.9,75.7,288.2,75.1,288.3L75.1,288.3z M74.9,285.9L74.9,285.9
					L74.9,285.9z M72.2,284.1l2.5,1.7l2.6-3.7c-0.6-0.1-1.2-0.3-1.7-0.4c-1.1-0.3-1.2-0.4-1.3-0.4c0,0-0.1,0-0.1,0L72.2,284.1z"/>
			</g>
			<g>
				<path class="st1" d="M71,285.9l-2.3,0.4c-0.7,0.1-1.3-0.3-1.4-1c-0.1-0.7,0.3-1.3,1-1.4l2.3-0.4c0.7-0.1,1.3,0.3,1.4,1
					C72.1,285.1,71.7,285.7,71,285.9z"/>
			</g>
			<g>
				<path class="st1" d="M51.8,291.7c-0.1,0-0.2,0-0.3,0c-0.7,0-1.2-0.6-1.2-1.3c0.1-1.9,1.2-3.5,2.9-4.3l5.1-2.3
					c0.1,0,0.1-0.1,0.2-0.1l0.1-0.1c0.6-0.3,1.3,0,1.6,0.6c0.3,0.6,0,1.3-0.6,1.6l-0.1,0.1c-0.1,0-0.2,0.1-0.3,0.1l-5.1,2.3
					c-0.9,0.4-1.4,1.2-1.5,2.2C52.8,291.1,52.3,291.6,51.8,291.7L51.8,291.7z"/>
			</g>
			<g>
				<path class="st1" d="M64.1,282.6c-0.3,0-0.5,0-0.8-0.1c-0.6-0.3-0.8-1.1-0.5-1.7c0.2-0.4,0.3-0.9,0.2-1.3l-0.2-1.3
					c-0.1-0.7,0.3-1.3,1-1.4c0.7-0.1,1.3,0.3,1.4,1l0.2,1.3c0.2,1,0,2-0.5,2.9C64.8,282.3,64.5,282.6,64.1,282.6L64.1,282.6z"/>
			</g>
			<g>
				<path class="st1" d="M74.1,280.9c-0.4,0.1-0.7,0-1-0.3c-0.8-0.7-1.3-1.6-1.4-2.6l-0.2-1.2c-0.1-0.7,0.3-1.3,1-1.4
					c0.7-0.1,1.3,0.3,1.4,1l0.2,1.2c0.1,0.4,0.3,0.9,0.7,1.2c0.5,0.4,0.6,1.2,0.1,1.7C74.6,280.7,74.3,280.8,74.1,280.9L74.1,280.9z
					"/>
			</g>
			<g>
				<path class="st1" d="M88.7,285.1c-0.5,0.1-1.1-0.2-1.3-0.7c-0.4-0.9-1.2-1.4-2.1-1.5l-5.6-0.4c-0.1,0-0.2,0-0.3,0l-0.1,0
					c-0.7-0.1-1.2-0.7-1.1-1.3c0.1-0.7,0.7-1.2,1.3-1.1l0.2,0c0.1,0,0.2,0,0.2,0l5.6,0.4c1.8,0.1,3.4,1.3,4.2,3
					c0.3,0.6,0,1.3-0.6,1.6C88.9,285.1,88.8,285.1,88.7,285.1L88.7,285.1z"/>
			</g>
			<g>
				<path class="st1" d="M40.1,259.4c-0.2,0-0.4,0-0.6-0.1l-13.3-4.8c-0.6-0.2-1-0.9-0.7-1.6c0.2-0.6,0.9-1,1.6-0.7l13.3,4.8
					c0.6,0.2,1,0.9,0.7,1.6C40.8,259.1,40.5,259.4,40.1,259.4L40.1,259.4z"/>
			</g>
			<g>
				<path class="st1" d="M108.9,284.2c-0.2,0-0.4,0-0.6-0.1L93,278.6c-0.6-0.2-1-0.9-0.7-1.6c0.2-0.6,0.9-1,1.6-0.7l15.2,5.5
					c0.6,0.2,1,0.9,0.7,1.6C109.6,283.8,109.3,284.1,108.9,284.2L108.9,284.2z"/>
			</g>
			<g>
				<path class="st1" d="M76.4,242.2c-0.2,0-0.4,0-0.6-0.1c-0.6-0.2-1-0.9-0.7-1.6l4.7-13c0.2-0.6,0.9-1,1.6-0.7
					c0.6,0.2,1,0.9,0.7,1.6l-4.7,13C77.2,241.9,76.9,242.2,76.4,242.2L76.4,242.2z"/>
			</g>
			<g>
				<circle class="st15" cx="84.9" cy="215.5" r="12.9"/>
			</g>
			<g>
				<circle class="st13" cx="84.2" cy="211.6" r="3.7"/>
			</g>
			<g>
				<path class="st16" d="M89,218.5l-6.9,1.2c-2.9,0.5-4.8,3.3-4.3,6.1l0.1,0.5c2.6,1.7,5.9,2.5,9.3,1.9c3.3-0.6,6.2-2.4,8.1-4.9
					l-0.1-0.5C94.6,219.9,91.9,218,89,218.5z"/>
			</g>
			<g>
				<path class="st1" d="M87.4,229.4c-7.7,1.4-15.1-3.8-16.4-11.5s3.8-15.1,11.5-16.4c7.7-1.4,15.1,3.8,16.4,11.5
					S95.1,228.1,87.4,229.4z M82.9,203.9c-6.4,1.1-10.6,7.2-9.5,13.6c1.1,6.4,7.2,10.6,13.6,9.5c6.4-1.1,10.6-7.2,9.5-13.6
					C95.3,207.1,89.2,202.8,82.9,203.9z"/>
			</g>
			<g>
				<path class="st1" d="M85.1,216.5c-2.7,0.5-5.2-1.3-5.7-4c-0.5-2.7,1.3-5.2,4-5.7c2.7-0.5,5.2,1.3,5.7,4
					C89.5,213.4,87.7,216,85.1,216.5z M83.8,209.2c-1.3,0.2-2.2,1.5-2,2.8c0.2,1.3,1.5,2.2,2.8,2c1.3-0.2,2.2-1.5,2-2.8
					C86.4,209.9,85.1,209,83.8,209.2z"/>
			</g>
			<g>
				<path class="st1" d="M95.4,224.3c-0.7,0.1-1.3-0.3-1.4-1l0-0.3c-0.4-2.2-2.5-3.7-4.7-3.3l-6.9,1.2c-2.2,0.4-3.7,2.5-3.3,4.7
					l0,0.2c0.1,0.7-0.3,1.3-1,1.4c-0.7,0.1-1.3-0.3-1.4-1l0-0.2c-0.6-3.5,1.7-6.9,5.3-7.6l6.9-1.2c3.5-0.6,6.9,1.7,7.6,5.3l0,0.3
					C96.5,223.5,96.1,224.1,95.4,224.3z"/>
			</g>
			<g>
				<circle class="st17" cx="14.2" cy="248.8" r="12.9"/>
			</g>
			<g>
				<circle class="st13" cx="13.5" cy="245" r="3.7"/>
			</g>
			<g>
				<path class="st16" d="M18.2,251.8l-6.9,1.2c-2.9,0.5-4.8,3.3-4.3,6.1l0.1,0.5c2.6,1.7,5.9,2.5,9.3,1.9c3.3-0.6,6.2-2.4,8.1-4.9
					l-0.1-0.5C23.9,253.3,21.1,251.3,18.2,251.8z"/>
			</g>
			<g>
				<path class="st1" d="M16.6,262.8c-7.7,1.4-15.1-3.8-16.4-11.5c-1.4-7.7,3.8-15.1,11.5-16.4s15.1,3.8,16.4,11.5
					S24.3,261.4,16.6,262.8z M12.1,237.3c-6.4,1.1-10.6,7.2-9.5,13.6s7.2,10.6,13.6,9.5c6.4-1.1,10.6-7.2,9.5-13.6
					C24.6,240.4,18.5,236.2,12.1,237.3z"/>
			</g>
			<g>
				<path class="st1" d="M14.3,249.8c-2.7,0.5-5.2-1.3-5.7-4c-0.5-2.7,1.3-5.2,4-5.7c2.7-0.5,5.2,1.3,5.7,4
					C18.8,246.8,17,249.3,14.3,249.8z M13.1,242.6c-1.3,0.2-2.2,1.5-2,2.8c0.2,1.3,1.5,2.2,2.8,2c1.3-0.2,2.2-1.5,2-2.8
					C15.7,243.2,14.4,242.3,13.1,242.6z"/>
			</g>
			<g>
				<path class="st1" d="M7.3,260.6c-0.7,0.1-1.3-0.3-1.4-1l0-0.2c-0.6-3.5,1.7-6.9,5.3-7.6l6.9-1.2c3.5-0.6,6.9,1.7,7.6,5.3l0,0.2
					c0.1,0.7-0.3,1.3-1,1.4s-1.3-0.3-1.4-1l0-0.2c-0.4-2.2-2.5-3.7-4.7-3.3l-6.9,1.2c-2.2,0.4-3.7,2.5-3.3,4.7l0,0.2
					C8.4,259.9,8,260.5,7.3,260.6z"/>
			</g>
			<g>
				<circle class="st16" cx="118.7" cy="286.1" r="10"/>
			</g>
			<g>
				<circle class="st13" cx="118.2" cy="283.2" r="2.8"/>
			</g>
			<g>
				<path class="st17" d="M121.9,288.5l-5.3,0.9c-2.2,0.4-3.7,2.5-3.3,4.8l0.1,0.4c2.1,1.3,4.6,1.9,7.2,1.4c2.6-0.5,4.8-1.9,6.3-3.8
					l-0.1-0.4C126.3,289.6,124.1,288.1,121.9,288.5L121.9,288.5z"/>
			</g>
			<g>
				<path class="st1" d="M120.7,297.2c-6.1,1.1-12-3-13.1-9.1c-1.1-6.1,3-12,9.1-13.1s12,3,13.1,9.1
					C130.9,290.3,126.8,296.2,120.7,297.2z M117.2,277.5c-4.8,0.8-8,5.4-7.2,10.2c0.8,4.8,5.4,8,10.2,7.2c4.8-0.8,8-5.4,7.2-10.2
					S122,276.6,117.2,277.5z"/>
			</g>
			<g>
				<path class="st1" d="M118.9,287.2c-2.2,0.4-4.3-1.1-4.7-3.3c-0.4-2.2,1.1-4.3,3.3-4.7s4.3,1.1,4.7,3.3
					C122.6,284.7,121.1,286.8,118.9,287.2z M117.9,281.6c-0.9,0.2-1.5,1-1.3,1.9s1,1.5,1.9,1.3c0.9-0.2,1.5-1,1.3-1.9
					C119.6,282,118.8,281.4,117.9,281.6z"/>
			</g>
			<g>
				<path class="st1" d="M113.5,295.6c-0.7,0.1-1.3-0.3-1.4-1l0-0.2c-0.5-2.9,1.4-5.7,4.3-6.2l5.3-0.9c2.9-0.5,5.7,1.4,6.2,4.3
					l0,0.2c0.1,0.7-0.3,1.3-1,1.4c-0.7,0.1-1.3-0.3-1.4-1l0-0.2c-0.3-1.6-1.8-2.6-3.4-2.3l-5.3,0.9c-1.6,0.3-2.6,1.8-2.3,3.4l0,0.2
					C114.6,294.8,114.1,295.5,113.5,295.6z"/>
			</g>
			<g>
				<g>
					<g>
						<path class="st16" d="M106.5,229.5c-2.2,0-4.2-1.4-5-3.4c0-0.1-0.2-0.1-0.2,0c-0.1,2.2-1.4,4.2-3.5,4.9c-0.1,0-0.1,0.2,0,0.2
							c2.2,0,4.2,1.4,5,3.4c0,0.1,0.2,0.1,0.2,0c0.1-2.2,1.4-4.2,3.5-4.9C106.6,229.6,106.6,229.4,106.5,229.5z"/>
					</g>
				</g>
			</g>
			<g>
				<path class="st1" d="M54,304.4c-0.2,0-0.4,0-0.6-0.1c-0.6-0.2-1-0.9-0.7-1.6l3.2-8.9c0.2-0.6,0.9-1,1.6-0.7
					c0.6,0.2,1,0.9,0.7,1.6l-3.2,8.9C54.7,304.1,54.4,304.4,54,304.4L54,304.4z"/>
			</g>
			<g>
				<circle class="st18" cx="48.5" cy="317.9" r="15.2"/>
			</g>
			<g>
				<circle class="st13" cx="47.6" cy="313" r="4.9"/>
			</g>
			<g>
				<path class="st19" d="M53.2,321.4l-8.1,1.4c-3.4,0.6-5.6,3.8-5,7.2l0.1,0.6c3.1,2,6.9,2.9,10.9,2.2c3.9-0.7,7.2-2.8,9.4-5.8
					l-0.1-0.6C59.8,323.1,56.6,320.8,53.2,321.4L53.2,321.4z"/>
			</g>
			<g>
				<path class="st1" d="M51.3,334c-8.9,1.6-17.4-4.4-19-13.3c-1.6-8.9,4.4-17.4,13.3-19c8.9-1.6,17.4,4.4,19,13.3
					S60.2,332.5,51.3,334z M46,304.1c-7.6,1.3-12.7,8.6-11.3,16.2c1.3,7.6,8.6,12.7,16.2,11.3c7.6-1.3,12.7-8.6,11.3-16.2
					S53.6,302.8,46,304.1z"/>
			</g>
			<g>
				<path class="st1" d="M48.7,319.1c-3.3,0.6-6.5-1.6-7.1-5c-0.6-3.3,1.6-6.5,5-7.1c3.3-0.6,6.5,1.6,7.1,5
					C54.2,315.3,52,318.5,48.7,319.1z M47,309.4c-2,0.4-3.4,2.3-3,4.3c0.4,2,2.3,3.4,4.3,3c2-0.4,3.4-2.3,3-4.3
					C50.9,310.4,49,309,47,309.4z"/>
			</g>
			<g>
				<path class="st1" d="M60.7,328c-0.7,0.1-1.3-0.3-1.4-1l-0.1-0.4c-0.5-2.7-3.1-4.5-5.8-4l-8.1,1.4c-2.7,0.5-4.5,3.1-4,5.8
					l0.1,0.3c0.1,0.7-0.3,1.3-1,1.4c-0.7,0.1-1.3-0.3-1.4-1l-0.1-0.3c-0.7-4,2-7.9,6-8.6l8.1-1.4c4-0.7,7.9,2,8.6,6l0.1,0.4
					C61.8,327.2,61.4,327.9,60.7,328z"/>
			</g>
			<g>
				<g>
					<g>
						<path class="st17" d="M73.2,306.3c-1.1,0-2.1-0.7-2.5-1.7c0,0-0.1,0-0.1,0c0,1.1-0.7,2.1-1.8,2.5c0,0,0,0.1,0,0.1
							c1.1,0,2.1,0.7,2.5,1.7c0,0,0.1,0,0.1,0C71.5,307.7,72.2,306.7,73.2,306.3C73.2,306.3,73.2,306.3,73.2,306.3z"/>
					</g>
				</g>
			</g>
			<g>
				<g>
					<g>
						<circle class="st18" cx="27.2" cy="288.9" r="1.7"/>
					</g>
				</g>
			</g>
			<g>
				<g>
					<g>
						<circle class="st17" cx="96.7" cy="241.4" r="1.7"/>
					</g>
				</g>
			</g>
			<g>
				<g>
					<g>
						<path class="st15" d="M26.8,300.9l-1.1,0.2l-0.2-1.1c-0.1-0.8-0.9-1.4-1.8-1.3s-1.4,0.9-1.3,1.8l0.2,1.1l-1.1,0.2
							c-0.8,0.1-1.4,0.9-1.3,1.8c0.2,0.9,0.9,1.4,1.8,1.3l1.1-0.2l0.2,1.1c0.1,0.8,0.9,1.4,1.8,1.3c0.9-0.2,1.4-0.9,1.3-1.8
							l-0.2-1.1l1.1-0.2c0.8-0.1,1.4-0.9,1.3-1.8C28.5,301.3,27.7,300.7,26.8,300.9z"/>
					</g>
				</g>
			</g>
			<g>
				<path class="st1" d="M71.6,296c-15.5,2.7-30.4-7.6-33.1-23.2s7.6-30.4,23.2-33.1c15.5-2.7,30.4,7.6,33.1,23.2
					C97.5,278.4,87.1,293.2,71.6,296z M62.1,242.1c-14.2,2.5-23.7,16.1-21.2,30.3c2.5,14.2,16.1,23.7,30.3,21.2s23.7-16.1,21.2-30.3
					C89.9,249.1,76.3,239.6,62.1,242.1z"/>
			</g>
		</g>
	</g>
	<g>
		<path class="st20" d="M39.6,531.5L2,457.3c-1.2-2.3-0.2-5.2,2.1-6.4L84,410.4c2.3-1.2,5.2-0.2,6.4,2.1l37.6,74.2
			c1.2,2.3,0.2,5.2-2.1,6.4L46,533.6C43.6,534.8,40.8,533.8,39.6,531.5z"/>
		<path class="st21" d="M2,457.3l37.6,74.2c1.2,2.3,4,3.3,6.4,2.1l6.2-3.2c-2.3,1.2-5.2,0.2-6.4-2.1L8.2,454.1
			c-1.2-2.3-0.2-5.2,2.1-6.4l-6.2,3.2C1.8,452.1,0.8,455,2,457.3z"/>
		<path class="st22" d="M90.4,412.5c-1.2-2.3-4-3.3-6.4-2.1L4.1,450.9c-2.3,1.2-3.3,4-2.1,6.4L7.9,469l88.4-44.8L90.4,412.5z"/>
		<path class="st23" d="M2,457.3L7.9,469l6.2-3.2l-5.9-11.7c-1.2-2.3-0.2-5.2,2.1-6.4l-6.2,3.2C1.8,452.1,0.8,455,2,457.3z"/>
		<path class="st24" d="M80.1,418.5c1.7-0.9,3.9-0.2,4.7,1.5c0.9,1.7,0.2,3.9-1.5,4.7c-1.7,0.9-3.9,0.2-4.7-1.5
			C77.7,421.5,78.3,419.3,80.1,418.5z"/>
		<path class="st25" d="M69.5,423.9c1.7-0.9,3.9-0.2,4.7,1.5c0.9,1.7,0.2,3.9-1.5,4.7c-1.7,0.9-3.9,0.2-4.7-1.5
			C67,426.9,67.7,424.7,69.5,423.9z"/>
		<path class="st26" d="M58.8,429.2c1.7-0.9,3.9-0.2,4.7,1.5c0.9,1.7,0.2,3.9-1.5,4.7c-1.7,0.9-3.9,0.2-4.7-1.5
			C56.4,432.2,57.1,430.1,58.8,429.2z"/>
		<path class="st22" d="M70.9,494.7c0.4-1.3,1.8-2,3.1-1.6l9.5,3.1c5.6,1.8,11.7-1.2,13.6-6.9c1.8-5.6-1.2-11.7-6.9-13.6l-9.5-3.1
			c-5.6-1.8-11.7,1.2-13.6,6.9c-0.4,1.3-1.8,2-3.1,1.6c-1.3-0.4-2-1.8-1.6-3.1c2.7-8.2,11.5-12.7,19.7-10l9.5,3.1
			c8.2,2.7,12.7,11.5,10,19.7s-11.5,12.7-19.7,10l-9.5-3.1C71.2,497.4,70.5,496,70.9,494.7z"/>
		<path class="st23" d="M70.9,494.7c-0.4,1.3,0.3,2.7,1.6,3.1l9.5,3.1c8.2,2.7,17-1.8,19.7-10c0.6-1.8,0.8-3.6,0.8-5.4
			c-0.1,0.7-0.3,1.4-0.5,2.1c-2.7,8.2-11.5,12.7-19.7,10l-9.5-3.1c-0.5-0.2-0.8-0.4-1.1-0.8C71.2,493.9,71,494.3,70.9,494.7z"/>
		<path class="st22" d="M36.6,469.4c2.7-8.2,11.5-12.7,19.7-10l9.5,3.1c1.3,0.4,2,1.8,1.6,3.1c-0.4,1.3-1.8,2-3.1,1.6l-9.5-3.1
			c-5.6-1.8-11.7,1.2-13.6,6.9c-1.8,5.6,1.2,11.7,6.9,13.6l9.5,3.1c5.6,1.8,11.7-1.2,13.6-6.9c0.4-1.3,1.8-2,3.1-1.6
			c1.3,0.4,2,1.8,1.6,3.1c-2.7,8.2-11.5,12.7-19.7,10l-9.5-3.1C38.4,486.5,33.9,477.6,36.6,469.4z"/>
		<path class="st23" d="M46.6,489.1l9.5,3.1c5.7,1.9,11.6,0.3,15.7-3.6c-3.4,1.5-7.4,1.8-11.2,0.6l-9.5-3.1
			c-1.6-0.5-3.1-1.3-4.4-2.2c-3.5-1.7-5.7-5.1-5.9-8.9c-0.7-2.8-0.6-5.7,0.3-8.6c0.8-2.5,2.2-4.7,4-6.4c-3.9,1.7-7.1,5-8.5,9.4
			C33.9,477.6,38.4,486.5,46.6,489.1z"/>
		<path class="st1" d="M77.8,423.6c-1.1-2.2-0.2-4.8,1.9-5.9c2.2-1.1,4.8-0.2,5.9,1.9c1.1,2.2,0.2,4.8-1.9,5.9
			C81.5,426.6,78.9,425.7,77.8,423.6z M79.3,422.8c0.7,1.3,2.3,1.8,3.6,1.2c1.3-0.7,1.8-2.3,1.2-3.6c-0.7-1.3-2.3-1.8-3.6-1.2
			C79.2,419.9,78.6,421.5,79.3,422.8z"/>
		<path class="st1" d="M67.1,429c-1.1-2.2-0.2-4.8,1.9-5.9c2.2-1.1,4.8-0.2,5.9,1.9c1.1,2.2,0.2,4.8-1.9,5.9
			C70.9,432,68.2,431.1,67.1,429z M68.7,428.2c0.7,1.3,2.3,1.8,3.6,1.2c1.3-0.7,1.8-2.3,1.2-3.6c-0.7-1.3-2.3-1.8-3.6-1.2
			C68.5,425.3,68,426.9,68.7,428.2z"/>
		<path class="st1" d="M56.5,434.4c-1.1-2.2-0.2-4.8,1.9-5.9c2.2-1.1,4.8-0.2,5.9,1.9c1.1,2.2,0.2,4.8-1.9,5.9
			C60.2,437.4,57.6,436.5,56.5,434.4z M58,433.6c0.7,1.3,2.3,1.8,3.6,1.2c1.3-0.7,1.8-2.3,1.2-3.6s-2.3-1.8-3.6-1.2
			C57.9,430.7,57.4,432.3,58,433.6z"/>
		<path class="st1" d="M47,439.2c-0.4-0.7-1.3-1-2-0.7L12.5,455c-0.7,0.4-1,1.3-0.7,2c0.4,0.7,1.3,1,2,0.7l32.5-16.5
			C47.1,440.8,47.4,439.9,47,439.2z"/>
		<path class="st1" d="M0.7,458l37.6,74.2c1.6,3.1,5.3,4.3,8.4,2.7l79.9-40.5c3.1-1.6,4.3-5.3,2.7-8.4l-37.6-74.2
			c-1.5-3.1-5.3-4.3-8.4-2.7L3.4,449.6C0.4,451.1-0.9,454.9,0.7,458z M40.9,530.8l-31-61.2l73.3-37.1c0.7-0.4,1-1.3,0.7-2
			c-0.4-0.7-1.3-1-2-0.7L8.6,467l-5.2-10.3c-0.8-1.6-0.2-3.6,1.4-4.4l79.9-40.5c1.6-0.8,3.6-0.2,4.4,1.4l5.2,10.3l-7.4,3.8
			c-0.7,0.4-1,1.3-0.7,2c0.4,0.7,1.3,1,2,0.7l7.4-3.8l31,61.2c0.8,1.6,0.2,3.6-1.4,4.4l-79.9,40.5C43.7,533.1,41.7,532.4,40.9,530.8
			z"/>
		<path class="st1" d="M55.8,493.1l-9.5-3.1c-8.6-2.8-13.4-12.2-10.5-20.8c1.4-4.2,4.3-7.6,8.2-9.6c3.9-2,8.4-2.3,12.6-1l9.5,3.1
			c0.8,0.3,1.5,0.9,1.9,1.6s0.5,1.7,0.2,2.5c-0.3,0.8-0.9,1.5-1.6,1.9c-0.8,0.4-1.7,0.5-2.5,0.2l-9.5-3.1c-2.5-0.8-5.2-0.6-7.5,0.6
			c-2.4,1.2-4.1,3.2-4.9,5.7c-1.7,5.2,1.1,10.8,6.3,12.5l9.5,3.1c2.5,0.8,5.2,0.6,7.5-0.6c2.4-1.2,4.1-3.2,4.9-5.7
			c0.3-0.8,0.9-1.5,1.6-1.9c0.8-0.4,1.7-0.5,2.5-0.2c1.7,0.6,2.7,2.4,2.1,4.2c-1.4,4.2-4.3,7.6-8.2,9.6
			C64.5,494.1,60,494.4,55.8,493.1z M72,481c-1,2.9-3,5.3-5.8,6.7c-2.8,1.4-5.9,1.6-8.9,0.7l-9.5-3.1c-6.1-2-9.4-8.6-7.4-14.6
			c1-2.9,3-5.3,5.8-6.7c2.8-1.4,5.9-1.6,8.9-0.7l9.5,3.1c0.4,0.1,0.8,0.1,1.2-0.1c0.4-0.2,0.7-0.5,0.8-0.9c0.3-0.8-0.2-1.7-1-2
			l-9.5-3.1c-3.7-1.2-7.7-0.9-11.3,0.9c-3.5,1.8-6.1,4.8-7.4,8.6c-1.2,3.7-0.9,7.7,0.9,11.3c1.8,3.5,4.8,6.1,8.6,7.4l9.5,3.1
			c3.7,1.2,7.7,0.9,11.3-0.9c3.5-1.8,6.1-4.8,7.4-8.6c0.3-0.8-0.2-1.7-1-2c-0.4-0.1-0.8-0.1-1.2,0.1C72.4,480.3,72.1,480.6,72,481z"
			/>
		<path class="st1" d="M94.3,500.7c0.5-0.3,1-0.5,1.4-0.8c3.2-2,5.6-5.1,6.8-8.7c2.8-8.6-1.9-18-10.5-20.8l-9.5-3.1
			c-4.2-1.4-8.6-1-12.6,1c-3.9,2-6.9,5.4-8.2,9.6c-0.3,0.8-0.2,1.7,0.2,2.5c0.4,0.8,1.1,1.4,1.9,1.6c0.8,0.3,1.7,0.2,2.5-0.2
			c0.8-0.4,1.4-1.1,1.6-1.9c0.8-2.5,2.6-4.5,4.9-5.7s5-1.4,7.5-0.6l9.5,3.1c2.5,0.8,4.5,2.6,5.7,4.9c1.2,2.4,1.4,5,0.6,7.5
			c-0.8,2.5-2.6,4.5-4.9,5.7c-2.4,1.2-5,1.4-7.5,0.6l-9.5-3.1c-0.8-0.3-1.7-0.2-2.5,0.2c-0.8,0.4-1.4,1.1-1.6,1.9
			c-0.3,0.8-0.2,1.7,0.2,2.5c0.4,0.8,1.1,1.4,1.9,1.6l7.4,2.4c0.2,0.1,0.4,0.1,0.7,0c0.2-0.1,0.4-0.3,0.4-0.5
			c0.1-0.4-0.1-0.9-0.5-1.1l-7.4-2.4c-0.8-0.3-1.3-1.2-1-2c0.1-0.4,0.4-0.7,0.8-0.9c0.4-0.2,0.8-0.2,1.2-0.1l9.5,3.1
			c2.9,1,6.1,0.7,8.9-0.7c2.8-1.4,4.8-3.8,5.8-6.7c1-2.9,0.7-6.1-0.7-8.9c-1.4-2.8-3.8-4.8-6.7-5.8l-9.5-3.1c-2.9-1-6.1-0.7-8.9,0.7
			c-2.8,1.4-4.8,3.8-5.8,6.7c-0.1,0.4-0.4,0.7-0.8,0.9c-0.4,0.2-0.8,0.2-1.2,0.1c-0.8-0.3-1.3-1.2-1-2c1.2-3.7,3.8-6.8,7.4-8.6
			c3.5-1.8,7.5-2.1,11.3-0.9l9.5,3.1c7.7,2.5,12,10.9,9.4,18.6c-1.2,3.7-3.9,6.8-7.4,8.6c0,0,0,0,0,0c-2.5,1.3-5.3,1.8-8.1,1.5
			c-0.2,0-0.3,0-0.5,0.1c-0.3,0.1-0.4,0.4-0.5,0.7c0,0.2,0,0.5,0.2,0.6c0.1,0.2,0.3,0.3,0.6,0.3C88.3,502.8,91.4,502.2,94.3,500.7z"
			/>
	</g>
</g>
</svg>
