<?xml version="1.0" encoding="utf-8"?>
<!-- Generator: Adobe Illustrator 25.0.0, SVG Export Plug-In . SVG Version: 6.00 Build 0)  -->
<svg version="1.1" id="Layer_1" xmlns="http://www.w3.org/2000/svg" xmlns:xlink="http://www.w3.org/1999/xlink" x="0px" y="0px"
	 viewBox="0 0 430.6 430" style="enable-background:new 0 0 430.6 430;" xml:space="preserve">
<style type="text/css">
	.st0{fill:#EFEFEF;}
	.st1{fill:#FFDC8D;}
	.st2{fill:#E8C57E;}
	.st3{fill:#CCCCCC;}
	.st4{fill:#78CAEF;}
	.st5{fill:#35414D;}
	.st6{clip-path:url(#SVGID_2_);}
	.st7{fill:#FBBC05;}
	.st8{fill:#4285F4;}
	.st9{fill:none;stroke:#35414D;stroke-width:5;stroke-linecap:round;stroke-linejoin:round;stroke-miterlimit:13.3333;}
</style>
<g>
	<path class="st0" d="M168.9,38.4h16.3c8,0,14.5,6.5,14.5,14.5c0,4-1.6,7.6-4.3,10.3c-2.6,2.6-6.3,4.3-10.3,4.3H174"/>
	<path class="st0" d="M174,67.5h11.2c8,0,14.5,6.5,14.5,14.5c0,4-1.6,7.6-4.3,10.3c-2.6,2.6-6.3,4.3-10.3,4.3h-9"/>
	<path class="st1" d="M63.4,133.5V61.7c0-30.5,24.8-55.3,55.3-55.3l0,0c30.5,0,55.3,24.8,55.3,55.3v28.1l26.8,83.2H174v15.2
		c0,29.6-24,53.5-53.5,53.5h-1.8c-30.5,0-55.3-24.8-55.3-55.3v-13.5"/>
	<path class="st2" d="M80.9,186.3v-13.5v-39.3V61.7c0-27.6,20.2-50.4,46.6-54.6c-2.8-0.5-5.8-0.7-8.7-0.7l0,0
		c-30.5,0-55.3,24.8-55.3,55.3v71.8v39.3v13.5c0,30.5,24.8,55.3,55.3,55.3h1.8c2.6,0,5.2-0.2,7.8-0.6
		C101.5,237.2,80.9,214.1,80.9,186.3z"/>
	<path class="st2" d="M75.8,139.2c-7.7-7.7-20.2-7.7-27.9,0s-7.7,20.2,0,27.9c7.7,7.7,20.2,7.7,27.9,0"/>
	<path class="st0" d="M200.4,323.3c0,11.6-2.4,34.7-6.8,62.7c-1.7,13.8-2.8,26.4-3.3,37.6H48.2c-1-12.5-2.4-25.6-4.4-37.6
		c-4.4-28-6.8-51.2-6.8-62.7c0-45.1,36.6-81.7,81.7-81.7C163.9,241.6,200.4,278.2,200.4,323.3z"/>
	<path class="st3" d="M70.3,323.3c0,11.6,1.4,34.7,4,62.7c1.2,12,2,25,2.6,37.6H48.2c-1-12.5-2.4-25.6-4.4-37.6
		c-4.4-28-6.8-51.2-6.8-62.7c0-45.1,36.6-81.7,81.7-81.7C92,241.6,70.3,278.2,70.3,323.3z"/>
	<circle class="st4" cx="139.9" cy="131.4" r="22.7"/>
	<circle class="st4" cx="211.7" cy="131.4" r="22.7"/>
	<path class="st0" d="M94.1,38.4H37.8c-8,0-14.5,6.5-14.5,14.5l0,0c0,8,6.5,14.5,14.5,14.5h56.2"/>
	<g>
		<path class="st0" d="M94.1,67.5H46.4c-8,0-14.5,6.5-14.5,14.5l0,0c0,8,6.5,14.5,14.5,14.5h47.7"/>
	</g>
	<path class="st5" d="M182.3,327.1c0-3.5-2.9-6.4-6.4-6.4h-26.2c-3.5,0-6.4,2.9-6.4,6.4c0,3.5,2.9,6.4,6.4,6.4h26.2
		C179.4,333.5,182.3,330.7,182.3,327.1z"/>
	<path class="st5" d="M123.1,197.9c7.7,3.9,14.1,5.3,19.2,5.3c11.4,0,16.6-6.7,16.9-7.1c2.1-2.8,1.5-6.8-1.3-8.9
		c-2.8-2.1-6.8-1.5-8.9,1.3c0,0.1-5.5,5.6-20.2-1.9c-3.1-1.6-7-0.3-8.6,2.8C118.6,192.5,119.9,196.3,123.1,197.9z"/>
	<path class="st5" d="M342.5,78.4l0.2,17.7c0,3.5,2.9,6.3,6.4,6.3c0,0,0.1,0,0.1,0c3.5,0,6.3-3,6.3-6.5l-0.2-11.5
		c1.9,2.3,3.5,5.2,4.8,8.7c1.3,3.3,4.9,5,8.2,3.7c3.3-1.3,5-4.9,3.7-8.2c-4.4-11.5-11.5-19-21.3-22.2c-10.6-3.5-24.9,2.9-43.8,19.8
		c-14.9,13.3-32.7,33.1-51.2,57.1c-32.1,41.6-61,88.3-73.9,118.8c-9.1-9.4-20.2-16.7-32.7-21.3c18.6-10.2,31.2-29.9,31.2-52.6v-8.8
		h20.4c2,0,4-1,5.2-2.6c1.2-1.7,1.5-3.8,0.9-5.7l-3.8-11.7c2.7,0.8,5.6,1.3,8.5,1.3c16,0,29.1-13,29.1-29.1s-13-29.1-29.1-29.1
		c-9.4,0-17.9,4.5-23.2,11.5l-3.5-10.9h0.2c5.6,0,10.9-2.2,14.8-6.1c4-3.9,6.1-9.2,6.1-14.8c0-5.6-2.3-10.8-5.9-14.5
		c3.8-3.9,5.9-9.1,5.9-14.5c0-11.5-9.4-20.9-20.9-20.9h-12.4c-2.8-5.1-6.3-9.7-10.5-13.9C150.7,6.4,135.2,0,118.7,0
		C96.2,0,75.4,12.4,64.6,32H37.8c-11.5,0-20.9,9.4-20.9,20.9c0,8.1,4.6,15.1,11.3,18.6c-1.8,3.1-2.8,6.7-2.8,10.5
		c0,11.5,9.4,20.9,20.9,20.9h47.7c3.5,0,6.4-2.9,6.4-6.4s-2.9-6.4-6.4-6.4H46.4c-4.5,0-8.2-3.7-8.2-8.2c0-4.5,3.7-8.2,8.2-8.2h47.7
		c3.5,0,6.4-2.9,6.4-6.4s-2.9-6.4-6.4-6.4H46.4h-8.5c-4.5,0-8.2-3.7-8.2-8.2s3.7-8.2,8.2-8.2h56.2c3.5,0,6.4-2.9,6.4-6.4
		c0-3.5-2.9-6.4-6.4-6.4H79.9c9.1-11.9,23.5-19.2,38.9-19.2c13.1,0,25.3,5.1,34.6,14.3c9.2,9.2,14.3,21.5,14.3,34.6v28.1
		c0,0.7,0.1,1.3,0.3,2l10.7,33.3h-10.4c-2.9-13-14.5-22.7-28.4-22.7s-25.4,9.7-28.4,22.7h-17c-3.5,0-6.4,2.9-6.4,6.4
		c0,3.5,2.9,6.4,6.4,6.4h17c2.9,13,14.5,22.7,28.4,22.7c13.8,0,25.4-9.7,28.4-22.7h14.5l9.3,28.7h-18c-3.5,0-6.4,2.9-6.4,6.4v15.2
		c0,26-21.1,47.1-47.1,47.1h-1.8c-27,0-48.9-21.9-48.9-48.9V178c3.8-1.2,7.4-3.3,10.5-6.4c2.5-2.5,2.5-6.5,0-9c-2.5-2.5-6.5-2.5-9,0
		c-5.2,5.2-13.6,5.2-18.8,0c-5.2-5.2-5.2-13.6,0-18.8c5.2-5.2,13.6-5.2,18.8,0c2.5,2.5,6.5,2.5,9,0c2.5-2.5,2.5-6.5,0-9
		c-3-3-6.6-5.2-10.5-6.4v-13c0-3.5-2.9-6.4-6.4-6.4c-3.5,0-6.4,2.9-6.4,6.4v12.2c-5,0.9-9.8,3.3-13.6,7.2
		c-10.2,10.2-10.2,26.7,0,36.9c3.9,3.9,8.6,6.3,13.6,7.2v7.6c0,23.3,12.9,43.5,32,54c-8.2,2.9-15.8,7-22.7,12.1
		c-0.1,0.1-0.2,0.1-0.3,0.2c-6,1.8-18.8,6.7-31.6,17.6C18.8,283.7,0,309.2,0,354.7c0,19.3,2.4,42.8,7.3,70.1
		c0.5,3.1,3.2,5.3,6.3,5.3c0.4,0,0.7,0,1.1-0.1c3.5-0.6,5.8-3.9,5.2-7.4c-4.7-26.5-7.1-49.3-7.1-67.8c0-31.7,9.6-56.4,28.5-73.3
		c-6.8,12.5-10.7,26.8-10.7,42c0,10.3,1.8,29,5,51.2l3.4,23c1.1,8.1,2,17,2.8,26.6c0.3,3.3,3,5.9,6.4,5.9h91.2
		c3.5,0,6.4-2.9,6.4-6.4c0-3.5-2.9-6.4-6.4-6.4h-14.3V265.9l13.4,23.8c1,1.8,2.9,3,5,3.2c0.2,0,0.4,0,0.6,0c1.9,0,3.7-0.8,4.9-2.3
		l19.6-23.6c15.6,13.8,25.4,33.9,25.4,56.3c0,11.6-2.6,35.3-6.7,61.8c0,0.1,0,0.1,0,0.2c-1.3,10.8-2.4,21.5-3,32h-23.6
		c-3.5,0-6.4,2.9-6.4,6.4c0,3.5,2.9,6.4,6.4,6.4h29.6c3.4,0,6.2-2.7,6.4-6.1c0.6-12,1.7-24.5,3.3-37c4.3-27.5,6.8-51.3,6.8-63.6
		c0-18.6-5.8-35.8-15.6-50.1c10.5-28.4,41.3-79,74.7-122.3c18.1-23.5,35.2-42.6,49.6-55.4C329.6,83.1,337.9,79.3,342.5,78.4z
		 M139.9,147.7c-9,0-16.3-7.3-16.3-16.3c0-9,7.3-16.3,16.3-16.3s16.3,7.3,16.3,16.3C156.2,140.4,148.9,147.7,139.9,147.7z
		 M211.7,115.1c9,0,16.3,7.3,16.3,16.3c0,9-7.3,16.3-16.3,16.3s-16.3-7.3-16.3-16.3C195.4,122.4,202.7,115.1,211.7,115.1z M191,87.8
		c-1.5,1.5-3.6,2.4-5.8,2.4h-4.3l-0.5-1.4V73.9h4.8c4.5,0,8.2,3.7,8.2,8.2C193.4,84.2,192.5,86.2,191,87.8z M185.2,44.8
		c4.5,0,8.2,3.7,8.2,8.2c0,2.2-0.8,4.2-2.4,5.8c-1.5,1.5-3.6,2.4-5.8,2.4h-4.8c-0.1-5.6-0.8-11.1-2.3-16.3H185.2z M107.3,248.8
		l-15,26.5l-13.3-16C87.5,254,97,250.4,107.3,248.8z M54.1,417.2c-0.7-7.7-1.5-14.9-2.4-21.5c0,0,0-0.1,0-0.1l-3.4-23
		c-3.1-21.6-4.8-39.6-4.8-49.4c0-22.4,9.8-42.5,25.4-56.3l19.6,23.6c1.3,1.6,3.4,2.5,5.5,2.3c2.1-0.2,4-1.4,5-3.2l13.4-23.8v151.3
		L54.1,417.2L54.1,417.2z M145.1,275.3l-15-26.5c10.2,1.6,19.8,5.2,28.2,10.5L145.1,275.3z"/>
	<path class="st5" d="M359.9,106.8c-3.5,0-6.4,2.2-6.4,4.8v141.5c0,2.7,2.9,4.8,6.4,4.8c3.5,0,6.4-2.2,6.4-4.8V111.6
		C366.3,109,363.4,106.8,359.9,106.8z"/>
	<g id="g5160_2_" transform="matrix(1.3333333,0,0,-1.3333333,0,682.66667)">
		<g id="g5162_2_">
			<g>
				<defs>
					
						<rect id="SVGID_1_" x="219.9" y="243" transform="matrix(0.7071 -0.7071 0.7071 0.7071 -128.1179 276.6774)" width="100" height="100"/>
				</defs>
				<clipPath id="SVGID_2_">
					<use xlink:href="#SVGID_1_"  style="overflow:visible;"/>
				</clipPath>
				<g id="g5164_2_" class="st6">
					<g id="g5170_2_" transform="translate(247.21,328.7803)">
						<path id="path5172_2_" class="st7" d="M29.3-27.3c1.7-3.1,2.4-6.6,2.1-9.8c0,0,0,0,0,0c0-0.6-0.1-1.2-0.2-1.8l0,0
							c-0.1-0.5-0.3-1.2-0.4-1.6c0,0,0,0,0,0c-0.4-1.3-0.9-2.5-1.5-3.8c0,0,0,0,0,0c-3-5.5-8.8-9.1-15.4-9.1l-17.3,0
							c-9.7,0-17.6,7.9-17.6,17.6c0,9.7,7.9,17.6,17.6,17.6l17.3,0c3.2,0,6.2-0.9,8.8-2.4c-1.3-0.8-2.6-1.7-3.6-2.8
							c-1.2-1.2-2.2-2.5-3-3.9c-0.7,0.2-1.4,0.3-2.2,0.3l-17.3,0c-4.8,0-8.8-3.9-8.8-8.8c0-4.8,3.9-8.8,8.8-8.8l17.3,0
							c4.8,0,8.8,3.9,8.8,8.8C22.7-31.7,25.5-28.3,29.3-27.3C29.3-27.3,29.3-27.3,29.3-27.3"/>
					</g>
					<g id="g5174_2_" transform="translate(466.8496,466.8496)">
						<path id="path5176_2_" class="st8" d="M-153.2-173.9c0,9.7-7.9,17.6-17.6,17.6l-17.3,0c-9.7,0-17.6-7.8-17.6-17.6
							c0-3.1,0.8-6,2.2-8.5c3.8,1,6.6,4.4,6.6,8.5c0,4.8,3.9,8.8,8.8,8.8l17.6,0l0,0c4.7-0.2,8.5-4,8.5-8.8c0-4.8-3.9-8.8-8.8-8.8
							l-17.3,0c-0.8,0-1.5,0.1-2.2,0.3c-0.8-1.4-1.8-2.8-3-3.9c-1.1-1.1-2.3-2-3.6-2.8c2.6-1.5,5.6-2.4,8.8-2.4l17.3,0
							C-161.1-191.4-153.2-183.6-153.2-173.9"/>
					</g>
					<g id="g5178_2_" transform="translate(246.7451,328.9209)">
						<path id="path5180_2_" class="st9" d="M29.8-27.4c1.4-2.5,2.2-5.4,2.2-8.5c0-9.7-7.9-17.6-17.6-17.6l-17.3,0
							c-9.7,0-17.6,7.9-17.6,17.6c0,9.7,7.9,17.6,17.6,17.6h17.3c3.2,0,6.2-0.9,8.8-2.4c-2.6,1.5-5.6,2.4-8.8,2.4H-2.9
							c-9.7,0-17.6-7.9-17.6-17.6c0-9.7,7.9-17.6,17.6-17.6l17.3,0c9.7,0,17.6,7.9,17.6,17.6C32-32.8,31.2-29.9,29.8-27.4z"/>
					</g>
					<g id="g5182_2_" transform="translate(328.9209,246.7451)">
						<path id="path5184_2_" class="st9" d="M-52.4,37.7c0.7-0.2,1.4-0.3,2.2-0.3l17.3,0c4.8,0,8.8,3.9,8.8,8.8c0,4.4-3.2,8-7.3,8.7
							"/>
					</g>
					<g id="g5186_2_" transform="translate(290.0762,374.9287)">
						<path id="path5188_2_" class="st9" d="M-4.3-73.1h-7.1c-4.8,0-8.8-3.9-8.8-8.8c0-4.8-3.9-8.8-8.8-8.8l-17.3,0
							c-4.8,0-8.8,3.9-8.8,8.8c0,4.8,3.9,8.8,8.8,8.8l17.3,0c0.8,0,1.5-0.1,2.2-0.3"/>
					</g>
					<g id="g5190_2_" transform="translate(265.2549,183.0791)">
						<path id="path5192_2_" class="st9" d="M-1.9,101.4c-1.4,2.5-2.2,5.4-2.2,8.5c0,9.7,7.9,17.6,17.6,17.6l17.3,0
							c9.7,0,17.6-7.9,17.6-17.6c0-9.7-7.9-17.6-17.6-17.6H13.5c-3.2,0-6.2,0.9-8.8,2.4c2.6-1.5,5.6-2.4,8.8-2.4h17.3
							c9.7,0,17.6,7.9,17.6,17.6c0,9.7-7.9,17.6-17.6,17.6l-17.3,0c-9.7,0-17.6-7.9-17.6-17.6C-4.1,106.8-3.3,103.9-1.9,101.4z"/>
					</g>
					<g id="g5194_2_" transform="translate(325.4316,396.1416)">
						<path id="path5196_2_" class="st5" d="M-33.8-95.8c-0.8,0-1.5,0.7-1.5,1.5c0,0.8,0.7,1.5,1.5,1.5c0.8,0,1.5-0.7,1.5-1.5
							C-32.3-95.2-33-95.8-33.8-95.8"/>
					</g>
					<g id="g5210_2_" transform="translate(383.2793,128.7207)">
						<path id="path5212_2_" class="st9" d="M-113.4,137.9v-8.8"/>
					</g>
					<g id="g5214_2_" transform="translate(333,95)">
						<path id="path5216_2_" class="st9" d="M-71.8,173.3l-6.2-6.2"/>
					</g>
					<g id="g5218_2_" transform="translate(417,179)">
						<path id="path5220_2_" class="st9" d="M-138.4,89.3l6.2-6.2"/>
					</g>
				</g>
			</g>
		</g>
	</g>
</g>
</svg>
