<?xml version="1.0" encoding="utf-8"?>
<!-- Generator: Adobe Illustrator 25.0.0, SVG Export Plug-In . SVG Version: 6.00 Build 0)  -->
<svg version="1.1" id="Layer_1" xmlns="http://www.w3.org/2000/svg" xmlns:xlink="http://www.w3.org/1999/xlink" x="0px" y="0px"
	 viewBox="0 0 169.2 150" style="enable-background:new 0 0 169.2 150;" xml:space="preserve">
<style type="text/css">
	.st0{clip-path:url(#SVGID_1_);}
	.st1{fill:#AA6946;}
	.st2{fill:#D68458;}
	.st3{fill:#FFF2E8;}
	.st4{fill:#FFE4CF;}
	.st5{fill:none;stroke:#35414D;stroke-width:3;stroke-linecap:round;stroke-linejoin:round;stroke-miterlimit:13.3333;}
	.st6{fill:#35414D;}
	.st7{fill:#07BEEF;}
	.st8{fill:#FC635B;}
	.st9{fill:#7EC927;}
	.st10{fill:#FFA733;}
	.st11{fill:#00B6E0;}
	.st12{fill:#F34234;}
	.st13{fill:#60A917;}
	.st14{fill:#FF9801;}
	.st15{fill:#EF6D7A;}
	.st16{fill:#3A312A;}
	.st17{fill:#D6DF58;}
	.st18{fill:#8AC5DC;}
	.st19{fill:#87796F;}
	.st20{fill-rule:evenodd;clip-rule:evenodd;fill:#FFB54C;}
	.st21{fill-rule:evenodd;clip-rule:evenodd;fill:#35414D;}
	.st22{fill-rule:evenodd;clip-rule:evenodd;fill:#FFA733;}
	.st23{fill-rule:evenodd;clip-rule:evenodd;fill:#2FB1D4;}
	.st24{fill-rule:evenodd;clip-rule:evenodd;fill:#FF5A5A;}
	.st25{fill:#FF5A5A;}
</style>
<g>
	<g>
		<g id="g1314_2_" transform="matrix(1.3333333,0,0,-1.3333333,0,682.66667)">
			<g id="g1316_2_">
				<g>
					<defs>
						<rect id="SVGID_3_" x="-2.2" y="380.8" width="128.9" height="150"/>
					</defs>
					<clipPath id="SVGID_1_">
						<use xlink:href="#SVGID_3_"  style="overflow:visible;"/>
					</clipPath>
					<g id="g1318_2_" class="st0">
						<g id="g1324_2_" transform="translate(270.2529,464.7275)">
							<path id="path1326_2_" class="st1" d="M-205.4,36.9h-5.4v6.5c0,1.2,0.8,2.2,1.9,2.2h1.6c1,0,1.9-1,1.9-2.2V36.9z"/>
						</g>
						<g id="g1328_2_" transform="translate(220.3193,436.062)">
							<path id="path1330_2_" class="st2" d="M-164.9,59.3v6.3c0,1.2,0.8,2.2,1.9,2.2h9.7c1,0,1.9-1,1.9-2.2v-6.3H-164.9z"/>
						</g>
						<g id="g1332_2_" transform="translate(118,201.7817)">
							<path id="path1334_2_" class="st3" d="M-81.9,242.1h-15.2v53.7h82.5v-53.7h-15.2H-81.9z"/>
						</g>
						<path id="path1336_2_" class="st4" d="M95.9,443.8h7.6v53.7h-7.6V443.8z"/>
						<g id="g1338_2_" transform="translate(241.7471,140.1157)">
							<path id="path1340_2_" class="st2" d="M-182.3,290.2l2.7,2.2l2.7-2.2v-26.9c0-1.2-0.8-2.2-1.9-2.2h-1.6c-1,0-1.9,1-1.9,2.2
								V290.2z"/>
						</g>
						<g id="g1342_2_" transform="translate(350.791,96.5454)">
							<path id="path1344_2_" class="st1" d="M-270.7,324.2l2.5-6.3h-41l2.6,6.3H-270.7z"/>
						</g>
						<g id="g1346_2_" transform="translate(339.2061,160.1157)">
							<path id="path1348_2_" class="st2" d="M-261.3,274.6l-2.4,2.2l-2.9-2.2l13.3-32.3c0.3-0.8,1-1.2,1.7-1.2h1.2
								c1.4,0,2.3,1.7,1.7,3.1L-261.3,274.6z"/>
						</g>
						<g id="g1350_2_" transform="translate(172.311,160.1157)">
							<path id="path1352_2_" class="st2" d="M-125.9,274.6l3.1,2.2l2.3-2.2l-13.3-32.3c-0.3-0.8-1-1.2-1.7-1.2h-1.2
								c-1.4,0-2.3,1.7-1.7,3.1L-125.9,274.6z"/>
						</g>
						<g id="g1354_2_" transform="translate(339.6895,195.7817)">
							<path id="path1356_2_" class="st1" d="M-261.7,246.7v-7.8h-5.5l-7.6-4.4h-5.4l-7.7,4.4h-5.4v7.8H-261.7z"/>
						</g>
						<g id="g1358_2_" transform="translate(385,185.7817)">
							<path id="path1360_2_" class="st2" d="M-298.5,254.5h-48.7c-0.9,0-1.7,0.9-1.7,2v3c0,1.1,0.8,2,1.7,2h48.7
								c0.9,0,1.7-0.9,1.7-2v-3C-296.8,255.4-297.5,254.5-298.5,254.5"/>
						</g>
						<g id="g1362_2_" transform="translate(118,201.7817)">
							<path id="path1364_2_" class="st5" d="M-81.9,242.1h-15.2v53.7h82.5v-53.7h-15.2"/>
						</g>
						<g id="g1366_2_" transform="translate(270.2529,474.7275)">
							<path id="path1368_2_" class="st5" d="M-205.4,29.1h-5.4v4.3c0,1.2,0.8,2.2,1.9,2.2h1.6c1,0,1.9-1,1.9-2.2V29.1z"/>
						</g>
						<g id="g1370_2_" transform="translate(220.3193,446.062)">
							<path id="path1372_2_" class="st5" d="M-164.9,51.4v4.1c0,1.2,0.8,2.2,1.9,2.2h9.7c1,0,1.9-1,1.9-2.2v-4.1"/>
						</g>
						<g id="g1374_2_" transform="translate(241.7471,96.5454)">
							<path id="path1376_2_" class="st5" d="M-182.3,324.2v9.6h5.4v-9.6"/>
						</g>
						<g id="g1378_2_" transform="translate(241.7471,67.8335)">
							<path id="path1380_2_" class="st5" d="M-182.3,346.6v-11.1c0-1.2,0.8-2.2,1.9-2.2h1.6c1,0,1.9,1,1.9,2.2v11.1"/>
						</g>
						<g id="g1382_2_" transform="translate(172.311,160.1157)">
							<path id="path1384_2_" class="st5" d="M-125.9,274.6h5.4l-13.3-32.3c-0.3-0.8-1-1.2-1.7-1.2h-1.2c-1.4,0-2.3,1.7-1.7,3.1
								L-125.9,274.6z"/>
						</g>
						<g id="g1386_2_" transform="translate(341.168,96.5454)">
							<path id="path1388_2_" class="st5" d="M-262.9,324.2l2.6-6.3h-16h-21.4l2.6,6.3H-262.9z"/>
						</g>
						<g id="g1390_2_" transform="translate(339.2061,160.1157)">
							<path id="path1392_2_" class="st5" d="M-261.3,274.6h-5.4l13.3-32.3c0.3-0.8,1-1.2,1.7-1.2h1.2c1.4,0,2.3,1.7,1.7,3.1
								L-261.3,274.6z"/>
						</g>
						<g id="g1394_2_" transform="translate(339.6895,185.7817)">
							<path id="path1396_2_" class="st5" d="M-261.7,254.5v-5.6h-5.5l-7.6-4.4h-5.4l-7.7,4.4h-5.4v5.6"/>
						</g>
						<g id="g1398_2_" transform="translate(385,185.7817)">
							<path id="path1400_2_" class="st5" d="M-298.5,254.5h-48.7c-0.9,0-1.7,0.9-1.7,2v3c0,1.1,0.8,2,1.7,2h48.7
								c0.9,0,1.7-0.9,1.7-2v-3C-296.8,255.4-297.5,254.5-298.5,254.5z"/>
						</g>
					</g>
				</g>
			</g>
		</g>
		<g>
			<g>
				<g>
					<path class="st6" d="M98,29.5h11.4c0.6,0,1.1-0.5,1.1-1.1c0-0.6-0.5-1.1-1.1-1.1H98c-0.6,0-1.1,0.5-1.1,1.1S97.4,29.5,98,29.5z
						"/>
					<path class="st6" d="M98,34.7h11.4c0.6,0,1.1-0.5,1.1-1.1c0-0.6-0.5-1.1-1.1-1.1H98c-0.6,0-1.1,0.5-1.1,1.1
						C96.9,34.2,97.4,34.7,98,34.7z"/>
					<path class="st6" d="M91.6,29.5h1.7c0.6,0,1.1-0.5,1.1-1.1c0-0.6-0.5-1.1-1.1-1.1h-1.7c-0.6,0-1.1,0.5-1.1,1.1
						S91,29.5,91.6,29.5z"/>
					<path class="st6" d="M91.6,34.7h1.7c0.6,0,1.1-0.5,1.1-1.1c0-0.6-0.5-1.1-1.1-1.1h-1.7c-0.6,0-1.1,0.5-1.1,1.1
						C90.5,34.2,91,34.7,91.6,34.7z"/>
				</g>
				<g>
					<g>
						<path class="st7" d="M87,55.3c0,1.1-0.8,1.9-1.9,1.9s-1.9-0.8-1.9-1.9c0-1.1,0.9-1.9,1.9-1.9S87,54.3,87,55.3L87,55.3z"/>
						<path class="st8" d="M97.3,46.5c0,1.1-0.8,1.9-1.9,1.9s-1.9-0.8-1.9-1.9c0-1.1,0.9-1.9,1.9-1.9S97.3,45.4,97.3,46.5z"/>
						<path class="st9" d="M107.5,52.7c0,1.1-0.8,1.9-1.9,1.9c-1.1,0-1.9-0.8-1.9-1.9c0-1.1,0.9-1.9,1.9-1.9S107.5,51.7,107.5,52.7
							L107.5,52.7z"/>
						<path class="st10" d="M117.8,42.8c0,1.1-0.8,1.9-1.9,1.9c-1.1,0-1.9-0.8-1.9-1.9c0-1.1,0.9-1.9,1.9-1.9
							C117,40.9,117.8,41.7,117.8,42.8z"/>
						<path class="st11" d="M87,55.2L87,55.2c0,1.1-0.9,2-1.9,2c-1,0-1.9-0.9-1.9-1.9c0-0.6,0.3-1.1,0.7-1.4c0,1,0.9,1.8,1.9,1.8
							C86.2,55.7,86.6,55.5,87,55.2z"/>
						<path class="st12" d="M97.3,46.4L97.3,46.4c0,1.1-0.9,2-1.9,2c-1.1,0-1.9-0.9-1.9-1.9c0-0.6,0.3-1.1,0.7-1.4
							c0,1,0.9,1.8,1.9,1.8C96.5,46.9,96.9,46.7,97.3,46.4L97.3,46.4z"/>
						<path class="st13" d="M107.5,52.6L107.5,52.6c0,1.1-0.9,2-1.9,2c-1.1,0-1.9-0.9-1.9-1.9c0-0.6,0.3-1.1,0.7-1.4
							c0.1,1,0.9,1.8,1.9,1.8C106.8,53.1,107.2,52.9,107.5,52.6L107.5,52.6z"/>
						<path class="st14" d="M117.8,42.7L117.8,42.7c0,1.1-0.8,2-1.9,2c-1.1,0-1.9-0.9-1.9-1.9c0-0.6,0.3-1.1,0.7-1.4
							c0.1,1,0.9,1.8,1.9,1.8C117,43.2,117.5,43,117.8,42.7z"/>
						<path class="st6" d="M85.1,57.9c1.4,0,2.5-1.1,2.5-2.5c0-0.4-0.1-0.8-0.3-1.2l6.4-5.8c0.4,0.4,1,0.6,1.6,0.6
							c0.7,0,1.4-0.3,1.9-0.8l5.9,4c0,0.2-0.1,0.4-0.1,0.5c0,1.4,1.1,2.5,2.5,2.5c1.4,0,2.5-1.1,2.5-2.5c0-0.4-0.1-0.7-0.2-1.1
							l6.6-6.7c0.4,0.2,0.8,0.4,1.3,0.4c1.4,0,2.5-1.1,2.5-2.5c0-1.4-1.1-2.5-2.5-2.5c-1.4,0-2.5,1.1-2.5,2.5c0,0.5,0.1,0.9,0.3,1.2
							l-6.6,6.6c-0.4-0.3-0.9-0.5-1.5-0.5c-0.8,0-1.4,0.3-1.9,0.9l-5.9-4c0-0.2,0.1-0.4,0.1-0.6c0-1.4-1.1-2.5-2.5-2.5
							c-1.4,0-2.5,1.1-2.5,2.5c0,0.3,0.1,0.6,0.2,0.9l-6.5,5.8c-0.4-0.3-0.9-0.4-1.4-0.4c-1.4,0-2.5,1.1-2.5,2.5
							C82.5,56.7,83.7,57.9,85.1,57.9z M115.9,41.5c0.7,0,1.3,0.6,1.3,1.3s-0.6,1.3-1.3,1.3s-1.3-0.6-1.3-1.3S115.2,41.5,115.9,41.5
							z M105.6,51.4c0.7,0,1.3,0.6,1.3,1.3s-0.6,1.3-1.3,1.3s-1.3-0.6-1.3-1.3C104.4,52,104.9,51.4,105.6,51.4L105.6,51.4z
							 M95.4,45.2c0.7,0,1.3,0.6,1.3,1.3c0,0.7-0.6,1.3-1.3,1.3s-1.3-0.6-1.3-1.3C94.1,45.8,94.6,45.2,95.4,45.2L95.4,45.2z
							 M85.1,54c0.7,0,1.3,0.6,1.3,1.3s-0.6,1.3-1.3,1.3s-1.3-0.6-1.3-1.3C83.8,54.6,84.4,54,85.1,54L85.1,54z"/>
					</g>
					<g>
						<path class="st15" d="M83.7,68.8h6.6v9.4h-6.6L83.7,68.8z"/>
						<path class="st16" d="M90.3,78.7h-6.6c-0.3,0-0.5-0.2-0.5-0.5v-9.4c0-0.3,0.2-0.5,0.5-0.5h6.6c0.3,0,0.5,0.2,0.5,0.5v9.4
							C90.8,78.5,90.6,78.7,90.3,78.7z M84.2,77.7h5.6v-8.4h-5.6L84.2,77.7z"/>
						<path class="st17" d="M92.8,59.2h6.6v19h-6.6V59.2z"/>
						<path class="st16" d="M99.4,78.7h-6.6c-0.3,0-0.5-0.2-0.5-0.5v-19c0-0.3,0.2-0.5,0.5-0.5h6.6c0.3,0,0.5,0.2,0.5,0.5v19
							C100,78.5,99.7,78.7,99.4,78.7z M93.4,77.7h5.6v-18h-5.6V77.7z"/>
						<path class="st18" d="M102,64h6.6v14.2H102V64z"/>
						<path class="st16" d="M108.6,78.7H102c-0.3,0-0.5-0.2-0.5-0.5V64c0-0.3,0.2-0.5,0.5-0.5h6.6c0.3,0,0.5,0.2,0.5,0.5v14.2
							C109.1,78.5,108.9,78.7,108.6,78.7z M102.5,77.7h5.6V64.5h-5.6V77.7z"/>
						<path class="st19" d="M111.2,55.5h6.6v22.7h-6.6V55.5z"/>
						<path class="st16" d="M117.8,78.7h-6.6c-0.3,0-0.5-0.2-0.5-0.5V55.5c0-0.3,0.2-0.5,0.5-0.5h6.6c0.3,0,0.5,0.2,0.5,0.5v22.7
							C118.3,78.5,118.1,78.7,117.8,78.7L117.8,78.7z M111.7,77.7h5.6V56h-5.6V77.7z"/>
					</g>
				</g>
			</g>
			<g>
				<g>
					<path class="st20" d="M67.8,41.9c0,4.4-2,8.7-5.9,11.5l-8.3-11.5h2.4H67.8z"/>
					<circle class="st21" cx="53.7" cy="42" r="14.6"/>
					<circle class="st21" cx="53.7" cy="41.9" r="14.1"/>
					<path class="st21" d="M53.7,27.8c7.8,0,14.1,6.3,14.1,14.1H53.7V27.8z"/>
					<path class="st22" d="M62.2,51.4l-5.8-8.1h10C66,46.5,64.5,49.3,62.2,51.4L62.2,51.4z"/>
					<path class="st23" d="M41,41.9c0,7,5.7,12.7,12.7,12.7c2.3,0,4.4-0.6,6.3-1.7l-7.4-10.3l0,0c-0.2-0.2-0.3-0.5-0.3-0.8V29.3
						C45.9,29.9,41,35.4,41,41.9z"/>
					<path class="st24" d="M66.4,40.5H55.1V29.3C61,29.9,65.7,34.6,66.4,40.5z"/>
				</g>
				<g>
					<path class="st6" d="M51.2,78.7h11.4c0.6,0,1.1-0.5,1.1-1.1c0-0.6-0.5-1.1-1.1-1.1H51.2c-0.6,0-1.1,0.5-1.1,1.1
						C50.2,78.2,50.6,78.7,51.2,78.7z"/>
					<path class="st6" d="M51.2,68.3h11.4c0.6,0,1.1-0.5,1.1-1.1c0-0.6-0.5-1.1-1.1-1.1H51.2c-0.6,0-1.1,0.5-1.1,1.1
						S50.6,68.3,51.2,68.3z"/>
					<path class="st6" d="M51.2,73.5h11.4c0.6,0,1.1-0.5,1.1-1.1c0-0.6-0.5-1.1-1.1-1.1H51.2c-0.6,0-1.1,0.5-1.1,1.1
						C50.2,73,50.6,73.5,51.2,73.5z"/>
					<path class="st10" d="M44.9,68.3h1.7c0.6,0,1.1-0.5,1.1-1.1c0-0.6-0.5-1.1-1.1-1.1h-1.7c-0.6,0-1.1,0.5-1.1,1.1
						S44.3,68.3,44.9,68.3z"/>
					<path class="st25" d="M44.9,73.5h1.7c0.6,0,1.1-0.5,1.1-1.1c0-0.6-0.5-1.1-1.1-1.1h-1.7c-0.6,0-1.1,0.5-1.1,1.1
						C43.8,73,44.3,73.5,44.9,73.5z"/>
					<path class="st6" d="M44.9,78.7h1.7c0.6,0,1.1-0.5,1.1-1.1c0-0.6-0.5-1.1-1.1-1.1h-1.7c-0.6,0-1.1,0.5-1.1,1.1
						C43.8,78.2,44.3,78.7,44.9,78.7z"/>
				</g>
			</g>
		</g>
	</g>
	<path class="st6" d="M12.2,16.2h2v-2h2v-2h-2v-2h-2v2h-2v2h2V16.2z"/>
	<g>
		<path class="st6" d="M7.4,90.4C3.3,90.4,0,87,0,83c0-4.1,3.3-7.4,7.4-7.4c4.1,0,7.4,3.3,7.4,7.4C14.8,87,11.5,90.4,7.4,90.4z
			 M7.4,78.8c-2.3,0-4.1,1.9-4.1,4.1c0,2.3,1.9,4.1,4.1,4.1s4.1-1.9,4.1-4.1C11.5,80.7,9.7,78.8,7.4,78.8z"/>
		<circle class="st6" cx="147" cy="57.2" r="3.3"/>
		<circle class="st6" cx="35.9" cy="3.4" r="3.3"/>
		<path class="st6" d="M158.5,23.5c-0.5,0-0.9-0.2-1.2-0.5c-0.7-0.7-0.7-1.8,0-2.4l9-9c0.3-0.3,0.8-0.5,1.2-0.5
			c0.5,0,0.9,0.2,1.2,0.5c0.3,0.3,0.5,0.8,0.5,1.2c0,0.5-0.2,0.9-0.5,1.2l-9,9C159.4,23.3,159,23.5,158.5,23.5z"/>
		<path class="st6" d="M167.5,23.5c-0.5,0-0.9-0.2-1.2-0.5l-9-9c-0.3-0.3-0.5-0.8-0.5-1.2c0-0.5,0.2-0.9,0.5-1.2
			c0.3-0.3,0.8-0.5,1.2-0.5c0.5,0,0.9,0.2,1.2,0.5l9,9c0.3,0.3,0.5,0.8,0.5,1.2c0,0.5-0.2,0.9-0.5,1.2
			C168.4,23.3,168,23.5,167.5,23.5z"/>
		<g>
			<path class="st6" d="M150.2,92.9c-0.3,0-0.5-0.1-0.7-0.3c-0.2-0.2-0.3-0.5-0.3-0.7c0-0.3,0.1-0.5,0.3-0.7l5.4-5.4
				c0.2-0.2,0.5-0.3,0.7-0.3c0.3,0,0.5,0.1,0.7,0.3c0.4,0.4,0.4,1.1,0,1.5l-5.4,5.4C150.7,92.8,150.5,92.9,150.2,92.9z"/>
			<path class="st6" d="M155.6,92.9c-0.3,0-0.5-0.1-0.7-0.3l-5.4-5.4c-0.4-0.4-0.4-1.1,0-1.5c0.2-0.2,0.5-0.3,0.7-0.3
				c0.3,0,0.5,0.1,0.7,0.3l5.4,5.4c0.2,0.2,0.3,0.5,0.3,0.7c0,0.3-0.1,0.5-0.3,0.7C156.2,92.8,155.9,92.9,155.6,92.9z"/>
		</g>
	</g>
</g>
</svg>
