<?xml version="1.0" encoding="utf-8"?>
<!-- Generator: Adobe Illustrator 25.0.0, SVG Export Plug-In . SVG Version: 6.00 Build 0)  -->
<svg version="1.1" id="Layer_1" xmlns="http://www.w3.org/2000/svg" xmlns:xlink="http://www.w3.org/1999/xlink" x="0px" y="0px"
	 viewBox="0 0 196.2 180" style="enable-background:new 0 0 196.2 180;" xml:space="preserve">
<style type="text/css">
	.st0{fill:#57A0D7;}
	.st1{fill:#3D82C4;}
	.st2{fill:#F4F6F8;}
	.st3{fill:#E4E8EB;}
	.st4{fill:#35414D;}
	.st5{fill:#FBD277;}
	.st6{fill:#F16C7A;}
	.st7{fill:#3A312A;}
	.st8{fill:#D7E057;}
	.st9{fill:#8AC6DD;}
	.st10{fill:#FDF6EC;}
	.st11{fill-rule:evenodd;clip-rule:evenodd;fill:#CECECE;}
	.st12{fill-rule:evenodd;clip-rule:evenodd;fill:#838383;}
	.st13{fill-rule:evenodd;clip-rule:evenodd;fill:#FE9737;}
	.st14{fill-rule:evenodd;clip-rule:evenodd;fill:#B5ADB6;}
	.st15{fill-rule:evenodd;clip-rule:evenodd;fill:#F36B37;}
	.st16{fill-rule:evenodd;clip-rule:evenodd;fill:#595959;}
</style>
<g>
	<g>
		<path class="st0" d="M159.3,13.8c0-4.6-4.8-8.3-10.8-8.3h-135c-6,0-10.8,3.7-10.8,8.3v20.8h156.6V13.8z"/>
	</g>
	<g>
		<path class="st1" d="M8.1,34.6c0-13.8,14.6-24.9,32.6-24.9h113.2c1.6,0,3.1,0.3,4.4,0.7c-1.7-2.9-5.4-4.9-9.8-4.9h-135
			c-6,0-10.8,3.7-10.8,8.3v20.8H8.1z"/>
	</g>
	<g>
		<path class="st2" d="M2.7,43.5v117.9c0,7.9,4.8,14.3,10.8,14.3h135c6,0,10.8-6.4,10.8-14.3V43.5L2.7,43.5z"/>
	</g>
	<g>
		<path class="st3" d="M8.1,168.4C8.1,102.1,48,44.7,97.2,44.7h62.1v-9.1H2.7v125.6c0,5.9,2.6,11,6.4,13.3
			C8.5,172.6,8.1,170.6,8.1,168.4z"/>
	</g>
	<g>
		<path class="st4" d="M148.5,0h-135C6.1,0,0,7.6,0,17V163c0,9.4,6.1,17,13.5,17h135c7.4,0,13.5-7.6,13.5-17V17
			C162,7.6,155.9,0,148.5,0z M13.5,6.8h135c4.5,0,8.1,4.6,8.1,10.2v15.5H5.4V17C5.4,11.3,9,6.8,13.5,6.8z M148.5,173.2h-135
			c-4.5,0-8.1-4.6-8.1-10.2V39.2h151.2V163C156.6,168.7,153,173.2,148.5,173.2z"/>
	</g>
	<g>
		<g>
			<g>
				<path class="st5" d="M17.7,130h62.6v32.7H17.7V130z"/>
			</g>
			<g>
				<path class="st4" d="M80.3,127.3H17.7c-1.5,0-2.7,1.2-2.7,2.7v32.7c0,1.5,1.2,2.7,2.7,2.7h62.6c1.5,0,2.7-1.2,2.7-2.7V130
					C83,128.5,81.8,127.3,80.3,127.3z M77.6,160H20.4v-27.3h57.2V160z"/>
			</g>
		</g>
		<g>
			<g>
				<path class="st4" d="M139.1,128H93c-1.3,0-2.4,1.2-2.4,2.7s1.1,2.7,2.4,2.7h46.2c1.3,0,2.4-1.2,2.4-2.7S140.5,128,139.1,128z"/>
			</g>
			<g>
				<path class="st4" d="M128.5,143.6H92.4c-1.1,0-1.9,1.2-1.9,2.7s0.9,2.7,1.9,2.7h36.1c1.1,0,1.9-1.2,1.9-2.7
					S129.6,143.6,128.5,143.6z"/>
			</g>
		</g>
	</g>
	<g>
		<g>
			<g>
				<circle class="st6" cx="25.1" cy="20.9" r="5.4"/>
			</g>
			<g>
				<path class="st7" d="M25.1,27.6c-3.6,0-6.6-3-6.6-6.6s3-6.6,6.6-6.6s6.6,3,6.6,6.6S28.8,27.6,25.1,27.6z M25.1,16.7
					c-2.3,0-4.2,1.9-4.2,4.2s1.9,4.2,4.2,4.2s4.2-1.9,4.2-4.2C29.3,18.6,27.4,16.7,25.1,16.7z"/>
			</g>
		</g>
		<g>
			<g>
				<circle class="st8" cx="41.9" cy="20.9" r="5.4"/>
			</g>
			<g>
				<path class="st7" d="M41.9,27.6c-3.6,0-6.6-3-6.6-6.6s3-6.6,6.6-6.6c3.6,0,6.6,3,6.6,6.6S45.6,27.6,41.9,27.6z M41.9,16.7
					c-2.3,0-4.2,1.9-4.2,4.2s1.9,4.2,4.2,4.2c2.3,0,4.2-1.9,4.2-4.2C46.1,18.6,44.2,16.7,41.9,16.7z"/>
			</g>
		</g>
		<g>
			<g>
				<circle class="st9" cx="58.7" cy="20.9" r="5.4"/>
			</g>
			<g>
				<path class="st7" d="M58.7,27.6c-3.6,0-6.6-3-6.6-6.6s3-6.6,6.6-6.6c3.6,0,6.6,3,6.6,6.6S62.4,27.6,58.7,27.6z M58.7,16.7
					c-2.3,0-4.2,1.9-4.2,4.2s1.9,4.2,4.2,4.2c2.3,0,4.2-1.9,4.2-4.2C62.9,18.6,61,16.7,58.7,16.7z"/>
			</g>
		</g>
		<g>
			<path class="st10" d="M139,25.5H87.5c-2.5,0-4.5-2-4.5-4.5v0c0-2.5,2-4.5,4.5-4.5H139c2.5,0,4.5,2,4.5,4.5v0
				C143.5,23.4,141.5,25.5,139,25.5z"/>
			<path class="st4" d="M139,26.6H87.5c-3.1,0-5.6-2.5-5.6-5.6c0-3.1,2.5-5.6,5.6-5.6H139c3.1,0,5.6,2.5,5.6,5.6
				C144.6,24,142.1,26.6,139,26.6z M87.5,17.5c-1.9,0-3.4,1.5-3.4,3.4s1.5,3.4,3.4,3.4H139c1.9,0,3.4-1.5,3.4-3.4s-1.5-3.4-3.4-3.4
				H87.5z"/>
		</g>
	</g>
	<g>
		<g id="g7770_19_" transform="translate(330.2446,64.9756)">
			<g id="path7772_19_">
				<path class="st4" d="M-200.4,102.2c-1.8,0-3.3-1.3-4.5-2.5c-1.5-1.5-2-1.1-3.5,0.2c-1.5,1.3-4.1,3.6-8.1,0
					c-0.5-0.5-0.6-1.3-0.1-1.8c0.5-0.5,1.3-0.6,1.8-0.1c2.3,2.1,3.1,1.3,4.7,0c1.4-1.2,3.7-3.3,6.9-0.1c0.8,0.8,1.9,1.8,2.8,1.8
					c0.5,0,1.1-0.4,1.7-1.2c0.7-1,1.3-1.9,1.8-2.8c0.9-1.5,1.7-3,3.3-3.3c1.8-0.3,2.8,1.3,3.7,2.7c1.2,2,2.5,4.1,5.6,3.7
					c0.7-0.1,1.3,0.4,1.4,1.1c0.1,0.7-0.4,1.3-1.1,1.4c-4.8,0.5-6.8-2.9-8.1-4.9c-0.3-0.5-0.8-1.3-1.1-1.5c-0.5,0.2-0.9,1-1.5,2.1
					c-0.5,0.9-1.1,2-2,3.1c-1.1,1.4-2.3,2.1-3.5,2.2C-200.2,102.2-200.3,102.2-200.4,102.2z"/>
			</g>
		</g>
		<g id="g7774_19_" transform="translate(423.1602,447.0527)">
			<g id="path7776_19_">
				<path class="st11" d="M-249.3-396l11.6,3.5l3-9.9c0.9-3.2-0.9-6.6-4.1-7.5c-3.2-1-6.6,0.9-7.5,4.1L-249.3-396z"/>
			</g>
		</g>
		<g id="g7778_19_" transform="translate(325.644,101.1182)">
			<g id="path7780_19_">
				<path class="st12" d="M-180.8,53.1l1.2,10.2c0.1,0.7,0.1,0.7,0.6,0.2l6.6-7.9l7.1-8.5l-6.7-8.1l-10,3.1L-180.8,53.1z"/>
			</g>
		</g>
		<g id="g7782_19_" transform="translate(412.0854,441.0947)">
			<g id="path7784_19_">
				<path class="st13" d="M-241.5-388.3l-27,90.4l8.3,2.5l8.3,2.5l25-83.7l2-6.6c0.4-1.4-0.4-2.9-1.8-3.3l-11.6-3.5
					C-239.6-390.5-241.1-389.7-241.5-388.3"/>
			</g>
		</g>
		<g id="g7786_19_" transform="translate(452.5229,474.4854)">
			<g id="path7788_19_">
				<path class="st14" d="M-269.9-431.7l-3,9.9l5.8,1.7l3-9.9c0.9-3.2-0.9-6.6-4.1-7.5c-1.1-0.3-2.1-0.3-3.1-0.1
					C-269.8-436-269.2-433.8-269.9-431.7"/>
			</g>
		</g>
		<g id="g7790_19_" transform="translate(441.9307,407.96)">
			<g id="path7792_19_">
				<path class="st15" d="M-262.4-345.3l-23.9,79.8l-1.2,3.9l5.8,1.7l25-83.7l2-6.6c0.4-1.4-0.4-2.9-1.8-3.3l-5.8-1.7
					c1.4,0.4,2.2,1.9,1.8,3.3L-262.4-345.3z"/>
			</g>
		</g>
		<g id="g7794_19_" transform="translate(357.9888,127.2178)">
			<g id="path7796_19_">
				<path class="st16" d="M-203.5,19.2l-7.1,8.5l-2.2,2.6l0.8,6.9c0.1,0.7,0.1,0.7,0.6,0.2l6.6-7.9l7.1-8.5L-203.5,19.2z"/>
			</g>
		</g>
		<g id="g7798_19_" transform="translate(461.3545,402.1719)">
			<g id="path7800_19_">
				<path class="st4" d="M-276.2-301.1c-0.1,0-0.2,0-0.4-0.1c-0.7-0.2-1.1-0.9-0.9-1.6l9.4-31.3l-8.4-2.5c-0.7-0.2-1.1-0.9-0.9-1.6
					c0.2-0.7,0.9-1.1,1.6-0.9l9.6,2.9c0.3,0.1,0.6,0.3,0.8,0.6c0.2,0.3,0.2,0.6,0.1,1L-275-302
					C-275.2-301.5-275.7-301.1-276.2-301.1z"/>
			</g>
		</g>
		<g id="g7802_19_" transform="translate(374.0615,313.9443)">
			<g id="path7804_19_">
				<path class="st4" d="M-213.8-164.5c-0.1,0-0.2,0-0.4-0.1l-16.7-5c-0.3-0.1-0.6-0.3-0.8-0.6c-0.2-0.3-0.2-0.6-0.1-1l12.7-42.5
					c0.2-0.7,0.9-1.1,1.6-0.9c0.7,0.2,1.1,0.9,0.9,1.6l-12.4,41.3l14.2,4.2l26.7-89.1c0.1-0.4,0.1-0.7-0.1-1
					c-0.2-0.3-0.5-0.6-0.8-0.7l-11.6-3.5c-0.3-0.1-0.7-0.1-1.1,0.1c-0.3,0.2-0.6,0.5-0.7,0.8l-11.3,37.9c-0.2,0.7-0.9,1.1-1.6,0.9
					c-0.7-0.2-1.1-0.9-0.9-1.6l11.3-37.9c0.3-1,1-1.8,1.9-2.3c0.9-0.5,2-0.6,3-0.3l11.6,3.5c1,0.3,1.8,1,2.3,1.9
					c0.5,0.9,0.6,2,0.3,3l-27,90.4C-212.8-164.9-213.3-164.5-213.8-164.5z"/>
			</g>
		</g>
		<g id="g7806_19_" transform="translate(331.5225,66.168)">
			<g id="path7808_19_">
				<path class="st4" d="M-185.4,100.1c-0.1,0-0.3,0-0.4-0.1c-0.8-0.2-1-1-1.1-1.5c0,0,0-0.1,0-0.1l-2.4-21.3c0-0.4,0.1-0.8,0.4-1.1
					c0.3-0.3,0.8-0.4,1.2-0.2l16.7,5c0.4,0.1,0.7,0.4,0.9,0.9s0,0.9-0.2,1.2L-184,99.3c0,0,0,0,0,0
					C-184.3,99.6-184.7,100.1-185.4,100.1z M-185,98.4L-185,98.4L-185,98.4z M-186.5,78.8l1.9,17.2l11.1-13.3L-186.5,78.8z"/>
			</g>
		</g>
		<g id="g7810_19_" transform="translate(423.1602,447.0527)">
			<g id="path7812_19_">
				<path class="st4" d="M-237.7-391.3c-0.1,0-0.2,0-0.4-0.1l-11.6-3.5c-0.3-0.1-0.6-0.3-0.8-0.6c-0.2-0.3-0.2-0.6-0.1-1l3-9.9
					c0.6-1.9,1.8-3.4,3.5-4.3c1.7-0.9,3.7-1.1,5.6-0.6c3.9,1.1,6.1,5.2,4.9,9.1l-3,9.9C-236.6-391.7-237.1-391.3-237.7-391.3z
					 M-247.7-396.9l9.2,2.7l2.6-8.7c0.8-2.5-0.7-5.2-3.2-5.9c-1.2-0.4-2.5-0.2-3.6,0.4c-1.1,0.6-1.9,1.6-2.3,2.8L-247.7-396.9z"/>
			</g>
		</g>
	</g>
	<g>
		<g>
			<g>
				<path class="st4" d="M137,79.8H17.4c-1.3,0-2.4-1.1-2.4-2.4s1.1-2.4,2.4-2.4H137c1.3,0,2.4,1.1,2.4,2.4S138.3,79.8,137,79.8
					L137,79.8z"/>
			</g>
			<g>
				<path class="st4" d="M112.9,88.7H17.4c-1.3,0-2.4-1.1-2.4-2.4s1.1-2.4,2.4-2.4h95.5c1.3,0,2.4,1.1,2.4,2.4
					S114.2,88.7,112.9,88.7z"/>
			</g>
			<g>
				<path class="st4" d="M137,103.1H17.4c-1.3,0-2.4-1.1-2.4-2.4c0-1.3,1.1-2.4,2.4-2.4H137c1.3,0,2.4,1.1,2.4,2.4
					C139.3,102.1,138.3,103.1,137,103.1L137,103.1z"/>
			</g>
			<g>
				<path class="st4" d="M125.7,112.1H17.4c-1.3,0-2.4-1.1-2.4-2.4c0-1.3,1.1-2.4,2.4-2.4h108.3c1.3,0,2.4,1.1,2.4,2.4
					C128.1,111,127,112.1,125.7,112.1z"/>
			</g>
		</g>
		<g>
			<path class="st4" d="M137,65.7H17.4c-1.3,0-2.4-1.1-2.4-2.4v-10c0-1.3,1.1-2.4,2.4-2.4H137c1.3,0,2.4,1.1,2.4,2.4v10
				C139.3,64.6,138.3,65.7,137,65.7z M19.8,61h114.8v-5.3H19.8V61z"/>
		</g>
	</g>
</g>
</svg>
