<?xml version="1.0" encoding="utf-8"?>
<!-- Generator: Adobe Illustrator 25.0.0, SVG Export Plug-In . SVG Version: 6.00 Build 0)  -->
<svg version="1.1" id="Layer_1" xmlns="http://www.w3.org/2000/svg" xmlns:xlink="http://www.w3.org/1999/xlink" x="0px" y="0px"
	 viewBox="0 0 196.8 150" style="enable-background:new 0 0 196.8 150;" xml:space="preserve">
<style type="text/css">
	.st0{fill:#FFA436;}
	.st1{fill:#FFBC2B;}
	.st2{fill:#8AE7FF;}
	.st3{fill:#BDF1FF;}
	.st4{fill:#FFFFFF;}
	.st5{fill:#FFCF66;}
	.st6{fill:#35414D;}
	.st7{fill:#FF6666;}
</style>
<g>
	<g>
		<g id="g1654_6_" transform="translate(474.5,422)">
			<g id="path1656_6_">
				<path class="st0" d="M-292-399.7h-11.6v36.6h23.1v-24.4C-280.4-394.2-285.6-399.7-292-399.7"/>
			</g>
		</g>
		<g id="g1658_6_" transform="translate(474.5,392)">
			<g id="path1660_6_">
				<path class="st1" d="M-292-357.1l-34.7,46.5h-145.2v-69.8c0-6.4,5.2-10.6,11.6-10.6h56.2c3.1,0,6,0.2,8.2,2.4l19.7,19.9h72.6
					C-297.1-368.7-292-363.5-292-357.1"/>
			</g>
		</g>
		<g id="g1662_6_" transform="translate(444.5,392)">
			<g id="path1664_6_">
				<path class="st2" d="M-273.5-355.6l-23.1,28.1h34.7v-28.1H-273.5z"/>
			</g>
		</g>
		<g id="g1666_6_" transform="translate(444.5,392)">
			<g id="path1668_6_">
				<path class="st3" d="M-273.5-355.6v56.3l-156.7-45v-11.3H-273.5z"/>
			</g>
		</g>
		<g id="path1670_6_">
			<path class="st4" d="M14.3,81.4h112V47.6h-112V81.4z"/>
		</g>
		<g id="g1672_6_" transform="translate(474.5,362)">
			<g id="path1674_6_">
				<path class="st1" d="M-292-320.9l-11.6,9.6v96.7h11.6c6.4,0,11.6-4.3,11.6-9.6v-87.1C-280.4-316.6-285.6-320.9-292-320.9"/>
			</g>
		</g>
		<g id="g1676_6_" transform="translate(474.5,362)">
			<g id="path1678_6_">
				<path class="st5" d="M-292-320.9v96.7c0,5.3-5.2,9.6-11.6,9.6h-156.7c-6.4,0-11.6-4.3-11.6-9.6v-67.9c0-5.3,5.2-9.6,11.6-9.6
					h84.1l19.7-16.4c2.2-1.8,5.1-2.8,8.2-2.8H-292z"/>
			</g>
		</g>
		<g id="g1680_6_" transform="translate(37.5,302)">
			<g id="path1682_6_">
				<path class="st6" d="M-23.2-229c-1.6,0-2.9-1.3-2.9-2.9v-33.8c0-1.6,1.3-2.9,2.9-2.9H145c1.6,0,2.9,1.3,2.9,2.9v11.3
					c0,1.6-1.3,2.9-2.9,2.9s-2.9-1.3-2.9-2.9v-8.4H-20.4v30.9C-20.4-230.3-21.6-229-23.2-229z"/>
			</g>
		</g>
		<g id="g1684_6_" transform="translate(474.5,30)">
			<g id="path1686_6_">
				<path class="st6" d="M-292,120h-168.3c-7.8,0-14.2-5.5-14.2-12.2V-17.8c0-6.7,6.4-12.2,14.2-12.2h56.2c3.7,0,7.2,1.2,9.9,3.4
					l19,15.8h83.2c7.8,0,14.2,5.5,14.2,12.2v106.3C-277.8,114.5-284.1,120-292,120z M-460.2-24.7c-4.9,0-8.9,3.1-8.9,7v125.5
					c0,3.8,4,7,8.9,7H-292c4.9,0,8.9-3.1,8.9-7V1.5c0-3.8-4-7-8.9-7h-84.1c-0.6,0-1.2-0.2-1.7-0.6l-19.7-16.4
					c-1.7-1.4-4-2.2-6.5-2.2H-460.2z"/>
			</g>
		</g>
		<g id="g1688_6_" transform="translate(328.4268,362)">
			<g id="path1690_6_">
				<path class="st6" d="M-325.7-277.9c-1.5,0-2.7-1.2-2.7-2.7c0-7.7,6.4-14,14.3-14h83l18.9-18.4c2.7-2.6,6.3-4.1,10.1-4.1
					c1.5,0,2.7,1.2,2.7,2.7c0,1.5-1.2,2.7-2.7,2.7c-2.3,0-4.6,0.9-6.3,2.5l-19.7,19.2c-0.5,0.5-1.2,0.8-1.9,0.8h-84.1
					c-4.9,0-8.8,3.8-8.8,8.5C-323-279.1-324.2-277.9-325.7-277.9z"/>
			</g>
		</g>
		<g id="g1692_2_" transform="translate(67.5,362)">
			<g id="path1694_2_">
				<path class="st6" d="M-41.7-311.5h-11.6c-1.6,0-2.9-1.3-2.9-2.9s1.3-2.9,2.9-2.9h11.6c1.6,0,2.9,1.3,2.9,2.9
					S-40.1-311.5-41.7-311.5z"/>
			</g>
		</g>
		<g id="g1696_6_" transform="translate(504.5,332)">
			<g id="path1698_6_">
				<path class="st6" d="M-310.4-270.4c-1.5,0-2.7-1.2-2.7-2.7c0-4.7-4-8.5-8.8-8.5h-145.2c-1.5,0-2.7-1.2-2.7-2.7
					c0-1.5,1.2-2.7,2.7-2.7H-322c7.9,0,14.3,6.3,14.3,14C-307.7-271.6-308.9-270.4-310.4-270.4z"/>
			</g>
		</g>
	</g>
	<g>
		<g>
			<g>
				<path class="st6" d="M126.1,99.9c-0.5-1.2-1-2.3-1.7-3.3c-0.5-0.8-1.1-1.5-1.8-2.1c-0.5-0.5-1-0.9-1.6-1.3
					c-0.5-0.4-1.1-0.7-1.7-1.1c-0.6-0.3-1.2-0.6-1.8-0.8c-0.3-0.1-0.5-0.2-0.8-0.2c-0.3-0.1-0.6-0.1-0.9-0.2c-0.3-0.1-0.7-0.1-1-0.1
					c-0.1,0-0.1,0-0.2,0c-0.1,0-0.1,0-0.2,0c-0.2,0-0.4,0-0.6,0c0,0,0,0,0,0c0,0-0.1,0-0.2,0c-0.9,0-4.7,0.1-7.5,2.6
					c-0.2,0.2-0.5,0.5-0.7,0.7c-0.8,0.8-1.7,1.8-2.5,2.8c-2.4,2.9-4.1,5.7-4.1,5.7c0,0,0,0,0,0c-1.8-2.7-4-5.8-6.8-8.7
					c-0.3-0.3-0.6-0.6-0.9-0.8c-0.5-0.4-1.1-0.8-1.7-1.1c-0.1,0-0.2-0.1-0.2-0.1c-0.6-0.3-1.2-0.5-1.8-0.7c-0.5-0.2-1.1-0.3-1.6-0.4
					c-0.4-0.1-0.8-0.1-1.2-0.1c-0.2,0-0.5,0-0.7,0c-0.1,0-0.1,0-0.1,0c-0.4,0-0.9,0-1.3,0.1c-0.4,0.1-0.9,0.1-1.3,0.2
					c-0.4,0.1-0.8,0.2-1.2,0.4c-0.4,0.2-0.8,0.3-1.2,0.5c-0.4,0.2-0.8,0.4-1.1,0.7c-0.4,0.2-0.7,0.5-1.1,0.8c-0.3,0.3-0.7,0.6-1,0.9
					c-0.2,0.1-0.3,0.3-0.5,0.5c-0.2,0.2-0.4,0.4-0.6,0.7c-0.1,0.1-0.2,0.2-0.2,0.3c0,0.1-0.1,0.1-0.1,0.2c0,0,0,0.1-0.1,0.1
					c0,0-0.1,0.1-0.1,0.1c-0.1,0.2-0.2,0.3-0.4,0.5c-0.2,0.3-0.5,0.7-0.7,1c-0.2,0.4-0.5,0.8-0.7,1.3c-0.1,0.2-0.2,0.5-0.3,0.7
					c0,0,0,0,0,0.1c-0.1,0.2-0.2,0.4-0.3,0.7c0,0,0,0.1,0,0.1c-0.1,0.2-0.2,0.4-0.2,0.7c0,0,0,0.1,0,0.1c-0.1,0.3-0.2,0.6-0.3,0.9
					c-0.1,0.2-0.1,0.4-0.2,0.7c0,0,0,0,0,0c-0.1,0.2-0.1,0.4-0.1,0.6c0,0,0,0.1,0,0.1c-1.1,5.2-0.8,12.5,5.7,18.5
					c0.2,0.2,0.5,0.4,0.8,0.6c0.3,0.2,0.5,0.3,0.8,0.5c0.3,0.1,0.5,0.3,0.8,0.4c0.3,0.1,0.5,0.2,0.8,0.3c0.2,0.1,0.5,0.2,0.7,0.3
					c0.2,0.1,0.5,0.1,0.7,0.2c0.7,0.2,1.4,0.3,2,0.3c0.7,0,1.4,0,2.1-0.1c0.6-0.1,1.2-0.2,1.7-0.3c0.2-0.1,0.5-0.1,0.7-0.2
					c0.2-0.1,0.5-0.1,0.7-0.2c0.2-0.1,0.5-0.2,0.7-0.3c0.2-0.1,0.5-0.2,0.7-0.3c0.2-0.1,0.5-0.3,0.7-0.4c0.2-0.1,0.5-0.3,0.7-0.5
					c0.2-0.2,0.5-0.4,0.7-0.5c0.1-0.1,0.2-0.2,0.2-0.2c0.1-0.1,0.2-0.2,0.2-0.2c1.6-1.4,4.7-5.6,6.8-8.7c0,0.1,0.7,1,0.7,1.1
					c0.3,0.4,0.6,0.8,0.8,1.2c0.4,0.7,0.9,1.3,1.4,1.9c1,1.3,2,2.6,3.1,3.8c0.8,0.8,1.6,1.5,2.5,2.1c2.8,1.8,6.3,2.3,9.5,1.4
					c0.7-0.2,1.3-0.4,1.9-0.7c2.1-0.9,3.8-2.5,5.2-4.4c3.1-4.4,4.2-10,3.2-15.4C126.9,102.4,126.6,101.1,126.1,99.9z M89,116.2
					c-0.2,0.1-0.3,0.3-0.5,0.4c-0.1,0.1-0.2,0.2-0.4,0.3c-1.1,0.7-2.4,1.1-3.7,1.2c-1,0.1-1.9,0-2.9-0.2c-0.1,0-0.2-0.1-0.4-0.1
					c-0.1,0-0.2-0.1-0.3-0.1c-0.2-0.1-0.3-0.1-0.5-0.2c-0.2-0.1-0.3-0.2-0.5-0.3c-0.2-0.1-0.3-0.2-0.5-0.3c-0.1-0.1-0.3-0.2-0.4-0.3
					c-0.1-0.1-0.3-0.2-0.4-0.4c-0.1-0.1-0.3-0.3-0.4-0.4c-0.1-0.1-0.3-0.3-0.4-0.4c-0.1-0.1-0.2-0.3-0.4-0.4
					c-0.1-0.2-0.2-0.3-0.3-0.5c-0.1-0.2-0.2-0.3-0.3-0.5c-0.1-0.2-0.2-0.3-0.3-0.5c-0.1-0.2-0.2-0.4-0.3-0.5
					c-0.1-0.2-0.2-0.4-0.2-0.6c-0.1-0.2-0.1-0.4-0.2-0.6c-0.1-0.2-0.1-0.4-0.2-0.6c-0.1-0.2-0.1-0.4-0.2-0.6c0-0.2-0.1-0.4-0.1-0.6
					c0-0.2-0.1-0.4-0.1-0.6c0-0.2,0-0.4-0.1-0.7c0-0.2,0-0.4,0-0.7c0-0.1,0-0.2,0-0.2c0-6.6,6-13.6,12.7-9.3c1.1,0.7,2,1.6,2.8,2.6
					c1.7,2.2,3.3,4.4,4.8,6.7c-0.8,1.2-1.5,2.3-2.3,3.5c-0.7,0.9-1.4,1.9-2.1,2.8C90.4,114.6,89.8,115.5,89,116.2z M117.8,117
					c-1.2,0.7-2.4,0.9-3.2,1c-0.8,0.1-1.6,0.1-2.4-0.1c-0.8-0.2-1.6-0.5-2.3-0.9c-0.7-0.4-1.4-1.1-2-1.7c-0.5-0.5-0.9-1-1.3-1.6
					c-0.5-0.6-1-1.2-1.4-1.9c-0.5-0.7-1.1-1.5-1.6-2.2c-0.1-0.2-0.2-0.3-0.3-0.5c-0.3-0.5-0.7-1-1-1.6c1.9-2.9,3.8-5.8,6.1-8.2
					c0.9-0.9,1.9-1.5,3.1-1.9l0,0c1.7-0.5,3.7-0.6,5.3,0.2c1.2,0.5,2.2,1.3,3,2.3c1.8,2.1,2.7,4.9,2.7,7.7
					C122.4,111.7,120.5,115.3,117.8,117z"/>
			</g>
		</g>
		<g>
			<path class="st7" d="M125.3,97.8c-0.5-1.2-1-2.3-1.7-3.3c-0.5-0.8-1.1-1.5-1.8-2.1c-0.5-0.5-1-0.9-1.6-1.3
				c-0.5-0.4-1.1-0.7-1.7-1.1c-0.6-0.3-1.2-0.6-1.8-0.8c-0.3-0.1-0.5-0.2-0.8-0.2c-0.3-0.1-0.6-0.1-0.9-0.2c-0.3-0.1-0.7-0.1-1-0.1
				c-0.1,0-0.1,0-0.2,0c-0.1,0-0.1,0-0.2,0c-0.2,0-0.4,0-0.6,0c0,0,0,0,0,0c0,0-0.1,0-0.2,0c-0.9,0-4.7,0.1-7.5,2.6
				c-0.2,0.2-0.5,0.5-0.7,0.7c-0.8,0.8-1.7,1.8-2.5,2.8c-2.4,2.9-4.1,5.7-4.1,5.7c0,0,0,0,0,0c-1.8-2.7-4-5.8-6.8-8.7
				c-0.3-0.3-0.6-0.6-0.9-0.8c-0.5-0.4-1.1-0.8-1.7-1.1c-0.1,0-0.2-0.1-0.2-0.1c-0.6-0.3-1.2-0.5-1.8-0.7c-0.5-0.2-1.1-0.3-1.6-0.4
				c-0.4-0.1-0.8-0.1-1.2-0.1c-0.2,0-0.5,0-0.7,0c-0.1,0-0.1,0-0.1,0c-0.4,0-0.9,0-1.3,0.1c-0.4,0.1-0.9,0.1-1.3,0.2
				c-0.4,0.1-0.8,0.2-1.2,0.4c-0.4,0.2-0.8,0.3-1.2,0.5c-0.4,0.2-0.8,0.4-1.1,0.7c-0.4,0.2-0.7,0.5-1.1,0.8c-0.3,0.3-0.7,0.6-1,0.9
				c-0.2,0.1-0.3,0.3-0.5,0.5c-0.2,0.2-0.4,0.4-0.6,0.7c-0.1,0.1-0.2,0.2-0.2,0.3c0,0.1-0.1,0.1-0.1,0.2c0,0,0,0.1-0.1,0.1
				c0,0-0.1,0.1-0.1,0.1c-0.1,0.2-0.2,0.3-0.4,0.5c-0.2,0.3-0.5,0.7-0.7,1c-0.2,0.4-0.5,0.8-0.7,1.3c-0.1,0.2-0.2,0.5-0.3,0.7
				c0,0,0,0,0,0.1c-0.1,0.2-0.2,0.4-0.3,0.7c0,0,0,0.1,0,0.1c-0.1,0.2-0.2,0.4-0.2,0.7c0,0,0,0.1,0,0.1c-0.1,0.3-0.2,0.6-0.3,0.9
				c-0.1,0.2-0.1,0.4-0.2,0.7c0,0,0,0,0,0c-0.1,0.2-0.1,0.4-0.1,0.6c0,0,0,0.1,0,0.1c-1.1,5.2-0.8,12.5,5.7,18.5
				c0.2,0.2,0.5,0.4,0.8,0.6c0.3,0.2,0.5,0.3,0.8,0.5c0.3,0.1,0.5,0.3,0.8,0.4c0.3,0.1,0.5,0.2,0.8,0.3c0.2,0.1,0.5,0.2,0.7,0.3
				c0.2,0.1,0.5,0.1,0.7,0.2c0.7,0.2,1.4,0.3,2,0.3c0.7,0,1.4,0,2.1-0.1c0.6-0.1,1.2-0.2,1.7-0.3c0.2-0.1,0.5-0.1,0.7-0.2
				c0.2-0.1,0.5-0.1,0.7-0.2c0.2-0.1,0.5-0.2,0.7-0.3c0.2-0.1,0.5-0.2,0.7-0.3c0.2-0.1,0.5-0.3,0.7-0.4c0.2-0.1,0.5-0.3,0.7-0.5
				c0.2-0.2,0.5-0.4,0.7-0.5c0.1-0.1,0.2-0.2,0.2-0.2c0.1-0.1,0.2-0.2,0.2-0.2c1.6-1.4,4.7-5.6,6.8-8.7c0,0.1,0.7,1,0.7,1.1
				c0.3,0.4,0.6,0.8,0.8,1.2c0.4,0.7,0.9,1.3,1.4,1.9c1,1.3,2,2.6,3.1,3.8c0.8,0.8,1.6,1.5,2.5,2.1c2.8,1.8,6.3,2.3,9.5,1.4
				c0.7-0.2,1.3-0.4,1.9-0.7c2.1-0.9,3.8-2.5,5.2-4.4c3.1-4.4,4.2-10,3.2-15.4C126.2,100.2,125.8,99,125.3,97.8z M88.2,114
				c-0.2,0.1-0.3,0.3-0.5,0.4c-0.1,0.1-0.2,0.2-0.4,0.3c-1.1,0.7-2.4,1.1-3.7,1.2c-1,0.1-1.9,0-2.9-0.2c-0.1,0-0.2-0.1-0.4-0.1
				c-0.1,0-0.2-0.1-0.3-0.1c-0.2-0.1-0.3-0.1-0.5-0.2c-0.2-0.1-0.3-0.2-0.5-0.3c-0.2-0.1-0.3-0.2-0.5-0.3c-0.1-0.1-0.3-0.2-0.4-0.3
				c-0.1-0.1-0.3-0.2-0.4-0.4c-0.1-0.1-0.3-0.3-0.4-0.4c-0.1-0.1-0.3-0.3-0.4-0.4c-0.1-0.1-0.2-0.3-0.4-0.4
				c-0.1-0.2-0.2-0.3-0.3-0.5c-0.1-0.2-0.2-0.3-0.3-0.5c-0.1-0.2-0.2-0.3-0.3-0.5c-0.1-0.2-0.2-0.4-0.3-0.5
				c-0.1-0.2-0.2-0.4-0.2-0.6c-0.1-0.2-0.1-0.4-0.2-0.6c-0.1-0.2-0.1-0.4-0.2-0.6c-0.1-0.2-0.1-0.4-0.2-0.6c0-0.2-0.1-0.4-0.1-0.6
				c0-0.2-0.1-0.4-0.1-0.6c0-0.2,0-0.4-0.1-0.7c0-0.2,0-0.4,0-0.7c0-0.1,0-0.2,0-0.2c0-6.6,6-13.6,12.7-9.3c1.1,0.7,2,1.6,2.8,2.6
				c1.7,2.2,3.3,4.4,4.8,6.7c-0.8,1.2-1.5,2.3-2.3,3.5c-0.7,0.9-1.4,1.9-2.1,2.8C89.7,112.5,89,113.4,88.2,114z M117,114.9
				c-1.2,0.7-2.4,0.9-3.2,1c-0.8,0.1-1.6,0.1-2.4-0.1c-0.8-0.2-1.6-0.5-2.3-0.9c-0.7-0.4-1.4-1.1-2-1.7c-0.5-0.5-0.9-1-1.3-1.6
				c-0.5-0.6-1-1.2-1.4-1.9c-0.5-0.7-1.1-1.5-1.6-2.2c-0.1-0.2-0.2-0.3-0.3-0.5c-0.3-0.5-0.7-1-1-1.6c1.9-2.9,3.8-5.8,6.1-8.2
				c0.9-0.9,1.9-1.5,3.1-1.9l0,0c1.7-0.5,3.7-0.6,5.3,0.2c1.2,0.5,2.2,1.3,3,2.3c1.8,2.1,2.7,4.9,2.7,7.7
				C121.6,109.6,119.8,113.1,117,114.9z"/>
		</g>
	</g>
</g>
</svg>
