<svg version="1.1" id="Layer_1" xmlns="http://www.w3.org/2000/svg" x="0" y="0" viewBox="0 0 149 506" xml:space="preserve"><style>.st0{fill:#b29d90}.st1{fill:#515979}.st2{fill:#fff}.st3{fill:#d8ebfb}.st4{fill:#bad2e1}.st5{fill:#f89d81}.st6{fill:#ef7d7d}</style><path class="st0" d="M8.5 117.6c-4.4-1.7-6.5-6.6-4.8-11l36.9-94.7c1.7-4.4 6.6-6.5 11-4.8l78.9 30.7c4.4 1.7 6.5 6.6 4.8 11l-36.9 94.7c-1.7 4.4-6.6 6.5-11 4.8L8.5 117.6z"/><path class="st1" d="M129.9 39.4c3.5 1.4 5.2 5.3 3.9 8.8l-36.9 94.7c-1.4 3.5-5.3 5.2-8.8 3.9L9.1 116c-3.5-1.4-5.2-5.3-3.9-8.8l36.9-94.7c1.4-3.5 5.3-5.2 8.8-3.9l79 30.8m1.2-3.2l-79-30.7c-5.2-2-11.1.6-13.1 5.8L2.1 106c-2 5.2.6 11.1 5.8 13.2l78.9 30.7c5.2 2 11.1-.6 13.2-5.8l36.9-94.7c2-5.2-.6-11.1-5.8-13.2z"/><path class="st2" d="M13.1 112.1c-2-.8-3-3.1-2.2-5.1l35.2-90.5c.8-2 3.1-3 5.1-2.2l74.7 29.1c2 .8 3 3.1 2.2 5.1l-31.1 80c-.2.4-.5.8-.9.9l-17.5 7.7c-.4.2-.9.2-1.3 0l-64.2-25z"/><path class="st1" d="M125.3 44.9c1.2.5 1.7 1.8 1.3 2.9l-31.1 80-17.5 7.7-64.2-25c-1.2-.5-1.7-1.8-1.3-2.9l35.2-90.5c.5-1.2 1.8-1.7 2.9-1.3l74.7 29.1m1.2-3.2L51.8 12.6c-2.9-1.1-6.2.3-7.3 3.2L9.2 106.4c-1.1 2.9.3 6.2 3.2 7.3l64.2 25c.8.3 1.8.3 2.6-.1l17.5-7.7c.8-.4 1.5-1 1.8-1.9l31.1-80c1.3-2.8-.2-6.1-3.1-7.3z"/><path class="st3" d="M77.3 137.1c-.2-.1-.4-.2-.6-.4-.5-.5-.7-1.2-.4-1.8l3.9-10.1c.9-2.3 3.4-3.4 5.7-2.5l10.1 3.9c.6.2 1.1.9 1.1 1.5 0 .7-.4 1.3-1 1.6L78.6 137c-.5.3-.9.3-1.3.1z"/><path class="st1" d="M95.4 127.8l-17.5 7.7 3.9-10.1c.5-1.4 2.1-2.1 3.5-1.5l10.1 3.9m1.3-3.1l-10.1-3.9c-3.1-1.2-6.7.3-7.9 3.5l-3.9 10.1c-.5 1.3-.2 2.7.8 3.7.3.3.7.6 1.1.7.8.3 1.8.3 2.6-.1l17.5-7.7c1.3-.6 2.1-1.8 2-3.2 0-1.4-.9-2.6-2.1-3.1zm-2.5 6.3zM74 81.9l-13.8-5.4c-.8-.3-1.2-1.3-.9-2.1l.1-.1c.3-.8 1.3-1.2 2.1-.9l13.8 5.4c.8.3 1.2 1.3.9 2.1l-.1.1c-.3.8-1.3 1.2-2.1.9zM98.6 84.2l-35.9-14c-.8-.3-1.2-1.3-.9-2.1l.1-.1c.3-.8 1.3-1.2 2.1-.9l35.9 14c.8.3 1.2 1.3.9 2.1l-.1.1c-.4.8-1.3 1.2-2.1.9z"/><path class="st4" d="M59.8 24.8c-.9-.3-1.3-1.3-1-2.2l3.3-8.4c1.2-3.2 4.9-4.8 8-3.5l13.3 5.2c-.2-1.7 0-3.5.6-5.2 2.1-5.5 8.4-8.3 13.9-6.1.4.1.8.3 1.1.5 4.3 2.3 6.6 7.3 5.4 12-.6 2.2-1.8 4.2-3.5 5.6l13.3 5.2c3.2 1.2 4.8 4.9 3.5 8l-3.3 8.4c-.3.9-1.3 1.3-2.2 1L59.8 24.8zm35.3-12.9c-.2-.1-.4-.1-.5-.2-1.1-.2-2.3.3-2.8 1.3-.5.7-.6 1.6-.3 2.4.3.8.9 1.4 1.7 1.7.2.1.4.1.5.2 1.1.2 2.3-.3 2.8-1.3.5-.7.6-1.6.3-2.4-.3-.7-.9-1.4-1.7-1.7z"/><path class="st1" d="M97.4 6.1c.3.1.6.3.9.4 3.6 1.9 5.5 6.1 4.6 10.1-.8 3.1-3 5.4-5.7 6.3l16.5 6.4c2.3.9 3.5 3.5 2.6 5.8l-3.3 8.4-52.6-20.2 3.3-8.4c.9-2.3 3.5-3.5 5.8-2.6L86 18.7c-1.2-2.2-1.4-4.9-.4-7.4 1.9-4.7 7.1-7 11.8-5.2m-5 12.7c.3.1.6.2.9.2 1.8.3 3.6-.5 4.6-2 1.6-2.5.4-5.6-2.2-6.6-.3-.1-.6-.2-.9-.2-1.8-.3-3.6.5-4.6 2-1.5 2.4-.4 5.6 2.2 6.6M98.6 3a12.5 12.5 0 00-9.5.2c-3 1.3-5.4 3.8-6.6 6.9-.4 1.1-.7 2.2-.8 3.3l-11-4.3c-4.1-1.6-8.7.4-10.2 4.5L57.2 22c-.7 1.7.2 3.7 1.9 4.4l52.6 20.5c1.7.7 3.7-.2 4.4-1.9l3.3-8.4c1.6-4.1-.4-8.7-4.5-10.2l-11-4.3c1-1.3 1.8-2.9 2.2-4.5 1.4-5.5-1.3-11.3-6.3-14-.3-.3-.8-.4-1.2-.6zm-4.9 12.6c-.4-.2-.6-.5-.7-.7-.1-.2-.1-.6.1-1s.7-.6 1.1-.5c.1 0 .2 0 .2.1.4.2.6.5.7.7.1.2.1.6-.1 1s-.7.6-1.1.5c-.1 0-.2-.1-.2-.1z"/><path class="st1" d="M107 35.9L70.1 21.6c-.9-.3-1.3-1.3-1-2.2.3-.9 1.3-1.3 2.2-1l36.8 14.3c.9.3 1.3 1.3 1 2.2-.3 1-1.3 1.4-2.1 1z"/><path class="st2" d="M42.3 71.4c-.9-.3-1.3-1.3-1-2.2l3.7-9.5c.3-.9 1.3-1.3 2.2-1l9.5 3.7c.9.3 1.3 1.3 1 2.2L54 74.1c-.3.9-1.3 1.3-2.2 1l-9.5-3.7z"/><path class="st1" d="M56 64l-3.7 9.5-9.5-3.7 3.7-9.5L56 64m1.3-3.2l-9.5-3.7c-1.7-.7-3.7.2-4.4 1.9l-3.7 9.5c-.7 1.7.2 3.7 1.9 4.4l9.5 3.7c1.7.7 3.7-.2 4.4-1.9l3.7-9.5c.7-1.7-.2-3.7-1.9-4.4z"/><path class="st5" d="M49 70.3c-.4-.2-.8-.5-1-1L46.4 65c-.3-.9.1-1.9 1-2.2.9-.3 1.9.1 2.2 1l1 2.5 9.3-4.6c.8-.4 1.9-.1 2.3.8.4.8.1 1.9-.8 2.3l-10.9 5.4c-.6.3-1.1.3-1.5.1z"/><path class="st1" d="M77.2 104.9l-24.4-9.5c-.8-.3-1.2-1.3-.9-2.1l.1-.1c.3-.8 1.3-1.2 2.1-.9l24.4 9.5c.8.3 1.2 1.3.9 2.1l-.1.1c-.4.9-1.3 1.3-2.1.9zM91.2 103.1l-35.9-14c-.8-.3-1.2-1.3-.9-2.1l.1-.1c.3-.8 1.3-1.2 2.1-.9l35.9 14c.8.3 1.2 1.3.9 2.1l-.1.1c-.3.9-1.3 1.3-2.1.9zM51.2 115.5L26.9 106c-.8-.3-1.2-1.3-.9-2.1l.1-.1c.3-.8 1.3-1.2 2.1-.9l24.4 9.5c.8.3 1.2 1.3.9 2.1l-.1.1c-.4.8-1.3 1.2-2.2.9zM65.3 113.7l-35.9-14c-.8-.3-1.2-1.3-.9-2.1l.1-.1c.3-.8 1.3-1.2 2.1-.9l35.9 14c.8.3 1.2 1.3.9 2.1l-.1.1c-.4.8-1.3 1.2-2.1.9z"/><path class="st2" d="M34.9 90.3c-.9-.3-1.3-1.3-1-2.2l3.7-9.5c.3-.9 1.3-1.3 2.2-1l9.5 3.7c.9.3 1.3 1.3 1 2.2L46.6 93c-.3.9-1.3 1.3-2.2 1l-9.5-3.7z"/><path class="st1" d="M48.7 82.9L45 92.4l-9.5-3.7 3.7-9.5 9.5 3.7m1.2-3.1l-9.5-3.7c-1.7-.7-3.7.2-4.4 1.9l-3.7 9.5c-.7 1.7.2 3.7 1.9 4.4l9.5 3.7c1.7.7 3.7-.2 4.4-1.9l3.7-9.5c.7-1.8-.2-3.7-1.9-4.4z"/><path class="st5" d="M41.6 89.3c-.4-.2-.8-.5-1-1L39 84c-.3-.9.1-1.9 1-2.2.9-.3 1.9.1 2.2 1l1 2.5 9.3-4.6c.8-.4 1.9-.1 2.3.8.4.8.1 1.9-.8 2.3l-11 5.4c-.4.2-.9.3-1.4.1z"/><path class="st1" d="M88.8 55.3c-.2-.1-.3-.2-.4-.3-.8-.9-2.5-1.6-3.7-1.5-.6.1-1.2-.4-1.3-1-.1-.6.4-1.2 1-1.3 1.9-.2 4.5.7 5.7 2.2.4.5.3 1.2-.1 1.6-.4.4-.8.4-1.2.3z"/><circle class="st1" cx="88.4" cy="49.2" r="4"/><circle class="st2" cx="89.4" cy="49.6" r="1"/><path class="st1" d="M89.1 40.9c.5-.1.8-.1 1.2-.1.4 0 .8.1 1.1.2.8.2 1.5.5 2.2 1.1.7.5 1.2 1.2 1.6 2 .4.8.4 1.6.3 2.4-.1.6-.7 1.1-1.3 1-.3 0-.6-.2-.8-.5l-.2-.2c-.3-.5-.6-.9-.8-1.2-.3-.3-.5-.6-.9-.9-.3-.3-.7-.5-1.1-.8-.2-.1-.4-.3-.7-.4-.2-.1-.5-.2-.7-.4l-.4-.3c-.5-.4-.6-1.1-.2-1.6.2-.1.5-.2.7-.3zM70.4 48.1c-.4-.1-.7-.5-.7-.9-.1-.6.4-1.2 1-1.3 1.9-.2 4.5.7 5.7 2.2.4.5.3 1.2-.1 1.6-.5.4-1.2.4-1.6-.1-.8-.9-2.5-1.6-3.7-1.5-.2.1-.4.1-.6 0z"/><circle class="st1" cx="74.8" cy="43.9" r="4"/><circle class="st2" cx="75.7" cy="44.3" r="1"/><path class="st1" d="M78.4 39.3c-.2 0-.5-.2-.7-.2-.2-.1-.5-.2-.7-.2-.5-.2-.9-.3-1.3-.3-.4-.1-.8-.1-1.2-.1-.4 0-.9.1-1.5.2h-.3c-.6.1-1.2-.4-1.3-1 0-.3.1-.6.3-.9.5-.6 1.2-1.1 2-1.4.8-.3 1.7-.4 2.5-.2.8.1 1.6.5 2.3.9.3.2.6.5.9.7.3.3.5.5.7.9.3.5.2 1.2-.4 1.5-.2.2-.5.2-.8.2l-.5-.1zM74.7 64.3c-4.8-1.9-7.2-7.3-5.3-12.1.3-.7 1.1-1.1 1.8-.8L86 57.2c.7.3 1.1 1.1.8 1.8-1.9 4.8-7.3 7.2-12.1 5.3z"/><path class="st1" d="M85.5 58.5c-1.6 4.1-6.2 6.1-10.2 4.5-4.1-1.6-6.1-6.2-4.5-10.2l14.7 5.7m1-2.6l-14.7-5.7c-1.5-.6-3.1.2-3.7 1.6-2.1 5.5.6 11.7 6.1 13.9 5.5 2.1 11.7-.6 13.9-6v-.1c.6-1.5-.2-3.2-1.6-3.7zm-2.1 5.2z"/><ellipse transform="rotate(-68.728 76.174 60.522)" class="st6" cx="76.2" cy="60.5" rx="2.6" ry="5.9"/><path class="st0" d="M60.8 328.4c-4.3 1.7-9.3-.4-11-4.8L12.6 229c-1.7-4.3.4-9.3 4.8-11l78.8-31c4.3-1.7 9.3.4 11 4.8l37.3 94.6c1.7 4.3-.4 9.3-4.8 11l-78.9 31z"/><path class="st1" d="M96.8 188.6c3.5-1.4 7.4.3 8.8 3.8l37.3 94.6c1.4 3.5-.3 7.4-3.8 8.8l-78.8 31.1c-3.5 1.4-7.4-.3-8.8-3.8l-37.3-94.6c-1.4-3.5.3-7.4 3.8-8.8l78.8-31.1m-1.3-3.2l-78.8 31.1c-5.2 2.1-7.8 8-5.7 13.2l37.3 94.6c2.1 5.2 8 7.8 13.2 5.7l78.8-31.1c5.2-2.1 7.8-8 5.7-13.2l-37.3-94.6c-2-5.2-7.9-7.7-13.2-5.7z"/><path class="st2" d="M60.4 321.3c-2 .8-4.3-.2-5.1-2.2l-35.6-90.4c-.8-2 .2-4.3 2.2-5.1l74.6-29.4c2-.8 4.3.2 5.1 2.2l31.5 79.9c.2.4.2.9 0 1.3l-7.6 17.6c-.2.4-.5.7-.9.9l-64.2 25.2z"/><path class="st1" d="M97.2 195.7c1.2-.5 2.5.1 2.9 1.3l31.5 79.9-7.6 17.6-64.1 25.3c-1.2.5-2.5-.1-2.9-1.3L21.3 228c-.5-1.2.1-2.5 1.3-2.9l74.6-29.4m-1.3-3.1L21.3 222c-2.9 1.1-4.3 4.4-3.2 7.3l35.6 90.4c1.1 2.9 4.4 4.3 7.3 3.2l64.1-25.3c.8-.3 1.5-1 1.9-1.8l7.6-17.6c.4-.8.4-1.8 0-2.6l-31.5-79.9c-1-2.9-4.3-4.3-7.2-3.1z"/><path class="st3" d="M124.5 296c-.2.1-.4.1-.7.1-.7 0-1.3-.4-1.5-1.1l-4-10.1c-.9-2.3.2-4.8 2.5-5.7l10.1-4c.6-.3 1.4-.1 1.8.4.5.5.6 1.2.3 1.9l-7.6 17.6c-.1.4-.4.8-.9.9z"/><path class="st1" d="M131.6 276.9l-7.6 17.6-4-10.1c-.5-1.4.1-3 1.5-3.5l10.1-4m-1.3-3.2l-10.1 4c-3.1 1.2-4.7 4.8-3.4 7.9l4 10.1c.5 1.3 1.7 2.1 3.1 2.1.5 0 .9-.1 1.3-.2.8-.3 1.5-1 1.9-1.8l7.6-17.6c.5-1.3.3-2.7-.7-3.7s-2.4-1.3-3.7-.8zm2.5 6.3zM84.6 257.7l-13.8 5.4c-.8.3-1.8-.1-2.1-.9l-.1-.1c-.3-.8.1-1.8.9-2.1l13.8-5.4c.8-.3 1.8.1 2.1.9l.1.1c.4.8 0 1.8-.9 2.1zM104.2 242.7l-35.9 14.1c-.8.3-1.8-.1-2.1-.9l-.1-.1c-.3-.8.1-1.8.9-2.1l35.9-14.1c.8-.3 1.8.1 2.1.9l.1.1c.4.8 0 1.8-.9 2.1z"/><path class="st4" d="M35.4 225.5c-.9.3-1.9-.1-2.2-1l-3.3-8.4c-1.3-3.2.3-6.8 3.5-8.1l13.3-5.2c-1.3-1.1-2.4-2.6-3.1-4.3-2.2-5.5.5-11.7 6.1-13.9.4-.1.8-.3 1.2-.4 4.7-1.3 9.8.9 12.2 5.2 1.1 2 1.5 4.3 1.3 6.5l13.3-5.2c3.2-1.3 6.8.3 8.1 3.5l3.3 8.4c.3.9-.1 1.9-1 2.2l-52.7 20.7zM52.6 192c-.2.1-.3.2-.5.3-.9.6-1.4 1.8-1.2 2.9.2.9.7 1.6 1.4 2 .7.4 1.6.5 2.4.2.2-.1.3-.2.5-.3.9-.6 1.4-1.8 1.2-2.9-.2-.9-.7-1.6-1.4-2-.7-.4-1.6-.5-2.4-.2z"/><path class="st1" d="M50.3 186.2c.3-.1.6-.2 1-.3 4-1.1 8.2.7 10.2 4.3 1.5 2.8 1.4 6 .1 8.5l16.5-6.5c2.3-.9 4.9.2 5.9 2.5l3.3 8.4-52.5 20.7-3.3-8.4c-.9-2.3.2-4.9 2.5-5.9l16.5-6.5c-2.4-.9-4.4-2.7-5.3-5.2-1.8-4.5.5-9.7 5.1-11.6m5 12.6c.3-.1.5-.2.8-.4 1.5-1 2.3-2.8 2-4.6-.5-2.9-3.5-4.4-6.1-3.4-.3.1-.5.2-.8.4-1.5 1-2.3 2.8-2 4.6.5 2.9 3.5 4.5 6.1 3.4m-6.2-15.7c-3.1 1.2-5.5 3.6-6.8 6.6-1.3 3-1.4 6.4-.2 9.5.4 1.1 1 2.1 1.7 3l-11 4.3c-4.1 1.6-6.1 6.2-4.5 10.3l3.3 8.4c.7 1.7 2.7 2.6 4.4 1.9l52.5-20.7c1.7-.7 2.6-2.7 1.9-4.4l-3.3-8.4c-1.6-4.1-6.2-6.1-10.3-4.5l-11 4.3c-.2-1.7-.7-3.3-1.5-4.8-2.7-4.9-8.6-7.5-14.1-6-.2.2-.7.3-1.1.5zm5 12.6c-.4.2-.8 0-1-.1-.2-.1-.5-.4-.6-.8-.1-.4.1-.9.5-1.1.1 0 .2-.1.2-.1.4-.2.8 0 1 .1.2.1.5.4.6.8.1.4-.1.9-.5 1.1-.1 0-.2.1-.2.1z"/><path class="st1" d="M77.6 201.6l-36.8 14.5c-.9.3-1.9-.1-2.2-1-.3-.9.1-1.9 1-2.2l36.8-14.5c.9-.3 1.9.1 2.2 1s-.1 1.8-1 2.2z"/><path class="st2" d="M54.2 271.5c-.9.3-1.9-.1-2.2-1l-3.7-9.5c-.3-.9.1-1.9 1-2.2l9.5-3.7c.9-.3 1.9.1 2.2 1l3.7 9.5c.3.9-.1 1.9-1 2.2l-9.5 3.7z"/><path class="st1" d="M59.3 256.8l3.7 9.5-9.5 3.7-3.7-9.5 9.5-3.7m-1.2-3.2l-9.5 3.7c-1.7.7-2.6 2.7-1.9 4.4l3.7 9.5c.7 1.7 2.7 2.6 4.4 1.9l9.5-3.7c1.7-.7 2.6-2.7 1.9-4.4l-3.7-9.5c-.7-1.7-2.7-2.6-4.4-1.9z"/><path class="st5" d="M58.4 266.2c-.4.2-.9.2-1.4-.1l-4.1-2c-.8-.4-1.2-1.4-.8-2.3s1.4-1.2 2.3-.8l2.4 1.2 3.7-9.7c.3-.9 1.3-1.3 2.2-1 .9.3 1.3 1.3 1 2.2l-4.3 11.4c-.2.6-.5.9-1 1.1z"/><path class="st1" d="M102.6 272.5l-24.3 9.6c-.8.3-1.8-.1-2.1-.9l-.1-.1c-.3-.8.1-1.8.9-2.1l24.3-9.6c.8-.3 1.8.1 2.1.9l.1.1c.3.8-.1 1.8-.9 2.1zM111.7 261.6l-35.9 14.1c-.8.3-1.8-.1-2.1-.9l-.1-.1c-.3-.8.1-1.8.9-2.1l35.9-14.1c.8-.3 1.8.1 2.1.9l.1.1c.3.9-.1 1.8-.9 2.1z"/><g><path class="st1" d="M90.7 297.8l-24.3 9.6c-.8.3-1.8-.1-2.1-.9l-.1-.1c-.3-.8.1-1.8.9-2.1l24.3-9.6c.8-.3 1.8.1 2.1.9l.1.1c.4.8 0 1.8-.9 2.1z"/></g><g><path class="st1" d="M99.8 286.9L63.9 301c-.8.3-1.8-.1-2.1-.9l-.1-.1c-.3-.8.1-1.8.9-2.1l35.9-14.1c.8-.3 1.8.1 2.1.9l.1.1c.3.9-.1 1.8-.9 2.1z"/></g><g><path class="st2" d="M61.6 290.4c-.9.3-1.9-.1-2.2-1l-3.7-9.5c-.3-.9.1-1.9 1-2.2l9.5-3.7c.9-.3 1.9.1 2.2 1l3.7 9.5c.3.9-.1 1.9-1 2.2l-9.5 3.7z"/><path class="st1" d="M66.8 275.7l3.7 9.5-9.5 3.7-3.7-9.5 9.5-3.7m-1.3-3.2l-9.5 3.7c-1.7.7-2.6 2.7-1.9 4.4l3.7 9.5c.7 1.7 2.7 2.6 4.4 1.9l9.5-3.7c1.7-.7 2.6-2.7 1.9-4.4l-3.7-9.5c-.7-1.7-2.6-2.6-4.4-1.9z"/></g><g><path class="st5" d="M65.9 285.1c-.4.2-.9.2-1.4-.1l-4.1-2c-.8-.4-1.2-1.4-.8-2.3.4-.8 1.4-1.2 2.3-.8l2.4 1.2 3.7-9.7c.3-.9 1.3-1.3 2.2-1 .9.3 1.3 1.3 1 2.2L66.9 284c-.2.6-.6 1-1 1.1z"/></g><g><path class="st1" d="M77.5 228.1c-.2.1-.4.1-.5.1-1.2-.1-3 .5-3.7 1.5-.4.5-1.1.5-1.6.1s-.5-1.1-.1-1.6c1.3-1.5 3.8-2.5 5.7-2.3.6.1 1.1.6 1 1.3-.2.4-.5.8-.8.9z"/><circle class="st1" cx="73.1" cy="223.9" r="4"/><circle class="st2" cx="74" cy="223.6" r="1"/><path class="st1" d="M67.9 217.3c.3-.4.5-.6.8-.9.3-.2.6-.5 1-.7.7-.4 1.5-.6 2.3-.7.8-.1 1.7.1 2.5.4.8.3 1.4.9 1.9 1.6.4.5.2 1.2-.3 1.6-.3.2-.6.2-.9.2l-.3-.1c-.6-.1-1-.3-1.4-.3-.4-.1-.8-.1-1.2-.1-.4 0-.9.1-1.4.2-.2.1-.5.1-.8.2-.3.1-.5.2-.8.2h-.4c-.6.1-1.2-.4-1.2-1 0-.1.1-.3.2-.6zM59.1 235.4c-.4.1-.8.1-1.1-.2-.5-.4-.5-1.1-.1-1.6 1.3-1.5 3.8-2.5 5.7-2.3.6.1 1.1.6 1 1.3-.1.6-.6 1.1-1.3 1-1.2-.1-3 .5-3.7 1.5-.2.1-.4.2-.5.3z"/><circle class="st1" cx="59.4" cy="229.3" r="4"/><circle class="st2" cx="60.3" cy="228.9" r="1"/><g><path class="st1" d="M58.9 223.5c-.2.1-.5.2-.7.3-.2.1-.5.2-.7.3-.5.2-.9.4-1.2.7-.4.2-.6.5-.9.8-.3.3-.6.7-.9 1.1l-.2.2c-.4.5-1.1.5-1.6.1-.2-.2-.4-.5-.4-.8-.1-.8.1-1.6.5-2.4.4-.8 1-1.4 1.7-1.9s1.5-.8 2.3-.9c.4-.1.8-.1 1.2-.1.4 0 .7.1 1.2.2.6.2.9.8.8 1.4-.1.3-.3.5-.5.6l-.6.4z"/></g><g><path class="st1" d="M73.2 244.3c-4.8 1.9-10.2-.5-12.1-5.3-.3-.7.1-1.5.8-1.8l14.7-5.8c.7-.3 1.5.1 1.8.8 1.9 4.8-.4 10.2-5.2 12.1z"/><path class="st1" d="M77.2 232.7c1.6 4.1-.4 8.7-4.5 10.3-4.1 1.6-8.7-.4-10.3-4.5l14.8-5.8m-1.1-2.6l-14.7 5.8c-1.5.6-2.2 2.2-1.6 3.7 2.2 5.5 8.4 8.2 13.9 6.1 5.5-2.2 8.2-8.3 6.1-13.8v-.1c-.6-1.6-2.2-2.3-3.7-1.7zm2.1 5.3z"/><g><ellipse transform="rotate(-21.503 71.725 240.56)" class="st6" cx="71.7" cy="240.5" rx="5.9" ry="2.6"/></g></g></g><g><path class="st0" d="M9.5 471.6c-4.4-1.7-6.5-6.6-4.8-11l36.9-94.7c1.7-4.4 6.6-6.5 11-4.8l78.9 30.7c4.4 1.7 6.5 6.6 4.8 11l-36.9 94.7c-1.7 4.4-6.6 6.5-11 4.8L9.5 471.6z"/><path class="st1" d="M130.9 393.4c3.5 1.4 5.2 5.3 3.9 8.8l-36.9 94.7c-1.4 3.5-5.3 5.2-8.8 3.9l-79-30.8c-3.5-1.4-5.2-5.3-3.9-8.8l36.9-94.7c1.4-3.5 5.3-5.2 8.8-3.9l79 30.8m1.2-3.2l-78.9-30.7c-5.2-2-11.1.6-13.2 5.8L3.1 460c-2 5.2.6 11.1 5.8 13.2l78.9 30.7c5.2 2 11.1-.6 13.2-5.8l36.9-94.7c2-5.2-.6-11.1-5.8-13.2z"/></g><g><path class="st2" d="M14.1 466.1c-2-.8-3-3.1-2.2-5.1l35.2-90.5c.8-2 3.1-3 5.1-2.2l74.7 29.1c2 .8 3 3.1 2.2 5.1l-31.1 80c-.2.4-.5.8-.9.9l-17.5 7.7c-.4.2-.9.2-1.3 0l-64.2-25z"/><path class="st1" d="M126.3 398.9c1.2.5 1.7 1.8 1.3 2.9l-31.1 80-17.5 7.7-64.2-25c-1.2-.5-1.7-1.8-1.3-2.9l35.2-90.5c.5-1.2 1.8-1.7 2.9-1.3l74.7 29.1m1.2-3.2l-74.7-29.1c-2.9-1.1-6.2.3-7.3 3.2l-35.2 90.5c-1.1 2.9.3 6.2 3.2 7.3l64.2 25c.8.3 1.8.3 2.6-.1l17.5-7.7c.8-.4 1.5-1 1.8-1.9l31.1-80c1.2-2.7-.3-6-3.2-7.2z"/></g><g><path class="st3" d="M78.3 491.1c-.2-.1-.4-.2-.6-.4-.5-.5-.7-1.2-.4-1.8l3.9-10.1c.9-2.3 3.4-3.4 5.7-2.5l10.1 3.9c.6.2 1.1.9 1.1 1.5 0 .7-.4 1.3-1 1.6L79.6 491c-.5.3-.9.3-1.3.1z"/><path class="st1" d="M96.4 481.8l-17.5 7.7 3.9-10.1c.5-1.4 2.1-2.1 3.5-1.5l10.1 3.9m1.3-3.1l-10.1-3.9c-3.1-1.2-6.7.3-7.9 3.5l-3.9 10.1c-.5 1.3-.2 2.7.8 3.7.3.3.7.6 1.1.7.8.3 1.8.3 2.6-.1l17.5-7.7c1.3-.6 2.1-1.8 2-3.2 0-1.4-.9-2.6-2.1-3.1zm-2.5 6.3z"/></g><g><path class="st1" d="M75 435.9l-13.8-5.4c-.8-.3-1.2-1.3-.9-2.1l.1-.1c.3-.8 1.3-1.2 2.1-.9l13.8 5.4c.8.3 1.2 1.3.9 2.1l-.1.1c-.3.8-1.3 1.2-2.1.9z"/></g><g><path class="st1" d="M99.6 438.2l-35.9-14c-.8-.3-1.2-1.3-.9-2.1l.1-.1c.3-.8 1.3-1.2 2.1-.9l35.9 14c.8.3 1.2 1.3.9 2.1l-.1.1c-.4.8-1.3 1.2-2.1.9z"/></g><g><path class="st4" d="M60.8 378.8c-.9-.3-1.3-1.3-1-2.2l3.3-8.4c1.2-3.2 4.9-4.8 8-3.5l13.3 5.2c-.2-1.7 0-3.5.6-5.2 2.1-5.5 8.4-8.3 13.9-6.1.4.1.8.3 1.1.5 4.3 2.3 6.6 7.3 5.4 12-.6 2.2-1.8 4.2-3.5 5.6l13.3 5.2c3.2 1.2 4.8 4.9 3.5 8l-3.3 8.4c-.3.9-1.3 1.3-2.2 1l-52.4-20.5zm35.3-12.9c-.2-.1-.4-.1-.5-.2-1.1-.2-2.3.3-2.8 1.3-.5.7-.6 1.6-.3 2.4.3.8.9 1.4 1.7 1.7.2.1.4.1.5.2 1.1.2 2.3-.3 2.8-1.3.5-.7.6-1.6.3-2.4-.3-.7-.9-1.4-1.7-1.7z"/><path class="st1" d="M98.4 360.1c.3.1.6.3.9.4 3.6 1.9 5.5 6.1 4.6 10.1-.8 3.1-3 5.4-5.7 6.3l16.5 6.4c2.3.9 3.5 3.5 2.6 5.8l-3.3 8.4L61.4 377l3.3-8.4c.9-2.3 3.5-3.5 5.8-2.6l16.5 6.4c-1.2-2.2-1.4-4.9-.4-7.4 1.9-4.4 7.1-6.7 11.8-4.9m-5 12.7c.3.1.6.2.9.2 1.8.3 3.6-.5 4.6-2 1.6-2.5.4-5.6-2.2-6.6-.3-.1-.6-.2-.9-.2-1.8-.3-3.6.5-4.6 2-1.5 2.4-.4 5.6 2.2 6.6m6.2-15.8a12.5 12.5 0 00-9.5.2c-3 1.3-5.4 3.8-6.6 6.9-.4 1.1-.7 2.2-.8 3.3l-11-4.3c-4.1-1.6-8.7.4-10.2 4.5l-3.3 8.4c-.7 1.7.2 3.7 1.9 4.4l52.6 20.5c1.7.7 3.7-.2 4.4-1.9l3.3-8.4c1.6-4.1-.4-8.7-4.5-10.2l-11-4.3c1-1.3 1.8-2.9 2.2-4.5 1.4-5.5-1.3-11.3-6.3-14-.3-.3-.8-.4-1.2-.6zm-4.9 12.6c-.4-.2-.6-.5-.7-.7-.1-.2-.1-.6.1-1s.7-.6 1.1-.5c.1 0 .2 0 .2.1.4.2.6.5.7.7.1.2.1.6-.1 1s-.7.6-1.1.5c-.1 0-.2-.1-.2-.1z"/></g><path class="st1" d="M108 389.9l-36.8-14.3c-.9-.3-1.3-1.3-1-2.2.3-.9 1.3-1.3 2.2-1l36.8 14.3c.9.3 1.3 1.3 1 2.2-.4 1-1.4 1.4-2.2 1z"/><g><path class="st2" d="M43.3 425.4c-.9-.3-1.3-1.3-1-2.2l3.7-9.5c.3-.9 1.3-1.3 2.2-1l9.5 3.7c.9.3 1.3 1.3 1 2.2l-3.7 9.5c-.3.9-1.3 1.3-2.2 1l-9.5-3.7z"/><path class="st1" d="M57 418l-3.7 9.5-9.5-3.7 3.7-9.5L57 418m1.3-3.2l-9.5-3.7c-1.7-.7-3.7.2-4.4 1.9l-3.7 9.5c-.7 1.7.2 3.7 1.9 4.4l9.5 3.7c1.7.7 3.7-.2 4.4-1.9l3.7-9.5c.7-1.7-.2-3.7-1.9-4.4z"/></g><g><path class="st5" d="M50 424.3c-.4-.2-.8-.5-1-1l-1.6-4.3c-.3-.9.1-1.9 1-2.2.9-.3 1.9.1 2.2 1l1 2.5 9.3-4.6c.8-.4 1.9-.1 2.3.8.4.8.1 1.9-.8 2.3l-10.9 5.4c-.6.3-1.1.3-1.5.1z"/></g><g><path class="st1" d="M78.2 458.9l-24.4-9.5c-.8-.3-1.2-1.3-.9-2.1l.1-.1c.3-.8 1.3-1.2 2.1-.9l24.4 9.5c.8.3 1.2 1.3.9 2.1l-.1.1c-.4.9-1.3 1.3-2.1.9z"/></g><g><path class="st1" d="M92.2 457.1l-35.9-14c-.8-.3-1.2-1.3-.9-2.1l.1-.1c.3-.8 1.3-1.2 2.1-.9l35.9 14c.8.3 1.2 1.3.9 2.1l-.1.1c-.3.9-1.3 1.3-2.1.9z"/></g><g><path class="st1" d="M52.2 469.5L27.9 460c-.8-.3-1.2-1.3-.9-2.1l.1-.1c.3-.8 1.3-1.2 2.1-.9l24.4 9.5c.8.3 1.2 1.3.9 2.1l-.1.1c-.4.8-1.3 1.2-2.2.9z"/></g><g><path class="st1" d="M66.3 467.7l-35.9-14c-.8-.3-1.2-1.3-.9-2.1l.1-.1c.3-.8 1.3-1.2 2.1-.9l35.9 14c.8.3 1.2 1.3.9 2.1l-.1.1c-.4.8-1.3 1.2-2.1.9z"/></g><g><path class="st2" d="M35.9 444.3c-.9-.3-1.3-1.3-1-2.2l3.7-9.5c.3-.9 1.3-1.3 2.2-1l9.5 3.7c.9.3 1.3 1.3 1 2.2l-3.7 9.5c-.3.9-1.3 1.3-2.2 1l-9.5-3.7z"/><path class="st1" d="M49.7 436.9l-3.7 9.5-9.5-3.7 3.7-9.5 9.5 3.7m1.2-3.1l-9.5-3.7c-1.7-.7-3.7.2-4.4 1.9l-3.7 9.5c-.7 1.7.2 3.7 1.9 4.4l9.5 3.7c1.7.7 3.7-.2 4.4-1.9l3.7-9.5c.7-1.8-.2-3.7-1.9-4.4z"/></g><g><path class="st5" d="M42.6 443.3c-.4-.2-.8-.5-1-1L40 438c-.3-.9.1-1.9 1-2.2.9-.3 1.9.1 2.2 1l1 2.5 9.3-4.6c.8-.4 1.9-.1 2.3.8.4.8.1 1.9-.8 2.3l-11 5.4c-.4.2-.9.3-1.4.1z"/></g><g><path class="st1" d="M89.8 409.3c-.2-.1-.3-.2-.4-.3-.8-.9-2.5-1.6-3.7-1.5-.6.1-1.2-.4-1.3-1-.1-.6.4-1.2 1-1.3 1.9-.2 4.5.7 5.7 2.2.4.5.3 1.2-.1 1.6-.4.4-.8.4-1.2.3z"/><circle class="st1" cx="89.4" cy="403.2" r="4"/><circle class="st2" cx="90.4" cy="403.6" r="1"/><path class="st1" d="M90.1 394.9c.5-.1.8-.1 1.2-.1.4 0 .8.1 1.1.2.8.2 1.5.5 2.2 1.1.7.5 1.2 1.2 1.6 2 .4.8.4 1.6.3 2.4-.1.6-.7 1.1-1.3 1-.3 0-.6-.2-.8-.5l-.2-.2c-.3-.5-.6-.9-.8-1.2-.3-.3-.5-.6-.9-.9-.3-.3-.7-.5-1.1-.8-.2-.1-.4-.3-.7-.4-.2-.1-.5-.2-.7-.4l-.4-.3c-.5-.4-.6-1.1-.2-1.6.2-.1.5-.2.7-.3zM71.4 402.1c-.4-.1-.7-.5-.7-.9-.1-.6.4-1.2 1-1.3 1.9-.2 4.5.7 5.7 2.2.4.5.3 1.2-.1 1.6-.5.4-1.2.4-1.6-.1-.8-.9-2.5-1.6-3.7-1.5-.2.1-.4.1-.6 0z"/><circle class="st1" cx="75.8" cy="397.9" r="4"/><circle class="st2" cx="76.7" cy="398.3" r="1"/><g><path class="st1" d="M79.4 393.3c-.2 0-.5-.2-.7-.2-.2-.1-.5-.2-.7-.2-.5-.2-.9-.3-1.3-.3-.4-.1-.8-.1-1.2-.1-.4 0-.9.1-1.5.2h-.3c-.6.1-1.2-.4-1.3-1 0-.3.1-.6.3-.9.5-.6 1.2-1.1 2-1.4.8-.3 1.7-.4 2.5-.2.8.1 1.6.5 2.3.9.3.2.6.5.9.7.3.3.5.5.7.9.3.5.2 1.2-.4 1.5-.2.2-.5.2-.8.2l-.5-.1z"/></g><g><path class="st1" d="M75.7 418.3c-4.8-1.9-7.2-7.3-5.3-12.1.3-.7 1.1-1.1 1.8-.8l14.7 5.7c.7.3 1.1 1.1.8 1.8a9.16 9.16 0 01-12 5.4z"/><path class="st1" d="M86.5 412.5c-1.6 4.1-6.2 6.1-10.2 4.5-4.1-1.6-6.1-6.2-4.5-10.2l14.7 5.7m1-2.6l-14.7-5.7c-1.5-.6-3.1.2-3.7 1.6-2.1 5.5.6 11.7 6.1 13.9 5.5 2.1 11.7-.6 13.9-6v-.1c.6-1.5-.2-3.2-1.6-3.7zm-2.1 5.2z"/><g><ellipse transform="rotate(-68.728 77.165 414.498)" class="st6" cx="77.2" cy="414.5" rx="2.6" ry="5.9"/></g></g></g></svg>