<?xml version="1.0" encoding="utf-8"?>
<!-- Generator: Adobe Illustrator 25.0.0, SVG Export Plug-In . SVG Version: 6.00 Build 0)  -->
<svg version="1.1" id="Layer_1" xmlns="http://www.w3.org/2000/svg" xmlns:xlink="http://www.w3.org/1999/xlink" x="0px" y="0px"
	 viewBox="0 0 128.7 180" style="enable-background:new 0 0 128.7 180;" xml:space="preserve">
<style type="text/css">
	.st0{fill:#87796F;}
	.st1{fill:#35414D;}
	.st2{fill-rule:evenodd;clip-rule:evenodd;fill:#FFF2E8;}
	.st3{fill-rule:evenodd;clip-rule:evenodd;fill:#FFE4CF;}
	.st4{fill-rule:evenodd;clip-rule:evenodd;fill:#CECECE;}
	.st5{fill-rule:evenodd;clip-rule:evenodd;fill:#838383;}
	.st6{fill-rule:evenodd;clip-rule:evenodd;fill:#FE9737;}
	.st7{fill-rule:evenodd;clip-rule:evenodd;fill:#B5ADB6;}
	.st8{fill-rule:evenodd;clip-rule:evenodd;fill:#F36B37;}
	.st9{fill-rule:evenodd;clip-rule:evenodd;fill:#595959;}
	.st10{fill-rule:evenodd;clip-rule:evenodd;fill:#35414D;}
	.st11{fill:#60A917;}
	.st12{fill:#FE9737;}
	.st13{fill:#D8D8D8;}
	.st14{fill-rule:evenodd;clip-rule:evenodd;fill:#99DD58;}
	.st15{fill:#FF5A5A;}
	.st16{fill-rule:evenodd;clip-rule:evenodd;fill:#97DA7B;}
	.st17{fill-rule:evenodd;clip-rule:evenodd;fill:#68CA44;}
	.st18{fill:#6F909E;}
</style>
<g>
	<g>
		<g>
			<path class="st0" d="M13.7,178.5c-6.7,0-12.2-5.5-12.2-12.2V29.1C1.5,22.4,7,17,13.7,17H115c6.7,0,12.2,5.5,12.2,12.2v137.2
				c0,6.7-5.5,12.2-12.2,12.2H13.7z"/>
		</g>
		<g>
			<path class="st1" d="M115,18.5c5.9,0,10.6,4.8,10.6,10.6v137.2c0,5.9-4.8,10.6-10.6,10.6H13.7c-5.9,0-10.6-4.8-10.6-10.6V29.1
				c0-5.9,4.8-10.6,10.6-10.6H115 M115,15.4H13.7C6.1,15.4,0,21.6,0,29.1v137.2c0,7.6,6.1,13.7,13.7,13.7H115
				c7.6,0,13.7-6.1,13.7-13.7V29.1C128.7,21.6,122.6,15.4,115,15.4L115,15.4z"/>
		</g>
	</g>
	<g id="g7750_26_" transform="translate(18.5,457.4355)">
		<g id="path7752_26_">
			<path class="st2" d="M-8.6-418.5v130c0,1.1,0.8,2,1.8,2h29.5h63.1h12.5c1,0,1.9-0.9,1.9-2v-119.4l0-1.2c0-0.2,0-0.3-0.1-0.4h-15
				c-4.1,0-7.4-3.6-7.4-7.9l0-14.8c-0.1-0.1-0.3-0.1-0.5-0.1h-1.4H-6.7c-1,0-1.8,0.9-1.8,2V-418.5z"/>
		</g>
	</g>
	<g id="g7754_27_" transform="translate(257.3203,504.5)">
		<g id="path7756_27_">
			<path class="st3" d="M-181.5-479.4c14.2,15.6,23.5,41,23.5,69.6c0,6.2-0.4,12.3-1.3,18.1c-0.3,1.9-0.6,3.7-0.9,5.6
				c-0.4,2.2-0.9,4.4-1.4,6.5c-4.9,19.9-14.6,36.3-26.8,46h35.6h12.5c1,0,1.9-0.9,1.9-2v-22v-29.2v-68.1l0-1.2c0-0.2,0-0.3-0.1-0.4
				l-22.4-22.7c-0.1-0.1-0.3-0.1-0.5-0.1h-1.4H-181.5z"/>
		</g>
	</g>
	<g id="g7758_26_" transform="translate(331.5508,504.1592)">
		<g id="path7760_26_">
			<path class="st4" d="M-235.3-479l0,14.8c0,4.4,3.4,7.9,7.4,7.9h15c-0.1-0.3-0.4-0.5-1-1.1l-20.3-20.5
				C-234.7-478.5-235-478.8-235.3-479"/>
		</g>
	</g>
	<g id="g7762_26_" transform="translate(331.5508,504.1592)">
		<g id="path7764_26_">
			<path class="st1" d="M-214.2-454.7h-13.6c-5,0-9-4.2-9-9.5l0-14.8c0-0.9,0.7-1.5,1.5-1.5c0,0,0,0,0,0c0.9,0,1.5,0.7,1.5,1.5
				l0,14.8c0,3.5,2.6,6.4,5.9,6.4h13.6c0.9,0,1.5,0.7,1.5,1.5S-213.4-454.7-214.2-454.7z"/>
		</g>
	</g>
	<g id="g7766_26_" transform="translate(413.1929,241.0635)">
		<g id="path7768_26_">
			<path class="st1" d="M-296.3-68.6h-105.1c-1.9,0-3.4-1.6-3.4-3.5V-214c0-1.9,1.5-3.5,3.4-3.5h84c1.1,0,1.7,0.6,2.5,1.3l0.3,0.3
				l21.1,21.4c0.3,0.3,0.4,0.7,0.4,1.1c0.1,0.2,0.2,0.5,0.2,0.8v120.5C-292.9-70.2-294.4-68.6-296.3-68.6z M-401.7-153.3v81.1
				c0,0.2,0.2,0.4,0.3,0.4h105.1c0.1,0,0.3-0.2,0.3-0.4v-120.4l-21.2-21.5c-0.1-0.1-0.3-0.3-0.4-0.4h-83.8c-0.1,0-0.3,0.2-0.3,0.4
				V-153.3z"/>
		</g>
	</g>
	<g>
		<g id="g7770_20_" transform="translate(330.2446,64.9756)">
			<g id="path7772_20_">
				<path class="st1" d="M-251.3,96.6c-0.9,0-1.7-0.7-2.4-1.3c-0.8-0.8-1-0.6-1.8,0.1c-0.8,0.7-2.1,1.9-4.2,0
					c-0.3-0.2-0.3-0.7,0-0.9c0.2-0.3,0.7-0.3,0.9,0c1.2,1.1,1.6,0.7,2.4,0c0.7-0.6,1.9-1.7,3.6,0c0.4,0.4,1,1,1.5,0.9
					c0.3,0,0.6-0.2,0.9-0.6c0.4-0.5,0.7-1,0.9-1.4c0.5-0.8,0.9-1.6,1.7-1.7c0.9-0.2,1.5,0.7,1.9,1.4c0.6,1,1.3,2.1,2.9,1.9
					c0.4,0,0.7,0.2,0.7,0.6c0,0.4-0.2,0.7-0.6,0.7c-2.5,0.3-3.6-1.5-4.2-2.6c-0.2-0.3-0.5-0.8-0.6-0.8c-0.2,0.1-0.5,0.5-0.8,1.1
					c-0.3,0.5-0.6,1-1,1.6c-0.6,0.7-1.2,1.1-1.8,1.1C-251.2,96.6-251.2,96.6-251.3,96.6z"/>
			</g>
		</g>
		<g id="g7774_20_" transform="translate(423.1602,447.0527)">
			<g id="path7776_20_">
				<path class="st4" d="M-321.3-345.9l6,1.8l1.5-5.2c0.5-1.7-0.5-3.4-2.1-3.9c-1.7-0.5-3.4,0.5-3.9,2.1L-321.3-345.9z"/>
			</g>
		</g>
		<g id="g7778_20_" transform="translate(325.644,101.1182)">
			<g id="path7780_20_">
				<path class="st5" d="M-238.9,53.8l0.6,5.3c0.1,0.3,0.1,0.4,0.3,0.1l3.4-4.1l3.7-4.4l-3.5-4.2l-5.2,1.6L-238.9,53.8z"/>
			</g>
		</g>
		<g id="g7782_20_" transform="translate(412.0854,441.0947)">
			<g id="path7784_20_">
				<path class="st6" d="M-311.9-339l-14.1,47l4.3,1.3l4.3,1.3l13-43.6l1-3.4c0.2-0.7-0.2-1.5-0.9-1.7l-6-1.8
					C-310.9-340.1-311.7-339.7-311.9-339"/>
			</g>
		</g>
		<g id="g7786_20_" transform="translate(452.5229,474.4854)">
			<g id="path7788_20_">
				<path class="st7" d="M-346.1-377.6l-1.5,5.2l3,0.9l1.5-5.2c0.5-1.7-0.5-3.4-2.1-3.9c-0.6-0.2-1.1-0.2-1.6,0
					C-346.1-379.8-345.7-378.7-346.1-377.6"/>
			</g>
		</g>
		<g id="g7790_20_" transform="translate(441.9307,407.96)">
			<g id="path7792_20_">
				<path class="st8" d="M-337.1-300.7l-12.4,41.5l-0.6,2l3,0.9l13-43.6l1-3.4c0.2-0.7-0.2-1.5-0.9-1.7l-3-0.9
					c0.7,0.2,1.1,1,0.9,1.7L-337.1-300.7z"/>
			</g>
		</g>
		<g id="g7794_20_" transform="translate(357.9888,127.2178)">
			<g id="path7796_20_">
				<path class="st9" d="M-266.2,23.6l-3.7,4.4l-1.1,1.4l0.4,3.6c0.1,0.3,0.1,0.4,0.3,0.1l3.4-4.1l3.7-4.4L-266.2,23.6z"/>
			</g>
		</g>
		<g id="g7798_20_" transform="translate(461.3545,402.1719)">
			<g id="path7800_20_">
				<path class="st1" d="M-353.6-274.9c-0.1,0-0.1,0-0.2,0c-0.4-0.1-0.6-0.5-0.4-0.8l4.9-16.3l-4.4-1.3c-0.4-0.1-0.5-0.5-0.4-0.8
					c0.1-0.4,0.5-0.6,0.8-0.4l5,1.5c0.2,0.1,0.3,0.2,0.4,0.3c0.1,0.2,0.1,0.3,0.1,0.5l-5.1,16.9
					C-353.1-275.1-353.3-274.9-353.6-274.9z"/>
			</g>
		</g>
		<g id="g7802_20_" transform="translate(374.0615,313.9443)">
			<g id="path7804_20_">
				<path class="st1" d="M-279.3-161.6c-0.1,0-0.1,0-0.2,0l-8.7-2.6c-0.2-0.1-0.3-0.2-0.4-0.3c-0.1-0.2-0.1-0.3-0.1-0.5l6.6-22.1
					c0.1-0.4,0.5-0.6,0.8-0.4c0.4,0.1,0.6,0.5,0.4,0.8l-6.4,21.5l7.4,2.2l13.9-46.4c0.1-0.2,0-0.4-0.1-0.5c-0.1-0.2-0.2-0.3-0.4-0.3
					l-6-1.8c-0.4-0.1-0.8,0.1-0.9,0.5l-5.9,19.7c-0.1,0.4-0.5,0.6-0.8,0.4c-0.4-0.1-0.6-0.5-0.4-0.8l5.9-19.7
					c0.3-1.1,1.5-1.7,2.5-1.4l6,1.8c0.5,0.2,1,0.5,1.2,1c0.3,0.5,0.3,1,0.2,1.6l-14.1,47C-278.7-161.7-279-161.6-279.3-161.6z"/>
			</g>
		</g>
		<g id="g7806_20_" transform="translate(331.5225,66.168)">
			<g id="path7808_20_">
				<path class="st1" d="M-244.1,95c-0.1,0-0.1,0-0.2,0c-0.4-0.1-0.5-0.5-0.5-0.8l-1.3-11.1c0-0.2,0.1-0.4,0.2-0.6s0.4-0.2,0.6-0.1
					l8.7,2.6c0.2,0.1,0.4,0.2,0.4,0.4c0.1,0.2,0,0.4-0.1,0.6l-7.1,8.6c0,0,0,0,0,0C-243.5,94.7-243.7,95-244.1,95z M-243.9,94.1
					L-243.9,94.1L-243.9,94.1z M-244.6,83.9l1,8.9l5.7-6.9L-244.6,83.9z"/>
			</g>
		</g>
		<g id="g7810_20_" transform="translate(423.1602,447.0527)">
			<g id="path7812_20_">
				<path class="st1" d="M-315.2-343.4c-0.1,0-0.1,0-0.2,0l-6-1.8c-0.2-0.1-0.3-0.2-0.4-0.3c-0.1-0.2-0.1-0.3-0.1-0.5l1.5-5.2
					c0.3-1,0.9-1.8,1.8-2.3c0.9-0.5,1.9-0.6,2.9-0.3c1,0.3,1.8,0.9,2.3,1.8c0.5,0.9,0.6,1.9,0.3,2.9l-1.5,5.2
					C-314.7-343.6-315-343.4-315.2-343.4z M-320.4-346.3l4.8,1.4l1.4-4.5c0.2-0.6,0.1-1.3-0.2-1.9c-0.3-0.6-0.8-1-1.5-1.2
					c-0.6-0.2-1.3-0.1-1.9,0.2s-1,0.8-1.2,1.5L-320.4-346.3z"/>
			</g>
		</g>
	</g>
	<g>
		<g>
			<path class="st10" d="M24.1,103.8c-0.7,0-1.2,0.5-1.2,1.2v14.3c0,0.7,0.5,1.2,1.2,1.2h14.3c0.7,0,1.2-0.5,1.2-1.2v-7.2
				c0-0.7,0.5-1.2,1.2-1.2s1.2,0.5,1.2,1.2v7.2c0,2-1.6,3.6-3.6,3.6H24.1c-2,0-3.6-1.6-3.6-3.6V105c0-2,1.6-3.6,3.6-3.6h11.9
				c0.7,0,1.2,0.5,1.2,1.2s-0.5,1.2-1.2,1.2H24.1z M41.2,102.9c0.5-0.5,1.2-0.5,1.7,0c0.5,0.5,0.5,1.2,0,1.7l-10.7,10.7
				c-0.5,0.5-1.2,0.5-1.7,0l-3.6-3.6c-0.5-0.5-0.5-1.2,0-1.7c0.5-0.5,1.2-0.5,1.7,0l2.7,2.7L41.2,102.9z"/>
		</g>
	</g>
	<g>
		<g>
			<path class="st1" d="M88.3,67.6c-0.3-0.3-0.6-0.5-1-0.5c-0.2,0-0.4,0-0.6,0.1l-7.1,2.5c-0.8,0.3-1.2,1.1-0.9,1.9
				c0.3,0.8,1.1,1.2,1.9,0.9l3.7-1.3L79.1,82l-6.3-3c-0.7-0.4-1.6,0-2,0.7c0,0,0,0,0,0l-5.5,11.5c-0.4,0.7,0,1.6,0.7,2c0,0,0,0,0,0
				c0.7,0.4,1.6,0,2-0.7c0,0,0,0,0,0l4.9-10.2l6.3,3c0.7,0.4,1.6,0,2-0.7c0,0,0,0,0,0L87,72.6l1.3,3.7c0.3,0.8,1.1,1.2,1.9,0.9
				c0.8-0.3,1.2-1.1,0.9-1.9l-2.5-7.1C88.5,67.9,88.4,67.8,88.3,67.6L88.3,67.6z"/>
		</g>
		<g>
			<path class="st11" d="M87.6,67.1c-0.3-0.3-0.6-0.5-1-0.5c-0.2,0-0.4,0-0.6,0.1l-7.1,2.5c-0.8,0.3-1.2,1.1-0.9,1.9
				c0.3,0.8,1.1,1.2,1.9,0.9l3.7-1.3l-5.1,10.7l-6.3-3c-0.7-0.4-1.6,0-2,0.7c0,0,0,0,0,0l-5.5,11.5c-0.4,0.7,0,1.6,0.7,2
				c0,0,0,0,0,0c0.7,0.4,1.6,0,2-0.7c0,0,0,0,0,0l4.9-10.2l6.3,3c0.7,0.4,1.6,0,2-0.7c0,0,0,0,0,0L86.2,72l1.3,3.7
				c0.3,0.8,1.1,1.2,1.9,0.9c0.8-0.3,1.2-1.1,0.9-1.9l-2.5-7.1C87.8,67.4,87.7,67.2,87.6,67.1L87.6,67.1z"/>
		</g>
	</g>
	<g>
		<g>
			<g>
				<path class="st1" d="M47,75.2L44.9,71c-0.4-0.8-0.1-1.7,0.7-2.1s1.7-0.1,2.1,0.7l1.4,2.8l6.9-3.5c0.8-0.4,1.7-0.1,2.1,0.7
					c0.4,0.8,0.1,1.7-0.7,2.1l-8.3,4.2C48.3,76.2,47.4,75.9,47,75.2L47,75.2z M40,67.5l-10.3-3.4c-0.8-0.3-1.7,0.2-2,1
					c-0.3,0.8,0.2,1.7,1,2l10.3,3.4c0.8,0.3,1.7-0.2,2-1C41.3,68.7,40.8,67.8,40,67.5z M52.4,80.9c-0.4-0.8-1.3-1.1-2.1-0.7
					l-3.7,1.9l-1.9-3.7c-0.4-0.8-1.3-1.1-2.1-0.7S41.7,79,42,79.8l1.9,3.7l-3.7,1.9c-0.8,0.4-1.1,1.3-0.7,2.1
					c0.4,0.8,1.3,1.1,2.1,0.7l3.7-1.9l1.9,3.7c0.4,0.8,1.3,1.1,2.1,0.7c0.8-0.4,1.1-1.3,0.7-2.1l-1.9-3.7l3.7-1.9
					C52.5,82.6,52.8,81.7,52.4,80.9L52.4,80.9z M36.2,79.3l-10.3-3.4c-0.8-0.3-1.7,0.2-2,1c-0.3,0.8,0.2,1.7,1,2l10.3,3.4
					c0.8,0.3,1.7-0.2,2-1S37,79.6,36.2,79.3z"/>
			</g>
		</g>
		<g>
			<g>
				<path class="st12" d="M47.3,74.3l-2.1-4.1c-0.4-0.8-0.1-1.7,0.7-2.1s1.7-0.1,2.1,0.7l1.4,2.8l6.9-3.5c0.8-0.4,1.7-0.1,2.1,0.7
					c0.4,0.8,0.1,1.7-0.7,2.1L49.4,75C48.6,75.4,47.7,75.1,47.3,74.3L47.3,74.3z M40.3,66.6L30,63.3c-0.8-0.3-1.7,0.2-2,1
					c-0.3,0.8,0.2,1.7,1,2l10.3,3.4c0.8,0.3,1.7-0.2,2-1C41.6,67.8,41.1,66.9,40.3,66.6z M52.7,80c-0.4-0.8-1.3-1.1-2.1-0.7L47,81.2
					l-1.9-3.7c-0.4-0.8-1.3-1.1-2.1-0.7s-1.1,1.3-0.7,2.1l1.9,3.7l-3.7,1.9c-0.8,0.4-1.1,1.3-0.7,2.1c0.4,0.8,1.3,1.1,2.1,0.7
					l3.7-1.9l1.9,3.7c0.4,0.8,1.3,1.1,2.1,0.7c0.8-0.4,1.1-1.3,0.7-2.1L48.3,84l3.7-1.9C52.8,81.7,53.1,80.8,52.7,80L52.7,80z
					 M36.4,78.4L26.1,75c-0.8-0.3-1.7,0.2-2,1s0.2,1.7,1,2l10.3,3.4c0.8,0.3,1.7-0.2,2-1S37.3,78.7,36.4,78.4z"/>
			</g>
		</g>
	</g>
	<g>
		<g>
			<path class="st1" d="M66.5,108.7l-2.1-2.1c-0.2-0.2-0.5-0.2-0.7,0c-0.2,0.2-0.2,0.5,0,0.7l2.1,2.1c0.1,0.1,0.2,0.2,0.4,0.2
				s0.3-0.1,0.4-0.2C66.7,109.2,66.7,108.9,66.5,108.7z M73,102.6c-0.3,0-0.5,0.2-0.5,0.5v3c0,0.3,0.2,0.5,0.5,0.5
				c0.3,0,0.5-0.2,0.5-0.5v-3C73.5,102.9,73.3,102.6,73,102.6z M82.4,106.5c-0.2-0.2-0.5-0.2-0.7,0l-2.1,2.1c-0.2,0.2-0.2,0.5,0,0.7
				c0.1,0.1,0.2,0.2,0.4,0.2c0.1,0,0.3-0.1,0.4-0.2l2.1-2.1C82.6,107,82.6,106.7,82.4,106.5L82.4,106.5z M85.8,115.4h-3
				c-0.3,0-0.5,0.2-0.5,0.5c0,0.3,0.2,0.5,0.5,0.5h3c0.3,0,0.5-0.2,0.5-0.5C86.3,115.6,86,115.4,85.8,115.4z M63.3,115.4h-3
				c-0.3,0-0.5,0.2-0.5,0.5c0,0.3,0.2,0.5,0.5,0.5h3c0.3,0,0.5-0.2,0.5-0.5C63.8,115.6,63.6,115.4,63.3,115.4z M81.3,115.9
				c0-4.6-3.7-8.3-8.3-8.3c-4.6,0-8.3,3.7-8.3,8.3c0,1.6,0.4,3.1,1.3,4.5l3.3,6.2H69c-1,0-1.8,0.8-1.8,1.8c0,0.5,0.2,1,0.5,1.3
				c-0.3,0.3-0.5,0.8-0.5,1.3c0,1,0.8,1.8,1.8,1.8h1.5c0.2,1.1,1.3,2,2.5,2c1.2,0,2.2-0.9,2.5-2H77c1,0,1.8-0.8,1.8-1.8
				c0-0.5-0.2-1-0.5-1.3c0.3-0.3,0.5-0.8,0.5-1.3c0-1-0.8-1.8-1.8-1.8h-0.3l3.3-6.2C80.9,119,81.3,117.5,81.3,115.9z M73,133.7
				c-0.6,0-1.2-0.4-1.4-1h2.8C74.2,133.3,73.7,133.7,73,133.7z M77,131.7h-8c-0.4,0-0.8-0.3-0.8-0.8c0-0.4,0.3-0.8,0.8-0.8h8
				c0.4,0,0.8,0.3,0.8,0.8C77.8,131.3,77.4,131.7,77,131.7z M77,127.5c0.4,0,0.8,0.3,0.8,0.8s-0.3,0.8-0.8,0.8h-8
				c-0.4,0-0.8-0.3-0.8-0.8s0.3-0.8,0.8-0.8H77z M71.4,121.3l1.6-1l1.6,1l-1,5.2h-1.2L71.4,121.3z M79.1,119.8l-3.6,6.7h-0.9l1-5.2
				l2-1.2c0.2-0.2,0.3-0.5,0.2-0.7c-0.2-0.2-0.5-0.3-0.7-0.2l-1.9,1.2l-1.9-1.2c-0.2-0.1-0.4-0.1-0.5,0l-1.9,1.2l-1.9-1.2
				c-0.2-0.2-0.6-0.1-0.7,0.2c-0.2,0.2-0.1,0.6,0.2,0.7l2,1.2l1,5.2h-0.9l-3.6-6.7c0,0,0,0,0,0c-0.8-1.2-1.1-2.5-1.1-3.9
				c0-4,3.3-7.3,7.3-7.3c4,0,7.3,3.3,7.3,7.3C80.3,117.3,79.9,118.6,79.1,119.8C79.1,119.8,79.1,119.8,79.1,119.8L79.1,119.8z"/>
		</g>
		<g>
			<path class="st13" d="M74.6,121.3l-1,5.2h-1.2l-1-5.2l1.6-1L74.6,121.3z"/>
		</g>
		<g>
			<path class="st12" d="M80.3,115.9c0,1.4-0.4,2.8-1.1,3.9c0,0,0,0,0,0l-3.6,6.7h-0.9l1-5.2l2-1.2c0.2-0.2,0.3-0.5,0.2-0.7
				c-0.2-0.2-0.5-0.3-0.7-0.2l-1.9,1.2l-1.9-1.2c-0.2-0.1-0.4-0.1-0.5,0l-1.9,1.2l-1.9-1.2c-0.2-0.2-0.6-0.1-0.7,0.2
				c-0.2,0.2-0.1,0.6,0.2,0.7l2,1.2l1,5.2h-0.9l-3.6-6.7c0,0,0,0,0,0c-0.8-1.2-1.1-2.5-1.1-3.9c0-4,3.3-7.3,7.3-7.3
				C77,108.6,80.3,111.9,80.3,115.9L80.3,115.9z"/>
		</g>
		<g>
			<g>
				<path class="st13" d="M77.8,128.3c0,0.4-0.3,0.8-0.8,0.8h-8c-0.4,0-0.8-0.3-0.8-0.8s0.3-0.8,0.8-0.8h8
					C77.4,127.5,77.8,127.9,77.8,128.3z"/>
			</g>
			<g>
				<path class="st13" d="M77.8,130.9c0,0.4-0.3,0.8-0.8,0.8h-8c-0.4,0-0.8-0.3-0.8-0.8c0-0.4,0.3-0.8,0.8-0.8h8
					C77.4,130.1,77.8,130.5,77.8,130.9z"/>
			</g>
			<g>
				<path class="st13" d="M74.4,132.7c-0.2,0.6-0.8,1-1.4,1c-0.6,0-1.2-0.4-1.4-1H74.4z"/>
			</g>
		</g>
	</g>
	<g>
		<g>
			<path class="st14" d="M23.3,102.9c-0.7,0-1.2,0.5-1.2,1.2v14.3c0,0.7,0.5,1.2,1.2,1.2h14.3c0.7,0,1.2-0.5,1.2-1.2v-7.2
				c0-0.7,0.5-1.2,1.2-1.2s1.2,0.5,1.2,1.2v7.2c0,2-1.6,3.6-3.6,3.6H23.3c-2,0-3.6-1.6-3.6-3.6v-14.3c0-2,1.6-3.6,3.6-3.6h11.9
				c0.7,0,1.2,0.5,1.2,1.2c0,0.7-0.5,1.2-1.2,1.2H23.3z M40.3,102.1c0.5-0.5,1.2-0.5,1.7,0c0.5,0.5,0.5,1.2,0,1.7l-10.7,10.7
				c-0.5,0.5-1.2,0.5-1.7,0l-3.6-3.6c-0.5-0.5-0.5-1.2,0-1.7c0.5-0.5,1.2-0.5,1.7,0l2.7,2.7L40.3,102.1z"/>
		</g>
	</g>
	<g>
		<g>
			<path class="st1" d="M49.6,158.8c-0.1,0-0.1,0-0.2,0c-0.5,0-0.9-0.2-1.2-0.5l-7.5-7.5l-7.6,7.6c-0.3,0.2-0.6,0.4-1,0.4l-0.1,0
				c0,0-0.1,0-0.1,0c-0.4,0-0.8-0.1-1.1-0.4c-0.6-0.6-0.6-1.6,0-2.3l7.6-7.6l-7.6-7.6c-0.6-0.7-0.5-1.7,0.2-2.3
				c0.3-0.3,0.7-0.4,1.1-0.4c0.4,0,0.8,0.1,1.1,0.4l7.6,7.6l7.5-7.5c0.3-0.3,0.7-0.4,1.1-0.4c0.5,0,0.9,0.2,1.2,0.5
				c0.5,0.6,0.6,1.5,0.1,2.1l-7.6,7.6l7.6,7.6c0.7,0.6,0.7,1.6,0.1,2.3c0,0,0,0-0.1,0C50.3,158.6,50,158.8,49.6,158.8z"/>
		</g>
		<g>
			<path class="st15" d="M49.9,157.9c-0.1,0-0.1,0-0.2,0c-0.5,0-0.9-0.2-1.2-0.5l-7.5-7.5l-7.6,7.6c-0.3,0.2-0.6,0.4-1,0.4l-0.1,0
				c0,0-0.1,0-0.1,0c-0.4,0-0.8-0.1-1.1-0.4c-0.6-0.6-0.6-1.6,0-2.3l7.6-7.6L31,140c-0.6-0.7-0.5-1.7,0.2-2.3
				c0.3-0.3,0.7-0.4,1.1-0.4c0.4,0,0.8,0.1,1.1,0.4l7.6,7.6l7.5-7.5c0.3-0.3,0.7-0.4,1.1-0.4c0.5,0,0.9,0.2,1.2,0.5
				c0.5,0.6,0.6,1.5,0.1,2.1l-7.6,7.6l7.6,7.6c0.7,0.6,0.7,1.6,0.1,2.3c0,0,0,0-0.1,0C50.6,157.8,50.2,157.9,49.9,157.9z"/>
		</g>
	</g>
	<g>
		<g id="g7830_14_" transform="translate(293.2144,407.6475)">
			<g id="path7832_14_">
				<path class="st16" d="M-209.9-362.7h-37.9c-0.6,0-1.2,0.5-1.2,1.2v6.9c0,0.6,0.5,1.2,1.2,1.2h37.9c0.6,0,1.2-0.5,1.2-1.2v-6.9
					C-208.7-362.1-209.3-362.7-209.9-362.7"/>
			</g>
		</g>
		<g id="g7834_14_" transform="translate(293.2144,407.6475)">
			<g id="path7836_14_">
				<path class="st17" d="M-209.9-362.7h-10.8c0.6,0,1.2,0.5,1.2,1.2v6.9c0,0.6-0.5,1.2-1.2,1.2h10.8c0.6,0,1.2-0.5,1.2-1.2v-6.9
					C-208.7-362.1-209.3-362.7-209.9-362.7"/>
			</g>
		</g>
		<g id="g7838_14_" transform="translate(128.1699,407.6475)">
			<g id="path7840_14_">
				<path class="st1" d="M-44.9-352.3h-37.9c-1.2,0-2.2-1-2.2-2.2v-6.9c0-1.2,1-2.2,2.2-2.2h37.9c1.2,0,2.2,1,2.2,2.2v6.9
					C-42.6-353.3-43.6-352.3-44.9-352.3z M-82.7-361.6c-0.1,0-0.1,0-0.1,0.1v6.9c0,0.1,0,0.1,0.1,0.1h37.9c0.1,0,0.1,0,0.1-0.1v-6.9
					c0-0.1,0-0.1-0.1-0.1H-82.7z"/>
			</g>
		</g>
	</g>
	<g>
		<g>
			<path class="st18" d="M72.7,10.3c0-4.6-3.7-8.3-8.3-8.3c-4.6,0-8.3,3.7-8.3,8.3H39.5v16.6c0,2.2,1.8,4,4,4h41.7c2.2,0,4-1.8,4-4
				V10.3H72.7z"/>
		</g>
		<g>
			<path class="st1" d="M85.2,32.9H43.5c-3.3,0-6-2.7-6-6V10.3c0-1.1,0.9-2,2-2h14.8C55.2,3.6,59.4,0,64.4,0c5,0,9.2,3.6,10.1,8.3
				h14.8c1.1,0,2,0.9,2,2v16.6C91.2,30.2,88.5,32.9,85.2,32.9z M46.3,28.9h38.9c1.1,0,2-0.9,2-2V12.3H72.7c-1.1,0-2-0.9-2-2
				c0-3.5-2.8-6.3-6.3-6.3c-3.5,0-6.3,2.8-6.3,6.3c0,1.1-0.9,2-2,2H41.5v14.6c0,1.1,0.9,2,2,2H46.3z"/>
		</g>
		<g>
			<path class="st1" d="M80.9,24.7H47.8c-1.1,0-2-0.9-2-2s0.9-2,2-2h33.1c1.1,0,2,0.9,2,2S82,24.7,80.9,24.7z"/>
		</g>
		<g>
			<g>
				<g>
					<path class="st1" d="M64.4,12.3c-0.5,0-1-0.2-1.4-0.6c-0.4-0.4-0.6-0.9-0.6-1.4c0-0.1,0-0.3,0-0.4c0-0.1,0.1-0.3,0.1-0.4
						c0-0.1,0.1-0.2,0.2-0.3C62.8,9.1,62.9,9,63,8.9c0.7-0.7,2.1-0.7,2.8,0C65.9,9,66,9.1,66,9.2c0.1,0.1,0.1,0.2,0.2,0.3
						c0,0.1,0.1,0.2,0.1,0.4c0,0.1,0,0.3,0,0.4c0,0.5-0.2,1-0.6,1.4c-0.1,0.1-0.2,0.2-0.3,0.3c-0.1,0.1-0.2,0.1-0.3,0.2
						c-0.1,0.1-0.3,0.1-0.4,0.1C64.6,12.3,64.5,12.3,64.4,12.3z"/>
				</g>
			</g>
		</g>
	</g>
</g>
</svg>
