<?xml version="1.0" encoding="utf-8"?>
<!-- Generator: Adobe Illustrator 25.0.0, SVG Export Plug-In . SVG Version: 6.00 Build 0)  -->
<svg version="1.1" id="Layer_1" xmlns="http://www.w3.org/2000/svg" xmlns:xlink="http://www.w3.org/1999/xlink" x="0px" y="0px"
	 viewBox="0 0 457.9 250" style="enable-background:new 0 0 457.9 250;" xml:space="preserve">
<style type="text/css">
	.st0{fill:#87796F;}
	.st1{fill:#C1A897;}
	.st2{fill:#F9A7A7;}
	.st3{fill:#35414D;}
	.st4{fill:#FFE4CF;}
	.st5{fill:#E0EBFC;}
	.st6{fill:#B9BEFC;}
	.st7{fill:#EAA97D;}
	.st8{fill:#FFEA92;}
	.st9{fill:#D6DF58;stroke:#35414D;stroke-width:1.4383;stroke-miterlimit:10;}
	.st10{fill:#35414D;stroke:#35414D;stroke-width:0.4794;stroke-miterlimit:10;}
	.st11{fill:#D7E057;}
	.st12{fill:#656D78;}
	.st13{fill:#F4F6F8;}
	.st14{fill:#E4E8EB;}
	.st15{fill:#B3A4EE;}
	.st16{fill:#AC92EA;}
	.st17{fill:#FBD277;}
	.st18{fill:#F76C82;}
	.st19{fill:#EB5463;}
	.st20{fill:#B4DF80;}
	.st21{fill:#9ED26A;}
	.st22{fill:#FDCD56;}
	.st23{fill:#434A54;}
	.st24{fill:#FFA733;}
	.st25{fill:#FF5A5A;}
	.st26{fill:#D6DF58;}
	.st27{fill:#F16C7A;}
	.st28{fill:#3A312A;}
	.st29{fill:#8AC6DD;}
	.st30{fill:#FDF6EC;stroke:#35414D;stroke-width:2.4907;stroke-miterlimit:10;}
	.st31{fill:#F4EAE6;}
	.st32{fill:#BECAF5;}
	.st33{fill:#3C58A0;}
	.st34{fill:#DEEEFF;}
	.st35{fill:#2A428C;}
	.st36{fill:#1C2E7A;}
	.st37{fill:#FF4155;}
	.st38{fill:#FFDD40;}
	.st39{fill:#88CE65;}
	.st40{fill:#6289CC;}
	.st41{fill:#FDF6EC;}
	.st42{fill:#E2D8D5;}
	.st43{fill:none;stroke:#2626BC;stroke-width:1.0381;stroke-linecap:round;stroke-linejoin:round;stroke-miterlimit:13.3333;}
	.st44{fill:#4369FD;}
	.st45{fill:#B5A7A3;}
	.st46{fill:#748FA5;}
	.st47{fill:#6A8291;}
	.st48{fill:#07BEEF;}
	.st49{fill:#FC635B;}
	.st50{fill:#7EC927;}
	.st51{fill:#00B6E0;}
	.st52{fill:#F34234;}
	.st53{fill:#60A917;}
	.st54{fill:#FF9801;}
	.st55{fill:#EF6D7A;}
	.st56{fill:#8AC5DC;}
	.st57{fill-rule:evenodd;clip-rule:evenodd;fill:#FFB54C;}
	.st58{fill-rule:evenodd;clip-rule:evenodd;fill:#35414D;}
	.st59{fill-rule:evenodd;clip-rule:evenodd;fill:#FFA733;}
	.st60{fill-rule:evenodd;clip-rule:evenodd;fill:#2FB1D4;}
	.st61{fill-rule:evenodd;clip-rule:evenodd;fill:#FF5A5A;}
</style>
<g>
	<g>
		<path class="st0" d="M55.6,184.5H2.4c-0.9,0-1.6-0.7-1.6-1.6v-3.1c0-0.9,0.7-1.6,1.6-1.6h53.2c0.9,0,1.6,0.7,1.6,1.6v3.1
			C57.2,183.8,56.5,184.5,55.6,184.5L55.6,184.5z"/>
		<path class="st1" d="M29.8,184.5h-1.7h-24l18.2,24.1v18.7c0,0.4,0.4,0.8,0.8,0.8h11.5c0.4,0,0.8-0.4,0.8-0.8v-18.7l18.2-24.1H29.8
			z"/>
		<g>
			<g>
				<path class="st2" d="M51.3,173.4H39.6V171c0-2.8,2.3-5,5-5h1.6c2.8,0,5,2.3,5,5L51.3,173.4L51.3,173.4z"/>
				<path class="st3" d="M51.3,174.2H39.6c-0.4,0-0.8-0.3-0.8-0.8V171c0-3.2,2.6-5.8,5.8-5.8h1.6c3.2,0,5.8,2.6,5.8,5.8v2.4
					C52.1,173.8,51.7,174.2,51.3,174.2L51.3,174.2z M40.4,172.6h10.1V171c0-2.3-1.9-4.3-4.3-4.3h-1.6c-2.3,0-4.3,1.9-4.3,4.3
					L40.4,172.6L40.4,172.6z"/>
				<circle class="st4" cx="45.5" cy="160.1" r="5.8"/>
				<path class="st3" d="M45.5,166.7c-3.6,0-6.6-3-6.6-6.6s3-6.6,6.6-6.6s6.6,3,6.6,6.6S49.1,166.7,45.5,166.7z M45.5,155.1
					c-2.8,0-5.1,2.3-5.1,5.1c0,2.8,2.3,5.1,5.1,5.1s5.1-2.3,5.1-5.1C50.5,157.3,48.3,155.1,45.5,155.1z"/>
			</g>
			<g>
				<path class="st5" d="M35.6,174.3H22.4v-2.7c0-3.1,2.5-5.7,5.7-5.7h1.8c3.1,0,5.7,2.5,5.7,5.7L35.6,174.3L35.6,174.3z"/>
				<g>
					<path class="st3" d="M22.4,174.8c-0.3,0-0.5-0.2-0.5-0.5v-2.7c0-3.4,2.8-6.2,6.2-6.2h1.8c3.4,0,6.2,2.8,6.2,6.2v2.7
						c0,0.3-0.2,0.5-0.5,0.5H22.4z M28.1,166.5c-2.8,0-5.2,2.3-5.2,5.2v2.1H35v-2.1c0-2.8-2.3-5.2-5.2-5.2H28.1z"/>
					<path class="st3" d="M29.9,165.6c3.3,0,6,2.7,6,6v2.7c0,0.2-0.1,0.3-0.3,0.3H22.4c-0.2,0-0.3-0.1-0.3-0.3v-2.7c0-3.3,2.7-6,6-6
						H29.9 M22.7,174h0.5h11.6h0.5v-0.5v-1.9c0-3-2.4-5.4-5.4-5.4h-1.8c-3,0-5.4,2.4-5.4,5.4v1.9L22.7,174 M29.9,165.1h-1.8
						c-3.6,0-6.5,2.9-6.5,6.5v2.7c0,0.4,0.3,0.8,0.8,0.8h13.2h0c0.4,0,0.8-0.3,0.8-0.8v-2.7C36.4,168,33.4,165.1,29.9,165.1
						L29.9,165.1z M23.2,173.5v-1.9c0-2.7,2.2-4.9,4.9-4.9h1.8c2.7,0,4.9,2.2,4.9,4.9v1.9H23.2L23.2,173.5L23.2,173.5z"/>
				</g>
				<circle class="st4" cx="29" cy="159.3" r="6.6"/>
				<g>
					<path class="st3" d="M29,166.5c-3.9,0-7.1-3.2-7.1-7.1s3.2-7.1,7.1-7.1s7.1,3.2,7.1,7.1S32.9,166.5,29,166.5z M29,153.3
						c-3.3,0-6.1,2.7-6.1,6.1c0,3.3,2.7,6.1,6.1,6.1s6.1-2.7,6.1-6.1C35,156,32.3,153.3,29,153.3z"/>
					<path class="st3" d="M29,152.4c3.8,0,6.9,3.1,6.9,6.9c0,3.8-3.1,6.9-6.9,6.9s-6.9-3.1-6.9-6.9C22.1,155.5,25.2,152.4,29,152.4
						 M29,165.6c3.5,0,6.3-2.8,6.3-6.3c0-3.5-2.8-6.3-6.3-6.3s-6.3,2.8-6.3,6.3C22.7,162.8,25.5,165.6,29,165.6 M29,152
						c-4.1,0-7.4,3.3-7.4,7.4s3.3,7.4,7.4,7.4c4.1,0,7.4-3.3,7.4-7.4S33,152,29,152L29,152z M29,165.1c-3.2,0-5.8-2.6-5.8-5.8
						c0-3.2,2.6-5.8,5.8-5.8s5.8,2.6,5.8,5.8C34.8,162.5,32.2,165.1,29,165.1L29,165.1z"/>
				</g>
			</g>
			<g>
				<path class="st6" d="M18.3,173.4H6.7V171c0-2.8,2.3-5,5-5h1.6c2.8,0,5,2.3,5,5L18.3,173.4L18.3,173.4z"/>
				<g>
					<path class="st3" d="M6.7,173.9c-0.3,0-0.5-0.2-0.5-0.5V171c0-3.1,2.5-5.6,5.6-5.6h1.6c3.1,0,5.6,2.5,5.6,5.6v2.4
						c0,0.1-0.1,0.3-0.2,0.4c-0.1,0.1-0.2,0.2-0.4,0.2H6.7z M11.7,166.5c-2.5,0-4.5,2-4.5,4.5v1.8h10.6V171c0-2.5-2-4.5-4.5-4.5
						H11.7z"/>
					<path class="st3" d="M13.3,165.7c2.9,0,5.3,2.4,5.3,5.3v2.4c0,0.1,0,0.2-0.1,0.2s-0.1,0.1-0.2,0.1H6.7c-0.2,0-0.3-0.1-0.3-0.3
						V171c0-2.9,2.4-5.3,5.3-5.3H13.3 M7,173.1h0.5h10.1H18v-0.5V171c0-2.6-2.1-4.7-4.7-4.7h-1.6c-2.6,0-4.7,2.1-4.7,4.7v1.6V173.1
						 M13.3,165.2h-1.6c-3.2,0-5.8,2.6-5.8,5.8v2.4c0,0.4,0.3,0.8,0.8,0.8h11.7h0c0.4,0,0.8-0.3,0.8-0.8V171
						C19.1,167.8,16.5,165.2,13.3,165.2L13.3,165.2z M7.4,172.6V171c0-2.3,1.9-4.3,4.3-4.3h1.6c2.3,0,4.3,1.9,4.3,4.3v1.6H7.4
						L7.4,172.6z"/>
				</g>
				<circle class="st4" cx="12.5" cy="160.1" r="5.8"/>
				<g>
					<path class="st3" d="M12.5,166.5c-3.5,0-6.4-2.9-6.4-6.4s2.9-6.4,6.4-6.4c3.5,0,6.4,2.9,6.4,6.4S16,166.5,12.5,166.5z
						 M12.5,154.8c-2.9,0-5.3,2.4-5.3,5.3c0,2.9,2.4,5.3,5.3,5.3s5.3-2.4,5.3-5.3C17.8,157.2,15.4,154.8,12.5,154.8z"/>
					<path class="st3" d="M12.5,154c3.4,0,6.1,2.8,6.1,6.1c0,3.4-2.8,6.1-6.1,6.1s-6.1-2.8-6.1-6.1C6.4,156.7,9.1,154,12.5,154
						 M12.5,165.7c3.1,0,5.5-2.5,5.5-5.5c0-3.1-2.5-5.5-5.5-5.5c-3.1,0-5.5,2.5-5.5,5.5C7,163.2,9.4,165.7,12.5,165.7 M12.5,153.5
						c-3.6,0-6.6,3-6.6,6.6c0,3.6,3,6.6,6.6,6.6s6.6-3,6.6-6.6C19.1,156.5,16.1,153.5,12.5,153.5L12.5,153.5z M12.5,165.2
						c-2.8,0-5.1-2.3-5.1-5.1c0-2.8,2.3-5.1,5.1-5.1s5.1,2.3,5.1,5.1C17.6,162.9,15.3,165.2,12.5,165.2L12.5,165.2z"/>
				</g>
			</g>
		</g>
		<circle class="st7" cx="29" cy="240.2" r="9"/>
		<circle class="st8" cx="29" cy="240.2" r="6.4"/>
		<path class="st7" d="M28.4,244.6c-1.2-0.2-2.1-0.9-2.2-2.1c0-0.1,0.1-0.2,0.2-0.2h1c0.1,0,0.2,0.1,0.2,0.2
			c0.1,0.4,0.3,0.8,0.7,0.9c0.1,0.1,0.3,0,0.3-0.2v-2.3c0-0.1-0.1-0.2-0.2-0.2c-1.1-0.3-2.2-0.7-2.2-2.4c0-1.3,0.9-2.3,2.2-2.5
			c0.1,0,0.2-0.1,0.2-0.2v-0.6c0-0.1,0.1-0.2,0.2-0.2h0.3c0.1,0,0.2,0.1,0.2,0.2v0.6c0,0.1,0.1,0.2,0.2,0.2c1.1,0.2,1.9,0.9,2.1,2.1
			c0,0.1-0.1,0.3-0.2,0.3h-0.9c-0.1,0-0.2-0.1-0.2-0.2c-0.1-0.3-0.3-0.6-0.5-0.8c-0.1-0.1-0.3,0-0.3,0.2v2.2c0,0.1,0.1,0.2,0.2,0.2
			c1.1,0.3,2.2,0.7,2.2,2.4c0,1.2-0.8,2.3-2.2,2.5c-0.1,0-0.2,0.1-0.2,0.2v0.6c0,0.1-0.1,0.2-0.2,0.2h-0.3c-0.1,0-0.2-0.1-0.2-0.2
			v-0.6C28.6,244.7,28.5,244.6,28.4,244.6L28.4,244.6z M28.6,239.1v-1.9c0-0.1-0.1-0.3-0.3-0.2c-0.5,0.2-0.8,0.6-0.8,1.2
			c0,0.6,0.3,0.9,0.7,1.1C28.4,239.4,28.6,239.3,28.6,239.1z M29.4,241.2v1.9c0,0.2,0.2,0.3,0.3,0.2c0.5-0.2,0.8-0.7,0.8-1.2
			c0-0.6-0.3-0.9-0.7-1.1C29.5,241,29.4,241.1,29.4,241.2z"/>
		<path class="st3" d="M29,250c-5.4,0-9.8-4.4-9.8-9.8c0-5.4,4.4-9.8,9.8-9.8s9.8,4.4,9.8,9.8C38.8,245.6,34.4,250,29,250L29,250z
			 M29,232c-4.5,0-8.2,3.7-8.2,8.2c0,4.5,3.7,8.2,8.2,8.2s8.2-3.7,8.2-8.2S33.5,232,29,232L29,232z"/>
		<path class="st9" d="M38.5,231.1l6.8,9.4c0.2,0.3,0.6,0.3,0.9,0l6.8-9.4c0.3-0.3,0-0.8-0.4-0.8h-2.3c-0.3,0-0.5-0.2-0.5-0.5v-14.6
			c0-0.3-0.2-0.5-0.5-0.5h-6.8c-0.3,0-0.5,0.2-0.5,0.5v14.6c0,0.3-0.2,0.5-0.5,0.5h-2.3C38.5,230.2,38.3,230.7,38.5,231.1
			L38.5,231.1z"/>
		<g>
			<path class="st10" d="M55.6,185.3H2.4c-1.3,0-2.4-1.1-2.4-2.4v-3.1c0-1.3,1.1-2.4,2.4-2.4h53.2c1.3,0,2.4,1.1,2.4,2.4v3.1
				C58,184.3,56.9,185.3,55.6,185.3z M2.4,179.1c-0.4,0-0.8,0.4-0.8,0.8v3.1c0,0.4,0.4,0.8,0.8,0.8h53.2c0.4,0,0.8-0.4,0.8-0.8v-3.1
				c0-0.4-0.4-0.8-0.8-0.8H2.4z"/>
			<path class="st10" d="M34.7,228.8H23.2c-0.9,0-1.6-0.7-1.6-1.6v-18.4L3.6,185c-0.2-0.2-0.2-0.6-0.1-0.8c0.1-0.3,0.4-0.4,0.7-0.4
				h49.6c0.3,0,0.6,0.2,0.7,0.4s0.1,0.6-0.1,0.8l-18.1,23.9v18.4C36.3,228.1,35.6,228.8,34.7,228.8z M5.8,185.3l17.3,22.8
				c0.1,0.1,0.2,0.3,0.2,0.5v18.7l11.5,0l0-18.7c0-0.2,0.1-0.3,0.2-0.5l17.3-22.8L5.8,185.3L5.8,185.3z"/>
		</g>
	</g>
	<g>
		<g>
			<path class="st11" d="M50.6,110.3h-0.9c-0.6-2.4-1.5-4.7-2.8-6.7l0.7-0.7c0.8-0.8,0.8-2.1,0-2.9l-3.7-3.7c-0.8-0.8-2.1-0.8-2.9,0
				l-0.7,0.7c-2-1.3-4.3-2.2-6.6-2.7v-1c0-1.1-0.9-2-2-2h-5.2c-1.1,0-2,0.9-2,2v1c-1.3,0.3-4.6,1.5-6.6,2.7L17,96.4
				c-0.8-0.8-2.1-0.8-2.9,0l-3.7,3.7c-0.8,0.8-0.8,2.1,0,2.9l0.7,0.7c-1.3,2-2.3,4.3-2.8,6.7H7.4c-1.1,0-2,0.9-2,2v5.2
				c0,1.1,0.9,2,2,2h0.9c0.5,2.4,1.5,4.7,2.8,6.8l-0.6,0.6c-0.8,0.8-0.8,2.1,0,2.9l3.7,3.7c0.8,0.8,2.1,0.8,2.9,0l0.6-0.6
				c2,1.3,4.3,2.3,6.8,2.8v0.8c0,1.1,0.9,2,2,2h5.2c1.1,0,2-0.9,2-2v-0.8c2.4-0.5,4.7-1.5,6.8-2.8l0.6,0.6c0.8,0.8,2.1,0.8,2.9,0
				l3.7-3.7c0.8-0.8,0.8-2.1,0-2.9l-0.6-0.6c1.3-2,2.2-4.3,2.8-6.8h0.9c1.1,0,2-0.9,2-2v-5.2C52.6,111.2,51.7,110.3,50.6,110.3
				L50.6,110.3z M29,125.5c-5.9,0-10.6-4.7-10.6-10.6c0-5.9,4.7-10.6,10.6-10.6c5.9,0,10.6,4.7,10.6,10.6
				C39.6,120.7,34.8,125.5,29,125.5L29,125.5z"/>
			<path class="st3" d="M31.6,139.5h-5.2c-1.7,0-3.1-1.4-3.1-3.1v0c-2-0.5-3.9-1.3-5.6-2.3l0,0c-0.6,0.6-1.3,0.9-2.2,0.9
				s-1.6-0.3-2.2-0.9l-3.7-3.7c-1.2-1.2-1.2-3.1,0-4.3l0,0c-1-1.8-1.8-3.6-2.3-5.6H7.4c-1.7,0-3.1-1.4-3.1-3.1v-5.2
				c0-1.7,1.4-3.1,3.1-3.1h0.1c0.5-1.9,1.3-3.8,2.3-5.5l-0.1-0.1c-1.2-1.2-1.2-3.1,0-4.3l3.7-3.7c0.6-0.6,1.3-0.9,2.2-0.9
				c0.8,0,1.6,0.3,2.2,0.9l0.2,0.2c1.8-1,4.1-1.8,5.5-2.2v-0.3c0-1.7,1.4-3.1,3.1-3.1h5.2c1.7,0,3.1,1.4,3.1,3.1v0.2
				c1.9,0.5,3.8,1.3,5.5,2.3l0.2-0.2c1.2-1.2,3.1-1.2,4.3,0l3.7,3.7c1.2,1.2,1.2,3.1,0,4.3l-0.1,0.1c1,1.7,1.8,3.6,2.3,5.5h0.1
				c1.7,0,3.1,1.4,3.1,3.1v5.2c0,1.7-1.4,3.1-3.1,3.1h-0.1c-0.5,2-1.3,3.8-2.3,5.6l0,0c1.2,1.2,1.2,3.1,0,4.3l-3.7,3.7
				c-1.2,1.2-3.1,1.2-4.3,0l0,0c-1.8,1-3.6,1.8-5.6,2.3v0C34.6,138.2,33.3,139.5,31.6,139.5L31.6,139.5z M17.6,131.8
				c0.2,0,0.4,0.1,0.5,0.2c2,1.3,4.2,2.2,6.5,2.7c0.5,0.1,0.8,0.5,0.8,1v0.8c0,0.6,0.5,1,1,1h5.2c0.6,0,1-0.5,1-1v-0.8
				c0-0.5,0.3-0.9,0.8-1c2.3-0.5,4.5-1.4,6.5-2.7c0.4-0.3,0.9-0.2,1.3,0.1l0.6,0.6c0.4,0.4,1,0.4,1.4,0l3.7-3.7c0.4-0.4,0.4-1,0-1.4
				l-0.6-0.6c-0.3-0.3-0.4-0.9-0.1-1.3c1.2-2,2.1-4.1,2.6-6.4c0.1-0.5,0.5-0.8,1-0.8h0.9c0.6,0,1-0.5,1-1v-5.2c0-0.6-0.5-1-1-1h-0.9
				c-0.5,0-0.9-0.3-1-0.8c-0.5-2.3-1.4-4.4-2.7-6.3c-0.3-0.4-0.2-0.9,0.1-1.3l0.7-0.7c0.4-0.4,0.4-1,0-1.4l-3.7-3.7
				c-0.4-0.4-1-0.4-1.4,0L41,97.8c-0.3,0.3-0.9,0.4-1.3,0.1c-2-1.2-4.1-2.1-6.3-2.6c-0.5-0.1-0.8-0.5-0.8-1v-1c0-0.6-0.5-1-1-1h-5.2
				c-0.6,0-1,0.5-1,1v1c0,0.5-0.3,0.9-0.8,1c-1.3,0.3-4.5,1.4-6.4,2.6c-0.4,0.3-0.9,0.2-1.3-0.1l-0.7-0.7c-0.4-0.4-1.1-0.4-1.4,0
				l-3.7,3.7c-0.4,0.4-0.4,1,0,1.4l0.7,0.7c0.3,0.3,0.4,0.9,0.1,1.3c-1.3,2-2.1,4.1-2.7,6.3c-0.1,0.5-0.5,0.8-1,0.8H7.4
				c-0.6,0-1,0.5-1,1v5.2c0,0.6,0.5,1,1,1h0.9c0.5,0,0.9,0.3,1,0.8c0.5,2.3,1.4,4.4,2.6,6.4c0.3,0.4,0.2,0.9-0.1,1.3l-0.6,0.6
				c-0.4,0.4-0.4,1,0,1.4l3.7,3.7c0.4,0.4,1.1,0.4,1.4,0l0.6-0.6C17,131.9,17.3,131.8,17.6,131.8L17.6,131.8z M29,126.5
				c-6.4,0-11.6-5.2-11.6-11.6s5.2-11.6,11.6-11.6s11.6,5.2,11.6,11.6S35.4,126.5,29,126.5z M29,105.3c-5.3,0-9.6,4.3-9.6,9.6
				c0,5.3,4.3,9.6,9.6,9.6c5.3,0,9.6-4.3,9.6-9.6C38.6,109.6,34.3,105.3,29,105.3z"/>
		</g>
	</g>
	<g>
		<polygon class="st12" points="242.4,23.8 241.6,23.8 241.6,41.7 70.7,41.7 70.7,21.8 68.4,19 69.6,7.9 75,4.2 86.1,5.9 223.7,5.9 
			223.7,4.2 241.6,5.9 		"/>
		<path class="st13" d="M241.6,41.7v147.9c0,10.2-6.9,18.6-15.4,18.6H86.1c-11,3.7-21,0-15.4-18.6l0,0V41.7L241.6,41.7z"/>
		<path class="st14" d="M241.6,41.7v147.9c0.7,9.9,5.8,22-15.4,18.6H86.1c-18.6,2.2-18.6-7-16.6-14.4c1.1,0.3,3.9,0.4,5,0.4H92
			c71.7,0,131.5-66.3,137.5-152.5L241.6,41.7z"/>
		<path class="st15" d="M84.9,135.1h41.6v33.5H84.9L84.9,135.1z"/>
		<path class="st16" d="M126.4,135.1v33.5H84.9v-10.4H90c12,0,22.6-9.3,26.4-23L126.4,135.1z"/>
		<path class="st17" d="M135.4,135.1h41.6v33.5h-41.6V135.1z"/>
		<path class="st18" d="M84.9,57.5h142.5v64H84.9L84.9,57.5z"/>
		<path class="st19" d="M227.4,57.5v63.9H84.9v-13.7h90.7c22.4,0,40.5-21.8,40.5-48.8v-1.5L227.4,57.5z"/>
		<path class="st20" d="M185.9,135.1h41.6v33.5h-41.6V135.1z"/>
		<path class="st21" d="M227.4,135.1v33.5h-41.6v-10.4h5.2c12,0,22.6-9.3,26.4-23L227.4,135.1z"/>
		<path class="st22" d="M176.9,135.1v33.5h-41.6v-10.4h5.2c12,0,22.7-9.3,26.4-23L176.9,135.1z"/>
		<g>
			<path class="st23" d="M126.5,184H99.8c-1,0-1.8-1-1.8-2.2s0.8-2.2,1.8-2.2h26.6c1,0,1.8,1,1.8,2.2S127.4,184,126.5,184z"/>
			<path class="st24" d="M92.6,184h-7.7c-1,0-1.8-1-1.8-2.2s0.8-2.2,1.8-2.2h7.7c1,0,1.8,1,1.8,2.2S93.6,184,92.6,184z"/>
			<path class="st23" d="M126.5,197.7H84.9c-1,0-1.8-1-1.8-2.2s0.8-2.2,1.8-2.2h41.6c1,0,1.8,1,1.8,2.2S127.4,197.7,126.5,197.7z"/>
			<path class="st23" d="M176.9,184h-26.6c-1,0-1.8-1-1.8-2.2s0.8-2.2,1.8-2.2h26.6c1,0,1.8,1,1.8,2.2S177.9,184,176.9,184z"/>
			<path class="st25" d="M143.1,184h-7.7c-1,0-1.8-1-1.8-2.2s0.8-2.2,1.8-2.2h7.7c1,0,1.8,1,1.8,2.2S144.1,184,143.1,184z"/>
			<path class="st23" d="M176.9,197.7h-41.6c-1,0-1.8-1-1.8-2.2s0.8-2.2,1.8-2.2h41.6c1,0,1.8,1,1.8,2.2S177.9,197.7,176.9,197.7z"
				/>
			<path class="st23" d="M227.4,184h-26.6c-1,0-1.8-1-1.8-2.2s0.8-2.2,1.8-2.2h26.6c1,0,1.8,1,1.8,2.2S228.4,184,227.4,184z"/>
			<path class="st26" d="M193.6,184h-7.7c-1,0-1.8-1-1.8-2.2s0.8-2.2,1.8-2.2h7.7c1,0,1.8,1,1.8,2.2S194.6,184,193.6,184z"/>
			<path class="st23" d="M227.4,197.7h-41.6c-1,0-1.8-1-1.8-2.2s0.8-2.2,1.8-2.2h41.6c1,0,1.8,1,1.8,2.2S228.4,197.7,227.4,197.7z"
				/>
		</g>
		<g>
			<g>
				<circle class="st27" cx="92.4" cy="23.8" r="6.2"/>
				<path class="st28" d="M92.4,31.4c-4.2,0-7.5-3.4-7.5-7.5s3.4-7.5,7.5-7.5c4.2,0,7.5,3.4,7.5,7.5S96.6,31.4,92.4,31.4z M92.4,19
					c-2.6,0-4.8,2.2-4.8,4.8s2.2,4.8,4.8,4.8c2.6,0,4.8-2.2,4.8-4.8C97.2,21.2,95.1,19,92.4,19z"/>
			</g>
			<g>
				<circle class="st11" cx="111.6" cy="23.8" r="6.2"/>
				<path class="st28" d="M111.6,31.4c-4.2,0-7.5-3.4-7.5-7.5s3.4-7.5,7.5-7.5s7.5,3.4,7.5,7.5S115.7,31.4,111.6,31.4z M111.6,19
					c-2.6,0-4.8,2.2-4.8,4.8s2.2,4.8,4.8,4.8s4.8-2.2,4.8-4.8C116.4,21.2,114.2,19,111.6,19z"/>
			</g>
			<g>
				<circle class="st29" cx="130.7" cy="23.8" r="6.2"/>
				<path class="st28" d="M130.7,31.4c-4.2,0-7.5-3.4-7.5-7.5s3.4-7.5,7.5-7.5s7.5,3.4,7.5,7.5S134.9,31.4,130.7,31.4z M130.7,19
					c-2.6,0-4.8,2.2-4.8,4.8s2.2,4.8,4.8,4.8s4.8-2.2,4.8-4.8C135.5,21.2,133.4,19,130.7,19z"/>
			</g>
			<path class="st30" d="M222.3,29h-58.7c-2.8,0-5.2-2.3-5.2-5.2v0c0-2.8,2.3-5.2,5.2-5.2h58.7c2.8,0,5.2,2.3,5.2,5.2v0
				C227.4,26.7,225.1,29,222.3,29z"/>
		</g>
		<path class="st3" d="M229.8,5.9c6.5,0,11.8,5.3,11.8,11.8v178.7c0,6.5-5.3,11.8-11.8,11.8H82.5c-6.5,0-11.8-5.3-11.8-11.8V17.7
			c0-6.5,5.3-11.8,11.8-11.8H229.8 M229.8,0H82.5c-9.8,0-17.7,8-17.7,17.7v178.7c0,9.8,8,17.7,17.7,17.7h147.4
			c9.8,0,17.7-8,17.7-17.7V17.7C247.6,8,239.6,0,229.8,0L229.8,0z"/>
	</g>
	<g>
		<rect x="219.1" y="119.7" class="st31" width="164.5" height="109.9"/>
		<g>
			<path class="st32" d="M266.6,45.3c0,7.3-5.9,13.3-13.3,13.3h130.2V45.3H266.6z"/>
			<path class="st33" d="M219.1,45.3v13.3h35c7.3,0,13.3-5.9,13.3-13.3H219.1z"/>
			<path class="st31" d="M383.5,57.7v128.4c-17.9,26.3-48,43.6-82.2,43.6c-4.9,0-9.8-0.4-14.5-1.1c-0.3,0-0.6-0.1-0.8-0.1
				c-27.8-4.3-51.7-20.1-66.9-42.4V57.7H383.5z"/>
			<path class="st34" d="M286.8,228.6c-0.3,0-0.6-0.1-0.9-0.1C286.2,228.5,286.5,228.6,286.8,228.6L286.8,228.6z"/>
			<path class="st35" d="M372.2,22.1H264.3c0,0-4,4.1,0,8l0.5,7.7c0,0-3.4,5,1.9,8.3h120.4v-9.5C387.1,28.6,380.4,22.1,372.2,22.1z"
				/>
			<path class="st36" d="M232.1,21.5c-8.3,0-15.1,6.7-15.1,14.8v9.7h50.4c-5.3-3.4-1.9-8.5-1.9-8.5l-0.6-7.9c-4.1-4,0-8.1,0-8.1
				L232.1,21.5L232.1,21.5z"/>
			<path class="st37" d="M241.6,34.1c0,2.6-2.1,4.7-4.7,4.7c-2.6,0-4.7-2.1-4.7-4.7s2.1-4.7,4.7-4.7
				C239.5,29.4,241.6,31.5,241.6,34.1z"/>
			<path class="st38" d="M254.5,34.1c0,2.6-2.1,4.7-4.7,4.7s-4.7-2.1-4.7-4.7s2.1-4.7,4.7-4.7S254.5,31.5,254.5,34.1z"/>
			<path class="st39" d="M267.4,34.1c0,2.6-2.1,4.7-4.7,4.7s-4.7-2.1-4.7-4.7s2.1-4.7,4.7-4.7C265.3,29.4,267.4,31.5,267.4,34.1
				L267.4,34.1z"/>
			<path class="st33" d="M307.4,34.1c0-1.7,1.4-3.1,3.1-3.1h-27.8c-1.7,0-3.1,1.4-3.1,3.1s1.4,3.1,3.1,3.1h27.8
				C308.8,37.2,307.4,35.8,307.4,34.1z"/>
			<path class="st40" d="M333.1,34.1c0-1.7-1.4-3.1-3.1-3.1h-20.3c-1.7,0-3.1,1.4-3.1,3.1s1.4,3.1,3.1,3.1H330
				C331.7,37.2,333.1,35.8,333.1,34.1z"/>
			<g>
				<path class="st40" d="M367.6,37.2h-4.1c-1.7,0-3.1-1.4-3.1-3.1s1.4-3.1,3.1-3.1h4.1c1.7,0,3.1,1.4,3.1,3.1
					S369.3,37.2,367.6,37.2z"/>
			</g>
			<g>
				<path class="st33" d="M353.5,37.2h-4.1c-1.7,0-3.1-1.4-3.1-3.1s1.4-3.1,3.1-3.1h4.1c1.7,0,3.1,1.4,3.1,3.1
					S355.2,37.2,353.5,37.2z"/>
			</g>
			<g>
				<path id="path9181_3_" class="st41" d="M383.5,126.2H219.2V57.7h164.3L383.5,126.2z"/>
				<g id="g9183_3_" transform="translate(396.0977,365.9668)">
					<path id="path9185_3_" class="st42" d="M-12.6-308.3v53.4c-5.9,2.4-12.3,3.8-19.1,3.8c-27.5,0-49.8-22.3-49.8-49.8
						c0-2.5,0.2-5,0.5-7.4H-12.6z"/>
				</g>
				<g id="g9211_3_" transform="translate(358.4614,298.3418)">
					<path id="path9213_3_" class="st43" d="M-3.3-206.4l3-3l-3-3"/>
				</g>
				<g id="g9215_3_" transform="translate(153.5386,298.3418)">
					<path id="path9217_3_" class="st43" d="M97.8-206.4l-3-3l3-3"/>
				</g>
				<g id="g9219_3_" transform="translate(244.6719,249.1592)">
					<path id="path9221_3_" class="st44" d="M52.8-132.3c0,1.6-1.3,2.8-2.8,2.8c-1.6,0-2.8-1.3-2.8-2.8c0-1.6,1.3-2.8,2.8-2.8
						C51.6-135.1,52.8-133.8,52.8-132.3"/>
				</g>
				<g id="g9223_3_" transform="translate(261.5937,249.1592)">
					<path id="path9225_3_" class="st45" d="M44.5-132.3c0,1.6-1.3,2.8-2.8,2.8c-1.6,0-2.8-1.3-2.8-2.8c0-1.6,1.3-2.8,2.8-2.8
						C43.2-135.1,44.5-133.8,44.5-132.3"/>
				</g>
				<g id="g9227_3_" transform="translate(278.5156,249.1592)">
					<path id="path9229_3_" class="st45" d="M36.1-132.3c0,1.6-1.3,2.8-2.8,2.8c-1.6,0-2.8-1.3-2.8-2.8c0-1.6,1.3-2.8,2.8-2.8
						C34.9-135.1,36.1-133.8,36.1-132.3"/>
				</g>
			</g>
			<g>
				<g id="g9231_3_" transform="translate(199.4058,152.8955)">
					<path id="path9233_3_" class="st46" d="M73.9,8.3H42.1c-0.8,0-1.5-0.7-1.5-1.5v-22.7c0-0.8,0.7-1.5,1.5-1.5h31.8
						c0.8,0,1.5,0.7,1.5,1.5V6.8C75.4,7.7,74.7,8.3,73.9,8.3"/>
				</g>
				<g id="g9235_3_" transform="translate(188.9829,152.8975)">
					<path id="path9237_3_" class="st47" d="M79,8.3H66.9V-6.6c0-0.8,0.7-1.5,1.5-1.5h9.1c0.8,0,1.5,0.7,1.5,1.5V8.3z"/>
				</g>
				<g id="g9239_3_" transform="translate(185.4336,127.335)">
					<path id="path9241_3_" class="st45" d="M80.8,46.9H63.2c-1.4,0-2.5-1.1-2.5-2.5c0-1.4,1.1-2.5,2.5-2.5h17.6
						c1.4,0,2.5,1.1,2.5,2.5C83.3,45.7,82.2,46.9,80.8,46.9"/>
				</g>
				<g id="g9251_3_" transform="translate(286.1025,152.8955)">
					<path id="path9253_3_" class="st46" d="M31.1,8.3H-0.6c-0.8,0-1.5-0.7-1.5-1.5v-22.7c0-0.8,0.7-1.5,1.5-1.5h31.8
						c0.8,0,1.5,0.7,1.5,1.5V6.8C32.7,7.7,32,8.3,31.1,8.3"/>
				</g>
				<g id="g9255_3_" transform="translate(275.6797,152.8975)">
					<path id="path9257_3_" class="st47" d="M36.3,8.3H24.1V-6.6c0-0.8,0.7-1.5,1.5-1.5h9.1c0.8,0,1.5,0.7,1.5,1.5V8.3z"/>
				</g>
				<g id="g9259_3_" transform="translate(272.1304,127.335)">
					<path id="path9261_3_" class="st45" d="M38,46.9H20.4c-1.4,0-2.5-1.1-2.5-2.5c0-1.4,1.1-2.5,2.5-2.5H38c1.4,0,2.5,1.1,2.5,2.5
						C40.6,45.7,39.4,46.9,38,46.9"/>
				</g>
				<g id="g9271_3_" transform="translate(372.7988,152.8955)">
					<path id="path9273_3_" class="st46" d="M-11.6,8.3h-31.8c-0.8,0-1.5-0.7-1.5-1.5v-22.7c0-0.8,0.7-1.5,1.5-1.5h31.8
						c0.8,0,1.5,0.7,1.5,1.5V6.8C-10.1,7.7-10.8,8.3-11.6,8.3"/>
				</g>
				<g id="g9275_3_" transform="translate(362.3765,152.8975)">
					<path id="path9277_3_" class="st47" d="M-6.5,8.3h-12.2V-6.6c0-0.8,0.7-1.5,1.5-1.5H-8c0.8,0,1.5,0.7,1.5,1.5V8.3z"/>
				</g>
				<g id="g9279_3_" transform="translate(358.8271,127.335)">
					<path id="path9281_3_" class="st45" d="M-4.7,46.9h-17.6c-1.4,0-2.5-1.1-2.5-2.5c0-1.4,1.1-2.5,2.5-2.5h17.6
						c1.4,0,2.5,1.1,2.5,2.5C-2.2,45.7-3.3,46.9-4.7,46.9"/>
				</g>
			</g>
			<g>
				<g id="g9243_3_" transform="translate(199.9019,91.3535)">
					<path id="path9245_3_" class="st46" d="M76.8,101.4H49.8c-1.2,0-2.2-1-2.2-2.2c0-1.2,1-2.2,2.2-2.2h26.9c1.2,0,2.2,1,2.2,2.2
						C79,100.4,78,101.4,76.8,101.4"/>
				</g>
				<g id="g9247_3_" transform="translate(199.9019,71.8398)">
					<path id="path9249_3_" class="st46" d="M76.8,129.5H49.8c-1.2,0-2.2-1-2.2-2.2c0-1.2,1-2.2,2.2-2.2h26.9c1.2,0,2.2,1,2.2,2.2
						C79,128.5,78,129.5,76.8,129.5"/>
				</g>
				<g id="g9263_3_" transform="translate(286.5986,91.3535)">
					<path id="path9265_3_" class="st46" d="M28.2,101.4H1.3c-1.2,0-2.2-1-2.2-2.2c0-1.2,1-2.2,2.2-2.2h26.9c1.2,0,2.2,1,2.2,2.2
						C30.4,100.4,29.4,101.4,28.2,101.4"/>
				</g>
				<g id="g9267_3_" transform="translate(286.5986,71.8398)">
					<path id="path9269_3_" class="st46" d="M28.2,129.5H1.3c-1.2,0-2.2-1-2.2-2.2c0-1.2,1-2.2,2.2-2.2h26.9c1.2,0,2.2,1,2.2,2.2
						C30.4,128.5,29.4,129.5,28.2,129.5"/>
				</g>
				<g id="g9283_3_" transform="translate(373.2954,91.3535)">
					<path id="path9285_3_" class="st46" d="M-20.3,101.4h-26.9c-1.2,0-2.2-1-2.2-2.2c0-1.2,1-2.2,2.2-2.2h26.9c1.2,0,2.2,1,2.2,2.2
						C-18.1,100.4-19.1,101.4-20.3,101.4"/>
				</g>
				<g id="g9287_3_" transform="translate(373.2954,71.8398)">
					<path id="path9289_3_" class="st46" d="M-20.3,129.5h-26.9c-1.2,0-2.2-1-2.2-2.2c0-1.2,1-2.2,2.2-2.2h26.9c1.2,0,2.2,1,2.2,2.2
						C-18.1,128.5-19.1,129.5-20.3,129.5"/>
				</g>
			</g>
			<rect x="240" y="181.3" class="st33" width="122.7" height="0.3"/>
		</g>
		<path class="st3" d="M369,22.3c7.9,0,14.3,6.4,14.3,14.3V215c0,7.9-6.4,14.3-14.3,14.3H233.6c-7.9,0-14.3-6.4-14.3-14.3V36.7
			c0-7.9,6.4-14.3,14.3-14.3H369 M369,16.1H233.6c-11.3,0-20.6,9.2-20.6,20.6V215c0,11.3,9.2,20.6,20.6,20.6H369
			c11.3,0,20.6-9.2,20.6-20.6V36.7C389.5,25.3,380.3,16.1,369,16.1L369,16.1z"/>
	</g>
	<g>
		<g>
			<path class="st48" d="M359.8,182.8c0,3.3-2.6,6-5.9,6c-3.3,0-6-2.6-6-6c0-3.3,2.7-5.9,6-5.9C357.2,176.9,359.8,179.5,359.8,182.8
				L359.8,182.8z"/>
			<path class="st49" d="M391.9,155.2c0,3.3-2.6,6-5.9,6c-3.3,0-6-2.6-6-6c0-3.3,2.7-5.9,6-5.9C389.2,149.3,391.9,151.9,391.9,155.2
				z"/>
			<path class="st50" d="M423.9,174.7c0,3.3-2.6,6-5.9,6c-3.3,0-6-2.6-6-6c0-3.3,2.7-5.9,6-5.9C421.3,168.8,423.9,171.4,423.9,174.7
				L423.9,174.7z"/>
			<path class="st24" d="M456,143.8c0,3.3-2.6,6-5.9,6c-3.3,0-6-2.6-6-6c0-3.3,2.7-5.9,6-5.9C453.3,137.9,456,140.5,456,143.8z"/>
			<path class="st51" d="M359.8,182.6v0.2c0,3.3-2.7,6-5.9,6c-3.3,0-6-2.7-6-6c0-1.8,0.8-3.4,2-4.5c0.1,3.2,2.7,5.7,6,5.7
				C357.4,184,358.8,183.5,359.8,182.6z"/>
			<path class="st52" d="M391.9,155v0.2c0,3.3-2.7,6-5.9,6c-3.3,0-6-2.7-6-6c0-1.8,0.8-3.4,2-4.5c0.1,3.2,2.7,5.7,6,5.7
				C389.5,156.4,390.8,155.9,391.9,155L391.9,155z"/>
			<path class="st53" d="M423.9,174.5v0.3c0,3.3-2.7,6-5.9,6c-3.3,0-6-2.7-6-6c0-1.8,0.8-3.4,2-4.5c0.2,3.2,2.8,5.7,6,5.7
				C421.5,175.9,422.9,175.4,423.9,174.5L423.9,174.5z"/>
			<path class="st54" d="M455.9,143.6v0.2c0,3.3-2.6,6-5.9,6c-3.3,0-6-2.7-6-6c0-1.8,0.8-3.4,2-4.4c0.2,3.2,2.8,5.7,6,5.7
				C453.5,145,454.9,144.5,455.9,143.6z"/>
			<path class="st3" d="M353.9,190.7c4.3,0,7.9-3.5,7.9-7.9c0-1.3-0.4-2.5-0.9-3.6l20.1-17.9c1.4,1.1,3.1,1.8,5,1.8
				c2.3,0,4.4-1,5.8-2.6l18.5,12.5c-0.1,0.5-0.2,1.1-0.2,1.7c0,4.4,3.5,7.9,7.9,7.9c4.3,0,7.9-3.5,7.9-7.9c0-1.2-0.3-2.3-0.7-3.3
				l20.7-20.9c1.2,0.7,2.6,1.2,4.2,1.2c4.3,0,7.9-3.5,7.9-7.9c0-4.3-3.5-7.9-7.9-7.9c-4.4,0-7.9,3.5-7.9,7.9c0,1.4,0.4,2.7,1.1,3.9
				l-20.6,20.7c-1.3-1-2.9-1.5-4.6-1.5c-2.4,0-4.4,1.1-5.9,2.7L393.6,157c0.1-0.6,0.2-1.2,0.2-1.8c0-4.3-3.5-7.9-7.9-7.9
				c-4.4,0-7.9,3.5-7.9,7.9c0,1,0.2,2,0.6,2.9l-20.3,18.1c-1.3-0.8-2.8-1.4-4.4-1.4c-4.4,0-7.9,3.5-7.9,7.9
				C346,187.2,349.5,190.7,353.9,190.7z M450,139.8c2.2,0,4,1.8,4,4s-1.8,4-4,4s-4-1.8-4-4S447.8,139.8,450,139.8z M418,170.7
				c2.2,0,4,1.8,4,4s-1.8,4-4,4s-4-1.8-4-4C414,172.5,415.8,170.7,418,170.7L418,170.7z M385.9,151.3c2.2,0,4,1.8,4,4s-1.8,4-4,4
				s-4-1.8-4-4C381.9,153,383.7,151.3,385.9,151.3L385.9,151.3z M353.9,178.8c2.2,0,4,1.8,4,4s-1.8,4-4,4s-4-1.8-4-4
				C349.9,180.6,351.7,178.8,353.9,178.8L353.9,178.8z"/>
		</g>
		<g>
			<path class="st55" d="M349.5,219h20.6v29.4h-20.6V219z"/>
			<path class="st28" d="M370.1,250h-20.6c-0.9,0-1.6-0.7-1.6-1.6V219c0-0.9,0.7-1.6,1.6-1.6h20.6c0.9,0,1.6,0.7,1.6,1.6v29.4
				C371.7,249.3,371,250,370.1,250z M351.1,246.7h17.3v-26.2h-17.3L351.1,246.7z"/>
			<path class="st26" d="M378.1,189.1h20.6v59.3h-20.6V189.1z"/>
			<path class="st28" d="M398.6,250h-20.6c-0.9,0-1.6-0.7-1.6-1.6v-59.3c0-0.9,0.7-1.6,1.6-1.6h20.6c0.9,0,1.6,0.7,1.6,1.6v59.3
				C400.3,249.3,399.5,250,398.6,250z M379.7,246.7H397v-56h-17.3V246.7z"/>
			<path class="st56" d="M406.6,204.2h20.6v44.2h-20.6V204.2z"/>
			<path class="st28" d="M427.2,250h-20.6c-0.9,0-1.6-0.7-1.6-1.6v-44.2c0-0.9,0.7-1.6,1.6-1.6h20.6c0.9,0,1.6,0.7,1.6,1.6v44.2
				C428.8,249.3,428.1,250,427.2,250z M408.3,246.7h17.3v-40.9h-17.3V246.7z"/>
			<path class="st0" d="M435.2,177.5h20.6v70.9h-20.6V177.5z"/>
			<path class="st28" d="M455.8,250h-20.6c-0.9,0-1.6-0.7-1.6-1.6v-70.9c0-0.9,0.7-1.6,1.6-1.6h20.6c0.9,0,1.6,0.7,1.6,1.6v70.9
				C457.4,249.3,456.7,250,455.8,250L455.8,250z M436.8,246.7h17.3v-67.6h-17.3V246.7z"/>
		</g>
	</g>
	<g>
		<path class="st57" d="M210.7,218.7c0,9.4-4.3,18.6-12.5,24.5l-17.6-24.5h5.1H210.7z"/>
		<circle class="st58" cx="180.6" cy="218.8" r="31.2"/>
		<circle class="st58" cx="180.6" cy="218.7" r="30.1"/>
		<path class="st58" d="M180.6,188.6c16.6,0,30.1,13.5,30.1,30.1h-30.1V188.6z"/>
		<path class="st59" d="M198.8,238.9l-12.4-17.2h21.2C206.9,228.5,203.6,234.5,198.8,238.9L198.8,238.9z"/>
		<path class="st60" d="M153.4,218.7c0,15,12.2,27.2,27.2,27.2c4.9,0,9.4-1.3,13.4-3.5l-15.8-21.9l0,0c-0.4-0.5-0.6-1.1-0.6-1.7v-27
			C164,193.2,153.4,204.7,153.4,218.7z"/>
		<path class="st61" d="M207.6,215.8h-24.1v-24.1C196.2,193.1,206.2,203.1,207.6,215.8z"/>
	</g>
</g>
</svg>
