<svg xmlns="http://www.w3.org/2000/svg" viewBox="0 0 589 273"><defs><style>.cls-1{isolation:isolate;}.cls-2{fill:#fff;}.cls-3{fill:#515979;}.cls-4{fill:#667683;}.cls-5{fill:#ef7d7d;}.cls-6{fill:#ffe8a0;}.cls-7{fill:#7ddf96;}.cls-8{fill:#eeebff;}.cls-9{fill:#c7bcff;}.cls-10{opacity:0.2;}.cls-10,.cls-12,.cls-17{mix-blend-mode:color-burn;}.cls-11{fill:#ffd886;}.cls-12,.cls-21{opacity:0.4;}.cls-13{fill:#fff3da;}.cls-14{fill:#d8f5df;}.cls-15{fill:#d2f4fd;}.cls-16{fill:#6adaf7;}.cls-17{opacity:0.3;}.cls-18{fill:#a6e9fa;}.cls-19{fill:#80de98;}.cls-20{opacity:0.8;}.cls-20,.cls-21,.cls-25{mix-blend-mode:soft-light;}.cls-22{fill:#f5cba2;}.cls-23{fill:#d9ebfa;}.cls-24{fill:#75a5c3;}</style></defs><g class="cls-1"><g id="Layer_2" data-name="Layer 2"><g id="Layer_1-2" data-name="Layer 1"><path class="cls-2" d="M151,246a13,13,0,0,1-13-13V29a13,13,0,0,1,13-13h90a3,3,0,0,1,3,3V243a3,3,0,0,1-3,3Z"/><path class="cls-3" d="M241,19V243H151a10,10,0,0,1-10-10V29a10,10,0,0,1,10-10h90m0-6H151a16,16,0,0,0-16,16V233a16,16,0,0,0,16,16h90a6,6,0,0,0,6-6V19a6,6,0,0,0-6-6Z"/><path class="cls-4" d="M141,50a3,3,0,0,1-3-3V29a13,13,0,0,1,13-13h90a3,3,0,0,1,3,3V47a3,3,0,0,1-3,3Z"/><path class="cls-3" d="M241,19V47H141V29a10,10,0,0,1,10-10h90m0-6H151a16,16,0,0,0-16,16V47a6,6,0,0,0,6,6H241a6,6,0,0,0,6-6V19a6,6,0,0,0-6-6Z"/><path class="cls-2" d="M231,40a7,7,0,0,1,0-14h10a3,3,0,0,1,3,3v8a3,3,0,0,1-3,3Z"/><path class="cls-3" d="M241,29v8H231a4,4,0,0,1-4-4h0a4,4,0,0,1,4-4h10m0-6H231a10,10,0,0,0,0,20h10a6,6,0,0,0,6-6V29a6,6,0,0,0-6-6Z"/><circle class="cls-5" cx="157" cy="33" r="7"/><path class="cls-3" d="M157,29a4,4,0,1,1-4,4,4,4,0,0,1,4-4m0-6a10,10,0,1,0,10,10,10,10,0,0,0-10-10Z"/><circle class="cls-6" cx="181" cy="33" r="7"/><path class="cls-3" d="M181,29a4,4,0,1,1-4,4,4,4,0,0,1,4-4m0-6a10,10,0,1,0,10,10,10,10,0,0,0-10-10Z"/><circle class="cls-7" cx="205" cy="33" r="7"/><path class="cls-3" d="M205,29a4,4,0,1,1-4,4,4,4,0,0,1,4-4m0-6a10,10,0,1,0,10,10,10,10,0,0,0-10-10Z"/><path class="cls-8" d="M241,243H151a10,10,0,0,1-10-10V213H241Z"/><rect class="cls-8" x="141" y="53" width="100" height="80"/><circle class="cls-9" cx="202" cy="91.5" r="2.5"/><circle class="cls-9" cx="207.5" cy="102.5" r="2.5"/><circle class="cls-9" cx="196.5" cy="102.5" r="2.5"/><path class="cls-3" d="M228,70.24c-.47,0-1.09-.12-1.62-.15s-1.09-.09-1.61-.13a16.38,16.38,0,0,0-2.93.11,10.33,10.33,0,0,0-2.58.68,22.38,22.38,0,0,0-2.75,1.36l-.37.18a2,2,0,0,1-2.73-.92,2.06,2.06,0,0,1,0-1.75,8.86,8.86,0,0,1,3-3.7,4.89,4.89,0,0,1,1.07-.66,12.12,12.12,0,0,1,1.15-.55c.4-.12.8-.26,1.21-.37s.82-.15,1.23-.21a11.74,11.74,0,0,1,4.75.41,11.91,11.91,0,0,1,2.12.86,10.16,10.16,0,0,1,2,1.32,2,2,0,0,1,.22,2.81,2,2,0,0,1-1.5.7Z"/><path class="cls-3" d="M232,87.69a2.5,2.5,0,0,1-2.5-2.5,3.5,3.5,0,0,0-7,0,2.5,2.5,0,1,1-5,0,8.5,8.5,0,0,1,17,0A2.5,2.5,0,0,1,232,87.69Z"/><rect class="cls-9" x="141" y="131" width="100" height="82"/><g class="cls-10"><rect class="cls-3" x="141" y="131" width="100" height="4"/></g><path class="cls-8" d="M221,159a20,20,0,0,0,20,20V139A20,20,0,0,0,221,159Z"/><circle class="cls-8" cx="181" cy="159" r="20"/><g class="cls-10"><rect class="cls-3" x="161" y="185" width="40" height="4" rx="2"/></g><g class="cls-10"><rect class="cls-3" x="161" y="193" width="40" height="4" rx="2"/></g><g class="cls-10"><rect class="cls-3" x="161" y="201" width="20" height="4" rx="2"/></g><g class="cls-10"><path class="cls-3" d="M223,185h18a0,0,0,0,1,0,0v4a0,0,0,0,1,0,0H223a2,2,0,0,1-2-2v0A2,2,0,0,1,223,185Z"/></g><path class="cls-9" d="M241,237H230a2,2,0,0,1-2-2h0a2,2,0,0,1,2-2h11Z"/><path class="cls-9" d="M241,229H230a2,2,0,0,1-2-2h0a2,2,0,0,1,2-2h11Z"/><g class="cls-10"><path class="cls-3" d="M223,193h18a0,0,0,0,1,0,0v4a0,0,0,0,1,0,0H223a2,2,0,0,1-2-2v0a2,2,0,0,1,2-2Z"/></g><g class="cls-10"><path class="cls-3" d="M223,201h18a0,0,0,0,1,0,0v4a0,0,0,0,1,0,0H223a2,2,0,0,1-2-2v0a2,2,0,0,1,2-2Z"/></g><path class="cls-9" d="M191,221a30,30,0,0,0-28.91,22h57.82A30,30,0,0,0,191,221Z"/><path class="cls-3" d="M241.54,103a35.56,35.56,0,0,1-18.6-5.25,2,2,0,1,1,2.12-3.39,31.52,31.52,0,0,0,19.24,4.51,2,2,0,0,1,.37,4C243.63,102.91,242.59,103,241.54,103Z"/><path class="cls-3" d="M236.81,106.55a1.33,1.33,0,0,0-1.25,2.28l.63.54a6.7,6.7,0,0,0,2.3,1.21,6.59,6.59,0,0,0,1.24.3A9,9,0,0,0,241,111h0v-3.83A15.62,15.62,0,0,1,236.81,106.55Z"/><path class="cls-2" d="M247,244a3,3,0,0,1-3-3V13a3,3,0,0,1,3-3h90a13,13,0,0,1,13,13V231a13,13,0,0,1-13,13Z"/><path class="cls-3" d="M337,13a10,10,0,0,1,10,10V231a10,10,0,0,1-10,10H247V13h90m0-6H247a6,6,0,0,0-6,6V241a6,6,0,0,0,6,6h90a16,16,0,0,0,16-16V23A16,16,0,0,0,337,7Z"/><path class="cls-11" d="M337,241H247V191H347v40A10,10,0,0,1,337,241Z"/><rect class="cls-11" x="247" y="47" width="100" height="78"/><g class="cls-12"><circle class="cls-3" cx="288" cy="85.5" r="2.5"/></g><g class="cls-12"><circle class="cls-3" cx="293.5" cy="96.5" r="2.5"/></g><g class="cls-12"><circle class="cls-3" cx="282.5" cy="96.5" r="2.5"/></g><rect class="cls-13" x="247" y="125" width="100" height="66"/><path class="cls-2" d="M247,179h21a4,4,0,0,0,4-4V139a4,4,0,0,0-4-4H247Z"/><path class="cls-11" d="M264,161H247v-4h17a2,2,0,0,1,2,2h0A2,2,0,0,1,264,161Z"/><path class="cls-11" d="M254,169h-7v-4h7a2,2,0,0,1,2,2h0A2,2,0,0,1,254,169Z"/><rect class="cls-2" x="282" y="135" width="50" height="44" rx="4"/><circle class="cls-13" cx="294" cy="147" r="6"/><rect class="cls-11" x="288" y="157" width="38" height="4" rx="2"/><rect class="cls-11" x="288" y="165" width="32" height="4" rx="2"/><path class="cls-13" d="M307,201a24,24,0,0,0-17.88,40h35.76A24,24,0,0,0,307,201Z"/><path class="cls-13" d="M247,201v40h17.88A24,24,0,0,0,247,201Z"/><path class="cls-3" d="M268.5,89.6a2,2,0,0,1-.94-.24,8.68,8.68,0,0,0-7.11,0,2,2,0,1,1-1.89-3.52,12.67,12.67,0,0,1,10.89,0,2,2,0,0,1-.95,3.76Z"/><circle class="cls-3" cx="264" cy="78.85" r="8"/><circle class="cls-2" cx="266" cy="78.85" r="2"/><path class="cls-3" d="M258.14,63.53a10.09,10.09,0,0,1,1.95-1.31,11.21,11.21,0,0,1,2.12-.86,11.91,11.91,0,0,1,4.75-.42,10.58,10.58,0,0,1,1.23.22c.41.11.81.24,1.21.37a12,12,0,0,1,1.15.54,5.31,5.31,0,0,1,1.07.66,8.86,8.86,0,0,1,3,3.7,2,2,0,0,1-2.75,2.68l-.38-.19a23.92,23.92,0,0,0-2.75-1.36,9.9,9.9,0,0,0-2.58-.67,15.5,15.5,0,0,0-2.93-.11c-.52,0-1.06.06-1.61.12s-1.15.15-1.62.15h-.61a2,2,0,0,1-2-2A2,2,0,0,1,258.14,63.53Z"/><path class="cls-3" d="M246,118.5a2.5,2.5,0,0,1-2.5-2.5V98a2.5,2.5,0,0,1,2.5-2.5h18a2.5,2.5,0,0,1,2.5,2.5A20.53,20.53,0,0,1,246,118.5Z"/><path class="cls-3" d="M264,98a18,18,0,0,1-18,18V98h18m0-5H246a5,5,0,0,0-5,5v18a5,5,0,0,0,5,5,23,23,0,0,0,23-23,5,5,0,0,0-5-5Zm0,10h0Z"/><path class="cls-5" d="M259.39,110A18,18,0,0,1,246,116V104A18,18,0,0,1,259.39,110Z"/><path class="cls-4" d="M247,44a3,3,0,0,1-3-3V13a3,3,0,0,1,3-3h90a13,13,0,0,1,13,13V41a3,3,0,0,1-3,3Z"/><path class="cls-3" d="M337,13a10,10,0,0,1,10,10V41H247V13h90m0-6H247a6,6,0,0,0-6,6V41a6,6,0,0,0,6,6H347a6,6,0,0,0,6-6V23A16,16,0,0,0,337,7Z"/><path class="cls-2" d="M247,34a3,3,0,0,1-3-3V23a3,3,0,0,1,3-3h84a7,7,0,0,1,0,14Z"/><path class="cls-3" d="M331,23a4,4,0,0,1,4,4h0a4,4,0,0,1-4,4H247V23h84m0-6H247a6,6,0,0,0-6,6v8a6,6,0,0,0,6,6h84a10,10,0,0,0,0-20Z"/><rect class="cls-3" x="241" y="205" width="6" height="16" rx="3" transform="translate(31 457) rotate(-90)"/><rect class="cls-3" x="241" y="214" width="6" height="16" rx="3" transform="translate(22 466) rotate(-90)"/><rect class="cls-3" x="241" y="137" width="6" height="16" rx="3" transform="translate(99 389) rotate(-90)"/><rect class="cls-3" x="241" y="146" width="6" height="16" rx="3" transform="translate(90 398) rotate(-90)"/><rect class="cls-3" x="241" y="54" width="6" height="16" rx="3" transform="translate(182 306) rotate(-90)"/><rect class="cls-3" x="241" y="63" width="6" height="16" rx="3" transform="translate(173 315) rotate(-90)"/><path class="cls-2" d="M387,235a13,13,0,0,1-13-13V16A13,13,0,0,1,387,3h90a3,3,0,0,1,3,3V232a3,3,0,0,1-3,3Z"/><path class="cls-3" d="M477,6V232H387a10,10,0,0,1-10-10V16A10,10,0,0,1,387,6h90m0-6H387a16,16,0,0,0-16,16V222a16,16,0,0,0,16,16h90a6,6,0,0,0,6-6V6a6,6,0,0,0-6-6Z"/><path class="cls-7" d="M477,232H387a10,10,0,0,1-10-10V180H477Z"/><rect class="cls-7" x="377" y="40" width="100" height="72"/><path class="cls-4" d="M377,37a3,3,0,0,1-3-3V16A13,13,0,0,1,387,3h90a3,3,0,0,1,3,3V34a3,3,0,0,1-3,3Z"/><path class="cls-3" d="M477,6V34H377V16A10,10,0,0,1,387,6h90m0-6H387a16,16,0,0,0-16,16V34a6,6,0,0,0,6,6H477a6,6,0,0,0,6-6V6a6,6,0,0,0-6-6Z"/><path class="cls-2" d="M467,27a7,7,0,0,1,0-14h10a3,3,0,0,1,3,3v8a3,3,0,0,1-3,3Z"/><path class="cls-3" d="M477,16v8H467a4,4,0,0,1,0-8h10m0-6H467a10,10,0,0,0,0,20h10a6,6,0,0,0,6-6V16a6,6,0,0,0-6-6Z"/><circle class="cls-5" cx="393" cy="20" r="7"/><path class="cls-3" d="M393,16a4,4,0,1,1-4,4,4,4,0,0,1,4-4m0-6a10,10,0,1,0,10,10,10,10,0,0,0-10-10Z"/><circle class="cls-6" cx="417" cy="20" r="7"/><path class="cls-3" d="M417,16a4,4,0,1,1-4,4,4,4,0,0,1,4-4m0-6a10,10,0,1,0,10,10,10,10,0,0,0-10-10Z"/><circle class="cls-7" cx="441" cy="20" r="7"/><path class="cls-3" d="M441,16a4,4,0,1,1-4,4,4,4,0,0,1,4-4m0-6a10,10,0,1,0,10,10,10,10,0,0,0-10-10Z"/><g class="cls-12"><circle class="cls-3" cx="439" cy="76.5" r="2.5"/></g><g class="cls-12"><circle class="cls-3" cx="444.5" cy="87.5" r="2.5"/></g><g class="cls-12"><circle class="cls-3" cx="433.5" cy="87.5" r="2.5"/></g><rect class="cls-14" x="377" y="112" width="100" height="68"/><path class="cls-2" d="M456,168h21V124H456a4,4,0,0,0-4,4v36A4,4,0,0,0,456,168Z"/><circle class="cls-14" cx="464" cy="136" r="6"/><path class="cls-7" d="M477,150H460a2,2,0,0,1-2-2h0a2,2,0,0,1,2-2h17Z"/><rect class="cls-7" x="458" y="154" width="18" height="4" rx="2"/><rect class="cls-2" x="392" y="124" width="50" height="44" rx="4"/><circle class="cls-14" cx="404" cy="136" r="6"/><rect class="cls-7" x="398" y="146" width="38" height="4" rx="2"/><rect class="cls-7" x="398" y="154" width="24" height="4" rx="2"/><path class="cls-14" d="M453,216a23.87,23.87,0,0,0,6.12,16H477V192A24,24,0,0,0,453,216Z"/><path class="cls-14" d="M417,192a24,24,0,0,0-17.88,40h35.76A24,24,0,0,0,417,192Z"/><path class="cls-3" d="M465,56.24c-.47,0-1.09-.12-1.62-.15s-1.09-.09-1.61-.13a16.38,16.38,0,0,0-2.93.11,10.33,10.33,0,0,0-2.58.68,22.38,22.38,0,0,0-2.75,1.36l-.37.18a2,2,0,0,1-2.73-.92,2.06,2.06,0,0,1,0-1.75,8.86,8.86,0,0,1,3-3.7,4.89,4.89,0,0,1,1.07-.66,12.12,12.12,0,0,1,1.15-.55c.4-.12.8-.26,1.21-.37s.82-.15,1.23-.21a11.74,11.74,0,0,1,4.75.41,11.91,11.91,0,0,1,2.12.86,10.16,10.16,0,0,1,1.95,1.32,2,2,0,0,1,.22,2.81,2,2,0,0,1-1.5.7Z"/><path class="cls-3" d="M477.54,92a35.56,35.56,0,0,1-18.6-5.25,2,2,0,1,1,2.12-3.39,31.54,31.54,0,0,0,19.24,4.51,2,2,0,0,1,.37,4C479.63,92,478.59,92,477.54,92Z"/><path class="cls-3" d="M472.81,95.59a1.33,1.33,0,0,0-1.25,2.28l.63.54a7.87,7.87,0,0,0,3.54,1.51A7.69,7.69,0,0,0,477,100h0V96.21A15.62,15.62,0,0,1,472.81,95.59Z"/><path class="cls-3" d="M456.74,78.26a2,2,0,0,1-.94-3.76,12.67,12.67,0,0,1,10.89,0A2,2,0,0,1,464.8,78a8.72,8.72,0,0,0-7.11,0A1.92,1.92,0,0,1,456.74,78.26Z"/><circle class="cls-3" cx="461.24" cy="67.51" r="8"/><circle class="cls-2" cx="463.24" cy="67.51" r="2"/><path class="cls-2" d="M483,240a3,3,0,0,1-3-3V12a3,3,0,0,1,3-3h90a13,13,0,0,1,13,13V227a13,13,0,0,1-13,13Z"/><path class="cls-3" d="M573,12a10,10,0,0,1,10,10V227a10,10,0,0,1-10,10H483V12h90m0-6H483a6,6,0,0,0-6,6V237a6,6,0,0,0,6,6h90a16,16,0,0,0,16-16V22A16,16,0,0,0,573,6Z"/><path class="cls-15" d="M573,237H483V196H583v31A10,10,0,0,1,573,237Z"/><rect class="cls-15" x="483" y="46" width="100" height="68"/><path class="cls-4" d="M483,43a3,3,0,0,1-3-3V12a3,3,0,0,1,3-3h90a13,13,0,0,1,13,13V40a3,3,0,0,1-3,3Z"/><path class="cls-3" d="M573,12a10,10,0,0,1,10,10V40H483V12h90m0-6H483a6,6,0,0,0-6,6V40a6,6,0,0,0,6,6H583a6,6,0,0,0,6-6V22A16,16,0,0,0,573,6Z"/><path class="cls-2" d="M483,33a3,3,0,0,1-3-3V22a3,3,0,0,1,3-3h84a7,7,0,0,1,0,14Z"/><path class="cls-3" d="M567,22a4,4,0,0,1,0,8H483V22h84m0-6H483a6,6,0,0,0-6,6v8a6,6,0,0,0,6,6h84a10,10,0,0,0,0-20Z"/><circle class="cls-16" cx="524" cy="75.5" r="2.5"/><circle class="cls-16" cx="529.5" cy="86.5" r="2.5"/><circle class="cls-16" cx="518.5" cy="86.5" r="2.5"/><rect class="cls-16" x="483" y="112" width="100" height="84"/><g class="cls-17"><rect class="cls-3" x="483" y="112" width="100" height="4"/></g><path class="cls-15" d="M503,142a20,20,0,0,0-20-20v40A20,20,0,0,0,503,142Z"/><circle class="cls-15" cx="543" cy="142" r="20"/><g class="cls-17"><path class="cls-3" d="M483,168h18a2,2,0,0,1,2,2v0a2,2,0,0,1-2,2H483a0,0,0,0,1,0,0v-4A0,0,0,0,1,483,168Z"/></g><path class="cls-16" d="M528,225H483v-4h45a2,2,0,0,1,2,2h0A2,2,0,0,1,528,225Z"/><path class="cls-16" d="M548,217H483v-4h65a2,2,0,0,1,2,2h0A2,2,0,0,1,548,217Z"/><path class="cls-16" d="M548,233H483v-4h65a2,2,0,0,1,2,2h0A2,2,0,0,1,548,233Z"/><g class="cls-17"><path class="cls-3" d="M483,176h18a2,2,0,0,1,2,2v0a2,2,0,0,1-2,2H483a0,0,0,0,1,0,0v-4a0,0,0,0,1,0,0Z"/></g><g class="cls-17"><path class="cls-3" d="M483,184h6a2,2,0,0,1,2,2v0a2,2,0,0,1-2,2h-6a0,0,0,0,1,0,0v-4A0,0,0,0,1,483,184Z"/></g><g class="cls-17"><rect class="cls-3" x="523" y="168" width="40" height="4" rx="2"/></g><g class="cls-17"><rect class="cls-3" x="523" y="176" width="40" height="4" rx="2"/></g><g class="cls-17"><rect class="cls-3" x="523" y="184" width="24" height="4" rx="2"/></g><path class="cls-3" d="M492.53,53.72a10.16,10.16,0,0,1,2-1.32,11.91,11.91,0,0,1,2.12-.86,11.74,11.74,0,0,1,4.75-.41c.41.06.82.11,1.23.21s.81.25,1.21.37a12.12,12.12,0,0,1,1.15.55,4.89,4.89,0,0,1,1.07.66,8.86,8.86,0,0,1,3,3.7,2,2,0,0,1-1,2.7,2.06,2.06,0,0,1-1.75,0l-.38-.19a22.38,22.38,0,0,0-2.75-1.36,10.33,10.33,0,0,0-2.58-.68,16.38,16.38,0,0,0-2.93-.11c-.52,0-1.06.06-1.61.13s-1.15.15-1.62.15h-.61a2,2,0,0,1-2-2A2,2,0,0,1,492.53,53.72Z"/><path class="cls-3" d="M502.37,74.69a2.5,2.5,0,0,1-2.5-2.5,3.5,3.5,0,1,0-7,0,2.5,2.5,0,0,1-5,0,8.5,8.5,0,1,1,17,0A2.5,2.5,0,0,1,502.37,74.69Z"/><path class="cls-3" d="M483,105.5a2.5,2.5,0,0,1-2.5-2.5V85a2.5,2.5,0,0,1,2.5-2.5h18a2.5,2.5,0,0,1,2.5,2.5A20.53,20.53,0,0,1,483,105.5Z"/><path class="cls-3" d="M501,85a18,18,0,0,1-18,18V85h18m0-5H483a5,5,0,0,0-5,5v18a5,5,0,0,0,5,5,23,23,0,0,0,23-23,5,5,0,0,0-5-5Zm0,10h0Z"/><path class="cls-5" d="M496.39,97A18,18,0,0,1,483,103V91A18,18,0,0,1,496.39,97Z"/><rect class="cls-3" x="477" y="130" width="6" height="16" rx="3" transform="translate(342 618) rotate(-90)"/><rect class="cls-3" x="477" y="139" width="6" height="16" rx="3" transform="translate(333 627) rotate(-90)"/><rect class="cls-3" x="477" y="198" width="6" height="16" rx="3" transform="translate(274 686) rotate(-90)"/><rect class="cls-3" x="477" y="207" width="6" height="16" rx="3" transform="translate(265 695) rotate(-90)"/><rect class="cls-3" x="477" y="48" width="6" height="16" rx="3" transform="translate(424 536) rotate(-90)"/><rect class="cls-3" x="477" y="57" width="6" height="16" rx="3" transform="translate(415 545) rotate(-90)"/><path class="cls-18" d="M105,256a15,15,0,0,1-15-15V170h30v71A15,15,0,0,1,105,256Z"/><path class="cls-3" d="M117,173v68a12,12,0,0,1-12,12h0a12,12,0,0,1-12-12V173h24m6-6H87v74a18,18,0,0,0,36,0V167Z"/><polygon class="cls-16" points="93 173 117 173 117 173 117 178 93 183 93 173"/><path class="cls-18" d="M91,170a7,7,0,0,1,0-14h28a7,7,0,0,1,0,14Z"/><path class="cls-3" d="M119,159a4,4,0,0,1,0,8H91a4,4,0,0,1,0-8h28m0-6H91a10,10,0,0,0,0,20h28a10,10,0,0,0,0-20Z"/><path class="cls-16" d="M123,163h0a4,4,0,0,1-4,4H91a4,4,0,0,1-4-4h36Z"/><rect class="cls-16" x="93" y="205" width="24" height="8"/><path class="cls-19" d="M97,191h16a0,0,0,0,1,0,0v50a8,8,0,0,1-8,8h0a8,8,0,0,1-8-8V191a0,0,0,0,1,0,0Z"/><g class="cls-20"><circle class="cls-2" cx="107" cy="230" r="2"/></g><g class="cls-20"><circle class="cls-2" cx="104.5" cy="239.5" r="1.5"/></g><g class="cls-20"><circle class="cls-2" cx="103.5" cy="220.5" r="1.5"/></g><g class="cls-21"><rect x="97" y="205" width="16" height="8"/></g><path class="cls-18" d="M54,256a15,15,0,0,1-15-15V170H69v71A15,15,0,0,1,54,256Z"/><path class="cls-3" d="M66,173v68a12,12,0,0,1-12,12h0a12,12,0,0,1-12-12V173H66m6-6H36v74a18,18,0,0,0,36,0V167Z"/><polygon class="cls-16" points="42 173 66 173 66 173 66 178 42 183 42 173"/><path class="cls-18" d="M40,170a7,7,0,0,1,0-14H68a7,7,0,0,1,0,14Z"/><path class="cls-3" d="M68,159a4,4,0,0,1,0,8H40a4,4,0,0,1,0-8H68m0-6H40a10,10,0,0,0,0,20H68a10,10,0,0,0,0-20Z"/><path class="cls-16" d="M72,163h0a4,4,0,0,1-4,4H40a4,4,0,0,1-4-4H72Z"/><rect class="cls-16" x="42" y="205" width="24" height="8"/><path class="cls-22" d="M46,191H62a0,0,0,0,1,0,0v50a8,8,0,0,1-8,8h0a8,8,0,0,1-8-8V191a0,0,0,0,1,0,0Z"/><path class="cls-23" d="M8,202a5,5,0,0,1,0-10H151a5,5,0,0,1,0,10Z"/><path class="cls-3" d="M151,195a2,2,0,0,1,0,4H8a2,2,0,0,1,0-4H151m0-6H8a8,8,0,0,0,0,16H151a8,8,0,0,0,0-16Z"/><g class="cls-20"><circle class="cls-2" cx="52" cy="238" r="2"/></g><g class="cls-20"><circle class="cls-2" cx="56.5" cy="227.5" r="1.5"/></g><g class="cls-21"><rect x="46" y="205" width="16" height="8"/></g><rect class="cls-24" x="15" y="185" width="12" height="79" rx="3"/><path class="cls-3" d="M24,188v73H18V188h6m0-6H18a6,6,0,0,0-6,6v73a6,6,0,0,0,6,6h6a6,6,0,0,0,6-6V188a6,6,0,0,0-6-6Z"/><rect class="cls-24" x="132" y="185" width="12" height="79" rx="3"/><path class="cls-3" d="M141,188v73h-6V188h6m0-6h-6a6,6,0,0,0-6,6v73a6,6,0,0,0,6,6h6a6,6,0,0,0,6-6V188a6,6,0,0,0-6-6Z"/><path class="cls-24" d="M120,270v-3a9,9,0,0,1,9-9h18a9,9,0,0,1,9,9v3Z"/><path class="cls-3" d="M147,261a6,6,0,0,1,6,6H123a6,6,0,0,1,6-6h18m0-6H129a12,12,0,0,0-12,12v6h42v-6a12,12,0,0,0-12-12Z"/><path class="cls-24" d="M3,270v-3a9,9,0,0,1,9-9H30a9,9,0,0,1,9,9v3Z"/><path class="cls-3" d="M30,261a6,6,0,0,1,6,6H6a6,6,0,0,1,6-6H30m0-6H12A12,12,0,0,0,0,267v6H42v-6a12,12,0,0,0-12-12Z"/><circle class="cls-22" cx="50.5" cy="144.5" r="3.5"/><circle class="cls-19" cx="109" cy="146" r="3"/><circle class="cls-19" cx="101.5" cy="135.5" r="2.5"/><circle class="cls-22" cx="59" cy="130" r="3"/><path class="cls-18" d="M362,270a38,38,0,0,1-12-74.06V174h24v21.94A38,38,0,0,1,362,270Z"/><path class="cls-3" d="M371,177v21.17a35,35,0,1,1-18,0V177h18m6-6H347v22.84a41,41,0,1,0,30,0V171Z"/><path class="cls-5" d="M362,227.5c-16.57,0-30,2-30,4.5a30,30,0,0,0,60,0C392,229.51,378.57,227.5,362,227.5Z"/><path class="cls-18" d="M350,174a6,6,0,0,1,0-12h24a6,6,0,0,1,0,12Z"/><path class="cls-3" d="M374,165a3,3,0,0,1,0,6H350a3,3,0,0,1,0-6h24m0-6H350a9,9,0,0,0,0,18h24a9,9,0,0,0,0-18Z"/><path class="cls-16" d="M374,171H350a3,3,0,0,1-3-3h30A3,3,0,0,1,374,171Z"/><g class="cls-21"><ellipse class="cls-2" cx="362" cy="232" rx="30" ry="4.5"/></g><g class="cls-25"><path class="cls-2" d="M376.3,205.62a63.89,63.89,0,0,1,0,52.76,30,30,0,0,0,0-52.76Z"/></g><polygon class="cls-16" points="371 182 353 187 353 177 371 177 371 182"/><g class="cls-21"><circle class="cls-2" cx="349" cy="245" r="3"/></g><g class="cls-21"><circle class="cls-2" cx="362" cy="257" r="2"/></g><circle class="cls-5" cx="359.5" cy="151.5" r="3.5"/><circle class="cls-5" cx="364" cy="137" r="3"/></g></g></g></svg>