<svg width="600" height="250" viewBox="0 0 600 250" fill="none" xmlns="http://www.w3.org/2000/svg">
<mask id="mask0_831_111760" style="mask-type:alpha" maskUnits="userSpaceOnUse" x="0" y="0" width="600" height="250">
<rect width="600" height="250" fill="#D9D9D9"/>
</mask>
<g mask="url(#mask0_831_111760)">
</g>
<g clip-path="url(#clip0_831_111760)">
<path d="M126.643 184.526H73.3595C72.4747 184.526 71.7866 183.838 71.7866 182.953V179.807C71.7866 178.923 72.4747 178.234 73.3595 178.234H126.643C127.528 178.234 128.216 178.923 128.216 179.807V182.953C128.216 183.838 127.528 184.526 126.643 184.526Z" fill="#87796F"/>
<path d="M100.886 184.526H99.2148H75.2274L93.5129 208.612V227.291C93.5129 227.684 93.9061 228.077 94.2993 228.077H105.802C106.195 228.077 106.588 227.684 106.588 227.291V208.612L124.873 184.526H100.886Z" fill="#C1A897"/>
<path d="M122.317 173.319H110.717V170.959C110.717 168.207 112.978 165.946 115.731 165.946H117.304C120.056 165.946 122.317 168.207 122.317 170.959V173.319Z" fill="#F9A7A7"/>
<path d="M122.317 174.105H110.717C110.324 174.105 109.93 173.712 109.93 173.319V170.959C109.93 167.715 112.585 165.159 115.731 165.159H117.304C120.548 165.159 123.104 167.814 123.104 170.959V173.319C123.104 173.81 122.809 174.105 122.317 174.105ZM111.405 172.631H121.531V171.058C121.531 168.698 119.663 166.83 117.304 166.83H115.731C113.371 166.83 111.503 168.698 111.503 171.058L111.405 172.631Z" fill="#35414D"/>
<path d="M116.517 165.946C119.721 165.946 122.317 163.349 122.317 160.145C122.317 156.942 119.721 154.345 116.517 154.345C113.314 154.345 110.717 156.942 110.717 160.145C110.717 163.349 113.314 165.946 116.517 165.946Z" fill="#FFE4CF"/>
<path d="M116.517 166.732C112.88 166.732 109.93 163.783 109.93 160.145C109.93 156.508 112.88 153.559 116.517 153.559C120.155 153.559 123.104 156.508 123.104 160.145C123.104 163.783 120.155 166.732 116.517 166.732ZM116.517 155.033C113.765 155.033 111.503 157.294 111.503 160.047C111.503 162.8 113.765 165.061 116.517 165.061C119.27 165.061 121.531 162.8 121.531 160.047C121.531 157.294 119.27 155.033 116.517 155.033Z" fill="#35414D"/>
<path d="M106.588 174.302H93.4146V171.648C93.4146 168.502 95.9706 165.946 99.1165 165.946H100.886C104.032 165.946 106.588 168.502 106.588 171.648V174.302Z" fill="#E0EBFC"/>
<path d="M93.4146 174.794C93.1196 174.794 92.923 174.597 92.923 174.302V171.648C92.923 168.207 95.6757 165.454 99.1165 165.454H100.886C104.327 165.454 107.08 168.207 107.08 171.648V174.302C107.08 174.597 106.883 174.794 106.588 174.794H93.4146ZM99.1165 166.437C96.2655 166.437 94.0044 168.797 94.0044 171.549V173.712H106.096V171.549C106.096 168.698 103.737 166.437 100.984 166.437H99.1165Z" fill="#35414D"/>
<path d="M100.886 165.651C104.229 165.651 106.883 168.305 106.883 171.648V174.302C106.883 174.499 106.785 174.597 106.588 174.597H93.4146C93.2179 174.597 93.1196 174.499 93.1196 174.302V171.648C93.1196 168.305 95.774 165.651 99.1165 165.651H100.886ZM93.7095 174.007H94.201H105.802H106.293V173.516V171.648C106.293 168.698 103.835 166.241 100.886 166.241H99.1165C96.1672 166.241 93.7095 168.698 93.7095 171.648V173.516V174.007ZM100.886 165.159H99.1165C95.5774 165.159 92.6281 168.109 92.6281 171.648V174.302C92.6281 174.695 93.0213 175.089 93.4146 175.089H106.588C106.981 175.089 107.374 174.695 107.374 174.302V171.648C107.374 168.01 104.523 165.159 100.886 165.159ZM94.201 173.516V171.648C94.201 168.895 96.3638 166.732 99.1165 166.732H100.886C103.639 166.732 105.802 168.895 105.802 171.648V173.516H94.201Z" fill="#35414D"/>
<path d="M100.001 165.946C103.639 165.946 106.588 162.997 106.588 159.359C106.588 155.721 103.639 152.772 100.001 152.772C96.3635 152.772 93.4146 155.721 93.4146 159.359C93.4146 162.997 96.3635 165.946 100.001 165.946Z" fill="#FFE4CF"/>
<path d="M100.001 166.437C96.0689 166.437 92.8247 163.193 92.8247 159.359C92.8247 155.525 96.0689 152.182 100.001 152.182C103.934 152.182 107.178 155.427 107.178 159.359C107.178 163.291 103.934 166.437 100.001 166.437ZM100.001 153.264C96.6588 153.264 93.9061 156.017 93.9061 159.359C93.9061 162.702 96.6588 165.454 100.001 165.454C103.344 165.454 106.096 162.702 106.096 159.359C106.096 156.017 103.344 153.264 100.001 153.264Z" fill="#35414D"/>
<path d="M100.001 152.477C103.835 152.477 106.883 155.525 106.883 159.359C106.883 163.193 103.835 166.241 100.001 166.241C96.1672 166.241 93.1196 163.193 93.1196 159.359C93.1196 155.525 96.2655 152.477 100.001 152.477ZM100.001 165.651C103.442 165.651 106.293 162.8 106.293 159.359C106.293 155.918 103.442 153.067 100.001 153.067C96.5604 153.067 93.7095 155.918 93.7095 159.359C93.7095 162.8 96.5604 165.651 100.001 165.651ZM100.001 151.986C95.9706 151.986 92.6281 155.328 92.6281 159.359C92.6281 163.39 95.9706 166.732 100.001 166.732C104.032 166.732 107.374 163.39 107.374 159.359C107.374 155.328 104.13 151.986 100.001 151.986ZM100.001 165.159C96.7571 165.159 94.201 162.505 94.201 159.359C94.201 156.213 96.8554 153.559 100.001 153.559C103.245 153.559 105.802 156.213 105.802 159.359C105.802 162.505 103.245 165.159 100.001 165.159Z" fill="#35414D"/>
<path d="M89.3839 173.319H77.6851V170.959C77.6851 168.207 79.9462 165.946 82.6989 165.946H84.2718C87.0245 165.946 89.2856 168.207 89.2856 170.959L89.3839 173.319Z" fill="#B9BEFC"/>
<path d="M77.6851 173.909C77.3902 173.909 77.1936 173.712 77.1936 173.417V171.058C77.1936 168.01 79.6513 165.454 82.7972 165.454H84.3701C87.4177 165.454 89.9737 167.912 89.9737 171.058V173.417C89.9737 173.515 89.8754 173.712 89.7771 173.81C89.6788 173.909 89.5805 174.007 89.3839 174.007H77.6851V173.909ZM82.6989 166.535C80.2411 166.535 78.1766 168.6 78.1766 171.058V172.926H88.794V171.058C88.794 168.6 86.7295 166.535 84.2718 166.535H82.6989Z" fill="#35414D"/>
<path d="M84.3701 165.651C87.3194 165.651 89.6788 168.01 89.6788 170.959V173.319C89.6788 173.417 89.6788 173.515 89.5805 173.515C89.4822 173.614 89.4822 173.614 89.3839 173.614H77.6851C77.4885 173.614 77.3902 173.515 77.3902 173.319V170.959C77.3902 168.01 79.7496 165.651 82.6989 165.651H84.3701ZM77.98 173.024H78.4716H88.5974H89.089V172.532V170.959C89.089 168.305 86.9262 166.241 84.3701 166.241H82.7972C80.1428 166.241 78.0783 168.403 78.0783 170.959V172.532V173.024M84.3701 165.159H82.7972C79.553 165.159 76.9969 167.814 76.9969 170.959V173.319C76.9969 173.712 77.3902 174.105 77.7834 174.105H89.4822C89.8754 174.105 90.2687 173.712 90.2687 173.319V170.959C90.1704 167.814 87.516 165.159 84.3701 165.159ZM78.4716 172.631V171.058C78.4716 168.698 80.3394 166.83 82.6989 166.83H84.2718C86.6312 166.83 88.4991 168.698 88.4991 171.058V172.631H78.4716Z" fill="#35414D"/>
<path d="M83.5836 165.946C86.787 165.946 89.3839 163.349 89.3839 160.145C89.3839 156.942 86.787 154.345 83.5836 154.345C80.3803 154.345 77.7834 156.942 77.7834 160.145C77.7834 163.349 80.3803 165.946 83.5836 165.946Z" fill="#FFE4CF"/>
<path d="M83.5836 166.536C80.0445 166.536 77.1936 163.685 77.1936 160.145C77.1936 156.606 80.0445 153.755 83.5836 153.755C87.1228 153.755 89.9737 156.606 89.9737 160.145C89.9737 163.685 87.0245 166.536 83.5836 166.536ZM83.5836 154.837C80.6344 154.837 78.275 157.196 78.275 160.145C78.275 163.095 80.6344 165.454 83.5836 165.454C86.5329 165.454 88.8923 163.095 88.8923 160.145C88.8923 157.196 86.4346 154.837 83.5836 154.837Z" fill="#35414D"/>
<path d="M83.5836 153.952C86.9262 153.952 89.6788 156.705 89.6788 160.047C89.6788 163.39 86.9262 166.142 83.5836 166.142C80.2411 166.142 77.4885 163.39 77.4885 160.047C77.4885 156.705 80.1428 153.952 83.5836 153.952ZM83.5836 165.651C86.6312 165.651 89.089 163.193 89.089 160.145C89.089 157.098 86.6312 154.64 83.5836 154.64C80.5361 154.64 78.0783 157.098 78.0783 160.145C78.0783 163.193 80.5361 165.651 83.5836 165.651ZM83.5836 153.46C79.9462 153.46 76.9969 156.41 76.9969 160.047C76.9969 163.685 79.9462 166.634 83.5836 166.634C87.2211 166.634 90.1704 163.685 90.1704 160.047C90.1704 156.41 87.2211 153.46 83.5836 153.46ZM83.5836 165.159C80.831 165.159 78.5699 162.898 78.5699 160.145C78.5699 157.393 80.831 155.132 83.5836 155.132C86.3363 155.132 88.5974 157.393 88.5974 160.145C88.5974 162.898 86.3363 165.159 83.5836 165.159Z" fill="#35414D"/>
<path d="M100.001 249.213C104.996 249.213 109.046 245.164 109.046 240.169C109.046 235.174 104.996 231.125 100.001 231.125C95.0062 231.125 90.9568 235.174 90.9568 240.169C90.9568 245.164 95.0062 249.213 100.001 249.213Z" fill="#EAA97D"/>
<path d="M100.001 246.657C103.585 246.657 106.49 243.753 106.49 240.169C106.49 236.586 103.585 233.681 100.001 233.681C96.4178 233.681 93.5129 236.586 93.5129 240.169C93.5129 243.753 96.4178 246.657 100.001 246.657Z" fill="#FFEA92"/>
<path d="M99.5097 244.593C98.33 244.396 97.4452 243.708 97.3469 242.43C97.3469 242.332 97.4452 242.234 97.5435 242.234H98.5266C98.6249 242.234 98.7232 242.332 98.7232 242.43C98.8216 242.823 99.0182 243.217 99.4114 243.315C99.5097 243.413 99.7063 243.315 99.7063 243.118V240.857C99.7063 240.759 99.608 240.661 99.5097 240.661C98.4283 240.366 97.3469 239.972 97.3469 238.301C97.3469 236.925 98.2317 236.04 99.5097 235.843C99.608 235.843 99.7063 235.745 99.7063 235.647V235.057C99.7063 234.959 99.8046 234.86 99.903 234.86H100.198C100.296 234.86 100.395 234.959 100.395 235.057V235.647C100.395 235.745 100.493 235.843 100.591 235.843C101.673 236.04 102.459 236.728 102.656 237.908C102.656 238.006 102.557 238.203 102.459 238.203H101.476C101.378 238.203 101.279 238.105 101.279 238.006C101.181 237.711 100.984 237.416 100.788 237.22C100.591 237.121 100.395 237.22 100.395 237.416V239.678C100.395 239.776 100.493 239.874 100.591 239.874C101.673 240.169 102.754 240.562 102.754 242.234C102.754 243.413 101.967 244.495 100.591 244.79C100.493 244.79 100.395 244.888 100.395 244.986V245.576C100.395 245.674 100.296 245.773 100.198 245.773H99.903C99.8046 245.773 99.7063 245.674 99.7063 245.576V244.79C99.7063 244.691 99.608 244.593 99.5097 244.593ZM99.7063 239.088V237.121C99.7063 236.925 99.608 236.827 99.4114 236.925C98.9199 237.121 98.6249 237.515 98.6249 238.105C98.6249 238.694 98.9199 238.989 99.4114 239.284C99.5097 239.383 99.7063 239.284 99.7063 239.088ZM100.395 241.25V243.217C100.395 243.413 100.591 243.512 100.689 243.413C101.181 243.217 101.476 242.725 101.476 242.234C101.476 241.644 101.181 241.349 100.689 241.152C100.591 240.956 100.395 241.054 100.395 241.25Z" fill="#EAA97D"/>
<path d="M100.001 250C94.5943 250 90.1704 245.576 90.1704 240.169C90.1704 234.762 94.5943 230.338 100.001 230.338C105.408 230.338 109.832 234.762 109.832 240.169C109.832 245.576 105.408 250 100.001 250ZM100.001 231.911C95.479 231.911 91.7433 235.647 91.7433 240.169C91.7433 244.691 95.479 248.427 100.001 248.427C104.523 248.427 108.259 244.691 108.259 240.169C108.259 235.647 104.523 231.911 100.001 231.911Z" fill="#35414D"/>
<path d="M109.537 231.026L116.321 240.366C116.517 240.661 117.009 240.661 117.205 240.366L123.989 231.026C124.284 230.633 123.989 230.24 123.595 230.24H121.236C120.941 230.24 120.744 230.043 120.744 229.748V215.199C120.744 214.904 120.548 214.707 120.253 214.707H113.371C113.076 214.707 112.88 214.904 112.88 215.199V229.748C112.88 230.043 112.683 230.24 112.388 230.24H110.029C109.537 230.24 109.341 230.731 109.537 231.026Z" fill="#D6DF58" stroke="#35414D" stroke-width="1.4629" stroke-miterlimit="10"/>
<path d="M126.643 185.313H73.3595C72.0815 185.313 71.0001 184.231 71.0001 182.953V179.807C71.0001 178.529 72.0815 177.448 73.3595 177.448H126.643C127.921 177.448 129.002 178.529 129.002 179.807V182.953C129.002 184.231 127.921 185.313 126.643 185.313ZM73.3595 179.021C72.868 179.021 72.573 179.414 72.573 179.807V182.953C72.573 183.445 72.9663 183.74 73.3595 183.74H126.643C127.135 183.74 127.429 183.346 127.429 182.953V179.807C127.429 179.316 127.036 179.021 126.643 179.021H73.3595Z" fill="#35414D" stroke="#35414D" stroke-width="0.4876" stroke-miterlimit="10"/>
<path d="M105.802 228.864H94.2993C93.4146 228.864 92.7264 228.175 92.7264 227.291V208.907L74.6375 185.018C74.4409 184.821 74.4409 184.428 74.5392 184.231C74.6375 183.936 74.9324 183.838 75.2274 183.838H124.775C125.07 183.838 125.365 184.035 125.463 184.231C125.562 184.526 125.562 184.821 125.365 185.018L107.276 208.907V227.291C107.374 228.077 106.686 228.864 105.802 228.864ZM76.8003 185.313L94.1027 208.12C94.201 208.219 94.2993 208.415 94.2993 208.612V227.291H105.802V208.612C105.802 208.415 105.9 208.317 105.998 208.12L123.301 185.313H76.8003Z" fill="#35414D" stroke="#35414D" stroke-width="0.4876" stroke-miterlimit="10"/>
<path d="M121.629 110.303H120.646C120.056 107.943 119.172 105.682 117.894 103.618L118.582 102.93C119.368 102.143 119.368 100.865 118.582 100.079L114.944 96.3429C114.158 95.5564 112.88 95.5564 112.093 96.3429L111.405 97.0311C109.439 95.753 107.178 94.8683 104.72 94.2784V93.2953C104.72 92.2139 103.835 91.2308 102.656 91.2308H97.4452C96.3638 91.2308 95.3807 92.1156 95.3807 93.2953V94.2784C94.1027 94.5733 90.7602 95.753 88.6957 97.0311L88.0076 96.3429C87.2211 95.5564 85.9431 95.5564 85.1566 96.3429L81.5192 99.9803C80.7327 100.767 80.7327 102.045 81.5192 102.831L82.2073 103.519C80.9293 105.584 79.9462 107.747 79.4547 110.204H78.4716C77.3902 110.204 76.4071 111.089 76.4071 112.269V117.479C76.4071 118.561 77.2919 119.544 78.4716 119.544H79.3564C79.8479 122.002 80.831 124.263 82.109 126.327L81.5192 126.917C80.7327 127.704 80.7327 128.982 81.5192 129.768L85.1566 133.405C85.9431 134.192 87.2211 134.192 88.0076 133.405L88.5974 132.816C90.6619 134.094 92.923 135.077 95.3807 135.667V136.453C95.3807 137.534 96.2655 138.517 97.4452 138.517H102.656C103.737 138.517 104.72 137.633 104.72 136.453V135.667C107.178 135.077 109.439 134.192 111.503 132.816L112.093 133.405C112.88 134.192 114.158 134.192 114.944 133.405L118.582 129.768C119.368 128.982 119.368 127.704 118.582 126.917L117.992 126.327C119.27 124.263 120.253 122.002 120.744 119.544H121.629C122.711 119.544 123.694 118.659 123.694 117.479V112.269C123.694 111.188 122.711 110.303 121.629 110.303ZM100.001 125.442C94.1027 125.442 89.3839 120.724 89.3839 114.825C89.3839 108.926 94.1027 104.208 100.001 104.208C105.9 104.208 110.619 108.926 110.619 114.825C110.619 120.724 105.9 125.442 100.001 125.442Z" fill="#D7E057"/>
<path d="M102.656 139.501H97.4452C95.774 139.501 94.3976 138.124 94.3976 136.453C92.4315 135.962 90.5636 135.175 88.794 134.094C88.2042 134.683 87.4177 134.978 86.6312 134.978C85.8448 134.978 85.0583 134.683 84.4684 134.094L80.831 130.456C79.6513 129.277 79.6513 127.31 80.831 126.131C79.8479 124.361 79.0614 122.493 78.5699 120.527H78.4716C76.8003 120.527 75.424 119.151 75.424 117.479V112.269C75.424 110.598 76.8003 109.221 78.4716 109.221H78.5699C79.0614 107.255 79.8479 105.486 80.831 103.716L80.7327 103.618C79.553 102.438 79.553 100.472 80.7327 99.2922L84.3701 95.6548C84.96 95.0649 85.7464 94.77 86.5329 94.77C87.3194 94.77 88.1059 95.0649 88.6957 95.6548L88.8923 95.8514C90.6619 94.8683 93.0213 94.0819 94.3976 93.5903V93.2954C94.3976 91.6241 95.774 90.2478 97.4452 90.2478H102.656C104.327 90.2478 105.703 91.6241 105.703 93.2954V93.492C107.669 93.9835 109.439 94.77 111.208 95.7531L111.405 95.5565C112.585 94.3768 114.551 94.3768 115.731 95.5565L119.368 99.1939C120.548 100.374 120.548 102.34 119.368 103.52L119.27 103.618C120.253 105.387 121.039 107.157 121.531 109.123H121.629C123.301 109.123 124.677 110.499 124.677 112.171V117.381C124.677 119.052 123.301 120.429 121.629 120.429H121.531C121.039 122.395 120.253 124.263 119.27 126.032C120.45 127.212 120.45 129.178 119.27 130.358L115.632 133.995C114.453 135.175 112.487 135.175 111.307 133.995C109.537 135.077 107.669 135.863 105.703 136.355C105.703 138.124 104.327 139.501 102.656 139.501ZM88.5974 131.833C88.794 131.833 88.9906 131.931 89.1873 132.029C91.1534 133.307 93.3162 134.192 95.6757 134.684C96.1672 134.782 96.4621 135.175 96.4621 135.667V136.453C96.4621 137.043 96.9537 137.436 97.4452 137.436H102.656C103.245 137.436 103.639 136.945 103.639 136.453V135.667C103.639 135.175 103.934 134.782 104.425 134.684C106.686 134.192 108.849 133.307 110.914 132.029C111.307 131.734 111.798 131.833 112.192 132.127L112.781 132.717C113.175 133.111 113.863 133.111 114.256 132.717L117.894 129.08C118.287 128.687 118.287 127.998 117.894 127.605L117.304 127.015C117.009 126.72 116.91 126.131 117.205 125.737C118.483 123.771 119.368 121.608 119.86 119.347C119.958 118.856 120.351 118.561 120.843 118.561H121.728C122.317 118.561 122.711 118.069 122.711 117.578V112.367C122.711 111.777 122.219 111.384 121.728 111.384H120.744C120.253 111.384 119.86 111.089 119.761 110.598C119.27 108.337 118.385 106.174 117.107 104.208C116.812 103.814 116.91 103.323 117.205 102.93L117.894 102.242C118.287 101.848 118.287 101.16 117.894 100.767L114.256 97.1294C113.863 96.7362 113.175 96.7362 112.781 97.1294L112.093 97.8176C111.798 98.1125 111.208 98.2108 110.815 97.9159C108.849 96.6379 106.785 95.8514 104.523 95.2616C104.032 95.1633 103.737 94.77 103.737 94.2785V93.2954C103.737 92.7055 103.245 92.3123 102.754 92.3123H97.5435C96.9537 92.3123 96.5604 92.8038 96.5604 93.2954V94.2785C96.5604 94.77 96.2655 95.1633 95.774 95.2616C94.496 95.5565 91.2518 96.7362 89.3839 97.9159C88.9906 98.2108 88.4991 98.1125 88.1059 97.8176L87.4177 97.1294C87.0245 96.7362 86.3363 96.7362 85.9431 97.1294L82.3056 100.767C81.9124 101.16 81.9124 101.848 82.3056 102.242L82.9938 102.93C83.2887 103.225 83.387 103.814 83.0921 104.208C81.8141 106.174 80.9293 108.337 80.4378 110.598C80.3394 111.089 79.9462 111.384 79.4547 111.384H78.4716C77.8817 111.384 77.4885 111.876 77.4885 112.367V117.578C77.4885 118.168 77.98 118.561 78.4716 118.561H79.3564C79.8479 118.561 80.2411 118.856 80.3394 119.347C80.831 121.608 81.7158 123.771 82.9938 125.737C83.2887 126.131 83.1904 126.622 82.8955 127.015L82.3056 127.605C81.9124 127.998 81.9124 128.687 82.3056 129.08L85.9431 132.717C86.3363 133.111 87.0245 133.111 87.4177 132.717L88.0076 132.127C88.1059 131.931 88.3025 131.833 88.5974 131.833ZM100.001 126.524C93.6112 126.524 88.4008 121.313 88.4008 114.923C88.4008 108.533 93.6112 103.323 100.001 103.323C106.391 103.323 111.602 108.533 111.602 114.923C111.602 121.313 106.391 126.524 100.001 126.524ZM100.001 105.289C94.6926 105.289 90.4653 109.615 90.4653 114.825C90.4653 120.035 94.7909 124.361 100.001 124.361C105.31 124.361 109.537 120.035 109.537 114.825C109.537 109.615 105.31 105.289 100.001 105.289Z" fill="#35414D"/>
<path d="M313.332 23.8891H312.644V41.6831H141.684V21.8246L139.423 19.072L140.603 7.86473L146.01 4.22729L157.119 5.89855H294.752V4.22729L312.644 5.89855L313.332 23.8891Z" fill="#656D78"/>
<path d="M312.644 41.7814V189.638C312.644 199.862 305.762 208.219 297.308 208.219H157.119C146.108 211.856 136.081 208.219 141.684 189.638V41.7814H312.644Z" fill="#F4F6F8"/>
<path d="M312.644 41.7814V189.638C313.332 199.469 318.444 211.659 297.308 208.219H157.119C138.538 210.48 138.538 201.239 140.505 193.866C141.684 194.16 144.339 194.259 145.518 194.259H163.017C234.783 194.259 294.555 127.998 300.552 41.7814H312.644Z" fill="#E4E8EB"/>
<path d="M155.939 135.077H197.524V168.502H155.939V135.077Z" fill="#B3A4EE"/>
<path d="M197.426 135.077V168.502H155.939V158.081H161.15C173.143 158.081 183.761 148.742 187.496 135.077H197.426Z" fill="#AC92EA"/>
<path d="M206.372 135.077H247.956V168.502H206.372V135.077Z" fill="#FBD277"/>
<path d="M155.939 57.5109H298.487V121.51H155.939V57.5109Z" fill="#F76C82"/>
<path d="M298.487 57.5109V121.412H155.939V107.747H246.58C268.896 107.747 287.083 85.9222 287.083 58.9855V57.5109H298.487Z" fill="#EB5463"/>
<path d="M256.903 135.077H298.487V168.502H256.903V135.077Z" fill="#B4DF80"/>
<path d="M298.487 135.077V168.502H256.903V158.081H262.113C274.107 158.081 284.724 148.742 288.46 135.077H298.487Z" fill="#9ED26A"/>
<path d="M247.956 135.077V168.502H206.372V158.081H211.582C223.576 158.081 234.193 148.84 237.929 135.077H247.956Z" fill="#FDCD56"/>
<path d="M197.524 184.035H170.882C169.899 184.035 169.113 183.051 169.113 181.872C169.113 180.692 169.899 179.709 170.882 179.709H197.524C198.507 179.709 199.293 180.692 199.293 181.872C199.293 183.051 198.507 184.035 197.524 184.035Z" fill="#434A54"/>
<path d="M163.706 184.035H155.939C154.956 184.035 154.17 183.051 154.17 181.872C154.17 180.692 154.956 179.709 155.939 179.709H163.706C164.689 179.709 165.475 180.692 165.475 181.872C165.475 183.051 164.689 184.035 163.706 184.035Z" fill="#FFA733"/>
<path d="M197.524 197.7H155.939C154.956 197.7 154.17 196.716 154.17 195.537C154.17 194.357 154.956 193.374 155.939 193.374H197.524C198.507 193.374 199.293 194.357 199.293 195.537C199.293 196.716 198.507 197.7 197.524 197.7Z" fill="#434A54"/>
<path d="M247.956 184.035H221.315C220.332 184.035 219.545 183.051 219.545 181.872C219.545 180.692 220.332 179.709 221.315 179.709H247.956C248.94 179.709 249.726 180.692 249.726 181.872C249.726 183.051 248.94 184.035 247.956 184.035Z" fill="#434A54"/>
<path d="M214.138 184.035H206.372C205.389 184.035 204.602 183.051 204.602 181.872C204.602 180.692 205.389 179.709 206.372 179.709H214.138C215.121 179.709 215.908 180.692 215.908 181.872C215.908 183.051 215.121 184.035 214.138 184.035Z" fill="#FF5A5A"/>
<path d="M247.956 197.7H206.372C205.389 197.7 204.602 196.716 204.602 195.537C204.602 194.357 205.389 193.374 206.372 193.374H247.956C248.94 193.374 249.726 194.357 249.726 195.537C249.726 196.716 248.94 197.7 247.956 197.7Z" fill="#434A54"/>
<path d="M298.389 184.035H271.747C270.764 184.035 269.978 183.051 269.978 181.872C269.978 180.692 270.764 179.709 271.747 179.709H298.389C299.372 179.709 300.159 180.692 300.159 181.872C300.257 183.051 299.372 184.035 298.389 184.035Z" fill="#434A54"/>
<path d="M264.571 184.035H256.804C255.821 184.035 255.035 183.051 255.035 181.872C255.035 180.692 255.821 179.709 256.804 179.709H264.571C265.554 179.709 266.34 180.692 266.34 181.872C266.439 183.051 265.652 184.035 264.571 184.035Z" fill="#D6DF58"/>
<path d="M298.389 197.7H256.804C255.821 197.7 255.035 196.716 255.035 195.537C255.035 194.357 255.821 193.374 256.804 193.374H298.389C299.372 193.374 300.159 194.357 300.159 195.537C300.257 196.716 299.372 197.7 298.389 197.7Z" fill="#434A54"/>
<path d="M163.411 29.9842C166.831 29.9842 169.604 27.2113 169.604 23.7908C169.604 20.3702 166.831 17.5973 163.411 17.5973C159.99 17.5973 157.217 20.3702 157.217 23.7908C157.217 27.2113 159.99 29.9842 163.411 29.9842Z" fill="#F16C7A"/>
<path d="M163.411 31.3605C159.282 31.3605 155.841 28.018 155.841 23.7907C155.841 19.5635 159.183 16.2209 163.411 16.2209C167.54 16.2209 170.98 19.5635 170.98 23.7907C170.98 28.018 167.638 31.3605 163.411 31.3605ZM163.411 19.0719C160.756 19.0719 158.593 21.2347 158.593 23.8891C158.593 26.5434 160.756 28.7062 163.411 28.7062C166.065 28.7062 168.228 26.5434 168.228 23.8891C168.228 21.2347 166.065 19.0719 163.411 19.0719Z" fill="#3A312A"/>
<path d="M182.581 29.9842C186.001 29.9842 188.774 27.2113 188.774 23.7908C188.774 20.3702 186.001 17.5973 182.581 17.5973C179.16 17.5973 176.387 20.3702 176.387 23.7908C176.387 27.2113 179.16 29.9842 182.581 29.9842Z" fill="#D7E057"/>
<path d="M182.581 31.3605C178.452 31.3605 175.011 28.018 175.011 23.7907C175.011 19.5635 178.354 16.2209 182.581 16.2209C186.71 16.2209 190.151 19.5635 190.151 23.7907C190.151 28.018 186.808 31.3605 182.581 31.3605ZM182.581 19.0719C179.927 19.0719 177.764 21.2347 177.764 23.8891C177.764 26.5434 179.927 28.7062 182.581 28.7062C185.235 28.7062 187.398 26.5434 187.398 23.8891C187.398 21.2347 185.235 19.0719 182.581 19.0719Z" fill="#3A312A"/>
<path d="M201.751 29.9842C205.172 29.9842 207.945 27.2113 207.945 23.7908C207.945 20.3702 205.172 17.5973 201.751 17.5973C198.331 17.5973 195.558 20.3702 195.558 23.7908C195.558 27.2113 198.331 29.9842 201.751 29.9842Z" fill="#8AC6DD"/>
<path d="M201.751 31.3605C197.622 31.3605 194.181 28.018 194.181 23.7907C194.181 19.5635 197.524 16.2209 201.751 16.2209C205.88 16.2209 209.321 19.5635 209.321 23.7907C209.321 28.018 205.88 31.3605 201.751 31.3605ZM201.751 19.0719C199.097 19.0719 196.934 21.2347 196.934 23.8891C196.934 26.5434 199.097 28.7062 201.751 28.7062C204.406 28.7062 206.568 26.5434 206.568 23.8891C206.568 21.2347 204.406 19.0719 201.751 19.0719Z" fill="#3A312A"/>
<path d="M293.277 29.0011H234.586C231.735 29.0011 229.376 26.6417 229.376 23.7907C229.376 20.9397 231.735 18.5803 234.586 18.5803H293.277C296.128 18.5803 298.487 20.9397 298.487 23.7907C298.487 26.6417 296.128 29.0011 293.277 29.0011Z" fill="#FDF6EC" stroke="#35414D" stroke-width="2.5333" stroke-miterlimit="10"/>
<path d="M300.847 5.89855C307.335 5.89855 312.644 11.2072 312.644 17.6956V196.323C312.644 202.812 307.335 208.12 300.847 208.12H153.481C146.993 208.12 141.684 202.812 141.684 196.323V17.6956C141.684 11.2072 146.993 5.89855 153.481 5.89855H300.847ZM300.847 0H153.481C143.651 0 135.786 7.96304 135.786 17.6956V196.323C135.786 206.154 143.749 214.019 153.481 214.019H300.847C310.678 214.019 318.542 206.056 318.542 196.323V17.6956C318.542 7.96304 310.579 0 300.847 0Z" fill="#35414D"/>
<path d="M454.602 119.74H290.131V229.65H454.602V119.74Z" fill="#F4EAE6"/>
<path d="M337.614 45.3204C337.614 52.5953 331.716 58.5922 324.343 58.5922H454.504V45.3204H337.614Z" fill="#BECAF5"/>
<path d="M290.131 45.3204V58.5922H325.129C332.404 58.5922 338.401 52.6936 338.401 45.3204H290.131Z" fill="#3C58A0"/>
<path d="M454.504 57.7074V186.099C436.612 212.348 406.431 229.65 372.317 229.65C367.402 229.65 362.585 229.257 357.866 228.569C357.571 228.569 357.276 228.47 356.981 228.47C329.258 224.145 305.271 208.415 290.131 186.099V57.7074H454.504Z" fill="#F4EAE6"/>
<path d="M357.768 228.569C357.473 228.569 357.178 228.47 356.883 228.47C357.276 228.47 357.473 228.569 357.768 228.569Z" fill="#DEEEFF"/>
<path d="M443.198 22.0212H335.255C335.255 22.0212 331.224 26.0519 335.255 29.9843L335.845 37.7507C335.845 37.7507 332.404 42.7645 337.713 46.107H458.141V36.571C458.141 28.6079 451.358 22.0212 443.198 22.0212Z" fill="#2A428C"/>
<path d="M303.108 21.5297C294.85 21.5297 287.968 28.2147 287.968 36.276V46.0086H338.302C332.994 42.6661 336.435 37.554 336.435 37.554L335.845 29.6893C331.814 25.757 335.845 21.5297 335.845 21.5297H303.108Z" fill="#1C2E7A"/>
<path d="M312.546 34.1133C312.546 36.6693 310.481 38.7338 307.925 38.7338C305.369 38.7338 303.304 36.6693 303.304 34.1133C303.304 31.5572 305.369 29.4928 307.925 29.4928C310.481 29.3944 312.546 31.4589 312.546 34.1133Z" fill="#FF4155"/>
<path d="M325.522 34.1132C325.522 36.6692 323.458 38.7337 320.902 38.7337C318.346 38.7337 316.281 36.6692 316.281 34.1132C316.281 31.5572 318.346 29.4927 320.902 29.4927C323.458 29.4927 325.522 31.4589 325.522 34.1132Z" fill="#FFDD40"/>
<path d="M338.401 34.1132C338.401 36.6692 336.336 38.7337 333.78 38.7337C331.224 38.7337 329.16 36.6692 329.16 34.1132C329.16 31.5572 331.224 29.4927 333.78 29.4927C336.336 29.4927 338.401 31.4589 338.401 34.1132Z" fill="#88CE65"/>
<path d="M378.413 34.1132C378.413 32.4419 379.789 30.9673 381.558 30.9673H353.737C352.066 30.9673 350.591 32.3436 350.591 34.1132C350.591 35.7844 351.967 37.2591 353.737 37.2591H381.558C379.789 37.1608 378.413 35.7844 378.413 34.1132Z" fill="#3C58A0"/>
<path d="M404.071 34.1132C404.071 32.4419 402.695 30.9673 400.925 30.9673H380.575C378.904 30.9673 377.43 32.3436 377.43 34.1132C377.43 35.7844 378.806 37.2591 380.575 37.2591H400.925C402.695 37.1608 404.071 35.7844 404.071 34.1132Z" fill="#6289CC"/>
<path d="M438.676 37.1608H434.547C432.876 37.1608 431.401 35.7845 431.401 34.0149C431.401 32.3437 432.778 30.869 434.547 30.869H438.578C440.249 30.869 441.724 32.2453 441.724 34.0149C441.724 35.7845 440.347 37.1608 438.676 37.1608Z" fill="#6289CC"/>
<path d="M424.52 37.1608H420.489C418.818 37.1608 417.343 35.7845 417.343 34.0149C417.343 32.3437 418.719 30.869 420.489 30.869H424.52C426.191 30.869 427.665 32.2453 427.665 34.0149C427.665 35.7845 426.191 37.1608 424.52 37.1608Z" fill="#3C58A0"/>
<path d="M454.504 126.131H290.229V57.7074H454.504V126.131Z" fill="#FDF6EC"/>
<path d="M454.502 57.6748V111.057C448.603 113.514 442.213 114.891 435.43 114.891C407.903 114.891 385.587 92.5745 385.587 65.048C385.587 62.5903 385.784 60.0342 386.177 57.6748H454.502Z" fill="#E2D8D5"/>
<path d="M426.153 91.9601L429.102 89.0108L426.153 86.0615" stroke="#2626BC" stroke-width="1.0558" stroke-miterlimit="13.3333" stroke-linecap="round" stroke-linejoin="round"/>
<path d="M322.316 91.9601L319.367 89.0108L322.316 86.0615" stroke="#2626BC" stroke-width="1.0558" stroke-miterlimit="13.3333" stroke-linecap="round" stroke-linejoin="round"/>
<path d="M368.554 116.849C368.554 118.422 367.276 119.7 365.703 119.7C364.13 119.7 362.852 118.422 362.852 116.849C362.852 115.276 364.13 113.998 365.703 113.998C367.276 114.097 368.554 115.375 368.554 116.849Z" fill="#4369FD"/>
<path d="M377.128 116.849C377.128 118.422 375.85 119.7 374.277 119.7C372.704 119.7 371.426 118.422 371.426 116.849C371.426 115.276 372.704 113.998 374.277 113.998C375.85 114.097 377.128 115.375 377.128 116.849Z" fill="#B5A7A3"/>
<path d="M385.703 116.849C385.703 118.422 384.425 119.7 382.852 119.7C381.279 119.7 380.001 118.422 380.001 116.849C380.001 115.276 381.279 113.998 382.852 113.998C384.425 114.097 385.703 115.375 385.703 116.849Z" fill="#B5A7A3"/>
<path d="M344.305 161.222H312.551C311.666 161.222 311.077 160.534 311.077 159.748V137.137C311.077 136.252 311.765 135.662 312.551 135.662H344.305C345.19 135.662 345.78 136.35 345.78 137.137V159.748C345.878 160.534 345.19 161.222 344.305 161.222Z" fill="#748FA5"/>
<path d="M339.072 161.225H326.882V146.282C326.882 145.397 327.57 144.807 328.356 144.807H337.499C338.384 144.807 338.974 145.495 338.974 146.282V161.225H339.072Z" fill="#6A8291"/>
<path d="M337.254 174.14H319.657C318.28 174.14 317.101 172.96 317.101 171.584C317.101 170.207 318.28 169.028 319.657 169.028H337.254C338.63 169.028 339.81 170.207 339.81 171.584C339.81 173.058 338.63 174.14 337.254 174.14Z" fill="#B5A7A3"/>
<path d="M388.246 161.222H356.492C355.607 161.222 355.018 160.534 355.018 159.748V137.137C355.018 136.252 355.706 135.662 356.492 135.662H388.246C389.131 135.662 389.721 136.35 389.721 137.137V159.748C389.819 160.534 389.131 161.222 388.246 161.222Z" fill="#748FA5"/>
<path d="M383.013 161.225H370.823V146.282C370.823 145.397 371.511 144.807 372.297 144.807H381.44C382.325 144.807 382.915 145.495 382.915 146.282V161.225H383.013Z" fill="#6A8291"/>
<path d="M381.195 174.14H363.598C362.221 174.14 361.042 172.96 361.042 171.584C361.042 170.207 362.221 169.028 363.598 169.028H381.195C382.571 169.028 383.751 170.207 383.751 171.584C383.751 173.058 382.571 174.14 381.195 174.14Z" fill="#B5A7A3"/>
<path d="M432.186 161.222H400.433C399.548 161.222 398.958 160.534 398.958 159.748V137.137C398.958 136.252 399.646 135.662 400.433 135.662H432.186C433.071 135.662 433.661 136.35 433.661 137.137V159.748C433.759 160.534 433.071 161.222 432.186 161.222Z" fill="#748FA5"/>
<path d="M426.954 161.225H414.764V146.282C414.764 145.397 415.452 144.807 416.238 144.807H425.381C426.266 144.807 426.856 145.495 426.856 146.282V161.225H426.954Z" fill="#6A8291"/>
<path d="M425.136 174.14H407.539C406.162 174.14 404.983 172.96 404.983 171.584C404.983 170.207 406.162 169.028 407.539 169.028H425.136C426.512 169.028 427.692 170.207 427.692 171.584C427.692 173.058 426.512 174.14 425.136 174.14Z" fill="#B5A7A3"/>
<path d="M347.644 192.738H320.805C319.626 192.738 318.643 191.755 318.643 190.576C318.643 189.396 319.626 188.413 320.805 188.413H347.742C348.922 188.413 349.905 189.396 349.905 190.576C349.905 191.755 348.922 192.738 347.644 192.738Z" fill="#748FA5"/>
<path d="M347.644 201.278H320.805C319.626 201.278 318.643 200.295 318.643 199.115C318.643 197.935 319.626 196.952 320.805 196.952H347.742C348.922 196.952 349.905 197.935 349.905 199.115C349.905 200.295 348.922 201.278 347.644 201.278Z" fill="#748FA5"/>
<path d="M385.883 192.738H358.946C357.766 192.738 356.783 191.755 356.783 190.576C356.783 189.396 357.766 188.413 358.946 188.413H385.883C387.062 188.413 388.045 189.396 388.045 190.576C388.045 191.755 387.062 192.738 385.883 192.738Z" fill="#748FA5"/>
<path d="M385.883 201.278H358.946C357.766 201.278 356.783 200.295 356.783 199.115C356.783 197.935 357.766 196.952 358.946 196.952H385.883C387.062 196.952 388.045 197.935 388.045 199.115C388.045 200.295 387.062 201.278 385.883 201.278Z" fill="#748FA5"/>
<path d="M424.023 192.738H397.087C395.907 192.738 394.924 191.755 394.924 190.576C394.924 189.396 395.907 188.413 397.087 188.413H424.023C425.203 188.413 426.186 189.396 426.186 190.576C426.186 191.755 425.203 192.738 424.023 192.738Z" fill="#748FA5"/>
<path d="M424.023 201.278H397.087C395.907 201.278 394.924 200.295 394.924 199.115C394.924 197.935 395.907 196.952 397.087 196.952H424.023C425.203 196.952 426.186 197.935 426.186 199.115C426.186 200.295 425.203 201.278 424.023 201.278Z" fill="#748FA5"/>
<path d="M433.662 181.282H310.973V181.577H433.662V181.282Z" fill="#3C58A0"/>
<path d="M439.954 22.3162C447.917 22.3162 454.307 28.7062 454.307 36.6693V215.002C454.307 222.965 447.917 229.355 439.954 229.355H304.681C296.718 229.355 290.328 222.965 290.328 215.002V36.6693C290.328 28.7062 296.718 22.3162 304.681 22.3162H439.954ZM439.954 16.1227H304.681C293.375 16.1227 284.134 25.3637 284.134 36.6693V215.002C284.134 226.307 293.375 235.549 304.681 235.549H439.954C451.26 235.549 460.501 226.307 460.501 215.002V36.6693C460.599 25.3637 451.358 16.1227 439.954 16.1227Z" fill="#35414D"/>
<path d="M430.811 182.757C430.811 186.001 428.157 188.753 424.913 188.753C421.669 188.753 418.916 186.099 418.916 182.757C418.916 179.512 421.57 176.858 424.913 176.858C428.157 176.858 430.811 179.512 430.811 182.757Z" fill="#07BEEF"/>
<path d="M462.86 155.23C462.86 158.474 460.206 161.227 456.962 161.227C453.717 161.227 450.965 158.573 450.965 155.23C450.965 151.986 453.619 149.332 456.962 149.332C460.206 149.233 462.86 151.888 462.86 155.23Z" fill="#FC635B"/>
<path d="M494.909 174.695C494.909 177.939 492.254 180.692 489.01 180.692C485.766 180.692 483.013 178.038 483.013 174.695C483.013 171.451 485.668 168.797 489.01 168.797C492.254 168.797 494.909 171.451 494.909 174.695Z" fill="#7EC927"/>
<path d="M526.958 143.728C526.958 146.972 524.303 149.725 521.059 149.725C517.815 149.725 515.062 147.07 515.062 143.728C515.062 140.484 517.717 137.829 521.059 137.829C524.303 137.829 526.958 140.484 526.958 143.728Z" fill="#FFA733"/>
<path d="M430.811 182.56V182.757C430.811 186.099 428.157 188.754 424.913 188.754C421.669 188.754 418.916 186.099 418.916 182.757C418.916 180.987 419.702 179.414 420.98 178.333C421.079 181.479 423.733 184.035 426.977 184.035C428.452 184.035 429.73 183.445 430.811 182.56Z" fill="#00B6E0"/>
<path d="M462.86 154.935V155.132C462.86 158.474 460.206 161.129 456.962 161.129C453.717 161.129 450.965 158.474 450.965 155.132C450.965 153.362 451.751 151.789 453.029 150.609C453.127 153.755 455.782 156.311 459.026 156.311C460.501 156.41 461.779 155.918 462.86 154.935Z" fill="#F34234"/>
<path d="M494.909 174.499V174.794C494.909 178.038 492.254 180.79 489.01 180.79C485.766 180.79 483.013 178.136 483.013 174.794C483.013 173.024 483.8 171.451 485.078 170.37C485.275 173.516 487.831 176.072 491.075 176.072C492.451 175.973 493.827 175.383 494.909 174.499Z" fill="#60A917"/>
<path d="M526.958 143.531V143.728C526.958 146.972 524.303 149.725 521.059 149.725C517.815 149.725 515.062 147.07 515.062 143.728C515.062 141.958 515.849 140.385 517.127 139.304C517.323 142.45 519.879 145.006 523.124 145.006C524.5 145.006 525.876 144.416 526.958 143.531Z" fill="#FF9801"/>
<path d="M424.913 190.72C429.238 190.72 432.778 187.181 432.778 182.757C432.778 181.479 432.384 180.201 431.893 179.218L451.948 161.325C453.324 162.505 454.995 163.193 456.962 163.193C459.321 163.193 461.287 162.21 462.762 160.539L481.244 173.024C481.146 173.614 481.047 174.105 481.047 174.695C481.047 179.021 484.586 182.658 489.01 182.658C493.336 182.658 496.875 179.119 496.875 174.695C496.875 173.516 496.58 172.434 496.089 171.353L516.832 150.413C518.011 151.199 519.486 151.593 520.961 151.593C525.286 151.593 528.825 148.054 528.825 143.63C528.825 139.304 525.286 135.765 520.961 135.765C516.635 135.765 512.998 139.304 512.998 143.63C512.998 145.006 513.391 146.382 514.079 147.464L493.533 168.207C492.255 167.224 490.682 166.634 488.912 166.634C486.553 166.634 484.488 167.715 483.013 169.288L464.531 156.803C464.63 156.213 464.728 155.623 464.728 154.935C464.728 150.61 461.189 147.07 456.863 147.07C452.538 147.07 448.9 150.61 448.9 154.935C448.9 155.918 449.097 156.901 449.49 157.786L429.238 175.973C427.96 175.089 426.486 174.597 424.814 174.597C420.489 174.597 416.851 178.136 416.851 182.462C416.95 187.181 420.489 190.72 424.913 190.72ZM521.059 139.796C523.222 139.796 524.991 141.565 524.991 143.728C524.991 145.891 523.222 147.759 521.059 147.759C518.896 147.759 517.028 145.989 517.028 143.728C517.028 141.467 518.798 139.796 521.059 139.796ZM489.01 170.763C491.173 170.763 492.943 172.532 492.943 174.695C492.943 176.858 491.173 178.726 489.01 178.726C486.848 178.726 484.98 176.956 484.98 174.695C484.98 172.532 486.749 170.763 489.01 170.763ZM456.962 151.199C459.124 151.199 460.894 152.969 460.894 155.132C460.894 157.295 459.124 159.162 456.962 159.162C454.799 159.162 452.931 157.393 452.931 155.132C452.931 153.067 454.7 151.199 456.962 151.199ZM424.913 178.824C427.076 178.824 428.845 180.594 428.845 182.757C428.845 184.919 427.076 186.787 424.913 186.787C422.75 186.787 420.882 185.018 420.882 182.757C420.882 180.594 422.652 178.824 424.913 178.824Z" fill="#35414D"/>
<path d="M420.489 218.934H441.035V248.329H420.489V218.934Z" fill="#EF6D7A"/>
<path d="M441.035 250H420.489C419.604 250 418.818 249.312 418.818 248.329V218.934C418.818 218.05 419.506 217.263 420.489 217.263H441.035C441.92 217.263 442.707 217.951 442.707 218.934V248.329C442.707 249.214 442.019 250 441.035 250ZM422.16 246.756H439.463V220.606H422.16V246.756Z" fill="#3A312A"/>
<path d="M449.097 189.048H469.643V248.329H449.097V189.048Z" fill="#D6DF58"/>
<path d="M469.643 250H449.097C448.212 250 447.426 249.312 447.426 248.329V189.048C447.426 188.164 448.114 187.377 449.097 187.377H469.643C470.528 187.377 471.315 188.065 471.315 189.048V248.329C471.315 249.214 470.528 250 469.643 250ZM450.67 246.756H467.972V190.72H450.67V246.756Z" fill="#3A312A"/>
<path d="M477.606 204.188H498.153V248.329H477.606V204.188Z" fill="#8AC5DC"/>
<path d="M498.251 250H477.705C476.82 250 476.034 249.312 476.034 248.329V204.188C476.034 203.303 476.722 202.517 477.705 202.517H498.251C499.136 202.517 499.923 203.205 499.923 204.188V248.329C499.824 249.214 499.136 250 498.251 250ZM479.278 246.756H496.58V205.859H479.278V246.756Z" fill="#3A312A"/>
<path d="M506.214 177.448H526.761V248.329H506.214V177.448Z" fill="#87796F"/>
<path d="M526.761 250H506.214C505.33 250 504.543 249.312 504.543 248.329V177.448C504.543 176.563 505.231 175.777 506.214 175.777H526.761C527.646 175.777 528.432 176.465 528.432 177.448V248.329C528.432 249.214 527.646 250 526.761 250ZM507.787 246.756H525.09V179.119H507.787V246.756Z" fill="#3A312A"/>
<path fill-rule="evenodd" clip-rule="evenodd" d="M281.775 218.639C281.775 227.979 277.449 237.22 269.29 243.118L251.692 218.639H256.804H281.775Z" fill="#FFB54C"/>
<path d="M251.692 249.902C268.904 249.902 282.856 235.949 282.856 218.738C282.856 201.526 268.904 187.574 251.692 187.574C234.481 187.574 220.528 201.526 220.528 218.738C220.528 235.949 234.481 249.902 251.692 249.902Z" fill="#35414D"/>
<path d="M251.594 248.82C268.262 248.82 281.775 235.308 281.775 218.639C281.775 201.971 268.262 188.458 251.594 188.458C234.925 188.458 221.413 201.971 221.413 218.639C221.413 235.308 234.925 248.82 251.594 248.82Z" fill="#35414D"/>
<path fill-rule="evenodd" clip-rule="evenodd" d="M251.594 188.557C268.208 188.557 281.775 202.025 281.775 218.738H251.594V188.557Z" fill="#35414D"/>
<path fill-rule="evenodd" clip-rule="evenodd" d="M269.781 238.891L257.394 221.687H278.629C277.941 228.47 274.598 234.467 269.781 238.891Z" fill="#FFA733"/>
<path fill-rule="evenodd" clip-rule="evenodd" d="M224.461 218.738C224.461 233.681 236.651 245.871 251.594 245.871C256.509 245.871 261.032 244.593 264.964 242.332L249.136 220.409C248.743 219.917 248.546 219.328 248.546 218.639V191.703C235.078 193.177 224.461 204.68 224.461 218.738Z" fill="#2FB1D4"/>
<path fill-rule="evenodd" clip-rule="evenodd" d="M278.629 215.69H254.543V191.703C267.225 193.079 277.253 203.107 278.629 215.69Z" fill="#FF5A5A"/>
</g>
<defs>
<clipPath id="clip0_831_111760">
<rect width="458.12" height="250" fill="white" transform="translate(71)"/>
</clipPath>
</defs>
</svg>
