<?xml version="1.0" encoding="utf-8"?>
<!-- Generator: Adobe Illustrator 25.0.0, SVG Export Plug-In . SVG Version: 6.00 Build 0)  -->
<svg version="1.1" id="Layer_1" xmlns="http://www.w3.org/2000/svg" xmlns:xlink="http://www.w3.org/1999/xlink" x="0px" y="0px"
	 viewBox="0 0 188.3 180" style="enable-background:new 0 0 188.3 180;" xml:space="preserve">
<style type="text/css">
	.st0{fill:#9A99A1;}
	.st1{fill:#6BD4E0;}
	.st2{fill:#84828E;}
	.st3{fill:#52C0C6;}
	.st4{fill:#787780;}
	.st5{fill:#EF5D40;}
	.st6{fill:#DA4F3C;}
	.st7{fill:#F1E8DC;}
	.st8{fill:#EFDBC6;}
	.st9{fill:#E6F0F6;}
	.st10{fill:#35414D;}
</style>
<g>
	<path class="st0" d="M14.8,3h114.7c6.6,0,11.9,5.3,11.9,11.9v150.3c0,6.6-5.3,11.9-11.9,11.9H14.8C8.3,177,3,171.7,3,165.2V14.8
		C3,8.3,8.3,3,14.8,3z"/>
	<path class="st1" d="M18.8,141.4V22.7c0-2.2,1.8-4,4-4h98.9c2.2,0,4,1.8,4,4v118.7c0,2.2-1.8,4-4,4H22.7
		C20.6,145.4,18.8,143.6,18.8,141.4z"/>
	<path class="st2" d="M138.4,173.1c-2.2,2.5-5.5,4-8.8,4H14.8C8.3,177,3,171.7,3,165.2V14.8C3,8.3,8.3,3,14.8,3v162.2
		c0,4.4,3.5,7.9,7.9,7.9H138.4z"/>
	<path class="st3" d="M125.6,141.4c0,2.2-1.8,4-4,4H22.7c-2.2,0-4-1.8-4-4V22.7c0-2.2,1.8-4,4-4h4v118.7c0,2.2,1.8,4,4,4H125.6z"/>
	<path class="st4" d="M69.9,154.3h4.6c2.5,0,4.6,2.1,4.6,4.6v4.6c0,2.5-2.1,4.6-4.6,4.6h-4.6c-2.5,0-4.6-2.1-4.6-4.6v-4.6
		C65.3,156.4,67.3,154.3,69.9,154.3z"/>
	<path class="st5" d="M54.8,44.5h126.6c2.2,0,4,1.8,4,4v75.2c0,2.2-1.8,4-4,4H54.8c-2.2,0-4-1.8-4-4V48.5
		C50.8,46.3,52.6,44.5,54.8,44.5z"/>
	<path class="st6" d="M185.3,123.6c0,2.2-1.8,4-4,4H54.8c-2.2,0-4-1.8-4-4V48.5c0-2.2,1.8-4,4-4h4v77.1c0,1.1,0.9,2,2,2H185.3z"/>
	<path class="st6" d="M120.1,127.6h-4v-15.8h4V127.6z"/>
	<path class="st7" d="M66.7,115.7h51.4V44.5c0-4.4-3.5-7.9-7.9-7.9H66.7c-2.2,0-4,1.8-4,4v63.3L66.7,115.7z"/>
	<path class="st7" d="M118.1,115.7h51.4l4-11.9V40.5c0-2.2-1.8-4-4-4H126c-4.4,0-7.9,3.5-7.9,7.9V115.7z"/>
	<path class="st8" d="M66.7,115.7h51.4v-4c0-4.4-3.5-7.9-7.9-7.9H62.7L66.7,115.7z"/>
	<path class="st8" d="M118.1,115.7h51.4l4-11.9H126c-4.4,0-7.9,3.5-7.9,7.9V115.7z"/>
	<path class="st0" d="M161.6,57.4H130c-1.6,0-3-1.3-3-3c0-1.6,1.3-3,3-3h31.6c1.6,0,3,1.3,3,3C164.6,56,163.2,57.4,161.6,57.4
		L161.6,57.4z"/>
	<path class="st0" d="M161.6,73.2H130c-1.6,0-3-1.3-3-3s1.3-3,3-3h31.6c1.6,0,3,1.3,3,3S163.2,73.2,161.6,73.2L161.6,73.2z"/>
	<path class="st0" d="M161.6,89H130c-1.6,0-3-1.3-3-3c0-1.6,1.3-3,3-3h31.6c1.6,0,3,1.3,3,3C164.6,87.7,163.2,89,161.6,89L161.6,89z
		"/>
	<path class="st0" d="M106.2,57.4H74.6c-1.6,0-3-1.3-3-3c0-1.6,1.3-3,3-3h31.6c1.6,0,3,1.3,3,3C109.2,56,107.9,57.4,106.2,57.4z"/>
	<path class="st0" d="M106.2,73.2H74.6c-1.6,0-3-1.3-3-3s1.3-3,3-3h31.6c1.6,0,3,1.3,3,3S107.9,73.2,106.2,73.2z"/>
	<path class="st0" d="M106.2,89H74.6c-1.6,0-3-1.3-3-3c0-1.6,1.3-3,3-3h31.6c1.6,0,3,1.3,3,3C109.2,87.7,107.9,89,106.2,89z"/>
	<path class="st9" d="M32.8,80.1h4c2.2,0,4,1.8,4,4v4c0,2.2-1.8,4-4,4h-4c-2.2,0-4-1.8-4-4v-4C28.9,81.9,30.7,80.1,32.8,80.1z"/>
	<path class="st9" d="M32.8,103.8h4c2.2,0,4,1.8,4,4v4c0,2.2-1.8,4-4,4h-4c-2.2,0-4-1.8-4-4v-4C28.9,105.6,30.7,103.8,32.8,103.8z"
		/>
	<path class="st9" d="M32.8,56.4h4c2.2,0,4,1.8,4,4v4c0,2.2-1.8,4-4,4h-4c-2.2,0-4-1.8-4-4v-4C28.9,58.1,30.7,56.4,32.8,56.4z"/>
	<g>
		<path class="st10" d="M3,125.8c1.6,0,3-1.3,3-3l0,0v-108c0-4.9,4-8.9,8.9-8.9h114.7c4.9,0,8.9,4,8.9,8.9v12.7c0,1.6,1.3,3,3,3
			s3-1.3,3-3V14.8c0-8.2-6.6-14.8-14.8-14.8H14.8C6.6,0,0,6.6,0,14.8v108C0,124.5,1.3,125.8,3,125.8L3,125.8z"/>
		<path class="st10" d="M130,57.4h31.6c1.6,0,3-1.3,3-3c0-1.6-1.3-3-3-3l0,0H130c-1.6,0-3,1.3-3,3C127,56,128.3,57.4,130,57.4z"/>
		<path class="st10" d="M130,73.2h31.6c1.6,0,3-1.3,3-3s-1.3-3-3-3l0,0H130c-1.6,0-3,1.3-3,3S128.3,73.2,130,73.2z"/>
		<path class="st10" d="M130,89h31.6c1.6,0,3-1.3,3-3c0-1.6-1.3-3-3-3l0,0H130c-1.6,0-3,1.3-3,3C127,87.7,128.3,89,130,89z"/>
		<path class="st10" d="M106.2,51.4H74.6c-1.6,0-3,1.3-3,3c0,1.6,1.3,3,3,3h31.6c1.6,0,3-1.3,3-3C109.2,52.8,107.9,51.4,106.2,51.4z
			"/>
		<path class="st10" d="M106.2,67.3H74.6c-1.6,0-3,1.3-3,3s1.3,3,3,3h31.6c1.6,0,3-1.3,3-3S107.9,67.3,106.2,67.3z"/>
		<path class="st10" d="M106.2,83.1H74.6c-1.6,0-3,1.3-3,3c0,1.6,1.3,3,3,3h31.6c1.6,0,3-1.3,3-3C109.2,84.4,107.9,83.1,106.2,83.1z
			"/>
		<path class="st10" d="M181.4,41.5h-4.9v-1c0-3.8-3.1-6.9-6.9-6.9h-40.9V22.7c0-3.8-3.1-6.9-6.9-6.9H22.7c-3.8,0-6.9,3.1-6.9,6.9
			v118.7c0,3.8,3.1,6.9,6.9,6.9h98.9c3.8,0,6.9-3.1,6.9-6.9v-4.7c0-1.6-1.3-3-3-3c-1.6,0-3,1.3-3,3v4.7c0,0.5-0.4,1-1,1H22.7
			c-0.5,0-1-0.4-1-1V22.7c0-0.5,0.4-1,1-1h98.9c0.5,0,1,0.4,1,1v11.4c-1.7,0.6-3.3,1.6-4.5,2.9c-2.1-2.2-4.9-3.4-7.9-3.4H66.7
			c-3.8,0-6.9,3.1-6.9,6.9v1h-4.9c-3.8,0-6.9,3.1-6.9,6.9v75.2c0,3.8,3.1,6.9,6.9,6.9h83.7v34.6c0,4.9-4,8.9-8.9,8.9H14.8
			c-4.9,0-8.9-4-8.9-8.9V132c0-1.6-1.3-3-3-3s-3,1.3-3,3v33.2c0,8.2,6.6,14.8,14.8,14.8h114.7c8.2,0,14.8-6.6,14.8-14.8v-34.6h37
			c3.8,0,6.9-3.1,6.9-6.9V48.5C188.3,44.6,185.2,41.5,181.4,41.5z M115.1,124.6H54.8c-0.5,0-1-0.4-1-1V48.5c0-0.5,0.4-1,1-1h4.9
			v56.4c0,0.3,0.1,0.6,0.2,0.9l4,11.9c0.4,1.2,1.5,2,2.8,2h48.5V124.6z M115.1,112.7H68.8l-2-5.9h43.4c2.7,0,4.9,2.2,4.9,4.9V112.7z
			 M118.1,83.1c-1.6,0-3,1.3-3,3v16c-1.5-0.8-3.2-1.2-4.9-1.2H65.7V40.5c0-0.5,0.4-1,1-1h43.5c2.7,0,4.9,2.2,4.9,4.9v32.8
			c0,1.6,1.3,3,3,3c1.6,0,3-1.3,3-3l0,0V44.5c0-2.7,2.2-4.9,4.9-4.9h43.5c0.5,0,1,0.4,1,1v60.3H126c-1.7,0-3.4,0.4-4.9,1.2V86
			C121.1,84.4,119.7,83.1,118.1,83.1z M169.4,106.8l-2,5.9h-46.3v-1c0-2.7,2.2-4.9,4.9-4.9H169.4z M182.4,123.6c0,0.5-0.4,1-1,1
			h-60.3v-5.9h48.5c1.3,0,2.4-0.8,2.8-2l4-11.9c0.1-0.3,0.2-0.6,0.2-0.9V47.5h4.9c0.5,0,1,0.4,1,1V123.6z"/>
		<path class="st10" d="M43.7,84.1c0-3.8-3.1-6.9-6.9-6.9h-4c-3.8,0-6.9,3.1-6.9,6.9v4c0,3.8,3.1,6.9,6.9,6.9h4
			c3.8,0,6.9-3.1,6.9-6.9V84.1z M37.8,88c0,0.5-0.4,1-1,1h-4c-0.5,0-1-0.4-1-1v-4c0-0.5,0.4-1,1-1h4c0.5,0,1,0.4,1,1V88z"/>
		<path class="st10" d="M36.8,100.9h-4c-3.8,0-6.9,3.1-6.9,6.9v4c0,3.8,3.1,6.9,6.9,6.9h4c3.8,0,6.9-3.1,6.9-6.9v-4
			C43.7,104,40.6,100.9,36.8,100.9z M37.8,111.8c0,0.5-0.4,1-1,1h-4c-0.5,0-1-0.4-1-1v-4c0-0.5,0.4-1,1-1h4c0.5,0,1,0.4,1,1V111.8z"
			/>
		<path class="st10" d="M43.7,60.3c0-3.8-3.1-6.9-6.9-6.9h-4c-3.8,0-6.9,3.1-6.9,6.9v4c0,3.8,3.1,6.9,6.9,6.9h4
			c3.8,0,6.9-3.1,6.9-6.9V60.3z M37.8,64.3c0,0.5-0.4,1-1,1h-4c-0.5,0-1-0.4-1-1v-4c0-0.5,0.4-1,1-1h4c0.5,0,1,0.4,1,1V64.3z"/>
		<path class="st10" d="M74.5,171.1c4.2,0,7.6-3.4,7.6-7.6v-4.6c0-4.2-3.4-7.6-7.6-7.6h-4.6c-4.2,0-7.6,3.4-7.6,7.6v4.6
			c0,4.2,3.4,7.6,7.6,7.6H74.5z M68.2,163.5v-4.6c0-0.9,0.7-1.6,1.6-1.6h4.6c0.9,0,1.6,0.7,1.6,1.6v4.6c0,0.9-0.7,1.6-1.6,1.6h-4.6
			C69,165.2,68.2,164.4,68.2,163.5z"/>
	</g>
</g>
</svg>
