<svg version="1.1" id="Layer_1" xmlns="http://www.w3.org/2000/svg" x="0" y="0" viewBox="0 0 232 172" xml:space="preserve"><style>.st1{fill:#515979}</style><path d="M48.4 108.2c-.4 0-.7-.1-1.1-.2-1.1-.4-1.8-1.5-1.8-2.7V85H23.3c-9 0-16.4-7.4-16.4-16.4V22.3c0-9 7.4-16.4 16.4-16.4h98.4c9 0 16.4 7.4 16.4 16.4v46.3c0 9-7.4 16.4-16.4 16.4h-49l-22.3 22.3c-.5.6-1.2.9-2 .9z" fill="#fff"/><path class="st1" d="M121.8 8.8c7.5 0 13.5 6 13.5 13.5v46.3c0 7.5-6 13.5-13.5 13.5H71.6l-23.2 23.2V82.1H23.3c-7.5 0-13.5-6-13.5-13.5V22.3c0-7.5 6-13.5 13.5-13.5h98.5m0-5.8H23.3C12.7 3 4 11.7 4 22.3v46.3c0 10.6 8.7 19.3 19.3 19.3h19.3v17.4c0 2.3 1.4 4.5 3.6 5.3.7.3 1.5.4 2.2.4 1.5 0 3-.6 4.1-1.7L74 87.9h47.8c10.6 0 19.3-8.7 19.3-19.3V22.3c0-10.6-8.7-19.3-19.3-19.3z"/><path d="M183.6 166.1c-.8 0-1.5-.3-2-.8L159.3 143h-49c-9 0-16.4-7.4-16.4-16.4V80.2c0-9 7.4-16.4 16.4-16.4h98.4c9 0 16.4 7.4 16.4 16.4v46.3c0 9-7.4 16.4-16.4 16.4h-22.2v20.3c0 1.2-.7 2.2-1.8 2.7-.4.1-.8.2-1.1.2z" fill="#ffe8a0"/><path class="st1" d="M208.7 66.7c7.5 0 13.5 6 13.5 13.5v46.3c0 7.5-6 13.5-13.5 13.5h-25.1v23.2L160.4 140h-50.2c-7.5 0-13.5-6-13.5-13.5V80.2c0-7.5 6-13.5 13.5-13.5h98.5m0-5.8h-98.4C99.7 60.9 91 69.6 91 80.2v46.3c0 10.6 8.7 19.3 19.3 19.3H158l21.5 21.5c1.1 1.1 2.6 1.7 4.1 1.7.7 0 1.5-.1 2.2-.4 2.2-.9 3.6-3 3.6-5.3v-17.4h19.3c10.6 0 19.3-8.7 19.3-19.3V80.2c0-10.6-8.7-19.3-19.3-19.3z"/><path d="M127.6 32c-1.1 0-1.9-.9-1.9-1.9v-5.8c0-3.2-2.6-5.8-5.8-5.8h-7.5c-1.1 0-1.9-.9-1.9-1.9s.9-1.9 1.9-1.9h7.5c5.3 0 9.7 4.3 9.7 9.7V30c-.1 1.1-1 2-2 2z" fill="#d8ebfb"/><path d="M214.4 89.9c-1.1 0-1.9-.9-1.9-1.9v-5.8c0-3.2-2.6-5.8-5.8-5.8h-7.5c-1.1 0-1.9-.9-1.9-1.9s.9-1.9 1.9-1.9h7.5c5.3 0 9.7 4.3 9.7 9.7v5.8c0 .9-.9 1.8-2 1.8z" fill="#fff3cf"/><g><path class="st1" d="M168.2 84.2c.7-.6 1.2-.9 1.9-1.3.7-.3 1.3-.6 2.1-.8 1.4-.4 3-.6 4.6-.4.8.1 1.6.3 2.4.6.4.2.7.4 1.1.5.4.2.7.4 1 .7 1.3.9 2.3 2.3 2.9 3.6.4 1 0 2.2-1 2.6-.6.2-1.2.2-1.7-.1l-.4-.2c-1-.5-1.8-1.1-2.6-1.4-.8-.3-1.6-.6-2.5-.7-.9-.1-1.8-.2-2.8-.1-.5 0-1 .1-1.6.1-.5 0-1.1.2-1.6.2h-.6c-1.1 0-1.9-.8-1.9-1.9.1-.5.3-1.1.7-1.4zM148.7 87.6c-.4 0-1-.1-1.6-.2-.5-.1-1.1-.1-1.6-.1-1-.1-1.9 0-2.8.1-.9.1-1.7.3-2.5.7-.8.3-1.6.8-2.6 1.4l-.3.2c-1 .5-2.2.1-2.7-.8-.3-.5-.3-1.2-.1-1.7.6-1.4 1.5-2.7 2.9-3.6.3-.3.7-.5 1-.7.4-.2.7-.4 1.1-.5.8-.3 1.6-.5 2.4-.6 1.6-.2 3.2 0 4.6.4.7.2 1.4.5 2.1.8.7.4 1.2.7 1.9 1.3.8.7.9 1.9.2 2.7-.4.4-.9.7-1.5.7l-.5-.1zM149.8 103.5c-1.3 0-2.4-1.1-2.4-2.4 0-1.3-1.1-2.4-2.4-2.4-1.3 0-2.4 1.1-2.4 2.4 0 1.3-1.1 2.4-2.4 2.4s-2.4-1.1-2.4-2.4c0-4 3.2-7.2 7.2-7.2s7.2 3.2 7.2 7.2c0 1.3-1.1 2.4-2.4 2.4zM178.7 103.5c-1.3 0-2.4-1.1-2.4-2.4 0-1.3-1.1-2.4-2.4-2.4-1.3 0-2.4 1.1-2.4 2.4 0 1.3-1.1 2.4-2.4 2.4s-2.4-1.1-2.4-2.4c0-4 3.2-7.2 7.2-7.2s7.2 3.2 7.2 7.2c0 1.3-1.1 2.4-2.4 2.4z"/><g><path class="st1" d="M159.4 127.2c-8.5 0-15.4-6.9-15.4-15.4 0-1.1.9-1.9 1.9-1.9h27c1.1 0 1.9.9 1.9 1.9.1 8.4-6.9 15.4-15.4 15.4z"/><path class="st1" d="M172.9 111.7c0 7.5-6 13.5-13.5 13.5s-13.5-6-13.5-13.5h27m0-3.8h-27c-2.1 0-3.9 1.7-3.9 3.9 0 9.6 7.8 17.4 17.4 17.4 9.5 0 17.3-7.7 17.4-17.2v-.2c0-2.2-1.7-3.9-3.9-3.9zm0 7.7z"/><g><ellipse cx="159.4" cy="120.7" rx="10.1" ry="4.5" fill="#ef7d7d"/></g></g></g><g><path class="st1" d="M78.9 35c0-3.2-2.2-5.2-6.5-5.2s-6.5 1.8-8.2 5.6L63.1 38l-9.7-3.6 1-2.5c3-7.6 9-11.4 18.1-11.4 10.6 0 17.2 5.9 17.2 14 0 5.4-2 9.6-6.6 12.4-1.3.8-4.2 2.4-4.9 2.9-2.2 1.3-3.2 2.8-3.2 4.3v2.6h-9.3v-2.6c0-6.6 2.6-8.9 7.8-11.9 2.9-1.7 5.4-3.2 5.4-7.2zm-8.5 24.7c3.1 0 5.7 2.6 5.7 5.7s-2.6 5.7-5.7 5.7-5.7-2.6-5.7-5.7 2.6-5.7 5.7-5.7z"/></g></svg>