<?xml version="1.0" encoding="utf-8"?>
<!-- Generator: Adobe Illustrator 25.0.0, SVG Export Plug-In . SVG Version: 6.00 Build 0)  -->
<svg version="1.1" id="Layer_1" xmlns="http://www.w3.org/2000/svg" xmlns:xlink="http://www.w3.org/1999/xlink" x="0px" y="0px"
	 viewBox="0 0 135.7 180" style="enable-background:new 0 0 135.7 180;" xml:space="preserve">
<style type="text/css">
	.st0{fill-rule:evenodd;clip-rule:evenodd;fill:#F4F6F8;}
	.st1{fill-rule:evenodd;clip-rule:evenodd;fill:#E0E1E2;}
	.st2{fill-rule:evenodd;clip-rule:evenodd;fill:#CECECE;}
	.st3{fill:#35414D;}
	.st4{fill:#B3A4EE;}
	.st5{fill:#AC92EA;}
	.st6{fill:#FBD277;}
	.st7{fill:#B4DF80;}
	.st8{fill:#9ED26A;}
	.st9{fill:#FDCD56;}
	.st10{fill:#434A54;}
	.st11{fill:#FFA733;}
	.st12{fill:#FF5A5A;}
	.st13{fill:#D6DF58;}
</style>
<g>
	<g id="g7750_24_" transform="translate(18.5,457.4355)">
		<g id="path7752_24_">
			<path class="st0" d="M-15.9-438.3v155.8c0,1.3,1,2.4,2.2,2.4h35.3h75.7h15c1.2,0,2.2-1.1,2.2-2.4v-143.1l0-1.5
				c0-0.2,0-0.4-0.1-0.5h-18c-4.9,0-8.9-4.3-8.9-9.5l0-17.7c-0.2-0.1-0.3-0.1-0.6-0.1h-1.7h-99c-1.2,0-2.2,1.1-2.2,2.4V-438.3z"/>
		</g>
	</g>
	<g id="g7754_25_" transform="translate(257.3203,504.5)">
		<g id="path7756_25_">
			<path class="st1" d="M-175.8-501.9c17,18.7,28.1,49.1,28.1,83.5c0,7.5-0.5,14.7-1.5,21.7c-0.3,2.2-0.7,4.5-1.1,6.7
				c-0.5,2.6-1.1,5.2-1.7,7.8c-5.9,23.9-17.4,43.5-32.2,55.1h42.6h15c1.2,0,2.2-1.1,2.2-2.4v-26.4v-35v-81.6l0-1.5
				c0-0.2,0-0.4-0.1-0.5l-26.9-27.2c-0.2-0.1-0.3-0.1-0.6-0.1h-1.7H-175.8z"/>
		</g>
	</g>
	<g id="g7758_24_" transform="translate(331.5508,504.1592)">
		<g id="path7760_24_">
			<path class="st2" d="M-225.5-501.4l0,17.7c0,5.2,4,9.5,8.9,9.5h18c-0.2-0.3-0.5-0.6-1.2-1.3l-24.3-24.6
				C-224.8-500.9-225.1-501.2-225.5-501.4"/>
		</g>
	</g>
	<g id="g7762_24_" transform="translate(331.5508,504.1592)">
		<g id="path7764_24_">
			<path class="st3" d="M-200.2-471.6h-16.3c-6.4,0-11.5-5.4-11.5-12.1l0-17.7c0-1.4,1.2-2.6,2.6-2.6c0,0,0,0,0,0
				c1.4,0,2.6,1.2,2.6,2.6l0,17.7c0,3.8,2.8,6.9,6.3,6.9h16.3c1.4,0,2.6,1.2,2.6,2.6S-198.8-471.6-200.2-471.6z"/>
		</g>
	</g>
	<g id="g7766_24_" transform="translate(413.1929,241.0635)">
		<g id="path7768_24_">
			<path class="st3" d="M-282.3-61.1h-126c-2.7,0-4.8-2.2-4.8-5v-170c0-2.7,2.2-5,4.8-5h100.7c1.7,0,2.5,0.9,3.5,1.8l0.4,0.4
				l25.3,25.6c0.5,0.5,0.7,1.1,0.7,1.7c0.2,0.3,0.3,0.7,0.3,1.1V-66C-277.5-63.3-279.7-61.1-282.3-61.1z M-408-66.3h125.2V-210
				l-25.2-25.5c-0.1-0.1-0.2-0.2-0.3-0.3H-408V-66.3z"/>
		</g>
	</g>
	<g>
		<g>
			<g>
				<g>
					<path class="st4" d="M17.3,133h29.4v8.1H17.3L17.3,133z"/>
				</g>
				<g>
					<path class="st5" d="M46.7,133v8.1H17.3v-2.5H21c8.5,0,16-2.3,18.6-5.6H46.7z"/>
				</g>
				<g>
					<path class="st6" d="M53,133h29.4v8.1H53V133z"/>
				</g>
				<g>
					<path class="st7" d="M88.7,133h29.4v8.1H88.7V133z"/>
				</g>
				<g>
					<path class="st8" d="M118.1,133v8.1H88.7v-2.5h3.7c8.5,0,16-2.3,18.6-5.6H118.1z"/>
				</g>
				<g>
					<path class="st9" d="M82.4,133v8.1H53v-2.5h3.7c8.5,0,16-2.3,18.7-5.6H82.4z"/>
				</g>
			</g>
			<g>
				<g>
					<path class="st10" d="M46.7,152.1H27.9c-0.7,0-1.3-0.7-1.3-1.5s0.6-1.5,1.3-1.5h18.8c0.7,0,1.3,0.7,1.3,1.5
						S47.4,152.1,46.7,152.1z"/>
				</g>
				<g>
					<path class="st11" d="M22.8,152.1h-5.5c-0.7,0-1.3-0.7-1.3-1.5s0.6-1.5,1.3-1.5h5.5c0.7,0,1.3,0.7,1.3,1.5
						S23.5,152.1,22.8,152.1z"/>
				</g>
				<g>
					<path class="st10" d="M46.7,161.8H17.3c-0.7,0-1.3-0.7-1.3-1.5c0-0.8,0.6-1.5,1.3-1.5h29.4c0.7,0,1.3,0.7,1.3,1.5
						C48,161.1,47.4,161.8,46.7,161.8z"/>
				</g>
				<g>
					<path class="st10" d="M82.4,152.1H63.6c-0.7,0-1.3-0.7-1.3-1.5s0.6-1.5,1.3-1.5h18.8c0.7,0,1.3,0.7,1.3,1.5
						S83.1,152.1,82.4,152.1z"/>
				</g>
				<g>
					<path class="st12" d="M58.5,152.1H53c-0.7,0-1.3-0.7-1.3-1.5s0.6-1.5,1.3-1.5h5.5c0.7,0,1.3,0.7,1.3,1.5S59.2,152.1,58.5,152.1
						z"/>
				</g>
				<g>
					<path class="st10" d="M82.4,161.8H53c-0.7,0-1.3-0.7-1.3-1.5c0-0.8,0.6-1.5,1.3-1.5h29.4c0.7,0,1.3,0.7,1.3,1.5
						C83.7,161.1,83.1,161.8,82.4,161.8z"/>
				</g>
				<g>
					<path class="st10" d="M118.1,152.1H99.3c-0.7,0-1.3-0.7-1.3-1.5s0.6-1.5,1.3-1.5h18.8c0.7,0,1.3,0.7,1.3,1.5
						S118.8,152.1,118.1,152.1z"/>
				</g>
				<g>
					<path class="st13" d="M94.2,152.1h-5.5c-0.7,0-1.3-0.7-1.3-1.5s0.6-1.5,1.3-1.5h5.5c0.7,0,1.3,0.7,1.3,1.5
						S94.9,152.1,94.2,152.1z"/>
				</g>
				<g>
					<path class="st10" d="M118.1,161.8H88.7c-0.7,0-1.3-0.7-1.3-1.5c0-0.8,0.6-1.5,1.3-1.5h29.4c0.7,0,1.3,0.7,1.3,1.5
						C119.4,161.1,118.8,161.8,118.1,161.8z"/>
				</g>
			</g>
			<g>
				<g>
					<g>
						<path class="st3" d="M116,78.2H19.5c-1.1,0-1.9-0.9-1.9-1.9s0.9-1.9,1.9-1.9h96.4c1.1,0,1.9,0.9,1.9,1.9S117,78.2,116,78.2
							L116,78.2z"/>
					</g>
					<g>
						<path class="st3" d="M96.5,85.4h-77c-1.1,0-1.9-0.9-1.9-1.9s0.9-1.9,1.9-1.9h77c1.1,0,1.9,0.9,1.9,1.9S97.6,85.4,96.5,85.4z"
							/>
					</g>
					<g>
						<path class="st3" d="M116,97.1H19.5c-1.1,0-1.9-0.9-1.9-1.9c0-1.1,0.9-1.9,1.9-1.9h96.4c1.1,0,1.9,0.9,1.9,1.9
							C117.9,96.2,117,97.1,116,97.1L116,97.1z"/>
					</g>
					<g>
						<path class="st3" d="M106.9,104.3H19.5c-1.1,0-1.9-0.9-1.9-1.9c0-1.1,0.9-1.9,1.9-1.9h87.3c1.1,0,1.9,0.9,1.9,1.9
							C108.8,103.4,107.9,104.3,106.9,104.3z"/>
					</g>
					<g>
						<path class="st3" d="M116,116H19.5c-1.1,0-1.9-0.9-1.9-1.9c0-1.1,0.9-1.9,1.9-1.9h96.4c1.1,0,1.9,0.9,1.9,1.9
							C117.9,115.1,117,116,116,116L116,116z"/>
					</g>
					<g>
						<path class="st3" d="M87.6,123.1H19.5c-1.1,0-1.9-0.9-1.9-1.9c0-1.1,0.9-1.9,1.9-1.9h68.1c1.1,0,1.9,0.9,1.9,1.9
							C89.5,122.3,88.6,123.1,87.6,123.1z"/>
					</g>
				</g>
				<g>
					<path class="st3" d="M115.9,66.9H19.5c-1.1,0-1.9-0.9-1.9-1.9v-8.1c0-1.1,0.9-1.9,1.9-1.9h96.4c1.1,0,1.9,0.9,1.9,1.9V65
						C117.9,66,117,66.9,115.9,66.9z M21.4,63.1H114v-4.3H21.4V63.1z"/>
				</g>
			</g>
		</g>
	</g>
	<g>
		<g>
			<g>
				<path class="st6" d="M18,20.8h44.5V44H18V20.8z"/>
			</g>
			<g>
				<path class="st3" d="M62.5,18.8H18c-1.1,0-1.9,0.9-1.9,1.9V44c0,1.1,0.9,1.9,1.9,1.9h44.5c1.1,0,1.9-0.9,1.9-1.9V20.8
					C64.4,19.7,63.5,18.8,62.5,18.8z M60.5,42.1H19.9V22.7h40.6V42.1z"/>
			</g>
		</g>
		<g>
			<g>
				<path class="st3" d="M94.7,19.4H71c-0.7,0-1.3,0.9-1.3,1.9c0,1.1,0.6,1.9,1.3,1.9h23.7c0.7,0,1.3-0.9,1.3-1.9
					C95.9,20.2,95.4,19.4,94.7,19.4z"/>
			</g>
			<g>
				<path class="st3" d="M96.7,30.5H71.1c-0.7,0-1.4,0.9-1.4,1.9c0,1.1,0.6,1.9,1.4,1.9h25.6c0.7,0,1.4-0.9,1.4-1.9
					C98.1,31.3,97.5,30.5,96.7,30.5z"/>
			</g>
		</g>
	</g>
</g>
</svg>
