<?xml version="1.0" encoding="utf-8"?>
<!-- Generator: Adobe Illustrator 26.0.1, SVG Export Plug-In . SVG Version: 6.00 Build 0)  -->
<svg version="1.1" id="Layer_1" xmlns="http://www.w3.org/2000/svg" xmlns:xlink="http://www.w3.org/1999/xlink" x="0px" y="0px"
	 viewBox="0 0 172 274" style="enable-background:new 0 0 172 274;" xml:space="preserve">
<style type="text/css">
	.st0{fill:#F89D81;}
	.st1{fill:#515979;}
	.st2{fill:#747A94;}
	.st3{fill:#A38878;}
	.st4{fill:#75A5C3;}
	.st5{fill:#B29D90;}
	.st6{fill:#FFFFFF;}
	.st7{fill:#7DDF96;}
	.st8{fill:#00C853;}
	.st9{fill:#EF7D7D;}
</style>
<g>
	<path class="st0" d="M128.9,181.3l-42-13.2c-0.3-0.1-0.6-0.1-0.9-0.1s-0.6,0-0.9,0.1l-42,13.2c-18,5.7-30.1,22.1-30.1,41V274h146
		v-51.6C159,203.5,146.9,187,128.9,181.3z"/>
	<path class="st1" d="M16,222.4c0-17.5,11.3-32.9,28-38.2L86,171l42,13.2c16.7,5.2,28,20.7,28,38.2v9.6h6v-9.6
		c0-20.2-12.9-37.8-32.2-43.9l-42-13.2c-0.6-0.2-1.2-0.3-1.8-0.3c-0.6,0-1.2,0.1-1.8,0.3l-42,13.2C22.9,184.5,10,202.2,10,222.4v9.6
		h6V222.4z"/>
	<path class="st2" d="M86,173c-4.1,0-7.8-1.9-10.3-5c-2.2,1.7-5,2.7-7.9,2.7c-1.1,0-2.3-0.1-3.4-0.4c-3.9-1.1-7.1-3.9-8.6-7.5
		c-1.5,0.6-3.2,1-4.9,1c-2.3,0-4.5-0.6-6.5-1.7c-3.5-2-5.8-5.6-6.4-9.5c-0.5,0.1-1.1,0.1-1.6,0.1c-3.5,0-6.7-1.4-9.2-3.8
		c-2.9-2.9-4.2-6.9-3.7-10.8c-3.9-0.5-7.5-2.9-9.5-6.4c-2-3.5-2.2-7.8-0.8-11.4c-3.6-1.5-6.5-4.7-7.5-8.6c-1.1-3.9-0.2-8.1,2.2-11.2
		C4.9,97.8,3,94.1,3,90s1.9-7.8,5-10.3c-2.4-3.1-3.3-7.3-2.2-11.2c1.1-3.9,3.9-7.1,7.5-8.6c-1.5-3.6-1.3-7.9,0.8-11.4
		c2-3.5,5.6-5.8,9.5-6.4c-0.5-3.9,0.8-7.9,3.7-10.8c2.5-2.5,5.7-3.8,9.2-3.8c0.5,0,1.1,0,1.6,0.1c0.5-3.9,2.8-7.5,6.4-9.5
		c2-1.1,4.2-1.7,6.5-1.7c1.7,0,3.4,0.3,4.9,1c1.5-3.6,4.7-6.5,8.6-7.5c1.1-0.3,2.2-0.4,3.4-0.4c2.9,0,5.6,1,7.9,2.7
		c2.4-3.1,6.2-5,10.3-5s7.8,1.9,10.3,5c2.2-1.7,5-2.7,7.9-2.7c1.1,0,2.3,0.1,3.4,0.4c3.9,1.1,7.1,3.9,8.6,7.5c1.5-0.6,3.2-1,4.9-1
		c2.3,0,4.5,0.6,6.5,1.7c3.5,2,5.8,5.6,6.4,9.5c0.5-0.1,1.1-0.1,1.6-0.1c3.5,0,6.7,1.4,9.2,3.8c2.9,2.9,4.2,6.9,3.7,10.8
		c3.9,0.5,7.5,2.9,9.5,6.4c2,3.5,2.2,7.8,0.8,11.4c3.6,1.5,6.5,4.7,7.5,8.6c1.1,3.9,0.2,8.1-2.2,11.2c3.1,2.4,5,6.2,5,10.3
		s-1.9,7.8-5,10.3c2.4,3.1,3.3,7.3,2.2,11.2c-1.1,3.9-3.9,7.1-7.5,8.6c1.5,3.6,1.3,7.9-0.8,11.4c-2,3.5-5.6,5.8-9.5,6.4
		c0.5,3.9-0.8,7.9-3.7,10.8c-2.5,2.5-5.7,3.8-9.2,3.8c-0.5,0-1.1,0-1.6-0.1c-0.5,3.9-2.8,7.5-6.4,9.5c-2,1.1-4.2,1.7-6.5,1.7
		c-1.7,0-3.4-0.3-4.9-1c-1.5,3.6-4.7,6.5-8.6,7.5c-1.1,0.3-2.2,0.4-3.4,0.4c-2.9,0-5.6-1-7.9-2.7C93.8,171.1,90.1,173,86,173z"/>
	<path class="st1" d="M86,10c4.5,0,8.4,3,9.6,7.2c1.8-3,5-4.8,8.5-4.8c0.9,0,1.7,0.1,2.6,0.3c4.4,1.2,7.3,5.1,7.4,9.4
		c1.9-1.8,4.4-2.8,6.9-2.8c1.7,0,3.4,0.4,5,1.3c3.9,2.3,5.7,6.8,4.7,11c1.5-0.8,3.1-1.2,4.8-1.2c2.6,0,5.1,1,7.1,2.9
		c3.2,3.2,3.8,8.1,1.7,11.9c0.8-0.2,1.6-0.3,2.3-0.3c3.5,0,6.8,1.8,8.7,5c2.3,3.9,1.6,8.8-1.4,11.9c4.3,0.1,8.2,3,9.4,7.4
		c1.2,4.4-0.8,8.9-4.4,11.1c4.1,1.2,7.2,5,7.2,9.6c0,4.5-3,8.4-7.2,9.6c3.7,2.3,5.6,6.7,4.4,11.1c-1.2,4.4-5.1,7.3-9.4,7.4
		c3,3.1,3.7,8,1.4,11.9c-1.9,3.2-5.2,5-8.7,5c-0.8,0-1.6-0.1-2.3-0.3c2.1,3.8,1.5,8.6-1.7,11.9c-2,2-4.5,2.9-7.1,2.9
		c-1.7,0-3.3-0.4-4.8-1.2c1,4.2-0.8,8.7-4.7,11c-1.6,0.9-3.3,1.3-5,1.3c-2.5,0-5-1-6.9-2.8c-0.1,4.3-3,8.2-7.4,9.4
		c-0.9,0.2-1.7,0.3-2.6,0.3c-3.5,0-6.7-1.8-8.5-4.8c-1.2,4.1-5,7.2-9.6,7.2s-8.4-3-9.6-7.2c-1.8,3-5,4.8-8.5,4.8
		c-0.9,0-1.7-0.1-2.6-0.3c-4.4-1.2-7.3-5.1-7.4-9.4c-1.9,1.8-4.4,2.8-6.9,2.8c-1.7,0-3.4-0.4-5-1.3c-3.9-2.3-5.7-6.8-4.7-11
		c-1.5,0.8-3.1,1.2-4.8,1.2c-2.6,0-5.1-1-7.1-2.9c-3.2-3.2-3.8-8.1-1.7-11.9c-0.8,0.2-1.6,0.3-2.3,0.3c-3.5,0-6.8-1.8-8.7-5
		c-2.3-3.9-1.6-8.8,1.4-11.9c-4.3-0.1-8.2-3-9.4-7.4c-1.2-4.4,0.8-8.9,4.4-11.1C9,98.4,6,94.5,6,90c0-4.5,3-8.4,7.2-9.6
		c-3.7-2.3-5.6-6.7-4.4-11.1c1.2-4.4,5.1-7.3,9.4-7.4c-3-3.1-3.7-8-1.4-11.9c1.9-3.2,5.2-5,8.7-5c0.8,0,1.6,0.1,2.3,0.3
		c-2.1-3.8-1.5-8.6,1.7-11.9c2-2,4.5-2.9,7.1-2.9c1.6,0,3.3,0.4,4.8,1.2c-1-4.2,0.8-8.7,4.7-11c1.6-0.9,3.3-1.3,5-1.3
		c2.5,0,5,1,6.9,2.8c0.1-4.3,3-8.2,7.4-9.4c0.9-0.2,1.7-0.3,2.6-0.3c3.5,0,6.7,1.8,8.5,4.8C77.6,13,81.5,10,86,10 M86,4
		c-4.1,0-7.9,1.6-10.8,4.2C73,7,70.5,6.4,67.9,6.4c-1.4,0-2.8,0.2-4.1,0.5c-3.9,1-7.2,3.5-9.3,6.8c-1.1-0.2-2.3-0.4-3.5-0.4
		c-2.8,0-5.6,0.7-8,2.1c-3.5,2-6,5.3-7.2,9c-4,0.2-7.7,1.8-10.6,4.7c-2.9,2.9-4.5,6.7-4.6,10.6c-3.8,1.2-7,3.8-9,7.2
		c-2,3.5-2.6,7.6-1.7,11.4c-3.3,2.1-5.8,5.4-6.8,9.3c-1.1,3.9-0.5,8,1.3,11.5C1.6,82.1,0,85.9,0,90s1.6,7.9,4.2,10.8
		c-1.8,3.5-2.3,7.6-1.3,11.5c1.1,3.9,3.6,7.2,6.8,9.3c-0.8,3.8-0.3,7.9,1.7,11.4c2,3.5,5.3,6,9,7.2c0.2,3.9,1.8,7.7,4.6,10.6
		c2.9,2.9,6.6,4.5,10.6,4.7c1.2,3.7,3.7,7,7.2,9c2.4,1.4,5.2,2.1,8,2.1c1.2,0,2.3-0.1,3.5-0.4c2.1,3.3,5.4,5.8,9.3,6.8
		c1.4,0.4,2.7,0.5,4.1,0.5c2.6,0,5.1-0.6,7.4-1.8c2.9,2.6,6.7,4.2,10.8,4.2s7.9-1.6,10.8-4.2c2.2,1.2,4.8,1.8,7.4,1.8
		c1.4,0,2.8-0.2,4.1-0.5c3.9-1,7.2-3.5,9.3-6.8c1.1,0.2,2.3,0.4,3.5,0.4c2.8,0,5.6-0.7,8-2.1c3.5-2,6-5.3,7.2-9
		c4-0.2,7.7-1.8,10.6-4.7c2.9-2.9,4.5-6.7,4.6-10.6c3.8-1.2,7-3.8,9-7.2c2-3.5,2.6-7.6,1.7-11.4c3.3-2.1,5.8-5.4,6.8-9.3
		c1.1-3.9,0.5-8-1.3-11.5c2.6-2.9,4.2-6.7,4.2-10.8s-1.6-7.9-4.2-10.8c1.8-3.5,2.3-7.6,1.3-11.5c-1.1-3.9-3.6-7.2-6.8-9.3
		c0.8-3.8,0.3-7.9-1.7-11.4c-2-3.5-5.3-6-9-7.2c-0.2-3.9-1.8-7.7-4.6-10.6c-2.9-2.9-6.6-4.5-10.6-4.7c-1.2-3.7-3.7-7-7.2-9
		c-2.4-1.4-5.2-2.1-8-2.1c-1.2,0-2.3,0.1-3.5,0.4c-2.1-3.3-5.4-5.8-9.3-6.8c-1.4-0.4-2.7-0.5-4.1-0.5c-2.6,0-5.1,0.6-7.4,1.8
		C93.9,5.6,90.1,4,86,4L86,4z"/>
	<path class="st3" d="M45,122.8c-6.1,0-11-4.9-11-11v-1.6c0-6.1,4.9-11,11-11c1.7,0,3,1.3,3,3v17.6C48,121.5,46.7,122.8,45,122.8z"
		/>
	<path class="st1" d="M45,102.2v17.6c-4.4,0-8-3.6-8-8v-1.6C37,105.8,40.6,102.2,45,102.2 M45,96.2c-7.7,0-14,6.3-14,14v1.6
		c0,7.7,6.3,14,14,14c3.3,0,6-2.7,6-6v-17.6C51,98.9,48.3,96.2,45,96.2L45,96.2z"/>
	<circle class="st4" cx="42" cy="127" r="6"/>
	<path class="st1" d="M42,124c1.7,0,3,1.3,3,3s-1.3,3-3,3s-3-1.3-3-3S40.3,124,42,124 M42,118c-5,0-9,4-9,9s4,9,9,9s9-4,9-9
		S47,118,42,118L42,118z"/>
	<path class="st5" d="M70,157.6V178c0,9.2,12.4,22.6,13.8,24.1c0.6,0.6,1.4,0.9,2.2,0.9s1.6-0.3,2.2-0.9
		c1.4-1.5,13.8-14.8,13.8-24.1v-20.4c-4.9,2.2-10.3,3.4-16,3.4S74.9,159.8,70,157.6z"/>
	<path class="st1" d="M99,178c0,8.3-13,22-13,22s-13-13.7-13-22v-19.2c-2.1-0.7-4.1-1.7-6-2.7v22c0,4.8,2.5,10.6,7.6,17.6
		c3.4,4.7,6.9,8.3,7,8.5c1.1,1.2,2.7,1.9,4.4,1.9c1.6,0,3.2-0.7,4.4-1.9c0.1-0.2,3.6-3.8,7-8.5c5.1-7.1,7.6-12.8,7.6-17.6v-22
		c-1.9,1.1-3.9,2-6,2.7V178z"/>
	<path class="st3" d="M73,156v19.9c4.1,1.3,8.5,2.1,13,2.1s8.9-0.7,13-2.1V156H73z"/>
	<path class="st5" d="M127,122.8c-1.7,0-3-1.3-3-3v-17.6c0-1.7,1.3-3,3-3c6.1,0,11,4.9,11,11v1.6C138,117.9,133.1,122.8,127,122.8z"
		/>
	<path class="st1" d="M127,102.2c4.4,0,8,3.6,8,8v1.6c0,4.4-3.6,8-8,8V102.2 M127,96.2c-3.3,0-6,2.7-6,6v17.6c0,3.3,2.7,6,6,6
		c7.7,0,14-6.3,14-14v-1.6C141,102.5,134.7,96.2,127,96.2L127,96.2z"/>
	<circle class="st4" cx="130" cy="127" r="6"/>
	<path class="st1" d="M130,124c1.7,0,3,1.3,3,3s-1.3,3-3,3s-3-1.3-3-3S128.3,124,130,124 M130,118c-5,0-9,4-9,9s4,9,9,9s9-4,9-9
		S135,118,130,118L130,118z"/>
	<path class="st5" d="M74,60c0,0-13.1,15-25.1,22c-1.2,3.8-1.9,7.8-1.9,12v28c0,21.5,17.5,39,39,39s39-17.5,39-39V94
		c0-1.3-0.1-2.5-0.2-3.7C91.8,85.7,74,60,74,60z"/>
	<path class="st1" d="M122,94v28c0,19.9-16.1,36-36,36h0c-19.9,0-36-16.1-36-36V94c0-3,0.4-6,1.1-8.8c-2.4,1.3-4.6,2.2-6.6,2.8
		c-0.3,2-0.4,4-0.4,6.1v28c0,23.2,18.8,42,42,42c23.2,0,42-18.8,42-42V94c0-0.1,0-0.1,0-0.2c-2.1-0.1-4.1-0.3-6-0.6
		C122,93.5,122,93.7,122,94z"/>
	<path class="st3" d="M58,122V94c0-13.4,7.3-25.1,18.1-31.3c-1.3-1.5-2-2.5-2.1-2.7c0,0-0.1,0-0.1,0c-0.9,1-10.6,12-20.8,19.2
		c-2,4.5-3.2,9.5-3.2,14.8v28c0,19.9,16.1,36,36,36h0c1.4,0,2.7-0.1,4-0.2C72,155.8,58,140.5,58,122z"/>
	<path class="st3" d="M93,110c0,3.9-3.1,7-7,7h0c-3.9,0-7-3.1-7-7L93,110z"/>
	<path class="st1" d="M99.1,89.7c4.2-4.9,13.8-3.9,15.7,2.7c0.2,0.6-0.2,1.2-0.7,1.3c-0.3,0.1-0.6,0-0.8-0.1
		c-3.3-1.5-5.9-2.3-9.4-2.2c-1.2,0-2.5,0.1-3.9,0C99,91.4,98.5,90.3,99.1,89.7L99.1,89.7z"/>
	<path class="st1" d="M71.9,91.4c-4.8-0.2-8.7,0-13.1,2.2c-0.6,0.3-1.3,0.1-1.5-0.6c0-3.4,3.9-6.1,7.1-6.4c3.2-0.3,6.3,0.6,8.5,3
		C73.5,90.4,72.9,91.5,71.9,91.4L71.9,91.4z"/>
	<path class="st1" d="M133,94c-33.3,0-52.8-20.8-59.2-29.1c-2.1,2.5-5.5,6.2-9.4,10c-9.4,9-17.4,13.5-23.6,13.5c-1.7,0-3-1.3-3-3
		s1.3-3,3-3c4.5,0,11.4-4.2,19.4-11.8c6.4-6.1,11.4-12.4,11.4-12.4c0.6-0.8,1.5-1.2,2.5-1.1c1,0.1,1.9,0.6,2.4,1.4
		C76.7,58.7,95.7,88,133,88c1.7,0,3,1.3,3,3S134.7,94,133,94z"/>
	<path class="st1" d="M124,82.5c-0.2,0-0.5,0-0.7-0.1C96.7,74.7,82.6,56.3,82,55.5c-0.8-1.1-0.6-2.7,0.5-3.5
		c1.1-0.8,2.7-0.6,3.5,0.5c0.1,0.2,13.8,17.9,38.7,25.1c1.3,0.4,2.1,1.8,1.7,3.1C126.1,81.8,125.1,82.5,124,82.5z"/>
	<path class="st1" d="M86,119.5c-5.2,0-9.5-4.3-9.5-9.5V97c0-1.4,1.1-2.5,2.5-2.5s2.5,1.1,2.5,2.5v13c0,2.5,2,4.5,4.5,4.5
		s4.5-2,4.5-4.5V97c0-1.4,1.1-2.5,2.5-2.5s2.5,1.1,2.5,2.5v13C95.5,115.2,91.2,119.5,86,119.5z"/>
	<circle class="st1" cx="105" cy="100" r="6"/>
	<circle class="st6" cx="107" cy="100" r="1.5"/>
	<path class="st1" d="M101,109c-0.7,0-1.3-0.3-1.7-1c-0.6-0.9-0.3-2.2,0.7-2.7c2.8-1.7,7.2-1.7,10.1,0c0.9,0.6,1.2,1.8,0.7,2.7
		c-0.6,0.9-1.8,1.2-2.7,0.7c-1.6-1-4.4-1-5.9,0C101.7,108.9,101.4,109,101,109z"/>
	<circle class="st1" cx="67" cy="100" r="6"/>
	<path class="st1" d="M63,109c-0.7,0-1.3-0.3-1.7-1c-0.6-0.9-0.3-2.2,0.7-2.7c2.8-1.7,7.2-1.7,10.1,0c0.9,0.6,1.2,1.8,0.7,2.7
		c-0.6,0.9-1.8,1.2-2.7,0.7c-1.6-1-4.4-1-5.9,0C63.7,108.9,63.4,109,63,109z"/>
	<circle class="st6" cx="69" cy="100" r="1.5"/>
	<rect x="135" y="235" class="st5" width="24" height="39"/>
	<rect x="13" y="235" class="st5" width="24" height="39"/>
	<g>
		<polygon class="st1" points="132,232 132,274 138,274 138,238 156,238 156,274 162,274 162,232 		"/>
		<polygon class="st1" points="10,232 10,274 16,274 16,238 34,238 34,274 40,274 40,232 		"/>
	</g>
	<path class="st0" d="M135.4,262c4.6-7.6,7-18.1,1-39H35.6c-6,20.9-3.6,31.4,1,39H135.4z"/>
	<path class="st0" d="M136.4,224c6,20.9,2.6,30.4-2,38"/>
	<path class="st1" d="M134.4,265c-0.5,0-1.1-0.1-1.5-0.4c-1.4-0.9-1.9-2.7-1-4.1c3.9-6.5,7.6-15.1,1.7-35.6
		c-0.5-1.6,0.5-3.3,2.1-3.7c1.6-0.5,3.3,0.5,3.7,2.1c6.3,21.8,2.6,32.3-2.3,40.4C136.4,264.5,135.4,265,134.4,265z"/>
	<path class="st0" d="M35.6,224c-6,20.9-2.6,30.4,2,38"/>
	<path class="st1" d="M37.6,265c-1,0-2-0.5-2.6-1.4c-4.9-8.1-8.6-18.6-2.3-40.4c0.5-1.6,2.1-2.5,3.7-2.1c1.6,0.5,2.5,2.1,2.1,3.7
		c-5.9,20.5-2.2,29.1,1.7,35.6c0.9,1.4,0.4,3.3-1,4.1C38.6,264.9,38.1,265,37.6,265z"/>
	<path class="st1" d="M86.3,127c-4.9,0-9.9-1.1-14.2-3.2c-1-0.5-1.4-1.7-0.9-2.7c0.5-1,1.7-1.4,2.7-0.9c7.5,3.7,17.6,3.7,24.1,0
		c1-0.5,2.2-0.2,2.7,0.8c0.5,1,0.2,2.2-0.8,2.7C96.1,125.9,91.3,127,86.3,127z"/>
	<path class="st1" d="M81.8,129.6c2.8,0.5,5.6,0.6,8.4,0c1.3-0.3,2.2,1.5,1.2,2.3c-0.8,0.8-1.8,1.4-2.8,1.7
		c-2.5,0.7-5.3,0.4-7.3-1.2c0,0-0.5-0.5-0.5-0.5C79.6,131.1,80.5,129.3,81.8,129.6L81.8,129.6z"/>
	<path class="st7" d="M86.1,213.9c-0.2-0.5-0.6-0.9-1-1.1l-18.1-8.5c-0.3-0.1-0.6-0.2-0.8-0.2c-0.8,0-1.5,0.4-1.8,1.2l-13.2,28.2
		h26.5l8.4-18.1C86.2,214.9,86.2,214.4,86.1,213.9z"/>
	<path class="st8" d="M65.5,211.5l-5.2,11.2c2.5-1.5,6-1.7,9.2-0.2c3.2,1.5,5.3,4.3,5.7,7.2l5.2-11.2c-1.7-0.8-2.4-2.8-1.6-4.4
		l-8.9-4.1C69.2,211.6,67.2,212.3,65.5,211.5z M74.5,218.4c-0.6,1.3-2.3,1.9-3.7,1.2c-1.4-0.7-2.1-2.3-1.5-3.6
		c0.6-1.3,2.3-1.9,3.7-1.2C74.5,215.5,75.2,217.1,74.5,218.4z"/>
	<path class="st8" d="M68,228.8c-0.5-0.2-0.8,0.2-1.3,1c-0.9,1.5-1.8,2.6-3.8,1.8c-1.2-0.6-1.7-1.7-1.2-3.2l-0.9-0.4l0.8-1.7
		l0.9,0.4c0.6-0.9,1.4-1.3,2.4-1.3c0,0,0.1,0,0.1,0l0.3,0l0,2l-0.4,0c-0.6,0-0.9,0.2-1.2,0.8c-0.4,0.8-0.4,1.2,0.1,1.5
		c0.4,0.2,0.8-0.2,1.3-1.1c0.9-1.4,1.9-2.7,3.7-1.8c1.2,0.6,1.7,1.8,1.3,3.3l0.9,0.4l-0.8,1.7l-0.9-0.4c-0.7,1-1.6,1.5-2.7,1.4
		l-0.4,0l0.2-2l0.4,0c0.6,0,1-0.3,1.3-0.9C68.6,229.6,68.5,229,68,228.8z"/>
	<g>
		<path class="st1" d="M85.9,211l-18.1-8.5c-0.5-0.2-1.1-0.4-1.7-0.4c-0.5,0-0.9,0.1-1.4,0.2c-1,0.4-1.8,1.1-2.3,2.1l-13.6,29.1h4.4
			l12.8-27.4l18.1,8.5l-8.8,18.9h2.8c0.5,0,1,0.2,1.4,0.5l8.2-17.7C88.7,214.3,87.9,211.9,85.9,211z"/>
	</g>
	<path class="st7" d="M75.9,204.7c0-1.1-0.9-2-2-2h-20c-1.1,0-2,0.9-2,2v28.8h24V204.7z"/>
	<path class="st1" d="M53.9,204.7h20v28.8h4v-28.8c0-2.2-1.8-4-4-4h-20c-1.1,0-2.1,0.4-2.8,1.2c-0.8,0.8-1.2,1.8-1.2,2.8v28.8h4
		V204.7z"/>
	<path class="st8" d="M55.6,209.8l0,12.3c1.6-2.4,4.7-4.1,8.2-4.1c3.6,0,6.6,1.7,8.2,4.1l0-12.3c-1.8,0-3.3-1.5-3.3-3.3H59
		C59,208.3,57.5,209.8,55.6,209.8z M66.8,212.2c0,1.5-1.3,2.7-2.9,2.7c-1.6,0-2.9-1.2-2.9-2.7c0-1.5,1.3-2.7,2.9-2.7
		S66.8,210.7,66.8,212.2z"/>
	<path class="st8" d="M65.2,224.4c-0.5,0-0.7,0.5-0.8,1.5c-0.2,1.7-0.5,3.1-2.6,3.2c-1.3,0-2.2-0.8-2.5-2.4h-1v-1.9h1
		c0.2-1,0.7-1.7,1.6-2.2c0,0,0.1,0,0.1-0.1l0.3-0.1l0.8,1.8l-0.4,0.2c-0.5,0.3-0.7,0.6-0.7,1.3c0,0.9,0.2,1.3,0.7,1.3
		c0.5,0,0.6-0.5,0.7-1.5c0.2-1.7,0.6-3.2,2.6-3.2c1.4,0,2.3,0.9,2.6,2.5h1v1.9h-1c-0.2,1.2-0.8,2.1-1.8,2.4l-0.4,0.1l-0.7-1.9
		l0.4-0.2c0.5-0.2,0.8-0.7,0.8-1.4C66,224.9,65.8,224.4,65.2,224.4z"/>
	<path class="st7" d="M65.4,207.2c-0.3-0.8-1.1-1.3-1.9-1.3c-0.2,0-0.5,0-0.7,0.1L44,212.9c-0.5,0.2-0.9,0.6-1.1,1
		c-0.2,0.5-0.2,1-0.1,1.5l6.6,18h25.5L65.4,207.2z"/>
	<path class="st1" d="M51.5,233.5l-6.8-18.7l18.8-6.8l9.3,25.6h4.3l-9.8-26.9c-0.4-1-1.1-1.8-2.1-2.3c-0.5-0.2-1.1-0.4-1.7-0.4
		c-0.5,0-0.9,0.1-1.4,0.2L43.3,211c-1,0.4-1.8,1.1-2.3,2.1c-0.4,1-0.5,2.1-0.1,3.1l6.4,17.5c0.3-0.1,0.5-0.1,0.8-0.1H51.5z"/>
	<path class="st8" d="M48.1,219l4.2,11.6c0.6-2.8,3-5.4,6.3-6.7c3.3-1.2,6.8-0.7,9.1,1l-4.2-11.6c-1.7,0.6-3.6-0.3-4.3-2l-9.2,3.3
		C50.7,216.4,49.8,218.3,48.1,219z M59.4,217.5c0.5,1.4-0.3,2.9-1.8,3.5c-1.5,0.5-3.1-0.1-3.6-1.5c-0.5-1.4,0.3-2.9,1.8-3.5
		S58.9,216.1,59.4,217.5z"/>
	<path class="st8" d="M62.1,229.4c-0.5,0.2-0.5,0.7-0.2,1.7c0.4,1.7,0.6,3.1-1.4,3.9c-1.2,0.5-2.4,0-3.2-1.4l-0.9,0.3l-0.6-1.8
		l0.9-0.3c-0.2-1,0.1-1.9,0.8-2.6c0,0,0-0.1,0.1-0.1l0.2-0.2l1.4,1.5l-0.3,0.3c-0.4,0.4-0.5,0.8-0.3,1.5c0.3,0.8,0.6,1.1,1.1,1
		c0.4-0.2,0.4-0.7,0.2-1.7c-0.4-1.6-0.6-3.2,1.4-3.9c1.3-0.5,2.5,0,3.3,1.4l1-0.3l0.6,1.8l-0.9,0.3c0.2,1.2-0.1,2.2-0.9,2.9
		l-0.3,0.3l-1.3-1.6l0.3-0.3c0.4-0.4,0.5-0.9,0.2-1.6C63.1,229.6,62.6,229.2,62.1,229.4z"/>
	<path class="st0" d="M63.1,268.5c-9.6,0-17.5-7.9-17.5-17.5v-15c0-1.4,1.1-2.5,2.5-2.5h30c1.4,0,2.5,1.1,2.5,2.5v15
		C80.6,260.6,72.8,268.5,63.1,268.5z"/>
	<path class="st1" d="M78.1,236v15c0,8.3-6.7,15-15,15h0c-8.3,0-15-6.7-15-15v-15H78.1 M78.1,231h-30c-2.8,0-5,2.2-5,5v15
		c0,11,9,20,20,20c11,0,20-9,20-20v-15C83.1,233.2,80.9,231,78.1,231L78.1,231z"/>
	<path class="st1" d="M72.1,249.6c-0.8,0-1.5-0.7-1.5-1.5c0-0.8-0.7-1.5-1.5-1.5s-1.5,0.7-1.5,1.5c0,0.8-0.7,1.5-1.5,1.5
		s-1.5-0.7-1.5-1.5c0-2.5,2-4.5,4.5-4.5s4.5,2,4.5,4.5C73.6,248.9,73,249.6,72.1,249.6z"/>
	<path class="st1" d="M60.1,249.6c-0.8,0-1.5-0.7-1.5-1.5c0-0.8-0.7-1.5-1.5-1.5s-1.5,0.7-1.5,1.5c0,0.8-0.7,1.5-1.5,1.5
		s-1.5-0.7-1.5-1.5c0-2.5,2-4.5,4.5-4.5s4.5,2,4.5,4.5C61.6,248.9,61,249.6,60.1,249.6z"/>
	<path class="st1" d="M66.6,238.7c2.3-1.6,5.5-1.2,7.5,0.6c1.1,0.9,2.5,3,0.7,3.9c-0.4,0.2-0.9,0.1-1.3-0.1c-2-1-3.8-1.7-5.9-1.9
		c0,0-0.6-0.2-0.6-0.2C66,240.8,65.7,239.3,66.6,238.7L66.6,238.7z"/>
	<path class="st1" d="M58.6,241.2c-1.5,0.2-3,0.5-4.3,1.2c-0.5,0.2-1.1,0.6-1.8,0.8c-0.7,0.3-1.5-0.1-1.8-0.8
		c-0.4-1.2,0.6-2.3,1.5-3.1c2-1.8,5.2-2.2,7.5-0.6c0.6,0.4,0.7,1.2,0.3,1.8C59.7,241,59.1,241,58.6,241.2L58.6,241.2z"/>
	<path class="st1" d="M70.1,250.5h-14c-1.7,0-3,1.3-3,3c0,5.5,4.5,10,10,10c5.5,0,9.9-4.4,10-9.9c0,0,0-0.1,0-0.1
		C73.1,251.8,71.8,250.5,70.1,250.5z"/>
	<ellipse class="st9" cx="63.1" cy="258.2" rx="5.2" ry="2.3"/>
</g>
</svg>
