<?xml version="1.0" encoding="utf-8"?>
<!-- Generator: Adobe Illustrator 26.0.1, SVG Export Plug-In . SVG Version: 6.00 Build 0)  -->
<svg version="1.1" id="Layer_1" xmlns="http://www.w3.org/2000/svg" xmlns:xlink="http://www.w3.org/1999/xlink" x="0px" y="0px"
	 viewBox="0 0 172 274" style="enable-background:new 0 0 172 274;" xml:space="preserve">
<style type="text/css">
	.st0{fill:#2196F3;}
	.st1{fill:#515979;}
	.st2{fill:#7DDF96;}
	.st3{fill:#00C853;}
	.st4{fill:#FFFFFF;}
	.st5{fill:#FDE4DD;}
	.st6{fill:#FFC8BE;}
	.st7{fill:#9E8271;}
	.st8{fill:#B29D90;}
</style>
<g>
	<path class="st0" d="M169,274H3v-53.5c0-19.4,12.9-36.3,31.6-41.5l50.6-13.9c0.3-0.1,0.5-0.1,0.8-0.1s0.5,0,0.8,0.1l50.6,13.9
		c18.7,5.1,31.6,22.1,31.6,41.5V274z"/>
</g>
<path class="st1" d="M6,220.5c0-18,12-33.8,29.4-38.6L86,168l50.6,13.9c17.4,4.8,29.4,20.6,29.4,38.6V274h6v-53.5
	c0-20.6-13.9-38.9-33.8-44.4l-50.6-13.9c-0.5-0.1-1.1-0.2-1.6-0.2s-1.1,0.1-1.6,0.2l-50.6,13.9C13.9,181.6,0,199.8,0,220.5V274h6
	V220.5z"/>
<g>
	<g>
		<path class="st2" d="M136.5,207.9l-18.8-6.8c-0.2-0.1-0.5-0.1-0.7-0.1c-0.8,0-1.6,0.5-1.9,1.3l-10.3,28.3H130c0.1,0,0.3,0,0.4,0
			l7.3-20.1C138.1,209.4,137.6,208.3,136.5,207.9z"/>
		<path class="st1" d="M137.2,206l-18.8-6.8c-0.4-0.2-0.9-0.2-1.4-0.2c-0.6,0-1.2,0.1-1.7,0.4c-1,0.4-1.7,1.3-2.1,2.3l-10.5,28.9
			h4.3l10-27.6l18.8,6.8l-7.5,20.7h1.7c0.9,0,1.7,0.5,2.1,1.2l7.5-20.6C140.4,209.1,139.3,206.8,137.2,206z"/>
	</g>
	<g>
		<path class="st3" d="M117,208.3l-4.2,11.6c2.3-1.8,5.8-2.3,9.1-1c3.3,1.2,5.7,3.8,6.3,6.7l4.2-11.6c-1.7-0.6-2.6-2.5-2-4.3
			l-9.2-3.3C120.6,208.1,118.7,209,117,208.3z M126.6,214.4c-0.5,1.4-2.1,2.1-3.6,1.5c-1.5-0.5-2.3-2.1-1.8-3.5s2.1-2.1,3.6-1.5
			C126.3,211.5,127.1,213,126.6,214.4z"/>
	</g>
	<g>
		<g>
			<path class="st3" d="M121,225.3c-0.5-0.2-0.8,0.2-1.2,1.1c-0.8,1.6-1.6,2.8-3.6,2.1c-1.2-0.5-1.8-1.6-1.5-3.1l-0.9-0.3l0.6-1.8
				l0.9,0.3c0.5-0.9,1.3-1.4,2.3-1.5h0.1h0.3l0.2,2l-0.4,0.1c-0.6,0.1-0.9,0.3-1.1,1c-0.3,0.8-0.3,1.3,0.3,1.5
				c0.4,0.2,0.8-0.3,1.2-1.2c0.7-1.5,1.6-2.8,3.6-2.1c1.3,0.5,1.9,1.6,1.6,3.2l1,0.3l-0.6,1.8l-0.9-0.3c-0.6,1.1-1.5,1.7-2.6,1.7
				h-0.4v-2h0.4c0.6,0,1-0.4,1.2-1C121.6,226.1,121.5,225.5,121,225.3z"/>
		</g>
	</g>
</g>
<g>
	<g>
		<path class="st2" d="M125.7,200.7c0-0.5-0.3-1-0.7-1.4c-0.4-0.3-0.8-0.5-1.3-0.5c-0.1,0-0.1,0-0.2,0l-19.9,1.7
			c-1.1,0.1-1.9,1.1-1.8,2.2l2.4,27.7h24.1L125.7,200.7z"/>
		<path class="st1" d="M103.8,202.6l19.9-1.7l2.6,29.6h3.7c0.1,0,0.2,0,0.3,0l-2.6-30c-0.2-2.1-1.9-3.7-4-3.7c-0.1,0-0.2,0-0.4,0
			l-19.9,1.7c-1.1,0.1-2,0.6-2.7,1.4c-0.7,0.8-1,1.9-0.9,2.9l2.4,27.5h4L103.8,202.6z"/>
	</g>
	<g>
		<path class="st3" d="M106,207.5l1.1,12.3c1.4-2.6,4.3-4.5,7.8-4.8s6.8,1.1,8.5,3.4l-1.1-12.3c-1.8,0.2-3.5-1.2-3.6-3L109,204
			C109.2,205.8,107.8,207.4,106,207.5z M117.3,209c0.1,1.5-1.1,2.8-2.6,2.9c-1.6,0.1-3-0.9-3.1-2.4s1.1-2.8,2.6-2.9
			S117.1,207.5,117.3,209z"/>
	</g>
	<g>
		<g>
			<path class="st3" d="M116.8,221.3c-0.5,0-0.6,0.6-0.6,1.6c-0.1,1.7-0.3,3.2-2.3,3.4c-1.3,0.1-2.3-0.6-2.7-2.2l-1,0.1l-0.2-1.9
				l1-0.1c0.1-1,0.6-1.8,1.5-2.3c0,0,0.1,0,0.1-0.1l0.3-0.2l1,1.8l-0.3,0.2c-0.5,0.3-0.7,0.6-0.6,1.3c0.1,0.9,0.3,1.3,0.8,1.2
				c0.5,0,0.6-0.6,0.6-1.6c0-1.7,0.3-3.2,2.3-3.4c1.4-0.1,2.4,0.7,2.8,2.2l1-0.1l0.2,1.9l-1,0.1c-0.1,1.3-0.6,2.1-1.6,2.6l-0.4,0.2
				l-0.8-1.8l0.4-0.2c0.5-0.2,0.7-0.7,0.6-1.5C117.7,221.7,117.4,221.2,116.8,221.3z"/>
		</g>
	</g>
</g>
<g>
	<g>
		<path class="st2" d="M125.7,230.5l-12.2-26.1c-0.3-0.7-1.1-1.2-1.8-1.2c-0.3,0-0.6,0.1-0.8,0.2l-18.1,8.5c-0.5,0.2-0.9,0.6-1,1.1
			c-0.2,0.5-0.2,1,0.1,1.5l7.5,16.1c0.2-0.1,0.5-0.1,0.8-0.1H125.7z"/>
		<path class="st1" d="M100,230.5h1.4l-7.9-16.8l18.1-8.5l11.8,25.3h4.4l-12.6-27c-0.7-1.5-2.1-2.3-3.6-2.3c-0.6,0-1.1,0.1-1.7,0.4
			L91.8,210c-1,0.4-1.7,1.3-2.1,2.3s-0.3,2.1,0.1,3.1l7.8,16.7C98.1,231.1,99,230.5,100,230.5z"/>
	</g>
	<g>
		<path class="st3" d="M97.3,217.5l5.2,11.2c0.4-2.9,2.5-5.7,5.7-7.2s6.7-1.3,9.2,0.2l-5.2-11.2c-1.7,0.8-3.7,0.1-4.4-1.6l-8.9,4.1
			C99.7,214.8,99,216.8,97.3,217.5z M108.4,215.1c0.6,1.3,0,3-1.5,3.6s-3.1,0.1-3.7-1.2s0-3,1.5-3.6
			C106.1,213.2,107.8,213.7,108.4,215.1z"/>
	</g>
	<g>
		<g>
			<path class="st3" d="M112.2,226.7c-0.5,0.2-0.4,0.7-0.1,1.7c0.5,1.7,0.8,3.1-1,4c-1.2,0.6-2.4,0.2-3.3-1.1l-0.9,0.4l-0.8-1.7
				l0.9-0.4c-0.3-1-0.1-1.9,0.6-2.7c0,0,0-0.1,0.1-0.1l0.2-0.2l1.5,1.3l-0.3,0.3c-0.3,0.4-0.4,0.8-0.1,1.5c0.4,0.8,0.7,1.1,1.2,0.8
				c0.4-0.2,0.4-0.8,0-1.7c-0.5-1.6-0.8-3.1,1-4c1.2-0.6,2.5-0.2,3.4,1.1l0.9-0.4l0.8,1.7l-0.9,0.4c0.4,1.2,0.1,2.2-0.6,3l-0.3,0.3
				l-1.4-1.4l0.3-0.3c0.4-0.4,0.4-0.9,0.1-1.6C113.1,226.8,112.7,226.5,112.2,226.7z"/>
		</g>
	</g>
</g>
<g>
	<g>
		<path class="st1" d="M130,233v15c0,8.3-6.7,15-15,15l0,0c-8.3,0-15-6.7-15-15v-15H130 M130,228h-30c-2.8,0-5,2.2-5,5v15
			c0,11,9,20,20,20s20-9,20-20v-15C135,230.2,132.8,228,130,228L130,228z"/>
	</g>
</g>
<g>
	<g>
		<path class="st1" d="M115.2,257.5c-3.2,0-6.4-1.1-9.1-3.3c-0.6-0.5-0.8-1.5-0.2-2.1c0.5-0.6,1.5-0.8,2.1-0.2
			c4.4,3.5,10.2,3.5,14.1,0c0.6-0.6,1.6-0.5,2.1,0.1s0.5,1.6-0.1,2.1C121.6,256.4,118.4,257.5,115.2,257.5z"/>
	</g>
	<g>
		<g>
			<g>
				<g>
					<path class="st1" d="M124,250.8c-0.1,0-0.3,0-0.4-0.1c-1.1-0.5-3-0.5-4.1,0c-0.5,0.2-1.1,0-1.3-0.5c-0.2-0.5,0-1.1,0.5-1.3
						c1.6-0.8,4.2-0.8,5.8,0c0.5,0.2,0.7,0.8,0.5,1.3C124.7,250.6,124.3,250.8,124,250.8z"/>
				</g>
				<g>
					<g>
						<circle class="st1" cx="121.5" cy="245.1" r="4.3"/>
					</g>
					<g>
						<circle class="st4" cx="122.6" cy="245.1" r="1.1"/>
					</g>
				</g>
				<g>
					<path class="st1" d="M111,250.8c-0.1,0-0.3,0-0.4-0.1c-1.1-0.5-3-0.5-4.1,0c-0.5,0.2-1.1,0-1.3-0.5c-0.2-0.5,0-1.1,0.5-1.3
						c1.6-0.8,4.2-0.8,5.8,0c0.5,0.2,0.7,0.8,0.5,1.3C111.7,250.6,111.3,250.8,111,250.8z"/>
				</g>
				<g>
					<g>
						<circle class="st1" cx="108.5" cy="245.1" r="4.3"/>
					</g>
					<g>
						<circle class="st4" cx="109.6" cy="245.1" r="1.1"/>
					</g>
				</g>
			</g>
		</g>
		<g>
			<g>
				<path class="st1" d="M119,236.7c2.3-1.6,5.5-1.2,7.5,0.6c1.1,0.9,2.5,3,0.7,3.9c-0.4,0.2-0.9,0.1-1.3-0.1c-2-1-3.8-1.7-5.9-1.9
					l-0.6-0.2C118.3,238.8,118.1,237.3,119,236.7L119,236.7z"/>
			</g>
			<g>
				<path class="st1" d="M110,239.2c-1.5,0.2-3,0.5-4.3,1.2c-0.5,0.2-1.1,0.6-1.8,0.8c-0.7,0.3-1.5-0.1-1.8-0.8
					c-0.4-1.2,0.6-2.3,1.5-3.1c2-1.8,5.2-2.2,7.5-0.6c0.6,0.4,0.7,1.2,0.3,1.8C111.1,239,110.5,239,110,239.2L110,239.2z"/>
			</g>
		</g>
	</g>
</g>
<g>
	<path class="st5" d="M86,197c-9.9,0-18-8.1-18-18v-35c0-1.7,1.3-3,3-3h30c1.7,0,3,1.3,3,3v35C104,188.9,95.9,197,86,197z"/>
</g>
<g>
	<path class="st6" d="M71,152v19.9c4.6,2,9.7,3.1,15,3.1s10.4-1.1,15-3.1V152H71z"/>
</g>
<g>
	<path class="st1" d="M84,168.5c-1.4,0-2.5-1.1-2.5-2.5s1.1-2.5,2.5-2.5c1.9,0,3.5-1.6,3.5-3.5s-1.6-3.5-3.5-3.5
		c-1.4,0-2.5-1.1-2.5-2.5s1.1-2.5,2.5-2.5c4.7,0,8.5,3.8,8.5,8.5S88.7,168.5,84,168.5z"/>
</g>
<g>
	<rect x="143" y="237" class="st5" width="26" height="37"/>
</g>
<g>
	<rect x="3" y="237" class="st5" width="26" height="37"/>
</g>
<g>
	<path class="st1" d="M143,241c-1.7,0-3-1.3-3-3v-20c0-1.7,1.3-3,3-3s3,1.3,3,3v20C146,239.7,144.7,241,143,241z"/>
</g>
<g>
	<path class="st1" d="M29,241c-1.7,0-3-1.3-3-3v-20c0-1.7,1.3-3,3-3s3,1.3,3,3v20C32,239.7,30.7,241,29,241z"/>
</g>
<g>
	<polygon class="st1" points="6,240 26,240 26,274 32,274 32,234 0,234 0,274 6,274 	"/>
	<polygon class="st1" points="146,240 166,240 166,274 172,274 172,234 140,234 140,274 146,274 	"/>
</g>
<g>
	<path class="st1" d="M101,144v35c0,8.3-6.7,15-15,15l0,0c-8.3,0-15-6.7-15-15v-35H101 M101,138H71c-3.3,0-6,2.7-6,6v35
		c0,11.6,9.4,21,21,21s21-9.4,21-21v-35C107,140.7,104.3,138,101,138L101,138z"/>
</g>
<g>
	<g>
		<path class="st7" d="M48,102c-7.2,0-13-5.8-13-13V75c0-1.7,1.3-3,3-3h10c1.7,0,3,1.3,3,3v24C51,100.7,49.7,102,48,102z"/>
	</g>
	<g>
		<path class="st1" d="M48,75v24c-5.5,0-10-4.5-10-10V75H48 M48,69H38c-3.3,0-6,2.7-6,6v14c0,8.8,7.2,16,16,16c3.3,0,6-2.7,6-6V75
			C54,71.7,51.3,69,48,69L48,69z"/>
	</g>
</g>
<g>
	<g>
		<path class="st7" d="M124,102c-1.7,0-3-1.3-3-3V75c0-1.7,1.3-3,3-3h10c1.7,0,3,1.3,3,3v14C137,96.2,131.2,102,124,102z"/>
	</g>
	<g>
		<path class="st1" d="M134,75v14c0,5.5-4.5,10-10,10V75H134 M134,69h-10c-3.3,0-6,2.7-6,6v24c0,3.3,2.7,6,6,6c8.8,0,16-7.2,16-16
			V75C140,71.7,137.3,69,134,69L134,69z"/>
	</g>
</g>
<g>
	<g>
		<path class="st6" d="M43,121.8c-6.1,0-11-4.9-11-11v-1.6c0-6.1,4.9-11,11-11c1.7,0,3,1.3,3,3v17.6C46,120.5,44.7,121.8,43,121.8z"
			/>
	</g>
	<g>
		<g>
			<path class="st1" d="M43,101.2v17.6c-4.4,0-8-3.6-8-8v-1.6C35,104.8,38.6,101.2,43,101.2 M43,95.2c-7.7,0-14,6.3-14,14v1.6
				c0,7.7,6.3,14,14,14c3.3,0,6-2.7,6-6v-17.6C49,97.9,46.3,95.2,43,95.2L43,95.2z"/>
		</g>
	</g>
</g>
<g>
	<g>
		<path class="st5" d="M129,121.8c-1.7,0-3-1.3-3-3v-17.6c0-1.7,1.3-3,3-3c6.1,0,11,4.9,11,11v1.6C140,116.9,135.1,121.8,129,121.8z
			"/>
	</g>
	<g>
		<g>
			<path class="st1" d="M129,101.2c4.4,0,8,3.6,8,8v1.6c0,4.4-3.6,8-8,8l0,0V101.2L129,101.2 M129,95.2c-3.3,0-6,2.7-6,6v17.6
				c0,1.6,0.6,3.1,1.8,4.2c1.1,1.1,2.7,1.8,4.2,1.8c7.7,0,14-6.3,14-14v-1.6C143,101.5,136.7,95.2,129,95.2L129,95.2z"/>
		</g>
	</g>
</g>
<g>
	<path class="st5" d="M86,158c-22.6,0-41-18.4-41-41V87c0-22.6,18.4-41,41-41s41,18.4,41,41v30C127,139.6,108.6,158,86,158z"/>
</g>
<g>
	<path class="st6" d="M56,117V87c0-19.6,14.9-35.8,34-37.8c-1.3-0.1-2.6-0.2-4-0.2c-21,0-38,17-38,38v30c0,21,17,38,38,38
		c1.4,0,2.7-0.1,4-0.2C70.9,152.8,56,136.6,56,117z"/>
</g>
<g>
	<path class="st1" d="M97.9,85.2c3.5-3.5,9.5-4.2,13.6-1.3c1.9,1.3,5,5,2,6.5c-0.5,0.2-1.1,0.2-1.6,0c-2.1-1-3.7-2-5.9-2.4
		c-2.2-0.4-4.6-0.2-6.9-0.2C97.6,87.9,96.9,86.1,97.9,85.2L97.9,85.2z"/>
</g>
<g>
	<path class="st1" d="M72.7,87.8c-3.2-0.1-6.4-0.3-9.3,1c-1.7,0.5-4.6,3.3-6,0.6c-0.2-0.5-0.2-1.1,0-1.6c1.2-3.1,4.5-5.4,7.9-5.6
		c3.3-0.3,6.4,0.7,8.8,3.1c0.6,0.6,0.6,1.6,0,2.2C73.7,87.8,73.2,87.9,72.7,87.8L72.7,87.8z"/>
</g>
<g>
	<g>
		<circle class="st1" cx="105" cy="98" r="6"/>
	</g>
	<g>
		<circle class="st4" cx="107" cy="98" r="1.5"/>
	</g>
	<g>
		<path class="st1" d="M109,107c-0.4,0-0.7-0.1-1-0.3c-1.6-1-4.4-1-5.9,0c-0.9,0.6-2.2,0.3-2.7-0.7c-0.6-0.9-0.3-2.2,0.7-2.7
			c2.8-1.7,7.2-1.7,10.1,0c0.9,0.6,1.2,1.8,0.7,2.7C110.3,106.7,109.7,107,109,107z"/>
	</g>
</g>
<g>
	<g>
		<circle class="st1" cx="67" cy="98" r="6"/>
	</g>
	<g>
		<path class="st1" d="M71,107c-0.4,0-0.7-0.1-1-0.3c-1.6-1-4.4-1-5.9,0c-0.9,0.6-2.2,0.3-2.7-0.7c-0.6-0.9-0.3-2.2,0.7-2.7
			c2.8-1.7,7.2-1.7,10.1,0c0.9,0.6,1.2,1.8,0.7,2.7C72.3,106.7,71.7,107,71,107z"/>
	</g>
	<g>
		<circle class="st4" cx="69" cy="98" r="1.5"/>
	</g>
</g>
<g>
	<path class="st6" d="M93,111c0,3.9-3.1,7-7,7l0,0c-3.9,0-7-3.1-7-7H93z"/>
</g>
<g>
	<path class="st1" d="M86.3,129c-4.9,0-9.9-1.1-14.2-3.2c-1-0.5-1.4-1.7-0.9-2.7s1.7-1.4,2.7-0.9c7.5,3.7,17.6,3.7,24.1,0
		c1-0.5,2.2-0.2,2.7,0.8s0.2,2.2-0.8,2.7C96.1,127.9,91.3,129,86.3,129z"/>
</g>
<g>
	<g>
		<path class="st6" d="M100.6,51.9l-5.3,4.2c0,0,3.3,14.8,28.8,30.9C124,71.2,114.3,57.6,100.6,51.9z"/>
	</g>
</g>
<g>
	<g>
		<path class="st1" d="M81.8,132.6c2.8,0.5,5.6,0.6,8.4,0c1.3-0.3,2.2,1.5,1.2,2.3c-0.8,0.8-1.8,1.4-2.8,1.7
			c-2.5,0.7-5.3,0.4-7.3-1.2l-0.5-0.5C79.6,134.1,80.5,132.3,81.8,132.6L81.8,132.6z"/>
	</g>
</g>
<g>
	<g>
		<path class="st1" d="M86,49c21,0,38,17,38,38v30c0,21-17,38-38,38l0,0c-21,0-38-17-38-38V87C48,66,65,49,86,49L86,49 M86,43
			c-24.3,0-44,19.7-44,44v30c0,24.3,19.7,44,44,44s44-19.7,44-44V87C130,62.7,110.3,43,86,43L86,43z"/>
	</g>
</g>
<g>
	<g>
		<path class="st8" d="M30.8,81c-1,0-1.9-0.5-2.5-1.3s-0.7-1.9-0.3-2.8c0.2-0.4,4.5-10.9,12.5-21.6C51.3,40.8,63.6,33.2,76,33.2
			c6.7,0,13.6,2.2,20.3,6.6c2.1-0.7,5.9-1.8,10.6-1.8c11.7,0,27.2,6.4,34.9,36.7c0.2,0.9,0,1.9-0.5,2.6c-0.6,0.7-1.4,1.2-2.4,1.2
			c-18,0-36.9-18.9-43.3-25.9C88.4,59.9,64.8,81,30.8,81z"/>
	</g>
	<g>
		<path class="st1" d="M76,36.2c6.2,0,12.8,2,20,6.9c0,0,4.6-2.2,11-2.2c10.1,0,24.6,5.6,32,34.5C118.5,75.4,95.8,48,95.8,48
			s-25.5,30-65,30C30.8,78,48,36.2,76,36.2 M76,30.2c-31.7,0-50,43.7-50.8,45.5c-0.8,1.9-0.6,4,0.6,5.6c1.1,1.7,3,2.7,5,2.7
			C63,84,86.1,65.8,95.6,56.8c2.6,2.7,6.1,6.1,10.2,9.5c12,10,23.2,15.1,33.1,15.1c1.9,0,3.6-0.9,4.7-2.3c1.1-1.5,1.5-3.4,1.1-5.2
			c-3.6-14.1-9.3-24.6-16.9-31.1c-6-5.1-13.2-7.9-20.9-7.9c-4.2,0-7.8,0.8-10.2,1.5C89.9,32.3,83,30.2,76,30.2L76,30.2z"/>
	</g>
</g>
<g>
	<path class="st1" d="M41.3,72.2c-1.2,0-2.3-0.9-2.5-2.1c-0.2-1.4,0.7-2.6,2.1-2.9c0.2,0,24.3-4.2,40.5-21.8c0.9-1,2.5-1.1,3.5-0.1
		s1.1,2.5,0.1,3.5C67.7,67.7,42.8,72,41.7,72.1C41.6,72.2,41.4,72.2,41.3,72.2z"/>
</g>
<g>
	<path class="st1" d="M96,41.5c-0.3,0-0.5,0-0.8-0.1c-1.3-0.4-2-1.9-1.6-3.2l3-9c0.4-1.3,1.8-2,3.2-1.6c1.3,0.4,2,1.9,1.6,3.2l-3,9
		C98,40.8,97,41.5,96,41.5z"/>
</g>
<g>
	<path class="st1" d="M86,120.5c-5.2,0-9.5-4.3-9.5-9.5V96c0-1.4,1.1-2.5,2.5-2.5s2.5,1.1,2.5,2.5v15c0,2.5,2,4.5,4.5,4.5
		s4.5-2,4.5-4.5V96c0-1.4,1.1-2.5,2.5-2.5s2.5,1.1,2.5,2.5v15C95.5,116.2,91.2,120.5,86,120.5z"/>
</g>
</svg>
