<?xml version="1.0" encoding="utf-8"?>
<!-- Generator: Adobe Illustrator 25.0.0, SVG Export Plug-In . SVG Version: 6.00 Build 0)  -->
<svg version="1.1" id="Layer_1" xmlns="http://www.w3.org/2000/svg" xmlns:xlink="http://www.w3.org/1999/xlink" x="0px" y="0px"
	 viewBox="0 0 137.9 180" style="enable-background:new 0 0 137.9 180;" xml:space="preserve">
<style type="text/css">
	.st0{fill:#94CCD4;}
	.st1{fill:#6FBBC6;}
	.st2{fill:#84BCC1;}
	.st3{fill:#5D748A;}
	.st4{fill:#3F597D;}
	.st5{fill:#35414D;}
	.st6{fill:#3B4B56;}
	.st7{fill:#D8D8D8;}
	.st8{fill:#F0E9E6;}
</style>
<g>
	<g>
		<path class="st0" d="M113.1,179.8l-11.1-5.5c-0.5-0.3-1.1-0.3-1.6,0l-6.5,3.2l-3.6,0.1c-1.2,0.6-2.6-0.3-2.6-1.6l2-17.5l22.2-1.4
			l3.8,8.5v12.6C115.7,179.5,114.3,180.4,113.1,179.8L113.1,179.8z"/>
		<path class="st1" d="M115.7,159.7l-16.2-4.2l-12.9,4.2v5.8v12.6c0,1.3,1.4,2.2,2.6,1.6l4.6-2.3V167c0-0.8,0.7-1.4,1.5-1.4h20.4
			V159.7z"/>
		<path class="st2" d="M115.7,177.5v0.7c0,1.3-1.4,2.2-2.6,1.6l-6.8-3.4l-4.3-2.1c-0.3-0.1-0.5-0.2-0.8-0.2h7.2
			c0.4,0,0.8,0.1,1.2,0.3L115.7,177.5z"/>
	</g>
	<path class="st3" d="M20.9,4.2L25.8,0h104.8c4,0,7.3,3.2,7.3,7.2v145.3c0,4-3.8,6-7.8,6l-109.5-1.1L20.9,4.2z"/>
	<path class="st4" d="M137.9,152.5c0,4-3.3,7.2-7.3,7.2H18.6L9.3,83.9L18.6,0h7.3v149.2c0,1.8,1.5,3.3,3.3,3.3H137.9z"/>
	<path class="st5" d="M18.4,158.5l-8.9-0.5c-4,0-7.3-3.2-7.3-7.2L0.9,8.2c0-4,2.3-8.2,6.4-8.2h11.3v152.5l-1.6,2.7L18.4,158.5z"/>
	<path class="st6" d="M18.6,152.5v7.2H7.3c-4,0-7.3-3.2-7.3-7.2V7.2C0,3.2,3.3,0,7.3,0v150c0,1.4,1.1,2.5,2.5,2.5H18.6z"/>
	<g>
		<path class="st5" d="M71.5,102.7l-3.1-3.1c-0.3-0.3-0.8-0.3-1.1,0c-0.3,0.3-0.3,0.8,0,1l3.1,3.1c0.1,0.1,0.3,0.2,0.5,0.2
			s0.4-0.1,0.5-0.2C71.8,103.4,71.8,103,71.5,102.7z M80.8,94.1c-0.4,0-0.7,0.3-0.7,0.7v4.3c0,0.4,0.3,0.7,0.7,0.7
			c0.4,0,0.7-0.3,0.7-0.7v-4.3C81.6,94.4,81.2,94.1,80.8,94.1z M94.3,99.6c-0.3-0.3-0.8-0.3-1.1,0l-3.1,3.1c-0.3,0.3-0.3,0.8,0,1
			c0.1,0.1,0.3,0.2,0.5,0.2c0.2,0,0.4-0.1,0.5-0.2l3.1-3.1C94.6,100.4,94.6,99.9,94.3,99.6L94.3,99.6z M99.1,112.3h-4.4
			c-0.4,0-0.7,0.3-0.7,0.7c0,0.4,0.3,0.7,0.7,0.7h4.4c0.4,0,0.7-0.3,0.7-0.7C99.9,112.6,99.5,112.3,99.1,112.3z M66.9,112.3h-4.4
			c-0.4,0-0.7,0.3-0.7,0.7c0,0.4,0.3,0.7,0.7,0.7h4.4c0.4,0,0.7-0.3,0.7-0.7C67.6,112.6,67.3,112.3,66.9,112.3z M92.7,113
			c0-6.5-5.3-11.9-11.9-11.9c-6.6,0-11.9,5.3-11.9,11.9c0,2.3,0.6,4.5,1.9,6.4l4.7,8.8h-0.4c-1.4,0-2.6,1.2-2.6,2.6
			c0,0.7,0.3,1.4,0.8,1.9c-0.5,0.5-0.8,1.1-0.8,1.9c0,1.4,1.2,2.6,2.6,2.6h2.2c0.3,1.6,1.8,2.9,3.5,2.9c1.7,0,3.2-1.2,3.5-2.9h2.2
			c1.4,0,2.6-1.2,2.6-2.6c0-0.7-0.3-1.4-0.8-1.9c0.5-0.5,0.8-1.1,0.8-1.9c0-1.4-1.2-2.6-2.6-2.6h-0.4l4.7-8.8
			C92.1,117.5,92.7,115.3,92.7,113z M80.8,138.5c-0.9,0-1.7-0.6-2-1.4h4C82.5,137.9,81.7,138.5,80.8,138.5z M86.5,135.6H75.1
			c-0.6,0-1.1-0.5-1.1-1.1c0-0.6,0.5-1.1,1.1-1.1h11.4c0.6,0,1.1,0.5,1.1,1.1C87.7,135.1,87.2,135.6,86.5,135.6z M86.5,129.7
			c0.6,0,1.1,0.5,1.1,1.1s-0.5,1.1-1.1,1.1H75.1c-0.6,0-1.1-0.5-1.1-1.1s0.5-1.1,1.1-1.1H86.5z M78.5,120.7l2.3-1.4l2.3,1.4
			l-1.4,7.5h-1.8L78.5,120.7z M89.6,118.7l-5.1,9.5h-1.2l1.4-7.4l2.9-1.8c0.3-0.2,0.5-0.7,0.2-1c-0.2-0.3-0.7-0.5-1-0.2l-2.7,1.7
			l-2.7-1.7c-0.2-0.2-0.5-0.2-0.8,0l-2.7,1.7l-2.7-1.7c-0.3-0.2-0.8-0.1-1,0.2c-0.2,0.3-0.1,0.8,0.2,1l2.9,1.8l1.4,7.4h-1.2
			l-5.1-9.5c0,0,0,0,0-0.1c-1.1-1.7-1.7-3.6-1.7-5.6c0-5.7,4.7-10.4,10.4-10.4c5.8,0,10.4,4.7,10.4,10.4
			C91.3,115,90.7,117,89.6,118.7C89.6,118.6,89.6,118.7,89.6,118.7L89.6,118.7z"/>
		<path class="st7" d="M83.1,120.7l-1.4,7.5h-1.8l-1.4-7.5l2.3-1.4L83.1,120.7z"/>
		<path class="st8" d="M91.3,113c0,2-0.6,3.9-1.7,5.6c0,0,0,0,0,0.1l-5.1,9.5h-1.2l1.4-7.4l2.9-1.8c0.3-0.2,0.5-0.7,0.2-1
			c-0.2-0.3-0.7-0.5-1-0.2l-2.7,1.7l-2.7-1.7c-0.2-0.2-0.5-0.2-0.8,0l-2.7,1.7l-2.7-1.7c-0.3-0.2-0.8-0.1-1,0.2
			c-0.2,0.3-0.1,0.8,0.2,1l2.9,1.8l1.4,7.4h-1.2l-5.1-9.5c0,0,0,0,0-0.1c-1.1-1.7-1.7-3.6-1.7-5.6c0-5.7,4.7-10.4,10.4-10.4
			C86.6,102.6,91.3,107.3,91.3,113L91.3,113z"/>
		<g>
			<path class="st7" d="M87.7,130.8c0,0.6-0.5,1.1-1.1,1.1H75.1c-0.6,0-1.1-0.5-1.1-1.1c0-0.6,0.5-1.1,1.1-1.1h11.4
				C87.2,129.7,87.7,130.2,87.7,130.8z"/>
			<path class="st7" d="M87.7,134.5c0,0.6-0.5,1.1-1.1,1.1H75.1c-0.6,0-1.1-0.5-1.1-1.1c0-0.6,0.5-1.1,1.1-1.1h11.4
				C87.2,133.4,87.7,133.9,87.7,134.5z"/>
			<path class="st7" d="M82.8,137.1c-0.3,0.8-1.1,1.4-2,1.4c-0.9,0-1.7-0.6-2-1.4H82.8z"/>
		</g>
	</g>
	<g>
		<g>
			<g>
				<path class="st5" d="M69.9,16.1l-1.5,27.3l-23.4-1.2l1.4-27.3L69.9,16.1z M65.6,20l-2.7-0.1l-0.3,6.9L55,26.4l0.3-6.9l-4.5-0.2
					L50.6,22l1.9,0.1l-0.8,14.5l2.6,0.2l0.4-7.8l7.6,0.4L62,37.2l2.7,0.1L65.6,20z"/>
				<path class="st5" d="M90.7,46.1l-17.2-1l1.1-22.3l17.2,1.1L90.7,46.1z M83,42.4c1,0,1.9-0.2,2.6-0.6c0.7-0.4,1.4-1,1.9-1.7
					c0.5-0.7,0.9-1.5,1.1-2.4c0.3-0.9,0.4-1.8,0.4-2.8c0-1.8-0.5-3.2-1.6-4.2c-1.1-1-2.6-1.6-4.5-1.6c-0.9,0-1.7,0.2-2.4,0.5
					c-0.7,0.3-1.4,0.8-1.9,1.4c-0.5,0.6-0.9,1.3-1.2,2.2C77,34,76.9,34.9,76.9,36c0,0.8,0.1,1.6,0.3,2.4c0.2,0.8,0.6,1.5,1.1,2.1
					c0.5,0.6,1.1,1.1,1.9,1.4C81,42.2,81.9,42.4,83,42.4z M83,32.3c0.5,0,0.9,0.1,1.2,0.3c0.3,0.2,0.6,0.4,0.8,0.8
					c0.2,0.3,0.4,0.7,0.5,1.1c0.1,0.4,0.2,0.8,0.2,1.3c0,1.2-0.2,2.1-0.7,2.7c-0.5,0.6-1.1,0.9-1.9,0.9c-0.8,0-1.5-0.3-2.1-0.9
					c-0.6-0.6-0.8-1.4-0.8-2.4c0-1.2,0.3-2.1,0.8-2.7C81.5,32.6,82.2,32.3,83,32.3z"/>
				<path class="st5" d="M113.9,28.5l0.2,16.4l-18.2,0.3l-0.2-16.4L113.9,28.5z M113.3,33.8l-2.1-0.7l-2.3,6.8l-2.3-6.1l-2.1,0.1
					l-2.1,6.3l-2.5-6.5l-2.9,0l0,2.1l1.4,0l3,7.8l1.9,0l2.2-6.4l2.3,6.3l1.8,0L113.3,33.8z"/>
			</g>
			<g>
				<path class="st5" d="M61.8,77.3l-16.9-3.5l4.6-22.2L66.4,55L61.8,77.3z M61.8,61l0.6-2.7L51.4,56l-0.5,2.8l4.1,0.8l-2.4,11.5
					l2.7,0.6l2.4-11.5L61.8,61z"/>
				<path class="st5" d="M81.5,81.7L67.6,82l-0.3-16.9l13.9-0.3L81.5,81.7z M78.9,74.3c0-1.6-0.4-2.8-1.1-3.7
					c-0.7-0.9-1.9-1.4-3.4-1.4c-1.4,0-2.5,0.5-3.3,1.4c-0.8,0.9-1.2,2.2-1.2,3.7c0,0.6,0.1,1.3,0.3,1.9c0.2,0.6,0.5,1.1,0.8,1.6
					c0.4,0.5,0.8,0.8,1.4,1.1c0.6,0.3,1.2,0.4,2,0.4c1.3,0,2.4-0.4,3.3-1.3C78.4,77.2,78.9,76,78.9,74.3z M74.6,71.7
					c0.4,0,0.6,0.1,0.9,0.3c0.2,0.2,0.4,0.4,0.6,0.7c0.2,0.3,0.3,0.6,0.3,0.9c0.1,0.3,0.1,0.6,0.1,0.9c0,0.8-0.2,1.5-0.5,1.9
					c-0.4,0.4-0.9,0.6-1.5,0.6c-0.6,0-1.1-0.2-1.5-0.7c-0.4-0.5-0.6-1.1-0.6-1.9c0-0.9,0.2-1.6,0.7-2S73.9,71.7,74.6,71.7z"/>
			</g>
			<path class="st5" d="M116.3,78.3H93.5c-0.9,0-1.6,0.7-1.6,1.6v0.4c0,0.9,0.7,1.6,1.6,1.6h22.8c0.9,0,1.6-0.7,1.6-1.6V80
				C117.9,79.1,117.2,78.3,116.3,78.3z"/>
		</g>
		<g>
			<g>
				<path class="st8" d="M69,14.8L67.6,42l-23.4-1.2l1.4-27.3L69,14.8z M64.8,18.7l-2.7-0.1l-0.3,6.9L54.2,25l0.3-6.9L50,18
					l-0.2,2.6l1.9,0.1l-0.8,14.5l2.6,0.2l0.4-7.8l7.6,0.4l-0.4,7.8l2.7,0.1L64.8,18.7z"/>
				<path class="st8" d="M89.9,44.7l-17.2-1l1.1-22.3L91,22.5L89.9,44.7z M82.1,41.1c1,0,1.9-0.2,2.6-0.6c0.7-0.4,1.4-1,1.9-1.7
					c0.5-0.7,0.9-1.5,1.1-2.4c0.3-0.9,0.4-1.8,0.4-2.8c0-1.8-0.5-3.2-1.6-4.2c-1.1-1-2.6-1.6-4.5-1.6c-0.9,0-1.7,0.2-2.4,0.5
					c-0.7,0.3-1.4,0.8-1.9,1.4c-0.5,0.6-0.9,1.3-1.2,2.2c-0.3,0.9-0.4,1.8-0.4,2.9c0,0.8,0.1,1.6,0.3,2.4c0.2,0.8,0.6,1.5,1.1,2.1
					c0.5,0.6,1.1,1.1,1.9,1.4C80.2,40.9,81.1,41.1,82.1,41.1z M82.2,31c0.5,0,0.9,0.1,1.2,0.3c0.3,0.2,0.6,0.4,0.8,0.8
					c0.2,0.3,0.4,0.7,0.5,1.1c0.1,0.4,0.2,0.8,0.2,1.3c0,1.2-0.2,2.1-0.7,2.7c-0.5,0.6-1.1,0.9-1.9,0.9c-0.8,0-1.5-0.3-2.1-0.9
					c-0.6-0.6-0.8-1.4-0.8-2.4c0-1.2,0.3-2.1,0.8-2.7C80.7,31.3,81.4,31,82.2,31z"/>
				<path class="st8" d="M113.1,27.2l0.2,16.4l-18.2,0.3l-0.2-16.4L113.1,27.2z M112.5,32.5l-2.1-0.7l-2.3,6.8l-2.3-6.1l-2.1,0.1
					l-2.1,6.3l-2.5-6.5l-2.9,0l0,2.1l1.4,0l3,7.8l1.9,0l2.2-6.4l2.3,6.3l1.8,0L112.5,32.5z"/>
			</g>
			<g>
				<path class="st8" d="M61,75.9l-16.9-3.5l4.6-22.2l16.9,3.5L61,75.9z M61,59.6l0.6-2.7l-10.9-2.3l-0.5,2.8l4.1,0.8l-2.4,11.5
					l2.7,0.6L57,58.8L61,59.6z"/>
				<path class="st8" d="M80.7,80.3l-13.9,0.3l-0.3-16.9l13.9-0.3L80.7,80.3z M78.1,73c0-1.6-0.4-2.8-1.1-3.7
					c-0.7-0.9-1.9-1.4-3.4-1.4c-1.4,0-2.5,0.5-3.3,1.4C69.4,70.2,69,71.4,69,73c0,0.6,0.1,1.3,0.3,1.9c0.2,0.6,0.5,1.1,0.8,1.6
					c0.4,0.5,0.8,0.8,1.4,1.1c0.6,0.3,1.2,0.4,2,0.4c1.3,0,2.4-0.4,3.3-1.3C77.6,75.9,78.1,74.6,78.1,73z M73.8,70.3
					c0.4,0,0.6,0.1,0.9,0.3c0.2,0.2,0.4,0.4,0.6,0.7c0.2,0.3,0.3,0.6,0.3,0.9s0.1,0.6,0.1,0.9c0,0.8-0.2,1.5-0.5,1.9
					c-0.4,0.4-0.9,0.6-1.5,0.6c-0.6,0-1.1-0.2-1.5-0.7c-0.4-0.5-0.6-1.1-0.6-1.9c0-0.9,0.2-1.6,0.7-2S73.1,70.3,73.8,70.3z"/>
			</g>
			<path class="st8" d="M115.5,77H92.7c-0.9,0-1.6,0.7-1.6,1.6V79c0,0.9,0.7,1.6,1.6,1.6h22.8c0.9,0,1.6-0.7,1.6-1.6v-0.4
				C117.1,77.7,116.4,77,115.5,77z"/>
		</g>
	</g>
</g>
</svg>
