<svg id="Layer_1" data-name="Layer 1" xmlns="http://www.w3.org/2000/svg" viewBox="0 0 240 240"><defs><style>.cls-1{fill:#b29d90;}.cls-2{fill:#515979;}.cls-3{fill:#fff;}.cls-4{fill:#d8ebfb;}.cls-5{fill:#bad2e1;}.cls-6{fill:#f89d81;}.cls-7{fill:#ef7d7d;}</style></defs><rect class="cls-1" x="47.42" y="49.03" width="145.16" height="169.35" rx="12.1"/><path class="cls-2" d="M180.48,51.45a9.68,9.68,0,0,1,9.68,9.68V206.29a9.68,9.68,0,0,1-9.68,9.68h-121a9.68,9.68,0,0,1-9.68-9.68V61.13a9.68,9.68,0,0,1,9.68-9.68h121m0-4.84h-121A14.53,14.53,0,0,0,45,61.13V206.29a14.54,14.54,0,0,0,14.52,14.52h121A14.54,14.54,0,0,0,195,206.29V61.13a14.53,14.53,0,0,0-14.52-14.52Z"/><path class="cls-3" d="M62.74,208.71a5.65,5.65,0,0,1-5.64-5.65V64.35a5.65,5.65,0,0,1,5.64-5.64H177.26a5.65,5.65,0,0,1,5.64,5.64V186.94a2.41,2.41,0,0,1-.71,1.71L162.84,208a2.43,2.43,0,0,1-1.71.71Z"/><path class="cls-2" d="M177.26,61.13a3.22,3.22,0,0,1,3.22,3.22V186.94l-19.35,19.35H62.74a3.22,3.22,0,0,1-3.22-3.23V64.35a3.22,3.22,0,0,1,3.22-3.22H177.26m0-4.84H62.74a8.07,8.07,0,0,0-8.06,8.06V203.06a8.08,8.08,0,0,0,8.06,8.07h98.39a4.84,4.84,0,0,0,3.42-1.42l19.36-19.35a4.87,4.87,0,0,0,1.41-3.42V64.35a8.07,8.07,0,0,0-8.06-8.06Z"/><path class="cls-4" d="M161.13,208.71a2.52,2.52,0,0,1-.93-.18,2.43,2.43,0,0,1-1.49-2.24V190.81a6.29,6.29,0,0,1,6.29-6.29h15.48a2.42,2.42,0,0,1,1.71,4.13L162.84,208A2.42,2.42,0,0,1,161.13,208.71Z"/><path class="cls-2" d="M180.48,186.94l-19.35,19.35V190.81a3.87,3.87,0,0,1,3.87-3.87h15.48m0-4.84H165a8.72,8.72,0,0,0-8.71,8.71v15.48a4.84,4.84,0,0,0,3,4.47,4.77,4.77,0,0,0,1.85.37,4.82,4.82,0,0,0,3.42-1.42l19.36-19.35a4.84,4.84,0,0,0-3.43-8.26Zm0,9.67h0Z"/><rect class="cls-2" x="104.68" y="132.1" width="25.81" height="4.84" rx="2.42"/><rect class="cls-2" x="104.68" y="122.42" width="59.68" height="4.84" rx="2.42"/><path class="cls-5" d="M79.68,68.39A2.42,2.42,0,0,1,77.26,66V53.06a8.88,8.88,0,0,1,8.87-8.87h20.39A15.3,15.3,0,0,1,120,21.61a17.11,17.11,0,0,1,1.75.1,15.3,15.3,0,0,1,11.73,22.48h20.39a8.88,8.88,0,0,1,8.87,8.87V66a2.42,2.42,0,0,1-2.42,2.42ZM120,32.9a4.45,4.45,0,0,0-.81.08,4,4,0,0,0,.81,8,4.45,4.45,0,0,0,.81-.08,4,4,0,0,0-.81-8Z"/><path class="cls-2" d="M120,24c.49,0,1,0,1.48.08a12.89,12.89,0,0,1,7,22.5h25.36a6.45,6.45,0,0,1,6.45,6.45V66H79.68V53.06a6.45,6.45,0,0,1,6.45-6.45h25.36A12.89,12.89,0,0,1,120,24m0,19.36a6.8,6.8,0,0,0,1.26-.12A6.46,6.46,0,0,0,120,30.48a6.8,6.8,0,0,0-1.26.12A6.46,6.46,0,0,0,120,43.39m0-24.2h0a17.75,17.75,0,0,0-17.07,22.58H86.13A11.3,11.3,0,0,0,74.84,53.06V66a4.84,4.84,0,0,0,4.84,4.84h80.64A4.84,4.84,0,0,0,165.16,66V53.06a11.3,11.3,0,0,0-11.29-11.29H137.06a17.72,17.72,0,0,0-15-22.46,17.11,17.11,0,0,0-2-.12Zm0,19.36a1.58,1.58,0,0,1-1.24-.59,1.6,1.6,0,0,1,.88-2.6,1.47,1.47,0,0,1,.36,0,1.58,1.58,0,0,1,1.24.59,1.6,1.6,0,0,1-.88,2.6,1.47,1.47,0,0,1-.36,0Z"/><path class="cls-2" d="M148.23,58.71H91.77a2.42,2.42,0,0,1,0-4.84h56.46a2.42,2.42,0,1,1,0,4.84Z"/><rect class="cls-3" x="78.06" y="120" width="19.35" height="19.35" rx="2.42"/><path class="cls-2" d="M95,122.42v14.52H80.48V122.42H95m0-4.84H80.48a4.84,4.84,0,0,0-4.83,4.84v14.52a4.83,4.83,0,0,0,4.83,4.83H95a4.84,4.84,0,0,0,4.84-4.83V122.42A4.84,4.84,0,0,0,95,117.58Z"/><path class="cls-6" d="M88.91,134.52a2.41,2.41,0,0,1-1.79-.8l-4.39-4.83a2.42,2.42,0,0,1,3.58-3.26l2.6,2.87,9.94-10.93a2.42,2.42,0,1,1,3.59,3.25l-11.73,12.9A2.42,2.42,0,0,1,88.91,134.52Z"/><rect class="cls-2" x="104.68" y="161.13" width="41.94" height="4.84" rx="2.42"/><rect class="cls-2" x="104.68" y="151.45" width="59.68" height="4.84" rx="2.42"/><rect class="cls-2" x="75.65" y="188.55" width="41.94" height="4.84" rx="2.42"/><rect class="cls-2" x="75.65" y="178.87" width="59.68" height="4.84" rx="2.42"/><rect class="cls-3" x="78.06" y="149.03" width="19.35" height="19.35" rx="2.42"/><path class="cls-2" d="M95,151.45V166H80.48V151.45H95m0-4.84H80.48a4.84,4.84,0,0,0-4.83,4.84V166a4.84,4.84,0,0,0,4.83,4.84H95A4.84,4.84,0,0,0,99.84,166V151.45A4.84,4.84,0,0,0,95,146.61Z"/><path class="cls-6" d="M88.91,163.55a2.44,2.44,0,0,1-1.79-.79l-4.39-4.84a2.42,2.42,0,0,1,3.58-3.26l2.6,2.87,9.94-10.93a2.42,2.42,0,0,1,3.59,3.25L90.71,162.76A2.44,2.44,0,0,1,88.91,163.55Z"/><path class="cls-2" d="M134.11,93.87a1.59,1.59,0,0,1-.76-.19,7,7,0,0,0-5.73,0,1.61,1.61,0,1,1-1.53-2.84,10.18,10.18,0,0,1,8.79,0,1.61,1.61,0,0,1-.77,3Z"/><circle class="cls-2" cx="130.48" cy="86.01" r="5.65"/><circle class="cls-3" cx="131.89" cy="86.01" r="1.41"/><path class="cls-2" d="M127.07,74.57a7.1,7.1,0,0,1,1.54-.73,8.77,8.77,0,0,1,1.61-.38,8.45,8.45,0,0,1,3.44.29,7,7,0,0,1,3.12,1.89,6.22,6.22,0,0,1,1.64,3,1.65,1.65,0,0,1-2.5,1.76l-.34-.22a18.39,18.39,0,0,0-1.74-1.15,8,8,0,0,0-1.61-.72,12.25,12.25,0,0,0-1.93-.43c-.35-.06-.72-.12-1.09-.15s-.81-.07-1.12-.15l-.61-.17a1.6,1.6,0,0,1-.41-2.89Z"/><path class="cls-2" d="M105.89,93.87a1.61,1.61,0,0,1-.77-3,10.18,10.18,0,0,1,8.79,0,1.61,1.61,0,1,1-1.53,2.84,7,7,0,0,0-5.73,0A1.59,1.59,0,0,1,105.89,93.87Z"/><circle class="cls-2" cx="109.52" cy="86.01" r="5.65"/><circle class="cls-3" cx="110.93" cy="86.01" r="1.41"/><path class="cls-2" d="M111.94,78c-.31.05-.75,0-1.12.05s-.75,0-1.11,0a11.19,11.19,0,0,0-1.95.27,7.48,7.48,0,0,0-1.67.57,18.71,18.71,0,0,0-1.84,1l-.35.18a1.65,1.65,0,0,1-2.34-2,6.21,6.21,0,0,1,1.91-2.91,7,7,0,0,1,3.26-1.6,8.35,8.35,0,0,1,3.45,0,9,9,0,0,1,1.57.51,7.28,7.28,0,0,1,1.47.86,1.61,1.61,0,0,1,.33,2.24,1.59,1.59,0,0,1-1,.61Z"/><path class="cls-2" d="M120,113.15a13.32,13.32,0,0,1-13.31-13.31,2,2,0,0,1,2-2h22.58a2,2,0,0,1,2,2A13.32,13.32,0,0,1,120,113.15Z"/><path class="cls-2" d="M131.29,99.84h0m0,0a11.29,11.29,0,1,1-22.58,0h22.58m0-4H108.71a4,4,0,0,0-4,4,15.32,15.32,0,0,0,30.64.15v-.15a4,4,0,0,0-4-4Zm0,8.06Z"/><ellipse class="cls-7" cx="120" cy="107.37" rx="8.4" ry="3.76"/></svg>