<svg xmlns="http://www.w3.org/2000/svg" viewBox="0 0 240 240"><defs><style>.cls-1{isolation:isolate;}.cls-2{fill:#fbb040;}.cls-3{fill:#515979;}.cls-4{opacity:0.2;}.cls-4,.cls-9{mix-blend-mode:color-burn;}.cls-5{fill:#fff;}.cls-6{fill:#b4ecfb;}.cls-7{fill:#ffd886;}.cls-8{fill:#ffebc2;}.cls-9{opacity:0.3;}.cls-10{fill:#ef7d7d;}</style></defs><g class="cls-1"><g id="Layer_1" data-name="Layer 1"><path class="cls-2" d="M39.36,181a7.63,7.63,0,0,1-7.62-7.63V60.07a7.63,7.63,0,0,1,7.62-7.63H82.63a7.65,7.65,0,0,1,6.58,3.78l5.43,9.3h106a7.63,7.63,0,0,1,7.62,7.62V173.39a7.63,7.63,0,0,1-7.62,7.63Z"/><path class="cls-3" d="M82.63,55.71a4.35,4.35,0,0,1,3.76,2.16l6.37,10.92H200.64A4.35,4.35,0,0,1,205,73.14V173.39a4.36,4.36,0,0,1-4.35,4.36H39.36A4.36,4.36,0,0,1,35,173.39V60.07a4.36,4.36,0,0,1,4.35-4.36H82.63m0-6.54H39.36a10.91,10.91,0,0,0-10.89,10.9V173.39a10.91,10.91,0,0,0,10.89,10.9H200.64a10.91,10.91,0,0,0,10.89-10.9V73.14a10.91,10.91,0,0,0-10.89-10.89H96.51L92,54.58a10.93,10.93,0,0,0-9.41-5.41Z"/><g class="cls-4"><rect class="cls-3" x="35.01" y="79.68" width="169.99" height="21.79"/></g><rect class="cls-5" x="41.54" y="75.32" width="156.91" height="32.69" rx="2.18"/><path class="cls-3" d="M196.28,77.5v28.33H43.72V77.5H196.28m0-4.36H43.72a4.37,4.37,0,0,0-4.36,4.36v28.33a4.36,4.36,0,0,0,4.36,4.36H196.28a4.36,4.36,0,0,0,4.36-4.36V77.5a4.37,4.37,0,0,0-4.36-4.36Z"/><rect class="cls-6" x="43.72" y="81.86" width="152.55" height="21.79"/><path class="cls-7" d="M38.28,187.56a6.55,6.55,0,0,1-6.54-6.3L21.32,96.83a6.54,6.54,0,0,1,6.49-7.34H212.19a6.54,6.54,0,0,1,6.49,7.34l-10.42,84.43a6.55,6.55,0,0,1-6.54,6.3Z"/><path class="cls-3" d="M212.19,92.76a3.27,3.27,0,0,1,3.25,3.67L205,181a3.26,3.26,0,0,1-3.27,3.27H38.28A3.26,3.26,0,0,1,35,181L24.56,96.43a3.27,3.27,0,0,1,3.25-3.67H212.19m0-6.54H27.81a9.81,9.81,0,0,0-9.74,11l10.41,84.3a9.83,9.83,0,0,0,9.8,9.3H201.72a9.83,9.83,0,0,0,9.8-9.3l10.41-84.3a9.81,9.81,0,0,0-9.74-11Z"/><path class="cls-8" d="M27.81,97.12H212.19A3.25,3.25,0,0,1,215.12,99l.32-2.54a3.27,3.27,0,0,0-3.25-3.67H27.81a3.27,3.27,0,0,0-3.25,3.67L24.88,99A3.25,3.25,0,0,1,27.81,97.12Z"/><g class="cls-9"><path class="cls-3" d="M202.81,177.75H37.19a3.27,3.27,0,0,1-2.78-1.56L35,181a3.26,3.26,0,0,0,3.27,3.27H201.72A3.26,3.26,0,0,0,205,181l.6-4.83A3.27,3.27,0,0,1,202.81,177.75Z"/></g><path class="cls-3" d="M129.93,112.87a11.32,11.32,0,0,1,2.13-1.47,12.27,12.27,0,0,1,2.33-1,12.25,12.25,0,0,1,7.93.22c.43.18.84.41,1.25.62a5.73,5.73,0,0,1,1.17.76,9.69,9.69,0,0,1,3.24,4.1,2.22,2.22,0,0,1-3,2.87l-.41-.22a26.22,26.22,0,0,0-3-1.55,10.44,10.44,0,0,0-2.79-.78,16.34,16.34,0,0,0-3.17-.12c-.57,0-1.16.07-1.76.15s-1.26.18-1.76.19h-.68a2.16,2.16,0,0,1-2.19-2.15A2.19,2.19,0,0,1,129.93,112.87Z"/><path class="cls-3" d="M107.94,116.68c-.5,0-1.18-.14-1.76-.19s-1.19-.11-1.76-.15a16.34,16.34,0,0,0-3.17.12,10.44,10.44,0,0,0-2.79.78,26.22,26.22,0,0,0-3,1.55l-.4.21A2.22,2.22,0,0,1,92,116.14a9.69,9.69,0,0,1,3.24-4.1,5.34,5.34,0,0,1,1.17-.76c.41-.21.82-.44,1.25-.62a12.25,12.25,0,0,1,7.93-.22,12.27,12.27,0,0,1,2.33,1,11.32,11.32,0,0,1,2.13,1.47,2.18,2.18,0,0,1,.21,3.07,2.14,2.14,0,0,1-1.65.74Z"/><path class="cls-3" d="M109.13,134.71A2.72,2.72,0,0,1,106.4,132a2.72,2.72,0,1,0-5.44,0,2.73,2.73,0,0,1-5.45,0,8.17,8.17,0,1,1,16.34,0A2.72,2.72,0,0,1,109.13,134.71Z"/><path class="cls-3" d="M141.77,134.71A2.72,2.72,0,0,1,139,132a2.72,2.72,0,1,0-5.44,0,2.73,2.73,0,0,1-5.45,0,8.17,8.17,0,1,1,16.34,0A2.72,2.72,0,0,1,141.77,134.71Z"/><path class="cls-3" d="M120,162.5a17.45,17.45,0,0,1-17.43-17.44,2.18,2.18,0,0,1,2.17-2.18h30.52a2.18,2.18,0,0,1,2.17,2.18A17.45,17.45,0,0,1,120,162.5Z"/><path class="cls-3" d="M135.26,145.06h0m0,0a15.26,15.26,0,1,1-30.52,0h30.52m0-4.36H104.74a4.36,4.36,0,0,0-4.35,4.36,19.61,19.61,0,0,0,39.22.18,1.09,1.09,0,0,0,0-.18,4.36,4.36,0,0,0-4.36-4.36Zm0,8.72Z"/><ellipse class="cls-10" cx="120" cy="155.23" rx="11.35" ry="5.09"/></g></g></svg>