<svg xmlns="http://www.w3.org/2000/svg" viewBox="0 0 240 240"><defs><style>.cls-1{isolation:isolate;}.cls-2{fill:#6adaf7;}.cls-3{fill:#515979;}.cls-4,.cls-5{mix-blend-mode:overlay;}.cls-5{opacity:0.5;}.cls-6{fill:#d8ebfb;}.cls-7{fill:#ffd886;}.cls-8{fill:#fcc066;}.cls-9{fill:#ef7d7d;}.cls-10{fill:#fff;}</style></defs><g class="cls-1"><g id="Layer_1" data-name="Layer 1"><rect class="cls-2" x="68.33" y="22.34" width="157.39" height="195.31" rx="2.84"/><path class="cls-3" d="M222.87,25.19V214.81H71.17V25.19h151.7m0-5.69H71.17a5.69,5.69,0,0,0-5.69,5.69V214.81a5.69,5.69,0,0,0,5.69,5.69h151.7a5.69,5.69,0,0,0,5.69-5.69V25.19a5.69,5.69,0,0,0-5.69-5.69Z"/><g class="cls-4"><rect class="cls-3" x="71.17" y="25.19" width="151.7" height="189.62"/></g><g class="cls-5"><rect class="cls-3" x="71.17" y="25.19" width="151.7" height="189.62"/></g><rect class="cls-6" x="56.95" y="31.83" width="157.39" height="176.35" rx="2.84"/><path class="cls-3" d="M211.49,34.67V205.33H59.79V34.67h151.7m0-5.69H59.79a5.68,5.68,0,0,0-5.68,5.69V205.33A5.68,5.68,0,0,0,59.79,211h151.7a5.69,5.69,0,0,0,5.69-5.69V34.67A5.69,5.69,0,0,0,211.49,29Z"/><rect class="cls-2" x="45.57" y="22.34" width="157.39" height="195.31" rx="2.84"/><path class="cls-3" d="M200.12,25.19V214.81H48.42V25.19h151.7m0-5.69H48.42a5.69,5.69,0,0,0-5.69,5.69V214.81a5.69,5.69,0,0,0,5.69,5.69h151.7a5.68,5.68,0,0,0,5.68-5.69V25.19a5.68,5.68,0,0,0-5.68-5.69Z"/><g class="cls-5"><path class="cls-3" d="M48.42,136.12H81.6a3.79,3.79,0,0,0,3.79-3.79V102a3.79,3.79,0,0,0-3.79-3.8H48.42Z"/></g><g class="cls-5"><path class="cls-3" d="M48.42,136.12H81.6a3.79,3.79,0,0,0,3.79-3.79V102a3.79,3.79,0,0,0-3.79-3.8H48.42Z"/></g><rect class="cls-3" x="122.37" y="190.16" width="34.13" height="5.69" rx="2.84"/><rect class="cls-7" x="45.57" y="22.34" width="11.38" height="195.31" rx="2.84"/><path class="cls-3" d="M54.11,25.19V214.81H48.42V25.19h5.69m0-5.69H48.42a5.69,5.69,0,0,0-5.69,5.69V214.81a5.69,5.69,0,0,0,5.69,5.69h5.69a5.68,5.68,0,0,0,5.68-5.69V25.19a5.68,5.68,0,0,0-5.68-5.69Z"/><rect class="cls-8" x="48.42" y="98.19" width="5.69" height="37.92"/><path class="cls-3" d="M103.16,132.61v29H96.39V149.35H84.6v12.26H77.83v-29H84.6v12.12H96.39V132.61Z"/><path class="cls-3" d="M117,140.65a11.78,11.78,0,0,1,4.29.74,9.24,9.24,0,0,1,5.46,5.44,12.07,12.07,0,0,1,.77,4.41,12.25,12.25,0,0,1-.77,4.45,9.69,9.69,0,0,1-2.15,3.37,9.52,9.52,0,0,1-3.31,2.13,12,12,0,0,1-4.29.74,12.15,12.15,0,0,1-4.31-.74,9.65,9.65,0,0,1-3.34-2.13,9.46,9.46,0,0,1-2.17-3.37,12.25,12.25,0,0,1-.77-4.45,12.07,12.07,0,0,1,.77-4.41,9.21,9.21,0,0,1,2.17-3.33,9.46,9.46,0,0,1,3.34-2.11A11.93,11.93,0,0,1,117,140.65Zm0,16.7a3.5,3.5,0,0,0,3.14-1.5,10.82,10.82,0,0,0,0-9.13,3.52,3.52,0,0,0-3.14-1.49,3.6,3.6,0,0,0-3.2,1.49,10.73,10.73,0,0,0,0,9.13A3.59,3.59,0,0,0,117,157.35Z"/><path class="cls-3" d="M160.58,141l-6.41,20.64h-5a1.05,1.05,0,0,1-.68-.23,1.63,1.63,0,0,1-.43-.8l-2.95-10.3c-.15-.46-.28-.92-.39-1.37s-.22-.91-.31-1.37c-.09.46-.19.93-.31,1.39s-.24.93-.39,1.39l-3,10.26a1.27,1.27,0,0,1-1.32,1h-4.77L128.2,141h4.94a1.89,1.89,0,0,1,1.11.31,1.47,1.47,0,0,1,.6.76l2.07,9.26c.18.7.33,1.38.46,2s.25,1.32.36,2c.17-.66.36-1.32.55-2s.4-1.34.63-2L141.5,142a1.57,1.57,0,0,1,.6-.76,1.73,1.73,0,0,1,1-.31h2.74a1.89,1.89,0,0,1,1.11.31,1.54,1.54,0,0,1,.61.76l2.47,9.28c.19.7.39,1.39.58,2s.37,1.34.53,2c.11-.66.23-1.33.38-2s.31-1.35.5-2.07l2.19-9.26a1.5,1.5,0,0,1,.59-.76,1.75,1.75,0,0,1,1-.31Z"/><path class="cls-3" d="M98.68,172.07H90.51v23.68H83.78V172.07H75.62v-5.33H98.68Z"/><path class="cls-3" d="M106.16,174.78a11.9,11.9,0,0,1,4.28.74,9.29,9.29,0,0,1,3.32,2.11,9.52,9.52,0,0,1,2.15,3.33,12.07,12.07,0,0,1,.77,4.41,12.25,12.25,0,0,1-.77,4.45,9.69,9.69,0,0,1-2.15,3.37,9.48,9.48,0,0,1-3.32,2.13,11.69,11.69,0,0,1-4.28.74,11.89,11.89,0,0,1-4.31-.74,9.65,9.65,0,0,1-3.34-2.13,9.46,9.46,0,0,1-2.17-3.37,12.25,12.25,0,0,1-.77-4.45,12.07,12.07,0,0,1,.77-4.41,9.29,9.29,0,0,1,2.17-3.33,9.46,9.46,0,0,1,3.34-2.11A12.11,12.11,0,0,1,106.16,174.78Zm0,16.71A3.52,3.52,0,0,0,109.3,190a10.92,10.92,0,0,0,0-9.13,3.53,3.53,0,0,0-3.14-1.49,3.59,3.59,0,0,0-3.2,1.49,10.73,10.73,0,0,0,0,9.13A3.58,3.58,0,0,0,106.16,191.49Z"/><rect class="cls-9" x="14.29" y="91.56" width="62.58" height="36.03" rx="2.84"/><path class="cls-3" d="M74,94.4v30.34H17.13V94.4H74m0-5.69H17.13a5.69,5.69,0,0,0-5.69,5.69v30.34a5.69,5.69,0,0,0,5.69,5.69H74a5.69,5.69,0,0,0,5.69-5.69V94.4A5.69,5.69,0,0,0,74,88.71Z"/><path class="cls-10" d="M32.8,102.58a8.47,8.47,0,0,1,2.63.37,4.92,4.92,0,0,1,1.81,1,3.72,3.72,0,0,1,1,1.5,5,5,0,0,1,.34,1.87,5.6,5.6,0,0,1-.35,2,4.05,4.05,0,0,1-1.06,1.55,5.07,5.07,0,0,1-1.82,1,8.37,8.37,0,0,1-2.6.36H31v4.85H27.68V102.58Zm0,7.12a2.12,2.12,0,0,0,2.46-2.38,2.83,2.83,0,0,0-.14-.9,1.86,1.86,0,0,0-.46-.7,2.06,2.06,0,0,0-.76-.46,3.6,3.6,0,0,0-1.1-.16H31v4.6Z"/><path class="cls-10" d="M53.5,109.83a7.6,7.6,0,0,1-.54,2.9,6.62,6.62,0,0,1-1.53,2.3,6.94,6.94,0,0,1-2.37,1.52,8.48,8.48,0,0,1-3.08.54H40.34V102.58H46a8.48,8.48,0,0,1,3.08.55,7.09,7.09,0,0,1,2.37,1.52A6.58,6.58,0,0,1,53,106.94,7.62,7.62,0,0,1,53.5,109.83Zm-3.44,0a6.23,6.23,0,0,0-.28-1.94,4.16,4.16,0,0,0-.8-1.47,3.47,3.47,0,0,0-1.28-.92,4.29,4.29,0,0,0-1.72-.33H43.73v9.33H46a4.47,4.47,0,0,0,1.72-.32,3.61,3.61,0,0,0,1.28-.93,4.16,4.16,0,0,0,.8-1.47A6.16,6.16,0,0,0,50.06,109.83Z"/><path class="cls-10" d="M58.88,105.17v3.68h4.95v2.6H58.88v5.64H55.49V102.58h9.34v2.59Z"/><path class="cls-3" d="M146.55,75.06a1.83,1.83,0,0,1-.9-.23,8.25,8.25,0,0,0-6.74,0,1.89,1.89,0,1,1-1.79-3.34,12,12,0,0,1,10.32,0,1.9,1.9,0,0,1-.89,3.57Z"/><circle class="cls-3" cx="142.28" cy="64.87" r="7.58"/><circle class="cls-10" cx="144.18" cy="64.87" r="1.9"/><path class="cls-3" d="M136.73,49.4a8.81,8.81,0,0,1,1.84-1.25,11,11,0,0,1,2-.81,11.07,11.07,0,0,1,5.67-.2c.39.11.77.24,1.15.36a10.81,10.81,0,0,1,1.09.51,5.1,5.1,0,0,1,1,.63,8.45,8.45,0,0,1,2.88,3.51,1.94,1.94,0,0,1-.95,2.56,2,2,0,0,1-1.66,0l-.36-.19a22.82,22.82,0,0,0-2.6-1.28,9.9,9.9,0,0,0-2.46-.64,15.5,15.5,0,0,0-2.77-.11c-.5,0-1,.06-1.53.12s-1.09.14-1.53.14h-.59a1.89,1.89,0,0,1-1.88-1.9A1.86,1.86,0,0,1,136.73,49.4Z"/><path class="cls-3" d="M114.31,75.06a1.85,1.85,0,0,1-.9-.23,8.25,8.25,0,0,0-6.74,0,1.89,1.89,0,0,1-1.79-3.34,12.06,12.06,0,0,1,10.33,0,1.9,1.9,0,0,1-.9,3.57Z"/><circle class="cls-3" cx="110.04" cy="64.87" r="7.58"/><circle class="cls-10" cx="111.94" cy="64.87" r="1.9"/><path class="cls-3" d="M113.8,52.73c-.44,0-1-.11-1.54-.14s-1-.08-1.52-.12a15.65,15.65,0,0,0-2.78.11,9.83,9.83,0,0,0-2.45.64,22.82,22.82,0,0,0-2.6,1.28l-.36.18a1.93,1.93,0,0,1-2.59-.87,2,2,0,0,1,0-1.66,8.38,8.38,0,0,1,2.88-3.51,5,5,0,0,1,1-.63,11.94,11.94,0,0,1,1.09-.51c.38-.12.76-.25,1.15-.36s.78-.14,1.17-.2a11.23,11.23,0,0,1,4.5.4,10.69,10.69,0,0,1,2,.81,9.13,9.13,0,0,1,1.85,1.25,1.88,1.88,0,0,1,.21,2.66,1.85,1.85,0,0,1-1.42.67Z"/><g class="cls-4"><circle class="cls-3" cx="87.29" cy="72.12" r="2.37"/></g><g class="cls-4"><circle class="cls-3" cx="92.5" cy="82.55" r="2.37"/></g><g class="cls-4"><circle class="cls-3" cx="82.08" cy="82.55" r="2.37"/></g><g class="cls-4"><circle class="cls-3" cx="165.04" cy="72.12" r="2.37"/></g><g class="cls-4"><circle class="cls-3" cx="170.25" cy="82.55" r="2.37"/></g><g class="cls-4"><circle class="cls-3" cx="159.82" cy="82.55" r="2.37"/></g><g class="cls-5"><circle class="cls-3" cx="87.29" cy="72.12" r="2.37"/></g><g class="cls-5"><circle class="cls-3" cx="92.5" cy="82.55" r="2.37"/></g><g class="cls-5"><circle class="cls-3" cx="82.08" cy="82.55" r="2.37"/></g><g class="cls-5"><circle class="cls-3" cx="165.04" cy="72.12" r="2.37"/></g><g class="cls-5"><circle class="cls-3" cx="170.25" cy="82.55" r="2.37"/></g><g class="cls-5"><circle class="cls-3" cx="159.82" cy="82.55" r="2.37"/></g><path class="cls-3" d="M126.16,102.46A19.46,19.46,0,0,1,106.73,83a2.37,2.37,0,0,1,2.37-2.37h34.13A2.37,2.37,0,0,1,145.6,83,19.46,19.46,0,0,1,126.16,102.46Z"/><path class="cls-3" d="M143.23,83h0m0,0a17.07,17.07,0,1,1-34.13,0h34.13m0-4.74H109.1A4.74,4.74,0,0,0,104.36,83a21.81,21.81,0,0,0,43.61.17V83a4.74,4.74,0,0,0-4.74-4.74Zm0,9.48Z"/><ellipse class="cls-9" cx="126.16" cy="94.4" rx="12.69" ry="5.69"/></g></g></svg>