<?xml version="1.0" encoding="utf-8"?>
<!-- Generator: Adobe Illustrator 25.0.0, SVG Export Plug-In . SVG Version: 6.00 Build 0)  -->
<svg version="1.1" id="Layer_1" xmlns="http://www.w3.org/2000/svg" xmlns:xlink="http://www.w3.org/1999/xlink" x="0px" y="0px"
	 viewBox="0 0 496.9 250" style="enable-background:new 0 0 496.9 250;" xml:space="preserve">
<style type="text/css">
	.st0{fill:#656D78;}
	.st1{fill:#F4F6F8;}
	.st2{fill:#E4E8EB;}
	.st3{fill:#F16C7A;}
	.st4{fill:#3A312A;}
	.st5{fill:#D7E057;}
	.st6{fill:#8AC6DD;}
	.st7{fill:#FDF6EC;stroke:#35414D;stroke-width:2.3061;stroke-miterlimit:10;}
	.st8{fill:#35414D;}
	.st9{fill:#B3A4EE;}
	.st10{fill:#AC92EA;}
	.st11{fill:#FBD277;}
	.st12{fill:#B4DF80;}
	.st13{fill:#9ED26A;}
	.st14{fill:#FDCD56;}
	.st15{fill:#434A54;}
	.st16{fill:#FFA733;}
	.st17{fill:#FF5A5A;}
	.st18{fill:#D6DF58;}
	.st19{fill:#EFD299;}
	.st20{fill:#DEC089;}
	.st21{fill:#ECECEC;}
	.st22{fill:#FFDC7C;}
	.st23{fill:#EAC05C;}
	.st24{fill:#FF5D5D;}
	.st25{fill:#87796F;}
	.st26{fill:#C1A897;}
	.st27{fill:#FFFFFF;}
	.st28{fill:#FFF2E8;}
	.st29{fill:#EF6D7A;}
	.st30{fill:#8AC5DC;}
	.st31{fill:#FDF6EC;stroke:#35414D;stroke-width:2.8428;stroke-miterlimit:10;}
	.st32{fill:none;}
	.st33{fill:#07BEEF;}
	.st34{fill:#FC635B;}
	.st35{fill:#7EC927;}
	.st36{fill:#00B6E0;}
	.st37{fill:#F34234;}
	.st38{fill:#60A917;}
	.st39{fill:#FF9801;}
	.st40{fill:#5D6D7E;}
	.st41{fill:#FF8E31;}
	.st42{fill:#FECE59;}
	.st43{fill:#34495E;}
	.st44{opacity:0.3;fill:#34495E;}
	.st45{opacity:0.2;fill:#FFFFFF;}
	.st46{fill-rule:evenodd;clip-rule:evenodd;fill:#FFB54C;}
	.st47{fill-rule:evenodd;clip-rule:evenodd;fill:#35414D;}
	.st48{fill-rule:evenodd;clip-rule:evenodd;fill:#FFA733;}
	.st49{fill-rule:evenodd;clip-rule:evenodd;fill:#2FB1D4;}
	.st50{fill-rule:evenodd;clip-rule:evenodd;fill:#FF5A5A;}
</style>
<g>
	<g>
		<polygon class="st0" points="244.9,22.1 244.2,22.1 244.2,38.6 85.9,38.6 85.9,20.2 83.9,17.6 84.9,7.3 90,3.9 100.2,5.5 
			227.7,5.5 227.7,3.9 244.2,5.5 		"/>
		<path class="st1" d="M244.2,38.6v136.9c0,9.5-6.4,17.2-14.2,17.2H100.2c-10.2,3.4-19.5,0-14.3-17.2l0,0V38.6L244.2,38.6z"/>
		<path class="st2" d="M244.2,38.6v136.9c0.7,9.1,5.4,20.4-14.2,17.2H100.2c-17.2,2.1-17.2-6.5-15.4-13.3c1.1,0.3,3.6,0.4,4.7,0.4
			h16.2c66.4,0,121.8-61.4,127.3-141.2L244.2,38.6z"/>
		<g>
			<g>
				<circle class="st3" cx="106.1" cy="22.1" r="5.7"/>
				<path class="st4" d="M106.1,29.1c-3.8,0-7-3.1-7-7s3.1-7,7-7s7,3.1,7,7S109.9,29.1,106.1,29.1z M106.1,17.6
					c-2.4,0-4.4,2-4.4,4.4s2,4.4,4.4,4.4s4.4-2,4.4-4.4C110.5,19.6,108.5,17.6,106.1,17.6z"/>
			</g>
			<g>
				<circle class="st5" cx="123.8" cy="22.1" r="5.7"/>
				<path class="st4" d="M123.8,29.1c-3.8,0-7-3.1-7-7s3.1-7,7-7s7,3.1,7,7S127.7,29.1,123.8,29.1z M123.8,17.6
					c-2.4,0-4.4,2-4.4,4.4s2,4.4,4.4,4.4c2.4,0,4.4-2,4.4-4.4C128.3,19.6,126.3,17.6,123.8,17.6z"/>
			</g>
			<g>
				<circle class="st6" cx="141.6" cy="22.1" r="5.7"/>
				<path class="st4" d="M141.6,29.1c-3.8,0-7-3.1-7-7s3.1-7,7-7c3.8,0,7,3.1,7,7S145.4,29.1,141.6,29.1z M141.6,17.6
					c-2.4,0-4.4,2-4.4,4.4s2,4.4,4.4,4.4s4.4-2,4.4-4.4C146,19.6,144,17.6,141.6,17.6z"/>
			</g>
			<path class="st7" d="M226.3,26.9H172c-2.6,0-4.8-2.2-4.8-4.8v0c0-2.6,2.2-4.8,4.8-4.8h54.4c2.6,0,4.8,2.2,4.8,4.8v0
				C231.1,24.7,228.9,26.9,226.3,26.9z"/>
		</g>
		<path class="st8" d="M232.4,5.5c6.5,0,11.8,5.3,11.8,11.8V181c0,6.5-5.3,11.8-11.8,11.8H97.8c-6.5,0-11.8-5.3-11.8-11.8V17.3
			c0-6.5,5.3-11.8,11.8-11.8H232.4 M232.4,0H97.8c-9.5,0-17.3,7.8-17.3,17.3V181c0,9.5,7.8,17.3,17.3,17.3h134.7
			c9.5,0,17.3-7.8,17.3-17.3V17.3C249.7,7.8,242,0,232.4,0L232.4,0z"/>
		<g>
			<g>
				<path class="st9" d="M98.4,144.6h38.5v10.6H98.4V144.6z"/>
				<path class="st10" d="M136.8,144.6v10.6H98.3v-3.3h4.8c11.1,0,20.9-3,24.4-7.3L136.8,144.6z"/>
				<path class="st11" d="M145.1,144.6h38.5v10.6h-38.5V144.6z"/>
				<path class="st12" d="M191.8,144.6h38.5v10.6h-38.5V144.6z"/>
				<path class="st13" d="M230.3,144.6v10.6h-38.5v-3.3h4.8c11.1,0,20.9-3,24.4-7.3L230.3,144.6z"/>
				<path class="st14" d="M183.6,144.6v10.6h-38.5v-3.3h4.8c11.1,0,21-2.9,24.4-7.3L183.6,144.6z"/>
			</g>
			<g>
				<path class="st15" d="M136.8,169.6h-24.7c-0.9,0-1.7-0.9-1.7-2s0.7-2,1.7-2h24.7c0.9,0,1.7,0.9,1.7,2S137.8,169.6,136.8,169.6z"
					/>
				<path class="st16" d="M105.5,169.6h-7.2c-0.9,0-1.7-0.9-1.7-2s0.7-2,1.7-2h7.2c0.9,0,1.7,0.9,1.7,2S106.4,169.6,105.5,169.6z"/>
				<path class="st15" d="M136.8,182.2H98.4c-0.9,0-1.7-0.9-1.7-2s0.7-2,1.7-2h38.5c0.9,0,1.7,0.9,1.7,2S137.8,182.2,136.8,182.2z"
					/>
				<path class="st15" d="M183.6,169.6h-24.7c-0.9,0-1.7-0.9-1.7-2s0.7-2,1.7-2h24.7c0.9,0,1.7,0.9,1.7,2S184.5,169.6,183.6,169.6z"
					/>
				<path class="st17" d="M152.3,169.6h-7.2c-0.9,0-1.7-0.9-1.7-2s0.7-2,1.7-2h7.2c0.9,0,1.7,0.9,1.7,2S153.2,169.6,152.3,169.6z"/>
				<path class="st15" d="M183.6,182.2h-38.5c-0.9,0-1.7-0.9-1.7-2s0.7-2,1.7-2h38.5c0.9,0,1.7,0.9,1.7,2S184.5,182.2,183.6,182.2z"
					/>
				<path class="st15" d="M230.3,169.6h-24.7c-0.9,0-1.7-0.9-1.7-2s0.7-2,1.7-2h24.7c0.9,0,1.7,0.9,1.7,2S231.2,169.6,230.3,169.6z"
					/>
				<path class="st18" d="M199,169.6h-7.2c-0.9,0-1.7-0.9-1.7-2s0.7-2,1.7-2h7.2c0.9,0,1.7,0.9,1.7,2S199.9,169.6,199,169.6z"/>
				<path class="st15" d="M230.3,182.2h-38.5c-0.9,0-1.7-0.9-1.7-2s0.7-2,1.7-2h38.5c0.9,0,1.7,0.9,1.7,2S231.2,182.2,230.3,182.2z"
					/>
			</g>
			<g>
				<g>
					<path class="st8" d="M227.5,78.5H101.2c-1.4,0-2.5-1.1-2.5-2.5s1.1-2.5,2.5-2.5h126.2c1.4,0,2.5,1.1,2.5,2.5
						S228.8,78.5,227.5,78.5L227.5,78.5z"/>
					<path class="st8" d="M202.1,87.9H101.2c-1.4,0-2.5-1.1-2.5-2.5c0-1.4,1.1-2.5,2.5-2.5h100.8c1.4,0,2.5,1.1,2.5,2.5
						C204.6,86.8,203.4,87.9,202.1,87.9z"/>
					<path class="st8" d="M227.5,103.2H101.2c-1.4,0-2.5-1.1-2.5-2.5c0-1.4,1.1-2.5,2.5-2.5h126.2c1.4,0,2.5,1.1,2.5,2.5
						S228.8,103.2,227.5,103.2L227.5,103.2z"/>
					<path class="st8" d="M215.6,112.6H101.2c-1.4,0-2.5-1.1-2.5-2.5c0-1.4,1.1-2.5,2.5-2.5h114.3c1.4,0,2.5,1.1,2.5,2.5
						C218.1,111.5,216.9,112.6,215.6,112.6z"/>
					<path class="st8" d="M227.5,127.9H101.2c-1.4,0-2.5-1.1-2.5-2.5c0-1.4,1.1-2.5,2.5-2.5h126.2c1.4,0,2.5,1.1,2.5,2.5
						C230,126.7,228.8,127.9,227.5,127.9L227.5,127.9z"/>
					<path class="st8" d="M190.3,137.3h-89.1c-1.4,0-2.5-1.1-2.5-2.5s1.1-2.5,2.5-2.5h89.1c1.4,0,2.5,1.1,2.5,2.5
						S191.7,137.3,190.3,137.3z"/>
				</g>
				<path class="st8" d="M227.5,63.6H101.2c-1.4,0-2.5-1.1-2.5-2.5V50.5c0-1.4,1.1-2.5,2.5-2.5h126.2c1.4,0,2.5,1.1,2.5,2.5v10.6
					C230,62.5,228.8,63.6,227.5,63.6z M103.7,58.6h121.2V53H103.7V58.6z"/>
			</g>
		</g>
	</g>
	<g>
		<path class="st8" d="M63.9,174.8c0-2.6-1.3-5.1-3.3-6.6c0.5-0.9,0.8-2,0.8-3.1c0-3.7-3.1-6.7-7-6.7h0v0c0-2.9-2.3-5.2-5.2-5.2
			c-0.6,0-1.3,0.1-1.8,0.3c-0.2-0.8-0.6-1.6-1.2-2.1c-0.8-0.8-1.9-1.2-3-1.2c-2.3,0-4.3,1.9-4.3,4.3v25.2h-3.5v-25.3
			c0-2.3-1.9-4.3-4.3-4.3c-1.1,0-2.2,0.4-3,1.2c-0.6,0.6-1,1.3-1.2,2.1c-0.6-0.2-1.2-0.3-1.8-0.3c-2.9,0-5.2,2.3-5.2,5.2v0h0
			c-3.8,0-7,3-7,6.7c0,1.1,0.3,2.1,0.8,3.1c-2,1.6-3.3,4-3.3,6.6c0,2.1,0.7,4,2,5.4c-0.2,0.3-0.3,0.6-0.2,1c0.7,5.1,2.7,10,5.5,13.4
			c4.7,5.8,7,9.7,7.2,15.9c-0.4,0.2-0.7,0.7-0.7,1.2v9c0,1.7,1.3,3.2,3,3.4c0.8,3,3.9,5.2,7.7,5.2h4.6c3.8,0,7-2.2,7.7-5.2
			c1.7-0.2,3-1.7,3-3.4v-3.4c0,0,0,0,0,0v-5.5c0-0.5-0.3-0.9-0.7-1.2c0.1-6.2,2.4-10.1,7.2-15.9c2.7-3.4,4.7-8.2,5.5-13.4
			c0-0.3-0.1-0.7-0.2-1C63.1,178.8,63.9,176.9,63.9,174.8L63.9,174.8z M13.1,174.8c0-1.8,0.9-3.5,2.4-4.5c0.5,0.4,1.3,0.8,2.3,1.3
			c0.2,0.1,0.4,0.1,0.6,0.1c0.5,0,1-0.3,1.3-0.8c0.3-0.7,0-1.5-0.7-1.8c-1.6-0.7-2.2-1.4-2.3-1.4c-0.6-0.7-1-1.6-1-2.6
			c0-2.2,1.9-4,4.2-4c0.5,0,1,0.1,1.4,0.2c0.5,0.2,1.1,0,1.5-0.4c0.4-0.4,0.5-1,0.2-1.5c-0.2-0.4-0.3-0.7-0.3-1.1
			c0-1.3,1.1-2.4,2.4-2.4c0.8,0,1.5,0.4,2,1c0.3,0.5,1,0.7,1.6,0.5c0.6-0.2,1-0.7,1-1.3v-1.8c0-0.4,0.2-0.8,0.4-1.1
			c0.3-0.3,0.7-0.4,1.1-0.4c0.8,0,1.5,0.7,1.5,1.5v4c-1,0.3-2.5,1.1-3.4,2.6c-0.4,0.7-0.2,1.5,0.5,1.9c0.2,0.1,0.5,0.2,0.7,0.2
			c0.5,0,0.9-0.2,1.2-0.7c0.2-0.4,0.6-0.8,1-1v7.6c-1.5,0.3-3.8,1.1-5.4,4c-0.4,0.7-0.1,1.5,0.5,1.9c0.2,0.1,0.4,0.2,0.7,0.2
			c0.5,0,1-0.2,1.2-0.7c0.9-1.6,2.1-2.2,3-2.5v7.7H19c0.2-0.2,0.5-0.4,0.8-0.6c0.6-0.5,0.7-1.3,0.3-1.9c-0.5-0.6-1.3-0.7-1.9-0.3
			c-1.3,1-2.2,1.8-2.7,2.4C13.9,178.2,13.1,176.6,13.1,174.8L13.1,174.8z M39.4,226.4h-4.6c-2.1,0-4-1-4.8-2.4h14.1
			C43.4,225.4,41.5,226.4,39.4,226.4z M47.4,220.6c0,0.4-0.3,0.7-0.7,0.7h-19c-0.4,0-0.7-0.3-0.7-0.7v-2h20.5L47.4,220.6L47.4,220.6
			z M47.4,215.8H26.9V213h20.5L47.4,215.8L47.4,215.8z M54.5,192.8c-4.3,5.2-7.6,9.9-7.8,17.4H27.5c-0.2-7.5-3.5-12.2-7.8-17.4
			c-2.1-2.6-3.8-6.4-4.6-10.4h43.9C58.2,186.4,56.6,190.2,54.5,192.8L54.5,192.8z M58.9,179.2c-0.6-0.6-1.4-1.4-2.7-2.4
			c-0.6-0.5-1.5-0.3-1.9,0.3c-0.5,0.6-0.3,1.5,0.3,1.9c0.3,0.2,0.5,0.4,0.8,0.6H41.6v-7.8c0.9,0.3,2.1,0.9,3,2.5
			c0.2,0.5,0.7,0.7,1.2,0.7c0.2,0,0.5-0.1,0.7-0.2c0.7-0.4,0.9-1.2,0.6-1.9c-1.6-2.8-3.9-3.7-5.4-4v-7.6c0.4,0.2,0.7,0.5,1,1
			c0.3,0.4,0.7,0.7,1.2,0.7c0.2,0,0.5-0.1,0.7-0.2c0.7-0.4,0.9-1.2,0.5-1.9c-0.9-1.6-2.3-2.3-3.4-2.6v-4c0-0.8,0.7-1.5,1.5-1.5
			c0.5,0,0.9,0.2,1.1,0.4c0.3,0.3,0.4,0.7,0.4,1.1v1.7c0,0.6,0.4,1.1,1,1.3c0.6,0.2,1.2,0,1.6-0.5c0.5-0.7,1.2-1,2-1
			c1.3,0,2.4,1.1,2.4,2.4c0,0.4-0.1,0.8-0.3,1.1c-0.2,0.5-0.1,1.1,0.2,1.5s1,0.6,1.5,0.4c0.4-0.2,0.8-0.2,1.3-0.2
			c2.3,0,4.2,1.8,4.2,4c0,1-0.4,1.9-1,2.6c-0.1,0.1-0.8,0.7-2.3,1.4c-0.7,0.3-1,1.1-0.7,1.8c0.2,0.5,0.7,0.8,1.3,0.8
			c0.2,0,0.4,0,0.6-0.1c1.1-0.5,1.8-0.9,2.3-1.3c1.5,1,2.4,2.7,2.4,4.5C61.1,176.6,60.3,178.2,58.9,179.2L58.9,179.2z"/>
		<path class="st19" d="M32.6,158.4v-4.1c0-0.8-0.7-1.5-1.5-1.5c-0.4,0-0.8,0.2-1.1,0.4c-0.3,0.3-0.4,0.7-0.4,1.1v1.7
			c0,0.6-0.4,1.1-1,1.3c-0.6,0.2-1.2,0-1.6-0.5c-0.5-0.7-1.2-1-2-1c-1.3,0-2.4,1.1-2.4,2.4c0,0.4,0.1,0.7,0.3,1.1
			c0.2,0.5,0.1,1.1-0.2,1.5c-0.4,0.4-1,0.6-1.5,0.4c-0.4-0.2-0.9-0.2-1.4-0.2c-2.3,0-4.2,1.8-4.2,4c0,1,0.4,1.9,1,2.6
			c0,0.1,0.7,0.7,2.3,1.4c0.7,0.3,1,1.1,0.7,1.8c-0.2,0.5-0.7,0.8-1.3,0.8c-0.2,0-0.4,0-0.6-0.1c-1.1-0.5-1.8-0.9-2.3-1.3
			c-1.5,1-2.4,2.7-2.4,4.5c0,1.8,0.8,3.4,2.2,4.4c0.6-0.6,1.4-1.4,2.7-2.4c0.6-0.5,1.5-0.3,1.9,0.3c0.5,0.6,0.3,1.5-0.3,1.9
			c-0.3,0.2-0.5,0.4-0.8,0.6h13.7v-7.7c-0.9,0.3-2.1,0.9-3,2.5c-0.2,0.5-0.7,0.7-1.2,0.7c-0.2,0-0.5-0.1-0.7-0.2
			c-0.7-0.4-0.9-1.2-0.5-1.9c1.6-2.9,3.9-3.7,5.4-4v-7.6c-0.4,0.2-0.7,0.5-1,1s-0.7,0.7-1.2,0.7c-0.2,0-0.5-0.1-0.7-0.2
			c-0.7-0.4-0.9-1.2-0.5-1.9C30.1,159.5,31.6,158.8,32.6,158.4L32.6,158.4z M29.1,165.8c0,0.8-0.6,1.4-1.4,1.4c0,0,0,0,0,0
			c-0.1,0-3.4,0-4,2.1c-0.2,0.6-0.7,1-1.3,1c-0.1,0-0.3,0-0.4-0.1c-0.7-0.2-1.1-1-0.9-1.7c1.2-4.1,6.5-4.1,6.7-4.1
			C28.5,164.4,29.1,165,29.1,165.8L29.1,165.8z"/>
		<path class="st19" d="M58.7,170.3c-0.5,0.4-1.3,0.8-2.3,1.3c-0.2,0.1-0.4,0.1-0.6,0.1c-0.5,0-1-0.3-1.3-0.8
			c-0.3-0.7,0-1.5,0.7-1.8c1.5-0.7,2.2-1.3,2.3-1.4c0.6-0.7,1-1.6,1-2.6c0-2.2-1.9-4-4.2-4c-0.5,0-0.9,0.1-1.3,0.2
			c-0.5,0.2-1.1,0-1.5-0.4c-0.4-0.4-0.5-1-0.2-1.5c0.2-0.3,0.3-0.7,0.3-1.1c0-1.3-1.1-2.4-2.4-2.4c-0.8,0-1.5,0.4-2,1
			c-0.3,0.5-1,0.7-1.6,0.5c-0.6-0.2-1-0.7-1-1.3v-1.8c0-0.4-0.2-0.8-0.4-1.1c-0.2-0.2-0.6-0.4-1.1-0.4c-0.8,0-1.5,0.7-1.5,1.5v4
			c1,0.3,2.5,1.1,3.4,2.6c0.4,0.7,0.2,1.5-0.5,1.9c-0.2,0.1-0.5,0.2-0.7,0.2c-0.5,0-0.9-0.2-1.2-0.7c-0.2-0.4-0.6-0.7-1-1v7.6
			c1.5,0.3,3.8,1.2,5.4,4c0.4,0.7,0.1,1.5-0.6,1.9c-0.2,0.1-0.4,0.2-0.7,0.2c-0.5,0-1-0.2-1.2-0.7c-0.9-1.6-2.1-2.2-3-2.5v7.8h13.7
			c-0.2-0.2-0.5-0.4-0.8-0.6c-0.6-0.5-0.7-1.3-0.3-1.9c0.5-0.6,1.3-0.7,1.9-0.3c1.3,1,2.2,1.8,2.7,2.4c1.4-1,2.2-2.6,2.2-4.4
			C61.1,173,60.2,171.3,58.7,170.3L58.7,170.3z M52.3,170.2c-0.1,0-0.3,0.1-0.4,0.1c-0.6,0-1.1-0.4-1.3-1c-0.3-1-1.3-1.6-2.2-1.8
			c-0.9-0.3-1.8-0.3-1.8-0.3c-0.8,0-1.4-0.6-1.4-1.4c0-0.8,0.6-1.4,1.4-1.4c0.2,0,5.5,0,6.7,4.1C53.4,169.2,53,169.9,52.3,170.2z"/>
		<path class="st20" d="M21.9,179c-0.3,0.2-0.5,0.4-0.8,0.6h-2.2c0.2-0.2,0.5-0.4,0.8-0.6c0.6-0.5,0.7-1.3,0.3-1.9c0,0,0,0,0,0
			c0.1-0.1,0.2-0.2,0.3-0.2c0.6-0.5,1.5-0.3,1.9,0.3C22.6,177.7,22.5,178.5,21.9,179L21.9,179z"/>
		<path class="st20" d="M32.2,153.4c-0.3,0.3-0.4,0.6-0.4,1v1.7c0,0.6-0.4,1.1-1,1.3c-0.6,0.2-1.2,0-1.5-0.5
			c0.2-0.2,0.3-0.5,0.3-0.8v-1.8c0-0.4,0.2-0.8,0.4-1.1c0.3-0.3,0.7-0.4,1.1-0.4C31.5,152.9,31.9,153.1,32.2,153.4z"/>
		<path class="st20" d="M24.8,158.3c0,0.4,0.1,0.7,0.3,1.1c0.2,0.5,0.1,1.1-0.2,1.5s-1,0.6-1.5,0.4c-0.3-0.1-0.6-0.2-0.9-0.2
			c0.1-0.1,0.2-0.1,0.2-0.2c0.4-0.4,0.5-1,0.2-1.5c-0.2-0.4-0.3-0.7-0.3-1.1c0-1.3,1.1-2.4,2.4-2.4c0.4,0,0.8,0.1,1.1,0.3
			C25.4,156.6,24.8,157.4,24.8,158.3L24.8,158.3z"/>
		<path class="st20" d="M21.9,170.1c0,0.2,0,0.5-0.1,0.7c-0.2,0.5-0.7,0.8-1.3,0.8c-0.2,0-0.4,0-0.6-0.1c-0.2-0.1-0.5-0.2-0.7-0.3
			c0.1-0.1,0.2-0.2,0.3-0.4c0.3-0.7,0-1.5-0.7-1.8c-1.6-0.7-2.2-1.4-2.3-1.4c-0.6-0.7-1-1.6-1-2.6c0-2.2,1.9-4,4.2-4
			c0.4,0,0.8,0,1.1,0.1c-1.8,0.5-3.1,2-3.1,3.9c0,1,0.4,1.9,1,2.6c0,0.1,0.7,0.7,2.1,1.3C21,169.5,21.4,170,21.9,170.1L21.9,170.1z"
			/>
		<path class="st20" d="M15.3,174.8c0,1.2,0.4,2.4,1.1,3.3c-0.5,0.4-0.8,0.8-1.1,1.1c-1.4-1-2.2-2.6-2.2-4.4c0-1.8,0.9-3.5,2.4-4.5
			c0.3,0.2,0.8,0.5,1.3,0.8C15.8,172.1,15.3,173.4,15.3,174.8L15.3,174.8z"/>
		<path class="st20" d="M55.3,179.6h-2.2c-0.2-0.2-0.5-0.4-0.8-0.6c-0.6-0.5-0.7-1.3-0.3-1.9c0.5-0.6,1.3-0.7,1.9-0.3
			c0.1,0.1,0.2,0.2,0.3,0.2c0,0,0,0,0,0c-0.5,0.6-0.3,1.5,0.3,1.9C54.8,179.2,55,179.4,55.3,179.6z"/>
		<path class="st20" d="M61.1,174.8c0,1.8-0.8,3.4-2.2,4.4c-0.3-0.3-0.6-0.7-1.1-1.1c0.7-0.9,1.1-2.1,1.1-3.3c0-1.4-0.5-2.7-1.5-3.7
			c0.5-0.3,1-0.6,1.3-0.8C60.2,171.3,61.1,173,61.1,174.8z"/>
		<path class="st20" d="M44.9,157c-0.4,0.5-1,0.7-1.5,0.5c-0.6-0.2-1-0.7-1-1.3v-1.8c0-0.4-0.1-0.7-0.4-1c0.3-0.3,0.7-0.5,1.1-0.5
			c0.5,0,0.9,0.2,1.1,0.4c0.3,0.3,0.4,0.7,0.4,1.1v1.7C44.6,156.5,44.7,156.7,44.9,157L44.9,157z"/>
		<path class="st20" d="M51.7,161.1c-0.3,0-0.6,0.1-0.9,0.2c-0.5,0.2-1.1,0-1.5-0.4c-0.4-0.4-0.5-1-0.2-1.5c0.2-0.3,0.3-0.7,0.3-1.1
			c0-1-0.6-1.8-1.4-2.2c0.3-0.2,0.7-0.3,1.1-0.3c1.3,0,2.4,1.1,2.4,2.4c0,0.4-0.1,0.8-0.3,1.1c-0.2,0.5-0.1,1.1,0.2,1.5
			C51.6,161,51.7,161.1,51.7,161.1z"/>
		<path class="st20" d="M58.6,165.1c0,1-0.4,1.9-1,2.6c-0.1,0.1-0.8,0.7-2.3,1.4c-0.7,0.3-1,1.1-0.7,1.8c0.1,0.2,0.2,0.3,0.3,0.4
			c-0.2,0.1-0.4,0.2-0.7,0.3c-0.2,0.1-0.4,0.1-0.6,0.1c-0.5,0-1-0.3-1.3-0.8c-0.1-0.2-0.1-0.5-0.1-0.7c0.5-0.2,0.9-0.6,1-1.1
			c1.4-0.7,2.1-1.3,2.1-1.3c0.6-0.7,1-1.6,1-2.6c0-1.8-1.3-3.4-3.1-3.9c0.3-0.1,0.7-0.1,1.1-0.1C56.7,161.1,58.6,162.9,58.6,165.1
			L58.6,165.1z"/>
		<path class="st17" d="M44.2,224.1c-0.8,1.4-2.6,2.4-4.8,2.4h-4.6c-2.1,0-4-1-4.8-2.4H44.2z"/>
		<path class="st21" d="M26.9,213h20.5v2.8H26.9V213z"/>
		<path class="st21" d="M47.4,218.5v2c0,0.4-0.3,0.7-0.7,0.7h-19c-0.4,0-0.7-0.3-0.7-0.7v-2H47.4z"/>
		<path class="st22" d="M59.1,182.4c-0.8,4-2.5,7.8-4.6,10.4c-4.3,5.2-7.6,9.9-7.8,17.4H27.5c-0.2-7.5-3.5-12.2-7.8-17.4
			c-2.1-2.6-3.8-6.4-4.6-10.4H59.1z"/>
		<path class="st23" d="M59.1,182.4c-0.8,4-2.5,7.8-4.6,10.4c-4.3,5.2-7.6,9.9-7.8,17.4H27.5c-0.2-7.5-3.5-12.2-7.8-17.4
			c-2.1-2.6-3.8-6.4-4.6-10.4h3.2c1.1,3.5,2.5,6.9,4.3,9.1c3.6,4.6,6.3,8.7,6.5,15.3h16c0.2-6.6,2.9-10.7,6.5-15.3
			c1.8-2.3,3.1-5.6,4.3-9.1H59.1z"/>
		<g>
			<path class="st8" d="M52.3,170.2c-0.1,0-0.3,0.1-0.4,0.1c-0.6,0-1.1-0.4-1.3-1c-0.3-1-1.3-1.6-2.2-1.8c-0.9-0.3-1.8-0.3-1.8-0.3
				c-0.8,0-1.4-0.6-1.4-1.4c0-0.8,0.6-1.4,1.4-1.4c0.2,0,5.5,0,6.7,4.1C53.4,169.2,53,169.9,52.3,170.2z"/>
			<path class="st8" d="M29.1,165.8c0,0.8-0.6,1.4-1.4,1.4c0,0,0,0,0,0c-0.1,0-3.4,0-4,2.1c-0.2,0.6-0.7,1-1.3,1
				c-0.1,0-0.3,0-0.4-0.1c-0.7-0.2-1.1-1-0.9-1.7c1.2-4.1,6.5-4.1,6.7-4.1C28.5,164.4,29.1,165,29.1,165.8L29.1,165.8z"/>
			<path class="st8" d="M37.1,144.5c0.8,0,1.4-0.6,1.4-1.4v-3.6c0-0.8-0.6-1.4-1.4-1.4c-0.8,0-1.4,0.6-1.4,1.4v3.6
				C35.7,143.9,36.3,144.5,37.1,144.5z"/>
			<path class="st8" d="M20,147.8c0.3,0.4,0.7,0.7,1.2,0.7c0.3,0,0.5-0.1,0.7-0.2c0.6-0.4,0.8-1.3,0.4-1.9l-1.9-3.1
				c-0.4-0.6-1.3-0.8-1.9-0.4c-0.6,0.4-0.8,1.3-0.4,1.9L20,147.8z"/>
			<path class="st8" d="M5.5,157.2l3.4,1.8c0.2,0.1,0.4,0.2,0.6,0.2c0.5,0,1-0.3,1.2-0.7c0.4-0.7,0.1-1.5-0.6-1.9l-3.4-1.8
				c-0.7-0.4-1.5-0.1-1.9,0.6C4.6,156,4.9,156.9,5.5,157.2L5.5,157.2z"/>
			<path class="st8" d="M6.6,172.5c0-0.8-0.6-1.4-1.4-1.4H1.4c-0.8,0-1.4,0.6-1.4,1.4s0.6,1.4,1.4,1.4h3.9
				C6,173.9,6.6,173.3,6.6,172.5z"/>
			<path class="st8" d="M8.9,186l-3.4,1.8c-0.7,0.4-0.9,1.2-0.6,1.9c0.2,0.5,0.7,0.7,1.2,0.7c0.2,0,0.4-0.1,0.6-0.2l3.4-1.8
				c0.7-0.4,0.9-1.2,0.6-1.9C10.4,185.9,9.6,185.6,8.9,186L8.9,186z"/>
			<path class="st8" d="M68.7,187.7l-3.4-1.8c-0.7-0.4-1.5-0.1-1.9,0.6c-0.4,0.7-0.1,1.5,0.6,1.9l3.4,1.8c0.2,0.1,0.4,0.2,0.6,0.2
				c0.5,0,1-0.3,1.2-0.7C69.6,188.9,69.4,188.1,68.7,187.7L68.7,187.7z"/>
			<path class="st8" d="M72.8,171.1H69c-0.8,0-1.4,0.6-1.4,1.4s0.6,1.4,1.4,1.4h3.9c0.8,0,1.4-0.6,1.4-1.4
				C74.2,171.7,73.6,171.1,72.8,171.1z"/>
			<path class="st8" d="M64.7,159.2c0.2,0,0.4-0.1,0.6-0.2l3.4-1.8c0.7-0.4,0.9-1.2,0.6-1.9c-0.4-0.7-1.2-0.9-1.9-0.6l-3.4,1.8
				c-0.7,0.4-0.9,1.2-0.6,1.9C63.7,158.9,64.2,159.2,64.7,159.2z"/>
			<path class="st8" d="M52.3,148.2c0.2,0.1,0.5,0.2,0.7,0.2c0.5,0,0.9-0.2,1.2-0.7l1.9-3.1c0.4-0.6,0.2-1.5-0.4-1.9
				c-0.6-0.4-1.5-0.2-1.9,0.4l-1.9,3.1C51.5,147,51.6,147.8,52.3,148.2L52.3,148.2z"/>
		</g>
	</g>
	<g>
		<g>
			<path class="st24" d="M474.3,104c3.5-3.5,3.5-9.2,0-12.8c-3.5-3.5-9.2-3.5-12.8,0L474.3,104z"/>
			<path class="st17" d="M444.9,137.9l-10.4,10.4c-4.8,4.8-12.5,4.8-17.2,0l0,0c-4.8-4.8-4.8-12.5,0-17.2l10.4-10.4L444.9,137.9z"/>
		</g>
		<polygon class="st25" points="444.9,137.9 457.1,150.1 449.7,157.5 437.5,145.3 		"/>
		<polygon class="st26" points="444.9,137.9 427.7,120.6 446.6,76.2 489.3,118.9 		"/>
		<polygon class="st27" points="477.9,123.8 489.3,118.9 446.6,76.2 441.7,87.6 		"/>
		<path class="st8" d="M490.6,117.7l-13.8-13.8l0.4-0.6c1-1.7,1.6-3.6,1.6-5.6c0-2.9-1.1-5.6-3.2-7.7c-2-2-4.8-3.2-7.7-3.2
			c-2,0-4,0.5-5.6,1.6l-0.6,0.4l-13.8-13.8c-0.3-0.3-0.8-0.5-1.3-0.5c-0.1,0-0.2,0-0.4,0c-0.6,0.1-1.1,0.5-1.3,1.1l-18.8,44.1
			l-10.2,10.2c-2.6,2.7-4.1,6.2-4.1,9.9c0,3.7,1.5,7.3,4.1,9.9c2.7,2.6,6.2,4.1,9.9,4.1s7.3-1.5,9.9-4.1l1.7-1.7l11.9,11.9l0.6,0.1
			l8.5-8.5c0.7-0.7,0.7-1.9,0-2.6l-10.3-10.3l41.9-17.9c0.6-0.2,1-0.7,1.1-1.3C491.2,118.7,491,118.1,490.6,117.7z M465.6,90.8
			c0.7-0.3,1.5-0.4,2.3-0.4c1.9,0,3.7,0.7,5.1,2.1c1.4,1.4,2.1,3.2,2.1,5.1c0,0.8-0.1,1.5-0.4,2.3l-0.5,1.4l-10.1-10.1L465.6,90.8z
			 M433.2,147c-2,2-4.6,3-7.3,3s-5.4-1.1-7.3-3c-2-2-3-4.6-3-7.3c0-2.8,1.1-5.4,3-7.3l9.2-9.2l14.7,14.7L433.2,147z M454.5,150.1
			l-4.8,4.8l-9.6-9.6l4.8-4.8L454.5,150.1z M445.3,135.7l-15.5-15.5l12.5-29.4l32.4,32.4L445.3,135.7z M478.3,121.6l-34.4-34.4
			l3.3-7.8l38.9,38.9L478.3,121.6z"/>
		<path class="st17" d="M483.8,83.8c-0.5,0-0.9-0.2-1.3-0.5c-0.7-0.7-0.7-1.9,0-2.6l11.2-11.2c0.3-0.3,0.8-0.5,1.3-0.5
			c0.5,0,0.9,0.2,1.3,0.5c0.7,0.7,0.7,1.9,0,2.6l-11.2,11.2C484.8,83.6,484.3,83.8,483.8,83.8z"/>
		<path class="st17" d="M473.4,78c-1,0-1.8-0.8-1.8-1.8v-5.6c0-1,0.8-1.8,1.8-1.8s1.8,0.8,1.8,1.8v5.6C475.2,77.2,474.4,78,473.4,78
			z"/>
		<path class="st17" d="M489.3,94c-1,0-1.8-0.8-1.8-1.8c0-1,0.8-1.8,1.8-1.8h5.8c1,0,1.8,0.8,1.8,1.8c0,1-0.8,1.8-1.8,1.8H489.3z"/>
	</g>
	<g>
		<path class="st28" d="M326.7,188.1c0-23.7,19.2-42.9,42.9-42.9c11.9,0,22.6,4.8,30.4,12.6V60.9c0-2.9-0.7-5.7-2-8.1H192.8
			c-1.2,2.4-2,5.2-2,8.1v141c0,9.9,8,17.9,17.9,17.9h131.9C332.1,211.9,326.7,200.7,326.7,188.1z"/>
		<path class="st25" d="M303.2,43.1H205c-8,0-14.5,6.4-14.5,14.3v13.3h210.1V57.4c0-7.9-6.5-14.3-14.5-14.3h-70.9H303.2z"/>
		<g>
			<circle class="st3" cx="213.6" cy="56.9" r="6.1"/>
			<path class="st4" d="M213.6,64.4c-4.1,0-7.5-3.4-7.5-7.5s3.4-7.5,7.5-7.5c4.1,0,7.5,3.4,7.5,7.5S217.7,64.4,213.6,64.4z
				 M213.6,52.1c-2.6,0-4.8,2.1-4.8,4.8s2.1,4.8,4.8,4.8c2.6,0,4.8-2.1,4.8-4.8C218.3,54.2,216.2,52.1,213.6,52.1z"/>
			<circle class="st5" cx="239.3" cy="56.9" r="6.1"/>
			<path class="st4" d="M239.3,64.4c-4.1,0-7.5-3.4-7.5-7.5s3.4-7.5,7.5-7.5c4.1,0,7.5,3.4,7.5,7.5S243.4,64.4,239.3,64.4z
				 M239.3,52.1c-2.6,0-4.8,2.1-4.8,4.8s2.1,4.8,4.8,4.8c2.6,0,4.8-2.1,4.8-4.8C244.1,54.2,241.9,52.1,239.3,52.1z"/>
			<circle class="st6" cx="265" cy="56.9" r="6.1"/>
			<path class="st4" d="M265,64.4c-4.1,0-7.5-3.4-7.5-7.5s3.4-7.5,7.5-7.5s7.5,3.4,7.5,7.5S269.1,64.4,265,64.4z M265,52.1
				c-2.6,0-4.8,2.1-4.8,4.8s2.1,4.8,4.8,4.8c2.6,0,4.8-2.1,4.8-4.8C269.8,54.2,267.6,52.1,265,52.1z"/>
		</g>
		<g>
			<path class="st29" d="M213.3,180.2h17.3v24.7h-17.3L213.3,180.2z"/>
			<path class="st4" d="M230.6,206.3h-17.3c-0.8,0-1.4-0.6-1.4-1.4v-24.7c0-0.8,0.6-1.4,1.4-1.4h17.3c0.8,0,1.4,0.6,1.4,1.4v24.7
				C232,205.7,231.4,206.3,230.6,206.3z M214.7,203.5h14.5v-22h-14.5V203.5z"/>
			<path class="st18" d="M237.3,155.1h17.3v49.7h-17.3V155.1z"/>
			<path class="st4" d="M254.6,206.3h-17.3c-0.8,0-1.4-0.6-1.4-1.4v-49.7c0-0.8,0.6-1.4,1.4-1.4h17.3c0.8,0,1.4,0.6,1.4,1.4v49.7
				C255.9,205.7,255.3,206.3,254.6,206.3z M238.7,203.5h14.5v-47h-14.5V203.5z"/>
			<path class="st30" d="M261.3,167.8h17.3v37.1h-17.3V167.8z"/>
			<path class="st4" d="M278.6,206.3h-17.3c-0.8,0-1.4-0.6-1.4-1.4v-37.1c0-0.8,0.6-1.4,1.4-1.4h17.3c0.8,0,1.4,0.6,1.4,1.4v37.1
				C279.9,205.7,279.3,206.3,278.6,206.3z M262.7,203.5h14.5v-34.3h-14.5V203.5z"/>
			<path class="st25" d="M285.3,145.4h17.3v59.5h-17.3V145.4z"/>
			<path class="st4" d="M302.5,206.3h-17.3c-0.8,0-1.4-0.6-1.4-1.4v-59.5c0-0.8,0.6-1.4,1.4-1.4h17.3c0.8,0,1.4,0.6,1.4,1.4v59.5
				C303.9,205.7,303.3,206.3,302.5,206.3L302.5,206.3z M286.6,203.5h14.5v-56.7h-14.5V203.5z"/>
		</g>
		<g>
			<path class="st8" d="M350.3,115.4h29.9c1.6,0,2.8-1.3,2.8-2.8c0-1.6-1.3-2.8-2.8-2.8h-29.9c-1.6,0-2.8,1.3-2.8,2.8
				C347.5,114.1,348.8,115.4,350.3,115.4z"/>
			<path class="st8" d="M350.3,87.9h29.9c1.6,0,2.8-1.3,2.8-2.8c0-1.6-1.3-2.8-2.8-2.8h-29.9c-1.6,0-2.8,1.3-2.8,2.8
				C347.5,86.7,348.8,87.9,350.3,87.9z"/>
			<path class="st8" d="M350.3,101.7h29.9c1.6,0,2.8-1.3,2.8-2.8c0-1.6-1.3-2.8-2.8-2.8h-29.9c-1.6,0-2.8,1.3-2.8,2.8
				C347.5,100.4,348.8,101.7,350.3,101.7z"/>
			<path class="st16" d="M333.5,87.9h4.5c1.6,0,2.8-1.3,2.8-2.8c0-1.6-1.3-2.8-2.8-2.8h-4.5c-1.6,0-2.8,1.3-2.8,2.8
				C330.7,86.7,332,87.9,333.5,87.9z"/>
			<path class="st17" d="M333.5,101.7h4.5c1.6,0,2.8-1.3,2.8-2.8c0-1.6-1.3-2.8-2.8-2.8h-4.5c-1.6,0-2.8,1.3-2.8,2.8
				C330.7,100.4,332,101.7,333.5,101.7z"/>
			<path class="st8" d="M333.5,115.4h4.5c1.6,0,2.8-1.3,2.8-2.8c0-1.6-1.3-2.8-2.8-2.8h-4.5c-1.6,0-2.8,1.3-2.8,2.8
				C330.7,114.1,332,115.4,333.5,115.4z"/>
		</g>
		<path class="st31" d="M377.9,62H298c-2.8,0-5.1-2.3-5.1-5.1v0c0-2.8,2.3-5.1,5.1-5.1h79.9c2.8,0,5.1,2.3,5.1,5.1v0
			C383,59.7,380.7,62,377.9,62z"/>
		<g>
			<path class="st8" d="M239,124.4c-4.2,0-6.6-0.4-7.1-1.1l-6.3-10.2l-0.1-0.2c-0.3-0.6-1-1-1.7-1c-0.1,0-0.3,0-0.4,0
				c-0.8,0.2-1.5,0.9-1.5,1.7c0,0.6-0.4,7.4-0.5,8c-0.1,1-0.3,1.8-0.5,2.2c0,0,0,0,0,0h-6.9c-0.6,0-1.8-0.3-1.8-1.1
				c-0.1-14.7-0.2-33.6-0.3-40.8c0,0,0,0,0-0.1c3.8-0.5,4.7-0.7,4.9-0.7c0.1,0,0.3,0,0.5,0c0.6,0,1.5,0,1.9,0c0.2,0,0.7,0,1.3,0
				c0.4,0,0.8,0,1.1,0c0.3,0,0.4,0.1,0.4,0.8c0,1.6-0.1,3.3-0.2,4.9c-0.1,1.7-0.2,3.4-0.2,5.1l0,0.8c0,0.8,0.4,1.5,1.1,1.9
				c0.3,0.1,0.5,0.2,0.8,0.2c0.7,0,1.4-0.4,1.7-1.1l4.8-9.9c1.4-2.9,2.9-3.3,4.1-3.3h0.8c0,0,0,0,0,0c0.6,0.1,2.7,0.5,3.3,0.6
				c0.1,0,0.2,0,0.2,0c0.3,0,1.1,0.2,1.6,0.4c0.6,0.1,1.1,0.3,1.5,0.3c0.3,0.1,0.5,0.2,0.5,0.3c0,0.2,0,0.3,0,0.4l-11,19.5
				c-0.2,0.3-0.3,0.6-0.3,1v0.3c0,0.4,0.2,0.9,0.4,1.2c1.1,1.3,5.8,7.3,6.7,8.6c0.3,0.4,1.8,2.8,2.3,3.5c0,0,0,0,0,0
				c0.3,0.7,1.9,3.8,2.3,4.7c0,0,0,0.1,0.1,0.1c0.2,0.3,0.4,1,0.4,1.4c0,0.7-0.4,1.3-1.2,1.6c0,0,0,0,0,0H239z"/>
			<path class="st8" d="M262.2,123.3c-3.6,0-4.5-0.6-5.3-3.4c-0.2-1-0.8-3.7-0.9-4.4c0,0,0,0,0,0l-4.1-33.1V82
				c0.2-0.1,1-0.4,2.9-0.4c0.5,0,0.9,0,1.3,0c0.3,0,0.6,0,0.8,0c5.9,0,6,2.6,6,3.6l1,20.3c0,0.9,0.7,1.6,1.6,1.8c0.1,0,0.2,0,0.3,0
				c0.8,0,1.5-0.5,1.8-1.3c0.3-0.8,1.9-4.4,2.6-6.1l0.4-1c1.7-3.8,2.6-4.7,6.6-4.7h1.7c0,0,0,0,0,0c1,0.2,2,0.8,2.7,3
				c0.1,0.5,0.5,1.7,0.9,3c0.6,2,1.3,4.2,1.6,5.1c0.1,0.3,0.2,0.7,0.5,1.3c0.3,0.7,1,1.1,1.8,1.1c0,0,0,0,0,0c0.8,0,1.4-0.5,1.7-1.2
				l0.2-0.5c0-0.1,0.1-0.2,0.1-0.3c4.1-18.3,5.8-24.7,8.8-24.7c1.1,0,6.4,0.2,6.4,3.4c0,1-0.1,1.4-0.3,2.6l-8.2,29.8l-0.2,0.8l0,0.1
				c-0.8,2.9-1.6,5.3-3.3,5.3c-2,0-4-0.1-5.6-0.2c-1.9-0.1-2.3-0.5-2.3-0.5c0,0,0,0,0,0l-6.6-9.5c-0.1-0.1-0.2-0.3-0.3-0.4l-0.5-0.4
				c-0.3-0.3-0.8-0.5-1.2-0.5c-0.2,0-0.3,0-0.5,0.1c-0.6,0.2-1,0.6-1.2,1.1c-0.1,0.2-0.6,0.9-0.8,1.2c0,0.1-0.1,0.1-0.1,0.2
				c-0.6,1.1-3,5.5-3.5,6.4C267.7,122.8,265.5,123.3,262.2,123.3z"/>
		</g>
		<path class="st32" d="M382.2,43.1H208.8c-6.9,0-13,4-15.9,9.7h205.2C395.1,47,389.1,43.1,382.2,43.1z"/>
		<path class="st28" d="M190.9,216.9v2.8h2.8C192.7,218.9,191.8,217.9,190.9,216.9z"/>
		<path class="st28" d="M400,219.8v-1.3c-0.4,0.4-0.9,0.8-1.3,1.3H400z"/>
		<path class="st8" d="M193.7,219.8c4.1,3.4,9.3,5.5,15,5.5h139.3c-2.7-1.6-5.2-3.4-7.4-5.5H193.7z"/>
		<path class="st8" d="M190.9,60.9v-8.1h2c3-5.8,9-9.7,15.9-9.7h173.4c6.9,0,13,4,15.9,9.7h2v104.9c2,2,3.9,4.3,5.5,6.7V60.9
			c0-12.9-10.5-23.4-23.4-23.4H208.8c-12.9,0-23.4,10.5-23.4,23.4v141c0,5.7,2.1,11,5.5,15v-15V60.9z"/>
		<path class="st8" d="M190.9,52.8v8.1c0-2.9,0.7-5.7,2-8.1H190.9z"/>
		<path class="st8" d="M400,157.8C400,157.8,400,157.8,400,157.8l0-104.9h-2c1.2,2.4,2,5.2,2,8.1V157.8z"/>
		<path class="st8" d="M340.6,219.8H208.8c-9.9,0-17.9-8-17.9-17.9v15c0.9,1,1.8,2,2.8,2.8H340.6L340.6,219.8z"/>
		<path class="st27" d="M397.2,219.8h1.5c0.4-0.4,0.9-0.8,1.3-1.3v-1.6C399.2,217.9,398.2,218.9,397.2,219.8z"/>
		<g>
			<path class="st33" d="M332.4,207.3c0,3.3-2.7,6-6,6s-6-2.7-6-6c0-3.3,2.7-6,6-6C329.8,201.3,332.4,204,332.4,207.3L332.4,207.3z"
				/>
			<path class="st34" d="M364.7,179.5c0,3.3-2.7,6-6,6s-6-2.7-6-6c0-3.3,2.7-6,6-6S364.7,176.2,364.7,179.5z"/>
			<path class="st35" d="M397,199.1c0,3.3-2.7,6-6,6c-3.3,0-6-2.7-6-6c0-3.3,2.7-6,6-6S397,195.8,397,199.1L397,199.1z"/>
			<path class="st16" d="M429.3,168c0,3.3-2.7,6-6,6c-3.3,0-6-2.7-6-6c0-3.3,2.7-6,6-6C426.6,162,429.3,164.7,429.3,168z"/>
			<path class="st36" d="M332.4,207v0.2c0,3.3-2.7,6-6,6s-6-2.7-6-6c0-1.8,0.8-3.4,2.1-4.5c0.1,3.2,2.8,5.7,6,5.7
				C330,208.5,331.4,207.9,332.4,207z"/>
			<path class="st37" d="M364.7,179.3v0.2c0,3.3-2.7,6-6,6c-3.3,0-6-2.7-6-6c0-1.8,0.8-3.4,2.1-4.5c0.1,3.2,2.7,5.8,6,5.8
				C362.3,180.7,363.7,180.2,364.7,179.3L364.7,179.3z"/>
			<path class="st38" d="M397,198.9v0.3c0,3.3-2.7,6-6,6c-3.3,0-6-2.7-6-6c0-1.8,0.8-3.4,2.1-4.5c0.2,3.2,2.8,5.7,6,5.7
				C394.6,200.4,396,199.8,397,198.9L397,198.9z"/>
			<path class="st39" d="M429.3,167.7v0.2c0,3.3-2.6,6-6,6c-3.3,0-6-2.7-6-6c0-1.8,0.8-3.4,2.1-4.5c0.2,3.2,2.8,5.7,6,5.7
				C426.9,169.2,428.2,168.7,429.3,167.7z"/>
			<path class="st8" d="M326.5,215.2c4.4,0,8-3.6,8-8c0-1.3-0.4-2.5-0.9-3.6l20.2-18.1c1.4,1.1,3.1,1.9,5.1,1.9c2.3,0,4.4-1,5.9-2.6
				l18.7,12.6c-0.1,0.6-0.2,1.1-0.2,1.7c0,4.4,3.6,8,8,8c4.4,0,8-3.6,8-8c0-1.2-0.3-2.3-0.7-3.3l20.9-21.1c1.2,0.7,2.6,1.2,4.2,1.2
				c4.4,0,8-3.6,8-8c0-4.4-3.6-8-8-8c-4.4,0-8,3.6-8,8c0,1.4,0.4,2.7,1.1,3.9l-20.7,20.9c-1.3-1-2.9-1.5-4.7-1.5
				c-2.4,0-4.5,1.1-5.9,2.7l-18.6-12.6c0.1-0.6,0.2-1.2,0.2-1.8c0-4.4-3.6-8-8-8c-4.4,0-8,3.6-8,8c0,1,0.2,2,0.6,2.9l-20.4,18.3
				c-1.3-0.8-2.8-1.4-4.4-1.4c-4.4,0-8,3.6-8,8C318.5,211.7,322.1,215.2,326.5,215.2z M423.3,164c2.2,0,4,1.8,4,4s-1.8,4-4,4
				s-4-1.8-4-4C419.3,165.8,421.1,164,423.3,164z M391,195.1c2.2,0,4,1.8,4,4c0,2.2-1.8,4-4,4s-4-1.8-4-4
				C387,196.9,388.8,195.1,391,195.1L391,195.1z M358.8,175.5c2.2,0,4,1.8,4,4s-1.8,4-4,4c-2.2,0-4-1.8-4-4
				C354.7,177.3,356.5,175.5,358.8,175.5L358.8,175.5z M326.5,203.3c2.2,0,4,1.8,4,4c0,2.2-1.8,4-4,4s-4-1.8-4-4
				C322.4,205.1,324.2,203.3,326.5,203.3L326.5,203.3z"/>
		</g>
		<g>
			<polygon class="st40" points="388.9,218 392.9,221.9 397.6,226.5 414.1,243 419.2,229.7 398.2,208.9 			"/>
			<g>
				<path class="st41" d="M409.1,217.6l19,19c1.4,1.4,2.3,3.4,2.3,5.6c0,2.2-0.9,4.2-2.3,5.6c-1.4,1.4-3.4,2.3-5.6,2.3
					c-2.2,0-4.1-0.9-5.6-2.3l-19-19L409.1,217.6z"/>
				<path class="st42" d="M406.5,220.2L406.5,220.2l1.5-1.5l19,19c1.2,1.2,1.9,2.8,1.9,4.5c0,1.7-0.7,3.3-1.9,4.5
					c-0.2,0.2-0.5,0.3-0.8,0.3c-0.3,0-0.6-0.1-0.8-0.3c-0.4-0.4-0.4-1.1,0-1.5c0.8-0.8,1.2-1.8,1.2-3c0-1.1-0.4-2.2-1.2-2.9
					L406.5,220.2z"/>
				<path class="st43" d="M398,228.7l11.1-11.2l-0.8-0.8c-0.5-0.5-1.2-0.8-2-0.8c-0.8,0-1.5,0.3-2,0.8l-7.3,7.3
					c-0.5,0.5-0.8,1.2-0.8,2c0,0.8,0.3,1.5,0.8,1.9L398,228.7z"/>
			</g>
			<path class="st44" d="M369.7,160.1c-16.1,0-29.2,13.1-29.2,29.2c0,16.2,13.1,29.2,29.2,29.2c16.1,0,29.2-13.1,29.2-29.2
				C398.9,173.2,385.8,160.1,369.7,160.1z"/>
			<path class="st43" d="M369.7,153.7c-19.7,0-35.6,16-35.6,35.6c0,19.7,16,35.6,35.6,35.6c19.7,0,35.6-16,35.6-35.6
				C405.3,169.6,389.4,153.7,369.7,153.7z M369.7,221.1c-17.6,0-31.8-14.2-31.8-31.8c0-17.5,14.2-31.8,31.8-31.8
				c17.6,0,31.8,14.2,31.8,31.8C401.5,206.9,387.2,221.1,369.7,221.1z"/>
			<path class="st40" d="M369.7,157.5c-17.6,0-31.8,14.2-31.8,31.8c0,17.6,14.2,31.8,31.8,31.8c17.5,0,31.8-14.2,31.8-31.8
				C401.5,171.8,387.2,157.5,369.7,157.5z M369.7,218.6c-16.1,0-29.2-13.1-29.2-29.2c0-16.1,13.1-29.2,29.2-29.2
				c16.1,0,29.2,13.1,29.2,29.2C398.9,205.5,385.8,218.6,369.7,218.6z"/>
			<g>
				<path class="st45" d="M370.4,164.9c-0.5-0.7-1.4-1.2-2.3-1.1c-4,0.2-7.9,1.4-11.3,3.4c-1.2,0.7-1.6,2.3-0.9,3.5
					c0.7,1.2,2.3,1.7,3.5,0.9c2.8-1.6,5.8-2.5,9.1-2.7c1.4-0.1,2.5-1.3,2.4-2.7C370.8,165.7,370.7,165.2,370.4,164.9z"/>
				<path class="st45" d="M353.9,173.4c-0.1-0.2-0.3-0.4-0.5-0.6c-1.1-0.9-2.7-0.7-3.6,0.4c-2.6,3.2-4.4,7.1-5.2,11.2
					c-0.9,4.9-0.5,9.9,1.4,14.5c0.5,1.3,2.1,1.9,3.4,1.4c1.3-0.5,1.9-2,1.4-3.4c-1.5-3.7-1.9-7.7-1.1-11.6c0.6-3.3,2.1-6.4,4.2-9
					C354.5,175.5,354.5,174.3,353.9,173.4z"/>
			</g>
		</g>
	</g>
	<g>
		<path class="st46" d="M199.7,200.2c0,8.7-4,17.2-11.6,22.6l-16.3-22.6h4.7H199.7z"/>
		<circle class="st47" cx="171.8" cy="200.3" r="28.9"/>
		<circle class="st47" cx="171.8" cy="200.2" r="27.9"/>
		<path class="st47" d="M171.8,172.3c15.4,0,27.9,12.5,27.9,27.9h-27.9V172.3z"/>
		<path class="st48" d="M188.6,218.9L177.1,203h19.7C196.1,209.3,193.1,214.9,188.6,218.9L188.6,218.9z"/>
		<path class="st49" d="M146.6,200.2c0,13.9,11.3,25.2,25.2,25.2c4.5,0,8.7-1.2,12.4-3.3l-14.6-20.3l0,0c-0.3-0.5-0.5-1-0.5-1.6v-25
			C156.5,176.6,146.6,187.3,146.6,200.2z"/>
		<path class="st50" d="M196.8,197.5h-22.3v-22.3C186.2,176.5,195.5,185.8,196.8,197.5z"/>
	</g>
</g>
</svg>
