<svg xmlns="http://www.w3.org/2000/svg" viewBox="0 0 553.27 248.82"><defs><style>.cls-1{isolation:isolate;}.cls-2{fill:#fff;}.cls-3{fill:#515979;}.cls-4{fill:#d8ebfb;}.cls-5{fill:#7ddf96;}.cls-6{mix-blend-mode:overlay;}.cls-7{fill:#c7bcff;}.cls-8{fill:#75a5c3;}.cls-9{opacity:0.4;mix-blend-mode:multiply;}.cls-10{fill:#ef7d7d;}.cls-11{fill:#fde1d9;}.cls-12{fill:#ccc;}.cls-13{fill:#979baf;}.cls-14{fill:#a0d2ff;}.cls-15{fill:#9e8271;}.cls-16{fill:#ffd886;}.cls-17{fill:#ffe8b6;}.cls-18{fill:#f89d81;}.cls-19{fill:#fbc4b3;}.cls-20{opacity:0.3;mix-blend-mode:color-burn;}</style></defs><g class="cls-1"><g id="Layer_2" data-name="Layer 2"><g id="Layer_1-2" data-name="Layer 1"><path class="cls-2" d="M233.86,186.21a7.06,7.06,0,0,1-7-7.11V33.32a7.06,7.06,0,0,1,7-7.11h102a3,3,0,0,1,2.12.88l24,24a3,3,0,0,1,.88,2.12V179.1a7.06,7.06,0,0,1-7,7.11Z"/><path class="cls-3" d="M335.86,29.21l24,24V179.1a4.06,4.06,0,0,1-4,4.11h-122a4.06,4.06,0,0,1-4-4.11V33.32a4.06,4.06,0,0,1,4-4.11h102m0-6h-102a10.07,10.07,0,0,0-10,10.11V179.1a10.07,10.07,0,0,0,10,10.11h122a10.06,10.06,0,0,0,10-10.11V53.21A6,6,0,0,0,364.11,49l-24-24a6,6,0,0,0-4.25-1.76Z"/><path class="cls-4" d="M340.66,56.21a7.81,7.81,0,0,1-7.8-7.8V29.21a3,3,0,0,1,1.85-2.77,3.14,3.14,0,0,1,1.15-.23,3,3,0,0,1,2.12.88l24,24a3,3,0,0,1-2.12,5.12Z"/><path class="cls-3" d="M335.86,29.21l24,24h-19.2a4.8,4.8,0,0,1-4.8-4.8V29.21m0-6a5.93,5.93,0,0,0-2.29.46,6,6,0,0,0-3.71,5.54v19.2a10.81,10.81,0,0,0,10.8,10.8h19.2A6,6,0,0,0,364.11,49l-24-24a6,6,0,0,0-4.25-1.76Z"/><path class="cls-3" d="M310.39,64a2,2,0,0,1-2-2,3,3,0,1,0-6,0,2,2,0,0,1-4,0,7,7,0,1,1,14,0A2,2,0,0,1,310.39,64Z"/><path class="cls-3" d="M303,46.08A8,8,0,0,1,305.83,45a9.6,9.6,0,0,1,3.08-.12,8.24,8.24,0,0,1,3.07.95A6.45,6.45,0,0,1,314.4,48a1.72,1.72,0,0,1-1.73,2.63l-.39-.06c-.79-.13-1.39-.32-2-.43s-1.27-.25-2-.33l-2.11-.25a20.94,20.94,0,0,1-2.25-.27l-.42-.09a1.71,1.71,0,0,1-1.3-2A1.69,1.69,0,0,1,303,46.08Z"/><path class="cls-3" d="M289.34,64a2,2,0,0,1-2-2,3,3,0,1,0-6,0,2,2,0,0,1-4,0,7,7,0,1,1,14,0A2,2,0,0,1,289.34,64Z"/><path class="cls-3" d="M285.81,49.27a20.94,20.94,0,0,1-2.25.27l-2.11.25c-.68.08-1.31.22-2,.33s-1.26.3-2,.43l-.39.06A1.71,1.71,0,0,1,275.33,48a6.38,6.38,0,0,1,2.42-2.19,8.13,8.13,0,0,1,3.07-.95,9.55,9.55,0,0,1,3.07.12,8.09,8.09,0,0,1,2.88,1.12,1.7,1.7,0,0,1,.53,2.34,1.67,1.67,0,0,1-1.06.75Z"/><path class="cls-3" d="M295.15,75.25A24.65,24.65,0,0,1,282.86,72a2,2,0,0,1,2-3.46c6.18,3.57,14.54,3.59,19.9,0A2,2,0,1,1,307,71.9,21.44,21.44,0,0,1,295.15,75.25Z"/><path class="cls-3" d="M291.12,78.36a16.33,16.33,0,0,0,3.75.48,14.71,14.71,0,0,0,1.88-.12,10.43,10.43,0,0,0,1.85-.36,1.27,1.27,0,0,1,1.6.85,1.29,1.29,0,0,1-.28,1.25l-.79.85a4.73,4.73,0,0,1-2.05,1.25,6.42,6.42,0,0,1-2.22.27,7.1,7.1,0,0,1-1.12-.12,5.27,5.27,0,0,1-1.09-.27,5.58,5.58,0,0,1-2-1.13l-.75-.66a1.34,1.34,0,0,1,1.26-2.29Z"/><path class="cls-4" d="M274.11,75.45,253.62,55a6,6,0,0,0-4.24-1.76H237.86v130h38V79.7A6,6,0,0,0,274.11,75.45Z"/><rect class="cls-5" x="241.86" y="91.21" width="106" height="18" rx="2"/><g class="cls-6"><rect class="cls-3" x="237.86" y="91.21" width="38" height="18"/></g><rect class="cls-3" x="241.86" y="115.21" width="106" height="6" rx="3"/><rect class="cls-3" x="241.86" y="151.21" width="86" height="6" rx="3"/><rect class="cls-3" x="241.86" y="163.21" width="66" height="6" rx="3"/><rect class="cls-3" x="241.86" y="139.21" width="96" height="6" rx="3"/><rect class="cls-3" x="241.86" y="127.21" width="76" height="6" rx="3"/><path class="cls-2" d="M133.86,210.21a7.06,7.06,0,0,1-7-7.11V57.32a7.06,7.06,0,0,1,7-7.11h102a3,3,0,0,1,2.12.88l24,24a3,3,0,0,1,.88,2.12V203.1a7.06,7.06,0,0,1-7,7.11Z"/><path class="cls-3" d="M235.86,53.21l24,24V203.1a4.06,4.06,0,0,1-4,4.11h-122a4.06,4.06,0,0,1-4-4.11V57.32a4.06,4.06,0,0,1,4-4.11h102m0-6h-102a10.07,10.07,0,0,0-10,10.11V203.1a10.07,10.07,0,0,0,10,10.11h122a10.06,10.06,0,0,0,10-10.11V77.21A6,6,0,0,0,264.11,73l-24-24a6,6,0,0,0-4.25-1.76Z"/><path class="cls-4" d="M240.66,80.21a7.81,7.81,0,0,1-7.8-7.8V53.21a3,3,0,0,1,1.85-2.77,3.14,3.14,0,0,1,1.15-.23,3,3,0,0,1,2.12.88l24,24a3,3,0,0,1-2.12,5.12Z"/><path class="cls-3" d="M235.86,53.21l24,24h-19.2a4.8,4.8,0,0,1-4.8-4.8V53.21m0-6a5.93,5.93,0,0,0-2.29.46,6,6,0,0,0-3.71,5.54v19.2a10.81,10.81,0,0,0,10.8,10.8h19.2A6,6,0,0,0,264.11,73l-24-24a6,6,0,0,0-4.25-1.76Z"/><rect class="cls-7" x="141.86" y="115.21" width="106" height="18" rx="2"/><rect class="cls-3" x="141.86" y="139.21" width="106" height="6" rx="3"/><rect class="cls-3" x="141.86" y="175.21" width="96" height="6" rx="3"/><rect class="cls-3" x="141.86" y="187.21" width="46" height="6" rx="3"/><rect class="cls-3" x="141.86" y="163.21" width="66" height="6" rx="3"/><rect class="cls-3" x="141.86" y="151.21" width="86" height="6" rx="3"/><path class="cls-8" d="M378,206.23a27,27,0,0,1-19.09-46.1l22.62-22.62a27,27,0,1,1,38.19,38.18l-22.63,22.63A26.82,26.82,0,0,1,378,206.23Zm22.63-64.63A14.91,14.91,0,0,0,390,146l-22.63,22.63a15,15,0,1,0,21.22,21.21l22.62-22.63a15,15,0,0,0-10.6-25.6Z"/><path class="cls-3" d="M400.63,132.6a24,24,0,0,1,17,41L395,196.2A24,24,0,0,1,361,162.25l22.63-22.62a23.88,23.88,0,0,1,17-7M378,197.23A17.94,17.94,0,0,0,390.73,192l22.62-22.62a18,18,0,1,0-25.45-25.46L365.27,166.5A18,18,0,0,0,378,197.23m22.63-70.63a29.83,29.83,0,0,0-21.22,8.78L356.79,158a30,30,0,1,0,42.42,42.43l22.63-22.63a30,30,0,0,0-21.21-51.21ZM378,191.23a12,12,0,0,1-8.49-20.49l22.63-22.63a12,12,0,1,1,17,17l-22.63,22.63a11.9,11.9,0,0,1-8.48,3.52Z"/><path class="cls-8" d="M368.1,245.82A27,27,0,0,1,349,199.73l22.63-22.63a27,27,0,0,1,38.18,38.19l-22.63,22.63A26.81,26.81,0,0,1,368.1,245.82Zm22.63-64.62a14.91,14.91,0,0,0-10.61,4.39l-22.63,22.63a15,15,0,0,0,21.22,21.21l22.62-22.63a15,15,0,0,0-10.6-25.6Z"/><path class="cls-3" d="M390.73,172.2a24,24,0,0,1,17,41l-22.63,22.62a24,24,0,0,1-33.94-33.94l22.63-22.62a23.88,23.88,0,0,1,17-7M368.1,236.82a17.93,17.93,0,0,0,12.73-5.27l22.62-22.63A18,18,0,0,0,378,183.47L355.37,206.1a18,18,0,0,0,12.73,30.72m22.63-70.62A29.83,29.83,0,0,0,369.51,175l-22.62,22.63A30,30,0,0,0,389.31,240l22.63-22.63a30,30,0,0,0-21.21-51.21ZM368.1,230.82a12,12,0,0,1-8.49-20.48l22.63-22.63a12,12,0,1,1,17,17l-22.63,22.63a11.89,11.89,0,0,1-8.48,3.51Z"/><rect class="cls-8" x="401.16" y="171.76" width="6" height="22" transform="translate(247.61 -232.26) rotate(45)"/><rect class="cls-3" x="397.4" y="184" width="22" height="6" transform="translate(-12.61 343.56) rotate(-45)"/><g class="cls-9"><path class="cls-3" d="M406.9,204.06l7.83-7.82a24.13,24.13,0,0,0-1.91-9.41l-4.72,4.72A18,18,0,0,1,406.9,204.06Z"/></g><g class="cls-9"><path class="cls-3" d="M373.35,196.6l-4.72,4.72a24,24,0,0,0,9.41,1.9l7.83-7.82A18,18,0,0,1,373.35,196.6Z"/></g><rect class="cls-3" x="388.92" y="175.52" width="22" height="6" transform="translate(-9.1 335.07) rotate(-45)"/><path class="cls-3" d="M202.89,86.91A1.5,1.5,0,0,1,202.4,84a14.07,14.07,0,0,1,8,0,1.5,1.5,0,1,1-1,2.84,11,11,0,0,0-6,0A1.67,1.67,0,0,1,202.89,86.91Z"/><circle class="cls-3" cx="206.39" cy="78.72" r="6"/><circle class="cls-2" cx="207.89" cy="78.72" r="1.5"/><path class="cls-3" d="M203,64.78a8,8,0,0,1,2.87-1.12,9.89,9.89,0,0,1,3.08-.13,8.44,8.44,0,0,1,3.07,1,6.37,6.37,0,0,1,2.42,2.19,1.72,1.72,0,0,1-1.73,2.63l-.39-.06c-.79-.14-1.39-.32-2.05-.43s-1.27-.25-1.95-.33l-2.11-.25a20.94,20.94,0,0,1-2.25-.27l-.42-.1a1.69,1.69,0,0,1-.54-3.09Z"/><path class="cls-3" d="M186.84,86.91a1.67,1.67,0,0,1-.49-.08,11,11,0,0,0-6,0,1.5,1.5,0,1,1-1-2.84,14.07,14.07,0,0,1,8,0,1.5,1.5,0,0,1-.49,2.92Z"/><circle class="cls-3" cx="183.34" cy="78.72" r="6"/><circle class="cls-2" cx="184.84" cy="78.72" r="1.5"/><path class="cls-3" d="M185.81,68a20.94,20.94,0,0,1-2.25.27l-2.11.25c-.68.08-1.31.22-2,.33s-1.26.29-2,.43l-.39.06a1.71,1.71,0,0,1-1.73-2.63,6.3,6.3,0,0,1,2.42-2.19,8.33,8.33,0,0,1,3.07-1,9.84,9.84,0,0,1,3.07.13,8.09,8.09,0,0,1,2.88,1.12,1.7,1.7,0,0,1,.53,2.34,1.67,1.67,0,0,1-1.06.75Z"/><path class="cls-3" d="M194.86,108.13a14,14,0,0,1-14-14,2,2,0,0,1,2-2h24a2,2,0,0,1,2,2A14,14,0,0,1,194.86,108.13Z"/><path class="cls-3" d="M206.86,94.13h0m0,0a12,12,0,0,1-24,0h24m0-4h-24a4,4,0,0,0-4,4,16,16,0,0,0,32,.16c0-.05,0-.11,0-.16a4,4,0,0,0-4-4Zm0,8h0Z"/><ellipse class="cls-10" cx="194.86" cy="102.13" rx="8.93" ry="4"/><circle class="cls-11" cx="164.86" cy="88.21" r="2"/><circle class="cls-11" cx="168.86" cy="96.21" r="2"/><circle class="cls-11" cx="160.86" cy="96.21" r="2"/><circle class="cls-11" cx="224.86" cy="88.21" r="2"/><circle class="cls-11" cx="228.86" cy="96.21" r="2"/><circle class="cls-11" cx="220.86" cy="96.21" r="2"/><path class="cls-12" d="M105.5,197a3,3,0,0,1-2.12-.88l-19.8-19.8a3,3,0,0,1,0-4.24l5.65-5.66a3,3,0,0,1,4.25,0l19.8,19.8a3,3,0,0,1,0,4.24l-5.66,5.66A3,3,0,0,1,105.5,197Z"/><path class="cls-3" d="M91.36,168.49l19.79,19.8L105.5,194l-19.8-19.8,5.66-5.66m0-6a6,6,0,0,0-4.25,1.76l-5.65,5.66a6,6,0,0,0,0,8.48l19.79,19.8a6,6,0,0,0,8.49,0l5.66-5.66a6,6,0,0,0,0-8.48l-19.8-19.8a6,6,0,0,0-4.24-1.76Z"/><rect class="cls-13" x="93.37" y="176.66" width="8" height="7" transform="translate(-98.87 121.62) rotate(-45)"/><path class="cls-12" d="M56,191.79a53,53,0,1,1,37.48-15.52A52.65,52.65,0,0,1,56,191.79Z"/><path class="cls-3" d="M56,88.79a50,50,0,1,1-35.36,14.65A49.84,49.84,0,0,1,56,88.79m0-6A56,56,0,1,0,95.6,99.2,55.64,55.64,0,0,0,56,82.79Z"/><path class="cls-4" d="M56,176.79a38,38,0,1,1,26.87-11.13A37.74,37.74,0,0,1,56,176.79Z"/><path class="cls-3" d="M56,103.79A35,35,0,1,1,31.25,114,34.91,34.91,0,0,1,56,103.79m0-6a41,41,0,1,0,29,12,40.74,40.74,0,0,0-29-12Z"/><path class="cls-14" d="M34.79,117.58a35,35,0,0,0-1.7,47.66c-.63-.54-1.24-1.1-1.84-1.7A35,35,0,0,1,80.75,114c.59.6,1.15,1.22,1.7,1.84A35,35,0,0,0,34.79,117.58Z"/><path class="cls-15" d="M134.49,233a3,3,0,0,1-2.12-.88L99.84,199.6a3,3,0,0,1,0-4.24l12.73-12.73a3,3,0,0,1,4.24,0l32.53,32.53a3,3,0,0,1,0,4.24l-12.73,12.73A3,3,0,0,1,134.49,233Z"/><path class="cls-3" d="M114.69,184.75l32.53,32.53L134.49,230,102,197.48l12.73-12.73m0-6a6,6,0,0,0-4.24,1.76L97.72,193.24a6,6,0,0,0,0,8.49l32.53,32.52a6,6,0,0,0,8.48,0l12.73-12.73a6,6,0,0,0,0-8.48l-32.53-32.53a6,6,0,0,0-4.24-1.76Z"/><path class="cls-16" d="M106.2,204.73a3,3,0,0,1-2.12-.88l-4.24-4.25a3,3,0,0,1,0-4.24l12.73-12.73a3,3,0,0,1,4.24,0l4.24,4.25a3,3,0,0,1,0,4.24l-12.72,12.73a3,3,0,0,1-2.13.88Z"/><path class="cls-3" d="M114.69,184.75l4.24,4.25L106.2,201.73,102,197.48l12.73-12.73m0-6a6,6,0,0,0-4.24,1.76L97.72,193.24a6,6,0,0,0,0,8.49L102,206a6,6,0,0,0,8.49,0l12.73-12.73a6,6,0,0,0,0-8.49l-4.25-4.24a6,6,0,0,0-4.24-1.76Z"/><path class="cls-3" d="M73,144.6a2,2,0,0,1-1-.24,8.64,8.64,0,0,0-7.11,0A2,2,0,0,1,63,140.83a12.67,12.67,0,0,1,10.89,0A2,2,0,0,1,73,144.6Z"/><circle class="cls-3" cx="68.47" cy="134.85" r="7"/><circle class="cls-2" cx="70.22" cy="134.85" r="1.75"/><path class="cls-3" d="M63.49,119.83a9,9,0,0,1,1.73-1.22,9.49,9.49,0,0,1,1.88-.8,10.27,10.27,0,0,1,4.27-.39,8.64,8.64,0,0,1,4.2,1.63,7.7,7.7,0,0,1,2.67,3.38,2,2,0,0,1-2.68,2.68l-.45-.19a24.85,24.85,0,0,0-2.38-1,10.2,10.2,0,0,0-2.13-.52,14.5,14.5,0,0,0-2.44-.12c-.44,0-.9,0-1.37.06s-1,.09-1.39,0l-.78-.08a2,2,0,0,1-1.78-2.16A2,2,0,0,1,63.49,119.83Z"/><path class="cls-3" d="M47,144.6a2,2,0,0,1-.95-.24,8.64,8.64,0,0,0-7.11,0A2,2,0,0,1,37,140.83a12.67,12.67,0,0,1,10.89,0A2,2,0,0,1,47,144.6Z"/><circle class="cls-3" cx="42.47" cy="134.85" r="7"/><circle class="cls-2" cx="44.22" cy="134.85" r="1.75"/><path class="cls-3" d="M45.54,123.35c-.39,0-.94,0-1.39,0s-.93,0-1.38-.06a14.61,14.61,0,0,0-2.44.12,10.26,10.26,0,0,0-2.12.52,23.8,23.8,0,0,0-2.38,1l-.45.19a2,2,0,0,1-2.68-2.68,7.68,7.68,0,0,1,2.66-3.38,8.71,8.71,0,0,1,4.21-1.63,10.22,10.22,0,0,1,4.26.39,9.58,9.58,0,0,1,1.89.8,8.67,8.67,0,0,1,1.72,1.22,2,2,0,0,1,.16,2.79,1.94,1.94,0,0,1-1.28.65Z"/><path class="cls-3" d="M55.81,154.87a26.55,26.55,0,0,1-14.44-4.31,2,2,0,1,1,2.19-3.35c7.35,4.81,17.32,4.82,23.71,0a2,2,0,1,1,2.4,3.2A23.11,23.11,0,0,1,55.81,154.87Z"/><path class="cls-3" d="M51.29,157.52a15.54,15.54,0,0,0,4.18.62,12.41,12.41,0,0,0,2.11-.15,10.17,10.17,0,0,0,2.05-.47,1.33,1.33,0,0,1,1.69.83,1.35,1.35,0,0,1-.29,1.34l-.73.76a5.38,5.38,0,0,1-2.3,1.37,7.51,7.51,0,0,1-2.54.31,8.62,8.62,0,0,1-2.52-.43,6.44,6.44,0,0,1-2.29-1.25l-.68-.59a1.37,1.37,0,0,1,1.32-2.34Z"/><path class="cls-16" d="M540.85,117.1a3,3,0,0,1-1.75-.57h0a99.54,99.54,0,0,0-52.74-15.78,88.25,88.25,0,0,0-22.82,3,2.87,2.87,0,0,1-.77.11,3,3,0,0,1-2.9-2.23L449.52,63a3,3,0,0,1,2.12-3.68c41.51-11.12,58.87-48.47,59-48.85a3,3,0,0,1,2.74-1.76h.24a3,3,0,0,1,2.66,2.21l27.43,102.39a3,3,0,0,1-2.9,3.78Z"/><path class="cls-3" d="M513.42,11.71,540.85,114.1a101.54,101.54,0,0,0-54.49-16.35,90.79,90.79,0,0,0-23.59,3.11L452.41,62.22c43.47-11.65,61-50.51,61-50.51m0-6A6,6,0,0,0,508,9.23,89.47,89.47,0,0,1,494.44,29c-12.19,13.75-26.85,23-43.58,27.47a6,6,0,0,0-4.24,7.35L457,102.41a6,6,0,0,0,5.8,4.45,5.85,5.85,0,0,0,1.55-.21,85.32,85.32,0,0,1,22-2.9,96.38,96.38,0,0,1,51,15.23,6,6,0,0,0,3.49,1.11,5.94,5.94,0,0,0,3.42-1.07,6,6,0,0,0,2.38-6.48L519.21,10.16a6,6,0,0,0-5.31-4.43l-.48,0Z"/><path class="cls-17" d="M452.41,62.22,454,68c43.46-11.65,61-50.52,61-50.52l-1.55-5.79S495.88,50.57,452.41,62.22Z"/><path class="cls-18" d="M544.27,121.25a6,6,0,0,1-5.8-4.44L510,10.55a6,6,0,0,1,4.25-7.35A6.22,6.22,0,0,1,515.8,3a6,6,0,0,1,5.79,4.45L550.06,113.7a6,6,0,0,1-4.24,7.35A6.28,6.28,0,0,1,544.27,121.25Z"/><path class="cls-3" d="M515.8,6a3,3,0,0,1,2.9,2.22l28.47,106.26a3,3,0,0,1-2.12,3.67,3,3,0,0,1-.78.1,3,3,0,0,1-2.9-2.22L512.9,9.78A3,3,0,0,1,515.8,6m0-6h0a8.72,8.72,0,0,0-2.33.31,9,9,0,0,0-6.36,11l28.47,106.25a9,9,0,0,0,8.69,6.67,9.19,9.19,0,0,0,2.33-.3,9,9,0,0,0,6.36-11L524.49,6.67A9,9,0,0,0,515.8,0Z"/><path class="cls-19" d="M515,6.1a3,3,0,0,0-2.12,3.68L515,17.5a3,3,0,0,1,5.8-1.55L518.7,8.22A3,3,0,0,0,515,6.1Z"/><path class="cls-16" d="M413.43,116.93a7,7,0,0,1-6.76-5.19l-8.28-30.9a7,7,0,0,1,4.95-8.58l11.59-3.1a7,7,0,0,1,8.57,5L431.79,105a7,7,0,0,1-5,8.57l-11.59,3.11a7.5,7.5,0,0,1-1.82.23Z"/><path class="cls-3" d="M416.75,71.92a4,4,0,0,1,3.86,3l8.28,30.91a4,4,0,0,1-2.83,4.9l-11.59,3.11a4.17,4.17,0,0,1-1,.13,4,4,0,0,1-3.86-3l-8.28-30.91a4,4,0,0,1,2.83-4.9l11.59-3.11a4.06,4.06,0,0,1,1-.13m0-6a9.92,9.92,0,0,0-2.6.34l-11.59,3.1a10,10,0,0,0-7.07,12.25l8.28,30.91a10,10,0,0,0,9.66,7.41,9.85,9.85,0,0,0,2.59-.34l11.59-3.1a10,10,0,0,0,7.07-12.25L426.4,73.33a10,10,0,0,0-9.65-7.41Z"/><path class="cls-17" d="M401.81,82l19.31-5.18-.51-1.93a4,4,0,0,0-4.9-2.83l-11.59,3.11a4,4,0,0,0-2.83,4.9Z"/><path class="cls-16" d="M449.13,160.24a5,5,0,0,1-4.62-3.09l-15.3-36.95,23.59-6.32,8.49,31.69a6,6,0,0,1-.11,11.62l-10.76,2.88a5.07,5.07,0,0,1-1.29.17Z"/><path class="cls-3" d="M450.68,117.55,459,148.46a3,3,0,0,1,3.77,2.71,3.08,3.08,0,0,1-2.33,3.12l-10.75,2.88a1.86,1.86,0,0,1-.52.07,2,2,0,0,1-1.85-1.24l-14-33.79,17.39-4.66m4.24-7.34-5.8,1.55-17.38,4.66-6.61,1.77,2.62,6.32,14,33.79A8,8,0,0,0,451.2,163L462,160.08a9,9,0,0,0,1.84-16.74L456.47,116l-1.55-5.79Z"/><path class="cls-18" d="M426.83,120.59a7,7,0,0,1-6.75-5.19L408.17,71a7,7,0,0,1,4.95-8.57L446,53.6a7,7,0,0,1,8.57,4.94L466.44,103a7,7,0,0,1-4.95,8.57l-32.84,8.8a6.94,6.94,0,0,1-1.82.24Z"/><path class="cls-3" d="M447.78,56.36a4,4,0,0,1,3.86,3l11.9,44.43a4,4,0,0,1-2.83,4.9l-32.84,8.8a3.67,3.67,0,0,1-1,.14,4,4,0,0,1-3.86-3l-11.9-44.43a4,4,0,0,1,2.83-4.9l32.84-8.8a4.06,4.06,0,0,1,1-.13m0-6a9.92,9.92,0,0,0-2.6.34l-32.84,8.8a10,10,0,0,0-7.07,12.25l11.91,44.43a10,10,0,0,0,12.25,7.07l32.84-8.8a10,10,0,0,0,7.07-12.25L457.43,57.77a10,10,0,0,0-9.65-7.41Z"/><path class="cls-19" d="M411.59,72.12l40.56-10.87-.51-1.93a4,4,0,0,0-4.9-2.83l-32.84,8.8a4,4,0,0,0-2.83,4.9Z"/><path class="cls-18" d="M459.58,130.59a3,3,0,0,1-2.9-2.22l-3.11-11.59a3,3,0,0,1,2.12-3.68l3.87-1a3,3,0,0,1,3.67,2.12l2.33,8.69a6,6,0,0,1-4.24,7.35l-1,.26A3,3,0,0,1,459.58,130.59Z"/><path class="cls-3" d="M460.33,115l2.33,8.69a3,3,0,0,1-2.12,3.67l-1,.26L456.47,116l3.86-1m0-6a6,6,0,0,0-1.56.2l-3.86,1a6,6,0,0,0-4.24,7.34l3.1,11.6a6,6,0,0,0,7.35,4.24l1-.26a9,9,0,0,0,6.36-11l-2.33-8.7a6,6,0,0,0-5.79-4.44Z"/><g class="cls-20"><polygon class="cls-3" points="433.29 122.21 435.6 127.81 452.23 123.35 450.68 117.56 433.29 122.21"/></g></g></g></g></svg>