<svg id="Layer_1" data-name="Layer 1" xmlns="http://www.w3.org/2000/svg" viewBox="0 0 240 240"><defs><style>.cls-1{fill:#8988c9;}.cls-2{fill:#515979;}.cls-3{fill:#f4f2ff;}.cls-4{fill:#f9f8ff;}.cls-5{fill:#c7bcff;}.cls-6{fill:#fff;}.cls-7{fill:#ef7d7d;}</style></defs><path class="cls-1" d="M209.89,194.13l-.24,0-179.78-17a2.54,2.54,0,0,1-2.31-2.54V65.47a2.54,2.54,0,0,1,2.31-2.54l179.78-17,.24,0a2.55,2.55,0,0,1,2.55,2.56V191.57a2.55,2.55,0,0,1-2.55,2.56Z"/><path class="cls-2" d="M209.89,48.43V191.57l-179.78-17V65.47l179.78-17m0-5.11-.48,0-179.78,17A5.12,5.12,0,0,0,25,65.47V174.53a5.12,5.12,0,0,0,4.63,5.09l179.78,17,.48,0a5.11,5.11,0,0,0,5.11-5.11V48.43a5.11,5.11,0,0,0-5.11-5.11Z"/><path class="cls-3" d="M200.52,189h-.26L29.86,172a2.55,2.55,0,0,1-2.3-2.54V70.58A2.55,2.55,0,0,1,29.86,68l170.4-17h.26a2.55,2.55,0,0,1,2.55,2.55V186.46a2.55,2.55,0,0,1-2.55,2.55Z"/><path class="cls-2" d="M200.52,53.54V186.46l-170.41-17V70.58l170.41-17m0-5.11a4.36,4.36,0,0,0-.51,0L29.6,65.5A5.11,5.11,0,0,0,25,70.58v98.84a5.11,5.11,0,0,0,4.6,5.08l170.41,17a4.36,4.36,0,0,0,.51,0,5.11,5.11,0,0,0,5.11-5.11V53.54a5.11,5.11,0,0,0-5.11-5.11Z"/><path class="cls-4" d="M192,194.13l-.27,0-161.89-17a2.55,2.55,0,0,1-2.28-2.54V65.47a2.55,2.55,0,0,1,2.28-2.54l161.89-17,.27,0a2.55,2.55,0,0,1,2.55,2.56V191.57a2.55,2.55,0,0,1-2.55,2.56Z"/><path class="cls-2" d="M192,48.43V191.57l-161.89-17V65.47L192,48.43m0-5.11a4.89,4.89,0,0,0-.54,0l-161.88,17A5.11,5.11,0,0,0,25,65.47V174.53a5.11,5.11,0,0,0,4.58,5.08l161.88,17,.54,0a5.1,5.1,0,0,0,5.11-5.11V48.43A5.1,5.1,0,0,0,192,43.32Z"/><path class="cls-5" d="M183.48,199.24l-.29,0-153.36-17a2.55,2.55,0,0,1-2.27-2.54V60.36a2.55,2.55,0,0,1,2.27-2.54l153.36-17,.29,0A2.55,2.55,0,0,1,186,43.32V196.68a2.55,2.55,0,0,1-2.55,2.56Z"/><path class="cls-2" d="M183.48,43.32V196.68l-153.37-17V60.36l153.37-17m0-5.11a5.44,5.44,0,0,0-.57,0l-153.36,17A5.11,5.11,0,0,0,25,60.36V179.64a5.11,5.11,0,0,0,4.55,5.08l153.36,17a5.44,5.44,0,0,0,.57,0,5.12,5.12,0,0,0,5.11-5.11V43.32a5.12,5.12,0,0,0-5.11-5.11Z"/><path class="cls-2" d="M120,121a1.72,1.72,0,0,1-.81-.21,7.42,7.42,0,0,0-6,0,1.7,1.7,0,1,1-1.61-3,10.78,10.78,0,0,1,9.28,0A1.71,1.71,0,0,1,120,121Z"/><circle class="cls-2" cx="116.17" cy="111.86" r="6.82"/><circle class="cls-6" cx="117.87" cy="111.86" r="1.7"/><path class="cls-2" d="M111.17,98a9.32,9.32,0,0,1,1.66-1.12,10.54,10.54,0,0,1,1.81-.73,10.1,10.1,0,0,1,4-.35,9.6,9.6,0,0,1,1,.18c.35.09.69.21,1,.32a9.66,9.66,0,0,1,1,.46,4.45,4.45,0,0,1,.91.56,7.53,7.53,0,0,1,2.59,3.15,1.74,1.74,0,0,1-2.34,2.29l-.33-.17a21.65,21.65,0,0,0-2.34-1.15,8.71,8.71,0,0,0-2.2-.58,13.51,13.51,0,0,0-2.5-.09c-.44,0-.9,0-1.37.11s-1,.12-1.38.12h-.52a1.69,1.69,0,0,1-1.69-1.71A1.71,1.71,0,0,1,111.17,98Z"/><path class="cls-2" d="M91,121a1.65,1.65,0,0,1-.8-.21,7.44,7.44,0,0,0-6.06,0,1.7,1.7,0,1,1-1.61-3,10.78,10.78,0,0,1,9.28,0A1.71,1.71,0,0,1,91,121Z"/><circle class="cls-2" cx="87.2" cy="111.86" r="6.82"/><circle class="cls-6" cx="88.9" cy="111.86" r="1.7"/><path class="cls-2" d="M90.57,101c-.39,0-.92-.09-1.38-.12s-.93-.08-1.37-.11a13.43,13.43,0,0,0-2.49.09,8.78,8.78,0,0,0-2.21.58,20.7,20.7,0,0,0-2.33,1.15l-.33.16a1.73,1.73,0,0,1-2.32-.78,1.75,1.75,0,0,1,0-1.5,7.58,7.58,0,0,1,2.58-3.15,4.52,4.52,0,0,1,.92-.56,9.51,9.51,0,0,1,1-.46c.35-.11.69-.23,1-.32a8.85,8.85,0,0,1,1.05-.18,10.07,10.07,0,0,1,4,.35,10.22,10.22,0,0,1,1.81.73A8.65,8.65,0,0,1,92.19,98a1.71,1.71,0,0,1,.19,2.4,1.68,1.68,0,0,1-1.28.6Z"/><circle class="cls-1" cx="66.75" cy="118.38" r="2.13"/><circle class="cls-1" cx="71.43" cy="127.75" r="2.13"/><circle class="cls-1" cx="62.06" cy="127.75" r="2.13"/><circle class="cls-1" cx="136.61" cy="118.38" r="2.13"/><circle class="cls-1" cx="141.3" cy="127.75" r="2.13"/><circle class="cls-1" cx="131.93" cy="127.75" r="2.13"/><path class="cls-2" d="M101.68,145.64a17.49,17.49,0,0,1-17.46-17.47A2.13,2.13,0,0,1,86.35,126H117a2.14,2.14,0,0,1,2.13,2.13A17.49,17.49,0,0,1,101.68,145.64Z"/><path class="cls-2" d="M117,128.17h0m0,0a15.34,15.34,0,1,1-30.67,0H117m0-4.26H86.35a4.26,4.26,0,0,0-4.26,4.26,19.6,19.6,0,0,0,39.19.16v-.16a4.26,4.26,0,0,0-4.26-4.26Zm0,8.52Z"/><ellipse class="cls-7" cx="101.68" cy="138.4" rx="11.41" ry="5.11"/><polygon class="cls-1" points="38.63 59.41 38.63 180.59 43.74 181.16 43.74 58.84 38.63 59.41"/></svg>