<svg width="497" height="250" viewBox="0 0 497 250" fill="none" xmlns="http://www.w3.org/2000/svg">
<path d="M244.882 22.0472H244.193V38.6811H85.9252V20.1772L83.8583 17.6181L84.9409 7.28347L89.9606 3.93701L100.197 5.51181H227.657V3.93701L244.193 5.51181L244.882 22.0472Z" fill="#656D78"/>
<path d="M244.193 38.6812V175.591C244.193 185.039 237.795 192.815 229.921 192.815H100.197C90.0591 196.26 80.7087 192.815 85.9252 175.591V38.6812H244.193Z" fill="#F4F6F8"/>
<path d="M244.193 38.6812V175.591C244.882 184.744 249.606 195.965 229.921 192.815H100.197C82.9724 194.882 82.9724 186.319 84.8425 179.528C85.9252 179.823 88.3858 179.921 89.4685 179.921H105.709C172.146 179.921 227.461 118.602 232.972 38.7796L244.193 38.6812Z" fill="#E4E8EB"/>
<path d="M106.102 27.7559C109.255 27.7559 111.811 25.2001 111.811 22.0473C111.811 18.8945 109.255 16.3386 106.102 16.3386C102.95 16.3386 100.394 18.8945 100.394 22.0473C100.394 25.2001 102.95 27.7559 106.102 27.7559Z" fill="#F16C7A"/>
<path d="M106.102 29.0355C102.264 29.0355 99.1142 25.8859 99.1142 22.0473C99.1142 18.2087 102.264 15.0591 106.102 15.0591C109.941 15.0591 113.091 18.2087 113.091 22.0473C113.091 25.8859 109.941 29.0355 106.102 29.0355ZM106.102 17.6181C103.642 17.6181 101.673 19.5866 101.673 22.0473C101.673 24.5079 103.642 26.4764 106.102 26.4764C108.563 26.4764 110.531 24.5079 110.531 22.0473C110.531 19.5866 108.563 17.6181 106.102 17.6181Z" fill="#3A312A"/>
<path d="M123.819 27.7559C126.972 27.7559 129.528 25.2001 129.528 22.0473C129.528 18.8945 126.972 16.3386 123.819 16.3386C120.666 16.3386 118.11 18.8945 118.11 22.0473C118.11 25.2001 120.666 27.7559 123.819 27.7559Z" fill="#D7E057"/>
<path d="M123.819 29.0355C119.98 29.0355 116.831 25.8859 116.831 22.0473C116.831 18.2087 119.98 15.0591 123.819 15.0591C127.657 15.0591 130.807 18.2087 130.807 22.0473C130.807 25.8859 127.657 29.0355 123.819 29.0355ZM123.819 17.6181C121.358 17.6181 119.39 19.5866 119.39 22.0473C119.39 24.5079 121.358 26.4764 123.819 26.4764C126.28 26.4764 128.248 24.5079 128.248 22.0473C128.248 19.5866 126.28 17.6181 123.819 17.6181Z" fill="#3A312A"/>
<path d="M141.535 27.7559C144.688 27.7559 147.244 25.2001 147.244 22.0473C147.244 18.8945 144.688 16.3386 141.535 16.3386C138.383 16.3386 135.827 18.8945 135.827 22.0473C135.827 25.2001 138.383 27.7559 141.535 27.7559Z" fill="#8AC6DD"/>
<path d="M141.535 29.0355C137.697 29.0355 134.547 25.8859 134.547 22.0473C134.547 18.2087 137.697 15.0591 141.535 15.0591C145.374 15.0591 148.524 18.2087 148.524 22.0473C148.524 25.8859 145.374 29.0355 141.535 29.0355ZM141.535 17.6181C139.075 17.6181 137.106 19.5866 137.106 22.0473C137.106 24.5079 139.075 26.4764 141.535 26.4764C143.996 26.4764 145.965 24.5079 145.965 22.0473C145.965 19.5866 143.996 17.6181 141.535 17.6181Z" fill="#3A312A"/>
<path d="M226.28 26.87H171.949C169.291 26.87 167.126 24.7047 167.126 22.0472C167.126 19.3897 169.291 17.2244 171.949 17.2244H226.28C228.937 17.2244 231.102 19.3897 231.102 22.0472C231.004 24.7047 228.937 26.87 226.28 26.87Z" fill="#FDF6EC" stroke="#35414D" stroke-width="2.3426" stroke-miterlimit="10"/>
<path d="M232.382 5.51181C238.878 5.51181 244.193 10.8268 244.193 17.3228V180.906C244.193 187.402 238.878 192.717 232.382 192.717H97.7362C91.2402 192.717 85.9252 187.402 85.9252 180.906V17.3228C85.9252 10.8268 91.2402 5.51181 97.7362 5.51181H232.382ZM232.382 0H97.7362C88.189 0 80.4134 7.77559 80.4134 17.3228V180.906C80.4134 190.453 88.189 198.228 97.7362 198.228H232.382C241.929 198.228 249.705 190.453 249.705 180.906V17.3228C249.705 7.77559 241.929 0 232.382 0Z" fill="#35414D"/>
<path d="M98.3268 144.587H136.811V155.217H98.3268V144.587Z" fill="#B3A4EE"/>
<path d="M136.811 144.587V155.217H98.3268V151.87H103.15C114.272 151.87 124.114 148.917 127.559 144.587H136.811Z" fill="#AC92EA"/>
<path d="M145.079 144.587H183.563V155.217H145.079V144.587Z" fill="#FBD277"/>
<path d="M191.831 144.587H230.315V155.217H191.831V144.587Z" fill="#B4DF80"/>
<path d="M230.315 144.587V155.217H191.831V151.87H196.654C207.776 151.87 217.618 148.917 221.063 144.587H230.315Z" fill="#9ED26A"/>
<path d="M183.563 144.587V155.217H145.079V151.87H149.902C161.024 151.87 170.866 148.917 174.311 144.587H183.563Z" fill="#FDCD56"/>
<path d="M136.811 169.587H112.205C111.319 169.587 110.531 168.701 110.531 167.618C110.531 166.535 111.319 165.65 112.205 165.65H136.811C137.697 165.65 138.484 166.535 138.484 167.618C138.484 168.701 137.697 169.587 136.811 169.587Z" fill="#434A54"/>
<path d="M105.512 169.587H98.3268C97.4409 169.587 96.6535 168.701 96.6535 167.618C96.6535 166.535 97.4409 165.65 98.3268 165.65H105.512C106.398 165.65 107.185 166.535 107.185 167.618C107.185 168.701 106.398 169.587 105.512 169.587Z" fill="#FFA733"/>
<path d="M136.811 182.185H98.3268C97.4409 182.185 96.6535 181.299 96.6535 180.217C96.6535 179.134 97.4409 178.248 98.3268 178.248H136.811C137.697 178.248 138.484 179.134 138.484 180.217C138.484 181.299 137.697 182.185 136.811 182.185Z" fill="#434A54"/>
<path d="M183.563 169.587H158.957C158.071 169.587 157.283 168.701 157.283 167.618C157.283 166.535 158.071 165.65 158.957 165.65H183.563C184.449 165.65 185.236 166.535 185.236 167.618C185.236 168.701 184.449 169.587 183.563 169.587Z" fill="#434A54"/>
<path d="M152.264 169.587H145.079C144.193 169.587 143.406 168.701 143.406 167.618C143.406 166.535 144.193 165.65 145.079 165.65H152.264C153.15 165.65 153.937 166.535 153.937 167.618C153.937 168.701 153.15 169.587 152.264 169.587Z" fill="#FF5A5A"/>
<path d="M183.563 182.185H145.079C144.193 182.185 143.406 181.299 143.406 180.217C143.406 179.134 144.193 178.248 145.079 178.248H183.563C184.449 178.248 185.236 179.134 185.236 180.217C185.236 181.299 184.449 182.185 183.563 182.185Z" fill="#434A54"/>
<path d="M230.315 169.587H205.709C204.823 169.587 204.035 168.701 204.035 167.618C204.035 166.535 204.823 165.65 205.709 165.65H230.315C231.201 165.65 231.988 166.535 231.988 167.618C231.988 168.701 231.201 169.587 230.315 169.587Z" fill="#434A54"/>
<path d="M198.917 169.587H191.732C190.846 169.587 190.059 168.701 190.059 167.618C190.059 166.535 190.846 165.65 191.732 165.65H198.917C199.803 165.65 200.591 166.535 200.591 167.618C200.591 168.701 199.902 169.587 198.917 169.587Z" fill="#D6DF58"/>
<path d="M230.315 182.185H191.831C190.945 182.185 190.157 181.299 190.157 180.217C190.157 179.134 190.945 178.248 191.831 178.248H230.315C231.201 178.248 231.988 179.134 231.988 180.217C231.89 181.299 231.201 182.185 230.315 182.185Z" fill="#434A54"/>
<path d="M227.461 78.4449H101.181C99.8032 78.4449 98.7205 77.3623 98.7205 75.9843C98.7205 74.6064 99.8032 73.5237 101.181 73.5237H227.362C228.74 73.5237 229.823 74.6064 229.823 75.9843C229.823 77.3623 228.839 78.4449 227.461 78.4449Z" fill="#35414D"/>
<path d="M202.067 87.8937H101.181C99.8032 87.8937 98.7205 86.811 98.7205 85.433C98.7205 84.0551 99.8032 82.9724 101.181 82.9724H201.968C203.346 82.9724 204.429 84.0551 204.429 85.433C204.429 86.811 203.445 87.8937 202.067 87.8937Z" fill="#35414D"/>
<path d="M227.461 103.15H101.181C99.8032 103.15 98.7205 102.067 98.7205 100.689C98.7205 99.3112 99.8032 98.2285 101.181 98.2285H227.362C228.74 98.2285 229.823 99.3112 229.823 100.689C229.921 102.067 228.839 103.15 227.461 103.15Z" fill="#35414D"/>
<path d="M215.551 112.599H101.181C99.8032 112.599 98.7205 111.516 98.7205 110.138C98.7205 108.76 99.8032 107.677 101.181 107.677H215.551C216.929 107.677 218.012 108.76 218.012 110.138C218.012 111.516 216.929 112.599 215.551 112.599Z" fill="#35414D"/>
<path d="M227.461 127.854H101.181C99.8032 127.854 98.7205 126.772 98.7205 125.394C98.7205 124.016 99.8032 122.933 101.181 122.933H227.362C228.74 122.933 229.823 124.016 229.823 125.394C229.823 126.772 228.839 127.854 227.461 127.854Z" fill="#35414D"/>
<path d="M190.256 137.205H101.181C99.8032 137.205 98.7205 136.122 98.7205 134.744C98.7205 133.366 99.8032 132.283 101.181 132.283H190.256C191.634 132.283 192.717 133.366 192.717 134.744C192.815 136.122 191.634 137.205 190.256 137.205Z" fill="#35414D"/>
<path d="M227.362 63.5827H101.181C99.8032 63.5827 98.7205 62.5 98.7205 61.122V50.4921C98.7205 49.1142 99.8032 48.0315 101.181 48.0315H227.362C228.74 48.0315 229.823 49.1142 229.823 50.4921V61.122C229.921 62.5 228.839 63.5827 227.362 63.5827ZM103.74 58.563H224.902V52.9528H103.74V58.563Z" fill="#35414D"/>
<path d="M63.878 174.803C63.878 172.146 62.5984 169.685 60.5315 168.209C61.0236 167.224 61.3189 166.24 61.3189 165.157C61.3189 161.417 58.1693 158.465 54.3307 158.465C54.3307 155.61 51.9685 153.248 49.1142 153.248C48.4252 153.248 47.8346 153.346 47.2441 153.543C47.0472 152.756 46.6535 151.968 46.063 151.378C45.2756 150.591 44.1929 150.197 43.1102 150.197C40.748 150.197 38.878 152.165 38.878 154.429V179.626H35.3346V154.331C35.3346 151.968 33.3661 150.098 31.1024 150.098C30.0197 150.098 28.937 150.492 28.1496 151.279C27.5591 151.87 27.1654 152.559 26.9685 153.445C26.378 153.248 25.7874 153.15 25.0984 153.15C22.2441 153.15 19.8819 155.512 19.8819 158.366C16.0433 158.366 12.8937 161.417 12.8937 165.059C12.8937 166.142 13.189 167.224 13.6811 168.11C11.6142 169.685 10.3346 172.146 10.3346 174.705C10.3346 176.772 11.122 178.642 12.4016 180.118C12.2047 180.413 12.1063 180.709 12.2047 181.102C12.8937 186.22 14.9606 191.043 17.6181 194.488C22.3425 200.295 24.7047 204.232 24.8031 210.335C24.4094 210.531 24.1142 211.024 24.1142 211.516V220.472C24.1142 222.244 25.3937 223.622 27.0669 223.917C27.8543 226.87 31.0039 229.134 34.8425 229.134H39.4685C43.3071 229.134 46.4567 226.87 47.1457 224.016C48.8189 223.819 50.0984 222.342 50.0984 220.571V217.126V211.614C50.0984 211.122 49.8032 210.728 49.4094 210.433C49.5079 204.232 51.8701 200.295 56.5945 194.587C59.3504 191.24 61.3189 186.319 62.0079 181.201C62.0079 180.905 61.9094 180.512 61.811 180.217C63.0905 178.74 63.878 176.87 63.878 174.803ZM13.0905 174.803C13.0905 173.031 13.9764 171.26 15.4528 170.276C15.9449 170.669 16.7323 171.161 17.815 171.555C18.0118 171.654 18.2087 171.654 18.4055 171.654C18.8976 171.654 19.4882 171.358 19.685 170.866C19.9803 170.177 19.685 169.39 18.9961 169.094C17.4213 168.405 16.7323 167.716 16.7323 167.716C16.0433 167.028 15.748 166.142 15.748 165.157C15.748 162.992 17.6181 161.22 19.9803 161.22C20.4724 161.22 20.9646 161.319 21.3583 161.417C21.8504 161.614 22.4409 161.417 22.8346 161.024C23.2283 160.63 23.3268 160.039 23.0315 159.547C22.8346 159.154 22.7362 158.76 22.7362 158.465C22.7362 157.087 23.8189 156.004 25.1968 156.004C25.9843 156.004 26.7717 156.398 27.1654 157.087C27.4606 157.579 28.1496 157.776 28.7402 157.579C29.3307 157.382 29.7244 156.89 29.7244 156.299V154.528C29.7244 154.134 29.9213 153.74 30.1181 153.445C30.4134 153.15 30.8071 153.051 31.2008 153.051C31.9882 153.051 32.6772 153.74 32.6772 154.528V158.563C31.5945 158.858 30.2165 159.646 29.3307 161.122C28.937 161.811 29.1339 162.598 29.8228 162.992C30.0197 163.091 30.315 163.189 30.5118 163.189C31.0039 163.189 31.4961 162.992 31.6929 162.5C31.8898 162.106 32.2835 161.713 32.6772 161.516V169.094C31.2008 169.39 28.8386 170.276 27.2638 173.13C26.8701 173.819 27.1654 174.606 27.7559 175C27.9528 175.098 28.1496 175.197 28.4449 175.197C28.937 175.197 29.4291 175 29.626 174.508C30.5118 172.933 31.6929 172.244 32.5787 172.047V179.823H18.9961C19.1929 179.626 19.4882 179.429 19.7835 179.232C20.374 178.74 20.4724 177.953 20.0787 177.264C19.5866 176.673 18.7992 176.575 18.1102 176.968C16.7323 177.953 15.9449 178.74 15.3543 179.331C13.878 178.15 13.0905 176.575 13.0905 174.803ZM39.4685 226.378H34.8425C32.7756 226.378 30.9055 225.394 30.1181 224.016H44.1929C43.4055 225.394 41.5354 226.378 39.4685 226.378ZM47.3425 220.571C47.3425 220.965 47.0472 221.26 46.6535 221.26H27.5591C27.1654 221.26 26.7717 220.965 26.7717 220.571V218.504H47.2441L47.3425 220.571ZM47.3425 215.748H26.8701V212.992H47.3425V215.748ZM54.4291 192.717C50.0984 197.933 46.8504 202.559 46.6535 210.138H27.5591C27.3622 202.559 24.0157 197.933 19.7835 192.717C17.6181 190.157 15.9449 186.319 15.1575 182.283H59.0551C58.2677 186.319 56.5945 190.157 54.4291 192.717ZM58.8583 179.134C58.2677 178.543 57.4803 177.756 56.1024 176.772C55.5118 176.279 54.626 176.476 54.1339 177.067C53.6417 177.657 53.8386 178.543 54.4291 179.035C54.7244 179.232 54.9213 179.429 55.2165 179.626H41.6339V171.85C42.5197 172.146 43.7008 172.736 44.5866 174.311C44.7835 174.803 45.2756 175 45.7677 175C45.9646 175 46.2598 174.902 46.4567 174.803C47.1457 174.409 47.3425 173.622 47.0472 172.933C45.4724 170.079 43.2087 169.193 41.6339 168.898V161.417C42.0276 161.614 42.3228 161.909 42.6181 162.402C42.9134 162.894 43.3071 163.091 43.7992 163.091C43.9961 163.091 44.2913 162.992 44.4882 162.894C45.1772 162.5 45.374 161.713 44.9803 161.024C44.0945 159.449 42.6181 158.76 41.6339 158.465V154.429C41.6339 153.642 42.3228 152.953 43.1102 152.953C43.6024 152.953 43.9961 153.15 44.1929 153.346C44.4882 153.642 44.5866 154.035 44.5866 154.429V156.201C44.5866 156.791 44.9803 157.382 45.5709 157.48C46.1614 157.677 46.752 157.48 47.1457 156.988C47.6378 156.299 48.3268 155.905 49.1142 155.905C50.4921 155.905 51.5748 156.988 51.5748 158.366C51.5748 158.76 51.4764 159.154 51.2795 159.449C51.0827 159.941 51.1811 160.531 51.4764 160.925C51.7717 161.319 52.4606 161.516 52.9528 161.319C53.3465 161.122 53.8386 161.122 54.3307 161.122C56.6929 161.122 58.563 162.894 58.563 165.059C58.563 166.043 58.1693 166.929 57.5787 167.618C57.4803 167.717 56.7913 168.307 55.315 168.996C54.626 169.291 54.3307 170.079 54.626 170.768C54.8228 171.26 55.315 171.555 55.9055 171.555C56.1024 171.555 56.2992 171.555 56.4961 171.457C57.5787 170.965 58.2677 170.472 58.8583 170.177C60.3346 171.161 61.2205 172.835 61.2205 174.705C61.122 176.575 60.2362 178.15 58.8583 179.134Z" fill="#35414D"/>
<path d="M32.5787 158.366V154.331C32.5787 153.543 31.8898 152.854 31.1024 152.854C30.7087 152.854 30.315 153.051 30.0197 153.248C29.7244 153.543 29.626 153.937 29.626 154.331V156.102C29.626 156.693 29.2323 157.283 28.6417 157.382C28.0512 157.579 27.4606 157.382 27.0669 156.89C26.5748 156.201 25.8858 155.807 25.0984 155.807C23.7205 155.807 22.6378 156.89 22.6378 158.268C22.6378 158.661 22.7362 158.957 22.9331 159.35C23.1299 159.842 23.0315 160.433 22.7362 160.827C22.3425 161.22 21.752 161.417 21.2598 161.22C20.8661 161.024 20.374 161.024 19.8819 161.024C17.5197 161.024 15.6496 162.795 15.6496 164.961C15.6496 165.945 16.0433 166.831 16.6339 167.52C16.6339 167.618 17.3228 168.209 18.8976 168.898C19.5866 169.193 19.8819 169.98 19.5866 170.669C19.3898 171.161 18.8976 171.457 18.3071 171.457C18.1102 171.457 17.9134 171.457 17.7165 171.358C16.6339 170.866 15.9449 170.374 15.3543 170.079C13.878 171.063 12.9921 172.736 12.9921 174.606C12.9921 176.378 13.7795 177.953 15.2559 179.035C15.8465 178.445 16.6339 177.657 18.0118 176.673C18.6024 176.181 19.4882 176.378 19.9803 176.968C20.4724 177.559 20.2756 178.445 19.685 178.937C19.3898 179.134 19.1929 179.331 18.8976 179.527H32.5787V171.752C31.6929 172.047 30.5118 172.638 29.626 174.213C29.4291 174.705 28.937 174.901 28.4449 174.901C28.248 174.901 27.9528 174.803 27.7559 174.705C27.0669 174.311 26.8701 173.524 27.2638 172.835C28.8386 169.98 31.1024 169.094 32.6772 168.799V161.417C32.2835 161.614 31.8898 161.909 31.6929 162.401C31.4961 162.894 31.0039 163.09 30.5118 163.09C30.315 163.09 30.0197 162.992 29.8228 162.894C29.1339 162.5 28.937 161.713 29.3307 161.024C30.1181 159.449 31.5945 158.76 32.5787 158.366ZM29.1339 165.748C29.1339 166.535 28.4449 167.126 27.7559 167.126C27.6575 167.126 24.311 167.126 23.7205 169.193C23.5236 169.783 23.0315 170.177 22.4409 170.177C22.3425 170.177 22.1457 170.177 22.0472 170.079C21.3583 169.882 20.8661 169.094 21.063 168.405C22.2441 164.37 27.5591 164.37 27.7559 164.37C28.5433 164.37 29.1339 164.961 29.1339 165.748Z" fill="#EFD299"/>
<path d="M58.7598 170.276C58.2677 170.669 57.4803 171.162 56.3976 171.555C56.2008 171.654 56.0039 171.654 55.8071 171.654C55.315 171.654 54.7244 171.358 54.5276 170.866C54.2323 170.177 54.5276 169.39 55.2165 169.095C56.7913 168.406 57.4803 167.717 57.4803 167.717C58.1693 167.028 58.4646 166.142 58.4646 165.158C58.4646 162.992 56.5945 161.221 54.2323 161.221C53.7402 161.221 53.248 161.319 52.8543 161.417C52.3622 161.614 51.7717 161.417 51.378 161.024C50.9843 160.63 50.8858 160.039 51.1811 159.547C51.378 159.252 51.4764 158.858 51.4764 158.465C51.4764 157.087 50.3937 156.004 49.0157 156.004C48.2283 156.004 47.4409 156.398 47.0472 157.087C46.752 157.579 46.063 157.776 45.4724 157.579C44.8819 157.382 44.4882 156.89 44.4882 156.299V154.528C44.4882 154.134 44.2913 153.74 44.0945 153.445C43.8976 153.248 43.5039 153.051 43.0118 153.051C42.2244 153.051 41.5354 153.74 41.5354 154.528V158.563C42.6181 158.858 43.9961 159.646 44.8819 161.122C45.2756 161.811 45.0787 162.599 44.3898 162.992C44.1929 163.091 43.8976 163.189 43.7008 163.189C43.2087 163.189 42.7165 162.992 42.5197 162.5C42.3228 162.106 41.9291 161.713 41.5354 161.516V169.095C43.0118 169.39 45.374 170.276 46.9488 173.13C47.3425 173.819 47.0472 174.606 46.3583 175C46.1614 175.099 45.9646 175.197 45.6693 175.197C45.1772 175.197 44.685 175 44.4882 174.508C43.6024 172.933 42.4213 172.244 41.5354 172.047V179.823H55.2165C55.0197 179.626 54.7244 179.429 54.4291 179.232C53.8386 178.74 53.7402 177.953 54.1339 177.264C54.626 176.673 55.4134 176.575 56.1024 176.969C57.4803 177.953 58.2677 178.74 58.8583 179.331C60.2362 178.347 61.122 176.673 61.122 174.902C61.122 172.933 60.2362 171.26 58.7598 170.276ZM52.2638 170.079C52.1654 170.079 51.9685 170.177 51.8701 170.177C51.2795 170.177 50.689 169.784 50.5906 169.193C50.2953 168.11 49.311 167.618 48.3268 167.421C47.4409 167.126 46.5551 167.126 46.5551 167.126C45.7677 167.126 45.1772 166.536 45.1772 165.748C45.1772 164.961 45.7677 164.37 46.5551 164.37C46.752 164.37 52.0669 164.37 53.248 168.406C53.3465 169.095 52.9528 169.882 52.2638 170.079Z" fill="#EFD299"/>
<path d="M21.9488 178.937C21.6535 179.134 21.4567 179.331 21.1614 179.527H18.9961C19.1929 179.331 19.4882 179.134 19.7835 178.937C20.374 178.445 20.4724 177.657 20.0787 176.968C20.1772 176.87 20.2756 176.772 20.374 176.772C20.9646 176.279 21.8504 176.476 22.3425 177.067C22.6378 177.657 22.5394 178.543 21.9488 178.937Z" fill="#DEC089"/>
<path d="M32.185 153.346C31.8898 153.642 31.7913 154.035 31.7913 154.429V156.201C31.7913 156.791 31.3976 157.382 30.8071 157.48C30.2165 157.677 29.626 157.48 29.3307 156.988C29.5276 156.791 29.626 156.496 29.626 156.102V154.331C29.626 153.937 29.8228 153.543 30.0197 153.248C30.315 152.953 30.7087 152.854 31.1024 152.854C31.4961 152.854 31.8898 153.051 32.185 153.346Z" fill="#DEC089"/>
<path d="M24.8032 158.268C24.8032 158.661 24.9016 158.957 25.0984 159.35C25.2953 159.843 25.1968 160.433 24.9016 160.827C24.6063 161.221 23.9173 161.417 23.4252 161.221C23.1299 161.122 22.8346 161.024 22.5394 161.024C22.6378 160.925 22.7362 160.925 22.7362 160.827C23.1299 160.433 23.2283 159.843 22.9331 159.35C22.7362 158.957 22.6378 158.563 22.6378 158.268C22.6378 156.89 23.7205 155.807 25.0984 155.807C25.4921 155.807 25.8858 155.906 26.1811 156.102C25.3937 156.496 24.8032 157.382 24.8032 158.268Z" fill="#DEC089"/>
<path d="M21.9488 170.079C21.9488 170.276 21.9488 170.571 21.8504 170.866C21.6535 171.358 21.1614 171.654 20.5709 171.654C20.374 171.654 20.1772 171.654 19.9803 171.555C19.7835 171.457 19.4882 171.358 19.2913 171.26C19.3898 171.161 19.4882 171.063 19.5866 170.866C19.8819 170.177 19.5866 169.39 18.8976 169.094C17.3228 168.405 16.6339 167.717 16.6339 167.717C15.9449 167.028 15.6496 166.142 15.6496 165.157C15.6496 162.992 17.5197 161.22 19.8819 161.22C20.2756 161.22 20.6693 161.22 20.9646 161.319C19.1929 161.811 17.815 163.386 17.815 165.157C17.815 166.142 18.2087 167.028 18.7992 167.717C18.7992 167.815 19.4882 168.405 20.9646 169.094C21.063 169.488 21.3583 169.98 21.9488 170.079Z" fill="#DEC089"/>
<path d="M15.2559 174.803C15.2559 176.083 15.6496 177.264 16.437 178.15C15.9449 178.543 15.6496 178.937 15.3543 179.232C13.9764 178.248 13.0906 176.575 13.0906 174.803C13.0906 173.032 13.9764 171.26 15.4528 170.276C15.748 170.472 16.2402 170.768 16.7323 171.063C15.8465 172.047 15.2559 173.327 15.2559 174.803Z" fill="#DEC089"/>
<path d="M55.315 179.626H53.1496C52.9528 179.429 52.6575 179.232 52.3622 179.035C51.7717 178.543 51.6732 177.756 52.0669 177.067C52.5591 176.476 53.3465 176.378 54.0354 176.772C54.1339 176.87 54.2323 176.968 54.3307 176.968C53.8386 177.559 54.0354 178.445 54.626 178.937C54.8228 179.232 55.0197 179.429 55.315 179.626Z" fill="#DEC089"/>
<path d="M61.122 174.803C61.122 176.575 60.3346 178.15 58.8583 179.232C58.563 178.937 58.1693 178.543 57.7756 178.15C58.4646 177.264 58.9567 176.083 58.9567 174.803C58.9567 173.425 58.4646 172.047 57.4803 171.063C57.9724 170.768 58.4646 170.472 58.7598 170.276C60.2362 171.26 61.122 172.933 61.122 174.803Z" fill="#DEC089"/>
<path d="M44.8819 156.988C44.4882 157.48 43.8976 157.677 43.4055 157.48C42.815 157.283 42.4213 156.791 42.4213 156.201V154.429C42.4213 154.035 42.3228 153.642 42.0276 153.445C42.3228 153.149 42.7165 152.953 43.1102 152.953C43.6024 152.953 43.9961 153.149 44.1929 153.346C44.4882 153.642 44.5866 154.035 44.5866 154.429V156.201C44.5866 156.398 44.685 156.693 44.8819 156.988Z" fill="#DEC089"/>
<path d="M51.6732 161.122C51.378 161.122 51.0827 161.22 50.7874 161.319C50.2953 161.516 49.7047 161.319 49.311 160.925C48.9173 160.532 48.8189 159.941 49.1142 159.449C49.311 159.154 49.4094 158.76 49.4094 158.366C49.4094 157.382 48.8189 156.594 48.0315 156.201C48.3268 156.004 48.7205 155.906 49.1142 155.906C50.4921 155.906 51.5748 156.988 51.5748 158.366C51.5748 158.76 51.4764 159.154 51.2795 159.449C51.0827 159.941 51.1811 160.532 51.4764 160.925C51.5748 161.024 51.6732 161.024 51.6732 161.122Z" fill="#DEC089"/>
<path d="M58.563 165.059C58.563 166.043 58.1693 166.929 57.5787 167.618C57.4803 167.717 56.7913 168.307 55.315 168.996C54.626 169.291 54.3307 170.079 54.626 170.768C54.7244 170.965 54.8228 171.063 54.9213 171.161C54.7244 171.26 54.5276 171.358 54.2323 171.457C54.0354 171.555 53.8386 171.555 53.6417 171.555C53.1496 171.555 52.5591 171.26 52.3622 170.768C52.2638 170.571 52.2638 170.276 52.2638 169.98C52.7559 169.784 53.1496 169.39 53.248 168.799C54.7244 168.11 55.315 167.52 55.4134 167.52C56.1024 166.831 56.3976 165.945 56.3976 164.961C56.3976 163.091 55.1181 161.516 53.248 161.122C53.5433 161.024 53.937 161.024 54.3307 161.024C56.6929 161.122 58.563 162.894 58.563 165.059Z" fill="#DEC089"/>
<path d="M44.1929 224.016C43.4055 225.394 41.5354 226.378 39.4685 226.378H34.8425C32.7756 226.378 30.9055 225.394 30.1181 224.016H44.1929Z" fill="#FF5A5A"/>
<path d="M26.8701 212.992H47.3425V215.748H26.8701V212.992Z" fill="#ECECEC"/>
<path d="M47.3425 218.504V220.571C47.3425 220.965 47.0472 221.26 46.6535 221.26H27.5591C27.1654 221.26 26.7717 220.965 26.7717 220.571V218.504H47.3425Z" fill="#ECECEC"/>
<path d="M59.0551 182.382C58.2677 186.417 56.5945 190.157 54.4291 192.815C50.0984 198.031 46.8504 202.657 46.6535 210.236H27.5591C27.3622 202.657 24.0157 198.031 19.7835 192.815C17.6181 190.256 15.9449 186.417 15.1575 182.382H59.0551Z" fill="#FFDC7C"/>
<path d="M59.0551 182.382C58.2677 186.417 56.5945 190.157 54.4291 192.815C50.0984 198.031 46.8504 202.657 46.6535 210.236H27.5591C27.3622 202.657 24.0157 198.031 19.7835 192.815C17.6181 190.256 15.9449 186.417 15.1575 182.382H18.4055C19.5866 185.925 20.8661 189.272 22.7362 191.535C26.2795 196.161 29.0354 200.197 29.2323 206.791H45.1772C45.374 200.197 48.1299 196.063 51.6732 191.535C53.4449 189.272 54.8228 185.925 55.9055 182.382H59.0551Z" fill="#EAC05C"/>
<path d="M52.2638 170.079C52.1654 170.079 51.9685 170.177 51.8701 170.177C51.2795 170.177 50.689 169.783 50.5906 169.193C50.2953 168.11 49.311 167.618 48.3268 167.421C47.4409 167.126 46.5551 167.126 46.5551 167.126C45.7677 167.126 45.1772 166.535 45.1772 165.748C45.1772 164.961 45.7677 164.37 46.5551 164.37C46.752 164.37 52.0669 164.37 53.248 168.406C53.3465 169.095 52.9528 169.882 52.2638 170.079Z" fill="#35414D"/>
<path d="M29.1339 165.748C29.1339 166.535 28.4449 167.126 27.7559 167.126C27.6575 167.126 24.311 167.126 23.7205 169.193C23.5236 169.783 23.0315 170.177 22.4409 170.177C22.3425 170.177 22.1457 170.177 22.0472 170.079C21.3583 169.882 20.8661 169.095 21.063 168.406C22.2441 164.37 27.5591 164.37 27.7559 164.37C28.5433 164.37 29.1339 164.961 29.1339 165.748Z" fill="#35414D"/>
<path d="M37.1063 144.488C37.8937 144.488 38.4842 143.898 38.4842 143.11V139.567C38.4842 138.78 37.8937 138.189 37.1063 138.189C36.3189 138.189 35.7283 138.78 35.7283 139.567V143.11C35.7283 143.898 36.3189 144.488 37.1063 144.488Z" fill="#35414D"/>
<path d="M19.9803 147.736C20.2756 148.13 20.6693 148.425 21.1614 148.425C21.4567 148.425 21.6535 148.327 21.8504 148.228C22.5394 147.835 22.7362 146.949 22.2441 146.358L20.2756 143.307C19.8819 142.618 18.9961 142.421 18.4055 142.914C17.7165 143.307 17.5197 144.193 18.0118 144.784L19.9803 147.736Z" fill="#35414D"/>
<path d="M5.51181 157.185L8.85827 158.957C9.05512 159.055 9.25197 159.154 9.54724 159.154C10.0394 159.154 10.5315 158.858 10.7283 158.465C11.122 157.776 10.8268 156.988 10.1378 156.594L6.79134 154.823C6.10236 154.429 5.31496 154.724 4.92126 155.413C4.62598 156.004 4.82283 156.89 5.51181 157.185Z" fill="#35414D"/>
<path d="M6.59449 172.441C6.59449 171.654 6.00394 171.063 5.21654 171.063H1.37795C0.590551 171.063 0 171.654 0 172.441C0 173.228 0.590551 173.819 1.37795 173.819H5.21654C6.00394 173.819 6.59449 173.228 6.59449 172.441Z" fill="#35414D"/>
<path d="M8.85827 185.925L5.51181 187.697C4.82283 188.09 4.62598 188.878 4.92126 189.567C5.11811 190.059 5.61023 190.256 6.10236 190.256C6.29921 190.256 6.49606 190.157 6.79134 190.059L10.1378 188.287C10.8268 187.894 11.0236 187.106 10.7283 186.417C10.4331 185.827 9.54724 185.531 8.85827 185.925Z" fill="#35414D"/>
<path d="M68.7008 187.697L65.3543 185.925C64.6654 185.531 63.878 185.827 63.4843 186.516C63.0905 187.205 63.3858 187.992 64.0748 188.386L67.4213 190.157C67.6181 190.256 67.815 190.354 68.1102 190.354C68.6024 190.354 69.0945 190.059 69.2913 189.665C69.5866 188.878 69.3898 188.09 68.7008 187.697Z" fill="#35414D"/>
<path d="M72.8346 171.063H68.8976C68.1102 171.063 67.5197 171.654 67.5197 172.441C67.5197 173.228 68.1102 173.819 68.8976 173.819H72.8346C73.622 173.819 74.2126 173.228 74.2126 172.441C74.2126 171.654 73.622 171.063 72.8346 171.063Z" fill="#35414D"/>
<path d="M64.6653 159.154C64.8622 159.154 65.0591 159.055 65.3543 158.957L68.7008 157.185C69.3898 156.791 69.5866 156.004 69.2913 155.315C68.8976 154.626 68.1102 154.429 67.4213 154.724L64.0748 156.496C63.3858 156.89 63.189 157.677 63.4842 158.366C63.6811 158.858 64.1732 159.154 64.6653 159.154Z" fill="#35414D"/>
<path d="M52.2638 148.228C52.4606 148.327 52.7559 148.425 52.9528 148.425C53.4449 148.425 53.8386 148.228 54.1339 147.736L56.1024 144.685C56.4961 143.996 56.2992 143.209 55.7087 142.815C55.0197 142.421 54.2323 142.618 53.8386 143.209L51.8701 146.26C51.4764 146.949 51.6732 147.835 52.2638 148.228Z" fill="#35414D"/>
<path d="M474.213 103.937C477.756 100.394 477.756 94.6849 474.213 91.1416C470.669 87.5983 464.961 87.5983 461.417 91.1416L474.213 103.937Z" fill="#FF5D5D"/>
<path d="M444.783 137.795L434.35 148.228C429.626 152.953 421.85 152.953 417.126 148.228C412.402 143.504 412.402 135.728 417.126 131.004L427.559 120.571L444.783 137.795Z" fill="#FF5A5A"/>
<path d="M444.783 137.894L457.087 150.098L449.606 157.48L437.402 145.275L444.783 137.894Z" fill="#87796F"/>
<path d="M444.783 137.894L427.559 120.571L446.457 76.1809L489.173 118.897L444.783 137.894Z" fill="#C1A897"/>
<path d="M477.854 123.819L489.173 118.897L446.457 76.1809L441.634 87.5982L477.854 123.819Z" fill="white"/>
<path d="M490.453 117.618L476.673 103.839L477.067 103.248C478.051 101.575 478.642 99.6062 478.642 97.6377C478.642 94.7834 477.559 92.0275 475.492 89.9606C473.425 87.8936 470.768 86.811 467.815 86.811C465.846 86.811 463.878 87.4015 462.205 88.3858L461.614 88.7795L447.835 74.9999C447.441 74.6062 447.047 74.5078 446.555 74.5078C446.457 74.5078 446.358 74.5078 446.161 74.5078C445.571 74.6062 445.079 74.9999 444.783 75.5905L425.984 119.685L415.748 129.921C413.091 132.579 411.614 136.122 411.614 139.862C411.614 143.602 413.091 147.146 415.748 149.803C418.405 152.461 421.949 153.937 425.689 153.937C429.429 153.937 432.972 152.461 435.63 149.803L437.402 148.031L449.213 159.842L449.803 159.941L458.268 151.476C458.957 150.787 458.957 149.606 458.268 148.917L447.933 138.583L489.862 120.768C490.453 120.571 490.846 119.98 490.945 119.39C491.142 118.701 490.945 118.11 490.453 117.618ZM465.551 90.748C466.339 90.4527 467.028 90.3543 467.815 90.3543C469.685 90.3543 471.555 91.1417 472.933 92.4212C474.311 93.7992 475 95.5708 475 97.5393C475 98.3267 474.902 99.1141 474.606 99.8031L474.114 101.279L464.075 91.2401L465.551 90.748ZM433.071 146.949C431.102 148.917 428.543 150 425.787 150C423.031 150 420.374 148.917 418.504 146.949C416.535 144.98 415.453 142.421 415.453 139.665C415.453 136.909 416.535 134.252 418.504 132.382L427.657 123.228L442.323 137.894L433.071 146.949ZM454.429 150.098L449.606 154.921L439.961 145.276L444.783 140.453L454.429 150.098ZM445.276 135.728L429.724 120.177L442.224 90.8464L474.606 123.228L445.276 135.728ZM478.248 121.653L443.799 87.2047L447.146 79.4291L486.024 118.307L478.248 121.653Z" fill="#35414D"/>
<path d="M483.76 83.7596C483.268 83.7596 482.776 83.5628 482.48 83.2675C481.791 82.5785 481.791 81.3974 482.48 80.7084L493.701 69.488C494.094 69.0943 494.488 68.9958 494.98 68.9958C495.472 68.9958 495.965 69.1927 496.26 69.488C496.949 70.177 496.949 71.3581 496.26 72.047L485.039 83.2675C484.646 83.5628 484.252 83.7596 483.76 83.7596Z" fill="#FF5A5A"/>
<path d="M473.327 78.0511C472.343 78.0511 471.457 77.2637 471.457 76.181V70.5708C471.457 69.5865 472.244 68.7007 473.327 68.7007C474.311 68.7007 475.197 69.4881 475.197 70.5708V76.181C475.098 77.1652 474.311 78.0511 473.327 78.0511Z" fill="#FF5A5A"/>
<path d="M489.272 93.996C488.287 93.996 487.402 93.2086 487.402 92.1259C487.402 91.0433 488.189 90.2559 489.272 90.2559H495.079C496.063 90.2559 496.949 91.0433 496.949 92.1259C496.949 93.2086 496.161 93.996 495.079 93.996H489.272Z" fill="#FF5A5A"/>
<path d="M326.673 188.09C326.673 164.37 345.866 145.177 369.587 145.177C381.398 145.177 392.126 150 399.902 157.776V60.9251C399.902 57.9724 399.213 55.2165 397.933 52.8542H192.815C191.535 55.3149 190.846 58.0708 190.846 60.9251V201.87C190.846 211.713 198.819 219.685 208.661 219.685H340.551C331.988 211.909 326.673 200.59 326.673 188.09Z" fill="#FFF2E8"/>
<path d="M303.15 43.1101H204.921C196.949 43.1101 190.453 49.5077 190.453 57.3818V70.6692H400.591V57.3818C400.591 49.5077 394.094 43.1101 386.122 43.1101H315.256H303.15Z" fill="#87796F"/>
<path d="M213.484 62.9921C216.854 62.9921 219.587 60.26 219.587 56.8897C219.587 53.5195 216.854 50.7874 213.484 50.7874C210.114 50.7874 207.382 53.5195 207.382 56.8897C207.382 60.26 210.114 62.9921 213.484 62.9921Z" fill="#F16C7A"/>
<path d="M213.484 64.3701C209.35 64.3701 206.004 61.0236 206.004 56.8897C206.004 52.7559 209.35 49.4094 213.484 49.4094C217.618 49.4094 220.965 52.7559 220.965 56.8897C220.965 61.0236 217.618 64.3701 213.484 64.3701ZM213.484 52.0669C210.827 52.0669 208.661 54.2323 208.661 56.8897C208.661 59.5472 210.827 61.7126 213.484 61.7126C216.142 61.7126 218.307 59.5472 218.307 56.8897C218.307 54.2323 216.142 52.0669 213.484 52.0669Z" fill="#3A312A"/>
<path d="M239.272 62.9921C242.642 62.9921 245.374 60.26 245.374 56.8897C245.374 53.5195 242.642 50.7874 239.272 50.7874C235.901 50.7874 233.169 53.5195 233.169 56.8897C233.169 60.26 235.901 62.9921 239.272 62.9921Z" fill="#D7E057"/>
<path d="M239.272 64.3701C235.138 64.3701 231.791 61.0236 231.791 56.8897C231.791 52.7559 235.138 49.4094 239.272 49.4094C243.406 49.4094 246.752 52.7559 246.752 56.8897C246.752 61.0236 243.406 64.3701 239.272 64.3701ZM239.272 52.0669C236.614 52.0669 234.449 54.2323 234.449 56.8897C234.449 59.5472 236.614 61.7126 239.272 61.7126C241.929 61.7126 244.094 59.5472 244.094 56.8897C243.996 54.2323 241.831 52.0669 239.272 52.0669Z" fill="#3A312A"/>
<path d="M264.961 62.9921C268.331 62.9921 271.063 60.26 271.063 56.8897C271.063 53.5195 268.331 50.7874 264.961 50.7874C261.59 50.7874 258.858 53.5195 258.858 56.8897C258.858 60.26 261.59 62.9921 264.961 62.9921Z" fill="#8AC6DD"/>
<path d="M264.961 64.3701C260.827 64.3701 257.48 61.0236 257.48 56.8897C257.48 52.7559 260.827 49.4094 264.961 49.4094C269.094 49.4094 272.441 52.7559 272.441 56.8897C272.441 61.0236 269.094 64.3701 264.961 64.3701ZM264.961 52.0669C262.303 52.0669 260.138 54.2323 260.138 56.8897C260.138 59.5472 262.303 61.7126 264.961 61.7126C267.618 61.7126 269.783 59.5472 269.783 56.8897C269.685 54.2323 267.618 52.0669 264.961 52.0669Z" fill="#3A312A"/>
<path d="M213.287 180.217H230.512V204.921H213.287V180.217Z" fill="#EF6D7A"/>
<path d="M230.61 206.201H213.386C212.598 206.201 212.008 205.61 212.008 204.823V180.118C212.008 179.331 212.598 178.74 213.386 178.74H230.61C231.398 178.74 231.988 179.331 231.988 180.118V204.823C231.89 205.61 231.299 206.201 230.61 206.201ZM214.665 203.543H229.232V181.595H214.665V203.543Z" fill="#3A312A"/>
<path d="M237.303 155.118H254.528V204.823H237.303V155.118Z" fill="#D6DF58"/>
<path d="M254.528 206.201H237.303C236.516 206.201 235.925 205.61 235.925 204.823V155.118C235.925 154.331 236.516 153.74 237.303 153.74H254.528C255.315 153.74 255.906 154.331 255.906 155.118V204.823C255.906 205.61 255.315 206.201 254.528 206.201ZM238.681 203.543H253.248V156.496H238.681V203.543Z" fill="#3A312A"/>
<path d="M261.22 167.815H278.543V204.921H261.319V167.815H261.22Z" fill="#8AC5DC"/>
<path d="M278.543 206.201H261.319C260.531 206.201 259.941 205.61 259.941 204.823V167.717C259.941 166.929 260.531 166.339 261.319 166.339H278.543C279.331 166.339 279.921 166.929 279.921 167.717V204.823C279.823 205.61 279.232 206.201 278.543 206.201ZM262.598 203.543H277.165V169.193H262.598V203.543Z" fill="#3A312A"/>
<path d="M285.236 145.374H302.461V204.823H285.236V145.374Z" fill="#87796F"/>
<path d="M302.461 206.201H285.236C284.449 206.201 283.858 205.61 283.858 204.823V145.374C283.858 144.587 284.449 143.996 285.236 143.996H302.461C303.248 143.996 303.839 144.587 303.839 145.374V204.823C303.839 205.61 303.248 206.201 302.461 206.201ZM286.614 203.543H301.181V146.85H286.614V203.543Z" fill="#3A312A"/>
<path d="M350.295 115.354H380.118C381.693 115.354 382.972 114.075 382.972 112.5C382.972 110.925 381.693 109.646 380.118 109.646H350.295C348.72 109.646 347.441 110.925 347.441 112.5C347.441 114.075 348.72 115.354 350.295 115.354Z" fill="#35414D"/>
<path d="M350.295 87.8937H380.118C381.693 87.8937 382.972 86.6142 382.972 85.0394C382.972 83.4646 381.693 82.1851 380.118 82.1851H350.295C348.72 82.1851 347.441 83.4646 347.441 85.0394C347.441 86.6142 348.72 87.8937 350.295 87.8937Z" fill="#35414D"/>
<path d="M350.295 101.673H380.118C381.693 101.673 382.972 100.394 382.972 98.8189C382.972 97.2441 381.693 95.9646 380.118 95.9646H350.295C348.72 95.9646 347.441 97.2441 347.441 98.8189C347.441 100.394 348.72 101.673 350.295 101.673Z" fill="#35414D"/>
<path d="M333.465 87.8937H337.894C339.468 87.8937 340.748 86.6142 340.748 85.0394C340.748 83.4646 339.468 82.1851 337.894 82.1851H333.465C331.89 82.1851 330.61 83.4646 330.61 85.0394C330.61 86.6142 331.89 87.8937 333.465 87.8937Z" fill="#FFA733"/>
<path d="M333.465 101.673H337.894C339.468 101.673 340.748 100.394 340.748 98.8189C340.748 97.2441 339.468 95.9646 337.894 95.9646H333.465C331.89 95.9646 330.61 97.2441 330.61 98.8189C330.61 100.394 331.89 101.673 333.465 101.673Z" fill="#FF5A5A"/>
<path d="M333.465 115.354H337.894C339.468 115.354 340.748 114.075 340.748 112.5C340.748 110.925 339.468 109.646 337.894 109.646H333.465C331.89 109.646 330.61 110.925 330.61 112.5C330.61 114.075 331.89 115.354 333.465 115.354Z" fill="#35414D"/>
<path d="M377.756 62.008H297.835C294.98 62.008 292.717 59.6457 292.717 56.8898C292.717 54.0355 295.079 51.7717 297.835 51.7717H377.756C380.61 51.7717 382.874 54.1339 382.874 56.8898C382.972 59.7442 380.61 62.008 377.756 62.008Z" fill="#FDF6EC" stroke="#35414D" stroke-width="2.8877" stroke-miterlimit="10"/>
<path d="M238.976 124.409C234.744 124.409 232.382 124.016 231.89 123.327L225.591 113.091L225.492 112.894C225.197 112.205 224.508 111.811 223.819 111.811C223.72 111.811 223.524 111.811 223.425 111.811C222.539 112.008 221.949 112.697 221.949 113.583C221.949 114.173 221.555 120.965 221.457 121.555C221.358 122.539 221.161 123.425 220.965 123.72H214.075C213.484 123.72 212.205 123.425 212.205 122.638C212.106 107.972 212.008 88.9764 211.909 81.8898C211.909 81.8898 211.909 81.8898 211.909 81.7914C215.65 81.2992 216.634 81.1024 216.831 81.1024C216.929 81.1024 217.126 81.1024 217.323 81.1024C217.913 81.1024 218.799 81.004 219.193 81.004C219.39 81.004 219.98 81.004 220.472 81.004C220.866 81.004 221.26 81.004 221.555 81.004C221.85 81.004 221.949 81.1024 221.949 81.7914C221.949 83.3662 221.85 85.0394 221.752 86.6142C221.654 88.2874 221.555 89.9606 221.555 91.7323V92.5197C221.555 93.3071 221.949 94.0945 222.638 94.3898C222.933 94.4882 223.13 94.5866 223.425 94.5866C224.114 94.5866 224.803 94.1929 225.098 93.504L229.921 83.563C231.398 80.6103 232.874 80.2166 233.957 80.2166H234.744C235.433 80.315 237.5 80.7087 238.091 80.8071C238.189 80.8071 238.287 80.8071 238.386 80.8071C238.681 80.8071 239.469 81.004 239.961 81.2008C240.551 81.2992 241.142 81.4961 241.437 81.4961C241.732 81.5945 241.929 81.6929 241.929 81.7914C241.929 81.9882 241.929 82.0866 241.929 82.1851L230.906 101.673C230.709 101.969 230.61 102.264 230.61 102.657V102.953C230.61 103.445 230.807 103.839 231.102 104.134C232.185 105.413 236.909 111.417 237.795 112.697C238.091 113.091 239.567 115.453 240.059 116.24C240.354 116.929 241.929 120.079 242.323 120.866C242.323 120.866 242.323 120.965 242.421 120.965C242.618 121.26 242.815 121.949 242.815 122.343C242.815 123.032 242.421 123.622 241.634 123.917H238.976V124.409Z" fill="#35414D"/>
<path d="M262.106 123.228C258.563 123.228 257.579 122.638 256.89 119.882C256.693 118.898 256.102 116.142 256.004 115.453L251.87 82.3819V81.9882C252.165 81.8898 252.854 81.5945 254.724 81.5945C255.217 81.5945 255.61 81.5945 256.004 81.5945C256.299 81.5945 256.594 81.5945 256.791 81.5945C262.598 81.5945 262.795 84.1536 262.795 85.2362L263.78 105.512C263.78 106.398 264.469 107.185 265.354 107.283C265.453 107.283 265.551 107.283 265.65 107.283C266.437 107.283 267.126 106.791 267.421 106.004C267.717 105.118 269.291 101.575 270.079 99.9016L270.571 98.9173C272.244 95.1772 273.228 94.1929 277.165 94.1929H278.839C279.823 94.3898 280.807 94.9803 281.594 97.1457C281.791 97.6378 282.087 98.8189 282.48 100.197C283.071 102.165 283.76 104.429 284.055 105.217C284.154 105.512 284.252 105.906 284.547 106.496C284.843 107.185 285.63 107.677 286.319 107.579C287.106 107.579 287.697 107.087 287.992 106.398L288.189 105.906C288.189 105.807 288.287 105.709 288.287 105.61C292.421 87.3032 294.094 80.9055 297.047 80.9055C298.13 80.9055 303.445 81.1024 303.445 84.3504C303.445 85.4331 303.346 85.8268 303.15 86.9095L294.98 116.634L294.783 117.52V117.618C293.996 120.571 293.11 122.933 291.437 122.933C289.469 122.933 287.402 122.835 285.827 122.736C283.957 122.638 283.563 122.244 283.563 122.244L276.968 112.697C276.87 112.598 276.772 112.402 276.673 112.303L276.181 111.909C275.787 111.614 275.394 111.417 274.902 111.417C274.705 111.417 274.606 111.417 274.409 111.516C273.819 111.713 273.425 112.106 273.13 112.598C273.031 112.795 272.539 113.484 272.343 113.78C272.343 113.878 272.244 113.878 272.244 113.976C271.654 115.059 269.291 119.488 268.799 120.374C267.618 122.835 265.453 123.228 262.106 123.228Z" fill="#35414D"/>
<path d="M190.846 216.831V219.685H193.701C192.717 218.897 191.732 217.913 190.846 216.831Z" fill="#FFF2E8"/>
<path d="M400 219.685V218.504C399.606 218.898 399.114 219.39 398.72 219.783H400V219.685Z" fill="#FFF2E8"/>
<path d="M193.701 219.685C197.736 223.13 202.953 225.197 208.76 225.197H348.031C345.374 223.622 342.815 221.752 340.551 219.685H193.701Z" fill="#35414D"/>
<path d="M190.846 60.9252V52.8543H192.815C195.768 47.0472 201.772 43.1102 208.76 43.1102H382.185C389.173 43.1102 395.177 47.0472 398.13 52.8543H400.098V157.776C402.165 159.842 403.937 162.106 405.61 164.468V60.9252C405.61 48.0315 395.177 37.5984 382.283 37.5984H208.76C195.866 37.5984 185.433 48.0315 185.433 60.9252V201.87C185.433 207.579 187.5 212.795 190.945 216.929V201.87V60.9252H190.846Z" fill="#35414D"/>
<path d="M190.846 52.8542V60.9251C190.846 57.9724 191.535 55.2165 192.815 52.8542H190.846Z" fill="#35414D"/>
<path d="M400 157.776V52.8542H398.031C399.311 55.3149 400 58.0708 400 60.9251V157.776Z" fill="#35414D"/>
<path d="M340.551 219.685H208.661C198.819 219.685 190.846 211.713 190.846 201.87V216.929C191.732 217.913 192.618 218.898 193.701 219.784H340.551V219.685Z" fill="#35414D"/>
<path d="M397.146 219.685H398.72C399.213 219.291 399.606 218.897 400 218.405V216.831C399.114 217.913 398.13 218.897 397.146 219.685Z" fill="white"/>
<path d="M332.382 207.283C332.382 210.63 329.724 213.287 326.378 213.287C323.032 213.287 320.374 210.63 320.374 207.283C320.374 204.035 323.032 201.28 326.378 201.28C329.724 201.28 332.382 203.937 332.382 207.283Z" fill="#07BEEF"/>
<path d="M364.665 179.429C364.665 182.775 362.008 185.433 358.661 185.433C355.315 185.433 352.657 182.775 352.657 179.429C352.657 176.181 355.315 173.425 358.661 173.425C362.008 173.425 364.665 176.181 364.665 179.429Z" fill="#FC635B"/>
<path d="M396.949 199.114C396.949 202.461 394.291 205.118 390.945 205.118C387.697 205.118 384.941 202.461 384.941 199.114C384.941 195.866 387.598 193.11 390.945 193.11C394.291 193.11 396.949 195.768 396.949 199.114Z" fill="#7EC927"/>
<path d="M429.232 167.913C429.232 171.26 426.575 173.917 423.228 173.917C419.98 173.917 417.224 171.26 417.224 167.913C417.224 164.665 419.882 161.909 423.228 161.909C426.575 162.008 429.232 164.665 429.232 167.913Z" fill="#FFA733"/>
<path d="M332.382 206.988V207.185C332.382 210.531 329.724 213.189 326.378 213.189C323.032 213.189 320.374 210.531 320.374 207.185C320.374 205.413 321.161 203.74 322.441 202.657C322.539 205.807 325.197 208.366 328.445 208.366C330.02 208.465 331.299 207.874 332.382 206.988Z" fill="#00B6E0"/>
<path d="M364.665 179.232V179.429C364.665 182.776 362.008 185.433 358.661 185.433C355.315 185.433 352.657 182.776 352.657 179.429C352.657 177.658 353.445 175.984 354.724 174.902C354.823 178.051 357.48 180.709 360.728 180.709C362.303 180.709 363.583 180.118 364.665 179.232Z" fill="#F34234"/>
<path d="M396.949 198.819V199.114C396.949 202.461 394.291 205.118 390.945 205.118C387.598 205.118 384.941 202.461 384.941 199.114C384.941 197.343 385.728 195.669 387.008 194.587C387.205 197.736 389.764 200.295 393.012 200.295C394.488 200.295 395.866 199.803 396.949 198.819Z" fill="#60A917"/>
<path d="M429.232 167.716V167.913C429.232 171.26 426.575 173.917 423.228 173.917C419.98 173.917 417.224 171.26 417.224 167.913C417.224 166.142 418.012 164.567 419.291 163.386C419.488 166.535 422.047 169.094 425.295 169.094C426.772 169.193 428.15 168.602 429.232 167.716Z" fill="#FF9801"/>
<path d="M326.378 215.256C330.807 215.256 334.35 211.713 334.35 207.283C334.35 206.004 333.957 204.724 333.465 203.642L353.642 185.63C355.02 186.811 356.791 187.5 358.661 187.5C361.024 187.5 363.091 186.516 364.567 184.842L383.169 197.441C383.071 198.031 382.972 198.524 382.972 199.114C382.972 203.543 386.516 207.087 390.945 207.087C395.374 207.087 398.917 203.543 398.917 199.114C398.917 197.933 398.622 196.85 398.13 195.768L418.996 174.705C420.177 175.492 421.654 175.886 423.228 175.886C427.657 175.886 431.201 172.342 431.201 167.913C431.201 163.484 427.657 159.941 423.228 159.941C418.799 159.941 415.256 163.484 415.256 167.913C415.256 169.291 415.65 170.669 416.339 171.752L395.669 192.618C394.39 191.634 392.717 191.043 390.945 191.043C388.583 191.043 386.417 192.126 385.039 193.701L366.437 181.102C366.535 180.512 366.634 179.921 366.634 179.232C366.634 174.803 363.091 171.26 358.661 171.26C354.232 171.26 350.689 174.803 350.689 179.232C350.689 180.217 350.886 181.201 351.28 182.185L330.807 200.492C329.528 199.606 328.051 199.114 326.378 199.114C321.949 199.114 318.406 202.657 318.406 207.087C318.406 211.614 322.047 215.256 326.378 215.256ZM423.228 163.976C425.394 163.976 427.264 165.748 427.264 168.012C427.264 170.177 425.492 172.047 423.228 172.047C421.063 172.047 419.193 170.276 419.193 168.012C419.193 165.748 421.063 163.976 423.228 163.976ZM390.945 195.079C393.11 195.079 394.98 196.85 394.98 199.114C394.98 201.28 393.209 203.15 390.945 203.15C388.681 203.15 386.909 201.378 386.909 199.114C386.909 196.85 388.78 195.079 390.945 195.079ZM358.661 175.492C360.827 175.492 362.697 177.264 362.697 179.528C362.697 181.791 360.925 183.563 358.661 183.563C356.398 183.563 354.626 181.791 354.626 179.528C354.626 177.264 356.496 175.492 358.661 175.492ZM326.378 203.248C328.543 203.248 330.413 205.02 330.413 207.283C330.413 209.449 328.642 211.319 326.378 211.319C324.114 211.319 322.343 209.547 322.343 207.283C322.343 205.02 324.213 203.248 326.378 203.248Z" fill="#35414D"/>
<path d="M388.878 218.012L392.815 221.85L397.441 226.476L414.075 243.012L419.094 229.626L398.13 208.858L388.878 218.012Z" fill="#5D6D7E"/>
<path d="M409.055 217.52L428.051 236.516C429.528 237.894 430.413 239.96 430.315 242.126C430.315 244.291 429.429 246.26 428.051 247.736C426.673 249.114 424.705 250 422.441 250C420.276 250 418.307 249.114 416.831 247.736L397.835 228.74L409.055 217.52Z" fill="#FF8E31"/>
<path d="M406.496 220.177L408.071 218.602L427.067 237.598C428.248 238.779 428.937 240.354 428.937 242.126C428.937 243.799 428.248 245.472 427.067 246.653C426.87 246.85 426.575 246.949 426.28 246.949C425.984 246.949 425.689 246.85 425.492 246.653C425.098 246.26 425.098 245.571 425.492 245.079C426.279 244.291 426.673 243.209 426.673 242.126C426.673 241.043 426.279 239.961 425.492 239.173L406.496 220.177Z" fill="#FECE59"/>
<path d="M397.933 228.642L409.055 217.52L408.268 216.732C407.776 216.24 407.087 215.945 406.299 215.945C405.512 215.945 404.823 216.24 404.331 216.732L397.047 224.016C396.555 224.508 396.26 225.197 396.26 225.984C396.26 226.772 396.555 227.461 397.047 227.953L397.933 228.642Z" fill="#34495E"/>
<path opacity="0.3" d="M369.587 160.039C353.445 160.039 340.354 173.13 340.354 189.272C340.354 205.413 353.445 218.504 369.587 218.504C385.728 218.504 398.819 205.413 398.819 189.272C398.819 173.13 385.728 160.039 369.587 160.039Z" fill="#34495E"/>
<path d="M369.587 153.642C349.902 153.642 333.957 169.586 333.957 189.272C333.957 208.957 349.902 224.901 369.587 224.901C389.272 224.901 405.217 208.957 405.217 189.272C405.217 169.586 389.272 153.642 369.587 153.642ZM369.587 221.063C352.067 221.063 337.795 206.791 337.795 189.272C337.795 171.752 352.067 157.48 369.587 157.48C387.106 157.48 401.378 171.752 401.378 189.272C401.378 206.89 387.106 221.063 369.587 221.063Z" fill="#34495E"/>
<path d="M369.587 157.48C352.067 157.48 337.795 171.752 337.795 189.272C337.795 206.791 352.067 221.063 369.587 221.063C387.106 221.063 401.378 206.791 401.378 189.272C401.378 171.752 387.106 157.48 369.587 157.48ZM369.587 218.504C353.445 218.504 340.354 205.413 340.354 189.272C340.354 173.13 353.445 160.039 369.587 160.039C385.728 160.039 398.819 173.13 398.819 189.272C398.819 205.413 385.728 218.504 369.587 218.504Z" fill="#5D6D7E"/>
<path opacity="0.2" d="M370.374 164.862C369.882 164.075 368.996 163.681 368.11 163.681C364.075 163.878 360.236 165.059 356.791 167.126C355.61 167.815 355.118 169.39 355.906 170.669C356.594 171.85 358.169 172.342 359.449 171.555C362.205 169.98 365.256 168.996 368.504 168.799C369.882 168.701 370.965 167.519 370.965 166.043C370.768 165.649 370.571 165.256 370.374 164.862Z" fill="white"/>
<path opacity="0.2" d="M353.839 173.327C353.74 173.13 353.543 172.933 353.346 172.736C352.264 171.85 350.591 172.047 349.705 173.13C347.047 176.378 345.276 180.216 344.488 184.35C343.504 189.272 343.996 194.291 345.965 198.917C346.555 200.197 348.031 200.886 349.311 200.295C350.591 199.803 351.279 198.228 350.689 196.949C349.213 193.307 348.819 189.272 349.606 185.335C350.197 182.086 351.673 178.937 353.74 176.378C354.429 175.492 354.429 174.212 353.839 173.327Z" fill="white"/>
<path fill-rule="evenodd" clip-rule="evenodd" d="M199.705 200.197C199.705 208.858 195.669 217.421 188.091 222.835L171.752 200.197H176.476H199.705Z" fill="#FFB54C"/>
<path d="M171.85 229.232C187.832 229.232 200.787 216.277 200.787 200.295C200.787 184.314 187.832 171.358 171.85 171.358C155.869 171.358 142.913 184.314 142.913 200.295C142.913 216.277 155.869 229.232 171.85 229.232Z" fill="#35414D"/>
<path d="M171.752 228.15C187.19 228.15 199.705 215.635 199.705 200.197C199.705 184.759 187.19 172.244 171.752 172.244C156.314 172.244 143.799 184.759 143.799 200.197C143.799 215.635 156.314 228.15 171.752 228.15Z" fill="#35414D"/>
<path fill-rule="evenodd" clip-rule="evenodd" d="M171.752 172.244C187.205 172.244 199.705 184.744 199.705 200.197H171.752V172.244Z" fill="#35414D"/>
<path fill-rule="evenodd" clip-rule="evenodd" d="M188.583 218.898L177.067 202.953H196.752C196.063 209.252 193.11 214.862 188.583 218.898Z" fill="#FFA733"/>
<path fill-rule="evenodd" clip-rule="evenodd" d="M146.555 200.197C146.555 214.075 157.874 225.394 171.752 225.394C176.28 225.394 180.512 224.213 184.154 222.146L169.587 201.772C169.291 201.28 169.094 200.788 169.094 200.197V175.197C156.398 176.575 146.555 187.205 146.555 200.197Z" fill="#2FB1D4"/>
<path fill-rule="evenodd" clip-rule="evenodd" d="M196.752 197.441H174.508V175.197C186.22 176.477 195.472 185.729 196.752 197.441Z" fill="#FF5A5A"/>
</svg>
