<svg id="Layer_1" data-name="Layer 1" xmlns="http://www.w3.org/2000/svg" viewBox="0 0 240 240"><defs><style>.cls-1{fill:#fff;}.cls-2{fill:#515979;}.cls-3{fill:#d8ebfb;}.cls-4{fill:#fde1d9;}.cls-5{fill:#ef7d7d;}.cls-6{fill:#2196f3;}.cls-7{fill:#f89d81;}</style></defs><path class="cls-1" d="M65.5,218a7,7,0,0,1-7-7V29a7,7,0,0,1,7-7h122a3,3,0,0,1,2.12.88l24,24A3,3,0,0,1,214.5,49V211a7,7,0,0,1-7,7Z"/><path class="cls-2" d="M187.5,25l24,24V211a4,4,0,0,1-4,4H65.5a4,4,0,0,1-4-4V29a4,4,0,0,1,4-4h122m0-6H65.5a10,10,0,0,0-10,10V211a10,10,0,0,0,10,10h142a10,10,0,0,0,10-10V49a6,6,0,0,0-1.76-4.24l-24-24A6,6,0,0,0,187.5,19Z"/><path class="cls-3" d="M61.5,179h35a4,4,0,0,0,4-4V145a4,4,0,0,0-4-4h-35Z"/><path class="cls-3" d="M192.3,52a7.81,7.81,0,0,1-7.8-7.8V25a3,3,0,0,1,1.85-2.77A2.88,2.88,0,0,1,187.5,22a3,3,0,0,1,2.12.88l24,24A3,3,0,0,1,211.5,52Z"/><path class="cls-2" d="M187.5,25l24,24H192.3a4.8,4.8,0,0,1-4.8-4.8V25m0-6a6,6,0,0,0-6,6V44.2A10.81,10.81,0,0,0,192.3,55h19.2a6,6,0,0,0,4.24-10.24l-24-24A6,6,0,0,0,187.5,19Z"/><path class="cls-2" d="M158,78.6a2.06,2.06,0,0,1-.95-.24,8.7,8.7,0,0,0-7.1,0,2,2,0,0,1-1.9-3.52,12.69,12.69,0,0,1,10.9,0A2,2,0,0,1,158,78.6Z"/><circle class="cls-2" cx="153.5" cy="67.85" r="8"/><circle class="cls-1" cx="155.5" cy="67.85" r="2"/><path class="cls-2" d="M147.64,51.53a10.09,10.09,0,0,1,2-1.31,11.21,11.21,0,0,1,2.12-.86,11.91,11.91,0,0,1,4.75-.42,10.58,10.58,0,0,1,1.23.22c.41.11.81.24,1.21.37a12,12,0,0,1,1.15.54,5.31,5.31,0,0,1,1.07.66,8.86,8.86,0,0,1,3,3.7,2,2,0,0,1-2.75,2.68l-.38-.19a26.64,26.64,0,0,0-2.75-1.36,9.9,9.9,0,0,0-2.58-.67,15.5,15.5,0,0,0-2.93-.11c-.52,0-1.06.06-1.61.12s-1.16.15-1.62.15h-.61a2,2,0,0,1-2-2A2,2,0,0,1,147.64,51.53Z"/><path class="cls-2" d="M124,78.6a2,2,0,0,1-1-.24,8.72,8.72,0,0,0-7.11,0,2,2,0,0,1-1.89-3.52,12.67,12.67,0,0,1,10.89,0A2,2,0,0,1,124,78.6Z"/><circle class="cls-2" cx="119.5" cy="67.85" r="8"/><circle class="cls-1" cx="121.5" cy="67.85" r="2"/><path class="cls-2" d="M123.46,55.05c-.47,0-1.09-.11-1.62-.15s-1.09-.09-1.61-.12a15.5,15.5,0,0,0-2.93.11,9.9,9.9,0,0,0-2.58.67A25.68,25.68,0,0,0,112,56.92l-.37.19a2,2,0,0,1-2.76-2.68,8.86,8.86,0,0,1,3-3.7,5.31,5.31,0,0,1,1.07-.66,12,12,0,0,1,1.15-.54c.4-.13.8-.26,1.21-.37a10.58,10.58,0,0,1,1.23-.22,11.91,11.91,0,0,1,4.75.42,11.21,11.21,0,0,1,2.12.86,10.09,10.09,0,0,1,2,1.31,2,2,0,0,1-1.28,3.52Z"/><circle class="cls-4" cx="95.5" cy="75.5" r="2.5"/><circle class="cls-4" cx="101" cy="86.5" r="2.5"/><circle class="cls-4" cx="90" cy="86.5" r="2.5"/><circle class="cls-4" cx="177.5" cy="75.5" r="2.5"/><circle class="cls-4" cx="183" cy="86.5" r="2.5"/><circle class="cls-4" cx="172" cy="86.5" r="2.5"/><path class="cls-2" d="M136.5,107.5A20.53,20.53,0,0,1,116,87a2.5,2.5,0,0,1,2.5-2.5h36A2.5,2.5,0,0,1,157,87,20.53,20.53,0,0,1,136.5,107.5Z"/><path class="cls-2" d="M154.5,87h0m0,0a18,18,0,0,1-36,0h36m0-5h-36a5,5,0,0,0-5,5,23,23,0,0,0,46,.18V87a5,5,0,0,0-5-5Zm0,10Z"/><ellipse class="cls-5" cx="136.5" cy="99" rx="13.39" ry="6"/><rect class="cls-2" x="73.5" y="121" width="40" height="6" rx="3"/><rect class="cls-2" x="73.5" y="145" width="58" height="6" rx="3"/><rect class="cls-2" x="73.5" y="157" width="46" height="6" rx="3"/><rect class="cls-6" x="73.5" y="133" width="52" height="6" rx="3"/><rect class="cls-2" x="73.5" y="176" width="58" height="6" rx="3"/><rect class="cls-2" x="73.5" y="188" width="36" height="6" rx="3"/><rect class="cls-5" x="25.5" y="132" width="66" height="38" rx="3"/><path class="cls-2" d="M88.5,135v32h-60V135h60m0-6h-60a6,6,0,0,0-6,6v32a6,6,0,0,0,6,6h60a6,6,0,0,0,6-6V135a6,6,0,0,0-6-6Z"/><path class="cls-1" d="M45,143.63a8.75,8.75,0,0,1,2.78.39,5.23,5.23,0,0,1,1.91,1,4.17,4.17,0,0,1,1.11,1.59,5.31,5.31,0,0,1,.36,2,5.94,5.94,0,0,1-.37,2.1,4.24,4.24,0,0,1-1.13,1.64,5.25,5.25,0,0,1-1.91,1.06,8.64,8.64,0,0,1-2.75.39H43.18v5.11H39.63v-15.3Zm0,7.51a2.62,2.62,0,0,0,2-.66,2.66,2.66,0,0,0,.61-1.85,2.93,2.93,0,0,0-.16-1,2,2,0,0,0-.48-.74,2.14,2.14,0,0,0-.81-.47,3.34,3.34,0,0,0-1.16-.17H43.18v4.85Z"/><path class="cls-1" d="M66.86,151.28a8.09,8.09,0,0,1-.57,3.06,7.12,7.12,0,0,1-4.12,4,8.85,8.85,0,0,1-3.24.57H53v-15.3h6a8.85,8.85,0,0,1,3.24.58,7.3,7.3,0,0,1,2.51,1.6,7,7,0,0,1,1.61,2.42A8,8,0,0,1,66.86,151.28Zm-3.63,0a6.86,6.86,0,0,0-.29-2.05,4.37,4.37,0,0,0-.85-1.55,3.79,3.79,0,0,0-1.35-1,4.71,4.71,0,0,0-1.81-.34H56.55v9.84h2.38a4.53,4.53,0,0,0,1.81-.34,3.67,3.67,0,0,0,1.35-1,4.37,4.37,0,0,0,.85-1.55A6.81,6.81,0,0,0,63.23,151.28Z"/><path class="cls-1" d="M72.53,146.36v3.88h5.23V153H72.53v6H69v-15.3h9.85v2.73Z"/><path class="cls-2" d="M147.5,153.5h-6a1.5,1.5,0,0,1,0-3h6a1.5,1.5,0,0,1,0,3Z"/><path class="cls-2" d="M147.5,141.5h-6a1.5,1.5,0,0,1,0-3h6a1.5,1.5,0,0,1,0,3Z"/><path class="cls-2" d="M147.5,129.5h-6a1.5,1.5,0,0,1,0-3h6a1.5,1.5,0,0,1,0,3Z"/><path class="cls-2" d="M173.5,170.5A1.5,1.5,0,0,1,172,169v-6a1.5,1.5,0,0,1,3,0v6A1.5,1.5,0,0,1,173.5,170.5Z"/><path class="cls-2" d="M158.5,170.5A1.5,1.5,0,0,1,157,169v-6a1.5,1.5,0,0,1,3,0v6A1.5,1.5,0,0,1,158.5,170.5Z"/><rect class="cls-2" x="155.5" y="179" width="40" height="4" rx="2"/><circle class="cls-6" cx="148.5" cy="181" r="3"/><rect class="cls-2" x="155.5" y="187" width="20" height="4" rx="2"/><circle class="cls-7" cx="148.5" cy="189" r="3"/><rect class="cls-6" x="152.5" y="133" width="6" height="30"/><rect class="cls-7" x="158.5" y="137" width="6" height="26"/><rect class="cls-6" x="167.5" y="139" width="6" height="24"/><rect class="cls-7" x="173.5" y="127" width="6" height="36"/><path class="cls-2" d="M188.5,170.5A1.5,1.5,0,0,1,187,169v-6a1.5,1.5,0,0,1,3,0v6A1.5,1.5,0,0,1,188.5,170.5Z"/><rect class="cls-6" x="182.5" y="141" width="6" height="22"/><rect class="cls-7" x="188.5" y="137" width="6" height="26"/><path class="cls-2" d="M197.5,165h-50a2,2,0,0,1-2-2V123a2,2,0,0,1,4,0v38h48a2,2,0,0,1,0,4Z"/></svg>