<svg id="Layer_1" data-name="Layer 1" xmlns="http://www.w3.org/2000/svg" viewBox="0 0 240 240"><defs><style>.cls-1{fill:#fff;}.cls-2{fill:#515979;}.cls-3{fill:#d8ebfb;}.cls-4{fill:#7ddf96;}.cls-5{fill:#ffd886;}.cls-6{fill:#fde1d9;}.cls-7{fill:#ef7d7d;}</style></defs><path class="cls-1" d="M49,218a7,7,0,0,1-7-7V29a7,7,0,0,1,7-7H171a3,3,0,0,1,2.12.88l24,24A3,3,0,0,1,198,49V211a7,7,0,0,1-7,7Z"/><path class="cls-2" d="M171,25l24,24V211a4,4,0,0,1-4,4H49a4,4,0,0,1-4-4V29a4,4,0,0,1,4-4H171m0-6H49A10,10,0,0,0,39,29V211a10,10,0,0,0,10,10H191a10,10,0,0,0,10-10V49a6,6,0,0,0-1.76-4.24l-24-24A6,6,0,0,0,171,19Z"/><path class="cls-3" d="M175.8,52a7.81,7.81,0,0,1-7.8-7.8V25a3,3,0,0,1,1.85-2.77A2.88,2.88,0,0,1,171,22a3,3,0,0,1,2.12.88l24,24A3,3,0,0,1,195,52Z"/><path class="cls-2" d="M171,25l24,24H175.8a4.8,4.8,0,0,1-4.8-4.8V25m0-6a6,6,0,0,0-6,6V44.2A10.81,10.81,0,0,0,175.8,55H195a6,6,0,0,0,4.24-10.24l-24-24A6,6,0,0,0,171,19Z"/><rect class="cls-2" x="57" y="128" width="126" height="6" rx="3"/><rect class="cls-4" x="57" y="140" width="110" height="6" rx="3"/><rect class="cls-5" x="57" y="152" width="80" height="6" rx="3"/><rect class="cls-2" x="57" y="168" width="126" height="6" rx="3"/><rect class="cls-4" x="57" y="180" width="112" height="6" rx="3"/><rect class="cls-2" x="57" y="192" width="96" height="6" rx="3"/><path class="cls-2" d="M140,79.35a2.5,2.5,0,0,1-2.5-2.5,3.5,3.5,0,0,0-7,0,2.5,2.5,0,0,1-5,0,8.5,8.5,0,0,1,17,0A2.5,2.5,0,0,1,140,79.35Z"/><path class="cls-2" d="M128.14,58.53a10.09,10.09,0,0,1,2-1.31,11.21,11.21,0,0,1,2.12-.86,11.91,11.91,0,0,1,4.75-.42,10.58,10.58,0,0,1,1.23.22c.41.11.81.24,1.21.37a12,12,0,0,1,1.15.54,5.31,5.31,0,0,1,1.07.66,8.86,8.86,0,0,1,3,3.7,2,2,0,0,1-2.75,2.68l-.38-.19a25.68,25.68,0,0,0-2.75-1.36,9.9,9.9,0,0,0-2.58-.67,15.5,15.5,0,0,0-2.93-.11c-.52,0-1.06.06-1.61.12s-1.15.15-1.62.15h-.61a2,2,0,0,1-2-2A2,2,0,0,1,128.14,58.53Z"/><path class="cls-2" d="M112,79.35a2.5,2.5,0,0,1-2.5-2.5,3.5,3.5,0,0,0-7,0,2.5,2.5,0,0,1-5,0,8.5,8.5,0,0,1,17,0A2.5,2.5,0,0,1,112,79.35Z"/><path class="cls-2" d="M110,62.05c-.47,0-1.09-.11-1.62-.15s-1.09-.09-1.61-.12a15.5,15.5,0,0,0-2.93.11,9.9,9.9,0,0,0-2.58.67,25.68,25.68,0,0,0-2.75,1.36l-.37.19a2,2,0,0,1-2.76-2.68,8.86,8.86,0,0,1,3-3.7,5.31,5.31,0,0,1,1.07-.66,12,12,0,0,1,1.15-.54c.4-.13.8-.26,1.21-.37a10.58,10.58,0,0,1,1.23-.22,11.91,11.91,0,0,1,4.75.42,11.21,11.21,0,0,1,2.12.86,10.09,10.09,0,0,1,2,1.31,2,2,0,0,1-1.28,3.52Z"/><circle class="cls-6" cx="79" cy="79.5" r="2.5"/><circle class="cls-6" cx="84.5" cy="90.5" r="2.5"/><circle class="cls-6" cx="73.5" cy="90.5" r="2.5"/><circle class="cls-6" cx="161" cy="79.5" r="2.5"/><circle class="cls-6" cx="166.5" cy="90.5" r="2.5"/><circle class="cls-6" cx="155.5" cy="90.5" r="2.5"/><path class="cls-2" d="M120,111.5A20.53,20.53,0,0,1,99.5,91a2.5,2.5,0,0,1,2.5-2.5h36a2.5,2.5,0,0,1,2.5,2.5A20.53,20.53,0,0,1,120,111.5Z"/><path class="cls-2" d="M138,91h0m0,0a18,18,0,0,1-36,0h36m0-5H102a5,5,0,0,0-5,5,23,23,0,0,0,46,.18V91a5,5,0,0,0-5-5Zm0,10Z"/><ellipse class="cls-7" cx="120" cy="103" rx="13.39" ry="6"/></svg>