<svg xmlns="http://www.w3.org/2000/svg" viewBox="0 0 240 240"><defs><style>.cls-1{isolation:isolate;}.cls-2{fill:#fff;}.cls-3{fill:#515979;}.cls-4{fill:#d8ebfb;}.cls-5{fill:#ef7d7d;}.cls-6{fill:#9e8271;}.cls-7{fill:#75a5c3;}.cls-8{opacity:0.5;mix-blend-mode:overlay;}.cls-9{fill:#acc9db;}.cls-10{fill:#f89d81;}</style></defs><g class="cls-1"><g id="Layer_1" data-name="Layer 1"><path class="cls-2" d="M49,218a7,7,0,0,1-7-7V29a7,7,0,0,1,7-7H171a3,3,0,0,1,2.12.88l24,24A3,3,0,0,1,198,49V211a7,7,0,0,1-7,7Z"/><path class="cls-3" d="M171,25l24,24V211a4,4,0,0,1-4,4H49a4,4,0,0,1-4-4V29a4,4,0,0,1,4-4H171m0-6H49A10,10,0,0,0,39,29V211a10,10,0,0,0,10,10H191a10,10,0,0,0,10-10V49a6,6,0,0,0-1.76-4.24l-24-24A6,6,0,0,0,171,19Z"/><path class="cls-4" d="M175.8,52a7.81,7.81,0,0,1-7.8-7.8V25a3,3,0,0,1,1.85-2.77A2.88,2.88,0,0,1,171,22a3,3,0,0,1,2.12.88l24,24A3,3,0,0,1,195,52Z"/><path class="cls-3" d="M171,25l24,24H175.8a4.8,4.8,0,0,1-4.8-4.8V25m0-6a6,6,0,0,0-6,6V44.2A10.81,10.81,0,0,0,175.8,55H195a6,6,0,0,0,4.24-10.24l-24-24A6,6,0,0,0,171,19Z"/><path class="cls-3" d="M141.5,79.6a2.06,2.06,0,0,1-.95-.24,8.7,8.7,0,0,0-7.1,0,2,2,0,0,1-1.9-3.52,12.69,12.69,0,0,1,10.9,0,2,2,0,0,1-.95,3.76Z"/><circle class="cls-3" cx="137" cy="68.85" r="8"/><circle class="cls-2" cx="139" cy="68.85" r="2"/><path class="cls-3" d="M131.14,46.53a10.09,10.09,0,0,1,2-1.31,11.21,11.21,0,0,1,2.12-.86,11.91,11.91,0,0,1,4.75-.42,10.58,10.58,0,0,1,1.23.22c.41.11.81.24,1.21.37a12,12,0,0,1,1.15.54,5.31,5.31,0,0,1,1.07.66,8.86,8.86,0,0,1,3,3.7,2,2,0,0,1-2.75,2.68l-.38-.19a26.64,26.64,0,0,0-2.75-1.36,9.9,9.9,0,0,0-2.58-.67,15.5,15.5,0,0,0-2.93-.11c-.52,0-1.06.06-1.61.12s-1.16.15-1.62.15h-.61a2,2,0,0,1-2-2A2,2,0,0,1,131.14,46.53Z"/><path class="cls-3" d="M107.5,79.6a2,2,0,0,1-1-.24,8.72,8.72,0,0,0-7.11,0,2,2,0,0,1-1.89-3.52,12.67,12.67,0,0,1,10.89,0,2,2,0,0,1-.94,3.76Z"/><circle class="cls-3" cx="103" cy="68.85" r="8"/><circle class="cls-2" cx="105" cy="68.85" r="2"/><path class="cls-3" d="M107,50.05c-.47,0-1.09-.11-1.62-.15s-1.09-.09-1.61-.12a15.5,15.5,0,0,0-2.93.11,9.9,9.9,0,0,0-2.58.67,25.68,25.68,0,0,0-2.75,1.36l-.37.19a2,2,0,0,1-2.76-2.68,8.86,8.86,0,0,1,3-3.7,5.31,5.31,0,0,1,1.07-.66,12,12,0,0,1,1.15-.54c.4-.13.8-.26,1.21-.37a10.58,10.58,0,0,1,1.23-.22,11.91,11.91,0,0,1,4.75.42,11.21,11.21,0,0,1,2.12.86,10.09,10.09,0,0,1,2,1.31,2,2,0,0,1-1.28,3.52Z"/><path class="cls-3" d="M120,128.5A20.53,20.53,0,0,1,99.5,108a2.5,2.5,0,0,1,2.5-2.5h36a2.5,2.5,0,0,1,2.5,2.5A20.53,20.53,0,0,1,120,128.5Z"/><path class="cls-3" d="M138,108h0m0,0a18,18,0,0,1-36,0h36m0-5H102a5,5,0,0,0-5,5,23,23,0,0,0,46,.18V108a5,5,0,0,0-5-5Zm0,10Z"/><ellipse class="cls-5" cx="120" cy="120" rx="13.39" ry="6"/><path class="cls-6" d="M152,109a7,7,0,0,1-4-1.26,7,7,0,0,1-8,0,7,7,0,0,1-8,0,7,7,0,0,1-8,0,7,7,0,0,1-8,0,7,7,0,0,1-8,0,7,7,0,0,1-8,0,7,7,0,0,1-8,0A7,7,0,0,1,81,102,17,17,0,0,1,98,85h16a10.94,10.94,0,0,1,6,1.79A10.94,10.94,0,0,1,126,85h16a17,17,0,0,1,17,17A7,7,0,0,1,152,109Z"/><path class="cls-3" d="M142,88a14,14,0,0,1,14,14,4,4,0,0,1-8,0,4,4,0,0,1-8,0,4,4,0,0,1-8,0,4,4,0,0,1-8,0,4,4,0,0,1-8,0,4,4,0,0,1-8,0,4,4,0,0,1-8,0,4,4,0,0,1-8,0,4,4,0,0,1-8,0A14,14,0,0,1,98,88h16a8,8,0,0,1,6,2.72A8,8,0,0,1,126,88h16m0-6H126a13.87,13.87,0,0,0-6,1.36A13.87,13.87,0,0,0,114,82H98a20,20,0,0,0-20,20,10,10,0,0,0,14,9.17,10.05,10.05,0,0,0,8,0,10.05,10.05,0,0,0,8,0,10.05,10.05,0,0,0,8,0,10.05,10.05,0,0,0,8,0,10.05,10.05,0,0,0,8,0,10.05,10.05,0,0,0,8,0,10.05,10.05,0,0,0,8,0A10,10,0,0,0,162,102a20,20,0,0,0-20-20Z"/><path class="cls-3" d="M126,69a3,3,0,0,1-3-3,3,3,0,0,0-6,0,3,3,0,0,1-6,0,9,9,0,0,1,18,0A3,3,0,0,1,126,69Z"/><path class="cls-3" d="M149,54h16a4,4,0,0,1,4,4v0a4,4,0,0,1-4,4H149a0,0,0,0,1,0,0V54a0,0,0,0,1,0,0Z"/><path class="cls-7" d="M144,84h0a15,15,0,0,1-15-15V64a4,4,0,0,1,4-4h22a4,4,0,0,1,4,4v5A15,15,0,0,1,144,84Z"/><path class="cls-3" d="M75,54H91a0,0,0,0,1,0,0v8a0,0,0,0,1,0,0H75a4,4,0,0,1-4-4v0A4,4,0,0,1,75,54Z"/><path class="cls-7" d="M96,84h0A15,15,0,0,1,81,69V64a4,4,0,0,1,4-4h22a4,4,0,0,1,4,4v5A15,15,0,0,1,96,84Z"/><g class="cls-8"><polygon class="cls-2" points="133 86 139 86 149 58 143 58 133 86"/></g><g class="cls-8"><polygon class="cls-2" points="142 86 146 86 156 58 152 58 142 86"/></g><g class="cls-8"><polygon class="cls-2" points="85 86 91 86 101 58 95 58 85 86"/></g><g class="cls-8"><polygon class="cls-2" points="94 86 98 86 108 58 104 58 94 86"/></g><path class="cls-3" d="M155,60a4,4,0,0,1,4,4v5a15,15,0,0,1-15,15h0a15,15,0,0,1-15-15V64a4,4,0,0,1,4-4h22m0-6H133a10,10,0,0,0-10,10v5a21,21,0,0,0,42,0V64a10,10,0,0,0-10-10Z"/><rect class="cls-9" x="162" y="57" width="4" height="2" rx="1"/><path class="cls-3" d="M107,60a4,4,0,0,1,4,4v5A15,15,0,0,1,96,84h0A15,15,0,0,1,81,69V64a4,4,0,0,1,4-4h22m0-6H85A10,10,0,0,0,75,64v5a21,21,0,0,0,42,0V64a10,10,0,0,0-10-10Z"/><rect class="cls-9" x="74" y="57" width="4" height="2" rx="1"/><rect class="cls-3" x="57" y="141" width="126" height="6" rx="3"/><rect class="cls-10" x="57" y="153" width="88" height="6" rx="3"/><rect class="cls-3" x="57" y="169" width="126" height="6" rx="3"/><rect class="cls-7" x="57" y="181" width="112" height="6" rx="3"/><rect class="cls-3" x="57" y="193" width="96" height="6" rx="3"/></g></g></svg>