<svg width="538" height="250" viewBox="0 0 538 250" fill="none" xmlns="http://www.w3.org/2000/svg">
<path d="M533.562 39.9448V191.46H284.448L284.251 40.4368C284.251 34.8287 285.924 29.811 291.532 29.811H523.429C529.037 29.811 533.562 34.3368 533.562 39.9448Z" fill="#FCF9F5"/>
<path d="M426.518 232.979L421.992 218.811L419.828 212.219L406.939 200.216L394.936 212.219L388.246 232.979H400.544H426.518Z" fill="#3F597D"/>
<path d="M447.081 238.882C444.818 234.061 439.899 230.716 434.291 230.716H387.065L381.26 232.881C380.473 232.881 369.06 237.308 369.06 244.392C369.06 247.147 371.323 249.508 374.176 249.508L441.571 248.918C444.326 248.918 446.687 246.655 446.687 243.802C446.687 242.719 448.36 242.818 448.163 241.834C447.868 240.85 447.474 239.866 447.081 238.882Z" fill="#5D748A"/>
<path d="M448.458 244.884C448.458 247.737 446.195 250 443.342 250H371.618C368.864 250 366.502 247.737 366.502 244.982C366.502 237.899 371.717 231.995 378.505 231.011C379.194 230.913 379.981 230.815 380.768 230.815H387.065L383.622 235.439C381.654 238.095 383.523 241.932 386.868 241.932H448.163C448.261 242.916 448.458 243.9 448.458 244.884Z" fill="#3F597D"/>
<path d="M291.532 181.326V29.811C285.924 29.811 281.398 34.3368 281.398 39.9448V191.46H284.448H291.532H533.562V183.294H293.598C292.417 183.392 291.532 182.507 291.532 181.326Z" fill="#F0E9E6"/>
<path d="M533.562 191.46V196.674C533.562 202.282 525.79 210.252 520.182 210.252L293.991 210.35C288.383 210.35 283.858 205.824 283.858 200.216L281.3 191.558H533.562V191.46Z" fill="#5D748A"/>
<path d="M291.532 208.383C287.99 208.383 285.235 205.529 285.235 202.086V39.9449C285.235 36.403 288.088 33.6481 291.532 33.6481H523.429C526.971 33.6481 529.725 36.5013 529.725 39.9449V188.804L537.301 187.229V39.9449C537.301 32.2707 531.004 25.974 523.33 25.974H291.532C283.858 25.974 277.561 32.2707 277.561 39.9449V202.086C277.561 209.76 283.858 216.057 291.532 216.057H508.179L505.129 208.481H291.532V208.383Z" fill="#3F597D"/>
<path d="M389.328 203.07H425.731C427.305 203.07 428.584 201.791 428.584 200.216C428.584 198.642 427.305 197.363 425.731 197.363H389.328C387.754 197.363 386.475 198.642 386.475 200.216C386.475 201.791 387.754 203.07 389.328 203.07Z" fill="#35414D"/>
<path d="M496.176 20.6611H495.389V35.8126H320.851V18.8902L318.49 16.6273L319.67 7.18218L325.278 4.03381L336.593 5.50961H477.089V4.03381L495.389 5.50961L496.176 20.6611Z" fill="#656D78"/>
<path d="M495.389 35.8126V160.763C495.389 169.421 488.403 176.505 479.745 176.505H336.593C325.377 179.654 315.145 176.505 320.851 160.763V35.8126H495.389Z" fill="#F4F6F8"/>
<path d="M495.389 35.8126V160.763C496.176 169.126 501.292 179.358 479.745 176.505H336.593C317.604 178.375 317.604 170.602 319.67 164.404C320.851 164.699 323.606 164.797 324.786 164.797H342.693C415.892 164.797 476.99 108.717 483.09 35.911L495.389 35.8126Z" fill="#E4E8EB"/>
<path d="M476.498 24.9902H414.712C412.35 24.9902 410.383 23.0224 410.383 20.6612C410.383 18.2999 412.35 16.3322 414.712 16.3322H476.498C478.86 16.3322 480.827 18.2999 480.827 20.6612C480.926 23.0224 478.958 24.9902 476.498 24.9902Z" fill="#FDF6EC" stroke="#35414D" stroke-width="2.3521" stroke-miterlimit="10"/>
<path d="M339.741 25.8756C342.621 25.8756 344.956 23.541 344.956 20.6611C344.956 17.7813 342.621 15.4467 339.741 15.4467C336.861 15.4467 334.527 17.7813 334.527 20.6611C334.527 23.541 336.861 25.8756 339.741 25.8756Z" fill="#F16C7A"/>
<path d="M339.741 26.9578C336.199 26.9578 333.346 24.1046 333.346 20.5627C333.346 17.0208 336.199 14.1676 339.741 14.1676C343.283 14.1676 346.136 17.0208 346.136 20.5627C346.136 24.1046 343.283 26.9578 339.741 26.9578ZM339.741 16.5289C337.478 16.5289 335.707 18.2998 335.707 20.5627C335.707 22.8256 337.478 24.5966 339.741 24.5966C342.004 24.5966 343.775 22.8256 343.775 20.5627C343.873 18.3982 342.004 16.5289 339.741 16.5289Z" fill="#3A312A"/>
<path d="M355.975 25.8756C358.855 25.8756 361.189 23.541 361.189 20.6611C361.189 17.7813 358.855 15.4467 355.975 15.4467C353.095 15.4467 350.76 17.7813 350.76 20.6611C350.76 23.541 353.095 25.8756 355.975 25.8756Z" fill="#D7E057"/>
<path d="M355.975 26.9578C352.433 26.9578 349.58 24.1046 349.58 20.5627C349.58 17.0208 352.433 14.1676 355.975 14.1676C359.517 14.1676 362.37 17.0208 362.37 20.5627C362.37 24.1046 359.517 26.9578 355.975 26.9578ZM355.975 16.5289C353.712 16.5289 351.941 18.2998 351.941 20.5627C351.941 22.8256 353.712 24.5966 355.975 24.5966C358.238 24.5966 360.009 22.8256 360.009 20.5627C360.009 18.3982 358.238 16.5289 355.975 16.5289Z" fill="#3A312A"/>
<path d="M372.209 25.8756C375.089 25.8756 377.423 23.541 377.423 20.6611C377.423 17.7813 375.089 15.4467 372.209 15.4467C369.329 15.4467 366.994 17.7813 366.994 20.6611C366.994 23.541 369.329 25.8756 372.209 25.8756Z" fill="#8AC6DD"/>
<path d="M372.209 26.9578C368.667 26.9578 365.814 24.1046 365.814 20.5627C365.814 17.0208 368.667 14.1676 372.209 14.1676C375.751 14.1676 378.604 17.0208 378.604 20.5627C378.604 24.1046 375.652 26.9578 372.209 26.9578ZM372.209 16.5289C369.946 16.5289 368.175 18.2998 368.175 20.5627C368.175 22.8256 369.946 24.5966 372.209 24.5966C374.472 24.5966 376.243 22.8256 376.243 20.5627C376.243 18.3982 374.373 16.5289 372.209 16.5289Z" fill="#3A312A"/>
<path d="M483.582 5.50964C490.076 5.50964 495.389 10.8225 495.389 17.316V164.699C495.389 171.192 490.076 176.505 483.582 176.505H332.657C326.164 176.505 320.851 171.192 320.851 164.699V17.316C320.851 10.8225 326.164 5.50964 332.657 5.50964H483.582ZM483.582 0H332.657C323.114 0 315.341 7.77253 315.341 17.316V164.699C315.341 174.242 323.114 182.015 332.657 182.015H483.582C493.126 182.015 500.898 174.242 500.898 164.699V17.316C500.898 7.77253 493.126 0 483.582 0Z" fill="#35414D"/>
<path d="M370.438 89.9253L356.86 100.846V151.22C356.86 155.844 360.599 159.681 365.322 159.681H449.639C454.263 159.681 458.1 155.943 458.1 151.22V100.846L444.523 90.3188" fill="#87796F"/>
<path d="M443.736 58.54H371.323V136.954H443.736V58.54Z" fill="#F9EDE1"/>
<path d="M421.304 137.84H392.575L356.86 100.945V151.318C356.86 155.943 360.599 159.78 365.322 159.78H449.639C454.263 159.78 458.1 156.041 458.1 151.318V100.945L421.304 137.84Z" fill="#FEDA9B"/>
<path d="M363.846 158.206L393.657 131.149C401.429 124.065 413.433 124.065 421.205 131.149L451.016 158.206H363.846Z" fill="#FFB954"/>
<path d="M428.387 83.235C431.044 80.5786 431.044 76.348 428.387 73.7899C425.731 71.1335 421.5 71.1335 418.942 73.7899L428.387 83.235Z" fill="#FF5D5D"/>
<path d="M406.644 108.324L398.871 116.096C395.33 119.638 389.623 119.638 386.081 116.096C382.539 112.554 382.539 106.848 386.081 103.306L393.854 95.5333L406.644 108.324Z" fill="#FF5A5A"/>
<path d="M406.644 108.324L415.696 117.375L410.186 122.885L401.134 113.833L406.644 108.324Z" fill="#87796F"/>
<path d="M406.644 108.324L393.854 95.5333L407.825 62.6722L439.505 94.3527L406.644 108.324Z" fill="#C1A897"/>
<path d="M431.044 97.8946L439.505 94.3527L407.825 62.6722L404.184 71.0351L431.044 97.8946Z" fill="white"/>
<path d="M395.526 71.3303C395.133 71.3303 394.838 71.2319 394.542 70.9367C394.247 70.6416 394.149 70.3464 394.149 69.9529C394.149 69.5593 394.247 69.2641 394.542 68.969C394.838 68.6738 395.133 68.5754 395.526 68.5754C395.92 68.5754 396.215 68.6738 396.51 68.969C396.805 69.2641 396.904 69.5593 396.904 69.9529C396.904 70.3464 396.805 70.6416 396.51 70.9367C396.215 71.2319 395.92 71.3303 395.526 71.3303Z" fill="#35414D"/>
<path d="M379.686 71.3303C378.899 71.3303 378.309 70.7399 378.309 69.9529C378.309 69.1658 378.899 68.5754 379.686 68.5754H387.951C388.738 68.5754 389.328 69.1658 389.328 69.9529C389.328 70.7399 388.738 71.3303 387.951 71.3303H379.686Z" fill="#35414D"/>
<path d="M379.686 82.8415C378.899 82.8415 378.309 82.2512 378.309 81.4641C378.309 80.677 378.899 80.0867 379.686 80.0867H389.623C390.41 80.0867 391.001 80.677 391.001 81.4641C391.001 82.2512 390.41 82.8415 389.623 82.8415H379.686Z" fill="#35414D"/>
<path d="M365.322 161.059C359.91 161.059 355.581 156.631 355.581 151.318V100.945C355.581 100.551 355.778 100.157 356.073 99.8623L369.651 88.9414L369.946 88.7446V58.54C369.946 57.7529 370.536 57.1626 371.323 57.1626H396.412C397.199 57.1626 397.789 57.7529 397.789 58.54C397.789 59.3271 397.199 59.9174 396.412 59.9174H372.701V114.424V114.719L390.41 132.428L392.87 130.165C396.904 126.525 402.118 124.459 407.529 124.459C407.726 124.459 407.923 124.459 408.218 124.459L409.989 124.557L401.233 115.801L399.954 117.08C397.986 119.048 395.428 120.13 392.575 120.13C389.721 120.13 387.163 119.048 385.196 117.08C383.228 115.112 382.146 112.554 382.146 109.701C382.146 106.848 383.228 104.29 385.196 102.322L392.771 94.7462L406.644 62.0819C406.841 61.6884 407.234 61.3932 407.628 61.2948C407.726 61.2948 407.825 61.2948 407.923 61.2948C408.317 61.2948 408.612 61.3932 408.907 61.6884L419.139 71.9206L419.631 71.6254C420.91 70.8383 422.287 70.4448 423.862 70.4448C426.026 70.4448 427.994 71.3302 429.568 72.806C431.044 74.2818 431.929 76.348 431.929 78.5125C431.929 79.9883 431.536 81.4641 430.749 82.7431L430.453 83.235L440.686 93.4672C440.981 93.7624 441.178 94.2543 441.079 94.6478C440.981 95.0414 440.686 95.4349 440.292 95.6317L409.202 108.914L416.876 116.588C417.368 117.08 417.368 117.965 416.876 118.457L410.579 124.754L411.858 125.049C415.794 125.836 419.434 127.607 422.386 130.362L424.845 132.625L442.555 114.915V114.62V86.7769C442.555 85.9898 443.145 85.3995 443.932 85.3995C444.72 85.3995 445.31 85.9898 445.31 86.7769V89.335L445.605 89.5317L458.69 99.6656L459.182 100.059C459.477 100.354 459.674 100.748 459.674 101.141V151.515C459.674 156.926 455.247 161.255 449.934 161.255H365.322V161.059ZM365.814 158.304H449.147L420.32 132.133C416.778 128.886 412.252 127.115 407.431 127.115C402.708 127.115 398.084 128.886 394.542 132.133L377.03 147.973H389.426C390.213 147.973 390.804 148.564 390.804 149.351C390.804 150.138 390.213 150.728 389.426 150.728H374.078L365.814 158.304ZM426.616 134.199L452 157.222L452.099 157.32L452.492 157.714L452.984 157.418C455.345 156.139 456.723 153.778 456.723 151.122V103.995L426.616 134.199ZM358.238 151.22C358.238 153.876 359.714 156.238 361.977 157.517L362.468 157.812L362.862 157.418L362.96 157.32L388.344 134.298L358.238 104.191V151.22ZM403.004 113.833L410.186 121.015L413.728 117.473L406.546 110.291L403.004 113.833ZM387.065 104.29C385.589 105.766 384.802 107.635 384.802 109.701C384.802 111.767 385.589 113.636 387.065 115.112C388.541 116.588 390.41 117.375 392.476 117.375C394.542 117.375 396.412 116.588 397.888 115.112L404.676 108.324L393.854 97.501L387.065 104.29ZM445.015 111.964L456.034 100.945L445.015 92.385V111.964ZM358.927 100.945L369.946 111.964V92.0898L358.927 100.945ZM395.428 95.2382L406.939 106.749L428.683 97.501L404.676 73.4947L395.428 95.2382ZM405.857 70.7399L431.437 96.3204L437.242 93.8608L408.415 65.0335L405.857 70.7399ZM423.665 73.1012C423.074 73.1012 422.484 73.1996 421.992 73.3964L420.91 73.7899L428.387 81.2673L428.781 80.185C428.978 79.5947 429.076 79.1028 429.076 78.5125C429.076 77.1351 428.486 75.7576 427.502 74.7738C426.42 73.6915 425.141 73.1012 423.665 73.1012Z" fill="#35414D"/>
<path d="M435.471 68.2803C435.078 68.2803 434.782 68.1819 434.487 67.8867C433.995 67.3948 433.995 66.5093 434.487 66.0174L442.752 57.7529C443.047 57.4578 443.342 57.3594 443.736 57.3594C444.129 57.3594 444.424 57.4578 444.72 57.7529C445.211 58.2449 445.211 59.1303 444.72 59.6223L436.455 67.8867C436.16 68.0835 435.766 68.2803 435.471 68.2803Z" fill="#FF5A5A"/>
<path d="M427.699 63.9513C426.912 63.9513 426.321 63.3609 426.321 62.5738V58.4416C426.321 57.6545 426.912 57.0642 427.699 57.0642C428.486 57.0642 429.076 57.6545 429.076 58.4416V62.5738C429.076 63.3609 428.486 63.9513 427.699 63.9513Z" fill="#FF5A5A"/>
<path d="M439.505 75.7576C438.718 75.7576 438.128 75.1673 438.128 74.3802C438.128 73.5931 438.718 73.0028 439.505 73.0028H443.736C444.523 73.0028 445.113 73.5931 445.113 74.3802C445.113 75.1673 444.523 75.7576 443.736 75.7576H439.505Z" fill="#FF5A5A"/>
<path d="M397.986 151.122C397.494 151.122 397.1 150.925 396.805 150.63C396.51 150.335 396.313 149.843 396.313 149.449C396.313 148.957 396.51 148.564 396.805 148.269C397.1 147.973 397.592 147.777 397.986 147.777C398.478 147.777 398.871 147.973 399.167 148.269C399.462 148.564 399.659 149.056 399.659 149.449C399.659 149.941 399.462 150.335 399.167 150.63C398.871 150.925 398.38 151.122 397.986 151.122Z" fill="#35414D"/>
<path d="M227.679 89.3349V131.248C227.679 132.92 226.4 134.199 225.023 134.199H155.562C153.988 134.199 152.905 132.92 152.905 131.248V89.3349C152.905 87.6623 154.184 86.4817 155.562 86.4817H224.826C226.4 86.4817 227.679 87.8591 227.679 89.3349Z" fill="#F6C560"/>
<g opacity="0.04">
<path d="M227.679 89.3349V131.248C227.679 132.92 226.4 134.199 225.023 134.199H155.562C154.184 134.199 152.905 132.92 152.905 131.248V127.902H179.568C201.803 127.902 220.202 109.603 221.776 86.2849H225.023C226.4 86.4817 227.679 87.8591 227.679 89.3349Z" fill="black"/>
</g>
<path d="M155.562 135.281C153.496 135.281 151.921 133.51 151.921 131.247V89.3349C151.921 87.1704 153.594 85.3994 155.562 85.3994H224.826C225.908 85.3994 226.99 85.8913 227.581 86.4817C228.171 87.2688 228.564 88.351 228.564 89.2365V131.149C228.564 133.412 226.99 135.183 224.924 135.183H155.562V135.281ZM153.889 131.247C153.889 132.133 154.578 133.117 155.463 133.117H224.727C225.81 133.117 226.498 132.428 226.498 131.247V88.9413L193.441 113.44C192.358 114.227 191.178 114.62 189.997 114.62C188.816 114.62 187.537 114.128 186.553 113.44L153.791 88.9413V131.247H153.889ZM187.832 111.767C188.521 112.259 189.308 112.456 190.095 112.456C190.882 112.456 191.67 112.259 192.358 111.767L224.727 87.6623H216.463C215.971 87.6623 213.807 87.7607 205.739 87.7607C193.539 87.7607 175.141 87.6623 174.944 87.6623H155.365L187.832 111.767Z" fill="#35414D"/>
<path d="M128.112 115.014V156.926C128.112 158.599 126.833 159.878 125.455 159.878H55.9946C54.4204 159.878 53.3382 158.599 53.3382 156.926V115.014C53.3382 113.341 54.6172 112.161 55.9946 112.161H125.259C126.833 112.259 128.112 113.538 128.112 115.014Z" fill="#F6C560"/>
<g opacity="0.04">
<path d="M128.112 115.014V156.926C128.112 158.599 126.833 159.878 125.455 159.878H55.9946C54.6172 159.878 53.3382 158.599 53.3382 156.926V153.581H80.0009C102.236 153.581 120.635 135.281 122.209 111.964H125.455C126.833 112.259 128.112 113.538 128.112 115.014Z" fill="black"/>
</g>
<path d="M55.9946 161.059C53.9285 161.059 52.3543 159.288 52.3543 157.025V115.112C52.3543 112.948 54.0269 111.177 55.9946 111.177H125.259C126.341 111.177 127.423 111.669 128.014 112.259C128.604 113.046 128.997 114.128 128.997 115.014V156.926C128.997 159.189 127.423 160.96 125.357 160.96H55.9946V161.059ZM54.4204 156.926C54.4204 157.812 55.1091 158.796 55.9946 158.796H125.259C126.341 158.796 127.03 158.107 127.03 156.926V114.62L93.9718 139.118C92.8895 139.905 91.7089 140.299 90.5283 140.299C89.3476 140.299 88.0686 139.807 87.0847 139.118L54.322 114.62V156.926H54.4204ZM88.2654 137.446C88.9541 137.938 89.7412 138.135 90.5283 138.135C91.3154 138.135 92.1024 137.938 92.7912 137.446L125.16 113.341H116.896C116.404 113.341 114.239 113.44 106.172 113.44C93.9718 113.44 75.5735 113.341 75.3767 113.341H55.8962L88.2654 137.446Z" fill="#35414D"/>
<path d="M330.985 109.701V153.68C330.985 155.451 329.706 156.828 328.23 156.828H255.227C253.555 156.828 252.472 155.451 252.472 153.68V109.701C252.472 107.93 253.751 106.749 255.227 106.749H328.033C329.706 106.749 330.985 108.225 330.985 109.701Z" fill="#F6C560"/>
<g opacity="0.04">
<path d="M330.985 109.701V153.68C330.985 155.451 329.706 156.828 328.23 156.828H255.227C253.751 156.828 252.472 155.451 252.472 153.68V150.236H280.414C303.83 150.236 323.114 130.952 324.786 106.552H328.23C329.706 106.749 330.985 108.225 330.985 109.701Z" fill="black"/>
</g>
<path d="M255.227 158.009C253.063 158.009 251.39 156.139 251.39 153.778V109.799C251.39 107.536 253.161 105.667 255.227 105.667H328.033C329.214 105.667 330.394 106.159 330.886 106.848C331.575 107.733 331.87 108.815 331.87 109.799V153.778C331.87 156.139 330.198 158.009 328.033 158.009H255.227ZM253.555 153.778C253.555 154.762 254.243 155.746 255.227 155.746H328.033C329.115 155.746 329.903 154.959 329.903 153.778V109.307L295.172 135.085C294.09 135.97 292.811 136.364 291.532 136.364C290.351 136.364 288.974 135.872 287.891 135.085L253.456 109.307V153.778H253.555ZM289.171 133.314C289.859 133.806 290.745 134.002 291.63 134.002C292.516 134.002 293.303 133.707 294.09 133.314L328.033 108.028H319.375C318.883 108.028 316.522 108.127 308.159 108.127C295.27 108.127 275.987 107.93 275.79 107.93H255.227L289.171 133.314Z" fill="#35414D"/>
<path d="M508.08 152.204C489.092 152.204 473.645 167.651 473.645 186.639C473.645 199.036 480.237 209.957 490.076 215.958H506.801L514.967 201.397L537.4 186.738V168.536C531.3 158.796 520.477 152.204 508.08 152.204Z" fill="white"/>
<path fill-rule="evenodd" clip-rule="evenodd" d="M536.317 186.639C536.317 195.396 532.284 204.054 524.609 209.563L508.08 186.639H512.901H536.317Z" fill="#FFB54C"/>
<path d="M508.08 216.057C524.273 216.057 537.4 202.93 537.4 186.738C537.4 170.545 524.273 157.418 508.08 157.418C491.888 157.418 478.761 170.545 478.761 186.738C478.761 202.93 491.888 216.057 508.08 216.057Z" fill="#35414D"/>
<path d="M508.08 214.876C523.675 214.876 536.317 202.234 536.317 186.639C536.317 171.044 523.675 158.402 508.08 158.402C492.486 158.402 479.843 171.044 479.843 186.639C479.843 202.234 492.486 214.876 508.08 214.876Z" fill="#35414D"/>
<path fill-rule="evenodd" clip-rule="evenodd" d="M508.08 158.402C523.724 158.402 536.317 171.094 536.317 186.639H508.08V158.402Z" fill="#35414D"/>
<path fill-rule="evenodd" clip-rule="evenodd" d="M525.101 205.628L513.492 189.492H533.366C532.677 195.888 529.627 201.496 525.101 205.628Z" fill="#FFA733"/>
<path fill-rule="evenodd" clip-rule="evenodd" d="M482.5 186.639C482.5 200.709 493.913 212.121 507.982 212.121C512.508 212.121 516.837 210.941 520.575 208.776L505.719 188.214C505.424 187.722 505.227 187.23 505.227 186.639V161.354C492.535 162.731 482.5 173.554 482.5 186.639Z" fill="#2FB1D4"/>
<path fill-rule="evenodd" clip-rule="evenodd" d="M533.366 183.884H510.835V161.354C522.642 162.633 532.087 172.078 533.366 183.884Z" fill="#FF5A5A"/>
<path d="M41.827 129.575C36.8093 123.868 29.0367 126.033 22.8384 128.099C19.1981 129.28 15.5578 130.657 11.6223 130.657C6.70299 130.755 3.65301 127.017 1.68528 122.983C1.48851 122.589 0.701418 122.885 0.898191 123.278C3.7514 130.854 9.5562 133.215 17.132 131.346C25.0029 129.476 33.7593 124.065 40.8431 130.46C41.4334 131.247 42.4173 130.264 41.827 129.575Z" fill="#5D748A"/>
<path d="M43.5979 125.935C38.3834 119.54 30.8077 120.917 23.8222 123.18C20.0836 124.36 16.3449 125.935 12.311 126.23C7.78524 126.525 4.83365 123.869 2.96431 119.835C2.76754 119.343 1.88206 119.736 2.07883 120.13C9.06427 139.217 31.6932 113.538 42.5157 126.918C43.2044 127.706 44.2866 126.623 43.5979 125.935Z" fill="#5D748A"/>
<path d="M44.0899 120.819C43.4995 120.13 42.4173 121.015 42.9092 121.802C44.385 124.164 47.3366 127.607 44.7786 130.264C42.7124 132.428 38.5802 132.625 35.727 132.625C34.9399 132.625 34.9399 133.806 35.727 133.806C39.1705 133.904 43.9915 133.806 46.3527 130.854C48.9108 127.804 46.2544 123.278 44.0899 120.819Z" fill="#5D748A"/>
<path d="M139.623 101.928C134.605 96.222 126.833 98.3865 120.635 100.453C116.994 101.633 113.354 103.011 109.418 103.011C104.499 103.109 101.449 99.3703 99.4814 95.3365C99.2847 94.9429 98.4976 95.2381 98.6943 95.6316C101.548 103.207 107.352 105.569 114.928 103.699C122.799 101.83 131.555 96.4187 138.639 102.814C139.23 103.503 140.213 102.617 139.623 101.928Z" fill="#5D748A"/>
<path d="M141.492 98.1896C136.278 91.7945 128.702 93.1719 121.717 95.4348C117.978 96.6155 114.239 98.1896 110.206 98.4848C105.68 98.78 102.728 96.1235 100.859 92.0897C100.662 91.5977 99.7766 91.9913 99.9734 92.3848C106.959 111.472 129.588 85.7929 140.41 99.1735C141.001 100.059 142.083 98.9767 141.492 98.1896Z" fill="#5D748A"/>
<path d="M141.984 93.172C141.394 92.4833 140.312 93.3687 140.804 94.1558C142.28 96.5171 145.231 99.9606 142.673 102.617C140.607 104.782 136.475 104.978 133.622 104.978C132.834 104.978 132.834 106.159 133.622 106.159C137.065 106.257 141.886 106.159 144.247 103.207C146.805 100.157 144.05 95.5332 141.984 93.172Z" fill="#5D748A"/>
<path d="M240.469 149.548C235.452 143.841 227.679 146.006 221.481 148.072C217.84 149.252 214.2 150.63 210.265 150.63C205.345 150.728 202.295 146.989 200.328 142.956C200.131 142.562 199.344 142.857 199.54 143.251C202.394 150.827 208.198 153.188 215.774 151.318C223.645 149.449 232.402 144.038 239.485 150.433C240.174 151.22 241.06 150.236 240.469 149.548Z" fill="#5D748A"/>
<path d="M242.339 145.907C237.124 139.512 229.548 140.889 222.563 143.152C218.824 144.333 215.085 145.907 211.052 146.202C206.526 146.497 203.574 143.841 201.705 139.807C201.508 139.315 200.623 139.709 200.819 140.102C207.805 159.189 230.434 133.51 241.256 146.891C241.945 147.678 242.929 146.596 242.339 145.907Z" fill="#5D748A"/>
<path d="M242.83 140.791C242.24 140.102 241.158 140.988 241.65 141.775C243.126 144.136 246.077 147.58 243.519 150.236C241.453 152.401 237.321 152.597 234.468 152.597C233.681 152.597 233.681 153.778 234.468 153.778C237.911 153.876 242.732 153.778 245.093 150.826C247.651 147.776 244.897 143.251 242.83 140.791Z" fill="#5D748A"/>
</svg>
