<svg xmlns="http://www.w3.org/2000/svg" viewBox="0 0 790 240"><defs><style>.cls-1{isolation:isolate;}.cls-2{fill:#9e8271;}.cls-3{fill:#515979;}.cls-4{opacity:0.3;mix-blend-mode:multiply;}.cls-5{fill:#b29d90;}.cls-6{fill:#6adaf7;}.cls-7{fill:#b4ecfb;}.cls-8{fill:#747a94;}.cls-9{fill:#f89d81;}.cls-10{fill:#fbc4b3;}.cls-11{fill:#fff;}.cls-12{fill:#d8ebfb;}</style></defs><g class="cls-1"><g id="Layer_2" data-name="Layer 2"><g id="Layer_1-2" data-name="Layer 1"><rect class="cls-2" x="690" y="151" width="30" height="86"/><path class="cls-3" d="M717,154v80H693V154h24m6-6H687v92h36V148Z"/><g class="cls-4"><rect class="cls-3" x="699" y="160" width="18" height="10"/></g><rect class="cls-5" x="672" y="151" width="24" height="86"/><path class="cls-3" d="M693,154v80H675V154h18m6-6H669v92h30V148Z"/><g class="cls-4"><rect class="cls-3" x="675" y="160" width="18" height="10"/></g><path class="cls-6" d="M628,157a3,3,0,0,1-3-3V48a3,3,0,0,1,3-3H744a43,43,0,0,1,43,43v66a3,3,0,0,1-3,3Z"/><path class="cls-3" d="M744,48a40,40,0,0,1,40,40v66H628V48H744m0-6H628a6,6,0,0,0-6,6V154a6,6,0,0,0,6,6H784a6,6,0,0,0,6-6V88a46.06,46.06,0,0,0-46-46Z"/><path class="cls-7" d="M744,48H628v6H765.07A39.82,39.82,0,0,0,744,48Z"/><path class="cls-8" d="M585,157V88a43,43,0,0,1,86,0v69Z"/><path class="cls-3" d="M628,48a40,40,0,0,1,40,40v66H588V88a40,40,0,0,1,40-40h0m0-6a46.06,46.06,0,0,0-46,46v72h92V88a46.06,46.06,0,0,0-46-46Z"/><path class="cls-3" d="M638,49.26A40,40,0,0,0,608,88v66h60V88A40,40,0,0,0,638,49.26Z"/><rect class="cls-6" x="533" y="145" width="138" height="12" rx="3"/><path class="cls-3" d="M668,148v6H536v-6H668m0-6H536a6,6,0,0,0-6,6v6a6,6,0,0,0,6,6H668a6,6,0,0,0,6-6v-6a6,6,0,0,0-6-6Z"/><rect class="cls-6" x="533" y="145" width="90" height="12" rx="3"/><path class="cls-3" d="M620,148v6H536v-6h84m0-6H536a6,6,0,0,0-6,6v6a6,6,0,0,0,6,6h84a6,6,0,0,0,6-6v-6a6,6,0,0,0-6-6Z"/><g class="cls-4"><rect class="cls-3" x="536" y="148" width="84" height="6"/></g><path class="cls-9" d="M695,88a6,6,0,0,1-6-6V6a3,3,0,0,1,3-3h38a3,3,0,0,1,3,3V30a3,3,0,0,1-3,3H701V82A6,6,0,0,1,695,88Z"/><path class="cls-3" d="M730,6V30H698V82a3,3,0,0,1-6,0V6h38m0-6H692a6,6,0,0,0-6,6V82a9,9,0,0,0,18,0V36h26a6,6,0,0,0,6-6V6a6,6,0,0,0-6-6Z"/><rect class="cls-10" x="692" y="6" width="38" height="4"/><rect class="cls-11" x="65" y="61" width="100" height="62" rx="9"/><path class="cls-3" d="M156,64a6,6,0,0,1,6,6v44a6,6,0,0,1-6,6H74a6,6,0,0,1-6-6V70a6,6,0,0,1,6-6h82m0-6H74A12,12,0,0,0,62,70v44a12,12,0,0,0,12,12h82a12,12,0,0,0,12-12V70a12,12,0,0,0-12-12Z"/><path class="cls-12" d="M74,120h82a6,6,0,0,0,6-6H68A6,6,0,0,0,74,120Z"/><path class="cls-3" d="M126,74.5a2,2,0,0,1-2-2,1,1,0,0,0-2,0,2,2,0,0,1-4,0,5,5,0,0,1,10,0A2,2,0,0,1,126,74.5Z"/><path class="cls-3" d="M110,74.5a2,2,0,0,1-2-2,1,1,0,0,0-2,0,2,2,0,0,1-4,0,5,5,0,0,1,10,0A2,2,0,0,1,110,74.5Z"/><path class="cls-3" d="M115,84a11.92,11.92,0,0,1-8.56-3.6,2,2,0,0,1,2.86-2.8,8,8,0,0,0,11.4,0,2,2,0,1,1,2.86,2.8A11.92,11.92,0,0,1,115,84Z"/><path class="cls-3" d="M110,53.79c-.65.16-1.24.26-1.84.36l-1.81.32-1.81.32c-.61.11-1.2.22-1.85.29l-.41.05a1.74,1.74,0,0,1-1.66-2.66,5.93,5.93,0,0,1,2.2-2,8.06,8.06,0,0,1,2.66-.94,8.34,8.34,0,0,1,2.82,0A5.93,5.93,0,0,1,111,50.63a1.74,1.74,0,0,1-.64,3.07Z"/><path class="cls-3" d="M127.31,55.08c-.65-.07-1.24-.18-1.85-.29l-1.81-.32-1.81-.32c-.6-.1-1.19-.2-1.84-.36l-.4-.09a1.75,1.75,0,0,1-1.28-2.1,1.72,1.72,0,0,1,.64-1,5.93,5.93,0,0,1,2.74-1.11,8.34,8.34,0,0,1,2.82,0,8.06,8.06,0,0,1,2.66.94,5.93,5.93,0,0,1,2.2,2,1.72,1.72,0,0,1-.53,2.39,1.68,1.68,0,0,1-1.12.27Z"/><path class="cls-3" d="M115,105a3,3,0,0,1-1.89-.67l-47-38a3,3,0,0,1,3.78-4.66L115,98.14l45.11-36.47a3,3,0,0,1,3.78,4.66l-47,38A3,3,0,0,1,115,105Z"/><path class="cls-3" d="M68,123a3,3,0,0,1-1.89-5.33l34.64-28a3,3,0,0,1,3.77,4.66l-34.63,28A3,3,0,0,1,68,123Z"/><path class="cls-3" d="M162,123a3,3,0,0,1-1.89-.67l-34.63-28a3,3,0,0,1,3.78-4.66l34.63,28A3,3,0,0,1,162,123Z"/><path class="cls-3" d="M42.48,83c-5.41,0-10.67-2-15.55-3.89-8.11-3.1-15.1-5.78-22.11-.42a3,3,0,1,1-3.64-4.76c9.66-7.4,19.35-3.69,27.89-.42,8.11,3.1,15.1,5.78,22.11.42a3,3,0,0,1,3.64,4.76A19.68,19.68,0,0,1,42.48,83Z"/><path class="cls-3" d="M42.48,99c-5.41,0-10.67-2-15.55-3.89-8.11-3.1-15.1-5.78-22.11-.42a3,3,0,1,1-3.64-4.76c9.66-7.4,19.35-3.69,27.89-.42,8.11,3.1,15.1,5.78,22.11.42a3,3,0,0,1,3.64,4.76A19.74,19.74,0,0,1,42.48,99Z"/><path class="cls-3" d="M42.48,115c-5.41,0-10.67-2-15.55-3.89-8.11-3.1-15.1-5.78-22.11-.42a3,3,0,1,1-3.64-4.76c9.66-7.41,19.35-3.69,27.89-.42,8.11,3.1,15.1,5.78,22.11.42a3,3,0,0,1,3.64,4.76A19.68,19.68,0,0,1,42.48,115Z"/><rect class="cls-11" x="251" y="81" width="100" height="62" rx="9"/><path class="cls-3" d="M342,84a6,6,0,0,1,6,6v44a6,6,0,0,1-6,6H260a6,6,0,0,1-6-6V90a6,6,0,0,1,6-6h82m0-6H260a12,12,0,0,0-12,12v44a12,12,0,0,0,12,12h82a12,12,0,0,0,12-12V90a12,12,0,0,0-12-12Z"/><path class="cls-12" d="M260,140h82a6,6,0,0,0,6-6H254A6,6,0,0,0,260,140Z"/><path class="cls-3" d="M312,94.5a2,2,0,0,1-2-2,1,1,0,0,0-2,0,2,2,0,0,1-4,0,5,5,0,0,1,10,0A2,2,0,0,1,312,94.5Z"/><path class="cls-3" d="M296,94.5a2,2,0,0,1-2-2,1,1,0,0,0-2,0,2,2,0,0,1-4,0,5,5,0,0,1,10,0A2,2,0,0,1,296,94.5Z"/><path class="cls-3" d="M301,104a11.92,11.92,0,0,1-8.56-3.6,2,2,0,0,1,2.86-2.8,8,8,0,0,0,11.4,0,2,2,0,1,1,2.86,2.8A11.92,11.92,0,0,1,301,104Z"/><path class="cls-3" d="M296,73.79c-.65.16-1.24.26-1.84.36l-1.81.32-1.81.32c-.61.11-1.2.22-1.85.29l-.41,0a1.74,1.74,0,0,1-1.66-2.66,5.93,5.93,0,0,1,2.2-2,8.06,8.06,0,0,1,2.66-.94,8.34,8.34,0,0,1,2.82,0A5.93,5.93,0,0,1,297,70.63a1.74,1.74,0,0,1-.64,3.07Z"/><path class="cls-3" d="M313.31,75.08c-.65-.07-1.24-.18-1.85-.29l-1.81-.32-1.81-.32c-.6-.1-1.19-.2-1.84-.36l-.4-.09a1.75,1.75,0,0,1-1.28-2.1,1.72,1.72,0,0,1,.64-1,5.93,5.93,0,0,1,2.74-1.11,8.34,8.34,0,0,1,2.82,0,8.06,8.06,0,0,1,2.66.94,5.93,5.93,0,0,1,2.2,2,1.72,1.72,0,0,1-.53,2.39,1.68,1.68,0,0,1-1.12.27Z"/><path class="cls-3" d="M301,125a3,3,0,0,1-1.89-.67l-47-38a3,3,0,0,1,3.78-4.66L301,118.14l45.11-36.47a3,3,0,1,1,3.78,4.66l-47,38A3,3,0,0,1,301,125Z"/><path class="cls-3" d="M254,143a3,3,0,0,1-1.89-5.33l34.64-28a3,3,0,0,1,3.77,4.66l-34.63,28A3,3,0,0,1,254,143Z"/><path class="cls-3" d="M348,143a3,3,0,0,1-1.89-.67l-34.63-28a3,3,0,0,1,3.78-4.66l34.63,28A3,3,0,0,1,348,143Z"/><path class="cls-3" d="M228.48,103c-5.41,0-10.67-2-15.55-3.89-8.11-3.1-15.1-5.78-22.11-.42a3,3,0,1,1-3.64-4.76c9.66-7.4,19.35-3.69,27.89-.42,8.11,3.1,15.1,5.78,22.11.42a3,3,0,0,1,3.64,4.76A19.74,19.74,0,0,1,228.48,103Z"/><path class="cls-3" d="M228.48,119c-5.41,0-10.67-2-15.55-3.89-8.11-3.1-15.1-5.78-22.11-.42a3,3,0,1,1-3.64-4.76c9.66-7.4,19.35-3.69,27.89-.42,8.11,3.1,15.1,5.78,22.11.42a3,3,0,0,1,3.64,4.76A19.68,19.68,0,0,1,228.48,119Z"/><path class="cls-3" d="M228.48,135c-5.41,0-10.67-2-15.55-3.89-8.11-3.1-15.1-5.78-22.11-.42a3,3,0,0,1-3.64-4.76c9.66-7.4,19.35-3.69,27.89-.42,8.11,3.1,15.1,5.78,22.11.42a3,3,0,0,1,3.64,4.76A19.68,19.68,0,0,1,228.48,135Z"/><rect class="cls-11" x="441" y="61" width="100" height="62" rx="9"/><path class="cls-3" d="M532,64a6,6,0,0,1,6,6v44a6,6,0,0,1-6,6H450a6,6,0,0,1-6-6V70a6,6,0,0,1,6-6h82m0-6H450a12,12,0,0,0-12,12v44a12,12,0,0,0,12,12h82a12,12,0,0,0,12-12V70a12,12,0,0,0-12-12Z"/><path class="cls-12" d="M450,120h82a6,6,0,0,0,6-6H444A6,6,0,0,0,450,120Z"/><path class="cls-3" d="M502,74.5a2,2,0,0,1-2-2,1,1,0,0,0-2,0,2,2,0,0,1-4,0,5,5,0,0,1,10,0A2,2,0,0,1,502,74.5Z"/><path class="cls-3" d="M486,74.5a2,2,0,0,1-2-2,1,1,0,0,0-2,0,2,2,0,0,1-4,0,5,5,0,0,1,10,0A2,2,0,0,1,486,74.5Z"/><path class="cls-3" d="M491,84a11.92,11.92,0,0,1-8.56-3.6,2,2,0,0,1,2.86-2.8,8,8,0,0,0,11.4,0,2,2,0,1,1,2.86,2.8A11.92,11.92,0,0,1,491,84Z"/><path class="cls-3" d="M486,53.79c-.65.16-1.24.26-1.84.36l-1.81.32-1.81.32c-.61.11-1.2.22-1.85.29l-.41.05a1.74,1.74,0,0,1-1.66-2.66,5.93,5.93,0,0,1,2.2-2,8.06,8.06,0,0,1,2.66-.94,8.34,8.34,0,0,1,2.82,0A5.93,5.93,0,0,1,487,50.63a1.74,1.74,0,0,1-.64,3.07Z"/><path class="cls-3" d="M503.31,55.08c-.65-.07-1.24-.18-1.85-.29l-1.81-.32-1.81-.32c-.6-.1-1.19-.2-1.84-.36l-.4-.09a1.75,1.75,0,0,1-1.28-2.1,1.72,1.72,0,0,1,.64-1,5.93,5.93,0,0,1,2.74-1.11,8.34,8.34,0,0,1,2.82,0,8.06,8.06,0,0,1,2.66.94,5.93,5.93,0,0,1,2.2,2,1.72,1.72,0,0,1-.53,2.39,1.68,1.68,0,0,1-1.12.27Z"/><path class="cls-3" d="M491,105a3,3,0,0,1-1.89-.67l-47-38a3,3,0,0,1,3.78-4.66L491,98.14l45.11-36.47a3,3,0,1,1,3.78,4.66l-47,38A3,3,0,0,1,491,105Z"/><path class="cls-3" d="M444,123a3,3,0,0,1-1.89-5.33l34.64-28a3,3,0,1,1,3.77,4.66l-34.63,28A3,3,0,0,1,444,123Z"/><path class="cls-3" d="M538,123a3,3,0,0,1-1.89-.67l-34.63-28a3,3,0,0,1,3.77-4.66l34.64,28A3,3,0,0,1,538,123Z"/><path class="cls-3" d="M418.48,83c-5.41,0-10.67-2-15.55-3.89-8.11-3.1-15.1-5.78-22.11-.42a3,3,0,1,1-3.64-4.76c9.66-7.4,19.35-3.69,27.89-.42,8.11,3.1,15.11,5.78,22.11.42a3,3,0,0,1,3.64,4.76A19.68,19.68,0,0,1,418.48,83Z"/><path class="cls-3" d="M418.48,99c-5.41,0-10.67-2-15.55-3.89-8.11-3.1-15.1-5.78-22.11-.42a3,3,0,1,1-3.64-4.76c9.66-7.4,19.35-3.69,27.89-.42,8.11,3.1,15.11,5.78,22.11.42a3,3,0,0,1,3.64,4.76A19.74,19.74,0,0,1,418.48,99Z"/><path class="cls-3" d="M418.48,115c-5.41,0-10.67-2-15.55-3.89-8.11-3.1-15.1-5.78-22.11-.42a3,3,0,1,1-3.64-4.76c9.66-7.41,19.35-3.69,27.89-.42,8.11,3.1,15.1,5.78,22.11.42a3,3,0,0,1,3.64,4.76A19.68,19.68,0,0,1,418.48,115Z"/></g></g></g></svg>