<svg xmlns="http://www.w3.org/2000/svg" viewBox="0 0 240 240"><defs><style>.cls-1{isolation:isolate;}.cls-2{fill:#fff;}.cls-3{fill:#515979;}.cls-4{fill:#6adaf7;}.cls-5{fill:#fff5f5;}.cls-6{fill:#d8ebfb;}.cls-7{fill:#f89d81;}.cls-8{opacity:0.4;mix-blend-mode:color-burn;}.cls-9{fill:#fde4dd;}.cls-10{fill:#ef7d7d;}.cls-11{fill:#fde1d9;}</style></defs><g class="cls-1"><g id="Layer_1" data-name="Layer 1"><path class="cls-2" d="M55.49,230.35a6,6,0,0,1-5.94-5.94V15.59a6,6,0,0,1,5.94-5.94h112a2.56,2.56,0,0,1,1.81.75l20.37,20.37a2.57,2.57,0,0,1,.74,1.8V224.41a6,6,0,0,1-5.94,5.94Z"/><path class="cls-3" d="M167.53,12.2l20.38,20.37V224.41a3.4,3.4,0,0,1-3.4,3.39h-129a3.4,3.4,0,0,1-3.4-3.39V15.59a3.4,3.4,0,0,1,3.4-3.39h112m0-5.1h-112A8.5,8.5,0,0,0,47,15.59V224.41a8.5,8.5,0,0,0,8.49,8.49h129a8.5,8.5,0,0,0,8.49-8.49V32.57a5.1,5.1,0,0,0-1.49-3.6L171.14,8.6a5.09,5.09,0,0,0-3.61-1.5Z"/><path class="cls-2" d="M52.09,82.65a2.55,2.55,0,0,1-2.54-2.55V15.59a6,6,0,0,1,5.94-5.94h112a2.56,2.56,0,0,1,1.81.75l20.37,20.37a2.57,2.57,0,0,1,.74,1.8V80.1a2.55,2.55,0,0,1-2.54,2.55Z"/><path class="cls-3" d="M167.53,12.2l20.38,20.37V80.1H52.09V15.59a3.4,3.4,0,0,1,3.4-3.39h112m0-5.1h-112A8.5,8.5,0,0,0,47,15.59V80.1a5.09,5.09,0,0,0,5.09,5.1H187.91A5.09,5.09,0,0,0,193,80.1V32.57a5.1,5.1,0,0,0-1.49-3.6L171.14,8.6a5.09,5.09,0,0,0-3.61-1.5Z"/><path class="cls-4" d="M55.49,230.35a6,6,0,0,1-5.94-5.94V180.27a2.55,2.55,0,0,1,2.54-2.55H187.91a2.55,2.55,0,0,1,2.54,2.55v44.14a6,6,0,0,1-5.94,5.94Z"/><path class="cls-3" d="M187.91,180.27v44.14a3.4,3.4,0,0,1-3.4,3.39h-129a3.4,3.4,0,0,1-3.4-3.39V180.27H187.91m0-5.1H52.09a5.09,5.09,0,0,0-5.09,5.1v44.14a8.5,8.5,0,0,0,8.49,8.49h129a8.5,8.5,0,0,0,8.49-8.49V180.27a5.09,5.09,0,0,0-5.09-5.1Z"/><rect class="cls-5" x="52.09" y="85.2" width="135.81" height="89.98"/><path class="cls-6" d="M171.61,35.12A6.63,6.63,0,0,1,165,28.5V12.2a2.54,2.54,0,0,1,1.57-2.35,2.38,2.38,0,0,1,1-.2,2.55,2.55,0,0,1,1.81.75l20.37,20.37a2.55,2.55,0,0,1-1.8,4.35Z"/><path class="cls-3" d="M167.53,12.2l20.38,20.37h-16.3a4.08,4.08,0,0,1-4.08-4.07V12.2m0-5.1a5.11,5.11,0,0,0-5.09,5.1V28.5a9.17,9.17,0,0,0,9.17,9.16h16.3a5.09,5.09,0,0,0,3.6-8.69L171.14,8.6a5.1,5.1,0,0,0-3.61-1.5Z"/><rect class="cls-3" x="63.98" y="197.24" width="37.35" height="5.09" rx="2.55"/><rect class="cls-3" x="63.98" y="214.22" width="30.56" height="5.09" rx="2.55"/><rect class="cls-3" x="63.98" y="188.76" width="40.74" height="5.09" rx="2.55"/><rect class="cls-3" x="63.98" y="205.73" width="42.44" height="5.09" rx="2.55"/><path class="cls-3" d="M78.41,126.37A16.56,16.56,0,1,1,95,109.81,16.58,16.58,0,0,1,78.41,126.37Zm0-28.86a12.31,12.31,0,1,0,12.31,12.3A12.32,12.32,0,0,0,78.41,97.51Z"/><path class="cls-4" d="M78.41,127.64v-6.79a11,11,0,0,0,0-22.07V92a17.83,17.83,0,0,1,0,35.65Z"/><path class="cls-3" d="M69.92,108.62a2.76,2.76,0,0,1,.4-.06h.37a3,3,0,0,1,1,.17,2.08,2.08,0,0,1,.75.49,2,2,0,0,1,.46.72,2.42,2.42,0,0,1,.16.89,2.75,2.75,0,0,1-.21,1.09,2.53,2.53,0,0,1-1.49,1.4,3.25,3.25,0,0,1-1.14.2,3.1,3.1,0,0,1-.69-.08,3,3,0,0,1-.62-.21,2.5,2.5,0,0,1-.53-.3,3.23,3.23,0,0,1-.45-.36l.49-.65a.47.47,0,0,1,.4-.21.6.6,0,0,1,.29.08l.29.19.38.18a1.6,1.6,0,0,0,.53.08,1.27,1.27,0,0,0,.54-.11.92.92,0,0,0,.36-.28,1.19,1.19,0,0,0,.21-.42,2.24,2.24,0,0,0,.06-.52,1,1,0,0,0-.31-.82,1.21,1.21,0,0,0-.86-.29,2.8,2.8,0,0,0-1,.19l-1-.26L69,106h3.8v.66a.68.68,0,0,1,0,.29.53.53,0,0,1-.16.23.73.73,0,0,1-.29.16,1.67,1.67,0,0,1-.42,0H70.12Z"/><path class="cls-3" d="M79.27,109.71a6,6,0,0,1-.21,1.69,3.43,3.43,0,0,1-.58,1.18,2.46,2.46,0,0,1-.88.7,2.63,2.63,0,0,1-1.09.23,2.67,2.67,0,0,1-1.1-.23,2.52,2.52,0,0,1-.87-.7A3.6,3.6,0,0,1,74,111.4a6.07,6.07,0,0,1-.2-1.69A6,6,0,0,1,74,108a3.66,3.66,0,0,1,.57-1.19,2.38,2.38,0,0,1,.87-.69,2.67,2.67,0,0,1,1.1-.23,2.63,2.63,0,0,1,1.09.23,2.33,2.33,0,0,1,.88.69,3.48,3.48,0,0,1,.58,1.19A5.93,5.93,0,0,1,79.27,109.71Zm-1.63,0a7.13,7.13,0,0,0-.1-1.26,2.38,2.38,0,0,0-.26-.77.89.89,0,0,0-.36-.38.93.93,0,0,0-.41-.11.87.87,0,0,0-.41.11.83.83,0,0,0-.36.38,2.67,2.67,0,0,0-.25.77,8.94,8.94,0,0,0,0,2.53,2.78,2.78,0,0,0,.25.77.83.83,0,0,0,.36.38.87.87,0,0,0,.41.11.93.93,0,0,0,.41-.11.89.89,0,0,0,.36-.38,2.47,2.47,0,0,0,.26-.77A7.17,7.17,0,0,0,77.64,109.71Z"/><path class="cls-3" d="M83.37,107.8a1.86,1.86,0,0,1-.15.75,1.92,1.92,0,0,1-.39.57,1.59,1.59,0,0,1-.57.38,1.7,1.7,0,0,1-.67.13,1.8,1.8,0,0,1-.71-.13,1.55,1.55,0,0,1-.56-.38,1.7,1.7,0,0,1-.37-.57A2.26,2.26,0,0,1,80,107a1.69,1.69,0,0,1,.37-.59,1.55,1.55,0,0,1,.56-.38,1.8,1.8,0,0,1,.71-.14,1.83,1.83,0,0,1,.71.14,1.59,1.59,0,0,1,.57.38,1.69,1.69,0,0,1,.37.59A2.06,2.06,0,0,1,83.37,107.8Zm2.33-1.56a1,1,0,0,1,.19-.16.57.57,0,0,1,.31-.08h1.15l-5.59,7.2a.49.49,0,0,1-.19.16.61.61,0,0,1-.28.06H80.11Zm-3.54,1.56a2.52,2.52,0,0,0,0-.43.85.85,0,0,0-.12-.27.41.41,0,0,0-.19-.14.51.51,0,0,0-.22,0,.59.59,0,0,0-.23,0,.37.37,0,0,0-.17.14.84.84,0,0,0-.11.27,1.8,1.8,0,0,0,0,.43,1.58,1.58,0,0,0,0,.41.78.78,0,0,0,.11.26.55.55,0,0,0,.17.14.85.85,0,0,0,.23,0,.72.72,0,0,0,.22,0,.62.62,0,0,0,.19-.14.79.79,0,0,0,.12-.26A2.18,2.18,0,0,0,82.16,107.8Zm5.48,3.88a1.86,1.86,0,0,1-.15.75,2,2,0,0,1-.39.58,1.56,1.56,0,0,1-.57.37,1.71,1.71,0,0,1-.67.14,1.8,1.8,0,0,1-.71-.14,1.45,1.45,0,0,1-.56-.37,1.6,1.6,0,0,1-.37-.58,2.11,2.11,0,0,1,0-1.51,1.56,1.56,0,0,1,.37-.59,1.59,1.59,0,0,1,.56-.38,1.8,1.8,0,0,1,.71-.14,1.87,1.87,0,0,1,.71.14,1.73,1.73,0,0,1,.57.38,1.85,1.85,0,0,1,.37.59A2.28,2.28,0,0,1,87.64,111.68Zm-1.21,0a1.61,1.61,0,0,0-.05-.42.57.57,0,0,0-.12-.27.43.43,0,0,0-.18-.15.65.65,0,0,0-.45,0,.4.4,0,0,0-.17.15.56.56,0,0,0-.11.27,1.66,1.66,0,0,0,0,.42,1.58,1.58,0,0,0,0,.41.57.57,0,0,0,.11.26.46.46,0,0,0,.17.14.65.65,0,0,0,.45,0,.49.49,0,0,0,.18-.14.57.57,0,0,0,.12-.26A1.53,1.53,0,0,0,86.43,111.68Z"/><path class="cls-3" d="M78.41,167.11A16.55,16.55,0,1,1,95,150.56,16.58,16.58,0,0,1,78.41,167.11Zm0-28.86a12.31,12.31,0,1,0,12.31,12.31A12.32,12.32,0,0,0,78.41,138.25Z"/><path class="cls-7" d="M89.81,164.26,85.47,159a11,11,0,0,0-7.06-19.52v-6.79a17.83,17.83,0,0,1,11.4,31.53Z"/><path class="cls-3" d="M73.33,151.29v.88a.28.28,0,0,1-.08.21.29.29,0,0,1-.22.08h-.46v1.71H71.19v-1.71h-3a.44.44,0,0,1-.27-.09.39.39,0,0,1-.15-.23l-.16-.78,3.43-4.61h1.51v4.54Zm-2.14,0v-1.94c0-.12,0-.25,0-.38l0-.43-2,2.75Z"/><path class="cls-3" d="M75.82,149.36l.41-.06h.37a2.8,2.8,0,0,1,1,.18,2.2,2.2,0,0,1,.75.48,2.06,2.06,0,0,1,.46.73,2.66,2.66,0,0,1-.06,2,2.52,2.52,0,0,1-.58.85,2.57,2.57,0,0,1-.9.55,3.27,3.27,0,0,1-1.15.2,2.61,2.61,0,0,1-.69-.08,4,4,0,0,1-.61-.2,3.85,3.85,0,0,1-.53-.3,4.23,4.23,0,0,1-.45-.37l.49-.65a.54.54,0,0,1,.4-.21.52.52,0,0,1,.29.09l.29.18a1.68,1.68,0,0,0,.38.18,1.6,1.6,0,0,0,.53.08,1.27,1.27,0,0,0,.54-.1.94.94,0,0,0,.36-.29,1.17,1.17,0,0,0,.2-.42,1.72,1.72,0,0,0,.07-.52,1,1,0,0,0-.31-.82,1.2,1.2,0,0,0-.86-.28,2.55,2.55,0,0,0-1,.19l-1-.27.63-3.71h3.8v.65a.94.94,0,0,1,0,.3.69.69,0,0,1-.16.23.87.87,0,0,1-.29.15,1.37,1.37,0,0,1-.43,0H76Z"/><path class="cls-3" d="M83.37,148.55a1.78,1.78,0,0,1-.15.74,2,2,0,0,1-.39.58,1.78,1.78,0,0,1-1.24.5,1.8,1.8,0,0,1-.71-.13,1.66,1.66,0,0,1-.56-.37,1.75,1.75,0,0,1-.37-.58,2,2,0,0,1-.13-.74,2.07,2.07,0,0,1,.13-.77,1.67,1.67,0,0,1,.93-1,1.8,1.8,0,0,1,.71-.13,1.83,1.83,0,0,1,.71.13,1.73,1.73,0,0,1,.57.38,1.69,1.69,0,0,1,.37.59A2.07,2.07,0,0,1,83.37,148.55ZM85.7,147a1,1,0,0,1,.19-.16.57.57,0,0,1,.31-.07h1.15L81.76,154a.77.77,0,0,1-.19.16.61.61,0,0,1-.28.06H80.11Zm-3.54,1.57a2.33,2.33,0,0,0,0-.43.81.81,0,0,0-.12-.28.62.62,0,0,0-.19-.14.51.51,0,0,0-.22,0,.59.59,0,0,0-.23,0,.55.55,0,0,0-.17.14.82.82,0,0,0-.11.28,1.69,1.69,0,0,0,0,.43,1.49,1.49,0,0,0,0,.4.7.7,0,0,0,.11.26.44.44,0,0,0,.17.14.59.59,0,0,0,.23,0,.51.51,0,0,0,.22,0,.49.49,0,0,0,.19-.14.7.7,0,0,0,.12-.26A2.06,2.06,0,0,0,82.16,148.55Zm5.48,3.88a1.78,1.78,0,0,1-.15.74,1.85,1.85,0,0,1-.39.58,1.59,1.59,0,0,1-.57.38,1.7,1.7,0,0,1-.67.13,1.8,1.8,0,0,1-.71-.13,1.47,1.47,0,0,1-.56-.38,1.52,1.52,0,0,1-.37-.58,2,2,0,0,1-.14-.74,2.11,2.11,0,0,1,.14-.77,1.64,1.64,0,0,1,.37-.59,1.59,1.59,0,0,1,.56-.38,1.8,1.8,0,0,1,.71-.13,1.87,1.87,0,0,1,.71.13,1.73,1.73,0,0,1,.57.38,2,2,0,0,1,.37.59A2.34,2.34,0,0,1,87.64,152.43Zm-1.21,0a1.75,1.75,0,0,0-.05-.43.67.67,0,0,0-.12-.27.34.34,0,0,0-.18-.14.54.54,0,0,0-.22,0,.56.56,0,0,0-.23,0,.32.32,0,0,0-.17.14.67.67,0,0,0-.11.27,1.8,1.8,0,0,0,0,.43,1.49,1.49,0,0,0,0,.4.57.57,0,0,0,.11.26.38.38,0,0,0,.17.14.56.56,0,0,0,.23,0,.54.54,0,0,0,.22,0,.4.4,0,0,0,.18-.14.57.57,0,0,0,.12-.26A1.45,1.45,0,0,0,86.43,152.43Z"/><circle class="cls-3" cx="154.38" cy="191.3" r="3.4"/><rect class="cls-3" x="150.98" y="194.7" width="6.79" height="8.49"/><path class="cls-3" d="M151,203.19h3.4a0,0,0,0,1,0,0v13.58a1.7,1.7,0,0,1-1.7,1.7h0a1.7,1.7,0,0,1-1.7-1.7V203.19a0,0,0,0,1,0,0Z"/><path class="cls-3" d="M154.38,203.19h3.4a0,0,0,0,1,0,0v13.58a1.7,1.7,0,0,1-1.7,1.7h0a1.7,1.7,0,0,1-1.7-1.7V203.19A0,0,0,0,1,154.38,203.19Z"/><path class="cls-3" d="M151,194.7h0a0,0,0,0,1,0,0v10.61a1.27,1.27,0,0,1-1.27,1.27h0a1.27,1.27,0,0,1-1.27-1.27v-8.06A2.55,2.55,0,0,1,151,194.7Z"/><path class="cls-3" d="M157.77,194.7h0a2.55,2.55,0,0,1,2.55,2.55v8.06a1.27,1.27,0,0,1-1.27,1.27h0a1.27,1.27,0,0,1-1.27-1.27V194.7a0,0,0,0,1,0,0Z"/><circle class="cls-3" cx="125.52" cy="191.3" r="3.4"/><rect class="cls-3" x="122.12" y="194.7" width="6.79" height="8.49"/><path class="cls-3" d="M122.12,203.19h3.4a0,0,0,0,1,0,0v13.58a1.7,1.7,0,0,1-1.7,1.7h0a1.7,1.7,0,0,1-1.7-1.7V203.19A0,0,0,0,1,122.12,203.19Z"/><path class="cls-3" d="M125.52,203.19h3.4a0,0,0,0,1,0,0v13.58a1.7,1.7,0,0,1-1.7,1.7h0a1.7,1.7,0,0,1-1.7-1.7V203.19A0,0,0,0,1,125.52,203.19Z"/><path class="cls-3" d="M122.12,194.7h0a0,0,0,0,1,0,0v10.61a1.27,1.27,0,0,1-1.27,1.27h0a1.27,1.27,0,0,1-1.27-1.27v-8.06A2.55,2.55,0,0,1,122.12,194.7Z"/><path class="cls-3" d="M128.91,194.7h0a2.55,2.55,0,0,1,2.55,2.55v8.06a1.27,1.27,0,0,1-1.27,1.27h0a1.27,1.27,0,0,1-1.27-1.27V194.7A0,0,0,0,1,128.91,194.7Z"/><g class="cls-8"><circle class="cls-3" cx="168.81" cy="191.3" r="3.4"/><path class="cls-3" d="M172.2,194.7h-6.79a2.54,2.54,0,0,0-2.54,2.54v8.07a1.27,1.27,0,0,0,2.54,0v11.46a1.7,1.7,0,1,0,3.4,0,1.7,1.7,0,1,0,3.39,0V205.31a1.28,1.28,0,0,0,2.55,0v-8.07A2.55,2.55,0,0,0,172.2,194.7Z"/></g><circle class="cls-3" cx="139.95" cy="191.3" r="3.4"/><rect class="cls-3" x="136.55" y="194.7" width="6.79" height="8.49"/><path class="cls-3" d="M136.55,203.19h3.4a0,0,0,0,1,0,0v13.58a1.7,1.7,0,0,1-1.7,1.7h0a1.7,1.7,0,0,1-1.7-1.7V203.19A0,0,0,0,1,136.55,203.19Z"/><path class="cls-3" d="M139.95,203.19h3.4a0,0,0,0,1,0,0v13.58a1.7,1.7,0,0,1-1.7,1.7h0a1.7,1.7,0,0,1-1.7-1.7V203.19A0,0,0,0,1,139.95,203.19Z"/><path class="cls-3" d="M136.55,194.7h0a0,0,0,0,1,0,0v10.61a1.27,1.27,0,0,1-1.27,1.27h0a1.27,1.27,0,0,1-1.27-1.27v-8.06a2.55,2.55,0,0,1,2.55-2.55Z"/><path class="cls-3" d="M143.34,194.7h0a2.55,2.55,0,0,1,2.55,2.55v8.06a1.27,1.27,0,0,1-1.27,1.27h0a1.27,1.27,0,0,1-1.27-1.27V194.7A0,0,0,0,1,143.34,194.7Z"/><path class="cls-3" d="M111.51,111.51h-1.7a1.7,1.7,0,0,1,0-3.39h1.7a1.7,1.7,0,1,1,0,3.39Zm-8.49,0h-1.69a1.7,1.7,0,1,1,0-3.39H103a1.7,1.7,0,1,1,0,3.39Z"/><path class="cls-3" d="M111.51,152.26h-1.7a1.7,1.7,0,0,1,0-3.4h1.7a1.7,1.7,0,0,1,0,3.4Zm-8.49,0h-1.69a1.7,1.7,0,0,1,0-3.4H103a1.7,1.7,0,1,1,0,3.4Z"/><rect class="cls-9" x="118.3" y="95.38" width="57.72" height="69.6" rx="4"/><path class="cls-3" d="M120,71.77a17.41,17.41,0,0,1-17.4-17.4,2.12,2.12,0,0,1,2.12-2.12h30.56a2.12,2.12,0,0,1,2.12,2.12A17.42,17.42,0,0,1,120,71.77Z"/><path class="cls-3" d="M135.28,54.37h0m0,0a15.28,15.28,0,1,1-30.56,0h30.56m0-4.24H104.72a4.24,4.24,0,0,0-4.24,4.24,19.52,19.52,0,0,0,39,.15c0-.05,0-.1,0-.15a4.24,4.24,0,0,0-4.25-4.24Zm0,8.49Z"/><ellipse class="cls-10" cx="120" cy="64.56" rx="11.37" ry="5.09"/><path class="cls-3" d="M108.08,29.8c-.39,0-.92-.1-1.37-.13s-.93-.07-1.37-.11a13.25,13.25,0,0,0-2.48.1,9.13,9.13,0,0,0-2.2.57,21.57,21.57,0,0,0-2.33,1.15l-.32.16a1.71,1.71,0,0,1-2.31-.78,1.77,1.77,0,0,1,0-1.49,7.56,7.56,0,0,1,2.58-3.14,4.45,4.45,0,0,1,.91-.56c.32-.15.64-.34,1-.46s.69-.22,1-.31a7.72,7.72,0,0,1,1-.19A10.32,10.32,0,0,1,108,25.69a8.92,8.92,0,0,1,1.65,1.12,1.7,1.7,0,0,1,.2,2.39,1.74,1.74,0,0,1-1.28.6Z"/><path class="cls-3" d="M111.53,44.61a2.12,2.12,0,0,1-2.12-2.12,3.82,3.82,0,1,0-7.64,0,2.13,2.13,0,0,1-4.25,0,8.07,8.07,0,1,1,16.13,0A2.12,2.12,0,0,1,111.53,44.61Z"/><path class="cls-3" d="M130.31,26.81A8.92,8.92,0,0,1,132,25.69a10.32,10.32,0,0,1,5.83-1.08,7.72,7.72,0,0,1,1.05.19c.34.09.68.2,1,.31s.66.31,1,.46a4.45,4.45,0,0,1,.91.56,7.56,7.56,0,0,1,2.58,3.14A1.74,1.74,0,0,1,142,31.55l-.32-.17a21.57,21.57,0,0,0-2.33-1.15,9.13,9.13,0,0,0-2.2-.57,13.25,13.25,0,0,0-2.48-.1c-.44,0-.9.06-1.37.11s-1,.13-1.37.13h-.52a1.7,1.7,0,0,1-1.09-3Z"/><path class="cls-3" d="M140.35,44.61a2.12,2.12,0,0,1-2.12-2.12,3.82,3.82,0,0,0-7.64,0,2.12,2.12,0,0,1-4.24,0,8.07,8.07,0,1,1,16.13,0A2.12,2.12,0,0,1,140.35,44.61Z"/><circle class="cls-11" cx="85.2" cy="44.61" r="2.12"/><circle class="cls-11" cx="89.87" cy="53.95" r="2.12"/><circle class="cls-11" cx="80.53" cy="53.95" r="2.12"/><circle class="cls-11" cx="154.8" cy="44.61" r="2.12"/><circle class="cls-11" cx="159.47" cy="53.95" r="2.12"/><circle class="cls-11" cx="150.13" cy="53.95" r="2.12"/><rect class="cls-3" x="125.94" y="103.02" width="35.65" height="5.09" rx="2.55"/><rect class="cls-3" x="125.94" y="111.51" width="42.44" height="5.09" rx="2.55"/><rect class="cls-3" x="125.94" y="120" width="42.44" height="5.09" rx="2.55"/><rect class="cls-3" x="125.94" y="128.49" width="25.47" height="5.09" rx="2.55"/><rect class="cls-3" x="125.94" y="143.77" width="42.44" height="5.09" rx="2.55"/><rect class="cls-3" x="125.94" y="152.26" width="25.47" height="5.09" rx="2.55"/></g></g></svg>