<svg id="Layer_1" data-name="Layer 1" xmlns="http://www.w3.org/2000/svg" viewBox="0 0 240 240"><defs><style>.cls-1{fill:#f3f9fe;}.cls-2{fill:#515979;}.cls-3{fill:#d8ebfb;}.cls-4{fill:#fbb040;}.cls-5{fill:#f89d81;}.cls-6{fill:#fff;}.cls-7{fill:#ef7d7d;}.cls-8{fill:#6adaf7;}</style></defs><rect class="cls-1" x="109.35" y="117.42" width="120.17" height="75.3" rx="5.32"/><path class="cls-2" d="M224.2,119.7a3,3,0,0,1,3,3v64.65a3,3,0,0,1-3,3.05H114.68a3.06,3.06,0,0,1-3.05-3.05V122.74a3,3,0,0,1,3.05-3H224.2m0-4.56H114.68a7.61,7.61,0,0,0-7.61,7.6v64.65a7.61,7.61,0,0,0,7.61,7.61H224.2a7.61,7.61,0,0,0,7.61-7.61V122.74a7.61,7.61,0,0,0-7.61-7.6Z"/><path class="cls-3" d="M142.06,144H111.63V119.7h36.51V138A6.08,6.08,0,0,1,142.06,144Z"/><path class="cls-2" d="M180.47,128.45a1.52,1.52,0,0,1-1.52-1.52,1.91,1.91,0,1,0-3.81,0,1.52,1.52,0,1,1-3,0,4.95,4.95,0,1,1,9.89,0A1.52,1.52,0,0,1,180.47,128.45Z"/><path class="cls-2" d="M165.26,128.45a1.53,1.53,0,0,1-1.53-1.52,1.9,1.9,0,1,0-3.8,0,1.52,1.52,0,1,1-3,0,4.95,4.95,0,1,1,9.89,0A1.52,1.52,0,0,1,165.26,128.45Z"/><path class="cls-2" d="M175,109.35a6.21,6.21,0,0,1,2.31-.46,7.43,7.43,0,0,1,2.32.32,6.42,6.42,0,0,1,2.17,1.12,4.8,4.8,0,0,1,1.52,2,1.3,1.3,0,0,1-1.64,1.74l-.29-.1c-.56-.2-1-.42-1.47-.59s-.92-.35-1.42-.5l-1.55-.47a15.68,15.68,0,0,1-1.65-.5l-.3-.13a1.28,1.28,0,0,1-.7-1.68A1.32,1.32,0,0,1,175,109.35Z"/><path class="cls-2" d="M163.56,111.87a15.51,15.51,0,0,1-1.64.5l-1.55.47c-.5.15-1,.34-1.42.5s-.91.39-1.48.59l-.28.1a1.31,1.31,0,0,1-1.68-.79,1.35,1.35,0,0,1,0-.95,4.91,4.91,0,0,1,1.53-2,6.24,6.24,0,0,1,2.17-1.12,7.43,7.43,0,0,1,2.32-.32,6.16,6.16,0,0,1,2.3.46,1.3,1.3,0,0,1,.71,1.69,1.24,1.24,0,0,1-.7.7Z"/><polygon class="cls-4" points="125.32 146.32 127.2 150.13 131.41 150.74 128.37 153.71 129.09 157.9 125.32 155.92 121.56 157.9 122.28 153.71 119.24 150.74 123.44 150.13 125.32 146.32"/><polygon class="cls-4" points="140.54 146.32 142.42 150.13 146.62 150.74 143.58 153.71 144.3 157.9 140.54 155.92 136.78 157.9 137.49 153.71 134.45 150.74 138.66 150.13 140.54 146.32"/><polygon class="cls-4" points="155.75 146.32 157.63 150.13 161.83 150.74 158.79 153.71 159.51 157.9 155.75 155.92 151.99 157.9 152.71 153.71 149.66 150.74 153.87 150.13 155.75 146.32"/><polygon class="cls-4" points="170.96 146.32 172.84 150.13 177.04 150.74 174 153.71 174.72 157.9 170.96 155.92 167.2 157.9 167.92 153.71 164.88 150.74 169.08 150.13 170.96 146.32"/><polygon class="cls-3" points="186.17 146.32 188.05 150.13 192.26 150.74 189.22 153.71 189.93 157.9 186.17 155.92 182.41 157.9 183.13 153.71 180.09 150.74 184.29 150.13 186.17 146.32"/><path class="cls-2" d="M120,166.09a2.65,2.65,0,0,1-.39-.94,2.58,2.58,0,0,1,0-1,2.66,2.66,0,0,1,.36-.9,3,3,0,0,1,.73-.78l.52.31a.3.3,0,0,1,.1.09.52.52,0,0,1,0,.11.2.2,0,0,1,0,.11.24.24,0,0,1-.06.09,1.32,1.32,0,0,0-.19.29,1.62,1.62,0,0,0-.15.47,1.6,1.6,0,0,0,0,.58,1.67,1.67,0,0,0,.26.65.34.34,0,0,1,.06.32.35.35,0,0,1-.21.2Zm1.9,0a2.84,2.84,0,0,1-.39-.94,2.58,2.58,0,0,1,0-1,2.66,2.66,0,0,1,.36-.9,3.1,3.1,0,0,1,.72-.78l.53.31a.38.38,0,0,1,.09.09.26.26,0,0,1,0,.11.35.35,0,0,1,0,.11l-.06.09a1.3,1.3,0,0,0-.2.29,1.62,1.62,0,0,0-.15.47,1.88,1.88,0,0,0,0,.58,1.67,1.67,0,0,0,.26.65.32.32,0,0,1-.16.52Z"/><path class="cls-2" d="M126.12,171h-1.81V163.2h1.81Z"/><path class="cls-2" d="M128.55,162.69a2.7,2.7,0,0,1,.38.94,2.34,2.34,0,0,1,0,1,2.63,2.63,0,0,1-.36.91,3.13,3.13,0,0,1-.73.78l-.52-.31a.19.19,0,0,1-.09-.09.27.27,0,0,1,0-.12.19.19,0,0,1,0-.1l.06-.09a1.06,1.06,0,0,0,.13-.18,2.09,2.09,0,0,0,.13-.26,2.45,2.45,0,0,0,.09-.32,1.59,1.59,0,0,0,0-.38,1.67,1.67,0,0,0-.07-.42,1.59,1.59,0,0,0-.21-.44.33.33,0,0,1-.06-.32.38.38,0,0,1,.22-.19Z"/><path class="cls-2" d="M131.5,163v8h-1.65v-8Z"/><path class="cls-2" d="M134.27,163v8h-1.65v-8Z"/><path class="cls-2" d="M139.5,166a2.6,2.6,0,0,1,.7-.49,1.93,1.93,0,0,1,.85-.18,1.86,1.86,0,0,1,.85.19,1.89,1.89,0,0,1,.65.55,2.6,2.6,0,0,1,.42.85,3.89,3.89,0,0,1,.15,1.12,4.23,4.23,0,0,1-.17,1.22,3.2,3.2,0,0,1-.48.94,2.17,2.17,0,0,1-.75.6,2.13,2.13,0,0,1-1.4.17,1.91,1.91,0,0,1-.36-.13,1.61,1.61,0,0,1-.3-.21,3.31,3.31,0,0,1-.26-.27l-.06.28a.4.4,0,0,1-.14.23.48.48,0,0,1-.26.06h-1.09v-8h1.65Zm0,3.43a1.08,1.08,0,0,0,.4.29,1.15,1.15,0,0,0,.44.09,1.08,1.08,0,0,0,.44-.09.83.83,0,0,0,.33-.29,1.37,1.37,0,0,0,.22-.53,3,3,0,0,0,.08-.8,3.55,3.55,0,0,0-.06-.71,1.36,1.36,0,0,0-.18-.47.7.7,0,0,0-.3-.27,1,1,0,0,0-.4-.08,1,1,0,0,0-.53.13,1.74,1.74,0,0,0-.44.39Z"/><path class="cls-2" d="M145.32,168.49a1.55,1.55,0,0,0,.42,1,1.25,1.25,0,0,0,.88.31,1.85,1.85,0,0,0,.5-.06,3.17,3.17,0,0,0,.37-.16l.29-.15a.59.59,0,0,1,.29-.07.34.34,0,0,1,.3.14l.48.59a2.43,2.43,0,0,1-.55.48,3.08,3.08,0,0,1-.61.29,3.66,3.66,0,0,1-.62.14,4.22,4.22,0,0,1-.6,0,3,3,0,0,1-1.09-.19,2.58,2.58,0,0,1-.89-.56,2.76,2.76,0,0,1-.6-.93,3.42,3.42,0,0,1-.22-1.29,2.74,2.74,0,0,1,.73-1.91,2.49,2.49,0,0,1,.86-.59,2.76,2.76,0,0,1,1.14-.22,2.69,2.69,0,0,1,1,.17,2.16,2.16,0,0,1,.78.49,2.29,2.29,0,0,1,.51.8,2.76,2.76,0,0,1,.19,1.07,2.36,2.36,0,0,1,0,.3.47.47,0,0,1-.06.19.17.17,0,0,1-.11.09.48.48,0,0,1-.18,0Zm2.08-1a1.58,1.58,0,0,0-.05-.38,1,1,0,0,0-.17-.34.8.8,0,0,0-.3-.23,1.16,1.16,0,0,0-1.19.18,1.45,1.45,0,0,0-.35.77Z"/><path class="cls-2" d="M156.22,166.74l-.14.15a.37.37,0,0,1-.2.05.4.4,0,0,1-.22-.06l-.22-.13a1.57,1.57,0,0,0-.29-.13,1.22,1.22,0,0,0-.41-.06,1.17,1.17,0,0,0-.52.11,1,1,0,0,0-.37.32,1.31,1.31,0,0,0-.21.51,2.84,2.84,0,0,0-.07.68,2.09,2.09,0,0,0,.3,1.22,1,1,0,0,0,.85.43,1.1,1.1,0,0,0,.45-.08,1,1,0,0,0,.29-.16,1.92,1.92,0,0,0,.21-.16.41.41,0,0,1,.25-.07.34.34,0,0,1,.3.14l.48.59a2.39,2.39,0,0,1-.54.48,2.86,2.86,0,0,1-.58.29,3,3,0,0,1-.59.14,3.86,3.86,0,0,1-.58,0,2.47,2.47,0,0,1-1-.19,2.62,2.62,0,0,1-.81-.56,2.68,2.68,0,0,1-.55-.9,3.27,3.27,0,0,1-.2-1.21,3.31,3.31,0,0,1,.17-1.11,2.66,2.66,0,0,1,.53-.91,2.4,2.4,0,0,1,.86-.59,3,3,0,0,1,1.19-.22,2.83,2.83,0,0,1,1.14.21,2.74,2.74,0,0,1,.89.6Z"/><path class="cls-2" d="M159.79,165.35a3.27,3.27,0,0,1,1.15.19,2.52,2.52,0,0,1,.88.57,2.5,2.5,0,0,1,.58.89,3.14,3.14,0,0,1,.2,1.18,3.2,3.2,0,0,1-.2,1.19,2.63,2.63,0,0,1-.58.9,2.39,2.39,0,0,1-.88.57,3.41,3.41,0,0,1-2.3,0,2.43,2.43,0,0,1-.89-.57,2.49,2.49,0,0,1-.58-.9,3.19,3.19,0,0,1-.21-1.19,3.14,3.14,0,0,1,.21-1.18,2.37,2.37,0,0,1,.58-.89,2.57,2.57,0,0,1,.89-.57A3.27,3.27,0,0,1,159.79,165.35Zm0,4.46a.93.93,0,0,0,.84-.4,2.89,2.89,0,0,0,0-2.44,1.09,1.09,0,0,0-1.69,0,2.8,2.8,0,0,0,0,2.44A.94.94,0,0,0,159.79,169.81Z"/><path class="cls-2" d="M163.43,171v-5.52h1a.39.39,0,0,1,.4.28l.09.3a2.44,2.44,0,0,1,.29-.27,2.14,2.14,0,0,1,.32-.2,1.66,1.66,0,0,1,.37-.14,1.56,1.56,0,0,1,.44-.05,1.25,1.25,0,0,1,.83.26,1.63,1.63,0,0,1,.5.69,1.48,1.48,0,0,1,.34-.44,1.55,1.55,0,0,1,.43-.29,2,2,0,0,1,.49-.17,2.94,2.94,0,0,1,.51-.05,2.18,2.18,0,0,1,.84.14,1.57,1.57,0,0,1,.62.41,1.77,1.77,0,0,1,.37.66,2.73,2.73,0,0,1,.13.89V171h-1.65v-3.5c0-.58-.24-.86-.73-.86a.75.75,0,0,0-.56.22.86.86,0,0,0-.22.64V171h-1.65v-3.5a.93.93,0,0,0-.19-.67.72.72,0,0,0-.55-.19.87.87,0,0,0-.42.1,1.89,1.89,0,0,0-.38.27v4Z"/><path class="cls-2" d="M174.35,163.92a.77.77,0,0,1-.08.37.81.81,0,0,1-.21.3,1,1,0,0,1-.33.21,1,1,0,0,1-.39.08,1,1,0,0,1-.38-.08,1.06,1.06,0,0,1-.31-.21.81.81,0,0,1-.21-.3.91.91,0,0,1-.08-.37,1,1,0,0,1,.08-.38,1.06,1.06,0,0,1,.21-.31,1.27,1.27,0,0,1,.31-.2,1,1,0,0,1,.38-.08,1,1,0,0,1,.39.08,1.21,1.21,0,0,1,.33.2,1.06,1.06,0,0,1,.21.31A.84.84,0,0,1,174.35,163.92Zm-.17,1.51V171h-1.65v-5.52Z"/><path class="cls-2" d="M176.86,166l.33-.28a2.22,2.22,0,0,1,.37-.21,2.13,2.13,0,0,1,.91-.19,1.84,1.84,0,0,1,.8.16,1.58,1.58,0,0,1,.59.43,1.88,1.88,0,0,1,.36.67,2.75,2.75,0,0,1,.12.84V171h-1.65v-3.5a1,1,0,0,0-.18-.64.68.68,0,0,0-.55-.22,1.26,1.26,0,0,0-.51.11,2.19,2.19,0,0,0-.46.31V171h-1.65v-5.52h1a.4.4,0,0,1,.41.28Z"/><path class="cls-2" d="M186.42,165.6v.6a.29.29,0,0,1-.08.22.49.49,0,0,1-.26.13l-.4.09a1.44,1.44,0,0,1,0,.24,2,2,0,0,1,0,.25,1.54,1.54,0,0,1-.18.75,1.68,1.68,0,0,1-.47.56,2.24,2.24,0,0,1-.71.35,2.8,2.8,0,0,1-.88.13h-.25a1,1,0,0,1-.24,0c-.12.08-.18.16-.18.25a.2.2,0,0,0,.15.2,1.61,1.61,0,0,0,.39.09l.56,0,.64,0a4.35,4.35,0,0,1,.63.1,1.64,1.64,0,0,1,.56.22,1.18,1.18,0,0,1,.39.41,1.29,1.29,0,0,1,.15.66,1.61,1.61,0,0,1-.18.73,1.86,1.86,0,0,1-.53.63,2.7,2.7,0,0,1-.86.45,3.85,3.85,0,0,1-1.17.16,4.66,4.66,0,0,1-1.13-.12,2.82,2.82,0,0,1-.78-.32,1.35,1.35,0,0,1-.46-.46,1,1,0,0,1-.15-.54.89.89,0,0,1,.22-.62,1.52,1.52,0,0,1,.59-.39,1.05,1.05,0,0,1-.32-.31,1,1,0,0,1-.12-.5.85.85,0,0,1,.05-.26.91.91,0,0,1,.13-.26,1.79,1.79,0,0,1,.23-.25,1.85,1.85,0,0,1,.33-.21,1.88,1.88,0,0,1-.68-.6,1.59,1.59,0,0,1-.25-.88,1.57,1.57,0,0,1,.18-.75,1.73,1.73,0,0,1,.48-.56,2.21,2.21,0,0,1,.72-.36,3.26,3.26,0,0,1,.9-.12,2.91,2.91,0,0,1,1.25.26Zm-1.63,5.56a.31.31,0,0,0-.18-.29,1.28,1.28,0,0,0-.45-.12,5.75,5.75,0,0,0-.64-.05c-.23,0-.46,0-.69,0a1,1,0,0,0-.25.24.45.45,0,0,0-.1.29.54.54,0,0,0,.05.22.36.36,0,0,0,.18.16,1.13,1.13,0,0,0,.34.11,2.88,2.88,0,0,0,.55,0,3.09,3.09,0,0,0,.58,0,1.23,1.23,0,0,0,.37-.12.47.47,0,0,0,.19-.18A.54.54,0,0,0,184.79,171.16Zm-1.28-3.26a.67.67,0,0,0,.78-.73.74.74,0,0,0-.18-.53.82.82,0,0,0-.6-.19.78.78,0,0,0-.59.19.74.74,0,0,0-.19.53.88.88,0,0,0,.05.29.59.59,0,0,0,.14.23.67.67,0,0,0,.24.16A1,1,0,0,0,183.51,167.9Z"/><path class="cls-2" d="M191.22,166a2.77,2.77,0,0,1,.7-.49,2,2,0,0,1,.85-.18,1.84,1.84,0,0,1,1.51.74,2.4,2.4,0,0,1,.41.85,3.89,3.89,0,0,1,.15,1.12,4.23,4.23,0,0,1-.17,1.22,2.78,2.78,0,0,1-.48.94,2.23,2.23,0,0,1-.74.6,2.05,2.05,0,0,1-1,.22,2,2,0,0,1-.44,0,2,2,0,0,1-.37-.13,1.61,1.61,0,0,1-.3-.21l-.26-.27-.06.28a.35.35,0,0,1-.14.23.46.46,0,0,1-.25.06h-1.1v-8h1.65Zm0,3.43a1,1,0,0,0,.41.29,1.12,1.12,0,0,0,.44.09,1,1,0,0,0,.43-.09.93.93,0,0,0,.34-.29,1.76,1.76,0,0,0,.22-.53,4.13,4.13,0,0,0,0-1.51,1.36,1.36,0,0,0-.18-.47.7.7,0,0,0-.3-.27,1.07,1.07,0,0,0-.41-.08,1,1,0,0,0-.53.13,1.93,1.93,0,0,0-.44.39Z"/><path class="cls-2" d="M195.57,166.2a3.36,3.36,0,0,1,1.1-.66,4,4,0,0,1,1.31-.21,2.38,2.38,0,0,1,.91.16,1.91,1.91,0,0,1,1.11,1.14,2.74,2.74,0,0,1,.14.87V171h-.75a.84.84,0,0,1-.36-.06.5.5,0,0,1-.2-.27l-.11-.3a4.85,4.85,0,0,1-.4.31,3.18,3.18,0,0,1-.4.23,2,2,0,0,1-.44.13,2.59,2.59,0,0,1-.51,0,2.17,2.17,0,0,1-.69-.1,1.32,1.32,0,0,1-.52-.29,1.25,1.25,0,0,1-.33-.48,1.64,1.64,0,0,1-.12-.65,1.4,1.4,0,0,1,.15-.61,1.51,1.51,0,0,1,.52-.56,3.3,3.3,0,0,1,1-.42,6.52,6.52,0,0,1,1.57-.19v-.24a1,1,0,0,0-.2-.7.77.77,0,0,0-.57-.21,1.56,1.56,0,0,0-.48.06,2.52,2.52,0,0,0-.33.15l-.29.14a.81.81,0,0,1-.33.06.42.42,0,0,1-.28-.08,1,1,0,0,1-.2-.2Zm3,2.51a5.4,5.4,0,0,0-.82.08,2.46,2.46,0,0,0-.5.16.65.65,0,0,0-.26.22.5.5,0,0,0-.07.27.46.46,0,0,0,.15.39.71.71,0,0,0,.45.12,1.36,1.36,0,0,0,.56-.11,1.91,1.91,0,0,0,.49-.37Z"/><path class="cls-2" d="M205.26,166.74a1.06,1.06,0,0,1-.15.15.33.33,0,0,1-.19.05.44.44,0,0,1-.23-.06l-.22-.13a1.46,1.46,0,0,0-.28-.13,1.37,1.37,0,0,0-.94,0,.93.93,0,0,0-.36.32,1.49,1.49,0,0,0-.22.51,3.47,3.47,0,0,0-.07.68,2.09,2.09,0,0,0,.31,1.22,1,1,0,0,0,.84.43,1.12,1.12,0,0,0,.46-.08.94.94,0,0,0,.28-.16l.22-.16a.41.41,0,0,1,.25-.07.34.34,0,0,1,.3.14l.48.59a2.91,2.91,0,0,1-.54.48,2.86,2.86,0,0,1-.58.29,3.35,3.35,0,0,1-.59.14,4,4,0,0,1-.58,0,2.47,2.47,0,0,1-1-.19,2.4,2.4,0,0,1-.81-.56,2.53,2.53,0,0,1-.55-.9,3.27,3.27,0,0,1-.21-1.21,3.31,3.31,0,0,1,.18-1.11,2.51,2.51,0,0,1,.53-.91,2.4,2.4,0,0,1,.86-.59,2.94,2.94,0,0,1,1.19-.22,2.9,2.9,0,0,1,1.14.21,2.6,2.6,0,0,1,.88.6Z"/><path class="cls-2" d="M208,163v4.47h.24a.49.49,0,0,0,.24,0,.6.6,0,0,0,.16-.16l1-1.55a.68.68,0,0,1,.22-.2.71.71,0,0,1,.31-.07h1.52l-1.43,2a1.77,1.77,0,0,1-.48.43,1.1,1.1,0,0,1,.22.21,1.31,1.31,0,0,1,.19.27l1.56,2.64h-1.49a.79.79,0,0,1-.32-.06.49.49,0,0,1-.22-.21l-1-2a.43.43,0,0,0-.15-.17.49.49,0,0,0-.24,0H208V171h-1.65v-8Z"/><path class="cls-2" d="M212.37,170.12a.86.86,0,0,1,.08-.36.83.83,0,0,1,.49-.48.87.87,0,0,1,.37-.07.94.94,0,0,1,.37.07,1.17,1.17,0,0,1,.3.19,1.15,1.15,0,0,1,.2.29,1,1,0,0,1,0,.72,1,1,0,0,1-.2.29,1.17,1.17,0,0,1-.3.19.94.94,0,0,1-.37.07.87.87,0,0,1-.37-.07.91.91,0,0,1-.3-.19.81.81,0,0,1-.19-.29A.86.86,0,0,1,212.37,170.12Zm1.73-6.92v3a7.77,7.77,0,0,1-.06,1c0,.33-.09.65-.15,1h-1.12c-.07-.34-.12-.66-.16-1a7.77,7.77,0,0,1-.06-1v-3Z"/><path class="cls-2" d="M216.55,162.69a2.93,2.93,0,0,1,.39.94,2.53,2.53,0,0,1,0,1,2.63,2.63,0,0,1-.36.91,3.27,3.27,0,0,1-.72.78l-.53-.31a.26.26,0,0,1-.09-.09.27.27,0,0,1,0-.12l0-.1.06-.09a1.06,1.06,0,0,0,.13-.18,1.26,1.26,0,0,0,.13-.26,1.5,1.5,0,0,0,.09-.32,2.34,2.34,0,0,0,0-.38,2.37,2.37,0,0,0-.08-.42,1.59,1.59,0,0,0-.21-.44.33.33,0,0,1-.06-.32.38.38,0,0,1,.22-.19Zm1.9,0a2.93,2.93,0,0,1,.39.94,2.54,2.54,0,0,1,0,1,2.63,2.63,0,0,1-.36.91,3.55,3.55,0,0,1-.73.78l-.52-.31a.22.22,0,0,1-.1-.09.5.5,0,0,1,0-.12.19.19,0,0,1,0-.1.24.24,0,0,1,.06-.09,1.06,1.06,0,0,0,.13-.18,2.17,2.17,0,0,0,.12-.26,2.42,2.42,0,0,0,.1-.32,1.59,1.59,0,0,0,0-.38,2.3,2.3,0,0,0-.07-.42,2.49,2.49,0,0,0-.21-.44.33.33,0,0,1-.06-.32.39.39,0,0,1,.21-.19Z"/><path class="cls-5" d="M190,179h2.47v1.14H190Z"/><path class="cls-5" d="M198.17,180a3.59,3.59,0,0,1-.14,1,2.1,2.1,0,0,1-.42.78,1.89,1.89,0,0,1-.7.51,2.59,2.59,0,0,1-1,.18,4.41,4.41,0,0,1-.52,0l-.52-.09.08-.9a.31.31,0,0,1,.09-.19.36.36,0,0,1,.24-.08l.19,0a1.1,1.1,0,0,0,.27,0,1.14,1.14,0,0,0,.39-.06.69.69,0,0,0,.28-.2,1,1,0,0,0,.16-.38,2.32,2.32,0,0,0,.06-.57v-4.28h1.54Z"/><path class="cls-5" d="M203.35,177.63v4.73h-.88a.34.34,0,0,1-.35-.23l-.08-.28a3,3,0,0,1-.28.24,2,2,0,0,1-.32.18,1.9,1.9,0,0,1-.36.12,1.86,1.86,0,0,1-.42.05,1.67,1.67,0,0,1-.69-.14,1.42,1.42,0,0,1-.5-.38,1.57,1.57,0,0,1-.31-.57,2.27,2.27,0,0,1-.11-.72v-3h1.42v3a.82.82,0,0,0,.16.55.6.6,0,0,0,.47.19,1,1,0,0,0,.44-.1,1.83,1.83,0,0,0,.39-.27v-3.37Z"/><path class="cls-5" d="M207.31,178.67c0,.05-.07.1-.12.12a.33.33,0,0,1-.15,0,.46.46,0,0,1-.2-.05l-.22-.09a2,2,0,0,0-.26-.09,1.16,1.16,0,0,0-.34,0,.69.69,0,0,0-.41.11.3.3,0,0,0-.14.28.29.29,0,0,0,.09.22.76.76,0,0,0,.25.15,2.34,2.34,0,0,0,.35.13l.4.13.4.17a1.8,1.8,0,0,1,.35.24,1.12,1.12,0,0,1,.35.84,1.67,1.67,0,0,1-.13.65,1.37,1.37,0,0,1-.38.51,1.73,1.73,0,0,1-.63.34,2.77,2.77,0,0,1-.85.12,2.72,2.72,0,0,1-.49-.05,3.45,3.45,0,0,1-.46-.12,2.32,2.32,0,0,1-.42-.19,1.74,1.74,0,0,1-.33-.23l.33-.52a.32.32,0,0,1,.14-.14.35.35,0,0,1,.21-.05.43.43,0,0,1,.23.05l.21.12.26.12a1.48,1.48,0,0,0,.39,0,1.14,1.14,0,0,0,.28,0,.45.45,0,0,0,.18-.1.26.26,0,0,0,.1-.13.4.4,0,0,0,0-.15.32.32,0,0,0-.09-.23,1.2,1.2,0,0,0-.25-.16l-.36-.12-.4-.13a2.87,2.87,0,0,1-.4-.18,1.24,1.24,0,0,1-.61-.64,1.56,1.56,0,0,1-.1-.56,1.39,1.39,0,0,1,.12-.57,1.48,1.48,0,0,1,.35-.48,1.84,1.84,0,0,1,.59-.32,2.49,2.49,0,0,1,.82-.12,2.63,2.63,0,0,1,.49,0,3,3,0,0,1,.45.13,1.94,1.94,0,0,1,.38.2,1.5,1.5,0,0,1,.31.24Z"/><path class="cls-5" d="M213.49,182.36h-1.42v-3.75h-2V181a.46.46,0,0,0,.08.27.27.27,0,0,0,.23.11l.13,0a.25.25,0,0,0,.09,0l.07,0,.08,0a.18.18,0,0,1,.11,0l.08.09.43.68a2,2,0,0,1-.62.3,2.4,2.4,0,0,1-.71.11,1.78,1.78,0,0,1-.59-.1,1.23,1.23,0,0,1-.44-.28,1.28,1.28,0,0,1-.26-.44,1.7,1.7,0,0,1-.09-.57v-2.44h-.41a.29.29,0,0,1-.18-.07.25.25,0,0,1-.08-.21v-.55l.75-.15.28-1.15a.28.28,0,0,1,.31-.22h.74v1.38h3.4Zm.19-6a.71.71,0,0,1-.07.32.81.81,0,0,1-.18.26.9.9,0,0,1-.28.18.93.93,0,0,1-.34.06.87.87,0,0,1-.32-.06,1,1,0,0,1-.27-.18.81.81,0,0,1-.18-.26.77.77,0,0,1,0-.64,1,1,0,0,1,.18-.27,1,1,0,0,1,.27-.17.71.71,0,0,1,.32-.07.77.77,0,0,1,.34.07.88.88,0,0,1,.28.17,1,1,0,0,1,.18.27A.71.71,0,0,1,213.68,176.33Z"/><path class="cls-5" d="M215.78,178.14l.28-.24a1.65,1.65,0,0,1,.32-.18,1.9,1.9,0,0,1,.36-.12,1.87,1.87,0,0,1,.42,0,1.67,1.67,0,0,1,.69.13,1.55,1.55,0,0,1,.5.38,1.57,1.57,0,0,1,.31.57,2.36,2.36,0,0,1,.11.72v3h-1.42v-3a.82.82,0,0,0-.16-.55.6.6,0,0,0-.47-.19,1,1,0,0,0-.44.1,1.53,1.53,0,0,0-.39.27v3.37h-1.42v-4.73h.88a.34.34,0,0,1,.35.24Z"/><polygon class="cls-4" points="186.17 146.32 186.17 155.92 182.41 157.9 183.13 153.71 180.09 150.74 184.29 150.13 186.17 146.32"/><path class="cls-2" d="M169.64,136.44a16.1,16.1,0,0,1-8.62-2.5,1.52,1.52,0,1,1,1.63-2.57c4.19,2.67,9.87,2.69,13.5,0a1.52,1.52,0,0,1,1.79,2.46A14,14,0,0,1,169.64,136.44Z"/><path class="cls-2" d="M166.9,138a15.14,15.14,0,0,0,5.07,0,.69.69,0,0,1,.8.56.68.68,0,0,1-.2.61l-.34.32a3.35,3.35,0,0,1-1.34.78,4.77,4.77,0,0,1-1.45.22,4.49,4.49,0,0,1-1.45-.23,3.36,3.36,0,0,1-1.34-.76l-.34-.33a.69.69,0,0,1,0-1A.68.68,0,0,1,166.9,138Z"/><rect class="cls-6" x="10.47" y="53.53" width="130.82" height="83.67" rx="5.32"/><path class="cls-2" d="M136,55.81a3,3,0,0,1,3,3v73a3,3,0,0,1-3,3H15.8a3,3,0,0,1-3-3v-73a3,3,0,0,1,3-3H136m0-4.56H15.8a7.61,7.61,0,0,0-7.61,7.6v73a7.62,7.62,0,0,0,7.61,7.61H136a7.62,7.62,0,0,0,7.61-7.61v-73a7.61,7.61,0,0,0-7.61-7.6Z"/><path class="cls-2" d="M86.15,69a1.19,1.19,0,0,1-.37-.06,8.29,8.29,0,0,0-4.58,0,1.16,1.16,0,0,1-1.45-.71,1.14,1.14,0,0,1,.71-1.45,10.63,10.63,0,0,1,6.07,0A1.14,1.14,0,0,1,86.15,69Z"/><circle class="cls-2" cx="83.49" cy="62.79" r="4.56"/><circle class="cls-6" cx="84.63" cy="62.79" r="1.14"/><path class="cls-2" d="M70.94,69a1.19,1.19,0,0,1-.37-.06A8.29,8.29,0,0,0,66,69a1.15,1.15,0,0,1-1.45-.71,1.13,1.13,0,0,1,.71-1.45,10.6,10.6,0,0,1,6.06,0A1.13,1.13,0,0,1,72,68.26,1.15,1.15,0,0,1,70.94,69Z"/><circle class="cls-2" cx="68.28" cy="62.79" r="4.56"/><circle class="cls-6" cx="69.42" cy="62.79" r="1.14"/><path class="cls-2" d="M81.46,45.46a6.2,6.2,0,0,1,2.3-.46,7.39,7.39,0,0,1,2.32.32,6.24,6.24,0,0,1,2.17,1.12,4.75,4.75,0,0,1,1.53,2,1.31,1.31,0,0,1-.69,1.71,1.25,1.25,0,0,1-1,0l-.29-.1c-.57-.2-1-.42-1.47-.59S85.46,49.1,85,49l-1.55-.47a15,15,0,0,1-1.65-.5l-.31-.13a1.29,1.29,0,0,1-.7-1.68A1.33,1.33,0,0,1,81.46,45.46Z"/><path class="cls-2" d="M70,48a15,15,0,0,1-1.65.5L66.81,49c-.5.15-.94.34-1.42.5s-.9.39-1.47.59l-.29.1A1.3,1.3,0,0,1,62,49.35a1.35,1.35,0,0,1,0-1,4.75,4.75,0,0,1,1.53-2,6.24,6.24,0,0,1,2.17-1.12A7.43,7.43,0,0,1,68,45a6.2,6.2,0,0,1,2.3.46A1.3,1.3,0,0,1,71,47.15a1.24,1.24,0,0,1-.7.7Z"/><path class="cls-2" d="M75.89,84.35A10.66,10.66,0,0,1,65.24,73.7a1.52,1.52,0,0,1,1.52-1.52H85a1.52,1.52,0,0,1,1.52,1.52A10.66,10.66,0,0,1,75.89,84.35Z"/><path class="cls-2" d="M85,73.7h0m0,0a9.13,9.13,0,1,1-18.25,0H85m0-3H66.76a3,3,0,0,0-3,3,12.17,12.17,0,0,0,24.33.13.57.57,0,0,0,0-.13,3,3,0,0,0-3-3Zm0,6.08h0Z"/><ellipse class="cls-7" cx="75.89" cy="79.79" rx="6.79" ry="3.04"/><polygon class="cls-4" points="26.45 90.8 28.33 94.61 32.53 95.22 29.49 98.18 30.21 102.37 26.45 100.39 22.69 102.37 23.4 98.18 20.36 95.22 24.57 94.61 26.45 90.8"/><polygon class="cls-4" points="41.66 90.8 43.54 94.61 47.74 95.22 44.7 98.18 45.42 102.37 41.66 100.39 37.9 102.37 38.62 98.18 35.57 95.22 39.78 94.61 41.66 90.8"/><polygon class="cls-4" points="56.87 90.8 58.75 94.61 62.95 95.22 59.91 98.18 60.63 102.37 56.87 100.39 53.11 102.37 53.83 98.18 50.78 95.22 54.99 94.61 56.87 90.8"/><polygon class="cls-4" points="72.08 90.8 73.96 94.61 78.17 95.22 75.13 98.18 75.84 102.37 72.08 100.39 68.32 102.37 69.04 98.18 66 95.22 70.2 94.61 72.08 90.8"/><polygon class="cls-4" points="87.29 90.8 89.17 94.61 93.38 95.22 90.34 98.18 91.06 102.37 87.29 100.39 83.53 102.37 84.25 98.18 81.21 95.22 85.41 94.61 87.29 90.8"/><path class="cls-2" d="M21.14,110.57a2.93,2.93,0,0,1-.39-.94,2.39,2.39,0,0,1,0-1,2.44,2.44,0,0,1,.35-.9,2.82,2.82,0,0,1,.73-.78l.52.3a.31.31,0,0,1,.1.1.43.43,0,0,1,0,.11.23.23,0,0,1,0,.11.16.16,0,0,1-.06.08,1.76,1.76,0,0,0-.19.3,1.53,1.53,0,0,0-.15.47,1.62,1.62,0,0,0,.25,1.23.33.33,0,0,1,.06.32.31.31,0,0,1-.21.19Zm1.9,0a2.7,2.7,0,0,1-.38-.94,2.39,2.39,0,0,1,0-1,2.66,2.66,0,0,1,.36-.9,2.82,2.82,0,0,1,.73-.78l.52.3a.27.27,0,0,1,.09.1.22.22,0,0,1,0,.22.24.24,0,0,1-.06.08,1.3,1.3,0,0,0-.19.3,1.85,1.85,0,0,0-.16.47,1.88,1.88,0,0,0,0,.58,1.67,1.67,0,0,0,.26.65.33.33,0,0,1,.06.32.35.35,0,0,1-.22.19Z"/><path class="cls-2" d="M31.71,115.43h-1.4a.66.66,0,0,1-.38-.11.67.67,0,0,1-.21-.28l-.46-1.35h-3L25.85,115a.66.66,0,0,1-.21.27.6.6,0,0,1-.38.12h-1.4l3-7.76H28.7Zm-2.86-3-.72-2.12c-.05-.13-.11-.29-.17-.48s-.12-.38-.18-.59c-.06.22-.11.42-.17.6s-.12.35-.17.48l-.72,2.11Z"/><path class="cls-2" d="M32.13,115.43v-5.52h1a.37.37,0,0,1,.4.28l.09.29.29-.26a2.2,2.2,0,0,1,.32-.21,2.13,2.13,0,0,1,.38-.14,2,2,0,0,1,.44-.05,1.28,1.28,0,0,1,.82.26,1.55,1.55,0,0,1,.5.69,1.62,1.62,0,0,1,.34-.43,1.76,1.76,0,0,1,.43-.3,2.16,2.16,0,0,1,.49-.16,2.22,2.22,0,0,1,.51-.06A2.26,2.26,0,0,1,39,110a1.53,1.53,0,0,1,.61.41A1.64,1.64,0,0,1,40,111a3,3,0,0,1,.12.88v3.51H38.47v-3.51c0-.57-.24-.86-.73-.86a.77.77,0,0,0-.56.23.83.83,0,0,0-.22.63v3.51H35.31v-3.51a.9.9,0,0,0-.19-.66.7.7,0,0,0-.54-.2,1,1,0,0,0-.43.11,1.17,1.17,0,0,0-.37.27v4Z"/><path class="cls-2" d="M41.07,110.68a3.15,3.15,0,0,1,1.11-.66,3.7,3.7,0,0,1,1.3-.22,2.38,2.38,0,0,1,.91.17,1.84,1.84,0,0,1,.68.45,2,2,0,0,1,.43.69,2.41,2.41,0,0,1,.15.87v3.45h-.76a.76.76,0,0,1-.35-.06.49.49,0,0,1-.2-.27l-.12-.3c-.14.11-.27.22-.4.31a3.11,3.11,0,0,1-.4.22,2,2,0,0,1-.43.14,2.78,2.78,0,0,1-.52,0,2.5,2.5,0,0,1-.69-.1,1.63,1.63,0,0,1-.52-.29,1.37,1.37,0,0,1-.33-.48,1.69,1.69,0,0,1-.12-.66,1.33,1.33,0,0,1,.15-.6,1.44,1.44,0,0,1,.52-.56,3.06,3.06,0,0,1,1-.42,6.54,6.54,0,0,1,1.57-.2V112a1,1,0,0,0-.2-.7.76.76,0,0,0-.57-.22,1.62,1.62,0,0,0-.48.07,2.52,2.52,0,0,0-.33.14l-.29.15a.81.81,0,0,1-.33.06.43.43,0,0,1-.28-.09.64.64,0,0,1-.2-.2Zm3,2.5a7.05,7.05,0,0,0-.82.09,1.63,1.63,0,0,0-.5.16.58.58,0,0,0-.26.22.48.48,0,0,0-.07.26.48.48,0,0,0,.15.4.73.73,0,0,0,.45.11,1.22,1.22,0,0,0,.56-.11A1.65,1.65,0,0,0,44,114Z"/><path class="cls-2" d="M50.8,110.57a1,1,0,0,1,0,.33.68.68,0,0,1-.16.26l-2.3,3h2.46v1.22H46.39v-.67a.73.73,0,0,1,0-.26.88.88,0,0,1,.16-.28l2.33-3.09h-2.4v-1.22H50.8Z"/><path class="cls-2" d="M53.52,108.4a1,1,0,0,1-.08.37,1.05,1.05,0,0,1-.22.3,1,1,0,0,1-.32.21,1,1,0,0,1-.39.08,1,1,0,0,1-.38-.08,1,1,0,0,1-.31-.21,1,1,0,0,1-.21-.3.8.8,0,0,1-.08-.37.81.81,0,0,1,.08-.38.95.95,0,0,1,.9-.59,1,1,0,0,1,.39.07,1,1,0,0,1,.32.21,1,1,0,0,1,.22.31A1,1,0,0,1,53.52,108.4Zm-.17,1.51v5.52H51.7v-5.52Z"/><path class="cls-2" d="M56,110.51a2.22,2.22,0,0,1,.33-.28,1.65,1.65,0,0,1,.36-.22,2.59,2.59,0,0,1,.42-.14,2.54,2.54,0,0,1,.49-.05,2.05,2.05,0,0,1,.81.16,1.69,1.69,0,0,1,.58.44,1.85,1.85,0,0,1,.37.66,2.84,2.84,0,0,1,.12.84v3.51H57.86v-3.51a.93.93,0,0,0-.19-.63.66.66,0,0,0-.55-.23,1.06,1.06,0,0,0-.5.12,2,2,0,0,0-.46.31v3.94H54.5v-5.52h1a.38.38,0,0,1,.4.28Z"/><path class="cls-2" d="M65.58,110.08v.6a.31.31,0,0,1-.07.22.57.57,0,0,1-.27.12l-.4.09a1,1,0,0,1,0,.24,1.1,1.1,0,0,1,0,.26,1.52,1.52,0,0,1-.17.74,1.59,1.59,0,0,1-.47.56,2.07,2.07,0,0,1-.71.36,2.84,2.84,0,0,1-.88.13h-.25l-.24,0a.31.31,0,0,0-.18.25.21.21,0,0,0,.15.2,1.21,1.21,0,0,0,.39.08l.56,0c.2,0,.42,0,.63,0s.43.06.64.1a1.6,1.6,0,0,1,.55.23,1.12,1.12,0,0,1,.4.41,1.29,1.29,0,0,1,.15.66,1.64,1.64,0,0,1-.18.73,2,2,0,0,1-.54.63,2.78,2.78,0,0,1-.86.44,3.52,3.52,0,0,1-1.17.17,4.57,4.57,0,0,1-1.12-.12,2.82,2.82,0,0,1-.78-.32,1.44,1.44,0,0,1-.46-.46,1.11,1.11,0,0,1-.15-.55.9.9,0,0,1,.21-.61,1.49,1.49,0,0,1,.6-.39.89.89,0,0,1-.44-.81.82.82,0,0,1,0-.26,1.16,1.16,0,0,1,.14-.27,1.29,1.29,0,0,1,.23-.24,1.33,1.33,0,0,1,.33-.21,1.83,1.83,0,0,1-.68-.61,1.51,1.51,0,0,1-.25-.87,1.66,1.66,0,0,1,.17-.75,1.77,1.77,0,0,1,.49-.57,2.2,2.2,0,0,1,.72-.35,3.15,3.15,0,0,1,.9-.13,2.73,2.73,0,0,1,1.24.27ZM64,115.63a.29.29,0,0,0-.18-.28,1.59,1.59,0,0,0-.46-.13,5.9,5.9,0,0,0-.63,0l-.69,0a1.19,1.19,0,0,0-.26.23.54.54,0,0,0-.1.3.37.37,0,0,0,.06.21.4.4,0,0,0,.17.17,1.62,1.62,0,0,0,.35.11,3.74,3.74,0,0,0,.54,0,3.09,3.09,0,0,0,.59,0,1,1,0,0,0,.36-.11.42.42,0,0,0,.19-.18A.46.46,0,0,0,64,115.63Zm-1.28-3.25a.74.74,0,0,0,.59-.21.75.75,0,0,0,.19-.52.74.74,0,0,0-.19-.53.78.78,0,0,0-.59-.19.8.8,0,0,0-.6.19.74.74,0,0,0-.18.53.93.93,0,0,0,.05.29.55.55,0,0,0,.14.23.49.49,0,0,0,.24.15A.91.91,0,0,0,62.68,112.38Z"/><path class="cls-2" d="M70.09,113a1.63,1.63,0,0,0,.42,1,1.25,1.25,0,0,0,.88.31,1.51,1.51,0,0,0,.5-.07l.37-.15.3-.16a.68.68,0,0,1,.28-.07.34.34,0,0,1,.3.15l.48.59a2.64,2.64,0,0,1-.55.47,2.61,2.61,0,0,1-.61.29,3.5,3.5,0,0,1-.62.15c-.21,0-.41,0-.6,0a3.18,3.18,0,0,1-1.08-.19,2.62,2.62,0,0,1-1.5-1.49,3.63,3.63,0,0,1-.22-1.29,3.05,3.05,0,0,1,.19-1,2.63,2.63,0,0,1,.55-.87A2.59,2.59,0,0,1,70,110a3,3,0,0,1,1.14-.22,2.87,2.87,0,0,1,1,.17,2.22,2.22,0,0,1,.79.5,2.5,2.5,0,0,1,.51.8,3,3,0,0,1,.18,1.06,1.37,1.37,0,0,1,0,.31.65.65,0,0,1,0,.18.23.23,0,0,1-.12.1.48.48,0,0,1-.18,0Zm2.08-1a1.74,1.74,0,0,0,0-.39.87.87,0,0,0-.17-.33.73.73,0,0,0-.3-.24,1,1,0,0,0-.45-.09,1,1,0,0,0-.73.27,1.35,1.35,0,0,0-.35.78Z"/><path class="cls-2" d="M79.67,115.43H78.08a.47.47,0,0,1-.28-.08.6.6,0,0,1-.18-.21l-1-1.69a.87.87,0,0,1-.07.17,1.09,1.09,0,0,1-.08.15l-.81,1.37a1.06,1.06,0,0,1-.17.2.39.39,0,0,1-.26.09H73.78l1.85-2.85-1.78-2.67h1.59a.59.59,0,0,1,.26,0,.38.38,0,0,1,.14.16l1,1.63a1.54,1.54,0,0,1,.08-.19l.11-.19.7-1.23a.86.86,0,0,1,.15-.17.46.46,0,0,1,.21,0h1.51l-1.78,2.59Z"/><path class="cls-2" d="M81.73,110.59a2.88,2.88,0,0,1,.73-.57,2.19,2.19,0,0,1,1-.22,1.85,1.85,0,0,1,.8.19,2,2,0,0,1,.63.56,2.77,2.77,0,0,1,.42.88,4.35,4.35,0,0,1,.15,1.19,3.8,3.8,0,0,1-.17,1.15,2.88,2.88,0,0,1-.49.92,2.28,2.28,0,0,1-.74.61,2.2,2.2,0,0,1-1,.22,1.75,1.75,0,0,1-.72-.13,2,2,0,0,1-.53-.33v2.12H80.18v-7.27h1a.37.37,0,0,1,.4.28Zm.1,3.34a1.2,1.2,0,0,0,.4.29,1.44,1.44,0,0,0,.46.08,1,1,0,0,0,.42-.09.83.83,0,0,0,.33-.29,1.48,1.48,0,0,0,.23-.52,3.46,3.46,0,0,0,.07-.78,3.77,3.77,0,0,0-.06-.73,1.34,1.34,0,0,0-.18-.48.77.77,0,0,0-.27-.27.86.86,0,0,0-.36-.08,1.14,1.14,0,0,0-.59.14,1.62,1.62,0,0,0-.45.39Z"/><path class="cls-2" d="M87.66,113a1.52,1.52,0,0,0,.42,1,1.25,1.25,0,0,0,.88.31,1.45,1.45,0,0,0,.49-.07l.37-.15.3-.16a.73.73,0,0,1,.29-.07.32.32,0,0,1,.29.15l.48.59a2.41,2.41,0,0,1-.55.47,2.55,2.55,0,0,1-.6.29,3.6,3.6,0,0,1-.63.15c-.21,0-.4,0-.59,0a3.24,3.24,0,0,1-1.09-.19,2.52,2.52,0,0,1-.89-.57,2.62,2.62,0,0,1-.6-.92,3.42,3.42,0,0,1-.22-1.29,2.84,2.84,0,0,1,.19-1,2.45,2.45,0,0,1,.54-.87,2.63,2.63,0,0,1,.86-.59,2.88,2.88,0,0,1,1.13-.22,3,3,0,0,1,1,.17,2.27,2.27,0,0,1,.78.5,2.2,2.2,0,0,1,.51.8,3,3,0,0,1,.18,1.06,2.73,2.73,0,0,1,0,.31.42.42,0,0,1-.06.18.26.26,0,0,1-.11.1.5.5,0,0,1-.19,0Zm2.07-1a1.31,1.31,0,0,0,0-.39,1,1,0,0,0-.16-.33.89.89,0,0,0-.3-.24,1.06,1.06,0,0,0-.45-.09,1,1,0,0,0-.74.27,1.42,1.42,0,0,0-.35.78Z"/><path class="cls-2" d="M93.58,110.76a2.31,2.31,0,0,1,.59-.7,1.23,1.23,0,0,1,.77-.26,1,1,0,0,1,.6.18l-.1,1.21a.27.27,0,0,1-.09.16.29.29,0,0,1-.17,0h-.25l-.16,0h-.14a.85.85,0,0,0-.57.19,1.47,1.47,0,0,0-.37.54v3.35H92v-5.52h1l.2,0a.37.37,0,0,1,.14.07.27.27,0,0,1,.09.12s0,.11,0,.18Z"/><path class="cls-2" d="M98,108.4a1,1,0,0,1-.08.37,1.05,1.05,0,0,1-.22.3,1,1,0,0,1-.32.21,1,1,0,0,1-.39.08,1,1,0,0,1-.38-.08,1,1,0,0,1-.31-.21,1,1,0,0,1-.21-.3.8.8,0,0,1-.08-.37.81.81,0,0,1,.08-.38.95.95,0,0,1,.9-.59,1,1,0,0,1,.39.07,1,1,0,0,1,.32.21,1,1,0,0,1,.22.31A1,1,0,0,1,98,108.4Zm-.17,1.51v5.52H96.14v-5.52Z"/><path class="cls-2" d="M100.3,113a1.63,1.63,0,0,0,.42,1,1.25,1.25,0,0,0,.88.31,1.51,1.51,0,0,0,.5-.07l.37-.15.3-.16a.68.68,0,0,1,.28-.07.34.34,0,0,1,.3.15l.48.59a2.64,2.64,0,0,1-.55.47,2.61,2.61,0,0,1-.61.29,3.72,3.72,0,0,1-.62.15c-.21,0-.41,0-.6,0a3.29,3.29,0,0,1-1.09-.19,2.57,2.57,0,0,1-1.49-1.49,3.63,3.63,0,0,1-.22-1.29,2.84,2.84,0,0,1,.19-1,2.77,2.77,0,0,1,.54-.87,2.74,2.74,0,0,1,.86-.59,3,3,0,0,1,1.14-.22,2.91,2.91,0,0,1,1,.17,2.18,2.18,0,0,1,1.29,1.3,2.74,2.74,0,0,1,.19,1.06,2.41,2.41,0,0,1,0,.31.42.42,0,0,1-.06.18.18.18,0,0,1-.11.1.48.48,0,0,1-.18,0Zm2.08-1a1.74,1.74,0,0,0,0-.39,1,1,0,0,0-.17-.33.73.73,0,0,0-.3-.24,1.16,1.16,0,0,0-1.19.18,1.49,1.49,0,0,0-.35.78Z"/><path class="cls-2" d="M106.21,110.51a2.22,2.22,0,0,1,.33-.28,1.65,1.65,0,0,1,.36-.22,2.59,2.59,0,0,1,.42-.14,2.54,2.54,0,0,1,.49-.05,2.05,2.05,0,0,1,.81.16,1.69,1.69,0,0,1,.58.44,2,2,0,0,1,.37.66,2.84,2.84,0,0,1,.12.84v3.51H108v-3.51a.93.93,0,0,0-.19-.63.67.67,0,0,0-.55-.23,1.06,1.06,0,0,0-.5.12,2.24,2.24,0,0,0-.47.31v3.94h-1.65v-5.52h1a.38.38,0,0,1,.4.28Z"/><path class="cls-2" d="M114.81,111.22a.92.92,0,0,1-.14.14.3.3,0,0,1-.2.06.43.43,0,0,1-.22-.06l-.22-.13a1.57,1.57,0,0,0-.29-.13,1.22,1.22,0,0,0-.41-.06,1.17,1.17,0,0,0-.52.11,1,1,0,0,0-.37.32,1.48,1.48,0,0,0-.21.51,2.79,2.79,0,0,0-.07.68,2,2,0,0,0,.31,1.22,1,1,0,0,0,.84.42,1.12,1.12,0,0,0,.45-.07,1.3,1.3,0,0,0,.29-.16l.22-.16a.36.36,0,0,1,.24-.08.34.34,0,0,1,.3.15l.48.59a2.6,2.6,0,0,1-.54.47,2.42,2.42,0,0,1-.58.29,3,3,0,0,1-.59.15c-.2,0-.39,0-.58,0a2.48,2.48,0,0,1-1-.2,2.29,2.29,0,0,1-.8-.55,2.64,2.64,0,0,1-.56-.9,3.49,3.49,0,0,1-.2-1.21,3.42,3.42,0,0,1,.18-1.12A2.4,2.4,0,0,1,112,110a3.16,3.16,0,0,1,1.19-.22,2.83,2.83,0,0,1,1.14.21,2.67,2.67,0,0,1,.89.61Z"/><path class="cls-2" d="M117.2,113a1.52,1.52,0,0,0,.42,1,1.22,1.22,0,0,0,.87.31,1.47,1.47,0,0,0,.5-.07l.37-.15.3-.16a.68.68,0,0,1,.28-.07.34.34,0,0,1,.3.15l.48.59a2.41,2.41,0,0,1-.55.47,2.61,2.61,0,0,1-.61.29,3.5,3.5,0,0,1-.62.15c-.21,0-.41,0-.59,0a3.24,3.24,0,0,1-1.09-.19,2.52,2.52,0,0,1-.89-.57,2.37,2.37,0,0,1-.6-.92,3.42,3.42,0,0,1-.22-1.29,3,3,0,0,1,.18-1,2.63,2.63,0,0,1,.55-.87,2.59,2.59,0,0,1,.85-.59,3.07,3.07,0,0,1,2.15-.05,2.27,2.27,0,0,1,.78.5,2.2,2.2,0,0,1,.51.8,3,3,0,0,1,.18,1.06,2.73,2.73,0,0,1,0,.31.42.42,0,0,1-.06.18.23.23,0,0,1-.12.1.45.45,0,0,1-.18,0Zm2.07-1a1.31,1.31,0,0,0,0-.39,1,1,0,0,0-.16-.33.89.89,0,0,0-.3-.24,1.08,1.08,0,0,0-.46-.09,1,1,0,0,0-.73.27,1.35,1.35,0,0,0-.35.78Z"/><path class="cls-2" d="M121.35,114.59a.85.85,0,0,1,.08-.35.81.81,0,0,1,.19-.29.85.85,0,0,1,.3-.19.91.91,0,0,1,.37-.08,1,1,0,0,1,.67.27,1,1,0,0,1,.2.29.94.94,0,0,1,0,.71.88.88,0,0,1-.2.29,1,1,0,0,1-.3.2,1.15,1.15,0,0,1-.37.06,1.1,1.1,0,0,1-.37-.06.88.88,0,0,1-.3-.2.73.73,0,0,1-.19-.29A.86.86,0,0,1,121.35,114.59Z"/><path class="cls-2" d="M123.9,114.59a.88.88,0,0,1,.27-.64.81.81,0,0,1,.29-.19,1,1,0,0,1,.38-.08.86.86,0,0,1,.36.08.77.77,0,0,1,.3.19.88.88,0,0,1,.27.64.86.86,0,0,1-.07.36.75.75,0,0,1-.2.29.79.79,0,0,1-.3.2,1,1,0,0,1-.36.06,1.16,1.16,0,0,1-.38-.06.84.84,0,0,1-.29-.2.75.75,0,0,1-.2-.29A.86.86,0,0,1,123.9,114.59Z"/><path class="cls-2" d="M126.44,114.59a.85.85,0,0,1,.08-.35.81.81,0,0,1,.19-.29.85.85,0,0,1,.3-.19.9.9,0,0,1,.74,0,1,1,0,0,1,.3.19,1,1,0,0,1,.2.29.94.94,0,0,1,0,.71.88.88,0,0,1-.2.29,1,1,0,0,1-.3.2,1.17,1.17,0,0,1-.74,0,.88.88,0,0,1-.3-.2.73.73,0,0,1-.19-.29A.86.86,0,0,1,126.44,114.59Z"/><path class="cls-2" d="M129.12,107.16a3,3,0,0,1,.39.94,2.59,2.59,0,0,1,0,1,2.66,2.66,0,0,1-.36.9,3,3,0,0,1-.73.79l-.52-.31a.28.28,0,0,1-.09-.1.2.2,0,0,1,0-.11l0-.11.06-.08a1.72,1.72,0,0,0,.13-.18,1.26,1.26,0,0,0,.13-.26,1.59,1.59,0,0,0,.09-.33,2.25,2.25,0,0,0,0-.38,2.12,2.12,0,0,0-.08-.41A1.59,1.59,0,0,0,128,108a.33.33,0,0,1-.06-.32.35.35,0,0,1,.22-.19Zm1.9,0a3,3,0,0,1,.39.94,2.59,2.59,0,0,1,0,1,2.66,2.66,0,0,1-.36.9,3.38,3.38,0,0,1-.73.79l-.52-.31a.24.24,0,0,1-.1-.1.36.36,0,0,1,0-.11.23.23,0,0,1,0-.11.16.16,0,0,1,.06-.08,1.72,1.72,0,0,0,.13-.18,2.17,2.17,0,0,0,.12-.26,2.58,2.58,0,0,0,.1-.33,1.56,1.56,0,0,0,0-.38,2.07,2.07,0,0,0-.07-.41,2.49,2.49,0,0,0-.21-.44.33.33,0,0,1-.06-.32.36.36,0,0,1,.21-.19Z"/><path class="cls-8" d="M105.22,123.49h2.46v1.14h-2.46Z"/><path class="cls-8" d="M116.56,126.84h-1.19a.54.54,0,0,1-.33-.09.69.69,0,0,1-.18-.24l-.4-1.16h-2.53l-.39,1.16a.54.54,0,0,1-.18.23.47.47,0,0,1-.32.1h-1.2l2.57-6.65H114Zm-2.45-2.54-.61-1.82c0-.12-.1-.26-.15-.41s-.1-.33-.16-.51c0,.18-.09.36-.14.52s-.1.29-.15.41l-.61,1.81Z"/><path class="cls-8" d="M118.23,122.62a2.09,2.09,0,0,1,.28-.24,1.92,1.92,0,0,1,.31-.18,2.17,2.17,0,0,1,.36-.12,1.88,1.88,0,0,1,.43,0,1.62,1.62,0,0,1,.68.14,1.46,1.46,0,0,1,.51.37,1.74,1.74,0,0,1,.31.57,2.37,2.37,0,0,1,.1.72v3H119.8v-3a.87.87,0,0,0-.16-.54.58.58,0,0,0-.47-.19,1,1,0,0,0-.44.1,1.76,1.76,0,0,0-.39.26v3.38h-1.42v-4.73h.88a.34.34,0,0,1,.35.23Z"/><path class="cls-8" d="M123.43,122.62a3,3,0,0,1,.28-.24,2,2,0,0,1,.32-.18,1.9,1.9,0,0,1,.36-.12,1.86,1.86,0,0,1,.42,0,1.67,1.67,0,0,1,.69.14,1.42,1.42,0,0,1,.5.37,1.57,1.57,0,0,1,.31.57,2.37,2.37,0,0,1,.1.72v3H125v-3a.81.81,0,0,0-.16-.54.57.57,0,0,0-.47-.19.91.91,0,0,0-.43.1,1.61,1.61,0,0,0-.4.26v3.38h-1.41v-4.73H123a.34.34,0,0,1,.35.23Z"/><path class="cls-8" d="M128.49,124.73a1.4,1.4,0,0,0,.36.86,1.13,1.13,0,0,0,.76.26,1.33,1.33,0,0,0,.42-.06,1.53,1.53,0,0,0,.32-.13l.25-.13a.54.54,0,0,1,.25-.06.29.29,0,0,1,.25.12l.41.51a2,2,0,0,1-.47.41,2.21,2.21,0,0,1-.52.24,2.73,2.73,0,0,1-.53.13l-.51,0a2.65,2.65,0,0,1-.94-.16,2.23,2.23,0,0,1-.76-.48,2.12,2.12,0,0,1-.51-.8,2.85,2.85,0,0,1-.19-1.1,2.44,2.44,0,0,1,.16-.9,2.25,2.25,0,0,1,.46-.74,2.44,2.44,0,0,1,.74-.51,2.5,2.5,0,0,1,1-.19,2.35,2.35,0,0,1,.86.15,1.83,1.83,0,0,1,1.11,1.11,2.38,2.38,0,0,1,.16.91,1.93,1.93,0,0,1,0,.26.5.5,0,0,1-.05.16.19.19,0,0,1-.1.08.38.38,0,0,1-.16,0Zm1.78-.83a1.12,1.12,0,0,0,0-.32,1,1,0,0,0-.14-.29.75.75,0,0,0-.26-.2.93.93,0,0,0-.39-.08.85.85,0,0,0-.63.23,1.23,1.23,0,0,0-.3.66Z"/></svg>