<?xml version="1.0" encoding="utf-8"?>
<!-- Generator: Adobe Illustrator 25.0.0, SVG Export Plug-In . SVG Version: 6.00 Build 0)  -->
<svg version="1.1" id="Layer_1" xmlns="http://www.w3.org/2000/svg" xmlns:xlink="http://www.w3.org/1999/xlink" x="0px" y="0px"
	 viewBox="0 0 153.7 180" style="enable-background:new 0 0 153.7 180;" xml:space="preserve">
<style type="text/css">
	.st0{fill:#656D78;}
	.st1{fill:#F4F6F8;}
	.st2{fill:#E4E8EB;}
	.st3{fill:#F16C7A;}
	.st4{fill:#3A312A;}
	.st5{fill:#D7E057;}
	.st6{fill:#8AC6DD;}
	.st7{fill:#FDF6EC;stroke:#35414D;stroke-width:2.0936;stroke-miterlimit:10;}
	.st8{fill:#35414D;}
	.st9{fill:#B3A4EE;}
	.st10{fill:#AC92EA;}
	.st11{fill:#FBD277;}
	.st12{fill:#B4DF80;}
	.st13{fill:#9ED26A;}
	.st14{fill:#FDCD56;}
	.st15{fill:#434A54;}
	.st16{fill:#FFA733;}
	.st17{fill:#FF5A5A;}
	.st18{fill:#D6DF58;}
	.st19{fill-rule:evenodd;clip-rule:evenodd;fill:#FFB54C;}
	.st20{fill-rule:evenodd;clip-rule:evenodd;fill:#35414D;}
	.st21{fill-rule:evenodd;clip-rule:evenodd;fill:#FFA733;}
	.st22{fill-rule:evenodd;clip-rule:evenodd;fill:#2FB1D4;}
	.st23{fill-rule:evenodd;clip-rule:evenodd;fill:#FF5A5A;}
	.st24{fill:#07BEEF;}
	.st25{fill:#FC635B;}
	.st26{fill:#7EC927;}
	.st27{fill:#00B6E0;}
	.st28{fill:#F34234;}
	.st29{fill:#60A917;}
	.st30{fill:#FF9801;}
	.st31{fill:#EF6D7A;}
	.st32{fill:#8AC5DC;}
	.st33{fill:#87796F;}
	.st34{fill:#FF6666;}
</style>
<g>
	<polygon class="st0" points="149.3,20 148.7,20 148.7,35.1 5,35.1 5,18.3 3.1,16 4.1,6.6 8.7,3.5 18,5 133.7,5 133.7,3.5 148.7,5 	
		"/>
	<path class="st1" d="M148.7,35.1v124.3c0,8.6-5.8,15.6-12.9,15.6H18c-9.2,3.1-17.7,0-13-15.6l0,0V35.1L148.7,35.1z"/>
	<path class="st2" d="M148.7,35.1v124.3c0.6,8.3,4.9,18.5-12.9,15.6H18C2.3,176.9,2.3,169.1,4,162.9c1,0.3,3.2,0.3,4.2,0.3H23
		c60.3,0,110.5-55.7,115.6-128.2L148.7,35.1z"/>
	<g>
		<g>
			<circle class="st3" cx="23.3" cy="20" r="5.2"/>
			<path class="st4" d="M23.3,26.4c-3.5,0-6.3-2.8-6.3-6.3s2.8-6.3,6.3-6.3s6.3,2.8,6.3,6.3S26.8,26.4,23.3,26.4z M23.3,16
				c-2.2,0-4,1.8-4,4s1.8,4,4,4s4-1.8,4-4C27.3,17.8,25.5,16,23.3,16z"/>
		</g>
		<g>
			<circle class="st5" cx="39.4" cy="20" r="5.2"/>
			<path class="st4" d="M39.4,26.4c-3.5,0-6.3-2.8-6.3-6.3s2.8-6.3,6.3-6.3c3.5,0,6.3,2.8,6.3,6.3S42.9,26.4,39.4,26.4z M39.4,16
				c-2.2,0-4,1.8-4,4s1.8,4,4,4s4-1.8,4-4C43.4,17.8,41.6,16,39.4,16z"/>
		</g>
		<g>
			<circle class="st6" cx="55.5" cy="20" r="5.2"/>
			<path class="st4" d="M55.5,26.4c-3.5,0-6.3-2.8-6.3-6.3s2.8-6.3,6.3-6.3c3.5,0,6.3,2.8,6.3,6.3S59,26.4,55.5,26.4z M55.5,16
				c-2.2,0-4,1.8-4,4s1.8,4,4,4s4-1.8,4-4C59.5,17.8,57.7,16,55.5,16z"/>
		</g>
		<path class="st7" d="M132.4,24.4H83.1c-2.4,0-4.3-2-4.3-4.3v0c0-2.4,2-4.3,4.3-4.3h49.3c2.4,0,4.3,2,4.3,4.3v0
			C136.8,22.4,134.8,24.4,132.4,24.4z"/>
	</g>
	<path class="st8" d="M138.3,5c5.7,0,10.4,4.6,10.4,10.4v149.3c0,5.7-4.6,10.4-10.4,10.4h-123C9.6,175,5,170.4,5,164.6V15.4
		C5,9.6,9.6,5,15.4,5H138.3 M138.3,0h-123C6.9,0,0,6.9,0,15.4v149.3c0,8.5,6.9,15.4,15.4,15.4h123c8.5,0,15.4-6.9,15.4-15.4V15.4
		C153.7,6.9,146.8,0,138.3,0L138.3,0z"/>
	<g>
		<path class="st9" d="M16.3,131.3h34.9v9.6H16.3L16.3,131.3z"/>
		<path class="st10" d="M51.2,131.3v9.6H16.3v-3h4.4c10.1,0,19-2.7,22.2-6.6H51.2z"/>
		<path class="st11" d="M58.7,131.3h34.9v9.6H58.7V131.3z"/>
		<path class="st12" d="M101.1,131.3h34.9v9.6h-34.9V131.3z"/>
		<path class="st13" d="M136.1,131.3v9.6h-34.9v-3h4.4c10.1,0,19-2.7,22.2-6.6H136.1z"/>
		<path class="st14" d="M93.6,131.3v9.6H58.7v-3H63c10.1,0,19-2.7,22.2-6.6H93.6z"/>
	</g>
	<g>
		<path class="st15" d="M51.2,154H28.8c-0.8,0-1.5-0.8-1.5-1.8c0-1,0.7-1.8,1.5-1.8h22.4c0.8,0,1.5,0.8,1.5,1.8
			C52.7,153.1,52,154,51.2,154z"/>
		<path class="st16" d="M22.8,154h-6.5c-0.8,0-1.5-0.8-1.5-1.8c0-1,0.7-1.8,1.5-1.8h6.5c0.8,0,1.5,0.8,1.5,1.8
			C24.3,153.1,23.6,154,22.8,154z"/>
		<path class="st15" d="M51.2,165.4H16.3c-0.8,0-1.5-0.8-1.5-1.8c0-1,0.7-1.8,1.5-1.8h34.9c0.8,0,1.5,0.8,1.5,1.8
			C52.7,164.6,52,165.4,51.2,165.4z"/>
		<path class="st15" d="M93.6,154H71.2c-0.8,0-1.5-0.8-1.5-1.8c0-1,0.7-1.8,1.5-1.8h22.4c0.8,0,1.5,0.8,1.5,1.8
			C95.1,153.1,94.5,154,93.6,154z"/>
		<path class="st17" d="M65.2,154h-6.5c-0.8,0-1.5-0.8-1.5-1.8c0-1,0.7-1.8,1.5-1.8h6.5c0.8,0,1.5,0.8,1.5,1.8
			C66.7,153.1,66,154,65.2,154z"/>
		<path class="st15" d="M93.6,165.4H58.7c-0.8,0-1.5-0.8-1.5-1.8c0-1,0.7-1.8,1.5-1.8h34.9c0.8,0,1.5,0.8,1.5,1.8
			C95.1,164.6,94.5,165.4,93.6,165.4z"/>
		<path class="st15" d="M136.1,154h-22.4c-0.8,0-1.5-0.8-1.5-1.8c0-1,0.7-1.8,1.5-1.8h22.4c0.8,0,1.5,0.8,1.5,1.8
			C137.6,153.1,136.9,154,136.1,154z"/>
		<path class="st18" d="M107.6,154h-6.5c-0.8,0-1.5-0.8-1.5-1.8c0-1,0.7-1.8,1.5-1.8h6.5c0.8,0,1.5,0.8,1.5,1.8
			C109.1,153.1,108.5,154,107.6,154z"/>
		<path class="st15" d="M136.1,165.4h-34.9c-0.8,0-1.5-0.8-1.5-1.8c0-1,0.7-1.8,1.5-1.8h34.9c0.8,0,1.5,0.8,1.5,1.8
			C137.6,164.6,136.9,165.4,136.1,165.4z"/>
	</g>
	<g>
		<path class="st19" d="M58.6,65.3c0,6.5-3,12.8-8.7,16.9L37.8,65.3h3.5H58.6z"/>
		<circle class="st20" cx="37.8" cy="65.4" r="21.6"/>
		<circle class="st20" cx="37.8" cy="65.3" r="20.8"/>
		<path class="st20" d="M37.8,44.5c11.5,0,20.8,9.3,20.8,20.8H37.8V44.5z"/>
		<path class="st21" d="M50.4,79.3l-8.6-11.9h14.7C55.9,72.1,53.7,76.3,50.4,79.3L50.4,79.3z"/>
		<path class="st22" d="M19,65.3c0,10.4,8.4,18.8,18.8,18.8c3.4,0,6.5-0.9,9.3-2.4L36.1,66.5l0,0c-0.2-0.3-0.4-0.7-0.4-1.2V46.6
			C26.3,47.7,19,55.7,19,65.3z"/>
		<path class="st23" d="M56.5,63.3H39.8V46.6C48.6,47.6,55.5,54.5,56.5,63.3z"/>
	</g>
	<g>
		<g>
			<path class="st24" d="M88.1,74.5c0,1.6-1.3,2.9-2.9,2.9s-2.9-1.3-2.9-2.9c0-1.6,1.3-2.9,2.9-2.9S88.1,72.9,88.1,74.5L88.1,74.5z"
				/>
			<path class="st25" d="M103.7,61c0,1.6-1.3,2.9-2.9,2.9s-2.9-1.3-2.9-2.9c0-1.6,1.3-2.9,2.9-2.9S103.7,59.4,103.7,61z"/>
			<path class="st26" d="M119.4,70.6c0,1.6-1.3,2.9-2.9,2.9c-1.6,0-2.9-1.3-2.9-2.9c0-1.6,1.3-2.9,2.9-2.9
				C118.1,67.7,119.4,69,119.4,70.6L119.4,70.6z"/>
			<path class="st16" d="M135.1,55.4c0,1.6-1.3,2.9-2.9,2.9c-1.6,0-2.9-1.3-2.9-2.9c0-1.6,1.3-2.9,2.9-2.9
				C133.8,52.5,135.1,53.8,135.1,55.4z"/>
			<path class="st27" d="M88.1,74.4v0.1c0,1.6-1.3,2.9-2.9,2.9s-2.9-1.3-2.9-2.9c0-0.9,0.4-1.7,1-2.2c0.1,1.6,1.3,2.8,2.9,2.8
				C86.9,75.1,87.5,74.9,88.1,74.4z"/>
			<path class="st28" d="M103.7,60.9V61c0,1.6-1.3,2.9-2.9,2.9c-1.6,0-2.9-1.3-2.9-2.9c0-0.9,0.4-1.7,1-2.2c0.1,1.6,1.3,2.8,2.9,2.8
				C102.6,61.6,103.2,61.4,103.7,60.9L103.7,60.9z"/>
			<path class="st29" d="M119.4,70.5v0.1c0,1.6-1.3,2.9-2.9,2.9c-1.6,0-2.9-1.3-2.9-2.9c0-0.9,0.4-1.7,1-2.2
				c0.1,1.5,1.4,2.8,2.9,2.8C118.3,71.2,118.9,70.9,119.4,70.5L119.4,70.5z"/>
			<path class="st30" d="M135.1,55.3v0.1c0,1.6-1.3,2.9-2.9,2.9c-1.6,0-2.9-1.3-2.9-2.9c0-0.9,0.4-1.6,1-2.2
				c0.1,1.6,1.4,2.8,2.9,2.8C133.9,56,134.6,55.8,135.1,55.3z"/>
			<path class="st8" d="M85.2,78.4c2.1,0,3.9-1.7,3.9-3.9c0-0.6-0.2-1.2-0.4-1.8l9.8-8.8c0.7,0.6,1.5,0.9,2.5,0.9
				c1.1,0,2.1-0.5,2.8-1.3l9.1,6.1c-0.1,0.3-0.1,0.5-0.1,0.8c0,2.1,1.7,3.9,3.9,3.9c2.1,0,3.9-1.7,3.9-3.9c0-0.6-0.1-1.1-0.4-1.6
				l10.1-10.2c0.6,0.4,1.3,0.6,2,0.6c2.1,0,3.9-1.7,3.9-3.9c0-2.1-1.7-3.9-3.9-3.9c-2.1,0-3.9,1.7-3.9,3.9c0,0.7,0.2,1.3,0.5,1.9
				l-10.1,10.1c-0.6-0.5-1.4-0.7-2.3-0.7c-1.2,0-2.2,0.5-2.9,1.3l-9.1-6.1c0.1-0.3,0.1-0.6,0.1-0.9c0-2.1-1.7-3.9-3.9-3.9
				c-2.1,0-3.9,1.7-3.9,3.9c0,0.5,0.1,1,0.3,1.4l-9.9,8.9c-0.6-0.4-1.4-0.7-2.2-0.7c-2.1,0-3.9,1.7-3.9,3.9
				C81.3,76.7,83,78.4,85.2,78.4z M132.2,53.5c1.1,0,1.9,0.9,1.9,1.9c0,1.1-0.9,2-1.9,2c-1.1,0-2-0.9-2-2
				C130.3,54.4,131.1,53.5,132.2,53.5z M116.5,68.6c1.1,0,1.9,0.9,1.9,1.9s-0.9,2-1.9,2c-1.1,0-2-0.9-2-2
				C114.6,69.5,115.5,68.6,116.5,68.6L116.5,68.6z M100.8,59.1c1.1,0,1.9,0.9,1.9,1.9s-0.9,2-1.9,2s-2-0.9-2-2
				C98.9,60,99.8,59.1,100.8,59.1L100.8,59.1z M85.2,72.6c1.1,0,1.9,0.9,1.9,1.9s-0.9,2-1.9,2s-2-0.9-2-2
				C83.2,73.5,84.1,72.6,85.2,72.6L85.2,72.6z"/>
		</g>
		<g>
			<path class="st31" d="M83,102.3h10.1v14.4H83L83,102.3z"/>
			<path class="st4" d="M93.1,117.5H83c-0.4,0-0.8-0.4-0.8-0.8v-14.4c0-0.4,0.4-0.8,0.8-0.8h10.1c0.4,0,0.8,0.4,0.8,0.8v14.4
				C93.9,117.1,93.5,117.5,93.1,117.5z M83.8,115.9h8.5v-12.8h-8.5V115.9z"/>
			<path class="st18" d="M97,87.7h10.1v29H97V87.7z"/>
			<path class="st4" d="M107.1,117.5H97c-0.4,0-0.8-0.4-0.8-0.8v-29c0-0.4,0.4-0.8,0.8-0.8h10.1c0.4,0,0.8,0.4,0.8,0.8v29
				C107.9,117.1,107.5,117.5,107.1,117.5z M97.8,115.9h8.5V88.5h-8.5V115.9z"/>
			<path class="st32" d="M111,95.1H121v21.6H111V95.1z"/>
			<path class="st4" d="M121,117.5H111c-0.4,0-0.8-0.4-0.8-0.8V95.1c0-0.4,0.4-0.8,0.8-0.8H121c0.4,0,0.8,0.4,0.8,0.8v21.6
				C121.8,117.1,121.5,117.5,121,117.5z M111.8,115.9h8.5v-20h-8.5V115.9z"/>
			<path class="st33" d="M125,82H135v34.7H125V82z"/>
			<path class="st4" d="M135,117.5H125c-0.4,0-0.8-0.4-0.8-0.8V82c0-0.4,0.4-0.8,0.8-0.8H135c0.4,0,0.8,0.4,0.8,0.8v34.7
				C135.8,117.1,135.5,117.5,135,117.5L135,117.5z M125.8,115.9h8.5V82.8h-8.5V115.9z"/>
		</g>
	</g>
	<g>
		<g>
			<path class="st8" d="M54.4,103.3c-0.3-0.7-0.6-1.4-1-2c-0.3-0.5-0.7-0.9-1.1-1.3c-0.3-0.3-0.6-0.5-0.9-0.8
				c-0.3-0.2-0.6-0.4-1-0.6c-0.3-0.2-0.7-0.3-1.1-0.5c-0.2-0.1-0.3-0.1-0.5-0.1c-0.2,0-0.3-0.1-0.5-0.1c-0.2,0-0.4-0.1-0.6-0.1
				c0,0-0.1,0-0.1,0c0,0-0.1,0-0.1,0c-0.1,0-0.2,0-0.4,0c0,0,0,0,0,0c0,0-0.1,0-0.1,0c-0.6,0-2.8,0.1-4.5,1.6
				c-0.1,0.1-0.3,0.3-0.4,0.4c-0.5,0.5-1,1.1-1.5,1.7c-1.4,1.7-2.5,3.4-2.5,3.4c0,0,0,0,0,0c-1.1-1.6-2.4-3.5-4.1-5.2
				c-0.2-0.2-0.4-0.4-0.5-0.5c-0.3-0.3-0.7-0.5-1-0.7c0,0-0.1,0-0.1-0.1c-0.4-0.2-0.7-0.3-1.1-0.4c-0.3-0.1-0.6-0.2-1-0.2
				c-0.2,0-0.5-0.1-0.7-0.1c-0.1,0-0.3,0-0.4,0c-0.1,0-0.1,0-0.1,0c-0.3,0-0.5,0-0.8,0.1c-0.3,0-0.5,0.1-0.8,0.1
				c-0.3,0.1-0.5,0.1-0.7,0.2c-0.2,0.1-0.5,0.2-0.7,0.3c-0.2,0.1-0.5,0.3-0.7,0.4c-0.2,0.1-0.4,0.3-0.6,0.5
				c-0.2,0.2-0.4,0.3-0.6,0.5c-0.1,0.1-0.2,0.2-0.3,0.3c-0.1,0.1-0.3,0.3-0.4,0.4c-0.1,0.1-0.1,0.1-0.1,0.2c0,0,0,0.1-0.1,0.1
				c0,0,0,0,0,0c0,0,0,0,0,0c-0.1,0.1-0.1,0.2-0.2,0.3c-0.1,0.2-0.3,0.4-0.4,0.6c-0.1,0.2-0.3,0.5-0.4,0.8c-0.1,0.1-0.1,0.3-0.2,0.4
				c0,0,0,0,0,0c-0.1,0.1-0.1,0.3-0.2,0.4c0,0,0,0,0,0.1c0,0.1-0.1,0.3-0.1,0.4c0,0,0,0,0,0.1c-0.1,0.2-0.1,0.3-0.2,0.5
				c0,0.1-0.1,0.3-0.1,0.4c0,0,0,0,0,0c0,0.1-0.1,0.3-0.1,0.4c0,0,0,0.1,0,0.1c-0.6,3.1-0.5,7.5,3.4,11.1c0.1,0.1,0.3,0.2,0.5,0.4
				c0.1,0.1,0.3,0.2,0.5,0.3c0.2,0.1,0.3,0.2,0.5,0.2c0.2,0.1,0.3,0.1,0.5,0.2c0.1,0.1,0.3,0.1,0.4,0.2c0.1,0,0.3,0.1,0.4,0.1
				c0.4,0.1,0.8,0.2,1.2,0.2c0.4,0,0.8,0,1.2,0c0.3,0,0.7-0.1,1-0.2c0.1,0,0.3-0.1,0.4-0.1c0.1,0,0.3-0.1,0.4-0.1
				c0.1,0,0.3-0.1,0.4-0.2c0.1-0.1,0.3-0.1,0.4-0.2c0.1-0.1,0.3-0.2,0.4-0.2c0.1-0.1,0.3-0.2,0.4-0.3c0.1-0.1,0.3-0.2,0.4-0.3
				c0.1,0,0.1-0.1,0.1-0.1c0,0,0.1-0.1,0.1-0.1c1-0.9,2.8-3.4,4.1-5.2c0,0,0.4,0.6,0.4,0.7c0.2,0.2,0.3,0.5,0.5,0.7
				c0.3,0.4,0.6,0.8,0.8,1.2c0.6,0.8,1.2,1.6,1.9,2.3c0.5,0.5,1,0.9,1.5,1.3c1.7,1.1,3.8,1.4,5.7,0.9c0.4-0.1,0.8-0.2,1.1-0.4
				c1.2-0.6,2.3-1.5,3.1-2.6c1.8-2.6,2.5-6,1.9-9.2C54.9,104.8,54.7,104.1,54.4,103.3z M32.2,113.1c-0.1,0.1-0.2,0.2-0.3,0.2
				c-0.1,0.1-0.1,0.1-0.2,0.2c-0.7,0.4-1.4,0.7-2.2,0.7c-0.6,0-1.2,0-1.7-0.1c-0.1,0-0.1,0-0.2-0.1c-0.1,0-0.1,0-0.2-0.1
				c-0.1,0-0.2-0.1-0.3-0.1c-0.1,0-0.2-0.1-0.3-0.2c-0.1-0.1-0.2-0.1-0.3-0.2c-0.1-0.1-0.2-0.1-0.3-0.2c-0.1-0.1-0.2-0.1-0.2-0.2
				c-0.1-0.1-0.2-0.2-0.2-0.2c-0.1-0.1-0.2-0.2-0.2-0.3c-0.1-0.1-0.1-0.2-0.2-0.3c-0.1-0.1-0.1-0.2-0.2-0.3
				c-0.1-0.1-0.1-0.2-0.2-0.3c-0.1-0.1-0.1-0.2-0.2-0.3c-0.1-0.1-0.1-0.2-0.2-0.3c-0.1-0.1-0.1-0.2-0.1-0.3c0-0.1-0.1-0.2-0.1-0.3
				c0-0.1-0.1-0.2-0.1-0.4c0-0.1-0.1-0.2-0.1-0.4c0-0.1-0.1-0.3-0.1-0.4c0-0.1,0-0.3-0.1-0.4c0-0.1,0-0.3,0-0.4c0-0.1,0-0.3,0-0.4
				c0,0,0-0.1,0-0.1c0-4,3.6-8.1,7.6-5.6c0.6,0.4,1.2,0.9,1.6,1.5c1,1.3,2,2.6,2.9,4c-0.5,0.7-0.9,1.4-1.4,2.1
				c-0.4,0.6-0.8,1.1-1.2,1.7C33,112.2,32.6,112.7,32.2,113.1z M49.4,113.6c-0.7,0.4-1.4,0.6-1.9,0.6c-0.5,0.1-1,0-1.5-0.1
				c-0.5-0.1-0.9-0.3-1.4-0.5c-0.4-0.3-0.8-0.6-1.2-1c-0.3-0.3-0.5-0.6-0.8-0.9c-0.3-0.4-0.6-0.7-0.9-1.1c-0.3-0.4-0.6-0.9-0.9-1.3
				c-0.1-0.1-0.1-0.2-0.2-0.3c-0.2-0.3-0.4-0.6-0.6-1c1.1-1.7,2.3-3.5,3.7-4.9c0.5-0.5,1.1-0.9,1.8-1.1l0,0c1-0.3,2.2-0.3,3.2,0.1
				c0.7,0.3,1.3,0.8,1.8,1.4c1.1,1.2,1.6,2.9,1.6,4.6C52.2,110.4,51,112.6,49.4,113.6z"/>
		</g>
		<path class="st34" d="M53.9,102.1c-0.3-0.7-0.6-1.4-1-2c-0.3-0.5-0.7-0.9-1.1-1.3c-0.3-0.3-0.6-0.5-0.9-0.8
			c-0.3-0.2-0.6-0.4-1-0.6c-0.3-0.2-0.7-0.3-1.1-0.5c-0.2-0.1-0.3-0.1-0.5-0.1c-0.2,0-0.3-0.1-0.5-0.1c-0.2,0-0.4-0.1-0.6-0.1
			c0,0-0.1,0-0.1,0c0,0-0.1,0-0.1,0c-0.1,0-0.2,0-0.4,0c0,0,0,0,0,0c0,0-0.1,0-0.1,0c-0.6,0-2.8,0.1-4.5,1.6
			c-0.1,0.1-0.3,0.3-0.4,0.4c-0.5,0.5-1,1.1-1.5,1.7c-1.4,1.7-2.5,3.4-2.5,3.4c0,0,0,0,0,0c-1.1-1.6-2.4-3.5-4.1-5.2
			c-0.2-0.2-0.4-0.4-0.5-0.5c-0.3-0.3-0.7-0.5-1-0.7c0,0-0.1,0-0.1-0.1c-0.4-0.2-0.7-0.3-1.1-0.4c-0.3-0.1-0.6-0.2-1-0.2
			c-0.2,0-0.5-0.1-0.7-0.1c-0.1,0-0.3,0-0.4,0c-0.1,0-0.1,0-0.1,0c-0.3,0-0.5,0-0.8,0.1c-0.3,0-0.5,0.1-0.8,0.1
			c-0.3,0.1-0.5,0.1-0.7,0.2c-0.2,0.1-0.5,0.2-0.7,0.3c-0.2,0.1-0.5,0.3-0.7,0.4c-0.2,0.1-0.4,0.3-0.6,0.5c-0.2,0.2-0.4,0.3-0.6,0.5
			c-0.1,0.1-0.2,0.2-0.3,0.3c-0.1,0.1-0.3,0.3-0.4,0.4c-0.1,0.1-0.1,0.1-0.1,0.2c0,0,0,0.1-0.1,0.1c0,0,0,0,0,0c0,0,0,0,0,0
			c-0.1,0.1-0.1,0.2-0.2,0.3c-0.1,0.2-0.3,0.4-0.4,0.6c-0.1,0.2-0.3,0.5-0.4,0.8c-0.1,0.1-0.1,0.3-0.2,0.4c0,0,0,0,0,0
			c-0.1,0.1-0.1,0.3-0.2,0.4c0,0,0,0,0,0.1c0,0.1-0.1,0.3-0.1,0.4c0,0,0,0,0,0.1c-0.1,0.2-0.1,0.3-0.2,0.5c0,0.1-0.1,0.3-0.1,0.4
			c0,0,0,0,0,0c0,0.1-0.1,0.3-0.1,0.4c0,0,0,0.1,0,0.1c-0.6,3.1-0.5,7.5,3.4,11.1c0.1,0.1,0.3,0.2,0.5,0.4c0.1,0.1,0.3,0.2,0.5,0.3
			c0.2,0.1,0.3,0.2,0.5,0.2c0.2,0.1,0.3,0.1,0.5,0.2c0.1,0.1,0.3,0.1,0.4,0.2c0.1,0,0.3,0.1,0.4,0.1c0.4,0.1,0.8,0.2,1.2,0.2
			c0.4,0,0.8,0,1.2,0c0.3,0,0.7-0.1,1-0.2c0.1,0,0.3-0.1,0.4-0.1c0.1,0,0.3-0.1,0.4-0.1c0.1,0,0.3-0.1,0.4-0.2
			c0.1-0.1,0.3-0.1,0.4-0.2c0.1-0.1,0.3-0.2,0.4-0.2c0.1-0.1,0.3-0.2,0.4-0.3c0.1-0.1,0.3-0.2,0.4-0.3c0.1,0,0.1-0.1,0.1-0.1
			c0,0,0.1-0.1,0.1-0.1c1-0.9,2.8-3.4,4.1-5.2c0,0,0.4,0.6,0.4,0.7c0.2,0.2,0.3,0.5,0.5,0.7c0.3,0.4,0.6,0.8,0.8,1.2
			c0.6,0.8,1.2,1.6,1.9,2.3c0.5,0.5,1,0.9,1.5,1.3c1.7,1.1,3.8,1.4,5.7,0.9c0.4-0.1,0.8-0.2,1.1-0.4c1.2-0.6,2.3-1.5,3.1-2.6
			c1.8-2.6,2.5-6,1.9-9.2C54.4,103.6,54.2,102.8,53.9,102.1z M31.7,111.8c-0.1,0.1-0.2,0.2-0.3,0.2c-0.1,0.1-0.1,0.1-0.2,0.2
			c-0.7,0.4-1.4,0.7-2.2,0.7c-0.6,0-1.2,0-1.7-0.1c-0.1,0-0.1,0-0.2-0.1c-0.1,0-0.1,0-0.2-0.1c-0.1,0-0.2-0.1-0.3-0.1
			c-0.1,0-0.2-0.1-0.3-0.2c-0.1-0.1-0.2-0.1-0.3-0.2c-0.1-0.1-0.2-0.1-0.3-0.2c-0.1-0.1-0.2-0.1-0.2-0.2c-0.1-0.1-0.2-0.2-0.2-0.2
			c-0.1-0.1-0.2-0.2-0.2-0.3c-0.1-0.1-0.1-0.2-0.2-0.3c-0.1-0.1-0.1-0.2-0.2-0.3c-0.1-0.1-0.1-0.2-0.2-0.3c-0.1-0.1-0.1-0.2-0.2-0.3
			c-0.1-0.1-0.1-0.2-0.2-0.3c-0.1-0.1-0.1-0.2-0.1-0.3c0-0.1-0.1-0.2-0.1-0.3c0-0.1-0.1-0.2-0.1-0.4c0-0.1-0.1-0.2-0.1-0.4
			c0-0.1-0.1-0.3-0.1-0.4c0-0.1,0-0.3-0.1-0.4c0-0.1,0-0.3,0-0.4c0-0.1,0-0.3,0-0.4c0,0,0-0.1,0-0.1c0-4,3.6-8.1,7.6-5.6
			c0.6,0.4,1.2,0.9,1.6,1.5c1,1.3,2,2.6,2.9,4c-0.5,0.7-0.9,1.4-1.4,2.1c-0.4,0.6-0.8,1.1-1.2,1.7C32.6,110.9,32.2,111.4,31.7,111.8
			z M48.9,112.3c-0.7,0.4-1.4,0.6-1.9,0.6c-0.5,0.1-1,0-1.5-0.1c-0.5-0.1-0.9-0.3-1.4-0.5c-0.4-0.3-0.8-0.6-1.2-1
			c-0.3-0.3-0.5-0.6-0.8-0.9c-0.3-0.4-0.6-0.7-0.9-1.1c-0.3-0.4-0.6-0.9-0.9-1.3c-0.1-0.1-0.1-0.2-0.2-0.3c-0.2-0.3-0.4-0.6-0.6-1
			c1.1-1.7,2.3-3.5,3.7-4.9c0.5-0.5,1.1-0.9,1.8-1.1l0,0c1-0.3,2.2-0.3,3.2,0.1c0.7,0.3,1.3,0.8,1.8,1.4c1.1,1.2,1.6,2.9,1.6,4.6
			C51.7,109.2,50.6,111.3,48.9,112.3z"/>
	</g>
</g>
</svg>
