<?xml version="1.0" encoding="utf-8"?>
<!-- Generator: Adobe Illustrator 25.0.1, SVG Export Plug-In . SVG Version: 6.00 Build 0)  -->
<svg version="1.1" id="Layer_1" xmlns="http://www.w3.org/2000/svg" xmlns:xlink="http://www.w3.org/1999/xlink" x="0px" y="0px"
	 viewBox="0 0 186 250" style="enable-background:new 0 0 186 250;" xml:space="preserve">
<style type="text/css">
	.st0{fill:#B29D90;}
	.st1{fill:#515979;}
	.st2{fill:#FFFFFF;}
	.st3{fill:#D8EBFB;}
	.st4{fill:#BAD2E1;}
	.st5{fill:#F89D81;}
	.st6{fill:#EF7D7D;}
</style>
<g>
	<g>
		<path class="st0" d="M18.7,245.8c-8.2,0-14.9-6.7-14.9-14.9V52.7c0-8.2,6.7-14.9,14.9-14.9h148.6c8.2,0,14.9,6.7,14.9,14.9V231
			c0,8.2-6.7,14.9-14.9,14.9H18.7z"/>
	</g>
	<g>
		<path class="st1" d="M167.3,40.8c6.6,0,11.9,5.3,11.9,11.9V231c0,6.6-5.3,11.9-11.9,11.9H18.7c-6.6,0-11.9-5.3-11.9-11.9V52.7
			c0-6.6,5.3-11.9,11.9-11.9H167.3 M167.3,34.9H18.7c-9.8,0-17.8,8-17.8,17.8V231c0,9.8,8,17.8,17.8,17.8h148.6
			c9.8,0,17.8-8,17.8-17.8V52.7C185.1,42.9,177.1,34.9,167.3,34.9L167.3,34.9z"/>
	</g>
</g>
<g>
	<g>
		<path class="st2" d="M22.7,234c-3.8,0-6.9-3.1-6.9-6.9V56.7c0-3.8,3.1-6.9,6.9-6.9h140.6c3.8,0,6.9,3.1,6.9,6.9v150.6
			c0,0.8-0.3,1.5-0.9,2.1l-23.8,23.8c-0.6,0.6-1.3,0.9-2.1,0.9H22.7z"/>
	</g>
	<g>
		<path class="st1" d="M163.3,52.7c2.2,0,4,1.8,4,4v150.6L143.5,231H22.7c-2.2,0-4-1.8-4-4V56.7c0-2.2,1.8-4,4-4H163.3 M163.3,46.8
			H22.7c-5.5,0-9.9,4.4-9.9,9.9V227c0,5.5,4.4,9.9,9.9,9.9h120.8c1.6,0,3.1-0.6,4.2-1.7l23.8-23.8c1.1-1.1,1.7-2.6,1.7-4.2V56.7
			C173.2,51.2,168.8,46.8,163.3,46.8L163.3,46.8z"/>
	</g>
</g>
<g>
	<g>
		<path class="st3" d="M143.5,234c-0.4,0-0.8-0.1-1.1-0.2c-1.1-0.5-1.8-1.5-1.8-2.7v-19c0-4.3,3.5-7.7,7.7-7.7h19
			c1.2,0,2.3,0.7,2.7,1.8c0.5,1.1,0.2,2.4-0.6,3.2l-23.8,23.8C145,233.6,144.3,234,143.5,234z"/>
	</g>
	<g>
		<path class="st1" d="M167.3,207.2L143.5,231v-19c0-2.6,2.1-4.8,4.8-4.8H167.3 M167.3,201.3h-19c-5.9,0-10.7,4.8-10.7,10.7v19
			c0,2.4,1.4,4.6,3.7,5.5c0.7,0.3,1.5,0.5,2.3,0.5c1.5,0,3.1-0.6,4.2-1.7l23.8-23.8c1.7-1.7,2.2-4.3,1.3-6.5
			C171.9,202.7,169.7,201.3,167.3,201.3L167.3,201.3z M167.3,213.2L167.3,213.2L167.3,213.2L167.3,213.2z"/>
	</g>
</g>
<g>
	<path class="st1" d="M102.9,145.8H77.2c-1.6,0-3-1.3-3-3v0c0-1.6,1.3-3,3-3h25.8c1.6,0,3,1.3,3,3v0
		C105.9,144.5,104.5,145.8,102.9,145.8z"/>
</g>
<g>
	<path class="st1" d="M144.5,133.9H77.2c-1.6,0-3-1.3-3-3l0,0c0-1.6,1.3-3,3-3h67.4c1.6,0,3,1.3,3,3l0,0
		C147.5,132.6,146.1,133.9,144.5,133.9z"/>
</g>
<g>
	<g>
		<g>
			<path class="st4" d="M43.5,61.6c-1.6,0-3-1.3-3-3V42.8c0-6,4.9-10.9,10.9-10.9h25c-1.5-2.7-2.3-5.8-2.3-8.9
				c0-10.4,8.4-18.8,18.8-18.8c0.7,0,1.4,0,2.1,0.1c8.5,0.9,15.4,7.8,16.5,16.2c0.5,4-0.3,8-2.1,11.4h25c6,0,10.9,4.9,10.9,10.9
				v15.8c0,1.6-1.3,3-3,3H43.5z M93,18c-0.3,0-0.7,0-1,0.1c-1.9,0.4-3.5,1.9-3.9,3.9c-0.3,1.5,0.1,3,1,4.2c0.9,1.1,2.3,1.8,3.8,1.8
				c0.3,0,0.7,0,1-0.1c1.9-0.4,3.5-1.9,3.9-3.9c0.3-1.5-0.1-3-1-4.2C95.9,18.7,94.5,18,93,18z"/>
		</g>
	</g>
	<g>
		<g>
			<path class="st1" d="M93,7.1c0.6,0,1.2,0,1.8,0.1c7.2,0.8,13,6.5,13.9,13.7c0.7,5.6-1.5,10.7-5.3,14h31.1c4.4,0,7.9,3.5,7.9,7.9
				v15.8h-99V42.8c0-4.4,3.5-7.9,7.9-7.9h31.1c-3.3-2.9-5.4-7.1-5.4-11.9C77.2,14.2,84.2,7.1,93,7.1 M93,30.9c0.5,0,1,0,1.6-0.1
				c3.1-0.6,5.6-3.1,6.2-6.2c1-5.1-2.9-9.5-7.8-9.5c-0.5,0-1,0-1.6,0.1c-3.1,0.6-5.6,3.1-6.2,6.2C84.3,26.5,88.1,30.9,93,30.9
				 M93,1.2C93,1.2,93,1.2,93,1.2c-5.8,0-11.3,2.3-15.4,6.4c-4.1,4.1-6.4,9.6-6.4,15.4c0,2,0.3,4,0.8,5.9H51.4
				c-7.6,0-13.9,6.2-13.9,13.9v15.8c0,3.3,2.7,5.9,5.9,5.9h99c3.3,0,5.9-2.7,5.9-5.9V42.8c0-7.6-6.2-13.9-13.9-13.9H114
				c0.8-2.8,1-5.8,0.7-8.8c-1.3-9.8-9.3-17.7-19.1-18.8C94.7,1.2,93.8,1.2,93,1.2L93,1.2z M93,25c-0.8,0-1.3-0.5-1.5-0.7
				c-0.3-0.3-0.6-0.9-0.4-1.7c0.1-0.7,0.8-1.4,1.5-1.5c0.2,0,0.3,0,0.4,0c0.8,0,1.3,0.5,1.5,0.7c0.3,0.3,0.6,0.9,0.4,1.7
				c-0.1,0.7-0.8,1.4-1.5,1.5C93.3,24.9,93.1,25,93,25L93,25z"/>
		</g>
	</g>
</g>
<path class="st1" d="M127.7,49.7H58.3c-1.6,0-3-1.3-3-3c0-1.6,1.3-3,3-3h69.3c1.6,0,3,1.3,3,3C130.6,48.4,129.3,49.7,127.7,49.7z"/>
<g>
	<g>
		<path class="st2" d="M44.5,148.8c-1.6,0-3-1.3-3-3V128c0-1.6,1.3-3,3-3h17.8c1.6,0,3,1.3,3,3v17.8c0,1.6-1.3,3-3,3H44.5z"/>
	</g>
	<g>
		<path class="st1" d="M62.3,128v17.8H44.5V128H62.3 M62.3,122H44.5c-3.3,0-5.9,2.7-5.9,5.9v17.8c0,3.3,2.7,5.9,5.9,5.9h17.8
			c3.3,0,5.9-2.7,5.9-5.9V128C68.2,124.7,65.6,122,62.3,122L62.3,122z"/>
	</g>
</g>
<g>
	<path class="st5" d="M54.8,142.8c-0.8,0-1.6-0.4-2.2-1l-5.4-5.9c-1.1-1.2-1-3.1,0.2-4.2c1.2-1.1,3.1-1,4.2,0.2l3.2,3.5L67,122
		c1.1-1.2,3-1.3,4.2-0.2c1.2,1.1,1.3,3,0.2,4.2L57,141.9C56.5,142.5,55.7,142.8,54.8,142.8z"/>
</g>
<g>
	<path class="st1" d="M122.7,181.5H77.2c-1.6,0-3-1.3-3-3v0c0-1.6,1.3-3,3-3h45.6c1.6,0,3,1.3,3,3v0
		C125.7,180.1,124.4,181.5,122.7,181.5z"/>
</g>
<g>
	<path class="st1" d="M144.5,169.6H77.2c-1.6,0-3-1.3-3-3l0,0c0-1.6,1.3-3,3-3h67.4c1.6,0,3,1.3,3,3l0,0
		C147.5,168.2,146.1,169.6,144.5,169.6z"/>
</g>
<g>
	<path class="st1" d="M87.1,215.1H41.5c-1.6,0-3-1.3-3-3v0c0-1.6,1.3-3,3-3h45.6c1.6,0,3,1.3,3,3v0C90,213.8,88.7,215.1,87.1,215.1z
		"/>
</g>
<g>
	<path class="st1" d="M108.8,203.2H41.5c-1.6,0-3-1.3-3-3l0,0c0-1.6,1.3-3,3-3h67.4c1.6,0,3,1.3,3,3l0,0
		C111.8,201.9,110.5,203.2,108.8,203.2z"/>
</g>
<g>
	<g>
		<path class="st2" d="M44.5,184.4c-1.6,0-3-1.3-3-3v-17.8c0-1.6,1.3-3,3-3h17.8c1.6,0,3,1.3,3,3v17.8c0,1.6-1.3,3-3,3H44.5z"/>
	</g>
	<g>
		<path class="st1" d="M62.3,163.6v17.8H44.5v-17.8H62.3 M62.3,157.7H44.5c-3.3,0-5.9,2.7-5.9,5.9v17.8c0,3.3,2.7,5.9,5.9,5.9h17.8
			c3.3,0,5.9-2.7,5.9-5.9v-17.8C68.2,160.3,65.6,157.7,62.3,157.7L62.3,157.7z"/>
	</g>
</g>
<g>
	<path class="st5" d="M54.8,178.5c-0.8,0-1.6-0.4-2.2-1l-5.4-5.9c-1.1-1.2-1-3.1,0.2-4.2c1.2-1.1,3.1-1,4.2,0.2l3.2,3.5L67,157.7
		c1.1-1.2,3-1.3,4.2-0.2c1.2,1.1,1.3,3,0.2,4.2L57,177.5C56.5,178.1,55.7,178.5,54.8,178.5z"/>
</g>
<g>
	<g>
		<g>
			<path class="st1" d="M110.3,92.9c-0.3,0-0.6-0.1-0.9-0.2c-1.9-1-5.2-1-7,0c-1,0.5-2.2,0.2-2.7-0.8c-0.5-1-0.2-2.2,0.8-2.7
				c3-1.6,7.8-1.6,10.8,0c1,0.5,1.3,1.7,0.8,2.7C111.7,92.5,111,92.9,110.3,92.9z"/>
		</g>
		<g>
			<g>
				<circle class="st1" cx="105.9" cy="83.3" r="6.9"/>
			</g>
			<g>
				<circle class="st2" cx="107.6" cy="83.3" r="1.7"/>
			</g>
		</g>
		<g>
			<path class="st1" d="M101.7,69.2c0.7-0.4,1.2-0.7,1.9-0.9c0.6-0.2,1.3-0.4,2-0.5c1.4-0.2,2.8-0.1,4.2,0.4
				c1.4,0.4,2.8,1.2,3.8,2.3c1.1,1.1,1.7,2.4,2,3.8c0.2,1.1-0.4,2.2-1.5,2.4c-0.6,0.1-1.1,0-1.5-0.3l-0.4-0.3
				c-0.9-0.6-1.5-1.1-2.1-1.4c-0.7-0.4-1.3-0.7-2-0.9c-0.7-0.2-1.5-0.4-2.4-0.5c-0.4-0.1-0.9-0.1-1.4-0.2c-0.4-0.1-1-0.1-1.4-0.2
				l-0.7-0.2c-1-0.3-1.6-1.4-1.4-2.4C101,69.8,101.3,69.4,101.7,69.2z"/>
		</g>
		<g>
			<path class="st1" d="M75.7,92.9c-0.7,0-1.4-0.4-1.7-1c-0.5-1-0.2-2.2,0.8-2.7c3-1.6,7.8-1.6,10.8,0c1,0.5,1.3,1.7,0.8,2.7
				c-0.5,1-1.7,1.3-2.7,0.8c-1.9-1-5.2-1-7,0C76.3,92.8,76,92.9,75.7,92.9z"/>
		</g>
		<g>
			<g>
				<circle class="st1" cx="80.1" cy="83.3" r="6.9"/>
			</g>
			<g>
				<circle class="st2" cx="81.9" cy="83.3" r="1.7"/>
			</g>
		</g>
		<g>
			<path class="st1" d="M83.1,73.4c-0.4,0.1-0.9,0-1.4,0.1c-0.5,0-0.9,0-1.4,0.1c-0.9,0.1-1.7,0.2-2.4,0.3c-0.7,0.2-1.4,0.4-2.1,0.7
				c-0.7,0.3-1.4,0.8-2.3,1.2L73.2,76c-1,0.5-2.2,0.1-2.7-0.8c-0.3-0.5-0.3-1.1-0.1-1.6c0.4-1.3,1.2-2.6,2.3-3.6c1.1-1,2.6-1.7,4-2
				c1.5-0.3,2.9-0.3,4.2,0c0.7,0.1,1.3,0.4,1.9,0.6c0.6,0.3,1.2,0.6,1.8,1.1c0.9,0.6,1,1.9,0.4,2.7c-0.3,0.4-0.7,0.7-1.2,0.8
				L83.1,73.4z"/>
		</g>
	</g>
	<g>
		<g>
			<g>
				<path class="st1" d="M93,116.6c-9,0-16.3-7.3-16.3-16.3c0-1.4,1.1-2.5,2.5-2.5h27.7c1.4,0,2.5,1.1,2.5,2.5
					C109.3,109.2,102,116.6,93,116.6z"/>
			</g>
			<g>
				<path class="st1" d="M106.9,100.2L106.9,100.2 M106.9,100.2c0,7.7-6.2,13.9-13.9,13.9c-7.7,0-13.9-6.2-13.9-13.9H106.9
					 M106.9,95.3L106.9,95.3H79.1c-2.7,0-5,2.2-5,5c0,10.4,8.4,18.8,18.8,18.8c10.3,0,18.7-8.3,18.8-18.6c0-0.1,0-0.1,0-0.2
					C111.8,97.5,109.6,95.3,106.9,95.3L106.9,95.3z M106.9,105.2L106.9,105.2L106.9,105.2L106.9,105.2z"/>
			</g>
		</g>
		<g>
			<g>
				<ellipse class="st6" cx="93" cy="109.5" rx="10.3" ry="4.6"/>
			</g>
		</g>
	</g>
</g>
</svg>
