<svg width="600" height="250" viewBox="0 0 600 250" fill="none" xmlns="http://www.w3.org/2000/svg">
<mask id="mask0_831_112203" style="mask-type:alpha" maskUnits="userSpaceOnUse" x="0" y="0" width="600" height="250">
<rect width="600" height="250" fill="#D9D9D9"/>
</mask>
<g mask="url(#mask0_831_112203)">
</g>
<g clip-path="url(#clip0_831_112203)">
<path d="M211.599 38.0952V10.7143H236.302C237.79 10.7143 239.079 11.9048 239.079 13.4921V38.1945H211.599V38.0952Z" fill="#4CAF50"/>
<path d="M236.302 11.8056C237.194 11.8056 237.988 12.5992 237.988 13.4921V37.1032H212.69V11.8056H236.302ZM236.302 9.62305H212.69H210.508V11.8056V37.1032V39.2857H212.69H237.988H240.171V37.1032V13.4921C240.071 11.3096 238.385 9.62305 236.302 9.62305Z" fill="#35414D"/>
<path d="M182.929 38.0952V13.4921C182.929 12.004 184.119 10.7143 185.706 10.7143H210.409V38.0952H182.929Z" fill="#F44336"/>
<path d="M209.317 11.8056V37.1032H184.02V13.4921C184.02 12.5992 184.813 11.8056 185.706 11.8056H209.317ZM211.5 9.62305H209.317H185.706C183.623 9.62305 181.837 11.3096 181.837 13.4921V37.1032V39.2857H184.02H209.317H211.5V37.1032V11.8056V9.62305Z" fill="#35414D"/>
<path d="M185.706 66.7659C184.218 66.7659 182.929 65.5754 182.929 63.9881V39.3849H210.31V66.7659H185.706Z" fill="#2196F3"/>
<path d="M209.317 40.377V65.6747H185.706C184.813 65.6747 184.02 64.881 184.02 63.9881V40.377H209.317ZM211.5 38.2937H209.317H184.02H181.837V40.4762V64.0874C181.837 66.1707 183.524 67.9564 185.706 67.9564H209.317H211.5V65.7739V40.377V38.2937Z" fill="#35414D"/>
<path d="M211.599 66.7659V39.3849H238.98V64.0873C238.98 65.5754 237.79 66.8651 236.202 66.8651H211.599V66.7659Z" fill="#FFC107"/>
<path d="M237.988 40.377V63.9881C237.988 64.881 237.194 65.6747 236.302 65.6747H212.69V40.377H237.988ZM240.071 38.2937H237.889H212.591H210.409V40.4762V65.7739V67.9564H212.591H236.202C238.286 67.9564 240.071 66.2699 240.071 64.0874V40.377V38.2937Z" fill="#35414D"/>
<path d="M386.202 235.913L386.698 235.615C389.575 233.929 391.956 231.349 393.246 228.274H381.639C380.349 228.274 379.357 227.282 379.357 225.992V218.948C379.357 217.659 380.349 216.667 381.639 216.667H403.663C404.754 216.667 405.746 217.46 405.944 218.552C406.143 219.742 406.242 220.833 406.242 222.123C406.242 231.944 401.083 240.774 392.452 245.734L391.956 246.032L386.202 235.913Z" fill="#167EE6"/>
<path d="M381.639 217.262H403.663C404.556 217.262 405.25 217.857 405.349 218.75C405.548 219.841 405.647 220.833 405.647 222.222C405.647 231.845 400.687 240.476 392.155 245.337L386.897 236.21C390.171 234.325 392.651 231.349 394.04 227.877H381.639C380.647 227.877 379.853 227.083 379.853 226.091V219.048C379.853 218.056 380.647 217.262 381.639 217.262ZM381.639 216.171C380.052 216.171 378.762 217.46 378.762 219.048V226.091C378.762 227.679 380.052 228.968 381.639 228.968H392.353C390.964 231.548 388.881 233.829 386.401 235.317L385.508 235.814L386.004 236.706L391.262 245.833L391.758 246.726L392.651 246.23C401.381 241.171 406.639 232.143 406.639 222.222C406.639 220.833 406.54 219.841 406.341 218.552C406.143 217.163 404.952 216.171 403.563 216.171H381.639Z" fill="#35414D"/>
<path d="M378.663 249.405C368.841 249.405 359.714 244.147 354.853 235.615L354.556 235.119L364.675 229.266L364.972 229.762C367.849 234.623 373.107 237.698 378.663 237.698C381.44 237.698 384.218 237.004 386.599 235.516L387.095 235.218L392.75 244.94V245.436L392.452 245.635C388.286 248.115 383.524 249.405 378.663 249.405Z" fill="#12B347"/>
<path d="M364.476 230.159C367.353 235.02 372.611 238.393 378.663 238.393C381.639 238.393 384.417 237.599 386.897 236.21L392.155 245.337C388.187 247.619 383.524 248.909 378.663 248.909C368.742 248.909 360.012 243.452 355.349 235.417L364.476 230.159ZM364.873 228.671L363.98 229.167L354.853 234.425L353.96 234.921L354.456 235.814C359.417 244.444 368.742 249.802 378.762 249.802C383.722 249.802 388.484 248.512 392.75 246.032L393.246 245.734V245.139V244.841L393.147 244.544L387.889 235.417L387.393 234.524L386.5 235.02C384.119 236.409 381.54 237.103 378.861 237.103C373.405 237.103 368.345 234.127 365.567 229.464L364.873 228.671Z" fill="#35414D"/>
<path d="M378.167 249.405V237.798H378.663C381.44 237.798 384.218 237.103 386.599 235.615L387.095 235.318L392.75 245.04V245.536L392.452 245.734C388.286 248.115 383.524 249.405 378.663 249.405H378.167Z" fill="#0F993E"/>
<path d="M386.897 236.111L392.155 245.238C388.187 247.52 383.524 248.81 378.663 248.81V238.294C381.738 238.294 384.516 237.5 386.897 236.111ZM387.294 234.623L386.401 235.119C384.02 236.508 381.441 237.202 378.762 237.202H377.671V238.294V248.81V249.901H378.762C383.722 249.901 388.484 248.611 392.75 246.131L393.246 245.833V245.238V244.941L393.147 244.643L387.889 235.516L387.294 234.623Z" fill="#35414D"/>
<path d="M354.952 235.615C352.571 231.448 351.282 226.686 351.282 221.925C351.282 217.063 352.571 212.302 354.952 208.234L355.25 207.738L365.369 213.591L365.071 214.087C363.683 216.468 362.889 219.246 362.889 222.024C362.889 224.802 363.583 227.579 365.071 229.96L365.369 230.456L355.25 236.309L354.952 235.615Z" fill="#FFD500"/>
<path d="M355.349 208.433L364.476 213.69C363.087 216.071 362.294 218.948 362.294 221.925C362.294 224.901 363.087 227.679 364.476 230.159L355.349 235.417C353.067 231.448 351.679 226.885 351.679 221.925C351.778 217.063 353.067 212.401 355.349 208.433ZM354.952 206.944L354.456 207.837C351.976 212.103 350.686 216.964 350.686 221.825C350.686 226.786 351.976 231.647 354.456 235.813L354.952 236.706L355.845 236.21L364.972 230.952L365.865 230.456L365.369 229.563C363.98 227.183 363.286 224.603 363.286 221.925C363.286 219.246 363.98 216.567 365.369 214.286L365.865 213.393L364.972 212.897L355.845 207.639L354.952 206.944Z" fill="#35414D"/>
<path d="M354.655 208.631L354.952 208.135C359.814 199.603 368.94 194.345 378.762 194.345C385.31 194.345 391.758 196.726 396.718 201.091C397.214 201.488 397.512 202.083 397.512 202.778C397.512 203.472 397.313 204.067 396.817 204.464L391.857 209.425C391.46 209.821 390.865 210.119 390.27 210.119C389.774 210.119 389.179 209.921 388.782 209.623C385.905 207.242 382.333 206.052 378.663 206.052C373.008 206.052 367.75 209.127 364.972 213.988L364.675 214.484L354.655 208.631Z" fill="#FF4B26"/>
<path d="M378.663 194.941C385.409 194.941 391.56 197.421 396.321 201.587C397.115 202.282 397.115 203.472 396.421 204.167L391.46 209.127C391.163 209.425 390.667 209.623 390.27 209.623C389.873 209.623 389.476 209.524 389.179 209.226C386.302 206.845 382.73 205.456 378.762 205.456C372.71 205.456 367.452 208.73 364.575 213.691L355.448 208.433C360.012 200.397 368.742 194.941 378.663 194.941ZM378.663 193.849C368.643 193.849 359.417 199.206 354.357 207.837L353.861 208.73L354.754 209.226L363.881 214.484L364.774 214.98L365.27 214.087C368.048 209.325 373.107 206.448 378.563 206.448C382.135 206.448 385.607 207.738 388.286 209.921C388.782 210.318 389.476 210.615 390.071 210.615C390.865 210.615 391.56 210.318 392.056 209.821L397.016 204.861C397.611 204.266 397.909 203.571 397.81 202.778C397.81 201.984 397.413 201.191 396.817 200.694C391.956 196.329 385.409 193.849 378.663 193.849Z" fill="#35414D"/>
<path d="M390.27 210.218C389.774 210.218 389.179 210.02 388.782 209.722C385.905 207.341 382.333 206.151 378.663 206.151H378.167V194.444H378.663C385.21 194.444 391.659 196.825 396.619 201.19C397.115 201.587 397.413 202.183 397.413 202.877C397.413 203.571 397.214 204.167 396.718 204.564L391.758 209.524C391.46 209.921 390.865 210.218 390.27 210.218Z" fill="#D93F21"/>
<path d="M378.663 194.941C385.409 194.941 391.559 197.421 396.321 201.587C397.115 202.282 397.115 203.472 396.421 204.167L391.46 209.127C391.163 209.425 390.667 209.623 390.27 209.623C389.873 209.623 389.476 209.524 389.179 209.226C386.302 206.845 382.73 205.456 378.762 205.456V194.941M378.663 193.849H377.571V194.941V205.456V206.548H378.663C382.234 206.548 385.706 207.837 388.385 210.02C388.881 210.417 389.575 210.714 390.171 210.714C390.964 210.714 391.659 210.417 392.155 209.921L397.115 204.96C397.71 204.365 398.008 203.671 397.909 202.877C397.909 202.083 397.512 201.29 396.917 200.794C391.956 196.329 385.409 193.849 378.663 193.849Z" fill="#35414D"/>
<path d="M517.353 151.786H476.877C473.206 151.786 470.131 154.762 470.131 158.532V199.008C470.131 202.679 473.107 205.754 476.877 205.754H517.353C521.024 205.754 524.099 202.778 524.099 199.008V158.532C524.099 154.762 521.123 151.786 517.353 151.786Z" fill="#1976D2" stroke="#35414D" stroke-width="2.1737" stroke-miterlimit="10"/>
<path d="M515.667 178.77H507.234V172.024C507.234 170.139 508.722 170.337 510.607 170.337H513.98V161.905H507.234C501.679 161.905 497.115 166.468 497.115 172.024V178.77H490.369V187.202H497.115V205.754H507.234V187.202H512.294L515.667 178.77Z" fill="#FAFAFA" stroke="#35414D" stroke-width="2.1737" stroke-miterlimit="10"/>
<path d="M477.075 71.5278C469.833 71.5278 460.706 71.3294 458.722 70.8334C449.099 68.3532 449.298 58.9286 449.595 48.9088C449.595 47.3215 449.694 45.635 449.694 43.9485C449.694 41.6667 449.694 39.6826 449.694 37.8969C449.595 28.2739 449.496 24.3056 453.266 20.4366C456.54 17.0635 460.012 16.5675 469.734 16.5675C471.52 16.5675 473.504 16.5675 475.686 16.5675C478.563 16.5675 481.837 16.6667 485.508 16.6667H485.905C492.254 16.6667 492.651 16.7659 493.841 16.8651C499.992 17.758 503.96 22.2223 504.456 28.7699C504.556 29.6627 504.556 58.4326 504.456 59.3254C503.96 65.377 500.686 69.5437 495.429 70.9326C493.544 71.3294 484.317 71.5278 477.075 71.5278Z" fill="url(#paint0_linear_831_112203)"/>
<path d="M469.635 17.0635C473.702 17.0635 478.762 17.1627 485.409 17.1627C485.508 17.1627 485.706 17.1627 485.806 17.1627C492.254 17.1627 492.452 17.2619 493.742 17.3611C499.198 18.1548 503.365 22.0238 503.861 28.7699C503.96 29.6627 503.96 58.3334 503.861 59.2262C503.365 65.5754 499.694 69.1469 495.23 70.3373C493.544 70.7342 485.31 71.0318 476.976 71.0318C468.742 71.0318 460.508 70.8334 458.821 70.3373C448.107 67.5596 450.091 55.754 450.091 44.0477C450.091 29.8611 449.198 25.1984 453.464 20.8334C456.738 17.5596 460.111 17.0635 469.635 17.0635ZM469.635 15.9723C460.409 15.9723 456.341 16.3691 452.77 20.0397C448.901 24.008 449 28.0754 449.099 37.8969C449.099 39.6826 449.099 41.7659 449.099 43.9484C449.099 45.5357 449.099 47.2223 449 48.8096C448.702 59.0278 448.504 68.6508 458.524 71.2302C460.508 71.7262 469.635 71.9246 476.976 71.9246C484.317 71.9246 493.544 71.7262 495.528 71.2302C500.984 69.8413 504.456 65.377 504.952 59.127C505.052 58.1349 505.052 29.5635 504.952 28.5715C504.456 21.7262 500.29 17.0635 493.94 16.1707H493.841C492.552 15.9723 492.254 15.9723 485.806 15.9723H485.409C481.639 15.9723 478.464 15.9723 475.587 15.873C473.405 15.9723 471.421 15.9723 469.635 15.9723Z" fill="#35414D"/>
<path d="M481.143 64.385C480.448 64.385 479.754 64.385 479.159 64.385C478.464 64.385 477.77 64.385 477.075 64.385C476.381 64.385 475.786 64.385 475.091 64.385C474.496 64.385 473.802 64.385 473.206 64.385C466.56 64.385 460.309 63.7897 457.73 57.1429C456.639 54.2659 456.639 50.0992 456.639 45.635V44.0477V42.0635C456.639 37.2024 456.639 33.7302 457.73 30.8532C460.309 24.2064 466.56 23.6111 473.206 23.6111C473.802 23.6111 476.381 23.6111 477.075 23.6111C477.869 23.6111 478.563 23.6111 479.357 23.6111C480.052 23.6111 480.746 23.6111 481.341 23.6111C486.5 23.6111 490.766 23.9088 493.94 27.0834C497.512 30.6548 497.512 35.3175 497.413 41.8651C497.413 42.5596 497.413 43.254 497.413 44.0477V46.0318C497.413 50.8929 497.413 54.3651 496.321 57.2421C493.742 63.8889 487.393 64.385 481.143 64.385ZM475.19 28.2738C462.393 28.2738 461.302 28.2738 461.302 44.0477C461.302 59.6231 461.401 59.8215 477.075 59.8215C477.869 59.8215 478.663 59.8215 479.456 59.8215C480.151 59.8215 480.944 59.8215 481.639 59.8215C487.988 59.8215 492.452 59.2262 492.75 52.0834C493.345 39.4842 493.147 33.0357 490.667 30.3572C488.98 28.5715 486.202 28.2738 481.341 28.2738C480.448 28.2738 479.556 28.2738 478.563 28.2738C477.472 28.2738 476.381 28.2738 475.19 28.2738C475.29 28.2738 475.29 28.2738 475.19 28.2738ZM477.075 54.7619C471.123 54.7619 466.361 49.9008 466.361 44.0477C466.361 38.0953 471.222 33.3334 477.075 33.3334C483.028 33.3334 487.79 38.1945 487.79 44.0477C487.79 49.9008 483.028 54.7619 477.075 54.7619ZM477.075 37.8969C475.19 37.8969 473.603 38.5913 472.512 39.7818C471.52 40.873 471.024 42.3611 471.024 43.9484C471.024 46.9246 472.909 50 477.075 50C478.96 50 480.548 49.3056 481.639 48.1151C482.631 47.0238 483.127 45.5357 483.127 43.9484C483.127 41.0715 481.242 37.8969 477.075 37.8969ZM487.69 36.3096C486.103 36.3096 484.813 35.0199 484.813 33.4326C484.813 31.8453 486.103 30.5556 487.69 30.5556C489.278 30.5556 490.567 31.8453 490.567 33.4326C490.567 35.0199 489.278 36.3096 487.69 36.3096Z" fill="white"/>
<path d="M481.341 24.1072C486.599 24.1072 490.567 24.4048 493.544 27.4802C497.313 31.2501 496.917 36.2104 496.917 43.9485C496.917 49.8016 497.115 53.7699 495.925 56.9445C493.444 63.2937 487.591 63.7897 481.242 63.7897C479.853 63.7897 478.563 63.7897 477.175 63.7897C475.885 63.7897 474.595 63.7897 473.306 63.7897C466.758 63.7897 460.806 63.2937 458.325 56.9445C457.135 53.8691 457.333 49.008 457.333 43.9485C457.333 38.0953 457.135 34.0278 458.325 30.9524C460.806 24.6032 466.659 24.1072 473.306 24.1072C474.595 24.1072 475.885 24.1072 477.175 24.1072C478.563 24.1072 479.952 24.1072 481.341 24.1072ZM475.29 27.6786C462.095 27.6786 460.806 27.9762 460.806 43.9485C460.806 59.7223 461.302 60.2183 477.075 60.2183C478.663 60.2183 480.151 60.2183 481.54 60.2183C488.087 60.2183 492.849 59.5239 493.147 51.9842C494.139 29.2659 492.651 27.6786 481.143 27.6786C479.456 27.6786 477.472 27.6786 475.29 27.6786ZM487.69 31.0516C488.98 31.0516 490.071 32.1429 490.071 33.4326C490.071 34.7223 488.98 35.8135 487.69 35.8135C486.401 35.8135 485.31 34.7223 485.31 33.4326C485.31 32.0437 486.302 31.0516 487.69 31.0516ZM477.075 33.8294C482.73 33.8294 487.294 38.3929 487.294 44.0477C487.294 49.7024 482.73 54.2659 477.075 54.2659C471.421 54.2659 466.857 49.7024 466.857 44.0477C466.857 38.3929 471.421 33.8294 477.075 33.8294ZM477.075 50.5953C485.806 50.5953 485.806 37.4009 477.075 37.4009C468.345 37.4009 468.345 50.5953 477.075 50.5953ZM481.341 23.0159C480.647 23.0159 480.052 23.0159 479.357 23.0159C478.663 23.0159 477.869 23.0159 477.075 23.0159C476.381 23.0159 475.786 23.0159 475.091 23.0159C474.496 23.0159 473.802 23.0159 473.206 23.0159C466.361 23.0159 460.012 23.6112 457.234 30.5556C456.044 33.5318 456.143 37.1032 456.143 41.9643C456.143 42.5596 456.143 43.254 456.143 43.9485C456.143 44.5437 456.143 45.0397 456.143 45.5358C456.143 50.0993 456.143 54.3651 457.234 57.2421C459.913 64.1866 466.361 64.7818 473.206 64.7818C473.802 64.7818 474.496 64.7818 475.091 64.7818C475.686 64.7818 476.381 64.7818 477.075 64.7818C477.77 64.7818 478.464 64.7818 479.159 64.7818C479.853 64.7818 480.548 64.7818 481.242 64.7818C487.69 64.7818 494.238 64.1866 497.016 57.2421C498.206 54.2659 498.107 50.6945 498.107 45.8334C498.107 45.2382 498.107 44.5437 498.107 43.8493C498.107 43.1548 498.107 42.3612 498.107 41.6667C498.107 35.0199 498.206 30.258 494.436 26.4882C490.964 23.3135 486.599 23.0159 481.341 23.0159ZM475.29 28.7699C476.381 28.7699 477.472 28.7699 478.464 28.7699C479.456 28.7699 480.349 28.7699 481.242 28.7699C486.004 28.7699 488.683 29.0675 490.171 30.6548C492.552 33.135 492.75 39.4842 492.155 51.9842C491.857 58.2342 488.683 59.2262 481.54 59.2262C480.845 59.2262 480.151 59.2262 479.357 59.2262C478.563 59.2262 477.77 59.2262 476.976 59.2262C461.798 59.2262 461.798 59.2262 461.798 44.0477C461.798 36.4088 462.095 32.4405 463.782 30.6548C465.468 28.8691 468.841 28.7699 475.29 28.7699ZM487.69 29.9604C485.806 29.9604 484.218 31.5477 484.218 33.4326C484.218 35.3175 485.806 36.9048 487.69 36.9048C489.575 36.9048 491.163 35.3175 491.163 33.4326C491.163 31.5477 489.575 29.9604 487.69 29.9604ZM477.075 32.7382C470.825 32.7382 465.766 37.7977 465.766 44.0477C465.766 50.2977 470.825 55.3572 477.075 55.3572C483.325 55.3572 488.385 50.2977 488.385 44.0477C488.385 37.7977 483.325 32.7382 477.075 32.7382ZM477.075 49.504C473.306 49.504 471.619 46.627 471.619 43.9485C471.619 42.4604 472.115 41.0715 473.008 40.0794C474 38.9882 475.389 38.3929 477.075 38.3929C478.762 38.3929 480.25 38.9882 481.143 40.0794C482.036 41.0715 482.532 42.4604 482.532 43.9485C482.532 46.627 480.845 49.504 477.075 49.504Z" fill="#35414D"/>
<path d="M367.452 7.63892C366.758 4.96034 364.675 2.87701 361.996 2.18257C357.135 0.892883 337.889 0.892883 337.889 0.892883C337.889 0.892883 318.643 0.892883 313.782 2.18257C311.202 2.87701 309.02 5.05955 308.325 7.63892C307.036 12.5 307.036 22.4207 307.036 22.4207C307.036 22.4207 307.036 32.4405 308.325 37.2024C309.02 39.881 311.103 41.9643 313.782 42.6588C318.643 43.9484 337.889 43.9484 337.889 43.9484C337.889 43.9484 357.135 43.9484 361.996 42.6588C364.675 41.9643 366.758 39.881 367.452 37.2024C368.742 32.3413 368.742 22.4207 368.742 22.4207C368.742 22.4207 368.742 12.4008 367.452 7.63892Z" fill="#FF0000" stroke="#35414D" stroke-width="1.7389" stroke-miterlimit="10"/>
<path d="M331.738 32.5397C331.54 32.5397 331.44 32.5397 331.341 32.4405C331.044 32.2421 330.944 32.0436 330.944 31.6468V13.1944C330.944 12.8968 331.143 12.5992 331.341 12.4008C331.44 12.3016 331.639 12.3016 331.738 12.3016C331.837 12.3016 332.036 12.3016 332.135 12.4008L348.206 21.627C348.504 21.8254 348.603 22.0238 348.603 22.4206C348.603 22.8174 348.405 23.0159 348.206 23.2143L332.135 32.4405C332.036 32.4405 331.936 32.5397 331.738 32.5397Z" fill="white"/>
<path d="M331.738 13.1944L347.81 22.4206L331.738 31.6468V13.1944ZM331.738 11.5079C331.44 11.5079 331.143 11.6071 330.845 11.7063C330.349 12.004 329.952 12.5992 329.952 13.1944V31.6468C329.952 32.2421 330.25 32.8373 330.845 33.1349C331.143 33.3333 331.44 33.3333 331.738 33.3333C332.036 33.3333 332.333 33.2341 332.631 33.1349L348.702 23.9087C349.198 23.6111 349.595 23.0159 349.595 22.4206C349.595 21.8254 349.298 21.2302 348.702 20.9325L332.631 11.7063C332.333 11.5079 332.036 11.5079 331.738 11.5079Z" fill="#35414D"/>
<path d="M116.659 211.806H99.7937C98.9008 211.806 98.1071 212.599 98.1071 213.492V247.222C98.1071 248.115 98.9008 248.909 99.7937 248.909H116.659C117.552 248.909 118.345 248.115 118.345 247.222V213.492C118.345 212.599 117.552 211.806 116.659 211.806Z" fill="#FFC107" stroke="#35414D" stroke-width="2.1737" stroke-miterlimit="10"/>
<path d="M99.7937 228.671H82.9286C82.0357 228.671 81.2421 229.464 81.2421 230.357V247.222C81.2421 248.115 82.0357 248.909 82.9286 248.909H99.7937C100.687 248.909 101.48 248.115 101.48 247.222V230.357C101.48 229.464 100.687 228.671 99.7937 228.671Z" fill="#FFC107" stroke="#35414D" stroke-width="2.1737" stroke-miterlimit="10"/>
<path d="M133.524 194.941H116.659C115.766 194.941 114.972 195.734 114.972 196.627V247.123C114.972 248.016 115.766 248.81 116.659 248.81H133.524C134.417 248.81 135.21 248.016 135.21 247.123V196.627C135.21 195.734 134.417 194.941 133.524 194.941Z" fill="#FFA000" stroke="#35414D" stroke-width="2.1737" stroke-miterlimit="10"/>
<path d="M165.071 141.865C156.44 165.873 129.952 178.373 105.944 169.742C81.9365 161.111 69.4365 134.623 78.0675 110.615C86.6984 86.6073 113.187 74.1073 137.194 82.7383C161.202 91.3692 173.702 117.857 165.071 141.865Z" fill="#FD646F"/>
<path d="M165.071 141.865C156.44 165.873 129.952 178.373 105.944 169.742C92.9484 165.079 83.2262 155.159 78.5635 143.155C83.8214 152.579 92.3532 160.318 103.365 164.286C127.373 172.917 153.861 160.417 162.492 136.409C166.46 125.397 165.964 113.889 161.996 103.869C168.246 115.079 169.833 128.77 165.071 141.865Z" fill="#FC4755"/>
<path d="M154.456 137.996C161.004 119.841 151.579 99.9008 133.425 93.3532C115.27 86.8056 95.3294 96.2302 88.7817 114.385C82.2341 132.54 91.6587 152.48 109.813 159.028C127.968 165.575 147.909 156.151 154.456 137.996Z" fill="#F5F5F5"/>
<path d="M154.456 137.996C147.909 156.151 127.968 165.575 109.813 159.028C99.6945 155.357 92.3532 147.619 88.881 138.294C92.8492 145.139 99.1984 150.694 107.234 153.571C125.389 160.119 145.329 150.694 151.877 132.54C154.754 124.504 154.556 116.071 151.778 108.631C156.738 117.262 158.028 127.877 154.456 137.996Z" fill="#E6E6E6"/>
<path d="M143.742 134.226C148.107 122.024 141.758 108.532 129.556 104.067C117.353 99.7024 103.861 106.052 99.3968 118.254C94.9325 130.456 101.381 143.948 113.583 148.413C125.885 152.778 139.377 146.429 143.742 134.226Z" fill="#FD646F"/>
<path d="M143.742 134.226C139.377 146.429 125.885 152.778 113.583 148.413C106.44 145.833 101.282 140.179 99.0992 133.433C101.778 137.698 105.845 141.071 111.004 142.857C123.206 147.222 136.698 140.873 141.163 128.671C142.948 123.611 142.948 118.254 141.46 113.492C145.23 119.444 146.321 127.083 143.742 134.226Z" fill="#FC4755"/>
<path d="M110.31 122.222C112.591 115.972 119.437 112.798 125.687 114.98C131.937 117.163 135.111 124.107 132.929 130.357C130.746 136.607 123.802 139.782 117.552 137.599C111.302 135.317 108.028 128.373 110.31 122.222Z" fill="#F5F5F5"/>
<path d="M157.7 155.169C155.915 157.351 154.03 159.336 151.947 161.22L143.812 153.185C145.994 151.399 147.879 149.415 149.566 147.133L157.7 155.169Z" fill="#FC4755"/>
<path d="M149.556 147.103C147.869 149.385 145.984 151.369 143.802 153.155L135.667 145.119C137.849 143.433 139.833 141.448 141.321 138.968L149.556 147.103Z" fill="#E6E6E6"/>
<path d="M141.351 139.008C139.763 141.389 137.878 143.472 135.696 145.159L127.263 136.826C129.744 135.536 131.728 133.353 132.72 130.476L141.351 139.008Z" fill="#FC4755"/>
<path d="M132.82 130.457C131.728 133.234 129.744 135.417 127.363 136.806L119.526 128.968C118.038 127.48 117.839 125 119.228 123.413C119.328 123.314 119.427 123.214 119.526 123.115C120.32 122.322 121.411 121.925 122.502 121.925C123.593 121.925 124.685 122.322 125.478 123.115L132.82 130.457Z" fill="#E6E6E6"/>
<path d="M191.042 108.272C191.34 108.47 191.34 108.867 191.042 109.065L185.288 111.843L181.717 113.53L171.995 118.093C171.4 118.391 170.606 118.391 170.011 117.994L159.991 112.438L170.804 107.379L174.376 105.692L181.023 102.617L191.042 108.272Z" fill="#50758D"/>
<path d="M185.221 111.806L181.649 113.492L170.737 107.441L174.308 105.754L185.221 111.806Z" fill="#2B597F"/>
<path d="M177.601 96.1408L171.053 99.117L167.482 100.704L156.768 105.665L158.851 94.2559C158.95 93.5615 159.446 92.9662 160.042 92.6686L169.764 88.1051L173.335 86.4186L179.288 83.6409C179.585 83.4424 179.982 83.7401 179.883 84.1369L177.601 96.1408Z" fill="#50758D"/>
<path d="M171.023 99.1073L167.452 100.695L169.734 87.9962L173.305 86.3097L171.023 99.1073Z" fill="#2B597F"/>
<path d="M187.036 98.8491C186.639 99.8412 185.944 100.734 184.853 101.23L124.139 129.901C122.155 130.794 119.873 130.099 118.782 128.313C118.682 128.214 118.682 128.115 118.583 127.917C118.087 126.825 118.087 125.734 118.385 124.742C118.782 123.75 119.476 122.857 120.567 122.361L181.282 93.6904C183.365 92.6983 185.845 93.5912 186.837 95.6745C186.936 95.7737 186.936 95.9721 187.036 96.0713C187.333 96.9642 187.333 97.9562 187.036 98.8491Z" fill="#918291"/>
<path d="M187.036 98.8491C186.639 99.8411 185.944 100.734 184.853 101.23L124.139 129.901C122.155 130.794 119.873 130.099 118.782 128.313L186.936 96.1705C187.333 96.9642 187.333 97.9562 187.036 98.8491Z" fill="#7A6E79"/>
<path d="M156.286 129.988C156.782 125.028 156.286 120.067 154.699 115.405" stroke="#35414D" stroke-width="2.7171" stroke-miterlimit="13.3333" stroke-linecap="round" stroke-linejoin="round"/>
<path d="M151.189 107.821C147.22 101.372 141.07 96.2136 133.331 93.4358C115.177 86.8882 95.2362 96.3128 88.6886 114.468C82.141 132.622 91.5656 152.563 109.72 159.11C127.875 165.658 147.816 156.233 154.363 138.079C154.462 137.781 154.562 137.483 154.661 137.186" stroke="#35414D" stroke-width="2.7171" stroke-miterlimit="13.3333" stroke-linecap="round" stroke-linejoin="round"/>
<path d="M144.442 120.452C145.533 124.817 145.434 129.579 143.747 134.242C139.382 146.444 125.89 152.793 113.588 148.428C105.453 145.551 99.6995 138.408 98.3106 130.174" stroke="#35414D" stroke-width="2.7171" stroke-miterlimit="13.3333" stroke-linecap="round" stroke-linejoin="round"/>
<path d="M98.3323 122.784C98.5308 121.295 98.9276 119.807 99.4236 118.319C103.789 106.018 117.281 99.6685 129.582 104.034C134.344 105.72 138.213 108.795 140.892 112.664" stroke="#35414D" stroke-width="2.7171" stroke-miterlimit="13.3333" stroke-linecap="round" stroke-linejoin="round"/>
<path d="M110.977 81.2077C119.409 79.2236 128.437 79.6204 137.167 82.6958C145.798 85.7712 152.941 91.1283 158.1 97.8743" stroke="#35414D" stroke-width="2.7171" stroke-miterlimit="13.3333" stroke-linecap="round" stroke-linejoin="round"/>
<path d="M166.692 116.153C168.577 124.387 168.18 133.216 165.105 141.847C156.474 165.855 129.986 178.355 105.978 169.724C81.97 161.093 69.47 134.605 78.101 110.597C82.6645 97.7995 92.3867 88.1765 104.093 83.4146" stroke="#35414D" stroke-width="2.7171" stroke-miterlimit="13.3333" stroke-linecap="round" stroke-linejoin="round"/>
<path d="M133.553 125.348C133.652 126.935 133.454 128.622 132.859 130.209C130.577 136.459 123.732 139.634 117.482 137.451C111.232 135.17 108.057 128.324 110.24 122.074C112.422 115.824 119.367 112.65 125.617 114.832C127.303 115.428 128.89 116.42 130.081 117.61" stroke="#35414D" stroke-width="2.7171" stroke-miterlimit="13.3333" stroke-linecap="round" stroke-linejoin="round"/>
<path d="M120.594 122.266L181.309 93.5956C183.392 92.6035 185.872 93.4964 186.864 95.5797C187.856 97.663 186.963 100.143 184.88 101.135L124.166 129.806C122.083 130.798 119.602 129.905 118.61 127.822C117.618 125.738 118.511 123.258 120.594 122.266Z" stroke="#35414D" stroke-width="2.7171" stroke-miterlimit="13.3333" stroke-linecap="round" stroke-linejoin="round"/>
<path d="M169.497 98.8126L171.58 87.5031" stroke="#35414D" stroke-width="2.7171" stroke-miterlimit="13.3333" stroke-linecap="round" stroke-linejoin="round"/>
<path d="M177.73 95.2685L180.012 83.2645L159.079 93.1852L156.897 105.09" stroke="#35414D" stroke-width="2.7171" stroke-miterlimit="13.3333" stroke-linecap="round" stroke-linejoin="round"/>
<path d="M173.315 106.899L183.335 112.454" stroke="#35414D" stroke-width="2.7171" stroke-miterlimit="13.3333" stroke-linecap="round" stroke-linejoin="round"/>
<path d="M181.33 102.789L191.747 108.642L170.914 118.563L160.398 112.71" stroke="#35414D" stroke-width="2.7171" stroke-miterlimit="13.3333" stroke-linecap="round" stroke-linejoin="round"/>
<path d="M200.984 229.266L218.048 246.329C220.032 248.313 223.206 248.313 225.091 246.329C227.075 244.345 227.075 241.171 225.091 239.286L208.127 222.222L200.984 229.266Z" fill="#EC5664"/>
<path d="M216.659 220.833L209.516 227.976C204.952 232.54 197.611 232.441 193.147 227.976C188.583 223.413 188.683 216.071 193.147 211.607L200.29 204.464L216.659 220.833Z" fill="#87828E"/>
<path d="M222.611 162.897L258.127 198.512C259.417 199.802 258.722 202.083 256.837 202.381C240.567 204.563 231.54 205.853 219.833 217.56L216.659 220.734L200.29 204.365L203.464 201.19C215.27 189.484 216.46 180.456 218.742 164.187C219.04 162.302 221.321 161.607 222.611 162.897Z" fill="#EC5664"/>
<path d="M214.278 223.115L209.516 227.877C204.952 232.44 197.611 232.341 193.147 227.877C190.865 225.595 189.774 222.619 189.774 219.643C189.774 216.667 190.865 213.691 193.147 211.409L197.909 206.647C195.627 208.929 194.536 211.905 194.536 214.881C194.536 217.857 195.627 220.833 197.909 223.115C202.373 227.679 209.714 227.679 214.278 223.115Z" fill="#A4A4A5"/>
<path d="M222.611 162.897L258.127 198.611C259.417 199.901 258.722 202.183 256.837 202.48C255.548 202.679 254.258 202.877 252.968 202.976L218.147 168.056C218.345 166.865 218.544 165.575 218.643 164.187C219.04 162.302 221.321 161.607 222.611 162.897Z" fill="#C63D4F"/>
<path d="M275.687 239.881C289.603 239.881 300.885 228.599 300.885 214.683C300.885 200.766 289.603 189.484 275.687 189.484C261.77 189.484 250.488 200.766 250.488 214.683C250.488 228.599 261.77 239.881 275.687 239.881Z" fill="#FFCF66"/>
<path d="M286.5 237.5C285.31 238.095 284.02 238.591 282.73 238.889C269.337 242.758 255.349 235.02 251.48 221.627C247.611 208.234 255.349 194.246 268.742 190.377C270.032 189.98 271.421 189.683 272.71 189.583C261.698 194.742 255.746 207.341 259.218 219.345C262.79 231.448 274.496 238.988 286.5 237.5Z" fill="#E8BA5D"/>
<path d="M299.992 207.639C303.861 221.032 296.123 235.02 282.73 238.889C281.44 239.286 280.052 239.583 278.762 239.683C289.774 234.524 295.726 221.925 292.254 209.821C288.782 197.718 277.075 190.278 264.972 191.766C266.163 191.171 267.452 190.675 268.742 190.377C282.135 186.508 296.123 194.246 299.992 207.639Z" fill="#E8BA5D"/>
<path d="M276.282 153.274C287.678 153.274 296.917 144.035 296.917 132.639C296.917 121.243 287.678 112.004 276.282 112.004C264.885 112.004 255.647 121.243 255.647 132.639C255.647 144.035 264.885 153.274 276.282 153.274Z" fill="#FFCF66"/>
<path d="M285.111 151.29C284.119 151.786 283.127 152.183 282.036 152.48C271.024 155.655 259.615 149.306 256.44 138.393C253.266 127.381 259.615 115.972 270.528 112.798C271.619 112.5 272.71 112.302 273.802 112.103C264.774 116.369 259.913 126.587 262.79 136.508C265.667 146.329 275.19 152.48 285.111 151.29Z" fill="#EFBC62"/>
<path d="M296.123 126.885C299.298 137.897 292.948 149.306 282.036 152.48C280.944 152.778 279.853 152.976 278.762 153.175C287.79 148.909 292.651 138.591 289.774 128.77C286.897 118.849 277.373 112.798 267.452 113.988C268.444 113.492 269.437 113.095 270.528 112.798C281.54 109.524 292.948 115.873 296.123 126.885Z" fill="#E8BA5D"/>
<path d="M252.175 170.139C251.877 170.139 251.579 170.04 251.381 169.841C250.984 169.444 250.984 168.75 251.381 168.353L260.607 159.127C260.806 158.929 261.103 158.829 261.401 158.829C261.698 158.829 261.897 158.929 262.095 159.127C262.492 159.524 262.492 160.218 262.095 160.615L252.869 169.841C252.671 170.04 252.373 170.139 252.175 170.139Z" fill="#35414D" stroke="#35414D" stroke-width="1.0868" stroke-miterlimit="10"/>
<path d="M243.544 161.508C243.444 161.508 243.345 161.508 243.147 161.409C242.552 161.21 242.353 160.615 242.552 160.02L247.313 146.329C247.413 145.933 247.909 145.635 248.306 145.635C248.405 145.635 248.504 145.635 248.702 145.734C249 145.833 249.198 146.032 249.298 146.23C249.397 146.528 249.397 146.726 249.298 147.024L244.536 160.714C244.337 161.21 243.94 161.508 243.544 161.508Z" fill="#35414D" stroke="#35414D" stroke-width="1.0868" stroke-miterlimit="10"/>
<path d="M260.706 178.77C260.21 178.77 259.813 178.472 259.714 178.075C259.516 177.48 259.813 176.885 260.409 176.687L274.099 171.925C274.198 171.925 274.298 171.825 274.397 171.825C274.893 171.825 275.29 172.123 275.389 172.52C275.587 173.115 275.29 173.71 274.694 173.909C274.595 173.909 261.302 178.571 260.905 178.671C260.905 178.77 260.806 178.77 260.706 178.77Z" fill="#35414D" stroke="#35414D" stroke-width="1.0868" stroke-miterlimit="10"/>
<path d="M224 202.282C218.345 205.556 214.873 209.325 214.675 209.524C213.881 210.417 213.98 211.706 214.774 212.5C215.667 213.294 216.956 213.194 217.75 212.401C217.75 212.401 220.925 208.929 226.083 205.952C227.075 205.357 227.472 204.067 226.877 203.075C226.282 202.083 224.992 201.687 224 202.282Z" fill="#35414D"/>
<path d="M232.532 198.611C232.234 198.71 232.036 198.81 231.738 198.81C230.647 199.206 229.952 200.397 230.349 201.488C230.647 202.579 231.837 203.175 232.929 202.877C232.929 202.877 233.127 202.778 233.623 202.679C234.714 202.381 235.409 201.19 235.111 200.099C234.813 199.008 233.623 198.313 232.532 198.611Z" fill="#35414D"/>
<path d="M221.619 248.909C220.032 248.909 218.444 248.314 217.353 247.123L202.472 232.143L201.877 232.341C201.877 232.341 201.679 232.441 201.282 232.441C199.496 232.441 195.429 231.647 192.452 228.671C187.492 223.71 187.492 215.675 192.452 210.814L195.23 208.036C212.492 190.873 214.278 189.087 217.75 164.187C218.048 162.302 219.635 161.31 221.024 161.31C221.917 161.31 222.71 161.706 223.405 162.302L257.135 196.23L257.929 195.536C260.905 192.758 264.476 190.774 268.444 189.583C270.825 188.889 273.306 188.591 275.687 188.591C287.294 188.591 297.71 196.429 300.984 207.639C305.052 221.528 296.917 236.21 283.028 240.179C280.647 240.873 278.167 241.171 275.786 241.171C264.179 241.171 253.762 233.333 250.488 222.123C249 216.865 249.099 211.31 250.984 206.052L251.579 204.365L249.794 204.663C231.54 207.441 225.984 213.194 220.131 219.147C218.742 220.536 217.254 222.024 215.667 223.413L213.782 225L216.262 225.298C217.056 225.397 217.849 225.496 218.544 225.595C220.032 225.794 221.222 225.893 222.214 225.893C224 225.893 225.29 225.397 226.48 224.206C226.679 224.008 226.976 223.909 227.274 223.909C227.571 223.909 227.77 224.008 228.067 224.206C228.464 224.603 228.464 225.298 228.067 225.694C226.48 227.282 224.694 227.976 222.313 227.976C221.222 227.976 220.131 227.877 218.94 227.679C218.544 227.579 218.048 227.579 217.651 227.48L214.675 227.183L226.083 238.591C228.464 240.972 228.464 244.841 226.083 247.123C224.694 248.214 223.206 248.909 221.619 248.909ZM210.905 227.976C209.417 229.464 208.821 230.06 206.54 231.25L205.151 231.944L218.841 245.635C219.635 246.429 220.627 246.825 221.619 246.825C222.71 246.825 223.702 246.429 224.397 245.635C225.19 244.941 225.587 243.948 225.587 242.857C225.587 241.766 225.19 240.774 224.397 240.079L211.599 227.282L210.905 227.976ZM275.687 190.476C273.405 190.476 271.222 190.774 268.94 191.468C262.69 193.254 257.631 197.321 254.456 203.075C251.381 208.73 250.587 215.278 252.373 221.429C255.349 231.746 264.873 238.889 275.587 238.889C277.869 238.889 280.052 238.591 282.333 237.897C295.131 234.226 302.571 220.734 298.901 207.937C296.024 197.619 286.401 190.476 275.687 190.476ZM193.841 212.202C191.857 214.187 190.766 216.865 190.766 219.643C190.766 222.421 191.857 225.099 193.841 227.083C195.825 229.067 198.504 230.159 201.282 230.159C204.06 230.159 206.738 229.067 208.722 227.083L215.071 220.734L200.19 205.853L193.841 212.202ZM220.627 163.393C220.131 163.591 219.833 163.988 219.734 164.484C217.056 183.929 215.567 190.675 202.472 203.671L201.679 204.464L216.56 219.444L217.353 218.651C229.159 206.944 235.706 204.464 252.175 202.083L252.671 201.984L252.968 201.488C253.563 200.397 254.357 199.306 255.052 198.413L255.647 197.619L221.52 163.393H221.024H220.825H220.627Z" fill="#35414D" stroke="#35414D" stroke-width="1.0868" stroke-miterlimit="10"/>
<path d="M276.282 154.365C266.659 154.365 258.028 147.917 255.349 138.69C252.075 127.183 258.722 115.079 270.23 111.806C272.214 111.21 274.198 110.913 276.282 110.913C285.905 110.913 294.536 117.361 297.214 126.587C298.802 132.143 298.206 137.996 295.329 143.155C292.552 148.214 287.889 151.885 282.333 153.571C280.349 154.067 278.266 154.365 276.282 154.365ZM276.282 112.996C274.496 112.996 272.611 113.294 270.825 113.79C265.766 115.278 261.599 118.552 259.119 123.115C256.639 127.679 255.944 133.036 257.433 137.996C259.813 146.329 267.552 152.183 276.282 152.183C278.067 152.183 279.952 151.885 281.738 151.389C286.798 149.901 290.964 146.627 293.444 142.064C296.024 137.5 296.619 132.143 295.131 127.183C292.75 118.849 284.913 112.996 276.282 112.996Z" fill="#35414D" stroke="#35414D" stroke-width="1.0868" stroke-miterlimit="10"/>
<path d="M276.778 216.568C273.107 217.659 269.238 215.675 268.147 212.004C267.056 208.333 269.04 204.464 272.71 203.373C276.381 202.282 280.25 204.266 281.341 207.937C281.639 208.929 281.143 209.921 280.151 210.218C279.159 210.516 278.167 210.02 277.869 209.028C277.373 207.242 275.488 206.25 273.702 206.845C271.917 207.441 270.925 209.226 271.52 211.012C272.115 212.798 273.901 213.79 275.687 213.195C276.679 212.897 277.671 213.393 277.968 214.385C278.266 215.278 277.77 216.27 276.778 216.568Z" fill="#35414D"/>
<path d="M279.853 226.389C276.183 227.48 272.313 225.496 271.222 221.825C270.925 220.833 271.421 219.841 272.413 219.544C273.405 219.246 274.397 219.742 274.694 220.734C275.19 222.52 277.075 223.512 278.861 222.917C280.647 222.321 281.639 220.536 281.044 218.75C280.448 216.964 278.663 215.972 276.877 216.568C275.885 216.865 274.893 216.369 274.595 215.377C274.298 214.385 274.794 213.393 275.786 213.095C279.456 212.004 283.325 213.988 284.417 217.659C285.508 221.329 283.524 225.298 279.853 226.389Z" fill="#35414D"/>
<path d="M273.802 206.845C272.81 207.143 271.817 206.647 271.52 205.655L270.528 202.579C270.23 201.587 270.726 200.595 271.718 200.298C272.71 200 273.702 200.496 274 201.488L274.992 204.564C275.19 205.456 274.694 206.548 273.802 206.845Z" fill="#35414D"/>
<path d="M280.746 229.266C279.754 229.564 278.762 229.068 278.464 228.075L277.571 225.198C277.274 224.206 277.77 223.214 278.762 222.917C279.754 222.619 280.746 223.115 281.044 224.107L281.937 226.984C282.234 227.976 281.639 228.968 280.746 229.266Z" fill="#35414D"/>
<path d="M276.778 134.325C273.504 135.317 269.933 133.532 268.94 130.159C267.948 126.885 269.734 123.313 273.107 122.321C276.381 121.329 279.952 123.115 280.944 126.488C281.242 127.381 280.746 128.274 279.853 128.571C278.96 128.869 278.067 128.373 277.77 127.48C277.274 125.893 275.587 125 274 125.496C272.413 125.992 271.52 127.679 272.016 129.266C272.512 130.853 274.198 131.746 275.786 131.25C276.679 130.952 277.571 131.448 277.869 132.341C278.067 133.135 277.571 134.028 276.778 134.325Z" fill="#35414D"/>
<path d="M279.556 143.155C276.282 144.147 272.71 142.361 271.718 138.988C271.421 138.095 271.917 137.202 272.81 136.905C273.702 136.607 274.595 137.103 274.893 137.996C275.389 139.583 277.075 140.476 278.663 139.98C280.25 139.484 281.143 137.798 280.647 136.21C280.151 134.623 278.464 133.73 276.877 134.226C275.984 134.524 275.091 134.028 274.794 133.135C274.496 132.242 274.992 131.349 275.885 131.052C279.159 130.06 282.73 131.845 283.722 135.218C284.714 138.591 282.829 142.163 279.556 143.155Z" fill="#35414D"/>
<path d="M274 125.397C273.107 125.694 272.214 125.198 271.917 124.306L271.024 121.528C270.726 120.635 271.222 119.742 272.115 119.444C273.008 119.147 273.901 119.643 274.198 120.536L275.091 123.313C275.29 124.206 274.893 125.099 274 125.397Z" fill="#35414D"/>
<path d="M280.349 145.734C279.456 146.032 278.563 145.536 278.266 144.643L277.472 142.064C277.175 141.171 277.671 140.278 278.563 139.98C279.456 139.683 280.349 140.179 280.647 141.071L281.44 143.651C281.639 144.544 281.143 145.536 280.349 145.734Z" fill="#35414D"/>
<path d="M414.675 153.373H337.69C335.409 153.373 333.623 151.488 333.623 149.306V82.9365H418.841V149.306C418.742 151.587 416.956 153.373 414.675 153.373Z" fill="#E8EDF2"/>
<path d="M418.742 149.306V118.155H408.722V129.464C408.722 130.556 407.829 131.548 406.639 131.548H379.655V153.472H414.675C416.956 153.373 418.742 151.587 418.742 149.306Z" fill="#C5D3DD"/>
<path d="M406.639 131.448H345.627C344.536 131.448 343.544 130.556 343.544 129.365V96.4286C343.544 95.3373 344.437 94.3453 345.627 94.3453H406.639C407.73 94.3453 408.722 95.2381 408.722 96.4286V129.365C408.722 130.556 407.829 131.448 406.639 131.448Z" fill="#DD636E"/>
<path d="M348.008 129.365V96.4286C348.008 95.3373 348.901 94.3453 350.091 94.3453H345.726C344.635 94.3453 343.643 95.2381 343.643 96.4286V129.365C343.643 130.456 344.536 131.448 345.726 131.448H350.091C348.901 131.448 348.008 130.556 348.008 129.365Z" fill="#C63D4F"/>
<path d="M338.98 149.306V82.9365H333.623V149.306C333.623 151.587 335.508 153.373 337.69 153.373H343.048C340.766 153.373 338.98 151.488 338.98 149.306Z" fill="#C5D3DD"/>
<path d="M414.675 70.9326H337.69C335.409 70.9326 333.623 72.8175 333.623 75V85.4167H418.841V75C418.742 72.8175 416.956 70.9326 414.675 70.9326Z" fill="#90D8F9"/>
<path d="M343.147 70.9326H337.79C335.508 70.9326 333.722 72.8175 333.722 75V85.4167H339.079V75C338.98 72.8175 340.865 70.9326 343.147 70.9326Z" fill="#75CEF9"/>
<path d="M379.655 126.29V131.448H406.639C407.73 131.448 408.722 130.556 408.722 129.365V118.056H387.889C383.325 118.056 379.655 121.825 379.655 126.29Z" fill="#C63D4F"/>
<path d="M363.98 145.933V138.889C363.98 138.095 364.774 137.599 365.468 137.996L374.298 142.46L365.468 146.925C364.774 147.222 363.98 146.726 363.98 145.933Z" fill="#DD636E"/>
<path d="M371.619 121.23L384.813 113.889C385.508 113.492 385.508 112.5 384.813 112.103L371.619 104.762C370.925 104.365 370.131 104.861 370.131 105.655V120.437C370.131 121.032 370.925 121.528 371.619 121.23Z" fill="#E8EDF2"/>
<path d="M432.631 173.115H387.889C386.202 173.115 384.813 171.726 384.813 170.04V126.389C384.813 124.702 386.202 123.313 387.889 123.313H432.631C434.317 123.313 435.706 124.702 435.706 126.389V170.04C435.706 171.726 434.317 173.115 432.631 173.115Z" fill="#FFD064"/>
<path d="M389.179 170.04V126.389C389.179 124.702 390.567 123.313 392.254 123.313H387.79C386.103 123.313 384.714 124.702 384.714 126.389V170.04C384.714 171.726 386.103 173.115 387.79 173.115H392.254C390.567 173.115 389.179 171.726 389.179 170.04Z" fill="#EBB044"/>
<path d="M435.706 136.508H425.587C423.901 136.508 422.512 135.119 422.512 133.433V123.313H432.631C434.317 123.313 435.706 124.702 435.706 126.389V136.508Z" fill="#DD636E"/>
<path d="M377.671 151.885H337.69C336.302 151.885 335.111 150.694 335.111 149.306V120.437C335.111 119.544 334.417 118.849 333.524 118.849C332.631 118.849 331.937 119.544 331.937 120.437V149.306C331.937 152.381 334.516 154.96 337.591 154.96H377.571C378.464 154.96 379.159 154.266 379.159 153.373C379.258 152.579 378.563 151.885 377.671 151.885Z" fill="#35414D"/>
<path d="M333.623 113.492C334.516 113.492 335.21 112.798 335.21 111.905V87.004H394.139C395.032 87.004 395.726 86.3096 395.726 85.4167C395.726 84.5238 395.032 83.8294 394.139 83.8294H335.21V74.9008C335.21 73.5119 336.401 72.3215 337.79 72.3215H414.774C416.163 72.3215 417.353 73.5119 417.353 74.9008V83.8294H401.976C401.083 83.8294 400.389 84.5238 400.389 85.4167C400.389 86.3096 401.083 87.004 401.976 87.004H417.353V116.071C417.353 116.964 418.048 117.659 418.94 117.659C419.833 117.659 420.528 116.964 420.528 116.071V75C420.528 71.9246 417.948 69.3453 414.873 69.3453H337.889C334.813 69.3453 332.234 71.9246 332.234 75V111.905C332.036 112.798 332.73 113.492 333.623 113.492Z" fill="#35414D"/>
<path d="M341.361 77.1826C340.468 77.1826 339.774 77.877 339.774 78.7699C339.774 79.6627 340.468 80.3572 341.361 80.3572H342.948C343.841 80.3572 344.536 79.6627 344.536 78.7699C344.536 77.877 343.841 77.1826 342.948 77.1826H341.361Z" fill="#35414D"/>
<path d="M349 77.1826C348.107 77.1826 347.413 77.877 347.413 78.7699C347.413 79.6627 348.107 80.3572 349 80.3572H350.587C351.48 80.3572 352.175 79.6627 352.175 78.7699C352.175 77.877 351.48 77.1826 350.587 77.1826H349Z" fill="#35414D"/>
<path d="M356.738 77.1826C355.845 77.1826 355.151 77.877 355.151 78.7699C355.151 79.6627 355.845 80.3572 356.738 80.3572H358.325C359.218 80.3572 359.913 79.6627 359.913 78.7699C359.913 77.877 359.218 77.1826 358.325 77.1826H356.738Z" fill="#35414D"/>
<path d="M364.179 147.222C363.782 146.925 363.484 146.429 363.484 145.933V142.857H357.036C356.936 142.857 356.837 142.857 356.837 142.758C356.738 142.659 356.639 142.56 356.639 142.361C356.639 142.163 356.738 142.064 356.738 142.064C356.837 141.964 356.936 141.964 357.036 141.964H363.484V138.889C363.484 138.393 363.782 137.897 364.179 137.599C364.575 137.302 365.171 137.302 365.667 137.5L374.397 141.865H378.266C378.365 141.865 378.464 141.865 378.464 141.964C378.563 142.064 378.663 142.163 378.663 142.361C378.663 142.56 378.563 142.659 378.563 142.659C378.464 142.758 378.365 142.758 378.266 142.758H374.496L365.766 147.123C365.567 147.222 365.369 147.322 365.071 147.322C364.675 147.421 364.476 147.322 364.179 147.222ZM364.377 137.996V146.925L373.206 142.46L364.377 137.996Z" fill="#35414D"/>
<path d="M363.98 147.619C363.385 147.222 363.087 146.627 363.087 145.933V143.254H357.036C356.54 143.254 356.143 142.857 356.143 142.361C356.143 142.163 356.242 141.865 356.44 141.766C356.54 141.667 356.738 141.468 357.036 141.468H363.087V138.79C363.087 138.095 363.385 137.5 363.98 137.202C364.575 136.806 365.27 136.806 365.865 137.103L374.595 141.468H378.365C378.861 141.468 379.258 141.865 379.258 142.361C379.258 142.56 379.159 142.857 378.96 142.956C378.762 143.155 378.563 143.254 378.365 143.254H374.595L365.865 147.619C365.567 147.718 365.27 147.818 364.972 147.818C364.675 147.818 364.278 147.718 363.98 147.619ZM363.98 138.393C363.881 138.591 363.881 138.691 363.881 138.889V142.361H357.036V142.46H363.881V145.933C363.881 146.131 363.881 146.23 363.98 146.429V138.393ZM374.198 142.46L364.972 147.024C365.171 147.024 365.27 147.024 365.468 146.925L374.397 142.46H378.167V142.361L374.099 142.262L365.369 137.897C365.171 137.798 365.071 137.798 364.873 137.798L374.198 142.46ZM364.873 138.591V146.131L372.413 142.361L364.873 138.591Z" fill="#35414D"/>
<path d="M343.643 145.933C344.536 145.933 345.23 145.238 345.23 144.345V140.278C345.23 139.385 344.536 138.691 343.643 138.691C342.75 138.691 342.056 139.385 342.056 140.278V144.345C342.056 145.337 342.75 145.933 343.643 145.933Z" fill="#35414D"/>
<path d="M351.083 144.444V140.377C351.083 139.484 350.389 138.79 349.496 138.79C348.603 138.79 347.909 139.484 347.909 140.377V144.444C347.909 145.337 348.603 146.032 349.496 146.032C350.389 146.032 351.083 145.337 351.083 144.444Z" fill="#35414D"/>
<path d="M385.607 110.714L372.413 103.373C371.619 102.877 370.627 102.976 369.833 103.373C369.04 103.869 368.544 104.663 368.544 105.556V120.337C368.544 121.23 369.04 122.123 369.833 122.52C370.23 122.718 370.726 122.917 371.123 122.917C371.52 122.917 372.016 122.818 372.413 122.619L385.607 115.278C386.401 114.782 386.897 113.988 386.897 112.996C386.897 112.004 386.401 111.111 385.607 110.714ZM371.619 119.445V106.448L383.226 112.897L371.619 119.445Z" fill="#35414D"/>
<path d="M427.274 131.845C427.075 131.647 427.075 131.548 427.075 131.448C427.075 131.349 427.075 131.25 427.175 131.151L428.365 129.96L427.175 128.77C427.075 128.671 427.075 128.472 427.075 128.472C427.075 128.373 427.075 128.274 427.175 128.175C427.274 128.075 427.571 127.976 427.77 128.075C427.77 128.075 427.869 128.075 427.869 128.175L429.06 129.365L430.25 128.175C430.349 127.976 430.647 127.976 430.845 128.075C430.845 128.075 430.944 128.075 430.944 128.175C431.044 128.274 431.044 128.472 431.044 128.472C431.044 128.571 431.044 128.671 430.944 128.77L429.754 129.96L430.944 131.151C431.143 131.349 431.143 131.647 430.944 131.845C430.845 131.944 430.647 131.944 430.647 131.944C430.548 131.944 430.448 131.944 430.448 131.845C430.448 131.845 430.349 131.845 430.349 131.746L429.159 130.556L427.968 131.746C427.869 131.845 427.671 131.845 427.671 131.845C427.472 131.944 427.373 131.845 427.274 131.845Z" fill="#35414D"/>
<path d="M391.46 155.556C391.659 155.655 391.857 155.655 392.056 155.655C392.651 155.655 393.246 155.258 393.544 154.663L394.337 152.679H399.496L400.19 154.663C400.488 155.456 401.381 155.853 402.175 155.556C402.968 155.258 403.365 154.365 403.067 153.571L398.603 141.667C398.306 140.972 397.71 140.575 396.917 140.575C396.222 140.575 395.528 140.972 395.23 141.667L390.667 153.571C390.27 154.365 390.667 155.258 391.46 155.556ZM396.718 145.933L398.107 149.603H395.329L396.718 145.933Z" fill="#35414D"/>
<path d="M405.944 154.067C405.944 154.464 406.143 154.762 406.44 155.06C406.738 155.357 407.135 155.556 407.532 155.556C407.631 155.556 410.012 155.556 410.905 155.556C414.476 155.456 417.056 152.381 417.056 148.214C417.056 143.75 414.575 140.774 410.806 140.774H407.532C407.135 140.774 406.738 140.972 406.44 141.27C406.143 141.567 405.944 141.964 405.944 142.361C405.944 142.262 405.944 153.968 405.944 154.067ZM410.806 143.849C413.782 143.849 413.98 147.123 413.98 148.115C413.98 150.198 412.988 152.381 410.905 152.381C410.508 152.381 409.714 152.381 409.119 152.381C409.119 150.992 409.119 145.238 409.119 143.75L410.806 143.849Z" fill="#35414D"/>
<path d="M424.893 152.579C423.702 152.579 422.512 152.083 421.817 151.29C421.222 150.695 420.23 150.595 419.635 151.191C419.04 151.786 418.94 152.778 419.536 153.373C420.825 154.762 422.81 155.655 424.893 155.655C427.472 155.655 429.556 154.068 429.952 151.786C430.25 150.099 429.456 147.917 426.381 146.726C424.893 146.23 423.504 145.635 423.107 145.437C422.81 145.139 422.81 144.841 422.81 144.643C422.81 144.445 423.008 143.948 423.702 143.75C425.389 143.254 426.976 144.445 426.976 144.544C427.671 145.04 428.564 145.04 429.159 144.345C429.754 143.651 429.655 142.758 428.96 142.163C428.861 142.064 426.083 139.782 422.81 140.774C421.123 141.27 419.933 142.56 419.734 144.246C419.536 145.734 420.131 147.222 421.421 148.115C421.52 148.115 421.52 148.214 421.619 148.214C421.718 148.214 423.306 149.008 425.19 149.702C425.687 149.901 426.877 150.397 426.778 151.29C426.877 151.984 426.083 152.579 424.893 152.579Z" fill="#35414D"/>
<path d="M432.631 121.726H422.512H410.31V96.5278C410.31 94.5437 408.722 92.9564 406.738 92.9564H345.726C343.742 92.9564 342.155 94.5437 342.155 96.5278V129.464C342.155 131.448 343.742 133.036 345.726 133.036H383.325V170.04C383.325 172.619 385.409 174.702 387.988 174.702H432.73C435.31 174.702 437.393 172.619 437.393 170.04V151.19C437.393 150.298 436.698 149.603 435.806 149.603C434.913 149.603 434.218 150.298 434.218 151.19V170.04C434.218 170.933 433.524 171.627 432.631 171.627H387.889C386.996 171.627 386.302 170.933 386.302 170.04V126.389C386.302 125.496 386.996 124.802 387.889 124.802H421.024V133.433C421.024 136.012 423.107 138.095 425.687 138.095H434.317V143.948C434.317 144.841 435.012 145.536 435.905 145.536C436.798 145.536 437.492 144.841 437.492 143.948V136.607V126.488C437.294 123.81 435.21 121.726 432.631 121.726ZM383.226 126.29V129.861H345.627C345.329 129.861 345.131 129.663 345.131 129.365V96.4286C345.131 96.131 345.329 95.9326 345.627 95.9326H406.639C406.937 95.9326 407.135 96.131 407.135 96.4286V121.627H387.79C385.31 121.726 383.226 123.81 383.226 126.29ZM425.587 134.921C424.694 134.921 424 134.226 424 133.333V124.702H432.631C433.524 124.702 434.218 125.397 434.218 126.29V134.921H425.587Z" fill="#35414D"/>
<path d="M428.563 158.631H391.956C391.063 158.631 390.369 159.325 390.369 160.218C390.369 161.111 391.063 161.806 391.956 161.806H428.563C429.456 161.806 430.151 161.111 430.151 160.218C430.052 159.325 429.357 158.631 428.563 158.631Z" fill="#35414D"/>
<path d="M428.563 164.98H391.956C391.063 164.98 390.369 165.675 390.369 166.568C390.369 167.46 391.063 168.155 391.956 168.155H428.563C429.456 168.155 430.151 167.46 430.151 166.568C430.052 165.675 429.357 164.98 428.563 164.98Z" fill="#35414D"/>
</g>
<defs>
<linearGradient id="paint0_linear_831_112203" x1="453.353" y1="67.7836" x2="504.123" y2="23.8438" gradientUnits="userSpaceOnUse">
<stop stop-color="#FFDD55"/>
<stop offset="0.5" stop-color="#FF543E"/>
<stop offset="1" stop-color="#C837AB"/>
</linearGradient>
<clipPath id="clip0_831_112203">
<rect width="451.19" height="250" fill="white" transform="translate(74)"/>
</clipPath>
</defs>
</svg>
