<?xml version="1.0" encoding="utf-8"?>
<!-- Generator: Adobe Illustrator 25.0.0, SVG Export Plug-In . SVG Version: 6.00 Build 0)  -->
<svg version="1.1" id="Layer_1" xmlns="http://www.w3.org/2000/svg" xmlns:xlink="http://www.w3.org/1999/xlink" x="0px" y="0px"
	 viewBox="0 0 416 430" style="enable-background:new 0 0 416 430;" xml:space="preserve">
<style type="text/css">
	.st0{fill:#EFEFEF;}
	.st1{fill:#FFDC8D;}
	.st2{fill:#E8C57E;}
	.st3{fill:#CCCCCC;}
	.st4{fill:#78CAEF;}
	.st5{fill:#756E75;}
	.st6{fill:#595259;}
	.st7{fill:#35414D;}
</style>
<g>
	<g>
		<path class="st0" d="M129.5,103.5l14.4-7.7c7.1-3.8,15.9-1.1,19.6,6c1.9,3.5,2.2,7.5,1.1,11.1c-1.1,3.6-3.5,6.7-7,8.6l-9.9,5.3"/>
		<path class="st0" d="M147.7,126.7l9.9-5.3c7.1-3.8,15.9-1.1,19.6,6c1.9,3.5,2.2,7.5,1.1,11.1c-1.1,3.6-3.5,6.7-7,8.6l-7.9,4.2"/>
		<path class="st1" d="M81.3,236.7l-33.7-63.2c-14.3-26.9-4.2-60.3,22.7-74.7l0,0c26.9-14.3,60.3-4.2,74.7,22.7l13.2,24.7l62.7,60.7
			l-23.6,12.6l7.1,13.4c13.9,26,4,58.4-22,72.3l-1.6,0.8c-26.9,14.3-60.3,4.2-74.7-22.7l-6.4-11.9"/>
		<path class="st2" d="M121.5,275.1l-6.4-11.9l-18.4-34.6l-33.7-63.2C50,141,57,111.4,78.3,95.3c-2.7,0.9-5.4,2.1-8,3.5l0,0
			c-26.9,14.3-37.1,47.8-22.7,74.7l33.7,63.2l18.4,34.6l6.4,11.9c14.3,26.9,47.8,37.1,74.7,22.7l1.6-0.8c2.3-1.2,4.5-2.6,6.6-4.2
			C163.5,310.2,134.5,299.6,121.5,275.1z"/>
		<path class="st2" d="M94.8,236c-10.4-3.2-21.4,2.7-24.5,13.1c-3.2,10.4,2.7,21.4,13.1,24.5c10.4,3.2,21.4-2.7,24.5-13.1"/>
		<path class="st0" d="M239.9,400.9c0,4.9-1.4,12.9-3.2,22.7H116.4c-1-9.6-1.5-17.4-1.5-22.7c0-45.1,11-81.6,56.1-81.6
			C216.1,319.3,239.9,355.8,239.9,400.9z"/>
		<path class="st3" d="M184.8,320.5c-4.3-0.8-8.9-1.2-13.8-1.2c-45.1,0-56.1,36.5-56.1,81.6c0,5.3,0.5,13.1,1.5,22.7h27.1
			c-1-9.6-1.5-17.4-1.5-22.7C142.1,360.7,150.8,327.2,184.8,320.5z"/>
		<circle class="st4" cx="147.7" cy="199" r="22.6"/>
		<path class="st0" d="M63.6,138.6L14.1,165c-7.1,3.8-9.8,12.6-6,19.6l0,0c3.8,7.1,12.6,9.8,19.6,6l49.5-26.4"/>
		<g>
			<path class="st0" d="M77.3,164.2l-42,22.4c-7.1,3.8-9.8,12.6-6,19.6l0,0c3.8,7.1,12.6,9.8,19.6,6l42-22.4"/>
		</g>
		<g>
			
				<rect x="211.4" y="102.5" transform="matrix(0.8058 -0.5922 0.5922 0.8058 -20.447 181.2021)" class="st5" width="109.4" height="38.6"/>
			
				<rect x="217.1" y="119.9" transform="matrix(0.8058 -0.5922 0.5922 0.8058 -23.9446 186.1008)" class="st6" width="109.4" height="19.3"/>
			
				<rect x="207" y="128.6" transform="matrix(0.8058 -0.5922 0.5922 0.8058 -49.0193 160.8)" class="st5" width="27.4" height="53.1"/>
			
				<rect x="216.7" y="158.4" transform="matrix(0.8058 -0.5922 0.5922 0.8058 -54.9927 169.1648)" class="st6" width="27.4" height="20.1"/>
			
				<rect x="289.2" y="35.6" transform="matrix(0.8058 -0.5922 0.5922 0.8058 30.6184 217.6671)" class="st5" width="116" height="53.1"/>
			
				<rect x="299.2" y="66.1" transform="matrix(0.8058 -0.5922 0.5922 0.8058 24.4994 226.2366)" class="st6" width="116" height="19.3"/>
		</g>
	</g>
	<g>
		<path class="st7" d="M164.8,266c10.1,0,19.9-4.9,25.8-14c1.9-3,1.1-6.9-1.9-8.8c-3-1.9-6.9-1.1-8.8,1.9
			c-5.3,8.3-16.4,10.7-24.7,5.3c-3-1.9-6.9-1.1-8.8,1.9c-1.9,3-1.1,6.9,1.9,8.8C153.4,264.4,159.1,266,164.8,266z"/>
		<path class="st7" d="M230.6,356.1c-3.3,1.3-4.9,5-3.6,8.3c4.3,10.8,6.5,23.1,6.5,36.5c0,3.7-1,9.9-2.1,16.4H122.2
			c-0.6-6.8-0.9-12.4-0.9-16.4c0-3.5-2.9-6.4-6.4-6.4s-6.4,2.9-6.4,6.4c0,5.6,0.5,13.4,1.5,23.4c0.3,3.3,3.1,5.7,6.3,5.7h120.2
			c3.1,0,5.7-2.2,6.3-5.2c2-10.5,3.3-18.5,3.3-23.9c0-15-2.5-28.9-7.3-41.2C237.6,356.4,233.9,354.8,230.6,356.1z"/>
		<path class="st7" d="M144.5,318c-7.6,3.3-13.9,8.2-19.1,14.8c-8.7,11.1-14,26.5-16,47.1c-0.3,3.5,2.2,6.6,5.7,7c0.2,0,0.4,0,0.6,0
			c3.2,0,6-2.5,6.3-5.8c1.7-18.1,6.1-31.4,13.3-40.4c8-10.1,19.6-15,35.6-15c14.8,0,27.4,4.2,37.6,12.5c2.7,2.2,6.7,1.8,9-0.9
			c2.2-2.7,1.8-6.7-0.9-9c-10.3-8.4-22.6-13.4-36.5-14.9c1.2-0.6,2.4-1.2,3.7-1.8l1.6-0.8c14.1-7.5,24.4-20.1,29.1-35.3
			c4.7-15.3,3.1-31.5-4.4-45.5l-4.1-7.7l18-9.6c1.8-1,3-2.7,3.3-4.7c0.3-2-0.4-4.1-1.9-5.5L174,152.8l0.2-0.1
			c4.9-2.6,8.5-7,10.1-12.3c1.6-5.3,1.1-11-1.5-15.9c-2.7-5-7-8.4-12-10c1.5-5.2,0.9-10.8-1.6-15.6c-5.4-10.2-18.1-14-28.3-8.6
			L130,96c-4.8-3.1-10.1-5.6-15.8-7.4c-15.7-4.8-32.4-3.2-46.9,4.6c-19.8,10.6-32.3,31.3-32.6,53.6l-23.6,12.6
			c-4.9,2.6-8.5,7-10.2,12.4c-1.6,5.3-1.1,11,1.6,15.9c3.8,7,11,11.1,18.5,11.1c0.1,0,0.2,0,0.3,0c-0.1,3.6,0.6,7.2,2.4,10.6
			c2.6,4.9,7,8.5,12.4,10.2c2,0.6,4.1,0.9,6.1,0.9c3.4,0,6.7-0.8,9.8-2.5l42-22.4c3.1-1.7,4.3-5.5,2.6-8.6c-1.7-3.1-5.5-4.3-8.6-2.6
			l-42,22.4c-1.9,1-4.1,1.2-6.2,0.6c-2.1-0.6-3.8-2-4.8-4c-2.1-4-0.6-8.9,3.3-11l42-22.4c0.2-0.1,0.4-0.2,0.6-0.3
			c1.8-1.2,2.8-3.2,2.8-5.2c0-1-0.2-2.1-0.8-3c-1.7-3.1-5.5-4.3-8.6-2.6l-42,22.4c0,0,0,0,0,0l-7.5,4c-1.9,1-4.1,1.2-6.2,0.6
			c-2.1-0.6-3.8-2-4.8-4c-1-1.9-1.2-4.1-0.6-6.2c0.6-2.1,2-3.8,4-4.8l49.5-26.4c3.1-1.7,4.3-5.5,2.6-8.6c-1.7-3.1-5.5-4.3-8.6-2.6
			l-12.5,6.7c2.5-14.8,11.7-28,25.2-35.2c11.5-6.1,24.7-7.4,37.2-3.6c12.5,3.8,22.7,12.2,28.9,23.7l13.2,24.7
			c0.3,0.6,0.7,1.1,1.2,1.6l24.1,23.3l-8.4,5.5c-8.7-9.7-23.3-12.7-35.3-6.3c-12.2,6.5-17.8,20.5-14.3,33.3l-15,8
			c-3.1,1.7-4.3,5.5-2.6,8.6c1.1,2.2,3.4,3.4,5.6,3.4c1,0,2-0.2,3-0.8l15-8c3.5,4.1,8.2,7.2,13.5,8.8c2.8,0.9,5.7,1.3,8.5,1.3
			c4.7,0,9.4-1.2,13.6-3.4c12.3-6.6,18-20.9,14.2-33.8l11.6-7.6l22.9,22.2l-15.9,8.5c-1.5,0.8-2.6,2.2-3.1,3.8
			c-0.5,1.6-0.3,3.4,0.5,4.9l7.1,13.4c5.9,11.1,7.2,23.8,3.5,35.8c-3.7,12-11.8,21.9-22.9,27.8l-1.6,0.8
			c-23.8,12.7-53.4,3.6-66-20.1l-3.9-7.4c2.8-2.9,5-6.4,6.2-10.5c1-3.4-0.9-6.9-4.2-8c-3.4-1-6.9,0.9-8,4.2c-2.1,7-9.6,11-16.6,8.8
			c-3.4-1-6.2-3.3-7.9-6.5c-1.7-3.1-2-6.7-1-10.1c1-3.4,3.3-6.2,6.5-7.9c3.1-1.7,6.7-2,10.1-1c3.4,1,6.9-0.9,8-4.2
			c1-3.4-0.9-6.9-4.2-8c-4-1.2-8.2-1.5-12.2-0.7L78,217c-1.7-3.1-5.5-4.3-8.6-2.6c-3.1,1.7-4.3,5.5-2.6,8.6l6.1,11.4
			c-4.1,3.3-7.1,7.6-8.6,12.7c-2,6.7-1.3,13.7,1.9,19.8c3.3,6.1,8.7,10.6,15.4,12.7c2.5,0.8,5.1,1.1,7.6,1.1c2.7,0,5.3-0.4,7.8-1.2
			l3.5,6.7C109.8,303.7,126.4,314.9,144.5,318z M163.2,203.7c-1.3,4.2-4.1,7.6-7.9,9.6c-3.8,2-8.2,2.5-12.4,1.2
			c-4.2-1.3-7.6-4.1-9.6-7.9c0,0,0,0,0,0c0,0,0,0,0,0c-4.2-7.9-1.2-17.8,6.7-22c2.4-1.3,5-1.9,7.6-1.9c5.8,0,11.5,3.1,14.4,8.6
			C164.1,195.2,164.5,199.6,163.2,203.7z M172.1,136.6c-0.6,2.1-2,3.8-3.9,4.8l-3.8,2l-1.1-1.1l-7-13.1l4.2-2.3c0,0,0,0,0,0
			c4-2.1,8.9-0.6,11,3.4C172.6,132.3,172.8,134.5,172.1,136.6z M146.9,101.4c4-2.1,8.9-0.6,11,3.4c1,1.9,1.2,4.1,0.6,6.2
			c-0.6,2.1-2,3.8-3.9,4.8l-4.2,2.3c-2.7-4.9-5.9-9.3-9.7-13.3L146.9,101.4z"/>
		<path class="st7" d="M414.8,45.4L383.3,2.6c-2.1-2.8-6.1-3.4-8.9-1.4l-41.6,30.6c-2.8,2.1-3.4,6.1-1.4,8.9
			c2.1,2.8,6.1,3.4,8.9,1.4l36.5-26.8l23.9,32.5L317.5,109l-23.4-31.8c0,0,0,0,0,0c0,0,0,0,0,0l-0.5-0.7l29.7-21.9
			c2.8-2.1,3.4-6.1,1.4-8.9c-2.1-2.8-6.1-3.4-8.9-1.4L280.9,70c-1.4,1-2.3,2.5-2.5,4.2c-0.3,1.7,0.2,3.4,1.2,4.7l0.5,0.7l-58.5,43
			l-0.5-0.7c-1-1.4-2.5-2.3-4.2-2.5c-1.7-0.3-3.4,0.2-4.7,1.2l-22,16.2c-2.8,2.1-3.4,6.1-1.4,8.9l31.4,42.8c1.3,1.7,3.2,2.6,5.1,2.6
			c1.3,0,2.6-0.4,3.8-1.2l22-16.2c1.4-1,2.3-2.5,2.5-4.2c0.3-1.7-0.2-3.4-1.2-4.7l-0.5-0.7l10.7-7.9c2.8-2.1,3.4-6.1,1.4-8.9
			c-2.1-2.8-6.1-3.4-8.9-1.4l-10.7,7.9l-15.3-20.8l58.5-43l23.4,31.8c1.3,1.7,3.2,2.6,5.1,2.6c1.3,0,2.6-0.4,3.8-1.2l93.5-68.7
			c1.4-1,2.3-2.5,2.5-4.2S415.8,46.7,414.8,45.4z M226.7,175.7l-23.9-32.5l11.8-8.6l6.5,8.8l16.9,23c0,0,0,0,0,0l0.5,0.7
			L226.7,175.7z"/>
		<path class="st7" d="M305,123.1l-8.3-16c-1.6-3.1-5.5-4.4-8.6-2.7c-3.1,1.6-4.4,5.5-2.7,8.6l8.3,16c0.7,1.3,0.5,2.9-0.2,4
			l-11.5-21.7c-1.7-3.1-5.5-4.3-8.6-2.6c-3.1,1.7-4.3,5.5-2.6,8.6l12,22.5c-1.1,0.5-2.1,0.3-2.7,0.1c-0.6-0.2-1.8-0.7-2.4-2.1
			l-2.8-5.9c-1.5-3.2-5.3-4.5-8.5-3c-3.2,1.5-4.5,5.3-3,8.5l2.8,5.9c2,4.2,5.7,7.5,10.2,8.8c1.6,0.5,3.2,0.7,4.9,0.7
			c1.7,0,3.5-0.3,5.1-0.8c8.3,34.4,9.1,66.2,2.3,94.6c-6,25.1-18,47.8-35.6,67.4c-30.1,33.6-66.8,46.8-67.4,47
			c-3.3,1.2-5.1,4.8-3.9,8.1c0.9,2.6,3.4,4.3,6,4.3c0.7,0,1.4-0.1,2.1-0.4c1.6-0.6,39.9-14.2,72.4-50.1c19.1-21.2,32.2-45.8,38.8-73
			c7.6-31.5,6.6-66.5-3-104.3l0.9-0.5C306.2,140.7,309,131,305,123.1z"/>
		<path class="st7" d="M214.4,319.6c1.2,1.3,2.9,1.9,4.5,1.9c1.6,0,3.2-0.6,4.5-1.9c32.9-32.7,39.6-67.5,39.4-91
			c-0.2-25.5-8.2-43.2-8.5-43.9c-1.5-3.2-5.2-4.6-8.4-3.1c-3.2,1.5-4.6,5.2-3.2,8.4c0.1,0.2,7.3,16.3,7.4,39.2
			c0.1,30.4-11.9,57.7-35.7,81.3C211.9,313.1,211.9,317.1,214.4,319.6z"/>
		<path class="st7" d="M378.6,281.4h-14v-14c0-3.5-2.9-6.4-6.4-6.4c-3.5,0-6.4,2.9-6.4,6.4v14h-14c-3.5,0-6.4,2.9-6.4,6.4
			c0,3.5,2.9,6.4,6.4,6.4h14v14c0,3.5,2.9,6.4,6.4,6.4c3.5,0,6.4-2.9,6.4-6.4v-14h14c3.5,0,6.4-2.9,6.4-6.4
			C385,284.3,382.1,281.4,378.6,281.4z"/>
		<path class="st7" d="M182.2,62h14v14c0,3.5,2.9,6.4,6.4,6.4s6.4-2.9,6.4-6.4V62h14c3.5,0,6.4-2.9,6.4-6.4s-2.9-6.4-6.4-6.4h-14
			v-14c0-3.5-2.9-6.4-6.4-6.4s-6.4,2.9-6.4,6.4v14h-14c-3.5,0-6.4,2.9-6.4,6.4S178.6,62,182.2,62z"/>
		<path class="st7" d="M17.2,56.5h24.7v24.7c0,3.5,2.9,6.4,6.4,6.4s6.4-2.9,6.4-6.4V56.5h24.7c3.5,0,6.4-2.9,6.4-6.4
			s-2.9-6.4-6.4-6.4H54.6V19c0-3.5-2.9-6.4-6.4-6.4c-3.5,0-6.4,2.9-6.4,6.4v24.7H17.2c-3.5,0-6.4,2.9-6.4,6.4S13.7,56.5,17.2,56.5z"
			/>
		<path class="st7" d="M372.5,225c3.1,4.8,10.8,3,11.6-2.6c0.8-5.6-5.8-9.4-10.2-6C371.3,218.4,370.6,222.3,372.5,225z"/>
		<path class="st7" d="M269,43c1,2.5,3.6,4.1,6.3,3.9c2.6-0.2,4.9-2,5.7-4.5c1.7-5.4-4.4-10.2-9.3-7.3C268.9,36.7,267.8,40.2,269,43
			z"/>
		<path class="st7" d="M56.2,308.3c-1-2.4-3.4-4-6-3.9c-2.6,0.1-5,1.8-5.8,4.2c-2,5.5,4.3,10.7,9.3,7.6
			C56.3,314.6,57.4,311.2,56.2,308.3z"/>
	</g>
</g>
</svg>
