<?xml version="1.0" encoding="utf-8"?>
<!-- Generator: Adobe Illustrator 25.0.0, SVG Export Plug-In . SVG Version: 6.00 Build 0)  -->
<svg version="1.1" id="Layer_1" xmlns="http://www.w3.org/2000/svg" xmlns:xlink="http://www.w3.org/1999/xlink" x="0px" y="0px"
	 viewBox="0 0 430 430" style="enable-background:new 0 0 430 430;" xml:space="preserve">
<style type="text/css">
	.st0{fill-rule:evenodd;clip-rule:evenodd;fill:#A0522D;}
	.st1{fill-rule:evenodd;clip-rule:evenodd;fill:#783E22;}
	.st2{fill-rule:evenodd;clip-rule:evenodd;fill:#60A917;}
	.st3{fill-rule:evenodd;clip-rule:evenodd;fill:#FFDC00;}
	.st4{fill-rule:evenodd;clip-rule:evenodd;fill:#FEC108;}
	.st5{fill:#35414D;}
	.st6{fill-rule:evenodd;clip-rule:evenodd;fill:#35414D;}
</style>
<g id="Page-1">
	<g id="_x30_65---Money-Tree" transform="translate(0 -1)">
		<path id="Path" class="st0" d="M315.3,416.7c0,4-3.2,7.2-7.2,7.2H121.8c-4,0-7.2-3.2-7.2-7.2c0-11.9,9.6-21.5,21.5-21.5
			c27.7,0,50.2-22.5,50.2-50.2l-0.1-35.8c0-5.6-0.6-11.1-1.9-16.5c-2.3-11.6-9.1-21.7-19-28.1c-6.9-3.7-9.6-12.3-6-19.3
			c3.6-7,12.1-9.8,19.1-6.3c9,5.1,16.6,12.2,22.4,20.8V216c0-7.9,6.4-14.3,14.3-14.3c7.9,0.1,14.3,6.4,14.3,14.3v43.6
			c5.7-8.5,13.3-15.6,22.3-20.6c7-3.5,15.5-0.7,19,6.3c3.5,7,0.9,15.5-6,19.3c-9.9,6.4-16.7,16.5-19,28c-1.3,5.4-2,11-1.9,16.6V345
			c0,27.7,22.5,50.2,50.2,50.2C305.7,395.2,315.3,404.8,315.3,416.7z"/>
		<path id="Path_1_" class="st1" d="M309,401.5c-4-4-9.5-6.3-15.2-6.3c-27.7,0-50.2-22.5-50.2-50.2v-35.8c0-5.6,0.6-11.1,1.9-16.6
			c2.3-11.5,9.1-21.6,19-28c6.9-3.7,9.6-12.3,6-19.3c-3.5-7-12-9.8-19-6.3c-1.7,0.9-3.3,1.9-4.9,3c3.2,3.2,4.6,7.7,3.9,12.2
			c-0.7,4.4-3.5,8.3-7.5,10.4c-9.9,6.4-16.7,16.5-19,28c-1.3,5.4-2,11-2,16.6V345c0,27.7,22.5,50.2,50.2,50.2
			c11.9,0,21.5,9.6,21.5,21.5c0,4-3.2,7.2-7.2,7.2h21.5c4,0,7.2-3.2,7.2-7.2C315.3,411,313.1,405.5,309,401.5z"/>
		<path id="Path_2_" class="st2" d="M421.4,277.4c-3.3,12.2-11.8,22.3-23.3,27.7s-24.7,5.4-36.2,0.1c-2.6-1.1-5.6-0.6-7.7,1.4
			c-7.7,7.2-18.1,10.7-28.6,9.5c-10.5-1.2-19.9-6.8-25.8-15.5c-2-3.1-5.9-4.2-9.2-2.7c-5.7,2.7-12,4.1-18.3,4.1
			c-9.7,0-19.2-3.3-26.7-9.4c2.3-11.5,9.1-21.6,19-28c6.9-3.7,9.6-12.3,6-19.3c-3.5-7-12-9.8-19-6.3c-8.9,5-16.6,12.1-22.3,20.6V216
			c-0.1-7.9-6.4-14.3-14.3-14.3c-7.9,0-14.3,6.4-14.3,14.3v43.8c-5.7-8.6-13.4-15.7-22.4-20.8c-7-3.5-15.5-0.7-19.1,6.3
			c-3.5,7-0.9,15.5,6,19.3c9.9,6.4,16.7,16.5,19,28.1c-7.5,6.1-16.9,9.3-26.6,9.3c-6.3,0-12.6-1.4-18.3-4.1
			c-3.3-1.6-7.3-0.4-9.2,2.7c-5.9,8.7-15.3,14.4-25.8,15.5c-10.5,1.2-20.9-2.3-28.6-9.5c-2.1-2-5.1-2.5-7.7-1.4
			c-11.5,5.3-24.7,5.3-36.2-0.1s-20-15.5-23.3-27.7c-4.7-17.6,2.7-36.2,18.1-45.9c2.5-1.7,3.6-4.8,2.9-7.7c-0.6-2.6-0.9-5.2-0.9-7.8
			c0-4.1,0.7-8.1,2.1-12c1.2-3.2,0-6.8-2.9-8.6C13.3,186.6,5.3,170,7.5,153.1s14.2-30.9,30.5-35.7c3.1-0.9,5.2-3.9,4.9-7.1v-1.5
			c-0.3-19.8,13-37.2,32.2-42c5.7-1.4,11.6-1.7,17.4-0.8c1.9,0.3,3.9-0.1,5.5-1.3c1.6-1.1,2.7-2.9,2.9-4.8
			c2.3-21.5,20.6-37.8,42.3-37.4c8,0,15.9,2.2,22.7,6.5c3.1,2,7.3,1.2,9.5-1.7c9.5-12.1,24-19.1,39.4-19.1s29.9,7.1,39.4,19.1
			c2.3,3,6.4,3.7,9.5,1.7c6.8-4.3,14.7-6.6,22.7-6.5c21.7-0.4,40,15.9,42.3,37.4c0.3,1.9,1.3,3.7,2.9,4.8c1.6,1.1,3.6,1.6,5.5,1.3
			c5.8-0.9,11.7-0.6,17.4,0.8c19.2,4.8,32.5,22.2,32.2,42v1.5c-0.2,3.2,1.8,6.2,4.9,7.1c16.3,4.8,28.3,18.8,30.5,35.7
			c2.2,16.9-5.7,33.5-20.3,42.4c-2.9,1.8-4.1,5.4-2.9,8.6c1.4,3.8,2.1,7.9,2.1,12c0,2.6-0.3,5.3-0.9,7.8c-0.8,2.9,0.4,6,2.9,7.7
			C418.7,241.2,426,259.8,421.4,277.4L421.4,277.4z"/>
		<circle id="Oval" class="st3" cx="93.2" cy="180.2" r="64.5"/>
		<path id="Path_3_" class="st4" d="M93.2,115.7c-3.6,0-7.2,0.3-10.7,1c31,5.2,53.8,32.1,53.8,63.5s-22.7,58.3-53.8,63.5
			c24.1,4.2,48.4-5.5,63-25.2c14.5-19.6,16.7-45.8,5.7-67.6C140,129.2,117.6,115.5,93.2,115.7z"/>
		<circle id="Oval_1_" class="st3" cx="215" cy="72.7" r="64.5"/>
		<path id="Path_4_" class="st4" d="M215,8.2c-3.6,0-7.2,0.3-10.7,1c31,5.2,53.8,32.1,53.8,63.5s-22.7,58.3-53.8,63.5
			c24.1,4.2,48.4-5.5,63-25.2c14.5-19.6,16.7-45.8,5.7-67.6S239.4,8,215,8.2L215,8.2z"/>
		<circle id="Oval_2_" class="st3" cx="336.8" cy="180.2" r="64.5"/>
		<path id="Path_5_" class="st4" d="M336.8,115.7c-3.6,0-7.2,0.3-10.7,1c31,5.2,53.8,32.1,53.8,63.5s-22.7,58.3-53.8,63.5
			c24.1,4.2,48.4-5.5,63-25.2s16.7-45.8,5.7-67.6S361.2,115.5,336.8,115.7L336.8,115.7z"/>
		<g>
			<path id="Shape" class="st5" d="M394.2,110.3v-1.4c0.4-23.1-15.3-43.4-37.7-49c-6.7-1.6-13.6-1.9-20.4-0.9
				c-2.7-25.1-24.1-44-49.4-43.6c-9.4,0-18.6,2.6-26.6,7.6C249.2,9.1,232.5,1,214.9,1c-17.6,0-34.2,8.1-45.1,22
				c-14.4-9-32.5-10.1-47.9-2.8S95.9,42,93.7,58.9c-6.7-1-13.5-0.7-20.1,0.9c-22.4,5.6-38.1,25.9-37.8,49l0.2,1.7
				C17,116.1,3,132.4,0.4,152.1s6.6,39.1,23.6,49.4c-1.7,4.6-2.5,9.5-2.5,14.4c0,3.2,0.4,6.4,1.3,9.5c-18,11.4-26.5,33.1-21.1,53.7
				c5.1,19.2,21.1,33.6,40.8,36.5c9.6,1.5,19.5,0.2,28.4-3.9c8,7.5,18.5,11.6,29.5,11.6c14.4-0.1,27.8-7.2,35.9-19.1
				c13.5,6.2,29.1,6.2,42.6-0.1c0.1,1.6,0.2,3.2,0.2,4.9l0.1,35.8c0,23.7-19.3,43-43,43c-15.8,0-28.7,12.8-28.7,28.7
				c0,7.9,6.4,14.3,14.3,14.3h186.3c7.9,0,14.3-6.4,14.3-14.3c0-15.8-12.8-28.7-28.7-28.7c-23.7,0-43-19.3-43-43v-35.8
				c0-1.7,0.1-3.4,0.2-4.9c13.7,6.1,29.2,6.3,43,0.4c8,11.8,21.4,18.9,35.7,18.9c10.9,0.1,21.4-4.2,29.2-11.8
				c13.4,6.2,28.9,6.2,42.3-0.1c13.4-6.3,23.4-18.1,27.2-32.4c5.4-20.5-3.1-42.2-21-53.7c0.8-3.1,1.1-6.3,1.1-9.5
				c0-4.9-0.8-9.8-2.6-14.5c15-9.1,24.1-25.3,24.1-42.9C429.9,136.5,415.4,116.9,394.2,110.3L394.2,110.3z M293.8,402.3
				c7.9,0,14.3,6.4,14.3,14.3H121.8c0-7.9,6.4-14.3,14.3-14.3c31.7,0,57.3-25.7,57.3-57.3l-0.1-35.8c0-38.2-24.7-50.9-24.7-50.9
				c-3.4-1.9-4.8-6.1-3.1-9.6c1.2-2.4,3.7-4,6.4-4c1.1,0,2.2,0.2,3.1,0.7c7.9,4.6,14.6,10.9,19.7,18.5c1.8,2.6,5,3.7,8,2.7
				s5-3.7,5-6.8V216c0-4,3.2-7.2,7.2-7.2c1.9,0,3.8,0.8,5.1,2.2c1.3,1.3,2.1,3.1,2.1,5v43.6c0,3.1,2,5.9,5,6.8c3,0.9,6.2-0.2,8-2.8
				c5.1-7.5,11.8-13.8,19.6-18.3c3.5-1.7,7.7-0.3,9.4,3.2c1.7,3.4,0.4,7.6-2.9,9.6c-0.2,0.1-24.9,12.8-24.9,51V345
				C236.5,376.7,262.2,402.3,293.8,402.3L293.8,402.3z M398.5,189.3c-5.9,3.6-8.3,10.8-5.9,17.2c1.1,3,1.7,6.3,1.6,9.5
				c0,2.1-0.2,4.1-0.7,6.1c-1.5,5.8,0.9,12,5.9,15.4c12.9,8,19,23.5,15.1,38.1c-2.8,10.2-9.9,18.6-19.5,23c-9.6,4.4-20.6,4.4-30.2,0
				c-5.2-2.3-11.3-1.2-15.5,2.7c-6.1,5.8-14.5,8.6-22.9,7.6s-15.9-5.5-20.6-12.4c-4-6-11.7-8.2-18.2-5.1c-10.8,5-23.4,4.4-33.7-1.7
				c2.4-7.7,7.3-14.4,14.1-18.8c10.6-5.4,14.8-18.4,9.4-28.9c-5.4-10.6-18.4-14.8-28.9-9.4c-4.3,2.3-8.3,5.1-12,8.3V216
				c-0.1-11.8-9.7-21.4-21.5-21.5c-11.9,0-21.5,9.6-21.5,21.5v25c-3.6-3.3-7.7-6.1-12-8.4c-10.5-5.3-23.3-1.1-28.6,9.4
				c-5.3,10.5-1.3,23.4,9.1,28.9c6.7,4.5,11.6,11.1,14,18.8c-10.2,6.1-22.8,6.7-33.6,1.7c-6.5-3-14.2-0.9-18.2,5.1
				c-4.7,7-12.3,11.5-20.7,12.5s-16.7-1.9-22.9-7.7c-4.2-3.9-10.4-5-15.6-2.6c-9.6,4.4-20.6,4.3-30.1-0.1
				c-9.5-4.5-16.6-12.9-19.4-23c-3.9-14.7,2.2-30.1,15.1-38.1c5-3.4,7.4-9.5,5.9-15.4c-0.5-2-0.7-4-0.7-6.1c0-3.3,0.5-6.5,1.7-9.6
				c2.4-6.4-0.1-13.6-5.9-17.1c-12.1-7.4-18.8-21.2-16.9-35.3c1.8-14.1,11.8-25.7,25.4-29.8c6.2-1.7,10.4-7.5,10.2-14v-1.6
				c-0.3-16.4,10.7-30.9,26.7-35c4.8-1.2,9.8-1.4,14.6-0.7c3.9,0.6,7.8-0.4,11-2.7c3.1-2.3,5.1-5.7,5.6-9.5
				c1.7-18.1,17.1-31.7,35.2-31.3c6.7,0,13.3,1.9,19,5.5c6.3,3.9,14.4,2.4,18.9-3.4c8.1-10.3,20.6-16.4,33.7-16.4
				c13.2,0,25.6,6,33.8,16.3c4.5,5.9,12.8,7.4,19,3.4c5.7-3.6,12.2-5.4,18.9-5.4c18.1-0.4,33.5,13.2,35.2,31.2
				c0.5,3.8,2.6,7.2,5.7,9.5c3.2,2.3,7.1,3.3,11,2.7c4.9-0.7,9.9-0.5,14.7,0.7c15.9,4.1,26.9,18.6,26.6,35v1.2
				c-0.4,6.5,3.8,12.4,10.1,14.3c13.6,4,23.6,15.7,25.4,29.7C417.2,168.1,410.6,181.9,398.5,189.3L398.5,189.3z"/>
			<path id="Path_6_" class="st6" d="M93.2,187.3c3.5,0,6.4,2.5,7.1,5.9c0.6,3.4-1.3,6.8-4.6,8c-3.3,1.2-6.9-0.1-8.7-3.2
				c-2-3.3-6.3-4.4-9.7-2.4c-3.4,1.9-4.6,6.2-2.7,9.6c2.6,4.4,6.7,7.7,11.5,9.3v1.4c0,4,3.2,7.2,7.2,7.2c4,0,7.2-3.2,7.2-7.2v-1.3
				c9.9-3.5,15.8-13.6,14-23.9c-1.8-10.3-10.7-17.8-21.2-17.8c-3.5,0-6.4-2.5-7.1-5.9c-0.6-3.4,1.3-6.8,4.6-8
				c3.3-1.2,6.9,0.1,8.7,3.2c2,3.3,6.3,4.4,9.7,2.4c3.4-1.9,4.6-6.2,2.7-9.6c-2.6-4.4-6.7-7.7-11.5-9.3v-1.4c0-4-3.2-7.2-7.2-7.2
				c-4,0-7.2,3.2-7.2,7.2v1.3c-9.9,3.5-15.8,13.6-14,23.9C73.8,179.8,82.7,187.4,93.2,187.3L93.2,187.3z"/>
			<path id="Path_7_" class="st6" d="M138.2,124.4c-2-1.7-4.7-2.2-7.2-1.3c-2.4,0.9-4.2,3.1-4.6,5.7c-0.4,2.6,0.7,5.2,2.7,6.7
				c23.9,19.2,28.4,53.9,10.2,78.6s-52.6,30.7-78.1,13.7c-3.3-2.1-7.7-1.2-9.8,2s-1.3,7.6,1.9,9.9c31.9,21.3,74.8,13.8,97.5-17.1
				S168,148.5,138.2,124.4L138.2,124.4z"/>
			<path id="Path_8_" class="st6" d="M336.8,187.3c3.5,0,6.4,2.5,7.1,5.9c0.6,3.4-1.3,6.8-4.6,8c-3.3,1.2-6.9-0.1-8.7-3.2
				c-2-3.3-6.3-4.4-9.7-2.4c-3.4,1.9-4.6,6.2-2.7,9.6c2.6,4.4,6.7,7.7,11.5,9.3v1.4c0,4,3.2,7.2,7.2,7.2c4,0,7.2-3.2,7.2-7.2v-1.3
				c9.9-3.5,15.8-13.6,14-23.9c-1.8-10.3-10.7-17.8-21.2-17.8c-3.5,0-6.4-2.5-7.1-5.9c-0.6-3.4,1.3-6.8,4.6-8
				c3.3-1.2,6.9,0.1,8.7,3.2c2,3.3,6.3,4.4,9.7,2.4c3.4-1.9,4.6-6.2,2.7-9.6c-2.6-4.4-6.7-7.7-11.5-9.3v-1.4c0-4-3.2-7.2-7.2-7.2
				c-4,0-7.2,3.2-7.2,7.2v1.3c-9.9,3.5-15.8,13.6-14,23.9C317.4,179.8,326.4,187.4,336.8,187.3L336.8,187.3z"/>
			<path id="Path_9_" class="st6" d="M215,79.8c3.5,0,6.4,2.5,7.1,5.9s-1.3,6.8-4.6,8c-3.3,1.2-6.9-0.1-8.7-3.2
				c-2-3.3-6.3-4.4-9.7-2.4c-3.4,1.9-4.6,6.2-2.7,9.6c2.6,4.4,6.7,7.7,11.5,9.3v1.4c0,4,3.2,7.2,7.2,7.2c4,0,7.2-3.2,7.2-7.2v-1.3
				c9.9-3.5,15.8-13.6,14-23.9C234.4,73,225.5,65.5,215,65.5c-3.5,0-6.4-2.5-7.1-5.9c-0.6-3.4,1.3-6.8,4.6-8
				c3.3-1.2,6.9,0.1,8.7,3.2c2,3.3,6.3,4.4,9.7,2.4c3.4-1.9,4.6-6.2,2.7-9.6c-2.6-4.4-6.7-7.7-11.5-9.3v-1.4c0-4-3.2-7.2-7.2-7.2
				c-4,0-7.2,3.2-7.2,7.2v1.3c-9.9,3.5-15.8,13.6-14,23.9S204.5,79.9,215,79.8z"/>
			<path id="Path_10_" class="st6" d="M368.7,227.9c-25.5,17.1-59.9,11-78.1-13.7s-13.7-59.3,10.2-78.6c2.1-1.6,3.1-4.2,2.7-6.7
				c-0.4-2.6-2.1-4.7-4.6-5.7c-2.4-0.9-5.2-0.4-7.2,1.3c-29.8,24.1-35.4,67.4-12.7,98.2s65.7,38.4,97.6,17.1c3.3-2.2,4.2-6.7,2-9.9
				C376.4,226.5,371.9,225.7,368.7,227.9z"/>
			<path id="Path_11_" class="st6" d="M286.7,72.7c0-4-3.2-7.2-7.2-7.2c-4,0-7.2,3.2-7.2,7.2c0,31.7-25.7,57.3-57.3,57.3
				s-57.3-25.7-57.3-57.3c0-4-3.2-7.2-7.2-7.2s-7.2,3.2-7.2,7.2c0,39.6,32.1,71.7,71.7,71.7S286.7,112.3,286.7,72.7z"/>
		</g>
	</g>
</g>
</svg>
