<?xml version="1.0" encoding="utf-8"?>
<!-- Generator: Adobe Illustrator 25.0.0, SVG Export Plug-In . SVG Version: 6.00 Build 0)  -->
<svg version="1.1" id="Layer_1" xmlns="http://www.w3.org/2000/svg" xmlns:xlink="http://www.w3.org/1999/xlink" x="0px" y="0px"
	 viewBox="0 0 180 180" style="enable-background:new 0 0 180 180;" xml:space="preserve">
<style type="text/css">
	.st0{clip-path:url(#SVGID_2_);}
	.st1{fill:#FFD36C;}
	.st2{fill:#FCC645;}
	.st3{fill:#EAAF20;}
	.st4{fill:#FCEEDB;}
	.st5{fill:#E3D3C6;}
	.st6{fill:none;stroke:#35414D;stroke-width:5.2734;stroke-linecap:round;stroke-linejoin:round;stroke-miterlimit:13.3333;}
</style>
<g id="g3603_1_" transform="matrix(1.3333333,0,0,-1.3333333,0,682.66667)">
	<g id="g3605_1_">
		<g>
			<defs>
				<rect id="SVGID_1_" x="-22.5" y="354.5" width="180" height="180"/>
			</defs>
			<clipPath id="SVGID_2_">
				<use xlink:href="#SVGID_1_"  style="overflow:visible;"/>
			</clipPath>
			<g id="g3607_1_" class="st0">
				<g id="g3613_1_" transform="translate(465.6582,504.4316)">
					<path id="path3615_1_" class="st1" d="M-342.9,5.6h-110.6c-5.6,0-10.2-4.6-10.2-10.2v-31.5c0-5.6,4.6-10.2,10.2-10.2h7.8
						l9.8-13l9.8,13h83.2c5.6,0,10.2,4.6,10.2,10.2v31.5C-332.7,1-337.2,5.6-342.9,5.6"/>
				</g>
				<g id="g3617_1_" transform="translate(465.6582,504.4316)">
					<path id="path3619_1_" class="st2" d="M-342.9,5.6h-10.7c5.6,0,10.2-4.6,10.2-10.2v-31.5c0-5.6-4.6-10.2-10.2-10.2h10.7
						c5.6,0,10.2,4.6,10.2,10.2v31.5C-332.7,1-337.2,5.6-342.9,5.6"/>
				</g>
				<g id="g3621_1_" transform="translate(115.0098,453.9409)">
					<path id="path3623_1_" class="st3" d="M-84.7,42.8l3.7-7.4c0.1-0.2,0.3-0.4,0.5-0.4l8.2-1.2c0.6-0.1,0.8-0.8,0.4-1.2l-5.9-5.8
						C-78,26.5-78,26.3-78,26l1.4-8.2c0.1-0.6-0.5-1-1-0.8L-85,21c-0.2,0.1-0.5,0.1-0.7,0l-7.4-3.9c-0.5-0.3-1.1,0.2-1,0.8l1.4,8.2
						c0,0.2,0,0.5-0.2,0.6l-5.9,5.8c-0.4,0.4-0.2,1.1,0.4,1.2l8.2,1.2c0.2,0,0.4,0.2,0.5,0.4l3.7,7.4
						C-85.7,43.3-84.9,43.3-84.7,42.8"/>
				</g>
				<g id="g3625_1_" transform="translate(258.4492,453.9409)">
					<path id="path3627_1_" class="st3" d="M-190.3,42.8l3.7-7.4c0.1-0.2,0.3-0.4,0.5-0.4l8.2-1.2c0.6-0.1,0.8-0.8,0.4-1.2l-5.9-5.8
						c-0.2-0.2-0.2-0.4-0.2-0.6l1.4-8.2c0.1-0.6-0.5-1-1-0.8l-7.4,3.9c-0.2,0.1-0.5,0.1-0.7,0l-7.4-3.9c-0.5-0.3-1.1,0.2-1,0.8
						l1.4,8.2c0,0.2,0,0.5-0.2,0.6l-5.9,5.8c-0.4,0.4-0.2,1.1,0.4,1.2l8.2,1.2c0.2,0,0.4,0.2,0.5,0.4l3.7,7.4
						C-191.3,43.3-190.6,43.3-190.3,42.8"/>
				</g>
				<g id="g3629_1_" transform="translate(401.8896,453.9409)">
					<path id="path3631_1_" class="st3" d="M-295.9,42.8l3.7-7.4c0.1-0.2,0.3-0.4,0.5-0.4l8.2-1.2c0.6-0.1,0.8-0.8,0.4-1.2l-5.9-5.8
						c-0.2-0.2-0.2-0.4-0.2-0.6l1.4-8.2c0.1-0.6-0.5-1-1-0.8l-7.4,3.9c-0.2,0.1-0.5,0.1-0.7,0l-7.4-3.9c-0.5-0.3-1.1,0.2-1,0.8
						l1.4,8.2c0,0.2,0,0.5-0.2,0.6l-5.9,5.8c-0.4,0.4-0.2,1.1,0.4,1.2l8.2,1.2c0.2,0,0.4,0.2,0.5,0.4l3.7,7.4
						C-297,43.3-296.2,43.3-295.9,42.8"/>
				</g>
				<g id="g3633_1_" transform="translate(217.5107,112.5396)">
					<path id="path3635_1_" class="st4" d="M-160.2,294.1c0-15.3-12.4-27.7-27.7-27.7c-15.3,0-27.7,12.4-27.7,27.7
						c0,15.3,12.4,27.7,27.7,27.7C-172.6,321.8-160.2,309.4-160.2,294.1"/>
				</g>
				<g id="g3637_1_" transform="translate(150.4277,135.5332)">
					<path id="path3639_1_" class="st5" d="M-110.8,277.2c0,5.5-4.5,10-10,10c-5.5,0-10-4.5-10-10s4.5-10,10-10
						C-115.2,267.2-110.8,271.7-110.8,277.2"/>
				</g>
				<g id="g3641_1_" transform="translate(112.4385,97.5435)">
					<path id="path3643_1_" class="st5" d="M-82.8,305.2c-9.3,0-17-7-18.1-16.1v-0.9c4.9-4.2,11.2-6.7,18.1-6.7
						c6.9,0,13.2,2.5,18.1,6.7l0,0.4C-65.5,297.9-73.3,305.2-82.8,305.2"/>
				</g>
				<g id="g3645_1_" transform="translate(485.9365,170.0234)">
					<path id="path3647_1_" class="st5" d="M-357.8,251.8h-54.3c-6.3,0-6.3,9.8,0,9.8h54.3C-351.5,261.6-351.5,251.8-357.8,251.8"/>
				</g>
				<g id="g3649_1_" transform="translate(486.4365,94.0444)">
					<path id="path3651_1_" class="st5" d="M-358.2,307.8h-54.3c-6.3,0-6.3,9.8,0,9.8h54.3C-351.9,317.5-351.9,307.8-358.2,307.8"/>
				</g>
				<g id="g3653_1_" transform="translate(486.9365,18.0654)">
					<path id="path3655_1_" class="st5" d="M-358.5,363.7h-54.3c-6.3,0-6.3,9.8,0,9.8h54.3C-352.2,373.5-352.2,363.7-358.5,363.7"/>
				</g>
				<g id="g3657_1_" transform="translate(114.9707,453.9951)">
					<path id="path3659_1_" class="st6" d="M-84.7,42.7l3.7-7.5c0.1-0.2,0.3-0.4,0.5-0.4l8.2-1.2c0.6-0.1,0.8-0.8,0.4-1.2l-6-5.8
						c-0.2-0.2-0.2-0.4-0.2-0.6l1.4-8.2c0.1-0.6-0.5-1-1-0.8l-7.4,3.9c-0.2,0.1-0.5,0.1-0.7,0l-7.4-3.9c-0.5-0.3-1.1,0.2-1,0.8
						l1.4,8.2c0,0.2,0,0.5-0.2,0.6l-6,5.8c-0.4,0.4-0.2,1.1,0.4,1.2l8.2,1.2c0.2,0,0.4,0.2,0.5,0.4l3.7,7.5
						C-85.7,43.2-84.9,43.2-84.7,42.7z"/>
				</g>
				<g id="g3661_1_" transform="translate(258.4502,453.9951)">
					<path id="path3663_1_" class="st6" d="M-190.3,42.7l3.7-7.5c0.1-0.2,0.3-0.4,0.5-0.4l8.2-1.2c0.6-0.1,0.8-0.8,0.4-1.2l-6-5.8
						c-0.2-0.2-0.2-0.4-0.2-0.6l1.4-8.2c0.1-0.6-0.5-1-1-0.8l-7.4,3.9c-0.2,0.1-0.5,0.1-0.7,0l-7.4-3.9c-0.5-0.3-1.1,0.2-1,0.8
						l1.4,8.2c0,0.2,0,0.5-0.2,0.6l-6,5.8c-0.4,0.4-0.2,1.1,0.4,1.2l8.2,1.2c0.2,0,0.4,0.2,0.5,0.4l3.7,7.5
						C-191.3,43.2-190.6,43.2-190.3,42.7z"/>
				</g>
				<g id="g3665_1_" transform="translate(401.9297,453.9951)">
					<path id="path3667_1_" class="st6" d="M-296,42.7l3.7-7.5c0.1-0.2,0.3-0.4,0.5-0.4l8.2-1.2c0.6-0.1,0.8-0.8,0.4-1.2l-6-5.8
						c-0.2-0.2-0.2-0.4-0.2-0.6l1.4-8.2c0.1-0.6-0.5-1-1-0.8l-7.4,3.9c-0.2,0.1-0.5,0.1-0.7,0l-7.4-3.9c-0.5-0.3-1.1,0.2-1,0.8
						l1.4,8.2c0,0.2,0,0.5-0.2,0.6l-6,5.8c-0.4,0.4-0.2,1.1,0.4,1.2l8.2,1.2c0.2,0,0.4,0.2,0.5,0.4l3.7,7.5
						C-297,43.2-296.2,43.2-296,42.7z"/>
				</g>
				<g id="g3669_1_" transform="translate(92,504.5)">
					<path id="path3671_1_" class="st6" d="M-67.7,5.5h-12.1C-85.4,5.5-90,0.9-90-4.7v-31.5c0-5.6,4.6-10.2,10.2-10.2h7.8l9.8-13
						l9.8,13h83.2c5.6,0,10.2,4.6,10.2,10.2v31.5c0,5.6-4.6,10.2-10.2,10.2h-88.5"/>
				</g>
				<g id="g3673_1_" transform="translate(150.3994,135.5)">
					<path id="path3675_1_" class="st6" d="M-110.7,277.2c0-5.5-4.5-10-10-10c-5.5,0-10,4.5-10,10s4.5,10,10,10
						C-115.2,287.2-110.7,282.8-110.7,277.2z"/>
				</g>
				<g id="g3677_1_" transform="translate(43.8584,36.5)">
					<path id="path3679_1_" class="st6" d="M-32.3,350.1c1,9.1,8.7,16.1,18.1,16.1c9.5,0,17.3-7.3,18.1-16.6"/>
				</g>
				<g id="g3681_1_" transform="translate(217.5,112.5)">
					<path id="path3683_1_" class="st6" d="M-160.2,294.2c0-15.3-12.4-27.7-27.7-27.7s-27.7,12.4-27.7,27.7s12.4,27.7,27.7,27.7
						S-160.2,309.5-160.2,294.2z"/>
				</g>
				<g id="g3685_1_" transform="translate(486,170)">
					<path id="path3687_1_" class="st6" d="M-357.9,251.8h-54.3c-2.7,0-4.9,2.2-4.9,4.9s2.2,4.9,4.9,4.9h54.3c2.7,0,4.9-2.2,4.9-4.9
						S-355.2,251.8-357.9,251.8z"/>
				</g>
				<g id="g3689_1_" transform="translate(474,131)">
					<path id="path3691_1_" class="st6" d="M-349,280.5h3.3c2.7,0,4.9-2.2,4.9-4.9s-2.2-4.9-4.9-4.9H-400c-2.7,0-4.9,2.2-4.9,4.9
						s2.2,4.9,4.9,4.9h41"/>
				</g>
				<g id="g3693_1_" transform="translate(306,18)">
					<path id="path3695_1_" class="st6" d="M-225.3,363.7h-6.6c-2.7,0-4.9,2.2-4.9,4.9s2.2,4.9,4.9,4.9h54.3c2.7,0,4.9-2.2,4.9-4.9
						s-2.2-4.9-4.9-4.9h-38"/>
				</g>
			</g>
		</g>
	</g>
</g>
</svg>
