<?xml version="1.0" encoding="utf-8"?>
<!-- Generator: Adobe Illustrator 25.0.0, SVG Export Plug-In . SVG Version: 6.00 Build 0)  -->
<svg version="1.1" id="Layer_1" xmlns="http://www.w3.org/2000/svg" xmlns:xlink="http://www.w3.org/1999/xlink" x="0px" y="0px"
	 viewBox="0 0 456 250" style="enable-background:new 0 0 456 250;" xml:space="preserve">
<style type="text/css">
	.st0{fill:#4CAF50;}
	.st1{fill:#35414D;}
	.st2{fill:#F44336;}
	.st3{fill:#2196F3;}
	.st4{fill:#FFC107;}
	.st5{fill:#167EE6;}
	.st6{fill:#12B347;}
	.st7{fill:#0F993E;}
	.st8{fill:#FFD500;}
	.st9{fill:#FF4B26;}
	.st10{fill:#D93F21;}
	.st11{fill:#1976D2;stroke:#35414D;stroke-width:2.174;stroke-miterlimit:10;}
	.st12{fill:#FAFAFA;stroke:#35414D;stroke-width:2.174;stroke-miterlimit:10;}
	.st13{fill:url(#SVGID_1_);}
	.st14{fill:#FFFFFF;}
	.st15{fill:#FF0000;}
	.st16{fill:#FFC107;stroke:#35414D;stroke-width:2.174;stroke-miterlimit:10;}
	.st17{fill:#FFA000;stroke:#35414D;stroke-width:2.174;stroke-miterlimit:10;}
	.st18{fill:#FD646F;}
	.st19{fill:#FC4755;}
	.st20{fill:#F5F5F5;}
	.st21{fill:#E6E6E6;}
	.st22{fill:#50758D;}
	.st23{fill:#2B597F;}
	.st24{fill:#918291;}
	.st25{fill:#7A6E79;}
	.st26{fill:#EC5664;}
	.st27{fill:#87828E;}
	.st28{fill:#A4A4A5;}
	.st29{fill:#C63D4F;}
	.st30{fill:#FFCF66;}
	.st31{fill:#E8BA5D;}
	.st32{fill:#EFBC62;}
	.st33{fill:#35414D;stroke:#35414D;stroke-width:1.087;stroke-miterlimit:10;}
	.st34{fill:#E8EDF2;}
	.st35{fill:#C5D3DD;}
	.st36{fill:#DD636E;}
	.st37{fill:#90D8F9;}
	.st38{fill:#75CEF9;}
	.st39{fill:#FFD064;}
	.st40{fill:#EBB044;}
</style>
<g>
	<g>
		<g>
			<path class="st0" d="M139.8,36.4V8.8h24.9c1.5,0,2.8,1.2,2.8,2.8v24.9H139.8z"/>
			<path class="st1" d="M164.7,9.9c0.9,0,1.7,0.8,1.7,1.7v23.8h-25.5V9.9H164.7 M164.7,7.7h-23.8h-2.2v2.2v25.5v2.2h2.2h25.5h2.2
				v-2.2V11.6C168.6,9.4,166.8,7.7,164.7,7.7L164.7,7.7z"/>
		</g>
		<g>
			<path class="st2" d="M111,36.4V11.6c0-1.5,1.2-2.8,2.8-2.8h24.9v27.7H111z"/>
			<path class="st1" d="M137.5,9.9v25.5h-25.5V11.6c0-0.9,0.8-1.7,1.7-1.7H137.5 M139.7,7.7h-2.2h-23.8c-2.1,0-3.9,1.7-3.9,3.9v23.8
				v2.2h2.2h25.5h2.2v-2.2V9.9V7.7L139.7,7.7z"/>
		</g>
		<g>
			<path class="st3" d="M113.8,65.3c-1.5,0-2.8-1.2-2.8-2.8V37.7h27.7v27.7H113.8z"/>
			<path class="st1" d="M137.5,38.7v25.5h-23.8c-0.9,0-1.7-0.8-1.7-1.7V38.7H137.5 M139.7,36.6h-2.2h-25.5h-2.2v2.2v23.8
				c0,2.1,1.7,3.9,3.9,3.9h23.8h2.2v-2.2V38.7V36.6L139.7,36.6z"/>
		</g>
		<g>
			<path class="st4" d="M139.8,65.3V37.7h27.7v24.9c0,1.5-1.2,2.8-2.8,2.8H139.8z"/>
			<path class="st1" d="M166.4,38.7v23.8c0,0.9-0.8,1.7-1.7,1.7h-23.8V38.7H166.4 M168.6,36.6h-2.2h-25.5h-2.2v2.2v25.5v2.2h2.2
				h23.8c2.1,0,3.9-1.7,3.9-3.9V38.7V36.6L168.6,36.6z"/>
		</g>
	</g>
	<g>
		<g>
			<path class="st5" d="M315.8,235.8l0.5-0.3c2.9-1.7,5.3-4.3,6.6-7.4h-11.7c-1.3,0-2.3-1-2.3-2.3v-7.1c0-1.3,1-2.3,2.3-2.3l22.2,0
				c1.1,0,2.1,0.8,2.3,1.9c0.2,1.2,0.3,2.3,0.3,3.6c0,9.9-5.2,18.8-13.9,23.8l-0.5,0.3L315.8,235.8z"/>
			<path class="st1" d="M311.3,217l22.2,0c0.9,0,1.6,0.6,1.7,1.5c0.2,1.1,0.3,2.1,0.3,3.5c0,9.7-5,18.4-13.6,23.3l-5.3-9.2
				c3.3-1.9,5.8-4.9,7.2-8.4h-12.5c-1,0-1.8-0.8-1.8-1.8v-7.1C309.5,217.8,310.3,217,311.3,217 M311.3,215.9L311.3,215.9
				c-1.6,0-2.9,1.3-2.9,2.9v7.1c0,1.6,1.3,2.9,2.9,2.9h10.8c-1.4,2.6-3.5,4.9-6,6.4l-0.9,0.5l0.5,0.9l5.3,9.2l0.5,0.9l0.9-0.5
				c8.8-5.1,14.1-14.2,14.1-24.2c0-1.4-0.1-2.4-0.3-3.7c-0.2-1.4-1.4-2.4-2.8-2.4L311.3,215.9L311.3,215.9z"/>
		</g>
		<g>
			<path class="st6" d="M308.3,249.5c-9.9,0-19.1-5.3-24-13.9l-0.3-0.5l10.2-5.9l0.3,0.5c2.9,4.9,8.2,8,13.8,8c2.8,0,5.6-0.7,8-2.2
				l0.5-0.3l5.7,9.8v0.5l-0.3,0.2C318,248.2,313.2,249.5,308.3,249.5z"/>
			<path class="st1" d="M294,230c2.9,4.9,8.2,8.3,14.3,8.3c3,0,5.8-0.8,8.3-2.2l5.3,9.2v0c-4,2.3-8.7,3.6-13.6,3.6
				c-10,0-18.8-5.5-23.5-13.6L294,230 M294.4,228.5l-0.9,0.5l-9.2,5.3l-0.9,0.5l0.5,0.9c5,8.7,14.4,14.1,24.5,14.1
				c5,0,9.8-1.3,14.1-3.8l0.5-0.3v-0.6V245l-0.1-0.3l-5.3-9.2l-0.5-0.9l-0.9,0.5c-2.4,1.4-5,2.1-7.7,2.1c-5.5,0-10.6-3-13.4-7.7
				L294.4,228.5L294.4,228.5z"/>
		</g>
		<g>
			<path class="st7" d="M307.8,249.5v-11.7h0.5c2.8,0,5.6-0.7,8-2.2l0.5-0.3l5.7,9.8v0.5l-0.3,0.2c-4.2,2.4-9,3.7-13.9,3.7H307.8z"
				/>
			<path class="st1" d="M316.6,236l5.3,9.2v0c-4,2.3-8.7,3.6-13.6,3.6v-10.6C311.3,238.3,314.1,237.5,316.6,236 M317,234.6l-0.9,0.5
				c-2.4,1.4-5,2.1-7.7,2.1h-1.1v1.1v10.6v1.1h1.1c5,0,9.8-1.3,14.1-3.8l0.5-0.3v-0.6V245l-0.1-0.3l-5.3-9.2L317,234.6L317,234.6z"
				/>
		</g>
		<g>
			<path class="st8" d="M284.3,235.6c-2.4-4.2-3.7-9-3.7-13.8s1.3-9.7,3.7-13.8l0.3-0.5l10.2,5.9l-0.3,0.5c-1.4,2.4-2.2,5.2-2.2,8
				s0.7,5.6,2.2,8l0.3,0.5l-10.2,5.9L284.3,235.6z"/>
			<path class="st1" d="M284.8,208.2l9.2,5.3c-1.4,2.4-2.2,5.3-2.2,8.3c0,3,0.8,5.8,2.2,8.3l-9.2,5.3c-2.3-4-3.7-8.6-3.7-13.6
				C281.1,216.8,282.5,212.2,284.8,208.2 M284.4,206.7l-0.5,0.9c-2.5,4.3-3.8,9.2-3.8,14.1c0,5,1.3,9.9,3.8,14.1l0.5,0.9l0.9-0.5
				l9.2-5.3l0.9-0.5l-0.5-0.9c-1.4-2.4-2.1-5-2.1-7.7c0-2.7,0.7-5.4,2.1-7.7l0.5-0.9l-0.9-0.5l-9.2-5.3L284.4,206.7L284.4,206.7z"/>
		</g>
		<g>
			<path class="st9" d="M284,208.4l0.3-0.5c4.9-8.6,14.1-13.9,24-13.9c6.6,0,13.1,2.4,18.2,6.8c0.5,0.4,0.8,1,0.8,1.7
				c0,0.6-0.2,1.3-0.7,1.7l-5,5c-0.4,0.4-1,0.7-1.6,0.7c-0.5,0-1.1-0.2-1.5-0.5c-2.9-2.4-6.5-3.6-10.2-3.6c-5.7,0-11,3.1-13.8,8
				l-0.3,0.5L284,208.4z"/>
			<path class="st1" d="M308.3,194.6c6.8,0,13,2.5,17.8,6.7c0.8,0.7,0.8,1.9,0.1,2.6l-5,5c-0.3,0.3-0.8,0.5-1.2,0.5
				c-0.4,0-0.8-0.1-1.1-0.4c-2.9-2.4-6.5-3.8-10.5-3.8c-6.1,0-11.4,3.3-14.3,8.3l-9.2-5.3C289.5,200,298.3,194.6,308.3,194.6
				 M308.3,193.5c-10.1,0-19.4,5.4-24.5,14.1l-0.5,0.9l0.9,0.5l9.2,5.3l0.9,0.5l0.5-0.9c2.8-4.8,7.9-7.7,13.4-7.7
				c3.6,0,7.1,1.3,9.8,3.5c0.5,0.4,1.2,0.7,1.8,0.7c0.8,0,1.5-0.3,2-0.8l5-5c0.6-0.6,0.9-1.3,0.8-2.1c0-0.8-0.4-1.6-1-2.1
				C321.7,195.9,315.1,193.5,308.3,193.5L308.3,193.5z"/>
		</g>
		<g>
			<path class="st10" d="M319.9,209.9c-0.5,0-1.1-0.2-1.5-0.5c-2.9-2.4-6.5-3.6-10.2-3.6h-0.5V194h0.5c6.6,0,13.1,2.4,18.2,6.8
				c0.5,0.4,0.8,1,0.8,1.7c0,0.6-0.2,1.3-0.7,1.7l-5,5C321.1,209.7,320.6,209.9,319.9,209.9L319.9,209.9z"/>
			<path class="st1" d="M308.3,194.6c6.8,0,13,2.5,17.8,6.7c0.8,0.7,0.8,1.9,0.1,2.6l-5,5c-0.3,0.3-0.8,0.5-1.2,0.5
				c-0.4,0-0.8-0.1-1.1-0.4c-2.9-2.4-6.5-3.8-10.5-3.8V194.6 M308.3,193.5h-1.1v1.1v10.6v1.1h1.1c3.6,0,7.1,1.3,9.8,3.5
				c0.5,0.4,1.2,0.7,1.8,0.7c0.8,0,1.5-0.3,2-0.8l5-5c0.6-0.6,0.9-1.3,0.8-2.1c0-0.8-0.4-1.6-1-2.1
				C321.7,195.9,315.1,193.5,308.3,193.5L308.3,193.5z"/>
		</g>
	</g>
	<g>
		<path class="st11" d="M448.1,151h-40.8c-3.7,0-6.8,3-6.8,6.8v40.8c0,3.7,3,6.8,6.8,6.8h40.8c3.7,0,6.8-3,6.8-6.8v-40.8
			C454.9,154.1,451.9,151,448.1,151z"/>
		<path class="st12" d="M446.4,178.2h-8.5v-6.8c0-1.9,1.5-1.7,3.4-1.7h3.4v-8.5h-6.8l0,0c-5.6,0-10.2,4.6-10.2,10.2v6.8h-6.8v8.5
			h6.8v18.7h10.2v-18.7h5.1L446.4,178.2z"/>
	</g>
	<g>
		<g>
			
				<linearGradient id="SVGID_1_" gradientUnits="userSpaceOnUse" x1="53.3835" y1="280.5934" x2="54.5183" y2="281.8133" gradientTransform="matrix(0 -42.2827 39.3387 0 -10654.6904 2323.5784)">
				<stop  offset="0" style="stop-color:#FFDD55"/>
				<stop  offset="0.5" style="stop-color:#FF543E"/>
				<stop  offset="1" style="stop-color:#C837AB"/>
			</linearGradient>
			<path class="st13" d="M407.5,70.1c-7.3,0-16.5-0.2-18.5-0.7c-9.7-2.5-9.5-12-9.2-22.1c0-1.6,0.1-3.3,0.1-5c0-2.3,0-4.3,0-6.1
				c-0.1-9.7-0.2-13.7,3.6-17.6c3.3-3.4,6.8-3.9,16.6-3.9c1.8,0,3.8,0,6,0c2.9,0,6.2,0.1,9.9,0.1h0.4c6.4,0,6.8,0.1,8,0.2
				c6.2,0.9,10.2,5.4,10.8,12c0.1,0.9,0.1,29.9,0,30.8c-0.5,6.1-3.8,10.3-9.1,11.7C424.1,69.9,414.8,70.1,407.5,70.1z"/>
			<path class="st1" d="M400,15.2c4.1,0,9.2,0.1,15.9,0.1c0.1,0,0.3,0,0.4,0c6.5,0,6.7,0.1,8,0.2c5.5,0.8,9.7,4.7,10.2,11.5
				c0.1,0.9,0.1,29.8,0,30.7c-0.5,6.4-4.2,10-8.7,11.2c-1.7,0.4-10,0.7-18.4,0.7c-8.3,0-16.6-0.2-18.3-0.7
				c-10.8-2.8-8.8-14.7-8.8-26.5c0-14.3-0.9-19,3.4-23.4C386.9,15.7,390.4,15.2,400,15.2 M400,14.1c-9.3,0-13.4,0.4-17,4.1
				c-3.9,4-3.8,8.1-3.7,18c0,1.8,0,3.9,0,6.1c0,1.6,0,3.3-0.1,4.9c-0.3,10.3-0.5,20,9.7,22.6c2,0.5,11.2,0.7,18.6,0.7
				c7.4,0,16.7-0.2,18.7-0.7c5.5-1.4,9-5.9,9.5-12.2c0.1-1,0.1-29.8,0-30.8c-0.5-6.9-4.7-11.6-11.1-12.5l-0.1,0
				c-1.3-0.2-1.6-0.2-8.1-0.2l-0.4,0c-3.8,0-7,0-9.9-0.1C403.8,14.1,401.8,14.1,400,14.1L400,14.1z"/>
		</g>
		<g>
			<path class="st14" d="M411.6,62.9c-0.7,0-1.4,0-2,0c-0.7,0-1.4,0-2.1,0c-0.7,0-1.3,0-2,0c-0.6,0-1.3,0-1.9,0
				c-6.7,0-13-0.6-15.6-7.3c-1.1-2.9-1.1-7.1-1.1-11.6l0-1.7l0-2c0-4.9,0-8.4,1.1-11.3c2.6-6.7,8.9-7.3,15.6-7.3c0.6,0,3.2,0,3.9,0
				c0.8,0,1.5,0,2.3,0c0.7,0,1.4,0,2,0c5.2,0,9.5,0.3,12.7,3.5c3.6,3.6,3.6,8.3,3.5,14.9c0,0.7,0,1.4,0,2.2l0,2
				c0,4.9,0,8.4-1.1,11.3C424.3,62.4,417.9,62.9,411.6,62.9z M405.6,26.5c-12.9,0-14,0-14,15.9c0,15.7,0.1,15.9,15.9,15.9
				c0.8,0,1.6,0,2.4,0c0.7,0,1.5,0,2.2,0c6.4,0,10.9-0.6,11.2-7.8c0.6-12.7,0.4-19.2-2.1-21.9c-1.7-1.8-4.5-2.1-9.4-2.1
				c-0.9,0-1.8,0-2.8,0C407.9,26.5,406.8,26.5,405.6,26.5C405.7,26.5,405.6,26.5,405.6,26.5z M407.5,53.2c-6,0-10.8-4.9-10.8-10.8
				c0-6,4.9-10.8,10.8-10.8c6,0,10.8,4.9,10.8,10.8C418.3,48.3,413.4,53.2,407.5,53.2z M407.5,36.2c-1.9,0-3.5,0.7-4.6,1.9
				c-1,1.1-1.5,2.6-1.5,4.2c0,3,1.9,6.1,6.1,6.1c1.9,0,3.5-0.7,4.6-1.9c1-1.1,1.5-2.6,1.5-4.2C413.6,39.4,411.7,36.2,407.5,36.2z
				 M418.2,34.6c-1.6,0-2.9-1.3-2.9-2.9s1.3-2.9,2.9-2.9s2.9,1.3,2.9,2.9S419.8,34.6,418.2,34.6z"/>
			<path class="st1" d="M411.8,22.3c5.3,0,9.3,0.3,12.4,3.4c3.8,3.8,3.4,8.8,3.4,16.7c0,5.9,0.2,9.9-1,13.1
				c-2.5,6.4-8.4,6.9-14.8,6.9c-1.4,0-2.7,0-4.1,0c-1.3,0-2.6,0-3.9,0c-6.7,0-12.6-0.5-15.1-6.9c-1.2-3.1-1-8-1-13.1
				c0-5.9-0.2-10,1-13.1c2.5-6.4,8.4-6.9,15.1-6.9c1.3,0,2.6,0,3.9,0c0,0,0,0,0,0h0c0,0,0,0,0,0C409,22.3,410.4,22.3,411.8,22.3
				 M405.7,26L405.7,26c-13.3,0-14.6,0.3-14.6,16.4c0,15.9,0.5,16.4,16.4,16.4c1.6,0,3.1,0,4.5,0c6.6,0,11.4-0.7,11.7-8.3
				c1-22.9-0.5-24.5-12.1-24.5C409.9,25.9,407.9,26,405.7,26 M418.2,29.3c1.3,0,2.4,1.1,2.4,2.4c0,1.3-1.1,2.4-2.4,2.4
				s-2.4-1.1-2.4-2.4C415.8,30.4,416.8,29.3,418.2,29.3 M407.5,32.1c5.7,0,10.3,4.6,10.3,10.3c0,5.7-4.6,10.3-10.3,10.3
				s-10.3-4.6-10.3-10.3S401.8,32.1,407.5,32.1 M407.5,49c8.8,0,8.8-13.3,0-13.3C398.7,35.7,398.7,49,407.5,49 M411.8,21.2
				c-0.7,0-1.3,0-2,0c-0.7,0-1.5,0-2.3,0c-0.7,0-1.3,0-2,0c-0.6,0-1.3,0-1.9,0c-6.9,0-13.3,0.6-16.1,7.6c-1.2,3-1.1,6.6-1.1,11.5
				c0,0.6,0,1.3,0,2c0,0.6,0,1.1,0,1.6c0,4.6,0,8.9,1.1,11.9c2.7,7,9.2,7.6,16.1,7.6c0.6,0,1.3,0,1.9,0c0.6,0,1.3,0,2,0
				c0.7,0,1.4,0,2.1,0c0.7,0,1.4,0,2.1,0c6.5,0,13.1-0.6,15.9-7.6c1.2-3,1.1-6.6,1.1-11.5c0-0.6,0-1.3,0-2c0-0.7,0-1.5,0-2.2
				c0-6.7,0.1-11.5-3.7-15.3C421.5,21.5,417.1,21.2,411.8,21.2L411.8,21.2z M405.7,27C405.7,27,405.7,27,405.7,27c1.1,0,2.2,0,3.2,0
				c1,0,1.9,0,2.8,0c4.8,0,7.5,0.3,9,1.9c2.4,2.5,2.6,8.9,2,21.5c-0.3,6.3-3.5,7.3-10.7,7.3c-0.7,0-1.4,0-2.2,0c-0.8,0-1.6,0-2.4,0
				c-15.3,0-15.3,0-15.3-15.3c0-7.7,0.3-11.7,2-13.5C395.8,27.1,399.2,27,405.7,27C405.6,27,405.7,27,405.7,27L405.7,27z
				 M418.2,28.2c-1.9,0-3.5,1.6-3.5,3.5c0,1.9,1.6,3.5,3.5,3.5s3.5-1.6,3.5-3.5C421.6,29.8,420.1,28.2,418.2,28.2L418.2,28.2z
				 M407.5,31c-6.3,0-11.4,5.1-11.4,11.4c0,6.3,5.1,11.4,11.4,11.4c6.3,0,11.4-5.1,11.4-11.4C418.8,36.1,413.7,31,407.5,31L407.5,31
				z M407.5,47.9c-1.7,0-3.2-0.6-4.1-1.7c-0.9-1-1.4-2.4-1.4-3.9c0-2.7,1.7-5.6,5.5-5.6c1.7,0,3.2,0.6,4.1,1.7
				c0.9,1,1.4,2.4,1.4,3.9C413,45,411.3,47.9,407.5,47.9L407.5,47.9z"/>
		</g>
	</g>
	<g>
		<g>
			<path class="st15" d="M296.9,7.7c-0.7-2.7-2.8-4.8-5.5-5.5c-4.9-1.3-24.3-1.3-24.3-1.3s-19.4,0-24.3,1.3
				c-2.6,0.7-4.8,2.9-5.5,5.5c-1.3,4.9-1.3,14.9-1.3,14.9s0,10.1,1.3,14.9c0.7,2.7,2.8,4.8,5.5,5.5c4.9,1.3,24.3,1.3,24.3,1.3
				s19.4,0,24.3-1.3c2.7-0.7,4.8-2.8,5.5-5.5c1.3-4.9,1.3-14.9,1.3-14.9S298.2,12.5,296.9,7.7z"/>
			<path class="st1" d="M267.1,45.2c-0.8,0-19.6,0-24.5-1.4c-3-0.8-5.3-3.1-6.1-6.1c-1.3-4.9-1.3-14.7-1.3-15.2
				c0-0.4,0-10.2,1.3-15.2c0.8-2.9,3.2-5.3,6.1-6.1C247.5,0,266.3,0,267.1,0s19.6,0,24.5,1.4c3,0.8,5.3,3.1,6.1,6.1
				c1.3,4.9,1.3,14.8,1.3,15.2c0,0.4,0,10.2-1.3,15.2c-0.8,3-3.1,5.3-6.1,6.1C286.8,45.2,267.9,45.2,267.1,45.2z M267.1,1.7
				c-0.2,0-19.4,0-24.1,1.3c-2.3,0.6-4.2,2.6-4.9,4.9c-1.2,4.7-1.2,14.6-1.2,14.7c0,0.1,0,10.1,1.2,14.7c0.6,2.4,2.5,4.2,4.9,4.9
				c4.7,1.3,23.9,1.3,24.1,1.3c0.2,0,19.4,0,24.1-1.3c2.4-0.6,4.2-2.5,4.9-4.9c1.2-4.7,1.2-14.6,1.2-14.7c0-0.1,0-10.1-1.2-14.8l0,0
				c-0.6-2.4-2.5-4.2-4.9-4.9C286.5,1.8,267.3,1.7,267.1,1.7z"/>
		</g>
		<g>
			<g>
				<path class="st14" d="M261,32.8c-0.2,0-0.3,0-0.4-0.1c-0.3-0.2-0.4-0.4-0.4-0.8V13.3c0-0.3,0.2-0.6,0.4-0.8
					c0.1-0.1,0.3-0.1,0.4-0.1c0.1,0,0.3,0,0.4,0.1l16.2,9.3c0.3,0.2,0.4,0.4,0.4,0.8c0,0.3-0.2,0.6-0.4,0.8l-16.2,9.3
					C261.3,32.8,261.1,32.8,261,32.8z"/>
			</g>
			<g>
				<path class="st1" d="M261,13.3l16.2,9.3L261,31.9V13.3 M261,11.6c-0.3,0-0.6,0.1-0.9,0.2c-0.5,0.3-0.9,0.9-0.9,1.5v18.6
					c0,0.6,0.3,1.2,0.9,1.5c0.3,0.2,0.6,0.2,0.9,0.2c0.3,0,0.6-0.1,0.9-0.2l16.2-9.3c0.5-0.3,0.9-0.9,0.9-1.5s-0.3-1.2-0.9-1.5
					l-16.2-9.3C261.6,11.6,261.3,11.6,261,11.6L261,11.6z"/>
			</g>
		</g>
	</g>
	<g>
		<g>
			<path class="st16" d="M44.1,211.5h-17c-0.9,0-1.7,0.8-1.7,1.7v34c0,0.9,0.8,1.7,1.7,1.7h17c0.9,0,1.7-0.8,1.7-1.7v-34
				C45.8,212.3,45,211.5,44.1,211.5z"/>
			<path class="st16" d="M27.1,228.5h-17c-0.9,0-1.7,0.8-1.7,1.7v17c0,0.9,0.8,1.7,1.7,1.7h17c0.9,0,1.7-0.8,1.7-1.7v-17
				C28.8,229.3,28.1,228.5,27.1,228.5z"/>
		</g>
		<path class="st17" d="M61.1,194.6h-17c-0.9,0-1.7,0.8-1.7,1.7v51c0,0.9,0.8,1.7,1.7,1.7h17c0.9,0,1.7-0.8,1.7-1.7v-51
			C62.8,195.3,62,194.6,61.1,194.6z"/>
	</g>
	<g id="g367_4_">
		<g id="g373_4_" transform="translate(439.5,223.5)">
			<g id="path375_4_">
				<path class="st18" d="M-346.5-82.5c-8.7,24.2-35.4,36.8-59.6,28.1c-24.2-8.7-36.8-35.4-28.1-59.6c8.7-24.2,35.4-36.8,59.6-28.1
					C-350.4-133.4-337.8-106.7-346.5-82.5"/>
			</g>
		</g>
		<g id="g377_4_" transform="translate(439.5,223.5)">
			<g id="path379_4_">
				<path class="st19" d="M-346.5-82.5c-8.7,24.2-35.4,36.8-59.6,28.1c-13.1-4.7-22.9-14.7-27.6-26.8c5.3,9.5,13.9,17.3,25,21.3
					c24.2,8.7,50.9-3.9,59.6-28.1c4-11.1,3.5-22.7-0.5-32.8C-343.4-109.5-341.8-95.6-346.5-82.5"/>
			</g>
		</g>
		<g id="g381_4_" transform="translate(386.5,223.5)">
			<g id="path383_4_">
				<path class="st20" d="M-304.3-86.4c6.6-18.3-2.9-38.4-21.2-45c-18.3-6.6-38.4,2.9-45,21.2c-6.6,18.3,2.9,38.4,21.2,45
					S-310.9-68.1-304.3-86.4"/>
			</g>
		</g>
		<g id="g385_4_" transform="translate(386.5,223.5)">
			<g id="path387_4_">
				<path class="st21" d="M-304.3-86.4c-6.6,18.3-26.7,27.8-45,21.2c-10.2-3.7-17.6-11.5-21.1-20.9c4,6.9,10.4,12.5,18.5,15.4
					c18.3,6.6,38.4-2.9,45-21.2c2.9-8.1,2.7-16.6-0.1-24.1C-302-107.3-300.6-96.5-304.3-86.4"/>
			</g>
		</g>
		<g id="g389_4_" transform="translate(333.5,223.5)">
			<g id="path391_4_">
				<path class="st18" d="M-262.1-90.2c4.4-12.3-2-25.9-14.3-30.4c-12.3-4.4-25.9,2-30.4,14.3c-4.4,12.3,2,25.9,14.3,30.4
					C-280.1-71.5-266.5-77.9-262.1-90.2"/>
			</g>
		</g>
		<g id="g393_4_" transform="translate(333.5,223.5)">
			<g id="path395_4_">
				<path class="st19" d="M-262.1-90.2c-4.4,12.3-18,18.8-30.4,14.3c-7.2-2.6-12.4-8.3-14.6-15.1c2.7,4.3,6.8,7.7,12,9.5
					c12.3,4.4,25.9-2,30.4-14.3c1.8-5.1,1.8-10.5,0.3-15.3C-260.6-105.1-259.5-97.4-262.1-90.2"/>
			</g>
		</g>
		<g id="g397_4_" transform="translate(167.5,223.5)">
			<g id="path399_4_">
				<path class="st20" d="M-129.8-102.3c2.3-6.3,9.2-9.5,15.5-7.3c6.3,2.3,9.5,9.2,7.3,15.5s-9.2,9.5-15.5,7.3
					C-128.8-89.1-132-96-129.8-102.3"/>
			</g>
		</g>
		<g id="g401_4_" transform="translate(427.8701,153.4102)">
			<g id="path403_4_">
				<path class="st19" d="M-342.4,1c-1.8,2.2-3.7,4.2-5.8,6.1l-8.2-8.1c2.2-1.8,4.1-3.8,5.8-6.1L-342.4,1z"/>
			</g>
		</g>
		<g id="g405_4_" transform="translate(379.46,175.98)">
			<g id="path407_4_">
				<path class="st21" d="M-302.2-29.7c-1.7,2.3-3.6,4.3-5.8,6.1l-8.2-8.1c2.2-1.7,4.2-3.7,5.7-6.2L-302.2-29.7z"/>
			</g>
		</g>
		<g id="g409_4_" transform="translate(330.6895,198.7202)">
			<g id="path411_4_">
				<path class="st19" d="M-261.6-60.6c-1.6,2.4-3.5,4.5-5.7,6.2l-8.5-8.4c2.5-1.3,4.5-3.5,5.5-6.4L-261.6-60.6z"/>
			</g>
		</g>
		<g id="g413_4_" transform="translate(279.4902,222.6001)">
			<g id="path415_4_">
				<path class="st21" d="M-219.1-93.1c-1.1,2.8-3.1,5-5.5,6.4l-7.9-7.9c-1.5-1.5-1.7-4-0.3-5.6c0.1-0.1,0.2-0.2,0.3-0.3
					c0.8-0.8,1.9-1.2,3-1.2c1.1,0,2.2,0.4,3,1.2L-219.1-93.1z"/>
			</g>
		</g>
		<g id="g417_4_" transform="translate(500.6787,412.1377)">
			<g id="path419_4_">
				<path class="st22" d="M-381.5-305c0.3,0.2,0.3,0.6,0,0.8l-5.8,2.8l-3.6,1.7l-9.8,4.6c-0.6,0.3-1.4,0.3-2-0.1l-10.1-5.6l10.9-5.1
					l3.6-1.7l6.7-3.1L-381.5-305z"/>
			</g>
		</g>
		<g id="g421_4_" transform="translate(480.6104,387.5)">
			<g id="path423_4_">
				<path class="st23" d="M-367.3-276.8l-3.6,1.7l-11-6.1l3.6-1.7L-367.3-276.8z"/>
			</g>
		</g>
		<g id="g425_4_" transform="translate(422.1299,444.1099)">
			<g id="path427_4_">
				<path class="st22" d="M-316.6-349.2l-6.6,3l-3.6,1.6l-10.8,5l2.1-11.5c0.1-0.7,0.6-1.3,1.2-1.6l9.8-4.6l3.6-1.7l6-2.8
					c0.3-0.2,0.7,0.1,0.6,0.5L-316.6-349.2z"/>
			</g>
		</g>
		<g id="g429_5_" transform="translate(398.0996,420.6001)">
			<g id="path431_5_">
				<path class="st23" d="M-299.2-322.6l-3.6,1.6l2.3-12.8l3.6-1.7L-299.2-322.6z"/>
			</g>
		</g>
		<g id="g433_5_" transform="translate(467.8398,447.3398)">
			<g id="path435_5_">
				<path class="st24" d="M-352.8-349.7c-0.4,1-1.1,1.9-2.2,2.4l-61.2,28.9c-2,0.9-4.3,0.2-5.4-1.6c-0.1-0.1-0.1-0.2-0.2-0.4
					c-0.5-1.1-0.5-2.2-0.2-3.2c0.4-1,1.1-1.9,2.2-2.4l61.2-28.9c2.1-1,4.6-0.1,5.6,2c0.1,0.1,0.1,0.3,0.2,0.4
					C-352.5-351.6-352.5-350.6-352.8-349.7"/>
			</g>
		</g>
		<g id="g437_4_" transform="translate(467.8398,447.3398)">
			<g id="path439_4_">
				<path class="st25" d="M-352.8-349.7c-0.4,1-1.1,1.9-2.2,2.4l-61.2,28.9c-2,0.9-4.3,0.2-5.4-1.6l68.8-32.4
					C-352.5-351.6-352.5-350.6-352.8-349.7"/>
			</g>
		</g>
		<g id="g441_4_" transform="translate(381.9443,261.9277)">
			<g id="path443_4_">
				<path class="st1" d="M-297.9-131.6c0,0-0.1,0-0.1,0c-0.7-0.1-1.3-0.8-1.2-1.5c0.5-4.8,0-9.5-1.5-14.1c-0.2-0.7,0.2-1.5,0.9-1.7
					c0.7-0.2,1.5,0.2,1.7,0.9c1.6,5,2.2,10.1,1.6,15.3C-296.6-132.1-297.2-131.6-297.9-131.6z"/>
			</g>
		</g>
		<g id="g445_4_" transform="translate(324.7061,351.2832)">
			<g id="path447_4_">
				<path class="st1" d="M-275.6-189.5c-4.1,0-8.2-0.7-12.3-2.1c-9.2-3.3-16.5-10-20.7-18.8c-4.2-8.8-4.6-18.7-1.3-27.9
					s10-16.5,18.8-20.7c8.8-4.2,18.7-4.6,27.9-1.3c7.8,2.8,14.3,8,18.7,15.1c0.4,0.6,0.2,1.5-0.4,1.9s-1.5,0.2-1.9-0.4
					c-4.1-6.5-10-11.4-17.3-14c-8.5-3.1-17.7-2.6-25.9,1.2c-8.2,3.9-14.3,10.7-17.4,19.2s-2.6,17.7,1.2,25.9
					c3.9,8.2,10.7,14.3,19.2,17.4c17.5,6.3,37-2.9,43.3-20.4c0.1-0.3,0.2-0.6,0.3-0.9c0.2-0.7,1-1.1,1.7-0.9c0.7,0.2,1.1,1,0.9,1.7
					c-0.1,0.3-0.2,0.7-0.3,1C-246.6-198.8-260.7-189.5-275.6-189.5z"/>
			</g>
		</g>
		<g id="g449_4_" transform="translate(314.7051,285.0156)">
			<g id="path451_4_">
				<path class="st1" d="M-265.6-134.7c-2.8,0-5.7-0.5-8.5-1.5c-8.6-3.1-14.8-10.5-16.3-19.4c-0.1-0.7,0.4-1.4,1.1-1.6
					c0.7-0.1,1.4,0.4,1.6,1.1c1.3,7.9,6.9,14.6,14.5,17.3c11.6,4.2,24.5-1.9,28.6-13.5c1.5-4.2,1.7-8.7,0.6-13.1
					c-0.2-0.7,0.3-1.5,1-1.7c0.7-0.2,1.5,0.3,1.7,1c1.2,4.9,1,9.9-0.7,14.7C-245.7-141-255.3-134.7-265.6-134.7z"/>
			</g>
		</g>
		<g id="g453_4_" transform="translate(115.627,201.8657)">
			<g id="path455_4_">
				<path class="st1" d="M-90-78.7c-0.1,0-0.1,0-0.2,0c-0.7-0.1-1.3-0.8-1.1-1.5c0.2-1.6,0.6-3.2,1.2-4.8
					c4.7-13,19.1-19.8,32.1-15.1c4.9,1.8,9.1,4.9,12.1,9.2c0.4,0.6,0.3,1.5-0.3,1.9c-0.6,0.4-1.5,0.3-1.9-0.3
					c-2.7-3.8-6.4-6.6-10.8-8.2c-5.6-2-11.7-1.7-17.1,0.8c-5.4,2.6-9.5,7.1-11.5,12.7c-0.5,1.4-0.9,2.8-1.1,4.3
					C-88.8-79.2-89.4-78.7-90-78.7z"/>
			</g>
		</g>
		<g id="g457_4_" transform="translate(105.9727,404.7573)">
			<g id="path459_4_">
				<path class="st1" d="M-20-306.7c-0.4,0-0.8-0.2-1.1-0.5c-5.3-6.8-12.3-12-20.5-14.9c-8.3-3-17.1-3.5-25.6-1.5
					c-0.7,0.2-1.5-0.3-1.6-1s0.3-1.5,1-1.6c9-2.1,18.4-1.6,27.2,1.6c8.6,3.1,16.1,8.6,21.7,15.8c0.5,0.6,0.3,1.4-0.2,1.9
					C-19.4-306.8-19.7-306.7-20-306.7z"/>
			</g>
		</g>
		<g id="g461_4_" transform="translate(406.1338,338.8818)">
			<g id="path463_4_">
				<path class="st1" d="M-357.1-165.6c-5.4,0-10.8-0.9-16.2-2.8c-12.1-4.3-21.7-13.1-27.2-24.7c-5.5-11.6-6.1-24.6-1.8-36.7
					c4.6-12.8,14.4-23,27-28.2c0.7-0.3,1.5,0,1.8,0.7c0.3,0.7,0,1.5-0.7,1.8c-11.9,4.9-21.1,14.5-25.5,26.6
					c-4.1,11.4-3.5,23.7,1.7,34.6c5.2,10.9,14.3,19.2,25.6,23.3c23.5,8.4,49.4-3.8,57.9-27.3c2.9-8.1,3.5-16.8,1.6-25.1
					c-0.2-0.7,0.3-1.5,1-1.6c0.7-0.2,1.5,0.3,1.6,1c2,8.8,1.4,18.1-1.7,26.6C-318.9-177.9-337.4-165.6-357.1-165.6z"/>
			</g>
		</g>
		<g id="g465_4_" transform="translate(274.7295,246.1509)">
			<g id="path467_4_">
				<path class="st1" d="M-225.6-107.4c-1.5,0-3-0.3-4.5-0.8c-7-2.5-10.6-10.2-8.1-17.2c1.2-3.4,3.7-6.1,6.9-7.6
					c3.2-1.5,6.9-1.7,10.3-0.5c1.9,0.7,3.6,1.7,5,3.2c0.5,0.5,0.5,1.4,0,1.9c-0.5,0.5-1.4,0.5-1.9,0c-1.1-1.1-2.5-2-4-2.5
					c-2.7-1-5.6-0.8-8.2,0.4c-2.6,1.2-4.6,3.4-5.5,6.1c-2,5.6,0.9,11.7,6.5,13.7c5.6,2,11.7-0.9,13.7-6.5c0.5-1.4,0.7-2.9,0.6-4.4
					c-0.1-0.7,0.5-1.4,1.3-1.5c0.7-0.1,1.4,0.5,1.5,1.3c0.1,1.9-0.1,3.7-0.8,5.5C-214.9-110.9-220.1-107.4-225.6-107.4z"/>
			</g>
		</g>
		<g id="g469_4_" transform="translate(212.8672,239.4443)">
			<g id="path471_4_">
				<path class="st1" d="M-163-108.8c-0.6,0-1.3-0.1-1.9-0.3c-1.4-0.5-2.5-1.5-3.2-2.9c-1.3-2.8-0.1-6.1,2.7-7.4l61.2-28.9
					c1.3-0.6,2.9-0.7,4.3-0.2c1.4,0.5,2.5,1.5,3.2,2.9c1.3,2.8,0.1,6.1-2.7,7.4l-61.2,28.9C-161.4-109-162.2-108.8-163-108.8z
					 M-101.8-146.1c-0.4,0-0.8,0.1-1.2,0.3l-61.2,28.9l0,0c-1.4,0.7-2,2.4-1.4,3.8c0.3,0.7,0.9,1.2,1.6,1.5c0.7,0.3,1.5,0.2,2.2-0.1
					l61.2-28.9c1.4-0.7,2-2.4,1.4-3.8c-0.3-0.7-0.9-1.2-1.6-1.5C-101.1-146-101.5-146.1-101.8-146.1z M-164.8-118.2L-164.8-118.2
					L-164.8-118.2z"/>
			</g>
		</g>
		<g id="g473_4_" transform="translate(390.6611,419.603)">
			<g id="path475_4_">
				<path class="st1" d="M-293.3-320.6c-0.1,0-0.2,0-0.2,0c-0.7-0.1-1.2-0.8-1.1-1.6l2.1-11.4c0.1-0.7,0.8-1.2,1.6-1.1
					c0.7,0.1,1.2,0.8,1.1,1.6l-2.1,11.4C-292.1-321.1-292.7-320.6-293.3-320.6z"/>
			</g>
		</g>
		<g id="g477_4_" transform="translate(421.46,448.3306)">
			<g id="path479_4_">
				<path class="st1" d="M-336.8-343c-0.1,0-0.2,0-0.2,0c-0.7-0.1-1.2-0.8-1.1-1.6l2.2-12c0.1-0.4,0.4-0.8,0.8-1l21.1-10
					c0.5-0.2,1-0.2,1.4,0.2c0.4,0.3,0.6,0.8,0.5,1.3l-2.3,12.1c-0.1,0.7-0.8,1.2-1.6,1.1c-0.7-0.1-1.2-0.9-1.1-1.6l1.8-9.4
					l-18.1,8.6l-2.1,11.3C-335.6-343.5-336.2-343-336.8-343z"/>
			</g>
		</g>
		<g id="g481_4_" transform="translate(420.3096,389.9541)">
			<g id="path483_4_">
				<path class="st1" d="M-309-277.2c-0.2,0-0.5-0.1-0.7-0.2l-10.1-5.6c-0.7-0.4-0.9-1.2-0.5-1.8c0.4-0.7,1.2-0.9,1.8-0.5l10.1,5.6
					c0.7,0.4,0.9,1.2,0.5,1.8C-308.1-277.4-308.6-277.2-309-277.2z"/>
			</g>
		</g>
		<g id="g485_5_" transform="translate(449.2891,420.7114)">
			<g id="path487_4_">
				<path class="st1" d="M-350.4-301.8c-0.2,0-0.5-0.1-0.7-0.2l-10.6-5.9c-0.7-0.4-0.9-1.2-0.5-1.8c0.4-0.7,1.2-0.9,1.8-0.5l10,5.6
					l18-8.5l-8.2-4.6c-0.7-0.4-0.9-1.2-0.5-1.8s1.2-0.9,1.8-0.5l10.5,5.9c0.4,0.2,0.7,0.7,0.7,1.2s-0.3,1-0.8,1.2l-21,10
					C-350-301.9-350.2-301.8-350.4-301.8z"/>
			</g>
		</g>
	</g>
	<g>
		<g>
			<g>
				<g>
					<g>
						<g>
							<path class="st26" d="M129.2,229.1l17.2,17.2c2,2,5.2,2,7.1,0c2-2,2-5.2,0-7.1L136.3,222L129.2,229.1z"/>
							<path class="st27" d="M144.9,220.6l-7.2,7.2c-4.6,4.6-12,4.5-16.5,0c-4.6-4.6-4.5-12,0-16.5l7.2-7.2L144.9,220.6z"/>
							<path class="st26" d="M150.9,162.2l35.8,36c1.3,1.3,0.6,3.6-1.3,3.9c-16.4,2.2-25.5,3.5-37.3,15.3l-3.2,3.2L128.4,204
								l3.2-3.2c11.9-11.8,13.1-20.9,15.4-37.3C147.3,161.7,149.6,160.9,150.9,162.2L150.9,162.2z"/>
							<path class="st28" d="M142.5,223l-4.8,4.8c-4.6,4.6-12,4.5-16.5,0c-2.3-2.3-3.4-5.3-3.4-8.3c0-3,1.1-6,3.4-8.3l4.8-4.8
								c-2.3,2.3-3.4,5.3-3.4,8.3c0,3,1.1,6,3.4,8.3C130.6,227.5,138,227.5,142.5,223z"/>
							<path class="st29" d="M150.9,162.2l35.8,36c1.3,1.3,0.6,3.6-1.3,3.9c-1.3,0.2-2.6,0.4-3.9,0.5l-35.1-35.2
								c0.2-1.2,0.4-2.5,0.5-3.9C147.3,161.7,149.6,160.9,150.9,162.2L150.9,162.2z"/>
						</g>
					</g>
				</g>
			</g>
		</g>
		<g>
			<g>
				<circle class="st30" cx="204.5" cy="214.4" r="25.4"/>
				<path class="st31" d="M215.4,237.4c-1.2,0.6-2.5,1.1-3.8,1.4c-13.5,3.9-27.6-3.9-31.5-17.4c-3.9-13.5,3.9-27.6,17.4-31.5
					c1.3-0.4,2.7-0.7,4-0.8c-11.1,5.2-17.1,17.9-13.6,30.1C191.4,231.4,203.2,238.9,215.4,237.4L215.4,237.4z"/>
				<path class="st31" d="M228.9,207.4c3.9,13.5-3.9,27.6-17.4,31.5c-1.3,0.4-2.7,0.7-4,0.8c11.1-5.2,17.1-17.9,13.6-30.1
					c-3.5-12.2-15.3-19.7-27.5-18.2c1.2-0.6,2.5-1.1,3.8-1.4C210.9,186.1,225,193.9,228.9,207.4z"/>
			</g>
		</g>
		<g>
			<g>
				<circle class="st30" cx="205" cy="131.7" r="20.8"/>
				<path class="st32" d="M214,150.5c-1,0.5-2,0.9-3.1,1.2c-11.1,3.2-22.6-3.2-25.8-14.3c-3.2-11.1,3.2-22.6,14.2-25.8
					c1.1-0.3,2.2-0.5,3.3-0.7c-9.1,4.3-14,14.7-11.1,24.6C194.3,145.6,204,151.7,214,150.5L214,150.5z"/>
				<path class="st31" d="M225.1,125.9c3.2,11.1-3.2,22.6-14.2,25.8c-1.1,0.3-2.2,0.5-3.3,0.7c9.1-4.3,14-14.7,11.1-24.6
					c-2.9-10-12.5-16.1-22.5-14.9c1-0.5,2-0.9,3.1-1.2C210.3,108.5,221.9,114.8,225.1,125.9L225.1,125.9z"/>
			</g>
		</g>
		<path class="st33" d="M180.7,169.5c-0.3,0-0.6-0.1-0.8-0.3c-0.4-0.4-0.4-1.1,0-1.5l9.3-9.3c0.2-0.2,0.5-0.3,0.8-0.3
			s0.5,0.1,0.7,0.3c0.4,0.4,0.4,1.1,0,1.5l-9.3,9.3C181.2,169.4,181,169.5,180.7,169.5L180.7,169.5z"/>
		<path class="st33" d="M172,160.8c-0.1,0-0.2,0-0.4-0.1c-0.6-0.2-0.8-0.8-0.6-1.4l4.8-13.8c0.1-0.4,0.6-0.7,1-0.7
			c0.1,0,0.2,0,0.4,0.1c0.3,0.1,0.5,0.3,0.6,0.5c0.1,0.3,0.1,0.5,0,0.8l-4.8,13.8C172.9,160.5,172.5,160.8,172,160.8L172,160.8z"/>
		<path class="st33" d="M189.4,178.2c-0.5,0-0.9-0.3-1-0.7c-0.2-0.6,0.1-1.2,0.7-1.4l13.8-4.8c0.1,0,0.2-0.1,0.3-0.1
			c0.5,0,0.9,0.3,1,0.7c0.2,0.6-0.1,1.2-0.7,1.4c-0.1,0-13.5,4.7-13.9,4.8C189.6,178.2,189.5,178.2,189.4,178.2L189.4,178.2z"/>
		<path class="st1" d="M152.4,202c-5.7,3.3-9.2,7.1-9.4,7.3c-0.8,0.9-0.7,2.2,0.1,3c0.9,0.8,2.2,0.7,3-0.1c0,0,3.2-3.5,8.4-6.5
			c1-0.6,1.4-1.9,0.8-2.9C154.7,201.7,153.4,201.4,152.4,202L152.4,202z"/>
		<path class="st1" d="M160.9,198.3c-0.3,0.1-0.5,0.2-0.8,0.2c-1.1,0.4-1.8,1.6-1.4,2.7c0.3,1.1,1.5,1.8,2.6,1.4
			c0,0,0.2-0.1,0.7-0.2c1.1-0.3,1.8-1.5,1.5-2.6C163.3,198.6,162.1,197.9,160.9,198.3L160.9,198.3z"/>
		<path class="st33" d="M149.9,248.9c-1.6,0-3.2-0.6-4.3-1.8l-15-15.1l-0.6,0.2c0,0-0.2,0.1-0.6,0.1c-1.8,0-5.9-0.8-8.9-3.8
			c-5-5-5-13.1,0-18l2.8-2.8c17.4-17.3,19.2-19.1,22.7-44.2c0.3-1.9,1.9-2.9,3.3-2.9c0.9,0,1.7,0.4,2.4,1l34.1,34.2l0.8-0.7
			c3-2.8,6.6-4.8,10.6-6c2.4-0.7,4.9-1,7.3-1c11.7,0,22.2,7.9,25.5,19.2c4.1,14-4.1,28.8-18.1,32.8c-2.4,0.7-4.9,1-7.3,1
			c0,0,0,0,0,0c-11.7,0-22.2-7.9-25.5-19.2c-1.5-5.3-1.4-10.9,0.5-16.2l0.6-1.7l-1.8,0.3c-18.4,2.8-24,8.6-29.9,14.6
			c-1.4,1.4-2.9,2.9-4.5,4.3l-1.9,1.6l2.5,0.3c0.8,0.1,1.6,0.2,2.3,0.3c1.5,0.2,2.7,0.3,3.7,0.3c1.8,0,3.1-0.5,4.3-1.7
			c0.2-0.2,0.5-0.3,0.8-0.3s0.5,0.1,0.8,0.3c0.4,0.4,0.4,1.1,0,1.5c-1.6,1.6-3.4,2.3-5.8,2.3c-1.1,0-2.2-0.1-3.4-0.3
			c-0.4-0.1-0.9-0.1-1.3-0.2l-3-0.3l11.5,11.5c2.4,2.4,2.4,6.3,0,8.6C153.1,248.3,151.6,248.9,149.9,248.9z M139.1,227.9
			c-1.5,1.5-2.1,2.1-4.4,3.3l-1.4,0.7l13.8,13.8c0.8,0.8,1.8,1.2,2.8,1.2c1.1,0,2.1-0.4,2.8-1.2c0.8-0.7,1.2-1.7,1.2-2.8
			c0-1.1-0.4-2.1-1.2-2.8l-12.9-12.9L139.1,227.9z M204.5,190c-2.3,0-4.5,0.3-6.8,1c-6.3,1.8-11.4,5.9-14.6,11.7
			c-3.1,5.7-3.9,12.3-2.1,18.5c3,10.4,12.6,17.6,23.4,17.6c2.3,0,4.5-0.3,6.8-1c12.9-3.7,20.4-17.3,16.7-30.2
			C224.9,197.3,215.3,190,204.5,190z M122,212c-2,2-3.1,4.7-3.1,7.5c0,2.8,1.1,5.5,3.1,7.5c2,2,4.7,3.1,7.5,3.1
			c2.8,0,5.5-1.1,7.5-3.1l6.4-6.4l-15-15.1L122,212z M149,162.7c-0.5,0.2-0.8,0.6-0.9,1.1c-2.7,19.6-4.2,26.4-17.4,39.5l-0.8,0.8
			l15,15.1l0.8-0.8c11.9-11.8,18.5-14.3,35.1-16.7l0.5-0.1l0.3-0.5c0.6-1.1,1.4-2.2,2.1-3.1l0.6-0.8l-34.4-34.6l-0.5,0h-0.2
			L149,162.7z"/>
		<path class="st33" d="M205,153.6c-9.7,0-18.4-6.5-21.1-15.8c-3.3-11.6,3.4-23.8,15-27.1c2-0.6,4-0.9,6.1-0.9
			c9.7,0,18.4,6.5,21.1,15.8c1.6,5.6,1,11.5-1.9,16.7c-2.8,5.1-7.5,8.8-13.1,10.5C209.1,153.3,207.1,153.6,205,153.6
			C205,153.6,205,153.6,205,153.6z M205,111.9c-1.8,0-3.7,0.3-5.5,0.8c-5.1,1.5-9.3,4.8-11.8,9.4c-2.6,4.6-3.2,10-1.7,15
			c2.4,8.4,10.2,14.3,19,14.3c1.8,0,3.7-0.3,5.5-0.8c5.1-1.5,9.3-4.8,11.8-9.4c2.6-4.6,3.2-10,1.7-15
			C221.6,117.8,213.8,111.9,205,111.9z"/>
		<g>
			<g>
				<path class="st1" d="M205.6,216.4c-3.7,1.1-7.6-0.9-8.7-4.6c-1.1-3.7,0.9-7.6,4.6-8.7c3.7-1.1,7.6,0.9,8.7,4.6
					c0.3,1-0.2,2-1.2,2.3s-2-0.2-2.3-1.2c-0.5-1.8-2.4-2.8-4.2-2.2c-1.8,0.5-2.8,2.4-2.2,4.2c0.5,1.8,2.4,2.8,4.2,2.2
					c1-0.3,2,0.2,2.3,1.2C207,215.1,206.5,216.1,205.6,216.4L205.6,216.4z"/>
			</g>
			<g>
				<path class="st1" d="M208.6,226.2c-3.7,1.1-7.6-0.9-8.7-4.6c-0.3-1,0.2-2,1.2-2.3s2,0.2,2.3,1.2c0.5,1.8,2.4,2.8,4.2,2.2
					c1.8-0.5,2.8-2.4,2.2-4.2s-2.4-2.8-4.2-2.2c-1,0.3-2-0.2-2.3-1.2s0.2-2,1.2-2.3c3.7-1.1,7.6,0.9,8.7,4.6
					C214.4,221.2,212.3,225.1,208.6,226.2L208.6,226.2z"/>
			</g>
			<g>
				<path class="st1" d="M202.5,206.5c-1,0.3-2-0.2-2.3-1.2l-1-3.1c-0.3-1,0.2-2,1.2-2.3c1-0.3,2,0.2,2.3,1.2l1,3.1
					C204,205.2,203.5,206.2,202.5,206.5z"/>
			</g>
			<g>
				<path class="st1" d="M209.5,229.1c-1,0.3-2-0.2-2.3-1.2l-0.9-2.9c-0.3-1,0.2-2,1.2-2.3s2,0.2,2.3,1.2l0.9,2.9
					C211,227.8,210.5,228.8,209.5,229.1z"/>
			</g>
		</g>
		<g>
			<g>
				<path class="st1" d="M205.5,133.4c-3.3,1-6.9-0.8-7.9-4.2c-1-3.3,0.8-6.9,4.2-7.9c3.3-1,6.9,0.8,7.9,4.2
					c0.3,0.9-0.2,1.8-1.1,2.1s-1.8-0.2-2.1-1.1c-0.5-1.6-2.2-2.5-3.8-2c-1.6,0.5-2.5,2.2-2,3.8c0.5,1.6,2.2,2.5,3.8,2
					c0.9-0.3,1.8,0.2,2.1,1.1C206.9,132.2,206.4,133.1,205.5,133.4L205.5,133.4z"/>
			</g>
			<g>
				<path class="st1" d="M208.3,142.3c-3.3,1-6.9-0.8-7.9-4.2c-0.3-0.9,0.2-1.8,1.1-2.1c0.9-0.3,1.8,0.2,2.1,1.1
					c0.5,1.6,2.2,2.5,3.8,2c1.6-0.5,2.5-2.2,2-3.8c-0.5-1.6-2.2-2.5-3.8-2c-0.9,0.3-1.8-0.2-2.1-1.1c-0.3-0.9,0.2-1.8,1.1-2.1
					c3.3-1,6.9,0.8,7.9,4.2C213.5,137.7,211.6,141.3,208.3,142.3L208.3,142.3z"/>
			</g>
			<g>
				<path class="st1" d="M202.7,124.4c-0.9,0.3-1.8-0.2-2.1-1.1l-0.9-2.8c-0.3-0.9,0.2-1.8,1.1-2.1c0.9-0.3,1.8,0.2,2.1,1.1l0.9,2.8
					C204.1,123.2,203.6,124.1,202.7,124.4z"/>
			</g>
			<g>
				<path class="st1" d="M209.1,145c-0.9,0.3-1.8-0.2-2.1-1.1l-0.8-2.6c-0.3-0.9,0.2-1.8,1.1-2.1c0.9-0.3,1.8,0.2,2.1,1.1l0.8,2.6
					C210.5,143.8,210,144.7,209.1,145z"/>
			</g>
		</g>
	</g>
	<g>
		<g>
			<g>
				<path class="st34" d="M344.5,152.7l-77.6,0c-2.3,0-4.1-1.9-4.1-4.1l0-66.9l85.9,0l0,66.9C348.7,150.8,346.8,152.7,344.5,152.7z"
					/>
			</g>
			<g>
				<path class="st35" d="M348.7,148.5l0-31.4l-10.1,0l0,11.4c0,1.1-0.9,2.1-2.1,2.1l-27.2,0l0,22.1l35.3,0
					C346.8,152.7,348.7,150.8,348.7,148.5z"/>
			</g>
			<g>
				<g>
					<g>
						<path class="st36" d="M336.5,130.6l-61.5,0c-1.1,0-2.1-0.9-2.1-2.1l0-33.2c0-1.1,0.9-2.1,2.1-2.1l61.5,0
							c1.1,0,2.1,0.9,2.1,2.1l0,33.2C338.6,129.6,337.7,130.6,336.5,130.6z"/>
					</g>
				</g>
			</g>
			<g>
				<g>
					<g>
						<path class="st29" d="M277.4,128.5l0-33.2c0-1.1,0.9-2.1,2.1-2.1l-4.4,0c-1.1,0-2.1,0.9-2.1,2.1l0,33.2c0,1.1,0.9,2.1,2.1,2.1
							l4.4,0C278.3,130.5,277.4,129.6,277.4,128.5z"/>
					</g>
				</g>
			</g>
			<g>
				<path class="st35" d="M268.3,148.5l0-66.9l-5.4,0l0,66.9c0,2.3,1.9,4.1,4.1,4.1l5.4,0C270.1,152.6,268.3,150.8,268.3,148.5z"/>
			</g>
			<g>
				<g>
					<g>
						<path class="st37" d="M344.6,69.6l-77.6,0c-2.3,0-4.1,1.9-4.1,4.1l0,10.5l85.9,0l0-10.5C348.7,71.4,346.9,69.6,344.6,69.6z"/>
					</g>
				</g>
			</g>
			<g>
				<g>
					<g>
						<path class="st38" d="M272.4,69.5l-5.4,0c-2.3,0-4.1,1.9-4.1,4.1l0,10.5l5.4,0l0-10.5C268.3,71.4,270.1,69.5,272.4,69.5z"/>
					</g>
				</g>
			</g>
			<g>
				<g>
					<g>
						<path class="st29" d="M309.3,125.4l0,5.2l27.2,0c1.1,0,2.1-0.9,2.1-2.1l0-11.4l-21,0C313,117.1,309.3,120.8,309.3,125.4z"/>
					</g>
				</g>
			</g>
			<g>
				<g>
					<g>
						<path class="st36" d="M293.4,145.1l0-7.1c0-0.8,0.8-1.3,1.5-0.9l8.9,4.5l-8.9,4.5C294.3,146.4,293.4,145.9,293.4,145.1
							L293.4,145.1z"/>
					</g>
				</g>
			</g>
			<g>
				<path class="st34" d="M301.2,120.2l13.3-7.4c0.7-0.4,0.7-1.4,0-1.8l-13.3-7.4c-0.7-0.4-1.5,0.1-1.5,0.9l0,14.9
					C299.6,120.1,300.5,120.6,301.2,120.2L301.2,120.2z"/>
			</g>
			<g>
				<g>
					<path class="st39" d="M362.7,172.5l-45.1,0c-1.7,0-3.1-1.4-3.1-3.1l0-44.1c0-1.7,1.4-3.1,3.1-3.1l45.1,0c1.7,0,3.1,1.4,3.1,3.1
						l0,44.1C365.8,171.1,364.4,172.5,362.7,172.5z"/>
				</g>
			</g>
			<g>
				<g>
					<path class="st40" d="M318.9,169.4l0-44.1c0-1.7,1.4-3.1,3.1-3.1l-4.5,0c-1.7,0-3.1,1.4-3.1,3.1l0,44.1c0,1.7,1.4,3.1,3.1,3.1
						l4.5,0C320.3,172.5,318.9,171.1,318.9,169.4z"/>
				</g>
			</g>
			<g>
				<g>
					<g>
						<path class="st36" d="M365.8,135.6l-10.2,0c-1.7,0-3.1-1.4-3.1-3.1l0-10.2l10.2,0c1.7,0,3.1,1.4,3.1,3.1L365.8,135.6z"/>
					</g>
				</g>
			</g>
		</g>
		<g>
			<path class="st1" d="M307.3,151.1l-40.4,0c-1.4,0-2.6-1.2-2.6-2.6l0-29.1c0-0.9-0.7-1.6-1.6-1.6c-0.9,0-1.6,0.7-1.6,1.6l0,29.1
				c0,3.1,2.6,5.7,5.7,5.7l40.4,0c0.9,0,1.6-0.7,1.6-1.6C308.9,151.8,308.2,151.1,307.3,151.1z"/>
			<path class="st1" d="M262.8,112.5c0.9,0,1.6-0.7,1.6-1.6l0-25.1l59.4,0c0.9,0,1.6-0.7,1.6-1.6s-0.7-1.6-1.6-1.6l-59.4,0l0-9
				c0-1.4,1.2-2.6,2.6-2.6l77.6,0c1.4,0,2.6,1.2,2.6,2.6l0,9l-15.6,0c-0.9,0-1.6,0.7-1.6,1.6s0.7,1.6,1.6,1.6l15.6,0l0,29.3
				c0,0.9,0.7,1.6,1.6,1.6c0.9,0,1.6-0.7,1.6-1.6l0-41.4c0-3.1-2.6-5.7-5.7-5.7L267,68c-3.1,0-5.7,2.6-5.7,5.7l0,37.2
				C261.3,111.8,262,112.5,262.8,112.5L262.8,112.5z"/>
			<path class="st1" d="M270.6,75.8c-0.9,0-1.6,0.7-1.6,1.6s0.7,1.6,1.6,1.6l1.6,0c0.9,0,1.6-0.7,1.6-1.6s-0.7-1.6-1.6-1.6
				L270.6,75.8z"/>
			<path class="st1" d="M278.4,75.8c-0.9,0-1.6,0.7-1.6,1.6s0.7,1.6,1.6,1.6l1.6,0c0.9,0,1.6-0.7,1.6-1.6s-0.7-1.6-1.6-1.6
				L278.4,75.8z"/>
			<path class="st1" d="M286.2,75.8c-0.9,0-1.6,0.7-1.6,1.6s0.7,1.6,1.6,1.6l1.6,0c0.9,0,1.6-0.7,1.6-1.6s-0.7-1.6-1.6-1.6
				L286.2,75.8z"/>
			<g>
				<path class="st1" d="M293.7,146.4c-0.4-0.3-0.7-0.8-0.7-1.3l0-3.1l-6.5,0c-0.1,0-0.2,0-0.2-0.1c-0.1-0.1-0.2-0.2-0.2-0.4
					c0-0.2,0.1-0.3,0.1-0.3c0.1-0.1,0.2-0.1,0.3-0.1l6.5,0l0-3.1c0-0.5,0.3-1,0.7-1.3c0.4-0.3,1-0.3,1.5-0.1l8.8,4.4l3.9,0
					c0.1,0,0.2,0,0.2,0.1c0.1,0.1,0.2,0.2,0.2,0.4c0,0.2-0.1,0.3-0.1,0.3c-0.1,0.1-0.2,0.1-0.3,0.1l-3.9,0l-8.8,4.4
					c-0.2,0.1-0.4,0.2-0.7,0.2C294.2,146.6,293.9,146.6,293.7,146.4L293.7,146.4z M293.9,137.1l0,9l8.9-4.5L293.9,137.1z"/>
				<path class="st1" d="M293.5,146.8L293.5,146.8c-0.6-0.4-0.9-1-0.9-1.7l0-2.7l-6.1,0c-0.5,0-0.9-0.4-0.9-0.9
					c0-0.2,0.1-0.5,0.3-0.6c0.1-0.1,0.3-0.3,0.6-0.3l6.1,0l0-2.7c0-0.7,0.3-1.3,0.9-1.6c0.6-0.4,1.3-0.4,1.9-0.1l8.8,4.4l3.8,0
					c0.5,0,0.9,0.4,0.9,0.9c0,0.2-0.1,0.5-0.3,0.6c-0.2,0.2-0.4,0.3-0.6,0.3l-3.8,0l-8.8,4.4c-0.3,0.1-0.6,0.2-0.9,0.2
					C294.1,147,293.8,147,293.5,146.8z M293.5,137.5c-0.1,0.2-0.1,0.3-0.1,0.5l0,3.5l-6.9,0l0,0.1l6.9,0l0,3.5c0,0.2,0,0.3,0.1,0.5
					L293.5,137.5z M303.8,141.6l-9.3,4.6c0,0,0,0,0,0c0.2,0,0.3,0,0.5-0.1l9-4.5l3.9,0l0-0.1l-4.1-0.1L295,137
					c-0.2-0.1-0.3-0.1-0.5-0.1L303.8,141.6z M294.3,137.8l0,7.6l7.6-3.8L294.3,137.8z"/>
			</g>
			<path class="st1" d="M272.9,145.2c0.9,0,1.6-0.7,1.6-1.6l0-4.1c0-0.9-0.7-1.6-1.6-1.6c-0.9,0-1.6,0.7-1.6,1.6l0,4.1
				C271.4,144.5,272.1,145.2,272.9,145.2z"/>
			<path class="st1" d="M280.5,143.6l0-4.1c0-0.9-0.7-1.6-1.6-1.6c-0.9,0-1.6,0.7-1.6,1.6l0,4.1c0,0.9,0.7,1.6,1.6,1.6
				C279.8,145.2,280.5,144.5,280.5,143.6z"/>
			<path class="st1" d="M315.2,109.6l-13.3-7.4c-0.8-0.5-1.8-0.4-2.6,0c-0.8,0.5-1.3,1.3-1.3,2.2l0,14.9c0,0.9,0.5,1.8,1.3,2.2
				c0.4,0.2,0.9,0.4,1.3,0.4c0.4,0,0.9-0.1,1.3-0.3l13.3-7.4c0.8-0.5,1.3-1.3,1.3-2.3C316.6,110.9,316.1,110.1,315.2,109.6
				L315.2,109.6z M301.2,118.4l0-13.1l11.7,6.5L301.2,118.4z"/>
			<path class="st1" d="M357.3,130.9C357.3,130.9,357.2,130.9,357.3,130.9c-0.2-0.2-0.2-0.3-0.2-0.4c0-0.1,0-0.2,0.1-0.3l1.2-1.2
				l-1.2-1.2c-0.1-0.1-0.1-0.3-0.1-0.3c0-0.1,0-0.2,0.1-0.3c0.1-0.1,0.4-0.2,0.6-0.1c0,0,0.1,0,0.1,0.1l1.2,1.2l1.2-1.2
				c0.1-0.2,0.4-0.2,0.6-0.1c0,0,0.1,0,0.1,0.1c0.1,0.1,0.1,0.3,0.1,0.3c0,0.1,0,0.2-0.1,0.3l-1.2,1.2l1.2,1.2
				c0.2,0.2,0.2,0.5,0,0.7c-0.1,0.1-0.3,0.1-0.3,0.1c-0.1,0-0.2,0-0.2-0.1c0,0-0.1,0-0.1-0.1l-1.2-1.2l-1.2,1.2
				c-0.1,0.1-0.3,0.1-0.3,0.1C357.5,131,357.4,131,357.3,130.9z"/>
			<path class="st1" d="M321.1,154.9c0.2,0.1,0.4,0.1,0.6,0.1c0.6,0,1.2-0.4,1.5-1l0.8-2l5.2,0l0.7,2c0.3,0.8,1.2,1.2,2,0.9
				c0.8-0.3,1.2-1.2,0.9-2l-4.5-12c0,0,0,0,0,0c-0.3-0.7-0.9-1.1-1.7-1.1c0,0,0,0,0,0c-0.7,0-1.4,0.4-1.7,1.1c0,0,0,0,0,0l-4.6,12
				C319.9,153.7,320.3,154.6,321.1,154.9L321.1,154.9z M326.5,145.1l1.4,3.7l-2.8,0L326.5,145.1z"/>
			<path class="st1" d="M335.8,153.3c0,0.4,0.2,0.7,0.5,1c0.3,0.3,0.7,0.5,1.1,0.5l0,0c0.1,0,2.5,0,3.4,0c3.6-0.1,6.2-3.2,6.2-7.4
				c0-4.5-2.5-7.5-6.3-7.5l-3.3,0c-0.4,0-0.8,0.2-1.1,0.5c-0.3,0.3-0.5,0.7-0.5,1.1C335.8,141.4,335.8,153.2,335.8,153.3z
				 M340.7,143c3,0,3.2,3.3,3.2,4.3c0,2.1-1,4.3-3.1,4.3c-0.4,0-1.2,0-1.8,0c0-1.4,0-7.2,0-8.7L340.7,143z"/>
			<path class="st1" d="M354.9,151.9c-1.2,0-2.4-0.5-3.1-1.3c-0.6-0.6-1.6-0.7-2.2-0.1c-0.6,0.6-0.7,1.6-0.1,2.2
				c1.3,1.4,3.3,2.3,5.4,2.3c2.6,0,4.7-1.6,5.2-3.9c0.3-1.7-0.5-3.9-3.6-5.1c-1.5-0.5-2.9-1.1-3.3-1.3c-0.3-0.3-0.3-0.6-0.3-0.8
				c0-0.2,0.2-0.7,0.9-0.9c1.7-0.5,3.3,0.7,3.3,0.8c0.7,0.5,1.6,0.5,2.2-0.2c0.6-0.7,0.5-1.6-0.2-2.2c-0.1-0.1-2.9-2.4-6.2-1.4
				c-1.7,0.5-2.9,1.8-3.1,3.5c-0.2,1.5,0.4,3,1.7,3.9c0.1,0,0.1,0.1,0.2,0.1c0.1,0,1.7,0.8,3.6,1.5c0.5,0.2,1.7,0.7,1.6,1.6
				C356.8,151.2,356,151.9,354.9,151.9L354.9,151.9z"/>
			<path class="st1" d="M362.7,120.7l-10.2,0l-12.3,0l0-25.5c0-2-1.6-3.6-3.6-3.6l-61.5,0c-2,0-3.6,1.6-3.6,3.6l0,33.2
				c0,2,1.6,3.6,3.6,3.6l37.9,0l0,37.3c0,2.6,2.1,4.7,4.7,4.7l45.1,0c2.6,0,4.7-2.1,4.7-4.7l0-19c0-0.9-0.7-1.6-1.6-1.6
				s-1.6,0.7-1.6,1.6l0,19c0,0.9-0.7,1.6-1.6,1.6l-45.1,0c-0.9,0-1.6-0.7-1.6-1.6l0-44.1c0-0.9,0.7-1.6,1.6-1.6l33.4,0l0,8.7
				c0,2.6,2.1,4.7,4.7,4.7l8.7,0l0,5.9c0,0.9,0.7,1.6,1.6,1.6c0.9,0,1.6-0.7,1.6-1.6l0-7.4l0-10.2
				C367.3,122.8,365.3,120.7,362.7,120.7z M312.9,125.4l0,3.6l-37.9,0c-0.3,0-0.5-0.2-0.5-0.5l0-33.2c0-0.3,0.2-0.5,0.5-0.5l61.5,0
				c0.3,0,0.5,0.2,0.5,0.5l0,25.5l-19.5,0C315,120.7,312.9,122.8,312.9,125.4z M355.6,134c-0.9,0-1.6-0.7-1.6-1.6l0-8.7l8.7,0
				c0.9,0,1.6,0.7,1.6,1.6l0,8.7L355.6,134z"/>
			<path class="st1" d="M358.6,157.9l-36.9,0c-0.9,0-1.6,0.7-1.6,1.6c0,0.9,0.7,1.6,1.6,1.6l36.9,0c0.9,0,1.6-0.7,1.6-1.6
				S359.4,157.9,358.6,157.9z"/>
			<path class="st1" d="M358.6,164.3l-36.9,0c-0.9,0-1.6,0.7-1.6,1.6s0.7,1.6,1.6,1.6l36.9,0c0.9,0,1.6-0.7,1.6-1.6
				S359.4,164.3,358.6,164.3z"/>
		</g>
	</g>
</g>
</svg>
