<?xml version="1.0" encoding="utf-8"?>
<!-- Generator: Adobe Illustrator 25.0.0, SVG Export Plug-In . SVG Version: 6.00 Build 0)  -->
<svg version="1.1" id="Layer_1" xmlns="http://www.w3.org/2000/svg" xmlns:xlink="http://www.w3.org/1999/xlink" x="0px" y="0px"
	 viewBox="0 0 536.5 250" style="enable-background:new 0 0 536.5 250;" xml:space="preserve">
<style type="text/css">
	.st0{fill:#FCF9F5;}
	.st1{fill:#3F597D;}
	.st2{fill:#5D748A;}
	.st3{fill:#F0E9E6;}
	.st4{fill:none;}
	.st5{fill:#35414D;}
	.st6{fill:#656D78;}
	.st7{fill:#F4F6F8;}
	.st8{fill:#E4E8EB;}
	.st9{fill:#FDF6EC;stroke:#35414D;stroke-width:2.3139;stroke-miterlimit:10;}
	.st10{fill:#F16C7A;}
	.st11{fill:#3A312A;}
	.st12{fill:#D7E057;}
	.st13{fill:#8AC6DD;}
	.st14{fill:#87796F;}
	.st15{fill:#F9EDE1;}
	.st16{fill:#FEDA9B;}
	.st17{fill:#FFB954;}
	.st18{fill:#FF5D5D;}
	.st19{fill:#FF5A5A;}
	.st20{fill:#C1A897;}
	.st21{fill:#FFFFFF;}
	.st22{fill-rule:evenodd;clip-rule:evenodd;fill:#FFB54C;}
	.st23{fill-rule:evenodd;clip-rule:evenodd;fill:#35414D;}
	.st24{fill-rule:evenodd;clip-rule:evenodd;fill:#FFA733;}
	.st25{fill-rule:evenodd;clip-rule:evenodd;fill:#2FB1D4;}
	.st26{fill-rule:evenodd;clip-rule:evenodd;fill:#FF5A5A;}
	.st27{fill:#F6C560;}
	.st28{opacity:4.000000e-02;}
</style>
<g>
	<g>
		<path class="st0" d="M532.7,39.9v151.5H283.6l-0.2-151.1c0-5.6,1.7-10.6,7.3-10.6h231.9C528.2,29.8,532.7,34.3,532.7,39.9
			L532.7,39.9z"/>
		<path class="st1" d="M425.7,233l-4.6-14.2l0,0h0l-2.1-6.6l-12.8-12l-12,12l-6.7,20.8h12.3l0,0H425.7z"/>
		<path class="st2" d="M446.2,238.9c-2.3-4.8-7.2-8.1-12.8-8.1h-47.2l-5.8,2.1c-0.8,0-12.2,4.4-12.2,11.5c0,2.8,2.3,5.1,5.1,5.1
			l67.5-0.5c2.8,0,5.1-2.3,5.1-5.1c0-1,1.6-1,1.4-1.9C447,240.8,446.7,239.8,446.2,238.9L446.2,238.9z"/>
		<path class="st1" d="M447.6,244.9c0,2.8-2.3,5.1-5.1,5.1h-71.7c-2.8,0-5.1-2.3-5.1-5.1c0-7.1,5.2-12.9,12-14
			c0.7-0.1,1.5-0.2,2.2-0.2h6.3l-3.5,4.6c-2,2.7-0.1,6.5,3.2,6.5h61.3C447.5,242.9,447.6,243.9,447.6,244.9L447.6,244.9z"/>
		<path class="st3" d="M290.7,181.3V29.8c-5.6,0-10.1,4.5-10.1,10.1v151.5h3h7.1h242v-8.1h-240C291.6,183.4,290.7,182.5,290.7,181.3
			z"/>
		<path class="st2" d="M532.7,191.5v5.2c0,5.6-7.7,13.6-13.3,13.6l-226.1,0.1c-5.6,0-10.1-4.5-10.1-10.1l-2.5-8.7H532.7z"/>
		<path class="st4" d="M522.6,33.6H290.7c-3.5,0-6.3,2.8-6.3,6.3v162.1c0,3.5,2.8,6.3,6.3,6.3h213.6v-19.6h24.6V39.9
			C528.9,36.4,526.1,33.6,522.6,33.6z"/>
		<path class="st1" d="M290.7,208.4c-3.5,0-6.3-2.8-6.3-6.3V39.9c0-3.5,2.8-6.3,6.3-6.3h231.9c3.5,0,6.3,2.8,6.3,6.3v148.9l7.6-1.5
			V39.9c0-7.7-6.3-14-14-14H290.7c-7.7,0-14,6.3-14,14v162.1c0,7.7,6.3,14,14,14h216.7l-3.1-7.6H290.7z"/>
	</g>
	<path class="st5" d="M388.5,203.1h36.4c1.6,0,2.9-1.3,2.9-2.9c0-1.6-1.3-2.9-2.9-2.9h-36.4c-1.6,0-2.9,1.3-2.9,2.9
		C385.6,201.8,386.9,203.1,388.5,203.1z"/>
	<g>
		<polygon class="st6" points="495.3,20.7 494.5,20.7 494.5,35.8 320,35.8 320,18.9 317.7,16.6 318.9,7.2 324.4,4.1 335.7,5.5 
			476.3,5.5 476.3,4.1 494.5,5.5 		"/>
		<path class="st7" d="M494.5,35.8v125c0,8.7-7,15.7-15.7,15.7H335.7c-11.2,3.1-21.5,0-15.7-15.7l0,0v-125L494.5,35.8z"/>
		<path class="st8" d="M494.5,35.8v125c0.7,8.3,5.9,18.6-15.7,15.7H335.7c-19,1.9-19-5.9-16.9-12.1c1.2,0.3,3.9,0.3,5.1,0.3h17.9
			c73.2,0,134.3-56,140.4-128.9L494.5,35.8z"/>
		<g>
			<path class="st9" d="M475.7,25h-61.8c-2.4,0-4.4-2-4.4-4.4v0c0-2.4,2-4.4,4.4-4.4h61.8c2.4,0,4.4,2,4.4,4.4v0
				C480.1,23,478.1,25,475.7,25z"/>
			<g>
				<circle class="st10" cx="338.9" cy="20.6" r="5.2"/>
				<path class="st11" d="M338.9,27c-3.5,0-6.4-2.9-6.4-6.4s2.9-6.4,6.4-6.4c3.5,0,6.4,2.9,6.4,6.4S342.5,27,338.9,27z M338.9,16.6
					c-2.2,0-4.1,1.8-4.1,4.1s1.8,4.1,4.1,4.1c2.2,0,4.1-1.8,4.1-4.1C343,18.4,341.2,16.6,338.9,16.6z"/>
			</g>
			<g>
				<circle class="st12" cx="355.1" cy="20.6" r="5.2"/>
				<path class="st11" d="M355.1,27c-3.5,0-6.4-2.9-6.4-6.4s2.9-6.4,6.4-6.4c3.5,0,6.4,2.9,6.4,6.4S358.7,27,355.1,27z M355.1,16.6
					c-2.2,0-4.1,1.8-4.1,4.1s1.8,4.1,4.1,4.1c2.2,0,4.1-1.8,4.1-4.1C359.2,18.4,357.4,16.6,355.1,16.6z"/>
			</g>
			<g>
				<circle class="st13" cx="371.3" cy="20.6" r="5.2"/>
				<path class="st11" d="M371.3,27c-3.5,0-6.4-2.9-6.4-6.4s2.9-6.4,6.4-6.4s6.4,2.9,6.4,6.4S374.8,27,371.3,27z M371.3,16.6
					c-2.2,0-4.1,1.8-4.1,4.1s1.8,4.1,4.1,4.1s4.1-1.8,4.1-4.1C375.4,18.4,373.6,16.6,371.3,16.6z"/>
			</g>
		</g>
		<path class="st5" d="M482.7,5.5c6.5,0,11.8,5.3,11.8,11.8v147.4c0,6.5-5.3,11.8-11.8,11.8h-151c-6.5,0-11.8-5.3-11.8-11.8V17.3
			c0-6.5,5.3-11.8,11.8-11.8H482.7 M482.7,0h-151c-9.6,0-17.3,7.8-17.3,17.3v147.4c0,9.6,7.8,17.3,17.3,17.3h151
			c9.6,0,17.3-7.8,17.3-17.3V17.3C500.1,7.8,492.3,0,482.7,0L482.7,0z"/>
	</g>
	<g>
		<path class="st14" d="M369.6,90l-13.6,10.9v50.4c0,4.7,3.8,8.4,8.4,8.4h84.3c4.7,0,8.4-3.8,8.4-8.4v-50.4l-13.6-10.6"/>
		<rect x="370.5" y="58.5" class="st15" width="72.4" height="78.4"/>
		<path class="st16" d="M420.4,137.8h-28.7l-35.7-36.9v50.4c0,4.7,3.8,8.4,8.4,8.4h84.3c4.7,0,8.4-3.8,8.4-8.4v-50.4L420.4,137.8z"
			/>
		<path class="st17" d="M363.1,158.2l29.8-27.1c7.8-7.1,19.7-7.1,27.5,0l29.8,27.1H363.1z"/>
		<g>
			<path class="st18" d="M427.6,83.2c2.6-2.6,2.6-6.8,0-9.5c-2.6-2.6-6.8-2.6-9.5,0L427.6,83.2z"/>
			<path class="st19" d="M405.8,108.3l-7.7,7.7c-3.5,3.5-9.3,3.5-12.8,0l0,0c-3.5-3.5-3.5-9.3,0-12.8l7.7-7.7L405.8,108.3z"/>
		</g>
		<polygon class="st14" points="405.8,108.3 414.8,117.4 409.3,122.9 400.3,113.8 		"/>
		<polygon class="st20" points="405.8,108.3 393,95.5 407,62.6 438.7,94.3 		"/>
		<polygon class="st21" points="430.2,97.9 438.7,94.3 407,62.6 403.4,71.1 		"/>
		<path class="st5" d="M394.7,71.4c-0.4,0-0.7-0.1-1-0.4s-0.4-0.6-0.4-1s0.1-0.7,0.4-1c0.3-0.3,0.6-0.4,1-0.4s0.7,0.1,1,0.4
			c0.3,0.3,0.4,0.6,0.4,1s-0.1,0.7-0.4,1S395.1,71.4,394.7,71.4z"/>
		<path class="st5" d="M378.9,71.4c-0.7,0-1.4-0.6-1.4-1.4s0.6-1.4,1.4-1.4h8.3c0.7,0,1.4,0.6,1.4,1.4s-0.6,1.4-1.4,1.4H378.9z"/>
		<path class="st5" d="M378.9,82.9c-0.7,0-1.4-0.6-1.4-1.4c0-0.7,0.6-1.4,1.4-1.4h9.9c0.7,0,1.4,0.6,1.4,1.4c0,0.7-0.6,1.4-1.4,1.4
			H378.9z"/>
		<path class="st5" d="M364.5,161c-5.4,0-9.8-4.4-9.8-9.8v-50.4c0-0.4,0.2-0.8,0.5-1.1l13.6-10.9l0,0l0.3-0.2V58.5
			c0-0.7,0.6-1.4,1.4-1.4h25.1c0.7,0,1.4,0.6,1.4,1.4c0,0.7-0.6,1.4-1.4,1.4h-23.7v54.5c0,0,0,0,0,0c0,0,0,0,0,0v0.3l17.7,17.7
			l2.5-2.2c4-3.7,9.2-5.7,14.7-5.7c0.2,0,0.4,0,0.6,0l1.8,0l-8.8-8.8L399,117c-2,2-4.6,3-7.4,3s-5.4-1.1-7.4-3c-2-2-3-4.6-3-7.4
			s1.1-5.4,3-7.4l7.6-7.6l13.9-32.7c0.2-0.4,0.5-0.7,1-0.8c0.1,0,0.2,0,0.3,0c0.4,0,0.7,0.1,1,0.4l10.2,10.2l0.5-0.3
			c1.3-0.8,2.7-1.2,4.2-1.2c2.1,0,4.2,0.8,5.7,2.4c1.5,1.5,2.4,3.5,2.4,5.7c0,1.5-0.4,2.9-1.2,4.2l-0.3,0.5l10.2,10.2
			c0.3,0.3,0.5,0.8,0.4,1.2c-0.1,0.4-0.4,0.8-0.8,1l-31.1,13.2l7.6,7.6c0.5,0.5,0.5,1.4,0,1.9l-6.3,6.3l1.3,0.3
			c3.9,0.8,7.6,2.6,10.5,5.3l2.5,2.2l17.7-17.7v-0.3l0,0l0-27.9c0-0.7,0.6-1.4,1.4-1.4c0.7,0,1.4,0.6,1.4,1.4V89l0.3,0.2l0,0
			l13.1,10.2l0.5,0.4c0.3,0.3,0.5,0.6,0.5,1.1v50.4c0,5.4-4.4,9.8-9.8,9.8H364.5z M365,158.3h83.3l-28.8-26.2c-3.5-3.2-8.1-5-12.9-5
			c-4.7,0-9.3,1.8-12.9,5L376.3,148h12.4c0.7,0,1.4,0.6,1.4,1.4s-0.6,1.4-1.4,1.4h-15.4L365,158.3z M425.8,134.2l25.3,23
			c0,0,0.1,0.1,0.1,0.1l0.4,0.4l0.5-0.3c2.3-1.2,3.8-3.6,3.8-6.3v-47.1L425.8,134.2z M357.4,151.2c0,2.6,1.4,5,3.8,6.3l0.5,0.3
			l0.4-0.4c0,0,0.1-0.1,0.1-0.1l25.3-23l-30.1-30.1V151.2z M402.2,113.8l7.1,7.1l3.6-3.6l-7.1-7.1L402.2,113.8z M386.2,104.2
			c-1.5,1.5-2.3,3.4-2.3,5.4c0,2.1,0.8,4,2.3,5.4c1.5,1.5,3.4,2.3,5.4,2.3s4-0.8,5.4-2.3l6.8-6.8L393,97.5L386.2,104.2z M444.2,112
			l11-11l-11-8.6V112z M358.1,101l11,11V92.1L358.1,101z M394.6,95.2l11.5,11.5l21.8-9.3l-24-24L394.6,95.2z M405,70.8l25.5,25.5
			l5.8-2.5L407.5,65L405,70.8z M422.8,73.1c-0.6,0-1.1,0.1-1.7,0.3l-1.1,0.4l7.5,7.5l0.4-1.1c0.2-0.6,0.3-1.1,0.3-1.7
			c0-1.4-0.6-2.8-1.6-3.8C425.6,73.7,424.3,73.1,422.8,73.1z"/>
		<path class="st19" d="M434.6,68.2c-0.4,0-0.7-0.1-1-0.4c-0.5-0.5-0.5-1.4,0-1.9l8.3-8.3c0.3-0.3,0.6-0.4,1-0.4
			c0.4,0,0.7,0.1,1,0.4c0.5,0.5,0.5,1.4,0,1.9l-8.3,8.3C435.3,68.1,435,68.2,434.6,68.2z"/>
		<path class="st19" d="M426.9,64c-0.7,0-1.4-0.6-1.4-1.4v-4.1c0-0.7,0.6-1.4,1.4-1.4s1.4,0.6,1.4,1.4v4.1
			C428.2,63.4,427.6,64,426.9,64z"/>
		<path class="st19" d="M438.7,75.8c-0.7,0-1.4-0.6-1.4-1.4s0.6-1.4,1.4-1.4h4.3c0.7,0,1.4,0.6,1.4,1.4s-0.6,1.4-1.4,1.4H438.7z"/>
		<path class="st5" d="M397.1,151.1c-0.4,0-0.9-0.2-1.2-0.5c-0.3-0.3-0.5-0.8-0.5-1.2s0.2-0.9,0.5-1.2c0.3-0.3,0.8-0.5,1.2-0.5
			c0.4,0,0.9,0.2,1.2,0.5c0.3,0.3,0.5,0.8,0.5,1.2s-0.2,0.9-0.5,1.2C398,150.9,397.6,151.1,397.1,151.1z"/>
	</g>
	<path class="st21" d="M507.3,152.2c-19,0-34.4,15.4-34.4,34.4c0,12.4,6.6,23.3,16.4,29.4H506l8.1-14.6l22.4-14.7v-18.2
		C530.5,158.7,519.6,152.2,507.3,152.2z"/>
	<g>
		<path class="st22" d="M535.5,186.7c0,8.8-4.1,17.4-11.7,22.9l-16.5-22.9h4.8H535.5z"/>
		<circle class="st23" cx="507.3" cy="186.7" r="29.3"/>
		<circle class="st23" cx="507.2" cy="186.7" r="28.3"/>
		<path class="st23" d="M507.2,158.4c15.6,0,28.3,12.7,28.3,28.3h-28.3V158.4z"/>
		<path class="st24" d="M524.3,205.6l-11.6-16.2h19.9C531.9,195.8,528.8,201.5,524.3,205.6L524.3,205.6z"/>
		<path class="st25" d="M481.7,186.7c0,14.1,11.4,25.5,25.5,25.5c4.6,0,8.9-1.2,12.6-3.3L505,188.3l0,0c-0.3-0.5-0.5-1-0.5-1.6
			v-25.3C491.7,162.7,481.7,173.5,481.7,186.7z"/>
		<path class="st26" d="M532.5,183.9H510v-22.6C521.8,162.6,531.3,172,532.5,183.9z"/>
	</g>
	<g>
		<g>
			<g>
				<g>
					<g>
						<path class="st27" d="M226.8,89.3v41.9c0,1.6-1.2,3-2.6,3h-69.5c-1.6,0-2.6-1.3-2.6-3V89.3c0-1.6,1.2-2.8,2.6-2.8H224
							C225.6,86.5,226.8,87.8,226.8,89.3L226.8,89.3z"/>
					</g>
					<g class="st28">
						<path d="M226.8,89.3v41.9c0,1.6-1.2,3-2.6,3h-69.5c-1.4,0-2.6-1.3-2.6-3v-3.3h26.6c22.3,0,40.6-18.3,42.2-41.6h3.3
							C225.6,86.5,226.8,87.8,226.8,89.3L226.8,89.3z"/>
					</g>
				</g>
				<path class="st5" d="M154.7,135.3c-2.1,0-3.7-1.8-3.7-4.1V89.3c0-2.2,1.7-3.9,3.7-3.9H224c1.1,0,2.2,0.4,2.7,1.1
					c0.6,0.8,1,1.9,1,2.8v41.9c0,2.3-1.6,4.1-3.7,4.1H154.7z M153.1,131.2c0,0.9,0.6,1.9,1.6,1.9H224c1.1,0,1.8-0.7,1.8-1.9V88.9
					l-33.1,24.5c-1.1,0.8-2.2,1.2-3.4,1.2c-1.1,0-2.4-0.5-3.4-1.2l-32.7-24.5V131.2z M187,111.7c0.7,0.5,1.5,0.7,2.3,0.7
					c0.8,0,1.6-0.2,2.3-0.7l32.4-24.1h-8.2l0,0c-0.5,0-2.7,0.1-10.7,0.1c0,0,0,0,0,0c-12.2,0-30.6-0.1-30.8-0.1h-19.6L187,111.7z"/>
			</g>
			<g>
				<g>
					<g>
						<path class="st27" d="M127.3,115V157c0,1.6-1.2,3-2.6,3H55.2c-1.6,0-2.6-1.3-2.6-3V115c0-1.6,1.2-2.8,2.6-2.8h69.3
							C126.1,112.2,127.3,113.6,127.3,115L127.3,115z"/>
					</g>
					<g class="st28">
						<path d="M127.3,115V157c0,1.6-1.2,3-2.6,3H55.2c-1.4,0-2.6-1.3-2.6-3v-3.3h26.6c22.3,0,40.6-18.3,42.2-41.6h3.3
							C126.1,112.2,127.3,113.6,127.3,115L127.3,115z"/>
					</g>
				</g>
				<path class="st5" d="M55.2,161c-2.1,0-3.7-1.8-3.7-4.1V115c0-2.2,1.7-3.9,3.7-3.9h69.3c1.1,0,2.2,0.4,2.7,1.1
					c0.6,0.8,1,1.9,1,2.8V157c0,2.3-1.6,4.1-3.7,4.1H55.2z M53.6,157c0,0.9,0.6,1.9,1.6,1.9h69.3c1.1,0,1.8-0.7,1.8-1.9v-42.3
					l-33.1,24.5c-1.1,0.8-2.2,1.2-3.4,1.2c-1.1,0-2.4-0.5-3.4-1.2l-32.7-24.5V157z M87.5,137.5c0.7,0.5,1.5,0.7,2.3,0.7
					s1.6-0.2,2.3-0.7l32.4-24.1h-8.2l0,0c-0.5,0-2.7,0.1-10.7,0.1c0,0,0,0,0,0c-12.2,0-30.6-0.1-30.8-0.1H55.1L87.5,137.5z"/>
			</g>
			<g>
				<g>
					<g>
						<path class="st27" d="M330.2,109.7v44c0,1.7-1.3,3.1-2.8,3.1h-73c-1.6,0-2.8-1.4-2.8-3.1v-44c0-1.7,1.3-2.9,2.8-2.9h72.8
							C328.8,106.8,330.2,108.2,330.2,109.7L330.2,109.7z"/>
					</g>
					<g class="st28">
						<path d="M330.2,109.7v44c0,1.7-1.3,3.1-2.8,3.1h-73c-1.5,0-2.8-1.4-2.8-3.1v-3.5h28c23.4,0,42.7-19.2,44.3-43.7h3.4
							C328.8,106.8,330.2,108.2,330.2,109.7L330.2,109.7z"/>
					</g>
				</g>
				<path class="st5" d="M254.4,158c-2.2,0-3.9-1.9-3.9-4.3v-44c0-2.3,1.7-4.1,3.9-4.1h72.8c1.2,0,2.3,0.5,2.8,1.2
					c0.6,0.9,1,1.9,1,2.9v44c0,2.4-1.7,4.3-3.9,4.3H254.4z M252.7,153.8c0,0.9,0.7,2,1.7,2h72.8c1.1,0,1.9-0.8,1.9-2v-44.4
					l-34.7,25.8c-1.1,0.9-2.3,1.3-3.6,1.3c-1.2,0-2.6-0.5-3.6-1.3l-34.4-25.8V153.8z M288.3,133.3c0.7,0.5,1.6,0.7,2.4,0.7
					s1.7-0.3,2.4-0.7l34-25.3h-8.7l0,0c-0.5,0-2.8,0.1-11.2,0.1c0,0,0,0,0,0c-12.8,0-32.1-0.2-32.3-0.2h-20.5L288.3,133.3z"/>
			</g>
		</g>
		<g>
			<g>
				<path class="st2" d="M41,129.6c-5-5.7-12.8-3.6-19-1.5c-3.6,1.2-7.3,2.5-11.2,2.6c-4.9,0.1-7.9-3.6-10-7.6
					c-0.2-0.4-1-0.1-0.8,0.3c2.9,7.6,8.7,9.9,16.3,8.1c7.9-1.9,16.6-7.3,23.7-0.9C40.6,131.2,41.6,130.3,41,129.6z"/>
				<path class="st2" d="M42.8,125.9c-5.2-6.3-12.8-5-19.8-2.7c-3.8,1.2-7.5,2.7-11.5,3c-4.6,0.3-7.5-2.4-9.4-6.3
					c-0.2-0.5-1.1-0.1-0.9,0.3c7,19,29.6-6.6,40.4,6.8C42.4,127.7,43.4,126.7,42.8,125.9z"/>
				<path class="st2" d="M43.3,120.8c-0.6-0.7-1.7,0.2-1.2,1c1.5,2.3,4.4,5.8,1.9,8.5c-2,2.2-6.2,2.3-9,2.4c-0.8,0-0.8,1.2,0,1.2
					c3.5,0.1,8.3,0,10.7-2.9C48.2,127.8,45.4,123.2,43.3,120.8z"/>
			</g>
		</g>
		<g>
			<g>
				<path class="st2" d="M138.8,101.9c-5-5.7-12.8-3.6-19-1.5c-3.6,1.2-7.3,2.5-11.2,2.6c-4.9,0.1-7.9-3.6-10-7.6
					c-0.2-0.4-1-0.1-0.8,0.3c2.9,7.6,8.7,9.9,16.3,8.1c7.9-1.9,16.6-7.3,23.7-0.9C138.5,103.5,139.4,102.6,138.8,101.9z"/>
				<path class="st2" d="M140.6,98.2c-5.2-6.3-12.8-5-19.8-2.7c-3.8,1.2-7.5,2.7-11.5,3c-4.6,0.3-7.5-2.4-9.4-6.3
					c-0.2-0.5-1.1-0.1-0.9,0.3c7,19,29.6-6.6,40.4,6.8C140.2,100.1,141.3,99,140.6,98.2z"/>
				<path class="st2" d="M141.1,93.2c-0.6-0.7-1.7,0.2-1.2,1c1.5,2.3,4.4,5.8,1.9,8.5c-2,2.2-6.2,2.3-9,2.4c-0.8,0-0.8,1.2,0,1.2
					c3.5,0.1,8.3,0,10.7-2.9C146,100.1,143.2,95.5,141.1,93.2z"/>
			</g>
		</g>
		<g>
			<g>
				<path class="st2" d="M239.7,149.5c-5-5.7-12.8-3.6-19-1.5c-3.6,1.2-7.3,2.5-11.2,2.6c-4.9,0.1-7.9-3.6-10-7.6
					c-0.2-0.4-1-0.1-0.8,0.3c2.9,7.6,8.7,9.9,16.3,8.1c7.9-1.9,16.6-7.3,23.7-0.9C239.3,151.2,240.3,150.2,239.7,149.5z"/>
				<path class="st2" d="M241.5,145.9c-5.2-6.3-12.8-5-19.8-2.7c-3.8,1.2-7.5,2.7-11.5,3c-4.6,0.3-7.5-2.4-9.4-6.3
					c-0.2-0.5-1.1-0.1-0.9,0.3c7,19,29.6-6.6,40.4,6.8C241.1,147.7,242.1,146.6,241.5,145.9z"/>
				<path class="st2" d="M242,140.8c-0.6-0.7-1.7,0.2-1.2,1c1.5,2.3,4.4,5.8,1.9,8.5c-2,2.2-6.2,2.3-9,2.4c-0.8,0-0.8,1.2,0,1.2
					c3.5,0.1,8.3,0,10.7-2.9C246.8,147.8,244.1,143.2,242,140.8z"/>
			</g>
		</g>
	</g>
</g>
</svg>
