<?xml version="1.0" encoding="utf-8"?>
<!-- Generator: Adobe Illustrator 25.0.0, SVG Export Plug-In . SVG Version: 6.00 Build 0)  -->
<svg version="1.1" id="Layer_1" xmlns="http://www.w3.org/2000/svg" xmlns:xlink="http://www.w3.org/1999/xlink" x="0px" y="0px"
	 viewBox="0 0 155.7 180" style="enable-background:new 0 0 155.7 180;" xml:space="preserve">
<style type="text/css">
	.st0{fill-rule:evenodd;clip-rule:evenodd;fill:#FFF2E8;}
	.st1{fill-rule:evenodd;clip-rule:evenodd;fill:#FFE4CF;}
	.st2{fill-rule:evenodd;clip-rule:evenodd;fill:#CECECE;}
	.st3{fill:#35414D;}
	.st4{fill:#FB4455;}
	.st5{fill:#FF5F7A;}
	.st6{fill:#5AAAE7;}
	.st7{fill:#69C229;}
	.st8{fill:#FFD422;}
	.st9{fill:#E7B900;}
	.st10{fill:#F40E34;}
	.st11{fill:#A6001E;}
	.st12{fill:#FFFFFF;}
	.st13{fill:#FFF6BB;}
	.st14{fill:#FFC472;}
	.st15{fill:#434A54;}
	.st16{fill:#FFA733;}
	.st17{fill:#FF5A5A;}
</style>
<g>
	<g>
		<g id="g7750_25_" transform="translate(18.5,457.4355)">
			<g id="path7752_25_">
				<path class="st0" d="M4.1-438.3v155.8c0,1.3,1,2.4,2.2,2.4h35.3h75.7h15c1.2,0,2.2-1.1,2.2-2.4v-143.1l0-1.5
					c0-0.2,0-0.4-0.1-0.5h-18c-4.9,0-8.9-4.3-8.9-9.5l0-17.7c-0.2-0.1-0.3-0.1-0.6-0.1h-1.7h-99c-1.2,0-2.2,1.1-2.2,2.4V-438.3z"/>
			</g>
		</g>
		<g id="g7754_26_" transform="translate(257.3203,504.5)">
			<g id="path7756_26_">
				<path class="st1" d="M-155.8-501.9c17,18.7,28.1,49.1,28.1,83.5c0,7.5-0.5,14.7-1.5,21.7c-0.3,2.2-0.7,4.5-1.1,6.7
					c-0.5,2.6-1.1,5.2-1.7,7.8c-5.9,23.9-17.4,43.5-32.2,55.1h42.6h15c1.2,0,2.2-1.1,2.2-2.4v-26.4v-35v-81.6l0-1.5
					c0-0.2,0-0.4-0.1-0.5l-26.9-27.2c-0.2-0.1-0.3-0.1-0.6-0.1h-1.7H-155.8z"/>
			</g>
		</g>
		<g id="g7758_25_" transform="translate(331.5508,504.1592)">
			<g id="path7760_25_">
				<path class="st2" d="M-205.5-501.4l0,17.7c0,5.2,4,9.5,8.9,9.5h18c-0.2-0.3-0.5-0.6-1.2-1.3l-24.3-24.6
					C-204.8-500.9-205.1-501.2-205.5-501.4"/>
			</g>
		</g>
		<g id="g7762_25_" transform="translate(331.5508,504.1592)">
			<g id="path7764_25_">
				<path class="st3" d="M-180.3-471.6h-16.3c-6.4,0-11.5-5.4-11.5-12.1l0-17.7c0-1.4,1.2-2.6,2.6-2.6c0,0,0,0,0,0
					c1.4,0,2.6,1.2,2.6,2.6l0,17.7c0,3.8,2.8,6.9,6.3,6.9h16.3c1.4,0,2.6,1.2,2.6,2.6S-178.8-471.6-180.3-471.6z"/>
			</g>
		</g>
		<g id="g7766_25_" transform="translate(413.1929,241.0635)">
			<g id="path7768_25_">
				<path class="st3" d="M-262.3-61.1h-126c-2.7,0-4.8-2.2-4.8-5v-170c0-2.7,2.2-5,4.8-5h100.7c1.7,0,2.5,0.9,3.5,1.8l0.4,0.4
					l25.3,25.6c0.5,0.5,0.7,1.1,0.7,1.7c0.2,0.3,0.3,0.7,0.3,1.1V-66C-257.5-63.3-259.7-61.1-262.3-61.1z M-388-66.3h125.2V-210
					l-25.2-25.5c-0.1-0.1-0.2-0.2-0.3-0.3H-388V-66.3z"/>
			</g>
		</g>
	</g>
	<g>
		<g>
			<path class="st4" d="M19.9,133.8H7.2c-3,0-5.5-2.4-5.5-5.5l0,0c0-3,2.4-5.5,5.5-5.5h12.7V133.8z"/>
		</g>
		<g>
			<path class="st5" d="M74.5,133.8H7.2c-3,0-5.5-2.4-5.5-5.5v32.8c0,3,2.4,5.5,5.5,5.5h67.4c2,0,3.6-1.6,3.6-3.6v-25.5
				C78.2,135.4,76.5,133.8,74.5,133.8z"/>
		</g>
		<g>
			<path class="st4" d="M74.5,133.8h-1.8v20c0,4-3.3,7.3-7.3,7.3H12.6c-3,0-5.5,2.4-5.5,5.5l0,0h67.4c2,0,3.6-1.6,3.6-3.6v-25.5
				C78.2,135.4,76.5,133.8,74.5,133.8z"/>
		</g>
		<g>
			<path class="st3" d="M74.5,168.3H7.2c-4,0-7.2-3.2-7.2-7.2v-32.8c0-4,3.2-7.2,7.2-7.2h9.1c0.9,0,1.7,0.8,1.7,1.7
				c0,0.9-0.8,1.7-1.7,1.7H7.2c-2.1,0-3.8,1.7-3.8,3.8c0,2.1,1.7,3.8,3.8,3.8h67.4c2.9,0,5.3,2.4,5.3,5.3v25.5
				C79.9,165.9,77.5,168.3,74.5,168.3z M3.4,134.4v26.7c0,2.1,1.7,3.8,3.8,3.8h67.4c1.1,0,1.9-0.9,1.9-1.9v-25.5
				c0-1.1-0.9-1.9-1.9-1.9H7.2C5.8,135.5,4.5,135.1,3.4,134.4z"/>
		</g>
		<g>
			<path class="st3" d="M15,159.2c-0.9,0-1.7-0.8-1.7-1.7s0.8-1.7,1.7-1.7h0c0.9,0,1.7,0.8,1.7,1.7S16,159.2,15,159.2z"/>
		</g>
		<g>
			<path class="st3" d="M22.6,159.2c-0.9,0-1.7-0.8-1.7-1.7v-14.6c0-0.9,0.8-1.7,1.7-1.7s1.7,0.8,1.7,1.7v14.6
				C24.3,158.4,23.5,159.2,22.6,159.2z"/>
		</g>
		<g>
			<path class="st3" d="M22.6,152.8c-0.4,0-0.9-0.2-1.2-0.5c-0.3-0.3-0.5-0.7-0.5-1.2c0,0,0-3,0-4.1c0-0.9,0-4.1,0-4.1
				c0-0.5,0.2-0.9,0.5-1.2c0.3-0.3,0.8-0.5,1.2-0.5h4.1c3.3,0,5.9,2.6,5.9,5.8c0,3.2-2.6,5.8-5.9,5.8
				C25.5,152.8,22.6,152.8,22.6,152.8C22.6,152.8,22.6,152.8,22.6,152.8z M24.3,144.6c0,0.9,0,1.9,0,2.4c0,0.6,0,1.6,0,2.4
				c0.8,0,1.8,0,2.3,0c1.4,0,2.5-1.1,2.5-2.4c0-1.3-1.1-2.4-2.5-2.4H24.3z"/>
		</g>
		<g>
			<path class="st3" d="M37.6,159.2c-0.4,0-0.9-0.2-1.2-0.5c-0.3-0.3-0.5-0.8-0.5-1.2c0,0,0-5.3,0-7.3c0-1.7,0-7.3,0-7.3
				c0-0.5,0.2-0.9,0.5-1.2c0.3-0.3,0.8-0.5,1.2-0.5h4.1c4.5,0,7.6,3.6,7.6,9c0,5.1-3.1,8.9-7.4,9C40.6,159.2,37.6,159.2,37.6,159.2
				C37.6,159.2,37.6,159.2,37.6,159.2z M39.2,144.6c0,1.8,0,4.5,0,5.6c0,1.3,0,3.9,0,5.6c0.9,0,1.9,0,2.5,0c2.8,0,4.1-2.8,4.1-5.6
				c0-2.7-1.1-5.6-4.2-5.6H39.2z"/>
		</g>
		<g>
			<path class="st3" d="M54.7,159.2c-0.9,0-1.7-0.8-1.7-1.7v-14.6c0-0.9,0.8-1.7,1.7-1.7h5.9c0.9,0,1.7,0.8,1.7,1.7
				s-0.8,1.7-1.7,1.7h-4.2v12.9C56.4,158.5,55.6,159.2,54.7,159.2z"/>
		</g>
		<g>
			<path class="st3" d="M60.1,151.8h-5.5c-0.9,0-1.7-0.8-1.7-1.7s0.8-1.7,1.7-1.7h5.5c0.9,0,1.7,0.8,1.7,1.7S61.1,151.8,60.1,151.8z
				"/>
		</g>
	</g>
	<g>
		<g>
			<path class="st6" d="M95.3,160.4v-3.1h1.5v-1.5h-1.5v-3.1h3.1v-1.5h-3.1v-3.1h1.5v-1.5h-1.5v-3.1h3.1v-1.5h-3.1v-3.1h1.5v-1.5
				h-1.5v-3.1h3.1v-1.5h-3.1v-3.1h1.5V128h-1.5v-3.1h3.1v-1.5h-3.1v-3.1h-1.5v40.9c0,0.4,0.3,0.8,0.8,0.8H140v-1.5H95.3z"/>
		</g>
		<g>
			<g>
				<rect x="101.5" y="163.5" class="st7" width="1.5" height="3.1"/>
			</g>
			<g>
				<rect x="104.5" y="163.5" class="st7" width="1.5" height="3.1"/>
			</g>
			<g>
				<rect x="112.3" y="163.5" class="st7" width="1.5" height="3.1"/>
			</g>
			<g>
				<rect x="115.3" y="163.5" class="st7" width="1.5" height="3.1"/>
			</g>
			<g>
				<rect x="123.1" y="163.5" class="st7" width="1.5" height="3.1"/>
			</g>
			<g>
				<rect x="126.1" y="163.5" class="st7" width="1.5" height="3.1"/>
			</g>
			<g>
				<rect x="133.9" y="163.5" class="st7" width="1.5" height="3.1"/>
			</g>
			<g>
				<rect x="136.9" y="163.5" class="st7" width="1.5" height="3.1"/>
			</g>
		</g>
		<g>
			<g>
				<circle class="st8" cx="103.8" cy="155.8" r="2.3"/>
			</g>
			<g>
				<circle class="st8" cx="136.2" cy="137.3" r="2.3"/>
			</g>
			<g>
				<path class="st8" d="M116.9,147.3c0,0.2,0,0.4-0.1,0.6c-0.4,1.2-1.6,1.9-2.9,1.6c-1.2-0.4-1.9-1.6-1.6-2.9s1.6-1.9,2.9-1.6
					C116.2,145.3,116.9,146.3,116.9,147.3z"/>
			</g>
			<g>
				<path class="st8" d="M127.7,150.4c0,1.3-1,2.3-2.3,2.3c-1.3,0-2.3-1-2.3-2.3c0-0.2,0-0.4,0.1-0.6c0.4-1.2,1.6-1.9,2.9-1.6
					C127,148.5,127.7,149.4,127.7,150.4z"/>
			</g>
		</g>
		<g>
			<g>
				
					<rect x="124.5" y="142.9" transform="matrix(0.6247 -0.7809 0.7809 0.6247 -63.1454 156.0031)" class="st9" width="12.5" height="1.5"/>
			</g>
			<g>
				
					<rect x="119.2" y="145.5" transform="matrix(0.2753 -0.9614 0.9614 0.2753 -56.1426 223.1894)" class="st9" width="1.5" height="6.6"/>
			</g>
			<g>
				
					<rect x="104.4" y="150.7" transform="matrix(0.8001 -0.5998 0.5998 0.8001 -69.0588 95.6578)" class="st9" width="9.3" height="1.5"/>
			</g>
		</g>
		<g>
			<g>
				<circle class="st10" cx="103.8" cy="144.2" r="2.3"/>
			</g>
			<g>
				<circle class="st10" cx="114.6" cy="127.2" r="2.3"/>
			</g>
			<g>
				<path class="st10" d="M138.5,129.5c0,1.3-1,2.3-2.3,2.3c-0.8,0-1.6-0.4-2-1.2c-0.2-0.4-0.3-0.7-0.3-1.1c0-1.3,1-2.3,2.3-2.3
					C137.4,127.2,138.5,128.3,138.5,129.5z"/>
			</g>
			<g>
				<path class="st10" d="M127.7,135.7c0,1.3-1,2.3-2.3,2.3c-1.3,0-2.3-1-2.3-2.3c0-1.3,1-2.3,2.3-2.3c0.8,0,1.6,0.4,2,1.2
					C127.6,134.9,127.7,135.3,127.7,135.7z"/>
			</g>
		</g>
		<g>
			<g>
				
					<rect x="126.8" y="131.7" transform="matrix(0.8625 -0.506 0.506 0.8625 -49.0087 84.4956)" class="st11" width="8.4" height="1.5"/>
			</g>
			<g>
				
					<rect x="119.2" y="126.9" transform="matrix(0.6183 -0.7859 0.7859 0.6183 -57.5403 144.4665)" class="st11" width="1.5" height="9.1"/>
			</g>
			<g>
				
					<rect x="101.8" y="134.8" transform="matrix(0.5333 -0.8459 0.8459 0.5333 -63.6353 155.729)" class="st11" width="15" height="1.5"/>
			</g>
		</g>
		<g>
			<g>
				<rect x="136.2" y="137.3" class="st12" width="1.5" height="1.5"/>
			</g>
			<g>
				<rect x="136.2" y="129.5" class="st12" width="1.5" height="1.5"/>
			</g>
			<g>
				<rect x="125.4" y="135.7" class="st12" width="1.5" height="1.5"/>
			</g>
			<g>
				<rect x="114.6" y="127.2" class="st12" width="1.5" height="1.5"/>
			</g>
			<g>
				<rect x="103.8" y="144.2" class="st12" width="1.5" height="1.5"/>
			</g>
			<g>
				<rect x="103.8" y="155.8" class="st12" width="1.5" height="1.5"/>
			</g>
			<g>
				<rect x="114.6" y="147.3" class="st12" width="1.5" height="1.5"/>
			</g>
			<g>
				<rect x="125.4" y="150.4" class="st12" width="1.5" height="1.5"/>
			</g>
		</g>
		<g>
			<path class="st3" d="M95.3,160.4v-3.1h1.5v-1.5h-1.5v-3.1h3.1v-1.5h-3.1v-3.1h1.5v-1.5h-1.5v-3.1h3.1v-1.5h-3.1v-3.1h1.5v-1.5
				h-1.5v-3.1h3.1v-1.5h-3.1v-3.1h1.5V128h-1.5v-3.1h3.1v-1.5h-3.1v-3.1h-1.5v40.9c0,0.4,0.3,0.8,0.8,0.8H140v-1.5H95.3z"/>
		</g>
		<g>
			<rect x="101.5" y="163.5" class="st3" width="1.5" height="3.1"/>
		</g>
		<g>
			<rect x="104.5" y="163.5" class="st3" width="1.5" height="3.1"/>
		</g>
		<g>
			<rect x="112.3" y="163.5" class="st3" width="1.5" height="3.1"/>
		</g>
		<g>
			<rect x="115.3" y="163.5" class="st3" width="1.5" height="3.1"/>
		</g>
		<g>
			<rect x="123.1" y="163.5" class="st3" width="1.5" height="3.1"/>
		</g>
		<g>
			<rect x="126.1" y="163.5" class="st3" width="1.5" height="3.1"/>
		</g>
		<g>
			<rect x="133.9" y="163.5" class="st3" width="1.5" height="3.1"/>
		</g>
		<g>
			<rect x="136.9" y="163.5" class="st3" width="1.5" height="3.1"/>
		</g>
		<g>
			<path class="st3" d="M103.8,158.9c1.7,0,3.1-1.4,3.1-3.1c0-0.5-0.1-1-0.4-1.5l6.2-4.6c0.3,0.2,0.7,0.4,1.1,0.5
				c0.3,0.1,0.6,0.1,0.9,0.1c0.5,0,1-0.1,1.5-0.4c0.5-0.3,0.9-0.7,1.2-1.1l5.1,1.5c0,0,0,0.1,0,0.1c0,1.7,1.4,3.1,3.1,3.1
				s3.1-1.4,3.1-3.1c0,0,0,0,0,0c0-0.7-0.2-1.3-0.6-1.8l6.9-8.6c0.4,0.2,0.9,0.4,1.5,0.4c1.7,0,3.1-1.4,3.1-3.1s-1.4-3.1-3.1-3.1
				s-3.1,1.4-3.1,3.1c0,0.6,0.2,1.2,0.5,1.6l-6.9,8.7c-0.1-0.1-0.3-0.1-0.4-0.1c-1.4-0.4-2.8,0.2-3.5,1.4l-5.1-1.5c0,0,0-0.1,0-0.1
				c0-1.4-0.9-2.6-2.2-3c-0.8-0.2-1.6-0.1-2.3,0.3c-0.7,0.4-1.2,1.1-1.5,1.8c-0.2,0.7-0.1,1.4,0.1,2l-6.3,4.7
				c-0.5-0.3-1-0.5-1.7-0.5c-1.7,0-3.1,1.4-3.1,3.1S102.1,158.9,103.8,158.9z M136.2,135.7c0.9,0,1.5,0.7,1.5,1.5
				c0,0.9-0.7,1.5-1.5,1.5c-0.9,0-1.5-0.7-1.5-1.5C134.6,136.4,135.3,135.7,136.2,135.7z M123.9,150c0.2-0.7,0.8-1.1,1.5-1.1
				c0.1,0,0.3,0,0.4,0.1c0.7,0.2,1.1,0.8,1.1,1.5c0,0.8-0.7,1.5-1.5,1.5c-0.9,0-1.5-0.7-1.5-1.5C123.8,150.2,123.8,150.1,123.9,150z
				 M113.1,146.8c0.1-0.4,0.4-0.7,0.7-0.9c0.2-0.1,0.5-0.2,0.7-0.2c0.1,0,0.3,0,0.4,0.1c0.7,0.2,1.1,0.8,1.1,1.5c0,0,0,0,0,0
				c0,0.1,0,0.3-0.1,0.4c-0.1,0.4-0.4,0.7-0.7,0.9c-0.4,0.2-0.8,0.2-1.2,0.1c-0.4-0.1-0.7-0.4-0.9-0.7
				C113,147.7,113,147.2,113.1,146.8z M103.8,154.2c0.9,0,1.5,0.7,1.5,1.5c0,0.9-0.7,1.5-1.5,1.5c-0.9,0-1.5-0.7-1.5-1.5
				C102.2,154.9,102.9,154.2,103.8,154.2z"/>
		</g>
		<g>
			<path class="st3" d="M103.8,147.3c1.7,0,3.1-1.4,3.1-3.1c0-0.8-0.3-1.5-0.8-2.1l7.6-12c0.3,0.1,0.6,0.2,0.9,0.2
				c0.7,0,1.3-0.2,1.9-0.6l6.1,4.8c-0.2,0.4-0.3,0.8-0.3,1.2c0,1.7,1.4,3.1,3.1,3.1c0,0,0,0,0,0c1.7,0,3.1-1.4,3.1-3.1
				c0-0.3,0-0.6-0.1-0.8l5.6-3.3c0.6,0.6,1.4,1,2.3,1c0,0,0,0,0,0c1.7,0,3.1-1.4,3.1-3.1c0-1.7-1.4-3.1-3.1-3.1
				c-1.7,0-3.1,1.4-3.1,3.1c0,0.2,0,0.5,0.1,0.7l-5.6,3.3c-0.6-0.6-1.4-0.9-2.2-0.9c0,0,0,0,0,0c-0.7,0-1.3,0.2-1.9,0.6l-6.1-4.8
				c0.2-0.4,0.3-0.8,0.3-1.2c0-1.7-1.4-3.1-3.1-3.1c-1.7,0-3.1,1.4-3.1,3.1c0,0.8,0.3,1.5,0.8,2.1l-7.5,12c-0.3-0.1-0.6-0.2-1-0.2
				c-1.7,0-3.1,1.4-3.1,3.1S102.1,147.3,103.8,147.3z M136.2,128c0.9,0,1.5,0.7,1.5,1.5c0,0,0,0,0,0c0,0.9-0.7,1.5-1.5,1.5
				c0,0,0,0,0,0c-0.6,0-1.1-0.3-1.3-0.8c-0.1-0.2-0.2-0.5-0.2-0.8C134.6,128.7,135.3,128,136.2,128z M125.4,134.2
				C125.4,134.2,125.4,134.2,125.4,134.2c0.6,0,1.1,0.3,1.3,0.8c0.1,0.2,0.2,0.5,0.2,0.8c0,0.9-0.7,1.5-1.5,1.5c0,0,0,0,0,0
				c-0.8,0-1.5-0.7-1.5-1.5C123.8,134.9,124.5,134.2,125.4,134.2z M114.6,125.7c0.9,0,1.5,0.7,1.5,1.5c0,0.9-0.7,1.5-1.5,1.5
				c-0.9,0-1.5-0.7-1.5-1.5C113,126.4,113.7,125.7,114.6,125.7z M103.8,142.7c0.9,0,1.5,0.7,1.5,1.5s-0.7,1.5-1.5,1.5
				c-0.9,0-1.5-0.7-1.5-1.5S102.9,142.7,103.8,142.7z"/>
		</g>
	</g>
	<g>
		<g>
			<rect x="104.4" y="56.4" class="st13" width="34.4" height="44.3"/>
		</g>
		<g>
			<rect x="130.3" y="56.4" class="st14" width="8.4" height="44.3"/>
		</g>
		<g>
			
				<rect x="47.1" y="54.2" transform="matrix(1 -3.255191e-03 3.255191e-03 1 -0.183 0.2258)" class="st3" width="44.3" height="4.4"/>
		</g>
		<g>
			<rect x="34.5" y="54.2" class="st3" width="6.5" height="4.4"/>
		</g>
		<g>
			
				<rect x="47.1" y="68.8" transform="matrix(1 -3.255191e-03 3.255191e-03 1 -0.2306 0.2259)" class="st3" width="44.3" height="4.4"/>
		</g>
		<g>
			<rect x="34.5" y="68.9" class="st3" width="6.5" height="4.4"/>
		</g>
		<g>
			
				<rect x="47.1" y="83.7" transform="matrix(1 -3.255191e-03 3.255191e-03 1 -0.2792 0.226)" class="st3" width="44.3" height="4.4"/>
		</g>
		<g>
			<rect x="34.5" y="83.8" class="st3" width="6.5" height="4.4"/>
		</g>
		<g>
			
				<rect x="47.1" y="98.3" transform="matrix(1 -3.255191e-03 3.255191e-03 1 -0.3267 0.2261)" class="st3" width="44.3" height="4.4"/>
		</g>
		<g>
			<rect x="34.5" y="98.3" class="st3" width="6.5" height="4.4"/>
		</g>
		<g>
			<path class="st3" d="M141,102.9h-38.7V54.2H141V102.9z M106.6,98.5h30V58.6h-30V98.5z"/>
		</g>
		<g>
			<rect x="115.5" y="69.8" class="st3" width="13.9" height="4.4"/>
		</g>
		<g>
			<rect x="115.5" y="82.5" class="st3" width="13.9" height="4.4"/>
		</g>
	</g>
	<g>
		<g>
			<path class="st15" d="M69.9,24.7H48.2c-0.8,0-1.5-0.8-1.5-1.8c0-1,0.7-1.8,1.5-1.8h21.7c0.8,0,1.5,0.8,1.5,1.8
				C71.4,23.9,70.7,24.7,69.9,24.7z"/>
		</g>
		<g>
			<path class="st16" d="M42.3,24.7H36c-0.8,0-1.5-0.8-1.5-1.8c0-1,0.7-1.8,1.5-1.8h6.3c0.8,0,1.5,0.8,1.5,1.8
				C43.8,23.9,43.1,24.7,42.3,24.7z"/>
		</g>
		<g>
			<path class="st15" d="M69.9,35.8H36c-0.8,0-1.5-0.8-1.5-1.8s0.7-1.8,1.5-1.8h33.9c0.8,0,1.5,0.8,1.5,1.8S70.7,35.8,69.9,35.8z"/>
		</g>
		<g>
			<path class="st15" d="M111.1,24.7H89.4c-0.8,0-1.5-0.8-1.5-1.8c0-1,0.7-1.8,1.5-1.8h21.7c0.8,0,1.5,0.8,1.5,1.8
				C112.6,23.9,111.9,24.7,111.1,24.7z"/>
		</g>
		<g>
			<path class="st17" d="M83.5,24.7h-6.3c-0.8,0-1.5-0.8-1.5-1.8c0-1,0.7-1.8,1.5-1.8h6.3c0.8,0,1.5,0.8,1.5,1.8
				C85,23.9,84.3,24.7,83.5,24.7z"/>
		</g>
		<g>
			<path class="st15" d="M111.1,35.8H77.2c-0.8,0-1.5-0.8-1.5-1.8s0.7-1.8,1.5-1.8h33.9c0.8,0,1.5,0.8,1.5,1.8
				S111.9,35.8,111.1,35.8z"/>
		</g>
	</g>
</g>
</svg>
